<svg xmlns="http://www.w3.org/2000/svg" width="1500" height="900" viewBox="0 0 1500 900">
  <title>Track &amp; Field Speed Lines Background</title>
  <defs><clipPath id="banner_shape"><rect width="1500" height="900"/></clipPath><radialGradient id="bg_gradient" cx="50%" cy="35%" r="76%"><stop offset="0" stop-color="#fde68a"/><stop offset=".34" stop-color="#f59e0b"/><stop offset="1" stop-color="#0f172a"/></radialGradient><linearGradient id="edge_shade" x1="0" x2="1"><stop offset="0" stop-color="#000" stop-opacity=".55"/><stop offset=".5" stop-color="#000" stop-opacity=".08"/><stop offset="1" stop-color="#000" stop-opacity=".55"/></linearGradient></defs>
  <g id="bg_stadium" clip-path="url(#banner_shape)"><rect id="bg_color" width="1500" height="900" fill="url(#bg_gradient)"/><rect id="bg_edge_shade" width="1500" height="900" fill="url(#edge_shade)"/><g id="bg_lighting"><path d="M-300 900 L150 0" stroke="#fff" stroke-opacity=".13" stroke-width="18"/><path d="M-150 900 L300 0" stroke="#fff" stroke-opacity=".13" stroke-width="18"/><path d="M0 900 L450 0" stroke="#fff" stroke-opacity=".13" stroke-width="18"/><path d="M150 900 L600 0" stroke="#fff" stroke-opacity=".13" stroke-width="18"/><path d="M300 900 L750 0" stroke="#fff" stroke-opacity=".13" stroke-width="18"/><path d="M450 900 L900 0" stroke="#fff" stroke-opacity=".13" stroke-width="18"/><path d="M600 900 L1050 0" stroke="#fff" stroke-opacity=".13" stroke-width="18"/><path d="M750 900 L1200 0" stroke="#fff" stroke-opacity=".13" stroke-width="18"/><path d="M900 900 L1350 0" stroke="#fff" stroke-opacity=".13" stroke-width="18"/><path d="M1050 900 L1500 0" stroke="#fff" stroke-opacity=".13" stroke-width="18"/><path d="M1200 900 L1650 0" stroke="#fff" stroke-opacity=".13" stroke-width="18"/><path d="M1350.0000000000002 900 L1800.0000000000002 0" stroke="#fff" stroke-opacity=".13" stroke-width="18"/></g><g id="field_court_overlay" opacity=".58"><path d="M90 684 C390 342 1110 342 1410 684" fill="none" stroke="#fff" stroke-width="8"/><path d="M210.00000000000003 738 C450 468 1050 468 1290 738" fill="none" stroke="#fff" stroke-width="5"/></g><g id="sport_icon_watermark" opacity=".2"><circle cx="240" cy="234" r="99" fill="#f59e0b" stroke="#fff" stroke-width="7.92"/><path d="M174.66 253.8 C228.12 192.42000000000002 281.58 206.28 307.32 255.78" fill="none" stroke="#0f172a" stroke-width="9.9" stroke-linecap="round"/><path d="M196.44 281.52 L287.52 281.52" stroke="#fff" stroke-width="8.91" stroke-linecap="round"/><path d="M222.18 176.58 L255.84 176.58" stroke="#fff" stroke-width="8.91" stroke-linecap="round"/></g></g>
</svg>