<svg xmlns="http://www.w3.org/2000/svg" width="1500" height="900" viewBox="0 0 1500 900" data-template-id="volleyball-pole-pocket-4-player-stadium-gold-2026" data-sport="volleyball" data-shape="rectangle" data-player-count="4">
  <title>Volleyball Pole Pocket 4 Player Stadium Gold 2026</title>
  <defs><clipPath id="banner_shape"><rect width="1500" height="900"/></clipPath><radialGradient id="bg_gradient" cx="50%" cy="38%" r="76%"><stop offset="0" stop-color="#fbcfe8"/><stop offset=".38" stop-color="#f59e0b"/><stop offset="1" stop-color="#111827"/></radialGradient></defs>
  <g id="template_root" clip-path="url(#banner_shape)">
    <rect id="bg_stadium" width="1500" height="900" fill="url(#bg_gradient)"/>
    <g id="bg_lighting"><path d="M0 0 L480 630 L0 900 Z" fill="#fff" opacity=".12"/><path d="M1500 0 L1020.0000000000001 630 L1500 900 Z" fill="#fff" opacity=".12"/></g>
    <g id="field_court_overlay" opacity=".58"><rect x="120" y="270" width="1260" height="468" rx="18" fill="none" stroke="#fff" stroke-width="5"/><circle cx="750" cy="522" r="162" fill="none" stroke="#fff" stroke-width="5"/><path d="M750 270 V738" stroke="#fff" stroke-width="5"/></g>
    <g id="sport_icon" opacity=".92"><circle cx="750" cy="252.00000000000003" r="99" fill="#fff" stroke="#111827" stroke-width="7.92"/><path d="M750 153.00000000000003 C732.18 210.42000000000002 767.82 234.18000000000004 849 244.08000000000004" fill="none" stroke="#ec4899" stroke-width="12.870000000000001" stroke-linecap="round"/><path d="M660.9 214.38000000000002 C732.18 232.20000000000002 761.88 273.78000000000003 785.64 343.08000000000004" fill="none" stroke="#ec4899" stroke-width="12.870000000000001" stroke-linecap="round"/><path d="M678.72 321.3 C738.12 293.58000000000004 775.74 261.90000000000003 821.28 186.66000000000003" fill="none" stroke="#111827" stroke-width="8.91" stroke-linecap="round"/></g>
    <g id="logo_team">
  <title>BULLDOGS Volleyball Logo Placeholder</title>
  <defs><filter id="logo_shadow"><feDropShadow dx="0" dy="14" stdDeviation="8" flood-color="#000" flood-opacity=".45"/></filter></defs>
  <g id="logo_team" filter="url(#logo_shadow)"><path id="logo_shield" d="M450 34 L738 138 L690 392 L450 486 L210 392 L162 138 Z" fill="#111827" stroke="#fff" stroke-width="18"/><path id="logo_inner" d="M450 74 L694 160 L654 362 L450 442 L246 362 L206 160 Z" fill="#f59e0b" stroke="#fbcfe8" stroke-width="10"/><circle cx="450" cy="190" r="74" fill="#fff" stroke="#111827" stroke-width="5.92"/><path d="M450 116 C436.68 158.92000000000002 463.32 176.68 524 184.08" fill="none" stroke="#ec4899" stroke-width="9.620000000000001" stroke-linecap="round"/><path d="M383.4 161.88 C436.68 175.2 458.88 206.28 476.64 258.08" fill="none" stroke="#ec4899" stroke-width="9.620000000000001" stroke-linecap="round"/><path d="M396.72 241.8 C441.12 221.07999999999998 469.24 197.4 503.28 141.16" fill="none" stroke="#111827" stroke-width="6.66" stroke-linecap="round"/><text id="title_team_name" x="450" y="344" text-anchor="middle" font-family="Arial Black, Impact, sans-serif" font-size="82" fill="#fff" stroke="#111827" stroke-width="8" paint-order="stroke">BULLDOGS</text><text id="title_mascot" x="450" y="405" text-anchor="middle" font-family="Arial Black, Impact, sans-serif" font-size="42" fill="#fbcfe8">CLUB</text></g>
</g>
    <text id="title_team_name" x="750" y="468" text-anchor="middle" font-family="Arial Black, Impact, sans-serif" font-size="112" fill="#fff" stroke="#111827" stroke-width="10" paint-order="stroke">BULLDOGS</text>
    <text id="subtitle_sport_year" x="750" y="549" text-anchor="middle" font-family="Arial Black, Impact, sans-serif" font-size="54" fill="#fbcfe8">VOLLEYBALL 2026</text>
    <g id="player_01" data-layer-role="player" data-player-index="1">
      <clipPath id="player_01_photo_mask"><circle cx="240" cy="198" r="57.275999999999996"/></clipPath>
      <rect id="player_01_photo_placeholder" x="182.724" y="140.724" width="114.55199999999999" height="114.55199999999999" rx="57.275999999999996" fill="#d1d5db" clip-path="url(#player_01_photo_mask)"/>
      <circle id="player_01_frame" cx="240" cy="198" r="66.6" fill="none" stroke="#fff" stroke-width="9.989999999999998"/>
      <circle id="player_01_frame_color" cx="240" cy="198" r="61.272" fill="none" stroke="#f59e0b" stroke-width="5.327999999999999"/>
      <path id="player_01_nameplate" d="M165.40800000000002 274.6 H314.592 L299.94 332.6 H180.06 Z" fill="#111827" stroke="#fff" stroke-width="5"/>
      <text id="player_01_name" x="240" y="315.6" text-anchor="middle" font-family="Arial Black, Impact, sans-serif" font-size="25.308" fill="#fff">PLAYER</text>
      <text id="player_01_number" x="291.948" y="259.272" text-anchor="middle" font-family="Arial Black, Impact, sans-serif" font-size="22.644" fill="#f59e0b" stroke="#fff" stroke-width="3">#1</text>
    </g>
<g id="player_02" data-layer-role="player" data-player-index="2">
      <clipPath id="player_02_photo_mask"><circle cx="240" cy="702" r="57.275999999999996"/></clipPath>
      <rect id="player_02_photo_placeholder" x="182.724" y="644.724" width="114.55199999999999" height="114.55199999999999" rx="57.275999999999996" fill="#d1d5db" clip-path="url(#player_02_photo_mask)"/>
      <circle id="player_02_frame" cx="240" cy="702" r="66.6" fill="none" stroke="#fff" stroke-width="9.989999999999998"/>
      <circle id="player_02_frame_color" cx="240" cy="702" r="61.272" fill="none" stroke="#f59e0b" stroke-width="5.327999999999999"/>
      <path id="player_02_nameplate" d="M165.40800000000002 778.6 H314.592 L299.94 836.6 H180.06 Z" fill="#111827" stroke="#fff" stroke-width="5"/>
      <text id="player_02_name" x="240" y="819.6" text-anchor="middle" font-family="Arial Black, Impact, sans-serif" font-size="25.308" fill="#fff">PLAYER</text>
      <text id="player_02_number" x="291.948" y="763.272" text-anchor="middle" font-family="Arial Black, Impact, sans-serif" font-size="22.644" fill="#f59e0b" stroke="#fff" stroke-width="3">#2</text>
    </g>
<g id="player_03" data-layer-role="player" data-player-index="3">
      <clipPath id="player_03_photo_mask"><circle cx="1260" cy="198" r="57.275999999999996"/></clipPath>
      <rect id="player_03_photo_placeholder" x="1202.724" y="140.724" width="114.55199999999999" height="114.55199999999999" rx="57.275999999999996" fill="#d1d5db" clip-path="url(#player_03_photo_mask)"/>
      <circle id="player_03_frame" cx="1260" cy="198" r="66.6" fill="none" stroke="#fff" stroke-width="9.989999999999998"/>
      <circle id="player_03_frame_color" cx="1260" cy="198" r="61.272" fill="none" stroke="#f59e0b" stroke-width="5.327999999999999"/>
      <path id="player_03_nameplate" d="M1185.408 274.6 H1334.592 L1319.94 332.6 H1200.06 Z" fill="#111827" stroke="#fff" stroke-width="5"/>
      <text id="player_03_name" x="1260" y="315.6" text-anchor="middle" font-family="Arial Black, Impact, sans-serif" font-size="25.308" fill="#fff">PLAYER</text>
      <text id="player_03_number" x="1311.948" y="259.272" text-anchor="middle" font-family="Arial Black, Impact, sans-serif" font-size="22.644" fill="#f59e0b" stroke="#fff" stroke-width="3">#3</text>
    </g>
<g id="player_04" data-layer-role="player" data-player-index="4">
      <clipPath id="player_04_photo_mask"><circle cx="1260" cy="702" r="57.275999999999996"/></clipPath>
      <rect id="player_04_photo_placeholder" x="1202.724" y="644.724" width="114.55199999999999" height="114.55199999999999" rx="57.275999999999996" fill="#d1d5db" clip-path="url(#player_04_photo_mask)"/>
      <circle id="player_04_frame" cx="1260" cy="702" r="66.6" fill="none" stroke="#fff" stroke-width="9.989999999999998"/>
      <circle id="player_04_frame_color" cx="1260" cy="702" r="61.272" fill="none" stroke="#f59e0b" stroke-width="5.327999999999999"/>
      <path id="player_04_nameplate" d="M1185.408 778.6 H1334.592 L1319.94 836.6 H1200.06 Z" fill="#111827" stroke="#fff" stroke-width="5"/>
      <text id="player_04_name" x="1260" y="819.6" text-anchor="middle" font-family="Arial Black, Impact, sans-serif" font-size="25.308" fill="#fff">PLAYER</text>
      <text id="player_04_number" x="1311.948" y="763.272" text-anchor="middle" font-family="Arial Black, Impact, sans-serif" font-size="22.644" fill="#f59e0b" stroke="#fff" stroke-width="3">#4</text>
    </g>
    <text id="footer_text" x="750" y="846" text-anchor="middle" font-family="Arial Black, Impact, sans-serif" font-size="38" fill="#fff">ONE SCHOOL. ONE TEAM.</text>
  </g>
</svg>