<svg xmlns="http://www.w3.org/2000/svg" width="1500" height="900" viewBox="0 0 1500 900" data-template-id="softball-pole-pocket-1-player-arena-orange-2026" data-sport="softball" data-shape="rectangle" data-player-count="1">
  <title>Softball Pole Pocket 1 Player Arena Orange 2026</title>
  <defs><clipPath id="banner_shape"><rect width="1500" height="900"/></clipPath><radialGradient id="bg_gradient" cx="50%" cy="38%" r="76%"><stop offset="0" stop-color="#fef3c7"/><stop offset=".38" stop-color="#f97316"/><stop offset="1" stop-color="#111827"/></radialGradient></defs>
  <g id="template_root" clip-path="url(#banner_shape)">
    <rect id="bg_stadium" width="1500" height="900" fill="url(#bg_gradient)"/>
    <g id="bg_lighting"><path d="M0 0 L480 630 L0 900 Z" fill="#fff" opacity=".12"/><path d="M1500 0 L1020.0000000000001 630 L1500 900 Z" fill="#fff" opacity=".12"/></g>
    <g id="field_court_overlay" opacity=".58"><path d="M210.00000000000003 648 C450 432 1050 432 1290 648" fill="none" stroke="#fff" stroke-width="5"/><path d="M750 306 V738" stroke="#fff" stroke-width="4"/></g>
    <g id="sport_icon" opacity=".92"><circle cx="750" cy="252.00000000000003" r="99" fill="#fef08a" stroke="#111827" stroke-width="5.9399999999999995"/><path d="M698.52 170.82000000000005 C734.16 224.28000000000003 734.16 279.72 698.52 333.18" fill="none" stroke="#facc15" stroke-width="6.930000000000001"/><path d="M801.48 170.82000000000005 C765.84 224.28000000000003 765.84 279.72 801.48 333.18" fill="none" stroke="#facc15" stroke-width="6.930000000000001"/></g>
    <g id="logo_team">
  <title>BULLDOGS Softball Logo Placeholder</title>
  <defs><filter id="logo_shadow"><feDropShadow dx="0" dy="14" stdDeviation="8" flood-color="#000" flood-opacity=".45"/></filter></defs>
  <g id="logo_team" filter="url(#logo_shadow)"><path id="logo_shield" d="M450 34 L738 138 L690 392 L450 486 L210 392 L162 138 Z" fill="#111827" stroke="#fff" stroke-width="18"/><path id="logo_inner" d="M450 74 L694 160 L654 362 L450 442 L246 362 L206 160 Z" fill="#f97316" stroke="#fef3c7" stroke-width="10"/><circle cx="450" cy="190" r="74" fill="#fef08a" stroke="#111827" stroke-width="4.4399999999999995"/><path d="M411.52 129.32 C438.16 169.28 438.16 210.72 411.52 250.68" fill="none" stroke="#facc15" stroke-width="5.180000000000001"/><path d="M488.48 129.32 C461.84 169.28 461.84 210.72 488.48 250.68" fill="none" stroke="#facc15" stroke-width="5.180000000000001"/><text id="title_team_name" x="450" y="344" text-anchor="middle" font-family="Arial Black, Impact, sans-serif" font-size="82" fill="#fff" stroke="#111827" stroke-width="8" paint-order="stroke">BULLDOGS</text><text id="title_mascot" x="450" y="405" text-anchor="middle" font-family="Arial Black, Impact, sans-serif" font-size="42" fill="#fef3c7">CLUB</text></g>
</g>
    <text id="title_team_name" x="750" y="468" text-anchor="middle" font-family="Arial Black, Impact, sans-serif" font-size="112" fill="#fff" stroke="#111827" stroke-width="10" paint-order="stroke">BULLDOGS</text>
    <text id="subtitle_sport_year" x="750" y="549" text-anchor="middle" font-family="Arial Black, Impact, sans-serif" font-size="54" fill="#fef3c7">SOFTBALL 2026</text>
    <g id="player_01" data-layer-role="player" data-player-index="1">
      <clipPath id="player_01_photo_mask"><circle cx="750" cy="522" r="57.275999999999996"/></clipPath>
      <rect id="player_01_photo_placeholder" x="692.724" y="464.724" width="114.55199999999999" height="114.55199999999999" rx="57.275999999999996" fill="#d1d5db" clip-path="url(#player_01_photo_mask)"/>
      <circle id="player_01_frame" cx="750" cy="522" r="66.6" fill="none" stroke="#fff" stroke-width="9.989999999999998"/>
      <circle id="player_01_frame_color" cx="750" cy="522" r="61.272" fill="none" stroke="#f97316" stroke-width="5.327999999999999"/>
      <path id="player_01_nameplate" d="M675.408 598.6 H824.592 L809.94 656.6 H690.06 Z" fill="#111827" stroke="#fff" stroke-width="5"/>
      <text id="player_01_name" x="750" y="639.6" text-anchor="middle" font-family="Arial Black, Impact, sans-serif" font-size="25.308" fill="#fff">PLAYER</text>
      <text id="player_01_number" x="801.948" y="583.272" text-anchor="middle" font-family="Arial Black, Impact, sans-serif" font-size="22.644" fill="#f97316" stroke="#fff" stroke-width="3">#1</text>
    </g>
    <text id="footer_text" x="750" y="846" text-anchor="middle" font-family="Arial Black, Impact, sans-serif" font-size="38" fill="#fff">ONE SCHOOL. ONE TEAM.</text>
  </g>
</svg>