<svg xmlns="http://www.w3.org/2000/svg" width="900" height="900" viewBox="0 0 900 900">
  <title>Football Speed Lines Background</title>
  <defs><clipPath id="banner_shape"><polygon points="36,70 864,70 450,850"/></clipPath><radialGradient id="bg_gradient" cx="50%" cy="35%" r="76%"><stop offset="0" stop-color="#fde68a"/><stop offset=".34" stop-color="#ca8a04"/><stop offset="1" stop-color="#111827"/></radialGradient><linearGradient id="edge_shade" x1="0" x2="1"><stop offset="0" stop-color="#000" stop-opacity=".55"/><stop offset=".5" stop-color="#000" stop-opacity=".08"/><stop offset="1" stop-color="#000" stop-opacity=".55"/></linearGradient></defs>
  <g id="bg_stadium" clip-path="url(#banner_shape)"><rect id="bg_color" width="900" height="900" fill="url(#bg_gradient)"/><rect id="bg_edge_shade" width="900" height="900" fill="url(#edge_shade)"/><g id="bg_lighting"><path d="M-180 900 L90 0" stroke="#fff" stroke-opacity=".13" stroke-width="10.8"/><path d="M-90 900 L180 0" stroke="#fff" stroke-opacity=".13" stroke-width="10.8"/><path d="M0 900 L270 0" stroke="#fff" stroke-opacity=".13" stroke-width="10.8"/><path d="M90 900 L360 0" stroke="#fff" stroke-opacity=".13" stroke-width="10.8"/><path d="M180 900 L450 0" stroke="#fff" stroke-opacity=".13" stroke-width="10.8"/><path d="M270 900 L540 0" stroke="#fff" stroke-opacity=".13" stroke-width="10.8"/><path d="M360 900 L630 0" stroke="#fff" stroke-opacity=".13" stroke-width="10.8"/><path d="M450 900 L720 0" stroke="#fff" stroke-opacity=".13" stroke-width="10.8"/><path d="M540 900 L810 0" stroke="#fff" stroke-opacity=".13" stroke-width="10.8"/><path d="M630 900 L900 0" stroke="#fff" stroke-opacity=".13" stroke-width="10.8"/><path d="M720 900 L990 0" stroke="#fff" stroke-opacity=".13" stroke-width="10.8"/><path d="M810.0000000000001 900 L1080 0" stroke="#fff" stroke-opacity=".13" stroke-width="10.8"/></g><g id="field_court_overlay" opacity=".58"><path d="M0 612 H900" stroke="#fff" stroke-width="5"/><path d="M450 270 V900" stroke="#fff" stroke-width="4"/><text x="450" y="738" text-anchor="middle" font-family="Arial Black, Impact, sans-serif" font-size="126.00000000000001" fill="#fff" opacity=".26">50</text></g><g id="sport_icon_watermark" opacity=".2"><ellipse cx="144" cy="234" rx="116.82" ry="63.36" fill="#ca8a04" stroke="#fff" stroke-width="7.92"/><path d="M62.82000000000001 234 C110.34 206.28 177.66 206.28 225.18 234" fill="none" stroke="#111827" stroke-width="7.92"/><path d="M62.82000000000001 234 C110.34 261.72 177.66 261.72 225.18 234" fill="none" stroke="#111827" stroke-width="7.92"/><path d="M120.24000000000001 234 H167.76" stroke="#fff" stroke-width="8.91" stroke-linecap="round"/><path d="M136.08 216.18 V251.82 M151.92 216.18 V251.82" stroke="#fff" stroke-width="4.455" stroke-linecap="round"/></g></g>
</svg>