<svg xmlns="http://www.w3.org/2000/svg" width="900" height="900" viewBox="0 0 900 900">
  <title>Football Championship Burst Background</title>
  <defs><clipPath id="banner_shape"><polygon points="36,70 864,70 450,850"/></clipPath><radialGradient id="bg_gradient" cx="50%" cy="35%" r="76%"><stop offset="0" stop-color="#fde68a"/><stop offset=".34" stop-color="#ca8a04"/><stop offset="1" stop-color="#111827"/></radialGradient><linearGradient id="edge_shade" x1="0" x2="1"><stop offset="0" stop-color="#000" stop-opacity=".55"/><stop offset=".5" stop-color="#000" stop-opacity=".08"/><stop offset="1" stop-color="#000" stop-opacity=".55"/></linearGradient></defs>
  <g id="bg_stadium" clip-path="url(#banner_shape)"><rect id="bg_color" width="900" height="900" fill="url(#bg_gradient)"/><rect id="bg_edge_shade" width="900" height="900" fill="url(#edge_shade)"/><g id="bg_lighting"><path d="M450 324 L828 324" stroke="#fff" stroke-opacity=".18" stroke-width="22"/><path d="M450 324 L805.2038106570734 410.1890761180685" stroke="#fff" stroke-opacity=".18" stroke-width="22"/><path d="M450 324 L739.5647994989737 485.9824776410079" stroke="#fff" stroke-opacity=".18" stroke-width="22"/><path d="M450 324 L639 542.2384017536785" stroke="#fff" stroke-opacity=".18" stroke-width="22"/><path d="M450 324 L515.6390111580997 572.1715537590765" stroke="#fff" stroke-opacity=".18" stroke-width="22"/><path d="M450 324 L384.36098884190034 572.1715537590765" stroke="#fff" stroke-opacity=".18" stroke-width="22"/><path d="M450 324 L261.0000000000001 542.2384017536785" stroke="#fff" stroke-opacity=".18" stroke-width="22"/><path d="M450 324 L160.43520050102637 485.98247764100796" stroke="#fff" stroke-opacity=".18" stroke-width="22"/><path d="M450 324 L94.79618934292665 410.18907611806856" stroke="#fff" stroke-opacity=".18" stroke-width="22"/><path d="M450 324 L72 324.00000000000006" stroke="#fff" stroke-opacity=".18" stroke-width="22"/><path d="M450 324 L94.7961893429266 237.8109238819315" stroke="#fff" stroke-opacity=".18" stroke-width="22"/><path d="M450 324 L160.4352005010262 162.01752235899218" stroke="#fff" stroke-opacity=".18" stroke-width="22"/><path d="M450 324 L260.99999999999983 105.76159824632146" stroke="#fff" stroke-opacity=".18" stroke-width="22"/><path d="M450 324 L384.36098884190034 75.82844624092357" stroke="#fff" stroke-opacity=".18" stroke-width="22"/><path d="M450 324 L515.6390111580995 75.82844624092354" stroke="#fff" stroke-opacity=".18" stroke-width="22"/><path d="M450 324 L638.9999999999998 105.76159824632134" stroke="#fff" stroke-opacity=".18" stroke-width="22"/><path d="M450 324 L739.5647994989736 162.017522358992" stroke="#fff" stroke-opacity=".18" stroke-width="22"/><path d="M450 324 L805.2038106570734 237.8109238819315" stroke="#fff" stroke-opacity=".18" stroke-width="22"/></g><g id="field_court_overlay" opacity=".58"><path d="M0 612 H900" stroke="#fff" stroke-width="5"/><path d="M450 270 V900" stroke="#fff" stroke-width="4"/><text x="450" y="738" text-anchor="middle" font-family="Arial Black, Impact, sans-serif" font-size="126.00000000000001" fill="#fff" opacity=".26">50</text></g><g id="sport_icon_watermark" opacity=".2"><ellipse cx="144" cy="234" rx="116.82" ry="63.36" fill="#ca8a04" stroke="#fff" stroke-width="7.92"/><path d="M62.82000000000001 234 C110.34 206.28 177.66 206.28 225.18 234" fill="none" stroke="#111827" stroke-width="7.92"/><path d="M62.82000000000001 234 C110.34 261.72 177.66 261.72 225.18 234" fill="none" stroke="#111827" stroke-width="7.92"/><path d="M120.24000000000001 234 H167.76" stroke="#fff" stroke-width="8.91" stroke-linecap="round"/><path d="M136.08 216.18 V251.82 M151.92 216.18 V251.82" stroke="#fff" stroke-width="4.455" stroke-linecap="round"/></g></g>
</svg>