<svg xmlns="http://www.w3.org/2000/svg" width="900" height="900" viewBox="0 0 900 900">
  <title>Volleyball Game Night Lights Background</title>
  <defs><clipPath id="banner_shape"><polygon points="32,32 868,32 868,500 450,868 32,500"/></clipPath><radialGradient id="bg_gradient" cx="50%" cy="35%" r="76%"><stop offset="0" stop-color="#fbcfe8"/><stop offset=".34" stop-color="#ec4899"/><stop offset="1" stop-color="#111827"/></radialGradient><linearGradient id="edge_shade" x1="0" x2="1"><stop offset="0" stop-color="#000" stop-opacity=".55"/><stop offset=".5" stop-color="#000" stop-opacity=".08"/><stop offset="1" stop-color="#000" stop-opacity=".55"/></linearGradient></defs>
  <g id="bg_stadium" clip-path="url(#banner_shape)"><rect id="bg_color" width="900" height="900" fill="url(#bg_gradient)"/><rect id="bg_edge_shade" width="900" height="900" fill="url(#edge_shade)"/><g id="bg_lighting"><circle cx="0" cy="108" r="12.6" fill="#fff" opacity=".62"/><circle cx="75" cy="108" r="12.6" fill="#fff" opacity=".62"/><circle cx="150" cy="108" r="12.6" fill="#fff" opacity=".62"/><circle cx="225" cy="108" r="12.6" fill="#fff" opacity=".62"/><circle cx="300" cy="108" r="12.6" fill="#fff" opacity=".62"/><circle cx="375" cy="108" r="12.6" fill="#fff" opacity=".62"/><circle cx="450" cy="108" r="12.6" fill="#fff" opacity=".62"/><circle cx="525" cy="108" r="12.6" fill="#fff" opacity=".62"/><circle cx="600" cy="108" r="12.6" fill="#fff" opacity=".62"/><circle cx="675" cy="108" r="12.6" fill="#fff" opacity=".62"/><circle cx="750" cy="108" r="12.6" fill="#fff" opacity=".62"/><circle cx="825" cy="108" r="12.6" fill="#fff" opacity=".62"/><circle cx="900" cy="108" r="12.6" fill="#fff" opacity=".62"/></g><g id="field_court_overlay" opacity=".58"><rect x="72" y="270" width="756" height="468" rx="18" fill="none" stroke="#fff" stroke-width="5"/><circle cx="450" cy="522" r="162" fill="none" stroke="#fff" stroke-width="5"/><path d="M450 270 V738" stroke="#fff" stroke-width="5"/></g><g id="sport_icon_watermark" opacity=".2"><circle cx="144" cy="234" r="99" fill="#fff" stroke="#111827" stroke-width="7.92"/><path d="M144 135 C126.18 192.42000000000002 161.82 216.18 243 226.08" fill="none" stroke="#ec4899" stroke-width="12.870000000000001" stroke-linecap="round"/><path d="M54.89999999999999 196.38 C126.18 214.2 155.88 255.78 179.64 325.08" fill="none" stroke="#ec4899" stroke-width="12.870000000000001" stroke-linecap="round"/><path d="M72.72 303.3 C132.12 275.58 169.74 243.9 215.28 168.66" fill="none" stroke="#111827" stroke-width="8.91" stroke-linecap="round"/></g></g>
</svg>