<?xml version="1.0" encoding="UTF-8"?>
<svg xmlns="http://www.w3.org/2000/svg" version="1.1" viewBox="0 0 249.67 152.76">
  <defs>
    <style>
      .cls-1 {
        fill: #d02227;
      }

      .cls-2 {
        fill: #00aeef;
      }

      .cls-3 {
        fill: #fff;
      }
    </style>
  </defs>
  <!-- Generator: Adobe Illustrator 28.6.0, SVG Export Plug-In . SVG Version: 1.2.0 Build 709)  -->
  <g>
    <g id="Layer_1">
      <g>
        <path d="M244.67,127.04c-6.54-.32-18.9-2.1-31.67-3.99,4.02-.84,10.6,0,15.61.32-4.6-5.3-17.63-12.39-32.85-16.84h30.33l-8.12-21.95c8.46-5.21,7.51-32.55-14.82-31.87V5H26.36s-2.27,0-2.27,0c2.84,1.35,6.8,5.09,6.86,8.74v9.33l12.66.07.11,30.72H10.11c6.73,2.56,10.22,9.17,10.69,19.53v29.13c-3.71-2.24-6.17-5.96-8.59-11-.95,9.13-1.18,17.69.35,24.9-2.44-1.17-4.93-2.89-7.44-5.01-1.35,7.44,7.71,24.23,15.56,28.42,0,0,15.23,15.16,76.69,3.56,37.73-3.55,81.24-2.97,134.41,3.34-7.22-5.38-16.97-11.54-25.02-14.92,14.67,1.34,27.42-.09,37.9-4.77Z"/>
        <g>
          <path class="cls-3" d="M42.15,101.35c1.49,0,2.97-.21,4.44-.62,1.47-.41,2.79-1.08,3.97-2,1.18-.92,2.13-2.14,2.85-3.65.73-1.51,1.09-3.38,1.09-5.62,0-1.45-.2-2.75-.59-3.88-.39-1.14-.9-2.11-1.53-2.91-.63-.8-1.33-1.46-2.12-1.97-.79-.51-1.57-.86-2.35-1.06v-.12c1.45-.67,2.68-1.74,3.68-3.21,1-1.47,1.5-3.44,1.5-5.91,0-2.24-.4-4.06-1.21-5.47-.8-1.41-1.8-2.5-3-3.27-1.2-.76-2.52-1.28-3.97-1.56-1.45-.27-2.82-.41-4.12-.41h-14.4c.19.07,1,.61,1.26.82.21.17.64.87.67,1.63v39.21h13.83ZM37.09,67.46h3.18c1.22,0,2.27.34,3.18,1.01.9.67,1.35,1.82,1.35,3.43s-.46,2.84-1.38,3.55c-.92.71-1.95,1.07-3.09,1.07h-3.24v-9.06M37.09,83.4h3.41c.59,0,1.19.1,1.79.3.61.2,1.16.5,1.65.92.49.41.88.95,1.18,1.6.29.65.44,1.45.44,2.4,0,1.66-.48,2.9-1.44,3.73-.96.83-2.13,1.24-3.5,1.24h-3.53v-10.18Z"/>
          <path class="cls-3" d="M66.03,101.35l1.71-7.59h9.36l1.71,7.59h9.83l-10.06-41.66h-11.83l-10.12,41.66h9.41ZM72.33,68.75h.24l3.35,17.71h-7.12l3.53-17.71Z"/>
          <polygon class="cls-3" points="102.63 59.69 92.27 59.69 92.27 101.35 100.69 101.35 100.45 75.99 100.63 75.99 110.28 101.35 120.34 101.35 120.34 59.69 112.22 59.69 112.4 85.4 112.22 85.4 102.63 59.69"/>
          <polygon class="cls-3" points="127.75 59.69 127.75 101.35 136.17 101.35 135.93 75.99 136.11 75.99 145.76 101.35 155.82 101.35 155.82 59.69 147.7 59.69 147.88 85.4 147.7 85.4 138.11 59.69 127.75 59.69"/>
          <polygon class="cls-3" points="163.23 101.35 184.06 101.35 184.06 92.88 172.23 92.88 172.23 83.93 182.47 83.93 182.47 76.17 172.23 76.17 172.23 67.99 183.35 67.99 183.35 59.69 163.23 59.69 163.23 101.35"/>
          <path class="cls-3" d="M189.59,101.35h9.06v-16.59h2.76l5.57,16.59h9.91l-7.1-18.59c.66-.24,1.35-.63,2.05-1.18.7-.55,1.34-1.25,1.91-2.12.57-.86,1.03-1.9,1.38-3.12.35-1.22.53-2.59.53-4.12,0-4.16-1.12-7.29-3.35-9.38-2.23-2.1-5.36-3.15-9.39-3.15h-13.33v41.66ZM198.65,67.58h2.94c.55,0,1.11.07,1.68.21.57.14,1.09.4,1.56.79.47.39.85.92,1.15,1.59.29.67.44,1.53.44,2.59,0,1.88-.5,3.25-1.5,4.09-1,.84-2.17,1.26-3.5,1.26h-2.77v-10.53Z"/>
        </g>
        <path class="cls-1" d="M72.95,141.7s83.21-12.5,146.27.47c-10.21-7.28-23.75-10.51-35.52-13.83,1-2.23,10.96-.38,13.79-.86,11.33-.08,23.08,1.82,34.29.58,0,0-26.8-2.8-34.94-5.87,1.23-2.56,3.84-2.49,6.5-2.77,0,0,0,0,0,0,4.29-.19,8.67.02,12.82.48.33-.12-.04-.35-.05-.52-2.16-1.16-4.37-2.1-6.61-2.85h0c-29.92-10.41-51.96-10.39-99.97-8.06-16.68.92-83.28,12.54-91.54-1.95-.5,7.71-.88,13.67,7.49,17.07,0,0,0,0,0,0,1.41.7,2.85.93,4.27,1.27,0,0,0,0,0,0,8.6,1.75,17.78,1.16,26.36,1.67.25.01.92-.18.67.56-.08,0-.16-.02-.25-.04,0,0,0,0,0,0,0,0,0,0,0,0-9.91.33-19.86,1.61-29.77-.49.01.04.04.08.06.11-2.58-.88-5.53-2.03-7.85-3.77-.77-.6-1.23-.51-1.23.32-.12,24.64,55.3,18.64,55.22,18.48Z"/>
        <path class="cls-1" d="M196.43,108.93c-.15-.04-.17-.04,0,0h0Z"/>
        <g>
          <path class="cls-3" d="M75.5,119.84c0,1.69,1.79,2.21,3.85,2.78,2.73.75,5.93,1.72,5.93,5.64,0,4.26-3.46,5.95-7.2,5.95-3.38,0-6.94-1.09-7.28-5.98l3.64-.55c.31,1.82.99,3.35,3.74,3.35,1.66,0,3.12-.57,3.12-2.31,0-1.64-1.77-2.13-3.8-2.65-2.76-.73-6.01-1.56-6.01-5.67,0-3.67,3.07-5.67,6.86-5.67,3.35,0,6.42,1.04,6.71,5.51l-3.67.42c-.16-1.77-.88-2.83-3.09-2.83-1.92,0-2.81.81-2.81,2Z"/>
          <path class="cls-3" d="M91.9,133.91h-3.98v-18.82h7.12c4.81,0,6.27,2.89,6.27,5.88,0,4.52-2.47,6.86-7.36,6.86h-2.05v6.08ZM93.52,124.6c2.05,0,3.69-.6,3.69-3.35,0-2.42-1.43-2.94-3.38-2.94h-1.92v6.29h1.61Z"/>
          <path class="cls-3" d="M102.8,124.57c0-5.59,3.09-9.83,9.18-9.83s8.63,4.24,8.63,9.46c0,6.11-2.94,10.01-9.05,10.01s-8.76-4.03-8.76-9.65ZM116.47,124.44c0-4.34-1.69-6.32-4.58-6.32-3.04,0-4.97,2-4.97,6.37s1.82,6.34,4.78,6.34c2.81,0,4.76-1.74,4.76-6.4Z"/>
          <path class="cls-3" d="M138.08,133.91h-4.32l-3.72-7.15h-2.57v7.15h-3.98v-18.82h7.33c4.68,0,6.24,2.52,6.24,5.3s-1.33,4.5-3.25,5.38l4.26,8.14ZM129.53,123.61c1.87,0,3.41-.7,3.41-2.83,0-1.79-1.12-2.47-3.25-2.47h-2.21v5.3h2.05Z"/>
          <path class="cls-3" d="M143.49,133.91v-15.44h-5.54v-3.38h15.05v3.38h-5.49v15.44h-4.03Z"/>
          <path class="cls-3" d="M157.87,119.84c0,1.69,1.79,2.21,3.85,2.78,2.73.75,5.93,1.72,5.93,5.64,0,4.26-3.46,5.95-7.2,5.95-3.38,0-6.94-1.09-7.28-5.98l3.64-.55c.31,1.82.99,3.35,3.74,3.35,1.66,0,3.12-.57,3.12-2.31,0-1.64-1.77-2.13-3.8-2.65-2.76-.73-6.01-1.56-6.01-5.67,0-3.67,3.07-5.67,6.86-5.67,3.35,0,6.42,1.04,6.71,5.51l-3.67.42c-.16-1.77-.88-2.83-3.09-2.83-1.92,0-2.81.81-2.81,2Z"/>
        </g>
        <path class="cls-3" d="M49.9,52.34V17.89h-12.35v-5.6c0-.65-.67-1.45-1.01-1.62l-.63-.32h35.22v7.54h-12.24v34.45h-8.99Z"/>
        <path class="cls-3" d="M85.02,44.8h18.73v7.54h-27.67V10.35h26.62v7.48h-17.69v9.86h16.65v7.31h-16.65v9.8Z"/>
        <path class="cls-3" d="M133.53,10.35l14.85,41.99h-9.8l-3.48-10.21h-13.98l-3.25,10.21h-9.22l13.75-41.99h11.14ZM128.02,18.76h-.23l-5.16,16.24h10.61l-5.22-16.24Z"/>
        <path class="cls-3" d="M197.36,52.34h-8.35V19.4h-.23l-9.92,32.94h-8.06l-9.57-33h-.23v33h-8.18V10.35h13.34l8.87,30.68h.23l8.82-30.68h13.28v41.99Z"/>
        <path class="cls-2" d="M248,123.2c-.72-.72-1.72-1.1-2.74-1.14-2.91-.12-7.22-.58-12.35-1.25-.15-.26-.33-.5-.53-.73-2.42-2.78-6.42-5.74-11.43-8.56h5.29c.59,0,1.19-.1,1.73-.34,2.66-1.18,3.68-4,2.8-6.39l-6.98-18.87c3.88-4.97,5.24-13.37,3.03-21.18-2.64-9.31-9.47-15.34-18.67-16.73V3.9C208.14,1.75,206.4,0,204.24,0H26.1S25.23,0,25.23,0h-.87c-3.56,0-4.94,2.64-5.2,4.2-.36,2.19.78,4.36,2.78,5.31,1.9.91,3.96,3.28,4.01,4.29v10.36c0,2.15,1.73,3.89,3.88,3.9l8.8.05.08,20.75H9.63c-1.06,0-2.11.39-2.85,1.14-2.99,3.04-1.68,7.3,1.54,8.53,1.7.65,6.87,2.62,7.47,14.98v14.52c-.93-.96-2.23-1.52-3.59-1.52-1.19,0-2.42.42-3.54,1.37-.8.67-1.28,1.66-1.39,2.7-.65,6.09-.92,11.36-.8,16.01-.44-.13-.9-.19-1.37-.19-1.56,0-3.14.73-4.24,2.27-.25.35-.42.74-.53,1.16-2.34,9.22,7.66,28.39,17.44,34.11,2.61,2.15,12.81,8.82,38.53,8.82,12.13,0,26.17-1.48,41.75-4.41,15.13-1.42,31.1-2.13,47.49-2.13,26.56,0,54.57,1.79,85.63,5.48.2.02.4.04.59.04,2.98,0,5.58-2.66,4.91-6.24-.19-1.01-.78-1.91-1.61-2.53-2.86-2.15-5.83-4.21-8.79-6.14,7.55-.78,14.38-2.52,20.41-5.21,3.05-1.36,4.18-5.49,1.29-8.4ZM216.85,132.29c-3.25,0-6.62-.16-10.09-.48,8.05,3.38,17.8,9.53,25.02,14.92-31.95-3.79-60.4-5.52-86.22-5.52-17.15,0-33.13.76-48.19,2.18-17.01,3.21-30.47,4.37-41.05,4.37-27.67,0-35.64-7.93-35.64-7.93-7.85-4.2-16.92-20.98-15.56-28.42,2.51,2.12,5,3.83,7.44,5.01-1.53-7.21-1.3-15.78-.35-24.9,2.41,5.04,4.88,8.77,8.59,11v-29.13c-.48-10.36-3.96-16.97-10.69-19.53h33.62l-.11-30.72-12.66-.07v-9.33c-.06-3.65-4.02-7.39-6.86-8.74,0,0,.1,0,.26,0,.44,0,1.31,0,1.75,0,.16,0,.26,0,.26,0h83.72l-.07,21.33,6.63-21.33h21.92l7.17,20.18-.14-20.18h25.65l4.08,14.29,4.01-14.29h23.79v47.71c.27,0,.54-.01.81-.01,21.54,0,22.37,26.74,14.01,31.88l8.12,21.95h-30.33c15.22,4.45,28.25,11.54,32.85,16.84-3.43-.21-7.6-.68-11.18-.68-1.64,0-3.16.1-4.43.36,12.77,1.89,25.13,3.67,31.67,3.99-8.01,3.57-17.32,5.25-27.81,5.25Z"/>
      </g>
    </g>
  </g>
</svg>