<svg xmlns="http://www.w3.org/2000/svg" width="760" height="760" viewBox="0 0 760 760" data-photo-frame-variant="halo">
  <title>Softball Halo Photo Frame</title>
  <defs>
    <clipPath id="player_photo_mask"><circle cx="380" cy="286" r="176"/></clipPath>
    <mask id="photo_window_keepout" maskUnits="userSpaceOnUse"><rect width="760" height="760" fill="#fff"/><circle cx="380" cy="286" r="174" fill="#000"/></mask>
    <linearGradient id="nameplate_gradient" x1="0" x2="1"><stop offset="0" stop-color="#111827"/><stop offset=".52" stop-color="#facc15"/><stop offset="1" stop-color="#111827"/></linearGradient>
    <filter id="frame_shadow" x="-20%" y="-20%" width="140%" height="140%"><feDropShadow dx="0" dy="10" stdDeviation="7" flood-color="#000" flood-opacity=".38"/></filter>
  </defs>
  <g id="player_photo_frame" filter="url(#frame_shadow)">
    <g id="frame_decor" mask="url(#photo_window_keepout)"><ellipse id="frame_halo" cx="380" cy="90" rx="176" ry="42" fill="none" stroke="#fef3c7" stroke-width="24"/><ellipse id="frame_halo_inner" cx="380" cy="90" rx="132" ry="24" fill="none" stroke="#fff" stroke-width="9"/><path id="frame_halo_glow" d="M166 168 C256 110 504 110 594 168" fill="none" stroke="#fff" stroke-opacity=".52" stroke-width="18" stroke-linecap="round"/></g>
    <circle id="player_photo_window" cx="380" cy="286" r="176" fill="none" clip-path="url(#player_photo_mask)"/>
    <circle id="player_frame_outer" cx="380" cy="286" r="220" fill="none" stroke="#fff" stroke-width="36"/>
    <circle id="player_frame_color" cx="380" cy="286" r="198" fill="none" stroke="#facc15" stroke-width="16"/>
    <circle id="player_frame_inner" cx="380" cy="286" r="178" fill="none" stroke="#111827" stroke-width="8"/>
    <g id="sport_icon"><circle cx="380" cy="600" r="58" fill="#fef08a" stroke="#111827" stroke-width="3.48"/><path d="M349.84 552.44 C370.72 583.76 370.72 616.24 349.84 647.56" fill="none" stroke="#facc15" stroke-width="4.0600000000000005"/><path d="M410.16 552.44 C389.28 583.76 389.28 616.24 410.16 647.56" fill="none" stroke="#facc15" stroke-width="4.0600000000000005"/></g>
    <path id="player_nameplate" d="M146 442 C238 404 522 404 614 442 L642 588 C530 632 230 632 118 588 Z" fill="url(#nameplate_gradient)" stroke="#fff" stroke-width="14"/><path id="player_nameplate_accent" d="M178 480 C278 454 482 454 582 480" fill="none" stroke="#fef3c7" stroke-width="8" stroke-linecap="round"/>
  </g>
</svg>