<svg xmlns="http://www.w3.org/2000/svg" width="1500" height="900" viewBox="0 0 1500 900">
  <title>Soccer Championship Burst Background</title>
  <defs><clipPath id="banner_shape"><rect width="1500" height="900"/></clipPath><radialGradient id="bg_gradient" cx="50%" cy="35%" r="76%"><stop offset="0" stop-color="#bbf7d0"/><stop offset=".34" stop-color="#16a34a"/><stop offset="1" stop-color="#052e16"/></radialGradient><linearGradient id="edge_shade" x1="0" x2="1"><stop offset="0" stop-color="#000" stop-opacity=".55"/><stop offset=".5" stop-color="#000" stop-opacity=".08"/><stop offset="1" stop-color="#000" stop-opacity=".55"/></linearGradient></defs>
  <g id="bg_stadium" clip-path="url(#banner_shape)"><rect id="bg_color" width="1500" height="900" fill="url(#bg_gradient)"/><rect id="bg_edge_shade" width="1500" height="900" fill="url(#edge_shade)"/><g id="bg_lighting"><path d="M750 324 L1380 324" stroke="#fff" stroke-opacity=".18" stroke-width="22"/><path d="M750 324 L1342.0063510951222 410.1890761180685" stroke="#fff" stroke-opacity=".18" stroke-width="22"/><path d="M750 324 L1232.6079991649563 485.9824776410079" stroke="#fff" stroke-opacity=".18" stroke-width="22"/><path d="M750 324 L1065 542.2384017536785" stroke="#fff" stroke-opacity=".18" stroke-width="22"/><path d="M750 324 L859.3983519301662 572.1715537590765" stroke="#fff" stroke-opacity=".18" stroke-width="22"/><path d="M750 324 L640.6016480698339 572.1715537590765" stroke="#fff" stroke-opacity=".18" stroke-width="22"/><path d="M750 324 L435.00000000000017 542.2384017536785" stroke="#fff" stroke-opacity=".18" stroke-width="22"/><path d="M750 324 L267.3920008350439 485.98247764100796" stroke="#fff" stroke-opacity=".18" stroke-width="22"/><path d="M750 324 L157.99364890487777 410.18907611806856" stroke="#fff" stroke-opacity=".18" stroke-width="22"/><path d="M750 324 L120 324.00000000000006" stroke="#fff" stroke-opacity=".18" stroke-width="22"/><path d="M750 324 L157.99364890487766 237.8109238819315" stroke="#fff" stroke-opacity=".18" stroke-width="22"/><path d="M750 324 L267.39200083504363 162.01752235899218" stroke="#fff" stroke-opacity=".18" stroke-width="22"/><path d="M750 324 L434.9999999999997 105.76159824632146" stroke="#fff" stroke-opacity=".18" stroke-width="22"/><path d="M750 324 L640.6016480698339 75.82844624092357" stroke="#fff" stroke-opacity=".18" stroke-width="22"/><path d="M750 324 L859.3983519301659 75.82844624092354" stroke="#fff" stroke-opacity=".18" stroke-width="22"/><path d="M750 324 L1064.9999999999995 105.76159824632134" stroke="#fff" stroke-opacity=".18" stroke-width="22"/><path d="M750 324 L1232.607999164956 162.017522358992" stroke="#fff" stroke-opacity=".18" stroke-width="22"/><path d="M750 324 L1342.0063510951222 237.8109238819315" stroke="#fff" stroke-opacity=".18" stroke-width="22"/></g><g id="field_court_overlay" opacity=".58"><path d="M210.00000000000003 648 C450 432 1050 432 1290 648" fill="none" stroke="#fff" stroke-width="5"/><path d="M750 306 V738" stroke="#fff" stroke-width="4"/></g><g id="sport_icon_watermark" opacity=".2"><circle cx="240" cy="234" r="99" fill="#fff" stroke="#052e16" stroke-width="7.92"/><polygon points="240,192.42000000000002 277.62,220.14 263.76,265.68 216.24,265.68 202.38,220.14" fill="#052e16"/><path d="M240 192.42000000000002 L240 144.89999999999998 M277.62 220.14 L325.14 206.28 M263.76 265.68 L293.46 307.26 M216.24 265.68 L186.54 307.26 M202.38 220.14 L154.86 206.28" stroke="#052e16" stroke-width="6.930000000000001"/></g></g>
</svg>