<svg xmlns="http://www.w3.org/2000/svg" width="1500" height="900" viewBox="0 0 1500 900">
  <title>Baseball Speed Lines Background</title>
  <defs><clipPath id="banner_shape"><rect width="1500" height="900"/></clipPath><radialGradient id="bg_gradient" cx="50%" cy="35%" r="76%"><stop offset="0" stop-color="#f8fafc"/><stop offset=".34" stop-color="#d71920"/><stop offset="1" stop-color="#0b2f63"/></radialGradient><linearGradient id="edge_shade" x1="0" x2="1"><stop offset="0" stop-color="#000" stop-opacity=".55"/><stop offset=".5" stop-color="#000" stop-opacity=".08"/><stop offset="1" stop-color="#000" stop-opacity=".55"/></linearGradient></defs>
  <g id="bg_stadium" clip-path="url(#banner_shape)"><rect id="bg_color" width="1500" height="900" fill="url(#bg_gradient)"/><rect id="bg_edge_shade" width="1500" height="900" fill="url(#edge_shade)"/><g id="bg_lighting"><path d="M-300 900 L150 0" stroke="#fff" stroke-opacity=".13" stroke-width="18"/><path d="M-150 900 L300 0" stroke="#fff" stroke-opacity=".13" stroke-width="18"/><path d="M0 900 L450 0" stroke="#fff" stroke-opacity=".13" stroke-width="18"/><path d="M150 900 L600 0" stroke="#fff" stroke-opacity=".13" stroke-width="18"/><path d="M300 900 L750 0" stroke="#fff" stroke-opacity=".13" stroke-width="18"/><path d="M450 900 L900 0" stroke="#fff" stroke-opacity=".13" stroke-width="18"/><path d="M600 900 L1050 0" stroke="#fff" stroke-opacity=".13" stroke-width="18"/><path d="M750 900 L1200 0" stroke="#fff" stroke-opacity=".13" stroke-width="18"/><path d="M900 900 L1350 0" stroke="#fff" stroke-opacity=".13" stroke-width="18"/><path d="M1050 900 L1500 0" stroke="#fff" stroke-opacity=".13" stroke-width="18"/><path d="M1200 900 L1650 0" stroke="#fff" stroke-opacity=".13" stroke-width="18"/><path d="M1350.0000000000002 900 L1800.0000000000002 0" stroke="#fff" stroke-opacity=".13" stroke-width="18"/></g><g id="field_court_overlay" opacity=".58"><path d="M210.00000000000003 648 C450 432 1050 432 1290 648" fill="none" stroke="#fff" stroke-width="5"/><path d="M750 306 V738" stroke="#fff" stroke-width="4"/></g><g id="sport_icon_watermark" opacity=".2"><circle cx="240" cy="234" r="99" fill="#fff" stroke="#0b2f63" stroke-width="5.9399999999999995"/><path d="M188.51999999999998 152.82 C224.16 206.28 224.16 261.72 188.51999999999998 315.18" fill="none" stroke="#d71920" stroke-width="6.930000000000001"/><path d="M291.48 152.82 C255.84 206.28 255.84 261.72 291.48 315.18" fill="none" stroke="#d71920" stroke-width="6.930000000000001"/></g></g>
</svg>