<svg xmlns="http://www.w3.org/2000/svg" version="1.1" xmlns:xlink="http://www.w3.org/1999/xlink" xmlns:svgjs="http://svgjs.dev/svgjs" width="100%" height="100%" viewBox="1 1 499 299" preserveAspectRatio="none" data-info="{&quot;_id&quot;:1,&quot;name&quot;:&quot;HEM &amp; GROMMETS&quot;,&quot;price&quot;:&quot;95.00&quot;,&quot;sale_price&quot;:&quot;89.99&quot;,&quot;cover&quot;:{&quot;key&quot;:&quot;assets/models/hem-1628062436886-1630830942566.png&quot;,&quot;url&quot;:&quot;https://lct-designs.s3.us-west-1.amazonaws.com/assets/models/hem-1628062436886-1630830942566.png&quot;},&quot;back&quot;:{&quot;key&quot;:&quot;assets/models/hem-1630831057346.svg&quot;,&quot;url&quot;:&quot;https://lct-designs.s3.us-west-1.amazonaws.com/assets/models/hem-1630831057346.svg&quot;},&quot;mask&quot;:{&quot;key&quot;:&quot;assets/models/hem.mask-1630831063496.svg&quot;,&quot;url&quot;:&quot;https://lct-designs.s3.us-west-1.amazonaws.com/assets/models/hem.mask-1630831063496.svg&quot;},&quot;information&quot;:&quot;Size 3'x5'&quot;,&quot;type&quot;:&quot;hem-grommet&quot;,&quot;pos&quot;:&quot;1&quot;}" style="background-color: white;"><g class="model" style="pointer-events: none;"><rect x="0.5" y="0.5" fill="none" stroke="#000000" stroke-miterlimit="10" width="500" height="300"></rect></g><image width="760" height="455" xlink:href="https://lct-designs.s3.us-west-1.amazonaws.com/assets/libs/amazons-1631958153083.png" class="asset background locked" transform="matrix(0.6593406593406593,0,0,0.6593406593406593,0,0)"></image><image width="760" height="288" xlink:href="https://lct-designs.s3.us-west-1.amazonaws.com/assets/libs/amazons-1631959823872.png" class="asset" transform="matrix(0.378107339143753,0,0,0.378107339143753,14.694419860839837,14.015289306640629)"></image><image width="760" height="491" xlink:href="https://lct-designs.s3.us-west-1.amazonaws.com/assets/libs/amazons-1631959880568.png" class="asset" transform="matrix(0.2523481547832489,0,0,0.2523481547832489,306.1118469238281,37.33171844482421)"></image><g class="" transform="matrix(1,0,0,1,198.28347778320312,-0.000006226263394637499)"><image width="760" height="485" xlink:href="https://lct-designs.s3.us-west-1.amazonaws.com/assets/libs/amazons-1631959777569.png" class="asset" transform="matrix(0.06142135336995125,0,0,0.06142135336995125,22.269521713256836,165.26608276367188)"></image><text fill="#000000" font-family="Great Lakes NF" font-size="15" x="181.96874321435945" y="168.05468415827357" transform="matrix(1,0,0,1,-157.49192810058594,41.7433319091797)" svgjs:data="{&quot;leading&quot;:&quot;1.3&quot;}"><tspan dy="0" x="181.96874321435945" svgjs:data="{&quot;newLined&quot;:true}">Player</tspan></text></g><g class="" transform="matrix(1,0,0,1,96.60598754882812,-0.0000041783023334573954)"><image width="760" height="485" xlink:href="https://lct-designs.s3.us-west-1.amazonaws.com/assets/libs/amazons-1631959777569.png" class="asset" transform="matrix(0.06142135336995125,0,0,0.06142135336995125,22.269521713256836,165.26608276367188)"></image><text fill="#000000" font-family="Great Lakes NF" font-size="15" x="181.96874321435945" y="168.05468415827357" transform="matrix(1,0,0,1,-157.49192810058594,41.7433319091797)" svgjs:data="{&quot;leading&quot;:&quot;1.3&quot;}"><tspan dy="0" x="181.96874321435945" svgjs:data="{&quot;newLined&quot;:true}">Player</tspan></text></g><g class="" transform="matrix(1,0,0,1,295.6697387695313,0.000001861556714999324)"><image width="760" height="485" xlink:href="https://lct-designs.s3.us-west-1.amazonaws.com/assets/libs/amazons-1631959777569.png" class="asset" transform="matrix(0.06142135336995125,0,0,0.06142135336995125,22.269521713256836,165.26608276367188)"></image><text fill="#000000" font-family="Great Lakes NF" font-size="15" x="181.96874321435945" y="168.05468415827357" transform="matrix(1,0,0,1,-157.49192810058594,41.7433319091797)" svgjs:data="{&quot;leading&quot;:&quot;1.3&quot;}"><tspan dy="0" x="181.96874321435945" svgjs:data="{&quot;newLined&quot;:true}">Player</tspan></text></g><g class="" transform="matrix(1,0,0,1,398.12744140625,0.000002549271584939561)"><image width="760" height="485" xlink:href="https://lct-designs.s3.us-west-1.amazonaws.com/assets/libs/amazons-1631959777569.png" class="asset" transform="matrix(0.06142135336995125,0,0,0.06142135336995125,22.269521713256836,165.26608276367188)"></image><text fill="#000000" font-family="Great Lakes NF" font-size="15" x="181.96874321435945" y="168.05468415827357" transform="matrix(1,0,0,1,-157.49192810058594,41.7433319091797)" svgjs:data="{&quot;leading&quot;:&quot;1.3&quot;}"><tspan dy="0" x="181.96874321435945" svgjs:data="{&quot;newLined&quot;:true}">Player</tspan></text></g><g class="" transform="matrix(1,0,0,1,0,0)"><image width="760" height="485" xlink:href="https://lct-designs.s3.us-west-1.amazonaws.com/assets/libs/amazons-1631959777569.png" class="asset" transform="matrix(0.06142135336995125,0,0,0.06142135336995125,22.269521713256836,165.26608276367188)"></image><text fill="#000000" font-family="Great Lakes NF" font-size="15" x="181.96874321435945" y="168.05468415827357" transform="matrix(1,0,0,1,-157.49192810058594,41.7433319091797)" svgjs:data="{&quot;leading&quot;:&quot;1.3&quot;}"><tspan dy="0" x="181.96874321435945" svgjs:data="{&quot;newLined&quot;:true}">Player</tspan></text></g><g class="" transform="matrix(1,0,0,1,151.3263854980469,46.8149351799848)"><image width="760" height="485" xlink:href="https://lct-designs.s3.us-west-1.amazonaws.com/assets/libs/amazons-1631959777569.png" class="asset" transform="matrix(0.06142135336995125,0,0,0.06142135336995125,22.269521713256836,165.26608276367188)"></image><text fill="#000000" font-family="Great Lakes NF" font-size="15" x="181.96874321435945" y="168.05468415827357" transform="matrix(1,0,0,1,-157.49192810058594,41.7433319091797)" svgjs:data="{&quot;leading&quot;:&quot;1.3&quot;}"><tspan dy="0" x="181.96874321435945" svgjs:data="{&quot;newLined&quot;:true}">Player</tspan></text></g><g class="" transform="matrix(1,0,0,1,49.648895263671875,46.81493722794677)"><image width="760" height="485" xlink:href="https://lct-designs.s3.us-west-1.amazonaws.com/assets/libs/amazons-1631959777569.png" class="asset" transform="matrix(0.06142135336995125,0,0,0.06142135336995125,22.269521713256836,165.26608276367188)"></image><text fill="#000000" font-family="Great Lakes NF" font-size="15" x="181.96874321435945" y="168.05468415827357" transform="matrix(1,0,0,1,-157.49192810058594,41.7433319091797)" svgjs:data="{&quot;leading&quot;:&quot;1.3&quot;}"><tspan dy="0" x="181.96874321435945" svgjs:data="{&quot;newLined&quot;:true}">Player</tspan></text></g><g class="" transform="matrix(1,0,0,1,248.71264648437494,46.814943267807394)"><image width="760" height="485" xlink:href="https://lct-designs.s3.us-west-1.amazonaws.com/assets/libs/amazons-1631959777569.png" class="asset" transform="matrix(0.06142135336995125,0,0,0.06142135336995125,22.269521713256836,165.26608276367188)"></image><text fill="#000000" font-family="Great Lakes NF" font-size="15" x="181.96874321435945" y="168.05468415827357" transform="matrix(1,0,0,1,-157.49192810058594,41.7433319091797)" svgjs:data="{&quot;leading&quot;:&quot;1.3&quot;}"><tspan dy="0" x="181.96874321435945" svgjs:data="{&quot;newLined&quot;:true}">Player</tspan></text></g><g class="" transform="matrix(1,0,0,1,351.17034912109375,46.81494395552228)"><image width="760" height="485" xlink:href="https://lct-designs.s3.us-west-1.amazonaws.com/assets/libs/amazons-1631959777569.png" class="asset" transform="matrix(0.06142135336995125,0,0,0.06142135336995125,22.269521713256836,165.26608276367188)"></image><text fill="#000000" font-family="Great Lakes NF" font-size="15" x="181.96874321435945" y="168.05468415827357" transform="matrix(1,0,0,1,-157.49192810058594,41.7433319091797)" svgjs:data="{&quot;leading&quot;:&quot;1.3&quot;}"><tspan dy="0" x="181.96874321435945" svgjs:data="{&quot;newLined&quot;:true}">Player</tspan></text></g><text fill="#000000" font-family="Great Lakes NF" font-size="13" x="196.63282527836904" y="155.91405986644864" transform="matrix(1,0,0,1,-177.47824096679688,125.28173828125)" svgjs:data="{&quot;leading&quot;:&quot;1.3&quot;}"><tspan dy="0" x="196.63282527836904" svgjs:data="{&quot;newLined&quot;:true}">Coach: Coach's name</tspan></text><text fill="#000000" font-family="Great Lakes NF" font-size="13" x="172.57032527836904" y="155.91405986644864" transform="matrix(1,0,0,1,156.59844970703122,125.28172302246094)" svgjs:data="{&quot;leading&quot;:&quot;1.3&quot;}"><tspan dy="0" x="172.57032527836904" svgjs:data="{&quot;newLined&quot;:true}">Team mom: Team mom's name</tspan></text><g class="mask" style="pointer-events: none;"><path fill="#777777" enable-background="new    " d="M-1684.9-1014.6v2330.1h3870.8v-2330.1H-1684.9z M500.5,300.5H0.5V0.5h500
	V300.5z"></path></g></svg>