<svg xmlns="http://www.w3.org/2000/svg" version="1.1" xmlns:xlink="http://www.w3.org/1999/xlink" xmlns:svgjs="http://svgjs.dev/svgjs" width="100%" height="100%" viewBox="1 1 499 299" preserveAspectRatio="none" data-info="{&quot;_id&quot;:1,&quot;name&quot;:&quot;HEM &amp; GROMMETS&quot;,&quot;price&quot;:&quot;95.00&quot;,&quot;sale_price&quot;:&quot;89.99&quot;,&quot;cover&quot;:{&quot;key&quot;:&quot;assets/models/hem-1628062436886-1630830942566.png&quot;,&quot;url&quot;:&quot;https://lct-designs.s3.us-west-1.amazonaws.com/assets/models/hem-1628062436886-1630830942566.png&quot;},&quot;back&quot;:{&quot;key&quot;:&quot;assets/models/hem-1630831057346.svg&quot;,&quot;url&quot;:&quot;https://lct-designs.s3.us-west-1.amazonaws.com/assets/models/hem-1630831057346.svg&quot;},&quot;mask&quot;:{&quot;key&quot;:&quot;assets/models/hem.mask-1630831063496.svg&quot;,&quot;url&quot;:&quot;https://lct-designs.s3.us-west-1.amazonaws.com/assets/models/hem.mask-1630831063496.svg&quot;},&quot;information&quot;:&quot;Size 3'x5'&quot;,&quot;type&quot;:&quot;hem-grommet&quot;,&quot;pos&quot;:&quot;1&quot;}" style="background-color: white;"><g class="model" style="pointer-events: none;"><rect x="0.5" y="0.5" fill="none" stroke="#000000" stroke-miterlimit="10" width="500" height="300"></rect></g><image width="760" height="455" xlink:href="https://lct-designs.s3.us-west-1.amazonaws.com/assets/libs/alliance-1631978288018.png" class="asset locked" transform="matrix(0.6593406796455383,0,0,0.6593406796455383,0,0)"></image><image width="760" height="399" xlink:href="https://lct-designs.s3.us-west-1.amazonaws.com/assets/libs/alliance-1631981416156.png" class="asset" transform="matrix(0.3370236158370971,0,0,0.33702361583709717,17.10845565795899,90.40644073486328)"></image><image width="760" height="678" xlink:href="https://lct-designs.s3.us-west-1.amazonaws.com/assets/libs/alliance-1631959880567.png" class="asset" transform="matrix(0.3211593329906463,0,0,0.32115933299064636,250.65975952148432,33.81208038330078)"></image><image width="760" height="758" xlink:href="https://lct-designs.s3.us-west-1.amazonaws.com/assets/libs/alliance1-1632042447894.png" class="asset" transform="matrix(0.04585785418748855,0,0,0.045857854187488556,288.6808166503906,33.42032432556152)"></image><image width="760" height="758" xlink:href="https://lct-designs.s3.us-west-1.amazonaws.com/assets/libs/alliance1-1632042447894.png" class="asset" transform="matrix(0.04585785418748855,0,0,0.045857854187488556,222.64654541015625,33.42031478881836)"></image><image width="760" height="758" xlink:href="https://lct-designs.s3.us-west-1.amazonaws.com/assets/libs/alliance1-1632042447894.png" class="asset" transform="matrix(0.04585785418748855,0,0,0.045857854187488556,161.33564758300778,33.42031669616699)"></image><image width="760" height="758" xlink:href="https://lct-designs.s3.us-west-1.amazonaws.com/assets/libs/alliance1-1632042447894.png" class="asset" transform="matrix(0.04585785418748855,0,0,0.045857854187488556,99.52840423583982,33.420318603515625)"></image><image width="760" height="758" xlink:href="https://lct-designs.s3.us-west-1.amazonaws.com/assets/libs/alliance1-1632042447894.png" class="asset" transform="matrix(0.04585785418748855,0,0,0.045857854187488556,37.57922172546386,33.42031478881836)"></image><text fill="#000000" font-family="American Captain" font-size="18" x="196.8828149176843" y="167.07811825738105" transform="matrix(0.9999999999999999,0,0,1,-160.33807373046875,-80.36302947998047)" svgjs:data="{&quot;leading&quot;:&quot;1.3&quot;}"><tspan dy="0" x="196.8828149176843" svgjs:data="{&quot;newLined&quot;:true}">player</tspan></text><text fill="#000000" font-family="American Captain" font-size="18" x="229.0546899176843" y="156.93749325738105" transform="matrix(0.9999999999999999,0,0,1,-132.2496643066406,-70.22240447998047)" svgjs:data="{&quot;leading&quot;:&quot;1.3&quot;}"><tspan dy="0" x="229.0546899176843" svgjs:data="{&quot;newLined&quot;:true}">player</tspan></text><text fill="#000000" font-family="American Captain" font-size="18" x="229.0546899176843" y="156.93749325738105" transform="matrix(0.9999999999999999,0,0,1,-70.61117553710938,-70.222412109375)" svgjs:data="{&quot;leading&quot;:&quot;1.3&quot;}"><tspan dy="0" x="229.0546899176843" svgjs:data="{&quot;newLined&quot;:true}">player</tspan></text><image width="760" height="758" xlink:href="https://lct-designs.s3.us-west-1.amazonaws.com/assets/libs/alliance1-1632042447894.png" class="asset" transform="matrix(0.04585785046219825,0,0,0.04585785046219826,291.8534851074219,231.5688018798828)"></image><image width="760" height="758" xlink:href="https://lct-designs.s3.us-west-1.amazonaws.com/assets/libs/alliance1-1632042447894.png" class="asset" transform="matrix(0.04585785418748855,0,0,0.045857854187488556,170.88232421875,231.95892333984375)"></image><image width="760" height="758" xlink:href="https://lct-designs.s3.us-west-1.amazonaws.com/assets/libs/alliance1-1632042447894.png" class="asset" transform="matrix(0.04585785418748855,0,0,0.045857854187488556,44.733409881591804,231.5687713623047)"></image><image width="760" height="758" xlink:href="https://lct-designs.s3.us-west-1.amazonaws.com/assets/libs/alliance1-1632042447894.png" class="asset" transform="matrix(0.04585785418748855,0,0,0.045857854187488556,107.34678649902344,231.5688018798828)"></image><image width="760" height="758" xlink:href="https://lct-designs.s3.us-west-1.amazonaws.com/assets/libs/alliance1-1632042447894.png" class="asset" transform="matrix(0.04585785418748855,0,0,0.045857854187488556,231.64509582519526,231.56878662109375)"></image><text fill="#000000" font-family="American Captain" font-size="18" x="229.0546899176843" y="156.93749325738105" transform="matrix(0.9999999999999999,0,0,1,-188.03639221191406,125.62007141113278)" svgjs:data="{&quot;leading&quot;:&quot;1.3&quot;}"><tspan dy="0" x="229.0546899176843" svgjs:data="{&quot;newLined&quot;:true}">player</tspan></text><text fill="#000000" font-family="American Captain" font-size="18" x="229.0546899176843" y="156.93749325738105" transform="matrix(0.9999999999999999,0,0,1,-125.2275695800781,125.62010192871091)" svgjs:data="{&quot;leading&quot;:&quot;1.3&quot;}"><tspan dy="0" x="229.0546899176843" svgjs:data="{&quot;newLined&quot;:true}">player</tspan></text><text fill="#000000" font-family="American Captain" font-size="18" x="229.0546899176843" y="156.93749325738105" transform="matrix(0.9999999999999999,0,0,1,-61.248382568359375,125.62008666992185)" svgjs:data="{&quot;leading&quot;:&quot;1.3&quot;}"><tspan dy="0" x="229.0546899176843" svgjs:data="{&quot;newLined&quot;:true}">player</tspan></text><text fill="#000000" font-family="American Captain" font-size="18" x="229.0546899176843" y="156.93749325738105" transform="matrix(0.9999999999999999,0,0,1,0,125.62008666992185)" svgjs:data="{&quot;leading&quot;:&quot;1.3&quot;}"><tspan dy="0" x="229.0546899176843" svgjs:data="{&quot;newLined&quot;:true}">player</tspan></text><text fill="#000000" font-family="American Captain" font-size="18" x="229.0546899176843" y="156.93749325738105" transform="matrix(0.9999999999999999,0,0,1,60.85824584960937,125.62008666992185)" svgjs:data="{&quot;leading&quot;:&quot;1.3&quot;}"><tspan dy="0" x="229.0546899176843" svgjs:data="{&quot;newLined&quot;:true}">player</tspan></text><text fill="#000000" font-family="American Captain" font-size="18" x="229.0546899176843" y="156.93749325738105" transform="matrix(0.9999999999999999,0,0,1,-8.192459106445312,-70.222412109375)" svgjs:data="{&quot;leading&quot;:&quot;1.3&quot;}"><tspan dy="0" x="229.0546899176843" svgjs:data="{&quot;newLined&quot;:true}">player</tspan></text><text fill="#000000" font-family="American Captain" font-size="18" x="229.0546899176843" y="156.93749325738105" transform="matrix(0.9999999999999999,0,0,1,55.786727905273416,-70.22240447998047)" svgjs:data="{&quot;leading&quot;:&quot;1.3&quot;}"><tspan dy="0" x="229.0546899176843" svgjs:data="{&quot;newLined&quot;:true}">player</tspan></text><text fill="#000000" font-family="American Captain" font-size="18" x="188.6875024176843" y="156.93749325738105" transform="matrix(1,0,0,1,-172.04159545898438,-129.91143798828125)" svgjs:data="{&quot;leading&quot;:&quot;1.3&quot;}"><tspan dy="0" x="188.6875024176843" svgjs:data="{&quot;newLined&quot;:true}">coach: coach 's name</tspan></text><text fill="#000000" font-family="American Captain" font-size="18" x="166.5625024176843" y="156.93749325738105" transform="matrix(1,0,0,1,141.2189178466797,-130.298095703125)" svgjs:data="{&quot;leading&quot;:&quot;1.3&quot;}"><tspan dy="0" x="166.5625024176843" svgjs:data="{&quot;newLined&quot;:true}">team mom: team mom's name</tspan></text><g class="mask" style="pointer-events: none;"><path fill="#777777" enable-background="new    " d="M-1684.9-1014.6v2330.1h3870.8v-2330.1H-1684.9z M500.5,300.5H0.5V0.5h500
	V300.5z"></path></g></svg>