<svg xmlns="http://www.w3.org/2000/svg" version="1.1" xmlns:xlink="http://www.w3.org/1999/xlink" xmlns:svgjs="http://svgjs.dev/svgjs" width="100%" height="100%" viewBox="1 1 499 299" preserveAspectRatio="none" data-info="{&quot;_id&quot;:1,&quot;name&quot;:&quot;HEM &amp; GROMMETS&quot;,&quot;price&quot;:&quot;95.00&quot;,&quot;sale_price&quot;:&quot;89.99&quot;,&quot;cover&quot;:{&quot;key&quot;:&quot;assets/models/hem-1628062436886-1630830942566.png&quot;,&quot;url&quot;:&quot;https://lct-designs.s3.us-west-1.amazonaws.com/assets/models/hem-1628062436886-1630830942566.png&quot;},&quot;back&quot;:{&quot;key&quot;:&quot;assets/models/hem-1630831057346.svg&quot;,&quot;url&quot;:&quot;https://lct-designs.s3.us-west-1.amazonaws.com/assets/models/hem-1630831057346.svg&quot;},&quot;mask&quot;:{&quot;key&quot;:&quot;assets/models/hem.mask-1630831063496.svg&quot;,&quot;url&quot;:&quot;https://lct-designs.s3.us-west-1.amazonaws.com/assets/models/hem.mask-1630831063496.svg&quot;},&quot;information&quot;:&quot;Size 3'x5'&quot;,&quot;type&quot;:&quot;hem-grommet&quot;,&quot;pos&quot;:&quot;1&quot;}" style="background-color: white;"><g class="model" style="pointer-events: none;"><rect x="0.5" y="0.5" fill="none" stroke="#000000" stroke-miterlimit="10" width="500" height="300"></rect></g><image width="760" height="455" xlink:href="https://lct-designs.s3.us-west-1.amazonaws.com/assets/libs/almost-angels-1631957572375.png" class="asset background locked" transform="matrix(0.6593406593406593,0,0,0.6593406593406593,0,0)"></image><image width="760" height="485" xlink:href="https://lct-designs.s3.us-west-1.amazonaws.com/assets/libs/almost-angels-1-1631959823871.png" class="asset" transform="matrix(0.3825404644012451,0,0,0.3825404644012451,8.842632293701172,82.98089599609376)"></image><g class="" transform="matrix(0.9999999999999999,0,0,1,-0.3901062011718821,-0.39012145996093395)"><image width="760" height="489" xlink:href="https://lct-designs.s3.us-west-1.amazonaws.com/assets/libs/almost-angels-1631959777569.png" class="asset" transform="matrix(0.10604983568191527,0,0,0.10604983568191528,297.13916015624994,198.58473205566406)"></image><text fill="#ffffff" font-family="Antilles" font-size="20" stroke-opacity="1" stroke-width="1" stroke="#000000" x="204.1953132410029" y="163.37499325738105" transform="matrix(0.9999999999999999,0,0,1,113.61848449707031,104.94349670410156)" svgjs:data="{&quot;leading&quot;:&quot;1.3&quot;}"><tspan dy="0" x="204.1953132410029" svgjs:data="{&quot;newLined&quot;:true}">Player</tspan></text></g><g class="" transform="matrix(0.9999999999999999,0,0,1,100.89730834960935,-20.286468505859375)"><image width="760" height="489" xlink:href="https://lct-designs.s3.us-west-1.amazonaws.com/assets/libs/almost-angels-1631959777569.png" class="asset" transform="matrix(0.10604983568191527,0,0,0.10604983568191528,297.13916015624994,198.58473205566406)"></image><text fill="#ffffff" font-family="Antilles" font-size="20" stroke-opacity="1" stroke-width="1" stroke="#000000" x="204.1953132410029" y="163.37499325738105" transform="matrix(0.9999999999999999,0,0,1,113.61848449707031,104.94349670410156)" svgjs:data="{&quot;leading&quot;:&quot;1.3&quot;}"><tspan dy="0" x="204.1953132410029" svgjs:data="{&quot;newLined&quot;:true}">Player</tspan></text></g><g class="" transform="matrix(1,0,0,1,14.928512573242195,-90.50886535644531)"><image width="760" height="489" xlink:href="https://lct-designs.s3.us-west-1.amazonaws.com/assets/libs/almost-angels-1631959777569.png" class="asset" transform="matrix(0.10604983568191527,0,0,0.10604983568191528,297.13916015624994,198.58473205566406)"></image><text fill="#ffffff" font-family="Antilles" font-size="20" stroke-opacity="1" stroke-width="1" stroke="#000000" x="204.1953132410029" y="163.37499325738105" transform="matrix(0.9999999999999999,0,0,1,113.61848449707031,104.94349670410156)" svgjs:data="{&quot;leading&quot;:&quot;1.3&quot;}"><tspan dy="0" x="204.1953132410029" svgjs:data="{&quot;newLined&quot;:true}">Player</tspan></text></g><g class="" transform="matrix(0.9999999999999999,0,0,1,107.63331604003906,-118.20770263671874)"><image width="760" height="489" xlink:href="https://lct-designs.s3.us-west-1.amazonaws.com/assets/libs/almost-angels-1631959777569.png" class="asset" transform="matrix(0.10604983568191527,0,0,0.10604983568191528,297.13916015624994,198.58473205566406)"></image><text fill="#ffffff" font-family="Antilles" font-size="20" stroke-opacity="1" stroke-width="1" stroke="#000000" x="204.1953132410029" y="163.37499325738105" transform="matrix(0.9999999999999999,0,0,1,113.61848449707031,104.94349670410156)" svgjs:data="{&quot;leading&quot;:&quot;1.3&quot;}"><tspan dy="0" x="204.1953132410029" svgjs:data="{&quot;newLined&quot;:true}">Player</tspan></text></g><g class="" transform="matrix(0.9999999999999999,0,0,1,-276.7749938964844,-191.5511016845703)"><image width="760" height="489" xlink:href="https://lct-designs.s3.us-west-1.amazonaws.com/assets/libs/almost-angels-1631959777569.png" class="asset" transform="matrix(0.10604983568191527,0,0,0.10604983568191528,297.13916015624994,198.58473205566406)"></image><text fill="#ffffff" font-family="Antilles" font-size="20" stroke-opacity="1" stroke-width="1" stroke="#000000" x="204.1953132410029" y="163.37499325738105" transform="matrix(0.9999999999999999,0,0,1,113.61848449707031,104.94349670410156)" svgjs:data="{&quot;leading&quot;:&quot;1.3&quot;}"><tspan dy="0" x="204.1953132410029" svgjs:data="{&quot;newLined&quot;:true}">Player</tspan></text></g><g class="" transform="matrix(0.9999999999999999,0,0,1,-175.48764038085938,-191.5511016845703)"><image width="760" height="489" xlink:href="https://lct-designs.s3.us-west-1.amazonaws.com/assets/libs/almost-angels-1631959777569.png" class="asset" transform="matrix(0.10604983568191527,0,0,0.10604983568191528,297.13916015624994,198.58473205566406)"></image><text fill="#ffffff" font-family="Antilles" font-size="20" stroke-opacity="1" stroke-width="1" stroke="#000000" x="204.1953132410029" y="163.37499325738105" transform="matrix(0.9999999999999999,0,0,1,113.61848449707031,104.94349670410156)" svgjs:data="{&quot;leading&quot;:&quot;1.3&quot;}"><tspan dy="0" x="204.1953132410029" svgjs:data="{&quot;newLined&quot;:true}">Player</tspan></text></g><g class="" transform="matrix(0.9999999999999999,0,0,1,-62.10662841796875,-191.5510711669922)"><image width="760" height="489" xlink:href="https://lct-designs.s3.us-west-1.amazonaws.com/assets/libs/almost-angels-1631959777569.png" class="asset" transform="matrix(0.10604983568191527,0,0,0.10604983568191528,297.13916015624994,198.58473205566406)"></image><text fill="#ffffff" font-family="Antilles" font-size="20" stroke-opacity="1" stroke-width="1" stroke="#000000" x="204.1953132410029" y="163.37499325738105" transform="matrix(0.9999999999999999,0,0,1,113.61848449707031,104.94349670410156)" svgjs:data="{&quot;leading&quot;:&quot;1.3&quot;}"><tspan dy="0" x="204.1953132410029" svgjs:data="{&quot;newLined&quot;:true}">Player</tspan></text></g><g class="" transform="matrix(0.9999999999999999,0,0,1,43.86215209960937,-191.5510711669922)"><image width="760" height="489" xlink:href="https://lct-designs.s3.us-west-1.amazonaws.com/assets/libs/almost-angels-1631959777569.png" class="asset" transform="matrix(0.10604983568191527,0,0,0.10604983568191528,297.13916015624994,198.58473205566406)"></image><text fill="#ffffff" font-family="Antilles" font-size="20" stroke-opacity="1" stroke-width="1" stroke="#000000" x="204.1953132410029" y="163.37499325738105" transform="matrix(0.9999999999999999,0,0,1,113.61848449707031,104.94349670410156)" svgjs:data="{&quot;leading&quot;:&quot;1.3&quot;}"><tspan dy="0" x="204.1953132410029" svgjs:data="{&quot;newLined&quot;:true}">Player</tspan></text></g><text fill="#ffffff" font-family="Antilles" font-size="17" stroke-opacity="1" stroke-width="1" stroke="#000000" x="149.6015632410029" y="157.52343075738105" transform="matrix(1,0,0,1,-133.8101348876953,129.9114227294922)" svgjs:data="{&quot;leading&quot;:&quot;1.3&quot;}"><tspan dy="0" x="149.6015632410029" svgjs:data="{&quot;newLined&quot;:true}">Coach: Coach's name</tspan></text><text fill="#ffffff" font-family="Antilles" font-size="17" stroke-opacity="1" stroke-width="1" stroke="#000000" x="163.0703132410029" y="156.35155575738105" transform="matrix(1,0,0,1,145.12350463867188,130.6916961669922)" svgjs:data="{&quot;leading&quot;:&quot;1.3&quot;}"><tspan dy="0" x="163.0703132410029" svgjs:data="{&quot;newLined&quot;:true}">Team mom: Team mom's name</tspan></text><g class="mask" style="pointer-events: none;"><path fill="#777777" enable-background="new    " d="M-1684.9-1014.6v2330.1h3870.8v-2330.1H-1684.9z M500.5,300.5H0.5V0.5h500
	V300.5z"></path></g></svg>