<svg xmlns="http://www.w3.org/2000/svg" version="1.1" xmlns:xlink="http://www.w3.org/1999/xlink" xmlns:svgjs="http://svgjs.dev/svgjs" width="100%" height="100%" viewBox="1 1 499 299" preserveAspectRatio="none" data-info="{&quot;_id&quot;:1,&quot;name&quot;:&quot;HEM &amp; GROMMETS&quot;,&quot;price&quot;:&quot;95.00&quot;,&quot;sale_price&quot;:&quot;89.99&quot;,&quot;cover&quot;:{&quot;key&quot;:&quot;assets/models/hem-1628062436886-1630830942566.png&quot;,&quot;url&quot;:&quot;https://lct-designs.s3.us-west-1.amazonaws.com/assets/models/hem-1628062436886-1630830942566.png&quot;},&quot;back&quot;:{&quot;key&quot;:&quot;assets/models/hem-1630831057346.svg&quot;,&quot;url&quot;:&quot;https://lct-designs.s3.us-west-1.amazonaws.com/assets/models/hem-1630831057346.svg&quot;},&quot;mask&quot;:{&quot;key&quot;:&quot;assets/models/hem.mask-1630831063496.svg&quot;,&quot;url&quot;:&quot;https://lct-designs.s3.us-west-1.amazonaws.com/assets/models/hem.mask-1630831063496.svg&quot;},&quot;information&quot;:&quot;Size 3'x5'&quot;,&quot;type&quot;:&quot;hem-grommet&quot;,&quot;pos&quot;:&quot;1&quot;,&quot;accessories&quot;:&quot;2,3&quot;,&quot;width&quot;:&quot;60&quot;,&quot;height&quot;:&quot;36&quot;}" style="background-color: white;"><g class="model" style="pointer-events: none;"><rect x="0.5" y="0.5" fill="none" stroke="#000000" stroke-miterlimit="10" width="500" height="300"></rect></g><image width="760" height="455" xlink:href="https://lct-designs.s3.us-west-1.amazonaws.com/assets/libs/avengers-2-1632133656700.png" class="asset background locked" transform="matrix(0.6593406593406593,0,0,0.6593406593406593,0,0)"></image><image width="760" height="622" xlink:href="https://lct-designs.s3.us-west-1.amazonaws.com/assets/libs/avengers-2-1632400217392.png" class="asset" transform="matrix(0.40883442759513855,0,0,0.40883442759513855,36.82828903198242,22.851095199584964)"></image><image width="760" height="405" xlink:href="https://lct-designs.s3.us-west-1.amazonaws.com/assets/libs/avengers-2-1632133995973.png" class="asset" transform="matrix(0.07334089279174805,0,0,0.07334089279174805,63.711799621582045,38.370290756225586)"></image><text fill="#000000" font-family="Avengeance Heroic Avenger" font-size="16" x="191.72655571435945" y="166.10937165827357" transform="matrix(1,0,0,1,-127.56827926635741,-83.48665618896484)" svgjs:data="{&quot;leading&quot;:&quot;1.3&quot;}"><tspan dy="0" x="191.72655571435945" svgjs:data="{&quot;newLined&quot;:true}">Player</tspan></text><text fill="#000000" font-family="Avengeance Heroic Avenger" font-size="16" x="191.72655571435945" y="166.10937165827357" transform="matrix(1,0,0,1,-159.70093154907227,-32.3803596496582)" svgjs:data="{&quot;leading&quot;:&quot;1.3&quot;}"><tspan dy="0" x="191.72655571435945" svgjs:data="{&quot;newLined&quot;:true}">Player</tspan></text><image width="760" height="405" xlink:href="https://lct-designs.s3.us-west-1.amazonaws.com/assets/libs/avengers-2-1632133995973.png" class="asset" transform="matrix(0.07334089279174805,0,0,0.07334089279174805,31.57915496826172,89.47658538818362)"></image><text fill="#000000" font-family="Avengeance Heroic Avenger" font-size="16" x="191.72655571435945" y="166.10937165827357" transform="matrix(1,0,0,1,-175.8387701511383,29.259326934814457)" svgjs:data="{&quot;leading&quot;:&quot;1.3&quot;}"><tspan dy="0" x="191.72655571435945" svgjs:data="{&quot;newLined&quot;:true}">Player</tspan></text><image width="760" height="405" xlink:href="https://lct-designs.s3.us-west-1.amazonaws.com/assets/libs/avengers-2-1632133995973.png" class="asset" transform="matrix(0.07334089279174805,0,0,0.07334089279174805,15.441308736801147,151.11627197265625)"></image><text fill="#000000" font-family="Avengeance Heroic Avenger" font-size="16" x="191.72655571435945" y="166.10937165827357" transform="matrix(1,0,0,1,167.8153076171875,-28.479103088378906)" svgjs:data="{&quot;leading&quot;:&quot;1.3&quot;}"><tspan dy="0" x="191.72655571435945" svgjs:data="{&quot;newLined&quot;:true}">Player</tspan></text><text fill="#000000" font-family="Avengeance Heroic Avenger" font-size="16" x="191.72655571435945" y="166.10937165827357" transform="matrix(1,0,0,1,147.03509521484375,-87.38790512084961)" svgjs:data="{&quot;leading&quot;:&quot;1.3&quot;}"><tspan dy="0" x="191.72655571435945" svgjs:data="{&quot;newLined&quot;:true}">Player</tspan></text><image width="760" height="405" xlink:href="https://lct-designs.s3.us-west-1.amazonaws.com/assets/libs/avengers-2-1632133995973.png" class="asset" transform="matrix(0.07334089279174805,0,0,0.07334089279174805,338.31518554687506,34.46903610229492)"></image><text fill="#000000" font-family="Avengeance Heroic Avenger" font-size="16" x="191.72655571435945" y="166.10937165827357" transform="matrix(1,0,0,1,232.71780395507818,-76.07429504394531)" svgjs:data="{&quot;leading&quot;:&quot;1.3&quot;}"><tspan dy="0" x="191.72655571435945" svgjs:data="{&quot;newLined&quot;:true}">Player</tspan></text><image width="760" height="405" xlink:href="https://lct-designs.s3.us-west-1.amazonaws.com/assets/libs/avengers-2-1632133995973.png" class="asset" transform="matrix(0.07334089279174805,0,0,0.07334089279174805,423.9978942871094,45.78264617919923)"></image><image width="760" height="405" xlink:href="https://lct-designs.s3.us-west-1.amazonaws.com/assets/libs/avengers-2-1632133995973.png" class="asset" transform="matrix(0.07334089279174805,0,0,0.07334089279174805,359.09539794921875,93.37783813476565)"></image><text fill="#000000" font-family="Avengeance Heroic Avenger" font-size="16" x="191.72655571435945" y="166.10937165827357" transform="matrix(1,0,0,1,242.96484375,-9.753128051757809)" svgjs:data="{&quot;leading&quot;:&quot;1.3&quot;}"><tspan dy="0" x="191.72655571435945" svgjs:data="{&quot;newLined&quot;:true}">Player</tspan></text><image width="760" height="405" xlink:href="https://lct-designs.s3.us-west-1.amazonaws.com/assets/libs/avengers-2-1632133995973.png" class="asset" transform="matrix(0.07334089279174805,0,0,0.07334089279174805,434.24493408203125,112.1038131713867)"></image><text fill="#000000" font-family="Avengeance Heroic Avenger" font-size="16" x="191.72655571435945" y="166.10937165827357" transform="matrix(1,0,0,1,171.82049560546878,46.42479705810548)" svgjs:data="{&quot;leading&quot;:&quot;1.3&quot;}"><tspan dy="0" x="191.72655571435945" svgjs:data="{&quot;newLined&quot;:true}">Player</tspan></text><image width="760" height="405" xlink:href="https://lct-designs.s3.us-west-1.amazonaws.com/assets/libs/avengers-2-1632133995973.png" class="asset" transform="matrix(0.07334089279174805,0,0,0.07334089279174805,363.1005859375,168.28173828124997)"></image><text fill="#000000" font-family="Avengeance Heroic Avenger" font-size="16" x="191.72655571435945" y="166.10937165827357" transform="matrix(1,0,0,1,241.1182861328125,62.419898986816406)" svgjs:data="{&quot;leading&quot;:&quot;1.3&quot;}"><tspan dy="0" x="191.72655571435945" svgjs:data="{&quot;newLined&quot;:true}">Player</tspan></text><image width="760" height="405" xlink:href="https://lct-designs.s3.us-west-1.amazonaws.com/assets/libs/avengers-2-1632133995973.png" class="asset" transform="matrix(0.07334089279174805,0,0,0.07334089279174805,432.3983764648438,184.27684020996094)"></image><text fill="#000000" font-family="Avengeance Heroic Avenger" font-size="16" x="193.10155571435945" y="155.96093415827357" transform="matrix(1,0,0,1,-175.94277954101562,-128.3509521484375)" svgjs:data="{&quot;leading&quot;:&quot;1.3&quot;}"><tspan dy="0" x="193.10155571435945" svgjs:data="{&quot;newLined&quot;:true}">Coach: Coach's name</tspan></text><text fill="#000000" font-family="Avengeance Heroic Avenger" font-size="16" x="175.53905571435945" y="155.96093415827357" transform="matrix(1,0,0,1,156.4369354248047,-128.35093688964847)" svgjs:data="{&quot;leading&quot;:&quot;1.3&quot;}"><tspan dy="0" x="175.53905571435945" svgjs:data="{&quot;newLined&quot;:true}">Team mom: Team mom's name</tspan></text><g class="mask" style="pointer-events: none;"><path fill="#777777" enable-background="new    " d="M-1684.9-1014.6v2330.1h3870.8v-2330.1H-1684.9z M500.5,300.5H0.5V0.5h500
	V300.5z"></path></g></svg>