<svg xmlns="http://www.w3.org/2000/svg" version="1.1" xmlns:xlink="http://www.w3.org/1999/xlink" xmlns:svgjs="http://svgjs.dev/svgjs" width="100%" height="100%" viewBox="1 1 499 299" preserveAspectRatio="none" data-info="{&quot;_id&quot;:1,&quot;name&quot;:&quot;HEM &amp; GROMMETS&quot;,&quot;price&quot;:&quot;95.00&quot;,&quot;sale_price&quot;:&quot;89.99&quot;,&quot;cover&quot;:{&quot;key&quot;:&quot;assets/models/hem-1628062436886-1630830942566.png&quot;,&quot;url&quot;:&quot;https://lct-designs.s3.us-west-1.amazonaws.com/assets/models/hem-1628062436886-1630830942566.png&quot;},&quot;back&quot;:{&quot;key&quot;:&quot;assets/models/hem-1630831057346.svg&quot;,&quot;url&quot;:&quot;https://lct-designs.s3.us-west-1.amazonaws.com/assets/models/hem-1630831057346.svg&quot;},&quot;mask&quot;:{&quot;key&quot;:&quot;assets/models/hem.mask-1630831063496.svg&quot;,&quot;url&quot;:&quot;https://lct-designs.s3.us-west-1.amazonaws.com/assets/models/hem.mask-1630831063496.svg&quot;},&quot;information&quot;:&quot;Size 3'x5'&quot;,&quot;type&quot;:&quot;hem-grommet&quot;,&quot;pos&quot;:&quot;1&quot;}" style="background-color: white;"><g class="model" style="pointer-events: none;"><rect x="0.5" y="0.5" fill="none" stroke="#000000" stroke-miterlimit="10" width="500" height="300"></rect></g><image width="760" height="455" xlink:href="https://lct-designs.s3.us-west-1.amazonaws.com/assets/libs/alligator-1631957759918.png" class="asset background locked" transform="matrix(0.6593406593406593,0,0,0.6593406593406593,0,0)"></image><image width="760" height="408" xlink:href="https://lct-designs.s3.us-west-1.amazonaws.com/assets/libs/alligator-2-1631959823868.png" class="asset locked" transform="matrix(0.6281747817993164,0,0,0.6281747817993164,10.148524284362793,43.89014434814454)"></image><g class="" transform="matrix(0.9999999999999999,0,0,1,0,0)"><image width="760" height="760" xlink:href="https://lct-designs.s3.us-west-1.amazonaws.com/assets/libs/annihilators2-1631959777575.png" class="asset" transform="matrix(0.05355508625507354,0,0,0.05355508625507354,19.375810623168952,155.00753784179688)"></image><text fill="#ffffff" font-family="Antilles Condensed" font-size="24" x="204.9921899176843" y="166.10155575738105" stroke-opacity="1" stroke-width="1" stroke="#000000" transform="matrix(0.9999999999999999,0,0,1,-190.7672119140625,51.88655090332031)" svgjs:data="{&quot;leading&quot;:&quot;1.3&quot;}"><tspan dy="0" x="204.9921899176843" svgjs:data="{&quot;newLined&quot;:true}">Player</tspan></text></g><g class="" transform="matrix(0.9999999999999999,0,0,1,0.24707412719726562,-83.09650421142578)"><image width="760" height="760" xlink:href="https://lct-designs.s3.us-west-1.amazonaws.com/assets/libs/annihilators2-1631959777575.png" class="asset" transform="matrix(0.05355508625507354,0,0,0.05355508625507354,19.375810623168952,155.00753784179688)"></image><text fill="#ffffff" font-family="Antilles Condensed" font-size="24" x="204.9921899176843" y="166.10155575738105" stroke-opacity="1" stroke-width="1" stroke="#000000" transform="matrix(0.9999999999999999,0,0,1,-190.7672119140625,51.88655090332031)" svgjs:data="{&quot;leading&quot;:&quot;1.3&quot;}"><tspan dy="0" x="204.9921899176843" svgjs:data="{&quot;newLined&quot;:true}">Player</tspan></text></g><g class="" transform="matrix(0.9999999999999999,0,0,1,86.31988525390625,-46.42481231689453)"><image width="760" height="760" xlink:href="https://lct-designs.s3.us-west-1.amazonaws.com/assets/libs/annihilators2-1631959777575.png" class="asset" transform="matrix(0.05355508625507354,0,0,0.05355508625507354,19.375810623168952,155.00753784179688)"></image><text fill="#ffffff" font-family="Antilles Condensed" font-size="24" x="204.9921899176843" y="166.10155575738105" stroke-opacity="1" stroke-width="1" stroke="#000000" transform="matrix(0.9999999999999999,0,0,1,-190.7672119140625,51.88655090332031)" svgjs:data="{&quot;leading&quot;:&quot;1.3&quot;}"><tspan dy="0" x="204.9921899176843" svgjs:data="{&quot;newLined&quot;:true}">Player</tspan></text></g><g class="" transform="matrix(0.9999999999999999,0,0,1,70.96228790283203,-122.49906921386717)"><image width="760" height="760" xlink:href="https://lct-designs.s3.us-west-1.amazonaws.com/assets/libs/annihilators2-1631959777575.png" class="asset" transform="matrix(0.05355508625507354,0,0,0.05355508625507354,19.375810623168952,155.00753784179688)"></image><text fill="#ffffff" font-family="Antilles Condensed" font-size="24" x="204.9921899176843" y="166.10155575738105" stroke-opacity="1" stroke-width="1" stroke="#000000" transform="matrix(0.9999999999999999,0,0,1,-190.7672119140625,51.88655090332031)" svgjs:data="{&quot;leading&quot;:&quot;1.3&quot;}"><tspan dy="0" x="204.9921899176843" svgjs:data="{&quot;newLined&quot;:true}">Player</tspan></text></g><g class="" transform="matrix(0.9999999999999999,0,0,1,162.10662841796875,-125.22994995117186)"><image width="760" height="760" xlink:href="https://lct-designs.s3.us-west-1.amazonaws.com/assets/libs/annihilators2-1631959777575.png" class="asset" transform="matrix(0.05355508625507354,0,0,0.05355508625507354,19.375810623168952,155.00753784179688)"></image><text fill="#ffffff" font-family="Antilles Condensed" font-size="24" x="204.9921899176843" y="166.10155575738105" stroke-opacity="1" stroke-width="1" stroke="#000000" transform="matrix(0.9999999999999999,0,0,1,-190.7672119140625,51.88655090332031)" svgjs:data="{&quot;leading&quot;:&quot;1.3&quot;}"><tspan dy="0" x="204.9921899176843" svgjs:data="{&quot;newLined&quot;:true}">Player</tspan></text></g><g class="" transform="matrix(0.9999999999999999,0,0,1,252.0806274414062,-117.03733825683594)"><image width="760" height="760" xlink:href="https://lct-designs.s3.us-west-1.amazonaws.com/assets/libs/annihilators2-1631959777575.png" class="asset" transform="matrix(0.05355508625507354,0,0,0.05355508625507354,19.375810623168952,155.00753784179688)"></image><text fill="#ffffff" font-family="Antilles Condensed" font-size="24" x="204.9921899176843" y="166.10155575738105" stroke-opacity="1" stroke-width="1" stroke="#000000" transform="matrix(0.9999999999999999,0,0,1,-190.7672119140625,51.88655090332031)" svgjs:data="{&quot;leading&quot;:&quot;1.3&quot;}"><tspan dy="0" x="204.9921899176843" svgjs:data="{&quot;newLined&quot;:true}">Player</tspan></text></g><g class="" transform="matrix(0.9999999999999999,0,0,1,340.10400390624994,-126.79046630859375)"><image width="760" height="760" xlink:href="https://lct-designs.s3.us-west-1.amazonaws.com/assets/libs/annihilators2-1631959777575.png" class="asset" transform="matrix(0.05355508625507354,0,0,0.05355508625507354,19.375810623168952,155.00753784179688)"></image><text fill="#ffffff" font-family="Antilles Condensed" font-size="24" x="204.9921899176843" y="166.10155575738105" stroke-opacity="1" stroke-width="1" stroke="#000000" transform="matrix(0.9999999999999999,0,0,1,-190.7672119140625,51.88655090332031)" svgjs:data="{&quot;leading&quot;:&quot;1.3&quot;}"><tspan dy="0" x="204.9921899176843" svgjs:data="{&quot;newLined&quot;:true}">Player</tspan></text></g><g class="" transform="matrix(0.9999999999999999,0,0,1,417.5942687988281,-89.72865295410155)"><image width="760" height="760" xlink:href="https://lct-designs.s3.us-west-1.amazonaws.com/assets/libs/annihilators2-1631959777575.png" class="asset" transform="matrix(0.05355508625507354,0,0,0.05355508625507354,19.375810623168952,155.00753784179688)"></image><text fill="#ffffff" font-family="Antilles Condensed" font-size="24" x="204.9921899176843" y="166.10155575738105" stroke-opacity="1" stroke-width="1" stroke="#000000" transform="matrix(0.9999999999999999,0,0,1,-190.7672119140625,51.88655090332031)" svgjs:data="{&quot;leading&quot;:&quot;1.3&quot;}"><tspan dy="0" x="204.9921899176843" svgjs:data="{&quot;newLined&quot;:true}">Player</tspan></text></g><text fill="#ffffff" font-family="Antilles Condensed" font-size="19" stroke-opacity="1" stroke-width="1" stroke="#000000" x="176.8203149176843" y="158.89061825738105" transform="matrix(0.9999999999999999,0,0,1,-162.28868103027344,-135.1881866455078)" svgjs:data="{&quot;leading&quot;:&quot;1.3&quot;}"><tspan dy="0" x="176.8203149176843" svgjs:data="{&quot;newLined&quot;:true}">Coach: Coach's name</tspan></text><text fill="#ffffff" font-family="Antilles Condensed" font-size="19" stroke-opacity="1" stroke-width="1" stroke="#000000" x="171.5546899176843" y="157.13280575738105" transform="matrix(0.9999999999999999,0,0,1,157.2171478271484,-133.4225616455078)" svgjs:data="{&quot;leading&quot;:&quot;1.3&quot;}"><tspan dy="0" x="171.5546899176843" svgjs:data="{&quot;newLined&quot;:true}">Team mom: Team mom's name</tspan></text><g class="mask" style="pointer-events: none;"><path fill="#777777" enable-background="new    " d="M-1684.9-1014.6v2330.1h3870.8v-2330.1H-1684.9z M500.5,300.5H0.5V0.5h500
	V300.5z"></path></g></svg>