<svg xmlns="http://www.w3.org/2000/svg" version="1.1" xmlns:xlink="http://www.w3.org/1999/xlink" xmlns:svgjs="http://svgjs.dev/svgjs" width="100%" height="100%" viewBox="1 1 499 299" preserveAspectRatio="none" data-info="{&quot;_id&quot;:1,&quot;name&quot;:&quot;HEM &amp; GROMMETS&quot;,&quot;price&quot;:&quot;95.00&quot;,&quot;sale_price&quot;:&quot;89.99&quot;,&quot;cover&quot;:{&quot;key&quot;:&quot;assets/models/hem-1628062436886-1630830942566.png&quot;,&quot;url&quot;:&quot;https://lct-designs.s3.us-west-1.amazonaws.com/assets/models/hem-1628062436886-1630830942566.png&quot;},&quot;back&quot;:{&quot;key&quot;:&quot;assets/models/hem-1630831057346.svg&quot;,&quot;url&quot;:&quot;https://lct-designs.s3.us-west-1.amazonaws.com/assets/models/hem-1630831057346.svg&quot;},&quot;mask&quot;:{&quot;key&quot;:&quot;assets/models/hem.mask-1630831063496.svg&quot;,&quot;url&quot;:&quot;https://lct-designs.s3.us-west-1.amazonaws.com/assets/models/hem.mask-1630831063496.svg&quot;},&quot;information&quot;:&quot;Size 3'x5'&quot;,&quot;type&quot;:&quot;hem-grommet&quot;,&quot;pos&quot;:&quot;1&quot;,&quot;accessories&quot;:&quot;2,3&quot;,&quot;width&quot;:&quot;60&quot;,&quot;height&quot;:&quot;36&quot;}" style="background-color: white;"><g class="model" style="pointer-events: none;"><rect x="0.5" y="0.5" fill="none" stroke="#000000" stroke-miterlimit="10" width="500" height="300"></rect></g><image width="760" height="455" xlink:href="https://lct-designs.s3.us-west-1.amazonaws.com/assets/libs/batman2-1632133656703.png" class="asset background locked" transform="matrix(0.6593406593406593,0,0,0.6593406593406593,0,0)"></image><image width="760" height="266" xlink:href="https://lct-designs.s3.us-west-1.amazonaws.com/assets/libs/batman2-1632317577869.png" class="asset" transform="matrix(0.6184828877449035,0,0,0.6184828877449036,16.812974929809563,11.171298027038578)"></image><text fill="#000000" font-family="Dutch801 XBd BT" font-size="16" x="227.0703149176843" y="156.35155575738105" transform="matrix(0.9999999999999999,0,0,1,116.7030029296875,22.23709106445313)" svgjs:data="{&quot;leading&quot;:&quot;1.3&quot;}"><tspan dy="0" x="227.0703149176843" svgjs:data="{&quot;newLined&quot;:true}">Player</tspan></text><image width="760" height="508" xlink:href="https://lct-designs.s3.us-west-1.amazonaws.com/assets/libs/batman2-1632133995980.png" class="asset" transform="matrix(0.06323174387216567,0,0,0.06323174387216567,343.16714477539057,137.2555389404297)"></image><image width="760" height="508" xlink:href="https://lct-designs.s3.us-west-1.amazonaws.com/assets/libs/batman2-1632133995980.png" class="asset" transform="matrix(0.06323174387216567,0,0,0.06323174387216567,27.64048767089843,120.48020172119143)"></image><text fill="#000000" font-family="Dutch801 XBd BT" font-size="16" x="227.0703149176843" y="156.35155575738105" transform="matrix(0.9999999999999999,0,0,1,-198.82363891601562,5.461746215820316)" svgjs:data="{&quot;leading&quot;:&quot;1.3&quot;}"><tspan dy="0" x="227.0703149176843" svgjs:data="{&quot;newLined&quot;:true}">Player</tspan></text><text fill="#000000" font-family="Dutch801 XBd BT" font-size="16" x="227.0703149176843" y="156.35155575738105" transform="matrix(0.9999999999999999,0,0,1,-114.70140838623044,27.69883728027344)" svgjs:data="{&quot;leading&quot;:&quot;1.3&quot;}"><tspan dy="0" x="227.0703149176843" svgjs:data="{&quot;newLined&quot;:true}">Player</tspan></text><image width="760" height="508" xlink:href="https://lct-designs.s3.us-west-1.amazonaws.com/assets/libs/batman2-1632133995980.png" class="asset" transform="matrix(0.06323174387216567,0,0,0.06323174387216567,111.7627182006836,142.71729278564453)"></image><text fill="#000000" font-family="Dutch801 XBd BT" font-size="16" x="227.0703149176843" y="156.35155575738105" transform="matrix(0.9999999999999999,0,0,1,-201.45043182373047,88.94837951660156)" svgjs:data="{&quot;leading&quot;:&quot;1.3&quot;}"><tspan dy="0" x="227.0703149176843" svgjs:data="{&quot;newLined&quot;:true}">Player</tspan></text><image width="760" height="508" xlink:href="https://lct-designs.s3.us-west-1.amazonaws.com/assets/libs/batman2-1632133995980.png" class="asset" transform="matrix(0.06323174387216567,0,0,0.06323174387216567,25.0136947631836,203.96682739257812)"></image><text fill="#000000" font-family="Dutch801 XBd BT" font-size="16" x="227.0703149176843" y="156.35155575738105" transform="matrix(0.9999999999999999,0,0,1,-111.08633422851562,111.57559204101565)" svgjs:data="{&quot;leading&quot;:&quot;1.3&quot;}"><tspan dy="0" x="227.0703149176843" svgjs:data="{&quot;newLined&quot;:true}">Player</tspan></text><image width="760" height="508" xlink:href="https://lct-designs.s3.us-west-1.amazonaws.com/assets/libs/batman2-1632133995980.png" class="asset" transform="matrix(0.06323174387216567,0,0,0.06323174387216567,115.37779998779294,226.5940399169922)"></image><text fill="#000000" font-family="Dutch801 XBd BT" font-size="16" x="227.0703149176843" y="156.35155575738105" transform="matrix(0.9999999999999999,0,0,1,-45.689727783203125,81.92613220214844)" svgjs:data="{&quot;leading&quot;:&quot;1.3&quot;}"><tspan dy="0" x="227.0703149176843" svgjs:data="{&quot;newLined&quot;:true}">Player</tspan></text><image width="760" height="508" xlink:href="https://lct-designs.s3.us-west-1.amazonaws.com/assets/libs/batman2-1632133995980.png" class="asset" transform="matrix(0.06323174387216567,0,0,0.06323174387216567,180.77441406249997,196.94458007812503)"></image><text fill="#000000" font-family="Dutch801 XBd BT" font-size="16" x="227.0703149176843" y="156.35155575738105" transform="matrix(0.9999999999999999,0,0,1,39.602843999862664,81.14587414264678)" svgjs:data="{&quot;leading&quot;:&quot;1.3&quot;}"><tspan dy="0" x="227.0703149176843" svgjs:data="{&quot;newLined&quot;:true}">Player</tspan></text><image width="760" height="508" xlink:href="https://lct-designs.s3.us-west-1.amazonaws.com/assets/libs/batman2-1632133995980.png" class="asset" transform="matrix(0.06323174387216567,0,0,0.06323174387216567,266.06698584556574,196.16432201862335)"></image><text fill="#000000" font-family="Dutch801 XBd BT" font-size="16" x="227.0703149176843" y="156.35155575738105" transform="matrix(0.9999999999999999,0,0,1,104.85641479492188,111.18547058105469)" svgjs:data="{&quot;leading&quot;:&quot;1.3&quot;}"><tspan dy="0" x="227.0703149176843" svgjs:data="{&quot;newLined&quot;:true}">Player</tspan></text><image width="760" height="508" xlink:href="https://lct-designs.s3.us-west-1.amazonaws.com/assets/libs/batman2-1632133995980.png" class="asset" transform="matrix(0.06323174387216567,0,0,0.06323174387216567,331.32055664062494,226.20391845703128)"></image><text fill="#000000" font-family="Dutch801 XBd BT" font-size="16" x="227.0703149176843" y="156.35155575738105" transform="matrix(0.9999999999999999,0,0,1,201.85250854492182,-3.1209869384765625)" svgjs:data="{&quot;leading&quot;:&quot;1.3&quot;}"><tspan dy="0" x="227.0703149176843" svgjs:data="{&quot;newLined&quot;:true}">Player</tspan></text><image width="760" height="508" xlink:href="https://lct-designs.s3.us-west-1.amazonaws.com/assets/libs/batman2-1632133995980.png" class="asset" transform="matrix(0.06323174387216567,0,0,0.06323174387216567,428.316650390625,111.8974609375)"></image><text fill="#000000" font-family="Dutch801 XBd BT" font-size="16" x="227.0703149176843" y="156.35155575738105" transform="matrix(0.9999999999999999,0,0,1,193.12689208984375,103.38299560546875)" svgjs:data="{&quot;leading&quot;:&quot;1.3&quot;}"><tspan dy="0" x="227.0703149176843" svgjs:data="{&quot;newLined&quot;:true}">Player</tspan></text><image width="760" height="508" xlink:href="https://lct-designs.s3.us-west-1.amazonaws.com/assets/libs/batman2-1632133995980.png" class="asset" transform="matrix(0.06323174387216567,0,0,0.06323174387216567,419.5910339355468,218.4014434814453)"></image><text fill="#000000" font-family="Dutch801 XBd BT" font-size="16" x="172.7812524176843" y="156.35155575738105" transform="matrix(0.9999999999999999,0,0,1,-151.7555236816406,129.91143798828125)" svgjs:data="{&quot;leading&quot;:&quot;1.3&quot;}"><tspan dy="0" x="172.7812524176843" svgjs:data="{&quot;newLined&quot;:true}">Coach: Coach's name</tspan></text><text fill="#000000" font-family="Dutch801 XBd BT" font-size="16" x="138.7031274176843" y="156.35155575738105" transform="matrix(0.9999999999999999,0,0,1,121.71649169921872,129.9114227294922)" svgjs:data="{&quot;leading&quot;:&quot;1.3&quot;}"><tspan dy="0" x="138.7031274176843" svgjs:data="{&quot;newLined&quot;:true}">Team mom: Team mom's name</tspan></text><g class="mask" style="pointer-events: none;"><path fill="#777777" enable-background="new    " d="M-1684.9-1014.6v2330.1h3870.8v-2330.1H-1684.9z M500.5,300.5H0.5V0.5h500
	V300.5z"></path></g></svg>