<svg xmlns="http://www.w3.org/2000/svg" version="1.1" xmlns:xlink="http://www.w3.org/1999/xlink" xmlns:svgjs="http://svgjs.dev/svgjs" width="100%" height="100%" viewBox="1 1 499 299" preserveAspectRatio="none" data-info="{&quot;_id&quot;:1,&quot;name&quot;:&quot;HEM &amp; GROMMETS&quot;,&quot;price&quot;:&quot;95.00&quot;,&quot;sale_price&quot;:&quot;89.99&quot;,&quot;cover&quot;:{&quot;key&quot;:&quot;assets/models/hem-1628062436886-1630830942566.png&quot;,&quot;url&quot;:&quot;https://lct-designs.s3.us-west-1.amazonaws.com/assets/models/hem-1628062436886-1630830942566.png&quot;},&quot;back&quot;:{&quot;key&quot;:&quot;assets/models/hem-1630831057346.svg&quot;,&quot;url&quot;:&quot;https://lct-designs.s3.us-west-1.amazonaws.com/assets/models/hem-1630831057346.svg&quot;},&quot;mask&quot;:{&quot;key&quot;:&quot;assets/models/hem.mask-1630831063496.svg&quot;,&quot;url&quot;:&quot;https://lct-designs.s3.us-west-1.amazonaws.com/assets/models/hem.mask-1630831063496.svg&quot;},&quot;information&quot;:&quot;Size 3'x5'&quot;,&quot;type&quot;:&quot;hem-grommet&quot;,&quot;pos&quot;:&quot;1&quot;,&quot;accessories&quot;:&quot;2,3&quot;,&quot;width&quot;:&quot;60&quot;,&quot;height&quot;:&quot;36&quot;}" style="background-color: white;"><g class="model" style="pointer-events: none;"><rect x="0.5" y="0.5" fill="none" stroke="#000000" stroke-miterlimit="10" width="500" height="300"></rect></g><image width="760" height="455" xlink:href="https://lct-designs.s3.us-west-1.amazonaws.com/assets/libs/bullets-2-1632823438989.png" class="asset background locked" transform="matrix(0.6593406593406593,0,0,0.6593406593406593,0,0)"></image><image width="759" height="511" xlink:href="https://lct-designs.s3.us-west-1.amazonaws.com/assets/libs/bullets-2-1632823581380.png" class="asset" transform="matrix(0.28813883662223816,0,0,0.2881388366222382,141.1446990966797,81.23941802978516)"></image><image width="760" height="502" xlink:href="https://lct-designs.s3.us-west-1.amazonaws.com/assets/libs/bullets-2-1632823609263.png" class="asset" transform="matrix(0.06919361650943756,0,0,0.06919361650943757,29.373661041259766,62.97697067260745)"></image><text fill="#ffffff" font-family="American Captain" font-size="17" x="196.88280382032914" y="166.96873917768798" transform="matrix(1,0,0,1,-155.60171508789062,-56.696548461914055)" svgjs:data="{&quot;leading&quot;:&quot;1.3&quot;}"><tspan dy="0" x="196.88280382032914" svgjs:data="{&quot;newLined&quot;:true}">Player</tspan></text><image width="760" height="502" xlink:href="https://lct-designs.s3.us-west-1.amazonaws.com/assets/libs/bullets-2-1632823609263.png" class="asset" transform="matrix(0.06919367611408232,0,0,0.06919367611408234,103.08856201171875,63.51693344116214)"></image><text fill="#ffffff" font-family="American Captain" font-size="17" x="196.88280382032914" y="166.96873917768798" transform="matrix(1,0,0,1,-81.8868179321289,-56.156585693359375)" svgjs:data="{&quot;leading&quot;:&quot;1.3&quot;}"><tspan dy="0" x="196.88280382032914" svgjs:data="{&quot;newLined&quot;:true}">Player</tspan></text><image width="760" height="502" xlink:href="https://lct-designs.s3.us-west-1.amazonaws.com/assets/libs/bullets-2-1632823609263.png" class="asset" transform="matrix(0.06919364631175995,0,0,0.06919364631175996,16.97626495361328,140.7322540283203)"></image><text fill="#ffffff" font-family="American Captain" font-size="17" x="196.88280382032914" y="166.96873917768798" transform="matrix(1,0,0,1,-167.99910736083984,21.058731079101562)" svgjs:data="{&quot;leading&quot;:&quot;1.3&quot;}"><tspan dy="0" x="196.88280382032914" svgjs:data="{&quot;newLined&quot;:true}">Player</tspan></text><image width="760" height="502" xlink:href="https://lct-designs.s3.us-west-1.amazonaws.com/assets/libs/bullets-2-1632823609263.png" class="asset" transform="matrix(0.06919364631175995,0,0,0.06919364631175996,15.637168884277344,219.56745910644534)"></image><text fill="#ffffff" font-family="American Captain" font-size="17" x="196.88280382032914" y="166.96873917768798" transform="matrix(1,0,0,1,-169.33820343017578,99.89393615722659)" svgjs:data="{&quot;leading&quot;:&quot;1.3&quot;}"><tspan dy="0" x="196.88280382032914" svgjs:data="{&quot;newLined&quot;:true}">Player</tspan></text><image width="760" height="502" xlink:href="https://lct-designs.s3.us-west-1.amazonaws.com/assets/libs/bullets-2-1632823609263.png" class="asset" transform="matrix(0.06919364631175995,0,0,0.06919364631175996,87.71058654785156,140.73224258422854)"></image><text fill="#ffffff" font-family="American Captain" font-size="17" x="196.88280382032914" y="166.96873917768798" transform="matrix(1,0,0,1,-97.2647933959961,21.058723449707045)" svgjs:data="{&quot;leading&quot;:&quot;1.3&quot;}"><tspan dy="0" x="196.88280382032914" svgjs:data="{&quot;newLined&quot;:true}">Player</tspan></text><image width="760" height="502" xlink:href="https://lct-designs.s3.us-west-1.amazonaws.com/assets/libs/bullets-2-1632823609263.png" class="asset" transform="matrix(0.06919367611408232,0,0,0.06919367611408234,89.61123657226562,220.1074066162109)"></image><text fill="#ffffff" font-family="American Captain" font-size="17" x="196.88280382032914" y="166.96873917768798" transform="matrix(1,0,0,1,-95.36414337158203,100.43389129638672)" svgjs:data="{&quot;leading&quot;:&quot;1.3&quot;}"><tspan dy="0" x="196.88280382032914" svgjs:data="{&quot;newLined&quot;:true}">Player</tspan></text><image width="760" height="502" xlink:href="https://lct-designs.s3.us-west-1.amazonaws.com/assets/libs/bullets-2-1632823609263.png" class="asset" transform="matrix(0.06919364631175995,0,0,0.06919364631175996,350.38873672485346,62.97696304321198)"></image><text fill="#ffffff" font-family="American Captain" font-size="17" x="196.88280382032914" y="166.96873917768798" transform="matrix(1,0,0,1,165.4133605957031,-56.696556091309496)" svgjs:data="{&quot;leading&quot;:&quot;1.3&quot;}"><tspan dy="0" x="196.88280382032914" svgjs:data="{&quot;newLined&quot;:true}">Player</tspan></text><image width="760" height="502" xlink:href="https://lct-designs.s3.us-west-1.amazonaws.com/assets/libs/bullets-2-1632823609263.png" class="asset" transform="matrix(0.06919370591640472,0,0,0.06919370591640472,424.10363769531244,63.5169258117667)"></image><text fill="#ffffff" font-family="American Captain" font-size="17" x="196.88280382032914" y="166.96873917768798" transform="matrix(1,0,0,1,239.12825775146482,-56.15659332275481)" svgjs:data="{&quot;leading&quot;:&quot;1.3&quot;}"><tspan dy="0" x="196.88280382032914" svgjs:data="{&quot;newLined&quot;:true}">Player</tspan></text><image width="760" height="502" xlink:href="https://lct-designs.s3.us-west-1.amazonaws.com/assets/libs/bullets-2-1632823609263.png" class="asset" transform="matrix(0.06919367611408232,0,0,0.06919367611408234,354.44921875,138.5723762512207)"></image><text fill="#ffffff" font-family="American Captain" font-size="17" x="196.88280382032914" y="166.96873917768798" transform="matrix(1,0,0,1,169.47384643554685,18.898857116699233)" svgjs:data="{&quot;leading&quot;:&quot;1.3&quot;}"><tspan dy="0" x="196.88280382032914" svgjs:data="{&quot;newLined&quot;:true}">Player</tspan></text><image width="760" height="502" xlink:href="https://lct-designs.s3.us-west-1.amazonaws.com/assets/libs/bullets-2-1632823609263.png" class="asset" transform="matrix(0.06919373571872711,0,0,0.06919373571872711,428.16412353515625,139.11233901977545)"></image><text fill="#ffffff" font-family="American Captain" font-size="17" x="196.88280382032914" y="166.96873917768798" transform="matrix(1,0,0,1,243.18875122070312,19.43881988525392)" svgjs:data="{&quot;leading&quot;:&quot;1.3&quot;}"><tspan dy="0" x="196.88280382032914" svgjs:data="{&quot;newLined&quot;:true}">Player</tspan></text><image width="760" height="502" xlink:href="https://lct-designs.s3.us-west-1.amazonaws.com/assets/libs/bullets-2-1632823609263.png" class="asset" transform="matrix(0.06919373571872711,0,0,0.06919373571872711,349.8703918457031,217.40759277343753)"></image><text fill="#ffffff" font-family="American Captain" font-size="17" x="196.88280382032914" y="166.96873917768798" transform="matrix(1,0,0,1,164.89501953125,97.73407745361331)" svgjs:data="{&quot;leading&quot;:&quot;1.3&quot;}"><tspan dy="0" x="196.88280382032914" svgjs:data="{&quot;newLined&quot;:true}">Player</tspan></text><image width="760" height="502" xlink:href="https://lct-designs.s3.us-west-1.amazonaws.com/assets/libs/bullets-2-1632823609263.png" class="asset" transform="matrix(0.06919379532337189,0,0,0.0691937953233719,423.5852966308594,217.94755554199222)"></image><text fill="#ffffff" font-family="American Captain" font-size="17" x="196.88280382032914" y="166.96873917768798" transform="matrix(1,0,0,1,238.60992431640625,98.27404022216797)" svgjs:data="{&quot;leading&quot;:&quot;1.3&quot;}"><tspan dy="0" x="196.88280382032914" svgjs:data="{&quot;newLined&quot;:true}">Player</tspan></text><text fill="#ffffff" font-family="American Captain" font-size="17" x="193.17967882032914" y="156.71092667768798" transform="matrix(1,0,0,1,-169.54641723632812,-120.9526596069336)" svgjs:data="{&quot;leading&quot;:&quot;1.3&quot;}"><tspan dy="0" x="193.17967882032914" svgjs:data="{&quot;newLined&quot;:true}">Coach: Coach's name</tspan></text><text fill="#ffffff" font-family="American Captain" font-size="17" x="171.21874132032914" y="156.71092667768798" transform="matrix(1,0,0,1,147.94815063476562,-120.9526596069336)" svgjs:data="{&quot;leading&quot;:&quot;1.3&quot;}"><tspan dy="0" x="171.21874132032914" svgjs:data="{&quot;newLined&quot;:true}">Team mom: Team mom's name</tspan></text><g class="mask" style="pointer-events: none;"><path fill="#777777" enable-background="new    " d="M-1684.9-1014.6v2330.1h3870.8v-2330.1H-1684.9z M500.5,300.5H0.5V0.5h500
	V300.5z"></path></g></svg>