<svg xmlns="http://www.w3.org/2000/svg" version="1.1" xmlns:xlink="http://www.w3.org/1999/xlink" xmlns:svgjs="http://svgjs.dev/svgjs" width="100%" height="100%" viewBox="1 1 499 299" preserveAspectRatio="none" data-info="{&quot;_id&quot;:1,&quot;name&quot;:&quot;HEM &amp; GROMMETS&quot;,&quot;price&quot;:&quot;95.00&quot;,&quot;sale_price&quot;:&quot;89.99&quot;,&quot;cover&quot;:{&quot;key&quot;:&quot;assets/models/hem-1628062436886-1630830942566.png&quot;,&quot;url&quot;:&quot;https://lct-designs.s3.us-west-1.amazonaws.com/assets/models/hem-1628062436886-1630830942566.png&quot;},&quot;back&quot;:{&quot;key&quot;:&quot;assets/models/hem-1630831057346.svg&quot;,&quot;url&quot;:&quot;https://lct-designs.s3.us-west-1.amazonaws.com/assets/models/hem-1630831057346.svg&quot;},&quot;mask&quot;:{&quot;key&quot;:&quot;assets/models/hem.mask-1630831063496.svg&quot;,&quot;url&quot;:&quot;https://lct-designs.s3.us-west-1.amazonaws.com/assets/models/hem.mask-1630831063496.svg&quot;},&quot;information&quot;:&quot;Size 3'x5'&quot;,&quot;type&quot;:&quot;hem-grommet&quot;,&quot;pos&quot;:&quot;1&quot;,&quot;accessories&quot;:&quot;2,3&quot;,&quot;width&quot;:&quot;60&quot;,&quot;height&quot;:&quot;36&quot;}" style="background-color: white;"><g class="model" style="pointer-events: none;"><rect x="0.5" y="0.5" fill="none" stroke="#000000" stroke-miterlimit="10" width="500" height="300"></rect></g><image width="760" height="457" xlink:href="https://lct-designs.s3.us-west-1.amazonaws.com/assets/libs/annihilators-1631959682358.png" class="asset background locked" transform="matrix(0.6579951047897339,0,0,0.6564552187919617,0,0)"></image><image width="760" height="686" xlink:href="https://lct-designs.s3.us-west-1.amazonaws.com/assets/libs/annihilators-1631959823874.png" class="asset" transform="matrix(0.21176372468471527,0,0,0.21176372468471524,168.40051269531247,75.60907745361328)"></image><image width="760" height="760" xlink:href="https://lct-designs.s3.us-west-1.amazonaws.com/assets/libs/annihilators-1631959777575.png" class="asset" transform="matrix(0.0468820258975029,0,0,0.0468820258975029,50.58517074584962,68.39991760253906)"></image><text fill="#ffffff" font-family="Antilles" font-size="20" x="194.2968774176843" y="166.10155575738105" transform="matrix(0.9999999999999999,0,0,1,-148.6345672607422,-101.43236541748047)" svgjs:data="{&quot;leading&quot;:&quot;1.3&quot;}"><tspan dy="0" x="194.2968774176843" svgjs:data="{&quot;newLined&quot;:true}">Player</tspan></text><image width="760" height="760" xlink:href="https://lct-designs.s3.us-west-1.amazonaws.com/assets/libs/annihilators-1631959777575.png" class="asset" transform="matrix(0.0468820258975029,0,0,0.0468820258975029,26.25487136840821,143.69393920898438)"></image><text fill="#ffffff" font-family="Antilles" font-size="20" x="194.2968774176843" y="166.10155575738105" transform="matrix(0.9999999999999999,0,0,1,-172.9648742675781,-26.138343811035156)" svgjs:data="{&quot;leading&quot;:&quot;1.3&quot;}"><tspan dy="0" x="194.2968774176843" svgjs:data="{&quot;newLined&quot;:true}">Player</tspan></text><image width="760" height="760" xlink:href="https://lct-designs.s3.us-west-1.amazonaws.com/assets/libs/annihilators-1631959777575.png" class="asset" transform="matrix(0.0468820258975029,0,0,0.0468820258975029,62.00259017944337,224.44969177246094)"></image><text fill="#ffffff" font-family="Antilles" font-size="20" x="194.2968774176843" y="166.10155575738105" transform="matrix(0.9999999999999999,0,0,1,-137.21714782714844,54.617408752441406)" svgjs:data="{&quot;leading&quot;:&quot;1.3&quot;}"><tspan dy="0" x="194.2968774176843" svgjs:data="{&quot;newLined&quot;:true}">Player</tspan></text><image width="760" height="760" xlink:href="https://lct-designs.s3.us-west-1.amazonaws.com/assets/libs/annihilators-1631959777575.png" class="asset" transform="matrix(0.0468820258975029,0,0,0.0468820258975029,128.07540893554688,68.39991760253906)"></image><text fill="#ffffff" font-family="Antilles" font-size="20" x="194.2968774176843" y="166.10155575738105" transform="matrix(0.9999999999999999,0,0,1,-71.14432525634766,-101.43236541748047)" svgjs:data="{&quot;leading&quot;:&quot;1.3&quot;}"><tspan dy="0" x="194.2968774176843" svgjs:data="{&quot;newLined&quot;:true}">Player</tspan></text><image width="760" height="760" xlink:href="https://lct-designs.s3.us-west-1.amazonaws.com/assets/libs/annihilators-1631959777575.png" class="asset" transform="matrix(0.0468820258975029,0,0,0.0468820258975029,103.7451171875,143.69393920898438)"></image><text fill="#ffffff" font-family="Antilles" font-size="20" x="194.2968774176843" y="166.10155575738105" transform="matrix(1,0,0,1,-95.47462463378906,-26.13834381103516)" svgjs:data="{&quot;leading&quot;:&quot;1.3&quot;}"><tspan dy="0" x="194.2968774176843" svgjs:data="{&quot;newLined&quot;:true}">Player</tspan></text><image width="760" height="760" xlink:href="https://lct-designs.s3.us-west-1.amazonaws.com/assets/libs/annihilators-1631959777575.png" class="asset" transform="matrix(0.0468820258975029,0,0,0.0468820258975029,139.88294982910153,224.44969177246094)"></image><text fill="#ffffff" font-family="Antilles" font-size="20" x="194.2968774176843" y="166.10155575738105" transform="matrix(0.9999999999999999,0,0,1,-59.3367919921875,54.617408752441406)" svgjs:data="{&quot;leading&quot;:&quot;1.3&quot;}"><tspan dy="0" x="194.2968774176843" svgjs:data="{&quot;newLined&quot;:true}">Player</tspan></text><image width="760" height="760" xlink:href="https://lct-designs.s3.us-west-1.amazonaws.com/assets/libs/annihilators-1631959777575.png" class="asset" transform="matrix(0.0468820258975029,0,0,0.0468820258975029,331.96356201171875,66.44929504394531)"></image><text fill="#ffffff" font-family="Antilles" font-size="20" x="194.2968774176843" y="166.10155575738105" transform="matrix(0.9999999999999999,0,0,1,132.74383544921872,-103.38298797607422)" svgjs:data="{&quot;leading&quot;:&quot;1.3&quot;}"><tspan dy="0" x="194.2968774176843" svgjs:data="{&quot;newLined&quot;:true}">Player</tspan></text><text fill="#ffffff" font-family="Antilles" font-size="20" x="194.2968774176843" y="166.10155575738105" transform="matrix(0.9999999999999999,0,0,1,153.66711425781247,-27.698837280273438)" svgjs:data="{&quot;leading&quot;:&quot;1.3&quot;}"><tspan dy="0" x="194.2968774176843" svgjs:data="{&quot;newLined&quot;:true}">Player</tspan></text><image width="760" height="760" xlink:href="https://lct-designs.s3.us-west-1.amazonaws.com/assets/libs/annihilators-1631959777575.png" class="asset" transform="matrix(0.0468820258975029,0,0,0.0468820258975029,352.88684082031244,142.52357482910156)"></image><text fill="#ffffff" font-family="Antilles" font-size="20" x="194.2968774176843" y="166.10155575738105" transform="matrix(0.9999999999999999,0,0,1,123.48503112792966,56.95817565917969)" svgjs:data="{&quot;leading&quot;:&quot;1.3&quot;}"><tspan dy="0" x="194.2968774176843" svgjs:data="{&quot;newLined&quot;:true}">Player</tspan></text><image width="760" height="760" xlink:href="https://lct-designs.s3.us-west-1.amazonaws.com/assets/libs/annihilators-1631959777575.png" class="asset" transform="matrix(0.0468820258975029,0,0,0.0468820258975029,323.0948791503906,226.40032958984372)"></image><image width="760" height="760" xlink:href="https://lct-designs.s3.us-west-1.amazonaws.com/assets/libs/annihilators-1631959777575.png" class="asset" transform="matrix(0.0468820258975029,0,0,0.0468820258975029,410.23403930664057,66.05917358398438)"></image><text fill="#ffffff" font-family="Antilles" font-size="20" x="194.2968774176843" y="166.10155575738105" transform="matrix(0.9999999999999999,0,0,1,211.01431274414057,-103.77310943603516)" svgjs:data="{&quot;leading&quot;:&quot;1.3&quot;}"><tspan dy="0" x="194.2968774176843" svgjs:data="{&quot;newLined&quot;:true}">Player</tspan></text><text fill="#ffffff" font-family="Antilles" font-size="20" x="194.2968774176843" y="166.10155575738105" transform="matrix(0.9999999999999999,0,0,1,231.93759155273438,-27.698837280273438)" svgjs:data="{&quot;leading&quot;:&quot;1.3&quot;}"><tspan dy="0" x="194.2968774176843" svgjs:data="{&quot;newLined&quot;:true}">Player</tspan></text><image width="760" height="760" xlink:href="https://lct-designs.s3.us-west-1.amazonaws.com/assets/libs/annihilators-1631959777575.png" class="asset" transform="matrix(0.0468820258975029,0,0,0.0468820258975029,431.1573181152343,142.13345336914062)"></image><text fill="#ffffff" font-family="Antilles" font-size="20" x="194.2968774176843" y="166.10155575738105" transform="matrix(0.9999999999999999,0,0,1,202.14562988281244,56.17791748046875)" svgjs:data="{&quot;leading&quot;:&quot;1.3&quot;}"><tspan dy="0" x="194.2968774176843" svgjs:data="{&quot;newLined&quot;:true}">Player</tspan></text><image width="760" height="760" xlink:href="https://lct-designs.s3.us-west-1.amazonaws.com/assets/libs/annihilators-1631959777575.png" class="asset" transform="matrix(0.0468820258975029,0,0,0.0468820258975029,401.36535644531256,226.0102081298828)"></image><text fill="#ffffff" font-family="Antilles" font-size="20" x="174.5781274176843" y="157.52343075738105" transform="matrix(1,0,0,1,-153.70611572265622,-125.62007904052734)" svgjs:data="{&quot;leading&quot;:&quot;1.3&quot;}"><tspan dy="0" x="174.5781274176843" svgjs:data="{&quot;newLined&quot;:true}">Coach: Coach's name</tspan></text><text fill="#ffffff" font-family="Antilles" font-size="20" x="147.6406274176843" y="157.52343075738105" transform="matrix(1,0,0,1,127.56825256347653,-126.79043579101565)" svgjs:data="{&quot;leading&quot;:&quot;1.3&quot;}"><tspan dy="0" x="147.6406274176843" svgjs:data="{&quot;newLined&quot;:true}">Team mom: Team mom's name</tspan></text><g class="mask" style="pointer-events: none;"><path fill="#777777" enable-background="new    " d="M-1684.9-1014.6v2330.1h3870.8v-2330.1H-1684.9z M500.5,300.5H0.5V0.5h500
	V300.5z"></path></g></svg>