<svg xmlns="http://www.w3.org/2000/svg" version="1.1" xmlns:xlink="http://www.w3.org/1999/xlink" xmlns:svgjs="http://svgjs.dev/svgjs" width="100%" height="100%" viewBox="1 1 499 299" preserveAspectRatio="none" data-info="{&quot;_id&quot;:1,&quot;name&quot;:&quot;HEM &amp; GROMMETS&quot;,&quot;price&quot;:&quot;95.00&quot;,&quot;sale_price&quot;:&quot;89.99&quot;,&quot;cover&quot;:{&quot;key&quot;:&quot;assets/models/hem-1628062436886-1630830942566.png&quot;,&quot;url&quot;:&quot;https://lct-designs.s3.us-west-1.amazonaws.com/assets/models/hem-1628062436886-1630830942566.png&quot;},&quot;back&quot;:{&quot;key&quot;:&quot;assets/models/hem-1630831057346.svg&quot;,&quot;url&quot;:&quot;https://lct-designs.s3.us-west-1.amazonaws.com/assets/models/hem-1630831057346.svg&quot;},&quot;mask&quot;:{&quot;key&quot;:&quot;assets/models/hem.mask-1630831063496.svg&quot;,&quot;url&quot;:&quot;https://lct-designs.s3.us-west-1.amazonaws.com/assets/models/hem.mask-1630831063496.svg&quot;},&quot;information&quot;:&quot;Size 3'x5'&quot;,&quot;type&quot;:&quot;hem-grommet&quot;,&quot;pos&quot;:&quot;1&quot;,&quot;accessories&quot;:&quot;2,3&quot;,&quot;width&quot;:&quot;60&quot;,&quot;height&quot;:&quot;36&quot;}" style="background-color: white;"><g class="model" style="pointer-events: none;"><rect x="0.5" y="0.5" fill="none" stroke="#000000" stroke-miterlimit="10" width="500" height="300"></rect></g><image width="760" height="457" xlink:href="https://lct-designs.s3.us-west-1.amazonaws.com/assets/libs/armed-force-1631959682362.png" class="asset background locked" transform="matrix(0.6741958856582642,0,0,0.6748948693275452,0,-5.89899301528931)"></image><image width="760" height="686" xlink:href="https://lct-designs.s3.us-west-1.amazonaws.com/assets/libs/armed-force-1631959823879.png" class="asset" transform="matrix(0.2728481590747833,0,0,0.2728481590747833,149.85955810546875,66.10358428955078)"></image><text fill="#ffffff" font-family="Raider Crusader Straight" font-size="16" x="196.8828293052036" y="167.14061252119865" transform="matrix(1,0,0,1,-168.28651428222656,-58.14726257324219)" svgjs:data="{&quot;leading&quot;:&quot;1.3&quot;}"><tspan dy="0" x="196.8828293052036" svgjs:data="{&quot;newLined&quot;:true}">Player</tspan></text><text fill="#ffffff" font-family="Raider Crusader Straight" font-size="16" x="196.8828293052036" y="167.14061252119865" transform="matrix(1,0,0,1,-168.28651428222656,16.43291473388672)" svgjs:data="{&quot;leading&quot;:&quot;1.3&quot;}"><tspan dy="0" x="196.8828293052036" svgjs:data="{&quot;newLined&quot;:true}">Player</tspan></text><text fill="#ffffff" font-family="Raider Crusader Straight" font-size="16" x="196.8828293052036" y="167.14061252119865" transform="matrix(1,0,0,1,-168.28648376464844,98.59752655029297)" svgjs:data="{&quot;leading&quot;:&quot;1.3&quot;}"><tspan dy="0" x="196.8828293052036" svgjs:data="{&quot;newLined&quot;:true}">Player</tspan></text><image width="760" height="680" xlink:href="https://lct-designs.s3.us-west-1.amazonaws.com/assets/libs/armed-force-1632303912376.png" class="asset" transform="matrix(0.05722293257713317,0,0,0.05722293257713318,30.61722183227539,54.27898025512695)"></image><image width="760" height="680" xlink:href="https://lct-designs.s3.us-west-1.amazonaws.com/assets/libs/armed-force-1632303912376.png" class="asset" transform="matrix(0.05722295865416527,0,0,0.057222958654165275,30.61722183227539,210.88764953613284)"></image><image width="760" height="680" xlink:href="https://lct-designs.s3.us-west-1.amazonaws.com/assets/libs/armed-force-1632303912376.png" class="asset" transform="matrix(0.05722296983003616,0,0,0.05722296983003617,30.61719703674315,128.61590576171875)"></image><text fill="#ffffff" font-family="Raider Crusader Straight" font-size="16" x="196.8828293052036" y="167.14061252119865" transform="matrix(1,0,0,1,229.7753143310547,-58.98997497558594)" svgjs:data="{&quot;leading&quot;:&quot;1.3&quot;}"><tspan dy="0" x="196.8828293052036" svgjs:data="{&quot;newLined&quot;:true}">Player</tspan></text><text fill="#ffffff" font-family="Raider Crusader Straight" font-size="16" x="196.8828293052036" y="167.14061252119865" transform="matrix(1,0,0,1,229.7753143310547,15.590202331542969)" svgjs:data="{&quot;leading&quot;:&quot;1.3&quot;}"><tspan dy="0" x="196.8828293052036" svgjs:data="{&quot;newLined&quot;:true}">Player</tspan></text><text fill="#ffffff" font-family="Raider Crusader Straight" font-size="16" x="196.8828293052036" y="167.14061252119865" transform="matrix(1,0,0,1,229.77529907226562,97.75481414794922)" svgjs:data="{&quot;leading&quot;:&quot;1.3&quot;}"><tspan dy="0" x="196.8828293052036" svgjs:data="{&quot;newLined&quot;:true}">Player</tspan></text><image width="760" height="680" xlink:href="https://lct-designs.s3.us-west-1.amazonaws.com/assets/libs/armed-force-1632303912376.png" class="asset" transform="matrix(0.057222947478294366,0,0,0.05722294747829437,428.678985595703,51.35561752319336)"></image><image width="760" height="680" xlink:href="https://lct-designs.s3.us-west-1.amazonaws.com/assets/libs/armed-force-1632303912376.png" class="asset" transform="matrix(0.05722295865416527,0,0,0.057222958654165275,428.678985595703,209.634765625)"></image><image width="760" height="680" xlink:href="https://lct-designs.s3.us-west-1.amazonaws.com/assets/libs/armed-force-1632303912376.png" class="asset" transform="matrix(0.05722296237945556,0,0,0.05722296237945557,428.678985595703,126.94539642333984)"></image><text fill="#ffffff" font-family="Raider Crusader Straight" font-size="16" x="196.8828293052036" y="167.14061252119865" transform="matrix(1,0,0,1,165.1966400146484,-18.539703369140625)" svgjs:data="{&quot;leading&quot;:&quot;1.3&quot;}"><tspan dy="0" x="196.8828293052036" svgjs:data="{&quot;newLined&quot;:true}">Player</tspan></text><text fill="#ffffff" font-family="Raider Crusader Straight" font-size="16" x="196.8828293052036" y="167.14061252119865" transform="matrix(1,0,0,1,165.1966705322265,63.624908447265625)" svgjs:data="{&quot;leading&quot;:&quot;1.3&quot;}"><tspan dy="0" x="196.8828293052036" svgjs:data="{&quot;newLined&quot;:true}">Player</tspan></text><image width="760" height="680" xlink:href="https://lct-designs.s3.us-west-1.amazonaws.com/assets/libs/armed-force-1632303912376.png" class="asset" transform="matrix(0.05722295492887497,0,0,0.05722295492887497,364.10037231445307,90.19456481933594)"></image><image width="760" height="680" xlink:href="https://lct-designs.s3.us-west-1.amazonaws.com/assets/libs/armed-force-1632303912376.png" class="asset" transform="matrix(0.05722296237945556,0,0,0.05722296237945557,364.100341796875,175.38967895507812)"></image><text fill="#ffffff" font-family="Raider Crusader Straight" font-size="16" x="196.8828293052036" y="167.14061252119865" transform="matrix(1,0,0,1,-100.36514282226562,-16.854270935058594)" svgjs:data="{&quot;leading&quot;:&quot;1.3&quot;}"><tspan dy="0" x="196.8828293052036" svgjs:data="{&quot;newLined&quot;:true}">Player</tspan></text><text fill="#ffffff" font-family="Raider Crusader Straight" font-size="16" x="196.8828293052036" y="167.14061252119865" transform="matrix(1,0,0,1,-100.36514282226562,65.31034088134766)" svgjs:data="{&quot;leading&quot;:&quot;1.3&quot;}"><tspan dy="0" x="196.8828293052036" svgjs:data="{&quot;newLined&quot;:true}">Player</tspan></text><image width="760" height="680" xlink:href="https://lct-designs.s3.us-west-1.amazonaws.com/assets/libs/armed-force-1632303912376.png" class="asset" transform="matrix(0.05722296237945556,0,0,0.05722296237945557,98.53856658935547,176.64254760742188)"></image><image width="760" height="680" xlink:href="https://lct-designs.s3.us-west-1.amazonaws.com/assets/libs/armed-force-1632303912376.png" class="asset" transform="matrix(0.05722296983003616,0,0,0.05722296983003617,98.53855895996091,95.62367248535156)"></image><text fill="#ffffff" font-family="Raider Crusader Straight" font-size="16" x="179.6093918052036" y="155.76561252119865" stroke-opacity="1" stroke-width="1" stroke="#000000" transform="matrix(1,0,0,1,-158.42694091796875,-123.66824340820315)" svgjs:data="{&quot;leading&quot;:&quot;1.3&quot;}"><tspan dy="0" x="179.6093918052036" svgjs:data="{&quot;newLined&quot;:true}">Coach: Coach's name</tspan></text><text fill="#ffffff" font-family="Raider Crusader Straight" font-size="16" stroke-opacity="1" stroke-width="1" stroke="#000000" x="154.2500168052036" y="155.76561252119865" transform="matrix(1,0,0,1,134.83148193359375,-123.66827392578125)" svgjs:data="{&quot;leading&quot;:&quot;1.3&quot;}"><tspan dy="0" x="154.2500168052036" svgjs:data="{&quot;newLined&quot;:true}">Team mom: Team mom's name</tspan></text><g class="mask" style="pointer-events: none;"><path fill="#777777" enable-background="new    " d="M-1684.9-1014.6v2330.1h3870.8v-2330.1H-1684.9z M500.5,300.5H0.5V0.5h500
	V300.5z"></path></g></svg>