<svg xmlns="http://www.w3.org/2000/svg" version="1.1" xmlns:xlink="http://www.w3.org/1999/xlink" xmlns:svgjs="http://svgjs.dev/svgjs" width="100%" height="100%" viewBox="1 1 499 299" preserveAspectRatio="none" data-info="{&quot;_id&quot;:1,&quot;name&quot;:&quot;HEM &amp; GROMMETS&quot;,&quot;price&quot;:&quot;95.00&quot;,&quot;sale_price&quot;:&quot;89.99&quot;,&quot;cover&quot;:{&quot;key&quot;:&quot;assets/models/hem-1628062436886-1630830942566.png&quot;,&quot;url&quot;:&quot;https://lct-designs.s3.us-west-1.amazonaws.com/assets/models/hem-1628062436886-1630830942566.png&quot;},&quot;back&quot;:{&quot;key&quot;:&quot;assets/models/hem-1630831057346.svg&quot;,&quot;url&quot;:&quot;https://lct-designs.s3.us-west-1.amazonaws.com/assets/models/hem-1630831057346.svg&quot;},&quot;mask&quot;:{&quot;key&quot;:&quot;assets/models/hem.mask-1630831063496.svg&quot;,&quot;url&quot;:&quot;https://lct-designs.s3.us-west-1.amazonaws.com/assets/models/hem.mask-1630831063496.svg&quot;},&quot;information&quot;:&quot;Size 3'x5'&quot;,&quot;type&quot;:&quot;hem-grommet&quot;,&quot;pos&quot;:&quot;1&quot;,&quot;accessories&quot;:&quot;2,3&quot;,&quot;width&quot;:&quot;60&quot;,&quot;height&quot;:&quot;36&quot;}" style="background-color: white;"><g class="model" style="pointer-events: none;"><rect x="0.5" y="0.5" fill="none" stroke="#000000" stroke-miterlimit="10" width="500" height="300"></rect></g><image width="760" height="455" xlink:href="https://lct-designs.s3.us-west-1.amazonaws.com/assets/libs/beautiful-beasts-2-1632134387208.png" class="asset background locked" transform="matrix(0.6593406593406593,0,0,0.6593406593406593,0,0)"></image><image width="760" height="70" xlink:href="https://lct-designs.s3.us-west-1.amazonaws.com/assets/libs/beautiful-beasts-2-1632317577872.png" class="asset" transform="matrix(0.47953402996063227,0,0,0.4795340299606323,114.18889617919919,244.76942443847656)"></image><image width="760" height="500" xlink:href="https://lct-designs.s3.us-west-1.amazonaws.com/assets/libs/beautiful-beasts-2-1632218130309.png" class="asset" transform="matrix(0.33960431814193726,0,0,0.33960431814193726,11.677946090698242,69.92437744140626)"></image><image width="760" height="596" xlink:href="https://lct-designs.s3.us-west-1.amazonaws.com/assets/libs/beautiful-beasts-2-1632218035660.png" class="asset" transform="matrix(0.0647558942437172,0,0,0.0647558942437172,425.7698364257813,25.324600219726566)"></image><image width="760" height="596" xlink:href="https://lct-designs.s3.us-west-1.amazonaws.com/assets/libs/beautiful-beasts-2-1632218035660.png" class="asset" transform="matrix(0.0647558942437172,0,0,0.0647558942437172,338.9167785644532,25.324600219726566)"></image><text fill="#000000" font-family="American Captain" font-size="18" x="196.88280571435945" y="167.07812165827357" transform="matrix(1,0,0,1,145.19590759277344,-86.99774169921875)" svgjs:data="{&quot;leading&quot;:&quot;1.3&quot;}"><tspan dy="0" x="196.88280571435945" svgjs:data="{&quot;newLined&quot;:true}">Player</tspan></text><text fill="#000000" font-family="American Captain" font-size="18" x="196.88280571435945" y="167.07812165827357" transform="matrix(1,0,0,1,232.04898071289062,-86.99774169921875)" svgjs:data="{&quot;leading&quot;:&quot;1.3&quot;}"><tspan dy="0" x="196.88280571435945" svgjs:data="{&quot;newLined&quot;:true}">Player</tspan></text><image width="760" height="596" xlink:href="https://lct-designs.s3.us-west-1.amazonaws.com/assets/libs/beautiful-beasts-2-1632218035660.png" class="asset" transform="matrix(0.0647558942437172,0,0,0.0647558942437172,255.18470764160156,25.3245964050293)"></image><text fill="#000000" font-family="American Captain" font-size="18" x="196.88280571435945" y="167.07812165827357" transform="matrix(1,0,0,1,61.463829040527344,-86.99775695800781)" svgjs:data="{&quot;leading&quot;:&quot;1.3&quot;}"><tspan dy="0" x="196.88280571435945" svgjs:data="{&quot;newLined&quot;:true}">Player</tspan></text><image width="760" height="596" xlink:href="https://lct-designs.s3.us-west-1.amazonaws.com/assets/libs/beautiful-beasts-2-1632218035660.png" class="asset" transform="matrix(0.0647558942437172,0,0,0.0647558942437172,165.210693359375,25.324592590332028)"></image><text fill="#000000" font-family="American Captain" font-size="18" x="196.88280571435945" y="167.07812165827357" transform="matrix(1,0,0,1,-28.51018714904785,-86.99775695800781)" svgjs:data="{&quot;leading&quot;:&quot;1.3&quot;}"><tspan dy="0" x="196.88280571435945" svgjs:data="{&quot;newLined&quot;:true}">Player</tspan></text><image width="760" height="596" xlink:href="https://lct-designs.s3.us-west-1.amazonaws.com/assets/libs/beautiful-beasts-2-1632218035660.png" class="asset" transform="matrix(0.0647558942437172,0,0,0.0647558942437172,387.39532470703125,89.30501556396484)"></image><image width="760" height="596" xlink:href="https://lct-designs.s3.us-west-1.amazonaws.com/assets/libs/beautiful-beasts-2-1632218035660.png" class="asset" transform="matrix(0.0647558942437172,0,0,0.0647558942437172,300.5422668457031,89.30501556396484)"></image><text fill="#000000" font-family="American Captain" font-size="18" x="196.88280571435945" y="167.07812165827357" transform="matrix(1,0,0,1,106.82139587402344,-23.01732635498047)" svgjs:data="{&quot;leading&quot;:&quot;1.3&quot;}"><tspan dy="0" x="196.88280571435945" svgjs:data="{&quot;newLined&quot;:true}">Player</tspan></text><text fill="#000000" font-family="American Captain" font-size="18" x="196.88280571435945" y="167.07812165827357" transform="matrix(1,0,0,1,193.67446899414062,-23.01732635498047)" svgjs:data="{&quot;leading&quot;:&quot;1.3&quot;}"><tspan dy="0" x="196.88280571435945" svgjs:data="{&quot;newLined&quot;:true}">Player</tspan></text><image width="760" height="596" xlink:href="https://lct-designs.s3.us-west-1.amazonaws.com/assets/libs/beautiful-beasts-2-1632218035660.png" class="asset" transform="matrix(0.0647558942437172,0,0,0.0647558942437172,430.69833397865295,164.20892333984375)"></image><image width="760" height="596" xlink:href="https://lct-designs.s3.us-west-1.amazonaws.com/assets/libs/beautiful-beasts-2-1632218035660.png" class="asset" transform="matrix(0.0647558942437172,0,0,0.0647558942437172,343.84527611732483,164.20892333984375)"></image><text fill="#000000" font-family="American Captain" font-size="18" x="196.88280571435945" y="167.07812165827357" transform="matrix(1,0,0,1,150.1244051456451,51.88658142089845)" svgjs:data="{&quot;leading&quot;:&quot;1.3&quot;}"><tspan dy="0" x="196.88280571435945" svgjs:data="{&quot;newLined&quot;:true}">Player</tspan></text><text fill="#000000" font-family="American Captain" font-size="18" x="196.88280571435945" y="167.07812165827357" transform="matrix(1,0,0,1,236.9774782657624,51.88658142089845)" svgjs:data="{&quot;leading&quot;:&quot;1.3&quot;}"><tspan dy="0" x="196.88280571435945" svgjs:data="{&quot;newLined&quot;:true}">Player</tspan></text><image width="760" height="596" xlink:href="https://lct-designs.s3.us-west-1.amazonaws.com/assets/libs/beautiful-beasts-2-1632218035660.png" class="asset" transform="matrix(0.0647558942437172,0,0,0.0647558942437172,260.1131899356842,164.20892333984375)"></image><text fill="#000000" font-family="American Captain" font-size="18" x="196.88280571435945" y="167.07812165827357" transform="matrix(1,0,0,1,66.39232659339906,51.886566162109375)" svgjs:data="{&quot;leading&quot;:&quot;1.3&quot;}"><tspan dy="0" x="196.88280571435945" svgjs:data="{&quot;newLined&quot;:true}">Player</tspan></text><text fill="#000000" font-family="American Captain" font-size="18" x="189.81249321435945" y="156.93749665827357" transform="matrix(1,0,0,1,-173.60208129882812,-132.25221252441406)" svgjs:data="{&quot;leading&quot;:&quot;1.3&quot;}"><tspan dy="0" x="189.81249321435945" svgjs:data="{&quot;newLined&quot;:true}">Coach: Coach's name</tspan></text><text fill="#000000" font-family="American Captain" font-size="18" x="166.56249321435945" y="156.93749665827357" transform="matrix(1,0,0,1,152.14566040039062,-132.25221252441406)" svgjs:data="{&quot;leading&quot;:&quot;1.3&quot;}"><tspan dy="0" x="166.56249321435945" svgjs:data="{&quot;newLined&quot;:true}">Team mom: Team mom's name</tspan></text><g class="mask" style="pointer-events: none;"><path fill="#777777" enable-background="new    " d="M-1684.9-1014.6v2330.1h3870.8v-2330.1H-1684.9z M500.5,300.5H0.5V0.5h500
	V300.5z"></path></g></svg>