<svg xmlns="http://www.w3.org/2000/svg" version="1.1" xmlns:xlink="http://www.w3.org/1999/xlink" xmlns:svgjs="http://svgjs.dev/svgjs" width="100%" height="100%" viewBox="1 1 499 299" preserveAspectRatio="none" data-info="{&quot;_id&quot;:1,&quot;name&quot;:&quot;HEM &amp; GROMMETS&quot;,&quot;price&quot;:&quot;95.00&quot;,&quot;sale_price&quot;:&quot;89.99&quot;,&quot;cover&quot;:{&quot;key&quot;:&quot;assets/models/hem-1628062436886-1630830942566.png&quot;,&quot;url&quot;:&quot;https://lct-designs.s3.us-west-1.amazonaws.com/assets/models/hem-1628062436886-1630830942566.png&quot;},&quot;back&quot;:{&quot;key&quot;:&quot;assets/models/hem-1630831057346.svg&quot;,&quot;url&quot;:&quot;https://lct-designs.s3.us-west-1.amazonaws.com/assets/models/hem-1630831057346.svg&quot;},&quot;mask&quot;:{&quot;key&quot;:&quot;assets/models/hem.mask-1630831063496.svg&quot;,&quot;url&quot;:&quot;https://lct-designs.s3.us-west-1.amazonaws.com/assets/models/hem.mask-1630831063496.svg&quot;},&quot;information&quot;:&quot;Size 3'x5'&quot;,&quot;type&quot;:&quot;hem-grommet&quot;,&quot;pos&quot;:&quot;1&quot;,&quot;accessories&quot;:&quot;2,3&quot;,&quot;width&quot;:&quot;60&quot;,&quot;height&quot;:&quot;36&quot;}" style="background-color: white;"><g class="model" style="pointer-events: none;"><rect x="0.5" y="0.5" fill="none" stroke="#000000" stroke-miterlimit="10" width="500" height="300"></rect></g><image width="760" height="455" xlink:href="https://lct-designs.s3.us-west-1.amazonaws.com/assets/libs/blue-warriors2-1632823438982.png" class="asset background locked" transform="matrix(0.6593406593406593,0,0,0.6593406593406593,0,0)"></image><image width="760" height="336" xlink:href="https://lct-designs.s3.us-west-1.amazonaws.com/assets/libs/blue-warriors2-1632823581359.png" class="asset" transform="matrix(0.5623303055763245,0,0,0.5623303055763245,0.9153429865837097,55.24026870727539)"></image><image width="359" height="760" xlink:href="https://lct-designs.s3.us-west-1.amazonaws.com/assets/libs/blue-warriors2-1632823560458.png" class="asset" transform="matrix(0.3265360891819,0,0,0.3265360891819,369.40216064453125,29.06177902221681)"></image><text fill="#ffdd00" font-family="Antilles" font-size="19" x="194.13280818724536" y="165.95312200672404" transform="matrix(1,0,0,0.9999999999999999,69.77117919921875,-94.10755920410155)" svgjs:data="{&quot;leading&quot;:&quot;1.3&quot;}"><tspan dy="0" x="194.13280818724536" svgjs:data="{&quot;newLined&quot;:true}">Player</tspan></text><image width="760" height="754" xlink:href="https://lct-designs.s3.us-west-1.amazonaws.com/assets/libs/blue-warriors2-1632823609251.png" class="asset" transform="matrix(0.05115469172596932,0,0,0.051154691725969315,268.3246154785157,17.72885513305664)"></image><image width="760" height="754" xlink:href="https://lct-designs.s3.us-west-1.amazonaws.com/assets/libs/blue-warriors2-1632823609251.png" class="asset" transform="matrix(0.05115476995706559,0,0,0.05115476995706558,147.91270446777344,17.728837966918945)"></image><text fill="#ffdd00" font-family="Antilles" font-size="19" x="194.13280818724536" y="165.95312200672404" transform="matrix(1,0,0,0.9999999999999999,-175.05718994140625,-94.10755920410155)" svgjs:data="{&quot;leading&quot;:&quot;1.3&quot;}"><tspan dy="0" x="194.13280818724536" svgjs:data="{&quot;newLined&quot;:true}">Player</tspan></text><image width="760" height="754" xlink:href="https://lct-designs.s3.us-west-1.amazonaws.com/assets/libs/blue-warriors2-1632823609251.png" class="asset" transform="matrix(0.05115475878119469,0,0,0.05115475878119469,23.496231079101562,17.728849411010742)"></image><text fill="#ffdd00" font-family="Antilles" font-size="19" x="194.13280818724536" y="165.95312200672404" transform="matrix(1,0,0,0.9999999999999999,-50.640716552734375,-94.10755920410155)" svgjs:data="{&quot;leading&quot;:&quot;1.3&quot;}"><tspan dy="0" x="194.13280818724536" svgjs:data="{&quot;newLined&quot;:true}">Player</tspan></text><text fill="#ffdd00" font-family="Antilles" font-size="19" x="194.13280818724536" y="165.95312200672404" transform="matrix(1,0,0,0.9999999999999999,12.562942504882812,-48.91305541992187)" svgjs:data="{&quot;leading&quot;:&quot;1.3&quot;}"><tspan dy="0" x="194.13280818724536" svgjs:data="{&quot;newLined&quot;:true}">Player</tspan></text><image width="760" height="754" xlink:href="https://lct-designs.s3.us-west-1.amazonaws.com/assets/libs/blue-warriors2-1632823609251.png" class="asset" transform="matrix(0.05115475878119469,0,0,0.05115475878119469,211.11636352539065,62.923343658447266)"></image><text fill="#ffdd00" font-family="Antilles" font-size="19" x="194.13280818724536" y="165.95312200672404" transform="matrix(1,0,0,0.9999999999999999,-111.85353088378908,-48.91305541992187)" svgjs:data="{&quot;leading&quot;:&quot;1.3&quot;}"><tspan dy="0" x="194.13280818724536" svgjs:data="{&quot;newLined&quot;:true}">Player</tspan></text><image width="760" height="754" xlink:href="https://lct-designs.s3.us-west-1.amazonaws.com/assets/libs/blue-warriors2-1632823609251.png" class="asset" transform="matrix(0.0511547476053238,0,0,0.051154747605323785,86.69989013671876,62.92335510253906)"></image><text fill="#ffdd00" font-family="Antilles" font-size="19" x="194.13280818724536" y="165.95312200672404" transform="matrix(1,0,0,0.9999999999999999,11.693374633789062,70.65214538574219)" svgjs:data="{&quot;leading&quot;:&quot;1.3&quot;}"><tspan dy="0" x="194.13280818724536" svgjs:data="{&quot;newLined&quot;:true}">Player</tspan></text><image width="760" height="754" xlink:href="https://lct-designs.s3.us-west-1.amazonaws.com/assets/libs/blue-warriors2-1632823609251.png" class="asset" transform="matrix(0.05115476995706559,0,0,0.05115476995706558,210.2467956542969,182.48854446411133)"></image><text fill="#ffdd00" font-family="Antilles" font-size="19" x="194.13280818724536" y="165.95312200672404" transform="matrix(1,0,0,0.9999999999999999,-112.72309875488283,70.65214538574219)" svgjs:data="{&quot;leading&quot;:&quot;1.3&quot;}"><tspan dy="0" x="194.13280818724536" svgjs:data="{&quot;newLined&quot;:true}">Player</tspan></text><image width="760" height="754" xlink:href="https://lct-designs.s3.us-west-1.amazonaws.com/assets/libs/blue-warriors2-1632823609251.png" class="asset" transform="matrix(0.05115475878119469,0,0,0.05115475878119469,85.83032226562501,182.48855590820312)"></image><text fill="#ffdd00" font-family="Antilles" font-size="19" x="194.13280818724536" y="165.95312200672404" transform="matrix(1,0,0,0.9999999999999999,73.478271484375,116.4187316894531)" svgjs:data="{&quot;leading&quot;:&quot;1.3&quot;}"><tspan dy="0" x="194.13280818724536" svgjs:data="{&quot;newLined&quot;:true}">Player</tspan></text><image width="760" height="754" xlink:href="https://lct-designs.s3.us-west-1.amazonaws.com/assets/libs/blue-warriors2-1632823609251.png" class="asset" transform="matrix(0.05115469917654992,0,0,0.051154699176549905,272.0317077636719,228.25514602661133)"></image><text fill="#ffdd00" font-family="Antilles" font-size="19" x="194.13280818724536" y="165.95312200672404" transform="matrix(1,0,0,0.9999999999999999,-46.933624267578125,116.4187316894531)" svgjs:data="{&quot;leading&quot;:&quot;1.3&quot;}"><tspan dy="0" x="194.13280818724536" svgjs:data="{&quot;newLined&quot;:true}">Player</tspan></text><image width="760" height="754" xlink:href="https://lct-designs.s3.us-west-1.amazonaws.com/assets/libs/blue-warriors2-1632823609251.png" class="asset" transform="matrix(0.05115478113293648,0,0,0.05115478113293647,151.6197967529297,228.25512886047363)"></image><text fill="#ffdd00" font-family="Antilles" font-size="19" x="194.13280818724536" y="165.95312200672404" transform="matrix(1,0,0,0.9999999999999999,-171.35009765625,116.4187316894531)" svgjs:data="{&quot;leading&quot;:&quot;1.3&quot;}"><tspan dy="0" x="194.13280818724536" svgjs:data="{&quot;newLined&quot;:true}">Player</tspan></text><image width="760" height="754" xlink:href="https://lct-designs.s3.us-west-1.amazonaws.com/assets/libs/blue-warriors2-1632823609251.png" class="asset" transform="matrix(0.05115476995706559,0,0,0.05115476995706558,27.20332336425782,228.25514030456543)"></image><text fill="#0b35b1" font-family="Antilles" font-size="14" x="178.22655818724536" y="157.07812200672404" transform="matrix(1,0,0,0.9999999999999999,197.36839294433597,-131.57894897460938)" svgjs:data="{&quot;leading&quot;:&quot;1.3&quot;}"><tspan dy="0" x="178.22655818724536" svgjs:data="{&quot;newLined&quot;:true}">Coach: Coach's name</tspan></text><text fill="#0b35b1" font-family="Antilles" font-size="14" x="178.49218318724536" y="155.35937200672404" transform="matrix(1,0,0,0.9999999999999999,158.466796875,129.86268615722656)" svgjs:data="{&quot;leading&quot;:&quot;1.3&quot;}"><tspan dy="0" x="178.49218318724536" svgjs:data="{&quot;newLined&quot;:true}">Team mom: Team mom's name</tspan></text><g class="mask" style="pointer-events: none;"><path fill="#777777" enable-background="new    " d="M-1684.9-1014.6v2330.1h3870.8v-2330.1H-1684.9z M500.5,300.5H0.5V0.5h500
	V300.5z"></path></g></svg>