<svg xmlns="http://www.w3.org/2000/svg" version="1.1" xmlns:xlink="http://www.w3.org/1999/xlink" xmlns:svgjs="http://svgjs.dev/svgjs" width="100%" height="100%" viewBox="1 1 499 299" preserveAspectRatio="none" data-info="{&quot;_id&quot;:1,&quot;name&quot;:&quot;HEM &amp; GROMMETS&quot;,&quot;price&quot;:&quot;95.00&quot;,&quot;sale_price&quot;:&quot;89.99&quot;,&quot;cover&quot;:{&quot;key&quot;:&quot;assets/models/hem-1628062436886-1630830942566.png&quot;,&quot;url&quot;:&quot;https://lct-designs.s3.us-west-1.amazonaws.com/assets/models/hem-1628062436886-1630830942566.png&quot;},&quot;back&quot;:{&quot;key&quot;:&quot;assets/models/hem-1630831057346.svg&quot;,&quot;url&quot;:&quot;https://lct-designs.s3.us-west-1.amazonaws.com/assets/models/hem-1630831057346.svg&quot;},&quot;mask&quot;:{&quot;key&quot;:&quot;assets/models/hem.mask-1630831063496.svg&quot;,&quot;url&quot;:&quot;https://lct-designs.s3.us-west-1.amazonaws.com/assets/models/hem.mask-1630831063496.svg&quot;},&quot;information&quot;:&quot;Size 3'x5'&quot;,&quot;type&quot;:&quot;hem-grommet&quot;,&quot;pos&quot;:&quot;1&quot;,&quot;accessories&quot;:&quot;2,3&quot;,&quot;width&quot;:&quot;60&quot;,&quot;height&quot;:&quot;36&quot;}" style="background-color: white;"><g class="model" style="pointer-events: none;"><rect x="0.5" y="0.5" fill="none" stroke="#000000" stroke-miterlimit="10" width="500" height="300"></rect></g><image width="760" height="455" xlink:href="https://lct-designs.s3.us-west-1.amazonaws.com/assets/libs/bear2-soflball-baner-1639965588010.png" class="asset background locked" transform="matrix(0.6593406593406593,0,0,0.6593406593406593,0,0)"></image><image width="760" height="504" xlink:href="https://lct-designs.s3.us-west-1.amazonaws.com/assets/libs/bear2-soflball-banner-1639966233828.png" class="asset" transform="matrix(0.23068517446517947,0,0,0.23068517446517944,309.4853515625,13.409229278564439)"></image><image width="760" height="666" xlink:href="https://lct-designs.s3.us-west-1.amazonaws.com/assets/libs/bear2-soflball-banner-1639966070671.png" class="asset" transform="matrix(0.21718460321426394,0,0,0.21718460321426392,306.9626770019531,144.02549743652344)"></image><image width="699" height="760" xlink:href="https://lct-designs.s3.us-west-1.amazonaws.com/assets/libs/bear2-soflball-banner-1639966281995.png" class="asset" transform="matrix(0.05722512304782868,0,0,0.057225123047828674,26.99088668823243,43.4903564453125)"></image><text fill="#000000" font-family="Algerian" font-size="13" x="174.04230455889547" y="167.40227956240332" transform="matrix(1.0000000000000002,0,0,1,-151.8667907714844,-127.14675140380861)" svgjs:data="{&quot;leading&quot;:&quot;1.3&quot;}"><tspan dy="0" x="174.04230455889547" svgjs:data="{&quot;newLined&quot;:true}">PLAYER</tspan></text><image width="699" height="760" xlink:href="https://lct-designs.s3.us-west-1.amazonaws.com/assets/libs/bear2-soflball-banner-1639966281995.png" class="asset" transform="matrix(0.05722514912486077,0,0,0.057225149124860764,102.0766525268555,43.4903564453125)"></image><text fill="#000000" font-family="Algerian" font-size="13" x="174.04230455889547" y="167.40227956240332" transform="matrix(1.0000000000000002,0,0,1,-76.7810287475586,-127.14675140380861)" svgjs:data="{&quot;leading&quot;:&quot;1.3&quot;}"><tspan dy="0" x="174.04230455889547" svgjs:data="{&quot;newLined&quot;:true}">PLAYER</tspan></text><image width="699" height="760" xlink:href="https://lct-designs.s3.us-west-1.amazonaws.com/assets/libs/bear2-soflball-banner-1639966281995.png" class="asset" transform="matrix(0.057225164026021964,0,0,0.05722516402602196,178.17149353027344,42.98580932617186)"></image><text fill="#000000" font-family="Algerian" font-size="13" x="174.04230455889547" y="167.40227956240332" transform="matrix(1.0000000000000002,0,0,1,-0.686187744140625,-127.65129852294922)" svgjs:data="{&quot;leading&quot;:&quot;1.3&quot;}"><tspan dy="0" x="174.04230455889547" svgjs:data="{&quot;newLined&quot;:true}">PLAYER</tspan></text><image width="699" height="760" xlink:href="https://lct-designs.s3.us-west-1.amazonaws.com/assets/libs/bear2-soflball-banner-1639966281995.png" class="asset" transform="matrix(0.05722517147660256,0,0,0.057225171476602554,251.23913574218756,42.98580932617186)"></image><text fill="#000000" font-family="Algerian" font-size="13" x="174.04230455889547" y="167.40227956240332" transform="matrix(1.0000000000000002,0,0,1,72.38143920898439,-127.65129852294922)" svgjs:data="{&quot;leading&quot;:&quot;1.3&quot;}"><tspan dy="0" x="174.04230455889547" svgjs:data="{&quot;newLined&quot;:true}">PLAYER</tspan></text><image width="699" height="760" xlink:href="https://lct-designs.s3.us-west-1.amazonaws.com/assets/libs/bear2-soflball-banner-1639966281995.png" class="asset" transform="matrix(0.05722513049840928,0,0,0.05722513049840927,25.891002655029297,126.23664855957031)"></image><text fill="#000000" font-family="Algerian" font-size="13" x="174.04230455889547" y="167.40227956240332" transform="matrix(1.0000000000000002,0,0,1,-152.96667480468753,-44.40045166015626)" svgjs:data="{&quot;leading&quot;:&quot;1.3&quot;}"><tspan dy="0" x="174.04230455889547" svgjs:data="{&quot;newLined&quot;:true}">PLAYER</tspan></text><image width="699" height="760" xlink:href="https://lct-designs.s3.us-west-1.amazonaws.com/assets/libs/bear2-soflball-banner-1639966281995.png" class="asset" transform="matrix(0.05722515657544137,0,0,0.05722515657544136,100.97676849365236,126.23664855957031)"></image><text fill="#000000" font-family="Algerian" font-size="13" x="174.04230455889547" y="167.40227956240332" transform="matrix(1.0000000000000002,0,0,1,-77.88091278076172,-44.40045166015626)" svgjs:data="{&quot;leading&quot;:&quot;1.3&quot;}"><tspan dy="0" x="174.04230455889547" svgjs:data="{&quot;newLined&quot;:true}">PLAYER</tspan></text><image width="699" height="760" xlink:href="https://lct-designs.s3.us-west-1.amazonaws.com/assets/libs/bear2-soflball-banner-1639966281995.png" class="asset" transform="matrix(0.05722517147660256,0,0,0.057225171476602554,177.0716094970703,125.73211669921875)"></image><text fill="#000000" font-family="Algerian" font-size="13" x="174.04230455889547" y="167.40227956240332" transform="matrix(1.0000000000000002,0,0,1,-1.78607177734375,-44.90499877929688)" svgjs:data="{&quot;leading&quot;:&quot;1.3&quot;}"><tspan dy="0" x="174.04230455889547" svgjs:data="{&quot;newLined&quot;:true}">PLAYER</tspan></text><image width="699" height="760" xlink:href="https://lct-designs.s3.us-west-1.amazonaws.com/assets/libs/bear2-soflball-banner-1639966281995.png" class="asset" transform="matrix(0.05722517892718316,0,0,0.05722517892718315,250.13925170898438,125.73211669921875)"></image><text fill="#000000" font-family="Algerian" font-size="13" x="174.04230455889547" y="167.40227956240332" transform="matrix(1.0000000000000002,0,0,1,71.28155517578128,-44.90499877929688)" svgjs:data="{&quot;leading&quot;:&quot;1.3&quot;}"><tspan dy="0" x="174.04230455889547" svgjs:data="{&quot;newLined&quot;:true}">PLAYER</tspan></text><image width="699" height="760" xlink:href="https://lct-designs.s3.us-west-1.amazonaws.com/assets/libs/bear2-soflball-banner-1639966281995.png" class="asset" transform="matrix(0.057225137948989875,0,0,0.05722513794898987,25.29563522338868,209.48748779296872)"></image><text fill="#000000" font-family="Algerian" font-size="13" x="174.04230455889547" y="167.40227956240332" transform="matrix(1.0000000000000002,0,0,1,-153.56204223632815,38.85038757324219)" svgjs:data="{&quot;leading&quot;:&quot;1.3&quot;}"><tspan dy="0" x="174.04230455889547" svgjs:data="{&quot;newLined&quot;:true}">PLAYER</tspan></text><image width="699" height="760" xlink:href="https://lct-designs.s3.us-west-1.amazonaws.com/assets/libs/bear2-soflball-banner-1639966281995.png" class="asset" transform="matrix(0.057225164026021964,0,0,0.05722516402602196,100.38140106201172,209.48748779296872)"></image><text fill="#000000" font-family="Algerian" font-size="13" x="174.04230455889547" y="167.40227956240332" transform="matrix(1.0000000000000002,0,0,1,-78.47628021240236,38.85038757324219)" svgjs:data="{&quot;leading&quot;:&quot;1.3&quot;}"><tspan dy="0" x="174.04230455889547" svgjs:data="{&quot;newLined&quot;:true}">PLAYER</tspan></text><image width="699" height="760" xlink:href="https://lct-designs.s3.us-west-1.amazonaws.com/assets/libs/bear2-soflball-banner-1639966281995.png" class="asset" transform="matrix(0.05722517892718316,0,0,0.05722517892718315,176.4762420654297,208.98295593261722)"></image><text fill="#000000" font-family="Algerian" font-size="13" x="174.04230455889547" y="167.40227956240332" transform="matrix(1.0000000000000002,0,0,1,-2.381439208984375,38.34584045410155)" svgjs:data="{&quot;leading&quot;:&quot;1.3&quot;}"><tspan dy="0" x="174.04230455889547" svgjs:data="{&quot;newLined&quot;:true}">PLAYER</tspan></text><image width="699" height="760" xlink:href="https://lct-designs.s3.us-west-1.amazonaws.com/assets/libs/bear2-soflball-banner-1639966281995.png" class="asset" transform="matrix(0.05722518637776375,0,0,0.05722518637776375,249.54388427734375,208.98295593261722)"></image><text fill="#000000" font-family="Algerian" font-size="13" x="174.04230455889547" y="167.40227956240332" transform="matrix(1.0000000000000002,0,0,1,70.68618774414064,38.34584045410155)" svgjs:data="{&quot;leading&quot;:&quot;1.3&quot;}"><tspan dy="0" x="174.04230455889547" svgjs:data="{&quot;newLined&quot;:true}">PLAYER</tspan></text><text fill="#000000" font-family="Algerian" font-size="13" x="181.56224779620015" y="154.7886359161631" stroke-opacity="1" stroke-width="0" stroke="#ffffff" transform="matrix(1.0000000000000002,0,0,1,-80.22200775146484,112.51478576660156)" svgjs:data="{&quot;leading&quot;:&quot;1.3&quot;}"><tspan dy="0" x="181.56224779620015" svgjs:data="{&quot;newLined&quot;:true}">COACH: COACH'S NAME</tspan></text><text fill="#000000" font-family="Algerian" font-size="13" x="157.73689089550817" y="154.7886359161631" transform="matrix(1.0000000000000002,0,0,1,-80.22200012207031,126.13766479492188)" svgjs:data="{&quot;leading&quot;:&quot;1.3&quot;}"><tspan dy="0" x="157.73689089550817" svgjs:data="{&quot;newLined&quot;:true}">TEAM MOM: TEAM MOM'S NAME</tspan></text><g class="mask" style="pointer-events: none;"><path fill="#777777" enable-background="new    " d="M-1684.9-1014.6v2330.1h3870.8v-2330.1H-1684.9z M500.5,300.5H0.5V0.5h500
	V300.5z"></path></g></svg>