<svg xmlns="http://www.w3.org/2000/svg" version="1.1" xmlns:xlink="http://www.w3.org/1999/xlink" xmlns:svgjs="http://svgjs.dev/svgjs" width="100%" height="100%" viewBox="1 1 499 299" preserveAspectRatio="none" data-info="{&quot;_id&quot;:1,&quot;name&quot;:&quot;HEM &amp; GROMMETS&quot;,&quot;price&quot;:&quot;95.00&quot;,&quot;sale_price&quot;:&quot;89.99&quot;,&quot;cover&quot;:{&quot;key&quot;:&quot;assets/models/hem-1628062436886-1630830942566.png&quot;,&quot;url&quot;:&quot;https://lct-designs.s3.us-west-1.amazonaws.com/assets/models/hem-1628062436886-1630830942566.png&quot;},&quot;back&quot;:{&quot;key&quot;:&quot;assets/models/hem-1630831057346.svg&quot;,&quot;url&quot;:&quot;https://lct-designs.s3.us-west-1.amazonaws.com/assets/models/hem-1630831057346.svg&quot;},&quot;mask&quot;:{&quot;key&quot;:&quot;assets/models/hem.mask-1630831063496.svg&quot;,&quot;url&quot;:&quot;https://lct-designs.s3.us-west-1.amazonaws.com/assets/models/hem.mask-1630831063496.svg&quot;},&quot;information&quot;:&quot;Size 3'x5'&quot;,&quot;type&quot;:&quot;hem-grommet&quot;,&quot;pos&quot;:&quot;1&quot;,&quot;accessories&quot;:&quot;2,3&quot;,&quot;width&quot;:&quot;60&quot;,&quot;height&quot;:&quot;36&quot;}" style="background-color: white;"><g class="model" style="pointer-events: none;"><rect x="0.5" y="0.5" fill="none" stroke="#000000" stroke-miterlimit="10" width="500" height="300"></rect></g><image width="760" height="455" xlink:href="https://lct-designs.s3.us-west-1.amazonaws.com/assets/libs/blue-devil-2-soflball-baner-1639965639196.png" class="asset background locked" transform="matrix(0.6593406593406593,0,0,0.6593406593406593,0,0)"></image><image width="760" height="644" xlink:href="https://lct-designs.s3.us-west-1.amazonaws.com/assets/libs/blue-devil-2-soflball-banner-1639966233829.png" class="asset" transform="matrix(0.2561476826667786,0,0,0.25614768266677856,279.71746826171875,117.21804046630857)"></image><image width="760" height="678" xlink:href="https://lct-designs.s3.us-west-1.amazonaws.com/assets/libs/blue-devil-2-soflball-banner-1639966070672.png" class="asset" transform="matrix(0.14869470894336703,0,0,0.148694708943367,21.39251708984375,28.703041076660156)"></image><text fill="#ffffff" font-family="American Captain" font-size="12" x="194.66439638867223" y="155.04090852205908" transform="matrix(1.0000000000000002,0,0,1,171.54388427734375,-107.97380828857423)" svgjs:data="{&quot;leading&quot;:&quot;1.3&quot;}"><tspan dy="0" x="194.66439638867223" svgjs:data="{&quot;newLined&quot;:true}">TEAM MOM: TEAM MOM'S NAME</tspan></text><text fill="#ffffff" font-family="American Captain" font-size="12" x="209.9136729670986" y="155.04090852205908" transform="matrix(1.0000000000000002,0,0,1,187.29766845703128,-123.61488342285156)" svgjs:data="{&quot;leading&quot;:&quot;1.3&quot;}"><tspan dy="0" x="209.9136729670986" svgjs:data="{&quot;newLined&quot;:true}">COACH: COACH'S NAME</tspan></text><text fill="#ffffff" font-family="American Captain" font-size="15" x="236.0388656093105" y="155.04090852205908" transform="matrix(1.0000000000000002,0,0,1,-42.84228515625,124.11944580078122)" svgjs:data="{&quot;leading&quot;:&quot;1.3&quot;}"><tspan dy="0" x="236.0388656093105" svgjs:data="{&quot;newLined&quot;:true}">PLAYER</tspan></text><image width="729" height="760" xlink:href="https://lct-designs.s3.us-west-1.amazonaws.com/assets/libs/blue-devil-2-soflball-banner-1639966281996.png" class="asset" transform="matrix(0.04925861582159997,0,0,0.04925861582159996,193.1266021728516,226.64221191406247)"></image><text fill="#ffffff" font-family="American Captain" font-size="15" x="236.0388656093105" y="155.04090852205908" transform="matrix(1.0000000000000002,0,0,1,-41.74237060546875,50.455055236816406)" svgjs:data="{&quot;leading&quot;:&quot;1.3&quot;}"><tspan dy="0" x="236.0388656093105" svgjs:data="{&quot;newLined&quot;:true}">PLAYER</tspan></text><image width="729" height="760" xlink:href="https://lct-designs.s3.us-west-1.amazonaws.com/assets/libs/blue-devil-2-soflball-banner-1639966281996.png" class="asset" transform="matrix(0.04925861582159997,0,0,0.04925861582159996,194.22651672363284,152.47326660156247)"></image><image width="729" height="760" xlink:href="https://lct-designs.s3.us-west-1.amazonaws.com/assets/libs/blue-devil-2-soflball-banner-1639966281996.png" class="asset" transform="matrix(0.04925861582159997,0,0,0.04925861582159996,42.036773681640625,152.47326660156247)"></image><text fill="#ffffff" font-family="American Captain" font-size="15" x="236.0388656093105" y="155.04090852205908" transform="matrix(1.0000000000000002,0,0,1,-193.9320983886719,50.455055236816406)" svgjs:data="{&quot;leading&quot;:&quot;1.3&quot;}"><tspan dy="0" x="236.0388656093105" svgjs:data="{&quot;newLined&quot;:true}">PLAYER</tspan></text><image width="729" height="760" xlink:href="https://lct-designs.s3.us-west-1.amazonaws.com/assets/libs/blue-devil-2-soflball-banner-1639966281996.png" class="asset" transform="matrix(0.04925861582159997,0,0,0.04925861582159996,118.63616943359378,152.47326660156247)"></image><text fill="#ffffff" font-family="American Captain" font-size="15" x="236.0388656093105" y="155.04090852205908" transform="matrix(1.0000000000000002,0,0,1,-117.33270263671875,50.455055236816406)" svgjs:data="{&quot;leading&quot;:&quot;1.3&quot;}"><tspan dy="0" x="236.0388656093105" svgjs:data="{&quot;newLined&quot;:true}">PLAYER</tspan></text><image width="729" height="760" xlink:href="https://lct-designs.s3.us-west-1.amazonaws.com/assets/libs/blue-devil-2-soflball-banner-1639966281996.png" class="asset" transform="matrix(0.04925861582159997,0,0,0.04925861582159996,40.936859130859375,226.64221191406247)"></image><text fill="#ffffff" font-family="American Captain" font-size="15" x="236.0388656093105" y="155.04090852205908" transform="matrix(1.0000000000000002,0,0,1,-195.03201293945315,124.62399291992188)" svgjs:data="{&quot;leading&quot;:&quot;1.3&quot;}"><tspan dy="0" x="236.0388656093105" svgjs:data="{&quot;newLined&quot;:true}">PLAYER</tspan></text><image width="729" height="760" xlink:href="https://lct-designs.s3.us-west-1.amazonaws.com/assets/libs/blue-devil-2-soflball-banner-1639966281996.png" class="asset" transform="matrix(0.04925861582159997,0,0,0.04925861582159996,117.53625488281253,226.64221191406247)"></image><text fill="#ffffff" font-family="American Captain" font-size="15" x="236.0388656093105" y="155.04090852205908" transform="matrix(1.0000000000000002,0,0,1,-118.43261718750001,124.62399291992188)" svgjs:data="{&quot;leading&quot;:&quot;1.3&quot;}"><tspan dy="0" x="236.0388656093105" svgjs:data="{&quot;newLined&quot;:true}">PLAYER</tspan></text><text fill="#ffffff" font-family="American Captain" font-size="15" x="236.0388656093105" y="155.04090852205908" transform="matrix(1.0000000000000002,0,0,1,72.87919628620149,-83.75540161132812)" svgjs:data="{&quot;leading&quot;:&quot;1.3&quot;}"><tspan dy="0" x="236.0388656093105" svgjs:data="{&quot;newLined&quot;:true}">PLAYER</tspan></text><text fill="#ffffff" font-family="American Captain" font-size="15" x="236.0388656093105" y="155.04090852205908" transform="matrix(1.0000000000000002,0,0,1,71.77928173542024,-10.091011047363295)" svgjs:data="{&quot;leading&quot;:&quot;1.3&quot;}"><tspan dy="0" x="236.0388656093105" svgjs:data="{&quot;newLined&quot;:true}">PLAYER</tspan></text><image width="729" height="760" xlink:href="https://lct-designs.s3.us-west-1.amazonaws.com/assets/libs/blue-devil-2-soflball-banner-1639966281996.png" class="asset" transform="matrix(0.04925861582159997,0,0,0.04925861582159996,156.65834057331085,18.26281356811522)"></image><text fill="#ffffff" font-family="American Captain" font-size="15" x="236.0388656093105" y="155.04090852205908" transform="matrix(1.0000000000000002,0,0,1,-79.31053149700165,-83.75540161132812)" svgjs:data="{&quot;leading&quot;:&quot;1.3&quot;}"><tspan dy="0" x="236.0388656093105" svgjs:data="{&quot;newLined&quot;:true}">PLAYER</tspan></text><image width="729" height="760" xlink:href="https://lct-designs.s3.us-west-1.amazonaws.com/assets/libs/blue-devil-2-soflball-banner-1639966281996.png" class="asset" transform="matrix(0.04925861582159997,0,0,0.04925861582159996,233.257736325264,18.26281356811522)"></image><text fill="#ffffff" font-family="American Captain" font-size="15" x="236.0388656093105" y="155.04090852205908" transform="matrix(1.0000000000000002,0,0,1,-2.7111357450485247,-83.75540161132812)" svgjs:data="{&quot;leading&quot;:&quot;1.3&quot;}"><tspan dy="0" x="236.0388656093105" svgjs:data="{&quot;newLined&quot;:true}">PLAYER</tspan></text><image width="729" height="760" xlink:href="https://lct-designs.s3.us-west-1.amazonaws.com/assets/libs/blue-devil-2-soflball-banner-1639966281996.png" class="asset" transform="matrix(0.04925861582159997,0,0,0.04925861582159996,155.55842602252963,92.43175506591797)"></image><text fill="#ffffff" font-family="American Captain" font-size="15" x="236.0388656093105" y="155.04090852205908" transform="matrix(1.0000000000000002,0,0,1,-80.41044604778291,-9.58646392822267)" svgjs:data="{&quot;leading&quot;:&quot;1.3&quot;}"><tspan dy="0" x="236.0388656093105" svgjs:data="{&quot;newLined&quot;:true}">PLAYER</tspan></text><image width="729" height="760" xlink:href="https://lct-designs.s3.us-west-1.amazonaws.com/assets/libs/blue-devil-2-soflball-banner-1639966281996.png" class="asset" transform="matrix(0.04925861582159997,0,0,0.04925861582159996,232.15782177448276,92.43175506591797)"></image><text fill="#ffffff" font-family="American Captain" font-size="15" x="236.0388656093105" y="155.04090852205908" transform="matrix(1.0000000000000002,0,0,1,-3.811050295829773,-9.58646392822267)" svgjs:data="{&quot;leading&quot;:&quot;1.3&quot;}"><tspan dy="0" x="236.0388656093105" svgjs:data="{&quot;newLined&quot;:true}">PLAYER</tspan></text><image width="729" height="760" xlink:href="https://lct-designs.s3.us-west-1.amazonaws.com/assets/libs/blue-devil-2-soflball-banner-1639966281996.png" class="asset" transform="matrix(0.04925861582159997,0,0,0.04925861582159996,307.7481690645218,92.43175506591797)"></image><image width="729" height="760" xlink:href="https://lct-designs.s3.us-west-1.amazonaws.com/assets/libs/blue-devil-2-soflball-banner-1639966281996.png" class="asset" transform="matrix(0.04925861582159997,0,0,0.04925861582159996,308.84808361530304,18.26281356811522)"></image><g class="mask" style="pointer-events: none;"><path fill="#777777" enable-background="new    " d="M-1684.9-1014.6v2330.1h3870.8v-2330.1H-1684.9z M500.5,300.5H0.5V0.5h500
	V300.5z"></path></g></svg>