<svg xmlns="http://www.w3.org/2000/svg" version="1.1" xmlns:xlink="http://www.w3.org/1999/xlink" xmlns:svgjs="http://svgjs.dev/svgjs" width="100%" height="100%" viewBox="1 1 499 299" preserveAspectRatio="none" data-info="{&quot;_id&quot;:1,&quot;name&quot;:&quot;HEM &amp; GROMMETS&quot;,&quot;price&quot;:&quot;95.00&quot;,&quot;sale_price&quot;:&quot;89.99&quot;,&quot;cover&quot;:{&quot;key&quot;:&quot;assets/models/hem-1628062436886-1630830942566.png&quot;,&quot;url&quot;:&quot;https://lct-designs.s3.us-west-1.amazonaws.com/assets/models/hem-1628062436886-1630830942566.png&quot;},&quot;back&quot;:{&quot;key&quot;:&quot;assets/models/hem-1630831057346.svg&quot;,&quot;url&quot;:&quot;https://lct-designs.s3.us-west-1.amazonaws.com/assets/models/hem-1630831057346.svg&quot;},&quot;mask&quot;:{&quot;key&quot;:&quot;assets/models/hem.mask-1630831063496.svg&quot;,&quot;url&quot;:&quot;https://lct-designs.s3.us-west-1.amazonaws.com/assets/models/hem.mask-1630831063496.svg&quot;},&quot;information&quot;:&quot;Size 3'x5'&quot;,&quot;type&quot;:&quot;hem-grommet&quot;,&quot;pos&quot;:&quot;1&quot;,&quot;accessories&quot;:&quot;2,3&quot;,&quot;width&quot;:&quot;60&quot;,&quot;height&quot;:&quot;36&quot;}" style="background-color: white;"><g class="model" style="pointer-events: none;"><rect x="0.5" y="0.5" fill="none" stroke="#000000" stroke-miterlimit="10" width="500" height="300"></rect></g><image width="760" height="457" xlink:href="https://lct-designs.s3.us-west-1.amazonaws.com/assets/libs/blueforce-soflball-baner-1639965671796.png" class="asset background locked" transform="matrix(0.6578088998794555,0,0,0.6564552187919618,0,0)"></image><image width="760" height="352" xlink:href="https://lct-designs.s3.us-west-1.amazonaws.com/assets/libs/blueforce-soflball-banner-1639966233830.png" class="asset" transform="matrix(0.31717172265052795,0,0,0.3171717226505279,140.3292236328125,15.214432716369629)"></image><image width="760" height="561" xlink:href="https://lct-designs.s3.us-west-1.amazonaws.com/assets/libs/blueforce-soflball-banner-1639966070672.png" class="asset" transform="matrix(0.2883758842945099,0,0,0.28837588429450983,9.156362533569336,121.83712768554685)"></image><image width="760" height="721" xlink:href="https://lct-designs.s3.us-west-1.amazonaws.com/assets/libs/blueforce-soflball-banner-1639966281997.png" class="asset" transform="matrix(0.04596347361803055,0,0,0.04596347361803055,22.4057559967041,27.97586822509767)"></image><text fill="#000000" font-family="Freshman" font-size="9" x="223.05150927676905" y="154.6152555626081" transform="matrix(0.9999999999999999,0,0,1,-203.70370483398438,-129.63211822509766)" svgjs:data="{&quot;leading&quot;:&quot;1.3&quot;}"><tspan dy="0" x="223.05150927676905" svgjs:data="{&quot;newLined&quot;:true}">PLAYER</tspan></text><text fill="#000000" font-family="Freshman" font-size="9" x="223.05150927676905" y="154.6152555626081" transform="matrix(0.9999999999999999,0,0,1,-123.23045349121092,-130.14652639627457)" svgjs:data="{&quot;leading&quot;:&quot;1.3&quot;}"><tspan dy="0" x="223.05150927676905" svgjs:data="{&quot;newLined&quot;:true}">PLAYER</tspan></text><image width="760" height="721" xlink:href="https://lct-designs.s3.us-west-1.amazonaws.com/assets/libs/blueforce-soflball-banner-1639966281997.png" class="asset" transform="matrix(0.04596347361803055,0,0,0.04596347361803055,102.8790054321289,27.461452424526215)"></image><text fill="#000000" font-family="Freshman" font-size="9" x="223.05150927676905" y="154.6152555626081" transform="matrix(0.9999999999999999,0,0,1,-164.67078399658203,-85.9069938659668)" svgjs:data="{&quot;leading&quot;:&quot;1.3&quot;}"><tspan dy="0" x="223.05150927676905" svgjs:data="{&quot;newLined&quot;:true}">PLAYER</tspan></text><image width="760" height="721" xlink:href="https://lct-designs.s3.us-west-1.amazonaws.com/assets/libs/blueforce-soflball-banner-1639966281997.png" class="asset" transform="matrix(0.04596347361803055,0,0,0.04596347361803055,61.4386749267578,71.70098876953128)"></image><text fill="#000000" font-family="Freshman" font-size="9" x="223.05150927676905" y="154.6152555626081" transform="matrix(0.9999999999999999,0,0,1,-14.753082275390623,-1.5432205200195312)" svgjs:data="{&quot;leading&quot;:&quot;1.3&quot;}"><tspan dy="0" x="223.05150927676905" svgjs:data="{&quot;newLined&quot;:true}">PLAYER</tspan></text><image width="760" height="721" xlink:href="https://lct-designs.s3.us-west-1.amazonaws.com/assets/libs/blueforce-soflball-banner-1639966281997.png" class="asset" transform="matrix(0.04596347361803055,0,0,0.04596347361803055,211.3563690185547,156.06475830078128)"></image><text fill="#000000" font-family="Freshman" font-size="9" x="223.05150927676905" y="154.6152555626081" transform="matrix(0.9999999999999999,0,0,1,65.20578002929686,-4.115287780761719)" svgjs:data="{&quot;leading&quot;:&quot;1.3&quot;}"><tspan dy="0" x="223.05150927676905" svgjs:data="{&quot;newLined&quot;:true}">PLAYER</tspan></text><image width="760" height="721" xlink:href="https://lct-designs.s3.us-west-1.amazonaws.com/assets/libs/blueforce-soflball-banner-1639966281997.png" class="asset" transform="matrix(0.04596347361803055,0,0,0.04596347361803055,291.3152313232422,153.4926910400391)"></image><text fill="#000000" font-family="Freshman" font-size="9" x="223.05150927676905" y="154.6152555626081" transform="matrix(0.9999999999999999,0,0,1,143.62139892578122,-11.317070007324219)" svgjs:data="{&quot;leading&quot;:&quot;1.3&quot;}"><tspan dy="0" x="223.05150927676905" svgjs:data="{&quot;newLined&quot;:true}">PLAYER</tspan></text><image width="760" height="721" xlink:href="https://lct-designs.s3.us-west-1.amazonaws.com/assets/libs/blueforce-soflball-banner-1639966281997.png" class="asset" transform="matrix(0.04596347361803055,0,0,0.04596347361803055,369.7308654785156,146.2909088134766)"></image><text fill="#000000" font-family="Freshman" font-size="9" x="223.05150927676905" y="154.6152555626081" transform="matrix(0.9999999999999999,0,0,1,26.563781738281243,61.729606628418)" svgjs:data="{&quot;leading&quot;:&quot;1.3&quot;}"><tspan dy="0" x="223.05150927676905" svgjs:data="{&quot;newLined&quot;:true}">PLAYER</tspan></text><image width="760" height="721" xlink:href="https://lct-designs.s3.us-west-1.amazonaws.com/assets/libs/blueforce-soflball-banner-1639966281997.png" class="asset" transform="matrix(0.04596347361803055,0,0,0.04596347361803055,252.67324829101557,219.33758544921878)"></image><text fill="#000000" font-family="Freshman" font-size="9" x="223.05150927676905" y="154.6152555626081" transform="matrix(0.9999999999999999,0,0,1,114.75308227539061,57.099891662597685)" svgjs:data="{&quot;leading&quot;:&quot;1.3&quot;}"><tspan dy="0" x="223.05150927676905" svgjs:data="{&quot;newLined&quot;:true}">PLAYER</tspan></text><image width="760" height="721" xlink:href="https://lct-designs.s3.us-west-1.amazonaws.com/assets/libs/blueforce-soflball-banner-1639966281997.png" class="asset" transform="matrix(0.04596347361803055,0,0,0.04596347361803055,340.86254882812494,214.70787048339847)"></image><text fill="#000000" font-family="Freshman" font-size="9" x="223.05150927676905" y="154.6152555626081" transform="matrix(0.9999999999999999,0,0,1,196.7695617675781,61.729606628418)" svgjs:data="{&quot;leading&quot;:&quot;1.3&quot;}"><tspan dy="0" x="223.05150927676905" svgjs:data="{&quot;newLined&quot;:true}">PLAYER</tspan></text><image width="760" height="721" xlink:href="https://lct-designs.s3.us-west-1.amazonaws.com/assets/libs/blueforce-soflball-banner-1639966281997.png" class="asset" transform="matrix(0.04596347361803055,0,0,0.04596347361803055,422.87902832031244,219.33758544921878)"></image><text fill="#000000" font-family="Freshman" font-size="9" x="223.05150927676905" y="154.6152555626081" transform="matrix(0.9999999999999999,0,0,1,215.51440429687497,1.0288467407226562)" svgjs:data="{&quot;leading&quot;:&quot;1.3&quot;}"><tspan dy="0" x="223.05150927676905" svgjs:data="{&quot;newLined&quot;:true}">PLAYER</tspan></text><image width="760" height="721" xlink:href="https://lct-designs.s3.us-west-1.amazonaws.com/assets/libs/blueforce-soflball-banner-1639966281997.png" class="asset" transform="matrix(0.04596347361803055,0,0,0.04596347361803055,441.62387084960926,158.63682556152347)"></image><text fill="#000000" font-family="Freshman" font-size="9" x="223.05150927676905" y="154.6152555626081" transform="matrix(0.9999999999999999,0,0,1,196.70782470703122,-70.98900604248047)" svgjs:data="{&quot;leading&quot;:&quot;1.3&quot;}"><tspan dy="0" x="223.05150927676905" svgjs:data="{&quot;newLined&quot;:true}">PLAYER</tspan></text><image width="760" height="721" xlink:href="https://lct-designs.s3.us-west-1.amazonaws.com/assets/libs/blueforce-soflball-banner-1639966281997.png" class="asset" transform="matrix(0.04596347361803055,0,0,0.04596347361803055,422.8172912597656,86.61897277832034)"></image><text fill="#000000" font-family="Freshman" font-size="9" x="194.3410982049917" y="153.58643981630073" transform="matrix(0.9999999999999999,0,0,1,147.11932373046872,-127.06005859375)" svgjs:data="{&quot;leading&quot;:&quot;1.3&quot;}"><tspan dy="0" x="194.3410982049917" svgjs:data="{&quot;newLined&quot;:true}">COACH: COACH'S NAME</tspan></text><text fill="#000000" font-family="Freshman" font-size="9" x="172.1170572198843" y="153.58643981630073" transform="matrix(0.9999999999999999,0,0,1,147.11932373046872,-111.62767028808594)" svgjs:data="{&quot;leading&quot;:&quot;1.3&quot;}"><tspan dy="0" x="172.1170572198843" svgjs:data="{&quot;newLined&quot;:true}">TEAM MOM: TEAM MOM'S NAME</tspan></text><g class="mask" style="pointer-events: none;"><path fill="#777777" enable-background="new    " d="M-1684.9-1014.6v2330.1h3870.8v-2330.1H-1684.9z M500.5,300.5H0.5V0.5h500
	V300.5z"></path></g></svg>