<svg xmlns="http://www.w3.org/2000/svg" version="1.1" xmlns:xlink="http://www.w3.org/1999/xlink" xmlns:svgjs="http://svgjs.dev/svgjs" width="100%" height="100%" viewBox="1 1 499 299" preserveAspectRatio="none" data-info="{&quot;_id&quot;:1,&quot;name&quot;:&quot;HEM &amp; GROMMETS&quot;,&quot;price&quot;:&quot;95.00&quot;,&quot;sale_price&quot;:&quot;89.99&quot;,&quot;cover&quot;:{&quot;key&quot;:&quot;assets/models/hem-1628062436886-1630830942566.png&quot;,&quot;url&quot;:&quot;https://lct-designs.s3.us-west-1.amazonaws.com/assets/models/hem-1628062436886-1630830942566.png&quot;},&quot;back&quot;:{&quot;key&quot;:&quot;assets/models/hem-1630831057346.svg&quot;,&quot;url&quot;:&quot;https://lct-designs.s3.us-west-1.amazonaws.com/assets/models/hem-1630831057346.svg&quot;},&quot;mask&quot;:{&quot;key&quot;:&quot;assets/models/hem.mask-1630831063496.svg&quot;,&quot;url&quot;:&quot;https://lct-designs.s3.us-west-1.amazonaws.com/assets/models/hem.mask-1630831063496.svg&quot;},&quot;information&quot;:&quot;Size 3'x5'&quot;,&quot;type&quot;:&quot;hem-grommet&quot;,&quot;pos&quot;:&quot;1&quot;,&quot;accessories&quot;:&quot;2,3&quot;,&quot;width&quot;:&quot;60&quot;,&quot;height&quot;:&quot;36&quot;}" style="background-color: white;"><g class="model" style="pointer-events: none;"><rect x="0.5" y="0.5" fill="none" stroke="#000000" stroke-miterlimit="10" width="500" height="300"></rect></g><image width="760" height="455" xlink:href="https://lct-designs.s3.us-west-1.amazonaws.com/assets/libs/tiger1-soflball-banner-1640681265567.png" class="asset background locked" transform="matrix(0.6593406593406593,0,0,0.6593406593406593,0,0)"></image><image width="759" height="545" xlink:href="https://lct-designs.s3.us-west-1.amazonaws.com/assets/libs/tiger1-soflball-banner-1640681369855.png" class="asset" transform="matrix(0.21428278088569644,0,0,0.2142827808856964,168.61924743652344,23.614570617675767)"></image><image width="760" height="428" xlink:href="https://lct-designs.s3.us-west-1.amazonaws.com/assets/libs/tiger1-soflball-banner-1640681353025.png" class="asset" transform="matrix(0.27943941950798035,0,0,0.27943941950798035,172.28033447265628,163.16088867187497)"></image><image width="760" height="644" xlink:href="https://lct-designs.s3.us-west-1.amazonaws.com/assets/libs/tiger1-soflball-banner-1640681386942.png" class="asset" transform="matrix(0.05523832142353058,0,0,0.05523832142353058,18.51464080810547,66.83580780029297)"></image><text fill="#000000" font-family="American Captain" font-size="11" x="196.88660304430056" y="166.97504225826566" transform="matrix(1,0,0,1,-163.70293045043945,-103.03546905517578)" svgjs:data="{&quot;leading&quot;:&quot;1.3&quot;}"><tspan dy="0" x="196.88660304430056" svgjs:data="{&quot;newLined&quot;:true}">PLAYER</tspan></text><image width="760" height="644" xlink:href="https://lct-designs.s3.us-west-1.amazonaws.com/assets/libs/tiger1-soflball-banner-1640681386942.png" class="asset" transform="matrix(0.05523832142353058,0,0,0.05523832142353058,68.26360321044922,108.677619934082)"></image><text fill="#000000" font-family="American Captain" font-size="11" x="196.88660304430056" y="166.97504225826566" transform="matrix(1,0,0,1,-113.95397186279297,-61.19365692138672)" svgjs:data="{&quot;leading&quot;:&quot;1.3&quot;}"><tspan dy="0" x="196.88660304430056" svgjs:data="{&quot;newLined&quot;:true}">PLAYER</tspan></text><image width="760" height="644" xlink:href="https://lct-designs.s3.us-west-1.amazonaws.com/assets/libs/tiger1-soflball-banner-1640681386942.png" class="asset" transform="matrix(0.05523832142353058,0,0,0.05523832142353058,24.393302917480476,166.21012878417966)"></image><text fill="#000000" font-family="American Captain" font-size="11" x="196.88660304430056" y="166.97504225826566" transform="matrix(1,0,0,1,-157.82427215576172,-3.6611557006835938)" svgjs:data="{&quot;leading&quot;:&quot;1.3&quot;}"><tspan dy="0" x="196.88660304430056" svgjs:data="{&quot;newLined&quot;:true}">PLAYER</tspan></text><image width="760" height="644" xlink:href="https://lct-designs.s3.us-west-1.amazonaws.com/assets/libs/tiger1-soflball-banner-1640681386942.png" class="asset" transform="matrix(0.05523832142353058,0,0,0.05523832142353058,117.02929687500003,157.31875610351562)"></image><text fill="#000000" font-family="American Captain" font-size="11" x="196.88660304430056" y="166.97504225826566" transform="matrix(1,0,0,1,-65.18827819824219,-12.55252838134767)" svgjs:data="{&quot;leading&quot;:&quot;1.3&quot;}"><tspan dy="0" x="196.88660304430056" svgjs:data="{&quot;newLined&quot;:true}">PLAYER</tspan></text><image width="760" height="644" xlink:href="https://lct-designs.s3.us-west-1.amazonaws.com/assets/libs/tiger1-soflball-banner-1640681386942.png" class="asset" transform="matrix(0.05523832142353058,0,0,0.05523832142353058,67.4058609008789,207.00592041015628)"></image><text fill="#000000" font-family="American Captain" font-size="11" x="196.88660304430056" y="166.97504225826566" transform="matrix(1,0,0,1,-114.81172180175781,37.13463592529297)" svgjs:data="{&quot;leading&quot;:&quot;1.3&quot;}"><tspan dy="0" x="196.88660304430056" svgjs:data="{&quot;newLined&quot;:true}">PLAYER</tspan></text><image width="760" height="644" xlink:href="https://lct-designs.s3.us-west-1.amazonaws.com/assets/libs/tiger1-soflball-banner-1640681386942.png" class="asset" transform="matrix(0.05523832142353058,0,0,0.05523832142353058,13.0753173828125,251.98587036132815)"></image><text fill="#000000" font-family="American Captain" font-size="11" x="196.88660304430056" y="166.97504225826566" transform="matrix(1,0,0,1,-169.14226531982422,82.11458587646484)" svgjs:data="{&quot;leading&quot;:&quot;1.3&quot;}"><tspan dy="0" x="196.88660304430056" svgjs:data="{&quot;newLined&quot;:true}">PLAYER</tspan></text><image width="760" height="644" xlink:href="https://lct-designs.s3.us-west-1.amazonaws.com/assets/libs/tiger1-soflball-banner-1640681386942.png" class="asset" transform="matrix(0.05523832142353058,0,0,0.05523832142353058,314.7908020019531,156.79574584960938)"></image><text fill="#000000" font-family="American Captain" font-size="11" x="196.88660304430056" y="166.97504225826566" transform="matrix(1,0,0,1,132.57322692871094,-13.075538635253906)" svgjs:data="{&quot;leading&quot;:&quot;1.3&quot;}"><tspan dy="0" x="196.88660304430056" svgjs:data="{&quot;newLined&quot;:true}">PLAYER</tspan></text><image width="760" height="644" xlink:href="https://lct-designs.s3.us-west-1.amazonaws.com/assets/libs/tiger1-soflball-banner-1640681386942.png" class="asset" transform="matrix(0.05523832142353058,0,0,0.05523832142353058,372.3849487304688,110.24672698974607)"></image><text fill="#000000" font-family="American Captain" font-size="11" x="196.88660304430056" y="166.97504225826566" transform="matrix(1,0,0,1,190.1673736572266,-59.62455749511719)" svgjs:data="{&quot;leading&quot;:&quot;1.3&quot;}"><tspan dy="0" x="196.88660304430056" svgjs:data="{&quot;newLined&quot;:true}">PLAYER</tspan></text><image width="760" height="644" xlink:href="https://lct-designs.s3.us-west-1.amazonaws.com/assets/libs/tiger1-soflball-banner-1640681386942.png" class="asset" transform="matrix(0.05523832142353058,0,0,0.05523832142353058,435.20922851562494,65.26676940917969)"></image><text fill="#000000" font-family="American Captain" font-size="11" x="196.88660304430056" y="166.97504225826566" transform="matrix(1,0,0,1,252.99165344238287,-104.6045150756836)" svgjs:data="{&quot;leading&quot;:&quot;1.3&quot;}"><tspan dy="0" x="196.88660304430056" svgjs:data="{&quot;newLined&quot;:true}">PLAYER</tspan></text><image width="760" height="644" xlink:href="https://lct-designs.s3.us-west-1.amazonaws.com/assets/libs/tiger1-soflball-banner-1640681386942.png" class="asset" transform="matrix(0.05523832142353058,0,0,0.05523832142353058,374.60250854492193,205.95986938476565)"></image><text fill="#000000" font-family="American Captain" font-size="11" x="196.88660304430056" y="166.97504225826566" transform="matrix(1,0,0,1,192.38491821289062,36.088584899902344)" svgjs:data="{&quot;leading&quot;:&quot;1.3&quot;}"><tspan dy="0" x="196.88660304430056" svgjs:data="{&quot;newLined&quot;:true}">PLAYER</tspan></text><image width="760" height="644" xlink:href="https://lct-designs.s3.us-west-1.amazonaws.com/assets/libs/tiger1-soflball-banner-1640681386942.png" class="asset" transform="matrix(0.05523832142353058,0,0,0.05523832142353058,439.5188293457031,246.23262023925778)"></image><text fill="#000000" font-family="American Captain" font-size="11" x="196.88660304430056" y="166.97504225826566" transform="matrix(1,0,0,1,257.3012390136719,76.3613357543945)" svgjs:data="{&quot;leading&quot;:&quot;1.3&quot;}"><tspan dy="0" x="196.88660304430056" svgjs:data="{&quot;newLined&quot;:true}">PLAYER</tspan></text><image width="760" height="644" xlink:href="https://lct-designs.s3.us-west-1.amazonaws.com/assets/libs/tiger1-soflball-banner-1640681386942.png" class="asset" transform="matrix(0.05523832142353058,0,0,0.05523832142353058,429.6443481445313,154.7036590576172)"></image><text fill="#000000" font-family="American Captain" font-size="11" x="196.88660304430056" y="166.97504225826566" transform="matrix(1,0,0,1,247.4267578125,-15.167625427246108)" svgjs:data="{&quot;leading&quot;:&quot;1.3&quot;}"><tspan dy="0" x="196.88660304430056" svgjs:data="{&quot;newLined&quot;:true}">PLAYER</tspan></text><text fill="#000000" font-family="American Captain" font-size="11" x="213.28248851182985" y="154.4226187810928" transform="matrix(1,0,0,1,-173.6401824951172,-127.61753845214844)" svgjs:data="{&quot;leading&quot;:&quot;1.3&quot;}"><tspan dy="0" x="213.28248851182985" svgjs:data="{&quot;newLined&quot;:true}">COACH: COACH'S NAME</tspan><tspan dy="19.5" x="213.28248851182985" svgjs:data="{&quot;newLined&quot;:true}"></tspan></text><text fill="#000000" font-family="American Captain" font-size="11" x="199.33320848825502" y="154.4226187810928" transform="matrix(1,0,0,1,173.1171569824219,-127.09451293945312)" svgjs:data="{&quot;leading&quot;:&quot;1.3&quot;}"><tspan dy="0" x="199.33320848825502" svgjs:data="{&quot;newLined&quot;:true}">TEAM MOM: TEAM MOM'S NAME</tspan><tspan dy="19.5" x="199.33320848825502" svgjs:data="{&quot;newLined&quot;:true}"></tspan></text><g class="mask" style="pointer-events: none;"><path fill="#777777" enable-background="new    " d="M-1684.9-1014.6v2330.1h3870.8v-2330.1H-1684.9z M500.5,300.5H0.5V0.5h500
	V300.5z"></path></g></svg>