<svg xmlns="http://www.w3.org/2000/svg" version="1.1" xmlns:xlink="http://www.w3.org/1999/xlink" xmlns:svgjs="http://svgjs.dev/svgjs" width="100%" height="100%" viewBox="1 1 499 299" preserveAspectRatio="none" data-info="{&quot;_id&quot;:1,&quot;name&quot;:&quot;HEM &amp; GROMMETS&quot;,&quot;price&quot;:&quot;95.00&quot;,&quot;sale_price&quot;:&quot;89.99&quot;,&quot;cover&quot;:{&quot;key&quot;:&quot;assets/models/hem-1628062436886-1630830942566.png&quot;,&quot;url&quot;:&quot;https://lct-designs.s3.us-west-1.amazonaws.com/assets/models/hem-1628062436886-1630830942566.png&quot;},&quot;back&quot;:{&quot;key&quot;:&quot;assets/models/hem-1630831057346.svg&quot;,&quot;url&quot;:&quot;https://lct-designs.s3.us-west-1.amazonaws.com/assets/models/hem-1630831057346.svg&quot;},&quot;mask&quot;:{&quot;key&quot;:&quot;assets/models/hem.mask-1630831063496.svg&quot;,&quot;url&quot;:&quot;https://lct-designs.s3.us-west-1.amazonaws.com/assets/models/hem.mask-1630831063496.svg&quot;},&quot;information&quot;:&quot;Size 3'x5'&quot;,&quot;type&quot;:&quot;hem-grommet&quot;,&quot;pos&quot;:&quot;1&quot;,&quot;accessories&quot;:&quot;2,3&quot;,&quot;width&quot;:&quot;60&quot;,&quot;height&quot;:&quot;36&quot;}" style="background-color: white;"><g class="model" style="pointer-events: none;"><rect x="0.5" y="0.5" fill="none" stroke="#000000" stroke-miterlimit="10" width="500" height="300"></rect></g><image width="760" height="455" xlink:href="https://lct-designs.s3.us-west-1.amazonaws.com/assets/libs/bird2-soflball-baner-1639965639194.png" class="asset background locked" transform="matrix(0.6593406593406593,0,0,0.6593406593406593,0,0)"></image><image width="602" height="760" xlink:href="https://lct-designs.s3.us-west-1.amazonaws.com/assets/libs/blueforce2-soflball-banner-1639966070672.png" class="asset" transform="matrix(-0.2744520306587219,0,0,0.27099236845970154,497.9830627441407,85.3680419921875)"></image><image width="760" height="215" xlink:href="https://lct-designs.s3.us-west-1.amazonaws.com/assets/libs/bird2-soflball-banner-1639966233828.png" class="asset" transform="matrix(0.3920557498931885,0,0,0.3920557498931885,36.04802322387696,105.58222198486328)"></image><image width="760" height="304" xlink:href="https://lct-designs.s3.us-west-1.amazonaws.com/assets/libs/bird2-soflball-banner-1639966281995.png" class="asset" transform="matrix(0.07515088468790054,0,0,0.07515088468790054,27.951560974121094,22.02616310119629)"></image><text fill="#000000" font-family="Cooper" font-size="10" x="222.0258155299648" y="155.04090899889624" transform="matrix(1.0000000000000002,0,0,1,-193.5697174072266,-99.90101623535156)" svgjs:data="{&quot;leading&quot;:&quot;1.3&quot;}"><tspan dy="0" x="222.0258155299648" svgjs:data="{&quot;newLined&quot;:true}">PLAYER</tspan></text><image width="760" height="304" xlink:href="https://lct-designs.s3.us-west-1.amazonaws.com/assets/libs/bird2-soflball-banner-1639966281995.png" class="asset" transform="matrix(0.07515093684196474,0,0,0.07515093684196472,107.48738861083986,21.01706504821776)"></image><text fill="#000000" font-family="Cooper" font-size="10" x="222.0258155299648" y="155.04090899889624" transform="matrix(1.0000000000000002,0,0,1,-114.03390502929688,-100.91011047363281)" svgjs:data="{&quot;leading&quot;:&quot;1.3&quot;}"><tspan dy="0" x="222.0258155299648" svgjs:data="{&quot;newLined&quot;:true}">PLAYER</tspan></text><image width="760" height="304" xlink:href="https://lct-designs.s3.us-west-1.amazonaws.com/assets/libs/bird2-soflball-banner-1639966281995.png" class="asset" transform="matrix(0.07515096664428712,0,0,0.07515096664428711,195.69123840332034,20.51251411437987)"></image><text fill="#000000" font-family="Cooper" font-size="10" x="222.0258155299648" y="155.04090899889624" transform="matrix(1.0000000000000002,0,0,1,-25.83006286621094,-101.41466522216798)" svgjs:data="{&quot;leading&quot;:&quot;1.3&quot;}"><tspan dy="0" x="222.0258155299648" svgjs:data="{&quot;newLined&quot;:true}">PLAYER</tspan></text><image width="760" height="304" xlink:href="https://lct-designs.s3.us-west-1.amazonaws.com/assets/libs/bird2-soflball-banner-1639966281995.png" class="asset" transform="matrix(0.07515090703964235,0,0,0.07515090703964233,51.574165344238295,67.94026947021484)"></image><text fill="#000000" font-family="Cooper" font-size="10" x="222.0258155299648" y="155.04090899889624" transform="matrix(1.0000000000000002,0,0,1,-169.9471130371094,-53.98691177368165)" svgjs:data="{&quot;leading&quot;:&quot;1.3&quot;}"><tspan dy="0" x="222.0258155299648" svgjs:data="{&quot;newLined&quot;:true}">PLAYER</tspan></text><image width="760" height="304" xlink:href="https://lct-designs.s3.us-west-1.amazonaws.com/assets/libs/bird2-soflball-banner-1639966281995.png" class="asset" transform="matrix(0.07515096664428712,0,0,0.07515096664428711,131.11000061035156,66.93116760253903)"></image><text fill="#000000" font-family="Cooper" font-size="10" x="222.0258155299648" y="155.04090899889624" transform="matrix(1.0000000000000002,0,0,1,-90.41130065917969,-54.996006011962905)" svgjs:data="{&quot;leading&quot;:&quot;1.3&quot;}"><tspan dy="0" x="222.0258155299648" svgjs:data="{&quot;newLined&quot;:true}">PLAYER</tspan></text><image width="760" height="304" xlink:href="https://lct-designs.s3.us-west-1.amazonaws.com/assets/libs/bird2-soflball-banner-1639966281995.png" class="asset" transform="matrix(0.07515099644660951,0,0,0.07515099644660951,219.3138427734375,66.42662048339844)"></image><text fill="#000000" font-family="Cooper" font-size="10" x="222.0258155299648" y="155.04090899889624" transform="matrix(1.0000000000000002,0,0,1,-2.2074584960937518,-55.500560760498054)" svgjs:data="{&quot;leading&quot;:&quot;1.3&quot;}"><tspan dy="0" x="222.0258155299648" svgjs:data="{&quot;newLined&quot;:true}">PLAYER</tspan></text><image width="760" height="304" xlink:href="https://lct-designs.s3.us-west-1.amazonaws.com/assets/libs/bird2-soflball-banner-1639966281995.png" class="asset" transform="matrix(0.07515090703964235,0,0,0.07515090703964233,32.906150817871094,201.64618873596194)"></image><text fill="#000000" font-family="Cooper" font-size="10" x="222.0258155299648" y="155.04090899889624" transform="matrix(1.0000000000000002,0,0,1,-188.6151275634766,79.71900939941406)" svgjs:data="{&quot;leading&quot;:&quot;1.3&quot;}"><tspan dy="0" x="222.0258155299648" svgjs:data="{&quot;newLined&quot;:true}">PLAYER</tspan></text><image width="760" height="304" xlink:href="https://lct-designs.s3.us-west-1.amazonaws.com/assets/libs/bird2-soflball-banner-1639966281995.png" class="asset" transform="matrix(0.07515096664428712,0,0,0.07515096664428711,112.44197845458987,200.63709068298337)"></image><text fill="#000000" font-family="Cooper" font-size="10" x="222.0258155299648" y="155.04090899889624" transform="matrix(1.0000000000000002,0,0,1,-109.0793151855469,78.70991516113278)" svgjs:data="{&quot;leading&quot;:&quot;1.3&quot;}"><tspan dy="0" x="222.0258155299648" svgjs:data="{&quot;newLined&quot;:true}">PLAYER</tspan></text><image width="760" height="304" xlink:href="https://lct-designs.s3.us-west-1.amazonaws.com/assets/libs/bird2-soflball-banner-1639966281995.png" class="asset" transform="matrix(0.07515099644660951,0,0,0.07515099644660951,200.6458282470703,200.13253974914548)"></image><text fill="#000000" font-family="Cooper" font-size="10" x="222.0258155299648" y="155.04090899889624" transform="matrix(1.0000000000000002,0,0,1,-20.875473022460938,78.20536041259766)" svgjs:data="{&quot;leading&quot;:&quot;1.3&quot;}"><tspan dy="0" x="222.0258155299648" svgjs:data="{&quot;newLined&quot;:true}">PLAYER</tspan></text><image width="760" height="304" xlink:href="https://lct-designs.s3.us-west-1.amazonaws.com/assets/libs/bird2-soflball-banner-1639966281995.png" class="asset" transform="matrix(0.07515093684196474,0,0,0.07515093684196472,56.528755187988295,247.5602951049805)"></image><text fill="#000000" font-family="Cooper" font-size="10" x="222.0258155299648" y="155.04090899889624" transform="matrix(1.0000000000000002,0,0,1,-164.9925231933594,125.63311386108398)" svgjs:data="{&quot;leading&quot;:&quot;1.3&quot;}"><tspan dy="0" x="222.0258155299648" svgjs:data="{&quot;newLined&quot;:true}">PLAYER</tspan></text><image width="760" height="304" xlink:href="https://lct-designs.s3.us-west-1.amazonaws.com/assets/libs/bird2-soflball-banner-1639966281995.png" class="asset" transform="matrix(0.07515099644660951,0,0,0.07515099644660951,136.06459045410156,246.55119323730472)"></image><text fill="#000000" font-family="Cooper" font-size="10" x="222.0258155299648" y="155.04090899889624" transform="matrix(1.0000000000000002,0,0,1,-85.4567108154297,124.6240196228027)" svgjs:data="{&quot;leading&quot;:&quot;1.3&quot;}"><tspan dy="0" x="222.0258155299648" svgjs:data="{&quot;newLined&quot;:true}">PLAYER</tspan></text><image width="760" height="304" xlink:href="https://lct-designs.s3.us-west-1.amazonaws.com/assets/libs/bird2-soflball-banner-1639966281995.png" class="asset" transform="matrix(0.07515101879835129,0,0,0.07515101879835129,224.2684326171875,246.0466461181641)"></image><text fill="#000000" font-family="Cooper" font-size="10" x="222.0258155299648" y="155.04090899889624" transform="matrix(1.0000000000000002,0,0,1,2.7471313476562482,124.11946487426758)" svgjs:data="{&quot;leading&quot;:&quot;1.3&quot;}"><tspan dy="0" x="222.0258155299648" svgjs:data="{&quot;newLined&quot;:true}">PLAYER</tspan></text><text fill="#000000" font-family="Cooper" font-size="10" x="188.33270220293844" y="153.77954406206763" transform="matrix(1.0000000000000002,0,0,1,136.22607421875,-127.14674377441406)" svgjs:data="{&quot;leading&quot;:&quot;1.3&quot;}"><tspan dy="0" x="188.33270220293844" svgjs:data="{&quot;newLined&quot;:true}">COACH: COACH'S NAME</tspan></text><text fill="#000000" font-family="Cooper" font-size="10" x="167.35035525097692" y="153.77954406206763" transform="matrix(1.0000000000000002,0,0,1,136.22604370117188,-112.0102310180664)" svgjs:data="{&quot;leading&quot;:&quot;1.3&quot;}"><tspan dy="0" x="167.35035525097692" svgjs:data="{&quot;newLined&quot;:true}">TEAM MOM: TEAM MOM'S NAME</tspan></text><g class="mask" style="pointer-events: none;"><path fill="#777777" enable-background="new    " d="M-1684.9-1014.6v2330.1h3870.8v-2330.1H-1684.9z M500.5,300.5H0.5V0.5h500
	V300.5z"></path></g></svg>