<svg xmlns="http://www.w3.org/2000/svg" version="1.1" xmlns:xlink="http://www.w3.org/1999/xlink" xmlns:svgjs="http://svgjs.dev/svgjs" width="100%" height="100%" viewBox="1 1 499 299" preserveAspectRatio="none" data-info="{&quot;_id&quot;:1,&quot;name&quot;:&quot;HEM &amp; GROMMETS&quot;,&quot;price&quot;:&quot;95.00&quot;,&quot;sale_price&quot;:&quot;89.99&quot;,&quot;cover&quot;:{&quot;key&quot;:&quot;assets/models/hem-1628062436886-1630830942566.png&quot;,&quot;url&quot;:&quot;https://lct-designs.s3.us-west-1.amazonaws.com/assets/models/hem-1628062436886-1630830942566.png&quot;},&quot;back&quot;:{&quot;key&quot;:&quot;assets/models/hem-1630831057346.svg&quot;,&quot;url&quot;:&quot;https://lct-designs.s3.us-west-1.amazonaws.com/assets/models/hem-1630831057346.svg&quot;},&quot;mask&quot;:{&quot;key&quot;:&quot;assets/models/hem.mask-1630831063496.svg&quot;,&quot;url&quot;:&quot;https://lct-designs.s3.us-west-1.amazonaws.com/assets/models/hem.mask-1630831063496.svg&quot;},&quot;information&quot;:&quot;Size 3'x5'&quot;,&quot;type&quot;:&quot;hem-grommet&quot;,&quot;pos&quot;:&quot;1&quot;,&quot;accessories&quot;:&quot;2,3&quot;,&quot;width&quot;:&quot;60&quot;,&quot;height&quot;:&quot;36&quot;}" style="background-color: white;"><g class="model" style="pointer-events: none;"><rect x="0.5" y="0.5" fill="none" stroke="#000000" stroke-miterlimit="10" width="500" height="300"></rect></g><image width="760" height="450" xlink:href="https://lct-designs.s3.us-west-1.amazonaws.com/assets/libs/tomadoes-2-soflball-banner-1641262936040.png" class="asset background locked" transform="matrix(0.6756034493446351,0,0,0.6666666865348816,-6.792057991027832,0)"></image><image width="760" height="497" xlink:href="https://lct-designs.s3.us-west-1.amazonaws.com/assets/libs/tomadoes-2-soflball-banner-1641263002755.png" class="asset" transform="matrix(0.3660007119178772,0,0,0.36600071191787714,128.4221649169922,33.18559265136717)"></image><image width="760" height="616" xlink:href="https://lct-designs.s3.us-west-1.amazonaws.com/assets/libs/tomadoes-2-soflball-banner-1641263017365.png" class="asset" transform="matrix(0.058638449758291245,0,0,0.05863844975829124,80.79934692382812,172.6920928955078)"></image><text fill="#000000" font-family="Antilles Academy" font-size="15" x="232.83274560846291" y="155.98590123441187" transform="matrix(1,0,0,0.9999999999999999,-147.41802978515625,63.7408905029297)" svgjs:data="{&quot;leading&quot;:&quot;1.3&quot;}"><tspan dy="0" x="232.83274560846291" svgjs:data="{&quot;newLined&quot;:true}">PLAYER</tspan></text><image width="760" height="616" xlink:href="https://lct-designs.s3.us-west-1.amazonaws.com/assets/libs/tomadoes-2-soflball-banner-1641263017365.png" class="asset" transform="matrix(0.058638449758291245,0,0,0.05863844975829124,80.79934692382812,108.42875671386717)"></image><text fill="#000000" font-family="Antilles Academy" font-size="15" x="232.83274560846291" y="155.98590123441187" transform="matrix(1,0,0,0.9999999999999999,-147.4180145263672,-0.5224531888961792)" svgjs:data="{&quot;leading&quot;:&quot;1.3&quot;}"><tspan dy="0" x="232.83274560846291" svgjs:data="{&quot;newLined&quot;:true}">PLAYER</tspan></text><image width="760" height="616" xlink:href="https://lct-designs.s3.us-west-1.amazonaws.com/assets/libs/tomadoes-2-soflball-banner-1641263017365.png" class="asset" transform="matrix(0.058638449758291245,0,0,0.05863844975829124,80.79934692382812,236.95539855957026)"></image><text fill="#000000" font-family="Antilles Academy" font-size="15" x="232.83274560846291" y="155.98590123441187" transform="matrix(1,0,0,0.9999999999999999,-147.41799926757812,128.0041961669922)" svgjs:data="{&quot;leading&quot;:&quot;1.3&quot;}"><tspan dy="0" x="232.83274560846291" svgjs:data="{&quot;newLined&quot;:true}">PLAYER</tspan></text><image width="760" height="616" xlink:href="https://lct-designs.s3.us-west-1.amazonaws.com/assets/libs/tomadoes-2-soflball-banner-1641263017365.png" class="asset" transform="matrix(0.058638449758291245,0,0,0.05863844975829124,18.552751541137695,236.4329376220703)"></image><text fill="#000000" font-family="Antilles Academy" font-size="15" x="232.83274560846291" y="155.98590123441187" transform="matrix(1,0,0,0.9999999999999999,-209.66462707519528,127.48173522949217)" svgjs:data="{&quot;leading&quot;:&quot;1.3&quot;}"><tspan dy="0" x="232.83274560846291" svgjs:data="{&quot;newLined&quot;:true}">PLAYER</tspan></text><image width="694" height="760" xlink:href="https://lct-designs.s3.us-west-1.amazonaws.com/assets/libs/tomadoes-2-soflball-banner-1641262993740.png" class="asset" transform="matrix(0.14189064502716064,0,0,0.14189064502716064,362.6493225097656,170.53291320800776)"></image><image width="760" height="616" xlink:href="https://lct-designs.s3.us-west-1.amazonaws.com/assets/libs/tomadoes-2-soflball-banner-1641263017365.png" class="asset" transform="matrix(0.058638449758291245,0,0,0.05863844975829124,18.552757263183594,47.30022048950194)"></image><text fill="#000000" font-family="Antilles Academy" font-size="15" x="232.83274560846291" y="155.98590123441187" transform="matrix(1,0,0,0.9999999999999999,-209.66464233398435,-61.65098571777343)" svgjs:data="{&quot;leading&quot;:&quot;1.3&quot;}"><tspan dy="0" x="232.83274560846291" svgjs:data="{&quot;newLined&quot;:true}">PLAYER</tspan></text><image width="760" height="616" xlink:href="https://lct-designs.s3.us-west-1.amazonaws.com/assets/libs/tomadoes-2-soflball-banner-1641263017365.png" class="asset" transform="matrix(0.058638449758291245,0,0,0.05863844975829124,18.55275535583496,108.42874145507811)"></image><text fill="#000000" font-family="Antilles Academy" font-size="15" x="232.83274560846291" y="155.98590123441187" transform="matrix(1,0,0,0.9999999999999999,-209.66461181640622,-0.5224684476852417)" svgjs:data="{&quot;leading&quot;:&quot;1.3&quot;}"><tspan dy="0" x="232.83274560846291" svgjs:data="{&quot;newLined&quot;:true}">PLAYER</tspan></text><image width="760" height="616" xlink:href="https://lct-designs.s3.us-west-1.amazonaws.com/assets/libs/tomadoes-2-soflball-banner-1641263017365.png" class="asset" transform="matrix(0.058638449758291245,0,0,0.05863844975829124,18.552753448486328,172.1696014404297)"></image><text fill="#000000" font-family="Antilles Academy" font-size="15" x="232.83274560846291" y="155.98590123441187" transform="matrix(1,0,0,0.9999999999999999,-209.66464233398435,63.21839141845702)" svgjs:data="{&quot;leading&quot;:&quot;1.3&quot;}"><tspan dy="0" x="232.83274560846291" svgjs:data="{&quot;newLined&quot;:true}">PLAYER</tspan></text><image width="760" height="616" xlink:href="https://lct-designs.s3.us-west-1.amazonaws.com/assets/libs/tomadoes-2-soflball-banner-1641263017365.png" class="asset" transform="matrix(0.058638449758291245,0,0,0.05863844975829124,216.19119262695315,239.04525756835932)"></image><text fill="#000000" font-family="Antilles Academy" font-size="15" x="232.83274560846291" y="155.98590123441187" transform="matrix(1,0,0,0.9999999999999999,-12.026161193847656,130.09405517578125)" svgjs:data="{&quot;leading&quot;:&quot;1.3&quot;}"><tspan dy="0" x="232.83274560846291" svgjs:data="{&quot;newLined&quot;:true}">PLAYER</tspan></text><image width="760" height="616" xlink:href="https://lct-designs.s3.us-west-1.amazonaws.com/assets/libs/tomadoes-2-soflball-banner-1641263017365.png" class="asset" transform="matrix(0.058638449758291245,0,0,0.05863844975829124,148.75650024414062,236.95541381835932)"></image><text fill="#000000" font-family="Antilles Academy" font-size="15" x="232.83274560846291" y="155.98590123441187" transform="matrix(1,0,0,0.9999999999999999,-79.46088409423828,128.0042114257812)" svgjs:data="{&quot;leading&quot;:&quot;1.3&quot;}"><tspan dy="0" x="232.83274560846291" svgjs:data="{&quot;newLined&quot;:true}">PLAYER</tspan></text><image width="760" height="616" xlink:href="https://lct-designs.s3.us-west-1.amazonaws.com/assets/libs/tomadoes-2-soflball-banner-1641263017365.png" class="asset" transform="matrix(0.058638449758291245,0,0,0.05863844975829124,148.75653076171875,173.21455383300776)"></image><text fill="#000000" font-family="Antilles Academy" font-size="15" x="232.83274560846291" y="155.98590123441187" transform="matrix(1,0,0,0.9999999999999999,-79.46088409423828,64.26335144042967)" svgjs:data="{&quot;leading&quot;:&quot;1.3&quot;}"><tspan dy="0" x="232.83274560846291" svgjs:data="{&quot;newLined&quot;:true}">PLAYER</tspan></text><text fill="#000000" font-family="Antilles Academy" font-size="15" x="195.553988513126" y="155.98590123441187" transform="matrix(1,0,0,0.9999999999999999,-173.45870971679688,-127.22046661376952)" svgjs:data="{&quot;leading&quot;:&quot;1.3&quot;}"><tspan dy="0" x="195.553988513126" svgjs:data="{&quot;newLined&quot;:true}">COACH: COACH'S NAME</tspan></text><text fill="#000000" font-family="Antilles Academy" font-size="15" x="171.11897951044045" y="155.98590123441187" transform="matrix(1,0,0,0.9999999999999999,149.42527770996097,-127.22047424316405)" svgjs:data="{&quot;leading&quot;:&quot;1.3&quot;}"><tspan dy="0" x="171.11897951044045" svgjs:data="{&quot;newLined&quot;:true}">TEAM MOM: TEAM MOM'S NAME</tspan></text><defs><path d="M150.5,75.5c-1.7,98.6-148.3,98.6-150,0C2.2-23.1,148.8-23.1,150.5,75.5z" id="SvgjsPath1001"></path></defs><g class="mask" style="pointer-events: none;"><path fill="#777777" enable-background="new    " d="M-1684.9-1014.6v2330.1h3870.8v-2330.1H-1684.9z M500.5,300.5H0.5V0.5h500
	V300.5z"></path></g></svg>