<svg xmlns="http://www.w3.org/2000/svg" version="1.1" xmlns:xlink="http://www.w3.org/1999/xlink" xmlns:svgjs="http://svgjs.dev/svgjs" width="100%" height="100%" viewBox="1 1 499 299" preserveAspectRatio="none" data-info="{&quot;_id&quot;:1,&quot;name&quot;:&quot;HEM &amp; GROMMETS&quot;,&quot;price&quot;:&quot;95.00&quot;,&quot;sale_price&quot;:&quot;89.99&quot;,&quot;cover&quot;:{&quot;key&quot;:&quot;assets/models/hem-1628062436886-1630830942566.png&quot;,&quot;url&quot;:&quot;https://lct-designs.s3.us-west-1.amazonaws.com/assets/models/hem-1628062436886-1630830942566.png&quot;},&quot;back&quot;:{&quot;key&quot;:&quot;assets/models/hem-1630831057346.svg&quot;,&quot;url&quot;:&quot;https://lct-designs.s3.us-west-1.amazonaws.com/assets/models/hem-1630831057346.svg&quot;},&quot;mask&quot;:{&quot;key&quot;:&quot;assets/models/hem.mask-1630831063496.svg&quot;,&quot;url&quot;:&quot;https://lct-designs.s3.us-west-1.amazonaws.com/assets/models/hem.mask-1630831063496.svg&quot;},&quot;information&quot;:&quot;Size 3'x5'&quot;,&quot;type&quot;:&quot;hem-grommet&quot;,&quot;pos&quot;:&quot;1&quot;,&quot;accessories&quot;:&quot;2,3&quot;,&quot;width&quot;:&quot;60&quot;,&quot;height&quot;:&quot;36&quot;}" style="background-color: white;"><g class="model" style="pointer-events: none;"><rect x="0.5" y="0.5" fill="none" stroke="#000000" stroke-miterlimit="10" width="500" height="300"></rect></g><image width="760" height="455" xlink:href="https://lct-designs.s3.us-west-1.amazonaws.com/assets/libs/bandits1-baseball-banner-1640339458961.png" class="asset background locked" transform="matrix(0.6593406593406593,0,0,0.6593406593406593,0,0)"></image><image width="760" height="377" xlink:href="https://lct-designs.s3.us-west-1.amazonaws.com/assets/libs/bandits1-baseball-banner-1640339725764.png" class="asset" transform="matrix(0.4240266680717468,0,0,0.4240266680717468,47.85006713867189,75.5822830200195)"></image><image width="557" height="760" xlink:href="https://lct-designs.s3.us-west-1.amazonaws.com/assets/libs/bandits1-baseball-banner-1640339698565.png" class="asset" transform="matrix(0.2505375146865845,0,0,0.2505375146865845,337.0108642578125,97.24359893798825)"></image><image width="760" height="626" xlink:href="https://lct-designs.s3.us-west-1.amazonaws.com/assets/libs/bandits1-baseball-banner-1640339769754.png" class="asset" transform="matrix(0.05848731100559235,0,0,0.05848731100559234,189.2635194063187,50.931533813476534)"></image><text fill="#ffffff" font-family="Berlin Sans FB" font-size="15" x="171.3190805924942" y="165.93565330442397" transform="matrix(1,0,0,1,16.538055539131168,-118.52489089965819)" svgjs:data="{&quot;leading&quot;:&quot;1.3&quot;}"><tspan dy="0" x="171.3190805924942" svgjs:data="{&quot;newLined&quot;:true}">PLAYER</tspan></text><text fill="#ffffff" font-family="Berlin Sans FB" font-size="15" x="171.3190805924942" y="165.93565330442397" transform="matrix(1,0,0,1,100.95921325683597,-103.64036560058594)" svgjs:data="{&quot;leading&quot;:&quot;1.3&quot;}"><tspan dy="0" x="171.3190805924942" svgjs:data="{&quot;newLined&quot;:true}">PLAYER</tspan></text><image width="760" height="626" xlink:href="https://lct-designs.s3.us-west-1.amazonaws.com/assets/libs/bandits1-baseball-banner-1640339769754.png" class="asset" transform="matrix(0.058487340807914734,0,0,0.058487340807914734,273.68467712402344,65.81605529785156)"></image><text fill="#ffffff" font-family="Berlin Sans FB" font-size="15" x="171.3190805924942" y="165.93565330442397" transform="matrix(1,0,0,1,172.14994812011722,-81.58922576904297)" svgjs:data="{&quot;leading&quot;:&quot;1.3&quot;}"><tspan dy="0" x="171.3190805924942" svgjs:data="{&quot;newLined&quot;:true}">PLAYER</tspan></text><image width="760" height="626" xlink:href="https://lct-designs.s3.us-west-1.amazonaws.com/assets/libs/bandits1-baseball-banner-1640339769754.png" class="asset" transform="matrix(0.058487355709075935,0,0,0.05848735570907593,344.87542724609375,87.8671951293945)"></image><text fill="#ffffff" font-family="Berlin Sans FB" font-size="15" x="171.3190805924942" y="165.93565330442397" transform="matrix(1,0,0,1,250.5071868896485,-94.81990814208984)" svgjs:data="{&quot;leading&quot;:&quot;1.3&quot;}"><tspan dy="0" x="171.3190805924942" svgjs:data="{&quot;newLined&quot;:true}">PLAYER</tspan></text><image width="760" height="626" xlink:href="https://lct-designs.s3.us-west-1.amazonaws.com/assets/libs/bandits1-baseball-banner-1640339769754.png" class="asset" transform="matrix(0.05848734825849534,0,0,0.058487348258495324,423.232666015625,74.63651275634766)"></image><text fill="#ffffff" font-family="Berlin Sans FB" font-size="15" x="171.3190805924942" y="165.93565330442397" transform="matrix(1,0,0,1,-139.3164215087891,-100.33269500732422)" svgjs:data="{&quot;leading&quot;:&quot;1.3&quot;}"><tspan dy="0" x="171.3190805924942" svgjs:data="{&quot;newLined&quot;:true}">PLAYER</tspan></text><image width="760" height="626" xlink:href="https://lct-designs.s3.us-west-1.amazonaws.com/assets/libs/bandits1-baseball-banner-1640339769754.png" class="asset" transform="matrix(0.058487355709075935,0,0,0.05848735570907593,33.409027099609375,69.12372589111325)"></image><text fill="#ffffff" font-family="Berlin Sans FB" font-size="15" x="171.3190805924942" y="165.93565330442397" transform="matrix(1,0,0,1,-154.67474365234378,-42.999725341796875)" svgjs:data="{&quot;leading&quot;:&quot;1.3&quot;}"><tspan dy="0" x="171.3190805924942" svgjs:data="{&quot;newLined&quot;:true}">PLAYER</tspan></text><image width="760" height="626" xlink:href="https://lct-designs.s3.us-west-1.amazonaws.com/assets/libs/bandits1-baseball-banner-1640339769754.png" class="asset" transform="matrix(0.05848736315965653,0,0,0.058487363159656525,18.050704956054684,126.45669555664062)"></image><text fill="#ffffff" font-family="Berlin Sans FB" font-size="15" x="171.3190805924942" y="165.93565330442397" transform="matrix(1,0,0,1,-155.14883422851562,30.871597290039062)" svgjs:data="{&quot;leading&quot;:&quot;1.3&quot;}"><tspan dy="0" x="171.3190805924942" svgjs:data="{&quot;newLined&quot;:true}">PLAYER</tspan></text><image width="760" height="626" xlink:href="https://lct-designs.s3.us-west-1.amazonaws.com/assets/libs/bandits1-baseball-banner-1640339769754.png" class="asset" transform="matrix(0.05848737806081772,0,0,0.05848737806081771,17.57661437988281,200.32801818847656)"></image><text fill="#ffffff" font-family="Berlin Sans FB" font-size="15" x="171.3190805924942" y="165.93565330442397" transform="matrix(1,0,0,1,-108.76514816284178,78.28155517578125)" svgjs:data="{&quot;leading&quot;:&quot;1.3&quot;}"><tspan dy="0" x="171.3190805924942" svgjs:data="{&quot;newLined&quot;:true}">PLAYER</tspan></text><image width="760" height="626" xlink:href="https://lct-designs.s3.us-west-1.amazonaws.com/assets/libs/bandits1-baseball-banner-1640339769754.png" class="asset" transform="matrix(0.058487389236688614,0,0,0.058487389236688614,63.96030044555664,247.7379760742187)"></image><text fill="#ffffff" font-family="Berlin Sans FB" font-size="15" x="171.3190805924942" y="165.93565330442397" transform="matrix(1,0,0,1,-27.651596069335945,62.84576416015625)" svgjs:data="{&quot;leading&quot;:&quot;1.3&quot;}"><tspan dy="0" x="171.3190805924942" svgjs:data="{&quot;newLined&quot;:true}">PLAYER</tspan></text><image width="760" height="626" xlink:href="https://lct-designs.s3.us-west-1.amazonaws.com/assets/libs/bandits1-baseball-banner-1640339769754.png" class="asset" transform="matrix(0.058487400412559516,0,0,0.05848740041255951,145.07386016845706,232.30218505859375)"></image><text fill="#ffffff" font-family="Berlin Sans FB" font-size="15" x="171.3190805924942" y="165.93565330442397" transform="matrix(1,0,0,1,51.256896972656264,41.89717102050781)" svgjs:data="{&quot;leading&quot;:&quot;1.3&quot;}"><tspan dy="0" x="171.3190805924942" svgjs:data="{&quot;newLined&quot;:true}">PLAYER</tspan></text><image width="760" height="626" xlink:href="https://lct-designs.s3.us-west-1.amazonaws.com/assets/libs/bandits1-baseball-banner-1640339769754.png" class="asset" transform="matrix(0.058487407863140106,0,0,0.0584874078631401,223.98234558105472,211.3535919189453)"></image><text fill="#ffffff" font-family="Berlin Sans FB" font-size="15" x="171.3190805924942" y="165.93565330442397" transform="matrix(1,0,0,1,119.69131469726562,66.7047119140625)" svgjs:data="{&quot;leading&quot;:&quot;1.3&quot;}"><tspan dy="0" x="171.3190805924942" svgjs:data="{&quot;newLined&quot;:true}">PLAYER</tspan></text><image width="760" height="626" xlink:href="https://lct-designs.s3.us-west-1.amazonaws.com/assets/libs/bandits1-baseball-banner-1640339769754.png" class="asset" transform="matrix(0.0584874153137207,0,0,0.058487415313720696,292.41676330566406,236.1611328125)"></image><text fill="#000000" font-family="Berlin Sans FB" font-size="11" x="170.81392312179108" y="155.46146068510023" transform="matrix(1,0,0,1,-151.04742431640628,-127.0697021484375)" svgjs:data="{&quot;leading&quot;:&quot;1.3&quot;}"><tspan dy="0" x="170.81392312179108" svgjs:data="{&quot;newLined&quot;:true}">COACH: COACH'S NAME</tspan></text><text fill="#000000" font-family="Berlin Sans FB" font-size="11" x="170.81392312179108" y="155.46146068510023" transform="matrix(1,0,0,1,152.22712707519534,-127.0697021484375)" svgjs:data="{&quot;leading&quot;:&quot;1.3&quot;}"><tspan dy="0" x="170.81392312179108" svgjs:data="{&quot;newLined&quot;:true}">TEAM MOM: TEAM MOM'S NAME</tspan></text><g class="mask" style="pointer-events: none;"><path fill="#777777" enable-background="new    " d="M-1684.9-1014.6v2330.1h3870.8v-2330.1H-1684.9z M500.5,300.5H0.5V0.5h500
	V300.5z"></path></g></svg>