<svg xmlns="http://www.w3.org/2000/svg" version="1.1" xmlns:xlink="http://www.w3.org/1999/xlink" xmlns:svgjs="http://svgjs.dev/svgjs" width="100%" height="100%" viewBox="1 1 499 299" preserveAspectRatio="none" data-info="{&quot;_id&quot;:1,&quot;name&quot;:&quot;HEM &amp; GROMMETS&quot;,&quot;price&quot;:&quot;95.00&quot;,&quot;sale_price&quot;:&quot;89.99&quot;,&quot;cover&quot;:{&quot;key&quot;:&quot;assets/models/hem-1628062436886-1630830942566.png&quot;,&quot;url&quot;:&quot;https://lct-designs.s3.us-west-1.amazonaws.com/assets/models/hem-1628062436886-1630830942566.png&quot;},&quot;back&quot;:{&quot;key&quot;:&quot;assets/models/hem-1630831057346.svg&quot;,&quot;url&quot;:&quot;https://lct-designs.s3.us-west-1.amazonaws.com/assets/models/hem-1630831057346.svg&quot;},&quot;mask&quot;:{&quot;key&quot;:&quot;assets/models/hem.mask-1630831063496.svg&quot;,&quot;url&quot;:&quot;https://lct-designs.s3.us-west-1.amazonaws.com/assets/models/hem.mask-1630831063496.svg&quot;},&quot;information&quot;:&quot;Size 3'x5'&quot;,&quot;type&quot;:&quot;hem-grommet&quot;,&quot;pos&quot;:&quot;1&quot;,&quot;accessories&quot;:&quot;2,3&quot;,&quot;width&quot;:&quot;60&quot;,&quot;height&quot;:&quot;36&quot;}" style="background-color: white;"><g class="model" style="pointer-events: none;"><rect x="0.5" y="0.5" fill="none" stroke="#000000" stroke-miterlimit="10" width="500" height="300"></rect></g><image width="760" height="455" xlink:href="https://lct-designs.s3.us-west-1.amazonaws.com/assets/libs/angels-los-angeles-baseball-banner-1640253648461.png" class="asset background locked" transform="matrix(0.6593406593406593,0,0,0.6593406593406593,0,0)"></image><image width="760" height="561" xlink:href="https://lct-designs.s3.us-west-1.amazonaws.com/assets/libs/angels-los-angeles-3-baseball-banner-1640253743216.png" class="asset" transform="matrix(0.27752596139907837,0,0,0.27752596139907837,19.86898422241211,126.73839569091798)"></image><image width="760" height="760" xlink:href="https://lct-designs.s3.us-west-1.amazonaws.com/assets/libs/angels-los-angeles-3-baseball-banner-1640253760858.png" class="asset" transform="matrix(0.22710171341896057,0,0,0.22710171341896054,310.2620239257812,37.22705841064452)"></image><image width="760" height="522" xlink:href="https://lct-designs.s3.us-west-1.amazonaws.com/assets/libs/angels-los-angeles-3-baseball-banner-1640253782335.png" class="asset" transform="matrix(0.059427548199892044,0,0,0.059427548199892044,20.414831161499023,19.042160034179673)"></image><text fill="#ffffff" font-family="American Captain" font-size="20" x="196.87860666685546" y="166.87553926362517" transform="matrix(1,0,0,1,-131.00436401367188,-124.9537811279297)" svgjs:data="{&quot;leading&quot;:&quot;1.3&quot;}"><tspan dy="0" x="196.87860666685546" svgjs:data="{&quot;newLined&quot;:true}">PLAYER</tspan></text><image width="760" height="522" xlink:href="https://lct-designs.s3.us-west-1.amazonaws.com/assets/libs/angels-los-angeles-3-baseball-banner-1640253782335.png" class="asset" transform="matrix(0.05942755192518234,0,0,0.05942755192518234,41.33186149597168,60.52687835693361)"></image><text fill="#ffffff" font-family="American Captain" font-size="20" x="196.87860666685546" y="166.87553926362517" transform="matrix(1,0,0,1,-110.08733367919922,-83.46906280517578)" svgjs:data="{&quot;leading&quot;:&quot;1.3&quot;}"><tspan dy="0" x="196.87860666685546" svgjs:data="{&quot;newLined&quot;:true}">PLAYER</tspan></text><image width="760" height="522" xlink:href="https://lct-designs.s3.us-west-1.amazonaws.com/assets/libs/angels-los-angeles-3-baseball-banner-1640253782335.png" class="asset" transform="matrix(0.05942755192518234,0,0,0.05942755192518234,18.03491973876953,102.55744171142577)"></image><text fill="#ffffff" font-family="American Captain" font-size="20" x="196.87860666685546" y="166.87553926362517" transform="matrix(1,0,0,1,-133.38427734375,-41.438499450683594)" svgjs:data="{&quot;leading&quot;:&quot;1.3&quot;}"><tspan dy="0" x="196.87860666685546" svgjs:data="{&quot;newLined&quot;:true}">PLAYER</tspan></text><image width="760" height="522" xlink:href="https://lct-designs.s3.us-west-1.amazonaws.com/assets/libs/angels-los-angeles-3-baseball-banner-1640253782335.png" class="asset" transform="matrix(0.05942755192518234,0,0,0.05942755192518234,142.1178970336914,16.858749389648423)"></image><text fill="#ffffff" font-family="American Captain" font-size="20" x="196.87860666685546" y="166.87553926362517" transform="matrix(1,0,0,1,-9.301300048828125,-127.13719177246094)" svgjs:data="{&quot;leading&quot;:&quot;1.3&quot;}"><tspan dy="0" x="196.87860666685546" svgjs:data="{&quot;newLined&quot;:true}">PLAYER</tspan></text><image width="760" height="522" xlink:href="https://lct-designs.s3.us-west-1.amazonaws.com/assets/libs/angels-los-angeles-3-baseball-banner-1640253782335.png" class="asset" transform="matrix(0.05942755192518234,0,0,0.05942755192518234,169.58512878417966,58.343463897705064)"></image><text fill="#ffffff" font-family="American Captain" font-size="20" x="196.87860666685546" y="166.87553926362517" transform="matrix(1,0,0,1,18.165939450263977,-85.6524772644043)" svgjs:data="{&quot;leading&quot;:&quot;1.3&quot;}"><tspan dy="0" x="196.87860666685546" svgjs:data="{&quot;newLined&quot;:true}">PLAYER</tspan></text><image width="760" height="522" xlink:href="https://lct-designs.s3.us-west-1.amazonaws.com/assets/libs/angels-los-angeles-3-baseball-banner-1640253782335.png" class="asset" transform="matrix(0.05942755192518234,0,0,0.05942755192518234,169.75981140136716,102.01158523559569)"></image><text fill="#ffffff" font-family="American Captain" font-size="20" x="196.87860666685546" y="166.87553926362517" transform="matrix(1,0,0,1,18.34062194824218,-41.984352111816406)" svgjs:data="{&quot;leading&quot;:&quot;1.3&quot;}"><tspan dy="0" x="196.87860666685546" svgjs:data="{&quot;newLined&quot;:true}">PLAYER</tspan></text><image width="760" height="522" xlink:href="https://lct-designs.s3.us-west-1.amazonaws.com/assets/libs/angels-los-angeles-3-baseball-banner-1640253782335.png" class="asset" transform="matrix(0.05942755192518234,0,0,0.05942755192518234,252.35809326171875,15.221199035644517)"></image><text fill="#ffffff" font-family="American Captain" font-size="20" x="196.87860666685546" y="166.87553926362517" transform="matrix(1,0,0,1,100.93888854980469,-128.77474975585938)" svgjs:data="{&quot;leading&quot;:&quot;1.3&quot;}"><tspan dy="0" x="196.87860666685546" svgjs:data="{&quot;newLined&quot;:true}">PLAYER</tspan></text><image width="760" height="522" xlink:href="https://lct-designs.s3.us-west-1.amazonaws.com/assets/libs/angels-los-angeles-3-baseball-banner-1640253782335.png" class="asset" transform="matrix(0.05942755192518234,0,0,0.05942755192518234,217.0524139404297,145.13385772705078)"></image><text fill="#ffffff" font-family="American Captain" font-size="20" x="196.87860666685546" y="166.87553926362517" transform="matrix(1,0,0,1,65.63320922851561,1.1379089355468608)" svgjs:data="{&quot;leading&quot;:&quot;1.3&quot;}"><tspan dy="0" x="196.87860666685546" svgjs:data="{&quot;newLined&quot;:true}">PLAYER</tspan></text><image width="760" height="522" xlink:href="https://lct-designs.s3.us-west-1.amazonaws.com/assets/libs/angels-los-angeles-3-baseball-banner-1640253782335.png" class="asset" transform="matrix(0.05942755192518234,0,0,0.05942755192518234,243.42794799804688,195.89804077148432)"></image><text fill="#ffffff" font-family="American Captain" font-size="20" x="196.87860666685546" y="166.87553926362517" transform="matrix(1,0,0,1,92.00874328613281,51.902099609375014)" svgjs:data="{&quot;leading&quot;:&quot;1.3&quot;}"><tspan dy="0" x="196.87860666685546" svgjs:data="{&quot;newLined&quot;:true}">PLAYER</tspan></text><image width="760" height="522" xlink:href="https://lct-designs.s3.us-west-1.amazonaws.com/assets/libs/angels-los-angeles-3-baseball-banner-1640253782335.png" class="asset" transform="matrix(0.05942755192518234,0,0,0.05942755192518234,225.04367065429688,251.02903747558594)"></image><text fill="#ffffff" font-family="American Captain" font-size="20" x="196.87860666685546" y="166.87553926362517" transform="matrix(1,0,0,1,73.6244659423828,107.03309631347658)" svgjs:data="{&quot;leading&quot;:&quot;1.3&quot;}"><tspan dy="0" x="196.87860666685546" svgjs:data="{&quot;newLined&quot;:true}">PLAYER</tspan></text><image width="760" height="522" xlink:href="https://lct-designs.s3.us-west-1.amazonaws.com/assets/libs/angels-los-angeles-3-baseball-banner-1640253782335.png" class="asset" transform="matrix(0.05942755192518234,0,0,0.05942755192518234,354.58514404296875,224.82815551757807)"></image><text fill="#ffffff" font-family="American Captain" font-size="20" x="196.87860666685546" y="166.87553926362517" transform="matrix(1,0,0,1,203.16593933105466,80.83221435546874)" svgjs:data="{&quot;leading&quot;:&quot;1.3&quot;}"><tspan dy="0" x="196.87860666685546" svgjs:data="{&quot;newLined&quot;:true}">PLAYER</tspan></text><text fill="#ffffff" font-family="American Captain" font-size="16" x="183.05747782164062" y="157.86898752107146" transform="matrix(1,0,0,1,193.8085021972656,-126.6375503540039)" svgjs:data="{&quot;leading&quot;:&quot;1.3&quot;}"><tspan dy="0" x="183.05747782164062" svgjs:data="{&quot;newLined&quot;:true}">COACH: COACH'S NAME</tspan></text><text fill="#ffffff" font-family="American Captain" font-size="16" x="183.05747782164062" y="157.86898752107146" transform="matrix(1,0,0,1,152.46725463867188,126.63755035400389)" svgjs:data="{&quot;leading&quot;:&quot;1.3&quot;}"><tspan dy="0" x="183.05747782164062" svgjs:data="{&quot;newLined&quot;:true}">TEAM MOM: TEAM MOM'S NAME</tspan></text><g class="mask" style="pointer-events: none;"><path fill="#777777" enable-background="new    " d="M-1684.9-1014.6v2330.1h3870.8v-2330.1H-1684.9z M500.5,300.5H0.5V0.5h500
	V300.5z"></path></g></svg>