<svg xmlns="http://www.w3.org/2000/svg" version="1.1" xmlns:xlink="http://www.w3.org/1999/xlink" xmlns:svgjs="http://svgjs.dev/svgjs" width="100%" height="100%" viewBox="1 1 499 299" preserveAspectRatio="none" data-info="{&quot;_id&quot;:1,&quot;name&quot;:&quot;HEM &amp; GROMMETS&quot;,&quot;price&quot;:&quot;95.00&quot;,&quot;sale_price&quot;:&quot;89.99&quot;,&quot;cover&quot;:{&quot;key&quot;:&quot;assets/models/hem-1628062436886-1630830942566.png&quot;,&quot;url&quot;:&quot;https://lct-designs.s3.us-west-1.amazonaws.com/assets/models/hem-1628062436886-1630830942566.png&quot;},&quot;back&quot;:{&quot;key&quot;:&quot;assets/models/hem-1630831057346.svg&quot;,&quot;url&quot;:&quot;https://lct-designs.s3.us-west-1.amazonaws.com/assets/models/hem-1630831057346.svg&quot;},&quot;mask&quot;:{&quot;key&quot;:&quot;assets/models/hem.mask-1630831063496.svg&quot;,&quot;url&quot;:&quot;https://lct-designs.s3.us-west-1.amazonaws.com/assets/models/hem.mask-1630831063496.svg&quot;},&quot;information&quot;:&quot;Size 3'x5'&quot;,&quot;type&quot;:&quot;hem-grommet&quot;,&quot;pos&quot;:&quot;1&quot;,&quot;accessories&quot;:&quot;2,3&quot;,&quot;width&quot;:&quot;60&quot;,&quot;height&quot;:&quot;36&quot;}" style="background-color: white;"><g class="model" style="pointer-events: none;"><rect x="0.5" y="0.5" fill="none" stroke="#000000" stroke-miterlimit="10" width="500" height="300"></rect></g><image width="760" height="455" xlink:href="https://lct-designs.s3.us-west-1.amazonaws.com/assets/libs/braves-4-baseball-banner-1640339458962.png" class="asset background locked" transform="matrix(0.6593406593406593,0,0,0.6593406593406593,0,0)"></image><image width="760" height="380" xlink:href="https://lct-designs.s3.us-west-1.amazonaws.com/assets/libs/braves-4-baseball-banner-1640339725765.png" class="asset" transform="matrix(0.36804223060607916,0,0,0.3680422306060791,110.14331817626953,58.84657287597655)"></image><image width="526" height="760" xlink:href="https://lct-designs.s3.us-west-1.amazonaws.com/assets/libs/braves-4-baseball-banner-1640339698566.png" class="asset" transform="matrix(0.19541035592556003,0,0,0.19541035592555997,371.45495605468756,132.52543640136713)"></image><image width="760" height="441" xlink:href="https://lct-designs.s3.us-west-1.amazonaws.com/assets/libs/braves-4-baseball-banner-1640339769754.png" class="asset" transform="matrix(0.07032716274261475,0,0,0.07032716274261475,17.530309677124027,71.37176513671874)"></image><text fill="#ffffff" font-family="Skater Girls Rock" font-size="13" x="233.08697152266998" y="154.08326734349149" transform="matrix(1,0,0,1,-201.65509033203125,-84.89691162109375)" svgjs:data="{&quot;leading&quot;:&quot;1.3&quot;}"><tspan dy="0" x="233.08697152266998" svgjs:data="{&quot;newLined&quot;:true}">PLAYER</tspan></text><image width="760" height="441" xlink:href="https://lct-designs.s3.us-west-1.amazonaws.com/assets/libs/braves-4-baseball-banner-1640339769754.png" class="asset" transform="matrix(0.07032716274261475,0,0,0.07032716274261475,17.53031921386719,134.21751403808594)"></image><text fill="#ffffff" font-family="Skater Girls Rock" font-size="13" x="233.08697152266998" y="154.08326734349149" transform="matrix(1,0,0,1,-201.65510177612305,-22.05115509033203)" svgjs:data="{&quot;leading&quot;:&quot;1.3&quot;}"><tspan dy="0" x="233.08697152266998" svgjs:data="{&quot;newLined&quot;:true}">PLAYER</tspan></text><image width="760" height="441" xlink:href="https://lct-designs.s3.us-west-1.amazonaws.com/assets/libs/braves-4-baseball-banner-1640339769754.png" class="asset" transform="matrix(0.07032716274261475,0,0,0.07032716274261475,17.53031730651856,202.02476501464838)"></image><text fill="#ffffff" font-family="Skater Girls Rock" font-size="13" x="233.08697152266998" y="154.08326734349149" transform="matrix(1,0,0,1,-201.655086517334,45.756095886230455)" svgjs:data="{&quot;leading&quot;:&quot;1.3&quot;}"><tspan dy="0" x="233.08697152266998" svgjs:data="{&quot;newLined&quot;:true}">PLAYER</tspan></text><image width="760" height="441" xlink:href="https://lct-designs.s3.us-west-1.amazonaws.com/assets/libs/braves-4-baseball-banner-1640339769754.png" class="asset" transform="matrix(0.07032716274261475,0,0,0.07032716274261475,95.33626365661623,53.179573059082045)"></image><text fill="#ffffff" font-family="Skater Girls Rock" font-size="13" x="233.08697152266998" y="154.08326734349149" transform="matrix(1,0,0,1,-123.84913635253909,-103.08910369873047)" svgjs:data="{&quot;leading&quot;:&quot;1.3&quot;}"><tspan dy="0" x="233.08697152266998" svgjs:data="{&quot;newLined&quot;:true}">PLAYER</tspan></text><image width="760" height="441" xlink:href="https://lct-designs.s3.us-west-1.amazonaws.com/assets/libs/braves-4-baseball-banner-1640339769754.png" class="asset" transform="matrix(0.07032716274261475,0,0,0.07032716274261475,178.654899597168,41.602722167968764)"></image><text fill="#ffffff" font-family="Skater Girls Rock" font-size="13" x="233.08697152266998" y="154.08326734349149" transform="matrix(1,0,0,1,-40.53050231933594,-114.66595458984375)" svgjs:data="{&quot;leading&quot;:&quot;1.3&quot;}"><tspan dy="0" x="233.08697152266998" svgjs:data="{&quot;newLined&quot;:true}">PLAYER</tspan></text><image width="760" height="441" xlink:href="https://lct-designs.s3.us-west-1.amazonaws.com/assets/libs/braves-4-baseball-banner-1640339769754.png" class="asset" transform="matrix(0.07032716274261475,0,0,0.07032716274261475,91.0804901123047,227.38360595703125)"></image><text fill="#ffffff" font-family="Skater Girls Rock" font-size="13" x="233.08697152266998" y="154.08326734349149" transform="matrix(1,0,0,1,-128.10491943359378,71.11492919921876)" svgjs:data="{&quot;leading&quot;:&quot;1.3&quot;}"><tspan dy="0" x="233.08697152266998" svgjs:data="{&quot;newLined&quot;:true}">PLAYER</tspan></text><image width="760" height="441" xlink:href="https://lct-designs.s3.us-west-1.amazonaws.com/assets/libs/braves-4-baseball-banner-1640339769754.png" class="asset" transform="matrix(0.07032716274261475,0,0,0.07032716274261475,174.95039367675784,238.96044921875)"></image><text fill="#ffffff" font-family="Skater Girls Rock" font-size="13" x="233.08697152266998" y="154.08326734349149" transform="matrix(1,0,0,1,-44.235015869140625,82.69177246093749)" svgjs:data="{&quot;leading&quot;:&quot;1.3&quot;}"><tspan dy="0" x="233.08697152266998" svgjs:data="{&quot;newLined&quot;:true}">PLAYER</tspan></text><image width="760" height="441" xlink:href="https://lct-designs.s3.us-west-1.amazonaws.com/assets/libs/braves-4-baseball-banner-1640339769754.png" class="asset" transform="matrix(-0.07111477851867676,0,0,0.07032716274261475,335.99780273437506,43.256565093994126)"></image><text fill="#ffffff" font-family="Skater Girls Rock" font-size="13" x="233.08697152266998" y="154.08326734349149" transform="matrix(1,0,0,1,49.41485595703125,-114.11466979980469)" svgjs:data="{&quot;leading&quot;:&quot;1.3&quot;}"><tspan dy="0" x="233.08697152266998" svgjs:data="{&quot;newLined&quot;:true}">PLAYER</tspan></text><text fill="#ffffff" font-family="Skater Girls Rock" font-size="13" x="233.08697152266998" y="154.08326734349149" transform="matrix(1,0,0,1,128.8746337890625,-106.39676666259766)" svgjs:data="{&quot;leading&quot;:&quot;1.3&quot;}"><tspan dy="0" x="233.08697152266998" svgjs:data="{&quot;newLined&quot;:true}">PLAYER</tspan></text><image width="760" height="441" xlink:href="https://lct-designs.s3.us-west-1.amazonaws.com/assets/libs/braves-4-baseball-banner-1640339769754.png" class="asset" transform="matrix(-0.07111480087041855,0,0,0.07032716274261475,415.45758056640625,50.974468231201186)"></image><text fill="#ffffff" font-family="Skater Girls Rock" font-size="13" x="233.08697152266998" y="154.08326734349149" transform="matrix(1,0,0,1,201.16790771484378,-84.89689636230469)" svgjs:data="{&quot;leading&quot;:&quot;1.3&quot;}"><tspan dy="0" x="233.08697152266998" svgjs:data="{&quot;newLined&quot;:true}">PLAYER</tspan></text><image width="760" height="441" xlink:href="https://lct-designs.s3.us-west-1.amazonaws.com/assets/libs/braves-4-baseball-banner-1640339769754.png" class="asset" transform="matrix(-0.07111481577157974,0,0,0.07032716274261475,487.7508544921875,72.47433853149413)"></image><text fill="#ffffff" font-family="Skater Girls Rock" font-size="13" x="233.08697152266998" y="154.08326734349149" transform="matrix(1,0,0,1,30.352050781250004,82.14050292968749)" svgjs:data="{&quot;leading&quot;:&quot;1.3&quot;}"><tspan dy="0" x="233.08697152266998" svgjs:data="{&quot;newLined&quot;:true}">PLAYER</tspan></text><image width="760" height="441" xlink:href="https://lct-designs.s3.us-west-1.amazonaws.com/assets/libs/braves-4-baseball-banner-1640339769754.png" class="asset" transform="matrix(-0.07111483067274094,0,0,0.07032716274261475,316.9349975585938,239.51174163818354)"></image><text fill="#ffffff" font-family="Skater Girls Rock" font-size="13" x="233.08697152266998" y="154.08326734349149" transform="matrix(1,0,0,1,104.85040283203125,66.70471191406249)" svgjs:data="{&quot;leading&quot;:&quot;1.3&quot;}"><tspan dy="0" x="233.08697152266998" svgjs:data="{&quot;newLined&quot;:true}">PLAYER</tspan></text><image width="760" height="441" xlink:href="https://lct-designs.s3.us-west-1.amazonaws.com/assets/libs/braves-4-baseball-banner-1640339769754.png" class="asset" transform="matrix(-0.07111484557390214,0,0,0.07032716274261475,391.43334960937506,224.07595825195312)"></image><text fill="#ffffff" font-family="Skater Girls Rock" font-size="13" x="191.8543931258728" y="153.53199447438138" transform="matrix(1,0,0,1,-167.58543395996094,-123.21075439453125)" svgjs:data="{&quot;leading&quot;:&quot;1.3&quot;}"><tspan dy="0" x="191.8543931258728" svgjs:data="{&quot;newLined&quot;:true}">COACH: COACH'S NAME</tspan></text><text fill="#ffffff" font-family="Skater Girls Rock" font-size="13" x="173.68174755702515" y="153.53199447438138" transform="matrix(1,0,0,1,148.84234619140628,-123.21076202392578)" svgjs:data="{&quot;leading&quot;:&quot;1.3&quot;}"><tspan dy="0" x="173.68174755702515" svgjs:data="{&quot;newLined&quot;:true}">TEAM MOM: TEAM MOM'S NAME</tspan></text><g class="mask" style="pointer-events: none;"><path fill="#777777" enable-background="new    " d="M-1684.9-1014.6v2330.1h3870.8v-2330.1H-1684.9z M500.5,300.5H0.5V0.5h500
	V300.5z"></path></g></svg>