<svg xmlns="http://www.w3.org/2000/svg" version="1.1" xmlns:xlink="http://www.w3.org/1999/xlink" xmlns:svgjs="http://svgjs.dev/svgjs" width="100%" height="100%" viewBox="1 1 499 299" preserveAspectRatio="none" data-info="{&quot;_id&quot;:1,&quot;name&quot;:&quot;HEM &amp; GROMMETS&quot;,&quot;price&quot;:&quot;95.00&quot;,&quot;sale_price&quot;:&quot;89.99&quot;,&quot;cover&quot;:{&quot;key&quot;:&quot;assets/models/hem-1628062436886-1630830942566.png&quot;,&quot;url&quot;:&quot;https://lct-designs.s3.us-west-1.amazonaws.com/assets/models/hem-1628062436886-1630830942566.png&quot;},&quot;back&quot;:{&quot;key&quot;:&quot;assets/models/hem-1630831057346.svg&quot;,&quot;url&quot;:&quot;https://lct-designs.s3.us-west-1.amazonaws.com/assets/models/hem-1630831057346.svg&quot;},&quot;mask&quot;:{&quot;key&quot;:&quot;assets/models/hem.mask-1630831063496.svg&quot;,&quot;url&quot;:&quot;https://lct-designs.s3.us-west-1.amazonaws.com/assets/models/hem.mask-1630831063496.svg&quot;},&quot;information&quot;:&quot;Size 3'x5'&quot;,&quot;type&quot;:&quot;hem-grommet&quot;,&quot;pos&quot;:&quot;1&quot;,&quot;accessories&quot;:&quot;2,3&quot;,&quot;width&quot;:&quot;60&quot;,&quot;height&quot;:&quot;36&quot;}" style="background-color: white;"><g class="model" style="pointer-events: none;"><rect x="0.5" y="0.5" fill="none" stroke="#000000" stroke-miterlimit="10" width="500" height="300"></rect></g><image width="760" height="455" xlink:href="https://lct-designs.s3.us-west-1.amazonaws.com/assets/libs/cardinal-baseball-banner-1640339458963.png" class="asset background locked" transform="matrix(0.6593406593406593,0,0,0.6593406593406593,0,0)"></image><image width="760" height="726" xlink:href="https://lct-designs.s3.us-west-1.amazonaws.com/assets/libs/cardinal-2-baseball-banner-1640339725765.png" class="asset" transform="matrix(0.24927458167076114,0,0,0.24927458167076108,292.0617370605469,16.237377166748047)"></image><image width="760" height="712" xlink:href="https://lct-designs.s3.us-west-1.amazonaws.com/assets/libs/cardinal-baseball-banner-1640339698567.png" class="asset" transform="matrix(0.2384263873100281,0,0,0.23842638731002808,16.979045867919925,104.2604446411133)"></image><image width="760" height="622" xlink:href="https://lct-designs.s3.us-west-1.amazonaws.com/assets/libs/cardinal-baseball-banner-1640339769755.png" class="asset" transform="matrix(0.05004065856337548,0,0,0.050040658563375466,26.901876449584957,20.874385833740234)"></image><text fill="#ffffff" font-family="Skater Girls Rock" font-size="13" x="231.00209438930054" y="153.53200445112196" transform="matrix(1,0,0,1,-163.17529296875003,-111.9095458984375)" svgjs:data="{&quot;leading&quot;:&quot;1.3&quot;}"><tspan dy="0" x="231.00209438930054" svgjs:data="{&quot;newLined&quot;:true}">PLAYER</tspan></text><image width="760" height="622" xlink:href="https://lct-designs.s3.us-west-1.amazonaws.com/assets/libs/cardinal-baseball-banner-1640339769755.png" class="asset" transform="matrix(0.05004065856337548,0,0,0.050040658563375466,53.439914703369155,57.8100471496582)"></image><text fill="#ffffff" font-family="Skater Girls Rock" font-size="13" x="231.00209438930054" y="153.53200445112196" transform="matrix(1,0,0,1,-136.63725662231448,-74.97388458251953)" svgjs:data="{&quot;leading&quot;:&quot;1.3&quot;}"><tspan dy="0" x="231.00209438930054" svgjs:data="{&quot;newLined&quot;:true}">PLAYER</tspan></text><image width="760" height="622" xlink:href="https://lct-designs.s3.us-west-1.amazonaws.com/assets/libs/cardinal-baseball-banner-1640339769755.png" class="asset" transform="matrix(0.05004065856337548,0,0,0.050040658563375466,129.04080200195315,20.323101043701172)"></image><text fill="#ffffff" font-family="Skater Girls Rock" font-size="13" x="231.00209438930054" y="153.53200445112196" transform="matrix(1,0,0,1,-61.03636932373048,-112.46083068847655)" svgjs:data="{&quot;leading&quot;:&quot;1.3&quot;}"><tspan dy="0" x="231.00209438930054" svgjs:data="{&quot;newLined&quot;:true}">PLAYER</tspan></text><image width="760" height="622" xlink:href="https://lct-designs.s3.us-west-1.amazonaws.com/assets/libs/cardinal-baseball-banner-1640339769755.png" class="asset" transform="matrix(0.05004065856337548,0,0,0.050040658563375466,162.19404602050784,56.15620803833005)"></image><text fill="#ffffff" font-family="Skater Girls Rock" font-size="13" x="231.00209438930054" y="153.53200445112196" transform="matrix(1,0,0,1,-27.88312530517579,-76.62772369384766)" svgjs:data="{&quot;leading&quot;:&quot;1.3&quot;}"><tspan dy="0" x="231.00209438930054" svgjs:data="{&quot;newLined&quot;:true}">PLAYER</tspan></text><image width="760" height="622" xlink:href="https://lct-designs.s3.us-west-1.amazonaws.com/assets/libs/cardinal-baseball-banner-1640339769755.png" class="asset" transform="matrix(0.05004065856337548,0,0,0.050040658563375466,238.897445678711,19.771820068359375)"></image><text fill="#ffffff" font-family="Skater Girls Rock" font-size="13" x="231.00209438930054" y="153.53200445112196" transform="matrix(1,0,0,1,48.820274353027344,-113.01211166381836)" svgjs:data="{&quot;leading&quot;:&quot;1.3&quot;}"><tspan dy="0" x="231.00209438930054" svgjs:data="{&quot;newLined&quot;:true}">PLAYER</tspan></text><image width="760" height="622" xlink:href="https://lct-designs.s3.us-west-1.amazonaws.com/assets/libs/cardinal-baseball-banner-1640339769755.png" class="asset" transform="matrix(0.05004065856337548,0,0,0.050040658563375466,152.42555236816406,99.15593719482419)"></image><text fill="#ffffff" font-family="Skater Girls Rock" font-size="13" x="231.00209438930054" y="153.53200445112196" transform="matrix(1,0,0,1,-37.65161895751953,-33.62799835205078)" svgjs:data="{&quot;leading&quot;:&quot;1.3&quot;}"><tspan dy="0" x="231.00209438930054" svgjs:data="{&quot;newLined&quot;:true}">PLAYER</tspan></text><image width="760" height="622" xlink:href="https://lct-designs.s3.us-west-1.amazonaws.com/assets/libs/cardinal-baseball-banner-1640339769755.png" class="asset" transform="matrix(0.05004065856337548,0,0,0.050040658563375466,256.14111328125,77.65606689453125)"></image><text fill="#ffffff" font-family="Skater Girls Rock" font-size="13" x="231.00209438930054" y="153.53200445112196" transform="matrix(1,0,0,1,66.06394195556642,-55.12786865234375)" svgjs:data="{&quot;leading&quot;:&quot;1.3&quot;}"><tspan dy="0" x="231.00209438930054" svgjs:data="{&quot;newLined&quot;:true}">PLAYER</tspan></text><image width="760" height="622" xlink:href="https://lct-designs.s3.us-west-1.amazonaws.com/assets/libs/cardinal-baseball-banner-1640339769755.png" class="asset" transform="matrix(0.05004065856337548,0,0,0.050040658563375466,186.75852966308597,140.50182342529294)"></image><text fill="#ffffff" font-family="Skater Girls Rock" font-size="13" x="231.00209438930054" y="153.53200445112196" transform="matrix(1,0,0,1,-3.31864166259766,7.717887878417969)" svgjs:data="{&quot;leading&quot;:&quot;1.3&quot;}"><tspan dy="0" x="231.00209438930054" svgjs:data="{&quot;newLined&quot;:true}">PLAYER</tspan></text><image width="760" height="622" xlink:href="https://lct-designs.s3.us-west-1.amazonaws.com/assets/libs/cardinal-baseball-banner-1640339769755.png" class="asset" transform="matrix(0.05004065856337548,0,0,0.050040658563375466,207.78388977050784,182.39900207519526)"></image><text fill="#ffffff" font-family="Skater Girls Rock" font-size="13" x="231.00209438930054" y="153.53200445112196" transform="matrix(1,0,0,1,17.706718444824222,49.61505889892578)" svgjs:data="{&quot;leading&quot;:&quot;1.3&quot;}"><tspan dy="0" x="231.00209438930054" svgjs:data="{&quot;newLined&quot;:true}">PLAYER</tspan></text><image width="760" height="622" xlink:href="https://lct-designs.s3.us-west-1.amazonaws.com/assets/libs/cardinal-baseball-banner-1640339769755.png" class="asset" transform="matrix(0.05004065856337548,0,0,0.050040658563375466,207.8610534667969,232.01406860351557)"></image><text fill="#ffffff" font-family="Skater Girls Rock" font-size="13" x="231.00209438930054" y="153.53200445112196" transform="matrix(1,0,0,1,17.783882141113278,99.2301254272461)" svgjs:data="{&quot;leading&quot;:&quot;1.3&quot;}"><tspan dy="0" x="231.00209438930054" svgjs:data="{&quot;newLined&quot;:true}">PLAYER</tspan></text><image width="760" height="622" xlink:href="https://lct-designs.s3.us-west-1.amazonaws.com/assets/libs/cardinal-baseball-banner-1640339769755.png" class="asset" transform="matrix(0.05004065856337548,0,0,0.050040658563375466,307.7177429199219,213.82188415527338)"></image><text fill="#ffffff" font-family="Skater Girls Rock" font-size="13" x="231.00209438930054" y="153.53200445112196" transform="matrix(1,0,0,1,117.64057159423831,81.0379409790039)" svgjs:data="{&quot;leading&quot;:&quot;1.3&quot;}"><tspan dy="0" x="231.00209438930054" svgjs:data="{&quot;newLined&quot;:true}">PLAYER</tspan></text><image width="760" height="622" xlink:href="https://lct-designs.s3.us-west-1.amazonaws.com/assets/libs/cardinal-baseball-banner-1640339769755.png" class="asset" transform="matrix(0.05004065856337548,0,0,0.050040658563375466,398.2028503417969,231.46279907226562)"></image><text fill="#ffffff" font-family="Skater Girls Rock" font-size="13" x="231.00209438930054" y="153.53200445112196" transform="matrix(1,0,0,1,208.1256790161133,98.67885589599607)" svgjs:data="{&quot;leading&quot;:&quot;1.3&quot;}"><tspan dy="0" x="231.00209438930054" svgjs:data="{&quot;newLined&quot;:true}">PLAYER</tspan></text><text fill="#ffffff" font-family="Skater Girls Rock" font-size="13" x="191.8543931258728" y="153.53200445112196" transform="matrix(1,0,0,1,-170.89305114746094,129.55044555664062)" svgjs:data="{&quot;leading&quot;:&quot;1.3&quot;}"><tspan dy="0" x="191.8543931258728" svgjs:data="{&quot;newLined&quot;:true}">COACH: COACH'S NAME</tspan></text><text fill="#ffffff" font-family="Skater Girls Rock" font-size="13" x="173.68174755702515" y="153.53200445112196" transform="matrix(1,0,0,1,151.59869384765628,129.5504608154297)" svgjs:data="{&quot;leading&quot;:&quot;1.3&quot;}"><tspan dy="0" x="173.68174755702515" svgjs:data="{&quot;newLined&quot;:true}">TEAM MOM: TEAM MOM'S NAME</tspan></text><g class="mask" style="pointer-events: none;"><path fill="#777777" enable-background="new    " d="M-1684.9-1014.6v2330.1h3870.8v-2330.1H-1684.9z M500.5,300.5H0.5V0.5h500
	V300.5z"></path></g></svg>