<svg xmlns="http://www.w3.org/2000/svg" version="1.1" xmlns:xlink="http://www.w3.org/1999/xlink" xmlns:svgjs="http://svgjs.dev/svgjs" width="100%" height="100%" viewBox="1 1 499 365.70001220703125" preserveAspectRatio="none" data-info="{&quot;_id&quot;:4,&quot;name&quot;:&quot;POLE POCKET SOCCER BANNERS&quot;,&quot;information&quot;:&quot;- Size: 3’x5’\n- Material: heavy duty vinyl banner\n- Digitally printed on vinyl&quot;,&quot;price&quot;:&quot;95.00&quot;,&quot;sale_price&quot;:&quot;89.99&quot;,&quot;type&quot;:&quot;pole-pocket&quot;,&quot;cover&quot;:{&quot;key&quot;:&quot;assets/models/pole-1628062864266-1631924568908.png&quot;,&quot;url&quot;:&quot;https://lct-designs.s3.us-west-1.amazonaws.com/assets/models/pole-1628062864266-1631924568908.png&quot;},&quot;back&quot;:{&quot;key&quot;:&quot;assets/models/pole-1631924700152.svg&quot;,&quot;url&quot;:&quot;https://lct-designs.s3.us-west-1.amazonaws.com/assets/models/pole-1631924700152.svg&quot;},&quot;mask&quot;:{&quot;key&quot;:&quot;assets/models/pole-mask-1631925211715.svg&quot;,&quot;url&quot;:&quot;https://lct-designs.s3.us-west-1.amazonaws.com/assets/models/pole-mask-1631925211715.svg&quot;},&quot;pos&quot;:&quot;2&quot;,&quot;accessories&quot;:&quot;2,3&quot;}" style="background-color: white;"><g class="model" style="pointer-events: none;"><polygon fill="#FFFFFF" points="0.5,0.5 0.5,67.2 0.5,300.5 0.5,367.2 500.5,367.2 500.5,300.5 500.5,67.2 500.5,0.5 "></polygon></g><image width="760" height="556" xlink:href="https://lct-designs.s3.us-west-1.amazonaws.com/assets/libs/arizona-diamondbacks-2-baseball-banner-1641537571080.png" class="asset background locked" transform="matrix(0.6595323960558116,0,0,0.6595323960558116,0,0)"></image><image width="734" height="760" xlink:href="https://lct-designs.s3.us-west-1.amazonaws.com/assets/libs/arizona-diamondbacks-2-baseball-banner-1640253760858.png" class="asset" transform="matrix(0.2296770811080933,0,0,0.2296770811080933,13.502555847167976,80.615592956543)"></image><image width="623" height="760" xlink:href="https://lct-designs.s3.us-west-1.amazonaws.com/assets/libs/arizona-diamondbacks-2-baseball-banner-1640253782335.png" class="asset" transform="matrix(0.05102688446640969,0,0,0.05102688446640968,194.46638488769534,84.25247955322266)"></image><text fill="#000000" font-family="Impact" font-size="45" stroke-opacity="1" stroke-width="1" stroke="#ffffff" x="187.89822520971393" y="201.73081088645068" transform="matrix(0.39570036530494695,0,0,0.39570036530494695,151.02804565429688,37.457180023193374)" svgjs:data="{&quot;leading&quot;:&quot;1.3&quot;}"><tspan dy="0" x="187.89822520971393" svgjs:data="{&quot;newLined&quot;:true}">PLAYER</tspan></text><image width="623" height="760" xlink:href="https://lct-designs.s3.us-west-1.amazonaws.com/assets/libs/arizona-diamondbacks-2-baseball-banner-1640253782335.png" class="asset" transform="matrix(0.05102689191699029,0,0,0.05102689191699028,298.41430664062506,83.6463394165039)"></image><text fill="#000000" font-family="Impact" font-size="45" stroke-opacity="1" stroke-width="1" stroke="#ffffff" x="187.89822520971393" y="201.73081088645068" transform="matrix(0.39570036530494695,0,0,0.39570036530494695,254.97598266601568,36.851039886474624)" svgjs:data="{&quot;leading&quot;:&quot;1.3&quot;}"><tspan dy="0" x="187.89822520971393" svgjs:data="{&quot;newLined&quot;:true}">PLAYER</tspan></text><image width="623" height="760" xlink:href="https://lct-designs.s3.us-west-1.amazonaws.com/assets/libs/arizona-diamondbacks-2-baseball-banner-1640253782335.png" class="asset" transform="matrix(0.051026899367570884,0,0,0.05102689936757088,405.39282226562506,84.25247955322266)"></image><text fill="#000000" font-family="Impact" font-size="45" stroke-opacity="1" stroke-width="1" stroke="#ffffff" x="187.89822520971393" y="201.73081088645068" transform="matrix(0.39570036530494695,0,0,0.39570036530494695,361.9544982910156,37.457180023193374)" svgjs:data="{&quot;leading&quot;:&quot;1.3&quot;}"><tspan dy="0" x="187.89822520971393" svgjs:data="{&quot;newLined&quot;:true}">PLAYER</tspan></text><image width="623" height="760" xlink:href="https://lct-designs.s3.us-west-1.amazonaws.com/assets/libs/arizona-diamondbacks-2-baseball-banner-1640253782335.png" class="asset" transform="matrix(0.05102689191699029,0,0,0.05102689191699028,196.586898803711,136.38073730468753)"></image><text fill="#000000" font-family="Impact" font-size="45" stroke-opacity="1" stroke-width="1" stroke="#ffffff" x="187.89822520971393" y="201.73081088645068" transform="matrix(0.39570036530494695,0,0,0.39570036530494695,153.14855957031253,89.5854377746582)" svgjs:data="{&quot;leading&quot;:&quot;1.3&quot;}"><tspan dy="0" x="187.89822520971393" svgjs:data="{&quot;newLined&quot;:true}">PLAYER</tspan></text><image width="623" height="760" xlink:href="https://lct-designs.s3.us-west-1.amazonaws.com/assets/libs/arizona-diamondbacks-2-baseball-banner-1640253782335.png" class="asset" transform="matrix(0.051026899367570884,0,0,0.05102689936757088,300.5348205566407,135.77459716796875)"></image><text fill="#000000" font-family="Impact" font-size="45" stroke-opacity="1" stroke-width="1" stroke="#ffffff" x="187.89822520971393" y="201.73081088645068" transform="matrix(0.39570036530494695,0,0,0.39570036530494695,257.0964965820313,88.97929763793948)" svgjs:data="{&quot;leading&quot;:&quot;1.3&quot;}"><tspan dy="0" x="187.89822520971393" svgjs:data="{&quot;newLined&quot;:true}">PLAYER</tspan></text><image width="623" height="760" xlink:href="https://lct-designs.s3.us-west-1.amazonaws.com/assets/libs/arizona-diamondbacks-2-baseball-banner-1640253782335.png" class="asset" transform="matrix(0.05102691054344178,0,0,0.05102691054344178,407.5133361816406,136.38073730468753)"></image><text fill="#000000" font-family="Impact" font-size="45" stroke-opacity="1" stroke-width="1" stroke="#ffffff" x="187.89822520971393" y="201.73081088645068" transform="matrix(0.39570036530494695,0,0,0.39570036530494695,364.0750122070313,89.5854377746582)" svgjs:data="{&quot;leading&quot;:&quot;1.3&quot;}"><tspan dy="0" x="187.89822520971393" svgjs:data="{&quot;newLined&quot;:true}">PLAYER</tspan></text><image width="623" height="760" xlink:href="https://lct-designs.s3.us-west-1.amazonaws.com/assets/libs/arizona-diamondbacks-2-baseball-banner-1640253782335.png" class="asset" transform="matrix(0.051026899367570884,0,0,0.05102689936757088,194.46458435058597,187.90284729003912)"></image><text fill="#000000" font-family="Impact" font-size="45" stroke-opacity="1" stroke-width="1" stroke="#ffffff" x="187.89822520971393" y="201.73081088645068" transform="matrix(0.39570036530494695,0,0,0.39570036530494695,151.02624511718753,141.10754394531253)" svgjs:data="{&quot;leading&quot;:&quot;1.3&quot;}"><tspan dy="0" x="187.89822520971393" svgjs:data="{&quot;newLined&quot;:true}">PLAYER</tspan></text><image width="623" height="760" xlink:href="https://lct-designs.s3.us-west-1.amazonaws.com/assets/libs/arizona-diamondbacks-2-baseball-banner-1640253782335.png" class="asset" transform="matrix(0.05102691054344178,0,0,0.05102691054344178,298.4125061035156,187.29670715332037)"></image><text fill="#000000" font-family="Impact" font-size="45" stroke-opacity="1" stroke-width="1" stroke="#ffffff" x="187.89822520971393" y="201.73081088645068" transform="matrix(0.39570036530494695,0,0,0.39570036530494695,254.9741821289063,140.50140380859378)" svgjs:data="{&quot;leading&quot;:&quot;1.3&quot;}"><tspan dy="0" x="187.89822520971393" svgjs:data="{&quot;newLined&quot;:true}">PLAYER</tspan></text><image width="623" height="760" xlink:href="https://lct-designs.s3.us-west-1.amazonaws.com/assets/libs/arizona-diamondbacks-2-baseball-banner-1640253782335.png" class="asset" transform="matrix(0.05102692544460297,0,0,0.05102692544460297,405.3910217285156,187.90284729003912)"></image><text fill="#000000" font-family="Impact" font-size="45" stroke-opacity="1" stroke-width="1" stroke="#ffffff" x="187.89822520971393" y="201.73081088645068" transform="matrix(0.39570036530494695,0,0,0.39570036530494695,361.95269775390625,141.10754394531253)" svgjs:data="{&quot;leading&quot;:&quot;1.3&quot;}"><tspan dy="0" x="187.89822520971393" svgjs:data="{&quot;newLined&quot;:true}">PLAYER</tspan></text><image width="623" height="760" xlink:href="https://lct-designs.s3.us-west-1.amazonaws.com/assets/libs/arizona-diamondbacks-2-baseball-banner-1640253782335.png" class="asset" transform="matrix(0.05102691054344178,0,0,0.05102691054344178,192.342269897461,238.21267700195318)"></image><text fill="#000000" font-family="Impact" font-size="45" stroke-opacity="1" stroke-width="1" stroke="#ffffff" x="187.89822520971393" y="201.73081088645068" transform="matrix(0.39570036530494695,0,0,0.39570036530494695,148.90393066406253,191.41737365722662)" svgjs:data="{&quot;leading&quot;:&quot;1.3&quot;}"><tspan dy="0" x="187.89822520971393" svgjs:data="{&quot;newLined&quot;:true}">PLAYER</tspan></text><image width="623" height="760" xlink:href="https://lct-designs.s3.us-west-1.amazonaws.com/assets/libs/arizona-diamondbacks-2-baseball-banner-1640253782335.png" class="asset" transform="matrix(0.05102692544460297,0,0,0.05102692544460297,296.2901916503906,237.60653686523443)"></image><text fill="#000000" font-family="Impact" font-size="45" stroke-opacity="1" stroke-width="1" stroke="#ffffff" x="187.89822520971393" y="201.73081088645068" transform="matrix(0.39570036530494695,0,0,0.39570036530494695,252.8518676757813,190.81123352050787)" svgjs:data="{&quot;leading&quot;:&quot;1.3&quot;}"><tspan dy="0" x="187.89822520971393" svgjs:data="{&quot;newLined&quot;:true}">PLAYER</tspan></text><image width="623" height="760" xlink:href="https://lct-designs.s3.us-west-1.amazonaws.com/assets/libs/arizona-diamondbacks-2-baseball-banner-1640253782335.png" class="asset" transform="matrix(0.05102693289518357,0,0,0.05102693289518357,403.2687072753906,238.21267700195318)"></image><text fill="#000000" font-family="Impact" font-size="45" stroke-opacity="1" stroke-width="1" stroke="#ffffff" x="187.89822520971393" y="201.73081088645068" transform="matrix(0.39570036530494695,0,0,0.39570036530494695,359.83038330078125,191.41737365722662)" svgjs:data="{&quot;leading&quot;:&quot;1.3&quot;}"><tspan dy="0" x="187.89822520971393" svgjs:data="{&quot;newLined&quot;:true}">PLAYER</tspan></text><text fill="#000000" font-family="Impact" font-size="45" stroke-opacity="1" stroke-width="1" stroke="#ffffff" x="187.89822520971393" y="201.73081088645068" transform="matrix(0.39570036530494695,0,0,0.39570036530494695,-48.99374389648438,193.2357940673828)" svgjs:data="{&quot;leading&quot;:&quot;1.3&quot;}"><tspan dy="0" x="187.89822520971393" svgjs:data="{&quot;newLined&quot;:true}">Coach: Coach name</tspan></text><g class="mask" style="pointer-events: none;"><g><path fill="#BCBEC0" d="M-3642.4-2101.7v4589.1h7813.4v-4589.1H-3642.4z M500.5,67.2v233.3v66.7H0.5v-66.7V67.2V0.5h500V67.2z" transform="matrix(1,0,0,1,0,0)"></path><g transform="matrix(1,0,0,1,0,0)">
	<rect x="0.5" y="300.5" opacity="0.95" fill="#F1F2F2" width="500" height="66.7"></rect>
	<rect x="0.5" y="0.5" opacity="0.95" fill="#F1F2F2" width="500" height="66.7"></rect>
</g></g></g></svg>