<svg xmlns="http://www.w3.org/2000/svg" version="1.1" xmlns:xlink="http://www.w3.org/1999/xlink" xmlns:svgjs="http://svgjs.dev/svgjs" width="100%" height="100%" viewBox="1 1 499 365.70001220703125" preserveAspectRatio="none" data-info="{&quot;_id&quot;:4,&quot;name&quot;:&quot;POLE POCKET SOCCER BANNERS&quot;,&quot;information&quot;:&quot;- Size: 3’x5’\n- Material: heavy duty vinyl banner\n- Digitally printed on vinyl&quot;,&quot;price&quot;:&quot;95.00&quot;,&quot;sale_price&quot;:&quot;89.99&quot;,&quot;type&quot;:&quot;pole-pocket&quot;,&quot;cover&quot;:{&quot;key&quot;:&quot;assets/models/pole-1628062864266-1631924568908.png&quot;,&quot;url&quot;:&quot;https://lct-designs.s3.us-west-1.amazonaws.com/assets/models/pole-1628062864266-1631924568908.png&quot;},&quot;back&quot;:{&quot;key&quot;:&quot;assets/models/pole-1631924700152.svg&quot;,&quot;url&quot;:&quot;https://lct-designs.s3.us-west-1.amazonaws.com/assets/models/pole-1631924700152.svg&quot;},&quot;mask&quot;:{&quot;key&quot;:&quot;assets/models/pole-mask-1631925211715.svg&quot;,&quot;url&quot;:&quot;https://lct-designs.s3.us-west-1.amazonaws.com/assets/models/pole-mask-1631925211715.svg&quot;},&quot;pos&quot;:&quot;2&quot;,&quot;accessories&quot;:&quot;2,3&quot;}" style="background-color: white;"><g class="model" style="pointer-events: none;"><polygon fill="#FFFFFF" points="0.5,0.5 0.5,67.2 0.5,300.5 0.5,367.2 500.5,367.2 500.5,300.5 500.5,67.2 500.5,0.5 "></polygon></g><image width="760" height="556" xlink:href="https://lct-designs.s3.us-west-1.amazonaws.com/assets/libs/arizona-baseball-banner-1641537571080.png" class="asset background locked" transform="matrix(0.6595323960558116,0,0,0.6595323960558116,0,0)"></image><image width="760" height="651" xlink:href="https://lct-designs.s3.us-west-1.amazonaws.com/assets/libs/arizona-2-baseball-banner-1640253760858.png" class="asset" transform="matrix(0.26379233598709106,0,0,0.26379233598709106,284.85620117187506,116.27535247802736)"></image><image width="760" height="564" xlink:href="https://lct-designs.s3.us-west-1.amazonaws.com/assets/libs/arizona-2-baseball-banner-1640253782335.png" class="asset" transform="matrix(0.04882694780826569,0,0,0.04882694780826569,183.02876281738284,263.83642578125006)"></image><text fill="#000000" font-family="Impact" font-size="45" stroke-opacity="1" stroke-width="1" stroke="#ffffff" x="191.93505229711627" y="201.73081088645068" transform="matrix(0.46162396669387823,0,0,0.46162396669387823,135.48663330078128,193.8444366455078)" svgjs:data="{&quot;leading&quot;:&quot;1.3&quot;}"><tspan dy="0" x="191.93505229711627" svgjs:data="{&quot;newLined&quot;:true}">Player</tspan></text><image width="648" height="760" xlink:href="https://lct-designs.s3.us-west-1.amazonaws.com/assets/libs/arizona-baseball-banner-1640253743217.png" class="asset" transform="matrix(0.223296657204628,0,0,0.22329665720462802,17.31597900390625,113.95343780517581)"></image><image width="760" height="564" xlink:href="https://lct-designs.s3.us-west-1.amazonaws.com/assets/libs/arizona-2-baseball-banner-1640253782335.png" class="asset" transform="matrix(0.04882695898413659,0,0,0.04882695898413658,102.11140441894534,231.7108612060547)"></image><text fill="#000000" font-family="Impact" font-size="45" stroke-opacity="1" stroke-width="1" stroke="#ffffff" x="191.93505229711627" y="201.73081088645068" transform="matrix(0.46162396669387823,0,0,0.46162396669387823,54.56927490234376,161.71887207031256)" svgjs:data="{&quot;leading&quot;:&quot;1.3&quot;}"><tspan dy="0" x="191.93505229711627" svgjs:data="{&quot;newLined&quot;:true}">Player</tspan></text><image width="760" height="564" xlink:href="https://lct-designs.s3.us-west-1.amazonaws.com/assets/libs/arizona-2-baseball-banner-1640253782335.png" class="asset" transform="matrix(0.048826970160007484,0,0,0.048826970160007484,209.6960144042969,213.526596069336)"></image><text fill="#000000" font-family="Impact" font-size="45" stroke-opacity="1" stroke-width="1" stroke="#ffffff" x="191.93505229711627" y="201.73081088645068" transform="matrix(0.46162396669387823,0,0,0.46162396669387823,162.15388488769537,143.53460693359378)" svgjs:data="{&quot;leading&quot;:&quot;1.3&quot;}"><tspan dy="0" x="191.93505229711627" svgjs:data="{&quot;newLined&quot;:true}">Player</tspan></text><image width="760" height="564" xlink:href="https://lct-designs.s3.us-west-1.amazonaws.com/assets/libs/arizona-2-baseball-banner-1640253782335.png" class="asset" transform="matrix(0.04882698506116867,0,0,0.04882698506116868,232.42446899414068,165.64134216308594)"></image><text fill="#000000" font-family="Impact" font-size="45" stroke-opacity="1" stroke-width="1" stroke="#ffffff" x="191.93505229711627" y="201.73081088645068" transform="matrix(0.46162396669387823,0,0,0.46162396669387823,184.8823394775391,95.64935302734378)" svgjs:data="{&quot;leading&quot;:&quot;1.3&quot;}"><tspan dy="0" x="191.93505229711627" svgjs:data="{&quot;newLined&quot;:true}">Player</tspan></text><image width="760" height="564" xlink:href="https://lct-designs.s3.us-west-1.amazonaws.com/assets/libs/arizona-2-baseball-banner-1640253782335.png" class="asset" transform="matrix(0.048826992511749275,0,0,0.048826992511749275,253.3345336914063,120.18064880371094)"></image><text fill="#000000" font-family="Impact" font-size="45" stroke-opacity="1" stroke-width="1" stroke="#ffffff" x="191.93505229711627" y="201.73081088645068" transform="matrix(0.46162396669387823,0,0,0.46162396669387823,205.79240417480472,50.188659667968764)" svgjs:data="{&quot;leading&quot;:&quot;1.3&quot;}"><tspan dy="0" x="191.93505229711627" svgjs:data="{&quot;newLined&quot;:true}">Player</tspan></text><image width="760" height="564" xlink:href="https://lct-designs.s3.us-west-1.amazonaws.com/assets/libs/arizona-2-baseball-banner-1640253782335.png" class="asset" transform="matrix(0.04882700368762017,0,0,0.04882700368762016,140.89916992187503,139.57720947265628)"></image><text fill="#000000" font-family="Impact" font-size="45" stroke-opacity="1" stroke-width="1" stroke="#ffffff" x="191.93505229711627" y="201.73081088645068" transform="matrix(0.46162396669387823,0,0,0.46162396669387823,93.35704040527344,69.58522033691406)" svgjs:data="{&quot;leading&quot;:&quot;1.3&quot;}"><tspan dy="0" x="191.93505229711627" svgjs:data="{&quot;newLined&quot;:true}">Player</tspan></text><image width="760" height="564" xlink:href="https://lct-designs.s3.us-west-1.amazonaws.com/assets/libs/arizona-2-baseball-banner-1640253782335.png" class="asset" transform="matrix(0.04882701113820077,0,0,0.04882701113820076,163.6275787353516,89.87352752685547)"></image><text fill="#000000" font-family="Impact" font-size="45" stroke-opacity="1" stroke-width="1" stroke="#ffffff" x="191.93505229711627" y="201.73081088645068" transform="matrix(0.46162396669387823,0,0,0.46162396669387823,116.08544921875003,19.881538391113295)" svgjs:data="{&quot;leading&quot;:&quot;1.3&quot;}"><tspan dy="0" x="191.93505229711627" svgjs:data="{&quot;newLined&quot;:true}">Player</tspan></text><image width="760" height="564" xlink:href="https://lct-designs.s3.us-west-1.amazonaws.com/assets/libs/arizona-2-baseball-banner-1640253782335.png" class="asset" transform="matrix(0.048827018588781364,0,0,0.04882701858878136,20.886428833007812,81.9936752319336)"></image><text fill="#000000" font-family="Impact" font-size="45" stroke-opacity="1" stroke-width="1" stroke="#ffffff" x="191.93505229711627" y="201.73081088645068" transform="matrix(0.46162396669387823,0,0,0.46162396669387823,-26.65570068359375,12.00168609619142)" svgjs:data="{&quot;leading&quot;:&quot;1.3&quot;}"><tspan dy="0" x="191.93505229711627" svgjs:data="{&quot;newLined&quot;:true}">Player</tspan></text><text fill="#000000" font-family="Impact" font-size="45" stroke-opacity="1" stroke-width="1" stroke="#ffffff" x="191.93505229711627" y="201.73081088645068" transform="matrix(0.46162396669387823,0,0,0.46162396669387823,223.67190551757812,4.121826648712158)" svgjs:data="{&quot;leading&quot;:&quot;1.3&quot;}"><tspan dy="0" x="191.93505229711627" svgjs:data="{&quot;newLined&quot;:true}">Coach: Coach name</tspan></text><g class="mask" style="pointer-events: none;"><g><path fill="#BCBEC0" d="M-3642.4-2101.7v4589.1h7813.4v-4589.1H-3642.4z M500.5,67.2v233.3v66.7H0.5v-66.7V67.2V0.5h500V67.2z" transform="matrix(1,0,0,1,0,0)"></path><g transform="matrix(1,0,0,1,0,0)">
	<rect x="0.5" y="300.5" opacity="0.95" fill="#F1F2F2" width="500" height="66.7"></rect>
	<rect x="0.5" y="0.5" opacity="0.95" fill="#F1F2F2" width="500" height="66.7"></rect>
</g></g></g></svg>