<svg xmlns="http://www.w3.org/2000/svg" version="1.1" xmlns:xlink="http://www.w3.org/1999/xlink" xmlns:svgjs="http://svgjs.dev/svgjs" width="100%" height="100%" viewBox="1 1 499 365.70001220703125" preserveAspectRatio="none" data-info="{&quot;_id&quot;:4,&quot;name&quot;:&quot;POLE POCKET SOCCER BANNERS&quot;,&quot;information&quot;:&quot;- Size: 3’x5’\n- Material: heavy duty vinyl banner\n- Digitally printed on vinyl&quot;,&quot;price&quot;:&quot;95.00&quot;,&quot;sale_price&quot;:&quot;89.99&quot;,&quot;type&quot;:&quot;pole-pocket&quot;,&quot;cover&quot;:{&quot;key&quot;:&quot;assets/models/pole-1628062864266-1631924568908.png&quot;,&quot;url&quot;:&quot;https://lct-designs.s3.us-west-1.amazonaws.com/assets/models/pole-1628062864266-1631924568908.png&quot;},&quot;back&quot;:{&quot;key&quot;:&quot;assets/models/pole-1631924700152.svg&quot;,&quot;url&quot;:&quot;https://lct-designs.s3.us-west-1.amazonaws.com/assets/models/pole-1631924700152.svg&quot;},&quot;mask&quot;:{&quot;key&quot;:&quot;assets/models/pole-mask-1631925211715.svg&quot;,&quot;url&quot;:&quot;https://lct-designs.s3.us-west-1.amazonaws.com/assets/models/pole-mask-1631925211715.svg&quot;},&quot;pos&quot;:&quot;2&quot;,&quot;accessories&quot;:&quot;2,3&quot;}" style="background-color: white;"><g class="model" style="pointer-events: none;"><polygon fill="#FFFFFF" points="0.5,0.5 0.5,67.2 0.5,300.5 0.5,367.2 500.5,367.2 500.5,300.5 500.5,67.2 500.5,0.5 "></polygon></g><image width="760" height="556" xlink:href="https://lct-designs.s3.us-west-1.amazonaws.com/assets/libs/angrybirds-baseball-banner-1641537571079.png" class="asset background locked" transform="matrix(0.6595323960558116,0,0,0.6595323960558116,0,0)"></image><image width="760" height="243" xlink:href="https://lct-designs.s3.us-west-1.amazonaws.com/assets/libs/angrybirds-baseball-banner-1640253760858.png" class="asset" transform="matrix(0.4558396339416504,0,0,0.45583963394165045,18.16530990600586,114.6287536621094)"></image><image width="760" height="553" xlink:href="https://lct-designs.s3.us-west-1.amazonaws.com/assets/libs/angrybirds-baseball-banner-1640253743216.png" class="asset" transform="matrix(0.21049670875072482,0,0,0.21049670875072482,334.58493041992193,177.2755737304688)"></image><image width="689" height="760" xlink:href="https://lct-designs.s3.us-west-1.amazonaws.com/assets/libs/angels-3-baseball-banner-1640253782335.png" class="asset" transform="matrix(0.040658749639987946,0,0,0.04065874963998795,211.24937438964847,260.63995373249054)"></image><image width="689" height="760" xlink:href="https://lct-designs.s3.us-west-1.amazonaws.com/assets/libs/angels-3-baseball-banner-1640253782335.png" class="asset" transform="matrix(0.040658749639987946,0,0,0.04065874963998795,297.6217651367188,259.42767333984375)"></image><text fill="#ffffff" font-family="Eras Bold ITC" font-size="45" stroke-opacity="1" stroke-width="0" stroke="#ffffff" x="159.53327693700885" y="198.70016551596729" transform="matrix(0.3648149967193604,0,0,0.36481499671936035,222.3560180664063,178.60850524902344)" svgjs:data="{&quot;leading&quot;:&quot;1.3&quot;}"><tspan dy="0" x="159.53327693700885" svgjs:data="{&quot;newLined&quot;:true}">PLAYER</tspan></text><text fill="#ffffff" font-family="Eras Bold ITC" font-size="45" stroke-opacity="1" stroke-width="0" stroke="#ffffff" x="159.53327693700885" y="198.70016551596729" transform="matrix(0.3648150861263275,0,0,0.36481508612632757,135.98362731933597,179.2146455049515)" svgjs:data="{&quot;leading&quot;:&quot;1.3&quot;}"><tspan dy="0" x="159.53327693700885" svgjs:data="{&quot;newLined&quot;:true}">PLAYER</tspan></text><image width="689" height="760" xlink:href="https://lct-designs.s3.us-west-1.amazonaws.com/assets/libs/angels-3-baseball-banner-1640253782335.png" class="asset" transform="matrix(0.040658749639987946,0,0,0.04065874963998795,119.11980438232422,260.0338135957718)"></image><text fill="#ffffff" font-family="Eras Bold ITC" font-size="45" stroke-opacity="1" stroke-width="0" stroke="#ffffff" x="159.53327693700885" y="198.70016551596729" transform="matrix(0.3648150861263275,0,0,0.36481508612632757,43.854057312011726,179.82078564167023)" svgjs:data="{&quot;leading&quot;:&quot;1.3&quot;}"><tspan dy="0" x="159.53327693700885" svgjs:data="{&quot;newLined&quot;:true}">PLAYER</tspan></text><image width="689" height="760" xlink:href="https://lct-designs.s3.us-west-1.amazonaws.com/assets/libs/angels-3-baseball-banner-1640253782335.png" class="asset" transform="matrix(0.040658749639987946,0,0,0.04065874963998795,31.53517150878907,260.63995373249054)"></image><text fill="#ffffff" font-family="Eras Bold ITC" font-size="45" stroke-opacity="1" stroke-width="0" stroke="#ffffff" x="159.53327693700885" y="198.70016551596729" transform="matrix(0.3648150861263275,0,0,0.36481508612632757,-43.73057556152344,179.2146455049515)" svgjs:data="{&quot;leading&quot;:&quot;1.3&quot;}"><tspan dy="0" x="159.53327693700885" svgjs:data="{&quot;newLined&quot;:true}">PLAYER</tspan></text><text fill="#ffffff" font-family="Eras Bold ITC" font-size="45" stroke-opacity="1" stroke-width="0" stroke="#ffffff" x="159.53327693700885" y="198.70016551596729" transform="matrix(0.3648150861263275,0,0,0.36481508612632757,-42.82049560546876,22.8298797607422)" svgjs:data="{&quot;leading&quot;:&quot;1.3&quot;}"><tspan dy="0" x="159.53327693700885" svgjs:data="{&quot;newLined&quot;:true}">PLAYER</tspan></text><image width="689" height="760" xlink:href="https://lct-designs.s3.us-west-1.amazonaws.com/assets/libs/angels-3-baseball-banner-1640253782335.png" class="asset" transform="matrix(0.040658749639987946,0,0,0.04065874963998795,32.44525146484376,103.6490478515625)"></image><text fill="#ffffff" font-family="Eras Bold ITC" font-size="45" stroke-opacity="1" stroke-width="0" stroke="#ffffff" x="159.53327693700885" y="198.70016551596729" transform="matrix(0.36481526494026184,0,0,0.3648152649402619,43.55007934570313,28.89130401611328)" svgjs:data="{&quot;leading&quot;:&quot;1.3&quot;}"><tspan dy="0" x="159.53327693700885" svgjs:data="{&quot;newLined&quot;:true}">PLAYER</tspan></text><image width="689" height="760" xlink:href="https://lct-designs.s3.us-west-1.amazonaws.com/assets/libs/angels-3-baseball-banner-1640253782335.png" class="asset" transform="matrix(0.040658749639987946,0,0,0.04065874963998795,118.81582641601565,109.7104721069336)"></image><text fill="#ffffff" font-family="Eras Bold ITC" font-size="45" stroke-opacity="1" stroke-width="0" stroke="#ffffff" x="159.53327693700885" y="198.70016551596729" transform="matrix(0.3648155629634858,0,0,0.3648155629634858,259.9315795898438,31.922012329101562)" svgjs:data="{&quot;leading&quot;:&quot;1.3&quot;}"><tspan dy="0" x="159.53327693700885" svgjs:data="{&quot;newLined&quot;:true}">PLAYER</tspan></text><text fill="#ffffff" font-family="Eras Bold ITC" font-size="45" stroke-opacity="1" stroke-width="0" stroke="#ffffff" x="159.53327693700885" y="198.70016551596729" transform="matrix(0.36481550335884094,0,0,0.364815503358841,162.65090942382815,35.55886840820314)" svgjs:data="{&quot;leading&quot;:&quot;1.3&quot;}"><tspan dy="0" x="159.53327693700885" svgjs:data="{&quot;newLined&quot;:true}">PLAYER</tspan></text><image width="689" height="760" xlink:href="https://lct-designs.s3.us-west-1.amazonaws.com/assets/libs/angels-3-baseball-banner-1640253782335.png" class="asset" transform="matrix(0.040658749639987946,0,0,0.04065874963998795,237.91665649414068,116.37803649902344)"></image><image width="689" height="760" xlink:href="https://lct-designs.s3.us-west-1.amazonaws.com/assets/libs/angels-3-baseball-banner-1640253782335.png" class="asset" transform="matrix(0.040658749639987946,0,0,0.04065874963998795,335.1973266601563,112.74118041992188)"></image><text fill="#ffffff" font-family="Eras Bold ITC" font-size="45" stroke-opacity="1" stroke-width="0" stroke="#ffffff" x="159.53327693700885" y="198.70016551596729" transform="matrix(0.3648154735565186,0,0,0.36481547355651855,359.0305786132813,24.648300170898438)" svgjs:data="{&quot;leading&quot;:&quot;1.3&quot;}"><tspan dy="0" x="159.53327693700885" svgjs:data="{&quot;newLined&quot;:true}">PLAYER</tspan></text><image width="689" height="760" xlink:href="https://lct-designs.s3.us-west-1.amazonaws.com/assets/libs/angels-3-baseball-banner-1640253782335.png" class="asset" transform="matrix(0.040658749639987946,0,0,0.04065874963998795,434.29632568359375,105.46746826171878)"></image><g class="mask" style="pointer-events: none;"><g><path fill="#BCBEC0" d="M-3642.4-2101.7v4589.1h7813.4v-4589.1H-3642.4z M500.5,67.2v233.3v66.7H0.5v-66.7V67.2V0.5h500V67.2z" transform="matrix(1,0,0,1,0,0)"></path><g transform="matrix(1,0,0,1,0,0)">
	<rect x="0.5" y="300.5" opacity="0.95" fill="#F1F2F2" width="500" height="66.7"></rect>
	<rect x="0.5" y="0.5" opacity="0.95" fill="#F1F2F2" width="500" height="66.7"></rect>
</g></g></g></svg>