<svg xmlns="http://www.w3.org/2000/svg" version="1.1" xmlns:xlink="http://www.w3.org/1999/xlink" xmlns:svgjs="http://svgjs.dev/svgjs" width="100%" height="100%" viewBox="1 1 499 365.70001220703125" preserveAspectRatio="none" data-info="{&quot;_id&quot;:4,&quot;name&quot;:&quot;POLE POCKET SOCCER BANNERS&quot;,&quot;information&quot;:&quot;- Size: 3’x5’\n- Material: heavy duty vinyl banner\n- Digitally printed on vinyl&quot;,&quot;price&quot;:&quot;95.00&quot;,&quot;sale_price&quot;:&quot;89.99&quot;,&quot;type&quot;:&quot;pole-pocket&quot;,&quot;cover&quot;:{&quot;key&quot;:&quot;assets/models/pole-1628062864266-1631924568908.png&quot;,&quot;url&quot;:&quot;https://lct-designs.s3.us-west-1.amazonaws.com/assets/models/pole-1628062864266-1631924568908.png&quot;},&quot;back&quot;:{&quot;key&quot;:&quot;assets/models/pole-1631924700152.svg&quot;,&quot;url&quot;:&quot;https://lct-designs.s3.us-west-1.amazonaws.com/assets/models/pole-1631924700152.svg&quot;},&quot;mask&quot;:{&quot;key&quot;:&quot;assets/models/pole-mask-1631925211715.svg&quot;,&quot;url&quot;:&quot;https://lct-designs.s3.us-west-1.amazonaws.com/assets/models/pole-mask-1631925211715.svg&quot;},&quot;pos&quot;:&quot;2&quot;,&quot;accessories&quot;:&quot;2,3&quot;}" style="background-color: white;"><g class="model" style="pointer-events: none;"><polygon fill="#FFFFFF" points="0.5,0.5 0.5,67.2 0.5,300.5 0.5,367.2 500.5,367.2 500.5,300.5 500.5,67.2 500.5,0.5 "></polygon></g><image width="760" height="556" xlink:href="https://lct-designs.s3.us-west-1.amazonaws.com/assets/libs/atlanta-3-baseball-banner-1641537571081.png" class="asset background locked" transform="matrix(0.6595323960558116,0,0,0.6595323960558116,0,0)"></image><image width="760" height="760" xlink:href="https://lct-designs.s3.us-west-1.amazonaws.com/assets/libs/all-star-5-baseball-banner-1641347784452.png" class="asset" transform="matrix(0.17671553790569308,0,0,0.17671553790569308,282.2117919921875,81.89372253417972)"></image><image width="760" height="283" xlink:href="https://lct-designs.s3.us-west-1.amazonaws.com/assets/libs/atlanta-2-baseball-banner-1640253760859.png" class="asset" transform="matrix(0.3614636957645417,0,0,0.3614636957645417,211.23757934570318,104.4035339355469)"></image><image width="760" height="561" xlink:href="https://lct-designs.s3.us-west-1.amazonaws.com/assets/libs/atlanta-3-baseball-banner-1640253743218.png" class="asset" transform="matrix(0.2254082709550858,0,0,0.22540827095508578,11.579107284545898,170.1001739501953)"></image><image width="760" height="730" xlink:href="https://lct-designs.s3.us-west-1.amazonaws.com/assets/libs/atlanta-2-baseball-banner-1640253782336.png" class="asset" transform="matrix(0.03921653330326081,0,0,0.0392165333032608,16.058551788330085,85.05030059814453)"></image><text fill="#ffffff" font-family="Franklin Gothic" font-size="30" x="131.08058835257464" y="195.0875807668147" transform="matrix(0.7001255154609681,0,0,0.700125515460968,-44.49446105957032,-25.920480728149414)" svgjs:data="{&quot;leading&quot;:&quot;1.3&quot;}"><tspan dy="0" x="131.08058835257464" svgjs:data="{&quot;newLined&quot;:true}">Player</tspan></text><text fill="#ffffff" font-family="Franklin Gothic" font-size="30" x="131.08058835257464" y="195.0875807668147" transform="matrix(0.533464550971985,0,0,0.533464550971985,287.32684326171875,183.95587158203128)" svgjs:data="{&quot;leading&quot;:&quot;1.3&quot;}"><tspan dy="0" x="131.08058835257464" svgjs:data="{&quot;newLined&quot;:true}">Coach: Coach name</tspan></text><image width="760" height="730" xlink:href="https://lct-designs.s3.us-west-1.amazonaws.com/assets/libs/atlanta-2-baseball-banner-1640253782336.png" class="asset" transform="matrix(0.03921653330326081,0,0,0.0392165333032608,128.97114562988284,83.86739349365234)"></image><text fill="#ffffff" font-family="Franklin Gothic" font-size="30" x="131.08058835257464" y="195.0875807668147" transform="matrix(0.7001255154609681,0,0,0.700125515460968,68.41812896728518,-27.1033878326416)" svgjs:data="{&quot;leading&quot;:&quot;1.3&quot;}"><tspan dy="0" x="131.08058835257464" svgjs:data="{&quot;newLined&quot;:true}">Player</tspan></text><image width="760" height="730" xlink:href="https://lct-designs.s3.us-west-1.amazonaws.com/assets/libs/atlanta-2-baseball-banner-1640253782336.png" class="asset" transform="matrix(0.03921653330326081,0,0,0.0392165333032608,17.723571777343757,130.0006103515625)"></image><text fill="#ffffff" font-family="Franklin Gothic" font-size="30" x="131.08058835257464" y="195.0875807668147" transform="matrix(0.7001255154609681,0,0,0.700125515460968,-42.829444885253906,19.029836654663086)" svgjs:data="{&quot;leading&quot;:&quot;1.3&quot;}"><tspan dy="0" x="131.08058835257464" svgjs:data="{&quot;newLined&quot;:true}">Player</tspan></text><image width="760" height="730" xlink:href="https://lct-designs.s3.us-west-1.amazonaws.com/assets/libs/atlanta-2-baseball-banner-1640253782336.png" class="asset" transform="matrix(0.03921653330326081,0,0,0.0392165333032608,128.86180114746097,127.63479614257815)"></image><text fill="#ffffff" font-family="Franklin Gothic" font-size="30" x="131.08058835257464" y="195.0875807668147" transform="matrix(0.7001255154609681,0,0,0.700125515460968,68.30878448486331,16.66402244567871)" svgjs:data="{&quot;leading&quot;:&quot;1.3&quot;}"><tspan dy="0" x="131.08058835257464" svgjs:data="{&quot;newLined&quot;:true}">Player</tspan></text><image width="760" height="730" xlink:href="https://lct-designs.s3.us-west-1.amazonaws.com/assets/libs/atlanta-2-baseball-banner-1640253782336.png" class="asset" transform="matrix(0.03921653330326081,0,0,0.0392165333032608,195.04969787597662,208.66366577148443)"></image><text fill="#ffffff" font-family="Franklin Gothic" font-size="30" x="131.08058835257464" y="195.0875807668147" transform="matrix(0.7001255154609681,0,0,0.700125515460968,134.4966888427735,97.6928939819336)" svgjs:data="{&quot;leading&quot;:&quot;1.3&quot;}"><tspan dy="0" x="131.08058835257464" svgjs:data="{&quot;newLined&quot;:true}">Player</tspan></text><image width="760" height="730" xlink:href="https://lct-designs.s3.us-west-1.amazonaws.com/assets/libs/atlanta-2-baseball-banner-1640253782336.png" class="asset" transform="matrix(0.03921653330326081,0,0,0.0392165333032608,393.7227478027345,211.6209259033203)"></image><text fill="#ffffff" font-family="Franklin Gothic" font-size="30" x="131.08058835257464" y="195.0875807668147" transform="matrix(0.7001255154609681,0,0,0.700125515460968,333.16973876953125,100.65015411376956)" svgjs:data="{&quot;leading&quot;:&quot;1.3&quot;}"><tspan dy="0" x="131.08058835257464" svgjs:data="{&quot;newLined&quot;:true}">Player</tspan></text><image width="760" height="730" xlink:href="https://lct-designs.s3.us-west-1.amazonaws.com/assets/libs/atlanta-2-baseball-banner-1640253782336.png" class="asset" transform="matrix(0.03921653330326081,0,0,0.0392165333032608,167.14208984375003,255.38833618164068)"></image><text fill="#ffffff" font-family="Franklin Gothic" font-size="30" x="131.08058835257464" y="195.0875807668147" transform="matrix(0.7001255154609681,0,0,0.700125515460968,106.5890808105469,144.4175567626953)" svgjs:data="{&quot;leading&quot;:&quot;1.3&quot;}"><tspan dy="0" x="131.08058835257464" svgjs:data="{&quot;newLined&quot;:true}">Player</tspan></text><image width="760" height="730" xlink:href="https://lct-designs.s3.us-west-1.amazonaws.com/assets/libs/atlanta-2-baseball-banner-1640253782336.png" class="asset" transform="matrix(0.03921653330326081,0,0,0.0392165333032608,296.02389526367193,232.91317749023443)"></image><text fill="#ffffff" font-family="Franklin Gothic" font-size="30" x="131.08058835257464" y="195.0875807668147" transform="matrix(0.7001255154609681,0,0,0.700125515460968,235.47087097167974,121.94239807128906)" svgjs:data="{&quot;leading&quot;:&quot;1.3&quot;}"><tspan dy="0" x="131.08058835257464" svgjs:data="{&quot;newLined&quot;:true}">Player</tspan></text><g class="mask" style="pointer-events: none;"><g><path fill="#BCBEC0" d="M-3642.4-2101.7v4589.1h7813.4v-4589.1H-3642.4z M500.5,67.2v233.3v66.7H0.5v-66.7V67.2V0.5h500V67.2z" transform="matrix(1,0,0,1,0,0)"></path><g transform="matrix(1,0,0,1,0,0)">
	<rect x="0.5" y="300.5" opacity="0.95" fill="#F1F2F2" width="500" height="66.7"></rect>
	<rect x="0.5" y="0.5" opacity="0.95" fill="#F1F2F2" width="500" height="66.7"></rect>
</g></g></g></svg>