<svg xmlns="http://www.w3.org/2000/svg" version="1.1" xmlns:xlink="http://www.w3.org/1999/xlink" xmlns:svgjs="http://svgjs.dev/svgjs" width="100%" height="100%" viewBox="1 1 499 365.70001220703125" preserveAspectRatio="none" data-info="{&quot;_id&quot;:4,&quot;name&quot;:&quot;POLE POCKET SOCCER BANNERS&quot;,&quot;information&quot;:&quot;- Size: 3’x5’\n- Material: heavy duty vinyl banner\n- Digitally printed on vinyl&quot;,&quot;price&quot;:&quot;95.00&quot;,&quot;sale_price&quot;:&quot;89.99&quot;,&quot;type&quot;:&quot;pole-pocket&quot;,&quot;cover&quot;:{&quot;key&quot;:&quot;assets/models/pole-1628062864266-1631924568908.png&quot;,&quot;url&quot;:&quot;https://lct-designs.s3.us-west-1.amazonaws.com/assets/models/pole-1628062864266-1631924568908.png&quot;},&quot;back&quot;:{&quot;key&quot;:&quot;assets/models/pole-1631924700152.svg&quot;,&quot;url&quot;:&quot;https://lct-designs.s3.us-west-1.amazonaws.com/assets/models/pole-1631924700152.svg&quot;},&quot;mask&quot;:{&quot;key&quot;:&quot;assets/models/pole-mask-1631925211715.svg&quot;,&quot;url&quot;:&quot;https://lct-designs.s3.us-west-1.amazonaws.com/assets/models/pole-mask-1631925211715.svg&quot;},&quot;pos&quot;:&quot;2&quot;,&quot;accessories&quot;:&quot;2,3&quot;}" style="background-color: white;"><g class="model" style="pointer-events: none;"><polygon fill="#FFFFFF" points="0.5,0.5 0.5,67.2 0.5,300.5 0.5,367.2 500.5,367.2 500.5,300.5 500.5,67.2 500.5,0.5 "></polygon></g><image width="760" height="558" xlink:href="https://lct-designs.s3.us-west-1.amazonaws.com/assets/libs/cubs4-baseball-banner-2-1640655602986.png" class="asset background locked" transform="matrix(0.6587183475494385,0,0,0.6571686267852783,0,0)"></image><image width="709" height="760" xlink:href="https://lct-designs.s3.us-west-1.amazonaws.com/assets/libs/cubs4-baseball-banner-5-1640655729575.png" class="asset" transform="matrix(0.2602141201496124,0,0,0.2602141201496124,170.96420288085938,85.64585113525389)"></image><image width="587" height="760" xlink:href="https://lct-designs.s3.us-west-1.amazonaws.com/assets/libs/cubs4-baseball-banner-7-1640655709331.png" class="asset" transform="matrix(0.1983427107334137,0.00431543681770563,-0.004315436817705631,0.1983427107334137,371.48895263671875,148.4231719970703)"></image><image width="760" height="760" xlink:href="https://lct-designs.s3.us-west-1.amazonaws.com/assets/libs/cubs4-baseball-banner-6-1640655751448.png" class="asset" transform="matrix(0.028345605358481407,0,0,0.028345605358481407,136.5382843017578,101.85324859619142)"></image><text fill="#ffffff" font-family="Discoteca Rounded" font-size="45" x="192.56762254174953" y="198.86781808732547" transform="matrix(0.43431583046913147,0,0,0.43431583046913147,43.59060287475586,11.514286041259751)" svgjs:data="{&quot;leading&quot;:&quot;1.3&quot;}"><tspan dy="0" x="192.56762254174953" svgjs:data="{&quot;newLined&quot;:true}">Player</tspan></text><image width="760" height="760" xlink:href="https://lct-designs.s3.us-west-1.amazonaws.com/assets/libs/cubs4-baseball-banner-6-1640655751448.png" class="asset" transform="matrix(0.028345605358481407,0,0,0.028345605358481407,134.30702209472656,162.3784942626953)"></image><text fill="#940000" font-family="Discoteca Rounded" font-size="45" x="192.56762254174953" y="198.86781808732547" transform="matrix(0.43431589007377625,0,0,0.43431589007377625,41.35935211181642,72.03953552246092)" svgjs:data="{&quot;leading&quot;:&quot;1.3&quot;}"><tspan dy="0" x="192.56762254174953" svgjs:data="{&quot;newLined&quot;:true}">Player</tspan></text><image width="760" height="760" xlink:href="https://lct-designs.s3.us-west-1.amazonaws.com/assets/libs/cubs4-baseball-banner-6-1640655751448.png" class="asset" transform="matrix(0.028345605358481407,0,0,0.028345605358481407,75.87622070312501,161.83717346191406)"></image><text fill="#940000" font-family="Discoteca Rounded" font-size="45" x="192.56762254174953" y="198.86781808732547" transform="matrix(0.43431589007377625,0,0,0.43431589007377625,-17.071443557739258,71.49822998046874)" svgjs:data="{&quot;leading&quot;:&quot;1.3&quot;}"><tspan dy="0" x="192.56762254174953" svgjs:data="{&quot;newLined&quot;:true}">Player</tspan></text><image width="760" height="760" xlink:href="https://lct-designs.s3.us-west-1.amazonaws.com/assets/libs/cubs4-baseball-banner-6-1640655751448.png" class="asset" transform="matrix(0.028345605358481407,0,0,0.028345605358481407,21.615568161010746,161.24822998046875)"></image><text fill="#940000" font-family="Discoteca Rounded" font-size="45" x="192.56762254174953" y="198.86781808732547" transform="matrix(0.43431583046913147,0,0,0.43431583046913147,-71.33209991455078,70.90927886962892)" svgjs:data="{&quot;leading&quot;:&quot;1.3&quot;}"><tspan dy="0" x="192.56762254174953" svgjs:data="{&quot;newLined&quot;:true}">Player</tspan></text><image width="760" height="760" xlink:href="https://lct-designs.s3.us-west-1.amazonaws.com/assets/libs/cubs4-baseball-banner-6-1640655751448.png" class="asset" transform="matrix(0.028345605358481407,0,0,0.028345605358481407,133.23641967773438,217.95935058593744)"></image><text fill="#940000" font-family="Discoteca Rounded" font-size="45" x="192.56762254174953" y="198.86781808732547" transform="matrix(0.43431591987609863,0,0,0.43431591987609863,40.28874969482422,127.6204071044922)" svgjs:data="{&quot;leading&quot;:&quot;1.3&quot;}"><tspan dy="0" x="192.56762254174953" svgjs:data="{&quot;newLined&quot;:true}">Player</tspan></text><image width="760" height="760" xlink:href="https://lct-designs.s3.us-west-1.amazonaws.com/assets/libs/cubs4-baseball-banner-6-1640655751448.png" class="asset" transform="matrix(0.028345605358481407,0,0,0.028345605358481407,74.80562591552736,217.41802978515625)"></image><text fill="#940000" font-family="Discoteca Rounded" font-size="45" x="192.56762254174953" y="198.86781808732547" transform="matrix(0.43431591987609863,0,0,0.43431591987609863,-18.142044067382812,127.07908630371095)" svgjs:data="{&quot;leading&quot;:&quot;1.3&quot;}"><tspan dy="0" x="192.56762254174953" svgjs:data="{&quot;newLined&quot;:true}">Player</tspan></text><image width="760" height="760" xlink:href="https://lct-designs.s3.us-west-1.amazonaws.com/assets/libs/cubs4-baseball-banner-6-1640655751448.png" class="asset" transform="matrix(0.028345605358481407,0,0,0.028345605358481407,20.544967651367184,216.82908630371094)"></image><text fill="#940000" font-family="Discoteca Rounded" font-size="45" x="192.56762254174953" y="198.86781808732547" transform="matrix(0.43431589007377625,0,0,0.43431589007377625,-72.40270233154298,126.49014282226564)" svgjs:data="{&quot;leading&quot;:&quot;1.3&quot;}"><tspan dy="0" x="192.56762254174953" svgjs:data="{&quot;newLined&quot;:true}">Player</tspan></text><image width="760" height="760" xlink:href="https://lct-designs.s3.us-west-1.amazonaws.com/assets/libs/cubs4-baseball-banner-6-1640655751448.png" class="asset" transform="matrix(0.028345605358481407,0,0,0.028345605358481407,132.833740234375,268.34759521484375)"></image><text fill="#ffffff" font-family="Discoteca Rounded" font-size="45" x="192.56762254174953" y="198.86781808732547" transform="matrix(0.43431589007377625,0,0,0.43431589007377625,39.88606262207031,178.0086212158203)" svgjs:data="{&quot;leading&quot;:&quot;1.3&quot;}"><tspan dy="0" x="192.56762254174953" svgjs:data="{&quot;newLined&quot;:true}">Player</tspan></text><image width="760" height="760" xlink:href="https://lct-designs.s3.us-west-1.amazonaws.com/assets/libs/cubs4-baseball-banner-6-1640655751448.png" class="asset" transform="matrix(0.028345605358481407,0,0,0.028345605358481407,75.9943084716797,267.8062438964843)"></image><text fill="#ffffff" font-family="Discoteca Rounded" font-size="45" x="192.56762254174953" y="198.86781808732547" transform="matrix(0.43431589007377625,0,0,0.43431589007377625,-16.953361511230472,177.467300415039)" svgjs:data="{&quot;leading&quot;:&quot;1.3&quot;}"><tspan dy="0" x="192.56762254174953" svgjs:data="{&quot;newLined&quot;:true}">Player</tspan></text><image width="760" height="760" xlink:href="https://lct-designs.s3.us-west-1.amazonaws.com/assets/libs/cubs4-baseball-banner-6-1640655751448.png" class="asset" transform="matrix(0.028345605358481407,0,0,0.028345605358481407,20.65108108520508,267.2173156738281)"></image><text fill="#ffffff" font-family="Discoteca Rounded" font-size="45" x="192.56762254174953" y="198.86781808732547" transform="matrix(0.43431583046913147,0,0,0.43431583046913147,-72.29658508300783,176.87837219238276)" svgjs:data="{&quot;leading&quot;:&quot;1.3&quot;}"><tspan dy="0" x="192.56762254174953" svgjs:data="{&quot;newLined&quot;:true}">Player</tspan></text><image width="760" height="760" xlink:href="https://lct-designs.s3.us-west-1.amazonaws.com/assets/libs/cubs4-baseball-banner-6-1640655751448.png" class="asset" transform="matrix(0.028345605358481407,0,0,0.028345605358481407,24.35562133789063,100.72299957275389)"></image><text fill="#ffffff" font-family="Discoteca Rounded" font-size="45" x="192.56762254174953" y="198.86781808732547" transform="matrix(0.43431583046913147,0,0,0.43431583046913147,-68.59204864501953,10.384034156799316)" svgjs:data="{&quot;leading&quot;:&quot;1.3&quot;}"><tspan dy="0" x="192.56762254174953" svgjs:data="{&quot;newLined&quot;:true}">Player</tspan></text><image width="760" height="760" xlink:href="https://lct-designs.s3.us-west-1.amazonaws.com/assets/libs/cubs4-baseball-banner-6-1640655751448.png" class="asset" transform="matrix(0.028345605358481407,0,0,0.028345605358481407,79.69885253906251,101.31193542480467)"></image><text fill="#ffffff" font-family="Discoteca Rounded" font-size="45" x="192.56762254174953" y="198.86781808732547" transform="matrix(0.43431589007377625,0,0,0.43431589007377625,-13.248819351196289,10.972970008850083)" svgjs:data="{&quot;leading&quot;:&quot;1.3&quot;}"><tspan dy="0" x="192.56762254174953" svgjs:data="{&quot;newLined&quot;:true}">Player</tspan></text><image width="760" height="760" xlink:href="https://lct-designs.s3.us-west-1.amazonaws.com/assets/libs/cubs4-baseball-banner-6-1640655751448.png" class="asset" transform="matrix(0.028345605358481407,0,0,0.028345605358481407,458.3678894042969,127.22530364990236)"></image><image width="760" height="760" xlink:href="https://lct-designs.s3.us-west-1.amazonaws.com/assets/libs/cubs4-baseball-banner-6-1640655751448.png" class="asset" transform="matrix(0.028345605358481407,0,0,0.028345605358481407,397.1353759765625,126.04743963479997)"></image><text fill="#ffffff" font-family="Discoteca Rounded" font-size="45" x="192.56762254174953" y="198.86781808732547" transform="matrix(0.43431591987609863,0,0,0.43431591987609863,304.1877136230469,35.70847326517105)" svgjs:data="{&quot;leading&quot;:&quot;1.3&quot;}"><tspan dy="0" x="192.56762254174953" svgjs:data="{&quot;newLined&quot;:true}">Player</tspan></text><text fill="#ffffff" font-family="Discoteca Rounded" font-size="45" x="192.56762254174953" y="198.86781808732547" transform="matrix(0.43431591987609863,0,0,0.43431591987609863,365.4202175140381,36.886338233947754)" svgjs:data="{&quot;leading&quot;:&quot;1.3&quot;}"><tspan dy="0" x="192.56762254174953" svgjs:data="{&quot;newLined&quot;:true}">Player</tspan></text><text fill="#ffffff" font-family="Discoteca Rounded" font-size="45" x="192.56762254174953" y="198.86781808732547" transform="matrix(0.43431591987609863,0,0,0.43431591987609863,268.8402404785156,6.261453628540039)" svgjs:data="{&quot;leading&quot;:&quot;1.3&quot;}"><tspan dy="0" x="192.56762254174953" svgjs:data="{&quot;newLined&quot;:true}">Coach: Coach name</tspan></text><g class="mask" style="pointer-events: none;"><g><path fill="#BCBEC0" d="M-3642.4-2101.7v4589.1h7813.4v-4589.1H-3642.4z M500.5,67.2v233.3v66.7H0.5v-66.7V67.2V0.5h500V67.2z" transform="matrix(1,0,0,1,0,0)"></path><g transform="matrix(1,0,0,1,0,0)">
	<rect x="0.5" y="300.5" opacity="0.95" fill="#F1F2F2" width="500" height="66.7"></rect>
	<rect x="0.5" y="0.5" opacity="0.95" fill="#F1F2F2" width="500" height="66.7"></rect>
</g></g></g></svg>