<svg xmlns="http://www.w3.org/2000/svg" version="1.1" xmlns:xlink="http://www.w3.org/1999/xlink" xmlns:svgjs="http://svgjs.dev/svgjs" width="100%" height="100%" viewBox="1 1 499 365.70001220703125" preserveAspectRatio="none" data-info="{&quot;_id&quot;:4,&quot;name&quot;:&quot;POLE POCKET SOCCER BANNERS&quot;,&quot;information&quot;:&quot;- Size: 3’x5’\n- Material: heavy duty vinyl banner\n- Digitally printed on vinyl&quot;,&quot;price&quot;:&quot;95.00&quot;,&quot;sale_price&quot;:&quot;89.99&quot;,&quot;type&quot;:&quot;pole-pocket&quot;,&quot;cover&quot;:{&quot;key&quot;:&quot;assets/models/pole-1628062864266-1631924568908.png&quot;,&quot;url&quot;:&quot;https://lct-designs.s3.us-west-1.amazonaws.com/assets/models/pole-1628062864266-1631924568908.png&quot;},&quot;back&quot;:{&quot;key&quot;:&quot;assets/models/pole-1631924700152.svg&quot;,&quot;url&quot;:&quot;https://lct-designs.s3.us-west-1.amazonaws.com/assets/models/pole-1631924700152.svg&quot;},&quot;mask&quot;:{&quot;key&quot;:&quot;assets/models/pole-mask-1631925211715.svg&quot;,&quot;url&quot;:&quot;https://lct-designs.s3.us-west-1.amazonaws.com/assets/models/pole-mask-1631925211715.svg&quot;},&quot;pos&quot;:&quot;2&quot;,&quot;accessories&quot;:&quot;2,3&quot;}" style="background-color: white;"><g class="model" style="pointer-events: none;"><polygon fill="#FFFFFF" points="0.5,0.5 0.5,67.2 0.5,300.5 0.5,367.2 500.5,367.2 500.5,300.5 500.5,67.2 500.5,0.5 "></polygon></g><image width="760" height="556" xlink:href="https://lct-designs.s3.us-west-1.amazonaws.com/assets/libs/colorado-3-baseball-banner-1-1640655602985.png" class="asset background locked" transform="matrix(0.6595323960558116,0,0,0.6595323960558116,0,0)"></image><image width="760" height="575" xlink:href="https://lct-designs.s3.us-west-1.amazonaws.com/assets/libs/colorado-3-baseball-banner-11-1642039709987.png" class="asset" transform="matrix(0.21658973395824435,0,0,0.21658973395824432,218.14906311035156,107.23995208740233)"></image><image width="760" height="515" xlink:href="https://lct-designs.s3.us-west-1.amazonaws.com/assets/libs/colorado-3-baseball-banner-2-1640655729574.png" class="asset" transform="matrix(0.2665179371833801,0,0,0.2665179371833801,284.2167358398437,81.74031829833984)"></image><image width="729" height="760" xlink:href="https://lct-designs.s3.us-west-1.amazonaws.com/assets/libs/colorado-3-baseball-banner-4-1640655709330.png" class="asset" transform="matrix(0.18582271039485931,0,0,0.18582271039485931,7.693181991577145,154.55186462402344)"></image><image width="760" height="357" xlink:href="https://lct-designs.s3.us-west-1.amazonaws.com/assets/libs/colorado-3-baseball-banner-3-1640655751448.png" class="asset" transform="matrix(0.070542111992836,0,0,0.070542111992836,17.985900878906246,125.11572265625001)"></image><text fill="#ffffff" font-family="DEATHE MAACH NCV" font-size="45" stroke-opacity="1" stroke-width="2" stroke="#000000" x="187.99935090478664" y="200.63461992143192" transform="matrix(0.4598706066608429,0,0,0.4598706066608429,-42.77867126464844,53.07378005981444)" svgjs:data="{&quot;leading&quot;:&quot;1.3&quot;}"><tspan dy="0" x="187.99935090478664" svgjs:data="{&quot;newLined&quot;:true}">PLAYER</tspan></text><image width="760" height="357" xlink:href="https://lct-designs.s3.us-west-1.amazonaws.com/assets/libs/colorado-3-baseball-banner-3-1640655751448.png" class="asset" transform="matrix(0.070542111992836,0,0,0.070542111992836,121.62547302246094,125.11572265625001)"></image><text fill="#ffffff" font-family="DEATHE MAACH NCV" font-size="45" stroke-opacity="1" stroke-width="2" stroke="#000000" x="187.99935090478664" y="200.63461992143192" transform="matrix(0.45987066626548767,0,0,0.45987066626548767,60.86090087890625,53.07378005981444)" svgjs:data="{&quot;leading&quot;:&quot;1.3&quot;}"><tspan dy="0" x="187.99935090478664" svgjs:data="{&quot;newLined&quot;:true}">PLAYER</tspan></text><image width="760" height="357" xlink:href="https://lct-designs.s3.us-west-1.amazonaws.com/assets/libs/colorado-3-baseball-banner-3-1640655751448.png" class="asset" transform="matrix(0.070542111992836,0,0,0.070542111992836,129.26976013183594,168.1083526611328)"></image><text fill="#ffffff" font-family="DEATHE MAACH NCV" font-size="45" stroke-opacity="1" stroke-width="2" stroke="#000000" x="187.99935090478664" y="200.63461992143192" transform="matrix(0.4598708152770996,0,0,0.4598708152770996,67.32733154296875,96.65534210205077)" svgjs:data="{&quot;leading&quot;:&quot;1.3&quot;}"><tspan dy="0" x="187.99935090478664" svgjs:data="{&quot;newLined&quot;:true}">PLAYER</tspan></text><image width="760" height="357" xlink:href="https://lct-designs.s3.us-west-1.amazonaws.com/assets/libs/colorado-3-baseball-banner-3-1640655751448.png" class="asset" transform="matrix(0.07054206728935242,0,0,0.07054206728935242,15.076590538024906,85.65672302246095)"></image><text fill="#ffffff" font-family="DEATHE MAACH NCV" font-size="45" stroke-opacity="1" stroke-width="2" stroke="#000000" x="187.99935090478664" y="200.63461992143192" transform="matrix(0.4598703682422638,0,0,0.4598703682422638,-45.68798065185547,13.614778518676758)" svgjs:data="{&quot;leading&quot;:&quot;1.3&quot;}"><tspan dy="0" x="187.99935090478664" svgjs:data="{&quot;newLined&quot;:true}">PLAYER</tspan></text><image width="760" height="357" xlink:href="https://lct-designs.s3.us-west-1.amazonaws.com/assets/libs/colorado-3-baseball-banner-3-1640655751448.png" class="asset" transform="matrix(0.07054208219051361,0,0,0.07054208219051361,120.48295593261719,84.47884368896483)"></image><text fill="#ffffff" font-family="DEATHE MAACH NCV" font-size="45" stroke-opacity="1" stroke-width="2" stroke="#000000" x="187.99935090478664" y="200.63461992143192" transform="matrix(0.4598704278469086,0,0,0.45987042784690857,59.7183837890625,12.43689918518065)" svgjs:data="{&quot;leading&quot;:&quot;1.3&quot;}"><tspan dy="0" x="187.99935090478664" svgjs:data="{&quot;newLined&quot;:true}">PLAYER</tspan></text><image width="760" height="357" xlink:href="https://lct-designs.s3.us-west-1.amazonaws.com/assets/libs/colorado-3-baseball-banner-3-1640655751448.png" class="asset" transform="matrix(0.0705420970916748,0,0,0.0705420970916748,225.88931274414062,83.8899078965187)"></image><text fill="#ffffff" font-family="DEATHE MAACH NCV" font-size="45" stroke-opacity="1" stroke-width="2" stroke="#000000" x="187.99935090478664" y="200.63461992143192" transform="matrix(0.45987048745155334,0,0,0.45987048745155334,165.12474060058594,11.847963392734528)" svgjs:data="{&quot;leading&quot;:&quot;1.3&quot;}"><tspan dy="0" x="187.99935090478664" svgjs:data="{&quot;newLined&quot;:true}">PLAYER</tspan></text><image width="760" height="357" xlink:href="https://lct-designs.s3.us-west-1.amazonaws.com/assets/libs/colorado-3-baseball-banner-3-1640655751448.png" class="asset" transform="matrix(0.070542111992836,0,0,0.070542111992836,145.7479705810547,212.86779785156244)"></image><text fill="#ffffff" font-family="DEATHE MAACH NCV" font-size="45" stroke-opacity="1" stroke-width="2" stroke="#000000" x="187.99935090478664" y="200.63461992143192" transform="matrix(0.45987087488174444,0,0,0.4598708748817444,83.8055419921875,141.41478729248047)" svgjs:data="{&quot;leading&quot;:&quot;1.3&quot;}"><tspan dy="0" x="187.99935090478664" svgjs:data="{&quot;newLined&quot;:true}">PLAYER</tspan></text><image width="760" height="357" xlink:href="https://lct-designs.s3.us-west-1.amazonaws.com/assets/libs/colorado-3-baseball-banner-3-1640655751448.png" class="asset" transform="matrix(0.070542111992836,0,0,0.070542111992836,160.45939636230466,259.9830017089843)"></image><text fill="#ffffff" font-family="DEATHE MAACH NCV" font-size="45" stroke-opacity="1" stroke-width="2" stroke="#000000" x="187.99935090478664" y="200.63461992143192" transform="matrix(0.45987093448638916,0,0,0.45987093448638916,98.51696777343751,188.52999877929688)" svgjs:data="{&quot;leading&quot;:&quot;1.3&quot;}"><tspan dy="0" x="187.99935090478664" svgjs:data="{&quot;newLined&quot;:true}">PLAYER</tspan></text><image width="760" height="357" xlink:href="https://lct-designs.s3.us-west-1.amazonaws.com/assets/libs/colorado-3-baseball-banner-3-1640655751448.png" class="asset" transform="matrix(0.070542111992836,0,0,0.070542111992836,265.2768249511719,236.42538452148432)"></image><text fill="#ffffff" font-family="DEATHE MAACH NCV" font-size="45" stroke-opacity="1" stroke-width="2" stroke="#000000" x="187.99935090478664" y="200.63461992143192" transform="matrix(0.459870994091034,0,0,0.45987099409103394,203.3343963623047,164.97238159179688)" svgjs:data="{&quot;leading&quot;:&quot;1.3&quot;}"><tspan dy="0" x="187.99935090478664" svgjs:data="{&quot;newLined&quot;:true}">PLAYER</tspan></text><image width="760" height="357" xlink:href="https://lct-designs.s3.us-west-1.amazonaws.com/assets/libs/colorado-3-baseball-banner-3-1640655751448.png" class="asset" transform="matrix(0.070542111992836,0,0,0.070542111992836,390.7067565917969,234.65855407714844)"></image><text fill="#ffffff" font-family="DEATHE MAACH NCV" font-size="45" stroke-opacity="1" stroke-width="2" stroke="#000000" x="187.99935090478664" y="200.63461992143192" transform="matrix(0.4598711431026459,0,0,0.4598711431026459,328.7643432617188,163.20555114746094)" svgjs:data="{&quot;leading&quot;:&quot;1.3&quot;}"><tspan dy="0" x="187.99935090478664" svgjs:data="{&quot;newLined&quot;:true}">PLAYER</tspan></text><text fill="#ffffff" font-family="DEATHE MAACH NCV" font-size="45" stroke-opacity="1" stroke-width="2" stroke="#000000" x="187.99935090478664" y="200.63461992143192" transform="matrix(0.4138925671577454,0,0,0.41389256715774536,227.26695251464844,202.8790283203125)" svgjs:data="{&quot;leading&quot;:&quot;1.3&quot;}"><tspan dy="0" x="187.99935090478664" svgjs:data="{&quot;newLined&quot;:true}">Coach: Coach name</tspan></text><g class="mask" style="pointer-events: none;"><g><path fill="#BCBEC0" d="M-3642.4-2101.7v4589.1h7813.4v-4589.1H-3642.4z M500.5,67.2v233.3v66.7H0.5v-66.7V67.2V0.5h500V67.2z" transform="matrix(1,0,0,1,0,0)"></path><g transform="matrix(1,0,0,1,0,0)">
	<rect x="0.5" y="300.5" opacity="0.95" fill="#F1F2F2" width="500" height="66.7"></rect>
	<rect x="0.5" y="0.5" opacity="0.95" fill="#F1F2F2" width="500" height="66.7"></rect>
</g></g></g></svg>