<svg xmlns="http://www.w3.org/2000/svg" version="1.1" xmlns:xlink="http://www.w3.org/1999/xlink" xmlns:svgjs="http://svgjs.dev/svgjs" width="100%" height="100%" viewBox="1 1 499 365.70001220703125" preserveAspectRatio="none" data-info="{&quot;_id&quot;:4,&quot;name&quot;:&quot;POLE POCKET SOCCER BANNERS&quot;,&quot;information&quot;:&quot;- Size: 3’x5’\n- Material: heavy duty vinyl banner\n- Digitally printed on vinyl&quot;,&quot;price&quot;:&quot;95.00&quot;,&quot;sale_price&quot;:&quot;89.99&quot;,&quot;type&quot;:&quot;pole-pocket&quot;,&quot;cover&quot;:{&quot;key&quot;:&quot;assets/models/pole-1628062864266-1631924568908.png&quot;,&quot;url&quot;:&quot;https://lct-designs.s3.us-west-1.amazonaws.com/assets/models/pole-1628062864266-1631924568908.png&quot;},&quot;back&quot;:{&quot;key&quot;:&quot;assets/models/pole-1631924700152.svg&quot;,&quot;url&quot;:&quot;https://lct-designs.s3.us-west-1.amazonaws.com/assets/models/pole-1631924700152.svg&quot;},&quot;mask&quot;:{&quot;key&quot;:&quot;assets/models/pole-mask-1631925211715.svg&quot;,&quot;url&quot;:&quot;https://lct-designs.s3.us-west-1.amazonaws.com/assets/models/pole-mask-1631925211715.svg&quot;},&quot;pos&quot;:&quot;2&quot;,&quot;accessories&quot;:&quot;2,3&quot;}" style="background-color: white;"><g class="model" style="pointer-events: none;"><polygon fill="#FFFFFF" points="0.5,0.5 0.5,67.2 0.5,300.5 0.5,367.2 500.5,367.2 500.5,300.5 500.5,67.2 500.5,0.5 "></polygon></g><image width="760" height="556" xlink:href="https://lct-designs.s3.us-west-1.amazonaws.com/assets/libs/astros4-baseball-banner-1641537571081.png" class="asset background locked" transform="matrix(0.6595323960558116,0,0,0.6595323960558116,0,0)"></image><image width="760" height="721" xlink:href="https://lct-designs.s3.us-west-1.amazonaws.com/assets/libs/astros4-baseball-banner-1640253760859.png" class="asset" transform="matrix(0.2538051307201386,0,0,0.2538051307201386,301.4425354003906,81.50224304199222)"></image><image width="760" height="606" xlink:href="https://lct-designs.s3.us-west-1.amazonaws.com/assets/libs/astros4-baseball-banner-1640253743217.png" class="asset" transform="matrix(0.18623365461826327,0,0,0.18623365461826327,225.1748504638672,183.10882568359378)"></image><image width="760" height="513" xlink:href="https://lct-designs.s3.us-west-1.amazonaws.com/assets/libs/astros4-baseball-banner-1640253782335.png" class="asset" transform="matrix(0.06497426331043243,0,0,0.06497426331043245,13.101310729980476,101.55592346191406)"></image><text fill="#ffffff" font-family="Impact" font-size="30" x="211.29411221732073" y="195.67903241171217" transform="matrix(0.5261027216911317,0,0,0.5261027216911317,-94.00789642333986,-5.602996349334717)" svgjs:data="{&quot;leading&quot;:&quot;1.3&quot;}"><tspan dy="0" x="211.29411221732073" svgjs:data="{&quot;newLined&quot;:true}">Player</tspan></text><image width="760" height="513" xlink:href="https://lct-designs.s3.us-west-1.amazonaws.com/assets/libs/astros4-baseball-banner-1640253782335.png" class="asset" transform="matrix(0.06497426331043243,0,0,0.06497426331043245,88.84343719482422,101.55592346191406)"></image><text fill="#ffffff" font-family="Impact" font-size="30" x="211.29411221732073" y="195.67903241171217" transform="matrix(0.5261027216911317,0,0,0.5261027216911317,-18.265775680541992,-5.602996349334717)" svgjs:data="{&quot;leading&quot;:&quot;1.3&quot;}"><tspan dy="0" x="211.29411221732073" svgjs:data="{&quot;newLined&quot;:true}">Player</tspan></text><image width="760" height="513" xlink:href="https://lct-designs.s3.us-west-1.amazonaws.com/assets/libs/astros4-baseball-banner-1640253782335.png" class="asset" transform="matrix(0.06497426331043243,0,0,0.06497426331043245,165.64114379882815,100.96446990966797)"></image><text fill="#ffffff" font-family="Impact" font-size="30" x="211.29411221732073" y="195.67903241171217" transform="matrix(0.5261027216911317,0,0,0.5261027216911317,58.53192901611329,-6.1944499015808105)" svgjs:data="{&quot;leading&quot;:&quot;1.3&quot;}"><tspan dy="0" x="211.29411221732073" svgjs:data="{&quot;newLined&quot;:true}">Player</tspan></text><image width="760" height="513" xlink:href="https://lct-designs.s3.us-west-1.amazonaws.com/assets/libs/astros4-baseball-banner-1640253782335.png" class="asset" transform="matrix(0.06497426331043243,0,0,0.06497426331043245,241.38327026367193,100.96446990966797)"></image><text fill="#ffffff" font-family="Impact" font-size="30" x="211.29411221732073" y="195.67903241171217" transform="matrix(0.5261027216911317,0,0,0.5261027216911317,134.2740478515625,-6.1944499015808105)" svgjs:data="{&quot;leading&quot;:&quot;1.3&quot;}"><tspan dy="0" x="211.29411221732073" svgjs:data="{&quot;newLined&quot;:true}">Player</tspan></text><image width="760" height="513" xlink:href="https://lct-designs.s3.us-west-1.amazonaws.com/assets/libs/astros4-baseball-banner-1640253782335.png" class="asset" transform="matrix(0.06497426331043243,0,0,0.06497426331043245,14.820976257324219,160.10964965820315)"></image><text fill="#ffffff" font-family="Impact" font-size="30" x="211.29411221732073" y="195.67903241171217" transform="matrix(0.5261027216911317,0,0,0.5261027216911317,-92.28823089599612,52.95072174072267)" svgjs:data="{&quot;leading&quot;:&quot;1.3&quot;}"><tspan dy="0" x="211.29411221732073" svgjs:data="{&quot;newLined&quot;:true}">Player</tspan></text><image width="760" height="513" xlink:href="https://lct-designs.s3.us-west-1.amazonaws.com/assets/libs/astros4-baseball-banner-1640253782335.png" class="asset" transform="matrix(0.06497426331043243,0,0,0.06497426331043245,90.563102722168,160.10964965820315)"></image><text fill="#ffffff" font-family="Impact" font-size="30" x="211.29411221732073" y="195.67903241171217" transform="matrix(0.5261027216911317,0,0,0.5261027216911317,-16.546110153198242,52.95072174072267)" svgjs:data="{&quot;leading&quot;:&quot;1.3&quot;}"><tspan dy="0" x="211.29411221732073" svgjs:data="{&quot;newLined&quot;:true}">Player</tspan></text><image width="760" height="513" xlink:href="https://lct-designs.s3.us-west-1.amazonaws.com/assets/libs/astros4-baseball-banner-1640253782335.png" class="asset" transform="matrix(0.06497426331043243,0,0,0.06497426331043245,167.36080932617193,159.51818847656253)"></image><text fill="#ffffff" font-family="Impact" font-size="30" x="211.29411221732073" y="195.67903241171217" transform="matrix(0.5261027216911317,0,0,0.5261027216911317,60.25159454345705,52.35926818847656)" svgjs:data="{&quot;leading&quot;:&quot;1.3&quot;}"><tspan dy="0" x="211.29411221732073" svgjs:data="{&quot;newLined&quot;:true}">Player</tspan></text><image width="760" height="513" xlink:href="https://lct-designs.s3.us-west-1.amazonaws.com/assets/libs/astros4-baseball-banner-1640253782335.png" class="asset" transform="matrix(0.06497426331043243,0,0,0.06497426331043245,243.10293579101568,159.51818847656253)"></image><text fill="#ffffff" font-family="Impact" font-size="30" x="211.29411221732073" y="195.67903241171217" transform="matrix(0.5261027216911317,0,0,0.5261027216911317,135.99371337890628,52.359268665313735)" svgjs:data="{&quot;leading&quot;:&quot;1.3&quot;}"><tspan dy="0" x="211.29411221732073" svgjs:data="{&quot;newLined&quot;:true}">Player</tspan></text><image width="760" height="513" xlink:href="https://lct-designs.s3.us-west-1.amazonaws.com/assets/libs/astros4-baseball-banner-1640253782335.png" class="asset" transform="matrix(0.06497426331043243,0,0,0.06497426331043245,14.174842834472663,222.8035278320313)"></image><text fill="#ffffff" font-family="Impact" font-size="30" x="211.29411221732073" y="195.67903241171217" transform="matrix(0.5261027216911317,0,0,0.5261027216911317,-92.93436431884766,115.64459991455078)" svgjs:data="{&quot;leading&quot;:&quot;1.3&quot;}"><tspan dy="0" x="211.29411221732073" svgjs:data="{&quot;newLined&quot;:true}">Player</tspan></text><image width="760" height="513" xlink:href="https://lct-designs.s3.us-west-1.amazonaws.com/assets/libs/astros4-baseball-banner-1640253782335.png" class="asset" transform="matrix(0.06497426331043243,0,0,0.06497426331043245,89.91696929931643,222.8035278320313)"></image><text fill="#ffffff" font-family="Impact" font-size="30" x="211.29411221732073" y="195.67903241171217" transform="matrix(0.5261027216911317,0,0,0.5261027216911317,-17.192243576049805,115.64459991455078)" svgjs:data="{&quot;leading&quot;:&quot;1.3&quot;}"><tspan dy="0" x="211.29411221732073" svgjs:data="{&quot;newLined&quot;:true}">Player</tspan></text><image width="760" height="513" xlink:href="https://lct-designs.s3.us-west-1.amazonaws.com/assets/libs/astros4-baseball-banner-1640253782335.png" class="asset" transform="matrix(0.06497426331043243,0,0,0.06497426331043245,166.71467590332034,222.21206665039062)"></image><text fill="#ffffff" font-family="Impact" font-size="30" x="211.29411221732073" y="195.67903241171217" transform="matrix(0.5261027216911317,0,0,0.5261027216911317,59.60546112060549,115.05314636230472)" svgjs:data="{&quot;leading&quot;:&quot;1.3&quot;}"><tspan dy="0" x="211.29411221732073" svgjs:data="{&quot;newLined&quot;:true}">Player</tspan></text><text fill="#ffffff" font-family="Impact" font-size="30" x="211.29411221732073" y="195.67903241171217" transform="matrix(0.5261027216911317,0,0,0.5261027216911317,-92.98904418945314,177.15557861328125)" svgjs:data="{&quot;leading&quot;:&quot;1.3&quot;}"><tspan dy="0" x="211.29411221732073" svgjs:data="{&quot;newLined&quot;:true}">Coach: Coach name</tspan></text><g class="mask" style="pointer-events: none;"><g><path fill="#BCBEC0" d="M-3642.4-2101.7v4589.1h7813.4v-4589.1H-3642.4z M500.5,67.2v233.3v66.7H0.5v-66.7V67.2V0.5h500V67.2z" transform="matrix(1,0,0,1,0,0)"></path><g transform="matrix(1,0,0,1,0,0)">
	<rect x="0.5" y="300.5" opacity="0.95" fill="#F1F2F2" width="500" height="66.7"></rect>
	<rect x="0.5" y="0.5" opacity="0.95" fill="#F1F2F2" width="500" height="66.7"></rect>
</g></g></g></svg>