<svg xmlns="http://www.w3.org/2000/svg" version="1.1" xmlns:xlink="http://www.w3.org/1999/xlink" xmlns:svgjs="http://svgjs.dev/svgjs" width="100%" height="100%" viewBox="1 1 499 365.70001220703125" preserveAspectRatio="none" data-info="{&quot;_id&quot;:4,&quot;name&quot;:&quot;POLE POCKET SOCCER BANNERS&quot;,&quot;information&quot;:&quot;- Size: 3’x5’\n- Material: heavy duty vinyl banner\n- Digitally printed on vinyl&quot;,&quot;price&quot;:&quot;95.00&quot;,&quot;sale_price&quot;:&quot;89.99&quot;,&quot;type&quot;:&quot;pole-pocket&quot;,&quot;cover&quot;:{&quot;key&quot;:&quot;assets/models/pole-1628062864266-1631924568908.png&quot;,&quot;url&quot;:&quot;https://lct-designs.s3.us-west-1.amazonaws.com/assets/models/pole-1628062864266-1631924568908.png&quot;},&quot;back&quot;:{&quot;key&quot;:&quot;assets/models/pole-1631924700152.svg&quot;,&quot;url&quot;:&quot;https://lct-designs.s3.us-west-1.amazonaws.com/assets/models/pole-1631924700152.svg&quot;},&quot;mask&quot;:{&quot;key&quot;:&quot;assets/models/pole-mask-1631925211715.svg&quot;,&quot;url&quot;:&quot;https://lct-designs.s3.us-west-1.amazonaws.com/assets/models/pole-mask-1631925211715.svg&quot;},&quot;pos&quot;:&quot;2&quot;,&quot;accessories&quot;:&quot;2,3&quot;}" style="background-color: white;"><g class="model" style="pointer-events: none;"><polygon fill="#FFFFFF" points="0.5,0.5 0.5,67.2 0.5,300.5 0.5,367.2 500.5,367.2 500.5,300.5 500.5,67.2 500.5,0.5 "></polygon></g><image width="760" height="556" xlink:href="https://lct-designs.s3.us-west-1.amazonaws.com/assets/libs/braves-4-baseball-banner-1640339517357.png" class="asset background locked" transform="matrix(0.6595323960558116,0,0,0.6595323960558116,0,0)"></image><image width="760" height="380" xlink:href="https://lct-designs.s3.us-west-1.amazonaws.com/assets/libs/braves-4-baseball-banner-1640339725765.png" class="asset" transform="matrix(0.3476223945617676,0,0,0.3476223945617676,111.88262939453128,104.71219635009766)"></image><text fill="#ffffff" font-family="DEATHE MAACH NCV" font-size="45" x="187.99873544345957" y="200.54323615424505" transform="matrix(0.36573687195777893,0,0,0.36573687195777893,258.20217895507807,23.30007934570314)" svgjs:data="{&quot;leading&quot;:&quot;1.3&quot;}"><tspan dy="0" x="187.99873544345957" svgjs:data="{&quot;newLined&quot;:true}">PLAYER</tspan></text><image width="760" height="441" xlink:href="https://lct-designs.s3.us-west-1.amazonaws.com/assets/libs/braves-4-baseball-banner-1640339769754.png" class="asset" transform="matrix(-0.0750236064195633,0,0,0.06828434020280838,383.8412170410156,101.24635314941406)"></image><image width="526" height="760" xlink:href="https://lct-designs.s3.us-west-1.amazonaws.com/assets/libs/braves-4-baseball-banner-1640339698566.png" class="asset" transform="matrix(0.1978331506252289,0,0,0.19783315062522888,383.05035400390625,138.8232574462891)"></image><image width="760" height="441" xlink:href="https://lct-designs.s3.us-west-1.amazonaws.com/assets/libs/braves-4-baseball-banner-1640339769754.png" class="asset" transform="matrix(0.06828434020280838,0,0,0.06828434020280838,104.22013092041016,98.5097427368164)"></image><text fill="#ffffff" font-family="DEATHE MAACH NCV" font-size="45" x="187.99873544345957" y="200.54323615424505" transform="matrix(0.36573687195777893,0,0,0.36573687195777893,43.16408920288086,21.110792160034194)" svgjs:data="{&quot;leading&quot;:&quot;1.3&quot;}"><tspan dy="0" x="187.99873544345957" svgjs:data="{&quot;newLined&quot;:true}">PLAYER</tspan></text><text fill="#ffffff" font-family="DEATHE MAACH NCV" font-size="45" x="187.99873544345957" y="200.54323615424505" transform="matrix(0.36573687195777893,0,0,0.36573687195777893,-38.237247467041016,21.658117473125472)" svgjs:data="{&quot;leading&quot;:&quot;1.3&quot;}"><tspan dy="0" x="187.99873544345957" svgjs:data="{&quot;newLined&quot;:true}">PLAYER</tspan></text><image width="760" height="441" xlink:href="https://lct-designs.s3.us-west-1.amazonaws.com/assets/libs/braves-4-baseball-banner-1640339769754.png" class="asset" transform="matrix(0.06828434020280838,0,0,0.06828434020280838,22.81879425048829,99.05706804990768)"></image><text fill="#ffffff" font-family="DEATHE MAACH NCV" font-size="45" x="187.99873544345957" y="200.54323615424505" transform="matrix(0.36573687195777893,0,0,0.36573687195777893,-42.467399597167976,100.47285461425784)" svgjs:data="{&quot;leading&quot;:&quot;1.3&quot;}"><tspan dy="0" x="187.99873544345957" svgjs:data="{&quot;newLined&quot;:true}">PLAYER</tspan></text><image width="760" height="441" xlink:href="https://lct-designs.s3.us-west-1.amazonaws.com/assets/libs/braves-4-baseball-banner-1640339769754.png" class="asset" transform="matrix(0.06828434020280838,0,0,0.06828434020280838,18.588642120361328,177.87181091308597)"></image><text fill="#ffffff" font-family="DEATHE MAACH NCV" font-size="45" x="187.99873544345957" y="200.54323615424505" transform="matrix(0.36573687195777893,0,0,0.36573687195777893,-40.677101254463196,176.00361633300784)" svgjs:data="{&quot;leading&quot;:&quot;1.3&quot;}"><tspan dy="0" x="187.99873544345957" svgjs:data="{&quot;newLined&quot;:true}">PLAYER</tspan></text><image width="760" height="441" xlink:href="https://lct-designs.s3.us-west-1.amazonaws.com/assets/libs/braves-4-baseball-banner-1640339769754.png" class="asset" transform="matrix(0.06828434020280838,0,0,0.06828434020280838,20.3789404630661,253.40257263183594)"></image><text fill="#ffffff" font-family="DEATHE MAACH NCV" font-size="45" x="187.99873544345957" y="200.54323615424505" transform="matrix(0.36573687195777893,0,0,0.36573687195777893,39.379028320312486,183.11885070800784)" svgjs:data="{&quot;leading&quot;:&quot;1.3&quot;}"><tspan dy="0" x="187.99873544345957" svgjs:data="{&quot;newLined&quot;:true}">PLAYER</tspan></text><image width="760" height="441" xlink:href="https://lct-designs.s3.us-west-1.amazonaws.com/assets/libs/braves-4-baseball-banner-1640339769754.png" class="asset" transform="matrix(0.06828434020280838,0,0,0.06828434020280838,100.43507385253906,260.51782226562506)"></image><text fill="#ffffff" font-family="DEATHE MAACH NCV" font-size="45" x="187.99873544345957" y="200.54323615424505" transform="matrix(0.36573687195777893,0,0,0.36573687195777893,117.24589538574219,182.57151794433597)" svgjs:data="{&quot;leading&quot;:&quot;1.3&quot;}"><tspan dy="0" x="187.99873544345957" svgjs:data="{&quot;newLined&quot;:true}">PLAYER</tspan></text><image width="760" height="441" xlink:href="https://lct-designs.s3.us-west-1.amazonaws.com/assets/libs/braves-4-baseball-banner-1640339769754.png" class="asset" transform="matrix(0.06828434020280838,0,0,0.06828434020280838,178.30194091796875,259.9704895019532)"></image><text fill="#ffffff" font-family="DEATHE MAACH NCV" font-size="45" x="187.99873544345957" y="200.54323615424505" transform="matrix(0.36573687195777893,0,0,0.36573687195777893,195.66006469726562,182.57151794433597)" svgjs:data="{&quot;leading&quot;:&quot;1.3&quot;}"><tspan dy="0" x="187.99873544345957" svgjs:data="{&quot;newLined&quot;:true}">PLAYER</tspan></text><image width="760" height="441" xlink:href="https://lct-designs.s3.us-west-1.amazonaws.com/assets/libs/braves-4-baseball-banner-1640339769754.png" class="asset" transform="matrix(-0.07502353936433794,0,0,0.06828434020280838,321.2991027832031,260.5177917480469)"></image><text fill="#ffffff" font-family="DEATHE MAACH NCV" font-size="45" x="187.99873544345957" y="200.54323615424505" transform="matrix(0.36573687195777893,0,0,0.36573687195777893,276.81079101562506,181.4768829345703)" svgjs:data="{&quot;leading&quot;:&quot;1.3&quot;}"><tspan dy="0" x="187.99873544345957" svgjs:data="{&quot;newLined&quot;:true}">PLAYER</tspan></text><image width="760" height="441" xlink:href="https://lct-designs.s3.us-west-1.amazonaws.com/assets/libs/braves-4-baseball-banner-1640339769754.png" class="asset" transform="matrix(-0.07502353936433794,0,0,0.06828434020280838,402.4498291015625,259.4231567382813)"></image><text fill="#ffffff" font-family="DEATHE MAACH NCV" font-size="45" x="187.99873544345957" y="200.54323615424505" transform="matrix(0.36573687195777893,0,0,0.36573687195777893,344.8260192871094,22.752754032611847)" svgjs:data="{&quot;leading&quot;:&quot;1.3&quot;}"><tspan dy="0" x="187.99873544345957" svgjs:data="{&quot;newLined&quot;:true}">PLAYER</tspan></text><image width="760" height="441" xlink:href="https://lct-designs.s3.us-west-1.amazonaws.com/assets/libs/braves-4-baseball-banner-1640339769754.png" class="asset" transform="matrix(-0.0750235766172409,0,0,0.06828434020280838,470.4650573730469,100.69902783632281)"></image><g class="mask" style="pointer-events: none;"><g><path fill="#BCBEC0" d="M-3642.4-2101.7v4589.1h7813.4v-4589.1H-3642.4z M500.5,67.2v233.3v66.7H0.5v-66.7V67.2V0.5h500V67.2z" transform="matrix(1,0,0,1,0,0)"></path><g transform="matrix(1,0,0,1,0,0)">
	<rect x="0.5" y="300.5" opacity="0.95" fill="#F1F2F2" width="500" height="66.7"></rect>
	<rect x="0.5" y="0.5" opacity="0.95" fill="#F1F2F2" width="500" height="66.7"></rect>
</g></g></g></svg>