<svg xmlns="http://www.w3.org/2000/svg" version="1.1" xmlns:xlink="http://www.w3.org/1999/xlink" xmlns:svgjs="http://svgjs.dev/svgjs" width="100%" height="100%" viewBox="1 1 499 365.70001220703125" preserveAspectRatio="none" data-info="{&quot;_id&quot;:4,&quot;name&quot;:&quot;POLE POCKET SOCCER BANNERS&quot;,&quot;information&quot;:&quot;- Size: 3’x5’\n- Material: heavy duty vinyl banner\n- Digitally printed on vinyl&quot;,&quot;price&quot;:&quot;95.00&quot;,&quot;sale_price&quot;:&quot;89.99&quot;,&quot;type&quot;:&quot;pole-pocket&quot;,&quot;cover&quot;:{&quot;key&quot;:&quot;assets/models/pole-1628062864266-1631924568908.png&quot;,&quot;url&quot;:&quot;https://lct-designs.s3.us-west-1.amazonaws.com/assets/models/pole-1628062864266-1631924568908.png&quot;},&quot;back&quot;:{&quot;key&quot;:&quot;assets/models/pole-1631924700152.svg&quot;,&quot;url&quot;:&quot;https://lct-designs.s3.us-west-1.amazonaws.com/assets/models/pole-1631924700152.svg&quot;},&quot;mask&quot;:{&quot;key&quot;:&quot;assets/models/pole-mask-1631925211715.svg&quot;,&quot;url&quot;:&quot;https://lct-designs.s3.us-west-1.amazonaws.com/assets/models/pole-mask-1631925211715.svg&quot;},&quot;pos&quot;:&quot;2&quot;,&quot;accessories&quot;:&quot;2,3&quot;}" style="background-color: white;"><g class="model" style="pointer-events: none;"><polygon fill="#FFFFFF" points="0.5,0.5 0.5,67.2 0.5,300.5 0.5,367.2 500.5,367.2 500.5,300.5 500.5,67.2 500.5,0.5 "></polygon></g><image width="760" height="556" xlink:href="https://lct-designs.s3.us-west-1.amazonaws.com/assets/libs/diamond-black-4-baseball-banner-1640685274365.png" class="asset background locked" transform="matrix(0.6595323960558116,0,0,0.6595323960558116,0,0)"></image><image width="760" height="564" xlink:href="https://lct-designs.s3.us-west-1.amazonaws.com/assets/libs/diamond-black-5-baseball-banner-1640685357849.png" class="asset" transform="matrix(0.30282801389694214,0,0,0.30282801389694214,131.0954132080078,88.52862548828124)"></image><image width="760" height="537" xlink:href="https://lct-designs.s3.us-west-1.amazonaws.com/assets/libs/diamond-black-4-baseball-banner-1640685378718.png" class="asset" transform="matrix(0.048834569752216346,0,0,0.04883456975221634,343.41293334960943,98.87525939941408)"></image><text fill="#ffffff" font-family="Roboto Condensed" font-size="45" stroke-opacity="1" stroke-width="1" stroke="#7a0000" x="179.23895204004054" y="199.751219958053" transform="matrix(0.33697041869163513,0,0,0.33697041869163513,277.8007507324219,27.224025726318345)" svgjs:data="{&quot;leading&quot;:&quot;1.3&quot;}"><tspan dy="0" x="179.23895204004054" svgjs:data="{&quot;newLined&quot;:true}">PLAYER</tspan></text><text fill="#ffffff" font-family="Roboto Condensed" font-size="45" stroke-opacity="1" stroke-width="1" stroke="#7a0000" x="179.23895204004054" y="199.751219958053" transform="matrix(0.33697041869163513,0,0,0.33697041869163513,368.27911376953125,25.617673873901353)" svgjs:data="{&quot;leading&quot;:&quot;1.3&quot;}"><tspan dy="0" x="179.23895204004054" svgjs:data="{&quot;newLined&quot;:true}">PLAYER</tspan></text><image width="760" height="537" xlink:href="https://lct-designs.s3.us-west-1.amazonaws.com/assets/libs/diamond-black-4-baseball-banner-1640685378718.png" class="asset" transform="matrix(0.048834569752216346,0,0,0.04883456975221634,433.89129638671875,97.26891326904295)"></image><text fill="#ffffff" font-family="Roboto Condensed" font-size="45" stroke-opacity="1" stroke-width="1" stroke="#7a0000" x="179.23895204004054" y="199.751219958053" transform="matrix(0.3369704782962799,0,0,0.3369704782962799,279.2469787597656,79.64781951904295)" svgjs:data="{&quot;leading&quot;:&quot;1.3&quot;}"><tspan dy="0" x="179.23895204004054" svgjs:data="{&quot;newLined&quot;:true}">PLAYER</tspan></text><image width="760" height="537" xlink:href="https://lct-designs.s3.us-west-1.amazonaws.com/assets/libs/diamond-black-4-baseball-banner-1640685378718.png" class="asset" transform="matrix(0.048834580928087234,0,0,0.04883458092808724,344.85919189453125,151.29905700683594)"></image><text fill="#ffffff" font-family="Roboto Condensed" font-size="45" stroke-opacity="1" stroke-width="1" stroke="#7a0000" x="179.23895204004054" y="199.751219958053" transform="matrix(0.336970716714859,0,0,0.336970716714859,368.17034912109375,80.82570648193361)" svgjs:data="{&quot;leading&quot;:&quot;1.3&quot;}"><tspan dy="0" x="179.23895204004054" svgjs:data="{&quot;newLined&quot;:true}">PLAYER</tspan></text><image width="760" height="537" xlink:href="https://lct-designs.s3.us-west-1.amazonaws.com/assets/libs/diamond-black-4-baseball-banner-1640685378718.png" class="asset" transform="matrix(0.048834580928087234,0,0,0.04883458092808724,433.78253173828125,152.47694396972656)"></image><text fill="#ffffff" font-family="Roboto Condensed" font-size="45" stroke-opacity="1" stroke-width="1" stroke="#7a0000" x="179.23895204004054" y="199.751219958053" transform="matrix(0.3369704782962799,0,0,0.3369704782962799,328.70516967773443,132.65240478515625)" svgjs:data="{&quot;leading&quot;:&quot;1.3&quot;}"><tspan dy="0" x="179.23895204004054" svgjs:data="{&quot;newLined&quot;:true}">PLAYER</tspan></text><image width="760" height="537" xlink:href="https://lct-designs.s3.us-west-1.amazonaws.com/assets/libs/diamond-black-4-baseball-banner-1640685378718.png" class="asset" transform="matrix(0.048834580928087234,0,0,0.04883458092808724,394.31738281250006,204.30364990234375)"></image><text fill="#ffffff" font-family="Roboto Condensed" font-size="45" stroke-opacity="1" stroke-width="1" stroke="#7a0000" x="179.23895204004054" y="199.751219958053" transform="matrix(0.3369704782962799,0,0,0.3369704782962799,299.8476867675781,190.36856079101562)" svgjs:data="{&quot;leading&quot;:&quot;1.3&quot;}"><tspan dy="0" x="179.23895204004054" svgjs:data="{&quot;newLined&quot;:true}">PLAYER</tspan></text><image width="760" height="537" xlink:href="https://lct-designs.s3.us-west-1.amazonaws.com/assets/libs/diamond-black-4-baseball-banner-1640685378718.png" class="asset" transform="matrix(0.048834580928087234,0,0,0.04883458092808724,365.45989990234375,262.019775390625)"></image><text fill="#ffffff" font-family="Roboto Condensed" font-size="45" stroke-opacity="1" stroke-width="1" stroke="#7a0000" x="179.23895204004054" y="199.751219958053" transform="matrix(0.336970716714859,0,0,0.336970716714859,381.70391845703125,190.36856079101562)" svgjs:data="{&quot;leading&quot;:&quot;1.3&quot;}"><tspan dy="0" x="179.23895204004054" svgjs:data="{&quot;newLined&quot;:true}">PLAYER</tspan></text><image width="760" height="537" xlink:href="https://lct-designs.s3.us-west-1.amazonaws.com/assets/libs/diamond-black-4-baseball-banner-1640685378718.png" class="asset" transform="matrix(0.048834580928087234,0,0,0.04883458092808724,447.31610107421875,262.019775390625)"></image><image width="760" height="537" xlink:href="https://lct-designs.s3.us-west-1.amazonaws.com/assets/libs/diamond-black-4-baseball-banner-1640685378718.png" class="asset" transform="matrix(0.048834569752216346,0,0,0.04883456975221634,30.091369628906246,104.76466369628905)"></image><text fill="#ffffff" font-family="Roboto Condensed" font-size="45" stroke-opacity="1" stroke-width="1" stroke="#7a0000" x="179.23895204004054" y="199.751219958053" transform="matrix(0.33697041869163513,0,0,0.33697041869163513,-35.52081298828125,33.11343002319336)" svgjs:data="{&quot;leading&quot;:&quot;1.3&quot;}"><tspan dy="0" x="179.23895204004054" svgjs:data="{&quot;newLined&quot;:true}">PLAYER</tspan></text><text fill="#ffffff" font-family="Roboto Condensed" font-size="45" stroke-opacity="1" stroke-width="1" stroke="#7a0000" x="179.23895204004054" y="199.751219958053" transform="matrix(0.33697041869163513,0,0,0.33697041869163513,54.95755004882814,31.507078170776367)" svgjs:data="{&quot;leading&quot;:&quot;1.3&quot;}"><tspan dy="0" x="179.23895204004054" svgjs:data="{&quot;newLined&quot;:true}">PLAYER</tspan></text><image width="760" height="537" xlink:href="https://lct-designs.s3.us-west-1.amazonaws.com/assets/libs/diamond-black-4-baseball-banner-1640685378718.png" class="asset" transform="matrix(0.048834569752216346,0,0,0.04883456975221634,120.56973266601565,103.15831756591795)"></image><image width="760" height="537" xlink:href="https://lct-designs.s3.us-west-1.amazonaws.com/assets/libs/diamond-black-4-baseball-banner-1640685378718.png" class="asset" transform="matrix(0.048834569752216346,0,0,0.04883456975221634,32.435302734375,157.18033599853516)"></image><text fill="#ffffff" font-family="Roboto Condensed" font-size="45" stroke-opacity="1" stroke-width="1" stroke="#7a0000" x="179.23895204004054" y="199.751219958053" transform="matrix(0.33697041869163513,0,0,0.33697041869163513,-33.1768798828125,85.52910232543947)" svgjs:data="{&quot;leading&quot;:&quot;1.3&quot;}"><tspan dy="0" x="179.23895204004054" svgjs:data="{&quot;newLined&quot;:true}">PLAYER</tspan></text><text fill="#ffffff" font-family="Roboto Condensed" font-size="45" stroke-opacity="1" stroke-width="1" stroke="#7a0000" x="179.23895204004054" y="199.751219958053" transform="matrix(0.33697041869163513,0,0,0.33697041869163513,57.30148315429689,83.92275047302245)" svgjs:data="{&quot;leading&quot;:&quot;1.3&quot;}"><tspan dy="0" x="179.23895204004054" svgjs:data="{&quot;newLined&quot;:true}">PLAYER</tspan></text><image width="760" height="537" xlink:href="https://lct-designs.s3.us-west-1.amazonaws.com/assets/libs/diamond-black-4-baseball-banner-1640685378718.png" class="asset" transform="matrix(0.048834569752216346,0,0,0.04883456975221634,122.9136657714844,155.57398986816406)"></image><text fill="#ffffff" font-family="Roboto Condensed" font-size="45" stroke-opacity="1" stroke-width="1" stroke="#7a0000" x="179.23895204004054" y="199.751219958053" transform="matrix(0.3369704782962799,0,0,0.3369704782962799,-31.141723632812504,190.36856079101562)" svgjs:data="{&quot;leading&quot;:&quot;1.3&quot;}"><tspan dy="0" x="179.23895204004054" svgjs:data="{&quot;newLined&quot;:true}">PLAYER</tspan></text><image width="760" height="537" xlink:href="https://lct-designs.s3.us-west-1.amazonaws.com/assets/libs/diamond-black-4-baseball-banner-1640685378718.png" class="asset" transform="matrix(0.048834580928087234,0,0,0.04883458092808724,34.470489501953125,262.019775390625)"></image><text fill="#ffffff" font-family="Roboto Condensed" font-size="45" stroke-opacity="1" stroke-width="1" stroke="#7a0000" x="179.23895204004054" y="199.751219958053" transform="matrix(0.336970716714859,0,0,0.336970716714859,11.84525299072266,139.71971130371094)" svgjs:data="{&quot;leading&quot;:&quot;1.3&quot;}"><tspan dy="0" x="179.23895204004054" svgjs:data="{&quot;newLined&quot;:true}">PLAYER</tspan></text><image width="760" height="537" xlink:href="https://lct-designs.s3.us-west-1.amazonaws.com/assets/libs/diamond-black-4-baseball-banner-1640685378718.png" class="asset" transform="matrix(0.048834580928087234,0,0,0.04883458092808724,77.45743560791017,211.3709259033203)"></image><text fill="#ffffff" font-family="Roboto Condensed" font-size="45" stroke-opacity="1" stroke-width="1" stroke="#7a0000" x="179.23895204004054" y="199.751219958053" transform="matrix(0.3369704782962799,0,0,0.3369704782962799,109.60033416748047,216.87086486816406)" svgjs:data="{&quot;leading&quot;:&quot;1.3&quot;}"><tspan dy="0" x="179.23895204004054" svgjs:data="{&quot;newLined&quot;:true}">COACH: COACH NAME</tspan></text><g class="mask" style="pointer-events: none;"><g><path fill="#BCBEC0" d="M-3642.4-2101.7v4589.1h7813.4v-4589.1H-3642.4z M500.5,67.2v233.3v66.7H0.5v-66.7V67.2V0.5h500V67.2z" transform="matrix(1,0,0,1,0,0)"></path><g transform="matrix(1,0,0,1,0,0)">
	<rect x="0.5" y="300.5" opacity="0.95" fill="#F1F2F2" width="500" height="66.7"></rect>
	<rect x="0.5" y="0.5" opacity="0.95" fill="#F1F2F2" width="500" height="66.7"></rect>
</g></g></g></svg>