<svg xmlns="http://www.w3.org/2000/svg" version="1.1" xmlns:xlink="http://www.w3.org/1999/xlink" xmlns:svgjs="http://svgjs.dev/svgjs" width="100%" height="100%" viewBox="1 1 499 365.70001220703125" preserveAspectRatio="none" data-info="{&quot;_id&quot;:4,&quot;name&quot;:&quot;POLE POCKET SOCCER BANNERS&quot;,&quot;information&quot;:&quot;- Size: 3’x5’\n- Material: heavy duty vinyl banner\n- Digitally printed on vinyl&quot;,&quot;price&quot;:&quot;95.00&quot;,&quot;sale_price&quot;:&quot;89.99&quot;,&quot;type&quot;:&quot;pole-pocket&quot;,&quot;cover&quot;:{&quot;key&quot;:&quot;assets/models/pole-1628062864266-1631924568908.png&quot;,&quot;url&quot;:&quot;https://lct-designs.s3.us-west-1.amazonaws.com/assets/models/pole-1628062864266-1631924568908.png&quot;},&quot;back&quot;:{&quot;key&quot;:&quot;assets/models/pole-1631924700152.svg&quot;,&quot;url&quot;:&quot;https://lct-designs.s3.us-west-1.amazonaws.com/assets/models/pole-1631924700152.svg&quot;},&quot;mask&quot;:{&quot;key&quot;:&quot;assets/models/pole-mask-1631925211715.svg&quot;,&quot;url&quot;:&quot;https://lct-designs.s3.us-west-1.amazonaws.com/assets/models/pole-mask-1631925211715.svg&quot;},&quot;pos&quot;:&quot;2&quot;,&quot;accessories&quot;:&quot;2,3&quot;}" style="background-color: white;"><g class="model" style="pointer-events: none;"><polygon fill="#FFFFFF" points="0.5,0.5 0.5,67.2 0.5,300.5 0.5,367.2 500.5,367.2 500.5,300.5 500.5,67.2 500.5,0.5 "></polygon></g><image width="760" height="556" xlink:href="https://lct-designs.s3.us-west-1.amazonaws.com/assets/libs/bandits4-baseball-banner-1640339517356.png" class="asset background locked" transform="matrix(0.6595323960558116,0,0,0.6595323960558116,0,0)"></image><image width="760" height="377" xlink:href="https://lct-designs.s3.us-west-1.amazonaws.com/assets/libs/bandits1-baseball-banner-1640339725764.png" class="asset" transform="matrix(0.34208282828330994,0,0,0.34208282828330994,11.176860809326172,97.24702453613281)"></image><image width="760" height="666" xlink:href="https://lct-designs.s3.us-west-1.amazonaws.com/assets/libs/bandits4-baseball-banner-1640339698565.png" class="asset" transform="matrix(0.22362016141414645,0,0,0.22362016141414642,314.1632385253906,139.5342254638672)"></image><image width="760" height="626" xlink:href="https://lct-designs.s3.us-west-1.amazonaws.com/assets/libs/bandits1-baseball-banner-1640339769754.png" class="asset" transform="matrix(0.04764551669359207,0,0,0.04764551669359207,443.55453491210943,103.85307312011719)"></image><text fill="#ffffff" font-family="Berlin Sans FB" font-size="45" x="196.88411523471933" y="200.26957740180364" transform="matrix(0.4286720156669617,0,0,0.42867201566696167,352.1798400878906,11.996336936950684)" svgjs:data="{&quot;leading&quot;:&quot;1.3&quot;}"><tspan dy="0" x="196.88411523471933" svgjs:data="{&quot;newLined&quot;:true}">Player</tspan></text><image width="760" height="626" xlink:href="https://lct-designs.s3.us-west-1.amazonaws.com/assets/libs/bandits1-baseball-banner-1640339769754.png" class="asset" transform="matrix(0.04764551669359207,0,0,0.04764551669359207,371.45751953125006,102.75842285156253)"></image><text fill="#ffffff" font-family="Berlin Sans FB" font-size="45" x="196.88411523471933" y="200.26957740180364" transform="matrix(0.4286720156669617,0,0,0.42867201566696167,280.08282470703125,10.90168666839601)" svgjs:data="{&quot;leading&quot;:&quot;1.3&quot;}"><tspan dy="0" x="196.88411523471933" svgjs:data="{&quot;newLined&quot;:true}">Player</tspan></text><image width="760" height="626" xlink:href="https://lct-designs.s3.us-west-1.amazonaws.com/assets/libs/bandits1-baseball-banner-1640339769754.png" class="asset" transform="matrix(0.04764551669359207,0,0,0.04764551669359207,208.10752868652344,103.85307312011719)"></image><image width="760" height="626" xlink:href="https://lct-designs.s3.us-west-1.amazonaws.com/assets/libs/bandits1-baseball-banner-1640339769754.png" class="asset" transform="matrix(0.04764551669359207,0,0,0.04764551669359207,287.3196105957031,115.89421081542969)"></image><text fill="#ffffff" font-family="Berlin Sans FB" font-size="45" x="196.88411523471933" y="200.26957740180364" transform="matrix(0.4286720156669617,0,0,0.42867201566696167,195.9449157714844,24.0374755859375)" svgjs:data="{&quot;leading&quot;:&quot;1.3&quot;}"><tspan dy="0" x="196.88411523471933" svgjs:data="{&quot;newLined&quot;:true}">Player</tspan></text><text fill="#ffffff" font-family="Berlin Sans FB" font-size="45" x="196.88411523471933" y="200.26957740180364" transform="matrix(0.4286720156669617,0,0,0.42867201566696167,116.73283386230469,13.63831615447998)" svgjs:data="{&quot;leading&quot;:&quot;1.3&quot;}"><tspan dy="0" x="196.88411523471933" svgjs:data="{&quot;newLined&quot;:true}">Player</tspan></text><text fill="#ffffff" font-family="Berlin Sans FB" font-size="45" x="196.88411523471933" y="200.26957740180364" transform="matrix(0.4286720156669617,0,0,0.42867201566696167,234.40521240234375,107.77812957763672)" svgjs:data="{&quot;leading&quot;:&quot;1.3&quot;}"><tspan dy="0" x="196.88411523471933" svgjs:data="{&quot;newLined&quot;:true}">Player</tspan></text><image width="760" height="626" xlink:href="https://lct-designs.s3.us-west-1.amazonaws.com/assets/libs/bandits1-baseball-banner-1640339769754.png" class="asset" transform="matrix(0.04764551669359207,0,0,0.04764551669359207,325.7799072265625,199.6348648071289)"></image><text fill="#ffffff" font-family="Berlin Sans FB" font-size="45" x="196.88411523471933" y="200.26957740180364" transform="matrix(0.4286720156669617,0,0,0.42867201566696167,194.59967041015625,165.79454803466797)" svgjs:data="{&quot;leading&quot;:&quot;1.3&quot;}"><tspan dy="0" x="196.88411523471933" svgjs:data="{&quot;newLined&quot;:true}">Player</tspan></text><image width="760" height="626" xlink:href="https://lct-designs.s3.us-west-1.amazonaws.com/assets/libs/bandits1-baseball-banner-1640339769754.png" class="asset" transform="matrix(0.04764551669359207,0,0,0.04764551669359207,285.974365234375,257.6512756347656)"></image><text fill="#ffffff" font-family="Berlin Sans FB" font-size="45" x="196.88411523471933" y="200.26957740180364" transform="matrix(0.4286720156669617,0,0,0.42867201566696167,123.04995727539062,145.5435485839844)" svgjs:data="{&quot;leading&quot;:&quot;1.3&quot;}"><tspan dy="0" x="196.88411523471933" svgjs:data="{&quot;newLined&quot;:true}">Player</tspan></text><image width="760" height="626" xlink:href="https://lct-designs.s3.us-west-1.amazonaws.com/assets/libs/bandits1-baseball-banner-1640339769754.png" class="asset" transform="matrix(0.04764551669359207,0,0,0.04764551669359207,214.42465209960938,237.4002685546875)"></image><text fill="#ffffff" font-family="Berlin Sans FB" font-size="45" x="196.88411523471933" y="200.26957740180364" transform="matrix(0.4286720156669617,0,0,0.42867201566696167,57.12174987792969,126.93450927734378)" svgjs:data="{&quot;leading&quot;:&quot;1.3&quot;}"><tspan dy="0" x="196.88411523471933" svgjs:data="{&quot;newLined&quot;:true}">Player</tspan></text><image width="760" height="626" xlink:href="https://lct-designs.s3.us-west-1.amazonaws.com/assets/libs/bandits1-baseball-banner-1640339769754.png" class="asset" transform="matrix(0.04764551669359207,0,0,0.04764551669359207,148.49644470214844,218.79122924804688)"></image><text fill="#ffffff" font-family="Berlin Sans FB" font-size="45" x="196.88411523471933" y="200.26957740180364" transform="matrix(0.4286720156669617,0,0,0.42867201566696167,-75.17974853515625,160.32131958007815)" svgjs:data="{&quot;leading&quot;:&quot;1.3&quot;}"><tspan dy="0" x="196.88411523471933" svgjs:data="{&quot;newLined&quot;:true}">Player</tspan></text><image width="760" height="626" xlink:href="https://lct-designs.s3.us-west-1.amazonaws.com/assets/libs/bandits1-baseball-banner-1640339769754.png" class="asset" transform="matrix(0.04764551669359207,0,0,0.04764551669359207,16.194946289062507,252.17803955078125)"></image><text fill="#ffffff" font-family="Berlin Sans FB" font-size="45" x="196.88411523471933" y="200.26957740180364" transform="matrix(0.4286720156669617,0,0,0.42867201566696167,-1.144073486328125,151.01679992675784)" svgjs:data="{&quot;leading&quot;:&quot;1.3&quot;}"><tspan dy="0" x="196.88411523471933" svgjs:data="{&quot;newLined&quot;:true}">Player</tspan></text><image width="760" height="626" xlink:href="https://lct-designs.s3.us-west-1.amazonaws.com/assets/libs/bandits1-baseball-banner-1640339769754.png" class="asset" transform="matrix(0.04764551669359207,0,0,0.04764551669359207,90.23062133789062,242.87351989746094)"></image><text fill="#ffffff" font-family="Berlin Sans FB" font-size="45" x="196.88411523471933" y="200.26957740180364" transform="matrix(0.36100029945373535,0,0,0.3610002994537354,-58.07115936279297,15.207930564880371)" svgjs:data="{&quot;leading&quot;:&quot;1.3&quot;}"><tspan dy="0" x="196.88411523471933" svgjs:data="{&quot;newLined&quot;:true}">Coach: Coach name</tspan></text><g class="mask" style="pointer-events: none;"><g><path fill="#BCBEC0" d="M-3642.4-2101.7v4589.1h7813.4v-4589.1H-3642.4z M500.5,67.2v233.3v66.7H0.5v-66.7V67.2V0.5h500V67.2z" transform="matrix(1,0,0,1,0,0)"></path><g transform="matrix(1,0,0,1,0,0)">
	<rect x="0.5" y="300.5" opacity="0.95" fill="#F1F2F2" width="500" height="66.7"></rect>
	<rect x="0.5" y="0.5" opacity="0.95" fill="#F1F2F2" width="500" height="66.7"></rect>
</g></g></g></svg>