<svg xmlns="http://www.w3.org/2000/svg" version="1.1" xmlns:xlink="http://www.w3.org/1999/xlink" xmlns:svgjs="http://svgjs.dev/svgjs" width="100%" height="100%" viewBox="1 1 499 365.70001220703125" preserveAspectRatio="none" data-info="{&quot;_id&quot;:4,&quot;name&quot;:&quot;POLE POCKET SOCCER BANNERS&quot;,&quot;information&quot;:&quot;- Size: 3’x5’\n- Material: heavy duty vinyl banner\n- Digitally printed on vinyl&quot;,&quot;price&quot;:&quot;95.00&quot;,&quot;sale_price&quot;:&quot;89.99&quot;,&quot;type&quot;:&quot;pole-pocket&quot;,&quot;cover&quot;:{&quot;key&quot;:&quot;assets/models/pole-1628062864266-1631924568908.png&quot;,&quot;url&quot;:&quot;https://lct-designs.s3.us-west-1.amazonaws.com/assets/models/pole-1628062864266-1631924568908.png&quot;},&quot;back&quot;:{&quot;key&quot;:&quot;assets/models/pole-1631924700152.svg&quot;,&quot;url&quot;:&quot;https://lct-designs.s3.us-west-1.amazonaws.com/assets/models/pole-1631924700152.svg&quot;},&quot;mask&quot;:{&quot;key&quot;:&quot;assets/models/pole-mask-1631925211715.svg&quot;,&quot;url&quot;:&quot;https://lct-designs.s3.us-west-1.amazonaws.com/assets/models/pole-mask-1631925211715.svg&quot;},&quot;pos&quot;:&quot;2&quot;,&quot;accessories&quot;:&quot;2,3&quot;}" style="background-color: white;"><g class="model" style="pointer-events: none;"><polygon fill="#FFFFFF" points="0.5,0.5 0.5,67.2 0.5,300.5 0.5,367.2 500.5,367.2 500.5,300.5 500.5,67.2 500.5,0.5 "></polygon></g><image width="760" height="558" xlink:href="https://lct-designs.s3.us-west-1.amazonaws.com/assets/libs/colorado-rockies-2-3-1640655602986.png" class="asset background locked" transform="matrix(0.6594932079315184,0,0,0.6571685671806335,0,0)"></image><image width="760" height="515" xlink:href="https://lct-designs.s3.us-west-1.amazonaws.com/assets/libs/colorado-3-baseball-banner-2-1640655729574.png" class="asset" transform="matrix(0.2676615417003631,0,0,0.2676615417003631,14.737978935241692,77.6177291870117)"></image><image width="704" height="760" xlink:href="https://lct-designs.s3.us-west-1.amazonaws.com/assets/libs/colorado-rockies-2-8-1640655709330.png" class="asset" transform="matrix(0.19564227759838101,0,0,0.19564227759838101,358.6786499023437,151.5472412109375)"></image><image width="760" height="735" xlink:href="https://lct-designs.s3.us-west-1.amazonaws.com/assets/libs/colorado-rockies-2-7-1640655751448.png" class="asset" transform="matrix(0.04487987980246543,0,0,0.04487987980246543,206.36421203613278,96.18685150146486)"></image><text fill="#40008f" font-family="Franklin Gothic" font-size="45" stroke-opacity="1" stroke-width="1" stroke="#ffffff" x="179.24818628363937" y="200.63462315225064" transform="matrix(0.36470538377761835,0,0,0.36470538377761835,172.32740783691406,47.166557312011705)" svgjs:data="{&quot;leading&quot;:&quot;1.3&quot;}"><tspan dy="0" x="179.24818628363937" svgjs:data="{&quot;newLined&quot;:true}">PLAYER</tspan></text><image width="760" height="735" xlink:href="https://lct-designs.s3.us-west-1.amazonaws.com/assets/libs/colorado-rockies-2-7-1640655751448.png" class="asset" transform="matrix(0.04487987980246543,0,0,0.04487987980246543,303.5255584716797,77.92971801757808)"></image><text fill="#40008f" font-family="Franklin Gothic" font-size="45" stroke-opacity="1" stroke-width="1" stroke="#ffffff" x="179.24818628363937" y="200.63462315225064" transform="matrix(0.36470538377761835,0,0,0.36470538377761835,269.48875427246094,28.909423828124986)" svgjs:data="{&quot;leading&quot;:&quot;1.3&quot;}"><tspan dy="0" x="179.24818628363937" svgjs:data="{&quot;newLined&quot;:true}">PLAYER</tspan></text><image width="760" height="735" xlink:href="https://lct-designs.s3.us-west-1.amazonaws.com/assets/libs/colorado-rockies-2-7-1640655751448.png" class="asset" transform="matrix(0.04487987980246543,0,0,0.04487987980246543,407.16516113281244,104.43202209472655)"></image><text fill="#40008f" font-family="Franklin Gothic" font-size="45" stroke-opacity="1" stroke-width="1" stroke="#ffffff" x="179.24818628363937" y="200.63462315225064" transform="matrix(0.3647054135799408,0,0,0.36470541357994074,373.12835693359364,55.41172790527342)" svgjs:data="{&quot;leading&quot;:&quot;1.3&quot;}"><tspan dy="0" x="179.24818628363937" svgjs:data="{&quot;newLined&quot;:true}">PLAYER</tspan></text><image width="760" height="735" xlink:href="https://lct-designs.s3.us-west-1.amazonaws.com/assets/libs/colorado-rockies-2-7-1640655751448.png" class="asset" transform="matrix(0.04487987980246543,0,0,0.04487987980246543,285.8341674804687,135.05690002441406)"></image><text fill="#40008f" font-family="Franklin Gothic" font-size="45" stroke-opacity="1" stroke-width="1" stroke="#ffffff" x="179.24818628363937" y="200.63462315225064" transform="matrix(0.3647054135799408,0,0,0.36470541357994074,251.79736328124994,86.03660583496092)" svgjs:data="{&quot;leading&quot;:&quot;1.3&quot;}"><tspan dy="0" x="179.24818628363937" svgjs:data="{&quot;newLined&quot;:true}">PLAYER</tspan></text><image width="760" height="735" xlink:href="https://lct-designs.s3.us-west-1.amazonaws.com/assets/libs/colorado-rockies-2-7-1640655751448.png" class="asset" transform="matrix(0.04487987980246543,0,0,0.04487987980246543,231.64102172851562,173.92695617675776)"></image><text fill="#40008f" font-family="Franklin Gothic" font-size="45" stroke-opacity="1" stroke-width="1" stroke="#ffffff" x="179.24818628363937" y="200.63462315225064" transform="matrix(0.3647054135799408,0,0,0.36470541357994074,197.60421752929685,124.90666198730467)" svgjs:data="{&quot;leading&quot;:&quot;1.3&quot;}"><tspan dy="0" x="179.24818628363937" svgjs:data="{&quot;newLined&quot;:true}">PLAYER</tspan></text><image width="760" height="735" xlink:href="https://lct-designs.s3.us-west-1.amazonaws.com/assets/libs/colorado-rockies-2-7-1640655751448.png" class="asset" transform="matrix(0.04487987980246543,0,0,0.04487987980246543,268.1427917480469,215.741714477539)"></image><text fill="#40008f" font-family="Franklin Gothic" font-size="45" stroke-opacity="1" stroke-width="1" stroke="#ffffff" x="179.24818628363937" y="200.63462315225064" transform="matrix(0.3647054135799408,0,0,0.36470541357994074,234.10598754882812,166.72142028808588)" svgjs:data="{&quot;leading&quot;:&quot;1.3&quot;}"><tspan dy="0" x="179.24818628363937" svgjs:data="{&quot;newLined&quot;:true}">PLAYER</tspan></text><image width="760" height="735" xlink:href="https://lct-designs.s3.us-west-1.amazonaws.com/assets/libs/colorado-rockies-2-7-1640655751448.png" class="asset" transform="matrix(0.04487987980246543,0,0,0.04487987980246543,231.02853393554688,252.84494018554682)"></image><text fill="#40008f" font-family="Franklin Gothic" font-size="45" stroke-opacity="1" stroke-width="1" stroke="#ffffff" x="179.24818628363937" y="200.63462315225064" transform="matrix(0.3647054135799408,0,0,0.36470541357994074,196.9917297363281,203.8246459960937)" svgjs:data="{&quot;leading&quot;:&quot;1.3&quot;}"><tspan dy="0" x="179.24818628363937" svgjs:data="{&quot;newLined&quot;:true}">PLAYER</tspan></text><image width="760" height="735" xlink:href="https://lct-designs.s3.us-west-1.amazonaws.com/assets/libs/colorado-rockies-2-7-1640655751448.png" class="asset" transform="matrix(0.04487987980246543,0,0,0.04487987980246543,132.66577148437497,226.9315643310547)"></image><text fill="#40008f" font-family="Franklin Gothic" font-size="45" stroke-opacity="1" stroke-width="1" stroke="#ffffff" x="179.24818628363937" y="200.63462315225064" transform="matrix(0.3647054135799408,0,0,0.36470541357994074,98.62896728515622,177.9112701416015)" svgjs:data="{&quot;leading&quot;:&quot;1.3&quot;}"><tspan dy="0" x="179.24818628363937" svgjs:data="{&quot;newLined&quot;:true}">PLAYER</tspan></text><image width="760" height="735" xlink:href="https://lct-designs.s3.us-west-1.amazonaws.com/assets/libs/colorado-rockies-2-7-1640655751448.png" class="asset" transform="matrix(0.04487987980246543,0,0,0.04487987980246543,26.646926879882812,226.9315643310547)"></image><text fill="#40008f" font-family="Franklin Gothic" font-size="45" stroke-opacity="1" stroke-width="1" stroke="#ffffff" x="179.24818628363937" y="200.63462315225064" transform="matrix(0.3647054135799408,0,0,0.36470541357994074,-7.3898773193359375,177.9112701416015)" svgjs:data="{&quot;leading&quot;:&quot;1.3&quot;}"><tspan dy="0" x="179.24818628363937" svgjs:data="{&quot;newLined&quot;:true}">PLAYER</tspan></text><text fill="#40008f" font-family="Franklin Gothic" font-size="45" stroke-opacity="1" stroke-width="1" stroke="#ffffff" x="179.24818628363937" y="200.63462315225064" transform="matrix(0.39785647392272944,0,0,0.39785647392272944,-49.2449951171875,203.369400024414)" svgjs:data="{&quot;leading&quot;:&quot;1.3&quot;}"><tspan dy="0" x="179.24818628363937" svgjs:data="{&quot;newLined&quot;:true}">Coach: Coach name</tspan></text><g class="mask" style="pointer-events: none;"><g><path fill="#BCBEC0" d="M-3642.4-2101.7v4589.1h7813.4v-4589.1H-3642.4z M500.5,67.2v233.3v66.7H0.5v-66.7V67.2V0.5h500V67.2z" transform="matrix(1,0,0,1,0,0)"></path><g transform="matrix(1,0,0,1,0,0)">
	<rect x="0.5" y="300.5" opacity="0.95" fill="#F1F2F2" width="500" height="66.7"></rect>
	<rect x="0.5" y="0.5" opacity="0.95" fill="#F1F2F2" width="500" height="66.7"></rect>
</g></g></g></svg>