<svg xmlns="http://www.w3.org/2000/svg" version="1.1" xmlns:xlink="http://www.w3.org/1999/xlink" xmlns:svgjs="http://svgjs.dev/svgjs" width="100%" height="100%" viewBox="1 1 499 365.70001220703125" preserveAspectRatio="none" data-info="{&quot;_id&quot;:4,&quot;name&quot;:&quot;POLE POCKET SOCCER BANNERS&quot;,&quot;information&quot;:&quot;- Size: 3’x5’\n- Material: heavy duty vinyl banner\n- Digitally printed on vinyl&quot;,&quot;price&quot;:&quot;95.00&quot;,&quot;sale_price&quot;:&quot;89.99&quot;,&quot;type&quot;:&quot;pole-pocket&quot;,&quot;cover&quot;:{&quot;key&quot;:&quot;assets/models/pole-1628062864266-1631924568908.png&quot;,&quot;url&quot;:&quot;https://lct-designs.s3.us-west-1.amazonaws.com/assets/models/pole-1628062864266-1631924568908.png&quot;},&quot;back&quot;:{&quot;key&quot;:&quot;assets/models/pole-1631924700152.svg&quot;,&quot;url&quot;:&quot;https://lct-designs.s3.us-west-1.amazonaws.com/assets/models/pole-1631924700152.svg&quot;},&quot;mask&quot;:{&quot;key&quot;:&quot;assets/models/pole-mask-1631925211715.svg&quot;,&quot;url&quot;:&quot;https://lct-designs.s3.us-west-1.amazonaws.com/assets/models/pole-mask-1631925211715.svg&quot;},&quot;pos&quot;:&quot;2&quot;,&quot;accessories&quot;:&quot;2,3&quot;}" style="background-color: white;"><g class="model" style="pointer-events: none;"><polygon fill="#FFFFFF" points="0.5,0.5 0.5,67.2 0.5,300.5 0.5,367.2 500.5,367.2 500.5,300.5 500.5,67.2 500.5,0.5 "></polygon></g><image width="760" height="556" xlink:href="https://lct-designs.s3.us-west-1.amazonaws.com/assets/libs/milwaukee-baseball-banner-1643250595561.png" class="asset background locked" transform="matrix(0.6595323960558116,0,0,0.6595323960558116,0,0)"></image><image width="760" height="430" xlink:href="https://lct-designs.s3.us-west-1.amazonaws.com/assets/libs/milwaukee-2-baseball-banner-1642211554459.png" class="asset" transform="matrix(0.2329290807247162,0,0,0.2329290807247162,287.161376953125,79.6761932373047)"></image><image width="760" height="425" xlink:href="https://lct-designs.s3.us-west-1.amazonaws.com/assets/libs/milwaukee-2-baseball-banner-1641953851067.png" class="asset" transform="matrix(0.28954970836639404,0,0,0.28954970836639404,155.54637145996094,73.5268096923828)"></image><image width="557" height="760" xlink:href="https://lct-designs.s3.us-west-1.amazonaws.com/assets/libs/milwaukee-baseball-banner-9-1641953714875.png" class="asset" transform="matrix(0.23309232294559482,0,0,0.2330923229455948,16.06430625915527,112.14817047119139)"></image><text fill="#003d75" font-family="Freshman" font-size="45" stroke-opacity="1" stroke-width="1" stroke="#ffffff" x="146.87521397404998" y="199.4567590775436" transform="matrix(0.33813580870628357,0,0,0.3381358087062835,-35.06913375854492,25.99183845520018)" svgjs:data="{&quot;leading&quot;:&quot;1.3&quot;}"><tspan dy="0" x="146.87521397404998" svgjs:data="{&quot;newLined&quot;:true}">Coach: Coach name</tspan></text><image width="699" height="760" xlink:href="https://lct-designs.s3.us-west-1.amazonaws.com/assets/libs/milwaukee-2-baseball-banner--1641953946813.png" class="asset" transform="matrix(0.03626492992043495,0,0,0.03626492992043495,138.6421356201172,198.1334228515625)"></image><text fill="#003d75" font-family="Freshman" font-size="45" stroke-opacity="1" stroke-width="1" stroke="#ffffff" x="164.98950731691127" y="199.4567558467249" transform="matrix(0.33780717849731445,0,0,0.33780717849731445,110.75059509277344,154.43113708496094)" svgjs:data="{&quot;leading&quot;:&quot;1.3&quot;}"><tspan dy="0" x="164.98950731691127" svgjs:data="{&quot;newLined&quot;:true}">Player</tspan></text><image width="699" height="760" xlink:href="https://lct-designs.s3.us-west-1.amazonaws.com/assets/libs/milwaukee-2-baseball-banner--1641953946813.png" class="asset" transform="matrix(0.03626492992043495,0,0,0.03626492992043495,149.8199920654297,231.70300292968744)"></image><text fill="#003d75" font-family="Freshman" font-size="45" stroke-opacity="1" stroke-width="1" stroke="#ffffff" x="164.98950731691127" y="199.4567558467249" transform="matrix(0.33780717849731445,0,0,0.33780717849731445,121.92845153808594,188.00071716308594)" svgjs:data="{&quot;leading&quot;:&quot;1.3&quot;}"><tspan dy="0" x="164.98950731691127" svgjs:data="{&quot;newLined&quot;:true}">Player</tspan></text><image width="699" height="760" xlink:href="https://lct-designs.s3.us-west-1.amazonaws.com/assets/libs/milwaukee-2-baseball-banner--1641953946813.png" class="asset" transform="matrix(0.03626492992043495,0,0,0.03626492992043495,162.1757049560547,262.327880859375)"></image><text fill="#003d75" font-family="Freshman" font-size="45" stroke-opacity="1" stroke-width="1" stroke="#ffffff" x="164.98950731691127" y="199.4567558467249" transform="matrix(0.33780717849731445,0,0,0.33780717849731445,134.28416442871094,218.03665161132812)" svgjs:data="{&quot;leading&quot;:&quot;1.3&quot;}"><tspan dy="0" x="164.98950731691127" svgjs:data="{&quot;newLined&quot;:true}">Player</tspan></text><image width="699" height="760" xlink:href="https://lct-designs.s3.us-west-1.amazonaws.com/assets/libs/milwaukee-2-baseball-banner--1641953946813.png" class="asset" transform="matrix(0.036264922469854355,0,0,0.036264922469854355,257.5938415527344,199.31129455566406)"></image><text fill="#003d75" font-family="Freshman" font-size="45" stroke-opacity="1" stroke-width="1" stroke="#ffffff" x="164.98950731691127" y="199.4567558467249" transform="matrix(0.33780717849731445,0,0,0.33780717849731445,229.70230102539062,155.6090087890625)" svgjs:data="{&quot;leading&quot;:&quot;1.3&quot;}"><tspan dy="0" x="164.98950731691127" svgjs:data="{&quot;newLined&quot;:true}">Player</tspan></text><image width="699" height="760" xlink:href="https://lct-designs.s3.us-west-1.amazonaws.com/assets/libs/milwaukee-2-baseball-banner--1641953946813.png" class="asset" transform="matrix(0.03626492992043495,0,0,0.03626492992043495,268.7716979980469,232.880874633789)"></image><text fill="#003d75" font-family="Freshman" font-size="45" stroke-opacity="1" stroke-width="1" stroke="#ffffff" x="164.98950731691127" y="199.4567558467249" transform="matrix(0.33780717849731445,0,0,0.33780717849731445,240.88015747070312,189.1785888671875)" svgjs:data="{&quot;leading&quot;:&quot;1.3&quot;}"><tspan dy="0" x="164.98950731691127" svgjs:data="{&quot;newLined&quot;:true}">Player</tspan></text><image width="699" height="760" xlink:href="https://lct-designs.s3.us-west-1.amazonaws.com/assets/libs/milwaukee-2-baseball-banner--1641953946813.png" class="asset" transform="matrix(0.03626492992043495,0,0,0.03626492992043495,281.12741088867193,263.50575256347656)"></image><text fill="#003d75" font-family="Freshman" font-size="45" stroke-opacity="1" stroke-width="1" stroke="#ffffff" x="164.98950731691127" y="199.4567558467249" transform="matrix(0.33780717849731445,0,0,0.33780717849731445,253.23587036132812,219.80348205566406)" svgjs:data="{&quot;leading&quot;:&quot;1.3&quot;}"><tspan dy="0" x="164.98950731691127" svgjs:data="{&quot;newLined&quot;:true}">Player</tspan></text><image width="699" height="760" xlink:href="https://lct-designs.s3.us-west-1.amazonaws.com/assets/libs/milwaukee-2-baseball-banner--1641953946813.png" class="asset" transform="matrix(0.03626492992043495,0,0,0.03626492992043495,375.3677062988282,200.4891815185547)"></image><text fill="#003d75" font-family="Freshman" font-size="45" stroke-opacity="1" stroke-width="1" stroke="#ffffff" x="164.98950731691127" y="199.4567558467249" transform="matrix(0.33780717849731445,0,0,0.33780717849731445,347.4761657714844,156.78689575195312)" svgjs:data="{&quot;leading&quot;:&quot;1.3&quot;}"><tspan dy="0" x="164.98950731691127" svgjs:data="{&quot;newLined&quot;:true}">Player</tspan></text><image width="699" height="760" xlink:href="https://lct-designs.s3.us-west-1.amazonaws.com/assets/libs/milwaukee-2-baseball-banner--1641953946813.png" class="asset" transform="matrix(0.03626492992043495,0,0,0.03626492992043495,386.5455627441406,234.05876159667963)"></image><text fill="#003d75" font-family="Freshman" font-size="45" stroke-opacity="1" stroke-width="1" stroke="#ffffff" x="164.98950731691127" y="199.4567558467249" transform="matrix(0.33780717849731445,0,0,0.33780717849731445,358.65402221679693,190.35647583007812)" svgjs:data="{&quot;leading&quot;:&quot;1.3&quot;}"><tspan dy="0" x="164.98950731691127" svgjs:data="{&quot;newLined&quot;:true}">Player</tspan></text><image width="699" height="760" xlink:href="https://lct-designs.s3.us-west-1.amazonaws.com/assets/libs/milwaukee-2-baseball-banner--1641953946813.png" class="asset" transform="matrix(0.03626492992043495,0,0,0.03626492992043495,398.9012756347657,264.6836242675781)"></image><text fill="#003d75" font-family="Freshman" font-size="45" stroke-opacity="1" stroke-width="1" stroke="#ffffff" x="164.98950731691127" y="199.4567558467249" transform="matrix(0.33780717849731445,0,0,0.33780717849731445,371.0097351074219,220.9813690185547)" svgjs:data="{&quot;leading&quot;:&quot;1.3&quot;}"><tspan dy="0" x="164.98950731691127" svgjs:data="{&quot;newLined&quot;:true}">Player</tspan></text><g class="mask" style="pointer-events: none;"><g><path fill="#BCBEC0" d="M-3642.4-2101.7v4589.1h7813.4v-4589.1H-3642.4z M500.5,67.2v233.3v66.7H0.5v-66.7V67.2V0.5h500V67.2z" transform="matrix(1,0,0,1,0,0)"></path><g transform="matrix(1,0,0,1,0,0)">
	<rect x="0.5" y="300.5" opacity="0.95" fill="#F1F2F2" width="500" height="66.7"></rect>
	<rect x="0.5" y="0.5" opacity="0.95" fill="#F1F2F2" width="500" height="66.7"></rect>
</g></g></g></svg>