<svg xmlns="http://www.w3.org/2000/svg" version="1.1" xmlns:xlink="http://www.w3.org/1999/xlink" xmlns:svgjs="http://svgjs.dev/svgjs" width="100%" height="100%" viewBox="1 1 499 365.70001220703125" preserveAspectRatio="none" data-info="{&quot;_id&quot;:4,&quot;name&quot;:&quot;POLE POCKET SOCCER BANNERS&quot;,&quot;information&quot;:&quot;- Size: 3’x5’\n- Material: heavy duty vinyl banner\n- Digitally printed on vinyl&quot;,&quot;price&quot;:&quot;95.00&quot;,&quot;sale_price&quot;:&quot;89.99&quot;,&quot;type&quot;:&quot;pole-pocket&quot;,&quot;cover&quot;:{&quot;key&quot;:&quot;assets/models/pole-1628062864266-1631924568908.png&quot;,&quot;url&quot;:&quot;https://lct-designs.s3.us-west-1.amazonaws.com/assets/models/pole-1628062864266-1631924568908.png&quot;},&quot;back&quot;:{&quot;key&quot;:&quot;assets/models/pole-1631924700152.svg&quot;,&quot;url&quot;:&quot;https://lct-designs.s3.us-west-1.amazonaws.com/assets/models/pole-1631924700152.svg&quot;},&quot;mask&quot;:{&quot;key&quot;:&quot;assets/models/pole-mask-1631925211715.svg&quot;,&quot;url&quot;:&quot;https://lct-designs.s3.us-west-1.amazonaws.com/assets/models/pole-mask-1631925211715.svg&quot;},&quot;pos&quot;:&quot;2&quot;,&quot;accessories&quot;:&quot;2,3&quot;}" style="background-color: white;"><g class="model" style="pointer-events: none;"><polygon fill="#FFFFFF" points="0.5,0.5 0.5,67.2 0.5,300.5 0.5,367.2 500.5,367.2 500.5,300.5 500.5,67.2 500.5,0.5 "></polygon></g><image width="760" height="556" xlink:href="https://lct-designs.s3.us-west-1.amazonaws.com/assets/libs/minnesota-twins-baseball-banner-1641953092640.png" class="asset background locked" transform="matrix(0.6595323960558116,0,0,0.6595323960558116,0,0)"></image><image width="760" height="760" xlink:href="https://lct-designs.s3.us-west-1.amazonaws.com/assets/libs/minnesota-2-baseball-banner-1641953851068.png" class="asset" transform="matrix(0.21086978912353516,0,0,0.21086978912353516,161.45466613769528,105.11926269531251)"></image><image width="729" height="760" xlink:href="https://lct-designs.s3.us-west-1.amazonaws.com/assets/libs/minnesota-twins-baseball-banner--1641953788874.png" class="asset" transform="matrix(0.20229782164096832,0,0,0.20229782164096832,18.00038909912109,131.7213134765625)"></image><image width="760" height="405" xlink:href="https://lct-designs.s3.us-west-1.amazonaws.com/assets/libs/minnesota-twins-baseball-banner--1641953965316.png" class="asset" transform="matrix(0.05383235588669776,0,0,0.05383235588669777,20.304027557373043,80.15651702880861)"></image><text fill="#8a0000" font-family="Impact" font-size="45" stroke-opacity="1" stroke-width="1" stroke="#ffffff" x="187.90605373139462" y="202.03693213394413" transform="matrix(0.34664136171340937,0,0,0.3466413617134095,-46.610984802246094,48.99693298339845)" svgjs:data="{&quot;leading&quot;:&quot;1.3&quot;}"><tspan dy="0" x="187.90605373139462" svgjs:data="{&quot;newLined&quot;:true}">PLAYER</tspan></text><image width="760" height="405" xlink:href="https://lct-designs.s3.us-west-1.amazonaws.com/assets/libs/minnesota-twins-baseball-banner--1641953965316.png" class="asset" transform="matrix(0.05383235588669776,0,0,0.05383235588669777,99.25082397460935,80.15651702880861)"></image><text fill="#8a0000" font-family="Impact" font-size="45" stroke-opacity="1" stroke-width="1" stroke="#ffffff" x="187.90605373139462" y="202.03693213394413" transform="matrix(0.3466413915157318,0,0,0.3466413915157318,32.335807800292955,48.99693298339844)" svgjs:data="{&quot;leading&quot;:&quot;1.3&quot;}"><tspan dy="0" x="187.90605373139462" svgjs:data="{&quot;newLined&quot;:true}">PLAYER</tspan></text><image width="760" height="405" xlink:href="https://lct-designs.s3.us-west-1.amazonaws.com/assets/libs/minnesota-twins-baseball-banner--1641953965316.png" class="asset" transform="matrix(0.05383235588669776,0,0,0.05383235588669777,350.0651245117187,86.12841033935547)"></image><text fill="#8a0000" font-family="Impact" font-size="45" stroke-opacity="1" stroke-width="1" stroke="#ffffff" x="187.90605373139462" y="202.03693213394413" transform="matrix(0.3466415405273437,0,0,0.34664154052734375,283.1501159667968,54.96882629394531)" svgjs:data="{&quot;leading&quot;:&quot;1.3&quot;}"><tspan dy="0" x="187.90605373139462" svgjs:data="{&quot;newLined&quot;:true}">PLAYER</tspan></text><image width="760" height="405" xlink:href="https://lct-designs.s3.us-west-1.amazonaws.com/assets/libs/minnesota-twins-baseball-banner--1641953965316.png" class="asset" transform="matrix(0.05383235588669776,0,0,0.05383235588669777,429.0119323730468,86.12841033935547)"></image><text fill="#8a0000" font-family="Impact" font-size="45" stroke-opacity="1" stroke-width="1" stroke="#ffffff" x="187.90605373139462" y="202.03693213394413" transform="matrix(0.3466415405273437,0,0,0.34664154052734375,362.09692382812494,54.96882629394531)" svgjs:data="{&quot;leading&quot;:&quot;1.3&quot;}"><tspan dy="0" x="187.90605373139462" svgjs:data="{&quot;newLined&quot;:true}">PLAYER</tspan></text><image width="760" height="405" xlink:href="https://lct-designs.s3.us-west-1.amazonaws.com/assets/libs/minnesota-twins-baseball-banner--1641953965316.png" class="asset" transform="matrix(0.05383235588669776,0,0,0.05383235588669777,350.2931518554687,138.7896270751953)"></image><text fill="#8a0000" font-family="Impact" font-size="45" stroke-opacity="1" stroke-width="1" stroke="#ffffff" x="187.90605373139462" y="202.03693213394413" transform="matrix(0.34664160013198847,0,0,0.3466416001319885,283.3781433105468,107.63004302978516)" svgjs:data="{&quot;leading&quot;:&quot;1.3&quot;}"><tspan dy="0" x="187.90605373139462" svgjs:data="{&quot;newLined&quot;:true}">PLAYER</tspan></text><image width="760" height="405" xlink:href="https://lct-designs.s3.us-west-1.amazonaws.com/assets/libs/minnesota-twins-baseball-banner--1641953965316.png" class="asset" transform="matrix(0.05383235588669776,0,0,0.05383235588669777,429.2399597167968,138.7896270751953)"></image><text fill="#8a0000" font-family="Impact" font-size="45" stroke-opacity="1" stroke-width="1" stroke="#ffffff" x="187.90605373139462" y="202.03693213394413" transform="matrix(0.34664160013198847,0,0,0.3466416001319885,362.32495117187494,107.63004302978516)" svgjs:data="{&quot;leading&quot;:&quot;1.3&quot;}"><tspan dy="0" x="187.90605373139462" svgjs:data="{&quot;newLined&quot;:true}">PLAYER</tspan></text><image width="760" height="405" xlink:href="https://lct-designs.s3.us-west-1.amazonaws.com/assets/libs/minnesota-twins-baseball-banner--1641953965316.png" class="asset" transform="matrix(0.05383235588669776,0,0,0.05383235588669777,348.66445922851557,192.53662109375003)"></image><text fill="#8a0000" font-family="Impact" font-size="45" stroke-opacity="1" stroke-width="1" stroke="#ffffff" x="187.90605373139462" y="202.03693213394413" transform="matrix(0.34664160013198847,0,0,0.3466416001319885,281.7494506835937,161.37704467773438)" svgjs:data="{&quot;leading&quot;:&quot;1.3&quot;}"><tspan dy="0" x="187.90605373139462" svgjs:data="{&quot;newLined&quot;:true}">PLAYER</tspan></text><image width="760" height="405" xlink:href="https://lct-designs.s3.us-west-1.amazonaws.com/assets/libs/minnesota-twins-baseball-banner--1641953965316.png" class="asset" transform="matrix(0.05383235588669776,0,0,0.05383235588669777,427.6112670898437,192.53662109375003)"></image><text fill="#8a0000" font-family="Impact" font-size="45" stroke-opacity="1" stroke-width="1" stroke="#ffffff" x="187.90605373139462" y="202.03693213394413" transform="matrix(0.34664160013198847,0,0,0.3466416001319885,360.6962585449218,161.37704467773438)" svgjs:data="{&quot;leading&quot;:&quot;1.3&quot;}"><tspan dy="0" x="187.90605373139462" svgjs:data="{&quot;newLined&quot;:true}">PLAYER</tspan></text><image width="760" height="405" xlink:href="https://lct-designs.s3.us-west-1.amazonaws.com/assets/libs/minnesota-twins-baseball-banner--1641953965316.png" class="asset" transform="matrix(0.05383235588669776,0,0,0.05383235588669777,348.89248657226557,245.1978454589844)"></image><text fill="#8a0000" font-family="Impact" font-size="45" stroke-opacity="1" stroke-width="1" stroke="#ffffff" x="187.90605373139462" y="202.03693213394413" transform="matrix(0.34664165973663325,0,0,0.3466416597366333,281.9774780273437,214.03826904296878)" svgjs:data="{&quot;leading&quot;:&quot;1.3&quot;}"><tspan dy="0" x="187.90605373139462" svgjs:data="{&quot;newLined&quot;:true}">PLAYER</tspan></text><image width="760" height="405" xlink:href="https://lct-designs.s3.us-west-1.amazonaws.com/assets/libs/minnesota-twins-baseball-banner--1641953965316.png" class="asset" transform="matrix(0.05383235588669776,0,0,0.05383235588669777,427.8392944335937,245.1978454589844)"></image><text fill="#8a0000" font-family="Impact" font-size="45" stroke-opacity="1" stroke-width="1" stroke="#ffffff" x="187.90605373139462" y="202.03693213394413" transform="matrix(0.34664165973663325,0,0,0.3466416597366333,360.9242858886718,214.03826904296878)" svgjs:data="{&quot;leading&quot;:&quot;1.3&quot;}"><tspan dy="0" x="187.90605373139462" svgjs:data="{&quot;newLined&quot;:true}">PLAYER</tspan></text><image width="760" height="408" xlink:href="https://lct-designs.s3.us-west-1.amazonaws.com/assets/libs/minnesota-baseball-banner-1642218820670.png" class="asset" transform="matrix(-0.09355828166007996,0.0010761835146695378,0.0010389793897047639,0.09032430499792099,350.2671813964843,71.40789794921875)"></image><text fill="#8a0000" font-family="Impact" font-size="45" stroke-opacity="1" stroke-width="1" stroke="#ffffff" x="187.90605373139462" y="202.03693213394413" transform="matrix(0.3466414511203766,0,0,0.3466414511203766,115.08280944824219,216.75274658203122)" svgjs:data="{&quot;leading&quot;:&quot;1.3&quot;}"><tspan dy="0" x="187.90605373139462" svgjs:data="{&quot;newLined&quot;:true}">Coach: Coach name</tspan></text><g class="mask" style="pointer-events: none;"><g><path fill="#BCBEC0" d="M-3642.4-2101.7v4589.1h7813.4v-4589.1H-3642.4z M500.5,67.2v233.3v66.7H0.5v-66.7V67.2V0.5h500V67.2z" transform="matrix(1,0,0,1,0,0)"></path><g transform="matrix(1,0,0,1,0,0)">
	<rect x="0.5" y="300.5" opacity="0.95" fill="#F1F2F2" width="500" height="66.7"></rect>
	<rect x="0.5" y="0.5" opacity="0.95" fill="#F1F2F2" width="500" height="66.7"></rect>
</g></g></g></svg>