<svg xmlns="http://www.w3.org/2000/svg" version="1.1" xmlns:xlink="http://www.w3.org/1999/xlink" xmlns:svgjs="http://svgjs.dev/svgjs" width="100%" height="100%" viewBox="1 1 499 365.70001220703125" preserveAspectRatio="none" data-info="{&quot;_id&quot;:4,&quot;name&quot;:&quot;POLE POCKET SOCCER BANNERS&quot;,&quot;information&quot;:&quot;- Size: 3’x5’\n- Material: heavy duty vinyl banner\n- Digitally printed on vinyl&quot;,&quot;price&quot;:&quot;95.00&quot;,&quot;sale_price&quot;:&quot;89.99&quot;,&quot;type&quot;:&quot;pole-pocket&quot;,&quot;cover&quot;:{&quot;key&quot;:&quot;assets/models/pole-1628062864266-1631924568908.png&quot;,&quot;url&quot;:&quot;https://lct-designs.s3.us-west-1.amazonaws.com/assets/models/pole-1628062864266-1631924568908.png&quot;},&quot;back&quot;:{&quot;key&quot;:&quot;assets/models/pole-1631924700152.svg&quot;,&quot;url&quot;:&quot;https://lct-designs.s3.us-west-1.amazonaws.com/assets/models/pole-1631924700152.svg&quot;},&quot;mask&quot;:{&quot;key&quot;:&quot;assets/models/pole-mask-1631925211715.svg&quot;,&quot;url&quot;:&quot;https://lct-designs.s3.us-west-1.amazonaws.com/assets/models/pole-mask-1631925211715.svg&quot;},&quot;pos&quot;:&quot;2&quot;,&quot;accessories&quot;:&quot;2,3&quot;}" style="background-color: white;"><g class="model" style="pointer-events: none;"><polygon fill="#FFFFFF" points="0.5,0.5 0.5,67.2 0.5,300.5 0.5,367.2 500.5,367.2 500.5,300.5 500.5,67.2 500.5,0.5 "></polygon></g><image width="760" height="556" xlink:href="https://lct-designs.s3.us-west-1.amazonaws.com/assets/libs/mets-4-baseball-banner-7-1641953067451.png" class="asset background locked" transform="matrix(0.6595323960558116,0,0,0.6595323960558116,0,0)"></image><image width="744" height="760" xlink:href="https://lct-designs.s3.us-west-1.amazonaws.com/assets/libs/mets-4-baseball-banner--1641953714874.png" class="asset" transform="matrix(0.16877466440200806,0,0,0.16877466440200803,7.884195804595947,166.91958618164062)"></image><image width="760" height="760" xlink:href="https://lct-designs.s3.us-west-1.amazonaws.com/assets/libs/mets-3-softball-banner-1640683948795.png" class="asset" transform="matrix(0.2315424680709839,0,0,0.2315424680709839,162.30859375,95.65784454345702)"></image><image width="760" height="530" xlink:href="https://lct-designs.s3.us-west-1.amazonaws.com/assets/libs/mets-4-baseball-banner-1641953946813.png" class="asset" transform="matrix(0.040461622178554535,0,0,0.040461622178554535,19.19905281066894,80.7534713745117)"></image><text fill="#ffffff" font-family="Dutch801 XBd BT" font-size="45" x="186.94721162256008" y="200.3401558101038" transform="matrix(0.3370653688907624,0,0,0.33706536889076233,-50.97789764404297,46.77780914306639)" svgjs:data="{&quot;leading&quot;:&quot;1.3&quot;}"><tspan dy="0" x="186.94721162256008" svgjs:data="{&quot;newLined&quot;:true}">Player</tspan></text><image width="760" height="530" xlink:href="https://lct-designs.s3.us-west-1.amazonaws.com/assets/libs/mets-4-baseball-banner-1641953946813.png" class="asset" transform="matrix(0.040461622178554535,0,0,0.040461622178554535,79.25794982910158,81.34240722656251)"></image><text fill="#ffffff" font-family="Dutch801 XBd BT" font-size="45" x="186.94721162256008" y="200.3401558101038" transform="matrix(0.3370653688907624,0,0,0.33706536889076233,9.080997467041012,47.36674499511717)" svgjs:data="{&quot;leading&quot;:&quot;1.3&quot;}"><tspan dy="0" x="186.94721162256008" svgjs:data="{&quot;newLined&quot;:true}">Player</tspan></text><image width="760" height="530" xlink:href="https://lct-designs.s3.us-west-1.amazonaws.com/assets/libs/mets-4-baseball-banner-1641953946813.png" class="asset" transform="matrix(0.040461622178554535,0,0,0.040461622178554535,141.67254638671875,80.7534713745117)"></image><text fill="#ffffff" font-family="Dutch801 XBd BT" font-size="45" x="186.94721162256008" y="200.3401558101038" transform="matrix(0.3370653688907624,0,0,0.33706536889076233,71.49560546875001,46.77780914306639)" svgjs:data="{&quot;leading&quot;:&quot;1.3&quot;}"><tspan dy="0" x="186.94721162256008" svgjs:data="{&quot;newLined&quot;:true}">Player</tspan></text><image width="760" height="530" xlink:href="https://lct-designs.s3.us-west-1.amazonaws.com/assets/libs/mets-4-baseball-banner-1641953946813.png" class="asset" transform="matrix(0.040461622178554535,0,0,0.040461622178554535,46.855125427246094,127.2797393798828)"></image><text fill="#ffffff" font-family="Dutch801 XBd BT" font-size="45" x="186.94721162256008" y="200.3401558101038" transform="matrix(0.3370653688907624,0,0,0.33706536889076233,-23.321826934814453,93.30407714843749)" svgjs:data="{&quot;leading&quot;:&quot;1.3&quot;}"><tspan dy="0" x="186.94721162256008" svgjs:data="{&quot;newLined&quot;:true}">Player</tspan></text><image width="760" height="530" xlink:href="https://lct-designs.s3.us-west-1.amazonaws.com/assets/libs/mets-4-baseball-banner-1641953946813.png" class="asset" transform="matrix(0.040461622178554535,0,0,0.040461622178554535,109.26972198486331,126.69080352783205)"></image><text fill="#ffffff" font-family="Dutch801 XBd BT" font-size="45" x="186.94721162256008" y="200.3401558101038" transform="matrix(0.3370653688907624,0,0,0.33706536889076233,39.09278106689453,92.71514129638668)" svgjs:data="{&quot;leading&quot;:&quot;1.3&quot;}"><tspan dy="0" x="186.94721162256008" svgjs:data="{&quot;newLined&quot;:true}">Player</tspan></text><image width="760" height="530" xlink:href="https://lct-designs.s3.us-west-1.amazonaws.com/assets/libs/mets-4-baseball-banner-1641953946813.png" class="asset" transform="matrix(0.040461622178554535,0,0,0.040461622178554535,327.78563117980957,84.8760528564453)"></image><text fill="#ffffff" font-family="Dutch801 XBd BT" font-size="45" x="186.94721162256008" y="200.3401558101038" transform="matrix(0.3370653688907624,0,0,0.33706536889076233,257.60868072509766,50.900390624999986)" svgjs:data="{&quot;leading&quot;:&quot;1.3&quot;}"><tspan dy="0" x="186.94721162256008" svgjs:data="{&quot;newLined&quot;:true}">Player</tspan></text><image width="760" height="530" xlink:href="https://lct-designs.s3.us-west-1.amazonaws.com/assets/libs/mets-4-baseball-banner-1641953946813.png" class="asset" transform="matrix(0.040461622178554535,0,0,0.040461622178554535,387.8445434570313,85.46498870849611)"></image><text fill="#ffffff" font-family="Dutch801 XBd BT" font-size="45" x="186.94721162256008" y="200.3401558101038" transform="matrix(0.3370653688907624,0,0,0.33706536889076233,317.66757202148443,51.48932647705077)" svgjs:data="{&quot;leading&quot;:&quot;1.3&quot;}"><tspan dy="0" x="186.94721162256008" svgjs:data="{&quot;newLined&quot;:true}">Player</tspan></text><image width="760" height="530" xlink:href="https://lct-designs.s3.us-west-1.amazonaws.com/assets/libs/mets-4-baseball-banner-1641953946813.png" class="asset" transform="matrix(0.040461622178554535,0,0,0.040461622178554535,450.25912475585943,84.8760528564453)"></image><text fill="#ffffff" font-family="Dutch801 XBd BT" font-size="45" x="186.94721162256008" y="200.3401558101038" transform="matrix(0.3370653688907624,0,0,0.33706536889076233,380.0821838378906,50.900390624999986)" svgjs:data="{&quot;leading&quot;:&quot;1.3&quot;}"><tspan dy="0" x="186.94721162256008" svgjs:data="{&quot;newLined&quot;:true}">Player</tspan></text><image width="760" height="530" xlink:href="https://lct-designs.s3.us-west-1.amazonaws.com/assets/libs/mets-4-baseball-banner-1641953946813.png" class="asset" transform="matrix(0.040461622178554535,0,0,0.040461622178554535,361.33099365234375,137.88066864013672)"></image><text fill="#ffffff" font-family="Dutch801 XBd BT" font-size="45" x="186.94721162256008" y="200.3401558101038" transform="matrix(0.3370653688907624,0,0,0.33706536889076233,291.1540222167969,103.90500640869139)" svgjs:data="{&quot;leading&quot;:&quot;1.3&quot;}"><tspan dy="0" x="186.94721162256008" svgjs:data="{&quot;newLined&quot;:true}">Player</tspan></text><image width="760" height="530" xlink:href="https://lct-designs.s3.us-west-1.amazonaws.com/assets/libs/mets-4-baseball-banner-1641953946813.png" class="asset" transform="matrix(0.040461622178554535,0,0,0.040461622178554535,423.74557495117193,137.29173278808594)"></image><text fill="#ffffff" font-family="Dutch801 XBd BT" font-size="45" x="186.94721162256008" y="200.3401558101038" transform="matrix(0.3370653688907624,0,0,0.33706536889076233,353.5686340332032,103.31607055664061)" svgjs:data="{&quot;leading&quot;:&quot;1.3&quot;}"><tspan dy="0" x="186.94721162256008" svgjs:data="{&quot;newLined&quot;:true}">Player</tspan></text><image width="760" height="530" xlink:href="https://lct-designs.s3.us-west-1.amazonaws.com/assets/libs/mets-4-baseball-banner-1641953946813.png" class="asset" transform="matrix(0.040461622178554535,0,0,0.040461622178554535,361.9081420898438,189.1184692382812)"></image><text fill="#ffffff" font-family="Dutch801 XBd BT" font-size="45" x="186.94721162256008" y="200.3401558101038" transform="matrix(0.3370653688907624,0,0,0.33706536889076233,291.73117065429693,155.1427993774414)" svgjs:data="{&quot;leading&quot;:&quot;1.3&quot;}"><tspan dy="0" x="186.94721162256008" svgjs:data="{&quot;newLined&quot;:true}">Player</tspan></text><image width="760" height="530" xlink:href="https://lct-designs.s3.us-west-1.amazonaws.com/assets/libs/mets-4-baseball-banner-1641953946813.png" class="asset" transform="matrix(0.040461622178554535,0,0,0.040461622178554535,424.32272338867193,188.52952575683594)"></image><text fill="#ffffff" font-family="Dutch801 XBd BT" font-size="45" x="186.94721162256008" y="200.3401558101038" transform="matrix(0.3370653688907624,0,0,0.33706536889076233,354.1457824707031,154.55386352539062)" svgjs:data="{&quot;leading&quot;:&quot;1.3&quot;}"><tspan dy="0" x="186.94721162256008" svgjs:data="{&quot;newLined&quot;:true}">Player</tspan></text><image width="760" height="530" xlink:href="https://lct-designs.s3.us-west-1.amazonaws.com/assets/libs/mets-4-baseball-banner-1641953946813.png" class="asset" transform="matrix(0.040461622178554535,0,0,0.040461622178554535,362.4852905273438,235.64474487304688)"></image><text fill="#ffffff" font-family="Dutch801 XBd BT" font-size="45" x="186.94721162256008" y="200.3401558101038" transform="matrix(0.3370653688907624,0,0,0.33706536889076233,292.30831909179693,201.6690673828125)" svgjs:data="{&quot;leading&quot;:&quot;1.3&quot;}"><tspan dy="0" x="186.94721162256008" svgjs:data="{&quot;newLined&quot;:true}">Player</tspan></text><image width="760" height="530" xlink:href="https://lct-designs.s3.us-west-1.amazonaws.com/assets/libs/mets-4-baseball-banner-1641953946813.png" class="asset" transform="matrix(0.040461622178554535,0,0,0.040461622178554535,424.8998718261719,235.05580139160156)"></image><text fill="#ffffff" font-family="Dutch801 XBd BT" font-size="45" x="186.94721162256008" y="200.3401558101038" transform="matrix(0.3370653688907624,0,0,0.33706536889076233,354.7229309082031,201.08013916015625)" svgjs:data="{&quot;leading&quot;:&quot;1.3&quot;}"><tspan dy="0" x="186.94721162256008" svgjs:data="{&quot;newLined&quot;:true}">Player</tspan></text><text fill="#2150c0" font-family="Dutch801 XBd BT" font-size="45" x="186.94721162256008" y="200.3401558101038" transform="matrix(0.3370653688907624,0,0,0.33706536889076233,117.38487243652344,222.28196716308594)" svgjs:data="{&quot;leading&quot;:&quot;1.3&quot;}"><tspan dy="0" x="186.94721162256008" svgjs:data="{&quot;newLined&quot;:true}">Coach: Coach name</tspan></text><g class="mask" style="pointer-events: none;"><g><path fill="#BCBEC0" d="M-3642.4-2101.7v4589.1h7813.4v-4589.1H-3642.4z M500.5,67.2v233.3v66.7H0.5v-66.7V67.2V0.5h500V67.2z" transform="matrix(1,0,0,1,0,0)"></path><g transform="matrix(1,0,0,1,0,0)">
	<rect x="0.5" y="300.5" opacity="0.95" fill="#F1F2F2" width="500" height="66.7"></rect>
	<rect x="0.5" y="0.5" opacity="0.95" fill="#F1F2F2" width="500" height="66.7"></rect>
</g></g></g></svg>