<svg xmlns="http://www.w3.org/2000/svg" version="1.1" xmlns:xlink="http://www.w3.org/1999/xlink" xmlns:svgjs="http://svgjs.dev/svgjs" width="100%" height="100%" viewBox="1 1 499 365.70001220703125" preserveAspectRatio="none" data-info="{&quot;_id&quot;:4,&quot;name&quot;:&quot;POLE POCKET SOCCER BANNERS&quot;,&quot;information&quot;:&quot;- Size: 3’x5’\n- Material: heavy duty vinyl banner\n- Digitally printed on vinyl&quot;,&quot;price&quot;:&quot;95.00&quot;,&quot;sale_price&quot;:&quot;89.99&quot;,&quot;type&quot;:&quot;pole-pocket&quot;,&quot;cover&quot;:{&quot;key&quot;:&quot;assets/models/pole-1628062864266-1631924568908.png&quot;,&quot;url&quot;:&quot;https://lct-designs.s3.us-west-1.amazonaws.com/assets/models/pole-1628062864266-1631924568908.png&quot;},&quot;back&quot;:{&quot;key&quot;:&quot;assets/models/pole-1631924700152.svg&quot;,&quot;url&quot;:&quot;https://lct-designs.s3.us-west-1.amazonaws.com/assets/models/pole-1631924700152.svg&quot;},&quot;mask&quot;:{&quot;key&quot;:&quot;assets/models/pole-mask-1631925211715.svg&quot;,&quot;url&quot;:&quot;https://lct-designs.s3.us-west-1.amazonaws.com/assets/models/pole-mask-1631925211715.svg&quot;},&quot;pos&quot;:&quot;2&quot;,&quot;accessories&quot;:&quot;2,3&quot;}" style="background-color: white;"><g class="model" style="pointer-events: none;"><polygon fill="#FFFFFF" points="0.5,0.5 0.5,67.2 0.5,300.5 0.5,367.2 500.5,367.2 500.5,300.5 500.5,67.2 500.5,0.5 "></polygon></g><image width="760" height="556" xlink:href="https://lct-designs.s3.us-west-1.amazonaws.com/assets/libs/atlanta-braves-2-baseball-banner-1641537571081.png" class="asset background locked" transform="matrix(0.6595323960558116,0,0,0.6595323960558116,0,0)"></image><image width="760" height="612" xlink:href="https://lct-designs.s3.us-west-1.amazonaws.com/assets/libs/atlanta-braves-2-baseball-banner-1640253760859.png" class="asset" transform="matrix(0.2668761312961579,0,0,0.2668761312961579,163.92144775390628,97.5450668334961)"></image><image width="760" height="383" xlink:href="https://lct-designs.s3.us-west-1.amazonaws.com/assets/libs/atlanta-braves-2-baseball-banner-1640253782336.png" class="asset" transform="matrix(0.08061972260475159,0,0,0.0806197226047516,361.667938232422,81.8553695678711)"></image><text fill="#ffd500" font-family="Antilles Condensed" font-size="30" x="219.87752629507952" y="194.20040329946852" stroke-opacity="1" stroke-width="1" stroke="#000000" transform="matrix(0.7451825141906739,0,0,0.7451825141906739,206.25736999511722,-11.999935150146484)" svgjs:data="{&quot;leading&quot;:&quot;1.3&quot;}"><tspan dy="0" x="219.87752629507952" svgjs:data="{&quot;newLined&quot;:true}">Player</tspan></text><image width="760" height="383" xlink:href="https://lct-designs.s3.us-west-1.amazonaws.com/assets/libs/atlanta-braves-2-baseball-banner-1640253782336.png" class="asset" transform="matrix(0.0806197375059128,0,0,0.0806197375059128,427.8558349609376,113.20230865478516)"></image><text fill="#ffd500" font-family="Antilles Condensed" font-size="30" x="219.87752629507952" y="194.20040329946852" stroke-opacity="1" stroke-width="1" stroke="#000000" transform="matrix(0.7451825141906739,0,0,0.7451825141906739,272.4452667236329,19.347003936767578)" svgjs:data="{&quot;leading&quot;:&quot;1.3&quot;}"><tspan dy="0" x="219.87752629507952" svgjs:data="{&quot;newLined&quot;:true}">Player</tspan></text><image width="760" height="383" xlink:href="https://lct-designs.s3.us-west-1.amazonaws.com/assets/libs/atlanta-braves-2-baseball-banner-1640253782336.png" class="asset" transform="matrix(0.08061975240707399,0,0,0.08061975240707399,378.11920166015636,168.79875946044925)"></image><text fill="#ffd500" font-family="Antilles Condensed" font-size="30" x="219.87752629507952" y="194.20040329946852" stroke-opacity="1" stroke-width="1" stroke="#000000" transform="matrix(0.7451825141906739,0,0,0.7451825141906739,222.70861816406256,74.94345474243164)" svgjs:data="{&quot;leading&quot;:&quot;1.3&quot;}"><tspan dy="0" x="219.87752629507952" svgjs:data="{&quot;newLined&quot;:true}">Player</tspan></text><image width="760" height="383" xlink:href="https://lct-designs.s3.us-west-1.amazonaws.com/assets/libs/atlanta-braves-2-baseball-banner-1640253782336.png" class="asset" transform="matrix(0.08061976730823518,0,0,0.08061976730823518,430.7037048339845,220.8465118408203)"></image><text fill="#ffd500" font-family="Antilles Condensed" font-size="30" x="219.87752629507952" y="194.20040329946852" stroke-opacity="1" stroke-width="1" stroke="#000000" transform="matrix(0.7451825141906739,0,0,0.7451825141906739,275.2931213378907,126.99120330810547)" svgjs:data="{&quot;leading&quot;:&quot;1.3&quot;}"><tspan dy="0" x="219.87752629507952" svgjs:data="{&quot;newLined&quot;:true}">Player</tspan></text><image width="760" height="383" xlink:href="https://lct-designs.s3.us-west-1.amazonaws.com/assets/libs/atlanta-braves-2-baseball-banner-1640253782336.png" class="asset" transform="matrix(0.08061978220939638,0,0,0.08061978220939638,356.1261291503907,235.04135131835943)"></image><text fill="#ffd500" font-family="Antilles Condensed" font-size="30" x="219.87752629507952" y="194.20040329946852" stroke-opacity="1" stroke-width="1" stroke="#000000" transform="matrix(0.7451825141906739,0,0,0.7451825141906739,200.7155456542969,141.18604278564456)" svgjs:data="{&quot;leading&quot;:&quot;1.3&quot;}"><tspan dy="0" x="219.87752629507952" svgjs:data="{&quot;newLined&quot;:true}">Player</tspan></text><image width="760" height="383" xlink:href="https://lct-designs.s3.us-west-1.amazonaws.com/assets/libs/atlanta-braves-2-baseball-banner-1640253782336.png" class="asset" transform="matrix(0.08061981201171876,0,0,0.08061981201171875,119.49079895019534,234.44989001750946)"></image><text fill="#ffd500" font-family="Antilles Condensed" font-size="30" x="219.87752629507952" y="194.20040329946852" stroke-opacity="1" stroke-width="1" stroke="#000000" transform="matrix(0.7451825141906739,0,0,0.7451825141906739,-35.919784545898445,140.5945739746094)" svgjs:data="{&quot;leading&quot;:&quot;1.3&quot;}"><tspan dy="0" x="219.87752629507952" svgjs:data="{&quot;newLined&quot;:true}">Player</tspan></text><image width="567" height="760" xlink:href="https://lct-designs.s3.us-west-1.amazonaws.com/assets/libs/atlanta-braves-2-baseball-banner-1640253743218.png" class="asset" transform="matrix(0.18449763953685763,0,0,0.18449763953685763,9.771645545959473,154.0507965087891)"></image><image width="760" height="383" xlink:href="https://lct-designs.s3.us-west-1.amazonaws.com/assets/libs/atlanta-braves-2-baseball-banner-1640253782336.png" class="asset" transform="matrix(0.08061981201171876,0,0,0.08061981201171875,95.18660736083987,147.50650024414062)"></image><text fill="#ffd500" font-family="Antilles Condensed" font-size="30" x="219.87752629507952" y="194.20040329946852" stroke-opacity="1" stroke-width="1" stroke="#000000" transform="matrix(0.7451825141906739,0,0,0.7451825141906739,-60.223976135253906,53.65118408203125)" svgjs:data="{&quot;leading&quot;:&quot;1.3&quot;}"><tspan dy="0" x="219.87752629507952" svgjs:data="{&quot;newLined&quot;:true}">Player</tspan></text><image width="760" height="383" xlink:href="https://lct-designs.s3.us-west-1.amazonaws.com/assets/libs/atlanta-braves-2-baseball-banner-1640253782336.png" class="asset" transform="matrix(0.08061981201171876,0,0,0.08061981201171875,14.103057861328125,83.03828430175781)"></image><text fill="#ffd500" font-family="Antilles Condensed" font-size="30" x="219.87752629507952" y="194.20040329946852" stroke-opacity="1" stroke-width="1" stroke="#000000" transform="matrix(0.7451825141906739,0,0,0.7451825141906739,-141.30752563476565,-10.817031860351562)" svgjs:data="{&quot;leading&quot;:&quot;1.3&quot;}"><tspan dy="0" x="219.87752629507952" svgjs:data="{&quot;newLined&quot;:true}">Player</tspan></text><image width="760" height="383" xlink:href="https://lct-designs.s3.us-west-1.amazonaws.com/assets/libs/atlanta-braves-2-baseball-banner-1640253782336.png" class="asset" transform="matrix(0.08061981201171876,0,0,0.08061981201171875,94.54047393798831,83.03826904296875)"></image><text fill="#ffd500" font-family="Antilles Condensed" font-size="30" x="219.87752629507952" y="194.20040329946852" stroke-opacity="1" stroke-width="1" stroke="#000000" transform="matrix(0.7451825141906739,0,0,0.7451825141906739,-60.87010955810548,-10.817047119140625)" svgjs:data="{&quot;leading&quot;:&quot;1.3&quot;}"><tspan dy="0" x="219.87752629507952" svgjs:data="{&quot;newLined&quot;:true}">Player</tspan></text><text fill="#ffd500" font-family="Antilles Condensed" font-size="30" x="219.87752629507952" y="194.20040329946852" stroke-opacity="1" stroke-width="1" stroke="#000000" transform="matrix(0.7451825141906739,0,0,0.7451825141906739,39.13986968994141,139.41166687011722)" svgjs:data="{&quot;leading&quot;:&quot;1.3&quot;}"><tspan dy="0" x="219.87752629507952" svgjs:data="{&quot;newLined&quot;:true}">Coach: Coach name</tspan></text><g class="mask" style="pointer-events: none;"><g><path fill="#BCBEC0" d="M-3642.4-2101.7v4589.1h7813.4v-4589.1H-3642.4z M500.5,67.2v233.3v66.7H0.5v-66.7V67.2V0.5h500V67.2z" transform="matrix(1,0,0,1,0,0)"></path><g transform="matrix(1,0,0,1,0,0)">
	<rect x="0.5" y="300.5" opacity="0.95" fill="#F1F2F2" width="500" height="66.7"></rect>
	<rect x="0.5" y="0.5" opacity="0.95" fill="#F1F2F2" width="500" height="66.7"></rect>
</g></g></g></svg>