<svg xmlns="http://www.w3.org/2000/svg" version="1.1" xmlns:xlink="http://www.w3.org/1999/xlink" xmlns:svgjs="http://svgjs.dev/svgjs" width="100%" height="100%" viewBox="1 1 499 365.70001220703125" preserveAspectRatio="none" data-info="{&quot;_id&quot;:4,&quot;name&quot;:&quot;POLE POCKET SOCCER BANNERS&quot;,&quot;information&quot;:&quot;- Size: 3’x5’\n- Material: heavy duty vinyl banner\n- Digitally printed on vinyl&quot;,&quot;price&quot;:&quot;95.00&quot;,&quot;sale_price&quot;:&quot;89.99&quot;,&quot;type&quot;:&quot;pole-pocket&quot;,&quot;cover&quot;:{&quot;key&quot;:&quot;assets/models/pole-1628062864266-1631924568908.png&quot;,&quot;url&quot;:&quot;https://lct-designs.s3.us-west-1.amazonaws.com/assets/models/pole-1628062864266-1631924568908.png&quot;},&quot;back&quot;:{&quot;key&quot;:&quot;assets/models/pole-1631924700152.svg&quot;,&quot;url&quot;:&quot;https://lct-designs.s3.us-west-1.amazonaws.com/assets/models/pole-1631924700152.svg&quot;},&quot;mask&quot;:{&quot;key&quot;:&quot;assets/models/pole-mask-1631925211715.svg&quot;,&quot;url&quot;:&quot;https://lct-designs.s3.us-west-1.amazonaws.com/assets/models/pole-mask-1631925211715.svg&quot;},&quot;pos&quot;:&quot;2&quot;,&quot;accessories&quot;:&quot;2,3&quot;}" style="background-color: white;"><g class="model" style="pointer-events: none;"><polygon fill="#FFFFFF" points="0.5,0.5 0.5,67.2 0.5,300.5 0.5,367.2 500.5,367.2 500.5,300.5 500.5,67.2 500.5,0.5 "></polygon></g><image width="760" height="556" xlink:href="https://lct-designs.s3.us-west-1.amazonaws.com/assets/libs/bandits1-baseball-banner-1640339517356.png" class="asset background locked" transform="matrix(0.6595323960558116,0,0,0.6595323960558116,0,0)"></image><image width="760" height="377" xlink:href="https://lct-designs.s3.us-west-1.amazonaws.com/assets/libs/bandits1-baseball-banner-1640339725764.png" class="asset" transform="matrix(0.3731733858585358,0,0,0.3731733858585358,71.98219299316406,102.3594665527344)"></image><text fill="#ffffff" font-family="Geometos Rounded" font-size="30" x="165.71112729300432" y="192.72177418722487" transform="matrix(0.4631132483482362,0,0,0.46311324834823614,190.4791412353516,52.644901275634766)" svgjs:data="{&quot;leading&quot;:&quot;1.3&quot;}"><tspan dy="0" x="165.71112729300432" svgjs:data="{&quot;newLined&quot;:true}">PLAYER</tspan></text><image width="760" height="626" xlink:href="https://lct-designs.s3.us-west-1.amazonaws.com/assets/libs/bandits1-baseball-banner-1640339769754.png" class="asset" transform="matrix(0.046547401696443565,0,0,0.046547401696443565,276.1332397460938,97.80690002441409)"></image><image width="760" height="626" xlink:href="https://lct-designs.s3.us-west-1.amazonaws.com/assets/libs/bandits1-baseball-banner-1640339769754.png" class="asset" transform="matrix(0.04654739424586297,0,0,0.04654739424586297,194.03083801269534,237.98095703125006)"></image><text fill="#ffffff" font-family="Geometos Rounded" font-size="30" x="165.71112729300432" y="192.72177418722487" transform="matrix(0.4631132483482362,0,0,0.46311324834823614,108.37672424316409,193.41041564941412)" svgjs:data="{&quot;leading&quot;:&quot;1.3&quot;}"><tspan dy="0" x="165.71112729300432" svgjs:data="{&quot;newLined&quot;:true}">PLAYER</tspan></text><image width="760" height="626" xlink:href="https://lct-designs.s3.us-west-1.amazonaws.com/assets/libs/bandits1-baseball-banner-1640339769754.png" class="asset" transform="matrix(0.046547386795282364,0,0,0.04654738679528237,99.93534088134768,239.7553100585938)"></image><text fill="#ffffff" font-family="Geometos Rounded" font-size="30" x="165.71112729300432" y="192.72177418722487" transform="matrix(0.4631132483482362,0,0,0.46311324834823614,14.281227111816406,195.18476867675787)" svgjs:data="{&quot;leading&quot;:&quot;1.3&quot;}"><tspan dy="0" x="165.71112729300432" svgjs:data="{&quot;newLined&quot;:true}">PLAYER</tspan></text><image width="760" height="626" xlink:href="https://lct-designs.s3.us-west-1.amazonaws.com/assets/libs/bandits1-baseball-banner-1640339769754.png" class="asset" transform="matrix(0.04654739424586297,0,0,0.04654739424586297,24.76631164550782,239.7553100585938)"></image><text fill="#ffffff" font-family="Geometos Rounded" font-size="30" x="165.71112729300432" y="192.72177418722487" transform="matrix(0.4631132483482362,0,0,0.46311324834823614,-60.887802124023445,195.18476867675787)" svgjs:data="{&quot;leading&quot;:&quot;1.3&quot;}"><tspan dy="0" x="165.71112729300432" svgjs:data="{&quot;newLined&quot;:true}">PLAYER</tspan></text><text fill="#ffffff" font-family="Geometos Rounded" font-size="30" x="165.71112729300432" y="192.72177418722487" transform="matrix(0.4631132483482362,0,0,0.46311324834823614,83.6451110839844,0.005753993988037109)" svgjs:data="{&quot;leading&quot;:&quot;1.3&quot;}"><tspan dy="0" x="165.71112729300432" svgjs:data="{&quot;newLined&quot;:true}">COACH: COACH NAME</tspan></text><text fill="#ffffff" font-family="Geometos Rounded" font-size="30" x="165.71112729300432" y="192.72177418722487" transform="matrix(0.4631132483482362,0,0,0.46311324834823614,195.96623229980472,192.81896972656256)" svgjs:data="{&quot;leading&quot;:&quot;1.3&quot;}"><tspan dy="0" x="165.71112729300432" svgjs:data="{&quot;newLined&quot;:true}">PLAYER</tspan></text><image width="760" height="626" xlink:href="https://lct-designs.s3.us-west-1.amazonaws.com/assets/libs/bandits1-baseball-banner-1640339769754.png" class="asset" transform="matrix(0.04654737189412118,0,0,0.04654737189412118,281.02890014648443,237.3895111083985)"></image><image width="760" height="626" xlink:href="https://lct-designs.s3.us-west-1.amazonaws.com/assets/libs/bandits1-baseball-banner-1640339769754.png" class="asset" transform="matrix(0.04654739424586297,0,0,0.04654739424586297,23.583396911621094,90.1180419921875)"></image><image width="760" height="626" xlink:href="https://lct-designs.s3.us-west-1.amazonaws.com/assets/libs/bandits1-baseball-banner-1640339769754.png" class="asset" transform="matrix(0.046547401696443565,0,0,0.046547401696443565,24.229530334472663,167.59820556640628)"></image><text fill="#ffffff" font-family="Geometos Rounded" font-size="30" x="165.71112729300432" y="192.72177418722487" transform="matrix(0.4631132483482362,0,0,0.46311324834823614,-61.4245834350586,123.02766418457031)" svgjs:data="{&quot;leading&quot;:&quot;1.3&quot;}"><tspan dy="0" x="165.71112729300432" svgjs:data="{&quot;newLined&quot;:true}">PLAYER</tspan></text><text fill="#ffffff" font-family="Geometos Rounded" font-size="30" x="165.71112729300432" y="192.72177418722487" transform="matrix(0.4631132483482362,0,0,0.46311324834823614,-62.070716857910156,45.54750061035158)" svgjs:data="{&quot;leading&quot;:&quot;1.3&quot;}"><tspan dy="0" x="165.71112729300432" svgjs:data="{&quot;newLined&quot;:true}">PLAYER</tspan></text><image width="760" height="626" xlink:href="https://lct-designs.s3.us-west-1.amazonaws.com/assets/libs/bandits1-baseball-banner-1640339769754.png" class="asset" transform="matrix(0.046547401696443565,0,0,0.046547401696443565,353.5587158203125,96.62400054931643)"></image><text fill="#ffffff" font-family="Geometos Rounded" font-size="30" x="165.71112729300432" y="192.72177418722487" transform="matrix(0.4631132483482362,0,0,0.46311324834823614,267.9046020507813,51.46200180053711)" svgjs:data="{&quot;leading&quot;:&quot;1.3&quot;}"><tspan dy="0" x="165.71112729300432" svgjs:data="{&quot;newLined&quot;:true}">PLAYER</tspan></text><image width="760" height="740" xlink:href="https://lct-designs.s3.us-west-1.amazonaws.com/assets/libs/chicago-white-sox-baseball-banner-1640655709328.png" class="asset" transform="matrix(-0.17652837932109836,0,0,0.18432934582233432,489.7610778808594,153.00080871582034)"></image><g class="mask" style="pointer-events: none;"><g><path fill="#BCBEC0" d="M-3642.4-2101.7v4589.1h7813.4v-4589.1H-3642.4z M500.5,67.2v233.3v66.7H0.5v-66.7V67.2V0.5h500V67.2z" transform="matrix(1,0,0,1,0,0)"></path><g transform="matrix(1,0,0,1,0,0)">
	<rect x="0.5" y="300.5" opacity="0.95" fill="#F1F2F2" width="500" height="66.7"></rect>
	<rect x="0.5" y="0.5" opacity="0.95" fill="#F1F2F2" width="500" height="66.7"></rect>
</g></g></g></svg>