<svg xmlns="http://www.w3.org/2000/svg" version="1.1" xmlns:xlink="http://www.w3.org/1999/xlink" xmlns:svgjs="http://svgjs.dev/svgjs" width="100%" height="100%" viewBox="1 1 499 365.70001220703125" preserveAspectRatio="none" data-info="{&quot;_id&quot;:4,&quot;name&quot;:&quot;POLE POCKET SOCCER BANNERS&quot;,&quot;information&quot;:&quot;- Size: 3’x5’\n- Material: heavy duty vinyl banner\n- Digitally printed on vinyl&quot;,&quot;price&quot;:&quot;95.00&quot;,&quot;sale_price&quot;:&quot;89.99&quot;,&quot;type&quot;:&quot;pole-pocket&quot;,&quot;cover&quot;:{&quot;key&quot;:&quot;assets/models/pole-1628062864266-1631924568908.png&quot;,&quot;url&quot;:&quot;https://lct-designs.s3.us-west-1.amazonaws.com/assets/models/pole-1628062864266-1631924568908.png&quot;},&quot;back&quot;:{&quot;key&quot;:&quot;assets/models/pole-1631924700152.svg&quot;,&quot;url&quot;:&quot;https://lct-designs.s3.us-west-1.amazonaws.com/assets/models/pole-1631924700152.svg&quot;},&quot;mask&quot;:{&quot;key&quot;:&quot;assets/models/pole-mask-1631925211715.svg&quot;,&quot;url&quot;:&quot;https://lct-designs.s3.us-west-1.amazonaws.com/assets/models/pole-mask-1631925211715.svg&quot;},&quot;pos&quot;:&quot;2&quot;,&quot;accessories&quot;:&quot;2,3&quot;}" style="background-color: white;"><g class="model" style="pointer-events: none;"><polygon fill="#FFFFFF" points="0.5,0.5 0.5,67.2 0.5,300.5 0.5,367.2 500.5,367.2 500.5,300.5 500.5,67.2 500.5,0.5 "></polygon></g><image width="760" height="556" xlink:href="https://lct-designs.s3.us-west-1.amazonaws.com/assets/libs/cleveland-indians-2-baseball-banner-1640655602985.png" class="asset background locked" transform="matrix(0.6595323960558116,0,0,0.6595323960558116,0,0)"></image><image width="582" height="760" xlink:href="https://lct-designs.s3.us-west-1.amazonaws.com/assets/libs/cleveland-3-baseball-banner-1640655729574.png" class="asset" transform="matrix(0.2679632604122162,0,0,0.2679632604122162,179.9084014892578,70.92236328125001)"></image><image width="673" height="760" xlink:href="https://lct-designs.s3.us-west-1.amazonaws.com/assets/libs/cleveland-indians-2-baseball-banner-1640655709330.png" class="asset" transform="matrix(0.20442059636116028,0,0,0.20442059636116028,351.0468139648438,142.18409729003906)"></image><image width="760" height="745" xlink:href="https://lct-designs.s3.us-west-1.amazonaws.com/assets/libs/cleveland-indians-2-baseball-banner-1640655751447.png" class="asset" transform="matrix(0.048573169857263565,0,0,0.048573169857263565,340.16488647460943,111.3682098388672)"></image><text fill="#ffffff" font-family="DEATHE MAACH NCV" font-size="45" stroke-opacity="1" stroke-width="2" stroke="#002042" x="86.2471688979507" y="200.63461992143192" transform="matrix(0.4362001121044159,0,0,0.43620011210441595,343.7274475097656,51.536838531494126)" svgjs:data="{&quot;leading&quot;:&quot;1.3&quot;}"><tspan dy="0" x="86.2471688979507" svgjs:data="{&quot;newLined&quot;:true}">PLAYER</tspan></text><text fill="#ffffff" font-family="DEATHE MAACH NCV" font-size="45" stroke-opacity="1" stroke-width="2" stroke="#002042" x="86.2471688979507" y="200.63461992143192" transform="matrix(0.3794251680374146,0,0,0.37942516803741455,156.58526611328125,214.80453491210938)" svgjs:data="{&quot;leading&quot;:&quot;1.3&quot;}"><tspan dy="0" x="86.2471688979507" svgjs:data="{&quot;newLined&quot;:true}">COACH: COACH NAME</tspan></text><image width="760" height="745" xlink:href="https://lct-designs.s3.us-west-1.amazonaws.com/assets/libs/cleveland-indians-2-baseball-banner-1640655751447.png" class="asset" transform="matrix(0.048573169857263565,0,0,0.048573169857263565,390.21200561523443,77.79861450195311)"></image><text fill="#ffffff" font-family="DEATHE MAACH NCV" font-size="45" stroke-opacity="1" stroke-width="2" stroke="#002042" x="86.2471688979507" y="200.63461992143192" transform="matrix(0.4362001121044159,0,0,0.43620011210441595,393.7745666503906,17.967243194580078)" svgjs:data="{&quot;leading&quot;:&quot;1.3&quot;}"><tspan dy="0" x="86.2471688979507" svgjs:data="{&quot;newLined&quot;:true}">PLAYER</tspan></text><image width="760" height="745" xlink:href="https://lct-designs.s3.us-west-1.amazonaws.com/assets/libs/cleveland-indians-2-baseball-banner-1640655751447.png" class="asset" transform="matrix(0.048573169857263565,0,0,0.048573169857263565,12.697265625000004,79.56542968749999)"></image><text fill="#ffffff" font-family="DEATHE MAACH NCV" font-size="45" stroke-opacity="1" stroke-width="2" stroke="#002042" x="86.2471688979507" y="200.63461992143192" transform="matrix(0.4362001121044159,0,0,0.43620011210441595,16.259826660156246,19.734058380126953)" svgjs:data="{&quot;leading&quot;:&quot;1.3&quot;}"><tspan dy="0" x="86.2471688979507" svgjs:data="{&quot;newLined&quot;:true}">PLAYER</tspan></text><image width="760" height="745" xlink:href="https://lct-designs.s3.us-west-1.amazonaws.com/assets/libs/cleveland-indians-2-baseball-banner-1640655751447.png" class="asset" transform="matrix(0.048573169857263565,0,0,0.048573169857263565,149.31682586669922,78.97649389505385)"></image><text fill="#ffffff" font-family="DEATHE MAACH NCV" font-size="45" stroke-opacity="1" stroke-width="2" stroke="#002042" x="86.2471688979507" y="200.63461992143192" transform="matrix(0.4362001121044159,0,0,0.43620011210441595,152.87938690185547,19.145122587680802)" svgjs:data="{&quot;leading&quot;:&quot;1.3&quot;}"><tspan dy="0" x="86.2471688979507" svgjs:data="{&quot;newLined&quot;:true}">PLAYER</tspan></text><image width="760" height="745" xlink:href="https://lct-designs.s3.us-west-1.amazonaws.com/assets/libs/cleveland-indians-2-baseball-banner-1640655751447.png" class="asset" transform="matrix(0.048573169857263565,0,0,0.048573169857263565,76.2779541015625,121.38019561767577)"></image><text fill="#ffffff" font-family="DEATHE MAACH NCV" font-size="45" stroke-opacity="1" stroke-width="2" stroke="#002042" x="86.2471688979507" y="200.63461992143192" transform="matrix(0.4362001121044159,0,0,0.43620011210441595,79.84051513671876,61.548828124999986)" svgjs:data="{&quot;leading&quot;:&quot;1.3&quot;}"><tspan dy="0" x="86.2471688979507" svgjs:data="{&quot;newLined&quot;:true}">PLAYER</tspan></text><image width="760" height="745" xlink:href="https://lct-designs.s3.us-west-1.amazonaws.com/assets/libs/cleveland-indians-2-baseball-banner-1640655751447.png" class="asset" transform="matrix(0.048573169857263565,0,0,0.048573169857263565,11.484069824218746,161.42811584472656)"></image><text fill="#ffffff" font-family="DEATHE MAACH NCV" font-size="45" stroke-opacity="1" stroke-width="2" stroke="#002042" x="86.2471688979507" y="200.63461992143192" transform="matrix(0.4362001121044159,0,0,0.43620011210441595,15.046630859375004,101.59674072265626)" svgjs:data="{&quot;leading&quot;:&quot;1.3&quot;}"><tspan dy="0" x="86.2471688979507" svgjs:data="{&quot;newLined&quot;:true}">PLAYER</tspan></text><image width="760" height="745" xlink:href="https://lct-designs.s3.us-west-1.amazonaws.com/assets/libs/cleveland-indians-2-baseball-banner-1640655751447.png" class="asset" transform="matrix(0.048573169857263565,0,0,0.048573169857263565,75.07653045654297,203.24285888671875)"></image><text fill="#ffffff" font-family="DEATHE MAACH NCV" font-size="45" stroke-opacity="1" stroke-width="2" stroke="#002042" x="86.2471688979507" y="200.63461992143192" transform="matrix(0.4362001121044159,0,0,0.43620011210441595,78.63909149169922,143.41148376464844)" svgjs:data="{&quot;leading&quot;:&quot;1.3&quot;}"><tspan dy="0" x="86.2471688979507" svgjs:data="{&quot;newLined&quot;:true}">PLAYER</tspan></text><image width="760" height="745" xlink:href="https://lct-designs.s3.us-west-1.amazonaws.com/assets/libs/cleveland-indians-2-baseball-banner-1640655751447.png" class="asset" transform="matrix(0.048573169857263565,0,0,0.048573169857263565,11.460510253906254,248.00230407714844)"></image><text fill="#ffffff" font-family="DEATHE MAACH NCV" font-size="45" stroke-opacity="1" stroke-width="2" stroke="#002042" x="86.2471688979507" y="200.63461992143192" transform="matrix(0.4362001121044159,0,0,0.43620011210441595,15.023071289062496,188.17092895507807)" svgjs:data="{&quot;leading&quot;:&quot;1.3&quot;}"><tspan dy="0" x="86.2471688979507" svgjs:data="{&quot;newLined&quot;:true}">PLAYER</tspan></text><g class="mask" style="pointer-events: none;"><g><path fill="#BCBEC0" d="M-3642.4-2101.7v4589.1h7813.4v-4589.1H-3642.4z M500.5,67.2v233.3v66.7H0.5v-66.7V67.2V0.5h500V67.2z" transform="matrix(1,0,0,1,0,0)"></path><g transform="matrix(1,0,0,1,0,0)">
	<rect x="0.5" y="300.5" opacity="0.95" fill="#F1F2F2" width="500" height="66.7"></rect>
	<rect x="0.5" y="0.5" opacity="0.95" fill="#F1F2F2" width="500" height="66.7"></rect>
</g></g></g></svg>