<svg xmlns="http://www.w3.org/2000/svg" version="1.1" xmlns:xlink="http://www.w3.org/1999/xlink" xmlns:svgjs="http://svgjs.dev/svgjs" width="100%" height="100%" viewBox="1 1 499 365.70001220703125" preserveAspectRatio="none" data-info="{&quot;_id&quot;:4,&quot;name&quot;:&quot;POLE POCKET SOCCER BANNERS&quot;,&quot;information&quot;:&quot;- Size: 3’x5’\n- Material: heavy duty vinyl banner\n- Digitally printed on vinyl&quot;,&quot;price&quot;:&quot;95.00&quot;,&quot;sale_price&quot;:&quot;89.99&quot;,&quot;type&quot;:&quot;pole-pocket&quot;,&quot;cover&quot;:{&quot;key&quot;:&quot;assets/models/pole-1628062864266-1631924568908.png&quot;,&quot;url&quot;:&quot;https://lct-designs.s3.us-west-1.amazonaws.com/assets/models/pole-1628062864266-1631924568908.png&quot;},&quot;back&quot;:{&quot;key&quot;:&quot;assets/models/pole-1631924700152.svg&quot;,&quot;url&quot;:&quot;https://lct-designs.s3.us-west-1.amazonaws.com/assets/models/pole-1631924700152.svg&quot;},&quot;mask&quot;:{&quot;key&quot;:&quot;assets/models/pole-mask-1631925211715.svg&quot;,&quot;url&quot;:&quot;https://lct-designs.s3.us-west-1.amazonaws.com/assets/models/pole-mask-1631925211715.svg&quot;},&quot;pos&quot;:&quot;2&quot;,&quot;accessories&quot;:&quot;2,3&quot;}" style="background-color: white;"><g class="model" style="pointer-events: none;"><polygon fill="#FFFFFF" points="0.5,0.5 0.5,67.2 0.5,300.5 0.5,367.2 500.5,367.2 500.5,300.5 500.5,67.2 500.5,0.5 "></polygon></g><image width="760" height="556" xlink:href="https://lct-designs.s3.us-west-1.amazonaws.com/assets/libs/dodgers-baseball-banner-1640685274365.png" class="asset background locked" transform="matrix(0.6595323960558116,0,0,0.6595323960558116,0,0)"></image><image width="709" height="760" xlink:href="https://lct-designs.s3.us-west-1.amazonaws.com/assets/libs/dodgers-2-baseball-banner-7-1640685334498.png" class="asset" transform="matrix(0.2656385600566864,0,0,0.2656385600566864,12.542551994323727,94.47994995117189)"></image><image width="724" height="760" xlink:href="https://lct-designs.s3.us-west-1.amazonaws.com/assets/libs/dodgers-2-baseball-banner-1640685378719.png" class="asset" transform="matrix(0.05790685489773751,0,0,0.0579068548977375,149.36488342285156,246.46809387207026)"></image><text fill="#ffffff" font-family="Impact" font-size="45" stroke-opacity="1" stroke-width="2" stroke="#002a52" x="-61.610384345686384" y="206.2294971644739" transform="matrix(0.407896101474762,0,0,0.40789610147476196,219.61705017089844,181.6572265625)" svgjs:data="{&quot;leading&quot;:&quot;1.3&quot;}"><tspan dy="0" x="-61.610384345686384" svgjs:data="{&quot;newLined&quot;:true}">PLAYER</tspan></text><image width="724" height="760" xlink:href="https://lct-designs.s3.us-west-1.amazonaws.com/assets/libs/dodgers-2-baseball-banner-1640685378719.png" class="asset" transform="matrix(0.05790690332651138,0,0,0.05790690332651139,260.32208251953125,245.8375396728515)"></image><text fill="#ffffff" font-family="Impact" font-size="45" stroke-opacity="1" stroke-width="2" stroke="#002a52" x="-61.610384345686384" y="206.2294971644739" transform="matrix(0.40789613127708435,0,0,0.40789613127708435,330.5742492675782,181.0266876220703)" svgjs:data="{&quot;leading&quot;:&quot;1.3&quot;}"><tspan dy="0" x="-61.610384345686384" svgjs:data="{&quot;newLined&quot;:true}">PLAYER</tspan></text><image width="724" height="760" xlink:href="https://lct-designs.s3.us-west-1.amazonaws.com/assets/libs/dodgers-2-baseball-banner-1640685378719.png" class="asset" transform="matrix(0.05790691822767258,0,0,0.05790691822767258,380.45166015625,245.2485809326172)"></image><text fill="#ffffff" font-family="Impact" font-size="45" stroke-opacity="1" stroke-width="2" stroke="#002a52" x="-61.610384345686384" y="206.2294971644739" transform="matrix(0.40789613127708435,0,0,0.40789613127708435,450.7038269042969,180.43772888183594)" svgjs:data="{&quot;leading&quot;:&quot;1.3&quot;}"><tspan dy="0" x="-61.610384345686384" svgjs:data="{&quot;newLined&quot;:true}">PLAYER</tspan></text><text fill="#ffffff" font-family="Impact" font-size="45" stroke-opacity="1" stroke-width="2" stroke="#003952" x="-61.610384345686384" y="206.2294971644739" transform="matrix(0.3048066198825836,0,0,0.3048066198825837,30.678604125976566,28.01274871826172)" svgjs:data="{&quot;leading&quot;:&quot;1.3&quot;}"><tspan dy="0" x="-61.610384345686384" svgjs:data="{&quot;newLined&quot;:true}">COACH: COACH NAME</tspan></text><image width="724" height="760" xlink:href="https://lct-designs.s3.us-west-1.amazonaws.com/assets/libs/dodgers-2-baseball-banner-1640685378719.png" class="asset" transform="matrix(0.05790689215064049,0,0,0.05790689215064049,215.5517578125,202.2559814453125)"></image><text fill="#ffffff" font-family="Impact" font-size="45" stroke-opacity="1" stroke-width="2" stroke="#002a52" x="-61.610384345686384" y="206.2294971644739" transform="matrix(0.40789613127708435,0,0,0.40789613127708435,285.80392456054693,137.44512939453125)" svgjs:data="{&quot;leading&quot;:&quot;1.3&quot;}"><tspan dy="0" x="-61.610384345686384" svgjs:data="{&quot;newLined&quot;:true}">PLAYER</tspan></text><image width="724" height="760" xlink:href="https://lct-designs.s3.us-west-1.amazonaws.com/assets/libs/dodgers-2-baseball-banner-1640685378719.png" class="asset" transform="matrix(0.05790690332651138,0,0,0.05790690332651139,335.68133544921875,201.66702270507807)"></image><text fill="#ffffff" font-family="Impact" font-size="45" stroke-opacity="1" stroke-width="2" stroke="#002a52" x="-61.610384345686384" y="206.2294971644739" transform="matrix(0.40789613127708435,0,0,0.40789613127708435,405.9335021972656,136.85617065429688)" svgjs:data="{&quot;leading&quot;:&quot;1.3&quot;}"><tspan dy="0" x="-61.610384345686384" svgjs:data="{&quot;newLined&quot;:true}">PLAYER</tspan></text><image width="724" height="760" xlink:href="https://lct-designs.s3.us-west-1.amazonaws.com/assets/libs/dodgers-2-baseball-banner-1640685378719.png" class="asset" transform="matrix(0.05790690332651138,0,0,0.05790690332651139,253.8203125,151.0181884765625)"></image><text fill="#ffffff" font-family="Impact" font-size="45" stroke-opacity="1" stroke-width="2" stroke="#002a52" x="-61.610384345686384" y="206.2294971644739" transform="matrix(0.40789613127708435,0,0,0.40789613127708435,324.07247924804693,86.20733642578126)" svgjs:data="{&quot;leading&quot;:&quot;1.3&quot;}"><tspan dy="0" x="-61.610384345686384" svgjs:data="{&quot;newLined&quot;:true}">PLAYER</tspan></text><image width="724" height="760" xlink:href="https://lct-designs.s3.us-west-1.amazonaws.com/assets/libs/dodgers-2-baseball-banner-1640685378719.png" class="asset" transform="matrix(0.05790691822767258,0,0,0.05790691822767258,373.94989013671875,150.42922973632812)"></image><text fill="#ffffff" font-family="Impact" font-size="45" stroke-opacity="1" stroke-width="2" stroke="#002a52" x="-61.610384345686384" y="206.2294971644739" transform="matrix(0.40789613127708435,0,0,0.40789613127708435,444.2020568847656,85.61837768554689)" svgjs:data="{&quot;leading&quot;:&quot;1.3&quot;}"><tspan dy="0" x="-61.610384345686384" svgjs:data="{&quot;newLined&quot;:true}">PLAYER</tspan></text><image width="724" height="760" xlink:href="https://lct-designs.s3.us-west-1.amazonaws.com/assets/libs/dodgers-2-baseball-banner-1640685378719.png" class="asset" transform="matrix(0.0579068623483181,0,0,0.0579068623483181,162.3095245361328,99.82200622558595)"></image><text fill="#ffffff" font-family="Impact" font-size="45" stroke-opacity="1" stroke-width="2" stroke="#002a52" x="-61.610384345686384" y="206.2294971644739" transform="matrix(0.407896101474762,0,0,0.40789610147476196,232.5616912841797,35.011138916015625)" svgjs:data="{&quot;leading&quot;:&quot;1.3&quot;}"><tspan dy="0" x="-61.610384345686384" svgjs:data="{&quot;newLined&quot;:true}">PLAYER</tspan></text><image width="724" height="760" xlink:href="https://lct-designs.s3.us-west-1.amazonaws.com/assets/libs/dodgers-2-baseball-banner-1640685378719.png" class="asset" transform="matrix(0.05790691822767258,0,0,0.05790691822767258,273.26672363281256,99.19145202636717)"></image><text fill="#ffffff" font-family="Impact" font-size="45" stroke-opacity="1" stroke-width="2" stroke="#002a52" x="-61.610384345686384" y="206.2294971644739" transform="matrix(0.40789613127708435,0,0,0.40789613127708435,343.51889038085943,34.38059997558592)" svgjs:data="{&quot;leading&quot;:&quot;1.3&quot;}"><tspan dy="0" x="-61.610384345686384" svgjs:data="{&quot;newLined&quot;:true}">PLAYER</tspan></text><image width="724" height="760" xlink:href="https://lct-designs.s3.us-west-1.amazonaws.com/assets/libs/dodgers-2-baseball-banner-1640685378719.png" class="asset" transform="matrix(0.05790692940354347,0,0,0.05790692940354347,393.3963012695313,98.6024932861328)"></image><text fill="#ffffff" font-family="Impact" font-size="45" stroke-opacity="1" stroke-width="2" stroke="#002a52" x="-61.610384345686384" y="206.2294971644739" transform="matrix(0.40789613127708435,0,0,0.40789613127708435,463.6484680175781,33.79164123535156)" svgjs:data="{&quot;leading&quot;:&quot;1.3&quot;}"><tspan dy="0" x="-61.610384345686384" svgjs:data="{&quot;newLined&quot;:true}">PLAYER</tspan></text><g class="mask" style="pointer-events: none;"><g><path fill="#BCBEC0" d="M-3642.4-2101.7v4589.1h7813.4v-4589.1H-3642.4z M500.5,67.2v233.3v66.7H0.5v-66.7V67.2V0.5h500V67.2z" transform="matrix(1,0,0,1,0,0)"></path><g transform="matrix(1,0,0,1,0,0)">
	<rect x="0.5" y="300.5" opacity="0.95" fill="#F1F2F2" width="500" height="66.7"></rect>
	<rect x="0.5" y="0.5" opacity="0.95" fill="#F1F2F2" width="500" height="66.7"></rect>
</g></g></g></svg>