<svg xmlns="http://www.w3.org/2000/svg" version="1.1" xmlns:xlink="http://www.w3.org/1999/xlink" xmlns:svgjs="http://svgjs.dev/svgjs" width="100%" height="100%" viewBox="1 1 499 365.70001220703125" preserveAspectRatio="none" data-info="{&quot;_id&quot;:4,&quot;name&quot;:&quot;POLE POCKET SOCCER BANNERS&quot;,&quot;information&quot;:&quot;- Size: 3’x5’\n- Material: heavy duty vinyl banner\n- Digitally printed on vinyl&quot;,&quot;price&quot;:&quot;95.00&quot;,&quot;sale_price&quot;:&quot;89.99&quot;,&quot;type&quot;:&quot;pole-pocket&quot;,&quot;cover&quot;:{&quot;key&quot;:&quot;assets/models/pole-1628062864266-1631924568908.png&quot;,&quot;url&quot;:&quot;https://lct-designs.s3.us-west-1.amazonaws.com/assets/models/pole-1628062864266-1631924568908.png&quot;},&quot;back&quot;:{&quot;key&quot;:&quot;assets/models/pole-1631924700152.svg&quot;,&quot;url&quot;:&quot;https://lct-designs.s3.us-west-1.amazonaws.com/assets/models/pole-1631924700152.svg&quot;},&quot;mask&quot;:{&quot;key&quot;:&quot;assets/models/pole-mask-1631925211715.svg&quot;,&quot;url&quot;:&quot;https://lct-designs.s3.us-west-1.amazonaws.com/assets/models/pole-mask-1631925211715.svg&quot;},&quot;pos&quot;:&quot;2&quot;,&quot;accessories&quot;:&quot;2,3&quot;}" style="background-color: white;"><g class="model" style="pointer-events: none;"><polygon fill="#FFFFFF" points="0.5,0.5 0.5,67.2 0.5,300.5 0.5,367.2 500.5,367.2 500.5,300.5 500.5,67.2 500.5,0.5 "></polygon></g><image width="760" height="558" xlink:href="https://lct-designs.s3.us-west-1.amazonaws.com/assets/libs/minnesota-baseball-banner-1641953092640.png" class="asset background locked" transform="matrix(0.6641426086425781,0,0,0.665611982345581,-4.122496604919437,-3.5336403846740865)"></image><image width="668" height="760" xlink:href="https://lct-designs.s3.us-west-1.amazonaws.com/assets/libs/minnesota-baseball-banner-1641953851068.png" class="asset" transform="matrix(0.2454909235239029,0,0,0.2454909235239029,179.5508575439453,80.3453903198242)"></image><image width="760" height="408" xlink:href="https://lct-designs.s3.us-west-1.amazonaws.com/assets/libs/minnesota-baseball-banner-1642218820670.png" class="asset" transform="matrix(0.16333474218845365,0,0,0.16333474218845367,49.24571609497069,75.23416137695311)"></image><image width="760" height="670" xlink:href="https://lct-designs.s3.us-west-1.amazonaws.com/assets/libs/minnesota-baseball-banner--1641953741458.png" class="asset" transform="matrix(0.17377115786075592,0,0,0.17377115786075592,343.09161376953125,173.42958068847656)"></image><image width="760" height="389" xlink:href="https://lct-designs.s3.us-west-1.amazonaws.com/assets/libs/minnesota-2-baseball-banner--1642215462673.png" class="asset" transform="matrix(0.058913365006446845,0,0,0.05891336500644684,350.765625,78.83995819091798)"></image><text fill="#ffffff" font-family="Impact" font-size="45" stroke-opacity="1" stroke-width="1" stroke="#8a0000" x="187.90732896264797" y="201.81248971818485" transform="matrix(0.3464029133319855,0,0,0.34640291333198553,285.53051757812506,43.27596282958983)" svgjs:data="{&quot;leading&quot;:&quot;1.3&quot;}"><tspan dy="0" x="187.90732896264797" svgjs:data="{&quot;newLined&quot;:true}">Player</tspan></text><image width="760" height="389" xlink:href="https://lct-designs.s3.us-west-1.amazonaws.com/assets/libs/minnesota-2-baseball-banner--1642215462673.png" class="asset" transform="matrix(0.058913372457027435,0,0,0.05891337245702744,435.5595092773438,78.25101470947264)"></image><text fill="#ffffff" font-family="Impact" font-size="45" stroke-opacity="1" stroke-width="1" stroke="#8a0000" x="187.90732896264797" y="201.81248971818485" transform="matrix(0.3464029133319855,0,0,0.34640291333198553,370.3244018554688,42.68701934814453)" svgjs:data="{&quot;leading&quot;:&quot;1.3&quot;}"><tspan dy="0" x="187.90732896264797" svgjs:data="{&quot;newLined&quot;:true}">Player</tspan></text><text fill="#ffffff" font-family="Impact" font-size="45" stroke-opacity="1" stroke-width="1" stroke="#8a0000" x="187.90732896264797" y="201.81248971818485" transform="matrix(0.3464029133319855,0,0,0.34640291333198553,122.91566467285156,217.60226440429688)" svgjs:data="{&quot;leading&quot;:&quot;1.3&quot;}"><tspan dy="0" x="187.90732896264797" svgjs:data="{&quot;newLined&quot;:true}">Coach: Coach name</tspan></text><image width="760" height="389" xlink:href="https://lct-designs.s3.us-west-1.amazonaws.com/assets/libs/minnesota-2-baseball-banner--1642215462673.png" class="asset" transform="matrix(0.05891338363289833,0,0,0.05891338363289833,348.97528076171875,127.72198486328126)"></image><text fill="#ffffff" font-family="Impact" font-size="45" stroke-opacity="1" stroke-width="1" stroke="#8a0000" x="187.90732896264797" y="201.81248971818485" transform="matrix(0.3464029133319855,0,0,0.34640291333198553,283.74017333984375,92.15798950195314)" svgjs:data="{&quot;leading&quot;:&quot;1.3&quot;}"><tspan dy="0" x="187.90732896264797" svgjs:data="{&quot;newLined&quot;:true}">Player</tspan></text><image width="760" height="389" xlink:href="https://lct-designs.s3.us-west-1.amazonaws.com/assets/libs/minnesota-2-baseball-banner--1642215462673.png" class="asset" transform="matrix(0.05891338363289833,0,0,0.05891338363289833,28.61013793945312,150.10169982910156)"></image><text fill="#ffffff" font-family="Impact" font-size="45" stroke-opacity="1" stroke-width="1" stroke="#8a0000" x="187.90732896264797" y="201.81248971818485" transform="matrix(0.3464029133319855,0,0,0.34640291333198553,-36.624969482421875,114.53771209716798)" svgjs:data="{&quot;leading&quot;:&quot;1.3&quot;}"><tspan dy="0" x="187.90732896264797" svgjs:data="{&quot;newLined&quot;:true}">Player</tspan></text><image width="760" height="389" xlink:href="https://lct-designs.s3.us-west-1.amazonaws.com/assets/libs/minnesota-2-baseball-banner--1642215462673.png" class="asset" transform="matrix(0.05891339108347893,0,0,0.05891339108347893,113.40402221679688,149.5127716064453)"></image><text fill="#ffffff" font-family="Impact" font-size="45" stroke-opacity="1" stroke-width="1" stroke="#8a0000" x="187.90732896264797" y="201.81248971818485" transform="matrix(0.3464029133319855,0,0,0.34640291333198553,48.16891479492189,113.94876861572264)" svgjs:data="{&quot;leading&quot;:&quot;1.3&quot;}"><tspan dy="0" x="187.90732896264797" svgjs:data="{&quot;newLined&quot;:true}">Player</tspan></text><image width="760" height="389" xlink:href="https://lct-designs.s3.us-west-1.amazonaws.com/assets/libs/minnesota-2-baseball-banner--1642215462673.png" class="asset" transform="matrix(0.05891339108347893,0,0,0.05891339108347893,28.598365783691403,196.6279754638672)"></image><text fill="#ffffff" font-family="Impact" font-size="45" stroke-opacity="1" stroke-width="1" stroke="#8a0000" x="187.90732896264797" y="201.81248971818485" transform="matrix(0.3464029133319855,0,0,0.34640291333198553,-36.636741638183594,161.06399536132812)" svgjs:data="{&quot;leading&quot;:&quot;1.3&quot;}"><tspan dy="0" x="187.90732896264797" svgjs:data="{&quot;newLined&quot;:true}">Player</tspan></text><image width="760" height="389" xlink:href="https://lct-designs.s3.us-west-1.amazonaws.com/assets/libs/minnesota-2-baseball-banner--1642215462673.png" class="asset" transform="matrix(0.058913398534059525,0,0,0.058913398534059525,113.39225006103518,196.03904724121094)"></image><text fill="#ffffff" font-family="Impact" font-size="45" stroke-opacity="1" stroke-width="1" stroke="#8a0000" x="187.90732896264797" y="201.81248971818485" transform="matrix(0.3464029133319855,0,0,0.34640291333198553,48.157142639160156,160.4750518798828)" svgjs:data="{&quot;leading&quot;:&quot;1.3&quot;}"><tspan dy="0" x="187.90732896264797" svgjs:data="{&quot;newLined&quot;:true}">Player</tspan></text><image width="760" height="389" xlink:href="https://lct-designs.s3.us-west-1.amazonaws.com/assets/libs/minnesota-2-baseball-banner--1642215462673.png" class="asset" transform="matrix(0.058913398534059525,0,0,0.058913398534059525,27.408729553222653,246.09893798828125)"></image><text fill="#ffffff" font-family="Impact" font-size="45" stroke-opacity="1" stroke-width="1" stroke="#8a0000" x="187.90732896264797" y="201.81248971818485" transform="matrix(0.3464029133319855,0,0,0.34640291333198553,-37.82637786865235,210.5349578857422)" svgjs:data="{&quot;leading&quot;:&quot;1.3&quot;}"><tspan dy="0" x="187.90732896264797" svgjs:data="{&quot;newLined&quot;:true}">Player</tspan></text><image width="760" height="389" xlink:href="https://lct-designs.s3.us-west-1.amazonaws.com/assets/libs/minnesota-2-baseball-banner--1642215462673.png" class="asset" transform="matrix(0.05891340598464012,0,0,0.05891340598464012,112.2026138305664,245.510009765625)"></image><text fill="#ffffff" font-family="Impact" font-size="45" stroke-opacity="1" stroke-width="1" stroke="#8a0000" x="187.90732896264797" y="201.81248971818485" transform="matrix(0.3464029133319855,0,0,0.34640291333198553,46.96750640869142,209.94601440429688)" svgjs:data="{&quot;leading&quot;:&quot;1.3&quot;}"><tspan dy="0" x="187.90732896264797" svgjs:data="{&quot;newLined&quot;:true}">Player</tspan></text><image width="760" height="389" xlink:href="https://lct-designs.s3.us-west-1.amazonaws.com/assets/libs/minnesota-2-baseball-banner--1642215462673.png" class="asset" transform="matrix(0.05891339108347893,0,0,0.05891339108347893,434.94702148437506,125.9551544189453)"></image><text fill="#ffffff" font-family="Impact" font-size="45" stroke-opacity="1" stroke-width="1" stroke="#8a0000" x="187.90732896264797" y="201.81248971818485" transform="matrix(0.3464029133319855,0,0,0.34640291333198553,369.7119140625,90.39115905761717)" svgjs:data="{&quot;leading&quot;:&quot;1.3&quot;}"><tspan dy="0" x="187.90732896264797" svgjs:data="{&quot;newLined&quot;:true}">Player</tspan></text><g class="mask" style="pointer-events: none;"><g><path fill="#BCBEC0" d="M-3642.4-2101.7v4589.1h7813.4v-4589.1H-3642.4z M500.5,67.2v233.3v66.7H0.5v-66.7V67.2V0.5h500V67.2z" transform="matrix(1,0,0,1,0,0)"></path><g transform="matrix(1,0,0,1,0,0)">
	<rect x="0.5" y="300.5" opacity="0.95" fill="#F1F2F2" width="500" height="66.7"></rect>
	<rect x="0.5" y="0.5" opacity="0.95" fill="#F1F2F2" width="500" height="66.7"></rect>
</g></g></g></svg>