<svg xmlns="http://www.w3.org/2000/svg" version="1.1" xmlns:xlink="http://www.w3.org/1999/xlink" xmlns:svgjs="http://svgjs.dev/svgjs" width="100%" height="100%" viewBox="1 1 499 365.70001220703125" preserveAspectRatio="none" data-info="{&quot;_id&quot;:4,&quot;name&quot;:&quot;POLE POCKET SOCCER BANNERS&quot;,&quot;information&quot;:&quot;- Size: 3’x5’\n- Material: heavy duty vinyl banner\n- Digitally printed on vinyl&quot;,&quot;price&quot;:&quot;95.00&quot;,&quot;sale_price&quot;:&quot;89.99&quot;,&quot;type&quot;:&quot;pole-pocket&quot;,&quot;cover&quot;:{&quot;key&quot;:&quot;assets/models/pole-1628062864266-1631924568908.png&quot;,&quot;url&quot;:&quot;https://lct-designs.s3.us-west-1.amazonaws.com/assets/models/pole-1628062864266-1631924568908.png&quot;},&quot;back&quot;:{&quot;key&quot;:&quot;assets/models/pole-1631924700152.svg&quot;,&quot;url&quot;:&quot;https://lct-designs.s3.us-west-1.amazonaws.com/assets/models/pole-1631924700152.svg&quot;},&quot;mask&quot;:{&quot;key&quot;:&quot;assets/models/pole-mask-1631925211715.svg&quot;,&quot;url&quot;:&quot;https://lct-designs.s3.us-west-1.amazonaws.com/assets/models/pole-mask-1631925211715.svg&quot;},&quot;pos&quot;:&quot;2&quot;,&quot;accessories&quot;:&quot;2,3&quot;}" style="background-color: white;"><g class="model" style="pointer-events: none;"><polygon fill="#FFFFFF" points="0.5,0.5 0.5,67.2 0.5,300.5 0.5,367.2 500.5,367.2 500.5,300.5 500.5,67.2 500.5,0.5 "></polygon></g><image width="760" height="556" xlink:href="https://lct-designs.s3.us-west-1.amazonaws.com/assets/libs/dodgers-2-baseball-banner-1640685274365.png" class="asset background locked" transform="matrix(0.6595323960558116,0,0,0.6595323960558116,0,0)"></image><image width="709" height="760" xlink:href="https://lct-designs.s3.us-west-1.amazonaws.com/assets/libs/dodgers-2-baseball-banner-7-1640685334498.png" class="asset" transform="matrix(0.24393954873085022,0.00015892946976237,-0.00015892946976237002,0.24393954873085022,318.49365234375006,75.57647705078124)"></image><image width="760" height="471" xlink:href="https://lct-designs.s3.us-west-1.amazonaws.com/assets/libs/dodgers-2-baseball-banner-5-1642048788078.png" class="asset" transform="matrix(0.14518511295318604,-0.013811161741614342,0.013811161741614342,0.14518511295318604,265.626953125,99.34324645996092)"></image><image width="724" height="760" xlink:href="https://lct-designs.s3.us-west-1.amazonaws.com/assets/libs/dodgers-baseball-banner--1640685378719.png" class="asset" transform="matrix(0.05718753859400749,0,0,0.05718753859400749,121.67350769042972,76.81176757812499)"></image><image width="724" height="760" xlink:href="https://lct-designs.s3.us-west-1.amazonaws.com/assets/libs/dodgers-baseball-banner--1640685378719.png" class="asset" transform="matrix(0.05718754976987839,0,0,0.05718754976987839,232.38021850585938,75.63388824462889)"></image><image width="760" height="670" xlink:href="https://lct-designs.s3.us-west-1.amazonaws.com/assets/libs/dodgers-2-baseball-banner-1640685334498.png" class="asset" transform="matrix(0.19926212728023532,0,0,0.1992621272802353,13.898704528808597,159.8839569091797)"></image><image width="724" height="760" xlink:href="https://lct-designs.s3.us-west-1.amazonaws.com/assets/libs/dodgers-baseball-banner--1640685378719.png" class="asset" transform="matrix(0.05718749761581421,0,0,0.05718749761581421,13.322503089904782,78.57859039306639)"></image><text fill="#ffffff" font-family="DEATHE MAACH NCV" font-size="45" stroke-opacity="1" stroke-width="2" stroke="#003952" x="187.99935090478664" y="200.63461992143192" transform="matrix(0.425407737493515,0,0,0.425407737493515,-22.130153656005863,11.977800369262695)" svgjs:data="{&quot;leading&quot;:&quot;1.3&quot;}"><tspan dy="0" x="187.99935090478664" svgjs:data="{&quot;newLined&quot;:true}">PLAYER</tspan></text><image width="724" height="760" xlink:href="https://lct-designs.s3.us-west-1.amazonaws.com/assets/libs/dodgers-baseball-banner--1640685378719.png" class="asset" transform="matrix(0.057187531143426895,0,0,0.057187531143426895,53.346069335937514,125.10485839843751)"></image><image width="724" height="760" xlink:href="https://lct-designs.s3.us-west-1.amazonaws.com/assets/libs/dodgers-baseball-banner--1640685378719.png" class="asset" transform="matrix(0.05718753859400749,0,0,0.05718753859400749,164.0527801513672,123.92697906494142)"></image><image width="724" height="760" xlink:href="https://lct-designs.s3.us-west-1.amazonaws.com/assets/libs/dodgers-baseball-banner--1640685378719.png" class="asset" transform="matrix(0.05718756467103958,0,0,0.05718756467103958,222.93380737304688,210.5011749267578)"></image><image width="724" height="760" xlink:href="https://lct-designs.s3.us-west-1.amazonaws.com/assets/libs/dodgers-baseball-banner--1640685378719.png" class="asset" transform="matrix(0.05718756094574929,0,0,0.05718756094574928,184.66525268554688,168.6864013671875)"></image><image width="724" height="760" xlink:href="https://lct-designs.s3.us-west-1.amazonaws.com/assets/libs/dodgers-baseball-banner--1640685378719.png" class="asset" transform="matrix(0.057187553495168686,0,0,0.057187553495168686,178.7877655029297,254.08276367187494)"></image><text fill="#ffffff" font-family="DEATHE MAACH NCV" font-size="45" stroke-opacity="1" stroke-width="2" stroke="#003952" x="187.99935090478664" y="200.63461992143192" transform="matrix(0.425407737493515,0,0,0.425407737493515,86.22084808349611,9.622037887573242)" svgjs:data="{&quot;leading&quot;:&quot;1.3&quot;}"><tspan dy="0" x="187.99935090478664" svgjs:data="{&quot;newLined&quot;:true}">PLAYER</tspan></text><text fill="#ffffff" font-family="DEATHE MAACH NCV" font-size="45" stroke-opacity="1" stroke-width="2" stroke="#003952" x="187.99935090478664" y="200.63461992143192" transform="matrix(0.425407737493515,0,0,0.425407737493515,197.51649475097656,8.444156646728501)" svgjs:data="{&quot;leading&quot;:&quot;1.3&quot;}"><tspan dy="0" x="187.99935090478664" svgjs:data="{&quot;newLined&quot;:true}">PLAYER</tspan></text><text fill="#ffffff" font-family="DEATHE MAACH NCV" font-size="45" stroke-opacity="1" stroke-width="2" stroke="#003952" x="187.99935090478664" y="200.63461992143192" transform="matrix(0.425407737493515,0,0,0.425407737493515,18.47055053710938,58.50406646728514)" svgjs:data="{&quot;leading&quot;:&quot;1.3&quot;}"><tspan dy="0" x="187.99935090478664" svgjs:data="{&quot;newLined&quot;:true}">PLAYER</tspan></text><text fill="#ffffff" font-family="DEATHE MAACH NCV" font-size="45" stroke-opacity="1" stroke-width="2" stroke="#003952" x="187.99935090478664" y="200.63461992143192" transform="matrix(0.425407737493515,0,0,0.425407737493515,129.17727661132812,56.737243652343736)" svgjs:data="{&quot;leading&quot;:&quot;1.3&quot;}"><tspan dy="0" x="187.99935090478664" svgjs:data="{&quot;newLined&quot;:true}">PLAYER</tspan></text><text fill="#ffffff" font-family="DEATHE MAACH NCV" font-size="45" stroke-opacity="1" stroke-width="2" stroke="#003952" x="187.99935090478664" y="200.63461992143192" transform="matrix(0.425407737493515,0,0,0.425407737493515,149.18905639648438,100.90775299072264)" svgjs:data="{&quot;leading&quot;:&quot;1.3&quot;}"><tspan dy="0" x="187.99935090478664" svgjs:data="{&quot;newLined&quot;:true}">PLAYER</tspan></text><text fill="#ffffff" font-family="DEATHE MAACH NCV" font-size="45" stroke-opacity="1" stroke-width="2" stroke="#003952" x="187.99935090478664" y="200.63461992143192" transform="matrix(0.425407737493515,0,0,0.425407737493515,188.04653930664062,142.72250366210938)" svgjs:data="{&quot;leading&quot;:&quot;1.3&quot;}"><tspan dy="0" x="187.99935090478664" svgjs:data="{&quot;newLined&quot;:true}">PLAYER</tspan></text><text fill="#ffffff" font-family="DEATHE MAACH NCV" font-size="45" stroke-opacity="1" stroke-width="2" stroke="#003952" x="187.99935090478664" y="200.63461992143192" transform="matrix(0.425407737493515,0,0,0.425407737493515,143.86514282226562,186.3040771484375)" svgjs:data="{&quot;leading&quot;:&quot;1.3&quot;}"><tspan dy="0" x="187.99935090478664" svgjs:data="{&quot;newLined&quot;:true}">PLAYER</tspan></text><text fill="#ffffff" font-family="DEATHE MAACH NCV" font-size="45" stroke-opacity="1" stroke-width="2" stroke="#003952" x="187.99935090478664" y="200.63461992143192" transform="matrix(0.35643562674522405,0,0,0.356435626745224,287.8587646484375,214.85044860839844)" svgjs:data="{&quot;leading&quot;:&quot;1.3&quot;}"><tspan dy="0" x="187.99935090478664" svgjs:data="{&quot;newLined&quot;:true}">COACH: COACH NAME</tspan></text><g class="mask" style="pointer-events: none;"><g><path fill="#BCBEC0" d="M-3642.4-2101.7v4589.1h7813.4v-4589.1H-3642.4z M500.5,67.2v233.3v66.7H0.5v-66.7V67.2V0.5h500V67.2z" transform="matrix(1,0,0,1,0,0)"></path><g transform="matrix(1,0,0,1,0,0)">
	<rect x="0.5" y="300.5" opacity="0.95" fill="#F1F2F2" width="500" height="66.7"></rect>
	<rect x="0.5" y="0.5" opacity="0.95" fill="#F1F2F2" width="500" height="66.7"></rect>
</g></g></g></svg>