<svg xmlns="http://www.w3.org/2000/svg" version="1.1" xmlns:xlink="http://www.w3.org/1999/xlink" xmlns:svgjs="http://svgjs.dev/svgjs" width="100%" height="100%" viewBox="1 1 499 365.70001220703125" preserveAspectRatio="none" data-info="{&quot;_id&quot;:4,&quot;name&quot;:&quot;POLE POCKET SOCCER BANNERS&quot;,&quot;information&quot;:&quot;- Size: 3’x5’\n- Material: heavy duty vinyl banner\n- Digitally printed on vinyl&quot;,&quot;price&quot;:&quot;95.00&quot;,&quot;sale_price&quot;:&quot;89.99&quot;,&quot;type&quot;:&quot;pole-pocket&quot;,&quot;cover&quot;:{&quot;key&quot;:&quot;assets/models/pole-1628062864266-1631924568908.png&quot;,&quot;url&quot;:&quot;https://lct-designs.s3.us-west-1.amazonaws.com/assets/models/pole-1628062864266-1631924568908.png&quot;},&quot;back&quot;:{&quot;key&quot;:&quot;assets/models/pole-1631924700152.svg&quot;,&quot;url&quot;:&quot;https://lct-designs.s3.us-west-1.amazonaws.com/assets/models/pole-1631924700152.svg&quot;},&quot;mask&quot;:{&quot;key&quot;:&quot;assets/models/pole-mask-1631925211715.svg&quot;,&quot;url&quot;:&quot;https://lct-designs.s3.us-west-1.amazonaws.com/assets/models/pole-mask-1631925211715.svg&quot;},&quot;pos&quot;:&quot;2&quot;,&quot;accessories&quot;:&quot;2,3&quot;}" style="background-color: white;"><g class="model" style="pointer-events: none;"><polygon fill="#FFFFFF" points="0.5,0.5 0.5,67.2 0.5,300.5 0.5,367.2 500.5,367.2 500.5,300.5 500.5,67.2 500.5,0.5 "></polygon></g><image width="760" height="556" xlink:href="https://lct-designs.s3.us-west-1.amazonaws.com/assets/libs/mets-5-baseball-banner-1641953067451.png" class="asset background locked" transform="matrix(0.6595323960558116,0,0,0.6595323960558116,0,0)"></image><image width="760" height="760" xlink:href="https://lct-designs.s3.us-west-1.amazonaws.com/assets/libs/mets-3-softball-banner-1640683948795.png" class="asset" transform="matrix(0.209070086479187,0,0,0.20907008647918698,170.55398559570312,73.27809143066406)"></image><image width="760" height="558" xlink:href="https://lct-designs.s3.us-west-1.amazonaws.com/assets/libs/mets-5-baseball-banner-1641953714875.png" class="asset" transform="matrix(0.10202692449092864,0,0,0.10202692449092864,211.77856445312497,237.92520141601554)"></image><image width="648" height="760" xlink:href="https://lct-designs.s3.us-west-1.amazonaws.com/assets/libs/mets-5-baseball-banner-1641953946813.png" class="asset" transform="matrix(0.0470857359468937,0,0,0.04708573594689369,123.68851470947266,86.23481750488283)"></image><text fill="#ffffff" font-family="Impact" font-size="45" x="69.65119111474758" y="201.81248971818485" transform="matrix(0.28771233558654785,0,0,0.28771233558654785,100.83067321777344,79.80658721923827)" svgjs:data="{&quot;leading&quot;:&quot;1.3&quot;}"><tspan dy="0" x="69.65119111474758" svgjs:data="{&quot;newLined&quot;:true}">PLAYER</tspan></text><image width="648" height="760" xlink:href="https://lct-designs.s3.us-west-1.amazonaws.com/assets/libs/mets-5-baseball-banner-1641953946813.png" class="asset" transform="matrix(0.0470857359468937,0,0,0.04708573594689369,55.361061096191406,86.82376098632814)"></image><text fill="#ffffff" font-family="Impact" font-size="45" x="69.65119111474758" y="201.81248971818485" transform="matrix(0.28771233558654785,0,0,0.28771233558654785,32.50322723388672,80.39553070068358)" svgjs:data="{&quot;leading&quot;:&quot;1.3&quot;}"><tspan dy="0" x="69.65119111474758" svgjs:data="{&quot;newLined&quot;:true}">PLAYER</tspan></text><text fill="#ffffff" font-family="Impact" font-size="45" x="69.65119111474758" y="201.81248971818485" transform="matrix(0.2689431309700012,0,0,0.2689431309700012,42.08505630493164,234.5282745361328)" svgjs:data="{&quot;leading&quot;:&quot;1.3&quot;}"><tspan dy="0" x="69.65119111474758" svgjs:data="{&quot;newLined&quot;:true}">Coach: Coach name</tspan></text><text fill="#ffffff" font-family="Impact" font-size="45" x="69.65119111474758" y="201.81248971818485" transform="matrix(0.26894301176071167,0,0,0.26894301176071167,322.99203491210943,233.93934631347656)" svgjs:data="{&quot;leading&quot;:&quot;1.3&quot;}"><tspan dy="0" x="69.65119111474758" svgjs:data="{&quot;newLined&quot;:true}">Coach: Coach name</tspan></text><image width="648" height="760" xlink:href="https://lct-designs.s3.us-west-1.amazonaws.com/assets/libs/mets-5-baseball-banner-1641953946813.png" class="asset" transform="matrix(0.0470857359468937,0,0,0.04708573594689369,85.39641571044922,146.30670928955078)"></image><text fill="#ffffff" font-family="Impact" font-size="45" x="69.65119111474758" y="201.81248971818485" transform="matrix(0.28771233558654785,0,0,0.28771233558654785,62.53856658935548,139.87847900390625)" svgjs:data="{&quot;leading&quot;:&quot;1.3&quot;}"><tspan dy="0" x="69.65119111474758" svgjs:data="{&quot;newLined&quot;:true}">PLAYER</tspan></text><image width="648" height="760" xlink:href="https://lct-designs.s3.us-west-1.amazonaws.com/assets/libs/mets-5-baseball-banner-1641953946813.png" class="asset" transform="matrix(0.0470857359468937,0,0,0.04708573594689369,17.068954467773434,146.8956527709961)"></image><text fill="#ffffff" font-family="Impact" font-size="45" x="69.65119111474758" y="201.81248971818485" transform="matrix(0.28771233558654785,0,0,0.28771233558654785,-5.7888793945312536,140.46742248535156)" svgjs:data="{&quot;leading&quot;:&quot;1.3&quot;}"><tspan dy="0" x="69.65119111474758" svgjs:data="{&quot;newLined&quot;:true}">PLAYER</tspan></text><image width="648" height="760" xlink:href="https://lct-designs.s3.us-west-1.amazonaws.com/assets/libs/mets-5-baseball-banner-1641953946813.png" class="asset" transform="matrix(0.0470857359468937,0,0,0.04708573594689369,124.25389862060547,207.55650329589844)"></image><text fill="#ffffff" font-family="Impact" font-size="45" x="69.65119111474758" y="201.81248971818485" transform="matrix(0.28771233558654785,0,0,0.28771233558654785,101.39604949951175,201.12826538085938)" svgjs:data="{&quot;leading&quot;:&quot;1.3&quot;}"><tspan dy="0" x="69.65119111474758" svgjs:data="{&quot;newLined&quot;:true}">PLAYER</tspan></text><image width="648" height="760" xlink:href="https://lct-designs.s3.us-west-1.amazonaws.com/assets/libs/mets-5-baseball-banner-1641953946813.png" class="asset" transform="matrix(0.0470857359468937,0,0,0.04708573594689369,55.92643737792969,208.14544677734375)"></image><text fill="#ffffff" font-family="Impact" font-size="45" x="69.65119111474758" y="201.81248971818485" transform="matrix(0.28771233558654785,0,0,0.28771233558654785,33.068603515625,201.7172088623047)" svgjs:data="{&quot;leading&quot;:&quot;1.3&quot;}"><tspan dy="0" x="69.65119111474758" svgjs:data="{&quot;newLined&quot;:true}">PLAYER</tspan></text><image width="648" height="760" xlink:href="https://lct-designs.s3.us-west-1.amazonaws.com/assets/libs/mets-5-baseball-banner-1641953946813.png" class="asset" transform="matrix(0.0470857359468937,0,0,0.04708573594689369,415.7615966796875,85.05695343017577)"></image><text fill="#ffffff" font-family="Impact" font-size="45" x="69.65119111474758" y="201.81248971818485" transform="matrix(0.28771233558654785,0,0,0.28771233558654785,392.9037399291993,78.6287155151367)" svgjs:data="{&quot;leading&quot;:&quot;1.3&quot;}"><tspan dy="0" x="69.65119111474758" svgjs:data="{&quot;newLined&quot;:true}">PLAYER</tspan></text><image width="648" height="760" xlink:href="https://lct-designs.s3.us-west-1.amazonaws.com/assets/libs/mets-5-baseball-banner-1641953946813.png" class="asset" transform="matrix(0.0470857359468937,0,0,0.04708573594689369,347.4341278076172,85.64589691162108)"></image><text fill="#ffffff" font-family="Impact" font-size="45" x="69.65119111474758" y="201.81248971818485" transform="matrix(0.28771233558654785,0,0,0.28771233558654785,324.57629394531256,79.21765899658205)" svgjs:data="{&quot;leading&quot;:&quot;1.3&quot;}"><tspan dy="0" x="69.65119111474758" svgjs:data="{&quot;newLined&quot;:true}">PLAYER</tspan></text><image width="648" height="760" xlink:href="https://lct-designs.s3.us-west-1.amazonaws.com/assets/libs/mets-5-baseball-banner-1641953946813.png" class="asset" transform="matrix(0.0470857359468937,0,0,0.04708573594689369,449.90765374898916,145.71778881549835)"></image><text fill="#ffffff" font-family="Impact" font-size="45" x="69.65119111474758" y="201.81248971818485" transform="matrix(0.28771233558654785,0,0,0.28771233558654785,427.0498046278954,139.2895509004593)" svgjs:data="{&quot;leading&quot;:&quot;1.3&quot;}"><tspan dy="0" x="69.65119111474758" svgjs:data="{&quot;newLined&quot;:true}">PLAYER</tspan></text><image width="648" height="760" xlink:href="https://lct-designs.s3.us-west-1.amazonaws.com/assets/libs/mets-5-baseball-banner-1641953946813.png" class="asset" transform="matrix(0.0470857359468937,0,0,0.04708573594689369,381.58020013570786,146.30673229694366)"></image><text fill="#ffffff" font-family="Impact" font-size="45" x="69.65119111474758" y="201.81248971818485" transform="matrix(0.28771233558654785,0,0,0.28771233558654785,358.7223510146141,139.8784943819046)" svgjs:data="{&quot;leading&quot;:&quot;1.3&quot;}"><tspan dy="0" x="69.65119111474758" svgjs:data="{&quot;newLined&quot;:true}">PLAYER</tspan></text><image width="648" height="760" xlink:href="https://lct-designs.s3.us-west-1.amazonaws.com/assets/libs/mets-5-baseball-banner-1641953946813.png" class="asset" transform="matrix(0.0470857359468937,0,0,0.04708573594689369,413.38232421875006,203.43392944335938)"></image><text fill="#ffffff" font-family="Impact" font-size="45" x="69.65119111474758" y="201.81248971818485" transform="matrix(0.28771233558654785,0,0,0.28771233558654785,390.5244750976563,197.0056915283203)" svgjs:data="{&quot;leading&quot;:&quot;1.3&quot;}"><tspan dy="0" x="69.65119111474758" svgjs:data="{&quot;newLined&quot;:true}">PLAYER</tspan></text><image width="648" height="760" xlink:href="https://lct-designs.s3.us-west-1.amazonaws.com/assets/libs/mets-5-baseball-banner-1641953946813.png" class="asset" transform="matrix(0.0470857359468937,0,0,0.04708573594689369,345.05487060546875,204.0228729248047)"></image><text fill="#ffffff" font-family="Impact" font-size="45" x="69.65119111474758" y="201.81248971818485" transform="matrix(0.28771233558654785,0,0,0.28771233558654785,322.197021484375,197.59463500976562)" svgjs:data="{&quot;leading&quot;:&quot;1.3&quot;}"><tspan dy="0" x="69.65119111474758" svgjs:data="{&quot;newLined&quot;:true}">PLAYER</tspan></text><g class="mask" style="pointer-events: none;"><g><path fill="#BCBEC0" d="M-3642.4-2101.7v4589.1h7813.4v-4589.1H-3642.4z M500.5,67.2v233.3v66.7H0.5v-66.7V67.2V0.5h500V67.2z" transform="matrix(1,0,0,1,0,0)"></path><g transform="matrix(1,0,0,1,0,0)">
	<rect x="0.5" y="300.5" opacity="0.95" fill="#F1F2F2" width="500" height="66.7"></rect>
	<rect x="0.5" y="0.5" opacity="0.95" fill="#F1F2F2" width="500" height="66.7"></rect>
</g></g></g></svg>