<svg xmlns="http://www.w3.org/2000/svg" version="1.1" xmlns:xlink="http://www.w3.org/1999/xlink" xmlns:svgjs="http://svgjs.dev/svgjs" width="100%" height="100%" viewBox="1 1 499 365.70001220703125" preserveAspectRatio="none" data-info="{&quot;_id&quot;:4,&quot;name&quot;:&quot;POLE POCKET SOCCER BANNERS&quot;,&quot;information&quot;:&quot;- Size: 3’x5’\n- Material: heavy duty vinyl banner\n- Digitally printed on vinyl&quot;,&quot;price&quot;:&quot;95.00&quot;,&quot;sale_price&quot;:&quot;89.99&quot;,&quot;type&quot;:&quot;pole-pocket&quot;,&quot;cover&quot;:{&quot;key&quot;:&quot;assets/models/pole-1628062864266-1631924568908.png&quot;,&quot;url&quot;:&quot;https://lct-designs.s3.us-west-1.amazonaws.com/assets/models/pole-1628062864266-1631924568908.png&quot;},&quot;back&quot;:{&quot;key&quot;:&quot;assets/models/pole-1631924700152.svg&quot;,&quot;url&quot;:&quot;https://lct-designs.s3.us-west-1.amazonaws.com/assets/models/pole-1631924700152.svg&quot;},&quot;mask&quot;:{&quot;key&quot;:&quot;assets/models/pole-mask-1631925211715.svg&quot;,&quot;url&quot;:&quot;https://lct-designs.s3.us-west-1.amazonaws.com/assets/models/pole-mask-1631925211715.svg&quot;},&quot;pos&quot;:&quot;2&quot;,&quot;accessories&quot;:&quot;2,3&quot;}" style="background-color: white;"><g class="model" style="pointer-events: none;"><polygon fill="#FFFFFF" points="0.5,0.5 0.5,67.2 0.5,300.5 0.5,367.2 500.5,367.2 500.5,300.5 500.5,67.2 500.5,0.5 "></polygon></g><image width="760" height="556" xlink:href="https://lct-designs.s3.us-west-1.amazonaws.com/assets/libs/milwaukee-2-baseball-banner-1641953067452.png" class="asset background locked" transform="matrix(0.6595323960558116,0,0,0.6595323960558116,0,0)"></image><image width="760" height="430" xlink:href="https://lct-designs.s3.us-west-1.amazonaws.com/assets/libs/milwaukee-2-baseball-banner-1642211554459.png" class="asset" transform="matrix(0.25347304344177246,0,0,0.2534730434417724,267.1378173828125,67.30845642089844)"></image><image width="699" height="760" xlink:href="https://lct-designs.s3.us-west-1.amazonaws.com/assets/libs/milwaukee-2-baseball-banner--1641953946813.png" class="asset" transform="matrix(0.031695179641246796,0,0,0.031695179641246796,415.7411804199219,149.25143432617188)"></image><text fill="#003d75" font-family="Impact" font-size="45" stroke-opacity="1" stroke-width="1" stroke="#ffffff" x="187.90732896264797" y="201.81248971818485" transform="matrix(0.4049278795719147,0,0,0.4049278795719147,363.1626892089844,89.29809570312499)" svgjs:data="{&quot;leading&quot;:&quot;1.3&quot;}"><tspan dy="0" x="187.90732896264797" svgjs:data="{&quot;newLined&quot;:true}">PLAYER</tspan></text><image width="760" height="425" xlink:href="https://lct-designs.s3.us-west-1.amazonaws.com/assets/libs/milwaukee-2-baseball-banner-1641953851067.png" class="asset" transform="matrix(0.3131067752838135,0,0,0.3131067752838135,128.4693603515625,76.47151184082033)"></image><text fill="#003d75" font-family="Impact" font-size="45" stroke-opacity="1" stroke-width="1" stroke="#ffffff" x="187.90732896264797" y="201.81248971818485" transform="matrix(0.4049278795719147,0,0,0.4049278795719147,240.11203002929688,165.86029052734375)" svgjs:data="{&quot;leading&quot;:&quot;1.3&quot;}"><tspan dy="0" x="187.90732896264797" svgjs:data="{&quot;newLined&quot;:true}">PLAYER</tspan></text><image width="699" height="760" xlink:href="https://lct-designs.s3.us-west-1.amazonaws.com/assets/libs/milwaukee-2-baseball-banner--1641953946813.png" class="asset" transform="matrix(0.031695179641246796,0,0,0.031695179641246796,402.80831909179693,226.402587890625)"></image><text fill="#003d75" font-family="Impact" font-size="45" stroke-opacity="1" stroke-width="1" stroke="#ffffff" x="187.90732896264797" y="201.81248971818485" transform="matrix(0.4049278795719147,0,0,0.4049278795719147,350.22982788085943,166.44924926757812)" svgjs:data="{&quot;leading&quot;:&quot;1.3&quot;}"><tspan dy="0" x="187.90732896264797" svgjs:data="{&quot;newLined&quot;:true}">PLAYER</tspan></text><text fill="#003d75" font-family="Impact" font-size="45" stroke-opacity="1" stroke-width="1" stroke="#ffffff" x="187.90732896264797" y="201.81248971818485" transform="matrix(0.4049278795719147,0,0,0.4049278795719147,223.0230255126953,204.25213623046875)" svgjs:data="{&quot;leading&quot;:&quot;1.3&quot;}"><tspan dy="0" x="187.90732896264797" svgjs:data="{&quot;newLined&quot;:true}">PLAYER</tspan></text><image width="699" height="760" xlink:href="https://lct-designs.s3.us-west-1.amazonaws.com/assets/libs/milwaukee-2-baseball-banner--1641953946813.png" class="asset" transform="matrix(0.031695179641246796,0,0,0.031695179641246796,385.7193298339844,266.5612487792968)"></image><text fill="#003d75" font-family="Impact" font-size="45" stroke-opacity="1" stroke-width="1" stroke="#ffffff" x="187.90732896264797" y="201.81248971818485" transform="matrix(0.4049278795719147,0,0,0.4049278795719147,333.1408081054688,204.84109497070312)" svgjs:data="{&quot;leading&quot;:&quot;1.3&quot;}"><tspan dy="0" x="187.90732896264797" svgjs:data="{&quot;newLined&quot;:true}">PLAYER</tspan></text><image width="699" height="760" xlink:href="https://lct-designs.s3.us-west-1.amazonaws.com/assets/libs/milwaukee-2-baseball-banner--1641953946813.png" class="asset" transform="matrix(0.031695179641246796,0,0,0.031695179641246796,183.9878997802734,225.64367675781244)"></image><text fill="#003d75" font-family="Impact" font-size="45" stroke-opacity="1" stroke-width="1" stroke="#ffffff" x="187.90732896264797" y="201.81248971818485" transform="matrix(0.4049278795719147,0,0,0.4049278795719147,131.40939331054688,163.9235076904297)" svgjs:data="{&quot;leading&quot;:&quot;1.3&quot;}"><tspan dy="0" x="187.90732896264797" svgjs:data="{&quot;newLined&quot;:true}">PLAYER</tspan></text><image width="699" height="760" xlink:href="https://lct-designs.s3.us-west-1.amazonaws.com/assets/libs/milwaukee-2-baseball-banner--1641953946813.png" class="asset" transform="matrix(0.031695179641246796,0,0,0.031695179641246796,292.6905212402344,225.81362915039057)"></image><image width="699" height="760" xlink:href="https://lct-designs.s3.us-west-1.amazonaws.com/assets/libs/milwaukee-2-baseball-banner--1641953946813.png" class="asset" transform="matrix(0.031695179641246796,0,0,0.031695179641246796,275.60153198242193,265.9722900390625)"></image><image width="699" height="760" xlink:href="https://lct-designs.s3.us-west-1.amazonaws.com/assets/libs/milwaukee-2-baseball-banner--1641953946813.png" class="asset" transform="matrix(0.031695179641246796,0,0,0.031695179641246796,166.89889526367188,265.8023376464844)"></image><text fill="#003d75" font-family="Impact" font-size="45" stroke-opacity="1" stroke-width="1" stroke="#ffffff" x="187.90732896264797" y="201.81248971818485" transform="matrix(0.4049278795719147,0,0,0.4049278795719147,114.32038879394531,204.08218383789062)" svgjs:data="{&quot;leading&quot;:&quot;1.3&quot;}"><tspan dy="0" x="187.90732896264797" svgjs:data="{&quot;newLined&quot;:true}">PLAYER</tspan></text><image width="699" height="760" xlink:href="https://lct-designs.s3.us-west-1.amazonaws.com/assets/libs/milwaukee-2-baseball-banner--1641953946813.png" class="asset" transform="matrix(0.031695179641246796,0,0,0.031695179641246796,306.8130187988282,186.94358825683594)"></image><text fill="#003d75" font-family="Impact" font-size="45" stroke-opacity="1" stroke-width="1" stroke="#ffffff" x="187.90732896264797" y="201.81248971818485" transform="matrix(0.4049278795719147,0,0,0.4049278795719147,254.23452758789062,126.99024963378905)" svgjs:data="{&quot;leading&quot;:&quot;1.3&quot;}"><tspan dy="0" x="187.90732896264797" svgjs:data="{&quot;newLined&quot;:true}">PLAYER</tspan></text><image width="699" height="760" xlink:href="https://lct-designs.s3.us-west-1.amazonaws.com/assets/libs/milwaukee-2-baseball-banner--1641953946813.png" class="asset" transform="matrix(0.031695179641246796,0,0,0.031695179641246796,416.9308166503906,187.5325469970703)"></image><text fill="#003d75" font-family="Impact" font-size="45" stroke-opacity="1" stroke-width="1" stroke="#ffffff" x="187.90732896264797" y="201.81248971818485" transform="matrix(0.4049278795719147,0,0,0.4049278795719147,364.3523254394531,127.57920837402345)" svgjs:data="{&quot;leading&quot;:&quot;1.3&quot;}"><tspan dy="0" x="187.90732896264797" svgjs:data="{&quot;newLined&quot;:true}">PLAYER</tspan></text><image width="623" height="760" xlink:href="https://lct-designs.s3.us-west-1.amazonaws.com/assets/libs/milwaukee-2-baseball-banner--1641953714875.png" class="asset" transform="matrix(0.2152693569660187,0,0,0.21526935696601868,17.611511230468746,126.87164306640624)"></image><text fill="#003d75" font-family="Impact" font-size="45" stroke-opacity="1" stroke-width="1" stroke="#ffffff" x="187.90732896264797" y="201.81248971818485" transform="matrix(0.4049278795719147,0,0,0.4049278795719147,-62.019893646240234,13.324799537658691)" svgjs:data="{&quot;leading&quot;:&quot;1.3&quot;}"><tspan dy="0" x="187.90732896264797" svgjs:data="{&quot;newLined&quot;:true}">Coach: Coach name</tspan></text><g class="mask" style="pointer-events: none;"><g><path fill="#BCBEC0" d="M-3642.4-2101.7v4589.1h7813.4v-4589.1H-3642.4z M500.5,67.2v233.3v66.7H0.5v-66.7V67.2V0.5h500V67.2z" transform="matrix(1,0,0,1,0,0)"></path><g transform="matrix(1,0,0,1,0,0)">
	<rect x="0.5" y="300.5" opacity="0.95" fill="#F1F2F2" width="500" height="66.7"></rect>
	<rect x="0.5" y="0.5" opacity="0.95" fill="#F1F2F2" width="500" height="66.7"></rect>
</g></g></g></svg>