<svg xmlns="http://www.w3.org/2000/svg" version="1.1" xmlns:xlink="http://www.w3.org/1999/xlink" xmlns:svgjs="http://svgjs.dev/svgjs" width="100%" height="100%" viewBox="1 1 499 365.70001220703125" preserveAspectRatio="none" data-info="{&quot;_id&quot;:4,&quot;name&quot;:&quot;POLE POCKET SOCCER BANNERS&quot;,&quot;information&quot;:&quot;- Size: 3’x5’\n- Material: heavy duty vinyl banner\n- Digitally printed on vinyl&quot;,&quot;price&quot;:&quot;95.00&quot;,&quot;sale_price&quot;:&quot;89.99&quot;,&quot;type&quot;:&quot;pole-pocket&quot;,&quot;cover&quot;:{&quot;key&quot;:&quot;assets/models/pole-1628062864266-1631924568908.png&quot;,&quot;url&quot;:&quot;https://lct-designs.s3.us-west-1.amazonaws.com/assets/models/pole-1628062864266-1631924568908.png&quot;},&quot;back&quot;:{&quot;key&quot;:&quot;assets/models/pole-1631924700152.svg&quot;,&quot;url&quot;:&quot;https://lct-designs.s3.us-west-1.amazonaws.com/assets/models/pole-1631924700152.svg&quot;},&quot;mask&quot;:{&quot;key&quot;:&quot;assets/models/pole-mask-1631925211715.svg&quot;,&quot;url&quot;:&quot;https://lct-designs.s3.us-west-1.amazonaws.com/assets/models/pole-mask-1631925211715.svg&quot;},&quot;pos&quot;:&quot;2&quot;,&quot;accessories&quot;:&quot;2,3&quot;}" style="background-color: white;"><g class="model" style="pointer-events: none;"><polygon fill="#FFFFFF" points="0.5,0.5 0.5,67.2 0.5,300.5 0.5,367.2 500.5,367.2 500.5,300.5 500.5,67.2 500.5,0.5 "></polygon></g><image width="760" height="556" xlink:href="https://lct-designs.s3.us-west-1.amazonaws.com/assets/libs/diamond-black-5-baseball-banner-1640685274365.png" class="asset background locked" transform="matrix(0.6595323960558116,0,0,0.6595323960558116,0,0)"></image><image width="760" height="339" xlink:href="https://lct-designs.s3.us-west-1.amazonaws.com/assets/libs/diamond-black-5-baseball-banner-1640685334497.png" class="asset" transform="matrix(0.6284282207489014,0,0,0.6284282207489014,10.365185737609867,83.30727386474608)"></image><image width="760" height="564" xlink:href="https://lct-designs.s3.us-west-1.amazonaws.com/assets/libs/diamond-black-5-baseball-banner-1640685357849.png" class="asset" transform="matrix(0.2976069748401642,0,0,0.29760697484016413,138.16253662109372,89.11754608154297)"></image><image width="760" height="716" xlink:href="https://lct-designs.s3.us-west-1.amazonaws.com/assets/libs/astros2-baseball-banner-1642047076886.png" class="asset" transform="matrix(0.05097097158432007,0,0,0.05097097158432007,80.44760131835939,82.65120697021486)"></image><text fill="#ffffff" font-family="Roboto Condensed" font-size="45" stroke-opacity="1" stroke-width="1" stroke="#003952" x="46.406684278810076" y="199.751219958053" transform="matrix(0.3370499610900879,0,0,0.3370499610900879,59.022068023681655,62.075073242187486)" svgjs:data="{&quot;leading&quot;:&quot;1.3&quot;}"><tspan dy="0" x="46.406684278810076" svgjs:data="{&quot;newLined&quot;:true}">PLAYER</tspan></text><image width="760" height="716" xlink:href="https://lct-designs.s3.us-west-1.amazonaws.com/assets/libs/astros2-baseball-banner-1642047076886.png" class="asset" transform="matrix(0.050971001386642456,0,0,0.050971001386642456,178.7868194580078,81.47332763671874)"></image><image width="760" height="716" xlink:href="https://lct-designs.s3.us-west-1.amazonaws.com/assets/libs/astros2-baseball-banner-1642047076886.png" class="asset" transform="matrix(0.050971001386642456,0,0,0.050971001386642456,128.7161407470703,141.54522705078125)"></image><text fill="#ffffff" font-family="Roboto Condensed" font-size="45" stroke-opacity="1" stroke-width="1" stroke="#003952" x="46.406684278810076" y="199.751219958053" transform="matrix(0.3370499610900879,0,0,0.3370499610900879,107.29061889648438,120.96909332275389)" svgjs:data="{&quot;leading&quot;:&quot;1.3&quot;}"><tspan dy="0" x="46.406684278810076" svgjs:data="{&quot;newLined&quot;:true}">PLAYER</tspan></text><text fill="#ffffff" font-family="Roboto Condensed" font-size="45" stroke-opacity="1" stroke-width="1" stroke="#003952" x="46.406684278810076" y="199.751219958053" transform="matrix(0.3370499610900879,0,0,0.3370499610900879,157.36129760742188,60.89719390869139)" svgjs:data="{&quot;leading&quot;:&quot;1.3&quot;}"><tspan dy="0" x="46.406684278810076" svgjs:data="{&quot;newLined&quot;:true}">PLAYER</tspan></text><text fill="#ffffff" font-family="Roboto Condensed" font-size="45" stroke-opacity="1" stroke-width="1" stroke="#003952" x="46.406684278810076" y="199.751219958053" transform="matrix(0.4348811209201813,0,0,0.43488112092018133,137.53269958496097,194.59672546386713)" svgjs:data="{&quot;leading&quot;:&quot;1.3&quot;}"><tspan dy="0" x="46.406684278810076" svgjs:data="{&quot;newLined&quot;:true}">COACH: COACH NAME</tspan></text><image width="760" height="716" xlink:href="https://lct-designs.s3.us-west-1.amazonaws.com/assets/libs/astros2-baseball-banner-1642047076886.png" class="asset" transform="matrix(0.050970979034900665,0,0,0.050970979034900665,321.89636230468756,82.0622711777687)"></image><text fill="#ffffff" font-family="Roboto Condensed" font-size="45" stroke-opacity="1" stroke-width="1" stroke="#003952" x="46.406684278810076" y="199.751219958053" transform="matrix(0.3370499610900879,0,0,0.3370499610900879,300.47083282470703,61.48613744974135)" svgjs:data="{&quot;leading&quot;:&quot;1.3&quot;}"><tspan dy="0" x="46.406684278810076" svgjs:data="{&quot;newLined&quot;:true}">PLAYER</tspan></text><image width="760" height="716" xlink:href="https://lct-designs.s3.us-west-1.amazonaws.com/assets/libs/astros2-baseball-banner-1642047076886.png" class="asset" transform="matrix(0.050971001386642456,0,0,0.050971001386642456,370.16490173339844,140.9562912583351)"></image><text fill="#ffffff" font-family="Roboto Condensed" font-size="45" stroke-opacity="1" stroke-width="1" stroke="#003952" x="46.406684278810076" y="199.751219958053" transform="matrix(0.3370499610900879,0,0,0.3370499610900879,398.81005859375006,60.30825805664061)" svgjs:data="{&quot;leading&quot;:&quot;1.3&quot;}"><tspan dy="0" x="46.406684278810076" svgjs:data="{&quot;newLined&quot;:true}">PLAYER</tspan></text><image width="760" height="716" xlink:href="https://lct-designs.s3.us-west-1.amazonaws.com/assets/libs/astros2-baseball-banner-1642047076886.png" class="asset" transform="matrix(0.050971001386642456,0,0,0.050971001386642456,420.235595703125,80.88439178466798)"></image><text fill="#ffffff" font-family="Roboto Condensed" font-size="45" stroke-opacity="1" stroke-width="1" stroke="#003952" x="46.406684278810076" y="199.751219958053" transform="matrix(0.3370499610900879,0,0,0.3370499610900879,348.7393798828125,120.38015753030778)" svgjs:data="{&quot;leading&quot;:&quot;1.3&quot;}"><tspan dy="0" x="46.406684278810076" svgjs:data="{&quot;newLined&quot;:true}">PLAYER</tspan></text><image width="760" height="716" xlink:href="https://lct-designs.s3.us-west-1.amazonaws.com/assets/libs/astros2-baseball-banner-1642047076886.png" class="asset" transform="matrix(0.050971001386642456,0,0,0.050971001386642456,440.2473754882813,185.1267852783203)"></image><text fill="#ffffff" font-family="Roboto Condensed" font-size="45" stroke-opacity="1" stroke-width="1" stroke="#003952" x="46.406684278810076" y="199.751219958053" transform="matrix(0.3370499610900879,0,0,0.3370499610900879,418.8218383789063,164.55065155029297)" svgjs:data="{&quot;leading&quot;:&quot;1.3&quot;}"><tspan dy="0" x="46.406684278810076" svgjs:data="{&quot;newLined&quot;:true}">PLAYER</tspan></text><image width="760" height="716" xlink:href="https://lct-designs.s3.us-west-1.amazonaws.com/assets/libs/astros2-baseball-banner-1642047076886.png" class="asset" transform="matrix(0.050971001386642456,0,0,0.050971001386642456,373.6867065429688,232.24200439453125)"></image><text fill="#ffffff" font-family="Roboto Condensed" font-size="45" stroke-opacity="1" stroke-width="1" stroke="#003952" x="46.406684278810076" y="199.751219958053" transform="matrix(0.3370499610900879,0,0,0.3370499610900879,352.26116943359375,211.66587829589844)" svgjs:data="{&quot;leading&quot;:&quot;1.3&quot;}"><tspan dy="0" x="46.406684278810076" svgjs:data="{&quot;newLined&quot;:true}">PLAYER</tspan></text><image width="760" height="716" xlink:href="https://lct-designs.s3.us-west-1.amazonaws.com/assets/libs/astros2-baseball-banner-1642047076886.png" class="asset" transform="matrix(0.050971001386642456,0,0,0.050971001386642456,84.51119995117189,229.29730224609375)"></image><text fill="#ffffff" font-family="Roboto Condensed" font-size="45" stroke-opacity="1" stroke-width="1" stroke="#003952" x="46.406684278810076" y="199.751219958053" transform="matrix(0.3370499610900879,0,0,0.3370499610900879,63.085662841796875,208.72117614746094)" svgjs:data="{&quot;leading&quot;:&quot;1.3&quot;}"><tspan dy="0" x="46.406684278810076" svgjs:data="{&quot;newLined&quot;:true}">PLAYER</tspan></text><image width="760" height="716" xlink:href="https://lct-designs.s3.us-west-1.amazonaws.com/assets/libs/astros2-baseball-banner-1642047076886.png" class="asset" transform="matrix(0.050971001386642456,0,0,0.050971001386642456,23.25088500976562,177.47056579589838)"></image><text fill="#ffffff" font-family="Roboto Condensed" font-size="45" stroke-opacity="1" stroke-width="1" stroke="#003952" x="46.406684278810076" y="199.751219958053" transform="matrix(0.3370499610900879,0,0,0.3370499610900879,1.825347900390625,156.89443969726562)" svgjs:data="{&quot;leading&quot;:&quot;1.3&quot;}"><tspan dy="0" x="46.406684278810076" svgjs:data="{&quot;newLined&quot;:true}">PLAYER</tspan></text><g class="mask" style="pointer-events: none;"><g><path fill="#BCBEC0" d="M-3642.4-2101.7v4589.1h7813.4v-4589.1H-3642.4z M500.5,67.2v233.3v66.7H0.5v-66.7V67.2V0.5h500V67.2z" transform="matrix(1,0,0,1,0,0)"></path><g transform="matrix(1,0,0,1,0,0)">
	<rect x="0.5" y="300.5" opacity="0.95" fill="#F1F2F2" width="500" height="66.7"></rect>
	<rect x="0.5" y="0.5" opacity="0.95" fill="#F1F2F2" width="500" height="66.7"></rect>
</g></g></g></svg>