<svg xmlns="http://www.w3.org/2000/svg" version="1.1" xmlns:xlink="http://www.w3.org/1999/xlink" xmlns:svgjs="http://svgjs.dev/svgjs" width="100%" height="100%" viewBox="1 1 499 365.70001220703125" preserveAspectRatio="none" data-info="{&quot;_id&quot;:4,&quot;name&quot;:&quot;POLE POCKET SOCCER BANNERS&quot;,&quot;information&quot;:&quot;- Size: 3’x5’\n- Material: heavy duty vinyl banner\n- Digitally printed on vinyl&quot;,&quot;price&quot;:&quot;95.00&quot;,&quot;sale_price&quot;:&quot;89.99&quot;,&quot;type&quot;:&quot;pole-pocket&quot;,&quot;cover&quot;:{&quot;key&quot;:&quot;assets/models/pole-1628062864266-1631924568908.png&quot;,&quot;url&quot;:&quot;https://lct-designs.s3.us-west-1.amazonaws.com/assets/models/pole-1628062864266-1631924568908.png&quot;},&quot;back&quot;:{&quot;key&quot;:&quot;assets/models/pole-1631924700152.svg&quot;,&quot;url&quot;:&quot;https://lct-designs.s3.us-west-1.amazonaws.com/assets/models/pole-1631924700152.svg&quot;},&quot;mask&quot;:{&quot;key&quot;:&quot;assets/models/pole-mask-1631925211715.svg&quot;,&quot;url&quot;:&quot;https://lct-designs.s3.us-west-1.amazonaws.com/assets/models/pole-mask-1631925211715.svg&quot;},&quot;pos&quot;:&quot;2&quot;,&quot;accessories&quot;:&quot;2,3&quot;}" style="background-color: white;"><g class="model" style="pointer-events: none;"><polygon fill="#FFFFFF" points="0.5,0.5 0.5,67.2 0.5,300.5 0.5,367.2 500.5,367.2 500.5,300.5 500.5,67.2 500.5,0.5 "></polygon></g><image width="760" height="556" xlink:href="https://lct-designs.s3.us-west-1.amazonaws.com/assets/libs/diamond-black-1-baseball-banner-1640685274365.png" class="asset background locked" transform="matrix(0.6595323960558116,0,0,0.6595323960558116,0,0)"></image><image width="760" height="644" xlink:href="https://lct-designs.s3.us-west-1.amazonaws.com/assets/libs/diamond-black-1-baseball-banner-1640685378718.png" class="asset" transform="matrix(0.037443321198225014,0,0,0.03744332119822502,350.4448852539062,85.62123107910155)"></image><text fill="#ffffff" font-family="Impact" font-size="45" x="69.65122430854171" y="201.81249294900357" transform="matrix(0.29432073235511774,0,0,0.29432073235511774,326.02761840820307,64.90128326416014)" svgjs:data="{&quot;leading&quot;:&quot;1.3&quot;}"><tspan dy="0" x="69.65122430854171" svgjs:data="{&quot;newLined&quot;:true}">PLAYER</tspan></text><image width="760" height="644" xlink:href="https://lct-designs.s3.us-west-1.amazonaws.com/assets/libs/diamond-black-1-baseball-banner-1640685378718.png" class="asset" transform="matrix(0.037443317472934716,0,0,0.037443317472934716,451.72875976562494,83.8544158935547)"></image><text fill="#ffffff" font-family="Impact" font-size="45" x="69.65122430854171" y="201.81249294900357" transform="matrix(0.29432073235511774,0,0,0.29432073235511774,427.3114929199218,63.13446807861327)" svgjs:data="{&quot;leading&quot;:&quot;1.3&quot;}"><tspan dy="0" x="69.65122430854171" svgjs:data="{&quot;newLined&quot;:true}">PLAYER</tspan></text><image width="760" height="394" xlink:href="https://lct-designs.s3.us-west-1.amazonaws.com/assets/libs/diamond-black-1-2-baseball-banner-1640685357849.png" class="asset" transform="matrix(0.2302313894033432,0,0,0.23023138940334315,161.7196807861328,137.4049835205078)"></image><image width="760" height="651" xlink:href="https://lct-designs.s3.us-west-1.amazonaws.com/assets/libs/diamond-black-1-baseball-banner-1640685357849.png" class="asset" transform="matrix(0.09539271891117096,0,0,0.09539271891117097,211.59246826171875,233.57359313964844)"></image><image width="760" height="690" xlink:href="https://lct-designs.s3.us-west-1.amazonaws.com/assets/libs/diamond-black-1-baseball-banner-2-1640685334497.png" class="asset" transform="matrix(0.06158997863531112,0,0,0.06158997863531112,231.1534423828125,94.96263885498045)"></image><image width="562" height="760" xlink:href="https://lct-designs.s3.us-west-1.amazonaws.com/assets/libs/diamond-black-1-baseball-banner-1640685334497.png" class="asset" transform="matrix(0.17342422902584073,0,0,0.17342422902584073,351.42443847656244,127.46059417724605)"></image><text fill="#ffffff" font-family="Impact" font-size="45" x="69.65122430854171" y="201.81249294900357" transform="matrix(0.3657006919384002,0,0,0.3657006919384002,161.96534729003903,16.793764114379883)" svgjs:data="{&quot;leading&quot;:&quot;1.3&quot;}"><tspan dy="0" x="69.65122430854171" svgjs:data="{&quot;newLined&quot;:true}">Coach: Coach name</tspan></text><image width="760" height="644" xlink:href="https://lct-designs.s3.us-west-1.amazonaws.com/assets/libs/diamond-black-1-baseball-banner-1640685378718.png" class="asset" transform="matrix(0.037443317472934716,0,0,0.037443317472934716,347.4884643554687,244.63505554199213)"></image><text fill="#ffffff" font-family="Impact" font-size="45" x="69.65122430854171" y="201.81249294900357" transform="matrix(0.29432073235511774,0,0,0.29432073235511774,323.0711975097655,223.91510772705067)" svgjs:data="{&quot;leading&quot;:&quot;1.3&quot;}"><tspan dy="0" x="69.65122430854171" svgjs:data="{&quot;newLined&quot;:true}">PLAYER</tspan></text><image width="760" height="644" xlink:href="https://lct-designs.s3.us-west-1.amazonaws.com/assets/libs/diamond-black-1-baseball-banner-1640685378718.png" class="asset" transform="matrix(0.037443317472934716,0,0,0.037443317472934716,448.77233886718744,242.86824035644526)"></image><text fill="#ffffff" font-family="Impact" font-size="45" x="69.65122430854171" y="201.81249294900357" transform="matrix(0.29432073235511774,0,0,0.29432073235511774,424.35507202148426,222.14830017089844)" svgjs:data="{&quot;leading&quot;:&quot;1.3&quot;}"><tspan dy="0" x="69.65122430854171" svgjs:data="{&quot;newLined&quot;:true}">PLAYER</tspan></text><image width="760" height="644" xlink:href="https://lct-designs.s3.us-west-1.amazonaws.com/assets/libs/diamond-black-1-baseball-banner-1640685378718.png" class="asset" transform="matrix(0.037443317472934716,0,0,0.037443317472934716,18.25408935546875,82.08760070800777)"></image><text fill="#ffffff" font-family="Impact" font-size="45" x="69.65122430854171" y="201.81249294900357" transform="matrix(0.29432073235511774,0,0,0.29432073235511774,-6.163177490234375,61.36766052246092)" svgjs:data="{&quot;leading&quot;:&quot;1.3&quot;}"><tspan dy="0" x="69.65122430854171" svgjs:data="{&quot;newLined&quot;:true}">PLAYER</tspan></text><image width="760" height="644" xlink:href="https://lct-designs.s3.us-west-1.amazonaws.com/assets/libs/diamond-black-1-baseball-banner-1640685378718.png" class="asset" transform="matrix(0.037443317472934716,0,0,0.037443317472934716,100.69225311279297,80.9097213745117)"></image><text fill="#ffffff" font-family="Impact" font-size="45" x="69.65122430854171" y="201.81249294900357" transform="matrix(0.29432073235511774,0,0,0.29432073235511774,76.27498626708984,60.18978118896483)" svgjs:data="{&quot;leading&quot;:&quot;1.3&quot;}"><tspan dy="0" x="69.65122430854171" svgjs:data="{&quot;newLined&quot;:true}">PLAYER</tspan></text><image width="760" height="644" xlink:href="https://lct-designs.s3.us-west-1.amazonaws.com/assets/libs/diamond-black-1-baseball-banner-1640685378718.png" class="asset" transform="matrix(0.037443317472934716,0,0,0.037443317472934716,18.24231719970703,135.68115234375)"></image><text fill="#ffffff" font-family="Impact" font-size="45" x="69.65122430854171" y="201.81249294900357" transform="matrix(0.29432073235511774,0,0,0.29432073235511774,-6.174949645996094,114.96120452880855)" svgjs:data="{&quot;leading&quot;:&quot;1.3&quot;}"><tspan dy="0" x="69.65122430854171" svgjs:data="{&quot;newLined&quot;:true}">PLAYER</tspan></text><image width="760" height="644" xlink:href="https://lct-designs.s3.us-west-1.amazonaws.com/assets/libs/diamond-black-1-baseball-banner-1640685378718.png" class="asset" transform="matrix(0.037443317472934716,0,0,0.037443317472934716,100.68048095703122,134.50326538085938)"></image><text fill="#ffffff" font-family="Impact" font-size="45" x="69.65122430854171" y="201.81249294900357" transform="matrix(0.29432073235511774,0,0,0.29432073235511774,76.26321411132812,113.78332519531249)" svgjs:data="{&quot;leading&quot;:&quot;1.3&quot;}"><tspan dy="0" x="69.65122430854171" svgjs:data="{&quot;newLined&quot;:true}">PLAYER</tspan></text><image width="760" height="644" xlink:href="https://lct-designs.s3.us-west-1.amazonaws.com/assets/libs/diamond-black-1-baseball-banner-1640685378718.png" class="asset" transform="matrix(0.037443317472934716,0,0,0.037443317472934716,16.475532531738274,189.8636398315429)"></image><text fill="#ffffff" font-family="Impact" font-size="45" x="69.65122430854171" y="201.81249294900357" transform="matrix(0.29432073235511774,0,0,0.29432073235511774,-7.941734313964847,169.1436996459961)" svgjs:data="{&quot;leading&quot;:&quot;1.3&quot;}"><tspan dy="0" x="69.65122430854171" svgjs:data="{&quot;newLined&quot;:true}">PLAYER</tspan></text><image width="760" height="644" xlink:href="https://lct-designs.s3.us-west-1.amazonaws.com/assets/libs/diamond-black-1-baseball-banner-1640685378718.png" class="asset" transform="matrix(0.037443317472934716,0,0,0.037443317472934716,98.9136962890625,188.68576049804682)"></image><text fill="#ffffff" font-family="Impact" font-size="45" x="69.65122430854171" y="201.81249294900357" transform="matrix(0.29432073235511774,0,0,0.29432073235511774,74.49642944335936,167.96582031249994)" svgjs:data="{&quot;leading&quot;:&quot;1.3&quot;}"><tspan dy="0" x="69.65122430854171" svgjs:data="{&quot;newLined&quot;:true}">PLAYER</tspan></text><image width="760" height="644" xlink:href="https://lct-designs.s3.us-west-1.amazonaws.com/assets/libs/diamond-black-1-baseball-banner-1640685378718.png" class="asset" transform="matrix(0.037443317472934716,0,0,0.037443317472934716,16.463760375976555,243.45719146728504)"></image><text fill="#ffffff" font-family="Impact" font-size="45" x="69.65122430854171" y="201.81249294900357" transform="matrix(0.29432073235511774,0,0,0.29432073235511774,-7.953506469726566,222.73724365234375)" svgjs:data="{&quot;leading&quot;:&quot;1.3&quot;}"><tspan dy="0" x="69.65122430854171" svgjs:data="{&quot;newLined&quot;:true}">PLAYER</tspan></text><image width="760" height="644" xlink:href="https://lct-designs.s3.us-west-1.amazonaws.com/assets/libs/diamond-black-1-baseball-banner-1640685378718.png" class="asset" transform="matrix(0.037443317472934716,0,0,0.037443317472934716,98.90192413330078,242.27930450439442)"></image><text fill="#ffffff" font-family="Impact" font-size="45" x="69.65122430854171" y="201.81249294900357" transform="matrix(0.29432073235511774,0,0,0.29432073235511774,74.48465728759766,221.55936431884766)" svgjs:data="{&quot;leading&quot;:&quot;1.3&quot;}"><tspan dy="0" x="69.65122430854171" svgjs:data="{&quot;newLined&quot;:true}">PLAYER</tspan></text><g class="mask" style="pointer-events: none;"><g><path fill="#BCBEC0" d="M-3642.4-2101.7v4589.1h7813.4v-4589.1H-3642.4z M500.5,67.2v233.3v66.7H0.5v-66.7V67.2V0.5h500V67.2z" transform="matrix(1,0,0,1,0,0)"></path><g transform="matrix(1,0,0,1,0,0)">
	<rect x="0.5" y="300.5" opacity="0.95" fill="#F1F2F2" width="500" height="66.7"></rect>
	<rect x="0.5" y="0.5" opacity="0.95" fill="#F1F2F2" width="500" height="66.7"></rect>
</g></g></g></svg>