<svg xmlns="http://www.w3.org/2000/svg" version="1.1" xmlns:xlink="http://www.w3.org/1999/xlink" xmlns:svgjs="http://svgjs.dev/svgjs" width="100%" height="100%" viewBox="1 1 499 299" preserveAspectRatio="none" data-info="{&quot;_id&quot;:1,&quot;name&quot;:&quot;HEM &amp; GROMMETS&quot;,&quot;price&quot;:&quot;95.00&quot;,&quot;sale_price&quot;:&quot;89.99&quot;,&quot;cover&quot;:{&quot;key&quot;:&quot;assets/models/hem-1628062436886-1630830942566.png&quot;,&quot;url&quot;:&quot;https://lct-designs.s3.us-west-1.amazonaws.com/assets/models/hem-1628062436886-1630830942566.png&quot;},&quot;back&quot;:{&quot;key&quot;:&quot;assets/models/hem-1630831057346.svg&quot;,&quot;url&quot;:&quot;https://lct-designs.s3.us-west-1.amazonaws.com/assets/models/hem-1630831057346.svg&quot;},&quot;mask&quot;:{&quot;key&quot;:&quot;assets/models/hem.mask-1630831063496.svg&quot;,&quot;url&quot;:&quot;https://lct-designs.s3.us-west-1.amazonaws.com/assets/models/hem.mask-1630831063496.svg&quot;},&quot;information&quot;:&quot;Size 3'x5'&quot;,&quot;type&quot;:&quot;hem-grommet&quot;,&quot;pos&quot;:&quot;1&quot;,&quot;accessories&quot;:&quot;2,3&quot;,&quot;width&quot;:&quot;60&quot;,&quot;height&quot;:&quot;36&quot;}" style="background-color: white;"><g class="model" style="pointer-events: none;"><rect x="0.5" y="0.5" fill="none" stroke="#000000" stroke-miterlimit="10" width="500" height="300"></rect></g><image width="760" height="455" xlink:href="https://lct-designs.s3.us-west-1.amazonaws.com/assets/libs/gatorgirls1-softball-banner-1640682204486.png" class="asset background locked" transform="matrix(0.6593406593406593,0,0,0.6593406593406593,0,0)"></image><image width="760" height="564" xlink:href="https://lct-designs.s3.us-west-1.amazonaws.com/assets/libs/gatorgirls-2-softball-banner-1640682384614.png" class="asset" transform="matrix(0.3614554703235627,0,0,0.3614554703235626,32.299171447753906,18.80084419250487)"></image><image width="618" height="760" xlink:href="https://lct-designs.s3.us-west-1.amazonaws.com/assets/libs/gatorgirls-1-softball-banner-01-1640682138449.png" class="asset" transform="matrix(0.17260773479938507,0,0,0.1726077347993851,372.9088134765625,154.15869140625)"></image><text fill="#ffffff" font-family="Skaters" font-size="45" x="-21.26929462843148" y="164.17628322166382" transform="matrix(0.2748088836669922,0,0,0.2748088836669922,19.039581298828125,-18.900075912475586)" svgjs:data="{&quot;leading&quot;:&quot;1.3&quot;}"><tspan dy="0" x="-21.26929462843148" svgjs:data="{&quot;newLined&quot;:true}">Team mom: Team mom name</tspan></text><text fill="#ffffff" font-family="Skaters" font-size="45" x="-21.26929462843148" y="164.17628322166382" transform="matrix(0.2748089134693146,0,0,0.2748089134693146,20.286849975585945,-0.8471795320511006)" svgjs:data="{&quot;leading&quot;:&quot;1.3&quot;}"><tspan dy="0" x="-21.26929462843148" svgjs:data="{&quot;newLined&quot;:true}">Coach: Coach name</tspan></text><image width="760" height="304" xlink:href="https://lct-designs.s3.us-west-1.amazonaws.com/assets/libs/bird2-soflball-banner-1639966281995.png" class="asset" transform="matrix(0.07579536736011505,0,0,0.07579536736011507,65.57987213134766,200.5704193115235)"></image><text fill="#ffffff" font-family="Skaters" font-size="45" x="-21.26929462843148" y="164.17628322166382" transform="matrix(0.3692606985569,0,0,0.3692606985569001,74.57148742675781,136.77021789550784)" svgjs:data="{&quot;leading&quot;:&quot;1.3&quot;}"><tspan dy="0" x="-21.26929462843148" svgjs:data="{&quot;newLined&quot;:true}">PLAYER</tspan></text><text fill="#ffffff" font-family="Skaters" font-size="45" x="-21.26929462843148" y="164.17628322166382" transform="matrix(0.3692606985569,0,0,0.3692606985569001,32.60212707519532,191.47598266601568)" svgjs:data="{&quot;leading&quot;:&quot;1.3&quot;}"><tspan dy="0" x="-21.26929462843148" svgjs:data="{&quot;newLined&quot;:true}">PLAYER</tspan></text><image width="760" height="304" xlink:href="https://lct-designs.s3.us-west-1.amazonaws.com/assets/libs/bird2-soflball-banner-1639966281995.png" class="asset" transform="matrix(0.07579539716243744,0,0,0.07579539716243744,23.610511779785163,255.2761840820313)"></image><text fill="#ffffff" font-family="Skaters" font-size="45" x="-21.26929462843148" y="164.17628322166382" transform="matrix(0.3692606985569,0,0,0.3692606985569001,125.75309753417972,192.02304077148443)" svgjs:data="{&quot;leading&quot;:&quot;1.3&quot;}"><tspan dy="0" x="-21.26929462843148" svgjs:data="{&quot;newLined&quot;:true}">PLAYER</tspan></text><image width="760" height="304" xlink:href="https://lct-designs.s3.us-west-1.amazonaws.com/assets/libs/bird2-soflball-banner-1639966281995.png" class="asset" transform="matrix(0.07579541951417923,0,0,0.07579541951417924,116.76148223876956,255.82324218750006)"></image><text fill="#ffffff" font-family="Skaters" font-size="45" x="-21.26929462843148" y="164.17628322166382" transform="matrix(0.3692606985569,0,0,0.3692606985569001,218.7509307861328,192.02304089069366)" svgjs:data="{&quot;leading&quot;:&quot;1.3&quot;}"><tspan dy="0" x="-21.26929462843148" svgjs:data="{&quot;newLined&quot;:true}">PLAYER</tspan></text><image width="760" height="304" xlink:href="https://lct-designs.s3.us-west-1.amazonaws.com/assets/libs/bird2-soflball-banner-1639966281995.png" class="asset" transform="matrix(0.07579541951417923,0,0,0.07579541951417924,209.75931549072266,255.8232423067093)"></image><text fill="#ffffff" font-family="Skaters" font-size="45" x="-21.26929462843148" y="164.17628322166382" transform="matrix(0.3692606985569,0,0,0.3692606985569001,311.90191650390625,192.57009887695318)" svgjs:data="{&quot;leading&quot;:&quot;1.3&quot;}"><tspan dy="0" x="-21.26929462843148" svgjs:data="{&quot;newLined&quot;:true}">PLAYER</tspan></text><image width="760" height="304" xlink:href="https://lct-designs.s3.us-west-1.amazonaws.com/assets/libs/bird2-soflball-banner-1639966281995.png" class="asset" transform="matrix(0.07579545676708221,0,0,0.07579545676708223,302.9102783203125,256.3703002929688)"></image><text fill="#ffffff" font-family="Skaters" font-size="45" x="-21.26929462843148" y="164.17628322166382" transform="matrix(0.3692606985569,0,0,0.3692606985569001,334.4839782714844,129.65850830078128)" svgjs:data="{&quot;leading&quot;:&quot;1.3&quot;}"><tspan dy="0" x="-21.26929462843148" svgjs:data="{&quot;newLined&quot;:true}">PLAYER</tspan></text><image width="760" height="304" xlink:href="https://lct-designs.s3.us-west-1.amazonaws.com/assets/libs/bird2-soflball-banner-1639966281995.png" class="asset" transform="matrix(0.07579550892114639,0,0,0.0757955089211464,325.4923400878906,193.45870971679682)"></image><text fill="#ffffff" font-family="Skaters" font-size="45" x="-21.26929462843148" y="164.17628322166382" transform="matrix(0.3692606985569,0,0,0.3692606985569001,322.6021116971969,57.44691467285156)" svgjs:data="{&quot;leading&quot;:&quot;1.3&quot;}"><tspan dy="0" x="-21.26929462843148" svgjs:data="{&quot;newLined&quot;:true}">PLAYER</tspan></text><image width="760" height="304" xlink:href="https://lct-designs.s3.us-west-1.amazonaws.com/assets/libs/bird2-soflball-banner-1639966281995.png" class="asset" transform="matrix(0.07579555362462997,0,0,0.07579555362462999,323.6104735136032,121.24711608886719)"></image><text fill="#ffffff" font-family="Skaters" font-size="45" x="-21.26929462843148" y="164.17628322166382" transform="matrix(0.3692606985569,0,0,0.3692606985569001,419.5823973417282,56.89985656738281)" svgjs:data="{&quot;leading&quot;:&quot;1.3&quot;}"><tspan dy="0" x="-21.26929462843148" svgjs:data="{&quot;newLined&quot;:true}">PLAYER</tspan></text><image width="760" height="304" xlink:href="https://lct-designs.s3.us-west-1.amazonaws.com/assets/libs/bird2-soflball-banner-1639966281995.png" class="asset" transform="matrix(0.07579556852579117,0,0,0.07579556852579117,420.59075915813446,120.70005798339847)"></image><text fill="#ffffff" font-family="Skaters" font-size="45" x="-21.26929462843148" y="164.17628322166382" transform="matrix(0.3692606985569,0,0,0.3692606985569001,316.19073486328125,-19.141128540039062)" svgjs:data="{&quot;leading&quot;:&quot;1.3&quot;}"><tspan dy="0" x="-21.26929462843148" svgjs:data="{&quot;newLined&quot;:true}">PLAYER</tspan></text><image width="760" height="304" xlink:href="https://lct-designs.s3.us-west-1.amazonaws.com/assets/libs/bird2-soflball-banner-1639966281995.png" class="asset" transform="matrix(0.07579559832811356,0,0,0.07579559832811357,317.19909667968744,44.65907287597656)"></image><text fill="#ffffff" font-family="Skaters" font-size="45" x="-21.26929462843148" y="164.17628322166382" transform="matrix(0.3692606985569,0,0,0.3692606985569001,413.1710205078125,-19.688186645507827)" svgjs:data="{&quot;leading&quot;:&quot;1.3&quot;}"><tspan dy="0" x="-21.26929462843148" svgjs:data="{&quot;newLined&quot;:true}">PLAYER</tspan></text><image width="760" height="304" xlink:href="https://lct-designs.s3.us-west-1.amazonaws.com/assets/libs/bird2-soflball-banner-1639966281995.png" class="asset" transform="matrix(0.07579562067985535,0,0,0.07579562067985535,414.17938232421875,44.11201477050781)"></image><text fill="#ffffff" font-family="Skaters" font-size="45" x="-21.26929462843148" y="164.17628322166382" transform="matrix(0.3692606985569,0,0,0.3692606985569001,21.486175537109368,12.588207244873033)" svgjs:data="{&quot;leading&quot;:&quot;1.3&quot;}"><tspan dy="0" x="-21.26929462843148" svgjs:data="{&quot;newLined&quot;:true}">PLAYER</tspan></text><image width="760" height="304" xlink:href="https://lct-designs.s3.us-west-1.amazonaws.com/assets/libs/bird2-soflball-banner-1639966281995.png" class="asset" transform="matrix(0.07579559832811356,0,0,0.07579559832811357,22.494537353515625,76.38840866088867)"></image><text fill="#ffffff" font-family="Skaters" font-size="45" x="-21.26929462843148" y="164.17628322166382" transform="matrix(0.3692606985569,0,0,0.3692606985569001,118.46646118164065,12.041149139404283)" svgjs:data="{&quot;leading&quot;:&quot;1.3&quot;}"><tspan dy="0" x="-21.26929462843148" svgjs:data="{&quot;newLined&quot;:true}">PLAYER</tspan></text><image width="760" height="304" xlink:href="https://lct-designs.s3.us-west-1.amazonaws.com/assets/libs/bird2-soflball-banner-1639966281995.png" class="asset" transform="matrix(0.07579562067985535,0,0,0.07579562067985535,119.47482299804688,75.84135055541992)"></image><g class="mask" style="pointer-events: none;"><path fill="#777777" enable-background="new    " d="M-1684.9-1014.6v2330.1h3870.8v-2330.1H-1684.9z M500.5,300.5H0.5V0.5h500
	V300.5z"></path></g></svg>