<svg xmlns="http://www.w3.org/2000/svg" version="1.1" xmlns:xlink="http://www.w3.org/1999/xlink" xmlns:svgjs="http://svgjs.dev/svgjs" width="100%" height="100%" viewBox="1 1 499 365.70001220703125" preserveAspectRatio="none" data-info="{&quot;_id&quot;:4,&quot;name&quot;:&quot;POLE POCKET SOCCER BANNERS&quot;,&quot;information&quot;:&quot;- Size: 3’x5’\n- Material: heavy duty vinyl banner\n- Digitally printed on vinyl&quot;,&quot;price&quot;:&quot;95.00&quot;,&quot;sale_price&quot;:&quot;89.99&quot;,&quot;type&quot;:&quot;pole-pocket&quot;,&quot;cover&quot;:{&quot;key&quot;:&quot;assets/models/pole-1628062864266-1631924568908.png&quot;,&quot;url&quot;:&quot;https://lct-designs.s3.us-west-1.amazonaws.com/assets/models/pole-1628062864266-1631924568908.png&quot;},&quot;back&quot;:{&quot;key&quot;:&quot;assets/models/pole-1631924700152.svg&quot;,&quot;url&quot;:&quot;https://lct-designs.s3.us-west-1.amazonaws.com/assets/models/pole-1631924700152.svg&quot;},&quot;mask&quot;:{&quot;key&quot;:&quot;assets/models/pole-mask-1631925211715.svg&quot;,&quot;url&quot;:&quot;https://lct-designs.s3.us-west-1.amazonaws.com/assets/models/pole-mask-1631925211715.svg&quot;},&quot;pos&quot;:&quot;2&quot;,&quot;accessories&quot;:&quot;2,3&quot;}" style="background-color: white;"><g class="model" style="pointer-events: none;"><polygon fill="#FFFFFF" points="0.5,0.5 0.5,67.2 0.5,300.5 0.5,367.2 500.5,367.2 500.5,300.5 500.5,67.2 500.5,0.5 "></polygon></g><image width="760" height="556" xlink:href="https://lct-designs.s3.us-west-1.amazonaws.com/assets/libs/cool-crush-1-softball-banner-1640682447702.png" class="asset background locked" transform="matrix(0.6595323960558116,0,0,0.6595323960558116,0,0)"></image><image width="760" height="387" xlink:href="https://lct-designs.s3.us-west-1.amazonaws.com/assets/libs/cool-crush-1-softball-banner-1640682384609.png" class="asset" transform="matrix(0.3200361132621765,0,0,0.3200361132621765,25.065244674682617,105.86607360839847)"></image><image width="658" height="760" xlink:href="https://lct-designs.s3.us-west-1.amazonaws.com/assets/libs/cool-crush-1-softball-banner-1640682138444.png" class="asset" transform="matrix(0.10741978138685226,0,0,0.10741978138685226,109.80786895751953,210.87507629394537)"></image><image width="760" height="699" xlink:href="https://lct-designs.s3.us-west-1.amazonaws.com/assets/libs/cool-crush-1-sofball-banner-1640682005962.png" class="asset" transform="matrix(0.04548012092709541,0,0,0.04548012092709542,211.63949584960938,244.98023223876962)"></image><text fill="#000000" font-family="Cooper" font-size="11" x="221.9223200542154" y="188.9502560914191" transform="matrix(1,0,0,1.0000000000000002,-16.411300659179688,97.41639709472659)" svgjs:data="{&quot;leading&quot;:&quot;1.3&quot;}"><tspan dy="0" x="221.9223200542154" svgjs:data="{&quot;newLined&quot;:true}">PLAYER</tspan></text><image width="760" height="699" xlink:href="https://lct-designs.s3.us-west-1.amazonaws.com/assets/libs/cool-crush-1-sofball-banner-1640682005962.png" class="asset" transform="matrix(0.04548012092709541,0,0,0.04548012092709542,286.9212951660156,196.01701354980472)"></image><text fill="#000000" font-family="Cooper" font-size="11" x="221.9223200542154" y="188.9502560914191" transform="matrix(1,0,0,1.0000000000000002,58.87049865722656,48.453186035156264)" svgjs:data="{&quot;leading&quot;:&quot;1.3&quot;}"><tspan dy="0" x="221.9223200542154" svgjs:data="{&quot;newLined&quot;:true}">PLAYER</tspan></text><image width="760" height="699" xlink:href="https://lct-designs.s3.us-west-1.amazonaws.com/assets/libs/cool-crush-1-sofball-banner-1640682005962.png" class="asset" transform="matrix(0.04548012092709541,0,0,0.04548012092709542,393.423370361328,196.52703857421878)"></image><text fill="#000000" font-family="Cooper" font-size="11" x="221.9223200542154" y="188.9502560914191" transform="matrix(1,0,0,1.0000000000000002,165.37257385253906,48.96321105957031)" svgjs:data="{&quot;leading&quot;:&quot;1.3&quot;}"><tspan dy="0" x="221.9223200542154" svgjs:data="{&quot;newLined&quot;:true}">PLAYER</tspan></text><image width="760" height="699" xlink:href="https://lct-designs.s3.us-west-1.amazonaws.com/assets/libs/cool-crush-1-sofball-banner-1640682005962.png" class="asset" transform="matrix(0.04548012092709541,0,0,0.04548012092709542,327.0121154785156,245.4902496337891)"></image><text fill="#000000" font-family="Cooper" font-size="11" x="221.9223200542154" y="188.9502560914191" transform="matrix(1,0,0,1.0000000000000002,98.96131896972653,97.92642211914062)" svgjs:data="{&quot;leading&quot;:&quot;1.3&quot;}"><tspan dy="0" x="221.9223200542154" svgjs:data="{&quot;newLined&quot;:true}">PLAYER</tspan></text><image width="760" height="699" xlink:href="https://lct-designs.s3.us-west-1.amazonaws.com/assets/libs/cool-crush-1-sofball-banner-1640682005962.png" class="asset" transform="matrix(0.04548012092709541,0,0,0.04548012092709542,440.034912109375,245.4902496337891)"></image><text fill="#000000" font-family="Cooper" font-size="11" x="221.9223200542154" y="188.9502560914191" transform="matrix(1,0,0,1.0000000000000002,211.98411560058588,97.92642211914062)" svgjs:data="{&quot;leading&quot;:&quot;1.3&quot;}"><tspan dy="0" x="221.9223200542154" svgjs:data="{&quot;newLined&quot;:true}">PLAYER</tspan></text><image width="760" height="699" xlink:href="https://lct-designs.s3.us-west-1.amazonaws.com/assets/libs/cool-crush-1-sofball-banner-1640682005962.png" class="asset" transform="matrix(0.04548012092709541,0,0,0.04548012092709542,441.6744689941406,141.44342041015625)"></image><text fill="#000000" font-family="Cooper" font-size="11" x="221.9223200542154" y="188.9502560914191" transform="matrix(1,0,0,1.0000000000000002,213.6236724853515,-6.1204071044921875)" svgjs:data="{&quot;leading&quot;:&quot;1.3&quot;}"><tspan dy="0" x="221.9223200542154" svgjs:data="{&quot;newLined&quot;:true}">PLAYER</tspan></text><image width="760" height="699" xlink:href="https://lct-designs.s3.us-west-1.amazonaws.com/assets/libs/cool-crush-1-sofball-banner-1640682005962.png" class="asset" transform="matrix(0.04548012092709541,0,0,0.04548012092709542,343.04150390625,141.44342041015625)"></image><text fill="#000000" font-family="Cooper" font-size="11" x="221.9223200542154" y="188.9502560914191" transform="matrix(1,0,0,1.0000000000000002,114.99070739746094,-6.1204071044921875)" svgjs:data="{&quot;leading&quot;:&quot;1.3&quot;}"><tspan dy="0" x="221.9223200542154" svgjs:data="{&quot;newLined&quot;:true}">PLAYER</tspan></text><image width="760" height="699" xlink:href="https://lct-designs.s3.us-west-1.amazonaws.com/assets/libs/cool-crush-1-sofball-banner-1640682005962.png" class="asset" transform="matrix(0.04548012092709541,0,0,0.04548012092709542,268.3791809082031,97.58055114746094)"></image><text fill="#000000" font-family="Cooper" font-size="11" x="221.9223200542154" y="188.9502560914191" transform="matrix(1,0,0,1.0000000000000002,40.32838439941406,-49.9832763671875)" svgjs:data="{&quot;leading&quot;:&quot;1.3&quot;}"><tspan dy="0" x="221.9223200542154" svgjs:data="{&quot;newLined&quot;:true}">PLAYER</tspan></text><image width="760" height="699" xlink:href="https://lct-designs.s3.us-west-1.amazonaws.com/assets/libs/cool-crush-1-sofball-banner-1640682005962.png" class="asset" transform="matrix(0.04548012092709541,0,0,0.04548012092709542,402.31256103515625,96.56048583984378)"></image><text fill="#000000" font-family="Cooper" font-size="11" x="221.9223200542154" y="188.9502560914191" transform="matrix(1,0,0,1.0000000000000002,174.2617645263672,-51.00334167480469)" svgjs:data="{&quot;leading&quot;:&quot;1.3&quot;}"><tspan dy="0" x="221.9223200542154" svgjs:data="{&quot;newLined&quot;:true}">PLAYER</tspan></text><text fill="#ffffff" font-family="Cooper" font-size="11" x="181.91167323414703" y="187.6751963914069" transform="matrix(1,0,0,1.0000000000000002,-164.73451232910156,-105.57692718505862)" svgjs:data="{&quot;leading&quot;:&quot;1.3&quot;}"><tspan dy="0" x="181.91167323414703" svgjs:data="{&quot;newLined&quot;:true}">COACH: COACH'S NAME</tspan></text><text fill="#ffffff" font-family="Cooper" font-size="11" x="158.80530290429016" y="187.6751963914069" transform="matrix(1,0,0,1.0000000000000002,135.6636962890625,-105.57691955566408)" svgjs:data="{&quot;leading&quot;:&quot;1.3&quot;}"><tspan dy="0" x="158.80530290429016" svgjs:data="{&quot;newLined&quot;:true}">TEAM MOM: TEAM MOM'S NAME</tspan></text><g class="mask" style="pointer-events: none;"><g><path fill="#BCBEC0" d="M-3642.4-2101.7v4589.1h7813.4v-4589.1H-3642.4z M500.5,67.2v233.3v66.7H0.5v-66.7V67.2V0.5h500V67.2z" transform="matrix(1,0,0,1,0,0)"></path><g transform="matrix(1,0,0,1,0,0)">
	<rect x="0.5" y="300.5" opacity="0.95" fill="#F1F2F2" width="500" height="66.7"></rect>
	<rect x="0.5" y="0.5" opacity="0.95" fill="#F1F2F2" width="500" height="66.7"></rect>
</g></g></g></svg>