<svg xmlns="http://www.w3.org/2000/svg" version="1.1" xmlns:xlink="http://www.w3.org/1999/xlink" xmlns:svgjs="http://svgjs.dev/svgjs" width="100%" height="100%" viewBox="1 1 499 365.70001220703125" preserveAspectRatio="none" data-info="{&quot;_id&quot;:4,&quot;name&quot;:&quot;POLE POCKET SOCCER BANNERS&quot;,&quot;information&quot;:&quot;- Size: 3’x5’\n- Material: heavy duty vinyl banner\n- Digitally printed on vinyl&quot;,&quot;price&quot;:&quot;95.00&quot;,&quot;sale_price&quot;:&quot;89.99&quot;,&quot;type&quot;:&quot;pole-pocket&quot;,&quot;cover&quot;:{&quot;key&quot;:&quot;assets/models/pole-1628062864266-1631924568908.png&quot;,&quot;url&quot;:&quot;https://lct-designs.s3.us-west-1.amazonaws.com/assets/models/pole-1628062864266-1631924568908.png&quot;},&quot;back&quot;:{&quot;key&quot;:&quot;assets/models/pole-1631924700152.svg&quot;,&quot;url&quot;:&quot;https://lct-designs.s3.us-west-1.amazonaws.com/assets/models/pole-1631924700152.svg&quot;},&quot;mask&quot;:{&quot;key&quot;:&quot;assets/models/pole-mask-1631925211715.svg&quot;,&quot;url&quot;:&quot;https://lct-designs.s3.us-west-1.amazonaws.com/assets/models/pole-mask-1631925211715.svg&quot;},&quot;pos&quot;:&quot;2&quot;,&quot;accessories&quot;:&quot;2,3&quot;}" style="background-color: white;"><g class="model" style="pointer-events: none;"><polygon fill="#FFFFFF" points="0.5,0.5 0.5,67.2 0.5,300.5 0.5,367.2 500.5,367.2 500.5,300.5 500.5,67.2 500.5,0.5 "></polygon></g><image width="760" height="556" xlink:href="https://lct-designs.s3.us-west-1.amazonaws.com/assets/libs/chicago-white-2-baseball-banner-1640339517358.png" class="asset background locked" transform="matrix(0.6595323960558116,0,0,0.6595323960558116,0,0)"></image><text fill="#ffffff" font-family="Antilles" font-size="45" x="183.0424019425702" y="194.2513174777817" stroke-opacity="1" stroke-width="2" stroke="#000000" transform="matrix(0.33355310559272766,0,0,0.33355310559272766,-45.06806564331055,219.45742797851557)" svgjs:data="{&quot;leading&quot;:&quot;1.3&quot;}"><tspan dy="0" x="183.0424019425702" svgjs:data="{&quot;newLined&quot;:true}">coach: coach's name</tspan></text><image width="542" height="760" xlink:href="https://lct-designs.s3.us-west-1.amazonaws.com/assets/libs/chicago-white-3-baseball-banner-1641962912469.png" class="asset" transform="matrix(0.2547492980957031,0,0,0.2547492980957031,327.269287109375,89.51642608642581)"></image><text fill="#ffffff" font-family="UTM Rockwell" font-size="45" x="183.0424019425702" y="194.2513174777817" stroke-opacity="1" stroke-width="3" stroke="#000000" transform="matrix(0.2780422866344452,0,0,0.2780422866344452,218.269287109375,50.2229919433594)" svgjs:data="{&quot;leading&quot;:&quot;1.3&quot;}"><tspan dy="0" x="183.0424019425702" svgjs:data="{&quot;newLined&quot;:true}">PLAYER</tspan></text><image width="760" height="760" xlink:href="https://lct-designs.s3.us-west-1.amazonaws.com/assets/libs/chicago-white-2-baseball-banner-1640339769755.png" class="asset" transform="matrix(0.03968995064496994,0,0,0.03968995064496993,240.8617706298828,82.08699798583984)"></image><image width="760" height="760" xlink:href="https://lct-designs.s3.us-west-1.amazonaws.com/assets/libs/chicago-white-2-baseball-banner-1640339769755.png" class="asset" transform="matrix(0.03968995064496994,0,0,0.03968995064496993,198.11289978027344,125.92057800292969)"></image><image width="760" height="760" xlink:href="https://lct-designs.s3.us-west-1.amazonaws.com/assets/libs/chicago-white-2-baseball-banner-1640339769755.png" class="asset" transform="matrix(0.03968995064496994,0,0,0.03968995064496993,291.2629699707031,258.5357360839844)"></image><image width="760" height="760" xlink:href="https://lct-designs.s3.us-west-1.amazonaws.com/assets/libs/chicago-white-2-baseball-banner-1640339769755.png" class="asset" transform="matrix(0.03968995064496994,0,0,0.03968995064496993,163.07574462890625,258.5357360839844)"></image><text fill="#ffffff" font-family="UTM Rockwell" font-size="45" x="183.0424019425702" y="194.2513174777817" stroke-opacity="1" stroke-width="3" stroke="#000000" transform="matrix(0.2780422866344452,0,0,0.2780422866344452,140.48327636718747,224.43695068359375)" svgjs:data="{&quot;leading&quot;:&quot;1.3&quot;}"><tspan dy="0" x="183.0424019425702" svgjs:data="{&quot;newLined&quot;:true}">PLAYER</tspan></text><text fill="#ffffff" font-family="UTM Rockwell" font-size="45" x="183.0424019425702" y="194.2513174777817" stroke-opacity="1" stroke-width="3" stroke="#000000" transform="matrix(0.2780422866344452,0,0,0.2780422866344452,268.6705017089844,224.43698120117188)" svgjs:data="{&quot;leading&quot;:&quot;1.3&quot;}"><tspan dy="0" x="183.0424019425702" svgjs:data="{&quot;newLined&quot;:true}">PLAYER</tspan></text><text fill="#ffffff" font-family="UTM Rockwell" font-size="45" x="183.0424019425702" y="194.2513174777817" stroke-opacity="1" stroke-width="3" stroke="#000000" transform="matrix(0.2780422866344452,0,0,0.2780422866344452,175.52041625976562,94.05657196044922)" svgjs:data="{&quot;leading&quot;:&quot;1.3&quot;}"><tspan dy="0" x="183.0424019425702" svgjs:data="{&quot;newLined&quot;:true}">PLAYER</tspan></text><image width="760" height="760" xlink:href="https://lct-designs.s3.us-west-1.amazonaws.com/assets/libs/chicago-white-2-baseball-banner-1640339769755.png" class="asset" transform="matrix(0.03968995064496994,0,0,0.03968995064496993,240.0594024658203,168.26828002929688)"></image><text fill="#ffffff" font-family="UTM Rockwell" font-size="45" x="183.0424019425702" y="194.2513174777817" stroke-opacity="1" stroke-width="3" stroke="#000000" transform="matrix(0.2780422866344452,0,0,0.2780422866344452,217.4669189453125,136.40428161621094)" svgjs:data="{&quot;leading&quot;:&quot;1.3&quot;}"><tspan dy="0" x="183.0424019425702" svgjs:data="{&quot;newLined&quot;:true}">PLAYER</tspan></text><image width="760" height="760" xlink:href="https://lct-designs.s3.us-west-1.amazonaws.com/assets/libs/chicago-white-2-baseball-banner-1640339769755.png" class="asset" transform="matrix(0.03968995064496994,0,0,0.03968995064496993,208.45466613769534,216.5594940185547)"></image><text fill="#ffffff" font-family="UTM Rockwell" font-size="45" x="183.0424019425702" y="194.2513174777817" stroke-opacity="1" stroke-width="3" stroke="#000000" transform="matrix(0.2780422866344452,0,0,0.2780422866344452,185.86218261718747,184.69549560546875)" svgjs:data="{&quot;leading&quot;:&quot;1.3&quot;}"><tspan dy="0" x="183.0424019425702" svgjs:data="{&quot;newLined&quot;:true}">PLAYER</tspan></text><text fill="#ffffff" font-family="UTM Rockwell" font-size="45" x="183.0424019425702" y="194.2513174777817" stroke-opacity="1" stroke-width="3" stroke="#000000" transform="matrix(0.2780422866344452,0,0,0.2780422866344452,104.19796752929688,47.251220703125)" svgjs:data="{&quot;leading&quot;:&quot;1.3&quot;}"><tspan dy="0" x="183.0424019425702" svgjs:data="{&quot;newLined&quot;:true}">PLAYER</tspan></text><image width="760" height="760" xlink:href="https://lct-designs.s3.us-west-1.amazonaws.com/assets/libs/chicago-white-2-baseball-banner-1640339769755.png" class="asset" transform="matrix(0.03968995064496994,0,0,0.03968995064496993,126.79045104980472,79.1152267456055)"></image><text fill="#ffffff" font-family="UTM Rockwell" font-size="45" x="183.0424019425702" y="194.2513174777817" stroke-opacity="1" stroke-width="3" stroke="#000000" transform="matrix(0.2780422866344452,0,0,0.2780422866344452,-6.901580810546875,46.50827795267108)" svgjs:data="{&quot;leading&quot;:&quot;1.3&quot;}"><tspan dy="0" x="183.0424019425702" svgjs:data="{&quot;newLined&quot;:true}">PLAYER</tspan></text><image width="760" height="760" xlink:href="https://lct-designs.s3.us-west-1.amazonaws.com/assets/libs/chicago-white-2-baseball-banner-1640339769755.png" class="asset" transform="matrix(0.03968995064496994,0,0,0.03968995064496993,15.690902709960938,78.37228399515152)"></image><g class="mask" style="pointer-events: none;"><g><path fill="#BCBEC0" d="M-3642.4-2101.7v4589.1h7813.4v-4589.1H-3642.4z M500.5,67.2v233.3v66.7H0.5v-66.7V67.2V0.5h500V67.2z" transform="matrix(1,0,0,1,0,0)"></path><g transform="matrix(1,0,0,1,0,0)">
	<rect x="0.5" y="300.5" opacity="0.95" fill="#F1F2F2" width="500" height="66.7"></rect>
	<rect x="0.5" y="0.5" opacity="0.95" fill="#F1F2F2" width="500" height="66.7"></rect>
</g></g></g></svg>