<svg xmlns="http://www.w3.org/2000/svg" version="1.1" xmlns:xlink="http://www.w3.org/1999/xlink" xmlns:svgjs="http://svgjs.dev/svgjs" width="100%" height="100%" viewBox="1 1 499 299" preserveAspectRatio="none" data-info="{&quot;_id&quot;:1,&quot;name&quot;:&quot;HEM &amp; GROMMETS&quot;,&quot;price&quot;:&quot;95.00&quot;,&quot;sale_price&quot;:&quot;89.99&quot;,&quot;cover&quot;:{&quot;key&quot;:&quot;assets/models/hem-1628062436886-1630830942566.png&quot;,&quot;url&quot;:&quot;https://lct-designs.s3.us-west-1.amazonaws.com/assets/models/hem-1628062436886-1630830942566.png&quot;},&quot;back&quot;:{&quot;key&quot;:&quot;assets/models/hem-1630831057346.svg&quot;,&quot;url&quot;:&quot;https://lct-designs.s3.us-west-1.amazonaws.com/assets/models/hem-1630831057346.svg&quot;},&quot;mask&quot;:{&quot;key&quot;:&quot;assets/models/hem.mask-1630831063496.svg&quot;,&quot;url&quot;:&quot;https://lct-designs.s3.us-west-1.amazonaws.com/assets/models/hem.mask-1630831063496.svg&quot;},&quot;information&quot;:&quot;Size 3'x5'&quot;,&quot;type&quot;:&quot;hem-grommet&quot;,&quot;pos&quot;:&quot;1&quot;,&quot;accessories&quot;:&quot;2,3&quot;,&quot;width&quot;:&quot;60&quot;,&quot;height&quot;:&quot;36&quot;}" style="background-color: white;"><g class="model" style="pointer-events: none;"><rect x="0.5" y="0.5" fill="none" stroke="#000000" stroke-miterlimit="10" width="500" height="300"></rect></g><image width="760" height="455" xlink:href="https://lct-designs.s3.us-west-1.amazonaws.com/assets/libs/dragon2-softball-banner-1640682204483.png" class="asset background locked" transform="matrix(0.6593406593406593,0,0,0.6593406593406593,0,0)"></image><image width="760" height="405" xlink:href="https://lct-designs.s3.us-west-1.amazonaws.com/assets/libs/dragon2-softball-banner-1640682384612.png" class="asset" transform="matrix(0.3345345854759217,0,0,0.33453458547592163,154.93740844726562,10.69664669036866)"></image><image width="694" height="760" xlink:href="https://lct-designs.s3.us-west-1.amazonaws.com/assets/libs/dragon2-softball-banner-1640682138447.png" class="asset" transform="matrix(0.19032315909862518,0,0,0.19032315909862518,205.17660522460938,133.3803253173828)"></image><image width="760" height="304" xlink:href="https://lct-designs.s3.us-west-1.amazonaws.com/assets/libs/dragon2-sofball-banner-1640682005965.png" class="asset" transform="matrix(0.08354141563177109,0,0,0.08354141563177109,29.34630012512207,105.79926300048825)"></image><text fill="#000000" font-family="Skaters" font-size="10" x="231.55098425236548" y="154.67249585219741" transform="matrix(1,0,0,0.9999999999999999,-202.2046661376953,-50.07049560546874)" svgjs:data="{&quot;leading&quot;:&quot;1.3&quot;}"><tspan dy="0" x="231.55098425236548" svgjs:data="{&quot;newLined&quot;:true}">PLAYER</tspan></text><image width="760" height="304" xlink:href="https://lct-designs.s3.us-west-1.amazonaws.com/assets/libs/dragon2-sofball-banner-1640682005965.png" class="asset" transform="matrix(0.08354143053293228,0,0,0.08354143053293228,78.56744003295898,149.19369506835935)"></image><text fill="#000000" font-family="Skaters" font-size="10" x="231.55098425236548" y="154.67249585219741" transform="matrix(1,0,0,0.9999999999999999,-152.98352432250977,-6.676063537597656)" svgjs:data="{&quot;leading&quot;:&quot;1.3&quot;}"><tspan dy="0" x="231.55098425236548" svgjs:data="{&quot;newLined&quot;:true}">PLAYER</tspan></text><image width="760" height="304" xlink:href="https://lct-designs.s3.us-west-1.amazonaws.com/assets/libs/dragon2-sofball-banner-1640682005965.png" class="asset" transform="matrix(0.08354144543409348,0,0,0.08354144543409348,20.973556518554688,193.83988952636716)"></image><text fill="#000000" font-family="Skaters" font-size="10" x="231.55098425236548" y="154.67249585219741" transform="matrix(1,0,0,0.9999999999999999,-210.57740783691403,37.97013092041015)" svgjs:data="{&quot;leading&quot;:&quot;1.3&quot;}"><tspan dy="0" x="231.55098425236548" svgjs:data="{&quot;newLined&quot;:true}">PLAYER</tspan></text><image width="760" height="304" xlink:href="https://lct-designs.s3.us-west-1.amazonaws.com/assets/libs/dragon2-sofball-banner-1640682005965.png" class="asset" transform="matrix(0.08354146033525467,0,0,0.08354146033525467,114.84004211425781,203.8539886474609)"></image><text fill="#000000" font-family="Skaters" font-size="10" x="231.55098425236548" y="154.67249585219741" transform="matrix(1,0,0,0.9999999999999999,-116.71092224121094,47.9842300415039)" svgjs:data="{&quot;leading&quot;:&quot;1.3&quot;}"><tspan dy="0" x="231.55098425236548" svgjs:data="{&quot;newLined&quot;:true}">PLAYER</tspan></text><image width="760" height="304" xlink:href="https://lct-designs.s3.us-west-1.amazonaws.com/assets/libs/dragon2-sofball-banner-1640682005965.png" class="asset" transform="matrix(0.08354150503873825,0,0,0.08354150503873825,47.635589599609375,253.08996582031247)"></image><text fill="#000000" font-family="Skaters" font-size="10" x="231.55098425236548" y="154.67249585219741" transform="matrix(1,0,0,0.9999999999999999,-183.91537475585938,97.22020721435544)" svgjs:data="{&quot;leading&quot;:&quot;1.3&quot;}"><tspan dy="0" x="231.55098425236548" svgjs:data="{&quot;newLined&quot;:true}">PLAYER</tspan></text><image width="760" height="304" xlink:href="https://lct-designs.s3.us-west-1.amazonaws.com/assets/libs/dragon2-sofball-banner-1640682005965.png" class="asset" transform="matrix(0.08354151248931883,0,0,0.08354151248931883,147.76075744628906,261.852294921875)"></image><text fill="#000000" font-family="Skaters" font-size="10" x="231.55098425236548" y="154.67249585219741" transform="matrix(1,0,0,0.9999999999999999,-83.79020690917969,105.98253631591794)" svgjs:data="{&quot;leading&quot;:&quot;1.3&quot;}"><tspan dy="0" x="231.55098425236548" svgjs:data="{&quot;newLined&quot;:true}">PLAYER</tspan></text><image width="760" height="304" xlink:href="https://lct-designs.s3.us-west-1.amazonaws.com/assets/libs/dragon2-sofball-banner-1640682005965.png" class="asset" transform="matrix(0.08354151248931883,0,0,0.08354151248931883,356.3699493408203,133.75526428222656)"></image><text fill="#000000" font-family="Skaters" font-size="10" x="231.55098425236548" y="154.67249585219741" transform="matrix(1,0,0,0.9999999999999999,124.81898498535156,-22.11449432373046)" svgjs:data="{&quot;leading&quot;:&quot;1.3&quot;}"><tspan dy="0" x="231.55098425236548" svgjs:data="{&quot;newLined&quot;:true}">PLAYER</tspan></text><image width="760" height="304" xlink:href="https://lct-designs.s3.us-west-1.amazonaws.com/assets/libs/dragon2-sofball-banner-1640682005965.png" class="asset" transform="matrix(0.08354151248931883,0,0,0.08354151248931883,430.2085876464844,161.29403686523435)"></image><text fill="#000000" font-family="Skaters" font-size="10" x="231.55098425236548" y="154.67249585219741" transform="matrix(1,0,0,0.9999999999999999,198.6576385498047,5.424278259277344)" svgjs:data="{&quot;leading&quot;:&quot;1.3&quot;}"><tspan dy="0" x="231.55098425236548" svgjs:data="{&quot;newLined&quot;:true}">PLAYER</tspan></text><image width="760" height="304" xlink:href="https://lct-designs.s3.us-west-1.amazonaws.com/assets/libs/dragon2-sofball-banner-1640682005965.png" class="asset" transform="matrix(0.08354151248931883,0,0,0.08354151248931883,352.5868835449219,197.1778869628906)"></image><text fill="#000000" font-family="Skaters" font-size="10" x="231.55098425236548" y="154.67249585219741" transform="matrix(1,0,0,0.9999999999999999,121.03593444824219,41.30812835693359)" svgjs:data="{&quot;leading&quot;:&quot;1.3&quot;}"><tspan dy="0" x="231.55098425236548" svgjs:data="{&quot;newLined&quot;:true}">PLAYER</tspan></text><image width="760" height="304" xlink:href="https://lct-designs.s3.us-west-1.amazonaws.com/assets/libs/dragon2-sofball-banner-1640682005965.png" class="asset" transform="matrix(0.08354151248931883,0,0,0.08354151248931883,423.0875854492187,228.05468749999997)"></image><text fill="#000000" font-family="Skaters" font-size="10" x="231.55098425236548" y="154.67249585219741" transform="matrix(1,0,0,0.9999999999999999,191.53663635253906,72.18492889404297)" svgjs:data="{&quot;leading&quot;:&quot;1.3&quot;}"><tspan dy="0" x="231.55098425236548" svgjs:data="{&quot;newLined&quot;:true}">PLAYER</tspan></text><image width="760" height="304" xlink:href="https://lct-designs.s3.us-west-1.amazonaws.com/assets/libs/dragon2-sofball-banner-1640682005965.png" class="asset" transform="matrix(0.08354151248931883,0,0,0.08354151248931883,340.04168701171875,251.42091369628903)"></image><text fill="#000000" font-family="Skaters" font-size="10" x="231.55098425236548" y="154.67249585219741" transform="matrix(1,0,0,0.9999999999999999,108.49073791503906,95.55115509033203)" svgjs:data="{&quot;leading&quot;:&quot;1.3&quot;}"><tspan dy="0" x="231.55098425236548" svgjs:data="{&quot;newLined&quot;:true}">PLAYER</tspan></text><image width="760" height="304" xlink:href="https://lct-designs.s3.us-west-1.amazonaws.com/assets/libs/dragon2-sofball-banner-1640682005965.png" class="asset" transform="matrix(0.08354151248931883,0,0,0.08354151248931883,418.51177978515625,91.61258697509763)"></image><text fill="#000000" font-family="Skaters" font-size="10" x="231.55098425236548" y="154.67249585219741" transform="matrix(1,0,0,0.9999999999999999,186.96083068847656,-64.25717163085938)" svgjs:data="{&quot;leading&quot;:&quot;1.3&quot;}"><tspan dy="0" x="231.55098425236548" svgjs:data="{&quot;newLined&quot;:true}">PLAYER</tspan></text><text fill="#000000" font-family="Skaters" font-size="10" x="190.22202574101294" y="146.92074442931533" transform="matrix(1,0,0,0.9999999999999999,-140.19471740722656,-115.99665832519528)" svgjs:data="{&quot;leading&quot;:&quot;1.3&quot;}"><tspan dy="0" x="190.22202574101294" svgjs:data="{&quot;newLined&quot;:true}">COACH: COACH'S NAME</tspan><tspan dy="13" x="190.22202574101294" svgjs:data="{&quot;newLined&quot;:true}">TEAM MOM: TEAM MOM'S NAME</tspan></text><g class="mask" style="pointer-events: none;"><path fill="#777777" enable-background="new    " d="M-1684.9-1014.6v2330.1h3870.8v-2330.1H-1684.9z M500.5,300.5H0.5V0.5h500
	V300.5z"></path></g></svg>