<svg xmlns="http://www.w3.org/2000/svg" version="1.1" xmlns:xlink="http://www.w3.org/1999/xlink" xmlns:svgjs="http://svgjs.dev/svgjs" width="100%" height="100%" viewBox="1 1 499 299" preserveAspectRatio="none" data-info="{&quot;_id&quot;:1,&quot;name&quot;:&quot;HEM &amp; GROMMETS&quot;,&quot;price&quot;:&quot;95.00&quot;,&quot;sale_price&quot;:&quot;89.99&quot;,&quot;cover&quot;:{&quot;key&quot;:&quot;assets/models/hem-1628062436886-1630830942566.png&quot;,&quot;url&quot;:&quot;https://lct-designs.s3.us-west-1.amazonaws.com/assets/models/hem-1628062436886-1630830942566.png&quot;},&quot;back&quot;:{&quot;key&quot;:&quot;assets/models/hem-1630831057346.svg&quot;,&quot;url&quot;:&quot;https://lct-designs.s3.us-west-1.amazonaws.com/assets/models/hem-1630831057346.svg&quot;},&quot;mask&quot;:{&quot;key&quot;:&quot;assets/models/hem.mask-1630831063496.svg&quot;,&quot;url&quot;:&quot;https://lct-designs.s3.us-west-1.amazonaws.com/assets/models/hem.mask-1630831063496.svg&quot;},&quot;information&quot;:&quot;Size 3'x5'&quot;,&quot;type&quot;:&quot;hem-grommet&quot;,&quot;pos&quot;:&quot;1&quot;,&quot;accessories&quot;:&quot;2,3&quot;,&quot;width&quot;:&quot;60&quot;,&quot;height&quot;:&quot;36&quot;}" style="background-color: white;"><g class="model" style="pointer-events: none;"><rect x="0.5" y="0.5" fill="none" stroke="#000000" stroke-miterlimit="10" width="500" height="300"></rect></g><image width="760" height="455" xlink:href="https://lct-designs.s3.us-west-1.amazonaws.com/assets/libs/river-dog2-softball-banner-1644463786070.png" class="asset background locked" transform="matrix(0.6593406593406593,0,0,0.6593406593406593,0,0)"></image><image width="653" height="760" xlink:href="https://lct-designs.s3.us-west-1.amazonaws.com/assets/libs/river-dog2-softball-banner-1640683948799.png" class="asset" transform="matrix(0.3286740481853485,0,0,0.32867404818534846,13.854484558105469,34.9083480834961)"></image><image width="760" height="537" xlink:href="https://lct-designs.s3.us-west-1.amazonaws.com/assets/libs/devil-rays-2-sofball-banner-1640682005963.png" class="asset" transform="matrix(0.0577644258737564,0,0,0.0577644258737564,194.48895263671875,57.08998489379882)"></image><text fill="#000000" font-family="UTM Rockwell" font-size="10" x="234.48994528141822" y="153.4207449061525" transform="matrix(1,0,0,0.9999999999999999,-41.22053527832031,-98.05471801757812)" svgjs:data="{&quot;leading&quot;:&quot;1.3&quot;}"><tspan dy="0" x="234.48994528141822" svgjs:data="{&quot;newLined&quot;:true}">PLAYER</tspan></text><image width="760" height="537" xlink:href="https://lct-designs.s3.us-west-1.amazonaws.com/assets/libs/devil-rays-2-sofball-banner-1640682005963.png" class="asset" transform="matrix(0.0577644258737564,0,0,0.0577644258737564,239.95487976074213,118.42634582519531)"></image><text fill="#000000" font-family="UTM Rockwell" font-size="10" x="234.48994528141822" y="153.4207449061525" transform="matrix(1,0,0,0.9999999999999999,4.245391845703125,-36.718360900878906)" svgjs:data="{&quot;leading&quot;:&quot;1.3&quot;}"><tspan dy="0" x="234.48994528141822" svgjs:data="{&quot;newLined&quot;:true}">PLAYER</tspan></text><image width="760" height="537" xlink:href="https://lct-designs.s3.us-west-1.amazonaws.com/assets/libs/devil-rays-2-sofball-banner-1640682005963.png" class="asset" transform="matrix(0.0577644258737564,0,0,0.0577644258737564,285.00357055664057,57.924491882324226)"></image><text fill="#000000" font-family="UTM Rockwell" font-size="10" x="234.48994528141822" y="153.4207449061525" transform="matrix(1,0,0,0.9999999999999999,49.29408264160155,-97.22021484375)" svgjs:data="{&quot;leading&quot;:&quot;1.3&quot;}"><tspan dy="0" x="234.48994528141822" svgjs:data="{&quot;newLined&quot;:true}">PLAYER</tspan></text><image width="760" height="537" xlink:href="https://lct-designs.s3.us-west-1.amazonaws.com/assets/libs/devil-rays-2-sofball-banner-1640682005963.png" class="asset" transform="matrix(0.0577644258737564,0,0,0.0577644258737564,245.37905883789062,184.3525123596191)"></image><text fill="#000000" font-family="UTM Rockwell" font-size="10" x="234.48994528141822" y="153.4207449061525" transform="matrix(1,0,0,0.9999999999999999,9.669570922851562,29.20780944824218)" svgjs:data="{&quot;leading&quot;:&quot;1.3&quot;}"><tspan dy="0" x="234.48994528141822" svgjs:data="{&quot;newLined&quot;:true}">PLAYER</tspan></text><image width="760" height="537" xlink:href="https://lct-designs.s3.us-west-1.amazonaws.com/assets/libs/devil-rays-2-sofball-banner-1640682005963.png" class="asset" transform="matrix(0.0577644258737564,0,0,0.0577644258737564,290.844970703125,245.6888732910156)"></image><text fill="#000000" font-family="UTM Rockwell" font-size="10" x="234.48994528141822" y="153.4207449061525" transform="matrix(1,0,0,0.9999999999999999,55.135498046875,90.5441665649414)" svgjs:data="{&quot;leading&quot;:&quot;1.3&quot;}"><tspan dy="0" x="234.48994528141822" svgjs:data="{&quot;newLined&quot;:true}">PLAYER</tspan></text><image width="760" height="537" xlink:href="https://lct-designs.s3.us-west-1.amazonaws.com/assets/libs/devil-rays-2-sofball-banner-1640682005963.png" class="asset" transform="matrix(0.0577644258737564,0,0,0.0577644258737564,335.89367675781244,185.18702697753903)"></image><text fill="#000000" font-family="UTM Rockwell" font-size="10" x="234.48994528141822" y="153.4207449061525" transform="matrix(1,0,0,0.9999999999999999,100.18418884277344,30.04231262207032)" svgjs:data="{&quot;leading&quot;:&quot;1.3&quot;}"><tspan dy="0" x="234.48994528141822" svgjs:data="{&quot;newLined&quot;:true}">PLAYER</tspan></text><image width="760" height="537" xlink:href="https://lct-designs.s3.us-west-1.amazonaws.com/assets/libs/devil-rays-2-sofball-banner-1640682005963.png" class="asset" transform="matrix(0.0577644258737564,0,0,0.0577644258737564,340.4833679199219,118.42635345458982)"></image><text fill="#000000" font-family="UTM Rockwell" font-size="10" x="234.48994528141822" y="153.4207449061525" transform="matrix(1,0,0,0.9999999999999999,104.77389526367188,-36.718353271484375)" svgjs:data="{&quot;leading&quot;:&quot;1.3&quot;}"><tspan dy="0" x="234.48994528141822" svgjs:data="{&quot;newLined&quot;:true}">PLAYER</tspan></text><image width="760" height="537" xlink:href="https://lct-designs.s3.us-west-1.amazonaws.com/assets/libs/devil-rays-2-sofball-banner-1640682005963.png" class="asset" transform="matrix(0.0577644258737564,0,0,0.0577644258737564,385.5320739746093,57.924507141113274)"></image><text fill="#000000" font-family="UTM Rockwell" font-size="10" x="234.48994528141822" y="153.4207449061525" transform="matrix(1,0,0,0.9999999999999999,149.82258605957028,-97.22020721435545)" svgjs:data="{&quot;leading&quot;:&quot;1.3&quot;}"><tspan dy="0" x="234.48994528141822" svgjs:data="{&quot;newLined&quot;:true}">PLAYER</tspan></text><image width="760" height="537" xlink:href="https://lct-designs.s3.us-west-1.amazonaws.com/assets/libs/devil-rays-2-sofball-banner-1640682005963.png" class="asset" transform="matrix(0.0577644258737564,0,0,0.0577644258737564,445.1982421875,118.8436050713062)"></image><text fill="#000000" font-family="UTM Rockwell" font-size="10" x="234.48994528141822" y="153.4207449061525" transform="matrix(1,0,0,0.9999999999999999,209.48876953125,-36.30110165476799)" svgjs:data="{&quot;leading&quot;:&quot;1.3&quot;}"><tspan dy="0" x="234.48994528141822" svgjs:data="{&quot;newLined&quot;:true}">PLAYER</tspan></text><image width="760" height="537" xlink:href="https://lct-designs.s3.us-west-1.amazonaws.com/assets/libs/devil-rays-2-sofball-banner-1640682005963.png" class="asset" transform="matrix(0.0577644258737564,0,0,0.0577644258737564,400.14956665039057,247.3578948974609)"></image><text fill="#000000" font-family="UTM Rockwell" font-size="10" x="234.48994528141822" y="153.4207449061525" transform="matrix(1,0,0,0.9999999999999999,164.44009399414065,92.21318817138672)" svgjs:data="{&quot;leading&quot;:&quot;1.3&quot;}"><tspan dy="0" x="234.48994528141822" svgjs:data="{&quot;newLined&quot;:true}">PLAYER</tspan></text><image width="760" height="537" xlink:href="https://lct-designs.s3.us-west-1.amazonaws.com/assets/libs/devil-rays-2-sofball-banner-1640682005963.png" class="asset" transform="matrix(0.0577644258737564,0,0,0.0577644258737564,445.1982727050781,186.85604858398438)"></image><text fill="#000000" font-family="UTM Rockwell" font-size="10" x="234.48994528141822" y="153.4207449061525" transform="matrix(1,0,0,0.9999999999999999,209.48878479003906,31.711334228515618)" svgjs:data="{&quot;leading&quot;:&quot;1.3&quot;}"><tspan dy="0" x="234.48994528141822" svgjs:data="{&quot;newLined&quot;:true}">PLAYER</tspan></text><text fill="#a30000" font-family="UTM Rockwell" font-size="10" x="182.3317593225559" y="154.67249537536026" transform="matrix(1,0,0,0.9999999999999999,-164.39498901367188,-134.35583496093747)" svgjs:data="{&quot;leading&quot;:&quot;1.3&quot;}"><tspan dy="0" x="182.3317593225559" svgjs:data="{&quot;newLined&quot;:true}">COACH: COACH'S NAME</tspan></text><text fill="#a30000" font-family="UTM Rockwell" font-size="10" x="155.6962078699192" y="154.67249537536026" transform="matrix(1,0,0,0.9999999999999999,143.94992065429688,-134.35583496093747)" svgjs:data="{&quot;leading&quot;:&quot;1.3&quot;}"><tspan dy="0" x="155.6962078699192" svgjs:data="{&quot;newLined&quot;:true}">TEAM MOM: TEAM MOM'S NAME</tspan></text><g class="mask" style="pointer-events: none;"><path fill="#777777" enable-background="new    " d="M-1684.9-1014.6v2330.1h3870.8v-2330.1H-1684.9z M500.5,300.5H0.5V0.5h500
	V300.5z"></path></g></svg>