<svg xmlns="http://www.w3.org/2000/svg" version="1.1" xmlns:xlink="http://www.w3.org/1999/xlink" xmlns:svgjs="http://svgjs.dev/svgjs" width="100%" height="100%" viewBox="1 1 499 299" preserveAspectRatio="none" data-info="{&quot;_id&quot;:1,&quot;name&quot;:&quot;HEM &amp; GROMMETS&quot;,&quot;price&quot;:&quot;95.00&quot;,&quot;sale_price&quot;:&quot;89.99&quot;,&quot;cover&quot;:{&quot;key&quot;:&quot;assets/models/hem-1628062436886-1630830942566.png&quot;,&quot;url&quot;:&quot;https://lct-designs.s3.us-west-1.amazonaws.com/assets/models/hem-1628062436886-1630830942566.png&quot;},&quot;back&quot;:{&quot;key&quot;:&quot;assets/models/hem-1630831057346.svg&quot;,&quot;url&quot;:&quot;https://lct-designs.s3.us-west-1.amazonaws.com/assets/models/hem-1630831057346.svg&quot;},&quot;mask&quot;:{&quot;key&quot;:&quot;assets/models/hem.mask-1630831063496.svg&quot;,&quot;url&quot;:&quot;https://lct-designs.s3.us-west-1.amazonaws.com/assets/models/hem.mask-1630831063496.svg&quot;},&quot;information&quot;:&quot;Size 3'x5'&quot;,&quot;type&quot;:&quot;hem-grommet&quot;,&quot;pos&quot;:&quot;1&quot;,&quot;accessories&quot;:&quot;2,3&quot;,&quot;width&quot;:&quot;60&quot;,&quot;height&quot;:&quot;36&quot;}" style="background-color: white;"><g class="model" style="pointer-events: none;"><rect x="0.5" y="0.5" fill="none" stroke="#000000" stroke-miterlimit="10" width="500" height="300"></rect></g><image width="760" height="455" xlink:href="https://lct-designs.s3.us-west-1.amazonaws.com/assets/libs/earthquakes-1-softball-banner-1640682204483.png" class="asset background locked" transform="matrix(0.6593406593406593,0,0,0.6593406593406593,0,0)"></image><image width="760" height="357" xlink:href="https://lct-designs.s3.us-west-1.amazonaws.com/assets/libs/earthquakes-1-softball-banner-1640682384612.png" class="asset" transform="matrix(0.41075408458709717,0,0,0.41075408458709717,117.70319366455078,134.37081909179688)"></image><image width="643" height="760" xlink:href="https://lct-designs.s3.us-west-1.amazonaws.com/assets/libs/blue-lightning-2-soflball-banner-1639966281996.png" class="asset" transform="matrix(0.039617136120796204,0,0,0.039617136120796204,317.54052734375006,88.25045013427736)"></image><text fill="#000000" font-family="Skaters" font-size="11" x="233.4709881433567" y="153.62938229385182" transform="matrix(1,0,0,1,79.77737426757812,-25.45249366760254)" svgjs:data="{&quot;leading&quot;:&quot;1.3&quot;}"><tspan dy="0" x="233.4709881433567" svgjs:data="{&quot;newLined&quot;:true}">PLAYER</tspan></text><image width="643" height="760" xlink:href="https://lct-designs.s3.us-west-1.amazonaws.com/assets/libs/blue-lightning-2-soflball-banner-1639966281996.png" class="asset" transform="matrix(0.039617136120796204,0,0,0.039617136120796204,317.54052734375006,34.8419189453125)"></image><text fill="#000000" font-family="Skaters" font-size="11" x="233.4709881433567" y="153.62938229385182" transform="matrix(1,0,0,1,79.77741241455078,-78.86102294921875)" svgjs:data="{&quot;leading&quot;:&quot;1.3&quot;}"><tspan dy="0" x="233.4709881433567" svgjs:data="{&quot;newLined&quot;:true}">PLAYER</tspan></text><image width="643" height="760" xlink:href="https://lct-designs.s3.us-west-1.amazonaws.com/assets/libs/blue-lightning-2-soflball-banner-1639966281996.png" class="asset" transform="matrix(0.039617136120796204,0,0,0.039617136120796204,394.72412109374994,34.84192657470703)"></image><text fill="#000000" font-family="Skaters" font-size="11" x="233.4709881433567" y="153.62938229385182" transform="matrix(1,0,0,1,156.96102905273432,-78.86102294921875)" svgjs:data="{&quot;leading&quot;:&quot;1.3&quot;}"><tspan dy="0" x="233.4709881433567" svgjs:data="{&quot;newLined&quot;:true}">PLAYER</tspan></text><image width="643" height="760" xlink:href="https://lct-designs.s3.us-west-1.amazonaws.com/assets/libs/blue-lightning-2-soflball-banner-1639966281996.png" class="asset" transform="matrix(0.039617136120796204,0,0,0.039617136120796204,84.39035034179688,34.424659729003906)"></image><text fill="#000000" font-family="Skaters" font-size="11" x="233.4709881433567" y="153.62938229385182" transform="matrix(1,0,0,1,-153.37278747558594,-79.27827453613281)" svgjs:data="{&quot;leading&quot;:&quot;1.3&quot;}"><tspan dy="0" x="233.4709881433567" svgjs:data="{&quot;newLined&quot;:true}">PLAYER</tspan></text><image width="643" height="760" xlink:href="https://lct-designs.s3.us-west-1.amazonaws.com/assets/libs/blue-lightning-2-soflball-banner-1639966281996.png" class="asset" transform="matrix(0.039617136120796204,0,0,0.039617136120796204,159.88410949707028,34.8419189453125)"></image><text fill="#000000" font-family="Skaters" font-size="11" x="233.4709881433567" y="153.62938229385182" transform="matrix(1,0,0,1,-77.8790283203125,-78.86102294921875)" svgjs:data="{&quot;leading&quot;:&quot;1.3&quot;}"><tspan dy="0" x="233.4709881433567" svgjs:data="{&quot;newLined&quot;:true}">PLAYER</tspan></text><image width="643" height="760" xlink:href="https://lct-designs.s3.us-west-1.amazonaws.com/assets/libs/blue-lightning-2-soflball-banner-1639966281996.png" class="asset" transform="matrix(0.039617136120796204,0,0,0.039617136120796204,238.08992004394526,34.8419189453125)"></image><text fill="#000000" font-family="Skaters" font-size="11" x="233.4709881433567" y="153.62938229385182" transform="matrix(1,0,0,1,0.3268270492553711,-78.86102294921875)" svgjs:data="{&quot;leading&quot;:&quot;1.3&quot;}"><tspan dy="0" x="233.4709881433567" svgjs:data="{&quot;newLined&quot;:true}">PLAYER</tspan></text><image width="643" height="760" xlink:href="https://lct-designs.s3.us-west-1.amazonaws.com/assets/libs/blue-lightning-2-soflball-banner-1639966281996.png" class="asset" transform="matrix(0.039617136120796204,0,0,0.039617136120796204,394.72415161132807,88.25042724609376)"></image><text fill="#000000" font-family="Skaters" font-size="11" x="233.4709881433567" y="153.62938229385182" transform="matrix(1,0,0,1,156.96099853515625,-25.452491760253906)" svgjs:data="{&quot;leading&quot;:&quot;1.3&quot;}"><tspan dy="0" x="233.4709881433567" svgjs:data="{&quot;newLined&quot;:true}">PLAYER</tspan></text><image width="643" height="760" xlink:href="https://lct-designs.s3.us-west-1.amazonaws.com/assets/libs/blue-lightning-2-soflball-banner-1639966281996.png" class="asset" transform="matrix(0.039617136120796204,0,0,0.039617136120796204,84.39035034179688,87.83318328857423)"></image><text fill="#000000" font-family="Skaters" font-size="11" x="233.4709881433567" y="153.62938229385182" transform="matrix(1,0,0,1,-153.37277221679688,-25.86974716186523)" svgjs:data="{&quot;leading&quot;:&quot;1.3&quot;}"><tspan dy="0" x="233.4709881433567" svgjs:data="{&quot;newLined&quot;:true}">PLAYER</tspan></text><image width="643" height="760" xlink:href="https://lct-designs.s3.us-west-1.amazonaws.com/assets/libs/blue-lightning-2-soflball-banner-1639966281996.png" class="asset" transform="matrix(0.039617136120796204,0,0,0.039617136120796204,159.88403320312503,88.2504425048828)"></image><text fill="#000000" font-family="Skaters" font-size="11" x="233.4709881433567" y="153.62938229385182" transform="matrix(1,0,0,1,-77.87905883789062,-25.452495574951172)" svgjs:data="{&quot;leading&quot;:&quot;1.3&quot;}"><tspan dy="0" x="233.4709881433567" svgjs:data="{&quot;newLined&quot;:true}">PLAYER</tspan></text><image width="643" height="760" xlink:href="https://lct-designs.s3.us-west-1.amazonaws.com/assets/libs/blue-lightning-2-soflball-banner-1639966281996.png" class="asset" transform="matrix(0.039617136120796204,0,0,0.039617136120796204,238.08993530273438,88.2504425048828)"></image><text fill="#000000" font-family="Skaters" font-size="11" x="233.4709881433567" y="153.62938229385182" transform="matrix(1,0,0,1,0.3267984390258789,-25.452497482299805)" svgjs:data="{&quot;leading&quot;:&quot;1.3&quot;}"><tspan dy="0" x="233.4709881433567" svgjs:data="{&quot;newLined&quot;:true}">PLAYER</tspan></text><image width="760" height="695" xlink:href="https://lct-designs.s3.us-west-1.amazonaws.com/assets/libs/earthquakes-1-softball-banner-1640682138447.png" class="asset" transform="matrix(0.10242178291082384,0,0,0.10242178291082381,77.17510986328125,145.21890258789062)"></image><image width="405" height="760" xlink:href="https://lct-designs.s3.us-west-1.amazonaws.com/assets/libs/earthquakes-1-softball-banner-01-1640682138447.png" class="asset" transform="matrix(0.10273884236812592,0,0,0.1027388423681259,385.4675903320313,138.4612274169922)"></image><text fill="#000000" font-family="Skaters" font-size="11" x="200.22943769780005" y="153.62938229385182" transform="matrix(1,0,0,1,-171.48817443847656,-129.14015197753906)" svgjs:data="{&quot;leading&quot;:&quot;1.3&quot;}"><tspan dy="0" x="200.22943769780005" svgjs:data="{&quot;newLined&quot;:true}">COACH: COACH'S NAME</tspan></text><text fill="#000000" font-family="Skaters" font-size="11" x="184.22630583134497" y="153.62938229385182" transform="matrix(1,0,0,1,157.71905517578125,-129.14016723632812)" svgjs:data="{&quot;leading&quot;:&quot;1.3&quot;}"><tspan dy="0" x="184.22630583134497" svgjs:data="{&quot;newLined&quot;:true}">TEAM MOM: TEAM MOM'S NAME</tspan></text><g class="mask" style="pointer-events: none;"><path fill="#777777" enable-background="new    " d="M-1684.9-1014.6v2330.1h3870.8v-2330.1H-1684.9z M500.5,300.5H0.5V0.5h500
	V300.5z"></path></g></svg>