<svg xmlns="http://www.w3.org/2000/svg" version="1.1" xmlns:xlink="http://www.w3.org/1999/xlink" xmlns:svgjs="http://svgjs.dev/svgjs" width="100%" height="100%" viewBox="1 1 499 299" preserveAspectRatio="none" data-info="{&quot;_id&quot;:1,&quot;name&quot;:&quot;HEM &amp; GROMMETS&quot;,&quot;price&quot;:&quot;95.00&quot;,&quot;sale_price&quot;:&quot;89.99&quot;,&quot;cover&quot;:{&quot;key&quot;:&quot;assets/models/hem-1628062436886-1630830942566.png&quot;,&quot;url&quot;:&quot;https://lct-designs.s3.us-west-1.amazonaws.com/assets/models/hem-1628062436886-1630830942566.png&quot;},&quot;back&quot;:{&quot;key&quot;:&quot;assets/models/hem-1630831057346.svg&quot;,&quot;url&quot;:&quot;https://lct-designs.s3.us-west-1.amazonaws.com/assets/models/hem-1630831057346.svg&quot;},&quot;mask&quot;:{&quot;key&quot;:&quot;assets/models/hem.mask-1630831063496.svg&quot;,&quot;url&quot;:&quot;https://lct-designs.s3.us-west-1.amazonaws.com/assets/models/hem.mask-1630831063496.svg&quot;},&quot;information&quot;:&quot;Size 3'x5'&quot;,&quot;type&quot;:&quot;hem-grommet&quot;,&quot;pos&quot;:&quot;1&quot;,&quot;accessories&quot;:&quot;2,3&quot;,&quot;width&quot;:&quot;60&quot;,&quot;height&quot;:&quot;36&quot;}" style="background-color: white;"><g class="model" style="pointer-events: none;"><rect x="0.5" y="0.5" fill="none" stroke="#000000" stroke-miterlimit="10" width="500" height="300"></rect></g><image width="760" height="455" xlink:href="https://lct-designs.s3.us-west-1.amazonaws.com/assets/libs/devil-rays-1-softball-banner-1640682204481.png" class="asset background locked" transform="matrix(0.6593406593406593,0,0,0.6593406593406593,0,0)"></image><text fill="#ffffff" font-family="Antilles" font-size="13" x="234.71839224186743" y="155.08974553176284" transform="matrix(1,0,0,0.9999999999999999,-195.9869842529297,-59.25011432170868)" svgjs:data="{&quot;leading&quot;:&quot;1.3&quot;}"><tspan dy="0" x="234.71839224186743" svgjs:data="{&quot;newLined&quot;:true}">PLAYER</tspan></text><image width="760" height="760" xlink:href="https://lct-designs.s3.us-west-1.amazonaws.com/assets/libs/devil-rays-1-sofball-banner-1640682005963.png" class="asset" transform="matrix(0.06130547821521759,0,0,0.06130547821521758,31.216951370239244,43.67067730426789)"></image><text fill="#ffffff" font-family="Antilles" font-size="13" x="234.71839224186743" y="155.08974553176284" transform="matrix(1,0,0,0.9999999999999999,-195.9869842529297,4.1725159883499146)" svgjs:data="{&quot;leading&quot;:&quot;1.3&quot;}"><tspan dy="0" x="234.71839224186743" svgjs:data="{&quot;newLined&quot;:true}">PLAYER</tspan></text><image width="760" height="760" xlink:href="https://lct-designs.s3.us-west-1.amazonaws.com/assets/libs/devil-rays-1-sofball-banner-1640682005963.png" class="asset" transform="matrix(0.06130547821521759,0,0,0.06130547821521758,31.21696662902832,107.09330761432645)"></image><text fill="#ffffff" font-family="Antilles" font-size="13" x="234.71839224186743" y="155.08974553176284" transform="matrix(1,0,0,0.9999999999999999,-115.05513000488281,-58.41560351848602)" svgjs:data="{&quot;leading&quot;:&quot;1.3&quot;}"><tspan dy="0" x="234.71839224186743" svgjs:data="{&quot;newLined&quot;:true}">PLAYER</tspan></text><image width="760" height="760" xlink:href="https://lct-designs.s3.us-west-1.amazonaws.com/assets/libs/devil-rays-1-sofball-banner-1640682005963.png" class="asset" transform="matrix(0.06130547821521759,0,0,0.06130547821521758,112.1488037109375,44.50518810749053)"></image><text fill="#ffffff" font-family="Antilles" font-size="13" x="234.71839224186743" y="155.08974553176284" transform="matrix(1,0,0,0.9999999999999999,-115.05513000488281,5.007026791572571)" svgjs:data="{&quot;leading&quot;:&quot;1.3&quot;}"><tspan dy="0" x="234.71839224186743" svgjs:data="{&quot;newLined&quot;:true}">PLAYER</tspan></text><image width="760" height="760" xlink:href="https://lct-designs.s3.us-west-1.amazonaws.com/assets/libs/devil-rays-1-sofball-banner-1640682005963.png" class="asset" transform="matrix(0.06130547821521759,0,0,0.06130547821521758,112.14881896972656,107.92781841754913)"></image><text fill="#ffffff" font-family="Antilles" font-size="13" x="234.71839224186743" y="155.08974553176284" transform="matrix(1,0,0,0.9999999999999999,-36.209503173828125,-57.58109271526336)" svgjs:data="{&quot;leading&quot;:&quot;1.3&quot;}"><tspan dy="0" x="234.71839224186743" svgjs:data="{&quot;newLined&quot;:true}">PLAYER</tspan></text><image width="760" height="760" xlink:href="https://lct-designs.s3.us-west-1.amazonaws.com/assets/libs/devil-rays-1-sofball-banner-1640682005963.png" class="asset" transform="matrix(0.06130547821521759,0,0,0.06130547821521758,190.9944305419922,45.33969891071319)"></image><text fill="#ffffff" font-family="Antilles" font-size="13" x="234.71839224186743" y="155.08974553176284" transform="matrix(1,0,0,0.9999999999999999,-36.209503173828125,5.84153759479522)" svgjs:data="{&quot;leading&quot;:&quot;1.3&quot;}"><tspan dy="0" x="234.71839224186743" svgjs:data="{&quot;newLined&quot;:true}">PLAYER</tspan></text><image width="760" height="760" xlink:href="https://lct-designs.s3.us-west-1.amazonaws.com/assets/libs/devil-rays-1-sofball-banner-1640682005963.png" class="asset" transform="matrix(0.06130547821521759,0,0,0.06130547821521758,190.99444580078125,108.76232922077179)"></image><text fill="#ffffff" font-family="Antilles" font-size="13" x="234.71839224186743" y="155.08974553176284" transform="matrix(1,0,0,0.9999999999999999,42.636108398437514,-58.415595889091485)" svgjs:data="{&quot;leading&quot;:&quot;1.3&quot;}"><tspan dy="0" x="234.71839224186743" svgjs:data="{&quot;newLined&quot;:true}">PLAYER</tspan></text><image width="760" height="760" xlink:href="https://lct-designs.s3.us-west-1.amazonaws.com/assets/libs/devil-rays-1-sofball-banner-1640682005963.png" class="asset" transform="matrix(0.06130547821521759,0,0,0.06130547821521758,269.8400268554687,44.505195736885064)"></image><text fill="#ffffff" font-family="Antilles" font-size="13" x="234.71839224186743" y="155.08974553176284" transform="matrix(1,0,0,0.9999999999999999,42.636108398437514,5.007034420967102)" svgjs:data="{&quot;leading&quot;:&quot;1.3&quot;}"><tspan dy="0" x="234.71839224186743" svgjs:data="{&quot;newLined&quot;:true}">PLAYER</tspan></text><image width="760" height="760" xlink:href="https://lct-designs.s3.us-west-1.amazonaws.com/assets/libs/devil-rays-1-sofball-banner-1640682005963.png" class="asset" transform="matrix(0.06130547821521759,0,0,0.06130547821521758,269.8400573730468,107.92782604694364)"></image><text fill="#ffffff" font-family="Antilles" font-size="13" x="234.71839224186743" y="155.08974553176284" transform="matrix(1,0,0,0.9999999999999999,118.56100463867188,-58.415595889091485)" svgjs:data="{&quot;leading&quot;:&quot;1.3&quot;}"><tspan dy="0" x="234.71839224186743" svgjs:data="{&quot;newLined&quot;:true}">PLAYER</tspan></text><image width="760" height="760" xlink:href="https://lct-designs.s3.us-west-1.amazonaws.com/assets/libs/devil-rays-1-sofball-banner-1640682005963.png" class="asset" transform="matrix(0.06130547821521759,0,0,0.06130547821521758,345.7649230957031,44.505195736885064)"></image><text fill="#ffffff" font-family="Antilles" font-size="13" x="234.71839224186743" y="155.08974553176284" transform="matrix(1,0,0,0.9999999999999999,118.56100463867188,5.007034420967102)" svgjs:data="{&quot;leading&quot;:&quot;1.3&quot;}"><tspan dy="0" x="234.71839224186743" svgjs:data="{&quot;newLined&quot;:true}">PLAYER</tspan></text><image width="760" height="760" xlink:href="https://lct-designs.s3.us-west-1.amazonaws.com/assets/libs/devil-rays-1-sofball-banner-1640682005963.png" class="asset" transform="matrix(0.06130547821521759,0,0,0.06130547821521758,345.76495361328125,107.92782604694364)"></image><text fill="#ffffff" font-family="Antilles" font-size="13" x="234.71839224186743" y="155.08974553176284" transform="matrix(1,0,0,0.9999999999999999,193.65139770507812,-57.163833498954766)" svgjs:data="{&quot;leading&quot;:&quot;1.3&quot;}"><tspan dy="0" x="234.71839224186743" svgjs:data="{&quot;newLined&quot;:true}">PLAYER</tspan></text><image width="760" height="760" xlink:href="https://lct-designs.s3.us-west-1.amazonaws.com/assets/libs/devil-rays-1-sofball-banner-1640682005963.png" class="asset" transform="matrix(0.06130547821521759,0,0,0.06130547821521758,420.8553161621094,45.75695812702178)"></image><text fill="#ffffff" font-family="Antilles" font-size="13" x="234.71839224186743" y="155.08974553176284" transform="matrix(1,0,0,0.9999999999999999,193.65139770507812,6.258796811103821)" svgjs:data="{&quot;leading&quot;:&quot;1.3&quot;}"><tspan dy="0" x="234.71839224186743" svgjs:data="{&quot;newLined&quot;:true}">PLAYER</tspan></text><image width="760" height="760" xlink:href="https://lct-designs.s3.us-west-1.amazonaws.com/assets/libs/devil-rays-1-sofball-banner-1640682005963.png" class="asset" transform="matrix(0.06130547821521759,0,0,0.06130547821521758,420.8553466796875,109.17958843708038)"></image><image width="760" height="238" xlink:href="https://lct-designs.s3.us-west-1.amazonaws.com/assets/libs/devil-rays-1-softball-banner-1640682384610.png" class="asset" transform="matrix(0.4366176724433899,0,0,0.4366176724433899,93.18498992919922,175.65026855468747)"></image><text fill="#ffffff" font-family="Antilles" font-size="13" x="200.36126600590552" y="155.08974553176284" transform="matrix(1,0,0,0.9999999999999999,-171.0709686279297,-128.5142822265625)" svgjs:data="{&quot;leading&quot;:&quot;1.3&quot;}"><tspan dy="0" x="200.36126600590552" svgjs:data="{&quot;newLined&quot;:true}">COACH: COACH'S NAME</tspan></text><text fill="#ffffff" font-family="Antilles" font-size="13" x="178.252802718552" y="155.08974553176284" transform="matrix(1,0,0,0.9999999999999999,154.79833984375,-128.51426696777344)" svgjs:data="{&quot;leading&quot;:&quot;1.3&quot;}"><tspan dy="0" x="178.252802718552" svgjs:data="{&quot;newLined&quot;:true}">TEAM MOM: TEAM MOM'S NAME</tspan></text><g class="mask" style="pointer-events: none;"><path fill="#777777" enable-background="new    " d="M-1684.9-1014.6v2330.1h3870.8v-2330.1H-1684.9z M500.5,300.5H0.5V0.5h500
	V300.5z"></path></g></svg>