<svg xmlns="http://www.w3.org/2000/svg" version="1.1" xmlns:xlink="http://www.w3.org/1999/xlink" xmlns:svgjs="http://svgjs.dev/svgjs" width="100%" height="100%" viewBox="1 1 499 299" preserveAspectRatio="none" data-info="{&quot;_id&quot;:1,&quot;name&quot;:&quot;HEM &amp; GROMMETS&quot;,&quot;price&quot;:&quot;95.00&quot;,&quot;sale_price&quot;:&quot;89.99&quot;,&quot;cover&quot;:{&quot;key&quot;:&quot;assets/models/hem-1628062436886-1630830942566.png&quot;,&quot;url&quot;:&quot;https://lct-designs.s3.us-west-1.amazonaws.com/assets/models/hem-1628062436886-1630830942566.png&quot;},&quot;back&quot;:{&quot;key&quot;:&quot;assets/models/hem-1630831057346.svg&quot;,&quot;url&quot;:&quot;https://lct-designs.s3.us-west-1.amazonaws.com/assets/models/hem-1630831057346.svg&quot;},&quot;mask&quot;:{&quot;key&quot;:&quot;assets/models/hem.mask-1630831063496.svg&quot;,&quot;url&quot;:&quot;https://lct-designs.s3.us-west-1.amazonaws.com/assets/models/hem.mask-1630831063496.svg&quot;},&quot;information&quot;:&quot;Size 3'x5'&quot;,&quot;type&quot;:&quot;hem-grommet&quot;,&quot;pos&quot;:&quot;1&quot;,&quot;accessories&quot;:&quot;2,3&quot;,&quot;width&quot;:&quot;60&quot;,&quot;height&quot;:&quot;36&quot;}" style="background-color: white;"><g class="model" style="pointer-events: none;"><rect x="0.5" y="0.5" fill="none" stroke="#000000" stroke-miterlimit="10" width="500" height="300"></rect></g><image width="760" height="455" xlink:href="https://lct-designs.s3.us-west-1.amazonaws.com/assets/libs/dolphins-2-softball-banner-1640682204483.png" class="asset background locked" transform="matrix(0.6593406593406593,0,0,0.6593406593406593,0,0)"></image><image width="760" height="567" xlink:href="https://lct-designs.s3.us-west-1.amazonaws.com/assets/libs/dolphins-2-softball-banner-1640682384612.png" class="asset" transform="matrix(0.3096631169319152,0,0,0.3096631169319153,139.49929809570312,38.008869171142564)"></image><image width="759" height="481" xlink:href="https://lct-designs.s3.us-west-1.amazonaws.com/assets/libs/dolphins-2-sofball-banner-1640682005965.png" class="asset" transform="matrix(0.054548881947994225,0,0,0.05454888194799424,434.4923706054687,42.79056167602539)"></image><text fill="#000000" font-family="SVN-Zero" font-size="10" x="232.83857993664566" y="154.04663292709157" transform="matrix(0.9999999999999999,0,0,1,203.4060668945312,-77.1920166015625)" svgjs:data="{&quot;leading&quot;:&quot;1.3&quot;}"><tspan dy="0" x="232.83857993664566" svgjs:data="{&quot;newLined&quot;:true}">PLAYER</tspan></text><image width="759" height="481" xlink:href="https://lct-designs.s3.us-west-1.amazonaws.com/assets/libs/dolphins-2-sofball-banner-1640682005965.png" class="asset" transform="matrix(-0.05484624952077865,0,0,0.05454888194799424,64.38111877441405,41.53879928588867)"></image><text fill="#000000" font-family="SVN-Zero" font-size="10" x="232.83857993664566" y="154.04663292709157" transform="matrix(0.9999999999999999,0,0,1,-207.17805480957026,-78.02651977539062)" svgjs:data="{&quot;leading&quot;:&quot;1.3&quot;}"><tspan dy="0" x="232.83857993664566" svgjs:data="{&quot;newLined&quot;:true}">PLAYER</tspan></text><image width="759" height="481" xlink:href="https://lct-designs.s3.us-west-1.amazonaws.com/assets/libs/dolphins-2-sofball-banner-1640682005965.png" class="asset" transform="matrix(0.054548881947994225,0,0,0.05454888194799424,417.37136840820307,96.61634826660155)"></image><text fill="#000000" font-family="SVN-Zero" font-size="10" x="232.83857993664566" y="154.04663292709157" transform="matrix(0.9999999999999999,0,0,1,186.28506469726557,-23.366233825683594)" svgjs:data="{&quot;leading&quot;:&quot;1.3&quot;}"><tspan dy="0" x="232.83857993664566" svgjs:data="{&quot;newLined&quot;:true}">PLAYER</tspan></text><image width="759" height="481" xlink:href="https://lct-designs.s3.us-west-1.amazonaws.com/assets/libs/dolphins-2-sofball-banner-1640682005965.png" class="asset" transform="matrix(0.054548881947994225,0,0,0.05454888194799424,406.9263305664062,152.52838897705078)"></image><text fill="#000000" font-family="SVN-Zero" font-size="10" x="232.83857993664566" y="154.04663292709157" transform="matrix(0.9999999999999999,0,0,1,175.84002685546875,32.54580688476564)" svgjs:data="{&quot;leading&quot;:&quot;1.3&quot;}"><tspan dy="0" x="232.83857993664566" svgjs:data="{&quot;newLined&quot;:true}">PLAYER</tspan></text><image width="759" height="481" xlink:href="https://lct-designs.s3.us-west-1.amazonaws.com/assets/libs/dolphins-2-sofball-banner-1640682005965.png" class="asset" transform="matrix(0.054548881947994225,0,0,0.05454888194799424,380.6259155273437,209.69219970703125)"></image><text fill="#000000" font-family="SVN-Zero" font-size="10" x="232.83857993664566" y="154.04663292709157" transform="matrix(0.9999999999999999,0,0,1,149.5396118164062,89.70962524414064)" svgjs:data="{&quot;leading&quot;:&quot;1.3&quot;}"><tspan dy="0" x="232.83857993664566" svgjs:data="{&quot;newLined&quot;:true}">PLAYER</tspan></text><image width="759" height="481" xlink:href="https://lct-designs.s3.us-west-1.amazonaws.com/assets/libs/dolphins-2-sofball-banner-1640682005965.png" class="asset" transform="matrix(0.054548881947994225,0,0,0.05454888194799424,322.61477661132807,238.06547546386724)"></image><text fill="#000000" font-family="SVN-Zero" font-size="10" x="232.83857993664566" y="154.04663292709157" transform="matrix(0.9999999999999999,0,0,1,91.52847290039061,118.08290100097658)" svgjs:data="{&quot;leading&quot;:&quot;1.3&quot;}"><tspan dy="0" x="232.83857993664566" svgjs:data="{&quot;newLined&quot;:true}">PLAYER</tspan></text><image width="759" height="481" xlink:href="https://lct-designs.s3.us-west-1.amazonaws.com/assets/libs/dolphins-2-sofball-banner-1640682005965.png" class="asset" transform="matrix(0.054548881947994225,0,0,0.05454888194799424,259.59671020507807,243.90704345703125)"></image><text fill="#000000" font-family="SVN-Zero" font-size="10" x="232.83857993664566" y="154.04663292709157" transform="matrix(0.9999999999999999,0,0,1,28.510406494140625,123.92446899414064)" svgjs:data="{&quot;leading&quot;:&quot;1.3&quot;}"><tspan dy="0" x="232.83857993664566" svgjs:data="{&quot;newLined&quot;:true}">PLAYER</tspan></text><image width="759" height="481" xlink:href="https://lct-designs.s3.us-west-1.amazonaws.com/assets/libs/dolphins-2-sofball-banner-1640682005965.png" class="asset" transform="matrix(-0.054846256971359246,0,0,0.05454888194799424,78.55358123779295,95.78183746337889)"></image><text fill="#000000" font-family="SVN-Zero" font-size="10" x="232.83857993664566" y="154.04663292709157" transform="matrix(0.9999999999999999,0,0,1,-193.00559234619138,-23.783481597900387)" svgjs:data="{&quot;leading&quot;:&quot;1.3&quot;}"><tspan dy="0" x="232.83857993664566" svgjs:data="{&quot;newLined&quot;:true}">PLAYER</tspan></text><image width="759" height="481" xlink:href="https://lct-designs.s3.us-west-1.amazonaws.com/assets/libs/dolphins-2-sofball-banner-1640682005965.png" class="asset" transform="matrix(-0.05484626442193984,0,0,0.05454888194799424,98.15024566650389,150.85939025878906)"></image><text fill="#000000" font-family="SVN-Zero" font-size="10" x="232.83857993664566" y="154.04663292709157" transform="matrix(0.9999999999999999,0,0,1,-173.40893554687497,31.294071197509766)" svgjs:data="{&quot;leading&quot;:&quot;1.3&quot;}"><tspan dy="0" x="232.83857993664566" svgjs:data="{&quot;newLined&quot;:true}">PLAYER</tspan></text><image width="759" height="481" xlink:href="https://lct-designs.s3.us-west-1.amazonaws.com/assets/libs/dolphins-2-sofball-banner-1640682005965.png" class="asset" transform="matrix(-0.05484627187252044,0,0,0.05454888194799424,116.07792663574217,208.02320861816406)"></image><text fill="#000000" font-family="SVN-Zero" font-size="10" x="232.83857993664566" y="154.04663292709157" transform="matrix(0.9999999999999999,0,0,1,-155.4812545776367,88.45788955688475)" svgjs:data="{&quot;leading&quot;:&quot;1.3&quot;}"><tspan dy="0" x="232.83857993664566" svgjs:data="{&quot;newLined&quot;:true}">PLAYER</tspan></text><image width="759" height="481" xlink:href="https://lct-designs.s3.us-west-1.amazonaws.com/assets/libs/dolphins-2-sofball-banner-1640682005965.png" class="asset" transform="matrix(-0.054846286773681634,0,0,0.05454888194799424,164.88182067871094,237.2310028076172)"></image><text fill="#000000" font-family="SVN-Zero" font-size="10" x="232.83857993664566" y="154.04663292709157" transform="matrix(0.9999999999999999,0,0,1,-106.67736816406249,117.66568756103517)" svgjs:data="{&quot;leading&quot;:&quot;1.3&quot;}"><tspan dy="0" x="232.83857993664566" svgjs:data="{&quot;newLined&quot;:true}">PLAYER</tspan></text><image width="759" height="481" xlink:href="https://lct-designs.s3.us-west-1.amazonaws.com/assets/libs/dolphins-2-sofball-banner-1640682005965.png" class="asset" transform="matrix(-0.05484629422426223,0,0,0.05454888194799424,229.12382507324213,243.48982238769537)"></image><text fill="#000000" font-family="SVN-Zero" font-size="10" x="232.83857993664566" y="154.04663292709157" transform="matrix(0.9999999999999999,0,0,1,-42.43536376953124,123.92450714111327)" svgjs:data="{&quot;leading&quot;:&quot;1.3&quot;}"><tspan dy="0" x="232.83857993664566" svgjs:data="{&quot;newLined&quot;:true}">PLAYER</tspan></text><text fill="#000000" font-family="SVN-Zero" font-size="10" x="198.8261726337892" y="154.6725074464397" transform="matrix(0.9999999999999999,0,0,1,-166.89845275878906,-129.14015197753906)" svgjs:data="{&quot;leading&quot;:&quot;1.3&quot;}"><tspan dy="0" x="198.8261726337892" svgjs:data="{&quot;newLined&quot;:true}">COACH: COACH'S NAME</tspan></text><text fill="#000000" font-family="SVN-Zero" font-size="10" x="173.86613921704117" y="154.6725074464397" transform="matrix(0.9999999999999999,0,0,1,145.618896484375,-129.14015197753906)" svgjs:data="{&quot;leading&quot;:&quot;1.3&quot;}"><tspan dy="0" x="173.86613921704117" svgjs:data="{&quot;newLined&quot;:true}">TEAM MOM: TEAM MOM'S NAME</tspan></text><g class="mask" style="pointer-events: none;"><path fill="#777777" enable-background="new    " d="M-1684.9-1014.6v2330.1h3870.8v-2330.1H-1684.9z M500.5,300.5H0.5V0.5h500
	V300.5z"></path></g></svg>