<svg xmlns="http://www.w3.org/2000/svg" version="1.1" xmlns:xlink="http://www.w3.org/1999/xlink" xmlns:svgjs="http://svgjs.dev/svgjs" width="100%" height="100%" viewBox="1 1 499 299" preserveAspectRatio="none" data-info="{&quot;_id&quot;:1,&quot;name&quot;:&quot;HEM &amp; GROMMETS&quot;,&quot;price&quot;:&quot;95.00&quot;,&quot;sale_price&quot;:&quot;89.99&quot;,&quot;cover&quot;:{&quot;key&quot;:&quot;assets/models/hem-1628062436886-1630830942566.png&quot;,&quot;url&quot;:&quot;https://lct-designs.s3.us-west-1.amazonaws.com/assets/models/hem-1628062436886-1630830942566.png&quot;},&quot;back&quot;:{&quot;key&quot;:&quot;assets/models/hem-1630831057346.svg&quot;,&quot;url&quot;:&quot;https://lct-designs.s3.us-west-1.amazonaws.com/assets/models/hem-1630831057346.svg&quot;},&quot;mask&quot;:{&quot;key&quot;:&quot;assets/models/hem.mask-1630831063496.svg&quot;,&quot;url&quot;:&quot;https://lct-designs.s3.us-west-1.amazonaws.com/assets/models/hem.mask-1630831063496.svg&quot;},&quot;information&quot;:&quot;Size 3'x5'&quot;,&quot;type&quot;:&quot;hem-grommet&quot;,&quot;pos&quot;:&quot;1&quot;,&quot;accessories&quot;:&quot;2,3&quot;,&quot;width&quot;:&quot;60&quot;,&quot;height&quot;:&quot;36&quot;}" style="background-color: white;"><g class="model" style="pointer-events: none;"><rect x="0.5" y="0.5" fill="none" stroke="#000000" stroke-miterlimit="10" width="500" height="300"></rect></g><image width="760" height="455" xlink:href="https://lct-designs.s3.us-west-1.amazonaws.com/assets/libs/pink-dolphins-1-softball-banner-1640684044834.png" class="asset background locked" transform="matrix(0.6593406593406593,0,0,0.6593406593406593,0,0)"></image><image width="689" height="760" xlink:href="https://lct-designs.s3.us-west-1.amazonaws.com/assets/libs/pink-dolphins-1-softball-banner-1640683757132.png" class="asset" transform="matrix(0.19449660181999207,0,0,0.19449660181999207,363.7146911621094,143.14019775390625)"></image><image width="760" height="548" xlink:href="https://lct-designs.s3.us-west-1.amazonaws.com/assets/libs/pink-dolphins-1-sofball-banner-1640683757132.png" class="asset" transform="matrix(0.06234192103147506,0,0,0.06234192103147507,23.804559588432316,158.64685058593747)"></image><text fill="#000000" font-family="Casual" font-size="37" x="185.0856109937414" y="161.4148858613009" transform="matrix(0.262065589427948,0,0,0.262065589427948,-25.444959759712216,163.63400268554688)" svgjs:data="{&quot;leading&quot;:&quot;1.3&quot;}"><tspan dy="0" x="185.0856109937414" svgjs:data="{&quot;newLined&quot;:true}">PLAYER</tspan></text><image width="760" height="548" xlink:href="https://lct-designs.s3.us-west-1.amazonaws.com/assets/libs/pink-dolphins-1-sofball-banner-1640683757132.png" class="asset" transform="matrix(0.06234192103147506,0,0,0.06234192103147507,93.57587420940398,159.68637084960935)"></image><text fill="#000000" font-family="Casual" font-size="37" x="185.0856109937414" y="161.4148858613009" transform="matrix(0.262065589427948,0,0,0.262065589427948,44.32635104656218,164.67352294921875)" svgjs:data="{&quot;leading&quot;:&quot;1.3&quot;}"><tspan dy="0" x="185.0856109937414" svgjs:data="{&quot;newLined&quot;:true}">PLAYER</tspan></text><image width="760" height="548" xlink:href="https://lct-designs.s3.us-west-1.amazonaws.com/assets/libs/pink-dolphins-1-sofball-banner-1640683757132.png" class="asset" transform="matrix(0.06234192103147506,0,0,0.06234192103147507,169.45945727825162,160.20614624023435)"></image><text fill="#000000" font-family="Casual" font-size="37" x="185.0856109937414" y="161.4148858613009" transform="matrix(0.262065589427948,0,0,0.262065589427948,120.20993030071256,165.19329833984375)" svgjs:data="{&quot;leading&quot;:&quot;1.3&quot;}"><tspan dy="0" x="185.0856109937414" svgjs:data="{&quot;newLined&quot;:true}">PLAYER</tspan></text><image width="760" height="548" xlink:href="https://lct-designs.s3.us-west-1.amazonaws.com/assets/libs/pink-dolphins-1-sofball-banner-1640683757132.png" class="asset" transform="matrix(0.06234192103147506,0,0,0.06234192103147507,239.23077380657196,161.24566650390622)"></image><text fill="#000000" font-family="Casual" font-size="37" x="185.0856109937414" y="161.4148858613009" transform="matrix(0.262065589427948,0,0,0.262065589427948,189.98124682903287,166.23281860351562)" svgjs:data="{&quot;leading&quot;:&quot;1.3&quot;}"><tspan dy="0" x="185.0856109937414" svgjs:data="{&quot;newLined&quot;:true}">PLAYER</tspan></text><image width="760" height="548" xlink:href="https://lct-designs.s3.us-west-1.amazonaws.com/assets/libs/pink-dolphins-1-sofball-banner-1640683757132.png" class="asset" transform="matrix(0.06234192103147506,0,0,0.06234192103147507,312.6403502225876,161.76542663574216)"></image><text fill="#000000" font-family="Casual" font-size="37" x="185.0856109937414" y="161.4148858613009" transform="matrix(0.262065589427948,0,0,0.262065589427948,263.3908385038376,166.75257873535156)" svgjs:data="{&quot;leading&quot;:&quot;1.3&quot;}"><tspan dy="0" x="185.0856109937414" svgjs:data="{&quot;newLined&quot;:true}">PLAYER</tspan></text><image width="760" height="548" xlink:href="https://lct-designs.s3.us-west-1.amazonaws.com/assets/libs/pink-dolphins-1-sofball-banner-1640683757132.png" class="asset" transform="matrix(0.06234192103147506,0,0,0.06234192103147507,22.37005233764648,227.2553558349609)"></image><text fill="#000000" font-family="Casual" font-size="37" x="185.0856109937414" y="161.4148858613009" transform="matrix(0.262065589427948,0,0,0.262065589427948,-26.879468917846676,232.24250793457028)" svgjs:data="{&quot;leading&quot;:&quot;1.3&quot;}"><tspan dy="0" x="185.0856109937414" svgjs:data="{&quot;newLined&quot;:true}">PLAYER</tspan></text><image width="760" height="548" xlink:href="https://lct-designs.s3.us-west-1.amazonaws.com/assets/libs/pink-dolphins-1-sofball-banner-1640683757132.png" class="asset" transform="matrix(0.06234192103147506,0,0,0.06234192103147507,92.14136505126952,228.29487609863278)"></image><text fill="#000000" font-family="Casual" font-size="37" x="185.0856109937414" y="161.4148858613009" transform="matrix(0.262065589427948,0,0,0.262065589427948,42.891845703125,233.28202819824216)" svgjs:data="{&quot;leading&quot;:&quot;1.3&quot;}"><tspan dy="0" x="185.0856109937414" svgjs:data="{&quot;newLined&quot;:true}">PLAYER</tspan></text><image width="760" height="548" xlink:href="https://lct-designs.s3.us-west-1.amazonaws.com/assets/libs/pink-dolphins-1-sofball-banner-1640683757132.png" class="asset" transform="matrix(0.06234192103147506,0,0,0.06234192103147507,168.02494812011716,228.81465148925778)"></image><text fill="#000000" font-family="Casual" font-size="37" x="185.0856109937414" y="161.4148858613009" transform="matrix(0.262065589427948,0,0,0.262065589427948,118.7754211425781,233.80180358886722)" svgjs:data="{&quot;leading&quot;:&quot;1.3&quot;}"><tspan dy="0" x="185.0856109937414" svgjs:data="{&quot;newLined&quot;:true}">PLAYER</tspan></text><image width="760" height="548" xlink:href="https://lct-designs.s3.us-west-1.amazonaws.com/assets/libs/pink-dolphins-1-sofball-banner-1640683757132.png" class="asset" transform="matrix(0.06234192103147506,0,0,0.06234192103147507,237.79624938964844,229.85417175292966)"></image><text fill="#000000" font-family="Casual" font-size="37" x="185.0856109937414" y="161.4148858613009" transform="matrix(0.262065589427948,0,0,0.262065589427948,188.5467376708984,234.84132385253903)" svgjs:data="{&quot;leading&quot;:&quot;1.3&quot;}"><tspan dy="0" x="185.0856109937414" svgjs:data="{&quot;newLined&quot;:true}">PLAYER</tspan></text><image width="760" height="548" xlink:href="https://lct-designs.s3.us-west-1.amazonaws.com/assets/libs/pink-dolphins-1-sofball-banner-1640683757132.png" class="asset" transform="matrix(0.06234192103147506,0,0,0.06234192103147507,311.205810546875,230.37393188476554)"></image><text fill="#000000" font-family="Casual" font-size="37" x="185.0856109937414" y="161.4148858613009" transform="matrix(0.262065589427948,0,0,0.262065589427948,261.956298828125,235.36108398437497)" svgjs:data="{&quot;leading&quot;:&quot;1.3&quot;}"><tspan dy="0" x="185.0856109937414" svgjs:data="{&quot;newLined&quot;:true}">PLAYER</tspan></text><image width="760" height="438" xlink:href="https://lct-designs.s3.us-west-1.amazonaws.com/assets/libs/pink-dolphins-1-softball-banner-1640683948797.png" class="asset" transform="matrix(0.3095753788948059,0,0,0.3095753788948059,21.725566864013675,16.71217536926268)"></image><image width="760" height="548" xlink:href="https://lct-designs.s3.us-west-1.amazonaws.com/assets/libs/pink-dolphins-1-sofball-banner-1640683757132.png" class="asset" transform="matrix(0.06234192103147506,0,0,0.06234192103147507,282.88981628417963,80.16290283203125)"></image><text fill="#000000" font-family="Casual" font-size="37" x="185.0856109937414" y="161.4148858613009" transform="matrix(0.262065589427948,0,0,0.262065589427948,233.64028930664062,85.1500549316406)" svgjs:data="{&quot;leading&quot;:&quot;1.3&quot;}"><tspan dy="0" x="185.0856109937414" svgjs:data="{&quot;newLined&quot;:true}">PLAYER</tspan></text><image width="760" height="548" xlink:href="https://lct-designs.s3.us-west-1.amazonaws.com/assets/libs/pink-dolphins-1-sofball-banner-1640683757132.png" class="asset" transform="matrix(0.06234192103147506,0,0,0.06234192103147507,352.66113281249994,81.20242309570312)"></image><text fill="#000000" font-family="Casual" font-size="37" x="185.0856109937414" y="161.4148858613009" transform="matrix(0.262065589427948,0,0,0.262065589427948,303.41160583496094,86.18957519531247)" svgjs:data="{&quot;leading&quot;:&quot;1.3&quot;}"><tspan dy="0" x="185.0856109937414" svgjs:data="{&quot;newLined&quot;:true}">PLAYER</tspan></text><image width="760" height="548" xlink:href="https://lct-designs.s3.us-west-1.amazonaws.com/assets/libs/pink-dolphins-1-sofball-banner-1640683757132.png" class="asset" transform="matrix(0.06234192103147506,0,0,0.06234192103147507,426.07070922851557,81.72218322753906)"></image><text fill="#000000" font-family="Casual" font-size="37" x="185.0856109937414" y="161.4148858613009" transform="matrix(0.262065589427948,0,0,0.262065589427948,376.8211975097656,86.70933532714844)" svgjs:data="{&quot;leading&quot;:&quot;1.3&quot;}"><tspan dy="0" x="185.0856109937414" svgjs:data="{&quot;newLined&quot;:true}">PLAYER</tspan></text><text fill="#000000" font-family="Casual" font-size="37" x="185.0856109937414" y="161.4148858613009" transform="matrix(0.262065589427948,0,0,0.262065589427948,308.08935546875,-17.7626953125)" svgjs:data="{&quot;leading&quot;:&quot;1.3&quot;}"><tspan dy="0" x="185.0856109937414" svgjs:data="{&quot;newLined&quot;:true}">Coach: Coach name</tspan></text><text fill="#000000" font-family="Casual" font-size="37" x="185.0856109937414" y="161.4148858613009" transform="matrix(0.262065589427948,0,0,0.262065589427948,320.68814086914057,-2.169856548309326)" svgjs:data="{&quot;leading&quot;:&quot;1.3&quot;}"><tspan dy="0" x="185.0856109937414" svgjs:data="{&quot;newLined&quot;:true}">Team moms: name</tspan></text><g class="mask" style="pointer-events: none;"><path fill="#777777" enable-background="new    " d="M-1684.9-1014.6v2330.1h3870.8v-2330.1H-1684.9z M500.5,300.5H0.5V0.5h500
	V300.5z"></path></g></svg>