<svg xmlns="http://www.w3.org/2000/svg" version="1.1" xmlns:xlink="http://www.w3.org/1999/xlink" xmlns:svgjs="http://svgjs.dev/svgjs" width="100%" height="100%" viewBox="1 1 499 365.70001220703125" preserveAspectRatio="none" data-info="{&quot;_id&quot;:4,&quot;name&quot;:&quot;POLE POCKET SOCCER BANNERS&quot;,&quot;information&quot;:&quot;- Size: 3’x5’\n- Material: heavy duty vinyl banner\n- Digitally printed on vinyl&quot;,&quot;price&quot;:&quot;95.00&quot;,&quot;sale_price&quot;:&quot;89.99&quot;,&quot;type&quot;:&quot;pole-pocket&quot;,&quot;cover&quot;:{&quot;key&quot;:&quot;assets/models/pole-1628062864266-1631924568908.png&quot;,&quot;url&quot;:&quot;https://lct-designs.s3.us-west-1.amazonaws.com/assets/models/pole-1628062864266-1631924568908.png&quot;},&quot;back&quot;:{&quot;key&quot;:&quot;assets/models/pole-1631924700152.svg&quot;,&quot;url&quot;:&quot;https://lct-designs.s3.us-west-1.amazonaws.com/assets/models/pole-1631924700152.svg&quot;},&quot;mask&quot;:{&quot;key&quot;:&quot;assets/models/pole-mask-1631925211715.svg&quot;,&quot;url&quot;:&quot;https://lct-designs.s3.us-west-1.amazonaws.com/assets/models/pole-mask-1631925211715.svg&quot;},&quot;pos&quot;:&quot;2&quot;,&quot;accessories&quot;:&quot;2,3&quot;}" style="background-color: white;"><g class="model" style="pointer-events: none;"><polygon fill="#FFFFFF" points="0.5,0.5 0.5,67.2 0.5,300.5 0.5,367.2 500.5,367.2 500.5,300.5 500.5,67.2 500.5,0.5 "></polygon></g><image width="760" height="556" xlink:href="https://lct-designs.s3.us-west-1.amazonaws.com/assets/libs/blue-jays4-baseball-banner-1640339517356.png" class="asset background locked" transform="matrix(0.6595323960558116,0,0,0.6595323960558116,0,0)"></image><text fill="#ffffff" font-family="Impact" font-size="45" x="192.06642438162737" y="201.88927563680983" stroke-opacity="1" stroke-width="1" stroke="#000000" transform="matrix(0.45689633488655085,0,0,0.45689633488655085,260.966064453125,32.54942321777342)" svgjs:data="{&quot;leading&quot;:&quot;1.3&quot;}"><tspan dy="0" x="192.06642438162737" svgjs:data="{&quot;newLined&quot;:true}">Player</tspan></text><text fill="#ffffff" font-family="Impact" font-size="45" x="192.06642438162737" y="201.88927563680983" stroke-opacity="1" stroke-width="1" stroke="#000000" transform="matrix(0.45689630508422846,0,0,0.4568963050842285,339.6849670410156,32.54943084716798)" svgjs:data="{&quot;leading&quot;:&quot;1.3&quot;}"><tspan dy="0" x="192.06642438162737" svgjs:data="{&quot;newLined&quot;:true}">Player</tspan></text><image width="760" height="619" xlink:href="https://lct-designs.s3.us-west-1.amazonaws.com/assets/libs/blue-jays4-baseball-banner-1640339769754.png" class="asset" transform="matrix(0.05654145032167435,0,0,0.05654145032167435,352.7794189453125,133.42124938964844)"></image><image width="760" height="619" xlink:href="https://lct-designs.s3.us-west-1.amazonaws.com/assets/libs/blue-jays4-baseball-banner-1640339769754.png" class="asset" transform="matrix(0.05654145032167435,0,0,0.05654145032167435,431.498291015625,133.42124938964844)"></image><text fill="#fafafa" font-family="Impact" font-size="30" x="192.06642438162737" y="201.88927563680983" transform="matrix(0.4291115999221802,0,0,0.4291115999221802,289.95892333984375,5.094436645507798)" svgjs:data="{&quot;leading&quot;:&quot;1.3&quot;}"><tspan dy="0" x="192.06642438162737" svgjs:data="{&quot;newLined&quot;:true}">Coach: Coach name</tspan></text><image width="760" height="682" xlink:href="https://lct-designs.s3.us-west-1.amazonaws.com/assets/libs/blue-jays4-baseball-banner-1640339698566.png" class="asset" transform="matrix(0.1469869762659073,0,0,0.1469869762659073,373.5011291503906,184.27711486816406)"></image><image width="760" height="760" xlink:href="https://lct-designs.s3.us-west-1.amazonaws.com/assets/libs/blue-jays4-baseball-banner-1640339725765.png" class="asset" transform="matrix(0.19455741345882413,0,0,0.19159837067127228,169.74104309082034,79.13771057128908)"></image><text fill="#ffffff" font-family="Impact" font-size="45" x="192.06642438162737" y="201.88927563680983" stroke-opacity="1" stroke-width="1" stroke="#000000" transform="matrix(0.4568964838981628,0,0,0.45689648389816284,-69.41616058349608,7.520257949829102)" svgjs:data="{&quot;leading&quot;:&quot;1.3&quot;}"><tspan dy="0" x="192.06642438162737" svgjs:data="{&quot;newLined&quot;:true}">Player</tspan></text><text fill="#ffffff" font-family="Impact" font-size="45" x="192.06642438162737" y="201.88927563680983" stroke-opacity="1" stroke-width="1" stroke="#000000" transform="matrix(0.45689654350280756,0,0,0.4568965435028076,3.7021732330322266,7.520266532897949)" svgjs:data="{&quot;leading&quot;:&quot;1.3&quot;}"><tspan dy="0" x="192.06642438162737" svgjs:data="{&quot;newLined&quot;:true}">Player</tspan></text><image width="760" height="619" xlink:href="https://lct-designs.s3.us-west-1.amazonaws.com/assets/libs/blue-jays4-baseball-banner-1640339769754.png" class="asset" transform="matrix(0.056541461497545235,0,0,0.056541461497545235,23.73758125305175,109.08303833007811)"></image><image width="760" height="619" xlink:href="https://lct-designs.s3.us-west-1.amazonaws.com/assets/libs/blue-jays4-baseball-banner-1640339769754.png" class="asset" transform="matrix(0.056541480123996735,0,0,0.056541480123996735,96.85592651367188,109.08302307128908)"></image><text fill="#ffffff" font-family="Impact" font-size="45" x="192.06642438162737" y="201.88927563680983" stroke-opacity="1" stroke-width="1" stroke="#000000" transform="matrix(0.45689654350280756,0,0,0.4568965435028076,-69.41616821289062,77.83985137939452)" svgjs:data="{&quot;leading&quot;:&quot;1.3&quot;}"><tspan dy="0" x="192.06642438162737" svgjs:data="{&quot;newLined&quot;:true}">Player</tspan></text><text fill="#ffffff" font-family="Impact" font-size="45" x="192.06642438162737" y="201.88927563680983" stroke-opacity="1" stroke-width="1" stroke="#000000" transform="matrix(0.45689657330513,0,0,0.45689657330513006,3.7021682262420654,77.83982849121092)" svgjs:data="{&quot;leading&quot;:&quot;1.3&quot;}"><tspan dy="0" x="192.06642438162737" svgjs:data="{&quot;newLined&quot;:true}">Player</tspan></text><image width="760" height="619" xlink:href="https://lct-designs.s3.us-west-1.amazonaws.com/assets/libs/blue-jays4-baseball-banner-1640339769754.png" class="asset" transform="matrix(0.056541480123996735,0,0,0.056541480123996735,23.73757553100586,179.40255737304688)"></image><image width="760" height="619" xlink:href="https://lct-designs.s3.us-west-1.amazonaws.com/assets/libs/blue-jays4-baseball-banner-1640339769754.png" class="asset" transform="matrix(0.056541480123996735,0,0,0.056541480123996735,96.85591888427734,179.402587890625)"></image><text fill="#ffffff" font-family="Impact" font-size="45" x="192.06642438162737" y="201.88927563680983" stroke-opacity="1" stroke-width="1" stroke="#000000" transform="matrix(0.4568966925144195,0,0,0.45689669251441956,-69.41621398925781,159.77259826660156)" svgjs:data="{&quot;leading&quot;:&quot;1.3&quot;}"><tspan dy="0" x="192.06642438162737" svgjs:data="{&quot;newLined&quot;:true}">Player</tspan></text><image width="760" height="619" xlink:href="https://lct-designs.s3.us-west-1.amazonaws.com/assets/libs/blue-jays4-baseball-banner-1640339769754.png" class="asset" transform="matrix(0.056541480123996735,0,0,0.056541480123996735,23.73756790161132,256.1739807128907)"></image><text fill="#ffffff" font-family="Impact" font-size="45" x="192.06642438162737" y="201.88927563680983" stroke-opacity="1" stroke-width="1" stroke="#000000" transform="matrix(0.4568968415260315,0,0,0.4568968415260315,3.702101707458496,159.7725830078125)" svgjs:data="{&quot;leading&quot;:&quot;1.3&quot;}"><tspan dy="0" x="192.06642438162737" svgjs:data="{&quot;newLined&quot;:true}">Player</tspan></text><image width="760" height="619" xlink:href="https://lct-designs.s3.us-west-1.amazonaws.com/assets/libs/blue-jays4-baseball-banner-1640339769754.png" class="asset" transform="matrix(0.05654149875044823,0,0,0.05654149875044823,96.85590362548828,256.1739807128907)"></image><text fill="#ffffff" font-family="Impact" font-size="45" x="192.06642438162737" y="201.88927563680983" stroke-opacity="1" stroke-width="1" stroke="#000000" transform="matrix(0.4568967819213867,0,0,0.4568967819213867,80.05998992919922,159.77256774902344)" svgjs:data="{&quot;leading&quot;:&quot;1.3&quot;}"><tspan dy="0" x="192.06642438162737" svgjs:data="{&quot;newLined&quot;:true}">Player</tspan></text><text fill="#ffffff" font-family="Impact" font-size="45" x="192.06642438162737" y="201.88927563680983" stroke-opacity="1" stroke-width="1" stroke="#000000" transform="matrix(0.4568968117237091,0,0,0.4568968117237091,153.8005828857422,159.77256774902344)" svgjs:data="{&quot;leading&quot;:&quot;1.3&quot;}"><tspan dy="0" x="192.06642438162737" svgjs:data="{&quot;newLined&quot;:true}">Player</tspan></text><text fill="#ffffff" font-family="Impact" font-size="45" x="192.06642438162737" y="201.88927563680983" stroke-opacity="1" stroke-width="1" stroke="#000000" transform="matrix(0.4568968713283539,0,0,0.4568968713283539,226.29661560058588,159.7725830078125)" svgjs:data="{&quot;leading&quot;:&quot;1.3&quot;}"><tspan dy="0" x="192.06642438162737" svgjs:data="{&quot;newLined&quot;:true}">Player</tspan></text><image width="760" height="619" xlink:href="https://lct-designs.s3.us-west-1.amazonaws.com/assets/libs/blue-jays4-baseball-banner-1640339769754.png" class="asset" transform="matrix(0.05654152110219001,0,0,0.05654152110219002,172.51850891113278,256.1739501953125)"></image><image width="760" height="619" xlink:href="https://lct-designs.s3.us-west-1.amazonaws.com/assets/libs/blue-jays4-baseball-banner-1640339769754.png" class="asset" transform="matrix(0.056541524827480316,0,0,0.056541524827480316,246.25909423828125,256.1739501953125)"></image><image width="760" height="619" xlink:href="https://lct-designs.s3.us-west-1.amazonaws.com/assets/libs/blue-jays4-baseball-banner-1640339769754.png" class="asset" transform="matrix(0.0565415397286415,0,0,0.05654153972864151,318.7551574707031,256.1739196777343)"></image><g class="mask" style="pointer-events: none;"><g><path fill="#BCBEC0" d="M-3642.4-2101.7v4589.1h7813.4v-4589.1H-3642.4z M500.5,67.2v233.3v66.7H0.5v-66.7V67.2V0.5h500V67.2z" transform="matrix(1,0,0,1,0,0)"></path><g transform="matrix(1,0,0,1,0,0)">
	<rect x="0.5" y="300.5" opacity="0.95" fill="#F1F2F2" width="500" height="66.7"></rect>
	<rect x="0.5" y="0.5" opacity="0.95" fill="#F1F2F2" width="500" height="66.7"></rect>
</g></g></g></svg>