<svg xmlns="http://www.w3.org/2000/svg" version="1.1" xmlns:xlink="http://www.w3.org/1999/xlink" xmlns:svgjs="http://svgjs.dev/svgjs" width="100%" height="100%" viewBox="1 1 499 365.70001220703125" preserveAspectRatio="none" data-info="{&quot;_id&quot;:4,&quot;name&quot;:&quot;POLE POCKET SOCCER BANNERS&quot;,&quot;information&quot;:&quot;- Size: 3’x5’\n- Material: heavy duty vinyl banner\n- Digitally printed on vinyl&quot;,&quot;price&quot;:&quot;95.00&quot;,&quot;sale_price&quot;:&quot;89.99&quot;,&quot;type&quot;:&quot;pole-pocket&quot;,&quot;cover&quot;:{&quot;key&quot;:&quot;assets/models/pole-1628062864266-1631924568908.png&quot;,&quot;url&quot;:&quot;https://lct-designs.s3.us-west-1.amazonaws.com/assets/models/pole-1628062864266-1631924568908.png&quot;},&quot;back&quot;:{&quot;key&quot;:&quot;assets/models/pole-1631924700152.svg&quot;,&quot;url&quot;:&quot;https://lct-designs.s3.us-west-1.amazonaws.com/assets/models/pole-1631924700152.svg&quot;},&quot;mask&quot;:{&quot;key&quot;:&quot;assets/models/pole-mask-1631925211715.svg&quot;,&quot;url&quot;:&quot;https://lct-designs.s3.us-west-1.amazonaws.com/assets/models/pole-mask-1631925211715.svg&quot;},&quot;pos&quot;:&quot;2&quot;,&quot;accessories&quot;:&quot;2,3&quot;}" style="background-color: white;"><g class="model" style="pointer-events: none;"><polygon fill="#FFFFFF" points="0.5,0.5 0.5,67.2 0.5,300.5 0.5,367.2 500.5,367.2 500.5,300.5 500.5,67.2 500.5,0.5 "></polygon></g><image width="760" height="556" xlink:href="https://lct-designs.s3.us-west-1.amazonaws.com/assets/libs/chicago-white-baseball-banner-1641963476263.png" class="asset background locked" transform="matrix(0.6595323960558116,0,0,0.6595323960558116,0,0)"></image><text fill="#ffffff" font-family="Antilles" font-size="45" x="183.0424019425702" y="194.2513174777817" stroke-opacity="1" stroke-width="2" stroke="#000000" transform="matrix(0.33355310559272766,0,0,0.33355310559272766,-45.06806564331055,219.45742797851557)" svgjs:data="{&quot;leading&quot;:&quot;1.3&quot;}"><tspan dy="0" x="183.0424019425702" svgjs:data="{&quot;newLined&quot;:true}">coach: coach's name</tspan></text><image width="542" height="760" xlink:href="https://lct-designs.s3.us-west-1.amazonaws.com/assets/libs/chicago-white-3-baseball-banner-1641962912469.png" class="asset" transform="matrix(0.20293958485126493,0,0,0.20293958485126493,21.920093536376946,107.34703826904297)"></image><text fill="#ffffff" font-family="UTM Rockwell" font-size="45" x="183.0424019425702" y="194.2513174777817" stroke-opacity="1" stroke-width="3" stroke="#000000" transform="matrix(0.2780422866344452,0,0,0.2780422866344452,218.269287109375,50.2229919433594)" svgjs:data="{&quot;leading&quot;:&quot;1.3&quot;}"><tspan dy="0" x="183.0424019425702" svgjs:data="{&quot;newLined&quot;:true}">PLAYER</tspan></text><image width="760" height="760" xlink:href="https://lct-designs.s3.us-west-1.amazonaws.com/assets/libs/chicago-white-2-baseball-banner-1640339769755.png" class="asset" transform="matrix(0.03968995064496994,0,0,0.03968995064496993,240.8617706298828,82.08699798583984)"></image><image width="760" height="760" xlink:href="https://lct-designs.s3.us-west-1.amazonaws.com/assets/libs/chicago-white-2-baseball-banner-1640339769755.png" class="asset" transform="matrix(0.03968995064496994,0,0,0.03968995064496993,236.00294494628906,127.40646362304688)"></image><text fill="#ffffff" font-family="UTM Rockwell" font-size="45" x="183.0424019425702" y="194.2513174777817" stroke-opacity="1" stroke-width="3" stroke="#000000" transform="matrix(0.2780422866344452,0,0,0.2780422866344452,213.41046142578125,95.5424575805664)" svgjs:data="{&quot;leading&quot;:&quot;1.3&quot;}"><tspan dy="0" x="183.0424019425702" svgjs:data="{&quot;newLined&quot;:true}">PLAYER</tspan></text><image width="760" height="760" xlink:href="https://lct-designs.s3.us-west-1.amazonaws.com/assets/libs/chicago-white-2-baseball-banner-1640339769755.png" class="asset" transform="matrix(0.03968995064496994,0,0,0.03968995064496993,265.25999450683594,216.9309844970703)"></image><text fill="#ffffff" font-family="UTM Rockwell" font-size="45" x="183.0424019425702" y="194.2513174777817" stroke-opacity="1" stroke-width="3" stroke="#000000" transform="matrix(0.2780422866344452,0,0,0.2780422866344452,242.6675262451172,182.8322296142578)" svgjs:data="{&quot;leading&quot;:&quot;1.3&quot;}"><tspan dy="0" x="183.0424019425702" svgjs:data="{&quot;newLined&quot;:true}">PLAYER</tspan></text><image width="760" height="760" xlink:href="https://lct-designs.s3.us-west-1.amazonaws.com/assets/libs/chicago-white-2-baseball-banner-1640339769755.png" class="asset" transform="matrix(0.03968995064496994,0,0,0.03968995064496993,155.6463165283203,218.41687011718744)"></image><text fill="#ffffff" font-family="UTM Rockwell" font-size="45" x="183.0424019425702" y="194.2513174777817" stroke-opacity="1" stroke-width="3" stroke="#000000" transform="matrix(0.2780422866344452,0,0,0.2780422866344452,133.05384826660156,184.31808471679688)" svgjs:data="{&quot;leading&quot;:&quot;1.3&quot;}"><tspan dy="0" x="183.0424019425702" svgjs:data="{&quot;newLined&quot;:true}">PLAYER</tspan></text><image width="760" height="760" xlink:href="https://lct-designs.s3.us-west-1.amazonaws.com/assets/libs/chicago-white-2-baseball-banner-1640339769755.png" class="asset" transform="matrix(0.03968995064496994,0,0,0.03968995064496993,274.51702880859375,259.2786712646485)"></image><text fill="#ffffff" font-family="UTM Rockwell" font-size="45" x="183.0424019425702" y="194.2513174777817" stroke-opacity="1" stroke-width="3" stroke="#000000" transform="matrix(0.2780422866344452,0,0,0.2780422866344452,251.92457580566406,225.17991638183594)" svgjs:data="{&quot;leading&quot;:&quot;1.3&quot;}"><tspan dy="0" x="183.0424019425702" svgjs:data="{&quot;newLined&quot;:true}">PLAYER</tspan></text><image width="760" height="760" xlink:href="https://lct-designs.s3.us-west-1.amazonaws.com/assets/libs/chicago-white-2-baseball-banner-1640339769755.png" class="asset" transform="matrix(0.03968995064496994,0,0,0.03968995064496993,160.44572448730472,256.3069152832031)"></image><text fill="#ffffff" font-family="UTM Rockwell" font-size="45" x="183.0424019425702" y="194.2513174777817" stroke-opacity="1" stroke-width="3" stroke="#000000" transform="matrix(0.2780422866344452,0,0,0.2780422866344452,137.85325622558594,222.20812988281244)" svgjs:data="{&quot;leading&quot;:&quot;1.3&quot;}"><tspan dy="0" x="183.0424019425702" svgjs:data="{&quot;newLined&quot;:true}">PLAYER</tspan></text><image width="760" height="760" xlink:href="https://lct-designs.s3.us-west-1.amazonaws.com/assets/libs/chicago-white-2-baseball-banner-1640339769755.png" class="asset" transform="matrix(0.03968995064496994,0,0,0.03968995064496993,154.62106323242188,174.9547576904297)"></image><text fill="#ffffff" font-family="UTM Rockwell" font-size="45" x="183.0424019425702" y="194.2513174777817" stroke-opacity="1" stroke-width="3" stroke="#000000" transform="matrix(0.2780422866344452,0,0,0.2780422866344452,132.0285797119141,143.09075927734375)" svgjs:data="{&quot;leading&quot;:&quot;1.3&quot;}"><tspan dy="0" x="183.0424019425702" svgjs:data="{&quot;newLined&quot;:true}">PLAYER</tspan></text><image width="760" height="760" xlink:href="https://lct-designs.s3.us-west-1.amazonaws.com/assets/libs/chicago-white-2-baseball-banner-1640339769755.png" class="asset" transform="matrix(0.03968995064496994,0,0,0.03968995064496993,262.68946838378906,172.7259063720703)"></image><text fill="#ffffff" font-family="UTM Rockwell" font-size="45" x="183.0424019425702" y="194.2513174777817" stroke-opacity="1" stroke-width="3" stroke="#000000" transform="matrix(0.2780422866344452,0,0,0.2780422866344452,240.0969696044922,140.86190795898438)" svgjs:data="{&quot;leading&quot;:&quot;1.3&quot;}"><tspan dy="0" x="183.0424019425702" svgjs:data="{&quot;newLined&quot;:true}">PLAYER</tspan></text><text fill="#ffffff" font-family="UTM Rockwell" font-size="45" x="183.0424019425702" y="194.2513174777817" stroke-opacity="1" stroke-width="3" stroke="#000000" transform="matrix(0.2780422866344452,0,0,0.2780422866344452,104.19796752929688,47.251220703125)" svgjs:data="{&quot;leading&quot;:&quot;1.3&quot;}"><tspan dy="0" x="183.0424019425702" svgjs:data="{&quot;newLined&quot;:true}">PLAYER</tspan></text><image width="760" height="760" xlink:href="https://lct-designs.s3.us-west-1.amazonaws.com/assets/libs/chicago-white-2-baseball-banner-1640339769755.png" class="asset" transform="matrix(0.03968995064496994,0,0,0.03968995064496993,126.79045104980472,79.1152267456055)"></image><text fill="#ffffff" font-family="UTM Rockwell" font-size="45" x="183.0424019425702" y="194.2513174777817" stroke-opacity="1" stroke-width="3" stroke="#000000" transform="matrix(0.2780422866344452,0,0,0.2780422866344452,106.76855468749997,100.00009918212893)" svgjs:data="{&quot;leading&quot;:&quot;1.3&quot;}"><tspan dy="0" x="183.0424019425702" svgjs:data="{&quot;newLined&quot;:true}">PLAYER</tspan></text><image width="760" height="760" xlink:href="https://lct-designs.s3.us-west-1.amazonaws.com/assets/libs/chicago-white-2-baseball-banner-1640339769755.png" class="asset" transform="matrix(0.03968995064496994,0,0,0.03968995064496993,129.3610382080078,131.86410522460938)"></image><image width="547" height="760" xlink:href="https://lct-designs.s3.us-west-1.amazonaws.com/assets/libs/chicago-white-baseball-banner-1641963542900.png" class="asset" transform="matrix(0.19902935624122622,0,0,0.19902935624122617,373.7456970214844,131.1211700439453)"></image><text fill="#ffffff" font-family="UTM Rockwell" font-size="45" x="183.0424019425702" y="194.2513174777817" stroke-opacity="1" stroke-width="3" stroke="#000000" transform="matrix(0.2780422866344452,0,0,0.2780422866344452,335.9958801269531,55.423583984375)" svgjs:data="{&quot;leading&quot;:&quot;1.3&quot;}"><tspan dy="0" x="183.0424019425702" svgjs:data="{&quot;newLined&quot;:true}">PLAYER</tspan></text><image width="760" height="760" xlink:href="https://lct-designs.s3.us-west-1.amazonaws.com/assets/libs/chicago-white-2-baseball-banner-1640339769755.png" class="asset" transform="matrix(0.03968995064496994,0,0,0.03968995064496993,358.5883636474609,87.28759002685547)"></image><g class="mask" style="pointer-events: none;"><g><path fill="#BCBEC0" d="M-3642.4-2101.7v4589.1h7813.4v-4589.1H-3642.4z M500.5,67.2v233.3v66.7H0.5v-66.7V67.2V0.5h500V67.2z" transform="matrix(1,0,0,1,0,0)"></path><g transform="matrix(1,0,0,1,0,0)">
	<rect x="0.5" y="300.5" opacity="0.95" fill="#F1F2F2" width="500" height="66.7"></rect>
	<rect x="0.5" y="0.5" opacity="0.95" fill="#F1F2F2" width="500" height="66.7"></rect>
</g></g></g></svg>