<svg xmlns="http://www.w3.org/2000/svg" version="1.1" xmlns:xlink="http://www.w3.org/1999/xlink" xmlns:svgjs="http://svgjs.dev/svgjs" width="100%" height="100%" viewBox="1 1 499 365.70001220703125" preserveAspectRatio="none" data-info="{&quot;_id&quot;:4,&quot;name&quot;:&quot;POLE POCKET SOCCER BANNERS&quot;,&quot;information&quot;:&quot;- Size: 3’x5’\n- Material: heavy duty vinyl banner\n- Digitally printed on vinyl&quot;,&quot;price&quot;:&quot;95.00&quot;,&quot;sale_price&quot;:&quot;89.99&quot;,&quot;type&quot;:&quot;pole-pocket&quot;,&quot;cover&quot;:{&quot;key&quot;:&quot;assets/models/pole-1628062864266-1631924568908.png&quot;,&quot;url&quot;:&quot;https://lct-designs.s3.us-west-1.amazonaws.com/assets/models/pole-1628062864266-1631924568908.png&quot;},&quot;back&quot;:{&quot;key&quot;:&quot;assets/models/pole-1631924700152.svg&quot;,&quot;url&quot;:&quot;https://lct-designs.s3.us-west-1.amazonaws.com/assets/models/pole-1631924700152.svg&quot;},&quot;mask&quot;:{&quot;key&quot;:&quot;assets/models/pole-mask-1631925211715.svg&quot;,&quot;url&quot;:&quot;https://lct-designs.s3.us-west-1.amazonaws.com/assets/models/pole-mask-1631925211715.svg&quot;},&quot;pos&quot;:&quot;2&quot;,&quot;accessories&quot;:&quot;2,3&quot;}" style="background-color: white;"><g class="model" style="pointer-events: none;"><polygon fill="#FFFFFF" points="0.5,0.5 0.5,67.2 0.5,300.5 0.5,367.2 500.5,367.2 500.5,300.5 500.5,67.2 500.5,0.5 "></polygon></g><image width="760" height="556" xlink:href="https://lct-designs.s3.us-west-1.amazonaws.com/assets/libs/devil-1-softball-banner-1640682447703.png" class="asset background locked" transform="matrix(0.6595323960558116,0,0,0.6595323960558116,0,0)"></image><image width="760" height="426" xlink:href="https://lct-designs.s3.us-west-1.amazonaws.com/assets/libs/devil-1-softball-banner-1640682384609.png" class="asset" transform="matrix(0.260919988155365,0,0,0.260919988155365,143.8896942138672,72.925537109375)"></image><image width="760" height="726" xlink:href="https://lct-designs.s3.us-west-1.amazonaws.com/assets/libs/devil-1-softball-banner-01-1640682138445.png" class="asset" transform="matrix(0.1315789371728897,0,0,0.13157893717288974,192.4175262451172,190.68745422363284)"></image><image width="643" height="760" xlink:href="https://lct-designs.s3.us-west-1.amazonaws.com/assets/libs/devil-1-sofball-banner-1640682005963.png" class="asset" transform="matrix(0.040455322712659836,0,0,0.040455322712659836,22.77189064025879,91.39266204833984)"></image><text fill="#ffffff" font-family="Roboto Condensed" font-size="11" x="164.76689468260355" y="199.1507323234961" transform="matrix(1,0,0,1,-146.41940307617188,-67.83444976806642)" svgjs:data="{&quot;leading&quot;:&quot;1.3&quot;}"><tspan dy="0" x="164.76689468260355" svgjs:data="{&quot;newLined&quot;:true}">PLAYER</tspan></text><image width="643" height="760" xlink:href="https://lct-designs.s3.us-west-1.amazonaws.com/assets/libs/devil-1-sofball-banner-1640682005963.png" class="asset" transform="matrix(0.04045533761382103,0,0,0.04045533761382103,22.77187728881836,159.7371520996094)"></image><text fill="#ffffff" font-family="Roboto Condensed" font-size="11" x="164.76689468260355" y="199.1507323234961" transform="matrix(1,0,0,1,-146.41940307617188,0.5100326538085938)" svgjs:data="{&quot;leading&quot;:&quot;1.3&quot;}"><tspan dy="0" x="164.76689468260355" svgjs:data="{&quot;newLined&quot;:true}">PLAYER</tspan></text><image width="643" height="760" xlink:href="https://lct-designs.s3.us-west-1.amazonaws.com/assets/libs/devil-1-sofball-banner-1640682005963.png" class="asset" transform="matrix(0.04045533761382103,0,0,0.04045533761382103,22.77189064025879,233.6919708251953)"></image><text fill="#ffffff" font-family="Roboto Condensed" font-size="11" x="164.76689468260355" y="199.1507323234961" transform="matrix(1,0,0,1,-146.41940307617188,74.46485137939453)" svgjs:data="{&quot;leading&quot;:&quot;1.3&quot;}"><tspan dy="0" x="164.76689468260355" svgjs:data="{&quot;newLined&quot;:true}">PLAYER</tspan></text><image width="643" height="760" xlink:href="https://lct-designs.s3.us-west-1.amazonaws.com/assets/libs/devil-1-sofball-banner-1640682005963.png" class="asset" transform="matrix(0.04045533761382103,0,0,0.04045533761382103,85.81333923339844,106.69366455078128)"></image><text fill="#ffffff" font-family="Roboto Condensed" font-size="11" x="164.76689468260355" y="199.1507323234961" transform="matrix(1,0,0,1,-83.3779525756836,-52.533447265625)" svgjs:data="{&quot;leading&quot;:&quot;1.3&quot;}"><tspan dy="0" x="164.76689468260355" svgjs:data="{&quot;newLined&quot;:true}">PLAYER</tspan></text><image width="643" height="760" xlink:href="https://lct-designs.s3.us-west-1.amazonaws.com/assets/libs/devil-1-sofball-banner-1640682005963.png" class="asset" transform="matrix(0.04045535251498223,0,0,0.040455352514982224,85.81332397460938,175.03816223144534)"></image><text fill="#ffffff" font-family="Roboto Condensed" font-size="11" x="164.76689468260355" y="199.1507323234961" transform="matrix(1,0,0,1,-83.3779525756836,15.811035156250007)" svgjs:data="{&quot;leading&quot;:&quot;1.3&quot;}"><tspan dy="0" x="164.76689468260355" svgjs:data="{&quot;newLined&quot;:true}">PLAYER</tspan></text><image width="643" height="760" xlink:href="https://lct-designs.s3.us-west-1.amazonaws.com/assets/libs/devil-1-sofball-banner-1640682005963.png" class="asset" transform="matrix(0.04045535251498223,0,0,0.040455352514982224,85.81333923339844,248.9929656982422)"></image><text fill="#ffffff" font-family="Roboto Condensed" font-size="11" x="164.76689468260355" y="199.1507323234961" transform="matrix(1,0,0,1,-83.3779525756836,89.76585388183594)" svgjs:data="{&quot;leading&quot;:&quot;1.3&quot;}"><tspan dy="0" x="164.76689468260355" svgjs:data="{&quot;newLined&quot;:true}">PLAYER</tspan></text><image width="643" height="760" xlink:href="https://lct-designs.s3.us-west-1.amazonaws.com/assets/libs/devil-1-sofball-banner-1640682005963.png" class="asset" transform="matrix(0.04045535251498223,0,0,0.040455352514982224,377.3410339355469,106.18363189697266)"></image><text fill="#ffffff" font-family="Roboto Condensed" font-size="11" x="164.76689468260355" y="199.1507323234961" transform="matrix(1,0,0,1,208.14971923828125,-53.043479919433594)" svgjs:data="{&quot;leading&quot;:&quot;1.3&quot;}"><tspan dy="0" x="164.76689468260355" svgjs:data="{&quot;newLined&quot;:true}">PLAYER</tspan></text><image width="643" height="760" xlink:href="https://lct-designs.s3.us-west-1.amazonaws.com/assets/libs/devil-1-sofball-banner-1640682005963.png" class="asset" transform="matrix(0.04045535996556282,0,0,0.04045535996556282,377.34100341796875,174.52813720703125)"></image><text fill="#ffffff" font-family="Roboto Condensed" font-size="11" x="164.76689468260355" y="199.1507323234961" transform="matrix(1,0,0,1,208.14971923828125,15.3010025024414)" svgjs:data="{&quot;leading&quot;:&quot;1.3&quot;}"><tspan dy="0" x="164.76689468260355" svgjs:data="{&quot;newLined&quot;:true}">PLAYER</tspan></text><image width="643" height="760" xlink:href="https://lct-designs.s3.us-west-1.amazonaws.com/assets/libs/devil-1-sofball-banner-1640682005963.png" class="asset" transform="matrix(0.04045535996556282,0,0,0.04045535996556282,377.3410339355469,248.48294067382812)"></image><text fill="#ffffff" font-family="Roboto Condensed" font-size="11" x="164.76689468260355" y="199.1507323234961" transform="matrix(1,0,0,1,208.14971923828125,89.25582122802737)" svgjs:data="{&quot;leading&quot;:&quot;1.3&quot;}"><tspan dy="0" x="164.76689468260355" svgjs:data="{&quot;newLined&quot;:true}">PLAYER</tspan></text><image width="643" height="760" xlink:href="https://lct-designs.s3.us-west-1.amazonaws.com/assets/libs/devil-1-sofball-banner-1640682005963.png" class="asset" transform="matrix(0.04045535251498223,0,0,0.040455352514982224,444.9726257324219,93.94282531738284)"></image><text fill="#ffffff" font-family="Roboto Condensed" font-size="11" x="164.76689468260355" y="199.1507323234961" transform="matrix(1,0,0,1,275.7813110351563,-65.28428649902345)" svgjs:data="{&quot;leading&quot;:&quot;1.3&quot;}"><tspan dy="0" x="164.76689468260355" svgjs:data="{&quot;newLined&quot;:true}">PLAYER</tspan></text><image width="643" height="760" xlink:href="https://lct-designs.s3.us-west-1.amazonaws.com/assets/libs/devil-1-sofball-banner-1640682005963.png" class="asset" transform="matrix(0.04045535996556282,0,0,0.04045535996556282,444.97259521484375,162.28733062744143)"></image><text fill="#ffffff" font-family="Roboto Condensed" font-size="11" x="164.76689468260355" y="199.1507323234961" transform="matrix(1,0,0,1,275.7813110351563,3.0601959228515696)" svgjs:data="{&quot;leading&quot;:&quot;1.3&quot;}"><tspan dy="0" x="164.76689468260355" svgjs:data="{&quot;newLined&quot;:true}">PLAYER</tspan></text><image width="643" height="760" xlink:href="https://lct-designs.s3.us-west-1.amazonaws.com/assets/libs/devil-1-sofball-banner-1640682005963.png" class="asset" transform="matrix(0.04045535996556282,0,0,0.04045535996556282,444.9726257324219,236.24213409423834)"></image><text fill="#ffffff" font-family="Roboto Condensed" font-size="11" x="164.76689468260355" y="199.1507323234961" transform="matrix(1,0,0,1,275.7813110351563,77.0150146484375)" svgjs:data="{&quot;leading&quot;:&quot;1.3&quot;}"><tspan dy="0" x="164.76689468260355" svgjs:data="{&quot;newLined&quot;:true}">PLAYER</tspan></text><text fill="#ffffff" font-family="Roboto Condensed" font-size="11" x="196.66070495482035" y="187.6751988380835" transform="matrix(1,0,0,1,-183.60501098632812,-104.04680633544922)" svgjs:data="{&quot;leading&quot;:&quot;1.3&quot;}"><tspan dy="0" x="196.66070495482035" svgjs:data="{&quot;newLined&quot;:true}">COACH: COACH'S NAME</tspan></text><text fill="#ffffff" font-family="Roboto Condensed" font-size="11" x="176.97188125486917" y="187.6751988380835" transform="matrix(1,0,0,1,160.14437866210938,-104.04680633544922)" svgjs:data="{&quot;leading&quot;:&quot;1.3&quot;}"><tspan dy="0" x="176.97188125486917" svgjs:data="{&quot;newLined&quot;:true}">TEAM MOM: TEAM MOM'S NAME</tspan></text><g class="mask" style="pointer-events: none;"><g><path fill="#BCBEC0" d="M-3642.4-2101.7v4589.1h7813.4v-4589.1H-3642.4z M500.5,67.2v233.3v66.7H0.5v-66.7V67.2V0.5h500V67.2z" transform="matrix(1,0,0,1,0,0)"></path><g transform="matrix(1,0,0,1,0,0)">
	<rect x="0.5" y="300.5" opacity="0.95" fill="#F1F2F2" width="500" height="66.7"></rect>
	<rect x="0.5" y="0.5" opacity="0.95" fill="#F1F2F2" width="500" height="66.7"></rect>
</g></g></g></svg>