<svg xmlns="http://www.w3.org/2000/svg" version="1.1" xmlns:xlink="http://www.w3.org/1999/xlink" xmlns:svgjs="http://svgjs.dev/svgjs" width="100%" height="100%" viewBox="1 1 499 299" preserveAspectRatio="none" data-info="{&quot;_id&quot;:1,&quot;name&quot;:&quot;HEM &amp; GROMMETS&quot;,&quot;price&quot;:&quot;95.00&quot;,&quot;sale_price&quot;:&quot;89.99&quot;,&quot;cover&quot;:{&quot;key&quot;:&quot;assets/models/hem-1628062436886-1630830942566.png&quot;,&quot;url&quot;:&quot;https://lct-designs.s3.us-west-1.amazonaws.com/assets/models/hem-1628062436886-1630830942566.png&quot;},&quot;back&quot;:{&quot;key&quot;:&quot;assets/models/hem-1630831057346.svg&quot;,&quot;url&quot;:&quot;https://lct-designs.s3.us-west-1.amazonaws.com/assets/models/hem-1630831057346.svg&quot;},&quot;mask&quot;:{&quot;key&quot;:&quot;assets/models/hem.mask-1630831063496.svg&quot;,&quot;url&quot;:&quot;https://lct-designs.s3.us-west-1.amazonaws.com/assets/models/hem.mask-1630831063496.svg&quot;},&quot;information&quot;:&quot;Size 3'x5'&quot;,&quot;type&quot;:&quot;hem-grommet&quot;,&quot;pos&quot;:&quot;1&quot;,&quot;accessories&quot;:&quot;2,3&quot;,&quot;width&quot;:&quot;60&quot;,&quot;height&quot;:&quot;36&quot;}" style="background-color: white;"><g class="model" style="pointer-events: none;"><rect x="0.5" y="0.5" fill="none" stroke="#000000" stroke-miterlimit="10" width="500" height="300"></rect></g><image width="760" height="455" xlink:href="https://lct-designs.s3.us-west-1.amazonaws.com/assets/libs/red-sox-1-softball-banner-1640684044835.png" class="asset background locked" transform="matrix(0.6593406593406593,0,0,0.6593406593406593,0,0)"></image><image width="760" height="349" xlink:href="https://lct-designs.s3.us-west-1.amazonaws.com/assets/libs/red-sox-1-softball-banner-1640683948798.png" class="asset" transform="matrix(0.39579248428344727,0,0,0.3957924842834472,108.20584487915039,18.97064593434333)"></image><image width="760" height="699" xlink:href="https://lct-designs.s3.us-west-1.amazonaws.com/assets/libs/red-sox-1-softball-banner-1640683677760.png" class="asset" transform="matrix(0.04502535983920097,0,0,0.045025359839200974,361.33515548706055,144.48684695363045)"></image><text fill="#ffffff" font-family="American Captain" font-size="10" x="228.7089031824192" y="154.0466208560121" transform="matrix(1,0,0,0.9999999999999999,137.70363998413086,31.711318999528878)" svgjs:data="{&quot;leading&quot;:&quot;1.3&quot;}"><tspan dy="0" x="228.7089031824192" svgjs:data="{&quot;newLined&quot;:true}">PLAYER</tspan></text><image width="760" height="699" xlink:href="https://lct-designs.s3.us-west-1.amazonaws.com/assets/libs/red-sox-1-softball-banner-1640683677760.png" class="asset" transform="matrix(0.04502535983920097,0,0,0.045025359839200974,20.58416175842285,36.41800692677497)"></image><text fill="#ffffff" font-family="American Captain" font-size="10" x="228.7089031824192" y="154.0466208560121" transform="matrix(1,0,0,0.9999999999999999,-203.04736709594727,-76.35751339793205)" svgjs:data="{&quot;leading&quot;:&quot;1.3&quot;}"><tspan dy="0" x="228.7089031824192" svgjs:data="{&quot;newLined&quot;:true}">PLAYER</tspan></text><image width="760" height="699" xlink:href="https://lct-designs.s3.us-west-1.amazonaws.com/assets/libs/red-sox-1-softball-banner-1640683677760.png" class="asset" transform="matrix(0.04502535983920097,0,0,0.045025359839200974,61.87762832641599,84.40223696827886)"></image><text fill="#ffffff" font-family="American Captain" font-size="10" x="228.7089031824192" y="154.0466208560121" transform="matrix(1,0,0,0.9999999999999999,-161.7538948059082,-28.373287171125412)" svgjs:data="{&quot;leading&quot;:&quot;1.3&quot;}"><tspan dy="0" x="228.7089031824192" svgjs:data="{&quot;newLined&quot;:true}">PLAYER</tspan></text><image width="760" height="699" xlink:href="https://lct-designs.s3.us-west-1.amazonaws.com/assets/libs/red-sox-1-softball-banner-1640683677760.png" class="asset" transform="matrix(0.04502535983920097,0,0,0.045025359839200974,20.5563507080078,143.65232852101326)"></image><text fill="#ffffff" font-family="American Captain" font-size="10" x="228.7089031824192" y="154.0466208560121" transform="matrix(1,0,0,0.9999999999999999,-203.07516860961914,30.876796752214425)" svgjs:data="{&quot;leading&quot;:&quot;1.3&quot;}"><tspan dy="0" x="228.7089031824192" svgjs:data="{&quot;newLined&quot;:true}">PLAYER</tspan></text><image width="760" height="699" xlink:href="https://lct-designs.s3.us-west-1.amazonaws.com/assets/libs/red-sox-1-softball-banner-1640683677760.png" class="asset" transform="matrix(0.04502535983920097,0,0,0.045025359839200974,61.43256759643552,204.15419009327886)"></image><text fill="#ffffff" font-family="American Captain" font-size="10" x="228.7089031824192" y="154.0466208560121" transform="matrix(1,0,0,0.9999999999999999,-162.19894790649414,91.37866213917732)" svgjs:data="{&quot;leading&quot;:&quot;1.3&quot;}"><tspan dy="0" x="228.7089031824192" svgjs:data="{&quot;newLined&quot;:true}">PLAYER</tspan></text><image width="760" height="699" xlink:href="https://lct-designs.s3.us-west-1.amazonaws.com/assets/libs/red-sox-1-softball-banner-1640683677760.png" class="asset" transform="matrix(0.04502535983920097,0,0,0.045025359839200974,105.2295036315918,144.48684695363045)"></image><text fill="#ffffff" font-family="American Captain" font-size="10" x="228.7089031824192" y="154.0466208560121" transform="matrix(1,0,0,0.9999999999999999,-118.40201187133789,31.711318999528878)" svgjs:data="{&quot;leading&quot;:&quot;1.3&quot;}"><tspan dy="0" x="228.7089031824192" svgjs:data="{&quot;newLined&quot;:true}">PLAYER</tspan></text><image width="760" height="699" xlink:href="https://lct-designs.s3.us-west-1.amazonaws.com/assets/libs/red-sox-1-softball-banner-1640683677760.png" class="asset" transform="matrix(0.04502535983920097,0,0,0.045025359839200974,140.6815299987793,230.85845950245854)"></image><text fill="#ffffff" font-family="American Captain" font-size="10" x="228.7089031824192" y="154.0466208560121" transform="matrix(1,0,0,0.9999999999999999,-82.94998550415039,118.08293154835698)" svgjs:data="{&quot;leading&quot;:&quot;1.3&quot;}"><tspan dy="0" x="228.7089031824192" svgjs:data="{&quot;newLined&quot;:true}">PLAYER</tspan></text><image width="760" height="699" xlink:href="https://lct-designs.s3.us-west-1.amazonaws.com/assets/libs/red-sox-1-softball-banner-1640683677760.png" class="asset" transform="matrix(0.04502535983920097,0,0,0.045025359839200974,180.72324752807617,176.19816592335698)"></image><text fill="#ffffff" font-family="American Captain" font-size="10" x="228.7089031824192" y="154.0466208560121" transform="matrix(1,0,0,0.9999999999999999,-42.908267974853516,63.42263796925544)" svgjs:data="{&quot;leading&quot;:&quot;1.3&quot;}"><tspan dy="0" x="228.7089031824192" svgjs:data="{&quot;newLined&quot;:true}">PLAYER</tspan></text><image width="760" height="699" xlink:href="https://lct-designs.s3.us-west-1.amazonaws.com/assets/libs/red-sox-1-softball-banner-1640683677760.png" class="asset" transform="matrix(0.04502535983920097,0,0,0.045025359839200974,234.53408432006836,232.1102295219898)"></image><text fill="#ffffff" font-family="American Captain" font-size="10" x="228.7089031824192" y="154.0466208560121" transform="matrix(1,0,0,0.9999999999999999,10.902568817138672,119.33470156788823)" svgjs:data="{&quot;leading&quot;:&quot;1.3&quot;}"><tspan dy="0" x="228.7089031824192" svgjs:data="{&quot;newLined&quot;:true}">PLAYER</tspan></text><image width="760" height="699" xlink:href="https://lct-designs.s3.us-west-1.amazonaws.com/assets/libs/red-sox-1-softball-banner-1640683677760.png" class="asset" transform="matrix(0.04502535983920097,0,0,0.045025359839200974,289.1794242858887,175.78091433644295)"></image><text fill="#ffffff" font-family="American Captain" font-size="10" x="228.7089031824192" y="154.0466208560121" transform="matrix(1,0,0,0.9999999999999999,65.54790878295898,63.00538638234139)" svgjs:data="{&quot;leading&quot;:&quot;1.3&quot;}"><tspan dy="0" x="228.7089031824192" svgjs:data="{&quot;newLined&quot;:true}">PLAYER</tspan></text><image width="760" height="699" xlink:href="https://lct-designs.s3.us-west-1.amazonaws.com/assets/libs/red-sox-1-softball-banner-1640683677760.png" class="asset" transform="matrix(0.04502535983920097,0,0,0.045025359839200974,335.4798393249512,230.44120791554448)"></image><text fill="#ffffff" font-family="American Captain" font-size="10" x="228.7089031824192" y="154.0466208560121" transform="matrix(1,0,0,0.9999999999999999,111.84832382202148,117.66567996144292)" svgjs:data="{&quot;leading&quot;:&quot;1.3&quot;}"><tspan dy="0" x="228.7089031824192" svgjs:data="{&quot;newLined&quot;:true}">PLAYER</tspan></text><image width="760" height="699" xlink:href="https://lct-designs.s3.us-west-1.amazonaws.com/assets/libs/red-sox-1-softball-banner-1640683677760.png" class="asset" transform="matrix(0.04502535983920097,0,0,0.045025359839200974,413.0597953796386,88.15753176808354)"></image><text fill="#ffffff" font-family="American Captain" font-size="10" x="228.7089031824192" y="154.0466208560121" transform="matrix(1,0,0,0.9999999999999999,189.42827987670898,-24.617996186017987)" svgjs:data="{&quot;leading&quot;:&quot;1.3&quot;}"><tspan dy="0" x="228.7089031824192" svgjs:data="{&quot;newLined&quot;:true}">PLAYER</tspan></text><image width="760" height="699" xlink:href="https://lct-designs.s3.us-west-1.amazonaws.com/assets/libs/red-sox-1-softball-banner-1640683677760.png" class="asset" transform="matrix(0.04502535983920097,0,0,0.045025359839200974,413.8942985534668,203.31968691945076)"></image><text fill="#ffffff" font-family="American Captain" font-size="10" x="228.7089031824192" y="154.0466208560121" transform="matrix(1,0,0,0.9999999999999999,190.2627830505371,90.54415896534917)" svgjs:data="{&quot;leading&quot;:&quot;1.3&quot;}"><tspan dy="0" x="228.7089031824192" svgjs:data="{&quot;newLined&quot;:true}">PLAYER</tspan></text><image width="760" height="699" xlink:href="https://lct-designs.s3.us-west-1.amazonaws.com/assets/libs/red-sox-1-softball-banner-1640683677760.png" class="asset" transform="matrix(0.04502535983920097,0,0,0.045025359839200974,447.67731857299805,36.000759154558175)"></image><text fill="#ffffff" font-family="American Captain" font-size="10" x="228.7089031824192" y="154.0466208560121" transform="matrix(1,0,0,0.9999999999999999,224.04580307006836,-76.77476498484612)" svgjs:data="{&quot;leading&quot;:&quot;1.3&quot;}"><tspan dy="0" x="228.7089031824192" svgjs:data="{&quot;newLined&quot;:true}">PLAYER</tspan></text><image width="760" height="699" xlink:href="https://lct-designs.s3.us-west-1.amazonaws.com/assets/libs/red-sox-1-softball-banner-1640683677760.png" class="asset" transform="matrix(0.04502535983920097,0,0,0.045025359839200974,448.09455490112305,144.48684695363045)"></image><text fill="#ffffff" font-family="American Captain" font-size="10" x="228.7089031824192" y="154.0466208560121" transform="matrix(1,0,0,0.9999999999999999,224.46303939819336,31.711318999528878)" svgjs:data="{&quot;leading&quot;:&quot;1.3&quot;}"><tspan dy="0" x="228.7089031824192" svgjs:data="{&quot;newLined&quot;:true}">PLAYER</tspan></text><text fill="#ffffff" font-family="American Captain" font-size="10" x="216.69599043217505" y="154.25524521895767" transform="matrix(0.9999999999999999,0,0,1,-199.86093139648435,-133.72996520996094)" svgjs:data="{&quot;leading&quot;:&quot;1.3&quot;}"><tspan dy="0" x="216.69599043217505" svgjs:data="{&quot;newLined&quot;:true}">COACH: COACH'S NAME</tspan></text><text fill="#ffffff" font-family="American Captain" font-size="10" x="203.98809565988387" y="154.25524521895767" transform="matrix(0.9999999999999999,0,0,1,184.84005737304682,-133.72994995117188)" svgjs:data="{&quot;leading&quot;:&quot;1.3&quot;}"><tspan dy="0" x="203.98809565988387" svgjs:data="{&quot;newLined&quot;:true}">TEAM MOM: TEAM MOM'S NAME</tspan></text><g class="mask" style="pointer-events: none;"><path fill="#777777" enable-background="new    " d="M-1684.9-1014.6v2330.1h3870.8v-2330.1H-1684.9z M500.5,300.5H0.5V0.5h500
	V300.5z"></path></g></svg>