<svg xmlns="http://www.w3.org/2000/svg" version="1.1" xmlns:xlink="http://www.w3.org/1999/xlink" xmlns:svgjs="http://svgjs.dev/svgjs" width="100%" height="100%" viewBox="1 1 499 299" preserveAspectRatio="none" data-info="{&quot;_id&quot;:1,&quot;name&quot;:&quot;HEM &amp; GROMMETS&quot;,&quot;price&quot;:&quot;95.00&quot;,&quot;sale_price&quot;:&quot;89.99&quot;,&quot;cover&quot;:{&quot;key&quot;:&quot;assets/models/hem-1628062436886-1630830942566.png&quot;,&quot;url&quot;:&quot;https://lct-designs.s3.us-west-1.amazonaws.com/assets/models/hem-1628062436886-1630830942566.png&quot;},&quot;back&quot;:{&quot;key&quot;:&quot;assets/models/hem-1630831057346.svg&quot;,&quot;url&quot;:&quot;https://lct-designs.s3.us-west-1.amazonaws.com/assets/models/hem-1630831057346.svg&quot;},&quot;mask&quot;:{&quot;key&quot;:&quot;assets/models/hem.mask-1630831063496.svg&quot;,&quot;url&quot;:&quot;https://lct-designs.s3.us-west-1.amazonaws.com/assets/models/hem.mask-1630831063496.svg&quot;},&quot;information&quot;:&quot;Size 3'x5'&quot;,&quot;type&quot;:&quot;hem-grommet&quot;,&quot;pos&quot;:&quot;1&quot;,&quot;accessories&quot;:&quot;2,3&quot;,&quot;width&quot;:&quot;60&quot;,&quot;height&quot;:&quot;36&quot;}" style="background-color: white;"><g class="model" style="pointer-events: none;"><rect x="0.5" y="0.5" fill="none" stroke="#000000" stroke-miterlimit="10" width="500" height="300"></rect></g><image width="760" height="455" xlink:href="https://lct-designs.s3.us-west-1.amazonaws.com/assets/libs/red-sox-2-softball-banner-1640684044836.png" class="asset background locked" transform="matrix(0.6593406593406593,0,0,0.6593406593406593,0,0)"></image><image width="760" height="626" xlink:href="https://lct-designs.s3.us-west-1.amazonaws.com/assets/libs/red-sox-2-softball-banner-1640683948798.png" class="asset" transform="matrix(0.27155008912086487,0,0,0.27155008912086487,145.3407440185547,9.50931167602539)"></image><image width="648" height="760" xlink:href="https://lct-designs.s3.us-west-1.amazonaws.com/assets/libs/red-sox-2-softball-banner-1640683757134.png" class="asset" transform="matrix(0.15244138240814206,0,0,0.1524413824081421,205.2821807861328,169.26419067382812)"></image><image width="643" height="760" xlink:href="https://lct-designs.s3.us-west-1.amazonaws.com/assets/libs/red-sox-2-softball-banner1-1640683677761.png" class="asset" transform="matrix(0.049227286130189896,0,0,0.04922728613018989,25.501678466796875,64.53341293334961)"></image><text fill="#ffffff" font-family="Cooper" font-size="10" x="230.24645315495337" y="153.83799553939224" transform="matrix(1,0,0,0.9999999999999999,-210.70932388305664,-42.97719192504883)" svgjs:data="{&quot;leading&quot;:&quot;1.3&quot;}"><tspan dy="0" x="230.24645315495337" svgjs:data="{&quot;newLined&quot;:true}">PLAYER</tspan></text><image width="643" height="760" xlink:href="https://lct-designs.s3.us-west-1.amazonaws.com/assets/libs/red-sox-2-softball-banner1-1640683677761.png" class="asset" transform="matrix(0.049227289855480194,0,0,0.049227289855480194,97.67135620117188,64.53341674804685)"></image><text fill="#ffffff" font-family="Cooper" font-size="10" x="230.24645315495337" y="153.83799553939224" transform="matrix(1,0,0,0.9999999999999999,-138.53964233398438,-42.97719192504883)" svgjs:data="{&quot;leading&quot;:&quot;1.3&quot;}"><tspan dy="0" x="230.24645315495337" svgjs:data="{&quot;newLined&quot;:true}">PLAYER</tspan></text><image width="643" height="760" xlink:href="https://lct-designs.s3.us-west-1.amazonaws.com/assets/libs/red-sox-2-softball-banner1-1640683677761.png" class="asset" transform="matrix(0.049227289855480194,0,0,0.049227289855480194,98.491943359375,130.87683105468747)"></image><text fill="#ffffff" font-family="Cooper" font-size="10" x="230.24645315495337" y="153.83799553939224" transform="matrix(1,0,0,0.9999999999999999,-137.71905517578125,23.366222381591804)" svgjs:data="{&quot;leading&quot;:&quot;1.3&quot;}"><tspan dy="0" x="230.24645315495337" svgjs:data="{&quot;newLined&quot;:true}">PLAYER</tspan></text><image width="643" height="760" xlink:href="https://lct-designs.s3.us-west-1.amazonaws.com/assets/libs/red-sox-2-softball-banner1-1640683677761.png" class="asset" transform="matrix(0.049227289855480194,0,0,0.049227289855480194,96.39179229736328,203.47906494140622)"></image><text fill="#ffffff" font-family="Cooper" font-size="10" x="230.24645315495337" y="153.83799553939224" transform="matrix(1,0,0,0.9999999999999999,-139.81919860839844,95.96846008300778)" svgjs:data="{&quot;leading&quot;:&quot;1.3&quot;}"><tspan dy="0" x="230.24645315495337" svgjs:data="{&quot;newLined&quot;:true}">PLAYER</tspan></text><image width="643" height="760" xlink:href="https://lct-designs.s3.us-west-1.amazonaws.com/assets/libs/red-sox-2-softball-banner1-1640683677761.png" class="asset" transform="matrix(0.049227289855480194,0,0,0.049227289855480194,26.322261810302734,130.87682723999023)"></image><text fill="#ffffff" font-family="Cooper" font-size="10" x="230.24645315495337" y="153.83799553939224" transform="matrix(1,0,0,0.9999999999999999,-209.88873672485352,23.366222381591804)" svgjs:data="{&quot;leading&quot;:&quot;1.3&quot;}"><tspan dy="0" x="230.24645315495337" svgjs:data="{&quot;newLined&quot;:true}">PLAYER</tspan></text><image width="643" height="760" xlink:href="https://lct-designs.s3.us-west-1.amazonaws.com/assets/libs/red-sox-2-softball-banner1-1640683677761.png" class="asset" transform="matrix(0.049227289855480194,0,0,0.049227289855480194,24.222122192382812,203.4790687561035)"></image><text fill="#ffffff" font-family="Cooper" font-size="10" x="230.24645315495337" y="153.83799553939224" transform="matrix(1,0,0,0.9999999999999999,-211.9888801574707,95.96845626831052)" svgjs:data="{&quot;leading&quot;:&quot;1.3&quot;}"><tspan dy="0" x="230.24645315495337" svgjs:data="{&quot;newLined&quot;:true}">PLAYER</tspan></text><image width="643" height="760" xlink:href="https://lct-designs.s3.us-west-1.amazonaws.com/assets/libs/red-sox-2-softball-banner1-1640683677761.png" class="asset" transform="matrix(0.049227289855480194,0,0,0.049227289855480194,371.3848571777343,63.28165435791016)"></image><text fill="#ffffff" font-family="Cooper" font-size="10" x="230.24645315495337" y="153.83799553939224" transform="matrix(1,0,0,0.9999999999999999,135.1738586425781,-44.22895431518555)" svgjs:data="{&quot;leading&quot;:&quot;1.3&quot;}"><tspan dy="0" x="230.24645315495337" svgjs:data="{&quot;newLined&quot;:true}">PLAYER</tspan></text><image width="643" height="760" xlink:href="https://lct-designs.s3.us-west-1.amazonaws.com/assets/libs/red-sox-2-softball-banner1-1640683677761.png" class="asset" transform="matrix(0.049227289855480194,0,0,0.049227289855480194,443.5545349121094,63.28165435791016)"></image><text fill="#ffffff" font-family="Cooper" font-size="10" x="230.24645315495337" y="153.83799553939224" transform="matrix(1,0,0,0.9999999999999999,207.34353637695312,-44.22895431518555)" svgjs:data="{&quot;leading&quot;:&quot;1.3&quot;}"><tspan dy="0" x="230.24645315495337" svgjs:data="{&quot;newLined&quot;:true}">PLAYER</tspan></text><image width="643" height="760" xlink:href="https://lct-designs.s3.us-west-1.amazonaws.com/assets/libs/red-sox-2-softball-banner1-1640683677761.png" class="asset" transform="matrix(0.049227289855480194,0,0,0.049227289855480194,372.20544052124023,129.62506866455078)"></image><text fill="#ffffff" font-family="Cooper" font-size="10" x="230.24645315495337" y="153.83799553939224" transform="matrix(1,0,0,0.9999999999999999,135.99444580078125,22.11445999145507)" svgjs:data="{&quot;leading&quot;:&quot;1.3&quot;}"><tspan dy="0" x="230.24645315495337" svgjs:data="{&quot;newLined&quot;:true}">PLAYER</tspan></text><image width="643" height="760" xlink:href="https://lct-designs.s3.us-west-1.amazonaws.com/assets/libs/red-sox-2-softball-banner1-1640683677761.png" class="asset" transform="matrix(0.049227289855480194,0,0,0.049227289855480194,444.3751220703125,129.62506866455078)"></image><text fill="#ffffff" font-family="Cooper" font-size="10" x="230.24645315495337" y="153.83799553939224" transform="matrix(1,0,0,0.9999999999999999,208.16412353515625,22.11445999145507)" svgjs:data="{&quot;leading&quot;:&quot;1.3&quot;}"><tspan dy="0" x="230.24645315495337" svgjs:data="{&quot;newLined&quot;:true}">PLAYER</tspan></text><image width="643" height="760" xlink:href="https://lct-designs.s3.us-west-1.amazonaws.com/assets/libs/red-sox-2-softball-banner1-1640683677761.png" class="asset" transform="matrix(0.049227289855480194,0,0,0.049227289855480194,370.1053009033203,202.22730255126953)"></image><text fill="#ffffff" font-family="Cooper" font-size="10" x="230.24645315495337" y="153.83799553939224" transform="matrix(1,0,0,0.9999999999999999,133.89430236816406,94.7166976928711)" svgjs:data="{&quot;leading&quot;:&quot;1.3&quot;}"><tspan dy="0" x="230.24645315495337" svgjs:data="{&quot;newLined&quot;:true}">PLAYER</tspan></text><image width="643" height="760" xlink:href="https://lct-designs.s3.us-west-1.amazonaws.com/assets/libs/red-sox-2-softball-banner1-1640683677761.png" class="asset" transform="matrix(0.049227289855480194,0,0,0.049227289855480194,442.2749710083008,202.22730255126953)"></image><text fill="#ffffff" font-family="Cooper" font-size="10" x="230.24645315495337" y="153.83799553939224" transform="matrix(1,0,0,0.9999999999999999,206.06398010253906,94.7166976928711)" svgjs:data="{&quot;leading&quot;:&quot;1.3&quot;}"><tspan dy="0" x="230.24645315495337" svgjs:data="{&quot;newLined&quot;:true}">PLAYER</tspan></text><text fill="#ffffff" font-family="Cooper" font-size="10" x="188.30461012211646" y="154.0466208560121" transform="matrix(1,0,0,0.9999999999999999,-171.07093811035156,-130.39193725585938)" svgjs:data="{&quot;leading&quot;:&quot;1.3&quot;}"><tspan dy="0" x="188.30461012211646" svgjs:data="{&quot;newLined&quot;:true}">COACH: COACH'S NAME</tspan></text><text fill="#ffffff" font-family="Cooper" font-size="10" x="167.27382792917098" y="154.0466208560121" transform="matrix(1,0,0,0.9999999999999999,150.62585449218753,-130.39193725585938)" svgjs:data="{&quot;leading&quot;:&quot;1.3&quot;}"><tspan dy="0" x="167.27382792917098" svgjs:data="{&quot;newLined&quot;:true}">TEAM MOM: TEAM MOM'S NAME</tspan></text><g class="mask" style="pointer-events: none;"><path fill="#777777" enable-background="new    " d="M-1684.9-1014.6v2330.1h3870.8v-2330.1H-1684.9z M500.5,300.5H0.5V0.5h500
	V300.5z"></path></g></svg>