<svg xmlns="http://www.w3.org/2000/svg" version="1.1" xmlns:xlink="http://www.w3.org/1999/xlink" xmlns:svgjs="http://svgjs.dev/svgjs" width="100%" height="100%" viewBox="1 1 499 365.70001220703125" preserveAspectRatio="none" data-info="{&quot;_id&quot;:4,&quot;name&quot;:&quot;POLE POCKET SOCCER BANNERS&quot;,&quot;information&quot;:&quot;- Size: 3’x5’\n- Material: heavy duty vinyl banner\n- Digitally printed on vinyl&quot;,&quot;price&quot;:&quot;95.00&quot;,&quot;sale_price&quot;:&quot;89.99&quot;,&quot;type&quot;:&quot;pole-pocket&quot;,&quot;cover&quot;:{&quot;key&quot;:&quot;assets/models/pole-1628062864266-1631924568908.png&quot;,&quot;url&quot;:&quot;https://lct-designs.s3.us-west-1.amazonaws.com/assets/models/pole-1628062864266-1631924568908.png&quot;},&quot;back&quot;:{&quot;key&quot;:&quot;assets/models/pole-1631924700152.svg&quot;,&quot;url&quot;:&quot;https://lct-designs.s3.us-west-1.amazonaws.com/assets/models/pole-1631924700152.svg&quot;},&quot;mask&quot;:{&quot;key&quot;:&quot;assets/models/pole-mask-1631925211715.svg&quot;,&quot;url&quot;:&quot;https://lct-designs.s3.us-west-1.amazonaws.com/assets/models/pole-mask-1631925211715.svg&quot;},&quot;pos&quot;:&quot;2&quot;,&quot;accessories&quot;:&quot;2,3&quot;}" style="background-color: white;"><g class="model" style="pointer-events: none;"><polygon fill="#FFFFFF" points="0.5,0.5 0.5,67.2 0.5,300.5 0.5,367.2 500.5,367.2 500.5,300.5 500.5,67.2 500.5,0.5 "></polygon></g><image width="760" height="556" xlink:href="https://lct-designs.s3.us-west-1.amazonaws.com/assets/libs/diamond-divas-1-softball-banner-1640682447703.png" class="asset background locked" transform="matrix(0.6595323960558116,0,0,0.6595323960558116,0,0)"></image><image width="760" height="374" xlink:href="https://lct-designs.s3.us-west-1.amazonaws.com/assets/libs/diamond-divas-1-softball-banner-1640682384610.png" class="asset" transform="matrix(0.304767519235611,0,0,0.304767519235611,190.81976318359375,77.139404296875)"></image><image width="445" height="760" xlink:href="https://lct-designs.s3.us-west-1.amazonaws.com/assets/libs/diamond-divas-1softball-banner-1640682138445.png" class="asset" transform="matrix(0.24633492529392242,0,0,0.24633492529392245,29.468463897705078,106.3182373046875)"></image><image width="643" height="760" xlink:href="https://lct-designs.s3.us-west-1.amazonaws.com/assets/libs/blue-lightning-2-soflball-banner-1639966281996.png" class="asset" transform="matrix(0.046350855380296714,0,0,0.046350855380296714,153.5508575439453,190.98374938964847)"></image><text fill="#000000" font-family="Roboto Condensed" font-size="11" x="233.99923408750814" y="186.4001400917456" transform="matrix(1,0,0,1,-82.97740173339844,51.51336669921876)" svgjs:data="{&quot;leading&quot;:&quot;1.3&quot;}"><tspan dy="0" x="233.99923408750814" svgjs:data="{&quot;newLined&quot;:true}">PLAYER</tspan></text><image width="643" height="760" xlink:href="https://lct-designs.s3.us-west-1.amazonaws.com/assets/libs/blue-lightning-2-soflball-banner-1639966281996.png" class="asset" transform="matrix(0.04635086283087731,0,0,0.046350862830877304,153.5508422851563,246.57737731933594)"></image><text fill="#000000" font-family="Roboto Condensed" font-size="11" x="233.99923408750814" y="186.4001400917456" transform="matrix(1,0,0,1,-82.97740173339844,107.10699462890628)" svgjs:data="{&quot;leading&quot;:&quot;1.3&quot;}"><tspan dy="0" x="233.99923408750814" svgjs:data="{&quot;newLined&quot;:true}">PLAYER</tspan></text><image width="643" height="760" xlink:href="https://lct-designs.s3.us-west-1.amazonaws.com/assets/libs/blue-lightning-2-soflball-banner-1639966281996.png" class="asset" transform="matrix(0.04635086283087731,0,0,0.046350862830877304,208.9420928955078,191.49377441406253)"></image><text fill="#000000" font-family="Roboto Condensed" font-size="11" x="233.99923408750814" y="186.4001400917456" transform="matrix(1,0,0,1,-27.586166381835938,52.02339172363282)" svgjs:data="{&quot;leading&quot;:&quot;1.3&quot;}"><tspan dy="0" x="233.99923408750814" svgjs:data="{&quot;newLined&quot;:true}">PLAYER</tspan></text><image width="643" height="760" xlink:href="https://lct-designs.s3.us-west-1.amazonaws.com/assets/libs/blue-lightning-2-soflball-banner-1639966281996.png" class="asset" transform="matrix(0.0463508777320385,0,0,0.0463508777320385,208.9420776367188,247.08740234375006)"></image><text fill="#000000" font-family="Roboto Condensed" font-size="11" x="233.99923408750814" y="186.4001400917456" transform="matrix(1,0,0,1,-27.586166381835938,107.61701965332031)" svgjs:data="{&quot;leading&quot;:&quot;1.3&quot;}"><tspan dy="0" x="233.99923408750814" svgjs:data="{&quot;newLined&quot;:true}">PLAYER</tspan></text><image width="643" height="760" xlink:href="https://lct-designs.s3.us-west-1.amazonaws.com/assets/libs/blue-lightning-2-soflball-banner-1639966281996.png" class="asset" transform="matrix(0.04635088890790939,0,0,0.0463508889079094,265.3533630371094,191.49377441406253)"></image><text fill="#000000" font-family="Roboto Condensed" font-size="11" x="233.99923408750814" y="186.4001400917456" transform="matrix(1,0,0,1,28.825103759765625,52.02339172363282)" svgjs:data="{&quot;leading&quot;:&quot;1.3&quot;}"><tspan dy="0" x="233.99923408750814" svgjs:data="{&quot;newLined&quot;:true}">PLAYER</tspan></text><image width="643" height="760" xlink:href="https://lct-designs.s3.us-west-1.amazonaws.com/assets/libs/blue-lightning-2-soflball-banner-1639966281996.png" class="asset" transform="matrix(0.04635090008378029,0,0,0.046350900083780296,265.35333251953125,247.08740234375006)"></image><text fill="#000000" font-family="Roboto Condensed" font-size="11" x="233.99923408750814" y="186.4001400917456" transform="matrix(1,0,0,1,28.825103759765625,107.61701965332031)" svgjs:data="{&quot;leading&quot;:&quot;1.3&quot;}"><tspan dy="0" x="233.99923408750814" svgjs:data="{&quot;newLined&quot;:true}">PLAYER</tspan></text><image width="643" height="760" xlink:href="https://lct-designs.s3.us-west-1.amazonaws.com/assets/libs/blue-lightning-2-soflball-banner-1639966281996.png" class="asset" transform="matrix(0.04635090008378029,0,0,0.046350900083780296,323.8046875,191.49377441406253)"></image><text fill="#000000" font-family="Roboto Condensed" font-size="11" x="233.99923408750814" y="186.4001400917456" transform="matrix(1,0,0,1,87.27642822265628,52.02339172363282)" svgjs:data="{&quot;leading&quot;:&quot;1.3&quot;}"><tspan dy="0" x="233.99923408750814" svgjs:data="{&quot;newLined&quot;:true}">PLAYER</tspan></text><image width="643" height="760" xlink:href="https://lct-designs.s3.us-west-1.amazonaws.com/assets/libs/blue-lightning-2-soflball-banner-1639966281996.png" class="asset" transform="matrix(0.04635091498494148,0,0,0.04635091498494149,323.8046569824219,247.08740234375006)"></image><text fill="#000000" font-family="Roboto Condensed" font-size="11" x="233.99923408750814" y="186.4001400917456" transform="matrix(1,0,0,1,87.27642822265628,107.61701965332031)" svgjs:data="{&quot;leading&quot;:&quot;1.3&quot;}"><tspan dy="0" x="233.99923408750814" svgjs:data="{&quot;newLined&quot;:true}">PLAYER</tspan></text><image width="643" height="760" xlink:href="https://lct-designs.s3.us-west-1.amazonaws.com/assets/libs/blue-lightning-2-soflball-banner-1639966281996.png" class="asset" transform="matrix(0.04635090008378029,0,0,0.046350900083780296,380.4162292480469,190.9837342500687)"></image><text fill="#000000" font-family="Roboto Condensed" font-size="11" x="233.99923408750814" y="186.4001400917456" transform="matrix(1,0,0,1,143.88796997070318,51.513351559638984)" svgjs:data="{&quot;leading&quot;:&quot;1.3&quot;}"><tspan dy="0" x="233.99923408750814" svgjs:data="{&quot;newLined&quot;:true}">PLAYER</tspan></text><image width="643" height="760" xlink:href="https://lct-designs.s3.us-west-1.amazonaws.com/assets/libs/blue-lightning-2-soflball-banner-1639966281996.png" class="asset" transform="matrix(0.04635091498494148,0,0,0.04635091498494149,380.41619873046875,246.57736217975616)"></image><text fill="#000000" font-family="Roboto Condensed" font-size="11" x="233.99923408750814" y="186.4001400917456" transform="matrix(1,0,0,1,143.88796997070318,107.1069794893265)" svgjs:data="{&quot;leading&quot;:&quot;1.3&quot;}"><tspan dy="0" x="233.99923408750814" svgjs:data="{&quot;newLined&quot;:true}">PLAYER</tspan></text><image width="643" height="760" xlink:href="https://lct-designs.s3.us-west-1.amazonaws.com/assets/libs/blue-lightning-2-soflball-banner-1639966281996.png" class="asset" transform="matrix(0.04635091498494148,0,0,0.04635091498494149,438.8675537109376,190.9837342500687)"></image><text fill="#000000" font-family="Roboto Condensed" font-size="11" x="233.99923408750814" y="186.4001400917456" transform="matrix(1,0,0,1,202.3392944335938,51.513351559638984)" svgjs:data="{&quot;leading&quot;:&quot;1.3&quot;}"><tspan dy="0" x="233.99923408750814" svgjs:data="{&quot;newLined&quot;:true}">PLAYER</tspan></text><image width="643" height="760" xlink:href="https://lct-designs.s3.us-west-1.amazonaws.com/assets/libs/blue-lightning-2-soflball-banner-1639966281996.png" class="asset" transform="matrix(0.04635092988610268,0,0,0.046350929886102676,438.8675231933594,246.57736217975616)"></image><text fill="#000000" font-family="Roboto Condensed" font-size="11" x="233.99923408750814" y="186.4001400917456" transform="matrix(1,0,0,1,202.3392944335938,107.1069794893265)" svgjs:data="{&quot;leading&quot;:&quot;1.3&quot;}"><tspan dy="0" x="233.99923408750814" svgjs:data="{&quot;newLined&quot;:true}">PLAYER</tspan></text><text fill="#000000" font-family="Roboto Condensed" font-size="11" x="196.66072113041204" y="187.6751988380835" transform="matrix(1,0,0,1,-177.994873046875,-105.57691192626953)" svgjs:data="{&quot;leading&quot;:&quot;1.3&quot;}"><tspan dy="0" x="196.66072113041204" svgjs:data="{&quot;newLined&quot;:true}">COACH: COACH'S NAME</tspan></text><text fill="#000000" font-family="Roboto Condensed" font-size="11" x="176.97189743046087" y="187.6751988380835" transform="matrix(1,0,0,1,166.77456665039062,-105.57689666748048)" svgjs:data="{&quot;leading&quot;:&quot;1.3&quot;}"><tspan dy="0" x="176.97189743046087" svgjs:data="{&quot;newLined&quot;:true}">TEAM MOM: TEAM MOM'S NAME</tspan></text><g class="mask" style="pointer-events: none;"><g><path fill="#BCBEC0" d="M-3642.4-2101.7v4589.1h7813.4v-4589.1H-3642.4z M500.5,67.2v233.3v66.7H0.5v-66.7V67.2V0.5h500V67.2z" transform="matrix(1,0,0,1,0,0)"></path><g transform="matrix(1,0,0,1,0,0)">
	<rect x="0.5" y="300.5" opacity="0.95" fill="#F1F2F2" width="500" height="66.7"></rect>
	<rect x="0.5" y="0.5" opacity="0.95" fill="#F1F2F2" width="500" height="66.7"></rect>
</g></g></g></svg>