<svg xmlns="http://www.w3.org/2000/svg" version="1.1" xmlns:xlink="http://www.w3.org/1999/xlink" xmlns:svgjs="http://svgjs.dev/svgjs" width="100%" height="100%" viewBox="1 1 499 299" preserveAspectRatio="none" data-info="{&quot;_id&quot;:1,&quot;name&quot;:&quot;HEM &amp; GROMMETS&quot;,&quot;price&quot;:&quot;95.00&quot;,&quot;sale_price&quot;:&quot;89.99&quot;,&quot;cover&quot;:{&quot;key&quot;:&quot;assets/models/hem-1628062436886-1630830942566.png&quot;,&quot;url&quot;:&quot;https://lct-designs.s3.us-west-1.amazonaws.com/assets/models/hem-1628062436886-1630830942566.png&quot;},&quot;back&quot;:{&quot;key&quot;:&quot;assets/models/hem-1630831057346.svg&quot;,&quot;url&quot;:&quot;https://lct-designs.s3.us-west-1.amazonaws.com/assets/models/hem-1630831057346.svg&quot;},&quot;mask&quot;:{&quot;key&quot;:&quot;assets/models/hem.mask-1630831063496.svg&quot;,&quot;url&quot;:&quot;https://lct-designs.s3.us-west-1.amazonaws.com/assets/models/hem.mask-1630831063496.svg&quot;},&quot;information&quot;:&quot;Size 3'x5'&quot;,&quot;type&quot;:&quot;hem-grommet&quot;,&quot;pos&quot;:&quot;1&quot;,&quot;accessories&quot;:&quot;2,3&quot;,&quot;width&quot;:&quot;60&quot;,&quot;height&quot;:&quot;36&quot;}" style="background-color: white;"><g class="model" style="pointer-events: none;"><rect x="0.5" y="0.5" fill="none" stroke="#000000" stroke-miterlimit="10" width="500" height="300"></rect></g><image width="760" height="455" xlink:href="https://lct-designs.s3.us-west-1.amazonaws.com/assets/libs/devil-1-softball-banner-1640682204481.png" class="asset background locked" transform="matrix(0.6593406593406593,0,0,0.6593406593406593,0,0)"></image><image width="760" height="426" xlink:href="https://lct-designs.s3.us-west-1.amazonaws.com/assets/libs/devil-1-softball-banner-1640682384609.png" class="asset" transform="matrix(0.29220825433731074,0,0,0.2922082543373108,126.14743041992188,19.32915878295899)"></image><image width="760" height="726" xlink:href="https://lct-designs.s3.us-west-1.amazonaws.com/assets/libs/devil-1-softball-banner-01-1640682138445.png" class="asset" transform="matrix(0.16088977456092832,0,0,0.16088977456092834,184.5618896484375,165.6594696044922)"></image><image width="643" height="760" xlink:href="https://lct-designs.s3.us-west-1.amazonaws.com/assets/libs/devil-1-sofball-banner-1640682005963.png" class="asset" transform="matrix(0.05032532289624214,0,0,0.050325322896242135,19.448564529418945,161.75360107421872)"></image><text fill="#ffffff" font-family="Antilles" font-size="13" x="234.69991957035865" y="153.83799553939224" transform="matrix(1,0,0,0.9999999999999999,-214.8533935546875,55.494796752929695)" svgjs:data="{&quot;leading&quot;:&quot;1.3&quot;}"><tspan dy="0" x="234.69991957035865" svgjs:data="{&quot;newLined&quot;:true}">PLAYER</tspan></text><image width="643" height="760" xlink:href="https://lct-designs.s3.us-west-1.amazonaws.com/assets/libs/devil-1-sofball-banner-1640682005963.png" class="asset" transform="matrix(0.05032533779740333,0,0,0.05032533779740333,83.69056701660153,161.75360107421872)"></image><text fill="#ffffff" font-family="Antilles" font-size="13" x="234.69991957035865" y="153.83799553939224" transform="matrix(1,0,0,0.9999999999999999,-150.61138916015625,55.494796752929695)" svgjs:data="{&quot;leading&quot;:&quot;1.3&quot;}"><tspan dy="0" x="234.69991957035865" svgjs:data="{&quot;newLined&quot;:true}">PLAYER</tspan></text><image width="643" height="760" xlink:href="https://lct-designs.s3.us-west-1.amazonaws.com/assets/libs/devil-1-sofball-banner-1640682005963.png" class="asset" transform="matrix(0.05032535269856452,0,0,0.05032535269856452,145.84632873535156,160.91909790039062)"></image><text fill="#ffffff" font-family="Antilles" font-size="13" x="234.69991957035865" y="153.83799553939224" transform="matrix(1,0,0,0.9999999999999999,-88.45562744140625,54.660293579101555)" svgjs:data="{&quot;leading&quot;:&quot;1.3&quot;}"><tspan dy="0" x="234.69991957035865" svgjs:data="{&quot;newLined&quot;:true}">PLAYER</tspan></text><image width="643" height="760" xlink:href="https://lct-designs.s3.us-west-1.amazonaws.com/assets/libs/devil-1-sofball-banner-1640682005963.png" class="asset" transform="matrix(0.05032533779740333,0,0,0.05032533779740333,19.851900100708008,225.5934906005859)"></image><text fill="#ffffff" font-family="Antilles" font-size="13" x="234.69991957035865" y="153.83799553939224" transform="matrix(1,0,0,0.9999999999999999,-214.4500579833984,119.33468627929685)" svgjs:data="{&quot;leading&quot;:&quot;1.3&quot;}"><tspan dy="0" x="234.69991957035865" svgjs:data="{&quot;newLined&quot;:true}">PLAYER</tspan></text><image width="643" height="760" xlink:href="https://lct-designs.s3.us-west-1.amazonaws.com/assets/libs/devil-1-sofball-banner-1640682005963.png" class="asset" transform="matrix(0.05032535269856452,0,0,0.05032535269856452,84.09390258789062,225.5934906005859)"></image><text fill="#ffffff" font-family="Antilles" font-size="13" x="234.69991957035865" y="153.83799553939224" transform="matrix(1,0,0,0.9999999999999999,-150.2080535888672,119.33468627929685)" svgjs:data="{&quot;leading&quot;:&quot;1.3&quot;}"><tspan dy="0" x="234.69991957035865" svgjs:data="{&quot;newLined&quot;:true}">PLAYER</tspan></text><image width="643" height="760" xlink:href="https://lct-designs.s3.us-west-1.amazonaws.com/assets/libs/devil-1-sofball-banner-1640682005963.png" class="asset" transform="matrix(0.05032536759972572,0,0,0.050325367599725716,146.2496643066406,224.75898742675778)"></image><text fill="#ffffff" font-family="Antilles" font-size="13" x="234.69991957035865" y="153.83799553939224" transform="matrix(1,0,0,0.9999999999999999,-88.05229187011719,118.50018310546872)" svgjs:data="{&quot;leading&quot;:&quot;1.3&quot;}"><tspan dy="0" x="234.69991957035865" svgjs:data="{&quot;newLined&quot;:true}">PLAYER</tspan></text><image width="643" height="760" xlink:href="https://lct-designs.s3.us-west-1.amazonaws.com/assets/libs/devil-1-sofball-banner-1640682005963.png" class="asset" transform="matrix(0.05032533779740333,0,0,0.05032533779740333,321.5208911895752,162.58811968564987)"></image><text fill="#ffffff" font-family="Antilles" font-size="13" x="234.69991957035865" y="153.83799553939224" transform="matrix(1,0,0,0.9999999999999999,87.21893310546875,56.329315364360816)" svgjs:data="{&quot;leading&quot;:&quot;1.3&quot;}"><tspan dy="0" x="234.69991957035865" svgjs:data="{&quot;newLined&quot;:true}">PLAYER</tspan></text><image width="643" height="760" xlink:href="https://lct-designs.s3.us-west-1.amazonaws.com/assets/libs/devil-1-sofball-banner-1640682005963.png" class="asset" transform="matrix(0.05032535269856452,0,0,0.05032535269856452,385.7628936767578,162.58811968564987)"></image><text fill="#ffffff" font-family="Antilles" font-size="13" x="234.69991957035865" y="153.83799553939224" transform="matrix(1,0,0,0.9999999999999999,151.4609375,56.329315364360816)" svgjs:data="{&quot;leading&quot;:&quot;1.3&quot;}"><tspan dy="0" x="234.69991957035865" svgjs:data="{&quot;newLined&quot;:true}">PLAYER</tspan></text><image width="643" height="760" xlink:href="https://lct-designs.s3.us-west-1.amazonaws.com/assets/libs/devil-1-sofball-banner-1640682005963.png" class="asset" transform="matrix(0.05032536759972572,0,0,0.050325367599725716,447.9186553955078,161.75361651182172)"></image><text fill="#ffffff" font-family="Antilles" font-size="13" x="234.69991957035865" y="153.83799553939224" transform="matrix(1,0,0,0.9999999999999999,213.61669921875,55.49481219053268)" svgjs:data="{&quot;leading&quot;:&quot;1.3&quot;}"><tspan dy="0" x="234.69991957035865" svgjs:data="{&quot;newLined&quot;:true}">PLAYER</tspan></text><image width="643" height="760" xlink:href="https://lct-designs.s3.us-west-1.amazonaws.com/assets/libs/devil-1-sofball-banner-1640682005963.png" class="asset" transform="matrix(0.05032535269856452,0,0,0.05032535269856452,321.9242267608642,226.42800921201703)"></image><text fill="#ffffff" font-family="Antilles" font-size="13" x="234.69991957035865" y="153.83799553939224" transform="matrix(1,0,0,0.9999999999999999,87.62226867675781,120.16920489072797)" svgjs:data="{&quot;leading&quot;:&quot;1.3&quot;}"><tspan dy="0" x="234.69991957035865" svgjs:data="{&quot;newLined&quot;:true}">PLAYER</tspan></text><image width="643" height="760" xlink:href="https://lct-designs.s3.us-west-1.amazonaws.com/assets/libs/devil-1-sofball-banner-1640682005963.png" class="asset" transform="matrix(0.05032536759972572,0,0,0.050325367599725716,386.1662292480468,226.42800921201703)"></image><text fill="#ffffff" font-family="Antilles" font-size="13" x="234.69991957035865" y="153.83799553939224" transform="matrix(1,0,0,0.9999999999999999,151.86427307128906,120.16920489072797)" svgjs:data="{&quot;leading&quot;:&quot;1.3&quot;}"><tspan dy="0" x="234.69991957035865" svgjs:data="{&quot;newLined&quot;:true}">PLAYER</tspan></text><image width="643" height="760" xlink:href="https://lct-designs.s3.us-west-1.amazonaws.com/assets/libs/devil-1-sofball-banner-1640682005963.png" class="asset" transform="matrix(0.05032538250088692,0,0,0.05032538250088691,448.3219909667969,225.5935060381889)"></image><text fill="#ffffff" font-family="Antilles" font-size="13" x="234.69991957035865" y="153.83799553939224" transform="matrix(1,0,0,0.9999999999999999,214.02003479003906,119.33470171689987)" svgjs:data="{&quot;leading&quot;:&quot;1.3&quot;}"><tspan dy="0" x="234.69991957035865" svgjs:data="{&quot;newLined&quot;:true}">PLAYER</tspan></text><text fill="#ffffff" font-family="Antilles" font-size="13" x="200.36126600590552" y="155.08974553176284" transform="matrix(1,0,0,0.9999999999999999,-172.73992919921875,-130.8091888427734)" svgjs:data="{&quot;leading&quot;:&quot;1.3&quot;}"><tspan dy="0" x="200.36126600590552" svgjs:data="{&quot;newLined&quot;:true}">COACH: COACH'S NAME</tspan></text><text fill="#ffffff" font-family="Antilles" font-size="13" x="178.252802718552" y="155.08974553176284" transform="matrix(1,0,0,0.9999999999999999,154.381103515625,-130.80917358398438)" svgjs:data="{&quot;leading&quot;:&quot;1.3&quot;}"><tspan dy="0" x="178.252802718552" svgjs:data="{&quot;newLined&quot;:true}">TEAM MOM: TEAM MOM'S NAME</tspan></text><g class="mask" style="pointer-events: none;"><path fill="#777777" enable-background="new    " d="M-1684.9-1014.6v2330.1h3870.8v-2330.1H-1684.9z M500.5,300.5H0.5V0.5h500
	V300.5z"></path></g></svg>