<svg xmlns="http://www.w3.org/2000/svg" version="1.1" xmlns:xlink="http://www.w3.org/1999/xlink" xmlns:svgjs="http://svgjs.dev/svgjs" width="100%" height="100%" viewBox="1 1 499 365.70001220703125" preserveAspectRatio="none" data-info="{&quot;_id&quot;:4,&quot;name&quot;:&quot;POLE POCKET SOCCER BANNERS&quot;,&quot;information&quot;:&quot;- Size: 3’x5’\n- Material: heavy duty vinyl banner\n- Digitally printed on vinyl&quot;,&quot;price&quot;:&quot;95.00&quot;,&quot;sale_price&quot;:&quot;89.99&quot;,&quot;type&quot;:&quot;pole-pocket&quot;,&quot;cover&quot;:{&quot;key&quot;:&quot;assets/models/pole-1628062864266-1631924568908.png&quot;,&quot;url&quot;:&quot;https://lct-designs.s3.us-west-1.amazonaws.com/assets/models/pole-1628062864266-1631924568908.png&quot;},&quot;back&quot;:{&quot;key&quot;:&quot;assets/models/pole-1631924700152.svg&quot;,&quot;url&quot;:&quot;https://lct-designs.s3.us-west-1.amazonaws.com/assets/models/pole-1631924700152.svg&quot;},&quot;mask&quot;:{&quot;key&quot;:&quot;assets/models/pole-mask-1631925211715.svg&quot;,&quot;url&quot;:&quot;https://lct-designs.s3.us-west-1.amazonaws.com/assets/models/pole-mask-1631925211715.svg&quot;},&quot;pos&quot;:&quot;2&quot;,&quot;accessories&quot;:&quot;2,3&quot;}" style="background-color: white;"><g class="model" style="pointer-events: none;"><polygon fill="#FFFFFF" points="0.5,0.5 0.5,67.2 0.5,300.5 0.5,367.2 500.5,367.2 500.5,300.5 500.5,67.2 500.5,0.5 "></polygon></g><image width="760" height="556" xlink:href="https://lct-designs.s3.us-west-1.amazonaws.com/assets/libs/chili-peppers2-softball-banner-1640682447701.png" class="asset background locked" transform="matrix(0.6595323960558116,0,0,0.6595323960558116,0,0)"></image><image width="760" height="740" xlink:href="https://lct-designs.s3.us-west-1.amazonaws.com/assets/libs/chili-peppers2-softball-banner-1640682384608.png" class="asset" transform="matrix(0.15958660840988162,0,0,0.15958660840988162,195.9560089111328,68.44397735595703)"></image><image width="532" height="760" xlink:href="https://lct-designs.s3.us-west-1.amazonaws.com/assets/libs/chili-peppers2-softball-banner-1640682138443.png" class="asset" transform="matrix(0.1315789371728897,0,0,0.13157893717288974,216.51649475097656,164.69163513183597)"></image><image width="760" height="690" xlink:href="https://lct-designs.s3.us-west-1.amazonaws.com/assets/libs/chili-peppers2-softball-banner-1640682005961.png" class="asset" transform="matrix(0.05025896057486535,0,0,0.05025896057486535,311.52996826171875,231.79347229003906)"></image><text fill="#000000" font-family="American Captain" font-size="15" x="230.24248634214945" y="189.9703057259009" transform="matrix(1,0,0,1,86.70236206054688,89.25584411621094)" svgjs:data="{&quot;leading&quot;:&quot;1.3&quot;}"><tspan dy="0" x="230.24248634214945" svgjs:data="{&quot;newLined&quot;:true}">PLAYER</tspan></text><image width="760" height="690" xlink:href="https://lct-designs.s3.us-west-1.amazonaws.com/assets/libs/chili-peppers2-softball-banner-1640682005961.png" class="asset" transform="matrix(0.050258968025445945,0,0,0.05025896802544594,347.5406799316406,174.1596832275391)"></image><text fill="#000000" font-family="American Captain" font-size="15" x="230.24248634214945" y="189.9703057259009" transform="matrix(1,0,0,1,122.71307373046875,31.62206268310546)" svgjs:data="{&quot;leading&quot;:&quot;1.3&quot;}"><tspan dy="0" x="230.24248634214945" svgjs:data="{&quot;newLined&quot;:true}">PLAYER</tspan></text><image width="760" height="690" xlink:href="https://lct-designs.s3.us-west-1.amazonaws.com/assets/libs/chili-peppers2-softball-banner-1640682005961.png" class="asset" transform="matrix(0.050258975476026535,0,0,0.05025897547602654,323.3697509765625,100.71488189697266)"></image><text fill="#000000" font-family="American Captain" font-size="15" x="230.24248634214945" y="189.9703057259009" transform="matrix(1,0,0,1,98.54214477539062,-41.82273864746094)" svgjs:data="{&quot;leading&quot;:&quot;1.3&quot;}"><tspan dy="0" x="230.24248634214945" svgjs:data="{&quot;newLined&quot;:true}">PLAYER</tspan></text><image width="760" height="690" xlink:href="https://lct-designs.s3.us-west-1.amazonaws.com/assets/libs/chili-peppers2-softball-banner-1640682005961.png" class="asset" transform="matrix(0.050258990377187736,0,0,0.050258990377187736,404.7716979980469,101.22492218017581)"></image><text fill="#000000" font-family="American Captain" font-size="15" x="230.24248634214945" y="189.9703057259009" transform="matrix(1,0,0,1,179.944091796875,-41.31269836425781)" svgjs:data="{&quot;leading&quot;:&quot;1.3&quot;}"><tspan dy="0" x="230.24248634214945" svgjs:data="{&quot;newLined&quot;:true}">PLAYER</tspan></text><image width="760" height="690" xlink:href="https://lct-designs.s3.us-west-1.amazonaws.com/assets/libs/chili-peppers2-softball-banner-1640682005961.png" class="asset" transform="matrix(0.05025903135538102,0,0,0.05025903135538101,435.1722717285156,171.6095123291016)"></image><text fill="#000000" font-family="American Captain" font-size="15" x="230.24248634214945" y="189.9703057259009" transform="matrix(1,0,0,1,210.34466552734375,29.071891784667976)" svgjs:data="{&quot;leading&quot;:&quot;1.3&quot;}"><tspan dy="0" x="230.24248634214945" svgjs:data="{&quot;newLined&quot;:true}">PLAYER</tspan></text><image width="760" height="690" xlink:href="https://lct-designs.s3.us-west-1.amazonaws.com/assets/libs/chili-peppers2-softball-banner-1640682005961.png" class="asset" transform="matrix(0.05025901272892953,0,0,0.05025901272892953,411.0013427734375,235.8737182617188)"></image><text fill="#000000" font-family="American Captain" font-size="15" x="230.24248634214945" y="189.9703057259009" transform="matrix(1,0,0,1,186.17373657226562,93.33609771728516)" svgjs:data="{&quot;leading&quot;:&quot;1.3&quot;}"><tspan dy="0" x="230.24248634214945" svgjs:data="{&quot;newLined&quot;:true}">PLAYER</tspan></text><image width="760" height="690" xlink:href="https://lct-designs.s3.us-west-1.amazonaws.com/assets/libs/chili-peppers2-softball-banner-1640682005961.png" class="asset" transform="matrix(-0.04838716238737106,0,0,0.050259087234735496,62.290397644043,104.7951583862305)"></image><text fill="#000000" font-family="American Captain" font-size="15" x="230.24248634214945" y="189.9703057259009" transform="matrix(1,0,0,1,-204.26415252685547,-36.72239685058594)" svgjs:data="{&quot;leading&quot;:&quot;1.3&quot;}"><tspan dy="0" x="230.24248634214945" svgjs:data="{&quot;newLined&quot;:true}">PLAYER</tspan></text><image width="760" height="690" xlink:href="https://lct-designs.s3.us-west-1.amazonaws.com/assets/libs/chili-peppers2-softball-banner-1640682005961.png" class="asset" transform="matrix(-0.048387184739112854,0,0,0.05025910213589669,53.62016296386719,171.0995025634766)"></image><text fill="#000000" font-family="American Captain" font-size="15" x="230.24248634214945" y="189.9703057259009" transform="matrix(1,0,0,1,-212.9343719482422,29.581939697265632)" svgjs:data="{&quot;leading&quot;:&quot;1.3&quot;}"><tspan dy="0" x="230.24248634214945" svgjs:data="{&quot;newLined&quot;:true}">PLAYER</tspan></text><image width="760" height="690" xlink:href="https://lct-designs.s3.us-west-1.amazonaws.com/assets/libs/chili-peppers2-softball-banner-1640682005961.png" class="asset" transform="matrix(-0.048387184739112854,0,0,0.05025910213589669,74.02070617675781,237.91383361816406)"></image><text fill="#000000" font-family="American Captain" font-size="15" x="230.24248634214945" y="189.9703057259009" transform="matrix(1,0,0,1,-192.5338287353516,96.39628601074219)" svgjs:data="{&quot;leading&quot;:&quot;1.3&quot;}"><tspan dy="0" x="230.24248634214945" svgjs:data="{&quot;newLined&quot;:true}">PLAYER</tspan></text><image width="760" height="690" xlink:href="https://lct-designs.s3.us-west-1.amazonaws.com/assets/libs/chili-peppers2-softball-banner-1640682005961.png" class="asset" transform="matrix(-0.04838717356324196,0,0,0.050259094685316086,160.01280975341797,104.28513336181643)"></image><text fill="#000000" font-family="American Captain" font-size="15" x="230.24248634214945" y="189.9703057259009" transform="matrix(1,0,0,1,-106.54174041748047,-37.232421875)" svgjs:data="{&quot;leading&quot;:&quot;1.3&quot;}"><tspan dy="0" x="230.24248634214945" svgjs:data="{&quot;newLined&quot;:true}">PLAYER</tspan></text><image width="760" height="690" xlink:href="https://lct-designs.s3.us-west-1.amazonaws.com/assets/libs/chili-peppers2-softball-banner-1640682005961.png" class="asset" transform="matrix(-0.04838721826672554,0,0,0.05025913193821908,142.16230010986328,172.62957763671878)"></image><text fill="#000000" font-family="American Captain" font-size="15" x="230.24248634214945" y="189.9703057259009" transform="matrix(1,0,0,1,-124.3922348022461,31.11200714111329)" svgjs:data="{&quot;leading&quot;:&quot;1.3&quot;}"><tspan dy="0" x="230.24248634214945" svgjs:data="{&quot;newLined&quot;:true}">PLAYER</tspan></text><image width="760" height="690" xlink:href="https://lct-designs.s3.us-west-1.amazonaws.com/assets/libs/chili-peppers2-softball-banner-1640682005961.png" class="asset" transform="matrix(-0.04838721826672554,0,0,0.05025913193821908,172.76316452026367,235.87372589111328)"></image><text fill="#000000" font-family="American Captain" font-size="15" x="230.24248634214945" y="189.9703057259009" transform="matrix(1,0,0,1,-93.7913932800293,94.35616302490237)" svgjs:data="{&quot;leading&quot;:&quot;1.3&quot;}"><tspan dy="0" x="230.24248634214945" svgjs:data="{&quot;newLined&quot;:true}">PLAYER</tspan></text><text fill="#000000" font-family="American Captain" font-size="15" x="199.7930558764512" y="189.20527009662842" transform="matrix(1,0,0,1,-186.15509033203125,-105.0668716430664)" svgjs:data="{&quot;leading&quot;:&quot;1.3&quot;}"><tspan dy="0" x="199.7930558764512" svgjs:data="{&quot;newLined&quot;:true}">COACH: COACH'S NAME</tspan></text><text fill="#000000" font-family="American Captain" font-size="15" x="180.41333328123636" y="189.20527009662842" transform="matrix(1,0,0,1,158.6143341064453,-105.06687927246095)" svgjs:data="{&quot;leading&quot;:&quot;1.3&quot;}"><tspan dy="0" x="180.41333328123636" svgjs:data="{&quot;newLined&quot;:true}">TEAM MOM: TEAM MOM'S NAME</tspan></text><g class="mask" style="pointer-events: none;"><g><path fill="#BCBEC0" d="M-3642.4-2101.7v4589.1h7813.4v-4589.1H-3642.4z M500.5,67.2v233.3v66.7H0.5v-66.7V67.2V0.5h500V67.2z" transform="matrix(1,0,0,1,0,0)"></path><g transform="matrix(1,0,0,1,0,0)">
	<rect x="0.5" y="300.5" opacity="0.95" fill="#F1F2F2" width="500" height="66.7"></rect>
	<rect x="0.5" y="0.5" opacity="0.95" fill="#F1F2F2" width="500" height="66.7"></rect>
</g></g></g></svg>