<svg xmlns="http://www.w3.org/2000/svg" version="1.1" xmlns:xlink="http://www.w3.org/1999/xlink" xmlns:svgjs="http://svgjs.dev/svgjs" width="100%" height="100%" viewBox="1 1 499 299" preserveAspectRatio="none" data-info="{&quot;_id&quot;:1,&quot;name&quot;:&quot;HEM &amp; GROMMETS&quot;,&quot;price&quot;:&quot;95.00&quot;,&quot;sale_price&quot;:&quot;89.99&quot;,&quot;cover&quot;:{&quot;key&quot;:&quot;assets/models/hem-1628062436886-1630830942566.png&quot;,&quot;url&quot;:&quot;https://lct-designs.s3.us-west-1.amazonaws.com/assets/models/hem-1628062436886-1630830942566.png&quot;},&quot;back&quot;:{&quot;key&quot;:&quot;assets/models/hem-1630831057346.svg&quot;,&quot;url&quot;:&quot;https://lct-designs.s3.us-west-1.amazonaws.com/assets/models/hem-1630831057346.svg&quot;},&quot;mask&quot;:{&quot;key&quot;:&quot;assets/models/hem.mask-1630831063496.svg&quot;,&quot;url&quot;:&quot;https://lct-designs.s3.us-west-1.amazonaws.com/assets/models/hem.mask-1630831063496.svg&quot;},&quot;information&quot;:&quot;Size 3'x5'&quot;,&quot;type&quot;:&quot;hem-grommet&quot;,&quot;pos&quot;:&quot;1&quot;,&quot;accessories&quot;:&quot;2,3&quot;,&quot;width&quot;:&quot;60&quot;,&quot;height&quot;:&quot;36&quot;}" style="background-color: white;"><g class="model" style="pointer-events: none;"><rect x="0.5" y="0.5" fill="none" stroke="#000000" stroke-miterlimit="10" width="500" height="300"></rect></g><image width="760" height="455" xlink:href="https://lct-designs.s3.us-west-1.amazonaws.com/assets/libs/star-softball-banner-1640684044838.png" class="asset background locked" transform="matrix(0.6593406593406593,0,0,0.6593406593406593,0,0)"></image><image width="760" height="593" xlink:href="https://lct-designs.s3.us-west-1.amazonaws.com/assets/libs/star-softball-banner-1640683948801.png" class="asset" transform="matrix(0.24838003516197205,0,0,0.24838003516197205,165.3685760498047,10.845845222473145)"></image><image width="760" height="686" xlink:href="https://lct-designs.s3.us-west-1.amazonaws.com/assets/libs/star-softball-banner-1640683757137.png" class="asset" transform="matrix(0.20274223387241364,0,0,0.20274223387241364,14.325433731079102,141.58677673339844)"></image><image width="760" height="670" xlink:href="https://lct-designs.s3.us-west-1.amazonaws.com/assets/libs/star-softball-banner-1640683677762.png" class="asset" transform="matrix(0.05248868092894554,0,0,0.052488680928945534,182.05841064453125,181.86129760742185)"></image><text fill="#000000" font-family="American Captain" font-size="12" x="236.10384069767798" y="154.88112069198013" transform="matrix(1,0,0,0.9999999999999999,-48.495887756347656,25.45249938964843)" svgjs:data="{&quot;leading&quot;:&quot;1.3&quot;}"><tspan dy="0" x="236.10384069767798" svgjs:data="{&quot;newLined&quot;:true}">PLAYER</tspan></text><image width="760" height="670" xlink:href="https://lct-designs.s3.us-west-1.amazonaws.com/assets/libs/star-softball-banner-1640683677762.png" class="asset" transform="matrix(0.05248868092894554,0,0,0.052488680928945534,241.29345703125,182.27854922413826)"></image><text fill="#000000" font-family="American Captain" font-size="12" x="236.10384069767798" y="154.88112069198013" transform="matrix(1,0,0,0.9999999999999999,10.73915863037108,25.86975100636483)" svgjs:data="{&quot;leading&quot;:&quot;1.3&quot;}"><tspan dy="0" x="236.10384069767798" svgjs:data="{&quot;newLined&quot;:true}">PLAYER</tspan></text><image width="760" height="670" xlink:href="https://lct-designs.s3.us-west-1.amazonaws.com/assets/libs/star-softball-banner-1640683677762.png" class="asset" transform="matrix(0.05248868092894554,0,0,0.052488680928945534,181.61334228515625,238.19061279296872)"></image><text fill="#000000" font-family="American Captain" font-size="12" x="236.10384069767798" y="154.88112069198013" transform="matrix(1,0,0,0.9999999999999999,-48.940956115722656,81.78181457519528)" svgjs:data="{&quot;leading&quot;:&quot;1.3&quot;}"><tspan dy="0" x="236.10384069767798" svgjs:data="{&quot;newLined&quot;:true}">PLAYER</tspan></text><image width="760" height="670" xlink:href="https://lct-designs.s3.us-west-1.amazonaws.com/assets/libs/star-softball-banner-1640683677762.png" class="asset" transform="matrix(0.05248868092894554,0,0,0.052488680928945534,240.848388671875,237.77334600687024)"></image><text fill="#000000" font-family="American Captain" font-size="12" x="236.10384069767798" y="154.88112069198013" transform="matrix(1,0,0,0.9999999999999999,10.294090270996094,81.3645477890968)" svgjs:data="{&quot;leading&quot;:&quot;1.3&quot;}"><tspan dy="0" x="236.10384069767798" svgjs:data="{&quot;newLined&quot;:true}">PLAYER</tspan></text><image width="760" height="670" xlink:href="https://lct-designs.s3.us-west-1.amazonaws.com/assets/libs/star-softball-banner-1640683677762.png" class="asset" transform="matrix(0.05248868092894554,0,0,0.052488680928945534,304.6731567382812,181.86129760742185)"></image><text fill="#000000" font-family="American Captain" font-size="12" x="236.10384069767798" y="154.88112069198013" transform="matrix(1,0,0,0.9999999999999999,74.11885833740234,25.45249938964843)" svgjs:data="{&quot;leading&quot;:&quot;1.3&quot;}"><tspan dy="0" x="236.10384069767798" svgjs:data="{&quot;newLined&quot;:true}">PLAYER</tspan></text><image width="760" height="670" xlink:href="https://lct-designs.s3.us-west-1.amazonaws.com/assets/libs/star-softball-banner-1640683677762.png" class="asset" transform="matrix(0.05248868092894554,0,0,0.052488680928945534,302.9902648925781,237.77336120605466)"></image><text fill="#000000" font-family="American Captain" font-size="12" x="236.10384069767798" y="154.88112069198013" transform="matrix(1,0,0,0.9999999999999999,72.43596649169922,81.36456298828122)" svgjs:data="{&quot;leading&quot;:&quot;1.3&quot;}"><tspan dy="0" x="236.10384069767798" svgjs:data="{&quot;newLined&quot;:true}">PLAYER</tspan></text><image width="760" height="670" xlink:href="https://lct-designs.s3.us-west-1.amazonaws.com/assets/libs/star-softball-banner-1640683677762.png" class="asset" transform="matrix(0.05248868092894554,0,0,0.052488680928945534,365.1460571289062,182.2785491943359)"></image><text fill="#000000" font-family="American Captain" font-size="12" x="236.10384069767798" y="154.88112069198013" transform="matrix(1,0,0,0.9999999999999999,134.59176635742185,25.869750976562507)" svgjs:data="{&quot;leading&quot;:&quot;1.3&quot;}"><tspan dy="0" x="236.10384069767798" svgjs:data="{&quot;newLined&quot;:true}">PLAYER</tspan></text><image width="760" height="670" xlink:href="https://lct-designs.s3.us-west-1.amazonaws.com/assets/libs/star-softball-banner-1640683677762.png" class="asset" transform="matrix(0.05248868092894554,0,0,0.052488680928945534,363.8804016113281,236.93885803222648)"></image><text fill="#000000" font-family="American Captain" font-size="12" x="236.10384069767798" y="154.88112069198013" transform="matrix(1,0,0,0.9999999999999999,133.32611083984375,80.5300598144531)" svgjs:data="{&quot;leading&quot;:&quot;1.3&quot;}"><tspan dy="0" x="236.10384069767798" svgjs:data="{&quot;newLined&quot;:true}">PLAYER</tspan></text><image width="760" height="670" xlink:href="https://lct-designs.s3.us-west-1.amazonaws.com/assets/libs/star-softball-banner-1640683677762.png" class="asset" transform="matrix(0.05248868092894554,0,0,0.052488680928945534,428.9569091796875,181.44406127929685)"></image><text fill="#000000" font-family="American Captain" font-size="12" x="236.10384069767798" y="154.88112069198013" transform="matrix(1,0,0,0.9999999999999999,198.40261840820307,25.03526306152343)" svgjs:data="{&quot;leading&quot;:&quot;1.3&quot;}"><tspan dy="0" x="236.10384069767798" svgjs:data="{&quot;newLined&quot;:true}">PLAYER</tspan></text><image width="760" height="670" xlink:href="https://lct-designs.s3.us-west-1.amazonaws.com/assets/libs/star-softball-banner-1640683677762.png" class="asset" transform="matrix(0.05248868092894554,0,0,0.052488680928945534,428.52575683593744,237.77337646484372)"></image><text fill="#000000" font-family="American Captain" font-size="12" x="236.10384069767798" y="154.88112069198013" transform="matrix(1,0,0,0.9999999999999999,197.55422973632812,80.11280822753906)" svgjs:data="{&quot;leading&quot;:&quot;1.3&quot;}"><tspan dy="0" x="236.10384069767798" svgjs:data="{&quot;newLined&quot;:true}">PLAYER</tspan></text><image width="760" height="670" xlink:href="https://lct-designs.s3.us-west-1.amazonaws.com/assets/libs/star-softball-banner-1640683677762.png" class="asset" transform="matrix(0.05248868092894554,0,0,0.052488680928945534,368.0528564453125,71.7061996459961)"></image><text fill="#000000" font-family="American Captain" font-size="12" x="236.10384069767798" y="154.88112069198013" transform="matrix(1,0,0,0.9999999999999999,137.49856567382812,-84.70259857177734)" svgjs:data="{&quot;leading&quot;:&quot;1.3&quot;}"><tspan dy="0" x="236.10384069767798" svgjs:data="{&quot;newLined&quot;:true}">PLAYER</tspan></text><image width="760" height="670" xlink:href="https://lct-designs.s3.us-west-1.amazonaws.com/assets/libs/star-softball-banner-1640683677762.png" class="asset" transform="matrix(0.05248868092894554,0,0,0.052488680928945534,366.7872009277343,126.36650848388669)"></image><text fill="#000000" font-family="American Captain" font-size="12" x="236.10384069767798" y="154.88112069198013" transform="matrix(1,0,0,0.9999999999999999,136.23291015625,-30.042289733886715)" svgjs:data="{&quot;leading&quot;:&quot;1.3&quot;}"><tspan dy="0" x="236.10384069767798" svgjs:data="{&quot;newLined&quot;:true}">PLAYER</tspan></text><image width="760" height="670" xlink:href="https://lct-designs.s3.us-west-1.amazonaws.com/assets/libs/star-softball-banner-1640683677762.png" class="asset" transform="matrix(0.05248868092894554,0,0,0.052488680928945534,431.8637084960937,70.87171173095703)"></image><text fill="#000000" font-family="American Captain" font-size="12" x="236.10384069767798" y="154.88112069198013" transform="matrix(1,0,0,0.9999999999999999,201.30941772460938,-85.5370864868164)" svgjs:data="{&quot;leading&quot;:&quot;1.3&quot;}"><tspan dy="0" x="236.10384069767798" svgjs:data="{&quot;newLined&quot;:true}">PLAYER</tspan></text><image width="760" height="670" xlink:href="https://lct-designs.s3.us-west-1.amazonaws.com/assets/libs/star-softball-banner-1640683677762.png" class="asset" transform="matrix(0.05248868092894554,0,0,0.052488680928945534,431.43255615234375,127.20102691650388)"></image><text fill="#000000" font-family="American Captain" font-size="12" x="236.10384069767798" y="154.88112069198013" transform="matrix(1,0,0,0.9999999999999999,200.46102905273432,-30.459541320800778)" svgjs:data="{&quot;leading&quot;:&quot;1.3&quot;}"><tspan dy="0" x="236.10384069767798" svgjs:data="{&quot;newLined&quot;:true}">PLAYER</tspan></text><text fill="#000000" font-family="American Captain" font-size="12" x="194.3973568567356" y="147.0811200244081" transform="matrix(1,0,0,0.9999999999999999,-163.14324951171875,-113.49312591552732)" svgjs:data="{&quot;leading&quot;:&quot;1.3&quot;}"><tspan dy="0" x="194.3973568567356" svgjs:data="{&quot;newLined&quot;:true}">COACH: COACH'S NAME</tspan><tspan dy="15.600000000000001" x="194.3973568567356" svgjs:data="{&quot;newLined&quot;:true}">TEAM MOM: TEAM MOM'S NAME</tspan></text><g class="mask" style="pointer-events: none;"><path fill="#777777" enable-background="new    " d="M-1684.9-1014.6v2330.1h3870.8v-2330.1H-1684.9z M500.5,300.5H0.5V0.5h500
	V300.5z"></path></g></svg>