<svg xmlns="http://www.w3.org/2000/svg" version="1.1" xmlns:xlink="http://www.w3.org/1999/xlink" xmlns:svgjs="http://svgjs.dev/svgjs" width="100%" height="100%" viewBox="1 1 499 299" preserveAspectRatio="none" data-info="{&quot;_id&quot;:1,&quot;name&quot;:&quot;HEM &amp; GROMMETS&quot;,&quot;price&quot;:&quot;95.00&quot;,&quot;sale_price&quot;:&quot;89.99&quot;,&quot;cover&quot;:{&quot;key&quot;:&quot;assets/models/hem-1628062436886-1630830942566.png&quot;,&quot;url&quot;:&quot;https://lct-designs.s3.us-west-1.amazonaws.com/assets/models/hem-1628062436886-1630830942566.png&quot;},&quot;back&quot;:{&quot;key&quot;:&quot;assets/models/hem-1630831057346.svg&quot;,&quot;url&quot;:&quot;https://lct-designs.s3.us-west-1.amazonaws.com/assets/models/hem-1630831057346.svg&quot;},&quot;mask&quot;:{&quot;key&quot;:&quot;assets/models/hem.mask-1630831063496.svg&quot;,&quot;url&quot;:&quot;https://lct-designs.s3.us-west-1.amazonaws.com/assets/models/hem.mask-1630831063496.svg&quot;},&quot;information&quot;:&quot;Size 3'x5'&quot;,&quot;type&quot;:&quot;hem-grommet&quot;,&quot;pos&quot;:&quot;1&quot;,&quot;accessories&quot;:&quot;2,3&quot;,&quot;width&quot;:&quot;60&quot;,&quot;height&quot;:&quot;36&quot;}" style="background-color: white;"><g class="model" style="pointer-events: none;"><rect x="0.5" y="0.5" fill="none" stroke="#000000" stroke-miterlimit="10" width="500" height="300"></rect></g><image width="760" height="455" xlink:href="https://lct-designs.s3.us-west-1.amazonaws.com/assets/libs/river-cats-2-softball-banner-1640684044836.png" class="asset background locked" transform="matrix(0.6593406593406593,0,0,0.6593406593406593,0,0)"></image><image width="759" height="581" xlink:href="https://lct-designs.s3.us-west-1.amazonaws.com/assets/libs/river-cats-2-softball-banner-1640683948799.png" class="asset" transform="matrix(0.32708996534347534,0,0,0.32708996534347534,126.14744567871094,96.28752899169919)"></image><image width="760" height="750" xlink:href="https://lct-designs.s3.us-west-1.amazonaws.com/assets/libs/river-cats-2-softball-banner-1640683677761.png" class="asset" transform="matrix(0.04924190416932106,0,0,0.04924190416932105,335.7079772949219,38.904281616210945)"></image><image width="760" height="750" xlink:href="https://lct-designs.s3.us-west-1.amazonaws.com/assets/libs/river-cats-2-softball-banner-1640683677761.png" class="asset" transform="matrix(0.04924190416932106,0,0,0.04924190416932105,404.5397033691406,40.15604400634766)"></image><text fill="#ffffff" font-family="BubbleGum" font-size="12" x="231.30574117985572" y="153.83799506255508" transform="matrix(1,0,0,0.9999999999999999,103.03199005126953,-67.59516906738281)" svgjs:data="{&quot;leading&quot;:&quot;1.3&quot;}"><tspan dy="0" x="231.30574117985572" svgjs:data="{&quot;newLined&quot;:true}">PLAYER</tspan></text><text fill="#ffffff" font-family="BubbleGum" font-size="12" x="231.30574117985572" y="153.83799506255508" transform="matrix(1,0,0,0.9999999999999999,171.86370849609372,-66.3434066772461)" svgjs:data="{&quot;leading&quot;:&quot;1.3&quot;}"><tspan dy="0" x="231.30574117985572" svgjs:data="{&quot;newLined&quot;:true}">PLAYER</tspan></text><image width="760" height="750" xlink:href="https://lct-designs.s3.us-west-1.amazonaws.com/assets/libs/river-cats-2-softball-banner-1640683677761.png" class="asset" transform="matrix(0.04924190416932106,0,0,0.04924190416932105,53.26015853881836,37.23526382446288)"></image><image width="760" height="750" xlink:href="https://lct-designs.s3.us-west-1.amazonaws.com/assets/libs/river-cats-2-softball-banner-1640683677761.png" class="asset" transform="matrix(0.04924190416932106,0,0,0.04924190416932105,122.09187316894528,38.4870262145996)"></image><image width="760" height="750" xlink:href="https://lct-designs.s3.us-west-1.amazonaws.com/assets/libs/river-cats-2-softball-banner-1640683677761.png" class="asset" transform="matrix(0.04924190416932106,0,0,0.04924190416932105,193.44097137451172,37.652519226074226)"></image><image width="760" height="750" xlink:href="https://lct-designs.s3.us-west-1.amazonaws.com/assets/libs/river-cats-2-softball-banner-1640683677761.png" class="asset" transform="matrix(0.04924190416932106,0,0,0.04924190416932105,262.27268218994135,38.904281616210945)"></image><text fill="#ffffff" font-family="BubbleGum" font-size="12" x="231.30574117985572" y="153.83799506255508" transform="matrix(1,0,0,0.9999999999999999,-179.41585540771484,-69.26418685913086)" svgjs:data="{&quot;leading&quot;:&quot;1.3&quot;}"><tspan dy="0" x="231.30574117985572" svgjs:data="{&quot;newLined&quot;:true}">PLAYER</tspan></text><text fill="#ffffff" font-family="BubbleGum" font-size="12" x="231.30574117985572" y="153.83799506255508" transform="matrix(1,0,0,0.9999999999999999,-110.58414459228516,-68.01242446899414)" svgjs:data="{&quot;leading&quot;:&quot;1.3&quot;}"><tspan dy="0" x="231.30574117985572" svgjs:data="{&quot;newLined&quot;:true}">PLAYER</tspan></text><text fill="#ffffff" font-family="BubbleGum" font-size="12" x="231.30574117985572" y="153.83799506255508" transform="matrix(1,0,0,0.9999999999999999,-39.23503875732422,-68.8469352722168)" svgjs:data="{&quot;leading&quot;:&quot;1.3&quot;}"><tspan dy="0" x="231.30574117985572" svgjs:data="{&quot;newLined&quot;:true}">PLAYER</tspan></text><text fill="#ffffff" font-family="BubbleGum" font-size="12" x="231.30574117985572" y="153.83799506255508" transform="matrix(1,0,0,0.9999999999999999,29.59667205810547,-67.59516906738281)" svgjs:data="{&quot;leading&quot;:&quot;1.3&quot;}"><tspan dy="0" x="231.30574117985572" svgjs:data="{&quot;newLined&quot;:true}">PLAYER</tspan></text><image width="760" height="750" xlink:href="https://lct-designs.s3.us-west-1.amazonaws.com/assets/libs/river-cats-2-softball-banner-1640683677761.png" class="asset" transform="matrix(0.04924190416932106,0,0,0.04924190416932105,373.2462158203125,112.75827023386952)"></image><image width="760" height="750" xlink:href="https://lct-designs.s3.us-west-1.amazonaws.com/assets/libs/river-cats-2-softball-banner-1640683677761.png" class="asset" transform="matrix(0.04924190416932106,0,0,0.04924190416932105,442.07794189453125,114.01003262400627)"></image><text fill="#ffffff" font-family="BubbleGum" font-size="12" x="231.30574117985572" y="153.83799506255508" transform="matrix(1,0,0,0.9999999999999999,140.57022094726562,6.258819550275803)" svgjs:data="{&quot;leading&quot;:&quot;1.3&quot;}"><tspan dy="0" x="231.30574117985572" svgjs:data="{&quot;newLined&quot;:true}">PLAYER</tspan></text><text fill="#ffffff" font-family="BubbleGum" font-size="12" x="231.30574117985572" y="153.83799506255508" transform="matrix(1,0,0,0.9999999999999999,209.40194702148438,7.510581940412514)" svgjs:data="{&quot;leading&quot;:&quot;1.3&quot;}"><tspan dy="0" x="231.30574117985572" svgjs:data="{&quot;newLined&quot;:true}">PLAYER</tspan></text><image width="760" height="750" xlink:href="https://lct-designs.s3.us-west-1.amazonaws.com/assets/libs/river-cats-2-softball-banner-1640683677761.png" class="asset" transform="matrix(0.04924190416932106,0,0,0.04924190416932105,376.1530151367187,194.1228332221508)"></image><image width="760" height="750" xlink:href="https://lct-designs.s3.us-west-1.amazonaws.com/assets/libs/river-cats-2-softball-banner-1640683677761.png" class="asset" transform="matrix(0.04924190416932106,0,0,0.04924190416932105,444.9847412109375,195.374587982893)"></image><text fill="#ffffff" font-family="BubbleGum" font-size="12" x="231.30574117985572" y="153.83799506255508" transform="matrix(1,0,0,0.9999999999999999,143.47702026367185,87.62338253855705)" svgjs:data="{&quot;leading&quot;:&quot;1.3&quot;}"><tspan dy="0" x="231.30574117985572" svgjs:data="{&quot;newLined&quot;:true}">PLAYER</tspan></text><text fill="#ffffff" font-family="BubbleGum" font-size="12" x="231.30574117985572" y="153.83799506255508" transform="matrix(1,0,0,0.9999999999999999,212.30874633789062,88.87514492869377)" svgjs:data="{&quot;leading&quot;:&quot;1.3&quot;}"><tspan dy="0" x="231.30574117985572" svgjs:data="{&quot;newLined&quot;:true}">PLAYER</tspan></text><image width="760" height="750" xlink:href="https://lct-designs.s3.us-west-1.amazonaws.com/assets/libs/river-cats-2-softball-banner-1640683677761.png" class="asset" transform="matrix(0.04924190416932106,0,0,0.04924190416932105,15.23507308959961,109.83748626708984)"></image><text fill="#ffffff" font-family="BubbleGum" font-size="12" x="231.30574117985572" y="153.83799506255508" transform="matrix(1,0,0,0.9999999999999999,-217.44091796874997,3.3380355834960938)" svgjs:data="{&quot;leading&quot;:&quot;1.3&quot;}"><tspan dy="0" x="231.30574117985572" svgjs:data="{&quot;newLined&quot;:true}">PLAYER</tspan></text><image width="760" height="750" xlink:href="https://lct-designs.s3.us-west-1.amazonaws.com/assets/libs/river-cats-2-softball-banner-1640683677761.png" class="asset" transform="matrix(0.04924190416932106,0,0,0.04924190416932105,84.06679916381836,111.08924865722653)"></image><text fill="#ffffff" font-family="BubbleGum" font-size="12" x="231.30574117985572" y="153.83799506255508" transform="matrix(1,0,0,0.9999999999999999,-148.60919570922852,4.5897979736328125)" svgjs:data="{&quot;leading&quot;:&quot;1.3&quot;}"><tspan dy="0" x="231.30574117985572" svgjs:data="{&quot;newLined&quot;:true}">PLAYER</tspan></text><image width="760" height="750" xlink:href="https://lct-designs.s3.us-west-1.amazonaws.com/assets/libs/river-cats-2-softball-banner-1640683677761.png" class="asset" transform="matrix(0.04924190416932106,0,0,0.04924190416932105,18.141872406005845,191.20204925537107)"></image><image width="760" height="750" xlink:href="https://lct-designs.s3.us-west-1.amazonaws.com/assets/libs/river-cats-2-softball-banner-1640683677761.png" class="asset" transform="matrix(0.04924190416932106,0,0,0.04924190416932105,86.97359848022461,192.45380401611325)"></image><text fill="#ffffff" font-family="BubbleGum" font-size="12" x="231.30574117985572" y="153.83799506255508" transform="matrix(1,0,0,0.9999999999999999,-214.534122467041,84.70259857177734)" svgjs:data="{&quot;leading&quot;:&quot;1.3&quot;}"><tspan dy="0" x="231.30574117985572" svgjs:data="{&quot;newLined&quot;:true}">PLAYER</tspan></text><text fill="#ffffff" font-family="BubbleGum" font-size="12" x="231.30574117985572" y="153.83799506255508" transform="matrix(1,0,0,0.9999999999999999,-145.70239639282227,85.95436096191403)" svgjs:data="{&quot;leading&quot;:&quot;1.3&quot;}"><tspan dy="0" x="231.30574117985572" svgjs:data="{&quot;newLined&quot;:true}">PLAYER</tspan></text><text fill="#ffffff" font-family="BubbleGum" font-size="12" x="188.73754774418677" y="155.08974553176284" transform="matrix(1,0,0,0.9999999999999999,-173.99166870117188,-129.76605224609375)" svgjs:data="{&quot;leading&quot;:&quot;1.3&quot;}"><tspan dy="0" x="188.73754774418677" svgjs:data="{&quot;newLined&quot;:true}">COACH: COACH'S NAME</tspan></text><text fill="#ffffff" font-family="BubbleGum" font-size="12" x="165.87162913766707" y="155.08974553176284" transform="matrix(1,0,0,0.9999999999999999,148.95687866210935,-129.76605224609375)" svgjs:data="{&quot;leading&quot;:&quot;1.3&quot;}"><tspan dy="0" x="165.87162913766707" svgjs:data="{&quot;newLined&quot;:true}">TEAM MOM: TEAM MOM'S NAME</tspan></text><g class="mask" style="pointer-events: none;"><path fill="#777777" enable-background="new    " d="M-1684.9-1014.6v2330.1h3870.8v-2330.1H-1684.9z M500.5,300.5H0.5V0.5h500
	V300.5z"></path></g></svg>