<svg xmlns="http://www.w3.org/2000/svg" version="1.1" xmlns:xlink="http://www.w3.org/1999/xlink" xmlns:svgjs="http://svgjs.dev/svgjs" width="100%" height="100%" viewBox="1 1 499 299" preserveAspectRatio="none" data-info="{&quot;_id&quot;:1,&quot;name&quot;:&quot;HEM &amp; GROMMETS&quot;,&quot;price&quot;:&quot;95.00&quot;,&quot;sale_price&quot;:&quot;89.99&quot;,&quot;cover&quot;:{&quot;key&quot;:&quot;assets/models/hem-1628062436886-1630830942566.png&quot;,&quot;url&quot;:&quot;https://lct-designs.s3.us-west-1.amazonaws.com/assets/models/hem-1628062436886-1630830942566.png&quot;},&quot;back&quot;:{&quot;key&quot;:&quot;assets/models/hem-1630831057346.svg&quot;,&quot;url&quot;:&quot;https://lct-designs.s3.us-west-1.amazonaws.com/assets/models/hem-1630831057346.svg&quot;},&quot;mask&quot;:{&quot;key&quot;:&quot;assets/models/hem.mask-1630831063496.svg&quot;,&quot;url&quot;:&quot;https://lct-designs.s3.us-west-1.amazonaws.com/assets/models/hem.mask-1630831063496.svg&quot;},&quot;information&quot;:&quot;Size 3'x5'&quot;,&quot;type&quot;:&quot;hem-grommet&quot;,&quot;pos&quot;:&quot;1&quot;,&quot;accessories&quot;:&quot;2,3&quot;,&quot;width&quot;:&quot;60&quot;,&quot;height&quot;:&quot;36&quot;}" style="background-color: white;"><g class="model" style="pointer-events: none;"><rect x="0.5" y="0.5" fill="none" stroke="#000000" stroke-miterlimit="10" width="500" height="300"></rect></g><image width="760" height="455" xlink:href="https://lct-designs.s3.us-west-1.amazonaws.com/assets/libs/gator-softball-banner-1640682204485.png" class="asset background locked" transform="matrix(0.6593406593406593,0,0,0.6593406593406593,0,0)"></image><image width="760" height="540" xlink:href="https://lct-designs.s3.us-west-1.amazonaws.com/assets/libs/gator-softball-banner-1640682384614.png" class="asset" transform="matrix(0.26602503657341003,0,0,0.26602503657341003,102.3644027709961,14.749929428100579)"></image><image width="608" height="760" xlink:href="https://lct-designs.s3.us-west-1.amazonaws.com/assets/libs/gator-softball-banner-1640682138448.png" class="asset" transform="matrix(0.20075437426567075,0,0,0.20075437426567075,22.23919677734375,127.12151336669919)"></image><image width="760" height="686" xlink:href="https://lct-designs.s3.us-west-1.amazonaws.com/assets/libs/gator-sofball-banner-1640682005966.png" class="asset" transform="matrix(0.04399333894252777,0,0,0.04399333894252777,328.0945434570312,34.76974105834961)"></image><text fill="#000000" font-family="American Captain" font-size="12" x="235.05984802547025" y="153.21213213744923" transform="matrix(0.9999999999999999,0,0,1,95.35596466064452,-75.94026184082031)" svgjs:data="{&quot;leading&quot;:&quot;1.3&quot;}"><tspan dy="0" x="235.05984802547025" svgjs:data="{&quot;newLined&quot;:true}">PLAYER</tspan></text><image width="760" height="686" xlink:href="https://lct-designs.s3.us-west-1.amazonaws.com/assets/libs/gator-sofball-banner-1640682005966.png" class="asset" transform="matrix(0.04399333894252777,0,0,0.04399333894252777,395.2572631835937,34.76974105834961)"></image><text fill="#000000" font-family="American Captain" font-size="12" x="235.05984802547025" y="153.21213213744923" transform="matrix(0.9999999999999999,0,0,1,162.5186920166015,-75.94026184082031)" svgjs:data="{&quot;leading&quot;:&quot;1.3&quot;}"><tspan dy="0" x="235.05984802547025" svgjs:data="{&quot;newLined&quot;:true}">PLAYER</tspan></text><image width="760" height="686" xlink:href="https://lct-designs.s3.us-west-1.amazonaws.com/assets/libs/gator-sofball-banner-1640682005966.png" class="asset" transform="matrix(0.04399333894252777,0,0,0.04399333894252777,368.13626098632807,83.58847427368163)"></image><text fill="#000000" font-family="American Captain" font-size="12" x="235.05984802547025" y="153.21213213744923" transform="matrix(0.9999999999999999,0,0,1,135.3976821899414,-27.12152862548828)" svgjs:data="{&quot;leading&quot;:&quot;1.3&quot;}"><tspan dy="0" x="235.05984802547025" svgjs:data="{&quot;newLined&quot;:true}">PLAYER</tspan></text><image width="760" height="686" xlink:href="https://lct-designs.s3.us-west-1.amazonaws.com/assets/libs/gator-sofball-banner-1640682005966.png" class="asset" transform="matrix(0.04399333894252777,0,0,0.04399333894252777,435.29898071289057,83.58847427368163)"></image><text fill="#000000" font-family="American Captain" font-size="12" x="235.05984802547025" y="153.21213213744923" transform="matrix(0.9999999999999999,0,0,1,202.56040954589844,-27.12152862548828)" svgjs:data="{&quot;leading&quot;:&quot;1.3&quot;}"><tspan dy="0" x="235.05984802547025" svgjs:data="{&quot;newLined&quot;:true}">PLAYER</tspan></text><image width="760" height="686" xlink:href="https://lct-designs.s3.us-west-1.amazonaws.com/assets/libs/gator-sofball-banner-1640682005966.png" class="asset" transform="matrix(0.04399333894252777,0,0,0.04399333894252777,330.9874572753906,131.57269287109375)"></image><text fill="#000000" font-family="American Captain" font-size="12" x="235.05984802547025" y="153.21213213744923" transform="matrix(0.9999999999999999,0,0,1,98.24887084960936,20.862693786621094)" svgjs:data="{&quot;leading&quot;:&quot;1.3&quot;}"><tspan dy="0" x="235.05984802547025" svgjs:data="{&quot;newLined&quot;:true}">PLAYER</tspan></text><image width="760" height="686" xlink:href="https://lct-designs.s3.us-west-1.amazonaws.com/assets/libs/gator-sofball-banner-1640682005966.png" class="asset" transform="matrix(0.04399333894252777,0,0,0.04399333894252777,398.15017700195307,131.57269287109375)"></image><text fill="#000000" font-family="American Captain" font-size="12" x="235.05984802547025" y="153.21213213744923" transform="matrix(0.9999999999999999,0,0,1,165.41160583496094,20.862693786621094)" svgjs:data="{&quot;leading&quot;:&quot;1.3&quot;}"><tspan dy="0" x="235.05984802547025" svgjs:data="{&quot;newLined&quot;:true}">PLAYER</tspan></text><image width="760" height="686" xlink:href="https://lct-designs.s3.us-west-1.amazonaws.com/assets/libs/gator-sofball-banner-1640682005966.png" class="asset" transform="matrix(0.04399333894252777,0,0,0.04399333894252777,150.3059844970703,179.9741668701172)"></image><text fill="#000000" font-family="American Captain" font-size="12" x="235.05984802547025" y="153.21213213744923" transform="matrix(0.9999999999999999,0,0,1,-82.43260192871094,69.26416778564455)" svgjs:data="{&quot;leading&quot;:&quot;1.3&quot;}"><tspan dy="0" x="235.05984802547025" svgjs:data="{&quot;newLined&quot;:true}">PLAYER</tspan></text><image width="760" height="686" xlink:href="https://lct-designs.s3.us-west-1.amazonaws.com/assets/libs/gator-sofball-banner-1640682005966.png" class="asset" transform="matrix(0.04399333894252777,0,0,0.04399333894252777,217.46870422363276,179.9741668701172)"></image><text fill="#000000" font-family="American Captain" font-size="12" x="235.05984802547025" y="153.21213213744923" transform="matrix(0.9999999999999999,0,0,1,-15.269866943359368,69.26416778564455)" svgjs:data="{&quot;leading&quot;:&quot;1.3&quot;}"><tspan dy="0" x="235.05984802547025" svgjs:data="{&quot;newLined&quot;:true}">PLAYER</tspan></text><image width="760" height="686" xlink:href="https://lct-designs.s3.us-west-1.amazonaws.com/assets/libs/gator-sofball-banner-1640682005966.png" class="asset" transform="matrix(0.04399333894252777,0,0,0.04399333894252777,284.2280883789062,181.64317321777344)"></image><text fill="#000000" font-family="American Captain" font-size="12" x="235.05984802547025" y="153.21213213744923" transform="matrix(0.9999999999999999,0,0,1,51.48951721191406,70.93317413330077)" svgjs:data="{&quot;leading&quot;:&quot;1.3&quot;}"><tspan dy="0" x="235.05984802547025" svgjs:data="{&quot;newLined&quot;:true}">PLAYER</tspan></text><image width="760" height="686" xlink:href="https://lct-designs.s3.us-west-1.amazonaws.com/assets/libs/gator-sofball-banner-1640682005966.png" class="asset" transform="matrix(0.04399333894252777,0,0,0.04399333894252777,351.3908386230468,181.64317321777344)"></image><text fill="#000000" font-family="American Captain" font-size="12" x="235.05984802547025" y="153.21213213744923" transform="matrix(0.9999999999999999,0,0,1,118.65225219726561,70.93317413330077)" svgjs:data="{&quot;leading&quot;:&quot;1.3&quot;}"><tspan dy="0" x="235.05984802547025" svgjs:data="{&quot;newLined&quot;:true}">PLAYER</tspan></text><image width="760" height="686" xlink:href="https://lct-designs.s3.us-west-1.amazonaws.com/assets/libs/gator-sofball-banner-1640682005966.png" class="asset" transform="matrix(0.04399333894252777,0,0,0.04399333894252777,184.5062713623047,234.2172088623047)"></image><text fill="#000000" font-family="American Captain" font-size="12" x="235.05984802547025" y="153.21213213744923" transform="matrix(0.9999999999999999,0,0,1,-48.232315063476555,123.50720977783202)" svgjs:data="{&quot;leading&quot;:&quot;1.3&quot;}"><tspan dy="0" x="235.05984802547025" svgjs:data="{&quot;newLined&quot;:true}">PLAYER</tspan></text><image width="760" height="686" xlink:href="https://lct-designs.s3.us-west-1.amazonaws.com/assets/libs/gator-sofball-banner-1640682005966.png" class="asset" transform="matrix(0.04399333894252777,0,0,0.04399333894252777,251.66899108886713,234.2172088623047)"></image><text fill="#000000" font-family="American Captain" font-size="12" x="235.05984802547025" y="153.21213213744923" transform="matrix(0.9999999999999999,0,0,1,18.930419921875,123.50720977783202)" svgjs:data="{&quot;leading&quot;:&quot;1.3&quot;}"><tspan dy="0" x="235.05984802547025" svgjs:data="{&quot;newLined&quot;:true}">PLAYER</tspan></text><image width="760" height="686" xlink:href="https://lct-designs.s3.us-west-1.amazonaws.com/assets/libs/gator-sofball-banner-1640682005966.png" class="asset" transform="matrix(0.04399333894252777,0,0,0.04399333894252777,318.42837524414057,235.886215209961)"></image><text fill="#000000" font-family="American Captain" font-size="12" x="235.05984802547025" y="153.21213213744923" transform="matrix(0.9999999999999999,0,0,1,85.68980407714845,125.17621612548827)" svgjs:data="{&quot;leading&quot;:&quot;1.3&quot;}"><tspan dy="0" x="235.05984802547025" svgjs:data="{&quot;newLined&quot;:true}">PLAYER</tspan></text><image width="760" height="686" xlink:href="https://lct-designs.s3.us-west-1.amazonaws.com/assets/libs/gator-sofball-banner-1640682005966.png" class="asset" transform="matrix(0.04399333894252777,0,0,0.04399333894252777,385.5911254882812,235.886215209961)"></image><text fill="#000000" font-family="American Captain" font-size="12" x="235.05984802547025" y="153.21213213744923" transform="matrix(0.9999999999999999,0,0,1,152.8525390625,125.17621612548827)" svgjs:data="{&quot;leading&quot;:&quot;1.3&quot;}"><tspan dy="0" x="235.05984802547025" svgjs:data="{&quot;newLined&quot;:true}">PLAYER</tspan></text><image width="760" height="686" xlink:href="https://lct-designs.s3.us-west-1.amazonaws.com/assets/libs/gator-sofball-banner-1640682005966.png" class="asset" transform="matrix(0.04399333894252777,0,0,0.04399333894252777,423.96386718749994,181.6431884765625)"></image><text fill="#000000" font-family="American Captain" font-size="12" x="235.05984802547025" y="153.21213213744923" transform="matrix(0.9999999999999999,0,0,1,191.2252807617187,70.93318939208986)" svgjs:data="{&quot;leading&quot;:&quot;1.3&quot;}"><tspan dy="0" x="235.05984802547025" svgjs:data="{&quot;newLined&quot;:true}">PLAYER</tspan></text><text fill="#000000" font-family="American Captain" font-size="12" x="209.89612407985257" y="154.88113228622242" transform="matrix(0.9999999999999999,0,0,1,-188.1780090332031,-131.43505859375)" svgjs:data="{&quot;leading&quot;:&quot;1.3&quot;}"><tspan dy="0" x="209.89612407985257" svgjs:data="{&quot;newLined&quot;:true}">COACH: COACH'S NAME</tspan></text><text fill="#000000" font-family="American Captain" font-size="12" x="194.39736767116116" y="154.88113228622242" transform="matrix(0.9999999999999999,0,0,1,-172.32267761230466,-114.74488830566406)" svgjs:data="{&quot;leading&quot;:&quot;1.3&quot;}"><tspan dy="0" x="194.39736767116116" svgjs:data="{&quot;newLined&quot;:true}">TEAM MOM: TEAM MOM'S NAME</tspan></text><g class="mask" style="pointer-events: none;"><path fill="#777777" enable-background="new    " d="M-1684.9-1014.6v2330.1h3870.8v-2330.1H-1684.9z M500.5,300.5H0.5V0.5h500
	V300.5z"></path></g></svg>