<svg xmlns="http://www.w3.org/2000/svg" version="1.1" xmlns:xlink="http://www.w3.org/1999/xlink" xmlns:svgjs="http://svgjs.dev/svgjs" width="100%" height="100%" viewBox="1 1 499 299" preserveAspectRatio="none" data-info="{&quot;_id&quot;:1,&quot;name&quot;:&quot;HEM &amp; GROMMETS&quot;,&quot;price&quot;:&quot;95.00&quot;,&quot;sale_price&quot;:&quot;89.99&quot;,&quot;cover&quot;:{&quot;key&quot;:&quot;assets/models/hem-1628062436886-1630830942566.png&quot;,&quot;url&quot;:&quot;https://lct-designs.s3.us-west-1.amazonaws.com/assets/models/hem-1628062436886-1630830942566.png&quot;},&quot;back&quot;:{&quot;key&quot;:&quot;assets/models/hem-1630831057346.svg&quot;,&quot;url&quot;:&quot;https://lct-designs.s3.us-west-1.amazonaws.com/assets/models/hem-1630831057346.svg&quot;},&quot;mask&quot;:{&quot;key&quot;:&quot;assets/models/hem.mask-1630831063496.svg&quot;,&quot;url&quot;:&quot;https://lct-designs.s3.us-west-1.amazonaws.com/assets/models/hem.mask-1630831063496.svg&quot;},&quot;information&quot;:&quot;Size 3'x5'&quot;,&quot;type&quot;:&quot;hem-grommet&quot;,&quot;pos&quot;:&quot;1&quot;,&quot;accessories&quot;:&quot;2,3&quot;,&quot;width&quot;:&quot;60&quot;,&quot;height&quot;:&quot;36&quot;}" style="background-color: white;"><g class="model" style="pointer-events: none;"><rect x="0.5" y="0.5" fill="none" stroke="#000000" stroke-miterlimit="10" width="500" height="300"></rect></g><image width="760" height="455" xlink:href="https://lct-designs.s3.us-west-1.amazonaws.com/assets/libs/sharks1-softball-banner-1640684044838.png" class="asset background locked" transform="matrix(0.6593406593406593,0,0,0.6593406593406593,0,0)"></image><image width="572" height="760" xlink:href="https://lct-designs.s3.us-west-1.amazonaws.com/assets/libs/sharks1-softball-banner-1640683757137.png" class="asset" transform="matrix(0.21887174248695374,0,0,0.21887174248695374,43.800956726074205,105.42430114746095)"></image><image width="760" height="518" xlink:href="https://lct-designs.s3.us-west-1.amazonaws.com/assets/libs/sharks1-softball-banner-1640683948800.png" class="asset" transform="matrix(0.312815248966217,0,0,0.31281524896621704,145.75799560546875,78.36817169189452)"></image><image width="760" height="564" xlink:href="https://lct-designs.s3.us-west-1.amazonaws.com/assets/libs/arizona-2-baseball-banner-1640253782335.png" class="asset" transform="matrix(-0.05621157586574554,0,0,0.05907862260937691,87.3435287475586,25.688619613647454)"></image><text fill="#000000" font-family="American Captain" font-size="12" x="236.10384069767798" y="154.88112069198013" transform="matrix(1,0,0,0.9999999999999999,-190.6815185546875,-130.60055541992188)" svgjs:data="{&quot;leading&quot;:&quot;1.3&quot;}"><tspan dy="0" x="236.10384069767798" svgjs:data="{&quot;newLined&quot;:true}">PLAYER</tspan></text><image width="760" height="564" xlink:href="https://lct-designs.s3.us-west-1.amazonaws.com/assets/libs/arizona-2-baseball-banner-1640253782335.png" class="asset" transform="matrix(-0.05621157586574554,0,0,0.05907862260937691,63.12934112548828,80.76616859436032)"></image><text fill="#000000" font-family="American Captain" font-size="12" x="236.10384069767798" y="154.88112069198013" transform="matrix(1,0,0,0.9999999999999999,-214.8957061767578,-75.52300643920897)" svgjs:data="{&quot;leading&quot;:&quot;1.3&quot;}"><tspan dy="0" x="236.10384069767798" svgjs:data="{&quot;newLined&quot;:true}">PLAYER</tspan></text><image width="760" height="564" xlink:href="https://lct-designs.s3.us-west-1.amazonaws.com/assets/libs/arizona-2-baseball-banner-1640253782335.png" class="asset" transform="matrix(-0.05621157586574554,0,0,0.05907862260937691,144.89568328857422,54.89640808105468)"></image><text fill="#000000" font-family="American Captain" font-size="12" x="236.10384069767798" y="154.88112069198013" transform="matrix(1,0,0,0.9999999999999999,-133.12936401367188,-101.39276885986327)" svgjs:data="{&quot;leading&quot;:&quot;1.3&quot;}"><tspan dy="0" x="236.10384069767798" svgjs:data="{&quot;newLined&quot;:true}">PLAYER</tspan></text><image width="760" height="564" xlink:href="https://lct-designs.s3.us-west-1.amazonaws.com/assets/libs/arizona-2-baseball-banner-1640253782335.png" class="asset" transform="matrix(-0.05621157586574554,0,0,0.05907862260937691,201.20999908447266,98.29084014892575)"></image><text fill="#000000" font-family="American Captain" font-size="12" x="236.10384069767798" y="154.88112069198013" transform="matrix(1,0,0,0.9999999999999999,-76.8150405883789,-57.99833679199219)" svgjs:data="{&quot;leading&quot;:&quot;1.3&quot;}"><tspan dy="0" x="236.10384069767798" svgjs:data="{&quot;newLined&quot;:true}">PLAYER</tspan></text><image width="760" height="564" xlink:href="https://lct-designs.s3.us-west-1.amazonaws.com/assets/libs/arizona-2-baseball-banner-1640253782335.png" class="asset" transform="matrix(-0.05621157586574554,0,0,0.05907862260937691,195.77188110351562,28.192138671874993)"></image><text fill="#000000" font-family="American Captain" font-size="12" x="236.10384069767798" y="154.88112069198013" transform="matrix(1,0,0,0.9999999999999999,-82.2531509399414,-128.09703826904294)" svgjs:data="{&quot;leading&quot;:&quot;1.3&quot;}"><tspan dy="0" x="236.10384069767798" svgjs:data="{&quot;newLined&quot;:true}">PLAYER</tspan></text><image width="760" height="564" xlink:href="https://lct-designs.s3.us-west-1.amazonaws.com/assets/libs/arizona-2-baseball-banner-1640253782335.png" class="asset" transform="matrix(-0.05621157586574554,0,0,0.05907862260937691,261.265625,55.31365966796874)"></image><text fill="#000000" font-family="American Captain" font-size="12" x="236.10384069767798" y="154.88112069198013" transform="matrix(1,0,0,0.9999999999999999,-16.75940704345704,-100.97552490234375)" svgjs:data="{&quot;leading&quot;:&quot;1.3&quot;}"><tspan dy="0" x="236.10384069767798" svgjs:data="{&quot;newLined&quot;:true}">PLAYER</tspan></text><image width="760" height="564" xlink:href="https://lct-designs.s3.us-west-1.amazonaws.com/assets/libs/arizona-2-baseball-banner-1640253782335.png" class="asset" transform="matrix(-0.05621157586574554,0,0,0.05907862260937691,317.99719238281244,24.854103088378913)"></image><text fill="#000000" font-family="American Captain" font-size="12" x="236.10384069767798" y="154.88112069198013" transform="matrix(1,0,0,0.9999999999999999,39.97216033935547,-131.4350814819336)" svgjs:data="{&quot;leading&quot;:&quot;1.3&quot;}"><tspan dy="0" x="236.10384069767798" svgjs:data="{&quot;newLined&quot;:true}">PLAYER</tspan></text><image width="760" height="564" xlink:href="https://lct-designs.s3.us-west-1.amazonaws.com/assets/libs/arizona-2-baseball-banner-1640253782335.png" class="asset" transform="matrix(-0.05621157586574554,0,0,0.05907862260937691,388.49786376953125,34.86820220947265)"></image><text fill="#000000" font-family="American Captain" font-size="12" x="236.10384069767798" y="154.88112069198013" transform="matrix(1,0,0,0.9999999999999999,110.47283172607422,-121.42098999023438)" svgjs:data="{&quot;leading&quot;:&quot;1.3&quot;}"><tspan dy="0" x="236.10384069767798" svgjs:data="{&quot;newLined&quot;:true}">PLAYER</tspan></text><image width="760" height="564" xlink:href="https://lct-designs.s3.us-west-1.amazonaws.com/assets/libs/arizona-2-baseball-banner-1640253782335.png" class="asset" transform="matrix(-0.05621157586574554,0,0,0.05907862260937691,465.25726318359375,33.616439819335945)"></image><text fill="#000000" font-family="American Captain" font-size="12" x="236.10384069767798" y="154.88112069198013" transform="matrix(1,0,0,0.9999999999999999,187.23223114013672,-122.67275238037107)" svgjs:data="{&quot;leading&quot;:&quot;1.3&quot;}"><tspan dy="0" x="236.10384069767798" svgjs:data="{&quot;newLined&quot;:true}">PLAYER</tspan></text><image width="760" height="564" xlink:href="https://lct-designs.s3.us-west-1.amazonaws.com/assets/libs/arizona-2-baseball-banner-1640253782335.png" class="asset" transform="matrix(-0.05621157586574554,0,0,0.05907862260937691,443.1293029785156,94.11829757690427)"></image><text fill="#000000" font-family="American Captain" font-size="12" x="236.10384069767798" y="154.88112069198013" transform="matrix(1,0,0,0.9999999999999999,165.10427856445315,-62.17089462280273)" svgjs:data="{&quot;leading&quot;:&quot;1.3&quot;}"><tspan dy="0" x="236.10384069767798" svgjs:data="{&quot;newLined&quot;:true}">PLAYER</tspan></text><image width="760" height="564" xlink:href="https://lct-designs.s3.us-west-1.amazonaws.com/assets/libs/arizona-2-baseball-banner-1640253782335.png" class="asset" transform="matrix(-0.05621157586574554,0,0,0.05907862260937691,491.9331970214844,148.77859497070312)"></image><text fill="#000000" font-family="American Captain" font-size="12" x="236.10384069767798" y="154.88112069198013" transform="matrix(1,0,0,0.9999999999999999,213.90817260742182,-7.510601043701172)" svgjs:data="{&quot;leading&quot;:&quot;1.3&quot;}"><tspan dy="0" x="236.10384069767798" svgjs:data="{&quot;newLined&quot;:true}">PLAYER</tspan></text><image width="760" height="564" xlink:href="https://lct-designs.s3.us-west-1.amazonaws.com/assets/libs/arizona-2-baseball-banner-1640253782335.png" class="asset" transform="matrix(-0.05621157586574554,0,0,0.05907862260937691,441.0152587890625,194.25930786132812)"></image><text fill="#000000" font-family="American Captain" font-size="12" x="236.10384069767798" y="154.88112069198013" transform="matrix(1,0,0,0.9999999999999999,162.99023437499994,37.97011184692382)" svgjs:data="{&quot;leading&quot;:&quot;1.3&quot;}"><tspan dy="0" x="236.10384069767798" svgjs:data="{&quot;newLined&quot;:true}">PLAYER</tspan></text><text fill="#000000" font-family="American Captain" font-size="12" x="209.896113265427" y="154.88112069198013" transform="matrix(1,0,0,0.9999999999999999,-3.755218505859375,103.89628601074216)" svgjs:data="{&quot;leading&quot;:&quot;1.3&quot;}"><tspan dy="0" x="209.896113265427" svgjs:data="{&quot;newLined&quot;:true}">COACH: COACH'S NAME</tspan></text><text fill="#000000" font-family="American Captain" font-size="12" x="194.3973568567356" y="154.88112069198013" transform="matrix(1,0,0,0.9999999999999999,-3.75518798828125,117.66567993164062)" svgjs:data="{&quot;leading&quot;:&quot;1.3&quot;}"><tspan dy="0" x="194.3973568567356" svgjs:data="{&quot;newLined&quot;:true}">TEAM MOM: TEAM MOM'S NAME</tspan></text><g class="mask" style="pointer-events: none;"><path fill="#777777" enable-background="new    " d="M-1684.9-1014.6v2330.1h3870.8v-2330.1H-1684.9z M500.5,300.5H0.5V0.5h500
	V300.5z"></path></g></svg>