<svg xmlns="http://www.w3.org/2000/svg" version="1.1" xmlns:xlink="http://www.w3.org/1999/xlink" xmlns:svgjs="http://svgjs.dev/svgjs" width="100%" height="100%" viewBox="1 1 499 299" preserveAspectRatio="none" data-info="{&quot;_id&quot;:1,&quot;name&quot;:&quot;HEM &amp; GROMMETS&quot;,&quot;price&quot;:&quot;95.00&quot;,&quot;sale_price&quot;:&quot;89.99&quot;,&quot;cover&quot;:{&quot;key&quot;:&quot;assets/models/hem-1628062436886-1630830942566.png&quot;,&quot;url&quot;:&quot;https://lct-designs.s3.us-west-1.amazonaws.com/assets/models/hem-1628062436886-1630830942566.png&quot;},&quot;back&quot;:{&quot;key&quot;:&quot;assets/models/hem-1630831057346.svg&quot;,&quot;url&quot;:&quot;https://lct-designs.s3.us-west-1.amazonaws.com/assets/models/hem-1630831057346.svg&quot;},&quot;mask&quot;:{&quot;key&quot;:&quot;assets/models/hem.mask-1630831063496.svg&quot;,&quot;url&quot;:&quot;https://lct-designs.s3.us-west-1.amazonaws.com/assets/models/hem.mask-1630831063496.svg&quot;},&quot;information&quot;:&quot;Size 3'x5'&quot;,&quot;type&quot;:&quot;hem-grommet&quot;,&quot;pos&quot;:&quot;1&quot;,&quot;accessories&quot;:&quot;2,3&quot;,&quot;width&quot;:&quot;60&quot;,&quot;height&quot;:&quot;36&quot;}" style="background-color: white;"><g class="model" style="pointer-events: none;"><rect x="0.5" y="0.5" fill="none" stroke="#000000" stroke-miterlimit="10" width="500" height="300"></rect></g><image width="760" height="455" xlink:href="https://lct-designs.s3.us-west-1.amazonaws.com/assets/libs/rockstar-softball-banner-1640684044837.png" class="asset background locked" transform="matrix(0.6593406593406593,0,0,0.6593406593406593,0,0)"></image><image width="760" height="306" xlink:href="https://lct-designs.s3.us-west-1.amazonaws.com/assets/libs/rockstar-softball-teamnane-1640683948799.png" class="asset" transform="matrix(0.5079134702682495,0,0,0.5079134702682495,81.9656982421875,62.690494537353516)"></image><text fill="#ffc800" font-family="American Captain" font-size="12" x="194.3973568567356" y="154.88112069198013" transform="matrix(1,0,0,0.9999999999999999,178.99861145019526,-133.3126983642578)" svgjs:data="{&quot;leading&quot;:&quot;1.3&quot;}"><tspan dy="0" x="194.3973568567356" svgjs:data="{&quot;newLined&quot;:true}">TEAM MOM: TEAM MOM'S NAME</tspan></text><text fill="#ffc800" font-family="American Captain" font-size="12" x="209.896113265427" y="154.88112069198013" transform="matrix(1,0,0,0.9999999999999999,-187.76077270507812,-133.3126983642578)" svgjs:data="{&quot;leading&quot;:&quot;1.3&quot;}"><tspan dy="0" x="209.896113265427" svgjs:data="{&quot;newLined&quot;:true}">COACH: COACH'S NAME</tspan></text><image width="760" height="344" xlink:href="https://lct-designs.s3.us-west-1.amazonaws.com/assets/libs/rockstar-softball-banner-1640683677762.png" class="asset" transform="matrix(0.06244292110204697,0,0,0.06244292110204697,23.50487518310547,39.32782363891601)"></image><text fill="#ffc800" font-family="American Captain" font-size="12" x="236.10384069767798" y="154.88112069198013" transform="matrix(1,0,0,0.9999999999999999,-212.59895324707028,-112.24135890603065)" svgjs:data="{&quot;leading&quot;:&quot;1.3&quot;}"><tspan dy="0" x="236.10384069767798" svgjs:data="{&quot;newLined&quot;:true}">PLAYER</tspan></text><image width="760" height="344" xlink:href="https://lct-designs.s3.us-west-1.amazonaws.com/assets/libs/rockstar-softball-banner-1640683677762.png" class="asset" transform="matrix(0.06244292110204697,0,0,0.06244292110204697,107.77468872070312,39.327808380126946)"></image><text fill="#ffc800" font-family="American Captain" font-size="12" x="236.10384069767798" y="154.88112069198013" transform="matrix(1,0,0,0.9999999999999999,-128.32913970947266,-112.24137568473816)" svgjs:data="{&quot;leading&quot;:&quot;1.3&quot;}"><tspan dy="0" x="236.10384069767798" svgjs:data="{&quot;newLined&quot;:true}">PLAYER</tspan></text><image width="760" height="344" xlink:href="https://lct-designs.s3.us-west-1.amazonaws.com/assets/libs/rockstar-softball-banner-1640683677762.png" class="asset" transform="matrix(0.06244292110204697,0,0,0.06244292110204697,194.5618820190429,39.327812820672996)"></image><text fill="#ffc800" font-family="American Captain" font-size="12" x="236.10384069767798" y="154.88112069198013" transform="matrix(1,0,0,0.9999999999999999,-41.54194641113281,-112.24137052893637)" svgjs:data="{&quot;leading&quot;:&quot;1.3&quot;}"><tspan dy="0" x="236.10384069767798" svgjs:data="{&quot;newLined&quot;:true}">PLAYER</tspan></text><image width="760" height="344" xlink:href="https://lct-designs.s3.us-west-1.amazonaws.com/assets/libs/rockstar-softball-banner-1640683677762.png" class="asset" transform="matrix(0.06244292110204697,0,0,0.06244292110204697,278.8316955566406,39.327814102172844)"></image><text fill="#ffc800" font-family="American Captain" font-size="12" x="236.10384069767798" y="154.88112069198013" transform="matrix(1,0,0,0.9999999999999999,42.727867126464844,-112.24136924743652)" svgjs:data="{&quot;leading&quot;:&quot;1.3&quot;}"><tspan dy="0" x="236.10384069767798" svgjs:data="{&quot;newLined&quot;:true}">PLAYER</tspan></text><image width="760" height="344" xlink:href="https://lct-designs.s3.us-west-1.amazonaws.com/assets/libs/rockstar-softball-banner-1640683677762.png" class="asset" transform="matrix(0.06244292110204697,0,0,0.06244292110204697,349.7635421752929,39.327812820672996)"></image><text fill="#ffc800" font-family="American Captain" font-size="12" x="236.10384069767798" y="154.88112069198013" transform="matrix(1,0,0,0.9999999999999999,113.65971374511719,-112.24137052893637)" svgjs:data="{&quot;leading&quot;:&quot;1.3&quot;}"><tspan dy="0" x="236.10384069767798" svgjs:data="{&quot;newLined&quot;:true}">PLAYER</tspan></text><image width="760" height="344" xlink:href="https://lct-designs.s3.us-west-1.amazonaws.com/assets/libs/rockstar-softball-banner-1640683677762.png" class="asset" transform="matrix(0.06244292110204697,0,0,0.06244292110204697,434.0333557128906,39.327814102172844)"></image><text fill="#ffc800" font-family="American Captain" font-size="12" x="236.10384069767798" y="154.88112069198013" transform="matrix(1,0,0,0.9999999999999999,197.92952728271484,-112.24136924743652)" svgjs:data="{&quot;leading&quot;:&quot;1.3&quot;}"><tspan dy="0" x="236.10384069767798" svgjs:data="{&quot;newLined&quot;:true}">PLAYER</tspan></text><image width="760" height="344" xlink:href="https://lct-designs.s3.us-west-1.amazonaws.com/assets/libs/rockstar-softball-banner-1640683677762.png" class="asset" transform="matrix(0.06244292110204697,0,0,0.06244292110204697,22.65648651123047,251.2929534912109)"></image><text fill="#ffc800" font-family="American Captain" font-size="12" x="236.10384069767798" y="154.88112069198013" transform="matrix(1,0,0,0.9999999999999999,-213.4473419189453,99.72377014160153)" svgjs:data="{&quot;leading&quot;:&quot;1.3&quot;}"><tspan dy="0" x="236.10384069767798" svgjs:data="{&quot;newLined&quot;:true}">PLAYER</tspan></text><image width="760" height="344" xlink:href="https://lct-designs.s3.us-west-1.amazonaws.com/assets/libs/rockstar-softball-banner-1640683677762.png" class="asset" transform="matrix(0.06244292110204697,0,0,0.06244292110204697,106.9263000488281,251.29293823242185)"></image><text fill="#ffc800" font-family="American Captain" font-size="12" x="236.10384069767798" y="154.88112069198013" transform="matrix(1,0,0,0.9999999999999999,-129.17752838134766,99.72375488281247)" svgjs:data="{&quot;leading&quot;:&quot;1.3&quot;}"><tspan dy="0" x="236.10384069767798" svgjs:data="{&quot;newLined&quot;:true}">PLAYER</tspan></text><image width="760" height="344" xlink:href="https://lct-designs.s3.us-west-1.amazonaws.com/assets/libs/rockstar-softball-banner-1640683677762.png" class="asset" transform="matrix(0.06244292110204697,0,0,0.06244292110204697,193.7135009765625,251.2929534912109)"></image><text fill="#ffc800" font-family="American Captain" font-size="12" x="236.10384069767798" y="154.88112069198013" transform="matrix(1,0,0,0.9999999999999999,-42.39033508300781,99.72377014160153)" svgjs:data="{&quot;leading&quot;:&quot;1.3&quot;}"><tspan dy="0" x="236.10384069767798" svgjs:data="{&quot;newLined&quot;:true}">PLAYER</tspan></text><image width="760" height="344" xlink:href="https://lct-designs.s3.us-west-1.amazonaws.com/assets/libs/rockstar-softball-banner-1640683677762.png" class="asset" transform="matrix(0.06244292110204697,0,0,0.06244292110204697,277.9833068847656,251.2929534912109)"></image><text fill="#ffc800" font-family="American Captain" font-size="12" x="236.10384069767798" y="154.88112069198013" transform="matrix(1,0,0,0.9999999999999999,41.87947845458983,99.72377014160153)" svgjs:data="{&quot;leading&quot;:&quot;1.3&quot;}"><tspan dy="0" x="236.10384069767798" svgjs:data="{&quot;newLined&quot;:true}">PLAYER</tspan></text><image width="760" height="344" xlink:href="https://lct-designs.s3.us-west-1.amazonaws.com/assets/libs/rockstar-softball-banner-1640683677762.png" class="asset" transform="matrix(0.06244292110204697,0,0,0.06244292110204697,348.9151611328125,251.2929534912109)"></image><text fill="#ffc800" font-family="American Captain" font-size="12" x="236.10384069767798" y="154.88112069198013" transform="matrix(1,0,0,0.9999999999999999,112.81132507324216,99.72377014160153)" svgjs:data="{&quot;leading&quot;:&quot;1.3&quot;}"><tspan dy="0" x="236.10384069767798" svgjs:data="{&quot;newLined&quot;:true}">PLAYER</tspan></text><image width="760" height="344" xlink:href="https://lct-designs.s3.us-west-1.amazonaws.com/assets/libs/rockstar-softball-banner-1640683677762.png" class="asset" transform="matrix(0.06244292110204697,0,0,0.06244292110204697,433.18496704101557,251.2929534912109)"></image><text fill="#ffc800" font-family="American Captain" font-size="12" x="236.10384069767798" y="154.88112069198013" transform="matrix(1,0,0,0.9999999999999999,197.08113861083984,99.72377014160153)" svgjs:data="{&quot;leading&quot;:&quot;1.3&quot;}"><tspan dy="0" x="236.10384069767798" svgjs:data="{&quot;newLined&quot;:true}">PLAYER</tspan></text><g class="mask" style="pointer-events: none;"><path fill="#777777" enable-background="new    " d="M-1684.9-1014.6v2330.1h3870.8v-2330.1H-1684.9z M500.5,300.5H0.5V0.5h500
	V300.5z"></path></g></svg>