<svg xmlns="http://www.w3.org/2000/svg" version="1.1" xmlns:xlink="http://www.w3.org/1999/xlink" xmlns:svgjs="http://svgjs.dev/svgjs" width="100%" height="100%" viewBox="1 1 499 299" preserveAspectRatio="none" data-info="{&quot;_id&quot;:1,&quot;name&quot;:&quot;HEM &amp; GROMMETS&quot;,&quot;price&quot;:&quot;95.00&quot;,&quot;sale_price&quot;:&quot;89.99&quot;,&quot;cover&quot;:{&quot;key&quot;:&quot;assets/models/hem-1628062436886-1630830942566.png&quot;,&quot;url&quot;:&quot;https://lct-designs.s3.us-west-1.amazonaws.com/assets/models/hem-1628062436886-1630830942566.png&quot;},&quot;back&quot;:{&quot;key&quot;:&quot;assets/models/hem-1630831057346.svg&quot;,&quot;url&quot;:&quot;https://lct-designs.s3.us-west-1.amazonaws.com/assets/models/hem-1630831057346.svg&quot;},&quot;mask&quot;:{&quot;key&quot;:&quot;assets/models/hem.mask-1630831063496.svg&quot;,&quot;url&quot;:&quot;https://lct-designs.s3.us-west-1.amazonaws.com/assets/models/hem.mask-1630831063496.svg&quot;},&quot;information&quot;:&quot;Size 3'x5'&quot;,&quot;type&quot;:&quot;hem-grommet&quot;,&quot;pos&quot;:&quot;1&quot;,&quot;accessories&quot;:&quot;2,3&quot;,&quot;width&quot;:&quot;60&quot;,&quot;height&quot;:&quot;36&quot;}" style="background-color: white;"><g class="model" style="pointer-events: none;"><rect x="0.5" y="0.5" fill="none" stroke="#000000" stroke-miterlimit="10" width="500" height="300"></rect></g><image width="760" height="455" xlink:href="https://lct-designs.s3.us-west-1.amazonaws.com/assets/libs/river-dog1-softball-banner-1640684044837.png" class="asset background locked" transform="matrix(0.6593406593406593,0,0,0.6593406593406593,0,0)"></image><image width="694" height="760" xlink:href="https://lct-designs.s3.us-west-1.amazonaws.com/assets/libs/river-dog1-softball-banner-1640683948799.png" class="asset" transform="matrix(0.2562045753002167,0,0,0.2562045753002167,175.78569030761716,72.8784713745117)"></image><image width="760" height="522" xlink:href="https://lct-designs.s3.us-west-1.amazonaws.com/assets/libs/river-dog1-softball-banner-2-1640683757135.png" class="asset" transform="matrix(0.06443586945533752,0,0,0.06443586945533752,359.8053283691406,70.17719268798828)"></image><text fill="#000000" font-family="Ebrima" font-size="10" x="231.20287722346256" y="154.67249537536026" transform="matrix(1,0,0,0.9999999999999999,138.92909240722656,-42.55992126464843)" svgjs:data="{&quot;leading&quot;:&quot;1.3&quot;}"><tspan dy="0" x="231.20287722346256" svgjs:data="{&quot;newLined&quot;:true}">PLAYER</tspan></text><image width="760" height="522" xlink:href="https://lct-designs.s3.us-west-1.amazonaws.com/assets/libs/river-dog1-softball-banner-2-1640683757135.png" class="asset" transform="matrix(0.06443586945533752,0,0,0.06443586945533752,436.981964111328,71.42895507812497)"></image><text fill="#000000" font-family="Ebrima" font-size="10" x="231.20287722346256" y="154.67249537536026" transform="matrix(1,0,0,0.9999999999999999,216.105728149414,-41.30815887451172)" svgjs:data="{&quot;leading&quot;:&quot;1.3&quot;}"><tspan dy="0" x="231.20287722346256" svgjs:data="{&quot;newLined&quot;:true}">PLAYER</tspan></text><image width="760" height="522" xlink:href="https://lct-designs.s3.us-west-1.amazonaws.com/assets/libs/river-dog1-softball-banner-2-1640683757135.png" class="asset" transform="matrix(0.06443586945533752,0,0,0.06443586945533752,358.95690917968744,129.84454345703122)"></image><text fill="#000000" font-family="Ebrima" font-size="10" x="231.20287722346256" y="154.67249537536026" transform="matrix(1,0,0,0.9999999999999999,138.08067321777344,17.107421874999993)" svgjs:data="{&quot;leading&quot;:&quot;1.3&quot;}"><tspan dy="0" x="231.20287722346256" svgjs:data="{&quot;newLined&quot;:true}">PLAYER</tspan></text><image width="760" height="522" xlink:href="https://lct-designs.s3.us-west-1.amazonaws.com/assets/libs/river-dog1-softball-banner-2-1640683757135.png" class="asset" transform="matrix(0.06443586945533752,0,0,0.06443586945533752,436.13354492187494,131.0962982177734)"></image><text fill="#000000" font-family="Ebrima" font-size="10" x="231.20287722346256" y="154.67249537536026" transform="matrix(1,0,0,0.9999999999999999,215.25730895996094,18.35918426513671)" svgjs:data="{&quot;leading&quot;:&quot;1.3&quot;}"><tspan dy="0" x="231.20287722346256" svgjs:data="{&quot;newLined&quot;:true}">PLAYER</tspan></text><image width="760" height="522" xlink:href="https://lct-designs.s3.us-west-1.amazonaws.com/assets/libs/river-dog1-softball-banner-2-1640683757135.png" class="asset" transform="matrix(0.06443586945533752,0,0,0.06443586945533752,359.36026000976557,190.7636566162109)"></image><text fill="#000000" font-family="Ebrima" font-size="10" x="231.20287722346256" y="154.67249537536026" transform="matrix(1,0,0,0.9999999999999999,138.48402404785156,78.02653503417966)" svgjs:data="{&quot;leading&quot;:&quot;1.3&quot;}"><tspan dy="0" x="231.20287722346256" svgjs:data="{&quot;newLined&quot;:true}">PLAYER</tspan></text><image width="760" height="522" xlink:href="https://lct-designs.s3.us-west-1.amazonaws.com/assets/libs/river-dog1-softball-banner-2-1640683757135.png" class="asset" transform="matrix(0.06443586945533752,0,0,0.06443586945533752,436.5368957519531,192.01541137695307)"></image><text fill="#000000" font-family="Ebrima" font-size="10" x="231.20287722346256" y="154.67249537536026" transform="matrix(1,0,0,0.9999999999999999,215.66065979003912,79.27829742431638)" svgjs:data="{&quot;leading&quot;:&quot;1.3&quot;}"><tspan dy="0" x="231.20287722346256" svgjs:data="{&quot;newLined&quot;:true}">PLAYER</tspan></text><image width="760" height="522" xlink:href="https://lct-designs.s3.us-west-1.amazonaws.com/assets/libs/river-dog1-softball-banner-2-1640683757135.png" class="asset" transform="matrix(-0.06470056623220444,0,0,0.0636366531252861,65.314208984375,68.92543029785153)"></image><text fill="#000000" font-family="Ebrima" font-size="10" x="231.20287722346256" y="154.67249537536026" transform="matrix(1,0,0,0.9999999999999999,-210.29208374023438,-43.394432067871094)" svgjs:data="{&quot;leading&quot;:&quot;1.3&quot;}"><tspan dy="0" x="231.20287722346256" svgjs:data="{&quot;newLined&quot;:true}">PLAYER</tspan></text><image width="760" height="522" xlink:href="https://lct-designs.s3.us-west-1.amazonaws.com/assets/libs/river-dog1-softball-banner-2-1640683757135.png" class="asset" transform="matrix(-0.06470056623220444,0,0,0.0636366680264473,147.49780273437503,69.34268188476562)"></image><text fill="#000000" font-family="Ebrima" font-size="10" x="231.20287722346256" y="154.67249537536026" transform="matrix(1,0,0,0.9999999999999999,-128.10848999023438,-42.977180480957024)" svgjs:data="{&quot;leading&quot;:&quot;1.3&quot;}"><tspan dy="0" x="231.20287722346256" svgjs:data="{&quot;newLined&quot;:true}">PLAYER</tspan></text><image width="760" height="522" xlink:href="https://lct-designs.s3.us-west-1.amazonaws.com/assets/libs/river-dog1-softball-banner-2-1640683757135.png" class="asset" transform="matrix(-0.06470056623220444,0,0,0.0636366680264473,65.71754837036133,129.01003265380857)"></image><text fill="#000000" font-family="Ebrima" font-size="10" x="231.20287722346256" y="154.67249537536026" transform="matrix(1,0,0,0.9999999999999999,-209.88874435424805,16.69017028808593)" svgjs:data="{&quot;leading&quot;:&quot;1.3&quot;}"><tspan dy="0" x="231.20287722346256" svgjs:data="{&quot;newLined&quot;:true}">PLAYER</tspan></text><image width="760" height="522" xlink:href="https://lct-designs.s3.us-west-1.amazonaws.com/assets/libs/river-dog1-softball-banner-2-1640683757135.png" class="asset" transform="matrix(-0.06470056623220444,0,0,0.06363668292760849,147.90114212036136,129.42728424072263)"></image><text fill="#000000" font-family="Ebrima" font-size="10" x="231.20287722346256" y="154.67249537536026" transform="matrix(1,0,0,0.9999999999999999,-127.70515060424805,17.107421874999993)" svgjs:data="{&quot;leading&quot;:&quot;1.3&quot;}"><tspan dy="0" x="231.20287722346256" svgjs:data="{&quot;newLined&quot;:true}">PLAYER</tspan></text><image width="760" height="522" xlink:href="https://lct-designs.s3.us-west-1.amazonaws.com/assets/libs/river-dog1-softball-banner-2-1640683757135.png" class="asset" transform="matrix(-0.06470056623220444,0,0,0.06363668292760849,65.70363807678223,189.92915344238278)"></image><text fill="#000000" font-family="Ebrima" font-size="10" x="231.20287722346256" y="154.67249537536026" transform="matrix(1,0,0,0.9999999999999999,-209.90265464782715,77.6092834472656)" svgjs:data="{&quot;leading&quot;:&quot;1.3&quot;}"><tspan dy="0" x="231.20287722346256" svgjs:data="{&quot;newLined&quot;:true}">PLAYER</tspan></text><image width="760" height="522" xlink:href="https://lct-designs.s3.us-west-1.amazonaws.com/assets/libs/river-dog1-softball-banner-2-1640683757135.png" class="asset" transform="matrix(-0.06470056623220444,0,0,0.06363669782876968,147.88723182678223,190.3463897705078)"></image><text fill="#000000" font-family="Ebrima" font-size="10" x="231.20287722346256" y="154.67249537536026" transform="matrix(1,0,0,0.9999999999999999,-127.71906089782715,78.02653503417966)" svgjs:data="{&quot;leading&quot;:&quot;1.3&quot;}"><tspan dy="0" x="231.20287722346256" svgjs:data="{&quot;newLined&quot;:true}">PLAYER</tspan></text><text fill="#ff0000" font-family="Ebrima" font-size="10" x="195.42622393366764" y="154.67249585219741" transform="matrix(1,0,0,0.9999999999999999,-168.98471069335938,-125.59349822998047)" svgjs:data="{&quot;leading&quot;:&quot;1.3&quot;}"><tspan dy="0" x="195.42622393366764" svgjs:data="{&quot;newLined&quot;:true}">COACH: COACH'S NAME</tspan></text><text fill="#ff0000" font-family="Ebrima" font-size="10" x="174.93858736750553" y="128.6724948985231" transform="matrix(1,0,0,0.9999999999999999,156.88456726074222,-125.17626190185547)" svgjs:data="{&quot;leading&quot;:&quot;1.3&quot;}"><tspan dy="0" x="174.93858736750553" svgjs:data="{&quot;newLined&quot;:true}"></tspan><tspan dy="26" x="174.93858736750553" svgjs:data="{&quot;newLined&quot;:true}">TEAM MOM: TEAM MOM'S NAME</tspan></text><g class="mask" style="pointer-events: none;"><path fill="#777777" enable-background="new    " d="M-1684.9-1014.6v2330.1h3870.8v-2330.1H-1684.9z M500.5,300.5H0.5V0.5h500
	V300.5z"></path></g></svg>