<svg xmlns="http://www.w3.org/2000/svg" version="1.1" xmlns:xlink="http://www.w3.org/1999/xlink" xmlns:svgjs="http://svgjs.dev/svgjs" width="100%" height="100%" viewBox="1 1 499 365.70001220703125" preserveAspectRatio="none" data-info="{&quot;_id&quot;:4,&quot;name&quot;:&quot;POLE POCKET SOCCER BANNERS&quot;,&quot;information&quot;:&quot;- Size: 3’x5’\n- Material: heavy duty vinyl banner\n- Digitally printed on vinyl&quot;,&quot;price&quot;:&quot;95.00&quot;,&quot;sale_price&quot;:&quot;89.99&quot;,&quot;type&quot;:&quot;pole-pocket&quot;,&quot;cover&quot;:{&quot;key&quot;:&quot;assets/models/pole-1628062864266-1631924568908.png&quot;,&quot;url&quot;:&quot;https://lct-designs.s3.us-west-1.amazonaws.com/assets/models/pole-1628062864266-1631924568908.png&quot;},&quot;back&quot;:{&quot;key&quot;:&quot;assets/models/pole-1631924700152.svg&quot;,&quot;url&quot;:&quot;https://lct-designs.s3.us-west-1.amazonaws.com/assets/models/pole-1631924700152.svg&quot;},&quot;mask&quot;:{&quot;key&quot;:&quot;assets/models/pole-mask-1631925211715.svg&quot;,&quot;url&quot;:&quot;https://lct-designs.s3.us-west-1.amazonaws.com/assets/models/pole-mask-1631925211715.svg&quot;},&quot;pos&quot;:&quot;2&quot;,&quot;accessories&quot;:&quot;2,3&quot;}" style="background-color: white;"><g class="model" style="pointer-events: none;"><polygon fill="#FFFFFF" points="0.5,0.5 0.5,67.2 0.5,300.5 0.5,367.2 500.5,367.2 500.5,300.5 500.5,67.2 500.5,0.5 "></polygon></g><image width="760" height="556" xlink:href="https://lct-designs.s3.us-west-1.amazonaws.com/assets/libs/padres-baseball-banner-1645065351486.png" class="asset background locked" transform="matrix(0.6595323960558116,0,0,0.6595323960558116,0,0)"></image><text fill="#0d0d0d" font-family="Impact" font-size="45" x="192.06642438162737" y="201.88927563680983" stroke-opacity="1" stroke-width="1" stroke="#f7f7f7" transform="matrix(0.3032583892345428,0,0,0.30325838923454285,-40.95154190063476,28.49599266052246)" svgjs:data="{&quot;leading&quot;:&quot;1.3&quot;}"><tspan dy="0" x="192.06642438162737" svgjs:data="{&quot;newLined&quot;:true}">Coach: Coach's name</tspan></text><text fill="#0d0d0d" font-family="Impact" font-size="45" stroke-opacity="1" stroke-width="0" stroke="#0d0d0d" x="187.90310282104446" y="202.01522374115754" transform="matrix(0.3017388582229614,0,0,0.3017388582229614,178.3615112304687,95.78758239746094)" svgjs:data="{&quot;leading&quot;:&quot;1.3&quot;}"><tspan dy="0" x="187.90310282104446" svgjs:data="{&quot;newLined&quot;:true}">PLAYER</tspan></text><image width="354" height="760" xlink:href="https://lct-designs.s3.us-west-1.amazonaws.com/assets/libs/padres-baseball-banner-6-1645065401734.png" class="asset" transform="matrix(0.08316130191087723,0,0,0.08316130191087723,232.48554992675776,78.54583740234378)"></image><image width="694" height="760" xlink:href="https://lct-designs.s3.us-west-1.amazonaws.com/assets/libs/padres-baseball-banner-1-1645065401733.png" class="asset" transform="matrix(0.07972831279039382,0,0,0.07972831279039383,244.8505249023437,162.29151916503906)"></image><text fill="#0d0d0d" font-family="Impact" font-size="45" stroke-opacity="1" stroke-width="0" stroke="#0d0d0d" x="187.90310282104446" y="202.01522374115754" transform="matrix(0.3017388582229614,0,0,0.3017388582229614,208.50927734374997,175.8385925292969)" svgjs:data="{&quot;leading&quot;:&quot;1.3&quot;}"><tspan dy="0" x="187.90310282104446" svgjs:data="{&quot;newLined&quot;:true}">PLAYER</tspan></text><image width="760" height="578" xlink:href="https://lct-designs.s3.us-west-1.amazonaws.com/assets/libs/padres-baseball-banner-3-1645065401733.png" class="asset" transform="matrix(0.08173856139183044,0,0,0.08173856139183044,347.16751098632807,172.96838378906253)"></image><image width="395" height="760" xlink:href="https://lct-designs.s3.us-west-1.amazonaws.com/assets/libs/padres-baseball-banner-5-1645065401734.png" class="asset" transform="matrix(0.08134883642196654,0,0,0.08134883642196655,441.3741149902343,161.67572021484378)"></image><image width="567" height="760" xlink:href="https://lct-designs.s3.us-west-1.amazonaws.com/assets/libs/padres-baseball-banner-4-1645065401734.png" class="asset" transform="matrix(0.06225955113768576,0,0,0.062259551137685776,400.9838867187499,226.59512329101565)"></image><text fill="#0d0d0d" font-family="Impact" font-size="45" stroke-opacity="1" stroke-width="0" stroke="#0d0d0d" x="187.90310282104446" y="202.01522374115754" transform="matrix(0.3017388582229614,0,0,0.3017388582229614,341.2186279296875,228.79541015625003)" svgjs:data="{&quot;leading&quot;:&quot;1.3&quot;}"><tspan dy="0" x="187.90310282104446" svgjs:data="{&quot;newLined&quot;:true}">PLAYER</tspan></text><image width="760" height="682" xlink:href="https://lct-designs.s3.us-west-1.amazonaws.com/assets/libs/padres-baseball-banner-2-1645065401733.png" class="asset" transform="matrix(0.06569214165210722,0,0,0.06569214165210724,427.21716308593744,92.5685958862305)"></image><image width="395" height="760" xlink:href="https://lct-designs.s3.us-west-1.amazonaws.com/assets/libs/padres-baseball-banner-5-1645065401734.png" class="asset" transform="matrix(0.08316130191087723,0,0,0.08316130191087723,298.2927856445312,80.24785614013672)"></image><image width="567" height="760" xlink:href="https://lct-designs.s3.us-west-1.amazonaws.com/assets/libs/padres-baseball-banner-4-1645065401734.png" class="asset" transform="matrix(0.06225955113768576,0,0,0.062259551137685776,369.4321899414062,89.89263153076172)"></image><text fill="#0d0d0d" font-family="Impact" font-size="45" stroke-opacity="1" stroke-width="0" stroke="#0d0d0d" x="187.90310282104446" y="202.01522374115754" transform="matrix(0.3017388582229614,0,0,0.3017388582229614,309.66693115234375,92.0929183959961)" svgjs:data="{&quot;leading&quot;:&quot;1.3&quot;}"><tspan dy="0" x="187.90310282104446" svgjs:data="{&quot;newLined&quot;:true}">PLAYER</tspan></text><text fill="#0d0d0d" font-family="Impact" font-size="45" stroke-opacity="1" stroke-width="0" stroke="#0d0d0d" x="187.90310282104446" y="202.01522374115754" transform="matrix(0.3017388582229614,0,0,0.3017388582229614,259.174331665039,230.02696228027347)" svgjs:data="{&quot;leading&quot;:&quot;1.3&quot;}"><tspan dy="0" x="187.90310282104446" svgjs:data="{&quot;newLined&quot;:true}">PLAYER</tspan></text><image width="354" height="760" xlink:href="https://lct-designs.s3.us-west-1.amazonaws.com/assets/libs/padres-baseball-banner-6-1645065401734.png" class="asset" transform="matrix(0.08316130191087723,0,0,0.08316130191087723,313.29837036132807,212.78521728515628)"></image><text fill="#0d0d0d" font-family="Impact" font-size="45" stroke-opacity="1" stroke-width="0" stroke="#0d0d0d" x="187.90310282104446" y="202.01522374115754" transform="matrix(0.3017388582229614,0,0,0.3017388582229614,376.93295288085926,90.86136627197266)" svgjs:data="{&quot;leading&quot;:&quot;1.3&quot;}"><tspan dy="0" x="187.90310282104446" svgjs:data="{&quot;newLined&quot;:true}">PLAYER</tspan></text><text fill="#0d0d0d" font-family="Impact" font-size="45" stroke-opacity="1" stroke-width="0" stroke="#0d0d0d" x="187.90310282104446" y="202.01522374115754" transform="matrix(0.3017388582229614,0,0,0.3017388582229614,240.3812255859375,95.17180633544925)" svgjs:data="{&quot;leading&quot;:&quot;1.3&quot;}"><tspan dy="0" x="187.90310282104446" svgjs:data="{&quot;newLined&quot;:true}">PLAYER</tspan></text><text fill="#0d0d0d" font-family="Impact" font-size="45" stroke-opacity="1" stroke-width="0" stroke="#0d0d0d" x="187.90310282104446" y="202.01522374115754" transform="matrix(0.3017388582229614,0,0,0.3017388582229614,294.5683898925781,175.22280883789065)" svgjs:data="{&quot;leading&quot;:&quot;1.3&quot;}"><tspan dy="0" x="187.90310282104446" svgjs:data="{&quot;newLined&quot;:true}">PLAYER</tspan></text><text fill="#0d0d0d" font-family="Impact" font-size="45" stroke-opacity="1" stroke-width="0" stroke="#0d0d0d" x="187.90310282104446" y="202.01522374115754" transform="matrix(0.3017388582229614,0,0,0.3017388582229614,380.3073120117187,174.60704040527347)" svgjs:data="{&quot;leading&quot;:&quot;1.3&quot;}"><tspan dy="0" x="187.90310282104446" svgjs:data="{&quot;newLined&quot;:true}">PLAYER</tspan></text><image width="760" height="578" xlink:href="https://lct-designs.s3.us-west-1.amazonaws.com/assets/libs/padres-baseball-banner-1644572668162.png" class="asset" transform="matrix(0.28818380832672114,0,0,0.28818380832672125,10.960592269897457,116.38217163085938)"></image><g class="mask" style="pointer-events: none;"><g><path fill="#BCBEC0" d="M-3642.4-2101.7v4589.1h7813.4v-4589.1H-3642.4z M500.5,67.2v233.3v66.7H0.5v-66.7V67.2V0.5h500V67.2z" transform="matrix(1,0,0,1,0,0)"></path><g transform="matrix(1,0,0,1,0,0)">
	<rect x="0.5" y="300.5" opacity="0.95" fill="#F1F2F2" width="500" height="66.7"></rect>
	<rect x="0.5" y="0.5" opacity="0.95" fill="#F1F2F2" width="500" height="66.7"></rect>
</g></g></g></svg>