<svg xmlns="http://www.w3.org/2000/svg" version="1.1" xmlns:xlink="http://www.w3.org/1999/xlink" xmlns:svgjs="http://svgjs.dev/svgjs" width="100%" height="100%" viewBox="1 1 499 365.70001220703125" preserveAspectRatio="none" data-info="{&quot;_id&quot;:4,&quot;name&quot;:&quot;POLE POCKET SOCCER BANNERS&quot;,&quot;information&quot;:&quot;- Size: 3’x5’\n- Material: heavy duty vinyl banner\n- Digitally printed on vinyl&quot;,&quot;price&quot;:&quot;95.00&quot;,&quot;sale_price&quot;:&quot;89.99&quot;,&quot;type&quot;:&quot;pole-pocket&quot;,&quot;cover&quot;:{&quot;key&quot;:&quot;assets/models/pole-1628062864266-1631924568908.png&quot;,&quot;url&quot;:&quot;https://lct-designs.s3.us-west-1.amazonaws.com/assets/models/pole-1628062864266-1631924568908.png&quot;},&quot;back&quot;:{&quot;key&quot;:&quot;assets/models/pole-1631924700152.svg&quot;,&quot;url&quot;:&quot;https://lct-designs.s3.us-west-1.amazonaws.com/assets/models/pole-1631924700152.svg&quot;},&quot;mask&quot;:{&quot;key&quot;:&quot;assets/models/pole-mask-1631925211715.svg&quot;,&quot;url&quot;:&quot;https://lct-designs.s3.us-west-1.amazonaws.com/assets/models/pole-mask-1631925211715.svg&quot;},&quot;pos&quot;:&quot;2&quot;,&quot;accessories&quot;:&quot;2,3&quot;}" style="background-color: white;"><g class="model" style="pointer-events: none;"><polygon fill="#FFFFFF" points="0.5,0.5 0.5,67.2 0.5,300.5 0.5,367.2 500.5,367.2 500.5,300.5 500.5,67.2 500.5,0.5 "></polygon></g><image width="760" height="556" xlink:href="https://lct-designs.s3.us-west-1.amazonaws.com/assets/libs/philadelphia-4-baseball-banner-1641953182580.png" class="asset background locked" transform="matrix(0.6595323960558116,0,0,0.6595323960558116,0,0)"></image><text fill="#0d0d0d" font-family="Impact" font-size="45" x="192.06642438162737" y="201.88927563680983" stroke-opacity="1" stroke-width="1" stroke="#f7f7f7" transform="matrix(0.28554198145866394,0,0,0.28554198145866394,319.3197021484375,30.103008270263672)" svgjs:data="{&quot;leading&quot;:&quot;1.3&quot;}"><tspan dy="0" x="192.06642438162737" svgjs:data="{&quot;newLined&quot;:true}">Coach: Coach's name</tspan></text><text fill="#0d0d0d" font-family="Impact" font-size="45" x="192.06642438162737" y="201.88927563680983" stroke-opacity="1" stroke-width="1" stroke="#f7f7f7" transform="matrix(0.28554198145866394,0,0,0.28554198145866394,-43.07444763183594,28.394750595092773)" svgjs:data="{&quot;leading&quot;:&quot;1.3&quot;}"><tspan dy="0" x="192.06642438162737" svgjs:data="{&quot;newLined&quot;:true}">Team mom: name</tspan></text><image width="760" height="760" xlink:href="https://lct-designs.s3.us-west-1.amazonaws.com/assets/libs/philadelphia-4-baseball-banner-1645590000913.png" class="asset" transform="matrix(0.24845632910728457,0,0,0.24845632910728457,168.113037109375,89.50543212890625)"></image><image width="694" height="760" xlink:href="https://lct-designs.s3.us-west-1.amazonaws.com/assets/libs/philadelphia-4-baseball-banner-1641953811345.png" class="asset" transform="matrix(0.1862715780735016,0,0,0.1862715780735016,363.77691650390625,151.57112121582034)"></image><image width="760" height="433" xlink:href="https://lct-designs.s3.us-west-1.amazonaws.com/assets/libs/philadelphia-3-baseball-banner-1641953891681.png" class="asset" transform="matrix(0.3183093369007111,0,0,0.3183093369007111,144.1977996826172,101.33861541748047)"></image><image width="760" height="699" xlink:href="https://lct-designs.s3.us-west-1.amazonaws.com/assets/libs/philadelphia-2-baseball-banner-1642644514854.png" class="asset" transform="matrix(0.04441728815436364,0,0,0.04441728815436364,348.6159973144531,96.36563110351565)"></image><text fill="#ffffff" font-family="Impact" font-size="45" x="192.06642438162737" y="201.88927563680983" stroke-opacity="1" stroke-width="0" stroke="#f7f7f7" transform="matrix(0.31661471724510193,0.0009677676134742798,-0.0009677676134742798,0.316614717245102,321.93243408203125,56.30269241333009)" svgjs:data="{&quot;leading&quot;:&quot;1.3&quot;}"><tspan dy="0" x="192.06642438162737" svgjs:data="{&quot;newLined&quot;:true}">PLAYER</tspan></text><text fill="#ffffff" font-family="Impact" font-size="45" x="192.06642438162737" y="201.88927563680983" stroke-opacity="1" stroke-width="0" stroke="#f7f7f7" transform="matrix(0.31661471724510193,0.0009677676134742798,-0.0009677676134742798,0.316614717245102,343.8900451660156,99.0084342956543)" svgjs:data="{&quot;leading&quot;:&quot;1.3&quot;}"><tspan dy="0" x="192.06642438162737" svgjs:data="{&quot;newLined&quot;:true}">PLAYER</tspan></text><image width="760" height="699" xlink:href="https://lct-designs.s3.us-west-1.amazonaws.com/assets/libs/philadelphia-2-baseball-banner-1642644514854.png" class="asset" transform="matrix(0.04441728815436364,0,0,0.04441728815436364,370.5736083984375,139.07137298583984)"></image><text fill="#ffffff" font-family="Impact" font-size="45" x="192.06642438162737" y="201.88927563680983" stroke-opacity="1" stroke-width="0" stroke="#f7f7f7" transform="matrix(0.31661471724510193,0.0009677676134742798,-0.0009677676134742798,0.316614717245102,-13.379364013671875,52.886238098144545)" svgjs:data="{&quot;leading&quot;:&quot;1.3&quot;}"><tspan dy="0" x="192.06642438162737" svgjs:data="{&quot;newLined&quot;:true}">PLAYER</tspan></text><image width="760" height="699" xlink:href="https://lct-designs.s3.us-west-1.amazonaws.com/assets/libs/philadelphia-2-baseball-banner-1642644514854.png" class="asset" transform="matrix(0.04441728815436364,0,0,0.04441728815436364,13.304199218749993,92.94918060302734)"></image><text fill="#ffffff" font-family="Impact" font-size="45" x="192.06642438162737" y="201.88927563680983" stroke-opacity="1" stroke-width="0" stroke="#f7f7f7" transform="matrix(0.31661471724510193,0.0009677676134742798,-0.0009677676134742798,0.316614717245102,35.909927368164055,87.05082702636719)" svgjs:data="{&quot;leading&quot;:&quot;1.3&quot;}"><tspan dy="0" x="192.06642438162737" svgjs:data="{&quot;newLined&quot;:true}">PLAYER</tspan></text><image width="760" height="699" xlink:href="https://lct-designs.s3.us-west-1.amazonaws.com/assets/libs/philadelphia-2-baseball-banner-1642644514854.png" class="asset" transform="matrix(0.04441728815436364,0,0,0.04441728815436364,62.593490600585945,127.11376953125)"></image><text fill="#ffffff" font-family="Impact" font-size="45" x="192.06642438162737" y="201.88927563680983" stroke-opacity="1" stroke-width="0" stroke="#f7f7f7" transform="matrix(0.31661471724510193,0.0009677676134742798,-0.0009677676134742798,0.316614717245102,-13.878116607666016,117.22955322265625)" svgjs:data="{&quot;leading&quot;:&quot;1.3&quot;}"><tspan dy="0" x="192.06642438162737" svgjs:data="{&quot;newLined&quot;:true}">PLAYER</tspan></text><image width="760" height="699" xlink:href="https://lct-designs.s3.us-west-1.amazonaws.com/assets/libs/philadelphia-2-baseball-banner-1642644514854.png" class="asset" transform="matrix(0.04441728815436364,0,0,0.04441728815436364,12.805446624755852,157.2924957275391)"></image><text fill="#ffffff" font-family="Impact" font-size="45" x="192.06642438162737" y="201.88927563680983" stroke-opacity="1" stroke-width="0" stroke="#f7f7f7" transform="matrix(0.31661471724510193,0.0009677676134742798,-0.0009677676134742798,0.316614717245102,41.10526657104493,153.67179870605466)" svgjs:data="{&quot;leading&quot;:&quot;1.3&quot;}"><tspan dy="0" x="192.06642438162737" svgjs:data="{&quot;newLined&quot;:true}">PLAYER</tspan></text><image width="760" height="699" xlink:href="https://lct-designs.s3.us-west-1.amazonaws.com/assets/libs/philadelphia-2-baseball-banner-1642644514854.png" class="asset" transform="matrix(0.04441728815436364,0,0,0.04441728815436364,67.7888298034668,193.73474121093753)"></image><text fill="#ffffff" font-family="Impact" font-size="45" x="192.06642438162737" y="201.88927563680983" stroke-opacity="1" stroke-width="0" stroke="#f7f7f7" transform="matrix(0.31661471724510193,0.0009677676134742798,-0.0009677676134742798,0.316614717245102,-13.238063812255866,190.1140289306641)" svgjs:data="{&quot;leading&quot;:&quot;1.3&quot;}"><tspan dy="0" x="192.06642438162737" svgjs:data="{&quot;newLined&quot;:true}">PLAYER</tspan></text><image width="760" height="699" xlink:href="https://lct-designs.s3.us-west-1.amazonaws.com/assets/libs/philadelphia-2-baseball-banner-1642644514854.png" class="asset" transform="matrix(0.04441728815436364,0,0,0.04441728815436364,13.445503234863274,230.1769714355469)"></image><text fill="#ffffff" font-family="Impact" font-size="45" x="192.06642438162737" y="201.88927563680983" stroke-opacity="1" stroke-width="0" stroke="#f7f7f7" transform="matrix(0.316614717245102,0.0009677676134742796,-0.0009677676134742796,0.31661471724510193,67.36877059936523,216.306884765625)" svgjs:data="{&quot;leading&quot;:&quot;1.3&quot;}"><tspan dy="0" x="192.06642438162737" svgjs:data="{&quot;newLined&quot;:true}">PLAYER</tspan></text><image width="760" height="699" xlink:href="https://lct-designs.s3.us-west-1.amazonaws.com/assets/libs/philadelphia-2-baseball-banner-1642644514854.png" class="asset" transform="matrix(0.04441728815436364,0,0,0.044417288154363625,94.0523376464844,256.36982727050776)"></image><g class="mask" style="pointer-events: none;"><g><path fill="#BCBEC0" d="M-3642.4-2101.7v4589.1h7813.4v-4589.1H-3642.4z M500.5,67.2v233.3v66.7H0.5v-66.7V67.2V0.5h500V67.2z" transform="matrix(1,0,0,1,0,0)"></path><g transform="matrix(1,0,0,1,0,0)">
	<rect x="0.5" y="300.5" opacity="0.95" fill="#F1F2F2" width="500" height="66.7"></rect>
	<rect x="0.5" y="0.5" opacity="0.95" fill="#F1F2F2" width="500" height="66.7"></rect>
</g></g></g></svg>