<svg xmlns="http://www.w3.org/2000/svg" version="1.1" xmlns:xlink="http://www.w3.org/1999/xlink" xmlns:svgjs="http://svgjs.dev/svgjs" width="100%" height="100%" viewBox="1 1 499 365.70001220703125" preserveAspectRatio="none" data-info="{&quot;_id&quot;:4,&quot;name&quot;:&quot;POLE POCKET SOCCER BANNERS&quot;,&quot;information&quot;:&quot;- Size: 3’x5’\n- Material: heavy duty vinyl banner\n- Digitally printed on vinyl&quot;,&quot;price&quot;:&quot;95.00&quot;,&quot;sale_price&quot;:&quot;89.99&quot;,&quot;type&quot;:&quot;pole-pocket&quot;,&quot;cover&quot;:{&quot;key&quot;:&quot;assets/models/pole-1628062864266-1631924568908.png&quot;,&quot;url&quot;:&quot;https://lct-designs.s3.us-west-1.amazonaws.com/assets/models/pole-1628062864266-1631924568908.png&quot;},&quot;back&quot;:{&quot;key&quot;:&quot;assets/models/pole-1631924700152.svg&quot;,&quot;url&quot;:&quot;https://lct-designs.s3.us-west-1.amazonaws.com/assets/models/pole-1631924700152.svg&quot;},&quot;mask&quot;:{&quot;key&quot;:&quot;assets/models/pole-mask-1631925211715.svg&quot;,&quot;url&quot;:&quot;https://lct-designs.s3.us-west-1.amazonaws.com/assets/models/pole-mask-1631925211715.svg&quot;},&quot;pos&quot;:&quot;2&quot;,&quot;accessories&quot;:&quot;2,3&quot;}" style="background-color: white;"><g class="model" style="pointer-events: none;"><polygon fill="#FFFFFF" points="0.5,0.5 0.5,67.2 0.5,300.5 0.5,367.2 500.5,367.2 500.5,300.5 500.5,67.2 500.5,0.5 "></polygon></g><image width="760" height="553" xlink:href="https://lct-designs.s3.us-west-1.amazonaws.com/assets/libs/astros-baseball-banner-1644906669448.png" class="asset background locked" transform="matrix(0.6631103294883024,0,0,0.6631103294883024,0,0)"></image><text fill="#000000" font-family="Impact" font-size="45" stroke-opacity="1" stroke-width="1" stroke="#ffffff" x="191.55054225683307" y="201.73081088645068" transform="matrix(0.27304607629776,0,0,0.27304607629776,-40.477630615234375,29.692022323608384)" svgjs:data="{&quot;leading&quot;:&quot;1.3&quot;}"><tspan dy="0" x="191.55054225683307" svgjs:data="{&quot;newLined&quot;:true}">Coach: Coach name</tspan></text><image width="760" height="703" xlink:href="https://lct-designs.s3.us-west-1.amazonaws.com/assets/libs/astros-baseball-banner-1644906752415.png" class="asset" transform="matrix(0.23573429882526398,0,0,0.23573429882526398,12.601321220397942,132.13577270507812)"></image><image width="760" height="233" xlink:href="https://lct-designs.s3.us-west-1.amazonaws.com/assets/libs/astros-baseball-banner-1644906765938.png" class="asset" transform="matrix(0.3606052100658416,0,0,0.3606052100658417,167.73269653320312,142.57940673828125)"></image><text fill="#000000" font-family="Impact" font-size="45" stroke-opacity="1" stroke-width="1" stroke="#ffffff" x="191.55054225683307" y="201.73081088645068" transform="matrix(0.3051771521568298,0,0,0.30517715215682983,58.79703903198241,73.33560180664064)" svgjs:data="{&quot;leading&quot;:&quot;1.3&quot;}"><tspan dy="0" x="191.55054225683307" svgjs:data="{&quot;newLined&quot;:true}">Player</tspan></text><image width="760" height="703" xlink:href="https://lct-designs.s3.us-west-1.amazonaws.com/assets/libs/astros-baseball-banner-1644906781474.png" class="asset" transform="matrix(0.060965105891227715,0,0,0.06096510589122772,191.38427734375,79.3909149169922)"></image><text fill="#000000" font-family="Impact" font-size="45" stroke-opacity="1" stroke-width="1" stroke="#ffffff" x="191.55054225683307" y="201.73081088645068" transform="matrix(0.3051771521568298,0,0,0.30517715215682983,138.9164123535156,73.33560180664064)" svgjs:data="{&quot;leading&quot;:&quot;1.3&quot;}"><tspan dy="0" x="191.55054225683307" svgjs:data="{&quot;newLined&quot;:true}">Player</tspan></text><image width="760" height="703" xlink:href="https://lct-designs.s3.us-west-1.amazonaws.com/assets/libs/astros-baseball-banner-1644906781474.png" class="asset" transform="matrix(0.060965105891227715,0,0,0.06096510589122772,111.88542175292966,80.63197326660155)"></image><image width="760" height="703" xlink:href="https://lct-designs.s3.us-west-1.amazonaws.com/assets/libs/astros-baseball-banner-1644906781474.png" class="asset" transform="matrix(0.060965105891227715,0,0,0.06096510589122772,272.0525817871094,79.3909149169922)"></image><text fill="#000000" font-family="Impact" font-size="45" stroke-opacity="1" stroke-width="1" stroke="#ffffff" x="191.55054225683307" y="201.73081088645068" transform="matrix(0.3051771521568298,0,0,0.30517715215682983,219.58471679687497,73.33560180664064)" svgjs:data="{&quot;leading&quot;:&quot;1.3&quot;}"><tspan dy="0" x="191.55054225683307" svgjs:data="{&quot;newLined&quot;:true}">Player</tspan></text><image width="760" height="703" xlink:href="https://lct-designs.s3.us-west-1.amazonaws.com/assets/libs/astros-baseball-banner-1644906781474.png" class="asset" transform="matrix(0.060965105891227715,0,0,0.06096510589122772,352.1719360351562,79.3909149169922)"></image><text fill="#000000" font-family="Impact" font-size="45" stroke-opacity="1" stroke-width="1" stroke="#ffffff" x="191.55054225683307" y="201.73081088645068" transform="matrix(0.3051771521568298,0,0,0.30517715215682983,299.7041015625,73.33560180664064)" svgjs:data="{&quot;leading&quot;:&quot;1.3&quot;}"><tspan dy="0" x="191.55054225683307" svgjs:data="{&quot;newLined&quot;:true}">Player</tspan></text><image width="760" height="703" xlink:href="https://lct-designs.s3.us-west-1.amazonaws.com/assets/libs/astros-baseball-banner-1644906781474.png" class="asset" transform="matrix(0.060965105891227715,0,0,0.06096510589122772,432.29129028320307,81.25250244140624)"></image><text fill="#000000" font-family="Impact" font-size="45" stroke-opacity="1" stroke-width="1" stroke="#ffffff" x="191.55054225683307" y="201.73081088645068" transform="matrix(0.3051771521568298,0,0,0.30517715215682983,379.82345581054676,75.19718933105467)" svgjs:data="{&quot;leading&quot;:&quot;1.3&quot;}"><tspan dy="0" x="191.55054225683307" svgjs:data="{&quot;newLined&quot;:true}">Player</tspan></text><image width="760" height="703" xlink:href="https://lct-designs.s3.us-west-1.amazonaws.com/assets/libs/astros-baseball-banner-1644906781474.png" class="asset" transform="matrix(0.060965105891227715,0,0,0.06096510589122772,368.37722778320307,228.93812561035156)"></image><text fill="#000000" font-family="Impact" font-size="45" stroke-opacity="1" stroke-width="1" stroke="#ffffff" x="191.55054225683307" y="201.73081088645068" transform="matrix(0.3051771521568298,0,0,0.30517715215682983,315.9093933105468,222.8828125)" svgjs:data="{&quot;leading&quot;:&quot;1.3&quot;}"><tspan dy="0" x="191.55054225683307" svgjs:data="{&quot;newLined&quot;:true}">Player</tspan></text><image width="760" height="703" xlink:href="https://lct-designs.s3.us-west-1.amazonaws.com/assets/libs/astros-baseball-banner-1644906781474.png" class="asset" transform="matrix(0.060965105891227715,0,0,0.06096510589122772,429.8807983398437,228.93814086914062)"></image><text fill="#000000" font-family="Impact" font-size="45" stroke-opacity="1" stroke-width="1" stroke="#ffffff" x="191.55054225683307" y="201.73081088645068" transform="matrix(0.3051771521568298,0,0,0.30517715215682983,377.4129638671875,222.882827758789)" svgjs:data="{&quot;leading&quot;:&quot;1.3&quot;}"><tspan dy="0" x="191.55054225683307" svgjs:data="{&quot;newLined&quot;:true}">Player</tspan></text><image width="760" height="703" xlink:href="https://lct-designs.s3.us-west-1.amazonaws.com/assets/libs/astros-baseball-banner-1644906781474.png" class="asset" transform="matrix(0.060965105891227715,0,0,0.06096510589122772,302.52993774414057,228.93812561035156)"></image><image width="760" height="703" xlink:href="https://lct-designs.s3.us-west-1.amazonaws.com/assets/libs/astros-baseball-banner-1644906781474.png" class="asset" transform="matrix(0.060965105891227715,0,0,0.06096510589122772,236.7542266845703,228.93812561035156)"></image><text fill="#000000" font-family="Impact" font-size="45" stroke-opacity="1" stroke-width="1" stroke="#ffffff" x="191.55054225683307" y="201.73081088645068" transform="matrix(0.3051771521568298,0,0,0.30517715215682983,184.28636169433594,222.8828125)" svgjs:data="{&quot;leading&quot;:&quot;1.3&quot;}"><tspan dy="0" x="191.55054225683307" svgjs:data="{&quot;newLined&quot;:true}">Player</tspan></text><text fill="#000000" font-family="Impact" font-size="45" stroke-opacity="1" stroke-width="1" stroke="#ffffff" x="191.55054225683307" y="201.73081088645068" transform="matrix(0.3051771521568298,0,0,0.30517715215682983,120.3006591796875,222.8828125)" svgjs:data="{&quot;leading&quot;:&quot;1.3&quot;}"><tspan dy="0" x="191.55054225683307" svgjs:data="{&quot;newLined&quot;:true}">Player</tspan></text><image width="760" height="703" xlink:href="https://lct-designs.s3.us-west-1.amazonaws.com/assets/libs/astros-baseball-banner-1644906781474.png" class="asset" transform="matrix(0.060965105891227715,0,0,0.06096510589122772,173.3890380859375,230.17918395996094)"></image><text fill="#000000" font-family="Impact" font-size="45" stroke-opacity="1" stroke-width="1" stroke="#ffffff" x="191.55054225683307" y="201.73081088645068" transform="matrix(0.3051771521568298,0,0,0.30517715215682983,250.68258666992188,222.8828125)" svgjs:data="{&quot;leading&quot;:&quot;1.3&quot;}"><tspan dy="0" x="191.55054225683307" svgjs:data="{&quot;newLined&quot;:true}">Player</tspan></text><g class="mask" style="pointer-events: none;"><g><path fill="#BCBEC0" d="M-3642.4-2101.7v4589.1h7813.4v-4589.1H-3642.4z M500.5,67.2v233.3v66.7H0.5v-66.7V67.2V0.5h500V67.2z" transform="matrix(1,0,0,1,0,0)"></path><g transform="matrix(1,0,0,1,0,0)">
	<rect x="0.5" y="300.5" opacity="0.95" fill="#F1F2F2" width="500" height="66.7"></rect>
	<rect x="0.5" y="0.5" opacity="0.95" fill="#F1F2F2" width="500" height="66.7"></rect>
</g></g></g></svg>