<svg xmlns="http://www.w3.org/2000/svg" version="1.1" xmlns:xlink="http://www.w3.org/1999/xlink" xmlns:svgjs="http://svgjs.dev/svgjs" width="100%" height="100%" viewBox="1 1 499 365.70001220703125" preserveAspectRatio="none" data-info="{&quot;_id&quot;:4,&quot;name&quot;:&quot;POLE POCKET SOCCER BANNERS&quot;,&quot;information&quot;:&quot;- Size: 3’x5’\n- Material: heavy duty vinyl banner\n- Digitally printed on vinyl&quot;,&quot;price&quot;:&quot;95.00&quot;,&quot;sale_price&quot;:&quot;89.99&quot;,&quot;type&quot;:&quot;pole-pocket&quot;,&quot;cover&quot;:{&quot;key&quot;:&quot;assets/models/pole-1628062864266-1631924568908.png&quot;,&quot;url&quot;:&quot;https://lct-designs.s3.us-west-1.amazonaws.com/assets/models/pole-1628062864266-1631924568908.png&quot;},&quot;back&quot;:{&quot;key&quot;:&quot;assets/models/pole-1631924700152.svg&quot;,&quot;url&quot;:&quot;https://lct-designs.s3.us-west-1.amazonaws.com/assets/models/pole-1631924700152.svg&quot;},&quot;mask&quot;:{&quot;key&quot;:&quot;assets/models/pole-mask-1631925211715.svg&quot;,&quot;url&quot;:&quot;https://lct-designs.s3.us-west-1.amazonaws.com/assets/models/pole-mask-1631925211715.svg&quot;},&quot;pos&quot;:&quot;2&quot;,&quot;accessories&quot;:&quot;2,3&quot;}" style="background-color: white;"><g class="model" style="pointer-events: none;"><polygon fill="#FFFFFF" points="0.5,0.5 0.5,67.2 0.5,300.5 0.5,367.2 500.5,367.2 500.5,300.5 500.5,67.2 500.5,0.5 "></polygon></g><image width="760" height="553" xlink:href="https://lct-designs.s3.us-west-1.amazonaws.com/assets/libs/houston-baseball-banner-1641872873379.png" class="asset background locked" transform="matrix(0.6631103294883024,0,0,0.6631103294883024,0,0)"></image><text fill="#0d0d0d" font-family="Impact" font-size="45" x="192.06642438162737" y="201.88927563680983" stroke-opacity="1" stroke-width="1" stroke="#f7f7f7" transform="matrix(0.28396338224411005,0,0,0.2839633822441101,316.99063110351557,32.05589675903322)" svgjs:data="{&quot;leading&quot;:&quot;1.3&quot;}"><tspan dy="0" x="192.06642438162737" svgjs:data="{&quot;newLined&quot;:true}">Coach: Coach's name</tspan></text><image width="760" height="760" xlink:href="https://lct-designs.s3.us-west-1.amazonaws.com/assets/libs/houston-baseball-banner-1641872975026.png" class="asset" transform="matrix(0.18505357205867765,0,0,0.18505357205867767,231.40393066406244,115.49247741699219)"></image><text fill="#f9f5f5" font-family="Impact" font-size="45" stroke-opacity="1" stroke-width="2" stroke="#0a0a0a" x="187.90310282104446" y="202.01522374115754" transform="matrix(0.32421877980232233,0,0,0.33711683750152593,7.216350555419918,51.012184143066435)" svgjs:data="{&quot;leading&quot;:&quot;1.3&quot;}"><tspan dy="0" x="187.90310282104446" svgjs:data="{&quot;newLined&quot;:true}">PLAYER</tspan></text><image width="760" height="651" xlink:href="https://lct-designs.s3.us-west-1.amazonaws.com/assets/libs/houston-baseball-banner-1641872992015.png" class="asset" transform="matrix(0.05969316884875297,0,0,0.059693168848752975,22.660087585449215,91.25889587402347)"></image><text fill="#f9f5f5" font-family="Impact" font-size="45" stroke-opacity="1" stroke-width="2" stroke="#0a0a0a" x="187.90310282104446" y="202.01522374115754" transform="matrix(0.32421877980232233,0,0,0.33711683750152593,6.748363494873043,90.42191314697266)" svgjs:data="{&quot;leading&quot;:&quot;1.3&quot;}"><tspan dy="0" x="187.90310282104446" svgjs:data="{&quot;newLined&quot;:true}">PLAYER</tspan></text><image width="760" height="651" xlink:href="https://lct-designs.s3.us-west-1.amazonaws.com/assets/libs/houston-baseball-banner-1641872992015.png" class="asset" transform="matrix(0.05969316884875297,0,0,0.059693168848752975,21.57633781433105,133.1317291259766)"></image><text fill="#f9f5f5" font-family="Impact" font-size="45" stroke-opacity="1" stroke-width="2" stroke="#0a0a0a" x="187.90310282104446" y="202.01522374115754" transform="matrix(0.32421877980232233,0,0,0.33711683750152593,7.979900360107425,128.60008239746097)" svgjs:data="{&quot;leading&quot;:&quot;1.3&quot;}"><tspan dy="0" x="187.90310282104446" svgjs:data="{&quot;newLined&quot;:true}">PLAYER</tspan></text><image width="760" height="651" xlink:href="https://lct-designs.s3.us-west-1.amazonaws.com/assets/libs/houston-baseball-banner-1641872992015.png" class="asset" transform="matrix(0.05969316884875297,0,0,0.059693168848752975,22.807874679565426,171.30990600585938)"></image><text fill="#f9f5f5" font-family="Impact" font-size="45" stroke-opacity="1" stroke-width="2" stroke="#0a0a0a" x="187.90310282104446" y="202.01522374115754" transform="matrix(0.32421877980232233,0,0,0.33711683750152593,7.511913299560543,168.00982666015625)" svgjs:data="{&quot;leading&quot;:&quot;1.3&quot;}"><tspan dy="0" x="187.90310282104446" svgjs:data="{&quot;newLined&quot;:true}">PLAYER</tspan></text><image width="760" height="651" xlink:href="https://lct-designs.s3.us-west-1.amazonaws.com/assets/libs/houston-baseball-banner-1641872992015.png" class="asset" transform="matrix(0.05969316884875297,0,0,0.059693168848752975,22.33988761901855,210.71963500976565)"></image><text fill="#f9f5f5" font-family="Impact" font-size="45" stroke-opacity="1" stroke-width="2" stroke="#0a0a0a" x="187.90310282104446" y="202.01522374115754" transform="matrix(0.32421877980232233,0,0,0.33711683750152593,7.659694671630863,206.80378723144534)" svgjs:data="{&quot;leading&quot;:&quot;1.3&quot;}"><tspan dy="0" x="187.90310282104446" svgjs:data="{&quot;newLined&quot;:true}">PLAYER</tspan></text><image width="760" height="651" xlink:href="https://lct-designs.s3.us-west-1.amazonaws.com/assets/libs/houston-baseball-banner-1641872992015.png" class="asset" transform="matrix(0.05969316884875297,0,0,0.059693168848752975,22.487668991088864,249.51359558105472)"></image><text fill="#f9f5f5" font-family="Impact" font-size="45" stroke-opacity="1" stroke-width="2" stroke="#0a0a0a" x="187.90310282104446" y="202.01522374115754" transform="matrix(0.32421877980232233,0,0,0.33711683750152593,111.42817687988281,51.012184143066435)" svgjs:data="{&quot;leading&quot;:&quot;1.3&quot;}"><tspan dy="0" x="187.90310282104446" svgjs:data="{&quot;newLined&quot;:true}">PLAYER</tspan></text><image width="760" height="651" xlink:href="https://lct-designs.s3.us-west-1.amazonaws.com/assets/libs/houston-baseball-banner-1641872992015.png" class="asset" transform="matrix(0.05969316884875297,0,0,0.059693168848752975,126.25615692138669,93.72200012207034)"></image><text fill="#f9f5f5" font-family="Impact" font-size="45" stroke-opacity="1" stroke-width="2" stroke="#0a0a0a" x="187.90310282104446" y="202.01522374115754" transform="matrix(0.32421877980232233,0,0,0.33711683750152593,110.96018981933591,90.42191314697266)" svgjs:data="{&quot;leading&quot;:&quot;1.3&quot;}"><tspan dy="0" x="187.90310282104446" svgjs:data="{&quot;newLined&quot;:true}">PLAYER</tspan></text><image width="760" height="651" xlink:href="https://lct-designs.s3.us-west-1.amazonaws.com/assets/libs/houston-baseball-banner-1641872992015.png" class="asset" transform="matrix(0.05969316884875297,0,0,0.059693168848752975,125.78817749023438,133.1317291259766)"></image><text fill="#f9f5f5" font-family="Impact" font-size="45" stroke-opacity="1" stroke-width="2" stroke="#0a0a0a" x="187.90310282104446" y="202.01522374115754" transform="matrix(0.32421877980232233,0,0,0.33711683750152593,112.19172668457028,128.60008239746097)" svgjs:data="{&quot;leading&quot;:&quot;1.3&quot;}"><tspan dy="0" x="187.90310282104446" svgjs:data="{&quot;newLined&quot;:true}">PLAYER</tspan></text><image width="760" height="651" xlink:href="https://lct-designs.s3.us-west-1.amazonaws.com/assets/libs/houston-baseball-banner-1641872992015.png" class="asset" transform="matrix(0.05969316884875297,0,0,0.059693168848752975,127.01971435546872,171.30990600585938)"></image><text fill="#f9f5f5" font-family="Impact" font-size="45" stroke-opacity="1" stroke-width="2" stroke="#0a0a0a" x="187.90310282104446" y="202.01522374115754" transform="matrix(0.32421877980232233,0,0,0.33711683750152593,111.72373962402344,168.00982666015625)" svgjs:data="{&quot;leading&quot;:&quot;1.3&quot;}"><tspan dy="0" x="187.90310282104446" svgjs:data="{&quot;newLined&quot;:true}">PLAYER</tspan></text><image width="760" height="651" xlink:href="https://lct-designs.s3.us-west-1.amazonaws.com/assets/libs/houston-baseball-banner-1641872992015.png" class="asset" transform="matrix(0.05969316884875297,0,0,0.059693168848752975,126.55172729492188,210.71963500976565)"></image><text fill="#f9f5f5" font-family="Impact" font-size="45" stroke-opacity="1" stroke-width="2" stroke="#0a0a0a" x="187.90310282104446" y="202.01522374115754" transform="matrix(0.32421877980232233,0,0,0.33711683750152593,111.87152099609375,206.80378723144534)" svgjs:data="{&quot;leading&quot;:&quot;1.3&quot;}"><tspan dy="0" x="187.90310282104446" svgjs:data="{&quot;newLined&quot;:true}">PLAYER</tspan></text><image width="760" height="651" xlink:href="https://lct-designs.s3.us-west-1.amazonaws.com/assets/libs/houston-baseball-banner-1641872992015.png" class="asset" transform="matrix(0.05969316884875297,0,0,0.059693168848752975,126.69950866699219,249.51359558105472)"></image><image width="628" height="760" xlink:href="https://lct-designs.s3.us-west-1.amazonaws.com/assets/libs/houston-baseball-banner-1641872950260.png" class="asset" transform="matrix(0.20287854969501495,0,0,0.20287854969501495,355.85171508789057,122.88179779052734)"></image><image width="628" height="760" xlink:href="https://lct-designs.s3.us-west-1.amazonaws.com/assets/libs/houston-baseball-banner-1641872950260.png" class="asset" transform="matrix(0.20287857949733734,0,0,0.20287857949733737,365.8517150878907,122.88179779052737)"></image><image width="628" height="760" xlink:href="https://lct-designs.s3.us-west-1.amazonaws.com/assets/libs/houston-baseball-banner-1641872950260.png" class="asset" transform="matrix(0.20287860929965973,0,0,0.20287860929965973,375.8517150878907,122.88179779052737)"></image><g class="mask" style="pointer-events: none;"><g><path fill="#BCBEC0" d="M-3642.4-2101.7v4589.1h7813.4v-4589.1H-3642.4z M500.5,67.2v233.3v66.7H0.5v-66.7V67.2V0.5h500V67.2z" transform="matrix(1,0,0,1,0,0)"></path><g transform="matrix(1,0,0,1,0,0)">
	<rect x="0.5" y="300.5" opacity="0.95" fill="#F1F2F2" width="500" height="66.7"></rect>
	<rect x="0.5" y="0.5" opacity="0.95" fill="#F1F2F2" width="500" height="66.7"></rect>
</g></g></g></svg>