<svg xmlns="http://www.w3.org/2000/svg" version="1.1" xmlns:xlink="http://www.w3.org/1999/xlink" xmlns:svgjs="http://svgjs.dev/svgjs" width="100%" height="100%" viewBox="1 1 499 365.70001220703125" preserveAspectRatio="none" data-info="{&quot;_id&quot;:4,&quot;name&quot;:&quot;POLE POCKET SOCCER BANNERS&quot;,&quot;information&quot;:&quot;- Size: 3’x5’\n- Material: heavy duty vinyl banner\n- Digitally printed on vinyl&quot;,&quot;price&quot;:&quot;95.00&quot;,&quot;sale_price&quot;:&quot;89.99&quot;,&quot;type&quot;:&quot;pole-pocket&quot;,&quot;cover&quot;:{&quot;key&quot;:&quot;assets/models/pole-1628062864266-1631924568908.png&quot;,&quot;url&quot;:&quot;https://lct-designs.s3.us-west-1.amazonaws.com/assets/models/pole-1628062864266-1631924568908.png&quot;},&quot;back&quot;:{&quot;key&quot;:&quot;assets/models/pole-1631924700152.svg&quot;,&quot;url&quot;:&quot;https://lct-designs.s3.us-west-1.amazonaws.com/assets/models/pole-1631924700152.svg&quot;},&quot;mask&quot;:{&quot;key&quot;:&quot;assets/models/pole-mask-1631925211715.svg&quot;,&quot;url&quot;:&quot;https://lct-designs.s3.us-west-1.amazonaws.com/assets/models/pole-mask-1631925211715.svg&quot;},&quot;pos&quot;:&quot;2&quot;,&quot;accessories&quot;:&quot;2,3&quot;}" style="background-color: white;"><g class="model" style="pointer-events: none;"><polygon fill="#FFFFFF" points="0.5,0.5 0.5,67.2 0.5,300.5 0.5,367.2 500.5,367.2 500.5,300.5 500.5,67.2 500.5,0.5 "></polygon></g><image width="760" height="556" xlink:href="https://lct-designs.s3.us-west-1.amazonaws.com/assets/libs/fireworks-2-softball-banner-1640682447707.png" class="asset background locked" transform="matrix(0.6595323960558116,0,0,0.6595323960558116,0,0)"></image><text fill="#ffffff" font-family="Franklin Gothic" font-size="11" x="197.59496431176086" y="187.93020890361393" transform="matrix(1,0,0,0.9999999999999999,-0.4446868896484375,-100.43909454345702)" svgjs:data="{&quot;leading&quot;:&quot;1.3&quot;}"><tspan dy="0" x="197.59496431176086" svgjs:data="{&quot;newLined&quot;:true}">COACH: COACH'S NAME</tspan></text><image width="760" height="116" xlink:href="https://lct-designs.s3.us-west-1.amazonaws.com/assets/libs/firewworks2-softball-banner-1640682384613.png" class="asset" transform="matrix(0.3591660261154175,0,0,0.3591660261154174,16.814563751220703,242.49913024902344)"></image><image width="760" height="578" xlink:href="https://lct-designs.s3.us-west-1.amazonaws.com/assets/libs/firewworks2-sofball-banner-1640682005966.png" class="asset" transform="matrix(0.15296022593975067,0,0,0.15296022593975064,90.99198913574219,158.17613220214844)"></image><image width="760" height="716" xlink:href="https://lct-designs.s3.us-west-1.amazonaws.com/assets/libs/cool-crush-2-sofball-banner-1640682005963.png" class="asset" transform="matrix(0.03372546011764754,0.000333070027989225,-0.00033307002798922507,0.033725460117647536,240.4630687702948,100.29189052765105)"></image><text fill="#ffffff" font-family="Franklin Gothic" font-size="11" x="177.80820576287448" y="188.1140050906863" transform="matrix(1.2336515689341354,0,0,1.2336515689341354,14.5055363586211,-92.42355688746056)" svgjs:data="{&quot;leading&quot;:&quot;1.3&quot;}"><tspan dy="0" x="177.80820576287448" svgjs:data="{&quot;newLined&quot;:true}">PLAYER</tspan></text><image width="760" height="716" xlink:href="https://lct-designs.s3.us-west-1.amazonaws.com/assets/libs/cool-crush-2-sofball-banner-1640682005963.png" class="asset" transform="matrix(0.033725447952747345,0.00033307005651295185,-0.00033307005651295185,0.033725447952747345,310.4482727050781,99.81769561767575)"></image><text fill="#ffffff" font-family="Franklin Gothic" font-size="11" x="177.80820576287448" y="188.1140050906863" transform="matrix(1.2336516380310059,0,0,1.2336516380310056,84.49076080322266,-92.89775848388672)" svgjs:data="{&quot;leading&quot;:&quot;1.3&quot;}"><tspan dy="0" x="177.80820576287448" svgjs:data="{&quot;newLined&quot;:true}">PLAYER</tspan></text><image width="760" height="716" xlink:href="https://lct-designs.s3.us-west-1.amazonaws.com/assets/libs/cool-crush-2-sofball-banner-1640682005963.png" class="asset" transform="matrix(0.033725447952747345,0.00033307008561678225,-0.0003330700856167823,0.033725447952747345,377.65576171875,99.7377700805664)"></image><text fill="#ffffff" font-family="Franklin Gothic" font-size="11" x="177.80820576287448" y="188.1140050906863" transform="matrix(1.2336516380310059,0,0,1.2336516380310056,151.69821166992188,-92.97767639160156)" svgjs:data="{&quot;leading&quot;:&quot;1.3&quot;}"><tspan dy="0" x="177.80820576287448" svgjs:data="{&quot;newLined&quot;:true}">PLAYER</tspan></text><image width="760" height="716" xlink:href="https://lct-designs.s3.us-west-1.amazonaws.com/assets/libs/cool-crush-2-sofball-banner-1640682005963.png" class="asset" transform="matrix(0.033725447952747345,0.00033307008561678225,-0.0003330700856167823,0.033725447952747345,447.64096069335943,99.26358032226562)"></image><text fill="#ffffff" font-family="Franklin Gothic" font-size="11" x="177.80820576287448" y="188.1140050906863" transform="matrix(1.2336516380310059,0,0,1.2336516380310056,221.68344116210938,-93.4518814086914)" svgjs:data="{&quot;leading&quot;:&quot;1.3&quot;}"><tspan dy="0" x="177.80820576287448" svgjs:data="{&quot;newLined&quot;:true}">PLAYER</tspan></text><text fill="#ffffff" font-family="Antilles Condensed" font-size="11" x="197.59496431176086" y="187.93020890361393" stroke-opacity="1" stroke-width="0" stroke="#000000" transform="matrix(5.69211483001709,0,0,5.69211483001709,-1090.3607177734375,-879.8428344726562)" svgjs:data="{&quot;leading&quot;:&quot;1.3&quot;}"><textPath xlink:href="#SvgjsPath1001" svgjs:data="{&quot;leading&quot;:&quot;1.3&quot;}"><tspan dy="0" x="0" svgjs:data="{&quot;newLined&quot;:true}">TEAM MOM: TEAM MOM'S NAME</tspan></textPath></text><defs><path d="M20.5,10.5c0.2,13-20.2,13-20,0C0.3-2.5,20.7-2.5,20.5,10.5z" id="SvgjsPath1001"></path><path d="M20.5,10.5c0.2,13-20.2,13-20,0C0.3-2.5,20.7-2.5,20.5,10.5z" id="SvgjsPath1002"></path></defs><text fill="#ffffff" font-family="Franklin Gothic" font-size="11" x="177.80820576287448" y="188.1140050906863" transform="matrix(1,0,0,0.9999999999999999,161.46170043945312,-101.76850128173827)" svgjs:data="{&quot;leading&quot;:&quot;1.3&quot;}"><tspan dy="0" x="177.80820576287448" svgjs:data="{&quot;newLined&quot;:true}">TEAM MOM: TEAM MOM'S NAME</tspan></text><image width="760" height="716" xlink:href="https://lct-designs.s3.us-west-1.amazonaws.com/assets/libs/cool-crush-2-sofball-banner-1640682005963.png" class="asset" transform="matrix(0.033725447952747345,0.00033307005651295185,-0.00033307005651295185,0.033725447952747345,275.5346374511718,151.55473327636716)"></image><text fill="#ffffff" font-family="Franklin Gothic" font-size="11" x="177.80820576287448" y="188.1140050906863" transform="matrix(1.2336516380310059,0,0,1.2336516380310056,49.57712554931642,-41.16071319580078)" svgjs:data="{&quot;leading&quot;:&quot;1.3&quot;}"><tspan dy="0" x="177.80820576287448" svgjs:data="{&quot;newLined&quot;:true}">PLAYER</tspan></text><image width="760" height="716" xlink:href="https://lct-designs.s3.us-west-1.amazonaws.com/assets/libs/cool-crush-2-sofball-banner-1640682005963.png" class="asset" transform="matrix(0.033725447952747345,0.00033307008561678225,-0.0003330700856167823,0.033725447952747345,342.7421264648438,151.47480773925778)"></image><text fill="#ffffff" font-family="Franklin Gothic" font-size="11" x="177.80820576287448" y="188.1140050906863" transform="matrix(1.2336516380310059,0,0,1.2336516380310056,116.78457641601562,-41.240631103515625)" svgjs:data="{&quot;leading&quot;:&quot;1.3&quot;}"><tspan dy="0" x="177.80820576287448" svgjs:data="{&quot;newLined&quot;:true}">PLAYER</tspan></text><image width="760" height="716" xlink:href="https://lct-designs.s3.us-west-1.amazonaws.com/assets/libs/cool-crush-2-sofball-banner-1640682005963.png" class="asset" transform="matrix(0.033725447952747345,0.00033307008561678225,-0.0003330700856167823,0.033725447952747345,412.7273254394531,151.00062561035156)"></image><text fill="#ffffff" font-family="Franklin Gothic" font-size="11" x="177.80820576287448" y="188.1140050906863" transform="matrix(1.2336516380310059,0,0,1.2336516380310056,186.76980590820312,-41.71483612060547)" svgjs:data="{&quot;leading&quot;:&quot;1.3&quot;}"><tspan dy="0" x="177.80820576287448" svgjs:data="{&quot;newLined&quot;:true}">PLAYER</tspan></text><image width="760" height="716" xlink:href="https://lct-designs.s3.us-west-1.amazonaws.com/assets/libs/cool-crush-2-sofball-banner-1640682005963.png" class="asset" transform="matrix(0.033725447952747345,0.00033307005651295185,-0.00033307005651295185,0.033725447952747345,311.6868896484375,202.7232666015625)"></image><text fill="#ffffff" font-family="Franklin Gothic" font-size="11" x="177.80820576287448" y="188.1140050906863" transform="matrix(1.2336516380310059,0,0,1.2336516380310056,85.72937774658203,10.007820129394531)" svgjs:data="{&quot;leading&quot;:&quot;1.3&quot;}"><tspan dy="0" x="177.80820576287448" svgjs:data="{&quot;newLined&quot;:true}">PLAYER</tspan></text><image width="760" height="716" xlink:href="https://lct-designs.s3.us-west-1.amazonaws.com/assets/libs/cool-crush-2-sofball-banner-1640682005963.png" class="asset" transform="matrix(0.033725447952747345,0.00033307008561678225,-0.0003330700856167823,0.033725447952747345,378.8943786621093,202.64334106445312)"></image><text fill="#ffffff" font-family="Franklin Gothic" font-size="11" x="177.80820576287448" y="188.1140050906863" transform="matrix(1.2336516380310059,0,0,1.2336516380310056,152.93682861328125,9.927902221679688)" svgjs:data="{&quot;leading&quot;:&quot;1.3&quot;}"><tspan dy="0" x="177.80820576287448" svgjs:data="{&quot;newLined&quot;:true}">PLAYER</tspan></text><image width="760" height="716" xlink:href="https://lct-designs.s3.us-west-1.amazonaws.com/assets/libs/cool-crush-2-sofball-banner-1640682005963.png" class="asset" transform="matrix(0.033725447952747345,0.00033307008561678225,-0.0003330700856167823,0.033725447952747345,448.87957763671875,202.16915893554682)"></image><text fill="#ffffff" font-family="Franklin Gothic" font-size="11" x="177.80820576287448" y="188.1140050906863" transform="matrix(1.2336516380310059,0,0,1.2336516380310056,222.92205810546875,9.453697204589844)" svgjs:data="{&quot;leading&quot;:&quot;1.3&quot;}"><tspan dy="0" x="177.80820576287448" svgjs:data="{&quot;newLined&quot;:true}">PLAYER</tspan></text><image width="760" height="716" xlink:href="https://lct-designs.s3.us-west-1.amazonaws.com/assets/libs/cool-crush-2-sofball-banner-1640682005963.png" class="asset" transform="matrix(0.033725447952747345,0.00033307005651295185,-0.00033307005651295185,0.033725447952747345,310.88488769531256,251.61764526367188)"></image><text fill="#ffffff" font-family="Franklin Gothic" font-size="11" x="177.80820576287448" y="188.1140050906863" transform="matrix(1.2336516380310059,0,0,1.2336516380310056,84.92737579345703,58.90219879150389)" svgjs:data="{&quot;leading&quot;:&quot;1.3&quot;}"><tspan dy="0" x="177.80820576287448" svgjs:data="{&quot;newLined&quot;:true}">PLAYER</tspan></text><image width="760" height="716" xlink:href="https://lct-designs.s3.us-west-1.amazonaws.com/assets/libs/cool-crush-2-sofball-banner-1640682005963.png" class="asset" transform="matrix(0.033725447952747345,0.00033307008561678225,-0.0003330700856167823,0.033725447952747345,378.0923767089844,251.5377197265625)"></image><text fill="#ffffff" font-family="Franklin Gothic" font-size="11" x="177.80820576287448" y="188.1140050906863" transform="matrix(1.2336516380310059,0,0,1.2336516380310056,152.13482666015625,58.82228088378906)" svgjs:data="{&quot;leading&quot;:&quot;1.3&quot;}"><tspan dy="0" x="177.80820576287448" svgjs:data="{&quot;newLined&quot;:true}">PLAYER</tspan></text><image width="760" height="716" xlink:href="https://lct-designs.s3.us-west-1.amazonaws.com/assets/libs/cool-crush-2-sofball-banner-1640682005963.png" class="asset" transform="matrix(0.033725447952747345,0.00033307008561678225,-0.0003330700856167823,0.033725447952747345,448.0775756835938,251.06353759765625)"></image><text fill="#ffffff" font-family="Franklin Gothic" font-size="11" x="177.80820576287448" y="188.1140050906863" transform="matrix(1.2336516380310059,0,0,1.2336516380310056,222.12005615234375,58.34807586669922)" svgjs:data="{&quot;leading&quot;:&quot;1.3&quot;}"><tspan dy="0" x="177.80820576287448" svgjs:data="{&quot;newLined&quot;:true}">PLAYER</tspan></text><g class="mask" style="pointer-events: none;"><g><path fill="#BCBEC0" d="M-3642.4-2101.7v4589.1h7813.4v-4589.1H-3642.4z M500.5,67.2v233.3v66.7H0.5v-66.7V67.2V0.5h500V67.2z" transform="matrix(1,0,0,1,0,0)"></path><g transform="matrix(1,0,0,1,0,0)">
	<rect x="0.5" y="300.5" opacity="0.95" fill="#F1F2F2" width="500" height="66.7"></rect>
	<rect x="0.5" y="0.5" opacity="0.95" fill="#F1F2F2" width="500" height="66.7"></rect>
</g></g></g></svg>