<svg xmlns="http://www.w3.org/2000/svg" version="1.1" xmlns:xlink="http://www.w3.org/1999/xlink" xmlns:svgjs="http://svgjs.dev/svgjs" width="100%" height="100%" viewBox="1 1 499 365.70001220703125" preserveAspectRatio="none" data-info="{&quot;_id&quot;:4,&quot;name&quot;:&quot;POLE POCKET SOCCER BANNERS&quot;,&quot;information&quot;:&quot;- Size: 3’x5’\n- Material: heavy duty vinyl banner\n- Digitally printed on vinyl&quot;,&quot;price&quot;:&quot;95.00&quot;,&quot;sale_price&quot;:&quot;89.99&quot;,&quot;type&quot;:&quot;pole-pocket&quot;,&quot;cover&quot;:{&quot;key&quot;:&quot;assets/models/pole-1628062864266-1631924568908.png&quot;,&quot;url&quot;:&quot;https://lct-designs.s3.us-west-1.amazonaws.com/assets/models/pole-1628062864266-1631924568908.png&quot;},&quot;back&quot;:{&quot;key&quot;:&quot;assets/models/pole-1631924700152.svg&quot;,&quot;url&quot;:&quot;https://lct-designs.s3.us-west-1.amazonaws.com/assets/models/pole-1631924700152.svg&quot;},&quot;mask&quot;:{&quot;key&quot;:&quot;assets/models/pole-mask-1631925211715.svg&quot;,&quot;url&quot;:&quot;https://lct-designs.s3.us-west-1.amazonaws.com/assets/models/pole-mask-1631925211715.svg&quot;},&quot;pos&quot;:&quot;2&quot;,&quot;accessories&quot;:&quot;2,3&quot;}" style="background-color: white;"><g class="model" style="pointer-events: none;"><polygon fill="#FFFFFF" points="0.5,0.5 0.5,67.2 0.5,300.5 0.5,367.2 500.5,367.2 500.5,300.5 500.5,67.2 500.5,0.5 "></polygon></g><image width="760" height="556" xlink:href="https://lct-designs.s3.us-west-1.amazonaws.com/assets/libs/pink-dolphins-2-softball-banner-1640684505243.png" class="asset background locked" transform="matrix(0.6595323960558116,0,0,0.6595323960558116,0,0)"></image><text fill="#000000" font-family="Futura Hv BT" font-size="15" x="199.7930558764512" y="189.20527009662842" transform="matrix(0.6971320509910582,0,0,0.6971320509910583,215.42800903320312,-43.92499542236329)" svgjs:data="{&quot;leading&quot;:&quot;1.3&quot;}"><tspan dy="0" x="199.7930558764512" svgjs:data="{&quot;newLined&quot;:true}">COACH: COACH'S NAME</tspan></text><text fill="#000000" font-family="Futura Hv BT" font-size="15" x="180.41333328123636" y="189.20527009662842" transform="matrix(0.6971316337585448,0,0,0.6971316337585449,-112.8327407836914,-44.48743438720703)" svgjs:data="{&quot;leading&quot;:&quot;1.3&quot;}"><tspan dy="0" x="180.41333328123636" svgjs:data="{&quot;newLined&quot;:true}">TEAM MOM: TEAM MOM'S NAME</tspan></text><image width="760" height="455" xlink:href="https://lct-designs.s3.us-west-1.amazonaws.com/assets/libs/pink-dolphins-2-softball-banner-1640683948797.png" class="asset" transform="matrix(0.35531204938888544,0,0,0.3553120493888855,108.32501220703125,83.67385864257814)"></image><image width="760" height="666" xlink:href="https://lct-designs.s3.us-west-1.amazonaws.com/assets/libs/pink-dolphins-2-sofball-banner-1640683677760.png" class="asset" transform="matrix(0.050291649997234344,0,0,0.050291649997234344,37.620018005371094,98.47645556926729)"></image><text fill="#000000" font-family="Futura Hv BT" font-size="15" x="199.7930558764512" y="189.20527009662842" transform="matrix(0.7625628709793091,0,0,0.762562870979309,-114.80590438842773,-0.9747005701065063)" svgjs:data="{&quot;leading&quot;:&quot;1.3&quot;}"><tspan dy="0" x="199.7930558764512" svgjs:data="{&quot;newLined&quot;:true}">PLAYER</tspan></text><image width="760" height="666" xlink:href="https://lct-designs.s3.us-west-1.amazonaws.com/assets/libs/pink-dolphins-2-sofball-banner-1640683677760.png" class="asset" transform="matrix(0.050291657447814934,0,0,0.05029165744781494,35.443397521972656,168.504638671875)"></image><text fill="#000000" font-family="Futura Hv BT" font-size="15" x="199.7930558764512" y="189.20527009662842" transform="matrix(0.7625628709793091,0,0,0.762562870979309,-116.9825210571289,69.05347442626955)" svgjs:data="{&quot;leading&quot;:&quot;1.3&quot;}"><tspan dy="0" x="199.7930558764512" svgjs:data="{&quot;newLined&quot;:true}">PLAYER</tspan></text><image width="760" height="666" xlink:href="https://lct-designs.s3.us-west-1.amazonaws.com/assets/libs/pink-dolphins-2-sofball-banner-1640683677760.png" class="asset" transform="matrix(0.05029166489839553,0,0,0.05029166489839554,31.017086029052734,239.2300567626953)"></image><text fill="#000000" font-family="Futura Hv BT" font-size="15" x="199.7930558764512" y="189.20527009662842" transform="matrix(0.7625628709793091,0,0,0.762562870979309,-121.40882873535156,139.77890014648438)" svgjs:data="{&quot;leading&quot;:&quot;1.3&quot;}"><tspan dy="0" x="199.7930558764512" svgjs:data="{&quot;newLined&quot;:true}">PLAYER</tspan></text><image width="760" height="666" xlink:href="https://lct-designs.s3.us-west-1.amazonaws.com/assets/libs/pink-dolphins-2-sofball-banner-1640683677760.png" class="asset" transform="matrix(0.05029166489839553,0,0,0.05029166489839554,97.82184600830078,238.10520935058588)"></image><text fill="#000000" font-family="Futura Hv BT" font-size="15" x="199.7930558764512" y="189.20527009662842" transform="matrix(0.7625628709793091,0,0,0.762562870979309,-54.604068756103516,138.654052734375)" svgjs:data="{&quot;leading&quot;:&quot;1.3&quot;}"><tspan dy="0" x="199.7930558764512" svgjs:data="{&quot;newLined&quot;:true}">PLAYER</tspan></text><image width="760" height="666" xlink:href="https://lct-designs.s3.us-west-1.amazonaws.com/assets/libs/pink-dolphins-2-sofball-banner-1640683677760.png" class="asset" transform="matrix(0.05029166489839553,0,0,0.05029166489839554,170.81326293945312,236.98033142089844)"></image><text fill="#000000" font-family="Futura Hv BT" font-size="15" x="199.7930558764512" y="189.20527009662842" transform="matrix(0.7625628709793091,0,0,0.762562870979309,18.387340545654297,137.5291748046875)" svgjs:data="{&quot;leading&quot;:&quot;1.3&quot;}"><tspan dy="0" x="199.7930558764512" svgjs:data="{&quot;newLined&quot;:true}">PLAYER</tspan></text><image width="760" height="666" xlink:href="https://lct-designs.s3.us-west-1.amazonaws.com/assets/libs/pink-dolphins-2-sofball-banner-1640683677760.png" class="asset" transform="matrix(0.05029166489839553,0,0,0.05029166489839554,285.6712455749511,239.79249560832977)"></image><text fill="#000000" font-family="Futura Hv BT" font-size="15" x="199.7930558764512" y="189.20527009662842" transform="matrix(0.7625628709793091,0,0,0.762562870979309,133.24533081054688,140.34133899211884)" svgjs:data="{&quot;leading&quot;:&quot;1.3&quot;}"><tspan dy="0" x="199.7930558764512" svgjs:data="{&quot;newLined&quot;:true}">PLAYER</tspan></text><image width="760" height="666" xlink:href="https://lct-designs.s3.us-west-1.amazonaws.com/assets/libs/pink-dolphins-2-sofball-banner-1640683677760.png" class="asset" transform="matrix(0.05029166489839553,0,0,0.05029166489839554,352.4760055541992,238.66764819622034)"></image><text fill="#000000" font-family="Futura Hv BT" font-size="15" x="199.7930558764512" y="189.20527009662842" transform="matrix(0.7625628709793091,0,0,0.762562870979309,200.05009078979492,139.2164915800094)" svgjs:data="{&quot;leading&quot;:&quot;1.3&quot;}"><tspan dy="0" x="199.7930558764512" svgjs:data="{&quot;newLined&quot;:true}">PLAYER</tspan></text><image width="760" height="666" xlink:href="https://lct-designs.s3.us-west-1.amazonaws.com/assets/libs/pink-dolphins-2-sofball-banner-1640683677760.png" class="asset" transform="matrix(0.05029166489839553,0,0,0.05029166489839554,425.46740722656244,237.54277038574213)"></image><text fill="#000000" font-family="Futura Hv BT" font-size="15" x="199.7930558764512" y="189.20527009662842" transform="matrix(0.7625628709793091,0,0,0.762562870979309,273.04150390624994,138.09161376953125)" svgjs:data="{&quot;leading&quot;:&quot;1.3&quot;}"><tspan dy="0" x="199.7930558764512" svgjs:data="{&quot;newLined&quot;:true}">PLAYER</tspan></text><image width="760" height="666" xlink:href="https://lct-designs.s3.us-west-1.amazonaws.com/assets/libs/pink-dolphins-2-sofball-banner-1640683677760.png" class="asset" transform="matrix(0.05029166489839553,0,0,0.05029166489839554,424.7813720703125,167.80084228515625)"></image><text fill="#000000" font-family="Futura Hv BT" font-size="15" x="199.7930558764512" y="189.20527009662842" transform="matrix(0.7625628709793091,0,0,0.762562870979309,272.35546875,68.3496856689453)" svgjs:data="{&quot;leading&quot;:&quot;1.3&quot;}"><tspan dy="0" x="199.7930558764512" svgjs:data="{&quot;newLined&quot;:true}">PLAYER</tspan></text><image width="760" height="666" xlink:href="https://lct-designs.s3.us-west-1.amazonaws.com/assets/libs/pink-dolphins-2-sofball-banner-1640683677760.png" class="asset" transform="matrix(0.05029166489839553,0,0,0.05029166489839554,424.09533691406244,97.49646759033202)"></image><text fill="#000000" font-family="Futura Hv BT" font-size="15" x="199.7930558764512" y="189.20527009662842" transform="matrix(0.7625628709793091,0,0,0.762562870979309,271.66943359374994,-1.9546890258789062)" svgjs:data="{&quot;leading&quot;:&quot;1.3&quot;}"><tspan dy="0" x="199.7930558764512" svgjs:data="{&quot;newLined&quot;:true}">PLAYER</tspan></text><g class="mask" style="pointer-events: none;"><g><path fill="#BCBEC0" d="M-3642.4-2101.7v4589.1h7813.4v-4589.1H-3642.4z M500.5,67.2v233.3v66.7H0.5v-66.7V67.2V0.5h500V67.2z" transform="matrix(1,0,0,1,0,0)"></path><g transform="matrix(1,0,0,1,0,0)">
	<rect x="0.5" y="300.5" opacity="0.95" fill="#F1F2F2" width="500" height="66.7"></rect>
	<rect x="0.5" y="0.5" opacity="0.95" fill="#F1F2F2" width="500" height="66.7"></rect>
</g></g></g></svg>