<svg xmlns="http://www.w3.org/2000/svg" version="1.1" xmlns:xlink="http://www.w3.org/1999/xlink" xmlns:svgjs="http://svgjs.dev/svgjs" width="100%" height="100%" viewBox="1 1 499 365.70001220703125" preserveAspectRatio="none" data-info="{&quot;_id&quot;:4,&quot;name&quot;:&quot;POLE POCKET SOCCER BANNERS&quot;,&quot;information&quot;:&quot;- Size: 3’x5’\n- Material: heavy duty vinyl banner\n- Digitally printed on vinyl&quot;,&quot;price&quot;:&quot;95.00&quot;,&quot;sale_price&quot;:&quot;89.99&quot;,&quot;type&quot;:&quot;pole-pocket&quot;,&quot;cover&quot;:{&quot;key&quot;:&quot;assets/models/pole-1628062864266-1631924568908.png&quot;,&quot;url&quot;:&quot;https://lct-designs.s3.us-west-1.amazonaws.com/assets/models/pole-1628062864266-1631924568908.png&quot;},&quot;back&quot;:{&quot;key&quot;:&quot;assets/models/pole-1631924700152.svg&quot;,&quot;url&quot;:&quot;https://lct-designs.s3.us-west-1.amazonaws.com/assets/models/pole-1631924700152.svg&quot;},&quot;mask&quot;:{&quot;key&quot;:&quot;assets/models/pole-mask-1631925211715.svg&quot;,&quot;url&quot;:&quot;https://lct-designs.s3.us-west-1.amazonaws.com/assets/models/pole-mask-1631925211715.svg&quot;},&quot;pos&quot;:&quot;2&quot;,&quot;accessories&quot;:&quot;2,3&quot;}" style="background-color: white;"><g class="model" style="pointer-events: none;"><polygon fill="#FFFFFF" points="0.5,0.5 0.5,67.2 0.5,300.5 0.5,367.2 500.5,367.2 500.5,300.5 500.5,67.2 500.5,0.5 "></polygon></g><image width="760" height="556" xlink:href="https://lct-designs.s3.us-west-1.amazonaws.com/assets/libs/nationals-baseball-banner-1645065351486.png" class="asset background locked" transform="matrix(0.6595323960558116,0,0,0.6595323960558116,0,0)"></image><text fill="#0d0d0d" font-family="Impact" font-size="45" x="192.06642438162737" y="201.88927563680983" stroke-opacity="1" stroke-width="1" stroke="#f7f7f7" transform="matrix(0.3032583892345428,0,0,0.30325838923454285,132.0780487060547,224.92884826660153)" svgjs:data="{&quot;leading&quot;:&quot;1.3&quot;}"><tspan dy="0" x="192.06642438162737" svgjs:data="{&quot;newLined&quot;:true}">Coach: Coach's name</tspan></text><image width="749" height="760" xlink:href="https://lct-designs.s3.us-west-1.amazonaws.com/assets/libs/nationals-baseball-banner-1645065386409.png" class="asset" transform="matrix(0.23285672068595886,0,0,0.23285672068595886,162.54635620117188,88.39830017089844)"></image><image width="516" height="760" xlink:href="https://lct-designs.s3.us-west-1.amazonaws.com/assets/libs/nationals-baseball-banner-1-1645065401732.png" class="asset" transform="matrix(0.07729877531528473,0,0,0.07729877531528473,379.0146179199219,130.27113342285156)"></image><image width="516" height="760" xlink:href="https://lct-designs.s3.us-west-1.amazonaws.com/assets/libs/nationals-baseball-banner-2-1645065401732.png" class="asset" transform="matrix(0.07729877531528473,0,0,0.07729877531528473,42.19202423095703,214.63255310058597)"></image><image width="344" height="760" xlink:href="https://lct-designs.s3.us-west-1.amazonaws.com/assets/libs/nationals-baseball-banner-3-1645065401732.png" class="asset" transform="matrix(0.07729877531528473,0,0,0.07729877531528473,349.33227539062506,73.61967468261722)"></image><image width="344" height="760" xlink:href="https://lct-designs.s3.us-west-1.amazonaws.com/assets/libs/nationals-baseball-banner-4-1645065401732.png" class="asset" transform="matrix(0.07729877531528473,0,0,0.07729877531528473,99.94810485839847,173.9912872314453)"></image><image width="466" height="760" xlink:href="https://lct-designs.s3.us-west-1.amazonaws.com/assets/libs/nationals-baseball-banner-8-1645065401733.png" class="asset" transform="matrix(0.07729877531528473,0,0,0.07729877531528473,84.14913177490236,77.3143310546875)"></image><image width="466" height="760" xlink:href="https://lct-designs.s3.us-west-1.amazonaws.com/assets/libs/nationals-baseball-banner-7-1645065401733.png" class="asset" transform="matrix(0.07729877531528473,0,0,0.07729877531528473,443.7549438476563,184.4594879150391)"></image><image width="592" height="760" xlink:href="https://lct-designs.s3.us-west-1.amazonaws.com/assets/libs/nationals-baseball-banner-6-1645065401733.png" class="asset" transform="matrix(0.07729877531528473,0,0,0.07729877531528473,16.471446990966804,121.03447723388672)"></image><image width="592" height="760" xlink:href="https://lct-designs.s3.us-west-1.amazonaws.com/assets/libs/nationals-baseball-banner-5-1645065401733.png" class="asset" transform="matrix(0.07729877531528473,0,0,0.07729877531528473,344.6733093261719,218.32720947265628)"></image><text fill="#f3f2f2" font-family="Impact" font-size="45" stroke-opacity="1" stroke-width="0" stroke="#0d0d0d" x="187.90310282104446" y="202.01522374115754" transform="matrix(0.27107998728752136,0,0,0.27107998728752136,297.4058837890625,234.07835388183597)" svgjs:data="{&quot;leading&quot;:&quot;1.3&quot;}"><tspan dy="0" x="187.90310282104446" svgjs:data="{&quot;newLined&quot;:true}">PLAYER</tspan></text><text fill="#f3f2f2" font-family="Impact" font-size="45" stroke-opacity="1" stroke-width="0" stroke="#0d0d0d" x="187.90310282104446" y="202.01522374115754" transform="matrix(0.27107998728752136,0,0,0.27107998728752136,-28.80099868774414,139.86448669433597)" svgjs:data="{&quot;leading&quot;:&quot;1.3&quot;}"><tspan dy="0" x="187.90310282104446" svgjs:data="{&quot;newLined&quot;:true}">PLAYER</tspan></text><text fill="#f3f2f2" font-family="Impact" font-size="45" stroke-opacity="1" stroke-width="0" stroke="#0d0d0d" x="187.90310282104446" y="202.01522374115754" transform="matrix(0.27107998728752136,0,0,0.27107998728752136,291.3960266113282,92.44966125488281)" svgjs:data="{&quot;leading&quot;:&quot;1.3&quot;}"><tspan dy="0" x="187.90310282104446" svgjs:data="{&quot;newLined&quot;:true}">PLAYER</tspan></text><text fill="#f3f2f2" font-family="Impact" font-size="45" stroke-opacity="1" stroke-width="0" stroke="#0d0d0d" x="187.90310282104446" y="202.01522374115754" transform="matrix(0.27107998728752136,0,0,0.27107998728752136,394.9920959472656,203.28950500488284)" svgjs:data="{&quot;leading&quot;:&quot;1.3&quot;}"><tspan dy="0" x="187.90310282104446" svgjs:data="{&quot;newLined&quot;:true}">PLAYER</tspan></text><text fill="#f3f2f2" font-family="Impact" font-size="45" stroke-opacity="1" stroke-width="0" stroke="#0d0d0d" x="187.90310282104446" y="202.01522374115754" transform="matrix(0.27107998728752136,0,0,0.27107998728752136,-9.416748046875,232.23101806640628)" svgjs:data="{&quot;leading&quot;:&quot;1.3&quot;}"><tspan dy="0" x="187.90310282104446" svgjs:data="{&quot;newLined&quot;:true}">PLAYER</tspan></text><text fill="#f3f2f2" font-family="Impact" font-size="45" stroke-opacity="1" stroke-width="0" stroke="#0d0d0d" x="187.90310282104446" y="202.01522374115754" transform="matrix(0.27107998728752136,0,0,0.27107998728752136,335.73101806640625,147.86958312988284)" svgjs:data="{&quot;leading&quot;:&quot;1.3&quot;}"><tspan dy="0" x="187.90310282104446" svgjs:data="{&quot;newLined&quot;:true}">PLAYER</tspan></text><text fill="#f3f2f2" font-family="Impact" font-size="45" stroke-opacity="1" stroke-width="0" stroke="#0d0d0d" x="187.90310282104446" y="202.01522374115754" transform="matrix(0.27107998728752136,0,0,0.27107998728752136,36.61771392822267,93.68121337890625)" svgjs:data="{&quot;leading&quot;:&quot;1.3&quot;}"><tspan dy="0" x="187.90310282104446" svgjs:data="{&quot;newLined&quot;:true}">PLAYER</tspan></text><text fill="#f3f2f2" font-family="Impact" font-size="45" stroke-opacity="1" stroke-width="0" stroke="#0d0d0d" x="187.90310282104446" y="202.01522374115754" transform="matrix(0.27107998728752136,0,0,0.27107998728752136,50.164497375488295,192.82128906250003)" svgjs:data="{&quot;leading&quot;:&quot;1.3&quot;}"><tspan dy="0" x="187.90310282104446" svgjs:data="{&quot;newLined&quot;:true}">PLAYER</tspan></text><g class="mask" style="pointer-events: none;"><g><path fill="#BCBEC0" d="M-3642.4-2101.7v4589.1h7813.4v-4589.1H-3642.4z M500.5,67.2v233.3v66.7H0.5v-66.7V67.2V0.5h500V67.2z" transform="matrix(1,0,0,1,0,0)"></path><g transform="matrix(1,0,0,1,0,0)">
	<rect x="0.5" y="300.5" opacity="0.95" fill="#F1F2F2" width="500" height="66.7"></rect>
	<rect x="0.5" y="0.5" opacity="0.95" fill="#F1F2F2" width="500" height="66.7"></rect>
</g></g></g></svg>