<svg xmlns="http://www.w3.org/2000/svg" version="1.1" xmlns:xlink="http://www.w3.org/1999/xlink" xmlns:svgjs="http://svgjs.dev/svgjs" width="100%" height="100%" viewBox="1 1 499 365.70001220703125" preserveAspectRatio="none" data-info="{&quot;_id&quot;:4,&quot;name&quot;:&quot;POLE POCKET SOCCER BANNERS&quot;,&quot;information&quot;:&quot;- Size: 3’x5’\n- Material: heavy duty vinyl banner\n- Digitally printed on vinyl&quot;,&quot;price&quot;:&quot;95.00&quot;,&quot;sale_price&quot;:&quot;89.99&quot;,&quot;type&quot;:&quot;pole-pocket&quot;,&quot;cover&quot;:{&quot;key&quot;:&quot;assets/models/pole-1628062864266-1631924568908.png&quot;,&quot;url&quot;:&quot;https://lct-designs.s3.us-west-1.amazonaws.com/assets/models/pole-1628062864266-1631924568908.png&quot;},&quot;back&quot;:{&quot;key&quot;:&quot;assets/models/pole-1631924700152.svg&quot;,&quot;url&quot;:&quot;https://lct-designs.s3.us-west-1.amazonaws.com/assets/models/pole-1631924700152.svg&quot;},&quot;mask&quot;:{&quot;key&quot;:&quot;assets/models/pole-mask-1631925211715.svg&quot;,&quot;url&quot;:&quot;https://lct-designs.s3.us-west-1.amazonaws.com/assets/models/pole-mask-1631925211715.svg&quot;},&quot;pos&quot;:&quot;2&quot;,&quot;accessories&quot;:&quot;2,3&quot;}" style="background-color: white;"><g class="model" style="pointer-events: none;"><polygon fill="#FFFFFF" points="0.5,0.5 0.5,67.2 0.5,300.5 0.5,367.2 500.5,367.2 500.5,300.5 500.5,67.2 500.5,0.5 "></polygon></g><image width="760" height="553" xlink:href="https://lct-designs.s3.us-west-1.amazonaws.com/assets/libs/padres-baseball-banner-1644823723064.png" class="asset background locked" transform="matrix(0.6631103294883024,0,0,0.6631103294883024,0,0)"></image><text fill="#0d0d0d" font-family="Impact" font-size="45" x="192.06642438162737" y="201.88927563680983" stroke-opacity="1" stroke-width="1" stroke="#f7f7f7" transform="matrix(0.28554198145866394,0,0,0.28554198145866394,320.4585266113281,27.255958557128906)" svgjs:data="{&quot;leading&quot;:&quot;1.3&quot;}"><tspan dy="0" x="192.06642438162737" svgjs:data="{&quot;newLined&quot;:true}">Coach: Coach's name</tspan></text><text fill="#0d0d0d" font-family="Impact" font-size="45" x="192.06642438162737" y="201.88927563680983" stroke-opacity="1" stroke-width="1" stroke="#f7f7f7" transform="matrix(0.28554198145866394,0,0,0.28554198145866394,-43.07444763183594,28.394750595092773)" svgjs:data="{&quot;leading&quot;:&quot;1.3&quot;}"><tspan dy="0" x="192.06642438162737" svgjs:data="{&quot;newLined&quot;:true}">Team mom: name</tspan></text><image width="760" height="730" xlink:href="https://lct-designs.s3.us-west-1.amazonaws.com/assets/libs/padres-baseball-banner-1644572700744.png" class="asset" transform="matrix(0.03719857707619667,0,0,0.03719857707619667,26.22188568115235,113.11668395996094)"></image><text fill="#ffd500" font-family="Impact" font-size="45" x="192.06642438162737" y="201.88927563680983" stroke-opacity="1" stroke-width="0" stroke="#f7f7f7" transform="matrix(0.28554198145866394,0,0,0.28554198145866394,-32.93311309814454,50.60176086425781)" svgjs:data="{&quot;leading&quot;:&quot;1.3&quot;}"><tspan dy="0" x="192.06642438162737" svgjs:data="{&quot;newLined&quot;:true}">PLAYER</tspan></text><image width="760" height="730" xlink:href="https://lct-designs.s3.us-west-1.amazonaws.com/assets/libs/padres-baseball-banner-1644572700744.png" class="asset" transform="matrix(0.03719857707619667,0,0,0.03719857707619667,101.70403289794925,113.68609619140628)"></image><text fill="#ffd500" font-family="Impact" font-size="45" x="192.06642438162737" y="201.88927563680983" stroke-opacity="1" stroke-width="0" stroke="#f7f7f7" transform="matrix(0.28554198145866394,0,0,0.28554198145866394,42.54903411865235,51.171173095703125)" svgjs:data="{&quot;leading&quot;:&quot;1.3&quot;}"><tspan dy="0" x="192.06642438162737" svgjs:data="{&quot;newLined&quot;:true}">PLAYER</tspan></text><image width="760" height="578" xlink:href="https://lct-designs.s3.us-west-1.amazonaws.com/assets/libs/padres-baseball-banner-1644572668162.png" class="asset" transform="matrix(0.288213312625885,0,0,0.288213312625885,141.9201812744141,102.04852294921875)"></image><image width="658" height="760" xlink:href="https://lct-designs.s3.us-west-1.amazonaws.com/assets/libs/padres-baseball-banner-1644572639398.png" class="asset" transform="matrix(0.18776999413967133,0,0,0.18776999413967133,370.1686096191407,152.70994567871094)"></image><image width="760" height="730" xlink:href="https://lct-designs.s3.us-west-1.amazonaws.com/assets/libs/padres-baseball-banner-1644572700744.png" class="asset" transform="matrix(0.03719857707619667,0,0,0.03719857707619667,333.77392578125,250.34446716308597)"></image><text fill="#ffd500" font-family="Impact" font-size="45" x="192.06642438162737" y="201.88927563680983" stroke-opacity="1" stroke-width="0" stroke="#f7f7f7" transform="matrix(0.28554198145866394,0,0,0.28554198145866394,274.6189270019531,187.82954406738284)" svgjs:data="{&quot;leading&quot;:&quot;1.3&quot;}"><tspan dy="0" x="192.06642438162737" svgjs:data="{&quot;newLined&quot;:true}">PLAYER</tspan></text><image width="760" height="730" xlink:href="https://lct-designs.s3.us-west-1.amazonaws.com/assets/libs/padres-baseball-banner-1644572700744.png" class="asset" transform="matrix(0.03719857707619667,0,0,0.03719857707619667,27.111320495605476,181.4458770751953)"></image><text fill="#ffd500" font-family="Impact" font-size="45" x="192.06642438162737" y="201.88927563680983" stroke-opacity="1" stroke-width="0" stroke="#f7f7f7" transform="matrix(0.28554198145866394,0,0,0.28554198145866394,-32.04367828369141,118.93095397949222)" svgjs:data="{&quot;leading&quot;:&quot;1.3&quot;}"><tspan dy="0" x="192.06642438162737" svgjs:data="{&quot;newLined&quot;:true}">PLAYER</tspan></text><image width="760" height="730" xlink:href="https://lct-designs.s3.us-west-1.amazonaws.com/assets/libs/padres-baseball-banner-1644572700744.png" class="asset" transform="matrix(0.03719857707619667,0,0,0.03719857707619667,102.59346771240234,182.01528930664065)"></image><text fill="#ffd500" font-family="Impact" font-size="45" x="192.06642438162737" y="201.88927563680983" stroke-opacity="1" stroke-width="0" stroke="#f7f7f7" transform="matrix(0.28554198145866394,0,0,0.28554198145866394,43.43846893310546,119.5003662109375)" svgjs:data="{&quot;leading&quot;:&quot;1.3&quot;}"><tspan dy="0" x="192.06642438162737" svgjs:data="{&quot;newLined&quot;:true}">PLAYER</tspan></text><image width="760" height="730" xlink:href="https://lct-designs.s3.us-west-1.amazonaws.com/assets/libs/padres-baseball-banner-1644572700744.png" class="asset" transform="matrix(0.03719857707619667,0,0,0.03719857707619667,28.57017517089843,249.7750549316406)"></image><text fill="#ffd500" font-family="Impact" font-size="45" x="192.06642438162737" y="201.88927563680983" stroke-opacity="1" stroke-width="0" stroke="#f7f7f7" transform="matrix(0.28554198145866394,0,0,0.28554198145866394,-30.584823608398445,187.2601318359375)" svgjs:data="{&quot;leading&quot;:&quot;1.3&quot;}"><tspan dy="0" x="192.06642438162737" svgjs:data="{&quot;newLined&quot;:true}">PLAYER</tspan></text><image width="760" height="730" xlink:href="https://lct-designs.s3.us-west-1.amazonaws.com/assets/libs/padres-baseball-banner-1644572700744.png" class="asset" transform="matrix(0.03719857707619667,0,0,0.03719857707619667,104.05232238769534,250.34446716308597)"></image><text fill="#ffd500" font-family="Impact" font-size="45" x="192.06642438162737" y="201.88927563680983" stroke-opacity="1" stroke-width="0" stroke="#f7f7f7" transform="matrix(0.28554198145866394,0,0,0.28554198145866394,44.89732360839843,187.82954406738284)" svgjs:data="{&quot;leading&quot;:&quot;1.3&quot;}"><tspan dy="0" x="192.06642438162737" svgjs:data="{&quot;newLined&quot;:true}">PLAYER</tspan></text><image width="760" height="730" xlink:href="https://lct-designs.s3.us-west-1.amazonaws.com/assets/libs/padres-baseball-banner-1644572700744.png" class="asset" transform="matrix(0.03719857707619667,0,0,0.03719857707619667,372.7431869506836,113.68609631061554)"></image><text fill="#ffd500" font-family="Impact" font-size="45" x="192.06642438162737" y="201.88927563680983" stroke-opacity="1" stroke-width="0" stroke="#f7f7f7" transform="matrix(0.28554198145866394,0,0,0.28554198145866394,313.5881881713867,51.171173214912415)" svgjs:data="{&quot;leading&quot;:&quot;1.3&quot;}"><tspan dy="0" x="192.06642438162737" svgjs:data="{&quot;newLined&quot;:true}">PLAYER</tspan></text><image width="760" height="730" xlink:href="https://lct-designs.s3.us-west-1.amazonaws.com/assets/libs/padres-baseball-banner-1644572700744.png" class="asset" transform="matrix(0.03719857707619667,0,0,0.03719857707619667,448.2253341674805,114.25550854206088)"></image><text fill="#ffd500" font-family="Impact" font-size="45" x="192.06642438162737" y="201.88927563680983" stroke-opacity="1" stroke-width="0" stroke="#f7f7f7" transform="matrix(0.28554198145866394,0,0,0.28554198145866394,389.07033538818365,51.74058544635773)" svgjs:data="{&quot;leading&quot;:&quot;1.3&quot;}"><tspan dy="0" x="192.06642438162737" svgjs:data="{&quot;newLined&quot;:true}">PLAYER</tspan></text><image width="760" height="730" xlink:href="https://lct-designs.s3.us-west-1.amazonaws.com/assets/libs/padres-baseball-banner-1644572700744.png" class="asset" transform="matrix(0.03719857707619667,0,0,0.03719857707619667,401.853759765625,250.34448242187503)"></image><text fill="#ffd500" font-family="Impact" font-size="45" x="192.06642438162737" y="201.88927563680983" stroke-opacity="1" stroke-width="0" stroke="#f7f7f7" transform="matrix(0.28554198145866394,0,0,0.28554198145866394,342.6987609863281,187.82955932617185)" svgjs:data="{&quot;leading&quot;:&quot;1.3&quot;}"><tspan dy="0" x="192.06642438162737" svgjs:data="{&quot;newLined&quot;:true}">PLAYER</tspan></text><g class="mask" style="pointer-events: none;"><g><path fill="#BCBEC0" d="M-3642.4-2101.7v4589.1h7813.4v-4589.1H-3642.4z M500.5,67.2v233.3v66.7H0.5v-66.7V67.2V0.5h500V67.2z" transform="matrix(1,0,0,1,0,0)"></path><g transform="matrix(1,0,0,1,0,0)">
	<rect x="0.5" y="300.5" opacity="0.95" fill="#F1F2F2" width="500" height="66.7"></rect>
	<rect x="0.5" y="0.5" opacity="0.95" fill="#F1F2F2" width="500" height="66.7"></rect>
</g></g></g></svg>