<svg xmlns="http://www.w3.org/2000/svg" version="1.1" xmlns:xlink="http://www.w3.org/1999/xlink" xmlns:svgjs="http://svgjs.dev/svgjs" width="100%" height="100%" viewBox="1 1 499 365.70001220703125" preserveAspectRatio="none" data-info="{&quot;_id&quot;:4,&quot;name&quot;:&quot;POLE POCKET SOCCER BANNERS&quot;,&quot;information&quot;:&quot;- Size: 3’x5’\n- Material: heavy duty vinyl banner\n- Digitally printed on vinyl&quot;,&quot;price&quot;:&quot;95.00&quot;,&quot;sale_price&quot;:&quot;89.99&quot;,&quot;type&quot;:&quot;pole-pocket&quot;,&quot;cover&quot;:{&quot;key&quot;:&quot;assets/models/pole-1628062864266-1631924568908.png&quot;,&quot;url&quot;:&quot;https://lct-designs.s3.us-west-1.amazonaws.com/assets/models/pole-1628062864266-1631924568908.png&quot;},&quot;back&quot;:{&quot;key&quot;:&quot;assets/models/pole-1631924700152.svg&quot;,&quot;url&quot;:&quot;https://lct-designs.s3.us-west-1.amazonaws.com/assets/models/pole-1631924700152.svg&quot;},&quot;mask&quot;:{&quot;key&quot;:&quot;assets/models/pole-mask-1631925211715.svg&quot;,&quot;url&quot;:&quot;https://lct-designs.s3.us-west-1.amazonaws.com/assets/models/pole-mask-1631925211715.svg&quot;},&quot;pos&quot;:&quot;2&quot;,&quot;accessories&quot;:&quot;2,3&quot;}" style="background-color: white;"><g class="model" style="pointer-events: none;"><polygon fill="#FFFFFF" points="0.5,0.5 0.5,67.2 0.5,300.5 0.5,367.2 500.5,367.2 500.5,300.5 500.5,67.2 500.5,0.5 "></polygon></g><image width="760" height="553" xlink:href="https://lct-designs.s3.us-west-1.amazonaws.com/assets/libs/philadelphia-baseball-banner-1641450463888.png" class="asset background locked" transform="matrix(0.6631103294883024,0,0,0.6631103294883024,0,0)"></image><text fill="#ffffff" font-family="Impact" font-size="45" stroke-opacity="1" stroke-width="1" stroke="#004070" x="69.63200282343385" y="201.73080496579308" transform="matrix(0.31878945231437683,0,0,0.31878945231437683,-4.691898822784424,219.8022003173828)" svgjs:data="{&quot;leading&quot;:&quot;1.3&quot;}"><tspan dy="0" x="69.63200282343385" svgjs:data="{&quot;newLined&quot;:true}">Coach: Coach name</tspan></text><text fill="#ffffff" font-family="Impact" font-size="45" stroke-opacity="1" stroke-width="1" stroke="#004070" x="191.93504618891237" y="201.73080496579308" transform="matrix(0.4038288891315461,0,0,0.40382888913154596,22.00507736206054,174.81289672851562)" svgjs:data="{&quot;leading&quot;:&quot;1.3&quot;}"><tspan dy="0" x="191.93504618891237" svgjs:data="{&quot;newLined&quot;:true}">Player</tspan></text><image width="760" height="699" xlink:href="https://lct-designs.s3.us-west-1.amazonaws.com/assets/libs/philadelphia-2-baseball-banner-1642644514854.png" class="asset" transform="matrix(0.041743118315935135,0,0,0.041743118315935135,66.54088592529297,233.34983825683594)"></image><image width="760" height="699" xlink:href="https://lct-designs.s3.us-west-1.amazonaws.com/assets/libs/philadelphia-2-baseball-banner-1642644514854.png" class="asset" transform="matrix(0.041743118315935135,0,0,0.041743118315935135,68.97775268554688,159.7692108154297)"></image><image width="760" height="699" xlink:href="https://lct-designs.s3.us-west-1.amazonaws.com/assets/libs/philadelphia-2-baseball-banner-1642644514854.png" class="asset" transform="matrix(0.041743118315935135,0,0,0.041743118315935135,73.19227600097656,82.23365783691409)"></image><text fill="#ffffff" font-family="Impact" font-size="45" stroke-opacity="1" stroke-width="1" stroke="#004070" x="191.93504618891237" y="201.73080496579308" transform="matrix(0.4038288891315461,0,0,0.40382888913154596,28.656476974487298,23.696720123291016)" svgjs:data="{&quot;leading&quot;:&quot;1.3&quot;}"><tspan dy="0" x="191.93504618891237" svgjs:data="{&quot;newLined&quot;:true}">Player</tspan></text><text fill="#ffffff" font-family="Impact" font-size="45" stroke-opacity="1" stroke-width="1" stroke="#004070" x="191.93504618891237" y="201.73080496579308" transform="matrix(0.4038288891315461,0,0,0.40382888913154596,24.441947937011726,101.2322769165039)" svgjs:data="{&quot;leading&quot;:&quot;1.3&quot;}"><tspan dy="0" x="191.93504618891237" svgjs:data="{&quot;newLined&quot;:true}">Player</tspan></text><image width="760" height="699" xlink:href="https://lct-designs.s3.us-west-1.amazonaws.com/assets/libs/philadelphia-2-baseball-banner-1642644514854.png" class="asset" transform="matrix(0.041743118315935135,0,0,0.041743118315935135,17.925270080566413,197.86314392089844)"></image><image width="760" height="699" xlink:href="https://lct-designs.s3.us-west-1.amazonaws.com/assets/libs/philadelphia-2-baseball-banner-1642644514854.png" class="asset" transform="matrix(0.041743118315935135,0,0,0.041743118315935135,19.317584991455078,113.8681411743164)"></image><text fill="#ffffff" font-family="Impact" font-size="45" stroke-opacity="1" stroke-width="1" stroke="#004070" x="191.93504618891237" y="201.73080496579308" transform="matrix(0.4038288891315461,0,0,0.40382888913154596,-25.218219757080085,55.331199645996094)" svgjs:data="{&quot;leading&quot;:&quot;1.3&quot;}"><tspan dy="0" x="191.93504618891237" svgjs:data="{&quot;newLined&quot;:true}">Player</tspan></text><text fill="#ffffff" font-family="Impact" font-size="45" stroke-opacity="1" stroke-width="1" stroke="#004070" x="191.93504618891237" y="201.73080496579308" transform="matrix(0.4038288891315461,0,0,0.40382888913154596,-26.610534667968754,139.32620239257812)" svgjs:data="{&quot;leading&quot;:&quot;1.3&quot;}"><tspan dy="0" x="191.93504618891237" svgjs:data="{&quot;newLined&quot;:true}">Player</tspan></text><image width="760" height="708" xlink:href="https://lct-designs.s3.us-west-1.amazonaws.com/assets/libs/philadelphia-2-baseball-banner--1641953891680.png" class="asset" transform="matrix(0.2181843817234039,0,0,0.2181843817234039,165.16343688964844,76.5717772245407)"></image><image width="760" height="658" xlink:href="https://lct-designs.s3.us-west-1.amazonaws.com/assets/libs/philadelphia-2-baseball-banner-1641953811344.png" class="asset" transform="matrix(0.13157889246940613,0,0,0.13157889246940613,197.791015625,206.9966276884079)"></image><text fill="#ffffff" font-family="Impact" font-size="45" stroke-opacity="1" stroke-width="1" stroke="#004070" x="191.93504618891237" y="201.73080496579308" transform="matrix(0.4038288891315461,0,0,0.40382888913154596,300.10214233398443,135.3883819580078)" svgjs:data="{&quot;leading&quot;:&quot;1.3&quot;}"><tspan dy="0" x="191.93504618891237" svgjs:data="{&quot;newLined&quot;:true}">Player</tspan></text><image width="760" height="699" xlink:href="https://lct-designs.s3.us-west-1.amazonaws.com/assets/libs/philadelphia-2-baseball-banner-1642644514854.png" class="asset" transform="matrix(0.041743118315935135,0,0,0.041743118315935135,344.63793945312506,193.92532348632812)"></image><image width="760" height="699" xlink:href="https://lct-designs.s3.us-west-1.amazonaws.com/assets/libs/philadelphia-2-baseball-banner-1642644514854.png" class="asset" transform="matrix(0.041743118315935135,0,0,0.041743118315935135,346.03027343750006,109.9303207397461)"></image><text fill="#ffffff" font-family="Impact" font-size="45" stroke-opacity="1" stroke-width="1" stroke="#004070" x="191.93504618891237" y="201.73080496579308" transform="matrix(0.4038288891315461,0,0,0.40382888913154596,301.4944458007813,51.39337921142578)" svgjs:data="{&quot;leading&quot;:&quot;1.3&quot;}"><tspan dy="0" x="191.93504618891237" svgjs:data="{&quot;newLined&quot;:true}">Player</tspan></text><text fill="#ffffff" font-family="Impact" font-size="45" stroke-opacity="1" stroke-width="1" stroke="#004070" x="191.93504618891237" y="201.73080496579308" transform="matrix(0.4038288891315461,0,0,0.40382888913154596,350.9679260253907,170.8750762939453)" svgjs:data="{&quot;leading&quot;:&quot;1.3&quot;}"><tspan dy="0" x="191.93504618891237" svgjs:data="{&quot;newLined&quot;:true}">Player</tspan></text><image width="760" height="699" xlink:href="https://lct-designs.s3.us-west-1.amazonaws.com/assets/libs/philadelphia-2-baseball-banner-1642644514854.png" class="asset" transform="matrix(0.041743118315935135,0,0,0.041743118315935135,395.50375366210943,229.41201782226562)"></image><text fill="#ffffff" font-family="Impact" font-size="45" stroke-opacity="1" stroke-width="1" stroke="#004070" x="191.93504618891237" y="201.73080496579308" transform="matrix(0.4038288891315461,0,0,0.40382888913154596,353.4048156738282,97.29445648193357)" svgjs:data="{&quot;leading&quot;:&quot;1.3&quot;}"><tspan dy="0" x="191.93504618891237" svgjs:data="{&quot;newLined&quot;:true}">Player</tspan></text><image width="760" height="699" xlink:href="https://lct-designs.s3.us-west-1.amazonaws.com/assets/libs/philadelphia-2-baseball-banner-1642644514854.png" class="asset" transform="matrix(0.041743118315935135,0,0,0.041743118315935135,397.9406127929688,155.83139038085938)"></image><image width="760" height="699" xlink:href="https://lct-designs.s3.us-west-1.amazonaws.com/assets/libs/philadelphia-2-baseball-banner-1642644514854.png" class="asset" transform="matrix(0.041743118315935135,0,0,0.041743118315935135,402.15515136718756,78.29583740234375)"></image><text fill="#ffffff" font-family="Impact" font-size="45" stroke-opacity="1" stroke-width="1" stroke="#004070" x="191.93504618891237" y="201.73080496579308" transform="matrix(0.4038288891315461,0,0,0.40382888913154596,357.6193237304688,19.758899688720717)" svgjs:data="{&quot;leading&quot;:&quot;1.3&quot;}"><tspan dy="0" x="191.93504618891237" svgjs:data="{&quot;newLined&quot;:true}">Player</tspan></text><text fill="#ffffff" font-family="Impact" font-size="45" stroke-opacity="1" stroke-width="1" stroke="#004070" x="69.63200282343385" y="201.73080496579308" transform="matrix(0.3187893033027649,0,0,0.31878930330276484,349.7296752929687,219.78160095214844)" svgjs:data="{&quot;leading&quot;:&quot;1.3&quot;}"><tspan dy="0" x="69.63200282343385" svgjs:data="{&quot;newLined&quot;:true}">Team mom: name</tspan></text><g class="mask" style="pointer-events: none;"><g><path fill="#BCBEC0" d="M-3642.4-2101.7v4589.1h7813.4v-4589.1H-3642.4z M500.5,67.2v233.3v66.7H0.5v-66.7V67.2V0.5h500V67.2z" transform="matrix(1,0,0,1,0,0)"></path><g transform="matrix(1,0,0,1,0,0)">
	<rect x="0.5" y="300.5" opacity="0.95" fill="#F1F2F2" width="500" height="66.7"></rect>
	<rect x="0.5" y="0.5" opacity="0.95" fill="#F1F2F2" width="500" height="66.7"></rect>
</g></g></g></svg>