<svg xmlns="http://www.w3.org/2000/svg" version="1.1" xmlns:xlink="http://www.w3.org/1999/xlink" xmlns:svgjs="http://svgjs.dev/svgjs" width="100%" height="100%" viewBox="1 1 499 365.70001220703125" preserveAspectRatio="none" data-info="{&quot;_id&quot;:4,&quot;name&quot;:&quot;POLE POCKET SOCCER BANNERS&quot;,&quot;information&quot;:&quot;- Size: 3’x5’\n- Material: heavy duty vinyl banner\n- Digitally printed on vinyl&quot;,&quot;price&quot;:&quot;95.00&quot;,&quot;sale_price&quot;:&quot;89.99&quot;,&quot;type&quot;:&quot;pole-pocket&quot;,&quot;cover&quot;:{&quot;key&quot;:&quot;assets/models/pole-1628062864266-1631924568908.png&quot;,&quot;url&quot;:&quot;https://lct-designs.s3.us-west-1.amazonaws.com/assets/models/pole-1628062864266-1631924568908.png&quot;},&quot;back&quot;:{&quot;key&quot;:&quot;assets/models/pole-1631924700152.svg&quot;,&quot;url&quot;:&quot;https://lct-designs.s3.us-west-1.amazonaws.com/assets/models/pole-1631924700152.svg&quot;},&quot;mask&quot;:{&quot;key&quot;:&quot;assets/models/pole-mask-1631925211715.svg&quot;,&quot;url&quot;:&quot;https://lct-designs.s3.us-west-1.amazonaws.com/assets/models/pole-mask-1631925211715.svg&quot;},&quot;pos&quot;:&quot;2&quot;,&quot;accessories&quot;:&quot;2,3&quot;}" style="background-color: white;"><g class="model" style="pointer-events: none;"><polygon fill="#FFFFFF" points="0.5,0.5 0.5,67.2 0.5,300.5 0.5,367.2 500.5,367.2 500.5,300.5 500.5,67.2 500.5,0.5 "></polygon></g><image width="760" height="556" xlink:href="https://lct-designs.s3.us-west-1.amazonaws.com/assets/libs/bulldogs-softball-banner-1644898063736.png" class="asset background locked" transform="matrix(0.6595323960558116,0,0,0.6595323960558116,0,0)"></image><text fill="#0d0d0d" font-family="Impact" font-size="45" x="192.06642438162737" y="201.88927563680983" stroke-opacity="1" stroke-width="1" stroke="#f7f7f7" transform="matrix(0.2699042856693267,0,0,0.2699042856693268,331.9224548339843,28.10458755493164)" svgjs:data="{&quot;leading&quot;:&quot;1.3&quot;}"><tspan dy="0" x="192.06642438162737" svgjs:data="{&quot;newLined&quot;:true}">Coach: Coach's name</tspan></text><image width="628" height="760" xlink:href="https://lct-designs.s3.us-west-1.amazonaws.com/assets/libs/bulldogs-softball-banner-1644897998889.png" class="asset" transform="matrix(0.19315585494041443,0,0,0.19315585494041443,30.112745285034187,147.51287841796878)"></image><text fill="#920707" font-family="Amity Jack" font-size="45" stroke-opacity="1" stroke-width="1" stroke="#f2eded" x="164.68127054565383" y="198.9363701339798" transform="matrix(0.2423914670944214,0,0,0.24239146709442141,-8.541132926940914,92.4041442871094)" svgjs:data="{&quot;leading&quot;:&quot;1.3&quot;}"><tspan dy="0" x="164.68127054565383" svgjs:data="{&quot;newLined&quot;:true}">PLAYER</tspan></text><image width="618" height="760" xlink:href="https://lct-designs.s3.us-west-1.amazonaws.com/assets/libs/bulldogs-softball-banner-1644897952830.png" class="asset" transform="matrix(0.0691918432712555,0,0,0.0691918432712555,24.613037109375007,79.1616439819336)"></image><image width="618" height="760" xlink:href="https://lct-designs.s3.us-west-1.amazonaws.com/assets/libs/bulldogs-softball-banner-1644897952830.png" class="asset" transform="matrix(0.0691918432712555,0,0,0.0691918432712555,101.73126220703125,77.31431579589844)"></image><text fill="#920707" font-family="Amity Jack" font-size="45" stroke-opacity="1" stroke-width="1" stroke="#f2eded" x="164.68127054565383" y="198.9363701339798" transform="matrix(0.24239149689674377,0,0,0.2423914968967438,68.57709503173828,90.55681610107422)" svgjs:data="{&quot;leading&quot;:&quot;1.3&quot;}"><tspan dy="0" x="164.68127054565383" svgjs:data="{&quot;newLined&quot;:true}">PLAYER</tspan></text><image width="618" height="760" xlink:href="https://lct-designs.s3.us-west-1.amazonaws.com/assets/libs/bulldogs-softball-banner-1644897952830.png" class="asset" transform="matrix(0.0691918432712555,0,0,0.0691918432712555,176.3864288330078,76.69853973388672)"></image><text fill="#920707" font-family="Amity Jack" font-size="45" stroke-opacity="1" stroke-width="1" stroke="#f2eded" x="164.68127054565383" y="198.9363701339798" transform="matrix(0.24239154160022736,0,0,0.24239154160022736,143.23226928710938,89.94104003906253)" svgjs:data="{&quot;leading&quot;:&quot;1.3&quot;}"><tspan dy="0" x="164.68127054565383" svgjs:data="{&quot;newLined&quot;:true}">PLAYER</tspan></text><text fill="#920707" font-family="Amity Jack" font-size="45" stroke-opacity="1" stroke-width="1" stroke="#f2eded" x="164.68127054565383" y="198.9363701339798" transform="matrix(0.24239149689674377,0,0,0.2423914968967438,223.1337480545044,103.48812866210938)" svgjs:data="{&quot;leading&quot;:&quot;1.3&quot;}"><tspan dy="0" x="164.68127054565383" svgjs:data="{&quot;newLined&quot;:true}">PLAYER</tspan></text><image width="618" height="760" xlink:href="https://lct-designs.s3.us-west-1.amazonaws.com/assets/libs/bulldogs-softball-banner-1644897952830.png" class="asset" transform="matrix(0.0691918432712555,0,0,0.0691918432712555,256.2879180908203,90.24562835693362)"></image><image width="618" height="760" xlink:href="https://lct-designs.s3.us-west-1.amazonaws.com/assets/libs/bulldogs-softball-banner-1644897952830.png" class="asset" transform="matrix(0.0691918432712555,0,0,0.0691918432712555,333.40612792968756,88.39830017089844)"></image><text fill="#920707" font-family="Amity Jack" font-size="45" stroke-opacity="1" stroke-width="1" stroke="#f2eded" x="164.68127054565383" y="198.9363701339798" transform="matrix(0.24239160120487213,0,0,0.24239160120487213,300.2519836425782,101.64080047607422)" svgjs:data="{&quot;leading&quot;:&quot;1.3&quot;}"><tspan dy="0" x="164.68127054565383" svgjs:data="{&quot;newLined&quot;:true}">PLAYER</tspan></text><image width="618" height="760" xlink:href="https://lct-designs.s3.us-west-1.amazonaws.com/assets/libs/bulldogs-softball-banner-1644897952830.png" class="asset" transform="matrix(0.0691918432712555,0,0,0.0691918432712555,408.0613098144532,87.78252410888672)"></image><text fill="#920707" font-family="Amity Jack" font-size="45" stroke-opacity="1" stroke-width="1" stroke="#f2eded" x="164.68127054565383" y="198.9363701339798" transform="matrix(0.24239163100719455,0,0,0.24239163100719455,374.90716552734375,101.0250244140625)" svgjs:data="{&quot;leading&quot;:&quot;1.3&quot;}"><tspan dy="0" x="164.68127054565383" svgjs:data="{&quot;newLined&quot;:true}">PLAYER</tspan></text><text fill="#920707" font-family="Amity Jack" font-size="45" stroke-opacity="1" stroke-width="1" stroke="#f2eded" x="164.68127054565383" y="198.9363701339798" transform="matrix(0.24239160120487213,0,0,0.24239160120487213,138.92190551757815,174.91825866699216)" svgjs:data="{&quot;leading&quot;:&quot;1.3&quot;}"><tspan dy="0" x="164.68127054565383" svgjs:data="{&quot;newLined&quot;:true}">PLAYER</tspan></text><image width="618" height="760" xlink:href="https://lct-designs.s3.us-west-1.amazonaws.com/assets/libs/bulldogs-softball-banner-1644897952830.png" class="asset" transform="matrix(0.0691918432712555,0,0,0.0691918432712555,172.07606506347656,161.67575073242188)"></image><image width="618" height="760" xlink:href="https://lct-designs.s3.us-west-1.amazonaws.com/assets/libs/bulldogs-softball-banner-1644897952830.png" class="asset" transform="matrix(0.0691918432712555,0,0,0.0691918432712555,249.1942901611328,159.82843017578128)"></image><text fill="#920707" font-family="Amity Jack" font-size="45" stroke-opacity="1" stroke-width="1" stroke="#f2eded" x="164.68127054565383" y="198.9363701339798" transform="matrix(0.24239163100719455,0,0,0.24239163100719455,216.04014587402344,173.07092285156253)" svgjs:data="{&quot;leading&quot;:&quot;1.3&quot;}"><tspan dy="0" x="164.68127054565383" svgjs:data="{&quot;newLined&quot;:true}">PLAYER</tspan></text><image width="618" height="760" xlink:href="https://lct-designs.s3.us-west-1.amazonaws.com/assets/libs/bulldogs-softball-banner-1644897952830.png" class="asset" transform="matrix(0.0691918432712555,0,0,0.0691918432712555,323.8494720458985,159.21264648437503)"></image><text fill="#920707" font-family="Amity Jack" font-size="45" stroke-opacity="1" stroke-width="1" stroke="#f2eded" x="164.68127054565383" y="198.9363701339798" transform="matrix(0.24239166080951693,0,0,0.24239166080951693,290.6953277587891,172.45513916015625)" svgjs:data="{&quot;leading&quot;:&quot;1.3&quot;}"><tspan dy="0" x="164.68127054565383" svgjs:data="{&quot;newLined&quot;:true}">PLAYER</tspan></text><text fill="#920707" font-family="Amity Jack" font-size="45" stroke-opacity="1" stroke-width="1" stroke="#f2eded" x="164.68127054565383" y="198.9363701339798" transform="matrix(0.24239163100719455,0,0,0.24239163100719455,201.8775634765625,239.57482910156247)" svgjs:data="{&quot;leading&quot;:&quot;1.3&quot;}"><tspan dy="0" x="164.68127054565383" svgjs:data="{&quot;newLined&quot;:true}">PLAYER</tspan></text><image width="618" height="760" xlink:href="https://lct-designs.s3.us-west-1.amazonaws.com/assets/libs/bulldogs-softball-banner-1644897952830.png" class="asset" transform="matrix(0.0691918432712555,0,0,0.0691918432712555,235.03172302246094,226.33232116699222)"></image><image width="618" height="760" xlink:href="https://lct-designs.s3.us-west-1.amazonaws.com/assets/libs/bulldogs-softball-banner-1644897952830.png" class="asset" transform="matrix(0.0691918432712555,0,0,0.0691918432712555,312.1499481201172,224.4850006103516)"></image><text fill="#920707" font-family="Amity Jack" font-size="45" stroke-opacity="1" stroke-width="1" stroke="#f2eded" x="164.68127054565383" y="198.9363701339798" transform="matrix(0.24239166080951693,0,0,0.24239166080951693,278.9958038330078,237.72749328613284)" svgjs:data="{&quot;leading&quot;:&quot;1.3&quot;}"><tspan dy="0" x="164.68127054565383" svgjs:data="{&quot;newLined&quot;:true}">PLAYER</tspan></text><image width="618" height="760" xlink:href="https://lct-designs.s3.us-west-1.amazonaws.com/assets/libs/bulldogs-softball-banner-1644897952830.png" class="asset" transform="matrix(0.0691918432712555,0,0,0.0691918432712555,386.80513000488287,223.86921691894534)"></image><text fill="#920707" font-family="Amity Jack" font-size="45" stroke-opacity="1" stroke-width="1" stroke="#f2eded" x="164.68127054565383" y="198.9363701339798" transform="matrix(0.24239169061183932,0,0,0.24239169061183932,353.6509857177735,237.11170959472653)" svgjs:data="{&quot;leading&quot;:&quot;1.3&quot;}"><tspan dy="0" x="164.68127054565383" svgjs:data="{&quot;newLined&quot;:true}">PLAYER</tspan></text><image width="618" height="760" xlink:href="https://lct-designs.s3.us-west-1.amazonaws.com/assets/libs/bulldogs-softball-banner-1644897952830.png" class="asset" transform="matrix(0.0691918432712555,0,0,0.0691918432712555,405.5982513427735,157.98109436035156)"></image><text fill="#920707" font-family="Amity Jack" font-size="45" stroke-opacity="1" stroke-width="1" stroke="#f2eded" x="164.68127054565383" y="198.9363701339798" transform="matrix(0.24239166080951693,0,0,0.24239166080951693,372.4441070556641,171.2235870361328)" svgjs:data="{&quot;leading&quot;:&quot;1.3&quot;}"><tspan dy="0" x="164.68127054565383" svgjs:data="{&quot;newLined&quot;:true}">PLAYER</tspan></text><g class="mask" style="pointer-events: none;"><g><path fill="#BCBEC0" d="M-3642.4-2101.7v4589.1h7813.4v-4589.1H-3642.4z M500.5,67.2v233.3v66.7H0.5v-66.7V67.2V0.5h500V67.2z" transform="matrix(1,0,0,1,0,0)"></path><g transform="matrix(1,0,0,1,0,0)">
	<rect x="0.5" y="300.5" opacity="0.95" fill="#F1F2F2" width="500" height="66.7"></rect>
	<rect x="0.5" y="0.5" opacity="0.95" fill="#F1F2F2" width="500" height="66.7"></rect>
</g></g></g></svg>