<svg xmlns="http://www.w3.org/2000/svg" version="1.1" xmlns:xlink="http://www.w3.org/1999/xlink" xmlns:svgjs="http://svgjs.dev/svgjs" width="100%" height="100%" viewBox="1 1 499 365.70001220703125" preserveAspectRatio="none" data-info="{&quot;_id&quot;:4,&quot;name&quot;:&quot;POLE POCKET SOCCER BANNERS&quot;,&quot;information&quot;:&quot;- Size: 3’x5’\n- Material: heavy duty vinyl banner\n- Digitally printed on vinyl&quot;,&quot;price&quot;:&quot;95.00&quot;,&quot;sale_price&quot;:&quot;89.99&quot;,&quot;type&quot;:&quot;pole-pocket&quot;,&quot;cover&quot;:{&quot;key&quot;:&quot;assets/models/pole-1628062864266-1631924568908.png&quot;,&quot;url&quot;:&quot;https://lct-designs.s3.us-west-1.amazonaws.com/assets/models/pole-1628062864266-1631924568908.png&quot;},&quot;back&quot;:{&quot;key&quot;:&quot;assets/models/pole-1631924700152.svg&quot;,&quot;url&quot;:&quot;https://lct-designs.s3.us-west-1.amazonaws.com/assets/models/pole-1631924700152.svg&quot;},&quot;mask&quot;:{&quot;key&quot;:&quot;assets/models/pole-mask-1631925211715.svg&quot;,&quot;url&quot;:&quot;https://lct-designs.s3.us-west-1.amazonaws.com/assets/models/pole-mask-1631925211715.svg&quot;},&quot;pos&quot;:&quot;2&quot;,&quot;accessories&quot;:&quot;2,3&quot;}" style="background-color: white;"><g class="model" style="pointer-events: none;"><polygon fill="#FFFFFF" points="0.5,0.5 0.5,67.2 0.5,300.5 0.5,367.2 500.5,367.2 500.5,300.5 500.5,67.2 500.5,0.5 "></polygon></g><image width="760" height="556" xlink:href="https://lct-designs.s3.us-west-1.amazonaws.com/assets/libs/red-roosters-softball-banner-1644898063739.png" class="asset background locked" transform="matrix(0.6595323960558116,0,0,0.6595323960558116,0,0)"></image><text fill="#0d0d0d" font-family="Impact" font-size="45" x="192.06642438162737" y="201.88927563680983" stroke-opacity="1" stroke-width="1" stroke="#f7f7f7" transform="matrix(0.2780486047267914,0,0,0.2780486047267914,-40.241519927978516,30.6721248626709)" svgjs:data="{&quot;leading&quot;:&quot;1.3&quot;}"><tspan dy="0" x="192.06642438162737" svgjs:data="{&quot;newLined&quot;:true}">Coach: Coach's name</tspan></text><image width="760" height="540" xlink:href="https://lct-designs.s3.us-west-1.amazonaws.com/assets/libs/red-roosters-softball-banner-1644897998891.png" class="asset" transform="matrix(0.28209939599037165,0,0,0.2820993959903717,150.12316894531247,77.62512207031247)"></image><text fill="#af0d0d" font-family="Amity Jack" font-size="45" stroke-opacity="1" stroke-width="0" stroke="#050505" x="164.68127054565383" y="198.9363701339798" transform="matrix(0.24935148656368253,0,0,0.24935148656368258,305.75152587890625,97.88683319091797)" svgjs:data="{&quot;leading&quot;:&quot;1.3&quot;}"><tspan dy="0" x="164.68127054565383" svgjs:data="{&quot;newLined&quot;:true}">PLAYER</tspan></text><image width="760" height="587" xlink:href="https://lct-designs.s3.us-west-1.amazonaws.com/assets/libs/red-roosters-softball-banner-1644897952833.png" class="asset" transform="matrix(0.08227567374706267,0,0,0.08227567374706268,324.3842468261718,86.23277282714847)"></image><image width="760" height="587" xlink:href="https://lct-designs.s3.us-west-1.amazonaws.com/assets/libs/red-roosters-softball-banner-1644897952833.png" class="asset" transform="matrix(0.08227567374706267,0,0,0.08227567374706268,406.42858886718744,112.7111892700195)"></image><text fill="#af0d0d" font-family="Amity Jack" font-size="45" stroke-opacity="1" stroke-width="0" stroke="#050505" x="164.68127054565383" y="198.9363701339798" transform="matrix(0.24935148656368253,0,0,0.24935148656368258,387.1801147460937,123.1336975097656)" svgjs:data="{&quot;leading&quot;:&quot;1.3&quot;}"><tspan dy="0" x="164.68127054565383" svgjs:data="{&quot;newLined&quot;:true}">PLAYER</tspan></text><image width="760" height="587" xlink:href="https://lct-designs.s3.us-west-1.amazonaws.com/assets/libs/red-roosters-softball-banner-1644897952833.png" class="asset" transform="matrix(0.08227567374706267,0,0,0.08227567374706268,424.4335327148437,190.2990875244141)"></image><text fill="#af0d0d" font-family="Amity Jack" font-size="45" stroke-opacity="1" stroke-width="0" stroke="#050505" x="164.68127054565383" y="198.9363701339798" transform="matrix(0.24935148656368253,0,0,0.24935148656368258,405.80081176757807,201.95315551757815)" svgjs:data="{&quot;leading&quot;:&quot;1.3&quot;}"><tspan dy="0" x="164.68127054565383" svgjs:data="{&quot;newLined&quot;:true}">PLAYER</tspan></text><image width="760" height="587" xlink:href="https://lct-designs.s3.us-west-1.amazonaws.com/assets/libs/red-roosters-softball-banner-1644897952833.png" class="asset" transform="matrix(0.08227567374706267,0,0,0.08227567374706268,344.53204345703125,228.4772644042969)"></image><text fill="#af0d0d" font-family="Amity Jack" font-size="45" stroke-opacity="1" stroke-width="0" stroke="#050505" x="164.68127054565383" y="198.9363701339798" transform="matrix(0.24935148656368253,0,0,0.24935148656368258,325.28356933593744,239.51554870605477)" svgjs:data="{&quot;leading&quot;:&quot;1.3&quot;}"><tspan dy="0" x="164.68127054565383" svgjs:data="{&quot;newLined&quot;:true}">PLAYER</tspan></text><image width="760" height="587" xlink:href="https://lct-designs.s3.us-west-1.amazonaws.com/assets/libs/red-roosters-softball-banner-1644897952833.png" class="asset" transform="matrix(0.08227567374706267,0,0,0.08227567374706268,231.37930297851557,235.25080871582034)"></image><image width="760" height="587" xlink:href="https://lct-designs.s3.us-west-1.amazonaws.com/assets/libs/red-roosters-softball-banner-1644897952833.png" class="asset" transform="matrix(0.08227567374706267,0,0,0.08227567374706268,134.85220336914062,234.6350250244141)"></image><image width="760" height="587" xlink:href="https://lct-designs.s3.us-west-1.amazonaws.com/assets/libs/red-roosters-softball-banner-1644897952833.png" class="asset" transform="matrix(0.08227567374706267,0,0,0.08227567374706268,34.63051605224608,218.62483215332028)"></image><text fill="#af0d0d" font-family="Amity Jack" font-size="45" stroke-opacity="1" stroke-width="0" stroke="#050505" x="164.68127054565383" y="198.9363701339798" transform="matrix(0.24935148656368253,0,0,0.24935148656368258,13.53475189208984,229.66311645507815)" svgjs:data="{&quot;leading&quot;:&quot;1.3&quot;}"><tspan dy="0" x="164.68127054565383" svgjs:data="{&quot;newLined&quot;:true}">PLAYER</tspan></text><image width="760" height="587" xlink:href="https://lct-designs.s3.us-west-1.amazonaws.com/assets/libs/red-roosters-softball-banner-1644897952833.png" class="asset" transform="matrix(0.08227567374706267,0,0,0.08227567374706268,13.84233474731445,134.8791656494141)"></image><text fill="#af0d0d" font-family="Amity Jack" font-size="45" stroke-opacity="1" stroke-width="0" stroke="#050505" x="164.68127054565383" y="198.9363701339798" transform="matrix(0.24935148656368253,0,0,0.24935148656368258,-6.021902561187744,145.30168151855472)" svgjs:data="{&quot;leading&quot;:&quot;1.3&quot;}"><tspan dy="0" x="164.68127054565383" svgjs:data="{&quot;newLined&quot;:true}">PLAYER</tspan></text><image width="760" height="587" xlink:href="https://lct-designs.s3.us-west-1.amazonaws.com/assets/libs/red-roosters-softball-banner-1644897952833.png" class="asset" transform="matrix(0.08227567374706267,0,0,0.08227567374706268,105.12312316894531,94.85366821289062)"></image><text fill="#af0d0d" font-family="Amity Jack" font-size="45" stroke-opacity="1" stroke-width="0" stroke="#050505" x="164.68127054565383" y="198.9363701339798" transform="matrix(0.24935148656368253,0,0,0.24935148656368258,86.4904098510742,105.27617645263672)" svgjs:data="{&quot;leading&quot;:&quot;1.3&quot;}"><tspan dy="0" x="164.68127054565383" svgjs:data="{&quot;newLined&quot;:true}">PLAYER</tspan></text><text fill="#af0d0d" font-family="Amity Jack" font-size="45" stroke-opacity="1" stroke-width="0" stroke="#050505" x="164.68127054565383" y="198.9363701339798" transform="matrix(0.24935148656368253,0,0,0.24935148656368258,210.28353881835935,245.05754089355466)" svgjs:data="{&quot;leading&quot;:&quot;1.3&quot;}"><tspan dy="0" x="164.68127054565383" svgjs:data="{&quot;newLined&quot;:true}">PLAYER</tspan></text><text fill="#af0d0d" font-family="Amity Jack" font-size="45" stroke-opacity="1" stroke-width="0" stroke="#050505" x="164.68127054565383" y="198.9363701339798" transform="matrix(0.24935148656368253,0,0,0.24935148656368258,114.37220001220703,244.4417572021484)" svgjs:data="{&quot;leading&quot;:&quot;1.3&quot;}"><tspan dy="0" x="164.68127054565383" svgjs:data="{&quot;newLined&quot;:true}">PLAYER</tspan></text><g class="mask" style="pointer-events: none;"><g><path fill="#BCBEC0" d="M-3642.4-2101.7v4589.1h7813.4v-4589.1H-3642.4z M500.5,67.2v233.3v66.7H0.5v-66.7V67.2V0.5h500V67.2z" transform="matrix(1,0,0,1,0,0)"></path><g transform="matrix(1,0,0,1,0,0)">
	<rect x="0.5" y="300.5" opacity="0.95" fill="#F1F2F2" width="500" height="66.7"></rect>
	<rect x="0.5" y="0.5" opacity="0.95" fill="#F1F2F2" width="500" height="66.7"></rect>
</g></g></g></svg>