<svg xmlns="http://www.w3.org/2000/svg" version="1.1" xmlns:xlink="http://www.w3.org/1999/xlink" xmlns:svgjs="http://svgjs.dev/svgjs" width="100%" height="100%" viewBox="1 1 499 365.70001220703125" preserveAspectRatio="none" data-info="{&quot;_id&quot;:4,&quot;name&quot;:&quot;POLE POCKET SOCCER BANNERS&quot;,&quot;information&quot;:&quot;- Size: 3’x5’\n- Material: heavy duty vinyl banner\n- Digitally printed on vinyl&quot;,&quot;price&quot;:&quot;95.00&quot;,&quot;sale_price&quot;:&quot;89.99&quot;,&quot;type&quot;:&quot;pole-pocket&quot;,&quot;cover&quot;:{&quot;key&quot;:&quot;assets/models/pole-1628062864266-1631924568908.png&quot;,&quot;url&quot;:&quot;https://lct-designs.s3.us-west-1.amazonaws.com/assets/models/pole-1628062864266-1631924568908.png&quot;},&quot;back&quot;:{&quot;key&quot;:&quot;assets/models/pole-1631924700152.svg&quot;,&quot;url&quot;:&quot;https://lct-designs.s3.us-west-1.amazonaws.com/assets/models/pole-1631924700152.svg&quot;},&quot;mask&quot;:{&quot;key&quot;:&quot;assets/models/pole-mask-1631925211715.svg&quot;,&quot;url&quot;:&quot;https://lct-designs.s3.us-west-1.amazonaws.com/assets/models/pole-mask-1631925211715.svg&quot;},&quot;pos&quot;:&quot;2&quot;,&quot;accessories&quot;:&quot;2,3&quot;}" style="background-color: white;"><g class="model" style="pointer-events: none;"><polygon fill="#FFFFFF" points="0.5,0.5 0.5,67.2 0.5,300.5 0.5,367.2 500.5,367.2 500.5,300.5 500.5,67.2 500.5,0.5 "></polygon></g><image width="760" height="556" xlink:href="https://lct-designs.s3.us-west-1.amazonaws.com/assets/libs/astros-4-baseball-banner-1645065351484.png" class="asset background locked" transform="matrix(0.6595323960558116,0,0,0.6595323960558116,0,0)"></image><text fill="#0d0d0d" font-family="Impact" font-size="45" x="192.06642438162737" y="201.88927563680983" stroke-opacity="1" stroke-width="1" stroke="#f7f7f7" transform="matrix(0.3032583892345429,0,0,0.30325838923454285,282.3243713378906,226.77616882324222)" svgjs:data="{&quot;leading&quot;:&quot;1.3&quot;}"><tspan dy="0" x="192.06642438162737" svgjs:data="{&quot;newLined&quot;:true}">Coach: Coach's name</tspan></text><image width="760" height="263" xlink:href="https://lct-designs.s3.us-west-1.amazonaws.com/assets/libs/astros-3-baseball-banner-1644906765937.png" class="asset" transform="matrix(0.3799225389957428,0,0,0.3799225389957428,173.1974334716797,189.04705810546878)"></image><image width="760" height="721" xlink:href="https://lct-designs.s3.us-west-1.amazonaws.com/assets/libs/astros-4-baseball-banner-1645065369672.png" class="asset" transform="matrix(0.20844177030156888,0,0,0.20844177030156888,14.655174604837619,143.92090707855462)"></image><text fill="#b40808" font-family="Foo" font-size="45" stroke-opacity="1" stroke-width="0" stroke="#f7f7f7" x="164.68127054565383" y="198.9363701339798" transform="matrix(0.23776838183403018,0,0,0.23776838183403018,4.547608375549316,72.12252044677737)" svgjs:data="{&quot;leading&quot;:&quot;1.3&quot;}"><tspan dy="0" x="164.68127054565383" svgjs:data="{&quot;newLined&quot;:true}">PLAYER</tspan></text><image width="760" height="394" xlink:href="https://lct-designs.s3.us-west-1.amazonaws.com/assets/libs/astros-4-baseball-banner-1645065401729.png" class="asset" transform="matrix(0.06750226020812988,0,0,0.0675022602081299,31.280786514282234,79.84106445312503)"></image><image width="760" height="394" xlink:href="https://lct-designs.s3.us-west-1.amazonaws.com/assets/libs/astros-4-baseball-banner-1645065401729.png" class="asset" transform="matrix(0.06750226020812988,0,0,0.0675022602081299,118.25122833251953,80.45684051513675)"></image><text fill="#b40808" font-family="Foo" font-size="45" stroke-opacity="1" stroke-width="0" stroke="#f7f7f7" x="164.68127054565383" y="198.9363701339798" transform="matrix(0.23776838183403018,0,0,0.23776838183403018,91.51805114746095,72.73829650878906)" svgjs:data="{&quot;leading&quot;:&quot;1.3&quot;}"><tspan dy="0" x="164.68127054565383" svgjs:data="{&quot;newLined&quot;:true}">PLAYER</tspan></text><text fill="#b40808" font-family="Foo" font-size="45" stroke-opacity="1" stroke-width="0" stroke="#f7f7f7" x="164.68127054565383" y="198.9363701339798" transform="matrix(0.23776838183403018,0,0,0.23776838183403018,186.96141052246094,72.12252044677737)" svgjs:data="{&quot;leading&quot;:&quot;1.3&quot;}"><tspan dy="0" x="164.68127054565383" svgjs:data="{&quot;newLined&quot;:true}">PLAYER</tspan></text><image width="760" height="394" xlink:href="https://lct-designs.s3.us-west-1.amazonaws.com/assets/libs/astros-4-baseball-banner-1645065401729.png" class="asset" transform="matrix(0.06750226020812988,0,0,0.0675022602081299,213.69459533691406,79.84106445312503)"></image><image width="760" height="394" xlink:href="https://lct-designs.s3.us-west-1.amazonaws.com/assets/libs/astros-4-baseball-banner-1645065401729.png" class="asset" transform="matrix(0.06750226020812988,0,0,0.0675022602081299,300.66503906250006,80.45684051513675)"></image><text fill="#b40808" font-family="Foo" font-size="45" stroke-opacity="1" stroke-width="0" stroke="#f7f7f7" x="164.68127054565383" y="198.9363701339798" transform="matrix(0.23776838183403018,0,0,0.23776838183403018,273.9318542480469,72.73829650878906)" svgjs:data="{&quot;leading&quot;:&quot;1.3&quot;}"><tspan dy="0" x="164.68127054565383" svgjs:data="{&quot;newLined&quot;:true}">PLAYER</tspan></text><image width="760" height="394" xlink:href="https://lct-designs.s3.us-west-1.amazonaws.com/assets/libs/astros-4-baseball-banner-1645065401729.png" class="asset" transform="matrix(0.06750226020812988,0,0,0.0675022602081299,402.41378784179693,80.45684051513675)"></image><text fill="#b40808" font-family="Foo" font-size="45" stroke-opacity="1" stroke-width="0" stroke="#f7f7f7" x="164.68127054565383" y="198.9363701339798" transform="matrix(0.23776838183403018,0,0,0.23776838183403018,375.6806030273438,72.73829650878906)" svgjs:data="{&quot;leading&quot;:&quot;1.3&quot;}"><tspan dy="0" x="164.68127054565383" svgjs:data="{&quot;newLined&quot;:true}">PLAYER</tspan></text><image width="760" height="394" xlink:href="https://lct-designs.s3.us-west-1.amazonaws.com/assets/libs/astros-4-baseball-banner-1645065401729.png" class="asset" transform="matrix(0.06750226020812988,0,0,0.0675022602081299,76.52706909179689,130.95054626464844)"></image><text fill="#b40808" font-family="Foo" font-size="45" stroke-opacity="1" stroke-width="0" stroke="#f7f7f7" x="164.68127054565383" y="198.9363701339798" transform="matrix(0.23776838183403018,0,0,0.23776838183403018,49.79389953613281,123.23200225830078)" svgjs:data="{&quot;leading&quot;:&quot;1.3&quot;}"><tspan dy="0" x="164.68127054565383" svgjs:data="{&quot;newLined&quot;:true}">PLAYER</tspan></text><text fill="#b40808" font-family="Foo" font-size="45" stroke-opacity="1" stroke-width="0" stroke="#f7f7f7" x="164.68127054565383" y="198.9363701339798" transform="matrix(0.23776838183403018,0,0,0.23776838183403018,145.23725891113284,122.61622619628906)" svgjs:data="{&quot;leading&quot;:&quot;1.3&quot;}"><tspan dy="0" x="164.68127054565383" svgjs:data="{&quot;newLined&quot;:true}">PLAYER</tspan></text><image width="760" height="394" xlink:href="https://lct-designs.s3.us-west-1.amazonaws.com/assets/libs/astros-4-baseball-banner-1645065401729.png" class="asset" transform="matrix(0.06750226020812988,0,0,0.0675022602081299,171.97044372558594,130.33477020263672)"></image><image width="760" height="394" xlink:href="https://lct-designs.s3.us-west-1.amazonaws.com/assets/libs/astros-4-baseball-banner-1645065401729.png" class="asset" transform="matrix(0.06750226020812988,0,0,0.0675022602081299,258.9408874511719,130.95054626464844)"></image><text fill="#b40808" font-family="Foo" font-size="45" stroke-opacity="1" stroke-width="0" stroke="#f7f7f7" x="164.68127054565383" y="198.9363701339798" transform="matrix(0.23776838183403018,0,0,0.23776838183403018,232.20770263671875,123.23200225830078)" svgjs:data="{&quot;leading&quot;:&quot;1.3&quot;}"><tspan dy="0" x="164.68127054565383" svgjs:data="{&quot;newLined&quot;:true}">PLAYER</tspan></text><image width="760" height="394" xlink:href="https://lct-designs.s3.us-west-1.amazonaws.com/assets/libs/astros-4-baseball-banner-1645065401729.png" class="asset" transform="matrix(0.06750226020812988,0,0,0.0675022602081299,348.37435913085943,130.95054626464844)"></image><text fill="#b40808" font-family="Foo" font-size="45" stroke-opacity="1" stroke-width="0" stroke="#f7f7f7" x="164.68127054565383" y="198.9363701339798" transform="matrix(0.23776838183403018,0,0,0.23776838183403018,321.6411743164063,123.23200225830078)" svgjs:data="{&quot;leading&quot;:&quot;1.3&quot;}"><tspan dy="0" x="164.68127054565383" svgjs:data="{&quot;newLined&quot;:true}">PLAYER</tspan></text><image width="760" height="394" xlink:href="https://lct-designs.s3.us-west-1.amazonaws.com/assets/libs/astros-4-baseball-banner-1645065401729.png" class="asset" transform="matrix(0.06750226020812988,0,0,0.0675022602081299,438.4236145019531,129.71899414062503)"></image><text fill="#b40808" font-family="Foo" font-size="45" stroke-opacity="1" stroke-width="0" stroke="#f7f7f7" x="164.68127054565383" y="198.9363701339798" transform="matrix(0.23776838183403018,0,0,0.23776838183403018,411.69042968750006,122.00045013427734)" svgjs:data="{&quot;leading&quot;:&quot;1.3&quot;}"><tspan dy="0" x="164.68127054565383" svgjs:data="{&quot;newLined&quot;:true}">PLAYER</tspan></text><g class="mask" style="pointer-events: none;"><g><path fill="#BCBEC0" d="M-3642.4-2101.7v4589.1h7813.4v-4589.1H-3642.4z M500.5,67.2v233.3v66.7H0.5v-66.7V67.2V0.5h500V67.2z" transform="matrix(1,0,0,1,0,0)"></path><g transform="matrix(1,0,0,1,0,0)">
	<rect x="0.5" y="300.5" opacity="0.95" fill="#F1F2F2" width="500" height="66.7"></rect>
	<rect x="0.5" y="0.5" opacity="0.95" fill="#F1F2F2" width="500" height="66.7"></rect>
</g></g></g></svg>