<svg xmlns="http://www.w3.org/2000/svg" version="1.1" xmlns:xlink="http://www.w3.org/1999/xlink" xmlns:svgjs="http://svgjs.dev/svgjs" width="100%" height="100%" viewBox="1 1 499 365.70001220703125" preserveAspectRatio="none" data-info="{&quot;_id&quot;:4,&quot;name&quot;:&quot;POLE POCKET SOCCER BANNERS&quot;,&quot;information&quot;:&quot;- Size: 3’x5’\n- Material: heavy duty vinyl banner\n- Digitally printed on vinyl&quot;,&quot;price&quot;:&quot;95.00&quot;,&quot;sale_price&quot;:&quot;89.99&quot;,&quot;type&quot;:&quot;pole-pocket&quot;,&quot;cover&quot;:{&quot;key&quot;:&quot;assets/models/pole-1628062864266-1631924568908.png&quot;,&quot;url&quot;:&quot;https://lct-designs.s3.us-west-1.amazonaws.com/assets/models/pole-1628062864266-1631924568908.png&quot;},&quot;back&quot;:{&quot;key&quot;:&quot;assets/models/pole-1631924700152.svg&quot;,&quot;url&quot;:&quot;https://lct-designs.s3.us-west-1.amazonaws.com/assets/models/pole-1631924700152.svg&quot;},&quot;mask&quot;:{&quot;key&quot;:&quot;assets/models/pole-mask-1631925211715.svg&quot;,&quot;url&quot;:&quot;https://lct-designs.s3.us-west-1.amazonaws.com/assets/models/pole-mask-1631925211715.svg&quot;},&quot;pos&quot;:&quot;2&quot;,&quot;accessories&quot;:&quot;2,3&quot;}" style="background-color: white;"><g class="model" style="pointer-events: none;"><polygon fill="#FFFFFF" points="0.5,0.5 0.5,67.2 0.5,300.5 0.5,367.2 500.5,367.2 500.5,300.5 500.5,67.2 500.5,0.5 "></polygon></g><image width="760" height="556" xlink:href="https://lct-designs.s3.us-west-1.amazonaws.com/assets/libs/littetiger-softball-banner-1640684505238.png" class="asset background locked" transform="matrix(0.6595323960558116,0,0,0.6595323960558116,0,0)"></image><text fill="#000000" font-family="Futura Hv BT" font-size="15" x="199.7930558764512" y="189.20527009662842" transform="matrix(0.6971310377120972,0,0,0.6971310377120972,-126.52531433105466,-29.864116668701158)" svgjs:data="{&quot;leading&quot;:&quot;1.3&quot;}"><tspan dy="0" x="199.7930558764512" svgjs:data="{&quot;newLined&quot;:true}">COACH: COACH'S NAME</tspan></text><text fill="#000000" font-family="Futura Hv BT" font-size="15" x="180.41333328123636" y="189.20527009662842" transform="matrix(0.6971309781074523,0,0,0.6971309781074524,-112.8327407836914,-44.48743438720702)" svgjs:data="{&quot;leading&quot;:&quot;1.3&quot;}"><tspan dy="0" x="180.41333328123636" svgjs:data="{&quot;newLined&quot;:true}">TEAM MOM: TEAM MOM'S NAME</tspan></text><text fill="#000000" font-family="Impact" font-size="15" x="180.41333328123636" y="189.20527009662842" transform="matrix(0.8183106780052185,0,0,0.8183106780052185,55.598976135253906,-61.05780029296875)" svgjs:data="{&quot;leading&quot;:&quot;1.3&quot;}"><tspan dy="0" x="180.41333328123636" svgjs:data="{&quot;newLined&quot;:true}">PLAYER</tspan></text><image width="699" height="760" xlink:href="https://lct-designs.s3.us-west-1.amazonaws.com/assets/libs/littetiger-softball-banner-1640683677757.png" class="asset" transform="matrix(0.04129450395703316,0,0,0.04129450395703316,204.0131683349609,97.91661071777342)"></image><text fill="#000000" font-family="Impact" font-size="15" x="180.41333328123636" y="189.20527009662842" transform="matrix(0.8183106780052185,0,0,0.8183106780052185,121.84130096435547,-61.62023162841797)" svgjs:data="{&quot;leading&quot;:&quot;1.3&quot;}"><tspan dy="0" x="180.41333328123636" svgjs:data="{&quot;newLined&quot;:true}">PLAYER</tspan></text><image width="699" height="760" xlink:href="https://lct-designs.s3.us-west-1.amazonaws.com/assets/libs/littetiger-softball-banner-1640683677757.png" class="asset" transform="matrix(0.04129450395703316,0,0,0.04129450395703316,270.25549316406244,97.3541793823242)"></image><image width="760" height="666" xlink:href="https://lct-designs.s3.us-west-1.amazonaws.com/assets/libs/littetiger-softball-banner-1640683948795.png" class="asset" transform="matrix(0.2143384218215942,0,0,0.21433842182159424,322.7276916503906,80.47853851318358)"></image><image width="587" height="760" xlink:href="https://lct-designs.s3.us-west-1.amazonaws.com/assets/libs/asset-1-1644377231182.png" class="asset" transform="matrix(0.21298293769359586,0,0,0.2129829376935959,16.783105850219727,128.288101196289)"></image><text fill="#000000" font-family="Impact" font-size="15" x="180.41333328123636" y="189.20527009662842" transform="matrix(0.8183106780052185,0,0,0.8183106780052185,-8.078483581542969,-3.6894302368164134)" svgjs:data="{&quot;leading&quot;:&quot;1.3&quot;}"><tspan dy="0" x="180.41333328123636" svgjs:data="{&quot;newLined&quot;:true}">PLAYER</tspan></text><image width="699" height="760" xlink:href="https://lct-designs.s3.us-west-1.amazonaws.com/assets/libs/littetiger-softball-banner-1640683677757.png" class="asset" transform="matrix(0.04129450395703316,0,0,0.04129450395703316,140.33570861816406,155.28498077392578)"></image><text fill="#000000" font-family="Impact" font-size="15" x="180.41333328123636" y="189.20527009662842" transform="matrix(0.8183106780052185,0,0,0.8183106780052185,58.16384887695311,-4.251861572265632)" svgjs:data="{&quot;leading&quot;:&quot;1.3&quot;}"><tspan dy="0" x="180.41333328123636" svgjs:data="{&quot;newLined&quot;:true}">PLAYER</tspan></text><image width="699" height="760" xlink:href="https://lct-designs.s3.us-west-1.amazonaws.com/assets/libs/littetiger-softball-banner-1640683677757.png" class="asset" transform="matrix(0.04129450395703316,0,0,0.04129450395703316,206.57803344726562,154.72254943847656)"></image><text fill="#000000" font-family="Impact" font-size="15" x="180.41333328123636" y="189.20527009662842" transform="matrix(0.8183106780052185,0,0,0.8183106780052185,129.46798706054685,-4.251861572265632)" svgjs:data="{&quot;leading&quot;:&quot;1.3&quot;}"><tspan dy="0" x="180.41333328123636" svgjs:data="{&quot;newLined&quot;:true}">PLAYER</tspan></text><image width="699" height="760" xlink:href="https://lct-designs.s3.us-west-1.amazonaws.com/assets/libs/littetiger-softball-banner-1640683677757.png" class="asset" transform="matrix(0.04129450395703316,0,0,0.04129450395703316,277.8821716308594,154.72254943847656)"></image><text fill="#000000" font-family="Impact" font-size="15" x="180.41333328123636" y="189.20527009662842" transform="matrix(0.8183106780052185,0,0,0.8183106780052185,25.982101440429688,54.80381774902342)" svgjs:data="{&quot;leading&quot;:&quot;1.3&quot;}"><tspan dy="0" x="180.41333328123636" svgjs:data="{&quot;newLined&quot;:true}">PLAYER</tspan></text><image width="699" height="760" xlink:href="https://lct-designs.s3.us-west-1.amazonaws.com/assets/libs/littetiger-softball-banner-1640683677757.png" class="asset" transform="matrix(0.04129450395703316,0,0,0.04129450395703316,174.3962860107422,213.77822875976562)"></image><text fill="#000000" font-family="Impact" font-size="15" x="180.41333328123636" y="189.20527009662842" transform="matrix(0.8183106780052185,0,0,0.8183106780052185,97.28623962402344,54.80381774902342)" svgjs:data="{&quot;leading&quot;:&quot;1.3&quot;}"><tspan dy="0" x="180.41333328123636" svgjs:data="{&quot;newLined&quot;:true}">PLAYER</tspan></text><image width="699" height="760" xlink:href="https://lct-designs.s3.us-west-1.amazonaws.com/assets/libs/littetiger-softball-banner-1640683677757.png" class="asset" transform="matrix(0.04129450395703316,0,0,0.04129450395703316,245.70042419433594,213.77822875976562)"></image><text fill="#000000" font-family="Impact" font-size="15" x="180.41333328123636" y="189.20527009662842" transform="matrix(0.8183106780052185,0,0,0.8183106780052185,63.54081726074217,105.42297363281249)" svgjs:data="{&quot;leading&quot;:&quot;1.3&quot;}"><tspan dy="0" x="180.41333328123636" svgjs:data="{&quot;newLined&quot;:true}">PLAYER</tspan></text><image width="699" height="760" xlink:href="https://lct-designs.s3.us-west-1.amazonaws.com/assets/libs/littetiger-softball-banner-1640683677757.png" class="asset" transform="matrix(0.04129450395703316,0,0,0.04129450395703316,211.9550018310547,264.3973693847656)"></image><text fill="#000000" font-family="Impact" font-size="15" x="180.41333328123636" y="189.20527009662842" transform="matrix(0.8183106780052185,0,0,0.8183106780052185,134.8449554443359,105.42297363281249)" svgjs:data="{&quot;leading&quot;:&quot;1.3&quot;}"><tspan dy="0" x="180.41333328123636" svgjs:data="{&quot;newLined&quot;:true}">PLAYER</tspan></text><image width="699" height="760" xlink:href="https://lct-designs.s3.us-west-1.amazonaws.com/assets/libs/littetiger-softball-banner-1640683677757.png" class="asset" transform="matrix(0.04129450395703316,0,0,0.04129450395703316,283.2591247558593,264.3973693847656)"></image><text fill="#000000" font-family="Impact" font-size="15" x="180.41333328123636" y="189.20527009662842" transform="matrix(0.8183106780052185,0,0,0.8183106780052185,213.58421325683594,90.23724365234374)" svgjs:data="{&quot;leading&quot;:&quot;1.3&quot;}"><tspan dy="0" x="180.41333328123636" svgjs:data="{&quot;newLined&quot;:true}">PLAYER</tspan></text><image width="699" height="760" xlink:href="https://lct-designs.s3.us-west-1.amazonaws.com/assets/libs/littetiger-softball-banner-1640683677757.png" class="asset" transform="matrix(0.04129450395703316,0,0,0.04129450395703316,361.99839782714844,249.21163940429688)"></image><text fill="#000000" font-family="Impact" font-size="15" x="180.41333328123636" y="189.20527009662842" transform="matrix(0.8183106780052185,0,0,0.8183106780052185,284.8883514404297,90.23724365234374)" svgjs:data="{&quot;leading&quot;:&quot;1.3&quot;}"><tspan dy="0" x="180.41333328123636" svgjs:data="{&quot;newLined&quot;:true}">PLAYER</tspan></text><image width="699" height="760" xlink:href="https://lct-designs.s3.us-west-1.amazonaws.com/assets/libs/littetiger-softball-banner-1640683677757.png" class="asset" transform="matrix(0.04129450395703316,0,0,0.04129450395703316,433.30252075195307,249.21163940429688)"></image><g class="mask" style="pointer-events: none;"><g><path fill="#BCBEC0" d="M-3642.4-2101.7v4589.1h7813.4v-4589.1H-3642.4z M500.5,67.2v233.3v66.7H0.5v-66.7V67.2V0.5h500V67.2z" transform="matrix(1,0,0,1,0,0)"></path><g transform="matrix(1,0,0,1,0,0)">
	<rect x="0.5" y="300.5" opacity="0.95" fill="#F1F2F2" width="500" height="66.7"></rect>
	<rect x="0.5" y="0.5" opacity="0.95" fill="#F1F2F2" width="500" height="66.7"></rect>
</g></g></g></svg>