<svg xmlns="http://www.w3.org/2000/svg" version="1.1" xmlns:xlink="http://www.w3.org/1999/xlink" xmlns:svgjs="http://svgjs.dev/svgjs" width="100%" height="100%" viewBox="1 1 499 365.70001220703125" preserveAspectRatio="none" data-info="{&quot;_id&quot;:4,&quot;name&quot;:&quot;POLE POCKET SOCCER BANNERS&quot;,&quot;information&quot;:&quot;- Size: 3’x5’\n- Material: heavy duty vinyl banner\n- Digitally printed on vinyl&quot;,&quot;price&quot;:&quot;95.00&quot;,&quot;sale_price&quot;:&quot;89.99&quot;,&quot;type&quot;:&quot;pole-pocket&quot;,&quot;cover&quot;:{&quot;key&quot;:&quot;assets/models/pole-1628062864266-1631924568908.png&quot;,&quot;url&quot;:&quot;https://lct-designs.s3.us-west-1.amazonaws.com/assets/models/pole-1628062864266-1631924568908.png&quot;},&quot;back&quot;:{&quot;key&quot;:&quot;assets/models/pole-1631924700152.svg&quot;,&quot;url&quot;:&quot;https://lct-designs.s3.us-west-1.amazonaws.com/assets/models/pole-1631924700152.svg&quot;},&quot;mask&quot;:{&quot;key&quot;:&quot;assets/models/pole-mask-1631925211715.svg&quot;,&quot;url&quot;:&quot;https://lct-designs.s3.us-west-1.amazonaws.com/assets/models/pole-mask-1631925211715.svg&quot;},&quot;pos&quot;:&quot;2&quot;,&quot;accessories&quot;:&quot;2,3&quot;}" style="background-color: white;"><g class="model" style="pointer-events: none;"><polygon fill="#FFFFFF" points="0.5,0.5 0.5,67.2 0.5,300.5 0.5,367.2 500.5,367.2 500.5,300.5 500.5,67.2 500.5,0.5 "></polygon></g><image width="760" height="553" xlink:href="https://lct-designs.s3.us-west-1.amazonaws.com/assets/libs/dodgers-2-baseball-banner-1644812315945.png" class="asset background locked" transform="matrix(0.6631103294883024,0,0,0.6631103294883024,0,0)"></image><text fill="#ffffff" font-family="Antilles" font-size="33" stroke-opacity="1" stroke-width="1" stroke="#000000" x="192.64244534681094" y="188.8290392676606" transform="matrix(0.5157687664031982,0,0,0.5157687664031982,-87.53413391113281,-11.366254806518555)" svgjs:data="{&quot;leading&quot;:&quot;1.3&quot;}"><tspan dy="0" x="192.64244534681094" svgjs:data="{&quot;newLined&quot;:true}">       COACH: COACH'S NAME</tspan><tspan dy="42.9" x="192.64244534681094" svgjs:data="{&quot;newLined&quot;:true}"></tspan></text><text fill="#ffffff" font-family="Antilles" font-size="33" stroke-opacity="1" stroke-width="1" stroke="#000000" x="192.64244534681094" y="188.8290392676606" transform="matrix(0.5157687664031982,0,0,0.5157687664031982,204.43649291992188,-12.41448116302491)" svgjs:data="{&quot;leading&quot;:&quot;1.3&quot;}"><tspan dy="0" x="192.64244534681094" svgjs:data="{&quot;newLined&quot;:true}">TEAM MOM: TEAM MOM'S NAME</tspan></text><text fill="#ffffff" font-family="Antilles" font-size="40" x="231.64330556104434" y="188.82903717637487" stroke-opacity="1" stroke-width="1" stroke="#000000" transform="matrix(0.4157278835773468,0,0,0.41572788357734675,348.9492492675781,24.38521003723143)" svgjs:data="{&quot;leading&quot;:&quot;1.3&quot;}"><tspan dy="0" x="231.64330556104434" svgjs:data="{&quot;newLined&quot;:true}">player</tspan></text><image width="760" height="410" xlink:href="https://lct-designs.s3.us-west-1.amazonaws.com/assets/libs/dodgers-baseball-banner-1644287527560.png" class="asset" transform="matrix(0.06510824710130692,0,0,0.06510824710130692,448.4277038574219,104.4895324707031)"></image><image width="760" height="666" xlink:href="https://lct-designs.s3.us-west-1.amazonaws.com/assets/libs/dodgers-2-baseball-banner-1644287463527.png" class="asset" transform="matrix(0.19059932231903073,0,0,0.19059932231903073,353.0398254394531,167.83610534667966)"></image><image width="638" height="760" xlink:href="https://lct-designs.s3.us-west-1.amazonaws.com/assets/libs/dodgers-baseball-banner-1644287503090.png" class="asset" transform="matrix(0.2239864468574524,0,0,0.22398644685745236,186.537841796875,98.23468780517578)"></image><text fill="#ffffff" font-family="Antilles" font-size="40" x="231.64330556104434" y="188.82903717637487" stroke-opacity="1" stroke-width="1" stroke="#000000" transform="matrix(0.4157278835773468,0,0,0.41572788357734675,281.38110351562494,23.86110126972197)" svgjs:data="{&quot;leading&quot;:&quot;1.3&quot;}"><tspan dy="0" x="231.64330556104434" svgjs:data="{&quot;newLined&quot;:true}">player</tspan></text><image width="760" height="410" xlink:href="https://lct-designs.s3.us-west-1.amazonaws.com/assets/libs/dodgers-baseball-banner-1644287527560.png" class="asset" transform="matrix(0.0651082694530487,0,0,0.0651082694530487,380.8595581054687,103.96542370319366)"></image><text fill="#ffffff" font-family="Antilles" font-size="40" x="231.64330556104434" y="188.82903717637487" stroke-opacity="1" stroke-width="1" stroke="#000000" transform="matrix(0.4157278835773468,0,0,0.41572788357734675,206.47546386718747,23.33699238300322)" svgjs:data="{&quot;leading&quot;:&quot;1.3&quot;}"><tspan dy="0" x="231.64330556104434" svgjs:data="{&quot;newLined&quot;:true}">player</tspan></text><image width="760" height="410" xlink:href="https://lct-designs.s3.us-west-1.amazonaws.com/assets/libs/dodgers-baseball-banner-1644287527560.png" class="asset" transform="matrix(0.0651082843542099,0,0,0.06510828435420989,305.95391845703125,103.44131481647489)"></image><text fill="#ffffff" font-family="Antilles" font-size="40" x="231.64330556104434" y="188.82903717637487" stroke-opacity="1" stroke-width="1" stroke="#000000" transform="matrix(0.4157278835773468,0,0,0.41572788357734675,239.5362548828125,68.93448066711423)" svgjs:data="{&quot;leading&quot;:&quot;1.3&quot;}"><tspan dy="0" x="231.64330556104434" svgjs:data="{&quot;newLined&quot;:true}">player</tspan></text><image width="760" height="410" xlink:href="https://lct-designs.s3.us-west-1.amazonaws.com/assets/libs/dodgers-baseball-banner-1644287527560.png" class="asset" transform="matrix(0.06510830670595169,0,0,0.06510830670595169,339.01470947265625,149.0388031005859)"></image><text fill="#ffffff" font-family="Antilles" font-size="40" x="231.64330556104434" y="188.82903717637487" stroke-opacity="1" stroke-width="1" stroke="#000000" transform="matrix(0.4157278835773468,0,0,0.41572788357734675,341.7794494628906,78.36843872070312)" svgjs:data="{&quot;leading&quot;:&quot;1.3&quot;}"><tspan dy="0" x="231.64330556104434" svgjs:data="{&quot;newLined&quot;:true}">player</tspan></text><image width="760" height="410" xlink:href="https://lct-designs.s3.us-west-1.amazonaws.com/assets/libs/dodgers-baseball-banner-1644287527560.png" class="asset" transform="matrix(0.06510832160711288,0,0,0.06510832160711288,441.2579040527344,158.4727630615234)"></image><text fill="#ffffff" font-family="Antilles" font-size="40" x="231.64330556104434" y="188.82903717637487" stroke-opacity="1" stroke-width="1" stroke="#000000" transform="matrix(0.4157278835773468,0,0,0.41572788357734675,-80.61050415039062,33.295066833496094)" svgjs:data="{&quot;leading&quot;:&quot;1.3&quot;}"><tspan dy="0" x="231.64330556104434" svgjs:data="{&quot;newLined&quot;:true}">player</tspan></text><image width="760" height="410" xlink:href="https://lct-designs.s3.us-west-1.amazonaws.com/assets/libs/dodgers-baseball-banner-1644287527560.png" class="asset" transform="matrix(0.06510833650827408,0,0,0.06510833650827406,18.867950439453125,113.39939117431638)"></image><text fill="#ffffff" font-family="Antilles" font-size="40" x="231.64330556104434" y="188.82903717637487" stroke-opacity="1" stroke-width="1" stroke="#000000" transform="matrix(0.4157278835773468,0,0,0.41572788357734675,-4.0486602783203125,32.24684906005858)" svgjs:data="{&quot;leading&quot;:&quot;1.3&quot;}"><tspan dy="0" x="231.64330556104434" svgjs:data="{&quot;newLined&quot;:true}">player</tspan></text><image width="760" height="410" xlink:href="https://lct-designs.s3.us-west-1.amazonaws.com/assets/libs/dodgers-baseball-banner-1644287527560.png" class="asset" transform="matrix(0.06510834395885468,0,0,0.06510834395885466,95.42979431152344,112.3511734008789)"></image><text fill="#ffffff" font-family="Antilles" font-size="40" x="231.64330556104434" y="188.82903717637487" stroke-opacity="1" stroke-width="1" stroke="#000000" transform="matrix(0.4157278835773468,0,0,0.41572788357734675,36.87376403808594,77.84432983398435)" svgjs:data="{&quot;leading&quot;:&quot;1.3&quot;}"><tspan dy="0" x="231.64330556104434" svgjs:data="{&quot;newLined&quot;:true}">player</tspan></text><image width="760" height="410" xlink:href="https://lct-designs.s3.us-west-1.amazonaws.com/assets/libs/dodgers-baseball-banner-1644287527560.png" class="asset" transform="matrix(0.06510834395885468,0,0,0.06510834395885466,136.3522186279297,157.9486541748047)"></image><text fill="#ffffff" font-family="Antilles" font-size="40" x="231.64330556104434" y="188.82903717637487" stroke-opacity="1" stroke-width="1" stroke="#000000" transform="matrix(0.4157278835773468,0,0,0.41572788357734675,-53.755157470703125,76.79611206054688)" svgjs:data="{&quot;leading&quot;:&quot;1.3&quot;}"><tspan dy="0" x="231.64330556104434" svgjs:data="{&quot;newLined&quot;:true}">player</tspan></text><image width="760" height="410" xlink:href="https://lct-designs.s3.us-west-1.amazonaws.com/assets/libs/dodgers-baseball-banner-1644287527560.png" class="asset" transform="matrix(0.06510834395885468,0,0,0.06510834395885466,45.723297119140625,156.90043640136716)"></image><text fill="#ffffff" font-family="Antilles" font-size="40" x="231.64330556104434" y="188.82903717637487" stroke-opacity="1" stroke-width="1" stroke="#000000" transform="matrix(0.4157278835773468,0,0,0.41572788357734675,-84.11155319213867,131.30345153808594)" svgjs:data="{&quot;leading&quot;:&quot;1.3&quot;}"><tspan dy="0" x="231.64330556104434" svgjs:data="{&quot;newLined&quot;:true}">player</tspan></text><image width="760" height="410" xlink:href="https://lct-designs.s3.us-west-1.amazonaws.com/assets/libs/dodgers-baseball-banner-1644287527560.png" class="asset" transform="matrix(0.06510834395885468,0,0,0.06510834395885466,15.366901397705085,211.40777587890625)"></image><text fill="#ffffff" font-family="Antilles" font-size="40" x="231.64330556104434" y="188.82903717637487" stroke-opacity="1" stroke-width="1" stroke="#000000" transform="matrix(0.4157278835773468,0,0,0.41572788357734675,-3.356842041015625,126.58647155761716)" svgjs:data="{&quot;leading&quot;:&quot;1.3&quot;}"><tspan dy="0" x="231.64330556104434" svgjs:data="{&quot;newLined&quot;:true}">player</tspan></text><image width="760" height="410" xlink:href="https://lct-designs.s3.us-west-1.amazonaws.com/assets/libs/dodgers-baseball-banner-1644287527560.png" class="asset" transform="matrix(0.06510834395885468,0,0,0.06510834395885466,96.12161636352539,206.6907958984375)"></image><text fill="#ffffff" font-family="Antilles" font-size="40" x="231.64330556104434" y="188.82903717637487" stroke-opacity="1" stroke-width="1" stroke="#000000" transform="matrix(0.4157278835773468,0,0,0.41572788357734675,-51.53294372558594,177.94917297363278)" svgjs:data="{&quot;leading&quot;:&quot;1.3&quot;}"><tspan dy="0" x="231.64330556104434" svgjs:data="{&quot;newLined&quot;:true}">player</tspan></text><image width="760" height="410" xlink:href="https://lct-designs.s3.us-west-1.amazonaws.com/assets/libs/dodgers-baseball-banner-1644287527560.png" class="asset" transform="matrix(0.06510834395885468,0,0,0.06510834395885466,47.94551086425781,258.05349731445307)"></image><text fill="#ffffff" font-family="Antilles" font-size="40" x="231.64330556104434" y="188.82903717637487" stroke-opacity="1" stroke-width="1" stroke="#000000" transform="matrix(0.4157278835773468,0,0,0.41572788357734675,34.462860107421875,176.90095520019528)" svgjs:data="{&quot;leading&quot;:&quot;1.3&quot;}"><tspan dy="0" x="231.64330556104434" svgjs:data="{&quot;newLined&quot;:true}">player</tspan></text><image width="760" height="410" xlink:href="https://lct-designs.s3.us-west-1.amazonaws.com/assets/libs/dodgers-baseball-banner-1644287527560.png" class="asset" transform="matrix(0.06510834395885468,0,0,0.06510834395885466,133.94131469726562,257.0052795410156)"></image><g class="mask" style="pointer-events: none;"><g><path fill="#BCBEC0" d="M-3642.4-2101.7v4589.1h7813.4v-4589.1H-3642.4z M500.5,67.2v233.3v66.7H0.5v-66.7V67.2V0.5h500V67.2z" transform="matrix(1,0,0,1,0,0)"></path><g transform="matrix(1,0,0,1,0,0)">
	<rect x="0.5" y="300.5" opacity="0.95" fill="#F1F2F2" width="500" height="66.7"></rect>
	<rect x="0.5" y="0.5" opacity="0.95" fill="#F1F2F2" width="500" height="66.7"></rect>
</g></g></g></svg>