<svg xmlns="http://www.w3.org/2000/svg" version="1.1" xmlns:xlink="http://www.w3.org/1999/xlink" xmlns:svgjs="http://svgjs.dev/svgjs" width="100%" height="100%" viewBox="1 1 499 365.70001220703125" preserveAspectRatio="none" data-info="{&quot;_id&quot;:4,&quot;name&quot;:&quot;POLE POCKET SOCCER BANNERS&quot;,&quot;information&quot;:&quot;- Size: 3’x5’\n- Material: heavy duty vinyl banner\n- Digitally printed on vinyl&quot;,&quot;price&quot;:&quot;95.00&quot;,&quot;sale_price&quot;:&quot;89.99&quot;,&quot;type&quot;:&quot;pole-pocket&quot;,&quot;cover&quot;:{&quot;key&quot;:&quot;assets/models/pole-1628062864266-1631924568908.png&quot;,&quot;url&quot;:&quot;https://lct-designs.s3.us-west-1.amazonaws.com/assets/models/pole-1628062864266-1631924568908.png&quot;},&quot;back&quot;:{&quot;key&quot;:&quot;assets/models/pole-1631924700152.svg&quot;,&quot;url&quot;:&quot;https://lct-designs.s3.us-west-1.amazonaws.com/assets/models/pole-1631924700152.svg&quot;},&quot;mask&quot;:{&quot;key&quot;:&quot;assets/models/pole-mask-1631925211715.svg&quot;,&quot;url&quot;:&quot;https://lct-designs.s3.us-west-1.amazonaws.com/assets/models/pole-mask-1631925211715.svg&quot;},&quot;pos&quot;:&quot;2&quot;,&quot;accessories&quot;:&quot;2,3&quot;}" style="background-color: white;"><g class="model" style="pointer-events: none;"><polygon fill="#FFFFFF" points="0.5,0.5 0.5,67.2 0.5,300.5 0.5,367.2 500.5,367.2 500.5,300.5 500.5,67.2 500.5,0.5 "></polygon></g><image width="760" height="556" xlink:href="https://lct-designs.s3.us-west-1.amazonaws.com/assets/libs/gorillas-softball-banner-1644898063737.png" class="asset background locked" transform="matrix(0.6595323960558116,0,0,0.6595323960558116,0,0)"></image><text fill="#0d0d0d" font-family="Impact" font-size="45" x="192.06642438162737" y="201.88927563680983" stroke-opacity="1" stroke-width="1" stroke="#f7f7f7" transform="matrix(0.2631621360778808,0,0,0.2631621360778809,79.60650634765625,234.18804931640628)" svgjs:data="{&quot;leading&quot;:&quot;1.3&quot;}"><tspan dy="0" x="192.06642438162737" svgjs:data="{&quot;newLined&quot;:true}">Coach: Coach's name</tspan></text><text fill="#212121" font-family="Amity Jack" font-size="45" stroke-opacity="1" stroke-width="1" stroke="#f2eded" x="164.68127054565383" y="198.9363701339798" transform="matrix(0.2549983859062194,0,0,0.2549983859062195,246.9655151367187,91.24356842041018)" svgjs:data="{&quot;leading&quot;:&quot;1.3&quot;}"><tspan dy="0" x="164.68127054565383" svgjs:data="{&quot;newLined&quot;:true}">PLAYER</tspan></text><image width="760" height="730" xlink:href="https://lct-designs.s3.us-west-1.amazonaws.com/assets/libs/gorillas-softball-banner-1644897952831.png" class="asset" transform="matrix(0.053850151598453515,0,0,0.05385015159845353,288.05419921875,89.75620269775393)"></image><text fill="#212121" font-family="Amity Jack" font-size="45" stroke-opacity="1" stroke-width="1" stroke="#f2eded" x="164.68127054565383" y="198.9363701339798" transform="matrix(0.2549983859062194,0,0,0.2549983859062195,320.38916015624994,90.62779235839847)" svgjs:data="{&quot;leading&quot;:&quot;1.3&quot;}"><tspan dy="0" x="164.68127054565383" svgjs:data="{&quot;newLined&quot;:true}">PLAYER</tspan></text><image width="760" height="730" xlink:href="https://lct-designs.s3.us-west-1.amazonaws.com/assets/libs/gorillas-softball-banner-1644897952831.png" class="asset" transform="matrix(0.053850151598453515,0,0,0.05385015159845353,361.4778442382812,89.14042663574219)"></image><text fill="#212121" font-family="Amity Jack" font-size="45" stroke-opacity="1" stroke-width="1" stroke="#f2eded" x="164.68127054565383" y="198.9363701339798" transform="matrix(0.2549983859062194,0,0,0.2549983859062195,390.73400878906244,91.24356842041018)" svgjs:data="{&quot;leading&quot;:&quot;1.3&quot;}"><tspan dy="0" x="164.68127054565383" svgjs:data="{&quot;newLined&quot;:true}">PLAYER</tspan></text><image width="760" height="730" xlink:href="https://lct-designs.s3.us-west-1.amazonaws.com/assets/libs/gorillas-softball-banner-1644897952831.png" class="asset" transform="matrix(0.053850151598453515,0,0,0.05385015159845353,431.8226928710937,89.75620269775393)"></image><text fill="#212121" font-family="Amity Jack" font-size="45" stroke-opacity="1" stroke-width="1" stroke="#f2eded" x="164.68127054565383" y="198.9363701339798" transform="matrix(0.2549983859062194,0,0,0.2549983859062195,391.49755859374994,157.74746704101565)" svgjs:data="{&quot;leading&quot;:&quot;1.3&quot;}"><tspan dy="0" x="164.68127054565383" svgjs:data="{&quot;newLined&quot;:true}">PLAYER</tspan></text><image width="760" height="730" xlink:href="https://lct-designs.s3.us-west-1.amazonaws.com/assets/libs/gorillas-softball-banner-1644897952831.png" class="asset" transform="matrix(0.053850151598453515,0,0,0.05385015159845353,432.5862426757812,156.2601013183594)"></image><text fill="#212121" font-family="Amity Jack" font-size="45" stroke-opacity="1" stroke-width="1" stroke="#f2eded" x="164.68127054565383" y="198.9363701339798" transform="matrix(0.2549983859062194,0,0,0.2549983859062195,389.79803466796864,223.63562011718753)" svgjs:data="{&quot;leading&quot;:&quot;1.3&quot;}"><tspan dy="0" x="164.68127054565383" svgjs:data="{&quot;newLined&quot;:true}">PLAYER</tspan></text><image width="760" height="730" xlink:href="https://lct-designs.s3.us-west-1.amazonaws.com/assets/libs/gorillas-softball-banner-1644897952831.png" class="asset" transform="matrix(0.053850151598453515,0,0,0.05385015159845353,430.8867187499999,222.14825439453128)"></image><text fill="#212121" font-family="Amity Jack" font-size="45" stroke-opacity="1" stroke-width="1" stroke="#f2eded" x="164.68127054565383" y="198.9363701339798" transform="matrix(0.2549983859062194,0,0,0.2549983859062195,247.7290649414062,157.74747467041018)" svgjs:data="{&quot;leading&quot;:&quot;1.3&quot;}"><tspan dy="0" x="164.68127054565383" svgjs:data="{&quot;newLined&quot;:true}">PLAYER</tspan></text><image width="760" height="730" xlink:href="https://lct-designs.s3.us-west-1.amazonaws.com/assets/libs/gorillas-softball-banner-1644897952831.png" class="asset" transform="matrix(0.053850151598453515,0,0,0.05385015159845353,288.8177490234375,156.26010894775393)"></image><text fill="#212121" font-family="Amity Jack" font-size="45" stroke-opacity="1" stroke-width="1" stroke="#f2eded" x="164.68127054565383" y="198.9363701339798" transform="matrix(0.2549983859062194,0,0,0.2549983859062195,321.15270996093744,157.1316909790039)" svgjs:data="{&quot;leading&quot;:&quot;1.3&quot;}"><tspan dy="0" x="164.68127054565383" svgjs:data="{&quot;newLined&quot;:true}">PLAYER</tspan></text><image width="760" height="730" xlink:href="https://lct-designs.s3.us-west-1.amazonaws.com/assets/libs/gorillas-softball-banner-1644897952831.png" class="asset" transform="matrix(0.053850151598453515,0,0,0.05385015159845353,362.2413940429687,155.64432525634766)"></image><text fill="#212121" font-family="Amity Jack" font-size="45" stroke-opacity="1" stroke-width="1" stroke="#f2eded" x="164.68127054565383" y="198.9363701339798" transform="matrix(0.2549983859062194,0,0,0.2549983859062195,246.02954101562494,223.635612487793)" svgjs:data="{&quot;leading&quot;:&quot;1.3&quot;}"><tspan dy="0" x="164.68127054565383" svgjs:data="{&quot;newLined&quot;:true}">PLAYER</tspan></text><image width="760" height="730" xlink:href="https://lct-designs.s3.us-west-1.amazonaws.com/assets/libs/gorillas-softball-banner-1644897952831.png" class="asset" transform="matrix(0.053850151598453515,0,0,0.05385015159845353,287.1182250976562,222.14824676513675)"></image><text fill="#212121" font-family="Amity Jack" font-size="45" stroke-opacity="1" stroke-width="1" stroke="#f2eded" x="164.68127054565383" y="198.9363701339798" transform="matrix(0.2549983859062194,0,0,0.2549983859062195,319.4531860351562,223.01982879638675)" svgjs:data="{&quot;leading&quot;:&quot;1.3&quot;}"><tspan dy="0" x="164.68127054565383" svgjs:data="{&quot;newLined&quot;:true}">PLAYER</tspan></text><image width="760" height="730" xlink:href="https://lct-designs.s3.us-west-1.amazonaws.com/assets/libs/gorillas-softball-banner-1644897952831.png" class="asset" transform="matrix(0.053850151598453515,0,0,0.05385015159845353,360.54187011718744,221.5324630737305)"></image><image width="744" height="760" xlink:href="https://lct-designs.s3.us-west-1.amazonaws.com/assets/libs/gorillas-softball-banner-1644897998890.png" class="asset" transform="matrix(0.23123626410961148,0,0,0.23123626410961154,92.38622283935544,97.01917266845703)"></image><text fill="#212121" font-family="Amity Jack" font-size="45" stroke-opacity="1" stroke-width="1" stroke="#f2eded" x="164.68127054565383" y="198.9363701339798" transform="matrix(0.2549983859062194,0,0,0.2549983859062195,-5.669952392578125,96.78556060791018)" svgjs:data="{&quot;leading&quot;:&quot;1.3&quot;}"><tspan dy="0" x="164.68127054565383" svgjs:data="{&quot;newLined&quot;:true}">PLAYER</tspan></text><image width="760" height="730" xlink:href="https://lct-designs.s3.us-west-1.amazonaws.com/assets/libs/gorillas-softball-banner-1644897952831.png" class="asset" transform="matrix(0.053850151598453515,0,0,0.05385015159845353,35.418731689453125,95.29819488525393)"></image><text fill="#212121" font-family="Amity Jack" font-size="45" stroke-opacity="1" stroke-width="1" stroke="#f2eded" x="164.68127054565383" y="198.9363701339798" transform="matrix(0.2549983859062194,0,0,0.2549983859062195,-4.9064025878906214,163.28945922851562)" svgjs:data="{&quot;leading&quot;:&quot;1.3&quot;}"><tspan dy="0" x="164.68127054565383" svgjs:data="{&quot;newLined&quot;:true}">PLAYER</tspan></text><image width="760" height="730" xlink:href="https://lct-designs.s3.us-west-1.amazonaws.com/assets/libs/gorillas-softball-banner-1644897952831.png" class="asset" transform="matrix(0.053850151598453515,0,0,0.05385015159845353,36.18228149414061,161.80209350585938)"></image><text fill="#212121" font-family="Amity Jack" font-size="45" stroke-opacity="1" stroke-width="1" stroke="#f2eded" x="164.68127054565383" y="198.9363701339798" transform="matrix(0.2549983859062194,0,0,0.2549983859062195,-6.605926513671875,229.17761230468753)" svgjs:data="{&quot;leading&quot;:&quot;1.3&quot;}"><tspan dy="0" x="164.68127054565383" svgjs:data="{&quot;newLined&quot;:true}">PLAYER</tspan></text><image width="760" height="730" xlink:href="https://lct-designs.s3.us-west-1.amazonaws.com/assets/libs/gorillas-softball-banner-1644897952831.png" class="asset" transform="matrix(0.053850151598453515,0,0,0.05385015159845353,34.48275756835936,227.69024658203128)"></image><g class="mask" style="pointer-events: none;"><g><path fill="#BCBEC0" d="M-3642.4-2101.7v4589.1h7813.4v-4589.1H-3642.4z M500.5,67.2v233.3v66.7H0.5v-66.7V67.2V0.5h500V67.2z" transform="matrix(1,0,0,1,0,0)"></path><g transform="matrix(1,0,0,1,0,0)">
	<rect x="0.5" y="300.5" opacity="0.95" fill="#F1F2F2" width="500" height="66.7"></rect>
	<rect x="0.5" y="0.5" opacity="0.95" fill="#F1F2F2" width="500" height="66.7"></rect>
</g></g></g></svg>