<svg xmlns="http://www.w3.org/2000/svg" version="1.1" xmlns:xlink="http://www.w3.org/1999/xlink" xmlns:svgjs="http://svgjs.dev/svgjs" width="100%" height="100%" viewBox="1 1 499 365.70001220703125" preserveAspectRatio="none" data-info="{&quot;_id&quot;:4,&quot;name&quot;:&quot;POLE POCKET SOCCER BANNERS&quot;,&quot;information&quot;:&quot;- Size: 3’x5’\n- Material: heavy duty vinyl banner\n- Digitally printed on vinyl&quot;,&quot;price&quot;:&quot;95.00&quot;,&quot;sale_price&quot;:&quot;89.99&quot;,&quot;type&quot;:&quot;pole-pocket&quot;,&quot;cover&quot;:{&quot;key&quot;:&quot;assets/models/pole-1628062864266-1631924568908.png&quot;,&quot;url&quot;:&quot;https://lct-designs.s3.us-west-1.amazonaws.com/assets/models/pole-1628062864266-1631924568908.png&quot;},&quot;back&quot;:{&quot;key&quot;:&quot;assets/models/pole-1631924700152.svg&quot;,&quot;url&quot;:&quot;https://lct-designs.s3.us-west-1.amazonaws.com/assets/models/pole-1631924700152.svg&quot;},&quot;mask&quot;:{&quot;key&quot;:&quot;assets/models/pole-mask-1631925211715.svg&quot;,&quot;url&quot;:&quot;https://lct-designs.s3.us-west-1.amazonaws.com/assets/models/pole-mask-1631925211715.svg&quot;},&quot;pos&quot;:&quot;2&quot;,&quot;accessories&quot;:&quot;2,3&quot;}" style="background-color: white;"><g class="model" style="pointer-events: none;"><polygon fill="#FFFFFF" points="0.5,0.5 0.5,67.2 0.5,300.5 0.5,367.2 500.5,367.2 500.5,300.5 500.5,67.2 500.5,0.5 "></polygon></g><image width="760" height="556" xlink:href="https://lct-designs.s3.us-west-1.amazonaws.com/assets/libs/lady-cats-2-softball-banner-1640682447708.png" class="asset background locked" transform="matrix(0.6595323960558116,0,0,0.6595323960558116,0,0)"></image><text fill="#ffffff" font-family="Franklin Gothic" font-size="11" x="197.59496431176086" y="187.93020890361393" transform="matrix(1,0,0,0.9999999999999999,-185.21600341796878,-102.71326446533203)" svgjs:data="{&quot;leading&quot;:&quot;1.3&quot;}"><tspan dy="0" x="197.59496431176086" svgjs:data="{&quot;newLined&quot;:true}">COACH: COACH'S NAME</tspan></text><text fill="#ffffff" font-family="Franklin Gothic" font-size="11" x="177.80820576287448" y="188.1140050906863" transform="matrix(1,0,0,0.9999999999999999,162.04237365722656,-101.76850128173827)" svgjs:data="{&quot;leading&quot;:&quot;1.3&quot;}"><tspan dy="0" x="177.80820576287448" svgjs:data="{&quot;newLined&quot;:true}">TEAM MOM: TEAM MOM'S NAME</tspan></text><text fill="#ffffff" font-family="Antilles Condensed" font-size="11" x="197.59496431176086" y="187.93020890361393" stroke-opacity="1" stroke-width="0" stroke="#000000" transform="matrix(5.69211483001709,0,0,5.69211483001709,-1090.3607177734375,-879.8428344726562)" svgjs:data="{&quot;leading&quot;:&quot;1.3&quot;}"><textPath xlink:href="#SvgjsPath1001" svgjs:data="{&quot;leading&quot;:&quot;1.3&quot;}"><tspan dy="0" x="0" svgjs:data="{&quot;newLined&quot;:true}">TEAM MOM: TEAM MOM'S NAME</tspan></textPath></text><defs><path d="M20.5,10.5c0.2,13-20.2,13-20,0C0.3-2.5,20.7-2.5,20.5,10.5z" id="SvgjsPath1001"></path><path d="M20.5,10.5c0.2,13-20.2,13-20,0C0.3-2.5,20.7-2.5,20.5,10.5z" id="SvgjsPath1002"></path></defs><image width="760" height="463" xlink:href="https://lct-designs.s3.us-west-1.amazonaws.com/assets/libs/lady-cats-2-softball-banner-1640682384614.png" class="asset" transform="matrix(0.3120831549167633,0,0,0.31208315491676325,113.5838623046875,150.6153106689453)"></image><text fill="#ffffff" font-family="Franklin Gothic" font-size="11" x="197.59496431176086" y="187.93020890361393" transform="matrix(1.004029631614685,0,0,1.004029631614685,150.04766845703125,21.636104583740234)" svgjs:data="{&quot;leading&quot;:&quot;1.3&quot;}"><tspan dy="0" x="197.59496431176086" svgjs:data="{&quot;newLined&quot;:true}">PLAYER</tspan></text><text fill="#ffffff" font-family="Franklin Gothic" font-size="11" x="197.59496431176086" y="187.93020890361393" transform="matrix(1.004029631614685,0,0,1.004029631614685,151.9867401123047,-30.100948333740234)" svgjs:data="{&quot;leading&quot;:&quot;1.3&quot;}"><tspan dy="0" x="197.59496431176086" svgjs:data="{&quot;newLined&quot;:true}">PLAYER</tspan></text><image width="760" height="716" xlink:href="https://lct-designs.s3.us-west-1.amazonaws.com/assets/libs/blue-crushes-2-soflball-banner-1639966281996.png" class="asset" transform="matrix(0.03515898436307907,0,0,0.035158984363079064,355.3810424804688,120.89418029785156)"></image><image width="760" height="716" xlink:href="https://lct-designs.s3.us-west-1.amazonaws.com/assets/libs/blue-crushes-2-soflball-banner-1639966281996.png" class="asset" transform="matrix(0.03515898436307907,0,0,0.035158984363079064,353.4419860839844,172.63124084472653)"></image><text fill="#ffffff" font-family="Franklin Gothic" font-size="11" x="197.59496431176086" y="187.93020890361393" transform="matrix(1.004029631614685,0,0,1.004029631614685,-39.03840637207031,-57.390804290771484)" svgjs:data="{&quot;leading&quot;:&quot;1.3&quot;}"><tspan dy="0" x="197.59496431176086" svgjs:data="{&quot;newLined&quot;:true}">PLAYER</tspan></text><image width="760" height="716" xlink:href="https://lct-designs.s3.us-west-1.amazonaws.com/assets/libs/blue-crushes-2-soflball-banner-1639966281996.png" class="asset" transform="matrix(0.03515898436307907,0,0,0.035158984363079064,164.35591125488278,93.60432434082031)"></image><text fill="#ffffff" font-family="Franklin Gothic" font-size="11" x="197.59496431176086" y="187.93020890361393" transform="matrix(1.004029631614685,0,0,1.004029631614685,-40.97747039794922,-5.653751373291016)" svgjs:data="{&quot;leading&quot;:&quot;1.3&quot;}"><tspan dy="0" x="197.59496431176086" svgjs:data="{&quot;newLined&quot;:true}">PLAYER</tspan></text><image width="760" height="716" xlink:href="https://lct-designs.s3.us-west-1.amazonaws.com/assets/libs/blue-crushes-2-soflball-banner-1639966281996.png" class="asset" transform="matrix(0.03515898436307907,0,0,0.035158984363079064,162.41683959960938,145.34138488769528)"></image><image width="760" height="735" xlink:href="https://lct-designs.s3.us-west-1.amazonaws.com/assets/libs/lady-cats-2-softball-banner-01-1640682138450.png" class="asset" transform="matrix(0.13157892227172852,0,0,0.13157892227172852,11.817499160766602,197.53404235839844)"></image><text fill="#ffffff" font-family="Franklin Gothic" font-size="11" x="197.59496431176086" y="187.93020890361393" transform="matrix(1.004029631614685,0,0,1.004029631614685,-184.6829071044922,-55.6851921081543)" svgjs:data="{&quot;leading&quot;:&quot;1.3&quot;}"><tspan dy="0" x="197.59496431176086" svgjs:data="{&quot;newLined&quot;:true}">PLAYER</tspan></text><image width="760" height="716" xlink:href="https://lct-designs.s3.us-west-1.amazonaws.com/assets/libs/blue-crushes-2-soflball-banner-1639966281996.png" class="asset" transform="matrix(0.03515898436307907,0,0,0.035158984363079064,18.711402893066406,95.3099365234375)"></image><text fill="#ffffff" font-family="Franklin Gothic" font-size="11" x="197.59496431176086" y="187.93020890361393" transform="matrix(1.004029631614685,0,0,1.004029631614685,-186.62197875976565,-3.948139190673828)" svgjs:data="{&quot;leading&quot;:&quot;1.3&quot;}"><tspan dy="0" x="197.59496431176086" svgjs:data="{&quot;newLined&quot;:true}">PLAYER</tspan></text><image width="760" height="716" xlink:href="https://lct-designs.s3.us-west-1.amazonaws.com/assets/libs/blue-crushes-2-soflball-banner-1639966281996.png" class="asset" transform="matrix(0.03515898436307907,0,0,0.035158984363079064,16.7723331451416,147.04699707031247)"></image><text fill="#ffffff" font-family="Franklin Gothic" font-size="11" x="197.59496431176086" y="187.93020890361393" transform="matrix(1.004029631614685,0,0,1.004029631614685,-116.12461853027344,-32.94363021850586)" svgjs:data="{&quot;leading&quot;:&quot;1.3&quot;}"><tspan dy="0" x="197.59496431176086" svgjs:data="{&quot;newLined&quot;:true}">PLAYER</tspan></text><image width="760" height="716" xlink:href="https://lct-designs.s3.us-west-1.amazonaws.com/assets/libs/blue-crushes-2-soflball-banner-1639966281996.png" class="asset" transform="matrix(0.03515898436307907,0,0,0.035158984363079064,87.26969909667969,118.05149841308591)"></image><image width="760" height="716" xlink:href="https://lct-designs.s3.us-west-1.amazonaws.com/assets/libs/blue-crushes-2-soflball-banner-1639966281996.png" class="asset" transform="matrix(0.03515898436307907,0,0,0.035158984363079064,85.33062744140625,169.7885589599609)"></image><text fill="#ffffff" font-family="Franklin Gothic" font-size="11" x="197.59496431176086" y="187.93020890361393" transform="matrix(1.004029631614685,0,0,1.004029631614685,-118.06368255615234,18.79342269897461)" svgjs:data="{&quot;leading&quot;:&quot;1.3&quot;}"><tspan dy="0" x="197.59496431176086" svgjs:data="{&quot;newLined&quot;:true}">PLAYER</tspan></text><text fill="#ffffff" font-family="Franklin Gothic" font-size="11" x="197.59496431176086" y="187.93020890361393" transform="matrix(1.004029631614685,0,0,1.004029631614685,64.66703796386719,-56.25373470783233)" svgjs:data="{&quot;leading&quot;:&quot;1.3&quot;}"><tspan dy="0" x="197.59496431176086" svgjs:data="{&quot;newLined&quot;:true}">PLAYER</tspan></text><image width="760" height="716" xlink:href="https://lct-designs.s3.us-west-1.amazonaws.com/assets/libs/blue-crushes-2-soflball-banner-1639966281996.png" class="asset" transform="matrix(0.03515898436307907,0,0,0.035158984363079064,268.0613479614258,94.74139392375943)"></image><text fill="#ffffff" font-family="Franklin Gothic" font-size="11" x="197.59496431176086" y="187.93020890361393" transform="matrix(1.004029631614685,0,0,1.004029631614685,62.727966308593764,-4.516681790351868)" svgjs:data="{&quot;leading&quot;:&quot;1.3&quot;}"><tspan dy="0" x="197.59496431176086" svgjs:data="{&quot;newLined&quot;:true}">PLAYER</tspan></text><image width="760" height="716" xlink:href="https://lct-designs.s3.us-west-1.amazonaws.com/assets/libs/blue-crushes-2-soflball-banner-1639966281996.png" class="asset" transform="matrix(0.03515898436307907,0,0,0.035158984363079064,266.122278213501,146.47845447063446)"></image><text fill="#ffffff" font-family="Franklin Gothic" font-size="11" x="197.59496431176086" y="187.93020890361393" transform="matrix(1.004029631614685,0,0,1.004029631614685,239.64144897460938,-2.811084747314453)" svgjs:data="{&quot;leading&quot;:&quot;1.3&quot;}"><tspan dy="0" x="197.59496431176086" svgjs:data="{&quot;newLined&quot;:true}">PLAYER</tspan></text><image width="760" height="716" xlink:href="https://lct-designs.s3.us-west-1.amazonaws.com/assets/libs/blue-crushes-2-soflball-banner-1639966281996.png" class="asset" transform="matrix(0.03515898436307907,0,0,0.035158984363079064,443.03576660156256,148.18405151367188)"></image><text fill="#ffffff" font-family="Franklin Gothic" font-size="11" x="197.59496431176086" y="187.93020890361393" transform="matrix(1.004029631614685,0,0,1.004029631614685,241.5805206298828,-54.54813766479492)" svgjs:data="{&quot;leading&quot;:&quot;1.3&quot;}"><tspan dy="0" x="197.59496431176086" svgjs:data="{&quot;newLined&quot;:true}">PLAYER</tspan></text><image width="760" height="716" xlink:href="https://lct-designs.s3.us-west-1.amazonaws.com/assets/libs/blue-crushes-2-soflball-banner-1639966281996.png" class="asset" transform="matrix(0.03515898436307907,0,0,0.035158984363079064,444.97482299804693,96.44699096679688)"></image><text fill="#ffffff" font-family="Franklin Gothic" font-size="11" x="197.59496431176086" y="187.93020890361393" transform="matrix(1.004029631614685,0,0,1.004029631614685,235.42828369140625,104.64281463623047)" svgjs:data="{&quot;leading&quot;:&quot;1.3&quot;}"><tspan dy="0" x="197.59496431176086" svgjs:data="{&quot;newLined&quot;:true}">PLAYER</tspan></text><image width="760" height="716" xlink:href="https://lct-designs.s3.us-west-1.amazonaws.com/assets/libs/blue-crushes-2-soflball-banner-1639966281996.png" class="asset" transform="matrix(0.03515898436307907,0,0,0.035158984363079064,438.82260131835943,255.637939453125)"></image><text fill="#ffffff" font-family="Franklin Gothic" font-size="11" x="197.59496431176086" y="187.93020890361393" transform="matrix(1.004029631614685,0,0,1.004029631614685,237.3673553466797,52.905765533447266)" svgjs:data="{&quot;leading&quot;:&quot;1.3&quot;}"><tspan dy="0" x="197.59496431176086" svgjs:data="{&quot;newLined&quot;:true}">PLAYER</tspan></text><image width="760" height="716" xlink:href="https://lct-designs.s3.us-west-1.amazonaws.com/assets/libs/blue-crushes-2-soflball-banner-1639966281996.png" class="asset" transform="matrix(0.03515898436307907,0,0,0.035158984363079064,440.76165771484375,203.90089416503906)"></image><g class="mask" style="pointer-events: none;"><g><path fill="#BCBEC0" d="M-3642.4-2101.7v4589.1h7813.4v-4589.1H-3642.4z M500.5,67.2v233.3v66.7H0.5v-66.7V67.2V0.5h500V67.2z" transform="matrix(1,0,0,1,0,0)"></path><g transform="matrix(1,0,0,1,0,0)">
	<rect x="0.5" y="300.5" opacity="0.95" fill="#F1F2F2" width="500" height="66.7"></rect>
	<rect x="0.5" y="0.5" opacity="0.95" fill="#F1F2F2" width="500" height="66.7"></rect>
</g></g></g></svg>