<svg xmlns="http://www.w3.org/2000/svg" version="1.1" xmlns:xlink="http://www.w3.org/1999/xlink" xmlns:svgjs="http://svgjs.dev/svgjs" width="100%" height="100%" viewBox="1 1 499 365.70001220703125" preserveAspectRatio="none" data-info="{&quot;_id&quot;:4,&quot;name&quot;:&quot;POLE POCKET SOCCER BANNERS&quot;,&quot;information&quot;:&quot;- Size: 3’x5’\n- Material: heavy duty vinyl banner\n- Digitally printed on vinyl&quot;,&quot;price&quot;:&quot;95.00&quot;,&quot;sale_price&quot;:&quot;89.99&quot;,&quot;type&quot;:&quot;pole-pocket&quot;,&quot;cover&quot;:{&quot;key&quot;:&quot;assets/models/pole-1628062864266-1631924568908.png&quot;,&quot;url&quot;:&quot;https://lct-designs.s3.us-west-1.amazonaws.com/assets/models/pole-1628062864266-1631924568908.png&quot;},&quot;back&quot;:{&quot;key&quot;:&quot;assets/models/pole-1631924700152.svg&quot;,&quot;url&quot;:&quot;https://lct-designs.s3.us-west-1.amazonaws.com/assets/models/pole-1631924700152.svg&quot;},&quot;mask&quot;:{&quot;key&quot;:&quot;assets/models/pole-mask-1631925211715.svg&quot;,&quot;url&quot;:&quot;https://lct-designs.s3.us-west-1.amazonaws.com/assets/models/pole-mask-1631925211715.svg&quot;},&quot;pos&quot;:&quot;2&quot;,&quot;accessories&quot;:&quot;2,3&quot;}" style="background-color: white;"><g class="model" style="pointer-events: none;"><polygon fill="#FFFFFF" points="0.5,0.5 0.5,67.2 0.5,300.5 0.5,367.2 500.5,367.2 500.5,300.5 500.5,67.2 500.5,0.5 "></polygon></g><image width="760" height="553" xlink:href="https://lct-designs.s3.us-west-1.amazonaws.com/assets/libs/blue-jays-3-baseball-banner-1644906669449.png" class="asset background locked" transform="matrix(0.6631103294883024,0,0,0.6631103294883024,0,0)"></image><image width="760" height="760" xlink:href="https://lct-designs.s3.us-west-1.amazonaws.com/assets/libs/blue-jays4-baseball-banner-1640339725765.png" class="asset" transform="matrix(0.15993672609329224,0,0,0.15993672609329224,366.87145996093744,103.79270935058594)"></image><text fill="#ffffff" font-family="Impact" font-size="45" x="192.06642438162737" y="201.88927563680983" stroke-opacity="1" stroke-width="1" stroke="#000000" transform="matrix(0.3015450835227966,0,0,0.30154508352279663,-28.86373901367187,68.04174041748047)" svgjs:data="{&quot;leading&quot;:&quot;1.3&quot;}"><tspan dy="0" x="192.06642438162737" svgjs:data="{&quot;newLined&quot;:true}">PLAYER</tspan></text><image width="759" height="511" xlink:href="https://lct-designs.s3.us-west-1.amazonaws.com/assets/libs/blue-jays-3-baseball-banner-1644906781474.png" class="asset" transform="matrix(0.06668123602867126,0,0,0.06668123602867126,22.66007995605469,80.10448455810547)"></image><image width="759" height="511" xlink:href="https://lct-designs.s3.us-west-1.amazonaws.com/assets/libs/blue-jays-3-baseball-banner-1644906781474.png" class="asset" transform="matrix(0.06668123602867126,0,0,0.06668123602867126,112.70934677124023,79.48870849609375)"></image><text fill="#ffffff" font-family="Impact" font-size="45" x="192.06642438162737" y="201.88927563680983" stroke-opacity="1" stroke-width="1" stroke="#000000" transform="matrix(0.3015450835227966,0,0,0.30154508352279663,61.18552398681639,67.42596435546875)" svgjs:data="{&quot;leading&quot;:&quot;1.3&quot;}"><tspan dy="0" x="192.06642438162737" svgjs:data="{&quot;newLined&quot;:true}">PLAYER</tspan></text><image width="759" height="511" xlink:href="https://lct-designs.s3.us-west-1.amazonaws.com/assets/libs/blue-jays-3-baseball-banner-1644906781474.png" class="asset" transform="matrix(0.06668123602867126,0,0,0.06668123602867126,213.226577758789,77.6413803100586)"></image><text fill="#ffffff" font-family="Impact" font-size="45" x="192.06642438162737" y="201.88927563680983" stroke-opacity="1" stroke-width="1" stroke="#000000" transform="matrix(0.3015450835227966,0,0,0.30154508352279663,161.70275878906244,65.5786361694336)" svgjs:data="{&quot;leading&quot;:&quot;1.3&quot;}"><tspan dy="0" x="192.06642438162737" svgjs:data="{&quot;newLined&quot;:true}">PLAYER</tspan></text><image width="759" height="511" xlink:href="https://lct-designs.s3.us-west-1.amazonaws.com/assets/libs/blue-jays-3-baseball-banner-1644906781474.png" class="asset" transform="matrix(0.06668123602867126,0,0,0.06668123602867126,210.29554748535153,181.09190368652347)"></image><text fill="#ffffff" font-family="Impact" font-size="45" x="192.06642438162737" y="201.88927563680983" stroke-opacity="1" stroke-width="1" stroke="#000000" transform="matrix(0.3015450835227966,0,0,0.30154508352279663,158.77172851562494,169.02915954589844)" svgjs:data="{&quot;leading&quot;:&quot;1.3&quot;}"><tspan dy="0" x="192.06642438162737" svgjs:data="{&quot;newLined&quot;:true}">PLAYER</tspan></text><image width="759" height="511" xlink:href="https://lct-designs.s3.us-west-1.amazonaws.com/assets/libs/blue-jays-3-baseball-banner-1644906781474.png" class="asset" transform="matrix(0.06668123602867126,0,0,0.06668123602867126,66.05908584594727,135.52441406250003)"></image><text fill="#ffffff" font-family="Impact" font-size="45" x="192.06642438162737" y="201.88927563680983" stroke-opacity="1" stroke-width="1" stroke="#000000" transform="matrix(0.3015450835227966,0,0,0.30154508352279663,14.535270690917972,123.46166992187497)" svgjs:data="{&quot;leading&quot;:&quot;1.3&quot;}"><tspan dy="0" x="192.06642438162737" svgjs:data="{&quot;newLined&quot;:true}">PLAYER</tspan></text><image width="759" height="511" xlink:href="https://lct-designs.s3.us-west-1.amazonaws.com/assets/libs/blue-jays-3-baseball-banner-1644906781474.png" class="asset" transform="matrix(0.06668123602867126,0,0,0.06668123602867126,166.57632827758786,133.67709350585938)"></image><text fill="#ffffff" font-family="Impact" font-size="45" x="192.06642438162737" y="201.88927563680983" stroke-opacity="1" stroke-width="1" stroke="#000000" transform="matrix(0.3015450835227966,0,0,0.30154508352279663,115.0525093078613,121.61434173583984)" svgjs:data="{&quot;leading&quot;:&quot;1.3&quot;}"><tspan dy="0" x="192.06642438162737" svgjs:data="{&quot;newLined&quot;:true}">PLAYER</tspan></text><text fill="#ffffff" font-family="Impact" font-size="45" x="192.06642438162737" y="201.88927563680983" stroke-opacity="1" stroke-width="1" stroke="#000000" transform="matrix(0.3015450835227966,0,0,0.30154508352279663,-31.79476928710937,171.49226379394534)" svgjs:data="{&quot;leading&quot;:&quot;1.3&quot;}"><tspan dy="0" x="192.06642438162737" svgjs:data="{&quot;newLined&quot;:true}">PLAYER</tspan></text><image width="759" height="511" xlink:href="https://lct-designs.s3.us-west-1.amazonaws.com/assets/libs/blue-jays-3-baseball-banner-1644906781474.png" class="asset" transform="matrix(0.06668123602867126,0,0,0.06668123602867126,19.72904968261719,183.55500793457034)"></image><image width="759" height="511" xlink:href="https://lct-designs.s3.us-west-1.amazonaws.com/assets/libs/blue-jays-3-baseball-banner-1644906781474.png" class="asset" transform="matrix(0.06668123602867126,0,0,0.06668123602867126,109.77831649780273,182.9392395019531)"></image><text fill="#ffffff" font-family="Impact" font-size="45" x="192.06642438162737" y="201.88927563680983" stroke-opacity="1" stroke-width="1" stroke="#000000" transform="matrix(0.3015450835227966,0,0,0.30154508352279663,58.25449752807616,170.87649536132812)" svgjs:data="{&quot;leading&quot;:&quot;1.3&quot;}"><tspan dy="0" x="192.06642438162737" svgjs:data="{&quot;newLined&quot;:true}">PLAYER</tspan></text><image width="759" height="511" xlink:href="https://lct-designs.s3.us-west-1.amazonaws.com/assets/libs/blue-jays-3-baseball-banner-1644906781474.png" class="asset" transform="matrix(0.06668123602867126,0,0,0.06668123602867126,63.128055572509766,238.9749450683594)"></image><text fill="#ffffff" font-family="Impact" font-size="45" x="192.06642438162737" y="201.88927563680983" stroke-opacity="1" stroke-width="1" stroke="#000000" transform="matrix(0.3015450835227966,0,0,0.30154508352279663,11.604240417480465,226.9122009277344)" svgjs:data="{&quot;leading&quot;:&quot;1.3&quot;}"><tspan dy="0" x="192.06642438162737" svgjs:data="{&quot;newLined&quot;:true}">PLAYER</tspan></text><image width="759" height="511" xlink:href="https://lct-designs.s3.us-west-1.amazonaws.com/assets/libs/blue-jays-3-baseball-banner-1644906781474.png" class="asset" transform="matrix(0.06668123602867126,0,0,0.06668123602867126,163.6452980041504,237.12762451171878)"></image><text fill="#ffffff" font-family="Impact" font-size="45" x="192.06642438162737" y="201.88927563680983" stroke-opacity="1" stroke-width="1" stroke="#000000" transform="matrix(0.3015450835227966,0,0,0.30154508352279663,112.1214790344238,225.06486511230472)" svgjs:data="{&quot;leading&quot;:&quot;1.3&quot;}"><tspan dy="0" x="192.06642438162737" svgjs:data="{&quot;newLined&quot;:true}">PLAYER</tspan></text><image width="759" height="511" xlink:href="https://lct-designs.s3.us-west-1.amazonaws.com/assets/libs/blue-jays-3-baseball-banner-1644906781474.png" class="asset" transform="matrix(0.06668123602867126,0,0,0.06668123602867126,272.48765563964844,128.13509368896484)"></image><text fill="#ffffff" font-family="Impact" font-size="45" x="192.06642438162737" y="201.88927563680983" stroke-opacity="1" stroke-width="1" stroke="#000000" transform="matrix(0.3015450835227966,0,0,0.30154508352279663,220.96383666992185,116.07234954833984)" svgjs:data="{&quot;leading&quot;:&quot;1.3&quot;}"><tspan dy="0" x="192.06642438162737" svgjs:data="{&quot;newLined&quot;:true}">PLAYER</tspan></text><image width="759" height="511" xlink:href="https://lct-designs.s3.us-west-1.amazonaws.com/assets/libs/blue-jays-3-baseball-banner-1644906781474.png" class="asset" transform="matrix(0.06668123602867126,0,0,0.06668123602867126,269.55662536621094,231.58561706542972)"></image><text fill="#ffffff" font-family="Impact" font-size="45" x="192.06642438162737" y="201.88927563680983" stroke-opacity="1" stroke-width="1" stroke="#000000" transform="matrix(0.30154508352279663,0,0,0.30154508352279663,218.0328063964844,219.52287292480472)" svgjs:data="{&quot;leading&quot;:&quot;1.3&quot;}"><tspan dy="0" x="192.06642438162737" svgjs:data="{&quot;newLined&quot;:true}">PLAYER</tspan></text><text fill="#0d0d0d" font-family="Impact" font-size="45" x="192.06642438162737" y="201.88927563680983" stroke-opacity="1" stroke-width="1" stroke="#f7f7f7" transform="matrix(0.30154508352279663,0,0,0.30154508352279663,311.16088867187506,28.632030487060547)" svgjs:data="{&quot;leading&quot;:&quot;1.3&quot;}"><tspan dy="0" x="192.06642438162737" svgjs:data="{&quot;newLined&quot;:true}">Coach: Coach's name</tspan></text><g class="mask" style="pointer-events: none;"><g><path fill="#BCBEC0" d="M-3642.4-2101.7v4589.1h7813.4v-4589.1H-3642.4z M500.5,67.2v233.3v66.7H0.5v-66.7V67.2V0.5h500V67.2z" transform="matrix(1,0,0,1,0,0)"></path><g transform="matrix(1,0,0,1,0,0)">
	<rect x="0.5" y="300.5" opacity="0.95" fill="#F1F2F2" width="500" height="66.7"></rect>
	<rect x="0.5" y="0.5" opacity="0.95" fill="#F1F2F2" width="500" height="66.7"></rect>
</g></g></g></svg>