<svg xmlns="http://www.w3.org/2000/svg" version="1.1" xmlns:xlink="http://www.w3.org/1999/xlink" xmlns:svgjs="http://svgjs.dev/svgjs" width="100%" height="100%" viewBox="1 1 499 365.70001220703125" preserveAspectRatio="none" data-info="{&quot;_id&quot;:4,&quot;name&quot;:&quot;POLE POCKET SOCCER BANNERS&quot;,&quot;information&quot;:&quot;- Size: 3’x5’\n- Material: heavy duty vinyl banner\n- Digitally printed on vinyl&quot;,&quot;price&quot;:&quot;95.00&quot;,&quot;sale_price&quot;:&quot;89.99&quot;,&quot;type&quot;:&quot;pole-pocket&quot;,&quot;cover&quot;:{&quot;key&quot;:&quot;assets/models/pole-1628062864266-1631924568908.png&quot;,&quot;url&quot;:&quot;https://lct-designs.s3.us-west-1.amazonaws.com/assets/models/pole-1628062864266-1631924568908.png&quot;},&quot;back&quot;:{&quot;key&quot;:&quot;assets/models/pole-1631924700152.svg&quot;,&quot;url&quot;:&quot;https://lct-designs.s3.us-west-1.amazonaws.com/assets/models/pole-1631924700152.svg&quot;},&quot;mask&quot;:{&quot;key&quot;:&quot;assets/models/pole-mask-1631925211715.svg&quot;,&quot;url&quot;:&quot;https://lct-designs.s3.us-west-1.amazonaws.com/assets/models/pole-mask-1631925211715.svg&quot;},&quot;pos&quot;:&quot;2&quot;,&quot;accessories&quot;:&quot;2,3&quot;}" style="background-color: white;"><g class="model" style="pointer-events: none;"><polygon fill="#FFFFFF" points="0.5,0.5 0.5,67.2 0.5,300.5 0.5,367.2 500.5,367.2 500.5,300.5 500.5,67.2 500.5,0.5 "></polygon></g><image width="760" height="556" xlink:href="https://lct-designs.s3.us-west-1.amazonaws.com/assets/libs/cincinnati-baseball-banner-1640655602984.png" class="asset background locked" transform="matrix(0.6595323960558116,0,0,0.6595323960558116,0,0)"></image><text fill="#ffffff" font-family="Antilles" font-size="40" x="231.64330556104434" y="188.82903717637487" stroke-opacity="1" stroke-width="1" stroke="#000000" transform="matrix(0.41572824120521545,0,0,0.4157282412052154,-43.294788360595696,20.716449737548828)" svgjs:data="{&quot;leading&quot;:&quot;1.3&quot;}"><tspan dy="0" x="231.64330556104434" svgjs:data="{&quot;newLined&quot;:true}">player</tspan></text><image width="760" height="690" xlink:href="https://lct-designs.s3.us-west-1.amazonaws.com/assets/libs/cincinnati-baseball-banner-1640655751447.png" class="asset" transform="matrix(0.0525839701294899,0,0,0.0525839701294899,9.74844932556153,75.06219482421875)"></image><image width="760" height="626" xlink:href="https://lct-designs.s3.us-west-1.amazonaws.com/assets/libs/cincinnati-2-baseball-banner-1640655729574.png" class="asset" transform="matrix(0.24460384249687195,0,0,0.24460384249687192,144.44444274902347,112.2915802001953)"></image><text fill="#ffffff" font-family="Antilles" font-size="40" x="231.64330556104434" y="188.82903717637487" stroke-opacity="1" stroke-width="1" stroke="#000000" transform="matrix(0.4157281816005707,0,0,0.4157281816005706,-13.378646850585936,62.645175933837876)" svgjs:data="{&quot;leading&quot;:&quot;1.3&quot;}"><tspan dy="0" x="231.64330556104434" svgjs:data="{&quot;newLined&quot;:true}">player</tspan></text><image width="760" height="690" xlink:href="https://lct-designs.s3.us-west-1.amazonaws.com/assets/libs/cincinnati-baseball-banner-1640655751447.png" class="asset" transform="matrix(0.05258398503065109,0,0,0.052583985030651086,39.66459083557129,116.99092102050781)"></image><text fill="#ffffff" font-family="Antilles" font-size="40" x="231.64330556104434" y="188.82903717637487" stroke-opacity="1" stroke-width="1" stroke="#000000" transform="matrix(0.41572812199592585,0,0,0.41572812199592585,-41.63860321044922,110.3390998840332)" svgjs:data="{&quot;leading&quot;:&quot;1.3&quot;}"><tspan dy="0" x="231.64330556104434" svgjs:data="{&quot;newLined&quot;:true}">player</tspan></text><image width="760" height="690" xlink:href="https://lct-designs.s3.us-west-1.amazonaws.com/assets/libs/cincinnati-baseball-banner-1640655751447.png" class="asset" transform="matrix(0.05258399248123169,0,0,0.05258399248123168,11.40463638305664,164.6848449707031)"></image><text fill="#ffffff" font-family="Antilles" font-size="40" x="231.64330556104434" y="188.82903717637487" stroke-opacity="1" stroke-width="1" stroke="#000000" transform="matrix(0.4157280623912811,0,0,0.41572806239128113,-13.818897247314451,159.60533905029294)" svgjs:data="{&quot;leading&quot;:&quot;1.3&quot;}"><tspan dy="0" x="231.64330556104434" svgjs:data="{&quot;newLined&quot;:true}">player</tspan></text><image width="760" height="690" xlink:href="https://lct-designs.s3.us-west-1.amazonaws.com/assets/libs/cincinnati-baseball-banner-1640655751447.png" class="asset" transform="matrix(0.052584003657102585,0,0,0.05258400365710258,39.224342346191406,213.95108032226562)"></image><text fill="#ffffff" font-family="Antilles" font-size="40" x="231.64330556104434" y="188.82903717637487" stroke-opacity="1" stroke-width="1" stroke="#000000" transform="matrix(0.4157279431819916,0,0,0.4157279431819915,-38.934200286865234,207.29928588867188)" svgjs:data="{&quot;leading&quot;:&quot;1.3&quot;}"><tspan dy="0" x="231.64330556104434" svgjs:data="{&quot;newLined&quot;:true}">player</tspan></text><image width="760" height="690" xlink:href="https://lct-designs.s3.us-west-1.amazonaws.com/assets/libs/cincinnati-baseball-banner-1640655751447.png" class="asset" transform="matrix(0.05258403345942497,0,0,0.052584033459424966,14.109039306640632,261.64501953125)"></image><text fill="#ffffff" font-family="Antilles" font-size="40" x="231.64330556104434" y="188.82903717637487" stroke-opacity="1" stroke-width="1" stroke="#000000" transform="matrix(0.4157278835773468,0,0,0.41572788357734675,68.55007553100586,207.82339465618134)" svgjs:data="{&quot;leading&quot;:&quot;1.3&quot;}"><tspan dy="0" x="231.64330556104434" svgjs:data="{&quot;newLined&quot;:true}">player</tspan></text><image width="760" height="690" xlink:href="https://lct-designs.s3.us-west-1.amazonaws.com/assets/libs/cincinnati-baseball-banner-1640655751447.png" class="asset" transform="matrix(0.05258404836058616,0,0,0.05258404836058616,121.59331512451172,262.16912829875946)"></image><text fill="#ffffff" font-family="Antilles" font-size="40" x="231.64330556104434" y="188.82903717637487" stroke-opacity="1" stroke-width="1" stroke="#000000" transform="matrix(0.4157278835773468,0,0,0.41572788357734675,181.799560546875,208.34750354290009)" svgjs:data="{&quot;leading&quot;:&quot;1.3&quot;}"><tspan dy="0" x="231.64330556104434" svgjs:data="{&quot;newLined&quot;:true}">player</tspan></text><image width="760" height="690" xlink:href="https://lct-designs.s3.us-west-1.amazonaws.com/assets/libs/cincinnati-baseball-banner-1640655751447.png" class="asset" transform="matrix(0.05258405953645706,0,0,0.052584059536457055,234.84280395507812,262.69323718547815)"></image><text fill="#ffffff" font-family="Antilles" font-size="40" x="231.64330556104434" y="188.82903717637487" stroke-opacity="1" stroke-width="1" stroke="#000000" transform="matrix(0.4157278835773468,0,0,0.41572788357734675,355.9714660644531,71.0309295654297)" svgjs:data="{&quot;leading&quot;:&quot;1.3&quot;}"><tspan dy="0" x="231.64330556104434" svgjs:data="{&quot;newLined&quot;:true}">player</tspan></text><image width="760" height="690" xlink:href="https://lct-designs.s3.us-west-1.amazonaws.com/assets/libs/cincinnati-baseball-banner-1640655751447.png" class="asset" transform="matrix(0.05258413776755332,0,0,0.05258413776755332,409.01470947265625,125.3766632080078)"></image><text fill="#ffffff" font-family="Antilles" font-size="40" x="231.64330556104434" y="188.82903717637487" stroke-opacity="1" stroke-width="1" stroke="#000000" transform="matrix(0.4157278835773468,0,0,0.41572788357734675,287.3551330566406,41.68082427978514)" svgjs:data="{&quot;leading&quot;:&quot;1.3&quot;}"><tspan dy="0" x="231.64330556104434" svgjs:data="{&quot;newLined&quot;:true}">player</tspan></text><image width="760" height="690" xlink:href="https://lct-designs.s3.us-west-1.amazonaws.com/assets/libs/cincinnati-baseball-banner-1640655751447.png" class="asset" transform="matrix(0.05258415266871452,0,0,0.052584152668714516,340.3983764648437,96.02655792236327)"></image><text fill="#ffffff" font-family="Antilles" font-size="40" x="231.64330556104434" y="188.82903717637487" stroke-opacity="1" stroke-width="1" stroke="#000000" transform="matrix(0.4157278835773468,0,0,0.41572788357734675,353.9588928222656,15.475372314453125)" svgjs:data="{&quot;leading&quot;:&quot;1.3&quot;}"><tspan dy="0" x="231.64330556104434" svgjs:data="{&quot;newLined&quot;:true}">player</tspan></text><image width="760" height="690" xlink:href="https://lct-designs.s3.us-west-1.amazonaws.com/assets/libs/cincinnati-baseball-banner-1640655751447.png" class="asset" transform="matrix(0.05258416756987572,0,0,0.05258416756987571,407.00213623046875,69.82110595703124)"></image><text fill="#ffffff" font-family="Antilles" font-size="15" stroke-opacity="1" stroke-width="0" stroke="#ffffff" x="192.64244534681094" y="188.8290392676606" transform="matrix(1,0,0,0.9999999999999999,-6.289294719696045,-104.82180035114288)" svgjs:data="{&quot;leading&quot;:&quot;1.3&quot;}"><tspan dy="0" x="192.64244534681094" svgjs:data="{&quot;newLined&quot;:true}">       COACH: COACH'S NAME</tspan><tspan dy="19.5" x="192.64244534681094" svgjs:data="{&quot;newLined&quot;:true}"></tspan></text><text fill="#ffffff" font-family="Antilles" font-size="15" stroke-opacity="1" stroke-width="0" stroke="#ffffff" x="167.1274345130707" y="188.8290392676606" transform="matrix(1,0,0,0.9999999999999999,-6.2893066406250036,-89.6226350069046)" svgjs:data="{&quot;leading&quot;:&quot;1.3&quot;}"><tspan dy="0" x="167.1274345130707" svgjs:data="{&quot;newLined&quot;:true}">TEAM MOM: TEAM MOM'S NAME</tspan></text><image width="694" height="760" xlink:href="https://lct-designs.s3.us-west-1.amazonaws.com/assets/libs/cincinnati-baseball-banner-1640655709329.png" class="asset" transform="matrix(0.17157623171806333,0,0,0.17157623171806333,355.2855224609375,163.74832153320307)"></image><g class="mask" style="pointer-events: none;"><g><path fill="#BCBEC0" d="M-3642.4-2101.7v4589.1h7813.4v-4589.1H-3642.4z M500.5,67.2v233.3v66.7H0.5v-66.7V67.2V0.5h500V67.2z" transform="matrix(1,0,0,1,0,0)"></path><g transform="matrix(1,0,0,1,0,0)">
	<rect x="0.5" y="300.5" opacity="0.95" fill="#F1F2F2" width="500" height="66.7"></rect>
	<rect x="0.5" y="0.5" opacity="0.95" fill="#F1F2F2" width="500" height="66.7"></rect>
</g></g></g></svg>