<svg xmlns="http://www.w3.org/2000/svg" version="1.1" xmlns:xlink="http://www.w3.org/1999/xlink" xmlns:svgjs="http://svgjs.dev/svgjs" width="100%" height="100%" viewBox="1 1 499 365.70001220703125" preserveAspectRatio="none" data-info="{&quot;_id&quot;:4,&quot;name&quot;:&quot;POLE POCKET SOCCER BANNERS&quot;,&quot;information&quot;:&quot;- Size: 3’x5’\n- Material: heavy duty vinyl banner\n- Digitally printed on vinyl&quot;,&quot;price&quot;:&quot;95.00&quot;,&quot;sale_price&quot;:&quot;89.99&quot;,&quot;type&quot;:&quot;pole-pocket&quot;,&quot;cover&quot;:{&quot;key&quot;:&quot;assets/models/pole-1628062864266-1631924568908.png&quot;,&quot;url&quot;:&quot;https://lct-designs.s3.us-west-1.amazonaws.com/assets/models/pole-1628062864266-1631924568908.png&quot;},&quot;back&quot;:{&quot;key&quot;:&quot;assets/models/pole-1631924700152.svg&quot;,&quot;url&quot;:&quot;https://lct-designs.s3.us-west-1.amazonaws.com/assets/models/pole-1631924700152.svg&quot;},&quot;mask&quot;:{&quot;key&quot;:&quot;assets/models/pole-mask-1631925211715.svg&quot;,&quot;url&quot;:&quot;https://lct-designs.s3.us-west-1.amazonaws.com/assets/models/pole-mask-1631925211715.svg&quot;},&quot;pos&quot;:&quot;2&quot;,&quot;accessories&quot;:&quot;2,3&quot;}" style="background-color: white;"><g class="model" style="pointer-events: none;"><polygon fill="#FFFFFF" points="0.5,0.5 0.5,67.2 0.5,300.5 0.5,367.2 500.5,367.2 500.5,300.5 500.5,67.2 500.5,0.5 "></polygon></g><image width="760" height="556" xlink:href="https://lct-designs.s3.us-west-1.amazonaws.com/assets/libs/new-york-yankees-2-baseball-banner-1641953092641.png" class="asset background locked" transform="matrix(0.6595323960558116,0,0,0.6595323960558116,0,0)"></image><text fill="#0d0d0d" font-family="Impact" font-size="45" x="192.06642438162737" y="201.88927563680983" stroke-opacity="1" stroke-width="1" stroke="#f7f7f7" transform="matrix(0.28554242849349976,0,0,0.28554242849349976,318.39862060546875,30.044191360473633)" svgjs:data="{&quot;leading&quot;:&quot;1.3&quot;}"><tspan dy="0" x="192.06642438162737" svgjs:data="{&quot;newLined&quot;:true}">Coach: Coach's name</tspan></text><image width="684" height="760" xlink:href="https://lct-designs.s3.us-west-1.amazonaws.com/assets/libs/new-york-yankees-2-baseball-banner-1641953891679.png" class="asset" transform="matrix(0.2355823516845703,0,0,0.2355823516845703,154.52024841308597,82.45069885253908)"></image><image width="653" height="760" xlink:href="https://lct-designs.s3.us-west-1.amazonaws.com/assets/libs/new-york-yankees-2-baseball-banner-1641953788875.png" class="asset" transform="matrix(0.13473056256771088,0,0,0.13473056256771088,93.86582946777344,187.24339294433588)"></image><text fill="#fafafa" font-family="Supersonic Rocketship" font-size="45" stroke-opacity="1" stroke-width="1" stroke="#0d0d0d" x="54.90154642456008" y="202.01522374115754" transform="matrix(0.24558560392334172,0,0,0.2455856039233417,321.9434007365053,101.15452530608947)" svgjs:data="{&quot;leading&quot;:&quot;1.3&quot;}"><tspan dy="0" x="54.90154642456008" svgjs:data="{&quot;newLined&quot;:true}">PLAYER</tspan></text><image width="608" height="760" xlink:href="https://lct-designs.s3.us-west-1.amazonaws.com/assets/libs/new-york-yankees-2-baseball-banner-1642221614257.png" class="asset" transform="matrix(0.05009754430678637,0,0,0.05009754430678636,333.3533267109378,100.59277217862835)"></image><image width="608" height="760" xlink:href="https://lct-designs.s3.us-west-1.amazonaws.com/assets/libs/new-york-yankees-2-baseball-banner-1642221614257.png" class="asset" transform="matrix(0.05009754430678637,0,0,0.05009754430678636,396.83196294328803,96.22344510815309)"></image><text fill="#fafafa" font-family="Supersonic Rocketship" font-size="45" stroke-opacity="1" stroke-width="1" stroke="#0d0d0d" x="54.90154642456008" y="202.01522374115754" transform="matrix(0.24558560392334172,0,0,0.2455856039233417,385.42203696885554,96.7851982356142)" svgjs:data="{&quot;leading&quot;:&quot;1.3&quot;}"><tspan dy="0" x="54.90154642456008" svgjs:data="{&quot;newLined&quot;:true}">PLAYER</tspan></text><text fill="#fafafa" font-family="Supersonic Rocketship" font-size="45" stroke-opacity="1" stroke-width="1" stroke="#0d0d0d" x="54.90154642456008" y="202.01522374115754" transform="matrix(0.2455856055021286,0,0,0.2455856055021286,371.4643249511718,165.82659912109375)" svgjs:data="{&quot;leading&quot;:&quot;1.3&quot;}"><tspan dy="0" x="54.90154642456008" svgjs:data="{&quot;newLined&quot;:true}">PLAYER</tspan></text><image width="608" height="760" xlink:href="https://lct-designs.s3.us-west-1.amazonaws.com/assets/libs/new-york-yankees-2-baseball-banner-1642221614257.png" class="asset" transform="matrix(0.05009755119681358,0,0,0.05009755119681358,382.874267578125,165.2648315429687)"></image><image width="608" height="760" xlink:href="https://lct-designs.s3.us-west-1.amazonaws.com/assets/libs/new-york-yankees-2-baseball-banner-1642221614257.png" class="asset" transform="matrix(0.05009755119681358,0,0,0.05009755119681358,446.3529052734375,160.8955078125)"></image><text fill="#fafafa" font-family="Supersonic Rocketship" font-size="45" stroke-opacity="1" stroke-width="1" stroke="#0d0d0d" x="54.90154642456008" y="202.01522374115754" transform="matrix(0.2455856055021286,0,0,0.2455856055021286,434.9429626464844,161.45727539062494)" svgjs:data="{&quot;leading&quot;:&quot;1.3&quot;}"><tspan dy="0" x="54.90154642456008" svgjs:data="{&quot;newLined&quot;:true}">PLAYER</tspan></text><text fill="#fafafa" font-family="Supersonic Rocketship" font-size="45" stroke-opacity="1" stroke-width="1" stroke="#0d0d0d" x="54.90154642456008" y="202.01522374115754" transform="matrix(0.2455856055021286,0,0,0.2455856055021286,307.21282958984375,185.58750915527344)" svgjs:data="{&quot;leading&quot;:&quot;1.3&quot;}"><tspan dy="0" x="54.90154642456008" svgjs:data="{&quot;newLined&quot;:true}">PLAYER</tspan></text><image width="608" height="760" xlink:href="https://lct-designs.s3.us-west-1.amazonaws.com/assets/libs/new-york-yankees-2-baseball-banner-1642221614257.png" class="asset" transform="matrix(0.05009755119681358,0,0,0.05009755119681358,318.6227722167969,185.02574157714844)"></image><text fill="#fafafa" font-family="Supersonic Rocketship" font-size="45" stroke-opacity="1" stroke-width="1" stroke="#0d0d0d" x="54.90154642456008" y="202.01522374115754" transform="matrix(0.2455856055021286,0,0,0.2455856055021286,363.50024414062494,240.67851257324213)" svgjs:data="{&quot;leading&quot;:&quot;1.3&quot;}"><tspan dy="0" x="54.90154642456008" svgjs:data="{&quot;newLined&quot;:true}">PLAYER</tspan></text><image width="608" height="760" xlink:href="https://lct-designs.s3.us-west-1.amazonaws.com/assets/libs/new-york-yankees-2-baseball-banner-1642221614257.png" class="asset" transform="matrix(0.05009755119681358,0,0,0.05009755119681358,374.9101867675781,240.1167449951172)"></image><image width="608" height="760" xlink:href="https://lct-designs.s3.us-west-1.amazonaws.com/assets/libs/new-york-yankees-2-baseball-banner-1642221614257.png" class="asset" transform="matrix(0.05009755119681358,0,0,0.05009755119681358,438.3888244628906,235.74742126464844)"></image><text fill="#fafafa" font-family="Supersonic Rocketship" font-size="45" stroke-opacity="1" stroke-width="1" stroke="#0d0d0d" x="54.90154642456008" y="202.01522374115754" transform="matrix(0.2455856055021286,0,0,0.2455856055021286,426.9788818359375,236.30918884277344)" svgjs:data="{&quot;leading&quot;:&quot;1.3&quot;}"><tspan dy="0" x="54.90154642456008" svgjs:data="{&quot;newLined&quot;:true}">PLAYER</tspan></text><text fill="#fafafa" font-family="Supersonic Rocketship" font-size="45" stroke-opacity="1" stroke-width="1" stroke="#0d0d0d" x="54.90154642456008" y="202.01522374115754" transform="matrix(0.2455856055021286,0,0,0.2455856055021286,14.398448944091797,92.17230987548827)" svgjs:data="{&quot;leading&quot;:&quot;1.3&quot;}"><tspan dy="0" x="54.90154642456008" svgjs:data="{&quot;newLined&quot;:true}">PLAYER</tspan></text><image width="608" height="760" xlink:href="https://lct-designs.s3.us-west-1.amazonaws.com/assets/libs/new-york-yankees-2-baseball-banner-1642221614257.png" class="asset" transform="matrix(0.05009755119681358,0,0,0.05009755119681358,25.808391571044922,91.61054229736327)"></image><image width="608" height="760" xlink:href="https://lct-designs.s3.us-west-1.amazonaws.com/assets/libs/new-york-yankees-2-baseball-banner-1642221614257.png" class="asset" transform="matrix(0.05009755119681358,0,0,0.05009755119681358,94.6762466430664,105.80449676513673)"></image><text fill="#fafafa" font-family="Supersonic Rocketship" font-size="45" stroke-opacity="1" stroke-width="1" stroke="#0d0d0d" x="54.90154642456008" y="202.01522374115754" transform="matrix(0.2455856055021286,0,0,0.2455856055021286,83.26630401611328,106.36626434326173)" svgjs:data="{&quot;leading&quot;:&quot;1.3&quot;}"><tspan dy="0" x="54.90154642456008" svgjs:data="{&quot;newLined&quot;:true}">PLAYER</tspan></text><image width="608" height="760" xlink:href="https://lct-designs.s3.us-west-1.amazonaws.com/assets/libs/new-york-yankees-2-baseball-banner-1642221614257.png" class="asset" transform="matrix(0.05009755119681358,0,0,0.05009755119681358,26.23313522338868,164.48841857910156)"></image><text fill="#fafafa" font-family="Supersonic Rocketship" font-size="45" stroke-opacity="1" stroke-width="1" stroke="#0d0d0d" x="54.90154642456008" y="202.01522374115754" transform="matrix(0.2455856055021286,0,0,0.2455856055021286,14.823192596435554,165.05017089843744)" svgjs:data="{&quot;leading&quot;:&quot;1.3&quot;}"><tspan dy="0" x="54.90154642456008" svgjs:data="{&quot;newLined&quot;:true}">PLAYER</tspan></text><image width="608" height="760" xlink:href="https://lct-designs.s3.us-west-1.amazonaws.com/assets/libs/new-york-yankees-2-baseball-banner-1642221614257.png" class="asset" transform="matrix(0.05009755119681358,0,0,0.05009755119681358,50.005584716796875,236.34625244140625)"></image><text fill="#fafafa" font-family="Supersonic Rocketship" font-size="45" stroke-opacity="1" stroke-width="1" stroke="#0d0d0d" x="54.90154642456008" y="202.01522374115754" transform="matrix(0.2455856055021286,0,0,0.2455856055021286,38.59564208984375,236.90800476074213)" svgjs:data="{&quot;leading&quot;:&quot;1.3&quot;}"><tspan dy="0" x="54.90154642456008" svgjs:data="{&quot;newLined&quot;:true}">PLAYER</tspan></text><g class="mask" style="pointer-events: none;"><g><path fill="#BCBEC0" d="M-3642.4-2101.7v4589.1h7813.4v-4589.1H-3642.4z M500.5,67.2v233.3v66.7H0.5v-66.7V67.2V0.5h500V67.2z" transform="matrix(1,0,0,1,0,0)"></path><g transform="matrix(1,0,0,1,0,0)">
	<rect x="0.5" y="300.5" opacity="0.95" fill="#F1F2F2" width="500" height="66.7"></rect>
	<rect x="0.5" y="0.5" opacity="0.95" fill="#F1F2F2" width="500" height="66.7"></rect>
</g></g></g></svg>