<svg xmlns="http://www.w3.org/2000/svg" version="1.1" xmlns:xlink="http://www.w3.org/1999/xlink" xmlns:svgjs="http://svgjs.dev/svgjs" width="100%" height="100%" viewBox="1 1 499 365.70001220703125" preserveAspectRatio="none" data-info="{&quot;_id&quot;:4,&quot;name&quot;:&quot;POLE POCKET SOCCER BANNERS&quot;,&quot;information&quot;:&quot;- Size: 3’x5’\n- Material: heavy duty vinyl banner\n- Digitally printed on vinyl&quot;,&quot;price&quot;:&quot;95.00&quot;,&quot;sale_price&quot;:&quot;89.99&quot;,&quot;type&quot;:&quot;pole-pocket&quot;,&quot;cover&quot;:{&quot;key&quot;:&quot;assets/models/pole-1628062864266-1631924568908.png&quot;,&quot;url&quot;:&quot;https://lct-designs.s3.us-west-1.amazonaws.com/assets/models/pole-1628062864266-1631924568908.png&quot;},&quot;back&quot;:{&quot;key&quot;:&quot;assets/models/pole-1631924700152.svg&quot;,&quot;url&quot;:&quot;https://lct-designs.s3.us-west-1.amazonaws.com/assets/models/pole-1631924700152.svg&quot;},&quot;mask&quot;:{&quot;key&quot;:&quot;assets/models/pole-mask-1631925211715.svg&quot;,&quot;url&quot;:&quot;https://lct-designs.s3.us-west-1.amazonaws.com/assets/models/pole-mask-1631925211715.svg&quot;},&quot;pos&quot;:&quot;2&quot;,&quot;accessories&quot;:&quot;2,3&quot;}" style="background-color: white;"><g class="model" style="pointer-events: none;"><polygon fill="#FFFFFF" points="0.5,0.5 0.5,67.2 0.5,300.5 0.5,367.2 500.5,367.2 500.5,300.5 500.5,67.2 500.5,0.5 "></polygon></g><image width="760" height="556" xlink:href="https://lct-designs.s3.us-west-1.amazonaws.com/assets/libs/parrots-softball-banner-1644898063738.png" class="asset background locked" transform="matrix(0.6595323960558116,0,0,0.6595323960558116,0,0)"></image><text fill="#0d0d0d" font-family="Impact" font-size="45" x="192.06642438162737" y="201.88927563680983" stroke-opacity="1" stroke-width="1" stroke="#f7f7f7" transform="matrix(0.2860414385795593,0,0,0.2860414385795594,317.822998046875,26.148086547851577)" svgjs:data="{&quot;leading&quot;:&quot;1.3&quot;}"><tspan dy="0" x="192.06642438162737" svgjs:data="{&quot;newLined&quot;:true}">Coach: Coach's name</tspan></text><image width="760" height="745" xlink:href="https://lct-designs.s3.us-west-1.amazonaws.com/assets/libs/parrots-softball-banner-1644897998891.png" class="asset" transform="matrix(0.1629873812198639,0,0,0.1629873812198639,192.61080932617185,77.069580078125)"></image><text fill="#212121" font-family="Amity Jack" font-size="45" stroke-opacity="1" stroke-width="1" stroke="#f2eded" x="164.68127054565383" y="198.9363701339798" transform="matrix(0.2523230314254761,0,0,0.2523230314254761,239.98196411132812,210.68522644042972)" svgjs:data="{&quot;leading&quot;:&quot;1.3&quot;}"><tspan dy="0" x="164.68127054565383" svgjs:data="{&quot;newLined&quot;:true}">PLAYER</tspan></text><image width="760" height="760" xlink:href="https://lct-designs.s3.us-west-1.amazonaws.com/assets/libs/earthquakes-sofball-banner-1640682005965.png" class="asset" transform="matrix(0.036782968789339066,0,0,0.036782968789339066,287.43841552734375,220.79034423828128)"></image><image width="760" height="760" xlink:href="https://lct-designs.s3.us-west-1.amazonaws.com/assets/libs/earthquakes-sofball-banner-1640682005965.png" class="asset" transform="matrix(0.03678297996520996,0,0,0.03678297996520996,372.5615844726563,234.33744812011722)"></image><text fill="#212121" font-family="Amity Jack" font-size="45" stroke-opacity="1" stroke-width="1" stroke="#f2eded" x="164.68127054565383" y="198.9363701339798" transform="matrix(0.2523230314254761,0,0,0.2523230314254761,325.1051330566406,224.23233032226565)" svgjs:data="{&quot;leading&quot;:&quot;1.3&quot;}"><tspan dy="0" x="164.68127054565383" svgjs:data="{&quot;newLined&quot;:true}">PLAYER</tspan></text><image width="760" height="760" xlink:href="https://lct-designs.s3.us-west-1.amazonaws.com/assets/libs/earthquakes-sofball-banner-1640682005965.png" class="asset" transform="matrix(0.03678298741579056,0,0,0.03678298741579056,449.06405639648443,241.1109924316407)"></image><text fill="#212121" font-family="Amity Jack" font-size="45" stroke-opacity="1" stroke-width="1" stroke="#f2eded" x="164.68127054565383" y="198.9363701339798" transform="matrix(0.2523230314254761,0,0,0.2523230314254761,401.6076049804688,231.0058746337891)" svgjs:data="{&quot;leading&quot;:&quot;1.3&quot;}"><tspan dy="0" x="164.68127054565383" svgjs:data="{&quot;newLined&quot;:true}">PLAYER</tspan></text><image width="760" height="760" xlink:href="https://lct-designs.s3.us-west-1.amazonaws.com/assets/libs/earthquakes-sofball-banner-1640682005965.png" class="asset" transform="matrix(0.03678300604224205,0,0,0.03678300604224205,411.03451538085943,122.88182067871097)"></image><text fill="#212121" font-family="Amity Jack" font-size="45" stroke-opacity="1" stroke-width="1" stroke="#f2eded" x="164.68127054565383" y="198.9363701339798" transform="matrix(0.2523230314254761,0,0,0.2523230314254761,363.5780639648438,112.77670288085938)" svgjs:data="{&quot;leading&quot;:&quot;1.3&quot;}"><tspan dy="0" x="164.68127054565383" svgjs:data="{&quot;newLined&quot;:true}">PLAYER</tspan></text><text fill="#212121" font-family="Amity Jack" font-size="45" stroke-opacity="1" stroke-width="1" stroke="#f2eded" x="164.68127054565383" y="198.9363701339798" transform="matrix(0.2523230314254761,0,0,0.2523230314254761,294.1445617675782,108.46626281738281)" svgjs:data="{&quot;leading&quot;:&quot;1.3&quot;}"><tspan dy="0" x="164.68127054565383" svgjs:data="{&quot;newLined&quot;:true}">PLAYER</tspan></text><image width="760" height="760" xlink:href="https://lct-designs.s3.us-west-1.amazonaws.com/assets/libs/earthquakes-sofball-banner-1640682005965.png" class="asset" transform="matrix(0.03678300976753235,0,0,0.03678300976753235,341.60101318359375,118.5713806152344)"></image><text fill="#212121" font-family="Amity Jack" font-size="45" stroke-opacity="1" stroke-width="1" stroke="#f2eded" x="164.68127054565383" y="198.9363701339798" transform="matrix(0.2523230314254761,0,0,0.2523230314254761,103.4056396484375,77.67741394042972)" svgjs:data="{&quot;leading&quot;:&quot;1.3&quot;}"><tspan dy="0" x="164.68127054565383" svgjs:data="{&quot;newLined&quot;:true}">PLAYER</tspan></text><image width="760" height="760" xlink:href="https://lct-designs.s3.us-west-1.amazonaws.com/assets/libs/earthquakes-sofball-banner-1640682005965.png" class="asset" transform="matrix(0.03678300976753235,0,0,0.03678300976753235,150.86209106445312,87.78253173828125)"></image><text fill="#212121" font-family="Amity Jack" font-size="45" stroke-opacity="1" stroke-width="1" stroke="#f2eded" x="164.68127054565383" y="198.9363701339798" transform="matrix(0.2523230314254761,0,0,0.2523230314254761,19.80958557128907,85.06674194335938)" svgjs:data="{&quot;leading&quot;:&quot;1.3&quot;}"><tspan dy="0" x="164.68127054565383" svgjs:data="{&quot;newLined&quot;:true}">PLAYER</tspan></text><image width="760" height="760" xlink:href="https://lct-designs.s3.us-west-1.amazonaws.com/assets/libs/earthquakes-sofball-banner-1640682005965.png" class="asset" transform="matrix(0.03678300976753235,0,0,0.03678300976753235,67.2660369873047,95.17185974121094)"></image><text fill="#212121" font-family="Amity Jack" font-size="45" stroke-opacity="1" stroke-width="1" stroke="#f2eded" x="164.68127054565383" y="198.9363701339798" transform="matrix(0.2523230314254761,0,0,0.2523230314254761,74.14456176757812,157.11263275146484)" svgjs:data="{&quot;leading&quot;:&quot;1.3&quot;}"><tspan dy="0" x="164.68127054565383" svgjs:data="{&quot;newLined&quot;:true}">PLAYER</tspan></text><image width="760" height="760" xlink:href="https://lct-designs.s3.us-west-1.amazonaws.com/assets/libs/earthquakes-sofball-banner-1640682005965.png" class="asset" transform="matrix(0.03678300976753235,0,0,0.03678300976753235,121.60101318359378,167.21775054931643)"></image><text fill="#212121" font-family="Amity Jack" font-size="45" stroke-opacity="1" stroke-width="1" stroke="#f2eded" x="164.68127054565383" y="198.9363701339798" transform="matrix(0.2523230314254761,0,0,0.2487247711470957,-8.835723876953125,169.57227078459258)" svgjs:data="{&quot;leading&quot;:&quot;1.3&quot;}"><tspan dy="0" x="164.68127054565383" svgjs:data="{&quot;newLined&quot;:true}">PLAYER</tspan></text><image width="760" height="760" xlink:href="https://lct-designs.s3.us-west-1.amazonaws.com/assets/libs/earthquakes-sofball-banner-1640682005965.png" class="asset" transform="matrix(0.03678300976753235,0,0,0.03625846453589787,38.6207275390625,179.53328424216673)"></image><text fill="#212121" font-family="Amity Jack" font-size="45" stroke-opacity="1" stroke-width="1" stroke="#f2eded" x="164.68127054565383" y="198.9363701339798" transform="matrix(0.2523230314254761,0,0,0.24872477352619174,66.43521118164064,245.9286041259766)" svgjs:data="{&quot;leading&quot;:&quot;1.3&quot;}"><tspan dy="0" x="164.68127054565383" svgjs:data="{&quot;newLined&quot;:true}">PLAYER</tspan></text><image width="760" height="760" xlink:href="https://lct-designs.s3.us-west-1.amazonaws.com/assets/libs/earthquakes-sofball-banner-1640682005965.png" class="asset" transform="matrix(0.03678300976753235,0,0,0.03625846281647682,113.89166259765625,255.8896179199219)"></image><image width="760" height="760" xlink:href="https://lct-designs.s3.us-west-1.amazonaws.com/assets/libs/earthquakes-sofball-banner-1640682005965.png" class="asset" transform="matrix(0.03678300976753235,0,0,0.03625846281647682,201.47787475585938,238.0320739746094)"></image><text fill="#212121" font-family="Amity Jack" font-size="45" stroke-opacity="1" stroke-width="1" stroke="#f2eded" x="164.68127054565383" y="198.9363701339798" transform="matrix(0.2523230314254761,0,0,0.24872477352619174,154.02142333984375,228.0710601806641)" svgjs:data="{&quot;leading&quot;:&quot;1.3&quot;}"><tspan dy="0" x="164.68127054565383" svgjs:data="{&quot;newLined&quot;:true}">PLAYER</tspan></text><g class="mask" style="pointer-events: none;"><g><path fill="#BCBEC0" d="M-3642.4-2101.7v4589.1h7813.4v-4589.1H-3642.4z M500.5,67.2v233.3v66.7H0.5v-66.7V67.2V0.5h500V67.2z" transform="matrix(1,0,0,1,0,0)"></path><g transform="matrix(1,0,0,1,0,0)">
	<rect x="0.5" y="300.5" opacity="0.95" fill="#F1F2F2" width="500" height="66.7"></rect>
	<rect x="0.5" y="0.5" opacity="0.95" fill="#F1F2F2" width="500" height="66.7"></rect>
</g></g></g></svg>