<svg xmlns="http://www.w3.org/2000/svg" version="1.1" xmlns:xlink="http://www.w3.org/1999/xlink" xmlns:svgjs="http://svgjs.dev/svgjs" width="100%" height="100%" viewBox="1 1 499 365.70001220703125" preserveAspectRatio="none" data-info="{&quot;_id&quot;:4,&quot;name&quot;:&quot;POLE POCKET SOCCER BANNERS&quot;,&quot;information&quot;:&quot;- Size: 3’x5’\n- Material: heavy duty vinyl banner\n- Digitally printed on vinyl&quot;,&quot;price&quot;:&quot;95.00&quot;,&quot;sale_price&quot;:&quot;89.99&quot;,&quot;type&quot;:&quot;pole-pocket&quot;,&quot;cover&quot;:{&quot;key&quot;:&quot;assets/models/pole-1628062864266-1631924568908.png&quot;,&quot;url&quot;:&quot;https://lct-designs.s3.us-west-1.amazonaws.com/assets/models/pole-1628062864266-1631924568908.png&quot;},&quot;back&quot;:{&quot;key&quot;:&quot;assets/models/pole-1631924700152.svg&quot;,&quot;url&quot;:&quot;https://lct-designs.s3.us-west-1.amazonaws.com/assets/models/pole-1631924700152.svg&quot;},&quot;mask&quot;:{&quot;key&quot;:&quot;assets/models/pole-mask-1631925211715.svg&quot;,&quot;url&quot;:&quot;https://lct-designs.s3.us-west-1.amazonaws.com/assets/models/pole-mask-1631925211715.svg&quot;},&quot;pos&quot;:&quot;2&quot;,&quot;accessories&quot;:&quot;2,3&quot;}" style="background-color: white;"><g class="model" style="pointer-events: none;"><polygon fill="#FFFFFF" points="0.5,0.5 0.5,67.2 0.5,300.5 0.5,367.2 500.5,367.2 500.5,300.5 500.5,67.2 500.5,0.5 "></polygon></g><image width="760" height="553" xlink:href="https://lct-designs.s3.us-west-1.amazonaws.com/assets/libs/diamond-black-baseball-banner-1644812315945.png" class="asset background locked" transform="matrix(0.6631103294883024,0,0,0.6631103294883024,0,0)"></image><text fill="#ffffff" font-family="Antilles" font-size="33" stroke-opacity="1" stroke-width="1" stroke="#000000" x="192.64244534681094" y="188.8290392676606" transform="matrix(0.5157687664031982,0,0,0.5157687664031982,-87.53413391113281,-11.366254806518555)" svgjs:data="{&quot;leading&quot;:&quot;1.3&quot;}"><tspan dy="0" x="192.64244534681094" svgjs:data="{&quot;newLined&quot;:true}">       COACH: COACH'S NAME</tspan><tspan dy="42.9" x="192.64244534681094" svgjs:data="{&quot;newLined&quot;:true}"></tspan></text><text fill="#ffffff" font-family="Antilles" font-size="33" stroke-opacity="1" stroke-width="1" stroke="#000000" x="192.64244534681094" y="188.8290392676606" transform="matrix(0.5157687664031982,0,0,0.5157687664031982,204.43649291992188,-12.41448116302491)" svgjs:data="{&quot;leading&quot;:&quot;1.3&quot;}"><tspan dy="0" x="192.64244534681094" svgjs:data="{&quot;newLined&quot;:true}">TEAM MOM: TEAM MOM'S NAME</tspan></text><text fill="#ffffff" font-family="Antilles" font-size="40" x="231.64330556104434" y="188.82903717637487" stroke-opacity="1" stroke-width="1" stroke="#000000" transform="matrix(0.4157278835773468,0,0,0.41572788357734675,157.77783203125,20.192340850830078)" svgjs:data="{&quot;leading&quot;:&quot;1.3&quot;}"><tspan dy="0" x="231.64330556104434" svgjs:data="{&quot;newLined&quot;:true}">player</tspan></text><image width="760" height="760" xlink:href="https://lct-designs.s3.us-west-1.amazonaws.com/assets/libs/blue-diamonds-1-soflball-banner-1639966281996.png" class="asset" transform="matrix(0.0453779399394989,0,0,0.0453779399394989,257.8890991210937,102.42757415771484)"></image><image width="760" height="550" xlink:href="https://lct-designs.s3.us-west-1.amazonaws.com/assets/libs/diamond-black-baseball-banner-1644289745136.png" class="asset" transform="matrix(0.3097727298736572,0,0,0.30977272987365717,25.471698760986328,111.5263748168945)"></image><image width="618" height="760" xlink:href="https://lct-designs.s3.us-west-1.amazonaws.com/assets/libs/diamond-black-baseball-banner-1644287463527.png" class="asset" transform="matrix(0.13985420763492584,0,0,0.13985420763492584,18.566408157348633,91.94538879394531)"></image><text fill="#ffffff" font-family="Antilles" font-size="40" x="231.64330556104434" y="188.82903717637487" stroke-opacity="1" stroke-width="1" stroke="#000000" transform="matrix(0.4157278835773468,0,0,0.41572788357734675,225.95394897460938,20.716449737548828)" svgjs:data="{&quot;leading&quot;:&quot;1.3&quot;}"><tspan dy="0" x="231.64330556104434" svgjs:data="{&quot;newLined&quot;:true}">player</tspan></text><image width="760" height="760" xlink:href="https://lct-designs.s3.us-west-1.amazonaws.com/assets/libs/blue-diamonds-1-soflball-banner-1639966281996.png" class="asset" transform="matrix(0.0453779399394989,0,0,0.0453779399394989,326.0652160644531,102.9516830444336)"></image><text fill="#ffffff" font-family="Antilles" font-size="40" x="231.64330556104434" y="188.82903717637487" stroke-opacity="1" stroke-width="1" stroke="#000000" transform="matrix(0.4157278835773468,0,0,0.41572788357734675,292.5577087402344,20.192340850830078)" svgjs:data="{&quot;leading&quot;:&quot;1.3&quot;}"><tspan dy="0" x="231.64330556104434" svgjs:data="{&quot;newLined&quot;:true}">player</tspan></text><image width="760" height="760" xlink:href="https://lct-designs.s3.us-west-1.amazonaws.com/assets/libs/blue-diamonds-1-soflball-banner-1639966281996.png" class="asset" transform="matrix(0.0453779399394989,0,0,0.0453779399394989,392.6689758300781,102.42757415771484)"></image><text fill="#ffffff" font-family="Antilles" font-size="40" x="231.64330556104434" y="188.82903717637487" stroke-opacity="1" stroke-width="1" stroke="#000000" transform="matrix(0.4157278835773468,0,0,0.41572788357734675,360.7338256835937,20.192340850830078)" svgjs:data="{&quot;leading&quot;:&quot;1.3&quot;}"><tspan dy="0" x="231.64330556104434" svgjs:data="{&quot;newLined&quot;:true}">player</tspan></text><image width="760" height="760" xlink:href="https://lct-designs.s3.us-west-1.amazonaws.com/assets/libs/blue-diamonds-1-soflball-banner-1639966281996.png" class="asset" transform="matrix(0.0453779399394989,0,0,0.0453779399394989,460.84509277343744,102.42757415771484)"></image><text fill="#ffffff" font-family="Antilles" font-size="40" x="231.64330556104434" y="188.82903717637487" stroke-opacity="1" stroke-width="1" stroke="#000000" transform="matrix(0.4157278835773468,0,0,0.41572788357734675,193.5010986328125,75.22378158569336)" svgjs:data="{&quot;leading&quot;:&quot;1.3&quot;}"><tspan dy="0" x="231.64330556104434" svgjs:data="{&quot;newLined&quot;:true}">player</tspan></text><image width="760" height="760" xlink:href="https://lct-designs.s3.us-west-1.amazonaws.com/assets/libs/blue-diamonds-1-soflball-banner-1639966281996.png" class="asset" transform="matrix(0.0453779399394989,0,0,0.0453779399394989,293.61236572265625,157.4590148925781)"></image><text fill="#ffffff" font-family="Antilles" font-size="40" x="231.64330556104434" y="188.82903717637487" stroke-opacity="1" stroke-width="1" stroke="#000000" transform="matrix(0.4157278835773468,0,0,0.41572788357734675,260.1048583984375,74.69967651367188)" svgjs:data="{&quot;leading&quot;:&quot;1.3&quot;}"><tspan dy="0" x="231.64330556104434" svgjs:data="{&quot;newLined&quot;:true}">player</tspan></text><image width="760" height="760" xlink:href="https://lct-designs.s3.us-west-1.amazonaws.com/assets/libs/blue-diamonds-1-soflball-banner-1639966281996.png" class="asset" transform="matrix(0.0453779399394989,0,0,0.0453779399394989,360.21612548828125,156.93490600585935)"></image><text fill="#ffffff" font-family="Antilles" font-size="40" x="231.64330556104434" y="188.82903717637487" stroke-opacity="1" stroke-width="1" stroke="#000000" transform="matrix(0.4157278835773468,0,0,0.41572788357734675,328.2809753417969,74.69967651367188)" svgjs:data="{&quot;leading&quot;:&quot;1.3&quot;}"><tspan dy="0" x="231.64330556104434" svgjs:data="{&quot;newLined&quot;:true}">player</tspan></text><image width="760" height="760" xlink:href="https://lct-designs.s3.us-west-1.amazonaws.com/assets/libs/blue-diamonds-1-soflball-banner-1639966281996.png" class="asset" transform="matrix(0.0453779399394989,0,0,0.0453779399394989,428.3922424316406,156.93490600585935)"></image><text fill="#ffffff" font-family="Antilles" font-size="40" x="231.64330556104434" y="188.82903717637487" stroke-opacity="1" stroke-width="1" stroke="#000000" transform="matrix(0.4157278835773468,0,0,0.41572788357734675,229.224365234375,127.11058044433594)" svgjs:data="{&quot;leading&quot;:&quot;1.3&quot;}"><tspan dy="0" x="231.64330556104434" svgjs:data="{&quot;newLined&quot;:true}">player</tspan></text><image width="760" height="760" xlink:href="https://lct-designs.s3.us-west-1.amazonaws.com/assets/libs/blue-diamonds-1-soflball-banner-1639966281996.png" class="asset" transform="matrix(0.0453779399394989,0,0,0.0453779399394989,329.33563232421875,209.34580993652344)"></image><text fill="#ffffff" font-family="Antilles" font-size="40" x="231.64330556104434" y="188.82903717637487" stroke-opacity="1" stroke-width="1" stroke="#000000" transform="matrix(0.4157278835773468,0,0,0.41572788357734675,297.4004821777344,127.11058044433594)" svgjs:data="{&quot;leading&quot;:&quot;1.3&quot;}"><tspan dy="0" x="231.64330556104434" svgjs:data="{&quot;newLined&quot;:true}">player</tspan></text><image width="760" height="760" xlink:href="https://lct-designs.s3.us-west-1.amazonaws.com/assets/libs/blue-diamonds-1-soflball-banner-1639966281996.png" class="asset" transform="matrix(0.0453779399394989,0,0,0.0453779399394989,397.5117492675781,209.34580993652344)"></image><text fill="#ffffff" font-family="Antilles" font-size="40" x="231.64330556104434" y="188.82903717637487" stroke-opacity="1" stroke-width="1" stroke="#000000" transform="matrix(0.4157278835773468,0,0,0.41572788357734675,361.3837280273437,127.63468933105466)" svgjs:data="{&quot;leading&quot;:&quot;1.3&quot;}"><tspan dy="0" x="231.64330556104434" svgjs:data="{&quot;newLined&quot;:true}">player</tspan></text><image width="760" height="760" xlink:href="https://lct-designs.s3.us-west-1.amazonaws.com/assets/libs/blue-diamonds-1-soflball-banner-1639966281996.png" class="asset" transform="matrix(0.0453779399394989,0,0,0.0453779399394989,461.49499511718744,209.86991882324213)"></image><text fill="#ffffff" font-family="Antilles" font-size="40" x="231.64330556104434" y="188.82903717637487" stroke-opacity="1" stroke-width="1" stroke="#000000" transform="matrix(0.4157278835773468,0,0,0.41572788357734675,198.90994262695312,178.47328186035153)" svgjs:data="{&quot;leading&quot;:&quot;1.3&quot;}"><tspan dy="0" x="231.64330556104434" svgjs:data="{&quot;newLined&quot;:true}">player</tspan></text><image width="760" height="760" xlink:href="https://lct-designs.s3.us-west-1.amazonaws.com/assets/libs/blue-diamonds-1-soflball-banner-1639966281996.png" class="asset" transform="matrix(0.0453779399394989,0,0,0.0453779399394989,299.0212097167969,260.708511352539)"></image><text fill="#ffffff" font-family="Antilles" font-size="40" x="231.64330556104434" y="188.82903717637487" stroke-opacity="1" stroke-width="1" stroke="#000000" transform="matrix(0.4157278835773468,0,0,0.41572788357734675,262.8931884765625,178.99739074707028)" svgjs:data="{&quot;leading&quot;:&quot;1.3&quot;}"><tspan dy="0" x="231.64330556104434" svgjs:data="{&quot;newLined&quot;:true}">player</tspan></text><image width="760" height="760" xlink:href="https://lct-designs.s3.us-west-1.amazonaws.com/assets/libs/blue-diamonds-1-soflball-banner-1639966281996.png" class="asset" transform="matrix(0.0453779399394989,0,0,0.0453779399394989,363.00445556640625,261.23260498046875)"></image><text fill="#ffffff" font-family="Antilles" font-size="40" x="231.64330556104434" y="188.82903717637487" stroke-opacity="1" stroke-width="1" stroke="#000000" transform="matrix(0.4157278835773468,0,0,0.41572788357734675,332.1175231933594,179.52149951457974)" svgjs:data="{&quot;leading&quot;:&quot;1.3&quot;}"><tspan dy="0" x="231.64330556104434" svgjs:data="{&quot;newLined&quot;:true}">player</tspan></text><image width="760" height="760" xlink:href="https://lct-designs.s3.us-west-1.amazonaws.com/assets/libs/blue-diamonds-1-soflball-banner-1639966281996.png" class="asset" transform="matrix(0.0453779399394989,0,0,0.0453779399394989,432.2287902832031,261.7567137479782)"></image><g class="mask" style="pointer-events: none;"><g><path fill="#BCBEC0" d="M-3642.4-2101.7v4589.1h7813.4v-4589.1H-3642.4z M500.5,67.2v233.3v66.7H0.5v-66.7V67.2V0.5h500V67.2z" transform="matrix(1,0,0,1,0,0)"></path><g transform="matrix(1,0,0,1,0,0)">
	<rect x="0.5" y="300.5" opacity="0.95" fill="#F1F2F2" width="500" height="66.7"></rect>
	<rect x="0.5" y="0.5" opacity="0.95" fill="#F1F2F2" width="500" height="66.7"></rect>
</g></g></g></svg>