<svg xmlns="http://www.w3.org/2000/svg" version="1.1" xmlns:xlink="http://www.w3.org/1999/xlink" xmlns:svgjs="http://svgjs.dev/svgjs" width="100%" height="100%" viewBox="1 1 499 365.70001220703125" preserveAspectRatio="none" data-info="{&quot;_id&quot;:4,&quot;name&quot;:&quot;POLE POCKET SOCCER BANNERS&quot;,&quot;information&quot;:&quot;- Size: 3’x5’\n- Material: heavy duty vinyl banner\n- Digitally printed on vinyl&quot;,&quot;price&quot;:&quot;95.00&quot;,&quot;sale_price&quot;:&quot;89.99&quot;,&quot;type&quot;:&quot;pole-pocket&quot;,&quot;cover&quot;:{&quot;key&quot;:&quot;assets/models/pole-1628062864266-1631924568908.png&quot;,&quot;url&quot;:&quot;https://lct-designs.s3.us-west-1.amazonaws.com/assets/models/pole-1628062864266-1631924568908.png&quot;},&quot;back&quot;:{&quot;key&quot;:&quot;assets/models/pole-1631924700152.svg&quot;,&quot;url&quot;:&quot;https://lct-designs.s3.us-west-1.amazonaws.com/assets/models/pole-1631924700152.svg&quot;},&quot;mask&quot;:{&quot;key&quot;:&quot;assets/models/pole-mask-1631925211715.svg&quot;,&quot;url&quot;:&quot;https://lct-designs.s3.us-west-1.amazonaws.com/assets/models/pole-mask-1631925211715.svg&quot;},&quot;pos&quot;:&quot;2&quot;,&quot;accessories&quot;:&quot;2,3&quot;}" style="background-color: white;"><g class="model" style="pointer-events: none;"><polygon fill="#FFFFFF" points="0.5,0.5 0.5,67.2 0.5,300.5 0.5,367.2 500.5,367.2 500.5,300.5 500.5,67.2 500.5,0.5 "></polygon></g><image width="760" height="556" xlink:href="https://lct-designs.s3.us-west-1.amazonaws.com/assets/libs/new-york-yankees-3-baseball-banner-6-1641953160147.png" class="asset background locked" transform="matrix(0.6595323960558116,0,0,0.6595323960558116,0,0)"></image><text fill="#0d0d0d" font-family="Impact" font-size="45" x="192.06642438162737" y="201.88927563680983" stroke-opacity="1" stroke-width="1" stroke="#f7f7f7" transform="matrix(0.2855423390865326,0,0,0.2855423390865326,148.3387298583984,36.0323486328125)" svgjs:data="{&quot;leading&quot;:&quot;1.3&quot;}"><tspan dy="0" x="192.06642438162737" svgjs:data="{&quot;newLined&quot;:true}">Coach: Coach's name</tspan></text><image width="684" height="760" xlink:href="https://lct-designs.s3.us-west-1.amazonaws.com/assets/libs/new-york-yankees-2-baseball-banner-1641953891679.png" class="asset" transform="matrix(0.20327822864055634,0,0,0.20327822864055634,183.1437835693359,112.99030303955075)"></image><image width="734" height="760" xlink:href="https://lct-designs.s3.us-west-1.amazonaws.com/assets/libs/new-york-yankees-3-baseball-banner-9-1641953788875.png" class="asset" transform="matrix(0.13157889246940613,0,0,0.13157889246940613,387.3392944335937,187.24340820312503)"></image><text fill="#141414" font-family="Supersonic Rocketship" font-size="45" stroke-opacity="1" stroke-width="1" stroke="#fdfcfc" x="54.90154642456008" y="202.01522374115754" transform="matrix(0.2455856055021286,0,0,0.2455856055021286,431.2303771972656,55.46696472167969)" svgjs:data="{&quot;leading&quot;:&quot;1.3&quot;}"><tspan dy="0" x="54.90154642456008" svgjs:data="{&quot;newLined&quot;:true}">PLAYER</tspan></text><image width="668" height="760" xlink:href="https://lct-designs.s3.us-west-1.amazonaws.com/assets/libs/new-york-yankees-3-baseball-banner--1642383571706.png" class="asset" transform="matrix(0.045697338879108436,0,0,0.04569733887910843,411.50173950195307,81.8519058227539)"></image><text fill="#141414" font-family="Supersonic Rocketship" font-size="45" stroke-opacity="1" stroke-width="1" stroke="#fdfcfc" x="54.90154642456008" y="202.01522374115754" transform="matrix(0.2455856055021286,0,0,0.2455856055021286,33.086669921875,226.12933349609372)" svgjs:data="{&quot;leading&quot;:&quot;1.3&quot;}"><tspan dy="0" x="54.90154642456008" svgjs:data="{&quot;newLined&quot;:true}">PLAYER</tspan></text><text fill="#141414" font-family="Supersonic Rocketship" font-size="45" stroke-opacity="1" stroke-width="1" stroke="#fdfcfc" x="54.90154642456008" y="202.01522374115754" transform="matrix(0.2455856055021286,0,0,0.2455856055021286,346.61959850788116,94.98877716064453)" svgjs:data="{&quot;leading&quot;:&quot;1.3&quot;}"><tspan dy="0" x="54.90154642456008" svgjs:data="{&quot;newLined&quot;:true}">PLAYER</tspan></text><image width="668" height="760" xlink:href="https://lct-designs.s3.us-west-1.amazonaws.com/assets/libs/new-york-yankees-3-baseball-banner--1642383571706.png" class="asset" transform="matrix(0.045697338879108436,0,0,0.04569733887910843,327.4897767305374,121.37371826171875)"></image><text fill="#141414" font-family="Supersonic Rocketship" font-size="45" stroke-opacity="1" stroke-width="1" stroke="#fdfcfc" x="54.90154642456008" y="202.01522374115754" transform="matrix(0.2455856055021286,0,0,0.2455856055021286,427.8770751953125,108.76152801513672)" svgjs:data="{&quot;leading&quot;:&quot;1.3&quot;}"><tspan dy="0" x="54.90154642456008" svgjs:data="{&quot;newLined&quot;:true}">PLAYER</tspan></text><image width="668" height="760" xlink:href="https://lct-designs.s3.us-west-1.amazonaws.com/assets/libs/new-york-yankees-3-baseball-banner--1642383571706.png" class="asset" transform="matrix(0.045697338879108436,0,0,0.04569733887910843,408.1484375,135.14646911621094)"></image><image width="668" height="760" xlink:href="https://lct-designs.s3.us-west-1.amazonaws.com/assets/libs/new-york-yankees-3-baseball-banner--1642383571706.png" class="asset" transform="matrix(0.045697338879108436,0,0,0.04569733887910843,13.3580322265625,252.51428222656247)"></image><image width="668" height="760" xlink:href="https://lct-designs.s3.us-west-1.amazonaws.com/assets/libs/new-york-yankees-3-baseball-banner--1642383571706.png" class="asset" transform="matrix(0.045697338879108436,0,0,0.04569733887910843,30.543655395507812,195.62683105468753)"></image><text fill="#141414" font-family="Supersonic Rocketship" font-size="45" stroke-opacity="1" stroke-width="1" stroke="#fdfcfc" x="54.90154642456008" y="202.01522374115754" transform="matrix(0.2455856055021286,0,0,0.2455856055021286,126.32019805908206,217.14712524414065)" svgjs:data="{&quot;leading&quot;:&quot;1.3&quot;}"><tspan dy="0" x="54.90154642456008" svgjs:data="{&quot;newLined&quot;:true}">PLAYER</tspan></text><image width="668" height="760" xlink:href="https://lct-designs.s3.us-west-1.amazonaws.com/assets/libs/new-york-yankees-3-baseball-banner--1642383571706.png" class="asset" transform="matrix(0.045697338879108436,0,0,0.04569733887910843,106.59156799316406,243.5320739746094)"></image><text fill="#141414" font-family="Supersonic Rocketship" font-size="45" stroke-opacity="1" stroke-width="1" stroke="#fdfcfc" x="54.90154642456008" y="202.01522374115754" transform="matrix(0.2455856055021286,0,0,0.2455856055021286,50.27229309082031,169.24188232421878)" svgjs:data="{&quot;leading&quot;:&quot;1.3&quot;}"><tspan dy="0" x="54.90154642456008" svgjs:data="{&quot;newLined&quot;:true}">PLAYER</tspan></text><text fill="#141414" font-family="Supersonic Rocketship" font-size="45" stroke-opacity="1" stroke-width="1" stroke="#fdfcfc" x="54.90154642456008" y="202.01522374115754" transform="matrix(0.2455856055021286,0,0,0.2455856055021286,35.30223846435547,120.13900756835938)" svgjs:data="{&quot;leading&quot;:&quot;1.3&quot;}"><tspan dy="0" x="54.90154642456008" svgjs:data="{&quot;newLined&quot;:true}">PLAYER</tspan></text><image width="668" height="760" xlink:href="https://lct-designs.s3.us-west-1.amazonaws.com/assets/libs/new-york-yankees-3-baseball-banner--1642383571706.png" class="asset" transform="matrix(0.045697338879108436,0,0,0.04569733887910843,15.573600769042969,146.52395629882812)"></image><image width="668" height="760" xlink:href="https://lct-designs.s3.us-west-1.amazonaws.com/assets/libs/new-york-yankees-3-baseball-banner--1642383571706.png" class="asset" transform="matrix(0.045697338879108436,0,0,0.04569733887910843,32.759223937988274,89.63650512695312)"></image><text fill="#141414" font-family="Supersonic Rocketship" font-size="45" stroke-opacity="1" stroke-width="1" stroke="#fdfcfc" x="54.90154642456008" y="202.01522374115754" transform="matrix(0.2455856055021286,0,0,0.2455856055021286,55.48188018798828,65.04799270629883)" svgjs:data="{&quot;leading&quot;:&quot;1.3&quot;}"><tspan dy="0" x="54.90154642456008" svgjs:data="{&quot;newLined&quot;:true}">PLAYER</tspan></text><text fill="#141414" font-family="Supersonic Rocketship" font-size="45" stroke-opacity="1" stroke-width="1" stroke="#fdfcfc" x="54.90154642456008" y="202.01522374115754" transform="matrix(0.2455856055021286,0,0,0.2455856055021286,121.35014343261719,136.9058380126953)" svgjs:data="{&quot;leading&quot;:&quot;1.3&quot;}"><tspan dy="0" x="54.90154642456008" svgjs:data="{&quot;newLined&quot;:true}">PLAYER</tspan></text><image width="668" height="760" xlink:href="https://lct-designs.s3.us-west-1.amazonaws.com/assets/libs/new-york-yankees-3-baseball-banner--1642383571706.png" class="asset" transform="matrix(0.045697338879108436,0,0,0.04569733887910843,101.62150573730469,163.29078674316403)"></image><image width="668" height="760" xlink:href="https://lct-designs.s3.us-west-1.amazonaws.com/assets/libs/new-york-yankees-3-baseball-banner--1642383571706.png" class="asset" transform="matrix(0.045697338879108436,0,0,0.04569733887910843,115.21429443359375,105.20570373535156)"></image><text fill="#141414" font-family="Supersonic Rocketship" font-size="45" stroke-opacity="1" stroke-width="1" stroke="#fdfcfc" x="54.90154642456008" y="202.01522374115754" transform="matrix(0.2455856055021286,0,0,0.2455856055021286,137.93695068359375,80.61719131469727)" svgjs:data="{&quot;leading&quot;:&quot;1.3&quot;}"><tspan dy="0" x="54.90154642456008" svgjs:data="{&quot;newLined&quot;:true}">PLAYER</tspan></text><text fill="#141414" font-family="Supersonic Rocketship" font-size="45" stroke-opacity="1" stroke-width="1" stroke="#fdfcfc" x="54.90154642456008" y="202.01522374115754" transform="matrix(0.2455856055021286,0,0,0.2455856055021286,339.85317993164057,217.14714050292972)" svgjs:data="{&quot;leading&quot;:&quot;1.3&quot;}"><tspan dy="0" x="54.90154642456008" svgjs:data="{&quot;newLined&quot;:true}">PLAYER</tspan></text><image width="668" height="760" xlink:href="https://lct-designs.s3.us-west-1.amazonaws.com/assets/libs/new-york-yankees-3-baseball-banner--1642383571706.png" class="asset" transform="matrix(0.045697338879108436,0,0,0.04569733887910843,320.1245422363281,243.5320739746094)"></image><g class="mask" style="pointer-events: none;"><g><path fill="#BCBEC0" d="M-3642.4-2101.7v4589.1h7813.4v-4589.1H-3642.4z M500.5,67.2v233.3v66.7H0.5v-66.7V67.2V0.5h500V67.2z" transform="matrix(1,0,0,1,0,0)"></path><g transform="matrix(1,0,0,1,0,0)">
	<rect x="0.5" y="300.5" opacity="0.95" fill="#F1F2F2" width="500" height="66.7"></rect>
	<rect x="0.5" y="0.5" opacity="0.95" fill="#F1F2F2" width="500" height="66.7"></rect>
</g></g></g></svg>