<svg xmlns="http://www.w3.org/2000/svg" version="1.1" xmlns:xlink="http://www.w3.org/1999/xlink" xmlns:svgjs="http://svgjs.dev/svgjs" width="100%" height="100%" viewBox="1 1 499 365.70001220703125" preserveAspectRatio="none" data-info="{&quot;_id&quot;:4,&quot;name&quot;:&quot;POLE POCKET SOCCER BANNERS&quot;,&quot;information&quot;:&quot;- Size: 3’x5’\n- Material: heavy duty vinyl banner\n- Digitally printed on vinyl&quot;,&quot;price&quot;:&quot;95.00&quot;,&quot;sale_price&quot;:&quot;89.99&quot;,&quot;type&quot;:&quot;pole-pocket&quot;,&quot;cover&quot;:{&quot;key&quot;:&quot;assets/models/pole-1628062864266-1631924568908.png&quot;,&quot;url&quot;:&quot;https://lct-designs.s3.us-west-1.amazonaws.com/assets/models/pole-1628062864266-1631924568908.png&quot;},&quot;back&quot;:{&quot;key&quot;:&quot;assets/models/pole-1631924700152.svg&quot;,&quot;url&quot;:&quot;https://lct-designs.s3.us-west-1.amazonaws.com/assets/models/pole-1631924700152.svg&quot;},&quot;mask&quot;:{&quot;key&quot;:&quot;assets/models/pole-mask-1631925211715.svg&quot;,&quot;url&quot;:&quot;https://lct-designs.s3.us-west-1.amazonaws.com/assets/models/pole-mask-1631925211715.svg&quot;},&quot;pos&quot;:&quot;2&quot;,&quot;accessories&quot;:&quot;2,3&quot;}" style="background-color: white;"><g class="model" style="pointer-events: none;"><polygon fill="#FFFFFF" points="0.5,0.5 0.5,67.2 0.5,300.5 0.5,367.2 500.5,367.2 500.5,300.5 500.5,67.2 500.5,0.5 "></polygon></g><image width="760" height="553" xlink:href="https://lct-designs.s3.us-west-1.amazonaws.com/assets/libs/mariners-baseball-banner-1644906669449.png" class="asset background locked" transform="matrix(0.6631103294883024,0,0,0.6631103294883024,0,0)"></image><text fill="#0d0d0d" font-family="Impact" font-size="45" x="192.06642438162737" y="201.88927563680983" stroke-opacity="1" stroke-width="1" stroke="#f7f7f7" transform="matrix(0.32987059082075554,0,0,0.3298705908207556,117.07395858092607,93.80589304064782)" svgjs:data="{&quot;leading&quot;:&quot;1.3&quot;}"><tspan dy="0" x="192.06642438162737" svgjs:data="{&quot;newLined&quot;:true}">Coach: Coach's name</tspan></text><image width="760" height="268" xlink:href="https://lct-designs.s3.us-west-1.amazonaws.com/assets/libs/mariners-3-asset-2-1644399092561.png" class="asset" transform="matrix(0.32457774877548223,0,0,0.32457774877548223,113.79308319091797,83.8200912475586)"></image><text fill="#0a0a0a" font-family="Impact" font-size="45" x="192.06642438162737" y="201.88927563680983" stroke-opacity="1" stroke-width="1" stroke="#fcfcfc" transform="matrix(0.27201342582702637,0,0,0.27201342582702637,368.37548828125006,99.96878051757812)" svgjs:data="{&quot;leading&quot;:&quot;1.3&quot;}"><tspan dy="0" x="192.06642438162737" svgjs:data="{&quot;newLined&quot;:true}">PLAYER</tspan></text><image width="760" height="760" xlink:href="https://lct-designs.s3.us-west-1.amazonaws.com/assets/libs/mariners-baseball-banner-1644906781475.png" class="asset" transform="matrix(0.05185340717434884,0,0,0.05185340717434883,418.02850341796875,101.94538879394531)"></image><image width="760" height="760" xlink:href="https://lct-designs.s3.us-west-1.amazonaws.com/assets/libs/mariners-baseball-banner-1644906781475.png" class="asset" transform="matrix(0.05185340717434884,0,0,0.05185340717434883,418.02850341796875,170.0929870605469)"></image><text fill="#0a0a0a" font-family="Impact" font-size="45" x="192.06642438162737" y="201.88927563680983" stroke-opacity="1" stroke-width="1" stroke="#fcfcfc" transform="matrix(0.27201366424560547,0,0,0.27201366424560547,368.3754577636719,166.28463745117188)" svgjs:data="{&quot;leading&quot;:&quot;1.3&quot;}"><tspan dy="0" x="192.06642438162737" svgjs:data="{&quot;newLined&quot;:true}">PLAYER</tspan></text><image width="760" height="760" xlink:href="https://lct-designs.s3.us-west-1.amazonaws.com/assets/libs/mariners-baseball-banner-1644906781475.png" class="asset" transform="matrix(0.05185340717434884,0,0,0.05185340717434883,418.02850341796875,236.54917907714847)"></image><text fill="#0a0a0a" font-family="Impact" font-size="45" x="192.06642438162737" y="201.88927563680983" stroke-opacity="1" stroke-width="1" stroke="#fcfcfc" transform="matrix(0.2720135450363159,0,0,0.2720135450363159,368.37548828125006,233.95678710937497)" svgjs:data="{&quot;leading&quot;:&quot;1.3&quot;}"><tspan dy="0" x="192.06642438162737" svgjs:data="{&quot;newLined&quot;:true}">PLAYER</tspan></text><text fill="#0a0a0a" font-family="Impact" font-size="45" x="192.06642438162737" y="201.88927563680983" stroke-opacity="1" stroke-width="1" stroke="#fcfcfc" transform="matrix(0.2720135450363159,0,0,0.2720135450363159,-23.718149185180664,99.3530044555664)" svgjs:data="{&quot;leading&quot;:&quot;1.3&quot;}"><tspan dy="0" x="192.06642438162737" svgjs:data="{&quot;newLined&quot;:true}">PLAYER</tspan></text><image width="760" height="760" xlink:href="https://lct-designs.s3.us-west-1.amazonaws.com/assets/libs/mariners-baseball-banner-1644906781475.png" class="asset" transform="matrix(0.05185340717434884,0,0,0.05185340717434883,25.934886932373047,101.3296127319336)"></image><image width="760" height="760" xlink:href="https://lct-designs.s3.us-west-1.amazonaws.com/assets/libs/mariners-baseball-banner-1644906781475.png" class="asset" transform="matrix(0.05185340717434884,0,0,0.05185340717434883,25.934894561767578,170.0929870605469)"></image><text fill="#0a0a0a" font-family="Impact" font-size="45" x="192.06642438162737" y="201.88927563680983" stroke-opacity="1" stroke-width="1" stroke="#fcfcfc" transform="matrix(0.2720135748386383,0,0,0.27201357483863836,-23.71816062927246,166.28465270996094)" svgjs:data="{&quot;leading&quot;:&quot;1.3&quot;}"><tspan dy="0" x="192.06642438162737" svgjs:data="{&quot;newLined&quot;:true}">PLAYER</tspan></text><text fill="#0a0a0a" font-family="Impact" font-size="45" x="192.06642438162737" y="201.88927563680983" stroke-opacity="1" stroke-width="1" stroke="#fcfcfc" transform="matrix(0.2720135748386383,0,0,0.27201357483863836,-23.71816062927246,233.95680236816403)" svgjs:data="{&quot;leading&quot;:&quot;1.3&quot;}"><tspan dy="0" x="192.06642438162737" svgjs:data="{&quot;newLined&quot;:true}">PLAYER</tspan></text><image width="760" height="760" xlink:href="https://lct-designs.s3.us-west-1.amazonaws.com/assets/libs/mariners-baseball-banner-1644906781475.png" class="asset" transform="matrix(0.05185340717434884,0,0,0.05185340717434883,25.93488883972168,236.54914855957034)"></image><image width="760" height="760" xlink:href="https://lct-designs.s3.us-west-1.amazonaws.com/assets/libs/mariners-baseball-banner-1644906781475.png" class="asset" transform="matrix(0.05185340717434884,0,0,0.05185340717434883,107.46295166015625,170.09295654296875)"></image><image width="760" height="760" xlink:href="https://lct-designs.s3.us-west-1.amazonaws.com/assets/libs/mariners-baseball-banner-1644906781475.png" class="asset" transform="matrix(0.05185340717434884,0,0,0.05185340717434883,184.43338775634766,170.09295654296875)"></image><image width="760" height="760" xlink:href="https://lct-designs.s3.us-west-1.amazonaws.com/assets/libs/mariners-baseball-banner-1644906781475.png" class="asset" transform="matrix(0.05185340717434884,0,0,0.05185340717434883,336.82257843017584,170.0929870605469)"></image><image width="760" height="760" xlink:href="https://lct-designs.s3.us-west-1.amazonaws.com/assets/libs/mariners-baseball-banner-1644906781475.png" class="asset" transform="matrix(0.05185340717434884,0,0,0.05185340717434883,259.0885696411133,170.09295654296875)"></image><text fill="#0a0a0a" font-family="Impact" font-size="45" x="192.06642438162737" y="201.88927563680983" stroke-opacity="1" stroke-width="1" stroke="#fcfcfc" transform="matrix(0.27201369404792786,0,0,0.27201369404792786,59.73345184326173,166.28463745117188)" svgjs:data="{&quot;leading&quot;:&quot;1.3&quot;}"><tspan dy="0" x="192.06642438162737" svgjs:data="{&quot;newLined&quot;:true}">PLAYER</tspan></text><text fill="#0a0a0a" font-family="Impact" font-size="45" x="192.06642438162737" y="201.88927563680983" stroke-opacity="1" stroke-width="1" stroke="#fcfcfc" transform="matrix(0.27201375365257263,0,0,0.27201375365257263,136.70389556884766,166.2846221923828)" svgjs:data="{&quot;leading&quot;:&quot;1.3&quot;}"><tspan dy="0" x="192.06642438162737" svgjs:data="{&quot;newLined&quot;:true}">PLAYER</tspan></text><text fill="#0a0a0a" font-family="Impact" font-size="45" x="192.06642438162737" y="201.88927563680983" stroke-opacity="1" stroke-width="1" stroke="#fcfcfc" transform="matrix(0.2720141112804413,0,0,0.2720141112804413,289.09308624267584,166.28451538085938)" svgjs:data="{&quot;leading&quot;:&quot;1.3&quot;}"><tspan dy="0" x="192.06642438162737" svgjs:data="{&quot;newLined&quot;:true}">PLAYER</tspan></text><text fill="#0a0a0a" font-family="Impact" font-size="45" x="192.06642438162737" y="201.88927563680983" stroke-opacity="1" stroke-width="1" stroke="#fcfcfc" transform="matrix(0.27201393246650696,0,0,0.27201393246650696,211.3590774536133,166.2845611572266)" svgjs:data="{&quot;leading&quot;:&quot;1.3&quot;}"><tspan dy="0" x="192.06642438162737" svgjs:data="{&quot;newLined&quot;:true}">PLAYER</tspan></text><g class="mask" style="pointer-events: none;"><g><path fill="#BCBEC0" d="M-3642.4-2101.7v4589.1h7813.4v-4589.1H-3642.4z M500.5,67.2v233.3v66.7H0.5v-66.7V67.2V0.5h500V67.2z" transform="matrix(1,0,0,1,0,0)"></path><g transform="matrix(1,0,0,1,0,0)">
	<rect x="0.5" y="300.5" opacity="0.95" fill="#F1F2F2" width="500" height="66.7"></rect>
	<rect x="0.5" y="0.5" opacity="0.95" fill="#F1F2F2" width="500" height="66.7"></rect>
</g></g></g></svg>