<svg xmlns="http://www.w3.org/2000/svg" version="1.1" xmlns:xlink="http://www.w3.org/1999/xlink" xmlns:svgjs="http://svgjs.dev/svgjs" width="100%" height="100%" viewBox="1 1 499 365.70001220703125" preserveAspectRatio="none" data-info="{&quot;_id&quot;:4,&quot;name&quot;:&quot;POLE POCKET SOCCER BANNERS&quot;,&quot;information&quot;:&quot;- Size: 3’x5’\n- Material: heavy duty vinyl banner\n- Digitally printed on vinyl&quot;,&quot;price&quot;:&quot;95.00&quot;,&quot;sale_price&quot;:&quot;89.99&quot;,&quot;type&quot;:&quot;pole-pocket&quot;,&quot;cover&quot;:{&quot;key&quot;:&quot;assets/models/pole-1628062864266-1631924568908.png&quot;,&quot;url&quot;:&quot;https://lct-designs.s3.us-west-1.amazonaws.com/assets/models/pole-1628062864266-1631924568908.png&quot;},&quot;back&quot;:{&quot;key&quot;:&quot;assets/models/pole-1631924700152.svg&quot;,&quot;url&quot;:&quot;https://lct-designs.s3.us-west-1.amazonaws.com/assets/models/pole-1631924700152.svg&quot;},&quot;mask&quot;:{&quot;key&quot;:&quot;assets/models/pole-mask-1631925211715.svg&quot;,&quot;url&quot;:&quot;https://lct-designs.s3.us-west-1.amazonaws.com/assets/models/pole-mask-1631925211715.svg&quot;},&quot;pos&quot;:&quot;2&quot;,&quot;accessories&quot;:&quot;2,3&quot;}" style="background-color: white;"><g class="model" style="pointer-events: none;"><polygon fill="#FFFFFF" points="0.5,0.5 0.5,67.2 0.5,300.5 0.5,367.2 500.5,367.2 500.5,300.5 500.5,67.2 500.5,0.5 "></polygon></g><image width="760" height="556" xlink:href="https://lct-designs.s3.us-west-1.amazonaws.com/assets/libs/star-softball-banner-1640684505247.png" class="asset background locked" transform="matrix(0.6595323960558116,0,0,0.6595323960558116,0,0)"></image><text fill="#ffffff" font-family="Impact" font-size="15" x="199.7930558764512" y="189.20527009662842" transform="matrix(0.8009510636329651,0,0,0.8009510636329652,-144.97201538085938,-63.90826797485352)" svgjs:data="{&quot;leading&quot;:&quot;1.3&quot;}"><tspan dy="0" x="199.7930558764512" svgjs:data="{&quot;newLined&quot;:true}">COACH: COACH'S NAME</tspan></text><text fill="#ffffff" font-family="Impact" font-size="15" x="180.41333328123636" y="189.20527009662842" transform="matrix(0.80094975233078,0,0,0.80094975233078,195.06762695312497,-63.74249267578126)" svgjs:data="{&quot;leading&quot;:&quot;1.3&quot;}"><tspan dy="0" x="180.41333328123636" svgjs:data="{&quot;newLined&quot;:true}">TEAM MOM: TEAM MOM'S NAME</tspan></text><image width="760" height="593" xlink:href="https://lct-designs.s3.us-west-1.amazonaws.com/assets/libs/star-softball-banner-1640683948801.png" class="asset" transform="matrix(0.2352808862924576,0,0,0.2352808862924576,161.1687927246094,76.57705688476562)"></image><image width="760" height="670" xlink:href="https://lct-designs.s3.us-west-1.amazonaws.com/assets/libs/star-softball-banner-1640683677762.png" class="asset" transform="matrix(0.055033735930919654,0,0,0.055033735930919654,366.84915161132824,121.08850097656253)"></image><text fill="#ffffff" font-family="Impact" font-size="15" x="180.41333328123636" y="189.20527009662842" transform="matrix(0.9549841880798341,0,0,0.9549841880798341,194.360107421875,-64.44468688964845)" svgjs:data="{&quot;leading&quot;:&quot;1.3&quot;}"><tspan dy="0" x="180.41333328123636" svgjs:data="{&quot;newLined&quot;:true}">PLAYER</tspan></text><image width="760" height="670" xlink:href="https://lct-designs.s3.us-west-1.amazonaws.com/assets/libs/star-softball-banner-1640683677762.png" class="asset" transform="matrix(0.055033735930919654,0,0,0.055033735930919654,442.331268310547,120.51908874511719)"></image><text fill="#ffffff" font-family="Impact" font-size="15" x="180.41333328123636" y="189.20527009662842" transform="matrix(0.9549841880798341,0,0,0.9549841880798341,269.84222412109375,-65.01409912109376)" svgjs:data="{&quot;leading&quot;:&quot;1.3&quot;}"><tspan dy="0" x="180.41333328123636" svgjs:data="{&quot;newLined&quot;:true}">PLAYER</tspan></text><image width="760" height="670" xlink:href="https://lct-designs.s3.us-west-1.amazonaws.com/assets/libs/star-softball-banner-1640683677762.png" class="asset" transform="matrix(0.05503373593091965,0,0,0.055033735930919654,367.7385864257813,189.98709106445315)"></image><text fill="#ffffff" font-family="Impact" font-size="15" x="180.41333328123636" y="189.20527009662842" transform="matrix(0.954984188079834,0,0,0.9549841880798341,195.2495422363281,4.453899383544922)" svgjs:data="{&quot;leading&quot;:&quot;1.3&quot;}"><tspan dy="0" x="180.41333328123636" svgjs:data="{&quot;newLined&quot;:true}">PLAYER</tspan></text><image width="760" height="670" xlink:href="https://lct-designs.s3.us-west-1.amazonaws.com/assets/libs/star-softball-banner-1640683677762.png" class="asset" transform="matrix(0.05503373593091965,0,0,0.055033735930919654,443.220703125,189.41767883300784)"></image><text fill="#ffffff" font-family="Impact" font-size="15" x="180.41333328123636" y="189.20527009662842" transform="matrix(0.954984188079834,0,0,0.9549841880798341,270.73165893554693,3.8844871520996094)" svgjs:data="{&quot;leading&quot;:&quot;1.3&quot;}"><tspan dy="0" x="180.41333328123636" svgjs:data="{&quot;newLined&quot;:true}">PLAYER</tspan></text><image width="760" height="670" xlink:href="https://lct-designs.s3.us-west-1.amazonaws.com/assets/libs/star-softball-banner-1640683677762.png" class="asset" transform="matrix(0.05503373593091965,0,0,0.055033735930919654,365.2115783691407,256.6080627441406)"></image><text fill="#ffffff" font-family="Impact" font-size="15" x="180.41333328123636" y="189.20527009662842" transform="matrix(0.954984188079834,0,0,0.9549841880798341,192.72253417968747,71.07487487792969)" svgjs:data="{&quot;leading&quot;:&quot;1.3&quot;}"><tspan dy="0" x="180.41333328123636" svgjs:data="{&quot;newLined&quot;:true}">PLAYER</tspan></text><image width="760" height="670" xlink:href="https://lct-designs.s3.us-west-1.amazonaws.com/assets/libs/star-softball-banner-1640683677762.png" class="asset" transform="matrix(0.05503373593091965,0,0,0.055033735930919654,440.69369506835943,256.03863525390625)"></image><text fill="#ffffff" font-family="Impact" font-size="15" x="180.41333328123636" y="189.20527009662842" transform="matrix(0.954984188079834,0,0,0.9549841880798341,268.2046508789063,70.5054626464844)" svgjs:data="{&quot;leading&quot;:&quot;1.3&quot;}"><tspan dy="0" x="180.41333328123636" svgjs:data="{&quot;newLined&quot;:true}">PLAYER</tspan></text><image width="760" height="670" xlink:href="https://lct-designs.s3.us-west-1.amazonaws.com/assets/libs/star-softball-banner-1640683677762.png" class="asset" transform="matrix(0.05503373593091965,0,0,0.055033735930919654,218.6238555908203,257.74688720703125)"></image><text fill="#ffffff" font-family="Impact" font-size="15" x="180.41333328123636" y="189.20527009662842" transform="matrix(0.954984188079834,0,0,0.9549841880798341,46.1348114013672,72.21369934082031)" svgjs:data="{&quot;leading&quot;:&quot;1.3&quot;}"><tspan dy="0" x="180.41333328123636" svgjs:data="{&quot;newLined&quot;:true}">PLAYER</tspan></text><image width="760" height="670" xlink:href="https://lct-designs.s3.us-west-1.amazonaws.com/assets/libs/star-softball-banner-1640683677762.png" class="asset" transform="matrix(0.05503373593091965,0,0,0.055033735930919654,294.1059875488282,257.1774597167969)"></image><text fill="#ffffff" font-family="Impact" font-size="15" x="180.41333328123636" y="189.20527009662842" transform="matrix(0.954984188079834,0,0,0.9549841880798341,121.61692810058594,71.64428710937503)" svgjs:data="{&quot;leading&quot;:&quot;1.3&quot;}"><tspan dy="0" x="180.41333328123636" svgjs:data="{&quot;newLined&quot;:true}">PLAYER</tspan></text><image width="760" height="670" xlink:href="https://lct-designs.s3.us-west-1.amazonaws.com/assets/libs/star-softball-banner-1640683677762.png" class="asset" transform="matrix(0.05503373593091965,0,0,0.055033735930919654,142.96298217773438,258.3162841796875)"></image><text fill="#ffffff" font-family="Impact" font-size="15" x="180.41333328123636" y="189.20527009662842" transform="matrix(0.954984188079834,0,0,0.9549841880798341,-29.526077270507816,72.78311157226562)" svgjs:data="{&quot;leading&quot;:&quot;1.3&quot;}"><tspan dy="0" x="180.41333328123636" svgjs:data="{&quot;newLined&quot;:true}">PLAYER</tspan></text><image width="760" height="686" xlink:href="https://lct-designs.s3.us-west-1.amazonaws.com/assets/libs/star-softball-banner-1640683757137.png" class="asset" transform="matrix(0.1714204847812653,0,0,0.1714204847812653,11.525286674499512,175.23007202148438)"></image><image width="760" height="670" xlink:href="https://lct-designs.s3.us-west-1.amazonaws.com/assets/libs/star-softball-banner-1640683677762.png" class="asset" transform="matrix(0.055033735930919654,0,0,0.055033735930919654,20.398529052734382,121.6579133272171)"></image><text fill="#ffffff" font-family="Impact" font-size="15" x="180.41333328123636" y="189.20527009662842" transform="matrix(0.9549841880798341,0,0,0.9549841880798341,-152.09051513671878,-63.87527453899385)" svgjs:data="{&quot;leading&quot;:&quot;1.3&quot;}"><tspan dy="0" x="180.41333328123636" svgjs:data="{&quot;newLined&quot;:true}">PLAYER</tspan></text><image width="760" height="670" xlink:href="https://lct-designs.s3.us-west-1.amazonaws.com/assets/libs/star-softball-banner-1640683677762.png" class="asset" transform="matrix(0.055033735930919654,0,0,0.055033735930919654,95.88064575195315,121.08850109577179)"></image><text fill="#ffffff" font-family="Impact" font-size="15" x="180.41333328123636" y="189.20527009662842" transform="matrix(0.9549841880798341,0,0,0.9549841880798341,-76.60839843750001,-64.44468677043916)" svgjs:data="{&quot;leading&quot;:&quot;1.3&quot;}"><tspan dy="0" x="180.41333328123636" svgjs:data="{&quot;newLined&quot;:true}">PLAYER</tspan></text><g class="mask" style="pointer-events: none;"><g><path fill="#BCBEC0" d="M-3642.4-2101.7v4589.1h7813.4v-4589.1H-3642.4z M500.5,67.2v233.3v66.7H0.5v-66.7V67.2V0.5h500V67.2z" transform="matrix(1,0,0,1,0,0)"></path><g transform="matrix(1,0,0,1,0,0)">
	<rect x="0.5" y="300.5" opacity="0.95" fill="#F1F2F2" width="500" height="66.7"></rect>
	<rect x="0.5" y="0.5" opacity="0.95" fill="#F1F2F2" width="500" height="66.7"></rect>
</g></g></g></svg>