<svg xmlns="http://www.w3.org/2000/svg" version="1.1" xmlns:xlink="http://www.w3.org/1999/xlink" xmlns:svgjs="http://svgjs.dev/svgjs" width="100%" height="100%" viewBox="1 1 499 365.70001220703125" preserveAspectRatio="none" data-info="{&quot;_id&quot;:4,&quot;name&quot;:&quot;POLE POCKET SOCCER BANNERS&quot;,&quot;information&quot;:&quot;- Size: 3’x5’\n- Material: heavy duty vinyl banner\n- Digitally printed on vinyl&quot;,&quot;price&quot;:&quot;95.00&quot;,&quot;sale_price&quot;:&quot;89.99&quot;,&quot;type&quot;:&quot;pole-pocket&quot;,&quot;cover&quot;:{&quot;key&quot;:&quot;assets/models/pole-1628062864266-1631924568908.png&quot;,&quot;url&quot;:&quot;https://lct-designs.s3.us-west-1.amazonaws.com/assets/models/pole-1628062864266-1631924568908.png&quot;},&quot;back&quot;:{&quot;key&quot;:&quot;assets/models/pole-1631924700152.svg&quot;,&quot;url&quot;:&quot;https://lct-designs.s3.us-west-1.amazonaws.com/assets/models/pole-1631924700152.svg&quot;},&quot;mask&quot;:{&quot;key&quot;:&quot;assets/models/pole-mask-1631925211715.svg&quot;,&quot;url&quot;:&quot;https://lct-designs.s3.us-west-1.amazonaws.com/assets/models/pole-mask-1631925211715.svg&quot;},&quot;pos&quot;:&quot;2&quot;,&quot;accessories&quot;:&quot;2,3&quot;}" style="background-color: white;"><g class="model" style="pointer-events: none;"><polygon fill="#FFFFFF" points="0.5,0.5 0.5,67.2 0.5,300.5 0.5,367.2 500.5,367.2 500.5,300.5 500.5,67.2 500.5,0.5 "></polygon></g><image width="760" height="556" xlink:href="https://lct-designs.s3.us-west-1.amazonaws.com/assets/libs/pink-dolphins-1-softball-banner-1640684505243.png" class="asset background locked" transform="matrix(0.6595323960558116,0,0,0.6595323960558116,0,0)"></image><text fill="#000000" font-family="Futura Hv BT" font-size="15" x="199.7930558764512" y="189.20527009662842" transform="matrix(0.6971319317817687,0,0,0.6971319317817688,215.42800903320312,-43.92499542236329)" svgjs:data="{&quot;leading&quot;:&quot;1.3&quot;}"><tspan dy="0" x="199.7930558764512" svgjs:data="{&quot;newLined&quot;:true}">COACH: COACH'S NAME</tspan></text><text fill="#000000" font-family="Futura Hv BT" font-size="15" x="180.41333328123636" y="189.20527009662842" transform="matrix(0.6971316337585448,0,0,0.6971316337585449,-112.8327407836914,-44.48743438720703)" svgjs:data="{&quot;leading&quot;:&quot;1.3&quot;}"><tspan dy="0" x="180.41333328123636" svgjs:data="{&quot;newLined&quot;:true}">TEAM MOM: TEAM MOM'S NAME</tspan></text><text fill="#000000" font-family="Futura Hv BT" font-size="15" x="199.7930558764512" y="189.20527009662842" transform="matrix(0.8871542811393738,0,0,0.8871542811393737,-138.18019104003906,111.29697418212889)" svgjs:data="{&quot;leading&quot;:&quot;1.3&quot;}"><tspan dy="0" x="199.7930558764512" svgjs:data="{&quot;newLined&quot;:true}">PLAYER</tspan></text><image width="760" height="548" xlink:href="https://lct-designs.s3.us-west-1.amazonaws.com/assets/libs/pink-dolphins-1-sofball-banner-1640683757132.png" class="asset" transform="matrix(0.06692063063383102,0,0,0.06692063063383102,41.9590711593628,229.97531139850616)"></image><text fill="#000000" font-family="Futura Hv BT" font-size="15" x="199.7930558764512" y="189.20527009662842" transform="matrix(0.8871542811393738,0,0,0.8871542811393737,-63.50151062011719,111.29697418212889)" svgjs:data="{&quot;leading&quot;:&quot;1.3&quot;}"><tspan dy="0" x="199.7930558764512" svgjs:data="{&quot;newLined&quot;:true}">PLAYER</tspan></text><image width="760" height="548" xlink:href="https://lct-designs.s3.us-west-1.amazonaws.com/assets/libs/pink-dolphins-1-sofball-banner-1640683757132.png" class="asset" transform="matrix(0.06692063063383102,0,0,0.06692063063383102,116.63774871826172,229.97531139850616)"></image><text fill="#000000" font-family="Futura Hv BT" font-size="15" x="199.7930558764512" y="189.20527009662842" transform="matrix(0.8871542811393738,0,0,0.8871542811393737,17.363845825195312,110.73453521728514)" svgjs:data="{&quot;leading&quot;:&quot;1.3&quot;}"><tspan dy="0" x="199.7930558764512" svgjs:data="{&quot;newLined&quot;:true}">PLAYER</tspan></text><image width="760" height="548" xlink:href="https://lct-designs.s3.us-west-1.amazonaws.com/assets/libs/pink-dolphins-1-sofball-banner-1640683757132.png" class="asset" transform="matrix(0.06692063063383102,0,0,0.06692063063383102,197.50311279296875,229.41287231445307)"></image><text fill="#000000" font-family="Futura Hv BT" font-size="15" x="199.7930558764512" y="189.20527009662842" transform="matrix(0.8871542811393738,0,0,0.8871542811393737,99.47764587402341,112.4218368530273)" svgjs:data="{&quot;leading&quot;:&quot;1.3&quot;}"><tspan dy="0" x="199.7930558764512" svgjs:data="{&quot;newLined&quot;:true}">PLAYER</tspan></text><image width="760" height="548" xlink:href="https://lct-designs.s3.us-west-1.amazonaws.com/assets/libs/pink-dolphins-1-sofball-banner-1640683757132.png" class="asset" transform="matrix(0.06692063063383102,0,0,0.06692063063383102,279.6169128417968,231.10017395019526)"></image><image width="760" height="438" xlink:href="https://lct-designs.s3.us-west-1.amazonaws.com/assets/libs/pink-dolphins-1-softball-banner-1640683948797.png" class="asset" transform="matrix(0.27539461851119995,0,0,0.27539461851119995,14.6536283493042,94.91610717773436)"></image><image width="689" height="760" xlink:href="https://lct-designs.s3.us-west-1.amazonaws.com/assets/libs/pink-dolphins-1-softball-banner-1640683757132.png" class="asset" transform="matrix(0.18042136728763578,0,0,0.1804213672876358,372.8356018066406,159.78443908691406)"></image><text fill="#000000" font-family="Futura Hv BT" font-size="15" x="199.7930558764512" y="189.20527009662842" transform="matrix(0.8871542811393738,0,0,0.8871542811393737,63.35893249511717,51.678871154785156)" svgjs:data="{&quot;leading&quot;:&quot;1.3&quot;}"><tspan dy="0" x="199.7930558764512" svgjs:data="{&quot;newLined&quot;:true}">PLAYER</tspan></text><image width="760" height="548" xlink:href="https://lct-designs.s3.us-west-1.amazonaws.com/assets/libs/pink-dolphins-1-sofball-banner-1640683757132.png" class="asset" transform="matrix(0.06692063063383102,0,0,0.06692063063383102,243.49819946289057,170.35720825195312)"></image><text fill="#000000" font-family="Futura Hv BT" font-size="15" x="199.7930558764512" y="189.20527009662842" transform="matrix(0.8871542811393738,0,0,0.8871542811393737,145.4727325439453,53.366172790527344)" svgjs:data="{&quot;leading&quot;:&quot;1.3&quot;}"><tspan dy="0" x="199.7930558764512" svgjs:data="{&quot;newLined&quot;:true}">PLAYER</tspan></text><image width="760" height="548" xlink:href="https://lct-designs.s3.us-west-1.amazonaws.com/assets/libs/pink-dolphins-1-sofball-banner-1640683757132.png" class="asset" transform="matrix(0.06692063063383102,0,0,0.06692063063383102,325.6119995117187,172.0445098876953)"></image><text fill="#000000" font-family="Futura Hv BT" font-size="15" x="199.7930558764512" y="189.20527009662842" transform="matrix(0.8871542811393738,0,0,0.8871542811393737,58.17353820800781,-20.31281280517579)" svgjs:data="{&quot;leading&quot;:&quot;1.3&quot;}"><tspan dy="0" x="199.7930558764512" svgjs:data="{&quot;newLined&quot;:true}">PLAYER</tspan></text><image width="760" height="548" xlink:href="https://lct-designs.s3.us-west-1.amazonaws.com/assets/libs/pink-dolphins-1-sofball-banner-1640683757132.png" class="asset" transform="matrix(0.06692063063383102,0,0,0.06692063063383102,238.3128051757812,98.3655242919922)"></image><text fill="#000000" font-family="Futura Hv BT" font-size="15" x="199.7930558764512" y="189.20527009662842" transform="matrix(0.8871542811393738,0,0,0.8871542811393737,140.2873382568359,-18.625511169433594)" svgjs:data="{&quot;leading&quot;:&quot;1.3&quot;}"><tspan dy="0" x="199.7930558764512" svgjs:data="{&quot;newLined&quot;:true}">PLAYER</tspan></text><image width="760" height="548" xlink:href="https://lct-designs.s3.us-west-1.amazonaws.com/assets/libs/pink-dolphins-1-sofball-banner-1640683757132.png" class="asset" transform="matrix(0.06692063063383102,0,0,0.06692063063383102,320.4266052246094,100.05282592773439)"></image><text fill="#000000" font-family="Futura Hv BT" font-size="15" x="199.7930558764512" y="189.20527009662842" transform="matrix(0.8871542811393738,0,0,0.8871542811393737,225.0896453857422,-18.063087463378906)" svgjs:data="{&quot;leading&quot;:&quot;1.3&quot;}"><tspan dy="0" x="199.7930558764512" svgjs:data="{&quot;newLined&quot;:true}">PLAYER</tspan></text><image width="760" height="548" xlink:href="https://lct-designs.s3.us-west-1.amazonaws.com/assets/libs/pink-dolphins-1-sofball-banner-1640683757132.png" class="asset" transform="matrix(0.06692063063383102,0,0,0.06692063063383102,405.2289123535156,100.61524963378905)"></image><g class="mask" style="pointer-events: none;"><g><path fill="#BCBEC0" d="M-3642.4-2101.7v4589.1h7813.4v-4589.1H-3642.4z M500.5,67.2v233.3v66.7H0.5v-66.7V67.2V0.5h500V67.2z" transform="matrix(1,0,0,1,0,0)"></path><g transform="matrix(1,0,0,1,0,0)">
	<rect x="0.5" y="300.5" opacity="0.95" fill="#F1F2F2" width="500" height="66.7"></rect>
	<rect x="0.5" y="0.5" opacity="0.95" fill="#F1F2F2" width="500" height="66.7"></rect>
</g></g></g></svg>