<svg xmlns="http://www.w3.org/2000/svg" version="1.1" xmlns:xlink="http://www.w3.org/1999/xlink" xmlns:svgjs="http://svgjs.dev/svgjs" width="100%" height="100%" viewBox="1 1 499 365.70001220703125" preserveAspectRatio="none" data-info="{&quot;_id&quot;:4,&quot;name&quot;:&quot;POLE POCKET SOCCER BANNERS&quot;,&quot;information&quot;:&quot;- Size: 3’x5’\n- Material: heavy duty vinyl banner\n- Digitally printed on vinyl&quot;,&quot;price&quot;:&quot;95.00&quot;,&quot;sale_price&quot;:&quot;89.99&quot;,&quot;type&quot;:&quot;pole-pocket&quot;,&quot;cover&quot;:{&quot;key&quot;:&quot;assets/models/pole-1628062864266-1631924568908.png&quot;,&quot;url&quot;:&quot;https://lct-designs.s3.us-west-1.amazonaws.com/assets/models/pole-1628062864266-1631924568908.png&quot;},&quot;back&quot;:{&quot;key&quot;:&quot;assets/models/pole-1631924700152.svg&quot;,&quot;url&quot;:&quot;https://lct-designs.s3.us-west-1.amazonaws.com/assets/models/pole-1631924700152.svg&quot;},&quot;mask&quot;:{&quot;key&quot;:&quot;assets/models/pole-mask-1631925211715.svg&quot;,&quot;url&quot;:&quot;https://lct-designs.s3.us-west-1.amazonaws.com/assets/models/pole-mask-1631925211715.svg&quot;},&quot;pos&quot;:&quot;2&quot;,&quot;accessories&quot;:&quot;2,3&quot;}" style="background-color: white;"><g class="model" style="pointer-events: none;"><polygon fill="#FFFFFF" points="0.5,0.5 0.5,67.2 0.5,300.5 0.5,367.2 500.5,367.2 500.5,300.5 500.5,67.2 500.5,0.5 "></polygon></g><image width="760" height="556" xlink:href="https://lct-designs.s3.us-west-1.amazonaws.com/assets/libs/oakland-5-softball-banner-1640684505240.png" class="asset background locked" transform="matrix(0.6595323960558116,0,0,0.6595323960558116,0,0)"></image><text fill="#0d0d0d" font-family="Impact" font-size="45" x="192.06642438162737" y="201.88927563680983" stroke-opacity="1" stroke-width="1" stroke="#f7f7f7" transform="matrix(0.28554198145866394,0,0,0.28554198145866394,319.31970214843756,30.672418594360366)" svgjs:data="{&quot;leading&quot;:&quot;1.3&quot;}"><tspan dy="0" x="192.06642438162737" svgjs:data="{&quot;newLined&quot;:true}">Coach: Coach's name</tspan></text><text fill="#0d0d0d" font-family="Impact" font-size="45" x="192.06642438162737" y="201.88927563680983" stroke-opacity="1" stroke-width="1" stroke="#f7f7f7" transform="matrix(0.28554198145866394,0,0,0.28554198145866394,-43.64385986328126,30.10297966003418)" svgjs:data="{&quot;leading&quot;:&quot;1.3&quot;}"><tspan dy="0" x="192.06642438162737" svgjs:data="{&quot;newLined&quot;:true}">Team mom: name</tspan></text><text fill="#ffffff" font-family="DEATHE MAACH NCV" font-size="45" stroke-opacity="1" stroke-width="2" stroke="#000000" x="54.90154642456008" y="202.01522374115754" transform="matrix(0.3534054458141327,0,0,0.3534054458141327,21.786689758300774,41.58224868774414)" svgjs:data="{&quot;leading&quot;:&quot;1.3&quot;}"><tspan dy="0" x="54.90154642456008" svgjs:data="{&quot;newLined&quot;:true}">PLAYER</tspan></text><image width="760" height="644" xlink:href="https://lct-designs.s3.us-west-1.amazonaws.com/assets/libs/oakland-5-sofball-banner-1640683677759.png" class="asset" transform="matrix(0.05907757580280304,0,0,0.05907757580280304,37.71812438964843,118.77461242675781)"></image><text fill="#ffffff" font-family="DEATHE MAACH NCV" font-size="45" stroke-opacity="1" stroke-width="2" stroke="#000000" x="54.90154642456008" y="202.01522374115754" transform="matrix(0.3534054458141327,0,0,0.3534054458141327,99.54647064208984,41.01283645629884)" svgjs:data="{&quot;leading&quot;:&quot;1.3&quot;}"><tspan dy="0" x="54.90154642456008" svgjs:data="{&quot;newLined&quot;:true}">PLAYER</tspan></text><image width="760" height="644" xlink:href="https://lct-designs.s3.us-west-1.amazonaws.com/assets/libs/oakland-5-sofball-banner-1640683677759.png" class="asset" transform="matrix(0.05907757580280304,0,0,0.05907757580280304,115.47790527343753,118.20520019531253)"></image><image width="760" height="760" xlink:href="https://lct-designs.s3.us-west-1.amazonaws.com/assets/libs/oakland-5-sofball-banner-03-1640683677759.png" class="asset" transform="matrix(0.21474160254001617,0,0,0.21474160254001617,171.5294952392578,105.44890594482422)"></image><image width="734" height="760" xlink:href="https://lct-designs.s3.us-west-1.amazonaws.com/assets/libs/oakland-baseball-banner-1644545153844.png" class="asset" transform="matrix(0.1405695229768753,0,0,0.1405695229768753,202.27993774414062,118.54534912109375)"></image><image width="760" height="266" xlink:href="https://lct-designs.s3.us-west-1.amazonaws.com/assets/libs/oakland-5-softball-banner-1640683677759.png" class="asset" transform="matrix(0.22790406644344333,0,0,0.2279040664434433,165.83538818359378,235.31802368164065)"></image><text fill="#ffffff" font-family="DEATHE MAACH NCV" font-size="45" stroke-opacity="1" stroke-width="2" stroke="#000000" x="54.90154642456008" y="202.01522374115754" transform="matrix(0.3534054458141327,0,0,0.3534054458141327,-1.8084869384765554,110.4808349609375)" svgjs:data="{&quot;leading&quot;:&quot;1.3&quot;}"><tspan dy="0" x="54.90154642456008" svgjs:data="{&quot;newLined&quot;:true}">PLAYER</tspan></text><image width="760" height="644" xlink:href="https://lct-designs.s3.us-west-1.amazonaws.com/assets/libs/oakland-5-sofball-banner-1640683677759.png" class="asset" transform="matrix(0.05907757580280304,0,0,0.05907757580280304,14.122945785522454,187.67320251464847)"></image><text fill="#ffffff" font-family="DEATHE MAACH NCV" font-size="45" stroke-opacity="1" stroke-width="2" stroke="#000000" x="54.90154642456008" y="202.01522374115754" transform="matrix(0.3534054458141327,0,0,0.3534054458141327,75.95129394531253,109.91142272949222)" svgjs:data="{&quot;leading&quot;:&quot;1.3&quot;}"><tspan dy="0" x="54.90154642456008" svgjs:data="{&quot;newLined&quot;:true}">PLAYER</tspan></text><image width="760" height="644" xlink:href="https://lct-designs.s3.us-west-1.amazonaws.com/assets/libs/oakland-5-sofball-banner-1640683677759.png" class="asset" transform="matrix(0.05907757580280304,0,0,0.05907757580280304,91.88272857666016,187.10379028320315)"></image><text fill="#ffffff" font-family="DEATHE MAACH NCV" font-size="45" stroke-opacity="1" stroke-width="2" stroke="#000000" x="54.90154642456008" y="202.01522374115754" transform="matrix(0.3534054458141327,0,0,0.3534054458141327,7.052688613533974,177.1018218994141)" svgjs:data="{&quot;leading&quot;:&quot;1.3&quot;}"><tspan dy="0" x="54.90154642456008" svgjs:data="{&quot;newLined&quot;:true}">PLAYER</tspan></text><image width="760" height="644" xlink:href="https://lct-designs.s3.us-west-1.amazonaws.com/assets/libs/oakland-5-sofball-banner-1640683677759.png" class="asset" transform="matrix(0.05907757580280304,0,0,0.05907757580280304,22.98412322998046,254.29418945312503)"></image><text fill="#ffffff" font-family="DEATHE MAACH NCV" font-size="45" stroke-opacity="1" stroke-width="2" stroke="#000000" x="54.90154642456008" y="202.01522374115754" transform="matrix(0.3534054458141327,0,0,0.3534054458141327,84.81246948242188,176.53240966796878)" svgjs:data="{&quot;leading&quot;:&quot;1.3&quot;}"><tspan dy="0" x="54.90154642456008" svgjs:data="{&quot;newLined&quot;:true}">PLAYER</tspan></text><image width="760" height="644" xlink:href="https://lct-designs.s3.us-west-1.amazonaws.com/assets/libs/oakland-5-sofball-banner-1640683677759.png" class="asset" transform="matrix(0.05907757580280304,0,0,0.05907757580280304,100.74390411376956,253.72477722167972)"></image><text fill="#ffffff" font-family="DEATHE MAACH NCV" font-size="45" stroke-opacity="1" stroke-width="2" stroke="#000000" x="54.90154642456008" y="202.01522374115754" transform="matrix(0.3534054458141327,0,0,0.3534054458141327,318.76932525634766,41.01285171508789)" svgjs:data="{&quot;leading&quot;:&quot;1.3&quot;}"><tspan dy="0" x="54.90154642456008" svgjs:data="{&quot;newLined&quot;:true}">PLAYER</tspan></text><image width="760" height="644" xlink:href="https://lct-designs.s3.us-west-1.amazonaws.com/assets/libs/oakland-5-sofball-banner-1640683677759.png" class="asset" transform="matrix(0.05907757580280304,0,0,0.05907757580280304,334.7007598876953,118.20521545410156)"></image><text fill="#ffffff" font-family="DEATHE MAACH NCV" font-size="45" stroke-opacity="1" stroke-width="2" stroke="#000000" x="54.90154642456008" y="202.01522374115754" transform="matrix(0.3534054458141327,0,0,0.3534054458141327,396.5291061401368,40.44343948364259)" svgjs:data="{&quot;leading&quot;:&quot;1.3&quot;}"><tspan dy="0" x="54.90154642456008" svgjs:data="{&quot;newLined&quot;:true}">PLAYER</tspan></text><image width="760" height="644" xlink:href="https://lct-designs.s3.us-west-1.amazonaws.com/assets/libs/oakland-5-sofball-banner-1640683677759.png" class="asset" transform="matrix(0.05907757580280304,0,0,0.05907757580280304,412.46054077148443,117.63580322265628)"></image><text fill="#ffffff" font-family="DEATHE MAACH NCV" font-size="45" stroke-opacity="1" stroke-width="2" stroke="#000000" x="54.90154642456008" y="202.01522374115754" transform="matrix(0.3534054458141327,0,0,0.3534054458141327,341.2963256835938,110.48081970214847)" svgjs:data="{&quot;leading&quot;:&quot;1.3&quot;}"><tspan dy="0" x="54.90154642456008" svgjs:data="{&quot;newLined&quot;:true}">PLAYER</tspan></text><image width="760" height="644" xlink:href="https://lct-designs.s3.us-west-1.amazonaws.com/assets/libs/oakland-5-sofball-banner-1640683677759.png" class="asset" transform="matrix(0.05907757580280304,0,0,0.05907757580280304,357.227783203125,187.6731872558594)"></image><text fill="#ffffff" font-family="DEATHE MAACH NCV" font-size="45" stroke-opacity="1" stroke-width="2" stroke="#000000" x="54.90154642456008" y="202.01522374115754" transform="matrix(0.3534054458141327,0,0,0.3534054458141327,419.05612182617193,109.91140747070312)" svgjs:data="{&quot;leading&quot;:&quot;1.3&quot;}"><tspan dy="0" x="54.90154642456008" svgjs:data="{&quot;newLined&quot;:true}">PLAYER</tspan></text><image width="760" height="644" xlink:href="https://lct-designs.s3.us-west-1.amazonaws.com/assets/libs/oakland-5-sofball-banner-1640683677759.png" class="asset" transform="matrix(0.05907757580280304,0,0,0.05907757580280304,434.987548828125,187.10377502441406)"></image><text fill="#ffffff" font-family="DEATHE MAACH NCV" font-size="45" stroke-opacity="1" stroke-width="2" stroke="#000000" x="54.90154642456008" y="202.01522374115754" transform="matrix(0.3534054458141327,0,0,0.3534054458141327,328.5199279785156,175.96298217773435)" svgjs:data="{&quot;leading&quot;:&quot;1.3&quot;}"><tspan dy="0" x="54.90154642456008" svgjs:data="{&quot;newLined&quot;:true}">PLAYER</tspan></text><image width="760" height="644" xlink:href="https://lct-designs.s3.us-west-1.amazonaws.com/assets/libs/oakland-5-sofball-banner-1640683677759.png" class="asset" transform="matrix(0.05907757580280304,0,0,0.05907757580280304,344.4513854980469,253.15534973144534)"></image><text fill="#ffffff" font-family="DEATHE MAACH NCV" font-size="45" stroke-opacity="1" stroke-width="2" stroke="#000000" x="54.90154642456008" y="202.01522374115754" transform="matrix(0.3534054458141327,0,0,0.3534054458141327,406.2797241210938,175.3935699462891)" svgjs:data="{&quot;leading&quot;:&quot;1.3&quot;}"><tspan dy="0" x="54.90154642456008" svgjs:data="{&quot;newLined&quot;:true}">PLAYER</tspan></text><image width="760" height="644" xlink:href="https://lct-designs.s3.us-west-1.amazonaws.com/assets/libs/oakland-5-sofball-banner-1640683677759.png" class="asset" transform="matrix(0.05907757580280304,0,0,0.05907757580280304,422.2111511230469,252.58593750000003)"></image><g class="mask" style="pointer-events: none;"><g><path fill="#BCBEC0" d="M-3642.4-2101.7v4589.1h7813.4v-4589.1H-3642.4z M500.5,67.2v233.3v66.7H0.5v-66.7V67.2V0.5h500V67.2z" transform="matrix(1,0,0,1,0,0)"></path><g transform="matrix(1,0,0,1,0,0)">
	<rect x="0.5" y="300.5" opacity="0.95" fill="#F1F2F2" width="500" height="66.7"></rect>
	<rect x="0.5" y="0.5" opacity="0.95" fill="#F1F2F2" width="500" height="66.7"></rect>
</g></g></g></svg>