<svg xmlns="http://www.w3.org/2000/svg" version="1.1" xmlns:xlink="http://www.w3.org/1999/xlink" xmlns:svgjs="http://svgjs.dev/svgjs" width="100%" height="100%" viewBox="1 1 499 365.70001220703125" preserveAspectRatio="none" data-info="{&quot;_id&quot;:4,&quot;name&quot;:&quot;POLE POCKET SOCCER BANNERS&quot;,&quot;information&quot;:&quot;- Size: 3’x5’\n- Material: heavy duty vinyl banner\n- Digitally printed on vinyl&quot;,&quot;price&quot;:&quot;95.00&quot;,&quot;sale_price&quot;:&quot;89.99&quot;,&quot;type&quot;:&quot;pole-pocket&quot;,&quot;cover&quot;:{&quot;key&quot;:&quot;assets/models/pole-1628062864266-1631924568908.png&quot;,&quot;url&quot;:&quot;https://lct-designs.s3.us-west-1.amazonaws.com/assets/models/pole-1628062864266-1631924568908.png&quot;},&quot;back&quot;:{&quot;key&quot;:&quot;assets/models/pole-1631924700152.svg&quot;,&quot;url&quot;:&quot;https://lct-designs.s3.us-west-1.amazonaws.com/assets/models/pole-1631924700152.svg&quot;},&quot;mask&quot;:{&quot;key&quot;:&quot;assets/models/pole-mask-1631925211715.svg&quot;,&quot;url&quot;:&quot;https://lct-designs.s3.us-west-1.amazonaws.com/assets/models/pole-mask-1631925211715.svg&quot;},&quot;pos&quot;:&quot;2&quot;,&quot;accessories&quot;:&quot;2,3&quot;}" style="background-color: white;"><g class="model" style="pointer-events: none;"><polygon fill="#FFFFFF" points="0.5,0.5 0.5,67.2 0.5,300.5 0.5,367.2 500.5,367.2 500.5,300.5 500.5,67.2 500.5,0.5 "></polygon></g><image width="760" height="556" xlink:href="https://lct-designs.s3.us-west-1.amazonaws.com/assets/libs/queen-bees-2-softball-banner-1640684505243.png" class="asset background locked" transform="matrix(0.6595323960558116,0,0,0.6595323960558116,0,0)"></image><text fill="#000000" font-family="Franklin Gothic" font-size="15" x="199.7930558764512" y="189.20527009662842" transform="matrix(0.6971330642700195,0,0,0.6971330642700195,245.2364501953125,-45.61228942871094)" svgjs:data="{&quot;leading&quot;:&quot;1.3&quot;}"><tspan dy="0" x="199.7930558764512" svgjs:data="{&quot;newLined&quot;:true}">COACH: COACH'S NAME</tspan></text><text fill="#000000" font-family="Franklin Gothic" font-size="15" x="180.41333328123636" y="189.20527009662842" transform="matrix(0.6971320509910583,0,0,0.6971320509910585,-112.83274078369142,-44.48743438720703)" svgjs:data="{&quot;leading&quot;:&quot;1.3&quot;}"><tspan dy="0" x="180.41333328123636" svgjs:data="{&quot;newLined&quot;:true}">TEAM MOM: TEAM MOM'S NAME</tspan></text><image width="760" height="726" xlink:href="https://lct-designs.s3.us-west-1.amazonaws.com/assets/libs/queen-bees-2-softball-banner-1640683948798.png" class="asset" transform="matrix(0.24216540157794955,0,0,0.24216540157794955,315.33297729492193,120.21277618408206)"></image><image width="694" height="760" xlink:href="https://lct-designs.s3.us-west-1.amazonaws.com/assets/libs/queen-bees-2-softball-banner-1640683757133.png" class="asset" transform="matrix(0.06340046226978303,0,0,0.06340046226978303,267.6172790527344,131.07235717773438)"></image><image width="694" height="760" xlink:href="https://lct-designs.s3.us-west-1.amazonaws.com/assets/libs/queen-bees-2-softball-banner-1640683757133.png" class="asset" transform="matrix(0.06340046226978303,0,0,0.06340046226978303,324.8076477050782,89.50543212890625)"></image><text fill="#000000" font-family="Franklin Gothic" font-size="15" x="199.7930558764512" y="189.20527009662842" transform="matrix(0.9504839777946473,0,0,0.9504839777946473,132.30364990234378,-30.058475494384773)" svgjs:data="{&quot;leading&quot;:&quot;1.3&quot;}"><tspan dy="0" x="199.7930558764512" svgjs:data="{&quot;newLined&quot;:true}">PLAYER</tspan></text><text fill="#000000" font-family="Franklin Gothic" font-size="15" x="199.7930558764512" y="189.20527009662842" transform="matrix(0.9504839777946473,0,0,0.9504839777946473,75.11328125000001,12.077861785888672)" svgjs:data="{&quot;leading&quot;:&quot;1.3&quot;}"><tspan dy="0" x="199.7930558764512" svgjs:data="{&quot;newLined&quot;:true}">PLAYER</tspan></text><image width="694" height="760" xlink:href="https://lct-designs.s3.us-west-1.amazonaws.com/assets/libs/queen-bees-2-softball-banner-1640683757133.png" class="asset" transform="matrix(0.1503092646598816,0,0,0.15030926465988162,201.02302551269534,184.59690856933597)"></image><image width="694" height="760" xlink:href="https://lct-designs.s3.us-west-1.amazonaws.com/assets/libs/queen-bees-2-softball-banner-1640683757133.png" class="asset" transform="matrix(0.06340046226978303,0,0,0.06340046226978303,149.50003051757815,131.07235717773438)"></image><text fill="#000000" font-family="Franklin Gothic" font-size="15" x="199.7930558764512" y="189.20527009662842" transform="matrix(0.9504839777946473,0,0,0.9504839777946473,-43.00396728515625,12.077861785888672)" svgjs:data="{&quot;leading&quot;:&quot;1.3&quot;}"><tspan dy="0" x="199.7930558764512" svgjs:data="{&quot;newLined&quot;:true}">PLAYER</tspan></text><image width="694" height="760" xlink:href="https://lct-designs.s3.us-west-1.amazonaws.com/assets/libs/queen-bees-2-softball-banner-1640683757133.png" class="asset" transform="matrix(0.06340046226978303,0,0,0.06340046226978303,27.396942138671875,135.0582275390625)"></image><text fill="#000000" font-family="Franklin Gothic" font-size="15" x="199.7930558764512" y="189.20527009662842" transform="matrix(0.9504839777946473,0,0,0.9504839777946473,-165.10705566406253,16.063732147216797)" svgjs:data="{&quot;leading&quot;:&quot;1.3&quot;}"><tspan dy="0" x="199.7930558764512" svgjs:data="{&quot;newLined&quot;:true}">PLAYER</tspan></text><text fill="#000000" font-family="Franklin Gothic" font-size="15" x="199.7930558764512" y="189.20527009662842" transform="matrix(0.9504839777946473,0,0,0.9504839777946473,-107.91668701171876,-26.07260513305664)" svgjs:data="{&quot;leading&quot;:&quot;1.3&quot;}"><tspan dy="0" x="199.7930558764512" svgjs:data="{&quot;newLined&quot;:true}">PLAYER</tspan></text><image width="694" height="760" xlink:href="https://lct-designs.s3.us-west-1.amazonaws.com/assets/libs/queen-bees-2-softball-banner-1640683757133.png" class="asset" transform="matrix(0.06340046226978303,0,0,0.06340046226978303,84.58731079101565,93.49130249023438)"></image><text fill="#000000" font-family="Franklin Gothic" font-size="15" x="199.7930558764512" y="189.20527009662842" transform="matrix(0.9504839777946473,0,0,0.9504839777946473,14.1864013671875,-30.058475494384773)" svgjs:data="{&quot;leading&quot;:&quot;1.3&quot;}"><tspan dy="0" x="199.7930558764512" svgjs:data="{&quot;newLined&quot;:true}">PLAYER</tspan></text><image width="694" height="760" xlink:href="https://lct-designs.s3.us-west-1.amazonaws.com/assets/libs/queen-bees-2-softball-banner-1640683757133.png" class="asset" transform="matrix(0.06340046226978303,0,0,0.06340046226978303,206.69039916992193,89.50543212890625)"></image><image width="694" height="760" xlink:href="https://lct-designs.s3.us-west-1.amazonaws.com/assets/libs/queen-bees-2-softball-banner-1640683757133.png" class="asset" transform="matrix(0.06340046226978303,0,0,0.06340046226978303,153.23651123046878,226.73323059082028)"></image><text fill="#000000" font-family="Franklin Gothic" font-size="15" x="199.7930558764512" y="189.20527009662842" transform="matrix(0.9504839777946473,0,0,0.9504839777946473,-39.267486572265625,107.73873519897461)" svgjs:data="{&quot;leading&quot;:&quot;1.3&quot;}"><tspan dy="0" x="199.7930558764512" svgjs:data="{&quot;newLined&quot;:true}">PLAYER</tspan></text><image width="694" height="760" xlink:href="https://lct-designs.s3.us-west-1.amazonaws.com/assets/libs/queen-bees-2-softball-banner-1640683757133.png" class="asset" transform="matrix(0.06340046226978303,0,0,0.06340046226978303,31.1334228515625,230.71910095214847)"></image><text fill="#000000" font-family="Franklin Gothic" font-size="15" x="199.7930558764512" y="189.20527009662842" transform="matrix(0.9504839777946473,0,0,0.9504839777946473,-161.37057495117188,111.72460556030273)" svgjs:data="{&quot;leading&quot;:&quot;1.3&quot;}"><tspan dy="0" x="199.7930558764512" svgjs:data="{&quot;newLined&quot;:true}">PLAYER</tspan></text><text fill="#000000" font-family="Franklin Gothic" font-size="15" x="199.7930558764512" y="189.20527009662842" transform="matrix(0.9504839777946473,0,0,0.9504839777946473,-104.18020629882812,69.58826828002933)" svgjs:data="{&quot;leading&quot;:&quot;1.3&quot;}"><tspan dy="0" x="199.7930558764512" svgjs:data="{&quot;newLined&quot;:true}">PLAYER</tspan></text><image width="694" height="760" xlink:href="https://lct-designs.s3.us-west-1.amazonaws.com/assets/libs/queen-bees-2-softball-banner-1640683757133.png" class="asset" transform="matrix(0.06340046226978303,0,0,0.06340046226978303,88.32379150390625,189.15217590332034)"></image><g class="mask" style="pointer-events: none;"><g><path fill="#BCBEC0" d="M-3642.4-2101.7v4589.1h7813.4v-4589.1H-3642.4z M500.5,67.2v233.3v66.7H0.5v-66.7V67.2V0.5h500V67.2z" transform="matrix(1,0,0,1,0,0)"></path><g transform="matrix(1,0,0,1,0,0)">
	<rect x="0.5" y="300.5" opacity="0.95" fill="#F1F2F2" width="500" height="66.7"></rect>
	<rect x="0.5" y="0.5" opacity="0.95" fill="#F1F2F2" width="500" height="66.7"></rect>
</g></g></g></svg>