<svg xmlns="http://www.w3.org/2000/svg" version="1.1" xmlns:xlink="http://www.w3.org/1999/xlink" xmlns:svgjs="http://svgjs.dev/svgjs" width="100%" height="100%" viewBox="1 1 499 365.70001220703125" preserveAspectRatio="none" data-info="{&quot;_id&quot;:4,&quot;name&quot;:&quot;POLE POCKET SOCCER BANNERS&quot;,&quot;information&quot;:&quot;- Size: 3’x5’\n- Material: heavy duty vinyl banner\n- Digitally printed on vinyl&quot;,&quot;price&quot;:&quot;95.00&quot;,&quot;sale_price&quot;:&quot;89.99&quot;,&quot;type&quot;:&quot;pole-pocket&quot;,&quot;cover&quot;:{&quot;key&quot;:&quot;assets/models/pole-1628062864266-1631924568908.png&quot;,&quot;url&quot;:&quot;https://lct-designs.s3.us-west-1.amazonaws.com/assets/models/pole-1628062864266-1631924568908.png&quot;},&quot;back&quot;:{&quot;key&quot;:&quot;assets/models/pole-1631924700152.svg&quot;,&quot;url&quot;:&quot;https://lct-designs.s3.us-west-1.amazonaws.com/assets/models/pole-1631924700152.svg&quot;},&quot;mask&quot;:{&quot;key&quot;:&quot;assets/models/pole-mask-1631925211715.svg&quot;,&quot;url&quot;:&quot;https://lct-designs.s3.us-west-1.amazonaws.com/assets/models/pole-mask-1631925211715.svg&quot;},&quot;pos&quot;:&quot;2&quot;,&quot;accessories&quot;:&quot;2,3&quot;}" style="background-color: white;"><g class="model" style="pointer-events: none;"><polygon fill="#FFFFFF" points="0.5,0.5 0.5,67.2 0.5,300.5 0.5,367.2 500.5,367.2 500.5,300.5 500.5,67.2 500.5,0.5 "></polygon></g><image width="760" height="556" xlink:href="https://lct-designs.s3.us-west-1.amazonaws.com/assets/libs/oakland-athletics-2-baseball-banner-1641953160149.png" class="asset background locked" transform="matrix(0.6595323960558116,0,0,0.6595323960558116,0,0)"></image><text fill="#0d0d0d" font-family="Impact" font-size="45" x="192.06642438162737" y="201.88927563680983" stroke-opacity="1" stroke-width="1" stroke="#f7f7f7" transform="matrix(0.285541981458664,0,0,0.285541981458664,-32.57569885253906,30.10301208496095)" svgjs:data="{&quot;leading&quot;:&quot;1.3&quot;}"><tspan dy="0" x="192.06642438162737" svgjs:data="{&quot;newLined&quot;:true}">Coach: Coach's name</tspan></text><text fill="#fff700" font-family="Supersonic Rocketship" font-size="45" stroke-opacity="1" stroke-width="2" stroke="#171717" x="54.90154642456008" y="202.01522374115754" transform="matrix(0.27434292435646057,0,0,0.2743429243564606,0.06986667215823417,101.37499237060547)" svgjs:data="{&quot;leading&quot;:&quot;1.3&quot;}"><tspan dy="0" x="54.90154642456008" svgjs:data="{&quot;newLined&quot;:true}">PLAYER</tspan></text><image width="567" height="760" xlink:href="https://lct-designs.s3.us-west-1.amazonaws.com/assets/libs/oakland-athletics-2-baseball-banner--1641953991074.png" class="asset" transform="matrix(0.05170496180653573,0,0,0.05170496180653573,19.796077728271484,103.17129516601565)"></image><text fill="#fff700" font-family="Supersonic Rocketship" font-size="45" stroke-opacity="1" stroke-width="2" stroke="#171717" x="54.90154642456008" y="202.01522374115754" transform="matrix(0.27434292435646057,0,0,0.2743429243564606,-0.74892050027848,185.0782470703125)" svgjs:data="{&quot;leading&quot;:&quot;1.3&quot;}"><tspan dy="0" x="54.90154642456008" svgjs:data="{&quot;newLined&quot;:true}">PLAYER</tspan></text><image width="567" height="760" xlink:href="https://lct-designs.s3.us-west-1.amazonaws.com/assets/libs/oakland-athletics-2-baseball-banner--1641953991074.png" class="asset" transform="matrix(0.051704969257116325,0,0,0.051704969257116325,18.977291107177734,186.87454223632815)"></image><text fill="#fff700" font-family="Supersonic Rocketship" font-size="45" stroke-opacity="1" stroke-width="2" stroke="#171717" x="54.90154642456008" y="202.01522374115754" transform="matrix(0.27434292435646057,0,0,0.2743429243564606,64.73322296142578,144.08071899414062)" svgjs:data="{&quot;leading&quot;:&quot;1.3&quot;}"><tspan dy="0" x="54.90154642456008" svgjs:data="{&quot;newLined&quot;:true}">PLAYER</tspan></text><image width="567" height="760" xlink:href="https://lct-designs.s3.us-west-1.amazonaws.com/assets/libs/oakland-athletics-2-baseball-banner--1641953991074.png" class="asset" transform="matrix(0.05170496180653573,0,0,0.05170496180653573,84.45943450927734,145.8770294189453)"></image><text fill="#fff700" font-family="Supersonic Rocketship" font-size="45" stroke-opacity="1" stroke-width="2" stroke="#171717" x="54.90154642456008" y="202.01522374115754" transform="matrix(0.27434292435646057,0,0,0.2743429243564606,63.91443252563478,227.78398132324222)" svgjs:data="{&quot;leading&quot;:&quot;1.3&quot;}"><tspan dy="0" x="54.90154642456008" svgjs:data="{&quot;newLined&quot;:true}">PLAYER</tspan></text><image width="567" height="760" xlink:href="https://lct-designs.s3.us-west-1.amazonaws.com/assets/libs/oakland-athletics-2-baseball-banner--1641953991074.png" class="asset" transform="matrix(0.051704969257116325,0,0,0.051704969257116325,83.64064025878906,229.58027648925784)"></image><image width="643" height="760" xlink:href="https://lct-designs.s3.us-west-1.amazonaws.com/assets/libs/oakland-athletics-2-baseball-banner-1641953891679.png" class="asset" transform="matrix(0.2581959664821625,0,0,0.25819596648216253,323.331787109375,91.7830810546875)"></image><text fill="#fff700" font-family="Supersonic Rocketship" font-size="45" stroke-opacity="1" stroke-width="2" stroke="#171717" x="54.90154642456008" y="202.01522374115754" transform="matrix(0.27434292435646057,0,0,0.2743429243564606,134.2012300491333,99.6667709350586)" svgjs:data="{&quot;leading&quot;:&quot;1.3&quot;}"><tspan dy="0" x="54.90154642456008" svgjs:data="{&quot;newLined&quot;:true}">PLAYER</tspan></text><image width="567" height="760" xlink:href="https://lct-designs.s3.us-west-1.amazonaws.com/assets/libs/oakland-athletics-2-baseball-banner--1641953991074.png" class="asset" transform="matrix(0.051704969257116325,0,0,0.051704969257116325,153.92744064331055,101.46307373046878)"></image><text fill="#fff700" font-family="Supersonic Rocketship" font-size="45" stroke-opacity="1" stroke-width="2" stroke="#171717" x="54.90154642456008" y="202.01522374115754" transform="matrix(0.27434292435646057,0,0,0.2743429243564606,133.38244247436523,183.37002563476565)" svgjs:data="{&quot;leading&quot;:&quot;1.3&quot;}"><tspan dy="0" x="54.90154642456008" svgjs:data="{&quot;newLined&quot;:true}">PLAYER</tspan></text><image width="567" height="760" xlink:href="https://lct-designs.s3.us-west-1.amazonaws.com/assets/libs/oakland-athletics-2-baseball-banner--1641953991074.png" class="asset" transform="matrix(0.05170498043298721,0,0,0.05170498043298721,153.1086540222168,185.16632080078128)"></image><text fill="#fff700" font-family="Supersonic Rocketship" font-size="45" stroke-opacity="1" stroke-width="2" stroke="#171717" x="54.90154642456008" y="202.01522374115754" transform="matrix(0.27434292435646057,0,0,0.2743429243564606,198.86459350585938,142.37249755859375)" svgjs:data="{&quot;leading&quot;:&quot;1.3&quot;}"><tspan dy="0" x="54.90154642456008" svgjs:data="{&quot;newLined&quot;:true}">PLAYER</tspan></text><image width="567" height="760" xlink:href="https://lct-designs.s3.us-west-1.amazonaws.com/assets/libs/oakland-athletics-2-baseball-banner--1641953991074.png" class="asset" transform="matrix(0.05170498043298721,0,0,0.05170498043298721,218.59078979492188,144.16880798339844)"></image><text fill="#fff700" font-family="Supersonic Rocketship" font-size="45" stroke-opacity="1" stroke-width="2" stroke="#171717" x="54.90154642456008" y="202.01522374115754" transform="matrix(0.27434292435646057,0,0,0.2743429243564606,198.04579162597656,226.07575988769534)" svgjs:data="{&quot;leading&quot;:&quot;1.3&quot;}"><tspan dy="0" x="54.90154642456008" svgjs:data="{&quot;newLined&quot;:true}">PLAYER</tspan></text><image width="567" height="760" xlink:href="https://lct-designs.s3.us-west-1.amazonaws.com/assets/libs/oakland-athletics-2-baseball-banner--1641953991074.png" class="asset" transform="matrix(0.05170498788356781,0,0,0.05170498788356781,217.77200317382812,227.87205505371097)"></image><text fill="#fff700" font-family="Supersonic Rocketship" font-size="45" stroke-opacity="1" stroke-width="2" stroke="#171717" x="54.90154642456008" y="202.01522374115754" transform="matrix(0.27434292435646057,0,0,0.2743429243564606,265.80560302734375,108.77732849121094)" svgjs:data="{&quot;leading&quot;:&quot;1.3&quot;}"><tspan dy="0" x="54.90154642456008" svgjs:data="{&quot;newLined&quot;:true}">PLAYER</tspan></text><image width="567" height="760" xlink:href="https://lct-designs.s3.us-west-1.amazonaws.com/assets/libs/oakland-athletics-2-baseball-banner--1641953991074.png" class="asset" transform="matrix(0.05170499533414841,0,0,0.051704995334148414,285.53179931640625,110.57363891601562)"></image><text fill="#fff700" font-family="Supersonic Rocketship" font-size="45" stroke-opacity="1" stroke-width="2" stroke="#171717" x="54.90154642456008" y="202.01522374115754" transform="matrix(0.27434292435646057,0,0,0.2743429243564606,264.9867858886719,192.48059082031253)" svgjs:data="{&quot;leading&quot;:&quot;1.3&quot;}"><tspan dy="0" x="54.90154642456008" svgjs:data="{&quot;newLined&quot;:true}">PLAYER</tspan></text><image width="567" height="760" xlink:href="https://lct-designs.s3.us-west-1.amazonaws.com/assets/libs/oakland-athletics-2-baseball-banner--1641953991074.png" class="asset" transform="matrix(0.051705002784729004,0,0,0.05170500278472901,284.7130126953125,194.27688598632815)"></image><text fill="#0d0d0d" font-family="Impact" font-size="45" x="192.06642438162737" y="201.88927563680983" stroke-opacity="1" stroke-width="1" stroke="#f7f7f7" transform="matrix(0.285541981458664,0,0,0.285541981458664,151.66372680664062,30.10301208496095)" svgjs:data="{&quot;leading&quot;:&quot;1.3&quot;}"><tspan dy="0" x="192.06642438162737" svgjs:data="{&quot;newLined&quot;:true}">Team mom: name</tspan></text><g class="mask" style="pointer-events: none;"><g><path fill="#BCBEC0" d="M-3642.4-2101.7v4589.1h7813.4v-4589.1H-3642.4z M500.5,67.2v233.3v66.7H0.5v-66.7V67.2V0.5h500V67.2z" transform="matrix(1,0,0,1,0,0)"></path><g transform="matrix(1,0,0,1,0,0)">
	<rect x="0.5" y="300.5" opacity="0.95" fill="#F1F2F2" width="500" height="66.7"></rect>
	<rect x="0.5" y="0.5" opacity="0.95" fill="#F1F2F2" width="500" height="66.7"></rect>
</g></g></g></svg>