<svg xmlns="http://www.w3.org/2000/svg" version="1.1" xmlns:xlink="http://www.w3.org/1999/xlink" xmlns:svgjs="http://svgjs.dev/svgjs" width="100%" height="100%" viewBox="1 1 499 365.70001220703125" preserveAspectRatio="none" data-info="{&quot;_id&quot;:4,&quot;name&quot;:&quot;POLE POCKET SOCCER BANNERS&quot;,&quot;information&quot;:&quot;- Size: 3’x5’\n- Material: heavy duty vinyl banner\n- Digitally printed on vinyl&quot;,&quot;price&quot;:&quot;95.00&quot;,&quot;sale_price&quot;:&quot;89.99&quot;,&quot;type&quot;:&quot;pole-pocket&quot;,&quot;cover&quot;:{&quot;key&quot;:&quot;assets/models/pole-1628062864266-1631924568908.png&quot;,&quot;url&quot;:&quot;https://lct-designs.s3.us-west-1.amazonaws.com/assets/models/pole-1628062864266-1631924568908.png&quot;},&quot;back&quot;:{&quot;key&quot;:&quot;assets/models/pole-1631924700152.svg&quot;,&quot;url&quot;:&quot;https://lct-designs.s3.us-west-1.amazonaws.com/assets/models/pole-1631924700152.svg&quot;},&quot;mask&quot;:{&quot;key&quot;:&quot;assets/models/pole-mask-1631925211715.svg&quot;,&quot;url&quot;:&quot;https://lct-designs.s3.us-west-1.amazonaws.com/assets/models/pole-mask-1631925211715.svg&quot;},&quot;pos&quot;:&quot;2&quot;,&quot;accessories&quot;:&quot;2,3&quot;}" style="background-color: white;"><g class="model" style="pointer-events: none;"><polygon fill="#FFFFFF" points="0.5,0.5 0.5,67.2 0.5,300.5 0.5,367.2 500.5,367.2 500.5,300.5 500.5,67.2 500.5,0.5 "></polygon></g><image width="760" height="553" xlink:href="https://lct-designs.s3.us-west-1.amazonaws.com/assets/libs/giants-baseball-banner-1641872873378.png" class="asset background locked" transform="matrix(0.6631103294883024,0,0,0.6631103294883024,0,0)"></image><text fill="#0d0d0d" font-family="Impact" font-size="45" x="192.06642438162737" y="201.88927563680983" stroke-opacity="1" stroke-width="1" stroke="#f7f7f7" transform="matrix(0.24028284847736356,0,0,0.24028284847736361,-29.91533279418945,40.09117126464842)" svgjs:data="{&quot;leading&quot;:&quot;1.3&quot;}"><tspan dy="0" x="192.06642438162737" svgjs:data="{&quot;newLined&quot;:true}">Coach: Coach's name</tspan></text><image width="760" height="416" xlink:href="https://lct-designs.s3.us-west-1.amazonaws.com/assets/libs/giants-1-baseball-banner-1640685357849.png" class="asset" transform="matrix(0.25295513868331904,0,0,0.2529551386833191,141.92872619628903,83.31990051269534)"></image><image width="729" height="760" xlink:href="https://lct-designs.s3.us-west-1.amazonaws.com/assets/libs/giants-baseball-banner-1641872950259.png" class="asset" transform="matrix(0.14697317779064178,0,0,0.14697317779064178,182.95080566406244,169.0650634765625)"></image><text fill="#f7f7f7" font-family="Amity Jack" font-size="45" stroke-opacity="1" stroke-width="1" stroke="#121212" x="164.68127054565383" y="198.9363701339798" transform="matrix(0.20465795695781705,0,0,0.20465795695781708,383.0523376464843,136.27590942382812)" svgjs:data="{&quot;leading&quot;:&quot;1.3&quot;}"><tspan dy="0" x="164.68127054565383" svgjs:data="{&quot;newLined&quot;:true}">PLAYER</tspan></text><image width="760" height="558" xlink:href="https://lct-designs.s3.us-west-1.amazonaws.com/assets/libs/giants-baseball-banner-1641872992013.png" class="asset" transform="matrix(0.048501379787921906,0,0,0.048501379787921906,374.8769226074218,154.64459228515625)"></image><text fill="#f7f7f7" font-family="Amity Jack" font-size="45" stroke-opacity="1" stroke-width="1" stroke="#121212" x="164.68127054565383" y="198.9363701339798" transform="matrix(0.20465777814388272,0,0,0.20465777814388275,403.0523376464843,177.53297424316403)" svgjs:data="{&quot;leading&quot;:&quot;1.3&quot;}"><tspan dy="0" x="164.68127054565383" svgjs:data="{&quot;newLined&quot;:true}">PLAYER</tspan></text><image width="760" height="558" xlink:href="https://lct-designs.s3.us-west-1.amazonaws.com/assets/libs/giants-baseball-banner-1641872992013.png" class="asset" transform="matrix(0.04850140586495399,0,0,0.048501405864954,394.8769226074218,195.90165710449222)"></image><text fill="#f7f7f7" font-family="Amity Jack" font-size="45" stroke-opacity="1" stroke-width="1" stroke="#121212" x="164.68127054565383" y="198.9363701339798" transform="matrix(0.20465777814388272,0,0,0.20465777814388275,300.68780517578125,176.30140686035153)" svgjs:data="{&quot;leading&quot;:&quot;1.3&quot;}"><tspan dy="0" x="164.68127054565383" svgjs:data="{&quot;newLined&quot;:true}">PLAYER</tspan></text><image width="760" height="558" xlink:href="https://lct-designs.s3.us-west-1.amazonaws.com/assets/libs/giants-baseball-banner-1641872992013.png" class="asset" transform="matrix(0.04850140586495399,0,0,0.048501405864954,298.81781005859375,245.77957153320315)"></image><text fill="#f7f7f7" font-family="Amity Jack" font-size="45" stroke-opacity="1" stroke-width="1" stroke="#121212" x="164.68127054565383" y="198.9363701339798" transform="matrix(0.20465777814388272,0,0,0.20465777814388275,306.9932250976562,227.41088867187503)" svgjs:data="{&quot;leading&quot;:&quot;1.3&quot;}"><tspan dy="0" x="164.68127054565383" svgjs:data="{&quot;newLined&quot;:true}">PLAYER</tspan></text><text fill="#f7f7f7" font-family="Amity Jack" font-size="45" stroke-opacity="1" stroke-width="1" stroke="#121212" x="164.68127054565383" y="198.9363701339798" transform="matrix(0.20465777814388272,0,0,0.20465777814388275,409.3577575683593,228.64245605468753)" svgjs:data="{&quot;leading&quot;:&quot;1.3&quot;}"><tspan dy="0" x="164.68127054565383" svgjs:data="{&quot;newLined&quot;:true}">PLAYER</tspan></text><image width="760" height="558" xlink:href="https://lct-designs.s3.us-west-1.amazonaws.com/assets/libs/giants-baseball-banner-1641872992013.png" class="asset" transform="matrix(0.04850140586495399,0,0,0.048501405864954,401.1823425292968,247.01113891601565)"></image><image width="760" height="558" xlink:href="https://lct-designs.s3.us-west-1.amazonaws.com/assets/libs/giants-baseball-banner-1641872992013.png" class="asset" transform="matrix(0.04850140586495399,0,0,0.048501405864954,292.5123901367187,194.67008972167972)"></image><image width="760" height="558" xlink:href="https://lct-designs.s3.us-west-1.amazonaws.com/assets/libs/giants-baseball-banner-1641872992013.png" class="asset" transform="matrix(0.04850140213966369,0,0,0.0485014021396637,80.68969726562499,165.7285614013672)"></image><text fill="#f7f7f7" font-family="Amity Jack" font-size="45" stroke-opacity="1" stroke-width="1" stroke="#121212" x="164.68127054565383" y="198.9363701339798" transform="matrix(0.20465777814388272,0,0,0.20465777814388275,124.25920867919919,183.69073486328128)" svgjs:data="{&quot;leading&quot;:&quot;1.3&quot;}"><tspan dy="0" x="164.68127054565383" svgjs:data="{&quot;newLined&quot;:true}">PLAYER</tspan></text><image width="760" height="558" xlink:href="https://lct-designs.s3.us-west-1.amazonaws.com/assets/libs/giants-baseball-banner-1641872992013.png" class="asset" transform="matrix(0.04850140586495399,0,0,0.048501405864954,116.08379364013669,202.67520141601565)"></image><image width="760" height="558" xlink:href="https://lct-designs.s3.us-west-1.amazonaws.com/assets/libs/giants-baseball-banner-1641872992013.png" class="asset" transform="matrix(0.04850140586495399,0,0,0.048501405864954,17.41384124755859,202.67517089843753)"></image><image width="760" height="558" xlink:href="https://lct-designs.s3.us-west-1.amazonaws.com/assets/libs/giants-baseball-banner-1641872992013.png" class="asset" transform="matrix(0.04850140586495399,0,0,0.048501405864954,23.719261169433583,253.7846527099609)"></image><text fill="#f7f7f7" font-family="Amity Jack" font-size="45" stroke-opacity="1" stroke-width="1" stroke="#121212" x="164.68127054565383" y="198.9363701339798" transform="matrix(0.20465777814388272,0,0,0.20465777814388275,129.94886779785156,234.80021667480477)" svgjs:data="{&quot;leading&quot;:&quot;1.3&quot;}"><tspan dy="0" x="164.68127054565383" svgjs:data="{&quot;newLined&quot;:true}">PLAYER</tspan></text><image width="760" height="558" xlink:href="https://lct-designs.s3.us-west-1.amazonaws.com/assets/libs/giants-baseball-banner-1641872992013.png" class="asset" transform="matrix(0.04850140586495399,0,0,0.048501405864954,121.77345275878906,253.78468322753903)"></image><text fill="#f7f7f7" font-family="Amity Jack" font-size="45" stroke-opacity="1" stroke-width="1" stroke="#121212" x="164.68127054565383" y="198.9363701339798" transform="matrix(0.20465777814388272,0,0,0.20465777814388275,31.278915405273434,235.41596984863278)" svgjs:data="{&quot;leading&quot;:&quot;1.3&quot;}"><tspan dy="0" x="164.68127054565383" svgjs:data="{&quot;newLined&quot;:true}">PLAYER</tspan></text><text fill="#f7f7f7" font-family="Amity Jack" font-size="45" stroke-opacity="1" stroke-width="1" stroke="#121212" x="164.68127054565383" y="198.9363701339798" transform="matrix(0.20465777814388272,0,0,0.20465777814388275,25.589256286621097,184.3064880371094)" svgjs:data="{&quot;leading&quot;:&quot;1.3&quot;}"><tspan dy="0" x="164.68127054565383" svgjs:data="{&quot;newLined&quot;:true}">PLAYER</tspan></text><text fill="#f7f7f7" font-family="Amity Jack" font-size="45" stroke-opacity="1" stroke-width="1" stroke="#121212" x="164.68127054565383" y="198.9363701339798" transform="matrix(0.20465779304504392,0,0,0.20465779304504397,88.24935913085938,146.12832641601562)" svgjs:data="{&quot;leading&quot;:&quot;1.3&quot;}"><tspan dy="0" x="164.68127054565383" svgjs:data="{&quot;newLined&quot;:true}">PLAYER</tspan></text><g class="mask" style="pointer-events: none;"><g><path fill="#BCBEC0" d="M-3642.4-2101.7v4589.1h7813.4v-4589.1H-3642.4z M500.5,67.2v233.3v66.7H0.5v-66.7V67.2V0.5h500V67.2z" transform="matrix(1,0,0,1,0,0)"></path><g transform="matrix(1,0,0,1,0,0)">
	<rect x="0.5" y="300.5" opacity="0.95" fill="#F1F2F2" width="500" height="66.7"></rect>
	<rect x="0.5" y="0.5" opacity="0.95" fill="#F1F2F2" width="500" height="66.7"></rect>
</g></g></g></svg>