<svg xmlns="http://www.w3.org/2000/svg" version="1.1" xmlns:xlink="http://www.w3.org/1999/xlink" xmlns:svgjs="http://svgjs.dev/svgjs" width="100%" height="100%" viewBox="1 1 499 365.70001220703125" preserveAspectRatio="none" data-info="{&quot;_id&quot;:4,&quot;name&quot;:&quot;POLE POCKET SOCCER BANNERS&quot;,&quot;information&quot;:&quot;- Size: 3’x5’\n- Material: heavy duty vinyl banner\n- Digitally printed on vinyl&quot;,&quot;price&quot;:&quot;95.00&quot;,&quot;sale_price&quot;:&quot;89.99&quot;,&quot;type&quot;:&quot;pole-pocket&quot;,&quot;cover&quot;:{&quot;key&quot;:&quot;assets/models/pole-1628062864266-1631924568908.png&quot;,&quot;url&quot;:&quot;https://lct-designs.s3.us-west-1.amazonaws.com/assets/models/pole-1628062864266-1631924568908.png&quot;},&quot;back&quot;:{&quot;key&quot;:&quot;assets/models/pole-1631924700152.svg&quot;,&quot;url&quot;:&quot;https://lct-designs.s3.us-west-1.amazonaws.com/assets/models/pole-1631924700152.svg&quot;},&quot;mask&quot;:{&quot;key&quot;:&quot;assets/models/pole-mask-1631925211715.svg&quot;,&quot;url&quot;:&quot;https://lct-designs.s3.us-west-1.amazonaws.com/assets/models/pole-mask-1631925211715.svg&quot;},&quot;pos&quot;:&quot;2&quot;,&quot;accessories&quot;:&quot;2,3&quot;}" style="background-color: white;"><g class="model" style="pointer-events: none;"><polygon fill="#FFFFFF" points="0.5,0.5 0.5,67.2 0.5,300.5 0.5,367.2 500.5,367.2 500.5,300.5 500.5,67.2 500.5,0.5 "></polygon></g><image width="760" height="556" xlink:href="https://lct-designs.s3.us-west-1.amazonaws.com/assets/libs/athletics-2-baseball-banner-1645065351485.png" class="asset background locked" transform="matrix(0.6595323960558116,0,0,0.6595323960558116,0,0)"></image><text fill="#0d0d0d" font-family="Impact" font-size="45" x="192.06642438162737" y="201.88927563680983" stroke-opacity="1" stroke-width="1" stroke="#f7f7f7" transform="matrix(0.3032583892345429,0,0,0.30325838923454285,-41.5672721862793,25.41712760925293)" svgjs:data="{&quot;leading&quot;:&quot;1.3&quot;}"><tspan dy="0" x="192.06642438162737" svgjs:data="{&quot;newLined&quot;:true}">Coach: Coach's name</tspan></text><text fill="#0d0d0d" font-family="Impact" font-size="45" stroke-opacity="1" stroke-width="1" stroke="#fbf9f9" x="187.90310282104446" y="202.01522374115754" transform="matrix(0.2713303864002228,0,0,0.2713303864002228,167.44189453125,99.19834899902344)" svgjs:data="{&quot;leading&quot;:&quot;1.3&quot;}"><tspan dy="0" x="187.90310282104446" svgjs:data="{&quot;newLined&quot;:true}">PLAYER</tspan></text><image width="405" height="760" xlink:href="https://lct-designs.s3.us-west-1.amazonaws.com/assets/libs/athletics-2-baseball-banner-1645065401729.png" class="asset" transform="matrix(0.07697911560535432,0,0,0.07697911560535431,219.81845092773438,82.24051666259766)"></image><text fill="#0d0d0d" font-family="Impact" font-size="45" stroke-opacity="1" stroke-width="1" stroke="#fbf9f9" x="187.90310282104446" y="202.01522374115754" transform="matrix(0.2713303864002228,0,0,0.2713303864002228,275.3482971191406,97.966796875)" svgjs:data="{&quot;leading&quot;:&quot;1.3&quot;}"><tspan dy="0" x="187.90310282104446" svgjs:data="{&quot;newLined&quot;:true}">PLAYER</tspan></text><image width="405" height="760" xlink:href="https://lct-designs.s3.us-west-1.amazonaws.com/assets/libs/athletics-2-baseball-banner-1645065401729.png" class="asset" transform="matrix(0.07697911560535432,0,0,0.07697911560535431,327.7248840332031,81.00896453857422)"></image><text fill="#0d0d0d" font-family="Impact" font-size="45" stroke-opacity="1" stroke-width="1" stroke="#fbf9f9" x="187.90310282104446" y="202.01522374115754" transform="matrix(0.2713303864002228,0,0,0.2713303864002228,382.6389465332032,96.73523712158206)" svgjs:data="{&quot;leading&quot;:&quot;1.3&quot;}"><tspan dy="0" x="187.90310282104446" svgjs:data="{&quot;newLined&quot;:true}">PLAYER</tspan></text><image width="405" height="760" xlink:href="https://lct-designs.s3.us-west-1.amazonaws.com/assets/libs/athletics-2-baseball-banner-1645065401729.png" class="asset" transform="matrix(0.07697911560535432,0,0,0.07697911560535431,435.0155334472657,79.77740478515625)"></image><text fill="#0d0d0d" font-family="Impact" font-size="45" stroke-opacity="1" stroke-width="1" stroke="#fbf9f9" x="187.90310282104446" y="202.01522374115754" transform="matrix(0.2713303864002228,0,0,0.2713303864002228,220.69313049316406,143.53429412841797)" svgjs:data="{&quot;leading&quot;:&quot;1.3&quot;}"><tspan dy="0" x="187.90310282104446" svgjs:data="{&quot;newLined&quot;:true}">PLAYER</tspan></text><image width="405" height="760" xlink:href="https://lct-designs.s3.us-west-1.amazonaws.com/assets/libs/athletics-2-baseball-banner-1645065401729.png" class="asset" transform="matrix(0.07697911560535432,0,0,0.07697911560535431,273.0697021484375,126.57645416259766)"></image><text fill="#0d0d0d" font-family="Impact" font-size="45" stroke-opacity="1" stroke-width="1" stroke="#fbf9f9" x="187.90310282104446" y="202.01522374115754" transform="matrix(0.2713303864002228,0,0,0.2713303864002228,327.9837951660156,142.30274200439456)" svgjs:data="{&quot;leading&quot;:&quot;1.3&quot;}"><tspan dy="0" x="187.90310282104446" svgjs:data="{&quot;newLined&quot;:true}">PLAYER</tspan></text><image width="405" height="760" xlink:href="https://lct-designs.s3.us-west-1.amazonaws.com/assets/libs/athletics-2-baseball-banner-1645065401729.png" class="asset" transform="matrix(0.07697911560535432,0,0,0.07697911560535431,380.36032104492193,125.34490203857422)"></image><text fill="#0d0d0d" font-family="Impact" font-size="45" stroke-opacity="1" stroke-width="1" stroke="#fbf9f9" x="187.90310282104446" y="202.01522374115754" transform="matrix(0.2713303864002228,0,0,0.2713303864002228,170.66848754882812,187.25444793701175)" svgjs:data="{&quot;leading&quot;:&quot;1.3&quot;}"><tspan dy="0" x="187.90310282104446" svgjs:data="{&quot;newLined&quot;:true}">PLAYER</tspan></text><image width="405" height="760" xlink:href="https://lct-designs.s3.us-west-1.amazonaws.com/assets/libs/athletics-2-baseball-banner-1645065401729.png" class="asset" transform="matrix(0.07697911560535432,0,0,0.07697911560535431,223.04504394531253,170.2966079711914)"></image><text fill="#0d0d0d" font-family="Impact" font-size="45" stroke-opacity="1" stroke-width="1" stroke="#fbf9f9" x="187.90310282104446" y="202.01522374115754" transform="matrix(0.2713303864002228,0,0,0.2713303864002228,278.57489013671875,186.0228958129883)" svgjs:data="{&quot;leading&quot;:&quot;1.3&quot;}"><tspan dy="0" x="187.90310282104446" svgjs:data="{&quot;newLined&quot;:true}">PLAYER</tspan></text><image width="405" height="760" xlink:href="https://lct-designs.s3.us-west-1.amazonaws.com/assets/libs/athletics-2-baseball-banner-1645065401729.png" class="asset" transform="matrix(0.07697911560535432,0,0,0.07697911560535431,330.9514770507813,169.06505584716797)"></image><text fill="#0d0d0d" font-family="Impact" font-size="45" stroke-opacity="1" stroke-width="1" stroke="#fbf9f9" x="187.90310282104446" y="202.01522374115754" transform="matrix(0.2713303864002228,0,0,0.2713303864002228,385.86553955078125,184.79134368896487)" svgjs:data="{&quot;leading&quot;:&quot;1.3&quot;}"><tspan dy="0" x="187.90310282104446" svgjs:data="{&quot;newLined&quot;:true}">PLAYER</tspan></text><image width="405" height="760" xlink:href="https://lct-designs.s3.us-west-1.amazonaws.com/assets/libs/athletics-2-baseball-banner-1645065401729.png" class="asset" transform="matrix(0.07697911560535432,0,0,0.07697911560535431,438.24212646484375,167.83350372314456)"></image><text fill="#0d0d0d" font-family="Impact" font-size="45" stroke-opacity="1" stroke-width="1" stroke="#fbf9f9" x="187.90310282104446" y="202.01522374115754" transform="matrix(0.2713303864002228,0,0,0.2713303864002228,223.9197235107422,231.5904006958008)" svgjs:data="{&quot;leading&quot;:&quot;1.3&quot;}"><tspan dy="0" x="187.90310282104446" svgjs:data="{&quot;newLined&quot;:true}">PLAYER</tspan></text><image width="405" height="760" xlink:href="https://lct-designs.s3.us-west-1.amazonaws.com/assets/libs/athletics-2-baseball-banner-1645065401729.png" class="asset" transform="matrix(0.07697911560535432,0,0,0.07697911560535431,276.2962951660156,214.6325607299805)"></image><text fill="#0d0d0d" font-family="Impact" font-size="45" stroke-opacity="1" stroke-width="1" stroke="#fbf9f9" x="187.90310282104446" y="202.01522374115754" transform="matrix(0.2713303864002228,0,0,0.2713303864002228,331.2103881835938,230.35884857177737)" svgjs:data="{&quot;leading&quot;:&quot;1.3&quot;}"><tspan dy="0" x="187.90310282104446" svgjs:data="{&quot;newLined&quot;:true}">PLAYER</tspan></text><image width="405" height="760" xlink:href="https://lct-designs.s3.us-west-1.amazonaws.com/assets/libs/athletics-2-baseball-banner-1645065401729.png" class="asset" transform="matrix(0.07697911560535432,0,0,0.07697911560535431,383.58691406250006,213.40100860595706)"></image><image width="734" height="760" xlink:href="https://lct-designs.s3.us-west-1.amazonaws.com/assets/libs/oakland-baseball-banner-1644545153844.png" class="asset" transform="matrix(0.1793820708990097,0,0,0.1793820708990097,36.68589019775392,154.2864227294922)"></image><g class="mask" style="pointer-events: none;"><g><path fill="#BCBEC0" d="M-3642.4-2101.7v4589.1h7813.4v-4589.1H-3642.4z M500.5,67.2v233.3v66.7H0.5v-66.7V67.2V0.5h500V67.2z" transform="matrix(1,0,0,1,0,0)"></path><g transform="matrix(1,0,0,1,0,0)">
	<rect x="0.5" y="300.5" opacity="0.95" fill="#F1F2F2" width="500" height="66.7"></rect>
	<rect x="0.5" y="0.5" opacity="0.95" fill="#F1F2F2" width="500" height="66.7"></rect>
</g></g></g></svg>