<svg xmlns="http://www.w3.org/2000/svg" version="1.1" xmlns:xlink="http://www.w3.org/1999/xlink" xmlns:svgjs="http://svgjs.dev/svgjs" width="100%" height="100%" viewBox="1 1 499 365.70001220703125" preserveAspectRatio="none" data-info="{&quot;_id&quot;:4,&quot;name&quot;:&quot;POLE POCKET SOCCER BANNERS&quot;,&quot;information&quot;:&quot;- Size: 3’x5’\n- Material: heavy duty vinyl banner\n- Digitally printed on vinyl&quot;,&quot;price&quot;:&quot;95.00&quot;,&quot;sale_price&quot;:&quot;89.99&quot;,&quot;type&quot;:&quot;pole-pocket&quot;,&quot;cover&quot;:{&quot;key&quot;:&quot;assets/models/pole-1628062864266-1631924568908.png&quot;,&quot;url&quot;:&quot;https://lct-designs.s3.us-west-1.amazonaws.com/assets/models/pole-1628062864266-1631924568908.png&quot;},&quot;back&quot;:{&quot;key&quot;:&quot;assets/models/pole-1631924700152.svg&quot;,&quot;url&quot;:&quot;https://lct-designs.s3.us-west-1.amazonaws.com/assets/models/pole-1631924700152.svg&quot;},&quot;mask&quot;:{&quot;key&quot;:&quot;assets/models/pole-mask-1631925211715.svg&quot;,&quot;url&quot;:&quot;https://lct-designs.s3.us-west-1.amazonaws.com/assets/models/pole-mask-1631925211715.svg&quot;},&quot;pos&quot;:&quot;2&quot;,&quot;accessories&quot;:&quot;2,3&quot;}" style="background-color: white;"><g class="model" style="pointer-events: none;"><polygon fill="#FFFFFF" points="0.5,0.5 0.5,67.2 0.5,300.5 0.5,367.2 500.5,367.2 500.5,300.5 500.5,67.2 500.5,0.5 "></polygon></g><image width="760" height="553" xlink:href="https://lct-designs.s3.us-west-1.amazonaws.com/assets/libs/giants-5-baseball-banner-1641872873378.png" class="asset background locked" transform="matrix(0.6631103294883024,0,0,0.6631103294883024,0,0)"></image><text fill="#0d0d0d" font-family="Impact" font-size="45" x="192.06642438162737" y="201.88927563680983" stroke-opacity="1" stroke-width="1" stroke="#f7f7f7" transform="matrix(0.24028278887271878,0,0,0.2402827888727188,157.27676391601562,182.95141601562503)" svgjs:data="{&quot;leading&quot;:&quot;1.3&quot;}"><tspan dy="0" x="192.06642438162737" svgjs:data="{&quot;newLined&quot;:true}">Coach: Coach's name</tspan></text><image width="760" height="416" xlink:href="https://lct-designs.s3.us-west-1.amazonaws.com/assets/libs/giants-1-baseball-banner-1640685357849.png" class="asset" transform="matrix(0.22927199304103849,0,0,0.22927199304103854,164.9014739990234,123.961181640625)"></image><text fill="#f7f7f7" font-family="Amity Jack" font-size="45" stroke-opacity="1" stroke-width="1" stroke="#121212" x="164.68127054565383" y="198.9363701339798" transform="matrix(0.24323202669620514,0,0,0.24323202669620517,87.41877746582033,68.47952270507812)" svgjs:data="{&quot;leading&quot;:&quot;1.3&quot;}"><tspan dy="0" x="164.68127054565383" svgjs:data="{&quot;newLined&quot;:true}">PLAYER</tspan></text><image width="694" height="760" xlink:href="https://lct-designs.s3.us-west-1.amazonaws.com/assets/libs/giants-5-baseball-banner-1641872992013.png" class="asset" transform="matrix(0.04002384096384049,0,0,0.040023840963840485,134.76081848144534,75.46697235107422)"></image><image width="694" height="760" xlink:href="https://lct-designs.s3.us-west-1.amazonaws.com/assets/libs/giants-5-baseball-banner-1641872992013.png" class="asset" transform="matrix(0.04002384841442108,0,0,0.04002384841442109,229.73619079589844,74.23542022705081)"></image><text fill="#f7f7f7" font-family="Amity Jack" font-size="45" stroke-opacity="1" stroke-width="1" stroke="#121212" x="164.68127054565383" y="198.9363701339798" transform="matrix(0.24323202669620514,0,0,0.24323202669620517,182.39414978027344,67.24797058105469)" svgjs:data="{&quot;leading&quot;:&quot;1.3&quot;}"><tspan dy="0" x="164.68127054565383" svgjs:data="{&quot;newLined&quot;:true}">PLAYER</tspan></text><image width="694" height="760" xlink:href="https://lct-designs.s3.us-west-1.amazonaws.com/assets/libs/giants-5-baseball-banner-1641872992013.png" class="asset" transform="matrix(0.04002385586500168,0,0,0.040023855865001685,324.7115631103516,74.8511962890625)"></image><text fill="#f7f7f7" font-family="Amity Jack" font-size="45" stroke-opacity="1" stroke-width="1" stroke="#121212" x="164.68127054565383" y="198.9363701339798" transform="matrix(0.24323202669620514,0,0,0.24323202669620517,277.36952209472656,67.8637466430664)" svgjs:data="{&quot;leading&quot;:&quot;1.3&quot;}"><tspan dy="0" x="164.68127054565383" svgjs:data="{&quot;newLined&quot;:true}">PLAYER</tspan></text><image width="694" height="760" xlink:href="https://lct-designs.s3.us-west-1.amazonaws.com/assets/libs/giants-5-baseball-banner-1641872992013.png" class="asset" transform="matrix(0.04002385586500168,0,0,0.040023855865001685,411.06622314453125,105.64004516601562)"></image><text fill="#f7f7f7" font-family="Amity Jack" font-size="45" stroke-opacity="1" stroke-width="1" stroke="#121212" x="164.68127054565383" y="198.9363701339798" transform="matrix(0.24323202669620514,0,0,0.24323202669620517,363.7241821289063,98.65259552001956)" svgjs:data="{&quot;leading&quot;:&quot;1.3&quot;}"><tspan dy="0" x="164.68127054565383" svgjs:data="{&quot;newLined&quot;:true}">PLAYER</tspan></text><image width="694" height="760" xlink:href="https://lct-designs.s3.us-west-1.amazonaws.com/assets/libs/giants-5-baseball-banner-1641872992013.png" class="asset" transform="matrix(0.04002385586500168,0,0,0.040023855865001685,445.0809936523438,182.61215972900393)"></image><text fill="#f7f7f7" font-family="Amity Jack" font-size="45" stroke-opacity="1" stroke-width="1" stroke="#121212" x="164.68127054565383" y="198.9363701339798" transform="matrix(0.24323202669620514,0,0,0.24323202669620517,397.73895263671875,175.62471008300784)" svgjs:data="{&quot;leading&quot;:&quot;1.3&quot;}"><tspan dy="0" x="164.68127054565383" svgjs:data="{&quot;newLined&quot;:true}">PLAYER</tspan></text><image width="694" height="760" xlink:href="https://lct-designs.s3.us-west-1.amazonaws.com/assets/libs/giants-5-baseball-banner-1641872992013.png" class="asset" transform="matrix(0.04002385586500168,0,0,0.040023855865001685,392.2731323242188,247.26872253417966)"></image><text fill="#f7f7f7" font-family="Amity Jack" font-size="45" stroke-opacity="1" stroke-width="1" stroke="#121212" x="164.68127054565383" y="198.9363701339798" transform="matrix(0.24323202669620514,0,0,0.24323202669620517,344.93109130859375,240.2812805175781)" svgjs:data="{&quot;leading&quot;:&quot;1.3&quot;}"><tspan dy="0" x="164.68127054565383" svgjs:data="{&quot;newLined&quot;:true}">PLAYER</tspan></text><image width="694" height="760" xlink:href="https://lct-designs.s3.us-west-1.amazonaws.com/assets/libs/giants-5-baseball-banner-1641872992013.png" class="asset" transform="matrix(0.04002385586500168,0,0,0.040023855865001685,308.0613098144531,248.50028991699216)"></image><text fill="#f7f7f7" font-family="Amity Jack" font-size="45" stroke-opacity="1" stroke-width="1" stroke="#121212" x="164.68127054565383" y="198.9363701339798" transform="matrix(0.24323202669620514,0,0,0.24323202669620517,260.7192687988281,241.5128479003906)" svgjs:data="{&quot;leading&quot;:&quot;1.3&quot;}"><tspan dy="0" x="164.68127054565383" svgjs:data="{&quot;newLined&quot;:true}">PLAYER</tspan></text><image width="694" height="760" xlink:href="https://lct-designs.s3.us-west-1.amazonaws.com/assets/libs/giants-5-baseball-banner-1641872992013.png" class="asset" transform="matrix(0.04002385586500168,0,0,0.040023855865001685,231.2386474609375,249.73185729980466)"></image><text fill="#f7f7f7" font-family="Amity Jack" font-size="45" stroke-opacity="1" stroke-width="1" stroke="#121212" x="164.68127054565383" y="198.9363701339798" transform="matrix(0.24323202669620514,0,0,0.24323202669620517,183.89660644531253,242.74441528320315)" svgjs:data="{&quot;leading&quot;:&quot;1.3&quot;}"><tspan dy="0" x="164.68127054565383" svgjs:data="{&quot;newLined&quot;:true}">PLAYER</tspan></text><image width="694" height="760" xlink:href="https://lct-designs.s3.us-west-1.amazonaws.com/assets/libs/giants-5-baseball-banner-1641872992013.png" class="asset" transform="matrix(0.04002385586500168,0,0,0.040023855865001685,137.7903594970703,250.34764099121097)"></image><text fill="#f7f7f7" font-family="Amity Jack" font-size="45" stroke-opacity="1" stroke-width="1" stroke="#121212" x="164.68127054565383" y="198.9363701339798" transform="matrix(0.24323202669620514,0,0,0.24323202669620517,90.44831848144531,243.3601989746094)" svgjs:data="{&quot;leading&quot;:&quot;1.3&quot;}"><tspan dy="0" x="164.68127054565383" svgjs:data="{&quot;newLined&quot;:true}">PLAYER</tspan></text><image width="694" height="760" xlink:href="https://lct-designs.s3.us-west-1.amazonaws.com/assets/libs/giants-5-baseball-banner-1641872992013.png" class="asset" transform="matrix(0.04002385586500168,0,0,0.040023855865001685,54.81006622314453,210.3221588134766)"></image><text fill="#f7f7f7" font-family="Amity Jack" font-size="45" stroke-opacity="1" stroke-width="1" stroke="#121212" x="164.68127054565383" y="198.9363701339798" transform="matrix(0.24323202669620514,0,0,0.24323202669620517,7.468025207519531,203.33471679687503)" svgjs:data="{&quot;leading&quot;:&quot;1.3&quot;}"><tspan dy="0" x="164.68127054565383" svgjs:data="{&quot;newLined&quot;:true}">PLAYER</tspan></text><image width="694" height="760" xlink:href="https://lct-designs.s3.us-west-1.amazonaws.com/assets/libs/giants-5-baseball-banner-1641872992013.png" class="asset" transform="matrix(0.04002385586500168,0,0,0.040023855865001685,56.80513763427736,129.65538024902344)"></image><text fill="#f7f7f7" font-family="Amity Jack" font-size="45" stroke-opacity="1" stroke-width="1" stroke="#121212" x="164.68127054565383" y="198.9363701339798" transform="matrix(0.24323202669620514,0,0,0.24323202669620517,9.46309661865235,122.6679382324219)" svgjs:data="{&quot;leading&quot;:&quot;1.3&quot;}"><tspan dy="0" x="164.68127054565383" svgjs:data="{&quot;newLined&quot;:true}">PLAYER</tspan></text><g class="mask" style="pointer-events: none;"><g><path fill="#BCBEC0" d="M-3642.4-2101.7v4589.1h7813.4v-4589.1H-3642.4z M500.5,67.2v233.3v66.7H0.5v-66.7V67.2V0.5h500V67.2z" transform="matrix(1,0,0,1,0,0)"></path><g transform="matrix(1,0,0,1,0,0)">
	<rect x="0.5" y="300.5" opacity="0.95" fill="#F1F2F2" width="500" height="66.7"></rect>
	<rect x="0.5" y="0.5" opacity="0.95" fill="#F1F2F2" width="500" height="66.7"></rect>
</g></g></g></svg>