<svg xmlns="http://www.w3.org/2000/svg" version="1.1" xmlns:xlink="http://www.w3.org/1999/xlink" xmlns:svgjs="http://svgjs.dev/svgjs" width="100%" height="100%" viewBox="1 1 499 365.70001220703125" preserveAspectRatio="none" data-info="{&quot;_id&quot;:4,&quot;name&quot;:&quot;POLE POCKET SOCCER BANNERS&quot;,&quot;information&quot;:&quot;- Size: 3’x5’\n- Material: heavy duty vinyl banner\n- Digitally printed on vinyl&quot;,&quot;price&quot;:&quot;95.00&quot;,&quot;sale_price&quot;:&quot;89.99&quot;,&quot;type&quot;:&quot;pole-pocket&quot;,&quot;cover&quot;:{&quot;key&quot;:&quot;assets/models/pole-1628062864266-1631924568908.png&quot;,&quot;url&quot;:&quot;https://lct-designs.s3.us-west-1.amazonaws.com/assets/models/pole-1628062864266-1631924568908.png&quot;},&quot;back&quot;:{&quot;key&quot;:&quot;assets/models/pole-1631924700152.svg&quot;,&quot;url&quot;:&quot;https://lct-designs.s3.us-west-1.amazonaws.com/assets/models/pole-1631924700152.svg&quot;},&quot;mask&quot;:{&quot;key&quot;:&quot;assets/models/pole-mask-1631925211715.svg&quot;,&quot;url&quot;:&quot;https://lct-designs.s3.us-west-1.amazonaws.com/assets/models/pole-mask-1631925211715.svg&quot;},&quot;pos&quot;:&quot;2&quot;,&quot;accessories&quot;:&quot;2,3&quot;}" style="background-color: white;"><g class="model" style="pointer-events: none;"><polygon fill="#FFFFFF" points="0.5,0.5 0.5,67.2 0.5,300.5 0.5,367.2 500.5,367.2 500.5,300.5 500.5,67.2 500.5,0.5 "></polygon></g><image width="760" height="553" xlink:href="https://lct-designs.s3.us-west-1.amazonaws.com/assets/libs/giants-4-baseball-banner-1644906669449.png" class="asset background locked" transform="matrix(0.6631103294883024,0,0,0.6631103294883024,0,0)"></image><text fill="#0d0d0d" font-family="Impact" font-size="45" x="192.06642438162737" y="201.88927563680983" stroke-opacity="1" stroke-width="1" stroke="#f7f7f7" transform="matrix(0.3032583892345428,0,0,0.30325838923454285,133.3095550537109,227.39195251464847)" svgjs:data="{&quot;leading&quot;:&quot;1.3&quot;}"><tspan dy="0" x="192.06642438162737" svgjs:data="{&quot;newLined&quot;:true}">Coach: Coach's name</tspan></text><image width="760" height="263" xlink:href="https://lct-designs.s3.us-west-1.amazonaws.com/assets/libs/giant-baseball-banner-1644993841787.png" class="asset" transform="matrix(0.3539994657039642,0,0,0.35399946570396423,115.64039611816406,191.91000366210935)"></image><text fill="#fcf9f8" font-family="Impact" font-size="45" x="192.06642438162737" y="201.88927563680983" stroke-opacity="1" stroke-width="1" stroke="#0d0d0d" transform="matrix(0.28629204630851746,0.004482236225157976,-0.004482236225157976,0.28629204630851746,-2.069889783859253,69.14836883544922)" svgjs:data="{&quot;leading&quot;:&quot;1.3&quot;}"><tspan dy="0" x="192.06642438162737" svgjs:data="{&quot;newLined&quot;:true}">PLAYER</tspan></text><image width="759" height="454" xlink:href="https://lct-designs.s3.us-west-1.amazonaws.com/assets/libs/rockets2-sofftball-banner-1640683677761.png" class="asset" transform="matrix(0.09241938591003417,0,0,0.0924193859100342,17.11818122863769,78.9332046508789)"></image><image width="759" height="454" xlink:href="https://lct-designs.s3.us-west-1.amazonaws.com/assets/libs/rockets2-sofftball-banner-1640683677761.png" class="asset" transform="matrix(0.09241938591003417,0,0,0.0924193859100342,108.39897155761716,77.08587646484378)"></image><text fill="#fcf9f8" font-family="Impact" font-size="45" x="192.06642438162737" y="201.88927563680983" stroke-opacity="1" stroke-width="1" stroke="#0d0d0d" transform="matrix(0.28629204630851746,0.004482235759496689,-0.004482235759496688,0.28629204630851746,89.21089935302733,67.30104064941406)" svgjs:data="{&quot;leading&quot;:&quot;1.3&quot;}"><tspan dy="0" x="192.06642438162737" svgjs:data="{&quot;newLined&quot;:true}">PLAYER</tspan></text><text fill="#fcf9f8" font-family="Impact" font-size="45" x="192.06642438162737" y="201.88927563680983" stroke-opacity="1" stroke-width="1" stroke="#0d0d0d" transform="matrix(0.28629204630851746,0.004482235759496689,-0.004482235759496688,0.28629204630851746,189.58036804199216,68.5325927734375)" svgjs:data="{&quot;leading&quot;:&quot;1.3&quot;}"><tspan dy="0" x="192.06642438162737" svgjs:data="{&quot;newLined&quot;:true}">PLAYER</tspan></text><image width="759" height="454" xlink:href="https://lct-designs.s3.us-west-1.amazonaws.com/assets/libs/rockets2-sofftball-banner-1640683677761.png" class="asset" transform="matrix(0.09241938591003417,0,0,0.0924193859100342,208.76843261718747,78.31742858886722)"></image><image width="759" height="454" xlink:href="https://lct-designs.s3.us-west-1.amazonaws.com/assets/libs/rockets2-sofftball-banner-1640683677761.png" class="asset" transform="matrix(0.09241938591003417,0,0,0.0924193859100342,300.04922485351557,76.47010040283203)"></image><text fill="#fcf9f8" font-family="Impact" font-size="45" x="192.06642438162737" y="201.88927563680983" stroke-opacity="1" stroke-width="1" stroke="#0d0d0d" transform="matrix(0.28629204630851746,0.004482235759496689,-0.004482235759496688,0.28629204630851746,280.8611450195312,66.68526458740234)" svgjs:data="{&quot;leading&quot;:&quot;1.3&quot;}"><tspan dy="0" x="192.06642438162737" svgjs:data="{&quot;newLined&quot;:true}">PLAYER</tspan></text><image width="759" height="454" xlink:href="https://lct-designs.s3.us-west-1.amazonaws.com/assets/libs/rockets2-sofftball-banner-1640683677761.png" class="asset" transform="matrix(0.09241938591003417,0,0,0.0924193859100342,399.3349304199218,75.85432434082034)"></image><text fill="#fcf9f8" font-family="Impact" font-size="45" x="192.06642438162737" y="201.88927563680983" stroke-opacity="1" stroke-width="1" stroke="#0d0d0d" transform="matrix(0.28629204630851746,0.004482235759496689,-0.004482235759496688,0.28629204630851746,380.1468505859374,66.06948852539065)" svgjs:data="{&quot;leading&quot;:&quot;1.3&quot;}"><tspan dy="0" x="192.06642438162737" svgjs:data="{&quot;newLined&quot;:true}">PLAYER</tspan></text><image width="759" height="454" xlink:href="https://lct-designs.s3.us-west-1.amazonaws.com/assets/libs/rockets2-sofftball-banner-1640683677761.png" class="asset" transform="matrix(0.09241938591003417,0,0,0.0924193859100342,68.52210998535155,134.96891021728516)"></image><text fill="#fcf9f8" font-family="Impact" font-size="45" x="192.06642438162737" y="201.88927563680983" stroke-opacity="1" stroke-width="1" stroke="#0d0d0d" transform="matrix(0.28629204630851746,0.004482235759496689,-0.004482235759496688,0.28629204630851746,49.334037780761705,125.1840744018555)" svgjs:data="{&quot;leading&quot;:&quot;1.3&quot;}"><tspan dy="0" x="192.06642438162737" svgjs:data="{&quot;newLined&quot;:true}">PLAYER</tspan></text><text fill="#fcf9f8" font-family="Impact" font-size="45" x="192.06642438162737" y="201.88927563680983" stroke-opacity="1" stroke-width="1" stroke="#0d0d0d" transform="matrix(0.28629204630851746,0.004482235759496689,-0.004482235759496688,0.28629204630851746,149.70350646972653,126.4156265258789)" svgjs:data="{&quot;leading&quot;:&quot;1.3&quot;}"><tspan dy="0" x="192.06642438162737" svgjs:data="{&quot;newLined&quot;:true}">PLAYER</tspan></text><image width="759" height="454" xlink:href="https://lct-designs.s3.us-west-1.amazonaws.com/assets/libs/rockets2-sofftball-banner-1640683677761.png" class="asset" transform="matrix(0.09241938591003417,0,0,0.0924193859100342,168.89157104492185,136.20046234130862)"></image><image width="759" height="454" xlink:href="https://lct-designs.s3.us-west-1.amazonaws.com/assets/libs/rockets2-sofftball-banner-1640683677761.png" class="asset" transform="matrix(0.09241938591003417,0,0,0.0924193859100342,260.17236328124994,134.35313415527344)"></image><text fill="#fcf9f8" font-family="Impact" font-size="45" x="192.06642438162737" y="201.88927563680983" stroke-opacity="1" stroke-width="1" stroke="#0d0d0d" transform="matrix(0.28629204630851746,0.004482235759496689,-0.004482235759496688,0.28629204630851746,240.98428344726562,124.56829833984378)" svgjs:data="{&quot;leading&quot;:&quot;1.3&quot;}"><tspan dy="0" x="192.06642438162737" svgjs:data="{&quot;newLined&quot;:true}">PLAYER</tspan></text><image width="759" height="454" xlink:href="https://lct-designs.s3.us-west-1.amazonaws.com/assets/libs/rockets2-sofftball-banner-1640683677761.png" class="asset" transform="matrix(0.09241938591003417,0,0,0.0924193859100342,359.4580688476562,133.73735809326175)"></image><text fill="#fcf9f8" font-family="Impact" font-size="45" x="192.06642438162737" y="201.88927563680983" stroke-opacity="1" stroke-width="1" stroke="#0d0d0d" transform="matrix(0.28629204630851746,0.004482235759496689,-0.004482235759496688,0.28629204630851746,340.2699890136718,123.95252227783203)" svgjs:data="{&quot;leading&quot;:&quot;1.3&quot;}"><tspan dy="0" x="192.06642438162737" svgjs:data="{&quot;newLined&quot;:true}">PLAYER</tspan></text><g class="mask" style="pointer-events: none;"><g><path fill="#BCBEC0" d="M-3642.4-2101.7v4589.1h7813.4v-4589.1H-3642.4z M500.5,67.2v233.3v66.7H0.5v-66.7V67.2V0.5h500V67.2z" transform="matrix(1,0,0,1,0,0)"></path><g transform="matrix(1,0,0,1,0,0)">
	<rect x="0.5" y="300.5" opacity="0.95" fill="#F1F2F2" width="500" height="66.7"></rect>
	<rect x="0.5" y="0.5" opacity="0.95" fill="#F1F2F2" width="500" height="66.7"></rect>
</g></g></g></svg>