<svg xmlns="http://www.w3.org/2000/svg" version="1.1" xmlns:xlink="http://www.w3.org/1999/xlink" xmlns:svgjs="http://svgjs.dev/svgjs" width="100%" height="100%" viewBox="1 1 499 365.70001220703125" preserveAspectRatio="none" data-info="{&quot;_id&quot;:4,&quot;name&quot;:&quot;POLE POCKET SOCCER BANNERS&quot;,&quot;information&quot;:&quot;- Size: 3’x5’\n- Material: heavy duty vinyl banner\n- Digitally printed on vinyl&quot;,&quot;price&quot;:&quot;95.00&quot;,&quot;sale_price&quot;:&quot;89.99&quot;,&quot;type&quot;:&quot;pole-pocket&quot;,&quot;cover&quot;:{&quot;key&quot;:&quot;assets/models/pole-1628062864266-1631924568908.png&quot;,&quot;url&quot;:&quot;https://lct-designs.s3.us-west-1.amazonaws.com/assets/models/pole-1628062864266-1631924568908.png&quot;},&quot;back&quot;:{&quot;key&quot;:&quot;assets/models/pole-1631924700152.svg&quot;,&quot;url&quot;:&quot;https://lct-designs.s3.us-west-1.amazonaws.com/assets/models/pole-1631924700152.svg&quot;},&quot;mask&quot;:{&quot;key&quot;:&quot;assets/models/pole-mask-1631925211715.svg&quot;,&quot;url&quot;:&quot;https://lct-designs.s3.us-west-1.amazonaws.com/assets/models/pole-mask-1631925211715.svg&quot;},&quot;pos&quot;:&quot;2&quot;,&quot;accessories&quot;:&quot;2,3&quot;}" style="background-color: white;"><g class="model" style="pointer-events: none;"><polygon fill="#FFFFFF" points="0.5,0.5 0.5,67.2 0.5,300.5 0.5,367.2 500.5,367.2 500.5,300.5 500.5,67.2 500.5,0.5 "></polygon></g><image width="760" height="553" xlink:href="https://lct-designs.s3.us-west-1.amazonaws.com/assets/libs/hotshots-baseball-banner-1641872873378.png" class="asset background locked" transform="matrix(0.6631103294883024,0,0,0.6631103294883024,0,0)"></image><text fill="#0d0d0d" font-family="Impact" font-size="45" x="192.06642438162737" y="201.88927563680983" stroke-opacity="1" stroke-width="1" stroke="#f7f7f7" transform="matrix(0.24028287827968595,0,0,0.240282878279686,157.27677917480466,33.93340301513672)" svgjs:data="{&quot;leading&quot;:&quot;1.3&quot;}"><tspan dy="0" x="192.06642438162737" svgjs:data="{&quot;newLined&quot;:true}">Coach: Coach's name</tspan></text><image width="760" height="136" xlink:href="https://lct-designs.s3.us-west-1.amazonaws.com/assets/libs/hotshots-baseball-banner-1644308731829.png" class="asset" transform="matrix(0.43491742014884943,0,0,0.43491742014884954,97.09596252441406,101.7409591674805)"></image><image width="760" height="708" xlink:href="https://lct-designs.s3.us-west-1.amazonaws.com/assets/libs/hotshots-baseball-banner-1641872950259.png" class="asset" transform="matrix(0.15506163239479062,0,0,0.15506163239479068,29.43347358703613,167.55990600585938)"></image><text fill="#f7f7f7" font-family="Amity Jack" font-size="45" stroke-opacity="1" stroke-width="1" stroke="#121212" x="164.68127054565383" y="198.9363701339798" transform="matrix(0.2800456583499908,0,0,0.28004565834999084,131.54869079589844,163.474853515625)" svgjs:data="{&quot;leading&quot;:&quot;1.3&quot;}"><tspan dy="0" x="164.68127054565383" svgjs:data="{&quot;newLined&quot;:true}">PLAYER</tspan></text><image width="760" height="331" xlink:href="https://lct-designs.s3.us-west-1.amazonaws.com/assets/libs/hotshots-baseball-banner-1641872992013.png" class="asset" transform="matrix(0.07949079573154448,0,0,0.07949079573154451,246.33004760742182,181.89433288574222)"></image><text fill="#f7f7f7" font-family="Amity Jack" font-size="45" stroke-opacity="1" stroke-width="1" stroke="#121212" x="164.68127054565383" y="198.9363701339798" transform="matrix(0.2800456583499908,0,0,0.28004565834999084,211.12997436523435,164.70640563964844)" svgjs:data="{&quot;leading&quot;:&quot;1.3&quot;}"><tspan dy="0" x="164.68127054565383" svgjs:data="{&quot;newLined&quot;:true}">PLAYER</tspan></text><image width="760" height="331" xlink:href="https://lct-designs.s3.us-west-1.amazonaws.com/assets/libs/hotshots-baseball-banner-1641872992013.png" class="asset" transform="matrix(0.07949085533618926,0,0,0.07949085533618927,322.8324890136719,180.04699707031253)"></image><text fill="#f7f7f7" font-family="Amity Jack" font-size="45" stroke-opacity="1" stroke-width="1" stroke="#121212" x="164.68127054565383" y="198.9363701339798" transform="matrix(0.2800456583499908,0,0,0.28004565834999084,287.6324157714844,162.85906982421878)" svgjs:data="{&quot;leading&quot;:&quot;1.3&quot;}"><tspan dy="0" x="164.68127054565383" svgjs:data="{&quot;newLined&quot;:true}">PLAYER</tspan></text><image width="760" height="331" xlink:href="https://lct-designs.s3.us-west-1.amazonaws.com/assets/libs/hotshots-baseball-banner-1641872992013.png" class="asset" transform="matrix(0.07949090003967285,0,0,0.07949090003967287,404.2610473632812,180.04699707031253)"></image><text fill="#f7f7f7" font-family="Amity Jack" font-size="45" stroke-opacity="1" stroke-width="1" stroke="#121212" x="164.68127054565383" y="198.9363701339798" transform="matrix(0.2800456583499908,0,0,0.28004565834999084,369.0609741210937,162.85906982421878)" svgjs:data="{&quot;leading&quot;:&quot;1.3&quot;}"><tspan dy="0" x="164.68127054565383" svgjs:data="{&quot;newLined&quot;:true}">PLAYER</tspan></text><image width="760" height="331" xlink:href="https://lct-designs.s3.us-west-1.amazonaws.com/assets/libs/hotshots-baseball-banner-1641872992013.png" class="asset" transform="matrix(0.07949070632457732,0,0,0.07949070632457735,166.7487640380859,180.66278076171878)"></image><image width="760" height="331" xlink:href="https://lct-designs.s3.us-west-1.amazonaws.com/assets/libs/hotshots-baseball-banner-1641872992013.png" class="asset" transform="matrix(0.0794907361268997,0,0,0.07949073612689972,174.28572082519528,239.7773742675782)"></image><text fill="#f7f7f7" font-family="Amity Jack" font-size="45" stroke-opacity="1" stroke-width="1" stroke="#121212" x="164.68127054565383" y="198.9363701339798" transform="matrix(0.2800456583499908,0,0,0.28004565834999084,139.08564758300778,222.5894470214844)" svgjs:data="{&quot;leading&quot;:&quot;1.3&quot;}"><tspan dy="0" x="164.68127054565383" svgjs:data="{&quot;newLined&quot;:true}">PLAYER</tspan></text><image width="760" height="331" xlink:href="https://lct-designs.s3.us-west-1.amazonaws.com/assets/libs/hotshots-baseball-banner-1641872992013.png" class="asset" transform="matrix(0.07949081808328627,0,0,0.0794908180832863,253.8670043945312,241.0089263916016)"></image><text fill="#f7f7f7" font-family="Amity Jack" font-size="45" stroke-opacity="1" stroke-width="1" stroke="#121212" x="164.68127054565383" y="198.9363701339798" transform="matrix(0.2800456583499908,0,0,0.28004565834999084,218.6669311523437,223.82099914550784)" svgjs:data="{&quot;leading&quot;:&quot;1.3&quot;}"><tspan dy="0" x="164.68127054565383" svgjs:data="{&quot;newLined&quot;:true}">PLAYER</tspan></text><image width="760" height="331" xlink:href="https://lct-designs.s3.us-west-1.amazonaws.com/assets/libs/hotshots-baseball-banner-1641872992013.png" class="asset" transform="matrix(0.07949087768793106,0,0,0.07949087768793106,330.3694458007812,239.1615905761719)"></image><text fill="#f7f7f7" font-family="Amity Jack" font-size="45" stroke-opacity="1" stroke-width="1" stroke="#121212" x="164.68127054565383" y="198.9363701339798" transform="matrix(0.2800456583499908,0,0,0.28004565834999084,295.1693725585937,221.97366333007815)" svgjs:data="{&quot;leading&quot;:&quot;1.3&quot;}"><tspan dy="0" x="164.68127054565383" svgjs:data="{&quot;newLined&quot;:true}">PLAYER</tspan></text><image width="760" height="331" xlink:href="https://lct-designs.s3.us-west-1.amazonaws.com/assets/libs/hotshots-baseball-banner-1641872992013.png" class="asset" transform="matrix(0.07949092984199523,0,0,0.07949092984199524,411.7980041503906,239.1615905761719)"></image><text fill="#f7f7f7" font-family="Amity Jack" font-size="45" stroke-opacity="1" stroke-width="1" stroke="#121212" x="164.68127054565383" y="198.9363701339798" transform="matrix(0.2800456583499908,0,0,0.28004565834999084,376.5979309082031,221.97366333007815)" svgjs:data="{&quot;leading&quot;:&quot;1.3&quot;}"><tspan dy="0" x="164.68127054565383" svgjs:data="{&quot;newLined&quot;:true}">PLAYER</tspan></text><g class="mask" style="pointer-events: none;"><g><path fill="#BCBEC0" d="M-3642.4-2101.7v4589.1h7813.4v-4589.1H-3642.4z M500.5,67.2v233.3v66.7H0.5v-66.7V67.2V0.5h500V67.2z" transform="matrix(1,0,0,1,0,0)"></path><g transform="matrix(1,0,0,1,0,0)">
	<rect x="0.5" y="300.5" opacity="0.95" fill="#F1F2F2" width="500" height="66.7"></rect>
	<rect x="0.5" y="0.5" opacity="0.95" fill="#F1F2F2" width="500" height="66.7"></rect>
</g></g></g></svg>