<svg xmlns="http://www.w3.org/2000/svg" version="1.1" xmlns:xlink="http://www.w3.org/1999/xlink" xmlns:svgjs="http://svgjs.dev/svgjs" width="100%" height="100%" viewBox="1 1 499 365.70001220703125" preserveAspectRatio="none" data-info="{&quot;_id&quot;:4,&quot;name&quot;:&quot;POLE POCKET SOCCER BANNERS&quot;,&quot;information&quot;:&quot;- Size: 3’x5’\n- Material: heavy duty vinyl banner\n- Digitally printed on vinyl&quot;,&quot;price&quot;:&quot;95.00&quot;,&quot;sale_price&quot;:&quot;89.99&quot;,&quot;type&quot;:&quot;pole-pocket&quot;,&quot;cover&quot;:{&quot;key&quot;:&quot;assets/models/pole-1628062864266-1631924568908.png&quot;,&quot;url&quot;:&quot;https://lct-designs.s3.us-west-1.amazonaws.com/assets/models/pole-1628062864266-1631924568908.png&quot;},&quot;back&quot;:{&quot;key&quot;:&quot;assets/models/pole-1631924700152.svg&quot;,&quot;url&quot;:&quot;https://lct-designs.s3.us-west-1.amazonaws.com/assets/models/pole-1631924700152.svg&quot;},&quot;mask&quot;:{&quot;key&quot;:&quot;assets/models/pole-mask-1631925211715.svg&quot;,&quot;url&quot;:&quot;https://lct-designs.s3.us-west-1.amazonaws.com/assets/models/pole-mask-1631925211715.svg&quot;},&quot;pos&quot;:&quot;2&quot;,&quot;accessories&quot;:&quot;2,3&quot;}" style="background-color: white;"><g class="model" style="pointer-events: none;"><polygon fill="#FFFFFF" points="0.5,0.5 0.5,67.2 0.5,300.5 0.5,367.2 500.5,367.2 500.5,300.5 500.5,67.2 500.5,0.5 "></polygon></g><image width="760" height="556" xlink:href="https://lct-designs.s3.us-west-1.amazonaws.com/assets/libs/jets-softball-banner-1644898063737.png" class="asset background locked" transform="matrix(0.6595323960558116,0,0,0.6595323960558116,0,0)"></image><text fill="#0d0d0d" font-family="Impact" font-size="45" x="192.06642438162737" y="201.88927563680983" stroke-opacity="1" stroke-width="1" stroke="#f7f7f7" transform="matrix(0.2860414385795593,0,0,0.2860414385795594,27.79837417602539,208.4180603027344)" svgjs:data="{&quot;leading&quot;:&quot;1.3&quot;}"><tspan dy="0" x="192.06642438162737" svgjs:data="{&quot;newLined&quot;:true}">Coach: Coach's name</tspan></text><image width="760" height="387" xlink:href="https://lct-designs.s3.us-west-1.amazonaws.com/assets/libs/jets-softball-banner-1644897998890.png" class="asset" transform="matrix(0.3416059911251068,0,0,0.34160599112510687,13.319973945617683,111.09044647216797)"></image><text fill="#fbf4f4" font-family="Amity Jack" font-size="45" stroke-opacity="1" stroke-width="0" stroke="#f2eded" x="164.68127054565383" y="198.9363701339798" transform="matrix(0.24605344235897067,0,0,0.24605344235897067,219.72941589355472,97.47474670410156)" svgjs:data="{&quot;leading&quot;:&quot;1.3&quot;}"><tspan dy="0" x="164.68127054565383" svgjs:data="{&quot;newLined&quot;:true}">PLAYER</tspan></text><image width="760" height="726" xlink:href="https://lct-designs.s3.us-west-1.amazonaws.com/assets/libs/jets-softball-banner-1644897952831.png" class="asset" transform="matrix(0.05139008164405823,0,0,0.051390081644058234,259.1133728027344,101.10335540771484)"></image><image width="760" height="726" xlink:href="https://lct-designs.s3.us-west-1.amazonaws.com/assets/libs/jets-softball-banner-1644897952831.png" class="asset" transform="matrix(0.05139008164405823,0,0,0.051390081644058234,349.1626281738281,99.87180328369143)"></image><text fill="#fbf4f4" font-family="Amity Jack" font-size="45" stroke-opacity="1" stroke-width="0" stroke="#f2eded" x="164.68127054565383" y="198.9363701339798" transform="matrix(0.24605344235897067,0,0,0.24605344235897067,309.7786865234375,96.24319458007812)" svgjs:data="{&quot;leading&quot;:&quot;1.3&quot;}"><tspan dy="0" x="164.68127054565383" svgjs:data="{&quot;newLined&quot;:true}">PLAYER</tspan></text><image width="760" height="726" xlink:href="https://lct-designs.s3.us-west-1.amazonaws.com/assets/libs/jets-softball-banner-1644897952831.png" class="asset" transform="matrix(0.05139008164405823,0,0,0.051390081644058234,439.21188354492193,99.25602722167972)"></image><text fill="#fbf4f4" font-family="Amity Jack" font-size="45" stroke-opacity="1" stroke-width="0" stroke="#f2eded" x="164.68127054565383" y="198.9363701339798" transform="matrix(0.24605344235897067,0,0,0.24605344235897067,399.8279418945313,95.6274185180664)" svgjs:data="{&quot;leading&quot;:&quot;1.3&quot;}"><tspan dy="0" x="164.68127054565383" svgjs:data="{&quot;newLined&quot;:true}">PLAYER</tspan></text><image width="760" height="726" xlink:href="https://lct-designs.s3.us-west-1.amazonaws.com/assets/libs/jets-softball-banner-1644897952831.png" class="asset" transform="matrix(0.05139008164405823,0,0,0.051390081644058234,305.5912170410157,138.0499725341797)"></image><text fill="#fbf4f4" font-family="Amity Jack" font-size="45" stroke-opacity="1" stroke-width="0" stroke="#f2eded" x="164.68127054565383" y="198.9363701339798" transform="matrix(0.24605344235897067,0,0,0.24605344235897067,266.207275390625,134.42136383056643)" svgjs:data="{&quot;leading&quot;:&quot;1.3&quot;}"><tspan dy="0" x="164.68127054565383" svgjs:data="{&quot;newLined&quot;:true}">PLAYER</tspan></text><image width="760" height="726" xlink:href="https://lct-designs.s3.us-west-1.amazonaws.com/assets/libs/jets-softball-banner-1644897952831.png" class="asset" transform="matrix(0.05139008164405823,0,0,0.051390081644058234,395.64047241210943,137.43419647216797)"></image><text fill="#fbf4f4" font-family="Amity Jack" font-size="45" stroke-opacity="1" stroke-width="0" stroke="#f2eded" x="164.68127054565383" y="198.9363701339798" transform="matrix(0.24605344235897067,0,0,0.24605344235897067,356.2565307617188,133.8055877685547)" svgjs:data="{&quot;leading&quot;:&quot;1.3&quot;}"><tspan dy="0" x="164.68127054565383" svgjs:data="{&quot;newLined&quot;:true}">PLAYER</tspan></text><text fill="#fbf4f4" font-family="Amity Jack" font-size="45" stroke-opacity="1" stroke-width="0" stroke="#f2eded" x="164.68127054565383" y="198.9363701339798" transform="matrix(0.24605344235897067,0,0,0.24605344235897067,219.87721252441406,192.9201736450195)" svgjs:data="{&quot;leading&quot;:&quot;1.3&quot;}"><tspan dy="0" x="164.68127054565383" svgjs:data="{&quot;newLined&quot;:true}">PLAYER</tspan></text><image width="760" height="726" xlink:href="https://lct-designs.s3.us-west-1.amazonaws.com/assets/libs/jets-softball-banner-1644897952831.png" class="asset" transform="matrix(0.05139008164405823,0,0,0.051390081644058234,259.26116943359375,196.54878997802732)"></image><image width="760" height="726" xlink:href="https://lct-designs.s3.us-west-1.amazonaws.com/assets/libs/jets-softball-banner-1644897952831.png" class="asset" transform="matrix(0.05139008164405823,0,0,0.051390081644058234,349.31042480468756,195.31723785400393)"></image><text fill="#fbf4f4" font-family="Amity Jack" font-size="45" stroke-opacity="1" stroke-width="0" stroke="#f2eded" x="164.68127054565383" y="198.9363701339798" transform="matrix(0.24605344235897067,0,0,0.24605344235897067,309.92648315429693,191.68862152099612)" svgjs:data="{&quot;leading&quot;:&quot;1.3&quot;}"><tspan dy="0" x="164.68127054565383" svgjs:data="{&quot;newLined&quot;:true}">PLAYER</tspan></text><image width="760" height="726" xlink:href="https://lct-designs.s3.us-west-1.amazonaws.com/assets/libs/jets-softball-banner-1644897952831.png" class="asset" transform="matrix(0.05139008164405823,0,0,0.051390081644058234,439.3596801757813,194.70145416259768)"></image><text fill="#fbf4f4" font-family="Amity Jack" font-size="45" stroke-opacity="1" stroke-width="0" stroke="#f2eded" x="164.68127054565383" y="198.9363701339798" transform="matrix(0.24605344235897067,0,0,0.24605344235897067,399.9757385253907,191.07285308837893)" svgjs:data="{&quot;leading&quot;:&quot;1.3&quot;}"><tspan dy="0" x="164.68127054565383" svgjs:data="{&quot;newLined&quot;:true}">PLAYER</tspan></text><image width="760" height="726" xlink:href="https://lct-designs.s3.us-west-1.amazonaws.com/assets/libs/jets-softball-banner-1644897952831.png" class="asset" transform="matrix(0.05139008164405823,0,0,0.051390081644058234,305.739013671875,233.49539947509768)"></image><text fill="#fbf4f4" font-family="Amity Jack" font-size="45" stroke-opacity="1" stroke-width="0" stroke="#f2eded" x="164.68127054565383" y="198.9363701339798" transform="matrix(0.24605344235897067,0,0,0.24605344235897067,266.3550720214844,229.86678314208987)" svgjs:data="{&quot;leading&quot;:&quot;1.3&quot;}"><tspan dy="0" x="164.68127054565383" svgjs:data="{&quot;newLined&quot;:true}">PLAYER</tspan></text><image width="760" height="726" xlink:href="https://lct-designs.s3.us-west-1.amazonaws.com/assets/libs/jets-softball-banner-1644897952831.png" class="asset" transform="matrix(0.05139008164405823,0,0,0.051390081644058234,395.7882690429688,232.87961578369143)"></image><text fill="#fbf4f4" font-family="Amity Jack" font-size="45" stroke-opacity="1" stroke-width="0" stroke="#f2eded" x="164.68127054565383" y="198.9363701339798" transform="matrix(0.24605344235897067,0,0,0.24605344235897067,356.4043273925781,229.25101470947263)" svgjs:data="{&quot;leading&quot;:&quot;1.3&quot;}"><tspan dy="0" x="164.68127054565383" svgjs:data="{&quot;newLined&quot;:true}">PLAYER</tspan></text><g class="mask" style="pointer-events: none;"><g><path fill="#BCBEC0" d="M-3642.4-2101.7v4589.1h7813.4v-4589.1H-3642.4z M500.5,67.2v233.3v66.7H0.5v-66.7V67.2V0.5h500V67.2z" transform="matrix(1,0,0,1,0,0)"></path><g transform="matrix(1,0,0,1,0,0)">
	<rect x="0.5" y="300.5" opacity="0.95" fill="#F1F2F2" width="500" height="66.7"></rect>
	<rect x="0.5" y="0.5" opacity="0.95" fill="#F1F2F2" width="500" height="66.7"></rect>
</g></g></g></svg>