<svg xmlns="http://www.w3.org/2000/svg" version="1.1" xmlns:xlink="http://www.w3.org/1999/xlink" xmlns:svgjs="http://svgjs.dev/svgjs" width="100%" height="100%" viewBox="1 1 499 365.70001220703125" preserveAspectRatio="none" data-info="{&quot;_id&quot;:4,&quot;name&quot;:&quot;POLE POCKET SOCCER BANNERS&quot;,&quot;information&quot;:&quot;- Size: 3’x5’\n- Material: heavy duty vinyl banner\n- Digitally printed on vinyl&quot;,&quot;price&quot;:&quot;95.00&quot;,&quot;sale_price&quot;:&quot;89.99&quot;,&quot;type&quot;:&quot;pole-pocket&quot;,&quot;cover&quot;:{&quot;key&quot;:&quot;assets/models/pole-1628062864266-1631924568908.png&quot;,&quot;url&quot;:&quot;https://lct-designs.s3.us-west-1.amazonaws.com/assets/models/pole-1628062864266-1631924568908.png&quot;},&quot;back&quot;:{&quot;key&quot;:&quot;assets/models/pole-1631924700152.svg&quot;,&quot;url&quot;:&quot;https://lct-designs.s3.us-west-1.amazonaws.com/assets/models/pole-1631924700152.svg&quot;},&quot;mask&quot;:{&quot;key&quot;:&quot;assets/models/pole-mask-1631925211715.svg&quot;,&quot;url&quot;:&quot;https://lct-designs.s3.us-west-1.amazonaws.com/assets/models/pole-mask-1631925211715.svg&quot;},&quot;pos&quot;:&quot;2&quot;,&quot;accessories&quot;:&quot;2,3&quot;}" style="background-color: white;"><g class="model" style="pointer-events: none;"><polygon fill="#FFFFFF" points="0.5,0.5 0.5,67.2 0.5,300.5 0.5,367.2 500.5,367.2 500.5,300.5 500.5,67.2 500.5,0.5 "></polygon></g><image width="760" height="556" xlink:href="https://lct-designs.s3.us-west-1.amazonaws.com/assets/libs/dolphins-2-softball-banner-1640682447705.png" class="asset background locked" transform="matrix(0.6595323960558116,0,0,0.6595323960558116,0,0)"></image><text fill="#000000" font-family="DEATHE MAACH NCV" font-size="40" x="187.8820669987872" y="200.72270826237065" transform="matrix(0.3223560154438019,0,0,0.3223560154438018,341.91558837890625,24.1956844329834)" svgjs:data="{&quot;leading&quot;:&quot;1.3&quot;}"><tspan dy="0" x="187.8820669987872" svgjs:data="{&quot;newLined&quot;:true}">TEAM MOM: NAME</tspan></text><text fill="#000000" font-family="DEATHE MAACH NCV" font-size="40" x="187.8820669987872" y="200.72270826237065" transform="matrix(0.3223560154438019,0,0,0.3223560154438018,-46.032848358154304,25.32053947448729)" svgjs:data="{&quot;leading&quot;:&quot;1.3&quot;}"><tspan dy="0" x="187.8820669987872" svgjs:data="{&quot;newLined&quot;:true}">COACH: COACH NAME</tspan></text><image width="760" height="567" xlink:href="https://lct-designs.s3.us-west-1.amazonaws.com/assets/libs/dolphins-2-softball-banner-1640682384612.png" class="asset" transform="matrix(0.2873086929321289,0,0,0.28730869293212885,142.07041931152344,84.18080139160156)"></image><image width="759" height="481" xlink:href="https://lct-designs.s3.us-west-1.amazonaws.com/assets/libs/dolphins-2-sofball-banner-1640682005965.png" class="asset" transform="matrix(0.05575075000524521,0,0,0.0557507500052452,433.96807861328125,106.10729980468747)"></image><text fill="#000000" font-family="DEATHE MAACH NCV" font-size="40" x="187.8820669987872" y="200.72270826237065" transform="matrix(0.3223560154438019,0,0,0.3223560154438018,369.91314697265625,83.81255340576169)" svgjs:data="{&quot;leading&quot;:&quot;1.3&quot;}"><tspan dy="0" x="187.8820669987872" svgjs:data="{&quot;newLined&quot;:true}">player</tspan></text><image width="759" height="481" xlink:href="https://lct-designs.s3.us-west-1.amazonaws.com/assets/libs/dolphins-2-sofball-banner-1640682005965.png" class="asset" transform="matrix(0.05575075000524521,0,0,0.0557507500052452,385.47607421875006,160.6623611450195)"></image><text fill="#000000" font-family="DEATHE MAACH NCV" font-size="40" x="187.8820669987872" y="200.72270826237065" transform="matrix(0.3223560154438019,0,0,0.3223560154438018,321.421142578125,138.36761474609375)" svgjs:data="{&quot;leading&quot;:&quot;1.3&quot;}"><tspan dy="0" x="187.8820669987872" svgjs:data="{&quot;newLined&quot;:true}">player</tspan></text><image width="759" height="481" xlink:href="https://lct-designs.s3.us-west-1.amazonaws.com/assets/libs/dolphins-2-sofball-banner-1640682005965.png" class="asset" transform="matrix(0.055750757455825806,0,0,0.0557507574558258,445.53173828125,193.28291320800778)"></image><text fill="#000000" font-family="DEATHE MAACH NCV" font-size="40" x="187.8820669987872" y="200.72270826237065" transform="matrix(0.3223560154438019,0,0,0.3223560154438018,381.476806640625,170.98815917968747)" svgjs:data="{&quot;leading&quot;:&quot;1.3&quot;}"><tspan dy="0" x="187.8820669987872" svgjs:data="{&quot;newLined&quot;:true}">player</tspan></text><image width="759" height="481" xlink:href="https://lct-designs.s3.us-west-1.amazonaws.com/assets/libs/dolphins-2-sofball-banner-1640682005965.png" class="asset" transform="matrix(0.05575079098343849,0,0,0.055750790983438485,407.163330078125,245.58830249309537)"></image><text fill="#000000" font-family="DEATHE MAACH NCV" font-size="40" x="187.8820669987872" y="200.72270826237065" transform="matrix(0.3223560154438019,0,0,0.3223560154438018,343.1083984375,223.29354846477506)" svgjs:data="{&quot;leading&quot;:&quot;1.3&quot;}"><tspan dy="0" x="187.8820669987872" svgjs:data="{&quot;newLined&quot;:true}">player</tspan></text><image width="759" height="481" xlink:href="https://lct-designs.s3.us-west-1.amazonaws.com/assets/libs/dolphins-2-sofball-banner-1640682005965.png" class="asset" transform="matrix(0.05575079843401909,0,0,0.05575079843401908,338.4240417480469,245.58830249309537)"></image><text fill="#000000" font-family="DEATHE MAACH NCV" font-size="40" x="187.8820669987872" y="200.72270826237065" transform="matrix(0.3223560154438019,0,0,0.3223560154438018,274.3691101074219,223.29354846477506)" svgjs:data="{&quot;leading&quot;:&quot;1.3&quot;}"><tspan dy="0" x="187.8820669987872" svgjs:data="{&quot;newLined&quot;:true}">player</tspan></text><image width="759" height="481" xlink:href="https://lct-designs.s3.us-west-1.amazonaws.com/assets/libs/dolphins-2-sofball-banner-1640682005965.png" class="asset" transform="matrix(0.055750809609889984,0,0,0.055750809609889984,273.6217346191407,246.150710940361)"></image><text fill="#000000" font-family="DEATHE MAACH NCV" font-size="40" x="187.8820669987872" y="200.72270826237065" transform="matrix(0.3223560154438019,0,0,0.3223560154438018,209.56680297851562,223.85595691204068)" svgjs:data="{&quot;leading&quot;:&quot;1.3&quot;}"><tspan dy="0" x="187.8820669987872" svgjs:data="{&quot;newLined&quot;:true}">player</tspan></text><image width="759" height="481" xlink:href="https://lct-designs.s3.us-west-1.amazonaws.com/assets/libs/dolphins-2-sofball-banner-1640682005965.png" class="asset" transform="matrix(-0.0591035857796669,0,0,0.055750854313373566,214.4436492919922,247.27555835247043)"></image><text fill="#000000" font-family="DEATHE MAACH NCV" font-size="40" x="187.8820669987872" y="200.72270826237065" transform="matrix(0.3223560154438019,0,0,0.3223560154438018,118.89302825927734,223.29351794719693)" svgjs:data="{&quot;leading&quot;:&quot;1.3&quot;}"><tspan dy="0" x="187.8820669987872" svgjs:data="{&quot;newLined&quot;:true}">player</tspan></text><image width="759" height="481" xlink:href="https://lct-designs.s3.us-west-1.amazonaws.com/assets/libs/dolphins-2-sofball-banner-1640682005965.png" class="asset" transform="matrix(-0.0591035857796669,0,0,0.05575086176395416,142.89226531982422,246.71311950683597)"></image><text fill="#000000" font-family="DEATHE MAACH NCV" font-size="40" x="187.8820669987872" y="200.72270826237065" transform="matrix(0.3223560154438019,0,0,0.3223560154438018,47.34164428710939,222.73107910156247)" svgjs:data="{&quot;leading&quot;:&quot;1.3&quot;}"><tspan dy="0" x="187.8820669987872" svgjs:data="{&quot;newLined&quot;:true}">player</tspan></text><image width="759" height="481" xlink:href="https://lct-designs.s3.us-west-1.amazonaws.com/assets/libs/dolphins-2-sofball-banner-1640682005965.png" class="asset" transform="matrix(-0.0591035857796669,0,0,0.05575086921453475,73.59058380126955,246.15071105957034)"></image><text fill="#000000" font-family="DEATHE MAACH NCV" font-size="40" x="187.8820669987872" y="200.72270826237065" transform="matrix(0.3223560154438019,0,0,0.3223560154438018,-21.96004104614258,222.16867065429685)" svgjs:data="{&quot;leading&quot;:&quot;1.3&quot;}"><tspan dy="0" x="187.8820669987872" svgjs:data="{&quot;newLined&quot;:true}">player</tspan></text><image width="759" height="481" xlink:href="https://lct-designs.s3.us-west-1.amazonaws.com/assets/libs/dolphins-2-sofball-banner-1640682005965.png" class="asset" transform="matrix(-0.0591035857796669,0,0,0.055750880390405655,53.21971893310548,184.84657287597653)"></image><text fill="#000000" font-family="DEATHE MAACH NCV" font-size="40" x="187.8820669987872" y="200.72270826237065" transform="matrix(0.3223560154438019,0,0,0.3223560154438018,-42.33090591430664,160.8645324707031)" svgjs:data="{&quot;leading&quot;:&quot;1.3&quot;}"><tspan dy="0" x="187.8820669987872" svgjs:data="{&quot;newLined&quot;:true}">player</tspan></text><image width="759" height="481" xlink:href="https://lct-designs.s3.us-west-1.amazonaws.com/assets/libs/dolphins-2-sofball-banner-1640682005965.png" class="asset" transform="matrix(-0.0591035857796669,0,0,0.05575088784098625,132.39779663085938,181.4720306396484)"></image><text fill="#000000" font-family="DEATHE MAACH NCV" font-size="40" x="187.8820669987872" y="200.72270826237065" transform="matrix(0.3223560154438019,0,0,0.3223560154438018,36.84716415405275,157.489990234375)" svgjs:data="{&quot;leading&quot;:&quot;1.3&quot;}"><tspan dy="0" x="187.8820669987872" svgjs:data="{&quot;newLined&quot;:true}">player</tspan></text><image width="759" height="481" xlink:href="https://lct-designs.s3.us-west-1.amazonaws.com/assets/libs/dolphins-2-sofball-banner-1640682005965.png" class="asset" transform="matrix(-0.0591035857796669,0,0,0.05575089529156685,131.7117462158203,111.1690979003906)"></image><text fill="#000000" font-family="DEATHE MAACH NCV" font-size="40" x="187.8820669987872" y="200.72270826237065" transform="matrix(0.3223560154438019,0,0,0.3223560154438018,36.16111373901367,87.18705749511716)" svgjs:data="{&quot;leading&quot;:&quot;1.3&quot;}"><tspan dy="0" x="187.8820669987872" svgjs:data="{&quot;newLined&quot;:true}">player</tspan></text><image width="759" height="481" xlink:href="https://lct-designs.s3.us-west-1.amazonaws.com/assets/libs/dolphins-2-sofball-banner-1640682005965.png" class="asset" transform="matrix(-0.0591035857796669,0,0,0.055750902742147446,60.16036224365236,111.73152160644531)"></image><text fill="#000000" font-family="DEATHE MAACH NCV" font-size="40" x="187.8820669987872" y="200.72270826237065" transform="matrix(0.3223560154438019,0,0,0.3223560154438018,-35.3902702331543,87.74948120117188)" svgjs:data="{&quot;leading&quot;:&quot;1.3&quot;}"><tspan dy="0" x="187.8820669987872" svgjs:data="{&quot;newLined&quot;:true}">player</tspan></text><image width="759" height="481" xlink:href="https://lct-designs.s3.us-west-1.amazonaws.com/assets/libs/dolphins-2-sofball-banner-1640682005965.png" class="asset" transform="matrix(0.055750757455825806,0,0,0.0557507574558258,351.1682434082031,106.66972351074219)"></image><text fill="#000000" font-family="DEATHE MAACH NCV" font-size="40" x="187.8820669987872" y="200.72270826237065" transform="matrix(0.3223560154438019,0,0,0.3223560154438018,287.1133117675781,84.3749771118164)" svgjs:data="{&quot;leading&quot;:&quot;1.3&quot;}"><tspan dy="0" x="187.8820669987872" svgjs:data="{&quot;newLined&quot;:true}">player</tspan></text><g class="mask" style="pointer-events: none;"><g><path fill="#BCBEC0" d="M-3642.4-2101.7v4589.1h7813.4v-4589.1H-3642.4z M500.5,67.2v233.3v66.7H0.5v-66.7V67.2V0.5h500V67.2z" transform="matrix(1,0,0,1,0,0)"></path><g transform="matrix(1,0,0,1,0,0)">
	<rect x="0.5" y="300.5" opacity="0.95" fill="#F1F2F2" width="500" height="66.7"></rect>
	<rect x="0.5" y="0.5" opacity="0.95" fill="#F1F2F2" width="500" height="66.7"></rect>
</g></g></g></svg>