<svg xmlns="http://www.w3.org/2000/svg" version="1.1" xmlns:xlink="http://www.w3.org/1999/xlink" xmlns:svgjs="http://svgjs.dev/svgjs" width="100%" height="100%" viewBox="1 1 499 365.70001220703125" preserveAspectRatio="none" data-info="{&quot;_id&quot;:4,&quot;name&quot;:&quot;POLE POCKET SOCCER BANNERS&quot;,&quot;information&quot;:&quot;- Size: 3’x5’\n- Material: heavy duty vinyl banner\n- Digitally printed on vinyl&quot;,&quot;price&quot;:&quot;95.00&quot;,&quot;sale_price&quot;:&quot;89.99&quot;,&quot;type&quot;:&quot;pole-pocket&quot;,&quot;cover&quot;:{&quot;key&quot;:&quot;assets/models/pole-1628062864266-1631924568908.png&quot;,&quot;url&quot;:&quot;https://lct-designs.s3.us-west-1.amazonaws.com/assets/models/pole-1628062864266-1631924568908.png&quot;},&quot;back&quot;:{&quot;key&quot;:&quot;assets/models/pole-1631924700152.svg&quot;,&quot;url&quot;:&quot;https://lct-designs.s3.us-west-1.amazonaws.com/assets/models/pole-1631924700152.svg&quot;},&quot;mask&quot;:{&quot;key&quot;:&quot;assets/models/pole-mask-1631925211715.svg&quot;,&quot;url&quot;:&quot;https://lct-designs.s3.us-west-1.amazonaws.com/assets/models/pole-mask-1631925211715.svg&quot;},&quot;pos&quot;:&quot;2&quot;,&quot;accessories&quot;:&quot;2,3&quot;}" style="background-color: white;"><g class="model" style="pointer-events: none;"><polygon fill="#FFFFFF" points="0.5,0.5 0.5,67.2 0.5,300.5 0.5,367.2 500.5,367.2 500.5,300.5 500.5,67.2 500.5,0.5 "></polygon></g><image width="760" height="556" xlink:href="https://lct-designs.s3.us-west-1.amazonaws.com/assets/libs/egypts-softball-banner-1644898063737.png" class="asset background locked" transform="matrix(0.6595323960558116,0,0,0.6595323960558116,0,0)"></image><text fill="#0d0d0d" font-family="Impact" font-size="45" x="192.06642438162737" y="201.88927563680983" stroke-opacity="1" stroke-width="1" stroke="#f7f7f7" transform="matrix(0.2631618082523346,0,0,0.2631618082523346,244.0154418945312,228.03025829792026)" svgjs:data="{&quot;leading&quot;:&quot;1.3&quot;}"><tspan dy="0" x="192.06642438162737" svgjs:data="{&quot;newLined&quot;:true}">Coach: Coach's name</tspan></text><image width="552" height="760" xlink:href="https://lct-designs.s3.us-west-1.amazonaws.com/assets/libs/egypts-softball-banner-1644897998890.png" class="asset" transform="matrix(0.22637493908405304,0,0,0.22637493908405304,281.4297485351562,94.55603802204135)"></image><text fill="#212121" font-family="Amity Jack" font-size="45" stroke-opacity="1" stroke-width="1" stroke="#f2eded" x="164.68127054565383" y="198.9363701339798" transform="matrix(0.23714219033718106,0,0,0.2371421903371811,54.07708358764647,91.22892010211945)" svgjs:data="{&quot;leading&quot;:&quot;1.3&quot;}"><tspan dy="0" x="164.68127054565383" svgjs:data="{&quot;newLined&quot;:true}">PLAYER</tspan></text><image width="744" height="760" xlink:href="https://lct-designs.s3.us-west-1.amazonaws.com/assets/libs/egypts-softball-banner-1644897952831.png" class="asset" transform="matrix(0.055304918438196175,0,0,0.05530491843819619,90.83094024658202,84.00160229206088)"></image><text fill="#212121" font-family="Amity Jack" font-size="45" stroke-opacity="1" stroke-width="1" stroke="#f2eded" x="164.68127054565383" y="198.9363701339798" transform="matrix(0.23714219033718106,0,0,0.2371421903371811,116.63282775878903,106.69067394733429)" svgjs:data="{&quot;leading&quot;:&quot;1.3&quot;}"><tspan dy="0" x="164.68127054565383" svgjs:data="{&quot;newLined&quot;:true}">PLAYER</tspan></text><image width="744" height="760" xlink:href="https://lct-designs.s3.us-west-1.amazonaws.com/assets/libs/egypts-softball-banner-1644897952831.png" class="asset" transform="matrix(0.05530492961406707,0,0,0.055304929614067085,153.38667297363278,99.4633561372757)"></image><text fill="#212121" font-family="Amity Jack" font-size="45" stroke-opacity="1" stroke-width="1" stroke="#f2eded" x="164.68127054565383" y="198.9363701339798" transform="matrix(0.23714219033718106,0,0,0.2371421903371811,118.48819732666016,171.9736329317093)" svgjs:data="{&quot;leading&quot;:&quot;1.3&quot;}"><tspan dy="0" x="164.68127054565383" svgjs:data="{&quot;newLined&quot;:true}">PLAYER</tspan></text><image width="744" height="760" xlink:href="https://lct-designs.s3.us-west-1.amazonaws.com/assets/libs/egypts-softball-banner-1644897952831.png" class="asset" transform="matrix(0.05530492961406707,0,0,0.055304929614067085,155.2420501708984,164.74630749225616)"></image><text fill="#212121" font-family="Amity Jack" font-size="45" stroke-opacity="1" stroke-width="1" stroke="#f2eded" x="164.68127054565383" y="198.9363701339798" transform="matrix(0.23714219033718106,0,0,0.2371421903371811,118.052978515625,237.25657665729526)" svgjs:data="{&quot;leading&quot;:&quot;1.3&quot;}"><tspan dy="0" x="164.68127054565383" svgjs:data="{&quot;newLined&quot;:true}">PLAYER</tspan></text><image width="744" height="760" xlink:href="https://lct-designs.s3.us-west-1.amazonaws.com/assets/libs/egypts-softball-banner-1644897952831.png" class="asset" transform="matrix(0.05530492961406707,0,0,0.055304929614067085,154.8068389892578,230.0292664766312)"></image><text fill="#212121" font-family="Amity Jack" font-size="45" stroke-opacity="1" stroke-width="1" stroke="#f2eded" x="164.68127054565383" y="198.9363701339798" transform="matrix(0.23714219033718106,0,0,0.2371421903371811,183.19708251953122,90.08360302448273)" svgjs:data="{&quot;leading&quot;:&quot;1.3&quot;}"><tspan dy="0" x="164.68127054565383" svgjs:data="{&quot;newLined&quot;:true}">PLAYER</tspan></text><image width="744" height="760" xlink:href="https://lct-designs.s3.us-west-1.amazonaws.com/assets/libs/egypts-softball-banner-1644897952831.png" class="asset" transform="matrix(0.05530492961406707,0,0,0.055304929614067085,219.95094299316403,82.85628521442413)"></image><text fill="#212121" font-family="Amity Jack" font-size="45" stroke-opacity="1" stroke-width="1" stroke="#f2eded" x="164.68127054565383" y="198.9363701339798" transform="matrix(0.23714219033718106,0,0,0.2371421903371811,185.05244445800778,155.36656200885776)" svgjs:data="{&quot;leading&quot;:&quot;1.3&quot;}"><tspan dy="0" x="164.68127054565383" svgjs:data="{&quot;newLined&quot;:true}">PLAYER</tspan></text><image width="744" height="760" xlink:href="https://lct-designs.s3.us-west-1.amazonaws.com/assets/libs/egypts-softball-banner-1644897952831.png" class="asset" transform="matrix(0.05530492961406707,0,0,0.055304929614067085,221.80632019042963,148.1392518281937)"></image><text fill="#212121" font-family="Amity Jack" font-size="45" stroke-opacity="1" stroke-width="1" stroke="#f2eded" x="164.68127054565383" y="198.9363701339798" transform="matrix(0.23714219033718106,0,0,0.2371421903371811,184.61723327636716,220.64952099323276)" svgjs:data="{&quot;leading&quot;:&quot;1.3&quot;}"><tspan dy="0" x="164.68127054565383" svgjs:data="{&quot;newLined&quot;:true}">PLAYER</tspan></text><image width="744" height="760" xlink:href="https://lct-designs.s3.us-west-1.amazonaws.com/assets/libs/egypts-softball-banner-1644897952831.png" class="asset" transform="matrix(0.05530492961406707,0,0,0.055304929614067085,221.37109374999997,213.42219555377963)"></image><text fill="#212121" font-family="Amity Jack" font-size="45" stroke-opacity="1" stroke-width="1" stroke="#f2eded" x="164.68127054565383" y="198.9363701339798" transform="matrix(0.23714219033718106,0,0,0.2371421903371811,55.932453155517564,156.51187145709991)" svgjs:data="{&quot;leading&quot;:&quot;1.3&quot;}"><tspan dy="0" x="164.68127054565383" svgjs:data="{&quot;newLined&quot;:true}">PLAYER</tspan></text><image width="744" height="760" xlink:href="https://lct-designs.s3.us-west-1.amazonaws.com/assets/libs/egypts-softball-banner-1644897952831.png" class="asset" transform="matrix(0.055304918438196175,0,0,0.05530491843819619,92.68630981445312,149.28456127643588)"></image><text fill="#212121" font-family="Amity Jack" font-size="45" stroke-opacity="1" stroke-width="1" stroke="#f2eded" x="164.68127054565383" y="198.9363701339798" transform="matrix(0.23714219033718106,0,0,0.2371421903371811,55.49723815917967,221.79483044147494)" svgjs:data="{&quot;leading&quot;:&quot;1.3&quot;}"><tspan dy="0" x="164.68127054565383" svgjs:data="{&quot;newLined&quot;:true}">PLAYER</tspan></text><image width="744" height="760" xlink:href="https://lct-designs.s3.us-west-1.amazonaws.com/assets/libs/egypts-softball-banner-1644897952831.png" class="asset" transform="matrix(0.055304918438196175,0,0,0.05530491843819619,92.25109100341797,214.56750500202182)"></image><text fill="#212121" font-family="Amity Jack" font-size="45" stroke-opacity="1" stroke-width="1" stroke="#f2eded" x="164.68127054565383" y="198.9363701339798" transform="matrix(0.23714219033718106,0,0,0.2371421903371811,-7.6036224365234375,107.30645763874054)" svgjs:data="{&quot;leading&quot;:&quot;1.3&quot;}"><tspan dy="0" x="164.68127054565383" svgjs:data="{&quot;newLined&quot;:true}">PLAYER</tspan></text><image width="744" height="760" xlink:href="https://lct-designs.s3.us-west-1.amazonaws.com/assets/libs/egypts-softball-banner-1644897952831.png" class="asset" transform="matrix(0.055304940789937966,0,0,0.05530494078993797,29.15022277832031,100.07913982868195)"></image><text fill="#212121" font-family="Amity Jack" font-size="45" stroke-opacity="1" stroke-width="1" stroke="#f2eded" x="164.68127054565383" y="198.9363701339798" transform="matrix(0.23714219033718106,0,0,0.2371421903371811,-5.748252868652344,172.58941662311554)" svgjs:data="{&quot;leading&quot;:&quot;1.3&quot;}"><tspan dy="0" x="164.68127054565383" svgjs:data="{&quot;newLined&quot;:true}">PLAYER</tspan></text><image width="744" height="760" xlink:href="https://lct-designs.s3.us-west-1.amazonaws.com/assets/libs/egypts-softball-banner-1644897952831.png" class="asset" transform="matrix(0.055304940789937966,0,0,0.05530494078993797,31.005599975585927,165.36209118366244)"></image><text fill="#212121" font-family="Amity Jack" font-size="45" stroke-opacity="1" stroke-width="1" stroke="#f2eded" x="164.68127054565383" y="198.9363701339798" transform="matrix(0.23714219033718106,0,0,0.2371421903371811,-6.1834716796875,237.8723603487015)" svgjs:data="{&quot;leading&quot;:&quot;1.3&quot;}"><tspan dy="0" x="164.68127054565383" svgjs:data="{&quot;newLined&quot;:true}">PLAYER</tspan></text><image width="744" height="760" xlink:href="https://lct-designs.s3.us-west-1.amazonaws.com/assets/libs/egypts-softball-banner-1644897952831.png" class="asset" transform="matrix(0.055304940789937966,0,0,0.05530494078993797,30.570388793945316,230.64505016803744)"></image><text fill="#212121" font-family="Amity Jack" font-size="45" stroke-opacity="1" stroke-width="1" stroke="#f2eded" x="164.68127054565383" y="198.9363701339798" transform="matrix(0.23714219033718106,0,0,0.2371421903371811,388.3941345214843,98.0886994600296)" svgjs:data="{&quot;leading&quot;:&quot;1.3&quot;}"><tspan dy="0" x="164.68127054565383" svgjs:data="{&quot;newLined&quot;:true}">PLAYER</tspan></text><image width="744" height="760" xlink:href="https://lct-designs.s3.us-west-1.amazonaws.com/assets/libs/egypts-softball-banner-1644897952831.png" class="asset" transform="matrix(0.05530492961406707,0,0,0.055304929614067085,425.1480102539062,90.86138164997101)"></image><text fill="#212121" font-family="Amity Jack" font-size="45" stroke-opacity="1" stroke-width="1" stroke="#f2eded" x="164.68127054565383" y="198.9363701339798" transform="matrix(0.23714219033718106,0,0,0.2371421903371811,390.24951171874994,163.3716584444046)" svgjs:data="{&quot;leading&quot;:&quot;1.3&quot;}"><tspan dy="0" x="164.68127054565383" svgjs:data="{&quot;newLined&quot;:true}">PLAYER</tspan></text><image width="744" height="760" xlink:href="https://lct-designs.s3.us-west-1.amazonaws.com/assets/libs/egypts-softball-banner-1644897952831.png" class="asset" transform="matrix(0.05530492961406707,0,0,0.055304929614067085,427.0033874511718,156.14434826374057)"></image><text fill="#212121" font-family="Amity Jack" font-size="45" stroke-opacity="1" stroke-width="1" stroke="#f2eded" x="164.68127054565383" y="198.9363701339798" transform="matrix(0.23714219033718106,0,0,0.2371421903371811,389.8143005371093,228.65461742877963)" svgjs:data="{&quot;leading&quot;:&quot;1.3&quot;}"><tspan dy="0" x="164.68127054565383" svgjs:data="{&quot;newLined&quot;:true}">PLAYER</tspan></text><image width="744" height="760" xlink:href="https://lct-designs.s3.us-west-1.amazonaws.com/assets/libs/egypts-softball-banner-1644897952831.png" class="asset" transform="matrix(0.05530492961406707,0,0,0.055304929614067085,426.56814575195307,221.4272919893265)"></image><g class="mask" style="pointer-events: none;"><g><path fill="#BCBEC0" d="M-3642.4-2101.7v4589.1h7813.4v-4589.1H-3642.4z M500.5,67.2v233.3v66.7H0.5v-66.7V67.2V0.5h500V67.2z" transform="matrix(1,0,0,1,0,0)"></path><g transform="matrix(1,0,0,1,0,0)">
	<rect x="0.5" y="300.5" opacity="0.95" fill="#F1F2F2" width="500" height="66.7"></rect>
	<rect x="0.5" y="0.5" opacity="0.95" fill="#F1F2F2" width="500" height="66.7"></rect>
</g></g></g></svg>