<svg xmlns="http://www.w3.org/2000/svg" version="1.1" xmlns:xlink="http://www.w3.org/1999/xlink" xmlns:svgjs="http://svgjs.dev/svgjs" width="100%" height="100%" viewBox="1 1 499 365.70001220703125" preserveAspectRatio="none" data-info="{&quot;_id&quot;:4,&quot;name&quot;:&quot;POLE POCKET SOCCER BANNERS&quot;,&quot;information&quot;:&quot;- Size: 3’x5’\n- Material: heavy duty vinyl banner\n- Digitally printed on vinyl&quot;,&quot;price&quot;:&quot;95.00&quot;,&quot;sale_price&quot;:&quot;89.99&quot;,&quot;type&quot;:&quot;pole-pocket&quot;,&quot;cover&quot;:{&quot;key&quot;:&quot;assets/models/pole-1628062864266-1631924568908.png&quot;,&quot;url&quot;:&quot;https://lct-designs.s3.us-west-1.amazonaws.com/assets/models/pole-1628062864266-1631924568908.png&quot;},&quot;back&quot;:{&quot;key&quot;:&quot;assets/models/pole-1631924700152.svg&quot;,&quot;url&quot;:&quot;https://lct-designs.s3.us-west-1.amazonaws.com/assets/models/pole-1631924700152.svg&quot;},&quot;mask&quot;:{&quot;key&quot;:&quot;assets/models/pole-mask-1631925211715.svg&quot;,&quot;url&quot;:&quot;https://lct-designs.s3.us-west-1.amazonaws.com/assets/models/pole-mask-1631925211715.svg&quot;},&quot;pos&quot;:&quot;2&quot;,&quot;accessories&quot;:&quot;2,3&quot;}" style="background-color: white;"><g class="model" style="pointer-events: none;"><polygon fill="#FFFFFF" points="0.5,0.5 0.5,67.2 0.5,300.5 0.5,367.2 500.5,367.2 500.5,300.5 500.5,67.2 500.5,0.5 "></polygon></g><image width="760" height="553" xlink:href="https://lct-designs.s3.us-west-1.amazonaws.com/assets/libs/cubs-baseball-banner-1644812315945.png" class="asset background locked" transform="matrix(0.6631103294883024,0,0,0.6631103294883024,0,0)"></image><text fill="#ffffff" font-family="Antilles" font-size="33" stroke-opacity="1" stroke-width="1" stroke="#000000" x="192.64244534681094" y="188.8290392676606" transform="matrix(0.5157687664031982,0,0,0.5157687664031982,-64.47334289550781,199.32556152343744)" svgjs:data="{&quot;leading&quot;:&quot;1.3&quot;}"><tspan dy="0" x="192.64244534681094" svgjs:data="{&quot;newLined&quot;:true}">       COACH: COACH'S NAME</tspan><tspan dy="42.9" x="192.64244534681094" svgjs:data="{&quot;newLined&quot;:true}"></tspan></text><text fill="#ffffff" font-family="Antilles" font-size="33" stroke-opacity="1" stroke-width="1" stroke="#000000" x="192.64244534681094" y="188.8290392676606" transform="matrix(0.5157687664031982,0,0,0.5157687664031982,204.43649291992188,-12.41448116302491)" svgjs:data="{&quot;leading&quot;:&quot;1.3&quot;}"><tspan dy="0" x="192.64244534681094" svgjs:data="{&quot;newLined&quot;:true}">TEAM MOM: TEAM MOM'S NAME</tspan></text><text fill="#ffffff" font-family="Antilles" font-size="40" x="231.64330556104434" y="188.82903717637487" stroke-opacity="1" stroke-width="1" stroke="#000000" transform="matrix(0.4157278835773468,0,0,0.41572788357734675,105.24111938476562,34.34329605102539)" svgjs:data="{&quot;leading&quot;:&quot;1.3&quot;}"><tspan dy="0" x="231.64330556104434" svgjs:data="{&quot;newLined&quot;:true}">player</tspan></text><image width="760" height="448" xlink:href="https://lct-designs.s3.us-west-1.amazonaws.com/assets/libs/cubs-baseball-banner-1644287527560.png" class="asset" transform="matrix(0.06723674386739731,0,0,0.06723674386739731,197.04603576660156,117.18870544433594)"></image><text fill="#ffffff" font-family="Antilles" font-size="40" x="231.64330556104434" y="188.82903717637487" stroke-opacity="1" stroke-width="1" stroke="#000000" transform="matrix(0.4157278835773468,0,0,0.41572788357734675,105.24111938476562,99.85693359375)" svgjs:data="{&quot;leading&quot;:&quot;1.3&quot;}"><tspan dy="0" x="231.64330556104434" svgjs:data="{&quot;newLined&quot;:true}">player</tspan></text><image width="760" height="448" xlink:href="https://lct-designs.s3.us-west-1.amazonaws.com/assets/libs/cubs-baseball-banner-1644287527560.png" class="asset" transform="matrix(0.06723674386739731,0,0,0.06723674386739731,197.0460205078125,182.70234680175778)"></image><text fill="#ffffff" font-family="Antilles" font-size="40" x="231.64330556104434" y="188.82903717637487" stroke-opacity="1" stroke-width="1" stroke="#000000" transform="matrix(0.4157278835773468,0,0,0.41572788357734675,105.24111938476562,167.99108886718747)" svgjs:data="{&quot;leading&quot;:&quot;1.3&quot;}"><tspan dy="0" x="231.64330556104434" svgjs:data="{&quot;newLined&quot;:true}">player</tspan></text><image width="760" height="448" xlink:href="https://lct-designs.s3.us-west-1.amazonaws.com/assets/libs/cubs-baseball-banner-1644287527560.png" class="asset" transform="matrix(0.06723674386739731,0,0,0.06723674386739731,197.0460205078125,250.8365020751953)"></image><text fill="#ffffff" font-family="Antilles" font-size="40" x="231.64330556104434" y="188.82903717637487" stroke-opacity="1" stroke-width="1" stroke="#000000" transform="matrix(0.4157278835773468,0,0,0.41572788357734675,179.70652770996094,34.34329605102539)" svgjs:data="{&quot;leading&quot;:&quot;1.3&quot;}"><tspan dy="0" x="231.64330556104434" svgjs:data="{&quot;newLined&quot;:true}">player</tspan></text><image width="760" height="448" xlink:href="https://lct-designs.s3.us-west-1.amazonaws.com/assets/libs/cubs-baseball-banner-1644287527560.png" class="asset" transform="matrix(0.06723674386739731,0,0,0.06723674386739731,271.5114440917969,117.18870544433594)"></image><text fill="#ffffff" font-family="Antilles" font-size="40" x="231.64330556104434" y="188.82903717637487" stroke-opacity="1" stroke-width="1" stroke="#000000" transform="matrix(0.4157278835773468,0,0,0.41572788357734675,179.70652770996094,99.85693359375)" svgjs:data="{&quot;leading&quot;:&quot;1.3&quot;}"><tspan dy="0" x="231.64330556104434" svgjs:data="{&quot;newLined&quot;:true}">player</tspan></text><image width="760" height="448" xlink:href="https://lct-designs.s3.us-west-1.amazonaws.com/assets/libs/cubs-baseball-banner-1644287527560.png" class="asset" transform="matrix(0.06723674386739731,0,0,0.06723674386739731,271.51141357421875,182.70234680175778)"></image><text fill="#ffffff" font-family="Antilles" font-size="40" x="231.64330556104434" y="188.82903717637487" stroke-opacity="1" stroke-width="1" stroke="#000000" transform="matrix(0.4157278835773468,0,0,0.41572788357734675,179.70652770996094,167.99108886718747)" svgjs:data="{&quot;leading&quot;:&quot;1.3&quot;}"><tspan dy="0" x="231.64330556104434" svgjs:data="{&quot;newLined&quot;:true}">player</tspan></text><image width="760" height="448" xlink:href="https://lct-designs.s3.us-west-1.amazonaws.com/assets/libs/cubs-baseball-banner-1644287527560.png" class="asset" transform="matrix(0.06723674386739731,0,0,0.06723674386739731,271.51141357421875,250.8365020751953)"></image><text fill="#ffffff" font-family="Antilles" font-size="40" x="231.64330556104434" y="188.82903717637487" stroke-opacity="1" stroke-width="1" stroke="#000000" transform="matrix(0.4157278835773468,0,0,0.41572788357734675,256.2683868408203,33.29507827758789)" svgjs:data="{&quot;leading&quot;:&quot;1.3&quot;}"><tspan dy="0" x="231.64330556104434" svgjs:data="{&quot;newLined&quot;:true}">player</tspan></text><image width="760" height="448" xlink:href="https://lct-designs.s3.us-west-1.amazonaws.com/assets/libs/cubs-baseball-banner-1644287527560.png" class="asset" transform="matrix(0.06723674386739731,0,0,0.06723674386739731,348.07330322265625,116.14048767089844)"></image><text fill="#ffffff" font-family="Antilles" font-size="40" x="231.64330556104434" y="188.82903717637487" stroke-opacity="1" stroke-width="1" stroke="#000000" transform="matrix(0.4157278835773468,0,0,0.41572788357734675,256.2683868408203,98.8087158203125)" svgjs:data="{&quot;leading&quot;:&quot;1.3&quot;}"><tspan dy="0" x="231.64330556104434" svgjs:data="{&quot;newLined&quot;:true}">player</tspan></text><image width="760" height="448" xlink:href="https://lct-designs.s3.us-west-1.amazonaws.com/assets/libs/cubs-baseball-banner-1644287527560.png" class="asset" transform="matrix(0.06723674386739731,0,0,0.06723674386739731,348.0732727050781,181.6541290283203)"></image><text fill="#ffffff" font-family="Antilles" font-size="40" x="231.64330556104434" y="188.82903717637487" stroke-opacity="1" stroke-width="1" stroke="#000000" transform="matrix(0.4157278835773468,0,0,0.41572788357734675,256.2683868408203,166.94287109374997)" svgjs:data="{&quot;leading&quot;:&quot;1.3&quot;}"><tspan dy="0" x="231.64330556104434" svgjs:data="{&quot;newLined&quot;:true}">player</tspan></text><image width="760" height="448" xlink:href="https://lct-designs.s3.us-west-1.amazonaws.com/assets/libs/cubs-baseball-banner-1644287527560.png" class="asset" transform="matrix(0.06723674386739731,0,0,0.06723674386739731,348.0732727050781,249.78828430175776)"></image><text fill="#ffffff" font-family="Antilles" font-size="40" x="231.64330556104434" y="188.82903717637487" stroke-opacity="1" stroke-width="1" stroke="#000000" transform="matrix(0.4157278835773468,0,0,0.41572788357734675,331.25787353515625,33.29507827758789)" svgjs:data="{&quot;leading&quot;:&quot;1.3&quot;}"><tspan dy="0" x="231.64330556104434" svgjs:data="{&quot;newLined&quot;:true}">player</tspan></text><image width="760" height="448" xlink:href="https://lct-designs.s3.us-west-1.amazonaws.com/assets/libs/cubs-baseball-banner-1644287527560.png" class="asset" transform="matrix(0.06723674386739731,0,0,0.06723674386739731,423.06280517578125,116.14048767089844)"></image><text fill="#ffffff" font-family="Antilles" font-size="40" x="231.64330556104434" y="188.82903717637487" stroke-opacity="1" stroke-width="1" stroke="#000000" transform="matrix(0.4157278835773468,0,0,0.41572788357734675,331.25787353515625,98.8087158203125)" svgjs:data="{&quot;leading&quot;:&quot;1.3&quot;}"><tspan dy="0" x="231.64330556104434" svgjs:data="{&quot;newLined&quot;:true}">player</tspan></text><image width="760" height="448" xlink:href="https://lct-designs.s3.us-west-1.amazonaws.com/assets/libs/cubs-baseball-banner-1644287527560.png" class="asset" transform="matrix(0.06723674386739731,0,0,0.06723674386739731,423.0627746582031,181.6541290283203)"></image><text fill="#ffffff" font-family="Antilles" font-size="40" x="231.64330556104434" y="188.82903717637487" stroke-opacity="1" stroke-width="1" stroke="#000000" transform="matrix(0.4157278835773468,0,0,0.41572788357734675,331.25787353515625,166.94287109374997)" svgjs:data="{&quot;leading&quot;:&quot;1.3&quot;}"><tspan dy="0" x="231.64330556104434" svgjs:data="{&quot;newLined&quot;:true}">player</tspan></text><image width="760" height="448" xlink:href="https://lct-designs.s3.us-west-1.amazonaws.com/assets/libs/cubs-baseball-banner-1644287527560.png" class="asset" transform="matrix(0.06723674386739731,0,0,0.06723674386739731,423.0627746582031,249.78828430175776)"></image><image width="709" height="760" xlink:href="https://lct-designs.s3.us-west-1.amazonaws.com/assets/libs/cubs-baseball-banner-1644287503090.png" class="asset" transform="matrix(0.2095046490430832,0,0,0.20950464904308316,25.15819358825683,106.09632873535153)"></image><g class="mask" style="pointer-events: none;"><g><path fill="#BCBEC0" d="M-3642.4-2101.7v4589.1h7813.4v-4589.1H-3642.4z M500.5,67.2v233.3v66.7H0.5v-66.7V67.2V0.5h500V67.2z" transform="matrix(1,0,0,1,0,0)"></path><g transform="matrix(1,0,0,1,0,0)">
	<rect x="0.5" y="300.5" opacity="0.95" fill="#F1F2F2" width="500" height="66.7"></rect>
	<rect x="0.5" y="0.5" opacity="0.95" fill="#F1F2F2" width="500" height="66.7"></rect>
</g></g></g></svg>