<svg xmlns="http://www.w3.org/2000/svg" version="1.1" xmlns:xlink="http://www.w3.org/1999/xlink" xmlns:svgjs="http://svgjs.dev/svgjs" width="100%" height="100%" viewBox="1 1 499 365.70001220703125" preserveAspectRatio="none" data-info="{&quot;_id&quot;:4,&quot;name&quot;:&quot;POLE POCKET SOCCER BANNERS&quot;,&quot;information&quot;:&quot;- Size: 3’x5’\n- Material: heavy duty vinyl banner\n- Digitally printed on vinyl&quot;,&quot;price&quot;:&quot;95.00&quot;,&quot;sale_price&quot;:&quot;89.99&quot;,&quot;type&quot;:&quot;pole-pocket&quot;,&quot;cover&quot;:{&quot;key&quot;:&quot;assets/models/pole-1628062864266-1631924568908.png&quot;,&quot;url&quot;:&quot;https://lct-designs.s3.us-west-1.amazonaws.com/assets/models/pole-1628062864266-1631924568908.png&quot;},&quot;back&quot;:{&quot;key&quot;:&quot;assets/models/pole-1631924700152.svg&quot;,&quot;url&quot;:&quot;https://lct-designs.s3.us-west-1.amazonaws.com/assets/models/pole-1631924700152.svg&quot;},&quot;mask&quot;:{&quot;key&quot;:&quot;assets/models/pole-mask-1631925211715.svg&quot;,&quot;url&quot;:&quot;https://lct-designs.s3.us-west-1.amazonaws.com/assets/models/pole-mask-1631925211715.svg&quot;},&quot;pos&quot;:&quot;2&quot;,&quot;accessories&quot;:&quot;2,3&quot;}" style="background-color: white;"><g class="model" style="pointer-events: none;"><polygon fill="#FFFFFF" points="0.5,0.5 0.5,67.2 0.5,300.5 0.5,367.2 500.5,367.2 500.5,300.5 500.5,67.2 500.5,0.5 "></polygon></g><image width="760" height="556" xlink:href="https://lct-designs.s3.us-west-1.amazonaws.com/assets/libs/apache-softball-banner-1644898063735.png" class="asset background locked" transform="matrix(0.6595323960558116,0,0,0.6595323960558116,0,0)"></image><text fill="#0d0d0d" font-family="Impact" font-size="45" x="192.06642438162737" y="201.88927563680983" stroke-opacity="1" stroke-width="1" stroke="#f7f7f7" transform="matrix(0.27804857492446894,0,0,0.278048574924469,132.78805541992188,33.751010894775405)" svgjs:data="{&quot;leading&quot;:&quot;1.3&quot;}"><tspan dy="0" x="192.06642438162737" svgjs:data="{&quot;newLined&quot;:true}">Coach: Coach's name</tspan></text><text fill="#0d0d0d" font-family="Amity Jack" font-size="45" stroke-opacity="1" stroke-width="0" stroke="#050505" x="164.68127054565383" y="198.9363701339798" transform="matrix(0.24935148656368256,0,0,0.24935148656368258,287.57421875,122.51792907714847)" svgjs:data="{&quot;leading&quot;:&quot;1.3&quot;}"><tspan dy="0" x="164.68127054565383" svgjs:data="{&quot;newLined&quot;:true}">PLAYER</tspan></text><image width="699" height="760" xlink:href="https://lct-designs.s3.us-west-1.amazonaws.com/assets/libs/apache-softball-banner-1644897952828.png" class="asset" transform="matrix(0.05946918576955796,0,0,0.05946918576955795,329.01318359375006,116.10825347900393)"></image><text fill="#0d0d0d" font-family="Amity Jack" font-size="45" stroke-opacity="1" stroke-width="0" stroke="#050505" x="164.68127054565383" y="198.9363701339798" transform="matrix(0.24935148656368256,0,0,0.24935148656368258,362.2294006347657,86.80286407470703)" svgjs:data="{&quot;leading&quot;:&quot;1.3&quot;}"><tspan dy="0" x="164.68127054565383" svgjs:data="{&quot;newLined&quot;:true}">PLAYER</tspan></text><image width="699" height="760" xlink:href="https://lct-designs.s3.us-west-1.amazonaws.com/assets/libs/apache-softball-banner-1644897952828.png" class="asset" transform="matrix(0.05946918576955796,0,0,0.05946918576955795,403.6683654785157,80.3931884765625)"></image><text fill="#0d0d0d" font-family="Amity Jack" font-size="45" stroke-opacity="1" stroke-width="0" stroke="#050505" x="164.68127054565383" y="198.9363701339798" transform="matrix(0.24935148656368256,0,0,0.24935148656368258,293.26385498046875,198.87426757812503)" svgjs:data="{&quot;leading&quot;:&quot;1.3&quot;}"><tspan dy="0" x="164.68127054565383" svgjs:data="{&quot;newLined&quot;:true}">PLAYER</tspan></text><image width="699" height="760" xlink:href="https://lct-designs.s3.us-west-1.amazonaws.com/assets/libs/apache-softball-banner-1644897952828.png" class="asset" transform="matrix(0.05946918576955796,0,0,0.05946918576955795,334.7028198242188,192.46458435058597)"></image><text fill="#0d0d0d" font-family="Amity Jack" font-size="45" stroke-opacity="1" stroke-width="0" stroke="#050505" x="164.68127054565383" y="198.9363701339798" transform="matrix(0.24935148656368256,0,0,0.24935148656368258,393.78109741210943,158.23298645019534)" svgjs:data="{&quot;leading&quot;:&quot;1.3&quot;}"><tspan dy="0" x="164.68127054565383" svgjs:data="{&quot;newLined&quot;:true}">PLAYER</tspan></text><image width="699" height="760" xlink:href="https://lct-designs.s3.us-west-1.amazonaws.com/assets/libs/apache-softball-banner-1644897952828.png" class="asset" transform="matrix(0.05946918576955796,0,0,0.05946918576955795,435.22006225585943,151.8233184814453)"></image><text fill="#0d0d0d" font-family="Amity Jack" font-size="45" stroke-opacity="1" stroke-width="0" stroke="#050505" x="164.68127054565383" y="198.9363701339798" transform="matrix(0.24935148656368256,0,0,0.24935148656368258,359.44613647460943,236.4366607666016)" svgjs:data="{&quot;leading&quot;:&quot;1.3&quot;}"><tspan dy="0" x="164.68127054565383" svgjs:data="{&quot;newLined&quot;:true}">PLAYER</tspan></text><image width="699" height="760" xlink:href="https://lct-designs.s3.us-west-1.amazonaws.com/assets/libs/apache-softball-banner-1644897952828.png" class="asset" transform="matrix(0.05946918576955796,0,0,0.05946918576955795,400.88510131835943,230.0269927978516)"></image><image width="552" height="760" xlink:href="https://lct-designs.s3.us-west-1.amazonaws.com/assets/libs/apache-softball-banner-1644897998888.png" class="asset" transform="matrix(0.2288056015968323,0,0,0.22880560159683228,177.96994018554685,98.86650085449222)"></image><text fill="#0d0d0d" font-family="Amity Jack" font-size="45" stroke-opacity="1" stroke-width="0" stroke="#050505" x="164.68127054565383" y="198.9363701339798" transform="matrix(0.24935148656368256,0,0,0.24935148656368258,67.89440155029297,116.36016845703125)" svgjs:data="{&quot;leading&quot;:&quot;1.3&quot;}"><tspan dy="0" x="164.68127054565383" svgjs:data="{&quot;newLined&quot;:true}">PLAYER</tspan></text><image width="699" height="760" xlink:href="https://lct-designs.s3.us-west-1.amazonaws.com/assets/libs/apache-softball-banner-1644897952828.png" class="asset" transform="matrix(-0.05945340171456338,0,0,0.05946918576955795,148.7422332763672,109.95049285888672)"></image><text fill="#0d0d0d" font-family="Amity Jack" font-size="45" stroke-opacity="1" stroke-width="0" stroke="#050505" x="164.68127054565383" y="198.9363701339798" transform="matrix(0.24935148656368256,0,0,0.24935148656368258,71.73677825927734,187.7902984619141)" svgjs:data="{&quot;leading&quot;:&quot;1.3&quot;}"><tspan dy="0" x="164.68127054565383" svgjs:data="{&quot;newLined&quot;:true}">PLAYER</tspan></text><image width="699" height="760" xlink:href="https://lct-designs.s3.us-west-1.amazonaws.com/assets/libs/apache-softball-banner-1644897952828.png" class="asset" transform="matrix(-0.05945340171456338,0,0,0.05946918576955795,152.58460998535156,181.3806304931641)"></image><text fill="#0d0d0d" font-family="Amity Jack" font-size="45" stroke-opacity="1" stroke-width="0" stroke="#050505" x="164.68127054565383" y="198.9363701339798" transform="matrix(0.24935148656368256,0,0,0.24935148656368258,2.155487060546875,91.11330413818362)" svgjs:data="{&quot;leading&quot;:&quot;1.3&quot;}"><tspan dy="0" x="164.68127054565383" svgjs:data="{&quot;newLined&quot;:true}">PLAYER</tspan></text><image width="699" height="760" xlink:href="https://lct-designs.s3.us-west-1.amazonaws.com/assets/libs/apache-softball-banner-1644897952828.png" class="asset" transform="matrix(-0.05945340171456338,0,0,0.05946918576955795,83.00331878662111,84.70362854003906)"></image><text fill="#0d0d0d" font-family="Amity Jack" font-size="45" stroke-opacity="1" stroke-width="0" stroke="#050505" x="164.68127054565383" y="198.9363701339798" transform="matrix(0.24935148656368256,0,0,0.24935148656368258,-11.85928726196289,158.84878540039065)" svgjs:data="{&quot;leading&quot;:&quot;1.3&quot;}"><tspan dy="0" x="164.68127054565383" svgjs:data="{&quot;newLined&quot;:true}">PLAYER</tspan></text><image width="699" height="760" xlink:href="https://lct-designs.s3.us-west-1.amazonaws.com/assets/libs/apache-softball-banner-1644897952828.png" class="asset" transform="matrix(-0.05945340171456338,0,0,0.05946918576955795,68.98854064941408,152.43911743164062)"></image><text fill="#0d0d0d" font-family="Amity Jack" font-size="45" stroke-opacity="1" stroke-width="0" stroke="#050505" x="164.68127054565383" y="198.9363701339798" transform="matrix(0.24935148656368256,0,0,0.24935148656368258,19.692432403564453,236.43667602539065)" svgjs:data="{&quot;leading&quot;:&quot;1.3&quot;}"><tspan dy="0" x="164.68127054565383" svgjs:data="{&quot;newLined&quot;:true}">PLAYER</tspan></text><image width="699" height="760" xlink:href="https://lct-designs.s3.us-west-1.amazonaws.com/assets/libs/apache-softball-banner-1644897952828.png" class="asset" transform="matrix(-0.05945340171456338,0,0,0.05946918576955795,100.5402603149414,230.02700805664065)"></image><g class="mask" style="pointer-events: none;"><g><path fill="#BCBEC0" d="M-3642.4-2101.7v4589.1h7813.4v-4589.1H-3642.4z M500.5,67.2v233.3v66.7H0.5v-66.7V67.2V0.5h500V67.2z" transform="matrix(1,0,0,1,0,0)"></path><g transform="matrix(1,0,0,1,0,0)">
	<rect x="0.5" y="300.5" opacity="0.95" fill="#F1F2F2" width="500" height="66.7"></rect>
	<rect x="0.5" y="0.5" opacity="0.95" fill="#F1F2F2" width="500" height="66.7"></rect>
</g></g></g></svg>