<svg xmlns="http://www.w3.org/2000/svg" version="1.1" xmlns:xlink="http://www.w3.org/1999/xlink" xmlns:svgjs="http://svgjs.dev/svgjs" width="100%" height="100%" viewBox="1 1 499 365.70001220703125" preserveAspectRatio="none" data-info="{&quot;_id&quot;:4,&quot;name&quot;:&quot;POLE POCKET SOCCER BANNERS&quot;,&quot;information&quot;:&quot;- Size: 3’x5’\n- Material: heavy duty vinyl banner\n- Digitally printed on vinyl&quot;,&quot;price&quot;:&quot;95.00&quot;,&quot;sale_price&quot;:&quot;89.99&quot;,&quot;type&quot;:&quot;pole-pocket&quot;,&quot;cover&quot;:{&quot;key&quot;:&quot;assets/models/pole-1628062864266-1631924568908.png&quot;,&quot;url&quot;:&quot;https://lct-designs.s3.us-west-1.amazonaws.com/assets/models/pole-1628062864266-1631924568908.png&quot;},&quot;back&quot;:{&quot;key&quot;:&quot;assets/models/pole-1631924700152.svg&quot;,&quot;url&quot;:&quot;https://lct-designs.s3.us-west-1.amazonaws.com/assets/models/pole-1631924700152.svg&quot;},&quot;mask&quot;:{&quot;key&quot;:&quot;assets/models/pole-mask-1631925211715.svg&quot;,&quot;url&quot;:&quot;https://lct-designs.s3.us-west-1.amazonaws.com/assets/models/pole-mask-1631925211715.svg&quot;},&quot;pos&quot;:&quot;2&quot;,&quot;accessories&quot;:&quot;2,3&quot;}" style="background-color: white;"><g class="model" style="pointer-events: none;"><polygon fill="#FFFFFF" points="0.5,0.5 0.5,67.2 0.5,300.5 0.5,367.2 500.5,367.2 500.5,300.5 500.5,67.2 500.5,0.5 "></polygon></g><image width="760" height="556" xlink:href="https://lct-designs.s3.us-west-1.amazonaws.com/assets/libs/sharks1-softball-banner-1640684505247.png" class="asset background locked" transform="matrix(0.6595323960558116,0,0,0.6595323960558116,0,0)"></image><text fill="#000000" font-family="UTM Rockwell" font-size="15" x="199.7930558764512" y="189.20527009662842" transform="matrix(0.697134017944336,0,0,0.697134017944336,202.90101623535162,-46.202678680419936)" svgjs:data="{&quot;leading&quot;:&quot;1.3&quot;}"><tspan dy="0" x="199.7930558764512" svgjs:data="{&quot;newLined&quot;:true}">COACH: COACH'S NAME</tspan></text><text fill="#000000" font-family="UTM Rockwell" font-size="15" x="180.41333328123636" y="189.20527009662842" transform="matrix(0.6971334218978883,0,0,0.6971334218978883,-113.40214538574222,-46.19569396972658)" svgjs:data="{&quot;leading&quot;:&quot;1.3&quot;}"><tspan dy="0" x="180.41333328123636" svgjs:data="{&quot;newLined&quot;:true}">TEAM MOM: TEAM MOM'S NAME</tspan></text><image width="760" height="518" xlink:href="https://lct-designs.s3.us-west-1.amazonaws.com/assets/libs/sharks1-softball-banner-1640683948800.png" class="asset" transform="matrix(0.31734794378280645,0,0,0.3173479437828064,157.29425048828128,103.71825408935547)"></image><image width="572" height="760" xlink:href="https://lct-designs.s3.us-west-1.amazonaws.com/assets/libs/sharks1-softball-banner-1640683757137.png" class="asset" transform="matrix(0.13157890737056735,0,0,0.13157890737056735,79.12648010253906,185.16632080078128)"></image><image width="760" height="564" xlink:href="https://lct-designs.s3.us-west-1.amazonaws.com/assets/libs/arizona-2-baseball-banner-1640253782335.png" class="asset" transform="matrix(-0.05186112225055695,0,0,0.04778429865837098,63.341602325439446,252.15498352050778)"></image><text fill="#000000" font-family="UTM Rockwell" font-size="15" x="215.76415632116658" y="189.8287995681192" transform="matrix(0.666829526424408,0,0,0.666829526424408,-127.40717315673831,120.72126770019528)" svgjs:data="{&quot;leading&quot;:&quot;1.3&quot;}"><tspan dy="0" x="215.76415632116658" svgjs:data="{&quot;newLined&quot;:true}">PLAYER</tspan></text><image width="760" height="564" xlink:href="https://lct-designs.s3.us-west-1.amazonaws.com/assets/libs/arizona-2-baseball-banner-1640253782335.png" class="asset" transform="matrix(-0.05186112225055695,0,0,0.047784309834241874,64.23104095458984,191.79754638671872)"></image><text fill="#000000" font-family="UTM Rockwell" font-size="15" x="215.76415632116658" y="189.8287995681192" transform="matrix(0.666829526424408,0,0,0.666829526424408,-126.51773071289065,60.36383056640625)" svgjs:data="{&quot;leading&quot;:&quot;1.3&quot;}"><tspan dy="0" x="215.76415632116658" svgjs:data="{&quot;newLined&quot;:true}">PLAYER</tspan></text><image width="760" height="564" xlink:href="https://lct-designs.s3.us-west-1.amazonaws.com/assets/libs/arizona-2-baseball-banner-1640253782335.png" class="asset" transform="matrix(-0.05186112225055695,0,0,0.04778432846069336,66.8287124633789,121.76011657714844)"></image><text fill="#000000" font-family="UTM Rockwell" font-size="15" x="215.76415632116658" y="189.8287995681192" transform="matrix(0.666829526424408,0,0,0.666829526424408,-123.92005920410159,-9.67359924316407)" svgjs:data="{&quot;leading&quot;:&quot;1.3&quot;}"><tspan dy="0" x="215.76415632116658" svgjs:data="{&quot;newLined&quot;:true}">PLAYER</tspan></text><image width="760" height="564" xlink:href="https://lct-designs.s3.us-west-1.amazonaws.com/assets/libs/arizona-2-baseball-banner-1640253782335.png" class="asset" transform="matrix(-0.05186112225055695,0,0,0.047784354537725456,152.8802642822266,121.76011657714844)"></image><text fill="#000000" font-family="UTM Rockwell" font-size="15" x="215.76415632116658" y="189.8287995681192" transform="matrix(0.666829526424408,0,0,0.666829526424408,-37.86850738525391,-9.67359924316407)" svgjs:data="{&quot;leading&quot;:&quot;1.3&quot;}"><tspan dy="0" x="215.76415632116658" svgjs:data="{&quot;newLined&quot;:true}">PLAYER</tspan></text><text fill="#000000" font-family="UTM Rockwell" font-size="15" x="215.76415632116658" y="189.8287995681192" transform="matrix(0.666829526424408,0,0,0.666829526424408,39.891288757324226,-9.67359924316407)" svgjs:data="{&quot;leading&quot;:&quot;1.3&quot;}"><tspan dy="0" x="215.76415632116658" svgjs:data="{&quot;newLined&quot;:true}">PLAYER</tspan></text><image width="760" height="564" xlink:href="https://lct-designs.s3.us-west-1.amazonaws.com/assets/libs/arizona-2-baseball-banner-1640253782335.png" class="asset" transform="matrix(-0.05186112225055695,0,0,0.047784361988306046,230.64006042480474,121.76011657714844)"></image><image width="760" height="564" xlink:href="https://lct-designs.s3.us-west-1.amazonaws.com/assets/libs/arizona-2-baseball-banner-1640253782335.png" class="asset" transform="matrix(-0.05186112225055695,0,0,0.04778433963656426,468.5827407836915,122.89892578125)"></image><text fill="#000000" font-family="UTM Rockwell" font-size="15" x="215.76415632116658" y="189.8287995681192" transform="matrix(0.666829526424408,0,0,0.666829526424408,277.833969116211,-8.534790039062507)" svgjs:data="{&quot;leading&quot;:&quot;1.3&quot;}"><tspan dy="0" x="215.76415632116658" svgjs:data="{&quot;newLined&quot;:true}">PLAYER</tspan></text><image width="760" height="564" xlink:href="https://lct-designs.s3.us-west-1.amazonaws.com/assets/libs/arizona-2-baseball-banner-1640253782335.png" class="asset" transform="matrix(-0.05186112225055695,0,0,0.04778435081243516,467.76394653320324,190.08930969238284)"></image><text fill="#000000" font-family="UTM Rockwell" font-size="15" x="215.76415632116658" y="189.8287995681192" transform="matrix(0.666829526424408,0,0,0.666829526424408,277.0151977539063,58.65559387207033)" svgjs:data="{&quot;leading&quot;:&quot;1.3&quot;}"><tspan dy="0" x="215.76415632116658" svgjs:data="{&quot;newLined&quot;:true}">PLAYER</tspan></text><image width="760" height="564" xlink:href="https://lct-designs.s3.us-west-1.amazonaws.com/assets/libs/arizona-2-baseball-banner-1640253782335.png" class="asset" transform="matrix(-0.05186112225055695,0,0,0.047784358263015754,469.792205810547,256.71026611328125)"></image><text fill="#000000" font-family="UTM Rockwell" font-size="15" x="215.76415632116658" y="189.8287995681192" transform="matrix(0.666829526424408,0,0,0.666829526424408,279.04345703125,125.27655029296878)" svgjs:data="{&quot;leading&quot;:&quot;1.3&quot;}"><tspan dy="0" x="215.76415632116658" svgjs:data="{&quot;newLined&quot;:true}">PLAYER</tspan></text><g class="mask" style="pointer-events: none;"><g><path fill="#BCBEC0" d="M-3642.4-2101.7v4589.1h7813.4v-4589.1H-3642.4z M500.5,67.2v233.3v66.7H0.5v-66.7V67.2V0.5h500V67.2z" transform="matrix(1,0,0,1,0,0)"></path><g transform="matrix(1,0,0,1,0,0)">
	<rect x="0.5" y="300.5" opacity="0.95" fill="#F1F2F2" width="500" height="66.7"></rect>
	<rect x="0.5" y="0.5" opacity="0.95" fill="#F1F2F2" width="500" height="66.7"></rect>
</g></g></g></svg>