<svg xmlns="http://www.w3.org/2000/svg" version="1.1" xmlns:xlink="http://www.w3.org/1999/xlink" xmlns:svgjs="http://svgjs.dev/svgjs" width="100%" height="100%" viewBox="1 1 499 365.70001220703125" preserveAspectRatio="none" data-info="{&quot;_id&quot;:4,&quot;name&quot;:&quot;POLE POCKET SOCCER BANNERS&quot;,&quot;information&quot;:&quot;- Size: 3’x5’\n- Material: heavy duty vinyl banner\n- Digitally printed on vinyl&quot;,&quot;price&quot;:&quot;95.00&quot;,&quot;sale_price&quot;:&quot;89.99&quot;,&quot;type&quot;:&quot;pole-pocket&quot;,&quot;cover&quot;:{&quot;key&quot;:&quot;assets/models/pole-1628062864266-1631924568908.png&quot;,&quot;url&quot;:&quot;https://lct-designs.s3.us-west-1.amazonaws.com/assets/models/pole-1628062864266-1631924568908.png&quot;},&quot;back&quot;:{&quot;key&quot;:&quot;assets/models/pole-1631924700152.svg&quot;,&quot;url&quot;:&quot;https://lct-designs.s3.us-west-1.amazonaws.com/assets/models/pole-1631924700152.svg&quot;},&quot;mask&quot;:{&quot;key&quot;:&quot;assets/models/pole-mask-1631925211715.svg&quot;,&quot;url&quot;:&quot;https://lct-designs.s3.us-west-1.amazonaws.com/assets/models/pole-mask-1631925211715.svg&quot;},&quot;pos&quot;:&quot;2&quot;,&quot;accessories&quot;:&quot;2,3&quot;}" style="background-color: white;"><g class="model" style="pointer-events: none;"><polygon fill="#FFFFFF" points="0.5,0.5 0.5,67.2 0.5,300.5 0.5,367.2 500.5,367.2 500.5,300.5 500.5,67.2 500.5,0.5 "></polygon></g><image width="760" height="553" xlink:href="https://lct-designs.s3.us-west-1.amazonaws.com/assets/libs/marlins-baseball-banner-1644823723063.png" class="asset background locked" transform="matrix(0.6631103294883024,0,0,0.6631103294883024,0,0)"></image><text fill="#0d0d0d" font-family="Impact" font-size="45" x="192.06642438162737" y="201.88927563680983" stroke-opacity="1" stroke-width="1" stroke="#f7f7f7" transform="matrix(0.2839633822441101,0,0,0.2839633822441101,-43.23106384277344,29.592790603637695)" svgjs:data="{&quot;leading&quot;:&quot;1.3&quot;}"><tspan dy="0" x="192.06642438162737" svgjs:data="{&quot;newLined&quot;:true}">Coach: Coach's name</tspan></text><image width="760" height="721" xlink:href="https://lct-designs.s3.us-west-1.amazonaws.com/assets/libs/marlins-2-asset-4-1644399092562.png" class="asset" transform="matrix(0.2475712283423448,0,0,0.2475712283423448,191.84644860920525,96.39399101335948)"></image><image width="643" height="760" xlink:href="https://lct-designs.s3.us-west-1.amazonaws.com/assets/libs/marlins-2-asset-3-1644399062055.png" class="asset" transform="matrix(0.1264655131636161,0,0,0.1264655131636161,177.1584705336645,191.72836059197292)"></image><image width="760" height="441" xlink:href="https://lct-designs.s3.us-west-1.amazonaws.com/assets/libs/marlins-2-asset-2-1644399143423.png" class="asset" transform="matrix(0.06680535525083542,0,0,0.06680535525083542,146.9086761474609,105.26219940185547)"></image><text fill="#0d0d0d" font-family="Impact" font-size="45" stroke-opacity="1" stroke-width="1" stroke="#f7f7f7" x="54.90154642456008" y="202.01522374115754" transform="matrix(0.31852412223815924,0,0,0.3185241222381592,138.26277160644534,38.0214729309082)" svgjs:data="{&quot;leading&quot;:&quot;1.3&quot;}"><tspan dy="0" x="54.90154642456008" svgjs:data="{&quot;newLined&quot;:true}">PLAYER</tspan></text><image width="760" height="441" xlink:href="https://lct-designs.s3.us-west-1.amazonaws.com/assets/libs/marlins-2-asset-2-1644399143423.png" class="asset" transform="matrix(0.06680535525083542,0,0,0.06680535525083542,89.84280395507812,139.39466857910156)"></image><text fill="#0d0d0d" font-family="Impact" font-size="45" stroke-opacity="1" stroke-width="1" stroke="#f7f7f7" x="54.90154642456008" y="202.01522374115754" transform="matrix(0.31852406263351446,0,0,0.3185240626335144,81.1968994140625,72.15394592285156)" svgjs:data="{&quot;leading&quot;:&quot;1.3&quot;}"><tspan dy="0" x="54.90154642456008" svgjs:data="{&quot;newLined&quot;:true}">PLAYER</tspan></text><image width="760" height="441" xlink:href="https://lct-designs.s3.us-west-1.amazonaws.com/assets/libs/marlins-2-asset-2-1644399143423.png" class="asset" transform="matrix(0.06680535525083542,0,0,0.06680535525083542,17.80687713623047,178.9164733886719)"></image><text fill="#0d0d0d" font-family="Impact" font-size="45" stroke-opacity="1" stroke-width="1" stroke="#f7f7f7" x="54.90154642456008" y="202.01522374115754" transform="matrix(0.31852394342422485,0,0,0.31852394342422485,9.16097259521485,111.67575073242188)" svgjs:data="{&quot;leading&quot;:&quot;1.3&quot;}"><tspan dy="0" x="54.90154642456008" svgjs:data="{&quot;newLined&quot;:true}">PLAYER</tspan></text><image width="760" height="441" xlink:href="https://lct-designs.s3.us-west-1.amazonaws.com/assets/libs/marlins-2-asset-2-1644399143423.png" class="asset" transform="matrix(0.06680535525083542,0,0,0.06680535525083542,34.99250793457031,242.39091491699216)"></image><text fill="#0d0d0d" font-family="Impact" font-size="45" stroke-opacity="1" stroke-width="1" stroke="#f7f7f7" x="54.90154642456008" y="202.01522374115754" transform="matrix(0.3185238838195801,0,0,0.3185238838195801,26.346603393554688,175.1501922607422)" svgjs:data="{&quot;leading&quot;:&quot;1.3&quot;}"><tspan dy="0" x="54.90154642456008" svgjs:data="{&quot;newLined&quot;:true}">PLAYER</tspan></text><text fill="#0d0d0d" font-family="Impact" font-size="45" stroke-opacity="1" stroke-width="1" stroke="#f7f7f7" x="54.90154642456008" y="202.01522374115754" transform="matrix(0.3185238838195801,0,0,0.3185238838195801,108.202880859375,194.91110229492185)" svgjs:data="{&quot;leading&quot;:&quot;1.3&quot;}"><tspan dy="0" x="54.90154642456008" svgjs:data="{&quot;newLined&quot;:true}">PLAYER</tspan></text><image width="760" height="441" xlink:href="https://lct-designs.s3.us-west-1.amazonaws.com/assets/libs/marlins-2-asset-2-1644399143423.png" class="asset" transform="matrix(0.06680535525083542,0,0,0.06680535525083542,104.09429168701172,199.2762145996094)"></image><text fill="#0d0d0d" font-family="Impact" font-size="45" stroke-opacity="1" stroke-width="1" stroke="#f7f7f7" x="54.90154642456008" y="202.01522374115754" transform="matrix(0.3185238838195801,0,0,0.3185238838195801,95.4483871459961,132.03549194335935)" svgjs:data="{&quot;leading&quot;:&quot;1.3&quot;}"><tspan dy="0" x="54.90154642456008" svgjs:data="{&quot;newLined&quot;:true}">PLAYER</tspan></text><image width="760" height="441" xlink:href="https://lct-designs.s3.us-west-1.amazonaws.com/assets/libs/marlins-2-asset-2-1644399143423.png" class="asset" transform="matrix(0.06680535525083542,0,0,0.06680535525083542,116.84878540039062,262.1518249511719)"></image><image width="760" height="441" xlink:href="https://lct-designs.s3.us-west-1.amazonaws.com/assets/libs/marlins-2-asset-2-1644399143423.png" class="asset" transform="matrix(0.06680535525083542,0,0,0.06680535525083542,426.3697204589844,105.86101543903348)"></image><image width="760" height="441" xlink:href="https://lct-designs.s3.us-west-1.amazonaws.com/assets/libs/marlins-2-asset-2-1644399143423.png" class="asset" transform="matrix(0.06680535525083542,0,0,0.06680535525083542,417.4476013183593,192.0904235839844)"></image><text fill="#0d0d0d" font-family="Impact" font-size="45" stroke-opacity="1" stroke-width="1" stroke="#f7f7f7" x="54.90154642456008" y="202.01522374115754" transform="matrix(0.3185238838195801,0,0,0.3185238838195801,408.80169677734375,124.84970092773435)" svgjs:data="{&quot;leading&quot;:&quot;1.3&quot;}"><tspan dy="0" x="54.90154642456008" svgjs:data="{&quot;newLined&quot;:true}">PLAYER</tspan></text><image width="760" height="441" xlink:href="https://lct-designs.s3.us-west-1.amazonaws.com/assets/libs/marlins-2-asset-2-1644399143423.png" class="asset" transform="matrix(0.06680535525083542,0,0,0.06680535525083542,409.9027099609375,261.5530090332031)"></image><text fill="#0d0d0d" font-family="Impact" font-size="45" stroke-opacity="1" stroke-width="1" stroke="#f7f7f7" x="54.90154642456008" y="202.01522374115754" transform="matrix(0.3185238838195801,0,0,0.3185238838195801,401.2567749023437,194.31228637695315)" svgjs:data="{&quot;leading&quot;:&quot;1.3&quot;}"><tspan dy="0" x="54.90154642456008" svgjs:data="{&quot;newLined&quot;:true}">PLAYER</tspan></text><text fill="#0d0d0d" font-family="Impact" font-size="45" stroke-opacity="1" stroke-width="1" stroke="#f7f7f7" x="54.90154642456008" y="202.01522374115754" transform="matrix(0.318524032831192,0,0,0.31852403283119196,416.5262451171875,38.0214729309082)" svgjs:data="{&quot;leading&quot;:&quot;1.3&quot;}"><tspan dy="0" x="54.90154642456008" svgjs:data="{&quot;newLined&quot;:true}">PLAYER</tspan></text><image width="760" height="441" xlink:href="https://lct-designs.s3.us-west-1.amazonaws.com/assets/libs/marlins-2-asset-2-1644399143423.png" class="asset" transform="matrix(0.06680535525083542,0,0,0.06680535525083542,366.3098602294922,142.98756408691406)"></image><text fill="#0d0d0d" font-family="Impact" font-size="45" stroke-opacity="1" stroke-width="1" stroke="#f7f7f7" x="54.90154642456008" y="202.01522374115754" transform="matrix(0.31852400302886963,0,0,0.31852400302886963,357.66395568847656,75.74684143066406)" svgjs:data="{&quot;leading&quot;:&quot;1.3&quot;}"><tspan dy="0" x="54.90154642456008" svgjs:data="{&quot;newLined&quot;:true}">PLAYER</tspan></text><image width="760" height="441" xlink:href="https://lct-designs.s3.us-west-1.amazonaws.com/assets/libs/marlins-2-asset-2-1644399143423.png" class="asset" transform="matrix(0.06680535525083542,0,0,0.06680535525083542,329.603271484375,196.2821350097656)"></image><text fill="#0d0d0d" font-family="Impact" font-size="45" stroke-opacity="1" stroke-width="1" stroke="#f7f7f7" x="54.90154642456008" y="202.01522374115754" transform="matrix(0.3185238838195801,0,0,0.3185238838195801,320.95739746093744,129.04141235351565)" svgjs:data="{&quot;leading&quot;:&quot;1.3&quot;}"><tspan dy="0" x="54.90154642456008" svgjs:data="{&quot;newLined&quot;:true}">PLAYER</tspan></text><g class="mask" style="pointer-events: none;"><g><path fill="#BCBEC0" d="M-3642.4-2101.7v4589.1h7813.4v-4589.1H-3642.4z M500.5,67.2v233.3v66.7H0.5v-66.7V67.2V0.5h500V67.2z" transform="matrix(1,0,0,1,0,0)"></path><g transform="matrix(1,0,0,1,0,0)">
	<rect x="0.5" y="300.5" opacity="0.95" fill="#F1F2F2" width="500" height="66.7"></rect>
	<rect x="0.5" y="0.5" opacity="0.95" fill="#F1F2F2" width="500" height="66.7"></rect>
</g></g></g><image width="760" height="441" xlink:href="https://lct-designs.s3.us-west-1.amazonaws.com/assets/libs/marlins-2-asset-2-1644399143423.png" class="asset" transform="matrix(0.06680535525083542,0,0,0.06680535525083542,328.04638671875,261.5530090332031)"></image><text fill="#0d0d0d" font-family="Impact" font-size="45" stroke-opacity="1" stroke-width="1" stroke="#f7f7f7" x="54.90154642456008" y="202.01522374115754" transform="matrix(0.3185238838195801,0,0,0.3185238838195801,319.4005126953125,194.31228637695315)" svgjs:data="{&quot;leading&quot;:&quot;1.3&quot;}"><tspan dy="0" x="54.90154642456008" svgjs:data="{&quot;newLined&quot;:true}">PLAYER</tspan></text></svg>