<svg xmlns="http://www.w3.org/2000/svg" version="1.1" xmlns:xlink="http://www.w3.org/1999/xlink" xmlns:svgjs="http://svgjs.dev/svgjs" width="100%" height="100%" viewBox="1 1 499 365.70001220703125" preserveAspectRatio="none" data-info="{&quot;_id&quot;:4,&quot;name&quot;:&quot;POLE POCKET SOCCER BANNERS&quot;,&quot;information&quot;:&quot;- Size: 3’x5’\n- Material: heavy duty vinyl banner\n- Digitally printed on vinyl&quot;,&quot;price&quot;:&quot;95.00&quot;,&quot;sale_price&quot;:&quot;89.99&quot;,&quot;type&quot;:&quot;pole-pocket&quot;,&quot;cover&quot;:{&quot;key&quot;:&quot;assets/models/pole-1628062864266-1631924568908.png&quot;,&quot;url&quot;:&quot;https://lct-designs.s3.us-west-1.amazonaws.com/assets/models/pole-1628062864266-1631924568908.png&quot;},&quot;back&quot;:{&quot;key&quot;:&quot;assets/models/pole-1631924700152.svg&quot;,&quot;url&quot;:&quot;https://lct-designs.s3.us-west-1.amazonaws.com/assets/models/pole-1631924700152.svg&quot;},&quot;mask&quot;:{&quot;key&quot;:&quot;assets/models/pole-mask-1631925211715.svg&quot;,&quot;url&quot;:&quot;https://lct-designs.s3.us-west-1.amazonaws.com/assets/models/pole-mask-1631925211715.svg&quot;},&quot;pos&quot;:&quot;2&quot;,&quot;accessories&quot;:&quot;2,3&quot;}" style="background-color: white;"><g class="model" style="pointer-events: none;"><polygon fill="#FFFFFF" points="0.5,0.5 0.5,67.2 0.5,300.5 0.5,367.2 500.5,367.2 500.5,300.5 500.5,67.2 500.5,0.5 "></polygon></g><image width="760" height="556" xlink:href="https://lct-designs.s3.us-west-1.amazonaws.com/assets/libs/bats-softball-banner-1644898063735.png" class="asset background locked" transform="matrix(0.6595323960558116,0,0,0.6595323960558116,0,0)"></image><text fill="#0d0d0d" font-family="Impact" font-size="45" x="192.06642438162737" y="201.88927563680983" stroke-opacity="1" stroke-width="1" stroke="#f7f7f7" transform="matrix(0.31487932670712837,0,0,0.3148793267071284,290.91270204407925,216.86458220986245)" svgjs:data="{&quot;leading&quot;:&quot;1.3&quot;}"><tspan dy="0" x="192.06642438162737" svgjs:data="{&quot;newLined&quot;:true}">Coach: Coach's name</tspan></text><image width="466" height="760" xlink:href="https://lct-designs.s3.us-west-1.amazonaws.com/assets/libs/bats-softball-banner-1644897998889.png" class="asset" transform="matrix(0.22449006055995113,0,0,0.22449006055995116,363.8663346941176,89.62985035192108)"></image><image width="760" height="716" xlink:href="https://lct-designs.s3.us-west-1.amazonaws.com/assets/libs/bats-softball-banner-1644897952830.png" class="asset" transform="matrix(0.04767048025029208,0,0,0.04767048025029209,70.98285244285762,89.32425664342372)"></image><text fill="#f6eeee" font-family="Amity Jack" font-size="45" stroke-opacity="1" stroke-width="0" stroke="#050505" x="164.68127054565383" y="198.9363701339798" transform="matrix(0.1691383577204846,0,0,0.16913835772048458,49.02937998031757,99.84199583528243)" svgjs:data="{&quot;leading&quot;:&quot;1.3&quot;}"><tspan dy="0" x="164.68127054565383" svgjs:data="{&quot;newLined&quot;:true}">PLAYER</tspan></text><text fill="#f6eeee" font-family="Amity Jack" font-size="45" stroke-opacity="1" stroke-width="0" stroke="#050505" x="164.68127054565383" y="198.9363701339798" transform="matrix(0.1691383577204846,0,0,0.16913835772048458,118.24678321937975,99.32155213195074)" svgjs:data="{&quot;leading&quot;:&quot;1.3&quot;}"><tspan dy="0" x="164.68127054565383" svgjs:data="{&quot;newLined&quot;:true}">PLAYER</tspan></text><image width="760" height="716" xlink:href="https://lct-designs.s3.us-west-1.amazonaws.com/assets/libs/bats-softball-banner-1644897952830.png" class="asset" transform="matrix(0.04767048025029208,0,0,0.04767048025029209,140.20024448026743,88.803812940092)"></image><image width="760" height="716" xlink:href="https://lct-designs.s3.us-west-1.amazonaws.com/assets/libs/bats-softball-banner-1644897952830.png" class="asset" transform="matrix(0.0476704911894057,0,0,0.047670491189405695,203.81778862446663,88.803812940092)"></image><text fill="#f6eeee" font-family="Amity Jack" font-size="45" stroke-opacity="1" stroke-width="0" stroke="#050505" x="164.68127054565383" y="198.9363701339798" transform="matrix(0.16913838689145422,0,0,0.16913838689145422,181.8643124280425,99.32155213195074)" svgjs:data="{&quot;leading&quot;:&quot;1.3&quot;}"><tspan dy="0" x="164.68127054565383" svgjs:data="{&quot;newLined&quot;:true}">PLAYER</tspan></text><image width="760" height="716" xlink:href="https://lct-designs.s3.us-west-1.amazonaws.com/assets/libs/bats-softball-banner-1644897952830.png" class="asset" transform="matrix(0.04767049848214811,0,0,0.04767049848214811,173.2372179894883,138.76631884671588)"></image><text fill="#f6eeee" font-family="Amity Jack" font-size="45" stroke-opacity="1" stroke-width="0" stroke="#050505" x="164.68127054565383" y="198.9363701339798" transform="matrix(0.16913838689145422,0,0,0.16913838689145422,151.2837417930641,149.28405803857459)" svgjs:data="{&quot;leading&quot;:&quot;1.3&quot;}"><tspan dy="0" x="164.68127054565383" svgjs:data="{&quot;newLined&quot;:true}">PLAYER</tspan></text><image width="760" height="716" xlink:href="https://lct-designs.s3.us-west-1.amazonaws.com/assets/libs/bats-softball-banner-1644897952830.png" class="asset" transform="matrix(0.04767049848214811,0,0,0.04767049848214811,206.02442452256216,190.29015586333483)"></image><text fill="#f6eeee" font-family="Amity Jack" font-size="45" stroke-opacity="1" stroke-width="0" stroke="#050505" x="164.68127054565383" y="198.9363701339798" transform="matrix(0.16913838689145422,0,0,0.16913838689145422,184.07094832613802,200.80789505519354)" svgjs:data="{&quot;leading&quot;:&quot;1.3&quot;}"><tspan dy="0" x="164.68127054565383" svgjs:data="{&quot;newLined&quot;:true}">PLAYER</tspan></text><image width="760" height="716" xlink:href="https://lct-designs.s3.us-west-1.amazonaws.com/assets/libs/bats-softball-banner-1644897952830.png" class="asset" transform="matrix(0.04767050942126172,0,0,0.04767050942126172,175.44385388758383,240.25264683442222)"></image><text fill="#f6eeee" font-family="Amity Jack" font-size="45" stroke-opacity="1" stroke-width="0" stroke="#050505" x="164.68127054565383" y="198.9363701339798" transform="matrix(0.16913838689145422,0,0,0.16913838689145422,153.49037769115967,250.7704158973539)" svgjs:data="{&quot;leading&quot;:&quot;1.3&quot;}"><tspan dy="0" x="164.68127054565383" svgjs:data="{&quot;newLined&quot;:true}">PLAYER</tspan></text><image width="760" height="716" xlink:href="https://lct-designs.s3.us-west-1.amazonaws.com/assets/libs/bats-softball-banner-1644897952830.png" class="asset" transform="matrix(0.047670483896663285,0,0,0.04767048389666329,40.40228180787926,139.2867625500476)"></image><text fill="#f6eeee" font-family="Amity Jack" font-size="45" stroke-opacity="1" stroke-width="0" stroke="#050505" x="164.68127054565383" y="198.9363701339798" transform="matrix(0.1691383577204846,0,0,0.16913835772048458,18.44880934533922,149.8045166774427)" svgjs:data="{&quot;leading&quot;:&quot;1.3&quot;}"><tspan dy="0" x="164.68127054565383" svgjs:data="{&quot;newLined&quot;:true}">PLAYER</tspan></text><text fill="#f6eeee" font-family="Amity Jack" font-size="45" stroke-opacity="1" stroke-width="0" stroke="#050505" x="164.68127054565383" y="198.9363701339798" transform="matrix(0.1691383577204846,0,0,0.16913835772048458,87.66621258440138,149.28405803857459)" svgjs:data="{&quot;leading&quot;:&quot;1.3&quot;}"><tspan dy="0" x="164.68127054565383" svgjs:data="{&quot;newLined&quot;:true}">PLAYER</tspan></text><image width="760" height="716" xlink:href="https://lct-designs.s3.us-west-1.amazonaws.com/assets/libs/bats-softball-banner-1644897952830.png" class="asset" transform="matrix(0.047670483896663285,0,0,0.04767048389666329,109.6196738452891,138.76631884671588)"></image><image width="760" height="716" xlink:href="https://lct-designs.s3.us-west-1.amazonaws.com/assets/libs/bats-softball-banner-1644897952830.png" class="asset" transform="matrix(0.047670483896663285,0,0,0.04767048389666329,73.18948087318495,190.81061450220298)"></image><text fill="#f6eeee" font-family="Amity Jack" font-size="45" stroke-opacity="1" stroke-width="0" stroke="#050505" x="164.68127054565383" y="198.9363701339798" transform="matrix(0.1691383577204846,0,0,0.16913835772048458,51.23601214452903,201.32835369406163)" svgjs:data="{&quot;leading&quot;:&quot;1.3&quot;}"><tspan dy="0" x="164.68127054565383" svgjs:data="{&quot;newLined&quot;:true}">PLAYER</tspan></text><text fill="#f6eeee" font-family="Amity Jack" font-size="45" stroke-opacity="1" stroke-width="0" stroke="#050505" x="164.68127054565383" y="198.9363701339798" transform="matrix(0.1691383577204846,0,0,0.16913835772048458,120.45341911747528,200.80789505519354)" svgjs:data="{&quot;leading&quot;:&quot;1.3&quot;}"><tspan dy="0" x="164.68127054565383" svgjs:data="{&quot;newLined&quot;:true}">PLAYER</tspan></text><image width="760" height="716" xlink:href="https://lct-designs.s3.us-west-1.amazonaws.com/assets/libs/bats-softball-banner-1644897952830.png" class="asset" transform="matrix(0.047670483896663285,0,0,0.04767048389666329,142.40688037836298,190.29015586333483)"></image><image width="760" height="716" xlink:href="https://lct-designs.s3.us-west-1.amazonaws.com/assets/libs/bats-softball-banner-1644897952830.png" class="asset" transform="matrix(0.04767048754303449,0,0,0.04767048754303449,42.608913972090704,240.77312040882683)"></image><text fill="#f6eeee" font-family="Amity Jack" font-size="45" stroke-opacity="1" stroke-width="0" stroke="#050505" x="164.68127054565383" y="198.9363701339798" transform="matrix(0.1691383577204846,0,0,0.16913835772048458,20.655441509550656,251.29084466514914)" svgjs:data="{&quot;leading&quot;:&quot;1.3&quot;}"><tspan dy="0" x="164.68127054565383" svgjs:data="{&quot;newLined&quot;:true}">PLAYER</tspan></text><text fill="#f6eeee" font-family="Amity Jack" font-size="45" stroke-opacity="1" stroke-width="0" stroke="#050505" x="164.68127054565383" y="198.9363701339798" transform="matrix(0.1691383577204846,0,0,0.16913835772048458,89.87284848249692,250.7704158973539)" svgjs:data="{&quot;leading&quot;:&quot;1.3&quot;}"><tspan dy="0" x="164.68127054565383" svgjs:data="{&quot;newLined&quot;:true}">PLAYER</tspan></text><image width="760" height="716" xlink:href="https://lct-designs.s3.us-west-1.amazonaws.com/assets/libs/bats-softball-banner-1644897952830.png" class="asset" transform="matrix(0.04767048754303449,0,0,0.04767048754303449,111.82630974338466,240.25264683442222)"></image><image width="760" height="716" xlink:href="https://lct-designs.s3.us-west-1.amazonaws.com/assets/libs/bats-softball-banner-1644897952830.png" class="asset" transform="matrix(0.04767050212851931,0,0,0.04767050212851931,278.69957994364813,87.59835085722443)"></image><text fill="#f6eeee" font-family="Amity Jack" font-size="45" stroke-opacity="1" stroke-width="0" stroke="#050505" x="164.68127054565383" y="198.9363701339798" transform="matrix(0.16913841606242386,0,0,0.16913841606242386,256.74610374722397,98.11609004908314)" svgjs:data="{&quot;leading&quot;:&quot;1.3&quot;}"><tspan dy="0" x="164.68127054565383" svgjs:data="{&quot;newLined&quot;:true}">PLAYER</tspan></text><image width="760" height="716" xlink:href="https://lct-designs.s3.us-west-1.amazonaws.com/assets/libs/bats-softball-banner-1644897952830.png" class="asset" transform="matrix(0.04767050942126172,0,0,0.04767050942126172,248.11900930866977,137.5608567638483)"></image><text fill="#f6eeee" font-family="Amity Jack" font-size="45" stroke-opacity="1" stroke-width="0" stroke="#050505" x="164.68127054565383" y="198.9363701339798" transform="matrix(0.16913841606242386,0,0,0.16913841606242386,226.1655331122456,148.07859595570702)" svgjs:data="{&quot;leading&quot;:&quot;1.3&quot;}"><tspan dy="0" x="164.68127054565383" svgjs:data="{&quot;newLined&quot;:true}">PLAYER</tspan></text><image width="760" height="716" xlink:href="https://lct-designs.s3.us-west-1.amazonaws.com/assets/libs/bats-softball-banner-1644897952830.png" class="asset" transform="matrix(0.04767051671400414,0,0,0.04767051671400413,280.9062158417437,189.08469378046723)"></image><text fill="#f6eeee" font-family="Amity Jack" font-size="45" stroke-opacity="1" stroke-width="0" stroke="#050505" x="164.68127054565383" y="198.9363701339798" transform="matrix(0.16913847440436314,0,0,0.16913847440436314,258.9527396453195,199.6024329723259)" svgjs:data="{&quot;leading&quot;:&quot;1.3&quot;}"><tspan dy="0" x="164.68127054565383" svgjs:data="{&quot;newLined&quot;:true}">PLAYER</tspan></text><image width="760" height="716" xlink:href="https://lct-designs.s3.us-west-1.amazonaws.com/assets/libs/bats-softball-banner-1644897952830.png" class="asset" transform="matrix(0.04767051671400414,0,0,0.04767051671400413,250.32564520676533,239.04718475155462)"></image><text fill="#f6eeee" font-family="Amity Jack" font-size="45" stroke-opacity="1" stroke-width="0" stroke="#050505" x="164.68127054565383" y="198.9363701339798" transform="matrix(0.16913841606242386,0,0,0.16913841606242386,228.37216901034117,249.56495381448624)" svgjs:data="{&quot;leading&quot;:&quot;1.3&quot;}"><tspan dy="0" x="164.68127054565383" svgjs:data="{&quot;newLined&quot;:true}">PLAYER</tspan></text><g class="mask" style="pointer-events: none;"><g><path fill="#BCBEC0" d="M-3642.4-2101.7v4589.1h7813.4v-4589.1H-3642.4z M500.5,67.2v233.3v66.7H0.5v-66.7V67.2V0.5h500V67.2z" transform="matrix(1,0,0,1,0,0)"></path><g transform="matrix(1,0,0,1,0,0)">
	<rect x="0.5" y="300.5" opacity="0.95" fill="#F1F2F2" width="500" height="66.7"></rect>
	<rect x="0.5" y="0.5" opacity="0.95" fill="#F1F2F2" width="500" height="66.7"></rect>
</g></g></g></svg>