<svg xmlns="http://www.w3.org/2000/svg" version="1.1" xmlns:xlink="http://www.w3.org/1999/xlink" xmlns:svgjs="http://svgjs.dev/svgjs" width="100%" height="100%" viewBox="1 1 499 365.70001220703125" preserveAspectRatio="none" data-info="{&quot;_id&quot;:4,&quot;name&quot;:&quot;POLE POCKET SOCCER BANNERS&quot;,&quot;information&quot;:&quot;- Size: 3’x5’\n- Material: heavy duty vinyl banner\n- Digitally printed on vinyl&quot;,&quot;price&quot;:&quot;95.00&quot;,&quot;sale_price&quot;:&quot;89.99&quot;,&quot;type&quot;:&quot;pole-pocket&quot;,&quot;cover&quot;:{&quot;key&quot;:&quot;assets/models/pole-1628062864266-1631924568908.png&quot;,&quot;url&quot;:&quot;https://lct-designs.s3.us-west-1.amazonaws.com/assets/models/pole-1628062864266-1631924568908.png&quot;},&quot;back&quot;:{&quot;key&quot;:&quot;assets/models/pole-1631924700152.svg&quot;,&quot;url&quot;:&quot;https://lct-designs.s3.us-west-1.amazonaws.com/assets/models/pole-1631924700152.svg&quot;},&quot;mask&quot;:{&quot;key&quot;:&quot;assets/models/pole-mask-1631925211715.svg&quot;,&quot;url&quot;:&quot;https://lct-designs.s3.us-west-1.amazonaws.com/assets/models/pole-mask-1631925211715.svg&quot;},&quot;pos&quot;:&quot;2&quot;,&quot;accessories&quot;:&quot;2,3&quot;}" style="background-color: white;"><g class="model" style="pointer-events: none;"><polygon fill="#FFFFFF" points="0.5,0.5 0.5,67.2 0.5,300.5 0.5,367.2 500.5,367.2 500.5,300.5 500.5,67.2 500.5,0.5 "></polygon></g><image width="760" height="556" xlink:href="https://lct-designs.s3.us-west-1.amazonaws.com/assets/libs/ladybombers-2-softball-banner-1640682447709.png" class="asset background locked" transform="matrix(0.6595323960558116,0,0,0.6595323960558116,0,0)"></image><text fill="#000000" font-family="UTM Rockwell" font-size="15" x="180.41333328123636" y="189.20527009662842" transform="matrix(0.7274165153503418,0,0,0.7274165153503418,-115.80606842041013,0.24042415618896484)" svgjs:data="{&quot;leading&quot;:&quot;1.3&quot;}"><tspan dy="0" x="180.41333328123636" svgjs:data="{&quot;newLined&quot;:true}">PLAYER</tspan></text><image width="760" height="537" xlink:href="https://lct-designs.s3.us-west-1.amazonaws.com/assets/libs/devil-rays-2-sofball-banner-1640682005963.png" class="asset" transform="matrix(0.04779130592942238,0,0,0.04779130592942238,22.98421669006347,99.65164184570314)"></image><text fill="#000000" font-family="UTM Rockwell" font-size="15" x="180.41333328123636" y="189.20527009662842" transform="matrix(0.7274165153503418,0,0,0.7274165153503418,-30.441337585449215,0.8028631210327148)" svgjs:data="{&quot;leading&quot;:&quot;1.3&quot;}"><tspan dy="0" x="180.41333328123636" svgjs:data="{&quot;newLined&quot;:true}">PLAYER</tspan></text><image width="760" height="537" xlink:href="https://lct-designs.s3.us-west-1.amazonaws.com/assets/libs/devil-rays-2-sofball-banner-1640682005963.png" class="asset" transform="matrix(0.04779130592942238,0,0,0.04779130592942238,108.34894561767575,100.21408081054686)"></image><text fill="#000000" font-family="UTM Rockwell" font-size="15" x="199.7930558764512" y="189.20527009662842" transform="matrix(0.6971300840377807,0,0,0.6971300840377808,-126.52532990721375,-45.612306248181085)" svgjs:data="{&quot;leading&quot;:&quot;1.3&quot;}"><tspan dy="0" x="199.7930558764512" svgjs:data="{&quot;newLined&quot;:true}">COACH: COACH'S NAME</tspan></text><text fill="#000000" font-family="UTM Rockwell" font-size="15" x="180.41333328123636" y="189.20527009662842" transform="matrix(0.6971301436424254,0,0,0.6971301436424255,162.75465393066403,-45.61231231689453)" svgjs:data="{&quot;leading&quot;:&quot;1.3&quot;}"><tspan dy="0" x="180.41333328123636" svgjs:data="{&quot;newLined&quot;:true}">TEAM MOM: TEAM MOM'S NAME</tspan></text><image width="760" height="352" xlink:href="https://lct-designs.s3.us-west-1.amazonaws.com/assets/libs/ladybombers-2-softball-banner-1640682384615.png" class="asset" transform="matrix(0.3584639132022857,0,0,0.3584639132022857,221.9344940185547,165.25401306152344)"></image><text fill="#000000" font-family="UTM Rockwell" font-size="15" x="180.41333328123636" y="189.20527009662842" transform="matrix(0.7274165153503418,0,0,0.7274165153503418,80.5476303100586,55.35904693603514)" svgjs:data="{&quot;leading&quot;:&quot;1.3&quot;}"><tspan dy="0" x="180.41333328123636" svgjs:data="{&quot;newLined&quot;:true}">PLAYER</tspan></text><image width="760" height="537" xlink:href="https://lct-designs.s3.us-west-1.amazonaws.com/assets/libs/devil-rays-2-sofball-banner-1640682005963.png" class="asset" transform="matrix(0.04779130592942238,0,0,0.04779130592942238,219.337905883789,154.770263671875)"></image><image width="724" height="760" xlink:href="https://lct-designs.s3.us-west-1.amazonaws.com/assets/libs/ladybombers-2-softball-banner-01-1640682138450.png" class="asset" transform="matrix(0.17746123671531674,0,0,0.17746123671531677,20.705663681030266,156.40983581542963)"></image><text fill="#000000" font-family="UTM Rockwell" font-size="15" x="180.41333328123636" y="189.20527009662842" transform="matrix(0.7274165153503418,0,0,0.7274165153503418,-4.693473815917969,53.671745300292955)" svgjs:data="{&quot;leading&quot;:&quot;1.3&quot;}"><tspan dy="0" x="180.41333328123636" svgjs:data="{&quot;newLined&quot;:true}">PLAYER</tspan></text><image width="760" height="537" xlink:href="https://lct-designs.s3.us-west-1.amazonaws.com/assets/libs/devil-rays-2-sofball-banner-1640682005963.png" class="asset" transform="matrix(0.04779130592942238,0,0,0.04779130592942238,134.0968017578125,153.08296203613276)"></image><text fill="#000000" font-family="UTM Rockwell" font-size="15" x="180.41333328123636" y="189.20527009662842" transform="matrix(0.7274165153503418,0,0,0.7274165153503418,19.929527282714837,114.97716522216795)" svgjs:data="{&quot;leading&quot;:&quot;1.3&quot;}"><tspan dy="0" x="180.41333328123636" svgjs:data="{&quot;newLined&quot;:true}">PLAYER</tspan></text><image width="760" height="537" xlink:href="https://lct-designs.s3.us-west-1.amazonaws.com/assets/libs/devil-rays-2-sofball-banner-1640682005963.png" class="asset" transform="matrix(0.04779130592942238,0,0,0.04779130592942238,158.71980285644528,213.82594299316406)"></image><text fill="#000000" font-family="UTM Rockwell" font-size="15" x="180.41333328123636" y="189.20527009662842" transform="matrix(0.7274165153503418,0,0,0.7274165153503418,170.53536224365232,55.92148590087889)" svgjs:data="{&quot;leading&quot;:&quot;1.3&quot;}"><tspan dy="0" x="180.41333328123636" svgjs:data="{&quot;newLined&quot;:true}">PLAYER</tspan></text><image width="760" height="537" xlink:href="https://lct-designs.s3.us-west-1.amazonaws.com/assets/libs/devil-rays-2-sofball-banner-1640682005963.png" class="asset" transform="matrix(0.04779130592942238,0,0,0.04779130592942238,309.3256378173828,154.770263671875)"></image><text fill="#000000" font-family="UTM Rockwell" font-size="15" x="180.41333328123636" y="189.20527009662842" transform="matrix(0.7274165153503418,0,0,0.7274165153503418,55.60942840576171,3.0526037216186523)" svgjs:data="{&quot;leading&quot;:&quot;1.3&quot;}"><tspan dy="0" x="180.41333328123636" svgjs:data="{&quot;newLined&quot;:true}">PLAYER</tspan></text><image width="760" height="537" xlink:href="https://lct-designs.s3.us-west-1.amazonaws.com/assets/libs/devil-rays-2-sofball-banner-1640682005963.png" class="asset" transform="matrix(0.04779130592942238,0,0,0.04779130592942238,194.39971542358396,102.4638214111328)"></image><text fill="#000000" font-family="UTM Rockwell" font-size="15" x="180.41333328123636" y="189.20527009662842" transform="matrix(0.7274165153503418,0,0,0.7274165153503418,140.97415924072266,3.6150426864624023)" svgjs:data="{&quot;leading&quot;:&quot;1.3&quot;}"><tspan dy="0" x="180.41333328123636" svgjs:data="{&quot;newLined&quot;:true}">PLAYER</tspan></text><image width="760" height="537" xlink:href="https://lct-designs.s3.us-west-1.amazonaws.com/assets/libs/devil-rays-2-sofball-banner-1640682005963.png" class="asset" transform="matrix(0.04779130592942238,0,0,0.04779130592942238,279.7644424438476,103.02626037597658)"></image><text fill="#000000" font-family="UTM Rockwell" font-size="15" x="180.41333328123636" y="189.20527009662842" transform="matrix(0.7274165153503418,0,0,0.7274165153503418,221.40068817138666,4.177474021911621)" svgjs:data="{&quot;leading&quot;:&quot;1.3&quot;}"><tspan dy="0" x="180.41333328123636" svgjs:data="{&quot;newLined&quot;:true}">PLAYER</tspan></text><image width="760" height="537" xlink:href="https://lct-designs.s3.us-west-1.amazonaws.com/assets/libs/devil-rays-2-sofball-banner-1640682005963.png" class="asset" transform="matrix(0.04779130592942238,0,0,0.04779130592942238,360.1909790039062,103.58869171142577)"></image><text fill="#000000" font-family="UTM Rockwell" font-size="15" x="180.41333328123636" y="189.20527009662842" transform="matrix(0.7274165153503418,0,0,0.7274165153503418,306.7654266357422,4.739912986755357)" svgjs:data="{&quot;leading&quot;:&quot;1.3&quot;}"><tspan dy="0" x="180.41333328123636" svgjs:data="{&quot;newLined&quot;:true}">PLAYER</tspan></text><image width="760" height="537" xlink:href="https://lct-designs.s3.us-west-1.amazonaws.com/assets/libs/devil-rays-2-sofball-banner-1640682005963.png" class="asset" transform="matrix(0.04779130592942238,0,0,0.04779130592942238,445.55569458007807,104.15113067626955)"></image><g class="mask" style="pointer-events: none;"><g><path fill="#BCBEC0" d="M-3642.4-2101.7v4589.1h7813.4v-4589.1H-3642.4z M500.5,67.2v233.3v66.7H0.5v-66.7V67.2V0.5h500V67.2z" transform="matrix(1,0,0,1,0,0)"></path><g transform="matrix(1,0,0,1,0,0)">
	<rect x="0.5" y="300.5" opacity="0.95" fill="#F1F2F2" width="500" height="66.7"></rect>
	<rect x="0.5" y="0.5" opacity="0.95" fill="#F1F2F2" width="500" height="66.7"></rect>
</g></g></g></svg>