<svg xmlns="http://www.w3.org/2000/svg" version="1.1" xmlns:xlink="http://www.w3.org/1999/xlink" xmlns:svgjs="http://svgjs.dev/svgjs" width="100%" height="100%" viewBox="1 1 499 365.70001220703125" preserveAspectRatio="none" data-info="{&quot;_id&quot;:4,&quot;name&quot;:&quot;POLE POCKET SOCCER BANNERS&quot;,&quot;information&quot;:&quot;- Size: 3’x5’\n- Material: heavy duty vinyl banner\n- Digitally printed on vinyl&quot;,&quot;price&quot;:&quot;95.00&quot;,&quot;sale_price&quot;:&quot;89.99&quot;,&quot;type&quot;:&quot;pole-pocket&quot;,&quot;cover&quot;:{&quot;key&quot;:&quot;assets/models/pole-1628062864266-1631924568908.png&quot;,&quot;url&quot;:&quot;https://lct-designs.s3.us-west-1.amazonaws.com/assets/models/pole-1628062864266-1631924568908.png&quot;},&quot;back&quot;:{&quot;key&quot;:&quot;assets/models/pole-1631924700152.svg&quot;,&quot;url&quot;:&quot;https://lct-designs.s3.us-west-1.amazonaws.com/assets/models/pole-1631924700152.svg&quot;},&quot;mask&quot;:{&quot;key&quot;:&quot;assets/models/pole-mask-1631925211715.svg&quot;,&quot;url&quot;:&quot;https://lct-designs.s3.us-west-1.amazonaws.com/assets/models/pole-mask-1631925211715.svg&quot;},&quot;pos&quot;:&quot;2&quot;,&quot;accessories&quot;:&quot;2,3&quot;}" style="background-color: white;"><g class="model" style="pointer-events: none;"><polygon fill="#FFFFFF" points="0.5,0.5 0.5,67.2 0.5,300.5 0.5,367.2 500.5,367.2 500.5,300.5 500.5,67.2 500.5,0.5 "></polygon></g><image width="760" height="558" xlink:href="https://lct-designs.s3.us-west-1.amazonaws.com/assets/libs/rockstar1-softball-banner-1640684505246.png" class="asset background locked" transform="matrix(0.6601654887199402,0,0,0.6571686267852784,0,0)"></image><text fill="#000000" font-family="Franklin Gothic" font-size="15" x="199.7930558764512" y="189.20527009662842" transform="matrix(0.6971337795257571,0,0,0.6971337795257568,247.31497192382818,158.21551513671875)" svgjs:data="{&quot;leading&quot;:&quot;1.3&quot;}"><tspan dy="0" x="199.7930558764512" svgjs:data="{&quot;newLined&quot;:true}">COACH: COACH'S NAME</tspan></text><text fill="#000000" font-family="Franklin Gothic" font-size="15" x="180.41333328123636" y="189.20527009662842" transform="matrix(0.6971331834793093,0,0,0.6971331834793092,-112.83274841308595,157.08367919921878)" svgjs:data="{&quot;leading&quot;:&quot;1.3&quot;}"><tspan dy="0" x="180.41333328123636" svgjs:data="{&quot;newLined&quot;:true}">TEAM MOM: TEAM MOM'S NAME</tspan></text><image width="760" height="570" xlink:href="https://lct-designs.s3.us-west-1.amazonaws.com/assets/libs/earthquakes-3-sofball-banner-1640682005965.png" class="asset" transform="matrix(0.061652634292840965,0,0,0.061652634292840965,378.22531127929693,84.92315673828125)"></image><text fill="#000000" font-family="Franklin Gothic" font-size="15" x="199.7930558764512" y="189.20527009662842" transform="matrix(1.0405561923980715,0,0,1.0405561923980715,163.21936035156253,-104.34176635742189)" svgjs:data="{&quot;leading&quot;:&quot;1.3&quot;}"><tspan dy="0" x="199.7930558764512" svgjs:data="{&quot;newLined&quot;:true}">PLAYER</tspan></text><image width="760" height="570" xlink:href="https://lct-designs.s3.us-west-1.amazonaws.com/assets/libs/earthquakes-3-sofball-banner-1640682005965.png" class="asset" transform="matrix(0.061652634292840965,0,0,0.061652634292840965,447.4440002441407,107.69955444335938)"></image><text fill="#000000" font-family="Franklin Gothic" font-size="15" x="199.7930558764512" y="189.20527009662842" transform="matrix(1.0405561923980715,0,0,1.0405561923980715,232.43803405761724,-81.56536865234376)" svgjs:data="{&quot;leading&quot;:&quot;1.3&quot;}"><tspan dy="0" x="199.7930558764512" svgjs:data="{&quot;newLined&quot;:true}">PLAYER</tspan></text><image width="760" height="430" xlink:href="https://lct-designs.s3.us-west-1.amazonaws.com/assets/libs/rockstar1-softball-bg-banner-1640683948799.png" class="asset" transform="matrix(0.3116672039031983,0,0,0.3116672039031983,128.2543487548828,75.91254425048828)"></image><image width="684" height="760" xlink:href="https://lct-designs.s3.us-west-1.amazonaws.com/assets/libs/rockstar1-softball-bg-banner-1640683757136.png" class="asset" transform="matrix(0.13157892227172854,0,0,0.13157892227172854,208.98587036132818,197.6933288574219)"></image><image width="760" height="570" xlink:href="https://lct-designs.s3.us-west-1.amazonaws.com/assets/libs/earthquakes-3-sofball-banner-1640682005965.png" class="asset" transform="matrix(0.061652634292840965,0,0,0.061652634292840965,354.6301269531251,153.82176208496094)"></image><text fill="#000000" font-family="Franklin Gothic" font-size="15" x="199.7930558764512" y="189.20527009662842" transform="matrix(1.0405561923980715,0,0,1.0405561923980715,139.62417602539068,-35.4431610107422)" svgjs:data="{&quot;leading&quot;:&quot;1.3&quot;}"><tspan dy="0" x="199.7930558764512" svgjs:data="{&quot;newLined&quot;:true}">PLAYER</tspan></text><image width="760" height="570" xlink:href="https://lct-designs.s3.us-west-1.amazonaws.com/assets/libs/earthquakes-3-sofball-banner-1640682005965.png" class="asset" transform="matrix(0.061652634292840965,0,0,0.061652634292840965,423.84881591796886,176.59815979003906)"></image><text fill="#000000" font-family="Franklin Gothic" font-size="15" x="199.7930558764512" y="189.20527009662842" transform="matrix(1.0405561923980715,0,0,1.0405561923980715,208.8428497314453,-12.66676330566407)" svgjs:data="{&quot;leading&quot;:&quot;1.3&quot;}"><tspan dy="0" x="199.7930558764512" svgjs:data="{&quot;newLined&quot;:true}">PLAYER</tspan></text><image width="760" height="570" xlink:href="https://lct-designs.s3.us-west-1.amazonaws.com/assets/libs/earthquakes-3-sofball-banner-1640682005965.png" class="asset" transform="matrix(0.061652634292840965,0,0,0.061652634292840965,309.39736938476574,207.91571044921878)"></image><text fill="#000000" font-family="Franklin Gothic" font-size="15" x="199.7930558764512" y="189.20527009662842" transform="matrix(1.0405561923980715,0,0,1.0405561923980715,94.39141845703128,18.65078735351561)" svgjs:data="{&quot;leading&quot;:&quot;1.3&quot;}"><tspan dy="0" x="199.7930558764512" svgjs:data="{&quot;newLined&quot;:true}">PLAYER</tspan></text><image width="760" height="570" xlink:href="https://lct-designs.s3.us-west-1.amazonaws.com/assets/libs/earthquakes-3-sofball-banner-1640682005965.png" class="asset" transform="matrix(0.061652634292840965,0,0,0.061652634292840965,373.2419738769532,238.09442138671884)"></image><text fill="#000000" font-family="Franklin Gothic" font-size="15" x="199.7930558764512" y="189.20527009662842" transform="matrix(1.0405561923980715,0,0,1.0405561923980715,158.23600769042974,48.829498291015625)" svgjs:data="{&quot;leading&quot;:&quot;1.3&quot;}"><tspan dy="0" x="199.7930558764512" svgjs:data="{&quot;newLined&quot;:true}">PLAYER</tspan></text><image width="760" height="570" xlink:href="https://lct-designs.s3.us-west-1.amazonaws.com/assets/libs/earthquakes-3-sofball-banner-1640682005965.png" class="asset" transform="matrix(0.061652634292840965,0,0,0.061652634292840965,447.5852966308595,238.09442138671884)"></image><text fill="#000000" font-family="Franklin Gothic" font-size="15" x="199.7930558764512" y="189.20527009662842" transform="matrix(1.0405561923980715,0,0,1.0405561923980715,232.579330444336,48.829498291015625)" svgjs:data="{&quot;leading&quot;:&quot;1.3&quot;}"><tspan dy="0" x="199.7930558764512" svgjs:data="{&quot;newLined&quot;:true}">PLAYER</tspan></text><image width="760" height="570" xlink:href="https://lct-designs.s3.us-west-1.amazonaws.com/assets/libs/earthquakes-3-sofball-banner-1640682005965.png" class="asset" transform="matrix(-0.06421527266502382,0,0,0.061652634292840965,185.9767456054688,206.77688598632815)"></image><text fill="#000000" font-family="Franklin Gothic" font-size="15" x="199.7930558764512" y="189.20527009662842" transform="matrix(1.0405561923980715,0,0,1.0405561923980715,-66.04086303710939,17.511962890624986)" svgjs:data="{&quot;leading&quot;:&quot;1.3&quot;}"><tspan dy="0" x="199.7930558764512" svgjs:data="{&quot;newLined&quot;:true}">PLAYER</tspan></text><text fill="#000000" font-family="Franklin Gothic" font-size="15" x="199.7930558764512" y="189.20527009662842" transform="matrix(1.0405561923980715,0,0,1.0405561923980715,-109.56539154052736,48.829498291015625)" svgjs:data="{&quot;leading&quot;:&quot;1.3&quot;}"><tspan dy="0" x="199.7930558764512" svgjs:data="{&quot;newLined&quot;:true}">PLAYER</tspan></text><image width="760" height="570" xlink:href="https://lct-designs.s3.us-west-1.amazonaws.com/assets/libs/earthquakes-3-sofball-banner-1640682005965.png" class="asset" transform="matrix(-0.06421527266502382,0,0,0.061652634292840965,142.4522171020508,238.09442138671884)"></image><text fill="#000000" font-family="Franklin Gothic" font-size="15" x="199.7930558764512" y="189.20527009662842" transform="matrix(1.0405561923980715,0,0,1.0405561923980715,-188.962760925293,48.829498291015625)" svgjs:data="{&quot;leading&quot;:&quot;1.3&quot;}"><tspan dy="0" x="199.7930558764512" svgjs:data="{&quot;newLined&quot;:true}">PLAYER</tspan></text><image width="760" height="570" xlink:href="https://lct-designs.s3.us-west-1.amazonaws.com/assets/libs/earthquakes-3-sofball-banner-1640682005965.png" class="asset" transform="matrix(-0.06421527266502382,0,0,0.061652634292840965,63.054855346679695,238.09442138671884)"></image><text fill="#000000" font-family="Franklin Gothic" font-size="15" x="199.7930558764512" y="189.20527009662842" transform="matrix(1.0405561923980715,0,0,1.0405561923980715,-173.268669128418,-6.403274536132827)" svgjs:data="{&quot;leading&quot;:&quot;1.3&quot;}"><tspan dy="0" x="199.7930558764512" svgjs:data="{&quot;newLined&quot;:true}">PLAYER</tspan></text><image width="760" height="570" xlink:href="https://lct-designs.s3.us-west-1.amazonaws.com/assets/libs/earthquakes-3-sofball-banner-1640682005965.png" class="asset" transform="matrix(-0.06421527266502382,0,0,0.061652634292840965,78.74895477294922,182.8616485595703)"></image><text fill="#000000" font-family="Franklin Gothic" font-size="15" x="199.7930558764512" y="189.20527009662842" transform="matrix(1.0405561923980715,0,0,1.0405561923980715,-116.5770492553711,-42.276107788085945)" svgjs:data="{&quot;leading&quot;:&quot;1.3&quot;}"><tspan dy="0" x="199.7930558764512" svgjs:data="{&quot;newLined&quot;:true}">PLAYER</tspan></text><image width="760" height="570" xlink:href="https://lct-designs.s3.us-west-1.amazonaws.com/assets/libs/earthquakes-3-sofball-banner-1640682005965.png" class="asset" transform="matrix(-0.06421527266502382,0,0,0.061652634292840965,135.4405670166016,146.98881530761722)"></image><text fill="#000000" font-family="Franklin Gothic" font-size="15" x="199.7930558764512" y="189.20527009662842" transform="matrix(1.0405561923980715,0,0,1.0405561923980715,-196.543815612793,-76.44070434570315)" svgjs:data="{&quot;leading&quot;:&quot;1.3&quot;}"><tspan dy="0" x="199.7930558764512" svgjs:data="{&quot;newLined&quot;:true}">PLAYER</tspan></text><image width="760" height="570" xlink:href="https://lct-designs.s3.us-west-1.amazonaws.com/assets/libs/earthquakes-3-sofball-banner-1640682005965.png" class="asset" transform="matrix(-0.06421527266502382,0,0,0.061652634292840965,55.473800659179695,112.82421875)"></image><text fill="#000000" font-family="Franklin Gothic" font-size="15" x="199.7930558764512" y="189.20527009662842" transform="matrix(1.0405561923980715,0,0,1.0405561923980715,-134.1581077575684,-104.91119384765626)" svgjs:data="{&quot;leading&quot;:&quot;1.3&quot;}"><tspan dy="0" x="199.7930558764512" svgjs:data="{&quot;newLined&quot;:true}">PLAYER</tspan></text><image width="760" height="570" xlink:href="https://lct-designs.s3.us-west-1.amazonaws.com/assets/libs/earthquakes-3-sofball-banner-1640682005965.png" class="asset" transform="matrix(-0.06421527266502382,0,0,0.061652634292840965,117.85951614379886,84.35372924804688)"></image><g class="mask" style="pointer-events: none;"><g><path fill="#BCBEC0" d="M-3642.4-2101.7v4589.1h7813.4v-4589.1H-3642.4z M500.5,67.2v233.3v66.7H0.5v-66.7V67.2V0.5h500V67.2z" transform="matrix(1,0,0,1,0,0)"></path><g transform="matrix(1,0,0,1,0,0)">
	<rect x="0.5" y="300.5" opacity="0.95" fill="#F1F2F2" width="500" height="66.7"></rect>
	<rect x="0.5" y="0.5" opacity="0.95" fill="#F1F2F2" width="500" height="66.7"></rect>
</g></g></g></svg>