<svg xmlns="http://www.w3.org/2000/svg" version="1.1" xmlns:xlink="http://www.w3.org/1999/xlink" xmlns:svgjs="http://svgjs.dev/svgjs" width="100%" height="100%" viewBox="1 1 499 365.70001220703125" preserveAspectRatio="none" data-info="{&quot;_id&quot;:4,&quot;name&quot;:&quot;POLE POCKET SOCCER BANNERS&quot;,&quot;information&quot;:&quot;- Size: 3’x5’\n- Material: heavy duty vinyl banner\n- Digitally printed on vinyl&quot;,&quot;price&quot;:&quot;95.00&quot;,&quot;sale_price&quot;:&quot;89.99&quot;,&quot;type&quot;:&quot;pole-pocket&quot;,&quot;cover&quot;:{&quot;key&quot;:&quot;assets/models/pole-1628062864266-1631924568908.png&quot;,&quot;url&quot;:&quot;https://lct-designs.s3.us-west-1.amazonaws.com/assets/models/pole-1628062864266-1631924568908.png&quot;},&quot;back&quot;:{&quot;key&quot;:&quot;assets/models/pole-1631924700152.svg&quot;,&quot;url&quot;:&quot;https://lct-designs.s3.us-west-1.amazonaws.com/assets/models/pole-1631924700152.svg&quot;},&quot;mask&quot;:{&quot;key&quot;:&quot;assets/models/pole-mask-1631925211715.svg&quot;,&quot;url&quot;:&quot;https://lct-designs.s3.us-west-1.amazonaws.com/assets/models/pole-mask-1631925211715.svg&quot;},&quot;pos&quot;:&quot;2&quot;,&quot;accessories&quot;:&quot;2,3&quot;}" style="background-color: white;"><g class="model" style="pointer-events: none;"><polygon fill="#FFFFFF" points="0.5,0.5 0.5,67.2 0.5,300.5 0.5,367.2 500.5,367.2 500.5,300.5 500.5,67.2 500.5,0.5 "></polygon></g><image width="760" height="556" xlink:href="https://lct-designs.s3.us-west-1.amazonaws.com/assets/libs/fast-pitch-1-softball-banner-1640682447706.png" class="asset background locked" transform="matrix(0.6595323960558116,0,0,0.6595323960558116,0,0)"></image><text fill="#000000" font-family="DEATHE MAACH NCV" font-size="11" x="197.59496431176086" y="187.93020890361393" transform="matrix(1,0,0,1,-181.236328125,-103.28179168701175)" svgjs:data="{&quot;leading&quot;:&quot;1.3&quot;}"><tspan dy="0" x="197.59496431176086" svgjs:data="{&quot;newLined&quot;:true}">COACH: COACH'S NAME</tspan></text><text fill="#000000" font-family="DEATHE MAACH NCV" font-size="11" x="197.59496431176086" y="187.93020890361393" transform="matrix(1,0,0,1,142.29388427734372,-103.2817840576172)" svgjs:data="{&quot;leading&quot;:&quot;1.3&quot;}"><tspan dy="0" x="197.59496431176086" svgjs:data="{&quot;newLined&quot;:true}">TEAM MOM: TEAM MOM'S NAME</tspan></text><image width="760" height="754" xlink:href="https://lct-designs.s3.us-west-1.amazonaws.com/assets/libs/fast-pitch-1-softball-banner-1645072693888.png" class="asset locked" transform="matrix(0.24091194570064545,0,0,0.24091194570064547,44.22355651855467,99.06385040283202)"></image><image width="760" height="215" xlink:href="https://lct-designs.s3.us-west-1.amazonaws.com/assets/libs/fast-pitch-1-softball-banner-1640682384613.png" class="asset" transform="matrix(0.5070623159408569,0,0,0.507062315940857,61.33294677734375,175.4591827392578)"></image><image width="760" height="716" xlink:href="https://lct-designs.s3.us-west-1.amazonaws.com/assets/libs/fast-pitch-2-sofball-banner-1640682005965.png" class="asset" transform="matrix(0.04264669492840767,0,0,0.04264669492840767,27.736276626586914,97.58409118652345)"></image><image width="760" height="716" xlink:href="https://lct-designs.s3.us-west-1.amazonaws.com/assets/libs/fast-pitch-2-sofball-banner-1640682005965.png" class="asset" transform="matrix(0.04264669492840767,0,0,0.04264669492840767,26.934257507324205,160.6919403076172)"></image><text fill="#000000" font-family="DEATHE MAACH NCV" font-size="11" x="197.59496431176086" y="187.93020890361393" transform="matrix(1.1816749572753906,0,0,1.1816749572753908,-208.50492858886722,-16.171607971191413)" svgjs:data="{&quot;leading&quot;:&quot;1.3&quot;}"><tspan dy="0" x="197.59496431176086" svgjs:data="{&quot;newLined&quot;:true}">PLAYER</tspan></text><text fill="#000000" font-family="DEATHE MAACH NCV" font-size="11" x="197.59496431176086" y="187.93020890361393" transform="matrix(1.1816749572753906,0,0,1.1816749572753908,-207.7029113769531,-79.27944946289062)" svgjs:data="{&quot;leading&quot;:&quot;1.3&quot;}"><tspan dy="0" x="197.59496431176086" svgjs:data="{&quot;newLined&quot;:true}">PLAYER</tspan></text><image width="760" height="716" xlink:href="https://lct-designs.s3.us-west-1.amazonaws.com/assets/libs/fast-pitch-2-sofball-banner-1640682005965.png" class="asset" transform="matrix(0.04264669492840767,0,0,0.04264669492840767,91.7463493347168,97.58409118652345)"></image><text fill="#000000" font-family="DEATHE MAACH NCV" font-size="11" x="197.59496431176086" y="187.93020890361393" transform="matrix(1.1816749572753906,0,0,1.1816749572753908,-143.6928367614746,-79.27944946289062)" svgjs:data="{&quot;leading&quot;:&quot;1.3&quot;}"><tspan dy="0" x="197.59496431176086" svgjs:data="{&quot;newLined&quot;:true}">PLAYER</tspan></text><image width="760" height="716" xlink:href="https://lct-designs.s3.us-west-1.amazonaws.com/assets/libs/fast-pitch-2-sofball-banner-1640682005965.png" class="asset" transform="matrix(0.04264669492840767,0,0,0.04264669492840767,90.94433212280273,160.6919403076172)"></image><text fill="#000000" font-family="DEATHE MAACH NCV" font-size="11" x="197.59496431176086" y="187.93020890361393" transform="matrix(1.1816749572753906,0,0,1.1816749572753908,-144.49485397338867,-16.171607971191413)" svgjs:data="{&quot;leading&quot;:&quot;1.3&quot;}"><tspan dy="0" x="197.59496431176086" svgjs:data="{&quot;newLined&quot;:true}">PLAYER</tspan></text><image width="760" height="716" xlink:href="https://lct-designs.s3.us-west-1.amazonaws.com/assets/libs/fast-pitch-2-sofball-banner-1640682005965.png" class="asset" transform="matrix(0.04264669492840767,0,0,0.04264669492840767,162.01023101806638,97.58409118652345)"></image><text fill="#000000" font-family="DEATHE MAACH NCV" font-size="11" x="197.59496431176086" y="187.93020890361393" transform="matrix(1.1816749572753906,0,0,1.1816749572753908,-73.42896270751955,-79.27944946289062)" svgjs:data="{&quot;leading&quot;:&quot;1.3&quot;}"><tspan dy="0" x="197.59496431176086" svgjs:data="{&quot;newLined&quot;:true}">PLAYER</tspan></text><image width="760" height="716" xlink:href="https://lct-designs.s3.us-west-1.amazonaws.com/assets/libs/fast-pitch-2-sofball-banner-1640682005965.png" class="asset" transform="matrix(0.04264669492840767,0,0,0.04264669492840767,161.20821380615234,160.6919403076172)"></image><text fill="#000000" font-family="DEATHE MAACH NCV" font-size="11" x="197.59496431176086" y="187.93020890361393" transform="matrix(1.1816749572753906,0,0,1.1816749572753908,-74.23097991943361,-16.171607971191413)" svgjs:data="{&quot;leading&quot;:&quot;1.3&quot;}"><tspan dy="0" x="197.59496431176086" svgjs:data="{&quot;newLined&quot;:true}">PLAYER</tspan></text><image width="760" height="716" xlink:href="https://lct-designs.s3.us-west-1.amazonaws.com/assets/libs/fast-pitch-2-sofball-banner-1640682005965.png" class="asset" transform="matrix(0.04264669492840767,0,0,0.04264669492840767,232.27410888671875,97.01555633544923)"></image><text fill="#000000" font-family="DEATHE MAACH NCV" font-size="11" x="197.59496431176086" y="187.93020890361393" transform="matrix(1.1816749572753906,0,0,1.1816749572753908,-3.165092468261726,-79.84798431396484)" svgjs:data="{&quot;leading&quot;:&quot;1.3&quot;}"><tspan dy="0" x="197.59496431176086" svgjs:data="{&quot;newLined&quot;:true}">PLAYER</tspan></text><image width="760" height="716" xlink:href="https://lct-designs.s3.us-west-1.amazonaws.com/assets/libs/fast-pitch-2-sofball-banner-1640682005965.png" class="asset" transform="matrix(0.04264669492840767,0,0,0.04264669492840767,231.47209167480474,160.12340545654297)"></image><text fill="#000000" font-family="DEATHE MAACH NCV" font-size="11" x="197.59496431176086" y="187.93020890361393" transform="matrix(1.1816749572753906,0,0,1.1816749572753908,-3.9671096801757812,-16.740142822265632)" svgjs:data="{&quot;leading&quot;:&quot;1.3&quot;}"><tspan dy="0" x="197.59496431176086" svgjs:data="{&quot;newLined&quot;:true}">PLAYER</tspan></text><image width="760" height="716" xlink:href="https://lct-designs.s3.us-west-1.amazonaws.com/assets/libs/fast-pitch-2-sofball-banner-1640682005965.png" class="asset" transform="matrix(0.04264669492840767,0,0,0.04264669492840767,292.8730163574218,122.59980773925783)"></image><text fill="#000000" font-family="DEATHE MAACH NCV" font-size="11" x="197.59496431176086" y="187.93020890361393" transform="matrix(1.1816749572753906,0,0,1.1816749572753908,57.433815002441406,-54.26373291015626)" svgjs:data="{&quot;leading&quot;:&quot;1.3&quot;}"><tspan dy="0" x="197.59496431176086" svgjs:data="{&quot;newLined&quot;:true}">PLAYER</tspan></text><image width="760" height="716" xlink:href="https://lct-designs.s3.us-west-1.amazonaws.com/assets/libs/fast-pitch-2-sofball-banner-1640682005965.png" class="asset" transform="matrix(0.04264669492840767,0,0,0.04264669492840767,356.88308715820307,97.01555633544923)"></image><text fill="#ffffff" font-family="DEATHE MAACH NCV" font-size="11" x="197.59496431176086" y="187.93020890361393" transform="matrix(1.1816749572753906,0,0,1.1816749572753908,121.44388580322266,-79.84798431396484)" svgjs:data="{&quot;leading&quot;:&quot;1.3&quot;}"><tspan dy="0" x="197.59496431176086" svgjs:data="{&quot;newLined&quot;:true}">PLAYER</tspan></text><image width="760" height="716" xlink:href="https://lct-designs.s3.us-west-1.amazonaws.com/assets/libs/fast-pitch-2-sofball-banner-1640682005965.png" class="asset" transform="matrix(0.04264669492840767,0,0,0.04264669492840767,443.0657043457031,98.72116851806642)"></image><text fill="#ffffff" font-family="DEATHE MAACH NCV" font-size="11" x="197.59496431176086" y="187.93020890361393" transform="matrix(1.1816749572753906,0,0,1.1816749572753908,207.62649536132812,-78.14237213134767)" svgjs:data="{&quot;leading&quot;:&quot;1.3&quot;}"><tspan dy="0" x="197.59496431176086" svgjs:data="{&quot;newLined&quot;:true}">PLAYER</tspan></text><g class="mask" style="pointer-events: none;"><g><path fill="#BCBEC0" d="M-3642.4-2101.7v4589.1h7813.4v-4589.1H-3642.4z M500.5,67.2v233.3v66.7H0.5v-66.7V67.2V0.5h500V67.2z" transform="matrix(1,0,0,1,0,0)"></path><g transform="matrix(1,0,0,1,0,0)">
	<rect x="0.5" y="300.5" opacity="0.95" fill="#F1F2F2" width="500" height="66.7"></rect>
	<rect x="0.5" y="0.5" opacity="0.95" fill="#F1F2F2" width="500" height="66.7"></rect>
</g></g></g></svg>