<svg xmlns="http://www.w3.org/2000/svg" version="1.1" xmlns:xlink="http://www.w3.org/1999/xlink" xmlns:svgjs="http://svgjs.dev/svgjs" width="100%" height="100%" viewBox="1 1 499 365.70001220703125" preserveAspectRatio="none" data-info="{&quot;_id&quot;:4,&quot;name&quot;:&quot;POLE POCKET SOCCER BANNERS&quot;,&quot;information&quot;:&quot;- Size: 3’x5’\n- Material: heavy duty vinyl banner\n- Digitally printed on vinyl&quot;,&quot;price&quot;:&quot;95.00&quot;,&quot;sale_price&quot;:&quot;89.99&quot;,&quot;type&quot;:&quot;pole-pocket&quot;,&quot;cover&quot;:{&quot;key&quot;:&quot;assets/models/pole-1628062864266-1631924568908.png&quot;,&quot;url&quot;:&quot;https://lct-designs.s3.us-west-1.amazonaws.com/assets/models/pole-1628062864266-1631924568908.png&quot;},&quot;back&quot;:{&quot;key&quot;:&quot;assets/models/pole-1631924700152.svg&quot;,&quot;url&quot;:&quot;https://lct-designs.s3.us-west-1.amazonaws.com/assets/models/pole-1631924700152.svg&quot;},&quot;mask&quot;:{&quot;key&quot;:&quot;assets/models/pole-mask-1631925211715.svg&quot;,&quot;url&quot;:&quot;https://lct-designs.s3.us-west-1.amazonaws.com/assets/models/pole-mask-1631925211715.svg&quot;},&quot;pos&quot;:&quot;2&quot;,&quot;accessories&quot;:&quot;2,3&quot;}" style="background-color: white;"><g class="model" style="pointer-events: none;"><polygon fill="#FFFFFF" points="0.5,0.5 0.5,67.2 0.5,300.5 0.5,367.2 500.5,367.2 500.5,300.5 500.5,67.2 500.5,0.5 "></polygon></g><image width="760" height="556" xlink:href="https://lct-designs.s3.us-west-1.amazonaws.com/assets/libs/rubber-ducks-softball-banner-1644898063739.png" class="asset background locked" transform="matrix(0.6595323960558116,0,0,0.6595323960558116,0,0)"></image><text fill="#0d0d0d" font-family="Impact" font-size="45" x="192.06642438162737" y="201.88927563680983" stroke-opacity="1" stroke-width="1" stroke="#f7f7f7" transform="matrix(0.27804845571517944,0,0,0.27804845571517944,265.6947326660156,228.33656311035153)" svgjs:data="{&quot;leading&quot;:&quot;1.3&quot;}"><tspan dy="0" x="192.06642438162737" svgjs:data="{&quot;newLined&quot;:true}">Coach: Coach's name</tspan></text><image width="760" height="740" xlink:href="https://lct-designs.s3.us-west-1.amazonaws.com/assets/libs/rubber-ducks-softball-banner-1644897998892.png" class="asset" transform="matrix(0.26055750250816345,0,0,0.26055750250816345,277.1198425292969,80.47743225097656)"></image><text fill="#f7f7f7" font-family="Amity Jack" font-size="45" stroke-opacity="1" stroke-width="0" stroke="#050505" x="164.68127054565383" y="198.9363701339798" transform="matrix(0.26693564531124814,0,0,0.26693564531124814,151.4312907051717,57.53926390329798)" svgjs:data="{&quot;leading&quot;:&quot;1.3&quot;}"><tspan dy="0" x="164.68127054565383" svgjs:data="{&quot;newLined&quot;:true}">PLAYER</tspan></text><image width="760" height="612" xlink:href="https://lct-designs.s3.us-west-1.amazonaws.com/assets/libs/rubber-ducks-softball-banner-1644897952833.png" class="asset" transform="matrix(0.06007477528728878,0,0,0.06007477528728877,148.17458252921645,87.97482973698246)"></image><text fill="#f7f7f7" font-family="Amity Jack" font-size="45" stroke-opacity="1" stroke-width="0" stroke="#050505" x="164.68127054565383" y="198.9363701339798" transform="matrix(0.26693564531124814,0,0,0.26693564531124814,3.272450994625615,57.53926390329798)" svgjs:data="{&quot;leading&quot;:&quot;1.3&quot;}"><tspan dy="0" x="164.68127054565383" svgjs:data="{&quot;newLined&quot;:true}">PLAYER</tspan></text><text fill="#f7f7f7" font-family="Amity Jack" font-size="45" stroke-opacity="1" stroke-width="0" stroke="#050505" x="164.68127054565383" y="198.9363701339798" transform="matrix(0.26693564531124814,0,0,0.26693564531124814,3.4306538449964137,111.59376389505908)" svgjs:data="{&quot;leading&quot;:&quot;1.3&quot;}"><tspan dy="0" x="164.68127054565383" svgjs:data="{&quot;newLined&quot;:true}">PLAYER</tspan></text><text fill="#f7f7f7" font-family="Amity Jack" font-size="45" stroke-opacity="1" stroke-width="0" stroke="#050505" x="164.68127054565383" y="198.9363701339798" transform="matrix(0.26693564531124814,0,0,0.26693564531124814,2.929680874627593,163.67065475044)" svgjs:data="{&quot;leading&quot;:&quot;1.3&quot;}"><tspan dy="0" x="164.68127054565383" svgjs:data="{&quot;newLined&quot;:true}">PLAYER</tspan></text><text fill="#f7f7f7" font-family="Amity Jack" font-size="45" stroke-opacity="1" stroke-width="0" stroke="#050505" x="164.68127054565383" y="198.9363701339798" transform="matrix(0.26693564531124814,0,0,0.26693564531124814,3.7470758805702644,217.0659544192131)" svgjs:data="{&quot;leading&quot;:&quot;1.3&quot;}"><tspan dy="0" x="164.68127054565383" svgjs:data="{&quot;newLined&quot;:true}">PLAYER</tspan></text><image width="760" height="612" xlink:href="https://lct-designs.s3.us-west-1.amazonaws.com/assets/libs/rubber-ducks-softball-banner-1644897952833.png" class="asset" transform="matrix(-0.0591911629551003,0,0,0.060074791239273395,135.12775599071756,87.97482973698246)"></image><image width="760" height="612" xlink:href="https://lct-designs.s3.us-west-1.amazonaws.com/assets/libs/rubber-ducks-softball-banner-1644897952833.png" class="asset" transform="matrix(0.0600747912392734,0,0,0.060074791239273395,148.33278537958722,142.02933789615963)"></image><image width="760" height="612" xlink:href="https://lct-designs.s3.us-west-1.amazonaws.com/assets/libs/rubber-ducks-softball-banner-1644897952833.png" class="asset" transform="matrix(-0.059191190871073385,0,0,0.06007480719125802,134.9718726865267,142.02933789615963)"></image><text fill="#f7f7f7" font-family="Amity Jack" font-size="45" stroke-opacity="1" stroke-width="0" stroke="#050505" x="164.68127054565383" y="198.9363701339798" transform="matrix(0.26693564531124814,0,0,0.26693564531124814,151.5894935555425,111.59376389505908)" svgjs:data="{&quot;leading&quot;:&quot;1.3&quot;}"><tspan dy="0" x="164.68127054565383" svgjs:data="{&quot;newLined&quot;:true}">PLAYER</tspan></text><image width="760" height="612" xlink:href="https://lct-designs.s3.us-west-1.amazonaws.com/assets/libs/rubber-ducks-softball-banner-1644897952833.png" class="asset" transform="matrix(0.0600747912392734,0,0,0.060074791239273395,147.8318124092184,194.10620424929223)"></image><text fill="#f7f7f7" font-family="Amity Jack" font-size="45" stroke-opacity="1" stroke-width="0" stroke="#050505" x="164.68127054565383" y="198.9363701339798" transform="matrix(0.26693564531124814,0,0,0.26693564531124814,151.0885205851737,163.6706710852723)" svgjs:data="{&quot;leading&quot;:&quot;1.3&quot;}"><tspan dy="0" x="164.68127054565383" svgjs:data="{&quot;newLined&quot;:true}">PLAYER</tspan></text><image width="760" height="612" xlink:href="https://lct-designs.s3.us-west-1.amazonaws.com/assets/libs/rubber-ducks-softball-banner-1644897952833.png" class="asset" transform="matrix(-0.059191190871073385,0,0,0.06007480719125802,135.4654786475494,194.1062205841245)"></image><image width="760" height="612" xlink:href="https://lct-designs.s3.us-west-1.amazonaws.com/assets/libs/rubber-ducks-softball-banner-1644897952833.png" class="asset" transform="matrix(0.060074799215265706,0,0,0.06007479921526571,148.64920741516107,247.50155292256207)"></image><text fill="#f7f7f7" font-family="Amity Jack" font-size="45" stroke-opacity="1" stroke-width="0" stroke="#050505" x="164.68127054565383" y="198.9363701339798" transform="matrix(0.26693564531124814,0,0,0.26693564531124814,151.90591559111635,217.06598708887762)" svgjs:data="{&quot;leading&quot;:&quot;1.3&quot;}"><tspan dy="0" x="164.68127054565383" svgjs:data="{&quot;newLined&quot;:true}">PLAYER</tspan></text><image width="760" height="612" xlink:href="https://lct-designs.s3.us-west-1.amazonaws.com/assets/libs/rubber-ducks-softball-banner-1644897952833.png" class="asset" transform="matrix(-0.059191190871073385,0,0,0.060074815167250335,134.66010607814496,247.5015039180653)"></image><g class="mask" style="pointer-events: none;"><g><path fill="#BCBEC0" d="M-3642.4-2101.7v4589.1h7813.4v-4589.1H-3642.4z M500.5,67.2v233.3v66.7H0.5v-66.7V67.2V0.5h500V67.2z" transform="matrix(1,0,0,1,0,0)"></path><g transform="matrix(1,0,0,1,0,0)">
	<rect x="0.5" y="300.5" opacity="0.95" fill="#F1F2F2" width="500" height="66.7"></rect>
	<rect x="0.5" y="0.5" opacity="0.95" fill="#F1F2F2" width="500" height="66.7"></rect>
</g></g></g></svg>