<svg xmlns="http://www.w3.org/2000/svg" version="1.1" xmlns:xlink="http://www.w3.org/1999/xlink" xmlns:svgjs="http://svgjs.dev/svgjs" width="100%" height="100%" viewBox="1 1 499 365.70001220703125" preserveAspectRatio="none" data-info="{&quot;_id&quot;:4,&quot;name&quot;:&quot;POLE POCKET SOCCER BANNERS&quot;,&quot;information&quot;:&quot;- Size: 3’x5’\n- Material: heavy duty vinyl banner\n- Digitally printed on vinyl&quot;,&quot;price&quot;:&quot;95.00&quot;,&quot;sale_price&quot;:&quot;89.99&quot;,&quot;type&quot;:&quot;pole-pocket&quot;,&quot;cover&quot;:{&quot;key&quot;:&quot;assets/models/pole-1628062864266-1631924568908.png&quot;,&quot;url&quot;:&quot;https://lct-designs.s3.us-west-1.amazonaws.com/assets/models/pole-1628062864266-1631924568908.png&quot;},&quot;back&quot;:{&quot;key&quot;:&quot;assets/models/pole-1631924700152.svg&quot;,&quot;url&quot;:&quot;https://lct-designs.s3.us-west-1.amazonaws.com/assets/models/pole-1631924700152.svg&quot;},&quot;mask&quot;:{&quot;key&quot;:&quot;assets/models/pole-mask-1631925211715.svg&quot;,&quot;url&quot;:&quot;https://lct-designs.s3.us-west-1.amazonaws.com/assets/models/pole-mask-1631925211715.svg&quot;},&quot;pos&quot;:&quot;2&quot;,&quot;accessories&quot;:&quot;2,3&quot;}" style="background-color: white;"><g class="model" style="pointer-events: none;"><polygon fill="#FFFFFF" points="0.5,0.5 0.5,67.2 0.5,300.5 0.5,367.2 500.5,367.2 500.5,300.5 500.5,67.2 500.5,0.5 "></polygon></g><image width="760" height="556" xlink:href="https://lct-designs.s3.us-west-1.amazonaws.com/assets/libs/mets-3-baseball-banner-1641953067450.png" class="asset background locked" transform="matrix(0.6595323960558116,0,0,0.6595323960558116,0,0)"></image><text fill="#0d0d0d" font-family="Impact" font-size="45" x="192.06642438162737" y="201.88927563680983" stroke-opacity="1" stroke-width="1" stroke="#f7f7f7" transform="matrix(0.2839633822441101,0,0,0.2839633822441101,141.7989044189453,45.1619987487793)" svgjs:data="{&quot;leading&quot;:&quot;1.3&quot;}"><tspan dy="0" x="192.06642438162737" svgjs:data="{&quot;newLined&quot;:true}">Coach: Coach's name</tspan></text><image width="760" height="760" xlink:href="https://lct-designs.s3.us-west-1.amazonaws.com/assets/libs/mets-2-baseball-banner--1641529053370.png" class="asset" transform="matrix(0.1914597600698471,0,0,0.19145976006984708,179.0419006347656,110.59503173828125)"></image><image width="496" height="760" xlink:href="https://lct-designs.s3.us-west-1.amazonaws.com/assets/libs/mets-4-baseball-banner-1641953714874.png" class="asset" transform="matrix(0.13157889246940613,0,0,0.13157889246940613,50.90132904052736,139.33816528320312)"></image><text fill="#f3f2f2" font-family="BadaBoom BB" font-size="45" stroke-opacity="1" stroke-width="0" stroke="#f7f7f7" x="54.90154642456008" y="202.01522374115754" transform="matrix(0.28934335708618164,0,0,0.28934335708618164,105.66424560546878,139.94720458984375)" svgjs:data="{&quot;leading&quot;:&quot;1.3&quot;}"><tspan dy="0" x="54.90154642456008" svgjs:data="{&quot;newLined&quot;:true}">PLAYER</tspan></text><image width="744" height="760" xlink:href="https://lct-designs.s3.us-west-1.amazonaws.com/assets/libs/mets-4-baseball-banner-9-1641953946812.png" class="asset" transform="matrix(0.040182061493396766,0,0,0.04018206149339676,123.20831298828125,154.30854797363278)"></image><image width="496" height="760" xlink:href="https://lct-designs.s3.us-west-1.amazonaws.com/assets/libs/mets-4-baseball-banner-1641953714874.png" class="asset" transform="matrix(-0.12314856052398682,0,0,0.13157889246940613,444.73370361328125,138.73931884765628)"></image><image width="744" height="760" xlink:href="https://lct-designs.s3.us-west-1.amazonaws.com/assets/libs/mets-4-baseball-banner-9-1641953946812.png" class="asset" transform="matrix(0.040182061493396766,0,0,0.04018206149339676,348.1783447265625,165.08721923828128)"></image><text fill="#f3f2f2" font-family="BadaBoom BB" font-size="45" stroke-opacity="1" stroke-width="0" stroke="#f7f7f7" x="54.90154642456008" y="202.01522374115754" transform="matrix(0.28934335708618164,0,0,0.28934335708618164,330.63427734375,150.7258758544922)" svgjs:data="{&quot;leading&quot;:&quot;1.3&quot;}"><tspan dy="0" x="54.90154642456008" svgjs:data="{&quot;newLined&quot;:true}">PLAYER</tspan></text><text fill="#f3f2f2" font-family="BadaBoom BB" font-size="45" stroke-opacity="1" stroke-width="0" stroke="#f7f7f7" x="54.90154642456008" y="202.01522374115754" transform="matrix(0.28934335708618164,0,0,0.28934335708618164,317.8798522949219,62.70001983642578)" svgjs:data="{&quot;leading&quot;:&quot;1.3&quot;}"><tspan dy="0" x="54.90154642456008" svgjs:data="{&quot;newLined&quot;:true}">PLAYER</tspan></text><text fill="#f3f2f2" font-family="BadaBoom BB" font-size="45" stroke-opacity="1" stroke-width="0" stroke="#f7f7f7" x="54.90154642456008" y="202.01522374115754" transform="matrix(0.28934335708618164,0,0,0.28934335708618164,372.19122314453125,62.10121154785156)" svgjs:data="{&quot;leading&quot;:&quot;1.3&quot;}"><tspan dy="0" x="54.90154642456008" svgjs:data="{&quot;newLined&quot;:true}">PLAYER</tspan></text><image width="744" height="760" xlink:href="https://lct-designs.s3.us-west-1.amazonaws.com/assets/libs/mets-4-baseball-banner-9-1641953946812.png" class="asset" transform="matrix(0.04018208757042885,0,0,0.04018208757042885,389.73529052734375,76.46255493164062)"></image><text fill="#f3f2f2" font-family="BadaBoom BB" font-size="45" stroke-opacity="1" stroke-width="0" stroke="#f7f7f7" x="54.90154642456008" y="202.01522374115754" transform="matrix(0.28934335708618164,0,0,0.28934335708618164,426.5025939941406,61.50239562988284)" svgjs:data="{&quot;leading&quot;:&quot;1.3&quot;}"><tspan dy="0" x="54.90154642456008" svgjs:data="{&quot;newLined&quot;:true}">PLAYER</tspan></text><image width="744" height="760" xlink:href="https://lct-designs.s3.us-west-1.amazonaws.com/assets/libs/mets-4-baseball-banner-9-1641953946812.png" class="asset" transform="matrix(0.04018210247159004,0,0,0.04018210247159004,444.0466613769531,75.8637390136719)"></image><text fill="#f3f2f2" font-family="BadaBoom BB" font-size="45" stroke-opacity="1" stroke-width="0" stroke="#f7f7f7" x="54.90154642456008" y="202.01522374115754" transform="matrix(0.28934335708618164,0,0,0.28934335708618164,9.077430725097656,62.70001983642578)" svgjs:data="{&quot;leading&quot;:&quot;1.3&quot;}"><tspan dy="0" x="54.90154642456008" svgjs:data="{&quot;newLined&quot;:true}">PLAYER</tspan></text><image width="744" height="760" xlink:href="https://lct-designs.s3.us-west-1.amazonaws.com/assets/libs/mets-4-baseball-banner-9-1641953946812.png" class="asset" transform="matrix(0.04018211364746094,0,0,0.04018211364746094,26.621505737304688,77.06136322021484)"></image><text fill="#f3f2f2" font-family="BadaBoom BB" font-size="45" stroke-opacity="1" stroke-width="0" stroke="#f7f7f7" x="54.90154642456008" y="202.01522374115754" transform="matrix(0.28934335708618164,0,0,0.28934335708618164,63.38880920410158,62.10121154785156)" svgjs:data="{&quot;leading&quot;:&quot;1.3&quot;}"><tspan dy="0" x="54.90154642456008" svgjs:data="{&quot;newLined&quot;:true}">PLAYER</tspan></text><image width="744" height="760" xlink:href="https://lct-designs.s3.us-west-1.amazonaws.com/assets/libs/mets-4-baseball-banner-9-1641953946812.png" class="asset" transform="matrix(0.04018212482333183,0,0,0.040182124823331826,80.93288421630861,76.46255493164062)"></image><text fill="#f3f2f2" font-family="BadaBoom BB" font-size="45" stroke-opacity="1" stroke-width="0" stroke="#f7f7f7" x="54.90154642456008" y="202.01522374115754" transform="matrix(0.28934335708618164,0,0,0.28934335708618164,121.29300689697268,63.29884338378909)" svgjs:data="{&quot;leading&quot;:&quot;1.3&quot;}"><tspan dy="0" x="54.90154642456008" svgjs:data="{&quot;newLined&quot;:true}">PLAYER</tspan></text><image width="744" height="760" xlink:href="https://lct-designs.s3.us-west-1.amazonaws.com/assets/libs/mets-4-baseball-banner-9-1641953946812.png" class="asset" transform="matrix(0.04018212482333183,0,0,0.040182124823331826,138.8370819091797,77.66018676757812)"></image><image width="744" height="760" xlink:href="https://lct-designs.s3.us-west-1.amazonaws.com/assets/libs/mets-4-baseball-banner-9-1641953946812.png" class="asset" transform="matrix(0.04018208757042885,0,0,0.04018208757042885,336.0227355957031,77.6601791381836)"></image><text fill="#f3f2f2" font-family="BadaBoom BB" font-size="45" stroke-opacity="1" stroke-width="0" stroke="#f7f7f7" x="54.90154642456008" y="202.01522374115754" transform="matrix(0.28934335708618164,0,0,0.28934335708618164,315.90380859374994,232.16477966308597)" svgjs:data="{&quot;leading&quot;:&quot;1.3&quot;}"><tspan dy="0" x="54.90154642456008" svgjs:data="{&quot;newLined&quot;:true}">PLAYER</tspan></text><text fill="#f3f2f2" font-family="BadaBoom BB" font-size="45" stroke-opacity="1" stroke-width="0" stroke="#f7f7f7" x="54.90154642456008" y="202.01522374115754" transform="matrix(0.28934335708618164,0,0,0.28934335708618164,370.2151794433594,231.56597900390622)" svgjs:data="{&quot;leading&quot;:&quot;1.3&quot;}"><tspan dy="0" x="54.90154642456008" svgjs:data="{&quot;newLined&quot;:true}">PLAYER</tspan></text><image width="744" height="760" xlink:href="https://lct-designs.s3.us-west-1.amazonaws.com/assets/libs/mets-4-baseball-banner-9-1641953946812.png" class="asset" transform="matrix(0.040182095021009445,0,0,0.04018209502100944,387.7592468261719,245.92732238769528)"></image><text fill="#f3f2f2" font-family="BadaBoom BB" font-size="45" stroke-opacity="1" stroke-width="0" stroke="#f7f7f7" x="54.90154642456008" y="202.01522374115754" transform="matrix(0.28934335708618164,0,0,0.28934335708618164,424.52655029296875,230.96716308593753)" svgjs:data="{&quot;leading&quot;:&quot;1.3&quot;}"><tspan dy="0" x="54.90154642456008" svgjs:data="{&quot;newLined&quot;:true}">PLAYER</tspan></text><image width="744" height="760" xlink:href="https://lct-designs.s3.us-west-1.amazonaws.com/assets/libs/mets-4-baseball-banner-9-1641953946812.png" class="asset" transform="matrix(0.04018211364746094,0,0,0.04018211364746094,442.07061767578125,245.3285064697266)"></image><image width="744" height="760" xlink:href="https://lct-designs.s3.us-west-1.amazonaws.com/assets/libs/mets-4-baseball-banner-9-1641953946812.png" class="asset" transform="matrix(0.040182095021009445,0,0,0.04018209502100944,334.04669189453125,247.12495422363284)"></image><text fill="#f3f2f2" font-family="BadaBoom BB" font-size="45" stroke-opacity="1" stroke-width="0" stroke="#f7f7f7" x="54.90154642456008" y="202.01522374115754" transform="matrix(0.28934335708618164,0,0,0.28934335708618164,7.101387016475201,232.16477966308597)" svgjs:data="{&quot;leading&quot;:&quot;1.3&quot;}"><tspan dy="0" x="54.90154642456008" svgjs:data="{&quot;newLined&quot;:true}">PLAYER</tspan></text><image width="744" height="760" xlink:href="https://lct-designs.s3.us-west-1.amazonaws.com/assets/libs/mets-4-baseball-banner-9-1641953946812.png" class="asset" transform="matrix(0.04018212482333183,0,0,0.040182124823331826,24.64546203613282,246.52612304687503)"></image><text fill="#f3f2f2" font-family="BadaBoom BB" font-size="45" stroke-opacity="1" stroke-width="0" stroke="#f7f7f7" x="54.90154642456008" y="202.01522374115754" transform="matrix(0.28934335708618164,0,0,0.28934335708618164,61.41276550292969,231.56597900390622)" svgjs:data="{&quot;leading&quot;:&quot;1.3&quot;}"><tspan dy="0" x="54.90154642456008" svgjs:data="{&quot;newLined&quot;:true}">PLAYER</tspan></text><image width="744" height="760" xlink:href="https://lct-designs.s3.us-west-1.amazonaws.com/assets/libs/mets-4-baseball-banner-9-1641953946812.png" class="asset" transform="matrix(0.04018213227391244,0,0,0.04018213227391243,78.95684051513672,245.92732238769528)"></image><text fill="#f3f2f2" font-family="BadaBoom BB" font-size="45" stroke-opacity="1" stroke-width="0" stroke="#f7f7f7" x="54.90154642456008" y="202.01522374115754" transform="matrix(0.28934335708618164,0,0,0.28934335708618164,119.31696319580078,232.76361083984378)" svgjs:data="{&quot;leading&quot;:&quot;1.3&quot;}"><tspan dy="0" x="54.90154642456008" svgjs:data="{&quot;newLined&quot;:true}">PLAYER</tspan></text><image width="744" height="760" xlink:href="https://lct-designs.s3.us-west-1.amazonaws.com/assets/libs/mets-4-baseball-banner-9-1641953946812.png" class="asset" transform="matrix(0.04018213227391244,0,0,0.04018213227391243,136.8610382080078,247.12495422363284)"></image><g class="mask" style="pointer-events: none;"><g><path fill="#BCBEC0" d="M-3642.4-2101.7v4589.1h7813.4v-4589.1H-3642.4z M500.5,67.2v233.3v66.7H0.5v-66.7V67.2V0.5h500V67.2z" transform="matrix(1,0,0,1,0,0)"></path><g transform="matrix(1,0,0,1,0,0)">
	<rect x="0.5" y="300.5" opacity="0.95" fill="#F1F2F2" width="500" height="66.7"></rect>
	<rect x="0.5" y="0.5" opacity="0.95" fill="#F1F2F2" width="500" height="66.7"></rect>
</g></g></g></svg>