<svg xmlns="http://www.w3.org/2000/svg" version="1.1" xmlns:xlink="http://www.w3.org/1999/xlink" xmlns:svgjs="http://svgjs.dev/svgjs" width="100%" height="100%" viewBox="1 1 499 365.70001220703125" preserveAspectRatio="none" data-info="{&quot;_id&quot;:4,&quot;name&quot;:&quot;POLE POCKET SOCCER BANNERS&quot;,&quot;information&quot;:&quot;- Size: 3’x5’\n- Material: heavy duty vinyl banner\n- Digitally printed on vinyl&quot;,&quot;price&quot;:&quot;95.00&quot;,&quot;sale_price&quot;:&quot;89.99&quot;,&quot;type&quot;:&quot;pole-pocket&quot;,&quot;cover&quot;:{&quot;key&quot;:&quot;assets/models/pole-1628062864266-1631924568908.png&quot;,&quot;url&quot;:&quot;https://lct-designs.s3.us-west-1.amazonaws.com/assets/models/pole-1628062864266-1631924568908.png&quot;},&quot;back&quot;:{&quot;key&quot;:&quot;assets/models/pole-1631924700152.svg&quot;,&quot;url&quot;:&quot;https://lct-designs.s3.us-west-1.amazonaws.com/assets/models/pole-1631924700152.svg&quot;},&quot;mask&quot;:{&quot;key&quot;:&quot;assets/models/pole-mask-1631925211715.svg&quot;,&quot;url&quot;:&quot;https://lct-designs.s3.us-west-1.amazonaws.com/assets/models/pole-mask-1631925211715.svg&quot;},&quot;pos&quot;:&quot;2&quot;,&quot;accessories&quot;:&quot;2,3&quot;}" style="background-color: white;"><g class="model" style="pointer-events: none;"><polygon fill="#FFFFFF" points="0.5,0.5 0.5,67.2 0.5,300.5 0.5,367.2 500.5,367.2 500.5,300.5 500.5,67.2 500.5,0.5 "></polygon></g><image width="760" height="556" xlink:href="https://lct-designs.s3.us-west-1.amazonaws.com/assets/libs/earthquakes-softball-banner-1640682447705.png" class="asset background locked" transform="matrix(0.6595323960558116,0,0,0.6595323960558116,0,0)"></image><text fill="#000000" font-family="Franklin Gothic" font-size="11" x="197.59496431176086" y="187.93020890361393" transform="matrix(1,0,0,1,-181.236328125,-103.28179168701175)" svgjs:data="{&quot;leading&quot;:&quot;1.3&quot;}"><tspan dy="0" x="197.59496431176086" svgjs:data="{&quot;newLined&quot;:true}">COACH: COACH'S NAME</tspan></text><text fill="#030303" font-family="Franklin Gothic" font-size="11" x="197.59496431176086" y="187.93020890361393" transform="matrix(1,0,0,1,142.29388427734372,-103.2817840576172)" svgjs:data="{&quot;leading&quot;:&quot;1.3&quot;}"><tspan dy="0" x="197.59496431176086" svgjs:data="{&quot;newLined&quot;:true}">TEAM MOM: TEAM MOM'S NAME</tspan></text><image width="638" height="760" xlink:href="https://lct-designs.s3.us-west-1.amazonaws.com/assets/libs/earthquakes-3-softball-banner-01-1640682138447.png" class="asset" transform="matrix(0.12484633922576904,0,0,0.12484633922576906,167.660888671875,196.45785522460943)"></image><image width="760" height="616" xlink:href="https://lct-designs.s3.us-west-1.amazonaws.com/assets/libs/extreme-heat-softball-banner-1644295037090.png" class="asset" transform="matrix(0.22664155066013336,0,0,0.2266415506601334,159.0660400390625,67.77652740478514)"></image><image width="760" height="760" xlink:href="https://lct-designs.s3.us-west-1.amazonaws.com/assets/libs/earthquakes-sofball-banner-1640682005965.png" class="asset" transform="matrix(0.03433012589812279,0,0,0.03433012589812279,355.2078857421875,121.41068267822264)"></image><text fill="#030303" font-family="Franklin Gothic" font-size="11" x="197.59496431176086" y="187.93020890361393" transform="matrix(1.3041192293167114,0,0,1.3041192293167114,87.65324401855469,-129.2914276123047)" svgjs:data="{&quot;leading&quot;:&quot;1.3&quot;}"><tspan dy="0" x="197.59496431176086" svgjs:data="{&quot;newLined&quot;:true}">PLAYER</tspan></text><image width="760" height="760" xlink:href="https://lct-designs.s3.us-west-1.amazonaws.com/assets/libs/earthquakes-sofball-banner-1640682005965.png" class="asset" transform="matrix(0.03433012589812279,0,0,0.03433012589812279,439.11639404296875,120.27359771728517)"></image><text fill="#030303" font-family="Franklin Gothic" font-size="11" x="197.59496431176086" y="187.93020890361393" transform="matrix(1.3041192293167114,0,0,1.3041192293167114,171.56175231933597,-130.42851257324222)" svgjs:data="{&quot;leading&quot;:&quot;1.3&quot;}"><tspan dy="0" x="197.59496431176086" svgjs:data="{&quot;newLined&quot;:true}">PLAYER</tspan></text><image width="760" height="760" xlink:href="https://lct-designs.s3.us-west-1.amazonaws.com/assets/libs/earthquakes-sofball-banner-1640682005965.png" class="asset" transform="matrix(0.03433012589812279,0,0,0.03433012589812279,354.9743957519531,185.65560913085938)"></image><text fill="#030303" font-family="Franklin Gothic" font-size="11" x="197.59496431176086" y="187.93020890361393" transform="matrix(1.3041192293167114,0,0,1.3041192293167114,87.41975402832031,-65.04649353027345)" svgjs:data="{&quot;leading&quot;:&quot;1.3&quot;}"><tspan dy="0" x="197.59496431176086" svgjs:data="{&quot;newLined&quot;:true}">PLAYER</tspan></text><image width="760" height="760" xlink:href="https://lct-designs.s3.us-west-1.amazonaws.com/assets/libs/earthquakes-sofball-banner-1640682005965.png" class="asset" transform="matrix(0.03433012589812279,0,0,0.03433012589812279,438.8829040527344,184.51852416992193)"></image><text fill="#030303" font-family="Franklin Gothic" font-size="11" x="197.59496431176086" y="187.93020890361393" transform="matrix(1.3041192293167114,0,0,1.3041192293167114,171.32826232910156,-66.18357849121095)" svgjs:data="{&quot;leading&quot;:&quot;1.3&quot;}"><tspan dy="0" x="197.59496431176086" svgjs:data="{&quot;newLined&quot;:true}">PLAYER</tspan></text><image width="760" height="760" xlink:href="https://lct-designs.s3.us-west-1.amazonaws.com/assets/libs/earthquakes-sofball-banner-1640682005965.png" class="asset" transform="matrix(0.03433012589812279,0,0,0.03433012589812279,358.1520690917968,254.44882202148438)"></image><text fill="#030303" font-family="Franklin Gothic" font-size="11" x="197.59496431176086" y="187.93020890361393" transform="matrix(1.3041192293167114,0,0,1.3041192293167114,90.59742736816403,3.7467193603515625)" svgjs:data="{&quot;leading&quot;:&quot;1.3&quot;}"><tspan dy="0" x="197.59496431176086" svgjs:data="{&quot;newLined&quot;:true}">PLAYER</tspan></text><image width="760" height="760" xlink:href="https://lct-designs.s3.us-west-1.amazonaws.com/assets/libs/earthquakes-sofball-banner-1640682005965.png" class="asset" transform="matrix(0.03433012589812279,0,0,0.03433012589812279,442.0605773925781,253.31173706054688)"></image><text fill="#030303" font-family="Franklin Gothic" font-size="11" x="197.59496431176086" y="187.93020890361393" transform="matrix(1.3041192293167114,0,0,1.3041192293167114,174.50593566894528,2.6096343994140625)" svgjs:data="{&quot;leading&quot;:&quot;1.3&quot;}"><tspan dy="0" x="197.59496431176086" svgjs:data="{&quot;newLined&quot;:true}">PLAYER</tspan></text><image width="760" height="760" xlink:href="https://lct-designs.s3.us-west-1.amazonaws.com/assets/libs/earthquakes-sofball-banner-1640682005965.png" class="asset" transform="matrix(0.03433012589812279,0,0,0.03433012589812279,278.3247680664062,254.44882202148438)"></image><text fill="#030303" font-family="Franklin Gothic" font-size="11" x="197.59496431176086" y="187.93020890361393" transform="matrix(1.3041192293167114,0,0,1.3041192293167114,10.770126342773438,3.7467193603515625)" svgjs:data="{&quot;leading&quot;:&quot;1.3&quot;}"><tspan dy="0" x="197.59496431176086" svgjs:data="{&quot;newLined&quot;:true}">PLAYER</tspan></text><image width="760" height="760" xlink:href="https://lct-designs.s3.us-west-1.amazonaws.com/assets/libs/earthquakes-sofball-banner-1640682005965.png" class="asset" transform="matrix(0.03433012589812279,0,0,0.03433012589812279,31.583984375,255.01736462116241)"></image><text fill="#030303" font-family="Franklin Gothic" font-size="11" x="197.59496431176086" y="187.93020890361393" transform="matrix(1.3041192293167114,0,0,1.3041192293167114,-235.9706573486328,4.315261960029602)" svgjs:data="{&quot;leading&quot;:&quot;1.3&quot;}"><tspan dy="0" x="197.59496431176086" svgjs:data="{&quot;newLined&quot;:true}">PLAYER</tspan></text><image width="760" height="760" xlink:href="https://lct-designs.s3.us-west-1.amazonaws.com/assets/libs/earthquakes-sofball-banner-1640682005965.png" class="asset" transform="matrix(0.03433012589812279,0,0,0.03433012589812279,115.49249267578125,253.88027966022491)"></image><text fill="#030303" font-family="Franklin Gothic" font-size="11" x="197.59496431176086" y="187.93020890361393" transform="matrix(1.3041192293167114,0,0,1.3041192293167114,-152.06214904785156,3.178176999092102)" svgjs:data="{&quot;leading&quot;:&quot;1.3&quot;}"><tspan dy="0" x="197.59496431176086" svgjs:data="{&quot;newLined&quot;:true}">PLAYER</tspan></text><image width="760" height="760" xlink:href="https://lct-designs.s3.us-west-1.amazonaws.com/assets/libs/earthquakes-sofball-banner-1640682005965.png" class="asset" transform="matrix(0.03433012589812279,0,0,0.03433012589812279,31.919029235839844,186.22413635253912)"></image><text fill="#030303" font-family="Franklin Gothic" font-size="11" x="197.59496431176086" y="187.93020890361393" transform="matrix(1.3041192293167114,0,0,1.3041192293167114,-235.635612487793,-64.47796630859376)" svgjs:data="{&quot;leading&quot;:&quot;1.3&quot;}"><tspan dy="0" x="197.59496431176086" svgjs:data="{&quot;newLined&quot;:true}">PLAYER</tspan></text><image width="760" height="760" xlink:href="https://lct-designs.s3.us-west-1.amazonaws.com/assets/libs/earthquakes-sofball-banner-1640682005965.png" class="asset" transform="matrix(0.03433012589812279,0,0,0.03433012589812279,115.8275375366211,185.08705139160156)"></image><text fill="#030303" font-family="Franklin Gothic" font-size="11" x="197.59496431176086" y="187.93020890361393" transform="matrix(1.3041192293167114,0,0,1.3041192293167114,-151.72710418701172,-65.61505103111269)" svgjs:data="{&quot;leading&quot;:&quot;1.3&quot;}"><tspan dy="0" x="197.59496431176086" svgjs:data="{&quot;newLined&quot;:true}">PLAYER</tspan></text><image width="760" height="760" xlink:href="https://lct-designs.s3.us-west-1.amazonaws.com/assets/libs/earthquakes-sofball-banner-1640682005965.png" class="asset" transform="matrix(0.03433012589812279,0,0,0.03433012589812279,32.82260131835936,119.70506286621095)"></image><text fill="#030303" font-family="Franklin Gothic" font-size="11" x="197.59496431176086" y="187.93020890361393" transform="matrix(1.3041192293167114,0,0,1.3041192293167114,-234.732048034668,-130.99703979492188)" svgjs:data="{&quot;leading&quot;:&quot;1.3&quot;}"><tspan dy="0" x="197.59496431176086" svgjs:data="{&quot;newLined&quot;:true}">PLAYER</tspan></text><image width="760" height="760" xlink:href="https://lct-designs.s3.us-west-1.amazonaws.com/assets/libs/earthquakes-sofball-banner-1640682005965.png" class="asset" transform="matrix(0.03433012589812279,0,0,0.03433012589812279,116.73110961914062,118.56797790527345)"></image><text fill="#030303" font-family="Franklin Gothic" font-size="11" x="197.59496431176086" y="187.93020890361393" transform="matrix(1.3041192293167114,0,0,1.3041192293167114,-150.82353973388672,-132.13412475585938)" svgjs:data="{&quot;leading&quot;:&quot;1.3&quot;}"><tspan dy="0" x="197.59496431176086" svgjs:data="{&quot;newLined&quot;:true}">PLAYER</tspan></text><g class="mask" style="pointer-events: none;"><g><path fill="#BCBEC0" d="M-3642.4-2101.7v4589.1h7813.4v-4589.1H-3642.4z M500.5,67.2v233.3v66.7H0.5v-66.7V67.2V0.5h500V67.2z" transform="matrix(1,0,0,1,0,0)"></path><g transform="matrix(1,0,0,1,0,0)">
	<rect x="0.5" y="300.5" opacity="0.95" fill="#F1F2F2" width="500" height="66.7"></rect>
	<rect x="0.5" y="0.5" opacity="0.95" fill="#F1F2F2" width="500" height="66.7"></rect>
</g></g></g></svg>