<svg xmlns="http://www.w3.org/2000/svg" version="1.1" xmlns:xlink="http://www.w3.org/1999/xlink" xmlns:svgjs="http://svgjs.dev/svgjs" width="100%" height="100%" viewBox="1 1 499 365.70001220703125" preserveAspectRatio="none" data-info="{&quot;_id&quot;:4,&quot;name&quot;:&quot;POLE POCKET SOCCER BANNERS&quot;,&quot;information&quot;:&quot;- Size: 3’x5’\n- Material: heavy duty vinyl banner\n- Digitally printed on vinyl&quot;,&quot;price&quot;:&quot;95.00&quot;,&quot;sale_price&quot;:&quot;89.99&quot;,&quot;type&quot;:&quot;pole-pocket&quot;,&quot;cover&quot;:{&quot;key&quot;:&quot;assets/models/pole-1628062864266-1631924568908.png&quot;,&quot;url&quot;:&quot;https://lct-designs.s3.us-west-1.amazonaws.com/assets/models/pole-1628062864266-1631924568908.png&quot;},&quot;back&quot;:{&quot;key&quot;:&quot;assets/models/pole-1631924700152.svg&quot;,&quot;url&quot;:&quot;https://lct-designs.s3.us-west-1.amazonaws.com/assets/models/pole-1631924700152.svg&quot;},&quot;mask&quot;:{&quot;key&quot;:&quot;assets/models/pole-mask-1631925211715.svg&quot;,&quot;url&quot;:&quot;https://lct-designs.s3.us-west-1.amazonaws.com/assets/models/pole-mask-1631925211715.svg&quot;},&quot;pos&quot;:&quot;2&quot;,&quot;accessories&quot;:&quot;2,3&quot;}" style="background-color: white;"><g class="model" style="pointer-events: none;"><polygon fill="#FFFFFF" points="0.5,0.5 0.5,67.2 0.5,300.5 0.5,367.2 500.5,367.2 500.5,300.5 500.5,67.2 500.5,0.5 "></polygon></g><image width="760" height="556" xlink:href="https://lct-designs.s3.us-west-1.amazonaws.com/assets/libs/dolphins-1-softball-banner-1640682447705.png" class="asset background locked" transform="matrix(0.6595323960558116,0,0,0.6595323960558116,0,0)"></image><text fill="#000000" font-family="UTM Rockwell" font-size="45" x="187.8820669987872" y="200.72270826237065" transform="matrix(0.3223560154438019,0,0,0.3223560154438018,-46.032848358154304,25.32053947448729)" svgjs:data="{&quot;leading&quot;:&quot;1.3&quot;}"><tspan dy="0" x="187.8820669987872" svgjs:data="{&quot;newLined&quot;:true}">COACH: COACH NAME</tspan></text><text fill="#000000" font-family="UTM Rockwell" font-size="45" x="187.8820669987872" y="200.72270826237065" transform="matrix(0.3223560154438019,0,0,0.3223560154438018,266.5508728027344,25.88295745849608)" svgjs:data="{&quot;leading&quot;:&quot;1.3&quot;}"><tspan dy="0" x="187.8820669987872" svgjs:data="{&quot;newLined&quot;:true}">TEAM MOM: NAME</tspan></text><image width="760" height="633" xlink:href="https://lct-designs.s3.us-west-1.amazonaws.com/assets/libs/dolphins-1-softball-banner-1640682384611.png" class="asset" transform="matrix(0.2781798541545868,0,0,0.2781798541545868,143.19525146484375,92.2120132446289)"></image><image width="760" height="609" xlink:href="https://lct-designs.s3.us-west-1.amazonaws.com/assets/libs/dolphins-1-sofball-banner-1640682005965.png" class="asset" transform="matrix(0.050310581922531135,0,0,0.05031058192253112,35.20998001098633,105.60186004638669)"></image><text fill="#ffffff" font-family="UTM Rockwell" font-size="45" x="146.72410227879854" y="202.12875223264064" stroke-opacity="1" stroke-width="2" stroke="#000000" transform="matrix(0.2627585232257843,0,0,0.2627585232257843,-14.999607086181648,94.20741271972653)" svgjs:data="{&quot;leading&quot;:&quot;1.3&quot;}"><tspan dy="0" x="146.72410227879854" svgjs:data="{&quot;newLined&quot;:true}">PLAYER</tspan></text><image width="760" height="609" xlink:href="https://lct-designs.s3.us-west-1.amazonaws.com/assets/libs/dolphins-1-sofball-banner-1640682005965.png" class="asset" transform="matrix(0.050310581922531135,0,0,0.05031058192253112,127.88620376586917,105.60186004638669)"></image><text fill="#ffffff" font-family="UTM Rockwell" font-size="45" x="146.72410227879854" y="202.12875223264064" stroke-opacity="1" stroke-width="2" stroke="#000000" transform="matrix(0.2627585232257843,0,0,0.2627585232257843,77.6766166687012,94.20741271972653)" svgjs:data="{&quot;leading&quot;:&quot;1.3&quot;}"><tspan dy="0" x="146.72410227879854" svgjs:data="{&quot;newLined&quot;:true}">PLAYER</tspan></text><image width="760" height="609" xlink:href="https://lct-designs.s3.us-west-1.amazonaws.com/assets/libs/dolphins-1-sofball-banner-1640682005965.png" class="asset" transform="matrix(0.050310581922531135,0,0,0.05031058192253112,76.01963806152344,158.4696578979492)"></image><text fill="#ffffff" font-family="UTM Rockwell" font-size="45" x="146.72410227879854" y="202.12875223264064" stroke-opacity="1" stroke-width="2" stroke="#000000" transform="matrix(0.2627585232257843,0,0,0.2627585232257843,25.810058593749986,147.07521057128903)" svgjs:data="{&quot;leading&quot;:&quot;1.3&quot;}"><tspan dy="0" x="146.72410227879854" svgjs:data="{&quot;newLined&quot;:true}">PLAYER</tspan></text><image width="760" height="609" xlink:href="https://lct-designs.s3.us-west-1.amazonaws.com/assets/libs/dolphins-1-sofball-banner-1640682005965.png" class="asset" transform="matrix(0.050310581922531135,0,0,0.05031058192253112,30.339733123779297,214.71199035644528)"></image><text fill="#ffffff" font-family="UTM Rockwell" font-size="45" x="146.72410227879854" y="202.12875223264064" stroke-opacity="1" stroke-width="2" stroke="#000000" transform="matrix(0.2627585232257843,0,0,0.2627585232257843,-19.86984634399414,203.3175354003906)" svgjs:data="{&quot;leading&quot;:&quot;1.3&quot;}"><tspan dy="0" x="146.72410227879854" svgjs:data="{&quot;newLined&quot;:true}">PLAYER</tspan></text><image width="760" height="609" xlink:href="https://lct-designs.s3.us-west-1.amazonaws.com/assets/libs/dolphins-1-sofball-banner-1640682005965.png" class="asset" transform="matrix(0.050310581922531135,0,0,0.05031058192253112,96.01963806152344,246.20770263671872)"></image><text fill="#ffffff" font-family="UTM Rockwell" font-size="45" x="146.72410227879854" y="202.12875223264064" stroke-opacity="1" stroke-width="2" stroke="#000000" transform="matrix(0.2627585232257843,0,0,0.2627585232257843,45.81005859375,234.81324768066403)" svgjs:data="{&quot;leading&quot;:&quot;1.3&quot;}"><tspan dy="0" x="146.72410227879854" svgjs:data="{&quot;newLined&quot;:true}">PLAYER</tspan></text><image width="760" height="609" xlink:href="https://lct-designs.s3.us-west-1.amazonaws.com/assets/libs/dolphins-1-sofball-banner-1640682005965.png" class="asset" transform="matrix(0.050310581922531135,0,0,0.05031058192253112,197.13221740722656,244.52044677734378)"></image><text fill="#ffffff" font-family="UTM Rockwell" font-size="45" x="146.72410227879854" y="202.12875223264064" stroke-opacity="1" stroke-width="2" stroke="#000000" transform="matrix(0.2627585232257843,0,0,0.2627585232257843,146.92263793945312,233.1259918212891)" svgjs:data="{&quot;leading&quot;:&quot;1.3&quot;}"><tspan dy="0" x="146.72410227879854" svgjs:data="{&quot;newLined&quot;:true}">PLAYER</tspan></text><image width="760" height="609" xlink:href="https://lct-designs.s3.us-west-1.amazonaws.com/assets/libs/dolphins-1-sofball-banner-1640682005965.png" class="asset" transform="matrix(0.050310581922531135,0,0,0.05031058192253112,288.12118530273443,244.52044677734378)"></image><text fill="#ffffff" font-family="UTM Rockwell" font-size="45" x="146.72410227879854" y="202.12875223264064" stroke-opacity="1" stroke-width="2" stroke="#000000" transform="matrix(0.2627585232257843,0,0,0.2627585232257843,237.911605834961,233.1259918212891)" svgjs:data="{&quot;leading&quot;:&quot;1.3&quot;}"><tspan dy="0" x="146.72410227879854" svgjs:data="{&quot;newLined&quot;:true}">PLAYER</tspan></text><image width="760" height="609" xlink:href="https://lct-designs.s3.us-west-1.amazonaws.com/assets/libs/dolphins-1-sofball-banner-1640682005965.png" class="asset" transform="matrix(0.050310581922531135,0,0,0.05031058192253112,383.6095275878906,243.39559936523435)"></image><text fill="#ffffff" font-family="UTM Rockwell" font-size="45" x="146.72410227879854" y="202.12875223264064" stroke-opacity="1" stroke-width="2" stroke="#000000" transform="matrix(0.2627585232257843,0,0,0.2627585232257843,333.3999481201172,232.00114440917966)" svgjs:data="{&quot;leading&quot;:&quot;1.3&quot;}"><tspan dy="0" x="146.72410227879854" svgjs:data="{&quot;newLined&quot;:true}">PLAYER</tspan></text><image width="760" height="609" xlink:href="https://lct-designs.s3.us-west-1.amazonaws.com/assets/libs/dolphins-1-sofball-banner-1640682005965.png" class="asset" transform="matrix(0.050310581922531135,0,0,0.05031058192253112,440.8531187772751,195.02719116210935)"></image><text fill="#ffffff" font-family="UTM Rockwell" font-size="45" x="146.72410227879854" y="202.12875223264064" stroke-opacity="1" stroke-width="2" stroke="#000000" transform="matrix(0.2627585232257843,0,0,0.2627585232257843,390.6435545682907,183.63273620605466)" svgjs:data="{&quot;leading&quot;:&quot;1.3&quot;}"><tspan dy="0" x="146.72410227879854" svgjs:data="{&quot;newLined&quot;:true}">PLAYER</tspan></text><image width="760" height="609" xlink:href="https://lct-designs.s3.us-west-1.amazonaws.com/assets/libs/dolphins-1-sofball-banner-1640682005965.png" class="asset" transform="matrix(0.050310581922531135,0,0,0.05031058192253112,375.4883728027344,163.53149414062497)"></image><text fill="#ffffff" font-family="UTM Rockwell" font-size="45" x="146.72410227879854" y="202.12875223264064" stroke-opacity="1" stroke-width="2" stroke="#000000" transform="matrix(0.2627585232257843,0,0,0.2627585232257843,325.27880859375,152.13703918457028)" svgjs:data="{&quot;leading&quot;:&quot;1.3&quot;}"><tspan dy="0" x="146.72410227879854" svgjs:data="{&quot;newLined&quot;:true}">PLAYER</tspan></text><image width="760" height="609" xlink:href="https://lct-designs.s3.us-west-1.amazonaws.com/assets/libs/dolphins-1-sofball-banner-1640682005965.png" class="asset" transform="matrix(0.050310581922531135,0,0,0.05031058192253112,448.4797973632813,103.3521957397461)"></image><text fill="#ffffff" font-family="UTM Rockwell" font-size="45" x="146.72410227879854" y="202.12875223264064" stroke-opacity="1" stroke-width="2" stroke="#000000" transform="matrix(0.2627585232257843,0,0,0.2627585232257843,398.27023315429693,91.9577407836914)" svgjs:data="{&quot;leading&quot;:&quot;1.3&quot;}"><tspan dy="0" x="146.72410227879854" svgjs:data="{&quot;newLined&quot;:true}">PLAYER</tspan></text><image width="760" height="609" xlink:href="https://lct-designs.s3.us-west-1.amazonaws.com/assets/libs/dolphins-1-sofball-banner-1640682005965.png" class="asset" transform="matrix(0.050310581922531135,0,0,0.05031058192253112,373.55389404296875,103.3521957397461)"></image><text fill="#ffffff" font-family="UTM Rockwell" font-size="45" x="146.72410227879854" y="202.12875223264064" stroke-opacity="1" stroke-width="2" stroke="#000000" transform="matrix(0.2627585232257843,0,0,0.2627585232257843,323.3443298339844,91.9577407836914)" svgjs:data="{&quot;leading&quot;:&quot;1.3&quot;}"><tspan dy="0" x="146.72410227879854" svgjs:data="{&quot;newLined&quot;:true}">PLAYER</tspan></text><g class="mask" style="pointer-events: none;"><g><path fill="#BCBEC0" d="M-3642.4-2101.7v4589.1h7813.4v-4589.1H-3642.4z M500.5,67.2v233.3v66.7H0.5v-66.7V67.2V0.5h500V67.2z" transform="matrix(1,0,0,1,0,0)"></path><g transform="matrix(1,0,0,1,0,0)">
	<rect x="0.5" y="300.5" opacity="0.95" fill="#F1F2F2" width="500" height="66.7"></rect>
	<rect x="0.5" y="0.5" opacity="0.95" fill="#F1F2F2" width="500" height="66.7"></rect>
</g></g></g></svg>