<svg xmlns="http://www.w3.org/2000/svg" version="1.1" xmlns:xlink="http://www.w3.org/1999/xlink" xmlns:svgjs="http://svgjs.dev/svgjs" width="100%" height="100%" viewBox="1 1 499 365.70001220703125" preserveAspectRatio="none" data-info="{&quot;_id&quot;:4,&quot;name&quot;:&quot;POLE POCKET SOCCER BANNERS&quot;,&quot;information&quot;:&quot;- Size: 3’x5’\n- Material: heavy duty vinyl banner\n- Digitally printed on vinyl&quot;,&quot;price&quot;:&quot;95.00&quot;,&quot;sale_price&quot;:&quot;89.99&quot;,&quot;type&quot;:&quot;pole-pocket&quot;,&quot;cover&quot;:{&quot;key&quot;:&quot;assets/models/pole-1628062864266-1631924568908.png&quot;,&quot;url&quot;:&quot;https://lct-designs.s3.us-west-1.amazonaws.com/assets/models/pole-1628062864266-1631924568908.png&quot;},&quot;back&quot;:{&quot;key&quot;:&quot;assets/models/pole-1631924700152.svg&quot;,&quot;url&quot;:&quot;https://lct-designs.s3.us-west-1.amazonaws.com/assets/models/pole-1631924700152.svg&quot;},&quot;mask&quot;:{&quot;key&quot;:&quot;assets/models/pole-mask-1631925211715.svg&quot;,&quot;url&quot;:&quot;https://lct-designs.s3.us-west-1.amazonaws.com/assets/models/pole-mask-1631925211715.svg&quot;},&quot;pos&quot;:&quot;2&quot;,&quot;accessories&quot;:&quot;2,3&quot;}" style="background-color: white;"><g class="model" style="pointer-events: none;"><polygon fill="#FFFFFF" points="0.5,0.5 0.5,67.2 0.5,300.5 0.5,367.2 500.5,367.2 500.5,300.5 500.5,67.2 500.5,0.5 "></polygon></g><image width="760" height="556" xlink:href="https://lct-designs.s3.us-west-1.amazonaws.com/assets/libs/dragon-softball-banner-1640682447705.png" class="asset background locked" transform="matrix(0.6595323960558116,0,0,0.6595323960558116,0,0)"></image><text fill="#000000" font-family="Impact" font-size="40" x="187.8820669987872" y="200.72270826237065" transform="matrix(0.3223560154438019,0,0,0.3223560154438018,334.6040954589844,23.070833206176744)" svgjs:data="{&quot;leading&quot;:&quot;1.3&quot;}"><tspan dy="0" x="187.8820669987872" svgjs:data="{&quot;newLined&quot;:true}">TEAM MOM: NAME</tspan></text><text fill="#000000" font-family="Impact" font-size="40" x="187.8820669987872" y="200.72270826237065" transform="matrix(0.3223560154438019,0,0,0.3223560154438018,64.76456451416016,23.07085037231444)" svgjs:data="{&quot;leading&quot;:&quot;1.3&quot;}"><tspan dy="0" x="187.8820669987872" svgjs:data="{&quot;newLined&quot;:true}">COACH: COACH NAME</tspan></text><image width="734" height="760" xlink:href="https://lct-designs.s3.us-west-1.amazonaws.com/assets/libs/dragon-softball-banner-1640682384612.png" class="asset" transform="matrix(0.18486052751541138,0,0,0.18486052751541138,12.173914909362793,78.79494476318357)"></image><image width="759" height="581" xlink:href="https://lct-designs.s3.us-west-1.amazonaws.com/assets/libs/dragon-softball-banner-01-1640682138447.png" class="asset" transform="matrix(0.17144073545932773,0,0,0.1714407354593277,359.7379455566406,188.38255310058594)"></image><image width="760" height="567" xlink:href="https://lct-designs.s3.us-west-1.amazonaws.com/assets/libs/dragon-sofball-banner-1640682005965.png" class="asset" transform="matrix(0.05917383164546486,0,0,0.05917383164546486,13.837902842499716,227.03633163192714)"></image><text fill="#000000" font-family="Impact" font-size="40" x="187.8820669987872" y="200.72270826237065" transform="matrix(0.387307428087162,0,0,0.38730742808716195,-56.366029097554026,199.56402500686087)" svgjs:data="{&quot;leading&quot;:&quot;1.3&quot;}"><tspan dy="0" x="187.8820669987872" svgjs:data="{&quot;newLined&quot;:true}">PLAYER</tspan></text><image width="760" height="567" xlink:href="https://lct-designs.s3.us-west-1.amazonaws.com/assets/libs/dragon-sofball-banner-1640682005965.png" class="asset" transform="matrix(0.0591738447546959,0,0,0.05917384475469589,108.76382446289062,230.97328186035153)"></image><text fill="#000000" font-family="Impact" font-size="40" x="187.8820669987872" y="200.72270826237065" transform="matrix(0.38730743527412415,0,0,0.38730743527412415,38.55989837646486,203.50097656249997)" svgjs:data="{&quot;leading&quot;:&quot;1.3&quot;}"><tspan dy="0" x="187.8820669987872" svgjs:data="{&quot;newLined&quot;:true}">PLAYER</tspan></text><image width="760" height="567" xlink:href="https://lct-designs.s3.us-west-1.amazonaws.com/assets/libs/dragon-sofball-banner-1640682005965.png" class="asset" transform="matrix(0.059173855930566795,0,0,0.05917385593056679,208.18911743164062,220.84967041015622)"></image><text fill="#000000" font-family="Impact" font-size="40" x="187.8820669987872" y="200.72270826237065" transform="matrix(0.38730743527412415,0,0,0.38730743527412415,137.9851989746094,193.37736511230466)" svgjs:data="{&quot;leading&quot;:&quot;1.3&quot;}"><tspan dy="0" x="187.8820669987872" svgjs:data="{&quot;newLined&quot;:true}">PLAYER</tspan></text><image width="760" height="567" xlink:href="https://lct-designs.s3.us-west-1.amazonaws.com/assets/libs/dragon-sofball-banner-1640682005965.png" class="asset" transform="matrix(0.059173855930566795,0,0,0.05917385593056679,308.1768798828125,221.97451782226565)"></image><text fill="#000000" font-family="Impact" font-size="40" x="187.8820669987872" y="200.72270826237065" transform="matrix(0.38730743527412415,0,0,0.38730743527412415,237.97293090820312,194.50221252441403)" svgjs:data="{&quot;leading&quot;:&quot;1.3&quot;}"><tspan dy="0" x="187.8820669987872" svgjs:data="{&quot;newLined&quot;:true}">PLAYER</tspan></text><image width="760" height="567" xlink:href="https://lct-designs.s3.us-west-1.amazonaws.com/assets/libs/dragon-sofball-banner-1640682005965.png" class="asset" transform="matrix(0.059173855930566795,0,0,0.05917385593056679,174.32009887695312,162.35763549804688)"></image><text fill="#000000" font-family="Impact" font-size="40" x="187.8820669987872" y="200.72270826237065" transform="matrix(0.38730743527412415,0,0,0.38730743527412415,104.11618041992188,134.8853302001953)" svgjs:data="{&quot;leading&quot;:&quot;1.3&quot;}"><tspan dy="0" x="187.8820669987872" svgjs:data="{&quot;newLined&quot;:true}">PLAYER</tspan></text><image width="760" height="567" xlink:href="https://lct-designs.s3.us-west-1.amazonaws.com/assets/libs/dragon-sofball-banner-1640682005965.png" class="asset" transform="matrix(0.059173855930566795,0,0,0.05917385593056679,274.30786132812506,163.48248291015625)"></image><text fill="#000000" font-family="Impact" font-size="40" x="187.8820669987872" y="200.72270826237065" transform="matrix(0.38730743527412415,0,0,0.38730743527412415,204.10391235351562,136.0101776123047)" svgjs:data="{&quot;leading&quot;:&quot;1.3&quot;}"><tspan dy="0" x="187.8820669987872" svgjs:data="{&quot;newLined&quot;:true}">PLAYER</tspan></text><image width="760" height="567" xlink:href="https://lct-designs.s3.us-west-1.amazonaws.com/assets/libs/dragon-sofball-banner-1640682005965.png" class="asset" transform="matrix(0.059173855930566795,0,0,0.05917385593056679,133.13957214355472,98.24140167236328)"></image><text fill="#000000" font-family="Impact" font-size="40" x="187.8820669987872" y="200.72270826237065" transform="matrix(0.38730743527412415,0,0,0.38730743527412415,62.93565368652344,70.76909637451172)" svgjs:data="{&quot;leading&quot;:&quot;1.3&quot;}"><tspan dy="0" x="187.8820669987872" svgjs:data="{&quot;newLined&quot;:true}">PLAYER</tspan></text><image width="760" height="567" xlink:href="https://lct-designs.s3.us-west-1.amazonaws.com/assets/libs/dragon-sofball-banner-1640682005965.png" class="asset" transform="matrix(0.059173855930566795,0,0,0.05917385593056679,230.8776397705078,99.36624908447263)"></image><text fill="#000000" font-family="Impact" font-size="40" x="187.8820669987872" y="200.72270826237065" transform="matrix(0.38730743527412415,0,0,0.38730743527412415,160.67369079589844,71.8939437866211)" svgjs:data="{&quot;leading&quot;:&quot;1.3&quot;}"><tspan dy="0" x="187.8820669987872" svgjs:data="{&quot;newLined&quot;:true}">PLAYER</tspan></text><image width="760" height="567" xlink:href="https://lct-designs.s3.us-west-1.amazonaws.com/assets/libs/dragon-sofball-banner-1640682005965.png" class="asset" transform="matrix(0.059173855930566795,0,0,0.05917385593056679,328.739242553711,102.74078369140625)"></image><text fill="#000000" font-family="Impact" font-size="40" x="187.8820669987872" y="200.72270826237065" transform="matrix(0.38730743527412415,0,0,0.38730743527412415,258.5353240966797,75.26847839355466)" svgjs:data="{&quot;leading&quot;:&quot;1.3&quot;}"><tspan dy="0" x="187.8820669987872" svgjs:data="{&quot;newLined&quot;:true}">PLAYER</tspan></text><image width="760" height="567" xlink:href="https://lct-designs.s3.us-west-1.amazonaws.com/assets/libs/dragon-sofball-banner-1640682005965.png" class="asset" transform="matrix(0.059173855930566795,0,0,0.05917385593056679,428.7270050048828,103.86563110351562)"></image><text fill="#000000" font-family="Impact" font-size="40" x="187.8820669987872" y="200.72270826237065" transform="matrix(0.38730743527412415,0,0,0.38730743527412415,358.5230560302735,76.39332580566406)" svgjs:data="{&quot;leading&quot;:&quot;1.3&quot;}"><tspan dy="0" x="187.8820669987872" svgjs:data="{&quot;newLined&quot;:true}">PLAYER</tspan></text><g class="mask" style="pointer-events: none;"><g><path fill="#BCBEC0" d="M-3642.4-2101.7v4589.1h7813.4v-4589.1H-3642.4z M500.5,67.2v233.3v66.7H0.5v-66.7V67.2V0.5h500V67.2z" transform="matrix(1,0,0,1,0,0)"></path><g transform="matrix(1,0,0,1,0,0)">
	<rect x="0.5" y="300.5" opacity="0.95" fill="#F1F2F2" width="500" height="66.7"></rect>
	<rect x="0.5" y="0.5" opacity="0.95" fill="#F1F2F2" width="500" height="66.7"></rect>
</g></g></g></svg>