<svg xmlns="http://www.w3.org/2000/svg" version="1.1" xmlns:xlink="http://www.w3.org/1999/xlink" xmlns:svgjs="http://svgjs.dev/svgjs" width="100%" height="100%" viewBox="1 1 499 365.70001220703125" preserveAspectRatio="none" data-info="{&quot;_id&quot;:4,&quot;name&quot;:&quot;POLE POCKET SOCCER BANNERS&quot;,&quot;information&quot;:&quot;- Size: 3’x5’\n- Material: heavy duty vinyl banner\n- Digitally printed on vinyl&quot;,&quot;price&quot;:&quot;95.00&quot;,&quot;sale_price&quot;:&quot;89.99&quot;,&quot;type&quot;:&quot;pole-pocket&quot;,&quot;cover&quot;:{&quot;key&quot;:&quot;assets/models/pole-1628062864266-1631924568908.png&quot;,&quot;url&quot;:&quot;https://lct-designs.s3.us-west-1.amazonaws.com/assets/models/pole-1628062864266-1631924568908.png&quot;},&quot;back&quot;:{&quot;key&quot;:&quot;assets/models/pole-1631924700152.svg&quot;,&quot;url&quot;:&quot;https://lct-designs.s3.us-west-1.amazonaws.com/assets/models/pole-1631924700152.svg&quot;},&quot;mask&quot;:{&quot;key&quot;:&quot;assets/models/pole-mask-1631925211715.svg&quot;,&quot;url&quot;:&quot;https://lct-designs.s3.us-west-1.amazonaws.com/assets/models/pole-mask-1631925211715.svg&quot;},&quot;pos&quot;:&quot;2&quot;,&quot;accessories&quot;:&quot;2,3&quot;}" style="background-color: white;"><g class="model" style="pointer-events: none;"><polygon fill="#FFFFFF" points="0.5,0.5 0.5,67.2 0.5,300.5 0.5,367.2 500.5,367.2 500.5,300.5 500.5,67.2 500.5,0.5 "></polygon></g><image width="760" height="556" xlink:href="https://lct-designs.s3.us-west-1.amazonaws.com/assets/libs/new-york-mets-2-baseball-banner-1641953092640.png" class="asset background locked" transform="matrix(0.6595323960558116,0,0,0.6595323960558116,0,0)"></image><text fill="#0d0d0d" font-family="Impact" font-size="45" x="192.06642438162737" y="201.88927563680983" stroke-opacity="1" stroke-width="1" stroke="#f7f7f7" transform="matrix(0.28554242849349976,0,0,0.28554242849349976,318.39862060546875,30.044191360473633)" svgjs:data="{&quot;leading&quot;:&quot;1.3&quot;}"><tspan dy="0" x="192.06642438162737" svgjs:data="{&quot;newLined&quot;:true}">Coach: Coach's name</tspan></text><image width="760" height="349" xlink:href="https://lct-designs.s3.us-west-1.amazonaws.com/assets/libs/new-york-mets-2-baseball-banner-1641953851068.png" class="asset" transform="matrix(0.2688392996788025,0,0,0.2688392996788025,77.24549865722656,80.14821624755861)"></image><image width="628" height="760" xlink:href="https://lct-designs.s3.us-west-1.amazonaws.com/assets/libs/new-york-mets-2-baseball-banner-1641953788874.png" class="asset" transform="matrix(0.2032783031463623,0,0,0.2032783031463623,350.9808959960937,124.9665985107422)"></image><text fill="#a90f0f" font-family="Supersonic Rocketship" font-size="45" stroke-opacity="1" stroke-width="1" stroke="#fdfcfc" x="54.90154642456008" y="202.01522374115754" transform="matrix(0.25308618650949377,0,0,0.25308618650949377,70.93781952041037,152.73359084308868)" svgjs:data="{&quot;leading&quot;:&quot;1.3&quot;}"><tspan dy="0" x="54.90154642456008" svgjs:data="{&quot;newLined&quot;:true}">PLAYER</tspan></text><image width="760" height="401" xlink:href="https://lct-designs.s3.us-west-1.amazonaws.com/assets/libs/new-york-mets-baseball-banner-1641953965316.png" class="asset" transform="matrix(0.07400132438168061,0,0,0.07400132438168061,142.22664123000686,185.1127227850884)"></image><text fill="#a90f0f" font-family="Supersonic Rocketship" font-size="45" stroke-opacity="1" stroke-width="1" stroke="#fdfcfc" x="54.90154642456008" y="202.01522374115754" transform="matrix(0.25308618650949377,0,0,0.25308618650949377,188.65338927568155,152.73357491727802)" svgjs:data="{&quot;leading&quot;:&quot;1.3&quot;}"><tspan dy="0" x="54.90154642456008" svgjs:data="{&quot;newLined&quot;:true}">PLAYER</tspan></text><image width="760" height="401" xlink:href="https://lct-designs.s3.us-west-1.amazonaws.com/assets/libs/new-york-mets-baseball-banner-1641953965316.png" class="asset" transform="matrix(0.07400135548677955,0,0,0.07400135548677955,254.91399858227305,185.1127068592777)"></image><text fill="#a90f0f" font-family="Supersonic Rocketship" font-size="45" stroke-opacity="1" stroke-width="1" stroke="#fdfcfc" x="54.90154642456008" y="202.01522374115754" transform="matrix(0.2530862176145927,0,0,0.2530862176145927,301.3407625537584,152.73359084308868)" svgjs:data="{&quot;leading&quot;:&quot;1.3&quot;}"><tspan dy="0" x="54.90154642456008" svgjs:data="{&quot;newLined&quot;:true}">PLAYER</tspan></text><image width="760" height="401" xlink:href="https://lct-designs.s3.us-west-1.amazonaws.com/assets/libs/new-york-mets-baseball-banner-1641953965316.png" class="asset" transform="matrix(0.07400126217148273,0,0,0.07400126217148273,24.511073465462005,185.112738710899)"></image><image width="760" height="401" xlink:href="https://lct-designs.s3.us-west-1.amazonaws.com/assets/libs/new-york-mets-baseball-banner-1641953965316.png" class="asset" transform="matrix(0.0740012777240322,0,0,0.0740012777240322,27.695598564593865,218.63473867732313)"></image><text fill="#a90f0f" font-family="Supersonic Rocketship" font-size="45" stroke-opacity="1" stroke-width="1" stroke="#fdfcfc" x="54.90154642456008" y="202.01522374115754" transform="matrix(0.25308618650949377,0,0,0.25308618650949377,74.12234461954222,186.25560673532345)" svgjs:data="{&quot;leading&quot;:&quot;1.3&quot;}"><tspan dy="0" x="54.90154642456008" svgjs:data="{&quot;newLined&quot;:true}">PLAYER</tspan></text><image width="760" height="401" xlink:href="https://lct-designs.s3.us-west-1.amazonaws.com/assets/libs/new-york-mets-baseball-banner-1641953965316.png" class="asset" transform="matrix(0.07400134771050482,0,0,0.07400134771050482,145.4111663291387,218.63472275151253)"></image><text fill="#a90f0f" font-family="Supersonic Rocketship" font-size="45" stroke-opacity="1" stroke-width="1" stroke="#fdfcfc" x="54.90154642456008" y="202.01522374115754" transform="matrix(0.25308618650949377,0,0,0.25308618650949377,191.83791437481344,186.25559080951274)" svgjs:data="{&quot;leading&quot;:&quot;1.3&quot;}"><tspan dy="0" x="54.90154642456008" svgjs:data="{&quot;newLined&quot;:true}">PLAYER</tspan></text><image width="760" height="401" xlink:href="https://lct-designs.s3.us-west-1.amazonaws.com/assets/libs/new-york-mets-baseball-banner-1641953965316.png" class="asset" transform="matrix(0.07400137881560376,0,0,0.07400137881560376,258.0985236814049,218.6347068257018)"></image><image width="760" height="401" xlink:href="https://lct-designs.s3.us-west-1.amazonaws.com/assets/libs/new-york-mets-baseball-banner-1641953965316.png" class="asset" transform="matrix(0.07400129327658167,0,0,0.07400129327658167,27.527977416694284,255.50891475167373)"></image><text fill="#a90f0f" font-family="Supersonic Rocketship" font-size="45" stroke-opacity="1" stroke-width="1" stroke="#fdfcfc" x="54.90154642456008" y="202.01522374115754" transform="matrix(0.25308618650949377,0,0,0.25308618650949377,73.95472148091629,223.12979873548466)" svgjs:data="{&quot;leading&quot;:&quot;1.3&quot;}"><tspan dy="0" x="54.90154642456008" svgjs:data="{&quot;newLined&quot;:true}">PLAYER</tspan></text><image width="760" height="401" xlink:href="https://lct-designs.s3.us-west-1.amazonaws.com/assets/libs/new-york-mets-baseball-banner-1641953965316.png" class="asset" transform="matrix(0.07400135548677955,0,0,0.07400135548677955,145.24354717196547,255.50891475167373)"></image><text fill="#a90f0f" font-family="Supersonic Rocketship" font-size="45" stroke-opacity="1" stroke-width="1" stroke="#fdfcfc" x="54.90154642456008" y="202.01522374115754" transform="matrix(0.25308618650949377,0,0,0.25308618650949377,191.67029521764016,223.12978280967394)" svgjs:data="{&quot;leading&quot;:&quot;1.3&quot;}"><tspan dy="0" x="54.90154642456008" svgjs:data="{&quot;newLined&quot;:true}">PLAYER</tspan></text><image width="760" height="401" xlink:href="https://lct-designs.s3.us-west-1.amazonaws.com/assets/libs/new-york-mets-baseball-banner-1641953965316.png" class="asset" transform="matrix(0.07400138659187849,0,0,0.07400138659187849,257.93090452423166,255.50891475167373)"></image><text fill="#a90f0f" font-family="Supersonic Rocketship" font-size="45" stroke-opacity="1" stroke-width="1" stroke="#fdfcfc" x="54.90154642456008" y="202.01522374115754" transform="matrix(0.25308618650949377,0,0,0.25308618650949377,304.3576844215277,223.12979873548466)" svgjs:data="{&quot;leading&quot;:&quot;1.3&quot;}"><tspan dy="0" x="54.90154642456008" svgjs:data="{&quot;newLined&quot;:true}">PLAYER</tspan></text><text fill="#a90f0f" font-family="Supersonic Rocketship" font-size="45" stroke-opacity="1" stroke-width="1" stroke="#fdfcfc" x="54.90154642456008" y="202.01522374115754" transform="matrix(0.25308624871969165,0,0,0.25308624871969165,303.0281977478153,188.3581163325543)" svgjs:data="{&quot;leading&quot;:&quot;1.3&quot;}"><tspan dy="0" x="54.90154642456008" svgjs:data="{&quot;newLined&quot;:true}">PLAYER</tspan></text><g class="mask" style="pointer-events: none;"><g><path fill="#BCBEC0" d="M-3642.4-2101.7v4589.1h7813.4v-4589.1H-3642.4z M500.5,67.2v233.3v66.7H0.5v-66.7V67.2V0.5h500V67.2z" transform="matrix(1,0,0,1,0,0)"></path><g transform="matrix(1,0,0,1,0,0)">
	<rect x="0.5" y="300.5" opacity="0.95" fill="#F1F2F2" width="500" height="66.7"></rect>
	<rect x="0.5" y="0.5" opacity="0.95" fill="#F1F2F2" width="500" height="66.7"></rect>
</g></g></g></svg>