<svg xmlns="http://www.w3.org/2000/svg" version="1.1" xmlns:xlink="http://www.w3.org/1999/xlink" xmlns:svgjs="http://svgjs.dev/svgjs" width="100%" height="100%" viewBox="1 1 499 365.70001220703125" preserveAspectRatio="none" data-info="{&quot;_id&quot;:4,&quot;name&quot;:&quot;POLE POCKET SOCCER BANNERS&quot;,&quot;information&quot;:&quot;- Size: 3’x5’\n- Material: heavy duty vinyl banner\n- Digitally printed on vinyl&quot;,&quot;price&quot;:&quot;95.00&quot;,&quot;sale_price&quot;:&quot;89.99&quot;,&quot;type&quot;:&quot;pole-pocket&quot;,&quot;cover&quot;:{&quot;key&quot;:&quot;assets/models/pole-1628062864266-1631924568908.png&quot;,&quot;url&quot;:&quot;https://lct-designs.s3.us-west-1.amazonaws.com/assets/models/pole-1628062864266-1631924568908.png&quot;},&quot;back&quot;:{&quot;key&quot;:&quot;assets/models/pole-1631924700152.svg&quot;,&quot;url&quot;:&quot;https://lct-designs.s3.us-west-1.amazonaws.com/assets/models/pole-1631924700152.svg&quot;},&quot;mask&quot;:{&quot;key&quot;:&quot;assets/models/pole-mask-1631925211715.svg&quot;,&quot;url&quot;:&quot;https://lct-designs.s3.us-west-1.amazonaws.com/assets/models/pole-mask-1631925211715.svg&quot;},&quot;pos&quot;:&quot;2&quot;,&quot;accessories&quot;:&quot;2,3&quot;}" style="background-color: white;"><g class="model" style="pointer-events: none;"><polygon fill="#FFFFFF" points="0.5,0.5 0.5,67.2 0.5,300.5 0.5,367.2 500.5,367.2 500.5,300.5 500.5,67.2 500.5,0.5 "></polygon></g><image width="760" height="553" xlink:href="https://lct-designs.s3.us-west-1.amazonaws.com/assets/libs/houston-astros-2-baseball-banner-1641872873379.png" class="asset background locked" transform="matrix(0.6631103294883024,0,0,0.6631103294883024,0,0)"></image><text fill="#0d0d0d" font-family="Impact" font-size="45" x="192.06642438162737" y="201.88927563680983" stroke-opacity="1" stroke-width="1" stroke="#f7f7f7" transform="matrix(0.2839634418487549,0,0,0.2839634418487549,248.64088439941406,33.28744888305664)" svgjs:data="{&quot;leading&quot;:&quot;1.3&quot;}"><tspan dy="0" x="192.06642438162737" svgjs:data="{&quot;newLined&quot;:true}">Coach: Coach's name</tspan></text><image width="760" height="760" xlink:href="https://lct-designs.s3.us-west-1.amazonaws.com/assets/libs/houston-baseball-banner-1641872975026.png" class="asset" transform="matrix(0.16722874343395233,0,0,0.16722874343395233,99.014762878418,88.39828491210938)"></image><image width="653" height="760" xlink:href="https://lct-designs.s3.us-west-1.amazonaws.com/assets/libs/houston-astros-2-baseball-banner-1641872950260.png" class="asset" transform="matrix(0.15912650525569916,0,0,0.15912650525569916,13.689694404602058,163.52307128906253)"></image><image width="760" height="230" xlink:href="https://lct-designs.s3.us-west-1.amazonaws.com/assets/libs/houston-astros-2-baseball-banner-1641872992015.png" class="asset" transform="matrix(0.06931576132774353,0,0,0.06931576132774353,302.2167053222656,111.56692504882812)"></image><text fill="#f9f5f5" font-family="Impact" font-size="45" stroke-opacity="1" stroke-width="2" stroke="#0a0a0a" x="187.90310282104446" y="202.01522374115754" transform="matrix(0.28092139959335327,0,0,0.28092139959335327,253.9298858642578,83.91516876220703)" svgjs:data="{&quot;leading&quot;:&quot;1.3&quot;}"><tspan dy="0" x="187.90310282104446" svgjs:data="{&quot;newLined&quot;:true}">PLAYER</tspan></text><image width="760" height="230" xlink:href="https://lct-designs.s3.us-west-1.amazonaws.com/assets/libs/houston-astros-2-baseball-banner-1641872992015.png" class="asset" transform="matrix(0.06931576132774353,0,0,0.06931576132774353,370.62802124023443,111.56692504882812)"></image><text fill="#f9f5f5" font-family="Impact" font-size="45" stroke-opacity="1" stroke-width="2" stroke="#0a0a0a" x="187.90310282104446" y="202.01522374115754" transform="matrix(0.2809214591979981,0,0,0.28092145919799805,322.3412170410157,83.91516876220703)" svgjs:data="{&quot;leading&quot;:&quot;1.3&quot;}"><tspan dy="0" x="187.90310282104446" svgjs:data="{&quot;newLined&quot;:true}">PLAYER</tspan></text><image width="760" height="230" xlink:href="https://lct-designs.s3.us-west-1.amazonaws.com/assets/libs/houston-astros-2-baseball-banner-1641872992015.png" class="asset" transform="matrix(0.06931576132774353,0,0,0.06931576132774353,437.1155090332032,112.52886199951175)"></image><text fill="#f9f5f5" font-family="Impact" font-size="45" stroke-opacity="1" stroke-width="2" stroke="#0a0a0a" x="187.90310282104446" y="202.01522374115754" transform="matrix(0.2809214591979981,0,0,0.28092145919799805,388.82870483398443,84.8770980834961)" svgjs:data="{&quot;leading&quot;:&quot;1.3&quot;}"><tspan dy="0" x="187.90310282104446" svgjs:data="{&quot;newLined&quot;:true}">PLAYER</tspan></text><image width="760" height="230" xlink:href="https://lct-designs.s3.us-west-1.amazonaws.com/assets/libs/houston-astros-2-baseball-banner-1641872992015.png" class="asset" transform="matrix(0.06931576132774353,0,0,0.06931576132774353,301.74874877929693,157.13441467285156)"></image><text fill="#f9f5f5" font-family="Impact" font-size="45" stroke-opacity="1" stroke-width="2" stroke="#0a0a0a" x="187.90310282104446" y="202.01522374115754" transform="matrix(0.28092139959335327,0,0,0.28092139959335327,253.4619140625,129.482666015625)" svgjs:data="{&quot;leading&quot;:&quot;1.3&quot;}"><tspan dy="0" x="187.90310282104446" svgjs:data="{&quot;newLined&quot;:true}">PLAYER</tspan></text><image width="760" height="230" xlink:href="https://lct-designs.s3.us-west-1.amazonaws.com/assets/libs/houston-astros-2-baseball-banner-1641872992015.png" class="asset" transform="matrix(0.06931576132774353,0,0,0.06931576132774353,370.1600646972656,157.13441467285156)"></image><text fill="#f9f5f5" font-family="Impact" font-size="45" stroke-opacity="1" stroke-width="2" stroke="#0a0a0a" x="187.90310282104446" y="202.01522374115754" transform="matrix(0.2809214591979981,0,0,0.28092145919799805,321.8732604980469,129.482666015625)" svgjs:data="{&quot;leading&quot;:&quot;1.3&quot;}"><tspan dy="0" x="187.90310282104446" svgjs:data="{&quot;newLined&quot;:true}">PLAYER</tspan></text><image width="760" height="230" xlink:href="https://lct-designs.s3.us-west-1.amazonaws.com/assets/libs/houston-astros-2-baseball-banner-1641872992015.png" class="asset" transform="matrix(0.06931576132774353,0,0,0.06931576132774353,436.64755249023443,158.0963592529297)"></image><text fill="#f9f5f5" font-family="Impact" font-size="45" stroke-opacity="1" stroke-width="2" stroke="#0a0a0a" x="187.90310282104446" y="202.01522374115754" transform="matrix(0.2809214591979981,0,0,0.28092145919799805,388.3607482910157,130.4445953369141)" svgjs:data="{&quot;leading&quot;:&quot;1.3&quot;}"><tspan dy="0" x="187.90310282104446" svgjs:data="{&quot;newLined&quot;:true}">PLAYER</tspan></text><image width="760" height="230" xlink:href="https://lct-designs.s3.us-west-1.amazonaws.com/assets/libs/houston-astros-2-baseball-banner-1641872992015.png" class="asset" transform="matrix(0.06931576132774353,0,0,0.06931576132774353,298.669921875,200.85457611083987)"></image><text fill="#f9f5f5" font-family="Impact" font-size="45" stroke-opacity="1" stroke-width="2" stroke="#0a0a0a" x="187.90310282104446" y="202.01522374115754" transform="matrix(0.28092139959335327,0,0,0.28092139959335327,250.38308715820312,173.20281982421878)" svgjs:data="{&quot;leading&quot;:&quot;1.3&quot;}"><tspan dy="0" x="187.90310282104446" svgjs:data="{&quot;newLined&quot;:true}">PLAYER</tspan></text><image width="760" height="230" xlink:href="https://lct-designs.s3.us-west-1.amazonaws.com/assets/libs/houston-astros-2-baseball-banner-1641872992015.png" class="asset" transform="matrix(0.06931576132774353,0,0,0.06931576132774353,367.0812377929688,200.85457611083987)"></image><text fill="#f9f5f5" font-family="Impact" font-size="45" stroke-opacity="1" stroke-width="2" stroke="#0a0a0a" x="187.90310282104446" y="202.01522374115754" transform="matrix(0.2809214591979981,0,0,0.28092145919799805,318.79443359375006,173.20281982421878)" svgjs:data="{&quot;leading&quot;:&quot;1.3&quot;}"><tspan dy="0" x="187.90310282104446" svgjs:data="{&quot;newLined&quot;:true}">PLAYER</tspan></text><image width="760" height="230" xlink:href="https://lct-designs.s3.us-west-1.amazonaws.com/assets/libs/houston-astros-2-baseball-banner-1641872992015.png" class="asset" transform="matrix(0.06931576132774353,0,0,0.06931576132774353,433.56872558593756,201.81651306152347)"></image><text fill="#f9f5f5" font-family="Impact" font-size="45" stroke-opacity="1" stroke-width="2" stroke="#0a0a0a" x="187.90310282104446" y="202.01522374115754" transform="matrix(0.2809214591979981,0,0,0.28092145919799805,385.2819213867188,174.1647491455078)" svgjs:data="{&quot;leading&quot;:&quot;1.3&quot;}"><tspan dy="0" x="187.90310282104446" svgjs:data="{&quot;newLined&quot;:true}">PLAYER</tspan></text><image width="760" height="230" xlink:href="https://lct-designs.s3.us-west-1.amazonaws.com/assets/libs/houston-astros-2-baseball-banner-1641872992015.png" class="asset" transform="matrix(0.06931576132774353,0,0,0.06931576132774353,298.2019653320313,246.4220657348633)"></image><text fill="#f9f5f5" font-family="Impact" font-size="45" stroke-opacity="1" stroke-width="2" stroke="#0a0a0a" x="187.90310282104446" y="202.01522374115754" transform="matrix(0.28092139959335327,0,0,0.28092139959335327,249.91513061523438,218.77031707763675)" svgjs:data="{&quot;leading&quot;:&quot;1.3&quot;}"><tspan dy="0" x="187.90310282104446" svgjs:data="{&quot;newLined&quot;:true}">PLAYER</tspan></text><image width="760" height="230" xlink:href="https://lct-designs.s3.us-west-1.amazonaws.com/assets/libs/houston-astros-2-baseball-banner-1641872992015.png" class="asset" transform="matrix(0.06931576132774353,0,0,0.06931576132774353,366.61328125000006,246.4220657348633)"></image><text fill="#f9f5f5" font-family="Impact" font-size="45" stroke-opacity="1" stroke-width="2" stroke="#0a0a0a" x="187.90310282104446" y="202.01522374115754" transform="matrix(0.2809214591979981,0,0,0.28092145919799805,318.32647705078125,218.77031707763675)" svgjs:data="{&quot;leading&quot;:&quot;1.3&quot;}"><tspan dy="0" x="187.90310282104446" svgjs:data="{&quot;newLined&quot;:true}">PLAYER</tspan></text><image width="760" height="230" xlink:href="https://lct-designs.s3.us-west-1.amazonaws.com/assets/libs/houston-astros-2-baseball-banner-1641872992015.png" class="asset" transform="matrix(0.06931576132774353,0,0,0.06931576132774353,433.1007690429688,247.38401031494143)"></image><text fill="#f9f5f5" font-family="Impact" font-size="45" stroke-opacity="1" stroke-width="2" stroke="#0a0a0a" x="187.90310282104446" y="202.01522374115754" transform="matrix(0.2809214591979981,0,0,0.28092145919799805,384.81396484375006,219.7322463989258)" svgjs:data="{&quot;leading&quot;:&quot;1.3&quot;}"><tspan dy="0" x="187.90310282104446" svgjs:data="{&quot;newLined&quot;:true}">PLAYER</tspan></text><g class="mask" style="pointer-events: none;"><g><path fill="#BCBEC0" d="M-3642.4-2101.7v4589.1h7813.4v-4589.1H-3642.4z M500.5,67.2v233.3v66.7H0.5v-66.7V67.2V0.5h500V67.2z" transform="matrix(1,0,0,1,0,0)"></path><g transform="matrix(1,0,0,1,0,0)">
	<rect x="0.5" y="300.5" opacity="0.95" fill="#F1F2F2" width="500" height="66.7"></rect>
	<rect x="0.5" y="0.5" opacity="0.95" fill="#F1F2F2" width="500" height="66.7"></rect>
</g></g></g></svg>