<svg xmlns="http://www.w3.org/2000/svg" version="1.1" xmlns:xlink="http://www.w3.org/1999/xlink" xmlns:svgjs="http://svgjs.dev/svgjs" width="100%" height="100%" viewBox="1 1 499 365.70001220703125" preserveAspectRatio="none" data-info="{&quot;_id&quot;:4,&quot;name&quot;:&quot;POLE POCKET SOCCER BANNERS&quot;,&quot;information&quot;:&quot;- Size: 3’x5’\n- Material: heavy duty vinyl banner\n- Digitally printed on vinyl&quot;,&quot;price&quot;:&quot;95.00&quot;,&quot;sale_price&quot;:&quot;89.99&quot;,&quot;type&quot;:&quot;pole-pocket&quot;,&quot;cover&quot;:{&quot;key&quot;:&quot;assets/models/pole-1628062864266-1631924568908.png&quot;,&quot;url&quot;:&quot;https://lct-designs.s3.us-west-1.amazonaws.com/assets/models/pole-1628062864266-1631924568908.png&quot;},&quot;back&quot;:{&quot;key&quot;:&quot;assets/models/pole-1631924700152.svg&quot;,&quot;url&quot;:&quot;https://lct-designs.s3.us-west-1.amazonaws.com/assets/models/pole-1631924700152.svg&quot;},&quot;mask&quot;:{&quot;key&quot;:&quot;assets/models/pole-mask-1631925211715.svg&quot;,&quot;url&quot;:&quot;https://lct-designs.s3.us-west-1.amazonaws.com/assets/models/pole-mask-1631925211715.svg&quot;},&quot;pos&quot;:&quot;2&quot;,&quot;accessories&quot;:&quot;2,3&quot;}" style="background-color: white;"><g class="model" style="pointer-events: none;"><polygon fill="#FFFFFF" points="0.5,0.5 0.5,67.2 0.5,300.5 0.5,367.2 500.5,367.2 500.5,300.5 500.5,67.2 500.5,0.5 "></polygon></g><image width="760" height="556" xlink:href="https://lct-designs.s3.us-west-1.amazonaws.com/assets/libs/astros-baseball-banner-1645065351485.png" class="asset background locked" transform="matrix(0.6595323960558116,0,0,0.6595323960558116,0,0)"></image><text fill="#0d0d0d" font-family="Impact" font-size="45" x="192.06642438162737" y="201.88927563680983" stroke-opacity="1" stroke-width="1" stroke="#f7f7f7" transform="matrix(0.3032583892345429,0,0,0.30325838923454285,135.7726287841797,225.54463195800784)" svgjs:data="{&quot;leading&quot;:&quot;1.3&quot;}"><tspan dy="0" x="192.06642438162737" svgjs:data="{&quot;newLined&quot;:true}">Coach: Coach's name</tspan></text><image width="760" height="459" xlink:href="https://lct-designs.s3.us-west-1.amazonaws.com/assets/libs/astros-baseball-banner-1645065386409.png" class="asset" transform="matrix(0.3006121516227723,0,0,0.3006121516227723,148.27584838867188,130.36886596679688)"></image><image width="760" height="726" xlink:href="https://lct-designs.s3.us-west-1.amazonaws.com/assets/libs/astros-baseball-banner-1645065401729.png" class="asset" transform="matrix(0.05150825902819634,0,0,0.05011865124106407,367.0197143554688,95.56135559082031)"></image><text fill="#f7f7f7" font-family="Impact" font-size="45" stroke-opacity="1" stroke-width="1" stroke="#121212" x="187.90310282104446" y="202.01522374115754" transform="matrix(0.273640662431717,0,0,0.2736406624317169,227.49850463867188,69.47003936767578)" svgjs:data="{&quot;leading&quot;:&quot;1.3&quot;}"><tspan dy="0" x="187.90310282104446" svgjs:data="{&quot;newLined&quot;:true}">PLAYER</tspan></text><image width="760" height="726" xlink:href="https://lct-designs.s3.us-west-1.amazonaws.com/assets/libs/astros-baseball-banner-1645065401729.png" class="asset" transform="matrix(0.05150825902819634,0,0,0.05011865124106407,276.3547058105469,77.70382690429688)"></image><text fill="#f7f7f7" font-family="Impact" font-size="45" stroke-opacity="1" stroke-width="1" stroke="#121212" x="187.90310282104446" y="202.01522374115754" transform="matrix(0.273640662431717,0,0,0.2736406624317169,318.16351318359375,87.32756805419925)" svgjs:data="{&quot;leading&quot;:&quot;1.3&quot;}"><tspan dy="0" x="187.90310282104446" svgjs:data="{&quot;newLined&quot;:true}">PLAYER</tspan></text><image width="760" height="726" xlink:href="https://lct-designs.s3.us-west-1.amazonaws.com/assets/libs/astros-baseball-banner-1645065401729.png" class="asset" transform="matrix(0.05150825902819634,0,0,0.05011865124106407,371.1576538085938,237.19004821777347)"></image><text fill="#f7f7f7" font-family="Impact" font-size="45" stroke-opacity="1" stroke-width="1" stroke="#121212" x="187.90310282104446" y="202.01522374115754" transform="matrix(0.273640662431717,0,0,0.2736406624317169,322.3014526367188,228.9562683105469)" svgjs:data="{&quot;leading&quot;:&quot;1.3&quot;}"><tspan dy="0" x="187.90310282104446" svgjs:data="{&quot;newLined&quot;:true}">PLAYER</tspan></text><image width="760" height="726" xlink:href="https://lct-designs.s3.us-west-1.amazonaws.com/assets/libs/astros-baseball-banner-1645065401729.png" class="asset" transform="matrix(0.05150825902819634,0,0,0.05011865124106407,434.28573608398443,118.34510803222659)"></image><text fill="#f7f7f7" font-family="Impact" font-size="45" stroke-opacity="1" stroke-width="1" stroke="#121212" x="187.90310282104446" y="202.01522374115754" transform="matrix(0.273640662431717,0,0,0.2736406624317169,385.42953491210943,110.11132049560547)" svgjs:data="{&quot;leading&quot;:&quot;1.3&quot;}"><tspan dy="0" x="187.90310282104446" svgjs:data="{&quot;newLined&quot;:true}">PLAYER</tspan></text><image width="760" height="726" xlink:href="https://lct-designs.s3.us-west-1.amazonaws.com/assets/libs/astros-baseball-banner-1645065401729.png" class="asset" transform="matrix(0.05150825902819634,0,0,0.05011865124106407,436.89657592773443,187.31211853027347)"></image><text fill="#f7f7f7" font-family="Impact" font-size="45" stroke-opacity="1" stroke-width="1" stroke="#121212" x="187.90310282104446" y="202.01522374115754" transform="matrix(0.273640662431717,0,0,0.2736406624317169,388.04037475585943,179.0783386230469)" svgjs:data="{&quot;leading&quot;:&quot;1.3&quot;}"><tspan dy="0" x="187.90310282104446" svgjs:data="{&quot;newLined&quot;:true}">PLAYER</tspan></text><image width="760" height="726" xlink:href="https://lct-designs.s3.us-west-1.amazonaws.com/assets/libs/astros-baseball-banner-1645065401729.png" class="asset" transform="matrix(0.05150825902819634,0,0,0.05011865124106407,19.408905029296882,128.19754028320312)"></image><text fill="#f7f7f7" font-family="Impact" font-size="45" stroke-opacity="1" stroke-width="1" stroke="#121212" x="187.90310282104446" y="202.01522374115754" transform="matrix(0.273640662431717,0,0,0.2736406624317169,-29.447296142578125,119.96375274658206)" svgjs:data="{&quot;leading&quot;:&quot;1.3&quot;}"><tspan dy="0" x="187.90310282104446" svgjs:data="{&quot;newLined&quot;:true}">PLAYER</tspan></text><image width="760" height="726" xlink:href="https://lct-designs.s3.us-west-1.amazonaws.com/assets/libs/astros-baseball-banner-1645065401729.png" class="asset" transform="matrix(0.05150825902819634,0,0,0.05011865124106407,22.019744873046882,197.16455078124997)"></image><text fill="#f7f7f7" font-family="Impact" font-size="45" stroke-opacity="1" stroke-width="1" stroke="#121212" x="187.90310282104446" y="202.01522374115754" transform="matrix(0.273640662431717,0,0,0.2736406624317169,-26.836456298828125,188.93077087402347)" svgjs:data="{&quot;leading&quot;:&quot;1.3&quot;}"><tspan dy="0" x="187.90310282104446" svgjs:data="{&quot;newLined&quot;:true}">PLAYER</tspan></text><image width="760" height="726" xlink:href="https://lct-designs.s3.us-west-1.amazonaws.com/assets/libs/astros-baseball-banner-1645065401729.png" class="asset" transform="matrix(0.05150825902819634,0,0,0.05011865124106407,82.06896972656251,96.79290771484375)"></image><text fill="#f7f7f7" font-family="Impact" font-size="45" stroke-opacity="1" stroke-width="1" stroke="#121212" x="187.90310282104446" y="202.01522374115754" transform="matrix(0.273640662431717,0,0,0.2736406624317169,33.2127685546875,88.55912017822268)" svgjs:data="{&quot;leading&quot;:&quot;1.3&quot;}"><tspan dy="0" x="187.90310282104446" svgjs:data="{&quot;newLined&quot;:true}">PLAYER</tspan></text><image width="760" height="726" xlink:href="https://lct-designs.s3.us-west-1.amazonaws.com/assets/libs/astros-baseball-banner-1645065401729.png" class="asset" transform="matrix(0.05150825902819634,0,0,0.05011865124106407,86.20690917968751,238.42160034179685)"></image><text fill="#f7f7f7" font-family="Impact" font-size="45" stroke-opacity="1" stroke-width="1" stroke="#121212" x="187.90310282104446" y="202.01522374115754" transform="matrix(0.273640662431717,0,0,0.2736406624317169,37.3507080078125,230.18782043457034)" svgjs:data="{&quot;leading&quot;:&quot;1.3&quot;}"><tspan dy="0" x="187.90310282104446" svgjs:data="{&quot;newLined&quot;:true}">PLAYER</tspan></text><text fill="#f7f7f7" font-family="Impact" font-size="45" stroke-opacity="1" stroke-width="1" stroke="#121212" x="187.90310282104446" y="202.01522374115754" transform="matrix(0.273640662431717,0,0,0.2736406624317169,118.04037475585938,71.31736755371097)" svgjs:data="{&quot;leading&quot;:&quot;1.3&quot;}"><tspan dy="0" x="187.90310282104446" svgjs:data="{&quot;newLined&quot;:true}">PLAYER</tspan></text><image width="760" height="726" xlink:href="https://lct-designs.s3.us-west-1.amazonaws.com/assets/libs/astros-baseball-banner-1645065401729.png" class="asset" transform="matrix(0.05150825902819634,0,0,0.05011865124106407,166.89657592773438,79.55115509033203)"></image><g class="mask" style="pointer-events: none;"><g><path fill="#BCBEC0" d="M-3642.4-2101.7v4589.1h7813.4v-4589.1H-3642.4z M500.5,67.2v233.3v66.7H0.5v-66.7V67.2V0.5h500V67.2z" transform="matrix(1,0,0,1,0,0)"></path><g transform="matrix(1,0,0,1,0,0)">
	<rect x="0.5" y="300.5" opacity="0.95" fill="#F1F2F2" width="500" height="66.7"></rect>
	<rect x="0.5" y="0.5" opacity="0.95" fill="#F1F2F2" width="500" height="66.7"></rect>
</g></g></g></svg>