<svg xmlns="http://www.w3.org/2000/svg" version="1.1" xmlns:xlink="http://www.w3.org/1999/xlink" xmlns:svgjs="http://svgjs.dev/svgjs" width="100%" height="100%" viewBox="1 1 499 365.70001220703125" preserveAspectRatio="none" data-info="{&quot;_id&quot;:4,&quot;name&quot;:&quot;POLE POCKET SOCCER BANNERS&quot;,&quot;information&quot;:&quot;- Size: 3’x5’\n- Material: heavy duty vinyl banner\n- Digitally printed on vinyl&quot;,&quot;price&quot;:&quot;95.00&quot;,&quot;sale_price&quot;:&quot;89.99&quot;,&quot;type&quot;:&quot;pole-pocket&quot;,&quot;cover&quot;:{&quot;key&quot;:&quot;assets/models/pole-1628062864266-1631924568908.png&quot;,&quot;url&quot;:&quot;https://lct-designs.s3.us-west-1.amazonaws.com/assets/models/pole-1628062864266-1631924568908.png&quot;},&quot;back&quot;:{&quot;key&quot;:&quot;assets/models/pole-1631924700152.svg&quot;,&quot;url&quot;:&quot;https://lct-designs.s3.us-west-1.amazonaws.com/assets/models/pole-1631924700152.svg&quot;},&quot;mask&quot;:{&quot;key&quot;:&quot;assets/models/pole-mask-1631925211715.svg&quot;,&quot;url&quot;:&quot;https://lct-designs.s3.us-west-1.amazonaws.com/assets/models/pole-mask-1631925211715.svg&quot;},&quot;pos&quot;:&quot;2&quot;,&quot;accessories&quot;:&quot;2,3&quot;}" style="background-color: white;"><g class="model" style="pointer-events: none;"><polygon fill="#FFFFFF" points="0.5,0.5 0.5,67.2 0.5,300.5 0.5,367.2 500.5,367.2 500.5,300.5 500.5,67.2 500.5,0.5 "></polygon></g><image width="760" height="556" xlink:href="https://lct-designs.s3.us-west-1.amazonaws.com/assets/libs/earthquakes-2-sofball-bg-pole-1644476800411.png" class="asset background locked" transform="matrix(0.6595323960558116,0,0,0.6595323960558116,0,0)"></image><text fill="#ffffff" font-family="Franklin Gothic" font-size="11" x="197.59496431176086" y="187.93020890361393" transform="matrix(1,0,0,1,-181.236328125,-103.28179168701175)" svgjs:data="{&quot;leading&quot;:&quot;1.3&quot;}"><tspan dy="0" x="197.59496431176086" svgjs:data="{&quot;newLined&quot;:true}">COACH: COACH'S NAME</tspan></text><text fill="#ffffff" font-family="Franklin Gothic" font-size="11" x="197.59496431176086" y="187.93020890361393" transform="matrix(1,0,0,1.0000000000000002,142.29388427734375,-103.2817840576172)" svgjs:data="{&quot;leading&quot;:&quot;1.3&quot;}"><tspan dy="0" x="197.59496431176086" svgjs:data="{&quot;newLined&quot;:true}">TEAM MOM: TEAM MOM'S NAME</tspan></text><image width="760" height="419" xlink:href="https://lct-designs.s3.us-west-1.amazonaws.com/assets/libs/earthquakes-2-softball-banner-1640682384612.png" class="asset" transform="matrix(0.3486768901348114,0,0,0.34867689013481135,224.44667053222656,148.96174621582028)"></image><image width="760" height="572" xlink:href="https://lct-designs.s3.us-west-1.amazonaws.com/assets/libs/earthquakes-2-softball-banner-1640682138447.png" class="asset" transform="matrix(0.1912149041891098,0,0,0.19121490418910977,18.63983917236328,181.53637695312497)"></image><image width="760" height="716" xlink:href="https://lct-designs.s3.us-west-1.amazonaws.com/assets/libs/blue-crushes-2-soflball-banner-1639966281996.png" class="asset" transform="matrix(0.04820498451590538,0,0,0.04820498451590537,18.071350097656236,132.2649688720703)"></image><text fill="#ffffff" font-family="Franklin Gothic" font-size="11" x="197.59496431176086" y="187.93020890361393" transform="matrix(1,0,0,0.9999999999999999,-178.62721252441406,-9.472846984863281)" svgjs:data="{&quot;leading&quot;:&quot;1.3&quot;}"><tspan dy="0" x="197.59496431176086" svgjs:data="{&quot;newLined&quot;:true}">PLAYER</tspan></text><image width="760" height="716" xlink:href="https://lct-designs.s3.us-west-1.amazonaws.com/assets/libs/blue-crushes-2-soflball-banner-1639966281996.png" class="asset" transform="matrix(0.04820499941706658,0,0,0.048204999417066574,75.25910186767578,96.44701385498047)"></image><text fill="#ffffff" font-family="Franklin Gothic" font-size="11" x="197.59496431176086" y="187.93020890361393" transform="matrix(1,0,0,0.9999999999999999,-121.43946075439455,-45.290802001953125)" svgjs:data="{&quot;leading&quot;:&quot;1.3&quot;}"><tspan dy="0" x="197.59496431176086" svgjs:data="{&quot;newLined&quot;:true}">PLAYER</tspan></text><image width="760" height="716" xlink:href="https://lct-designs.s3.us-west-1.amazonaws.com/assets/libs/blue-crushes-2-soflball-banner-1639966281996.png" class="asset" transform="matrix(0.048205018043518066,0,0,0.048205018043518066,131.30979919433597,137.95037841796875)"></image><text fill="#ffffff" font-family="Franklin Gothic" font-size="11" x="197.59496431176086" y="187.93020890361393" transform="matrix(1,0,0,0.9999999999999999,-65.38875579833984,-3.7874374389648438)" svgjs:data="{&quot;leading&quot;:&quot;1.3&quot;}"><tspan dy="0" x="197.59496431176086" svgjs:data="{&quot;newLined&quot;:true}">PLAYER</tspan></text><image width="760" height="716" xlink:href="https://lct-designs.s3.us-west-1.amazonaws.com/assets/libs/blue-crushes-2-soflball-banner-1639966281996.png" class="asset" transform="matrix(0.04820501431822776,0,0,0.04820501431822776,196.22343444824216,92.46723937988281)"></image><image width="760" height="716" xlink:href="https://lct-designs.s3.us-west-1.amazonaws.com/assets/libs/blue-crushes-2-soflball-banner-1639966281996.png" class="asset" transform="matrix(0.048205018043518066,0,0,0.048205018043518066,189.06607055664062,171.49415588378906)"></image><text fill="#ffffff" font-family="Franklin Gothic" font-size="11" x="197.59496431176086" y="187.93020890361393" transform="matrix(1,0,0,0.9999999999999999,-7.632484436035163,29.756340026855455)" svgjs:data="{&quot;leading&quot;:&quot;1.3&quot;}"><tspan dy="0" x="197.59496431176086" svgjs:data="{&quot;newLined&quot;:true}">PLAYER</tspan></text><text fill="#ffffff" font-family="Franklin Gothic" font-size="11" x="197.59496431176086" y="187.93020890361393" transform="matrix(1,0,0,0.9999999999999999,-0.47512054443359375,-49.27057647705078)" svgjs:data="{&quot;leading&quot;:&quot;1.3&quot;}"><tspan dy="0" x="197.59496431176086" svgjs:data="{&quot;newLined&quot;:true}">PLAYER</tspan></text><image width="760" height="716" xlink:href="https://lct-designs.s3.us-west-1.amazonaws.com/assets/libs/blue-crushes-2-soflball-banner-1639966281996.png" class="asset" transform="matrix(0.048205021768808365,0,0,0.04820502176880836,267.05584716796875,110.66049957275388)"></image><text fill="#ffffff" font-family="Franklin Gothic" font-size="11" x="197.59496431176086" y="187.93020890361393" transform="matrix(1,0,0,0.9999999999999999,70.35729217529297,-31.077316284179695)" svgjs:data="{&quot;leading&quot;:&quot;1.3&quot;}"><tspan dy="0" x="197.59496431176086" svgjs:data="{&quot;newLined&quot;:true}">PLAYER</tspan></text><image width="760" height="716" xlink:href="https://lct-designs.s3.us-west-1.amazonaws.com/assets/libs/blue-crushes-2-soflball-banner-1639966281996.png" class="asset" transform="matrix(0.048205021768808365,0,0,0.04820502176880836,334.47711181640625,92.46723937988281)"></image><text fill="#ffffff" font-family="Franklin Gothic" font-size="11" x="197.59496431176086" y="187.93020890361393" transform="matrix(1,0,0,0.9999999999999999,137.77855682373047,-49.27057647705078)" svgjs:data="{&quot;leading&quot;:&quot;1.3&quot;}"><tspan dy="0" x="197.59496431176086" svgjs:data="{&quot;newLined&quot;:true}">PLAYER</tspan></text><image width="760" height="716" xlink:href="https://lct-designs.s3.us-west-1.amazonaws.com/assets/libs/blue-crushes-2-soflball-banner-1639966281996.png" class="asset" transform="matrix(0.048205021768808365,0,0,0.04820502176880836,412.70037841796875,107.24925994873047)"></image><text fill="#ffffff" font-family="Franklin Gothic" font-size="11" x="197.59496431176086" y="187.93020890361393" transform="matrix(1,0,0,0.9999999999999999,216.0018310546875,-34.488555908203125)" svgjs:data="{&quot;leading&quot;:&quot;1.3&quot;}"><tspan dy="0" x="197.59496431176086" svgjs:data="{&quot;newLined&quot;:true}">PLAYER</tspan></text><image width="760" height="716" xlink:href="https://lct-designs.s3.us-west-1.amazonaws.com/assets/libs/blue-crushes-2-soflball-banner-1639966281996.png" class="asset" transform="matrix(0.048205021768808365,0,0,0.04820502176880836,450.5581970214844,153.3009262084961)"></image><text fill="#ffffff" font-family="Franklin Gothic" font-size="11" x="197.59496431176086" y="187.93020890361393" transform="matrix(1,0,0,0.9999999999999999,253.85964965820318,11.563110351562486)" svgjs:data="{&quot;leading&quot;:&quot;1.3&quot;}"><tspan dy="0" x="197.59496431176086" svgjs:data="{&quot;newLined&quot;:true}">PLAYER</tspan></text><g class="mask" style="pointer-events: none;"><g><path fill="#BCBEC0" d="M-3642.4-2101.7v4589.1h7813.4v-4589.1H-3642.4z M500.5,67.2v233.3v66.7H0.5v-66.7V67.2V0.5h500V67.2z" transform="matrix(1,0,0,1,0,0)"></path><g transform="matrix(1,0,0,1,0,0)">
	<rect x="0.5" y="300.5" opacity="0.95" fill="#F1F2F2" width="500" height="66.7"></rect>
	<rect x="0.5" y="0.5" opacity="0.95" fill="#F1F2F2" width="500" height="66.7"></rect>
</g></g></g></svg>