<svg xmlns="http://www.w3.org/2000/svg" version="1.1" xmlns:xlink="http://www.w3.org/1999/xlink" xmlns:svgjs="http://svgjs.dev/svgjs" width="100%" height="100%" viewBox="1 1 499 365.70001220703125" preserveAspectRatio="none" data-info="{&quot;_id&quot;:4,&quot;name&quot;:&quot;POLE POCKET SOCCER BANNERS&quot;,&quot;information&quot;:&quot;- Size: 3’x5’\n- Material: heavy duty vinyl banner\n- Digitally printed on vinyl&quot;,&quot;price&quot;:&quot;95.00&quot;,&quot;sale_price&quot;:&quot;89.99&quot;,&quot;type&quot;:&quot;pole-pocket&quot;,&quot;cover&quot;:{&quot;key&quot;:&quot;assets/models/pole-1628062864266-1631924568908.png&quot;,&quot;url&quot;:&quot;https://lct-designs.s3.us-west-1.amazonaws.com/assets/models/pole-1628062864266-1631924568908.png&quot;},&quot;back&quot;:{&quot;key&quot;:&quot;assets/models/pole-1631924700152.svg&quot;,&quot;url&quot;:&quot;https://lct-designs.s3.us-west-1.amazonaws.com/assets/models/pole-1631924700152.svg&quot;},&quot;mask&quot;:{&quot;key&quot;:&quot;assets/models/pole-mask-1631925211715.svg&quot;,&quot;url&quot;:&quot;https://lct-designs.s3.us-west-1.amazonaws.com/assets/models/pole-mask-1631925211715.svg&quot;},&quot;pos&quot;:&quot;2&quot;,&quot;accessories&quot;:&quot;2,3&quot;}" style="background-color: white;"><g class="model" style="pointer-events: none;"><polygon fill="#FFFFFF" points="0.5,0.5 0.5,67.2 0.5,300.5 0.5,367.2 500.5,367.2 500.5,300.5 500.5,67.2 500.5,0.5 "></polygon></g><image width="760" height="553" xlink:href="https://lct-designs.s3.us-west-1.amazonaws.com/assets/libs/diamond-black-2-baseball-banner-1644812315945.png" class="asset background locked" transform="matrix(0.6631103294883024,0,0,0.6631103294883024,0,0)"></image><text fill="#ffffff" font-family="Antilles" font-size="33" stroke-opacity="1" stroke-width="1" stroke="#000000" x="192.64244534681094" y="188.8290392676606" transform="matrix(0.5157687664031982,0,0,0.5157687664031982,-87.53413391113281,-11.366254806518555)" svgjs:data="{&quot;leading&quot;:&quot;1.3&quot;}"><tspan dy="0" x="192.64244534681094" svgjs:data="{&quot;newLined&quot;:true}">       COACH: COACH'S NAME</tspan><tspan dy="42.9" x="192.64244534681094" svgjs:data="{&quot;newLined&quot;:true}"></tspan></text><text fill="#ffffff" font-family="Antilles" font-size="33" stroke-opacity="1" stroke-width="1" stroke="#000000" x="192.64244534681094" y="188.8290392676606" transform="matrix(0.5157687664031982,0,0,0.5157687664031982,204.43649291992188,-12.41448116302491)" svgjs:data="{&quot;leading&quot;:&quot;1.3&quot;}"><tspan dy="0" x="192.64244534681094" svgjs:data="{&quot;newLined&quot;:true}">TEAM MOM: TEAM MOM'S NAME</tspan></text><text fill="#ffffff" font-family="Antilles" font-size="40" x="231.64330556104434" y="188.82903717637487" stroke-opacity="1" stroke-width="1" stroke="#000000" transform="matrix(0.4157278835773468,0,0,0.41572788357734675,203.37530517578125,57.92819213867186)" svgjs:data="{&quot;leading&quot;:&quot;1.3&quot;}"><tspan dy="0" x="231.64330556104434" svgjs:data="{&quot;newLined&quot;:true}">player</tspan></text><image width="734" height="760" xlink:href="https://lct-designs.s3.us-west-1.amazonaws.com/assets/libs/diamond-black-2-baseball-banner-1644287527560.png" class="asset" transform="matrix(0.04261951148509979,0,0,0.042619511485099786,305.0887756347656,90.89717864990233)"></image><image width="760" height="564" xlink:href="https://lct-designs.s3.us-west-1.amazonaws.com/assets/libs/diamond-black-5-baseball-banner-1640685357849.png" class="asset" transform="matrix(0.24587729573249814,0,0,0.24587729573249814,136.5828094482422,81.77932739257814)"></image><image width="461" height="760" xlink:href="https://lct-designs.s3.us-west-1.amazonaws.com/assets/libs/diamond-black-2-baseball-banner-1644287463527.png" class="asset" transform="matrix(0.2557083070278168,0,0,0.2557083070278167,19.98554229736328,92.99360656738277)"></image><text fill="#ffffff" font-family="Antilles" font-size="40" x="231.64330556104434" y="188.82903717637487" stroke-opacity="1" stroke-width="1" stroke="#000000" transform="matrix(0.4157278835773468,0,0,0.41572788357734675,36.47804260253906,211.49212646484375)" svgjs:data="{&quot;leading&quot;:&quot;1.3&quot;}"><tspan dy="0" x="231.64330556104434" svgjs:data="{&quot;newLined&quot;:true}">player</tspan></text><image width="734" height="760" xlink:href="https://lct-designs.s3.us-west-1.amazonaws.com/assets/libs/diamond-black-2-baseball-banner-1644287527560.png" class="asset" transform="matrix(0.04261951148509979,0,0,0.042619511485099786,138.19151306152344,244.4611206054687)"></image><text fill="#ffffff" font-family="Antilles" font-size="40" x="231.64330556104434" y="188.82903717637487" stroke-opacity="1" stroke-width="1" stroke="#000000" transform="matrix(0.4157278835773468,0,0,0.41572788357734675,264.7379760742187,57.92819213867186)" svgjs:data="{&quot;leading&quot;:&quot;1.3&quot;}"><tspan dy="0" x="231.64330556104434" svgjs:data="{&quot;newLined&quot;:true}">player</tspan></text><image width="734" height="760" xlink:href="https://lct-designs.s3.us-west-1.amazonaws.com/assets/libs/diamond-black-2-baseball-banner-1644287527560.png" class="asset" transform="matrix(0.04261951148509979,0,0,0.042619511485099786,366.4514465332031,90.89717864990233)"></image><text fill="#ffffff" font-family="Antilles" font-size="40" x="231.64330556104434" y="188.82903717637487" stroke-opacity="1" stroke-width="1" stroke="#000000" transform="matrix(0.4157278835773468,0,0,0.41572788357734675,328.7212219238281,57.92819213867186)" svgjs:data="{&quot;leading&quot;:&quot;1.3&quot;}"><tspan dy="0" x="231.64330556104434" svgjs:data="{&quot;newLined&quot;:true}">player</tspan></text><image width="734" height="760" xlink:href="https://lct-designs.s3.us-west-1.amazonaws.com/assets/libs/diamond-black-2-baseball-banner-1644287527560.png" class="asset" transform="matrix(0.04261951148509979,0,0,0.042619511485099786,430.4346923828125,90.89717864990233)"></image><text fill="#ffffff" font-family="Antilles" font-size="40" x="231.64330556104434" y="188.82903717637487" stroke-opacity="1" stroke-width="1" stroke="#000000" transform="matrix(0.4157278835773468,0,0,0.41572788357734675,234.42352294921875,115.05607604980464)" svgjs:data="{&quot;leading&quot;:&quot;1.3&quot;}"><tspan dy="0" x="231.64330556104434" svgjs:data="{&quot;newLined&quot;:true}">player</tspan></text><image width="734" height="760" xlink:href="https://lct-designs.s3.us-west-1.amazonaws.com/assets/libs/diamond-black-2-baseball-banner-1644287527560.png" class="asset" transform="matrix(0.04261951148509979,0,0,0.042619511485099786,336.1369934082031,148.02506256103516)"></image><text fill="#ffffff" font-family="Antilles" font-size="40" x="231.64330556104434" y="188.82903717637487" stroke-opacity="1" stroke-width="1" stroke="#000000" transform="matrix(0.4157278835773468,0,0,0.41572788357734675,303.12371826171875,114.00785827636717)" svgjs:data="{&quot;leading&quot;:&quot;1.3&quot;}"><tspan dy="0" x="231.64330556104434" svgjs:data="{&quot;newLined&quot;:true}">player</tspan></text><image width="734" height="760" xlink:href="https://lct-designs.s3.us-west-1.amazonaws.com/assets/libs/diamond-black-2-baseball-banner-1644287527560.png" class="asset" transform="matrix(0.04261951148509979,0,0,0.042619511485099786,404.8371887207031,146.97685241699213)"></image><text fill="#ffffff" font-family="Antilles" font-size="40" x="231.64330556104434" y="188.82903717637487" stroke-opacity="1" stroke-width="1" stroke="#000000" transform="matrix(0.4157278835773468,0,0,0.41572788357734675,348.7631530761719,163.27410888671875)" svgjs:data="{&quot;leading&quot;:&quot;1.3&quot;}"><tspan dy="0" x="231.64330556104434" svgjs:data="{&quot;newLined&quot;:true}">player</tspan></text><image width="734" height="760" xlink:href="https://lct-designs.s3.us-west-1.amazonaws.com/assets/libs/diamond-black-2-baseball-banner-1644287527560.png" class="asset" transform="matrix(0.04261951148509979,0,0,0.042619511485099786,450.47662353515625,196.24310302734375)"></image><text fill="#ffffff" font-family="Antilles" font-size="40" x="231.64330556104434" y="188.82903717637487" stroke-opacity="1" stroke-width="1" stroke="#000000" transform="matrix(0.4157278835773468,0,0,0.41572788357734675,268.61639404296875,163.27410888671875)" svgjs:data="{&quot;leading&quot;:&quot;1.3&quot;}"><tspan dy="0" x="231.64330556104434" svgjs:data="{&quot;newLined&quot;:true}">player</tspan></text><image width="734" height="760" xlink:href="https://lct-designs.s3.us-west-1.amazonaws.com/assets/libs/diamond-black-2-baseball-banner-1644287527560.png" class="asset" transform="matrix(0.04261951148509979,0,0,0.042619511485099786,370.3298645019531,196.24310302734375)"></image><text fill="#ffffff" font-family="Antilles" font-size="40" x="231.64330556104434" y="188.82903717637487" stroke-opacity="1" stroke-width="1" stroke="#000000" transform="matrix(0.4157278835773468,0,0,0.41572788357734675,98.88894653320311,212.0162352323532)" svgjs:data="{&quot;leading&quot;:&quot;1.3&quot;}"><tspan dy="0" x="231.64330556104434" svgjs:data="{&quot;newLined&quot;:true}">player</tspan></text><image width="734" height="760" xlink:href="https://lct-designs.s3.us-west-1.amazonaws.com/assets/libs/diamond-black-2-baseball-banner-1644287527560.png" class="asset" transform="matrix(0.04261951148509979,0,0,0.042619511485099786,200.6024169921875,244.98522937297815)"></image><text fill="#ffffff" font-family="Antilles" font-size="40" x="231.64330556104434" y="188.82903717637487" stroke-opacity="1" stroke-width="1" stroke="#000000" transform="matrix(0.4157278835773468,0,0,0.41572788357734675,166.01681518554688,212.0162353515625)" svgjs:data="{&quot;leading&quot;:&quot;1.3&quot;}"><tspan dy="0" x="231.64330556104434" svgjs:data="{&quot;newLined&quot;:true}">player</tspan></text><image width="734" height="760" xlink:href="https://lct-designs.s3.us-west-1.amazonaws.com/assets/libs/diamond-black-2-baseball-banner-1644287527560.png" class="asset" transform="matrix(0.04261951148509979,0,0,0.042619511485099786,267.7302856445312,244.98522949218744)"></image><text fill="#ffffff" font-family="Antilles" font-size="40" x="231.64330556104434" y="188.82903717637487" stroke-opacity="1" stroke-width="1" stroke="#000000" transform="matrix(0.4157278835773468,0,0,0.41572788357734675,232.62060546875,212.0162353515625)" svgjs:data="{&quot;leading&quot;:&quot;1.3&quot;}"><tspan dy="0" x="231.64330556104434" svgjs:data="{&quot;newLined&quot;:true}">player</tspan></text><image width="734" height="760" xlink:href="https://lct-designs.s3.us-west-1.amazonaws.com/assets/libs/diamond-black-2-baseball-banner-1644287527560.png" class="asset" transform="matrix(0.04261951148509979,0,0,0.042619511485099786,334.3340759277344,244.98522949218744)"></image><text fill="#ffffff" font-family="Antilles" font-size="40" x="231.64330556104434" y="188.82903717637487" stroke-opacity="1" stroke-width="1" stroke="#000000" transform="matrix(0.4157278835773468,0,0,0.41572788357734675,301.84490966796875,210.96801757812494)" svgjs:data="{&quot;leading&quot;:&quot;1.3&quot;}"><tspan dy="0" x="231.64330556104434" svgjs:data="{&quot;newLined&quot;:true}">player</tspan></text><image width="734" height="760" xlink:href="https://lct-designs.s3.us-west-1.amazonaws.com/assets/libs/diamond-black-2-baseball-banner-1644287527560.png" class="asset" transform="matrix(0.04261951148509979,0,0,0.042619511485099786,403.5583801269531,243.93701171875)"></image><g class="mask" style="pointer-events: none;"><g><path fill="#BCBEC0" d="M-3642.4-2101.7v4589.1h7813.4v-4589.1H-3642.4z M500.5,67.2v233.3v66.7H0.5v-66.7V67.2V0.5h500V67.2z" transform="matrix(1,0,0,1,0,0)"></path><g transform="matrix(1,0,0,1,0,0)">
	<rect x="0.5" y="300.5" opacity="0.95" fill="#F1F2F2" width="500" height="66.7"></rect>
	<rect x="0.5" y="0.5" opacity="0.95" fill="#F1F2F2" width="500" height="66.7"></rect>
</g></g></g></svg>