<svg xmlns="http://www.w3.org/2000/svg" version="1.1" xmlns:xlink="http://www.w3.org/1999/xlink" xmlns:svgjs="http://svgjs.dev/svgjs" width="100%" height="100%" viewBox="1 1 499 365.70001220703125" preserveAspectRatio="none" data-info="{&quot;_id&quot;:4,&quot;name&quot;:&quot;POLE POCKET SOCCER BANNERS&quot;,&quot;information&quot;:&quot;- Size: 3’x5’\n- Material: heavy duty vinyl banner\n- Digitally printed on vinyl&quot;,&quot;price&quot;:&quot;95.00&quot;,&quot;sale_price&quot;:&quot;89.99&quot;,&quot;type&quot;:&quot;pole-pocket&quot;,&quot;cover&quot;:{&quot;key&quot;:&quot;assets/models/pole-1628062864266-1631924568908.png&quot;,&quot;url&quot;:&quot;https://lct-designs.s3.us-west-1.amazonaws.com/assets/models/pole-1628062864266-1631924568908.png&quot;},&quot;back&quot;:{&quot;key&quot;:&quot;assets/models/pole-1631924700152.svg&quot;,&quot;url&quot;:&quot;https://lct-designs.s3.us-west-1.amazonaws.com/assets/models/pole-1631924700152.svg&quot;},&quot;mask&quot;:{&quot;key&quot;:&quot;assets/models/pole-mask-1631925211715.svg&quot;,&quot;url&quot;:&quot;https://lct-designs.s3.us-west-1.amazonaws.com/assets/models/pole-mask-1631925211715.svg&quot;},&quot;pos&quot;:&quot;2&quot;,&quot;accessories&quot;:&quot;2,3&quot;}" style="background-color: white;"><g class="model" style="pointer-events: none;"><polygon fill="#FFFFFF" points="0.5,0.5 0.5,67.2 0.5,300.5 0.5,367.2 500.5,367.2 500.5,300.5 500.5,67.2 500.5,0.5 "></polygon></g><image width="760" height="558" xlink:href="https://lct-designs.s3.us-west-1.amazonaws.com/assets/libs/bears-softball-banner-1644898063736.png" class="asset background locked" transform="matrix(0.6571684806577621,0,0,0.6571684806577621,0,0)"></image><text fill="#0d0d0d" font-family="Impact" font-size="45" x="192.06642438162737" y="201.88927563680983" stroke-opacity="1" stroke-width="1" stroke="#f7f7f7" transform="matrix(0.2699042856693267,0,0,0.2699042856693268,-17.83123016357422,228.84788513183597)" svgjs:data="{&quot;leading&quot;:&quot;1.3&quot;}"><tspan dy="0" x="192.06642438162737" svgjs:data="{&quot;newLined&quot;:true}">Coach: Coach's name</tspan></text><image width="562" height="760" xlink:href="https://lct-designs.s3.us-west-1.amazonaws.com/assets/libs/bears-softball-banner-1644897998889.png" class="asset" transform="matrix(0.2344772070646286,0,0,0.2344772070646286,20.908092498779286,88.3982925415039)"></image><text fill="#212121" font-family="Amity Jack" font-size="45" stroke-opacity="1" stroke-width="0" stroke="#050505" x="164.68127054565383" y="198.9363701339798" transform="matrix(0.242390900850296,0,0,0.24239090085029605,149.5869598388672,96.7145767211914)" svgjs:data="{&quot;leading&quot;:&quot;1.3&quot;}"><tspan dy="0" x="164.68127054565383" svgjs:data="{&quot;newLined&quot;:true}">PLAYER</tspan></text><image width="760" height="548" xlink:href="https://lct-designs.s3.us-west-1.amazonaws.com/assets/libs/bears-softball-banner-1644897952830.png" class="asset" transform="matrix(0.08551441878080368,0,0,0.08551441878080368,176.60101318359372,86.33545684814453)"></image><image width="760" height="548" xlink:href="https://lct-designs.s3.us-west-1.amazonaws.com/assets/libs/bears-softball-banner-1644897952830.png" class="asset" transform="matrix(0.08551444113254546,0,0,0.08551444113254547,257.41381835937494,86.95123291015625)"></image><text fill="#212121" font-family="Amity Jack" font-size="45" stroke-opacity="1" stroke-width="0" stroke="#050505" x="164.68127054565383" y="198.9363701339798" transform="matrix(0.2423909306526184,0,0,0.24239093065261844,230.39976501464838,97.33035278320312)" svgjs:data="{&quot;leading&quot;:&quot;1.3&quot;}"><tspan dy="0" x="164.68127054565383" svgjs:data="{&quot;newLined&quot;:true}">PLAYER</tspan></text><text fill="#212121" font-family="Amity Jack" font-size="45" stroke-opacity="1" stroke-width="0" stroke="#050505" x="164.68127054565383" y="198.9363701339798" transform="matrix(0.2423909306526184,0,0,0.24239093065261844,310.44903564453125,96.7145767211914)" svgjs:data="{&quot;leading&quot;:&quot;1.3&quot;}"><tspan dy="0" x="164.68127054565383" svgjs:data="{&quot;newLined&quot;:true}">PLAYER</tspan></text><image width="760" height="548" xlink:href="https://lct-designs.s3.us-west-1.amazonaws.com/assets/libs/bears-softball-banner-1644897952830.png" class="asset" transform="matrix(0.08551444113254546,0,0,0.08551444113254547,337.4631042480468,86.33545684814453)"></image><image width="760" height="548" xlink:href="https://lct-designs.s3.us-west-1.amazonaws.com/assets/libs/bears-softball-banner-1644897952830.png" class="asset" transform="matrix(0.08551445603370667,0,0,0.08551445603370668,418.27590942382807,86.95123291015625)"></image><text fill="#212121" font-family="Amity Jack" font-size="45" stroke-opacity="1" stroke-width="0" stroke="#050505" x="164.68127054565383" y="198.9363701339798" transform="matrix(0.24239096045494077,0,0,0.24239096045494082,391.26184082031244,97.33035278320312)" svgjs:data="{&quot;leading&quot;:&quot;1.3&quot;}"><tspan dy="0" x="164.68127054565383" svgjs:data="{&quot;newLined&quot;:true}">PLAYER</tspan></text><text fill="#212121" font-family="Amity Jack" font-size="45" stroke-opacity="1" stroke-width="0" stroke="#050505" x="164.68127054565383" y="198.9363701339798" transform="matrix(0.2423909306526184,0,0,0.24239093065261844,150.9662628173828,167.52892303466797)" svgjs:data="{&quot;leading&quot;:&quot;1.3&quot;}"><tspan dy="0" x="164.68127054565383" svgjs:data="{&quot;newLined&quot;:true}">PLAYER</tspan></text><image width="760" height="548" xlink:href="https://lct-designs.s3.us-west-1.amazonaws.com/assets/libs/bears-softball-banner-1644897952830.png" class="asset" transform="matrix(0.08551444113254546,0,0,0.08551444113254547,177.98031616210935,157.1498031616211)"></image><image width="760" height="548" xlink:href="https://lct-designs.s3.us-west-1.amazonaws.com/assets/libs/bears-softball-banner-1644897952830.png" class="asset" transform="matrix(0.08551445603370667,0,0,0.08551445603370668,258.7931213378906,157.76557922363284)"></image><text fill="#212121" font-family="Amity Jack" font-size="45" stroke-opacity="1" stroke-width="0" stroke="#050505" x="164.68127054565383" y="198.9363701339798" transform="matrix(0.24239096045494077,0,0,0.24239096045494082,231.779067993164,168.14469909667972)" svgjs:data="{&quot;leading&quot;:&quot;1.3&quot;}"><tspan dy="0" x="164.68127054565383" svgjs:data="{&quot;newLined&quot;:true}">PLAYER</tspan></text><text fill="#212121" font-family="Amity Jack" font-size="45" stroke-opacity="1" stroke-width="0" stroke="#050505" x="164.68127054565383" y="198.9363701339798" transform="matrix(0.24239096045494077,0,0,0.24239096045494082,311.8283386230468,167.52892303466797)" svgjs:data="{&quot;leading&quot;:&quot;1.3&quot;}"><tspan dy="0" x="164.68127054565383" svgjs:data="{&quot;newLined&quot;:true}">PLAYER</tspan></text><image width="760" height="548" xlink:href="https://lct-designs.s3.us-west-1.amazonaws.com/assets/libs/bears-softball-banner-1644897952830.png" class="asset" transform="matrix(0.08551445603370667,0,0,0.08551445603370668,338.84240722656244,157.1498031616211)"></image><image width="760" height="548" xlink:href="https://lct-designs.s3.us-west-1.amazonaws.com/assets/libs/bears-softball-banner-1644897952830.png" class="asset" transform="matrix(0.08551447838544844,0,0,0.08551447838544847,419.65521240234364,157.76557922363284)"></image><text fill="#212121" font-family="Amity Jack" font-size="45" stroke-opacity="1" stroke-width="0" stroke="#050505" x="164.68127054565383" y="198.9363701339798" transform="matrix(0.24239099025726316,0,0,0.24239099025726318,392.64114379882807,168.14469909667972)" svgjs:data="{&quot;leading&quot;:&quot;1.3&quot;}"><tspan dy="0" x="164.68127054565383" svgjs:data="{&quot;newLined&quot;:true}">PLAYER</tspan></text><text fill="#212121" font-family="Amity Jack" font-size="45" stroke-opacity="1" stroke-width="0" stroke="#050505" x="164.68127054565383" y="198.9363701339798" transform="matrix(0.24239096045494077,0,0,0.24239096045494082,148.65098571777344,235.88017272949222)" svgjs:data="{&quot;leading&quot;:&quot;1.3&quot;}"><tspan dy="0" x="164.68127054565383" svgjs:data="{&quot;newLined&quot;:true}">PLAYER</tspan></text><image width="760" height="548" xlink:href="https://lct-designs.s3.us-west-1.amazonaws.com/assets/libs/bears-softball-banner-1644897952830.png" class="asset" transform="matrix(0.08551445603370667,0,0,0.08551445603370668,175.66503906249997,225.50105285644534)"></image><image width="760" height="548" xlink:href="https://lct-designs.s3.us-west-1.amazonaws.com/assets/libs/bears-softball-banner-1644897952830.png" class="asset" transform="matrix(0.08551447838544844,0,0,0.08551447838544847,256.47784423828125,226.11682128906247)"></image><text fill="#212121" font-family="Amity Jack" font-size="45" stroke-opacity="1" stroke-width="0" stroke="#050505" x="164.68127054565383" y="198.9363701339798" transform="matrix(0.24239099025726316,0,0,0.24239099025726318,229.46379089355463,236.4959411621094)" svgjs:data="{&quot;leading&quot;:&quot;1.3&quot;}"><tspan dy="0" x="164.68127054565383" svgjs:data="{&quot;newLined&quot;:true}">PLAYER</tspan></text><text fill="#212121" font-family="Amity Jack" font-size="45" stroke-opacity="1" stroke-width="0" stroke="#050505" x="164.68127054565383" y="198.9363701339798" transform="matrix(0.24239099025726316,0,0,0.24239099025726318,309.51306152343744,235.88017272949222)" svgjs:data="{&quot;leading&quot;:&quot;1.3&quot;}"><tspan dy="0" x="164.68127054565383" svgjs:data="{&quot;newLined&quot;:true}">PLAYER</tspan></text><image width="760" height="548" xlink:href="https://lct-designs.s3.us-west-1.amazonaws.com/assets/libs/bears-softball-banner-1644897952830.png" class="asset" transform="matrix(0.08551447838544844,0,0,0.08551447838544847,336.52713012695307,225.50105285644534)"></image><image width="760" height="548" xlink:href="https://lct-designs.s3.us-west-1.amazonaws.com/assets/libs/bears-softball-banner-1644897952830.png" class="asset" transform="matrix(0.08551450073719023,0,0,0.08551450073719025,417.33993530273426,226.11682128906247)"></image><text fill="#212121" font-family="Amity Jack" font-size="45" stroke-opacity="1" stroke-width="0" stroke="#050505" x="164.68127054565383" y="198.9363701339798" transform="matrix(0.24239102005958554,0,0,0.24239102005958557,390.3258666992187,236.4959411621094)" svgjs:data="{&quot;leading&quot;:&quot;1.3&quot;}"><tspan dy="0" x="164.68127054565383" svgjs:data="{&quot;newLined&quot;:true}">PLAYER</tspan></text><g class="mask" style="pointer-events: none;"><g><path fill="#BCBEC0" d="M-3642.4-2101.7v4589.1h7813.4v-4589.1H-3642.4z M500.5,67.2v233.3v66.7H0.5v-66.7V67.2V0.5h500V67.2z" transform="matrix(1,0,0,1,0,0)"></path><g transform="matrix(1,0,0,1,0,0)">
	<rect x="0.5" y="300.5" opacity="0.95" fill="#F1F2F2" width="500" height="66.7"></rect>
	<rect x="0.5" y="0.5" opacity="0.95" fill="#F1F2F2" width="500" height="66.7"></rect>
</g></g></g></svg>