<svg xmlns="http://www.w3.org/2000/svg" version="1.1" xmlns:xlink="http://www.w3.org/1999/xlink" xmlns:svgjs="http://svgjs.dev/svgjs" width="100%" height="100%" viewBox="1 1 499 365.70001220703125" preserveAspectRatio="none" data-info="{&quot;_id&quot;:4,&quot;name&quot;:&quot;POLE POCKET SOCCER BANNERS&quot;,&quot;information&quot;:&quot;- Size: 3’x5’\n- Material: heavy duty vinyl banner\n- Digitally printed on vinyl&quot;,&quot;price&quot;:&quot;95.00&quot;,&quot;sale_price&quot;:&quot;89.99&quot;,&quot;type&quot;:&quot;pole-pocket&quot;,&quot;cover&quot;:{&quot;key&quot;:&quot;assets/models/pole-1628062864266-1631924568908.png&quot;,&quot;url&quot;:&quot;https://lct-designs.s3.us-west-1.amazonaws.com/assets/models/pole-1628062864266-1631924568908.png&quot;},&quot;back&quot;:{&quot;key&quot;:&quot;assets/models/pole-1631924700152.svg&quot;,&quot;url&quot;:&quot;https://lct-designs.s3.us-west-1.amazonaws.com/assets/models/pole-1631924700152.svg&quot;},&quot;mask&quot;:{&quot;key&quot;:&quot;assets/models/pole-mask-1631925211715.svg&quot;,&quot;url&quot;:&quot;https://lct-designs.s3.us-west-1.amazonaws.com/assets/models/pole-mask-1631925211715.svg&quot;},&quot;pos&quot;:&quot;2&quot;,&quot;accessories&quot;:&quot;2,3&quot;}" style="background-color: white;"><g class="model" style="pointer-events: none;"><polygon fill="#FFFFFF" points="0.5,0.5 0.5,67.2 0.5,300.5 0.5,367.2 500.5,367.2 500.5,300.5 500.5,67.2 500.5,0.5 "></polygon></g><image width="760" height="556" xlink:href="https://lct-designs.s3.us-west-1.amazonaws.com/assets/libs/planes-softball-banner-1644898063739.png" class="asset background locked" transform="matrix(0.6595323960558116,0,0,0.6595323960558116,0,0)"></image><text fill="#0d0d0d" font-family="Impact" font-size="45" x="192.06642438162737" y="201.88927563680983" stroke-opacity="1" stroke-width="1" stroke="#f7f7f7" transform="matrix(0.2860414385795593,0,0,0.2860414385795593,-44.24592971801758,27.379600524902358)" svgjs:data="{&quot;leading&quot;:&quot;1.3&quot;}"><tspan dy="0" x="192.06642438162737" svgjs:data="{&quot;newLined&quot;:true}">Coach: Coach's name</tspan></text><text fill="#121212" font-family="Amity Jack" font-size="45" stroke-opacity="1" stroke-width="0" stroke="#121212" x="164.68127054565383" y="198.9363701339798" transform="matrix(0.2059924155473709,0,0,0.2059924155473709,-19.808961868286133,107.69956207275393)" svgjs:data="{&quot;leading&quot;:&quot;1.3&quot;}"><tspan dy="0" x="164.68127054565383" svgjs:data="{&quot;newLined&quot;:true}">PLAYER</tspan></text><image width="521" height="760" xlink:href="https://lct-designs.s3.us-west-1.amazonaws.com/assets/libs/planes-softball-banner-1644897952833.png" class="asset" transform="matrix(0.06317155808210373,0,0,0.06317155808210374,13.753229141235359,89.01408386230469)"></image><text fill="#121212" font-family="Amity Jack" font-size="45" stroke-opacity="1" stroke-width="0" stroke="#121212" x="164.68127054565383" y="198.9363701339798" transform="matrix(0.2059924155473709,0,0,0.2059924155473709,52.38315963745117,108.31533050537112)" svgjs:data="{&quot;leading&quot;:&quot;1.3&quot;}"><tspan dy="0" x="164.68127054565383" svgjs:data="{&quot;newLined&quot;:true}">PLAYER</tspan></text><image width="521" height="760" xlink:href="https://lct-designs.s3.us-west-1.amazonaws.com/assets/libs/planes-softball-banner-1644897952833.png" class="asset" transform="matrix(0.06317155808210373,0,0,0.06317155808210374,85.94535064697266,89.62985229492188)"></image><text fill="#121212" font-family="Amity Jack" font-size="45" stroke-opacity="1" stroke-width="0" stroke="#121212" x="164.68127054565383" y="198.9363701339798" transform="matrix(0.2059924155473709,0,0,0.2059924155473709,131.8166427612305,105.85222625732422)" svgjs:data="{&quot;leading&quot;:&quot;1.3&quot;}"><tspan dy="0" x="164.68127054565383" svgjs:data="{&quot;newLined&quot;:true}">PLAYER</tspan></text><image width="521" height="760" xlink:href="https://lct-designs.s3.us-west-1.amazonaws.com/assets/libs/planes-softball-banner-1644897952833.png" class="asset" transform="matrix(0.06317155808210373,0,0,0.06317155808210374,165.37883758544922,87.166748046875)"></image><text fill="#121212" font-family="Amity Jack" font-size="45" stroke-opacity="1" stroke-width="0" stroke="#121212" x="164.68127054565383" y="198.9363701339798" transform="matrix(0.2059924155473709,0,0,0.2059924155473709,204.0087814331055,106.4679946899414)" svgjs:data="{&quot;leading&quot;:&quot;1.3&quot;}"><tspan dy="0" x="164.68127054565383" svgjs:data="{&quot;newLined&quot;:true}">PLAYER</tspan></text><image width="521" height="760" xlink:href="https://lct-designs.s3.us-west-1.amazonaws.com/assets/libs/planes-softball-banner-1644897952833.png" class="asset" transform="matrix(0.06317155808210373,0,0,0.06317155808210374,237.57096099853516,87.78251647949219)"></image><text fill="#121212" font-family="Amity Jack" font-size="45" stroke-opacity="1" stroke-width="0" stroke="#121212" x="164.68127054565383" y="198.9363701339798" transform="matrix(0.2059924155473709,0,0,0.2059924155473709,277.9003601074219,105.23645782470703)" svgjs:data="{&quot;leading&quot;:&quot;1.3&quot;}"><tspan dy="0" x="164.68127054565383" svgjs:data="{&quot;newLined&quot;:true}">PLAYER</tspan></text><image width="521" height="760" xlink:href="https://lct-designs.s3.us-west-1.amazonaws.com/assets/libs/planes-softball-banner-1644897952833.png" class="asset" transform="matrix(0.06317155808210373,0,0,0.06317155808210374,311.4625549316407,86.55097961425781)"></image><text fill="#121212" font-family="Amity Jack" font-size="45" stroke-opacity="1" stroke-width="0" stroke="#121212" x="164.68127054565383" y="198.9363701339798" transform="matrix(0.2059924155473709,0,0,0.2059924155473709,350.09249877929693,105.85222625732422)" svgjs:data="{&quot;leading&quot;:&quot;1.3&quot;}"><tspan dy="0" x="164.68127054565383" svgjs:data="{&quot;newLined&quot;:true}">PLAYER</tspan></text><image width="521" height="760" xlink:href="https://lct-designs.s3.us-west-1.amazonaws.com/assets/libs/planes-softball-banner-1644897952833.png" class="asset" transform="matrix(0.06317155808210373,0,0,0.06317155808210374,383.65466308593756,87.166748046875)"></image><text fill="#121212" font-family="Amity Jack" font-size="45" stroke-opacity="1" stroke-width="0" stroke="#121212" x="164.68127054565383" y="198.9363701339798" transform="matrix(0.2059924155473709,0,0,0.2059924155473709,419.8215637207032,105.23644256591797)" svgjs:data="{&quot;leading&quot;:&quot;1.3&quot;}"><tspan dy="0" x="164.68127054565383" svgjs:data="{&quot;newLined&quot;:true}">PLAYER</tspan></text><image width="521" height="760" xlink:href="https://lct-designs.s3.us-west-1.amazonaws.com/assets/libs/planes-softball-banner-1644897952833.png" class="asset" transform="matrix(0.06317155808210373,0,0,0.06317155808210374,453.3837280273438,86.55096435546872)"></image><image width="760" height="387" xlink:href="https://lct-designs.s3.us-west-1.amazonaws.com/assets/libs/planes-softball-banner-1644897998891.png" class="asset" transform="matrix(0.22386355698108673,0,0,0.22386355698108676,78.69457244873048,152.9632568359375)"></image><text fill="#121212" font-family="Amity Jack" font-size="45" stroke-opacity="1" stroke-width="0" stroke="#121212" x="164.68127054565383" y="198.9363701339798" transform="matrix(0.2059924155473709,0,0,0.2059924155473709,272.5062561035156,173.58769989013672)" svgjs:data="{&quot;leading&quot;:&quot;1.3&quot;}"><tspan dy="0" x="164.68127054565383" svgjs:data="{&quot;newLined&quot;:true}">PLAYER</tspan></text><image width="521" height="760" xlink:href="https://lct-designs.s3.us-west-1.amazonaws.com/assets/libs/planes-softball-banner-1644897952833.png" class="asset" transform="matrix(0.06317155808210373,0,0,0.06317155808210374,306.06845092773443,154.90222167968753)"></image><text fill="#121212" font-family="Amity Jack" font-size="45" stroke-opacity="1" stroke-width="0" stroke="#121212" x="164.68127054565383" y="198.9363701339798" transform="matrix(0.2059924155473709,0,0,0.2059924155473709,344.6983947753907,174.2034683227539)" svgjs:data="{&quot;leading&quot;:&quot;1.3&quot;}"><tspan dy="0" x="164.68127054565383" svgjs:data="{&quot;newLined&quot;:true}">PLAYER</tspan></text><image width="521" height="760" xlink:href="https://lct-designs.s3.us-west-1.amazonaws.com/assets/libs/planes-softball-banner-1644897952833.png" class="asset" transform="matrix(0.06317155808210373,0,0,0.06317155808210374,378.2605590820313,155.51799011230472)"></image><text fill="#121212" font-family="Amity Jack" font-size="45" stroke-opacity="1" stroke-width="0" stroke="#121212" x="164.68127054565383" y="198.9363701339798" transform="matrix(0.2059924155473709,0,0,0.2059924155473709,414.42745971679693,173.58768463134768)" svgjs:data="{&quot;leading&quot;:&quot;1.3&quot;}"><tspan dy="0" x="164.68127054565383" svgjs:data="{&quot;newLined&quot;:true}">PLAYER</tspan></text><image width="521" height="760" xlink:href="https://lct-designs.s3.us-west-1.amazonaws.com/assets/libs/planes-softball-banner-1644897952833.png" class="asset" transform="matrix(0.06317155808210373,0,0,0.06317155808210374,447.98962402343756,154.90220642089847)"></image><text fill="#121212" font-family="Amity Jack" font-size="45" stroke-opacity="1" stroke-width="0" stroke="#121212" x="164.68127054565383" y="198.9363701339798" transform="matrix(0.2059924155473709,0,0,0.2059924155473709,268.34368896484375,248.09671020507815)" svgjs:data="{&quot;leading&quot;:&quot;1.3&quot;}"><tspan dy="0" x="164.68127054565383" svgjs:data="{&quot;newLined&quot;:true}">PLAYER</tspan></text><image width="521" height="760" xlink:href="https://lct-designs.s3.us-west-1.amazonaws.com/assets/libs/planes-softball-banner-1644897952833.png" class="asset" transform="matrix(0.06317155808210373,0,0,0.06317155808210374,301.9058837890625,229.4112243652344)"></image><text fill="#121212" font-family="Amity Jack" font-size="45" stroke-opacity="1" stroke-width="0" stroke="#121212" x="164.68127054565383" y="198.9363701339798" transform="matrix(0.2059924155473709,0,0,0.2059924155473709,340.5358276367188,248.71247863769528)" svgjs:data="{&quot;leading&quot;:&quot;1.3&quot;}"><tspan dy="0" x="164.68127054565383" svgjs:data="{&quot;newLined&quot;:true}">PLAYER</tspan></text><image width="521" height="760" xlink:href="https://lct-designs.s3.us-west-1.amazonaws.com/assets/libs/planes-softball-banner-1644897952833.png" class="asset" transform="matrix(0.06317155808210373,0,0,0.06317155808210374,374.09799194335943,230.0269927978516)"></image><text fill="#121212" font-family="Amity Jack" font-size="45" stroke-opacity="1" stroke-width="0" stroke="#121212" x="164.68127054565383" y="198.9363701339798" transform="matrix(0.2059924155473709,0,0,0.2059924155473709,410.26489257812506,248.09667968750003)" svgjs:data="{&quot;leading&quot;:&quot;1.3&quot;}"><tspan dy="0" x="164.68127054565383" svgjs:data="{&quot;newLined&quot;:true}">PLAYER</tspan></text><image width="521" height="760" xlink:href="https://lct-designs.s3.us-west-1.amazonaws.com/assets/libs/planes-softball-banner-1644897952833.png" class="asset" transform="matrix(0.06317155808210373,0,0,0.06317155808210374,443.8270568847657,229.41120910644534)"></image><text fill="#121212" font-family="Amity Jack" font-size="45" stroke-opacity="1" stroke-width="0" stroke="#121212" x="164.68127054565383" y="198.9363701339798" transform="matrix(0.2059924155473709,0,0,0.2059924155473709,56.668823242187514,248.09671020507815)" svgjs:data="{&quot;leading&quot;:&quot;1.3&quot;}"><tspan dy="0" x="164.68127054565383" svgjs:data="{&quot;newLined&quot;:true}">PLAYER</tspan></text><image width="521" height="760" xlink:href="https://lct-designs.s3.us-west-1.amazonaws.com/assets/libs/planes-softball-banner-1644897952833.png" class="asset" transform="matrix(0.06317155808210373,0,0,0.06317155808210374,90.23101806640626,229.4112243652344)"></image><text fill="#121212" font-family="Amity Jack" font-size="45" stroke-opacity="1" stroke-width="0" stroke="#121212" x="164.68127054565383" y="198.9363701339798" transform="matrix(0.2059924155473709,0,0,0.2059924155473709,128.8609619140625,248.71247863769528)" svgjs:data="{&quot;leading&quot;:&quot;1.3&quot;}"><tspan dy="0" x="164.68127054565383" svgjs:data="{&quot;newLined&quot;:true}">PLAYER</tspan></text><image width="521" height="760" xlink:href="https://lct-designs.s3.us-west-1.amazonaws.com/assets/libs/planes-softball-banner-1644897952833.png" class="asset" transform="matrix(0.06317155808210373,0,0,0.06317155808210374,162.42312622070312,230.0269927978516)"></image><text fill="#121212" font-family="Amity Jack" font-size="45" stroke-opacity="1" stroke-width="0" stroke="#121212" x="164.68127054565383" y="198.9363701339798" transform="matrix(0.2059924155473709,0,0,0.2059924155473709,198.59002685546875,248.09667968750003)" svgjs:data="{&quot;leading&quot;:&quot;1.3&quot;}"><tspan dy="0" x="164.68127054565383" svgjs:data="{&quot;newLined&quot;:true}">PLAYER</tspan></text><image width="521" height="760" xlink:href="https://lct-designs.s3.us-west-1.amazonaws.com/assets/libs/planes-softball-banner-1644897952833.png" class="asset" transform="matrix(0.06317155808210373,0,0,0.06317155808210374,232.15219116210938,229.41120910644534)"></image><text fill="#121212" font-family="Amity Jack" font-size="45" stroke-opacity="1" stroke-width="0" stroke="#121212" x="164.68127054565383" y="198.9363701339798" transform="matrix(0.2059924155473709,0,0,0.2059924155473709,-17.81389045715332,245.01779937744143)" svgjs:data="{&quot;leading&quot;:&quot;1.3&quot;}"><tspan dy="0" x="164.68127054565383" svgjs:data="{&quot;newLined&quot;:true}">PLAYER</tspan></text><image width="521" height="760" xlink:href="https://lct-designs.s3.us-west-1.amazonaws.com/assets/libs/planes-softball-banner-1644897952833.png" class="asset" transform="matrix(0.06317155808210373,0,0,0.06317155808210374,15.748300552368164,226.33232116699222)"></image><g class="mask" style="pointer-events: none;"><g><path fill="#BCBEC0" d="M-3642.4-2101.7v4589.1h7813.4v-4589.1H-3642.4z M500.5,67.2v233.3v66.7H0.5v-66.7V67.2V0.5h500V67.2z" transform="matrix(1,0,0,1,0,0)"></path><g transform="matrix(1,0,0,1,0,0)">
	<rect x="0.5" y="300.5" opacity="0.95" fill="#F1F2F2" width="500" height="66.7"></rect>
	<rect x="0.5" y="0.5" opacity="0.95" fill="#F1F2F2" width="500" height="66.7"></rect>
</g></g></g></svg>