<svg xmlns="http://www.w3.org/2000/svg" version="1.1" xmlns:xlink="http://www.w3.org/1999/xlink" xmlns:svgjs="http://svgjs.dev/svgjs" width="100%" height="100%" viewBox="1 1 499 365.70001220703125" preserveAspectRatio="none" data-info="{&quot;_id&quot;:4,&quot;name&quot;:&quot;POLE POCKET SOCCER BANNERS&quot;,&quot;information&quot;:&quot;- Size: 3’x5’\n- Material: heavy duty vinyl banner\n- Digitally printed on vinyl&quot;,&quot;price&quot;:&quot;95.00&quot;,&quot;sale_price&quot;:&quot;89.99&quot;,&quot;type&quot;:&quot;pole-pocket&quot;,&quot;cover&quot;:{&quot;key&quot;:&quot;assets/models/pole-1628062864266-1631924568908.png&quot;,&quot;url&quot;:&quot;https://lct-designs.s3.us-west-1.amazonaws.com/assets/models/pole-1628062864266-1631924568908.png&quot;},&quot;back&quot;:{&quot;key&quot;:&quot;assets/models/pole-1631924700152.svg&quot;,&quot;url&quot;:&quot;https://lct-designs.s3.us-west-1.amazonaws.com/assets/models/pole-1631924700152.svg&quot;},&quot;mask&quot;:{&quot;key&quot;:&quot;assets/models/pole-mask-1631925211715.svg&quot;,&quot;url&quot;:&quot;https://lct-designs.s3.us-west-1.amazonaws.com/assets/models/pole-mask-1631925211715.svg&quot;},&quot;pos&quot;:&quot;2&quot;,&quot;accessories&quot;:&quot;2,3&quot;}" style="background-color: white;"><g class="model" style="pointer-events: none;"><polygon fill="#FFFFFF" points="0.5,0.5 0.5,67.2 0.5,300.5 0.5,367.2 500.5,367.2 500.5,300.5 500.5,67.2 500.5,0.5 "></polygon></g><image width="760" height="553" xlink:href="https://lct-designs.s3.us-west-1.amazonaws.com/assets/libs/mets-6-baseball-banner-1644906669450.png" class="asset background locked" transform="matrix(0.6631103294883024,0,0,0.6631103294883024,0,0)"></image><text fill="#0d0d0d" font-family="Impact" font-size="45" x="192.06642438162737" y="201.88927563680983" stroke-opacity="1" stroke-width="1" stroke="#f7f7f7" transform="matrix(0.27300608158111567,0,0,0.2730060815811157,-39.5593376159668,31.30855751037599)" svgjs:data="{&quot;leading&quot;:&quot;1.3&quot;}"><tspan dy="0" x="192.06642438162737" svgjs:data="{&quot;newLined&quot;:true}">Coach: Coach's name</tspan></text><image width="760" height="760" xlink:href="https://lct-designs.s3.us-west-1.amazonaws.com/assets/libs/mets-2-baseball-banner--1641529053370.png" class="asset" transform="matrix(0.1996376067399979,0,0,0.19963760673999786,52.21675491333008,95.78760528564453)"></image><image width="456" height="760" xlink:href="https://lct-designs.s3.us-west-1.amazonaws.com/assets/libs/mets-6-baseball-banner-1644906752415.png" class="asset" transform="matrix(0.13157892227172852,0,0,0.13157892227172852,17.413776397705078,193.08036804199222)"></image><text fill="#b65302" font-family="Impact" font-size="45" x="192.06642438162737" y="201.88927563680983" stroke-opacity="1" stroke-width="1" stroke="#fafafa" transform="matrix(0.22801890932259997,0.004742562340743828,-0.004742562340743828,0.22801890932259997,190.66530830627562,71.78045215588827)" svgjs:data="{&quot;leading&quot;:&quot;1.3&quot;}"><tspan dy="0" x="192.06642438162737" svgjs:data="{&quot;newLined&quot;:true}">PLAYER</tspan></text><text fill="#b65302" font-family="Impact" font-size="45" x="192.06642438162737" y="201.88927563680983" stroke-opacity="1" stroke-width="1" stroke="#fafafa" transform="matrix(0.22801890932259997,0.004742562340743828,-0.004742562340743828,0.22801890932259997,281.1529582422809,71.78045215588827)" svgjs:data="{&quot;leading&quot;:&quot;1.3&quot;}"><tspan dy="0" x="192.06642438162737" svgjs:data="{&quot;newLined&quot;:true}">PLAYER</tspan></text><text fill="#b65302" font-family="Impact" font-size="45" x="192.06642438162737" y="201.88927563680983" stroke-opacity="1" stroke-width="1" stroke="#fafafa" transform="matrix(0.22801890932259997,0.004742562340743828,-0.004742562340743828,0.22801890932259997,370.443974075075,71.78044474280887)" svgjs:data="{&quot;leading&quot;:&quot;1.3&quot;}"><tspan dy="0" x="192.06642438162737" svgjs:data="{&quot;newLined&quot;:true}">PLAYER</tspan></text><image width="760" height="410" xlink:href="https://lct-designs.s3.us-west-1.amazonaws.com/assets/libs/dodgers-baseball-banner-1644287527560.png" class="asset" transform="matrix(0.0805769805516059,0,0,0.08057698055160589,217.236483243536,80.01997130181371)"></image><image width="760" height="410" xlink:href="https://lct-designs.s3.us-west-1.amazonaws.com/assets/libs/dodgers-baseball-banner-1644287527560.png" class="asset" transform="matrix(0.0805769805516059,0,0,0.08057698055160589,307.72413317954124,80.01997130181371)"></image><image width="760" height="410" xlink:href="https://lct-designs.s3.us-west-1.amazonaws.com/assets/libs/dodgers-baseball-banner-1644287527560.png" class="asset" transform="matrix(0.0805769805516059,0,0,0.08057698055160589,397.015178664653,80.01997130181371)"></image><image width="724" height="760" xlink:href="https://lct-designs.s3.us-west-1.amazonaws.com/assets/libs/mets-6-baseball-banner_1-1644906752416.png" class="asset" transform="matrix(0.13060058653354648,0,0,0.13060058653354648,388.65060424804693,190.89683532714847)"></image><text fill="#b65302" font-family="Impact" font-size="45" x="192.06642438162737" y="201.88927563680983" stroke-opacity="1" stroke-width="1" stroke="#fafafa" transform="matrix(0.22801890932259997,0.004742562340743828,-0.004742562340743828,0.22801890932259997,191.40720929281633,130.41559734403018)" svgjs:data="{&quot;leading&quot;:&quot;1.3&quot;}"><tspan dy="0" x="192.06642438162737" svgjs:data="{&quot;newLined&quot;:true}">PLAYER</tspan></text><text fill="#b65302" font-family="Impact" font-size="45" x="192.06642438162737" y="201.88927563680983" stroke-opacity="1" stroke-width="1" stroke="#fafafa" transform="matrix(0.22801890932259997,0.004742562340743828,-0.004742562340743828,0.22801890932259997,281.8948592288216,130.41559734403018)" svgjs:data="{&quot;leading&quot;:&quot;1.3&quot;}"><tspan dy="0" x="192.06642438162737" svgjs:data="{&quot;newLined&quot;:true}">PLAYER</tspan></text><image width="760" height="410" xlink:href="https://lct-designs.s3.us-west-1.amazonaws.com/assets/libs/dodgers-baseball-banner-1644287527560.png" class="asset" transform="matrix(0.0805769805516059,0,0,0.08057698055160589,217.9783842300767,138.65511648995565)"></image><image width="760" height="410" xlink:href="https://lct-designs.s3.us-west-1.amazonaws.com/assets/libs/dodgers-baseball-banner-1644287527560.png" class="asset" transform="matrix(0.0805769805516059,0,0,0.08057698055160589,308.46603416608195,138.65511648995565)"></image><text fill="#b65302" font-family="Impact" font-size="45" x="192.06642438162737" y="201.88927563680983" stroke-opacity="1" stroke-width="1" stroke="#fafafa" transform="matrix(0.22801890932259997,0.004742562340743828,-0.004742562340743828,0.22801890932259997,371.1858750616157,130.4155825178714)" svgjs:data="{&quot;leading&quot;:&quot;1.3&quot;}"><tspan dy="0" x="192.06642438162737" svgjs:data="{&quot;newLined&quot;:true}">PLAYER</tspan></text><image width="760" height="410" xlink:href="https://lct-designs.s3.us-west-1.amazonaws.com/assets/libs/dodgers-baseball-banner-1644287527560.png" class="asset" transform="matrix(0.0805769805516059,0,0,0.08057698055160589,397.75707965119364,138.65511648995565)"></image><text fill="#b65302" font-family="Impact" font-size="45" x="192.06642438162737" y="201.88927563680983" stroke-opacity="1" stroke-width="1" stroke="#fafafa" transform="matrix(0.22801890932259997,0.004742562340743828,-0.004742562340743828,0.22801890932259997,191.55081546698966,186.65748915190855)" svgjs:data="{&quot;leading&quot;:&quot;1.3&quot;}"><tspan dy="0" x="192.06642438162737" svgjs:data="{&quot;newLined&quot;:true}">PLAYER</tspan></text><text fill="#b65302" font-family="Impact" font-size="45" x="192.06642438162737" y="201.88927563680983" stroke-opacity="1" stroke-width="1" stroke="#fafafa" transform="matrix(0.22801890932259997,0.004742562340743828,-0.004742562340743828,0.22801890932259997,282.0384654029949,186.65748915190855)" svgjs:data="{&quot;leading&quot;:&quot;1.3&quot;}"><tspan dy="0" x="192.06642438162737" svgjs:data="{&quot;newLined&quot;:true}">PLAYER</tspan></text><image width="760" height="410" xlink:href="https://lct-designs.s3.us-west-1.amazonaws.com/assets/libs/dodgers-baseball-banner-1644287527560.png" class="asset" transform="matrix(0.0805769805516059,0,0,0.08057698055160589,218.12199040425003,194.897008297834)"></image><image width="760" height="410" xlink:href="https://lct-designs.s3.us-west-1.amazonaws.com/assets/libs/dodgers-baseball-banner-1644287527560.png" class="asset" transform="matrix(0.0805769805516059,0,0,0.08057698055160589,308.6096403402553,194.897008297834)"></image><text fill="#b65302" font-family="Impact" font-size="45" x="192.06642438162737" y="201.88927563680983" stroke-opacity="1" stroke-width="1" stroke="#fafafa" transform="matrix(0.22801890932259997,0.004742562340743828,-0.004742562340743828,0.22801890932259997,190.497772711793,241.10442239189067)" svgjs:data="{&quot;leading&quot;:&quot;1.3&quot;}"><tspan dy="0" x="192.06642438162737" svgjs:data="{&quot;newLined&quot;:true}">PLAYER</tspan></text><text fill="#b65302" font-family="Impact" font-size="45" x="192.06642438162737" y="201.88927563680983" stroke-opacity="1" stroke-width="1" stroke="#fafafa" transform="matrix(0.22801890932259997,0.004742562340743828,-0.004742562340743828,0.22801890932259997,280.98542264779826,241.10442239189067)" svgjs:data="{&quot;leading&quot;:&quot;1.3&quot;}"><tspan dy="0" x="192.06642438162737" svgjs:data="{&quot;newLined&quot;:true}">PLAYER</tspan></text><image width="760" height="410" xlink:href="https://lct-designs.s3.us-west-1.amazonaws.com/assets/libs/dodgers-baseball-banner-1644287527560.png" class="asset" transform="matrix(0.0805769805516059,0,0,0.08057698055160589,217.06894764905337,249.3439415378161)"></image><image width="760" height="410" xlink:href="https://lct-designs.s3.us-west-1.amazonaws.com/assets/libs/dodgers-baseball-banner-1644287527560.png" class="asset" transform="matrix(0.0805769805516059,0,0,0.08057698055160589,307.5565975850586,249.3439415378161)"></image><g class="mask" style="pointer-events: none;"><g><path fill="#BCBEC0" d="M-3642.4-2101.7v4589.1h7813.4v-4589.1H-3642.4z M500.5,67.2v233.3v66.7H0.5v-66.7V67.2V0.5h500V67.2z" transform="matrix(1,0,0,1,0,0)"></path><g transform="matrix(1,0,0,1,0,0)">
	<rect x="0.5" y="300.5" opacity="0.95" fill="#F1F2F2" width="500" height="66.7"></rect>
	<rect x="0.5" y="0.5" opacity="0.95" fill="#F1F2F2" width="500" height="66.7"></rect>
</g></g></g></svg>