<svg xmlns="http://www.w3.org/2000/svg" version="1.1" xmlns:xlink="http://www.w3.org/1999/xlink" xmlns:svgjs="http://svgjs.dev/svgjs" width="100%" height="100%" viewBox="1 1 499 365.70001220703125" preserveAspectRatio="none" data-info="{&quot;_id&quot;:4,&quot;name&quot;:&quot;POLE POCKET SOCCER BANNERS&quot;,&quot;information&quot;:&quot;- Size: 3’x5’\n- Material: heavy duty vinyl banner\n- Digitally printed on vinyl&quot;,&quot;price&quot;:&quot;95.00&quot;,&quot;sale_price&quot;:&quot;89.99&quot;,&quot;type&quot;:&quot;pole-pocket&quot;,&quot;cover&quot;:{&quot;key&quot;:&quot;assets/models/pole-1628062864266-1631924568908.png&quot;,&quot;url&quot;:&quot;https://lct-designs.s3.us-west-1.amazonaws.com/assets/models/pole-1628062864266-1631924568908.png&quot;},&quot;back&quot;:{&quot;key&quot;:&quot;assets/models/pole-1631924700152.svg&quot;,&quot;url&quot;:&quot;https://lct-designs.s3.us-west-1.amazonaws.com/assets/models/pole-1631924700152.svg&quot;},&quot;mask&quot;:{&quot;key&quot;:&quot;assets/models/pole-mask-1631925211715.svg&quot;,&quot;url&quot;:&quot;https://lct-designs.s3.us-west-1.amazonaws.com/assets/models/pole-mask-1631925211715.svg&quot;},&quot;pos&quot;:&quot;2&quot;,&quot;accessories&quot;:&quot;2,3&quot;}" style="background-color: white;"><g class="model" style="pointer-events: none;"><polygon fill="#FFFFFF" points="0.5,0.5 0.5,67.2 0.5,300.5 0.5,367.2 500.5,367.2 500.5,300.5 500.5,67.2 500.5,0.5 "></polygon></g><image width="760" height="553" xlink:href="https://lct-designs.s3.us-west-1.amazonaws.com/assets/libs/rays-2-baseball-banner-1644823723065.png" class="asset background locked" transform="matrix(0.6631103294883024,0,0,0.6631103294883024,0,0)"></image><text fill="#ffffff" font-family="DEATHE MAACH NCV" font-size="45" stroke-opacity="1" stroke-width="0" stroke="#ffffff" x="187.89898643190404" y="201.84774249436967" transform="matrix(0.33366161584854126,0,0,0.33366161584854126,-49.96699142456055,44.14981460571289)" svgjs:data="{&quot;leading&quot;:&quot;1.3&quot;}"><tspan dy="0" x="187.89898643190404" svgjs:data="{&quot;newLined&quot;:true}">Coach: Coach name</tspan></text><text fill="#ffffff" font-family="DEATHE MAACH NCV" font-size="45" stroke-opacity="0.9" stroke-width="1" stroke="#000000" x="187.89898643190404" y="201.84774249436967" transform="matrix(0.3163268566131592,0,0,0.31632685661315924,-46.66464233398438,187.8689422607422)" svgjs:data="{&quot;leading&quot;:&quot;1.3&quot;}"><tspan dy="0" x="187.89898643190404" svgjs:data="{&quot;newLined&quot;:true}">PLAYER</tspan></text><image width="760" height="666" xlink:href="https://lct-designs.s3.us-west-1.amazonaws.com/assets/libs/gatorgirls-sofball-banner-1640682005966.png" class="asset" transform="matrix(0.052197445183992386,0,0,0.0521974451839924,12.713031768798828,258.2080078125)"></image><text fill="#ffffff" font-family="DEATHE MAACH NCV" font-size="45" stroke-opacity="0.9" stroke-width="1" stroke="#000000" x="187.89898643190404" y="201.84774249436967" transform="matrix(0.3163268566131592,0,0,0.31632685661315924,23.51465225219726,187.8689422607422)" svgjs:data="{&quot;leading&quot;:&quot;1.3&quot;}"><tspan dy="0" x="187.89898643190404" svgjs:data="{&quot;newLined&quot;:true}">PLAYER</tspan></text><image width="760" height="666" xlink:href="https://lct-designs.s3.us-west-1.amazonaws.com/assets/libs/gatorgirls-sofball-banner-1640682005966.png" class="asset" transform="matrix(0.05219746753573418,0,0,0.052197467535734184,82.89232635498047,258.2080078125)"></image><text fill="#ffffff" font-family="DEATHE MAACH NCV" font-size="45" stroke-opacity="0.9" stroke-width="1" stroke="#000000" x="187.89898643190404" y="201.84774249436967" transform="matrix(0.3163268566131592,0,0,0.31632685661315924,103.94119262695312,187.8689422607422)" svgjs:data="{&quot;leading&quot;:&quot;1.3&quot;}"><tspan dy="0" x="187.89898643190404" svgjs:data="{&quot;newLined&quot;:true}">PLAYER</tspan></text><image width="760" height="666" xlink:href="https://lct-designs.s3.us-west-1.amazonaws.com/assets/libs/gatorgirls-sofball-banner-1640682005966.png" class="asset" transform="matrix(0.05219746008515359,0,0,0.05219746008515359,163.3188629150391,258.2080078125)"></image><text fill="#ffffff" font-family="DEATHE MAACH NCV" font-size="45" stroke-opacity="0.9" stroke-width="1" stroke="#000000" x="187.89898643190404" y="201.84774249436967" transform="matrix(0.3163268566131592,0,0,0.31632685661315924,174.1204833984375,187.8689422607422)" svgjs:data="{&quot;leading&quot;:&quot;1.3&quot;}"><tspan dy="0" x="187.89898643190404" svgjs:data="{&quot;newLined&quot;:true}">PLAYER</tspan></text><image width="760" height="666" xlink:href="https://lct-designs.s3.us-west-1.amazonaws.com/assets/libs/gatorgirls-sofball-banner-1640682005966.png" class="asset" transform="matrix(0.05219748243689538,0,0,0.05219748243689538,233.49815368652344,258.2080078125)"></image><text fill="#ffffff" font-family="DEATHE MAACH NCV" font-size="45" stroke-opacity="0.9" stroke-width="1" stroke="#000000" x="187.89898643190404" y="201.84774249436967" transform="matrix(0.3163268566131592,0,0,0.31632685661315924,255.54824829101562,187.30650329589847)" svgjs:data="{&quot;leading&quot;:&quot;1.3&quot;}"><tspan dy="0" x="187.89898643190404" svgjs:data="{&quot;newLined&quot;:true}">PLAYER</tspan></text><image width="760" height="666" xlink:href="https://lct-designs.s3.us-west-1.amazonaws.com/assets/libs/gatorgirls-sofball-banner-1640682005966.png" class="asset" transform="matrix(0.05219748988747597,0,0,0.052197489887475974,314.9259033203125,257.6455688476563)"></image><image width="760" height="200" xlink:href="https://lct-designs.s3.us-west-1.amazonaws.com/assets/libs/rays-baseball-banner-1644572668162.png" class="asset" transform="matrix(0.44371482729911804,0,0,0.44371482729911815,77.39170837402344,142.63278198242188)"></image><image width="739" height="760" xlink:href="https://lct-designs.s3.us-west-1.amazonaws.com/assets/libs/rays-2-baseball-banner-1644572639398.png" class="asset" transform="matrix(0.13749922811985016,0,0,0.1374992281198502,393.2922058105469,183.40673828125003)"></image><text fill="#ffffff" font-family="DEATHE MAACH NCV" font-size="45" stroke-opacity="0.9" stroke-width="1" stroke="#000000" x="187.89898643190404" y="201.84774249436967" transform="matrix(0.3163268566131592,0,0,0.31632685661315924,230.36283111572266,32.63685607910156)" svgjs:data="{&quot;leading&quot;:&quot;1.3&quot;}"><tspan dy="0" x="187.89898643190404" svgjs:data="{&quot;newLined&quot;:true}">PLAYER</tspan></text><text fill="#ffffff" font-family="DEATHE MAACH NCV" font-size="45" stroke-opacity="0.9" stroke-width="1" stroke="#000000" x="187.89898643190404" y="201.84774249436967" transform="matrix(0.3163268566131592,0,0,0.31632685661315924,149.93629455566406,32.63685607910156)" svgjs:data="{&quot;leading&quot;:&quot;1.3&quot;}"><tspan dy="0" x="187.89898643190404" svgjs:data="{&quot;newLined&quot;:true}">PLAYER</tspan></text><image width="760" height="666" xlink:href="https://lct-designs.s3.us-west-1.amazonaws.com/assets/libs/gatorgirls-sofball-banner-1640682005966.png" class="asset" transform="matrix(0.052197486162185676,0,0,0.052197486162185676,209.31396484375,102.97592163085938)"></image><image width="760" height="666" xlink:href="https://lct-designs.s3.us-west-1.amazonaws.com/assets/libs/gatorgirls-sofball-banner-1640682005966.png" class="asset" transform="matrix(0.05219746753573418,0,0,0.052197467535734184,289.7405014038086,102.97592163085938)"></image><text fill="#ffffff" font-family="DEATHE MAACH NCV" font-size="45" stroke-opacity="0.9" stroke-width="1" stroke="#000000" x="187.89898643190404" y="201.84774249436967" transform="matrix(0.3163268566131592,0,0,0.31632685661315924,300.5421218872071,32.63685607910156)" svgjs:data="{&quot;leading&quot;:&quot;1.3&quot;}"><tspan dy="0" x="187.89898643190404" svgjs:data="{&quot;newLined&quot;:true}">PLAYER</tspan></text><image width="760" height="666" xlink:href="https://lct-designs.s3.us-west-1.amazonaws.com/assets/libs/gatorgirls-sofball-banner-1640682005966.png" class="asset" transform="matrix(0.05219748988747597,0,0,0.052197489887475974,359.91979217529297,102.97592163085938)"></image><text fill="#ffffff" font-family="DEATHE MAACH NCV" font-size="45" stroke-opacity="0.9" stroke-width="1" stroke="#000000" x="187.89898643190404" y="201.84774249436967" transform="matrix(0.3163268566131592,0,0,0.31632685661315924,381.9698867797852,32.07441711425781)" svgjs:data="{&quot;leading&quot;:&quot;1.3&quot;}"><tspan dy="0" x="187.89898643190404" svgjs:data="{&quot;newLined&quot;:true}">PLAYER</tspan></text><image width="760" height="666" xlink:href="https://lct-designs.s3.us-west-1.amazonaws.com/assets/libs/gatorgirls-sofball-banner-1640682005966.png" class="asset" transform="matrix(0.05219748988747597,0,0,0.052197489887475974,441.34754180908203,102.41348266601562)"></image><image width="760" height="666" xlink:href="https://lct-designs.s3.us-west-1.amazonaws.com/assets/libs/gatorgirls-sofball-banner-1640682005966.png" class="asset" transform="matrix(0.05219748988747597,0,0,0.052197489887475974,139.44984436035156,103.53836047649384)"></image><text fill="#ffffff" font-family="DEATHE MAACH NCV" font-size="45" stroke-opacity="0.9" stroke-width="1" stroke="#000000" x="187.89898643190404" y="201.84774249436967" transform="matrix(0.3163268566131592,0,0,0.31632685661315924,80.07217407226562,33.19929492473602)" svgjs:data="{&quot;leading&quot;:&quot;1.3&quot;}"><tspan dy="0" x="187.89898643190404" svgjs:data="{&quot;newLined&quot;:true}">PLAYER</tspan></text><text fill="#ffffff" font-family="DEATHE MAACH NCV" font-size="45" stroke-opacity="1" stroke-width="0" stroke="#ffffff" x="187.89898643190404" y="201.84774249436967" transform="matrix(0.33366161584854126,0,0,0.33366161584854126,-48.965763092041016,61.585304260253906)" svgjs:data="{&quot;leading&quot;:&quot;1.3&quot;}"><tspan dy="0" x="187.89898643190404" svgjs:data="{&quot;newLined&quot;:true}">team mom: name</tspan></text><g class="mask" style="pointer-events: none;"><g><path fill="#BCBEC0" d="M-3642.4-2101.7v4589.1h7813.4v-4589.1H-3642.4z M500.5,67.2v233.3v66.7H0.5v-66.7V67.2V0.5h500V67.2z" transform="matrix(1,0,0,1,0,0)"></path><g transform="matrix(1,0,0,1,0,0)">
	<rect x="0.5" y="300.5" opacity="0.95" fill="#F1F2F2" width="500" height="66.7"></rect>
	<rect x="0.5" y="0.5" opacity="0.95" fill="#F1F2F2" width="500" height="66.7"></rect>
</g></g></g></svg>