<svg xmlns="http://www.w3.org/2000/svg" version="1.1" xmlns:xlink="http://www.w3.org/1999/xlink" xmlns:svgjs="http://svgjs.dev/svgjs" width="100%" height="100%" viewBox="1 1 499 365.70001220703125" preserveAspectRatio="none" data-info="{&quot;_id&quot;:4,&quot;name&quot;:&quot;POLE POCKET SOCCER BANNERS&quot;,&quot;information&quot;:&quot;- Size: 3’x5’\n- Material: heavy duty vinyl banner\n- Digitally printed on vinyl&quot;,&quot;price&quot;:&quot;95.00&quot;,&quot;sale_price&quot;:&quot;89.99&quot;,&quot;type&quot;:&quot;pole-pocket&quot;,&quot;cover&quot;:{&quot;key&quot;:&quot;assets/models/pole-1628062864266-1631924568908.png&quot;,&quot;url&quot;:&quot;https://lct-designs.s3.us-west-1.amazonaws.com/assets/models/pole-1628062864266-1631924568908.png&quot;},&quot;back&quot;:{&quot;key&quot;:&quot;assets/models/pole-1631924700152.svg&quot;,&quot;url&quot;:&quot;https://lct-designs.s3.us-west-1.amazonaws.com/assets/models/pole-1631924700152.svg&quot;},&quot;mask&quot;:{&quot;key&quot;:&quot;assets/models/pole-mask-1631925211715.svg&quot;,&quot;url&quot;:&quot;https://lct-designs.s3.us-west-1.amazonaws.com/assets/models/pole-mask-1631925211715.svg&quot;},&quot;pos&quot;:&quot;2&quot;,&quot;accessories&quot;:&quot;2,3&quot;}" style="background-color: white;"><g class="model" style="pointer-events: none;"><polygon fill="#FFFFFF" points="0.5,0.5 0.5,67.2 0.5,300.5 0.5,367.2 500.5,367.2 500.5,300.5 500.5,67.2 500.5,0.5 "></polygon></g><image width="760" height="558" xlink:href="https://lct-designs.s3.us-west-1.amazonaws.com/assets/libs/tigers-3-baseball-banner-1641528706665.png" class="asset background locked" transform="matrix(0.6571684806577621,0,0,0.6571684806577621,0,0)"></image><text fill="#ffffff" font-family="American Captain" font-size="15" x="196.88662170311784" y="200.3250646744639" transform="matrix(1.1575788259506228,0,0,1.1575788259506226,143.18057250976565,58.46399688720703)" svgjs:data="{&quot;leading&quot;:&quot;1.3&quot;}"><tspan dy="0" x="196.88662170311784" svgjs:data="{&quot;newLined&quot;:true}">cOACH: COACH NAME</tspan></text><text fill="#ffffff" font-family="American Captain" font-size="15" x="196.88662170311784" y="200.3250646744639" transform="matrix(1.1575788259506228,0,0,1.1575788259506226,-100.2068328857422,58.464015960693374)" svgjs:data="{&quot;leading&quot;:&quot;1.3&quot;}"><tspan dy="0" x="196.88662170311784" svgjs:data="{&quot;newLined&quot;:true}">TEAM MOM: NAME</tspan></text><text fill="#ffffff" font-family="Impact" font-size="15" x="196.88662170311784" y="200.3250646744639" transform="matrix(0.9251373711191847,0,0,0.9251373711191846,-160.75996384386966,-93.7722207313609)" svgjs:data="{&quot;leading&quot;:&quot;1.3&quot;}"><tspan dy="0" x="196.88662170311784" svgjs:data="{&quot;newLined&quot;:true}">PLAYER</tspan></text><image width="744" height="760" xlink:href="https://lct-designs.s3.us-west-1.amazonaws.com/assets/libs/detroit-tigers-baseball-banner-5-1640685378718.png" class="asset" transform="matrix(0.037319188187007864,0,0,0.03731918818700786,25.84176654323938,96.90381994711515)"></image><text fill="#ffffff" font-family="Impact" font-size="15" x="196.88662170311784" y="200.3250646744639" transform="matrix(0.9251373711191847,0,0,0.9251373711191846,-85.18664681268277,-94.3939084529402)" svgjs:data="{&quot;leading&quot;:&quot;1.3&quot;}"><tspan dy="0" x="196.88662170311784" svgjs:data="{&quot;newLined&quot;:true}">PLAYER</tspan></text><image width="744" height="760" xlink:href="https://lct-designs.s3.us-west-1.amazonaws.com/assets/libs/detroit-tigers-baseball-banner-5-1640685378718.png" class="asset" transform="matrix(0.037319188187007864,0,0,0.03731918818700786,101.41508773933583,96.28213222553586)"></image><text fill="#ffffff" font-family="Impact" font-size="15" x="196.88662170311784" y="200.3250646744639" transform="matrix(0.9251373711191847,0,0,0.9251373711191846,-7.126583060088251,-94.3939084529402)" svgjs:data="{&quot;leading&quot;:&quot;1.3&quot;}"><tspan dy="0" x="196.88662170311784" svgjs:data="{&quot;newLined&quot;:true}">PLAYER</tspan></text><image width="744" height="760" xlink:href="https://lct-designs.s3.us-west-1.amazonaws.com/assets/libs/detroit-tigers-baseball-banner-5-1640685378718.png" class="asset" transform="matrix(0.037319188187007864,0,0,0.03731918818700786,179.4751473270208,96.28213222553586)"></image><image width="415" height="760" xlink:href="https://lct-designs.s3.us-west-1.amazonaws.com/assets/libs/tigers-3-baseball-banner--1641528938255.png" class="asset" transform="matrix(0.21164330840110782,0,0,0.21164330840110782,18.279182434082024,131.14878845214844)"></image><text fill="#ffffff" font-family="Impact" font-size="15" x="196.88662170311784" y="200.3250646744639" transform="matrix(0.9251373711191847,0,0,0.9251373711191846,-42.91203168203539,-28.49527651974767)" svgjs:data="{&quot;leading&quot;:&quot;1.3&quot;}"><tspan dy="0" x="196.88662170311784" svgjs:data="{&quot;newLined&quot;:true}">PLAYER</tspan></text><image width="744" height="760" xlink:href="https://lct-designs.s3.us-west-1.amazonaws.com/assets/libs/detroit-tigers-baseball-banner-5-1640685378718.png" class="asset" transform="matrix(0.037319188187007864,0,0,0.03731918818700786,143.6896945401641,162.18077248854755)"></image><text fill="#ffffff" font-family="Impact" font-size="15" x="196.88662170311784" y="200.3250646744639" transform="matrix(0.9251373711191847,0,0,0.9251373711191846,32.66128534915152,-29.11696424132697)" svgjs:data="{&quot;leading&quot;:&quot;1.3&quot;}"><tspan dy="0" x="196.88662170311784" svgjs:data="{&quot;newLined&quot;:true}">PLAYER</tspan></text><image width="744" height="760" xlink:href="https://lct-designs.s3.us-west-1.amazonaws.com/assets/libs/detroit-tigers-baseball-banner-5-1640685378718.png" class="asset" transform="matrix(0.037319188187007864,0,0,0.03731918818700786,219.263011571351,161.55906810732995)"></image><text fill="#ffffff" font-family="Impact" font-size="15" x="196.88662170311784" y="200.3250646744639" transform="matrix(0.9251373711191847,0,0,0.9251373711191846,110.72135326665557,-29.11696424132697)" svgjs:data="{&quot;leading&quot;:&quot;1.3&quot;}"><tspan dy="0" x="196.88662170311784" svgjs:data="{&quot;newLined&quot;:true}">PLAYER</tspan></text><image width="744" height="760" xlink:href="https://lct-designs.s3.us-west-1.amazonaws.com/assets/libs/detroit-tigers-baseball-banner-5-1640685378718.png" class="asset" transform="matrix(0.037319188187007864,0,0,0.03731918818700786,297.32307948885506,161.55906810732995)"></image><text fill="#ffffff" font-family="Impact" font-size="15" x="196.88662170311784" y="200.3250646744639" transform="matrix(0.9251373711191847,0,0,0.9251373711191846,76.25639338854126,-92.5288619478406)" svgjs:data="{&quot;leading&quot;:&quot;1.3&quot;}"><tspan dy="0" x="196.88662170311784" svgjs:data="{&quot;newLined&quot;:true}">PLAYER</tspan></text><image width="744" height="760" xlink:href="https://lct-designs.s3.us-west-1.amazonaws.com/assets/libs/detroit-tigers-baseball-banner-5-1640685378718.png" class="asset" transform="matrix(0.037319188187007864,0,0,0.03731918818700786,262.85811961074074,98.14717040081632)"></image><text fill="#ffffff" font-family="Impact" font-size="15" x="196.88662170311784" y="200.3250646744639" transform="matrix(0.9251373711191847,0,0,0.9251373711191846,-61.83488181885879,38.02505979466241)" svgjs:data="{&quot;leading&quot;:&quot;1.3&quot;}"><tspan dy="0" x="196.88662170311784" svgjs:data="{&quot;newLined&quot;:true}">PLAYER</tspan></text><image width="744" height="760" xlink:href="https://lct-designs.s3.us-west-1.amazonaws.com/assets/libs/detroit-tigers-baseball-banner-5-1640685378718.png" class="asset" transform="matrix(0.037319188187007864,0,0,0.03731918818700786,124.76684440334068,228.70110880295758)"></image><text fill="#ffffff" font-family="Impact" font-size="15" x="196.88662170311784" y="200.3250646744639" transform="matrix(0.9251373711191847,0,0,0.9251373711191846,13.738435212328106,37.40337207308313)" svgjs:data="{&quot;leading&quot;:&quot;1.3&quot;}"><tspan dy="0" x="196.88662170311784" svgjs:data="{&quot;newLined&quot;:true}">PLAYER</tspan></text><image width="744" height="760" xlink:href="https://lct-designs.s3.us-west-1.amazonaws.com/assets/libs/detroit-tigers-baseball-banner-5-1640685378718.png" class="asset" transform="matrix(0.037319188187007864,0,0,0.03731918818700786,200.3401614345276,228.07940442174007)"></image><text fill="#ffffff" font-family="Impact" font-size="15" x="196.88662170311784" y="200.3250646744639" transform="matrix(0.9251373711191847,0,0,0.9251373711191846,91.7985031298322,37.40337207308313)" svgjs:data="{&quot;leading&quot;:&quot;1.3&quot;}"><tspan dy="0" x="196.88662170311784" svgjs:data="{&quot;newLined&quot;:true}">PLAYER</tspan></text><image width="744" height="760" xlink:href="https://lct-designs.s3.us-west-1.amazonaws.com/assets/libs/detroit-tigers-baseball-banner-5-1640685378718.png" class="asset" transform="matrix(0.037319188187007864,0,0,0.03731918818700786,278.40022935203166,228.07940442174007)"></image><image width="623" height="760" xlink:href="https://lct-designs.s3.us-west-1.amazonaws.com/assets/libs/tigers-3-baseball-banner-1641529053370.png" class="asset" transform="matrix(0.239465743303299,0,0,0.23946574330329895,331.9495239257813,82.67251586914062)"></image><g class="mask" style="pointer-events: none;"><g><path fill="#BCBEC0" d="M-3642.4-2101.7v4589.1h7813.4v-4589.1H-3642.4z M500.5,67.2v233.3v66.7H0.5v-66.7V67.2V0.5h500V67.2z" transform="matrix(1,0,0,1,0,0)"></path><g transform="matrix(1,0,0,1,0,0)">
	<rect x="0.5" y="300.5" opacity="0.95" fill="#F1F2F2" width="500" height="66.7"></rect>
	<rect x="0.5" y="0.5" opacity="0.95" fill="#F1F2F2" width="500" height="66.7"></rect>
</g></g></g></svg>