<svg xmlns="http://www.w3.org/2000/svg" version="1.1" xmlns:xlink="http://www.w3.org/1999/xlink" xmlns:svgjs="http://svgjs.dev/svgjs" width="100%" height="100%" viewBox="1 1 499 365.70001220703125" preserveAspectRatio="none" data-info="{&quot;_id&quot;:4,&quot;name&quot;:&quot;POLE POCKET SOCCER BANNERS&quot;,&quot;information&quot;:&quot;- Size: 3’x5’\n- Material: heavy duty vinyl banner\n- Digitally printed on vinyl&quot;,&quot;price&quot;:&quot;95.00&quot;,&quot;sale_price&quot;:&quot;89.99&quot;,&quot;type&quot;:&quot;pole-pocket&quot;,&quot;cover&quot;:{&quot;key&quot;:&quot;assets/models/pole-1628062864266-1631924568908.png&quot;,&quot;url&quot;:&quot;https://lct-designs.s3.us-west-1.amazonaws.com/assets/models/pole-1628062864266-1631924568908.png&quot;},&quot;back&quot;:{&quot;key&quot;:&quot;assets/models/pole-1631924700152.svg&quot;,&quot;url&quot;:&quot;https://lct-designs.s3.us-west-1.amazonaws.com/assets/models/pole-1631924700152.svg&quot;},&quot;mask&quot;:{&quot;key&quot;:&quot;assets/models/pole-mask-1631925211715.svg&quot;,&quot;url&quot;:&quot;https://lct-designs.s3.us-west-1.amazonaws.com/assets/models/pole-mask-1631925211715.svg&quot;},&quot;pos&quot;:&quot;2&quot;,&quot;accessories&quot;:&quot;2,3&quot;}" style="background-color: white;"><g class="model" style="pointer-events: none;"><polygon fill="#FFFFFF" points="0.5,0.5 0.5,67.2 0.5,300.5 0.5,367.2 500.5,367.2 500.5,300.5 500.5,67.2 500.5,0.5 "></polygon></g><image width="760" height="553" xlink:href="https://lct-designs.s3.us-west-1.amazonaws.com/assets/libs/royals-2-baseball-banner-1644823723066.png" class="asset background locked" transform="matrix(0.6631103294883024,0,0,0.6631103294883024,0,0)"></image><text fill="#ffffff" font-family="American Captain" font-size="15" x="196.88662170311784" y="200.3250646744639" transform="matrix(1.1575788259506226,0,0,1.1575788259506228,-215.2983093261719,-116.91429901123048)" svgjs:data="{&quot;leading&quot;:&quot;1.3&quot;}"><tspan dy="0" x="196.88662170311784" svgjs:data="{&quot;newLined&quot;:true}">PLAYER</tspan></text><image width="699" height="760" xlink:href="https://lct-designs.s3.us-west-1.amazonaws.com/assets/libs/royals-2-asset-3-1644635805183.png" class="asset" transform="matrix(0.04737287759780884,0,0,0.047372877597808845,14.681110382080078,121.04503631591797)"></image><text fill="#ffffff" font-family="American Captain" font-size="15" x="196.88662170311784" y="200.3250646744639" transform="matrix(1.1575788259506226,0,0,1.1575788259506228,-213.83946228027344,-52.570976257324226)" svgjs:data="{&quot;leading&quot;:&quot;1.3&quot;}"><tspan dy="0" x="196.88662170311784" svgjs:data="{&quot;newLined&quot;:true}">PLAYER</tspan></text><image width="699" height="760" xlink:href="https://lct-designs.s3.us-west-1.amazonaws.com/assets/libs/royals-2-asset-3-1644635805183.png" class="asset" transform="matrix(0.047372881323099136,0,0,0.047372881323099136,16.139965057373047,185.38836669921878)"></image><text fill="#ffffff" font-family="American Captain" font-size="15" x="196.88662170311784" y="200.3250646744639" transform="matrix(1.1575788259506226,0,0,1.1575788259506228,-214.65824890136722,10.633537292480469)" svgjs:data="{&quot;leading&quot;:&quot;1.3&quot;}"><tspan dy="0" x="196.88662170311784" svgjs:data="{&quot;newLined&quot;:true}">PLAYER</tspan></text><image width="699" height="760" xlink:href="https://lct-designs.s3.us-west-1.amazonaws.com/assets/libs/royals-2-asset-3-1644635805183.png" class="asset" transform="matrix(0.047372881323099136,0,0,0.047372881323099136,15.321178436279297,248.59288024902347)"></image><text fill="#ffffff" font-family="American Captain" font-size="15" x="196.88662170311784" y="200.3250646744639" transform="matrix(1.1575788259506226,0,0,1.1575788259506228,-136.9691162109375,-116.91429901123048)" svgjs:data="{&quot;leading&quot;:&quot;1.3&quot;}"><tspan dy="0" x="196.88662170311784" svgjs:data="{&quot;newLined&quot;:true}">PLAYER</tspan></text><image width="699" height="760" xlink:href="https://lct-designs.s3.us-west-1.amazonaws.com/assets/libs/royals-2-asset-3-1644635805183.png" class="asset" transform="matrix(0.04737287759780884,0,0,0.047372877597808845,93.01030731201172,121.04503631591797)"></image><text fill="#ffffff" font-family="Impact" font-size="17" x="171.11704890611696" y="190.126202498439" transform="matrix(0.7778858542442323,0,0,0.7778858542442322,-119.97661590576175,-58.15846252441406)" svgjs:data="{&quot;leading&quot;:&quot;1.3&quot;}"><tspan dy="0" x="171.11704890611696" svgjs:data="{&quot;newLined&quot;:true}">Team mom: name</tspan></text><image width="466" height="760" xlink:href="https://lct-designs.s3.us-west-1.amazonaws.com/assets/libs/royals-2-baseball-banner-1644635805183.png" class="asset" transform="matrix(0.23701055347919464,-0.00007594304770464079,0.0000759430477046408,0.23701055347919467,371.2409057617188,102.90493774414065)"></image><text fill="#ffffff" font-family="Impact" font-size="17" x="171.11704890611696" y="190.126202498439" transform="matrix(0.7778858542442323,0,0,0.7778858542442322,126.32852935791018,-58.15846252441406)" svgjs:data="{&quot;leading&quot;:&quot;1.3&quot;}"><tspan dy="0" x="171.11704890611696" svgjs:data="{&quot;newLined&quot;:true}">Coach: Coach name</tspan></text><image width="760" height="760" xlink:href="https://lct-designs.s3.us-west-1.amazonaws.com/assets/libs/royals-baseball-banner-1644572668162.png" class="asset" transform="matrix(0.1885191947221756,0,0,0.18851919472217563,151.60017395019528,112.85125732421875)"></image><text fill="#ffffff" font-family="American Captain" font-size="15" x="196.88662170311784" y="200.3250646744639" transform="matrix(1.1575788259506226,0,0,1.1575788259506228,-135.51026153564453,-52.570976257324226)" svgjs:data="{&quot;leading&quot;:&quot;1.3&quot;}"><tspan dy="0" x="196.88662170311784" svgjs:data="{&quot;newLined&quot;:true}">PLAYER</tspan></text><image width="699" height="760" xlink:href="https://lct-designs.s3.us-west-1.amazonaws.com/assets/libs/royals-2-asset-3-1644635805183.png" class="asset" transform="matrix(0.047372881323099136,0,0,0.047372881323099136,94.46916198730469,185.38835906982422)"></image><text fill="#ffffff" font-family="American Captain" font-size="15" x="196.88662170311784" y="200.3250646744639" transform="matrix(1.1575788259506226,0,0,1.1575788259506228,-136.32904052734375,10.633537292480469)" svgjs:data="{&quot;leading&quot;:&quot;1.3&quot;}"><tspan dy="0" x="196.88662170311784" svgjs:data="{&quot;newLined&quot;:true}">PLAYER</tspan></text><image width="699" height="760" xlink:href="https://lct-designs.s3.us-west-1.amazonaws.com/assets/libs/royals-2-asset-3-1644635805183.png" class="asset" transform="matrix(0.047372881323099136,0,0,0.047372881323099136,93.65037536621094,248.59288024902347)"></image><text fill="#ffffff" font-family="American Captain" font-size="15" x="196.88662170311784" y="200.3250646744639" transform="matrix(1.1575788259506226,0,0,1.1575788259506228,81.68426513671872,-115.77547454833987)" svgjs:data="{&quot;leading&quot;:&quot;1.3&quot;}"><tspan dy="0" x="196.88662170311784" svgjs:data="{&quot;newLined&quot;:true}">PLAYER</tspan></text><image width="699" height="760" xlink:href="https://lct-designs.s3.us-west-1.amazonaws.com/assets/libs/royals-2-asset-3-1644635805183.png" class="asset" transform="matrix(0.047372881323099136,0,0,0.047372881323099136,311.6636848449707,122.1838607788086)"></image><text fill="#ffffff" font-family="American Captain" font-size="15" x="196.88662170311784" y="200.3250646744639" transform="matrix(1.1575788259506226,0,0,1.1575788259506228,83.14311218261719,-51.4321517944336)" svgjs:data="{&quot;leading&quot;:&quot;1.3&quot;}"><tspan dy="0" x="196.88662170311784" svgjs:data="{&quot;newLined&quot;:true}">PLAYER</tspan></text><image width="699" height="760" xlink:href="https://lct-designs.s3.us-west-1.amazonaws.com/assets/libs/royals-2-asset-3-1644635805183.png" class="asset" transform="matrix(0.047372881323099136,0,0,0.047372881323099136,313.1225395202637,186.5271911621094)"></image><text fill="#ffffff" font-family="American Captain" font-size="15" x="196.88662170311784" y="200.3250646744639" transform="matrix(1.1575788259506226,0,0,1.1575788259506228,82.32432556152341,11.772361755371094)" svgjs:data="{&quot;leading&quot;:&quot;1.3&quot;}"><tspan dy="0" x="196.88662170311784" svgjs:data="{&quot;newLined&quot;:true}">PLAYER</tspan></text><image width="699" height="760" xlink:href="https://lct-designs.s3.us-west-1.amazonaws.com/assets/libs/royals-2-asset-3-1644635805183.png" class="asset" transform="matrix(0.047372881323099136,0,0,0.047372881323099136,312.3037528991699,249.7317047119141)"></image><g class="mask" style="pointer-events: none;"><g><path fill="#BCBEC0" d="M-3642.4-2101.7v4589.1h7813.4v-4589.1H-3642.4z M500.5,67.2v233.3v66.7H0.5v-66.7V67.2V0.5h500V67.2z" transform="matrix(1,0,0,1,0,0)"></path><g transform="matrix(1,0,0,1,0,0)">
	<rect x="0.5" y="300.5" opacity="0.95" fill="#F1F2F2" width="500" height="66.7"></rect>
	<rect x="0.5" y="0.5" opacity="0.95" fill="#F1F2F2" width="500" height="66.7"></rect>
</g></g></g></svg>