<svg xmlns="http://www.w3.org/2000/svg" version="1.1" xmlns:xlink="http://www.w3.org/1999/xlink" xmlns:svgjs="http://svgjs.dev/svgjs" width="100%" height="100%" viewBox="1 1 499 365.70001220703125" preserveAspectRatio="none" data-info="{&quot;_id&quot;:4,&quot;name&quot;:&quot;POLE POCKET SOCCER BANNERS&quot;,&quot;information&quot;:&quot;- Size: 3’x5’\n- Material: heavy duty vinyl banner\n- Digitally printed on vinyl&quot;,&quot;price&quot;:&quot;95.00&quot;,&quot;sale_price&quot;:&quot;89.99&quot;,&quot;type&quot;:&quot;pole-pocket&quot;,&quot;cover&quot;:{&quot;key&quot;:&quot;assets/models/pole-1628062864266-1631924568908.png&quot;,&quot;url&quot;:&quot;https://lct-designs.s3.us-west-1.amazonaws.com/assets/models/pole-1628062864266-1631924568908.png&quot;},&quot;back&quot;:{&quot;key&quot;:&quot;assets/models/pole-1631924700152.svg&quot;,&quot;url&quot;:&quot;https://lct-designs.s3.us-west-1.amazonaws.com/assets/models/pole-1631924700152.svg&quot;},&quot;mask&quot;:{&quot;key&quot;:&quot;assets/models/pole-mask-1631925211715.svg&quot;,&quot;url&quot;:&quot;https://lct-designs.s3.us-west-1.amazonaws.com/assets/models/pole-mask-1631925211715.svg&quot;},&quot;pos&quot;:&quot;2&quot;,&quot;accessories&quot;:&quot;2,3&quot;}" style="background-color: white;"><g class="model" style="pointer-events: none;"><polygon fill="#FFFFFF" points="0.5,0.5 0.5,67.2 0.5,300.5 0.5,367.2 500.5,367.2 500.5,300.5 500.5,67.2 500.5,0.5 "></polygon></g><image width="760" height="556" xlink:href="https://lct-designs.s3.us-west-1.amazonaws.com/assets/libs/phillies-5-softball-banner-1640684505242.png" class="asset background locked" transform="matrix(0.6595323960558116,0,0,0.6595323960558116,0,0)"></image><text fill="#ffffff" font-family="Cooper" font-size="45" stroke-opacity="1" stroke-width="0" stroke="#ffffff" x="187.88715269305678" y="200.64758809656152" transform="matrix(0.3249327540397644,0,0,0.32493275403976446,283.8853759765625,21.591480255126953)" svgjs:data="{&quot;leading&quot;:&quot;1.3&quot;}"><tspan dy="0" x="187.88715269305678" svgjs:data="{&quot;newLined&quot;:true}">Coach: Coach name</tspan></text><image width="760" height="708" xlink:href="https://lct-designs.s3.us-west-1.amazonaws.com/assets/libs/phillies-teamname-1645071957574.png" class="asset" transform="matrix(0.23693434894084933,0,0,0.23693434894084933,160.71072387695315,100.32881927490237)"></image><text fill="#ffffff" font-family="Cooper" font-size="45" stroke-opacity="1" stroke-width="0" stroke="#ffffff" x="187.88715269305678" y="200.64758809656152" transform="matrix(0.3249327540397644,0,0,0.32493275403976446,-46.0522346496582,22.160871505737305)" svgjs:data="{&quot;leading&quot;:&quot;1.3&quot;}"><tspan dy="0" x="187.88715269305678" svgjs:data="{&quot;newLined&quot;:true}">Team mom: Name</tspan></text><text fill="#ffffff" font-family="Cooper" font-size="45" stroke-opacity="1" stroke-width="0" stroke="#ffffff" x="187.88715269305678" y="200.64758809656152" transform="matrix(0.24171063303947452,0,0,0.24171063303947452,-30.24740600585938,57.45140075683594)" svgjs:data="{&quot;leading&quot;:&quot;1.3&quot;}"><tspan dy="0" x="187.88715269305678" svgjs:data="{&quot;newLined&quot;:true}">PLAYER</tspan></text><image width="760" height="532" xlink:href="https://lct-designs.s3.us-west-1.amazonaws.com/assets/libs/phillies-5-softball-banner-1640683677760.png" class="asset" transform="matrix(0.049165911972522736,0,0,0.04916591197252274,22.913543701171882,110.19955444335938)"></image><image width="298" height="760" xlink:href="https://lct-designs.s3.us-west-1.amazonaws.com/assets/libs/phillies-5-softball-banner-1640683757132.png" class="asset" transform="matrix(0.23347200453281403,0,0,0.23347200453281405,110.93092346191409,102.60186767578128)"></image><text fill="#ffffff" font-family="Cooper" font-size="45" stroke-opacity="1" stroke-width="0" stroke="#ffffff" x="187.88715269305678" y="200.64758809656152" transform="matrix(0.24171063303947452,0,0,0.24171063303947452,24.166564941406243,107.55947875976562)" svgjs:data="{&quot;leading&quot;:&quot;1.3&quot;}"><tspan dy="0" x="187.88715269305678" svgjs:data="{&quot;newLined&quot;:true}">PLAYER</tspan></text><image width="760" height="532" xlink:href="https://lct-designs.s3.us-west-1.amazonaws.com/assets/libs/phillies-5-softball-banner-1640683677760.png" class="asset" transform="matrix(0.04916593804955483,0,0,0.04916593804955483,77.3275146484375,160.3076324462891)"></image><text fill="#ffffff" font-family="Cooper" font-size="45" stroke-opacity="1" stroke-width="0" stroke="#ffffff" x="187.88715269305678" y="200.64758809656152" transform="matrix(0.24171063303947452,0,0,0.24171063303947452,-34.4119987487793,142.86289978027344)" svgjs:data="{&quot;leading&quot;:&quot;1.3&quot;}"><tspan dy="0" x="187.88715269305678" svgjs:data="{&quot;newLined&quot;:true}">PLAYER</tspan></text><image width="760" height="532" xlink:href="https://lct-designs.s3.us-west-1.amazonaws.com/assets/libs/phillies-5-softball-banner-1640683677760.png" class="asset" transform="matrix(0.04916594922542573,0,0,0.04916594922542573,18.748950958251946,195.6110534667969)"></image><text fill="#ffffff" font-family="Cooper" font-size="45" stroke-opacity="1" stroke-width="0" stroke="#ffffff" x="187.88715269305678" y="200.64758809656152" transform="matrix(0.24171063303947452,0,0,0.24171063303947452,-31.244915008544925,214.60855102539065)" svgjs:data="{&quot;leading&quot;:&quot;1.3&quot;}"><tspan dy="0" x="187.88715269305678" svgjs:data="{&quot;newLined&quot;:true}">PLAYER</tspan></text><image width="760" height="532" xlink:href="https://lct-designs.s3.us-west-1.amazonaws.com/assets/libs/phillies-5-softball-banner-1640683677760.png" class="asset" transform="matrix(0.04916595667600632,0,0,0.04916595667600632,21.91603469848632,267.35670471191406)"></image><text fill="#ffffff" font-family="Cooper" font-size="45" stroke-opacity="1" stroke-width="0" stroke="#ffffff" x="187.88715269305678" y="200.64758809656152" transform="matrix(0.24171063303947452,0,0,0.24171063303947452,27.724334716796882,182.15217590332034)" svgjs:data="{&quot;leading&quot;:&quot;1.3&quot;}"><tspan dy="0" x="187.88715269305678" svgjs:data="{&quot;newLined&quot;:true}">PLAYER</tspan></text><image width="760" height="532" xlink:href="https://lct-designs.s3.us-west-1.amazonaws.com/assets/libs/phillies-5-softball-banner-1640683677760.png" class="asset" transform="matrix(0.049165964126586914,0,0,0.049165964126586914,80.88528442382812,234.90031433105466)"></image><text fill="#ffffff" font-family="Cooper" font-size="45" stroke-opacity="1" stroke-width="0" stroke="#ffffff" x="187.88715269305678" y="200.64758809656152" transform="matrix(0.24171063303947452,0,0,0.24171063303947452,300.22229003906256,65.42314147949219)" svgjs:data="{&quot;leading&quot;:&quot;1.3&quot;}"><tspan dy="0" x="187.88715269305678" svgjs:data="{&quot;newLined&quot;:true}">PLAYER</tspan></text><image width="760" height="532" xlink:href="https://lct-designs.s3.us-west-1.amazonaws.com/assets/libs/phillies-5-softball-banner-1640683677760.png" class="asset" transform="matrix(0.04916597902774811,0,0,0.049165979027748115,353.38323974609375,118.17127990722656)"></image><text fill="#ffffff" font-family="Cooper" font-size="45" stroke-opacity="1" stroke-width="0" stroke="#ffffff" x="187.88715269305678" y="200.64758809656152" transform="matrix(0.24171063303947452,0,0,0.24171063303947452,394.4949340820313,65.42314147949219)" svgjs:data="{&quot;leading&quot;:&quot;1.3&quot;}"><tspan dy="0" x="187.88715269305678" svgjs:data="{&quot;newLined&quot;:true}">PLAYER</tspan></text><image width="760" height="532" xlink:href="https://lct-designs.s3.us-west-1.amazonaws.com/assets/libs/phillies-5-softball-banner-1640683677760.png" class="asset" transform="matrix(0.049165986478328705,0,0,0.04916598647832871,447.6558837890625,118.17127990722656)"></image><text fill="#ffffff" font-family="Cooper" font-size="45" stroke-opacity="1" stroke-width="0" stroke="#ffffff" x="187.88715269305678" y="200.64758809656152" transform="matrix(0.24171063303947452,0,0,0.24171063303947452,303.38940429687506,129.76644897460938)" svgjs:data="{&quot;leading&quot;:&quot;1.3&quot;}"><tspan dy="0" x="187.88715269305678" svgjs:data="{&quot;newLined&quot;:true}">PLAYER</tspan></text><image width="760" height="532" xlink:href="https://lct-designs.s3.us-west-1.amazonaws.com/assets/libs/phillies-5-softball-banner-1640683677760.png" class="asset" transform="matrix(0.0491659939289093,0,0,0.04916599392890931,356.55035400390625,182.51458740234378)"></image><text fill="#ffffff" font-family="Cooper" font-size="45" stroke-opacity="1" stroke-width="0" stroke="#ffffff" x="187.88715269305678" y="200.64758809656152" transform="matrix(0.24171063303947452,0,0,0.24171063303947452,397.6620483398438,129.76644897460938)" svgjs:data="{&quot;leading&quot;:&quot;1.3&quot;}"><tspan dy="0" x="187.88715269305678" svgjs:data="{&quot;newLined&quot;:true}">PLAYER</tspan></text><image width="760" height="532" xlink:href="https://lct-designs.s3.us-west-1.amazonaws.com/assets/libs/phillies-5-softball-banner-1640683677760.png" class="asset" transform="matrix(0.049166001379489906,0,0,0.049166001379489906,450.822998046875,182.51458740234378)"></image><text fill="#ffffff" font-family="Cooper" font-size="45" stroke-opacity="1" stroke-width="0" stroke="#ffffff" x="187.88715269305678" y="200.64758809656152" transform="matrix(0.24171063303947452,0,0,0.24171063303947452,290.6130065917969,194.67919921875003)" svgjs:data="{&quot;leading&quot;:&quot;1.3&quot;}"><tspan dy="0" x="187.88715269305678" svgjs:data="{&quot;newLined&quot;:true}">PLAYER</tspan></text><image width="760" height="532" xlink:href="https://lct-designs.s3.us-west-1.amazonaws.com/assets/libs/phillies-5-softball-banner-1640683677760.png" class="asset" transform="matrix(0.0491659939289093,0,0,0.04916599392890931,343.7739562988281,247.4273376464844)"></image><text fill="#ffffff" font-family="Cooper" font-size="45" stroke-opacity="1" stroke-width="0" stroke="#ffffff" x="187.88715269305678" y="200.64758809656152" transform="matrix(0.24171063303947452,0,0,0.24171063303947452,384.8856506347656,194.67919921875003)" svgjs:data="{&quot;leading&quot;:&quot;1.3&quot;}"><tspan dy="0" x="187.88715269305678" svgjs:data="{&quot;newLined&quot;:true}">PLAYER</tspan></text><image width="760" height="532" xlink:href="https://lct-designs.s3.us-west-1.amazonaws.com/assets/libs/phillies-5-softball-banner-1640683677760.png" class="asset" transform="matrix(0.049166001379489906,0,0,0.049166001379489906,438.04660034179693,247.4273376464844)"></image><g class="mask" style="pointer-events: none;"><g><path fill="#BCBEC0" d="M-3642.4-2101.7v4589.1h7813.4v-4589.1H-3642.4z M500.5,67.2v233.3v66.7H0.5v-66.7V67.2V0.5h500V67.2z" transform="matrix(1,0,0,1,0,0)"></path><g transform="matrix(1,0,0,1,0,0)">
	<rect x="0.5" y="300.5" opacity="0.95" fill="#F1F2F2" width="500" height="66.7"></rect>
	<rect x="0.5" y="0.5" opacity="0.95" fill="#F1F2F2" width="500" height="66.7"></rect>
</g></g></g></svg>