<svg xmlns="http://www.w3.org/2000/svg" version="1.1" xmlns:xlink="http://www.w3.org/1999/xlink" xmlns:svgjs="http://svgjs.dev/svgjs" width="100%" height="100%" viewBox="1 1 499 365.70001220703125" preserveAspectRatio="none" data-info="{&quot;_id&quot;:4,&quot;name&quot;:&quot;POLE POCKET SOCCER BANNERS&quot;,&quot;information&quot;:&quot;- Size: 3’x5’\n- Material: heavy duty vinyl banner\n- Digitally printed on vinyl&quot;,&quot;price&quot;:&quot;95.00&quot;,&quot;sale_price&quot;:&quot;89.99&quot;,&quot;type&quot;:&quot;pole-pocket&quot;,&quot;cover&quot;:{&quot;key&quot;:&quot;assets/models/pole-1628062864266-1631924568908.png&quot;,&quot;url&quot;:&quot;https://lct-designs.s3.us-west-1.amazonaws.com/assets/models/pole-1628062864266-1631924568908.png&quot;},&quot;back&quot;:{&quot;key&quot;:&quot;assets/models/pole-1631924700152.svg&quot;,&quot;url&quot;:&quot;https://lct-designs.s3.us-west-1.amazonaws.com/assets/models/pole-1631924700152.svg&quot;},&quot;mask&quot;:{&quot;key&quot;:&quot;assets/models/pole-mask-1631925211715.svg&quot;,&quot;url&quot;:&quot;https://lct-designs.s3.us-west-1.amazonaws.com/assets/models/pole-mask-1631925211715.svg&quot;},&quot;pos&quot;:&quot;2&quot;,&quot;accessories&quot;:&quot;2,3&quot;}" style="background-color: white;"><g class="model" style="pointer-events: none;"><polygon fill="#FFFFFF" points="0.5,0.5 0.5,67.2 0.5,300.5 0.5,367.2 500.5,367.2 500.5,300.5 500.5,67.2 500.5,0.5 "></polygon></g><image width="760" height="553" xlink:href="https://lct-designs.s3.us-west-1.amazonaws.com/assets/libs/pittsburgh-pirates-2-baseball-banner-1641450463890.png" class="asset background locked" transform="matrix(0.6631103294883024,0,0,0.6631103294883024,0,0)"></image><text fill="#ffffff" font-family="UTM Rockwell" font-size="45" stroke-opacity="1" stroke-width="0" stroke="#ffffff" x="187.89898643190404" y="201.84774249436967" transform="matrix(0.33366161584854126,0,0,0.33366161584854126,-51.09185791015626,226.94119453430181)" svgjs:data="{&quot;leading&quot;:&quot;1.3&quot;}"><tspan dy="0" x="187.89898643190404" svgjs:data="{&quot;newLined&quot;:true}">Coach: Coach name</tspan></text><text fill="#ffffff" font-family="UTM Rockwell" font-size="45" stroke-opacity="1" stroke-width="0" stroke="#ffffff" x="187.89898643190404" y="201.84774249436967" transform="matrix(0.33366161584854126,0,0,0.33366161584854126,258.11732482910156,227.50362777709967)" svgjs:data="{&quot;leading&quot;:&quot;1.3&quot;}"><tspan dy="0" x="187.89898643190404" svgjs:data="{&quot;newLined&quot;:true}">Team mom: name</tspan></text><image width="760" height="666" xlink:href="https://lct-designs.s3.us-west-1.amazonaws.com/assets/libs/pittsburgh-pirates-2-baseball-banner-1641450725816.png" class="asset" transform="matrix(0.21518290042877197,0,0,0.215182900428772,5.402174949645996,132.22256469726562)"></image><image width="760" height="644" xlink:href="https://lct-designs.s3.us-west-1.amazonaws.com/assets/libs/pittsburgh-pirates-2-baseball-banner-1641450760494.png" class="asset" transform="matrix(0.04861235991120339,0,0,0.04861235991120339,165.0741424560547,239.97015380859375)"></image><text fill="#ffea00" font-family="UTM Rockwell" font-size="45" stroke-opacity="1" stroke-width="1" stroke="#000000" x="187.89898643190404" y="201.84774249436967" transform="matrix(0.2747897505760193,0,0,0.27478975057601934,149.20384216308594,204.54939270019537)" svgjs:data="{&quot;leading&quot;:&quot;1.3&quot;}"><tspan dy="0" x="187.89898643190404" svgjs:data="{&quot;newLined&quot;:true}">PLAYER</tspan></text><image width="760" height="760" xlink:href="https://lct-designs.s3.us-west-1.amazonaws.com/assets/libs/pittsburgh-pirates-3-baseball-banner-1641348714765.png" class="asset" transform="matrix(0.15081989765167236,0,0,0.1508198976516724,370.9764099121094,81.6059799194336)"></image><text fill="#ffea00" font-family="UTM Rockwell" font-size="45" stroke-opacity="1" stroke-width="1" stroke="#000000" x="187.89898643190404" y="201.84774249436967" transform="matrix(0.2747897505760193,0,0,0.27478975057601934,-4.282077789306641,46.50514602661133)" svgjs:data="{&quot;leading&quot;:&quot;1.3&quot;}"><tspan dy="0" x="187.89898643190404" svgjs:data="{&quot;newLined&quot;:true}">PLAYER</tspan></text><image width="760" height="644" xlink:href="https://lct-designs.s3.us-west-1.amazonaws.com/assets/libs/pittsburgh-pirates-2-baseball-banner-1641450760494.png" class="asset" transform="matrix(0.048612356185913086,0,0,0.04861235618591309,11.588188171386719,81.92591857910159)"></image><image width="760" height="644" xlink:href="https://lct-designs.s3.us-west-1.amazonaws.com/assets/libs/pittsburgh-pirates-2-baseball-banner-1641450760494.png" class="asset" transform="matrix(0.04861235991120339,0,0,0.04861235991120339,130.13589477539062,80.8010482788086)"></image><text fill="#ffea00" font-family="UTM Rockwell" font-size="45" stroke-opacity="1" stroke-width="1" stroke="#000000" x="187.89898643190404" y="201.84774249436967" transform="matrix(0.2747897505760193,0,0,0.27478975057601934,114.265625,45.38027572631836)" svgjs:data="{&quot;leading&quot;:&quot;1.3&quot;}"><tspan dy="0" x="187.89898643190404" svgjs:data="{&quot;newLined&quot;:true}">PLAYER</tspan></text><image width="760" height="644" xlink:href="https://lct-designs.s3.us-west-1.amazonaws.com/assets/libs/pittsburgh-pirates-2-baseball-banner-1641450760494.png" class="asset" transform="matrix(0.04861235991120339,0,0,0.04861235991120339,248.12118530273438,80.23861694335938)"></image><text fill="#ffea00" font-family="UTM Rockwell" font-size="45" stroke-opacity="1" stroke-width="1" stroke="#000000" x="187.89898643190404" y="201.84774249436967" transform="matrix(0.2747897505760193,0,0,0.27478975057601934,232.25091552734375,44.81784439086914)" svgjs:data="{&quot;leading&quot;:&quot;1.3&quot;}"><tspan dy="0" x="187.89898643190404" svgjs:data="{&quot;newLined&quot;:true}">PLAYER</tspan></text><image width="760" height="644" xlink:href="https://lct-designs.s3.us-west-1.amazonaws.com/assets/libs/pittsburgh-pirates-2-baseball-banner-1641450760494.png" class="asset" transform="matrix(0.04861235991120339,0,0,0.04861235991120339,190.75401306152347,120.17149353027347)"></image><text fill="#ffea00" font-family="UTM Rockwell" font-size="45" stroke-opacity="1" stroke-width="1" stroke="#000000" x="187.89898643190404" y="201.84774249436967" transform="matrix(0.2747897505760193,0,0,0.27478975057601934,174.8837432861328,84.75071716308594)" svgjs:data="{&quot;leading&quot;:&quot;1.3&quot;}"><tspan dy="0" x="187.89898643190404" svgjs:data="{&quot;newLined&quot;:true}">PLAYER</tspan></text><image width="760" height="644" xlink:href="https://lct-designs.s3.us-west-1.amazonaws.com/assets/libs/pittsburgh-pirates-2-baseball-banner-1641450760494.png" class="asset" transform="matrix(0.04861235991120339,0,0,0.04861235991120339,248.56002807617188,153.91760253906253)"></image><text fill="#ffea00" font-family="UTM Rockwell" font-size="45" stroke-opacity="1" stroke-width="1" stroke="#000000" x="187.89898643190404" y="201.84774249436967" transform="matrix(0.2747897505760193,0,0,0.27478975057601934,232.68972778320312,118.49684143066409)" svgjs:data="{&quot;leading&quot;:&quot;1.3&quot;}"><tspan dy="0" x="187.89898643190404" svgjs:data="{&quot;newLined&quot;:true}">PLAYER</tspan></text><text fill="#ffea00" font-family="UTM Rockwell" font-size="45" stroke-opacity="1" stroke-width="1" stroke="#000000" x="187.89898643190404" y="201.84774249436967" transform="matrix(0.2747897505760193,0,0,0.27478975057601934,283.6230467557907,155.61755371093753)" svgjs:data="{&quot;leading&quot;:&quot;1.3&quot;}"><tspan dy="0" x="187.89898643190404" svgjs:data="{&quot;newLined&quot;:true}">PLAYER</tspan></text><image width="760" height="644" xlink:href="https://lct-designs.s3.us-west-1.amazonaws.com/assets/libs/pittsburgh-pirates-2-baseball-banner-1641450760494.png" class="asset" transform="matrix(0.04861235991120339,0,0,0.04861235991120339,165.19778430461884,190.47589111328125)"></image><text fill="#ffea00" font-family="UTM Rockwell" font-size="45" stroke-opacity="1" stroke-width="1" stroke="#000000" x="187.89898643190404" y="201.84774249436967" transform="matrix(0.2747897505760193,0,0,0.27478975057601934,149.32748401165009,155.0551300048828)" svgjs:data="{&quot;leading&quot;:&quot;1.3&quot;}"><tspan dy="0" x="187.89898643190404" svgjs:data="{&quot;newLined&quot;:true}">PLAYER</tspan></text><image width="760" height="644" xlink:href="https://lct-designs.s3.us-west-1.amazonaws.com/assets/libs/pittsburgh-pirates-2-baseball-banner-1641450760494.png" class="asset" transform="matrix(0.04861235991120339,0,0,0.04861235991120339,299.49334704875946,190.47589111328125)"></image><image width="760" height="644" xlink:href="https://lct-designs.s3.us-west-1.amazonaws.com/assets/libs/pittsburgh-pirates-2-baseball-banner-1641450760494.png" class="asset" transform="matrix(0.04861235991120339,0,0,0.04861235991120339,299.36968994140625,239.97015380859375)"></image><text fill="#ffea00" font-family="UTM Rockwell" font-size="45" stroke-opacity="1" stroke-width="1" stroke="#000000" x="187.89898643190404" y="201.84774249436967" transform="matrix(0.2747897505760193,0,0,0.27478975057601934,283.4993896484375,204.54939270019537)" svgjs:data="{&quot;leading&quot;:&quot;1.3&quot;}"><tspan dy="0" x="187.89898643190404" svgjs:data="{&quot;newLined&quot;:true}">PLAYER</tspan></text><image width="760" height="644" xlink:href="https://lct-designs.s3.us-west-1.amazonaws.com/assets/libs/pittsburgh-pirates-2-baseball-banner-1641450760494.png" class="asset" transform="matrix(0.04861235991120339,0,0,0.04861235991120339,401.6071166992188,219.72248840332037)"></image><text fill="#ffea00" font-family="UTM Rockwell" font-size="45" stroke-opacity="1" stroke-width="1" stroke="#000000" x="187.89898643190404" y="201.84774249436967" transform="matrix(0.2747897505760193,0,0,0.27478975057601934,385.73681640625,184.30172729492188)" svgjs:data="{&quot;leading&quot;:&quot;1.3&quot;}"><tspan dy="0" x="187.89898643190404" svgjs:data="{&quot;newLined&quot;:true}">PLAYER</tspan></text><g class="mask" style="pointer-events: none;"><g><path fill="#BCBEC0" d="M-3642.4-2101.7v4589.1h7813.4v-4589.1H-3642.4z M500.5,67.2v233.3v66.7H0.5v-66.7V67.2V0.5h500V67.2z" transform="matrix(1,0,0,1,0,0)"></path><g transform="matrix(1,0,0,1,0,0)">
	<rect x="0.5" y="300.5" opacity="0.95" fill="#F1F2F2" width="500" height="66.7"></rect>
	<rect x="0.5" y="0.5" opacity="0.95" fill="#F1F2F2" width="500" height="66.7"></rect>
</g></g></g></svg>