<svg xmlns="http://www.w3.org/2000/svg" version="1.1" xmlns:xlink="http://www.w3.org/1999/xlink" xmlns:svgjs="http://svgjs.dev/svgjs" width="100%" height="100%" viewBox="1 1 499 365.70001220703125" preserveAspectRatio="none" data-info="{&quot;_id&quot;:4,&quot;name&quot;:&quot;POLE POCKET SOCCER BANNERS&quot;,&quot;information&quot;:&quot;- Size: 3’x5’\n- Material: heavy duty vinyl banner\n- Digitally printed on vinyl&quot;,&quot;price&quot;:&quot;95.00&quot;,&quot;sale_price&quot;:&quot;89.99&quot;,&quot;type&quot;:&quot;pole-pocket&quot;,&quot;cover&quot;:{&quot;key&quot;:&quot;assets/models/pole-1628062864266-1631924568908.png&quot;,&quot;url&quot;:&quot;https://lct-designs.s3.us-west-1.amazonaws.com/assets/models/pole-1628062864266-1631924568908.png&quot;},&quot;back&quot;:{&quot;key&quot;:&quot;assets/models/pole-1631924700152.svg&quot;,&quot;url&quot;:&quot;https://lct-designs.s3.us-west-1.amazonaws.com/assets/models/pole-1631924700152.svg&quot;},&quot;mask&quot;:{&quot;key&quot;:&quot;assets/models/pole-mask-1631925211715.svg&quot;,&quot;url&quot;:&quot;https://lct-designs.s3.us-west-1.amazonaws.com/assets/models/pole-mask-1631925211715.svg&quot;},&quot;pos&quot;:&quot;2&quot;,&quot;accessories&quot;:&quot;2,3&quot;}" style="background-color: white;"><g class="model" style="pointer-events: none;"><polygon fill="#FFFFFF" points="0.5,0.5 0.5,67.2 0.5,300.5 0.5,367.2 500.5,367.2 500.5,300.5 500.5,67.2 500.5,0.5 "></polygon></g><image width="760" height="556" xlink:href="https://lct-designs.s3.us-west-1.amazonaws.com/assets/libs/washington-nationals-baseball-banner-1641528706666.png" class="asset background locked" transform="matrix(0.6595323960558116,0,0,0.6595323960558116,0,0)"></image><text fill="#ffffff" font-family="Franklin Gothic" font-size="45" x="192.06642438162737" y="201.88927563680983" stroke-opacity="1" stroke-width="0" stroke="#f7f7f7" transform="matrix(0.3183864951133728,0,0,0.3183864951133728,118.96552276611331,209.63351440429688)" svgjs:data="{&quot;leading&quot;:&quot;1.3&quot;}"><tspan dy="0" x="192.06642438162737" svgjs:data="{&quot;newLined&quot;:true}">Coach: Coach's name</tspan></text><text fill="#ffffff" font-family="Franklin Gothic" font-size="45" x="192.06642438162737" y="201.88927563680983" stroke-opacity="1" stroke-width="0" stroke="#f7f7f7" transform="matrix(0.3381558954715729,0,0,0.3381558954715729,-45.87975311279297,205.96133422851562)" svgjs:data="{&quot;leading&quot;:&quot;1.3&quot;}"><tspan dy="0" x="192.06642438162737" svgjs:data="{&quot;newLined&quot;:true}">Team mom: name</tspan></text><text fill="#ffffff" font-family="Franklin Gothic" font-size="45" stroke-opacity="1" stroke-width="2" stroke="#000000" x="54.90154642456008" y="202.01522374115754" transform="matrix(0.3190085020715969,0,0,0.31900850207159687,299.6609758364247,176.73946925706878)" svgjs:data="{&quot;leading&quot;:&quot;1.3&quot;}"><tspan dy="0" x="54.90154642456008" svgjs:data="{&quot;newLined&quot;:true}">PLAYER</tspan></text><image width="760" height="686" xlink:href="https://lct-designs.s3.us-west-1.amazonaws.com/assets/libs/washington-2-baseball-banner-1642148784880.png" class="asset" transform="matrix(0.03857108983180302,0,0,0.03857108983180302,324.85567523451755,199.60798161960702)"></image><text fill="#ffffff" font-family="Franklin Gothic" font-size="45" stroke-opacity="1" stroke-width="2" stroke="#000000" x="54.90154642456008" y="202.01522374115754" transform="matrix(0.31900840997695923,0,0,0.31900840997695923,317.0264587402344,118.76116943359374)" svgjs:data="{&quot;leading&quot;:&quot;1.3&quot;}"><tspan dy="0" x="54.90154642456008" svgjs:data="{&quot;newLined&quot;:true}">PLAYER</tspan></text><image width="760" height="686" xlink:href="https://lct-designs.s3.us-west-1.amazonaws.com/assets/libs/washington-2-baseball-banner-1642148784880.png" class="asset" transform="matrix(0.038571082055568695,0,0,0.038571082055568695,342.2211608886719,141.6296844482422)"></image><image width="760" height="760" xlink:href="https://lct-designs.s3.us-west-1.amazonaws.com/assets/libs/washington-2-baseball-banner-1641529053371.png" class="asset" transform="matrix(0.19965314865112305,0,0,0.19965314865112305,166.93035888671878,95.84006500244139)"></image><image width="537" height="760" xlink:href="https://lct-designs.s3.us-west-1.amazonaws.com/assets/libs/washington-nationals-baseball-banner--1641528938255.png" class="asset" transform="matrix(0.23705655336380008,0,0,0.23705655336380005,367.6048889160156,98.10057830810545)"></image><text fill="#ffffff" font-family="Franklin Gothic" font-size="45" stroke-opacity="1" stroke-width="2" stroke="#000000" x="54.90154642456008" y="202.01522374115754" transform="matrix(0.31900838017463684,0,0,0.31900838017463684,315.0873718261719,59.06455993652344)" svgjs:data="{&quot;leading&quot;:&quot;1.3&quot;}"><tspan dy="0" x="54.90154642456008" svgjs:data="{&quot;newLined&quot;:true}">PLAYER</tspan></text><image width="760" height="686" xlink:href="https://lct-designs.s3.us-west-1.amazonaws.com/assets/libs/washington-2-baseball-banner-1642148784880.png" class="asset" transform="matrix(0.038571082055568695,0,0,0.038571082055568695,340.2820739746094,81.93307495117189)"></image><text fill="#ffffff" font-family="Franklin Gothic" font-size="45" stroke-opacity="1" stroke-width="2" stroke="#000000" x="54.90154642456008" y="202.01522374115754" transform="matrix(0.31900838017463684,0,0,0.31900838017463684,1.0268478393554688,62.47579956054686)" svgjs:data="{&quot;leading&quot;:&quot;1.3&quot;}"><tspan dy="0" x="54.90154642456008" svgjs:data="{&quot;newLined&quot;:true}">PLAYER</tspan></text><image width="760" height="686" xlink:href="https://lct-designs.s3.us-west-1.amazonaws.com/assets/libs/washington-2-baseball-banner-1642148784880.png" class="asset" transform="matrix(0.038571082055568695,0,0,0.038571082055568695,26.22154998779297,85.34431457519533)"></image><text fill="#ffffff" font-family="Franklin Gothic" font-size="45" stroke-opacity="1" stroke-width="2" stroke="#000000" x="54.90154642456008" y="202.01522374115754" transform="matrix(0.31900838017463684,0,0,0.31900838017463684,80.95569610595703,62.47579956054686)" svgjs:data="{&quot;leading&quot;:&quot;1.3&quot;}"><tspan dy="0" x="54.90154642456008" svgjs:data="{&quot;newLined&quot;:true}">PLAYER</tspan></text><image width="760" height="686" xlink:href="https://lct-designs.s3.us-west-1.amazonaws.com/assets/libs/washington-2-baseball-banner-1642148784880.png" class="asset" transform="matrix(0.038571082055568695,0,0,0.038571082055568695,106.15039825439453,85.34431457519533)"></image><text fill="#ffffff" font-family="Franklin Gothic" font-size="45" stroke-opacity="1" stroke-width="2" stroke="#000000" x="54.90154642456008" y="202.01522374115754" transform="matrix(0.31900838017463684,0,0,0.31900838017463684,15.006538391113281,122.17241668701173)" svgjs:data="{&quot;leading&quot;:&quot;1.3&quot;}"><tspan dy="0" x="54.90154642456008" svgjs:data="{&quot;newLined&quot;:true}">PLAYER</tspan></text><image width="760" height="686" xlink:href="https://lct-designs.s3.us-west-1.amazonaws.com/assets/libs/washington-2-baseball-banner-1642148784880.png" class="asset" transform="matrix(0.038571082055568695,0,0,0.038571082055568695,40.201240539550795,145.04093170166016)"></image><text fill="#ffffff" font-family="Franklin Gothic" font-size="45" stroke-opacity="1" stroke-width="2" stroke="#000000" x="54.90154642456008" y="202.01522374115754" transform="matrix(0.31900838017463684,0,0,0.31900838017463684,94.93538665771484,122.17241668701173)" svgjs:data="{&quot;leading&quot;:&quot;1.3&quot;}"><tspan dy="0" x="54.90154642456008" svgjs:data="{&quot;newLined&quot;:true}">PLAYER</tspan></text><image width="760" height="686" xlink:href="https://lct-designs.s3.us-west-1.amazonaws.com/assets/libs/washington-2-baseball-banner-1642148784880.png" class="asset" transform="matrix(0.038571082055568695,0,0,0.038571082055568695,120.13008880615232,145.04093170166016)"></image><text fill="#ffffff" font-family="Franklin Gothic" font-size="45" stroke-opacity="1" stroke-width="2" stroke="#000000" x="54.90154642456008" y="202.01522374115754" transform="matrix(0.31900838017463684,0,0,0.31900838017463684,0.5598754882812429,181.86901092529297)" svgjs:data="{&quot;leading&quot;:&quot;1.3&quot;}"><tspan dy="0" x="54.90154642456008" svgjs:data="{&quot;newLined&quot;:true}">PLAYER</tspan></text><image width="760" height="686" xlink:href="https://lct-designs.s3.us-west-1.amazonaws.com/assets/libs/washington-2-baseball-banner-1642148784880.png" class="asset" transform="matrix(0.038571082055568695,0,0,0.038571082055568695,25.75457763671875,204.7375259399414)"></image><text fill="#ffffff" font-family="Franklin Gothic" font-size="45" stroke-opacity="1" stroke-width="2" stroke="#000000" x="54.90154642456008" y="202.01522374115754" transform="matrix(0.31900838017463684,0,0,0.31900838017463684,80.48872375488281,181.86901092529297)" svgjs:data="{&quot;leading&quot;:&quot;1.3&quot;}"><tspan dy="0" x="54.90154642456008" svgjs:data="{&quot;newLined&quot;:true}">PLAYER</tspan></text><image width="760" height="686" xlink:href="https://lct-designs.s3.us-west-1.amazonaws.com/assets/libs/washington-2-baseball-banner-1642148784880.png" class="asset" transform="matrix(0.038571082055568695,0,0,0.038571082055568695,105.68341827392581,204.7375259399414)"></image><g class="mask" style="pointer-events: none;"><g><path fill="#BCBEC0" d="M-3642.4-2101.7v4589.1h7813.4v-4589.1H-3642.4z M500.5,67.2v233.3v66.7H0.5v-66.7V67.2V0.5h500V67.2z" transform="matrix(1,0,0,1,0,0)"></path><g transform="matrix(1,0,0,1,0,0)">
	<rect x="0.5" y="300.5" opacity="0.95" fill="#F1F2F2" width="500" height="66.7"></rect>
	<rect x="0.5" y="0.5" opacity="0.95" fill="#F1F2F2" width="500" height="66.7"></rect>
</g></g></g></svg>