<svg xmlns="http://www.w3.org/2000/svg" version="1.1" xmlns:xlink="http://www.w3.org/1999/xlink" xmlns:svgjs="http://svgjs.dev/svgjs" width="100%" height="100%" viewBox="1 1 499 365.70001220703125" preserveAspectRatio="none" data-info="{&quot;_id&quot;:4,&quot;name&quot;:&quot;POLE POCKET SOCCER BANNERS&quot;,&quot;information&quot;:&quot;- Size: 3’x5’\n- Material: heavy duty vinyl banner\n- Digitally printed on vinyl&quot;,&quot;price&quot;:&quot;95.00&quot;,&quot;sale_price&quot;:&quot;89.99&quot;,&quot;type&quot;:&quot;pole-pocket&quot;,&quot;cover&quot;:{&quot;key&quot;:&quot;assets/models/pole-1628062864266-1631924568908.png&quot;,&quot;url&quot;:&quot;https://lct-designs.s3.us-west-1.amazonaws.com/assets/models/pole-1628062864266-1631924568908.png&quot;},&quot;back&quot;:{&quot;key&quot;:&quot;assets/models/pole-1631924700152.svg&quot;,&quot;url&quot;:&quot;https://lct-designs.s3.us-west-1.amazonaws.com/assets/models/pole-1631924700152.svg&quot;},&quot;mask&quot;:{&quot;key&quot;:&quot;assets/models/pole-mask-1631925211715.svg&quot;,&quot;url&quot;:&quot;https://lct-designs.s3.us-west-1.amazonaws.com/assets/models/pole-mask-1631925211715.svg&quot;},&quot;pos&quot;:&quot;2&quot;,&quot;accessories&quot;:&quot;2,3&quot;}" style="background-color: white;"><g class="model" style="pointer-events: none;"><polygon fill="#FFFFFF" points="0.5,0.5 0.5,67.2 0.5,300.5 0.5,367.2 500.5,367.2 500.5,300.5 500.5,67.2 500.5,0.5 "></polygon></g><image width="760" height="556" xlink:href="https://lct-designs.s3.us-west-1.amazonaws.com/assets/libs/washington-2-baseball-banner-1641528706666.png" class="asset background locked" transform="matrix(0.6595323960558116,0,0,0.6595323960558116,0,0)"></image><text fill="#1d2b72" font-family="Franklin Gothic" font-size="45" x="192.06642438162737" y="201.88927563680983" stroke-opacity="1" stroke-width="0" stroke="#f7f7f7" transform="matrix(0.37805199623107905,0,0,0.3780519962310791,90.36590576171872,11.447916984558105)" svgjs:data="{&quot;leading&quot;:&quot;1.3&quot;}"><tspan dy="0" x="192.06642438162737" svgjs:data="{&quot;newLined&quot;:true}">Coach: Coach's name</tspan></text><text fill="#1d2b72" font-family="Franklin Gothic" font-size="45" x="192.06642438162737" y="201.88927563680983" stroke-opacity="1" stroke-width="0" stroke="#f7f7f7" transform="matrix(0.40152627229690546,0,0,0.4015262722969055,282.01797485351557,7.194104194641113)" svgjs:data="{&quot;leading&quot;:&quot;1.3&quot;}"><tspan dy="0" x="192.06642438162737" svgjs:data="{&quot;newLined&quot;:true}">Team mom: name</tspan></text><text fill="#ffffff" font-family="Franklin Gothic" font-size="45" stroke-opacity="1" stroke-width="2" stroke="#000000" x="54.90154642456008" y="202.01522374115754" transform="matrix(0.3539397716522216,0,0,0.3539397716522217,408.84439086914057,213.97355651855463)" svgjs:data="{&quot;leading&quot;:&quot;1.3&quot;}"><tspan dy="0" x="54.90154642456008" svgjs:data="{&quot;newLined&quot;:true}">PLAYER</tspan></text><image width="658" height="760" xlink:href="https://lct-designs.s3.us-west-1.amazonaws.com/assets/libs/washington-2-baseball-banner--1642147748164.png" class="asset" transform="matrix(0.04405502974987029,0,0,0.04405502974987029,439.80664062499994,234.54995727539062)"></image><text fill="#ffffff" font-family="Franklin Gothic" font-size="45" stroke-opacity="1" stroke-width="2" stroke="#000000" x="54.90154642456008" y="202.01522374115754" transform="matrix(0.3539397716522216,0,0,0.3539397716522217,320.48919677734375,213.97355651855463)" svgjs:data="{&quot;leading&quot;:&quot;1.3&quot;}"><tspan dy="0" x="54.90154642456008" svgjs:data="{&quot;newLined&quot;:true}">PLAYER</tspan></text><image width="658" height="760" xlink:href="https://lct-designs.s3.us-west-1.amazonaws.com/assets/libs/washington-2-baseball-banner--1642147748164.png" class="asset" transform="matrix(0.04405502974987029,0,0,0.04405502974987029,351.45144653320307,234.54995727539062)"></image><image width="760" height="296" xlink:href="https://lct-designs.s3.us-west-1.amazonaws.com/assets/libs/washington-2-baseball-banner-12-1641528938255.png" class="asset" transform="matrix(0.18919922411441803,0,0,0.189199224114418,255.70030212402344,96.2201614379883)"></image><image width="760" height="760" xlink:href="https://lct-designs.s3.us-west-1.amazonaws.com/assets/libs/washington-2-baseball-banner-1641529053371.png" class="asset" transform="matrix(0.18169952929019928,0,0,0.18169952929019928,342.7003173828125,96.96350097656249)"></image><image width="760" height="609" xlink:href="https://lct-designs.s3.us-west-1.amazonaws.com/assets/libs/washington-2-baseball-banner--1641528938255.png" class="asset" transform="matrix(0.20719622075557706,0,0,0.20719622075557706,11.24897575378418,170.5740814208984)"></image><text fill="#ffffff" font-family="Franklin Gothic" font-size="45" stroke-opacity="1" stroke-width="2" stroke="#000000" x="54.90154642456008" y="202.01522374115754" transform="matrix(0.3539397716522216,0,0,0.3539397716522217,230.09336853027344,213.40502929687494)" svgjs:data="{&quot;leading&quot;:&quot;1.3&quot;}"><tspan dy="0" x="54.90154642456008" svgjs:data="{&quot;newLined&quot;:true}">PLAYER</tspan></text><image width="658" height="760" xlink:href="https://lct-designs.s3.us-west-1.amazonaws.com/assets/libs/washington-2-baseball-banner--1642147748164.png" class="asset" transform="matrix(0.04405502974987029,0,0,0.04405502974987029,261.0556182861328,233.98143005371094)"></image><text fill="#ffffff" font-family="Franklin Gothic" font-size="45" stroke-opacity="1" stroke-width="2" stroke="#000000" x="54.90154642456008" y="202.01522374115754" transform="matrix(0.3539397716522216,0,0,0.3539397716522217,141.73817443847656,213.40502929687494)" svgjs:data="{&quot;leading&quot;:&quot;1.3&quot;}"><tspan dy="0" x="54.90154642456008" svgjs:data="{&quot;newLined&quot;:true}">PLAYER</tspan></text><image width="658" height="760" xlink:href="https://lct-designs.s3.us-west-1.amazonaws.com/assets/libs/washington-2-baseball-banner--1642147748164.png" class="asset" transform="matrix(0.04405502974987029,0,0,0.04405502974987029,172.70042419433594,233.98143005371094)"></image><text fill="#ffffff" font-family="Franklin Gothic" font-size="45" stroke-opacity="1" stroke-width="2" stroke="#000000" x="54.90154642456008" y="202.01522374115754" transform="matrix(0.3539397716522216,0,0,0.3539397716522217,265.6770935058594,152.57135009765622)" svgjs:data="{&quot;leading&quot;:&quot;1.3&quot;}"><tspan dy="0" x="54.90154642456008" svgjs:data="{&quot;newLined&quot;:true}">PLAYER</tspan></text><image width="658" height="760" xlink:href="https://lct-designs.s3.us-west-1.amazonaws.com/assets/libs/washington-2-baseball-banner--1642147748164.png" class="asset" transform="matrix(0.04405502974987029,0,0,0.04405502974987029,296.6393280029297,173.1477508544922)"></image><text fill="#ffffff" font-family="Franklin Gothic" font-size="45" stroke-opacity="1" stroke-width="2" stroke="#000000" x="54.90154642456008" y="202.01522374115754" transform="matrix(0.3539397716522216,0,0,0.3539397716522217,177.3218994140625,152.57135009765622)" svgjs:data="{&quot;leading&quot;:&quot;1.3&quot;}"><tspan dy="0" x="54.90154642456008" svgjs:data="{&quot;newLined&quot;:true}">PLAYER</tspan></text><image width="658" height="760" xlink:href="https://lct-designs.s3.us-west-1.amazonaws.com/assets/libs/washington-2-baseball-banner--1642147748164.png" class="asset" transform="matrix(0.04405502974987029,0,0,0.04405502974987029,208.28414916992188,173.1477508544922)"></image><text fill="#ffffff" font-family="Franklin Gothic" font-size="45" stroke-opacity="1" stroke-width="2" stroke="#000000" x="54.90154642456008" y="202.01522374115754" transform="matrix(0.3539397716522216,0,0,0.3539397716522217,176.18484497070312,81.50396728515625)" svgjs:data="{&quot;leading&quot;:&quot;1.3&quot;}"><tspan dy="0" x="54.90154642456008" svgjs:data="{&quot;newLined&quot;:true}">PLAYER</tspan></text><image width="658" height="760" xlink:href="https://lct-designs.s3.us-west-1.amazonaws.com/assets/libs/washington-2-baseball-banner--1642147748164.png" class="asset" transform="matrix(0.04405502974987029,0,0,0.04405502974987029,207.1470947265625,102.08036804199219)"></image><text fill="#ffffff" font-family="Franklin Gothic" font-size="45" stroke-opacity="1" stroke-width="2" stroke="#000000" x="54.90154642456008" y="202.01522374115754" transform="matrix(0.3539397716522216,0,0,0.3539397716522217,87.82965087890625,81.50396728515625)" svgjs:data="{&quot;leading&quot;:&quot;1.3&quot;}"><tspan dy="0" x="54.90154642456008" svgjs:data="{&quot;newLined&quot;:true}">PLAYER</tspan></text><image width="658" height="760" xlink:href="https://lct-designs.s3.us-west-1.amazonaws.com/assets/libs/washington-2-baseball-banner--1642147748164.png" class="asset" transform="matrix(0.04405502974987029,0,0,0.04405502974987029,118.79190063476562,102.08036804199219)"></image><text fill="#ffffff" font-family="Franklin Gothic" font-size="45" stroke-opacity="1" stroke-width="2" stroke="#000000" x="54.90154642456008" y="202.01522374115754" transform="matrix(0.3539397716522216,0,0,0.3539397716522217,-4.505226135253906,80.36688995361325)" svgjs:data="{&quot;leading&quot;:&quot;1.3&quot;}"><tspan dy="0" x="54.90154642456008" svgjs:data="{&quot;newLined&quot;:true}">PLAYER</tspan></text><image width="658" height="760" xlink:href="https://lct-designs.s3.us-west-1.amazonaws.com/assets/libs/washington-2-baseball-banner--1642147748164.png" class="asset" transform="matrix(0.04405502974987029,0,0,0.04405502974987029,26.45702362060547,100.94329071044922)"></image><g class="mask" style="pointer-events: none;"><g><path fill="#BCBEC0" d="M-3642.4-2101.7v4589.1h7813.4v-4589.1H-3642.4z M500.5,67.2v233.3v66.7H0.5v-66.7V67.2V0.5h500V67.2z" transform="matrix(1,0,0,1,0,0)"></path><g transform="matrix(1,0,0,1,0,0)">
	<rect x="0.5" y="300.5" opacity="0.95" fill="#F1F2F2" width="500" height="66.7"></rect>
	<rect x="0.5" y="0.5" opacity="0.95" fill="#F1F2F2" width="500" height="66.7"></rect>
</g></g></g></svg>