<svg xmlns="http://www.w3.org/2000/svg" version="1.1" xmlns:xlink="http://www.w3.org/1999/xlink" xmlns:svgjs="http://svgjs.dev/svgjs" width="100%" height="100%" viewBox="1 1 499 365.70001220703125" preserveAspectRatio="none" data-info="{&quot;_id&quot;:4,&quot;name&quot;:&quot;POLE POCKET SOCCER BANNERS&quot;,&quot;information&quot;:&quot;- Size: 3’x5’\n- Material: heavy duty vinyl banner\n- Digitally printed on vinyl&quot;,&quot;price&quot;:&quot;95.00&quot;,&quot;sale_price&quot;:&quot;89.99&quot;,&quot;type&quot;:&quot;pole-pocket&quot;,&quot;cover&quot;:{&quot;key&quot;:&quot;assets/models/pole-1628062864266-1631924568908.png&quot;,&quot;url&quot;:&quot;https://lct-designs.s3.us-west-1.amazonaws.com/assets/models/pole-1628062864266-1631924568908.png&quot;},&quot;back&quot;:{&quot;key&quot;:&quot;assets/models/pole-1631924700152.svg&quot;,&quot;url&quot;:&quot;https://lct-designs.s3.us-west-1.amazonaws.com/assets/models/pole-1631924700152.svg&quot;},&quot;mask&quot;:{&quot;key&quot;:&quot;assets/models/pole-mask-1631925211715.svg&quot;,&quot;url&quot;:&quot;https://lct-designs.s3.us-west-1.amazonaws.com/assets/models/pole-mask-1631925211715.svg&quot;},&quot;pos&quot;:&quot;2&quot;,&quot;accessories&quot;:&quot;2,3&quot;}" style="background-color: white;"><g class="model" style="pointer-events: none;"><polygon fill="#FFFFFF" points="0.5,0.5 0.5,67.2 0.5,300.5 0.5,367.2 500.5,367.2 500.5,300.5 500.5,67.2 500.5,0.5 "></polygon></g><image width="760" height="553" xlink:href="https://lct-designs.s3.us-west-1.amazonaws.com/assets/libs/twins-baseball-banner-1644823723066.png" class="asset background locked" transform="matrix(0.6631103294883024,0,0,0.6631103294883024,0,0)"></image><text fill="#ffffff" font-family="DEATHE MAACH NCV" font-size="45" x="192.06642438162737" y="201.88927563680983" stroke-opacity="1" stroke-width="0" stroke="#f7f7f7" transform="matrix(0.3780519962310791,0,0,0.3780519962310791,105.71614837646482,201.90852355957026)" svgjs:data="{&quot;leading&quot;:&quot;1.3&quot;}"><tspan dy="0" x="192.06642438162737" svgjs:data="{&quot;newLined&quot;:true}">Coach: Coach's name</tspan></text><text fill="#ffffff" font-family="DEATHE MAACH NCV" font-size="45" x="192.06642438162737" y="201.88927563680983" stroke-opacity="1" stroke-width="0" stroke="#f7f7f7" transform="matrix(0.40152648091316223,0,0,0.40152648091316223,118.85070037841797,21.976121902465806)" svgjs:data="{&quot;leading&quot;:&quot;1.3&quot;}"><tspan dy="0" x="192.06642438162737" svgjs:data="{&quot;newLined&quot;:true}">Team mom: name</tspan></text><text fill="#ffffff" font-family="DEATHE MAACH NCV" font-size="45" stroke-opacity="1" stroke-width="0" stroke="#000000" x="54.90154642456008" y="202.01522374115754" transform="matrix(0.36610591411590576,0,0,0.3661059141159057,-0.30037689208984375,51.07410418987274)" svgjs:data="{&quot;leading&quot;:&quot;1.3&quot;}"><tspan dy="0" x="54.90154642456008" svgjs:data="{&quot;newLined&quot;:true}">PLAYER</tspan></text><image width="760" height="405" xlink:href="https://lct-designs.s3.us-west-1.amazonaws.com/assets/libs/minnesota-twins-baseball-banner--1641953965316.png" class="asset" transform="matrix(0.06700573116540909,0,0,0.06700573116540909,18.639820098876953,82.79521930217741)"></image><text fill="#ffffff" font-family="DEATHE MAACH NCV" font-size="45" stroke-opacity="1" stroke-width="0" stroke="#000000" x="54.90154642456008" y="202.01522374115754" transform="matrix(0.36610591411590576,0,0,0.3661059141159057,77.35436248779297,51.07410418987274)" svgjs:data="{&quot;leading&quot;:&quot;1.3&quot;}"><tspan dy="0" x="54.90154642456008" svgjs:data="{&quot;newLined&quot;:true}">PLAYER</tspan></text><image width="760" height="405" xlink:href="https://lct-designs.s3.us-west-1.amazonaws.com/assets/libs/minnesota-twins-baseball-banner--1641953965316.png" class="asset" transform="matrix(0.06700573116540909,0,0,0.06700573116540909,96.29456329345703,82.79521930217741)"></image><text fill="#ffffff" font-family="DEATHE MAACH NCV" font-size="45" stroke-opacity="1" stroke-width="0" stroke="#000000" x="54.90154642456008" y="202.01522374115754" transform="matrix(0.36610591411590576,0,0,0.3661059141159057,-1.1023941040039062,103.37970721721648)" svgjs:data="{&quot;leading&quot;:&quot;1.3&quot;}"><tspan dy="0" x="54.90154642456008" svgjs:data="{&quot;newLined&quot;:true}">PLAYER</tspan></text><image width="760" height="405" xlink:href="https://lct-designs.s3.us-west-1.amazonaws.com/assets/libs/minnesota-twins-baseball-banner--1641953965316.png" class="asset" transform="matrix(0.06700573116540909,0,0,0.06700573116540909,17.83780288696289,135.1008299589157)"></image><text fill="#ffffff" font-family="DEATHE MAACH NCV" font-size="45" stroke-opacity="1" stroke-width="0" stroke="#000000" x="54.90154642456008" y="202.01522374115754" transform="matrix(0.36610591411590576,0,0,0.3661059141159057,76.5523452758789,103.37970721721648)" svgjs:data="{&quot;leading&quot;:&quot;1.3&quot;}"><tspan dy="0" x="54.90154642456008" svgjs:data="{&quot;newLined&quot;:true}">PLAYER</tspan></text><image width="760" height="405" xlink:href="https://lct-designs.s3.us-west-1.amazonaws.com/assets/libs/minnesota-twins-baseball-banner--1641953965316.png" class="asset" transform="matrix(0.06700573116540909,0,0,0.06700573116540909,95.49254608154297,135.1008299589157)"></image><text fill="#ffffff" font-family="DEATHE MAACH NCV" font-size="45" stroke-opacity="1" stroke-width="0" stroke="#000000" x="54.90154642456008" y="202.01522374115754" transform="matrix(0.36610591411590576,0,0,0.3661059141159057,-2.8079757690429688,155.11676013469696)" svgjs:data="{&quot;leading&quot;:&quot;1.3&quot;}"><tspan dy="0" x="54.90154642456008" svgjs:data="{&quot;newLined&quot;:true}">PLAYER</tspan></text><image width="760" height="405" xlink:href="https://lct-designs.s3.us-west-1.amazonaws.com/assets/libs/minnesota-twins-baseball-banner--1641953965316.png" class="asset" transform="matrix(0.06700573116540909,0,0,0.06700573116540909,16.132221221923828,186.8378905057907)"></image><text fill="#ffffff" font-family="DEATHE MAACH NCV" font-size="45" stroke-opacity="1" stroke-width="0" stroke="#000000" x="54.90154642456008" y="202.01522374115754" transform="matrix(0.36610591411590576,0,0,0.3661059141159057,74.84676361083984,155.11676013469696)" svgjs:data="{&quot;leading&quot;:&quot;1.3&quot;}"><tspan dy="0" x="54.90154642456008" svgjs:data="{&quot;newLined&quot;:true}">PLAYER</tspan></text><image width="760" height="405" xlink:href="https://lct-designs.s3.us-west-1.amazonaws.com/assets/libs/minnesota-twins-baseball-banner--1641953965316.png" class="asset" transform="matrix(0.06700573116540909,0,0,0.06700573116540909,93.7869644165039,186.8378905057907)"></image><text fill="#ffffff" font-family="DEATHE MAACH NCV" font-size="45" stroke-opacity="1" stroke-width="0" stroke="#000000" x="54.90154642456008" y="202.01522374115754" transform="matrix(0.36610591411590576,0,0,0.3661059141159057,-3.6099929809570312,207.4223631620407)" svgjs:data="{&quot;leading&quot;:&quot;1.3&quot;}"><tspan dy="0" x="54.90154642456008" svgjs:data="{&quot;newLined&quot;:true}">PLAYER</tspan></text><image width="760" height="405" xlink:href="https://lct-designs.s3.us-west-1.amazonaws.com/assets/libs/minnesota-twins-baseball-banner--1641953965316.png" class="asset" transform="matrix(0.06700573116540909,0,0,0.06700573116540909,15.330204010009766,239.14349353313446)"></image><text fill="#ffffff" font-family="DEATHE MAACH NCV" font-size="45" stroke-opacity="1" stroke-width="0" stroke="#000000" x="54.90154642456008" y="202.01522374115754" transform="matrix(0.36610591411590576,0,0,0.3661059141159057,74.04474639892578,207.4223631620407)" svgjs:data="{&quot;leading&quot;:&quot;1.3&quot;}"><tspan dy="0" x="54.90154642456008" svgjs:data="{&quot;newLined&quot;:true}">PLAYER</tspan></text><image width="760" height="405" xlink:href="https://lct-designs.s3.us-west-1.amazonaws.com/assets/libs/minnesota-twins-baseball-banner--1641953965316.png" class="asset" transform="matrix(0.06700573116540909,0,0,0.06700573116540909,92.98494720458984,239.14349353313446)"></image><image width="760" height="644" xlink:href="https://lct-designs.s3.us-west-1.amazonaws.com/assets/libs/twins-baseball-banner-1644572668163.png" class="asset" transform="matrix(0.23751629889011383,0,0,0.23751629889011383,157.3604583740234,107.43777465820311)"></image><text fill="#ffffff" font-family="DEATHE MAACH NCV" font-size="45" stroke-opacity="1" stroke-width="0" stroke="#000000" x="54.90154642456008" y="202.01522374115754" transform="matrix(0.36610591411590576,0,0,0.3661059141159057,337.171272277832,51.07410430908203)" svgjs:data="{&quot;leading&quot;:&quot;1.3&quot;}"><tspan dy="0" x="54.90154642456008" svgjs:data="{&quot;newLined&quot;:true}">PLAYER</tspan></text><image width="760" height="405" xlink:href="https://lct-designs.s3.us-west-1.amazonaws.com/assets/libs/minnesota-twins-baseball-banner--1641953965316.png" class="asset" transform="matrix(0.06700573116540909,0,0,0.06700573116540909,356.1114692687988,82.79521942138673)"></image><text fill="#ffffff" font-family="DEATHE MAACH NCV" font-size="45" stroke-opacity="1" stroke-width="0" stroke="#000000" x="54.90154642456008" y="202.01522374115754" transform="matrix(0.36610591411590576,0,0,0.3661059141159057,414.82601165771484,51.07410430908203)" svgjs:data="{&quot;leading&quot;:&quot;1.3&quot;}"><tspan dy="0" x="54.90154642456008" svgjs:data="{&quot;newLined&quot;:true}">PLAYER</tspan></text><image width="760" height="405" xlink:href="https://lct-designs.s3.us-west-1.amazonaws.com/assets/libs/minnesota-twins-baseball-banner--1641953965316.png" class="asset" transform="matrix(0.06700573116540909,0,0,0.06700573116540909,433.7662124633789,82.79521942138673)"></image><text fill="#ffffff" font-family="DEATHE MAACH NCV" font-size="45" stroke-opacity="1" stroke-width="0" stroke="#000000" x="54.90154642456008" y="202.01522374115754" transform="matrix(0.36610591411590576,0,0,0.3661059141159057,336.36925506591797,103.3797073364258)" svgjs:data="{&quot;leading&quot;:&quot;1.3&quot;}"><tspan dy="0" x="54.90154642456008" svgjs:data="{&quot;newLined&quot;:true}">PLAYER</tspan></text><image width="760" height="405" xlink:href="https://lct-designs.s3.us-west-1.amazonaws.com/assets/libs/minnesota-twins-baseball-banner--1641953965316.png" class="asset" transform="matrix(0.06700573116540909,0,0,0.06700573116540909,355.30945205688477,135.100830078125)"></image><text fill="#ffffff" font-family="DEATHE MAACH NCV" font-size="45" stroke-opacity="1" stroke-width="0" stroke="#000000" x="54.90154642456008" y="202.01522374115754" transform="matrix(0.36610591411590576,0,0,0.3661059141159057,414.0239944458008,103.3797073364258)" svgjs:data="{&quot;leading&quot;:&quot;1.3&quot;}"><tspan dy="0" x="54.90154642456008" svgjs:data="{&quot;newLined&quot;:true}">PLAYER</tspan></text><image width="760" height="405" xlink:href="https://lct-designs.s3.us-west-1.amazonaws.com/assets/libs/minnesota-twins-baseball-banner--1641953965316.png" class="asset" transform="matrix(0.06700573116540909,0,0,0.06700573116540909,432.9641952514648,135.100830078125)"></image><image width="760" height="644" xlink:href="https://lct-designs.s3.us-west-1.amazonaws.com/assets/libs/twins-baseball-banner-1644572639399.png" class="asset" transform="matrix(0.16953982412815097,0,0,0.16953982412815094,357.7997436523437,182.48495483398438)"></image><g class="mask" style="pointer-events: none;"><g><path fill="#BCBEC0" d="M-3642.4-2101.7v4589.1h7813.4v-4589.1H-3642.4z M500.5,67.2v233.3v66.7H0.5v-66.7V67.2V0.5h500V67.2z" transform="matrix(1,0,0,1,0,0)"></path><g transform="matrix(1,0,0,1,0,0)">
	<rect x="0.5" y="300.5" opacity="0.95" fill="#F1F2F2" width="500" height="66.7"></rect>
	<rect x="0.5" y="0.5" opacity="0.95" fill="#F1F2F2" width="500" height="66.7"></rect>
</g></g></g></svg>