<svg xmlns="http://www.w3.org/2000/svg" version="1.1" xmlns:xlink="http://www.w3.org/1999/xlink" xmlns:svgjs="http://svgjs.dev/svgjs" width="100%" height="100%" viewBox="1 1 499 365.70001220703125" preserveAspectRatio="none" data-info="{&quot;_id&quot;:4,&quot;name&quot;:&quot;POLE POCKET SOCCER BANNERS&quot;,&quot;information&quot;:&quot;- Size: 3’x5’\n- Material: heavy duty vinyl banner\n- Digitally printed on vinyl&quot;,&quot;price&quot;:&quot;95.00&quot;,&quot;sale_price&quot;:&quot;89.99&quot;,&quot;type&quot;:&quot;pole-pocket&quot;,&quot;cover&quot;:{&quot;key&quot;:&quot;assets/models/pole-1628062864266-1631924568908.png&quot;,&quot;url&quot;:&quot;https://lct-designs.s3.us-west-1.amazonaws.com/assets/models/pole-1628062864266-1631924568908.png&quot;},&quot;back&quot;:{&quot;key&quot;:&quot;assets/models/pole-1631924700152.svg&quot;,&quot;url&quot;:&quot;https://lct-designs.s3.us-west-1.amazonaws.com/assets/models/pole-1631924700152.svg&quot;},&quot;mask&quot;:{&quot;key&quot;:&quot;assets/models/pole-mask-1631925211715.svg&quot;,&quot;url&quot;:&quot;https://lct-designs.s3.us-west-1.amazonaws.com/assets/models/pole-mask-1631925211715.svg&quot;},&quot;pos&quot;:&quot;2&quot;,&quot;accessories&quot;:&quot;2,3&quot;}" style="background-color: white;"><g class="model" style="pointer-events: none;"><polygon fill="#FFFFFF" points="0.5,0.5 0.5,67.2 0.5,300.5 0.5,367.2 500.5,367.2 500.5,300.5 500.5,67.2 500.5,0.5 "></polygon></g><image width="760" height="556" xlink:href="https://lct-designs.s3.us-west-1.amazonaws.com/assets/libs/thunder1-baseball-banner-1641528706664.png" class="asset background locked" transform="matrix(0.6595323960558116,0,0,0.6595323960558116,0,0)"></image><text fill="#ffffff" font-family="American Captain" font-size="15" x="196.88662170311784" y="200.3250646744639" transform="matrix(1.1575788259506228,0,0,1.1575788259506228,119.83474731445312,53.33930587768553)" svgjs:data="{&quot;leading&quot;:&quot;1.3&quot;}"><tspan dy="0" x="196.88662170311784" svgjs:data="{&quot;newLined&quot;:true}">cOACH: COACH NAME</tspan></text><text fill="#ffffff" font-family="American Captain" font-size="15" x="196.88662170311784" y="200.3250646744639" transform="matrix(1.1575788259506228,0,0,1.1575788259506228,-182.20185852050784,53.33930587768553)" svgjs:data="{&quot;leading&quot;:&quot;1.3&quot;}"><tspan dy="0" x="196.88662170311784" svgjs:data="{&quot;newLined&quot;:true}">TEAM MOM: NAME</tspan></text><image width="760" height="235" xlink:href="https://lct-designs.s3.us-west-1.amazonaws.com/assets/libs/thunder1-baseball-banner-1641529053370.png" class="asset" transform="matrix(0.41990619897842413,0,0,0.41990619897842413,93.41064453125003,69.38155364990234)"></image><text fill="#ffffff" font-family="Impact" font-size="15" x="196.88662170311784" y="200.3250646744639" transform="matrix(0.8473458886146548,0,0,0.8473458886146547,-138.61567687988284,16.787036895751953)" svgjs:data="{&quot;leading&quot;:&quot;1.3&quot;}"><tspan dy="0" x="196.88662170311784" svgjs:data="{&quot;newLined&quot;:true}">PLAYER</tspan></text><image width="760" height="405" xlink:href="https://lct-designs.s3.us-west-1.amazonaws.com/assets/libs/thunder1-baseball-banner-1642130841577.png" class="asset" transform="matrix(0.06971129775047304,0,0,0.06971129775047302,26.1512680053711,182.90248107910156)"></image><text fill="#ffffff" font-family="Impact" font-size="15" x="196.88662170311784" y="200.3250646744639" transform="matrix(0.8473458886146548,0,0,0.8473458886146547,-153.66969299316406,64.04804992675781)" svgjs:data="{&quot;leading&quot;:&quot;1.3&quot;}"><tspan dy="0" x="196.88662170311784" svgjs:data="{&quot;newLined&quot;:true}">PLAYER</tspan></text><image width="760" height="405" xlink:href="https://lct-designs.s3.us-west-1.amazonaws.com/assets/libs/thunder1-baseball-banner-1642130841577.png" class="asset" transform="matrix(0.06971129775047304,0,0,0.06971129775047302,11.097244262695312,230.16349792480466)"></image><text fill="#ffffff" font-family="Impact" font-size="15" x="196.88662170311784" y="200.3250646744639" transform="matrix(0.8473458886146548,0,0,0.8473458886146547,-87.29810333251953,64.0480500459671)" svgjs:data="{&quot;leading&quot;:&quot;1.3&quot;}"><tspan dy="0" x="196.88662170311784" svgjs:data="{&quot;newLined&quot;:true}">PLAYER</tspan></text><image width="760" height="405" xlink:href="https://lct-designs.s3.us-west-1.amazonaws.com/assets/libs/thunder1-baseball-banner-1642130841577.png" class="asset" transform="matrix(0.06971129775047304,0,0,0.06971129775047302,77.46882629394534,230.163498044014)"></image><text fill="#ffffff" font-family="Impact" font-size="15" x="196.88662170311784" y="200.3250646744639" transform="matrix(0.8473458886146548,0,0,0.8473458886146547,-72.24409484863283,16.78703701496123)" svgjs:data="{&quot;leading&quot;:&quot;1.3&quot;}"><tspan dy="0" x="196.88662170311784" svgjs:data="{&quot;newLined&quot;:true}">PLAYER</tspan></text><image width="760" height="405" xlink:href="https://lct-designs.s3.us-west-1.amazonaws.com/assets/libs/thunder1-baseball-banner-1642130841577.png" class="asset" transform="matrix(0.06971129775047304,0,0,0.06971129775047302,92.52285766601565,182.90248119831088)"></image><text fill="#ffffff" font-family="Impact" font-size="15" x="196.88662170311784" y="200.3250646744639" transform="matrix(0.8473458886146548,0,0,0.8473458886146547,-15.232418060302734,63.47862243652344)" svgjs:data="{&quot;leading&quot;:&quot;1.3&quot;}"><tspan dy="0" x="196.88662170311784" svgjs:data="{&quot;newLined&quot;:true}">PLAYER</tspan></text><image width="760" height="405" xlink:href="https://lct-designs.s3.us-west-1.amazonaws.com/assets/libs/thunder1-baseball-banner-1642130841577.png" class="asset" transform="matrix(0.06971129775047304,0,0,0.06971129775047302,149.5345153808594,229.59407043457028)"></image><text fill="#ffffff" font-family="Impact" font-size="15" x="196.88662170311784" y="200.3250646744639" transform="matrix(0.8473458886146548,0,0,0.8473458886146547,-0.17840194702148438,16.217609405517578)" svgjs:data="{&quot;leading&quot;:&quot;1.3&quot;}"><tspan dy="0" x="196.88662170311784" svgjs:data="{&quot;newLined&quot;:true}">PLAYER</tspan></text><image width="760" height="405" xlink:href="https://lct-designs.s3.us-west-1.amazonaws.com/assets/libs/thunder1-baseball-banner-1642130841577.png" class="asset" transform="matrix(0.06971129775047304,0,0,0.06971129775047302,164.58854675292972,182.3330535888672)"></image><image width="759" height="481" xlink:href="https://lct-designs.s3.us-west-1.amazonaws.com/assets/libs/thunder1-baseball-banner-1641528938254.png" class="asset" transform="matrix(0.1696332693099976,0,0,0.1696332693099976,194.30590820312503,212.02104187011722)"></image><text fill="#ffffff" font-family="Impact" font-size="15" x="196.88662170311784" y="200.3250646744639" transform="matrix(0.8473458886146548,0,0,0.8473458886146547,121.92469787597659,16.21762466430664)" svgjs:data="{&quot;leading&quot;:&quot;1.3&quot;}"><tspan dy="0" x="196.88662170311784" svgjs:data="{&quot;newLined&quot;:true}">PLAYER</tspan></text><image width="760" height="405" xlink:href="https://lct-designs.s3.us-west-1.amazonaws.com/assets/libs/thunder1-baseball-banner-1642130841577.png" class="asset" transform="matrix(0.06971129775047304,0,0,0.06971129775047302,290.4281311035157,184.0413055419922)"></image><text fill="#ffffff" font-family="Impact" font-size="15" x="196.88662170311784" y="200.3250646744639" transform="matrix(0.8473458886146548,0,0,0.8473458886146547,155.270492553711,61.20100784301758)" svgjs:data="{&quot;leading&quot;:&quot;1.3&quot;}"><tspan dy="0" x="196.88662170311784" svgjs:data="{&quot;newLined&quot;:true}">PLAYER</tspan></text><image width="760" height="405" xlink:href="https://lct-designs.s3.us-west-1.amazonaws.com/assets/libs/thunder1-baseball-banner-1642130841577.png" class="asset" transform="matrix(0.06971129775047304,0,0,0.06971129775047302,323.7739257812501,229.02468872070315)"></image><text fill="#ffffff" font-family="Impact" font-size="15" x="196.88662170311784" y="200.3250646744639" transform="matrix(0.8473458886146548,0,0,0.8473458886146547,193.74098205566412,14.509387969970703)" svgjs:data="{&quot;leading&quot;:&quot;1.3&quot;}"><tspan dy="0" x="196.88662170311784" svgjs:data="{&quot;newLined&quot;:true}">PLAYER</tspan></text><image width="760" height="405" xlink:href="https://lct-designs.s3.us-west-1.amazonaws.com/assets/libs/thunder1-baseball-banner-1642130841577.png" class="asset" transform="matrix(0.06971129775047304,0,0,0.06971129775047302,362.24441528320324,182.33306884765625)"></image><text fill="#ffffff" font-family="Impact" font-size="15" x="196.88662170311784" y="200.3250646744639" transform="matrix(0.8473458886146548,0,0,0.8473458886146547,238.47499084472656,59.49277114868164)" svgjs:data="{&quot;leading&quot;:&quot;1.3&quot;}"><tspan dy="0" x="196.88662170311784" svgjs:data="{&quot;newLined&quot;:true}">PLAYER</tspan></text><image width="760" height="405" xlink:href="https://lct-designs.s3.us-west-1.amazonaws.com/assets/libs/thunder1-baseball-banner-1642130841577.png" class="asset" transform="matrix(0.06971129775047304,0,0,0.06971129775047302,406.9784240722657,227.31645202636722)"></image><text fill="#ffffff" font-family="Impact" font-size="15" x="196.88662170311784" y="200.3250646744639" transform="matrix(0.8473458886146548,0,0,0.8473458886146547,262.1408081054688,-2.0035057067871236)" svgjs:data="{&quot;leading&quot;:&quot;1.3&quot;}"><tspan dy="0" x="196.88662170311784" svgjs:data="{&quot;newLined&quot;:true}">PLAYER</tspan></text><image width="760" height="405" xlink:href="https://lct-designs.s3.us-west-1.amazonaws.com/assets/libs/thunder1-baseball-banner-1642130841577.png" class="asset" transform="matrix(0.06971129775047304,0,0,0.06971129775047302,430.64425659179693,165.82017517089844)"></image><text fill="#ffffff" font-family="Impact" font-size="15" x="196.88662170311784" y="200.3250646744639" transform="matrix(0.8473458886146548,0,0,0.8473458886146547,261.32202148437506,-58.375087738037124)" svgjs:data="{&quot;leading&quot;:&quot;1.3&quot;}"><tspan dy="0" x="196.88662170311784" svgjs:data="{&quot;newLined&quot;:true}">PLAYER</tspan></text><image width="760" height="405" xlink:href="https://lct-designs.s3.us-west-1.amazonaws.com/assets/libs/thunder1-baseball-banner-1642130841577.png" class="asset" transform="matrix(0.06971129775047304,0,0,0.06971129775047302,429.8254699707032,109.44859313964847)"></image><text fill="#ffffff" font-family="Impact" font-size="15" x="196.88662170311784" y="200.3250646744639" transform="matrix(0.8473458886146548,0,0,0.8473458886146547,-144.66729736328128,-46.41747665405274)" svgjs:data="{&quot;leading&quot;:&quot;1.3&quot;}"><tspan dy="0" x="196.88662170311784" svgjs:data="{&quot;newLined&quot;:true}">PLAYER</tspan></text><image width="760" height="405" xlink:href="https://lct-designs.s3.us-west-1.amazonaws.com/assets/libs/thunder1-baseball-banner-1642130841577.png" class="asset" transform="matrix(0.06971129775047304,0,0,0.06971129775047302,23.836151123046882,121.40620422363281)"></image><g class="mask" style="pointer-events: none;"><g><path fill="#BCBEC0" d="M-3642.4-2101.7v4589.1h7813.4v-4589.1H-3642.4z M500.5,67.2v233.3v66.7H0.5v-66.7V67.2V0.5h500V67.2z" transform="matrix(1,0,0,1,0,0)"></path><g transform="matrix(1,0,0,1,0,0)">
	<rect x="0.5" y="300.5" opacity="0.95" fill="#F1F2F2" width="500" height="66.7"></rect>
	<rect x="0.5" y="0.5" opacity="0.95" fill="#F1F2F2" width="500" height="66.7"></rect>
</g></g></g></svg>