<svg xmlns="http://www.w3.org/2000/svg" version="1.1" xmlns:xlink="http://www.w3.org/1999/xlink" xmlns:svgjs="http://svgjs.dev/svgjs" width="100%" height="100%" viewBox="1 1 499 365.70001220703125" preserveAspectRatio="none" data-info="{&quot;_id&quot;:4,&quot;name&quot;:&quot;POLE POCKET SOCCER BANNERS&quot;,&quot;information&quot;:&quot;- Size: 3’x5’\n- Material: heavy duty vinyl banner\n- Digitally printed on vinyl&quot;,&quot;price&quot;:&quot;95.00&quot;,&quot;sale_price&quot;:&quot;89.99&quot;,&quot;type&quot;:&quot;pole-pocket&quot;,&quot;cover&quot;:{&quot;key&quot;:&quot;assets/models/pole-1628062864266-1631924568908.png&quot;,&quot;url&quot;:&quot;https://lct-designs.s3.us-west-1.amazonaws.com/assets/models/pole-1628062864266-1631924568908.png&quot;},&quot;back&quot;:{&quot;key&quot;:&quot;assets/models/pole-1631924700152.svg&quot;,&quot;url&quot;:&quot;https://lct-designs.s3.us-west-1.amazonaws.com/assets/models/pole-1631924700152.svg&quot;},&quot;mask&quot;:{&quot;key&quot;:&quot;assets/models/pole-mask-1631925211715.svg&quot;,&quot;url&quot;:&quot;https://lct-designs.s3.us-west-1.amazonaws.com/assets/models/pole-mask-1631925211715.svg&quot;},&quot;pos&quot;:&quot;2&quot;,&quot;accessories&quot;:&quot;2,3&quot;}" style="background-color: white;"><g class="model" style="pointer-events: none;"><polygon fill="#FFFFFF" points="0.5,0.5 0.5,67.2 0.5,300.5 0.5,367.2 500.5,367.2 500.5,300.5 500.5,67.2 500.5,0.5 "></polygon></g><image width="760" height="553" xlink:href="https://lct-designs.s3.us-west-1.amazonaws.com/assets/libs/pirates-1-baseball-banner-1644823723065.png" class="asset background locked" transform="matrix(0.6631103294883024,0,0,0.6631103294883024,0,0)"></image><text fill="#ffffff" font-family="UTM Rockwell" font-size="40" stroke-opacity="1" stroke-width="0" stroke="#ffffff" x="187.88715269305678" y="200.64758809656152" transform="matrix(0.3249328136444092,0,0,0.3249328136444092,269.6501159667969,19.883253097534165)" svgjs:data="{&quot;leading&quot;:&quot;1.3&quot;}"><tspan dy="0" x="187.88715269305678" svgjs:data="{&quot;newLined&quot;:true}">Coach: Coach name</tspan></text><text fill="#ffffff" font-family="UTM Rockwell" font-size="40" stroke-opacity="1" stroke-width="0" stroke="#ffffff" x="187.88715269305678" y="200.64758809656152" transform="matrix(0.3249328136444092,0,0,0.3249328136444092,-44.91342163085937,21.59146118164061)" svgjs:data="{&quot;leading&quot;:&quot;1.3&quot;}"><tspan dy="0" x="187.88715269305678" svgjs:data="{&quot;newLined&quot;:true}">Team mom: Name</tspan></text><text fill="#ffffff" font-family="UTM Rockwell" font-size="45" stroke-opacity="1" stroke-width="2" stroke="#002d57" x="187.88715269305678" y="200.64758809656152" transform="matrix(0.25286865234375,0,0,0.25286865234374994,-25.593574523925774,72.3095016479492)" svgjs:data="{&quot;leading&quot;:&quot;1.3&quot;}"><tspan dy="0" x="187.88715269305678" svgjs:data="{&quot;newLined&quot;:true}">PLAYER</tspan></text><image width="760" height="745" xlink:href="https://lct-designs.s3.us-west-1.amazonaws.com/assets/libs/astros-4-baseball-banner-1644906781474.png" class="asset" transform="matrix(0.03222015127539634,0,0,0.03222015127539635,36.32997894287109,126.93453216552733)"></image><text fill="#ffffff" font-family="UTM Rockwell" font-size="45" stroke-opacity="1" stroke-width="2" stroke="#002d57" x="187.88715269305678" y="200.64758809656152" transform="matrix(0.25286865234375,0,0,0.25286865234374994,27.681575775146477,107.0435104370117)" svgjs:data="{&quot;leading&quot;:&quot;1.3&quot;}"><tspan dy="0" x="187.88715269305678" svgjs:data="{&quot;newLined&quot;:true}">PLAYER</tspan></text><image width="760" height="745" xlink:href="https://lct-designs.s3.us-west-1.amazonaws.com/assets/libs/astros-4-baseball-banner-1644906781474.png" class="asset" transform="matrix(0.03222015127539634,0,0,0.03222015127539635,89.60512542724607,161.66854858398432)"></image><text fill="#ffffff" font-family="UTM Rockwell" font-size="45" stroke-opacity="1" stroke-width="2" stroke="#002d57" x="187.88715269305678" y="200.64758809656152" transform="matrix(0.25286865234375,0,0,0.25286865234374994,23.766353607177727,175.94212341308594)" svgjs:data="{&quot;leading&quot;:&quot;1.3&quot;}"><tspan dy="0" x="187.88715269305678" svgjs:data="{&quot;newLined&quot;:true}">PLAYER</tspan></text><image width="760" height="745" xlink:href="https://lct-designs.s3.us-west-1.amazonaws.com/assets/libs/astros-4-baseball-banner-1644906781474.png" class="asset" transform="matrix(0.03222015127539634,0,0,0.03222015127539635,85.68990325927732,230.567153930664)"></image><text fill="#ffffff" font-family="UTM Rockwell" font-size="45" stroke-opacity="1" stroke-width="2" stroke="#002d57" x="187.88715269305678" y="200.64758809656152" transform="matrix(0.25286865234375,0,0,0.25286865234374994,-28.369976043701165,138.9304656982422)" svgjs:data="{&quot;leading&quot;:&quot;1.3&quot;}"><tspan dy="0" x="187.88715269305678" svgjs:data="{&quot;newLined&quot;:true}">PLAYER</tspan></text><image width="760" height="745" xlink:href="https://lct-designs.s3.us-west-1.amazonaws.com/assets/libs/astros-4-baseball-banner-1644906781474.png" class="asset" transform="matrix(0.03222015127539634,0,0,0.03222015127539635,33.55357360839843,193.5554962158203)"></image><image width="760" height="532" xlink:href="https://lct-designs.s3.us-west-1.amazonaws.com/assets/libs/pirates-2-baseball-banner-1641450739722.png" class="asset" transform="matrix(0.28784263134002686,0,0,0.28784263134002686,143.62841796874997,114.75482177734374)"></image><text fill="#ffffff" font-family="UTM Rockwell" font-size="45" stroke-opacity="1" stroke-width="2" stroke="#002d57" x="187.88715269305678" y="200.64758809656152" transform="matrix(0.25286865234375,0,0,0.25286865234374994,92.98498535156247,175.94212341308594)" svgjs:data="{&quot;leading&quot;:&quot;1.3&quot;}"><tspan dy="0" x="187.88715269305678" svgjs:data="{&quot;newLined&quot;:true}">PLAYER</tspan></text><image width="760" height="745" xlink:href="https://lct-designs.s3.us-west-1.amazonaws.com/assets/libs/astros-4-baseball-banner-1644906781474.png" class="asset" transform="matrix(0.03222015127539634,0,0,0.03222015127539635,154.90853881835935,230.567153930664)"></image><text fill="#ffffff" font-family="UTM Rockwell" font-size="45" stroke-opacity="1" stroke-width="2" stroke="#002d57" x="187.88715269305678" y="200.64758809656152" transform="matrix(0.25286865234375,0,0,0.25286865234374994,327.19121551513666,72.3095016479492)" svgjs:data="{&quot;leading&quot;:&quot;1.3&quot;}"><tspan dy="0" x="187.88715269305678" svgjs:data="{&quot;newLined&quot;:true}">PLAYER</tspan></text><image width="760" height="745" xlink:href="https://lct-designs.s3.us-west-1.amazonaws.com/assets/libs/astros-4-baseball-banner-1644906781474.png" class="asset" transform="matrix(0.03222015127539634,0,0,0.03222015127539635,389.1147689819336,126.93453216552733)"></image><text fill="#ffffff" font-family="UTM Rockwell" font-size="45" stroke-opacity="1" stroke-width="2" stroke="#002d57" x="187.88715269305678" y="200.64758809656152" transform="matrix(0.25286865234375,0,0,0.25286865234374994,386.72987747192377,107.0435104370117)" svgjs:data="{&quot;leading&quot;:&quot;1.3&quot;}"><tspan dy="0" x="187.88715269305678" svgjs:data="{&quot;newLined&quot;:true}">PLAYER</tspan></text><image width="760" height="745" xlink:href="https://lct-designs.s3.us-west-1.amazonaws.com/assets/libs/astros-4-baseball-banner-1644906781474.png" class="asset" transform="matrix(0.03222015127539634,0,0,0.03222015127539635,448.6534271240234,161.66854858398432)"></image><text fill="#ffffff" font-family="UTM Rockwell" font-size="45" stroke-opacity="1" stroke-width="2" stroke="#002d57" x="187.88715269305678" y="200.64758809656152" transform="matrix(0.25286865234375,0,0,0.25286865234374994,324.41481399536127,138.9304656982422)" svgjs:data="{&quot;leading&quot;:&quot;1.3&quot;}"><tspan dy="0" x="187.88715269305678" svgjs:data="{&quot;newLined&quot;:true}">PLAYER</tspan></text><image width="760" height="745" xlink:href="https://lct-designs.s3.us-west-1.amazonaws.com/assets/libs/astros-4-baseball-banner-1644906781474.png" class="asset" transform="matrix(0.03222015127539634,0,0,0.03222015127539635,386.3383636474609,193.5554962158203)"></image><text fill="#ffffff" font-family="UTM Rockwell" font-size="45" stroke-opacity="1" stroke-width="2" stroke="#002d57" x="187.88715269305678" y="200.64758809656152" transform="matrix(0.25286865234375,0,0,0.25286865234374994,382.814655303955,175.94212341308594)" svgjs:data="{&quot;leading&quot;:&quot;1.3&quot;}"><tspan dy="0" x="187.88715269305678" svgjs:data="{&quot;newLined&quot;:true}">PLAYER</tspan></text><image width="760" height="745" xlink:href="https://lct-designs.s3.us-west-1.amazonaws.com/assets/libs/astros-4-baseball-banner-1644906781474.png" class="asset" transform="matrix(0.03222015127539634,0,0,0.03222015127539635,444.73820495605463,230.567153930664)"></image><text fill="#ffffff" font-family="UTM Rockwell" font-size="45" stroke-opacity="1" stroke-width="2" stroke="#002d57" x="187.88715269305678" y="200.64758809656152" transform="matrix(0.25286865234375,0,0,0.25286865234374994,271.5303344726562,178.78918457031244)" svgjs:data="{&quot;leading&quot;:&quot;1.3&quot;}"><tspan dy="0" x="187.88715269305678" svgjs:data="{&quot;newLined&quot;:true}">PLAYER</tspan></text><image width="760" height="745" xlink:href="https://lct-designs.s3.us-west-1.amazonaws.com/assets/libs/astros-4-baseball-banner-1644906781474.png" class="asset" transform="matrix(0.03222015127539634,0,0,0.03222015127539635,333.4538879394531,233.41421508789062)"></image><g class="mask" style="pointer-events: none;"><g><path fill="#BCBEC0" d="M-3642.4-2101.7v4589.1h7813.4v-4589.1H-3642.4z M500.5,67.2v233.3v66.7H0.5v-66.7V67.2V0.5h500V67.2z" transform="matrix(1,0,0,1,0,0)"></path><g transform="matrix(1,0,0,1,0,0)">
	<rect x="0.5" y="300.5" opacity="0.95" fill="#F1F2F2" width="500" height="66.7"></rect>
	<rect x="0.5" y="0.5" opacity="0.95" fill="#F1F2F2" width="500" height="66.7"></rect>
</g></g></g></svg>