<svg xmlns="http://www.w3.org/2000/svg" version="1.1" xmlns:xlink="http://www.w3.org/1999/xlink" xmlns:svgjs="http://svgjs.dev/svgjs" width="100%" height="100%" viewBox="1 1 499 365.70001220703125" preserveAspectRatio="none" data-info="{&quot;_id&quot;:4,&quot;name&quot;:&quot;POLE POCKET SOCCER BANNERS&quot;,&quot;information&quot;:&quot;- Size: 3’x5’\n- Material: heavy duty vinyl banner\n- Digitally printed on vinyl&quot;,&quot;price&quot;:&quot;95.00&quot;,&quot;sale_price&quot;:&quot;89.99&quot;,&quot;type&quot;:&quot;pole-pocket&quot;,&quot;cover&quot;:{&quot;key&quot;:&quot;assets/models/pole-1628062864266-1631924568908.png&quot;,&quot;url&quot;:&quot;https://lct-designs.s3.us-west-1.amazonaws.com/assets/models/pole-1628062864266-1631924568908.png&quot;},&quot;back&quot;:{&quot;key&quot;:&quot;assets/models/pole-1631924700152.svg&quot;,&quot;url&quot;:&quot;https://lct-designs.s3.us-west-1.amazonaws.com/assets/models/pole-1631924700152.svg&quot;},&quot;mask&quot;:{&quot;key&quot;:&quot;assets/models/pole-mask-1631925211715.svg&quot;,&quot;url&quot;:&quot;https://lct-designs.s3.us-west-1.amazonaws.com/assets/models/pole-mask-1631925211715.svg&quot;},&quot;pos&quot;:&quot;2&quot;,&quot;accessories&quot;:&quot;2,3&quot;}" style="background-color: white;"><g class="model" style="pointer-events: none;"><polygon fill="#FFFFFF" points="0.5,0.5 0.5,67.2 0.5,300.5 0.5,367.2 500.5,367.2 500.5,300.5 500.5,67.2 500.5,0.5 "></polygon></g><image width="760" height="556" xlink:href="https://lct-designs.s3.us-west-1.amazonaws.com/assets/libs/rangers-4-softball-banner-1640684505243.png" class="asset background locked" transform="matrix(0.6595323960558116,0,0,0.6595323960558116,0,0)"></image><text fill="#ffffff" font-family="DEATHE MAACH NCV" font-size="45" stroke-opacity="1" stroke-width="0" stroke="#ffffff" x="187.89898643190404" y="201.84774249436967" transform="matrix(0.33366161584854126,0,0,0.33366161584854126,-50.52941513061524,23.90215492248535)" svgjs:data="{&quot;leading&quot;:&quot;1.3&quot;}"><tspan dy="0" x="187.89898643190404" svgjs:data="{&quot;newLined&quot;:true}">Coach: Coach name</tspan></text><text fill="#ffffff" font-family="DEATHE MAACH NCV" font-size="45" stroke-opacity="0.9" stroke-width="1" stroke="#000000" x="187.89898643190404" y="201.84774249436967" transform="matrix(0.3163268566131592,0,0,0.31632685661315924,379.33709716796875,48.947505950927734)" svgjs:data="{&quot;leading&quot;:&quot;1.3&quot;}"><tspan dy="0" x="187.89898643190404" svgjs:data="{&quot;newLined&quot;:true}">PLAYER</tspan></text><image width="694" height="760" xlink:href="https://lct-designs.s3.us-west-1.amazonaws.com/assets/libs/rangers-3-softball-banner-1640683677760.png" class="asset" transform="matrix(0.04545389488339424,0,0,0.04545389488339425,442.8524169921875,117.25127410888672)"></image><text fill="#ffffff" font-family="DEATHE MAACH NCV" font-size="45" stroke-opacity="0.9" stroke-width="1" stroke="#000000" x="187.89898643190404" y="201.84774249436967" transform="matrix(0.3163268566131592,0,0,0.31632685661315924,299.3493347167969,49.50993728637695)" svgjs:data="{&quot;leading&quot;:&quot;1.3&quot;}"><tspan dy="0" x="187.89898643190404" svgjs:data="{&quot;newLined&quot;:true}">PLAYER</tspan></text><image width="694" height="760" xlink:href="https://lct-designs.s3.us-west-1.amazonaws.com/assets/libs/rangers-3-softball-banner-1640683677760.png" class="asset" transform="matrix(0.04545389488339424,0,0,0.04545389488339425,362.8646545410156,117.81370544433594)"></image><text fill="#ffffff" font-family="DEATHE MAACH NCV" font-size="45" stroke-opacity="0.9" stroke-width="1" stroke="#000000" x="187.89898643190404" y="201.84774249436967" transform="matrix(0.3163268566131592,0,0,0.31632685661315924,379.7759094238281,113.06509399414062)" svgjs:data="{&quot;leading&quot;:&quot;1.3&quot;}"><tspan dy="0" x="187.89898643190404" svgjs:data="{&quot;newLined&quot;:true}">PLAYER</tspan></text><image width="694" height="760" xlink:href="https://lct-designs.s3.us-west-1.amazonaws.com/assets/libs/rangers-3-softball-banner-1640683677760.png" class="asset" transform="matrix(0.04545389488339424,0,0,0.04545389488339425,443.2912292480469,181.3688659667969)"></image><text fill="#ffffff" font-family="DEATHE MAACH NCV" font-size="45" stroke-opacity="0.9" stroke-width="1" stroke="#000000" x="187.89898643190404" y="201.84774249436967" transform="matrix(0.3163268566131592,0,0,0.31632685661315924,299.78814697265625,113.6275329589844)" svgjs:data="{&quot;leading&quot;:&quot;1.3&quot;}"><tspan dy="0" x="187.89898643190404" svgjs:data="{&quot;newLined&quot;:true}">PLAYER</tspan></text><image width="694" height="760" xlink:href="https://lct-designs.s3.us-west-1.amazonaws.com/assets/libs/rangers-3-softball-banner-1640683677760.png" class="asset" transform="matrix(0.04545389488339424,0,0,0.04545389488339425,363.303466796875,181.93130493164065)"></image><text fill="#ffffff" font-family="DEATHE MAACH NCV" font-size="45" stroke-opacity="0.9" stroke-width="1" stroke="#000000" x="187.89898643190404" y="201.84774249436967" transform="matrix(0.3163268566131592,0,0,0.31632685661315924,377.402587890625,179.99485778808594)" svgjs:data="{&quot;leading&quot;:&quot;1.3&quot;}"><tspan dy="0" x="187.89898643190404" svgjs:data="{&quot;newLined&quot;:true}">PLAYER</tspan></text><image width="694" height="760" xlink:href="https://lct-designs.s3.us-west-1.amazonaws.com/assets/libs/rangers-3-softball-banner-1640683677760.png" class="asset" transform="matrix(0.04545389488339424,0,0,0.04545389488339425,440.91790771484375,248.29862976074224)"></image><text fill="#ffffff" font-family="DEATHE MAACH NCV" font-size="45" stroke-opacity="0.9" stroke-width="1" stroke="#000000" x="187.89898643190404" y="201.84774249436967" transform="matrix(0.3163268566131592,0,0,0.31632685661315924,297.4148254394531,180.55729675292974)" svgjs:data="{&quot;leading&quot;:&quot;1.3&quot;}"><tspan dy="0" x="187.89898643190404" svgjs:data="{&quot;newLined&quot;:true}">PLAYER</tspan></text><image width="694" height="760" xlink:href="https://lct-designs.s3.us-west-1.amazonaws.com/assets/libs/rangers-3-softball-banner-1640683677760.png" class="asset" transform="matrix(0.04545389488339424,0,0,0.04545389488339425,360.9301452636719,248.86106872558594)"></image><text fill="#ffffff" font-family="DEATHE MAACH NCV" font-size="45" stroke-opacity="1" stroke-width="0" stroke="#ffffff" x="187.89898643190404" y="201.84774249436967" transform="matrix(0.33366161584854126,0,0,0.33366161584854126,319.9839172363282,19.96510887145996)" svgjs:data="{&quot;leading&quot;:&quot;1.3&quot;}"><tspan dy="0" x="187.89898643190404" svgjs:data="{&quot;newLined&quot;:true}">team mom:  name</tspan></text><image width="760" height="636" xlink:href="https://lct-designs.s3.us-west-1.amazonaws.com/assets/libs/rangers-5-softball-banner-1640683948798.png" class="asset" transform="matrix(0.2376970946788788,0,0,0.23769709467887884,158.3806915283203,76.8278732299805)"></image><image width="719" height="760" xlink:href="https://lct-designs.s3.us-west-1.amazonaws.com/assets/libs/rangers-4-softball-banner-1640683757133.png" class="asset" transform="matrix(0.12269852310419083,0,0,0.12269852310419085,198.39645385742188,201.40464782714844)"></image><text fill="#ffffff" font-family="DEATHE MAACH NCV" font-size="45" stroke-opacity="0.9" stroke-width="1" stroke="#000000" x="187.89898643190404" y="201.84774249436967" transform="matrix(0.3163268566131592,0,0,0.31632685661315924,33.88554382324218,47.822628021240234)" svgjs:data="{&quot;leading&quot;:&quot;1.3&quot;}"><tspan dy="0" x="187.89898643190404" svgjs:data="{&quot;newLined&quot;:true}">PLAYER</tspan></text><image width="694" height="760" xlink:href="https://lct-designs.s3.us-west-1.amazonaws.com/assets/libs/rangers-3-softball-banner-1640683677760.png" class="asset" transform="matrix(0.04545389488339424,0,0,0.04545389488339425,97.40086364746094,116.12639617919925)"></image><text fill="#ffffff" font-family="DEATHE MAACH NCV" font-size="45" stroke-opacity="0.9" stroke-width="1" stroke="#000000" x="187.89898643190404" y="201.84774249436967" transform="matrix(0.3163268566131592,0,0,0.31632685661315924,-46.102218627929695,48.38505935668945)" svgjs:data="{&quot;leading&quot;:&quot;1.3&quot;}"><tspan dy="0" x="187.89898643190404" svgjs:data="{&quot;newLined&quot;:true}">PLAYER</tspan></text><image width="694" height="760" xlink:href="https://lct-designs.s3.us-west-1.amazonaws.com/assets/libs/rangers-3-softball-banner-1640683677760.png" class="asset" transform="matrix(0.04545389488339424,0,0,0.04545389488339425,17.413101196289062,116.68882751464844)"></image><text fill="#ffffff" font-family="DEATHE MAACH NCV" font-size="45" stroke-opacity="0.9" stroke-width="1" stroke="#000000" x="187.89898643190404" y="201.84774249436967" transform="matrix(0.3163268566131592,0,0,0.31632685661315924,34.324356079101555,111.94021606445315)" svgjs:data="{&quot;leading&quot;:&quot;1.3&quot;}"><tspan dy="0" x="187.89898643190404" svgjs:data="{&quot;newLined&quot;:true}">PLAYER</tspan></text><image width="694" height="760" xlink:href="https://lct-designs.s3.us-west-1.amazonaws.com/assets/libs/rangers-3-softball-banner-1640683677760.png" class="asset" transform="matrix(0.04545389488339424,0,0,0.04545389488339425,97.83967590332031,180.24398803710938)"></image><text fill="#ffffff" font-family="DEATHE MAACH NCV" font-size="45" stroke-opacity="0.9" stroke-width="1" stroke="#000000" x="187.89898643190404" y="201.84774249436967" transform="matrix(0.3163268566131592,0,0,0.31632685661315924,-45.66340637207032,112.5026550292969)" svgjs:data="{&quot;leading&quot;:&quot;1.3&quot;}"><tspan dy="0" x="187.89898643190404" svgjs:data="{&quot;newLined&quot;:true}">PLAYER</tspan></text><image width="694" height="760" xlink:href="https://lct-designs.s3.us-west-1.amazonaws.com/assets/libs/rangers-3-softball-banner-1640683677760.png" class="asset" transform="matrix(0.04545389488339424,0,0,0.04545389488339425,17.85191345214843,180.80642700195318)"></image><text fill="#ffffff" font-family="DEATHE MAACH NCV" font-size="45" stroke-opacity="0.9" stroke-width="1" stroke="#000000" x="187.89898643190404" y="201.84774249436967" transform="matrix(0.3163268566131592,0,0,0.31632685661315924,31.95103454589843,178.86997985839847)" svgjs:data="{&quot;leading&quot;:&quot;1.3&quot;}"><tspan dy="0" x="187.89898643190404" svgjs:data="{&quot;newLined&quot;:true}">PLAYER</tspan></text><image width="694" height="760" xlink:href="https://lct-designs.s3.us-west-1.amazonaws.com/assets/libs/rangers-3-softball-banner-1640683677760.png" class="asset" transform="matrix(0.04545389488339424,0,0,0.04545389488339425,95.46635437011719,247.17375183105474)"></image><text fill="#ffffff" font-family="DEATHE MAACH NCV" font-size="45" stroke-opacity="0.9" stroke-width="1" stroke="#000000" x="187.89898643190404" y="201.84774249436967" transform="matrix(0.3163268566131592,0,0,0.31632685661315924,-48.03672790527344,179.43241882324222)" svgjs:data="{&quot;leading&quot;:&quot;1.3&quot;}"><tspan dy="0" x="187.89898643190404" svgjs:data="{&quot;newLined&quot;:true}">PLAYER</tspan></text><image width="694" height="760" xlink:href="https://lct-designs.s3.us-west-1.amazonaws.com/assets/libs/rangers-3-softball-banner-1640683677760.png" class="asset" transform="matrix(0.04545389488339424,0,0,0.04545389488339425,15.478591918945305,247.7361907958985)"></image><g class="mask" style="pointer-events: none;"><g><path fill="#BCBEC0" d="M-3642.4-2101.7v4589.1h7813.4v-4589.1H-3642.4z M500.5,67.2v233.3v66.7H0.5v-66.7V67.2V0.5h500V67.2z" transform="matrix(1,0,0,1,0,0)"></path><g transform="matrix(1,0,0,1,0,0)">
	<rect x="0.5" y="300.5" opacity="0.95" fill="#F1F2F2" width="500" height="66.7"></rect>
	<rect x="0.5" y="0.5" opacity="0.95" fill="#F1F2F2" width="500" height="66.7"></rect>
</g></g></g></svg>