<svg xmlns="http://www.w3.org/2000/svg" version="1.1" xmlns:xlink="http://www.w3.org/1999/xlink" xmlns:svgjs="http://svgjs.dev/svgjs" width="100%" height="100%" viewBox="1 1 499 365.70001220703125" preserveAspectRatio="none" data-info="{&quot;_id&quot;:4,&quot;name&quot;:&quot;POLE POCKET SOCCER BANNERS&quot;,&quot;information&quot;:&quot;- Size: 3’x5’\n- Material: heavy duty vinyl banner\n- Digitally printed on vinyl&quot;,&quot;price&quot;:&quot;95.00&quot;,&quot;sale_price&quot;:&quot;89.99&quot;,&quot;type&quot;:&quot;pole-pocket&quot;,&quot;cover&quot;:{&quot;key&quot;:&quot;assets/models/pole-1628062864266-1631924568908.png&quot;,&quot;url&quot;:&quot;https://lct-designs.s3.us-west-1.amazonaws.com/assets/models/pole-1628062864266-1631924568908.png&quot;},&quot;back&quot;:{&quot;key&quot;:&quot;assets/models/pole-1631924700152.svg&quot;,&quot;url&quot;:&quot;https://lct-designs.s3.us-west-1.amazonaws.com/assets/models/pole-1631924700152.svg&quot;},&quot;mask&quot;:{&quot;key&quot;:&quot;assets/models/pole-mask-1631925211715.svg&quot;,&quot;url&quot;:&quot;https://lct-designs.s3.us-west-1.amazonaws.com/assets/models/pole-mask-1631925211715.svg&quot;},&quot;pos&quot;:&quot;2&quot;,&quot;accessories&quot;:&quot;2,3&quot;}" style="background-color: white;"><g class="model" style="pointer-events: none;"><polygon fill="#FFFFFF" points="0.5,0.5 0.5,67.2 0.5,300.5 0.5,367.2 500.5,367.2 500.5,300.5 500.5,67.2 500.5,0.5 "></polygon></g><image width="760" height="532" xlink:href="https://lct-designs.s3.us-west-1.amazonaws.com/assets/libs/toronto-baseball-banner-1641528706665.png" class="asset background locked" transform="matrix(0.6892857372312617,0,0,0.6892857372312617,0,0)"></image><text fill="#0d0d0d" font-family="Impact" font-size="45" x="192.06642438162737" y="201.88927563680983" stroke-opacity="1" stroke-width="1" stroke="#f7f7f7" transform="matrix(0.28554198145866394,0,0,0.28554198145866394,319.31970214843756,30.672418594360366)" svgjs:data="{&quot;leading&quot;:&quot;1.3&quot;}"><tspan dy="0" x="192.06642438162737" svgjs:data="{&quot;newLined&quot;:true}">Coach: Coach's name</tspan></text><text fill="#0d0d0d" font-family="Impact" font-size="45" x="192.06642438162737" y="201.88927563680983" stroke-opacity="1" stroke-width="1" stroke="#f7f7f7" transform="matrix(0.2855419814586639,0,0,0.28554198145866394,-37.95859146118164,30.671514511108384)" svgjs:data="{&quot;leading&quot;:&quot;1.3&quot;}"><tspan dy="0" x="192.06642438162737" svgjs:data="{&quot;newLined&quot;:true}">Team mom: name</tspan></text><text fill="#ffffff" font-family="Freshman" font-size="45" stroke-opacity="1" stroke-width="2" stroke="#000000" x="54.90154642456008" y="202.01522374115754" transform="matrix(0.27595511078834534,0,0,0.27595511078834534,15.34359073638916,91.5547637939453)" svgjs:data="{&quot;leading&quot;:&quot;1.3&quot;}"><tspan dy="0" x="54.90154642456008" svgjs:data="{&quot;newLined&quot;:true}">PLAYER</tspan></text><text fill="#ffffff" font-family="Freshman" font-size="45" stroke-opacity="1" stroke-width="2" stroke="#000000" x="54.90154642456008" y="202.01522374115754" transform="matrix(0.27595511078834534,0,0,0.27595511078834534,106.64297485351565,90.98622131347655)" svgjs:data="{&quot;leading&quot;:&quot;1.3&quot;}"><tspan dy="0" x="54.90154642456008" svgjs:data="{&quot;newLined&quot;:true}">PLAYER</tspan></text><text fill="#ffffff" font-family="Freshman" font-size="45" stroke-opacity="1" stroke-width="2" stroke="#000000" x="54.90154642456008" y="202.01522374115754" transform="matrix(0.27595511078834534,0,0,0.27595511078834534,199.31292724609372,89.84916687011717)" svgjs:data="{&quot;leading&quot;:&quot;1.3&quot;}"><tspan dy="0" x="54.90154642456008" svgjs:data="{&quot;newLined&quot;:true}">PLAYER</tspan></text><image width="760" height="476" xlink:href="https://lct-designs.s3.us-west-1.amazonaws.com/assets/libs/toronto-baseball-banner-1641529119150.png" class="asset" transform="matrix(0.0794127732515335,0,0,0.07941277325153351,214.99635314941406,93.47469329833986)"></image><text fill="#ffffff" font-family="Freshman" font-size="45" stroke-opacity="1" stroke-width="2" stroke="#000000" x="54.90154642456008" y="202.01522374115754" transform="matrix(0.27595511078834534,0,0,0.27595511078834534,290.6123046875,89.28062438964845)" svgjs:data="{&quot;leading&quot;:&quot;1.3&quot;}"><tspan dy="0" x="54.90154642456008" svgjs:data="{&quot;newLined&quot;:true}">PLAYER</tspan></text><image width="760" height="476" xlink:href="https://lct-designs.s3.us-west-1.amazonaws.com/assets/libs/toronto-baseball-banner-1641529119150.png" class="asset" transform="matrix(0.0794127732515335,0,0,0.07941277325153351,306.2957458496094,92.90615081787108)"></image><image width="760" height="476" xlink:href="https://lct-designs.s3.us-west-1.amazonaws.com/assets/libs/toronto-baseball-banner-1641529119150.png" class="asset" transform="matrix(0.0794127732515335,0,0,0.07941277325153351,122.32640838623047,94.61174774169923)"></image><image width="760" height="476" xlink:href="https://lct-designs.s3.us-west-1.amazonaws.com/assets/libs/toronto-baseball-banner-1641529119150.png" class="asset" transform="matrix(0.0794127732515335,0,0,0.07941277325153351,31.02702522277832,95.18029022216795)"></image><image width="760" height="760" xlink:href="https://lct-designs.s3.us-west-1.amazonaws.com/assets/libs/toronto-2-baseball-banner-1641529053370.png" class="asset" transform="matrix(0.15701322257518766,0,0,0.15701322257518768,369.9896240234375,106.62866210937499)"></image><image width="760" height="695" xlink:href="https://lct-designs.s3.us-west-1.amazonaws.com/assets/libs/toronto-baseball-banner-1641528938255.png" class="asset" transform="matrix(0.20029349625110626,0,0,0.20029349625110626,24.89361190795897,155.81956481933594)"></image><text fill="#ffffff" font-family="Freshman" font-size="45" stroke-opacity="1" stroke-width="2" stroke="#000000" x="54.90154642456008" y="202.01522374115754" transform="matrix(0.27595511078834534,0,0,0.27595511078834534,151.32318115234378,159.2109375)" svgjs:data="{&quot;leading&quot;:&quot;1.3&quot;}"><tspan dy="0" x="54.90154642456008" svgjs:data="{&quot;newLined&quot;:true}">PLAYER</tspan></text><image width="760" height="476" xlink:href="https://lct-designs.s3.us-west-1.amazonaws.com/assets/libs/toronto-baseball-banner-1641529119150.png" class="asset" transform="matrix(0.0794127732515335,0,0,0.07941277325153351,167.00660705566403,162.83645629882812)"></image><text fill="#ffffff" font-family="Freshman" font-size="45" stroke-opacity="1" stroke-width="2" stroke="#000000" x="54.90154642456008" y="202.01522374115754" transform="matrix(0.27595511078834534,0,0,0.27595511078834534,242.62255859375,158.64239501953125)" svgjs:data="{&quot;leading&quot;:&quot;1.3&quot;}"><tspan dy="0" x="54.90154642456008" svgjs:data="{&quot;newLined&quot;:true}">PLAYER</tspan></text><image width="760" height="476" xlink:href="https://lct-designs.s3.us-west-1.amazonaws.com/assets/libs/toronto-baseball-banner-1641529119150.png" class="asset" transform="matrix(0.0794127732515335,0,0,0.07941277325153351,258.3059997558594,162.26791381835938)"></image><text fill="#ffffff" font-family="Freshman" font-size="45" stroke-opacity="1" stroke-width="2" stroke="#000000" x="54.90154642456008" y="202.01522374115754" transform="matrix(0.27595511078834534,0,0,0.27595511078834534,171.79010009765622,230.27830505371094)" svgjs:data="{&quot;leading&quot;:&quot;1.3&quot;}"><tspan dy="0" x="54.90154642456008" svgjs:data="{&quot;newLined&quot;:true}">PLAYER</tspan></text><text fill="#ffffff" font-family="Freshman" font-size="45" stroke-opacity="1" stroke-width="2" stroke="#000000" x="54.90154642456008" y="202.01522374115754" transform="matrix(0.27595511078834534,0,0,0.27595511078834534,264.4600524902344,229.14125061035156)" svgjs:data="{&quot;leading&quot;:&quot;1.3&quot;}"><tspan dy="0" x="54.90154642456008" svgjs:data="{&quot;newLined&quot;:true}">PLAYER</tspan></text><image width="760" height="476" xlink:href="https://lct-designs.s3.us-west-1.amazonaws.com/assets/libs/toronto-baseball-banner-1641529119150.png" class="asset" transform="matrix(0.0794127732515335,0,0,0.07941277325153351,280.1434783935547,232.76677703857422)"></image><text fill="#ffffff" font-family="Freshman" font-size="45" stroke-opacity="1" stroke-width="2" stroke="#000000" x="54.90154642456008" y="202.01522374115754" transform="matrix(0.27595511078834534,0,0,0.27595511078834534,355.7594299316406,228.57270812988276)" svgjs:data="{&quot;leading&quot;:&quot;1.3&quot;}"><tspan dy="0" x="54.90154642456008" svgjs:data="{&quot;newLined&quot;:true}">PLAYER</tspan></text><image width="760" height="476" xlink:href="https://lct-designs.s3.us-west-1.amazonaws.com/assets/libs/toronto-baseball-banner-1641529119150.png" class="asset" transform="matrix(0.0794127732515335,0,0,0.07941277325153351,371.44287109375,232.1982345581054)"></image><image width="760" height="476" xlink:href="https://lct-designs.s3.us-west-1.amazonaws.com/assets/libs/toronto-baseball-banner-1641529119150.png" class="asset" transform="matrix(0.0794127732515335,0,0,0.07941277325153351,187.47354125976565,233.9038314819336)"></image><g class="mask" style="pointer-events: none;"><g><path fill="#BCBEC0" d="M-3642.4-2101.7v4589.1h7813.4v-4589.1H-3642.4z M500.5,67.2v233.3v66.7H0.5v-66.7V67.2V0.5h500V67.2z" transform="matrix(1,0,0,1,0,0)"></path><g transform="matrix(1,0,0,1,0,0)">
	<rect x="0.5" y="300.5" opacity="0.95" fill="#F1F2F2" width="500" height="66.7"></rect>
	<rect x="0.5" y="0.5" opacity="0.95" fill="#F1F2F2" width="500" height="66.7"></rect>
</g></g></g></svg>