<svg xmlns="http://www.w3.org/2000/svg" version="1.1" xmlns:xlink="http://www.w3.org/1999/xlink" xmlns:svgjs="http://svgjs.dev/svgjs" width="100%" height="100%" viewBox="1 1 499 365.70001220703125" preserveAspectRatio="none" data-info="{&quot;_id&quot;:4,&quot;name&quot;:&quot;POLE POCKET SOCCER BANNERS&quot;,&quot;information&quot;:&quot;- Size: 3’x5’\n- Material: heavy duty vinyl banner\n- Digitally printed on vinyl&quot;,&quot;price&quot;:&quot;95.00&quot;,&quot;sale_price&quot;:&quot;89.99&quot;,&quot;type&quot;:&quot;pole-pocket&quot;,&quot;cover&quot;:{&quot;key&quot;:&quot;assets/models/pole-1628062864266-1631924568908.png&quot;,&quot;url&quot;:&quot;https://lct-designs.s3.us-west-1.amazonaws.com/assets/models/pole-1628062864266-1631924568908.png&quot;},&quot;back&quot;:{&quot;key&quot;:&quot;assets/models/pole-1631924700152.svg&quot;,&quot;url&quot;:&quot;https://lct-designs.s3.us-west-1.amazonaws.com/assets/models/pole-1631924700152.svg&quot;},&quot;mask&quot;:{&quot;key&quot;:&quot;assets/models/pole-mask-1631925211715.svg&quot;,&quot;url&quot;:&quot;https://lct-designs.s3.us-west-1.amazonaws.com/assets/models/pole-mask-1631925211715.svg&quot;},&quot;pos&quot;:&quot;2&quot;,&quot;accessories&quot;:&quot;2,3&quot;}" style="background-color: white;"><g class="model" style="pointer-events: none;"><polygon fill="#FFFFFF" points="0.5,0.5 0.5,67.2 0.5,300.5 0.5,367.2 500.5,367.2 500.5,300.5 500.5,67.2 500.5,0.5 "></polygon></g><image width="760" height="553" xlink:href="https://lct-designs.s3.us-west-1.amazonaws.com/assets/libs/pirates-baseball-banner-1644823723065.png" class="asset background locked" transform="matrix(0.6631103294883024,0,0,0.6631103294883024,0,0)"></image><text fill="#ffffff" font-family="UTM Rockwell" font-size="38" stroke-opacity="1" stroke-width="0" stroke="#ffffff" x="187.88715269305678" y="200.64758809656152" transform="matrix(0.32493290305137634,0,0,0.3249329030513763,277.0524291992187,20.45266342163086)" svgjs:data="{&quot;leading&quot;:&quot;1.3&quot;}"><tspan dy="0" x="187.88715269305678" svgjs:data="{&quot;newLined&quot;:true}">Coach: Coach name</tspan></text><text fill="#ffffff" font-family="UTM Rockwell" font-size="38" stroke-opacity="1" stroke-width="0" stroke="#ffffff" x="187.88715269305678" y="200.64758809656152" transform="matrix(0.3249330222606659,0,0,0.32493302226066595,-43.77460098266602,24.438512802124023)" svgjs:data="{&quot;leading&quot;:&quot;1.3&quot;}"><tspan dy="0" x="187.88715269305678" svgjs:data="{&quot;newLined&quot;:true}">Team mom: Name</tspan></text><image width="760" height="532" xlink:href="https://lct-designs.s3.us-west-1.amazonaws.com/assets/libs/pirates-2-baseball-banner-1641450739722.png" class="asset" transform="matrix(0.27606937289237976,0,0,0.27606937289237976,144.76724243164062,95.39487457275386)"></image><image width="547" height="760" xlink:href="https://lct-designs.s3.us-west-1.amazonaws.com/assets/libs/pirates-baseball-banner-1644572639398.png" class="asset" transform="matrix(0.18477311730384824,0,0,0.18477311730384824,363.7679748535156,160.6816864013672)"></image><image width="760" height="593" xlink:href="https://lct-designs.s3.us-west-1.amazonaws.com/assets/libs/pirates-baseball-banner-1644572700744.png" class="asset" transform="matrix(0.05092192068696021,0,0,0.05092192068696021,22.913511276245124,117.0051803588867)"></image><text fill="#ffffff" font-family="UTM Rockwell" font-size="38" stroke-opacity="1" stroke-width="0" stroke="#ffffff" x="187.88715269305678" y="200.64758809656152" transform="matrix(0.3249332010746002,0,0,0.3249332010746002,-46.30161666870116,47.214900970458984)" svgjs:data="{&quot;leading&quot;:&quot;1.3&quot;}"><tspan dy="0" x="187.88715269305678" svgjs:data="{&quot;newLined&quot;:true}">PLAYER</tspan></text><image width="760" height="593" xlink:href="https://lct-designs.s3.us-west-1.amazonaws.com/assets/libs/pirates-baseball-banner-1644572700744.png" class="asset" transform="matrix(0.050921935588121414,0,0,0.05092193558812141,85.29923248291013,154.016845703125)"></image><text fill="#ffffff" font-family="UTM Rockwell" font-size="38" stroke-opacity="1" stroke-width="0" stroke="#ffffff" x="187.88715269305678" y="200.64758809656152" transform="matrix(0.3249334096908569,0,0,0.32493340969085693,16.08409881591796,84.22656250000001)" svgjs:data="{&quot;leading&quot;:&quot;1.3&quot;}"><tspan dy="0" x="187.88715269305678" svgjs:data="{&quot;newLined&quot;:true}">PLAYER</tspan></text><image width="760" height="593" xlink:href="https://lct-designs.s3.us-west-1.amazonaws.com/assets/libs/pirates-baseball-banner-1644572700744.png" class="asset" transform="matrix(0.050921954214572906,0,0,0.0509219542145729,85.93929290771482,219.49899291992188)"></image><text fill="#ffffff" font-family="UTM Rockwell" font-size="38" stroke-opacity="1" stroke-width="0" stroke="#ffffff" x="187.88715269305678" y="200.64758809656152" transform="matrix(0.3249335289001465,0,0,0.3249335289001465,16.724159240722656,149.70870971679688)" svgjs:data="{&quot;leading&quot;:&quot;1.3&quot;}"><tspan dy="0" x="187.88715269305678" svgjs:data="{&quot;newLined&quot;:true}">PLAYER</tspan></text><image width="760" height="593" xlink:href="https://lct-designs.s3.us-west-1.amazonaws.com/assets/libs/pirates-baseball-banner-1644572700744.png" class="asset" transform="matrix(0.050921935588121414,0,0,0.05092193558812141,20.70652770996093,192.16729736328125)"></image><text fill="#ffffff" font-family="UTM Rockwell" font-size="38" stroke-opacity="1" stroke-width="0" stroke="#ffffff" x="187.88715269305678" y="200.64758809656152" transform="matrix(0.3249334096908569,0,0,0.32493340969085693,-48.50860595703124,122.37701416015624)" svgjs:data="{&quot;leading&quot;:&quot;1.3&quot;}"><tspan dy="0" x="187.88715269305678" svgjs:data="{&quot;newLined&quot;:true}">PLAYER</tspan></text><image width="760" height="593" xlink:href="https://lct-designs.s3.us-west-1.amazonaws.com/assets/libs/pirates-baseball-banner-1644572700744.png" class="asset" transform="matrix(0.050921961665153496,0,0,0.050921961665153496,17.93013000488282,261.06591796874994)"></image><text fill="#ffffff" font-family="UTM Rockwell" font-size="38" stroke-opacity="1" stroke-width="0" stroke="#ffffff" x="187.88715269305678" y="200.64758809656152" transform="matrix(0.324933648109436,0,0,0.32493364810943604,-51.28500366210937,191.27561950683594)" svgjs:data="{&quot;leading&quot;:&quot;1.3&quot;}"><tspan dy="0" x="187.88715269305678" svgjs:data="{&quot;newLined&quot;:true}">PLAYER</tspan></text><image width="760" height="593" xlink:href="https://lct-designs.s3.us-west-1.amazonaws.com/assets/libs/pirates-baseball-banner-1644572700744.png" class="asset" transform="matrix(0.05092196911573409,0,0,0.05092196911573409,150.35327148437497,260.49652099609375)"></image><text fill="#ffffff" font-family="UTM Rockwell" font-size="38" stroke-opacity="1" stroke-width="0" stroke="#ffffff" x="187.88715269305678" y="200.64758809656152" transform="matrix(0.32493370771408076,0,0,0.3249337077140808,81.13813781738278,190.7062225341797)" svgjs:data="{&quot;leading&quot;:&quot;1.3&quot;}"><tspan dy="0" x="187.88715269305678" svgjs:data="{&quot;newLined&quot;:true}">PLAYER</tspan></text><image width="760" height="593" xlink:href="https://lct-designs.s3.us-west-1.amazonaws.com/assets/libs/pirates-baseball-banner-1644572700744.png" class="asset" transform="matrix(0.05092200264334678,0,0,0.05092200264334678,307.2610778808593,260.49652099609375)"></image><text fill="#ffffff" font-family="UTM Rockwell" font-size="38" stroke-opacity="1" stroke-width="0" stroke="#ffffff" x="187.88715269305678" y="200.64758809656152" transform="matrix(0.3249340057373047,0,0,0.32493400573730463,238.04592895507812,190.7062225341797)" svgjs:data="{&quot;leading&quot;:&quot;1.3&quot;}"><tspan dy="0" x="187.88715269305678" svgjs:data="{&quot;newLined&quot;:true}">PLAYER</tspan></text><image width="760" height="593" xlink:href="https://lct-designs.s3.us-west-1.amazonaws.com/assets/libs/pirates-baseball-banner-1644572700744.png" class="asset" transform="matrix(0.05092199519276619,0,0,0.05092199519276618,373.06323242187494,113.01934814453126)"></image><text fill="#ffffff" font-family="UTM Rockwell" font-size="38" stroke-opacity="1" stroke-width="0" stroke="#ffffff" x="187.88715269305678" y="200.64758809656152" transform="matrix(0.32493394613265986,0,0,0.32493394613265986,303.8480834960937,43.22904968261719)" svgjs:data="{&quot;leading&quot;:&quot;1.3&quot;}"><tspan dy="0" x="187.88715269305678" svgjs:data="{&quot;newLined&quot;:true}">PLAYER</tspan></text><image width="760" height="593" xlink:href="https://lct-designs.s3.us-west-1.amazonaws.com/assets/libs/pirates-baseball-banner-1644572700744.png" class="asset" transform="matrix(0.05092200264334678,0,0,0.05092200264334678,439.43481445312494,141.48985290527344)"></image><text fill="#ffffff" font-family="UTM Rockwell" font-size="38" stroke-opacity="1" stroke-width="0" stroke="#ffffff" x="187.88715269305678" y="200.64758809656152" transform="matrix(0.3249340057373047,0,0,0.32493400573730463,370.2196655273437,71.69955444335936)" svgjs:data="{&quot;leading&quot;:&quot;1.3&quot;}"><tspan dy="0" x="187.88715269305678" svgjs:data="{&quot;newLined&quot;:true}">PLAYER</tspan></text><g class="mask" style="pointer-events: none;"><g><path fill="#BCBEC0" d="M-3642.4-2101.7v4589.1h7813.4v-4589.1H-3642.4z M500.5,67.2v233.3v66.7H0.5v-66.7V67.2V0.5h500V67.2z" transform="matrix(1,0,0,1,0,0)"></path><g transform="matrix(1,0,0,1,0,0)">
	<rect x="0.5" y="300.5" opacity="0.95" fill="#F1F2F2" width="500" height="66.7"></rect>
	<rect x="0.5" y="0.5" opacity="0.95" fill="#F1F2F2" width="500" height="66.7"></rect>
</g></g></g></svg>