<svg xmlns="http://www.w3.org/2000/svg" version="1.1" xmlns:xlink="http://www.w3.org/1999/xlink" xmlns:svgjs="http://svgjs.dev/svgjs" width="100%" height="100%" viewBox="1 1 499 365.70001220703125" preserveAspectRatio="none" data-info="{&quot;_id&quot;:4,&quot;name&quot;:&quot;POLE POCKET SOCCER BANNERS&quot;,&quot;information&quot;:&quot;- Size: 3’x5’\n- Material: heavy duty vinyl banner\n- Digitally printed on vinyl&quot;,&quot;price&quot;:&quot;95.00&quot;,&quot;sale_price&quot;:&quot;89.99&quot;,&quot;type&quot;:&quot;pole-pocket&quot;,&quot;cover&quot;:{&quot;key&quot;:&quot;assets/models/pole-1628062864266-1631924568908.png&quot;,&quot;url&quot;:&quot;https://lct-designs.s3.us-west-1.amazonaws.com/assets/models/pole-1628062864266-1631924568908.png&quot;},&quot;back&quot;:{&quot;key&quot;:&quot;assets/models/pole-1631924700152.svg&quot;,&quot;url&quot;:&quot;https://lct-designs.s3.us-west-1.amazonaws.com/assets/models/pole-1631924700152.svg&quot;},&quot;mask&quot;:{&quot;key&quot;:&quot;assets/models/pole-mask-1631925211715.svg&quot;,&quot;url&quot;:&quot;https://lct-designs.s3.us-west-1.amazonaws.com/assets/models/pole-mask-1631925211715.svg&quot;},&quot;pos&quot;:&quot;2&quot;,&quot;accessories&quot;:&quot;2,3&quot;}" style="background-color: white;"><g class="model" style="pointer-events: none;"><polygon fill="#FFFFFF" points="0.5,0.5 0.5,67.2 0.5,300.5 0.5,367.2 500.5,367.2 500.5,300.5 500.5,67.2 500.5,0.5 "></polygon></g><image width="760" height="556" xlink:href="https://lct-designs.s3.us-west-1.amazonaws.com/assets/libs/rockies-5-softball-banner-1640684505246.png" class="asset background locked" transform="matrix(0.6595323960558116,0,0,0.6595323960558116,0,0)"></image><text fill="#ffffff" font-family="UTM Rockwell" font-size="45" stroke-opacity="1" stroke-width="0" stroke="#ffffff" x="187.89898643190404" y="201.84774249436967" transform="matrix(0.33366161584854126,0,0,0.33366161584854126,-53.90396118164063,15.465627670288086)" svgjs:data="{&quot;leading&quot;:&quot;1.3&quot;}"><tspan dy="0" x="187.89898643190404" svgjs:data="{&quot;newLined&quot;:true}">Coach: Coach name</tspan></text><text fill="#ffffff" font-family="UTM Rockwell" font-size="45" stroke-opacity="1" stroke-width="0" stroke="#ffffff" x="187.89898643190404" y="201.84774249436967" transform="matrix(0.33366161584854126,0,0,0.33366161584854126,260.9294738769531,17.152938842773438)" svgjs:data="{&quot;leading&quot;:&quot;1.3&quot;}"><tspan dy="0" x="187.89898643190404" svgjs:data="{&quot;newLined&quot;:true}">Team mom: name</tspan></text><image width="668" height="760" xlink:href="https://lct-designs.s3.us-west-1.amazonaws.com/assets/libs/rockies-5-softball-banner-1640683757136.png" class="asset" transform="matrix(0.13971930742263794,0,0,0.13971930742263797,202.11567687988284,186.78134155273443)"></image><image width="760" height="567" xlink:href="https://lct-designs.s3.us-west-1.amazonaws.com/assets/libs/colorado-rockies-2-6-1640655729574.png" class="asset" transform="matrix(0.19803835451602936,0,0,0.19803835451602939,174.12852478027347,82.49221038818361)"></image><text fill="#ffffff" font-family="UTM Rockwell" font-size="45" stroke-opacity="0.9" stroke-width="1" stroke="#000000" x="187.89898643190404" y="201.84774249436967" transform="matrix(0.28667610883712774,0,0,0.28667610883712774,-43.91849136352539,82.80838012695314)" svgjs:data="{&quot;leading&quot;:&quot;1.3&quot;}"><tspan dy="0" x="187.89898643190404" svgjs:data="{&quot;newLined&quot;:true}">PLAYER</tspan></text><image width="643" height="760" xlink:href="https://lct-designs.s3.us-west-1.amazonaws.com/assets/libs/athletics-baseball-banner_1-1644906781474.png" class="asset" transform="matrix(0.04573472589254379,0,0,0.0457347258925438,24.909793853759766,92.29226684570317)"></image><text fill="#ffffff" font-family="UTM Rockwell" font-size="45" stroke-opacity="0.9" stroke-width="1" stroke="#000000" x="187.89898643190404" y="201.84774249436967" transform="matrix(0.28667610883712774,0,0,0.28667610883712774,47.07047653198242,83.37081146240236)" svgjs:data="{&quot;leading&quot;:&quot;1.3&quot;}"><tspan dy="0" x="187.89898643190404" svgjs:data="{&quot;newLined&quot;:true}">PLAYER</tspan></text><image width="643" height="760" xlink:href="https://lct-designs.s3.us-west-1.amazonaws.com/assets/libs/athletics-baseball-banner_1-1644906781474.png" class="asset" transform="matrix(0.04573472589254379,0,0,0.0457347258925438,115.89876556396484,92.85469818115239)"></image><text fill="#ffffff" font-family="UTM Rockwell" font-size="45" stroke-opacity="0.9" stroke-width="1" stroke="#000000" x="187.89898643190404" y="201.84774249436967" transform="matrix(0.28667610883712774,0,0,0.28667610883712774,-44.0421028137207,149.17572021484375)" svgjs:data="{&quot;leading&quot;:&quot;1.3&quot;}"><tspan dy="0" x="187.89898643190404" svgjs:data="{&quot;newLined&quot;:true}">PLAYER</tspan></text><image width="643" height="760" xlink:href="https://lct-designs.s3.us-west-1.amazonaws.com/assets/libs/athletics-baseball-banner_1-1644906781474.png" class="asset" transform="matrix(0.04573472589254379,0,0,0.0457347258925438,24.786182403564453,158.65960693359375)"></image><text fill="#ffffff" font-family="UTM Rockwell" font-size="45" stroke-opacity="0.9" stroke-width="1" stroke="#000000" x="187.89898643190404" y="201.84774249436967" transform="matrix(0.28667610883712774,0,0,0.28667610883712774,46.94686508178711,149.73814392089844)" svgjs:data="{&quot;leading&quot;:&quot;1.3&quot;}"><tspan dy="0" x="187.89898643190404" svgjs:data="{&quot;newLined&quot;:true}">PLAYER</tspan></text><image width="643" height="760" xlink:href="https://lct-designs.s3.us-west-1.amazonaws.com/assets/libs/athletics-baseball-banner_1-1644906781474.png" class="asset" transform="matrix(0.04573472589254379,0,0,0.0457347258925438,115.77515411376953,159.2220306396485)"></image><text fill="#ffffff" font-family="UTM Rockwell" font-size="45" stroke-opacity="0.9" stroke-width="1" stroke="#000000" x="187.89898643190404" y="201.84774249436967" transform="matrix(0.28667610883712774,0,0,0.28667610883712774,-44.72813796997071,214.41818237304688)" svgjs:data="{&quot;leading&quot;:&quot;1.3&quot;}"><tspan dy="0" x="187.89898643190404" svgjs:data="{&quot;newLined&quot;:true}">PLAYER</tspan></text><image width="643" height="760" xlink:href="https://lct-designs.s3.us-west-1.amazonaws.com/assets/libs/athletics-baseball-banner_1-1644906781474.png" class="asset" transform="matrix(0.04573472589254379,0,0,0.0457347258925438,24.100147247314453,223.90206909179688)"></image><text fill="#ffffff" font-family="UTM Rockwell" font-size="45" stroke-opacity="0.9" stroke-width="1" stroke="#000000" x="187.89898643190404" y="201.84774249436967" transform="matrix(0.28667610883712774,0,0,0.28667610883712774,46.26082992553711,214.98060607910156)" svgjs:data="{&quot;leading&quot;:&quot;1.3&quot;}"><tspan dy="0" x="187.89898643190404" svgjs:data="{&quot;newLined&quot;:true}">PLAYER</tspan></text><image width="643" height="760" xlink:href="https://lct-designs.s3.us-west-1.amazonaws.com/assets/libs/athletics-baseball-banner_1-1644906781474.png" class="asset" transform="matrix(0.04573472589254379,0,0,0.0457347258925438,115.08911895751953,224.46449279785162)"></image><text fill="#ffffff" font-family="UTM Rockwell" font-size="45" stroke-opacity="0.9" stroke-width="1" stroke="#000000" x="187.89898643190404" y="201.84774249436967" transform="matrix(0.28667610883712774,0,0,0.28667610883712774,279.9137535095214,81.12107849121095)" svgjs:data="{&quot;leading&quot;:&quot;1.3&quot;}"><tspan dy="0" x="187.89898643190404" svgjs:data="{&quot;newLined&quot;:true}">PLAYER</tspan></text><image width="643" height="760" xlink:href="https://lct-designs.s3.us-west-1.amazonaws.com/assets/libs/athletics-baseball-banner_1-1644906781474.png" class="asset" transform="matrix(0.04573472589254379,0,0,0.0457347258925438,348.74203872680664,90.60496520996095)"></image><text fill="#ffffff" font-family="UTM Rockwell" font-size="45" stroke-opacity="0.9" stroke-width="1" stroke="#000000" x="187.89898643190404" y="201.84774249436967" transform="matrix(0.28667610883712774,0,0,0.28667610883712774,370.9027214050293,81.68350982666017)" svgjs:data="{&quot;leading&quot;:&quot;1.3&quot;}"><tspan dy="0" x="187.89898643190404" svgjs:data="{&quot;newLined&quot;:true}">PLAYER</tspan></text><image width="643" height="760" xlink:href="https://lct-designs.s3.us-west-1.amazonaws.com/assets/libs/athletics-baseball-banner_1-1644906781474.png" class="asset" transform="matrix(0.04573472589254379,0,0,0.0457347258925438,439.7310104370117,91.16739654541017)"></image><text fill="#ffffff" font-family="UTM Rockwell" font-size="45" stroke-opacity="0.9" stroke-width="1" stroke="#000000" x="187.89898643190404" y="201.84774249436967" transform="matrix(0.28667610883712774,0,0,0.28667610883712774,279.7901420593261,147.48841857910162)" svgjs:data="{&quot;leading&quot;:&quot;1.3&quot;}"><tspan dy="0" x="187.89898643190404" svgjs:data="{&quot;newLined&quot;:true}">PLAYER</tspan></text><image width="643" height="760" xlink:href="https://lct-designs.s3.us-west-1.amazonaws.com/assets/libs/athletics-baseball-banner_1-1644906781474.png" class="asset" transform="matrix(0.04573472589254379,0,0,0.0457347258925438,348.6184272766113,156.97230529785156)"></image><text fill="#ffffff" font-family="UTM Rockwell" font-size="45" stroke-opacity="0.9" stroke-width="1" stroke="#000000" x="187.89898643190404" y="201.84774249436967" transform="matrix(0.28667610883712774,0,0,0.28667610883712774,370.779109954834,148.05084228515625)" svgjs:data="{&quot;leading&quot;:&quot;1.3&quot;}"><tspan dy="0" x="187.89898643190404" svgjs:data="{&quot;newLined&quot;:true}">PLAYER</tspan></text><image width="643" height="760" xlink:href="https://lct-designs.s3.us-west-1.amazonaws.com/assets/libs/athletics-baseball-banner_1-1644906781474.png" class="asset" transform="matrix(0.04573472589254379,0,0,0.0457347258925438,439.6073989868164,157.53472900390625)"></image><text fill="#ffffff" font-family="UTM Rockwell" font-size="45" stroke-opacity="0.9" stroke-width="1" stroke="#000000" x="187.89898643190404" y="201.84774249436967" transform="matrix(0.28667610883712774,0,0,0.28667610883712774,279.1041069030762,212.73088073730474)" svgjs:data="{&quot;leading&quot;:&quot;1.3&quot;}"><tspan dy="0" x="187.89898643190404" svgjs:data="{&quot;newLined&quot;:true}">PLAYER</tspan></text><image width="643" height="760" xlink:href="https://lct-designs.s3.us-west-1.amazonaws.com/assets/libs/athletics-baseball-banner_1-1644906781474.png" class="asset" transform="matrix(0.04573472589254379,0,0,0.0457347258925438,347.9323921203613,222.2147674560547)"></image><text fill="#ffffff" font-family="UTM Rockwell" font-size="45" stroke-opacity="0.9" stroke-width="1" stroke="#000000" x="187.89898643190404" y="201.84774249436967" transform="matrix(0.28667610883712774,0,0,0.28667610883712774,370.0930747985839,213.29330444335938)" svgjs:data="{&quot;leading&quot;:&quot;1.3&quot;}"><tspan dy="0" x="187.89898643190404" svgjs:data="{&quot;newLined&quot;:true}">PLAYER</tspan></text><image width="643" height="760" xlink:href="https://lct-designs.s3.us-west-1.amazonaws.com/assets/libs/athletics-baseball-banner_1-1644906781474.png" class="asset" transform="matrix(0.04573472589254379,0,0,0.0457347258925438,438.92136383056635,222.77719116210938)"></image><g class="mask" style="pointer-events: none;"><g><path fill="#BCBEC0" d="M-3642.4-2101.7v4589.1h7813.4v-4589.1H-3642.4z M500.5,67.2v233.3v66.7H0.5v-66.7V67.2V0.5h500V67.2z" transform="matrix(1,0,0,1,0,0)"></path><g transform="matrix(1,0,0,1,0,0)">
	<rect x="0.5" y="300.5" opacity="0.95" fill="#F1F2F2" width="500" height="66.7"></rect>
	<rect x="0.5" y="0.5" opacity="0.95" fill="#F1F2F2" width="500" height="66.7"></rect>
</g></g></g></svg>