<svg xmlns="http://www.w3.org/2000/svg" version="1.1" xmlns:xlink="http://www.w3.org/1999/xlink" xmlns:svgjs="http://svgjs.dev/svgjs" width="100%" height="100%" viewBox="1 1 499 365.70001220703125" preserveAspectRatio="none" data-info="{&quot;_id&quot;:4,&quot;name&quot;:&quot;POLE POCKET SOCCER BANNERS&quot;,&quot;information&quot;:&quot;- Size: 3’x5’\n- Material: heavy duty vinyl banner\n- Digitally printed on vinyl&quot;,&quot;price&quot;:&quot;95.00&quot;,&quot;sale_price&quot;:&quot;89.99&quot;,&quot;type&quot;:&quot;pole-pocket&quot;,&quot;cover&quot;:{&quot;key&quot;:&quot;assets/models/pole-1628062864266-1631924568908.png&quot;,&quot;url&quot;:&quot;https://lct-designs.s3.us-west-1.amazonaws.com/assets/models/pole-1628062864266-1631924568908.png&quot;},&quot;back&quot;:{&quot;key&quot;:&quot;assets/models/pole-1631924700152.svg&quot;,&quot;url&quot;:&quot;https://lct-designs.s3.us-west-1.amazonaws.com/assets/models/pole-1631924700152.svg&quot;},&quot;mask&quot;:{&quot;key&quot;:&quot;assets/models/pole-mask-1631925211715.svg&quot;,&quot;url&quot;:&quot;https://lct-designs.s3.us-west-1.amazonaws.com/assets/models/pole-mask-1631925211715.svg&quot;},&quot;pos&quot;:&quot;2&quot;,&quot;accessories&quot;:&quot;2,3&quot;}" style="background-color: white;"><g class="model" style="pointer-events: none;"><polygon fill="#FFFFFF" points="0.5,0.5 0.5,67.2 0.5,300.5 0.5,367.2 500.5,367.2 500.5,300.5 500.5,67.2 500.5,0.5 "></polygon></g><image width="760" height="556" xlink:href="https://lct-designs.s3.us-west-1.amazonaws.com/assets/libs/thunder-2-baseball-banner-1641528706664.png" class="asset background locked" transform="matrix(0.6595323960558116,0,0,0.6595323960558116,0,0)"></image><text fill="#ffffff" font-family="American Captain" font-size="15" x="196.88662170311784" y="200.3250646744639" transform="matrix(1.1575788259506228,0,0,1.1575788259506228,86.23957824707034,56.75576782226564)" svgjs:data="{&quot;leading&quot;:&quot;1.3&quot;}"><tspan dy="0" x="196.88662170311784" svgjs:data="{&quot;newLined&quot;:true}">cOACH: COACH NAME</tspan></text><text fill="#ffffff" font-family="American Captain" font-size="15" x="196.88662170311784" y="200.3250646744639" transform="matrix(1.1575788259506228,0,0,1.1575788259506228,-136.64907836914065,56.75576782226564)" svgjs:data="{&quot;leading&quot;:&quot;1.3&quot;}"><tspan dy="0" x="196.88662170311784" svgjs:data="{&quot;newLined&quot;:true}">TEAM MOM: NAME</tspan></text><image width="760" height="250" xlink:href="https://lct-designs.s3.us-west-1.amazonaws.com/assets/libs/asset-14-1646300697684.png" class="asset" transform="matrix(0.4379997849464417,0,0,0.4322154521942139,73.0215835571289,111.66986083984375)"></image><image width="760" height="473" xlink:href="https://lct-designs.s3.us-west-1.amazonaws.com/assets/libs/thunder-2-baseball-banner--1641528938254.png" class="asset" transform="matrix(0.19297282397747043,0,0,0.1929728239774704,9.247648239135742,208.03376770019534)"></image><text fill="#000000" font-family="Impact" font-size="15" x="196.88662170311784" y="200.3250646744639" transform="matrix(1.0012350082397463,0,0,1.0012350082397463,-184.69500732421878,-15.094306945800788)" svgjs:data="{&quot;leading&quot;:&quot;1.3&quot;}"><tspan dy="0" x="196.88662170311784" svgjs:data="{&quot;newLined&quot;:true}">PLAYER</tspan></text><image width="699" height="760" xlink:href="https://lct-designs.s3.us-west-1.amazonaws.com/assets/libs/thunder-2-baseball-banner--1641529119149.png" class="asset" transform="matrix(0.04167327657341958,0,0,0.04167327657341958,16.107870101928704,190.2909851074219)"></image><image width="699" height="760" xlink:href="https://lct-designs.s3.us-west-1.amazonaws.com/assets/libs/thunder-2-baseball-banner--1641529119149.png" class="asset" transform="matrix(0.04167327657341958,0,0,0.04167327657341958,15.858491897583015,124.23944091796875)"></image><text fill="#000000" font-family="Impact" font-size="15" x="196.88662170311784" y="200.3250646744639" transform="matrix(1.0012350082397463,0,0,1.0012350082397463,-184.94438171386722,-81.14585113525393)" svgjs:data="{&quot;leading&quot;:&quot;1.3&quot;}"><tspan dy="0" x="196.88662170311784" svgjs:data="{&quot;newLined&quot;:true}">PLAYER</tspan></text><image width="699" height="760" xlink:href="https://lct-designs.s3.us-west-1.amazonaws.com/assets/libs/thunder-2-baseball-banner--1641529119149.png" class="asset" transform="matrix(0.04167327657341958,0,0,0.04167327657341958,89.63240051269531,100.89363861083984)"></image><text fill="#000000" font-family="Impact" font-size="15" x="196.88662170311784" y="200.3250646744639" transform="matrix(1.0012350082397463,0,0,1.0012350082397463,-111.17047119140626,-104.49165344238283)" svgjs:data="{&quot;leading&quot;:&quot;1.3&quot;}"><tspan dy="0" x="196.88662170311784" svgjs:data="{&quot;newLined&quot;:true}">PLAYER</tspan></text><image width="699" height="760" xlink:href="https://lct-designs.s3.us-west-1.amazonaws.com/assets/libs/thunder-2-baseball-banner--1641529119149.png" class="asset" transform="matrix(0.04167327657341958,0,0,0.04167327657341958,170.23922729492193,100.32422637939453)"></image><text fill="#000000" font-family="Impact" font-size="15" x="196.88662170311784" y="200.3250646744639" transform="matrix(1.0012350082397463,0,0,1.0012350082397463,-30.563644409179695,-105.06106567382814)" svgjs:data="{&quot;leading&quot;:&quot;1.3&quot;}"><tspan dy="0" x="196.88662170311784" svgjs:data="{&quot;newLined&quot;:true}">PLAYER</tspan></text><image width="699" height="760" xlink:href="https://lct-designs.s3.us-west-1.amazonaws.com/assets/libs/thunder-2-baseball-banner--1641529119149.png" class="asset" transform="matrix(0.04167327657341958,0,0,0.04167327657341958,304.6199798583985,99.75481414794922)"></image><text fill="#000000" font-family="Impact" font-size="15" x="196.88662170311784" y="200.3250646744639" transform="matrix(1.0012350082397463,0,0,1.0012350082397463,103.8171081542969,-105.63047790527345)" svgjs:data="{&quot;leading&quot;:&quot;1.3&quot;}"><tspan dy="0" x="196.88662170311784" svgjs:data="{&quot;newLined&quot;:true}">PLAYER</tspan></text><image width="699" height="760" xlink:href="https://lct-designs.s3.us-west-1.amazonaws.com/assets/libs/thunder-2-baseball-banner--1641529119149.png" class="asset" transform="matrix(0.04167327657341958,0,0,0.04167327657341958,385.2268066406251,99.18540191650393)"></image><text fill="#000000" font-family="Impact" font-size="15" x="196.88662170311784" y="200.3250646744639" transform="matrix(1.0012350082397463,0,0,1.0012350082397463,184.42393493652347,-106.19989013671876)" svgjs:data="{&quot;leading&quot;:&quot;1.3&quot;}"><tspan dy="0" x="196.88662170311784" svgjs:data="{&quot;newLined&quot;:true}">PLAYER</tspan></text><text fill="#000000" font-family="Impact" font-size="15" x="196.88662170311784" y="200.3250646744639" transform="matrix(1.0012350082397463,0,0,1.0012350082397463,244.39071655273438,-1.9978713989257812)" svgjs:data="{&quot;leading&quot;:&quot;1.3&quot;}"><tspan dy="0" x="196.88662170311784" svgjs:data="{&quot;newLined&quot;:true}">PLAYER</tspan></text><image width="699" height="760" xlink:href="https://lct-designs.s3.us-west-1.amazonaws.com/assets/libs/thunder-2-baseball-banner--1641529119149.png" class="asset" transform="matrix(0.04167327657341958,0,0,0.04167327657341958,445.19359397888195,203.3874206542969)"></image><image width="699" height="760" xlink:href="https://lct-designs.s3.us-west-1.amazonaws.com/assets/libs/thunder-2-baseball-banner--1641529119149.png" class="asset" transform="matrix(0.04167327657341958,0,0,0.04167327657341958,444.9442157745362,137.33587646484378)"></image><text fill="#000000" font-family="Impact" font-size="15" x="196.88662170311784" y="200.3250646744639" transform="matrix(1.0012350082397463,0,0,1.0012350082397463,244.141342163086,-68.04941558837892)" svgjs:data="{&quot;leading&quot;:&quot;1.3&quot;}"><tspan dy="0" x="196.88662170311784" svgjs:data="{&quot;newLined&quot;:true}">PLAYER</tspan></text><image width="699" height="760" xlink:href="https://lct-designs.s3.us-west-1.amazonaws.com/assets/libs/thunder-2-baseball-banner--1641529119149.png" class="asset" transform="matrix(0.04167327657341958,0,0,0.04167327657341958,176.50274658203128,231.28852081298825)"></image><text fill="#000000" font-family="Impact" font-size="15" x="196.88662170311784" y="200.3250646744639" transform="matrix(1.0012350082397463,0,0,1.0012350082397463,-24.300125122070316,25.903228759765625)" svgjs:data="{&quot;leading&quot;:&quot;1.3&quot;}"><tspan dy="0" x="196.88662170311784" svgjs:data="{&quot;newLined&quot;:true}">PLAYER</tspan></text><image width="699" height="760" xlink:href="https://lct-designs.s3.us-west-1.amazonaws.com/assets/libs/thunder-2-baseball-banner--1641529119149.png" class="asset" transform="matrix(0.04167327657341958,0,0,0.04167327657341958,257.1095886230469,230.71910095214852)"></image><text fill="#000000" font-family="Impact" font-size="15" x="196.88662170311784" y="200.3250646744639" transform="matrix(1.0012350082397463,0,0,1.0012350082397463,56.30670166015627,25.3338165283203)" svgjs:data="{&quot;leading&quot;:&quot;1.3&quot;}"><tspan dy="0" x="196.88662170311784" svgjs:data="{&quot;newLined&quot;:true}">PLAYER</tspan></text><text fill="#000000" font-family="Impact" font-size="15" x="196.88662170311784" y="200.3250646744639" transform="matrix(1.0012350082397463,0,0,1.0012350082397463,143.17706298828128,26.472640991210923)" svgjs:data="{&quot;leading&quot;:&quot;1.3&quot;}"><tspan dy="0" x="196.88662170311784" svgjs:data="{&quot;newLined&quot;:true}">PLAYER</tspan></text><image width="699" height="760" xlink:href="https://lct-designs.s3.us-west-1.amazonaws.com/assets/libs/thunder-2-baseball-banner--1641529119149.png" class="asset" transform="matrix(0.04167327657341958,0,0,0.04167327657341958,343.979949951172,231.8579254150391)"></image><g class="mask" style="pointer-events: none;"><g><path fill="#BCBEC0" d="M-3642.4-2101.7v4589.1h7813.4v-4589.1H-3642.4z M500.5,67.2v233.3v66.7H0.5v-66.7V67.2V0.5h500V67.2z" transform="matrix(1,0,0,1,0,0)"></path><g transform="matrix(1,0,0,1,0,0)">
	<rect x="0.5" y="300.5" opacity="0.95" fill="#F1F2F2" width="500" height="66.7"></rect>
	<rect x="0.5" y="0.5" opacity="0.95" fill="#F1F2F2" width="500" height="66.7"></rect>
</g></g></g></svg>