<svg xmlns="http://www.w3.org/2000/svg" version="1.1" xmlns:xlink="http://www.w3.org/1999/xlink" xmlns:svgjs="http://svgjs.dev/svgjs" width="100%" height="100%" viewBox="1 1 499 299" preserveAspectRatio="none" data-info="{&quot;_id&quot;:1,&quot;name&quot;:&quot;HEM &amp; GROMMETS&quot;,&quot;price&quot;:&quot;95.00&quot;,&quot;sale_price&quot;:&quot;89.99&quot;,&quot;cover&quot;:{&quot;key&quot;:&quot;assets/models/hem-1628062436886-1630830942566.png&quot;,&quot;url&quot;:&quot;https://lct-designs.s3.us-west-1.amazonaws.com/assets/models/hem-1628062436886-1630830942566.png&quot;},&quot;back&quot;:{&quot;key&quot;:&quot;assets/models/hem-1630831057346.svg&quot;,&quot;url&quot;:&quot;https://lct-designs.s3.us-west-1.amazonaws.com/assets/models/hem-1630831057346.svg&quot;},&quot;mask&quot;:{&quot;key&quot;:&quot;assets/models/hem.mask-1630831063496.svg&quot;,&quot;url&quot;:&quot;https://lct-designs.s3.us-west-1.amazonaws.com/assets/models/hem.mask-1630831063496.svg&quot;},&quot;information&quot;:&quot;Size 3'x5'&quot;,&quot;type&quot;:&quot;hem-grommet&quot;,&quot;pos&quot;:&quot;1&quot;,&quot;accessories&quot;:&quot;2,3&quot;,&quot;width&quot;:&quot;60&quot;,&quot;height&quot;:&quot;36&quot;}" style="background-color: white;"><g class="model" style="pointer-events: none;"><rect x="0.5" y="0.5" fill="none" stroke="#000000" stroke-miterlimit="10" width="500" height="300"></rect></g><image width="760" height="455" xlink:href="https://lct-designs.s3.us-west-1.amazonaws.com/assets/libs/girl-soccer-soccer-banner-3-1649238953533.png" class="asset background locked" transform="matrix(0.6593406593406593,0,0,0.6593406593406593,0,0)"></image><text fill="#000000" font-family="Cooper" font-size="18" x="182.17186821435945" y="156.74218415827357" transform="matrix(0.8464524149894714,0,0,0.8464524149894713,-137.74798583984375,-110.47963714599608)" svgjs:data="{&quot;leading&quot;:&quot;1.3&quot;}"><tspan dy="0" x="182.17186821435945" svgjs:data="{&quot;newLined&quot;:true}">Coach: Coach's name</tspan></text><text fill="#000000" font-family="Cooper" font-size="18" x="157.92968071435945" y="156.74218415827357" transform="matrix(0.8464524745941162,0,0,0.8464524745941161,122.23238372802734,-111.03540802001952)" svgjs:data="{&quot;leading&quot;:&quot;1.3&quot;}"><tspan dy="0" x="157.92968071435945" svgjs:data="{&quot;newLined&quot;:true}">Team mom: Team mom's name</tspan></text><image width="760" height="405" xlink:href="https://lct-designs.s3.us-west-1.amazonaws.com/assets/libs/girl-soccer-soccer-banner-2-1649239025403.png" class="asset" transform="matrix(0.4195939898490906,0,0,0.4195939898490905,23.435850143432617,32.68717956542969)"></image><text fill="#000000" font-family="Cooper" font-size="18" x="187.96874321435945" y="165.90624665827357" transform="matrix(1,0,0,0.9999999999999999,141.82904052734375,-118.9203643798828)" svgjs:data="{&quot;leading&quot;:&quot;1.3&quot;}"><tspan dy="0" x="187.96874321435945" svgjs:data="{&quot;newLined&quot;:true}">Player</tspan></text><image width="760" height="760" xlink:href="https://lct-designs.s3.us-west-1.amazonaws.com/assets/libs/american-girls-1631959777572.png" class="asset" transform="matrix(0.049953628331422806,0,0,0.0499536283314228,339.97882080078125,53.8706359863281)"></image><image width="760" height="760" xlink:href="https://lct-designs.s3.us-west-1.amazonaws.com/assets/libs/american-girls-1631959777572.png" class="asset" transform="matrix(0.049953628331422806,0,0,0.0499536283314228,437.465576171875,53.8706359863281)"></image><text fill="#000000" font-family="Cooper" font-size="18" x="187.96874321435945" y="165.90624665827357" transform="matrix(1,0,0,0.9999999999999999,239.3157958984375,-118.9203643798828)" svgjs:data="{&quot;leading&quot;:&quot;1.3&quot;}"><tspan dy="0" x="187.96874321435945" svgjs:data="{&quot;newLined&quot;:true}">Player</tspan></text><text fill="#000000" font-family="Cooper" font-size="18" x="187.96874321435945" y="165.90624665827357" transform="matrix(1,0,0,0.9999999999999999,141.75482177734375,-54.23320770263671)" svgjs:data="{&quot;leading&quot;:&quot;1.3&quot;}"><tspan dy="0" x="187.96874321435945" svgjs:data="{&quot;newLined&quot;:true}">Player</tspan></text><image width="760" height="760" xlink:href="https://lct-designs.s3.us-west-1.amazonaws.com/assets/libs/american-girls-1631959777572.png" class="asset" transform="matrix(0.049953628331422806,0,0,0.0499536283314228,339.90460205078125,118.55780029296872)"></image><image width="760" height="760" xlink:href="https://lct-designs.s3.us-west-1.amazonaws.com/assets/libs/american-girls-1631959777572.png" class="asset" transform="matrix(0.049953628331422806,0,0,0.0499536283314228,437.391357421875,118.55780029296872)"></image><text fill="#000000" font-family="Cooper" font-size="18" x="187.96874321435945" y="165.90624665827357" transform="matrix(1,0,0,0.9999999999999999,239.2415771484375,-54.23320770263671)" svgjs:data="{&quot;leading&quot;:&quot;1.3&quot;}"><tspan dy="0" x="187.96874321435945" svgjs:data="{&quot;newLined&quot;:true}">Player</tspan></text><text fill="#000000" font-family="Cooper" font-size="18" x="187.96874321435945" y="165.90624665827357" transform="matrix(1,0,0,0.9999999999999999,139.6339111328125,17.87710571289061)" svgjs:data="{&quot;leading&quot;:&quot;1.3&quot;}"><tspan dy="0" x="187.96874321435945" svgjs:data="{&quot;newLined&quot;:true}">Player</tspan></text><image width="760" height="760" xlink:href="https://lct-designs.s3.us-west-1.amazonaws.com/assets/libs/american-girls-1631959777572.png" class="asset" transform="matrix(0.049953628331422806,0,0,0.0499536283314228,337.78369140625006,190.66810607910153)"></image><image width="760" height="760" xlink:href="https://lct-designs.s3.us-west-1.amazonaws.com/assets/libs/american-girls-1631959777572.png" class="asset" transform="matrix(0.049953628331422806,0,0,0.0499536283314228,435.2704467773438,190.66810607910153)"></image><text fill="#000000" font-family="Cooper" font-size="18" x="187.96874321435945" y="165.90624665827357" transform="matrix(1,0,0,0.9999999999999999,237.12066650390625,17.87710571289061)" svgjs:data="{&quot;leading&quot;:&quot;1.3&quot;}"><tspan dy="0" x="187.96874321435945" svgjs:data="{&quot;newLined&quot;:true}">Player</tspan></text><text fill="#000000" font-family="Cooper" font-size="18" x="187.96874321435945" y="165.90624665827357" transform="matrix(1,0,0,0.9999999999999999,139.5596923828125,82.56426239013669)" svgjs:data="{&quot;leading&quot;:&quot;1.3&quot;}"><tspan dy="0" x="187.96874321435945" svgjs:data="{&quot;newLined&quot;:true}">Player</tspan></text><image width="760" height="760" xlink:href="https://lct-designs.s3.us-west-1.amazonaws.com/assets/libs/american-girls-1631959777572.png" class="asset" transform="matrix(0.049953628331422806,0,0,0.0499536283314228,337.70947265624994,255.3552703857421)"></image><image width="760" height="760" xlink:href="https://lct-designs.s3.us-west-1.amazonaws.com/assets/libs/american-girls-1631959777572.png" class="asset" transform="matrix(0.049953628331422806,0,0,0.0499536283314228,435.1962280273437,255.3552703857421)"></image><text fill="#000000" font-family="Cooper" font-size="18" x="187.96874321435945" y="165.90624665827357" transform="matrix(1,0,0,0.9999999999999999,237.04644775390625,82.56426239013669)" svgjs:data="{&quot;leading&quot;:&quot;1.3&quot;}"><tspan dy="0" x="187.96874321435945" svgjs:data="{&quot;newLined&quot;:true}">Player</tspan></text><text fill="#ffffff" font-family="Cooper" font-size="18" x="187.96874321435945" y="165.90624665827357" transform="matrix(1,0,0,0.9999999999999999,-65.18051147460938,67.71804046630857)" svgjs:data="{&quot;leading&quot;:&quot;1.3&quot;}"><tspan dy="0" x="187.96874321435945" svgjs:data="{&quot;newLined&quot;:true}">Player</tspan></text><image width="760" height="760" xlink:href="https://lct-designs.s3.us-west-1.amazonaws.com/assets/libs/american-girls-1631959777572.png" class="asset" transform="matrix(0.049953628331422806,0,0,0.0499536283314228,132.96926879882812,240.50904846191403)"></image><image width="760" height="760" xlink:href="https://lct-designs.s3.us-west-1.amazonaws.com/assets/libs/american-girls-1631959777572.png" class="asset" transform="matrix(0.049953628331422806,0,0,0.0499536283314228,246.36270141601562,233.61614990234378)"></image><text fill="#000000" font-family="Cooper" font-size="18" x="187.96874321435945" y="165.90624665827357" transform="matrix(1,0,0,0.9999999999999999,48.212921142578125,60.82514190673828)" svgjs:data="{&quot;leading&quot;:&quot;1.3&quot;}"><tspan dy="0" x="187.96874321435945" svgjs:data="{&quot;newLined&quot;:true}">Player</tspan></text><text fill="#ffffff" font-family="Cooper" font-size="18" x="187.96874321435945" y="165.90624665827357" transform="matrix(1,0,0,0.9999999999999999,-164.40638732910156,65.59716033935547)" svgjs:data="{&quot;leading&quot;:&quot;1.3&quot;}"><tspan dy="0" x="187.96874321435945" svgjs:data="{&quot;newLined&quot;:true}">Player</tspan></text><image width="760" height="760" xlink:href="https://lct-designs.s3.us-west-1.amazonaws.com/assets/libs/american-girls-1631959777572.png" class="asset" transform="matrix(0.049953628331422806,0,0,0.0499536283314228,33.74339294433594,238.3881683349609)"></image><g class="mask" style="pointer-events: none;"><path fill="#777777" enable-background="new    " d="M-1684.9-1014.6v2330.1h3870.8v-2330.1H-1684.9z M500.5,300.5H0.5V0.5h500
	V300.5z"></path></g></svg>