<svg xmlns="http://www.w3.org/2000/svg" version="1.1" xmlns:xlink="http://www.w3.org/1999/xlink" xmlns:svgjs="http://svgjs.dev/svgjs" width="100%" height="100%" viewBox="1 1 499 365.70001220703125" preserveAspectRatio="none" data-info="{&quot;_id&quot;:4,&quot;name&quot;:&quot;POLE POCKET SOCCER BANNERS&quot;,&quot;information&quot;:&quot;- Size: 3’x5’\n- Material: heavy duty vinyl banner\n- Digitally printed on vinyl&quot;,&quot;price&quot;:&quot;95.00&quot;,&quot;sale_price&quot;:&quot;89.99&quot;,&quot;type&quot;:&quot;pole-pocket&quot;,&quot;cover&quot;:{&quot;key&quot;:&quot;assets/models/pole-1628062864266-1631924568908.png&quot;,&quot;url&quot;:&quot;https://lct-designs.s3.us-west-1.amazonaws.com/assets/models/pole-1628062864266-1631924568908.png&quot;},&quot;back&quot;:{&quot;key&quot;:&quot;assets/models/pole-1631924700152.svg&quot;,&quot;url&quot;:&quot;https://lct-designs.s3.us-west-1.amazonaws.com/assets/models/pole-1631924700152.svg&quot;},&quot;mask&quot;:{&quot;key&quot;:&quot;assets/models/pole-mask-1631925211715.svg&quot;,&quot;url&quot;:&quot;https://lct-designs.s3.us-west-1.amazonaws.com/assets/models/pole-mask-1631925211715.svg&quot;},&quot;pos&quot;:&quot;2&quot;,&quot;accessories&quot;:&quot;2,3&quot;}" style="background-color: white;"><g class="model" style="pointer-events: none;"><polygon fill="#FFFFFF" points="0.5,0.5 0.5,67.2 0.5,300.5 0.5,367.2 500.5,367.2 500.5,300.5 500.5,67.2 500.5,0.5 "></polygon></g><image width="760" height="556" xlink:href="https://lct-designs.s3.us-west-1.amazonaws.com/assets/libs/alligator-1631962521596.png" class="asset background locked" transform="matrix(0.6595323960558116,0,0,0.6595323960558116,0,0)"></image><text fill="#ffffff" font-family="Impact" font-size="45" x="50.877864861049005" y="201.76359325371294" transform="matrix(0.22129602730274198,0,0,0.22129602730274198,1.1572480201721191,42.27294158935547)" svgjs:data="{&quot;leading&quot;:&quot;1.3&quot;}"><tspan dy="0" x="50.877864861049005" svgjs:data="{&quot;newLined&quot;:true}">COACH: COACH'S NAME</tspan></text><text fill="#ffffff" font-family="Impact" font-size="45" x="50.877864861049005" y="201.76359325371294" transform="matrix(0.22129602730274198,0,0,0.22129602730274198,358.8917541503906,42.27293395996094)" svgjs:data="{&quot;leading&quot;:&quot;1.3&quot;}"><tspan dy="0" x="50.877864861049005" svgjs:data="{&quot;newLined&quot;:true}">TEAM MOM: TEAM MOM'S NAME</tspan></text><image width="760" height="408" xlink:href="https://lct-designs.s3.us-west-1.amazonaws.com/assets/libs/alligator-2-1631959823868.png" class="asset" transform="matrix(0.48845601081848145,0,0,0.48845601081848145,59.74396896362305,102.97503662109372)"></image><image width="760" height="489" xlink:href="https://lct-designs.s3.us-west-1.amazonaws.com/assets/libs/almost-angels-1631959777569.png" class="asset" transform="matrix(0.06484071165323257,0,0,0.06484071165323257,12.067817687988281,213.96221923828125)"></image><text fill="#ffffff" font-family="Impact" font-size="45" x="191.6757536099403" y="201.76361352143002" transform="matrix(0.35562241077423096,0,0,0.355622410774231,-12.902664184570312,173.0009613037109)" svgjs:data="{&quot;leading&quot;:&quot;1.3&quot;}"><tspan dy="0" x="191.6757536099403" svgjs:data="{&quot;newLined&quot;:true}">player</tspan></text><image width="760" height="489" xlink:href="https://lct-designs.s3.us-west-1.amazonaws.com/assets/libs/almost-angels-1631959777569.png" class="asset" transform="matrix(0.06484071165323257,0,0,0.06484071165323257,398.76788330078125,152.3994140625)"></image><text fill="#ffffff" font-family="Impact" font-size="45" x="191.6757536099403" y="201.76361352143002" transform="matrix(0.35562241077423096,0,0,0.355622410774231,373.7974243164063,111.43815612792969)" svgjs:data="{&quot;leading&quot;:&quot;1.3&quot;}"><tspan dy="0" x="191.6757536099403" svgjs:data="{&quot;newLined&quot;:true}">player</tspan></text><image width="760" height="489" xlink:href="https://lct-designs.s3.us-west-1.amazonaws.com/assets/libs/almost-angels-1631959777569.png" class="asset" transform="matrix(0.06484071165323257,0,0,0.06484071165323257,22.431900024414062,98.33125305175781)"></image><text fill="#ffffff" font-family="Impact" font-size="45" x="191.6757536099403" y="201.76361352143002" transform="matrix(0.35562241077423096,0,0,0.355622410774231,-2.538581848144535,57.3699951171875)" svgjs:data="{&quot;leading&quot;:&quot;1.3&quot;}"><tspan dy="0" x="191.6757536099403" svgjs:data="{&quot;newLined&quot;:true}">player</tspan></text><image width="760" height="489" xlink:href="https://lct-designs.s3.us-west-1.amazonaws.com/assets/libs/almost-angels-1631959777569.png" class="asset" transform="matrix(0.06484071165323257,0,0,0.06484071165323257,388.4254150390625,97.79591369628909)"></image><text fill="#ffffff" font-family="Impact" font-size="45" x="191.6757536099403" y="201.76361352143002" transform="matrix(0.35562241077423096,0,0,0.355622410774231,363.45492553710943,56.834655761718736)" svgjs:data="{&quot;leading&quot;:&quot;1.3&quot;}"><tspan dy="0" x="191.6757536099403" svgjs:data="{&quot;newLined&quot;:true}">player</tspan></text><text fill="#ffffff" font-family="Impact" font-size="45" x="191.6757536099403" y="201.76361352143002" transform="matrix(0.35562241077423096,0,0,0.355622410774231,52.236175537109375,92.70167541503906)" svgjs:data="{&quot;leading&quot;:&quot;1.3&quot;}"><tspan dy="0" x="191.6757536099403" svgjs:data="{&quot;newLined&quot;:true}">player</tspan></text><image width="760" height="489" xlink:href="https://lct-designs.s3.us-west-1.amazonaws.com/assets/libs/almost-angels-1631959777569.png" class="asset" transform="matrix(0.06484071165323257,0,0,0.06484071165323257,77.20665740966795,133.66293334960938)"></image><image width="760" height="489" xlink:href="https://lct-designs.s3.us-west-1.amazonaws.com/assets/libs/almost-angels-1631959777569.png" class="asset" transform="matrix(0.06484071165323257,0,0,0.06484071165323257,404.48522949218756,246.61724853515625)"></image><text fill="#ffffff" font-family="Impact" font-size="45" x="191.6757536099403" y="201.76361352143002" transform="matrix(0.35562241077423096,0,0,0.355622410774231,379.5147705078125,205.65599060058594)" svgjs:data="{&quot;leading&quot;:&quot;1.3&quot;}"><tspan dy="0" x="191.6757536099403" svgjs:data="{&quot;newLined&quot;:true}">player</tspan></text><image width="760" height="489" xlink:href="https://lct-designs.s3.us-west-1.amazonaws.com/assets/libs/almost-angels-1631959777569.png" class="asset" transform="matrix(0.06484071165323257,0,0,0.06484071165323257,305.81353759765625,120.27970886230469)"></image><text fill="#ffffff" font-family="Impact" font-size="45" x="191.6757536099403" y="201.76361352143002" transform="matrix(0.35562241077423096,0,0,0.355622410774231,280.8430480957031,79.31845092773438)" svgjs:data="{&quot;leading&quot;:&quot;1.3&quot;}"><tspan dy="0" x="191.6757536099403" svgjs:data="{&quot;newLined&quot;:true}">player</tspan></text><image width="760" height="489" xlink:href="https://lct-designs.s3.us-west-1.amazonaws.com/assets/libs/almost-angels-1631959777569.png" class="asset" transform="matrix(0.06484071165323257,0,0,0.06484071165323257,127.3779296875,79.59474182128906)"></image><text fill="#ffffff" font-family="Impact" font-size="45" x="191.6757536099403" y="201.76361352143002" transform="matrix(0.35562241077423096,0,0,0.355622410774231,102.40744018554688,38.63348388671875)" svgjs:data="{&quot;leading&quot;:&quot;1.3&quot;}"><tspan dy="0" x="191.6757536099403" svgjs:data="{&quot;newLined&quot;:true}">player</tspan></text><image width="760" height="489" xlink:href="https://lct-designs.s3.us-west-1.amazonaws.com/assets/libs/almost-angels-1631959777569.png" class="asset" transform="matrix(0.06484071165323257,0,0,0.06484071165323257,259.0687255859375,79.5947494506836)"></image><text fill="#ffffff" font-family="Impact" font-size="45" x="191.6757536099403" y="201.76361352143002" transform="matrix(0.35562241077423096,0,0,0.355622410774231,234.09823608398438,38.633491516113295)" svgjs:data="{&quot;leading&quot;:&quot;1.3&quot;}"><tspan dy="0" x="191.6757536099403" svgjs:data="{&quot;newLined&quot;:true}">player</tspan></text><image width="760" height="489" xlink:href="https://lct-designs.s3.us-west-1.amazonaws.com/assets/libs/almost-angels-1631959777569.png" class="asset" transform="matrix(0.06484071165323257,0,0,0.06484071165323257,22.6031494140625,168.45928955078128)"></image><text fill="#ffffff" font-family="Impact" font-size="45" x="191.6757536099403" y="201.76361352143002" transform="matrix(0.35562241077423096,0,0,0.355622410774231,-2.3673324584960938,127.49803161621091)" svgjs:data="{&quot;leading&quot;:&quot;1.3&quot;}"><tspan dy="0" x="191.6757536099403" svgjs:data="{&quot;newLined&quot;:true}">player</tspan></text><g class="mask" style="pointer-events: none;"><g><path fill="#BCBEC0" d="M-3642.4-2101.7v4589.1h7813.4v-4589.1H-3642.4z M500.5,67.2v233.3v66.7H0.5v-66.7V67.2V0.5h500V67.2z" transform="matrix(1,0,0,1,0,0)"></path><g transform="matrix(1,0,0,1,0,0)">
	<rect x="0.5" y="300.5" opacity="0.95" fill="#F1F2F2" width="500" height="66.7"></rect>
	<rect x="0.5" y="0.5" opacity="0.95" fill="#F1F2F2" width="500" height="66.7"></rect>
</g></g></g></svg>