<svg xmlns="http://www.w3.org/2000/svg" version="1.1" xmlns:xlink="http://www.w3.org/1999/xlink" xmlns:svgjs="http://svgjs.dev/svgjs" width="100%" height="100%" viewBox="1 1 499 365.70001220703125" preserveAspectRatio="none" data-info="{&quot;_id&quot;:4,&quot;name&quot;:&quot;POLE POCKET SOCCER BANNERS&quot;,&quot;information&quot;:&quot;- Size: 3’x5’\n- Material: heavy duty vinyl banner\n- Digitally printed on vinyl&quot;,&quot;price&quot;:&quot;95.00&quot;,&quot;sale_price&quot;:&quot;89.99&quot;,&quot;type&quot;:&quot;pole-pocket&quot;,&quot;cover&quot;:{&quot;key&quot;:&quot;assets/models/pole-1628062864266-1631924568908.png&quot;,&quot;url&quot;:&quot;https://lct-designs.s3.us-west-1.amazonaws.com/assets/models/pole-1628062864266-1631924568908.png&quot;},&quot;back&quot;:{&quot;key&quot;:&quot;assets/models/pole-1631924700152.svg&quot;,&quot;url&quot;:&quot;https://lct-designs.s3.us-west-1.amazonaws.com/assets/models/pole-1631924700152.svg&quot;},&quot;mask&quot;:{&quot;key&quot;:&quot;assets/models/pole-mask-1631925211715.svg&quot;,&quot;url&quot;:&quot;https://lct-designs.s3.us-west-1.amazonaws.com/assets/models/pole-mask-1631925211715.svg&quot;},&quot;pos&quot;:&quot;2&quot;,&quot;accessories&quot;:&quot;2,3&quot;}" style="background-color: white;"><g class="model" style="pointer-events: none;"><polygon fill="#FFFFFF" points="0.5,0.5 0.5,67.2 0.5,300.5 0.5,367.2 500.5,367.2 500.5,300.5 500.5,67.2 500.5,0.5 "></polygon></g><image width="760" height="558" xlink:href="https://lct-designs.s3.us-west-1.amazonaws.com/assets/libs/american-girls-1631962521601.png" class="asset background locked" transform="matrix(0.6571684806577621,0,0,0.6571684806577621,0,0)"></image><defs><path d="M20.5,10.5c0.2,13-20.2,13-20,0C0.3-2.5,20.7-2.5,20.5,10.5z" id="SvgjsPath1001"></path></defs><text fill="#ca1400" font-family="Impact" font-size="40" x="92.65996008407052" y="198.80727251861657" stroke-opacity="1" stroke-width="0" stroke="#143503" transform="matrix(0.2977757155895233,0,0,0.29777571558952337,-17.196849822998047,29.481414794921875)" svgjs:data="{&quot;leading&quot;:&quot;1.3&quot;}"><tspan dy="0" x="92.65996008407052" svgjs:data="{&quot;newLined&quot;:true}">Coach: coach's name</tspan><tspan dy="52" x="92.65996008407052" svgjs:data="{&quot;newLined&quot;:true}"></tspan></text><text fill="#d90707" font-family="Impact" font-size="40" x="92.65996008407052" y="198.80727251861657" stroke-opacity="1" stroke-width="0" stroke="#143503" transform="matrix(0.2977757155895233,0,0,0.29777571558952337,-16.66266441345215,44.972869873046875)" svgjs:data="{&quot;leading&quot;:&quot;1.3&quot;}"><tspan dy="0" x="92.65996008407052" svgjs:data="{&quot;newLined&quot;:true}">Team mom: team mom's name</tspan><tspan dy="52" x="92.65996008407052" svgjs:data="{&quot;newLined&quot;:true}"></tspan></text><text fill="#000000" font-family="Impact" font-size="45" x="173.7897666026252" y="198.80727251861657" stroke-opacity="1" stroke-width="0" stroke="#143503" transform="matrix(0.35578365890799546,0,0,0.35578365890799546,242.4385830594474,33.99349848182101)" svgjs:data="{&quot;leading&quot;:&quot;1.3&quot;}"><tspan dy="0" x="173.7897666026252" svgjs:data="{&quot;newLined&quot;:true}">Player</tspan><tspan dy="58.5" x="173.7897666026252" svgjs:data="{&quot;newLined&quot;:true}"></tspan></text><image width="760" height="760" xlink:href="https://lct-designs.s3.us-west-1.amazonaws.com/assets/libs/american-girls-1631959777572.png" class="asset" transform="matrix(0.038557338882288406,0,0,0.03855733888228841,269.4271569889388,83.67052975867591)"></image><image width="760" height="760" xlink:href="https://lct-designs.s3.us-west-1.amazonaws.com/assets/libs/american-girls-1631959777572.png" class="asset" transform="matrix(0.03855734318494797,0,0,0.038557343184947974,306.6805419921875,119.53047943115236)"></image><text fill="#000000" font-family="Impact" font-size="45" x="173.7897666026252" y="198.80727251861657" stroke-opacity="1" stroke-width="0" stroke="#143503" transform="matrix(0.3557836711406708,0,0,0.35578367114067083,279.69195556640625,69.85344696044923)" svgjs:data="{&quot;leading&quot;:&quot;1.3&quot;}"><tspan dy="0" x="173.7897666026252" svgjs:data="{&quot;newLined&quot;:true}">Player</tspan><tspan dy="58.5" x="173.7897666026252" svgjs:data="{&quot;newLined&quot;:true}"></tspan></text><image width="760" height="760" xlink:href="https://lct-designs.s3.us-west-1.amazonaws.com/assets/libs/american-girls-1631959777572.png" class="asset" transform="matrix(0.038557338882288406,0,0,0.03855733888228841,399.77296705308254,95.96537478922619)"></image><text fill="#000000" font-family="Impact" font-size="45" x="173.7897666026252" y="198.80727251861657" stroke-opacity="1" stroke-width="1" stroke="#ffffff" transform="matrix(0.3557836711406708,0,0,0.35578367114067083,372.7843933105469,46.28834533691406)" svgjs:data="{&quot;leading&quot;:&quot;1.3&quot;}"><tspan dy="0" x="173.7897666026252" svgjs:data="{&quot;newLined&quot;:true}">Player</tspan><tspan dy="58.5" x="173.7897666026252" svgjs:data="{&quot;newLined&quot;:true}"></tspan></text><image width="760" height="760" xlink:href="https://lct-designs.s3.us-west-1.amazonaws.com/assets/libs/american-girls-1631959777572.png" class="asset" transform="matrix(0.038557338882288406,0,0,0.03855733888228841,272.43938893640734,172.29582986485187)"></image><image width="760" height="760" xlink:href="https://lct-designs.s3.us-west-1.amazonaws.com/assets/libs/american-girls-1631959777572.png" class="asset" transform="matrix(0.038557338882288406,0,0,0.03855733888228841,386.3100974407352,163.58697489954648)"></image><text fill="#000000" font-family="Impact" font-size="45" x="173.7897666026252" y="198.80727251861657" stroke-opacity="1" stroke-width="1" stroke="#ffffff" transform="matrix(0.3557836711406708,0,0,0.35578367114067083,359.32153320312494,113.90994262695314)" svgjs:data="{&quot;leading&quot;:&quot;1.3&quot;}"><tspan dy="0" x="173.7897666026252" svgjs:data="{&quot;newLined&quot;:true}">Player</tspan><tspan dy="58.5" x="173.7897666026252" svgjs:data="{&quot;newLined&quot;:true}"></tspan></text><text fill="#000000" font-family="Impact" font-size="45" x="173.7897666026252" y="198.80727251861657" stroke-opacity="1" stroke-width="1" stroke="#ffffff" transform="matrix(0.35578367114067083,0,0,0.3557836711406708,245.45082092285156,122.61879730224611)" svgjs:data="{&quot;leading&quot;:&quot;1.3&quot;}"><tspan dy="0" x="173.7897666026252" svgjs:data="{&quot;newLined&quot;:true}">Player</tspan><tspan dy="58.5" x="173.7897666026252" svgjs:data="{&quot;newLined&quot;:true}"></tspan></text><image width="760" height="760" xlink:href="https://lct-designs.s3.us-west-1.amazonaws.com/assets/libs/american-girls-1631959777572.png" class="asset" transform="matrix(0.038557338882288406,0,0,0.03855733888228841,286.86532404980244,254.26143413557296)"></image><image width="760" height="760" xlink:href="https://lct-designs.s3.us-west-1.amazonaws.com/assets/libs/american-girls-1631959777572.png" class="asset" transform="matrix(0.03855735436081886,0,0,0.03855735436081887,301.08001708984375,211.7198638916016)"></image><text fill="#000000" font-family="Impact" font-size="45" x="173.7897666026252" y="198.80727251861657" stroke-opacity="1" stroke-width="1" stroke="#ffffff" transform="matrix(0.35578367114067083,0,0,0.3557836711406708,274.9725646972656,162.5551300048828)" svgjs:data="{&quot;leading&quot;:&quot;1.3&quot;}"><tspan dy="0" x="173.7897666026252" svgjs:data="{&quot;newLined&quot;:true}">Player</tspan><tspan dy="58.5" x="173.7897666026252" svgjs:data="{&quot;newLined&quot;:true}"></tspan></text><image width="760" height="760" xlink:href="https://lct-designs.s3.us-west-1.amazonaws.com/assets/libs/american-girls-1631959777572.png" class="asset" transform="matrix(0.038557338882288406,0,0,0.03855733888228841,396.1254519491049,253.2368509123626)"></image><text fill="#000000" font-family="Impact" font-size="45" x="173.7897666026252" y="198.80727251861657" stroke-opacity="1" stroke-width="0" stroke="#143503" transform="matrix(0.35578365890799546,0,0,0.35578365890799546,369.13687801961345,203.55982695207788)" svgjs:data="{&quot;leading&quot;:&quot;1.3&quot;}"><tspan dy="0" x="173.7897666026252" svgjs:data="{&quot;newLined&quot;:true}">Player</tspan><tspan dy="58.5" x="173.7897666026252" svgjs:data="{&quot;newLined&quot;:true}"></tspan></text><text fill="#000000" font-family="Impact" font-size="45" x="173.7897666026252" y="198.80727251861657" stroke-opacity="1" stroke-width="1" stroke="#ffffff" transform="matrix(0.35578367114067083,0,0,0.3557836711406708,259.8767395019532,204.58441162109375)" svgjs:data="{&quot;leading&quot;:&quot;1.3&quot;}"><tspan dy="0" x="173.7897666026252" svgjs:data="{&quot;newLined&quot;:true}">Player</tspan><tspan dy="58.5" x="173.7897666026252" svgjs:data="{&quot;newLined&quot;:true}"></tspan></text><image width="760" height="760" xlink:href="https://lct-designs.s3.us-west-1.amazonaws.com/assets/libs/american-girls-1631959777572.png" class="asset" transform="matrix(0.038557338882288406,0,0,0.03855733888228841,410.4694414763653,205.59434562497702)"></image><text fill="#000000" font-family="Impact" font-size="45" x="173.7897666026252" y="198.80727251861657" stroke-opacity="1" stroke-width="0" stroke="#143503" transform="matrix(0.35578365890799546,0,0,0.35578365890799546,384.36198746178707,156.42961327629746)" svgjs:data="{&quot;leading&quot;:&quot;1.3&quot;}"><tspan dy="0" x="173.7897666026252" svgjs:data="{&quot;newLined&quot;:true}">Player</tspan><tspan dy="58.5" x="173.7897666026252" svgjs:data="{&quot;newLined&quot;:true}"></tspan></text><image width="760" height="518" xlink:href="https://lct-designs.s3.us-west-1.amazonaws.com/assets/libs/american-girls-1653968525716.png" class="asset" transform="matrix(0.21111845970153809,0,0,0.2111184597015381,15.76706600189209,116.89786529541017)"></image><g class="mask" style="pointer-events: none;"><g><path fill="#BCBEC0" d="M-3642.4-2101.7v4589.1h7813.4v-4589.1H-3642.4z M500.5,67.2v233.3v66.7H0.5v-66.7V67.2V0.5h500V67.2z" transform="matrix(1,0,0,1,0,0)"></path><g transform="matrix(1,0,0,1,0,0)">
	<rect x="0.5" y="300.5" opacity="0.95" fill="#F1F2F2" width="500" height="66.7"></rect>
	<rect x="0.5" y="0.5" opacity="0.95" fill="#F1F2F2" width="500" height="66.7"></rect>
</g></g></g></svg>