<svg xmlns="http://www.w3.org/2000/svg" version="1.1" xmlns:xlink="http://www.w3.org/1999/xlink" xmlns:svgjs="http://svgjs.dev/svgjs" width="100%" height="100%" viewBox="1 1 499 365.70001220703125" preserveAspectRatio="none" data-info="{&quot;_id&quot;:4,&quot;name&quot;:&quot;POLE POCKET SOCCER BANNERS&quot;,&quot;information&quot;:&quot;- Size: 3’x5’\n- Material: heavy duty vinyl banner\n- Digitally printed on vinyl&quot;,&quot;price&quot;:&quot;95.00&quot;,&quot;sale_price&quot;:&quot;89.99&quot;,&quot;type&quot;:&quot;pole-pocket&quot;,&quot;cover&quot;:{&quot;key&quot;:&quot;assets/models/pole-1628062864266-1631924568908.png&quot;,&quot;url&quot;:&quot;https://lct-designs.s3.us-west-1.amazonaws.com/assets/models/pole-1628062864266-1631924568908.png&quot;},&quot;back&quot;:{&quot;key&quot;:&quot;assets/models/pole-1631924700152.svg&quot;,&quot;url&quot;:&quot;https://lct-designs.s3.us-west-1.amazonaws.com/assets/models/pole-1631924700152.svg&quot;},&quot;mask&quot;:{&quot;key&quot;:&quot;assets/models/pole-mask-1631925211715.svg&quot;,&quot;url&quot;:&quot;https://lct-designs.s3.us-west-1.amazonaws.com/assets/models/pole-mask-1631925211715.svg&quot;},&quot;pos&quot;:&quot;2&quot;,&quot;accessories&quot;:&quot;2,3&quot;}" style="background-color: white;"><g class="model" style="pointer-events: none;"><polygon fill="#FFFFFF" points="0.5,0.5 0.5,67.2 0.5,300.5 0.5,367.2 500.5,367.2 500.5,300.5 500.5,67.2 500.5,0.5 "></polygon></g><image width="760" height="556" xlink:href="https://lct-designs.s3.us-west-1.amazonaws.com/assets/libs/all-stars-1-1633334966403.png" class="asset background locked" transform="matrix(0.6595323960558116,0,0,0.6595323960558116,0,0)"></image><image width="760" height="558" xlink:href="https://lct-designs.s3.us-west-1.amazonaws.com/assets/libs/all-stars-1-1633083317696.png" class="asset" transform="matrix(0.2947654128074646,0,0,0.2947654128074646,37.39195251464844,83.46841430664064)"></image><text fill="#000000" font-family="Impact" font-size="45" x="54.87449865828927" y="201.7453084835824" transform="matrix(0.2622695863246918,0,0,0.2622695863246918,327.7229614257813,52.94380187988281)" svgjs:data="{&quot;leading&quot;:&quot;1.3&quot;}"><tspan dy="0" x="54.87449865828927" svgjs:data="{&quot;newLined&quot;:true}">Coach: Coach's name</tspan></text><text fill="#000000" font-family="Impact" font-size="45" x="54.87449865828927" y="201.7453084835824" transform="matrix(0.2622695863246918,0,0,0.2622695863246918,328.2604064941407,35.20804977416992)" svgjs:data="{&quot;leading&quot;:&quot;1.3&quot;}"><tspan dy="0" x="54.87449865828927" svgjs:data="{&quot;newLined&quot;:true}">Team mom: Team mom's name</tspan></text><image width="760" height="760" xlink:href="https://lct-designs.s3.us-west-1.amazonaws.com/assets/libs/cheetahs-1-1631960395091.png" class="asset" transform="matrix(0.03317883610725403,0,0,0.03317883610725403,30.68846702575684,253.12866210937494)"></image><text fill="#000000" font-family="Impact" font-size="45" x="192.06066732894357" y="201.7453084835824" transform="matrix(0.3339531719684601,0,0,0.3339531719684601,-4.5429544448852575,204.23919677734375)" svgjs:data="{&quot;leading&quot;:&quot;1.3&quot;}"><tspan dy="0" x="192.06066732894357" svgjs:data="{&quot;newLined&quot;:true}">Player</tspan></text><image width="760" height="760" xlink:href="https://lct-designs.s3.us-west-1.amazonaws.com/assets/libs/cheetahs-1-1631960395091.png" class="asset" transform="matrix(0.03317883610725403,0,0,0.03317883610725403,124.02181243896484,262.12841796875)"></image><text fill="#000000" font-family="Impact" font-size="45" x="192.06066732894357" y="201.7453084835824" transform="matrix(0.3339531719684601,0,0,0.3339531719684601,88.79039001464845,213.2389678955078)" svgjs:data="{&quot;leading&quot;:&quot;1.3&quot;}"><tspan dy="0" x="192.06066732894357" svgjs:data="{&quot;newLined&quot;:true}">Player</tspan></text><image width="511" height="760" xlink:href="https://lct-designs.s3.us-west-1.amazonaws.com/assets/libs/all-stars-1-1633083264647.png" class="asset" transform="matrix(0.14212197065353394,0,0,0.1421219706535339,213.1797027587891,163.27430725097656)"></image><image width="760" height="760" xlink:href="https://lct-designs.s3.us-west-1.amazonaws.com/assets/libs/cheetahs-1-1631960395091.png" class="asset" transform="matrix(0.03317883610725403,0,0,0.03317883610725403,323.6358032226563,119.50999450683592)"></image><image width="760" height="760" xlink:href="https://lct-designs.s3.us-west-1.amazonaws.com/assets/libs/cheetahs-1-1631960395091.png" class="asset" transform="matrix(0.03317883610725403,0,0,0.03317883610725403,324.1699523925781,168.12109375)"></image><text fill="#000000" font-family="Impact" font-size="45" x="192.06066732894357" y="201.7453084835824" transform="matrix(0.3339531719684601,0,0,0.3339531719684601,290.00692749023443,119.76580810546874)" svgjs:data="{&quot;leading&quot;:&quot;1.3&quot;}"><tspan dy="0" x="192.06066732894357" svgjs:data="{&quot;newLined&quot;:true}">Player</tspan></text><text fill="#000000" font-family="Impact" font-size="45" x="192.06066732894357" y="201.7453084835824" transform="matrix(0.3339531719684601,0,0,0.3339531719684601,290.00692749023443,71.15470886230467)" svgjs:data="{&quot;leading&quot;:&quot;1.3&quot;}"><tspan dy="0" x="192.06066732894357" svgjs:data="{&quot;newLined&quot;:true}">Player</tspan></text><text fill="#000000" font-family="Impact" font-size="45" x="192.06066732894357" y="201.7453084835824" transform="matrix(0.3339531719684601,0,0,0.3339531719684601,290.0068969726563,167.3085479736328)" svgjs:data="{&quot;leading&quot;:&quot;1.3&quot;}"><tspan dy="0" x="192.06066732894357" svgjs:data="{&quot;newLined&quot;:true}">Player</tspan></text><text fill="#000000" font-family="Impact" font-size="45" x="192.06066732894357" y="201.7453084835824" transform="matrix(0.3339531719684601,0,0,0.3339531719684601,290.0068969726563,215.3854522705078)" svgjs:data="{&quot;leading&quot;:&quot;1.3&quot;}"><tspan dy="0" x="192.06066732894357" svgjs:data="{&quot;newLined&quot;:true}">Player</tspan></text><image width="760" height="760" xlink:href="https://lct-designs.s3.us-west-1.amazonaws.com/assets/libs/cheetahs-1-1631960395091.png" class="asset" transform="matrix(0.03317883610725403,0,0,0.03317883610725403,323.6357727050781,215.66383361816406)"></image><image width="760" height="760" xlink:href="https://lct-designs.s3.us-west-1.amazonaws.com/assets/libs/cheetahs-1-1631960395091.png" class="asset" transform="matrix(0.03317883610725403,0,0,0.03317883610725403,323.6357421875,263.74073791503906)"></image><image width="760" height="760" xlink:href="https://lct-designs.s3.us-west-1.amazonaws.com/assets/libs/cheetahs-1-1631960395091.png" class="asset" transform="matrix(0.03317883610725403,0,0,0.03317883610725403,413.7640075683594,141.94590759277344)"></image><image width="760" height="760" xlink:href="https://lct-designs.s3.us-west-1.amazonaws.com/assets/libs/cheetahs-1-1631960395091.png" class="asset" transform="matrix(0.03317883610725403,0,0,0.03317883610725403,413.76403808593756,193.12167358398438)"></image><image width="760" height="760" xlink:href="https://lct-designs.s3.us-west-1.amazonaws.com/assets/libs/cheetahs-1-1631960395091.png" class="asset" transform="matrix(0.03317883610725403,0,0,0.03317883610725403,413.7639770507813,241.73277282714838)"></image><text fill="#000000" font-family="Impact" font-size="45" x="192.06066732894357" y="201.7453084835824" transform="matrix(0.3339531719684601,0,0,0.3339531719684601,379.6008911132813,93.59063720703126)" svgjs:data="{&quot;leading&quot;:&quot;1.3&quot;}"><tspan dy="0" x="192.06066732894357" svgjs:data="{&quot;newLined&quot;:true}">Player</tspan></text><text fill="#000000" font-family="Impact" font-size="45" x="192.06066732894357" y="201.7453084835824" transform="matrix(0.3339531719684601,0,0,0.3339531719684601,379.6009521484375,144.76641845703125)" svgjs:data="{&quot;leading&quot;:&quot;1.3&quot;}"><tspan dy="0" x="192.06066732894357" svgjs:data="{&quot;newLined&quot;:true}">Player</tspan></text><text fill="#000000" font-family="Impact" font-size="45" x="192.06066732894357" y="201.7453084835824" transform="matrix(0.3339531719684601,0,0,0.3339531719684601,379.60092163085943,193.3775177001953)" svgjs:data="{&quot;leading&quot;:&quot;1.3&quot;}"><tspan dy="0" x="192.06066732894357" svgjs:data="{&quot;newLined&quot;:true}">Player</tspan></text><g class="mask" style="pointer-events: none;"><g><path fill="#BCBEC0" d="M-3642.4-2101.7v4589.1h7813.4v-4589.1H-3642.4z M500.5,67.2v233.3v66.7H0.5v-66.7V67.2V0.5h500V67.2z" transform="matrix(1,0,0,1,0,0)"></path><g transform="matrix(1,0,0,1,0,0)">
	<rect x="0.5" y="300.5" opacity="0.95" fill="#F1F2F2" width="500" height="66.7"></rect>
	<rect x="0.5" y="0.5" opacity="0.95" fill="#F1F2F2" width="500" height="66.7"></rect>
</g></g></g></svg>