<svg xmlns="http://www.w3.org/2000/svg" version="1.1" xmlns:xlink="http://www.w3.org/1999/xlink" xmlns:svgjs="http://svgjs.dev/svgjs" width="100%" height="100%" viewBox="1 1 499 365.70001220703125" preserveAspectRatio="none" data-info="{&quot;_id&quot;:4,&quot;name&quot;:&quot;POLE POCKET SOCCER BANNERS&quot;,&quot;information&quot;:&quot;- Size: 3’x5’\n- Material: heavy duty vinyl banner\n- Digitally printed on vinyl&quot;,&quot;price&quot;:&quot;95.00&quot;,&quot;sale_price&quot;:&quot;89.99&quot;,&quot;type&quot;:&quot;pole-pocket&quot;,&quot;cover&quot;:{&quot;key&quot;:&quot;assets/models/pole-1628062864266-1631924568908.png&quot;,&quot;url&quot;:&quot;https://lct-designs.s3.us-west-1.amazonaws.com/assets/models/pole-1628062864266-1631924568908.png&quot;},&quot;back&quot;:{&quot;key&quot;:&quot;assets/models/pole-1631924700152.svg&quot;,&quot;url&quot;:&quot;https://lct-designs.s3.us-west-1.amazonaws.com/assets/models/pole-1631924700152.svg&quot;},&quot;mask&quot;:{&quot;key&quot;:&quot;assets/models/pole-mask-1631925211715.svg&quot;,&quot;url&quot;:&quot;https://lct-designs.s3.us-west-1.amazonaws.com/assets/models/pole-mask-1631925211715.svg&quot;},&quot;pos&quot;:&quot;2&quot;,&quot;accessories&quot;:&quot;2,3&quot;}" style="background-color: white;"><g class="model" style="pointer-events: none;"><polygon fill="#FFFFFF" points="0.5,0.5 0.5,67.2 0.5,300.5 0.5,367.2 500.5,367.2 500.5,300.5 500.5,67.2 500.5,0.5 "></polygon></g><image width="760" height="558" xlink:href="https://lct-designs.s3.us-west-1.amazonaws.com/assets/libs/airborne-1632996545809.png" class="asset background locked" transform="matrix(0.6571684806577621,0,0,0.6571684806577621,0,0)"></image><text fill="#000000" font-family="Impact" font-size="45" x="54.87449865828927" y="201.7453084835824" transform="matrix(0.2622695863246918,0,0,0.2622695863246918,-4.923384666442871,35.20805358886719)" svgjs:data="{&quot;leading&quot;:&quot;1.3&quot;}"><tspan dy="0" x="54.87449865828927" svgjs:data="{&quot;newLined&quot;:true}">Coach: Coach's name</tspan></text><text fill="#000000" font-family="Impact" font-size="45" x="54.87449865828927" y="201.7453084835824" transform="matrix(0.2622695863246918,0,0,0.2622695863246918,328.26040649414057,35.208049774169936)" svgjs:data="{&quot;leading&quot;:&quot;1.3&quot;}"><tspan dy="0" x="54.87449865828927" svgjs:data="{&quot;newLined&quot;:true}">Team mom: Team mom's name</tspan></text><text fill="#000000" font-family="Impact" font-size="45" x="192.06066732894357" y="201.7453084835824" transform="matrix(0.3300925493240356,0,0,0.3300925493240357,169.1650390625,61.20478820800781)" svgjs:data="{&quot;leading&quot;:&quot;1.3&quot;}"><tspan dy="0" x="192.06066732894357" svgjs:data="{&quot;newLined&quot;:true}">Player</tspan><tspan dy="19.5" x="192.06066732894357" svgjs:data="{&quot;newLined&quot;:true}"></tspan></text><image width="760" height="352" xlink:href="https://lct-designs.s3.us-west-1.amazonaws.com/assets/libs/airborne-1632996655953.png" class="asset" transform="matrix(0.2514640688896179,0,0,0.2514640688896179,152.99142456054688,139.35876464843753)"></image><text fill="#000000" font-family="Impact" font-size="45" x="192.06066732894357" y="201.7453084835824" transform="matrix(0.3300925493240356,0,0,0.3300925493240357,249.29324340820307,77.76466369628909)" svgjs:data="{&quot;leading&quot;:&quot;1.3&quot;}"><tspan dy="0" x="192.06066732894357" svgjs:data="{&quot;newLined&quot;:true}">Player</tspan><tspan dy="19.5" x="192.06066732894357" svgjs:data="{&quot;newLined&quot;:true}"></tspan></text><image width="760" height="760" xlink:href="https://lct-designs.s3.us-west-1.amazonaws.com/assets/libs/avengers-1632133995977.png" class="asset" transform="matrix(0.04063482955098152,0,0,0.04063482955098153,317.4396667480469,96.44233703613284)"></image><image width="760" height="416" xlink:href="https://lct-designs.s3.us-west-1.amazonaws.com/assets/libs/airborne-1632996637185.png" class="asset" transform="matrix(0.11873813718557356,0,0,0.11873813718557359,203.4273223876953,234.50721740722662)"></image><text fill="#000000" font-family="Impact" font-size="45" x="192.06066732894357" y="201.7453084835824" transform="matrix(0.3300925493240356,0,0,0.3300925493240357,-36.24095916748047,171.70280456542972)" svgjs:data="{&quot;leading&quot;:&quot;1.3&quot;}"><tspan dy="0" x="192.06066732894357" svgjs:data="{&quot;newLined&quot;:true}">Player</tspan><tspan dy="19.5" x="192.06066732894357" svgjs:data="{&quot;newLined&quot;:true}"></tspan></text><text fill="#000000" font-family="Impact" font-size="45" x="192.06066732894357" y="201.7453084835824" transform="matrix(0.3300925493240356,0,0,0.3300925493240357,13.481271743774414,217.64294433593756)" svgjs:data="{&quot;leading&quot;:&quot;1.3&quot;}"><tspan dy="0" x="192.06066732894357" svgjs:data="{&quot;newLined&quot;:true}">Player</tspan><tspan dy="19.5" x="192.06066732894357" svgjs:data="{&quot;newLined&quot;:true}"></tspan></text><text fill="#000000" font-family="Impact" font-size="45" x="192.06066732894357" y="201.7453084835824" transform="matrix(0.3300925493240356,0,0,0.3300925493240357,16.152229309082024,114.62361907958984)" svgjs:data="{&quot;leading&quot;:&quot;1.3&quot;}"><tspan dy="0" x="192.06066732894357" svgjs:data="{&quot;newLined&quot;:true}">Player</tspan><tspan dy="19.5" x="192.06066732894357" svgjs:data="{&quot;newLined&quot;:true}"></tspan></text><image width="760" height="760" xlink:href="https://lct-designs.s3.us-west-1.amazonaws.com/assets/libs/avengers-1632133995977.png" class="asset" transform="matrix(0.040634818375110626,0,0,0.040634818375110626,85.1920166015625,133.0070953369141)"></image><text fill="#000000" font-family="Impact" font-size="45" x="192.06066732894357" y="201.7453084835824" transform="matrix(0.3300925493240356,0,0,0.3300925493240357,78.50263977050781,78.29881286621094)" svgjs:data="{&quot;leading&quot;:&quot;1.3&quot;}"><tspan dy="0" x="192.06066732894357" svgjs:data="{&quot;newLined&quot;:true}">Player</tspan><tspan dy="19.5" x="192.06066732894357" svgjs:data="{&quot;newLined&quot;:true}"></tspan></text><text fill="#000000" font-family="Impact" font-size="45" x="192.06066732894357" y="201.7453084835824" transform="matrix(0.3300925493240356,0,0,0.3300925493240357,367.4555969238281,167.96350097656253)" svgjs:data="{&quot;leading&quot;:&quot;1.3&quot;}"><tspan dy="0" x="192.06066732894357" svgjs:data="{&quot;newLined&quot;:true}">Player</tspan><tspan dy="19.5" x="192.06066732894357" svgjs:data="{&quot;newLined&quot;:true}"></tspan></text><text fill="#000000" font-family="Impact" font-size="45" x="192.06066732894357" y="201.7453084835824" transform="matrix(0.3300925493240356,0,0,0.3300925493240357,309.8060607910156,213.9036407470703)" svgjs:data="{&quot;leading&quot;:&quot;1.3&quot;}"><tspan dy="0" x="192.06066732894357" svgjs:data="{&quot;newLined&quot;:true}">Player</tspan><tspan dy="19.5" x="192.06066732894357" svgjs:data="{&quot;newLined&quot;:true}"></tspan></text><text fill="#000000" font-family="Impact" font-size="45" x="192.06066732894357" y="201.7453084835824" transform="matrix(0.3300925493240356,0,0,0.3300925493240357,312.4770202636719,110.88431549072268)" svgjs:data="{&quot;leading&quot;:&quot;1.3&quot;}"><tspan dy="0" x="192.06066732894357" svgjs:data="{&quot;newLined&quot;:true}">Player</tspan><tspan dy="19.5" x="192.06066732894357" svgjs:data="{&quot;newLined&quot;:true}"></tspan></text><image width="760" height="760" xlink:href="https://lct-designs.s3.us-west-1.amazonaws.com/assets/libs/avengers-1632133995977.png" class="asset" transform="matrix(0.04063477739691734,0,0,0.04063477739691734,236.52577209472656,80.25666046142581)"></image><image width="760" height="760" xlink:href="https://lct-designs.s3.us-west-1.amazonaws.com/assets/libs/avengers-1632133995977.png" class="asset" transform="matrix(0.040634747594594955,0,0,0.04063474759459496,31.872934341430657,189.516830444336)"></image><image width="760" height="760" xlink:href="https://lct-designs.s3.us-west-1.amazonaws.com/assets/libs/avengers-1632133995977.png" class="asset" transform="matrix(0.04063476249575615,0,0,0.040634762495756156,81.96688842773438,235.05711364746094)"></image><image width="760" height="760" xlink:href="https://lct-designs.s3.us-west-1.amazonaws.com/assets/libs/avengers-1632133995977.png" class="asset" transform="matrix(0.04063478484749794,0,0,0.04063478484749794,146.75717163085935,96.19662475585938)"></image><image width="760" height="760" xlink:href="https://lct-designs.s3.us-west-1.amazonaws.com/assets/libs/avengers-1632133995977.png" class="asset" transform="matrix(0.040634721517562866,0,0,0.04063472151756287,435.3102722167969,186.06605529785156)"></image><image width="760" height="760" xlink:href="https://lct-designs.s3.us-west-1.amazonaws.com/assets/libs/avengers-1632133995977.png" class="asset" transform="matrix(0.040634751319885254,0,0,0.040634751319885254,376.6983032226562,231.60633850097656)"></image><image width="760" height="760" xlink:href="https://lct-designs.s3.us-west-1.amazonaws.com/assets/libs/avengers-1632133995977.png" class="asset" transform="matrix(0.04063482582569122,0,0,0.04063482582569122,380.5604553222656,129.55630493164062)"></image><text fill="#000000" font-family="Impact" font-size="45" x="192.06066732894357" y="201.7453084835824" transform="matrix(0.3300925493240356,0,0,0.3300925493240357,-42.223846435546875,93.25609588623047)" svgjs:data="{&quot;leading&quot;:&quot;1.3&quot;}"><tspan dy="0" x="192.06066732894357" svgjs:data="{&quot;newLined&quot;:true}">Player</tspan><tspan dy="19.5" x="192.06066732894357" svgjs:data="{&quot;newLined&quot;:true}"></tspan></text><image width="760" height="760" xlink:href="https://lct-designs.s3.us-west-1.amazonaws.com/assets/libs/avengers-1632133995977.png" class="asset" transform="matrix(0.04063482582569122,0,0,0.04063482582569122,26.815940856933594,111.63957214355469)"></image><text fill="#000000" font-family="Impact" font-size="45" x="192.06066732894357" y="201.7453084835824" transform="matrix(0.3300925493240356,0,0,0.3300925493240357,376.42999267578125,94.32446277141571)" svgjs:data="{&quot;leading&quot;:&quot;1.3&quot;}"><tspan dy="0" x="192.06066732894357" svgjs:data="{&quot;newLined&quot;:true}">Player</tspan><tspan dy="19.5" x="192.06066732894357" svgjs:data="{&quot;newLined&quot;:true}"></tspan></text><image width="760" height="760" xlink:href="https://lct-designs.s3.us-west-1.amazonaws.com/assets/libs/avengers-1632133995977.png" class="asset" transform="matrix(0.04063482582569122,0,0,0.04063482582569122,445.46978759765625,112.70793902873993)"></image><g class="mask" style="pointer-events: none;"><g><path fill="#BCBEC0" d="M-3642.4-2101.7v4589.1h7813.4v-4589.1H-3642.4z M500.5,67.2v233.3v66.7H0.5v-66.7V67.2V0.5h500V67.2z" transform="matrix(1,0,0,1,0,0)"></path><g transform="matrix(1,0,0,1,0,0)">
	<rect x="0.5" y="300.5" opacity="0.95" fill="#F1F2F2" width="500" height="66.7"></rect>
	<rect x="0.5" y="0.5" opacity="0.95" fill="#F1F2F2" width="500" height="66.7"></rect>
</g></g></g></svg>