<svg xmlns="http://www.w3.org/2000/svg" version="1.1" xmlns:xlink="http://www.w3.org/1999/xlink" xmlns:svgjs="http://svgjs.dev/svgjs" width="100%" height="100%" viewBox="1 1 499 365.70001220703125" preserveAspectRatio="none" data-info="{&quot;_id&quot;:4,&quot;name&quot;:&quot;POLE POCKET SOCCER BANNERS&quot;,&quot;information&quot;:&quot;- Size: 3’x5’\n- Material: heavy duty vinyl banner\n- Digitally printed on vinyl&quot;,&quot;price&quot;:&quot;95.00&quot;,&quot;sale_price&quot;:&quot;89.99&quot;,&quot;type&quot;:&quot;pole-pocket&quot;,&quot;cover&quot;:{&quot;key&quot;:&quot;assets/models/pole-1628062864266-1631924568908.png&quot;,&quot;url&quot;:&quot;https://lct-designs.s3.us-west-1.amazonaws.com/assets/models/pole-1628062864266-1631924568908.png&quot;},&quot;back&quot;:{&quot;key&quot;:&quot;assets/models/pole-1631924700152.svg&quot;,&quot;url&quot;:&quot;https://lct-designs.s3.us-west-1.amazonaws.com/assets/models/pole-1631924700152.svg&quot;},&quot;mask&quot;:{&quot;key&quot;:&quot;assets/models/pole-mask-1631925211715.svg&quot;,&quot;url&quot;:&quot;https://lct-designs.s3.us-west-1.amazonaws.com/assets/models/pole-mask-1631925211715.svg&quot;},&quot;pos&quot;:&quot;2&quot;,&quot;accessories&quot;:&quot;2,3&quot;}" style="background-color: white;"><g class="model" style="pointer-events: none;"><polygon fill="#FFFFFF" points="0.5,0.5 0.5,67.2 0.5,300.5 0.5,367.2 500.5,367.2 500.5,300.5 500.5,67.2 500.5,0.5 "></polygon></g><image width="760" height="556" xlink:href="https://lct-designs.s3.us-west-1.amazonaws.com/assets/libs/angry-birds-2-1631962521601.png" class="asset background locked" transform="matrix(0.6595323960558116,0,0,0.6595323960558116,0,0)"></image><text fill="#000000" font-family="Impact" font-size="45" x="50.877864861049005" y="201.76359325371294" transform="matrix(0.221296027302742,0,0,0.221296027302742,1.1572480201721191,42.27294158935547)" svgjs:data="{&quot;leading&quot;:&quot;1.3&quot;}"><tspan dy="0" x="50.877864861049005" svgjs:data="{&quot;newLined&quot;:true}">COACH: COACH'S NAME</tspan></text><text fill="#000000" font-family="Impact" font-size="45" x="50.877864861049005" y="201.76359325371294" transform="matrix(0.22129602730274203,0,0,0.22129602730274198,358.8917541503907,42.27293395996094)" svgjs:data="{&quot;leading&quot;:&quot;1.3&quot;}"><tspan dy="0" x="50.877864861049005" svgjs:data="{&quot;newLined&quot;:true}">TEAM MOM: TEAM MOM'S NAME</tspan></text><text fill="#000000" font-family="Impact" font-size="45" x="191.6757536099403" y="201.76361352143002" transform="matrix(0.32830286026000977,0,0,0.32830286026000977,-43.72816467285156,76.96122741699219)" svgjs:data="{&quot;leading&quot;:&quot;1.3&quot;}"><tspan dy="0" x="191.6757536099403" svgjs:data="{&quot;newLined&quot;:true}">player</tspan></text><text fill="#000000" font-family="Impact" font-size="45" x="191.6757536099403" y="201.76361352143002" transform="matrix(0.32830286026000977,0,0,0.32830286026000977,18.734027862548828,76.96122741699219)" svgjs:data="{&quot;leading&quot;:&quot;1.3&quot;}"><tspan dy="0" x="191.6757536099403" svgjs:data="{&quot;newLined&quot;:true}">player</tspan></text><image width="760" height="428" xlink:href="https://lct-designs.s3.us-west-1.amazonaws.com/assets/libs/angry-birds-2-1631959823874.png" class="asset" transform="matrix(0.25446733832359314,0,0,0.2742603123188019,158.53717041015625,169.64596557617188)"></image><text fill="#000000" font-family="Impact" font-size="45" x="191.6757536099403" y="201.76361352143002" transform="matrix(0.32830286026000977,0,0,0.32830286026000977,139.01170349121097,76.96122741699219)" svgjs:data="{&quot;leading&quot;:&quot;1.3&quot;}"><tspan dy="0" x="191.6757536099403" svgjs:data="{&quot;newLined&quot;:true}">player</tspan></text><text fill="#000000" font-family="Impact" font-size="45" x="191.6757536099403" y="201.76361352143002" transform="matrix(0.32830286026000977,0,0,0.32830286026000977,200.5744781494141,76.96122741699219)" svgjs:data="{&quot;leading&quot;:&quot;1.3&quot;}"><tspan dy="0" x="191.6757536099403" svgjs:data="{&quot;newLined&quot;:true}">player</tspan></text><text fill="#000000" font-family="Impact" font-size="45" x="191.6757536099403" y="201.76361352143002" transform="matrix(0.32830286026000977,0,0,0.32830286026000977,76.54951477050783,76.96122741699219)" svgjs:data="{&quot;leading&quot;:&quot;1.3&quot;}"><tspan dy="0" x="191.6757536099403" svgjs:data="{&quot;newLined&quot;:true}">player</tspan></text><text fill="#000000" font-family="Impact" font-size="45" x="191.6757536099403" y="201.76361352143002" transform="matrix(0.32830286026000977,0,0,0.32830286026000977,263.03668212890625,76.96122741699219)" svgjs:data="{&quot;leading&quot;:&quot;1.3&quot;}"><tspan dy="0" x="191.6757536099403" svgjs:data="{&quot;newLined&quot;:true}">player</tspan></text><image width="760" height="712" xlink:href="https://lct-designs.s3.us-west-1.amazonaws.com/assets/libs/angry-birds-2-1631959777574.png" class="asset" transform="matrix(0.04511558264493942,0,0,0.04511558264493942,328.42755126953125,96.8935775756836)"></image><image width="760" height="712" xlink:href="https://lct-designs.s3.us-west-1.amazonaws.com/assets/libs/angry-birds-2-1631959777574.png" class="asset" transform="matrix(0.04511558264493942,0,0,0.04511558264493942,141.94039916992188,96.89360046386719)"></image><text fill="#000000" font-family="Impact" font-size="45" x="191.6757536099403" y="201.76361352143002" transform="matrix(0.32830286026000977,0,0,0.32830286026000977,318.7108154296875,76.96121978759766)" svgjs:data="{&quot;leading&quot;:&quot;1.3&quot;}"><tspan dy="0" x="191.6757536099403" svgjs:data="{&quot;newLined&quot;:true}">player</tspan></text><text fill="#000000" font-family="Impact" font-size="45" x="191.6757536099403" y="201.76361352143002" transform="matrix(0.32830286026000977,0,0,0.32830286026000977,381.17303466796875,76.96121978759766)" svgjs:data="{&quot;leading&quot;:&quot;1.3&quot;}"><tspan dy="0" x="191.6757536099403" svgjs:data="{&quot;newLined&quot;:true}">player</tspan></text><image width="760" height="712" xlink:href="https://lct-designs.s3.us-west-1.amazonaws.com/assets/libs/angry-birds-2-1631959777574.png" class="asset" transform="matrix(0.04511558264493942,0,0,0.04511558264493942,21.662719726562493,96.8935775756836)"></image><image width="760" height="712" xlink:href="https://lct-designs.s3.us-west-1.amazonaws.com/assets/libs/angry-birds-2-1631959777574.png" class="asset" transform="matrix(0.04511558264493942,0,0,0.04511558264493942,84.12490844726562,96.8935775756836)"></image><image width="760" height="712" xlink:href="https://lct-designs.s3.us-west-1.amazonaws.com/assets/libs/angry-birds-2-1631959777574.png" class="asset" transform="matrix(0.04511558264493942,0,0,0.04511558264493942,204.402587890625,96.8935775756836)"></image><image width="760" height="712" xlink:href="https://lct-designs.s3.us-west-1.amazonaws.com/assets/libs/angry-birds-2-1631959777574.png" class="asset" transform="matrix(0.04511558264493942,0,0,0.04511558264493942,265.9653625488281,96.8935775756836)"></image><image width="760" height="712" xlink:href="https://lct-designs.s3.us-west-1.amazonaws.com/assets/libs/angry-birds-2-1631959777574.png" class="asset" transform="matrix(0.04511558264493942,0,0,0.04511558264493942,384.1017150878906,96.8935775756836)"></image><image width="760" height="712" xlink:href="https://lct-designs.s3.us-west-1.amazonaws.com/assets/libs/angry-birds-2-1631959777574.png" class="asset" transform="matrix(0.04511558264493942,0,0,0.04511558264493942,446.56390380859375,96.8935775756836)"></image><image width="638" height="760" xlink:href="https://lct-designs.s3.us-west-1.amazonaws.com/assets/libs/angry-birds-2-2-1631959880574.png" class="asset" transform="matrix(0.17091320455074313,0,0,0.18420718610286715,34.579872131347656,147.41673278808594)"></image><image width="709" height="760" xlink:href="https://lct-designs.s3.us-west-1.amazonaws.com/assets/libs/angry-birds-2-1-1631959880573.png" class="asset" transform="matrix(0.17091320455074313,0,0,0.18420718610286715,357.4759521484375,149.022705078125)"></image><g class="mask" style="pointer-events: none;"><g><path fill="#BCBEC0" d="M-3642.4-2101.7v4589.1h7813.4v-4589.1H-3642.4z M500.5,67.2v233.3v66.7H0.5v-66.7V67.2V0.5h500V67.2z" transform="matrix(1,0,0,1,0,0)"></path><g transform="matrix(1,0,0,1,0,0)">
	<rect x="0.5" y="300.5" opacity="0.95" fill="#F1F2F2" width="500" height="66.7"></rect>
	<rect x="0.5" y="0.5" opacity="0.95" fill="#F1F2F2" width="500" height="66.7"></rect>
</g></g></g><image width="760" height="712" xlink:href="https://lct-designs.s3.us-west-1.amazonaws.com/assets/libs/angry-birds-2-1631959777574.png" class="asset" transform="matrix(0.04511558264493942,0,0,0.04511558264493942,131.59791564941406,153.6383972167969)"></image><text fill="#000000" font-family="Impact" font-size="45" x="191.6757536099403" y="201.76361352143002" transform="matrix(0.32830286026000977,0,0,0.32830286026000977,66.20703124999999,133.70606994628906)" svgjs:data="{&quot;leading&quot;:&quot;1.3&quot;}"><tspan dy="0" x="191.6757536099403" svgjs:data="{&quot;newLined&quot;:true}">player</tspan></text><text fill="#000000" font-family="Impact" font-size="45" x="191.6757536099403" y="201.76361352143002" transform="matrix(0.32830286026000977,0,0,0.32830286026000977,276.7839965820313,133.7060546875)" svgjs:data="{&quot;leading&quot;:&quot;1.3&quot;}"><tspan dy="0" x="191.6757536099403" svgjs:data="{&quot;newLined&quot;:true}">player</tspan></text><image width="760" height="712" xlink:href="https://lct-designs.s3.us-west-1.amazonaws.com/assets/libs/angry-birds-2-1631959777574.png" class="asset" transform="matrix(0.04511558264493942,0,0,0.04511558264493942,342.17486572265625,153.6383972167969)"></image></svg>