<svg xmlns="http://www.w3.org/2000/svg" version="1.1" xmlns:xlink="http://www.w3.org/1999/xlink" xmlns:svgjs="http://svgjs.dev/svgjs" width="100%" height="100%" viewBox="1 1 499 365.70001220703125" preserveAspectRatio="none" data-info="{&quot;_id&quot;:4,&quot;name&quot;:&quot;POLE POCKET SOCCER BANNERS&quot;,&quot;information&quot;:&quot;- Size: 3’x5’\n- Material: heavy duty vinyl banner\n- Digitally printed on vinyl&quot;,&quot;price&quot;:&quot;95.00&quot;,&quot;sale_price&quot;:&quot;89.99&quot;,&quot;type&quot;:&quot;pole-pocket&quot;,&quot;cover&quot;:{&quot;key&quot;:&quot;assets/models/pole-1628062864266-1631924568908.png&quot;,&quot;url&quot;:&quot;https://lct-designs.s3.us-west-1.amazonaws.com/assets/models/pole-1628062864266-1631924568908.png&quot;},&quot;back&quot;:{&quot;key&quot;:&quot;assets/models/pole-1631924700152.svg&quot;,&quot;url&quot;:&quot;https://lct-designs.s3.us-west-1.amazonaws.com/assets/models/pole-1631924700152.svg&quot;},&quot;mask&quot;:{&quot;key&quot;:&quot;assets/models/pole-mask-1631925211715.svg&quot;,&quot;url&quot;:&quot;https://lct-designs.s3.us-west-1.amazonaws.com/assets/models/pole-mask-1631925211715.svg&quot;},&quot;pos&quot;:&quot;2&quot;,&quot;accessories&quot;:&quot;2,3&quot;}" style="background-color: white;"><g class="model" style="pointer-events: none;"><polygon fill="#FFFFFF" points="0.5,0.5 0.5,67.2 0.5,300.5 0.5,367.2 500.5,367.2 500.5,300.5 500.5,67.2 500.5,0.5 "></polygon></g><image width="760" height="556" xlink:href="https://lct-designs.s3.us-west-1.amazonaws.com/assets/libs/ambush-1631962521601.png" class="asset background locked" transform="matrix(0.6595323960558116,0,0,0.6595323960558116,0,0)"></image><defs><path d="M20.5,10.5c0.2,13-20.2,13-20,0C0.3-2.5,20.7-2.5,20.5,10.5z" id="SvgjsPath1001"></path></defs><text fill="#ba9c20" font-family="Impact" font-size="40" x="92.65996008407052" y="198.80727251861657" stroke-opacity="1" stroke-width="2" stroke="#143503" transform="matrix(0.2977757155895233,0,0,0.29777571558952337,-20.401981353759766,25.742097854614258)" svgjs:data="{&quot;leading&quot;:&quot;1.3&quot;}"><tspan dy="0" x="92.65996008407052" svgjs:data="{&quot;newLined&quot;:true}">coach: coach's name</tspan><tspan dy="52" x="92.65996008407052" svgjs:data="{&quot;newLined&quot;:true}"></tspan></text><text fill="#ba9c20" font-family="Impact" font-size="40" x="92.65996008407052" y="198.80727251861657" stroke-opacity="1" stroke-width="2" stroke="#143503" transform="matrix(0.2977757155895233,0,0,0.29777571558952337,322.3971862792969,25.742097854614258)" svgjs:data="{&quot;leading&quot;:&quot;1.3&quot;}"><tspan dy="0" x="92.65996008407052" svgjs:data="{&quot;newLined&quot;:true}">team mom: team mom's name</tspan><tspan dy="52" x="92.65996008407052" svgjs:data="{&quot;newLined&quot;:true}"></tspan></text><image width="760" height="385" xlink:href="https://lct-designs.s3.us-west-1.amazonaws.com/assets/libs/ambush-2-1631959823873.png" class="asset" transform="matrix(0.36744806170463556,0,0,0.3674480617046357,113.46153259277341,150.00820922851565)"></image><text fill="#ba9c20" font-family="Impact" font-size="45" x="173.7897666026252" y="198.80727251861657" stroke-opacity="1" stroke-width="2" stroke="#143503" transform="matrix(0.3709954023361206,0,0,0.3709954023361206,-18.340103149414062,213.7557525634766)" svgjs:data="{&quot;leading&quot;:&quot;1.3&quot;}"><tspan dy="0" x="173.7897666026252" svgjs:data="{&quot;newLined&quot;:true}">player</tspan><tspan dy="58.5" x="173.7897666026252" svgjs:data="{&quot;newLined&quot;:true}"></tspan></text><image width="760" height="553" xlink:href="https://lct-designs.s3.us-west-1.amazonaws.com/assets/libs/ambush-1631959777569.png" class="asset" transform="matrix(0.07144536077976225,0,0,0.07144536077976227,40.81193923950195,230.83598327636722)"></image><text fill="#ba9c20" font-family="Impact" font-size="45" x="173.7897666026252" y="198.80727251861657" stroke-opacity="1" stroke-width="2" stroke="#143503" transform="matrix(0.3709954023361206,0,0,0.3709954023361206,23.177001953125,146.44804382324222)" svgjs:data="{&quot;leading&quot;:&quot;1.3&quot;}"><tspan dy="0" x="173.7897666026252" svgjs:data="{&quot;newLined&quot;:true}">player</tspan><tspan dy="58.5" x="173.7897666026252" svgjs:data="{&quot;newLined&quot;:true}"></tspan></text><image width="760" height="553" xlink:href="https://lct-designs.s3.us-west-1.amazonaws.com/assets/libs/ambush-1631959777569.png" class="asset" transform="matrix(0.07144534587860107,0,0,0.07144534587860107,82.32904052734375,163.5282745361328)"></image><text fill="#ba9c20" font-family="Impact" font-size="45" x="173.7897666026252" y="198.80727251861657" stroke-opacity="1" stroke-width="2" stroke="#143503" transform="matrix(0.3709954023361206,0,0,0.3709954023361206,353.0060729980469,208.41384887695315)" svgjs:data="{&quot;leading&quot;:&quot;1.3&quot;}"><tspan dy="0" x="173.7897666026252" svgjs:data="{&quot;newLined&quot;:true}">player</tspan><tspan dy="58.5" x="173.7897666026252" svgjs:data="{&quot;newLined&quot;:true}"></tspan></text><image width="760" height="553" xlink:href="https://lct-designs.s3.us-west-1.amazonaws.com/assets/libs/ambush-1631959777569.png" class="asset" transform="matrix(0.07144539058208466,0,0,0.07144539058208466,412.15811157226557,225.49407958984372)"></image><text fill="#ba9c20" font-family="Impact" font-size="45" x="173.7897666026252" y="198.80727251861657" stroke-opacity="1" stroke-width="2" stroke="#143503" transform="matrix(0.3709954023361206,0,0,0.3709954023361206,82.8564987182617,105.84976196289062)" svgjs:data="{&quot;leading&quot;:&quot;1.3&quot;}"><tspan dy="0" x="173.7897666026252" svgjs:data="{&quot;newLined&quot;:true}">player</tspan><tspan dy="58.5" x="173.7897666026252" svgjs:data="{&quot;newLined&quot;:true}"></tspan></text><image width="760" height="553" xlink:href="https://lct-designs.s3.us-west-1.amazonaws.com/assets/libs/ambush-1631959777569.png" class="asset" transform="matrix(0.07144536077976225,0,0,0.07144536077976227,142.00852966308594,122.92999267578128)"></image><text fill="#ba9c20" font-family="Impact" font-size="45" x="173.7897666026252" y="198.80727251861657" stroke-opacity="1" stroke-width="2" stroke="#143503" transform="matrix(0.3709954023361206,0,0,0.3709954023361206,131.70263671875,156.59759521484378)" svgjs:data="{&quot;leading&quot;:&quot;1.3&quot;}"><tspan dy="0" x="173.7897666026252" svgjs:data="{&quot;newLined&quot;:true}">player</tspan><tspan dy="58.5" x="173.7897666026252" svgjs:data="{&quot;newLined&quot;:true}"></tspan></text><image width="760" height="553" xlink:href="https://lct-designs.s3.us-west-1.amazonaws.com/assets/libs/ambush-1631959777569.png" class="asset" transform="matrix(0.07144539803266525,0,0,0.07144539803266525,194.05979919433594,171.54107666015628)"></image><text fill="#ba9c20" font-family="Impact" font-size="45" x="173.7897666026252" y="198.80727251861657" stroke-opacity="1" stroke-width="2" stroke="#143503" transform="matrix(0.3709954023361206,0,0,0.3709954023361206,157.19407653808594,84.48221588134766)" svgjs:data="{&quot;leading&quot;:&quot;1.3&quot;}"><tspan dy="0" x="173.7897666026252" svgjs:data="{&quot;newLined&quot;:true}">player</tspan><tspan dy="58.5" x="173.7897666026252" svgjs:data="{&quot;newLined&quot;:true}"></tspan></text><image width="760" height="553" xlink:href="https://lct-designs.s3.us-west-1.amazonaws.com/assets/libs/ambush-1631959777569.png" class="asset" transform="matrix(0.07144542038440704,0,0,0.07144542038440704,216.3461151123047,101.56244659423828)"></image><text fill="#ba9c20" font-family="Impact" font-size="45" x="173.7897666026252" y="198.80727251861657" stroke-opacity="1" stroke-width="2" stroke="#143503" transform="matrix(0.3709954023361206,0,0,0.3709954023361206,246.25390625,81.27709197998047)" svgjs:data="{&quot;leading&quot;:&quot;1.3&quot;}"><tspan dy="0" x="173.7897666026252" svgjs:data="{&quot;newLined&quot;:true}">player</tspan><tspan dy="58.5" x="173.7897666026252" svgjs:data="{&quot;newLined&quot;:true}"></tspan></text><image width="760" height="553" xlink:href="https://lct-designs.s3.us-west-1.amazonaws.com/assets/libs/ambush-1631959777569.png" class="asset" transform="matrix(0.07144545018672943,0,0,0.07144545018672943,305.40594482421875,98.3573226928711)"></image><text fill="#ba9c20" font-family="Impact" font-size="45" x="173.7897666026252" y="198.80727251861657" stroke-opacity="1" stroke-width="2" stroke="#143503" transform="matrix(0.3709954023361206,0,0,0.3709954023361206,276.55303955078125,153.39247131347656)" svgjs:data="{&quot;leading&quot;:&quot;1.3&quot;}"><tspan dy="0" x="173.7897666026252" svgjs:data="{&quot;newLined&quot;:true}">player</tspan><tspan dy="58.5" x="173.7897666026252" svgjs:data="{&quot;newLined&quot;:true}"></tspan></text><image width="760" height="553" xlink:href="https://lct-designs.s3.us-west-1.amazonaws.com/assets/libs/ambush-1631959777569.png" class="asset" transform="matrix(0.07144547998905182,0,0,0.07144547998905183,335.705078125,170.47271728515628)"></image><g class="mask" style="pointer-events: none;"><g><path fill="#BCBEC0" d="M-3642.4-2101.7v4589.1h7813.4v-4589.1H-3642.4z M500.5,67.2v233.3v66.7H0.5v-66.7V67.2V0.5h500V67.2z" transform="matrix(1,0,0,1,0,0)"></path><g transform="matrix(1,0,0,1,0,0)">
	<rect x="0.5" y="300.5" opacity="0.95" fill="#F1F2F2" width="500" height="66.7"></rect>
	<rect x="0.5" y="0.5" opacity="0.95" fill="#F1F2F2" width="500" height="66.7"></rect>
</g></g></g></svg>