<svg xmlns="http://www.w3.org/2000/svg" version="1.1" xmlns:xlink="http://www.w3.org/1999/xlink" xmlns:svgjs="http://svgjs.dev/svgjs" width="100%" height="100%" viewBox="1 1 499 365.70001220703125" preserveAspectRatio="none" data-info="{&quot;_id&quot;:4,&quot;name&quot;:&quot;POLE POCKET SOCCER BANNERS&quot;,&quot;information&quot;:&quot;- Size: 3’x5’\n- Material: heavy duty vinyl banner\n- Digitally printed on vinyl&quot;,&quot;price&quot;:&quot;95.00&quot;,&quot;sale_price&quot;:&quot;89.99&quot;,&quot;type&quot;:&quot;pole-pocket&quot;,&quot;cover&quot;:{&quot;key&quot;:&quot;assets/models/pole-1628062864266-1631924568908.png&quot;,&quot;url&quot;:&quot;https://lct-designs.s3.us-west-1.amazonaws.com/assets/models/pole-1628062864266-1631924568908.png&quot;},&quot;back&quot;:{&quot;key&quot;:&quot;assets/models/pole-1631924700152.svg&quot;,&quot;url&quot;:&quot;https://lct-designs.s3.us-west-1.amazonaws.com/assets/models/pole-1631924700152.svg&quot;},&quot;mask&quot;:{&quot;key&quot;:&quot;assets/models/pole-mask-1631925211715.svg&quot;,&quot;url&quot;:&quot;https://lct-designs.s3.us-west-1.amazonaws.com/assets/models/pole-mask-1631925211715.svg&quot;},&quot;pos&quot;:&quot;2&quot;,&quot;accessories&quot;:&quot;2,3&quot;}" style="background-color: white;"><g class="model" style="pointer-events: none;"><polygon fill="#FFFFFF" points="0.5,0.5 0.5,67.2 0.5,300.5 0.5,367.2 500.5,367.2 500.5,300.5 500.5,67.2 500.5,0.5 "></polygon></g><image width="760" height="556" xlink:href="https://lct-designs.s3.us-west-1.amazonaws.com/assets/libs/adrenaline-1632996545808.png" class="asset background locked" transform="matrix(0.6595323960558116,0,0,0.6595323960558116,0,0)"></image><text fill="#ffffff" font-family="Impact" font-size="45" x="196.88127233350318" y="200.48091056834267" transform="matrix(0.2917781174182892,0,0,0.2917781174182892,-41.81047821044922,31.12239646911621)" svgjs:data="{&quot;leading&quot;:&quot;1.3&quot;}"><tspan dy="0" x="196.88127233350318" svgjs:data="{&quot;newLined&quot;:true}">Coach: choach's name</tspan></text><text fill="#ffffff" font-family="Impact" font-size="45" x="196.88127233350318" y="200.48091056834267" transform="matrix(0.301501989364624,0,0,0.301501989364624,260.53723144531244,26.408313751220703)" svgjs:data="{&quot;leading&quot;:&quot;1.3&quot;}"><tspan dy="0" x="196.88127233350318" svgjs:data="{&quot;newLined&quot;:true}">Team mom: Team mom's name</tspan></text><image width="760" height="304" xlink:href="https://lct-designs.s3.us-west-1.amazonaws.com/assets/libs/adrenaline-1632996655949.png" class="asset" transform="matrix(0.43204981088638306,0,0,0.43204981088638306,81.9444580078125,163.35000610351565)"></image><text fill="#ffffff" font-family="Impact" font-size="45" x="196.88127233350318" y="200.48091056834267" transform="matrix(0.3283390998840332,0,0,0.3283390998840332,-41.75246810913086,214.35801696777347)" svgjs:data="{&quot;leading&quot;:&quot;1.3&quot;}"><tspan dy="0" x="196.88127233350318" svgjs:data="{&quot;newLined&quot;:true}">player</tspan></text><image width="658" height="760" xlink:href="https://lct-designs.s3.us-west-1.amazonaws.com/assets/libs/adrenaline-1632996758185.png" class="asset" transform="matrix(0.050887420773506165,0,0,0.05088742077350617,25.951953887939446,226.83294677734372)"></image><text fill="#ffffff" font-family="Impact" font-size="45" x="196.88127233350318" y="200.48091056834267" transform="matrix(0.3283390998840332,0,0,0.3283390998840332,-41.36784744262695,128.88795471191406)" svgjs:data="{&quot;leading&quot;:&quot;1.3&quot;}"><tspan dy="0" x="196.88127233350318" svgjs:data="{&quot;newLined&quot;:true}">player</tspan></text><image width="658" height="760" xlink:href="https://lct-designs.s3.us-west-1.amazonaws.com/assets/libs/adrenaline-1632996758185.png" class="asset" transform="matrix(0.050887420773506165,0,0,0.05088742077350617,26.336574554443352,141.36288452148438)"></image><text fill="#ffffff" font-family="Impact" font-size="45" x="196.88127233350318" y="200.48091056834267" transform="matrix(0.3283390998840332,0,0,0.3283390998840332,28.461204409599297,97.37085723876953)" svgjs:data="{&quot;leading&quot;:&quot;1.3&quot;}"><tspan dy="0" x="196.88127233350318" svgjs:data="{&quot;newLined&quot;:true}">player</tspan></text><image width="658" height="760" xlink:href="https://lct-designs.s3.us-west-1.amazonaws.com/assets/libs/adrenaline-1632996758185.png" class="asset" transform="matrix(0.050887420773506165,0,0,0.05088742077350617,96.16562640666962,109.84578704833984)"></image><text fill="#ffffff" font-family="Impact" font-size="45" x="196.88127233350318" y="200.48091056834267" transform="matrix(0.3283390998840332,0,0,0.3283390998840332,106.30307006835938,82.41358947753909)" svgjs:data="{&quot;leading&quot;:&quot;1.3&quot;}"><tspan dy="0" x="196.88127233350318" svgjs:data="{&quot;newLined&quot;:true}">player</tspan></text><image width="658" height="760" xlink:href="https://lct-designs.s3.us-west-1.amazonaws.com/assets/libs/adrenaline-1632996758185.png" class="asset" transform="matrix(0.050887420773506165,0,0,0.05088742077350617,174.0074920654297,94.8885192871094)"></image><text fill="#ffffff" font-family="Impact" font-size="45" x="196.88127233350318" y="200.48091056834267" transform="matrix(0.3283390998840332,0,0,0.3283390998840332,196.9654541015625,82.41358947753909)" svgjs:data="{&quot;leading&quot;:&quot;1.3&quot;}"><tspan dy="0" x="196.88127233350318" svgjs:data="{&quot;newLined&quot;:true}">player</tspan></text><image width="658" height="760" xlink:href="https://lct-designs.s3.us-west-1.amazonaws.com/assets/libs/adrenaline-1632996758185.png" class="asset" transform="matrix(0.050887420773506165,0,0,0.05088742077350617,264.66986083984375,94.8885192871094)"></image><text fill="#ffffff" font-family="Impact" font-size="45" x="196.88127233350318" y="200.48091056834267" transform="matrix(0.3283390998840332,0,0,0.3283390998840332,284.4227293729782,95.76829528808594)" svgjs:data="{&quot;leading&quot;:&quot;1.3&quot;}"><tspan dy="0" x="196.88127233350318" svgjs:data="{&quot;newLined&quot;:true}">player</tspan></text><image width="658" height="760" xlink:href="https://lct-designs.s3.us-west-1.amazonaws.com/assets/libs/adrenaline-1632996758185.png" class="asset" transform="matrix(0.050887420773506165,0,0,0.05088742077350617,352.12713611125946,108.24322509765625)"></image><text fill="#ffffff" font-family="Impact" font-size="45" x="196.88127233350318" y="200.48091056834267" transform="matrix(0.3283390998840332,0,0,0.3283390998840332,367.8201942443847,212.75544738769534)" svgjs:data="{&quot;leading&quot;:&quot;1.3&quot;}"><tspan dy="0" x="196.88127233350318" svgjs:data="{&quot;newLined&quot;:true}">player</tspan></text><image width="658" height="760" xlink:href="https://lct-designs.s3.us-west-1.amazonaws.com/assets/libs/adrenaline-1632996758185.png" class="asset" transform="matrix(0.050887420773506165,0,0,0.05088742077350617,435.5246162414551,225.23037719726565)"></image><text fill="#ffffff" font-family="Impact" font-size="45" x="196.88127233350318" y="200.48091056834267" transform="matrix(0.3283390998840332,0,0,0.3283390998840332,368.2048149108887,127.28538513183594)" svgjs:data="{&quot;leading&quot;:&quot;1.3&quot;}"><tspan dy="0" x="196.88127233350318" svgjs:data="{&quot;newLined&quot;:true}">player</tspan></text><image width="658" height="760" xlink:href="https://lct-designs.s3.us-west-1.amazonaws.com/assets/libs/adrenaline-1632996758185.png" class="asset" transform="matrix(0.050887420773506165,0,0,0.05088742077350617,435.909236907959,139.76031494140625)"></image><g class="mask" style="pointer-events: none;"><g><path fill="#BCBEC0" d="M-3642.4-2101.7v4589.1h7813.4v-4589.1H-3642.4z M500.5,67.2v233.3v66.7H0.5v-66.7V67.2V0.5h500V67.2z" transform="matrix(1,0,0,1,0,0)"></path><g transform="matrix(1,0,0,1,0,0)">
	<rect x="0.5" y="300.5" opacity="0.95" fill="#F1F2F2" width="500" height="66.7"></rect>
	<rect x="0.5" y="0.5" opacity="0.95" fill="#F1F2F2" width="500" height="66.7"></rect>
</g></g></g></svg>