<svg xmlns="http://www.w3.org/2000/svg" version="1.1" xmlns:xlink="http://www.w3.org/1999/xlink" xmlns:svgjs="http://svgjs.dev/svgjs" width="100%" height="100%" viewBox="1 1 499 365.70001220703125" preserveAspectRatio="none" data-info="{&quot;_id&quot;:4,&quot;name&quot;:&quot;POLE POCKET SOCCER BANNERS&quot;,&quot;information&quot;:&quot;- Size: 3’x5’\n- Material: heavy duty vinyl banner\n- Digitally printed on vinyl&quot;,&quot;price&quot;:&quot;95.00&quot;,&quot;sale_price&quot;:&quot;89.99&quot;,&quot;type&quot;:&quot;pole-pocket&quot;,&quot;cover&quot;:{&quot;key&quot;:&quot;assets/models/pole-1628062864266-1631924568908.png&quot;,&quot;url&quot;:&quot;https://lct-designs.s3.us-west-1.amazonaws.com/assets/models/pole-1628062864266-1631924568908.png&quot;},&quot;back&quot;:{&quot;key&quot;:&quot;assets/models/pole-1631924700152.svg&quot;,&quot;url&quot;:&quot;https://lct-designs.s3.us-west-1.amazonaws.com/assets/models/pole-1631924700152.svg&quot;},&quot;mask&quot;:{&quot;key&quot;:&quot;assets/models/pole-mask-1631925211715.svg&quot;,&quot;url&quot;:&quot;https://lct-designs.s3.us-west-1.amazonaws.com/assets/models/pole-mask-1631925211715.svg&quot;},&quot;pos&quot;:&quot;2&quot;,&quot;accessories&quot;:&quot;2,3&quot;}" style="background-color: white;"><g class="model" style="pointer-events: none;"><polygon fill="#FFFFFF" points="0.5,0.5 0.5,67.2 0.5,300.5 0.5,367.2 500.5,367.2 500.5,300.5 500.5,67.2 500.5,0.5 "></polygon></g><image width="760" height="557" xlink:href="https://lct-designs.s3.us-west-1.amazonaws.com/assets/libs/asset-5-1654134480884.png" class="asset background locked" transform="matrix(0.6583483163501459,0,0,0.6583483163501459,0,0)"></image><image width="760" height="421" xlink:href="https://lct-designs.s3.us-west-1.amazonaws.com/assets/libs/asset-1-1654134408934.png" class="asset" transform="matrix(0.35356515645980835,0,0,0.37761694192886347,125.4559555053711,99.15200805664062)"></image><image width="760" height="745" xlink:href="https://lct-designs.s3.us-west-1.amazonaws.com/assets/libs/asset-3-1654134408935.png" class="asset" transform="matrix(0.042356956750154495,0,0,0.042356956750154495,13.880325317382812,84.48336791992188)"></image><text fill="#ffffff" font-family="Antilles Expanded" font-size="45" stroke-opacity="1" stroke-width="2" stroke="#012747" x="182.95356848918402" y="199.63694780916364" transform="matrix(0.4940859079360962,0,0,0.49408590793609614,-38.722030639648466,11.58750152587892)" svgjs:data="{&quot;leading&quot;:&quot;1.3&quot;}"><tspan dy="0" x="182.95356848918402" svgjs:data="{&quot;newLined&quot;:true}">player</tspan></text><text fill="#ffffff" font-family="Antilles Expanded" font-size="45" stroke-opacity="1" stroke-width="2" stroke="#012747" x="182.95356848918402" y="199.63694780916364" transform="matrix(0.4940859079360962,0,0,0.49408590793609614,-35.83518981933594,60.3331298828125)" svgjs:data="{&quot;leading&quot;:&quot;1.3&quot;}"><tspan dy="0" x="182.95356848918402" svgjs:data="{&quot;newLined&quot;:true}">player</tspan></text><image width="760" height="745" xlink:href="https://lct-designs.s3.us-west-1.amazonaws.com/assets/libs/asset-3-1654134408935.png" class="asset" transform="matrix(0.04235704243183136,0,0,0.04235704243183136,16.767158508300753,133.2289886474609)"></image><text fill="#ffffff" font-family="Antilles Expanded" font-size="45" stroke-opacity="1" stroke-width="2" stroke="#012747" x="182.95356848918402" y="199.63694780916364" transform="matrix(0.49932533502578735,0,0,0.49408590793609614,-34.701908111572266,107.97087097167966)" svgjs:data="{&quot;leading&quot;:&quot;1.3&quot;}"><tspan dy="0" x="182.95356848918402" svgjs:data="{&quot;newLined&quot;:true}">player</tspan></text><image width="760" height="745" xlink:href="https://lct-designs.s3.us-west-1.amazonaws.com/assets/libs/asset-3-1654134408935.png" class="asset" transform="matrix(0.04280620813369751,0,0,0.04235704243183136,18.458248138427706,180.8667297363281)"></image><image width="760" height="745" xlink:href="https://lct-designs.s3.us-west-1.amazonaws.com/assets/libs/asset-3-1654134408935.png" class="asset" transform="matrix(0.042357008904218674,0,0,0.04235700890421867,69.85630798339841,216.8720397949219)"></image><text fill="#ffffff" font-family="Antilles Expanded" font-size="45" stroke-opacity="1" stroke-width="2" stroke="#012747" x="182.95356848918402" y="199.63694780916364" transform="matrix(0.4940859079360962,0,0,0.49408590793609614,17.253952026367188,143.97618103027344)" svgjs:data="{&quot;leading&quot;:&quot;1.3&quot;}"><tspan dy="0" x="182.95356848918402" svgjs:data="{&quot;newLined&quot;:true}">player</tspan></text><text fill="#ffffff" font-family="Antilles Expanded" font-size="45" stroke-opacity="1" stroke-width="2" stroke="#012747" x="182.95356848918402" y="199.63694780916364" transform="matrix(0.4940859079360962,0,0,0.49408590793609614,-33.678077697753906,184.96681213378903)" svgjs:data="{&quot;leading&quot;:&quot;1.3&quot;}"><tspan dy="0" x="182.95356848918402" svgjs:data="{&quot;newLined&quot;:true}">player</tspan></text><image width="760" height="745" xlink:href="https://lct-designs.s3.us-west-1.amazonaws.com/assets/libs/asset-3-1654134408935.png" class="asset" transform="matrix(0.042357008904218674,0,0,0.04235700890421867,18.924278259277344,257.8626708984375)"></image><text fill="#ffffff" font-family="Antilles Expanded" font-size="45" stroke-opacity="1" stroke-width="2" stroke="#012747" x="182.95356848918402" y="199.63694780916364" transform="matrix(0.4940859079360962,0,0,0.49408590793609614,85.99958038330078,184.96681213378903)" svgjs:data="{&quot;leading&quot;:&quot;1.3&quot;}"><tspan dy="0" x="182.95356848918402" svgjs:data="{&quot;newLined&quot;:true}">player</tspan></text><image width="760" height="745" xlink:href="https://lct-designs.s3.us-west-1.amazonaws.com/assets/libs/asset-3-1654134408935.png" class="asset" transform="matrix(0.04235702008008957,0,0,0.04235702008008957,138.6019287109375,257.8626708984375)"></image><image width="760" height="745" xlink:href="https://lct-designs.s3.us-west-1.amazonaws.com/assets/libs/asset-3-1654134408935.png" class="asset" transform="matrix(0.04235697165131569,0,0,0.04235697165131568,383.37928771972656,78.944091796875)"></image><text fill="#ffffff" font-family="Antilles Expanded" font-size="45" stroke-opacity="1" stroke-width="2" stroke="#012747" x="182.95356848918402" y="199.63694780916364" transform="matrix(0.4940859079360962,0,0,0.49408590793609614,330.7769317626953,6.048225402832031)" svgjs:data="{&quot;leading&quot;:&quot;1.3&quot;}"><tspan dy="0" x="182.95356848918402" svgjs:data="{&quot;newLined&quot;:true}">player</tspan></text><text fill="#ffffff" font-family="Antilles Expanded" font-size="45" stroke-opacity="1" stroke-width="2" stroke="#012747" x="182.95356848918402" y="199.63694780916364" transform="matrix(0.4940859079360962,0,0,0.49408590793609614,333.6637725830078,54.79385375976561)" svgjs:data="{&quot;leading&quot;:&quot;1.3&quot;}"><tspan dy="0" x="182.95356848918402" svgjs:data="{&quot;newLined&quot;:true}">player</tspan></text><image width="760" height="745" xlink:href="https://lct-designs.s3.us-west-1.amazonaws.com/assets/libs/asset-3-1654134408935.png" class="asset" transform="matrix(0.042357053607702255,0,0,0.04235705360770225,386.26612091064453,127.68971252441406)"></image><text fill="#ffffff" font-family="Antilles Expanded" font-size="45" stroke-opacity="1" stroke-width="2" stroke="#012747" x="182.95356848918402" y="199.63694780916364" transform="matrix(0.49932533502578735,0,0,0.49408590793609614,294.36035156249994,95.78446960449219)" svgjs:data="{&quot;leading&quot;:&quot;1.3&quot;}"><tspan dy="0" x="182.95356848918402" svgjs:data="{&quot;newLined&quot;:true}">player</tspan></text><image width="760" height="745" xlink:href="https://lct-designs.s3.us-west-1.amazonaws.com/assets/libs/asset-3-1654134408935.png" class="asset" transform="matrix(0.0428062342107296,0,0,0.04235707223415375,347.5205078125,168.68032836914057)"></image><image width="760" height="745" xlink:href="https://lct-designs.s3.us-west-1.amazonaws.com/assets/libs/asset-3-1654134408935.png" class="asset" transform="matrix(0.042806241661310196,0,0,0.042357083410024636,380.78546142578125,209.11703491210935)"></image><text fill="#ffffff" font-family="Antilles Expanded" font-size="45" stroke-opacity="1" stroke-width="2" stroke="#012747" x="182.95356848918402" y="199.63694780916364" transform="matrix(0.49932533502578735,0,0,0.49408590793609614,327.62530517578125,136.2211761474609)" svgjs:data="{&quot;leading&quot;:&quot;1.3&quot;}"><tspan dy="0" x="182.95356848918402" svgjs:data="{&quot;newLined&quot;:true}">player</tspan></text><image width="760" height="745" xlink:href="https://lct-designs.s3.us-west-1.amazonaws.com/assets/libs/asset-3-1654134408935.png" class="asset" transform="matrix(0.042806249111890786,0,0,0.04235709086060523,257.84283447265625,258.9704895019531)"></image><text fill="#ffffff" font-family="Antilles Expanded" font-size="45" stroke-opacity="1" stroke-width="2" stroke="#012747" x="182.95356848918402" y="199.63694780916364" transform="matrix(0.49932533502578735,0,0,0.49408590793609614,204.6826782226562,186.07463073730466)" svgjs:data="{&quot;leading&quot;:&quot;1.3&quot;}"><tspan dy="0" x="182.95356848918402" svgjs:data="{&quot;newLined&quot;:true}">player</tspan></text><text fill="#ffffff" font-family="Antilles Expanded" font-size="45" stroke-opacity="1" stroke-width="2" stroke="#012747" x="182.95356848918402" y="199.63694780916364" transform="matrix(0.49932533502578735,0,0,0.49408590793609614,325.46820068359375,184.96678161621094)" svgjs:data="{&quot;leading&quot;:&quot;1.3&quot;}"><tspan dy="0" x="182.95356848918402" svgjs:data="{&quot;newLined&quot;:true}">player</tspan></text><image width="760" height="745" xlink:href="https://lct-designs.s3.us-west-1.amazonaws.com/assets/libs/asset-3-1654134408935.png" class="asset" transform="matrix(0.04280625656247138,0,0,0.04235709831118583,378.62835693359375,257.8626403808594)"></image><text fill="#ffffff" font-family="Antilles Expanded" font-size="45" stroke-opacity="1" stroke-width="2" stroke="#012747" x="51.57074835978949" y="199.63694780916364" transform="matrix(0.5256064534187317,-0.07545885443687438,0.07545885443687439,0.5256064534187316,103.61195373535156,23.882230758666992)" svgjs:data="{&quot;leading&quot;:&quot;1.3&quot;}"><tspan dy="0" x="51.57074835978949" svgjs:data="{&quot;newLined&quot;:true}">coach:coach's name</tspan></text><g class="mask" style="pointer-events: none;"><g><path fill="#BCBEC0" d="M-3642.4-2101.7v4589.1h7813.4v-4589.1H-3642.4z M500.5,67.2v233.3v66.7H0.5v-66.7V67.2V0.5h500V67.2z" transform="matrix(1,0,0,1,0,0)"></path><g transform="matrix(1,0,0,1,0,0)">
	<rect x="0.5" y="300.5" opacity="0.95" fill="#F1F2F2" width="500" height="66.7"></rect>
	<rect x="0.5" y="0.5" opacity="0.95" fill="#F1F2F2" width="500" height="66.7"></rect>
</g></g></g></svg>