<svg xmlns="http://www.w3.org/2000/svg" version="1.1" xmlns:xlink="http://www.w3.org/1999/xlink" xmlns:svgjs="http://svgjs.dev/svgjs" width="100%" height="100%" viewBox="1 1 499 365.70001220703125" preserveAspectRatio="none" data-info="{&quot;_id&quot;:4,&quot;name&quot;:&quot;POLE POCKET SOCCER BANNERS&quot;,&quot;information&quot;:&quot;- Size: 3’x5’\n- Material: heavy duty vinyl banner\n- Digitally printed on vinyl&quot;,&quot;price&quot;:&quot;95.00&quot;,&quot;sale_price&quot;:&quot;89.99&quot;,&quot;type&quot;:&quot;pole-pocket&quot;,&quot;cover&quot;:{&quot;key&quot;:&quot;assets/models/pole-1628062864266-1631924568908.png&quot;,&quot;url&quot;:&quot;https://lct-designs.s3.us-west-1.amazonaws.com/assets/models/pole-1628062864266-1631924568908.png&quot;},&quot;back&quot;:{&quot;key&quot;:&quot;assets/models/pole-1631924700152.svg&quot;,&quot;url&quot;:&quot;https://lct-designs.s3.us-west-1.amazonaws.com/assets/models/pole-1631924700152.svg&quot;},&quot;mask&quot;:{&quot;key&quot;:&quot;assets/models/pole-mask-1631925211715.svg&quot;,&quot;url&quot;:&quot;https://lct-designs.s3.us-west-1.amazonaws.com/assets/models/pole-mask-1631925211715.svg&quot;},&quot;pos&quot;:&quot;2&quot;,&quot;accessories&quot;:&quot;2,3&quot;}" style="background-color: white;"><g class="model" style="pointer-events: none;"><polygon fill="#FFFFFF" points="0.5,0.5 0.5,67.2 0.5,300.5 0.5,367.2 500.5,367.2 500.5,300.5 500.5,67.2 500.5,0.5 "></polygon></g><image width="760" height="557" xlink:href="https://lct-designs.s3.us-west-1.amazonaws.com/assets/libs/asset-4-1653986501073.png" class="asset background locked" transform="matrix(0.6583483163501459,0,0,0.6583483163501459,0,0)"></image><image width="760" height="248" xlink:href="https://lct-designs.s3.us-west-1.amazonaws.com/assets/libs/whales-killer-2-1653386200127.png" class="asset" transform="matrix(0.3905868530273438,0,0,0.39058685302734375,33.896663665771484,124.20984649658206)"></image><text fill="#ffffff" font-family="American Captain" font-size="45" x="196.88588543811736" y="200.19087427705915" stroke-opacity="1" stroke-width="1" stroke="#000000" transform="matrix(0.4423660933971405,0,0,0.44236609339714045,312.9933166503906,79.90817260742188)" svgjs:data="{&quot;leading&quot;:&quot;1.3&quot;}"><tspan dy="0" x="196.88588543811736" svgjs:data="{&quot;newLined&quot;:true}">player</tspan></text><image width="754" height="760" xlink:href="https://lct-designs.s3.us-west-1.amazonaws.com/assets/libs/whales-killer-3-1653386230024.png" class="asset" transform="matrix(0.04910578578710556,0,0,0.04910578578710555,276.100830078125,101.33704376220703)"></image><text fill="#ffffff" font-family="American Captain" font-size="45" x="196.88588543811736" y="200.19087427705915" stroke-opacity="1" stroke-width="1" stroke="#000000" transform="matrix(0.44236597418785095,0,0,0.4423659741878509,232.64450073242188,38.91754341125488)" svgjs:data="{&quot;leading&quot;:&quot;1.3&quot;}"><tspan dy="0" x="196.88588543811736" svgjs:data="{&quot;newLined&quot;:true}">player</tspan></text><image width="754" height="760" xlink:href="https://lct-designs.s3.us-west-1.amazonaws.com/assets/libs/whales-killer-3-1653386230024.png" class="asset" transform="matrix(0.04910578578710556,0,0,0.04910578578710555,385.80780029296875,101.33702850341794)"></image><text fill="#ffffff" font-family="American Captain" font-size="45" x="196.88588543811736" y="200.19087427705915" stroke-opacity="1" stroke-width="1" stroke="#000000" transform="matrix(0.44236597418785095,0,0,0.4423659741878509,342.3514709472656,38.91757583618164)" svgjs:data="{&quot;leading&quot;:&quot;1.3&quot;}"><tspan dy="0" x="196.88588543811736" svgjs:data="{&quot;newLined&quot;:true}">player</tspan></text><image width="754" height="760" xlink:href="https://lct-designs.s3.us-west-1.amazonaws.com/assets/libs/whales-killer-3-1653386230024.png" class="asset" transform="matrix(0.04910578578710556,0,0,0.04910578578710555,166.45246887207026,100.7831115722656)"></image><text fill="#ffffff" font-family="American Captain" font-size="45" x="196.88588543811736" y="200.19087427705915" stroke-opacity="1" stroke-width="1" stroke="#000000" transform="matrix(0.4423659145832062,0,0,0.4423659145832061,122.99613952636713,38.36361122131348)" svgjs:data="{&quot;leading&quot;:&quot;1.3&quot;}"><tspan dy="0" x="196.88588543811736" svgjs:data="{&quot;newLined&quot;:true}">player</tspan></text><image width="754" height="760" xlink:href="https://lct-designs.s3.us-west-1.amazonaws.com/assets/libs/whales-killer-3-1653386230024.png" class="asset" transform="matrix(0.04910578578710556,0,0,0.04910578578710555,356.44964599609375,142.32768249511716)"></image><text fill="#ffffff" font-family="American Captain" font-size="45" x="196.88588543811736" y="200.19087427705915" stroke-opacity="1" stroke-width="1" stroke="#000000" transform="matrix(0.4423658847808838,0,0,0.44236588478088373,306.9294128417969,183.4927062988281)" svgjs:data="{&quot;leading&quot;:&quot;1.3&quot;}"><tspan dy="0" x="196.88588543811736" svgjs:data="{&quot;newLined&quot;:true}">player</tspan></text><image width="754" height="760" xlink:href="https://lct-designs.s3.us-west-1.amazonaws.com/assets/libs/whales-killer-3-1653386230024.png" class="asset" transform="matrix(0.04910578578710556,0,0,0.04910578578710555,350.3857421875,245.9121398925781)"></image><text fill="#ffffff" font-family="American Captain" font-size="45" x="196.88588543811736" y="200.19087427705915" stroke-opacity="1" stroke-width="1" stroke="#000000" transform="matrix(0.4423658847808838,0,0,0.44236588478088373,196.17318725585932,183.49269104003903)" svgjs:data="{&quot;leading&quot;:&quot;1.3&quot;}"><tspan dy="0" x="196.88588543811736" svgjs:data="{&quot;newLined&quot;:true}">player</tspan></text><image width="754" height="760" xlink:href="https://lct-designs.s3.us-west-1.amazonaws.com/assets/libs/whales-killer-3-1653386230024.png" class="asset" transform="matrix(0.04910578578710556,0,0,0.04910578578710555,239.62951660156244,245.91212463378903)"></image><text fill="#ffffff" font-family="American Captain" font-size="45" x="196.88588543811736" y="200.19087427705915" stroke-opacity="1" stroke-width="1" stroke="#000000" transform="matrix(0.4423658847808838,0,0,0.44236588478088373,79.877685546875,183.49269104003903)" svgjs:data="{&quot;leading&quot;:&quot;1.3&quot;}"><tspan dy="0" x="196.88588543811736" svgjs:data="{&quot;newLined&quot;:true}">player</tspan></text><image width="754" height="760" xlink:href="https://lct-designs.s3.us-west-1.amazonaws.com/assets/libs/whales-killer-3-1653386230024.png" class="asset" transform="matrix(0.04910578578710556,0,0,0.04910578578710555,123.33401489257807,245.91212463378903)"></image><text fill="#ffffff" font-family="American Captain" font-size="45" x="196.88588543811736" y="200.19087427705915" stroke-opacity="1" stroke-width="1" stroke="#000000" transform="matrix(0.4423658847808838,0,0,0.44236588478088373,-22.015670776367216,183.4927062988281)" svgjs:data="{&quot;leading&quot;:&quot;1.3&quot;}"><tspan dy="0" x="196.88588543811736" svgjs:data="{&quot;newLined&quot;:true}">player</tspan></text><image width="754" height="760" xlink:href="https://lct-designs.s3.us-west-1.amazonaws.com/assets/libs/whales-killer-3-1653386230024.png" class="asset" transform="matrix(0.04910578578710556,0,0,0.04910578578710555,21.44065856933591,245.91210937499997)"></image><image width="754" height="760" xlink:href="https://lct-designs.s3.us-west-1.amazonaws.com/assets/libs/whales-killer-3-1653386230024.png" class="asset" transform="matrix(0.04910578578710556,0,0,0.04910578578710555,284.9929809570312,195.50471496582028)"></image><text fill="#ffffff" font-family="American Captain" font-size="45" x="196.88588543811736" y="200.19087427705915" stroke-opacity="1" stroke-width="1" stroke="#000000" transform="matrix(0.4423660337924957,0,0,0.44236603379249567,241.53665161132807,133.08521461486816)" svgjs:data="{&quot;leading&quot;:&quot;1.3&quot;}"><tspan dy="0" x="196.88588543811736" svgjs:data="{&quot;newLined&quot;:true}">player</tspan></text><image width="754" height="760" xlink:href="https://lct-designs.s3.us-west-1.amazonaws.com/assets/libs/whales-killer-3-1653386230024.png" class="asset" transform="matrix(0.04910578578710556,0,0,0.04910578578710555,394.699951171875,195.50469970703122)"></image><text fill="#ffffff" font-family="American Captain" font-size="45" x="196.88588543811736" y="200.19087427705915" stroke-opacity="1" stroke-width="1" stroke="#000000" transform="matrix(0.44236597418785095,0,0,0.4423659741878509,351.2436218261719,133.08524703979492)" svgjs:data="{&quot;leading&quot;:&quot;1.3&quot;}"><tspan dy="0" x="196.88588543811736" svgjs:data="{&quot;newLined&quot;:true}">player</tspan></text><text fill="#ffffff" font-family="American Captain" font-size="45" stroke-opacity="1" stroke-width="1" stroke="#000000" x="47.97454169475043" y="200.19087427705915" transform="matrix(0.4414453506469726,0,0,0.4414453506469726,-14.748160362243652,5.187347412109389)" svgjs:data="{&quot;leading&quot;:&quot;1.3&quot;}"><tspan dy="0" x="47.97454169475043" svgjs:data="{&quot;newLined&quot;:true}">coach:coach's name</tspan></text><text fill="#ffffff" font-family="American Captain" font-size="45" stroke-opacity="1" stroke-width="1" stroke="#000000" x="47.97454169475043" y="200.19087427705915" transform="matrix(0.4414453506469726,0,0,0.4414453506469726,357.5204772949219,2.4177117347717285)" svgjs:data="{&quot;leading&quot;:&quot;1.3&quot;}"><tspan dy="0" x="47.97454169475043" svgjs:data="{&quot;newLined&quot;:true}">team mom:name</tspan></text><g class="mask" style="pointer-events: none;"><g><path fill="#BCBEC0" d="M-3642.4-2101.7v4589.1h7813.4v-4589.1H-3642.4z M500.5,67.2v233.3v66.7H0.5v-66.7V67.2V0.5h500V67.2z" transform="matrix(1,0,0,1,0,0)"></path><g transform="matrix(1,0,0,1,0,0)">
	<rect x="0.5" y="300.5" opacity="0.95" fill="#F1F2F2" width="500" height="66.7"></rect>
	<rect x="0.5" y="0.5" opacity="0.95" fill="#F1F2F2" width="500" height="66.7"></rect>
</g></g></g></svg>