<svg xmlns="http://www.w3.org/2000/svg" version="1.1" xmlns:xlink="http://www.w3.org/1999/xlink" xmlns:svgjs="http://svgjs.dev/svgjs" width="100%" height="100%" viewBox="1 1 499 365.70001220703125" preserveAspectRatio="none" data-info="{&quot;_id&quot;:4,&quot;name&quot;:&quot;POLE POCKET SOCCER BANNERS&quot;,&quot;information&quot;:&quot;- Size: 3’x5’\n- Material: heavy duty vinyl banner\n- Digitally printed on vinyl&quot;,&quot;price&quot;:&quot;95.00&quot;,&quot;sale_price&quot;:&quot;89.99&quot;,&quot;type&quot;:&quot;pole-pocket&quot;,&quot;cover&quot;:{&quot;key&quot;:&quot;assets/models/pole-1628062864266-1631924568908.png&quot;,&quot;url&quot;:&quot;https://lct-designs.s3.us-west-1.amazonaws.com/assets/models/pole-1628062864266-1631924568908.png&quot;},&quot;back&quot;:{&quot;key&quot;:&quot;assets/models/pole-1631924700152.svg&quot;,&quot;url&quot;:&quot;https://lct-designs.s3.us-west-1.amazonaws.com/assets/models/pole-1631924700152.svg&quot;},&quot;mask&quot;:{&quot;key&quot;:&quot;assets/models/pole-mask-1631925211715.svg&quot;,&quot;url&quot;:&quot;https://lct-designs.s3.us-west-1.amazonaws.com/assets/models/pole-mask-1631925211715.svg&quot;},&quot;pos&quot;:&quot;2&quot;,&quot;accessories&quot;:&quot;2,3&quot;}" style="background-color: white;"><g class="model" style="pointer-events: none;"><polygon fill="#FFFFFF" points="0.5,0.5 0.5,67.2 0.5,300.5 0.5,367.2 500.5,367.2 500.5,300.5 500.5,67.2 500.5,0.5 "></polygon></g><image width="760" height="558" xlink:href="https://lct-designs.s3.us-west-1.amazonaws.com/assets/libs/tinkerbells-1-1652435481775.png" class="asset background locked" transform="matrix(1,0,0,1,0,0)"></image><image width="760" height="207" xlink:href="https://lct-designs.s3.us-west-1.amazonaws.com/assets/libs/tinkerbells-3-1652435633995.png" class="asset" transform="matrix(0.4755028784275055,0,0,0.4260166585445404,33.262786865234375,83.50753021240236)"></image><image width="507" height="760" xlink:href="https://lct-designs.s3.us-west-1.amazonaws.com/assets/libs/asset-2-1654219533889.png" class="asset" transform="matrix(0.19938889145851135,0,0,0.19938889145851135,390.3914794921874,145.24298095703125)"></image><image width="760" height="638" xlink:href="https://lct-designs.s3.us-west-1.amazonaws.com/assets/libs/asset-4-1654219854280.png" class="asset" transform="matrix(0.06056183079196754,0,0,0.06412409245967865,16.15443656230434,177.05528259277344)"></image><text fill="#ffffff" font-family="Foo" font-size="45" x="181.36434013271608" y="197.97290976196862" stroke-opacity="1" stroke-width="2" stroke="#056000" transform="matrix(0.45957067580658695,0,0,0.48660281300544744,-19.048282552506976,107.83567047119142)" svgjs:data="{&quot;leading&quot;:&quot;1.3&quot;}"><tspan dy="0" x="181.36434013271608" svgjs:data="{&quot;newLined&quot;:true}">Player</tspan></text><image width="760" height="638" xlink:href="https://lct-designs.s3.us-west-1.amazonaws.com/assets/libs/asset-4-1654219854280.png" class="asset" transform="matrix(0.06056183576583862,0,0,0.06412409245967865,33.60249710083008,218.66421508789068)"></image><text fill="#ffffff" font-family="Foo" font-size="45" x="181.36434013271608" y="197.97290976196862" stroke-opacity="1" stroke-width="2" stroke="#056000" transform="matrix(0.4595707654953003,0,0,0.4866029918193817,-1.6002231836319254,149.44459533691406)" svgjs:data="{&quot;leading&quot;:&quot;1.3&quot;}"><tspan dy="0" x="181.36434013271608" svgjs:data="{&quot;newLined&quot;:true}">Player</tspan></text><image width="760" height="638" xlink:href="https://lct-designs.s3.us-west-1.amazonaws.com/assets/libs/asset-4-1654219854280.png" class="asset" transform="matrix(0.06056183576583862,0,0,0.06412409245967865,158.18778991699213,219.10220336914062)"></image><text fill="#ffffff" font-family="Foo" font-size="45" x="181.36434013271608" y="197.97290976196862" stroke-opacity="1" stroke-width="2" stroke="#056000" transform="matrix(0.4595709443092346,0,0,0.4866032004356385,122.98506164550778,149.88259887695312)" svgjs:data="{&quot;leading&quot;:&quot;1.3&quot;}"><tspan dy="0" x="181.36434013271608" svgjs:data="{&quot;newLined&quot;:true}">Player</tspan></text><image width="760" height="638" xlink:href="https://lct-designs.s3.us-west-1.amazonaws.com/assets/libs/asset-4-1654219854280.png" class="asset" transform="matrix(0.06056183576583862,0,0,0.06412409245967865,284.81719970703125,217.1200408935547)"></image><text fill="#ffffff" font-family="Foo" font-size="45" x="181.36434013271608" y="197.97290976196862" stroke-opacity="1" stroke-width="2" stroke="#056000" transform="matrix(0.4595710337162018,0,0,0.48660331964492803,249.61447143554688,147.9004364013672)" svgjs:data="{&quot;leading&quot;:&quot;1.3&quot;}"><tspan dy="0" x="181.36434013271608" svgjs:data="{&quot;newLined&quot;:true}">Player</tspan></text><image width="760" height="638" xlink:href="https://lct-designs.s3.us-west-1.amazonaws.com/assets/libs/asset-4-1654219854280.png" class="asset" transform="matrix(0.06056183079196754,0,0,0.06412409245967865,140.73972393649547,177.49327087402344)"></image><text fill="#ffffff" font-family="Foo" font-size="45" x="181.36434013271608" y="197.97290976196862" stroke-opacity="1" stroke-width="2" stroke="#056000" transform="matrix(0.45957082509994507,0,0,0.4866030216217041,105.04145812988281,108.27365875244138)" svgjs:data="{&quot;leading&quot;:&quot;1.3&quot;}"><tspan dy="0" x="181.36434013271608" svgjs:data="{&quot;newLined&quot;:true}">Player</tspan></text><image width="760" height="638" xlink:href="https://lct-designs.s3.us-west-1.amazonaws.com/assets/libs/asset-4-1654219854280.png" class="asset" transform="matrix(0.06056183079196754,0,0,0.06412409245967865,267.3691350647787,175.5111083984375)"></image><text fill="#ffffff" font-family="Foo" font-size="45" x="181.36434013271608" y="197.97290976196862" stroke-opacity="1" stroke-width="2" stroke="#056000" transform="matrix(0.4595708695320475,0,0,0.48660308122634893,232.16640886515052,106.29149627685548)" svgjs:data="{&quot;leading&quot;:&quot;1.3&quot;}"><tspan dy="0" x="181.36434013271608" svgjs:data="{&quot;newLined&quot;:true}">Player</tspan></text><image width="760" height="638" xlink:href="https://lct-designs.s3.us-west-1.amazonaws.com/assets/libs/asset-4-1654219854280.png" class="asset" transform="matrix(0.06056183576583862,0,0,0.06412409245967865,106.24522399902344,255.27665710449213)"></image><text fill="#ffffff" font-family="Foo" font-size="45" x="181.36434013271608" y="197.97290976196862" stroke-opacity="1" stroke-width="2" stroke="#056000" transform="matrix(0.4595709443092346,0,0,0.48660331964492803,71.04249572753906,186.0570526123047)" svgjs:data="{&quot;leading&quot;:&quot;1.3&quot;}"><tspan dy="0" x="181.36434013271608" svgjs:data="{&quot;newLined&quot;:true}">Player</tspan></text><image width="760" height="638" xlink:href="https://lct-designs.s3.us-west-1.amazonaws.com/assets/libs/asset-4-1654219854280.png" class="asset" transform="matrix(0.06056183576583862,0,0,0.06412409245967865,232.8746337890625,253.29449462890625)"></image><text fill="#ffffff" font-family="Foo" font-size="45" x="181.36434013271608" y="197.97290976196862" stroke-opacity="1" stroke-width="2" stroke="#056000" transform="matrix(0.45957109332084656,0,0,0.48660337924957275,197.67190551757807,184.07489013671875)" svgjs:data="{&quot;leading&quot;:&quot;1.3&quot;}"><tspan dy="0" x="181.36434013271608" svgjs:data="{&quot;newLined&quot;:true}">Player</tspan></text><g class="mask" style="pointer-events: none;"><g><path fill="#BCBEC0" d="M-3642.4-2101.7v4589.1h7813.4v-4589.1H-3642.4z M500.5,67.2v233.3v66.7H0.5v-66.7V67.2V0.5h500V67.2z" transform="matrix(1,0,0,1,0,0)"></path><g transform="matrix(1,0,0,1,0,0)">
	<rect x="0.5" y="300.5" opacity="0.95" fill="#F1F2F2" width="500" height="66.7"></rect>
	<rect x="0.5" y="0.5" opacity="0.95" fill="#F1F2F2" width="500" height="66.7"></rect>
</g></g></g><text fill="#ffffff" font-family="Foo" font-size="45" stroke-opacity="1" stroke-width="2" stroke="#056000" x="57.62631065273561" y="197.97290976196862" transform="matrix(0.3153128921985626,0,0,0.3579171299934387,-13.071311891078963,11.013422012329102)" svgjs:data="{&quot;leading&quot;:&quot;1.3&quot;}"><tspan dy="0" x="57.62631065273561" svgjs:data="{&quot;newLined&quot;:true}">coach:coach's name</tspan></text><text fill="#ffffff" font-family="Foo" font-size="45" stroke-opacity="1" stroke-width="2" stroke="#056000" x="57.62631065273561" y="197.97290976196862" transform="matrix(0.3153128921985626,0,0,0.3579171299934387,378.4949036240578,11.013426780700684)" svgjs:data="{&quot;leading&quot;:&quot;1.3&quot;}"><tspan dy="0" x="57.62631065273561" svgjs:data="{&quot;newLined&quot;:true}">team mom: name</tspan></text></svg>