<svg xmlns="http://www.w3.org/2000/svg" version="1.1" xmlns:xlink="http://www.w3.org/1999/xlink" xmlns:svgjs="http://svgjs.dev/svgjs" width="100%" height="100%" viewBox="1 1 499 365.70001220703125" preserveAspectRatio="none" data-info="{&quot;_id&quot;:4,&quot;name&quot;:&quot;POLE POCKET SOCCER BANNERS&quot;,&quot;information&quot;:&quot;- Size: 3’x5’\n- Material: heavy duty vinyl banner\n- Digitally printed on vinyl&quot;,&quot;price&quot;:&quot;95.00&quot;,&quot;sale_price&quot;:&quot;89.99&quot;,&quot;type&quot;:&quot;pole-pocket&quot;,&quot;cover&quot;:{&quot;key&quot;:&quot;assets/models/pole-1628062864266-1631924568908.png&quot;,&quot;url&quot;:&quot;https://lct-designs.s3.us-west-1.amazonaws.com/assets/models/pole-1628062864266-1631924568908.png&quot;},&quot;back&quot;:{&quot;key&quot;:&quot;assets/models/pole-1631924700152.svg&quot;,&quot;url&quot;:&quot;https://lct-designs.s3.us-west-1.amazonaws.com/assets/models/pole-1631924700152.svg&quot;},&quot;mask&quot;:{&quot;key&quot;:&quot;assets/models/pole-mask-1631925211715.svg&quot;,&quot;url&quot;:&quot;https://lct-designs.s3.us-west-1.amazonaws.com/assets/models/pole-mask-1631925211715.svg&quot;},&quot;pos&quot;:&quot;2&quot;,&quot;accessories&quot;:&quot;2,3&quot;}" style="background-color: white;"><g class="model" style="pointer-events: none;"><polygon fill="#FFFFFF" points="0.5,0.5 0.5,67.2 0.5,300.5 0.5,367.2 500.5,367.2 500.5,300.5 500.5,67.2 500.5,0.5 "></polygon></g><image width="760" height="556" xlink:href="https://lct-designs.s3.us-west-1.amazonaws.com/assets/libs/spartans--5-1652349212843.png" class="asset background locked" transform="matrix(0.6595323960558116,0,0,0.6595323960558116,0,0)"></image><image width="760" height="600" xlink:href="https://lct-designs.s3.us-west-1.amazonaws.com/assets/libs/spartans--2-1652349289588.png" class="asset locked" transform="matrix(0.26619794964790344,0,0,0.26619794964790344,289.5812072753906,103.49359130859375)"></image><text fill="#b92027" font-family="American Captain" font-size="45" stroke-opacity="1" stroke-width="2" stroke="#1d204c" x="129.75457805827952" y="200.20285593510073" transform="matrix(0.4616085886955262,0,0,0.3612301349639893,275.44906616210943,208.62049865722653)" svgjs:data="{&quot;leading&quot;:&quot;1.3&quot;}"><tspan dy="0" x="129.75457805827952" svgjs:data="{&quot;newLined&quot;:true}">Team mom: name</tspan></text><text fill="#b92027" font-family="American Captain" font-size="45" stroke-opacity="1" stroke-width="1" stroke="#ffffff" x="101.5861896915803" y="200.20285593510073" transform="matrix(0.4143208861351014,0,0,0.333808720111847,-36.14239120483397,18.57977294921875)" svgjs:data="{&quot;leading&quot;:&quot;1.3&quot;}"><tspan dy="0" x="101.5861896915803" svgjs:data="{&quot;newLined&quot;:true}">Coach:coach's name</tspan></text><g class="mask" style="pointer-events: none;"><g><path fill="#BCBEC0" d="M-3642.4-2101.7v4589.1h7813.4v-4589.1H-3642.4z M500.5,67.2v233.3v66.7H0.5v-66.7V67.2V0.5h500V67.2z" transform="matrix(1,0,0,1,0,0)"></path><g transform="matrix(1,0,0,1,0,0)">
	<rect x="0.5" y="300.5" opacity="0.95" fill="#F1F2F2" width="500" height="66.7"></rect>
	<rect x="0.5" y="0.5" opacity="0.95" fill="#F1F2F2" width="500" height="66.7"></rect>
</g></g></g><image width="760" height="735" xlink:href="https://lct-designs.s3.us-west-1.amazonaws.com/assets/libs/spartans--1-1652349390017.png" class="asset" transform="matrix(0.04600616171956063,0,0,0.04600616171956063,113.9128341674805,100.80244445800781)"></image><text fill="#b92027" font-family="American Captain" font-size="45" stroke-opacity="1" stroke-width="1" stroke="#000000" x="196.88483852580882" y="200.20285593510073" transform="matrix(0.3767529129981995,0,0,0.37675291299819946,36.97951889038086,77.81060791015625)" svgjs:data="{&quot;leading&quot;:&quot;1.3&quot;}"><tspan dy="0" x="196.88483852580882" svgjs:data="{&quot;newLined&quot;:true}">Player</tspan></text><image width="760" height="735" xlink:href="https://lct-designs.s3.us-west-1.amazonaws.com/assets/libs/spartans--1-1652349390017.png" class="asset" transform="matrix(0.046006172895431525,0,0,0.04600617289543152,167.01629638671875,100.80244445800781)"></image><text fill="#b92027" font-family="American Captain" font-size="45" stroke-opacity="1" stroke-width="1" stroke="#000000" x="196.88483852580882" y="200.20285593510073" transform="matrix(0.37675294280052185,0,0,0.37675294280052185,90.08298492431643,77.81060791015625)" svgjs:data="{&quot;leading&quot;:&quot;1.3&quot;}"><tspan dy="0" x="196.88483852580882" svgjs:data="{&quot;newLined&quot;:true}">Player</tspan></text><image width="760" height="735" xlink:href="https://lct-designs.s3.us-west-1.amazonaws.com/assets/libs/spartans--1-1652349390017.png" class="asset" transform="matrix(0.046006172895431525,0,0,0.04600617289543152,218.28799438476568,101.24066162109378)"></image><text fill="#b92027" font-family="American Captain" font-size="45" stroke-opacity="1" stroke-width="1" stroke="#000000" x="196.88483852580882" y="200.20285593510073" transform="matrix(0.37675294280052185,0,0,0.37675294280052185,141.3546752929688,78.24882507324219)" svgjs:data="{&quot;leading&quot;:&quot;1.3&quot;}"><tspan dy="0" x="196.88483852580882" svgjs:data="{&quot;newLined&quot;:true}">Player</tspan></text><text fill="#b92027" font-family="American Captain" font-size="45" stroke-opacity="1" stroke-width="1" stroke="#000000" x="196.88483852580882" y="200.20285593510073" transform="matrix(0.3767532110214234,0,0,0.3767532110214234,194.4581298828125,78.24882507324219)" svgjs:data="{&quot;leading&quot;:&quot;1.3&quot;}"><tspan dy="0" x="196.88483852580882" svgjs:data="{&quot;newLined&quot;:true}">Player</tspan></text><image width="760" height="735" xlink:href="https://lct-designs.s3.us-west-1.amazonaws.com/assets/libs/spartans--1-1652349390017.png" class="asset" transform="matrix(0.04600618779659271,0,0,0.04600618779659271,136.30137634277344,165.7182312011719)"></image><text fill="#b92027" font-family="American Captain" font-size="45" stroke-opacity="1" stroke-width="1" stroke="#000000" x="196.88483852580882" y="200.20285593510073" transform="matrix(0.3767529129981995,0,0,0.37675291299819946,59.36804962158203,142.72640991210938)" svgjs:data="{&quot;leading&quot;:&quot;1.3&quot;}"><tspan dy="0" x="196.88483852580882" svgjs:data="{&quot;newLined&quot;:true}">Player</tspan></text><image width="760" height="735" xlink:href="https://lct-designs.s3.us-west-1.amazonaws.com/assets/libs/spartans--1-1652349390017.png" class="asset" transform="matrix(0.046006198972463615,0,0,0.04600619897246361,249.10070800781256,166.6519927978516)"></image><image width="760" height="735" xlink:href="https://lct-designs.s3.us-west-1.amazonaws.com/assets/libs/spartans--1-1652349390017.png" class="asset" transform="matrix(0.04600621759891511,0,0,0.04600621759891511,190.89144897460943,166.21377563476565)"></image><text fill="#b92027" font-family="American Captain" font-size="45" stroke-opacity="1" stroke-width="1" stroke="#000000" x="196.88483852580882" y="200.20285593510073" transform="matrix(0.37675294280052185,0,0,0.37675294280052185,113.95813751220706,143.22195434570315)" svgjs:data="{&quot;leading&quot;:&quot;1.3&quot;}"><tspan dy="0" x="196.88483852580882" svgjs:data="{&quot;newLined&quot;:true}">Player</tspan></text><text fill="#b92027" font-family="American Captain" font-size="45" stroke-opacity="1" stroke-width="1" stroke="#000000" x="196.88483852580882" y="200.20285593510073" transform="matrix(0.37675294280052185,0,0,0.37675294280052185,172.16738891601568,143.66015625)" svgjs:data="{&quot;leading&quot;:&quot;1.3&quot;}"><tspan dy="0" x="196.88483852580882" svgjs:data="{&quot;newLined&quot;:true}">Player</tspan></text><image width="760" height="735" xlink:href="https://lct-designs.s3.us-west-1.amazonaws.com/assets/libs/spartans--1-1652349390017.png" class="asset" transform="matrix(0.04600621014833451,0,0,0.04600621014833451,116.87197875976562,230.08119201660153)"></image><text fill="#b92027" font-family="American Captain" font-size="45" stroke-opacity="1" stroke-width="1" stroke="#000000" x="196.88483852580882" y="200.20285593510073" transform="matrix(0.3767534196376801,0,0,0.37675341963768005,39.93865966796878,207.08935546874997)" svgjs:data="{&quot;leading&quot;:&quot;1.3&quot;}"><tspan dy="0" x="196.88483852580882" svgjs:data="{&quot;newLined&quot;:true}">Player</tspan></text><image width="760" height="735" xlink:href="https://lct-designs.s3.us-west-1.amazonaws.com/assets/libs/spartans--1-1652349390017.png" class="asset" transform="matrix(0.046006232500076294,0,0,0.0460062325000763,179.39927673339844,230.08119201660153)"></image><text fill="#b92027" font-family="American Captain" font-size="45" stroke-opacity="1" stroke-width="1" stroke="#000000" x="196.88483852580882" y="200.20285593510073" transform="matrix(0.3767534196376801,0,0,0.37675341963768005,102.46595764160159,207.08935546874997)" svgjs:data="{&quot;leading&quot;:&quot;1.3&quot;}"><tspan dy="0" x="196.88483852580882" svgjs:data="{&quot;newLined&quot;:true}">Player</tspan></text><image width="760" height="735" xlink:href="https://lct-designs.s3.us-west-1.amazonaws.com/assets/libs/spartans--1-1652349390017.png" class="asset" transform="matrix(0.046006243675947196,0,0,0.04600624367594719,241.43104553222656,229.58564758300784)"></image><text fill="#b92027" font-family="American Captain" font-size="45" stroke-opacity="1" stroke-width="1" stroke="#000000" x="196.88483852580882" y="200.20285593510073" transform="matrix(0.3767534196376801,0,0,0.37675341963768005,164.4977264404297,206.59381103515628)" svgjs:data="{&quot;leading&quot;:&quot;1.3&quot;}"><tspan dy="0" x="196.88483852580882" svgjs:data="{&quot;newLined&quot;:true}">Player</tspan></text><image width="760" height="735" xlink:href="https://lct-designs.s3.us-west-1.amazonaws.com/assets/libs/spartans--1-1652349390017.png" class="asset" transform="matrix(0.04600616917014122,0,0,0.04600616917014122,271.39144897460943,101.24066162109378)"></image><image width="400" height="760" xlink:href="https://lct-designs.s3.us-west-1.amazonaws.com/assets/libs/spartans--3-1652349373757.png" class="asset locked" transform="matrix(0.24959431588649753,0,0,0.24959431588649753,10.601756095886259,101.1398696899414)"></image></svg>