<svg xmlns="http://www.w3.org/2000/svg" version="1.1" xmlns:xlink="http://www.w3.org/1999/xlink" xmlns:svgjs="http://svgjs.dev/svgjs" width="100%" height="100%" viewBox="1 1 499 365.70001220703125" preserveAspectRatio="none" data-info="{&quot;_id&quot;:4,&quot;name&quot;:&quot;POLE POCKET SOCCER BANNERS&quot;,&quot;information&quot;:&quot;- Size: 3’x5’\n- Material: heavy duty vinyl banner\n- Digitally printed on vinyl&quot;,&quot;price&quot;:&quot;95.00&quot;,&quot;sale_price&quot;:&quot;89.99&quot;,&quot;type&quot;:&quot;pole-pocket&quot;,&quot;cover&quot;:{&quot;key&quot;:&quot;assets/models/pole-1628062864266-1631924568908.png&quot;,&quot;url&quot;:&quot;https://lct-designs.s3.us-west-1.amazonaws.com/assets/models/pole-1628062864266-1631924568908.png&quot;},&quot;back&quot;:{&quot;key&quot;:&quot;assets/models/pole-1631924700152.svg&quot;,&quot;url&quot;:&quot;https://lct-designs.s3.us-west-1.amazonaws.com/assets/models/pole-1631924700152.svg&quot;},&quot;mask&quot;:{&quot;key&quot;:&quot;assets/models/pole-mask-1631925211715.svg&quot;,&quot;url&quot;:&quot;https://lct-designs.s3.us-west-1.amazonaws.com/assets/models/pole-mask-1631925211715.svg&quot;},&quot;pos&quot;:&quot;2&quot;,&quot;accessories&quot;:&quot;2,3&quot;}" style="background-color: white;"><g class="model" style="pointer-events: none;"><polygon fill="#FFFFFF" points="0.5,0.5 0.5,67.2 0.5,300.5 0.5,367.2 500.5,367.2 500.5,300.5 500.5,67.2 500.5,0.5 "></polygon></g><image width="760" height="553" xlink:href="https://lct-designs.s3.us-west-1.amazonaws.com/assets/libs/hot-rods-1631961709319.png" class="asset background locked" transform="matrix(0.6631103294883024,0,0,0.6631103294883024,0,0)"></image><text fill="#fcdcb9" font-family="UTM Rockwell" font-size="50" stroke-opacity="1" stroke-width="1" stroke="#000000" x="-98.72634249947717" y="199.47500657859518" transform="matrix(0.20904400944709775,0,0,0.20904400944709778,463.1312866210937,83.04624176025392)" svgjs:data="{&quot;leading&quot;:&quot;1.3&quot;}"><tspan dy="0" x="-98.72634249947717" svgjs:data="{&quot;newLined&quot;:true}">PLAYER</tspan></text><image width="760" height="760" xlink:href="https://lct-designs.s3.us-west-1.amazonaws.com/assets/libs/hot-rods-2-1631961569855.png" class="asset" transform="matrix(0.04546532779932022,0,0,0.04546532779932023,449.4110412597656,80.3394012451172)"></image><text fill="#fcdcb9" font-family="UTM Rockwell" font-size="50" stroke-opacity="1" stroke-width="1" stroke="#000000" x="-98.72634249947717" y="199.47500657859518" transform="matrix(0.20904400944709775,0,0,0.20904400944709778,438.7486267089844,158.19847106933594)" svgjs:data="{&quot;leading&quot;:&quot;1.3&quot;}"><tspan dy="0" x="-98.72634249947717" svgjs:data="{&quot;newLined&quot;:true}">PLAYER</tspan></text><text fill="#fcdcb9" font-family="UTM Rockwell" font-size="50" stroke-opacity="1" stroke-width="1" stroke="#000000" x="-98.72634249947717" y="199.47500657859518" transform="matrix(0.20904400944709775,0,0,0.20904400944709778,398.7508850097656,99.22483825683595)" svgjs:data="{&quot;leading&quot;:&quot;1.3&quot;}"><tspan dy="0" x="-98.72634249947717" svgjs:data="{&quot;newLined&quot;:true}">PLAYER</tspan></text><image width="760" height="760" xlink:href="https://lct-designs.s3.us-west-1.amazonaws.com/assets/libs/hot-rods-2-1631961569855.png" class="asset" transform="matrix(0.04546535387635231,0,0,0.04546535387635231,385.0306701660156,96.5180130004883)"></image><image width="760" height="760" xlink:href="https://lct-designs.s3.us-west-1.amazonaws.com/assets/libs/hot-rods-2-1631961569855.png" class="asset" transform="matrix(0.04546535387635231,0,0,0.04546535387635231,425.02838134765625,155.49163818359375)"></image><text fill="#fcdcb9" font-family="UTM Rockwell" font-size="50" stroke-opacity="1" stroke-width="1" stroke="#000000" x="-98.72634249947717" y="199.47500657859518" transform="matrix(0.20904400944709775,0,0,0.20904400944709778,441.964111328125,229.7272186279297)" svgjs:data="{&quot;leading&quot;:&quot;1.3&quot;}"><tspan dy="0" x="-98.72634249947717" svgjs:data="{&quot;newLined&quot;:true}">PLAYER</tspan></text><image width="760" height="760" xlink:href="https://lct-designs.s3.us-west-1.amazonaws.com/assets/libs/hot-rods-2-1631961569855.png" class="asset" transform="matrix(0.04546538367867469,0,0,0.0454653836786747,428.243896484375,227.02040100097656)"></image><text fill="#fcdcb9" font-family="UTM Rockwell" font-size="50" stroke-opacity="1" stroke-width="1" stroke="#000000" x="-98.72634249947717" y="199.47500657859518" transform="matrix(0.20904400944709775,0,0,0.20904400944709778,48.79274368286133,229.72723388671875)" svgjs:data="{&quot;leading&quot;:&quot;1.3&quot;}"><tspan dy="0" x="-98.72634249947717" svgjs:data="{&quot;newLined&quot;:true}">PLAYER</tspan></text><image width="760" height="760" xlink:href="https://lct-designs.s3.us-west-1.amazonaws.com/assets/libs/hot-rods-2-1631961569855.png" class="asset" transform="matrix(0.045465387403964996,0,0,0.045465387403965,35.0725212097168,227.02038574218744)"></image><text fill="#fcdcb9" font-family="UTM Rockwell" font-size="50" stroke-opacity="1" stroke-width="1" stroke="#000000" x="-98.72634249947717" y="199.47500657859518" transform="matrix(0.20904400944709775,0,0,0.20904400944709778,147.76405334472653,229.72723388671875)" svgjs:data="{&quot;leading&quot;:&quot;1.3&quot;}"><tspan dy="0" x="-98.72634249947717" svgjs:data="{&quot;newLined&quot;:true}">PLAYER</tspan></text><text fill="#fcdcb9" font-family="UTM Rockwell" font-size="50" stroke-opacity="1" stroke-width="1" stroke="#000000" x="-98.72634249947717" y="199.47500657859518" transform="matrix(0.20904400944709775,0,0,0.20904400944709778,237.34132385253906,229.72723388671875)" svgjs:data="{&quot;leading&quot;:&quot;1.3&quot;}"><tspan dy="0" x="-98.72634249947717" svgjs:data="{&quot;newLined&quot;:true}">PLAYER</tspan></text><text fill="#fcdcb9" font-family="UTM Rockwell" font-size="50" stroke-opacity="1" stroke-width="1" stroke="#000000" x="-98.72634249947717" y="199.47500657859518" transform="matrix(0.20904400944709775,0,0,0.20904400944709778,341.0096435546875,229.7272491455078)" svgjs:data="{&quot;leading&quot;:&quot;1.3&quot;}"><tspan dy="0" x="-98.72634249947717" svgjs:data="{&quot;newLined&quot;:true}">PLAYER</tspan></text><image width="760" height="760" xlink:href="https://lct-designs.s3.us-west-1.amazonaws.com/assets/libs/hot-rods-2-1631961569855.png" class="asset" transform="matrix(0.04546540230512619,0,0,0.04546540230512619,134.04382324218747,227.02038574218744)"></image><image width="760" height="760" xlink:href="https://lct-designs.s3.us-west-1.amazonaws.com/assets/libs/hot-rods-2-1631961569855.png" class="asset" transform="matrix(0.04546540230512619,0,0,0.04546540230512619,223.62110900878906,227.02037048339844)"></image><image width="760" height="760" xlink:href="https://lct-designs.s3.us-west-1.amazonaws.com/assets/libs/hot-rods-2-1631961569855.png" class="asset" transform="matrix(0.04546540603041649,0,0,0.04546540603041649,327.2894287109375,227.02038574218744)"></image><text fill="#fcdcb9" font-family="UTM Rockwell" font-size="50" stroke-opacity="1" stroke-width="1" stroke="#000000" x="-98.72634249947717" y="199.47500657859518" transform="matrix(0.20904403151988046,0,0,0.20904403151988052,94.96511632380134,85.66332868309838)" svgjs:data="{&quot;leading&quot;:&quot;1.3&quot;}"><tspan dy="0" x="-98.72634249947717" svgjs:data="{&quot;newLined&quot;:true}">PLAYER</tspan></text><image width="760" height="760" xlink:href="https://lct-designs.s3.us-west-1.amazonaws.com/assets/libs/hot-rods-2-1631961569855.png" class="asset" transform="matrix(0.04546535392496053,0,0,0.045465353924960546,81.24489650461328,82.95649373982452)"></image><text fill="#fcdcb9" font-family="UTM Rockwell" font-size="50" stroke-opacity="1" stroke-width="1" stroke="#000000" x="-98.72634249947717" y="199.47500657859518" transform="matrix(0.20904403151988046,0,0,0.20904403151988052,30.584730174432476,101.84192689428893)" svgjs:data="{&quot;leading&quot;:&quot;1.3&quot;}"><tspan dy="0" x="-98.72634249947717" svgjs:data="{&quot;newLined&quot;:true}">PLAYER</tspan></text><image width="760" height="760" xlink:href="https://lct-designs.s3.us-west-1.amazonaws.com/assets/libs/hot-rods-2-1631961569855.png" class="asset" transform="matrix(0.04546535392496053,0,0,0.045465353924960546,16.864512337315315,99.13509987929866)"></image><text fill="#fcdcb9" font-family="UTM Rockwell" font-size="50" stroke-opacity="1" stroke-width="1" stroke="#000000" x="-98.72634249947717" y="199.47500657859518" transform="matrix(0.20904403151988046,0,0,0.20904403151988052,70.58244124542396,160.8155526562623)" svgjs:data="{&quot;leading&quot;:&quot;1.3&quot;}"><tspan dy="0" x="-98.72634249947717" svgjs:data="{&quot;newLined&quot;:true}">PLAYER</tspan></text><image width="760" height="760" xlink:href="https://lct-designs.s3.us-west-1.amazonaws.com/assets/libs/hot-rods-2-1631961569855.png" class="asset" transform="matrix(0.04546538489481832,0,0,0.04546538489481833,56.86221746209412,158.10872564127203)"></image><text fill="#fcdcb9" font-family="UTM Rockwell" font-size="50" stroke-opacity="1" stroke-width="1" stroke="#000000" x="-98.72634249947717" y="199.47500657859518" transform="matrix(0.1745953857898712,0,0,0.17459538578987122,344.0449523925781,258.4724119901657)" svgjs:data="{&quot;leading&quot;:&quot;1.3&quot;}"><tspan dy="0" x="-98.72634249947717" svgjs:data="{&quot;newLined&quot;:true}">TEAM MOM: TEAM MOM'S NAME</tspan></text><text fill="#fcdcb9" font-family="UTM Rockwell" font-size="50" stroke-opacity="1" stroke-width="1" stroke="#000000" x="-98.72634249947717" y="199.47500657859518" transform="matrix(0.17459532618522644,0,0,0.17459532618522644,29.057102203369137,258.4724119901657)" svgjs:data="{&quot;leading&quot;:&quot;1.3&quot;}"><tspan dy="0" x="-98.72634249947717" svgjs:data="{&quot;newLined&quot;:true}">COACH: COACH'S NAME</tspan></text><image width="760" height="380" xlink:href="https://lct-designs.s3.us-west-1.amazonaws.com/assets/libs/hot-rods-3-1631961599790.png" class="asset" transform="matrix(0.353224366903305,0,0,0.35322436690330505,116.27297973632812,78.4143829345703)"></image><g class="mask" style="pointer-events: none;"><g><path fill="#BCBEC0" d="M-3642.4-2101.7v4589.1h7813.4v-4589.1H-3642.4z M500.5,67.2v233.3v66.7H0.5v-66.7V67.2V0.5h500V67.2z" transform="matrix(1,0,0,1,0,0)"></path><g transform="matrix(1,0,0,1,0,0)">
	<rect x="0.5" y="300.5" opacity="0.95" fill="#F1F2F2" width="500" height="66.7"></rect>
	<rect x="0.5" y="0.5" opacity="0.95" fill="#F1F2F2" width="500" height="66.7"></rect>
</g></g></g></svg>