<svg xmlns="http://www.w3.org/2000/svg" version="1.1" xmlns:xlink="http://www.w3.org/1999/xlink" xmlns:svgjs="http://svgjs.dev/svgjs" width="100%" height="100%" viewBox="1 1 499 365.70001220703125" preserveAspectRatio="none" data-info="{&quot;_id&quot;:4,&quot;name&quot;:&quot;POLE POCKET SOCCER BANNERS&quot;,&quot;information&quot;:&quot;- Size: 3’x5’\n- Material: heavy duty vinyl banner\n- Digitally printed on vinyl&quot;,&quot;price&quot;:&quot;95.00&quot;,&quot;sale_price&quot;:&quot;89.99&quot;,&quot;type&quot;:&quot;pole-pocket&quot;,&quot;cover&quot;:{&quot;key&quot;:&quot;assets/models/pole-1628062864266-1631924568908.png&quot;,&quot;url&quot;:&quot;https://lct-designs.s3.us-west-1.amazonaws.com/assets/models/pole-1628062864266-1631924568908.png&quot;},&quot;back&quot;:{&quot;key&quot;:&quot;assets/models/pole-1631924700152.svg&quot;,&quot;url&quot;:&quot;https://lct-designs.s3.us-west-1.amazonaws.com/assets/models/pole-1631924700152.svg&quot;},&quot;mask&quot;:{&quot;key&quot;:&quot;assets/models/pole-mask-1631925211715.svg&quot;,&quot;url&quot;:&quot;https://lct-designs.s3.us-west-1.amazonaws.com/assets/models/pole-mask-1631925211715.svg&quot;},&quot;pos&quot;:&quot;2&quot;,&quot;accessories&quot;:&quot;2,3&quot;}" style="background-color: white;"><g class="model" style="pointer-events: none;"><polygon fill="#FFFFFF" points="0.5,0.5 0.5,67.2 0.5,300.5 0.5,367.2 500.5,367.2 500.5,300.5 500.5,67.2 500.5,0.5 "></polygon></g><image width="760" height="556" xlink:href="https://lct-designs.s3.us-west-1.amazonaws.com/assets/libs/roaring-tigers-1633515464335.png" class="asset background locked" transform="matrix(0.6595323960558116,0,0,0.6595323960558116,0,0)"></image><image width="760" height="735" xlink:href="https://lct-designs.s3.us-west-1.amazonaws.com/assets/libs/roaring-tigers-1633515620071.png" class="asset" transform="matrix(0.22735360264778137,0,0,0.22735360264778137,164.018310546875,102.32762145996094)"></image><text fill="#ffffff" font-family="American Captain" font-size="45" x="129.74522070607043" y="200.41361831492046" stroke-opacity="1" stroke-width="2" stroke="#000000" transform="matrix(0.41934302449226385,0,0,0.34503915905952454,-36.92702102661134,223.9380187988281)" svgjs:data="{&quot;leading&quot;:&quot;1.3&quot;}"><tspan dy="0" x="129.74522070607043" svgjs:data="{&quot;newLined&quot;:true}">Team mom: name</tspan></text><text fill="#ffffff" font-family="American Captain" font-size="45" x="129.74522070607043" y="200.41361831492046" stroke-opacity="1" stroke-width="2" stroke="#000000" transform="matrix(0.41934302449226385,0,0,0.34503915905952454,301.1245422363281,223.93800354003903)" svgjs:data="{&quot;leading&quot;:&quot;1.3&quot;}"><tspan dy="0" x="129.74522070607043" svgjs:data="{&quot;newLined&quot;:true}">Coach:coach's name</tspan></text><image width="760" height="758" xlink:href="https://lct-designs.s3.us-west-1.amazonaws.com/assets/libs/alliance1-1632042447894.png" class="asset" transform="matrix(0.044780269265174866,0,0,0.044780269265174866,390.51950073242193,75.50894165039062)"></image><text fill="#ffffff" font-family="American Captain" font-size="45" stroke-opacity="1" stroke-width="2" stroke="#000000" x="196.88393072804308" y="200.41361831492046" transform="matrix(0.40528392791748047,0,0,0.4052839279174805,306.01312255859375,50.21862792968749)" svgjs:data="{&quot;leading&quot;:&quot;1.3&quot;}"><tspan dy="0" x="196.88393072804308" svgjs:data="{&quot;newLined&quot;:true}">Player</tspan></text><image width="760" height="758" xlink:href="https://lct-designs.s3.us-west-1.amazonaws.com/assets/libs/alliance1-1632042447894.png" class="asset" transform="matrix(0.04478024318814278,0,0,0.044780243188142776,442.5108947753906,117.37805938720703)"></image><text fill="#ffffff" font-family="American Captain" font-size="45" stroke-opacity="1" stroke-width="2" stroke="#000000" x="196.88393072804308" y="200.41361831492046" transform="matrix(0.40528392791748047,0,0,0.4052839279174805,358.0044860839844,92.0877456665039)" svgjs:data="{&quot;leading&quot;:&quot;1.3&quot;}"><tspan dy="0" x="196.88393072804308" svgjs:data="{&quot;newLined&quot;:true}">Player</tspan></text><image width="760" height="758" xlink:href="https://lct-designs.s3.us-west-1.amazonaws.com/assets/libs/alliance1-1632042447894.png" class="asset" transform="matrix(0.044780272990465164,0,0,0.044780272990465164,349.4483947753906,137.6224670410156)"></image><text fill="#ffffff" font-family="American Captain" font-size="45" stroke-opacity="1" stroke-width="2" stroke="#000000" x="196.88393072804308" y="200.41361831492046" transform="matrix(0.40528392791748047,0,0,0.4052839279174805,264.9420166015625,112.3321533203125)" svgjs:data="{&quot;leading&quot;:&quot;1.3&quot;}"><tspan dy="0" x="196.88393072804308" svgjs:data="{&quot;newLined&quot;:true}">Player</tspan></text><image width="760" height="758" xlink:href="https://lct-designs.s3.us-west-1.amazonaws.com/assets/libs/alliance1-1632042447894.png" class="asset" transform="matrix(0.04478028416633606,0,0,0.04478028416633606,399.0170288085938,162.00778198242188)"></image><image width="760" height="758" xlink:href="https://lct-designs.s3.us-west-1.amazonaws.com/assets/libs/alliance1-1632042447894.png" class="asset" transform="matrix(0.04478025063872338,0,0,0.04478025063872337,352.3311767578125,211.6986389160156)"></image><text fill="#ffffff" font-family="American Captain" font-size="45" stroke-opacity="1" stroke-width="2" stroke="#000000" x="196.88393072804308" y="200.41361831492046" transform="matrix(0.40528392791748047,0,0,0.4052839279174805,267.8247680664062,186.40832519531247)" svgjs:data="{&quot;leading&quot;:&quot;1.3&quot;}"><tspan dy="0" x="196.88393072804308" svgjs:data="{&quot;newLined&quot;:true}">Player</tspan></text><text fill="#ffffff" font-family="American Captain" font-size="45" stroke-opacity="1" stroke-width="2" stroke="#000000" x="196.88393072804308" y="200.41361831492046" transform="matrix(0.40528392791748047,0,0,0.4052839279174805,314.51065063476557,136.71746826171872)" svgjs:data="{&quot;leading&quot;:&quot;1.3&quot;}"><tspan dy="0" x="196.88393072804308" svgjs:data="{&quot;newLined&quot;:true}">Player</tspan></text><text fill="#ffffff" font-family="American Captain" font-size="45" stroke-opacity="1" stroke-width="2" stroke="#000000" x="196.88393072804308" y="200.41361831492046" transform="matrix(0.40528392791748047,0,0,0.4052839279174805,359.2625427246094,185.94822692871097)" svgjs:data="{&quot;leading&quot;:&quot;1.3&quot;}"><tspan dy="0" x="196.88393072804308" svgjs:data="{&quot;newLined&quot;:true}">Player</tspan></text><image width="760" height="758" xlink:href="https://lct-designs.s3.us-west-1.amazonaws.com/assets/libs/alliance1-1632042447894.png" class="asset" transform="matrix(0.04478025808930397,0,0,0.04478025808930397,443.7689514160156,211.2385406494141)"></image><image width="760" height="758" xlink:href="https://lct-designs.s3.us-west-1.amazonaws.com/assets/libs/alliance1-1632042447894.png" class="asset" transform="matrix(0.04478028044104576,0,0,0.04478028044104576,66.94671630859375,77.80943298339844)"></image><text fill="#ffffff" font-family="American Captain" font-size="45" stroke-opacity="1" stroke-width="2" stroke="#000000" x="196.88393072804308" y="200.41361831492046" transform="matrix(0.40528392791748047,0,0,0.4052839279174805,-17.55966186523439,52.51911926269532)" svgjs:data="{&quot;leading&quot;:&quot;1.3&quot;}"><tspan dy="0" x="196.88393072804308" svgjs:data="{&quot;newLined&quot;:true}">Player</tspan></text><image width="760" height="758" xlink:href="https://lct-designs.s3.us-west-1.amazonaws.com/assets/libs/alliance1-1632042447894.png" class="asset" transform="matrix(0.04478025436401367,0,0,0.04478025436401367,118.93811035156247,119.67855072021484)"></image><text fill="#ffffff" font-family="American Captain" font-size="45" stroke-opacity="1" stroke-width="2" stroke="#000000" x="196.88393072804308" y="200.41361831492046" transform="matrix(0.40528392791748047,0,0,0.4052839279174805,34.43170166015625,94.38823699951172)" svgjs:data="{&quot;leading&quot;:&quot;1.3&quot;}"><tspan dy="0" x="196.88393072804308" svgjs:data="{&quot;newLined&quot;:true}">Player</tspan></text><image width="760" height="758" xlink:href="https://lct-designs.s3.us-west-1.amazonaws.com/assets/libs/alliance1-1632042447894.png" class="asset" transform="matrix(0.04478028416633606,0,0,0.04478028416633606,25.8756103515625,139.9229583740234)"></image><text fill="#ffffff" font-family="American Captain" font-size="45" stroke-opacity="1" stroke-width="2" stroke="#000000" x="196.88393072804308" y="200.41361831492046" transform="matrix(0.40528392791748047,0,0,0.4052839279174805,-58.63076782226563,114.63264465332031)" svgjs:data="{&quot;leading&quot;:&quot;1.3&quot;}"><tspan dy="0" x="196.88393072804308" svgjs:data="{&quot;newLined&quot;:true}">Player</tspan></text><image width="760" height="758" xlink:href="https://lct-designs.s3.us-west-1.amazonaws.com/assets/libs/alliance1-1632042447894.png" class="asset" transform="matrix(0.044780291616916656,0,0,0.044780291616916656,75.44424438476562,164.3082733154297)"></image><image width="760" height="758" xlink:href="https://lct-designs.s3.us-west-1.amazonaws.com/assets/libs/alliance1-1632042447894.png" class="asset" transform="matrix(0.04478025808930397,0,0,0.04478025808930397,28.758392333984375,213.9991302490234)"></image><text fill="#ffffff" font-family="American Captain" font-size="45" stroke-opacity="1" stroke-width="2" stroke="#000000" x="196.88393072804308" y="200.41361831492046" transform="matrix(0.40528392791748047,0,0,0.4052839279174805,-55.74801635742188,188.70881652832028)" svgjs:data="{&quot;leading&quot;:&quot;1.3&quot;}"><tspan dy="0" x="196.88393072804308" svgjs:data="{&quot;newLined&quot;:true}">Player</tspan></text><text fill="#ffffff" font-family="American Captain" font-size="45" stroke-opacity="1" stroke-width="2" stroke="#000000" x="196.88393072804308" y="200.41361831492046" transform="matrix(0.40528392791748047,0,0,0.4052839279174805,-9.062133789062514,139.01795959472656)" svgjs:data="{&quot;leading&quot;:&quot;1.3&quot;}"><tspan dy="0" x="196.88393072804308" svgjs:data="{&quot;newLined&quot;:true}">Player</tspan></text><text fill="#ffffff" font-family="American Captain" font-size="45" stroke-opacity="1" stroke-width="2" stroke="#000000" x="196.88393072804308" y="200.41361831492046" transform="matrix(0.40528392791748047,0,0,0.4052839279174805,35.68975830078125,188.24871826171878)" svgjs:data="{&quot;leading&quot;:&quot;1.3&quot;}"><tspan dy="0" x="196.88393072804308" svgjs:data="{&quot;newLined&quot;:true}">Player</tspan></text><image width="760" height="758" xlink:href="https://lct-designs.s3.us-west-1.amazonaws.com/assets/libs/alliance1-1632042447894.png" class="asset" transform="matrix(0.04478026553988457,0,0,0.04478026553988457,120.19616699218747,213.5390319824219)"></image><g class="mask" style="pointer-events: none;"><g><path fill="#BCBEC0" d="M-3642.4-2101.7v4589.1h7813.4v-4589.1H-3642.4z M500.5,67.2v233.3v66.7H0.5v-66.7V67.2V0.5h500V67.2z" transform="matrix(1,0,0,1,0,0)"></path><g transform="matrix(1,0,0,1,0,0)">
	<rect x="0.5" y="300.5" opacity="0.95" fill="#F1F2F2" width="500" height="66.7"></rect>
	<rect x="0.5" y="0.5" opacity="0.95" fill="#F1F2F2" width="500" height="66.7"></rect>
</g></g></g></svg>