<svg xmlns="http://www.w3.org/2000/svg" version="1.1" xmlns:xlink="http://www.w3.org/1999/xlink" xmlns:svgjs="http://svgjs.dev/svgjs" width="100%" height="100%" viewBox="1 1 499 365.70001220703125" preserveAspectRatio="none" data-info="{&quot;_id&quot;:4,&quot;name&quot;:&quot;POLE POCKET SOCCER BANNERS&quot;,&quot;information&quot;:&quot;- Size: 3’x5’\n- Material: heavy duty vinyl banner\n- Digitally printed on vinyl&quot;,&quot;price&quot;:&quot;95.00&quot;,&quot;sale_price&quot;:&quot;89.99&quot;,&quot;type&quot;:&quot;pole-pocket&quot;,&quot;cover&quot;:{&quot;key&quot;:&quot;assets/models/pole-1628062864266-1631924568908.png&quot;,&quot;url&quot;:&quot;https://lct-designs.s3.us-west-1.amazonaws.com/assets/models/pole-1628062864266-1631924568908.png&quot;},&quot;back&quot;:{&quot;key&quot;:&quot;assets/models/pole-1631924700152.svg&quot;,&quot;url&quot;:&quot;https://lct-designs.s3.us-west-1.amazonaws.com/assets/models/pole-1631924700152.svg&quot;},&quot;mask&quot;:{&quot;key&quot;:&quot;assets/models/pole-mask-1631925211715.svg&quot;,&quot;url&quot;:&quot;https://lct-designs.s3.us-west-1.amazonaws.com/assets/models/pole-mask-1631925211715.svg&quot;},&quot;pos&quot;:&quot;2&quot;,&quot;accessories&quot;:&quot;2,3&quot;}" style="background-color: white;"><g class="model" style="pointer-events: none;"><polygon fill="#FFFFFF" points="0.5,0.5 0.5,67.2 0.5,300.5 0.5,367.2 500.5,367.2 500.5,300.5 500.5,67.2 500.5,0.5 "></polygon></g><image width="760" height="455" xlink:href="https://lct-designs.s3.us-west-1.amazonaws.com/assets/libs/sharkpedos-2-1652258101982.png" class="asset background locked" transform="matrix(0.805934092762706,0,0,0.805934092762706,0,0)"></image><image width="760" height="179" xlink:href="https://lct-designs.s3.us-west-1.amazonaws.com/assets/libs/sharkpedos-3-1652258158691.png" class="asset" transform="matrix(0.3641101717948914,0,0,0.36411017179489136,116.25363922119143,73.95218658447268)"></image><image width="760" height="655" xlink:href="https://lct-designs.s3.us-west-1.amazonaws.com/assets/libs/sharkpedos-5-1652258127388.png" class="asset" transform="matrix(0.18596409261226657,0,0,0.18596409261226657,192.4744110107422,129.33609008789065)"></image><image width="760" height="548" xlink:href="https://lct-designs.s3.us-west-1.amazonaws.com/assets/libs/sharkpedos-4-1652258174608.png" class="asset" transform="matrix(0.0864882916212082,0,0,0.0864882916212082,38.270900666713715,135.89993286132812)"></image><text fill="#48b2e6" font-family="Avengeance Heroic Avenger" font-size="45" stroke-opacity="1" stroke-width="1" stroke="#000000" x="194.244259302176" y="199.459545006756" transform="matrix(0.4783890843391419,0,0,0.4783890843391419,-76.10058599710464,78.48492431640628)" svgjs:data="{&quot;leading&quot;:&quot;1.3&quot;}"><tspan dy="0" x="194.244259302176" svgjs:data="{&quot;newLined&quot;:true}">Player</tspan></text><image width="760" height="548" xlink:href="https://lct-designs.s3.us-west-1.amazonaws.com/assets/libs/sharkpedos-4-1652258174608.png" class="asset" transform="matrix(0.0864882916212082,0,0,0.0864882916212082,121.3465270996094,163.0452880859375)"></image><text fill="#48b2e6" font-family="Avengeance Heroic Avenger" font-size="45" stroke-opacity="1" stroke-width="1" stroke="#000000" x="194.244259302176" y="199.459545006756" transform="matrix(0.4783890843391419,0,0,0.4783890843391419,6.975039482116728,105.63027954101562)" svgjs:data="{&quot;leading&quot;:&quot;1.3&quot;}"><tspan dy="0" x="194.244259302176" svgjs:data="{&quot;newLined&quot;:true}">Player</tspan></text><image width="760" height="548" xlink:href="https://lct-designs.s3.us-west-1.amazonaws.com/assets/libs/sharkpedos-4-1652258174608.png" class="asset" transform="matrix(0.0864882916212082,0,0,0.0864882916212082,75.46110534667972,217.70759582519528)"></image><text fill="#48b2e6" font-family="Avengeance Heroic Avenger" font-size="45" stroke-opacity="1" stroke-width="1" stroke="#000000" x="194.244259302176" y="199.459545006756" transform="matrix(0.4783890843391419,0,0,0.4783890843391419,-38.91038513183594,160.2926025390625)" svgjs:data="{&quot;leading&quot;:&quot;1.3&quot;}"><tspan dy="0" x="194.244259302176" svgjs:data="{&quot;newLined&quot;:true}">Player</tspan></text><image width="760" height="548" xlink:href="https://lct-designs.s3.us-west-1.amazonaws.com/assets/libs/sharkpedos-4-1652258174608.png" class="asset" transform="matrix(0.0864882916212082,0,0,0.0864882916212082,162.5010375976563,235.43768310546878)"></image><text fill="#48b2e6" font-family="Avengeance Heroic Avenger" font-size="45" stroke-opacity="1" stroke-width="1" stroke="#000000" x="194.244259302176" y="199.459545006756" transform="matrix(0.4783890843391419,0,0,0.4783890843391419,48.12954807281494,178.02268981933597)" svgjs:data="{&quot;leading&quot;:&quot;1.3&quot;}"><tspan dy="0" x="194.244259302176" svgjs:data="{&quot;newLined&quot;:true}">Player</tspan></text><image width="760" height="548" xlink:href="https://lct-designs.s3.us-west-1.amazonaws.com/assets/libs/sharkpedos-4-1652258174608.png" class="asset" transform="matrix(0.0864882916212082,0,0,0.0864882916212082,331.7201232910157,125.49359130859378)"></image><text fill="#48b2e6" font-family="Avengeance Heroic Avenger" font-size="45" stroke-opacity="1" stroke-width="1" stroke="#000000" x="194.244259302176" y="199.459545006756" transform="matrix(0.4783890843391419,0,0,0.4783890843391419,217.34863281250006,68.07858276367188)" svgjs:data="{&quot;leading&quot;:&quot;1.3&quot;}"><tspan dy="0" x="194.244259302176" svgjs:data="{&quot;newLined&quot;:true}">Player</tspan></text><image width="760" height="548" xlink:href="https://lct-designs.s3.us-west-1.amazonaws.com/assets/libs/sharkpedos-4-1652258174608.png" class="asset" transform="matrix(0.0864882916212082,0,0,0.0864882916212082,402.90277099609375,154.12554931640625)"></image><text fill="#48b2e6" font-family="Avengeance Heroic Avenger" font-size="45" stroke-opacity="1" stroke-width="1" stroke="#000000" x="194.244259302176" y="199.459545006756" transform="matrix(0.4783890843391419,0,0,0.4783890843391419,288.5312805175782,96.7105407714844)" svgjs:data="{&quot;leading&quot;:&quot;1.3&quot;}"><tspan dy="0" x="194.244259302176" svgjs:data="{&quot;newLined&quot;:true}">Player</tspan></text><image width="760" height="548" xlink:href="https://lct-designs.s3.us-west-1.amazonaws.com/assets/libs/sharkpedos-4-1652258174608.png" class="asset" transform="matrix(0.0864882916212082,0,0,0.0864882916212082,334.2225036621094,235.05152893066403)"></image><text fill="#48b2e6" font-family="Avengeance Heroic Avenger" font-size="45" stroke-opacity="1" stroke-width="1" stroke="#000000" x="194.244259302176" y="199.459545006756" transform="matrix(0.4783890843391419,0,0,0.4783890843391419,219.8510131835938,177.63653564453128)" svgjs:data="{&quot;leading&quot;:&quot;1.3&quot;}"><tspan dy="0" x="194.244259302176" svgjs:data="{&quot;newLined&quot;:true}">Player</tspan></text><image width="760" height="548" xlink:href="https://lct-designs.s3.us-west-1.amazonaws.com/assets/libs/sharkpedos-4-1652258174608.png" class="asset" transform="matrix(0.0864882916212082,0,0,0.0864882916212082,429.6866149902345,204.21862792968747)"></image><text fill="#48b2e6" font-family="Avengeance Heroic Avenger" font-size="45" stroke-opacity="1" stroke-width="1" stroke="#000000" x="194.244259302176" y="199.459545006756" transform="matrix(0.4783890843391419,0,0,0.4783890843391419,315.3151245117188,146.8036346435547)" svgjs:data="{&quot;leading&quot;:&quot;1.3&quot;}"><tspan dy="0" x="194.244259302176" svgjs:data="{&quot;newLined&quot;:true}">Player</tspan></text><text fill="#ffffff" font-family="Avengeance Heroic Avenger" font-size="45" stroke-opacity="1" stroke-width="1" stroke="#000000" x="91.83280224040843" y="199.70731531620424" transform="matrix(0.41168791055679327,0,0,0.4116879105567932,-24.764635086059556,212.62402349710467)" svgjs:data="{&quot;leading&quot;:&quot;1.3&quot;}"><tspan dy="0" x="91.83280224040843" svgjs:data="{&quot;newLined&quot;:true}">Coach:Coach's name</tspan></text><text fill="#ffffff" font-family="Avengeance Heroic Avenger" font-size="45" stroke-opacity="1" stroke-width="1" stroke="#000000" x="91.83280224040843" y="199.70731531620424" transform="matrix(0.4116878807544708,0,0,0.4116878807544708,349.9532775878907,212.6240081787109)" svgjs:data="{&quot;leading&quot;:&quot;1.3&quot;}"><tspan dy="0" x="91.83280224040843" svgjs:data="{&quot;newLined&quot;:true}">Team mom: name</tspan></text><g class="mask" style="pointer-events: none;"><g><path fill="#BCBEC0" d="M-3642.4-2101.7v4589.1h7813.4v-4589.1H-3642.4z M500.5,67.2v233.3v66.7H0.5v-66.7V67.2V0.5h500V67.2z" transform="matrix(1,0,0,1,0,0)"></path><g transform="matrix(1,0,0,1,0,0)">
	<rect x="0.5" y="300.5" opacity="0.95" fill="#F1F2F2" width="500" height="66.7"></rect>
	<rect x="0.5" y="0.5" opacity="0.95" fill="#F1F2F2" width="500" height="66.7"></rect>
</g></g></g></svg>