<svg xmlns="http://www.w3.org/2000/svg" version="1.1" xmlns:xlink="http://www.w3.org/1999/xlink" xmlns:svgjs="http://svgjs.dev/svgjs" width="100%" height="100%" viewBox="1 1 499 365.70001220703125" preserveAspectRatio="none" data-info="{&quot;_id&quot;:4,&quot;name&quot;:&quot;POLE POCKET SOCCER BANNERS&quot;,&quot;information&quot;:&quot;- Size: 3’x5’\n- Material: heavy duty vinyl banner\n- Digitally printed on vinyl&quot;,&quot;price&quot;:&quot;95.00&quot;,&quot;sale_price&quot;:&quot;89.99&quot;,&quot;type&quot;:&quot;pole-pocket&quot;,&quot;cover&quot;:{&quot;key&quot;:&quot;assets/models/pole-1628062864266-1631924568908.png&quot;,&quot;url&quot;:&quot;https://lct-designs.s3.us-west-1.amazonaws.com/assets/models/pole-1628062864266-1631924568908.png&quot;},&quot;back&quot;:{&quot;key&quot;:&quot;assets/models/pole-1631924700152.svg&quot;,&quot;url&quot;:&quot;https://lct-designs.s3.us-west-1.amazonaws.com/assets/models/pole-1631924700152.svg&quot;},&quot;mask&quot;:{&quot;key&quot;:&quot;assets/models/pole-mask-1631925211715.svg&quot;,&quot;url&quot;:&quot;https://lct-designs.s3.us-west-1.amazonaws.com/assets/models/pole-mask-1631925211715.svg&quot;},&quot;pos&quot;:&quot;2&quot;,&quot;accessories&quot;:&quot;2,3&quot;}" style="background-color: white;"><g class="model" style="pointer-events: none;"><polygon fill="#FFFFFF" points="0.5,0.5 0.5,67.2 0.5,300.5 0.5,367.2 500.5,367.2 500.5,300.5 500.5,67.2 500.5,0.5 "></polygon></g><image width="760" height="553" xlink:href="https://lct-designs.s3.us-west-1.amazonaws.com/assets/libs/lucky-ladies-2-1633402757834.png" class="asset background locked" transform="matrix(0.6631103294883024,0,0,0.6631103294883024,0,0)"></image><text fill="#ffffff" font-family="Chunky Funks" font-size="50" stroke-opacity="1" stroke-width="2" stroke="#000000" x="-98.72634249947717" y="199.47500657859518" transform="matrix(0.1945929080247879,0,0,0.1945929080247879,28.983993530273438,253.5096893310547)" svgjs:data="{&quot;leading&quot;:&quot;1.3&quot;}"><tspan dy="0" x="-98.72634249947717" svgjs:data="{&quot;newLined&quot;:true}">COACH: COACH'S NAME</tspan></text><text fill="#ffffff" font-family="Chunky Funks" font-size="50" stroke-opacity="1" stroke-width="2" stroke="#000000" x="-98.72634249947717" y="199.47500657859518" transform="matrix(0.19459287822246552,0,0,0.19459287822246554,365.19873046875,253.5096893310547)" svgjs:data="{&quot;leading&quot;:&quot;1.3&quot;}"><tspan dy="0" x="-98.72634249947717" svgjs:data="{&quot;newLined&quot;:true}">TEAM MOM: TEAM MOM'S NAME</tspan></text><text fill="#ffffff" font-family="Chunky Funks" font-size="50" stroke-opacity="1" stroke-width="1" stroke="#000000" x="-98.72634249947717" y="199.47500657859518" transform="matrix(0.2550872266292572,0,0,0.25508722662925726,42.21246337890625,145.3785247802735)" svgjs:data="{&quot;leading&quot;:&quot;1.3&quot;}"><tspan dy="0" x="-98.72634249947717" svgjs:data="{&quot;newLined&quot;:true}">PLAYER</tspan></text><image width="760" height="740" xlink:href="https://lct-designs.s3.us-west-1.amazonaws.com/assets/libs/lucky-ladies-2-3-1633342536149.png" class="asset" transform="matrix(0.0526186004281044,0,0,0.05261860042810441,21.408754348754883,144.34332275390625)"></image><text fill="#ffffff" font-family="Chunky Funks" font-size="50" stroke-opacity="1" stroke-width="1" stroke="#000000" x="-98.72634249947717" y="199.47500657859518" transform="matrix(0.2550872266292572,0,0,0.25508722662925726,458.6640930175782,145.91613769531256)" svgjs:data="{&quot;leading&quot;:&quot;1.3&quot;}"><tspan dy="0" x="-98.72634249947717" svgjs:data="{&quot;newLined&quot;:true}">PLAYER</tspan></text><image width="760" height="740" xlink:href="https://lct-designs.s3.us-west-1.amazonaws.com/assets/libs/lucky-ladies-2-3-1633342536149.png" class="asset" transform="matrix(0.0526186004281044,0,0,0.05261860042810441,437.8603820800781,144.8809356689453)"></image><image width="760" height="740" xlink:href="https://lct-designs.s3.us-west-1.amazonaws.com/assets/libs/lucky-ladies-2-3-1633342536149.png" class="asset" transform="matrix(0.0526186004281044,0,0,0.05261860042810441,438.68627929687506,220.24333190917974)"></image><text fill="#ffffff" font-family="Chunky Funks" font-size="50" stroke-opacity="1" stroke-width="1" stroke="#000000" x="-98.72634249947717" y="199.47500657859518" transform="matrix(0.2550872266292572,0,0,0.25508722662925726,459.489990234375,221.2785186767578)" svgjs:data="{&quot;leading&quot;:&quot;1.3&quot;}"><tspan dy="0" x="-98.72634249947717" svgjs:data="{&quot;newLined&quot;:true}">PLAYER</tspan></text><text fill="#ffffff" font-family="Chunky Funks" font-size="50" stroke-opacity="1" stroke-width="1" stroke="#000000" x="-98.72634249947717" y="199.47500657859518" transform="matrix(0.2550872266292572,0,0,0.25508722662925726,393.395263671875,145.37850952148438)" svgjs:data="{&quot;leading&quot;:&quot;1.3&quot;}"><tspan dy="0" x="-98.72634249947717" svgjs:data="{&quot;newLined&quot;:true}">PLAYER</tspan></text><image width="760" height="740" xlink:href="https://lct-designs.s3.us-west-1.amazonaws.com/assets/libs/lucky-ladies-2-3-1633342536149.png" class="asset" transform="matrix(0.0526186004281044,0,0,0.05261860042810441,372.59155273437506,144.34330749511724)"></image><image width="760" height="740" xlink:href="https://lct-designs.s3.us-west-1.amazonaws.com/assets/libs/lucky-ladies-2-3-1633342536149.png" class="asset" transform="matrix(0.0526186004281044,0,0,0.05261860042810441,373.4174499511719,219.70570373535156)"></image><text fill="#ffffff" font-family="Chunky Funks" font-size="50" stroke-opacity="1" stroke-width="1" stroke="#000000" x="-98.72634249947717" y="199.47500657859518" transform="matrix(0.2550872266292572,0,0,0.25508722662925726,394.22116088867193,220.7408905029297)" svgjs:data="{&quot;leading&quot;:&quot;1.3&quot;}"><tspan dy="0" x="-98.72634249947717" svgjs:data="{&quot;newLined&quot;:true}">PLAYER</tspan></text><image width="760" height="740" xlink:href="https://lct-designs.s3.us-west-1.amazonaws.com/assets/libs/lucky-ladies-2-3-1633342536149.png" class="asset" transform="matrix(0.0526186004281044,0,0,0.05261860042810441,22.234642028808587,219.70571899414068)"></image><text fill="#ffffff" font-family="Chunky Funks" font-size="50" stroke-opacity="1" stroke-width="1" stroke="#000000" x="-98.72634249947717" y="199.47500657859518" transform="matrix(0.2550872266292572,0,0,0.25508722662925726,43.038352966308594,220.7409057617188)" svgjs:data="{&quot;leading&quot;:&quot;1.3&quot;}"><tspan dy="0" x="-98.72634249947717" svgjs:data="{&quot;newLined&quot;:true}">PLAYER</tspan></text><text fill="#ffffff" font-family="Chunky Funks" font-size="50" stroke-opacity="1" stroke-width="1" stroke="#000000" x="-98.72634249947717" y="199.47500657859518" transform="matrix(0.2550872347043178,0,0,0.2550872347043178,107.56094265034562,145.3785197161924)" svgjs:data="{&quot;leading&quot;:&quot;1.3&quot;}"><tspan dy="0" x="-98.72634249947717" svgjs:data="{&quot;newLined&quot;:true}">PLAYER</tspan></text><image width="760" height="740" xlink:href="https://lct-designs.s3.us-west-1.amazonaws.com/assets/libs/lucky-ladies-2-3-1633342536149.png" class="asset" transform="matrix(0.052618600537167604,0,0,0.052618600537167604,86.75723030113704,144.34332825075944)"></image><image width="760" height="740" xlink:href="https://lct-designs.s3.us-west-1.amazonaws.com/assets/libs/lucky-ladies-2-3-1633342536149.png" class="asset" transform="matrix(0.052618600537167604,0,0,0.052618600537167604,87.58311859843661,219.70571229133753)"></image><text fill="#ffffff" font-family="Chunky Funks" font-size="50" stroke-opacity="1" stroke-width="1" stroke="#000000" x="-98.72634249947717" y="199.47500657859518" transform="matrix(0.2550872266292572,0,0,0.25508722662925726,163.6181640625,185.64059448242188)" svgjs:data="{&quot;leading&quot;:&quot;1.3&quot;}"><tspan dy="0" x="-98.72634249947717" svgjs:data="{&quot;newLined&quot;:true}">PLAYER</tspan></text><image width="760" height="740" xlink:href="https://lct-designs.s3.us-west-1.amazonaws.com/assets/libs/lucky-ladies-2-3-1633342536149.png" class="asset" transform="matrix(0.0526186004281044,0,0,0.05261860042810441,142.814453125,184.60540771484375)"></image><text fill="#ffffff" font-family="Chunky Funks" font-size="50" stroke-opacity="1" stroke-width="1" stroke="#000000" x="-98.72634249947717" y="199.47500657859518" transform="matrix(0.2550872266292572,0,0,0.25508722662925726,333.29559326171875,185.64059448242188)" svgjs:data="{&quot;leading&quot;:&quot;1.3&quot;}"><tspan dy="0" x="-98.72634249947717" svgjs:data="{&quot;newLined&quot;:true}">PLAYER</tspan></text><image width="760" height="740" xlink:href="https://lct-designs.s3.us-west-1.amazonaws.com/assets/libs/lucky-ladies-2-3-1633342536149.png" class="asset" transform="matrix(0.0526186004281044,0,0,0.05261860042810441,312.4918823242188,184.60540771484375)"></image><text fill="#ffffff" font-family="Chunky Funks" font-size="50" stroke-opacity="1" stroke-width="1" stroke="#000000" x="-98.72634249947717" y="199.47500657859518" transform="matrix(0.2550872347043178,0,0,0.2550872347043178,108.3868309476452,220.74090375677042)" svgjs:data="{&quot;leading&quot;:&quot;1.3&quot;}"><tspan dy="0" x="-98.72634249947717" svgjs:data="{&quot;newLined&quot;:true}">PLAYER</tspan></text><image width="638" height="760" xlink:href="https://lct-designs.s3.us-west-1.amazonaws.com/assets/libs/lucky-ladies-2-1-1633342503132.png" class="asset" transform="matrix(0.16341207921504974,0,0,0.16341207921504977,198.37071228027344,154.27944946289062)"></image><image width="760" height="121" xlink:href="https://lct-designs.s3.us-west-1.amazonaws.com/assets/libs/lucky-ladies-2-2-1633342518594.png" class="asset" transform="matrix(0.47812440991401667,0,0,0.4781244099140168,68.8103256225586,76.4647445678711)"></image><g class="mask" style="pointer-events: none;"><g><path fill="#BCBEC0" d="M-3642.4-2101.7v4589.1h7813.4v-4589.1H-3642.4z M500.5,67.2v233.3v66.7H0.5v-66.7V67.2V0.5h500V67.2z" transform="matrix(1,0,0,1,0,0)"></path><g transform="matrix(1,0,0,1,0,0)">
	<rect x="0.5" y="300.5" opacity="0.95" fill="#F1F2F2" width="500" height="66.7"></rect>
	<rect x="0.5" y="0.5" opacity="0.95" fill="#F1F2F2" width="500" height="66.7"></rect>
</g></g></g></svg>