<svg xmlns="http://www.w3.org/2000/svg" version="1.1" xmlns:xlink="http://www.w3.org/1999/xlink" xmlns:svgjs="http://svgjs.dev/svgjs" width="100%" height="100%" viewBox="1 1 499 365.70001220703125" preserveAspectRatio="none" data-info="{&quot;_id&quot;:4,&quot;name&quot;:&quot;POLE POCKET SOCCER BANNERS&quot;,&quot;information&quot;:&quot;- Size: 3’x5’\n- Material: heavy duty vinyl banner\n- Digitally printed on vinyl&quot;,&quot;price&quot;:&quot;95.00&quot;,&quot;sale_price&quot;:&quot;89.99&quot;,&quot;type&quot;:&quot;pole-pocket&quot;,&quot;cover&quot;:{&quot;key&quot;:&quot;assets/models/pole-1628062864266-1631924568908.png&quot;,&quot;url&quot;:&quot;https://lct-designs.s3.us-west-1.amazonaws.com/assets/models/pole-1628062864266-1631924568908.png&quot;},&quot;back&quot;:{&quot;key&quot;:&quot;assets/models/pole-1631924700152.svg&quot;,&quot;url&quot;:&quot;https://lct-designs.s3.us-west-1.amazonaws.com/assets/models/pole-1631924700152.svg&quot;},&quot;mask&quot;:{&quot;key&quot;:&quot;assets/models/pole-mask-1631925211715.svg&quot;,&quot;url&quot;:&quot;https://lct-designs.s3.us-west-1.amazonaws.com/assets/models/pole-mask-1631925211715.svg&quot;},&quot;pos&quot;:&quot;2&quot;,&quot;accessories&quot;:&quot;2,3&quot;}" style="background-color: white;"><g class="model" style="pointer-events: none;"><polygon fill="#FFFFFF" points="0.5,0.5 0.5,67.2 0.5,300.5 0.5,367.2 500.5,367.2 500.5,300.5 500.5,67.2 500.5,0.5 "></polygon></g><image width="760" height="556" xlink:href="https://lct-designs.s3.us-west-1.amazonaws.com/assets/libs/too-good-to-be-bad__soccer-pole-grommet-1633602138014.png" class="asset background locked" transform="matrix(0.6595323960558116,0,0,0.6595323960558116,0,0)"></image><image width="760" height="624" xlink:href="https://lct-designs.s3.us-west-1.amazonaws.com/assets/libs/asset-1-1654595065028.png" class="asset" transform="matrix(0.3205801844596863,0,0,0.3205801844596863,248.13136291503912,93.73439025878906)"></image><image width="760" height="626" xlink:href="https://lct-designs.s3.us-west-1.amazonaws.com/assets/libs/too-good-to-be-bad-1633602171722.png" class="asset" transform="matrix(0.05261776596307755,0,0,0.061100445687770844,11.668136596679716,116.39767456054688)"></image><text fill="#ffffff" font-family="Freshman" font-size="45" stroke-opacity="1" stroke-width="2" stroke="#ff0000" x="164.94183007315493" y="199.459545006756" transform="matrix(0.3813170492649079,0,0,0.4427903890609742,-9.300365447998033,53.23385810852051)" svgjs:data="{&quot;leading&quot;:&quot;1.3&quot;}"><tspan dy="0" x="164.94183007315493" svgjs:data="{&quot;newLined&quot;:true}">Player</tspan></text><image width="760" height="626" xlink:href="https://lct-designs.s3.us-west-1.amazonaws.com/assets/libs/too-good-to-be-bad-1633602171722.png" class="asset" transform="matrix(0.05261776596307755,0,0,0.061100445687770844,125.23611450195318,116.39767456054688)"></image><text fill="#ffffff" font-family="Freshman" font-size="45" stroke-opacity="1" stroke-width="2" stroke="#ff0000" x="164.94183007315493" y="199.459545006756" transform="matrix(0.3813170492649079,0,0,0.4427903890609742,104.26762390136719,53.23385810852051)" svgjs:data="{&quot;leading&quot;:&quot;1.3&quot;}"><tspan dy="0" x="164.94183007315493" svgjs:data="{&quot;newLined&quot;:true}">Player</tspan></text><image width="760" height="626" xlink:href="https://lct-designs.s3.us-west-1.amazonaws.com/assets/libs/too-good-to-be-bad-1633602171722.png" class="asset" transform="matrix(0.05261776596307755,0,0,0.061100445687770844,123.96554565429693,163.04850769042972)"></image><text fill="#ffffff" font-family="Freshman" font-size="45" stroke-opacity="1" stroke-width="2" stroke="#ff0000" x="164.94183007315493" y="199.459545006756" transform="matrix(0.38131710886955267,0,0,0.4427903890609742,102.9970397949219,99.88469696044922)" svgjs:data="{&quot;leading&quot;:&quot;1.3&quot;}"><tspan dy="0" x="164.94183007315493" svgjs:data="{&quot;newLined&quot;:true}">Player</tspan></text><image width="760" height="626" xlink:href="https://lct-designs.s3.us-west-1.amazonaws.com/assets/libs/too-good-to-be-bad-1633602171722.png" class="asset" transform="matrix(0.05261776596307755,0,0,0.061100445687770844,12.864013671875,163.49214172363284)"></image><text fill="#ffffff" font-family="Freshman" font-size="45" stroke-opacity="1" stroke-width="2" stroke="#ff0000" x="164.94183007315493" y="199.459545006756" transform="matrix(0.38131713867187506,0,0,0.44279050827026367,-8.10448837280272,100.32831573486328)" svgjs:data="{&quot;leading&quot;:&quot;1.3&quot;}"><tspan dy="0" x="164.94183007315493" svgjs:data="{&quot;newLined&quot;:true}">Player</tspan></text><text fill="#ffffff" font-family="Freshman" font-size="45" stroke-opacity="1" stroke-width="2" stroke="#ff0000" x="164.94183007315493" y="199.459545006756" transform="matrix(0.3813170492649079,0,0,0.4427903890609742,0.2040863037109375,144.90887439250946)" svgjs:data="{&quot;leading&quot;:&quot;1.3&quot;}"><tspan dy="0" x="164.94183007315493" svgjs:data="{&quot;newLined&quot;:true}">Player</tspan></text><image width="760" height="626" xlink:href="https://lct-designs.s3.us-west-1.amazonaws.com/assets/libs/too-good-to-be-bad-1633602171722.png" class="asset" transform="matrix(0.05261776596307755,0,0,0.061100445687770844,21.1725883483887,208.0726927518845)"></image><text fill="#ffffff" font-family="Freshman" font-size="45" stroke-opacity="1" stroke-width="2" stroke="#ff0000" x="164.94183007315493" y="199.459545006756" transform="matrix(0.3813170492649079,0,0,0.4427903890609742,125.16950988769537,143.9177857041359)" svgjs:data="{&quot;leading&quot;:&quot;1.3&quot;}"><tspan dy="0" x="164.94183007315493" svgjs:data="{&quot;newLined&quot;:true}">Player</tspan></text><image width="760" height="626" xlink:href="https://lct-designs.s3.us-west-1.amazonaws.com/assets/libs/too-good-to-be-bad-1633602171722.png" class="asset" transform="matrix(0.05261776596307755,0,0,0.061100445687770844,146.13800048828125,207.08160406351092)"></image><image width="760" height="626" xlink:href="https://lct-designs.s3.us-west-1.amazonaws.com/assets/libs/too-good-to-be-bad-1633602171722.png" class="asset" transform="matrix(0.05261776596307755,0,0,0.061100445687770844,133.47000122070318,249.27256774902347)"></image><text fill="#ffffff" font-family="Freshman" font-size="45" stroke-opacity="1" stroke-width="2" stroke="#ff0000" x="164.94183007315493" y="199.459545006756" transform="matrix(0.38131710886955267,0,0,0.4427903890609742,112.50149536132815,186.10876464843753)" svgjs:data="{&quot;leading&quot;:&quot;1.3&quot;}"><tspan dy="0" x="164.94183007315493" svgjs:data="{&quot;newLined&quot;:true}">Player</tspan></text><image width="760" height="626" xlink:href="https://lct-designs.s3.us-west-1.amazonaws.com/assets/libs/too-good-to-be-bad-1633602171722.png" class="asset" transform="matrix(0.05261776596307755,0,0,0.061100445687770844,22.368465423584013,249.71618652343753)"></image><text fill="#ffffff" font-family="Freshman" font-size="45" stroke-opacity="1" stroke-width="2" stroke="#ff0000" x="164.94183007315493" y="199.459545006756" transform="matrix(0.38131713867187506,0,0,0.44279050827026367,1.3999633789062784,186.55236816406253)" svgjs:data="{&quot;leading&quot;:&quot;1.3&quot;}"><tspan dy="0" x="164.94183007315493" svgjs:data="{&quot;newLined&quot;:true}">Player</tspan></text><text fill="#ffffff" font-family="Freshman" font-size="45" stroke-opacity="1" stroke-width="2" stroke="#ff0000" x="23.70114556387759" y="199.459545006756" transform="matrix(0.42764085531234747,0,0,0.4276408553123474,-2.104678153991699,5.622183799743652)" svgjs:data="{&quot;leading&quot;:&quot;1.3&quot;}"><tspan dy="0" x="23.70114556387759" svgjs:data="{&quot;newLined&quot;:true}">Coach:Coach's name</tspan></text><text fill="#ffffff" font-family="Freshman" font-size="45" stroke-opacity="1" stroke-width="2" stroke="#ff0000" x="58.930988703526026" y="199.459545006756" transform="matrix(0.4286980032920838,0,0,0.42869800329208374,301.9022521972656,2.955368995666497)" svgjs:data="{&quot;leading&quot;:&quot;1.3&quot;}"><tspan dy="0" x="58.930988703526026" svgjs:data="{&quot;newLined&quot;:true}">Team mom: name</tspan></text><g class="mask" style="pointer-events: none;"><g><path fill="#BCBEC0" d="M-3642.4-2101.7v4589.1h7813.4v-4589.1H-3642.4z M500.5,67.2v233.3v66.7H0.5v-66.7V67.2V0.5h500V67.2z" transform="matrix(1,0,0,1,0,0)"></path><g transform="matrix(1,0,0,1,0,0)">
	<rect x="0.5" y="300.5" opacity="0.95" fill="#F1F2F2" width="500" height="66.7"></rect>
	<rect x="0.5" y="0.5" opacity="0.95" fill="#F1F2F2" width="500" height="66.7"></rect>
</g></g></g></svg>