<svg xmlns="http://www.w3.org/2000/svg" version="1.1" xmlns:xlink="http://www.w3.org/1999/xlink" xmlns:svgjs="http://svgjs.dev/svgjs" width="100%" height="100%" viewBox="1 1 499 365.70001220703125" preserveAspectRatio="none" data-info="{&quot;_id&quot;:4,&quot;name&quot;:&quot;POLE POCKET SOCCER BANNERS&quot;,&quot;information&quot;:&quot;- Size: 3’x5’\n- Material: heavy duty vinyl banner\n- Digitally printed on vinyl&quot;,&quot;price&quot;:&quot;95.00&quot;,&quot;sale_price&quot;:&quot;89.99&quot;,&quot;type&quot;:&quot;pole-pocket&quot;,&quot;cover&quot;:{&quot;key&quot;:&quot;assets/models/pole-1628062864266-1631924568908.png&quot;,&quot;url&quot;:&quot;https://lct-designs.s3.us-west-1.amazonaws.com/assets/models/pole-1628062864266-1631924568908.png&quot;},&quot;back&quot;:{&quot;key&quot;:&quot;assets/models/pole-1631924700152.svg&quot;,&quot;url&quot;:&quot;https://lct-designs.s3.us-west-1.amazonaws.com/assets/models/pole-1631924700152.svg&quot;},&quot;mask&quot;:{&quot;key&quot;:&quot;assets/models/pole-mask-1631925211715.svg&quot;,&quot;url&quot;:&quot;https://lct-designs.s3.us-west-1.amazonaws.com/assets/models/pole-mask-1631925211715.svg&quot;},&quot;pos&quot;:&quot;2&quot;,&quot;accessories&quot;:&quot;2,3&quot;}" style="background-color: white;"><g class="model" style="pointer-events: none;"><polygon fill="#FFFFFF" points="0.5,0.5 0.5,67.2 0.5,300.5 0.5,367.2 500.5,367.2 500.5,300.5 500.5,67.2 500.5,0.5 "></polygon></g><image width="760" height="556" xlink:href="https://lct-designs.s3.us-west-1.amazonaws.com/assets/libs/rockets-3-1652238619951.png" class="asset background locked" transform="matrix(0.6595323960558116,0,0,0.6595323960558116,0,0)"></image><image width="760" height="263" xlink:href="https://lct-designs.s3.us-west-1.amazonaws.com/assets/libs/rockets-4-1652238656078.png" class="asset" transform="matrix(0.35724699497222906,0,0,0.35724699497222906,162.2717742919922,88.75050354003906)"></image><image width="760" height="367" xlink:href="https://lct-designs.s3.us-west-1.amazonaws.com/assets/libs/rockets-1-1652238669210.png" class="asset" transform="matrix(0.07015037536621094,0,0,0.07015037536621094,61.049663484096556,215.79762268066406)"></image><text fill="#000000" font-family="American Captain" font-size="45" stroke-opacity="0.9" stroke-width="0" stroke="#ffffff" x="196.88393072804308" y="200.4136183149204" transform="matrix(0.5087128281593323,0,0,0.5087128281593323,-94.21508795022964,135.64553833007812)" svgjs:data="{&quot;leading&quot;:&quot;1.3&quot;}"><tspan dy="0" x="196.88393072804308" svgjs:data="{&quot;newLined&quot;:true}">Player</tspan></text><image width="760" height="367" xlink:href="https://lct-designs.s3.us-west-1.amazonaws.com/assets/libs/rockets-1-1652238669210.png" class="asset" transform="matrix(0.07015040516853333,0,0,0.07015040516853333,72.42995446920392,252.60565185546875)"></image><text fill="#000000" font-family="American Captain" font-size="45" stroke-opacity="0.9" stroke-width="0" stroke="#ffffff" x="196.88393072804308" y="200.4136183149204" transform="matrix(0.5087128281593323,0,0,0.5087128281593323,-82.83479315042496,172.45358276367188)" svgjs:data="{&quot;leading&quot;:&quot;1.3&quot;}"><tspan dy="0" x="196.88393072804308" svgjs:data="{&quot;newLined&quot;:true}">Player</tspan></text><text fill="#000000" font-family="American Captain" font-size="45" stroke-opacity="0.9" stroke-width="0" stroke="#ffffff" x="196.88393072804308" y="200.4136183149204" transform="matrix(0.5087128281593323,0,0,0.5087128281593323,47.7115172743797,178.43490600585938)" svgjs:data="{&quot;leading&quot;:&quot;1.3&quot;}"><tspan dy="0" x="196.88393072804308" svgjs:data="{&quot;newLined&quot;:true}">Player</tspan></text><text fill="#000000" font-family="American Captain" font-size="45" stroke-opacity="0.9" stroke-width="0" stroke="#ffffff" x="196.88393072804308" y="200.4136183149204" transform="matrix(0.5087128281593323,0,0,0.5087128281593323,50.012016236782074,141.62686157226562)" svgjs:data="{&quot;leading&quot;:&quot;1.3&quot;}"><tspan dy="0" x="196.88393072804308" svgjs:data="{&quot;newLined&quot;:true}">Player</tspan></text><image width="760" height="367" xlink:href="https://lct-designs.s3.us-west-1.amazonaws.com/assets/libs/rockets-1-1652238669210.png" class="asset" transform="matrix(0.07015050947666168,0,0,0.07015050947666168,193.8964690566063,184.9709014892578)"></image><text fill="#000000" font-family="American Captain" font-size="45" stroke-opacity="0.9" stroke-width="0" stroke="#ffffff" x="196.88393072804308" y="200.4136183149204" transform="matrix(0.5087128281593323,0,0,0.5087128281593323,38.63172143697739,104.81881713867188)" svgjs:data="{&quot;leading&quot;:&quot;1.3&quot;}"><tspan dy="0" x="196.88393072804308" svgjs:data="{&quot;newLined&quot;:true}">Player</tspan></text><image width="760" height="367" xlink:href="https://lct-designs.s3.us-west-1.amazonaws.com/assets/libs/rockets-1-1652238669210.png" class="asset" transform="matrix(0.07015050202608109,0,0,0.07015050202608109,205.27676385641098,221.7789306640625)"></image><image width="760" height="367" xlink:href="https://lct-designs.s3.us-west-1.amazonaws.com/assets/libs/rockets-1-1652238669210.png" class="asset" transform="matrix(0.0701504796743393,0,0,0.0701504796743393,202.9762572646141,258.5869750976563)"></image><image width="760" height="367" xlink:href="https://lct-designs.s3.us-west-1.amazonaws.com/assets/libs/rockets-1-1652238669210.png" class="asset" transform="matrix(-0.06485085189342499,0,0,0.07015056908130646,318.9215697646141,184.0507049560547)"></image><text fill="#000000" font-family="American Captain" font-size="45" stroke-opacity="0.9" stroke-width="0" stroke="#ffffff" x="196.88393072804308" y="200.4136183149204" transform="matrix(0.5087128281593323,0,0,0.5087128281593323,219.3289641737938,104.35872650146482)" svgjs:data="{&quot;leading&quot;:&quot;1.3&quot;}"><tspan dy="0" x="196.88393072804308" svgjs:data="{&quot;newLined&quot;:true}">Player</tspan></text><image width="760" height="367" xlink:href="https://lct-designs.s3.us-west-1.amazonaws.com/assets/libs/rockets-1-1652238669210.png" class="asset" transform="matrix(-0.06485085189342499,0,0,0.07015058398246765,325.7008666396141,218.55824279785156)"></image><text fill="#000000" font-family="American Captain" font-size="45" stroke-opacity="0.9" stroke-width="0" stroke="#ffffff" x="196.88393072804308" y="200.4136183149204" transform="matrix(0.5087128281593323,0,0,0.5087128281593323,226.1082610487938,138.86627197265625)" svgjs:data="{&quot;leading&quot;:&quot;1.3&quot;}"><tspan dy="0" x="196.88393072804308" svgjs:data="{&quot;newLined&quot;:true}">Player</tspan></text><image width="760" height="367" xlink:href="https://lct-designs.s3.us-west-1.amazonaws.com/assets/libs/rockets-1-1652238669210.png" class="asset" transform="matrix(-0.06485085189342499,0,0,0.07015059888362885,326.4988402724266,257.20669555664057)"></image><text fill="#000000" font-family="American Captain" font-size="45" stroke-opacity="0.9" stroke-width="0" stroke="#ffffff" x="196.88393072804308" y="200.4136183149204" transform="matrix(0.5087128281593323,0,0,0.5087128281593323,226.9062346816063,177.5147247314453)" svgjs:data="{&quot;leading&quot;:&quot;1.3&quot;}"><tspan dy="0" x="196.88393072804308" svgjs:data="{&quot;newLined&quot;:true}">Player</tspan></text><image width="760" height="367" xlink:href="https://lct-designs.s3.us-west-1.amazonaws.com/assets/libs/rockets-1-1652238669210.png" class="asset" transform="matrix(-0.06485085189342499,0,0,0.07015058398246765,435.2047728896141,203.83502197265625)"></image><text fill="#000000" font-family="American Captain" font-size="45" stroke-opacity="0.9" stroke-width="0" stroke="#ffffff" x="196.88393072804308" y="200.4136183149204" transform="matrix(0.5087128281593323,0,0,0.5087128281593323,335.61215204000473,124.14303588867188)" svgjs:data="{&quot;leading&quot;:&quot;1.3&quot;}"><tspan dy="0" x="196.88393072804308" svgjs:data="{&quot;newLined&quot;:true}">Player</tspan></text><image width="760" height="367" xlink:href="https://lct-designs.s3.us-west-1.amazonaws.com/assets/libs/rockets-1-1652238669210.png" class="asset" transform="matrix(-0.06485085189342499,0,0,0.07015059888362885,441.9840697646141,238.34255981445307)"></image><text fill="#000000" font-family="American Captain" font-size="45" stroke-opacity="0.9" stroke-width="0" stroke="#ffffff" x="196.88393072804308" y="200.4136183149204" transform="matrix(0.5087128281593323,0,0,0.5087128281593323,342.39144891500473,158.6505889892578)" svgjs:data="{&quot;leading&quot;:&quot;1.3&quot;}"><tspan dy="0" x="196.88393072804308" svgjs:data="{&quot;newLined&quot;:true}">Player</tspan></text><text fill="#000000" font-family="American Captain" font-size="45" x="101.57844977101183" y="200.4136183149204" transform="matrix(0.3106246888637543,0,0,0.3106246888637543,-25.6752166748047,232.11212158203125)" svgjs:data="{&quot;leading&quot;:&quot;1.3&quot;}"><tspan dy="0" x="101.57844977101183" svgjs:data="{&quot;newLined&quot;:true}">Coach:coach's name</tspan></text><text fill="#000000" font-family="American Captain" font-size="45" x="101.57844977101183" y="200.4136183149204" transform="matrix(0.3106246888637543,0,0,0.3106246888637543,390.59344482421875,231.19190979003906)" svgjs:data="{&quot;leading&quot;:&quot;1.3&quot;}"><tspan dy="0" x="101.57844977101183" svgjs:data="{&quot;newLined&quot;:true}">team mom:name</tspan></text><g class="mask" style="pointer-events: none;"><g><path fill="#BCBEC0" d="M-3642.4-2101.7v4589.1h7813.4v-4589.1H-3642.4z M500.5,67.2v233.3v66.7H0.5v-66.7V67.2V0.5h500V67.2z" transform="matrix(1,0,0,1,0,0)"></path><g transform="matrix(1,0,0,1,0,0)">
	<rect x="0.5" y="300.5" opacity="0.95" fill="#F1F2F2" width="500" height="66.7"></rect>
	<rect x="0.5" y="0.5" opacity="0.95" fill="#F1F2F2" width="500" height="66.7"></rect>
</g></g></g></svg>