<svg xmlns="http://www.w3.org/2000/svg" version="1.1" xmlns:xlink="http://www.w3.org/1999/xlink" xmlns:svgjs="http://svgjs.dev/svgjs" width="100%" height="100%" viewBox="1 1 499 365.70001220703125" preserveAspectRatio="none" data-info="{&quot;_id&quot;:4,&quot;name&quot;:&quot;POLE POCKET SOCCER BANNERS&quot;,&quot;information&quot;:&quot;- Size: 3’x5’\n- Material: heavy duty vinyl banner\n- Digitally printed on vinyl&quot;,&quot;price&quot;:&quot;95.00&quot;,&quot;sale_price&quot;:&quot;89.99&quot;,&quot;type&quot;:&quot;pole-pocket&quot;,&quot;cover&quot;:{&quot;key&quot;:&quot;assets/models/pole-1628062864266-1631924568908.png&quot;,&quot;url&quot;:&quot;https://lct-designs.s3.us-west-1.amazonaws.com/assets/models/pole-1628062864266-1631924568908.png&quot;},&quot;back&quot;:{&quot;key&quot;:&quot;assets/models/pole-1631924700152.svg&quot;,&quot;url&quot;:&quot;https://lct-designs.s3.us-west-1.amazonaws.com/assets/models/pole-1631924700152.svg&quot;},&quot;mask&quot;:{&quot;key&quot;:&quot;assets/models/pole-mask-1631925211715.svg&quot;,&quot;url&quot;:&quot;https://lct-designs.s3.us-west-1.amazonaws.com/assets/models/pole-mask-1631925211715.svg&quot;},&quot;pos&quot;:&quot;2&quot;,&quot;accessories&quot;:&quot;2,3&quot;}" style="background-color: white;"><g class="model" style="pointer-events: none;"><polygon fill="#FFFFFF" points="0.5,0.5 0.5,67.2 0.5,300.5 0.5,367.2 500.5,367.2 500.5,300.5 500.5,67.2 500.5,0.5 "></polygon></g><image width="760" height="556" xlink:href="https://lct-designs.s3.us-west-1.amazonaws.com/assets/libs/dinosaurs-1633428001470.png" class="asset background locked" transform="matrix(0.6595323960558116,0,0,0.6595323960558116,0,0)"></image><text fill="#bb3a21" font-family="Foo" font-size="50" x="166.04423511167727" y="202.53708149662467" stroke-opacity="1" stroke-width="2" stroke="#ffffff" transform="matrix(0.28357309103012085,0,0,0.28357309103012085,-30.26092910766601,28.117055892944336)" svgjs:data="{&quot;leading&quot;:&quot;1.3&quot;}"><tspan dy="0" x="166.04423511167727" svgjs:data="{&quot;newLined&quot;:true}">Coach: coach's name </tspan><tspan dy="65" x="166.04423511167727" svgjs:data="{&quot;newLined&quot;:true}"></tspan><tspan dy="65" x="166.04423511167727" svgjs:data="{&quot;newLined&quot;:true}"></tspan></text><text fill="#bb3a21" font-family="Foo" font-size="50" x="166.04423511167727" y="202.53708149662467" stroke-opacity="1" stroke-width="2" stroke="#ffffff" transform="matrix(0.28357309103012085,0,0,0.28357309103012085,268.04870605468744,28.11705207824707)" svgjs:data="{&quot;leading&quot;:&quot;1.3&quot;}"><tspan dy="0" x="166.04423511167727" svgjs:data="{&quot;newLined&quot;:true}">Team mom: team mom's name</tspan><tspan dy="65" x="166.04423511167727" svgjs:data="{&quot;newLined&quot;:true}"></tspan></text><text fill="#bb3a21" font-family="Foo" font-size="45" x="166.04423511167727" y="202.53708149662467" stroke-opacity="1" stroke-width="2" stroke="#ffffff" transform="matrix(0.3209999799728393,0,0,0.3209999799728393,-30.3797607421875,93.79168701171874)" svgjs:data="{&quot;leading&quot;:&quot;1.3&quot;}"><tspan dy="0" x="166.04423511167727" svgjs:data="{&quot;newLined&quot;:true}">PLAYER</tspan></text><image width="760" height="760" xlink:href="https://lct-designs.s3.us-west-1.amazonaws.com/assets/libs/asset-2-1654132582294.png" class="asset" transform="matrix(0.052789784967899316,0,0,0.05278978496789932,28.51752853393554,105.55178833007814)"></image><text fill="#bb3a21" font-family="Foo" font-size="45" x="166.04423511167727" y="202.53708149662467" stroke-opacity="1" stroke-width="2" stroke="#ffffff" transform="matrix(0.3209999799728393,0,0,0.3209999799728393,44.08846282958984,94.3831329345703)" svgjs:data="{&quot;leading&quot;:&quot;1.3&quot;}"><tspan dy="0" x="166.04423511167727" svgjs:data="{&quot;newLined&quot;:true}">PLAYER</tspan></text><image width="760" height="760" xlink:href="https://lct-designs.s3.us-west-1.amazonaws.com/assets/libs/asset-2-1654132582294.png" class="asset" transform="matrix(0.05278978869318962,0,0,0.05278978869318962,102.98575592041016,106.14323425292967)"></image><text fill="#bb3a21" font-family="Foo" font-size="45" x="166.04423511167727" y="202.53708149662467" stroke-opacity="1" stroke-width="2" stroke="#ffffff" transform="matrix(0.3209999799728393,0,0,0.3209999799728393,-33.44636917114258,222.72814178466797)" svgjs:data="{&quot;leading&quot;:&quot;1.3&quot;}"><tspan dy="0" x="166.04423511167727" svgjs:data="{&quot;newLined&quot;:true}">PLAYER</tspan></text><text fill="#bb3a21" font-family="Foo" font-size="45" x="166.04423511167727" y="202.53708149662467" stroke-opacity="1" stroke-width="2" stroke="#ffffff" transform="matrix(0.3209999799728393,0,0,0.3209999799728393,13.332981109619134,158.2599105834961)" svgjs:data="{&quot;leading&quot;:&quot;1.3&quot;}"><tspan dy="0" x="166.04423511167727" svgjs:data="{&quot;newLined&quot;:true}">PLAYER</tspan></text><image width="760" height="760" xlink:href="https://lct-designs.s3.us-west-1.amazonaws.com/assets/libs/asset-2-1654132582294.png" class="asset" transform="matrix(0.052789811044931405,0,0,0.052789811044931405,25.45092010498046,234.48824310302734)"></image><image width="760" height="760" xlink:href="https://lct-designs.s3.us-west-1.amazonaws.com/assets/libs/asset-2-1654132582294.png" class="asset" transform="matrix(0.052789784967899316,0,0,0.05278978496789932,72.23027038574219,170.02001190185547)"></image><text fill="#bb3a21" font-family="Foo" font-size="45" x="166.04423511167727" y="202.53708149662467" stroke-opacity="1" stroke-width="2" stroke="#ffffff" transform="matrix(0.3209999799728393,0,0,0.3209999799728393,300.77847290039057,92.60878753662108)" svgjs:data="{&quot;leading&quot;:&quot;1.3&quot;}"><tspan dy="0" x="166.04423511167727" svgjs:data="{&quot;newLined&quot;:true}">PLAYER</tspan></text><image width="760" height="760" xlink:href="https://lct-designs.s3.us-west-1.amazonaws.com/assets/libs/asset-2-1654132582294.png" class="asset" transform="matrix(0.05278979241847991,0,0,0.05278979241847992,359.6757507324218,104.36888885498048)"></image><text fill="#bb3a21" font-family="Foo" font-size="45" x="166.04423511167727" y="202.53708149662467" stroke-opacity="1" stroke-width="2" stroke="#ffffff" transform="matrix(0.3209999799728393,0,0,0.3209999799728393,375.24670410156244,93.20023345947264)" svgjs:data="{&quot;leading&quot;:&quot;1.3&quot;}"><tspan dy="0" x="166.04423511167727" svgjs:data="{&quot;newLined&quot;:true}">PLAYER</tspan></text><image width="760" height="760" xlink:href="https://lct-designs.s3.us-west-1.amazonaws.com/assets/libs/asset-2-1654132582294.png" class="asset" transform="matrix(0.052789811044931405,0,0,0.052789811044931405,434.1439819335937,104.96033477783202)"></image><text fill="#bb3a21" font-family="Foo" font-size="45" x="166.04423511167727" y="202.53708149662467" stroke-opacity="1" stroke-width="2" stroke="#ffffff" transform="matrix(0.3209999799728393,0,0,0.3209999799728393,375.78344726562494,222.13668823242188)" svgjs:data="{&quot;leading&quot;:&quot;1.3&quot;}"><tspan dy="0" x="166.04423511167727" svgjs:data="{&quot;newLined&quot;:true}">PLAYER</tspan></text><image width="760" height="760" xlink:href="https://lct-designs.s3.us-west-1.amazonaws.com/assets/libs/asset-2-1654132582294.png" class="asset" transform="matrix(0.0527898408472538,0,0,0.05278984084725379,434.6807556152343,233.89678955078125)"></image><image width="760" height="760" xlink:href="https://lct-designs.s3.us-west-1.amazonaws.com/assets/libs/asset-2-1654132582294.png" class="asset" transform="matrix(0.052789803594350815,0,0,0.05278980359435081,391.55944824218744,167.65420532226562)"></image><text fill="#bb3a21" font-family="Foo" font-size="45" x="166.04423511167727" y="202.53708149662467" stroke-opacity="1" stroke-width="2" stroke="#ffffff" transform="matrix(0.3209999799728393,0,0,0.3209999799728393,332.6621704101562,155.89410400390625)" svgjs:data="{&quot;leading&quot;:&quot;1.3&quot;}"><tspan dy="0" x="166.04423511167727" svgjs:data="{&quot;newLined&quot;:true}">PLAYER</tspan></text><image width="760" height="441" xlink:href="https://lct-designs.s3.us-west-1.amazonaws.com/assets/libs/dinosaurs-1633428132441.png" class="asset" transform="matrix(0.3233605027198791,0,0,0.32336050271987915,129.61724853515625,114.11812591552736)"></image><g class="mask" style="pointer-events: none;"><g><path fill="#BCBEC0" d="M-3642.4-2101.7v4589.1h7813.4v-4589.1H-3642.4z M500.5,67.2v233.3v66.7H0.5v-66.7V67.2V0.5h500V67.2z" transform="matrix(1,0,0,1,0,0)"></path><g transform="matrix(1,0,0,1,0,0)">
	<rect x="0.5" y="300.5" opacity="0.95" fill="#F1F2F2" width="500" height="66.7"></rect>
	<rect x="0.5" y="0.5" opacity="0.95" fill="#F1F2F2" width="500" height="66.7"></rect>
</g></g></g></svg>