<svg xmlns="http://www.w3.org/2000/svg" version="1.1" xmlns:xlink="http://www.w3.org/1999/xlink" xmlns:svgjs="http://svgjs.dev/svgjs" width="100%" height="100%" viewBox="1 1 499 365.70001220703125" preserveAspectRatio="none" data-info="{&quot;_id&quot;:4,&quot;name&quot;:&quot;POLE POCKET SOCCER BANNERS&quot;,&quot;information&quot;:&quot;- Size: 3’x5’\n- Material: heavy duty vinyl banner\n- Digitally printed on vinyl&quot;,&quot;price&quot;:&quot;95.00&quot;,&quot;sale_price&quot;:&quot;89.99&quot;,&quot;type&quot;:&quot;pole-pocket&quot;,&quot;cover&quot;:{&quot;key&quot;:&quot;assets/models/pole-1628062864266-1631924568908.png&quot;,&quot;url&quot;:&quot;https://lct-designs.s3.us-west-1.amazonaws.com/assets/models/pole-1628062864266-1631924568908.png&quot;},&quot;back&quot;:{&quot;key&quot;:&quot;assets/models/pole-1631924700152.svg&quot;,&quot;url&quot;:&quot;https://lct-designs.s3.us-west-1.amazonaws.com/assets/models/pole-1631924700152.svg&quot;},&quot;mask&quot;:{&quot;key&quot;:&quot;assets/models/pole-mask-1631925211715.svg&quot;,&quot;url&quot;:&quot;https://lct-designs.s3.us-west-1.amazonaws.com/assets/models/pole-mask-1631925211715.svg&quot;},&quot;pos&quot;:&quot;2&quot;,&quot;accessories&quot;:&quot;2,3&quot;}" style="background-color: white;"><g class="model" style="pointer-events: none;"><polygon fill="#FFFFFF" points="0.5,0.5 0.5,67.2 0.5,300.5 0.5,367.2 500.5,367.2 500.5,300.5 500.5,67.2 500.5,0.5 "></polygon></g><image width="760" height="556" xlink:href="https://lct-designs.s3.us-west-1.amazonaws.com/assets/libs/chiefs-1631957012906.png" class="asset background locked" transform="matrix(0.6595323960558116,0,0,0.6595323960558116,0,0)"></image><text fill="#be1e2d" font-family="UTM Rockwell" font-size="32" x="196.88127233350318" y="200.48091056834267" stroke-opacity="1" stroke-width="1" stroke="#ffffff" transform="matrix(0.3335745036602021,0,0,0.3335745036602021,-56.28043365478517,18.838912963867188)" svgjs:data="{&quot;leading&quot;:&quot;1.3&quot;}"><tspan dy="0" x="196.88127233350318" svgjs:data="{&quot;newLined&quot;:true}">COACH: COACH'S NAME</tspan></text><text fill="#be1e2d" font-family="UTM Rockwell" font-size="32" x="196.88127233350318" y="200.48091056834267" stroke-opacity="1" stroke-width="1" stroke="#ffffff" transform="matrix(0.3335745036602021,0,0,0.3335745036602021,-56.28042602539064,31.421743392944336)" svgjs:data="{&quot;leading&quot;:&quot;1.3&quot;}"><tspan dy="0" x="196.88127233350318" svgjs:data="{&quot;newLined&quot;:true}">TEAM MOM: TEAM MOM'S NAME</tspan><tspan dy="40.300000000000004" x="196.88127233350318" svgjs:data="{&quot;newLined&quot;:true}"></tspan></text><text fill="#be1e2d" font-family="UTM Rockwell" font-size="70" x="196.88127233350318" y="200.48091056834267" stroke-opacity="1" stroke-width="1" stroke="#ffffff" transform="matrix(0.18413831293582916,0,0,0.18089175224304202,322.60668945312506,91.31542968750001)" svgjs:data="{&quot;leading&quot;:&quot;1.3&quot;}"><tspan dy="0" x="196.88127233350318" svgjs:data="{&quot;newLined&quot;:true}">PLAYER</tspan><tspan dy="91" x="196.88127233350318" svgjs:data="{&quot;newLined&quot;:true}"></tspan></text><image width="760" height="497" xlink:href="https://lct-designs.s3.us-west-1.amazonaws.com/assets/libs/chiefs-2-1631957880271.png" class="asset" transform="matrix(0.05854342132806778,0,0,0.05854342132806778,366.44323730468756,85.34175109863283)"></image><text fill="#be1e2d" font-family="UTM Rockwell" font-size="70" x="196.88127233350318" y="200.48091056834267" stroke-opacity="1" stroke-width="1" stroke="#ffffff" transform="matrix(0.18413831293582916,0,0,0.18089175224304202,323.61895751953125,155.42800903320318)" svgjs:data="{&quot;leading&quot;:&quot;1.3&quot;}"><tspan dy="0" x="196.88127233350318" svgjs:data="{&quot;newLined&quot;:true}">PLAYER</tspan><tspan dy="91" x="196.88127233350318" svgjs:data="{&quot;newLined&quot;:true}"></tspan></text><text fill="#be1e2d" font-family="UTM Rockwell" font-size="70" x="196.88127233350318" y="200.48091056834267" stroke-opacity="1" stroke-width="1" stroke="#ffffff" transform="matrix(0.18413831293582916,0,0,0.18089175224304202,324.0320129394531,219.54060363769537)" svgjs:data="{&quot;leading&quot;:&quot;1.3&quot;}"><tspan dy="0" x="196.88127233350318" svgjs:data="{&quot;newLined&quot;:true}">PLAYER</tspan><tspan dy="91" x="196.88127233350318" svgjs:data="{&quot;newLined&quot;:true}"></tspan></text><image width="760" height="497" xlink:href="https://lct-designs.s3.us-west-1.amazonaws.com/assets/libs/chiefs-2-1631957880271.png" class="asset" transform="matrix(0.05854342132806778,0,0,0.05854342132806778,367.8685607910156,213.56692504882818)"></image><text fill="#be1e2d" font-family="UTM Rockwell" font-size="70" x="196.88127233350318" y="200.48091056834267" stroke-opacity="1" stroke-width="1" stroke="#ffffff" transform="matrix(0.18413831293582916,0,0,0.18089175224304202,390.50665283203125,245.23793029785162)" svgjs:data="{&quot;leading&quot;:&quot;1.3&quot;}"><tspan dy="0" x="196.88127233350318" svgjs:data="{&quot;newLined&quot;:true}">PLAYER</tspan><tspan dy="91" x="196.88127233350318" svgjs:data="{&quot;newLined&quot;:true}"></tspan></text><text fill="#be1e2d" font-family="UTM Rockwell" font-size="70" x="196.88127233350318" y="200.48091056834267" stroke-opacity="1" stroke-width="1" stroke="#ffffff" transform="matrix(0.18413831293582916,0,0,0.18089175224304202,-13.721115112304695,245.23786926269537)" svgjs:data="{&quot;leading&quot;:&quot;1.3&quot;}"><tspan dy="0" x="196.88127233350318" svgjs:data="{&quot;newLined&quot;:true}">PLAYER</tspan><tspan dy="91" x="196.88127233350318" svgjs:data="{&quot;newLined&quot;:true}"></tspan></text><text fill="#be1e2d" font-family="UTM Rockwell" font-size="70" x="196.88127233350318" y="200.48091056834267" stroke-opacity="1" stroke-width="1" stroke="#ffffff" transform="matrix(0.18413831293582916,0,0,0.18089175224304202,63.98656463623048,245.23788452148438)" svgjs:data="{&quot;leading&quot;:&quot;1.3&quot;}"><tspan dy="0" x="196.88127233350318" svgjs:data="{&quot;newLined&quot;:true}">PLAYER</tspan><tspan dy="91" x="196.88127233350318" svgjs:data="{&quot;newLined&quot;:true}"></tspan></text><image width="760" height="497" xlink:href="https://lct-designs.s3.us-west-1.amazonaws.com/assets/libs/chiefs-2-1631957880271.png" class="asset" transform="matrix(0.05854342132806778,0,0,0.05854342132806778,30.115432739257812,239.26429748535156)"></image><image width="760" height="497" xlink:href="https://lct-designs.s3.us-west-1.amazonaws.com/assets/libs/chiefs-2-1631957880271.png" class="asset" transform="matrix(0.05854342132806778,0,0,0.05854342132806778,107.82311248779298,239.26429748535156)"></image><image width="760" height="497" xlink:href="https://lct-designs.s3.us-west-1.amazonaws.com/assets/libs/chiefs-2-1631957880271.png" class="asset" transform="matrix(0.05854342132806778,0,0,0.05854342132806778,434.343231201172,239.26426696777344)"></image><image width="760" height="497" xlink:href="https://lct-designs.s3.us-west-1.amazonaws.com/assets/libs/chiefs-2-1631957880271.png" class="asset" transform="matrix(0.05854342132806778,0,0,0.05854342132806778,367.45550537109375,149.45433044433594)"></image><text fill="#be1e2d" font-family="UTM Rockwell" font-size="70" x="196.88127233350318" y="200.48091056834267" stroke-opacity="1" stroke-width="1" stroke="#ffffff" transform="matrix(0.18413831293582916,0,0,0.18089175224304202,390.0935974121094,181.12535095214844)" svgjs:data="{&quot;leading&quot;:&quot;1.3&quot;}"><tspan dy="0" x="196.88127233350318" svgjs:data="{&quot;newLined&quot;:true}">PLAYER</tspan><tspan dy="91" x="196.88127233350318" svgjs:data="{&quot;newLined&quot;:true}"></tspan></text><image width="760" height="497" xlink:href="https://lct-designs.s3.us-west-1.amazonaws.com/assets/libs/chiefs-2-1631957880271.png" class="asset" transform="matrix(0.05854342132806778,0,0,0.05854342132806778,433.9301757812501,175.15167236328125)"></image><text fill="#be1e2d" font-family="UTM Rockwell" font-size="70" x="196.88127233350318" y="200.48091056834267" stroke-opacity="1" stroke-width="1" stroke="#ffffff" transform="matrix(0.18413831293582916,0,0,0.18089175224304202,389.0813293457032,117.0127716064453)" svgjs:data="{&quot;leading&quot;:&quot;1.3&quot;}"><tspan dy="0" x="196.88127233350318" svgjs:data="{&quot;newLined&quot;:true}">PLAYER</tspan><tspan dy="91" x="196.88127233350318" svgjs:data="{&quot;newLined&quot;:true}"></tspan></text><image width="760" height="497" xlink:href="https://lct-designs.s3.us-west-1.amazonaws.com/assets/libs/chiefs-2-1631957880271.png" class="asset" transform="matrix(0.05854342132806778,0,0,0.05854342132806778,432.91790771484375,111.03909301757811)"></image><image width="699" height="760" xlink:href="https://lct-designs.s3.us-west-1.amazonaws.com/assets/libs/chiefs-1631957951974.png" class="asset" transform="matrix(0.24826052784919742,0,0,0.2482605278491974,173.45481872558594,98.59738922119142)"></image><image width="760" height="690" xlink:href="https://lct-designs.s3.us-west-1.amazonaws.com/assets/libs/chiefs-1-1631957880271.png" class="asset" transform="matrix(0.17412902414798737,0,0,0.1741290241479874,38.819766998291016,112.19039154052733)"></image><g class="mask" style="pointer-events: none;"><g><path fill="#BCBEC0" d="M-3642.4-2101.7v4589.1h7813.4v-4589.1H-3642.4z M500.5,67.2v233.3v66.7H0.5v-66.7V67.2V0.5h500V67.2z" transform="matrix(1,0,0,1,0,0)"></path><g transform="matrix(1,0,0,1,0,0)">
	<rect x="0.5" y="300.5" opacity="0.95" fill="#F1F2F2" width="500" height="66.7"></rect>
	<rect x="0.5" y="0.5" opacity="0.95" fill="#F1F2F2" width="500" height="66.7"></rect>
</g></g></g></svg>