<svg xmlns="http://www.w3.org/2000/svg" version="1.1" xmlns:xlink="http://www.w3.org/1999/xlink" xmlns:svgjs="http://svgjs.dev/svgjs" width="100%" height="100%" viewBox="1 1 499 365.70001220703125" preserveAspectRatio="none" data-info="{&quot;_id&quot;:4,&quot;name&quot;:&quot;POLE POCKET SOCCER BANNERS&quot;,&quot;information&quot;:&quot;- Size: 3’x5’\n- Material: heavy duty vinyl banner\n- Digitally printed on vinyl&quot;,&quot;price&quot;:&quot;95.00&quot;,&quot;sale_price&quot;:&quot;89.99&quot;,&quot;type&quot;:&quot;pole-pocket&quot;,&quot;cover&quot;:{&quot;key&quot;:&quot;assets/models/pole-1628062864266-1631924568908.png&quot;,&quot;url&quot;:&quot;https://lct-designs.s3.us-west-1.amazonaws.com/assets/models/pole-1628062864266-1631924568908.png&quot;},&quot;back&quot;:{&quot;key&quot;:&quot;assets/models/pole-1631924700152.svg&quot;,&quot;url&quot;:&quot;https://lct-designs.s3.us-west-1.amazonaws.com/assets/models/pole-1631924700152.svg&quot;},&quot;mask&quot;:{&quot;key&quot;:&quot;assets/models/pole-mask-1631925211715.svg&quot;,&quot;url&quot;:&quot;https://lct-designs.s3.us-west-1.amazonaws.com/assets/models/pole-mask-1631925211715.svg&quot;},&quot;pos&quot;:&quot;2&quot;,&quot;accessories&quot;:&quot;2,3&quot;}" style="background-color: white;"><g class="model" style="pointer-events: none;"><polygon fill="#FFFFFF" points="0.5,0.5 0.5,67.2 0.5,300.5 0.5,367.2 500.5,367.2 500.5,300.5 500.5,67.2 500.5,0.5 "></polygon></g><image width="760" height="553" xlink:href="https://lct-designs.s3.us-west-1.amazonaws.com/assets/libs/lemonheads-1632741205262.png" class="asset background locked" transform="matrix(0.6631103294883024,0,0,0.6631103294883024,0,0)"></image><text fill="#fff200" font-family="Foo" font-size="50" stroke-opacity="1" stroke-width="3" stroke="#000000" x="-98.72634249947717" y="199.47500657859518" transform="matrix(0.23170660436153412,0,0,0.23170660436153412,32.333898544311516,246.34928894042974)" svgjs:data="{&quot;leading&quot;:&quot;1.3&quot;}"><tspan dy="0" x="-98.72634249947717" svgjs:data="{&quot;newLined&quot;:true}">COACH: COACH'S NAME</tspan></text><text fill="#fff200" font-family="Foo" font-size="50" stroke-opacity="1" stroke-width="3" stroke="#000000" x="-98.72634249947717" y="199.47500657859518" transform="matrix(0.2317061275243759,0,0,0.23170612752437594,352.61395263671875,246.34938049316412)" svgjs:data="{&quot;leading&quot;:&quot;1.3&quot;}"><tspan dy="0" x="-98.72634249947717" svgjs:data="{&quot;newLined&quot;:true}">TEAM MOM: TEAM MOM'S NAME</tspan></text><image width="760" height="760" xlink:href="https://lct-designs.s3.us-west-1.amazonaws.com/assets/libs/tremors-soccer-2-1653875294330.png" class="asset" transform="matrix(0.04103117808699608,0,0,0.041031178086996085,87.79108428955078,211.30700683593756)"></image><text fill="#fff200" font-family="Foo" font-size="50" stroke-opacity="1" stroke-width="2" stroke="#000000" x="-98.72634249947717" y="199.47500657859518" transform="matrix(0.2877419888973236,0,0,0.28774198889732366,106.19591522216797,135.36146545410156)" svgjs:data="{&quot;leading&quot;:&quot;1.3&quot;}"><tspan dy="0" x="-98.72634249947717" svgjs:data="{&quot;newLined&quot;:true}">PLAYER</tspan></text><text fill="#fff200" font-family="Foo" font-size="50" stroke-opacity="1" stroke-width="2" stroke="#000000" x="-98.72634249947717" y="199.47500657859518" transform="matrix(0.2877419888973236,0,0,0.28774198889732366,106.1958999633789,197.94647216796875)" svgjs:data="{&quot;leading&quot;:&quot;1.3&quot;}"><tspan dy="0" x="-98.72634249947717" svgjs:data="{&quot;newLined&quot;:true}">PLAYER</tspan></text><image width="760" height="760" xlink:href="https://lct-designs.s3.us-west-1.amazonaws.com/assets/libs/tremors-soccer-2-1653875294330.png" class="asset" transform="matrix(0.04103117808699608,0,0,0.041031178086996085,23.310068130493157,193.0274200439453)"></image><image width="760" height="760" xlink:href="https://lct-designs.s3.us-west-1.amazonaws.com/assets/libs/tremors-soccer-2-1653875294330.png" class="asset" transform="matrix(0.04103117808699608,0,0,0.041031178086996085,23.310071945190423,129.5865478515625)"></image><image width="760" height="760" xlink:href="https://lct-designs.s3.us-west-1.amazonaws.com/assets/libs/tremors-soccer-2-1653875294330.png" class="asset" transform="matrix(0.04103117808699608,0,0,0.041031178086996085,451.5896301269531,191.95213317871094)"></image><image width="760" height="760" xlink:href="https://lct-designs.s3.us-west-1.amazonaws.com/assets/libs/tremors-soccer-2-1653875294330.png" class="asset" transform="matrix(0.04103117808699608,0,0,0.041031178086996085,451.58966064453125,128.51126098632812)"></image><text fill="#fff200" font-family="Foo" font-size="50" stroke-opacity="1" stroke-width="2" stroke="#000000" x="-98.72634249947717" y="199.47500657859518" transform="matrix(0.2877419888973236,0,0,0.28774198889732366,469.9944763183594,116.87282562255858)" svgjs:data="{&quot;leading&quot;:&quot;1.3&quot;}"><tspan dy="0" x="-98.72634249947717" svgjs:data="{&quot;newLined&quot;:true}">PLAYER</tspan></text><text fill="#fff200" font-family="Foo" font-size="50" stroke-opacity="1" stroke-width="2" stroke="#000000" x="-98.72634249947717" y="199.47500657859518" transform="matrix(0.2877419888973236,0,0,0.28774198889732366,469.9944763183594,179.4578399658203)" svgjs:data="{&quot;leading&quot;:&quot;1.3&quot;}"><tspan dy="0" x="-98.72634249947717" svgjs:data="{&quot;newLined&quot;:true}">PLAYER</tspan></text><text fill="#fff200" font-family="Foo" font-size="50" stroke-opacity="1" stroke-width="2" stroke="#000000" x="-98.72634249947717" y="199.47500657859518" transform="matrix(0.2877419888973236,0,0,0.28774198889732366,41.71489334106445,117.94811248779295)" svgjs:data="{&quot;leading&quot;:&quot;1.3&quot;}"><tspan dy="0" x="-98.72634249947717" svgjs:data="{&quot;newLined&quot;:true}">PLAYER</tspan></text><text fill="#fff200" font-family="Foo" font-size="50" stroke-opacity="1" stroke-width="2" stroke="#000000" x="-98.72634249947717" y="199.47500657859518" transform="matrix(0.2877419888973236,0,0,0.28774198889732366,41.71488952636717,180.5331268310547)" svgjs:data="{&quot;leading&quot;:&quot;1.3&quot;}"><tspan dy="0" x="-98.72634249947717" svgjs:data="{&quot;newLined&quot;:true}">PLAYER</tspan></text><image width="760" height="760" xlink:href="https://lct-designs.s3.us-west-1.amazonaws.com/assets/libs/tremors-soccer-2-1653875294330.png" class="asset" transform="matrix(0.04103117808699608,0,0,0.041031178086996085,153.24414062500003,224.74783325195312)"></image><text fill="#fff200" font-family="Foo" font-size="50" stroke-opacity="1" stroke-width="2" stroke="#000000" x="-98.72634249947717" y="199.47500657859518" transform="matrix(0.2877419888973236,0,0,0.28774198889732366,171.64895629882812,148.16534423828125)" svgjs:data="{&quot;leading&quot;:&quot;1.3&quot;}"><tspan dy="0" x="-98.72634249947717" svgjs:data="{&quot;newLined&quot;:true}">PLAYER</tspan></text><text fill="#fff200" font-family="Foo" font-size="50" stroke-opacity="1" stroke-width="2" stroke="#000000" x="-98.72634249947717" y="199.47500657859518" transform="matrix(0.2877419888973236,0,0,0.28774198889732366,171.6489715576172,210.75035095214844)" svgjs:data="{&quot;leading&quot;:&quot;1.3&quot;}"><tspan dy="0" x="-98.72634249947717" svgjs:data="{&quot;newLined&quot;:true}">PLAYER</tspan></text><image width="760" height="144" xlink:href="https://lct-designs.s3.us-west-1.amazonaws.com/assets/libs/lemonheads-1-1632741368605.png" class="asset" transform="matrix(0.5235768556594849,0,0,0.523576855659485,35.40675354003906,79.99757385253905)"></image><image width="552" height="760" xlink:href="https://lct-designs.s3.us-west-1.amazonaws.com/assets/libs/lemonheads-3-1632741340020.png" class="asset" transform="matrix(0.164826899766922,0,0,0.16482689976692202,205.00276184082034,129.5865478515625)"></image><image width="760" height="760" xlink:href="https://lct-designs.s3.us-west-1.amazonaws.com/assets/libs/tremors-soccer-2-1653875294330.png" class="asset" transform="matrix(0.04103117808699608,0,0,0.041031178086996085,391.6971435546875,211.8446044921875)"></image><text fill="#fff200" font-family="Foo" font-size="50" stroke-opacity="1" stroke-width="2" stroke="#000000" x="-98.72634249947717" y="199.47500657859518" transform="matrix(0.2877419888973236,0,0,0.28774198889732366,410.10198974609375,136.76528930664062)" svgjs:data="{&quot;leading&quot;:&quot;1.3&quot;}"><tspan dy="0" x="-98.72634249947717" svgjs:data="{&quot;newLined&quot;:true}">PLAYER</tspan></text><image width="760" height="760" xlink:href="https://lct-designs.s3.us-west-1.amazonaws.com/assets/libs/tremors-soccer-2-1653875294330.png" class="asset" transform="matrix(0.04103117808699608,0,0,0.041031178086996085,391.6971740722656,148.4037322998047)"></image><text fill="#fff200" font-family="Foo" font-size="50" stroke-opacity="1" stroke-width="2" stroke="#000000" x="-98.72634249947717" y="199.47500657859518" transform="matrix(0.2877419888973236,0,0,0.28774198889732366,410.10198974609375,199.35031127929693)" svgjs:data="{&quot;leading&quot;:&quot;1.3&quot;}"><tspan dy="0" x="-98.72634249947717" svgjs:data="{&quot;newLined&quot;:true}">PLAYER</tspan></text><image width="760" height="760" xlink:href="https://lct-designs.s3.us-west-1.amazonaws.com/assets/libs/tremors-soccer-2-1653875294330.png" class="asset" transform="matrix(0.04103117808699608,0,0,0.041031178086996085,87.79108428955078,147.8661346435547)"></image><image width="760" height="760" xlink:href="https://lct-designs.s3.us-west-1.amazonaws.com/assets/libs/tremors-soccer-2-1653875294330.png" class="asset" transform="matrix(0.04103117808699608,0,0,0.041031178086996085,152.70651245117188,161.3069610595703)"></image><image width="760" height="760" xlink:href="https://lct-designs.s3.us-west-1.amazonaws.com/assets/libs/tremors-soccer-2-1653875294330.png" class="asset" transform="matrix(0.04103117808699608,0,0,0.041031178086996085,323.74017333984375,225.28547668457037)"></image><text fill="#fff200" font-family="Foo" font-size="50" stroke-opacity="1" stroke-width="2" stroke="#000000" x="-98.72634249947717" y="199.47500657859518" transform="matrix(0.2877419888973236,0,0,0.28774198889732366,342.14501953125006,150.20616149902344)" svgjs:data="{&quot;leading&quot;:&quot;1.3&quot;}"><tspan dy="0" x="-98.72634249947717" svgjs:data="{&quot;newLined&quot;:true}">PLAYER</tspan></text><image width="760" height="760" xlink:href="https://lct-designs.s3.us-west-1.amazonaws.com/assets/libs/tremors-soccer-2-1653875294330.png" class="asset" transform="matrix(0.04103117808699608,0,0,0.041031178086996085,323.7402038574219,161.8446044921875)"></image><text fill="#fff200" font-family="Foo" font-size="50" stroke-opacity="1" stroke-width="2" stroke="#000000" x="-98.72634249947717" y="199.47500657859518" transform="matrix(0.2877419888973236,0,0,0.28774198889732366,342.14501953125006,212.7911834716797)" svgjs:data="{&quot;leading&quot;:&quot;1.3&quot;}"><tspan dy="0" x="-98.72634249947717" svgjs:data="{&quot;newLined&quot;:true}">PLAYER</tspan></text><g class="mask" style="pointer-events: none;"><g><path fill="#BCBEC0" d="M-3642.4-2101.7v4589.1h7813.4v-4589.1H-3642.4z M500.5,67.2v233.3v66.7H0.5v-66.7V67.2V0.5h500V67.2z" transform="matrix(1,0,0,1,0,0)"></path><g transform="matrix(1,0,0,1,0,0)">
	<rect x="0.5" y="300.5" opacity="0.95" fill="#F1F2F2" width="500" height="66.7"></rect>
	<rect x="0.5" y="0.5" opacity="0.95" fill="#F1F2F2" width="500" height="66.7"></rect>
</g></g></g></svg>