<svg xmlns="http://www.w3.org/2000/svg" version="1.1" xmlns:xlink="http://www.w3.org/1999/xlink" xmlns:svgjs="http://svgjs.dev/svgjs" width="100%" height="100%" viewBox="1 1 499 365.70001220703125" preserveAspectRatio="none" data-info="{&quot;_id&quot;:4,&quot;name&quot;:&quot;POLE POCKET SOCCER BANNERS&quot;,&quot;information&quot;:&quot;- Size: 3’x5’\n- Material: heavy duty vinyl banner\n- Digitally printed on vinyl&quot;,&quot;price&quot;:&quot;95.00&quot;,&quot;sale_price&quot;:&quot;89.99&quot;,&quot;type&quot;:&quot;pole-pocket&quot;,&quot;cover&quot;:{&quot;key&quot;:&quot;assets/models/pole-1628062864266-1631924568908.png&quot;,&quot;url&quot;:&quot;https://lct-designs.s3.us-west-1.amazonaws.com/assets/models/pole-1628062864266-1631924568908.png&quot;},&quot;back&quot;:{&quot;key&quot;:&quot;assets/models/pole-1631924700152.svg&quot;,&quot;url&quot;:&quot;https://lct-designs.s3.us-west-1.amazonaws.com/assets/models/pole-1631924700152.svg&quot;},&quot;mask&quot;:{&quot;key&quot;:&quot;assets/models/pole-mask-1631925211715.svg&quot;,&quot;url&quot;:&quot;https://lct-designs.s3.us-west-1.amazonaws.com/assets/models/pole-mask-1631925211715.svg&quot;},&quot;pos&quot;:&quot;2&quot;,&quot;accessories&quot;:&quot;2,3&quot;}" style="background-color: white;"><g class="model" style="pointer-events: none;"><polygon fill="#FFFFFF" points="0.5,0.5 0.5,67.2 0.5,300.5 0.5,367.2 500.5,367.2 500.5,300.5 500.5,67.2 500.5,0.5 "></polygon></g><image width="760" height="553" xlink:href="https://lct-designs.s3.us-west-1.amazonaws.com/assets/libs/lucky-charms-1633402757834.png" class="asset background locked" transform="matrix(0.6631103294883024,0,0,0.6631103294883024,0,0)"></image><text fill="#11cc2b" font-family="Foo" font-size="50" stroke-opacity="1" stroke-width="2" stroke="#000000" x="-98.72634249947717" y="199.47500657859518" transform="matrix(0.1945931315422058,0,0,0.19459313154220584,410.7044982910156,44.4866180419922)" svgjs:data="{&quot;leading&quot;:&quot;1.3&quot;}"><tspan dy="0" x="-98.72634249947717" svgjs:data="{&quot;newLined&quot;:true}">COACH: COACH'S NAME</tspan></text><text fill="#11cc2b" font-family="Foo" font-size="50" stroke-opacity="1" stroke-width="2" stroke="#000000" x="-98.72634249947717" y="199.47500657859518" transform="matrix(0.1945929080247879,0,0,0.1945929080247879,376.48907470703125,55.54351806640625)" svgjs:data="{&quot;leading&quot;:&quot;1.3&quot;}"><tspan dy="0" x="-98.72634249947717" svgjs:data="{&quot;newLined&quot;:true}">TEAM MOM: TEAM MOM'S NAME</tspan></text><text fill="#ffffff" font-family="Foo" font-size="50" stroke-opacity="1" stroke-width="1" stroke="#000000" x="-98.72634249947717" y="199.47500657859518" transform="matrix(0.24431121926748744,0,0,0.24431121926748747,257.95340998924075,179.12424767288758)" svgjs:data="{&quot;leading&quot;:&quot;1.3&quot;}"><tspan dy="0" x="-98.72634249947717" svgjs:data="{&quot;newLined&quot;:true}">PLAYER</tspan></text><text fill="#ffffff" font-family="Foo" font-size="50" stroke-opacity="1" stroke-width="1" stroke="#000000" x="-98.72634249947717" y="199.47500657859518" transform="matrix(0.24431121926748744,0,0,0.24431121926748747,259.31746542869223,237.3598614271832)" svgjs:data="{&quot;leading&quot;:&quot;1.3&quot;}"><tspan dy="0" x="-98.72634249947717" svgjs:data="{&quot;newLined&quot;:true}">PLAYER</tspan></text><text fill="#ffffff" font-family="Foo" font-size="50" stroke-opacity="1" stroke-width="1" stroke="#000000" x="-98.72634249947717" y="199.47500657859518" transform="matrix(0.24431121926748744,0,0,0.24431121926748747,328.3607557123978,237.35987631731768)" svgjs:data="{&quot;leading&quot;:&quot;1.3&quot;}"><tspan dy="0" x="-98.72634249947717" svgjs:data="{&quot;newLined&quot;:true}">PLAYER</tspan></text><text fill="#ffffff" font-family="Foo" font-size="50" stroke-opacity="1" stroke-width="1" stroke="#000000" x="-98.72634249947717" y="199.47500657859518" transform="matrix(0.24431121926748744,0,0,0.24431121926748747,394.25612266566895,237.35989120745216)" svgjs:data="{&quot;leading&quot;:&quot;1.3&quot;}"><tspan dy="0" x="-98.72634249947717" svgjs:data="{&quot;newLined&quot;:true}">PLAYER</tspan></text><text fill="#ffffff" font-family="Foo" font-size="50" stroke-opacity="1" stroke-width="1" stroke="#000000" x="-98.72634249947717" y="199.47500657859518" transform="matrix(0.24431122839450836,0,0,0.2443112283945084,463.2994384765625,237.35989379882818)" svgjs:data="{&quot;leading&quot;:&quot;1.3&quot;}"><tspan dy="0" x="-98.72634249947717" svgjs:data="{&quot;newLined&quot;:true}">PLAYER</tspan></text><image width="749" height="760" xlink:href="https://lct-designs.s3.us-west-1.amazonaws.com/assets/libs/lucky-charms-2-1633342536149.png" class="asset" transform="matrix(0.04904732853174209,0,0,0.049047328531742096,442.5047607421875,239.43508911132812)"></image><text fill="#ffffff" font-family="Foo" font-size="50" stroke-opacity="1" stroke-width="1" stroke="#000000" x="-98.72634249947717" y="199.47500657859518" transform="matrix(0.24431122839450836,0,0,0.2443112283945084,461.9353942871094,179.12428283691412)" svgjs:data="{&quot;leading&quot;:&quot;1.3&quot;}"><tspan dy="0" x="-98.72634249947717" svgjs:data="{&quot;newLined&quot;:true}">PLAYER</tspan></text><text fill="#ffffff" font-family="Foo" font-size="50" stroke-opacity="1" stroke-width="1" stroke="#000000" x="-98.72634249947717" y="199.47500657859518" transform="matrix(0.24431122839450836,0,0,0.2443112283945084,460.9338073730469,117.4674224853516)" svgjs:data="{&quot;leading&quot;:&quot;1.3&quot;}"><tspan dy="0" x="-98.72634249947717" svgjs:data="{&quot;newLined&quot;:true}">PLAYER</tspan></text><image width="749" height="760" xlink:href="https://lct-designs.s3.us-west-1.amazonaws.com/assets/libs/lucky-charms-2-1633342536149.png" class="asset" transform="matrix(0.04904732853174209,0,0,0.049047328531742096,440.1391296386719,119.5426177978516)"></image><image width="749" height="760" xlink:href="https://lct-designs.s3.us-west-1.amazonaws.com/assets/libs/lucky-charms-2-1633342536149.png" class="asset" transform="matrix(0.04904732853174209,0,0,0.049047328531742096,441.1407165527344,181.19947814941412)"></image><image width="749" height="760" xlink:href="https://lct-designs.s3.us-west-1.amazonaws.com/assets/libs/lucky-charms-2-1633342536149.png" class="asset" transform="matrix(0.049047328661319334,0,0,0.04904732866131934,238.52275235147317,239.43506968940346)"></image><image width="749" height="760" xlink:href="https://lct-designs.s3.us-west-1.amazonaws.com/assets/libs/lucky-charms-2-1633342536149.png" class="asset" transform="matrix(0.049047328661319334,0,0,0.04904732866131934,307.56608730558224,239.43508457953794)"></image><image width="749" height="760" xlink:href="https://lct-designs.s3.us-west-1.amazonaws.com/assets/libs/lucky-charms-2-1633342536149.png" class="asset" transform="matrix(0.049047328661319334,0,0,0.04904732866131934,373.46145425885334,239.43508457953794)"></image><text fill="#ffffff" font-family="Foo" font-size="50" stroke-opacity="1" stroke-width="1" stroke="#000000" x="-98.72634249947717" y="199.47500657859518" transform="matrix(0.24431121926748744,0,0,0.24431121926748747,326.9967002729464,179.12426256302206)" svgjs:data="{&quot;leading&quot;:&quot;1.3&quot;}"><tspan dy="0" x="-98.72634249947717" svgjs:data="{&quot;newLined&quot;:true}">PLAYER</tspan></text><text fill="#ffffff" font-family="Foo" font-size="50" stroke-opacity="1" stroke-width="1" stroke="#000000" x="-98.72634249947717" y="199.47500657859518" transform="matrix(0.24431121926748744,0,0,0.24431121926748747,392.8920672262175,179.12427745315654)" svgjs:data="{&quot;leading&quot;:&quot;1.3&quot;}"><tspan dy="0" x="-98.72634249947717" svgjs:data="{&quot;newLined&quot;:true}">PLAYER</tspan></text><image width="749" height="760" xlink:href="https://lct-designs.s3.us-west-1.amazonaws.com/assets/libs/lucky-charms-2-1633342536149.png" class="asset" transform="matrix(0.049047328661319334,0,0,0.04904732866131934,237.1586969120217,181.19945593510784)"></image><image width="749" height="760" xlink:href="https://lct-designs.s3.us-west-1.amazonaws.com/assets/libs/lucky-charms-2-1633342536149.png" class="asset" transform="matrix(0.049047328661319334,0,0,0.04904732866131934,306.2020318661307,181.19947082524232)"></image><image width="749" height="760" xlink:href="https://lct-designs.s3.us-west-1.amazonaws.com/assets/libs/lucky-charms-2-1633342536149.png" class="asset" transform="matrix(0.049047328661319334,0,0,0.04904732866131934,372.09739881940186,181.19947082524232)"></image><image width="506" height="760" xlink:href="https://lct-designs.s3.us-west-1.amazonaws.com/assets/libs/lucky-charms-3-1633342503129.png" class="asset" transform="matrix(0.20797862112522125,0,0,0.20797862112522125,11.532132148742676,96.79085540771487)"></image><image width="760" height="273" xlink:href="https://lct-designs.s3.us-west-1.amazonaws.com/assets/libs/lucky-charms-4-1633342518594.png" class="asset" transform="matrix(0.35410815477371216,0,0,0.35410815477371216,115.93712615966797,76.1421585083008)"></image><g class="mask" style="pointer-events: none;"><g><path fill="#BCBEC0" d="M-3642.4-2101.7v4589.1h7813.4v-4589.1H-3642.4z M500.5,67.2v233.3v66.7H0.5v-66.7V67.2V0.5h500V67.2z" transform="matrix(1,0,0,1,0,0)"></path><g transform="matrix(1,0,0,1,0,0)">
	<rect x="0.5" y="300.5" opacity="0.95" fill="#F1F2F2" width="500" height="66.7"></rect>
	<rect x="0.5" y="0.5" opacity="0.95" fill="#F1F2F2" width="500" height="66.7"></rect>
</g></g></g></svg>