<svg xmlns="http://www.w3.org/2000/svg" version="1.1" xmlns:xlink="http://www.w3.org/1999/xlink" xmlns:svgjs="http://svgjs.dev/svgjs" width="100%" height="100%" viewBox="1 1 499 365.70001220703125" preserveAspectRatio="none" data-info="{&quot;_id&quot;:4,&quot;name&quot;:&quot;POLE POCKET SOCCER BANNERS&quot;,&quot;information&quot;:&quot;- Size: 3’x5’\n- Material: heavy duty vinyl banner\n- Digitally printed on vinyl&quot;,&quot;price&quot;:&quot;95.00&quot;,&quot;sale_price&quot;:&quot;89.99&quot;,&quot;type&quot;:&quot;pole-pocket&quot;,&quot;cover&quot;:{&quot;key&quot;:&quot;assets/models/pole-1628062864266-1631924568908.png&quot;,&quot;url&quot;:&quot;https://lct-designs.s3.us-west-1.amazonaws.com/assets/models/pole-1628062864266-1631924568908.png&quot;},&quot;back&quot;:{&quot;key&quot;:&quot;assets/models/pole-1631924700152.svg&quot;,&quot;url&quot;:&quot;https://lct-designs.s3.us-west-1.amazonaws.com/assets/models/pole-1631924700152.svg&quot;},&quot;mask&quot;:{&quot;key&quot;:&quot;assets/models/pole-mask-1631925211715.svg&quot;,&quot;url&quot;:&quot;https://lct-designs.s3.us-west-1.amazonaws.com/assets/models/pole-mask-1631925211715.svg&quot;},&quot;pos&quot;:&quot;2&quot;,&quot;accessories&quot;:&quot;2,3&quot;}" style="background-color: white;"><g class="model" style="pointer-events: none;"><polygon fill="#FFFFFF" points="0.5,0.5 0.5,67.2 0.5,300.5 0.5,367.2 500.5,367.2 500.5,300.5 500.5,67.2 500.5,0.5 "></polygon></g><image width="760" height="556" xlink:href="https://lct-designs.s3.us-west-1.amazonaws.com/assets/libs/tyu-1654913570012.png" class="asset background locked" transform="matrix(0.6595323960558116,0,0,0.6595323960558116,0,0)"></image><text fill="#ffffff" font-family="Impact" font-size="50" stroke-opacity="1" stroke-width="1" stroke="#000000" x="-98.72634249947717" y="199.47500657859518" transform="matrix(0.21911577880382535,0,0,0.2191157788038254,226.41848754882812,42.52568435668945)" svgjs:data="{&quot;leading&quot;:&quot;1.3&quot;}"><tspan dy="0" x="-98.72634249947717" svgjs:data="{&quot;newLined&quot;:true}">COACH: COACH'S NAME</tspan></text><text fill="#ffffff" font-family="Impact" font-size="50" stroke-opacity="1" stroke-width="1" stroke="#000000" x="-98.72634249947717" y="199.47500657859518" transform="matrix(0.219115749001503,0,0,0.21911574900150302,382.4615478515625,42.52570343017578)" svgjs:data="{&quot;leading&quot;:&quot;1.3&quot;}"><tspan dy="0" x="-98.72634249947717" svgjs:data="{&quot;newLined&quot;:true}">TEAM MOM: TEAM MOM'S NAME</tspan></text><text fill="#ffffff" font-family="Impact" font-size="50" stroke-opacity="1" stroke-width="0" stroke="#000000" x="-98.72634249947717" y="199.47500657859518" transform="matrix(0.3640423119068146,0,0,0.3640423119068146,469.7816162109375,68.37278747558595)" svgjs:data="{&quot;leading&quot;:&quot;1.3&quot;}"><tspan dy="0" x="-98.72634249947717" svgjs:data="{&quot;newLined&quot;:true}">PLAYER</tspan><tspan dy="65" x="-98.72634249947717" svgjs:data="{&quot;newLined&quot;:true}"></tspan></text><image width="760" height="329" xlink:href="https://lct-designs.s3.us-west-1.amazonaws.com/assets/libs/asset-1-1647569750205.png" class="asset" transform="matrix(0.0673908069729805,0,0,0.0673908069729805,433.5517578125,104.17836761474611)"></image><text fill="#ffffff" font-family="Impact" font-size="50" stroke-opacity="1" stroke-width="0" stroke="#000000" x="-98.72634249947717" y="199.47500657859518" transform="matrix(0.3640423119068146,0,0,0.3640423119068146,383.5450744628906,68.37278747558595)" svgjs:data="{&quot;leading&quot;:&quot;1.3&quot;}"><tspan dy="0" x="-98.72634249947717" svgjs:data="{&quot;newLined&quot;:true}">PLAYER</tspan><tspan dy="65" x="-98.72634249947717" svgjs:data="{&quot;newLined&quot;:true}"></tspan></text><image width="760" height="329" xlink:href="https://lct-designs.s3.us-west-1.amazonaws.com/assets/libs/asset-1-1647569750205.png" class="asset" transform="matrix(0.0673908069729805,0,0,0.0673908069729805,347.3152160644532,104.17836761474611)"></image><text fill="#ffffff" font-family="Impact" font-size="50" stroke-opacity="1" stroke-width="0" stroke="#000000" x="-98.72634249947717" y="199.47500657859518" transform="matrix(0.3640423119068146,0,0,0.3640423119068146,368.4913024902344,138.26527404785156)" svgjs:data="{&quot;leading&quot;:&quot;1.3&quot;}"><tspan dy="0" x="-98.72634249947717" svgjs:data="{&quot;newLined&quot;:true}">PLAYER</tspan><tspan dy="65" x="-98.72634249947717" svgjs:data="{&quot;newLined&quot;:true}"></tspan></text><image width="760" height="329" xlink:href="https://lct-designs.s3.us-west-1.amazonaws.com/assets/libs/asset-1-1647569750205.png" class="asset" transform="matrix(0.0673908069729805,0,0,0.0673908069729805,332.2614440917969,174.0708465576172)"></image><text fill="#ffffff" font-family="Impact" font-size="50" stroke-opacity="1" stroke-width="0" stroke="#000000" x="-98.72634249947717" y="199.47500657859518" transform="matrix(0.3640423119068146,0,0,0.3640423119068146,279.0289306640625,137.72763061523438)" svgjs:data="{&quot;leading&quot;:&quot;1.3&quot;}"><tspan dy="0" x="-98.72634249947717" svgjs:data="{&quot;newLined&quot;:true}">PLAYER</tspan><tspan dy="65" x="-98.72634249947717" svgjs:data="{&quot;newLined&quot;:true}"></tspan></text><image width="760" height="329" xlink:href="https://lct-designs.s3.us-west-1.amazonaws.com/assets/libs/asset-1-1647569750205.png" class="asset" transform="matrix(0.0673908069729805,0,0,0.0673908069729805,242.799072265625,173.533203125)"></image><text fill="#ffffff" font-family="Impact" font-size="50" stroke-opacity="1" stroke-width="0" stroke="#000000" x="-98.72634249947717" y="199.47500657859518" transform="matrix(0.3640423119068146,0,0,0.3640423119068146,454.72784423828125,138.26527404785156)" svgjs:data="{&quot;leading&quot;:&quot;1.3&quot;}"><tspan dy="0" x="-98.72634249947717" svgjs:data="{&quot;newLined&quot;:true}">PLAYER</tspan><tspan dy="65" x="-98.72634249947717" svgjs:data="{&quot;newLined&quot;:true}"></tspan></text><image width="760" height="329" xlink:href="https://lct-designs.s3.us-west-1.amazonaws.com/assets/libs/asset-1-1647569750205.png" class="asset" transform="matrix(0.0673908069729805,0,0,0.0673908069729805,418.49798583984375,174.0708465576172)"></image><text fill="#ffffff" font-family="Impact" font-size="50" stroke-opacity="1" stroke-width="0" stroke="#000000" x="-98.72634249947717" y="199.47500657859518" transform="matrix(0.3640423119068146,0,0,0.3640423119068146,383.5450134277344,210.3082733154297)" svgjs:data="{&quot;leading&quot;:&quot;1.3&quot;}"><tspan dy="0" x="-98.72634249947717" svgjs:data="{&quot;newLined&quot;:true}">PLAYER</tspan><tspan dy="65" x="-98.72634249947717" svgjs:data="{&quot;newLined&quot;:true}"></tspan></text><image width="760" height="329" xlink:href="https://lct-designs.s3.us-west-1.amazonaws.com/assets/libs/asset-1-1647569750205.png" class="asset" transform="matrix(0.0673908069729805,0,0,0.0673908069729805,347.3152160644532,246.1138458251953)"></image><text fill="#ffffff" font-family="Impact" font-size="50" stroke-opacity="1" stroke-width="0" stroke="#000000" x="-98.72634249947717" y="199.47500657859518" transform="matrix(0.3640423119068146,0,0,0.3640423119068146,294.0827026367188,67.8351516723633)" svgjs:data="{&quot;leading&quot;:&quot;1.3&quot;}"><tspan dy="0" x="-98.72634249947717" svgjs:data="{&quot;newLined&quot;:true}">PLAYER</tspan><tspan dy="65" x="-98.72634249947717" svgjs:data="{&quot;newLined&quot;:true}"></tspan></text><image width="760" height="329" xlink:href="https://lct-designs.s3.us-west-1.amazonaws.com/assets/libs/asset-1-1647569750205.png" class="asset" transform="matrix(0.0673908069729805,0,0,0.0673908069729805,257.85284423828125,103.64073181152345)"></image><text fill="#ffffff" font-family="Impact" font-size="50" stroke-opacity="1" stroke-width="0" stroke="#000000" x="-98.72634249947717" y="199.47500657859518" transform="matrix(0.3640423119068146,0,0,0.3640423119068146,294.0826416015625,209.77062988281256)" svgjs:data="{&quot;leading&quot;:&quot;1.3&quot;}"><tspan dy="0" x="-98.72634249947717" svgjs:data="{&quot;newLined&quot;:true}">PLAYER</tspan><tspan dy="65" x="-98.72634249947717" svgjs:data="{&quot;newLined&quot;:true}"></tspan></text><image width="760" height="329" xlink:href="https://lct-designs.s3.us-west-1.amazonaws.com/assets/libs/asset-1-1647569750205.png" class="asset" transform="matrix(0.0673908069729805,0,0,0.0673908069729805,257.85284423828125,245.57620239257818)"></image><text fill="#ffffff" font-family="Impact" font-size="50" stroke-opacity="1" stroke-width="0" stroke="#000000" x="-98.72634249947717" y="199.47500657859518" transform="matrix(0.3640423119068146,0,0,0.3640423119068146,469.78155517578125,210.3082733154297)" svgjs:data="{&quot;leading&quot;:&quot;1.3&quot;}"><tspan dy="0" x="-98.72634249947717" svgjs:data="{&quot;newLined&quot;:true}">PLAYER</tspan><tspan dy="65" x="-98.72634249947717" svgjs:data="{&quot;newLined&quot;:true}"></tspan></text><image width="760" height="329" xlink:href="https://lct-designs.s3.us-west-1.amazonaws.com/assets/libs/asset-1-1647569750205.png" class="asset" transform="matrix(0.0673908069729805,0,0,0.0673908069729805,433.5517578125,246.1138458251953)"></image><image width="760" height="754" xlink:href="https://lct-designs.s3.us-west-1.amazonaws.com/assets/libs/matrix-2-1632741368607.png" class="asset" transform="matrix(0.23354274034500122,0,0,0.23354274034500125,12.12883472442627,81.59418487548827)"></image><image width="471" height="760" xlink:href="https://lct-designs.s3.us-west-1.amazonaws.com/assets/libs/matrix-4-1632741340021.png" class="asset" transform="matrix(0.1436048150062561,0,0,0.14360481500625613,169.2628173828125,179.04893493652344)"></image><g class="mask" style="pointer-events: none;"><g><path fill="#BCBEC0" d="M-3642.4-2101.7v4589.1h7813.4v-4589.1H-3642.4z M500.5,67.2v233.3v66.7H0.5v-66.7V67.2V0.5h500V67.2z" transform="matrix(1,0,0,1,0,0)"></path><g transform="matrix(1,0,0,1,0,0)">
	<rect x="0.5" y="300.5" opacity="0.95" fill="#F1F2F2" width="500" height="66.7"></rect>
	<rect x="0.5" y="0.5" opacity="0.95" fill="#F1F2F2" width="500" height="66.7"></rect>
</g></g></g></svg>