<svg xmlns="http://www.w3.org/2000/svg" version="1.1" xmlns:xlink="http://www.w3.org/1999/xlink" xmlns:svgjs="http://svgjs.dev/svgjs" width="100%" height="100%" viewBox="1 1 499 365.70001220703125" preserveAspectRatio="none" data-info="{&quot;_id&quot;:4,&quot;name&quot;:&quot;POLE POCKET SOCCER BANNERS&quot;,&quot;information&quot;:&quot;- Size: 3’x5’\n- Material: heavy duty vinyl banner\n- Digitally printed on vinyl&quot;,&quot;price&quot;:&quot;95.00&quot;,&quot;sale_price&quot;:&quot;89.99&quot;,&quot;type&quot;:&quot;pole-pocket&quot;,&quot;cover&quot;:{&quot;key&quot;:&quot;assets/models/pole-1628062864266-1631924568908.png&quot;,&quot;url&quot;:&quot;https://lct-designs.s3.us-west-1.amazonaws.com/assets/models/pole-1628062864266-1631924568908.png&quot;},&quot;back&quot;:{&quot;key&quot;:&quot;assets/models/pole-1631924700152.svg&quot;,&quot;url&quot;:&quot;https://lct-designs.s3.us-west-1.amazonaws.com/assets/models/pole-1631924700152.svg&quot;},&quot;mask&quot;:{&quot;key&quot;:&quot;assets/models/pole-mask-1631925211715.svg&quot;,&quot;url&quot;:&quot;https://lct-designs.s3.us-west-1.amazonaws.com/assets/models/pole-mask-1631925211715.svg&quot;},&quot;pos&quot;:&quot;2&quot;,&quot;accessories&quot;:&quot;2,3&quot;}" style="background-color: white;"><g class="model" style="pointer-events: none;"><polygon fill="#FFFFFF" points="0.5,0.5 0.5,67.2 0.5,300.5 0.5,367.2 500.5,367.2 500.5,300.5 500.5,67.2 500.5,0.5 "></polygon></g><image width="760" height="558" xlink:href="https://lct-designs.s3.us-west-1.amazonaws.com/assets/libs/asset-4-1654594340537.png" class="asset background locked" transform="matrix(0.6591245532035829,0,0,0.6571685671806335,0,0)"></image><image width="760" height="302" xlink:href="https://lct-designs.s3.us-west-1.amazonaws.com/assets/libs/asset-2-1654593978191.png" class="asset" transform="matrix(0.4055939912796021,0,0,0.40559399127960205,83.9164047241211,80.7262954711914)"></image><text fill="#fff700" font-family="Kids Zone" font-size="45" stroke-opacity="1" stroke-width="2" stroke="#4716a5" x="189.1691173656354" y="199.459545006756" transform="matrix(0.4157449901103974,0,0,0.3868092596530915,-34.067249178886414,146.3558502197266)" svgjs:data="{&quot;leading&quot;:&quot;1.3&quot;}"><tspan dy="0" x="189.1691173656354" svgjs:data="{&quot;newLined&quot;:true}">Player</tspan></text><image width="760" height="760" xlink:href="https://lct-designs.s3.us-west-1.amazonaws.com/assets/libs/too-good-to-be-bad-2-1633602171721.png" class="asset" transform="matrix(0.038310367614030845,0,0,0.035282734781503684,8.721334576606779,200.7435455322266)"></image><text fill="#fff700" font-family="Kids Zone" font-size="45" stroke-opacity="1" stroke-width="2" stroke="#4716a5" x="189.1691173656354" y="199.459545006756" transform="matrix(0.41574481129646307,0,0,0.38680946826934814,-24.562787890434265,185.00801086425784)" svgjs:data="{&quot;leading&quot;:&quot;1.3&quot;}"><tspan dy="0" x="189.1691173656354" svgjs:data="{&quot;newLined&quot;:true}">Player</tspan></text><image width="760" height="760" xlink:href="https://lct-designs.s3.us-west-1.amazonaws.com/assets/libs/too-good-to-be-bad-2-1633602171721.png" class="asset" transform="matrix(0.038310389965772636,0,0,0.035282734781503684,18.225795865058927,239.39570617675778)"></image><text fill="#fff700" font-family="Kids Zone" font-size="45" stroke-opacity="1" stroke-width="2" stroke="#4716a5" x="189.1691173656354" y="199.459545006756" transform="matrix(0.4157446920871735,0,0,0.3868096470832825,77.11221325397494,183.52139282226565)" svgjs:data="{&quot;leading&quot;:&quot;1.3&quot;}"><tspan dy="0" x="189.1691173656354" svgjs:data="{&quot;newLined&quot;:true}">Player</tspan></text><image width="760" height="760" xlink:href="https://lct-designs.s3.us-west-1.amazonaws.com/assets/libs/too-good-to-be-bad-2-1633602171721.png" class="asset" transform="matrix(0.038310389965772636,0,0,0.035282734781503684,119.900802731514,237.90908813476565)"></image><image width="760" height="760" xlink:href="https://lct-designs.s3.us-west-1.amazonaws.com/assets/libs/too-good-to-be-bad-2-1633602171721.png" class="asset" transform="matrix(0.038310389965772636,0,0,0.035282734781503684,219.59365856647497,238.40461730957034)"></image><text fill="#fff700" font-family="Kids Zone" font-size="45" stroke-opacity="1" stroke-width="2" stroke="#4716a5" x="189.1691173656354" y="199.459545006756" transform="matrix(0.4157447516918183,0,0,0.3868095278739929,70.7593690156937,146.85137939453125)" svgjs:data="{&quot;leading&quot;:&quot;1.3&quot;}"><tspan dy="0" x="189.1691173656354" svgjs:data="{&quot;newLined&quot;:true}">Player</tspan></text><image width="760" height="760" xlink:href="https://lct-designs.s3.us-west-1.amazonaws.com/assets/libs/too-good-to-be-bad-2-1633602171721.png" class="asset" transform="matrix(0.038310389965772636,0,0,0.035282734781503684,113.54795849323276,201.23907470703122)"></image><text fill="#fff700" font-family="Kids Zone" font-size="45" stroke-opacity="1" stroke-width="2" stroke="#4716a5" x="189.1691173656354" y="199.459545006756" transform="matrix(0.4157447516918183,0,0,0.3868095278739929,176.8050690889359,184.0169219970703)" svgjs:data="{&quot;leading&quot;:&quot;1.3&quot;}"><tspan dy="0" x="189.1691173656354" svgjs:data="{&quot;newLined&quot;:true}">Player</tspan></text><text fill="#fff700" font-family="Kids Zone" font-size="45" stroke-opacity="1" stroke-width="2" stroke="#4716a5" x="189.1691173656354" y="199.459545006756" transform="matrix(0.4157446920871735,0,0,0.3868096470832825,170.45222485065466,147.34690856933597)" svgjs:data="{&quot;leading&quot;:&quot;1.3&quot;}"><tspan dy="0" x="189.1691173656354" svgjs:data="{&quot;newLined&quot;:true}">Player</tspan></text><image width="760" height="760" xlink:href="https://lct-designs.s3.us-west-1.amazonaws.com/assets/libs/too-good-to-be-bad-2-1633602171721.png" class="asset" transform="matrix(0.038310389965772636,0,0,0.035282734781503684,213.24081432819372,201.73460388183597)"></image><text fill="#fff700" font-family="Kids Zone" font-size="45" stroke-opacity="1" stroke-width="2" stroke="#4716a5" x="189.1691173656354" y="199.459545006756" transform="matrix(0.4157447516918183,0,0,0.3868095278739929,13.187482953071623,214.7404479980469)" svgjs:data="{&quot;leading&quot;:&quot;1.3&quot;}"><tspan dy="0" x="189.1691173656354" svgjs:data="{&quot;newLined&quot;:true}">Player</tspan></text><image width="760" height="760" xlink:href="https://lct-designs.s3.us-west-1.amazonaws.com/assets/libs/too-good-to-be-bad-2-1633602171721.png" class="asset" transform="matrix(0.038310389965772636,0,0,0.035282734781503684,55.97606670856479,269.1281433105469)"></image><text fill="#fff700" font-family="Kids Zone" font-size="45" stroke-opacity="1" stroke-width="2" stroke="#4716a5" x="189.1691173656354" y="199.459545006756" transform="matrix(0.41574463248252874,0,0,0.3868097066879273,114.8624879121781,213.25382995605466)" svgjs:data="{&quot;leading&quot;:&quot;1.3&quot;}"><tspan dy="0" x="189.1691173656354" svgjs:data="{&quot;newLined&quot;:true}">Player</tspan></text><image width="760" height="760" xlink:href="https://lct-designs.s3.us-west-1.amazonaws.com/assets/libs/too-good-to-be-bad-2-1633602171721.png" class="asset" transform="matrix(0.038310389965772636,0,0,0.035282734781503684,157.6510773897171,267.6415100097656)"></image><text fill="#fff700" font-family="Kids Zone" font-size="45" stroke-opacity="1" stroke-width="2" stroke="#4716a5" x="74.63342705801821" y="199.459545006756" transform="matrix(0.40153163671493536,0,0,0.3822154402732849,-23.51988601684569,10.5103759765625)" svgjs:data="{&quot;leading&quot;:&quot;1.3&quot;}"><tspan dy="0" x="74.63342705801821" svgjs:data="{&quot;newLined&quot;:true}">coach:coach's name</tspan></text><text fill="#fff700" font-family="Kids Zone" font-size="45" stroke-opacity="1" stroke-width="2" stroke="#4716a5" x="74.63342705801821" y="199.459545006756" transform="matrix(0.40153163671493536,0,0,0.3822154700756073,351.6935119628907,10.014836311340332)" svgjs:data="{&quot;leading&quot;:&quot;1.3&quot;}"><tspan dy="0" x="74.63342705801821" svgjs:data="{&quot;newLined&quot;:true}">Team mom: name</tspan></text><g class="mask" style="pointer-events: none;"><g><path fill="#BCBEC0" d="M-3642.4-2101.7v4589.1h7813.4v-4589.1H-3642.4z M500.5,67.2v233.3v66.7H0.5v-66.7V67.2V0.5h500V67.2z" transform="matrix(1,0,0,1,0,0)"></path><g transform="matrix(1,0,0,1,0,0)">
	<rect x="0.5" y="300.5" opacity="0.95" fill="#F1F2F2" width="500" height="66.7"></rect>
	<rect x="0.5" y="0.5" opacity="0.95" fill="#F1F2F2" width="500" height="66.7"></rect>
</g></g></g></svg>