<svg xmlns="http://www.w3.org/2000/svg" version="1.1" xmlns:xlink="http://www.w3.org/1999/xlink" xmlns:svgjs="http://svgjs.dev/svgjs" width="100%" height="100%" viewBox="1 1 499 365.70001220703125" preserveAspectRatio="none" data-info="{&quot;_id&quot;:4,&quot;name&quot;:&quot;POLE POCKET SOCCER BANNERS&quot;,&quot;information&quot;:&quot;- Size: 3’x5’\n- Material: heavy duty vinyl banner\n- Digitally printed on vinyl&quot;,&quot;price&quot;:&quot;95.00&quot;,&quot;sale_price&quot;:&quot;89.99&quot;,&quot;type&quot;:&quot;pole-pocket&quot;,&quot;cover&quot;:{&quot;key&quot;:&quot;assets/models/pole-1628062864266-1631924568908.png&quot;,&quot;url&quot;:&quot;https://lct-designs.s3.us-west-1.amazonaws.com/assets/models/pole-1628062864266-1631924568908.png&quot;},&quot;back&quot;:{&quot;key&quot;:&quot;assets/models/pole-1631924700152.svg&quot;,&quot;url&quot;:&quot;https://lct-designs.s3.us-west-1.amazonaws.com/assets/models/pole-1631924700152.svg&quot;},&quot;mask&quot;:{&quot;key&quot;:&quot;assets/models/pole-mask-1631925211715.svg&quot;,&quot;url&quot;:&quot;https://lct-designs.s3.us-west-1.amazonaws.com/assets/models/pole-mask-1631925211715.svg&quot;},&quot;pos&quot;:&quot;2&quot;,&quot;accessories&quot;:&quot;2,3&quot;}" style="background-color: white;"><g class="model" style="pointer-events: none;"><polygon fill="#FFFFFF" points="0.5,0.5 0.5,67.2 0.5,300.5 0.5,367.2 500.5,367.2 500.5,300.5 500.5,67.2 500.5,0.5 "></polygon></g><image width="760" height="556" xlink:href="https://lct-designs.s3.us-west-1.amazonaws.com/assets/libs/the-sharks-4-1652258101984.png" class="asset background locked" transform="matrix(0.6595323960558116,0,0,0.6595323960558116,0,0)"></image><image width="760" height="754" xlink:href="https://lct-designs.s3.us-west-1.amazonaws.com/assets/libs/the-sharks-2-1652258158694.png" class="asset" transform="matrix(0.2557910084724426,0,0,0.2557910084724426,19.12767410278323,82.70406341552734)"></image><text fill="#ffffff" font-family="Antilles" font-size="45" stroke-opacity="1" stroke-width="1" stroke="#000000" x="118.79848522380686" y="199.459545006756" transform="matrix(0.5377344489097595,0,0,0.5377344489097595,289.6664428710938,187.09429931640628)" svgjs:data="{&quot;leading&quot;:&quot;1.3&quot;}"><tspan dy="0" x="118.79848522380686" svgjs:data="{&quot;newLined&quot;:true}">Team mom: name</tspan></text><text fill="#ffffff" font-family="Antilles" font-size="45" stroke-opacity="1" stroke-width="1" stroke="#000000" x="118.79848522380686" y="199.459545006756" transform="matrix(0.5377344489097595,0,0,0.5377344489097595,-50.68078994750975,188.08538818359378)" svgjs:data="{&quot;leading&quot;:&quot;1.3&quot;}"><tspan dy="0" x="118.79848522380686" svgjs:data="{&quot;newLined&quot;:true}">Coach:coach's name</tspan></text><text fill="#ffffff" font-family="Antilles" font-size="45" stroke-opacity="1" stroke-width="1" stroke="#000000" x="194.244259302176" y="199.459545006756" transform="matrix(0.4842562377452851,0,0,0.48538443446159363,151.26760858297354,9.298191547393799)" svgjs:data="{&quot;leading&quot;:&quot;1.3&quot;}"><tspan dy="0" x="194.244259302176" svgjs:data="{&quot;newLined&quot;:true}">Player</tspan></text><image width="760" height="590" xlink:href="https://lct-designs.s3.us-west-1.amazonaws.com/assets/libs/the-sharks-3-1652258174609.png" class="asset" transform="matrix(-0.062289286404848106,0,0,0.061268400400877006,264.64047235250473,96.2812423706055)"></image><text fill="#ffffff" font-family="Antilles" font-size="45" stroke-opacity="1" stroke-width="1" stroke="#000000" x="194.244259302176" y="199.459545006756" transform="matrix(0.4842562377452851,0,0,0.48538443446159363,237.6500701308251,10.564156532287598)" svgjs:data="{&quot;leading&quot;:&quot;1.3&quot;}"><tspan dy="0" x="194.244259302176" svgjs:data="{&quot;newLined&quot;:true}">Player</tspan></text><text fill="#ffffff" font-family="Antilles" font-size="45" stroke-opacity="1" stroke-width="1" stroke="#000000" x="194.244259302176" y="199.459545006756" transform="matrix(0.4842562377452851,0,0,0.48538443446159363,329.42987054586416,8.454206943511963)" svgjs:data="{&quot;leading&quot;:&quot;1.3&quot;}"><tspan dy="0" x="194.244259302176" svgjs:data="{&quot;newLined&quot;:true}">Player</tspan></text><image width="760" height="590" xlink:href="https://lct-designs.s3.us-west-1.amazonaws.com/assets/libs/the-sharks-3-1652258174609.png" class="asset" transform="matrix(-0.062289286404848106,0,0,0.06126846000552178,442.80273431539547,95.43726348876953)"></image><image width="760" height="590" xlink:href="https://lct-designs.s3.us-west-1.amazonaws.com/assets/libs/the-sharks-3-1652258174609.png" class="asset" transform="matrix(-0.062289286404848106,0,0,0.0612684153020382,360.6414794325829,97.54721069335938)"></image><image width="760" height="590" xlink:href="https://lct-designs.s3.us-west-1.amazonaws.com/assets/libs/the-sharks-3-1652258174609.png" class="asset" transform="matrix(0.06314033269882202,0,0,0.06126839667558671,350.4884185791016,183.17102050781253)"></image><text fill="#ffffff" font-family="Antilles" font-size="45" stroke-opacity="1" stroke-width="1" stroke="#000000" x="194.244259302176" y="199.459545006756" transform="matrix(0.4842564165592194,0,0,0.48538428544998174,218.93637084960938,96.47268676757812)" svgjs:data="{&quot;leading&quot;:&quot;1.3&quot;}"><tspan dy="0" x="194.244259302176" svgjs:data="{&quot;newLined&quot;:true}">Player</tspan></text><text fill="#ffffff" font-family="Antilles" font-size="45" stroke-opacity="1" stroke-width="1" stroke="#000000" x="194.244259302176" y="199.459545006756" transform="matrix(0.4842564165592194,0,0,0.48538428544998174,312.9766082763672,96.47267150878906)" svgjs:data="{&quot;leading&quot;:&quot;1.3&quot;}"><tspan dy="0" x="194.244259302176" svgjs:data="{&quot;newLined&quot;:true}">Player</tspan></text><image width="760" height="590" xlink:href="https://lct-designs.s3.us-west-1.amazonaws.com/assets/libs/the-sharks-3-1652258174609.png" class="asset" transform="matrix(0.06314030289649965,0,0,0.06126839667558671,254.12170410156256,180.78227233886722)"></image><text fill="#ffffff" font-family="Antilles" font-size="45" stroke-opacity="1" stroke-width="1" stroke="#000000" x="194.244259302176" y="199.459545006756" transform="matrix(0.4842564165592194,0,0,0.48538428544998174,123.06521606445318,94.09904479980469)" svgjs:data="{&quot;leading&quot;:&quot;1.3&quot;}"><tspan dy="0" x="194.244259302176" svgjs:data="{&quot;newLined&quot;:true}">Player</tspan></text><image width="760" height="590" xlink:href="https://lct-designs.s3.us-west-1.amazonaws.com/assets/libs/the-sharks-3-1652258174609.png" class="asset" transform="matrix(0.06314034014940263,0,0,0.06126839667558671,443.0420379638673,186.51525878906253)"></image><text fill="#ffffff" font-family="Antilles" font-size="45" stroke-opacity="1" stroke-width="1" stroke="#000000" x="194.244259302176" y="199.459545006756" transform="matrix(0.4842564165592194,0,0,0.48538428544998174,208.66632080078125,140.9012603759766)" svgjs:data="{&quot;leading&quot;:&quot;1.3&quot;}"><tspan dy="0" x="194.244259302176" svgjs:data="{&quot;newLined&quot;:true}">Player</tspan></text><text fill="#ffffff" font-family="Antilles" font-size="45" stroke-opacity="1" stroke-width="1" stroke="#000000" x="194.244259302176" y="199.459545006756" transform="matrix(0.4842564165592194,0,0,0.48538428544998174,303.91491699218756,138.79132080078128)" svgjs:data="{&quot;leading&quot;:&quot;1.3&quot;}"><tspan dy="0" x="194.244259302176" svgjs:data="{&quot;newLined&quot;:true}">Player</tspan></text><image width="760" height="590" xlink:href="https://lct-designs.s3.us-west-1.amazonaws.com/assets/libs/the-sharks-3-1652258174609.png" class="asset" transform="matrix(-0.062289334833621986,0,0,0.0612684153020382,413.8189849853517,225.77436828613284)"></image><image width="760" height="590" xlink:href="https://lct-designs.s3.us-west-1.amazonaws.com/assets/libs/the-sharks-3-1652258174609.png" class="asset" transform="matrix(-0.062289334833621986,0,0,0.06126839667558671,311.83610534667974,223.91998291015628)"></image><image width="760" height="590" xlink:href="https://lct-designs.s3.us-west-1.amazonaws.com/assets/libs/the-sharks-3-1652258174609.png" class="asset" transform="matrix(0.06314030289649965,0,0,0.06126839667558671,354.8948364257813,133.21037292480472)"></image><text fill="#ffffff" font-family="Antilles" font-size="45" stroke-opacity="1" stroke-width="1" stroke="#000000" x="194.244259302176" y="199.459545006756" transform="matrix(0.4842564165592194,0,0,0.48538428544998174,199.96319574117666,58.91566848754884)" svgjs:data="{&quot;leading&quot;:&quot;1.3&quot;}"><tspan dy="0" x="194.244259302176" svgjs:data="{&quot;newLined&quot;:true}">Player</tspan></text><image width="760" height="590" xlink:href="https://lct-designs.s3.us-west-1.amazonaws.com/assets/libs/the-sharks-3-1652258174609.png" class="asset" transform="matrix(0.06314030289649965,0,0,0.06126839667558671,242.31793206930166,132.21929931640628)"></image><text fill="#ffffff" font-family="Antilles" font-size="45" stroke-opacity="1" stroke-width="1" stroke="#000000" x="194.244259302176" y="199.459545006756" transform="matrix(0.4842564165592194,0,0,0.48538428544998174,312.54010003805166,59.90674209594728)" svgjs:data="{&quot;leading&quot;:&quot;1.3&quot;}"><tspan dy="0" x="194.244259302176" svgjs:data="{&quot;newLined&quot;:true}">Player</tspan></text><g class="mask" style="pointer-events: none;"><g><path fill="#BCBEC0" d="M-3642.4-2101.7v4589.1h7813.4v-4589.1H-3642.4z M500.5,67.2v233.3v66.7H0.5v-66.7V67.2V0.5h500V67.2z" transform="matrix(1,0,0,1,0,0)"></path><g transform="matrix(1,0,0,1,0,0)">
	<rect x="0.5" y="300.5" opacity="0.95" fill="#F1F2F2" width="500" height="66.7"></rect>
	<rect x="0.5" y="0.5" opacity="0.95" fill="#F1F2F2" width="500" height="66.7"></rect>
</g></g></g></svg>