<svg xmlns="http://www.w3.org/2000/svg" version="1.1" xmlns:xlink="http://www.w3.org/1999/xlink" xmlns:svgjs="http://svgjs.dev/svgjs" width="100%" height="100%" viewBox="1 1 499 365.70001220703125" preserveAspectRatio="none" data-info="{&quot;_id&quot;:4,&quot;name&quot;:&quot;POLE POCKET SOCCER BANNERS&quot;,&quot;information&quot;:&quot;- Size: 3’x5’\n- Material: heavy duty vinyl banner\n- Digitally printed on vinyl&quot;,&quot;price&quot;:&quot;95.00&quot;,&quot;sale_price&quot;:&quot;89.99&quot;,&quot;type&quot;:&quot;pole-pocket&quot;,&quot;cover&quot;:{&quot;key&quot;:&quot;assets/models/pole-1628062864266-1631924568908.png&quot;,&quot;url&quot;:&quot;https://lct-designs.s3.us-west-1.amazonaws.com/assets/models/pole-1628062864266-1631924568908.png&quot;},&quot;back&quot;:{&quot;key&quot;:&quot;assets/models/pole-1631924700152.svg&quot;,&quot;url&quot;:&quot;https://lct-designs.s3.us-west-1.amazonaws.com/assets/models/pole-1631924700152.svg&quot;},&quot;mask&quot;:{&quot;key&quot;:&quot;assets/models/pole-mask-1631925211715.svg&quot;,&quot;url&quot;:&quot;https://lct-designs.s3.us-west-1.amazonaws.com/assets/models/pole-mask-1631925211715.svg&quot;},&quot;pos&quot;:&quot;2&quot;,&quot;accessories&quot;:&quot;2,3&quot;}" style="background-color: white;"><g class="model" style="pointer-events: none;"><polygon fill="#FFFFFF" points="0.5,0.5 0.5,67.2 0.5,300.5 0.5,367.2 500.5,367.2 500.5,300.5 500.5,67.2 500.5,0.5 "></polygon></g><image width="760" height="557" xlink:href="https://lct-designs.s3.us-west-1.amazonaws.com/assets/libs/asset-3-1654760393490.png" class="asset background locked" transform="matrix(0.6583483163501459,0,0,0.6583483163501459,0,0)"></image><image width="760" height="339" xlink:href="https://lct-designs.s3.us-west-1.amazonaws.com/assets/libs/silver-streak-1652258158693.png" class="asset" transform="matrix(0.33914428949356085,0,0,0.33914428949356085,125.99455261230469,78.2920913696289)"></image><text fill="#ffffff" font-family="Antilles" font-size="45" stroke-opacity="1" stroke-width="2" stroke="#000000" x="83.18536797598696" y="194.25636850834292" transform="matrix(0.5269840359687806,0,0,0.5269840359687805,-33.992008209228516,188.0731201171875)" svgjs:data="{&quot;leading&quot;:&quot;1.3&quot;}"><tspan dy="0" x="83.18536797598696" svgjs:data="{&quot;newLined&quot;:true}">Coach:Coach's Name</tspan></text><text fill="#ffffff" font-family="Antilles" font-size="45" stroke-opacity="1" stroke-width="2" stroke="#000000" x="83.18536797598696" y="194.25636850834292" transform="matrix(0.5269838571548463,0,0,0.5269838571548462,303.71343994140625,188.0731201171875)" svgjs:data="{&quot;leading&quot;:&quot;1.3&quot;}"><tspan dy="0" x="83.18536797598696" svgjs:data="{&quot;newLined&quot;:true}">Team mom:name</tspan></text><image width="760" height="560" xlink:href="https://lct-designs.s3.us-west-1.amazonaws.com/assets/libs/asset-2-1654760393489.png" class="asset" transform="matrix(0.06516551226377489,0,0,0.06516551226377487,13.676747322082548,190.61102294921878)"></image><text fill="#ffffff" font-family="Antilles" font-size="45" stroke-opacity="1" stroke-width="2" stroke="#000000" x="194.244259302176" y="199.459545006756" transform="matrix(0.5333811640739442,0,0,0.5333811640739442,-42.153907775878906,114.97451019287112)" svgjs:data="{&quot;leading&quot;:&quot;1.3&quot;}"><tspan dy="0" x="194.244259302176" svgjs:data="{&quot;newLined&quot;:true}">Player</tspan></text><text fill="#ffffff" font-family="Antilles" font-size="45" stroke-opacity="1" stroke-width="2" stroke="#000000" x="194.244259302176" y="199.459545006756" transform="matrix(0.5333811640739442,0,0,0.5333811640739442,6.219783782958984,156.62722778320312)" svgjs:data="{&quot;leading&quot;:&quot;1.3&quot;}"><tspan dy="0" x="194.244259302176" svgjs:data="{&quot;newLined&quot;:true}">Player</tspan></text><image width="760" height="560" xlink:href="https://lct-designs.s3.us-west-1.amazonaws.com/assets/libs/asset-2-1654760393489.png" class="asset" transform="matrix(0.06516551226377489,0,0,0.06516551226377487,62.050437927246094,232.26373291015622)"></image><image width="760" height="560" xlink:href="https://lct-designs.s3.us-west-1.amazonaws.com/assets/libs/asset-2-1654760393489.png" class="asset" transform="matrix(0.06516551226377489,0,0,0.06516551226377487,142.11094284057623,191.10656732320788)"></image><text fill="#ffffff" font-family="Antilles" font-size="45" stroke-opacity="1" stroke-width="2" stroke="#000000" x="194.244259302176" y="199.459545006756" transform="matrix(0.5333811640739442,0,0,0.5333811640739442,86.28028869628909,115.4700545668602)" svgjs:data="{&quot;leading&quot;:&quot;1.3&quot;}"><tspan dy="0" x="194.244259302176" svgjs:data="{&quot;newLined&quot;:true}">Player</tspan></text><text fill="#ffffff" font-family="Antilles" font-size="45" stroke-opacity="1" stroke-width="2" stroke="#000000" x="194.244259302176" y="199.459545006756" transform="matrix(0.5333811640739442,0,0,0.5333811640739442,134.65398025512695,157.12277215719223)" svgjs:data="{&quot;leading&quot;:&quot;1.3&quot;}"><tspan dy="0" x="194.244259302176" svgjs:data="{&quot;newLined&quot;:true}">Player</tspan></text><image width="760" height="560" xlink:href="https://lct-designs.s3.us-west-1.amazonaws.com/assets/libs/asset-2-1654760393489.png" class="asset" transform="matrix(0.06516551226377489,0,0,0.06516551226377487,190.48463439941406,232.75927728414538)"></image><text fill="#ffffff" font-family="Antilles" font-size="45" stroke-opacity="1" stroke-width="2" stroke="#000000" x="194.244259302176" y="199.459545006756" transform="matrix(0.5333811640739442,0,0,0.5333811640739442,254.168441772461,154.14952087402344)" svgjs:data="{&quot;leading&quot;:&quot;1.3&quot;}"><tspan dy="0" x="194.244259302176" svgjs:data="{&quot;newLined&quot;:true}">Player</tspan></text><image width="760" height="560" xlink:href="https://lct-designs.s3.us-west-1.amazonaws.com/assets/libs/asset-2-1654760393489.png" class="asset" transform="matrix(0.06516551226377489,0,0,0.06516551226377487,261.62542724609375,188.1333160400391)"></image><text fill="#ffffff" font-family="Antilles" font-size="45" stroke-opacity="1" stroke-width="2" stroke="#000000" x="194.244259302176" y="199.459545006756" transform="matrix(0.5333811640739442,0,0,0.5333811640739442,205.79475402832037,112.4968032836914)" svgjs:data="{&quot;leading&quot;:&quot;1.3&quot;}"><tspan dy="0" x="194.244259302176" svgjs:data="{&quot;newLined&quot;:true}">Player</tspan></text><image width="760" height="560" xlink:href="https://lct-designs.s3.us-west-1.amazonaws.com/assets/libs/asset-2-1654760393489.png" class="asset" transform="matrix(0.06516551226377489,0,0,0.06516551226377487,309.99911499023443,229.7860260009766)"></image><text fill="#ffffff" font-family="Antilles" font-size="45" stroke-opacity="1" stroke-width="2" stroke="#000000" x="194.244259302176" y="199.459545006756" transform="matrix(0.5333811640739442,0,0,0.5333811640739442,-84.99838256835938,3.9734115600585866)" svgjs:data="{&quot;leading&quot;:&quot;1.3&quot;}"><tspan dy="0" x="194.244259302176" svgjs:data="{&quot;newLined&quot;:true}">Player</tspan></text><image width="760" height="560" xlink:href="https://lct-designs.s3.us-west-1.amazonaws.com/assets/libs/asset-2-1654760393489.png" class="asset" transform="matrix(0.06516551226377489,0,0,0.06516551226377487,85.30216979980472,79.60992431640625)"></image><text fill="#ffffff" font-family="Antilles" font-size="45" stroke-opacity="1" stroke-width="2" stroke="#000000" x="194.244259302176" y="199.459545006756" transform="matrix(0.5333811640739442,0,0,0.5333811640739442,-92.34230422973633,62.94274139404297)" svgjs:data="{&quot;leading&quot;:&quot;1.3&quot;}"><tspan dy="0" x="194.244259302176" svgjs:data="{&quot;newLined&quot;:true}">Player</tspan></text><image width="760" height="560" xlink:href="https://lct-designs.s3.us-west-1.amazonaws.com/assets/libs/asset-2-1654760393489.png" class="asset" transform="matrix(0.06516551226377489,0,0,0.06516551226377487,386.0953063964844,98.93601226806643)"></image><text fill="#ffffff" font-family="Antilles" font-size="45" stroke-opacity="1" stroke-width="2" stroke="#000000" x="194.244259302176" y="199.459545006756" transform="matrix(0.5333811640739442,0,0,0.5333811640739442,330.26461791992193,23.29949951171875)" svgjs:data="{&quot;leading&quot;:&quot;1.3&quot;}"><tspan dy="0" x="194.244259302176" svgjs:data="{&quot;newLined&quot;:true}">Player</tspan></text><image width="760" height="560" xlink:href="https://lct-designs.s3.us-west-1.amazonaws.com/assets/libs/asset-2-1654760393489.png" class="asset" transform="matrix(0.06516551226377489,0,0,0.06516551226377487,77.95824813842773,138.57925415039062)"></image><g class="mask" style="pointer-events: none;"><g><path fill="#BCBEC0" d="M-3642.4-2101.7v4589.1h7813.4v-4589.1H-3642.4z M500.5,67.2v233.3v66.7H0.5v-66.7V67.2V0.5h500V67.2z" transform="matrix(1,0,0,1,0,0)"></path><g transform="matrix(1,0,0,1,0,0)">
	<rect x="0.5" y="300.5" opacity="0.95" fill="#F1F2F2" width="500" height="66.7"></rect>
	<rect x="0.5" y="0.5" opacity="0.95" fill="#F1F2F2" width="500" height="66.7"></rect>
</g></g></g><text fill="#ffffff" font-family="Antilles" font-size="45" stroke-opacity="1" stroke-width="2" stroke="#000000" x="194.244259302176" y="199.459545006756" transform="matrix(0.5333811640739442,0,0,0.5333811640739442,281.384521484375,85.2420654296875)" svgjs:data="{&quot;leading&quot;:&quot;1.3&quot;}"><tspan dy="0" x="194.244259302176" svgjs:data="{&quot;newLined&quot;:true}">Player</tspan></text><image width="760" height="560" xlink:href="https://lct-designs.s3.us-west-1.amazonaws.com/assets/libs/asset-2-1654760393489.png" class="asset" transform="matrix(0.06516551226377489,0,0,0.06516551226377487,447.2251892089845,164.34736633300784)"></image></svg>