<svg xmlns="http://www.w3.org/2000/svg" version="1.1" xmlns:xlink="http://www.w3.org/1999/xlink" xmlns:svgjs="http://svgjs.dev/svgjs" width="100%" height="100%" viewBox="1 1 499 365.70001220703125" preserveAspectRatio="none" data-info="{&quot;_id&quot;:4,&quot;name&quot;:&quot;POLE POCKET SOCCER BANNERS&quot;,&quot;information&quot;:&quot;- Size: 3’x5’\n- Material: heavy duty vinyl banner\n- Digitally printed on vinyl&quot;,&quot;price&quot;:&quot;95.00&quot;,&quot;sale_price&quot;:&quot;89.99&quot;,&quot;type&quot;:&quot;pole-pocket&quot;,&quot;cover&quot;:{&quot;key&quot;:&quot;assets/models/pole-1628062864266-1631924568908.png&quot;,&quot;url&quot;:&quot;https://lct-designs.s3.us-west-1.amazonaws.com/assets/models/pole-1628062864266-1631924568908.png&quot;},&quot;back&quot;:{&quot;key&quot;:&quot;assets/models/pole-1631924700152.svg&quot;,&quot;url&quot;:&quot;https://lct-designs.s3.us-west-1.amazonaws.com/assets/models/pole-1631924700152.svg&quot;},&quot;mask&quot;:{&quot;key&quot;:&quot;assets/models/pole-mask-1631925211715.svg&quot;,&quot;url&quot;:&quot;https://lct-designs.s3.us-west-1.amazonaws.com/assets/models/pole-mask-1631925211715.svg&quot;},&quot;pos&quot;:&quot;2&quot;,&quot;accessories&quot;:&quot;2,3&quot;}" style="background-color: white;"><g class="model" style="pointer-events: none;"><polygon fill="#FFFFFF" points="0.5,0.5 0.5,67.2 0.5,300.5 0.5,367.2 500.5,367.2 500.5,300.5 500.5,67.2 500.5,0.5 "></polygon></g><image width="760" height="557" xlink:href="https://lct-designs.s3.us-west-1.amazonaws.com/assets/libs/asset-2-1654503348073.png" class="asset background locked" transform="matrix(0.6583483163501459,0,0,0.6583483163501459,0,0)"></image><image width="760" height="286" xlink:href="https://lct-designs.s3.us-west-1.amazonaws.com/assets/libs/tasmanian-devils-3-1652435633992.png" class="asset" transform="matrix(0.4414576888084411,0,0,0.44145768880844116,83.58349609375,93.631477355957)"></image><text fill="#ffffff" font-family="Babycakes" font-size="45" stroke-opacity="1" stroke-width="1" stroke="#000000" x="176.77135565959418" y="199.35998171419294" transform="matrix(0.46090888977050776,0,0,0.4470390379428863,119.97306060791016,157.79383850097656)" svgjs:data="{&quot;leading&quot;:&quot;1.3&quot;}"><tspan dy="0" x="176.77135565959418" svgjs:data="{&quot;newLined&quot;:true}">Player</tspan></text><image width="760" height="726" xlink:href="https://lct-designs.s3.us-west-1.amazonaws.com/assets/libs/tasmanian-devils-4-1652435651680.png" class="asset" transform="matrix(0.05019303783774376,0,0,0.048682581633329385,160.11901855468744,217.01420593261722)"></image><text fill="#ffffff" font-family="Babycakes" font-size="45" stroke-opacity="1" stroke-width="1" stroke="#000000" x="176.77135565959418" y="199.35998171419294" transform="matrix(0.46090888977050776,0,0,0.4470390379428863,-10.170608520507812,144.49957275390622)" svgjs:data="{&quot;leading&quot;:&quot;1.3&quot;}"><tspan dy="0" x="176.77135565959418" svgjs:data="{&quot;newLined&quot;:true}">Player</tspan></text><image width="760" height="726" xlink:href="https://lct-designs.s3.us-west-1.amazonaws.com/assets/libs/tasmanian-devils-4-1652435651680.png" class="asset" transform="matrix(0.050193022936582565,0,0,0.048682581633329385,29.975341796875,203.71994018554685)"></image><text fill="#ffffff" font-family="Babycakes" font-size="45" stroke-opacity="1" stroke-width="1" stroke="#000000" x="176.77135565959418" y="199.35998171419294" transform="matrix(0.46090888977050776,0,0,0.4470390379428863,-30.665908813476562,186.59808349609372)" svgjs:data="{&quot;leading&quot;:&quot;1.3&quot;}"><tspan dy="0" x="176.77135565959418" svgjs:data="{&quot;newLined&quot;:true}">Player</tspan></text><image width="760" height="726" xlink:href="https://lct-designs.s3.us-west-1.amazonaws.com/assets/libs/tasmanian-devils-4-1652435651680.png" class="asset" transform="matrix(0.05019303038716316,0,0,0.048682581633329385,9.480041503906222,245.81845092773435)"></image><text fill="#ffffff" font-family="Babycakes" font-size="45" stroke-opacity="1" stroke-width="1" stroke="#000000" x="176.77135565959418" y="199.35998171419294" transform="matrix(0.46090888977050776,0,0,0.4470390379428863,92.85992431640625,197.12269592285153)" svgjs:data="{&quot;leading&quot;:&quot;1.3&quot;}"><tspan dy="0" x="176.77135565959418" svgjs:data="{&quot;newLined&quot;:true}">Player</tspan></text><image width="760" height="726" xlink:href="https://lct-designs.s3.us-west-1.amazonaws.com/assets/libs/tasmanian-devils-4-1652435651680.png" class="asset" transform="matrix(0.050193049013614655,0,0,0.048682581633329385,133.005874633789,256.34307861328125)"></image><text fill="#ffffff" font-family="Babycakes" font-size="45" stroke-opacity="1" stroke-width="1" stroke="#000000" x="176.77135565959418" y="199.35998171419294" transform="matrix(0.46090888977050776,0,0,0.4470390379428863,225.27792358398438,198.78446960449216)" svgjs:data="{&quot;leading&quot;:&quot;1.3&quot;}"><tspan dy="0" x="176.77135565959418" svgjs:data="{&quot;newLined&quot;:true}">Player</tspan></text><text fill="#ffffff" font-family="Babycakes" font-size="45" stroke-opacity="1" stroke-width="1" stroke="#000000" x="176.77135565959418" y="199.35998171419294" transform="matrix(0.46090888977050776,0,0,0.4470390379428863,200.9344482421875,133.97496032714844)" svgjs:data="{&quot;leading&quot;:&quot;1.3&quot;}"><tspan dy="0" x="176.77135565959418" svgjs:data="{&quot;newLined&quot;:true}">Player</tspan></text><image width="760" height="726" xlink:href="https://lct-designs.s3.us-west-1.amazonaws.com/assets/libs/tasmanian-devils-4-1652435651680.png" class="asset" transform="matrix(0.05019308999180794,0,0,0.048682581633329385,241.08041381835938,193.1953430175781)"></image><image width="760" height="726" xlink:href="https://lct-designs.s3.us-west-1.amazonaws.com/assets/libs/tasmanian-devils-4-1652435651680.png" class="asset" transform="matrix(0.05019306391477584,0,0,0.048682581633329385,265.42388916015625,258.0048522949219)"></image><text fill="#ffffff" font-family="Babycakes" font-size="45" stroke-opacity="1" stroke-width="1" stroke="#000000" x="176.77135565959418" y="199.35998171419294" transform="matrix(0.46090888977050776,0,0,0.4470390379428863,332.7984924316405,126.77389526367188)" svgjs:data="{&quot;leading&quot;:&quot;1.3&quot;}"><tspan dy="0" x="176.77135565959418" svgjs:data="{&quot;newLined&quot;:true}">Player</tspan></text><image width="760" height="726" xlink:href="https://lct-designs.s3.us-west-1.amazonaws.com/assets/libs/tasmanian-devils-4-1652435651680.png" class="asset" transform="matrix(0.05019308999180794,0,0,0.048682581633329385,358.51300048828125,228.0927581787109)"></image><text fill="#ffffff" font-family="Babycakes" font-size="45" stroke-opacity="1" stroke-width="1" stroke="#000000" x="176.77135565959418" y="199.35998171419294" transform="matrix(0.46090888977050776,0,0,0.4470390379428863,318.3670349121094,168.87237548828122)" svgjs:data="{&quot;leading&quot;:&quot;1.3&quot;}"><tspan dy="0" x="176.77135565959418" svgjs:data="{&quot;newLined&quot;:true}">Player</tspan></text><image width="760" height="726" xlink:href="https://lct-designs.s3.us-west-1.amazonaws.com/assets/libs/tasmanian-devils-4-1652435651680.png" class="asset" transform="matrix(0.05019308999180794,0,0,0.048682581633329385,372.3905334472656,188.76393127441403)"></image><text fill="#02b9b7" font-family="Babycakes" font-size="45" stroke-opacity="1" stroke-width="1" stroke="#000000" x="45.74585822307074" y="199.35998171419294" transform="matrix(0.37746429443359375,0,0,0.3774642944335937,-9.74257755279541,6.440427780151367)" svgjs:data="{&quot;leading&quot;:&quot;1.3&quot;}"><tspan dy="0" x="45.74585822307074" svgjs:data="{&quot;newLined&quot;:true}">Team mom: name</tspan></text><text fill="#02b9b7" font-family="Babycakes" font-size="45" stroke-opacity="1" stroke-width="1" stroke="#000000" x="45.74585822307074" y="199.35998171419294" transform="matrix(0.37746429443359375,0,0,0.3774642944335937,302.7018737792968,9.763992309570312)" svgjs:data="{&quot;leading&quot;:&quot;1.3&quot;}"><tspan dy="0" x="45.74585822307074" svgjs:data="{&quot;newLined&quot;:true}">Coach: Coach's name</tspan></text><g class="mask" style="pointer-events: none;"><g><path fill="#BCBEC0" d="M-3642.4-2101.7v4589.1h7813.4v-4589.1H-3642.4z M500.5,67.2v233.3v66.7H0.5v-66.7V67.2V0.5h500V67.2z" transform="matrix(1,0,0,1,0,0)"></path><g transform="matrix(1,0,0,1,0,0)">
	<rect x="0.5" y="300.5" opacity="0.95" fill="#F1F2F2" width="500" height="66.7"></rect>
	<rect x="0.5" y="0.5" opacity="0.95" fill="#F1F2F2" width="500" height="66.7"></rect>
</g></g></g></svg>