<svg xmlns="http://www.w3.org/2000/svg" version="1.1" xmlns:xlink="http://www.w3.org/1999/xlink" xmlns:svgjs="http://svgjs.dev/svgjs" width="100%" height="100%" viewBox="1 1 499 365.70001220703125" preserveAspectRatio="none" data-info="{&quot;_id&quot;:4,&quot;name&quot;:&quot;POLE POCKET SOCCER BANNERS&quot;,&quot;information&quot;:&quot;- Size: 3’x5’\n- Material: heavy duty vinyl banner\n- Digitally printed on vinyl&quot;,&quot;price&quot;:&quot;95.00&quot;,&quot;sale_price&quot;:&quot;89.99&quot;,&quot;type&quot;:&quot;pole-pocket&quot;,&quot;cover&quot;:{&quot;key&quot;:&quot;assets/models/pole-1628062864266-1631924568908.png&quot;,&quot;url&quot;:&quot;https://lct-designs.s3.us-west-1.amazonaws.com/assets/models/pole-1628062864266-1631924568908.png&quot;},&quot;back&quot;:{&quot;key&quot;:&quot;assets/models/pole-1631924700152.svg&quot;,&quot;url&quot;:&quot;https://lct-designs.s3.us-west-1.amazonaws.com/assets/models/pole-1631924700152.svg&quot;},&quot;mask&quot;:{&quot;key&quot;:&quot;assets/models/pole-mask-1631925211715.svg&quot;,&quot;url&quot;:&quot;https://lct-designs.s3.us-west-1.amazonaws.com/assets/models/pole-mask-1631925211715.svg&quot;},&quot;pos&quot;:&quot;2&quot;,&quot;accessories&quot;:&quot;2,3&quot;}" style="background-color: white;"><g class="model" style="pointer-events: none;"><polygon fill="#FFFFFF" points="0.5,0.5 0.5,67.2 0.5,300.5 0.5,367.2 500.5,367.2 500.5,300.5 500.5,67.2 500.5,0.5 "></polygon></g><image width="760" height="556" xlink:href="https://lct-designs.s3.us-west-1.amazonaws.com/assets/libs/lavender-lightning-2-1633402757830.png" class="asset background locked" transform="matrix(0.6595323960558116,0,0,0.6595323960558116,0,0)"></image><text fill="#ffffff" font-family="Skater Girls Rock" font-size="50" stroke-opacity="1" stroke-width="1" stroke="#000000" x="-98.72634249947717" y="199.47500657859518" transform="matrix(0.23170657455921173,0,0,0.23170657455921176,409.18707275390625,50.91920471191408)" svgjs:data="{&quot;leading&quot;:&quot;1.3&quot;}"><tspan dy="0" x="-98.72634249947717" svgjs:data="{&quot;newLined&quot;:true}">COACH: COACH'S NAME</tspan></text><text fill="#ffffff" font-family="Skater Girls Rock" font-size="50" stroke-opacity="1" stroke-width="1" stroke="#000000" x="-98.72634249947717" y="199.47500657859518" transform="matrix(0.2317061275243759,0,0,0.23170612752437594,376.80752944946295,39.09132385253906)" svgjs:data="{&quot;leading&quot;:&quot;1.3&quot;}"><tspan dy="0" x="-98.72634249947717" svgjs:data="{&quot;newLined&quot;:true}">TEAM MOM: TEAM MOM'S NAME</tspan></text><text fill="#ffffff" font-family="Skater Girls Rock" font-size="50" stroke-opacity="1" stroke-width="1" stroke="#000000" x="-98.72634249947717" y="199.47500657859518" transform="matrix(0.3020563125610351,0,0,0.30205631256103516,42.17485809326172,79.57530975341795)" svgjs:data="{&quot;leading&quot;:&quot;1.3&quot;}"><tspan dy="0" x="-98.72634249947717" svgjs:data="{&quot;newLined&quot;:true}">PLAYER</tspan></text><text fill="#ffffff" font-family="Skater Girls Rock" font-size="50" stroke-opacity="1" stroke-width="1" stroke="#000000" x="-98.72634249947717" y="199.47500657859518" transform="matrix(0.3020563125610351,0,0,0.30205631256103516,50.2393684387207,151.23912048339844)" svgjs:data="{&quot;leading&quot;:&quot;1.3&quot;}"><tspan dy="0" x="-98.72634249947717" svgjs:data="{&quot;newLined&quot;:true}">PLAYER</tspan></text><image width="760" height="760" xlink:href="https://lct-designs.s3.us-west-1.amazonaws.com/assets/libs/lavender-lightning-2-2-1633342536148.png" class="asset" transform="matrix(0.0532485768198967,0,0,0.0532485768198967,22.75715446472168,156.08909606933594)"></image><text fill="#ffffff" font-family="Skater Girls Rock" font-size="50" stroke-opacity="1" stroke-width="1" stroke="#000000" x="-98.72634249947717" y="199.47500657859518" transform="matrix(0.3020563125610351,0,0,0.30205631256103516,117.76625061035156,150.70149230957037)" svgjs:data="{&quot;leading&quot;:&quot;1.3&quot;}"><tspan dy="0" x="-98.72634249947717" svgjs:data="{&quot;newLined&quot;:true}">PLAYER</tspan></text><image width="760" height="760" xlink:href="https://lct-designs.s3.us-west-1.amazonaws.com/assets/libs/lavender-lightning-2-2-1633342536148.png" class="asset" transform="matrix(0.0532485768198967,0,0,0.0532485768198967,90.28403472900389,155.55146789550787)"></image><text fill="#ffffff" font-family="Skater Girls Rock" font-size="50" stroke-opacity="1" stroke-width="1" stroke="#000000" x="-98.72634249947717" y="199.47500657859518" transform="matrix(0.3020563125610351,0,0,0.30205631256103516,52.38991165161133,227.58319091796875)" svgjs:data="{&quot;leading&quot;:&quot;1.3&quot;}"><tspan dy="0" x="-98.72634249947717" svgjs:data="{&quot;newLined&quot;:true}">PLAYER</tspan></text><text fill="#ffffff" font-family="Skater Girls Rock" font-size="50" stroke-opacity="1" stroke-width="1" stroke="#000000" x="-98.72634249947717" y="199.47500657859518" transform="matrix(0.3020563125610351,0,0,0.30205631256103516,119.91679382324219,227.04556274414068)" svgjs:data="{&quot;leading&quot;:&quot;1.3&quot;}"><tspan dy="0" x="-98.72634249947717" svgjs:data="{&quot;newLined&quot;:true}">PLAYER</tspan></text><image width="760" height="760" xlink:href="https://lct-designs.s3.us-west-1.amazonaws.com/assets/libs/lavender-lightning-2-2-1633342536148.png" class="asset" transform="matrix(0.0532485768198967,0,0,0.0532485768198967,92.43457794189453,231.89553833007818)"></image><image width="760" height="760" xlink:href="https://lct-designs.s3.us-west-1.amazonaws.com/assets/libs/lavender-lightning-2-2-1633342536148.png" class="asset" transform="matrix(0.0532485768198967,0,0,0.0532485768198967,24.907697677612305,232.43316650390625)"></image><text fill="#ffffff" font-family="Skater Girls Rock" font-size="50" stroke-opacity="1" stroke-width="1" stroke="#000000" x="-98.72634249947717" y="199.47500657859518" transform="matrix(0.3020563125610351,0,0,0.30205631256103516,262.1748504638672,223.81976318359375)" svgjs:data="{&quot;leading&quot;:&quot;1.3&quot;}"><tspan dy="0" x="-98.72634249947717" svgjs:data="{&quot;newLined&quot;:true}">PLAYER</tspan></text><image width="760" height="760" xlink:href="https://lct-designs.s3.us-west-1.amazonaws.com/assets/libs/lavender-lightning-2-2-1633342536148.png" class="asset" transform="matrix(0.0532485768198967,0,0,0.0532485768198967,234.692626953125,228.6697387695313)"></image><text fill="#ffffff" font-family="Skater Girls Rock" font-size="50" stroke-opacity="1" stroke-width="1" stroke="#000000" x="-98.72634249947717" y="199.47500657859518" transform="matrix(0.3020563125610351,0,0,0.30205631256103516,194.11033630371094,194.2498626708985)" svgjs:data="{&quot;leading&quot;:&quot;1.3&quot;}"><tspan dy="0" x="-98.72634249947717" svgjs:data="{&quot;newLined&quot;:true}">PLAYER</tspan></text><image width="760" height="760" xlink:href="https://lct-designs.s3.us-west-1.amazonaws.com/assets/libs/lavender-lightning-2-2-1633342536148.png" class="asset" transform="matrix(0.0532485768198967,0,0,0.0532485768198967,166.6281280517578,199.09983825683594)"></image><text fill="#ffffff" font-family="Skater Girls Rock" font-size="50" stroke-opacity="1" stroke-width="1" stroke="#000000" x="-98.72634249947717" y="199.47500657859518" transform="matrix(0.3020563125610351,0,0,0.30205631256103516,328.0888671875,192.63697814941406)" svgjs:data="{&quot;leading&quot;:&quot;1.3&quot;}"><tspan dy="0" x="-98.72634249947717" svgjs:data="{&quot;newLined&quot;:true}">PLAYER</tspan></text><image width="760" height="760" xlink:href="https://lct-designs.s3.us-west-1.amazonaws.com/assets/libs/lavender-lightning-2-2-1633342536148.png" class="asset" transform="matrix(0.0532485768198967,0,0,0.0532485768198967,300.60662841796875,197.48695373535162)"></image><image width="760" height="760" xlink:href="https://lct-designs.s3.us-west-1.amazonaws.com/assets/libs/lavender-lightning-2-2-1633342536148.png" class="asset" transform="matrix(0.0532485768198967,0,0,0.0532485768198967,14.69264030456543,84.42528533935548)"></image><text fill="#ffffff" font-family="Skater Girls Rock" font-size="50" stroke-opacity="1" stroke-width="1" stroke="#000000" x="-98.72634249947717" y="199.47500657859518" transform="matrix(0.3020563125610351,0,0,0.30205631256103516,109.70173645019531,79.03767395019533)" svgjs:data="{&quot;leading&quot;:&quot;1.3&quot;}"><tspan dy="0" x="-98.72634249947717" svgjs:data="{&quot;newLined&quot;:true}">PLAYER</tspan></text><image width="760" height="760" xlink:href="https://lct-designs.s3.us-west-1.amazonaws.com/assets/libs/lavender-lightning-2-2-1633342536148.png" class="asset" transform="matrix(0.0532485768198967,0,0,0.0532485768198967,82.21952056884766,83.8876495361328)"></image><image width="760" height="354" xlink:href="https://lct-designs.s3.us-west-1.amazonaws.com/assets/libs/lavender-lightning-2-3-1633342518592.png" class="asset" transform="matrix(0.29711711406707764,0,0,0.2971171140670777,137.59402465820312,79.95299530029298)"></image><image width="618" height="760" xlink:href="https://lct-designs.s3.us-west-1.amazonaws.com/assets/libs/lavender-lightning-2-4-1633342503129.png" class="asset" transform="matrix(0.21717490255832672,0,0,0.21717490255832672,354.830078125,123.13494873046876)"></image><g class="mask" style="pointer-events: none;"><g><path fill="#BCBEC0" d="M-3642.4-2101.7v4589.1h7813.4v-4589.1H-3642.4z M500.5,67.2v233.3v66.7H0.5v-66.7V67.2V0.5h500V67.2z" transform="matrix(1,0,0,1,0,0)"></path><g transform="matrix(1,0,0,1,0,0)">
	<rect x="0.5" y="300.5" opacity="0.95" fill="#F1F2F2" width="500" height="66.7"></rect>
	<rect x="0.5" y="0.5" opacity="0.95" fill="#F1F2F2" width="500" height="66.7"></rect>
</g></g></g></svg>