<svg xmlns="http://www.w3.org/2000/svg" version="1.1" xmlns:xlink="http://www.w3.org/1999/xlink" xmlns:svgjs="http://svgjs.dev/svgjs" width="100%" height="100%" viewBox="1 1 499 365.70001220703125" preserveAspectRatio="none" data-info="{&quot;_id&quot;:4,&quot;name&quot;:&quot;POLE POCKET SOCCER BANNERS&quot;,&quot;information&quot;:&quot;- Size: 3’x5’\n- Material: heavy duty vinyl banner\n- Digitally printed on vinyl&quot;,&quot;price&quot;:&quot;95.00&quot;,&quot;sale_price&quot;:&quot;89.99&quot;,&quot;type&quot;:&quot;pole-pocket&quot;,&quot;cover&quot;:{&quot;key&quot;:&quot;assets/models/pole-1628062864266-1631924568908.png&quot;,&quot;url&quot;:&quot;https://lct-designs.s3.us-west-1.amazonaws.com/assets/models/pole-1628062864266-1631924568908.png&quot;},&quot;back&quot;:{&quot;key&quot;:&quot;assets/models/pole-1631924700152.svg&quot;,&quot;url&quot;:&quot;https://lct-designs.s3.us-west-1.amazonaws.com/assets/models/pole-1631924700152.svg&quot;},&quot;mask&quot;:{&quot;key&quot;:&quot;assets/models/pole-mask-1631925211715.svg&quot;,&quot;url&quot;:&quot;https://lct-designs.s3.us-west-1.amazonaws.com/assets/models/pole-mask-1631925211715.svg&quot;},&quot;pos&quot;:&quot;2&quot;,&quot;accessories&quot;:&quot;2,3&quot;}" style="background-color: white;"><g class="model" style="pointer-events: none;"><polygon fill="#FFFFFF" points="0.5,0.5 0.5,67.2 0.5,300.5 0.5,367.2 500.5,367.2 500.5,300.5 500.5,67.2 500.5,0.5 "></polygon></g><image width="760" height="553" xlink:href="https://lct-designs.s3.us-west-1.amazonaws.com/assets/libs/misfits-1633402757835.png" class="asset background locked" transform="matrix(0.6631103294883024,0,0,0.6631103294883024,0,0)"></image><text fill="#ef4136" font-family="Foo" font-size="50" stroke-opacity="1" stroke-width="2" stroke="#ffffff" x="-98.72634249947717" y="199.47500657859518" transform="matrix(0.2242710143327713,0,0,0.22427101433277133,35.526813507080085,247.009506225586)" svgjs:data="{&quot;leading&quot;:&quot;1.3&quot;}"><tspan dy="0" x="-98.72634249947717" svgjs:data="{&quot;newLined&quot;:true}">COACH: COACH'S NAME</tspan></text><text fill="#ef4136" font-family="Foo" font-size="50" stroke-opacity="1" stroke-width="2" stroke="#ffffff" x="-98.72634249947717" y="199.47500657859518" transform="matrix(0.22427089512348175,0,0,0.22427089512348175,351.7871398925782,247.009506225586)" svgjs:data="{&quot;leading&quot;:&quot;1.3&quot;}"><tspan dy="0" x="-98.72634249947717" svgjs:data="{&quot;newLined&quot;:true}">TEAM MOM: TEAM MOM'S NAME</tspan></text><text fill="#ef4136" font-family="Foo" font-size="50" stroke-opacity="1" stroke-width="1" stroke="#ffffff" x="-98.72634249947717" y="199.47500657859518" transform="matrix(0.30695208907127375,0,0,0.30695208907127386,51.53639984130858,145.2247772216797)" svgjs:data="{&quot;leading&quot;:&quot;1.3&quot;}"><tspan dy="0" x="-98.72634249947717" svgjs:data="{&quot;newLined&quot;:true}">PLAYER</tspan><tspan dy="65" x="-98.72634249947717" svgjs:data="{&quot;newLined&quot;:true}"></tspan></text><image width="760" height="469" xlink:href="https://lct-designs.s3.us-west-1.amazonaws.com/assets/libs/misfits-4-1633342536150.png" class="asset" transform="matrix(0.0762299969792366,0,0,0.07622999697923662,19.516115188598626,156.7958526611328)"></image><text fill="#ef4136" font-family="Foo" font-size="50" stroke-opacity="1" stroke-width="1" stroke="#ffffff" x="-98.72634249947717" y="199.47500657859518" transform="matrix(0.3069521188735962,0,0,0.30695211887359625,380.89123535156256,147.91294860839844)" svgjs:data="{&quot;leading&quot;:&quot;1.3&quot;}"><tspan dy="0" x="-98.72634249947717" svgjs:data="{&quot;newLined&quot;:true}">PLAYER</tspan><tspan dy="65" x="-98.72634249947717" svgjs:data="{&quot;newLined&quot;:true}"></tspan></text><image width="760" height="469" xlink:href="https://lct-designs.s3.us-west-1.amazonaws.com/assets/libs/misfits-4-1633342536150.png" class="asset" transform="matrix(0.0762300193309784,0,0,0.07623001933097841,348.8709411621094,159.48402404785156)"></image><text fill="#ef4136" font-family="Foo" font-size="50" stroke-opacity="1" stroke-width="1" stroke="#ffffff" x="-98.72634249947717" y="199.47500657859518" transform="matrix(0.3069521188735962,0,0,0.30695211887359625,458.6331787109375,147.37530517578125)" svgjs:data="{&quot;leading&quot;:&quot;1.3&quot;}"><tspan dy="0" x="-98.72634249947717" svgjs:data="{&quot;newLined&quot;:true}">PLAYER</tspan><tspan dy="65" x="-98.72634249947717" svgjs:data="{&quot;newLined&quot;:true}"></tspan></text><image width="760" height="469" xlink:href="https://lct-designs.s3.us-west-1.amazonaws.com/assets/libs/misfits-4-1633342536150.png" class="asset" transform="matrix(0.07623004168272018,0,0,0.07623004168272018,426.6128845214844,158.94638061523438)"></image><text fill="#ef4136" font-family="Foo" font-size="50" stroke-opacity="1" stroke-width="1" stroke="#ffffff" x="-98.72634249947717" y="199.47500657859518" transform="matrix(0.3069521188735962,0,0,0.30695211887359625,75.72994995117188,205.9774627685547)" svgjs:data="{&quot;leading&quot;:&quot;1.3&quot;}"><tspan dy="0" x="-98.72634249947717" svgjs:data="{&quot;newLined&quot;:true}">PLAYER</tspan><tspan dy="65" x="-98.72634249947717" svgjs:data="{&quot;newLined&quot;:true}"></tspan></text><image width="760" height="469" xlink:href="https://lct-designs.s3.us-west-1.amazonaws.com/assets/libs/misfits-4-1633342536150.png" class="asset" transform="matrix(0.0762300193309784,0,0,0.07623001933097841,43.709651947021484,217.54853820800787)"></image><text fill="#ef4136" font-family="Foo" font-size="50" stroke-opacity="1" stroke-width="1" stroke="#ffffff" x="-98.72634249947717" y="199.47500657859518" transform="matrix(0.3069521188735962,0,0,0.30695211887359625,153.47189331054688,205.43981933593756)" svgjs:data="{&quot;leading&quot;:&quot;1.3&quot;}"><tspan dy="0" x="-98.72634249947717" svgjs:data="{&quot;newLined&quot;:true}">PLAYER</tspan><tspan dy="65" x="-98.72634249947717" svgjs:data="{&quot;newLined&quot;:true}"></tspan></text><text fill="#ef4136" font-family="Foo" font-size="50" stroke-opacity="1" stroke-width="1" stroke="#ffffff" x="-98.72634249947717" y="199.47500657859518" transform="matrix(0.3069521188735962,0,0,0.30695211887359625,129.27833557128906,144.68713378906256)" svgjs:data="{&quot;leading&quot;:&quot;1.3&quot;}"><tspan dy="0" x="-98.72634249947717" svgjs:data="{&quot;newLined&quot;:true}">PLAYER</tspan><tspan dy="65" x="-98.72634249947717" svgjs:data="{&quot;newLined&quot;:true}"></tspan></text><image width="760" height="469" xlink:href="https://lct-designs.s3.us-west-1.amazonaws.com/assets/libs/misfits-4-1633342536150.png" class="asset" transform="matrix(0.0762299969792366,0,0,0.07622999697923662,97.25804901123047,156.25820922851562)"></image><image width="760" height="139" xlink:href="https://lct-designs.s3.us-west-1.amazonaws.com/assets/libs/misfits-3-1633342518595.png" class="asset" transform="matrix(0.4757949709892273,0,0,0.47579497098922735,69.69552612304686,80.11923980712892)"></image><image width="760" height="651" xlink:href="https://lct-designs.s3.us-west-1.amazonaws.com/assets/libs/misfits-2-1633342503133.png" class="asset" transform="matrix(0.1431407928466797,0,0,0.1431407928466797,196.10577392578128,161.48880004882812)"></image><text fill="#ef4136" font-family="Foo" font-size="50" stroke-opacity="1" stroke-width="1" stroke="#ffffff" x="-98.72634249947717" y="199.47500657859518" transform="matrix(0.3069521188735962,0,0,0.30695211887359625,360.998779296875,208.66563415527344)" svgjs:data="{&quot;leading&quot;:&quot;1.3&quot;}"><tspan dy="0" x="-98.72634249947717" svgjs:data="{&quot;newLined&quot;:true}">PLAYER</tspan><tspan dy="65" x="-98.72634249947717" svgjs:data="{&quot;newLined&quot;:true}"></tspan></text><image width="760" height="469" xlink:href="https://lct-designs.s3.us-west-1.amazonaws.com/assets/libs/misfits-4-1633342536150.png" class="asset" transform="matrix(0.07623007893562317,0,0,0.07623007893562317,328.9784851074219,220.23670959472656)"></image><text fill="#ef4136" font-family="Foo" font-size="50" stroke-opacity="1" stroke-width="1" stroke="#ffffff" x="-98.72634249947717" y="199.47500657859518" transform="matrix(0.3069521188735962,0,0,0.30695211887359625,438.74072265625,208.12799072265625)" svgjs:data="{&quot;leading&quot;:&quot;1.3&quot;}"><tspan dy="0" x="-98.72634249947717" svgjs:data="{&quot;newLined&quot;:true}">PLAYER</tspan><tspan dy="65" x="-98.72634249947717" svgjs:data="{&quot;newLined&quot;:true}"></tspan></text><image width="760" height="469" xlink:href="https://lct-designs.s3.us-west-1.amazonaws.com/assets/libs/misfits-4-1633342536150.png" class="asset" transform="matrix(0.07623010128736496,0,0,0.07623010128736497,406.72039794921875,219.69906616210938)"></image><image width="760" height="469" xlink:href="https://lct-designs.s3.us-west-1.amazonaws.com/assets/libs/misfits-4-1633342536150.png" class="asset" transform="matrix(0.07623005658388138,0,0,0.07623005658388138,121.45158386230469,217.01089477539068)"></image><g class="mask" style="pointer-events: none;"><g><path fill="#BCBEC0" d="M-3642.4-2101.7v4589.1h7813.4v-4589.1H-3642.4z M500.5,67.2v233.3v66.7H0.5v-66.7V67.2V0.5h500V67.2z" transform="matrix(1,0,0,1,0,0)"></path><g transform="matrix(1,0,0,1,0,0)">
	<rect x="0.5" y="300.5" opacity="0.95" fill="#F1F2F2" width="500" height="66.7"></rect>
	<rect x="0.5" y="0.5" opacity="0.95" fill="#F1F2F2" width="500" height="66.7"></rect>
</g></g></g></svg>