<svg xmlns="http://www.w3.org/2000/svg" version="1.1" xmlns:xlink="http://www.w3.org/1999/xlink" xmlns:svgjs="http://svgjs.dev/svgjs" width="100%" height="100%" viewBox="1 1 499 365.70001220703125" preserveAspectRatio="none" data-info="{&quot;_id&quot;:4,&quot;name&quot;:&quot;POLE POCKET SOCCER BANNERS&quot;,&quot;information&quot;:&quot;- Size: 3’x5’\n- Material: heavy duty vinyl banner\n- Digitally printed on vinyl&quot;,&quot;price&quot;:&quot;95.00&quot;,&quot;sale_price&quot;:&quot;89.99&quot;,&quot;type&quot;:&quot;pole-pocket&quot;,&quot;cover&quot;:{&quot;key&quot;:&quot;assets/models/pole-1628062864266-1631924568908.png&quot;,&quot;url&quot;:&quot;https://lct-designs.s3.us-west-1.amazonaws.com/assets/models/pole-1628062864266-1631924568908.png&quot;},&quot;back&quot;:{&quot;key&quot;:&quot;assets/models/pole-1631924700152.svg&quot;,&quot;url&quot;:&quot;https://lct-designs.s3.us-west-1.amazonaws.com/assets/models/pole-1631924700152.svg&quot;},&quot;mask&quot;:{&quot;key&quot;:&quot;assets/models/pole-mask-1631925211715.svg&quot;,&quot;url&quot;:&quot;https://lct-designs.s3.us-west-1.amazonaws.com/assets/models/pole-mask-1631925211715.svg&quot;},&quot;pos&quot;:&quot;2&quot;,&quot;accessories&quot;:&quot;2,3&quot;}" style="background-color: white;"><g class="model" style="pointer-events: none;"><polygon fill="#FFFFFF" points="0.5,0.5 0.5,67.2 0.5,300.5 0.5,367.2 500.5,367.2 500.5,300.5 500.5,67.2 500.5,0.5 "></polygon></g><image width="760" height="558" xlink:href="https://lct-designs.s3.us-west-1.amazonaws.com/assets/libs/reapers-1-1652175122545.png" class="asset background locked" transform="matrix(0.6591246724128724,0,0,0.6571686863899231,0.029349440708756447,0.5000057816505503)"></image><image width="623" height="760" xlink:href="https://lct-designs.s3.us-west-1.amazonaws.com/assets/libs/reapers-3-1652175122545.png" class="asset locked" transform="matrix(0.22546960413455966,0,0,0.22546960413455966,299.7908630371094,76.36282348632812)"></image><text fill="#ffffff" font-family="American Captain" font-size="45" stroke-opacity="1" stroke-width="2" stroke="#000000" x="132.5652164860139" y="200.20285593510073" transform="matrix(0.42644998431205755,0,0,0.41796210408210754,-48.940494537353516,209.55506896972653)" svgjs:data="{&quot;leading&quot;:&quot;1.3&quot;}"><tspan dy="0" x="132.5652164860139" svgjs:data="{&quot;newLined&quot;:true}">Team mom:name</tspan></text><text fill="#ffffff" font-family="American Captain" font-size="45" stroke-opacity="1" stroke-width="2" stroke="#000000" x="196.88483852580882" y="200.20285593510073" transform="matrix(0.4906568604876363,0,0,0.48089114034024055,-0.4323585705807602,50.17081833548218)" svgjs:data="{&quot;leading&quot;:&quot;1.3&quot;}"><tspan dy="0" x="196.88483852580882" svgjs:data="{&quot;newLined&quot;:true}">Player</tspan></text><image width="760" height="721" xlink:href="https://lct-designs.s3.us-west-1.amazonaws.com/assets/libs/reapers-4-1652175122545.png" class="asset" transform="matrix(0.05610703854504374,0,0,0.05499031995644499,101.54694391057049,83.7996743818212)"></image><text fill="#ffffff" font-family="American Captain" font-size="45" stroke-opacity="1" stroke-width="2" stroke="#000000" x="196.88483852580882" y="200.20285593510073" transform="matrix(0.4906568604876363,0,0,0.48089114034024055,6.647800671977365,128.65552316981848)" svgjs:data="{&quot;leading&quot;:&quot;1.3&quot;}"><tspan dy="0" x="196.88483852580882" svgjs:data="{&quot;newLined&quot;:true}">Player</tspan></text><image width="760" height="721" xlink:href="https://lct-designs.s3.us-west-1.amazonaws.com/assets/libs/reapers-4-1652175122545.png" class="asset" transform="matrix(0.05610704421997071,0,0,0.05499032512307168,108.62709808349612,162.77992248535156)"></image><text fill="#ffffff" font-family="American Captain" font-size="45" stroke-opacity="1" stroke-width="2" stroke="#000000" x="196.88483852580882" y="200.20285593510073" transform="matrix(0.4906568604876363,0,0,0.48089114034024055,70.61434835854928,129.51327182085151)" svgjs:data="{&quot;leading&quot;:&quot;1.3&quot;}"><tspan dy="0" x="196.88483852580882" svgjs:data="{&quot;newLined&quot;:true}">Player</tspan></text><image width="760" height="721" xlink:href="https://lct-designs.s3.us-west-1.amazonaws.com/assets/libs/reapers-4-1652175122545.png" class="asset" transform="matrix(0.0561070640924517,0,0,0.054990344995373704,172.5936569126843,163.14213519286568)"></image><text fill="#ffffff" font-family="American Captain" font-size="45" stroke-opacity="1" stroke-width="2" stroke="#000000" x="196.88483852580882" y="200.20285593510073" transform="matrix(0.4906568604876363,0,0,0.48089114034024055,131.5177731583408,129.94214614636806)" svgjs:data="{&quot;leading&quot;:&quot;1.3&quot;}"><tspan dy="0" x="196.88483852580882" svgjs:data="{&quot;newLined&quot;:true}">Player</tspan></text><image width="760" height="721" xlink:href="https://lct-designs.s3.us-west-1.amazonaws.com/assets/libs/reapers-4-1652175122545.png" class="asset" transform="matrix(0.05610707139171112,0,0,0.05499035214935333,233.4970817124759,163.5709948670319)"></image><text fill="#ffffff" font-family="American Captain" font-size="45" stroke-opacity="1" stroke-width="2" stroke="#000000" x="196.88483852580882" y="200.20285593510073" transform="matrix(0.4906568604876363,0,0,0.48089114034024055,70.0979989808175,50.59969998667384)" svgjs:data="{&quot;leading&quot;:&quot;1.3&quot;}"><tspan dy="0" x="196.88483852580882" svgjs:data="{&quot;newLined&quot;:true}">Player</tspan></text><image width="760" height="721" xlink:href="https://lct-designs.s3.us-west-1.amazonaws.com/assets/libs/reapers-4-1652175122545.png" class="asset" transform="matrix(0.056107056793192285,0,0,0.054990337841394066,172.07730753495258,84.22855603301286)"></image><text fill="#ffffff" font-family="American Captain" font-size="45" stroke-opacity="1" stroke-width="2" stroke="#000000" x="196.88483852580882" y="200.20285593510073" transform="matrix(0.4906568604876363,0,0,0.48089114034024055,132.75178852507543,49.313062358774005)" svgjs:data="{&quot;leading&quot;:&quot;1.3&quot;}"><tspan dy="0" x="196.88483852580882" svgjs:data="{&quot;newLined&quot;:true}">Player</tspan></text><image width="760" height="721" xlink:href="https://lct-designs.s3.us-west-1.amazonaws.com/assets/libs/reapers-4-1652175122545.png" class="asset" transform="matrix(0.05610707139171112,0,0,0.05499035214935333,234.73111202809383,82.94191840511303)"></image><text fill="#ffffff" font-family="American Captain" font-size="45" stroke-opacity="1" stroke-width="2" stroke="#000000" x="196.88483852580882" y="200.20285593510073" transform="matrix(0.4906568604876363,0,0,0.48089114034024055,20.32850993011607,195.2694256283121)" svgjs:data="{&quot;leading&quot;:&quot;1.3&quot;}"><tspan dy="0" x="196.88483852580882" svgjs:data="{&quot;newLined&quot;:true}">Player</tspan></text><image width="760" height="721" xlink:href="https://lct-designs.s3.us-west-1.amazonaws.com/assets/libs/reapers-4-1652175122545.png" class="asset" transform="matrix(0.056107010692358024,0,0,0.05499028414487839,26.85236358642578,78.92864990234375)"></image><text fill="#ffffff" font-family="American Captain" font-size="45" stroke-opacity="1" stroke-width="2" stroke="#000000" x="196.88483852580882" y="200.20285593510073" transform="matrix(0.4906569123268128,0,0,0.48089119791984564,-75.1269416809082,45.29978561401367)" svgjs:data="{&quot;leading&quot;:&quot;1.3&quot;}"><tspan dy="0" x="196.88483852580882" svgjs:data="{&quot;newLined&quot;:true}">Player</tspan></text><image width="760" height="721" xlink:href="https://lct-designs.s3.us-west-1.amazonaws.com/assets/libs/reapers-4-1652175122545.png" class="asset" transform="matrix(0.05610703854504374,0,0,0.05499031995644499,122.30781100980948,228.8982890003263)"></image><text fill="#ffffff" font-family="American Captain" font-size="45" stroke-opacity="1" stroke-width="2" stroke="#000000" x="196.88483852580882" y="200.20285593510073" transform="matrix(0.4906568604876363,0,0,0.48089114034024055,84.29505808384059,196.12717427934516)" svgjs:data="{&quot;leading&quot;:&quot;1.3&quot;}"><tspan dy="0" x="196.88483852580882" svgjs:data="{&quot;newLined&quot;:true}">Player</tspan></text><image width="760" height="721" xlink:href="https://lct-designs.s3.us-west-1.amazonaws.com/assets/libs/reapers-4-1652175122545.png" class="asset" transform="matrix(0.0561070640924517,0,0,0.054990344995373704,186.27436663797567,229.75603765135926)"></image><text fill="#ffffff" font-family="American Captain" font-size="45" stroke-opacity="1" stroke-width="2" stroke="#000000" x="196.88483852580882" y="200.20285593510073" transform="matrix(0.4906568604876363,0,0,0.48089114034024055,145.1984828836321,196.55604860486167)" svgjs:data="{&quot;leading&quot;:&quot;1.3&quot;}"><tspan dy="0" x="196.88483852580882" svgjs:data="{&quot;newLined&quot;:true}">Player</tspan></text><image width="760" height="721" xlink:href="https://lct-designs.s3.us-west-1.amazonaws.com/assets/libs/reapers-4-1652175122545.png" class="asset" transform="matrix(0.05610707139171112,0,0,0.05499035214935333,247.17779143776716,230.18489732552555)"></image><text fill="#ffffff" font-family="American Captain" font-size="45" stroke-opacity="1" stroke-width="2" stroke="#000000" x="132.5652164860139" y="200.20285593510073" transform="matrix(0.42645001411437994,0,0,0.41796207427978516,311.4066467285157,209.0595397949219)" svgjs:data="{&quot;leading&quot;:&quot;1.3&quot;}"><tspan dy="0" x="132.5652164860139" svgjs:data="{&quot;newLined&quot;:true}">Coach:Coach's name</tspan></text><g class="mask" style="pointer-events: none;"><g><path fill="#BCBEC0" d="M-3642.4-2101.7v4589.1h7813.4v-4589.1H-3642.4z M500.5,67.2v233.3v66.7H0.5v-66.7V67.2V0.5h500V67.2z" transform="matrix(1,0,0,1,0,0)"></path><g transform="matrix(1,0,0,1,0,0)">
	<rect x="0.5" y="300.5" opacity="0.95" fill="#F1F2F2" width="500" height="66.7"></rect>
	<rect x="0.5" y="0.5" opacity="0.95" fill="#F1F2F2" width="500" height="66.7"></rect>
</g></g></g></svg>