<svg xmlns="http://www.w3.org/2000/svg" version="1.1" xmlns:xlink="http://www.w3.org/1999/xlink" xmlns:svgjs="http://svgjs.dev/svgjs" width="100%" height="100%" viewBox="1 1 499 365.70001220703125" preserveAspectRatio="none" data-info="{&quot;_id&quot;:4,&quot;name&quot;:&quot;POLE POCKET SOCCER BANNERS&quot;,&quot;information&quot;:&quot;- Size: 3’x5’\n- Material: heavy duty vinyl banner\n- Digitally printed on vinyl&quot;,&quot;price&quot;:&quot;95.00&quot;,&quot;sale_price&quot;:&quot;89.99&quot;,&quot;type&quot;:&quot;pole-pocket&quot;,&quot;cover&quot;:{&quot;key&quot;:&quot;assets/models/pole-1628062864266-1631924568908.png&quot;,&quot;url&quot;:&quot;https://lct-designs.s3.us-west-1.amazonaws.com/assets/models/pole-1628062864266-1631924568908.png&quot;},&quot;back&quot;:{&quot;key&quot;:&quot;assets/models/pole-1631924700152.svg&quot;,&quot;url&quot;:&quot;https://lct-designs.s3.us-west-1.amazonaws.com/assets/models/pole-1631924700152.svg&quot;},&quot;mask&quot;:{&quot;key&quot;:&quot;assets/models/pole-mask-1631925211715.svg&quot;,&quot;url&quot;:&quot;https://lct-designs.s3.us-west-1.amazonaws.com/assets/models/pole-mask-1631925211715.svg&quot;},&quot;pos&quot;:&quot;2&quot;,&quot;accessories&quot;:&quot;2,3&quot;}" style="background-color: white;"><g class="model" style="pointer-events: none;"><polygon fill="#FFFFFF" points="0.5,0.5 0.5,67.2 0.5,300.5 0.5,367.2 500.5,367.2 500.5,300.5 500.5,67.2 500.5,0.5 "></polygon></g><image width="760" height="553" xlink:href="https://lct-designs.s3.us-west-1.amazonaws.com/assets/libs/koalas-1632741205260.png" class="asset background locked" transform="matrix(0.6631103294883024,0,0,0.6631103294883024,0,0)"></image><text fill="#ffed00" font-family="Impact" font-size="50" stroke-opacity="1" stroke-width="1" stroke="#000000" x="-98.72634249947717" y="199.47500657859518" transform="matrix(0.23336559534072876,0,0,0.2333655953407288,32.82682800292969,247.24061584472656)" svgjs:data="{&quot;leading&quot;:&quot;1.3&quot;}"><tspan dy="0" x="-98.72634249947717" svgjs:data="{&quot;newLined&quot;:true}">COACH: COACH'S NAME</tspan></text><text fill="#ffed00" font-family="Impact" font-size="50" stroke-opacity="1" stroke-width="1" stroke="#000000" x="-98.72634249947717" y="199.47500657859518" transform="matrix(0.23336562514305115,0,0,0.23336562514305118,372.53073120117193,247.24061584472656)" svgjs:data="{&quot;leading&quot;:&quot;1.3&quot;}"><tspan dy="0" x="-98.72634249947717" svgjs:data="{&quot;newLined&quot;:true}">TEAM MOM: TEAM MOM'S NAME</tspan></text><image width="760" height="309" xlink:href="https://lct-designs.s3.us-west-1.amazonaws.com/assets/libs/koalas-1632477330549.png" class="asset" transform="matrix(0.2881662845611572,0,0,0.2881662845611572,140.995361328125,78.07482147216795)"></image><image width="760" height="730" xlink:href="https://lct-designs.s3.us-west-1.amazonaws.com/assets/libs/koalas-1-1632477311109.png" class="asset" transform="matrix(0.19859819114208221,0,0,0.19859819114208224,341.00018310546875,121.88282775878908)"></image><g class="mask" style="pointer-events: none;"><g><path fill="#BCBEC0" d="M-3642.4-2101.7v4589.1h7813.4v-4589.1H-3642.4z M500.5,67.2v233.3v66.7H0.5v-66.7V67.2V0.5h500V67.2z" transform="matrix(1,0,0,1,0,0)"></path><g transform="matrix(1,0,0,1,0,0)">
	<rect x="0.5" y="300.5" opacity="0.95" fill="#F1F2F2" width="500" height="66.7"></rect>
	<rect x="0.5" y="0.5" opacity="0.95" fill="#F1F2F2" width="500" height="66.7"></rect>
</g></g></g><text fill="#ffed00" font-family="Impact" font-size="50" stroke-opacity="1" stroke-width="1" stroke="#000000" x="-98.72634249947717" y="199.47500657859518" transform="matrix(0.3266672454415911,0,0,0.32666724544159115,52.64351234791411,59.71657964765018)" svgjs:data="{&quot;leading&quot;:&quot;1.3&quot;}"><tspan dy="0" x="-98.72634249947717" svgjs:data="{&quot;newLined&quot;:true}">PLAYER</tspan><tspan dy="65" x="-98.72634249947717" svgjs:data="{&quot;newLined&quot;:true}"></tspan></text><image width="760" height="344" xlink:href="https://lct-designs.s3.us-west-1.amazonaws.com/assets/libs/koalas-2-1632477402738.png" class="asset" transform="matrix(0.061861311911206585,0,0,0.06186131191120659,19.601725482441452,86.5248968826054)"></image><text fill="#ffed00" font-family="Impact" font-size="50" stroke-opacity="1" stroke-width="1" stroke="#000000" x="-98.72634249947717" y="199.47500657859518" transform="matrix(0.3266669569007732,0,0,0.3266669569007732,52.64347541468942,129.47691498983295)" svgjs:data="{&quot;leading&quot;:&quot;1.3&quot;}"><tspan dy="0" x="-98.72634249947717" svgjs:data="{&quot;newLined&quot;:true}">PLAYER</tspan><tspan dy="65" x="-98.72634249947717" svgjs:data="{&quot;newLined&quot;:true}"></tspan></text><image width="760" height="344" xlink:href="https://lct-designs.s3.us-west-1.amazonaws.com/assets/libs/koalas-2-1632477402738.png" class="asset" transform="matrix(0.061861311911206585,0,0,0.06186131191120659,19.601721789118983,156.28522853146575)"></image><text fill="#ffed00" font-family="Impact" font-size="50" stroke-opacity="1" stroke-width="1" stroke="#000000" x="-98.72634249947717" y="199.47500657859518" transform="matrix(0.3266669569007732,0,0,0.3266669569007732,52.64347910801189,197.66609987365524)" svgjs:data="{&quot;leading&quot;:&quot;1.3&quot;}"><tspan dy="0" x="-98.72634249947717" svgjs:data="{&quot;newLined&quot;:true}">PLAYER</tspan><tspan dy="65" x="-98.72634249947717" svgjs:data="{&quot;newLined&quot;:true}"></tspan></text><image width="760" height="344" xlink:href="https://lct-designs.s3.us-west-1.amazonaws.com/assets/libs/koalas-2-1632477402738.png" class="asset" transform="matrix(0.061861311911206585,0,0,0.06186131191120659,19.601725482441452,224.47442080193292)"></image><text fill="#ffed00" font-family="Impact" font-size="50" stroke-opacity="1" stroke-width="1" stroke="#000000" x="-98.72634249947717" y="199.47500657859518" transform="matrix(0.3266669569007732,0,0,0.3266669569007732,118.02181660678798,166.4344048103485)" svgjs:data="{&quot;leading&quot;:&quot;1.3&quot;}"><tspan dy="0" x="-98.72634249947717" svgjs:data="{&quot;newLined&quot;:true}">PLAYER</tspan><tspan dy="65" x="-98.72634249947717" svgjs:data="{&quot;newLined&quot;:true}"></tspan></text><image width="760" height="344" xlink:href="https://lct-designs.s3.us-west-1.amazonaws.com/assets/libs/koalas-2-1632477402738.png" class="asset" transform="matrix(0.061861311911206585,0,0,0.06186131191120659,84.9800611345563,193.2427109653363)"></image><text fill="#ffed00" font-family="Impact" font-size="50" stroke-opacity="1" stroke-width="1" stroke="#000000" x="-98.72634249947717" y="199.47500657859518" transform="matrix(0.3266672454415911,0,0,0.32666724544159115,118.02185354001267,96.67407316148821)" svgjs:data="{&quot;leading&quot;:&quot;1.3&quot;}"><tspan dy="0" x="-98.72634249947717" svgjs:data="{&quot;newLined&quot;:true}">PLAYER</tspan><tspan dy="65" x="-98.72634249947717" svgjs:data="{&quot;newLined&quot;:true}"></tspan></text><image width="760" height="344" xlink:href="https://lct-designs.s3.us-west-1.amazonaws.com/assets/libs/koalas-2-1632477402738.png" class="asset" transform="matrix(0.061861311911206585,0,0,0.06186131191120659,84.9800611345563,123.48238670312095)"></image><text fill="#ffed00" font-family="Impact" font-size="50" stroke-opacity="1" stroke-width="1" stroke="#000000" x="-98.72634249947717" y="199.47500657859518" transform="matrix(0.3266669569007732,0,0,0.3266669569007732,190.8957594434287,197.14556300484765)" svgjs:data="{&quot;leading&quot;:&quot;1.3&quot;}"><tspan dy="0" x="-98.72634249947717" svgjs:data="{&quot;newLined&quot;:true}">PLAYER</tspan><tspan dy="65" x="-98.72634249947717" svgjs:data="{&quot;newLined&quot;:true}"></tspan></text><image width="760" height="344" xlink:href="https://lct-designs.s3.us-west-1.amazonaws.com/assets/libs/koalas-2-1632477402738.png" class="asset" transform="matrix(0.061861311911206585,0,0,0.06186131191120659,157.85399658455208,223.95388393312533)"></image><image width="760" height="344" xlink:href="https://lct-designs.s3.us-west-1.amazonaws.com/assets/libs/koalas-2-1632477402738.png" class="asset" transform="matrix(0.061861311911206585,0,0,0.06186131191120659,298.1884170085541,223.95388393312533)"></image><text fill="#ffed00" font-family="Impact" font-size="50" stroke-opacity="1" stroke-width="1" stroke="#000000" x="-98.72634249947717" y="199.47500657859518" transform="matrix(0.3266669569007732,0,0,0.3266669569007732,331.2301798674307,197.6660851003653)" svgjs:data="{&quot;leading&quot;:&quot;1.3&quot;}"><tspan dy="0" x="-98.72634249947717" svgjs:data="{&quot;newLined&quot;:true}">PLAYER</tspan><tspan dy="65" x="-98.72634249947717" svgjs:data="{&quot;newLined&quot;:true}"></tspan></text><text fill="#ffed00" font-family="Impact" font-size="50" stroke-opacity="1" stroke-width="1" stroke="#000000" x="-98.72634249947717" y="199.47500657859518" transform="matrix(0.3266669569007732,0,0,0.3266669569007732,256.27411171549466,165.91386794154096)" svgjs:data="{&quot;leading&quot;:&quot;1.3&quot;}"><tspan dy="0" x="-98.72634249947717" svgjs:data="{&quot;newLined&quot;:true}">PLAYER</tspan><tspan dy="65" x="-98.72634249947717" svgjs:data="{&quot;newLined&quot;:true}"></tspan></text><image width="760" height="344" xlink:href="https://lct-designs.s3.us-west-1.amazonaws.com/assets/libs/koalas-2-1632477402738.png" class="asset" transform="matrix(0.061861311911206585,0,0,0.06186131191120659,223.2323340833282,192.72217409652876)"></image></svg>