<svg xmlns="http://www.w3.org/2000/svg" version="1.1" xmlns:xlink="http://www.w3.org/1999/xlink" xmlns:svgjs="http://svgjs.dev/svgjs" width="100%" height="100%" viewBox="1 1 499 365.70001220703125" preserveAspectRatio="none" data-info="{&quot;_id&quot;:4,&quot;name&quot;:&quot;POLE POCKET SOCCER BANNERS&quot;,&quot;information&quot;:&quot;- Size: 3’x5’\n- Material: heavy duty vinyl banner\n- Digitally printed on vinyl&quot;,&quot;price&quot;:&quot;95.00&quot;,&quot;sale_price&quot;:&quot;89.99&quot;,&quot;type&quot;:&quot;pole-pocket&quot;,&quot;cover&quot;:{&quot;key&quot;:&quot;assets/models/pole-1628062864266-1631924568908.png&quot;,&quot;url&quot;:&quot;https://lct-designs.s3.us-west-1.amazonaws.com/assets/models/pole-1628062864266-1631924568908.png&quot;},&quot;back&quot;:{&quot;key&quot;:&quot;assets/models/pole-1631924700152.svg&quot;,&quot;url&quot;:&quot;https://lct-designs.s3.us-west-1.amazonaws.com/assets/models/pole-1631924700152.svg&quot;},&quot;mask&quot;:{&quot;key&quot;:&quot;assets/models/pole-mask-1631925211715.svg&quot;,&quot;url&quot;:&quot;https://lct-designs.s3.us-west-1.amazonaws.com/assets/models/pole-mask-1631925211715.svg&quot;},&quot;pos&quot;:&quot;2&quot;,&quot;accessories&quot;:&quot;2,3&quot;}" style="background-color: white;"><g class="model" style="pointer-events: none;"><polygon fill="#FFFFFF" points="0.5,0.5 0.5,67.2 0.5,300.5 0.5,367.2 500.5,367.2 500.5,300.5 500.5,67.2 500.5,0.5 "></polygon></g><image width="760" height="556" xlink:href="https://lct-designs.s3.us-west-1.amazonaws.com/assets/libs/scorpions-1633515464335.png" class="asset background locked" transform="matrix(0.6595323960558116,0,0,0.6595323960558116,0,0)"></image><image width="760" height="513" xlink:href="https://lct-designs.s3.us-west-1.amazonaws.com/assets/libs/scorpions-1633515620071.png" class="asset locked" transform="matrix(0.2977219820022583,0,0,0.2977219820022583,31.60876655578616,112.43445587158203)"></image><image width="760" height="758" xlink:href="https://lct-designs.s3.us-west-1.amazonaws.com/assets/libs/alliance1-1632042447894.png" class="asset" transform="matrix(0.04398950561881066,0,0,0.043989505618810654,348.97555541992193,80.59832000732422)"></image><text fill="#ffffff" font-family="Clarendon" font-size="45" x="194.244259302176" y="199.459545006756" stroke-opacity="1" stroke-width="1" stroke="#000000" transform="matrix(0.39292541146278387,0,0,0.3929254114627838,260.031234741211,52.93412780761719)" svgjs:data="{&quot;leading&quot;:&quot;1.3&quot;}"><tspan dy="0" x="194.244259302176" svgjs:data="{&quot;newLined&quot;:true}">Player</tspan></text><text fill="#ffffff" font-family="Clarendon" font-size="45" x="194.244259302176" y="199.459545006756" stroke-opacity="1" stroke-width="1" stroke="#000000" transform="matrix(0.3929253518581391,0,0,0.39292535185813904,343.08810424804693,52.104373931884766)" svgjs:data="{&quot;leading&quot;:&quot;1.3&quot;}"><tspan dy="0" x="194.244259302176" svgjs:data="{&quot;newLined&quot;:true}">Player</tspan></text><image width="760" height="758" xlink:href="https://lct-designs.s3.us-west-1.amazonaws.com/assets/libs/alliance1-1632042447894.png" class="asset" transform="matrix(0.04398950561881066,0,0,0.043989505618810654,432.0324401855469,79.76856994628906)"></image><text fill="#ffffff" font-family="Clarendon" font-size="45" x="194.244259302176" y="199.459545006756" stroke-opacity="1" stroke-width="1" stroke="#000000" transform="matrix(0.39292541146278387,0,0,0.3929254114627838,97.26275920867923,49.85673904418945)" svgjs:data="{&quot;leading&quot;:&quot;1.3&quot;}"><tspan dy="0" x="194.244259302176" svgjs:data="{&quot;newLined&quot;:true}">Player</tspan></text><image width="760" height="758" xlink:href="https://lct-designs.s3.us-west-1.amazonaws.com/assets/libs/alliance1-1632042447894.png" class="asset" transform="matrix(0.04398950561881066,0,0,0.043989505618810654,186.2070798873902,77.52095031738281)"></image><image width="760" height="758" xlink:href="https://lct-designs.s3.us-west-1.amazonaws.com/assets/libs/alliance1-1632042447894.png" class="asset" transform="matrix(0.04398950561881066,0,0,0.043989505618810654,261.0638272762299,78.97214502096176)"></image><text fill="#ffffff" font-family="Clarendon" font-size="45" x="194.244259302176" y="199.459545006756" stroke-opacity="1" stroke-width="1" stroke="#000000" transform="matrix(0.39292541146278387,0,0,0.3929254114627838,179.02696204185492,51.307949006557465)" svgjs:data="{&quot;leading&quot;:&quot;1.3&quot;}"><tspan dy="0" x="194.244259302176" svgjs:data="{&quot;newLined&quot;:true}">Player</tspan></text><image width="760" height="758" xlink:href="https://lct-designs.s3.us-west-1.amazonaws.com/assets/libs/alliance1-1632042447894.png" class="asset" transform="matrix(0.04398950561881066,0,0,0.043989505618810654,292.79415893554693,139.02734375000003)"></image><text fill="#ffffff" font-family="Clarendon" font-size="45" x="194.244259302176" y="199.459545006756" stroke-opacity="1" stroke-width="1" stroke="#000000" transform="matrix(0.3929253518581391,0,0,0.39292535185813904,204.81080627441412,111.15489196777344)" svgjs:data="{&quot;leading&quot;:&quot;1.3&quot;}"><tspan dy="0" x="194.244259302176" svgjs:data="{&quot;newLined&quot;:true}">Player</tspan></text><text fill="#ffffff" font-family="Clarendon" font-size="45" x="194.244259302176" y="199.459545006756" stroke-opacity="1" stroke-width="1" stroke="#000000" transform="matrix(0.3929252922534943,0,0,0.3929252922534943,289.84982299804693,111.81175994873047)" svgjs:data="{&quot;leading&quot;:&quot;1.3&quot;}"><tspan dy="0" x="194.244259302176" svgjs:data="{&quot;newLined&quot;:true}">Player</tspan></text><image width="760" height="758" xlink:href="https://lct-designs.s3.us-west-1.amazonaws.com/assets/libs/alliance1-1632042447894.png" class="asset" transform="matrix(0.04398950561881066,0,0,0.043989505618810654,433.1138610839844,199.90666198730472)"></image><text fill="#ffffff" font-family="Clarendon" font-size="45" x="194.244259302176" y="199.459545006756" stroke-opacity="1" stroke-width="1" stroke="#000000" transform="matrix(0.3929253816604615,0,0,0.3929253816604614,344.16955566406256,173.0252838134766)" svgjs:data="{&quot;leading&quot;:&quot;1.3&quot;}"><tspan dy="0" x="194.244259302176" svgjs:data="{&quot;newLined&quot;:true}">Player</tspan></text><image width="760" height="758" xlink:href="https://lct-designs.s3.us-west-1.amazonaws.com/assets/libs/alliance1-1632042447894.png" class="asset" transform="matrix(0.04398950561881066,0,0,0.043989505618810654,377.83319091796886,139.68421936035156)"></image><image width="760" height="758" xlink:href="https://lct-designs.s3.us-west-1.amazonaws.com/assets/libs/alliance1-1632042447894.png" class="asset" transform="matrix(0.04398950561881066,0,0,0.043989505618810654,349.70764160156256,198.92840576171878)"></image><text fill="#ffffff" font-family="Clarendon" font-size="45" x="194.244259302176" y="199.459545006756" stroke-opacity="1" stroke-width="1" stroke="#000000" transform="matrix(0.3929253518581391,0,0,0.39292535185813904,261.7242736816406,171.05593872070312)" svgjs:data="{&quot;leading&quot;:&quot;1.3&quot;}"><tspan dy="0" x="194.244259302176" svgjs:data="{&quot;newLined&quot;:true}">Player</tspan></text><image width="760" height="758" xlink:href="https://lct-designs.s3.us-west-1.amazonaws.com/assets/libs/alliance1-1632042447894.png" class="asset" transform="matrix(0.04398950561881066,0,0,0.043989505618810654,273.9791259765625,196.45069885253903)"></image><text fill="#ffffff" font-family="Clarendon" font-size="45" x="194.244259302176" y="199.459545006756" stroke-opacity="1" stroke-width="1" stroke="#000000" transform="matrix(0.39292541146278387,0,0,0.3929254114627838,185.99575805664068,168.57823181152347)" svgjs:data="{&quot;leading&quot;:&quot;1.3&quot;}"><tspan dy="0" x="194.244259302176" svgjs:data="{&quot;newLined&quot;:true}">Player</tspan></text><image width="760" height="758" xlink:href="https://lct-designs.s3.us-west-1.amazonaws.com/assets/libs/alliance1-1632042447894.png" class="asset" transform="matrix(0.04398950561881066,0,0,0.043989505618810654,200.71279907226562,137.04518127441406)"></image><text fill="#ffffff" font-family="Clarendon" font-size="45" x="194.244259302176" y="199.459545006756" stroke-opacity="1" stroke-width="1" stroke="#000000" transform="matrix(0.3929253518581391,0,0,0.39292535185813904,112.72944641113284,109.17272949218753)" svgjs:data="{&quot;leading&quot;:&quot;1.3&quot;}"><tspan dy="0" x="194.244259302176" svgjs:data="{&quot;newLined&quot;:true}">Player</tspan></text><text fill="#ffffff" font-family="Clarendon" font-size="45" stroke-opacity="1" stroke-width="1" stroke="#000000" x="19.80651134685374" y="198.96400438785952" transform="matrix(0.33730861544609075,0,0,0.3373086154460907,18.081005096435547,224.5745697021484)" svgjs:data="{&quot;leading&quot;:&quot;1.3&quot;}"><tspan dy="0" x="19.80651134685374" svgjs:data="{&quot;newLined&quot;:true}">Coach:Coach's name</tspan></text><text fill="#ffffff" font-family="Clarendon" font-size="45" stroke-opacity="1" stroke-width="1" stroke="#000000" x="19.80651134685374" y="198.96400438785952" transform="matrix(0.33730858564376837,0,0,0.33730858564376837,336.3073120117188,224.57460021972653)" svgjs:data="{&quot;leading&quot;:&quot;1.3&quot;}"><tspan dy="0" x="19.80651134685374" svgjs:data="{&quot;newLined&quot;:true}">Team Mom: name</tspan></text><g class="mask" style="pointer-events: none;"><g><path fill="#BCBEC0" d="M-3642.4-2101.7v4589.1h7813.4v-4589.1H-3642.4z M500.5,67.2v233.3v66.7H0.5v-66.7V67.2V0.5h500V67.2z" transform="matrix(1,0,0,1,0,0)"></path><g transform="matrix(1,0,0,1,0,0)">
	<rect x="0.5" y="300.5" opacity="0.95" fill="#F1F2F2" width="500" height="66.7"></rect>
	<rect x="0.5" y="0.5" opacity="0.95" fill="#F1F2F2" width="500" height="66.7"></rect>
</g></g></g></svg>