<svg xmlns="http://www.w3.org/2000/svg" version="1.1" xmlns:xlink="http://www.w3.org/1999/xlink" xmlns:svgjs="http://svgjs.dev/svgjs" width="100%" height="100%" viewBox="1 1 499 365.70001220703125" preserveAspectRatio="none" data-info="{&quot;_id&quot;:4,&quot;name&quot;:&quot;POLE POCKET SOCCER BANNERS&quot;,&quot;information&quot;:&quot;- Size: 3’x5’\n- Material: heavy duty vinyl banner\n- Digitally printed on vinyl&quot;,&quot;price&quot;:&quot;95.00&quot;,&quot;sale_price&quot;:&quot;89.99&quot;,&quot;type&quot;:&quot;pole-pocket&quot;,&quot;cover&quot;:{&quot;key&quot;:&quot;assets/models/pole-1628062864266-1631924568908.png&quot;,&quot;url&quot;:&quot;https://lct-designs.s3.us-west-1.amazonaws.com/assets/models/pole-1628062864266-1631924568908.png&quot;},&quot;back&quot;:{&quot;key&quot;:&quot;assets/models/pole-1631924700152.svg&quot;,&quot;url&quot;:&quot;https://lct-designs.s3.us-west-1.amazonaws.com/assets/models/pole-1631924700152.svg&quot;},&quot;mask&quot;:{&quot;key&quot;:&quot;assets/models/pole-mask-1631925211715.svg&quot;,&quot;url&quot;:&quot;https://lct-designs.s3.us-west-1.amazonaws.com/assets/models/pole-mask-1631925211715.svg&quot;},&quot;pos&quot;:&quot;2&quot;,&quot;accessories&quot;:&quot;2,3&quot;}" style="background-color: white;"><g class="model" style="pointer-events: none;"><polygon fill="#FFFFFF" points="0.5,0.5 0.5,67.2 0.5,300.5 0.5,367.2 500.5,367.2 500.5,300.5 500.5,67.2 500.5,0.5 "></polygon></g><image width="760" height="553" xlink:href="https://lct-designs.s3.us-west-1.amazonaws.com/assets/libs/momentum-1633402757836.png" class="asset background locked" transform="matrix(0.6631103294883024,0,0,0.6631103294883024,0,0)"></image><text fill="#000000" font-family="Chunky Funks" font-size="50" stroke-opacity="1" stroke-width="2" stroke="#ffffff" x="-98.72634249947717" y="199.47500657859518" transform="matrix(0.21729160845279694,0,0,0.21729160845279694,29.74135971069336,37.79203414916992)" svgjs:data="{&quot;leading&quot;:&quot;1.3&quot;}"><tspan dy="0" x="-98.72634249947717" svgjs:data="{&quot;newLined&quot;:true}">COACH: COACH'S NAME</tspan></text><text fill="#000000" font-family="Chunky Funks" font-size="50" stroke-opacity="1" stroke-width="2" stroke="#ffffff" x="-98.72634249947717" y="199.47500657859518" transform="matrix(0.21729148924350736,0,0,0.2172914892435074,350.8792724609375,37.792076110839844)" svgjs:data="{&quot;leading&quot;:&quot;1.3&quot;}"><tspan dy="0" x="-98.72634249947717" svgjs:data="{&quot;newLined&quot;:true}">TEAM MOM: TEAM MOM'S NAME</tspan></text><image width="760" height="202" xlink:href="https://lct-designs.s3.us-west-1.amazonaws.com/assets/libs/momentum-3-1633342518596.png" class="asset" transform="matrix(0.38973721861839294,0,0,0.38973721861839294,102.39790344238281,212.53364562988287)"></image><text fill="#000000" font-family="Chunky Funks" font-size="50" stroke-opacity="1" stroke-width="2" stroke="#ffffff" x="-98.72634249947717" y="199.47500657859518" transform="matrix(0.2872404729913515,0,0,0.2872404729913516,452.91682774560104,99.93299237922203)" svgjs:data="{&quot;leading&quot;:&quot;1.3&quot;}"><tspan dy="0" x="-98.72634249947717" svgjs:data="{&quot;newLined&quot;:true}">PLAYER</tspan></text><image width="648" height="760" xlink:href="https://lct-designs.s3.us-west-1.amazonaws.com/assets/libs/momentum-2-1633342536151.png" class="asset" transform="matrix(0.061717594776139695,0,0,0.0617175947761397,432.0742236962124,96.25323912214206)"></image><text fill="#000000" font-family="Chunky Funks" font-size="50" stroke-opacity="1" stroke-width="2" stroke="#ffffff" x="-98.72634249947717" y="199.47500657859518" transform="matrix(0.2872404729913515,0,0,0.2872404729913516,57.867868243709594,202.71838776087776)" svgjs:data="{&quot;leading&quot;:&quot;1.3&quot;}"><tspan dy="0" x="-98.72634249947717" svgjs:data="{&quot;newLined&quot;:true}">PLAYER</tspan></text><image width="648" height="760" xlink:href="https://lct-designs.s3.us-west-1.amazonaws.com/assets/libs/momentum-2-1633342536151.png" class="asset" transform="matrix(0.061717594776139695,0,0,0.0617175947761397,37.02528076925511,199.0386639703475)"></image><text fill="#000000" font-family="Chunky Funks" font-size="50" stroke-opacity="1" stroke-width="2" stroke="#ffffff" x="-98.72634249947717" y="199.47500657859518" transform="matrix(0.2872404729913515,0,0,0.2872404729913516,443.36506886859206,202.71837302760292)" svgjs:data="{&quot;leading&quot;:&quot;1.3&quot;}"><tspan dy="0" x="-98.72634249947717" svgjs:data="{&quot;newLined&quot;:true}">PLAYER</tspan></text><image width="648" height="760" xlink:href="https://lct-designs.s3.us-west-1.amazonaws.com/assets/libs/momentum-2-1633342536151.png" class="asset" transform="matrix(0.061717594776139695,0,0,0.0617175947761397,422.5224648192034,199.03864923707266)"></image><text fill="#000000" font-family="Chunky Funks" font-size="50" stroke-opacity="1" stroke-width="2" stroke="#ffffff" x="-98.72634249947717" y="199.47500657859518" transform="matrix(0.2872404729913515,0,0,0.2872404729913516,50.70402330272191,99.93297764594719)" svgjs:data="{&quot;leading&quot;:&quot;1.3&quot;}"><tspan dy="0" x="-98.72634249947717" svgjs:data="{&quot;newLined&quot;:true}">PLAYER</tspan></text><text fill="#000000" font-family="Chunky Funks" font-size="50" stroke-opacity="1" stroke-width="2" stroke="#ffffff" x="-98.72634249947717" y="199.47500657859518" transform="matrix(0.2872404729913515,0,0,0.2872404729913516,187.54358601372405,99.93297027930977)" svgjs:data="{&quot;leading&quot;:&quot;1.3&quot;}"><tspan dy="0" x="-98.72634249947717" svgjs:data="{&quot;newLined&quot;:true}">PLAYER</tspan></text><text fill="#000000" font-family="Chunky Funks" font-size="50" stroke-opacity="1" stroke-width="2" stroke="#ffffff" x="-98.72634249947717" y="199.47500657859518" transform="matrix(0.2872404729913515,0,0,0.2872404729913516,322.8258121077615,99.93297027930977)" svgjs:data="{&quot;leading&quot;:&quot;1.3&quot;}"><tspan dy="0" x="-98.72634249947717" svgjs:data="{&quot;newLined&quot;:true}">PLAYER</tspan></text><image width="648" height="760" xlink:href="https://lct-designs.s3.us-west-1.amazonaws.com/assets/libs/momentum-2-1633342536151.png" class="asset" transform="matrix(0.061717594776139695,0,0,0.0617175947761397,166.7009819643354,96.25324648877951)"></image><image width="648" height="760" xlink:href="https://lct-designs.s3.us-west-1.amazonaws.com/assets/libs/momentum-2-1633342536151.png" class="asset" transform="matrix(0.061717594776139695,0,0,0.0617175947761397,301.98320805837284,96.25325385541693)"></image><image width="648" height="760" xlink:href="https://lct-designs.s3.us-west-1.amazonaws.com/assets/libs/momentum-2-1633342536151.png" class="asset" transform="matrix(0.061717594776139695,0,0,0.0617175947761397,29.861419253333224,96.25324648877951)"></image><text fill="#000000" font-family="Chunky Funks" font-size="50" stroke-opacity="1" stroke-width="2" stroke="#ffffff" x="-98.72634249947717" y="199.47500657859518" transform="matrix(0.2872404729913515,0,0,0.2872404729913516,119.33144070052003,141.98153776878831)" svgjs:data="{&quot;leading&quot;:&quot;1.3&quot;}"><tspan dy="0" x="-98.72634249947717" svgjs:data="{&quot;newLined&quot;:true}">PLAYER</tspan></text><text fill="#000000" font-family="Chunky Funks" font-size="50" stroke-opacity="1" stroke-width="2" stroke="#ffffff" x="-98.72634249947717" y="199.47500657859518" transform="matrix(0.2872404729913515,0,0,0.2872404729913516,254.61366679455745,141.98153776878831)" svgjs:data="{&quot;leading&quot;:&quot;1.3&quot;}"><tspan dy="0" x="-98.72634249947717" svgjs:data="{&quot;newLined&quot;:true}">PLAYER</tspan></text><text fill="#000000" font-family="Chunky Funks" font-size="50" stroke-opacity="1" stroke-width="2" stroke="#ffffff" x="-98.72634249947717" y="199.47500657859518" transform="matrix(0.2872404729913515,0,0,0.2872404729913516,384.704682432397,141.98156723533793)" svgjs:data="{&quot;leading&quot;:&quot;1.3&quot;}"><tspan dy="0" x="-98.72634249947717" svgjs:data="{&quot;newLined&quot;:true}">PLAYER</tspan></text><image width="648" height="760" xlink:href="https://lct-designs.s3.us-west-1.amazonaws.com/assets/libs/momentum-2-1633342536151.png" class="asset" transform="matrix(0.061717594776139695,0,0,0.0617175947761397,98.48883665113135,138.30181397825805)"></image><image width="648" height="760" xlink:href="https://lct-designs.s3.us-west-1.amazonaws.com/assets/libs/momentum-2-1633342536151.png" class="asset" transform="matrix(0.061717594776139695,0,0,0.0617175947761397,233.77106274516882,138.30182871153283)"></image><image width="648" height="760" xlink:href="https://lct-designs.s3.us-west-1.amazonaws.com/assets/libs/momentum-2-1633342536151.png" class="asset" transform="matrix(0.061717594776139695,0,0,0.0617175947761397,363.86207838300834,138.30181397825805)"></image><g class="mask" style="pointer-events: none;"><g><path fill="#BCBEC0" d="M-3642.4-2101.7v4589.1h7813.4v-4589.1H-3642.4z M500.5,67.2v233.3v66.7H0.5v-66.7V67.2V0.5h500V67.2z" transform="matrix(1,0,0,1,0,0)"></path><g transform="matrix(1,0,0,1,0,0)">
	<rect x="0.5" y="300.5" opacity="0.95" fill="#F1F2F2" width="500" height="66.7"></rect>
	<rect x="0.5" y="0.5" opacity="0.95" fill="#F1F2F2" width="500" height="66.7"></rect>
</g></g></g></svg>