<svg xmlns="http://www.w3.org/2000/svg" version="1.1" xmlns:xlink="http://www.w3.org/1999/xlink" xmlns:svgjs="http://svgjs.dev/svgjs" width="100%" height="100%" viewBox="1 1 499 365.70001220703125" preserveAspectRatio="none" data-info="{&quot;_id&quot;:4,&quot;name&quot;:&quot;POLE POCKET SOCCER BANNERS&quot;,&quot;information&quot;:&quot;- Size: 3’x5’\n- Material: heavy duty vinyl banner\n- Digitally printed on vinyl&quot;,&quot;price&quot;:&quot;95.00&quot;,&quot;sale_price&quot;:&quot;89.99&quot;,&quot;type&quot;:&quot;pole-pocket&quot;,&quot;cover&quot;:{&quot;key&quot;:&quot;assets/models/pole-1628062864266-1631924568908.png&quot;,&quot;url&quot;:&quot;https://lct-designs.s3.us-west-1.amazonaws.com/assets/models/pole-1628062864266-1631924568908.png&quot;},&quot;back&quot;:{&quot;key&quot;:&quot;assets/models/pole-1631924700152.svg&quot;,&quot;url&quot;:&quot;https://lct-designs.s3.us-west-1.amazonaws.com/assets/models/pole-1631924700152.svg&quot;},&quot;mask&quot;:{&quot;key&quot;:&quot;assets/models/pole-mask-1631925211715.svg&quot;,&quot;url&quot;:&quot;https://lct-designs.s3.us-west-1.amazonaws.com/assets/models/pole-mask-1631925211715.svg&quot;},&quot;pos&quot;:&quot;2&quot;,&quot;accessories&quot;:&quot;2,3&quot;}" style="background-color: white;"><g class="model" style="pointer-events: none;"><polygon fill="#FFFFFF" points="0.5,0.5 0.5,67.2 0.5,300.5 0.5,367.2 500.5,367.2 500.5,300.5 500.5,67.2 500.5,0.5 "></polygon></g><image width="760" height="556" xlink:href="https://lct-designs.s3.us-west-1.amazonaws.com/assets/libs/white-dragon-4-1654143336830.png" class="asset background locked" transform="matrix(0.6595323960558116,0,0,0.6595323960558116,0,0)"></image><image width="760" height="622" xlink:href="https://lct-designs.s3.us-west-1.amazonaws.com/assets/libs/white-dragon-2-1654143347311.png" class="asset locked" transform="matrix(0.2839570343494416,0,0,0.28395703434944153,276.9732360839843,97.33911895751953)"></image><image width="760" height="419" xlink:href="https://lct-designs.s3.us-west-1.amazonaws.com/assets/libs/white-dragon-3-1654143343162.png" class="asset" transform="matrix(0.06984586268663406,0,0,0.06984586268663406,116.2682876586914,117.17143249511716)"></image><text fill="#ffffff" font-family="Great Lakes NF" font-size="45" stroke-opacity="1" stroke-width="2" stroke="#0885d4" x="187.09601645192004" y="203.17421935862163" transform="matrix(0.4490805566310883,0,0,0.44908055663108826,59.91112518310544,49.23929595947265)" svgjs:data="{&quot;leading&quot;:&quot;1.3&quot;}"><tspan dy="0" x="187.09601645192004" svgjs:data="{&quot;newLined&quot;:true}">Player</tspan></text><image width="760" height="419" xlink:href="https://lct-designs.s3.us-west-1.amazonaws.com/assets/libs/white-dragon-3-1654143343162.png" class="asset" transform="matrix(0.06984586268663406,0,0,0.06984586268663406,207.8846435546875,117.17141723632812)"></image><image width="760" height="419" xlink:href="https://lct-designs.s3.us-west-1.amazonaws.com/assets/libs/white-dragon-3-1654143343162.png" class="asset" transform="matrix(0.06984589248895645,0,0,0.06984589248895645,164.19358825683594,82.82730865478513)"></image><image width="760" height="419" xlink:href="https://lct-designs.s3.us-west-1.amazonaws.com/assets/libs/white-dragon-3-1654143343162.png" class="asset" transform="matrix(0.06984593719244003,0,0,0.06984593719244003,72.57722473144528,82.82732391357422)"></image><text fill="#ffffff" font-family="Great Lakes NF" font-size="45" stroke-opacity="1" stroke-width="2" stroke="#0885d4" x="187.09601645192004" y="203.17421935862163" transform="matrix(0.4490805566310883,0,0,0.44908055663108826,16.220064163208008,14.895189285278327)" svgjs:data="{&quot;leading&quot;:&quot;1.3&quot;}"><tspan dy="0" x="187.09601645192004" svgjs:data="{&quot;newLined&quot;:true}">Player</tspan></text><text fill="#ffffff" font-family="Great Lakes NF" font-size="45" stroke-opacity="1" stroke-width="2" stroke="#0885d4" x="187.09601645192004" y="203.17421935862163" transform="matrix(0.4490805566310883,0,0,0.44908055663108826,110.72869873046875,14.482007980346673)" svgjs:data="{&quot;leading&quot;:&quot;1.3&quot;}"><tspan dy="0" x="187.09601645192004" svgjs:data="{&quot;newLined&quot;:true}">Player</tspan></text><text fill="#ffffff" font-family="Great Lakes NF" font-size="45" stroke-opacity="1" stroke-width="2" stroke="#0885d4" x="187.09601645192004" y="203.17421935862163" transform="matrix(0.4490805566310883,0,0,0.44908055663108826,154.4197540283203,48.82611465454101)" svgjs:data="{&quot;leading&quot;:&quot;1.3&quot;}"><tspan dy="0" x="187.09601645192004" svgjs:data="{&quot;newLined&quot;:true}">Player</tspan></text><image width="760" height="419" xlink:href="https://lct-designs.s3.us-west-1.amazonaws.com/assets/libs/white-dragon-3-1654143343162.png" class="asset" transform="matrix(0.06984586268663406,0,0,0.06984586268663406,23.192886352539062,118.41098785400388)"></image><text fill="#ffffff" font-family="Great Lakes NF" font-size="45" stroke-opacity="1" stroke-width="2" stroke="#0885d4" x="187.09601645192004" y="203.17421935862163" transform="matrix(0.4490805566310883,0,0,0.44908055663108826,-33.164276123046875,50.47886276245118)" svgjs:data="{&quot;leading&quot;:&quot;1.3&quot;}"><tspan dy="0" x="187.09601645192004" svgjs:data="{&quot;newLined&quot;:true}">Player</tspan></text><image width="760" height="419" xlink:href="https://lct-designs.s3.us-west-1.amazonaws.com/assets/libs/white-dragon-3-1654143343162.png" class="asset" transform="matrix(0.07266910374164581,0,0,0.07266910374164581,204.6595916748047,156.77680969238278)"></image><text fill="#ffffff" font-family="Great Lakes NF" font-size="45" stroke-opacity="1" stroke-width="2" stroke="#0885d4" x="187.09601645192004" y="203.17421935862163" transform="matrix(0.46723294258117676,0,0,0.4672329425811768,149.03358459472656,85.66890716552734)" svgjs:data="{&quot;leading&quot;:&quot;1.3&quot;}"><tspan dy="0" x="187.09601645192004" svgjs:data="{&quot;newLined&quot;:true}">Player</tspan></text><image width="760" height="419" xlink:href="https://lct-designs.s3.us-west-1.amazonaws.com/assets/libs/white-dragon-3-1654143343162.png" class="asset" transform="matrix(0.07266910374164581,0,0,0.07266910374164581,106.10244750976562,156.77680969238278)"></image><text fill="#ffffff" font-family="Great Lakes NF" font-size="45" stroke-opacity="1" stroke-width="2" stroke="#0885d4" x="187.09601645192004" y="203.17421935862163" transform="matrix(0.46723294258117676,0,0,0.4672329425811768,50.476436614990234,85.66890716552734)" svgjs:data="{&quot;leading&quot;:&quot;1.3&quot;}"><tspan dy="0" x="187.09601645192004" svgjs:data="{&quot;newLined&quot;:true}">Player</tspan></text><image width="760" height="419" xlink:href="https://lct-designs.s3.us-west-1.amazonaws.com/assets/libs/white-dragon-3-1654143343162.png" class="asset" transform="matrix(0.07266910374164581,0,0,0.07266910374164581,10.124584197998033,156.77680969238278)"></image><text fill="#ffffff" font-family="Great Lakes NF" font-size="45" stroke-opacity="1" stroke-width="2" stroke="#0885d4" x="187.09601645192004" y="203.17421935862163" transform="matrix(0.46723294258117676,0,0,0.4672329425811768,-45.50142288208009,85.66890716552734)" svgjs:data="{&quot;leading&quot;:&quot;1.3&quot;}"><tspan dy="0" x="187.09601645192004" svgjs:data="{&quot;newLined&quot;:true}">Player</tspan></text><image width="760" height="419" xlink:href="https://lct-designs.s3.us-west-1.amazonaws.com/assets/libs/white-dragon-3-1654143343162.png" class="asset" transform="matrix(0.06984586268663406,0,0,0.06984586268663406,165.83692932128906,238.1778411865234)"></image><text fill="#ffffff" font-family="Great Lakes NF" font-size="45" stroke-opacity="1" stroke-width="2" stroke="#0885d4" x="187.09601645192004" y="203.17421935862163" transform="matrix(0.4490805566310883,0,0,0.44908055663108826,109.4797592163086,170.24569702148438)" svgjs:data="{&quot;leading&quot;:&quot;1.3&quot;}"><tspan dy="0" x="187.09601645192004" svgjs:data="{&quot;newLined&quot;:true}">Player</tspan></text><image width="760" height="419" xlink:href="https://lct-designs.s3.us-west-1.amazonaws.com/assets/libs/white-dragon-3-1654143343162.png" class="asset" transform="matrix(0.06984586268663406,0,0,0.06984586268663406,72.76152038574219,239.41740417480472)"></image><text fill="#ffffff" font-family="Great Lakes NF" font-size="45" stroke-opacity="1" stroke-width="2" stroke="#0885d4" x="187.09601645192004" y="203.17421935862163" transform="matrix(0.4490805566310883,0,0,0.44908055663108826,16.40435791015625,171.4852752685547)" svgjs:data="{&quot;leading&quot;:&quot;1.3&quot;}"><tspan dy="0" x="187.09601645192004" svgjs:data="{&quot;newLined&quot;:true}">Player</tspan></text><image width="760" height="419" xlink:href="https://lct-designs.s3.us-west-1.amazonaws.com/assets/libs/white-dragon-3-1654143343162.png" class="asset" transform="matrix(0.06984589248895645,0,0,0.06984589248895645,164.9915771484375,197.39230346679688)"></image><image width="760" height="419" xlink:href="https://lct-designs.s3.us-west-1.amazonaws.com/assets/libs/white-dragon-3-1654143343162.png" class="asset" transform="matrix(0.06984596699476242,0,0,0.06984596699476242,73.37521362304685,197.3923187255859)"></image><text fill="#ffffff" font-family="Great Lakes NF" font-size="45" stroke-opacity="1" stroke-width="2" stroke="#0885d4" x="187.09601645192004" y="203.17421935862163" transform="matrix(0.4490805566310883,0,0,0.44908055663108826,17.018054962158217,129.46018981933594)" svgjs:data="{&quot;leading&quot;:&quot;1.3&quot;}"><tspan dy="0" x="187.09601645192004" svgjs:data="{&quot;newLined&quot;:true}">Player</tspan></text><text fill="#ffffff" font-family="Great Lakes NF" font-size="45" stroke-opacity="1" stroke-width="2" stroke="#0885d4" x="187.09601645192004" y="203.17421935862163" transform="matrix(0.4490805566310883,0,0,0.44908055663108826,111.52668762207031,129.04701232910153)" svgjs:data="{&quot;leading&quot;:&quot;1.3&quot;}"><tspan dy="0" x="187.09601645192004" svgjs:data="{&quot;newLined&quot;:true}">Player</tspan></text><g class="mask" style="pointer-events: none;"><g><path fill="#BCBEC0" d="M-3642.4-2101.7v4589.1h7813.4v-4589.1H-3642.4z M500.5,67.2v233.3v66.7H0.5v-66.7V67.2V0.5h500V67.2z" transform="matrix(1,0,0,1,0,0)"></path><g transform="matrix(1,0,0,1,0,0)">
	<rect x="0.5" y="300.5" opacity="0.95" fill="#F1F2F2" width="500" height="66.7"></rect>
	<rect x="0.5" y="0.5" opacity="0.95" fill="#F1F2F2" width="500" height="66.7"></rect>
</g></g></g><text fill="#ffffff" font-family="Great Lakes NF" font-size="45" stroke-opacity="1" stroke-width="3" stroke="#0885d4" x="101.05724005421496" y="200.87372039621928" transform="matrix(0.568419873714447,0,0,0.4139025807380676,-49.78607940673829,212.19972229003903)" svgjs:data="{&quot;leading&quot;:&quot;1.3&quot;}"><tspan dy="0" x="101.05724005421496" svgjs:data="{&quot;newLined&quot;:true}">Team mom:name</tspan></text><text fill="#ffffff" font-family="Great Lakes NF" font-size="45" stroke-opacity="1" stroke-width="3" stroke="#0885d4" x="101.05724005421496" y="200.87372039621928" transform="matrix(0.568419873714447,0,0,0.4139025807380676,228.9125213623047,212.19970703125003)" svgjs:data="{&quot;leading&quot;:&quot;1.3&quot;}"><tspan dy="0" x="101.05724005421496" svgjs:data="{&quot;newLined&quot;:true}">Coach:Coach's name</tspan></text></svg>