<svg xmlns="http://www.w3.org/2000/svg" version="1.1" xmlns:xlink="http://www.w3.org/1999/xlink" xmlns:svgjs="http://svgjs.dev/svgjs" width="100%" height="100%" viewBox="1 1 499 365.70001220703125" preserveAspectRatio="none" data-info="{&quot;_id&quot;:4,&quot;name&quot;:&quot;POLE POCKET SOCCER BANNERS&quot;,&quot;information&quot;:&quot;- Size: 3’x5’\n- Material: heavy duty vinyl banner\n- Digitally printed on vinyl&quot;,&quot;price&quot;:&quot;95.00&quot;,&quot;sale_price&quot;:&quot;89.99&quot;,&quot;type&quot;:&quot;pole-pocket&quot;,&quot;cover&quot;:{&quot;key&quot;:&quot;assets/models/pole-1628062864266-1631924568908.png&quot;,&quot;url&quot;:&quot;https://lct-designs.s3.us-west-1.amazonaws.com/assets/models/pole-1628062864266-1631924568908.png&quot;},&quot;back&quot;:{&quot;key&quot;:&quot;assets/models/pole-1631924700152.svg&quot;,&quot;url&quot;:&quot;https://lct-designs.s3.us-west-1.amazonaws.com/assets/models/pole-1631924700152.svg&quot;},&quot;mask&quot;:{&quot;key&quot;:&quot;assets/models/pole-mask-1631925211715.svg&quot;,&quot;url&quot;:&quot;https://lct-designs.s3.us-west-1.amazonaws.com/assets/models/pole-mask-1631925211715.svg&quot;},&quot;pos&quot;:&quot;2&quot;,&quot;accessories&quot;:&quot;2,3&quot;}" style="background-color: white;"><g class="model" style="pointer-events: none;"><polygon fill="#FFFFFF" points="0.5,0.5 0.5,67.2 0.5,300.5 0.5,367.2 500.5,367.2 500.5,300.5 500.5,67.2 500.5,0.5 "></polygon></g><image width="760" height="553" xlink:href="https://lct-designs.s3.us-west-1.amazonaws.com/assets/libs/hulk-1632132503733.png" class="asset background locked" transform="matrix(0.6631103294883024,0,0,0.6631103294883024,0,0)"></image><text fill="#1b3a00" font-family="Chunky Funks" font-size="50" stroke-opacity="1" stroke-width="1" stroke="#dbe4b5" x="-98.72634249947717" y="199.47500657859518" transform="matrix(0.21928222477436063,0,0,0.21928222477436068,211.89469909667966,236.05502319335938)" svgjs:data="{&quot;leading&quot;:&quot;1.3&quot;}"><tspan dy="0" x="-98.72634249947717" svgjs:data="{&quot;newLined&quot;:true}">COACH: COACH'S NAME</tspan></text><text fill="#1b3a00" font-family="Chunky Funks" font-size="50" stroke-opacity="1" stroke-width="1" stroke="#dbe4b5" x="-98.72634249947717" y="199.47500657859518" transform="matrix(0.21928222477436063,0,0,0.21928222477436068,189.37509155273435,248.39402770996094)" svgjs:data="{&quot;leading&quot;:&quot;1.3&quot;}"><tspan dy="0" x="-98.72634249947717" svgjs:data="{&quot;newLined&quot;:true}">TEAM MOM: TEAM MOM'S NAME</tspan></text><image width="760" height="126" xlink:href="https://lct-designs.s3.us-west-1.amazonaws.com/assets/libs/hulk-3-1632132587660.png" class="asset" transform="matrix(0.39760133624076843,0,0,0.39760133624076843,99.40655517578124,77.42769622802736)"></image><image width="760" height="735" xlink:href="https://lct-designs.s3.us-west-1.amazonaws.com/assets/libs/hulk-4-1632132553636.png" class="asset" transform="matrix(0.1496870517730713,0,0,0.1496870517730713,193.61398315429685,111.3895721435547)"></image><g class="mask" style="pointer-events: none;"><g><path fill="#BCBEC0" d="M-3642.4-2101.7v4589.1h7813.4v-4589.1H-3642.4z M500.5,67.2v233.3v66.7H0.5v-66.7V67.2V0.5h500V67.2z" transform="matrix(1,0,0,1,0,0)"></path><g transform="matrix(1,0,0,1,0,0)">
	<rect x="0.5" y="300.5" opacity="0.95" fill="#F1F2F2" width="500" height="66.7"></rect>
	<rect x="0.5" y="0.5" opacity="0.95" fill="#F1F2F2" width="500" height="66.7"></rect>
</g></g></g><text fill="#1b3a00" font-family="Chunky Funks" font-size="50" stroke-opacity="1" stroke-width="1" stroke="#dbe4b5" x="-98.72634249947717" y="199.47500657859518" transform="matrix(0.28707072138786316,0,0,0.28707072138786316,48.468645095825195,89.82165527343751)" svgjs:data="{&quot;leading&quot;:&quot;1.3&quot;}"><tspan dy="0" x="-98.72634249947717" svgjs:data="{&quot;newLined&quot;:true}">PLAYER</tspan></text><text fill="#1b3a00" font-family="Chunky Funks" font-size="50" stroke-opacity="1" stroke-width="1" stroke="#dbe4b5" x="-98.72634249947717" y="199.47500657859518" transform="matrix(0.287070631980896,0,0,0.28707063198089605,44.29188728332518,155.08343505859375)" svgjs:data="{&quot;leading&quot;:&quot;1.3&quot;}"><tspan dy="0" x="-98.72634249947717" svgjs:data="{&quot;newLined&quot;:true}">PLAYER</tspan></text><text fill="#1b3a00" font-family="Chunky Funks" font-size="50" stroke-opacity="1" stroke-width="1" stroke="#dbe4b5" x="-98.72634249947717" y="199.47500657859518" transform="matrix(0.28707069158554077,0,0,0.28707069158554077,77.56971740722656,221.48017883300776)" svgjs:data="{&quot;leading&quot;:&quot;1.3&quot;}"><tspan dy="0" x="-98.72634249947717" svgjs:data="{&quot;newLined&quot;:true}">PLAYER</tspan></text><image width="760" height="393" xlink:href="https://lct-designs.s3.us-west-1.amazonaws.com/assets/libs/hulk-1-1632132605829.png" class="asset" transform="matrix(0.08315949887037276,0,0,0.08315949887037277,48.63819694519043,236.547134399414)"></image><image width="760" height="393" xlink:href="https://lct-designs.s3.us-west-1.amazonaws.com/assets/libs/hulk-1-1632132605829.png" class="asset" transform="matrix(0.08315957337617873,0,0,0.08315957337617876,19.53712463378906,105.45609283447264)"></image><text fill="#1b3a00" font-family="Chunky Funks" font-size="50" stroke-opacity="1" stroke-width="1" stroke="#dbe4b5" x="-98.72634249947717" y="199.47500657859518" transform="matrix(0.2870701849460601,0,0,0.2870701849460602,338.9521484375,202.93896484375)" svgjs:data="{&quot;leading&quot;:&quot;1.3&quot;}"><tspan dy="0" x="-98.72634249947717" svgjs:data="{&quot;newLined&quot;:true}">PLAYER</tspan></text><image width="760" height="393" xlink:href="https://lct-designs.s3.us-west-1.amazonaws.com/assets/libs/hulk-1-1632132605829.png" class="asset" transform="matrix(-0.08568180352449417,0,0,0.0831597149372101,365.9324035644531,219.1409454345703)"></image><image width="760" height="393" xlink:href="https://lct-designs.s3.us-west-1.amazonaws.com/assets/libs/hulk-1-1632132605829.png" class="asset" transform="matrix(0.08315954357385635,0,0,0.08315954357385635,15.360367774963382,170.150390625)"></image><text fill="#1b3a00" font-family="Chunky Funks" font-size="50" stroke-opacity="1" stroke-width="1" stroke="#dbe4b5" x="-98.72634249947717" y="199.47500657859518" transform="matrix(0.28707075119018555,0,0,0.2870707511901856,128.6441421508789,140.32861328125)" svgjs:data="{&quot;leading&quot;:&quot;1.3&quot;}"><tspan dy="0" x="-98.72634249947717" svgjs:data="{&quot;newLined&quot;:true}">PLAYER</tspan></text><image width="760" height="393" xlink:href="https://lct-designs.s3.us-west-1.amazonaws.com/assets/libs/hulk-1-1632132605829.png" class="asset" transform="matrix(0.08315949887037276,0,0,0.08315949887037277,99.71261596679686,155.39556884765625)"></image><image width="760" height="393" xlink:href="https://lct-designs.s3.us-west-1.amazonaws.com/assets/libs/hulk-1-1632132605829.png" class="asset" transform="matrix(0.08315960317850113,0,0,0.08315960317850114,132.99044799804688,221.7923126220703)"></image><image width="760" height="393" xlink:href="https://lct-designs.s3.us-west-1.amazonaws.com/assets/libs/hulk-1-1632132605829.png" class="asset" transform="matrix(-0.08568167686462402,0,0,0.0831596776843071,450.66387939453125,235.03073120117182)"></image><text fill="#1b3a00" font-family="Chunky Funks" font-size="50" stroke-opacity="1" stroke-width="1" stroke="#dbe4b5" x="-98.72634249947717" y="199.47500657859518" transform="matrix(0.28707006573677063,0,0,0.2870700657367707,423.6835021972656,219.3962860107422)" svgjs:data="{&quot;leading&quot;:&quot;1.3&quot;}"><tspan dy="0" x="-98.72634249947717" svgjs:data="{&quot;newLined&quot;:true}">PLAYER</tspan></text><image width="760" height="393" xlink:href="https://lct-designs.s3.us-west-1.amazonaws.com/assets/libs/hulk-1-1632132605829.png" class="asset" transform="matrix(-0.08568180352449417,0,0,0.08315976709127428,484.95098876953125,168.63397216796875)"></image><text fill="#1b3a00" font-family="Chunky Funks" font-size="50" stroke-opacity="1" stroke-width="1" stroke="#dbe4b5" x="-98.72634249947717" y="199.47500657859518" transform="matrix(0.28707027435302734,0,0,0.2870702743530274,457.9705810546875,152.99952697753906)" svgjs:data="{&quot;leading&quot;:&quot;1.3&quot;}"><tspan dy="0" x="-98.72634249947717" svgjs:data="{&quot;newLined&quot;:true}">PLAYER</tspan></text><image width="760" height="393" xlink:href="https://lct-designs.s3.us-west-1.amazonaws.com/assets/libs/hulk-1-1632132605829.png" class="asset" transform="matrix(-0.0856817439198494,0,0,0.0831596851348877,480.6475830078125,103.93968963623045)"></image><text fill="#1b3a00" font-family="Chunky Funks" font-size="50" stroke-opacity="1" stroke-width="1" stroke="#dbe4b5" x="-98.72634249947717" y="199.47500657859518" transform="matrix(0.28707069158554077,0,0,0.28707069158554077,453.66723632812494,87.7377395629883)" svgjs:data="{&quot;leading&quot;:&quot;1.3&quot;}"><tspan dy="0" x="-98.72634249947717" svgjs:data="{&quot;newLined&quot;:true}">PLAYER</tspan></text><text fill="#1b3a00" font-family="Chunky Funks" font-size="50" stroke-opacity="1" stroke-width="1" stroke="#dbe4b5" x="-98.72634249947717" y="199.47500657859518" transform="matrix(0.2870704233646393,0,0,0.2870704233646393,371.0601501464844,137.67718505859375)" svgjs:data="{&quot;leading&quot;:&quot;1.3&quot;}"><tspan dy="0" x="-98.72634249947717" svgjs:data="{&quot;newLined&quot;:true}">PLAYER</tspan></text><image width="760" height="393" xlink:href="https://lct-designs.s3.us-west-1.amazonaws.com/assets/libs/hulk-1-1632132605829.png" class="asset" transform="matrix(-0.0856817439198494,0,0,0.08315964043140411,398.0404052734375,153.87916564941406)"></image><text fill="#1b3a00" font-family="Chunky Funks" font-size="50" stroke-opacity="1" stroke-width="1" stroke="#dbe4b5" x="-98.72634249947717" y="199.47500657859518" transform="matrix(0.28707057237625117,0,0,0.2870705723762512,161.92195892333982,206.72535705566406)" svgjs:data="{&quot;leading&quot;:&quot;1.3&quot;}"><tspan dy="0" x="-98.72634249947717" svgjs:data="{&quot;newLined&quot;:true}">PLAYER</tspan></text></svg>