<svg xmlns="http://www.w3.org/2000/svg" version="1.1" xmlns:xlink="http://www.w3.org/1999/xlink" xmlns:svgjs="http://svgjs.dev/svgjs" width="100%" height="100%" viewBox="1 1 499 365.70001220703125" preserveAspectRatio="none" data-info="{&quot;_id&quot;:4,&quot;name&quot;:&quot;POLE POCKET SOCCER BANNERS&quot;,&quot;information&quot;:&quot;- Size: 3’x5’\n- Material: heavy duty vinyl banner\n- Digitally printed on vinyl&quot;,&quot;price&quot;:&quot;95.00&quot;,&quot;sale_price&quot;:&quot;89.99&quot;,&quot;type&quot;:&quot;pole-pocket&quot;,&quot;cover&quot;:{&quot;key&quot;:&quot;assets/models/pole-1628062864266-1631924568908.png&quot;,&quot;url&quot;:&quot;https://lct-designs.s3.us-west-1.amazonaws.com/assets/models/pole-1628062864266-1631924568908.png&quot;},&quot;back&quot;:{&quot;key&quot;:&quot;assets/models/pole-1631924700152.svg&quot;,&quot;url&quot;:&quot;https://lct-designs.s3.us-west-1.amazonaws.com/assets/models/pole-1631924700152.svg&quot;},&quot;mask&quot;:{&quot;key&quot;:&quot;assets/models/pole-mask-1631925211715.svg&quot;,&quot;url&quot;:&quot;https://lct-designs.s3.us-west-1.amazonaws.com/assets/models/pole-mask-1631925211715.svg&quot;},&quot;pos&quot;:&quot;2&quot;,&quot;accessories&quot;:&quot;2,3&quot;}" style="background-color: white;"><g class="model" style="pointer-events: none;"><polygon fill="#FFFFFF" points="0.5,0.5 0.5,67.2 0.5,300.5 0.5,367.2 500.5,367.2 500.5,300.5 500.5,67.2 500.5,0.5 "></polygon></g><image width="760" height="558" xlink:href="https://lct-designs.s3.us-west-1.amazonaws.com/assets/libs/broken-hearts-1632823473711.png" class="asset background locked" transform="matrix(0.6571684806577621,0,0,0.6571684806577621,0,0)"></image><text fill="#ffffff" font-family="Impact" font-size="40" x="196.88127233350318" y="200.48091056834267" stroke-opacity="1" stroke-width="1" stroke="#fb1e19" transform="matrix(0.29177808761596685,0,0,0.2917780876159668,-46.004753112792976,27.79274177551271)" svgjs:data="{&quot;leading&quot;:&quot;1.3&quot;}"><tspan dy="0" x="196.88127233350318" svgjs:data="{&quot;newLined&quot;:true}">COACH: COACH'S NAME</tspan></text><text fill="#ffffff" font-family="Impact" font-size="40" x="196.88127233350318" y="200.48091056834267" stroke-opacity="1" stroke-width="1" stroke="#d51826" transform="matrix(0.301501989364624,0,0,0.301501989364624,286.30212402343756,25.84328842163086)" svgjs:data="{&quot;leading&quot;:&quot;1.3&quot;}"><tspan dy="0" x="196.88127233350318" svgjs:data="{&quot;newLined&quot;:true}">TEAM MOM: TEAM MOM'S NAME</tspan></text><text fill="#ffffff" font-family="Impact" font-size="50" x="196.88127233350318" y="200.48091056834267" stroke-opacity="1" stroke-width="1" stroke="#f53400" transform="matrix(0.3172208368778229,0,0,0.3172208368778229,-12.293412208557136,85.89620208740236)" svgjs:data="{&quot;leading&quot;:&quot;1.3&quot;}"><tspan dy="0" x="196.88127233350318" svgjs:data="{&quot;newLined&quot;:true}">player</tspan></text><text fill="#ffffff" font-family="Impact" font-size="50" x="196.88127233350318" y="200.48091056834267" stroke-opacity="1" stroke-width="1" stroke="#f53400" transform="matrix(0.3172208368778229,0,0,0.3172208368778229,55.41634750366211,85.89620971679686)" svgjs:data="{&quot;leading&quot;:&quot;1.3&quot;}"><tspan dy="0" x="196.88127233350318" svgjs:data="{&quot;newLined&quot;:true}">player</tspan></text><text fill="#ffffff" font-family="Impact" font-size="50" x="196.88127233350318" y="200.48091056834267" stroke-opacity="1" stroke-width="1" stroke="#f53400" transform="matrix(0.3172208368778229,0,0,0.3172208368778229,125.66467285156251,85.89620971679686)" svgjs:data="{&quot;leading&quot;:&quot;1.3&quot;}"><tspan dy="0" x="196.88127233350318" svgjs:data="{&quot;newLined&quot;:true}">player</tspan></text><text fill="#ffffff" font-family="Impact" font-size="50" x="196.88127233350318" y="200.48091056834267" stroke-opacity="1" stroke-width="1" stroke="#f53400" transform="matrix(0.3172208368778229,0,0,0.3172208368778229,192.4993743896485,85.89623260498048)" svgjs:data="{&quot;leading&quot;:&quot;1.3&quot;}"><tspan dy="0" x="196.88127233350318" svgjs:data="{&quot;newLined&quot;:true}">player</tspan></text><text fill="#ffffff" font-family="Impact" font-size="50" x="196.88127233350318" y="200.48091056834267" stroke-opacity="1" stroke-width="1" stroke="#f53400" transform="matrix(0.3172208368778229,0,0,0.3172208368778229,260.2091369628907,85.89620208740236)" svgjs:data="{&quot;leading&quot;:&quot;1.3&quot;}"><tspan dy="0" x="196.88127233350318" svgjs:data="{&quot;newLined&quot;:true}">player</tspan></text><text fill="#ffffff" font-family="Impact" font-size="50" x="196.88127233350318" y="200.48091056834267" stroke-opacity="1" stroke-width="1" stroke="#f53400" transform="matrix(0.3172208368778229,0,0,0.3172208368778229,330.45745849609386,85.8961944580078)" svgjs:data="{&quot;leading&quot;:&quot;1.3&quot;}"><tspan dy="0" x="196.88127233350318" svgjs:data="{&quot;newLined&quot;:true}">player</tspan></text><image width="760" height="760" xlink:href="https://lct-designs.s3.us-west-1.amazonaws.com/assets/libs/black-ninjas-1632218035672.png" class="asset" transform="matrix(0.04181372746825219,0,0,0.04181372746825219,397.8055725097656,102.30284118652345)"></image><image width="760" height="760" xlink:href="https://lct-designs.s3.us-west-1.amazonaws.com/assets/libs/black-ninjas-1632218035672.png" class="asset" transform="matrix(0.041813742369413376,0,0,0.04181374236941338,55.05466079711914,102.30284118652345)"></image><image width="760" height="760" xlink:href="https://lct-designs.s3.us-west-1.amazonaws.com/assets/libs/black-ninjas-1632218035672.png" class="asset" transform="matrix(0.04181373491883278,0,0,0.041813734918832786,122.76441955566408,102.30282592773436)"></image><image width="760" height="760" xlink:href="https://lct-designs.s3.us-west-1.amazonaws.com/assets/libs/black-ninjas-1632218035672.png" class="asset" transform="matrix(0.04181373491883278,0,0,0.041813734918832786,193.0127563476563,102.30283355712892)"></image><image width="760" height="760" xlink:href="https://lct-designs.s3.us-west-1.amazonaws.com/assets/libs/black-ninjas-1632218035672.png" class="asset" transform="matrix(0.04181373491883278,0,0,0.041813734918832786,259.8474731445313,102.30283355712892)"></image><image width="760" height="760" xlink:href="https://lct-designs.s3.us-west-1.amazonaws.com/assets/libs/black-ninjas-1632218035672.png" class="asset" transform="matrix(0.04181373491883278,0,0,0.041813734918832786,327.55718994140625,102.30284881591798)"></image><image width="760" height="483" xlink:href="https://lct-designs.s3.us-west-1.amazonaws.com/assets/libs/broken-hearts-1632823560461.png" class="asset" transform="matrix(0.2618352594678228,0,0,0.2618352594678228,207.29927882148695,162.35901915957766)"></image><image width="760" height="407" xlink:href="https://lct-designs.s3.us-west-1.amazonaws.com/assets/libs/broken-hearts-1632823581366.png" class="asset" transform="matrix(0.17800159763886647,0,0,0.1780015976388665,97.89192026992258,199.72836894282233)"></image><image width="760" height="760" xlink:href="https://lct-designs.s3.us-west-1.amazonaws.com/assets/libs/black-ninjas-1632218035672.png" class="asset" transform="matrix(0.04181371629238129,0,0,0.041813716292381294,443.7565307617188,176.901123046875)"></image><image width="760" height="760" xlink:href="https://lct-designs.s3.us-west-1.amazonaws.com/assets/libs/black-ninjas-1632218035672.png" class="asset" transform="matrix(0.04181371629238129,0,0,0.041813716292381294,33.13006591796875,176.901123046875)"></image><g class="mask" style="pointer-events: none;"><g><path fill="#BCBEC0" d="M-3642.4-2101.7v4589.1h7813.4v-4589.1H-3642.4z M500.5,67.2v233.3v66.7H0.5v-66.7V67.2V0.5h500V67.2z" transform="matrix(1,0,0,1,0,0)"></path><g transform="matrix(1,0,0,1,0,0)">
	<rect x="0.5" y="300.5" opacity="0.95" fill="#F1F2F2" width="500" height="66.7"></rect>
	<rect x="0.5" y="0.5" opacity="0.95" fill="#F1F2F2" width="500" height="66.7"></rect>
</g></g></g><text fill="#ffffff" font-family="Impact" font-size="50" x="196.88127233350318" y="200.48091056834267" stroke-opacity="1" stroke-width="1" stroke="#f53400" transform="matrix(0.3172208368778229,0,0,0.3172208368778229,376.4084167480469,160.4944610595703)" svgjs:data="{&quot;leading&quot;:&quot;1.3&quot;}"><tspan dy="0" x="196.88127233350318" svgjs:data="{&quot;newLined&quot;:true}">player</tspan></text><text fill="#ffffff" font-family="Impact" font-size="50" x="196.88127233350318" y="200.48091056834267" stroke-opacity="1" stroke-width="1" stroke="#f53400" transform="matrix(0.3172208368778229,0,0,0.3172208368778229,-34.21804809570313,160.49449157714844)" svgjs:data="{&quot;leading&quot;:&quot;1.3&quot;}"><tspan dy="0" x="196.88127233350318" svgjs:data="{&quot;newLined&quot;:true}">player</tspan></text></svg>