<svg xmlns="http://www.w3.org/2000/svg" version="1.1" xmlns:xlink="http://www.w3.org/1999/xlink" xmlns:svgjs="http://svgjs.dev/svgjs" width="100%" height="100%" viewBox="1 1 499 365.70001220703125" preserveAspectRatio="none" data-info="{&quot;_id&quot;:4,&quot;name&quot;:&quot;POLE POCKET SOCCER BANNERS&quot;,&quot;information&quot;:&quot;- Size: 3’x5’\n- Material: heavy duty vinyl banner\n- Digitally printed on vinyl&quot;,&quot;price&quot;:&quot;95.00&quot;,&quot;sale_price&quot;:&quot;89.99&quot;,&quot;type&quot;:&quot;pole-pocket&quot;,&quot;cover&quot;:{&quot;key&quot;:&quot;assets/models/pole-1628062864266-1631924568908.png&quot;,&quot;url&quot;:&quot;https://lct-designs.s3.us-west-1.amazonaws.com/assets/models/pole-1628062864266-1631924568908.png&quot;},&quot;back&quot;:{&quot;key&quot;:&quot;assets/models/pole-1631924700152.svg&quot;,&quot;url&quot;:&quot;https://lct-designs.s3.us-west-1.amazonaws.com/assets/models/pole-1631924700152.svg&quot;},&quot;mask&quot;:{&quot;key&quot;:&quot;assets/models/pole-mask-1631925211715.svg&quot;,&quot;url&quot;:&quot;https://lct-designs.s3.us-west-1.amazonaws.com/assets/models/pole-mask-1631925211715.svg&quot;},&quot;pos&quot;:&quot;2&quot;,&quot;accessories&quot;:&quot;2,3&quot;}" style="background-color: white;"><g class="model" style="pointer-events: none;"><polygon fill="#FFFFFF" points="0.5,0.5 0.5,67.2 0.5,300.5 0.5,367.2 500.5,367.2 500.5,300.5 500.5,67.2 500.5,0.5 "></polygon></g><image width="760" height="556" xlink:href="https://lct-designs.s3.us-west-1.amazonaws.com/assets/libs/crushers-blue-1632218464959.png" class="asset background locked" transform="matrix(0.6595323960558116,0,0,0.6595323960558116,0,0)"></image><text fill="#66167a" font-family="Impact" font-size="33" x="196.88127233350318" y="200.48091056834267" stroke-opacity="1" stroke-width="1" stroke="#ffffff" transform="matrix(0.38754656910896296,0,0,0.38754656910896296,-66.71199035644531,215.3703002929687)" svgjs:data="{&quot;leading&quot;:&quot;1.3&quot;}"><tspan dy="0" x="196.88127233350318" svgjs:data="{&quot;newLined&quot;:true}">COACH: COACH'S NAME</tspan></text><text fill="#66167a" font-family="Impact" font-size="33" x="196.88127233350318" y="200.48091056834267" stroke-opacity="1" stroke-width="1" stroke="#ffffff" transform="matrix(0.38754656910896296,0,0,0.38754656910896296,258.7615966796875,215.3703002929687)" svgjs:data="{&quot;leading&quot;:&quot;1.3&quot;}"><tspan dy="0" x="196.88127233350318" svgjs:data="{&quot;newLined&quot;:true}">TEAM MOM: TEAM MOM'S NAME</tspan><tspan dy="44.2" x="196.88127233350318" svgjs:data="{&quot;newLined&quot;:true}"></tspan></text><image width="760" height="760" xlink:href="https://lct-designs.s3.us-west-1.amazonaws.com/assets/libs/asset-2-1654132582294.png" class="asset" transform="matrix(0.04513785988092422,0,0,0.045137859880924225,18.742439270019524,210.2387084960937)"></image><text fill="#66167a" font-family="Impact" font-size="30" x="196.88127233350318" y="200.48091056834267" stroke-opacity="1" stroke-width="1" stroke="#ffffff" transform="matrix(0.5135172605514525,0,0,0.5135172605514526,-87.11271667480469,32.97035217285156)" svgjs:data="{&quot;leading&quot;:&quot;1.3&quot;}"><tspan dy="0" x="196.88127233350318" svgjs:data="{&quot;newLined&quot;:true}">PLAYER</tspan></text><text fill="#66167a" font-family="Impact" font-size="30" x="196.88127233350318" y="200.48091056834267" stroke-opacity="1" stroke-width="1" stroke="#ffffff" transform="matrix(0.5135172605514525,0,0,0.5135172605514526,-86.630615234375,160.1324462890625)" svgjs:data="{&quot;leading&quot;:&quot;1.3&quot;}"><tspan dy="0" x="196.88127233350318" svgjs:data="{&quot;newLined&quot;:true}">PLAYER</tspan></text><image width="760" height="760" xlink:href="https://lct-designs.s3.us-west-1.amazonaws.com/assets/libs/asset-2-1654132582294.png" class="asset" transform="matrix(0.04513785988092422,0,0,0.045137859880924225,18.260345458984368,83.07661437988283)"></image><image width="760" height="760" xlink:href="https://lct-designs.s3.us-west-1.amazonaws.com/assets/libs/asset-2-1654132582294.png" class="asset" transform="matrix(0.04513785988092422,0,0,0.045137859880924225,73.21066284179685,145.1790313720703)"></image><text fill="#66167a" font-family="Impact" font-size="30" x="196.88127233350318" y="200.48091056834267" stroke-opacity="1" stroke-width="1" stroke="#ffffff" transform="matrix(0.5135172605514525,0,0,0.5135172605514526,-32.16239547729492,95.07276153564452)" svgjs:data="{&quot;leading&quot;:&quot;1.3&quot;}"><tspan dy="0" x="196.88127233350318" svgjs:data="{&quot;newLined&quot;:true}">PLAYER</tspan></text><image width="760" height="385" xlink:href="https://lct-designs.s3.us-west-1.amazonaws.com/assets/libs/crushers-blue-1632218486473.png" class="asset" transform="matrix(0.33128467202186584,0,0,0.33128467202186584,125.1009292602539,149.74072265625)"></image><text fill="#66167a" font-family="Impact" font-size="30" x="196.88127233350318" y="200.48091056834267" stroke-opacity="1" stroke-width="1" stroke="#ffffff" transform="matrix(0.5135172605514525,0,0,0.5135172605514526,55.37245178222654,30.013092041015625)" svgjs:data="{&quot;leading&quot;:&quot;1.3&quot;}"><tspan dy="0" x="196.88127233350318" svgjs:data="{&quot;newLined&quot;:true}">PLAYER</tspan></text><image width="760" height="760" xlink:href="https://lct-designs.s3.us-west-1.amazonaws.com/assets/libs/asset-2-1654132582294.png" class="asset" transform="matrix(0.04513785988092422,0,0,0.045137859880924225,160.74824523925778,78.9364547729492)"></image><text fill="#66167a" font-family="Impact" font-size="30" x="196.88127233350318" y="200.48091056834267" stroke-opacity="1" stroke-width="1" stroke="#ffffff" transform="matrix(0.5135172605514525,0,0,0.5135172605514526,201.4063110351562,29.421638488769545)" svgjs:data="{&quot;leading&quot;:&quot;1.3&quot;}"><tspan dy="0" x="196.88127233350318" svgjs:data="{&quot;newLined&quot;:true}">PLAYER</tspan></text><image width="760" height="760" xlink:href="https://lct-designs.s3.us-west-1.amazonaws.com/assets/libs/asset-2-1654132582294.png" class="asset" transform="matrix(0.04513785988092422,0,0,0.045137859880924225,306.7793884277343,79.5279006958008)"></image><image width="760" height="760" xlink:href="https://lct-designs.s3.us-west-1.amazonaws.com/assets/libs/asset-2-1654132582294.png" class="asset" transform="matrix(-0.045182459056377404,0,0,0.045137859880924225,483.3479919433594,211.42160034179688)"></image><image width="760" height="760" xlink:href="https://lct-designs.s3.us-west-1.amazonaws.com/assets/libs/asset-2-1654132582294.png" class="asset" transform="matrix(-0.045182459056377404,0,0,0.045137859880924225,483.3479919433594,84.25950622558592)"></image><text fill="#66167a" font-family="Impact" font-size="30" x="196.88127233350318" y="200.48091056834267" stroke-opacity="1" stroke-width="1" stroke="#ffffff" transform="matrix(0.5135172605514525,0,0,0.5135172605514526,343.65042114257807,159.54098510742188)" svgjs:data="{&quot;leading&quot;:&quot;1.3&quot;}"><tspan dy="0" x="196.88127233350318" svgjs:data="{&quot;newLined&quot;:true}">PLAYER</tspan></text><text fill="#66167a" font-family="Impact" font-size="30" x="196.88127233350318" y="200.48091056834267" stroke-opacity="1" stroke-width="1" stroke="#ffffff" transform="matrix(0.5135172605514525,0,0,0.5135172605514526,343.65039062499994,32.37889099121094)" svgjs:data="{&quot;leading&quot;:&quot;1.3&quot;}"><tspan dy="0" x="196.88127233350318" svgjs:data="{&quot;newLined&quot;:true}">PLAYER</tspan></text><image width="760" height="760" xlink:href="https://lct-designs.s3.us-west-1.amazonaws.com/assets/libs/asset-2-1654132582294.png" class="asset" transform="matrix(-0.045182459056377404,0,0,0.045137859880924225,428.28823852539057,146.36192321777344)"></image><text fill="#66167a" font-family="Impact" font-size="30" x="196.88127233350318" y="200.48091056834267" stroke-opacity="1" stroke-width="1" stroke="#ffffff" transform="matrix(0.5135172605514525,0,0,0.5135172605514526,288.59072875976557,95.66421508789064)" svgjs:data="{&quot;leading&quot;:&quot;1.3&quot;}"><tspan dy="0" x="196.88127233350318" svgjs:data="{&quot;newLined&quot;:true}">PLAYER</tspan></text><g class="mask" style="pointer-events: none;"><g><path fill="#BCBEC0" d="M-3642.4-2101.7v4589.1h7813.4v-4589.1H-3642.4z M500.5,67.2v233.3v66.7H0.5v-66.7V67.2V0.5h500V67.2z" transform="matrix(1,0,0,1,0,0)"></path><g transform="matrix(1,0,0,1,0,0)">
	<rect x="0.5" y="300.5" opacity="0.95" fill="#F1F2F2" width="500" height="66.7"></rect>
	<rect x="0.5" y="0.5" opacity="0.95" fill="#F1F2F2" width="500" height="66.7"></rect>
</g></g></g></svg>