<svg xmlns="http://www.w3.org/2000/svg" version="1.1" xmlns:xlink="http://www.w3.org/1999/xlink" xmlns:svgjs="http://svgjs.dev/svgjs" width="100%" height="100%" viewBox="1 1 499 365.70001220703125" preserveAspectRatio="none" data-info="{&quot;_id&quot;:4,&quot;name&quot;:&quot;POLE POCKET SOCCER BANNERS&quot;,&quot;information&quot;:&quot;- Size: 3’x5’\n- Material: heavy duty vinyl banner\n- Digitally printed on vinyl&quot;,&quot;price&quot;:&quot;95.00&quot;,&quot;sale_price&quot;:&quot;89.99&quot;,&quot;type&quot;:&quot;pole-pocket&quot;,&quot;cover&quot;:{&quot;key&quot;:&quot;assets/models/pole-1628062864266-1631924568908.png&quot;,&quot;url&quot;:&quot;https://lct-designs.s3.us-west-1.amazonaws.com/assets/models/pole-1628062864266-1631924568908.png&quot;},&quot;back&quot;:{&quot;key&quot;:&quot;assets/models/pole-1631924700152.svg&quot;,&quot;url&quot;:&quot;https://lct-designs.s3.us-west-1.amazonaws.com/assets/models/pole-1631924700152.svg&quot;},&quot;mask&quot;:{&quot;key&quot;:&quot;assets/models/pole-mask-1631925211715.svg&quot;,&quot;url&quot;:&quot;https://lct-designs.s3.us-west-1.amazonaws.com/assets/models/pole-mask-1631925211715.svg&quot;},&quot;pos&quot;:&quot;2&quot;,&quot;accessories&quot;:&quot;2,3&quot;}" style="background-color: white;"><g class="model" style="pointer-events: none;"><polygon fill="#FFFFFF" points="0.5,0.5 0.5,67.2 0.5,300.5 0.5,367.2 500.5,367.2 500.5,300.5 500.5,67.2 500.5,0.5 "></polygon></g><image width="760" height="558" xlink:href="https://lct-designs.s3.us-west-1.amazonaws.com/assets/libs/robots-2-1-1652238619950.png" class="asset background locked" transform="matrix(0.6583792567253113,0,0,0.6571686267852783,0,0)"></image><image width="760" height="157" xlink:href="https://lct-designs.s3.us-west-1.amazonaws.com/assets/libs/robots-2-4-1652238656078.png" class="asset" transform="matrix(0.49787774682044983,0,0,0.49787774682044983,86.55597686767578,74.09947204589844)"></image><image width="760" height="750" xlink:href="https://lct-designs.s3.us-west-1.amazonaws.com/assets/libs/robots-1652240462388.png" class="asset" transform="matrix(0.18139828741550446,0,0,0.19108447432518005,17.340137481689453,151.49171447753906)"></image><image width="760" height="506" xlink:href="https://lct-designs.s3.us-west-1.amazonaws.com/assets/libs/eagle-2-3-1647838576796.png" class="asset" transform="matrix(0.0631692335009575,0,0,0.06316923350095749,174.1873779296875,218.2912902832031)"></image><text fill="#ffffff" font-family="American Captain" font-size="45" stroke-opacity="1" stroke-width="2" stroke="#000000" x="196.88393072804308" y="200.41361831492046" transform="matrix(0.43330612778663635,0,0,0.43330612778663635,91.19874572753906,182.0550994873047)" svgjs:data="{&quot;leading&quot;:&quot;1.3&quot;}"><tspan dy="0" x="196.88393072804308" svgjs:data="{&quot;newLined&quot;:true}">Player</tspan></text><image width="760" height="506" xlink:href="https://lct-designs.s3.us-west-1.amazonaws.com/assets/libs/eagle-2-3-1647838576796.png" class="asset" transform="matrix(0.0631692335009575,0,0,0.06316923350095749,253.90696716308594,220.59179687500003)"></image><image width="760" height="506" xlink:href="https://lct-designs.s3.us-west-1.amazonaws.com/assets/libs/eagle-2-3-1647838576796.png" class="asset" transform="matrix(0.06316924840211868,0,0,0.06316924840211868,328.54249572753906,222.6349792480469)"></image><text fill="#ffffff" font-family="American Captain" font-size="45" stroke-opacity="1" stroke-width="2" stroke="#000000" x="196.88393072804308" y="200.41361831492046" transform="matrix(0.4333059787750244,0,0,0.43330597877502447,245.5539093017578,186.85888671875003)" svgjs:data="{&quot;leading&quot;:&quot;1.3&quot;}"><tspan dy="0" x="196.88393072804308" svgjs:data="{&quot;newLined&quot;:true}">Player</tspan></text><image width="760" height="506" xlink:href="https://lct-designs.s3.us-west-1.amazonaws.com/assets/libs/eagle-2-3-1647838576796.png" class="asset" transform="matrix(0.06316921859979631,0,0,0.0631692185997963,410.5988006591797,222.28009033203128)"></image><text fill="#ffffff" font-family="American Captain" font-size="45" stroke-opacity="1" stroke-width="2" stroke="#000000" x="196.88393072804308" y="200.41361831492046" transform="matrix(0.4333059489727021,0,0,0.433305948972702,327.6101837158203,186.04389953613278)" svgjs:data="{&quot;leading&quot;:&quot;1.3&quot;}"><tspan dy="0" x="196.88393072804308" svgjs:data="{&quot;newLined&quot;:true}">Player</tspan></text><text fill="#ffffff" font-family="American Captain" font-size="45" stroke-opacity="1" stroke-width="2" stroke="#000000" x="196.88393072804308" y="200.41361831492046" transform="matrix(0.43330609798431396,0,0,0.43330609798431396,170.9183349609375,184.35560607910156)" svgjs:data="{&quot;leading&quot;:&quot;1.3&quot;}"><tspan dy="0" x="196.88393072804308" svgjs:data="{&quot;newLined&quot;:true}">Player</tspan></text><image width="760" height="506" xlink:href="https://lct-designs.s3.us-west-1.amazonaws.com/assets/libs/eagle-2-3-1647838576796.png" class="asset" transform="matrix(0.0631692335009575,0,0,0.06316923350095749,232.16001892089844,162.15904235839844)"></image><text fill="#ffffff" font-family="American Captain" font-size="45" stroke-opacity="1" stroke-width="2" stroke="#000000" x="196.88393072804308" y="200.41361831492046" transform="matrix(0.4333062469959259,0,0,0.4333062469959259,149.17138671875,125.9228515625)" svgjs:data="{&quot;leading&quot;:&quot;1.3&quot;}"><tspan dy="0" x="196.88393072804308" svgjs:data="{&quot;newLined&quot;:true}">Player</tspan></text><image width="760" height="506" xlink:href="https://lct-designs.s3.us-west-1.amazonaws.com/assets/libs/eagle-2-3-1647838576796.png" class="asset" transform="matrix(0.06316924840211868,0,0,0.06316924840211868,306.79554748535156,164.2022247314453)"></image><text fill="#ffffff" font-family="American Captain" font-size="45" stroke-opacity="1" stroke-width="2" stroke="#000000" x="196.88393072804308" y="200.41361831492046" transform="matrix(0.4333063066005707,0,0,0.43330630660057073,223.8069610595703,127.96603393554688)" svgjs:data="{&quot;leading&quot;:&quot;1.3&quot;}"><tspan dy="0" x="196.88393072804308" svgjs:data="{&quot;newLined&quot;:true}">Player</tspan></text><image width="760" height="506" xlink:href="https://lct-designs.s3.us-west-1.amazonaws.com/assets/libs/eagle-2-3-1647838576796.png" class="asset" transform="matrix(0.06316921859979631,0,0,0.0631692185997963,388.8518524169922,163.8473358154297)"></image><text fill="#ffffff" font-family="American Captain" font-size="45" stroke-opacity="1" stroke-width="2" stroke="#000000" x="196.88393072804308" y="200.41361831492046" transform="matrix(0.4333063066005707,0,0,0.43330630660057073,305.8632354736328,127.61114501953125)" svgjs:data="{&quot;leading&quot;:&quot;1.3&quot;}"><tspan dy="0" x="196.88393072804308" svgjs:data="{&quot;newLined&quot;:true}">Player</tspan></text><image width="760" height="506" xlink:href="https://lct-designs.s3.us-west-1.amazonaws.com/assets/libs/eagle-2-3-1647838576796.png" class="asset" transform="matrix(0.0631692335009575,0,0,0.06316923350095749,152.4404296875,159.85853576660156)"></image><text fill="#ffffff" font-family="American Captain" font-size="45" stroke-opacity="1" stroke-width="2" stroke="#000000" x="196.88393072804308" y="200.41361831492046" transform="matrix(0.43330618739128113,0,0,0.43330618739128113,69.45179748535156,123.62234497070312)" svgjs:data="{&quot;leading&quot;:&quot;1.3&quot;}"><tspan dy="0" x="196.88393072804308" svgjs:data="{&quot;newLined&quot;:true}">Player</tspan></text><text fill="#ffffff" font-family="American Captain" font-size="45" stroke-opacity="1" stroke-width="2" stroke="#000000" x="129.74522070607043" y="200.41361831492046" transform="matrix(0.3708074986934662,0,0,0.3708074986934662,338.4999084472656,222.19345092773435)" svgjs:data="{&quot;leading&quot;:&quot;1.3&quot;}"><tspan dy="0" x="129.74522070607043" svgjs:data="{&quot;newLined&quot;:true}">coach:coach's name</tspan></text><text fill="#ffffff" font-family="American Captain" font-size="45" stroke-opacity="1" stroke-width="2" stroke="#000000" x="129.74522070607043" y="200.41361831492046" transform="matrix(0.3708074986934662,0,0,0.3708074986934662,-43.50561523437499,11.46746921539306)" svgjs:data="{&quot;leading&quot;:&quot;1.3&quot;}"><tspan dy="0" x="129.74522070607043" svgjs:data="{&quot;newLined&quot;:true}">team mom: name</tspan></text><g class="mask" style="pointer-events: none;"><g><path fill="#BCBEC0" d="M-3642.4-2101.7v4589.1h7813.4v-4589.1H-3642.4z M500.5,67.2v233.3v66.7H0.5v-66.7V67.2V0.5h500V67.2z" transform="matrix(1,0,0,1,0,0)"></path><g transform="matrix(1,0,0,1,0,0)">
	<rect x="0.5" y="300.5" opacity="0.95" fill="#F1F2F2" width="500" height="66.7"></rect>
	<rect x="0.5" y="0.5" opacity="0.95" fill="#F1F2F2" width="500" height="66.7"></rect>
</g></g></g></svg>