<svg xmlns="http://www.w3.org/2000/svg" version="1.1" xmlns:xlink="http://www.w3.org/1999/xlink" xmlns:svgjs="http://svgjs.dev/svgjs" width="100%" height="100%" viewBox="1 1 499 365.70001220703125" preserveAspectRatio="none" data-info="{&quot;_id&quot;:4,&quot;name&quot;:&quot;POLE POCKET SOCCER BANNERS&quot;,&quot;information&quot;:&quot;- Size: 3’x5’\n- Material: heavy duty vinyl banner\n- Digitally printed on vinyl&quot;,&quot;price&quot;:&quot;95.00&quot;,&quot;sale_price&quot;:&quot;89.99&quot;,&quot;type&quot;:&quot;pole-pocket&quot;,&quot;cover&quot;:{&quot;key&quot;:&quot;assets/models/pole-1628062864266-1631924568908.png&quot;,&quot;url&quot;:&quot;https://lct-designs.s3.us-west-1.amazonaws.com/assets/models/pole-1628062864266-1631924568908.png&quot;},&quot;back&quot;:{&quot;key&quot;:&quot;assets/models/pole-1631924700152.svg&quot;,&quot;url&quot;:&quot;https://lct-designs.s3.us-west-1.amazonaws.com/assets/models/pole-1631924700152.svg&quot;},&quot;mask&quot;:{&quot;key&quot;:&quot;assets/models/pole-mask-1631925211715.svg&quot;,&quot;url&quot;:&quot;https://lct-designs.s3.us-west-1.amazonaws.com/assets/models/pole-mask-1631925211715.svg&quot;},&quot;pos&quot;:&quot;2&quot;,&quot;accessories&quot;:&quot;2,3&quot;}" style="background-color: white;"><g class="model" style="pointer-events: none;"><polygon fill="#FFFFFF" points="0.5,0.5 0.5,67.2 0.5,300.5 0.5,367.2 500.5,367.2 500.5,300.5 500.5,67.2 500.5,0.5 "></polygon></g><image width="760" height="556" xlink:href="https://lct-designs.s3.us-west-1.amazonaws.com/assets/libs/time-lords-1-1652435481774.png" class="asset background locked" transform="matrix(0.6595323960558116,0,0,0.6595323960558116,0,0)"></image><g class="" transform="matrix(1,0,0,1,0,0)"></g><image width="760" height="249" xlink:href="https://lct-designs.s3.us-west-1.amazonaws.com/assets/libs/asset-1-1654574109935.png" class="asset" transform="matrix(0.36441406607627874,0,0,0.36441406607627874,129.18045043945318,109.485710144043)"></image><image width="760" height="556" xlink:href="https://lct-designs.s3.us-west-1.amazonaws.com/assets/libs/time-lords-2-1652435651684.png" class="asset" transform="matrix(0.05508802086114884,0,0,0.05508802086114884,21.109832882881165,211.68688964843753)"></image><text fill="#ffe000" font-family="Antilles" font-size="45" stroke-opacity="1" stroke-width="2" stroke="#9c1925" x="194.244259302176" y="199.459545006756" transform="matrix(0.5165574550628662,0,0,0.5165574550628663,-32.28610599040984,131.21646118164062)" svgjs:data="{&quot;leading&quot;:&quot;1.3&quot;}"><tspan dy="0" x="194.244259302176" svgjs:data="{&quot;newLined&quot;:true}">player</tspan></text><image width="760" height="556" xlink:href="https://lct-designs.s3.us-west-1.amazonaws.com/assets/libs/time-lords-2-1652435651684.png" class="asset" transform="matrix(0.05508802086114884,0,0,0.05508802086114884,138.1447144746781,211.68688964843753)"></image><text fill="#ffe000" font-family="Antilles" font-size="45" stroke-opacity="1" stroke-width="2" stroke="#9c1925" x="194.244259302176" y="199.459545006756" transform="matrix(0.5165574550628662,0,0,0.5165574550628663,84.74877178668979,131.21646118164062)" svgjs:data="{&quot;leading&quot;:&quot;1.3&quot;}"><tspan dy="0" x="194.244259302176" svgjs:data="{&quot;newLined&quot;:true}">player</tspan></text><image width="760" height="556" xlink:href="https://lct-designs.s3.us-west-1.amazonaws.com/assets/libs/time-lords-2-1652435651684.png" class="asset" transform="matrix(0.05508802086114884,0,0,0.05508802086114884,260.03039562702185,212.09727478027347)"></image><text fill="#ffe000" font-family="Antilles" font-size="45" stroke-opacity="1" stroke-width="2" stroke="#9c1925" x="194.244259302176" y="199.459545006756" transform="matrix(0.5165574550628662,0,0,0.5165574550628663,206.6344605684281,131.62684631347656)" svgjs:data="{&quot;leading&quot;:&quot;1.3&quot;}"><tspan dy="0" x="194.244259302176" svgjs:data="{&quot;newLined&quot;:true}">player</tspan></text><image width="760" height="556" xlink:href="https://lct-designs.s3.us-west-1.amazonaws.com/assets/libs/time-lords-2-1652435651684.png" class="asset" transform="matrix(0.05508802086114884,0,0,0.05508802086114884,377.0652772188187,212.09727478027347)"></image><text fill="#ffe000" font-family="Antilles" font-size="45" stroke-opacity="1" stroke-width="2" stroke="#9c1925" x="194.244259302176" y="199.459545006756" transform="matrix(0.5165574550628662,0,0,0.5165574550628663,323.66934216022497,131.62684631347656)" svgjs:data="{&quot;leading&quot;:&quot;1.3&quot;}"><tspan dy="0" x="194.244259302176" svgjs:data="{&quot;newLined&quot;:true}">player</tspan></text><image width="760" height="556" xlink:href="https://lct-designs.s3.us-west-1.amazonaws.com/assets/libs/time-lords-2-1652435651684.png" class="asset" transform="matrix(0.05508802086114884,0,0,0.05508802086114884,22.190109372139005,251.33013916015628)"></image><text fill="#ffe000" font-family="Antilles" font-size="45" stroke-opacity="1" stroke-width="2" stroke="#9c1925" x="194.244259302176" y="199.459545006756" transform="matrix(0.5165574550628662,0,0,0.5165574550628663,-31.20582950115204,170.8597106933594)" svgjs:data="{&quot;leading&quot;:&quot;1.3&quot;}"><tspan dy="0" x="194.244259302176" svgjs:data="{&quot;newLined&quot;:true}">player</tspan></text><image width="760" height="556" xlink:href="https://lct-designs.s3.us-west-1.amazonaws.com/assets/libs/time-lords-2-1652435651684.png" class="asset" transform="matrix(0.05508802086114884,0,0,0.05508802086114884,139.22499096393585,251.33013916015628)"></image><text fill="#ffe000" font-family="Antilles" font-size="45" stroke-opacity="1" stroke-width="2" stroke="#9c1925" x="194.244259302176" y="199.459545006756" transform="matrix(0.5165574550628662,0,0,0.5165574550628663,85.82904827594757,170.8597106933594)" svgjs:data="{&quot;leading&quot;:&quot;1.3&quot;}"><tspan dy="0" x="194.244259302176" svgjs:data="{&quot;newLined&quot;:true}">player</tspan></text><image width="760" height="556" xlink:href="https://lct-designs.s3.us-west-1.amazonaws.com/assets/libs/time-lords-2-1652435651684.png" class="asset" transform="matrix(0.05508802086114884,0,0,0.05508802086114884,261.1106568574906,251.74053955078122)"></image><text fill="#ffe000" font-family="Antilles" font-size="45" stroke-opacity="1" stroke-width="2" stroke="#9c1925" x="194.244259302176" y="199.459545006756" transform="matrix(0.5165574550628662,0,0,0.5165574550628663,207.7147370576859,171.27009582519534)" svgjs:data="{&quot;leading&quot;:&quot;1.3&quot;}"><tspan dy="0" x="194.244259302176" svgjs:data="{&quot;newLined&quot;:true}">player</tspan></text><image width="760" height="556" xlink:href="https://lct-designs.s3.us-west-1.amazonaws.com/assets/libs/time-lords-2-1652435651684.png" class="asset" transform="matrix(0.05508802086114884,0,0,0.05508802086114884,378.1455384492874,251.74053955078122)"></image><text fill="#ffe000" font-family="Antilles" font-size="45" stroke-opacity="1" stroke-width="2" stroke="#9c1925" x="194.244259302176" y="199.459545006756" transform="matrix(0.5165574550628662,0,0,0.5165574550628663,324.74963390827185,171.27009582519534)" svgjs:data="{&quot;leading&quot;:&quot;1.3&quot;}"><tspan dy="0" x="194.244259302176" svgjs:data="{&quot;newLined&quot;:true}">player</tspan></text><text fill="#ffe000" font-family="Antilles" font-size="45" stroke-opacity="1" stroke-width="2" stroke="#9c1925" x="123.72291607097483" y="199.459545006756" transform="matrix(0.5162336826324463,0,0,0.5162336826324463,-57.59014129638672,-11.40410041809082)" svgjs:data="{&quot;leading&quot;:&quot;1.3&quot;}"><tspan dy="0" x="123.72291607097483" svgjs:data="{&quot;newLined&quot;:true}">Team mom:name</tspan></text><text fill="#ffe000" font-family="Antilles" font-size="45" stroke-opacity="1" stroke-width="2" stroke="#9c1925" x="123.72291607097483" y="199.459545006756" transform="matrix(0.5162335634231568,0,0,0.5162335634231567,254.68969726562506,-11.40410041809082)" svgjs:data="{&quot;leading&quot;:&quot;1.3&quot;}"><tspan dy="0" x="123.72291607097483" svgjs:data="{&quot;newLined&quot;:true}">coach: coach's name</tspan></text><g class="mask" style="pointer-events: none;"><g><path fill="#BCBEC0" d="M-3642.4-2101.7v4589.1h7813.4v-4589.1H-3642.4z M500.5,67.2v233.3v66.7H0.5v-66.7V67.2V0.5h500V67.2z" transform="matrix(1,0,0,1,0,0)"></path><g transform="matrix(1,0,0,1,0,0)">
	<rect x="0.5" y="300.5" opacity="0.95" fill="#F1F2F2" width="500" height="66.7"></rect>
	<rect x="0.5" y="0.5" opacity="0.95" fill="#F1F2F2" width="500" height="66.7"></rect>
</g></g></g></svg>