<svg xmlns="http://www.w3.org/2000/svg" version="1.1" xmlns:xlink="http://www.w3.org/1999/xlink" xmlns:svgjs="http://svgjs.dev/svgjs" width="100%" height="100%" viewBox="1 1 499 365.70001220703125" preserveAspectRatio="none" data-info="{&quot;_id&quot;:4,&quot;name&quot;:&quot;POLE POCKET SOCCER BANNERS&quot;,&quot;information&quot;:&quot;- Size: 3’x5’\n- Material: heavy duty vinyl banner\n- Digitally printed on vinyl&quot;,&quot;price&quot;:&quot;95.00&quot;,&quot;sale_price&quot;:&quot;89.99&quot;,&quot;type&quot;:&quot;pole-pocket&quot;,&quot;cover&quot;:{&quot;key&quot;:&quot;assets/models/pole-1628062864266-1631924568908.png&quot;,&quot;url&quot;:&quot;https://lct-designs.s3.us-west-1.amazonaws.com/assets/models/pole-1628062864266-1631924568908.png&quot;},&quot;back&quot;:{&quot;key&quot;:&quot;assets/models/pole-1631924700152.svg&quot;,&quot;url&quot;:&quot;https://lct-designs.s3.us-west-1.amazonaws.com/assets/models/pole-1631924700152.svg&quot;},&quot;mask&quot;:{&quot;key&quot;:&quot;assets/models/pole-mask-1631925211715.svg&quot;,&quot;url&quot;:&quot;https://lct-designs.s3.us-west-1.amazonaws.com/assets/models/pole-mask-1631925211715.svg&quot;},&quot;pos&quot;:&quot;2&quot;,&quot;accessories&quot;:&quot;2,3&quot;}" style="background-color: white;"><g class="model" style="pointer-events: none;"><polygon fill="#FFFFFF" points="0.5,0.5 0.5,67.2 0.5,300.5 0.5,367.2 500.5,367.2 500.5,300.5 500.5,67.2 500.5,0.5 "></polygon></g><image width="760" height="557" xlink:href="https://lct-designs.s3.us-west-1.amazonaws.com/assets/libs/asset-4-1654135247013.png" class="asset background locked" transform="matrix(0.6583483163501459,0,0,0.6583483163501459,0,0)"></image><image width="623" height="760" xlink:href="https://lct-designs.s3.us-west-1.amazonaws.com/assets/libs/asset-1-1654135184275.png" class="asset" transform="matrix(0.23944762349128723,0,0,0.2394476234912872,170.0601959228515,79.06510162353516)"></image><image width="689" height="760" xlink:href="https://lct-designs.s3.us-west-1.amazonaws.com/assets/libs/wolves-2-soflball-banner-1640079685914.png" class="asset" transform="matrix(0.05198988356824685,0,0,0.05198988356824685,17.334626923659016,86.82010325891312)"></image><text fill="#ffffff" font-family="Antilles Expanded" font-size="45" stroke-opacity="1" stroke-width="2" stroke="#012747" x="172.83760932170355" y="199.63694780916364" transform="matrix(0.6289278286968168,0,0,0.628927828696817,-50.82232568589461,-7.8104793201036955)" svgjs:data="{&quot;leading&quot;:&quot;1.3&quot;}"><tspan dy="0" x="172.83760932170355" svgjs:data="{&quot;newLined&quot;:true}">player</tspan></text><image width="689" height="760" xlink:href="https://lct-designs.s3.us-west-1.amazonaws.com/assets/libs/wolves-2-soflball-banner-1640079685914.png" class="asset" transform="matrix(0.05198989051265812,0,0,0.05198989051265812,61.247051803336916,129.15632766872295)"></image><text fill="#ffffff" font-family="Antilles Expanded" font-size="45" stroke-opacity="1" stroke-width="2" stroke="#012747" x="172.83760932170355" y="199.63694780916364" transform="matrix(0.6289278286968168,0,0,0.628927828696817,-6.9098990284473985,34.525745089706106)" svgjs:data="{&quot;leading&quot;:&quot;1.3&quot;}"><tspan dy="0" x="172.83760932170355" svgjs:data="{&quot;newLined&quot;:true}">player</tspan></text><image width="689" height="760" xlink:href="https://lct-designs.s3.us-west-1.amazonaws.com/assets/libs/wolves-2-soflball-banner-1640079685914.png" class="asset" transform="matrix(0.05198989745706939,0,0,0.05198989745706939,15.840367395659968,178.72069176907826)"></image><text fill="#ffffff" font-family="Antilles Expanded" font-size="45" stroke-opacity="1" stroke-width="2" stroke="#012747" x="172.83760932170355" y="199.63694780916364" transform="matrix(0.6289278286968168,0,0,0.628927828696817,-52.31658343612435,84.0901109678307)" svgjs:data="{&quot;leading&quot;:&quot;1.3&quot;}"><tspan dy="0" x="172.83760932170355" svgjs:data="{&quot;newLined&quot;:true}">player</tspan></text><image width="689" height="760" xlink:href="https://lct-designs.s3.us-west-1.amazonaws.com/assets/libs/wolves-2-soflball-banner-1640079685914.png" class="asset" transform="matrix(0.05198990440148066,0,0,0.05198990440148066,42.715044338052394,222.08950146804276)"></image><text fill="#ffffff" font-family="Antilles Expanded" font-size="45" stroke-opacity="1" stroke-width="2" stroke="#012747" x="172.83760932170355" y="199.63694780916364" transform="matrix(0.6289278286968168,0,0,0.628927828696817,-25.441906493731977,127.45892066679517)" svgjs:data="{&quot;leading&quot;:&quot;1.3&quot;}"><tspan dy="0" x="172.83760932170355" svgjs:data="{&quot;newLined&quot;:true}">player</tspan></text><text fill="#ffffff" font-family="Antilles Expanded" font-size="45" stroke-opacity="1" stroke-width="2" stroke="#012747" x="172.83760932170355" y="199.63694780916364" transform="matrix(0.6747695803642273,0,0,0.6747695803642273,238.48353576660156,-18.03155708312987)" svgjs:data="{&quot;leading&quot;:&quot;1.3&quot;}"><tspan dy="0" x="172.83760932170355" svgjs:data="{&quot;newLined&quot;:true}">player</tspan></text><text fill="#ffffff" font-family="Antilles Expanded" font-size="45" stroke-opacity="1" stroke-width="2" stroke="#012747" x="172.83760932170355" y="199.63694780916364" transform="matrix(0.6747695803642273,0,0,0.6747695803642273,275.62597656249994,24.06693840026857)" svgjs:data="{&quot;leading&quot;:&quot;1.3&quot;}"><tspan dy="0" x="172.83760932170355" svgjs:data="{&quot;newLined&quot;:true}">player</tspan></text><image width="689" height="760" xlink:href="https://lct-designs.s3.us-west-1.amazonaws.com/assets/libs/wolves-2-soflball-banner-1640079685914.png" class="asset" transform="matrix(-0.058381132781505585,0,0,0.05577940121293067,387.0303955078125,128.91859436035156)"></image><text fill="#ffffff" font-family="Antilles Expanded" font-size="45" stroke-opacity="1" stroke-width="2" stroke="#012747" x="172.83760932170355" y="199.63694780916364" transform="matrix(0.6747695803642273,0,0,0.6747695803642273,270.6992492675781,123.77391052246094)" svgjs:data="{&quot;leading&quot;:&quot;1.3&quot;}"><tspan dy="0" x="172.83760932170355" svgjs:data="{&quot;newLined&quot;:true}">player</tspan></text><image width="689" height="760" xlink:href="https://lct-designs.s3.us-west-1.amazonaws.com/assets/libs/wolves-2-soflball-banner-1640079685914.png" class="asset" transform="matrix(-0.058381129056215286,0,0,0.05577940121293067,372.59896850585926,174.34063720703125)"></image><text fill="#ffffff" font-family="Antilles Expanded" font-size="45" stroke-opacity="1" stroke-width="2" stroke="#012747" x="172.83760932170355" y="199.63694780916364" transform="matrix(0.6747695803642273,0,0,0.6747695803642273,257.9295806884765,75.02826690673828)" svgjs:data="{&quot;leading&quot;:&quot;1.3&quot;}"><tspan dy="0" x="172.83760932170355" svgjs:data="{&quot;newLined&quot;:true}">player</tspan></text><image width="689" height="760" xlink:href="https://lct-designs.s3.us-west-1.amazonaws.com/assets/libs/wolves-2-soflball-banner-1640079685914.png" class="asset" transform="matrix(-0.058381129056215286,0,0,0.05577940121293067,380.3832702636719,225.85591125488278)"></image><image width="689" height="760" xlink:href="https://lct-designs.s3.us-west-1.amazonaws.com/assets/libs/wolves-2-soflball-banner-1640079685914.png" class="asset" transform="matrix(-0.058381129056215286,0,0,0.05577940121293067,349.946563720703,89.03580474853516)"></image><text fill="#ffffff" font-family="Antilles Expanded" font-size="45" stroke-opacity="1" stroke-width="2" stroke="#012747" x="172.83760932170355" y="199.63694780916364" transform="matrix(0.5061139464378357,0,0,0.5061139464378356,64.37147521972656,186.94183349609372)" svgjs:data="{&quot;leading&quot;:&quot;1.3&quot;}"><tspan dy="0" x="172.83760932170355" svgjs:data="{&quot;newLined&quot;:true}">coach:coach's name</tspan></text><g class="mask" style="pointer-events: none;"><g><path fill="#BCBEC0" d="M-3642.4-2101.7v4589.1h7813.4v-4589.1H-3642.4z M500.5,67.2v233.3v66.7H0.5v-66.7V67.2V0.5h500V67.2z" transform="matrix(1,0,0,1,0,0)"></path><g transform="matrix(1,0,0,1,0,0)">
	<rect x="0.5" y="300.5" opacity="0.95" fill="#F1F2F2" width="500" height="66.7"></rect>
	<rect x="0.5" y="0.5" opacity="0.95" fill="#F1F2F2" width="500" height="66.7"></rect>
</g></g></g></svg>