<svg xmlns="http://www.w3.org/2000/svg" version="1.1" xmlns:xlink="http://www.w3.org/1999/xlink" xmlns:svgjs="http://svgjs.dev/svgjs" width="100%" height="100%" viewBox="1 1 499 365.70001220703125" preserveAspectRatio="none" data-info="{&quot;_id&quot;:4,&quot;name&quot;:&quot;POLE POCKET SOCCER BANNERS&quot;,&quot;information&quot;:&quot;- Size: 3’x5’\n- Material: heavy duty vinyl banner\n- Digitally printed on vinyl&quot;,&quot;price&quot;:&quot;95.00&quot;,&quot;sale_price&quot;:&quot;89.99&quot;,&quot;type&quot;:&quot;pole-pocket&quot;,&quot;cover&quot;:{&quot;key&quot;:&quot;assets/models/pole-1628062864266-1631924568908.png&quot;,&quot;url&quot;:&quot;https://lct-designs.s3.us-west-1.amazonaws.com/assets/models/pole-1628062864266-1631924568908.png&quot;},&quot;back&quot;:{&quot;key&quot;:&quot;assets/models/pole-1631924700152.svg&quot;,&quot;url&quot;:&quot;https://lct-designs.s3.us-west-1.amazonaws.com/assets/models/pole-1631924700152.svg&quot;},&quot;mask&quot;:{&quot;key&quot;:&quot;assets/models/pole-mask-1631925211715.svg&quot;,&quot;url&quot;:&quot;https://lct-designs.s3.us-west-1.amazonaws.com/assets/models/pole-mask-1631925211715.svg&quot;},&quot;pos&quot;:&quot;2&quot;,&quot;accessories&quot;:&quot;2,3&quot;}" style="background-color: white;"><g class="model" style="pointer-events: none;"><polygon fill="#FFFFFF" points="0.5,0.5 0.5,67.2 0.5,300.5 0.5,367.2 500.5,367.2 500.5,300.5 500.5,67.2 500.5,0.5 "></polygon></g><image width="760" height="553" xlink:href="https://lct-designs.s3.us-west-1.amazonaws.com/assets/libs/medusa-1632741205264.png" class="asset background locked" transform="matrix(0.6631103294883024,0,0,0.6631103294883024,0,0)"></image><text fill="#ffffff" font-family="Impact" font-size="50" stroke-opacity="1" stroke-width="1" stroke="#000000" x="-98.72634249947717" y="199.47500657859518" transform="matrix(0.24265021085739136,0,0,0.24265021085739136,33.03588485717773,245.57556152343756)" svgjs:data="{&quot;leading&quot;:&quot;1.3&quot;}"><tspan dy="0" x="-98.72634249947717" svgjs:data="{&quot;newLined&quot;:true}">COACH: COACH'S NAME</tspan></text><text fill="#ffffff" font-family="Impact" font-size="50" stroke-opacity="1" stroke-width="1" stroke="#000000" x="-98.72634249947717" y="199.47500657859518" transform="matrix(0.24265021085739136,0,0,0.24265021085739136,372.05267333984375,245.57559204101562)" svgjs:data="{&quot;leading&quot;:&quot;1.3&quot;}"><tspan dy="0" x="-98.72634249947717" svgjs:data="{&quot;newLined&quot;:true}">TEAM MOM: TEAM MOM'S NAME</tspan></text><text fill="#ffffff" font-family="Impact" font-size="50" stroke-opacity="1" stroke-width="2" stroke="#000000" x="-98.72634249947717" y="199.47500657859518" transform="matrix(0.31976258754730225,0,0,0.31976258754730225,124.34391784667972,162.38394165039068)" svgjs:data="{&quot;leading&quot;:&quot;1.3&quot;}"><tspan dy="0" x="-98.72634249947717" svgjs:data="{&quot;newLined&quot;:true}">PLAYER</tspan><tspan dy="65" x="-98.72634249947717" svgjs:data="{&quot;newLined&quot;:true}"></tspan></text><text fill="#ffffff" font-family="Impact" font-size="50" stroke-opacity="1" stroke-width="2" stroke="#000000" x="-98.72634249947717" y="199.47500657859518" transform="matrix(0.31976258754730225,0,0,0.31976258754730225,218.75251770019534,162.38394165039068)" svgjs:data="{&quot;leading&quot;:&quot;1.3&quot;}"><tspan dy="0" x="-98.72634249947717" svgjs:data="{&quot;newLined&quot;:true}">PLAYER</tspan><tspan dy="65" x="-98.72634249947717" svgjs:data="{&quot;newLined&quot;:true}"></tspan></text><text fill="#ffffff" font-family="Impact" font-size="50" stroke-opacity="1" stroke-width="2" stroke="#000000" x="-98.72634249947717" y="199.47500657859518" transform="matrix(0.31976258754730225,0,0,0.31976258754730225,314.23638916015625,162.3839569091797)" svgjs:data="{&quot;leading&quot;:&quot;1.3&quot;}"><tspan dy="0" x="-98.72634249947717" svgjs:data="{&quot;newLined&quot;:true}">PLAYER</tspan><tspan dy="65" x="-98.72634249947717" svgjs:data="{&quot;newLined&quot;:true}"></tspan></text><text fill="#ffffff" font-family="Impact" font-size="50" stroke-opacity="1" stroke-width="2" stroke="#000000" x="-98.72634249947717" y="199.47500657859518" transform="matrix(0.31976258754730225,0,0,0.31976258754730225,407.0320739746094,162.38392639160156)" svgjs:data="{&quot;leading&quot;:&quot;1.3&quot;}"><tspan dy="0" x="-98.72634249947717" svgjs:data="{&quot;newLined&quot;:true}">PLAYER</tspan><tspan dy="65" x="-98.72634249947717" svgjs:data="{&quot;newLined&quot;:true}"></tspan></text><image width="648" height="760" xlink:href="https://lct-designs.s3.us-west-1.amazonaws.com/assets/libs/medusa-1-1632741397487.png" class="asset" transform="matrix(0.05305705592036247,0,0,0.05305705592036248,97.8206329345703,168.83389282226562)"></image><image width="648" height="760" xlink:href="https://lct-designs.s3.us-west-1.amazonaws.com/assets/libs/medusa-1-1632741397487.png" class="asset" transform="matrix(0.05305705592036247,0,0,0.05305705592036248,192.22923278808594,168.83389282226562)"></image><image width="648" height="760" xlink:href="https://lct-designs.s3.us-west-1.amazonaws.com/assets/libs/medusa-1-1632741397487.png" class="asset" transform="matrix(0.05305705592036247,0,0,0.05305705592036248,287.7131042480469,168.83387756347656)"></image><image width="648" height="760" xlink:href="https://lct-designs.s3.us-west-1.amazonaws.com/assets/libs/medusa-1-1632741397487.png" class="asset" transform="matrix(0.05305705592036247,0,0,0.05305705592036248,380.5087890625,168.83387756347656)"></image><text fill="#ffffff" font-family="Impact" font-size="50" stroke-opacity="1" stroke-width="2" stroke="#000000" x="-98.72634249947717" y="199.47500657859518" transform="matrix(0.31976258754730225,0,0,0.31976258754730225,170.3654327392578,208.62049865722656)" svgjs:data="{&quot;leading&quot;:&quot;1.3&quot;}"><tspan dy="0" x="-98.72634249947717" svgjs:data="{&quot;newLined&quot;:true}">PLAYER</tspan><tspan dy="65" x="-98.72634249947717" svgjs:data="{&quot;newLined&quot;:true}"></tspan></text><text fill="#ffffff" font-family="Impact" font-size="50" stroke-opacity="1" stroke-width="2" stroke="#000000" x="-98.72634249947717" y="199.47500657859518" transform="matrix(0.31976258754730225,0,0,0.31976258754730225,264.7740478515625,208.62049865722656)" svgjs:data="{&quot;leading&quot;:&quot;1.3&quot;}"><tspan dy="0" x="-98.72634249947717" svgjs:data="{&quot;newLined&quot;:true}">PLAYER</tspan><tspan dy="65" x="-98.72634249947717" svgjs:data="{&quot;newLined&quot;:true}"></tspan></text><text fill="#ffffff" font-family="Impact" font-size="50" stroke-opacity="1" stroke-width="2" stroke="#000000" x="-98.72634249947717" y="199.47500657859518" transform="matrix(0.31976258754730225,0,0,0.31976258754730225,360.2579040527344,208.62051391601562)" svgjs:data="{&quot;leading&quot;:&quot;1.3&quot;}"><tspan dy="0" x="-98.72634249947717" svgjs:data="{&quot;newLined&quot;:true}">PLAYER</tspan><tspan dy="65" x="-98.72634249947717" svgjs:data="{&quot;newLined&quot;:true}"></tspan></text><text fill="#ffffff" font-family="Impact" font-size="50" stroke-opacity="1" stroke-width="2" stroke="#000000" x="-98.72634249947717" y="199.47500657859518" transform="matrix(0.31976258754730225,0,0,0.31976258754730225,453.0535888671875,208.62048339843756)" svgjs:data="{&quot;leading&quot;:&quot;1.3&quot;}"><tspan dy="0" x="-98.72634249947717" svgjs:data="{&quot;newLined&quot;:true}">PLAYER</tspan><tspan dy="65" x="-98.72634249947717" svgjs:data="{&quot;newLined&quot;:true}"></tspan></text><image width="648" height="760" xlink:href="https://lct-designs.s3.us-west-1.amazonaws.com/assets/libs/medusa-1-1632741397487.png" class="asset" transform="matrix(0.05305705592036247,0,0,0.05305705592036248,143.84214782714844,215.07044982910162)"></image><image width="648" height="760" xlink:href="https://lct-designs.s3.us-west-1.amazonaws.com/assets/libs/medusa-1-1632741397487.png" class="asset" transform="matrix(0.05305705592036247,0,0,0.05305705592036248,238.25074768066406,215.07044982910162)"></image><image width="648" height="760" xlink:href="https://lct-designs.s3.us-west-1.amazonaws.com/assets/libs/medusa-1-1632741397487.png" class="asset" transform="matrix(0.05305705592036247,0,0,0.05305705592036248,333.734619140625,215.0704345703125)"></image><image width="648" height="760" xlink:href="https://lct-designs.s3.us-west-1.amazonaws.com/assets/libs/medusa-1-1632741397487.png" class="asset" transform="matrix(0.05305705592036247,0,0,0.05305705592036248,426.5303039550781,215.0704345703125)"></image><image width="760" height="250" xlink:href="https://lct-designs.s3.us-west-1.amazonaws.com/assets/libs/medusa-3-1632741368607.png" class="asset" transform="matrix(0.4197394847869873,0,0,0.4197394847869873,90.99687957763672,72.81660461425783)"></image><image width="608" height="760" xlink:href="https://lct-designs.s3.us-west-1.amazonaws.com/assets/libs/medusa-4-1632741340021.png" class="asset" transform="matrix(0.13157889246940613,0,0,0.13157889246940616,9.999980926513672,121.5220413208008)"></image><g class="mask" style="pointer-events: none;"><g><path fill="#BCBEC0" d="M-3642.4-2101.7v4589.1h7813.4v-4589.1H-3642.4z M500.5,67.2v233.3v66.7H0.5v-66.7V67.2V0.5h500V67.2z" transform="matrix(1,0,0,1,0,0)"></path><g transform="matrix(1,0,0,1,0,0)">
	<rect x="0.5" y="300.5" opacity="0.95" fill="#F1F2F2" width="500" height="66.7"></rect>
	<rect x="0.5" y="0.5" opacity="0.95" fill="#F1F2F2" width="500" height="66.7"></rect>
</g></g></g></svg>