<svg xmlns="http://www.w3.org/2000/svg" version="1.1" xmlns:xlink="http://www.w3.org/1999/xlink" xmlns:svgjs="http://svgjs.dev/svgjs" width="100%" height="100%" viewBox="1 1 499 365.70001220703125" preserveAspectRatio="none" data-info="{&quot;_id&quot;:4,&quot;name&quot;:&quot;POLE POCKET SOCCER BANNERS&quot;,&quot;information&quot;:&quot;- Size: 3’x5’\n- Material: heavy duty vinyl banner\n- Digitally printed on vinyl&quot;,&quot;price&quot;:&quot;95.00&quot;,&quot;sale_price&quot;:&quot;89.99&quot;,&quot;type&quot;:&quot;pole-pocket&quot;,&quot;cover&quot;:{&quot;key&quot;:&quot;assets/models/pole-1628062864266-1631924568908.png&quot;,&quot;url&quot;:&quot;https://lct-designs.s3.us-west-1.amazonaws.com/assets/models/pole-1628062864266-1631924568908.png&quot;},&quot;back&quot;:{&quot;key&quot;:&quot;assets/models/pole-1631924700152.svg&quot;,&quot;url&quot;:&quot;https://lct-designs.s3.us-west-1.amazonaws.com/assets/models/pole-1631924700152.svg&quot;},&quot;mask&quot;:{&quot;key&quot;:&quot;assets/models/pole-mask-1631925211715.svg&quot;,&quot;url&quot;:&quot;https://lct-designs.s3.us-west-1.amazonaws.com/assets/models/pole-mask-1631925211715.svg&quot;},&quot;pos&quot;:&quot;2&quot;,&quot;accessories&quot;:&quot;2,3&quot;}" style="background-color: white;"><g class="model" style="pointer-events: none;"><polygon fill="#FFFFFF" points="0.5,0.5 0.5,67.2 0.5,300.5 0.5,367.2 500.5,367.2 500.5,300.5 500.5,67.2 500.5,0.5 "></polygon></g><image width="760" height="559" xlink:href="https://lct-designs.s3.us-west-1.amazonaws.com/assets/libs/asset-2-1654488113350.png" class="asset background locked" transform="matrix(0.6589082479476928,0,0,0.6559928655624389,0,0)"></image><image width="760" height="352" xlink:href="https://lct-designs.s3.us-west-1.amazonaws.com/assets/libs/fighting-unicorns-1-1653386200119.png" class="asset" transform="matrix(0.3817834258079529,0,0,0.3817834258079528,92.93120574951175,106.46114349365234)"></image><text fill="#ffffff" font-family="Lemondrop" font-size="45" stroke-opacity="1" stroke-width="3" stroke="#105595" x="182.95358868518767" y="199.63694780916364" transform="matrix(0.27994048595428467,0,0,0.29218038916587824,5.860137939453125,95.52140808105469)" svgjs:data="{&quot;leading&quot;:&quot;1.3&quot;}"><tspan dy="0" x="182.95358868518767" svgjs:data="{&quot;newLined&quot;:true}">Player</tspan></text><image width="760" height="758" xlink:href="https://lct-designs.s3.us-west-1.amazonaws.com/assets/libs/alliance1-1632042447894.png" class="asset" transform="matrix(0.0367676205933094,0,0,0.03366166353225707,22.801774978637695,187.76652526855466)"></image><text fill="#ffffff" font-family="Lemondrop" font-size="45" stroke-opacity="1" stroke-width="3" stroke="#105595" x="182.95358868518767" y="199.63694780916364" transform="matrix(0.27994048595428467,0,0,0.29218038916587824,4.722980499267578,148.69847106933594)" svgjs:data="{&quot;leading&quot;:&quot;1.3&quot;}"><tspan dy="0" x="182.95358868518767" svgjs:data="{&quot;newLined&quot;:true}">Player</tspan></text><image width="760" height="758" xlink:href="https://lct-designs.s3.us-west-1.amazonaws.com/assets/libs/alliance1-1632042447894.png" class="asset" transform="matrix(0.0367676205933094,0,0,0.03366166725754737,23.385005950927734,134.58946228027344)"></image><text fill="#ffffff" font-family="Lemondrop" font-size="45" stroke-opacity="1" stroke-width="3" stroke="#105595" x="182.95358868518767" y="199.63694780916364" transform="matrix(0.27994048595428467,0,0,0.29218038916587824,70.69896697998047,55.63861846923828)" svgjs:data="{&quot;leading&quot;:&quot;1.3&quot;}"><tspan dy="0" x="182.95358868518767" svgjs:data="{&quot;newLined&quot;:true}">Player</tspan></text><image width="760" height="758" xlink:href="https://lct-designs.s3.us-west-1.amazonaws.com/assets/libs/alliance1-1632042447894.png" class="asset" transform="matrix(0.0367676205933094,0,0,0.03366164863109588,88.22383880615237,94.70667266845703)"></image><text fill="#ffffff" font-family="Lemondrop" font-size="45" stroke-opacity="1" stroke-width="3" stroke="#105595" x="182.95358868518767" y="199.63694780916364" transform="matrix(0.27994048595428467,0,0,0.29218038916587824,29.183700561523466,195.78228759765622)" svgjs:data="{&quot;leading&quot;:&quot;1.3&quot;}"><tspan dy="0" x="182.95358868518767" svgjs:data="{&quot;newLined&quot;:true}">Player</tspan></text><image width="760" height="758" xlink:href="https://lct-designs.s3.us-west-1.amazonaws.com/assets/libs/alliance1-1632042447894.png" class="asset" transform="matrix(0.0367676205933094,0,0,0.03366164118051528,46.70856857299805,234.85034179687503)"></image><text fill="#ffffff" font-family="Lemondrop" font-size="45" stroke-opacity="1" stroke-width="3" stroke="#105595" x="182.95358868518767" y="199.63694780916364" transform="matrix(0.27994048595428467,0,0,0.29218038916587824,171.01846313476565,207.41476440429685)" svgjs:data="{&quot;leading&quot;:&quot;1.3&quot;}"><tspan dy="0" x="182.95358868518767" svgjs:data="{&quot;newLined&quot;:true}">Player</tspan></text><image width="760" height="758" xlink:href="https://lct-designs.s3.us-west-1.amazonaws.com/assets/libs/alliance1-1632042447894.png" class="asset" transform="matrix(0.0367676205933094,0,0,0.0336616151034832,188.54333496093747,246.48280334472653)"></image><text fill="#ffffff" font-family="Lemondrop" font-size="45" stroke-opacity="1" stroke-width="3" stroke="#105595" x="182.95358868518767" y="199.63694780916364" transform="matrix(0.27994048595428467,0,0,0.29218038916587824,318.9464416503906,197.99798583984372)" svgjs:data="{&quot;leading&quot;:&quot;1.3&quot;}"><tspan dy="0" x="182.95358868518767" svgjs:data="{&quot;newLined&quot;:true}">Player</tspan></text><image width="760" height="758" xlink:href="https://lct-designs.s3.us-west-1.amazonaws.com/assets/libs/alliance1-1632042447894.png" class="asset" transform="matrix(0.0367676205933094,0,0,0.0336616151034832,336.4712829589844,237.0660247802734)"></image><text fill="#ffffff" font-family="Lemondrop" font-size="45" stroke-opacity="1" stroke-width="3" stroke="#105595" x="182.95358868518767" y="199.63694780916364" transform="matrix(0.27994048595428467,0,0,0.29218038916587824,212.03840637207028,42.89830017089842)" svgjs:data="{&quot;leading&quot;:&quot;1.3&quot;}"><tspan dy="0" x="182.95358868518767" svgjs:data="{&quot;newLined&quot;:true}">Player</tspan></text><image width="760" height="758" xlink:href="https://lct-designs.s3.us-west-1.amazonaws.com/assets/libs/alliance1-1632042447894.png" class="asset" transform="matrix(0.0367676205933094,0,0,0.0336616188287735,229.56327819824222,81.96633911132812)"></image><text fill="#ffffff" font-family="Lemondrop" font-size="45" stroke-opacity="1" stroke-width="3" stroke="#105595" x="182.95358868518767" y="199.63694780916364" transform="matrix(0.27994048595428467,0,0,0.29218038916587824,345.5642395019531,66.16325378417969)" svgjs:data="{&quot;leading&quot;:&quot;1.3&quot;}"><tspan dy="0" x="182.95358868518767" svgjs:data="{&quot;newLined&quot;:true}">Player</tspan></text><image width="760" height="758" xlink:href="https://lct-designs.s3.us-west-1.amazonaws.com/assets/libs/alliance1-1632042447894.png" class="asset" transform="matrix(0.0367676205933094,0,0,0.0336616113781929,363.0891113281249,105.23129272460938)"></image><text fill="#ffffff" font-family="Lemondrop" font-size="45" stroke-opacity="1" stroke-width="3" stroke="#105595" x="182.95358868518767" y="199.63694780916364" transform="matrix(0.27994048595428467,0,0,0.29218038916587824,367.7506408691406,122.66386413574216)" svgjs:data="{&quot;leading&quot;:&quot;1.3&quot;}"><tspan dy="0" x="182.95358868518767" svgjs:data="{&quot;newLined&quot;:true}">Player</tspan></text><image width="760" height="758" xlink:href="https://lct-designs.s3.us-west-1.amazonaws.com/assets/libs/alliance1-1632042447894.png" class="asset" transform="matrix(0.0367676205933094,0,0,0.033661603927612305,385.2755126953124,161.73190307617188)"></image><text fill="#ffffff" font-family="Lemondrop" font-size="45" stroke-opacity="1" stroke-width="3" stroke="#105595" x="182.95358868518767" y="199.63694780916364" transform="matrix(0.27994048595428467,0,0,0.29218038916587824,356.642822265625,165.31625366210935)" svgjs:data="{&quot;leading&quot;:&quot;1.3&quot;}"><tspan dy="0" x="182.95358868518767" svgjs:data="{&quot;newLined&quot;:true}">Player</tspan></text><image width="760" height="758" xlink:href="https://lct-designs.s3.us-west-1.amazonaws.com/assets/libs/alliance1-1632042447894.png" class="asset" transform="matrix(0.0367676205933094,0,0,0.0336616076529026,374.16766357421864,204.38429260253903)"></image><text fill="#ffffff" font-family="Lemondrop" font-size="45" stroke-opacity="1" stroke-width="3" stroke="#105595" x="182.95358868518767" y="199.63694780916364" transform="matrix(0.25187060236930847,0,0,0.29218038916587824,-28.21601676940918,234.00326538085935)" svgjs:data="{&quot;leading&quot;:&quot;1.3&quot;}"><tspan dy="0" x="182.95358868518767" svgjs:data="{&quot;newLined&quot;:true}">coach:coach's name</tspan></text><text fill="#ffffff" font-family="Lemondrop" font-size="45" stroke-opacity="1" stroke-width="3" stroke="#105595" x="182.95358868518767" y="199.63694780916364" transform="matrix(0.25187060236930847,0,0,0.29218038916587824,305.83160400390625,234.55718994140622)" svgjs:data="{&quot;leading&quot;:&quot;1.3&quot;}"><tspan dy="0" x="182.95358868518767" svgjs:data="{&quot;newLined&quot;:true}">team mom:name</tspan></text><g class="mask" style="pointer-events: none;"><g><path fill="#BCBEC0" d="M-3642.4-2101.7v4589.1h7813.4v-4589.1H-3642.4z M500.5,67.2v233.3v66.7H0.5v-66.7V67.2V0.5h500V67.2z" transform="matrix(1,0,0,1,0,0)"></path><g transform="matrix(1,0,0,1,0,0)">
	<rect x="0.5" y="300.5" opacity="0.95" fill="#F1F2F2" width="500" height="66.7"></rect>
	<rect x="0.5" y="0.5" opacity="0.95" fill="#F1F2F2" width="500" height="66.7"></rect>
</g></g></g></svg>