<svg xmlns="http://www.w3.org/2000/svg" version="1.1" xmlns:xlink="http://www.w3.org/1999/xlink" xmlns:svgjs="http://svgjs.dev/svgjs" width="100%" height="100%" viewBox="1 1 499 365.70001220703125" preserveAspectRatio="none" data-info="{&quot;_id&quot;:4,&quot;name&quot;:&quot;POLE POCKET SOCCER BANNERS&quot;,&quot;information&quot;:&quot;- Size: 3’x5’\n- Material: heavy duty vinyl banner\n- Digitally printed on vinyl&quot;,&quot;price&quot;:&quot;95.00&quot;,&quot;sale_price&quot;:&quot;89.99&quot;,&quot;type&quot;:&quot;pole-pocket&quot;,&quot;cover&quot;:{&quot;key&quot;:&quot;assets/models/pole-1628062864266-1631924568908.png&quot;,&quot;url&quot;:&quot;https://lct-designs.s3.us-west-1.amazonaws.com/assets/models/pole-1628062864266-1631924568908.png&quot;},&quot;back&quot;:{&quot;key&quot;:&quot;assets/models/pole-1631924700152.svg&quot;,&quot;url&quot;:&quot;https://lct-designs.s3.us-west-1.amazonaws.com/assets/models/pole-1631924700152.svg&quot;},&quot;mask&quot;:{&quot;key&quot;:&quot;assets/models/pole-mask-1631925211715.svg&quot;,&quot;url&quot;:&quot;https://lct-designs.s3.us-west-1.amazonaws.com/assets/models/pole-mask-1631925211715.svg&quot;},&quot;pos&quot;:&quot;2&quot;,&quot;accessories&quot;:&quot;2,3&quot;}" style="background-color: white;"><g class="model" style="pointer-events: none;"><polygon fill="#FFFFFF" points="0.5,0.5 0.5,67.2 0.5,300.5 0.5,367.2 500.5,367.2 500.5,300.5 500.5,67.2 500.5,0.5 "></polygon></g><image width="760" height="455" xlink:href="https://lct-designs.s3.us-west-1.amazonaws.com/assets/libs/blue-waves-3-1653386060998.png" class="asset background locked" transform="matrix(0.805934092762706,0,0,0.805934092762706,0,0)"></image><image width="760" height="306" xlink:href="https://lct-designs.s3.us-west-1.amazonaws.com/assets/libs/waves-soccer-banner-1653979481139.png" class="asset" transform="matrix(0.3537346422672272,0,0,0.3537346422672271,24.386217117309542,148.58558654785156)"></image><image width="760" height="640" xlink:href="https://lct-designs.s3.us-west-1.amazonaws.com/assets/libs/blue-waves-5-1653386169005.png" class="asset" transform="matrix(0.24395692348480222,0,0,0.24395692348480222,313.64776611328125,105.55776214599612)"></image><text fill="#ffffff" font-family="Janda Manatee Solid" font-size="45" x="168.6791593638986" y="199.35998362154157" stroke-opacity="1" stroke-width="2" stroke="#000000" transform="matrix(0.3149926662445068,0,0,0.3149926662445068,117.98246765136713,98.07247924804685)" svgjs:data="{&quot;leading&quot;:&quot;1.3&quot;}"><tspan dy="0" x="168.6791593638986" svgjs:data="{&quot;newLined&quot;:true}"></tspan></text><image width="760" height="475" xlink:href="https://lct-designs.s3.us-west-1.amazonaws.com/assets/libs/blue-waves-2-1653386230019.png" class="asset" transform="matrix(-0.06338449567556381,0,0,0.07089161127805708,63.71849060058594,260.8282699584961)"></image><text fill="#ffffff" font-family="Janda Manatee Solid" font-size="45" x="168.6791593638986" y="199.35998362154157" stroke-opacity="1" stroke-width="2" stroke="#000000" transform="matrix(0.3149926662445068,0,0,0.3149926662445068,15.14557456970212,219.8534469604492)" svgjs:data="{&quot;leading&quot;:&quot;1.3&quot;}"><tspan dy="0" x="168.6791593638986" svgjs:data="{&quot;newLined&quot;:true}">PLAYER</tspan></text><image width="760" height="475" xlink:href="https://lct-designs.s3.us-west-1.amazonaws.com/assets/libs/blue-waves-2-1653386230019.png" class="asset" transform="matrix(-0.06338455528020859,0,0,0.07089164853096008,171.57005310058588,260.8282699584961)"></image><image width="760" height="475" xlink:href="https://lct-designs.s3.us-west-1.amazonaws.com/assets/libs/blue-waves-2-1653386230019.png" class="asset" transform="matrix(-0.06338449567556381,0,0,0.07089168578386305,59.25777053833005,75.26256561279297)"></image><image width="760" height="475" xlink:href="https://lct-designs.s3.us-west-1.amazonaws.com/assets/libs/blue-waves-2-1653386230019.png" class="asset" transform="matrix(-0.06338455528020859,0,0,0.07089173793792725,167.10932922363276,75.26256561279297)"></image><image width="760" height="475" xlink:href="https://lct-designs.s3.us-west-1.amazonaws.com/assets/libs/blue-waves-2-1653386230019.png" class="asset" transform="matrix(-0.06338460743427277,0,0,0.07089177519083022,276.29861450195307,75.2625503540039)"></image><text fill="#ffffff" font-family="Janda Manatee Solid" font-size="45" x="168.6791593638986" y="199.35998362154157" stroke-opacity="1" stroke-width="2" stroke="#000000" transform="matrix(0.3149926662445068,0,0,0.3149926662445068,227.7257080078125,34.28773880004884)" svgjs:data="{&quot;leading&quot;:&quot;1.3&quot;}"><tspan dy="0" x="168.6791593638986" svgjs:data="{&quot;newLined&quot;:true}">PLAYER</tspan></text><text fill="#ffffff" font-family="Janda Manatee Solid" font-size="45" x="168.6791593638986" y="199.35998362154157" stroke-opacity="1" stroke-width="2" stroke="#000000" transform="matrix(0.3149926662445068,0,0,0.3149926662445068,119.3132553100586,34.28773880004884)" svgjs:data="{&quot;leading&quot;:&quot;1.3&quot;}"><tspan dy="0" x="168.6791593638986" svgjs:data="{&quot;newLined&quot;:true}">PLAYER</tspan></text><text fill="#ffffff" font-family="Janda Manatee Solid" font-size="45" x="168.6791593638986" y="199.35998362154157" stroke-opacity="1" stroke-width="2" stroke="#000000" transform="matrix(0.3149926662445068,0,0,0.3149926662445068,10.684850692748995,34.287742614746094)" svgjs:data="{&quot;leading&quot;:&quot;1.3&quot;}"><tspan dy="0" x="168.6791593638986" svgjs:data="{&quot;newLined&quot;:true}">PLAYER</tspan></text><image width="760" height="475" xlink:href="https://lct-designs.s3.us-west-1.amazonaws.com/assets/libs/blue-waves-2-1653386230019.png" class="asset" transform="matrix(-0.06338460743427277,0,0,0.07089170068502425,281.3132629394531,260.82825469970703)"></image><text fill="#ffffff" font-family="Janda Manatee Solid" font-size="45" x="168.6791593638986" y="199.35998362154157" stroke-opacity="1" stroke-width="2" stroke="#000000" transform="matrix(0.3149926662445068,0,0,0.3149926662445068,232.74035644531244,219.85344314575192)" svgjs:data="{&quot;leading&quot;:&quot;1.3&quot;}"><tspan dy="0" x="168.6791593638986" svgjs:data="{&quot;newLined&quot;:true}">PLAYER</tspan></text><text fill="#ffffff" font-family="Janda Manatee Solid" font-size="45" x="168.6791593638986" y="199.35998362154157" stroke-opacity="1" stroke-width="2" stroke="#000000" transform="matrix(0.3149926662445068,0,0,0.3149926662445068,122.44319152832031,278.0989074707031)" svgjs:data="{&quot;leading&quot;:&quot;1.3&quot;}"><tspan dy="0" x="168.6791593638986" svgjs:data="{&quot;newLined&quot;:true}"></tspan></text><text fill="#ffffff" font-family="Janda Manatee Solid" font-size="45" x="168.6791593638986" y="199.35998362154157" stroke-opacity="1" stroke-width="2" stroke="#000000" transform="matrix(0.3149926662445068,0,0,0.3149926662445068,124.32791137695312,219.85344314575192)" svgjs:data="{&quot;leading&quot;:&quot;1.3&quot;}"><tspan dy="0" x="168.6791593638986" svgjs:data="{&quot;newLined&quot;:true}">PLAYER</tspan></text><text fill="#ffffff" font-family="Janda Manatee Solid" font-size="45" x="168.6791593638986" y="199.35998362154157" stroke-opacity="1" stroke-width="2" stroke="#000000" transform="matrix(0.3149926662445068,0,0,0.3149926662445068,185.81387329101562,71.40088272094727)" svgjs:data="{&quot;leading&quot;:&quot;1.3&quot;}"><tspan dy="0" x="168.6791593638986" svgjs:data="{&quot;newLined&quot;:true}">PLAYER</tspan></text><image width="760" height="475" xlink:href="https://lct-designs.s3.us-west-1.amazonaws.com/assets/libs/blue-waves-2-1653386230019.png" class="asset" transform="matrix(-0.06338455528020859,0,0,0.07089170813560486,233.05601501464838,112.3757095336914)"></image><text fill="#ffffff" font-family="Janda Manatee Solid" font-size="45" x="168.6791593638986" y="199.35998362154157" stroke-opacity="1" stroke-width="2" stroke="#000000" transform="matrix(0.3149926662445068,0,0,0.3149926662445068,76.63153648376465,71.40088653564453)" svgjs:data="{&quot;leading&quot;:&quot;1.3&quot;}"><tspan dy="0" x="168.6791593638986" svgjs:data="{&quot;newLined&quot;:true}">PLAYER</tspan></text><image width="760" height="475" xlink:href="https://lct-designs.s3.us-west-1.amazonaws.com/assets/libs/blue-waves-2-1653386230019.png" class="asset" transform="matrix(-0.06338449567556381,0,0,0.07089170068502425,125.20445251464844,112.3757095336914)"></image><text fill="#ffffff" font-family="Janda Manatee Solid" font-size="45" stroke-opacity="1" stroke-width="2" stroke="#000000" x="12.358778199347825" y="199.35998362154157" transform="matrix(0.2869907319545746,0,0,0.2869907319545746,351.7364501953125,224.98104858398435)" svgjs:data="{&quot;leading&quot;:&quot;1.3&quot;}"><tspan dy="0" x="12.358778199347825" svgjs:data="{&quot;newLined&quot;:true}">COACH:COACH'S NAME</tspan></text><g class="mask" style="pointer-events: none;"><g><path fill="#BCBEC0" d="M-3642.4-2101.7v4589.1h7813.4v-4589.1H-3642.4z M500.5,67.2v233.3v66.7H0.5v-66.7V67.2V0.5h500V67.2z" transform="matrix(1,0,0,1,0,0)"></path><g transform="matrix(1,0,0,1,0,0)">
	<rect x="0.5" y="300.5" opacity="0.95" fill="#F1F2F2" width="500" height="66.7"></rect>
	<rect x="0.5" y="0.5" opacity="0.95" fill="#F1F2F2" width="500" height="66.7"></rect>
</g></g></g></svg>