<svg xmlns="http://www.w3.org/2000/svg" version="1.1" xmlns:xlink="http://www.w3.org/1999/xlink" xmlns:svgjs="http://svgjs.dev/svgjs" width="100%" height="100%" viewBox="1 1 499 365.70001220703125" preserveAspectRatio="none" data-info="{&quot;_id&quot;:4,&quot;name&quot;:&quot;POLE POCKET SOCCER BANNERS&quot;,&quot;information&quot;:&quot;- Size: 3’x5’\n- Material: heavy duty vinyl banner\n- Digitally printed on vinyl&quot;,&quot;price&quot;:&quot;95.00&quot;,&quot;sale_price&quot;:&quot;89.99&quot;,&quot;type&quot;:&quot;pole-pocket&quot;,&quot;cover&quot;:{&quot;key&quot;:&quot;assets/models/pole-1628062864266-1631924568908.png&quot;,&quot;url&quot;:&quot;https://lct-designs.s3.us-west-1.amazonaws.com/assets/models/pole-1628062864266-1631924568908.png&quot;},&quot;back&quot;:{&quot;key&quot;:&quot;assets/models/pole-1631924700152.svg&quot;,&quot;url&quot;:&quot;https://lct-designs.s3.us-west-1.amazonaws.com/assets/models/pole-1631924700152.svg&quot;},&quot;mask&quot;:{&quot;key&quot;:&quot;assets/models/pole-mask-1631925211715.svg&quot;,&quot;url&quot;:&quot;https://lct-designs.s3.us-west-1.amazonaws.com/assets/models/pole-mask-1631925211715.svg&quot;},&quot;pos&quot;:&quot;2&quot;,&quot;accessories&quot;:&quot;2,3&quot;}" style="background-color: white;"><g class="model" style="pointer-events: none;"><polygon fill="#FFFFFF" points="0.5,0.5 0.5,67.2 0.5,300.5 0.5,367.2 500.5,367.2 500.5,300.5 500.5,67.2 500.5,0.5 "></polygon></g><image width="760" height="556" xlink:href="https://lct-designs.s3.us-west-1.amazonaws.com/assets/libs/skylanders-5-1652349212839.png" class="asset background locked" transform="matrix(0.6595323960558116,0,0,0.6595323960558116,0,0)"></image><image width="760" height="83" xlink:href="https://lct-designs.s3.us-west-1.amazonaws.com/assets/libs/skylanders-2-1652349289584.png" class="asset" transform="matrix(0.5912419557571411,0,0,0.5912419557571411,27.61544597148898,194.24232482910156)"></image><image width="663" height="760" xlink:href="https://lct-designs.s3.us-west-1.amazonaws.com/assets/libs/skylanders-4-1652349274639.png" class="asset" transform="matrix(0.13157889246940616,0,0,0.13157889246940616,401.1290588378906,97.17554473876953)"></image><g class="g-selected"></g><text fill="#ff5615" font-family="Antilles" font-size="45" stroke-opacity="1" stroke-width="2" stroke="#000000" x="123.72291607097483" y="199.459545006756" transform="matrix(0.4517317712306977,0,0,0.4517317712306977,-43.16775894165039,199.66220092773435)" svgjs:data="{&quot;leading&quot;:&quot;1.3&quot;}"><tspan dy="0" x="123.72291607097483" svgjs:data="{&quot;newLined&quot;:true}">Team mom:name</tspan></text><text fill="#ff5615" font-family="Antilles" font-size="45" stroke-opacity="1" stroke-width="2" stroke="#000000" x="123.72291607097483" y="199.459545006756" transform="matrix(0.4517317712306977,0,0,0.4517317712306977,282.98715209960943,199.66221618652347)" svgjs:data="{&quot;leading&quot;:&quot;1.3&quot;}"><tspan dy="0" x="123.72291607097483" svgjs:data="{&quot;newLined&quot;:true}">Coach:Coach's name</tspan></text><image width="760" height="651" xlink:href="https://lct-designs.s3.us-west-1.amazonaws.com/assets/libs/skylanders-3-1652349390016.png" class="asset" transform="matrix(0.05244873836636544,0,0,0.05244873836636543,18.690980911254883,85.99556732177734)"></image><text fill="#ff5615" font-family="Antilles" font-size="45" stroke-opacity="1" stroke-width="2" stroke="#000000" x="194.244259302176" y="199.459545006756" transform="matrix(0.4388930837571792,0,0,0.43889308375717917,-71.384943048487,50.3269158874009)" svgjs:data="{&quot;leading&quot;:&quot;1.3&quot;}"><tspan dy="0" x="194.244259302176" svgjs:data="{&quot;newLined&quot;:true}">Player</tspan></text><text fill="#ff5615" font-family="Antilles" font-size="45" stroke-opacity="1" stroke-width="2" stroke="#000000" x="194.244259302176" y="199.459545006756" transform="matrix(0.4388931095600129,0,0,0.4388931095600129,34.24807739257815,46.874176025390625)" svgjs:data="{&quot;leading&quot;:&quot;1.3&quot;}"><tspan dy="0" x="194.244259302176" svgjs:data="{&quot;newLined&quot;:true}">Player</tspan></text><image width="760" height="651" xlink:href="https://lct-designs.s3.us-west-1.amazonaws.com/assets/libs/skylanders-3-1652349390016.png" class="asset" transform="matrix(0.05244873836636544,0,0,0.05244873836636543,123.82844543457037,82.54282379150393)"></image><text fill="#ff5615" font-family="Antilles" font-size="45" stroke-opacity="1" stroke-width="2" stroke="#000000" x="194.244259302176" y="199.459545006756" transform="matrix(0.4388931095600129,0,0,0.4388931095600129,-15.7868719100952,91.75884246826172)" svgjs:data="{&quot;leading&quot;:&quot;1.3&quot;}"><tspan dy="0" x="194.244259302176" svgjs:data="{&quot;newLined&quot;:true}">Player</tspan></text><image width="760" height="651" xlink:href="https://lct-designs.s3.us-west-1.amazonaws.com/assets/libs/skylanders-3-1652349390016.png" class="asset" transform="matrix(0.05244873836636544,0,0,0.05244873836636543,74.2890548706055,127.42749786376953)"></image><text fill="#ff5615" font-family="Antilles" font-size="45" stroke-opacity="1" stroke-width="2" stroke="#000000" x="194.244259302176" y="199.459545006756" transform="matrix(0.4388931095600129,0,0,0.4388931095600129,125.6469955444336,46.39387130737306)" svgjs:data="{&quot;leading&quot;:&quot;1.3&quot;}"><tspan dy="0" x="194.244259302176" svgjs:data="{&quot;newLined&quot;:true}">Player</tspan></text><image width="760" height="651" xlink:href="https://lct-designs.s3.us-west-1.amazonaws.com/assets/libs/skylanders-3-1652349390016.png" class="asset" transform="matrix(0.05244873836636544,0,0,0.05244873836636543,215.72290039062506,82.0625228881836)"></image><text fill="#ff5615" font-family="Antilles" font-size="45" stroke-opacity="1" stroke-width="2" stroke="#000000" x="194.244259302176" y="199.459545006756" transform="matrix(0.4388931095600129,0,0,0.4388931095600129,180.0408477783203,92.74992370605469)" svgjs:data="{&quot;leading&quot;:&quot;1.3&quot;}"><tspan dy="0" x="194.244259302176" svgjs:data="{&quot;newLined&quot;:true}">Player</tspan></text><image width="760" height="651" xlink:href="https://lct-designs.s3.us-west-1.amazonaws.com/assets/libs/skylanders-3-1652349390016.png" class="asset" transform="matrix(0.05244873836636544,0,0,0.05244873836636543,270.11676025390625,128.41857910156253)"></image><image width="760" height="651" xlink:href="https://lct-designs.s3.us-west-1.amazonaws.com/assets/libs/skylanders-3-1652349390016.png" class="asset" transform="matrix(0.05244873836636544,0,0,0.05244873836636543,312.1401977539063,83.0223159790039)"></image><text fill="#ff5615" font-family="Antilles" font-size="45" stroke-opacity="1" stroke-width="2" stroke="#000000" x="194.244259302176" y="199.459545006756" transform="matrix(0.4388931095600129,0,0,0.4388931095600129,222.06425476074224,47.35366439819336)" svgjs:data="{&quot;leading&quot;:&quot;1.3&quot;}"><tspan dy="0" x="194.244259302176" svgjs:data="{&quot;newLined&quot;:true}">Player</tspan></text><text fill="#ff5615" font-family="Antilles" font-size="45" stroke-opacity="1" stroke-width="2" stroke="#000000" x="194.244259302176" y="199.459545006756" transform="matrix(0.4388931095600129,0,0,0.4388931095600129,80.42253112792969,96.42822265625)" svgjs:data="{&quot;leading&quot;:&quot;1.3&quot;}"><tspan dy="0" x="194.244259302176" svgjs:data="{&quot;newLined&quot;:true}">Player</tspan></text><image width="760" height="651" xlink:href="https://lct-designs.s3.us-west-1.amazonaws.com/assets/libs/skylanders-3-1652349390016.png" class="asset" transform="matrix(0.05244873836636544,0,0,0.05244873836636543,170.49842834472656,132.09687042236328)"></image><text fill="#ff5615" font-family="Antilles" font-size="45" stroke-opacity="1" stroke-width="2" stroke="#000000" x="194.244259302176" y="199.459545006756" transform="matrix(0.4388931095600129,0,0,0.4388931095600129,263.99200439453125,92.47914505004883)" svgjs:data="{&quot;leading&quot;:&quot;1.3&quot;}"><tspan dy="0" x="194.244259302176" svgjs:data="{&quot;newLined&quot;:true}">Player</tspan></text><image width="760" height="651" xlink:href="https://lct-designs.s3.us-west-1.amazonaws.com/assets/libs/skylanders-3-1652349390016.png" class="asset" transform="matrix(0.05244873836636544,0,0,0.05244873836636543,354.0679016113282,128.14779663085938)"></image><g class="mask" style="pointer-events: none;"><g><path fill="#BCBEC0" d="M-3642.4-2101.7v4589.1h7813.4v-4589.1H-3642.4z M500.5,67.2v233.3v66.7H0.5v-66.7V67.2V0.5h500V67.2z" transform="matrix(1,0,0,1,0,0)"></path><g transform="matrix(1,0,0,1,0,0)">
	<rect x="0.5" y="300.5" opacity="0.95" fill="#F1F2F2" width="500" height="66.7"></rect>
	<rect x="0.5" y="0.5" opacity="0.95" fill="#F1F2F2" width="500" height="66.7"></rect>
</g></g></g></svg>