<svg xmlns="http://www.w3.org/2000/svg" version="1.1" xmlns:xlink="http://www.w3.org/1999/xlink" xmlns:svgjs="http://svgjs.dev/svgjs" width="100%" height="100%" viewBox="1 1 499 365.70001220703125" preserveAspectRatio="none" data-info="{&quot;_id&quot;:4,&quot;name&quot;:&quot;POLE POCKET SOCCER BANNERS&quot;,&quot;information&quot;:&quot;- Size: 3’x5’\n- Material: heavy duty vinyl banner\n- Digitally printed on vinyl&quot;,&quot;price&quot;:&quot;95.00&quot;,&quot;sale_price&quot;:&quot;89.99&quot;,&quot;type&quot;:&quot;pole-pocket&quot;,&quot;cover&quot;:{&quot;key&quot;:&quot;assets/models/pole-1628062864266-1631924568908.png&quot;,&quot;url&quot;:&quot;https://lct-designs.s3.us-west-1.amazonaws.com/assets/models/pole-1628062864266-1631924568908.png&quot;},&quot;back&quot;:{&quot;key&quot;:&quot;assets/models/pole-1631924700152.svg&quot;,&quot;url&quot;:&quot;https://lct-designs.s3.us-west-1.amazonaws.com/assets/models/pole-1631924700152.svg&quot;},&quot;mask&quot;:{&quot;key&quot;:&quot;assets/models/pole-mask-1631925211715.svg&quot;,&quot;url&quot;:&quot;https://lct-designs.s3.us-west-1.amazonaws.com/assets/models/pole-mask-1631925211715.svg&quot;},&quot;pos&quot;:&quot;2&quot;,&quot;accessories&quot;:&quot;2,3&quot;}" style="background-color: white;"><g class="model" style="pointer-events: none;"><polygon fill="#FFFFFF" points="0.5,0.5 0.5,67.2 0.5,300.5 0.5,367.2 500.5,367.2 500.5,300.5 500.5,67.2 500.5,0.5 "></polygon></g><image width="760" height="556" xlink:href="https://lct-designs.s3.us-west-1.amazonaws.com/assets/libs/the-gold-miners-1-1652435481773.png" class="asset background locked" transform="matrix(0.6595323960558116,0,0,0.6595323960558116,0,0)"></image><g class="" transform="matrix(1,0,0,1,0,0)"></g><image width="760" height="760" xlink:href="https://lct-designs.s3.us-west-1.amazonaws.com/assets/libs/the-gold-miners-4-1652435651682.png" class="asset" transform="matrix(0.03699485585093498,0,0,0.03699485585093499,8.598213195800781,139.79144287109375)"></image><text fill="#ffcf04" font-family="Amity Jack" font-size="45" stroke-opacity="1" stroke-width="2" stroke="#000000" x="174.11092810353136" y="200.41361831492046" transform="matrix(0.41995948553085327,0,0,0.4199594855308533,-28.89766502380371,76.85750579833982)" svgjs:data="{&quot;leading&quot;:&quot;1.3&quot;}"><tspan dy="0" x="174.11092810353136" svgjs:data="{&quot;newLined&quot;:true}">PLAYER</tspan></text><image width="760" height="760" xlink:href="https://lct-designs.s3.us-west-1.amazonaws.com/assets/libs/the-gold-miners-4-1652435651682.png" class="asset" transform="matrix(0.03699488192796707,0,0,0.03699488192796707,32.804492950439425,174.87014770507812)"></image><text fill="#ffcf04" font-family="Amity Jack" font-size="45" stroke-opacity="1" stroke-width="2" stroke="#000000" x="174.11092810353136" y="200.41361831492046" transform="matrix(0.4199593961238861,0,0,0.4199593961238861,-4.691385269165039,111.93621826171872)" svgjs:data="{&quot;leading&quot;:&quot;1.3&quot;}"><tspan dy="0" x="174.11092810353136" svgjs:data="{&quot;newLined&quot;:true}">PLAYER</tspan></text><image width="760" height="760" xlink:href="https://lct-designs.s3.us-west-1.amazonaws.com/assets/libs/the-gold-miners-4-1652435651682.png" class="asset" transform="matrix(0.03699488192796707,0,0,0.03699488192796707,40.96408462524414,208.9175872802734)"></image><text fill="#ffcf04" font-family="Amity Jack" font-size="45" stroke-opacity="1" stroke-width="2" stroke="#000000" x="174.11092810353136" y="200.41361831492046" transform="matrix(0.4199593961238861,0,0,0.4199593961238861,3.4682064056396484,145.98365783691406)" svgjs:data="{&quot;leading&quot;:&quot;1.3&quot;}"><tspan dy="0" x="174.11092810353136" svgjs:data="{&quot;newLined&quot;:true}">PLAYER</tspan></text><image width="760" height="760" xlink:href="https://lct-designs.s3.us-west-1.amazonaws.com/assets/libs/the-gold-miners-4-1652435651682.png" class="asset" transform="matrix(0.03699488192796707,0,0,0.03699488192796707,68.90799713134766,242.04483038187024)"></image><text fill="#ffcf04" font-family="Amity Jack" font-size="45" stroke-opacity="1" stroke-width="2" stroke="#000000" x="174.11092810353136" y="200.41361831492046" transform="matrix(0.4199593961238861,0,0,0.4199593961238861,31.412120819091797,179.1109009385109)" svgjs:data="{&quot;leading&quot;:&quot;1.3&quot;}"><tspan dy="0" x="174.11092810353136" svgjs:data="{&quot;newLined&quot;:true}">PLAYER</tspan></text><image width="760" height="760" xlink:href="https://lct-designs.s3.us-west-1.amazonaws.com/assets/libs/the-gold-miners-4-1652435651682.png" class="asset" transform="matrix(0.03699485585093498,0,0,0.03699485585093499,392.19970703125,136.57073974609375)"></image><text fill="#ffcf04" font-family="Amity Jack" font-size="45" stroke-opacity="1" stroke-width="2" stroke="#000000" x="174.11092810353136" y="200.41361831492046" transform="matrix(0.41995948553085327,0,0,0.4199594855308533,354.7038269042969,73.63680267333984)" svgjs:data="{&quot;leading&quot;:&quot;1.3&quot;}"><tspan dy="0" x="174.11092810353136" svgjs:data="{&quot;newLined&quot;:true}">PLAYER</tspan></text><image width="760" height="169" xlink:href="https://lct-designs.s3.us-west-1.amazonaws.com/assets/libs/the-gold-miners-3-1652435633993.png" class="asset" transform="matrix(0.38096410036087036,0,0,0.38096410036087036,95.64990234375003,80.67161560058594)"></image><image width="760" height="603" xlink:href="https://lct-designs.s3.us-west-1.amazonaws.com/assets/libs/the-gold-miners-1653711918531.png" class="asset" transform="matrix(0.23650777339935303,0,0,0.23650777339935306,150.5433197021484,131.4768524169922)"></image><text fill="#ffcf04" font-family="Amity Jack" font-size="45" stroke-opacity="1" stroke-width="2" stroke="#000000" x="174.11092810353136" y="200.41361831492046" transform="matrix(0.4199593961238861,0,0,0.4199593961238861,306.5521545410156,144.1432647705078)" svgjs:data="{&quot;leading&quot;:&quot;1.3&quot;}"><tspan dy="0" x="174.11092810353136" svgjs:data="{&quot;newLined&quot;:true}">PLAYER</tspan></text><image width="760" height="760" xlink:href="https://lct-designs.s3.us-west-1.amazonaws.com/assets/libs/the-gold-miners-4-1652435651682.png" class="asset" transform="matrix(0.03699488192796707,0,0,0.03699488192796707,369.0156860351563,170.72923278808594)"></image><text fill="#ffcf04" font-family="Amity Jack" font-size="45" stroke-opacity="1" stroke-width="2" stroke="#000000" x="174.11092810353136" y="200.41361831492046" transform="matrix(0.4199593961238861,0,0,0.4199593961238861,331.5198059082031,107.79530334472653)" svgjs:data="{&quot;leading&quot;:&quot;1.3&quot;}"><tspan dy="0" x="174.11092810353136" svgjs:data="{&quot;newLined&quot;:true}">PLAYER</tspan></text><image width="760" height="760" xlink:href="https://lct-designs.s3.us-west-1.amazonaws.com/assets/libs/the-gold-miners-4-1652435651682.png" class="asset" transform="matrix(0.03699488192796707,0,0,0.03699488192796707,344.04803466796875,207.07719421386722)"></image><image width="760" height="760" xlink:href="https://lct-designs.s3.us-west-1.amazonaws.com/assets/libs/the-gold-miners-4-1652435651682.png" class="asset" transform="matrix(0.03699488192796707,0,0,0.03699488192796707,313.5591735839844,242.96501159667966)"></image><text fill="#ffcf04" font-family="Amity Jack" font-size="45" stroke-opacity="1" stroke-width="2" stroke="#000000" x="174.11092810353136" y="200.41361831492046" transform="matrix(0.4199593961238861,0,0,0.4199593961238861,276.06329345703125,180.0310821533203)" svgjs:data="{&quot;leading&quot;:&quot;1.3&quot;}"><tspan dy="0" x="174.11092810353136" svgjs:data="{&quot;newLined&quot;:true}">PLAYER</tspan></text><text fill="#fa6f0b" font-family="Amity Jack" font-size="45" stroke-opacity="1" stroke-width="2" stroke="#000000" x="28.728020653332237" y="200.41361831492046" transform="matrix(0.35257431864738464,0,0,0.35257431864738464,328.9081726074219,222.32499694824222)" svgjs:data="{&quot;leading&quot;:&quot;1.3&quot;}"><tspan dy="0" x="28.728020653332237" svgjs:data="{&quot;newLined&quot;:true}">COACH:COACH'S NAME</tspan></text><text fill="#fa6f0b" font-family="Amity Jack" font-size="45" stroke-opacity="1" stroke-width="2" stroke="#000000" x="28.728020653332237" y="200.41361831492046" transform="matrix(0.35257431864738464,0,0,0.35257431864738464,-1.1060087680816792,219.56439208984378)" svgjs:data="{&quot;leading&quot;:&quot;1.3&quot;}"><tspan dy="0" x="28.728020653332237" svgjs:data="{&quot;newLined&quot;:true}">TEAM MOM: NAME</tspan></text><g class="mask" style="pointer-events: none;"><g><path fill="#BCBEC0" d="M-3642.4-2101.7v4589.1h7813.4v-4589.1H-3642.4z M500.5,67.2v233.3v66.7H0.5v-66.7V67.2V0.5h500V67.2z" transform="matrix(1,0,0,1,0,0)"></path><g transform="matrix(1,0,0,1,0,0)">
	<rect x="0.5" y="300.5" opacity="0.95" fill="#F1F2F2" width="500" height="66.7"></rect>
	<rect x="0.5" y="0.5" opacity="0.95" fill="#F1F2F2" width="500" height="66.7"></rect>
</g></g></g></svg>