<svg xmlns="http://www.w3.org/2000/svg" version="1.1" xmlns:xlink="http://www.w3.org/1999/xlink" xmlns:svgjs="http://svgjs.dev/svgjs" width="100%" height="100%" viewBox="1 1 499 365.70001220703125" preserveAspectRatio="none" data-info="{&quot;_id&quot;:4,&quot;name&quot;:&quot;POLE POCKET SOCCER BANNERS&quot;,&quot;information&quot;:&quot;- Size: 3’x5’\n- Material: heavy duty vinyl banner\n- Digitally printed on vinyl&quot;,&quot;price&quot;:&quot;95.00&quot;,&quot;sale_price&quot;:&quot;89.99&quot;,&quot;type&quot;:&quot;pole-pocket&quot;,&quot;cover&quot;:{&quot;key&quot;:&quot;assets/models/pole-1628062864266-1631924568908.png&quot;,&quot;url&quot;:&quot;https://lct-designs.s3.us-west-1.amazonaws.com/assets/models/pole-1628062864266-1631924568908.png&quot;},&quot;back&quot;:{&quot;key&quot;:&quot;assets/models/pole-1631924700152.svg&quot;,&quot;url&quot;:&quot;https://lct-designs.s3.us-west-1.amazonaws.com/assets/models/pole-1631924700152.svg&quot;},&quot;mask&quot;:{&quot;key&quot;:&quot;assets/models/pole-mask-1631925211715.svg&quot;,&quot;url&quot;:&quot;https://lct-designs.s3.us-west-1.amazonaws.com/assets/models/pole-mask-1631925211715.svg&quot;},&quot;pos&quot;:&quot;2&quot;,&quot;accessories&quot;:&quot;2,3&quot;}" style="background-color: white;"><g class="model" style="pointer-events: none;"><polygon fill="#FFFFFF" points="0.5,0.5 0.5,67.2 0.5,300.5 0.5,367.2 500.5,367.2 500.5,300.5 500.5,67.2 500.5,0.5 "></polygon></g><image width="760" height="556" xlink:href="https://lct-designs.s3.us-west-1.amazonaws.com/assets/libs/asset-1-1654229866149.png" class="asset background locked" transform="matrix(0.6595323960558116,0,0,0.6595323960558116,0,0)"></image><text fill="#a7b6be" font-family="Foo" font-size="40" x="196.88127233350318" y="200.48091056834267" stroke-opacity="1" stroke-width="2" stroke="#1b144f" transform="matrix(0.2917780876159668,0,0,0.2917780876159668,315.3596496582031,220.83717358112335)" svgjs:data="{&quot;leading&quot;:&quot;1.3&quot;}"><tspan dy="0" x="196.88127233350318" svgjs:data="{&quot;newLined&quot;:true}">COACH: COACH'S NAME</tspan></text><text fill="#a7b6be" font-family="Foo" font-size="40" x="196.88127233350318" y="200.48091056834267" stroke-opacity="1" stroke-width="2" stroke="#1b144f" transform="matrix(0.301501989364624,0,0,0.301501989364624,267.1459045410156,232.04287731647491)" svgjs:data="{&quot;leading&quot;:&quot;1.3&quot;}"><tspan dy="0" x="196.88127233350318" svgjs:data="{&quot;newLined&quot;:true}">TEAM MOM: TEAM MOM'S NAME</tspan></text><text fill="#a7b6be" font-family="Foo" font-size="60" x="196.88127233350318" y="200.48091056834267" stroke-opacity="1" stroke-width="3" stroke="#1b144f" transform="matrix(0.27657872438430786,0,0,0.27657872438430786,85.84667205810547,219.41676330566406)" svgjs:data="{&quot;leading&quot;:&quot;1.3&quot;}"><tspan dy="0" x="196.88127233350318" svgjs:data="{&quot;newLined&quot;:true}">player</tspan></text><text fill="#a7b6be" font-family="Foo" font-size="60" x="196.88127233350318" y="200.48091056834267" stroke-opacity="1" stroke-width="3" stroke="#1b144f" transform="matrix(0.27657872438430786,0,0,0.27657872438430786,208.4930877685547,220.01596069335938)" svgjs:data="{&quot;leading&quot;:&quot;1.3&quot;}"><tspan dy="0" x="196.88127233350318" svgjs:data="{&quot;newLined&quot;:true}">player</tspan></text><text fill="#a7b6be" font-family="Foo" font-size="60" x="196.88127233350318" y="200.48091056834267" stroke-opacity="1" stroke-width="3" stroke="#1b144f" transform="matrix(0.27657872438430786,0,0,0.27657872438430786,-35.85339164733887,146.93943786621094)" svgjs:data="{&quot;leading&quot;:&quot;1.3&quot;}"><tspan dy="0" x="196.88127233350318" svgjs:data="{&quot;newLined&quot;:true}">player</tspan></text><image width="760" height="556" xlink:href="https://lct-designs.s3.us-west-1.amazonaws.com/assets/libs/asset-3-1647403225566.png" class="asset" transform="matrix(0.06219078972935677,0,0,0.062190789729356766,19.482297897338867,157.0270233154297)"></image><text fill="#a7b6be" font-family="Foo" font-size="60" x="196.88127233350318" y="200.48091056834267" stroke-opacity="1" stroke-width="3" stroke="#1b144f" transform="matrix(0.27657872438430786,0,0,0.27657872438430786,-35.85338592529297,219.66761779785156)" svgjs:data="{&quot;leading&quot;:&quot;1.3&quot;}"><tspan dy="0" x="196.88127233350318" svgjs:data="{&quot;newLined&quot;:true}">player</tspan></text><image width="760" height="556" xlink:href="https://lct-designs.s3.us-west-1.amazonaws.com/assets/libs/asset-3-1647403225566.png" class="asset" transform="matrix(0.06219078972935677,0,0,0.062190789729356766,19.482295989990234,229.75520324707026)"></image><text fill="#a7b6be" font-family="Foo" font-size="60" x="196.88127233350318" y="200.48091056834267" stroke-opacity="1" stroke-width="3" stroke="#1b144f" transform="matrix(0.27657872438430786,0,0,0.27657872438430786,-35.85339164733887,79.23175048828124)" svgjs:data="{&quot;leading&quot;:&quot;1.3&quot;}"><tspan dy="0" x="196.88127233350318" svgjs:data="{&quot;newLined&quot;:true}">player</tspan></text><image width="760" height="556" xlink:href="https://lct-designs.s3.us-west-1.amazonaws.com/assets/libs/asset-3-1647403225566.png" class="asset" transform="matrix(0.06219078972935677,0,0,0.062190789729356766,19.482284545898438,89.31933593750001)"></image><text fill="#a7b6be" font-family="Foo" font-size="60" x="196.88127233350318" y="200.48091056834267" stroke-opacity="1" stroke-width="3" stroke="#1b144f" transform="matrix(0.27657872438430786,0,0,0.27657872438430786,29.110389709472656,182.26742553710938)" svgjs:data="{&quot;leading&quot;:&quot;1.3&quot;}"><tspan dy="0" x="196.88127233350318" svgjs:data="{&quot;newLined&quot;:true}">player</tspan></text><image width="760" height="556" xlink:href="https://lct-designs.s3.us-west-1.amazonaws.com/assets/libs/asset-3-1647403225566.png" class="asset" transform="matrix(0.06219078972935677,0,0,0.062190789729356766,84.49153137207031,192.35501098632812)"></image><image width="760" height="556" xlink:href="https://lct-designs.s3.us-west-1.amazonaws.com/assets/libs/asset-3-1647403225566.png" class="asset" transform="matrix(0.06219078972935677,0,0,0.062190789729356766,141.22781372070312,229.5043487548828)"></image><image width="760" height="556" xlink:href="https://lct-designs.s3.us-west-1.amazonaws.com/assets/libs/asset-3-1647403225566.png" class="asset" transform="matrix(0.06219078972935677,0,0,0.062190789729356766,263.8742370605469,230.10354614257812)"></image><text fill="#a7b6be" font-family="Foo" font-size="60" x="196.88127233350318" y="200.48091056834267" stroke-opacity="1" stroke-width="3" stroke="#1b144f" transform="matrix(0.27657872438430786,0,0,0.27657872438430786,151.7567901611328,182.8666229248047)" svgjs:data="{&quot;leading&quot;:&quot;1.3&quot;}"><tspan dy="0" x="196.88127233350318" svgjs:data="{&quot;newLined&quot;:true}">player</tspan></text><image width="760" height="556" xlink:href="https://lct-designs.s3.us-west-1.amazonaws.com/assets/libs/asset-3-1647403225566.png" class="asset" transform="matrix(0.06219078972935677,0,0,0.062190789729356766,207.137939453125,192.95420837402344)"></image><text fill="#a7b6be" font-family="Foo" font-size="60" x="196.88127233350318" y="200.48091056834267" stroke-opacity="1" stroke-width="3" stroke="#1b144f" transform="matrix(0.27657872438430786,0,0,0.27657872438430786,275.00244140624994,182.86663818359375)" svgjs:data="{&quot;leading&quot;:&quot;1.3&quot;}"><tspan dy="0" x="196.88127233350318" svgjs:data="{&quot;newLined&quot;:true}">player</tspan></text><image width="760" height="556" xlink:href="https://lct-designs.s3.us-west-1.amazonaws.com/assets/libs/asset-3-1647403225566.png" class="asset" transform="matrix(0.06219078972935677,0,0,0.062190789729356766,330.3835754394531,192.9542236328125)"></image><image width="587" height="760" xlink:href="https://lct-designs.s3.us-west-1.amazonaws.com/assets/libs/asset-2-1647403216647.png" class="asset" transform="matrix(0.1807066649198532,0,0,0.1807066649198532,386.30847167968756,124.39988708496092)"></image><image width="760" height="344" xlink:href="https://lct-designs.s3.us-west-1.amazonaws.com/assets/libs/asset-1-1647403221588.png" class="asset" transform="matrix(0.338606208562851,0,0,0.33860620856285095,117.86388397216797,71.47239685058595)"></image><g class="mask" style="pointer-events: none;"><g><path fill="#BCBEC0" d="M-3642.4-2101.7v4589.1h7813.4v-4589.1H-3642.4z M500.5,67.2v233.3v66.7H0.5v-66.7V67.2V0.5h500V67.2z" transform="matrix(1,0,0,1,0,0)"></path><g transform="matrix(1,0,0,1,0,0)">
	<rect x="0.5" y="300.5" opacity="0.95" fill="#F1F2F2" width="500" height="66.7"></rect>
	<rect x="0.5" y="0.5" opacity="0.95" fill="#F1F2F2" width="500" height="66.7"></rect>
</g></g></g></svg>