<svg xmlns="http://www.w3.org/2000/svg" version="1.1" xmlns:xlink="http://www.w3.org/1999/xlink" xmlns:svgjs="http://svgjs.dev/svgjs" width="100%" height="100%" viewBox="1 1 499 365.70001220703125" preserveAspectRatio="none" data-info="{&quot;_id&quot;:4,&quot;name&quot;:&quot;POLE POCKET SOCCER BANNERS&quot;,&quot;information&quot;:&quot;- Size: 3’x5’\n- Material: heavy duty vinyl banner\n- Digitally printed on vinyl&quot;,&quot;price&quot;:&quot;95.00&quot;,&quot;sale_price&quot;:&quot;89.99&quot;,&quot;type&quot;:&quot;pole-pocket&quot;,&quot;cover&quot;:{&quot;key&quot;:&quot;assets/models/pole-1628062864266-1631924568908.png&quot;,&quot;url&quot;:&quot;https://lct-designs.s3.us-west-1.amazonaws.com/assets/models/pole-1628062864266-1631924568908.png&quot;},&quot;back&quot;:{&quot;key&quot;:&quot;assets/models/pole-1631924700152.svg&quot;,&quot;url&quot;:&quot;https://lct-designs.s3.us-west-1.amazonaws.com/assets/models/pole-1631924700152.svg&quot;},&quot;mask&quot;:{&quot;key&quot;:&quot;assets/models/pole-mask-1631925211715.svg&quot;,&quot;url&quot;:&quot;https://lct-designs.s3.us-west-1.amazonaws.com/assets/models/pole-mask-1631925211715.svg&quot;},&quot;pos&quot;:&quot;2&quot;,&quot;accessories&quot;:&quot;2,3&quot;}" style="background-color: white;"><g class="model" style="pointer-events: none;"><polygon fill="#FFFFFF" points="0.5,0.5 0.5,67.2 0.5,300.5 0.5,367.2 500.5,367.2 500.5,300.5 500.5,67.2 500.5,0.5 "></polygon></g><image width="760" height="553" xlink:href="https://lct-designs.s3.us-west-1.amazonaws.com/assets/libs/minions-purple-1633402757835.png" class="asset background locked" transform="matrix(0.6631103294883024,0,0,0.6631103294883024,0,0)"></image><text fill="#600bb2" font-family="BubbleGum" font-size="50" stroke-opacity="1" stroke-width="1" stroke="#ffffff" x="-98.72634249947717" y="199.47500657859518" transform="matrix(0.24219919741153717,0,0,0.24219919741153717,392.0838623046875,39.43035888671875)" svgjs:data="{&quot;leading&quot;:&quot;1.3&quot;}"><tspan dy="0" x="-98.72634249947717" svgjs:data="{&quot;newLined&quot;:true}">COACH: COACH'S NAME</tspan></text><text fill="#600bb2" font-family="BubbleGum" font-size="50" stroke-opacity="1" stroke-width="1" stroke="#ffffff" x="-98.72634249947717" y="199.47500657859518" transform="matrix(0.24219921231269836,0,0,0.2421992123126984,345.5055236816406,51.25831604003908)" svgjs:data="{&quot;leading&quot;:&quot;1.3&quot;}"><tspan dy="0" x="-98.72634249947717" svgjs:data="{&quot;newLined&quot;:true}">TEAM MOM: TEAM MOM'S NAME</tspan></text><text fill="#600bb2" font-family="BubbleGum" font-size="50" stroke-opacity="1" stroke-width="1" stroke="#ffffff" x="-98.72634249947717" y="199.47500657859518" transform="matrix(0.2808831457779366,0,0,0.28088314577793666,40.850591693561896,140.84549813715427)" svgjs:data="{&quot;leading&quot;:&quot;1.3&quot;}"><tspan dy="0" x="-98.72634249947717" svgjs:data="{&quot;newLined&quot;:true}">PLAYER</tspan><tspan dy="65" x="-98.72634249947717" svgjs:data="{&quot;newLined&quot;:true}"></tspan></text><image width="759" height="542" xlink:href="https://lct-designs.s3.us-west-1.amazonaws.com/assets/libs/minions-purple-1-1633342536150.png" class="asset" transform="matrix(0.0493608456126815,0,0,0.04936084561268151,18.106152172643995,156.24730835991068)"></image><text fill="#600bb2" font-family="BubbleGum" font-size="50" stroke-opacity="1" stroke-width="1" stroke="#ffffff" x="-98.72634249947717" y="199.47500657859518" transform="matrix(0.2808831457779366,0,0,0.28088314577793666,112.570946795895,141.36295501924724)" svgjs:data="{&quot;leading&quot;:&quot;1.3&quot;}"><tspan dy="0" x="-98.72634249947717" svgjs:data="{&quot;newLined&quot;:true}">PLAYER</tspan><tspan dy="65" x="-98.72634249947717" svgjs:data="{&quot;newLined&quot;:true}"></tspan></text><image width="759" height="542" xlink:href="https://lct-designs.s3.us-west-1.amazonaws.com/assets/libs/minions-purple-1-1633342536150.png" class="asset" transform="matrix(0.0493608456126815,0,0,0.04936084561268151,89.82651094655056,156.7647652420037)"></image><text fill="#600bb2" font-family="BubbleGum" font-size="50" stroke-opacity="1" stroke-width="1" stroke="#ffffff" x="-98.72634249947717" y="199.47500657859518" transform="matrix(0.2808831457779366,0,0,0.28088314577793666,186.87863036757517,140.84549813715427)" svgjs:data="{&quot;leading&quot;:&quot;1.3&quot;}"><tspan dy="0" x="-98.72634249947717" svgjs:data="{&quot;newLined&quot;:true}">PLAYER</tspan><tspan dy="65" x="-98.72634249947717" svgjs:data="{&quot;newLined&quot;:true}"></tspan></text><image width="759" height="542" xlink:href="https://lct-designs.s3.us-west-1.amazonaws.com/assets/libs/minions-purple-1-1633342536150.png" class="asset" transform="matrix(0.0493608456126815,0,0,0.04936084561268151,164.13418717508378,156.24730835991068)"></image><text fill="#600bb2" font-family="BubbleGum" font-size="50" stroke-opacity="1" stroke-width="1" stroke="#ffffff" x="-98.72634249947717" y="199.47500657859518" transform="matrix(0.2808831457779366,0,0,0.28088314577793666,41.161074634594115,236.05868060061408)" svgjs:data="{&quot;leading&quot;:&quot;1.3&quot;}"><tspan dy="0" x="-98.72634249947717" svgjs:data="{&quot;newLined&quot;:true}">PLAYER</tspan><tspan dy="65" x="-98.72634249947717" svgjs:data="{&quot;newLined&quot;:true}"></tspan></text><image width="759" height="542" xlink:href="https://lct-designs.s3.us-west-1.amazonaws.com/assets/libs/minions-purple-1-1633342536150.png" class="asset" transform="matrix(0.0493608456126815,0,0,0.04936084561268151,18.416635113676193,251.4604908233705)"></image><text fill="#600bb2" font-family="BubbleGum" font-size="50" stroke-opacity="1" stroke-width="1" stroke="#ffffff" x="-98.72634249947717" y="199.47500657859518" transform="matrix(0.2808831457779366,0,0,0.28088314577793666,112.8814297369272,236.57613748270705)" svgjs:data="{&quot;leading&quot;:&quot;1.3&quot;}"><tspan dy="0" x="-98.72634249947717" svgjs:data="{&quot;newLined&quot;:true}">PLAYER</tspan><tspan dy="65" x="-98.72634249947717" svgjs:data="{&quot;newLined&quot;:true}"></tspan></text><image width="759" height="542" xlink:href="https://lct-designs.s3.us-west-1.amazonaws.com/assets/libs/minions-purple-1-1633342536150.png" class="asset" transform="matrix(0.0493608456126815,0,0,0.04936084561268151,90.13699388758276,251.97794770546352)"></image><text fill="#600bb2" font-family="BubbleGum" font-size="50" stroke-opacity="1" stroke-width="1" stroke="#ffffff" x="-98.72634249947717" y="199.47500657859518" transform="matrix(0.2808831457779366,0,0,0.28088314577793666,187.18911330860738,236.05868060061408)" svgjs:data="{&quot;leading&quot;:&quot;1.3&quot;}"><tspan dy="0" x="-98.72634249947717" svgjs:data="{&quot;newLined&quot;:true}">PLAYER</tspan><tspan dy="65" x="-98.72634249947717" svgjs:data="{&quot;newLined&quot;:true}"></tspan></text><image width="759" height="542" xlink:href="https://lct-designs.s3.us-west-1.amazonaws.com/assets/libs/minions-purple-1-1633342536150.png" class="asset" transform="matrix(0.0493608456126815,0,0,0.04936084561268151,164.444670116116,251.4604908233705)"></image><text fill="#600bb2" font-family="BubbleGum" font-size="50" stroke-opacity="1" stroke-width="1" stroke="#ffffff" x="-98.72634249947717" y="199.47500657859518" transform="matrix(0.2808831457779366,0,0,0.28088314577793666,67.55168403351217,187.93461780049716)" svgjs:data="{&quot;leading&quot;:&quot;1.3&quot;}"><tspan dy="0" x="-98.72634249947717" svgjs:data="{&quot;newLined&quot;:true}">PLAYER</tspan><tspan dy="65" x="-98.72634249947717" svgjs:data="{&quot;newLined&quot;:true}"></tspan></text><image width="759" height="542" xlink:href="https://lct-designs.s3.us-west-1.amazonaws.com/assets/libs/minions-purple-1-1633342536150.png" class="asset" transform="matrix(0.0493608456126815,0,0,0.04936084561268151,44.80724451259424,203.33642802325357)"></image><text fill="#600bb2" font-family="BubbleGum" font-size="50" stroke-opacity="1" stroke-width="1" stroke="#ffffff" x="-98.72634249947717" y="199.47500657859518" transform="matrix(0.2808831457779366,0,0,0.28088314577793666,139.2720391358453,188.45207468259014)" svgjs:data="{&quot;leading&quot;:&quot;1.3&quot;}"><tspan dy="0" x="-98.72634249947717" svgjs:data="{&quot;newLined&quot;:true}">PLAYER</tspan><tspan dy="65" x="-98.72634249947717" svgjs:data="{&quot;newLined&quot;:true}"></tspan></text><image width="759" height="542" xlink:href="https://lct-designs.s3.us-west-1.amazonaws.com/assets/libs/minions-purple-1-1633342536150.png" class="asset" transform="matrix(0.0493608456126815,0,0,0.04936084561268151,116.52760328650083,203.8538849053466)"></image><text fill="#600bb2" font-family="BubbleGum" font-size="50" stroke-opacity="1" stroke-width="1" stroke="#ffffff" x="-98.72634249947717" y="199.47500657859518" transform="matrix(0.2808831457779366,0,0,0.28088314577793666,213.57972270752546,187.93461780049716)" svgjs:data="{&quot;leading&quot;:&quot;1.3&quot;}"><tspan dy="0" x="-98.72634249947717" svgjs:data="{&quot;newLined&quot;:true}">PLAYER</tspan><tspan dy="65" x="-98.72634249947717" svgjs:data="{&quot;newLined&quot;:true}"></tspan></text><image width="759" height="542" xlink:href="https://lct-designs.s3.us-west-1.amazonaws.com/assets/libs/minions-purple-1-1633342536150.png" class="asset" transform="matrix(0.0493608456126815,0,0,0.04936084561268151,190.83527951503402,203.33642802325357)"></image><image width="704" height="760" xlink:href="https://lct-designs.s3.us-west-1.amazonaws.com/assets/libs/minions-purple-5-1633342503133.png" class="asset" transform="matrix(0.1754380315542221,0,0,0.1754380315542221,367.9682922363282,155.39300537109375)"></image><image width="613" height="760" xlink:href="https://lct-designs.s3.us-west-1.amazonaws.com/assets/libs/minions-purple-4-1633342503133.png" class="asset" transform="matrix(0.19383053481578827,0,0,0.1938305348157883,253.2306365966797,144.10269165039062)"></image><image width="760" height="235" xlink:href="https://lct-designs.s3.us-west-1.amazonaws.com/assets/libs/minions-purple-2-1633342518595.png" class="asset" transform="matrix(0.3100202679634094,0,0,0.3100202679634094,5.3763298988342285,75.95399475097658)"></image><g class="mask" style="pointer-events: none;"><g><path fill="#BCBEC0" d="M-3642.4-2101.7v4589.1h7813.4v-4589.1H-3642.4z M500.5,67.2v233.3v66.7H0.5v-66.7V67.2V0.5h500V67.2z" transform="matrix(1,0,0,1,0,0)"></path><g transform="matrix(1,0,0,1,0,0)">
	<rect x="0.5" y="300.5" opacity="0.95" fill="#F1F2F2" width="500" height="66.7"></rect>
	<rect x="0.5" y="0.5" opacity="0.95" fill="#F1F2F2" width="500" height="66.7"></rect>
</g></g></g></svg>