<svg xmlns="http://www.w3.org/2000/svg" version="1.1" xmlns:xlink="http://www.w3.org/1999/xlink" xmlns:svgjs="http://svgjs.dev/svgjs" width="100%" height="100%" viewBox="1 1 499 365.70001220703125" preserveAspectRatio="none" data-info="{&quot;_id&quot;:4,&quot;name&quot;:&quot;POLE POCKET SOCCER BANNERS&quot;,&quot;information&quot;:&quot;- Size: 3’x5’\n- Material: heavy duty vinyl banner\n- Digitally printed on vinyl&quot;,&quot;price&quot;:&quot;95.00&quot;,&quot;sale_price&quot;:&quot;89.99&quot;,&quot;type&quot;:&quot;pole-pocket&quot;,&quot;cover&quot;:{&quot;key&quot;:&quot;assets/models/pole-1628062864266-1631924568908.png&quot;,&quot;url&quot;:&quot;https://lct-designs.s3.us-west-1.amazonaws.com/assets/models/pole-1628062864266-1631924568908.png&quot;},&quot;back&quot;:{&quot;key&quot;:&quot;assets/models/pole-1631924700152.svg&quot;,&quot;url&quot;:&quot;https://lct-designs.s3.us-west-1.amazonaws.com/assets/models/pole-1631924700152.svg&quot;},&quot;mask&quot;:{&quot;key&quot;:&quot;assets/models/pole-mask-1631925211715.svg&quot;,&quot;url&quot;:&quot;https://lct-designs.s3.us-west-1.amazonaws.com/assets/models/pole-mask-1631925211715.svg&quot;},&quot;pos&quot;:&quot;2&quot;,&quot;accessories&quot;:&quot;2,3&quot;}" style="background-color: white;"><g class="model" style="pointer-events: none;"><polygon fill="#FFFFFF" points="0.5,0.5 0.5,67.2 0.5,300.5 0.5,367.2 500.5,367.2 500.5,300.5 500.5,67.2 500.5,0.5 "></polygon></g><image width="760" height="554" xlink:href="https://lct-designs.s3.us-west-1.amazonaws.com/assets/libs/asset-1-1654918244918.png" class="asset background locked" transform="matrix(0.6619133794350744,0,0,0.6619133794350744,0,0)"></image><image width="760" height="291" xlink:href="https://lct-designs.s3.us-west-1.amazonaws.com/assets/libs/panthers-purple-3-1651218510032.png" class="asset" transform="matrix(0.4142485857009888,0,0,0.4142485857009888,32.24443817138675,84.4232406616211)"></image><image width="760" height="629" xlink:href="https://lct-designs.s3.us-west-1.amazonaws.com/assets/libs/panthers-purple-4-1651218513947.png" class="asset" transform="matrix(0.17648422718048098,0,0,0.17648422718048096,346.74386596679693,100.83856964111328)"></image><image width="760" height="730" xlink:href="https://lct-designs.s3.us-west-1.amazonaws.com/assets/libs/panthers-purple-1-1651218506076.png" class="asset" transform="matrix(0.05283655598759652,0,0,0.05283655598759652,23.09199711680415,212.13247680664065)"></image><text fill="#ffffff" font-family="Roboto Condensed" font-size="45" stroke-opacity="1" stroke-width="2" stroke="#000000" x="193.48574108318186" y="199.459545006756" transform="matrix(0.385434776544571,0,0,0.3854347765445709,-51.55633929371834,190.0474548339844)" svgjs:data="{&quot;leading&quot;:&quot;1.3&quot;}"><tspan dy="0" x="193.48574108318186" svgjs:data="{&quot;newLined&quot;:true}">Player</tspan></text><text fill="#ffffff" font-family="Roboto Condensed" font-size="45" stroke-opacity="1" stroke-width="2" stroke="#000000" x="193.48574108318186" y="199.459545006756" transform="matrix(0.385434776544571,0,0,0.3854347765445709,10.475418061018019,192.02960205078128)" svgjs:data="{&quot;leading&quot;:&quot;1.3&quot;}"><tspan dy="0" x="193.48574108318186" svgjs:data="{&quot;newLined&quot;:true}">Player</tspan></text><image width="760" height="730" xlink:href="https://lct-designs.s3.us-west-1.amazonaws.com/assets/libs/panthers-purple-1-1651218506076.png" class="asset" transform="matrix(0.05283655598759652,0,0,0.05283655598759652,85.12376019358635,214.11462402343753)"></image><text fill="#ffffff" font-family="Roboto Condensed" font-size="45" stroke-opacity="1" stroke-width="2" stroke="#000000" x="193.48574108318186" y="199.459545006756" transform="matrix(0.385434776544571,0,0,0.3854347765445709,65.5696143805981,192.02960205078128)" svgjs:data="{&quot;leading&quot;:&quot;1.3&quot;}"><tspan dy="0" x="193.48574108318186" svgjs:data="{&quot;newLined&quot;:true}">Player</tspan></text><image width="760" height="730" xlink:href="https://lct-designs.s3.us-west-1.amazonaws.com/assets/libs/panthers-purple-1-1651218506076.png" class="asset" transform="matrix(0.05283655598759652,0,0,0.05283655598759652,140.21795269846922,214.11462402343753)"></image><text fill="#ffffff" font-family="Roboto Condensed" font-size="45" stroke-opacity="1" stroke-width="2" stroke="#000000" x="193.48574108318186" y="199.459545006756" transform="matrix(0.385434776544571,0,0,0.3854347765445709,122.15042492747313,193.02069091796875)" svgjs:data="{&quot;leading&quot;:&quot;1.3&quot;}"><tspan dy="0" x="193.48574108318186" svgjs:data="{&quot;newLined&quot;:true}">Player</tspan></text><image width="760" height="730" xlink:href="https://lct-designs.s3.us-west-1.amazonaws.com/assets/libs/panthers-purple-1-1651218506076.png" class="asset" transform="matrix(0.05283655598759652,0,0,0.05283655598759652,196.79876324534422,215.10571289062497)"></image><image width="760" height="730" xlink:href="https://lct-designs.s3.us-west-1.amazonaws.com/assets/libs/panthers-purple-1-1651218506076.png" class="asset" transform="matrix(0.05283655598759652,0,0,0.05283655598759652,257.57186505198484,215.1057281494141)"></image><text fill="#ffffff" font-family="Roboto Condensed" font-size="45" stroke-opacity="1" stroke-width="2" stroke="#000000" x="193.48574108318186" y="199.459545006756" transform="matrix(0.385434776544571,0,0,0.3854347765445709,182.92353436350828,193.0207061767578)" svgjs:data="{&quot;leading&quot;:&quot;1.3&quot;}"><tspan dy="0" x="193.48574108318186" svgjs:data="{&quot;newLined&quot;:true}">Player</tspan></text><text fill="#ffffff" font-family="Roboto Condensed" font-size="45" stroke-opacity="1" stroke-width="2" stroke="#000000" x="193.48574108318186" y="199.459545006756" transform="matrix(0.385434776544571,0,0,0.3854347765445709,244.95528790354734,195.0028533935547)" svgjs:data="{&quot;leading&quot;:&quot;1.3&quot;}"><tspan dy="0" x="193.48574108318186" svgjs:data="{&quot;newLined&quot;:true}">Player</tspan></text><image width="760" height="730" xlink:href="https://lct-designs.s3.us-west-1.amazonaws.com/assets/libs/panthers-purple-1-1651218506076.png" class="asset" transform="matrix(0.05283655598759652,0,0,0.05283655598759652,319.60363385081297,217.08787536621097)"></image><text fill="#ffffff" font-family="Roboto Condensed" font-size="45" stroke-opacity="1" stroke-width="2" stroke="#000000" x="193.48574108318186" y="199.459545006756" transform="matrix(0.385434776544571,0,0,0.3854347765445709,300.0494956672192,195.0028533935547)" svgjs:data="{&quot;leading&quot;:&quot;1.3&quot;}"><tspan dy="0" x="193.48574108318186" svgjs:data="{&quot;newLined&quot;:true}">Player</tspan></text><image width="760" height="730" xlink:href="https://lct-designs.s3.us-west-1.amazonaws.com/assets/libs/panthers-purple-1-1651218506076.png" class="asset" transform="matrix(0.05283655598759652,0,0,0.05283655598759652,374.69784161448484,217.08787536621097)"></image><text fill="#ffffff" font-family="Roboto Condensed" font-size="45" stroke-opacity="1" stroke-width="2" stroke="#000000" x="193.48574108318186" y="199.459545006756" transform="matrix(0.385434776544571,0,0,0.3854347765445709,356.6303062140942,195.99394226074222)" svgjs:data="{&quot;leading&quot;:&quot;1.3&quot;}"><tspan dy="0" x="193.48574108318186" svgjs:data="{&quot;newLined&quot;:true}">Player</tspan></text><image width="760" height="730" xlink:href="https://lct-designs.s3.us-west-1.amazonaws.com/assets/libs/panthers-purple-1-1651218506076.png" class="asset" transform="matrix(0.05283655598759652,0,0,0.05283655598759652,431.2786216437818,218.0789642333984)"></image><text fill="#ffffff" font-family="Roboto Condensed" font-size="45" stroke-opacity="1" stroke-width="2" stroke="#000000" x="68.48563427165843" y="199.459545006756" transform="matrix(0.34524801373481756,0,0,0.33039918541908264,342.1654357910157,224.23295593261722)" svgjs:data="{&quot;leading&quot;:&quot;1.3&quot;}"><tspan dy="0" x="68.48563427165843" svgjs:data="{&quot;newLined&quot;:true}">Coach:Coach's name</tspan></text><text fill="#ffffff" font-family="Roboto Condensed" font-size="45" stroke-opacity="1" stroke-width="2" stroke="#000000" x="90.99401134685374" y="199.459545006756" transform="matrix(0.33038723468780523,0,0,0.33038723468780523,-20.3378963470459,224.14729309082028)" svgjs:data="{&quot;leading&quot;:&quot;1.3&quot;}"><tspan dy="0" x="90.99401134685374" svgjs:data="{&quot;newLined&quot;:true}">Team mom: name</tspan></text><g class="mask" style="pointer-events: none;"><g><path fill="#BCBEC0" d="M-3642.4-2101.7v4589.1h7813.4v-4589.1H-3642.4z M500.5,67.2v233.3v66.7H0.5v-66.7V67.2V0.5h500V67.2z" transform="matrix(1,0,0,1,0,0)"></path><g transform="matrix(1,0,0,1,0,0)">
	<rect x="0.5" y="300.5" opacity="0.95" fill="#F1F2F2" width="500" height="66.7"></rect>
	<rect x="0.5" y="0.5" opacity="0.95" fill="#F1F2F2" width="500" height="66.7"></rect>
</g></g></g></svg>