<svg xmlns="http://www.w3.org/2000/svg" version="1.1" xmlns:xlink="http://www.w3.org/1999/xlink" xmlns:svgjs="http://svgjs.dev/svgjs" width="100%" height="100%" viewBox="1 1 499 365.70001220703125" preserveAspectRatio="none" data-info="{&quot;_id&quot;:4,&quot;name&quot;:&quot;POLE POCKET SOCCER BANNERS&quot;,&quot;information&quot;:&quot;- Size: 3’x5’\n- Material: heavy duty vinyl banner\n- Digitally printed on vinyl&quot;,&quot;price&quot;:&quot;95.00&quot;,&quot;sale_price&quot;:&quot;89.99&quot;,&quot;type&quot;:&quot;pole-pocket&quot;,&quot;cover&quot;:{&quot;key&quot;:&quot;assets/models/pole-1628062864266-1631924568908.png&quot;,&quot;url&quot;:&quot;https://lct-designs.s3.us-west-1.amazonaws.com/assets/models/pole-1628062864266-1631924568908.png&quot;},&quot;back&quot;:{&quot;key&quot;:&quot;assets/models/pole-1631924700152.svg&quot;,&quot;url&quot;:&quot;https://lct-designs.s3.us-west-1.amazonaws.com/assets/models/pole-1631924700152.svg&quot;},&quot;mask&quot;:{&quot;key&quot;:&quot;assets/models/pole-mask-1631925211715.svg&quot;,&quot;url&quot;:&quot;https://lct-designs.s3.us-west-1.amazonaws.com/assets/models/pole-mask-1631925211715.svg&quot;},&quot;pos&quot;:&quot;2&quot;,&quot;accessories&quot;:&quot;2,3&quot;}" style="background-color: white;"><g class="model" style="pointer-events: none;"><polygon fill="#FFFFFF" points="0.5,0.5 0.5,67.2 0.5,300.5 0.5,367.2 500.5,367.2 500.5,300.5 500.5,67.2 500.5,0.5 "></polygon></g><image width="760" height="553" xlink:href="https://lct-designs.s3.us-west-1.amazonaws.com/assets/libs/kaos-2-1632218871477.png" class="asset background locked" transform="matrix(0.6631103294883024,0,0,0.6631103294883024,0,0)"></image><text fill="#e04e25" font-family="Skaters" font-size="50" stroke-opacity="1" stroke-width="1" stroke="#ffffff" x="-98.72634249947717" y="199.47500657859518" transform="matrix(0.24176552891731262,0,0,0.24176552891731265,34.13753128051757,245.66024780273443)" svgjs:data="{&quot;leading&quot;:&quot;1.3&quot;}"><tspan dy="0" x="-98.72634249947717" svgjs:data="{&quot;newLined&quot;:true}">COACH: COACH'S NAME</tspan></text><text fill="#e04e25" font-family="Skaters" font-size="50" stroke-opacity="1" stroke-width="1" stroke="#ffffff" x="-98.72634249947717" y="199.47500657859518" transform="matrix(0.24176552891731262,0,0,0.24176552891731265,370.2474060058594,245.66023254394537)" svgjs:data="{&quot;leading&quot;:&quot;1.3&quot;}"><tspan dy="0" x="-98.72634249947717" svgjs:data="{&quot;newLined&quot;:true}">TEAM MOM: TEAM MOM'S NAME</tspan></text><text fill="#e04e25" font-family="Skaters" font-size="50" stroke-opacity="1" stroke-width="1" stroke="#ffffff" x="-98.72634249947717" y="199.47500657859518" transform="matrix(0.32039265541112627,0,0,0.3203926554111263,70.94036578257692,84.16044777027308)" svgjs:data="{&quot;leading&quot;:&quot;1.3&quot;}"><tspan dy="0" x="-98.72634249947717" svgjs:data="{&quot;newLined&quot;:true}">PLAYER</tspan><tspan dy="65" x="-98.72634249947717" svgjs:data="{&quot;newLined&quot;:true}"></tspan></text><image width="410" height="760" xlink:href="https://lct-designs.s3.us-west-1.amazonaws.com/assets/libs/kaos-1-1632219211772.png" class="asset" transform="matrix(0.055341739874346096,0,0,0.0553417398743461,52.825285783053005,90.33924075693541)"></image><text fill="#e04e25" font-family="Skaters" font-size="50" stroke-opacity="1" stroke-width="1" stroke="#ffffff" x="-98.72634249947717" y="199.47500657859518" transform="matrix(0.32039311254578706,0,0,0.3203931125457871,447.5061104763736,84.16044777027308)" svgjs:data="{&quot;leading&quot;:&quot;1.3&quot;}"><tspan dy="0" x="-98.72634249947717" svgjs:data="{&quot;newLined&quot;:true}">PLAYER</tspan><tspan dy="65" x="-98.72634249947717" svgjs:data="{&quot;newLined&quot;:true}"></tspan></text><image width="410" height="760" xlink:href="https://lct-designs.s3.us-west-1.amazonaws.com/assets/libs/kaos-1-1632219211772.png" class="asset" transform="matrix(0.055341797016178695,0,0,0.0553417970161787,429.3910268197724,90.33924075693541)"></image><text fill="#e04e25" font-family="Skaters" font-size="50" stroke-opacity="1" stroke-width="1" stroke="#ffffff" x="-98.72634249947717" y="199.47500657859518" transform="matrix(0.32039316968761966,0,0,0.3203931696876197,66.92010415093682,170.23556182872562)" svgjs:data="{&quot;leading&quot;:&quot;1.3&quot;}"><tspan dy="0" x="-98.72634249947717" svgjs:data="{&quot;newLined&quot;:true}">PLAYER</tspan><tspan dy="65" x="-98.72634249947717" svgjs:data="{&quot;newLined&quot;:true}"></tspan></text><image width="410" height="760" xlink:href="https://lct-designs.s3.us-west-1.amazonaws.com/assets/libs/kaos-1-1632219211772.png" class="asset" transform="matrix(0.05534183630118861,0,0,0.055341836301188614,48.80502049433562,176.41435481538792)"></image><text fill="#e04e25" font-family="Skaters" font-size="50" stroke-opacity="1" stroke-width="1" stroke="#ffffff" x="-98.72634249947717" y="199.47500657859518" transform="matrix(0.32039316968761966,0,0,0.3203931696876197,196.08431442881192,168.68930566713607)" svgjs:data="{&quot;leading&quot;:&quot;1.3&quot;}"><tspan dy="0" x="-98.72634249947717" svgjs:data="{&quot;newLined&quot;:true}">PLAYER</tspan><tspan dy="65" x="-98.72634249947717" svgjs:data="{&quot;newLined&quot;:true}"></tspan></text><image width="410" height="760" xlink:href="https://lct-designs.s3.us-west-1.amazonaws.com/assets/libs/kaos-1-1632219211772.png" class="asset" transform="matrix(0.05534186130074037,0,0,0.055341861300740376,177.96923077221072,174.86809865379837)"></image><text fill="#e04e25" font-family="Skaters" font-size="50" stroke-opacity="1" stroke-width="1" stroke="#ffffff" x="-98.72634249947717" y="199.47500657859518" transform="matrix(0.32039316968761966,0,0,0.3203931696876197,322.362154515984,168.17387719440012)" svgjs:data="{&quot;leading&quot;:&quot;1.3&quot;}"><tspan dy="0" x="-98.72634249947717" svgjs:data="{&quot;newLined&quot;:true}">PLAYER</tspan><tspan dy="65" x="-98.72634249947717" svgjs:data="{&quot;newLined&quot;:true}"></tspan></text><image width="410" height="760" xlink:href="https://lct-designs.s3.us-west-1.amazonaws.com/assets/libs/kaos-1-1632219211772.png" class="asset" transform="matrix(0.055341854158011294,0,0,0.055341854158011294,304.24707085938286,174.35267018106242)"></image><text fill="#e04e25" font-family="Skaters" font-size="50" stroke-opacity="1" stroke-width="1" stroke="#ffffff" x="-98.72634249947717" y="199.47500657859518" transform="matrix(0.32039316968761966,0,0,0.3203931696876197,451.52637942216825,166.62762103281057)" svgjs:data="{&quot;leading&quot;:&quot;1.3&quot;}"><tspan dy="0" x="-98.72634249947717" svgjs:data="{&quot;newLined&quot;:true}">PLAYER</tspan><tspan dy="65" x="-98.72634249947717" svgjs:data="{&quot;newLined&quot;:true}"></tspan></text><image width="410" height="760" xlink:href="https://lct-designs.s3.us-west-1.amazonaws.com/assets/libs/kaos-1-1632219211772.png" class="asset" transform="matrix(0.055341868443469444,0,0,0.05534186844346945,433.41129576556705,172.80641401947287)"></image><text fill="#e04e25" font-family="Skaters" font-size="50" stroke-opacity="1" stroke-width="1" stroke="#ffffff" x="-98.72634249947717" y="199.47500657859518" transform="matrix(0.32039316968761966,0,0,0.3203931696876197,382.46010508366453,204.76868436966834)" svgjs:data="{&quot;leading&quot;:&quot;1.3&quot;}"><tspan dy="0" x="-98.72634249947717" svgjs:data="{&quot;newLined&quot;:true}">PLAYER</tspan><tspan dy="65" x="-98.72634249947717" svgjs:data="{&quot;newLined&quot;:true}"></tspan></text><image width="410" height="760" xlink:href="https://lct-designs.s3.us-west-1.amazonaws.com/assets/libs/kaos-1-1632219211772.png" class="asset" transform="matrix(0.055341854158011294,0,0,0.055341854158011294,364.34502142706333,210.9474773563307)"></image><text fill="#e04e25" font-family="Skaters" font-size="50" stroke-opacity="1" stroke-width="1" stroke="#ffffff" x="-98.72634249947717" y="199.47500657859518" transform="matrix(0.32039316968761966,0,0,0.3203931696876197,256.1822649964924,205.28411284240428)" svgjs:data="{&quot;leading&quot;:&quot;1.3&quot;}"><tspan dy="0" x="-98.72634249947717" svgjs:data="{&quot;newLined&quot;:true}">PLAYER</tspan><tspan dy="65" x="-98.72634249947717" svgjs:data="{&quot;newLined&quot;:true}"></tspan></text><image width="410" height="760" xlink:href="https://lct-designs.s3.us-west-1.amazonaws.com/assets/libs/kaos-1-1632219211772.png" class="asset" transform="matrix(0.05534186130074037,0,0,0.055341861300740376,238.06718133989125,211.46290582906664)"></image><text fill="#e04e25" font-family="Skaters" font-size="50" stroke-opacity="1" stroke-width="1" stroke="#ffffff" x="-98.72634249947717" y="199.47500657859518" transform="matrix(0.32039316968761966,0,0,0.3203931696876197,127.01805471861735,206.8303690039939)" svgjs:data="{&quot;leading&quot;:&quot;1.3&quot;}"><tspan dy="0" x="-98.72634249947717" svgjs:data="{&quot;newLined&quot;:true}">PLAYER</tspan><tspan dy="65" x="-98.72634249947717" svgjs:data="{&quot;newLined&quot;:true}"></tspan></text><image width="410" height="760" xlink:href="https://lct-designs.s3.us-west-1.amazonaws.com/assets/libs/kaos-1-1632219211772.png" class="asset" transform="matrix(0.05534183630118861,0,0,0.055341836301188614,108.90297106201615,213.0091619906562)"></image><image width="760" height="268" xlink:href="https://lct-designs.s3.us-west-1.amazonaws.com/assets/libs/kaos-3-1632219163035.png" class="asset" transform="matrix(0.3522416353225708,0,0,0.3522416353225708,116.64640808105469,78.04573059082033)"></image><g class="mask" style="pointer-events: none;"><g><path fill="#BCBEC0" d="M-3642.4-2101.7v4589.1h7813.4v-4589.1H-3642.4z M500.5,67.2v233.3v66.7H0.5v-66.7V67.2V0.5h500V67.2z" transform="matrix(1,0,0,1,0,0)"></path><g transform="matrix(1,0,0,1,0,0)">
	<rect x="0.5" y="300.5" opacity="0.95" fill="#F1F2F2" width="500" height="66.7"></rect>
	<rect x="0.5" y="0.5" opacity="0.95" fill="#F1F2F2" width="500" height="66.7"></rect>
</g></g></g></svg>