<svg xmlns="http://www.w3.org/2000/svg" version="1.1" xmlns:xlink="http://www.w3.org/1999/xlink" xmlns:svgjs="http://svgjs.dev/svgjs" width="100%" height="100%" viewBox="1 1 499 365.70001220703125" preserveAspectRatio="none" data-info="{&quot;_id&quot;:4,&quot;name&quot;:&quot;POLE POCKET SOCCER BANNERS&quot;,&quot;information&quot;:&quot;- Size: 3’x5’\n- Material: heavy duty vinyl banner\n- Digitally printed on vinyl&quot;,&quot;price&quot;:&quot;95.00&quot;,&quot;sale_price&quot;:&quot;89.99&quot;,&quot;type&quot;:&quot;pole-pocket&quot;,&quot;cover&quot;:{&quot;key&quot;:&quot;assets/models/pole-1628062864266-1631924568908.png&quot;,&quot;url&quot;:&quot;https://lct-designs.s3.us-west-1.amazonaws.com/assets/models/pole-1628062864266-1631924568908.png&quot;},&quot;back&quot;:{&quot;key&quot;:&quot;assets/models/pole-1631924700152.svg&quot;,&quot;url&quot;:&quot;https://lct-designs.s3.us-west-1.amazonaws.com/assets/models/pole-1631924700152.svg&quot;},&quot;mask&quot;:{&quot;key&quot;:&quot;assets/models/pole-mask-1631925211715.svg&quot;,&quot;url&quot;:&quot;https://lct-designs.s3.us-west-1.amazonaws.com/assets/models/pole-mask-1631925211715.svg&quot;},&quot;pos&quot;:&quot;2&quot;,&quot;accessories&quot;:&quot;2,3&quot;}" style="background-color: white;"><g class="model" style="pointer-events: none;"><polygon fill="#FFFFFF" points="0.5,0.5 0.5,67.2 0.5,300.5 0.5,367.2 500.5,367.2 500.5,300.5 500.5,67.2 500.5,0.5 "></polygon></g><image width="760" height="553" xlink:href="https://lct-designs.s3.us-west-1.amazonaws.com/assets/libs/meanmachine-1632218871479.png" class="asset background locked" transform="matrix(0.6631103294883024,0,0,0.6631103294883024,0,0)"></image><text fill="#000000" font-family="Chunky Funks" font-size="50" stroke-opacity="1" stroke-width="2" stroke="#ffffff" x="-98.72634249947717" y="199.47500657859518" transform="matrix(0.21533367037773132,0,0,0.21533367037773135,34.0791130065918,39.4398078918457)" svgjs:data="{&quot;leading&quot;:&quot;1.3&quot;}"><tspan dy="0" x="-98.72634249947717" svgjs:data="{&quot;newLined&quot;:true}">COACH: COACH'S NAME</tspan></text><text fill="#000000" font-family="Chunky Funks" font-size="50" stroke-opacity="1" stroke-width="2" stroke="#ffffff" x="-98.72634249947717" y="199.47500657859518" transform="matrix(0.21533367037773132,0,0,0.21533367037773135,344.7204895019531,39.439815521240234)" svgjs:data="{&quot;leading&quot;:&quot;1.3&quot;}"><tspan dy="0" x="-98.72634249947717" svgjs:data="{&quot;newLined&quot;:true}">TEAM MOM: TEAM MOM'S NAME</tspan></text><text fill="#000000" font-family="Chunky Funks" font-size="50" stroke-opacity="1" stroke-width="3" stroke="#ffffff" x="-98.72634249947717" y="199.47500657859518" transform="matrix(0.31976261734962463,0,0,0.31976261734962463,452.109375,83.35166931152342)" svgjs:data="{&quot;leading&quot;:&quot;1.3&quot;}"><tspan dy="0" x="-98.72634249947717" svgjs:data="{&quot;newLined&quot;:true}">PLAYER</tspan><tspan dy="65" x="-98.72634249947717" svgjs:data="{&quot;newLined&quot;:true}"></tspan></text><image width="760" height="438" xlink:href="https://lct-designs.s3.us-west-1.amazonaws.com/assets/libs/asset-2-1654488942775.png" class="asset" transform="matrix(0.07964569330215454,0,0,0.07964569330215454,420.815185546875,97.00733947753905)"></image><text fill="#000000" font-family="Chunky Funks" font-size="50" stroke-opacity="1" stroke-width="3" stroke="#ffffff" x="-98.72634249947717" y="199.47500657859518" transform="matrix(0.31976258754730225,0,0,0.31976258754730225,362.109375,83.35166931152342)" svgjs:data="{&quot;leading&quot;:&quot;1.3&quot;}"><tspan dy="0" x="-98.72634249947717" svgjs:data="{&quot;newLined&quot;:true}">PLAYER</tspan><tspan dy="65" x="-98.72634249947717" svgjs:data="{&quot;newLined&quot;:true}"></tspan></text><image width="760" height="438" xlink:href="https://lct-designs.s3.us-west-1.amazonaws.com/assets/libs/asset-2-1654488942775.png" class="asset" transform="matrix(0.0796457827091217,0,0,0.07964578270912172,330.815185546875,97.00733947753905)"></image><text fill="#000000" font-family="Chunky Funks" font-size="50" stroke-opacity="1" stroke-width="3" stroke="#ffffff" x="-98.72634249947717" y="199.47500657859518" transform="matrix(0.31976258754730225,0,0,0.31976258754730225,272.324462890625,82.27639770507811)" svgjs:data="{&quot;leading&quot;:&quot;1.3&quot;}"><tspan dy="0" x="-98.72634249947717" svgjs:data="{&quot;newLined&quot;:true}">PLAYER</tspan><tspan dy="65" x="-98.72634249947717" svgjs:data="{&quot;newLined&quot;:true}"></tspan></text><image width="760" height="438" xlink:href="https://lct-designs.s3.us-west-1.amazonaws.com/assets/libs/asset-2-1654488942775.png" class="asset" transform="matrix(0.0796457827091217,0,0,0.07964578270912172,241.0302734375,95.93206787109374)"></image><text fill="#000000" font-family="Chunky Funks" font-size="50" stroke-opacity="1" stroke-width="3" stroke="#ffffff" x="-98.72634249947717" y="199.47500657859518" transform="matrix(0.31976258754730225,0,0,0.31976258754730225,182.324462890625,82.27639770507811)" svgjs:data="{&quot;leading&quot;:&quot;1.3&quot;}"><tspan dy="0" x="-98.72634249947717" svgjs:data="{&quot;newLined&quot;:true}">PLAYER</tspan><tspan dy="65" x="-98.72634249947717" svgjs:data="{&quot;newLined&quot;:true}"></tspan></text><image width="760" height="438" xlink:href="https://lct-designs.s3.us-west-1.amazonaws.com/assets/libs/asset-2-1654488942775.png" class="asset" transform="matrix(0.07964584976434708,0,0,0.07964584976434709,151.0302734375,95.93206787109374)"></image><text fill="#000000" font-family="Chunky Funks" font-size="50" stroke-opacity="1" stroke-width="3" stroke="#ffffff" x="-98.72634249947717" y="199.47500657859518" transform="matrix(0.31976258754730225,0,0,0.31976258754730225,362.109375,153.244140625)" svgjs:data="{&quot;leading&quot;:&quot;1.3&quot;}"><tspan dy="0" x="-98.72634249947717" svgjs:data="{&quot;newLined&quot;:true}">PLAYER</tspan><tspan dy="65" x="-98.72634249947717" svgjs:data="{&quot;newLined&quot;:true}"></tspan></text><image width="760" height="438" xlink:href="https://lct-designs.s3.us-west-1.amazonaws.com/assets/libs/asset-2-1654488942775.png" class="asset" transform="matrix(0.07964575290679932,0,0,0.07964575290679933,330.81524658203125,166.89981079101562)"></image><text fill="#000000" font-family="Chunky Funks" font-size="50" stroke-opacity="1" stroke-width="3" stroke="#ffffff" x="-98.72634249947717" y="199.47500657859518" transform="matrix(0.31976258754730225,0,0,0.31976258754730225,362.10934448242193,224.21188354492188)" svgjs:data="{&quot;leading&quot;:&quot;1.3&quot;}"><tspan dy="0" x="-98.72634249947717" svgjs:data="{&quot;newLined&quot;:true}">PLAYER</tspan><tspan dy="65" x="-98.72634249947717" svgjs:data="{&quot;newLined&quot;:true}"></tspan></text><image width="760" height="438" xlink:href="https://lct-designs.s3.us-west-1.amazonaws.com/assets/libs/asset-2-1654488942775.png" class="asset" transform="matrix(0.0796457827091217,0,0,0.07964578270912172,330.815185546875,237.8675537109375)"></image><text fill="#000000" font-family="Chunky Funks" font-size="50" stroke-opacity="1" stroke-width="3" stroke="#ffffff" x="-98.72634249947717" y="199.47500657859518" transform="matrix(0.31976261734962463,0,0,0.31976261734962463,452.109375,153.244140625)" svgjs:data="{&quot;leading&quot;:&quot;1.3&quot;}"><tspan dy="0" x="-98.72634249947717" svgjs:data="{&quot;newLined&quot;:true}">PLAYER</tspan><tspan dy="65" x="-98.72634249947717" svgjs:data="{&quot;newLined&quot;:true}"></tspan></text><image width="760" height="438" xlink:href="https://lct-designs.s3.us-west-1.amazonaws.com/assets/libs/asset-2-1654488942775.png" class="asset" transform="matrix(0.07964566349983215,0,0,0.07964566349983217,420.81524658203125,166.89981079101562)"></image><text fill="#000000" font-family="Chunky Funks" font-size="50" stroke-opacity="1" stroke-width="3" stroke="#ffffff" x="-98.72634249947717" y="199.47500657859518" transform="matrix(0.31976258754730225,0,0,0.31976258754730225,452.1093444824219,224.21188354492188)" svgjs:data="{&quot;leading&quot;:&quot;1.3&quot;}"><tspan dy="0" x="-98.72634249947717" svgjs:data="{&quot;newLined&quot;:true}">PLAYER</tspan><tspan dy="65" x="-98.72634249947717" svgjs:data="{&quot;newLined&quot;:true}"></tspan></text><image width="760" height="438" xlink:href="https://lct-designs.s3.us-west-1.amazonaws.com/assets/libs/asset-2-1654488942775.png" class="asset" transform="matrix(0.07964569330215454,0,0,0.07964569330215454,420.815185546875,237.8675537109375)"></image><image width="760" height="266" xlink:href="https://lct-designs.s3.us-west-1.amazonaws.com/assets/libs/meanmachine-2-1632219163036.png" class="asset" transform="matrix(0.385245531797409,0,0,0.38524553179740906,10.752676963806152,195.14520263671875)"></image><image width="760" height="518" xlink:href="https://lct-designs.s3.us-west-1.amazonaws.com/assets/libs/meanmachine-1-1632219131692.png" class="asset" transform="matrix(0.14291666448116302,0,0,0.14291666448116305,163.2445831298828,160.0237274169922)"></image><text fill="#000000" font-family="Chunky Funks" font-size="50" stroke-opacity="1" stroke-width="3" stroke="#ffffff" x="-98.72634249947717" y="199.47500657859518" transform="matrix(0.31976258754730225,0,0,0.31976258754730225,83.18466949462889,104.85704040527345)" svgjs:data="{&quot;leading&quot;:&quot;1.3&quot;}"><tspan dy="0" x="-98.72634249947717" svgjs:data="{&quot;newLined&quot;:true}">PLAYER</tspan><tspan dy="65" x="-98.72634249947717" svgjs:data="{&quot;newLined&quot;:true}"></tspan></text><image width="760" height="438" xlink:href="https://lct-designs.s3.us-west-1.amazonaws.com/assets/libs/asset-2-1654488942775.png" class="asset" transform="matrix(0.07964587211608887,0,0,0.07964587211608887,51.890480041503906,118.51271057128908)"></image><g class="mask" style="pointer-events: none;"><g><path fill="#BCBEC0" d="M-3642.4-2101.7v4589.1h7813.4v-4589.1H-3642.4z M500.5,67.2v233.3v66.7H0.5v-66.7V67.2V0.5h500V67.2z" transform="matrix(1,0,0,1,0,0)"></path><g transform="matrix(1,0,0,1,0,0)">
	<rect x="0.5" y="300.5" opacity="0.95" fill="#F1F2F2" width="500" height="66.7"></rect>
	<rect x="0.5" y="0.5" opacity="0.95" fill="#F1F2F2" width="500" height="66.7"></rect>
</g></g></g></svg>