<svg xmlns="http://www.w3.org/2000/svg" version="1.1" xmlns:xlink="http://www.w3.org/1999/xlink" xmlns:svgjs="http://svgjs.dev/svgjs" width="100%" height="100%" viewBox="1 1 499 365.70001220703125" preserveAspectRatio="none" data-info="{&quot;_id&quot;:4,&quot;name&quot;:&quot;POLE POCKET SOCCER BANNERS&quot;,&quot;information&quot;:&quot;- Size: 3’x5’\n- Material: heavy duty vinyl banner\n- Digitally printed on vinyl&quot;,&quot;price&quot;:&quot;95.00&quot;,&quot;sale_price&quot;:&quot;89.99&quot;,&quot;type&quot;:&quot;pole-pocket&quot;,&quot;cover&quot;:{&quot;key&quot;:&quot;assets/models/pole-1628062864266-1631924568908.png&quot;,&quot;url&quot;:&quot;https://lct-designs.s3.us-west-1.amazonaws.com/assets/models/pole-1628062864266-1631924568908.png&quot;},&quot;back&quot;:{&quot;key&quot;:&quot;assets/models/pole-1631924700152.svg&quot;,&quot;url&quot;:&quot;https://lct-designs.s3.us-west-1.amazonaws.com/assets/models/pole-1631924700152.svg&quot;},&quot;mask&quot;:{&quot;key&quot;:&quot;assets/models/pole-mask-1631925211715.svg&quot;,&quot;url&quot;:&quot;https://lct-designs.s3.us-west-1.amazonaws.com/assets/models/pole-mask-1631925211715.svg&quot;},&quot;pos&quot;:&quot;2&quot;,&quot;accessories&quot;:&quot;2,3&quot;}" style="background-color: white;"><g class="model" style="pointer-events: none;"><polygon fill="#FFFFFF" points="0.5,0.5 0.5,67.2 0.5,300.5 0.5,367.2 500.5,367.2 500.5,300.5 500.5,67.2 500.5,0.5 "></polygon></g><image width="760" height="556" xlink:href="https://lct-designs.s3.us-west-1.amazonaws.com/assets/libs/bulls-2__soccer-pole-grommet-1646731888414.png" class="asset background locked" transform="matrix(0.6595323960558116,0,0,0.6595323960558116,0,0)"></image><text fill="#ffffff" font-family="Chunky Funks" font-size="42" x="196.88127233350318" y="200.48091056834267" stroke-opacity="1" stroke-width="2" stroke="#000000" transform="matrix(0.29177808761596685,0,0,0.2917780876159668,301.7444091141224,219.1759490966797)" svgjs:data="{&quot;leading&quot;:&quot;1.3&quot;}"><tspan dy="0" x="196.88127233350318" svgjs:data="{&quot;newLined&quot;:true}">COACH: COACH'S NAME</tspan></text><text fill="#ffffff" font-family="Chunky Funks" font-size="42" x="196.88127233350318" y="200.48091056834267" stroke-opacity="1" stroke-width="2" stroke="#000000" transform="matrix(0.29177808761596685,0,0,0.2917780876159668,251.3943367004395,232.3579864501953)" svgjs:data="{&quot;leading&quot;:&quot;1.3&quot;}"><tspan dy="0" x="196.88127233350318" svgjs:data="{&quot;newLined&quot;:true}">TEAM MOM: TEAM MOM'S NAME</tspan><tspan dy="54.6" x="196.88127233350318" svgjs:data="{&quot;newLined&quot;:true}"></tspan></text><text fill="#ffffff" font-family="Chunky Funks" font-size="60" x="196.88127233350318" y="200.48091056834267" stroke-opacity="1" stroke-width="3" stroke="#000000" transform="matrix(0.2590554609666001,0,0,0.2544863024201689,-36.996087504132454,90.19229184355937)" svgjs:data="{&quot;leading&quot;:&quot;1.3&quot;}"><tspan dy="0" x="196.88127233350318" svgjs:data="{&quot;newLined&quot;:true}">player</tspan></text><text fill="#ffffff" font-family="Chunky Funks" font-size="60" x="196.88127233350318" y="200.48091056834267" stroke-opacity="1" stroke-width="3" stroke="#000000" transform="matrix(0.2590554609666001,0,0,0.2544863024201689,51.695850068070285,90.19230778425843)" svgjs:data="{&quot;leading&quot;:&quot;1.3&quot;}"><tspan dy="0" x="196.88127233350318" svgjs:data="{&quot;newLined&quot;:true}">player</tspan></text><text fill="#ffffff" font-family="Chunky Funks" font-size="60" x="196.88127233350318" y="200.48091056834267" stroke-opacity="1" stroke-width="3" stroke="#000000" transform="matrix(0.2590554609666001,0,0,0.2544863024201689,144.76951121260208,90.19230778425843)" svgjs:data="{&quot;leading&quot;:&quot;1.3&quot;}"><tspan dy="0" x="196.88127233350318" svgjs:data="{&quot;newLined&quot;:true}">player</tspan></text><image width="734" height="760" xlink:href="https://lct-designs.s3.us-west-1.amazonaws.com/assets/libs/devastators-soccer-banner-4-1647420047838.png" class="asset" transform="matrix(0.062350795216231,0,0,0.061251108810310484,109.44423658783491,78.8243337269778)"></image><image width="734" height="760" xlink:href="https://lct-designs.s3.us-west-1.amazonaws.com/assets/libs/devastators-soccer-banner-4-1647420047838.png" class="asset" transform="matrix(0.062350795216231,0,0,0.061251120485627204,202.5178977323667,78.82434169732734)"></image><text fill="#ffffff" font-family="Chunky Funks" font-size="60" x="196.88127233350318" y="200.48091056834267" stroke-opacity="1" stroke-width="3" stroke="#000000" transform="matrix(0.2590554609666001,0,0,0.2544863024201689,-10.274215405199364,159.67390962911304)" svgjs:data="{&quot;leading&quot;:&quot;1.3&quot;}"><tspan dy="0" x="196.88127233350318" svgjs:data="{&quot;newLined&quot;:true}">player</tspan></text><text fill="#ffffff" font-family="Chunky Funks" font-size="60" x="196.88127233350318" y="200.48091056834267" stroke-opacity="1" stroke-width="3" stroke="#000000" transform="matrix(0.2590554609666001,0,0,0.2544863024201689,78.41772216700336,159.67390962911304)" svgjs:data="{&quot;leading&quot;:&quot;1.3&quot;}"><tspan dy="0" x="196.88127233350318" svgjs:data="{&quot;newLined&quot;:true}">player</tspan></text><text fill="#ffffff" font-family="Chunky Funks" font-size="60" x="196.88127233350318" y="200.48091056834267" stroke-opacity="1" stroke-width="3" stroke="#000000" transform="matrix(0.2590554609666001,0,0,0.2544863024201689,171.49138331153517,159.67390962911304)" svgjs:data="{&quot;leading&quot;:&quot;1.3&quot;}"><tspan dy="0" x="196.88127233350318" svgjs:data="{&quot;newLined&quot;:true}">player</tspan></text><image width="734" height="760" xlink:href="https://lct-designs.s3.us-west-1.amazonaws.com/assets/libs/devastators-soccer-banner-4-1647420047838.png" class="asset" transform="matrix(0.062350795216231,0,0,0.061251120485627204,47.47417509974002,148.30592760148284)"></image><image width="734" height="760" xlink:href="https://lct-designs.s3.us-west-1.amazonaws.com/assets/libs/devastators-soccer-banner-4-1647420047838.png" class="asset" transform="matrix(0.062350795216231,0,0,0.06125112826917167,136.16610868676798,148.30592760148284)"></image><image width="734" height="760" xlink:href="https://lct-designs.s3.us-west-1.amazonaws.com/assets/libs/devastators-soccer-banner-4-1647420047838.png" class="asset" transform="matrix(0.062350795216231,0,0,0.06125113994448839,229.23976983129978,148.305959482881)"></image><text fill="#ffffff" font-family="Chunky Funks" font-size="60" x="196.88127233350318" y="200.48091056834267" stroke-opacity="1" stroke-width="3" stroke="#000000" transform="matrix(0.2590554609666001,0,0,0.2544863024201689,-36.75897757557688,235.41510519108124)" svgjs:data="{&quot;leading&quot;:&quot;1.3&quot;}"><tspan dy="0" x="196.88127233350318" svgjs:data="{&quot;newLined&quot;:true}">player</tspan></text><text fill="#ffffff" font-family="Chunky Funks" font-size="60" x="196.88127233350318" y="200.48091056834267" stroke-opacity="1" stroke-width="3" stroke="#000000" transform="matrix(0.2590554609666001,0,0,0.2544863024201689,51.93295999662587,235.41510519108124)" svgjs:data="{&quot;leading&quot;:&quot;1.3&quot;}"><tspan dy="0" x="196.88127233350318" svgjs:data="{&quot;newLined&quot;:true}">player</tspan></text><text fill="#ffffff" font-family="Chunky Funks" font-size="60" x="196.88127233350318" y="200.48091056834267" stroke-opacity="1" stroke-width="3" stroke="#000000" transform="matrix(0.2590554609666001,0,0,0.2544863024201689,145.0066291115072,235.41510519108124)" svgjs:data="{&quot;leading&quot;:&quot;1.3&quot;}"><tspan dy="0" x="196.88127233350318" svgjs:data="{&quot;newLined&quot;:true}">player</tspan></text><image width="734" height="760" xlink:href="https://lct-designs.s3.us-west-1.amazonaws.com/assets/libs/devastators-soccer-banner-4-1647420047838.png" class="asset" transform="matrix(0.062350795216231,0,0,0.0612511516198051,109.68134651639049,224.0471231634511)"></image><image width="734" height="760" xlink:href="https://lct-designs.s3.us-west-1.amazonaws.com/assets/libs/devastators-soccer-banner-4-1647420047838.png" class="asset" transform="matrix(0.062350795216231,0,0,0.06125115940334958,202.75499969057273,224.04713910415018)"></image><image width="734" height="760" xlink:href="https://lct-designs.s3.us-west-1.amazonaws.com/assets/libs/devastators-soccer-banner-4-1647420047838.png" class="asset" transform="matrix(0.062350795216231,0,0,0.06125116329512181,20.989412929362516,224.0471231634511)"></image><image width="734" height="760" xlink:href="https://lct-designs.s3.us-west-1.amazonaws.com/assets/libs/devastators-soccer-banner-4-1647420047838.png" class="asset" transform="matrix(0.062350795216231,0,0,0.061251124377399435,20.752303000806933,78.8243337269778)"></image><image width="760" height="726" xlink:href="https://lct-designs.s3.us-west-1.amazonaws.com/assets/libs/bulls-2-1632996655954.png" class="asset" transform="matrix(0.23144142329692843,0,0,0.2314414232969284,281.6886596679688,85.85464477539061)"></image><g class="mask" style="pointer-events: none;"><g><path fill="#BCBEC0" d="M-3642.4-2101.7v4589.1h7813.4v-4589.1H-3642.4z M500.5,67.2v233.3v66.7H0.5v-66.7V67.2V0.5h500V67.2z" transform="matrix(1,0,0,1,0,0)"></path><g transform="matrix(1,0,0,1,0,0)">
	<rect x="0.5" y="300.5" opacity="0.95" fill="#F1F2F2" width="500" height="66.7"></rect>
	<rect x="0.5" y="0.5" opacity="0.95" fill="#F1F2F2" width="500" height="66.7"></rect>
</g></g></g></svg>