<svg xmlns="http://www.w3.org/2000/svg" version="1.1" xmlns:xlink="http://www.w3.org/1999/xlink" xmlns:svgjs="http://svgjs.dev/svgjs" width="100%" height="100%" viewBox="1 1 499 365.70001220703125" preserveAspectRatio="none" data-info="{&quot;_id&quot;:4,&quot;name&quot;:&quot;POLE POCKET SOCCER BANNERS&quot;,&quot;information&quot;:&quot;- Size: 3’x5’\n- Material: heavy duty vinyl banner\n- Digitally printed on vinyl&quot;,&quot;price&quot;:&quot;95.00&quot;,&quot;sale_price&quot;:&quot;89.99&quot;,&quot;type&quot;:&quot;pole-pocket&quot;,&quot;cover&quot;:{&quot;key&quot;:&quot;assets/models/pole-1628062864266-1631924568908.png&quot;,&quot;url&quot;:&quot;https://lct-designs.s3.us-west-1.amazonaws.com/assets/models/pole-1628062864266-1631924568908.png&quot;},&quot;back&quot;:{&quot;key&quot;:&quot;assets/models/pole-1631924700152.svg&quot;,&quot;url&quot;:&quot;https://lct-designs.s3.us-west-1.amazonaws.com/assets/models/pole-1631924700152.svg&quot;},&quot;mask&quot;:{&quot;key&quot;:&quot;assets/models/pole-mask-1631925211715.svg&quot;,&quot;url&quot;:&quot;https://lct-designs.s3.us-west-1.amazonaws.com/assets/models/pole-mask-1631925211715.svg&quot;},&quot;pos&quot;:&quot;2&quot;,&quot;accessories&quot;:&quot;2,3&quot;}" style="background-color: white;"><g class="model" style="pointer-events: none;"><polygon fill="#FFFFFF" points="0.5,0.5 0.5,67.2 0.5,300.5 0.5,367.2 500.5,367.2 500.5,300.5 500.5,67.2 500.5,0.5 "></polygon></g><image width="760" height="557" xlink:href="https://lct-designs.s3.us-west-1.amazonaws.com/assets/libs/asset-1-1654854907768.png" class="asset background locked" transform="matrix(0.6583483163501459,0,0,0.6583483163501459,0,0)"></image><image width="364" height="760" xlink:href="https://lct-designs.s3.us-west-1.amazonaws.com/assets/libs/redbird-1-1652176581969.png" class="asset" transform="matrix(0.23981401324272159,0,0,0.23981401324272156,394.0408935546876,99.65323638916016)"></image><image width="760" height="699" xlink:href="https://lct-designs.s3.us-west-1.amazonaws.com/assets/libs/redbird-3-1652176581970.png" class="asset" transform="matrix(-0.059073964619823734,0,0,0.05685572394799899,123.32287368079781,84.72590538633631)"></image><text fill="#ffffff" font-family="American Captain" font-size="45" stroke-opacity="1" stroke-width="2" stroke="#000000" x="196.88483852580882" y="200.20285593510073" transform="matrix(0.5917041820593597,0,0,0.5917041820593596,-97.01626563593891,-6.017942828822925)" svgjs:data="{&quot;leading&quot;:&quot;1.3&quot;}"><tspan dy="0" x="196.88483852580882" svgjs:data="{&quot;newLined&quot;:true}">Player</tspan></text><image width="760" height="699" xlink:href="https://lct-designs.s3.us-west-1.amazonaws.com/assets/libs/redbird-3-1652176581970.png" class="asset" transform="matrix(-0.059073964619823734,0,0,0.05685572394799899,146.35017959139446,125.56751928069937)"></image><text fill="#ffffff" font-family="American Captain" font-size="45" stroke-opacity="1" stroke-width="2" stroke="#000000" x="196.88483852580882" y="200.20285593510073" transform="matrix(0.5917041820593597,0,0,0.5917041820593596,-73.98895972534228,34.82367106554011)" svgjs:data="{&quot;leading&quot;:&quot;1.3&quot;}"><tspan dy="0" x="196.88483852580882" svgjs:data="{&quot;newLined&quot;:true}">Player</tspan></text><image width="760" height="699" xlink:href="https://lct-designs.s3.us-west-1.amazonaws.com/assets/libs/redbird-3-1652176581970.png" class="asset" transform="matrix(-0.059073964619823734,0,0,0.05685572394799899,143.22051421319338,176.0458983124154)"></image><text fill="#ffffff" font-family="American Captain" font-size="45" stroke-opacity="1" stroke-width="2" stroke="#000000" x="196.88483852580882" y="200.20285593510073" transform="matrix(0.5917041820593597,0,0,0.5917041820593596,-77.11862510354331,85.30205009725614)" svgjs:data="{&quot;leading&quot;:&quot;1.3&quot;}"><tspan dy="0" x="196.88483852580882" svgjs:data="{&quot;newLined&quot;:true}">Player</tspan></text><image width="760" height="699" xlink:href="https://lct-designs.s3.us-west-1.amazonaws.com/assets/libs/redbird-3-1652176581970.png" class="asset" transform="matrix(-0.059073964619823734,0,0,0.05685572394799899,255.10816044185782,168.70357347703978)"></image><text fill="#ffffff" font-family="American Captain" font-size="45" stroke-opacity="1" stroke-width="2" stroke="#000000" x="196.88483852580882" y="200.20285593510073" transform="matrix(0.5917041820593597,0,0,0.5917041820593596,34.7690211251211,77.95973232706638)" svgjs:data="{&quot;leading&quot;:&quot;1.3&quot;}"><tspan dy="0" x="196.88483852580882" svgjs:data="{&quot;newLined&quot;:true}">Player</tspan></text><image width="760" height="699" xlink:href="https://lct-designs.s3.us-west-1.amazonaws.com/assets/libs/redbird-3-1652176581970.png" class="asset" transform="matrix(-0.059073964619823734,0,0,0.05685572394799899,291.44339390749525,214.13413156203026)"></image><text fill="#ffffff" font-family="American Captain" font-size="45" stroke-opacity="1" stroke-width="2" stroke="#000000" x="196.88483852580882" y="200.20285593510073" transform="matrix(0.5917041820593597,0,0,0.5917041820593596,71.10425459075853,123.390283346871)" svgjs:data="{&quot;leading&quot;:&quot;1.3&quot;}"><tspan dy="0" x="196.88483852580882" svgjs:data="{&quot;newLined&quot;:true}">Player</tspan></text><image width="760" height="699" xlink:href="https://lct-designs.s3.us-west-1.amazonaws.com/assets/libs/redbird-3-1652176581970.png" class="asset" transform="matrix(-0.059073964619823734,0,0,0.05685572394799899,246.55436818792077,83.34921859655518)"></image><text fill="#ffffff" font-family="American Captain" font-size="45" stroke-opacity="1" stroke-width="2" stroke="#000000" x="196.88483852580882" y="200.20285593510073" transform="matrix(0.5917041820593597,0,0,0.5917041820593596,26.2152147408124,-7.394615488232375)" svgjs:data="{&quot;leading&quot;:&quot;1.3&quot;}"><tspan dy="0" x="196.88483852580882" svgjs:data="{&quot;newLined&quot;:true}">Player</tspan></text><image width="760" height="699" xlink:href="https://lct-designs.s3.us-west-1.amazonaws.com/assets/libs/redbird-3-1652176581970.png" class="asset" transform="matrix(-0.059073964619823734,0,0,0.05685572394799899,173.13124700751,217.3463889628765)"></image><text fill="#ffffff" font-family="American Captain" font-size="45" stroke-opacity="1" stroke-width="2" stroke="#000000" x="196.88483852580882" y="200.20285593510073" transform="matrix(0.5917041820593597,0,0,0.5917041820593596,-47.20789230922672,126.60254074771728)" svgjs:data="{&quot;leading&quot;:&quot;1.3&quot;}"><tspan dy="0" x="196.88483852580882" svgjs:data="{&quot;newLined&quot;:true}">Player</tspan></text><image width="760" height="699" xlink:href="https://lct-designs.s3.us-west-1.amazonaws.com/assets/libs/redbird-3-1652176581970.png" class="asset" transform="matrix(-0.059073964619823734,0,0,0.05685572394799899,265.2864084883259,125.56751928069937)"></image><text fill="#ffffff" font-family="American Captain" font-size="45" stroke-opacity="1" stroke-width="2" stroke="#000000" x="196.88483852580882" y="200.20285593510073" transform="matrix(0.5917041820593597,0,0,0.5917041820593596,44.94726917158917,34.82367106554011)" svgjs:data="{&quot;leading&quot;:&quot;1.3&quot;}"><tspan dy="0" x="196.88483852580882" svgjs:data="{&quot;newLined&quot;:true}">Player</tspan></text><image width="760" height="647" xlink:href="https://lct-designs.s3.us-west-1.amazonaws.com/assets/libs/redbird-2-1652176581969.png" class="asset" transform="matrix(0.13157889246940616,0,0,0.13157889246940616,296.6304016113281,102.6275863647461)"></image><text fill="#ffffff" font-family="American Captain" font-size="45" stroke-opacity="1" stroke-width="2" stroke="#000000" x="101.5861896915803" y="200.20285593510073" transform="matrix(0.5000933408737183,0,0,0.5000933408737184,-41.882465362548814,193.99168395996097)" svgjs:data="{&quot;leading&quot;:&quot;1.3&quot;}"><tspan dy="0" x="101.5861896915803" svgjs:data="{&quot;newLined&quot;:true}">Coach:Coach's name</tspan></text><text fill="#ffffff" font-family="American Captain" font-size="45" stroke-opacity="1" stroke-width="2" stroke="#000000" x="101.5861896915803" y="200.20285593510073" transform="matrix(0.5000933408737183,0,0,0.5000933408737184,324.90673828125006,-7.197791576385498)" svgjs:data="{&quot;leading&quot;:&quot;1.3&quot;}"><tspan dy="0" x="101.5861896915803" svgjs:data="{&quot;newLined&quot;:true}">team mom:name</tspan></text><g class="mask" style="pointer-events: none;"><g><path fill="#BCBEC0" d="M-3642.4-2101.7v4589.1h7813.4v-4589.1H-3642.4z M500.5,67.2v233.3v66.7H0.5v-66.7V67.2V0.5h500V67.2z" transform="matrix(1,0,0,1,0,0)"></path><g transform="matrix(1,0,0,1,0,0)">
	<rect x="0.5" y="300.5" opacity="0.95" fill="#F1F2F2" width="500" height="66.7"></rect>
	<rect x="0.5" y="0.5" opacity="0.95" fill="#F1F2F2" width="500" height="66.7"></rect>
</g></g></g></svg>