<svg xmlns="http://www.w3.org/2000/svg" version="1.1" xmlns:xlink="http://www.w3.org/1999/xlink" xmlns:svgjs="http://svgjs.dev/svgjs" width="100%" height="100%" viewBox="1 1 499 365.70001220703125" preserveAspectRatio="none" data-info="{&quot;_id&quot;:4,&quot;name&quot;:&quot;POLE POCKET SOCCER BANNERS&quot;,&quot;information&quot;:&quot;- Size: 3’x5’\n- Material: heavy duty vinyl banner\n- Digitally printed on vinyl&quot;,&quot;price&quot;:&quot;95.00&quot;,&quot;sale_price&quot;:&quot;89.99&quot;,&quot;type&quot;:&quot;pole-pocket&quot;,&quot;cover&quot;:{&quot;key&quot;:&quot;assets/models/pole-1628062864266-1631924568908.png&quot;,&quot;url&quot;:&quot;https://lct-designs.s3.us-west-1.amazonaws.com/assets/models/pole-1628062864266-1631924568908.png&quot;},&quot;back&quot;:{&quot;key&quot;:&quot;assets/models/pole-1631924700152.svg&quot;,&quot;url&quot;:&quot;https://lct-designs.s3.us-west-1.amazonaws.com/assets/models/pole-1631924700152.svg&quot;},&quot;mask&quot;:{&quot;key&quot;:&quot;assets/models/pole-mask-1631925211715.svg&quot;,&quot;url&quot;:&quot;https://lct-designs.s3.us-west-1.amazonaws.com/assets/models/pole-mask-1631925211715.svg&quot;},&quot;pos&quot;:&quot;2&quot;,&quot;accessories&quot;:&quot;2,3&quot;}" style="background-color: white;"><g class="model" style="pointer-events: none;"><polygon fill="#FFFFFF" points="0.5,0.5 0.5,67.2 0.5,300.5 0.5,367.2 500.5,367.2 500.5,300.5 500.5,67.2 500.5,0.5 "></polygon></g><image width="760" height="556" xlink:href="https://lct-designs.s3.us-west-1.amazonaws.com/assets/libs/cascade-1632996923079.png" class="asset background locked" transform="matrix(0.6595323960558116,0,0,0.6595323960558116,0,0)"></image><text fill="#fff100" font-family="UTM Rockwell" font-size="70" x="196.88127233350318" y="200.48091056834267" stroke-opacity="1" stroke-width="2" stroke="#000000" transform="matrix(0.19691073894500735,0,0,0.1934386044740677,-18.916805267334,115.30418395996095)" svgjs:data="{&quot;leading&quot;:&quot;1.3&quot;}"><tspan dy="0" x="196.88127233350318" svgjs:data="{&quot;newLined&quot;:true}">PLAYER</tspan><tspan dy="91" x="196.88127233350318" svgjs:data="{&quot;newLined&quot;:true}"></tspan></text><text fill="#fff100" font-family="UTM Rockwell" font-size="70" x="196.88127233350318" y="200.48091056834267" stroke-opacity="1" stroke-width="2" stroke="#000000" transform="matrix(0.19691073894500735,0,0,0.1934386044740677,-18.916799545288093,181.21432495117188)" svgjs:data="{&quot;leading&quot;:&quot;1.3&quot;}"><tspan dy="0" x="196.88127233350318" svgjs:data="{&quot;newLined&quot;:true}">PLAYER</tspan><tspan dy="91" x="196.88127233350318" svgjs:data="{&quot;newLined&quot;:true}"></tspan></text><text fill="#fff100" font-family="UTM Rockwell" font-size="70" x="196.88127233350318" y="200.48091056834267" stroke-opacity="1" stroke-width="2" stroke="#000000" transform="matrix(0.19691073894500735,0,0,0.1934386044740677,-18.91680335998536,245.32691955566406)" svgjs:data="{&quot;leading&quot;:&quot;1.3&quot;}"><tspan dy="0" x="196.88127233350318" svgjs:data="{&quot;newLined&quot;:true}">PLAYER</tspan><tspan dy="91" x="196.88127233350318" svgjs:data="{&quot;newLined&quot;:true}"></tspan></text><image width="759" height="581" xlink:href="https://lct-designs.s3.us-west-1.amazonaws.com/assets/libs/cascade-1632996758204.png" class="asset" transform="matrix(0.058423962444067,0,0,0.05842396244406701,29.626689910888672,236.7509765625)"></image><image width="759" height="581" xlink:href="https://lct-designs.s3.us-west-1.amazonaws.com/assets/libs/cascade-1632996758204.png" class="asset" transform="matrix(0.05842394009232522,0,0,0.05842394009232521,29.62670516967772,106.72824859619142)"></image><text fill="#fff100" font-family="UTM Rockwell" font-size="70" x="196.88127233350318" y="200.48091056834267" stroke-opacity="1" stroke-width="2" stroke="#000000" transform="matrix(0.19691073894500735,0,0,0.1934386044740677,388.34152221679693,114.10582733154298)" svgjs:data="{&quot;leading&quot;:&quot;1.3&quot;}"><tspan dy="0" x="196.88127233350318" svgjs:data="{&quot;newLined&quot;:true}">PLAYER</tspan><tspan dy="91" x="196.88127233350318" svgjs:data="{&quot;newLined&quot;:true}"></tspan></text><text fill="#fff100" font-family="UTM Rockwell" font-size="70" x="196.88127233350318" y="200.48091056834267" stroke-opacity="1" stroke-width="2" stroke="#000000" transform="matrix(0.19691073894500735,0,0,0.1934386044740677,388.34152221679693,180.01596069335938)" svgjs:data="{&quot;leading&quot;:&quot;1.3&quot;}"><tspan dy="0" x="196.88127233350318" svgjs:data="{&quot;newLined&quot;:true}">PLAYER</tspan><tspan dy="91" x="196.88127233350318" svgjs:data="{&quot;newLined&quot;:true}"></tspan></text><text fill="#fff100" font-family="UTM Rockwell" font-size="70" x="196.88127233350318" y="200.48091056834267" stroke-opacity="1" stroke-width="2" stroke="#000000" transform="matrix(0.19691073894500735,0,0,0.1934386044740677,388.34152221679693,244.12855529785156)" svgjs:data="{&quot;leading&quot;:&quot;1.3&quot;}"><tspan dy="0" x="196.88127233350318" svgjs:data="{&quot;newLined&quot;:true}">PLAYER</tspan><tspan dy="91" x="196.88127233350318" svgjs:data="{&quot;newLined&quot;:true}"></tspan></text><image width="759" height="581" xlink:href="https://lct-designs.s3.us-west-1.amazonaws.com/assets/libs/cascade-1632996758204.png" class="asset" transform="matrix(0.058424003422260284,0,0,0.05842400342226029,436.8850097656251,235.5526123046875)"></image><image width="759" height="581" xlink:href="https://lct-designs.s3.us-west-1.amazonaws.com/assets/libs/cascade-1632996758204.png" class="asset" transform="matrix(0.058423962444067,0,0,0.05842396244406701,436.8850402832032,105.52989196777342)"></image><image width="759" height="581" xlink:href="https://lct-designs.s3.us-west-1.amazonaws.com/assets/libs/cascade-1632996758204.png" class="asset" transform="matrix(0.058424003422260284,0,0,0.05842400342226029,436.8850097656251,171.44003295898438)"></image><image width="759" height="581" xlink:href="https://lct-designs.s3.us-west-1.amazonaws.com/assets/libs/cascade-1632996758204.png" class="asset" transform="matrix(0.058423962444067,0,0,0.05842396244406701,29.626693725585923,172.6383819580078)"></image><image width="760" height="215" xlink:href="https://lct-designs.s3.us-west-1.amazonaws.com/assets/libs/cascade-1632996655959.png" class="asset" transform="matrix(0.41304221749305725,0,0,0.41304221749305725,98.73805999755861,91.91065979003905)"></image><image width="760" height="695" xlink:href="https://lct-designs.s3.us-west-1.amazonaws.com/assets/libs/cascade-1632996637191.png" class="asset" transform="matrix(0.1488213688135147,0,0,0.1488213688135147,199.14199829101568,183.16421508789062)"></image><text fill="#fff100" font-family="UTM Rockwell" font-size="35" x="196.88127233350318" y="200.48091056834267" stroke-opacity="1" stroke-width="2" stroke="#000000" transform="matrix(0.3236541152000427,0,0,0.3236541152000428,272.2844543457031,20.02446174621582)" svgjs:data="{&quot;leading&quot;:&quot;1.3&quot;}"><tspan dy="0" x="196.88127233350318" svgjs:data="{&quot;newLined&quot;:true}">COACH: COACH'S NAME</tspan></text><text fill="#fff100" font-family="UTM Rockwell" font-size="35" x="196.88127233350318" y="200.48091056834267" stroke-opacity="1" stroke-width="2" stroke="#000000" transform="matrix(0.3236541152000427,0,0,0.3236541152000428,-56.66702270507813,20.024454116821303)" svgjs:data="{&quot;leading&quot;:&quot;1.3&quot;}"><tspan dy="0" x="196.88127233350318" svgjs:data="{&quot;newLined&quot;:true}">TEAM MOM: TEAM MOM'S NAME</tspan><tspan dy="46.800000000000004" x="196.88127233350318" svgjs:data="{&quot;newLined&quot;:true}"></tspan></text><text fill="#fff100" font-family="UTM Rockwell" font-size="70" x="196.88127233350318" y="200.48091056834267" stroke-opacity="1" stroke-width="2" stroke="#000000" transform="matrix(0.19691073894500735,0,0,0.1934386044740677,68.19168853759767,226.75221252441406)" svgjs:data="{&quot;leading&quot;:&quot;1.3&quot;}"><tspan dy="0" x="196.88127233350318" svgjs:data="{&quot;newLined&quot;:true}">PLAYER</tspan><tspan dy="91" x="196.88127233350318" svgjs:data="{&quot;newLined&quot;:true}"></tspan></text><image width="759" height="581" xlink:href="https://lct-designs.s3.us-west-1.amazonaws.com/assets/libs/cascade-1632996758204.png" class="asset" transform="matrix(0.0584239847958088,0,0,0.0584239847958088,116.68598175048827,218.17626953125)"></image><text fill="#fff100" font-family="UTM Rockwell" font-size="70" x="196.88127233350318" y="200.48091056834267" stroke-opacity="1" stroke-width="2" stroke="#000000" transform="matrix(0.19691073894500735,0,0,0.1934386044740677,302.28613281250006,225.55384814739233)" svgjs:data="{&quot;leading&quot;:&quot;1.3&quot;}"><tspan dy="0" x="196.88127233350318" svgjs:data="{&quot;newLined&quot;:true}">PLAYER</tspan><tspan dy="91" x="196.88127233350318" svgjs:data="{&quot;newLined&quot;:true}"></tspan></text><image width="759" height="581" xlink:href="https://lct-designs.s3.us-west-1.amazonaws.com/assets/libs/cascade-1632996758204.png" class="asset" transform="matrix(0.05842403322458267,0,0,0.05842403322458268,350.7804260253906,216.97790515422827)"></image><g class="mask" style="pointer-events: none;"><g><path fill="#BCBEC0" d="M-3642.4-2101.7v4589.1h7813.4v-4589.1H-3642.4z M500.5,67.2v233.3v66.7H0.5v-66.7V67.2V0.5h500V67.2z" transform="matrix(1,0,0,1,0,0)"></path><g transform="matrix(1,0,0,1,0,0)">
	<rect x="0.5" y="300.5" opacity="0.95" fill="#F1F2F2" width="500" height="66.7"></rect>
	<rect x="0.5" y="0.5" opacity="0.95" fill="#F1F2F2" width="500" height="66.7"></rect>
</g></g></g></svg>