<svg xmlns="http://www.w3.org/2000/svg" version="1.1" xmlns:xlink="http://www.w3.org/1999/xlink" xmlns:svgjs="http://svgjs.dev/svgjs" width="100%" height="100%" viewBox="1 1 499 365.70001220703125" preserveAspectRatio="none" data-info="{&quot;_id&quot;:4,&quot;name&quot;:&quot;POLE POCKET SOCCER BANNERS&quot;,&quot;information&quot;:&quot;- Size: 3’x5’\n- Material: heavy duty vinyl banner\n- Digitally printed on vinyl&quot;,&quot;price&quot;:&quot;95.00&quot;,&quot;sale_price&quot;:&quot;89.99&quot;,&quot;type&quot;:&quot;pole-pocket&quot;,&quot;cover&quot;:{&quot;key&quot;:&quot;assets/models/pole-1628062864266-1631924568908.png&quot;,&quot;url&quot;:&quot;https://lct-designs.s3.us-west-1.amazonaws.com/assets/models/pole-1628062864266-1631924568908.png&quot;},&quot;back&quot;:{&quot;key&quot;:&quot;assets/models/pole-1631924700152.svg&quot;,&quot;url&quot;:&quot;https://lct-designs.s3.us-west-1.amazonaws.com/assets/models/pole-1631924700152.svg&quot;},&quot;mask&quot;:{&quot;key&quot;:&quot;assets/models/pole-mask-1631925211715.svg&quot;,&quot;url&quot;:&quot;https://lct-designs.s3.us-west-1.amazonaws.com/assets/models/pole-mask-1631925211715.svg&quot;},&quot;pos&quot;:&quot;2&quot;,&quot;accessories&quot;:&quot;2,3&quot;}" style="background-color: white;"><g class="model" style="pointer-events: none;"><polygon fill="#FFFFFF" points="0.5,0.5 0.5,67.2 0.5,300.5 0.5,367.2 500.5,367.2 500.5,300.5 500.5,67.2 500.5,0.5 "></polygon></g><image width="760" height="556" xlink:href="https://lct-designs.s3.us-west-1.amazonaws.com/assets/libs/sirens-1652349212839.png" class="asset background locked" transform="matrix(0.6595323960558116,0,0,0.6595323960558116,0,0)"></image><image width="744" height="760" xlink:href="https://lct-designs.s3.us-west-1.amazonaws.com/assets/libs/sirens-1-1652349289583.png" class="asset" transform="matrix(0.2710986733436585,0,0,0.27109867334365845,282.075927734375,89.742431640625)"></image><text fill="#2b388f" font-family="Antilles" font-size="45" stroke-opacity="1" stroke-width="1" stroke="#f05a28" x="84.6023029728303" y="199.459545006756" transform="matrix(0.47348076105117803,0,0,0.473480761051178,-33.255126953125,197.15588378906247)" svgjs:data="{&quot;leading&quot;:&quot;1.3&quot;}"><tspan dy="0" x="84.6023029728303" svgjs:data="{&quot;newLined&quot;:true}">Coach:Coach's name</tspan></text><text fill="#2b388f" font-family="Antilles" font-size="45" stroke-opacity="1" stroke-width="1" stroke="#f05a28" x="118.79848522380686" y="199.459545006756" transform="matrix(0.38722977042198187,0,0,0.3872297704219818,347.68664550781256,8.349596977233887)" svgjs:data="{&quot;leading&quot;:&quot;1.3&quot;}"><tspan dy="0" x="118.79848522380686" svgjs:data="{&quot;newLined&quot;:true}">Team mom: name</tspan></text><image width="760" height="730" xlink:href="https://lct-designs.s3.us-west-1.amazonaws.com/assets/libs/blue-lightning-1633593530617.png" class="asset" transform="matrix(0.059036791324615485,0,0,0.05903679132461548,217.3258514404297,86.76068878173828)"></image><image width="760" height="730" xlink:href="https://lct-designs.s3.us-west-1.amazonaws.com/assets/libs/blue-lightning-1633593530617.png" class="asset" transform="matrix(0.05903673171997071,0,0,0.0590367317199707,13.951431274414062,88.40505981445312)"></image><text fill="#2b388f" font-family="Antilles" font-size="45" stroke-opacity="1" stroke-width="1" stroke="#f05a28" x="194.244259302176" y="199.459545006756" transform="matrix(0.45501181483268743,0,0,0.4550118148326874,-75.50697326660156,60.63087463378906)" svgjs:data="{&quot;leading&quot;:&quot;1.3&quot;}"><tspan dy="0" x="194.244259302176" svgjs:data="{&quot;newLined&quot;:true}">Player</tspan></text><image width="760" height="730" xlink:href="https://lct-designs.s3.us-west-1.amazonaws.com/assets/libs/blue-lightning-1633593530617.png" class="asset" transform="matrix(0.059036791324615485,0,0,0.05903679132461548,79.46272277832034,86.76068878173828)"></image><text fill="#2b388f" font-family="Antilles" font-size="45" stroke-opacity="1" stroke-width="1" stroke="#f05a28" x="194.244259302176" y="199.459545006756" transform="matrix(0.45501181483268743,0,0,0.4550118148326874,-9.995682716369615,58.98650741577147)" svgjs:data="{&quot;leading&quot;:&quot;1.3&quot;}"><tspan dy="0" x="194.244259302176" svgjs:data="{&quot;newLined&quot;:true}">Player</tspan></text><image width="760" height="730" xlink:href="https://lct-designs.s3.us-west-1.amazonaws.com/assets/libs/blue-lightning-1633593530617.png" class="asset" transform="matrix(0.059036813676357276,0,0,0.059036813676357276,147.77766418457037,86.76068878173828)"></image><text fill="#2b388f" font-family="Antilles" font-size="45" stroke-opacity="1" stroke-width="1" stroke="#f05a28" x="194.244259302176" y="199.459545006756" transform="matrix(0.45501181483268743,0,0,0.4550118148326874,58.31924438476565,58.98650741577147)" svgjs:data="{&quot;leading&quot;:&quot;1.3&quot;}"><tspan dy="0" x="194.244259302176" svgjs:data="{&quot;newLined&quot;:true}">Player</tspan></text><text fill="#2b388f" font-family="Antilles" font-size="45" stroke-opacity="1" stroke-width="1" stroke="#f05a28" x="194.244259302176" y="199.459545006756" transform="matrix(0.45501181483268743,0,0,0.4550118148326874,127.86744689941406,58.98650741577147)" svgjs:data="{&quot;leading&quot;:&quot;1.3&quot;}"><tspan dy="0" x="194.244259302176" svgjs:data="{&quot;newLined&quot;:true}">Player</tspan></text><image width="760" height="730" xlink:href="https://lct-designs.s3.us-west-1.amazonaws.com/assets/libs/blue-lightning-1633593530617.png" class="asset" transform="matrix(0.059036795049905784,0,0,0.05903679504990578,20.158296555280685,175.20086669921875)"></image><text fill="#2b388f" font-family="Antilles" font-size="45" stroke-opacity="1" stroke-width="1" stroke="#f05a28" x="194.244259302176" y="199.459545006756" transform="matrix(0.4550118744373322,0,0,0.45501187443733215,-69.30011370778084,147.42669677734375)" svgjs:data="{&quot;leading&quot;:&quot;1.3&quot;}"><tspan dy="0" x="194.244259302176" svgjs:data="{&quot;newLined&quot;:true}">Player</tspan></text><image width="760" height="730" xlink:href="https://lct-designs.s3.us-west-1.amazonaws.com/assets/libs/blue-lightning-1633593530617.png" class="asset" transform="matrix(0.05903679877519608,0,0,0.059036798775196075,88.47322461009028,175.20086669921875)"></image><text fill="#2b388f" font-family="Antilles" font-size="45" stroke-opacity="1" stroke-width="1" stroke="#f05a28" x="194.244259302176" y="199.459545006756" transform="matrix(0.4550118744373322,0,0,0.45501187443733215,-0.9851808845996857,147.42669677734375)" svgjs:data="{&quot;leading&quot;:&quot;1.3&quot;}"><tspan dy="0" x="194.244259302176" svgjs:data="{&quot;newLined&quot;:true}">Player</tspan></text><image width="760" height="730" xlink:href="https://lct-designs.s3.us-west-1.amazonaws.com/assets/libs/blue-lightning-1633593530617.png" class="asset" transform="matrix(0.05903682485222817,0,0,0.05903682485222817,158.02141949534416,175.20086669921875)"></image><text fill="#2b388f" font-family="Antilles" font-size="45" stroke-opacity="1" stroke-width="1" stroke="#f05a28" x="194.244259302176" y="199.459545006756" transform="matrix(0.4550118744373322,0,0,0.45501187443733215,68.56301495432857,147.42669677734375)" svgjs:data="{&quot;leading&quot;:&quot;1.3&quot;}"><tspan dy="0" x="194.244259302176" svgjs:data="{&quot;newLined&quot;:true}">Player</tspan></text><image width="760" height="730" xlink:href="https://lct-designs.s3.us-west-1.amazonaws.com/assets/libs/blue-lightning-1633593530617.png" class="asset" transform="matrix(0.05903683230280877,0,0,0.05903683230280877,226.89359661936766,174.73608398437503)"></image><text fill="#2b388f" font-family="Antilles" font-size="45" stroke-opacity="1" stroke-width="1" stroke="#f05a28" x="194.244259302176" y="199.459545006756" transform="matrix(0.45501196384429937,0,0,0.45501196384429937,137.43520733714104,146.9619064331055)" svgjs:data="{&quot;leading&quot;:&quot;1.3&quot;}"><tspan dy="0" x="194.244259302176" svgjs:data="{&quot;newLined&quot;:true}">Player</tspan></text><g class="mask" style="pointer-events: none;"><g><path fill="#BCBEC0" d="M-3642.4-2101.7v4589.1h7813.4v-4589.1H-3642.4z M500.5,67.2v233.3v66.7H0.5v-66.7V67.2V0.5h500V67.2z" transform="matrix(1,0,0,1,0,0)"></path><g transform="matrix(1,0,0,1,0,0)">
	<rect x="0.5" y="300.5" opacity="0.95" fill="#F1F2F2" width="500" height="66.7"></rect>
	<rect x="0.5" y="0.5" opacity="0.95" fill="#F1F2F2" width="500" height="66.7"></rect>
</g></g></g></svg>