<svg xmlns="http://www.w3.org/2000/svg" version="1.1" xmlns:xlink="http://www.w3.org/1999/xlink" xmlns:svgjs="http://svgjs.dev/svgjs" width="100%" height="100%" viewBox="1 1 499 365.70001220703125" preserveAspectRatio="none" data-info="{&quot;_id&quot;:4,&quot;name&quot;:&quot;POLE POCKET SOCCER BANNERS&quot;,&quot;information&quot;:&quot;- Size: 3’x5’\n- Material: heavy duty vinyl banner\n- Digitally printed on vinyl&quot;,&quot;price&quot;:&quot;95.00&quot;,&quot;sale_price&quot;:&quot;89.99&quot;,&quot;type&quot;:&quot;pole-pocket&quot;,&quot;cover&quot;:{&quot;key&quot;:&quot;assets/models/pole-1628062864266-1631924568908.png&quot;,&quot;url&quot;:&quot;https://lct-designs.s3.us-west-1.amazonaws.com/assets/models/pole-1628062864266-1631924568908.png&quot;},&quot;back&quot;:{&quot;key&quot;:&quot;assets/models/pole-1631924700152.svg&quot;,&quot;url&quot;:&quot;https://lct-designs.s3.us-west-1.amazonaws.com/assets/models/pole-1631924700152.svg&quot;},&quot;mask&quot;:{&quot;key&quot;:&quot;assets/models/pole-mask-1631925211715.svg&quot;,&quot;url&quot;:&quot;https://lct-designs.s3.us-west-1.amazonaws.com/assets/models/pole-mask-1631925211715.svg&quot;},&quot;pos&quot;:&quot;2&quot;,&quot;accessories&quot;:&quot;2,3&quot;}" style="background-color: white;"><g class="model" style="pointer-events: none;"><polygon fill="#FFFFFF" points="0.5,0.5 0.5,67.2 0.5,300.5 0.5,367.2 500.5,367.2 500.5,300.5 500.5,67.2 500.5,0.5 "></polygon></g><image width="760" height="556" xlink:href="https://lct-designs.s3.us-west-1.amazonaws.com/assets/libs/tiger-sharks--1-1652258101985.png" class="asset background locked" transform="matrix(0.6595323960558116,0,0,0.6595323960558116,0,0)"></image><image width="760" height="309" xlink:href="https://lct-designs.s3.us-west-1.amazonaws.com/assets/libs/tiger-sharks--3-1652258158694.png" class="asset" transform="matrix(0.31599745154380804,0,0,0.315997451543808,14.745884895324707,89.68104553222656)"></image><image width="760" height="567" xlink:href="https://lct-designs.s3.us-west-1.amazonaws.com/assets/libs/tiger-sharks--4-1652258174609.png" class="asset" transform="matrix(0.05662089958786965,0,0,0.056620899587869644,29.855739593505888,188.61076354980472)"></image><image width="760" height="567" xlink:href="https://lct-designs.s3.us-west-1.amazonaws.com/assets/libs/tiger-sharks--4-1652258174609.png" class="asset" transform="matrix(0.05662089958786965,0,0,0.056620899587869644,101.17478942871097,188.1682891845703)"></image><image width="760" height="567" xlink:href="https://lct-designs.s3.us-west-1.amazonaws.com/assets/libs/tiger-sharks--4-1652258174609.png" class="asset" transform="matrix(0.05662089958786965,0,0,0.056620899587869644,164.00708007812506,188.61076354980472)"></image><image width="760" height="567" xlink:href="https://lct-designs.s3.us-west-1.amazonaws.com/assets/libs/tiger-sharks--4-1652258174609.png" class="asset" transform="matrix(0.056620910763740546,0,0,0.05662091076374054,235.3261108398438,188.1682891845703)"></image><image width="760" height="567" xlink:href="https://lct-designs.s3.us-west-1.amazonaws.com/assets/libs/tiger-sharks--4-1652258174609.png" class="asset" transform="matrix(0.05662091821432114,0,0,0.056620918214321136,39.360191345214844,244.60682678222653)"></image><image width="760" height="567" xlink:href="https://lct-designs.s3.us-west-1.amazonaws.com/assets/libs/tiger-sharks--4-1652258174609.png" class="asset" transform="matrix(0.056620910763740546,0,0,0.05662091076374054,108.2015380859375,245.6509704589844)"></image><image width="760" height="567" xlink:href="https://lct-designs.s3.us-west-1.amazonaws.com/assets/libs/tiger-sharks--4-1652258174609.png" class="asset" transform="matrix(0.056620910763740546,0,0,0.05662091076374054,171.03382873535162,246.09344482421872)"></image><image width="760" height="567" xlink:href="https://lct-designs.s3.us-west-1.amazonaws.com/assets/libs/tiger-sharks--4-1652258174609.png" class="asset" transform="matrix(0.056620910763740546,0,0,0.05662091076374054,242.35285949707037,245.6509704589844)"></image><image width="760" height="553" xlink:href="https://lct-designs.s3.us-west-1.amazonaws.com/assets/libs/tiger-sharks--5-1652258127389.png" class="asset" transform="matrix(0.2453809827566147,0,0,0.2453809827566147,298.8414916992188,139.53530883789062)"></image><text fill="#000000" font-family="Antilles" font-size="45" stroke-opacity="1" stroke-width="0" stroke="#000000" x="194.244259302176" y="199.459545006756" transform="matrix(0.4609571993350983,0,0,0.4609571993350983,-57.20862197875975,198.26281738281253)" svgjs:data="{&quot;leading&quot;:&quot;1.3&quot;}"><tspan dy="0" x="194.244259302176" svgjs:data="{&quot;newLined&quot;:true}">Player</tspan><tspan dy="58.5" x="194.244259302176" svgjs:data="{&quot;newLined&quot;:true}"></tspan></text><text fill="#000000" font-family="Antilles" font-size="45" stroke-opacity="1" stroke-width="0" stroke="#000000" x="194.244259302176" y="199.459545006756" transform="matrix(0.4609571993350983,0,0,0.4609571993350983,147.23246765136724,199.30694580078122)" svgjs:data="{&quot;leading&quot;:&quot;1.3&quot;}"><tspan dy="0" x="194.244259302176" svgjs:data="{&quot;newLined&quot;:true}">Player</tspan><tspan dy="58.5" x="194.244259302176" svgjs:data="{&quot;newLined&quot;:true}"></tspan></text><text fill="#000000" font-family="Antilles" font-size="45" stroke-opacity="1" stroke-width="0" stroke="#000000" x="194.244259302176" y="199.459545006756" transform="matrix(0.4609571993350983,0,0,0.4609571993350983,75.91341400146487,199.74943542480472)" svgjs:data="{&quot;leading&quot;:&quot;1.3&quot;}"><tspan dy="0" x="194.244259302176" svgjs:data="{&quot;newLined&quot;:true}">Player</tspan><tspan dy="58.5" x="194.244259302176" svgjs:data="{&quot;newLined&quot;:true}"></tspan></text><text fill="#000000" font-family="Antilles" font-size="45" stroke-opacity="1" stroke-width="0" stroke="#000000" x="194.244259302176" y="199.459545006756" transform="matrix(0.4609571993350983,0,0,0.4609571993350983,12.077870368957548,200.2449798583984)" svgjs:data="{&quot;leading&quot;:&quot;1.3&quot;}"><tspan dy="0" x="194.244259302176" svgjs:data="{&quot;newLined&quot;:true}">Player</tspan><tspan dy="58.5" x="194.244259302176" svgjs:data="{&quot;newLined&quot;:true}"></tspan></text><text fill="#000000" font-family="Antilles" font-size="45" stroke-opacity="1" stroke-width="0" stroke="#000000" x="194.244259302176" y="199.459545006756" transform="matrix(0.40736895799636846,0,0,0.40736895799636846,280.53576660156256,7.72332239151001)" svgjs:data="{&quot;leading&quot;:&quot;1.3&quot;}"><tspan dy="0" x="194.244259302176" svgjs:data="{&quot;newLined&quot;:true}">Coach:Coach's name</tspan><tspan dy="58.5" x="194.244259302176" svgjs:data="{&quot;newLined&quot;:true}"></tspan></text><text fill="#000000" font-family="Antilles" font-size="45" stroke-opacity="1" stroke-width="0" stroke="#000000" x="194.244259302176" y="199.459545006756" transform="matrix(0.4609571993350983,0,0,0.4609571993350983,-58.11051559448242,144.74444580078128)" svgjs:data="{&quot;leading&quot;:&quot;1.3&quot;}"><tspan dy="0" x="194.244259302176" svgjs:data="{&quot;newLined&quot;:true}">Player</tspan><tspan dy="58.5" x="194.244259302176" svgjs:data="{&quot;newLined&quot;:true}"></tspan></text><text fill="#000000" font-family="Antilles" font-size="45" stroke-opacity="1" stroke-width="0" stroke="#000000" x="194.244259302176" y="199.459545006756" transform="matrix(0.4609571993350983,0,0,0.4609571993350983,11.175975799560575,146.7266082763672)" svgjs:data="{&quot;leading&quot;:&quot;1.3&quot;}"><tspan dy="0" x="194.244259302176" svgjs:data="{&quot;newLined&quot;:true}">Player</tspan><tspan dy="58.5" x="194.244259302176" svgjs:data="{&quot;newLined&quot;:true}"></tspan></text><text fill="#000000" font-family="Antilles" font-size="45" stroke-opacity="1" stroke-width="0" stroke="#000000" x="194.244259302176" y="199.459545006756" transform="matrix(0.4609571993350983,0,0,0.4609571993350983,75.01152038574222,146.23106384277347)" svgjs:data="{&quot;leading&quot;:&quot;1.3&quot;}"><tspan dy="0" x="194.244259302176" svgjs:data="{&quot;newLined&quot;:true}">Player</tspan><tspan dy="58.5" x="194.244259302176" svgjs:data="{&quot;newLined&quot;:true}"></tspan></text><text fill="#000000" font-family="Antilles" font-size="45" stroke-opacity="1" stroke-width="0" stroke="#000000" x="194.244259302176" y="199.459545006756" transform="matrix(0.4609571993350983,0,0,0.4609571993350983,146.3305740356446,145.78857421875)" svgjs:data="{&quot;leading&quot;:&quot;1.3&quot;}"><tspan dy="0" x="194.244259302176" svgjs:data="{&quot;newLined&quot;:true}">Player</tspan><tspan dy="58.5" x="194.244259302176" svgjs:data="{&quot;newLined&quot;:true}"></tspan></text><text fill="#000000" font-family="Antilles" font-size="45" x="84.6023029728303" y="199.459545006756" transform="matrix(0.39796590805053716,0,0,0.3979659080505371,-25.875295639038086,5.64593505859375)" svgjs:data="{&quot;leading&quot;:&quot;1.3&quot;}"><tspan dy="0" x="84.6023029728303" svgjs:data="{&quot;newLined&quot;:true}">TEam mom: name</tspan><tspan dy="58.5" x="84.6023029728303" svgjs:data="{&quot;newLined&quot;:true}"></tspan></text><g class="mask" style="pointer-events: none;"><g><path fill="#BCBEC0" d="M-3642.4-2101.7v4589.1h7813.4v-4589.1H-3642.4z M500.5,67.2v233.3v66.7H0.5v-66.7V67.2V0.5h500V67.2z" transform="matrix(1,0,0,1,0,0)"></path><g transform="matrix(1,0,0,1,0,0)">
	<rect x="0.5" y="300.5" opacity="0.95" fill="#F1F2F2" width="500" height="66.7"></rect>
	<rect x="0.5" y="0.5" opacity="0.95" fill="#F1F2F2" width="500" height="66.7"></rect>
</g></g></g></svg>