<svg xmlns="http://www.w3.org/2000/svg" version="1.1" xmlns:xlink="http://www.w3.org/1999/xlink" xmlns:svgjs="http://svgjs.dev/svgjs" width="100%" height="100%" viewBox="1 1 499 365.70001220703125" preserveAspectRatio="none" data-info="{&quot;_id&quot;:4,&quot;name&quot;:&quot;POLE POCKET SOCCER BANNERS&quot;,&quot;information&quot;:&quot;- Size: 3’x5’\n- Material: heavy duty vinyl banner\n- Digitally printed on vinyl&quot;,&quot;price&quot;:&quot;95.00&quot;,&quot;sale_price&quot;:&quot;89.99&quot;,&quot;type&quot;:&quot;pole-pocket&quot;,&quot;cover&quot;:{&quot;key&quot;:&quot;assets/models/pole-1628062864266-1631924568908.png&quot;,&quot;url&quot;:&quot;https://lct-designs.s3.us-west-1.amazonaws.com/assets/models/pole-1628062864266-1631924568908.png&quot;},&quot;back&quot;:{&quot;key&quot;:&quot;assets/models/pole-1631924700152.svg&quot;,&quot;url&quot;:&quot;https://lct-designs.s3.us-west-1.amazonaws.com/assets/models/pole-1631924700152.svg&quot;},&quot;mask&quot;:{&quot;key&quot;:&quot;assets/models/pole-mask-1631925211715.svg&quot;,&quot;url&quot;:&quot;https://lct-designs.s3.us-west-1.amazonaws.com/assets/models/pole-mask-1631925211715.svg&quot;},&quot;pos&quot;:&quot;2&quot;,&quot;accessories&quot;:&quot;2,3&quot;}" style="background-color: white;"><g class="model" style="pointer-events: none;"><polygon fill="#FFFFFF" points="0.5,0.5 0.5,67.2 0.5,300.5 0.5,367.2 500.5,367.2 500.5,300.5 500.5,67.2 500.5,0.5 "></polygon></g><image width="760" height="553" xlink:href="https://lct-designs.s3.us-west-1.amazonaws.com/assets/libs/mooses-1633402757837.png" class="asset background locked" transform="matrix(0.6631103294883024,0,0,0.6631103294883024,0,0)"></image><text fill="#ffc30c" font-family="Foo" font-size="50" stroke-opacity="1" stroke-width="2" stroke="#000000" x="-98.72634249947717" y="199.47500657859518" transform="matrix(0.22130972146987915,0,0,0.22130972146987918,397.23348999023443,234.20471191406256)" svgjs:data="{&quot;leading&quot;:&quot;1.3&quot;}"><tspan dy="0" x="-98.72634249947717" svgjs:data="{&quot;newLined&quot;:true}">COACH: COACH'S NAME</tspan></text><text fill="#ffc30c" font-family="Foo" font-size="50" stroke-opacity="1" stroke-width="2" stroke="#000000" x="-98.72634249947717" y="199.47500657859518" transform="matrix(0.2213098555803299,0,0,0.2213098555803299,358.30853271484375,247.107894897461)" svgjs:data="{&quot;leading&quot;:&quot;1.3&quot;}"><tspan dy="0" x="-98.72634249947717" svgjs:data="{&quot;newLined&quot;:true}">TEAM MOM: TEAM MOM'S NAME</tspan></text><text fill="#ffc30c" font-family="Foo" font-size="50" stroke-opacity="1" stroke-width="2" stroke="#000000" x="-98.72634249947717" y="199.47500657859518" transform="matrix(0.3272826373577118,0,0,0.32728263735771185,49.826625823974595,77.76934814453126)" svgjs:data="{&quot;leading&quot;:&quot;1.3&quot;}"><tspan dy="0" x="-98.72634249947717" svgjs:data="{&quot;newLined&quot;:true}">PLAYER</tspan></text><image width="704" height="760" xlink:href="https://lct-designs.s3.us-west-1.amazonaws.com/assets/libs/mooses-1-1633342536151.png" class="asset" transform="matrix(0.0706786960363388,0,0,0.0706786960363388,21.69853782653808,82.81238555908205)"></image><text fill="#ffc30c" font-family="Foo" font-size="50" stroke-opacity="1" stroke-width="2" stroke="#000000" x="-98.72634249947717" y="199.47500657859518" transform="matrix(0.3272826373577118,0,0,0.32728263735771185,49.396514892578125,214.86611938476562)" svgjs:data="{&quot;leading&quot;:&quot;1.3&quot;}"><tspan dy="0" x="-98.72634249947717" svgjs:data="{&quot;newLined&quot;:true}">PLAYER</tspan></text><image width="704" height="760" xlink:href="https://lct-designs.s3.us-west-1.amazonaws.com/assets/libs/mooses-1-1633342536151.png" class="asset" transform="matrix(0.07067875564098358,0,0,0.0706787556409836,21.26842498779297,219.90916442871094)"></image><text fill="#ffc30c" font-family="Foo" font-size="50" stroke-opacity="1" stroke-width="2" stroke="#000000" x="-98.72634249947717" y="199.47500657859518" transform="matrix(0.3272826373577118,0,0,0.32728263735771185,140.5792999267578,214.86611938476562)" svgjs:data="{&quot;leading&quot;:&quot;1.3&quot;}"><tspan dy="0" x="-98.72634249947717" svgjs:data="{&quot;newLined&quot;:true}">PLAYER</tspan></text><image width="704" height="760" xlink:href="https://lct-designs.s3.us-west-1.amazonaws.com/assets/libs/mooses-1-1633342536151.png" class="asset" transform="matrix(0.07067877799272537,0,0,0.07067877799272539,112.45121765136719,219.90916442871094)"></image><text fill="#ffc30c" font-family="Foo" font-size="50" stroke-opacity="1" stroke-width="2" stroke="#000000" x="-98.72634249947717" y="199.47500657859518" transform="matrix(0.3272826373577118,0,0,0.32728263735771185,231.76211547851562,215.941390991211)" svgjs:data="{&quot;leading&quot;:&quot;1.3&quot;}"><tspan dy="0" x="-98.72634249947717" svgjs:data="{&quot;newLined&quot;:true}">PLAYER</tspan></text><image width="704" height="760" xlink:href="https://lct-designs.s3.us-west-1.amazonaws.com/assets/libs/mooses-1-1633342536151.png" class="asset" transform="matrix(0.07067881524562836,0,0,0.07067881524562836,203.63401794433597,220.9844207763672)"></image><text fill="#ffc30c" font-family="Foo" font-size="50" stroke-opacity="1" stroke-width="2" stroke="#000000" x="-98.72634249947717" y="199.47500657859518" transform="matrix(0.3272826373577118,0,0,0.32728263735771185,141.0094146728516,77.76934814453126)" svgjs:data="{&quot;leading&quot;:&quot;1.3&quot;}"><tspan dy="0" x="-98.72634249947717" svgjs:data="{&quot;newLined&quot;:true}">PLAYER</tspan></text><image width="704" height="760" xlink:href="https://lct-designs.s3.us-west-1.amazonaws.com/assets/libs/mooses-1-1633342536151.png" class="asset" transform="matrix(0.0706786960363388,0,0,0.0706786960363388,112.88133239746094,82.81238555908205)"></image><text fill="#ffc30c" font-family="Foo" font-size="50" stroke-opacity="1" stroke-width="2" stroke="#000000" x="-98.72634249947717" y="199.47500657859518" transform="matrix(0.3272826373577118,0,0,0.32728263735771185,232.1922149658203,78.84461212158205)" svgjs:data="{&quot;leading&quot;:&quot;1.3&quot;}"><tspan dy="0" x="-98.72634249947717" svgjs:data="{&quot;newLined&quot;:true}">PLAYER</tspan></text><image width="704" height="760" xlink:href="https://lct-designs.s3.us-west-1.amazonaws.com/assets/libs/mooses-1-1633342536151.png" class="asset" transform="matrix(0.07067874073982237,0,0,0.07067874073982239,204.0641326904297,83.88764953613283)"></image><text fill="#ffc30c" font-family="Foo" font-size="50" stroke-opacity="1" stroke-width="2" stroke="#000000" x="-98.72634249947717" y="199.47500657859518" transform="matrix(0.3272826373577118,0,0,0.32728263735771185,94.77285766601561,143.36073303222656)" svgjs:data="{&quot;leading&quot;:&quot;1.3&quot;}"><tspan dy="0" x="-98.72634249947717" svgjs:data="{&quot;newLined&quot;:true}">PLAYER</tspan></text><image width="704" height="760" xlink:href="https://lct-designs.s3.us-west-1.amazonaws.com/assets/libs/mooses-1-1633342536151.png" class="asset" transform="matrix(0.0706786960363388,0,0,0.0706786960363388,66.64476776123045,148.40377807617188)"></image><text fill="#ffc30c" font-family="Foo" font-size="50" stroke-opacity="1" stroke-width="2" stroke="#000000" x="-98.72634249947717" y="199.47500657859518" transform="matrix(0.3272826373577118,0,0,0.32728263735771185,185.9556427001953,143.36073303222656)" svgjs:data="{&quot;leading&quot;:&quot;1.3&quot;}"><tspan dy="0" x="-98.72634249947717" svgjs:data="{&quot;newLined&quot;:true}">PLAYER</tspan></text><image width="704" height="760" xlink:href="https://lct-designs.s3.us-west-1.amazonaws.com/assets/libs/mooses-1-1633342536151.png" class="asset" transform="matrix(0.0706787183880806,0,0,0.0706787183880806,157.82756042480472,148.40377807617188)"></image><text fill="#ffc30c" font-family="Foo" font-size="50" stroke-opacity="1" stroke-width="2" stroke="#000000" x="-98.72634249947717" y="199.47500657859518" transform="matrix(0.3272826373577118,0,0,0.32728263735771185,277.1384582519531,144.43600463867188)" svgjs:data="{&quot;leading&quot;:&quot;1.3&quot;}"><tspan dy="0" x="-98.72634249947717" svgjs:data="{&quot;newLined&quot;:true}">PLAYER</tspan></text><image width="704" height="760" xlink:href="https://lct-designs.s3.us-west-1.amazonaws.com/assets/libs/mooses-1-1633342536151.png" class="asset" transform="matrix(0.07067875564098358,0,0,0.0706787556409836,249.01036071777338,149.47903442382812)"></image><image width="729" height="760" xlink:href="https://lct-designs.s3.us-west-1.amazonaws.com/assets/libs/mooses-2-1633342518597.png" class="asset" transform="matrix(0.24759328365325928,0,0,0.2475932836532593,309.7425231933594,65.07042694091798)"></image><g class="mask" style="pointer-events: none;"><g><path fill="#BCBEC0" d="M-3642.4-2101.7v4589.1h7813.4v-4589.1H-3642.4z M500.5,67.2v233.3v66.7H0.5v-66.7V67.2V0.5h500V67.2z" transform="matrix(1,0,0,1,0,0)"></path><g transform="matrix(1,0,0,1,0,0)">
	<rect x="0.5" y="300.5" opacity="0.95" fill="#F1F2F2" width="500" height="66.7"></rect>
	<rect x="0.5" y="0.5" opacity="0.95" fill="#F1F2F2" width="500" height="66.7"></rect>
</g></g></g></svg>