<svg xmlns="http://www.w3.org/2000/svg" version="1.1" xmlns:xlink="http://www.w3.org/1999/xlink" xmlns:svgjs="http://svgjs.dev/svgjs" width="100%" height="100%" viewBox="1 1 499 365.70001220703125" preserveAspectRatio="none" data-info="{&quot;_id&quot;:4,&quot;name&quot;:&quot;POLE POCKET SOCCER BANNERS&quot;,&quot;information&quot;:&quot;- Size: 3’x5’\n- Material: heavy duty vinyl banner\n- Digitally printed on vinyl&quot;,&quot;price&quot;:&quot;95.00&quot;,&quot;sale_price&quot;:&quot;89.99&quot;,&quot;type&quot;:&quot;pole-pocket&quot;,&quot;cover&quot;:{&quot;key&quot;:&quot;assets/models/pole-1628062864266-1631924568908.png&quot;,&quot;url&quot;:&quot;https://lct-designs.s3.us-west-1.amazonaws.com/assets/models/pole-1628062864266-1631924568908.png&quot;},&quot;back&quot;:{&quot;key&quot;:&quot;assets/models/pole-1631924700152.svg&quot;,&quot;url&quot;:&quot;https://lct-designs.s3.us-west-1.amazonaws.com/assets/models/pole-1631924700152.svg&quot;},&quot;mask&quot;:{&quot;key&quot;:&quot;assets/models/pole-mask-1631925211715.svg&quot;,&quot;url&quot;:&quot;https://lct-designs.s3.us-west-1.amazonaws.com/assets/models/pole-mask-1631925211715.svg&quot;},&quot;pos&quot;:&quot;2&quot;,&quot;accessories&quot;:&quot;2,3&quot;}" style="background-color: white;"><g class="model" style="pointer-events: none;"><polygon fill="#FFFFFF" points="0.5,0.5 0.5,67.2 0.5,300.5 0.5,367.2 500.5,367.2 500.5,300.5 500.5,67.2 500.5,0.5 "></polygon></g><image width="760" height="553" xlink:href="https://lct-designs.s3.us-west-1.amazonaws.com/assets/libs/lions-1633403954955.png" class="asset background locked" transform="matrix(0.6631103294883024,0,0,0.6631103294883024,0,0)"></image><text fill="#ffb500" font-family="Foo" font-size="50" stroke-opacity="1" stroke-width="2" stroke="#000000" x="-98.72634249947717" y="199.47500657859518" transform="matrix(0.31654566526412964,0,0,0.3165456652641297,69.68563842773436,89.05095672607423)" svgjs:data="{&quot;leading&quot;:&quot;1.3&quot;}"><tspan dy="0" x="-98.72634249947717" svgjs:data="{&quot;newLined&quot;:true}">PLAYER</tspan></text><text fill="#ffb500" font-family="Foo" font-size="50" stroke-opacity="1" stroke-width="2" stroke="#000000" x="-98.72634249947717" y="199.47500657859518" transform="matrix(0.31654566526412964,0,0,0.3165456652641297,163.01896667480472,89.0509490966797)" svgjs:data="{&quot;leading&quot;:&quot;1.3&quot;}"><tspan dy="0" x="-98.72634249947717" svgjs:data="{&quot;newLined&quot;:true}">PLAYER</tspan></text><text fill="#ffb500" font-family="Foo" font-size="50" stroke-opacity="1" stroke-width="2" stroke="#000000" x="-98.72634249947717" y="199.47500657859518" transform="matrix(0.31654566526412964,0,0,0.3165456652641297,253.66412353515625,89.05095672607423)" svgjs:data="{&quot;leading&quot;:&quot;1.3&quot;}"><tspan dy="0" x="-98.72634249947717" svgjs:data="{&quot;newLined&quot;:true}">PLAYER</tspan></text><text fill="#ffb500" font-family="Foo" font-size="50" stroke-opacity="1" stroke-width="2" stroke="#000000" x="-98.72634249947717" y="199.47500657859518" transform="matrix(0.31654566526412964,0,0,0.3165456652641297,348.0727233886719,89.05094146728517)" svgjs:data="{&quot;leading&quot;:&quot;1.3&quot;}"><tspan dy="0" x="-98.72634249947717" svgjs:data="{&quot;newLined&quot;:true}">PLAYER</tspan></text><text fill="#ffb500" font-family="Foo" font-size="50" stroke-opacity="1" stroke-width="2" stroke="#000000" x="-98.72634249947717" y="199.47500657859518" transform="matrix(0.31654566526412964,0,0,0.3165456652641297,438.7178955078125,89.05096435546876)" svgjs:data="{&quot;leading&quot;:&quot;1.3&quot;}"><tspan dy="0" x="-98.72634249947717" svgjs:data="{&quot;newLined&quot;:true}">PLAYER</tspan></text><image width="760" height="655" xlink:href="https://lct-designs.s3.us-west-1.amazonaws.com/assets/libs/lions-2-1633342536149.png" class="asset" transform="matrix(0.06591471284627914,0,0,0.06591471284627914,319.8777770996094,95.90306854248048)"></image><image width="760" height="655" xlink:href="https://lct-designs.s3.us-west-1.amazonaws.com/assets/libs/lions-2-1633342536149.png" class="asset" transform="matrix(0.06591471284627914,0,0,0.06591471284627914,410.52294921875,95.90306091308592)"></image><image width="760" height="655" xlink:href="https://lct-designs.s3.us-west-1.amazonaws.com/assets/libs/lions-2-1633342536149.png" class="asset" transform="matrix(0.06591471284627914,0,0,0.06591471284627914,225.46917724609375,95.90308380126952)"></image><image width="760" height="395" xlink:href="https://lct-designs.s3.us-west-1.amazonaws.com/assets/libs/lions-3-1633342518593.png" class="asset" transform="matrix(0.31123957037925715,0,0,0.3112395703792572,24.731166839599602,167.5782012939453)"></image><text fill="#ffb500" font-family="Foo" font-size="50" stroke-opacity="1" stroke-width="2" stroke="#000000" x="-98.72634249947717" y="199.47500657859518" transform="matrix(0.31654566526412964,0,0,0.3165456652641297,356.2447509765625,225.61009216308594)" svgjs:data="{&quot;leading&quot;:&quot;1.3&quot;}"><tspan dy="0" x="-98.72634249947717" svgjs:data="{&quot;newLined&quot;:true}">PLAYER</tspan></text><text fill="#ffb500" font-family="Foo" font-size="50" stroke-opacity="1" stroke-width="2" stroke="#000000" x="-98.72634249947717" y="199.47500657859518" transform="matrix(0.31654566526412964,0,0,0.3165456652641297,446.8899230957031,225.610107421875)" svgjs:data="{&quot;leading&quot;:&quot;1.3&quot;}"><tspan dy="0" x="-98.72634249947717" svgjs:data="{&quot;newLined&quot;:true}">PLAYER</tspan></text><image width="760" height="655" xlink:href="https://lct-designs.s3.us-west-1.amazonaws.com/assets/libs/lions-2-1633342536149.png" class="asset" transform="matrix(0.06591471284627914,0,0,0.06591471284627914,328.0498046875,232.46221923828125)"></image><image width="760" height="655" xlink:href="https://lct-designs.s3.us-west-1.amazonaws.com/assets/libs/lions-2-1633342536149.png" class="asset" transform="matrix(0.06591471284627914,0,0,0.06591471284627914,418.6949768066406,232.4622039794922)"></image><image width="760" height="655" xlink:href="https://lct-designs.s3.us-west-1.amazonaws.com/assets/libs/lions-2-1633342536149.png" class="asset" transform="matrix(0.06591471284627914,0,0,0.06591471284627914,41.490692138671875,95.90308380126952)"></image><image width="760" height="655" xlink:href="https://lct-designs.s3.us-west-1.amazonaws.com/assets/libs/lions-2-1633342536149.png" class="asset" transform="matrix(0.06591471284627914,0,0,0.06591471284627914,134.8240203857422,95.90306091308592)"></image><text fill="#ffb500" font-family="Foo" font-size="50" stroke-opacity="1" stroke-width="2" stroke="#000000" x="-98.72634249947717" y="199.47500657859518" transform="matrix(0.21683037281036377,0,0,0.2168303728103638,29.13682746887207,41.12940216064453)" svgjs:data="{&quot;leading&quot;:&quot;1.3&quot;}"><tspan dy="0" x="-98.72634249947717" svgjs:data="{&quot;newLined&quot;:true}">COACH: COACH'S NAME</tspan></text><text fill="#ffb500" font-family="Foo" font-size="50" stroke-opacity="1" stroke-width="2" stroke="#000000" x="-98.72634249947717" y="199.47500657859518" transform="matrix(0.21683013439178467,0,0,0.2168301343917847,362.2070922851563,41.12943649291992)" svgjs:data="{&quot;leading&quot;:&quot;1.3&quot;}"><tspan dy="0" x="-98.72634249947717" svgjs:data="{&quot;newLined&quot;:true}">TEAM MOM: TEAM MOM'S NAME</tspan></text><text fill="#ffb500" font-family="Foo" font-size="50" stroke-opacity="1" stroke-width="2" stroke="#000000" x="-98.72634249947717" y="199.47500657859518" transform="matrix(0.31654566526412964,0,0,0.3165456652641297,302.3738098144531,158.40579223632818)" svgjs:data="{&quot;leading&quot;:&quot;1.3&quot;}"><tspan dy="0" x="-98.72634249947717" svgjs:data="{&quot;newLined&quot;:true}">PLAYER</tspan></text><text fill="#ffb500" font-family="Foo" font-size="50" stroke-opacity="1" stroke-width="2" stroke="#000000" x="-98.72634249947717" y="199.47500657859518" transform="matrix(0.31654566526412964,0,0,0.3165456652641297,396.78240966796875,158.40577697753906)" svgjs:data="{&quot;leading&quot;:&quot;1.3&quot;}"><tspan dy="0" x="-98.72634249947717" svgjs:data="{&quot;newLined&quot;:true}">PLAYER</tspan></text><image width="760" height="655" xlink:href="https://lct-designs.s3.us-west-1.amazonaws.com/assets/libs/lions-2-1633342536149.png" class="asset" transform="matrix(0.06591471284627914,0,0,0.06591471284627914,368.5874633789063,165.25791931152344)"></image><image width="760" height="655" xlink:href="https://lct-designs.s3.us-west-1.amazonaws.com/assets/libs/lions-2-1633342536149.png" class="asset" transform="matrix(0.06591471284627914,0,0,0.06591471284627914,274.17886352539057,165.2579345703125)"></image><g class="mask" style="pointer-events: none;"><g><path fill="#BCBEC0" d="M-3642.4-2101.7v4589.1h7813.4v-4589.1H-3642.4z M500.5,67.2v233.3v66.7H0.5v-66.7V67.2V0.5h500V67.2z" transform="matrix(1,0,0,1,0,0)"></path><g transform="matrix(1,0,0,1,0,0)">
	<rect x="0.5" y="300.5" opacity="0.95" fill="#F1F2F2" width="500" height="66.7"></rect>
	<rect x="0.5" y="0.5" opacity="0.95" fill="#F1F2F2" width="500" height="66.7"></rect>
</g></g></g></svg>