<svg xmlns="http://www.w3.org/2000/svg" version="1.1" xmlns:xlink="http://www.w3.org/1999/xlink" xmlns:svgjs="http://svgjs.dev/svgjs" width="100%" height="100%" viewBox="1 1 499 365.70001220703125" preserveAspectRatio="none" data-info="{&quot;_id&quot;:4,&quot;name&quot;:&quot;POLE POCKET SOCCER BANNERS&quot;,&quot;information&quot;:&quot;- Size: 3’x5’\n- Material: heavy duty vinyl banner\n- Digitally printed on vinyl&quot;,&quot;price&quot;:&quot;95.00&quot;,&quot;sale_price&quot;:&quot;89.99&quot;,&quot;type&quot;:&quot;pole-pocket&quot;,&quot;cover&quot;:{&quot;key&quot;:&quot;assets/models/pole-1628062864266-1631924568908.png&quot;,&quot;url&quot;:&quot;https://lct-designs.s3.us-west-1.amazonaws.com/assets/models/pole-1628062864266-1631924568908.png&quot;},&quot;back&quot;:{&quot;key&quot;:&quot;assets/models/pole-1631924700152.svg&quot;,&quot;url&quot;:&quot;https://lct-designs.s3.us-west-1.amazonaws.com/assets/models/pole-1631924700152.svg&quot;},&quot;mask&quot;:{&quot;key&quot;:&quot;assets/models/pole-mask-1631925211715.svg&quot;,&quot;url&quot;:&quot;https://lct-designs.s3.us-west-1.amazonaws.com/assets/models/pole-mask-1631925211715.svg&quot;},&quot;pos&quot;:&quot;2&quot;,&quot;accessories&quot;:&quot;2,3&quot;}" style="background-color: white;"><g class="model" style="pointer-events: none;"><polygon fill="#FFFFFF" points="0.5,0.5 0.5,67.2 0.5,300.5 0.5,367.2 500.5,367.2 500.5,300.5 500.5,67.2 500.5,0.5 "></polygon></g><image width="760" height="556" xlink:href="https://lct-designs.s3.us-west-1.amazonaws.com/assets/libs/superbanana-1-1652435481771.png" class="asset background locked" transform="matrix(0.6595323960558116,0,0,0.6595323960558116,0,0)"></image><image width="760" height="682" xlink:href="https://lct-designs.s3.us-west-1.amazonaws.com/assets/libs/superbanana-3-1652435633991.png" class="asset locked" transform="matrix(0.320473849773407,0,0,0.320473849773407,144.77737426757812,70.846809387207)"></image><image width="760" height="502" xlink:href="https://lct-designs.s3.us-west-1.amazonaws.com/assets/libs/superbanana-2-1652435651679.png" class="asset" transform="matrix(0.07625129818916322,0,0,0.07625129818916321,10.8987398147583,80.10090637207028)"></image><text fill="#ffffff" font-family="SVN-Coco FY" font-size="45" stroke-opacity="1" stroke-width="1" stroke="#000000" x="202.8451110573659" y="201.10376952952006" transform="matrix(0.7956527471542358,0,0,0.7956527471542358,-85.26602172851562,-49.388710021972656)" svgjs:data="{&quot;leading&quot;:&quot;1.3&quot;}"><tspan dy="0" x="202.8451110573659" svgjs:data="{&quot;newLined&quot;:true}">Player</tspan></text><image width="760" height="502" xlink:href="https://lct-designs.s3.us-west-1.amazonaws.com/assets/libs/superbanana-2-1652435651679.png" class="asset" transform="matrix(0.0762513056397438,0,0,0.0762513056397438,14.91743278503418,133.47256469726562)"></image><text fill="#ffffff" font-family="SVN-Coco FY" font-size="45" stroke-opacity="1" stroke-width="1" stroke="#000000" x="202.8451110573659" y="201.10376952952006" transform="matrix(0.7956527471542358,0,0,0.7956527471542358,-81.24732971191406,3.982940673828118)" svgjs:data="{&quot;leading&quot;:&quot;1.3&quot;}"><tspan dy="0" x="202.8451110573659" svgjs:data="{&quot;newLined&quot;:true}">Player</tspan></text><image width="760" height="502" xlink:href="https://lct-designs.s3.us-west-1.amazonaws.com/assets/libs/superbanana-2-1652435651679.png" class="asset" transform="matrix(0.07625131309032442,0,0,0.07625131309032442,22.61693000793457,185.92401123046875)"></image><text fill="#ffffff" font-family="SVN-Coco FY" font-size="45" stroke-opacity="1" stroke-width="1" stroke="#000000" x="202.8451110573659" y="201.10376952952006" transform="matrix(0.7956527471542358,0,0,0.7956527471542358,-73.54783630371094,56.43438720703126)" svgjs:data="{&quot;leading&quot;:&quot;1.3&quot;}"><tspan dy="0" x="202.8451110573659" svgjs:data="{&quot;newLined&quot;:true}">Player</tspan></text><image width="760" height="502" xlink:href="https://lct-designs.s3.us-west-1.amazonaws.com/assets/libs/superbanana-2-1652435651679.png" class="asset" transform="matrix(0.07625131309032442,0,0,0.07625131309032442,36.2977294921875,235.61485290527347)"></image><text fill="#ffffff" font-family="SVN-Coco FY" font-size="45" stroke-opacity="1" stroke-width="1" stroke="#000000" x="202.8451110573659" y="201.10376952952006" transform="matrix(0.7956527471542358,0,0,0.7956527471542358,-59.86703109741211,106.12522888183594)" svgjs:data="{&quot;leading&quot;:&quot;1.3&quot;}"><tspan dy="0" x="202.8451110573659" svgjs:data="{&quot;newLined&quot;:true}">Player</tspan></text><image width="760" height="502" xlink:href="https://lct-designs.s3.us-west-1.amazonaws.com/assets/libs/superbanana-2-1652435651679.png" class="asset" transform="matrix(0.07625131309032442,0,0,0.07625131309032442,355.3917236328125,79.64079284667966)"></image><text fill="#ffffff" font-family="SVN-Coco FY" font-size="45" stroke-opacity="1" stroke-width="1" stroke="#000000" x="202.8451110573659" y="201.10376952952006" transform="matrix(0.7956527471542358,0,0,0.7956527471542358,259.2269592285156,-49.84882354736329)" svgjs:data="{&quot;leading&quot;:&quot;1.3&quot;}"><tspan dy="0" x="202.8451110573659" svgjs:data="{&quot;newLined&quot;:true}">Player</tspan></text><image width="760" height="502" xlink:href="https://lct-designs.s3.us-west-1.amazonaws.com/assets/libs/superbanana-2-1652435651679.png" class="asset" transform="matrix(0.07625131309032442,0,0,0.07625131309032442,344.6871643066406,129.33164978027344)"></image><text fill="#ffffff" font-family="SVN-Coco FY" font-size="45" stroke-opacity="1" stroke-width="1" stroke="#000000" x="202.8451110573659" y="201.10376952952006" transform="matrix(0.7956527471542358,0,0,0.7956527471542358,248.5224151611328,-0.1579742431640625)" svgjs:data="{&quot;leading&quot;:&quot;1.3&quot;}"><tspan dy="0" x="202.8451110573659" svgjs:data="{&quot;newLined&quot;:true}">Player</tspan></text><image width="760" height="502" xlink:href="https://lct-designs.s3.us-west-1.amazonaws.com/assets/libs/superbanana-2-1652435651679.png" class="asset" transform="matrix(0.07625131309032442,0,0,0.07625131309032442,338.12359619140625,181.32299804687497)"></image><text fill="#ffffff" font-family="SVN-Coco FY" font-size="45" stroke-opacity="1" stroke-width="1" stroke="#000000" x="202.8451110573659" y="201.10376952952006" transform="matrix(0.7956527471542358,0,0,0.7956527471542358,241.9588165283203,51.83337402343749)" svgjs:data="{&quot;leading&quot;:&quot;1.3&quot;}"><tspan dy="0" x="202.8451110573659" svgjs:data="{&quot;newLined&quot;:true}">Player</tspan></text><image width="760" height="502" xlink:href="https://lct-designs.s3.us-west-1.amazonaws.com/assets/libs/superbanana-2-1652435651679.png" class="asset" transform="matrix(0.07625131309032442,0,0,0.07625131309032442,344.4427795410156,237.91535949707034)"></image><text fill="#ffffff" font-family="SVN-Coco FY" font-size="45" stroke-opacity="1" stroke-width="1" stroke="#000000" x="202.8451110573659" y="201.10376952952006" transform="matrix(0.7956527471542358,0,0,0.7956527471542358,248.27801513671875,108.42573547363281)" svgjs:data="{&quot;leading&quot;:&quot;1.3&quot;}"><tspan dy="0" x="202.8451110573659" svgjs:data="{&quot;newLined&quot;:true}">Player</tspan></text><text fill="#ffffff" font-family="SVN-Coco FY" font-size="45" stroke-opacity="1" stroke-width="1" stroke="#000000" x="107.2872052641759" y="201.10376952952006" transform="matrix(0.423473984003067,0,0,0.423473984003067,-37.987918853759766,208.3703460693359)" svgjs:data="{&quot;leading&quot;:&quot;1.3&quot;}"><tspan dy="0" x="107.2872052641759" svgjs:data="{&quot;newLined&quot;:true}">Coach:Coach's name</tspan></text><text fill="#ffffff" font-family="SVN-Coco FY" font-size="45" stroke-opacity="1" stroke-width="1" stroke="#000000" x="107.2872052641759" y="201.10376952952006" transform="matrix(0.42347401380538946,0,0,0.4234740138053894,325.8292541503906,207.45014953613278)" svgjs:data="{&quot;leading&quot;:&quot;1.3&quot;}"><tspan dy="0" x="107.2872052641759" svgjs:data="{&quot;newLined&quot;:true}">Team Mom: name</tspan></text><g class="mask" style="pointer-events: none;"><g><path fill="#BCBEC0" d="M-3642.4-2101.7v4589.1h7813.4v-4589.1H-3642.4z M500.5,67.2v233.3v66.7H0.5v-66.7V67.2V0.5h500V67.2z" transform="matrix(1,0,0,1,0,0)"></path><g transform="matrix(1,0,0,1,0,0)">
	<rect x="0.5" y="300.5" opacity="0.95" fill="#F1F2F2" width="500" height="66.7"></rect>
	<rect x="0.5" y="0.5" opacity="0.95" fill="#F1F2F2" width="500" height="66.7"></rect>
</g></g></g></svg>