<svg xmlns="http://www.w3.org/2000/svg" version="1.1" xmlns:xlink="http://www.w3.org/1999/xlink" xmlns:svgjs="http://svgjs.dev/svgjs" width="100%" height="100%" viewBox="1 1 499 365.70001220703125" preserveAspectRatio="none" data-info="{&quot;_id&quot;:4,&quot;name&quot;:&quot;POLE POCKET SOCCER BANNERS&quot;,&quot;information&quot;:&quot;- Size: 3’x5’\n- Material: heavy duty vinyl banner\n- Digitally printed on vinyl&quot;,&quot;price&quot;:&quot;95.00&quot;,&quot;sale_price&quot;:&quot;89.99&quot;,&quot;type&quot;:&quot;pole-pocket&quot;,&quot;cover&quot;:{&quot;key&quot;:&quot;assets/models/pole-1628062864266-1631924568908.png&quot;,&quot;url&quot;:&quot;https://lct-designs.s3.us-west-1.amazonaws.com/assets/models/pole-1628062864266-1631924568908.png&quot;},&quot;back&quot;:{&quot;key&quot;:&quot;assets/models/pole-1631924700152.svg&quot;,&quot;url&quot;:&quot;https://lct-designs.s3.us-west-1.amazonaws.com/assets/models/pole-1631924700152.svg&quot;},&quot;mask&quot;:{&quot;key&quot;:&quot;assets/models/pole-mask-1631925211715.svg&quot;,&quot;url&quot;:&quot;https://lct-designs.s3.us-west-1.amazonaws.com/assets/models/pole-mask-1631925211715.svg&quot;},&quot;pos&quot;:&quot;2&quot;,&quot;accessories&quot;:&quot;2,3&quot;}" style="background-color: white;"><g class="model" style="pointer-events: none;"><polygon fill="#FFFFFF" points="0.5,0.5 0.5,67.2 0.5,300.5 0.5,367.2 500.5,367.2 500.5,300.5 500.5,67.2 500.5,0.5 "></polygon></g><image width="760" height="556" xlink:href="https://lct-designs.s3.us-west-1.amazonaws.com/assets/libs/super-heroes-2-1652349212844.png" class="asset background locked" transform="matrix(0.6595323960558116,0,0,0.6595323960558116,0,0)"></image><text fill="#ffffff" font-family="Kimberley Bl" font-size="45" stroke-opacity="1" stroke-width="0" stroke="#db412a" x="29.784824893082146" y="201.79391883677104" transform="matrix(0.3390822410583496,0,0,0.3390822410583496,333.0673828125,17.10595512390136)" svgjs:data="{&quot;leading&quot;:&quot;1.3&quot;}"><tspan dy="0" x="29.784824893082146" svgjs:data="{&quot;newLined&quot;:true}">Coach:Coach's name</tspan></text><image width="684" height="760" xlink:href="https://lct-designs.s3.us-west-1.amazonaws.com/assets/libs/super-heroes-1633515603663.png" class="asset" transform="matrix(0.15761055052280426,0,0,0.15761055052280426,55.60538101196289,108.96467590332031)"></image><image width="760" height="260" xlink:href="https://lct-designs.s3.us-west-1.amazonaws.com/assets/libs/super-heroes-1633515620078.png" class="asset" transform="matrix(0.35277271270751953,0,0,0.35277271270751953,145.53546142578128,110.57258605957031)"></image><text fill="#ffffff" font-family="Kimberley Bl" font-size="45" stroke-opacity="1" stroke-width="0" stroke="#db412a" x="29.784824893082146" y="201.79391883677104" transform="matrix(0.3390822410583496,0,0,0.3390822410583496,-2.4680118560791016,17.10595512390136)" svgjs:data="{&quot;leading&quot;:&quot;1.3&quot;}"><tspan dy="0" x="29.784824893082146" svgjs:data="{&quot;newLined&quot;:true}">Team Mom:Name</tspan></text><image width="760" height="416" xlink:href="https://lct-designs.s3.us-west-1.amazonaws.com/assets/libs/super-heroes-1633515635792.png" class="asset" transform="matrix(0.07447748811520682,0,0,0.07447748811520682,60.268785414517,230.90247507765892)"></image><text fill="#ffffff" font-family="Kimberley Bl" font-size="45" x="181.64101843556261" y="201.79391883677104" stroke-opacity="1" stroke-width="2" stroke="#000000" transform="matrix(0.4688654053699964,0,0,0.4688654053699963,-61.44110553811151,159.2437165610463)" svgjs:data="{&quot;leading&quot;:&quot;1.3&quot;}"><tspan dy="0" x="181.64101843556261" svgjs:data="{&quot;newLined&quot;:true}">Player</tspan></text><image width="760" height="416" xlink:href="https://lct-designs.s3.us-west-1.amazonaws.com/assets/libs/super-heroes-1633515635792.png" class="asset" transform="matrix(0.07447748811520682,0,0,0.07447748811520682,88.08336341521138,263.9337840097869)"></image><text fill="#ffffff" font-family="Kimberley Bl" font-size="45" x="181.64101843556261" y="201.79391883677104" stroke-opacity="1" stroke-width="2" stroke="#000000" transform="matrix(0.4688654053699964,0,0,0.4688654053699963,-33.626523324141075,191.7668369900057)" svgjs:data="{&quot;leading&quot;:&quot;1.3&quot;}"><tspan dy="0" x="181.64101843556261" svgjs:data="{&quot;newLined&quot;:true}">Player</tspan></text><image width="760" height="416" xlink:href="https://lct-designs.s3.us-west-1.amazonaws.com/assets/libs/super-heroes-1633515635792.png" class="asset" transform="matrix(0.07447748811520682,0,0,0.07447748811520682,168.37486332024127,229.88613177752993)"></image><text fill="#ffffff" font-family="Kimberley Bl" font-size="45" x="181.64101843556261" y="201.79391883677104" stroke-opacity="1" stroke-width="2" stroke="#000000" transform="matrix(0.4688654053699964,0,0,0.4688654053699963,46.66496815433675,158.22737326091737)" svgjs:data="{&quot;leading&quot;:&quot;1.3&quot;}"><tspan dy="0" x="181.64101843556261" svgjs:data="{&quot;newLined&quot;:true}">Player</tspan></text><image width="760" height="416" xlink:href="https://lct-designs.s3.us-west-1.amazonaws.com/assets/libs/super-heroes-1633515635792.png" class="asset" transform="matrix(0.07447748811520682,0,0,0.07447748811520682,196.1894455342117,262.91744070965797)"></image><text fill="#ffffff" font-family="Kimberley Bl" font-size="45" x="181.64101843556261" y="201.79391883677104" stroke-opacity="1" stroke-width="2" stroke="#000000" transform="matrix(0.4688654053699964,0,0,0.4688654053699963,74.47955458158322,190.75049368987675)" svgjs:data="{&quot;leading&quot;:&quot;1.3&quot;}"><tspan dy="0" x="181.64101843556261" svgjs:data="{&quot;newLined&quot;:true}">Player</tspan></text><image width="760" height="416" xlink:href="https://lct-designs.s3.us-west-1.amazonaws.com/assets/libs/super-heroes-1633515635792.png" class="asset" transform="matrix(0.07447748811520682,0,0,0.07447748811520682,279.15682233362895,227.85342832416788)"></image><text fill="#ffffff" font-family="Kimberley Bl" font-size="45" x="181.64101843556261" y="201.79391883677104" stroke-opacity="1" stroke-width="2" stroke="#000000" transform="matrix(0.4688654053699964,0,0,0.4688654053699963,157.4469229544484,156.19466980755533)" svgjs:data="{&quot;leading&quot;:&quot;1.3&quot;}"><tspan dy="0" x="181.64101843556261" svgjs:data="{&quot;newLined&quot;:true}">Player</tspan></text><image width="760" height="416" xlink:href="https://lct-designs.s3.us-west-1.amazonaws.com/assets/libs/super-heroes-1633515635792.png" class="asset" transform="matrix(0.07447748811520682,0,0,0.07447748811520682,387.26289602607727,226.83708502403894)"></image><image width="760" height="416" xlink:href="https://lct-designs.s3.us-west-1.amazonaws.com/assets/libs/super-heroes-1633515635792.png" class="asset" transform="matrix(0.07447752356529236,0,0,0.07447752356529236,308.8117980957031,261.80496227741247)"></image><text fill="#ffffff" font-family="Kimberley Bl" font-size="45" x="181.64101843556261" y="201.79391883677104" stroke-opacity="1" stroke-width="2" stroke="#000000" transform="matrix(0.4688653945922852,0,0,0.4688653945922851,187.10189819335943,189.63798534870148)" svgjs:data="{&quot;leading&quot;:&quot;1.3&quot;}"><tspan dy="0" x="181.64101843556261" svgjs:data="{&quot;newLined&quot;:true}">Player</tspan></text><text fill="#ffffff" font-family="Kimberley Bl" font-size="45" x="181.64101843556261" y="201.79391883677104" stroke-opacity="1" stroke-width="2" stroke="#000000" transform="matrix(0.4688654053699964,0,0,0.4688654053699963,265.55299664689664,155.1783265074264)" svgjs:data="{&quot;leading&quot;:&quot;1.3&quot;}"><tspan dy="0" x="181.64101843556261" svgjs:data="{&quot;newLined&quot;:true}">Player</tspan></text><g class="mask" style="pointer-events: none;"><g><path fill="#BCBEC0" d="M-3642.4-2101.7v4589.1h7813.4v-4589.1H-3642.4z M500.5,67.2v233.3v66.7H0.5v-66.7V67.2V0.5h500V67.2z" transform="matrix(1,0,0,1,0,0)"></path><g transform="matrix(1,0,0,1,0,0)">
	<rect x="0.5" y="300.5" opacity="0.95" fill="#F1F2F2" width="500" height="66.7"></rect>
	<rect x="0.5" y="0.5" opacity="0.95" fill="#F1F2F2" width="500" height="66.7"></rect>
</g></g></g><image width="760" height="416" xlink:href="https://lct-designs.s3.us-west-1.amazonaws.com/assets/libs/super-heroes-1633515635792.png" class="asset" transform="matrix(0.07447751611471176,0,0,0.07447751611471176,424.2794799804688,260.3284606933594)"></image><text fill="#ffffff" font-family="Kimberley Bl" font-size="45" x="181.64101843556261" y="201.79391883677104" stroke-opacity="1" stroke-width="2" stroke="#000000" transform="matrix(0.4688653945922852,0,0,0.4688653945922851,302.569580078125,188.16152954101562)" svgjs:data="{&quot;leading&quot;:&quot;1.3&quot;}"><tspan dy="0" x="181.64101843556261" svgjs:data="{&quot;newLined&quot;:true}">Player</tspan></text></svg>