<svg xmlns="http://www.w3.org/2000/svg" version="1.1" xmlns:xlink="http://www.w3.org/1999/xlink" xmlns:svgjs="http://svgjs.dev/svgjs" width="100%" height="100%" viewBox="1 1 499 365.70001220703125" preserveAspectRatio="none" data-info="{&quot;_id&quot;:4,&quot;name&quot;:&quot;POLE POCKET SOCCER BANNERS&quot;,&quot;information&quot;:&quot;- Size: 3’x5’\n- Material: heavy duty vinyl banner\n- Digitally printed on vinyl&quot;,&quot;price&quot;:&quot;95.00&quot;,&quot;sale_price&quot;:&quot;89.99&quot;,&quot;type&quot;:&quot;pole-pocket&quot;,&quot;cover&quot;:{&quot;key&quot;:&quot;assets/models/pole-1628062864266-1631924568908.png&quot;,&quot;url&quot;:&quot;https://lct-designs.s3.us-west-1.amazonaws.com/assets/models/pole-1628062864266-1631924568908.png&quot;},&quot;back&quot;:{&quot;key&quot;:&quot;assets/models/pole-1631924700152.svg&quot;,&quot;url&quot;:&quot;https://lct-designs.s3.us-west-1.amazonaws.com/assets/models/pole-1631924700152.svg&quot;},&quot;mask&quot;:{&quot;key&quot;:&quot;assets/models/pole-mask-1631925211715.svg&quot;,&quot;url&quot;:&quot;https://lct-designs.s3.us-west-1.amazonaws.com/assets/models/pole-mask-1631925211715.svg&quot;},&quot;pos&quot;:&quot;2&quot;,&quot;accessories&quot;:&quot;2,3&quot;}" style="background-color: white;"><g class="model" style="pointer-events: none;"><polygon fill="#FFFFFF" points="0.5,0.5 0.5,67.2 0.5,300.5 0.5,367.2 500.5,367.2 500.5,300.5 500.5,67.2 500.5,0.5 "></polygon></g><image width="760" height="553" xlink:href="https://lct-designs.s3.us-west-1.amazonaws.com/assets/libs/kickers-united-2-2-1632218871478.png" class="asset background locked" transform="matrix(0.6631103294883024,0,0,0.6631103294883024,0,0)"></image><text fill="#204199" font-family="Impact" font-size="50" stroke-opacity="1" stroke-width="1" stroke="#ffffff" x="-98.72634249947717" y="199.47500657859518" transform="matrix(0.3074308846486833,0,0,0.3074308846486833,249.02458455408123,129.94340011176882)" svgjs:data="{&quot;leading&quot;:&quot;1.3&quot;}"><tspan dy="0" x="-98.72634249947717" svgjs:data="{&quot;newLined&quot;:true}">PLAYER</tspan><tspan dy="65" x="-98.72634249947717" svgjs:data="{&quot;newLined&quot;:true}"></tspan></text><text fill="#204199" font-family="Impact" font-size="50" stroke-opacity="1" stroke-width="1" stroke="#ffffff" x="-98.72634249947717" y="199.47500657859518" transform="matrix(0.3074308846486833,0,0,0.3074308846486833,250.88526206635288,191.44905727441528)" svgjs:data="{&quot;leading&quot;:&quot;1.3&quot;}"><tspan dy="0" x="-98.72634249947717" svgjs:data="{&quot;newLined&quot;:true}">PLAYER</tspan><tspan dy="65" x="-98.72634249947717" svgjs:data="{&quot;newLined&quot;:true}"></tspan></text><image width="760" height="504" xlink:href="https://lct-designs.s3.us-west-1.amazonaws.com/assets/libs/kickers-united-2-4-1632219211773.png" class="asset" transform="matrix(0.059836802190989635,0,0,0.059836802190989635,219.18056060360595,207.37590463744715)"></image><image width="760" height="504" xlink:href="https://lct-designs.s3.us-west-1.amazonaws.com/assets/libs/kickers-united-2-4-1632219211773.png" class="asset" transform="matrix(0.059836802190989635,0,0,0.059836802190989635,217.3198830913343,145.87024747480064)"></image><text fill="#204199" font-family="Impact" font-size="50" stroke-opacity="1" stroke-width="1" stroke="#ffffff" x="-98.72634249947717" y="199.47500657859518" transform="matrix(0.3074308846486833,0,0,0.3074308846486833,321.6943067903576,139.76363601808134)" svgjs:data="{&quot;leading&quot;:&quot;1.3&quot;}"><tspan dy="0" x="-98.72634249947717" svgjs:data="{&quot;newLined&quot;:true}">PLAYER</tspan><tspan dy="65" x="-98.72634249947717" svgjs:data="{&quot;newLined&quot;:true}"></tspan></text><image width="760" height="504" xlink:href="https://lct-designs.s3.us-west-1.amazonaws.com/assets/libs/kickers-united-2-4-1632219211773.png" class="asset" transform="matrix(0.059836802190989635,0,0,0.059836802190989635,289.989590658588,155.6904833811132)"></image><text fill="#204199" font-family="Impact" font-size="50" stroke-opacity="1" stroke-width="1" stroke="#ffffff" x="-98.72634249947717" y="199.47500657859518" transform="matrix(0.3074308846486833,0,0,0.3074308846486833,393.8471806816797,138.72992465915013)" svgjs:data="{&quot;leading&quot;:&quot;1.3&quot;}"><tspan dy="0" x="-98.72634249947717" svgjs:data="{&quot;newLined&quot;:true}">PLAYER</tspan><tspan dy="65" x="-98.72634249947717" svgjs:data="{&quot;newLined&quot;:true}"></tspan></text><image width="760" height="504" xlink:href="https://lct-designs.s3.us-west-1.amazonaws.com/assets/libs/kickers-united-2-4-1632219211773.png" class="asset" transform="matrix(0.059836802190989635,0,0,0.059836802190989635,362.1424938879554,154.656772022182)"></image><text fill="#204199" font-family="Impact" font-size="50" stroke-opacity="1" stroke-width="1" stroke="#ffffff" x="-98.72634249947717" y="199.47500657859518" transform="matrix(0.3074308846486833,0,0,0.3074308846486833,462.3820574822312,137.69621330021891)" svgjs:data="{&quot;leading&quot;:&quot;1.3&quot;}"><tspan dy="0" x="-98.72634249947717" svgjs:data="{&quot;newLined&quot;:true}">PLAYER</tspan><tspan dy="65" x="-98.72634249947717" svgjs:data="{&quot;newLined&quot;:true}"></tspan></text><image width="760" height="504" xlink:href="https://lct-designs.s3.us-west-1.amazonaws.com/assets/libs/kickers-united-2-4-1632219211773.png" class="asset" transform="matrix(0.059836802190989635,0,0,0.059836802190989635,430.677370688507,153.62306066325078)"></image><text fill="#204199" font-family="Impact" font-size="50" stroke-opacity="1" stroke-width="1" stroke="#ffffff" x="-98.72634249947717" y="199.47500657859518" transform="matrix(0.3074308846486833,0,0,0.3074308846486833,323.55498430262924,201.2692931807278)" svgjs:data="{&quot;leading&quot;:&quot;1.3&quot;}"><tspan dy="0" x="-98.72634249947717" svgjs:data="{&quot;newLined&quot;:true}">PLAYER</tspan><tspan dy="65" x="-98.72634249947717" svgjs:data="{&quot;newLined&quot;:true}"></tspan></text><image width="760" height="504" xlink:href="https://lct-designs.s3.us-west-1.amazonaws.com/assets/libs/kickers-united-2-4-1632219211773.png" class="asset" transform="matrix(0.059836802190989635,0,0,0.059836802190989635,291.8502681708597,217.19614054375967)"></image><text fill="#204199" font-family="Impact" font-size="50" stroke-opacity="1" stroke-width="1" stroke="#ffffff" x="-98.72634249947717" y="199.47500657859518" transform="matrix(0.3074308846486833,0,0,0.3074308846486833,395.7078581939513,200.2355818217966)" svgjs:data="{&quot;leading&quot;:&quot;1.3&quot;}"><tspan dy="0" x="-98.72634249947717" svgjs:data="{&quot;newLined&quot;:true}">PLAYER</tspan><tspan dy="65" x="-98.72634249947717" svgjs:data="{&quot;newLined&quot;:true}"></tspan></text><image width="760" height="504" xlink:href="https://lct-designs.s3.us-west-1.amazonaws.com/assets/libs/kickers-united-2-4-1632219211773.png" class="asset" transform="matrix(0.059836802190989635,0,0,0.059836802190989635,364.0031714002271,216.16242918482845)"></image><text fill="#204199" font-family="Impact" font-size="50" stroke-opacity="1" stroke-width="1" stroke="#ffffff" x="-98.72634249947717" y="199.47500657859518" transform="matrix(0.3074308846486833,0,0,0.3074308846486833,464.2427349945028,199.20187046286537)" svgjs:data="{&quot;leading&quot;:&quot;1.3&quot;}"><tspan dy="0" x="-98.72634249947717" svgjs:data="{&quot;newLined&quot;:true}">PLAYER</tspan><tspan dy="65" x="-98.72634249947717" svgjs:data="{&quot;newLined&quot;:true}"></tspan></text><image width="760" height="504" xlink:href="https://lct-designs.s3.us-west-1.amazonaws.com/assets/libs/kickers-united-2-4-1632219211773.png" class="asset" transform="matrix(0.059836802190989635,0,0,0.059836802190989635,432.5380482007786,215.12871782589724)"></image><text fill="#204199" font-family="Impact" font-size="50" stroke-opacity="1" stroke-width="1" stroke="#ffffff" x="-98.72634249947717" y="199.47500657859518" transform="matrix(0.3074308846486833,0,0,0.3074308846486833,185.03801426239082,129.42656643583723)" svgjs:data="{&quot;leading&quot;:&quot;1.3&quot;}"><tspan dy="0" x="-98.72634249947717" svgjs:data="{&quot;newLined&quot;:true}">PLAYER</tspan><tspan dy="65" x="-98.72634249947717" svgjs:data="{&quot;newLined&quot;:true}"></tspan></text><image width="760" height="504" xlink:href="https://lct-designs.s3.us-west-1.amazonaws.com/assets/libs/kickers-united-2-4-1632219211773.png" class="asset" transform="matrix(0.059836802190989635,0,0,0.059836802190989635,153.33331279964386,145.35339912984642)"></image><text fill="#204199" font-family="Impact" font-size="50" stroke-opacity="1" stroke-width="1" stroke="#ffffff" x="-98.72634249947717" y="199.47500657859518" transform="matrix(0.24089117348194122,0,0,0.24089117348194122,34.00579071044922,243.65838623046875)" svgjs:data="{&quot;leading&quot;:&quot;1.3&quot;}"><tspan dy="0" x="-98.72634249947717" svgjs:data="{&quot;newLined&quot;:true}">COACH: COACH'S NAME</tspan></text><text fill="#204199" font-family="Impact" font-size="50" stroke-opacity="1" stroke-width="1" stroke="#ffffff" x="-98.72634249947717" y="199.47500657859518" transform="matrix(0.24089115858078003,0,0,0.24089115858078006,372.74395751953125,243.6583709716797)" svgjs:data="{&quot;leading&quot;:&quot;1.3&quot;}"><tspan dy="0" x="-98.72634249947717" svgjs:data="{&quot;newLined&quot;:true}">TEAM MOM: TEAM MOM'S NAME</tspan></text><image width="760" height="154" xlink:href="https://lct-designs.s3.us-west-1.amazonaws.com/assets/libs/kickers-united-2-3-1632219163036.png" class="asset" transform="matrix(0.4213258922100067,0,0,0.42132589221000677,123.17057800292969,75.36895751953126)"></image><image width="760" height="504" xlink:href="https://lct-designs.s3.us-west-1.amazonaws.com/assets/libs/kickers-united-2-4-1632219211773.png" class="asset" transform="matrix(0.07657047361135483,0,0,0.07657047361135483,57.612205505371094,79.04178619384764)"></image><image width="739" height="760" xlink:href="https://lct-designs.s3.us-west-1.amazonaws.com/assets/libs/kickers-united-2-1-1632219131692.png" class="asset" transform="matrix(0.17826765775680542,0,0,0.17826765775680545,19.661127090454094,135.50054931640625)"></image><g class="mask" style="pointer-events: none;"><g><path fill="#BCBEC0" d="M-3642.4-2101.7v4589.1h7813.4v-4589.1H-3642.4z M500.5,67.2v233.3v66.7H0.5v-66.7V67.2V0.5h500V67.2z" transform="matrix(1,0,0,1,0,0)"></path><g transform="matrix(1,0,0,1,0,0)">
	<rect x="0.5" y="300.5" opacity="0.95" fill="#F1F2F2" width="500" height="66.7"></rect>
	<rect x="0.5" y="0.5" opacity="0.95" fill="#F1F2F2" width="500" height="66.7"></rect>
</g></g></g></svg>