<svg xmlns="http://www.w3.org/2000/svg" version="1.1" xmlns:xlink="http://www.w3.org/1999/xlink" xmlns:svgjs="http://svgjs.dev/svgjs" width="100%" height="100%" viewBox="1 1 499 365.70001220703125" preserveAspectRatio="none" data-info="{&quot;_id&quot;:4,&quot;name&quot;:&quot;POLE POCKET SOCCER BANNERS&quot;,&quot;information&quot;:&quot;- Size: 3’x5’\n- Material: heavy duty vinyl banner\n- Digitally printed on vinyl&quot;,&quot;price&quot;:&quot;95.00&quot;,&quot;sale_price&quot;:&quot;89.99&quot;,&quot;type&quot;:&quot;pole-pocket&quot;,&quot;cover&quot;:{&quot;key&quot;:&quot;assets/models/pole-1628062864266-1631924568908.png&quot;,&quot;url&quot;:&quot;https://lct-designs.s3.us-west-1.amazonaws.com/assets/models/pole-1628062864266-1631924568908.png&quot;},&quot;back&quot;:{&quot;key&quot;:&quot;assets/models/pole-1631924700152.svg&quot;,&quot;url&quot;:&quot;https://lct-designs.s3.us-west-1.amazonaws.com/assets/models/pole-1631924700152.svg&quot;},&quot;mask&quot;:{&quot;key&quot;:&quot;assets/models/pole-mask-1631925211715.svg&quot;,&quot;url&quot;:&quot;https://lct-designs.s3.us-west-1.amazonaws.com/assets/models/pole-mask-1631925211715.svg&quot;},&quot;pos&quot;:&quot;2&quot;,&quot;accessories&quot;:&quot;2,3&quot;}" style="background-color: white;"><g class="model" style="pointer-events: none;"><polygon fill="#FFFFFF" points="0.5,0.5 0.5,67.2 0.5,300.5 0.5,367.2 500.5,367.2 500.5,300.5 500.5,67.2 500.5,0.5 "></polygon></g><image width="760" height="556" xlink:href="https://lct-designs.s3.us-west-1.amazonaws.com/assets/libs/transformers-5-1653386108032.png" class="asset background locked" transform="matrix(0.6595323960558116,0,0,0.6595323960558116,0,0)"></image><image width="760" height="129" xlink:href="https://lct-designs.s3.us-west-1.amazonaws.com/assets/libs/transformers-2-1653386200120.png" class="asset" transform="matrix(0.49891746044158936,0,0,0.4989174604415893,17.913812637329116,92.96527862548828)"></image><image width="481" height="760" xlink:href="https://lct-designs.s3.us-west-1.amazonaws.com/assets/libs/transformers-4-1653386169006.png" class="asset" transform="matrix(0.19976991415023806,0,0,0.26597490906715393,401.8019104003907,92.86118316650388)"></image><image width="481" height="760" xlink:href="https://lct-designs.s3.us-west-1.amazonaws.com/assets/libs/transformers-soccer--1-1653878097585.png" class="asset" transform="matrix(0.0589107908308506,0,0,0.05865006893873215,14.48913669586183,164.34425354003906)"></image><text fill="#ffffff" font-family="Algerian" font-size="45" stroke-opacity="1" stroke-width="0" stroke="#000000" x="164.47964148243761" y="198.80326675242046" transform="matrix(0.48166218400001526,0,0,0.4795306324958802,-30.370113372802734,100.68846893310547)" svgjs:data="{&quot;leading&quot;:&quot;1.3&quot;}"><tspan dy="0" x="164.47964148243761" svgjs:data="{&quot;newLined&quot;:true}">player</tspan></text><image width="481" height="760" xlink:href="https://lct-designs.s3.us-west-1.amazonaws.com/assets/libs/transformers-soccer--1-1653878097585.png" class="asset" transform="matrix(0.05891088396310806,0,0,0.05865016207098961,271.4919128417968,158.50881958007812)"></image><text fill="#ffffff" font-family="Algerian" font-size="45" stroke-opacity="1" stroke-width="0" stroke="#000000" x="164.47964148243761" y="198.80326675242046" transform="matrix(0.48166218400001526,0,0,0.4795306324958802,227.05970764160156,94.0026626586914)" svgjs:data="{&quot;leading&quot;:&quot;1.3&quot;}"><tspan dy="0" x="164.47964148243761" svgjs:data="{&quot;newLined&quot;:true}">player</tspan></text><image width="481" height="760" xlink:href="https://lct-designs.s3.us-west-1.amazonaws.com/assets/libs/transformers-soccer--1-1653878097585.png" class="asset" transform="matrix(0.05891083180904389,0,0,0.058650113642215736,147.11253356933597,160.34510803222653)"></image><text fill="#ffffff" font-family="Algerian" font-size="45" stroke-opacity="1" stroke-width="0" stroke="#000000" x="164.47964148243761" y="198.80326675242046" transform="matrix(0.48166218400001526,0,0,0.4795306324958802,104.37709045410156,96.97891998291013)" svgjs:data="{&quot;leading&quot;:&quot;1.3&quot;}"><tspan dy="0" x="164.47964148243761" svgjs:data="{&quot;newLined&quot;:true}">player</tspan></text><image width="481" height="760" xlink:href="https://lct-designs.s3.us-west-1.amazonaws.com/assets/libs/transformers-soccer--1-1653878097585.png" class="asset" transform="matrix(0.05891085788607597,0,0,0.05865014344453812,112.36058807373047,248.68438720703122)"></image><image width="481" height="760" xlink:href="https://lct-designs.s3.us-west-1.amazonaws.com/assets/libs/transformers-soccer--1-1653878097585.png" class="asset" transform="matrix(0.05891092494130135,0,0,0.0586501993238926,236.7399673461914,246.84809875488284)"></image><text fill="#ffffff" font-family="Algerian" font-size="45" stroke-opacity="1" stroke-width="0" stroke="#000000" x="164.47964148243761" y="198.80326675242046" transform="matrix(0.48166218400001526,0,0,0.4795308709144593,192.30777740478516,182.34193420410156)" svgjs:data="{&quot;leading&quot;:&quot;1.3&quot;}"><tspan dy="0" x="164.47964148243761" svgjs:data="{&quot;newLined&quot;:true}">player</tspan></text><text fill="#ffffff" font-family="Algerian" font-size="45" stroke-opacity="1" stroke-width="0" stroke="#000000" x="164.47964148243761" y="198.80326675242046" transform="matrix(0.48166218400001526,0,0,0.4795308709144593,69.6251449584961,185.3181915283203)" svgjs:data="{&quot;leading&quot;:&quot;1.3&quot;}"><tspan dy="0" x="164.47964148243761" svgjs:data="{&quot;newLined&quot;:true}">player</tspan></text><image width="481" height="760" xlink:href="https://lct-designs.s3.us-west-1.amazonaws.com/assets/libs/transformers-soccer--1-1653878097585.png" class="asset" transform="matrix(0.0589108020067215,0,0,0.05865008383989334,37.3719482421875,208.97399902343747)"></image><text fill="#ffffff" font-family="Algerian" font-size="45" stroke-opacity="1" stroke-width="0" stroke="#000000" x="164.47964148243761" y="198.80326675242046" transform="matrix(0.48166218400001526,0,0,0.47953081130981445,-7.487300872802734,145.3182220458984)" svgjs:data="{&quot;leading&quot;:&quot;1.3&quot;}"><tspan dy="0" x="164.47964148243761" svgjs:data="{&quot;newLined&quot;:true}">player</tspan></text><image width="481" height="760" xlink:href="https://lct-designs.s3.us-west-1.amazonaws.com/assets/libs/transformers-soccer--1-1653878097585.png" class="asset" transform="matrix(0.05891093239188194,0,0,0.058650210499763496,294.3747253417969,203.13856506347653)"></image><text fill="#ffffff" font-family="Algerian" font-size="45" stroke-opacity="1" stroke-width="0" stroke="#000000" x="164.47964148243761" y="198.80326675242046" transform="matrix(0.48166218400001526,0,0,0.479530930519104,127.25990295410156,141.60865783691406)" svgjs:data="{&quot;leading&quot;:&quot;1.3&quot;}"><tspan dy="0" x="164.47964148243761" svgjs:data="{&quot;newLined&quot;:true}">player</tspan></text><image width="481" height="760" xlink:href="https://lct-designs.s3.us-west-1.amazonaws.com/assets/libs/transformers-soccer--1-1653878097585.png" class="asset" transform="matrix(0.05891086533665657,0,0,0.05865015462040902,169.99534606933594,204.97485351562503)"></image><text fill="#ffffff" font-family="Algerian" font-size="45" stroke-opacity="1" stroke-width="0" stroke="#000000" x="164.47964148243761" y="198.80326675242046" transform="matrix(0.48166218400001526,0,0,0.4795309007167816,249.94253540039062,138.6324005126953)" svgjs:data="{&quot;leading&quot;:&quot;1.3&quot;}"><tspan dy="0" x="164.47964148243761" svgjs:data="{&quot;newLined&quot;:true}">player</tspan></text><text fill="#ffffff" font-family="Algerian" font-size="45" x="17.806980654800896" y="198.80326675242046" transform="matrix(0.3579260110855103,0,0,0.35792601108551025,1.3111989498138428,13.145624160766594)" svgjs:data="{&quot;leading&quot;:&quot;1.3&quot;}"><tspan dy="0" x="17.806980654800896" svgjs:data="{&quot;newLined&quot;:true}">coach:coach's name</tspan></text><text fill="#ffffff" font-family="Algerian" font-size="45" x="17.806980654800896" y="198.80326675242046" transform="matrix(0.3579260110855103,0,0,0.35792601108551025,356.38647460937494,11.765323638916009)" svgjs:data="{&quot;leading&quot;:&quot;1.3&quot;}"><tspan dy="0" x="17.806980654800896" svgjs:data="{&quot;newLined&quot;:true}">team mom: name</tspan></text><g class="mask" style="pointer-events: none;"><g><path fill="#BCBEC0" d="M-3642.4-2101.7v4589.1h7813.4v-4589.1H-3642.4z M500.5,67.2v233.3v66.7H0.5v-66.7V67.2V0.5h500V67.2z" transform="matrix(1,0,0,1,0,0)"></path><g transform="matrix(1,0,0,1,0,0)">
	<rect x="0.5" y="300.5" opacity="0.95" fill="#F1F2F2" width="500" height="66.7"></rect>
	<rect x="0.5" y="0.5" opacity="0.95" fill="#F1F2F2" width="500" height="66.7"></rect>
</g></g></g></svg>