<svg xmlns="http://www.w3.org/2000/svg" version="1.1" xmlns:xlink="http://www.w3.org/1999/xlink" xmlns:svgjs="http://svgjs.dev/svgjs" width="100%" height="100%" viewBox="1 1 499 365.70001220703125" preserveAspectRatio="none" data-info="{&quot;_id&quot;:4,&quot;name&quot;:&quot;POLE POCKET SOCCER BANNERS&quot;,&quot;information&quot;:&quot;- Size: 3’x5’\n- Material: heavy duty vinyl banner\n- Digitally printed on vinyl&quot;,&quot;price&quot;:&quot;95.00&quot;,&quot;sale_price&quot;:&quot;89.99&quot;,&quot;type&quot;:&quot;pole-pocket&quot;,&quot;cover&quot;:{&quot;key&quot;:&quot;assets/models/pole-1628062864266-1631924568908.png&quot;,&quot;url&quot;:&quot;https://lct-designs.s3.us-west-1.amazonaws.com/assets/models/pole-1628062864266-1631924568908.png&quot;},&quot;back&quot;:{&quot;key&quot;:&quot;assets/models/pole-1631924700152.svg&quot;,&quot;url&quot;:&quot;https://lct-designs.s3.us-west-1.amazonaws.com/assets/models/pole-1631924700152.svg&quot;},&quot;mask&quot;:{&quot;key&quot;:&quot;assets/models/pole-mask-1631925211715.svg&quot;,&quot;url&quot;:&quot;https://lct-designs.s3.us-west-1.amazonaws.com/assets/models/pole-mask-1631925211715.svg&quot;},&quot;pos&quot;:&quot;2&quot;,&quot;accessories&quot;:&quot;2,3&quot;}" style="background-color: white;"><g class="model" style="pointer-events: none;"><polygon fill="#FFFFFF" points="0.5,0.5 0.5,67.2 0.5,300.5 0.5,367.2 500.5,367.2 500.5,300.5 500.5,67.2 500.5,0.5 "></polygon></g><image width="760" height="455" xlink:href="https://lct-designs.s3.us-west-1.amazonaws.com/assets/libs/penguins-1-1654491524381.png" class="asset background locked" transform="matrix(0.805934092762706,0,0,0.805934092762706,0,0)"></image><image width="760" height="238" xlink:href="https://lct-designs.s3.us-west-1.amazonaws.com/assets/libs/penguins-2-1654491524381.png" class="asset" transform="matrix(0.4370109438896179,0,0,0.4370109438896179,20.780143737792983,98.2169418334961)"></image><image width="496" height="760" xlink:href="https://lct-designs.s3.us-west-1.amazonaws.com/assets/libs/penguins-3-1654491524381.png" class="asset" transform="matrix(0.24599720537662506,0,0,0.2459972053766251,360.2994384765625,98.84248352050781)"></image><image width="760" height="758" xlink:href="https://lct-designs.s3.us-west-1.amazonaws.com/assets/libs/alliance1-1632042447894.png" class="asset" transform="matrix(0.03271064907312394,0,0,0.03352715075016022,22.861341476440444,237.13455200195315)"></image><text fill="#000000" font-family="Geometos Rounded" font-size="45" x="192.69293646534777" y="199.03331588572124" transform="matrix(0.4508466124534607,0,0,0.462100237607956,-34.70272827148439,164.674560546875)" svgjs:data="{&quot;leading&quot;:&quot;1.3&quot;}"><tspan dy="0" x="192.69293646534777" svgjs:data="{&quot;newLined&quot;:true}">Player</tspan></text><text fill="#000000" font-family="Geometos Rounded" font-size="45" x="192.69293646534777" y="199.03331588572124" transform="matrix(0.4508466124534607,0,0,0.462100237607956,91.10648345947266,165.56619262695312)" svgjs:data="{&quot;leading&quot;:&quot;1.3&quot;}"><tspan dy="0" x="192.69293646534777" svgjs:data="{&quot;newLined&quot;:true}">Player</tspan></text><image width="760" height="758" xlink:href="https://lct-designs.s3.us-west-1.amazonaws.com/assets/libs/alliance1-1632042447894.png" class="asset" transform="matrix(0.03271064907312394,0,0,0.03352715075016022,148.57337951660156,237.4822845458984)"></image><text fill="#000000" font-family="Geometos Rounded" font-size="45" x="192.69293646534777" y="199.03331588572124" transform="matrix(0.4508466124534607,0,0,0.462100237607956,209.7470703125,164.68310546875)" svgjs:data="{&quot;leading&quot;:&quot;1.3&quot;}"><tspan dy="0" x="192.69293646534777" svgjs:data="{&quot;newLined&quot;:true}">Player</tspan></text><image width="760" height="758" xlink:href="https://lct-designs.s3.us-west-1.amazonaws.com/assets/libs/alliance1-1632042447894.png" class="asset" transform="matrix(0.03271064907312394,0,0,0.03352715075016022,268.4086608886719,234.89324951171872)"></image><image width="760" height="758" xlink:href="https://lct-designs.s3.us-west-1.amazonaws.com/assets/libs/alliance1-1632042447894.png" class="asset" transform="matrix(0.03271064907312394,0,0,0.03352715075016022,9.856306076049805,206.30781555175778)"></image><text fill="#000000" font-family="Geometos Rounded" font-size="45" x="192.69293646534777" y="199.03331588572124" transform="matrix(0.4508466124534607,0,0,0.462100237607956,-47.70776367187501,133.8478240966797)" svgjs:data="{&quot;leading&quot;:&quot;1.3&quot;}"><tspan dy="0" x="192.69293646534777" svgjs:data="{&quot;newLined&quot;:true}">Player</tspan></text><text fill="#000000" font-family="Geometos Rounded" font-size="45" x="192.69293646534777" y="199.03331588572124" transform="matrix(0.4508466124534607,0,0,0.462100237607956,78.10144805908203,134.7394561767578)" svgjs:data="{&quot;leading&quot;:&quot;1.3&quot;}"><tspan dy="0" x="192.69293646534777" svgjs:data="{&quot;newLined&quot;:true}">Player</tspan></text><text fill="#000000" font-family="Geometos Rounded" font-size="45" x="192.69293646534777" y="199.03331588572124" transform="matrix(0.4508466124534607,0,0,0.462100237607956,196.74203491210938,133.8563690185547)" svgjs:data="{&quot;leading&quot;:&quot;1.3&quot;}"><tspan dy="0" x="192.69293646534777" svgjs:data="{&quot;newLined&quot;:true}">Player</tspan></text><image width="760" height="758" xlink:href="https://lct-designs.s3.us-west-1.amazonaws.com/assets/libs/alliance1-1632042447894.png" class="asset" transform="matrix(0.03271064907312394,0,0,0.03352715075016022,255.40362548828125,204.06651306152347)"></image><image width="760" height="758" xlink:href="https://lct-designs.s3.us-west-1.amazonaws.com/assets/libs/alliance1-1632042447894.png" class="asset" transform="matrix(0.03271064907312394,0,0,0.03352715075016022,135.5683441162109,206.6555480957031)"></image><image width="760" height="758" xlink:href="https://lct-designs.s3.us-west-1.amazonaws.com/assets/libs/alliance1-1632042447894.png" class="asset" transform="matrix(0.03271064907312394,0,0,0.03352715075016022,65.06837463378906,269.3415832519532)"></image><text fill="#000000" font-family="Geometos Rounded" font-size="45" x="192.69293646534777" y="199.03331588572124" transform="matrix(0.4508466124534607,0,0,0.462100237607956,7.504302978515625,196.881591796875)" svgjs:data="{&quot;leading&quot;:&quot;1.3&quot;}"><tspan dy="0" x="192.69293646534777" svgjs:data="{&quot;newLined&quot;:true}">Player</tspan></text><text fill="#000000" font-family="Geometos Rounded" font-size="45" x="192.69293646534777" y="199.03331588572124" transform="matrix(0.4508466124534607,0,0,0.462100237607956,133.31352233886722,197.7732238769531)" svgjs:data="{&quot;leading&quot;:&quot;1.3&quot;}"><tspan dy="0" x="192.69293646534777" svgjs:data="{&quot;newLined&quot;:true}">Player</tspan></text><image width="760" height="758" xlink:href="https://lct-designs.s3.us-west-1.amazonaws.com/assets/libs/alliance1-1632042447894.png" class="asset" transform="matrix(0.03271064907312394,0,0,0.03352715075016022,190.78041076660156,269.68931579589844)"></image><text fill="#000000" font-family="Geometos Rounded" font-size="45" x="-28.284877255355354" y="199.72346710032085" stroke-opacity="1" stroke-width="0" stroke="#ffffff" transform="matrix(0.27611491084098816,0,0,0.27611491084098816,15.412828445434556,31.396034240722663)" svgjs:data="{&quot;leading&quot;:&quot;1.3&quot;}"><tspan dy="0" x="-28.284877255355354" svgjs:data="{&quot;newLined&quot;:true}">Coach:COach's name</tspan></text><text fill="#000000" font-family="Geometos Rounded" font-size="45" x="-28.284877255355354" y="199.72346710032085" stroke-opacity="1" stroke-width="0" stroke="#ffffff" transform="matrix(0.27611491084098816,0,0,0.27611491084098816,206.69236755371094,31.396030426025384)" svgjs:data="{&quot;leading&quot;:&quot;1.3&quot;}"><tspan dy="0" x="-28.284877255355354" svgjs:data="{&quot;newLined&quot;:true}">Team mom:name</tspan></text><g class="mask" style="pointer-events: none;"><g><path fill="#BCBEC0" d="M-3642.4-2101.7v4589.1h7813.4v-4589.1H-3642.4z M500.5,67.2v233.3v66.7H0.5v-66.7V67.2V0.5h500V67.2z" transform="matrix(1,0,0,1,0,0)"></path><g transform="matrix(1,0,0,1,0,0)">
	<rect x="0.5" y="300.5" opacity="0.95" fill="#F1F2F2" width="500" height="66.7"></rect>
	<rect x="0.5" y="0.5" opacity="0.95" fill="#F1F2F2" width="500" height="66.7"></rect>
</g></g></g></svg>