<svg xmlns="http://www.w3.org/2000/svg" version="1.1" xmlns:xlink="http://www.w3.org/1999/xlink" xmlns:svgjs="http://svgjs.dev/svgjs" width="100%" height="100%" viewBox="1 1 499 365.70001220703125" preserveAspectRatio="none" data-info="{&quot;_id&quot;:4,&quot;name&quot;:&quot;POLE POCKET SOCCER BANNERS&quot;,&quot;information&quot;:&quot;- Size: 3’x5’\n- Material: heavy duty vinyl banner\n- Digitally printed on vinyl&quot;,&quot;price&quot;:&quot;95.00&quot;,&quot;sale_price&quot;:&quot;89.99&quot;,&quot;type&quot;:&quot;pole-pocket&quot;,&quot;cover&quot;:{&quot;key&quot;:&quot;assets/models/pole-1628062864266-1631924568908.png&quot;,&quot;url&quot;:&quot;https://lct-designs.s3.us-west-1.amazonaws.com/assets/models/pole-1628062864266-1631924568908.png&quot;},&quot;back&quot;:{&quot;key&quot;:&quot;assets/models/pole-1631924700152.svg&quot;,&quot;url&quot;:&quot;https://lct-designs.s3.us-west-1.amazonaws.com/assets/models/pole-1631924700152.svg&quot;},&quot;mask&quot;:{&quot;key&quot;:&quot;assets/models/pole-mask-1631925211715.svg&quot;,&quot;url&quot;:&quot;https://lct-designs.s3.us-west-1.amazonaws.com/assets/models/pole-mask-1631925211715.svg&quot;},&quot;pos&quot;:&quot;2&quot;,&quot;accessories&quot;:&quot;2,3&quot;}" style="background-color: white;"><g class="model" style="pointer-events: none;"><polygon fill="#FFFFFF" points="0.5,0.5 0.5,67.2 0.5,300.5 0.5,367.2 500.5,367.2 500.5,300.5 500.5,67.2 500.5,0.5 "></polygon></g><image width="760" height="557" xlink:href="https://lct-designs.s3.us-west-1.amazonaws.com/assets/libs/asset-7-1654239632414.png" class="asset background locked" transform="matrix(0.6583483163501459,0,0,0.6583483163501459,0,0)"></image><image width="760" height="760" xlink:href="https://lct-designs.s3.us-west-1.amazonaws.com/assets/libs/untitled-2-1654247792421.png" class="asset" transform="matrix(0.3932334780693054,0,0,0.39323347806930536,285.85882568359375,70.2022705078125)"></image><image width="754" height="760" xlink:href="https://lct-designs.s3.us-west-1.amazonaws.com/assets/libs/asset-2-1653978017793.png" class="asset" transform="matrix(0.06088122725486755,0,0,0.06088122725486755,28.12326431274414,219.76269531249997)"></image><text fill="#ffffff" font-family="American Captain" font-size="45" stroke-opacity="1" stroke-width="2" stroke="#0085bf" x="76.13831921497282" y="200.19087427705915" transform="matrix(0.4919695854187011,0,0,0.4919695854187011,27.04811096191409,150.65559387207028)" svgjs:data="{&quot;leading&quot;:&quot;1.3&quot;}"><tspan dy="0" x="76.13831921497282" svgjs:data="{&quot;newLined&quot;:true}">player</tspan></text><image width="754" height="760" xlink:href="https://lct-designs.s3.us-west-1.amazonaws.com/assets/libs/asset-2-1653978017793.png" class="asset" transform="matrix(0.06088122725486755,0,0,0.06088122725486755,208.20832824707028,255.21406555175778)"></image><text fill="#ffffff" font-family="American Captain" font-size="45" stroke-opacity="1" stroke-width="2" stroke="#0085bf" x="76.13831921497282" y="200.19087427705915" transform="matrix(0.4919695854187011,0,0,0.4919695854187011,207.13317871093753,186.10696411132812)" svgjs:data="{&quot;leading&quot;:&quot;1.3&quot;}"><tspan dy="0" x="76.13831921497282" svgjs:data="{&quot;newLined&quot;:true}">player</tspan></text><image width="754" height="760" xlink:href="https://lct-designs.s3.us-west-1.amazonaws.com/assets/libs/asset-2-1653978017793.png" class="asset" transform="matrix(0.06088122725486755,0,0,0.06088122725486755,131.18310546875003,214.2234191894531)"></image><text fill="#ffffff" font-family="American Captain" font-size="45" stroke-opacity="1" stroke-width="2" stroke="#0085bf" x="76.13831921497282" y="200.19087427705915" transform="matrix(0.4919695854187011,0,0,0.4919695854187011,130.10795593261722,145.1163177490234)" svgjs:data="{&quot;leading&quot;:&quot;1.3&quot;}"><tspan dy="0" x="76.13831921497282" svgjs:data="{&quot;newLined&quot;:true}">player</tspan></text><image width="754" height="760" xlink:href="https://lct-designs.s3.us-west-1.amazonaws.com/assets/libs/asset-2-1653978017793.png" class="asset" transform="matrix(0.06088122725486755,0,0,0.06088122725486755,112.96210479736325,256.32191467285156)"></image><text fill="#ffffff" font-family="American Captain" font-size="45" stroke-opacity="1" stroke-width="2" stroke="#0085bf" x="76.13831921497282" y="200.19087427705915" transform="matrix(0.4919695854187011,0,0,0.4919695854187011,111.88695526123044,187.21481323242185)" svgjs:data="{&quot;leading&quot;:&quot;1.3&quot;}"><tspan dy="0" x="76.13831921497282" svgjs:data="{&quot;newLined&quot;:true}">player</tspan></text><text fill="#ffffff" font-family="American Captain" font-size="45" stroke-opacity="1" stroke-width="2" stroke="#0085bf" x="76.13831921497282" y="200.19087427705915" transform="matrix(0.4919695854187011,0,0,0.4919695854187011,16.640716552734375,188.8765869140625)" svgjs:data="{&quot;leading&quot;:&quot;1.3&quot;}"><tspan dy="0" x="76.13831921497282" svgjs:data="{&quot;newLined&quot;:true}">player</tspan></text><image width="754" height="760" xlink:href="https://lct-designs.s3.us-west-1.amazonaws.com/assets/libs/asset-2-1653978017793.png" class="asset" transform="matrix(0.06088122725486755,0,0,0.06088122725486755,17.715866088867188,257.9836730957031)"></image><image width="760" height="324" xlink:href="https://lct-designs.s3.us-west-1.amazonaws.com/assets/libs/waves-hb-soccer-banner-1654248315769.png" class="asset" transform="matrix(0.38368242979049677,0,0,0.3743419945240021,21.081386566162138,98.33255767822263)"></image><image width="754" height="760" xlink:href="https://lct-designs.s3.us-west-1.amazonaws.com/assets/libs/asset-2-1653978017793.png" class="asset" transform="matrix(0.06088122725486755,0,0,0.06088122725486755,221.50260925292972,214.2234191894531)"></image><text fill="#ffffff" font-family="American Captain" font-size="45" stroke-opacity="1" stroke-width="2" stroke="#0085bf" x="76.13831921497282" y="200.19087427705915" transform="matrix(0.4919695854187011,0,0,0.4919695854187011,218.21173095703128,143.4545440673828)" svgjs:data="{&quot;leading&quot;:&quot;1.3&quot;}"><tspan dy="0" x="76.13831921497282" svgjs:data="{&quot;newLined&quot;:true}">player</tspan></text><text fill="#ffffff" font-family="American Captain" font-size="45" stroke-opacity="1" stroke-width="2" stroke="#0085bf" x="98.77145214954314" y="200.19087427705915" transform="matrix(0.5494892597198486,0,0,0.48140317201614374,269.2710266113281,-3.402435302734375)" svgjs:data="{&quot;leading&quot;:&quot;1.3&quot;}"><tspan dy="0" x="98.77145214954314" svgjs:data="{&quot;newLined&quot;:true}">coach: coach's name</tspan></text><text fill="#ffffff" font-family="American Captain" font-size="45" stroke-opacity="1" stroke-width="2" stroke="#0085bf" x="98.77145214954314" y="200.19087427705915" transform="matrix(0.5023275017738342,0,0,0.44008523225784296,-38.1185493469238,4.352816581726074)" svgjs:data="{&quot;leading&quot;:&quot;1.3&quot;}"><tspan dy="0" x="98.77145214954314" svgjs:data="{&quot;newLined&quot;:true}">team mom: name</tspan></text><g class="mask" style="pointer-events: none;"><g><path fill="#BCBEC0" d="M-3642.4-2101.7v4589.1h7813.4v-4589.1H-3642.4z M500.5,67.2v233.3v66.7H0.5v-66.7V67.2V0.5h500V67.2z" transform="matrix(1,0,0,1,0,0)"></path><g transform="matrix(1,0,0,1,0,0)">
	<rect x="0.5" y="300.5" opacity="0.95" fill="#F1F2F2" width="500" height="66.7"></rect>
	<rect x="0.5" y="0.5" opacity="0.95" fill="#F1F2F2" width="500" height="66.7"></rect>
</g></g></g></svg>