<svg xmlns="http://www.w3.org/2000/svg" version="1.1" xmlns:xlink="http://www.w3.org/1999/xlink" xmlns:svgjs="http://svgjs.dev/svgjs" width="100%" height="100%" viewBox="1 1 499 365.70001220703125" preserveAspectRatio="none" data-info="{&quot;_id&quot;:4,&quot;name&quot;:&quot;POLE POCKET SOCCER BANNERS&quot;,&quot;information&quot;:&quot;- Size: 3’x5’\n- Material: heavy duty vinyl banner\n- Digitally printed on vinyl&quot;,&quot;price&quot;:&quot;95.00&quot;,&quot;sale_price&quot;:&quot;89.99&quot;,&quot;type&quot;:&quot;pole-pocket&quot;,&quot;cover&quot;:{&quot;key&quot;:&quot;assets/models/pole-1628062864266-1631924568908.png&quot;,&quot;url&quot;:&quot;https://lct-designs.s3.us-west-1.amazonaws.com/assets/models/pole-1628062864266-1631924568908.png&quot;},&quot;back&quot;:{&quot;key&quot;:&quot;assets/models/pole-1631924700152.svg&quot;,&quot;url&quot;:&quot;https://lct-designs.s3.us-west-1.amazonaws.com/assets/models/pole-1631924700152.svg&quot;},&quot;mask&quot;:{&quot;key&quot;:&quot;assets/models/pole-mask-1631925211715.svg&quot;,&quot;url&quot;:&quot;https://lct-designs.s3.us-west-1.amazonaws.com/assets/models/pole-mask-1631925211715.svg&quot;},&quot;pos&quot;:&quot;2&quot;,&quot;accessories&quot;:&quot;2,3&quot;}" style="background-color: white;"><g class="model" style="pointer-events: none;"><polygon fill="#FFFFFF" points="0.5,0.5 0.5,67.2 0.5,300.5 0.5,367.2 500.5,367.2 500.5,300.5 500.5,67.2 500.5,0.5 "></polygon></g><image width="760" height="556" xlink:href="https://lct-designs.s3.us-west-1.amazonaws.com/assets/libs/traiblazers-1-1652435481776.png" class="asset background locked" transform="matrix(0.6595323960558116,0,0,0.6595323960558116,0,0)"></image><image width="760" height="587" xlink:href="https://lct-designs.s3.us-west-1.amazonaws.com/assets/libs/traiblazers-2-1652435633996.png" class="asset" transform="matrix(0.2703121304512024,0,0,0.2703121304512024,251.4556121826172,89.97964477539062)"></image><image width="526" height="760" xlink:href="https://lct-designs.s3.us-west-1.amazonaws.com/assets/libs/traiblazers-3-1652435571866.png" class="asset" transform="matrix(0.1315789371728897,0,0,0.13157893717288974,395.7540893554688,188.56205749511722)"></image><image width="760" height="758" xlink:href="https://lct-designs.s3.us-west-1.amazonaws.com/assets/libs/alliance1-1632042447894.png" class="asset" transform="matrix(0.04660112038254738,0,0,0.04660112038254738,37.247623443603516,85.63113403320312)"></image><text fill="#ffffff" font-family="Comic Sans MS" font-size="45" x="166.9198956938634" y="202.02396987742046" stroke-opacity="1" stroke-width="1" stroke="#000000" transform="matrix(0.35596486926078796,0,0,0.3504680395126343,-34.208656311035156,69.95890426635745)" svgjs:data="{&quot;leading&quot;:&quot;1.3&quot;}"><tspan dy="0" x="166.9198956938634" svgjs:data="{&quot;newLined&quot;:true}">PLAYER</tspan></text><image width="760" height="758" xlink:href="https://lct-designs.s3.us-west-1.amazonaws.com/assets/libs/alliance1-1632042447894.png" class="asset" transform="matrix(0.04660112038254738,0,0,0.04660112038254738,106.14047241210938,86.55133819580075)"></image><text fill="#ffffff" font-family="Comic Sans MS" font-size="45" x="166.9198956938634" y="202.02396987742046" stroke-opacity="1" stroke-width="1" stroke="#000000" transform="matrix(0.35596486926078796,0,0,0.3504680395126343,34.684192657470675,70.87910842895508)" svgjs:data="{&quot;leading&quot;:&quot;1.3&quot;}"><tspan dy="0" x="166.9198956938634" svgjs:data="{&quot;newLined&quot;:true}">PLAYER</tspan></text><image width="760" height="758" xlink:href="https://lct-designs.s3.us-west-1.amazonaws.com/assets/libs/alliance1-1632042447894.png" class="asset" transform="matrix(0.04660112038254738,0,0,0.04660112038254738,45.86732482910156,150.96539306640625)"></image><text fill="#ffffff" font-family="Comic Sans MS" font-size="45" x="166.9198956938634" y="202.02396987742046" stroke-opacity="1" stroke-width="1" stroke="#000000" transform="matrix(0.35596486926078796,0,0,0.3504680395126343,-25.58895492553711,135.2931671142578)" svgjs:data="{&quot;leading&quot;:&quot;1.3&quot;}"><tspan dy="0" x="166.9198956938634" svgjs:data="{&quot;newLined&quot;:true}">PLAYER</tspan></text><image width="760" height="758" xlink:href="https://lct-designs.s3.us-west-1.amazonaws.com/assets/libs/alliance1-1632042447894.png" class="asset" transform="matrix(0.04660112038254738,0,0,0.04660112038254738,114.76017761230469,151.88558959960938)"></image><text fill="#ffffff" font-family="Comic Sans MS" font-size="45" x="166.9198956938634" y="202.02396987742046" stroke-opacity="1" stroke-width="1" stroke="#000000" transform="matrix(0.35596486926078796,0,0,0.3504680395126343,43.30389404296875,136.21336364746094)" svgjs:data="{&quot;leading&quot;:&quot;1.3&quot;}"><tspan dy="0" x="166.9198956938634" svgjs:data="{&quot;newLined&quot;:true}">PLAYER</tspan></text><image width="760" height="758" xlink:href="https://lct-designs.s3.us-west-1.amazonaws.com/assets/libs/alliance1-1632042447894.png" class="asset" transform="matrix(0.04660112038254738,0,0,0.04660112038254738,186.9959259033203,153.26589965820312)"></image><text fill="#ffffff" font-family="Comic Sans MS" font-size="45" x="166.9198956938634" y="202.02396987742046" stroke-opacity="1" stroke-width="1" stroke="#000000" transform="matrix(0.35596486926078796,0,0,0.3504680395126343,115.53964233398435,137.5936737060547)" svgjs:data="{&quot;leading&quot;:&quot;1.3&quot;}"><tspan dy="0" x="166.9198956938634" svgjs:data="{&quot;newLined&quot;:true}">PLAYER</tspan></text><image width="760" height="758" xlink:href="https://lct-designs.s3.us-west-1.amazonaws.com/assets/libs/alliance1-1632042447894.png" class="asset" transform="matrix(0.04660112038254738,0,0,0.04660112038254738,178.376220703125,87.93164062499997)"></image><text fill="#ffffff" font-family="Comic Sans MS" font-size="45" x="166.9198956938634" y="202.02396987742046" stroke-opacity="1" stroke-width="1" stroke="#000000" transform="matrix(0.35596486926078796,0,0,0.3504680395126343,106.91993713378909,72.25941467285156)" svgjs:data="{&quot;leading&quot;:&quot;1.3&quot;}"><tspan dy="0" x="166.9198956938634" svgjs:data="{&quot;newLined&quot;:true}">PLAYER</tspan></text><image width="760" height="758" xlink:href="https://lct-designs.s3.us-west-1.amazonaws.com/assets/libs/alliance1-1632042447894.png" class="asset" transform="matrix(0.04660112038254738,0,0,0.04660112038254738,71.8486328125,217.67994689941403)"></image><text fill="#ffffff" font-family="Comic Sans MS" font-size="45" x="166.9198956938634" y="202.02396987742046" stroke-opacity="1" stroke-width="1" stroke="#000000" transform="matrix(0.35596486926078796,0,0,0.3504680395126343,0.3923492431640625,202.00772094726565)" svgjs:data="{&quot;leading&quot;:&quot;1.3&quot;}"><tspan dy="0" x="166.9198956938634" svgjs:data="{&quot;newLined&quot;:true}">PLAYER</tspan></text><image width="760" height="758" xlink:href="https://lct-designs.s3.us-west-1.amazonaws.com/assets/libs/alliance1-1632042447894.png" class="asset" transform="matrix(0.04660112038254738,0,0,0.04660112038254738,144.08438110351565,219.06025695800784)"></image><text fill="#ffffff" font-family="Comic Sans MS" font-size="45" x="166.9198956938634" y="202.02396987742046" stroke-opacity="1" stroke-width="1" stroke="#000000" transform="matrix(0.35596486926078796,0,0,0.3504680395126343,72.62809753417972,203.38803100585935)" svgjs:data="{&quot;leading&quot;:&quot;1.3&quot;}"><tspan dy="0" x="166.9198956938634" svgjs:data="{&quot;newLined&quot;:true}">PLAYER</tspan></text><text fill="#ffffff" font-family="Comic Sans MS" font-size="45" stroke-opacity="1" stroke-width="1" stroke="#000000" x="-4.140391781722542" y="202.02396987742046" transform="matrix(0.228591188788414,0,0,0.21910202503204346,7.388377189636216,36.138557434082024)" svgjs:data="{&quot;leading&quot;:&quot;1.3&quot;}"><tspan dy="0" x="-4.140391781722542" svgjs:data="{&quot;newLined&quot;:true}">COACH:C0ACH'S NAME</tspan></text><text fill="#000000" font-family="Comic Sans MS" font-size="45" stroke-opacity="1" stroke-width="1" stroke="#000000" x="-4.140391781722542" y="202.02396987742046" transform="matrix(0.228591188788414,0,0,0.21910202503204346,395.13079833984375,35.67845916748046)" svgjs:data="{&quot;leading&quot;:&quot;1.3&quot;}"><tspan dy="0" x="-4.140391781722542" svgjs:data="{&quot;newLined&quot;:true}">TEAM MOM: NAME</tspan></text><g class="mask" style="pointer-events: none;"><g><path fill="#BCBEC0" d="M-3642.4-2101.7v4589.1h7813.4v-4589.1H-3642.4z M500.5,67.2v233.3v66.7H0.5v-66.7V67.2V0.5h500V67.2z" transform="matrix(1,0,0,1,0,0)"></path><g transform="matrix(1,0,0,1,0,0)">
	<rect x="0.5" y="300.5" opacity="0.95" fill="#F1F2F2" width="500" height="66.7"></rect>
	<rect x="0.5" y="0.5" opacity="0.95" fill="#F1F2F2" width="500" height="66.7"></rect>
</g></g></g></svg>