<svg xmlns="http://www.w3.org/2000/svg" version="1.1" xmlns:xlink="http://www.w3.org/1999/xlink" xmlns:svgjs="http://svgjs.dev/svgjs" width="100%" height="100%" viewBox="1 1 499 365.70001220703125" preserveAspectRatio="none" data-info="{&quot;_id&quot;:4,&quot;name&quot;:&quot;POLE POCKET SOCCER BANNERS&quot;,&quot;information&quot;:&quot;- Size: 3’x5’\n- Material: heavy duty vinyl banner\n- Digitally printed on vinyl&quot;,&quot;price&quot;:&quot;95.00&quot;,&quot;sale_price&quot;:&quot;89.99&quot;,&quot;type&quot;:&quot;pole-pocket&quot;,&quot;cover&quot;:{&quot;key&quot;:&quot;assets/models/pole-1628062864266-1631924568908.png&quot;,&quot;url&quot;:&quot;https://lct-designs.s3.us-west-1.amazonaws.com/assets/models/pole-1628062864266-1631924568908.png&quot;},&quot;back&quot;:{&quot;key&quot;:&quot;assets/models/pole-1631924700152.svg&quot;,&quot;url&quot;:&quot;https://lct-designs.s3.us-west-1.amazonaws.com/assets/models/pole-1631924700152.svg&quot;},&quot;mask&quot;:{&quot;key&quot;:&quot;assets/models/pole-mask-1631925211715.svg&quot;,&quot;url&quot;:&quot;https://lct-designs.s3.us-west-1.amazonaws.com/assets/models/pole-mask-1631925211715.svg&quot;},&quot;pos&quot;:&quot;2&quot;,&quot;accessories&quot;:&quot;2,3&quot;}" style="background-color: white;"><g class="model" style="pointer-events: none;"><polygon fill="#FFFFFF" points="0.5,0.5 0.5,67.2 0.5,300.5 0.5,367.2 500.5,367.2 500.5,300.5 500.5,67.2 500.5,0.5 "></polygon></g><image width="760" height="556" xlink:href="https://lct-designs.s3.us-west-1.amazonaws.com/assets/libs/crew-1632127276978.png" class="asset background locked" transform="matrix(0.6595323960558116,0,0,0.6595323960558116,0,0)"></image><text fill="#ec1c24" font-family="Chunky Funks" font-size="30" x="196.88127233350318" y="200.48091056834267" stroke-opacity="1" stroke-width="1" stroke="#000000" transform="matrix(0.35179111361503596,0,0,0.351791113615036,-33.38740921020508,12.634693145751953)" svgjs:data="{&quot;leading&quot;:&quot;1.3&quot;}"><tspan dy="0" x="196.88127233350318" svgjs:data="{&quot;newLined&quot;:true}">COACH: COACH'S NAME</tspan></text><text fill="#ec1c24" font-family="Chunky Funks" font-size="30" x="196.88127233350318" y="200.48091056834267" stroke-opacity="1" stroke-width="1" stroke="#000000" transform="matrix(0.35179111361503596,0,0,0.351791113615036,-55.067806243896484,22.377405166625977)" svgjs:data="{&quot;leading&quot;:&quot;1.3&quot;}"><tspan dy="0" x="196.88127233350318" svgjs:data="{&quot;newLined&quot;:true}">TEAM MOM: TEAM MOM'S NAME</tspan><tspan dy="39" x="196.88127233350318" svgjs:data="{&quot;newLined&quot;:true}"></tspan></text><image width="719" height="760" xlink:href="https://lct-designs.s3.us-west-1.amazonaws.com/assets/libs/crew-1632127468103.png" class="asset" transform="matrix(0.22496487200260162,0,0,0.22496487200260162,14.86768531799315,112.0577392578125)"></image><image width="760" height="686" xlink:href="https://lct-designs.s3.us-west-1.amazonaws.com/assets/libs/crew-1632127577713.png" class="asset" transform="matrix(0.1557193398475647,0,0,0.1557193398475647,182.84790039062497,158.9192352294922)"></image><text fill="#ec1c24" font-family="Chunky Funks" font-size="25" x="196.88127233350318" y="200.48091056834267" stroke-opacity="1" stroke-width="1" stroke="#000000" transform="matrix(0.5186163820222234,0,0,0.5186163820222234,104.89241367400697,20.003919426988432)" svgjs:data="{&quot;leading&quot;:&quot;1.3&quot;}"><tspan dy="0" x="196.88127233350318" svgjs:data="{&quot;newLined&quot;:true}">PLAYER</tspan><tspan dy="32.5" x="196.88127233350318" svgjs:data="{&quot;newLined&quot;:true}"></tspan></text><image width="760" height="619" xlink:href="https://lct-designs.s3.us-west-1.amazonaws.com/assets/libs/crew-2-1632127666737.png" class="asset" transform="matrix(0.05054498463776591,0,0,0.05054498463776591,212.54312708843463,78.81951013371508)"></image><text fill="#ec1c24" font-family="Chunky Funks" font-size="25" x="196.88127233350318" y="200.48091056834267" stroke-opacity="1" stroke-width="1" stroke="#000000" transform="matrix(0.5186154842376709,0,0,0.5186154842376709,336.592041015625,21.708328247070312)" svgjs:data="{&quot;leading&quot;:&quot;1.3&quot;}"><tspan dy="0" x="196.88127233350318" svgjs:data="{&quot;newLined&quot;:true}">PLAYER</tspan><tspan dy="32.5" x="196.88127233350318" svgjs:data="{&quot;newLined&quot;:true}"></tspan></text><image width="760" height="619" xlink:href="https://lct-designs.s3.us-west-1.amazonaws.com/assets/libs/crew-2-1632127666737.png" class="asset" transform="matrix(0.05054502189159393,0,0,0.05054502189159393,444.18548583984375,80.52391815185547)"></image><text fill="#ec1c24" font-family="Chunky Funks" font-size="25" x="196.88127233350318" y="200.48091056834267" stroke-opacity="1" stroke-width="1" stroke="#000000" transform="matrix(0.5186154842376709,0,0,0.5186154842376709,202.86929321289062,22.891220092773438)" svgjs:data="{&quot;leading&quot;:&quot;1.3&quot;}"><tspan dy="0" x="196.88127233350318" svgjs:data="{&quot;newLined&quot;:true}">PLAYER</tspan><tspan dy="32.5" x="196.88127233350318" svgjs:data="{&quot;newLined&quot;:true}"></tspan></text><image width="760" height="619" xlink:href="https://lct-designs.s3.us-west-1.amazonaws.com/assets/libs/crew-2-1632127666737.png" class="asset" transform="matrix(0.05054502189159393,0,0,0.05054502189159393,310.4627380371093,81.70680999755857)"></image><image width="760" height="619" xlink:href="https://lct-designs.s3.us-west-1.amazonaws.com/assets/libs/crew-2-1632127666737.png" class="asset" transform="matrix(0.05054502189159393,0,0,0.05054502189159393,310.4627380371093,161.91477966308594)"></image><text fill="#ec1c24" font-family="Chunky Funks" font-size="25" x="196.88127233350318" y="200.48091056834267" stroke-opacity="1" stroke-width="1" stroke="#000000" transform="matrix(0.5186150074005127,0,0,0.5186150074005127,202.869384765625,103.09918975830078)" svgjs:data="{&quot;leading&quot;:&quot;1.3&quot;}"><tspan dy="0" x="196.88127233350318" svgjs:data="{&quot;newLined&quot;:true}">PLAYER</tspan><tspan dy="32.5" x="196.88127233350318" svgjs:data="{&quot;newLined&quot;:true}"></tspan></text><text fill="#ec1c24" font-family="Chunky Funks" font-size="25" x="196.88127233350318" y="200.48091056834267" stroke-opacity="1" stroke-width="1" stroke="#000000" transform="matrix(0.5186149477958679,0,0,0.5186149477958679,202.869384765625,185.08151245117188)" svgjs:data="{&quot;leading&quot;:&quot;1.3&quot;}"><tspan dy="0" x="196.88127233350318" svgjs:data="{&quot;newLined&quot;:true}">PLAYER</tspan><tspan dy="32.5" x="196.88127233350318" svgjs:data="{&quot;newLined&quot;:true}"></tspan></text><image width="760" height="619" xlink:href="https://lct-designs.s3.us-west-1.amazonaws.com/assets/libs/crew-2-1632127666737.png" class="asset" transform="matrix(0.05054502189159393,0,0,0.05054502189159393,310.4627685546875,243.89712524414068)"></image><image width="760" height="619" xlink:href="https://lct-designs.s3.us-west-1.amazonaws.com/assets/libs/crew-2-1632127666737.png" class="asset" transform="matrix(0.05054502189159393,0,0,0.05054502189159393,444.18548583984375,160.73188781738278)"></image><text fill="#ec1c24" font-family="Chunky Funks" font-size="25" x="196.88127233350318" y="200.48091056834267" stroke-opacity="1" stroke-width="1" stroke="#000000" transform="matrix(0.5186150074005127,0,0,0.5186150074005127,336.5921325683593,101.91629791259766)" svgjs:data="{&quot;leading&quot;:&quot;1.3&quot;}"><tspan dy="0" x="196.88127233350318" svgjs:data="{&quot;newLined&quot;:true}">PLAYER</tspan><tspan dy="32.5" x="196.88127233350318" svgjs:data="{&quot;newLined&quot;:true}"></tspan></text><text fill="#ec1c24" font-family="Chunky Funks" font-size="25" x="196.88127233350318" y="200.48091056834267" stroke-opacity="1" stroke-width="1" stroke="#000000" transform="matrix(0.5186149477958679,0,0,0.5186149477958679,336.5921325683593,183.89862060546875)" svgjs:data="{&quot;leading&quot;:&quot;1.3&quot;}"><tspan dy="0" x="196.88127233350318" svgjs:data="{&quot;newLined&quot;:true}">PLAYER</tspan><tspan dy="32.5" x="196.88127233350318" svgjs:data="{&quot;newLined&quot;:true}"></tspan></text><image width="760" height="619" xlink:href="https://lct-designs.s3.us-west-1.amazonaws.com/assets/libs/crew-2-1632127666737.png" class="asset" transform="matrix(0.05054502189159393,0,0,0.05054502189159393,444.1855163574218,242.7142333984375)"></image><image width="760" height="619" xlink:href="https://lct-designs.s3.us-west-1.amazonaws.com/assets/libs/crew-2-1632127666737.png" class="asset" transform="matrix(0.05054501071572304,0,0,0.05054501071572304,379.3749084472656,128.09552001953125)"></image><text fill="#ec1c24" font-family="Chunky Funks" font-size="25" x="196.88127233350318" y="200.48091056834267" stroke-opacity="1" stroke-width="1" stroke="#000000" transform="matrix(0.518616259098053,0,0,0.518616259098053,271.78128051757807,69.2799301147461)" svgjs:data="{&quot;leading&quot;:&quot;1.3&quot;}"><tspan dy="0" x="196.88127233350318" svgjs:data="{&quot;newLined&quot;:true}">PLAYER</tspan><tspan dy="32.5" x="196.88127233350318" svgjs:data="{&quot;newLined&quot;:true}"></tspan></text><image width="760" height="619" xlink:href="https://lct-designs.s3.us-west-1.amazonaws.com/assets/libs/crew-2-1632127666737.png" class="asset" transform="matrix(0.050545018166303635,0,0,0.050545018166303635,379.3749084472656,209.48638916015625)"></image><text fill="#ec1c24" font-family="Chunky Funks" font-size="25" x="196.88127233350318" y="200.48091056834267" stroke-opacity="1" stroke-width="1" stroke="#000000" transform="matrix(0.5186155438423157,0,0,0.5186155438423157,271.78143310546875,150.67080688476562)" svgjs:data="{&quot;leading&quot;:&quot;1.3&quot;}"><tspan dy="0" x="196.88127233350318" svgjs:data="{&quot;newLined&quot;:true}">PLAYER</tspan><tspan dy="32.5" x="196.88127233350318" svgjs:data="{&quot;newLined&quot;:true}"></tspan></text><g class="mask" style="pointer-events: none;"><g><path fill="#BCBEC0" d="M-3642.4-2101.7v4589.1h7813.4v-4589.1H-3642.4z M500.5,67.2v233.3v66.7H0.5v-66.7V67.2V0.5h500V67.2z" transform="matrix(1,0,0,1,0,0)"></path><g transform="matrix(1,0,0,1,0,0)">
	<rect x="0.5" y="300.5" opacity="0.95" fill="#F1F2F2" width="500" height="66.7"></rect>
	<rect x="0.5" y="0.5" opacity="0.95" fill="#F1F2F2" width="500" height="66.7"></rect>
</g></g></g></svg>