<svg xmlns="http://www.w3.org/2000/svg" version="1.1" xmlns:xlink="http://www.w3.org/1999/xlink" xmlns:svgjs="http://svgjs.dev/svgjs" width="100%" height="100%" viewBox="1 1 499 365.70001220703125" preserveAspectRatio="none" data-info="{&quot;_id&quot;:4,&quot;name&quot;:&quot;POLE POCKET SOCCER BANNERS&quot;,&quot;information&quot;:&quot;- Size: 3’x5’\n- Material: heavy duty vinyl banner\n- Digitally printed on vinyl&quot;,&quot;price&quot;:&quot;95.00&quot;,&quot;sale_price&quot;:&quot;89.99&quot;,&quot;type&quot;:&quot;pole-pocket&quot;,&quot;cover&quot;:{&quot;key&quot;:&quot;assets/models/pole-1628062864266-1631924568908.png&quot;,&quot;url&quot;:&quot;https://lct-designs.s3.us-west-1.amazonaws.com/assets/models/pole-1628062864266-1631924568908.png&quot;},&quot;back&quot;:{&quot;key&quot;:&quot;assets/models/pole-1631924700152.svg&quot;,&quot;url&quot;:&quot;https://lct-designs.s3.us-west-1.amazonaws.com/assets/models/pole-1631924700152.svg&quot;},&quot;mask&quot;:{&quot;key&quot;:&quot;assets/models/pole-mask-1631925211715.svg&quot;,&quot;url&quot;:&quot;https://lct-designs.s3.us-west-1.amazonaws.com/assets/models/pole-mask-1631925211715.svg&quot;},&quot;pos&quot;:&quot;2&quot;,&quot;accessories&quot;:&quot;2,3&quot;}" style="background-color: white;"><g class="model" style="pointer-events: none;"><polygon fill="#FFFFFF" points="0.5,0.5 0.5,67.2 0.5,300.5 0.5,367.2 500.5,367.2 500.5,300.5 500.5,67.2 500.5,0.5 "></polygon></g><image width="760" height="556" xlink:href="https://lct-designs.s3.us-west-1.amazonaws.com/assets/libs/vikings-5-1653386108035.png" class="asset background locked" transform="matrix(0.6595323960558116,0,0,0.6595323960558116,0,0)"></image><image width="760" height="391" xlink:href="https://lct-designs.s3.us-west-1.amazonaws.com/assets/libs/vikings-2-1653386200123.png" class="asset" transform="matrix(0.3823274672031402,0,0,0.3823274672031402,107.47379302978513,144.885986328125)"></image><image width="710" height="760" xlink:href="https://lct-designs.s3.us-west-1.amazonaws.com/assets/libs/asset-3-1654164372767.png" class="asset" transform="matrix(0.05341329798102379,0,0,0.05341329798102379,146.89810180664062,102.88398742675778)"></image><text fill="#ffffff" font-family="Antilles Academy" font-size="45" stroke-opacity="1" stroke-width="1" stroke="#262261" x="197.01860526286566" y="199.9139119967857" transform="matrix(0.4492256045341491,0,0,0.4492256045341491,53.1493225097656,72.2598648071289)" svgjs:data="{&quot;leading&quot;:&quot;1.3&quot;}"><tspan dy="0" x="197.01860526286566" svgjs:data="{&quot;newLined&quot;:true}">player</tspan></text><text fill="#ffffff" font-family="Antilles Academy" font-size="45" stroke-opacity="1" stroke-width="1" stroke="#262261" x="197.01860526286566" y="199.9139119967857" transform="matrix(0.4492256045341491,0,0,0.4492256045341491,262.12652587890625,109.37303161621091)" svgjs:data="{&quot;leading&quot;:&quot;1.3&quot;}"><tspan dy="0" x="197.01860526286566" svgjs:data="{&quot;newLined&quot;:true}">player</tspan></text><image width="710" height="760" xlink:href="https://lct-designs.s3.us-west-1.amazonaws.com/assets/libs/asset-3-1654164372767.png" class="asset" transform="matrix(0.05341329798102379,0,0,0.05341329798102379,355.87530517578125,139.99715423583984)"></image><image width="710" height="760" xlink:href="https://lct-designs.s3.us-west-1.amazonaws.com/assets/libs/asset-3-1654164372767.png" class="asset" transform="matrix(0.05341329798102379,0,0,0.05341329798102379,214.50660705566406,76.84940338134763)"></image><text fill="#ffffff" font-family="Antilles Academy" font-size="45" stroke-opacity="1" stroke-width="1" stroke="#262261" x="197.01860526286566" y="199.9139119967857" transform="matrix(0.4492256045341491,0,0,0.4492256045341491,120.75782775878906,46.22528076171875)" svgjs:data="{&quot;leading&quot;:&quot;1.3&quot;}"><tspan dy="0" x="197.01860526286566" svgjs:data="{&quot;newLined&quot;:true}">player</tspan></text><image width="510" height="760" xlink:href="https://lct-designs.s3.us-west-1.amazonaws.com/assets/libs/asset-2-1654164311631.png" class="asset" transform="matrix(0.18186908960342407,0,0,0.18186908960342404,30.990692138671847,159.38458251953122)"></image><image width="710" height="760" xlink:href="https://lct-designs.s3.us-west-1.amazonaws.com/assets/libs/asset-3-1654164372767.png" class="asset" transform="matrix(0.05341329798102379,0,0,0.05341329798102379,13.92618376016614,74.07976531982422)"></image><text fill="#ffffff" font-family="Antilles Academy" font-size="45" stroke-opacity="1" stroke-width="1" stroke="#262261" x="197.01860526286566" y="199.9139119967857" transform="matrix(0.4492256045341491,0,0,0.4492256045341491,-79.82259172201158,43.4556427001953)" svgjs:data="{&quot;leading&quot;:&quot;1.3&quot;}"><tspan dy="0" x="197.01860526286566" svgjs:data="{&quot;newLined&quot;:true}">player</tspan></text><text fill="#ffffff" font-family="Antilles Academy" font-size="45" stroke-opacity="1" stroke-width="1" stroke="#262261" x="197.01860526286566" y="199.9139119967857" transform="matrix(0.4492256045341491,0,0,0.4492256045341491,-19.910491943359375,58.41168975830078)" svgjs:data="{&quot;leading&quot;:&quot;1.3&quot;}"><tspan dy="0" x="197.01860526286566" svgjs:data="{&quot;newLined&quot;:true}">player</tspan></text><image width="710" height="760" xlink:href="https://lct-designs.s3.us-west-1.amazonaws.com/assets/libs/asset-3-1654164372767.png" class="asset" transform="matrix(0.05341329798102379,0,0,0.05341329798102379,73.8382873535156,89.03581237792969)"></image><text fill="#ffffff" font-family="Antilles Academy" font-size="45" stroke-opacity="1" stroke-width="1" stroke="#262261" x="197.01860526286566" y="199.9139119967857" transform="matrix(0.4492256045341491,0,0,0.4492256045341491,198.39553833007812,67.27454376220703)" svgjs:data="{&quot;leading&quot;:&quot;1.3&quot;}"><tspan dy="0" x="197.01860526286566" svgjs:data="{&quot;newLined&quot;:true}">player</tspan></text><image width="710" height="760" xlink:href="https://lct-designs.s3.us-west-1.amazonaws.com/assets/libs/asset-3-1654164372767.png" class="asset" transform="matrix(0.05341329798102379,0,0,0.05341329798102379,292.1443176269531,97.89866638183594)"></image><text fill="#ffffff" font-family="Antilles Academy" font-size="45" stroke-opacity="1" stroke-width="1" stroke="#262261" x="197.01860526286566" y="199.9139119967857" transform="matrix(0.4492256045341491,0,0,0.4492256045341491,-78.62685203552246,111.58872985839844)" svgjs:data="{&quot;leading&quot;:&quot;1.3&quot;}"><tspan dy="0" x="197.01860526286566" svgjs:data="{&quot;newLined&quot;:true}">player</tspan></text><image width="710" height="760" xlink:href="https://lct-designs.s3.us-west-1.amazonaws.com/assets/libs/asset-3-1654164372767.png" class="asset" transform="matrix(0.05341329798102379,0,0,0.05341329798102379,15.675868988037081,142.21286010742185)"></image><text fill="#ffffff" font-family="Antilles Academy" font-size="45" stroke-opacity="1" stroke-width="1" stroke="#262261" x="197.01860526286566" y="199.9139119967857" transform="matrix(0.4492256045341491,0,0,0.4492256045341491,335.8282165527344,94.41698455810547)" svgjs:data="{&quot;leading&quot;:&quot;1.3&quot;}"><tspan dy="0" x="197.01860526286566" svgjs:data="{&quot;newLined&quot;:true}">player</tspan></text><image width="710" height="760" xlink:href="https://lct-designs.s3.us-west-1.amazonaws.com/assets/libs/asset-3-1654164372767.png" class="asset" transform="matrix(0.05341329798102379,0,0,0.05341329798102379,429.5769958496094,125.04110717773438)"></image><text fill="#ffffff" font-family="Antilles Academy" font-size="45" stroke-opacity="1" stroke-width="1" stroke="#262261" x="83.80681708537543" y="199.9139119967857" transform="matrix(0.5299017429351807,0,0,0.5359165668487548,277.0248413085937,-13.317875862121575)" svgjs:data="{&quot;leading&quot;:&quot;1.3&quot;}"><tspan dy="0" x="83.80681708537543" svgjs:data="{&quot;newLined&quot;:true}">coach:coach's name</tspan></text><g class="mask" style="pointer-events: none;"><g><path fill="#BCBEC0" d="M-3642.4-2101.7v4589.1h7813.4v-4589.1H-3642.4z M500.5,67.2v233.3v66.7H0.5v-66.7V67.2V0.5h500V67.2z" transform="matrix(1,0,0,1,0,0)"></path><g transform="matrix(1,0,0,1,0,0)">
	<rect x="0.5" y="300.5" opacity="0.95" fill="#F1F2F2" width="500" height="66.7"></rect>
	<rect x="0.5" y="0.5" opacity="0.95" fill="#F1F2F2" width="500" height="66.7"></rect>
</g></g></g></svg>