<svg xmlns="http://www.w3.org/2000/svg" version="1.1" xmlns:xlink="http://www.w3.org/1999/xlink" xmlns:svgjs="http://svgjs.dev/svgjs" width="100%" height="100%" viewBox="1 1 499 365.70001220703125" preserveAspectRatio="none" data-info="{&quot;_id&quot;:4,&quot;name&quot;:&quot;POLE POCKET SOCCER BANNERS&quot;,&quot;information&quot;:&quot;- Size: 3’x5’\n- Material: heavy duty vinyl banner\n- Digitally printed on vinyl&quot;,&quot;price&quot;:&quot;95.00&quot;,&quot;sale_price&quot;:&quot;89.99&quot;,&quot;type&quot;:&quot;pole-pocket&quot;,&quot;cover&quot;:{&quot;key&quot;:&quot;assets/models/pole-1628062864266-1631924568908.png&quot;,&quot;url&quot;:&quot;https://lct-designs.s3.us-west-1.amazonaws.com/assets/models/pole-1628062864266-1631924568908.png&quot;},&quot;back&quot;:{&quot;key&quot;:&quot;assets/models/pole-1631924700152.svg&quot;,&quot;url&quot;:&quot;https://lct-designs.s3.us-west-1.amazonaws.com/assets/models/pole-1631924700152.svg&quot;},&quot;mask&quot;:{&quot;key&quot;:&quot;assets/models/pole-mask-1631925211715.svg&quot;,&quot;url&quot;:&quot;https://lct-designs.s3.us-west-1.amazonaws.com/assets/models/pole-mask-1631925211715.svg&quot;},&quot;pos&quot;:&quot;2&quot;,&quot;accessories&quot;:&quot;2,3&quot;}" style="background-color: white;"><g class="model" style="pointer-events: none;"><polygon fill="#FFFFFF" points="0.5,0.5 0.5,67.2 0.5,300.5 0.5,367.2 500.5,367.2 500.5,300.5 500.5,67.2 500.5,0.5 "></polygon></g><image width="760" height="557" xlink:href="https://lct-designs.s3.us-west-1.amazonaws.com/assets/libs/asset-4-1654499272729.png" class="asset background locked" transform="matrix(0.6583483163501459,0,0,0.6583483163501459,0,0)"></image><image width="760" height="495" xlink:href="https://lct-designs.s3.us-west-1.amazonaws.com/assets/libs/tnt-1652435633995.png" class="asset" transform="matrix(0.3534049093723297,0,0,0.35340490937232966,114.24876403808594,93.68506622314453)"></image><text fill="#000000" font-family="American Captain" font-size="45" x="250.50001355091032" y="183.85001200288923" svgjs:data="{&quot;leading&quot;:&quot;1.3&quot;}"><tspan dy="0" x="250.50001355091032" svgjs:data="{&quot;newLined&quot;:true}"></tspan></text><image width="760" height="555" xlink:href="https://lct-designs.s3.us-west-1.amazonaws.com/assets/libs/asset-6-1654499332095.png" class="asset" transform="matrix(0.06425004452466965,0,0,0.06425004452466963,247.60740661621094,261.4502868652344)"></image><image width="760" height="555" xlink:href="https://lct-designs.s3.us-west-1.amazonaws.com/assets/libs/asset-6-1654499332095.png" class="asset" transform="matrix(-0.06362392516168613,0,0,0.06597142351326112,203.32323452468881,257.72597213239715)"></image><image width="760" height="555" xlink:href="https://lct-designs.s3.us-west-1.amazonaws.com/assets/libs/asset-6-1654499332095.png" class="asset" transform="matrix(-0.06362392516168613,0,0,0.06597142351326112,152.9690109303474,108.44655383494046)"></image><text fill="#ffffff" font-family="American Captain" font-size="45" x="196.88588543811736" y="200.19087427705915" stroke-opacity="1" stroke-width="2" stroke="#ae1f24" transform="matrix(0.6015447974205016,0,0,0.6015447974205017,-86.74082183837892,12.684432029724121)" svgjs:data="{&quot;leading&quot;:&quot;1.3&quot;}"><tspan dy="0" x="196.88588543811736" svgjs:data="{&quot;newLined&quot;:true}">player</tspan></text><image width="760" height="555" xlink:href="https://lct-designs.s3.us-west-1.amazonaws.com/assets/libs/asset-6-1654499332095.png" class="asset" transform="matrix(-0.06362392516168613,0,0,0.06597146491279293,154.5351117213358,156.66740016095991)"></image><image width="760" height="555" xlink:href="https://lct-designs.s3.us-west-1.amazonaws.com/assets/libs/asset-6-1654499332095.png" class="asset" transform="matrix(-0.06362392516168613,0,0,0.06597142351326112,167.89993864888487,211.55708002113258)"></image><text fill="#ffffff" font-family="American Captain" font-size="45" stroke-opacity="1" stroke-width="2" stroke="#ae1f24" x="101.58437939563689" y="200.19087427705915" transform="matrix(0.5094642639160156,0,0,0.391900897026062,-44.33690643310547,8.493648529052734)" svgjs:data="{&quot;leading&quot;:&quot;1.3&quot;}"><tspan dy="0" x="101.58437939563689" svgjs:data="{&quot;newLined&quot;:true}">coach:coach's name</tspan></text><text fill="#ffffff" font-family="American Captain" font-size="45" x="196.88588543811736" y="200.19087427705915" stroke-opacity="1" stroke-width="2" stroke="#ae1f24" transform="matrix(0.6015448570251465,0,0,0.6015448570251464,-82.28009796142578,59.76826477050781)" svgjs:data="{&quot;leading&quot;:&quot;1.3&quot;}"><tspan dy="0" x="196.88588543811736" svgjs:data="{&quot;newLined&quot;:true}">player</tspan></text><text fill="#ffffff" font-family="American Captain" font-size="45" x="196.88588543811736" y="200.19087427705915" stroke-opacity="1" stroke-width="2" stroke="#ae1f24" transform="matrix(0.6015448570251465,0,0,0.6015448570251464,-70.06437683105469,115.1610107421875)" svgjs:data="{&quot;leading&quot;:&quot;1.3&quot;}"><tspan dy="0" x="196.88588543811736" svgjs:data="{&quot;newLined&quot;:true}">player</tspan></text><text fill="#ffffff" font-family="American Captain" font-size="45" x="196.88588543811736" y="200.19087427705915" stroke-opacity="1" stroke-width="2" stroke="#ae1f24" transform="matrix(0.6015448570251465,0,0,0.6015448570251464,-33.47584915161133,165.56842041015622)" svgjs:data="{&quot;leading&quot;:&quot;1.3&quot;}"><tspan dy="0" x="196.88588543811736" svgjs:data="{&quot;newLined&quot;:true}">player</tspan></text><text fill="#ffffff" font-family="American Captain" font-size="45" x="196.88588543811736" y="200.19087427705915" stroke-opacity="1" stroke-width="2" stroke="#ae1f24" transform="matrix(0.6015448570251465,0,0,0.6015448570251464,180.92343139648438,166.1223602294922)" svgjs:data="{&quot;leading&quot;:&quot;1.3&quot;}"><tspan dy="0" x="196.88588543811736" svgjs:data="{&quot;newLined&quot;:true}">player</tspan></text><image width="760" height="555" xlink:href="https://lct-designs.s3.us-west-1.amazonaws.com/assets/libs/asset-6-1654499332095.png" class="asset" transform="matrix(0.06425007432699203,0,0,0.06425007432699202,325.18655395507807,220.45965576171872)"></image><text fill="#ffffff" font-family="American Captain" font-size="45" x="196.88588543811736" y="200.19087427705915" stroke-opacity="1" stroke-width="2" stroke="#ae1f24" transform="matrix(0.6015448570251465,0,0,0.6015448570251464,263.48794555664057,127.34743499755857)" svgjs:data="{&quot;leading&quot;:&quot;1.3&quot;}"><tspan dy="0" x="196.88588543811736" svgjs:data="{&quot;newLined&quot;:true}">player</tspan></text><image width="760" height="555" xlink:href="https://lct-designs.s3.us-west-1.amazonaws.com/assets/libs/asset-6-1654499332095.png" class="asset" transform="matrix(0.06425006687641144,0,0,0.06425006687641142,346.2651062011719,164.5129852294922)"></image><text fill="#ffffff" font-family="American Captain" font-size="45" x="196.88588543811736" y="200.19087427705915" stroke-opacity="1" stroke-width="2" stroke="#ae1f24" transform="matrix(0.6015448570251465,0,0,0.6015448570251464,282.9046936035156,74.72431945800781)" svgjs:data="{&quot;leading&quot;:&quot;1.3&quot;}"><tspan dy="0" x="196.88588543811736" svgjs:data="{&quot;newLined&quot;:true}">player</tspan></text><image width="760" height="555" xlink:href="https://lct-designs.s3.us-west-1.amazonaws.com/assets/libs/asset-6-1654499332095.png" class="asset" transform="matrix(0.06425008922815323,0,0,0.06425008922815321,325.76980590820307,104.68879699707031)"></image><text fill="#ffffff" font-family="American Captain" font-size="45" x="196.88588543811736" y="200.19087427705915" stroke-opacity="1" stroke-width="2" stroke="#ae1f24" transform="matrix(0.6015448570251465,0,0,0.6015448570251464,264.0711975097656,11.576576232910156)" svgjs:data="{&quot;leading&quot;:&quot;1.3&quot;}"><tspan dy="0" x="196.88588543811736" svgjs:data="{&quot;newLined&quot;:true}">player</tspan></text><text fill="#ffffff" font-family="American Captain" font-size="45" stroke-opacity="1" stroke-width="2" stroke="#ae1f24" x="101.58437939563689" y="200.19087427705915" transform="matrix(0.5094642639160156,0,0,0.391900897026062,317.9609985351562,8.493648529052734)" svgjs:data="{&quot;leading&quot;:&quot;1.3&quot;}"><tspan dy="0" x="101.58437939563689" svgjs:data="{&quot;newLined&quot;:true}">team mom: name</tspan></text><g class="mask" style="pointer-events: none;"><g><path fill="#BCBEC0" d="M-3642.4-2101.7v4589.1h7813.4v-4589.1H-3642.4z M500.5,67.2v233.3v66.7H0.5v-66.7V67.2V0.5h500V67.2z" transform="matrix(1,0,0,1,0,0)"></path><g transform="matrix(1,0,0,1,0,0)">
	<rect x="0.5" y="300.5" opacity="0.95" fill="#F1F2F2" width="500" height="66.7"></rect>
	<rect x="0.5" y="0.5" opacity="0.95" fill="#F1F2F2" width="500" height="66.7"></rect>
</g></g></g></svg>