<svg xmlns="http://www.w3.org/2000/svg" version="1.1" xmlns:xlink="http://www.w3.org/1999/xlink" xmlns:svgjs="http://svgjs.dev/svgjs" width="100%" height="100%" viewBox="1 1 499 365.70001220703125" preserveAspectRatio="none" data-info="{&quot;_id&quot;:4,&quot;name&quot;:&quot;POLE POCKET SOCCER BANNERS&quot;,&quot;information&quot;:&quot;- Size: 3’x5’\n- Material: heavy duty vinyl banner\n- Digitally printed on vinyl&quot;,&quot;price&quot;:&quot;95.00&quot;,&quot;sale_price&quot;:&quot;89.99&quot;,&quot;type&quot;:&quot;pole-pocket&quot;,&quot;cover&quot;:{&quot;key&quot;:&quot;assets/models/pole-1628062864266-1631924568908.png&quot;,&quot;url&quot;:&quot;https://lct-designs.s3.us-west-1.amazonaws.com/assets/models/pole-1628062864266-1631924568908.png&quot;},&quot;back&quot;:{&quot;key&quot;:&quot;assets/models/pole-1631924700152.svg&quot;,&quot;url&quot;:&quot;https://lct-designs.s3.us-west-1.amazonaws.com/assets/models/pole-1631924700152.svg&quot;},&quot;mask&quot;:{&quot;key&quot;:&quot;assets/models/pole-mask-1631925211715.svg&quot;,&quot;url&quot;:&quot;https://lct-designs.s3.us-west-1.amazonaws.com/assets/models/pole-mask-1631925211715.svg&quot;},&quot;pos&quot;:&quot;2&quot;,&quot;accessories&quot;:&quot;2,3&quot;}" style="background-color: white;"><g class="model" style="pointer-events: none;"><polygon fill="#FFFFFF" points="0.5,0.5 0.5,67.2 0.5,300.5 0.5,367.2 500.5,367.2 500.5,300.5 500.5,67.2 500.5,0.5 "></polygon></g><image width="760" height="556" xlink:href="https://lct-designs.s3.us-west-1.amazonaws.com/assets/libs/velocity-3-1653386108034.png" class="asset background locked" transform="matrix(0.6595323960558116,0,0,0.6595323960558116,0,0)"></image><image width="759" height="584" xlink:href="https://lct-designs.s3.us-west-1.amazonaws.com/assets/libs/cosmos-2-1631957880272.png" class="asset" transform="matrix(0.04161394387483597,0,0,0.041613943874835975,24.963640213012695,178.51606750488284)"></image><text fill="#ffffff" font-family="Lemondrop" font-size="45" stroke-opacity="1" stroke-width="2" stroke="#f89a1c" x="164.4804517833322" y="198.80605524629743" transform="matrix(0.2798811197280884,0,0,0.3642873466014862,15.648420333862305,124.52751159667972)" svgjs:data="{&quot;leading&quot;:&quot;1.3&quot;}"><tspan dy="0" x="164.4804517833322" svgjs:data="{&quot;newLined&quot;:true}">player</tspan></text><image width="759" height="584" xlink:href="https://lct-designs.s3.us-west-1.amazonaws.com/assets/libs/cosmos-2-1631957880272.png" class="asset" transform="matrix(0.04161393642425537,0,0,0.04161393642425538,35.707244873046875,223.61962890625003)"></image><text fill="#ffffff" font-family="Lemondrop" font-size="45" stroke-opacity="1" stroke-width="2" stroke="#f89a1c" x="164.4804517833322" y="198.80605524629743" transform="matrix(0.2798811197280884,0,0,0.3642873466014862,26.39202880859375,169.63105773925784)" svgjs:data="{&quot;leading&quot;:&quot;1.3&quot;}"><tspan dy="0" x="164.4804517833322" svgjs:data="{&quot;newLined&quot;:true}">player</tspan></text><image width="759" height="584" xlink:href="https://lct-designs.s3.us-west-1.amazonaws.com/assets/libs/cosmos-2-1631957880272.png" class="asset" transform="matrix(0.04161394387483597,0,0,0.041613943874835975,13.414300918579102,138.5647430419922)"></image><text fill="#ffffff" font-family="Lemondrop" font-size="45" stroke-opacity="1" stroke-width="2" stroke="#f89a1c" x="164.4804517833322" y="198.80605524629743" transform="matrix(0.2798811197280884,0,0,0.36428734660148615,4.099081039428739,84.57617950439453)" svgjs:data="{&quot;leading&quot;:&quot;1.3&quot;}"><tspan dy="0" x="164.4804517833322" svgjs:data="{&quot;newLined&quot;:true}">player</tspan></text><image width="759" height="584" xlink:href="https://lct-designs.s3.us-west-1.amazonaws.com/assets/libs/cosmos-2-1631957880272.png" class="asset" transform="matrix(0.04161393642425537,0,0,0.04161393642425538,318.6466979980469,257.1496276855469)"></image><text fill="#ffffff" font-family="Lemondrop" font-size="45" stroke-opacity="1" stroke-width="2" stroke="#f89a1c" x="164.4804517833322" y="198.80605524629743" transform="matrix(0.2798811197280884,0,0,0.3642873466014862,309.3314514160156,203.16105651855472)" svgjs:data="{&quot;leading&quot;:&quot;1.3&quot;}"><tspan dy="0" x="164.4804517833322" svgjs:data="{&quot;newLined&quot;:true}">player</tspan></text><image width="759" height="584" xlink:href="https://lct-designs.s3.us-west-1.amazonaws.com/assets/libs/cosmos-2-1631957880272.png" class="asset" transform="matrix(0.04161394387483597,0,0,0.041613943874835975,355.7662048339844,218.6883239746094)"></image><text fill="#ffffff" font-family="Lemondrop" font-size="45" stroke-opacity="1" stroke-width="2" stroke="#f89a1c" x="164.4804517833322" y="198.80605524629743" transform="matrix(0.2798811197280884,0,0,0.3642873466014862,346.4509582519531,164.69976806640625)" svgjs:data="{&quot;leading&quot;:&quot;1.3&quot;}"><tspan dy="0" x="164.4804517833322" svgjs:data="{&quot;newLined&quot;:true}">player</tspan></text><image width="760" height="243" xlink:href="https://lct-designs.s3.us-west-1.amazonaws.com/assets/libs/velocity-1-1653386200123.png" class="asset" transform="matrix(0.32077276706695557,0,0,0.3207727670669556,118.24577331542969,70.98468017578125)"></image><image width="759" height="584" xlink:href="https://lct-designs.s3.us-west-1.amazonaws.com/assets/libs/cosmos-2-1631957880272.png" class="asset" transform="matrix(0.04161394387483597,0,0,0.041613943874835975,363.4916076660156,152.84497070312506)"></image><text fill="#ffffff" font-family="Lemondrop" font-size="45" stroke-opacity="1" stroke-width="2" stroke="#f89a1c" x="164.4804517833322" y="198.80605524629743" transform="matrix(0.2798811197280884,0,0,0.3642873466014862,354.1763916015625,98.85640716552737)" svgjs:data="{&quot;leading&quot;:&quot;1.3&quot;}"><tspan dy="0" x="164.4804517833322" svgjs:data="{&quot;newLined&quot;:true}">player</tspan></text><image width="759" height="584" xlink:href="https://lct-designs.s3.us-west-1.amazonaws.com/assets/libs/cosmos-2-1631957880272.png" class="asset" transform="matrix(0.04161394387483597,0,0,0.041613943874835975,390.3887023925781,184.11956787109375)"></image><text fill="#ffffff" font-family="Lemondrop" font-size="45" stroke-opacity="1" stroke-width="2" stroke="#f89a1c" x="-84.47735766490999" y="205.73015040010603" transform="matrix(0.29065221548080444,0,0,0.2530252933502198,347.93701171875,44.35819244384767)" svgjs:data="{&quot;leading&quot;:&quot;1.3&quot;}"><tspan dy="0" x="-84.47735766490999" svgjs:data="{&quot;newLined&quot;:true}">team mom:name</tspan></text><text fill="#ffffff" font-family="Lemondrop" font-size="45" stroke-opacity="1" stroke-width="2" stroke="#f89a1c" x="-84.47735766490999" y="205.73015040010603" transform="matrix(0.2530252933502197,0,0,0.2530252933502198,41.064002990722656,44.240550994873075)" svgjs:data="{&quot;leading&quot;:&quot;1.3&quot;}"><tspan dy="0" x="-84.47735766490999" svgjs:data="{&quot;newLined&quot;:true}">coach:coach's name</tspan></text><text fill="#ffffff" font-family="Lemondrop" font-size="45" stroke-opacity="1" stroke-width="2" stroke="#f89a1c" x="164.4804517833322" y="198.80605524629743" transform="matrix(0.2798811197280884,0,0,0.3642873466014862,381.073486328125,130.1310043334961)" svgjs:data="{&quot;leading&quot;:&quot;1.3&quot;}"><tspan dy="0" x="164.4804517833322" svgjs:data="{&quot;newLined&quot;:true}">player</tspan></text><image width="760" height="721" xlink:href="https://lct-designs.s3.us-west-1.amazonaws.com/assets/libs/asset-1-1654309470021.png" class="asset" transform="matrix(0.17997980117797854,0,0,0.17997980117797854,172.63169860839844,155.857177734375)"></image><image width="759" height="584" xlink:href="https://lct-designs.s3.us-west-1.amazonaws.com/assets/libs/cosmos-2-1631957880272.png" class="asset" transform="matrix(0.04161393642425537,0,0,0.04161393642425538,81.39373016357422,257.6595001220703)"></image><text fill="#ffffff" font-family="Lemondrop" font-size="45" stroke-opacity="1" stroke-width="2" stroke="#f89a1c" x="164.4804517833322" y="198.80605524629743" transform="matrix(0.2798811197280884,0,0,0.3642873466014862,72.0785140991211,203.67092895507815)" svgjs:data="{&quot;leading&quot;:&quot;1.3&quot;}"><tspan dy="0" x="164.4804517833322" svgjs:data="{&quot;newLined&quot;:true}">player</tspan></text><g class="mask" style="pointer-events: none;"><g><path fill="#BCBEC0" d="M-3642.4-2101.7v4589.1h7813.4v-4589.1H-3642.4z M500.5,67.2v233.3v66.7H0.5v-66.7V67.2V0.5h500V67.2z" transform="matrix(1,0,0,1,0,0)"></path><g transform="matrix(1,0,0,1,0,0)">
	<rect x="0.5" y="300.5" opacity="0.95" fill="#F1F2F2" width="500" height="66.7"></rect>
	<rect x="0.5" y="0.5" opacity="0.95" fill="#F1F2F2" width="500" height="66.7"></rect>
</g></g></g></svg>