<svg xmlns="http://www.w3.org/2000/svg" version="1.1" xmlns:xlink="http://www.w3.org/1999/xlink" xmlns:svgjs="http://svgjs.dev/svgjs" width="100%" height="100%" viewBox="1 1 499 365.70001220703125" preserveAspectRatio="none" data-info="{&quot;_id&quot;:4,&quot;name&quot;:&quot;POLE POCKET SOCCER BANNERS&quot;,&quot;information&quot;:&quot;- Size: 3’x5’\n- Material: heavy duty vinyl banner\n- Digitally printed on vinyl&quot;,&quot;price&quot;:&quot;95.00&quot;,&quot;sale_price&quot;:&quot;89.99&quot;,&quot;type&quot;:&quot;pole-pocket&quot;,&quot;cover&quot;:{&quot;key&quot;:&quot;assets/models/pole-1628062864266-1631924568908.png&quot;,&quot;url&quot;:&quot;https://lct-designs.s3.us-west-1.amazonaws.com/assets/models/pole-1628062864266-1631924568908.png&quot;},&quot;back&quot;:{&quot;key&quot;:&quot;assets/models/pole-1631924700152.svg&quot;,&quot;url&quot;:&quot;https://lct-designs.s3.us-west-1.amazonaws.com/assets/models/pole-1631924700152.svg&quot;},&quot;mask&quot;:{&quot;key&quot;:&quot;assets/models/pole-mask-1631925211715.svg&quot;,&quot;url&quot;:&quot;https://lct-designs.s3.us-west-1.amazonaws.com/assets/models/pole-mask-1631925211715.svg&quot;},&quot;pos&quot;:&quot;2&quot;,&quot;accessories&quot;:&quot;2,3&quot;}" style="background-color: white;"><g class="model" style="pointer-events: none;"><polygon fill="#FFFFFF" points="0.5,0.5 0.5,67.2 0.5,300.5 0.5,367.2 500.5,367.2 500.5,300.5 500.5,67.2 500.5,0.5 "></polygon></g><image width="760" height="553" xlink:href="https://lct-designs.s3.us-west-1.amazonaws.com/assets/libs/mma-1633402757835.png" class="asset background locked" transform="matrix(0.6631103294883024,0,0,0.6631103294883024,0,0)"></image><text fill="#d42229" font-family="Impact" font-size="50" stroke-opacity="1" stroke-width="1" stroke="#ffffff" x="-98.72634249947717" y="199.47500657859518" transform="matrix(0.24219894409179688,0,0,0.2421989440917969,31.920425415039055,245.88198852539068)" svgjs:data="{&quot;leading&quot;:&quot;1.3&quot;}"><tspan dy="0" x="-98.72634249947717" svgjs:data="{&quot;newLined&quot;:true}">COACH: COACH'S NAME</tspan></text><text fill="#d42229" font-family="Impact" font-size="50" stroke-opacity="1" stroke-width="1" stroke="#ffffff" x="-98.72634249947717" y="199.47500657859518" transform="matrix(0.24219892919063568,0,0,0.2421989291906357,373.46246337890625,245.88198852539068)" svgjs:data="{&quot;leading&quot;:&quot;1.3&quot;}"><tspan dy="0" x="-98.72634249947717" svgjs:data="{&quot;newLined&quot;:true}">TEAM MOM: TEAM MOM'S NAME</tspan></text><image width="760" height="754" xlink:href="https://lct-designs.s3.us-west-1.amazonaws.com/assets/libs/mma-1-1633342536150.png" class="asset" transform="matrix(0.03769010305404663,0,0,0.03769010305404663,21.870424270629883,85.35765075683595)"></image><image width="760" height="754" xlink:href="https://lct-designs.s3.us-west-1.amazonaws.com/assets/libs/mma-1-1633342536150.png" class="asset" transform="matrix(0.03769010305404663,0,0,0.03769010305404663,450.6876525878906,85.89529418945311)"></image><text fill="#d42229" font-family="Impact" font-size="50" stroke-opacity="1" stroke-width="2" stroke="#000000" x="-98.72634249947717" y="199.47500657859518" transform="matrix(0.32330620288848877,0,0,0.3233062028884888,474.44403076171875,67.45084381103517)" svgjs:data="{&quot;leading&quot;:&quot;1.3&quot;}"><tspan dy="0" x="-98.72634249947717" svgjs:data="{&quot;newLined&quot;:true}">PLAYER</tspan><tspan dy="65" x="-98.72634249947717" svgjs:data="{&quot;newLined&quot;:true}"></tspan></text><image width="760" height="754" xlink:href="https://lct-designs.s3.us-west-1.amazonaws.com/assets/libs/mma-1-1633342536150.png" class="asset" transform="matrix(0.03769010305404663,0,0,0.03769010305404663,449.9349670410156,161.1641082763672)"></image><text fill="#d42229" font-family="Impact" font-size="50" stroke-opacity="1" stroke-width="2" stroke="#000000" x="-98.72634249947717" y="199.47500657859518" transform="matrix(0.32330620288848877,0,0,0.3233062028884888,473.6913146972656,142.71966552734375)" svgjs:data="{&quot;leading&quot;:&quot;1.3&quot;}"><tspan dy="0" x="-98.72634249947717" svgjs:data="{&quot;newLined&quot;:true}">PLAYER</tspan><tspan dy="65" x="-98.72634249947717" svgjs:data="{&quot;newLined&quot;:true}"></tspan></text><text fill="#d42229" font-family="Impact" font-size="50" stroke-opacity="1" stroke-width="2" stroke="#000000" x="-98.72634249947717" y="199.47500657859518" transform="matrix(0.32330620288848877,0,0,0.3233062028884888,45.626789093017564,66.91320037841798)" svgjs:data="{&quot;leading&quot;:&quot;1.3&quot;}"><tspan dy="0" x="-98.72634249947717" svgjs:data="{&quot;newLined&quot;:true}">PLAYER</tspan><tspan dy="65" x="-98.72634249947717" svgjs:data="{&quot;newLined&quot;:true}"></tspan></text><image width="760" height="754" xlink:href="https://lct-designs.s3.us-west-1.amazonaws.com/assets/libs/mma-1-1633342536150.png" class="asset" transform="matrix(0.03769010305404663,0,0,0.03769010305404663,21.11772346496582,160.62646484375006)"></image><text fill="#d42229" font-family="Impact" font-size="50" stroke-opacity="1" stroke-width="2" stroke="#000000" x="-98.72634249947717" y="199.47500657859518" transform="matrix(0.32330620288848877,0,0,0.3233062028884888,44.8740882873535,142.18202209472656)" svgjs:data="{&quot;leading&quot;:&quot;1.3&quot;}"><tspan dy="0" x="-98.72634249947717" svgjs:data="{&quot;newLined&quot;:true}">PLAYER</tspan><tspan dy="65" x="-98.72634249947717" svgjs:data="{&quot;newLined&quot;:true}"></tspan></text><image width="760" height="754" xlink:href="https://lct-designs.s3.us-west-1.amazonaws.com/assets/libs/mma-1-1633342536150.png" class="asset" transform="matrix(0.03769010305404663,0,0,0.03769010305404663,82.94569396972656,105.78775787353517)"></image><image width="760" height="754" xlink:href="https://lct-designs.s3.us-west-1.amazonaws.com/assets/libs/mma-1-1633342536150.png" class="asset" transform="matrix(0.03769010305404663,0,0,0.03769010305404663,391.332763671875,106.32540893554686)"></image><text fill="#d42229" font-family="Impact" font-size="50" stroke-opacity="1" stroke-width="2" stroke="#000000" x="-98.72634249947717" y="199.47500657859518" transform="matrix(0.32330620288848877,0,0,0.3233062028884888,415.0891418457032,87.88095855712892)" svgjs:data="{&quot;leading&quot;:&quot;1.3&quot;}"><tspan dy="0" x="-98.72634249947717" svgjs:data="{&quot;newLined&quot;:true}">PLAYER</tspan><tspan dy="65" x="-98.72634249947717" svgjs:data="{&quot;newLined&quot;:true}"></tspan></text><image width="760" height="754" xlink:href="https://lct-designs.s3.us-west-1.amazonaws.com/assets/libs/mma-1-1633342536150.png" class="asset" transform="matrix(0.03769010305404663,0,0,0.03769010305404663,390.580078125,181.59422302246094)"></image><text fill="#d42229" font-family="Impact" font-size="50" stroke-opacity="1" stroke-width="2" stroke="#000000" x="-98.72634249947717" y="199.47500657859518" transform="matrix(0.32330620288848877,0,0,0.3233062028884888,414.3364562988281,163.1497802734375)" svgjs:data="{&quot;leading&quot;:&quot;1.3&quot;}"><tspan dy="0" x="-98.72634249947717" svgjs:data="{&quot;newLined&quot;:true}">PLAYER</tspan><tspan dy="65" x="-98.72634249947717" svgjs:data="{&quot;newLined&quot;:true}"></tspan></text><text fill="#d42229" font-family="Impact" font-size="50" stroke-opacity="1" stroke-width="2" stroke="#000000" x="-98.72634249947717" y="199.47500657859518" transform="matrix(0.32330620288848877,0,0,0.3233062028884888,106.70205688476562,87.34330749511717)" svgjs:data="{&quot;leading&quot;:&quot;1.3&quot;}"><tspan dy="0" x="-98.72634249947717" svgjs:data="{&quot;newLined&quot;:true}">PLAYER</tspan><tspan dy="65" x="-98.72634249947717" svgjs:data="{&quot;newLined&quot;:true}"></tspan></text><image width="760" height="754" xlink:href="https://lct-designs.s3.us-west-1.amazonaws.com/assets/libs/mma-1-1633342536150.png" class="asset" transform="matrix(0.03769010305404663,0,0,0.03769010305404663,82.1929931640625,181.0565643310547)"></image><text fill="#d42229" font-family="Impact" font-size="50" stroke-opacity="1" stroke-width="2" stroke="#000000" x="-98.72634249947717" y="199.47500657859518" transform="matrix(0.32330620288848877,0,0,0.3233062028884888,105.94935607910156,162.61212158203125)" svgjs:data="{&quot;leading&quot;:&quot;1.3&quot;}"><tspan dy="0" x="-98.72634249947717" svgjs:data="{&quot;newLined&quot;:true}">PLAYER</tspan><tspan dy="65" x="-98.72634249947717" svgjs:data="{&quot;newLined&quot;:true}"></tspan></text><image width="760" height="754" xlink:href="https://lct-designs.s3.us-west-1.amazonaws.com/assets/libs/mma-1-1633342536150.png" class="asset" transform="matrix(0.03769010305404663,0,0,0.03769010305404663,141.33279418945312,127.83077239990236)"></image><image width="760" height="754" xlink:href="https://lct-designs.s3.us-west-1.amazonaws.com/assets/libs/mma-1-1633342536150.png" class="asset" transform="matrix(0.03769010305404663,0,0,0.03769010305404663,330.36505126953125,128.368408203125)"></image><text fill="#d42229" font-family="Impact" font-size="50" stroke-opacity="1" stroke-width="2" stroke="#000000" x="-98.72634249947717" y="199.47500657859518" transform="matrix(0.32330620288848877,0,0,0.3233062028884888,354.1214294433594,109.92395019531251)" svgjs:data="{&quot;leading&quot;:&quot;1.3&quot;}"><tspan dy="0" x="-98.72634249947717" svgjs:data="{&quot;newLined&quot;:true}">PLAYER</tspan><tspan dy="65" x="-98.72634249947717" svgjs:data="{&quot;newLined&quot;:true}"></tspan></text><image width="760" height="754" xlink:href="https://lct-designs.s3.us-west-1.amazonaws.com/assets/libs/mma-1-1633342536150.png" class="asset" transform="matrix(0.03769010305404663,0,0,0.03769010305404663,329.61236572265625,203.63722229003906)"></image><text fill="#d42229" font-family="Impact" font-size="50" stroke-opacity="1" stroke-width="2" stroke="#000000" x="-98.72634249947717" y="199.47500657859518" transform="matrix(0.32330620288848877,0,0,0.3233062028884888,353.36871337890625,185.19276428222656)" svgjs:data="{&quot;leading&quot;:&quot;1.3&quot;}"><tspan dy="0" x="-98.72634249947717" svgjs:data="{&quot;newLined&quot;:true}">PLAYER</tspan><tspan dy="65" x="-98.72634249947717" svgjs:data="{&quot;newLined&quot;:true}"></tspan></text><text fill="#d42229" font-family="Impact" font-size="50" stroke-opacity="1" stroke-width="2" stroke="#000000" x="-98.72634249947717" y="199.47500657859518" transform="matrix(0.32330620288848877,0,0,0.3233062028884888,165.0891571044922,109.38632202148436)" svgjs:data="{&quot;leading&quot;:&quot;1.3&quot;}"><tspan dy="0" x="-98.72634249947717" svgjs:data="{&quot;newLined&quot;:true}">PLAYER</tspan><tspan dy="65" x="-98.72634249947717" svgjs:data="{&quot;newLined&quot;:true}"></tspan></text><image width="760" height="754" xlink:href="https://lct-designs.s3.us-west-1.amazonaws.com/assets/libs/mma-1-1633342536150.png" class="asset" transform="matrix(0.03769010305404663,0,0,0.03769010305404663,140.58009338378906,203.099594116211)"></image><text fill="#d42229" font-family="Impact" font-size="50" stroke-opacity="1" stroke-width="2" stroke="#000000" x="-98.72634249947717" y="199.47500657859518" transform="matrix(0.32330620288848877,0,0,0.3233062028884888,164.33645629882812,184.65513610839844)" svgjs:data="{&quot;leading&quot;:&quot;1.3&quot;}"><tspan dy="0" x="-98.72634249947717" svgjs:data="{&quot;newLined&quot;:true}">PLAYER</tspan><tspan dy="65" x="-98.72634249947717" svgjs:data="{&quot;newLined&quot;:true}"></tspan></text><image width="532" height="760" xlink:href="https://lct-designs.s3.us-west-1.amazonaws.com/assets/libs/mma-3-1633342518596.png" class="asset" transform="matrix(0.24264146387577057,0,0,0.2426414638757706,185.95614624023438,91.64505004882811)"></image><g class="mask" style="pointer-events: none;"><g><path fill="#BCBEC0" d="M-3642.4-2101.7v4589.1h7813.4v-4589.1H-3642.4z M500.5,67.2v233.3v66.7H0.5v-66.7V67.2V0.5h500V67.2z" transform="matrix(1,0,0,1,0,0)"></path><g transform="matrix(1,0,0,1,0,0)">
	<rect x="0.5" y="300.5" opacity="0.95" fill="#F1F2F2" width="500" height="66.7"></rect>
	<rect x="0.5" y="0.5" opacity="0.95" fill="#F1F2F2" width="500" height="66.7"></rect>
</g></g></g></svg>