<svg xmlns="http://www.w3.org/2000/svg" version="1.1" xmlns:xlink="http://www.w3.org/1999/xlink" xmlns:svgjs="http://svgjs.dev/svgjs" width="100%" height="100%" viewBox="1 1 499 365.70001220703125" preserveAspectRatio="none" data-info="{&quot;_id&quot;:4,&quot;name&quot;:&quot;POLE POCKET SOCCER BANNERS&quot;,&quot;information&quot;:&quot;- Size: 3’x5’\n- Material: heavy duty vinyl banner\n- Digitally printed on vinyl&quot;,&quot;price&quot;:&quot;95.00&quot;,&quot;sale_price&quot;:&quot;89.99&quot;,&quot;type&quot;:&quot;pole-pocket&quot;,&quot;cover&quot;:{&quot;key&quot;:&quot;assets/models/pole-1628062864266-1631924568908.png&quot;,&quot;url&quot;:&quot;https://lct-designs.s3.us-west-1.amazonaws.com/assets/models/pole-1628062864266-1631924568908.png&quot;},&quot;back&quot;:{&quot;key&quot;:&quot;assets/models/pole-1631924700152.svg&quot;,&quot;url&quot;:&quot;https://lct-designs.s3.us-west-1.amazonaws.com/assets/models/pole-1631924700152.svg&quot;},&quot;mask&quot;:{&quot;key&quot;:&quot;assets/models/pole-mask-1631925211715.svg&quot;,&quot;url&quot;:&quot;https://lct-designs.s3.us-west-1.amazonaws.com/assets/models/pole-mask-1631925211715.svg&quot;},&quot;pos&quot;:&quot;2&quot;,&quot;accessories&quot;:&quot;2,3&quot;}" style="background-color: white;"><g class="model" style="pointer-events: none;"><polygon fill="#FFFFFF" points="0.5,0.5 0.5,67.2 0.5,300.5 0.5,367.2 500.5,367.2 500.5,300.5 500.5,67.2 500.5,0.5 "></polygon></g><image width="760" height="556" xlink:href="https://lct-designs.s3.us-west-1.amazonaws.com/assets/libs/cosmos-1631957096123.png" class="asset background locked" transform="matrix(0.6595323960558116,0,0,0.6595323960558116,0,0)"></image><text fill="#f6921e" font-family="UTM Rockwell" font-size="25" x="196.88127233350318" y="200.48091056834267" stroke-opacity="1" stroke-width="1" stroke="#be1e2d" transform="matrix(0.4288991093635559,0,0,0.4288991093635559,-73.52005767822267,-2.289323538541794)" svgjs:data="{&quot;leading&quot;:&quot;1.3&quot;}"><tspan dy="0" x="196.88127233350318" svgjs:data="{&quot;newLined&quot;:true}">COACH: COACH'S NAME</tspan></text><text fill="#f6921e" font-family="UTM Rockwell" font-size="25" x="196.88127233350318" y="200.48091056834267" stroke-opacity="1" stroke-width="1" stroke="#be1e2d" transform="matrix(0.4288991093635559,0,0,0.4288991093635559,202.83631896972656,-2.2893356382846832)" svgjs:data="{&quot;leading&quot;:&quot;1.3&quot;}"><tspan dy="0" x="196.88127233350318" svgjs:data="{&quot;newLined&quot;:true}">TEAM MOM: TEAM MOM'S NAME</tspan><tspan dy="33.800000000000004" x="196.88127233350318" svgjs:data="{&quot;newLined&quot;:true}"></tspan></text><text fill="#f6921e" font-family="UTM Rockwell" font-size="30" x="196.88127233350318" y="200.48091056834267" stroke-opacity="1" stroke-width="2" stroke="#be1e2d" transform="matrix(0.4199096560478211,0,0,0.41990965604782104,-62.53873443603517,85.98149108886717)" svgjs:data="{&quot;leading&quot;:&quot;1.3&quot;}"><tspan dy="0" x="196.88127233350318" svgjs:data="{&quot;newLined&quot;:true}">PLAYER</tspan><tspan dy="39" x="196.88127233350318" svgjs:data="{&quot;newLined&quot;:true}"></tspan></text><image width="759" height="584" xlink:href="https://lct-designs.s3.us-west-1.amazonaws.com/assets/libs/cosmos-2-1631957880272.png" class="asset" transform="matrix(0.05952482746309152,0,0,0.05952482746309151,26.719794901748614,122.10941530392664)"></image><text fill="#f6921e" font-family="UTM Rockwell" font-size="30" x="196.88127233350318" y="200.48091056834267" stroke-opacity="1" stroke-width="2" stroke="#be1e2d" transform="matrix(0.4199096631427679,0,0,0.4199096631427679,-62.53874290645946,158.14587544821916)" svgjs:data="{&quot;leading&quot;:&quot;1.3&quot;}"><tspan dy="0" x="196.88127233350318" svgjs:data="{&quot;newLined&quot;:true}">PLAYER</tspan><tspan dy="39" x="196.88127233350318" svgjs:data="{&quot;newLined&quot;:true}"></tspan></text><image width="759" height="584" xlink:href="https://lct-designs.s3.us-west-1.amazonaws.com/assets/libs/cosmos-2-1631957880272.png" class="asset" transform="matrix(0.05952482746309152,0,0,0.05952482746309151,26.719791394616095,194.27380160896791)"></image><image width="760" height="154" xlink:href="https://lct-designs.s3.us-west-1.amazonaws.com/assets/libs/cosmos-1631957951976.png" class="asset" transform="matrix(0.38835504651069647,0,0,0.3883550465106964,102.3331756591797,95.3246307373047)"></image><image width="760" height="740" xlink:href="https://lct-designs.s3.us-west-1.amazonaws.com/assets/libs/cosmos-1631957824634.png" class="asset" transform="matrix(0.13157889246940613,0,0,0.13157889246940613,199.90809631347662,194.5841064453125)"></image><text fill="#f6921e" font-family="UTM Rockwell" font-size="30" x="196.88127233350318" y="200.48091056834267" stroke-opacity="1" stroke-width="2" stroke="#be1e2d" transform="matrix(0.4199096560478211,0,0,0.41990965604782104,338.1286239624024,85.98149108886717)" svgjs:data="{&quot;leading&quot;:&quot;1.3&quot;}"><tspan dy="0" x="196.88127233350318" svgjs:data="{&quot;newLined&quot;:true}">PLAYER</tspan><tspan dy="39" x="196.88127233350318" svgjs:data="{&quot;newLined&quot;:true}"></tspan></text><image width="759" height="584" xlink:href="https://lct-designs.s3.us-west-1.amazonaws.com/assets/libs/cosmos-2-1631957880272.png" class="asset" transform="matrix(0.05952484160661698,0,0,0.059524841606616974,427.38715362548834,122.10941314697267)"></image><text fill="#f6921e" font-family="UTM Rockwell" font-size="30" x="196.88127233350318" y="200.48091056834267" stroke-opacity="1" stroke-width="2" stroke="#be1e2d" transform="matrix(0.4199096560478211,0,0,0.41990965604782104,338.12861633300787,158.1458740234375)" svgjs:data="{&quot;leading&quot;:&quot;1.3&quot;}"><tspan dy="0" x="196.88127233350318" svgjs:data="{&quot;newLined&quot;:true}">PLAYER</tspan><tspan dy="39" x="196.88127233350318" svgjs:data="{&quot;newLined&quot;:true}"></tspan></text><image width="759" height="584" xlink:href="https://lct-designs.s3.us-west-1.amazonaws.com/assets/libs/cosmos-2-1631957880272.png" class="asset" transform="matrix(0.05952484160661698,0,0,0.059524841606616974,427.3871498107911,194.2738037109375)"></image><text fill="#f6921e" font-family="UTM Rockwell" font-size="30" x="196.88127233350318" y="200.48091056834267" stroke-opacity="1" stroke-width="2" stroke="#be1e2d" transform="matrix(0.4199096560478211,0,0,0.41990965604782104,255.85446166992193,129.12266540527344)" svgjs:data="{&quot;leading&quot;:&quot;1.3&quot;}"><tspan dy="0" x="196.88127233350318" svgjs:data="{&quot;newLined&quot;:true}">PLAYER</tspan><tspan dy="39" x="196.88127233350318" svgjs:data="{&quot;newLined&quot;:true}"></tspan></text><image width="759" height="584" xlink:href="https://lct-designs.s3.us-west-1.amazonaws.com/assets/libs/cosmos-2-1631957880272.png" class="asset" transform="matrix(0.05952485650777817,0,0,0.05952485650777817,345.11297607421886,165.2505874633789)"></image><text fill="#f6921e" font-family="UTM Rockwell" font-size="30" x="196.88127233350318" y="200.48091056834267" stroke-opacity="1" stroke-width="2" stroke="#be1e2d" transform="matrix(0.4199096560478211,0,0,0.41990965604782104,255.85443115234375,201.2870483398438)" svgjs:data="{&quot;leading&quot;:&quot;1.3&quot;}"><tspan dy="0" x="196.88127233350318" svgjs:data="{&quot;newLined&quot;:true}">PLAYER</tspan><tspan dy="39" x="196.88127233350318" svgjs:data="{&quot;newLined&quot;:true}"></tspan></text><image width="759" height="584" xlink:href="https://lct-designs.s3.us-west-1.amazonaws.com/assets/libs/cosmos-2-1631957880272.png" class="asset" transform="matrix(0.05952485650777817,0,0,0.05952485650777817,345.11297607421886,237.4149780273438)"></image><text fill="#f6921e" font-family="UTM Rockwell" font-size="30" x="196.88127233350318" y="200.48091056834267" stroke-opacity="1" stroke-width="2" stroke="#be1e2d" transform="matrix(0.4199096560478211,0,0,0.41990965604782104,23.78448486328125,130.9202117919922)" svgjs:data="{&quot;leading&quot;:&quot;1.3&quot;}"><tspan dy="0" x="196.88127233350318" svgjs:data="{&quot;newLined&quot;:true}">PLAYER</tspan><tspan dy="39" x="196.88127233350318" svgjs:data="{&quot;newLined&quot;:true}"></tspan></text><image width="759" height="584" xlink:href="https://lct-designs.s3.us-west-1.amazonaws.com/assets/libs/cosmos-2-1631957880272.png" class="asset" transform="matrix(0.059524886310100555,0,0,0.059524886310100555,113.04299926757811,167.04812622070312)"></image><text fill="#f6921e" font-family="UTM Rockwell" font-size="30" x="196.88127233350318" y="200.48091056834267" stroke-opacity="1" stroke-width="2" stroke="#be1e2d" transform="matrix(0.4199096560478211,0,0,0.41990965604782104,23.784454345703125,203.0845947265625)" svgjs:data="{&quot;leading&quot;:&quot;1.3&quot;}"><tspan dy="0" x="196.88127233350318" svgjs:data="{&quot;newLined&quot;:true}">PLAYER</tspan><tspan dy="39" x="196.88127233350318" svgjs:data="{&quot;newLined&quot;:true}"></tspan></text><image width="759" height="584" xlink:href="https://lct-designs.s3.us-west-1.amazonaws.com/assets/libs/cosmos-2-1631957880272.png" class="asset" transform="matrix(0.059524886310100555,0,0,0.059524886310100555,113.04299926757811,239.21252441406256)"></image><g class="mask" style="pointer-events: none;"><g><path fill="#BCBEC0" d="M-3642.4-2101.7v4589.1h7813.4v-4589.1H-3642.4z M500.5,67.2v233.3v66.7H0.5v-66.7V67.2V0.5h500V67.2z" transform="matrix(1,0,0,1,0,0)"></path><g transform="matrix(1,0,0,1,0,0)">
	<rect x="0.5" y="300.5" opacity="0.95" fill="#F1F2F2" width="500" height="66.7"></rect>
	<rect x="0.5" y="0.5" opacity="0.95" fill="#F1F2F2" width="500" height="66.7"></rect>
</g></g></g></svg>