<svg xmlns="http://www.w3.org/2000/svg" version="1.1" xmlns:xlink="http://www.w3.org/1999/xlink" xmlns:svgjs="http://svgjs.dev/svgjs" width="100%" height="100%" viewBox="1 1 499 365.70001220703125" preserveAspectRatio="none" data-info="{&quot;_id&quot;:4,&quot;name&quot;:&quot;POLE POCKET SOCCER BANNERS&quot;,&quot;information&quot;:&quot;- Size: 3’x5’\n- Material: heavy duty vinyl banner\n- Digitally printed on vinyl&quot;,&quot;price&quot;:&quot;95.00&quot;,&quot;sale_price&quot;:&quot;89.99&quot;,&quot;type&quot;:&quot;pole-pocket&quot;,&quot;cover&quot;:{&quot;key&quot;:&quot;assets/models/pole-1628062864266-1631924568908.png&quot;,&quot;url&quot;:&quot;https://lct-designs.s3.us-west-1.amazonaws.com/assets/models/pole-1628062864266-1631924568908.png&quot;},&quot;back&quot;:{&quot;key&quot;:&quot;assets/models/pole-1631924700152.svg&quot;,&quot;url&quot;:&quot;https://lct-designs.s3.us-west-1.amazonaws.com/assets/models/pole-1631924700152.svg&quot;},&quot;mask&quot;:{&quot;key&quot;:&quot;assets/models/pole-mask-1631925211715.svg&quot;,&quot;url&quot;:&quot;https://lct-designs.s3.us-west-1.amazonaws.com/assets/models/pole-mask-1631925211715.svg&quot;},&quot;pos&quot;:&quot;2&quot;,&quot;accessories&quot;:&quot;2,3&quot;}" style="background-color: white;"><g class="model" style="pointer-events: none;"><polygon fill="#FFFFFF" points="0.5,0.5 0.5,67.2 0.5,300.5 0.5,367.2 500.5,367.2 500.5,300.5 500.5,67.2 500.5,0.5 "></polygon></g><image width="760" height="455" xlink:href="https://lct-designs.s3.us-west-1.amazonaws.com/assets/libs/venus-3-1653386061003.png" class="asset background locked" transform="matrix(0.805934092762706,0,0,0.805934092762706,0,0)"></image><image width="760" height="233" xlink:href="https://lct-designs.s3.us-west-1.amazonaws.com/assets/libs/venus-4-1653386200123.png" class="asset" transform="matrix(0.3836980164051056,0,0,0.38369801640510554,87.43064880371094,117.44171142578125)"></image><image width="760" height="666" xlink:href="https://lct-designs.s3.us-west-1.amazonaws.com/assets/libs/venus-1-1653386169008.png" class="asset" transform="matrix(0.18433785438537598,0,0,0.18433785438537595,358.6490783691405,117.55339050292972)"></image><text fill="#ffffff" font-family="Casual Tossed" font-size="45" x="144.0655301419824" y="206.28407686800153" stroke-opacity="1" stroke-width="2" stroke="#b91e30" transform="matrix(0.3945777118206024,0,0,0.39457771182060236,268.10614013671875,176.666015625)" svgjs:data="{&quot;leading&quot;:&quot;1.3&quot;}"><tspan dy="0" x="144.0655301419824" svgjs:data="{&quot;newLined&quot;:true}">player</tspan></text><image width="760" height="758" xlink:href="https://lct-designs.s3.us-west-1.amazonaws.com/assets/libs/alliance1-1632042447894.png" class="asset" transform="matrix(0.03959222137928008,0,0,0.03959222137928009,287.64834594726557,234.71752929687497)"></image><image width="760" height="758" xlink:href="https://lct-designs.s3.us-west-1.amazonaws.com/assets/libs/alliance1-1632042447894.png" class="asset" transform="matrix(0.03959222137928008,0,0,0.03959222137928009,23.2783393859863,80.72570037841797)"></image><text fill="#ffffff" font-family="Casual Tossed" font-size="45" x="144.0655301419824" y="206.28407686800153" stroke-opacity="1" stroke-width="2" stroke="#b91e30" transform="matrix(0.3945777118206024,0,0,0.39457771182060236,3.736156463623047,22.674165725708008)" svgjs:data="{&quot;leading&quot;:&quot;1.3&quot;}"><tspan dy="0" x="144.0655301419824" svgjs:data="{&quot;newLined&quot;:true}">player</tspan></text><text fill="#ffffff" font-family="Casual Tossed" font-size="45" x="144.0655301419824" y="206.28407686800153" stroke-opacity="1" stroke-width="2" stroke="#b91e30" transform="matrix(0.3945777118206024,0,0,0.39457771182060236,314.54812622070307,20.458459854125977)" svgjs:data="{&quot;leading&quot;:&quot;1.3&quot;}"><tspan dy="0" x="144.0655301419824" svgjs:data="{&quot;newLined&quot;:true}">player</tspan></text><image width="760" height="758" xlink:href="https://lct-designs.s3.us-west-1.amazonaws.com/assets/libs/alliance1-1632042447894.png" class="asset" transform="matrix(0.03959222137928008,0,0,0.03959222137928009,334.0903015136719,78.50999450683591)"></image><text fill="#ffffff" font-family="Casual Tossed" font-size="45" x="144.0655301419824" y="206.28407686800153" stroke-opacity="1" stroke-width="2" stroke="#b91e30" transform="matrix(0.3945777118206024,0,0,0.39457771182060236,157.203384399414,23.228097915649414)" svgjs:data="{&quot;leading&quot;:&quot;1.3&quot;}"><tspan dy="0" x="144.0655301419824" svgjs:data="{&quot;newLined&quot;:true}">player</tspan></text><image width="760" height="758" xlink:href="https://lct-designs.s3.us-west-1.amazonaws.com/assets/libs/alliance1-1632042447894.png" class="asset" transform="matrix(0.03959222137928008,0,0,0.03959222137928009,176.74555969238276,81.27963256835935)"></image><image width="760" height="758" xlink:href="https://lct-designs.s3.us-west-1.amazonaws.com/assets/libs/alliance1-1632042447894.png" class="asset" transform="matrix(0.03959222137928008,0,0,0.03959222137928009,12.783016204833956,209.23690795898435)"></image><text fill="#ffffff" font-family="Casual Tossed" font-size="45" x="144.0655301419824" y="206.28407686800153" stroke-opacity="1" stroke-width="2" stroke="#b91e30" transform="matrix(0.3945777118206024,0,0,0.39457771182060236,-6.759166717529325,151.18536376953128)" svgjs:data="{&quot;leading&quot;:&quot;1.3&quot;}"><tspan dy="0" x="144.0655301419824" svgjs:data="{&quot;newLined&quot;:true}">player</tspan></text><text fill="#ffffff" font-family="Casual Tossed" font-size="45" x="144.0655301419824" y="206.28407686800153" stroke-opacity="1" stroke-width="2" stroke="#b91e30" transform="matrix(0.3945777118206024,0,0,0.39457771182060236,131.19810485839844,153.95500183105466)" svgjs:data="{&quot;leading&quot;:&quot;1.3&quot;}"><tspan dy="0" x="144.0655301419824" svgjs:data="{&quot;newLined&quot;:true}">player</tspan></text><image width="760" height="758" xlink:href="https://lct-designs.s3.us-west-1.amazonaws.com/assets/libs/alliance1-1632042447894.png" class="asset" transform="matrix(0.03959222137928008,0,0,0.03959222137928009,150.74028015136713,212.00653076171872)"></image><text fill="#ffffff" font-family="Casual Tossed" font-size="45" x="144.0655301419824" y="206.28407686800153" stroke-opacity="1" stroke-width="2" stroke="#b91e30" transform="matrix(0.3945777118206024,0,0,0.39457771182060236,-8.916252076625852,198.82312011718747)" svgjs:data="{&quot;leading&quot;:&quot;1.3&quot;}"><tspan dy="0" x="144.0655301419824" svgjs:data="{&quot;newLined&quot;:true}">player</tspan></text><image width="760" height="758" xlink:href="https://lct-designs.s3.us-west-1.amazonaws.com/assets/libs/alliance1-1632042447894.png" class="asset" transform="matrix(0.03959222137928008,0,0,0.03959222137928009,10.625923156738253,256.8746337890625)"></image><text fill="#ffffff" font-family="Casual Tossed" font-size="45" stroke-opacity="1" stroke-width="2" stroke="#b91e30" x="-74.19785944541994" y="206.28407686800153" transform="matrix(0.30195435881614685,0,0,0.30195435881614685,319.2967224121093,230.84333801269528)" svgjs:data="{&quot;leading&quot;:&quot;1.3&quot;}"><tspan dy="0" x="-74.19785944541994" svgjs:data="{&quot;newLined&quot;:true}">coach:coach's name</tspan><tspan dy="19.5" x="-74.19785944541994" svgjs:data="{&quot;newLined&quot;:true}"></tspan></text><text fill="#ffffff" font-family="Casual Tossed" font-size="45" x="144.0655301419824" y="206.28407686800153" stroke-opacity="1" stroke-width="2" stroke="#b91e30" transform="matrix(0.3945777118206024,0,0,0.39457771182060236,135.1342315673828,190.51422119140628)" svgjs:data="{&quot;leading&quot;:&quot;1.3&quot;}"><tspan dy="0" x="144.0655301419824" svgjs:data="{&quot;newLined&quot;:true}">player</tspan></text><image width="760" height="758" xlink:href="https://lct-designs.s3.us-west-1.amazonaws.com/assets/libs/alliance1-1632042447894.png" class="asset" transform="matrix(0.03959222137928008,0,0,0.03959222137928009,154.67640686035156,248.56573486328122)"></image><g class="mask" style="pointer-events: none;"><g><path fill="#BCBEC0" d="M-3642.4-2101.7v4589.1h7813.4v-4589.1H-3642.4z M500.5,67.2v233.3v66.7H0.5v-66.7V67.2V0.5h500V67.2z" transform="matrix(1,0,0,1,0,0)"></path><g transform="matrix(1,0,0,1,0,0)">
	<rect x="0.5" y="300.5" opacity="0.95" fill="#F1F2F2" width="500" height="66.7"></rect>
	<rect x="0.5" y="0.5" opacity="0.95" fill="#F1F2F2" width="500" height="66.7"></rect>
</g></g></g></svg>