<svg xmlns="http://www.w3.org/2000/svg" version="1.1" xmlns:xlink="http://www.w3.org/1999/xlink" xmlns:svgjs="http://svgjs.dev/svgjs" width="100%" height="100%" viewBox="1 1 499 365.70001220703125" preserveAspectRatio="none" data-info="{&quot;_id&quot;:4,&quot;name&quot;:&quot;POLE POCKET SOCCER BANNERS&quot;,&quot;information&quot;:&quot;- Size: 3’x5’\n- Material: heavy duty vinyl banner\n- Digitally printed on vinyl&quot;,&quot;price&quot;:&quot;95.00&quot;,&quot;sale_price&quot;:&quot;89.99&quot;,&quot;type&quot;:&quot;pole-pocket&quot;,&quot;cover&quot;:{&quot;key&quot;:&quot;assets/models/pole-1628062864266-1631924568908.png&quot;,&quot;url&quot;:&quot;https://lct-designs.s3.us-west-1.amazonaws.com/assets/models/pole-1628062864266-1631924568908.png&quot;},&quot;back&quot;:{&quot;key&quot;:&quot;assets/models/pole-1631924700152.svg&quot;,&quot;url&quot;:&quot;https://lct-designs.s3.us-west-1.amazonaws.com/assets/models/pole-1631924700152.svg&quot;},&quot;mask&quot;:{&quot;key&quot;:&quot;assets/models/pole-mask-1631925211715.svg&quot;,&quot;url&quot;:&quot;https://lct-designs.s3.us-west-1.amazonaws.com/assets/models/pole-mask-1631925211715.svg&quot;},&quot;pos&quot;:&quot;2&quot;,&quot;accessories&quot;:&quot;2,3&quot;}" style="background-color: white;"><g class="model" style="pointer-events: none;"><polygon fill="#FFFFFF" points="0.5,0.5 0.5,67.2 0.5,300.5 0.5,367.2 500.5,367.2 500.5,300.5 500.5,67.2 500.5,0.5 "></polygon></g><image width="760" height="556" xlink:href="https://lct-designs.s3.us-west-1.amazonaws.com/assets/libs/grapes-of-wrath-soccer-banner-1654742037140.png" class="asset background locked" transform="matrix(0.6595323960558116,0,0,0.6595323960558116,0,0)"></image><text fill="#583922" font-family="BubbleGum" font-size="50" stroke-opacity="1" stroke-width="1" stroke="#ffffff" x="-98.72634249947717" y="199.47500657859518" transform="matrix(0.2049351930618286,0,0,0.20493519306182864,369.19775390625006,252.41433715820318)" svgjs:data="{&quot;leading&quot;:&quot;1.3&quot;}"><tspan dy="0" x="-98.72634249947717" svgjs:data="{&quot;newLined&quot;:true}">TEAM MOM: TEAM MOM'S NAME</tspan></text><text fill="#583922" font-family="BubbleGum" font-size="50" stroke-opacity="1" stroke-width="1" stroke="#ffffff" x="-98.72634249947717" y="199.47500657859518" transform="matrix(0.2049351930618286,0,0,0.20493519306182864,27.319236755371097,252.41432189941412)" svgjs:data="{&quot;leading&quot;:&quot;1.3&quot;}"><tspan dy="0" x="-98.72634249947717" svgjs:data="{&quot;newLined&quot;:true}">COACH: COACH'S NAME</tspan></text><image width="760" height="522" xlink:href="https://lct-designs.s3.us-west-1.amazonaws.com/assets/libs/grapes-of-wrath-soccer-banner-2-1649403314975.png" class="asset" transform="matrix(0.24997009336948398,0,0,0.2657585442066193,155.51011657714844,114.48570251464848)"></image><text fill="#583922" font-family="BubbleGum" font-size="50" stroke-opacity="1" stroke-width="1" stroke="#ffffff" x="-98.72634249947717" y="199.47500657859518" transform="matrix(0.25276428461074835,0,0,0.25276428461074835,39.31819534301758,77.38092041015626)" svgjs:data="{&quot;leading&quot;:&quot;1.3&quot;}"><tspan dy="0" x="-98.72634249947717" svgjs:data="{&quot;newLined&quot;:true}">player</tspan></text><text fill="#583922" font-family="BubbleGum" font-size="50" stroke-opacity="1" stroke-width="1" stroke="#ffffff" x="-98.72634249947717" y="199.47500657859518" transform="matrix(0.25276428461074835,0,0,0.25276428461074835,50.632850646972656,144.73007202148443)" svgjs:data="{&quot;leading&quot;:&quot;1.3&quot;}"><tspan dy="0" x="-98.72634249947717" svgjs:data="{&quot;newLined&quot;:true}">player</tspan></text><text fill="#583922" font-family="BubbleGum" font-size="50" stroke-opacity="1" stroke-width="1" stroke="#ffffff" x="-98.72634249947717" y="199.47500657859518" transform="matrix(0.25276428461074835,0,0,0.25276428461074835,122.05527496337893,144.73007202148443)" svgjs:data="{&quot;leading&quot;:&quot;1.3&quot;}"><tspan dy="0" x="-98.72634249947717" svgjs:data="{&quot;newLined&quot;:true}">player</tspan></text><image width="754" height="760" xlink:href="https://lct-designs.s3.us-west-1.amazonaws.com/assets/libs/crusher-grape-1-1632127666738.png" class="asset" transform="matrix(0.04220358282327653,0,0,0.04220358282327653,102.37763977050781,149.51382446289062)"></image><image width="754" height="760" xlink:href="https://lct-designs.s3.us-west-1.amazonaws.com/assets/libs/crusher-grape-1-1632127666738.png" class="asset" transform="matrix(0.04220358282327653,0,0,0.04220358282327653,30.955215454101573,149.51382446289062)"></image><text fill="#583922" font-family="BubbleGum" font-size="50" stroke-opacity="1" stroke-width="1" stroke="#ffffff" x="-98.72634249947717" y="199.47500657859518" transform="matrix(0.25276428461074835,0,0,0.25276428461074835,39.31819534301758,219.08351898193365)" svgjs:data="{&quot;leading&quot;:&quot;1.3&quot;}"><tspan dy="0" x="-98.72634249947717" svgjs:data="{&quot;newLined&quot;:true}">player</tspan></text><text fill="#583922" font-family="BubbleGum" font-size="50" stroke-opacity="1" stroke-width="1" stroke="#ffffff" x="-98.72634249947717" y="199.47500657859518" transform="matrix(0.25276428461074835,0,0,0.25276428461074835,110.74060821533206,77.38092041015626)" svgjs:data="{&quot;leading&quot;:&quot;1.3&quot;}"><tspan dy="0" x="-98.72634249947717" svgjs:data="{&quot;newLined&quot;:true}">player</tspan></text><image width="754" height="760" xlink:href="https://lct-designs.s3.us-west-1.amazonaws.com/assets/libs/crusher-grape-1-1632127666738.png" class="asset" transform="matrix(0.04220358282327653,0,0,0.04220358282327653,91.06297302246095,82.16467285156254)"></image><text fill="#583922" font-family="BubbleGum" font-size="50" stroke-opacity="1" stroke-width="1" stroke="#ffffff" x="-98.72634249947717" y="199.47500657859518" transform="matrix(0.25276428461074835,0,0,0.25276428461074835,399.5337524414063,77.91970825195314)" svgjs:data="{&quot;leading&quot;:&quot;1.3&quot;}"><tspan dy="0" x="-98.72634249947717" svgjs:data="{&quot;newLined&quot;:true}">player</tspan></text><text fill="#583922" font-family="BubbleGum" font-size="50" stroke-opacity="1" stroke-width="1" stroke="#ffffff" x="-98.72634249947717" y="199.47500657859518" transform="matrix(0.25276428461074835,0,0,0.25276428461074835,388.7578430175782,146.34645080566406)" svgjs:data="{&quot;leading&quot;:&quot;1.3&quot;}"><tspan dy="0" x="-98.72634249947717" svgjs:data="{&quot;newLined&quot;:true}">player</tspan></text><text fill="#583922" font-family="BubbleGum" font-size="50" stroke-opacity="1" stroke-width="1" stroke="#ffffff" x="-98.72634249947717" y="199.47500657859518" transform="matrix(0.25276428461074835,0,0,0.25276428461074835,460.18029785156256,146.34645080566406)" svgjs:data="{&quot;leading&quot;:&quot;1.3&quot;}"><tspan dy="0" x="-98.72634249947717" svgjs:data="{&quot;newLined&quot;:true}">player</tspan></text><image width="754" height="760" xlink:href="https://lct-designs.s3.us-west-1.amazonaws.com/assets/libs/crusher-grape-1-1632127666738.png" class="asset" transform="matrix(0.04220358282327653,0,0,0.04220358282327653,440.50265502929693,151.1302032470703)"></image><image width="754" height="760" xlink:href="https://lct-designs.s3.us-west-1.amazonaws.com/assets/libs/crusher-grape-1-1632127666738.png" class="asset" transform="matrix(0.04220358282327653,0,0,0.04220358282327653,369.0802307128907,151.1302032470703)"></image><text fill="#583922" font-family="BubbleGum" font-size="50" stroke-opacity="1" stroke-width="1" stroke="#ffffff" x="-98.72634249947717" y="199.47500657859518" transform="matrix(0.25276428461074835,0,0,0.25276428461074835,399.5337524414063,219.62231445312506)" svgjs:data="{&quot;leading&quot;:&quot;1.3&quot;}"><tspan dy="0" x="-98.72634249947717" svgjs:data="{&quot;newLined&quot;:true}">player</tspan></text><text fill="#583922" font-family="BubbleGum" font-size="50" stroke-opacity="1" stroke-width="1" stroke="#ffffff" x="-98.72634249947717" y="199.47500657859518" transform="matrix(0.25276428461074835,0,0,0.25276428461074835,470.9561462402345,77.91970825195314)" svgjs:data="{&quot;leading&quot;:&quot;1.3&quot;}"><tspan dy="0" x="-98.72634249947717" svgjs:data="{&quot;newLined&quot;:true}">player</tspan></text><image width="754" height="760" xlink:href="https://lct-designs.s3.us-west-1.amazonaws.com/assets/libs/crusher-grape-1-1632127666738.png" class="asset" transform="matrix(0.04220358282327653,0,0,0.04220358282327653,451.27850341796886,82.70346069335936)"></image><text fill="#583922" font-family="BubbleGum" font-size="50" stroke-opacity="1" stroke-width="1" stroke="#ffffff" x="-98.72634249947717" y="199.47500657859518" transform="matrix(0.25276428461074835,0,0,0.25276428461074835,470.9561462402345,219.62231445312506)" svgjs:data="{&quot;leading&quot;:&quot;1.3&quot;}"><tspan dy="0" x="-98.72634249947717" svgjs:data="{&quot;newLined&quot;:true}">player</tspan></text><image width="754" height="760" xlink:href="https://lct-designs.s3.us-west-1.amazonaws.com/assets/libs/crusher-grape-1-1632127666738.png" class="asset" transform="matrix(0.04220358282327653,0,0,0.04220358282327653,451.27850341796886,224.40606689453125)"></image><image width="754" height="760" xlink:href="https://lct-designs.s3.us-west-1.amazonaws.com/assets/libs/crusher-grape-1-1632127666738.png" class="asset" transform="matrix(0.04220358282327653,0,0,0.04220358282327653,379.8561096191407,82.70346069335936)"></image><image width="754" height="760" xlink:href="https://lct-designs.s3.us-west-1.amazonaws.com/assets/libs/crusher-grape-1-1632127666738.png" class="asset" transform="matrix(0.04220358282327653,0,0,0.04220358282327653,379.8561096191407,224.40606689453125)"></image><text fill="#583922" font-family="BubbleGum" font-size="50" stroke-opacity="1" stroke-width="1" stroke="#ffffff" x="-98.72634249947717" y="199.47500657859518" transform="matrix(0.25276428461074835,0,0,0.25276428461074835,110.74060821533206,219.08351898193365)" svgjs:data="{&quot;leading&quot;:&quot;1.3&quot;}"><tspan dy="0" x="-98.72634249947717" svgjs:data="{&quot;newLined&quot;:true}">player</tspan></text><image width="754" height="760" xlink:href="https://lct-designs.s3.us-west-1.amazonaws.com/assets/libs/crusher-grape-1-1632127666738.png" class="asset" transform="matrix(0.04220358282327653,0,0,0.04220358282327653,91.06297302246095,223.8672714233399)"></image><image width="754" height="760" xlink:href="https://lct-designs.s3.us-west-1.amazonaws.com/assets/libs/crusher-grape-1-1632127666738.png" class="asset" transform="matrix(0.04220358282327653,0,0,0.04220358282327653,19.64056205749512,82.16467285156254)"></image><image width="754" height="760" xlink:href="https://lct-designs.s3.us-west-1.amazonaws.com/assets/libs/crusher-grape-1-1632127666738.png" class="asset" transform="matrix(0.04220358282327653,0,0,0.04220358282327653,19.640560150146488,223.8672714233399)"></image><g class="mask" style="pointer-events: none;"><g><path fill="#BCBEC0" d="M-3642.4-2101.7v4589.1h7813.4v-4589.1H-3642.4z M500.5,67.2v233.3v66.7H0.5v-66.7V67.2V0.5h500V67.2z" transform="matrix(1,0,0,1,0,0)"></path><g transform="matrix(1,0,0,1,0,0)">
	<rect x="0.5" y="300.5" opacity="0.95" fill="#F1F2F2" width="500" height="66.7"></rect>
	<rect x="0.5" y="0.5" opacity="0.95" fill="#F1F2F2" width="500" height="66.7"></rect>
</g></g></g></svg>