<svg xmlns="http://www.w3.org/2000/svg" version="1.1" xmlns:xlink="http://www.w3.org/1999/xlink" xmlns:svgjs="http://svgjs.dev/svgjs" width="100%" height="100%" viewBox="1 1 499 365.70001220703125" preserveAspectRatio="none" data-info="{&quot;_id&quot;:4,&quot;name&quot;:&quot;POLE POCKET SOCCER BANNERS&quot;,&quot;information&quot;:&quot;- Size: 3’x5’\n- Material: heavy duty vinyl banner\n- Digitally printed on vinyl&quot;,&quot;price&quot;:&quot;95.00&quot;,&quot;sale_price&quot;:&quot;89.99&quot;,&quot;type&quot;:&quot;pole-pocket&quot;,&quot;cover&quot;:{&quot;key&quot;:&quot;assets/models/pole-1628062864266-1631924568908.png&quot;,&quot;url&quot;:&quot;https://lct-designs.s3.us-west-1.amazonaws.com/assets/models/pole-1628062864266-1631924568908.png&quot;},&quot;back&quot;:{&quot;key&quot;:&quot;assets/models/pole-1631924700152.svg&quot;,&quot;url&quot;:&quot;https://lct-designs.s3.us-west-1.amazonaws.com/assets/models/pole-1631924700152.svg&quot;},&quot;mask&quot;:{&quot;key&quot;:&quot;assets/models/pole-mask-1631925211715.svg&quot;,&quot;url&quot;:&quot;https://lct-designs.s3.us-west-1.amazonaws.com/assets/models/pole-mask-1631925211715.svg&quot;},&quot;pos&quot;:&quot;2&quot;,&quot;accessories&quot;:&quot;2,3&quot;}" style="background-color: white;"><g class="model" style="pointer-events: none;"><polygon fill="#FFFFFF" points="0.5,0.5 0.5,67.2 0.5,300.5 0.5,367.2 500.5,367.2 500.5,300.5 500.5,67.2 500.5,0.5 "></polygon></g><image width="760" height="558" xlink:href="https://lct-designs.s3.us-west-1.amazonaws.com/assets/libs/super-heroes-1-1652349212844.png" class="asset background locked" transform="matrix(0.6589846014976501,0,0,0.6571685671806337,0,0)"></image><image width="759" height="545" xlink:href="https://lct-designs.s3.us-west-1.amazonaws.com/assets/libs/super-heroes-1-2-1633515603660.png" class="asset" transform="matrix(0.15200264751911163,0,0,0.15200264751911163,113.05003356933597,96.37638854980466)"></image><image width="760" height="391" xlink:href="https://lct-designs.s3.us-west-1.amazonaws.com/assets/libs/super-heroes-1-1633515620078.png" class="asset" transform="matrix(0.24689534306526184,0,0,0.24689534306526184,16.71854400634767,147.04400634765622)"></image><image width="760" height="750" xlink:href="https://lct-designs.s3.us-west-1.amazonaws.com/assets/libs/super-heroes-1-1633515635791.png" class="asset" transform="matrix(0.06041769683361053,0,0,0.06041769683361054,254.751953125,84.81168365478516)"></image><text fill="#ffffff" font-family="Kimberley Bl" font-size="45" stroke-opacity="1" stroke-width="3" stroke="#c2222c" x="64.97171454151965" y="201.79391883677104" transform="matrix(0.4068886935710907,0,0,0.4068886935710907,310.610595703125,211.18878173828122)" svgjs:data="{&quot;leading&quot;:&quot;1.3&quot;}"><tspan dy="0" x="64.97171454151965" svgjs:data="{&quot;newLined&quot;:true}">Team Mom:Name</tspan></text><text fill="#ffffff" font-family="Kimberley Bl" font-size="45" stroke-opacity="1" stroke-width="3" stroke="#db412a" x="64.97171454151965" y="201.79391883677104" transform="matrix(0.4068886935710907,0,0,0.4068886935710907,-12.042006492614746,208.42817687988278)" svgjs:data="{&quot;leading&quot;:&quot;1.3&quot;}"><tspan dy="0" x="64.97171454151965" svgjs:data="{&quot;newLined&quot;:true}">Coach:Coach's name</tspan></text><text fill="#ffffff" font-family="Kimberley Bl" font-size="45" stroke-opacity="1" stroke-width="2" stroke="#000000" x="181.64101843556261" y="201.79391883677104" transform="matrix(0.5000920295715332,0,0,0.5000920295715332,199.38751220703125,15.524770736694329)" svgjs:data="{&quot;leading&quot;:&quot;1.3&quot;}"><tspan dy="0" x="181.64101843556261" svgjs:data="{&quot;newLined&quot;:true}">Player</tspan></text><image width="760" height="750" xlink:href="https://lct-designs.s3.us-west-1.amazonaws.com/assets/libs/super-heroes-1-1633515635791.png" class="asset" transform="matrix(0.06041769683361053,0,0,0.06041769683361054,371.9553527832031,84.81172180175781)"></image><text fill="#ffffff" font-family="Kimberley Bl" font-size="45" stroke-opacity="1" stroke-width="2" stroke="#000000" x="181.64101843556261" y="201.79391883677104" transform="matrix(0.5000920295715332,0,0,0.5000920295715332,316.5909118652344,15.524776458740241)" svgjs:data="{&quot;leading&quot;:&quot;1.3&quot;}"><tspan dy="0" x="181.64101843556261" svgjs:data="{&quot;newLined&quot;:true}">Player</tspan></text><image width="760" height="750" xlink:href="https://lct-designs.s3.us-west-1.amazonaws.com/assets/libs/super-heroes-1-1633515635791.png" class="asset" transform="matrix(0.06041769683361053,0,0,0.06041769683361054,230.24441528320312,126.68082427978516)"></image><text fill="#ffffff" font-family="Kimberley Bl" font-size="45" stroke-opacity="1" stroke-width="2" stroke="#000000" x="181.64101843556261" y="201.79391883677104" transform="matrix(0.5000920295715332,0,0,0.5000920295715332,174.87997436523438,57.39391326904296)" svgjs:data="{&quot;leading&quot;:&quot;1.3&quot;}"><tspan dy="0" x="181.64101843556261" svgjs:data="{&quot;newLined&quot;:true}">Player</tspan></text><image width="760" height="750" xlink:href="https://lct-designs.s3.us-west-1.amazonaws.com/assets/libs/super-heroes-1-1633515635791.png" class="asset" transform="matrix(0.06041769683361053,0,0,0.06041769683361054,347.44781494140625,126.68086242675781)"></image><text fill="#ffffff" font-family="Kimberley Bl" font-size="45" stroke-opacity="1" stroke-width="2" stroke="#000000" x="181.64101843556261" y="201.79391883677104" transform="matrix(0.5000920295715332,0,0,0.5000920295715332,292.0833740234375,57.39391708374023)" svgjs:data="{&quot;leading&quot;:&quot;1.3&quot;}"><tspan dy="0" x="181.64101843556261" svgjs:data="{&quot;newLined&quot;:true}">Player</tspan></text><image width="760" height="750" xlink:href="https://lct-designs.s3.us-west-1.amazonaws.com/assets/libs/super-heroes-1-1633515635791.png" class="asset" transform="matrix(0.06041769683361053,0,0,0.06041769683361054,254.16964721679688,168.5499496459961)"></image><text fill="#ffffff" font-family="Kimberley Bl" font-size="45" stroke-opacity="1" stroke-width="2" stroke="#000000" x="181.64101843556261" y="201.79391883677104" transform="matrix(0.5000920295715332,0,0,0.5000920295715332,198.80520629882812,99.26303672790527)" svgjs:data="{&quot;leading&quot;:&quot;1.3&quot;}"><tspan dy="0" x="181.64101843556261" svgjs:data="{&quot;newLined&quot;:true}">Player</tspan></text><image width="760" height="750" xlink:href="https://lct-designs.s3.us-west-1.amazonaws.com/assets/libs/super-heroes-1-1633515635791.png" class="asset" transform="matrix(0.06041769683361053,0,0,0.06041769683361054,371.373046875,168.54998779296872)"></image><text fill="#ffffff" font-family="Kimberley Bl" font-size="45" stroke-opacity="1" stroke-width="2" stroke="#000000" x="181.64101843556261" y="201.79391883677104" transform="matrix(0.5000920295715332,0,0,0.5000920295715332,316.00860595703125,99.26304244995117)" svgjs:data="{&quot;leading&quot;:&quot;1.3&quot;}"><tspan dy="0" x="181.64101843556261" svgjs:data="{&quot;newLined&quot;:true}">Player</tspan></text><image width="760" height="750" xlink:href="https://lct-designs.s3.us-west-1.amazonaws.com/assets/libs/super-heroes-1-1633515635791.png" class="asset" transform="matrix(0.06041769683361053,0,0,0.06041769683361054,229.66210937500006,210.41909027099607)"></image><text fill="#ffffff" font-family="Kimberley Bl" font-size="45" stroke-opacity="1" stroke-width="2" stroke="#000000" x="181.64101843556261" y="201.79391883677104" transform="matrix(0.5000920295715332,0,0,0.5000920295715332,174.29766845703125,141.13217163085938)" svgjs:data="{&quot;leading&quot;:&quot;1.3&quot;}"><tspan dy="0" x="181.64101843556261" svgjs:data="{&quot;newLined&quot;:true}">Player</tspan></text><image width="760" height="750" xlink:href="https://lct-designs.s3.us-west-1.amazonaws.com/assets/libs/super-heroes-1-1633515635791.png" class="asset" transform="matrix(0.06041769683361053,0,0,0.06041769683361054,346.8655090332031,210.41912841796872)"></image><text fill="#ffffff" font-family="Kimberley Bl" font-size="45" stroke-opacity="1" stroke-width="2" stroke="#000000" x="181.64101843556261" y="201.79391883677104" transform="matrix(0.5000920295715332,0,0,0.5000920295715332,291.5010681152344,141.13218307495117)" svgjs:data="{&quot;leading&quot;:&quot;1.3&quot;}"><tspan dy="0" x="181.64101843556261" svgjs:data="{&quot;newLined&quot;:true}">Player</tspan></text><g class="mask" style="pointer-events: none;"><g><path fill="#BCBEC0" d="M-3642.4-2101.7v4589.1h7813.4v-4589.1H-3642.4z M500.5,67.2v233.3v66.7H0.5v-66.7V67.2V0.5h500V67.2z" transform="matrix(1,0,0,1,0,0)"></path><g transform="matrix(1,0,0,1,0,0)">
	<rect x="0.5" y="300.5" opacity="0.95" fill="#F1F2F2" width="500" height="66.7"></rect>
	<rect x="0.5" y="0.5" opacity="0.95" fill="#F1F2F2" width="500" height="66.7"></rect>
</g></g></g></svg>