<svg xmlns="http://www.w3.org/2000/svg" version="1.1" xmlns:xlink="http://www.w3.org/1999/xlink" xmlns:svgjs="http://svgjs.dev/svgjs" width="100%" height="100%" viewBox="1 1 499 365.70001220703125" preserveAspectRatio="none" data-info="{&quot;_id&quot;:4,&quot;name&quot;:&quot;POLE POCKET SOCCER BANNERS&quot;,&quot;information&quot;:&quot;- Size: 3’x5’\n- Material: heavy duty vinyl banner\n- Digitally printed on vinyl&quot;,&quot;price&quot;:&quot;95.00&quot;,&quot;sale_price&quot;:&quot;89.99&quot;,&quot;type&quot;:&quot;pole-pocket&quot;,&quot;cover&quot;:{&quot;key&quot;:&quot;assets/models/pole-1628062864266-1631924568908.png&quot;,&quot;url&quot;:&quot;https://lct-designs.s3.us-west-1.amazonaws.com/assets/models/pole-1628062864266-1631924568908.png&quot;},&quot;back&quot;:{&quot;key&quot;:&quot;assets/models/pole-1631924700152.svg&quot;,&quot;url&quot;:&quot;https://lct-designs.s3.us-west-1.amazonaws.com/assets/models/pole-1631924700152.svg&quot;},&quot;mask&quot;:{&quot;key&quot;:&quot;assets/models/pole-mask-1631925211715.svg&quot;,&quot;url&quot;:&quot;https://lct-designs.s3.us-west-1.amazonaws.com/assets/models/pole-mask-1631925211715.svg&quot;},&quot;pos&quot;:&quot;2&quot;,&quot;accessories&quot;:&quot;2,3&quot;}" style="background-color: white;"><g class="model" style="pointer-events: none;"><polygon fill="#FFFFFF" points="0.5,0.5 0.5,67.2 0.5,300.5 0.5,367.2 500.5,367.2 500.5,300.5 500.5,67.2 500.5,0.5 "></polygon></g><image width="760" height="556" xlink:href="https://lct-designs.s3.us-west-1.amazonaws.com/assets/libs/real-steels-1633602138011.png" class="asset background locked" transform="matrix(0.6595323960558116,0,0,0.6595323960558116,0,0)"></image><image width="760" height="169" xlink:href="https://lct-designs.s3.us-west-1.amazonaws.com/assets/libs/real-steels-1633602161813.png" class="asset locked" transform="matrix(0.5071418285369874,0,0,0.6007022261619568,56.78875732421878,90.4673843383789)"></image><image width="760" height="740" xlink:href="https://lct-designs.s3.us-west-1.amazonaws.com/assets/libs/real-steels-1633602171714.png" class="asset" transform="matrix(0.05193936079740525,0,0,0.05193936079740525,16.342132568359375,253.02995300292972)"></image><text fill="#ffffff" font-family="American Captain" font-size="45" stroke-opacity="1" stroke-width="0" stroke="#ffffff" x="196.88483852580882" y="200.20285593510073" transform="matrix(0.39184761047363287,0,0,0.39184761047363287,-23.513301849365234,197.66082763671878)" svgjs:data="{&quot;leading&quot;:&quot;1.3&quot;}"><tspan dy="0" x="196.88483852580882" svgjs:data="{&quot;newLined&quot;:true}">Player</tspan></text><image width="760" height="740" xlink:href="https://lct-designs.s3.us-west-1.amazonaws.com/assets/libs/real-steels-1633602171714.png" class="asset" transform="matrix(0.05193937942385674,0,0,0.05193937942385674,203.05209350585938,250.09317016601565)"></image><text fill="#ffffff" font-family="American Captain" font-size="45" stroke-opacity="1" stroke-width="0" stroke="#ffffff" x="196.88483852580882" y="200.20285593510073" transform="matrix(0.39184761047363287,0,0,0.39184761047363287,163.1966400146485,195.2196044921875)" svgjs:data="{&quot;leading&quot;:&quot;1.3&quot;}"><tspan dy="0" x="196.88483852580882" svgjs:data="{&quot;newLined&quot;:true}">Player</tspan></text><text fill="#ffffff" font-family="American Captain" font-size="45" stroke-opacity="1" stroke-width="0" stroke="#ffffff" x="196.88483852580882" y="200.20285593510073" transform="matrix(0.39184761047363287,0,0,0.39184761047363287,85.48597717285159,146.65660107135776)" svgjs:data="{&quot;leading&quot;:&quot;1.3&quot;}"><tspan dy="0" x="196.88483852580882" svgjs:data="{&quot;newLined&quot;:true}">Player</tspan></text><image width="760" height="740" xlink:href="https://lct-designs.s3.us-west-1.amazonaws.com/assets/libs/real-steels-1633602171714.png" class="asset" transform="matrix(0.05193938687443734,0,0,0.05193938687443734,126.74919128417969,201.56378185749057)"></image><image width="760" height="740" xlink:href="https://lct-designs.s3.us-west-1.amazonaws.com/assets/libs/real-steels-1633602171714.png" class="asset" transform="matrix(0.05193935707211495,0,0,0.05193935707211495,23.58755874633789,201.56378167867658)"></image><text fill="#ffffff" font-family="American Captain" font-size="45" stroke-opacity="1" stroke-width="0" stroke="#ffffff" x="196.88483852580882" y="200.20285593510073" transform="matrix(0.39184761047363287,0,0,0.39184761047363287,-10.24255138635634,145.66552728414536)" svgjs:data="{&quot;leading&quot;:&quot;1.3&quot;}"><tspan dy="0" x="196.88483852580882" svgjs:data="{&quot;newLined&quot;:true}">Player</tspan></text><image width="760" height="740" xlink:href="https://lct-designs.s3.us-west-1.amazonaws.com/assets/libs/real-steels-1633602171714.png" class="asset" transform="matrix(0.05193939059972764,0,0,0.05193939059972764,222.66537475585943,202.48483276367185)"></image><image width="760" height="740" xlink:href="https://lct-designs.s3.us-west-1.amazonaws.com/assets/libs/real-steels-1633602171714.png" class="asset" transform="matrix(0.05193938314914704,0,0,0.05193938314914704,298.78060913085943,235.72247314453122)"></image><text fill="#ffffff" font-family="American Captain" font-size="45" stroke-opacity="1" stroke-width="0" stroke="#ffffff" x="196.88483852580882" y="200.20285593510073" transform="matrix(0.39184761047363287,0,0,0.39184761047363287,258.92517089843756,180.84890747070315)" svgjs:data="{&quot;leading&quot;:&quot;1.3&quot;}"><tspan dy="0" x="196.88483852580882" svgjs:data="{&quot;newLined&quot;:true}">Player</tspan></text><text fill="#ffffff" font-family="American Captain" font-size="45" stroke-opacity="1" stroke-width="0" stroke="#ffffff" x="196.88483852580882" y="200.20285593510073" transform="matrix(0.39184761047363287,0,0,0.39184761047363287,182.80993652343756,147.61125183105472)" svgjs:data="{&quot;leading&quot;:&quot;1.3&quot;}"><tspan dy="0" x="196.88483852580882" svgjs:data="{&quot;newLined&quot;:true}">Player</tspan></text><image width="760" height="740" xlink:href="https://lct-designs.s3.us-west-1.amazonaws.com/assets/libs/real-steels-1633602171714.png" class="asset" transform="matrix(0.05193937942385674,0,0,0.05193937942385674,14.350646972656278,161.4249725341797)"></image><text fill="#ffffff" font-family="American Captain" font-size="45" stroke-opacity="1" stroke-width="0" stroke="#ffffff" x="196.88483852580882" y="200.20285593510073" transform="matrix(0.39184761047363287,0,0,0.39184761047363287,-26.912567138671875,106.51779174804688)" svgjs:data="{&quot;leading&quot;:&quot;1.3&quot;}"><tspan dy="0" x="196.88483852580882" svgjs:data="{&quot;newLined&quot;:true}">Player</tspan></text><image width="587" height="760" xlink:href="https://lct-designs.s3.us-west-1.amazonaws.com/assets/libs/real-steels-1633602151328.png" class="asset" transform="matrix(0.20254559814929965,0,0,0.2117772251367569,382.3103942871095,139.29649353027347)"></image><image width="760" height="740" xlink:href="https://lct-designs.s3.us-west-1.amazonaws.com/assets/libs/real-steels-1633602171714.png" class="asset" transform="matrix(0.05193936824798585,0,0,0.05193936824798585,107.11524963378909,251.5433197021484)"></image><text fill="#ffffff" font-family="American Captain" font-size="45" stroke-opacity="1" stroke-width="0" stroke="#ffffff" x="196.88483852580882" y="200.20285593510073" transform="matrix(0.39184761047363287,0,0,0.39184761047363287,67.25981521606448,196.17419433593753)" svgjs:data="{&quot;leading&quot;:&quot;1.3&quot;}"><tspan dy="0" x="196.88483852580882" svgjs:data="{&quot;newLined&quot;:true}">Player</tspan></text><text fill="#ffffff" font-family="American Captain" font-size="45" x="101.5861896915803" y="200.20285593510073" stroke-opacity="1" stroke-width="2" stroke="#000000" transform="matrix(0.379745364189148,0,0,0.379745364189148,344.3749084472657,8.73454761505127)" svgjs:data="{&quot;leading&quot;:&quot;1.3&quot;}"><tspan dy="0" x="101.5861896915803" svgjs:data="{&quot;newLined&quot;:true}">Coach:coach's name</tspan></text><text fill="#ffffff" font-family="American Captain" font-size="45" x="101.5861896915803" y="200.20285593510073" stroke-opacity="1" stroke-width="2" stroke="#000000" transform="matrix(0.379745364189148,0,0,0.379745364189148,-32.14674377441405,9.725625038146973)" svgjs:data="{&quot;leading&quot;:&quot;1.3&quot;}"><tspan dy="0" x="101.5861896915803" svgjs:data="{&quot;newLined&quot;:true}">Team mom:name</tspan></text><g class="mask" style="pointer-events: none;"><g><path fill="#BCBEC0" d="M-3642.4-2101.7v4589.1h7813.4v-4589.1H-3642.4z M500.5,67.2v233.3v66.7H0.5v-66.7V67.2V0.5h500V67.2z" transform="matrix(1,0,0,1,0,0)"></path><g transform="matrix(1,0,0,1,0,0)">
	<rect x="0.5" y="300.5" opacity="0.95" fill="#F1F2F2" width="500" height="66.7"></rect>
	<rect x="0.5" y="0.5" opacity="0.95" fill="#F1F2F2" width="500" height="66.7"></rect>
</g></g></g></svg>