<svg xmlns="http://www.w3.org/2000/svg" version="1.1" xmlns:xlink="http://www.w3.org/1999/xlink" xmlns:svgjs="http://svgjs.dev/svgjs" width="100%" height="100%" viewBox="1 1 499 365.70001220703125" preserveAspectRatio="none" data-info="{&quot;_id&quot;:4,&quot;name&quot;:&quot;POLE POCKET SOCCER BANNERS&quot;,&quot;information&quot;:&quot;- Size: 3’x5’\n- Material: heavy duty vinyl banner\n- Digitally printed on vinyl&quot;,&quot;price&quot;:&quot;95.00&quot;,&quot;sale_price&quot;:&quot;89.99&quot;,&quot;type&quot;:&quot;pole-pocket&quot;,&quot;cover&quot;:{&quot;key&quot;:&quot;assets/models/pole-1628062864266-1631924568908.png&quot;,&quot;url&quot;:&quot;https://lct-designs.s3.us-west-1.amazonaws.com/assets/models/pole-1628062864266-1631924568908.png&quot;},&quot;back&quot;:{&quot;key&quot;:&quot;assets/models/pole-1631924700152.svg&quot;,&quot;url&quot;:&quot;https://lct-designs.s3.us-west-1.amazonaws.com/assets/models/pole-1631924700152.svg&quot;},&quot;mask&quot;:{&quot;key&quot;:&quot;assets/models/pole-mask-1631925211715.svg&quot;,&quot;url&quot;:&quot;https://lct-designs.s3.us-west-1.amazonaws.com/assets/models/pole-mask-1631925211715.svg&quot;},&quot;pos&quot;:&quot;2&quot;,&quot;accessories&quot;:&quot;2,3&quot;}" style="background-color: white;"><g class="model" style="pointer-events: none;"><polygon fill="#FFFFFF" points="0.5,0.5 0.5,67.2 0.5,300.5 0.5,367.2 500.5,367.2 500.5,300.5 500.5,67.2 500.5,0.5 "></polygon></g><image width="760" height="556" xlink:href="https://lct-designs.s3.us-west-1.amazonaws.com/assets/libs/dolphins-soccer-banner-1654502134391.png" class="asset background locked" transform="matrix(0.6595323960558116,0,0,0.6595323960558116,0,0)"></image><text fill="#1b75bb" font-family="Chunky Funks" font-size="35" x="166.04423511167727" y="202.53708149662467" stroke-opacity="1" stroke-width="1" stroke="#ffffff" transform="matrix(0.3287045657634735,0,0,0.3287045657634735,-44.33561706542969,17.41685295104982)" svgjs:data="{&quot;leading&quot;:&quot;1.3&quot;}"><tspan dy="0" x="166.04423511167727" svgjs:data="{&quot;newLined&quot;:true}">Coach: coach's name </tspan><tspan dy="45.5" x="166.04423511167727" svgjs:data="{&quot;newLined&quot;:true}"></tspan><tspan dy="45.5" x="166.04423511167727" svgjs:data="{&quot;newLined&quot;:true}"></tspan></text><text fill="#1b75bb" font-family="Chunky Funks" font-size="35" x="166.04423511167727" y="202.53708149662467" stroke-opacity="1" stroke-width="1" stroke="#ffffff" transform="matrix(0.3287045955657959,0,0,0.3287045955657959,262.28143310546875,17.41683578491211)" svgjs:data="{&quot;leading&quot;:&quot;1.3&quot;}"><tspan dy="0" x="166.04423511167727" svgjs:data="{&quot;newLined&quot;:true}">Team mom: team mom's name</tspan><tspan dy="45.5" x="166.04423511167727" svgjs:data="{&quot;newLined&quot;:true}"></tspan></text><text fill="#1b75bb" font-family="Chunky Funks" font-size="45" x="166.04423511167727" y="202.53708149662467" stroke-opacity="1" stroke-width="2" stroke="#ffffff" transform="matrix(0.35501691699028015,0,0,0.35501691699028015,-30.627737045288086,89.59010314941408)" svgjs:data="{&quot;leading&quot;:&quot;1.3&quot;}"><tspan dy="0" x="166.04423511167727" svgjs:data="{&quot;newLined&quot;:true}">PLAYER</tspan></text><image width="759" height="581" xlink:href="https://lct-designs.s3.us-west-1.amazonaws.com/assets/libs/dolphins-1-1647510395100.png" class="asset" transform="matrix(0.07067411392927168,0,0,0.07067411392927168,31.99668502807618,104.26579284667967)"></image><image width="759" height="581" xlink:href="https://lct-designs.s3.us-west-1.amazonaws.com/assets/libs/dolphins-1-1647510395100.png" class="asset" transform="matrix(0.07067411392927168,0,0,0.07067411392927168,405.14794921874994,104.85723876953124)"></image><text fill="#1b75bb" font-family="Chunky Funks" font-size="45" x="166.04423511167727" y="202.53708149662467" stroke-opacity="1" stroke-width="2" stroke="#ffffff" transform="matrix(0.35501691699028015,0,0,0.35501691699028015,342.5235290527344,90.18154907226561)" svgjs:data="{&quot;leading&quot;:&quot;1.3&quot;}"><tspan dy="0" x="166.04423511167727" svgjs:data="{&quot;newLined&quot;:true}">PLAYER</tspan></text><image width="760" height="362" xlink:href="https://lct-designs.s3.us-west-1.amazonaws.com/assets/libs/dolphins-2-1647510388657.png" class="asset" transform="matrix(0.34560665488243103,0,0,0.34560665488243103,112.47551727294922,85.60276031494142)"></image><text fill="#1b75bb" font-family="Chunky Funks" font-size="45" x="166.04423511167727" y="202.53708149662467" stroke-opacity="1" stroke-width="2" stroke="#ffffff" transform="matrix(0.35501691699028015,0,0,0.35501691699028015,-44.93194580078124,166.4788055419922)" svgjs:data="{&quot;leading&quot;:&quot;1.3&quot;}"><tspan dy="0" x="166.04423511167727" svgjs:data="{&quot;newLined&quot;:true}">PLAYER</tspan></text><image width="759" height="581" xlink:href="https://lct-designs.s3.us-west-1.amazonaws.com/assets/libs/dolphins-1-1647510395100.png" class="asset" transform="matrix(0.07067411392927168,0,0,0.07067411392927168,17.692474365234382,181.1544952392578)"></image><text fill="#1b75bb" font-family="Chunky Funks" font-size="45" x="166.04423511167727" y="202.53708149662467" stroke-opacity="1" stroke-width="2" stroke="#ffffff" transform="matrix(0.35501691699028015,0,0,0.35501691699028015,371.3953247070312,167.6616973876953)" svgjs:data="{&quot;leading&quot;:&quot;1.3&quot;}"><tspan dy="0" x="166.04423511167727" svgjs:data="{&quot;newLined&quot;:true}">PLAYER</tspan></text><image width="759" height="581" xlink:href="https://lct-designs.s3.us-west-1.amazonaws.com/assets/libs/dolphins-1-1647510395100.png" class="asset" transform="matrix(0.07067411392927168,0,0,0.07067411392927168,434.0197448730468,182.33738708496094)"></image><text fill="#1b75bb" font-family="Chunky Funks" font-size="45" x="166.04423511167727" y="202.53708149662467" stroke-opacity="1" stroke-width="2" stroke="#ffffff" transform="matrix(0.35501691699028015,0,0,0.35501691699028015,24.213214874267585,220.3009033203125)" svgjs:data="{&quot;leading&quot;:&quot;1.3&quot;}"><tspan dy="0" x="166.04423511167727" svgjs:data="{&quot;newLined&quot;:true}">PLAYER</tspan></text><image width="759" height="581" xlink:href="https://lct-designs.s3.us-west-1.amazonaws.com/assets/libs/dolphins-1-1647510395100.png" class="asset" transform="matrix(0.07067411392927168,0,0,0.07067411392927168,86.83763885498047,234.97659301757812)"></image><text fill="#1b75bb" font-family="Chunky Funks" font-size="45" x="166.04423511167727" y="202.53708149662467" stroke-opacity="1" stroke-width="2" stroke="#ffffff" transform="matrix(0.35501691699028015,0,0,0.35501691699028015,296.81774902343744,219.70945739746094)" svgjs:data="{&quot;leading&quot;:&quot;1.3&quot;}"><tspan dy="0" x="166.04423511167727" svgjs:data="{&quot;newLined&quot;:true}">PLAYER</tspan></text><image width="759" height="581" xlink:href="https://lct-designs.s3.us-west-1.amazonaws.com/assets/libs/dolphins-1-1647510395100.png" class="asset" transform="matrix(0.07067411392927168,0,0,0.07067411392927168,359.4421691894531,234.3851470947265)"></image><text fill="#1b75bb" font-family="Chunky Funks" font-size="45" x="166.04423511167727" y="202.53708149662467" stroke-opacity="1" stroke-width="2" stroke="#ffffff" transform="matrix(0.35501691699028015,0,0,0.35501691699028015,109.32757568359375,197.23428344726562)" svgjs:data="{&quot;leading&quot;:&quot;1.3&quot;}"><tspan dy="0" x="166.04423511167727" svgjs:data="{&quot;newLined&quot;:true}">PLAYER</tspan></text><image width="759" height="581" xlink:href="https://lct-designs.s3.us-west-1.amazonaws.com/assets/libs/dolphins-1-1647510395100.png" class="asset" transform="matrix(0.07067411392927168,0,0,0.07067411392927168,171.95199584960935,211.90997314453125)"></image><text fill="#1b75bb" font-family="Chunky Funks" font-size="45" x="166.04423511167727" y="202.53708149662467" stroke-opacity="1" stroke-width="2" stroke="#ffffff" transform="matrix(0.35501691699028015,0,0,0.35501691699028015,215.73419189453125,197.8257598876953)" svgjs:data="{&quot;leading&quot;:&quot;1.3&quot;}"><tspan dy="0" x="166.04423511167727" svgjs:data="{&quot;newLined&quot;:true}">PLAYER</tspan></text><image width="759" height="581" xlink:href="https://lct-designs.s3.us-west-1.amazonaws.com/assets/libs/dolphins-1-1647510395100.png" class="asset" transform="matrix(0.07067411392927168,0,0,0.07067411392927168,278.3586120605468,212.50144958496094)"></image><g class="mask" style="pointer-events: none;"><g><path fill="#BCBEC0" d="M-3642.4-2101.7v4589.1h7813.4v-4589.1H-3642.4z M500.5,67.2v233.3v66.7H0.5v-66.7V67.2V0.5h500V67.2z" transform="matrix(1,0,0,1,0,0)"></path><g transform="matrix(1,0,0,1,0,0)">
	<rect x="0.5" y="300.5" opacity="0.95" fill="#F1F2F2" width="500" height="66.7"></rect>
	<rect x="0.5" y="0.5" opacity="0.95" fill="#F1F2F2" width="500" height="66.7"></rect>
</g></g></g></svg>