<svg xmlns="http://www.w3.org/2000/svg" version="1.1" xmlns:xlink="http://www.w3.org/1999/xlink" xmlns:svgjs="http://svgjs.dev/svgjs" width="100%" height="100%" viewBox="1 1 499 365.70001220703125" preserveAspectRatio="none" data-info="{&quot;_id&quot;:4,&quot;name&quot;:&quot;POLE POCKET SOCCER BANNERS&quot;,&quot;information&quot;:&quot;- Size: 3’x5’\n- Material: heavy duty vinyl banner\n- Digitally printed on vinyl&quot;,&quot;price&quot;:&quot;95.00&quot;,&quot;sale_price&quot;:&quot;89.99&quot;,&quot;type&quot;:&quot;pole-pocket&quot;,&quot;cover&quot;:{&quot;key&quot;:&quot;assets/models/pole-1628062864266-1631924568908.png&quot;,&quot;url&quot;:&quot;https://lct-designs.s3.us-west-1.amazonaws.com/assets/models/pole-1628062864266-1631924568908.png&quot;},&quot;back&quot;:{&quot;key&quot;:&quot;assets/models/pole-1631924700152.svg&quot;,&quot;url&quot;:&quot;https://lct-designs.s3.us-west-1.amazonaws.com/assets/models/pole-1631924700152.svg&quot;},&quot;mask&quot;:{&quot;key&quot;:&quot;assets/models/pole-mask-1631925211715.svg&quot;,&quot;url&quot;:&quot;https://lct-designs.s3.us-west-1.amazonaws.com/assets/models/pole-mask-1631925211715.svg&quot;},&quot;pos&quot;:&quot;2&quot;,&quot;accessories&quot;:&quot;2,3&quot;}" style="background-color: white;"><g class="model" style="pointer-events: none;"><polygon fill="#FFFFFF" points="0.5,0.5 0.5,67.2 0.5,300.5 0.5,367.2 500.5,367.2 500.5,300.5 500.5,67.2 500.5,0.5 "></polygon></g><image width="760" height="556" xlink:href="https://lct-designs.s3.us-west-1.amazonaws.com/assets/libs/fireice-soccer-banner1-1654592798971.png" class="asset background locked" transform="matrix(0.6595323960558116,0,0,0.6595323960558116,0,0)"></image><text fill="#231f20" font-family="Impact" font-size="50" stroke-opacity="1" stroke-width="2" stroke="#ffffff" x="187.19052147835683" y="195.27403192419" transform="matrix(0.3250116407871247,0,0,0.3250116407871247,-48.27346420288087,83.71695709228516)" svgjs:data="{&quot;leading&quot;:&quot;1.3&quot;}"><tspan dy="0" x="187.19052147835683" svgjs:data="{&quot;newLined&quot;:true}">player</tspan></text><text fill="#231f20" font-family="Impact" font-size="50" stroke-opacity="1" stroke-width="2" stroke="#ffffff" x="187.19052147835683" y="195.27403192419" transform="matrix(0.32501161098480225,0,0,0.3250116109848023,-45.51104736328125,166.2456817626953)" svgjs:data="{&quot;leading&quot;:&quot;1.3&quot;}"><tspan dy="0" x="187.19052147835683" svgjs:data="{&quot;newLined&quot;:true}">player</tspan></text><text fill="#231f20" font-family="Impact" font-size="50" stroke-opacity="1" stroke-width="2" stroke="#ffffff" x="187.19052147835683" y="195.27403192419" transform="matrix(0.32501161098480225,0,0,0.3250116109848023,24.879085540771488,198.91331481933594)" svgjs:data="{&quot;leading&quot;:&quot;1.3&quot;}"><tspan dy="0" x="187.19052147835683" svgjs:data="{&quot;newLined&quot;:true}">player</tspan></text><text fill="#231f20" font-family="Impact" font-size="50" stroke-opacity="1" stroke-width="2" stroke="#ffffff" x="187.19052147835683" y="195.27403192419" transform="matrix(0.32501151787815274,0,0,0.32501151787815274,22.11666936794609,116.38457861349161)" svgjs:data="{&quot;leading&quot;:&quot;1.3&quot;}"><tspan dy="0" x="187.19052147835683" svgjs:data="{&quot;newLined&quot;:true}">player</tspan></text><text fill="#000000" font-family="Impact" font-size="50" stroke-opacity="1" stroke-width="2" stroke="#ffffff" x="13.584969526232896" y="196.44862075118056" class="" transform="matrix(0.2347434461116791,0,0,0.2347434461116791,351.0609436035157,246.45007324218756)" svgjs:data="{&quot;leading&quot;:&quot;1.3&quot;}"><tspan dy="0" x="13.584969526232896" svgjs:data="{&quot;newLined&quot;:true}">TEAM MOM: TEAM MOM'S NAME</tspan><tspan dy="65" x="13.584969526232896" svgjs:data="{&quot;newLined&quot;:true}"></tspan><tspan dy="65" x="13.584969526232896" svgjs:data="{&quot;newLined&quot;:true}"></tspan></text><text fill="#000000" font-family="Impact" font-size="50" stroke-opacity="1" stroke-width="2" stroke="#ffffff" x="13.584969526232896" y="196.44862075118056" class="" transform="matrix(0.2347434610128403,0,0,0.2347434610128403,9.349990844726566,246.45004272460943)" svgjs:data="{&quot;leading&quot;:&quot;1.3&quot;}"><tspan dy="0" x="13.584969526232896" svgjs:data="{&quot;newLined&quot;:true}">COACH: COACH'S NAME</tspan><tspan dy="65" x="13.584969526232896" svgjs:data="{&quot;newLined&quot;:true}"></tspan></text><image width="390" height="760" xlink:href="https://lct-designs.s3.us-west-1.amazonaws.com/assets/libs/fireice-soccer-banner3-1654592798971.png" class="asset" transform="matrix(0.13157889246940616,0,0,0.13157889246940613,230.18339538574224,191.7984619140625)"></image><text fill="#231f20" font-family="Impact" font-size="50" stroke-opacity="1" stroke-width="2" stroke="#ffffff" x="187.19052147835683" y="195.27403192419" transform="matrix(0.3250116705894471,0,0,0.3250116705894471,98.64104080200198,219.63595581054688)" svgjs:data="{&quot;leading&quot;:&quot;1.3&quot;}"><tspan dy="0" x="187.19052147835683" svgjs:data="{&quot;newLined&quot;:true}">player</tspan></text><image width="749" height="760" xlink:href="https://lct-designs.s3.us-west-1.amazonaws.com/assets/libs/fireice-soccer-banner4-1654592798970.png" class="asset" transform="matrix(0.05527278035879136,0,0,0.05527278035879135,15.919096946716312,173.37078857421875)"></image><image width="749" height="760" xlink:href="https://lct-designs.s3.us-west-1.amazonaws.com/assets/libs/fireice-soccer-banner4-1654592798970.png" class="asset" transform="matrix(0.05527278035879136,0,0,0.05527278035879135,13.156677246093754,90.84204864501953)"></image><image width="749" height="760" xlink:href="https://lct-designs.s3.us-west-1.amazonaws.com/assets/libs/fireice-soccer-banner4-1654592798970.png" class="asset" transform="matrix(0.05527278035879136,0,0,0.05527278035879135,83.54680633544923,123.50967407226562)"></image><image width="749" height="760" xlink:href="https://lct-designs.s3.us-west-1.amazonaws.com/assets/libs/fireice-soccer-banner4-1654592798970.png" class="asset" transform="matrix(0.05527278035879136,0,0,0.05527278035879135,86.30922698974612,206.03839111328125)"></image><image width="749" height="760" xlink:href="https://lct-designs.s3.us-west-1.amazonaws.com/assets/libs/fireice-soccer-banner4-1654592798970.png" class="asset" transform="matrix(0.05527278035879136,0,0,0.05527278035879135,160.0711822509766,226.7610321044922)"></image><image width="749" height="760" xlink:href="https://lct-designs.s3.us-west-1.amazonaws.com/assets/libs/fireice-soccer-banner4-1654592798970.png" class="asset" transform="matrix(-0.054048452526330955,0,0,0.05527278035879135,342.93136596679693,223.5729370117188)"></image><text fill="#231f20" font-family="Impact" font-size="50" stroke-opacity="1" stroke-width="2" stroke="#ffffff" x="187.19052147835683" y="195.27403192419" transform="matrix(0.3250121176242829,0,0,0.32501211762428284,240.59725952148443,218.6797637939453)" svgjs:data="{&quot;leading&quot;:&quot;1.3&quot;}"><tspan dy="0" x="187.19052147835683" svgjs:data="{&quot;newLined&quot;:true}">player</tspan></text><image width="749" height="760" xlink:href="https://lct-designs.s3.us-west-1.amazonaws.com/assets/libs/fireice-soccer-banner4-1654592798970.png" class="asset" transform="matrix(-0.054048452526330955,0,0,0.05527278035879135,414.80706787109386,202.8502960205078)"></image><text fill="#231f20" font-family="Impact" font-size="50" stroke-opacity="1" stroke-width="2" stroke="#ffffff" x="187.19052147835683" y="195.27403192419" transform="matrix(0.3250120878219605,0,0,0.32501208782196045,312.47302246093756,195.30038452148438)" svgjs:data="{&quot;leading&quot;:&quot;1.3&quot;}"><tspan dy="0" x="187.19052147835683" svgjs:data="{&quot;newLined&quot;:true}">player</tspan></text><image width="749" height="760" xlink:href="https://lct-designs.s3.us-west-1.amazonaws.com/assets/libs/fireice-soccer-banner4-1654592798970.png" class="asset" transform="matrix(-0.054048452526330955,0,0,0.05527278035879135,485.5413818359376,170.1826934814453)"></image><text fill="#231f20" font-family="Impact" font-size="50" stroke-opacity="1" stroke-width="2" stroke="#ffffff" x="187.19052147835683" y="195.27403192419" transform="matrix(0.32501193881034857,0,0,0.3250119388103485,383.20736694335943,164.48211669921875)" svgjs:data="{&quot;leading&quot;:&quot;1.3&quot;}"><tspan dy="0" x="187.19052147835683" svgjs:data="{&quot;newLined&quot;:true}">player</tspan></text><image width="749" height="760" xlink:href="https://lct-designs.s3.us-west-1.amazonaws.com/assets/libs/fireice-soccer-banner4-1654592798970.png" class="asset" transform="matrix(-0.054048452526330955,0,0,0.05527278035879135,417.88635253906256,120.32157897949219)"></image><image width="749" height="760" xlink:href="https://lct-designs.s3.us-west-1.amazonaws.com/assets/libs/fireice-soccer-banner4-1654592798970.png" class="asset" transform="matrix(-0.054048452526330955,0,0,0.05527278035879135,490.9605996608735,90.31070709228518)"></image><text fill="#231f20" font-family="Impact" font-size="50" stroke-opacity="1" stroke-width="2" stroke="#ffffff" x="187.19052147835683" y="195.27403192419" transform="matrix(0.32501193881034857,0,0,0.3250119388103485,315.5523071289063,115.06659698486328)" svgjs:data="{&quot;leading&quot;:&quot;1.3&quot;}"><tspan dy="0" x="187.19052147835683" svgjs:data="{&quot;newLined&quot;:true}">player</tspan></text><text fill="#231f20" font-family="Impact" font-size="50" stroke-opacity="1" stroke-width="2" stroke="#ffffff" x="187.19052147835683" y="195.27403192419" transform="matrix(0.32501181960105896,0,0,0.32501181960105896,387.02243041992193,84.2483139038086)" svgjs:data="{&quot;leading&quot;:&quot;1.3&quot;}"><tspan dy="0" x="187.19052147835683" svgjs:data="{&quot;newLined&quot;:true}">player</tspan></text><image width="760" height="674" xlink:href="https://lct-designs.s3.us-west-1.amazonaws.com/assets/libs/asset-4-1654595138239.png" class="asset" transform="matrix(0.2742686569690705,0,0,0.27426865696907043,146.80789184570315,0.8569861054420471)"></image><g class="mask" style="pointer-events: none;"><g><path fill="#BCBEC0" d="M-3642.4-2101.7v4589.1h7813.4v-4589.1H-3642.4z M500.5,67.2v233.3v66.7H0.5v-66.7V67.2V0.5h500V67.2z" transform="matrix(1,0,0,1,0,0)"></path><g transform="matrix(1,0,0,1,0,0)">
	<rect x="0.5" y="300.5" opacity="0.95" fill="#F1F2F2" width="500" height="66.7"></rect>
	<rect x="0.5" y="0.5" opacity="0.95" fill="#F1F2F2" width="500" height="66.7"></rect>
</g></g></g></svg>