<svg xmlns="http://www.w3.org/2000/svg" version="1.1" xmlns:xlink="http://www.w3.org/1999/xlink" xmlns:svgjs="http://svgjs.dev/svgjs" width="100%" height="100%" viewBox="1 1 499 365.70001220703125" preserveAspectRatio="none" data-info="{&quot;_id&quot;:4,&quot;name&quot;:&quot;POLE POCKET SOCCER BANNERS&quot;,&quot;information&quot;:&quot;- Size: 3’x5’\n- Material: heavy duty vinyl banner\n- Digitally printed on vinyl&quot;,&quot;price&quot;:&quot;95.00&quot;,&quot;sale_price&quot;:&quot;89.99&quot;,&quot;type&quot;:&quot;pole-pocket&quot;,&quot;cover&quot;:{&quot;key&quot;:&quot;assets/models/pole-1628062864266-1631924568908.png&quot;,&quot;url&quot;:&quot;https://lct-designs.s3.us-west-1.amazonaws.com/assets/models/pole-1628062864266-1631924568908.png&quot;},&quot;back&quot;:{&quot;key&quot;:&quot;assets/models/pole-1631924700152.svg&quot;,&quot;url&quot;:&quot;https://lct-designs.s3.us-west-1.amazonaws.com/assets/models/pole-1631924700152.svg&quot;},&quot;mask&quot;:{&quot;key&quot;:&quot;assets/models/pole-mask-1631925211715.svg&quot;,&quot;url&quot;:&quot;https://lct-designs.s3.us-west-1.amazonaws.com/assets/models/pole-mask-1631925211715.svg&quot;},&quot;pos&quot;:&quot;2&quot;,&quot;accessories&quot;:&quot;2,3&quot;}" style="background-color: white;"><g class="model" style="pointer-events: none;"><polygon fill="#FFFFFF" points="0.5,0.5 0.5,67.2 0.5,300.5 0.5,367.2 500.5,367.2 500.5,300.5 500.5,67.2 500.5,0.5 "></polygon></g><image width="760" height="558" xlink:href="https://lct-designs.s3.us-west-1.amazonaws.com/assets/libs/score-lords-1-1652258101979.png" class="asset background locked" transform="matrix(0.6597765684127808,0,0,0.6571686267852783,0,0)"></image><image width="760" height="334" xlink:href="https://lct-designs.s3.us-west-1.amazonaws.com/assets/libs/score-lords-2-1652258158688.png" class="asset" transform="matrix(0.3778583109378815,0,0,0.37785831093788147,15.806668281555204,120.74199676513672)"></image><text fill="#ffffff" font-family="Antilles" font-size="45" stroke-opacity="1" stroke-width="2" stroke="#000000" x="126.14154094890452" y="199.70731531620424" transform="matrix(0.5988062620162964,0,0,0.44363868236541754,263.6954345703125,2.0314571857452393)" svgjs:data="{&quot;leading&quot;:&quot;1.3&quot;}"><tspan dy="0" x="126.14154094890452" svgjs:data="{&quot;newLined&quot;:true}">Team Mom:Name</tspan></text><text fill="#ffffff" font-family="Antilles" font-size="45" stroke-opacity="1" stroke-width="2" stroke="#000000" x="126.14154094890452" y="199.70731531620424" transform="matrix(0.5988062620162964,0,0,0.44363868236541754,-69.2186279296875,1.0403780937194824)" svgjs:data="{&quot;leading&quot;:&quot;1.3&quot;}"><tspan dy="0" x="126.14154094890452" svgjs:data="{&quot;newLined&quot;:true}">Team Mom:Name</tspan></text><image width="754" height="760" xlink:href="https://lct-designs.s3.us-west-1.amazonaws.com/assets/libs/score-lords-3-1652258174607.png" class="asset" transform="matrix(0.036578398197889335,0,0,0.03657839819788933,146.75613403320318,261.0523681640625)"></image><text fill="#ffffff" font-family="Antilles" font-size="45" stroke-opacity="1" stroke-width="2" stroke="#000000" x="194.244259302176" y="199.459545006756" transform="matrix(0.4859439134597779,0,0,0.4859439134597779,85.143539428711,184.77165222167972)" svgjs:data="{&quot;leading&quot;:&quot;1.3&quot;}"><tspan dy="0" x="194.244259302176" svgjs:data="{&quot;newLined&quot;:true}">Player</tspan></text><text fill="#ffffff" font-family="Antilles" font-size="45" stroke-opacity="1" stroke-width="2" stroke="#000000" x="194.244259302176" y="199.459545006756" transform="matrix(0.4859439134597779,0,0,0.4859439134597779,328.5323791503907,74.33840942382815)" svgjs:data="{&quot;leading&quot;:&quot;1.3&quot;}"><tspan dy="0" x="194.244259302176" svgjs:data="{&quot;newLined&quot;:true}">Player</tspan></text><image width="754" height="760" xlink:href="https://lct-designs.s3.us-west-1.amazonaws.com/assets/libs/score-lords-3-1652258174607.png" class="asset" transform="matrix(0.036578398197889335,0,0,0.03657839819788933,390.1449890136719,150.619140625)"></image><image width="754" height="760" xlink:href="https://lct-designs.s3.us-west-1.amazonaws.com/assets/libs/score-lords-3-1652258174607.png" class="asset" transform="matrix(0.036578398197889335,0,0,0.03657839819788933,10.471771240234403,260.70296478271484)"></image><text fill="#ffffff" font-family="Antilles" font-size="45" stroke-opacity="1" stroke-width="2" stroke="#000000" x="194.244259302176" y="199.459545006756" transform="matrix(0.4859439134597779,0,0,0.4859439134597779,-51.14083862304686,184.42223358154297)" svgjs:data="{&quot;leading&quot;:&quot;1.3&quot;}"><tspan dy="0" x="194.244259302176" svgjs:data="{&quot;newLined&quot;:true}">Player</tspan></text><text fill="#ffffff" font-family="Antilles" font-size="45" stroke-opacity="1" stroke-width="2" stroke="#000000" x="194.244259302176" y="199.459545006756" transform="matrix(0.4859439134597779,0,0,0.4859439134597779,312.1903228759766,185.83502197265628)" svgjs:data="{&quot;leading&quot;:&quot;1.3&quot;}"><tspan dy="0" x="194.244259302176" svgjs:data="{&quot;newLined&quot;:true}">Player</tspan></text><image width="754" height="760" xlink:href="https://lct-designs.s3.us-west-1.amazonaws.com/assets/libs/score-lords-3-1652258174607.png" class="asset" transform="matrix(0.036578398197889335,0,0,0.03657839819788933,374.7940063476563,258.64698791503906)"></image><image width="754" height="760" xlink:href="https://lct-designs.s3.us-west-1.amazonaws.com/assets/libs/score-lords-3-1652258174607.png" class="asset" transform="matrix(0.036578398197889335,0,0,0.03657839819788933,361.98837280273443,190.2624053955078)"></image><text fill="#ffffff" font-family="Antilles" font-size="45" stroke-opacity="1" stroke-width="2" stroke="#000000" x="194.244259302176" y="199.459545006756" transform="matrix(0.4859439134597779,0,0,0.4859439134597779,300.3757629394532,113.98167419433594)" svgjs:data="{&quot;leading&quot;:&quot;1.3&quot;}"><tspan dy="0" x="194.244259302176" svgjs:data="{&quot;newLined&quot;:true}">Player</tspan></text><text fill="#ffffff" font-family="Antilles" font-size="45" stroke-opacity="1" stroke-width="2" stroke="#000000" x="194.244259302176" y="199.459545006756" transform="matrix(0.4859439134597779,0,0,0.4859439134597779,342.00115966796875,146.93511962890625)" svgjs:data="{&quot;leading&quot;:&quot;1.3&quot;}"><tspan dy="0" x="194.244259302176" svgjs:data="{&quot;newLined&quot;:true}">Player</tspan></text><image width="754" height="760" xlink:href="https://lct-designs.s3.us-west-1.amazonaws.com/assets/libs/score-lords-3-1652258174607.png" class="asset" transform="matrix(0.036578398197889335,0,0,0.03657839819788933,403.6137695312501,223.7113952636719)"></image><image width="754" height="760" xlink:href="https://lct-designs.s3.us-west-1.amazonaws.com/assets/libs/score-lords-3-1652258174607.png" class="asset" transform="matrix(0.036578398197889335,0,0,0.03657839819788933,309.4718322753907,222.2247738838196)"></image><text fill="#ffffff" font-family="Antilles" font-size="45" stroke-opacity="1" stroke-width="2" stroke="#000000" x="194.244259302176" y="199.459545006756" transform="matrix(0.4859439134597779,0,0,0.4859439134597779,246.868148803711,149.4128079414368)" svgjs:data="{&quot;leading&quot;:&quot;1.3&quot;}"><tspan dy="0" x="194.244259302176" svgjs:data="{&quot;newLined&quot;:true}">Player</tspan></text><image width="754" height="760" xlink:href="https://lct-designs.s3.us-west-1.amazonaws.com/assets/libs/score-lords-3-1652258174607.png" class="asset" transform="matrix(0.036578398197889335,0,0,0.03657839819788933,261.4828491210938,260.133636534214)"></image><text fill="#ffffff" font-family="Antilles" font-size="45" stroke-opacity="1" stroke-width="2" stroke="#000000" x="194.244259302176" y="199.459545006756" transform="matrix(0.4859439134597779,0,0,0.4859439134597779,199.8702392578125,183.85290533304214)" svgjs:data="{&quot;leading&quot;:&quot;1.3&quot;}"><tspan dy="0" x="194.244259302176" svgjs:data="{&quot;newLined&quot;:true}">Player</tspan></text><g class="mask" style="pointer-events: none;"><g><path fill="#BCBEC0" d="M-3642.4-2101.7v4589.1h7813.4v-4589.1H-3642.4z M500.5,67.2v233.3v66.7H0.5v-66.7V67.2V0.5h500V67.2z" transform="matrix(1,0,0,1,0,0)"></path><g transform="matrix(1,0,0,1,0,0)">
	<rect x="0.5" y="300.5" opacity="0.95" fill="#F1F2F2" width="500" height="66.7"></rect>
	<rect x="0.5" y="0.5" opacity="0.95" fill="#F1F2F2" width="500" height="66.7"></rect>
</g></g></g></svg>