<svg xmlns="http://www.w3.org/2000/svg" version="1.1" xmlns:xlink="http://www.w3.org/1999/xlink" xmlns:svgjs="http://svgjs.dev/svgjs" width="100%" height="100%" viewBox="1 1 499 365.70001220703125" preserveAspectRatio="none" data-info="{&quot;_id&quot;:4,&quot;name&quot;:&quot;POLE POCKET SOCCER BANNERS&quot;,&quot;information&quot;:&quot;- Size: 3’x5’\n- Material: heavy duty vinyl banner\n- Digitally printed on vinyl&quot;,&quot;price&quot;:&quot;95.00&quot;,&quot;sale_price&quot;:&quot;89.99&quot;,&quot;type&quot;:&quot;pole-pocket&quot;,&quot;cover&quot;:{&quot;key&quot;:&quot;assets/models/pole-1628062864266-1631924568908.png&quot;,&quot;url&quot;:&quot;https://lct-designs.s3.us-west-1.amazonaws.com/assets/models/pole-1628062864266-1631924568908.png&quot;},&quot;back&quot;:{&quot;key&quot;:&quot;assets/models/pole-1631924700152.svg&quot;,&quot;url&quot;:&quot;https://lct-designs.s3.us-west-1.amazonaws.com/assets/models/pole-1631924700152.svg&quot;},&quot;mask&quot;:{&quot;key&quot;:&quot;assets/models/pole-mask-1631925211715.svg&quot;,&quot;url&quot;:&quot;https://lct-designs.s3.us-west-1.amazonaws.com/assets/models/pole-mask-1631925211715.svg&quot;},&quot;pos&quot;:&quot;2&quot;,&quot;accessories&quot;:&quot;2,3&quot;}" style="background-color: white;"><g class="model" style="pointer-events: none;"><polygon fill="#FFFFFF" points="0.5,0.5 0.5,67.2 0.5,300.5 0.5,367.2 500.5,367.2 500.5,300.5 500.5,67.2 500.5,0.5 "></polygon></g><image width="760" height="556" xlink:href="https://lct-designs.s3.us-west-1.amazonaws.com/assets/libs/heat-blue-soccer-banner-1654757432934.png" class="asset background locked" transform="matrix(0.6595323960558116,0,0,0.6595323960558116,0,0)"></image><text fill="#000000" font-family="Foo" font-size="50" stroke-opacity="1" stroke-width="1" stroke="#ffffff" x="-98.72634249947717" y="199.47500657859518" transform="matrix(0.22225990891456604,0,0,0.22225990891456607,30.95464885234833,248.12156683206553)" svgjs:data="{&quot;leading&quot;:&quot;1.3&quot;}"><tspan dy="0" x="-98.72634249947717" svgjs:data="{&quot;newLined&quot;:true}">TEAM MOM: TEAM MOM'S NAME</tspan></text><text fill="#000000" font-family="Foo" font-size="50" stroke-opacity="1" stroke-width="1" stroke="#ffffff" x="-98.72634249947717" y="199.47500657859518" transform="matrix(0.22225990891456604,0,0,0.22225990891456607,30.9546469449997,39.96703726053238)" svgjs:data="{&quot;leading&quot;:&quot;1.3&quot;}"><tspan dy="0" x="-98.72634249947717" svgjs:data="{&quot;newLined&quot;:true}">COACH: COACH'S NAME</tspan></text><image width="760" height="374" xlink:href="https://lct-designs.s3.us-west-1.amazonaws.com/assets/libs/heat-blue-soccer-banner-3-1650010913644.png" class="asset" transform="matrix(0.34530466794967646,0,0,0.34530466794967657,17.595420837402347,118.73980712890626)"></image><text fill="#000000" font-family="Foo" font-size="50" stroke-opacity="1" stroke-width="1" stroke="#ffffff" x="-98.72634249947717" y="199.47500657859518" transform="matrix(0.28558358550071716,0,0,0.28558358550071716,330.0943603515625,150.09169006347656)" svgjs:data="{&quot;leading&quot;:&quot;1.3&quot;}"><tspan dy="0" x="-98.72634249947717" svgjs:data="{&quot;newLined&quot;:true}">PLAYER</tspan></text><text fill="#000000" font-family="Foo" font-size="50" stroke-opacity="1" stroke-width="1" stroke="#ffffff" x="-98.72634249947717" y="199.47500657859518" transform="matrix(0.28558358550071716,0,0,0.28558358550071716,399.7078552246093,150.09169006347656)" svgjs:data="{&quot;leading&quot;:&quot;1.3&quot;}"><tspan dy="0" x="-98.72634249947717" svgjs:data="{&quot;newLined&quot;:true}">PLAYER</tspan></text><text fill="#000000" font-family="Foo" font-size="50" stroke-opacity="1" stroke-width="1" stroke="#ffffff" x="-98.72634249947717" y="199.47500657859518" transform="matrix(0.28558358550071716,0,0,0.28558358550071716,466.7552185058594,150.09169006347656)" svgjs:data="{&quot;leading&quot;:&quot;1.3&quot;}"><tspan dy="0" x="-98.72634249947717" svgjs:data="{&quot;newLined&quot;:true}">PLAYER</tspan></text><image width="486" height="760" xlink:href="https://lct-designs.s3.us-west-1.amazonaws.com/assets/libs/heat-blue-soccer-banner-1-1650010919553.png" class="asset" transform="matrix(0.056927118450403214,0,0,0.05692711845040322,450.13775634765625,151.5762939453125)"></image><image width="486" height="760" xlink:href="https://lct-designs.s3.us-west-1.amazonaws.com/assets/libs/heat-blue-soccer-banner-1-1650010919553.png" class="asset" transform="matrix(0.056927088648080826,0,0,0.056927088648080826,313.47692871093756,151.57630920410156)"></image><image width="486" height="760" xlink:href="https://lct-designs.s3.us-west-1.amazonaws.com/assets/libs/heat-blue-soccer-banner-1-1650010919553.png" class="asset" transform="matrix(0.056927092373371124,0,0,0.056927092373371124,383.0904235839844,151.5762939453125)"></image><text fill="#000000" font-family="Foo" font-size="50" stroke-opacity="1" stroke-width="1" stroke="#ffffff" x="-98.72634249947717" y="199.47500657859518" transform="matrix(0.28558358550071716,0,0,0.28558358550071716,309.3563537597656,83.58211517333986)" svgjs:data="{&quot;leading&quot;:&quot;1.3&quot;}"><tspan dy="0" x="-98.72634249947717" svgjs:data="{&quot;newLined&quot;:true}">PLAYER</tspan></text><text fill="#000000" font-family="Foo" font-size="50" stroke-opacity="1" stroke-width="1" stroke="#ffffff" x="-98.72634249947717" y="199.47500657859518" transform="matrix(0.28558358550071716,0,0,0.28558358550071716,378.9698486328125,83.58211517333986)" svgjs:data="{&quot;leading&quot;:&quot;1.3&quot;}"><tspan dy="0" x="-98.72634249947717" svgjs:data="{&quot;newLined&quot;:true}">PLAYER</tspan></text><text fill="#000000" font-family="Foo" font-size="50" stroke-opacity="1" stroke-width="1" stroke="#ffffff" x="-98.72634249947717" y="199.47500657859518" transform="matrix(0.28558358550071716,0,0,0.28558358550071716,446.0171813964844,83.58211517333986)" svgjs:data="{&quot;leading&quot;:&quot;1.3&quot;}"><tspan dy="0" x="-98.72634249947717" svgjs:data="{&quot;newLined&quot;:true}">PLAYER</tspan></text><image width="486" height="760" xlink:href="https://lct-designs.s3.us-west-1.amazonaws.com/assets/libs/heat-blue-soccer-banner-1-1650010919553.png" class="asset" transform="matrix(0.05692707747220993,0,0,0.05692707747220993,429.3997497558593,85.0667190551758)"></image><image width="486" height="760" xlink:href="https://lct-designs.s3.us-west-1.amazonaws.com/assets/libs/heat-blue-soccer-banner-1-1650010919553.png" class="asset" transform="matrix(0.05692704766988754,0,0,0.05692704766988755,292.7389221191407,85.06673431396486)"></image><image width="486" height="760" xlink:href="https://lct-designs.s3.us-west-1.amazonaws.com/assets/libs/heat-blue-soccer-banner-1-1650010919553.png" class="asset" transform="matrix(0.05692705884575843,0,0,0.056927058845758445,362.3523864746094,85.0667190551758)"></image><text fill="#000000" font-family="Foo" font-size="50" stroke-opacity="1" stroke-width="1" stroke="#ffffff" x="-98.72634249947717" y="199.47500657859518" transform="matrix(0.28558358550071716,0,0,0.28558358550071716,309.50006103515625,225.2314910888672)" svgjs:data="{&quot;leading&quot;:&quot;1.3&quot;}"><tspan dy="0" x="-98.72634249947717" svgjs:data="{&quot;newLined&quot;:true}">PLAYER</tspan></text><text fill="#000000" font-family="Foo" font-size="50" stroke-opacity="1" stroke-width="1" stroke="#ffffff" x="-98.72634249947717" y="199.47500657859518" transform="matrix(0.28558358550071716,0,0,0.28558358550071716,379.1135559082031,225.2314910888672)" svgjs:data="{&quot;leading&quot;:&quot;1.3&quot;}"><tspan dy="0" x="-98.72634249947717" svgjs:data="{&quot;newLined&quot;:true}">PLAYER</tspan></text><text fill="#000000" font-family="Foo" font-size="50" stroke-opacity="1" stroke-width="1" stroke="#ffffff" x="-98.72634249947717" y="199.47500657859518" transform="matrix(0.28558358550071716,0,0,0.28558358550071716,446.1609191894531,225.2314910888672)" svgjs:data="{&quot;leading&quot;:&quot;1.3&quot;}"><tspan dy="0" x="-98.72634249947717" svgjs:data="{&quot;newLined&quot;:true}">PLAYER</tspan></text><image width="486" height="760" xlink:href="https://lct-designs.s3.us-west-1.amazonaws.com/assets/libs/heat-blue-soccer-banner-1-1650010919553.png" class="asset" transform="matrix(0.056927148252725594,0,0,0.0569271482527256,429.5434875488281,226.7161102294922)"></image><image width="486" height="760" xlink:href="https://lct-designs.s3.us-west-1.amazonaws.com/assets/libs/heat-blue-soccer-banner-1-1650010919553.png" class="asset" transform="matrix(0.05692711099982261,0,0,0.05692711099982262,292.88262939453125,226.7161102294922)"></image><image width="486" height="760" xlink:href="https://lct-designs.s3.us-west-1.amazonaws.com/assets/libs/heat-blue-soccer-banner-1-1650010919553.png" class="asset" transform="matrix(0.056927118450403214,0,0,0.05692711845040322,362.4961242675781,226.7161102294922)"></image><g class="mask" style="pointer-events: none;"><g><path fill="#BCBEC0" d="M-3642.4-2101.7v4589.1h7813.4v-4589.1H-3642.4z M500.5,67.2v233.3v66.7H0.5v-66.7V67.2V0.5h500V67.2z" transform="matrix(1,0,0,1,0,0)"></path><g transform="matrix(1,0,0,1,0,0)">
	<rect x="0.5" y="300.5" opacity="0.95" fill="#F1F2F2" width="500" height="66.7"></rect>
	<rect x="0.5" y="0.5" opacity="0.95" fill="#F1F2F2" width="500" height="66.7"></rect>
</g></g></g></svg>