<svg xmlns="http://www.w3.org/2000/svg" version="1.1" xmlns:xlink="http://www.w3.org/1999/xlink" xmlns:svgjs="http://svgjs.dev/svgjs" width="100%" height="100%" viewBox="1 1 499 365.70001220703125" preserveAspectRatio="none" data-info="{&quot;_id&quot;:4,&quot;name&quot;:&quot;POLE POCKET SOCCER BANNERS&quot;,&quot;information&quot;:&quot;- Size: 3’x5’\n- Material: heavy duty vinyl banner\n- Digitally printed on vinyl&quot;,&quot;price&quot;:&quot;95.00&quot;,&quot;sale_price&quot;:&quot;89.99&quot;,&quot;type&quot;:&quot;pole-pocket&quot;,&quot;cover&quot;:{&quot;key&quot;:&quot;assets/models/pole-1628062864266-1631924568908.png&quot;,&quot;url&quot;:&quot;https://lct-designs.s3.us-west-1.amazonaws.com/assets/models/pole-1628062864266-1631924568908.png&quot;},&quot;back&quot;:{&quot;key&quot;:&quot;assets/models/pole-1631924700152.svg&quot;,&quot;url&quot;:&quot;https://lct-designs.s3.us-west-1.amazonaws.com/assets/models/pole-1631924700152.svg&quot;},&quot;mask&quot;:{&quot;key&quot;:&quot;assets/models/pole-mask-1631925211715.svg&quot;,&quot;url&quot;:&quot;https://lct-designs.s3.us-west-1.amazonaws.com/assets/models/pole-mask-1631925211715.svg&quot;},&quot;pos&quot;:&quot;2&quot;,&quot;accessories&quot;:&quot;2,3&quot;}" style="background-color: white;"><g class="model" style="pointer-events: none;"><polygon fill="#FFFFFF" points="0.5,0.5 0.5,67.2 0.5,300.5 0.5,367.2 500.5,367.2 500.5,300.5 500.5,67.2 500.5,0.5 "></polygon></g><image width="760" height="558" xlink:href="https://lct-designs.s3.us-west-1.amazonaws.com/assets/libs/white-tigers-1-1653386108039.png" class="asset background locked" transform="matrix(0.6600838303565978,0,0,0.6571685671806334,0,0)"></image><image width="699" height="760" xlink:href="https://lct-designs.s3.us-west-1.amazonaws.com/assets/libs/white-tigers-4-1653386169009.png" class="asset" transform="matrix(0.18114024400711057,0,0,0.20081900060176847,186.84143066406247,141.10499572753906)"></image><image width="760" height="154" xlink:href="https://lct-designs.s3.us-west-1.amazonaws.com/assets/libs/tigers-white--3-1652435633995.png" class="asset" transform="matrix(0.48045873641967773,0,0,0.4804587364196777,75.14824676513675,75.72718048095703)"></image><image width="673" height="760" xlink:href="https://lct-designs.s3.us-west-1.amazonaws.com/assets/libs/tigers-white--4-1652435651684.png" class="asset" transform="matrix(0.043575778603553765,0,0,0.043575778603553765,357.9293518066406,204.4595642089844)"></image><text fill="#ffffff" font-family="American Captain" font-size="45" stroke-opacity="1" stroke-width="2" stroke="#000000" x="196.8858701793283" y="200.19087427705915" transform="matrix(0.4998335838317871,0,0,0.49983358383178705,295.18511962890614,131.39520263671875)" svgjs:data="{&quot;leading&quot;:&quot;1.3&quot;}"><tspan dy="0" x="196.8858701793283" svgjs:data="{&quot;newLined&quot;:true}">player</tspan></text><text fill="#ffffff" font-family="American Captain" font-size="45" stroke-opacity="1" stroke-width="2" stroke="#000000" x="196.8858701793283" y="200.19087427705915" transform="matrix(0.4998336434364319,0,0,0.49983364343643183,221.71850585937503,178.0160217285156)" svgjs:data="{&quot;leading&quot;:&quot;1.3&quot;}"><tspan dy="0" x="196.8858701793283" svgjs:data="{&quot;newLined&quot;:true}"></tspan></text><image width="673" height="760" xlink:href="https://lct-designs.s3.us-west-1.amazonaws.com/assets/libs/tigers-white--4-1652435651684.png" class="asset" transform="matrix(0.04357577115297317,0,0,0.04357577115297317,310.7592468261719,161.60035705566403)"></image><text fill="#ffffff" font-family="American Captain" font-size="45" stroke-opacity="1" stroke-width="2" stroke="#000000" x="196.8858701793283" y="200.19087427705915" transform="matrix(0.49983400106430054,0,0,0.4998340010643005,246.32395935058597,88.53599548339847)" svgjs:data="{&quot;leading&quot;:&quot;1.3&quot;}"><tspan dy="0" x="196.8858701793283" svgjs:data="{&quot;newLined&quot;:true}">player</tspan></text><image width="673" height="760" xlink:href="https://lct-designs.s3.us-west-1.amazonaws.com/assets/libs/tigers-white--4-1652435651684.png" class="asset" transform="matrix(0.043575793504714966,0,0,0.04357579350471496,391.2142639160156,245.10304260253903)"></image><text fill="#ffffff" font-family="American Captain" font-size="45" stroke-opacity="1" stroke-width="2" stroke="#000000" x="196.8858701793283" y="200.19087427705915" transform="matrix(0.4998337626457214,0,0,0.4998337626457214,328.47003173828125,172.03869628906247)" svgjs:data="{&quot;leading&quot;:&quot;1.3&quot;}"><tspan dy="0" x="196.8858701793283" svgjs:data="{&quot;newLined&quot;:true}">player</tspan></text><image width="673" height="760" xlink:href="https://lct-designs.s3.us-west-1.amazonaws.com/assets/libs/tigers-white--4-1652435651684.png" class="asset" transform="matrix(0.04357577115297317,0,0,0.04357577115297317,402.68194580078114,161.04644775390622)"></image><image width="673" height="760" xlink:href="https://lct-designs.s3.us-west-1.amazonaws.com/assets/libs/tigers-white--4-1652435651684.png" class="asset" transform="matrix(0.04357577115297317,0,0,0.04357577115297317,116.82601165771487,154.39930725097653)"></image><text fill="#ffffff" font-family="American Captain" font-size="45" stroke-opacity="1" stroke-width="2" stroke="#000000" x="196.8858701793283" y="200.19087427705915" transform="matrix(0.49983388185501093,0,0,0.49983388185501093,-49.50266265869138,80.78102111816406)" svgjs:data="{&quot;leading&quot;:&quot;1.3&quot;}"><tspan dy="0" x="196.8858701793283" svgjs:data="{&quot;newLined&quot;:true}">player</tspan></text><image width="673" height="760" xlink:href="https://lct-designs.s3.us-west-1.amazonaws.com/assets/libs/tigers-white--4-1652435651684.png" class="asset" transform="matrix(0.04357580095529556,0,0,0.043575800955295556,9.131452560424833,197.90336608886716)"></image><image width="673" height="760" xlink:href="https://lct-designs.s3.us-west-1.amazonaws.com/assets/libs/tigers-white--4-1652435651684.png" class="asset" transform="matrix(0.043575778603553765,0,0,0.043575778603553765,106.97082519531247,195.59674072265622)"></image><text fill="#ffffff" font-family="American Captain" font-size="45" stroke-opacity="1" stroke-width="2" stroke="#000000" x="196.8858701793283" y="200.19087427705915" transform="matrix(0.4998340606689453,0,0,0.49983406066894526,44.22659683227539,122.53237915039062)" svgjs:data="{&quot;leading&quot;:&quot;1.3&quot;}"><tspan dy="0" x="196.8858701793283" svgjs:data="{&quot;newLined&quot;:true}">player</tspan></text><image width="673" height="760" xlink:href="https://lct-designs.s3.us-west-1.amazonaws.com/assets/libs/tigers-white--4-1652435651684.png" class="asset" transform="matrix(0.043575793504714966,0,0,0.04357579350471496,66.02943420410156,231.25488281250003)"></image><text fill="#ffffff" font-family="American Captain" font-size="45" stroke-opacity="1" stroke-width="2" stroke="#000000" x="196.8858701793283" y="200.19087427705915" transform="matrix(0.4998341500759125,0,0,0.49983415007591236,3.2852020263671875,158.19053649902344)" svgjs:data="{&quot;leading&quot;:&quot;1.3&quot;}"><tspan dy="0" x="196.8858701793283" svgjs:data="{&quot;newLined&quot;:true}">player</tspan></text><text fill="#ffffff" font-family="American Captain" font-size="45" stroke-opacity="1" stroke-width="2" stroke="#000000" x="196.8858701793283" y="200.19087427705915" transform="matrix(0.49983379244804377,0,0,0.49983379244804377,-53.61277770996094,124.8390197753906)" svgjs:data="{&quot;leading&quot;:&quot;1.3&quot;}"><tspan dy="0" x="196.8858701793283" svgjs:data="{&quot;newLined&quot;:true}">player</tspan></text><image width="673" height="760" xlink:href="https://lct-designs.s3.us-west-1.amazonaws.com/assets/libs/tigers-white--4-1652435651684.png" class="asset" transform="matrix(0.04357577115297317,0,0,0.04357577115297317,6.069793701171875,153.84538269042966)"></image><text fill="#ffffff" font-family="American Captain" font-size="45" stroke-opacity="1" stroke-width="2" stroke="#000000" x="196.8858701793283" y="200.19087427705915" transform="matrix(0.4998337626457214,0,0,0.4998337626457214,54.665016174316406,81.88887786865232)" svgjs:data="{&quot;leading&quot;:&quot;1.3&quot;}"><tspan dy="0" x="196.8858701793283" svgjs:data="{&quot;newLined&quot;:true}">player</tspan></text><text fill="#ffffff" font-family="American Captain" font-size="45" stroke-opacity="1" stroke-width="2" stroke="#000000" x="196.8858701793283" y="200.19087427705915" transform="matrix(0.4998339414596557,0,0,0.4998339414596557,340.52096557617176,88.536018371582)" svgjs:data="{&quot;leading&quot;:&quot;1.3&quot;}"><tspan dy="0" x="196.8858701793283" svgjs:data="{&quot;newLined&quot;:true}">player</tspan></text><image width="673" height="760" xlink:href="https://lct-designs.s3.us-west-1.amazonaws.com/assets/libs/tigers-white--4-1652435651684.png" class="asset" transform="matrix(0.04357580095529556,0,0,0.043575800955295556,274.4920654296875,254.40393066406247)"></image><text fill="#ffffff" font-family="American Captain" font-size="45" stroke-opacity="1" stroke-width="2" stroke="#000000" x="196.8858701793283" y="200.19087427705915" transform="matrix(0.49983397126197815,0,0,0.4998339712619781,213.28240966796878,181.4554748535156)" svgjs:data="{&quot;leading&quot;:&quot;1.3&quot;}"><tspan dy="0" x="196.8858701793283" svgjs:data="{&quot;newLined&quot;:true}">player</tspan></text><text fill="#ffffff" font-family="American Captain" font-size="45" stroke-opacity="1" stroke-width="2" stroke="#000000" x="101.58436413684782" y="200.19087427705915" transform="matrix(0.5586681962013245,0,0,0.46401736140251154,-46.01169967651367,199.35792541503903)" svgjs:data="{&quot;leading&quot;:&quot;1.3&quot;}"><tspan dy="0" x="101.58436413684782" svgjs:data="{&quot;newLined&quot;:true}">coach:coach's name</tspan></text><g class="mask" style="pointer-events: none;"><g><path fill="#BCBEC0" d="M-3642.4-2101.7v4589.1h7813.4v-4589.1H-3642.4z M500.5,67.2v233.3v66.7H0.5v-66.7V67.2V0.5h500V67.2z" transform="matrix(1,0,0,1,0,0)"></path><g transform="matrix(1,0,0,1,0,0)">
	<rect x="0.5" y="300.5" opacity="0.95" fill="#F1F2F2" width="500" height="66.7"></rect>
	<rect x="0.5" y="0.5" opacity="0.95" fill="#F1F2F2" width="500" height="66.7"></rect>
</g></g></g></svg>