<svg xmlns="http://www.w3.org/2000/svg" version="1.1" xmlns:xlink="http://www.w3.org/1999/xlink" xmlns:svgjs="http://svgjs.dev/svgjs" width="100%" height="100%" viewBox="1 1 499 365.70001220703125" preserveAspectRatio="none" data-info="{&quot;_id&quot;:4,&quot;name&quot;:&quot;POLE POCKET SOCCER BANNERS&quot;,&quot;information&quot;:&quot;- Size: 3’x5’\n- Material: heavy duty vinyl banner\n- Digitally printed on vinyl&quot;,&quot;price&quot;:&quot;95.00&quot;,&quot;sale_price&quot;:&quot;89.99&quot;,&quot;type&quot;:&quot;pole-pocket&quot;,&quot;cover&quot;:{&quot;key&quot;:&quot;assets/models/pole-1628062864266-1631924568908.png&quot;,&quot;url&quot;:&quot;https://lct-designs.s3.us-west-1.amazonaws.com/assets/models/pole-1628062864266-1631924568908.png&quot;},&quot;back&quot;:{&quot;key&quot;:&quot;assets/models/pole-1631924700152.svg&quot;,&quot;url&quot;:&quot;https://lct-designs.s3.us-west-1.amazonaws.com/assets/models/pole-1631924700152.svg&quot;},&quot;mask&quot;:{&quot;key&quot;:&quot;assets/models/pole-mask-1631925211715.svg&quot;,&quot;url&quot;:&quot;https://lct-designs.s3.us-west-1.amazonaws.com/assets/models/pole-mask-1631925211715.svg&quot;},&quot;pos&quot;:&quot;2&quot;,&quot;accessories&quot;:&quot;2,3&quot;}" style="background-color: white;"><g class="model" style="pointer-events: none;"><polygon fill="#FFFFFF" points="0.5,0.5 0.5,67.2 0.5,300.5 0.5,367.2 500.5,367.2 500.5,300.5 500.5,67.2 500.5,0.5 "></polygon></g><image width="760" height="556" xlink:href="https://lct-designs.s3.us-west-1.amazonaws.com/assets/libs/phoenix-9-1652173847308.png" class="asset background locked" transform="matrix(0.6595323960558116,0,0,0.6595323960558116,0,0)"></image><image width="760" height="167" xlink:href="https://lct-designs.s3.us-west-1.amazonaws.com/assets/libs/phoenix-2-1652061363388.png" class="asset locked" transform="matrix(0.5173060894012452,0,0,0.5173060894012451,53.92108917236331,81.1836929321289)"></image><text fill="#000000" font-family="DEATHE MAACH NCV" font-size="45" x="187.8876804752717" y="200.6983965539972" stroke-opacity="1" stroke-width="1" stroke="#ffffff" transform="matrix(0.40207913517951965,0,0,0.4020791351795197,9.269567489624023,120.08932495117188)" svgjs:data="{&quot;leading&quot;:&quot;1.3&quot;}"><tspan dy="0" x="187.8876804752717" svgjs:data="{&quot;newLined&quot;:true}">Player</tspan></text><image width="364" height="760" xlink:href="https://lct-designs.s3.us-west-1.amazonaws.com/assets/libs/phoenix-3-1652061363388.png" class="asset" transform="matrix(0.07615754753351212,0,0,0.07615754753351212,90.36372375488284,210.65432739257815)"></image><text fill="#000000" font-family="DEATHE MAACH NCV" font-size="45" x="187.8876804752717" y="200.6983965539972" stroke-opacity="1" stroke-width="1" stroke="#ffffff" transform="matrix(0.40207913517951965,0,0,0.4020791351795197,46.02875518798831,164.68797302246097)" svgjs:data="{&quot;leading&quot;:&quot;1.3&quot;}"><tspan dy="0" x="187.8876804752717" svgjs:data="{&quot;newLined&quot;:true}">Player</tspan></text><image width="364" height="760" xlink:href="https://lct-designs.s3.us-west-1.amazonaws.com/assets/libs/phoenix-3-1652061363388.png" class="asset" transform="matrix(0.07615754753351212,0,0,0.07615754753351212,149.82858276367188,163.57797241210938)"></image><text fill="#000000" font-family="DEATHE MAACH NCV" font-size="45" x="187.8876804752717" y="200.6983965539972" stroke-opacity="1" stroke-width="1" stroke="#ffffff" transform="matrix(0.40207913517951965,0,0,0.4020791351795197,105.49362182617188,117.61161804199222)" svgjs:data="{&quot;leading&quot;:&quot;1.3&quot;}"><tspan dy="0" x="187.8876804752717" svgjs:data="{&quot;newLined&quot;:true}">Player</tspan></text><image width="364" height="760" xlink:href="https://lct-designs.s3.us-west-1.amazonaws.com/assets/libs/phoenix-3-1652061363388.png" class="asset" transform="matrix(0.07615756988525392,0,0,0.07615756988525392,186.58776855468756,208.17662048339847)"></image><text fill="#000000" font-family="DEATHE MAACH NCV" font-size="45" x="187.8876804752717" y="200.6983965539972" stroke-opacity="1" stroke-width="1" stroke="#ffffff" transform="matrix(0.40207913517951965,0,0,0.4020791351795197,142.25280761718756,162.21026611328125)" svgjs:data="{&quot;leading&quot;:&quot;1.3&quot;}"><tspan dy="0" x="187.8876804752717" svgjs:data="{&quot;newLined&quot;:true}">Player</tspan></text><image width="364" height="760" xlink:href="https://lct-designs.s3.us-west-1.amazonaws.com/assets/libs/phoenix-3-1652061363388.png" class="asset" transform="matrix(0.07615755498409273,0,0,0.07615755498409271,53.19818305969241,166.55122375488284)"></image><text fill="#000000" font-family="DEATHE MAACH NCV" font-size="45" x="187.8876804752717" y="200.6983965539972" stroke-opacity="1" stroke-width="1" stroke="#ffffff" transform="matrix(0.40207913517951965,0,0,0.4020791351795197,210.54823303222662,120.58486938476562)" svgjs:data="{&quot;leading&quot;:&quot;1.3&quot;}"><tspan dy="0" x="187.8876804752717" svgjs:data="{&quot;newLined&quot;:true}">Player</tspan></text><image width="364" height="760" xlink:href="https://lct-designs.s3.us-west-1.amazonaws.com/assets/libs/phoenix-3-1652061363388.png" class="asset" transform="matrix(0.07615756988525392,0,0,0.07615756988525392,291.6423950195313,211.1498718261719)"></image><text fill="#000000" font-family="DEATHE MAACH NCV" font-size="45" x="187.8876804752717" y="200.6983965539972" stroke-opacity="1" stroke-width="1" stroke="#ffffff" transform="matrix(0.40207913517951965,0,0,0.4020791351795197,247.3074340820313,165.1835174560547)" svgjs:data="{&quot;leading&quot;:&quot;1.3&quot;}"><tspan dy="0" x="187.8876804752717" svgjs:data="{&quot;newLined&quot;:true}">Player</tspan></text><image width="364" height="760" xlink:href="https://lct-designs.s3.us-west-1.amazonaws.com/assets/libs/phoenix-3-1652061363388.png" class="asset" transform="matrix(0.07615756988525392,0,0,0.07615756988525392,351.1072387695313,164.07351684570312)"></image><text fill="#000000" font-family="DEATHE MAACH NCV" font-size="45" x="187.8876804752717" y="200.6983965539972" stroke-opacity="1" stroke-width="1" stroke="#ffffff" transform="matrix(0.40207913517951965,0,0,0.4020791351795197,306.7722778320313,118.10716247558594)" svgjs:data="{&quot;leading&quot;:&quot;1.3&quot;}"><tspan dy="0" x="187.8876804752717" svgjs:data="{&quot;newLined&quot;:true}">Player</tspan></text><image width="364" height="760" xlink:href="https://lct-designs.s3.us-west-1.amazonaws.com/assets/libs/phoenix-3-1652061363388.png" class="asset" transform="matrix(0.0761575847864151,0,0,0.07615758478641511,387.8664550781251,208.67216491699216)"></image><text fill="#000000" font-family="DEATHE MAACH NCV" font-size="45" x="187.8876804752717" y="200.6983965539972" stroke-opacity="1" stroke-width="1" stroke="#ffffff" transform="matrix(0.40207913517951965,0,0,0.4020791351795197,343.53149414062506,162.70581054687503)" svgjs:data="{&quot;leading&quot;:&quot;1.3&quot;}"><tspan dy="0" x="187.8876804752717" svgjs:data="{&quot;newLined&quot;:true}">Player</tspan></text><image width="364" height="760" xlink:href="https://lct-designs.s3.us-west-1.amazonaws.com/assets/libs/phoenix-3-1652061363388.png" class="asset" transform="matrix(0.07615757733583452,0,0,0.07615757733583452,254.47685241699224,167.04676818847656)"></image><text fill="#000000" font-family="DEATHE MAACH NCV" font-size="45" stroke-opacity="1" stroke-width="0" stroke="#000000" x="76.29813427165843" y="200.6983965539972" transform="matrix(0.40207913517951965,0,0,0.4020791351795197,318.36437988281256,211.1712179780006)" svgjs:data="{&quot;leading&quot;:&quot;1.3&quot;}"><tspan dy="0" x="76.29813427165843" svgjs:data="{&quot;newLined&quot;:true}"> Coach:coach's name</tspan></text><text fill="#000000" font-family="DEATHE MAACH NCV" font-size="45" stroke-opacity="1" stroke-width="0" stroke="#000000" x="76.29813427165843" y="200.6983965539972" transform="matrix(0.40207913517951965,0,0,0.4020791351795197,-15.045234680175767,209.6846008300781)" svgjs:data="{&quot;leading&quot;:&quot;1.3&quot;}"><tspan dy="0" x="76.29813427165843" svgjs:data="{&quot;newLined&quot;:true}">Team mom:name</tspan></text><image width="623" height="760" xlink:href="https://lct-designs.s3.us-west-1.amazonaws.com/assets/libs/phoenix-4-1652061363388.png" class="asset" transform="matrix(0.13157893717288974,0,0,0.13157893717288974,386.416717529297,76.8583755493164)"></image><g class="mask" style="pointer-events: none;"><g><path fill="#BCBEC0" d="M-3642.4-2101.7v4589.1h7813.4v-4589.1H-3642.4z M500.5,67.2v233.3v66.7H0.5v-66.7V67.2V0.5h500V67.2z" transform="matrix(1,0,0,1,0,0)"></path><g transform="matrix(1,0,0,1,0,0)">
	<rect x="0.5" y="300.5" opacity="0.95" fill="#F1F2F2" width="500" height="66.7"></rect>
	<rect x="0.5" y="0.5" opacity="0.95" fill="#F1F2F2" width="500" height="66.7"></rect>
</g></g></g></svg>