<svg xmlns="http://www.w3.org/2000/svg" version="1.1" xmlns:xlink="http://www.w3.org/1999/xlink" xmlns:svgjs="http://svgjs.dev/svgjs" width="100%" height="100%" viewBox="1 1 499 365.70001220703125" preserveAspectRatio="none" data-info="{&quot;_id&quot;:4,&quot;name&quot;:&quot;POLE POCKET SOCCER BANNERS&quot;,&quot;information&quot;:&quot;- Size: 3’x5’\n- Material: heavy duty vinyl banner\n- Digitally printed on vinyl&quot;,&quot;price&quot;:&quot;95.00&quot;,&quot;sale_price&quot;:&quot;89.99&quot;,&quot;type&quot;:&quot;pole-pocket&quot;,&quot;cover&quot;:{&quot;key&quot;:&quot;assets/models/pole-1628062864266-1631924568908.png&quot;,&quot;url&quot;:&quot;https://lct-designs.s3.us-west-1.amazonaws.com/assets/models/pole-1628062864266-1631924568908.png&quot;},&quot;back&quot;:{&quot;key&quot;:&quot;assets/models/pole-1631924700152.svg&quot;,&quot;url&quot;:&quot;https://lct-designs.s3.us-west-1.amazonaws.com/assets/models/pole-1631924700152.svg&quot;},&quot;mask&quot;:{&quot;key&quot;:&quot;assets/models/pole-mask-1631925211715.svg&quot;,&quot;url&quot;:&quot;https://lct-designs.s3.us-west-1.amazonaws.com/assets/models/pole-mask-1631925211715.svg&quot;},&quot;pos&quot;:&quot;2&quot;,&quot;accessories&quot;:&quot;2,3&quot;}" style="background-color: white;"><g class="model" style="pointer-events: none;"><polygon fill="#FFFFFF" points="0.5,0.5 0.5,67.2 0.5,300.5 0.5,367.2 500.5,367.2 500.5,300.5 500.5,67.2 500.5,0.5 "></polygon></g><image width="760" height="558" xlink:href="https://lct-designs.s3.us-west-1.amazonaws.com/assets/libs/bulldog-and-lighting-1632823473712.png" class="asset background locked" transform="matrix(0.6571684806577621,0,0,0.6571684806577621,0,0)"></image><text fill="#ee4350" font-family="UTM Rockwell" font-size="35" x="196.88127233350318" y="200.48091056834267" stroke-opacity="1" stroke-width="1" stroke="#ffffff" transform="matrix(0.29177808761596685,0,0,0.2917780876159668,-46.00475311279297,25.995197296142578)" svgjs:data="{&quot;leading&quot;:&quot;1.3&quot;}"><tspan dy="0" x="196.88127233350318" svgjs:data="{&quot;newLined&quot;:true}">COACH: COACH'S NAME</tspan></text><text fill="#ee4350" font-family="UTM Rockwell" font-size="35" x="196.88127233350318" y="200.48091056834267" stroke-opacity="1" stroke-width="1" stroke="#ffffff" transform="matrix(0.301501989364624,0,0,0.301501989364624,230.57809448242188,24.045743942260742)" svgjs:data="{&quot;leading&quot;:&quot;1.3&quot;}"><tspan dy="0" x="196.88127233350318" svgjs:data="{&quot;newLined&quot;:true}">TEAM MOM: TEAM MOM'S NAME</tspan></text><image width="668" height="760" xlink:href="https://lct-designs.s3.us-west-1.amazonaws.com/assets/libs/bulldogs-1632823581379.png" class="asset" transform="matrix(0.19464996457099915,0,0,0.19464996457099915,183.88285827636722,109.38268280029295)"></image><text fill="#ee4350" font-family="UTM Rockwell" font-size="45" x="196.88127233350318" y="200.48091056834267" stroke-opacity="1" stroke-width="1" stroke="#ffffff" transform="matrix(0.30719614146459406,0,0,0.3071961414645941,355.354198776633,122.34775879921288)" svgjs:data="{&quot;leading&quot;:&quot;1.3&quot;}"><tspan dy="0" x="196.88127233350318" svgjs:data="{&quot;newLined&quot;:true}">player</tspan></text><text fill="#ee4350" font-family="UTM Rockwell" font-size="45" x="196.88127233350318" y="200.48091056834267" stroke-opacity="1" stroke-width="1" stroke="#ffffff" transform="matrix(0.30719614146459406,0,0,0.3071961414645941,356.27846780892656,194.01715948650053)" svgjs:data="{&quot;leading&quot;:&quot;1.3&quot;}"><tspan dy="0" x="196.88127233350318" svgjs:data="{&quot;newLined&quot;:true}">player</tspan></text><text fill="#ee4350" font-family="UTM Rockwell" font-size="45" x="196.88127233350318" y="200.48091056834267" stroke-opacity="1" stroke-width="1" stroke="#ffffff" transform="matrix(0.30719611048698425,0,0,0.30719611048698425,285.2411193847657,221.91896057128906)" svgjs:data="{&quot;leading&quot;:&quot;1.3&quot;}"><tspan dy="0" x="196.88127233350318" svgjs:data="{&quot;newLined&quot;:true}">player</tspan></text><text fill="#ee4350" font-family="UTM Rockwell" font-size="45" x="196.88127233350318" y="200.48091056834267" stroke-opacity="1" stroke-width="1" stroke="#ffffff" transform="matrix(0.30719614146459406,0,0,0.3071961414645941,285.2411618115112,147.5140970732973)" svgjs:data="{&quot;leading&quot;:&quot;1.3&quot;}"><tspan dy="0" x="196.88127233350318" svgjs:data="{&quot;newLined&quot;:true}">player</tspan></text><text fill="#ee4350" font-family="UTM Rockwell" font-size="45" x="196.88127233350318" y="200.48091056834267" stroke-opacity="1" stroke-width="1" stroke="#ffffff" transform="matrix(0.30719614146459406,0,0,0.3071961414645941,285.24113394690363,81.86275500070953)" svgjs:data="{&quot;leading&quot;:&quot;1.3&quot;}"><tspan dy="0" x="196.88127233350318" svgjs:data="{&quot;newLined&quot;:true}">player</tspan></text><image width="749" height="760" xlink:href="https://lct-designs.s3.us-west-1.amazonaws.com/assets/libs/greenknight_soccer-banner-5-1649403383749.png" class="asset" transform="matrix(-0.042068656533956535,0,0,0.04239647835493088,388.1852722167969,165.29084777832037)"></image><image width="749" height="760" xlink:href="https://lct-designs.s3.us-west-1.amazonaws.com/assets/libs/greenknight_soccer-banner-5-1649403383749.png" class="asset" transform="matrix(-0.042068656533956535,0,0,0.042396485805511475,459.22265625,210.15260314941412)"></image><image width="749" height="760" xlink:href="https://lct-designs.s3.us-west-1.amazonaws.com/assets/libs/greenknight_soccer-banner-5-1649403383749.png" class="asset" transform="matrix(-0.042068656533956535,0,0,0.042396485805511475,458.2983398437501,138.4832305908203)"></image><image width="749" height="760" xlink:href="https://lct-designs.s3.us-west-1.amazonaws.com/assets/libs/greenknight_soccer-banner-5-1649403383749.png" class="asset" transform="matrix(0.04592198505997658,0,0,0.042396485805511475,41.971736907959,141.3235321044922)"></image><text fill="#ee4350" font-family="UTM Rockwell" font-size="45" x="196.88127233350318" y="200.48091056834267" stroke-opacity="1" stroke-width="1" stroke="#ffffff" transform="matrix(0.30719608068466187,0,0,0.30719608068466187,-28.090797424316406,126.04968261718749)" svgjs:data="{&quot;leading&quot;:&quot;1.3&quot;}"><tspan dy="0" x="196.88127233350318" svgjs:data="{&quot;newLined&quot;:true}">player</tspan></text><text fill="#ee4350" font-family="UTM Rockwell" font-size="45" x="196.88127233350318" y="200.48091056834267" stroke-opacity="1" stroke-width="1" stroke="#ffffff" transform="matrix(0.30719608068466187,0,0,0.30719608068466187,-28.09079360961914,197.95166015625)" svgjs:data="{&quot;leading&quot;:&quot;1.3&quot;}"><tspan dy="0" x="196.88127233350318" svgjs:data="{&quot;newLined&quot;:true}">player</tspan></text><image width="749" height="760" xlink:href="https://lct-designs.s3.us-west-1.amazonaws.com/assets/libs/greenknight_soccer-banner-5-1649403383749.png" class="asset" transform="matrix(0.04592198505997658,0,0,0.042396485805511475,41.971736907959,212.992904663086)"></image><image width="749" height="760" xlink:href="https://lct-designs.s3.us-west-1.amazonaws.com/assets/libs/greenknight_soccer-banner-5-1649403383749.png" class="asset" transform="matrix(-0.042068656533956535,0,0,0.042396485805511475,388.1852722167969,236.96022033691406)"></image><image width="749" height="760" xlink:href="https://lct-designs.s3.us-west-1.amazonaws.com/assets/libs/greenknight_soccer-banner-5-1649403383749.png" class="asset" transform="matrix(-0.042068656533956535,0,0,0.04239647835493088,388.1852416992188,97.99822998046874)"></image><image width="749" height="760" xlink:href="https://lct-designs.s3.us-west-1.amazonaws.com/assets/libs/greenknight_soccer-banner-5-1649403383749.png" class="asset" transform="matrix(0.04592198505997658,0,0,0.042396485805511475,112.26226043701175,99.19659423828124)"></image><text fill="#ee4350" font-family="UTM Rockwell" font-size="45" x="196.88127233350318" y="200.48091056834267" stroke-opacity="1" stroke-width="1" stroke="#ffffff" transform="matrix(0.30719608068466187,0,0,0.30719608068466187,42.19973754882814,82.30930328369139)" svgjs:data="{&quot;leading&quot;:&quot;1.3&quot;}"><tspan dy="0" x="196.88127233350318" svgjs:data="{&quot;newLined&quot;:true}">player</tspan></text><text fill="#ee4350" font-family="UTM Rockwell" font-size="45" x="196.88127233350318" y="200.48091056834267" stroke-opacity="1" stroke-width="1" stroke="#ffffff" transform="matrix(0.30719608068466187,0,0,0.30719608068466187,42.19973373413086,151.21536254882812)" svgjs:data="{&quot;leading&quot;:&quot;1.3&quot;}"><tspan dy="0" x="196.88127233350318" svgjs:data="{&quot;newLined&quot;:true}">player</tspan></text><text fill="#ee4350" font-family="UTM Rockwell" font-size="45" x="196.88127233350318" y="200.48091056834267" stroke-opacity="1" stroke-width="1" stroke="#ffffff" transform="matrix(0.30719608068466187,0,0,0.30719608068466187,42.19973754882814,223.11734008789068)" svgjs:data="{&quot;leading&quot;:&quot;1.3&quot;}"><tspan dy="0" x="196.88127233350318" svgjs:data="{&quot;newLined&quot;:true}">player</tspan></text><image width="749" height="760" xlink:href="https://lct-designs.s3.us-west-1.amazonaws.com/assets/libs/greenknight_soccer-banner-5-1649403383749.png" class="asset" transform="matrix(0.04592198505997658,0,0,0.042396485805511475,112.26226806640628,166.4892120361328)"></image><image width="749" height="760" xlink:href="https://lct-designs.s3.us-west-1.amazonaws.com/assets/libs/greenknight_soccer-banner-5-1649403383749.png" class="asset" transform="matrix(0.04592198505997658,0,0,0.042396485805511475,112.26226806640628,238.15858459472656)"></image><g class="mask" style="pointer-events: none;"><g><path fill="#BCBEC0" d="M-3642.4-2101.7v4589.1h7813.4v-4589.1H-3642.4z M500.5,67.2v233.3v66.7H0.5v-66.7V67.2V0.5h500V67.2z" transform="matrix(1,0,0,1,0,0)"></path><g transform="matrix(1,0,0,1,0,0)">
	<rect x="0.5" y="300.5" opacity="0.95" fill="#F1F2F2" width="500" height="66.7"></rect>
	<rect x="0.5" y="0.5" opacity="0.95" fill="#F1F2F2" width="500" height="66.7"></rect>
</g></g></g></svg>