<svg xmlns="http://www.w3.org/2000/svg" version="1.1" xmlns:xlink="http://www.w3.org/1999/xlink" xmlns:svgjs="http://svgjs.dev/svgjs" width="100%" height="100%" viewBox="1 1 499 365.70001220703125" preserveAspectRatio="none" data-info="{&quot;_id&quot;:4,&quot;name&quot;:&quot;POLE POCKET SOCCER BANNERS&quot;,&quot;information&quot;:&quot;- Size: 3’x5’\n- Material: heavy duty vinyl banner\n- Digitally printed on vinyl&quot;,&quot;price&quot;:&quot;95.00&quot;,&quot;sale_price&quot;:&quot;89.99&quot;,&quot;type&quot;:&quot;pole-pocket&quot;,&quot;cover&quot;:{&quot;key&quot;:&quot;assets/models/pole-1628062864266-1631924568908.png&quot;,&quot;url&quot;:&quot;https://lct-designs.s3.us-west-1.amazonaws.com/assets/models/pole-1628062864266-1631924568908.png&quot;},&quot;back&quot;:{&quot;key&quot;:&quot;assets/models/pole-1631924700152.svg&quot;,&quot;url&quot;:&quot;https://lct-designs.s3.us-west-1.amazonaws.com/assets/models/pole-1631924700152.svg&quot;},&quot;mask&quot;:{&quot;key&quot;:&quot;assets/models/pole-mask-1631925211715.svg&quot;,&quot;url&quot;:&quot;https://lct-designs.s3.us-west-1.amazonaws.com/assets/models/pole-mask-1631925211715.svg&quot;},&quot;pos&quot;:&quot;2&quot;,&quot;accessories&quot;:&quot;2,3&quot;}" style="background-color: white;"><g class="model" style="pointer-events: none;"><polygon fill="#FFFFFF" points="0.5,0.5 0.5,67.2 0.5,300.5 0.5,367.2 500.5,367.2 500.5,300.5 500.5,67.2 500.5,0.5 "></polygon></g><image width="760" height="558" xlink:href="https://lct-designs.s3.us-west-1.amazonaws.com/assets/libs/tough-cookies-1-1652435481775.png" class="asset background locked" transform="matrix(0.6583792567253113,0,0,0.6571686863899232,0.46011000871658325,-0.000005013799643904804)"></image><image width="567" height="760" xlink:href="https://lct-designs.s3.us-west-1.amazonaws.com/assets/libs/tough-cookies-2-1652435571866.png" class="asset" transform="matrix(0.26960727572441107,0,0,0.269607275724411,197.9278106689453,85.03945922851562)"></image><image width="760" height="740" xlink:href="https://lct-designs.s3.us-west-1.amazonaws.com/assets/libs/tough-cookies-4-1653361780155.png" class="asset" transform="matrix(0.041473474353551865,0,0,0.041178397834301,39.885040283203125,144.32794189453122)"></image><image width="760" height="740" xlink:href="https://lct-designs.s3.us-west-1.amazonaws.com/assets/libs/tough-cookies-4-1653361780155.png" class="asset" transform="matrix(0.04147346690297127,0,0,0.041178397834301,78.06865692138672,177.39385986328125)"></image><text fill="#ffffff" font-family="Raider Crusader" font-size="45" stroke-opacity="1" stroke-width="2" stroke="#000000" x="165.18929724415636" y="199.03331588572124" transform="matrix(0.4198343753814698,0,0,0.3834993839263916,40.121734619140625,122.57554626464844)" svgjs:data="{&quot;leading&quot;:&quot;1.3&quot;}"><tspan dy="0" x="165.18929724415636" svgjs:data="{&quot;newLined&quot;:true}">PLAYER</tspan></text><image width="760" height="740" xlink:href="https://lct-designs.s3.us-west-1.amazonaws.com/assets/libs/tough-cookies-4-1653361780155.png" class="asset" transform="matrix(0.04147346690297127,0,0,0.041178397834301,44.57917404174805,209.3084564208984)"></image><text fill="#ffffff" font-family="Raider Crusader" font-size="45" stroke-opacity="1" stroke-width="2" stroke="#000000" x="165.18929724415636" y="199.03331588572124" transform="matrix(0.4198343753814698,0,0,0.3834993839263916,6.632252216339111,154.4901428222656)" svgjs:data="{&quot;leading&quot;:&quot;1.3&quot;}"><tspan dy="0" x="165.18929724415636" svgjs:data="{&quot;newLined&quot;:true}">PLAYER</tspan></text><text fill="#ffffff" font-family="Raider Crusader" font-size="45" stroke-opacity="1" stroke-width="2" stroke="#000000" x="165.18929724415636" y="199.03331588572124" transform="matrix(0.4198343753814698,0,0,0.3834993243217468,1.9381194114685059,89.50962829589841)" svgjs:data="{&quot;leading&quot;:&quot;1.3&quot;}"><tspan dy="0" x="165.18929724415636" svgjs:data="{&quot;newLined&quot;:true}">PLAYER</tspan></text><image width="760" height="740" xlink:href="https://lct-designs.s3.us-west-1.amazonaws.com/assets/libs/tough-cookies-4-1653361780155.png" class="asset" transform="matrix(0.04147346690297127,0,0,0.041178397834301,97.17918395996094,241.5928649902344)"></image><text fill="#ffffff" font-family="Raider Crusader" font-size="45" stroke-opacity="1" stroke-width="2" stroke="#000000" x="165.18929724415636" y="199.03331588572124" transform="matrix(0.4198343753814698,0,0,0.3834993839263916,59.232261657714844,186.7745666503906)" svgjs:data="{&quot;leading&quot;:&quot;1.3&quot;}"><tspan dy="0" x="165.18929724415636" svgjs:data="{&quot;newLined&quot;:true}">PLAYER</tspan></text><image width="760" height="245" xlink:href="https://lct-designs.s3.us-west-1.amazonaws.com/assets/libs/tough-cookies-3-1652435633995.png" class="asset" transform="matrix(0.2761760652065277,0,0,0.2761760652065277,18.09647560119629,74.75139617919922)"></image><text fill="#fff89c" font-family="Raider Crusader Expanded" font-size="45" stroke-opacity="1" stroke-width="3" stroke="#007a41" x="61.634678408707146" y="199.03331588572124" transform="matrix(0.3197762668132782,0,0,0.3197762668132782,-2.083606243133559,228.38632202148435)" svgjs:data="{&quot;leading&quot;:&quot;1.3&quot;}"><tspan dy="0" x="61.634678408707146" svgjs:data="{&quot;newLined&quot;:true}">TEAM MOM; NAME</tspan></text><text fill="#fff89c" font-family="Raider Crusader Expanded" font-size="45" stroke-opacity="1" stroke-width="3" stroke="#007a41" x="61.634678408707146" y="199.03331588572124" transform="matrix(0.3197762668132782,0,0,0.3197762668132782,299.15997314453125,26.862352371215813)" svgjs:data="{&quot;leading&quot;:&quot;1.3&quot;}"><tspan dy="0" x="61.634678408707146" svgjs:data="{&quot;newLined&quot;:true}">COACH:COACH'S NAME</tspan></text><image width="760" height="740" xlink:href="https://lct-designs.s3.us-west-1.amazonaws.com/assets/libs/tough-cookies-4-1653361780155.png" class="asset" transform="matrix(0.04147345945239067,0,0,0.041178397834301,341.12860107421875,133.2855224609375)"></image><text fill="#ffffff" font-family="Raider Crusader" font-size="45" stroke-opacity="1" stroke-width="2" stroke="#000000" x="165.18929724415636" y="199.03331588572124" transform="matrix(0.4198343753814698,0,0,0.383499413728714,303.1816711425781,78.46720886230469)" svgjs:data="{&quot;leading&quot;:&quot;1.3&quot;}"><tspan dy="0" x="165.18929724415636" svgjs:data="{&quot;newLined&quot;:true}">PLAYER</tspan></text><image width="760" height="740" xlink:href="https://lct-designs.s3.us-west-1.amazonaws.com/assets/libs/tough-cookies-4-1653361780155.png" class="asset" transform="matrix(0.041473448276519775,0,0,0.041178397834301,375.1712951660156,169.112060546875)"></image><text fill="#ffffff" font-family="Raider Crusader" font-size="45" stroke-opacity="1" stroke-width="2" stroke="#000000" x="165.18929724415636" y="199.03331588572124" transform="matrix(0.4198343753814698,0,0,0.383499413728714,337.22436523437494,114.29374694824219)" svgjs:data="{&quot;leading&quot;:&quot;1.3&quot;}"><tspan dy="0" x="165.18929724415636" svgjs:data="{&quot;newLined&quot;:true}">PLAYER</tspan></text><image width="760" height="740" xlink:href="https://lct-designs.s3.us-west-1.amazonaws.com/assets/libs/tough-cookies-4-1653361780155.png" class="asset" transform="matrix(0.041473448276519775,0,0,0.041178397834301,349.5035095214844,201.94685363769534)"></image><text fill="#ffffff" font-family="Raider Crusader" font-size="45" stroke-opacity="1" stroke-width="2" stroke="#000000" x="165.18929724415636" y="199.03331588572124" transform="matrix(0.4198343753814698,0,0,0.383499413728714,311.5566101074219,147.1285400390625)" svgjs:data="{&quot;leading&quot;:&quot;1.3&quot;}"><tspan dy="0" x="165.18929724415636" svgjs:data="{&quot;newLined&quot;:true}">PLAYER</tspan></text><image width="760" height="740" xlink:href="https://lct-designs.s3.us-west-1.amazonaws.com/assets/libs/tough-cookies-4-1653361780155.png" class="asset" transform="matrix(0.041473448276519775,0,0,0.041178397834301,372.1969909667969,243.4332580566406)"></image><text fill="#ffffff" font-family="Raider Crusader" font-size="45" stroke-opacity="1" stroke-width="2" stroke="#000000" x="165.18929724415636" y="199.03331588572124" transform="matrix(0.4198343753814698,0,0,0.383499413728714,334.2500915527344,188.61495971679688)" svgjs:data="{&quot;leading&quot;:&quot;1.3&quot;}"><tspan dy="0" x="165.18929724415636" svgjs:data="{&quot;newLined&quot;:true}">PLAYER</tspan></text><g class="mask" style="pointer-events: none;"><g><path fill="#BCBEC0" d="M-3642.4-2101.7v4589.1h7813.4v-4589.1H-3642.4z M500.5,67.2v233.3v66.7H0.5v-66.7V67.2V0.5h500V67.2z" transform="matrix(1,0,0,1,0,0)"></path><g transform="matrix(1,0,0,1,0,0)">
	<rect x="0.5" y="300.5" opacity="0.95" fill="#F1F2F2" width="500" height="66.7"></rect>
	<rect x="0.5" y="0.5" opacity="0.95" fill="#F1F2F2" width="500" height="66.7"></rect>
</g></g></g></svg>