<svg xmlns="http://www.w3.org/2000/svg" version="1.1" xmlns:xlink="http://www.w3.org/1999/xlink" xmlns:svgjs="http://svgjs.dev/svgjs" width="100%" height="100%" viewBox="1 1 499 365.70001220703125" preserveAspectRatio="none" data-info="{&quot;_id&quot;:4,&quot;name&quot;:&quot;POLE POCKET SOCCER BANNERS&quot;,&quot;information&quot;:&quot;- Size: 3’x5’\n- Material: heavy duty vinyl banner\n- Digitally printed on vinyl&quot;,&quot;price&quot;:&quot;95.00&quot;,&quot;sale_price&quot;:&quot;89.99&quot;,&quot;type&quot;:&quot;pole-pocket&quot;,&quot;cover&quot;:{&quot;key&quot;:&quot;assets/models/pole-1628062864266-1631924568908.png&quot;,&quot;url&quot;:&quot;https://lct-designs.s3.us-west-1.amazonaws.com/assets/models/pole-1628062864266-1631924568908.png&quot;},&quot;back&quot;:{&quot;key&quot;:&quot;assets/models/pole-1631924700152.svg&quot;,&quot;url&quot;:&quot;https://lct-designs.s3.us-west-1.amazonaws.com/assets/models/pole-1631924700152.svg&quot;},&quot;mask&quot;:{&quot;key&quot;:&quot;assets/models/pole-mask-1631925211715.svg&quot;,&quot;url&quot;:&quot;https://lct-designs.s3.us-west-1.amazonaws.com/assets/models/pole-mask-1631925211715.svg&quot;},&quot;pos&quot;:&quot;2&quot;,&quot;accessories&quot;:&quot;2,3&quot;}" style="background-color: white;"><g class="model" style="pointer-events: none;"><polygon fill="#FFFFFF" points="0.5,0.5 0.5,67.2 0.5,300.5 0.5,367.2 500.5,367.2 500.5,300.5 500.5,67.2 500.5,0.5 "></polygon></g><image width="760" height="558" xlink:href="https://lct-designs.s3.us-west-1.amazonaws.com/assets/libs/thunder-1-1653108016261.png" class="asset background locked" transform="matrix(0.6584726572036744,0,0,0.6571686267852783,0,0)"></image><g class="" transform="matrix(1,0,0,1,0,0)"></g><image width="760" height="179" xlink:href="https://lct-designs.s3.us-west-1.amazonaws.com/assets/libs/thunder-2-1653108016261.png" class="asset" transform="matrix(0.42487201094627386,0.01087682880461216,-0.010876828804612161,0.42487201094627386,10.068304061889648,66.36261749267578)"></image><image width="760" height="647" xlink:href="https://lct-designs.s3.us-west-1.amazonaws.com/assets/libs/thunder-3-1653108016261.png" class="asset" transform="matrix(0.062214009463787086,0,0,0.06822451949119569,74.1326713562012,183.89627075195315)"></image><text fill="#ffffff" font-family="Avengeance Heroic Avenger" font-size="45" stroke-opacity="1" stroke-width="1" stroke="#000000" x="171.01994365886546" y="199.459545006756" transform="matrix(0.39000695943832403,0,0,0.4276856482028962,58.549731731414795,131.5053863525391)" svgjs:data="{&quot;leading&quot;:&quot;1.3&quot;}"><tspan dy="0" x="171.01994365886546" svgjs:data="{&quot;newLined&quot;:true}">PLAYER</tspan><tspan dy="58.5" x="171.01994365886546" svgjs:data="{&quot;newLined&quot;:true}"></tspan></text><text fill="#ffffff" font-family="Avengeance Heroic Avenger" font-size="45" stroke-opacity="1" stroke-width="1" stroke="#000000" x="171.01994365886546" y="199.459545006756" transform="matrix(0.39000695943832403,0,0,0.4276856482028962,169.7110214233399,133.69500732421878)" svgjs:data="{&quot;leading&quot;:&quot;1.3&quot;}"><tspan dy="0" x="171.01994365886546" svgjs:data="{&quot;newLined&quot;:true}">PLAYER</tspan><tspan dy="58.5" x="171.01994365886546" svgjs:data="{&quot;newLined&quot;:true}"></tspan></text><image width="760" height="647" xlink:href="https://lct-designs.s3.us-west-1.amazonaws.com/assets/libs/thunder-3-1653108016261.png" class="asset" transform="matrix(0.06221408396959306,0,0,0.06822467595338823,192.27519989013672,187.07698059082034)"></image><text fill="#ffffff" font-family="Avengeance Heroic Avenger" font-size="45" stroke-opacity="1" stroke-width="1" stroke="#000000" x="171.01994365886546" y="199.459545006756" transform="matrix(0.39000695943832403,0,0,0.4276856482028962,-7.923858642578111,170.25021362304688)" svgjs:data="{&quot;leading&quot;:&quot;1.3&quot;}"><tspan dy="0" x="171.01994365886546" svgjs:data="{&quot;newLined&quot;:true}">PLAYER</tspan><tspan dy="58.5" x="171.01994365886546" svgjs:data="{&quot;newLined&quot;:true}"></tspan></text><image width="760" height="647" xlink:href="https://lct-designs.s3.us-west-1.amazonaws.com/assets/libs/thunder-3-1653108016261.png" class="asset" transform="matrix(0.062214061617851264,0,0,0.06822457909584045,14.640312194824219,223.63218688964847)"></image><text fill="#ffffff" font-family="Avengeance Heroic Avenger" font-size="45" stroke-opacity="1" stroke-width="1" stroke="#000000" x="171.01994365886546" y="199.459545006756" transform="matrix(0.39000695943832403,0,0,0.4276856482028962,107.97132873535162,171.01078790426254)" svgjs:data="{&quot;leading&quot;:&quot;1.3&quot;}"><tspan dy="0" x="171.01994365886546" svgjs:data="{&quot;newLined&quot;:true}">PLAYER</tspan><tspan dy="58.5" x="171.01994365886546" svgjs:data="{&quot;newLined&quot;:true}"></tspan></text><image width="760" height="647" xlink:href="https://lct-designs.s3.us-west-1.amazonaws.com/assets/libs/thunder-3-1653108016261.png" class="asset" transform="matrix(0.06221412122249605,0,0,0.06822469830513,130.53550720214844,224.39276117086408)"></image><image width="760" height="647" xlink:href="https://lct-designs.s3.us-west-1.amazonaws.com/assets/libs/thunder-3-1653108016261.png" class="asset" transform="matrix(0.062214009463787086,0,0,0.06822451949119569,128.23579406738287,142.7664031982422)"></image><text fill="#ffffff" font-family="Avengeance Heroic Avenger" font-size="45" stroke-opacity="1" stroke-width="1" stroke="#000000" x="171.01994365886546" y="199.459545006756" transform="matrix(0.39000695943832403,0,0,0.4276856482028962,111.66177368164065,89.38442993164062)" svgjs:data="{&quot;leading&quot;:&quot;1.3&quot;}"><tspan dy="0" x="171.01994365886546" svgjs:data="{&quot;newLined&quot;:true}">PLAYER</tspan><tspan dy="58.5" x="171.01994365886546" svgjs:data="{&quot;newLined&quot;:true}"></tspan></text><text fill="#ffffff" font-family="Avengeance Heroic Avenger" font-size="45" stroke-opacity="1" stroke-width="1" stroke="#000000" x="171.01994365886546" y="199.459545006756" transform="matrix(0.39000695943832403,0,0,0.4276856482028962,4.714202880859375,86.41119384765628)" svgjs:data="{&quot;leading&quot;:&quot;1.3&quot;}"><tspan dy="0" x="171.01994365886546" svgjs:data="{&quot;newLined&quot;:true}">PLAYER</tspan><tspan dy="58.5" x="171.01994365886546" svgjs:data="{&quot;newLined&quot;:true}"></tspan></text><image width="760" height="647" xlink:href="https://lct-designs.s3.us-west-1.amazonaws.com/assets/libs/thunder-3-1653108016261.png" class="asset" transform="matrix(0.062214009463787086,0,0,0.06822451949119569,21.288223266601562,139.79316711425784)"></image><text fill="#ffffff" font-family="Avengeance Heroic Avenger" font-size="45" stroke-opacity="1" stroke-width="1" stroke="#000000" x="171.01994365886546" y="199.459545006756" transform="matrix(0.3647803962230683,0,0,0.34844309091568,285.64645385742193,221.76019287109372)" svgjs:data="{&quot;leading&quot;:&quot;1.3&quot;}"><tspan dy="0" x="171.01994365886546" svgjs:data="{&quot;newLined&quot;:true}">COACH:COACH'S    NAME</tspan></text><text fill="#ffffff" font-family="Avengeance Heroic Avenger" font-size="45" stroke-opacity="1" stroke-width="1" stroke="#000000" x="171.01994365886546" y="199.459545006756" transform="matrix(0.39000695943832403,0,0,0.4276856482028962,213.6719360351563,170.25021350383759)" svgjs:data="{&quot;leading&quot;:&quot;1.3&quot;}"><tspan dy="0" x="171.01994365886546" svgjs:data="{&quot;newLined&quot;:true}">PLAYER</tspan><tspan dy="58.5" x="171.01994365886546" svgjs:data="{&quot;newLined&quot;:true}"></tspan></text><image width="760" height="647" xlink:href="https://lct-designs.s3.us-west-1.amazonaws.com/assets/libs/thunder-3-1653108016261.png" class="asset" transform="matrix(0.062214061617851264,0,0,0.06822457909584045,236.23611450195318,223.63218677043912)"></image><text fill="#ffffff" font-family="Avengeance Heroic Avenger" font-size="45" stroke-opacity="1" stroke-width="1" stroke="#000000" x="171.01994365886546" y="199.459545006756" transform="matrix(0.3647803962230683,0,0,0.34844309091568,-50.24086761474608,220.76910400390628)" svgjs:data="{&quot;leading&quot;:&quot;1.3&quot;}"><tspan dy="0" x="171.01994365886546" svgjs:data="{&quot;newLined&quot;:true}">TEAM MOM: NAME</tspan></text><image width="760" height="626" xlink:href="https://lct-designs.s3.us-west-1.amazonaws.com/assets/libs/thunder-4-1653108016260.png" class="asset locked" transform="matrix(0.2437846809625626,0,0,0.29702040553092957,311.94772338867193,74.7722396850586)"></image><g class="mask" style="pointer-events: none;"><g><path fill="#BCBEC0" d="M-3642.4-2101.7v4589.1h7813.4v-4589.1H-3642.4z M500.5,67.2v233.3v66.7H0.5v-66.7V67.2V0.5h500V67.2z" transform="matrix(1,0,0,1,0,0)"></path><g transform="matrix(1,0,0,1,0,0)">
	<rect x="0.5" y="300.5" opacity="0.95" fill="#F1F2F2" width="500" height="66.7"></rect>
	<rect x="0.5" y="0.5" opacity="0.95" fill="#F1F2F2" width="500" height="66.7"></rect>
</g></g></g><image width="760" height="647" xlink:href="https://lct-designs.s3.us-west-1.amazonaws.com/assets/libs/thunder-3-1653108016261.png" class="asset" transform="matrix(0.062214061617851264,0,0,0.06822457909584045,240.78518676757818,142.8590545654297)"></image><text fill="#ffffff" font-family="Avengeance Heroic Avenger" font-size="45" stroke-opacity="1" stroke-width="1" stroke="#000000" x="171.01994365886546" y="199.459545006756" transform="matrix(0.39000695943832403,0,0,0.4276856482028962,218.22100830078125,89.47708129882812)" svgjs:data="{&quot;leading&quot;:&quot;1.3&quot;}"><tspan dy="0" x="171.01994365886546" svgjs:data="{&quot;newLined&quot;:true}">PLAYER</tspan><tspan dy="58.5" x="171.01994365886546" svgjs:data="{&quot;newLined&quot;:true}"></tspan></text></svg>