<svg xmlns="http://www.w3.org/2000/svg" version="1.1" xmlns:xlink="http://www.w3.org/1999/xlink" xmlns:svgjs="http://svgjs.dev/svgjs" width="100%" height="100%" viewBox="1 1 499 365.70001220703125" preserveAspectRatio="none" data-info="{&quot;_id&quot;:4,&quot;name&quot;:&quot;POLE POCKET SOCCER BANNERS&quot;,&quot;information&quot;:&quot;- Size: 3’x5’\n- Material: heavy duty vinyl banner\n- Digitally printed on vinyl&quot;,&quot;price&quot;:&quot;95.00&quot;,&quot;sale_price&quot;:&quot;89.99&quot;,&quot;type&quot;:&quot;pole-pocket&quot;,&quot;cover&quot;:{&quot;key&quot;:&quot;assets/models/pole-1628062864266-1631924568908.png&quot;,&quot;url&quot;:&quot;https://lct-designs.s3.us-west-1.amazonaws.com/assets/models/pole-1628062864266-1631924568908.png&quot;},&quot;back&quot;:{&quot;key&quot;:&quot;assets/models/pole-1631924700152.svg&quot;,&quot;url&quot;:&quot;https://lct-designs.s3.us-west-1.amazonaws.com/assets/models/pole-1631924700152.svg&quot;},&quot;mask&quot;:{&quot;key&quot;:&quot;assets/models/pole-mask-1631925211715.svg&quot;,&quot;url&quot;:&quot;https://lct-designs.s3.us-west-1.amazonaws.com/assets/models/pole-mask-1631925211715.svg&quot;},&quot;pos&quot;:&quot;2&quot;,&quot;accessories&quot;:&quot;2,3&quot;}" style="background-color: white;"><g class="model" style="pointer-events: none;"><polygon fill="#FFFFFF" points="0.5,0.5 0.5,67.2 0.5,300.5 0.5,367.2 500.5,367.2 500.5,300.5 500.5,67.2 500.5,0.5 "></polygon></g><image width="760" height="556" xlink:href="https://lct-designs.s3.us-west-1.amazonaws.com/assets/libs/scorpions-2-1633428001473.png" class="asset background locked" transform="matrix(0.6595323960558116,0,0,0.6595323960558116,0,0)"></image><image width="760" height="619" xlink:href="https://lct-designs.s3.us-west-1.amazonaws.com/assets/libs/scorpions-2-1633428132449.png" class="asset" transform="matrix(0.25566223263740545,0,0,0.2556622326374054,154.33816528320312,101.25249481201172)"></image><image width="760" height="443" xlink:href="https://lct-designs.s3.us-west-1.amazonaws.com/assets/libs/scorpions-2-1633428161426.png" class="asset" transform="matrix(0.07933102548122406,0,0,0.08235344290733339,23.67439270019534,82.847412109375)"></image><text fill="#000000" font-family="Antilles" font-size="45" stroke-opacity="1" stroke-width="0" stroke="#000000" x="171.68080181316233" y="200.45062624454897" transform="matrix(0.6178914308547975,0,0,0.5664171576499939,-46.74182891845703,-3.7794261276721954)" svgjs:data="{&quot;leading&quot;:&quot;1.3&quot;}"><tspan dy="0" x="171.68080181316233" svgjs:data="{&quot;newLined&quot;:true}">Player</tspan></text><image width="760" height="443" xlink:href="https://lct-designs.s3.us-west-1.amazonaws.com/assets/libs/scorpions-2-1633428161426.png" class="asset" transform="matrix(0.07933122664690019,0,0,0.08235344290733339,24.75702667236328,233.24499511718753)"></image><text fill="#000000" font-family="Antilles" font-size="45" stroke-opacity="1" stroke-width="0" stroke="#000000" x="171.68080181316233" y="200.45062624454897" transform="matrix(0.6178929805755615,0,0,0.5664171576499939,-45.65919494628905,146.61814880371097)" svgjs:data="{&quot;leading&quot;:&quot;1.3&quot;}"><tspan dy="0" x="171.68080181316233" svgjs:data="{&quot;newLined&quot;:true}">Player</tspan></text><image width="760" height="443" xlink:href="https://lct-designs.s3.us-west-1.amazonaws.com/assets/libs/scorpions-2-1633428161426.png" class="asset" transform="matrix(0.07933107018470766,0,0,0.08235344290733339,43.9938888549805,132.90161132812503)"></image><text fill="#000000" font-family="Antilles" font-size="45" stroke-opacity="1" stroke-width="0" stroke="#000000" x="171.68080181316233" y="200.45062624454897" transform="matrix(0.6178914308547975,0,0,0.5664171576499939,-26.422332763671875,46.27476882934569)" svgjs:data="{&quot;leading&quot;:&quot;1.3&quot;}"><tspan dy="0" x="171.68080181316233" svgjs:data="{&quot;newLined&quot;:true}">Player</tspan></text><image width="760" height="443" xlink:href="https://lct-designs.s3.us-west-1.amazonaws.com/assets/libs/scorpions-2-1633428161426.png" class="asset" transform="matrix(0.07933107763528824,0,0,0.08235344290733339,55.47817993164065,182.45108032226565)"></image><text fill="#000000" font-family="Antilles" font-size="45" stroke-opacity="1" stroke-width="0" stroke="#000000" x="171.68080181316233" y="200.45062624454897" transform="matrix(0.6178917884826661,0,0,0.5664171576499939,-14.938041687011719,95.8242416381836)" svgjs:data="{&quot;leading&quot;:&quot;1.3&quot;}"><tspan dy="0" x="171.68080181316233" svgjs:data="{&quot;newLined&quot;:true}">Player</tspan></text><image width="760" height="443" xlink:href="https://lct-designs.s3.us-west-1.amazonaws.com/assets/libs/scorpions-2-1633428161426.png" class="asset" transform="matrix(0.07933107763528824,0,0,0.08235344290733339,344.87387084960943,88.29834747314453)"></image><image width="760" height="443" xlink:href="https://lct-designs.s3.us-west-1.amazonaws.com/assets/libs/scorpions-2-1633428161426.png" class="asset" transform="matrix(0.07933112978935243,0,0,0.08235344290733339,345.45861816406256,182.94659423828128)"></image><text fill="#000000" font-family="Antilles" font-size="45" stroke-opacity="1" stroke-width="0" stroke="#000000" x="171.68080181316233" y="200.45062624454897" transform="matrix(0.6178921461105348,0,0,0.5664171576499939,275.0423889160156,96.31975555419922)" svgjs:data="{&quot;leading&quot;:&quot;1.3&quot;}"><tspan dy="0" x="171.68080181316233" svgjs:data="{&quot;newLined&quot;:true}">Player</tspan></text><text fill="#000000" font-family="Antilles" font-size="45" stroke-opacity="1" stroke-width="0" stroke="#000000" x="171.68080181316233" y="200.45062624454897" transform="matrix(0.6178917288780214,0,0,0.5664171576499939,274.45764160156256,1.6715092658996582)" svgjs:data="{&quot;leading&quot;:&quot;1.3&quot;}"><tspan dy="0" x="171.68080181316233" svgjs:data="{&quot;newLined&quot;:true}">Player</tspan></text><image width="760" height="443" xlink:href="https://lct-designs.s3.us-west-1.amazonaws.com/assets/libs/scorpions-2-1633428161426.png" class="asset" transform="matrix(0.07933124154806137,0,0,0.08235344290733339,304.3310852050782,231.26286315917966)"></image><image width="760" height="443" xlink:href="https://lct-designs.s3.us-west-1.amazonaws.com/assets/libs/scorpions-2-1633428161426.png" class="asset" transform="matrix(0.07933114469051362,0,0,0.08235344290733339,369.6532592773438,132.90159606933597)"></image><text fill="#000000" font-family="Antilles" font-size="45" stroke-opacity="1" stroke-width="0" stroke="#000000" x="171.68080181316233" y="200.45062624454897" transform="matrix(0.6178919076919557,0,0,0.5664171576499939,299.2370300292969,46.274753570556626)" svgjs:data="{&quot;leading&quot;:&quot;1.3&quot;}"><tspan dy="0" x="171.68080181316233" svgjs:data="{&quot;newLined&quot;:true}">Player</tspan></text><text fill="#000000" font-family="Antilles" font-size="45" stroke-opacity="1" stroke-width="0" stroke="#000000" x="171.68080181316233" y="200.45062624454897" transform="matrix(0.617893159389496,0,0,0.5664171576499939,233.91487121582037,144.63601684570315)" svgjs:data="{&quot;leading&quot;:&quot;1.3&quot;}"><tspan dy="0" x="171.68080181316233" svgjs:data="{&quot;newLined&quot;:true}">Player</tspan></text><text fill="#54b853" font-family="Antilles" font-size="45" x="84.6023029728303" y="199.459545006756" stroke-opacity="1" stroke-width="2" stroke="#000000" transform="matrix(0.44098129868507385,0,0,0.44098129868507385,300.6687622070313,207.33744812011722)" svgjs:data="{&quot;leading&quot;:&quot;1.3&quot;}"><tspan dy="0" x="84.6023029728303" svgjs:data="{&quot;newLined&quot;:true}">Coach:Coach's name</tspan></text><text fill="#54b853" font-family="Antilles" font-size="45" x="84.6023029728303" y="199.459545006756" stroke-opacity="1" stroke-width="2" stroke="#000000" transform="matrix(0.44098129868507385,0,0,0.44098129868507385,-19.361268997192383,206.84190368652347)" svgjs:data="{&quot;leading&quot;:&quot;1.3&quot;}"><tspan dy="0" x="84.6023029728303" svgjs:data="{&quot;newLined&quot;:true}">team mom: name</tspan></text><g class="mask" style="pointer-events: none;"><g><path fill="#BCBEC0" d="M-3642.4-2101.7v4589.1h7813.4v-4589.1H-3642.4z M500.5,67.2v233.3v66.7H0.5v-66.7V67.2V0.5h500V67.2z" transform="matrix(1,0,0,1,0,0)"></path><g transform="matrix(1,0,0,1,0,0)">
	<rect x="0.5" y="300.5" opacity="0.95" fill="#F1F2F2" width="500" height="66.7"></rect>
	<rect x="0.5" y="0.5" opacity="0.95" fill="#F1F2F2" width="500" height="66.7"></rect>
</g></g></g></svg>