<svg xmlns="http://www.w3.org/2000/svg" version="1.1" xmlns:xlink="http://www.w3.org/1999/xlink" xmlns:svgjs="http://svgjs.dev/svgjs" width="100%" height="100%" viewBox="1 1 499 365.70001220703125" preserveAspectRatio="none" data-info="{&quot;_id&quot;:4,&quot;name&quot;:&quot;POLE POCKET SOCCER BANNERS&quot;,&quot;information&quot;:&quot;- Size: 3’x5’\n- Material: heavy duty vinyl banner\n- Digitally printed on vinyl&quot;,&quot;price&quot;:&quot;95.00&quot;,&quot;sale_price&quot;:&quot;89.99&quot;,&quot;type&quot;:&quot;pole-pocket&quot;,&quot;cover&quot;:{&quot;key&quot;:&quot;assets/models/pole-1628062864266-1631924568908.png&quot;,&quot;url&quot;:&quot;https://lct-designs.s3.us-west-1.amazonaws.com/assets/models/pole-1628062864266-1631924568908.png&quot;},&quot;back&quot;:{&quot;key&quot;:&quot;assets/models/pole-1631924700152.svg&quot;,&quot;url&quot;:&quot;https://lct-designs.s3.us-west-1.amazonaws.com/assets/models/pole-1631924700152.svg&quot;},&quot;mask&quot;:{&quot;key&quot;:&quot;assets/models/pole-mask-1631925211715.svg&quot;,&quot;url&quot;:&quot;https://lct-designs.s3.us-west-1.amazonaws.com/assets/models/pole-mask-1631925211715.svg&quot;},&quot;pos&quot;:&quot;2&quot;,&quot;accessories&quot;:&quot;2,3&quot;}" style="background-color: white;"><g class="model" style="pointer-events: none;"><polygon fill="#FFFFFF" points="0.5,0.5 0.5,67.2 0.5,300.5 0.5,367.2 500.5,367.2 500.5,300.5 500.5,67.2 500.5,0.5 "></polygon></g><image width="760" height="558" xlink:href="https://lct-designs.s3.us-west-1.amazonaws.com/assets/libs/divas-bone-crushing1-1654499131178.png" class="asset background locked" transform="matrix(0.6571684806577621,0,0,0.6571684806577621,0,0)"></image><text fill="#d300c2" font-family="Foo" font-size="50" x="166.04423511167727" y="202.53708149662467" stroke-opacity="1" stroke-width="2" stroke="#ffffff" transform="matrix(0.28357309103012085,0,0,0.28357309103012085,-30.260929107666016,28.117055892944336)" svgjs:data="{&quot;leading&quot;:&quot;1.3&quot;}"><tspan dy="0" x="166.04423511167727" svgjs:data="{&quot;newLined&quot;:true}">Coach: coach's name </tspan><tspan dy="65" x="166.04423511167727" svgjs:data="{&quot;newLined&quot;:true}"></tspan><tspan dy="65" x="166.04423511167727" svgjs:data="{&quot;newLined&quot;:true}"></tspan></text><text fill="#d300c2" font-family="Foo" font-size="50" x="166.04423511167727" y="202.53708149662467" stroke-opacity="1" stroke-width="2" stroke="#ffffff" transform="matrix(0.28357309103012085,0,0,0.28357309103012085,268.04870605468756,28.117052078247085)" svgjs:data="{&quot;leading&quot;:&quot;1.3&quot;}"><tspan dy="0" x="166.04423511167727" svgjs:data="{&quot;newLined&quot;:true}">Team mom: team mom's name</tspan><tspan dy="65" x="166.04423511167727" svgjs:data="{&quot;newLined&quot;:true}"></tspan></text><text fill="#d300c2" font-family="Foo" font-size="45" x="166.04423511167727" y="202.53708149662467" stroke-opacity="1" stroke-width="2" stroke="#ffffff" transform="matrix(0.3079573214054107,0,0,0.3079573214054107,-34.720054626464844,109.02247619628905)" svgjs:data="{&quot;leading&quot;:&quot;1.3&quot;}"><tspan dy="0" x="166.04423511167727" svgjs:data="{&quot;newLined&quot;:true}">PLAYER</tspan></text><image width="557" height="760" xlink:href="https://lct-designs.s3.us-west-1.amazonaws.com/assets/libs/divas-bone-crushing-_soccer-hem-5-1647504209506.png" class="asset" transform="matrix(0.06949152797460556,0,0,0.06949152797460556,21.672927856445312,105.55184936523439)"></image><image width="760" height="321" xlink:href="https://lct-designs.s3.us-west-1.amazonaws.com/assets/libs/divas-bone-crushing-_soccer-hem-2-1647504205334.png" class="asset" transform="matrix(0.13157889246940613,0,0,0.13157889246940613,202.05360412597656,133.8419189453125)"></image><image width="760" height="695" xlink:href="https://lct-designs.s3.us-west-1.amazonaws.com/assets/libs/divas-bone-crushing-_soccer-hem-3-1647504198158.png" class="asset" transform="matrix(0.1451948881149292,0,0,0.1451948881149292,196.87948608398438,184.94247436523438)"></image><image width="760" height="116" xlink:href="https://lct-designs.s3.us-west-1.amazonaws.com/assets/libs/divas-bone-crushing-_soccer-hem-1-1647504205334.png" class="asset" transform="matrix(0.3253137171268463,0,0,0.32531371712684626,128.4343490600586,99.42117309570314)"></image><text fill="#d300c2" font-family="Foo" font-size="45" x="166.04423511167727" y="202.53708149662467" stroke-opacity="1" stroke-width="2" stroke="#ffffff" transform="matrix(0.30795741081237793,0,0,0.3079574108123779,39.156707763671875,141.55230712890625)" svgjs:data="{&quot;leading&quot;:&quot;1.3&quot;}"><tspan dy="0" x="166.04423511167727" svgjs:data="{&quot;newLined&quot;:true}">PLAYER</tspan></text><image width="557" height="760" xlink:href="https://lct-designs.s3.us-west-1.amazonaws.com/assets/libs/divas-bone-crushing-_soccer-hem-5-1647504209506.png" class="asset" transform="matrix(0.06949154287576675,0,0,0.06949154287576675,95.54969024658203,138.08168029785156)"></image><text fill="#d300c2" font-family="Foo" font-size="45" x="166.04423511167727" y="202.53708149662467" stroke-opacity="1" stroke-width="2" stroke="#ffffff" transform="matrix(0.30795741081237793,0,0,0.3079574108123779,-25.366195678710938,214.89230346679688)" svgjs:data="{&quot;leading&quot;:&quot;1.3&quot;}"><tspan dy="0" x="166.04423511167727" svgjs:data="{&quot;newLined&quot;:true}">PLAYER</tspan></text><image width="557" height="760" xlink:href="https://lct-designs.s3.us-west-1.amazonaws.com/assets/libs/divas-bone-crushing-_soccer-hem-5-1647504209506.png" class="asset" transform="matrix(0.06949154287576675,0,0,0.06949154287576675,31.02678680419922,211.4216766357422)"></image><text fill="#d300c2" font-family="Foo" font-size="45" x="166.04423511167727" y="202.53708149662467" stroke-opacity="1" stroke-width="2" stroke="#ffffff" transform="matrix(0.30795741081237793,0,0,0.3079574108123779,70.39427947998047,224.94694519042963)" svgjs:data="{&quot;leading&quot;:&quot;1.3&quot;}"><tspan dy="0" x="166.04423511167727" svgjs:data="{&quot;newLined&quot;:true}">PLAYER</tspan></text><image width="557" height="760" xlink:href="https://lct-designs.s3.us-west-1.amazonaws.com/assets/libs/divas-bone-crushing-_soccer-hem-5-1647504209506.png" class="asset" transform="matrix(0.06949154287576675,0,0,0.06949154287576675,126.7872619628906,221.47631835937494)"></image><text fill="#d300c2" font-family="Foo" font-size="45" x="166.04423511167727" y="202.53708149662467" stroke-opacity="1" stroke-width="2" stroke="#ffffff" transform="matrix(0.30795738101005554,0,0,0.3079573810100555,384.5644302368164,106.65667724609374)" svgjs:data="{&quot;leading&quot;:&quot;1.3&quot;}"><tspan dy="0" x="166.04423511167727" svgjs:data="{&quot;newLined&quot;:true}">PLAYER</tspan></text><image width="557" height="760" xlink:href="https://lct-designs.s3.us-west-1.amazonaws.com/assets/libs/divas-bone-crushing-_soccer-hem-5-1647504209506.png" class="asset" transform="matrix(0.06949154287576675,0,0,0.06949154287576675,440.95741271972656,103.18605041503908)"></image><text fill="#d300c2" font-family="Foo" font-size="45" x="166.04423511167727" y="202.53708149662467" stroke-opacity="1" stroke-width="2" stroke="#ffffff" transform="matrix(0.30795741081237793,0,0,0.3079574108123779,312.94409179687494,141.5523223876953)" svgjs:data="{&quot;leading&quot;:&quot;1.3&quot;}"><tspan dy="0" x="166.04423511167727" svgjs:data="{&quot;newLined&quot;:true}">PLAYER</tspan></text><image width="557" height="760" xlink:href="https://lct-designs.s3.us-west-1.amazonaws.com/assets/libs/divas-bone-crushing-_soccer-hem-5-1647504209506.png" class="asset" transform="matrix(0.06949154287576675,0,0,0.06949154287576675,369.3370971679687,138.08169555664062)"></image><text fill="#d300c2" font-family="Foo" font-size="45" x="166.04423511167727" y="202.53708149662467" stroke-opacity="1" stroke-width="2" stroke="#ffffff" transform="matrix(0.30795741081237793,0,0,0.3079574108123779,386.1747131347656,208.97781372070312)" svgjs:data="{&quot;leading&quot;:&quot;1.3&quot;}"><tspan dy="0" x="166.04423511167727" svgjs:data="{&quot;newLined&quot;:true}">PLAYER</tspan></text><image width="557" height="760" xlink:href="https://lct-designs.s3.us-west-1.amazonaws.com/assets/libs/divas-bone-crushing-_soccer-hem-5-1647504209506.png" class="asset" transform="matrix(0.06949154287576675,0,0,0.06949154287576675,442.5677185058594,205.50718688964844)"></image><text fill="#d300c2" font-family="Foo" font-size="45" x="166.04423511167727" y="202.53708149662467" stroke-opacity="1" stroke-width="2" stroke="#ffffff" transform="matrix(0.30795741081237793,0,0,0.3079574108123779,284.39038085937506,221.39830017089838)" svgjs:data="{&quot;leading&quot;:&quot;1.3&quot;}"><tspan dy="0" x="166.04423511167727" svgjs:data="{&quot;newLined&quot;:true}">PLAYER</tspan></text><image width="557" height="760" xlink:href="https://lct-designs.s3.us-west-1.amazonaws.com/assets/libs/divas-bone-crushing-_soccer-hem-5-1647504209506.png" class="asset" transform="matrix(0.06949154287576675,0,0,0.06949154287576675,340.7833862304687,217.92767333984375)"></image><g class="mask" style="pointer-events: none;"><g><path fill="#BCBEC0" d="M-3642.4-2101.7v4589.1h7813.4v-4589.1H-3642.4z M500.5,67.2v233.3v66.7H0.5v-66.7V67.2V0.5h500V67.2z" transform="matrix(1,0,0,1,0,0)"></path><g transform="matrix(1,0,0,1,0,0)">
	<rect x="0.5" y="300.5" opacity="0.95" fill="#F1F2F2" width="500" height="66.7"></rect>
	<rect x="0.5" y="0.5" opacity="0.95" fill="#F1F2F2" width="500" height="66.7"></rect>
</g></g></g></svg>