<svg xmlns="http://www.w3.org/2000/svg" version="1.1" xmlns:xlink="http://www.w3.org/1999/xlink" xmlns:svgjs="http://svgjs.dev/svgjs" width="100%" height="100%" viewBox="1 1 499 365.70001220703125" preserveAspectRatio="none" data-info="{&quot;_id&quot;:4,&quot;name&quot;:&quot;POLE POCKET SOCCER BANNERS&quot;,&quot;information&quot;:&quot;- Size: 3’x5’\n- Material: heavy duty vinyl banner\n- Digitally printed on vinyl&quot;,&quot;price&quot;:&quot;95.00&quot;,&quot;sale_price&quot;:&quot;89.99&quot;,&quot;type&quot;:&quot;pole-pocket&quot;,&quot;cover&quot;:{&quot;key&quot;:&quot;assets/models/pole-1628062864266-1631924568908.png&quot;,&quot;url&quot;:&quot;https://lct-designs.s3.us-west-1.amazonaws.com/assets/models/pole-1628062864266-1631924568908.png&quot;},&quot;back&quot;:{&quot;key&quot;:&quot;assets/models/pole-1631924700152.svg&quot;,&quot;url&quot;:&quot;https://lct-designs.s3.us-west-1.amazonaws.com/assets/models/pole-1631924700152.svg&quot;},&quot;mask&quot;:{&quot;key&quot;:&quot;assets/models/pole-mask-1631925211715.svg&quot;,&quot;url&quot;:&quot;https://lct-designs.s3.us-west-1.amazonaws.com/assets/models/pole-mask-1631925211715.svg&quot;},&quot;pos&quot;:&quot;2&quot;,&quot;accessories&quot;:&quot;2,3&quot;}" style="background-color: white;"><g class="model" style="pointer-events: none;"><polygon fill="#FFFFFF" points="0.5,0.5 0.5,67.2 0.5,300.5 0.5,367.2 500.5,367.2 500.5,300.5 500.5,67.2 500.5,0.5 "></polygon></g><image width="760" height="553" xlink:href="https://lct-designs.s3.us-west-1.amazonaws.com/assets/libs/legends-1632741205262.png" class="asset background locked" transform="matrix(0.6631103294883024,0,0,0.6631103294883024,0,0)"></image><text fill="#000000" font-family="Cookies" font-size="50" stroke-opacity="1" stroke-width="0" stroke="#ffffff" x="-98.72634249947717" y="199.47500657859518" transform="matrix(0.1994968056678772,0,0,0.19949680566787723,407.4404602050781,63.613777160644545)" svgjs:data="{&quot;leading&quot;:&quot;1.3&quot;}"><tspan dy="0" x="-98.72634249947717" svgjs:data="{&quot;newLined&quot;:true}">COACH: COACH'S NAME</tspan></text><text fill="#231f20" font-family="Cookies" font-size="50" stroke-opacity="1" stroke-width="0" stroke="#231f20" x="-98.72634249947717" y="199.47500657859518" transform="matrix(0.19949668645858765,0,0,0.19949668645858765,377.823974609375,52.27194213867189)" svgjs:data="{&quot;leading&quot;:&quot;1.3&quot;}"><tspan dy="0" x="-98.72634249947717" svgjs:data="{&quot;newLined&quot;:true}">TEAM MOM: TEAM MOM'S NAME</tspan></text><text fill="#000000" font-family="Cookies" font-size="50" stroke-opacity="1" stroke-width="0" stroke="#000000" x="154.40624782672543" y="204.54892336822962" transform="matrix(0.2771526575088501,0,0,0.2771526575088501,-3.4054851531982457,71.39989471435548)" svgjs:data="{&quot;leading&quot;:&quot;1.3&quot;}"><tspan dy="0" x="154.40624782672543" svgjs:data="{&quot;newLined&quot;:true}">PLAYER</tspan><tspan dy="65" x="154.40624782672543" svgjs:data="{&quot;newLined&quot;:true}"></tspan></text><text fill="#000000" font-family="Cookies" font-size="50" stroke-opacity="1" stroke-width="0" stroke="#000000" x="154.40624782672543" y="204.54892336822962" transform="matrix(0.2771526575088501,0,0,0.2771526575088501,78.63752746582031,71.39989471435548)" svgjs:data="{&quot;leading&quot;:&quot;1.3&quot;}"><tspan dy="0" x="154.40624782672543" svgjs:data="{&quot;newLined&quot;:true}">PLAYER</tspan><tspan dy="65" x="154.40624782672543" svgjs:data="{&quot;newLined&quot;:true}"></tspan></text><text fill="#000000" font-family="Cookies" font-size="50" stroke-opacity="1" stroke-width="0" stroke="#000000" x="154.40624782672543" y="204.54892336822962" transform="matrix(0.2771526575088501,0,0,0.2771526575088501,163.43832397460938,71.39989471435548)" svgjs:data="{&quot;leading&quot;:&quot;1.3&quot;}"><tspan dy="0" x="154.40624782672543" svgjs:data="{&quot;newLined&quot;:true}">PLAYER</tspan><tspan dy="65" x="154.40624782672543" svgjs:data="{&quot;newLined&quot;:true}"></tspan></text><text fill="#000000" font-family="Cookies" font-size="50" stroke-opacity="1" stroke-width="0" stroke="#000000" x="154.40624782672543" y="204.54892336822962" transform="matrix(0.2771526575088501,0,0,0.2771526575088501,247.63186645507812,71.39989471435548)" svgjs:data="{&quot;leading&quot;:&quot;1.3&quot;}"><tspan dy="0" x="154.40624782672543" svgjs:data="{&quot;newLined&quot;:true}">PLAYER</tspan><tspan dy="65" x="154.40624782672543" svgjs:data="{&quot;newLined&quot;:true}"></tspan></text><image width="760" height="740" xlink:href="https://lct-designs.s3.us-west-1.amazonaws.com/assets/libs/legends-1-1632540672600.png" class="asset" transform="matrix(0.04112128168344498,0,0,0.041121281683444984,298.3213806152344,83.05287933349611)"></image><image width="760" height="740" xlink:href="https://lct-designs.s3.us-west-1.amazonaws.com/assets/libs/legends-1-1632540672600.png" class="asset" transform="matrix(0.04112128168344498,0,0,0.041121281683444984,214.12783813476565,83.05287933349611)"></image><image width="760" height="740" xlink:href="https://lct-designs.s3.us-west-1.amazonaws.com/assets/libs/legends-1-1632540672600.png" class="asset" transform="matrix(0.04112128168344498,0,0,0.041121281683444984,129.5122528076172,83.05287933349611)"></image><image width="760" height="740" xlink:href="https://lct-designs.s3.us-west-1.amazonaws.com/assets/libs/legends-1-1632540672600.png" class="asset" transform="matrix(0.04112128168344498,0,0,0.041121281683444984,47.46923828125,83.05286407470705)"></image><image width="760" height="525" xlink:href="https://lct-designs.s3.us-west-1.amazonaws.com/assets/libs/legends-3-1632540651528.png" class="asset" transform="matrix(0.2728976607322693,0,0,0.2728976607322693,84.43208312988281,154.14859008789068)"></image><text fill="#ffffff" font-family="Cookies" font-size="50" stroke-opacity="1" stroke-width="0" stroke="#000000" x="154.40624782672543" y="204.54892336822962" transform="matrix(0.2771526575088501,0,0,0.2771526575088501,230.57298278808594,136.45364379882812)" svgjs:data="{&quot;leading&quot;:&quot;1.3&quot;}"><tspan dy="0" x="154.40624782672543" svgjs:data="{&quot;newLined&quot;:true}">PLAYER</tspan><tspan dy="65" x="154.40624782672543" svgjs:data="{&quot;newLined&quot;:true}"></tspan></text><text fill="#ffffff" font-family="Cookies" font-size="50" stroke-opacity="1" stroke-width="0" stroke="#000000" x="154.40624782672543" y="204.54892336822962" transform="matrix(0.2771526575088501,0,0,0.2771526575088501,315.373779296875,136.45364379882812)" svgjs:data="{&quot;leading&quot;:&quot;1.3&quot;}"><tspan dy="0" x="154.40624782672543" svgjs:data="{&quot;newLined&quot;:true}">PLAYER</tspan><tspan dy="65" x="154.40624782672543" svgjs:data="{&quot;newLined&quot;:true}"></tspan></text><text fill="#ffffff" font-family="Cookies" font-size="50" stroke-opacity="1" stroke-width="0" stroke="#000000" x="154.40624782672543" y="204.54892336822962" transform="matrix(0.2771526575088501,0,0,0.2771526575088501,399.56732177734375,136.45364379882812)" svgjs:data="{&quot;leading&quot;:&quot;1.3&quot;}"><tspan dy="0" x="154.40624782672543" svgjs:data="{&quot;newLined&quot;:true}">PLAYER</tspan><tspan dy="65" x="154.40624782672543" svgjs:data="{&quot;newLined&quot;:true}"></tspan></text><image width="760" height="740" xlink:href="https://lct-designs.s3.us-west-1.amazonaws.com/assets/libs/legends-1-1632540672600.png" class="asset" transform="matrix(0.04112128168344498,0,0,0.041121281683444984,450.2568359375,148.1066284179688)"></image><image width="760" height="740" xlink:href="https://lct-designs.s3.us-west-1.amazonaws.com/assets/libs/legends-1-1632540672600.png" class="asset" transform="matrix(0.04112128168344498,0,0,0.041121281683444984,366.06329345703125,148.1066284179688)"></image><image width="760" height="740" xlink:href="https://lct-designs.s3.us-west-1.amazonaws.com/assets/libs/legends-1-1632540672600.png" class="asset" transform="matrix(0.04112128168344498,0,0,0.041121281683444984,281.44769287109375,148.1066284179688)"></image><text fill="#ffffff" font-family="Cookies" font-size="50" stroke-opacity="1" stroke-width="0" stroke="#000000" x="154.40624782672543" y="204.54892336822962" transform="matrix(0.2771526575088501,0,0,0.2771526575088501,273.7608642578125,194.51815795898438)" svgjs:data="{&quot;leading&quot;:&quot;1.3&quot;}"><tspan dy="0" x="154.40624782672543" svgjs:data="{&quot;newLined&quot;:true}">PLAYER</tspan><tspan dy="65" x="154.40624782672543" svgjs:data="{&quot;newLined&quot;:true}"></tspan></text><text fill="#ffffff" font-family="Cookies" font-size="50" stroke-opacity="1" stroke-width="0" stroke="#000000" x="154.40624782672543" y="204.54892336822962" transform="matrix(0.2771526575088501,0,0,0.2771526575088501,357.95440673828125,194.51815795898438)" svgjs:data="{&quot;leading&quot;:&quot;1.3&quot;}"><tspan dy="0" x="154.40624782672543" svgjs:data="{&quot;newLined&quot;:true}">PLAYER</tspan><tspan dy="65" x="154.40624782672543" svgjs:data="{&quot;newLined&quot;:true}"></tspan></text><image width="760" height="740" xlink:href="https://lct-designs.s3.us-west-1.amazonaws.com/assets/libs/legends-1-1632540672600.png" class="asset" transform="matrix(0.04112128168344498,0,0,0.041121281683444984,408.6439208984375,206.171142578125)"></image><image width="760" height="740" xlink:href="https://lct-designs.s3.us-west-1.amazonaws.com/assets/libs/legends-1-1632540672600.png" class="asset" transform="matrix(0.04112128168344498,0,0,0.041121281683444984,324.45037841796875,206.171142578125)"></image><image width="760" height="740" xlink:href="https://lct-designs.s3.us-west-1.amazonaws.com/assets/libs/legends-1-1632540672600.png" class="asset" transform="matrix(0.0785428136587143,0,0,0.0785428136587143,13.97847843170166,221.2249298095703)"></image><g class="mask" style="pointer-events: none;"><g><path fill="#BCBEC0" d="M-3642.4-2101.7v4589.1h7813.4v-4589.1H-3642.4z M500.5,67.2v233.3v66.7H0.5v-66.7V67.2V0.5h500V67.2z" transform="matrix(1,0,0,1,0,0)"></path><g transform="matrix(1,0,0,1,0,0)">
	<rect x="0.5" y="300.5" opacity="0.95" fill="#F1F2F2" width="500" height="66.7"></rect>
	<rect x="0.5" y="0.5" opacity="0.95" fill="#F1F2F2" width="500" height="66.7"></rect>
</g></g></g></svg>