<svg xmlns="http://www.w3.org/2000/svg" version="1.1" xmlns:xlink="http://www.w3.org/1999/xlink" xmlns:svgjs="http://svgjs.dev/svgjs" width="100%" height="100%" viewBox="1 1 499 365.70001220703125" preserveAspectRatio="none" data-info="{&quot;_id&quot;:4,&quot;name&quot;:&quot;POLE POCKET SOCCER BANNERS&quot;,&quot;information&quot;:&quot;- Size: 3’x5’\n- Material: heavy duty vinyl banner\n- Digitally printed on vinyl&quot;,&quot;price&quot;:&quot;95.00&quot;,&quot;sale_price&quot;:&quot;89.99&quot;,&quot;type&quot;:&quot;pole-pocket&quot;,&quot;cover&quot;:{&quot;key&quot;:&quot;assets/models/pole-1628062864266-1631924568908.png&quot;,&quot;url&quot;:&quot;https://lct-designs.s3.us-west-1.amazonaws.com/assets/models/pole-1628062864266-1631924568908.png&quot;},&quot;back&quot;:{&quot;key&quot;:&quot;assets/models/pole-1631924700152.svg&quot;,&quot;url&quot;:&quot;https://lct-designs.s3.us-west-1.amazonaws.com/assets/models/pole-1631924700152.svg&quot;},&quot;mask&quot;:{&quot;key&quot;:&quot;assets/models/pole-mask-1631925211715.svg&quot;,&quot;url&quot;:&quot;https://lct-designs.s3.us-west-1.amazonaws.com/assets/models/pole-mask-1631925211715.svg&quot;},&quot;pos&quot;:&quot;2&quot;,&quot;accessories&quot;:&quot;2,3&quot;}" style="background-color: white;"><g class="model" style="pointer-events: none;"><polygon fill="#FFFFFF" points="0.5,0.5 0.5,67.2 0.5,300.5 0.5,367.2 500.5,367.2 500.5,300.5 500.5,67.2 500.5,0.5 "></polygon></g><image width="760" height="556" xlink:href="https://lct-designs.s3.us-west-1.amazonaws.com/assets/libs/spirits-1-1652349212843.png" class="asset background locked" transform="matrix(0.6595323960558116,0,0,0.6595323960558116,0,0)"></image><image width="760" height="666" xlink:href="https://lct-designs.s3.us-west-1.amazonaws.com/assets/libs/spirits-3-1652349289589.png" class="asset locked" transform="matrix(0.25211402773857117,0,0,0.2521140277385712,154.69540405273443,99.89479064941406)"></image><image width="760" height="619" xlink:href="https://lct-designs.s3.us-west-1.amazonaws.com/assets/libs/spirits-4-1652349390018.png" class="asset" transform="matrix(0.05750121921300889,0,0,0.05750121921300889,18.632133483886747,93.07225799560547)"></image><text fill="#ffffff" font-family="Amity Jack" font-size="45" stroke-opacity="1" stroke-width="1" stroke="#9a0720" x="204.3566631420026" y="202.18501841068667" transform="matrix(0.49298822879791265,0,0,0.4929882287979126,-31.32753181457518,21.082120895385742)" svgjs:data="{&quot;leading&quot;:&quot;1.3&quot;}"><tspan dy="0" x="204.3566631420026" svgjs:data="{&quot;newLined&quot;:true}">Player</tspan></text><image width="760" height="619" xlink:href="https://lct-designs.s3.us-west-1.amazonaws.com/assets/libs/spirits-4-1652349390018.png" class="asset" transform="matrix(0.05750121921300889,0,0,0.05750121921300889,36.85023880004886,137.79483032226562)"></image><text fill="#ffffff" font-family="Amity Jack" font-size="45" stroke-opacity="1" stroke-width="1" stroke="#9a0720" x="204.3566631420026" y="202.18501841068667" transform="matrix(0.49298822879791265,0,0,0.4929882287979126,-13.109424591064439,65.80468749999999)" svgjs:data="{&quot;leading&quot;:&quot;1.3&quot;}"><tspan dy="0" x="204.3566631420026" svgjs:data="{&quot;newLined&quot;:true}">Player</tspan></text><image width="760" height="619" xlink:href="https://lct-designs.s3.us-west-1.amazonaws.com/assets/libs/spirits-4-1652349390018.png" class="asset" transform="matrix(0.057501226663589484,0,0,0.057501226663589484,18.218559265136747,186.28242492675784)"></image><text fill="#ffffff" font-family="Amity Jack" font-size="45" stroke-opacity="1" stroke-width="1" stroke="#9a0720" x="204.3566631420026" y="202.18501841068667" transform="matrix(0.49298822879791265,0,0,0.4929882287979126,-31.74110603332518,114.29228973388672)" svgjs:data="{&quot;leading&quot;:&quot;1.3&quot;}"><tspan dy="0" x="204.3566631420026" svgjs:data="{&quot;newLined&quot;:true}">Player</tspan></text><image width="760" height="619" xlink:href="https://lct-designs.s3.us-west-1.amazonaws.com/assets/libs/spirits-4-1652349390018.png" class="asset" transform="matrix(0.057501226663589484,0,0,0.057501226663589484,19.627023696899414,235.06343078613284)"></image><text fill="#ffffff" font-family="Amity Jack" font-size="45" stroke-opacity="1" stroke-width="1" stroke="#9a0720" x="204.3566631420026" y="202.18501841068667" transform="matrix(0.49298822879791265,0,0,0.4929882287979126,-30.3326416015625,163.07330322265625)" svgjs:data="{&quot;leading&quot;:&quot;1.3&quot;}"><tspan dy="0" x="204.3566631420026" svgjs:data="{&quot;newLined&quot;:true}">Player</tspan></text><image width="760" height="619" xlink:href="https://lct-designs.s3.us-west-1.amazonaws.com/assets/libs/spirits-4-1652349390018.png" class="asset" transform="matrix(0.05750123038887978,0,0,0.057501230388879776,348.2557983398438,95.0544204711914)"></image><text fill="#ffffff" font-family="Amity Jack" font-size="45" stroke-opacity="1" stroke-width="1" stroke="#9a0720" x="204.3566631420026" y="202.18501841068667" transform="matrix(0.49298822879791265,0,0,0.4929882287979126,298.2961254119873,23.06428337097168)" svgjs:data="{&quot;leading&quot;:&quot;1.3&quot;}"><tspan dy="0" x="204.3566631420026" svgjs:data="{&quot;newLined&quot;:true}">Player</tspan></text><image width="760" height="619" xlink:href="https://lct-designs.s3.us-west-1.amazonaws.com/assets/libs/spirits-4-1652349390018.png" class="asset" transform="matrix(0.05750123783946038,0,0,0.05750123783946037,310.4778442382813,140.7680816650391)"></image><text fill="#ffffff" font-family="Amity Jack" font-size="45" stroke-opacity="1" stroke-width="1" stroke="#9a0720" x="204.3566631420026" y="202.18501841068667" transform="matrix(0.49298822879791265,0,0,0.4929882287979126,260.51815795898443,68.77793872356416)" svgjs:data="{&quot;leading&quot;:&quot;1.3&quot;}"><tspan dy="0" x="204.3566631420026" svgjs:data="{&quot;newLined&quot;:true}">Player</tspan></text><image width="760" height="619" xlink:href="https://lct-designs.s3.us-west-1.amazonaws.com/assets/libs/spirits-4-1652349390018.png" class="asset" transform="matrix(0.05750124156475068,0,0,0.05750124156475067,352.30209350585943,187.76904302835467)"></image><text fill="#ffffff" font-family="Amity Jack" font-size="45" stroke-opacity="1" stroke-width="1" stroke="#9a0720" x="204.3566631420026" y="202.18501841068667" transform="matrix(0.49298822879791265,0,0,0.4929882287979126,302.5148315429688,118.25660705566409)" svgjs:data="{&quot;leading&quot;:&quot;1.3&quot;}"><tspan dy="0" x="204.3566631420026" svgjs:data="{&quot;newLined&quot;:true}">Player</tspan></text><image width="760" height="619" xlink:href="https://lct-designs.s3.us-west-1.amazonaws.com/assets/libs/spirits-4-1652349390018.png" class="asset" transform="matrix(0.05750124529004097,0,0,0.05750124529004097,360.6481018066407,237.04559326171872)"></image><text fill="#ffffff" font-family="Amity Jack" font-size="45" stroke-opacity="1" stroke-width="1" stroke="#9a0720" x="204.3566631420026" y="202.18501841068667" transform="matrix(0.49298822879791265,0,0,0.4929882287979126,310.68844604492193,165.0554656982422)" svgjs:data="{&quot;leading&quot;:&quot;1.3&quot;}"><tspan dy="0" x="204.3566631420026" svgjs:data="{&quot;newLined&quot;:true}">Player</tspan></text><g class="mask" style="pointer-events: none;"><g><path fill="#BCBEC0" d="M-3642.4-2101.7v4589.1h7813.4v-4589.1H-3642.4z M500.5,67.2v233.3v66.7H0.5v-66.7V67.2V0.5h500V67.2z" transform="matrix(1,0,0,1,0,0)"></path><g transform="matrix(1,0,0,1,0,0)">
	<rect x="0.5" y="300.5" opacity="0.95" fill="#F1F2F2" width="500" height="66.7"></rect>
	<rect x="0.5" y="0.5" opacity="0.95" fill="#F1F2F2" width="500" height="66.7"></rect>
</g></g></g><text fill="#ffffff" font-family="Amity Jack" font-size="45" stroke-opacity="1" stroke-width="1" stroke="#9a0720" x="24.951614741838938" y="200.45062624454897" transform="matrix(0.36294543743133545,0,0,0.36294543743133545,355.96215820312506,218.7115173339844)" svgjs:data="{&quot;leading&quot;:&quot;1.3&quot;}"><tspan dy="0" x="24.951614741838938" svgjs:data="{&quot;newLined&quot;:true}">Team mom:name</tspan></text><text fill="#ffffff" font-family="Amity Jack" font-size="45" stroke-opacity="1" stroke-width="1" stroke="#9a0720" x="24.951614741838938" y="200.45062624454897" transform="matrix(0.36294543743133545,0,0,0.36294543743133545,-0.09759026765823364,218.71147155761722)" svgjs:data="{&quot;leading&quot;:&quot;1.3&quot;}"><tspan dy="0" x="24.951614741838938" svgjs:data="{&quot;newLined&quot;:true}">Coach:Coach's name</tspan></text></svg>