<svg xmlns="http://www.w3.org/2000/svg" version="1.1" xmlns:xlink="http://www.w3.org/1999/xlink" xmlns:svgjs="http://svgjs.dev/svgjs" width="100%" height="100%" viewBox="1 1 499 365.70001220703125" preserveAspectRatio="none" data-info="{&quot;_id&quot;:4,&quot;name&quot;:&quot;POLE POCKET SOCCER BANNERS&quot;,&quot;information&quot;:&quot;- Size: 3’x5’\n- Material: heavy duty vinyl banner\n- Digitally printed on vinyl&quot;,&quot;price&quot;:&quot;95.00&quot;,&quot;sale_price&quot;:&quot;89.99&quot;,&quot;type&quot;:&quot;pole-pocket&quot;,&quot;cover&quot;:{&quot;key&quot;:&quot;assets/models/pole-1628062864266-1631924568908.png&quot;,&quot;url&quot;:&quot;https://lct-designs.s3.us-west-1.amazonaws.com/assets/models/pole-1628062864266-1631924568908.png&quot;},&quot;back&quot;:{&quot;key&quot;:&quot;assets/models/pole-1631924700152.svg&quot;,&quot;url&quot;:&quot;https://lct-designs.s3.us-west-1.amazonaws.com/assets/models/pole-1631924700152.svg&quot;},&quot;mask&quot;:{&quot;key&quot;:&quot;assets/models/pole-mask-1631925211715.svg&quot;,&quot;url&quot;:&quot;https://lct-designs.s3.us-west-1.amazonaws.com/assets/models/pole-mask-1631925211715.svg&quot;},&quot;pos&quot;:&quot;2&quot;,&quot;accessories&quot;:&quot;2,3&quot;}" style="background-color: white;"><g class="model" style="pointer-events: none;"><polygon fill="#FFFFFF" points="0.5,0.5 0.5,67.2 0.5,300.5 0.5,367.2 500.5,367.2 500.5,300.5 500.5,67.2 500.5,0.5 "></polygon></g><image width="760" height="556" xlink:href="https://lct-designs.s3.us-west-1.amazonaws.com/assets/libs/racingcars-1-1652154704265.png" class="asset background locked" transform="matrix(0.6595323960558116,0,0,0.6595323960558116,0,0)"></image><image width="380" height="760" xlink:href="https://lct-designs.s3.us-west-1.amazonaws.com/assets/libs/racingcars-1-1652154704266.png" class="asset" transform="matrix(0.048671592026948936,0,0,0.04867159202694893,19.38608741760254,87.40523529052734)"></image><text fill="#ff1e00" font-family="Janda Manatee Solid" font-size="45" stroke-opacity="1" stroke-width="2" stroke="#000000" x="184.40712469623776" y="199.26336501902202" transform="matrix(0.49667859077453613,0,0,0.49667859077453613,-47.15498733520508,15.875271797180169)" svgjs:data="{&quot;leading&quot;:&quot;1.3&quot;}"><tspan dy="0" x="184.40712469623776" svgjs:data="{&quot;newLined&quot;:true}">Player</tspan></text><image width="380" height="760" xlink:href="https://lct-designs.s3.us-west-1.amazonaws.com/assets/libs/racingcars-1-1652154704266.png" class="asset" transform="matrix(0.048671592026948936,0,0,0.04867159202694893,34.38941955566406,136.10865783691406)"></image><text fill="#ff1e00" font-family="Janda Manatee Solid" font-size="45" stroke-opacity="1" stroke-width="2" stroke="#000000" x="184.40712469623776" y="199.26336501902202" transform="matrix(0.49667859077453613,0,0,0.49667859077453613,-32.15165328979492,64.57870483398438)" svgjs:data="{&quot;leading&quot;:&quot;1.3&quot;}"><tspan dy="0" x="184.40712469623776" svgjs:data="{&quot;newLined&quot;:true}">Player</tspan></text><image width="380" height="760" xlink:href="https://lct-designs.s3.us-west-1.amazonaws.com/assets/libs/racingcars-1-1652154704266.png" class="asset" transform="matrix(0.048671603202819824,0,0,0.048671603202819824,52.331760406494155,184.81210327148438)"></image><text fill="#ff1e00" font-family="Janda Manatee Solid" font-size="45" stroke-opacity="1" stroke-width="2" stroke="#000000" x="184.40712469623776" y="199.26336501902202" transform="matrix(0.49667865037918096,0,0,0.49667865037918096,-14.20931339263916,113.28214263916013)" svgjs:data="{&quot;leading&quot;:&quot;1.3&quot;}"><tspan dy="0" x="184.40712469623776" svgjs:data="{&quot;newLined&quot;:true}">Player</tspan></text><image width="380" height="760" xlink:href="https://lct-designs.s3.us-west-1.amazonaws.com/assets/libs/racingcars-1-1652154704266.png" class="asset" transform="matrix(0.048671603202819824,0,0,0.048671603202819824,68.31305694580077,231.2822418212891)"></image><text fill="#ff1e00" font-family="Janda Manatee Solid" font-size="45" stroke-opacity="1" stroke-width="2" stroke="#000000" x="184.40712469623776" y="199.26336501902202" transform="matrix(0.4966787099838257,0,0,0.4966787099838257,1.771986961364746,159.7522735595703)" svgjs:data="{&quot;leading&quot;:&quot;1.3&quot;}"><tspan dy="0" x="184.40712469623776" svgjs:data="{&quot;newLined&quot;:true}">Player</tspan></text><image width="760" height="655" xlink:href="https://lct-designs.s3.us-west-1.amazonaws.com/assets/libs/racingcars-2-1652154704267.png" class="asset" transform="matrix(0.28678783774375916,0,0,0.2867878377437592,150.27455139160156,92.87903594970706)"></image><text fill="#ff1e00" font-family="Janda Manatee Solid" font-size="45" stroke-opacity="1" stroke-width="2" stroke="#000000" x="76.29090882355035" y="200.6436681009574" transform="matrix(0.3673470616340638,0,0,0.3673470616340637,-18.448894500732415,217.2376861572266)" svgjs:data="{&quot;leading&quot;:&quot;1.3&quot;}"><tspan dy="0" x="76.29090882355035" svgjs:data="{&quot;newLined&quot;:true}">Coach:coach's name</tspan></text><text fill="#ff1e00" font-family="Janda Manatee Solid" font-size="45" stroke-opacity="1" stroke-width="2" stroke="#000000" x="76.29090882355035" y="200.6436681009574" transform="matrix(0.3673470616340638,0,0,0.3673470616340637,346.2884826660157,219.53819274902347)" svgjs:data="{&quot;leading&quot;:&quot;1.3&quot;}"><tspan dy="0" x="76.29090882355035" svgjs:data="{&quot;newLined&quot;:true}">Team Mom:name</tspan></text><image width="380" height="760" xlink:href="https://lct-designs.s3.us-west-1.amazonaws.com/assets/libs/racingcars-1-1652154704266.png" class="asset" transform="matrix(0.048671603202819824,0,0,0.048671603202819824,394.0641174316406,186.19239807128906)"></image><image width="380" height="760" xlink:href="https://lct-designs.s3.us-west-1.amazonaws.com/assets/libs/racingcars-1-1652154704266.png" class="asset" transform="matrix(0.048671592026948936,0,0,0.04867159202694893,365.7194519042969,90.16583251953125)"></image><text fill="#ff1e00" font-family="Janda Manatee Solid" font-size="45" stroke-opacity="1" stroke-width="2" stroke="#000000" x="184.40712469623776" y="199.26336501902202" transform="matrix(0.4966787099838257,0,0,0.4966787099838257,299.1783752441406,18.63586902618409)" svgjs:data="{&quot;leading&quot;:&quot;1.3&quot;}"><tspan dy="0" x="184.40712469623776" svgjs:data="{&quot;newLined&quot;:true}">Player</tspan></text><image width="380" height="760" xlink:href="https://lct-designs.s3.us-west-1.amazonaws.com/assets/libs/racingcars-1-1652154704266.png" class="asset" transform="matrix(0.048671592026948936,0,0,0.04867159202694893,383.9434814453125,137.0288543701172)"></image><text fill="#ff1e00" font-family="Janda Manatee Solid" font-size="45" stroke-opacity="1" stroke-width="2" stroke="#000000" x="184.40712469623776" y="199.26336501902202" transform="matrix(0.4966787099838257,0,0,0.4966787099838257,317.40243530273443,65.95899963378906)" svgjs:data="{&quot;leading&quot;:&quot;1.3&quot;}"><tspan dy="0" x="184.40712469623776" svgjs:data="{&quot;newLined&quot;:true}">Player</tspan></text><text fill="#ff1e00" font-family="Janda Manatee Solid" font-size="45" stroke-opacity="1" stroke-width="2" stroke="#000000" x="184.40712469623776" y="199.26336501902202" transform="matrix(0.4966787099838257,0,0,0.4966787099838257,327.5230407714844,114.66243743896484)" svgjs:data="{&quot;leading&quot;:&quot;1.3&quot;}"><tspan dy="0" x="184.40712469623776" svgjs:data="{&quot;newLined&quot;:true}">Player</tspan></text><g class="mask" style="pointer-events: none;"><g><path fill="#BCBEC0" d="M-3642.4-2101.7v4589.1h7813.4v-4589.1H-3642.4z M500.5,67.2v233.3v66.7H0.5v-66.7V67.2V0.5h500V67.2z" transform="matrix(1,0,0,1,0,0)"></path><g transform="matrix(1,0,0,1,0,0)">
	<rect x="0.5" y="300.5" opacity="0.95" fill="#F1F2F2" width="500" height="66.7"></rect>
	<rect x="0.5" y="0.5" opacity="0.95" fill="#F1F2F2" width="500" height="66.7"></rect>
</g></g></g><image width="380" height="760" xlink:href="https://lct-designs.s3.us-west-1.amazonaws.com/assets/libs/racingcars-1-1652154704266.png" class="asset" transform="matrix(0.048671603202819824,0,0,0.048671603202819824,369.55657958984375,232.66252136230466)"></image><text fill="#ff1e00" font-family="Janda Manatee Solid" font-size="45" stroke-opacity="1" stroke-width="2" stroke="#000000" x="184.40712469623776" y="199.26336501902202" transform="matrix(0.4966787099838257,0,0,0.4966787099838257,303.0155029296875,161.13255310058594)" svgjs:data="{&quot;leading&quot;:&quot;1.3&quot;}"><tspan dy="0" x="184.40712469623776" svgjs:data="{&quot;newLined&quot;:true}">Player</tspan></text></svg>