<svg xmlns="http://www.w3.org/2000/svg" version="1.1" xmlns:xlink="http://www.w3.org/1999/xlink" xmlns:svgjs="http://svgjs.dev/svgjs" width="100%" height="100%" viewBox="1 1 499 365.70001220703125" preserveAspectRatio="none" data-info="{&quot;_id&quot;:4,&quot;name&quot;:&quot;POLE POCKET SOCCER BANNERS&quot;,&quot;information&quot;:&quot;- Size: 3’x5’\n- Material: heavy duty vinyl banner\n- Digitally printed on vinyl&quot;,&quot;price&quot;:&quot;95.00&quot;,&quot;sale_price&quot;:&quot;89.99&quot;,&quot;type&quot;:&quot;pole-pocket&quot;,&quot;cover&quot;:{&quot;key&quot;:&quot;assets/models/pole-1628062864266-1631924568908.png&quot;,&quot;url&quot;:&quot;https://lct-designs.s3.us-west-1.amazonaws.com/assets/models/pole-1628062864266-1631924568908.png&quot;},&quot;back&quot;:{&quot;key&quot;:&quot;assets/models/pole-1631924700152.svg&quot;,&quot;url&quot;:&quot;https://lct-designs.s3.us-west-1.amazonaws.com/assets/models/pole-1631924700152.svg&quot;},&quot;mask&quot;:{&quot;key&quot;:&quot;assets/models/pole-mask-1631925211715.svg&quot;,&quot;url&quot;:&quot;https://lct-designs.s3.us-west-1.amazonaws.com/assets/models/pole-mask-1631925211715.svg&quot;},&quot;pos&quot;:&quot;2&quot;,&quot;accessories&quot;:&quot;2,3&quot;}" style="background-color: white;"><g class="model" style="pointer-events: none;"><polygon fill="#FFFFFF" points="0.5,0.5 0.5,67.2 0.5,300.5 0.5,367.2 500.5,367.2 500.5,300.5 500.5,67.2 500.5,0.5 "></polygon></g><image width="760" height="556" xlink:href="https://lct-designs.s3.us-west-1.amazonaws.com/assets/libs/tremors-soccer-4-1653875278862.png" class="asset background locked" transform="matrix(0.6595323960558116,0,0,0.6595323960558116,0,0)"></image><text fill="#000000" font-family="Impact" font-size="45" x="50.877864861049005" y="201.76359325371294" transform="matrix(0.221296027302742,0,0,0.221296027302742,1.1572480201721191,42.27294158935547)" svgjs:data="{&quot;leading&quot;:&quot;1.3&quot;}"><tspan dy="0" x="50.877864861049005" svgjs:data="{&quot;newLined&quot;:true}">COACH: COACH'S NAME</tspan></text><text fill="#000000" font-family="Impact" font-size="45" x="50.877864861049005" y="201.76359325371294" transform="matrix(0.221296027302742,0,0,0.221296027302742,358.8917541503907,42.27293395996094)" svgjs:data="{&quot;leading&quot;:&quot;1.3&quot;}"><tspan dy="0" x="50.877864861049005" svgjs:data="{&quot;newLined&quot;:true}">TEAM MOM: TEAM MOM'S NAME</tspan></text><text fill="#000000" font-family="Impact" font-size="45" x="191.6757536099403" y="201.76361352143002" transform="matrix(0.32830286026000977,0,0,0.32830286026000977,-24.935504913330078,148.7821502685547)" svgjs:data="{&quot;leading&quot;:&quot;1.3&quot;}"><tspan dy="0" x="191.6757536099403" svgjs:data="{&quot;newLined&quot;:true}">player</tspan></text><text fill="#000000" font-family="Impact" font-size="45" x="191.6757536099403" y="201.76361352143002" transform="matrix(0.32830286026000977,0,0,0.32830286026000977,25.74946212768554,148.78216552734375)" svgjs:data="{&quot;leading&quot;:&quot;1.3&quot;}"><tspan dy="0" x="191.6757536099403" svgjs:data="{&quot;newLined&quot;:true}">player</tspan></text><text fill="#000000" font-family="Impact" font-size="45" x="191.6757536099403" y="201.76361352143002" transform="matrix(0.32830286026000977,0,0,0.32830286026000977,76.43442916870117,148.78216552734375)" svgjs:data="{&quot;leading&quot;:&quot;1.3&quot;}"><tspan dy="0" x="191.6757536099403" svgjs:data="{&quot;newLined&quot;:true}">player</tspan></text><text fill="#000000" font-family="Impact" font-size="45" x="191.6757536099403" y="201.76361352143002" transform="matrix(0.32830286026000977,0,0,0.32830286026000977,129.26071166992188,148.78216552734375)" svgjs:data="{&quot;leading&quot;:&quot;1.3&quot;}"><tspan dy="0" x="191.6757536099403" svgjs:data="{&quot;newLined&quot;:true}">player</tspan></text><text fill="#000000" font-family="Impact" font-size="45" x="191.6757536099403" y="201.76361352143002" transform="matrix(0.32830286026000977,0,0,0.32830286026000977,178.87501525878906,148.78216552734375)" svgjs:data="{&quot;leading&quot;:&quot;1.3&quot;}"><tspan dy="0" x="191.6757536099403" svgjs:data="{&quot;newLined&quot;:true}">player</tspan></text><image width="760" height="760" xlink:href="https://lct-designs.s3.us-west-1.amazonaws.com/assets/libs/tremors-soccer-2-1653875294330.png" class="asset" transform="matrix(0.03628687933087348,0,0,0.036286879330873496,43.81028366088866,172.96434020996094)"></image><image width="760" height="760" xlink:href="https://lct-designs.s3.us-west-1.amazonaws.com/assets/libs/tremors-soccer-2-1653875294330.png" class="asset" transform="matrix(0.03628689423203468,0,0,0.03628689423203468,94.49524688720703,172.96434020996094)"></image><image width="760" height="760" xlink:href="https://lct-designs.s3.us-west-1.amazonaws.com/assets/libs/tremors-soccer-2-1653875294330.png" class="asset" transform="matrix(0.03628690168261528,0,0,0.03628690168261528,145.1802062988281,172.96434020996094)"></image><image width="760" height="760" xlink:href="https://lct-designs.s3.us-west-1.amazonaws.com/assets/libs/tremors-soccer-2-1653875294330.png" class="asset" transform="matrix(0.03628690913319588,0,0,0.036286909133195884,198.00648498535156,172.96434020996094)"></image><image width="760" height="760" xlink:href="https://lct-designs.s3.us-west-1.amazonaws.com/assets/libs/tremors-soccer-2-1653875294330.png" class="asset" transform="matrix(0.03628692030906677,0,0,0.03628692030906677,247.62078857421875,172.96434020996094)"></image><text fill="#000000" font-family="Impact" font-size="45" x="191.6757536099403" y="201.76361352143002" transform="matrix(0.32830286026000977,0,0,0.32830286026000977,-24.935504913330078,216.23358154296875)" svgjs:data="{&quot;leading&quot;:&quot;1.3&quot;}"><tspan dy="0" x="191.6757536099403" svgjs:data="{&quot;newLined&quot;:true}">player</tspan></text><text fill="#000000" font-family="Impact" font-size="45" x="191.6757536099403" y="201.76361352143002" transform="matrix(0.32830286026000977,0,0,0.32830286026000977,25.74946212768554,216.23355102539062)" svgjs:data="{&quot;leading&quot;:&quot;1.3&quot;}"><tspan dy="0" x="191.6757536099403" svgjs:data="{&quot;newLined&quot;:true}">player</tspan></text><text fill="#000000" font-family="Impact" font-size="45" x="191.6757536099403" y="201.76361352143002" transform="matrix(0.32830286026000977,0,0,0.32830286026000977,76.43442916870117,216.23353576660156)" svgjs:data="{&quot;leading&quot;:&quot;1.3&quot;}"><tspan dy="0" x="191.6757536099403" svgjs:data="{&quot;newLined&quot;:true}">player</tspan></text><text fill="#000000" font-family="Impact" font-size="45" x="191.6757536099403" y="201.76361352143002" transform="matrix(0.32830286026000977,0,0,0.32830286026000977,129.26071166992188,216.23355102539062)" svgjs:data="{&quot;leading&quot;:&quot;1.3&quot;}"><tspan dy="0" x="191.6757536099403" svgjs:data="{&quot;newLined&quot;:true}">player</tspan></text><text fill="#000000" font-family="Impact" font-size="45" x="191.6757536099403" y="201.76361352143002" transform="matrix(0.32830286026000977,0,0,0.32830286026000977,178.87501525878906,216.23355102539062)" svgjs:data="{&quot;leading&quot;:&quot;1.3&quot;}"><tspan dy="0" x="191.6757536099403" svgjs:data="{&quot;newLined&quot;:true}">player</tspan></text><image width="760" height="760" xlink:href="https://lct-designs.s3.us-west-1.amazonaws.com/assets/libs/tremors-soccer-2-1653875294330.png" class="asset" transform="matrix(0.03628689795732498,0,0,0.03628689795732498,43.810279846191406,240.41574096679688)"></image><image width="760" height="760" xlink:href="https://lct-designs.s3.us-west-1.amazonaws.com/assets/libs/tremors-soccer-2-1653875294330.png" class="asset" transform="matrix(0.03628690913319588,0,0,0.036286909133195884,94.49524688720703,240.41575622558594)"></image><image width="760" height="760" xlink:href="https://lct-designs.s3.us-west-1.amazonaws.com/assets/libs/tremors-soccer-2-1653875294330.png" class="asset" transform="matrix(0.03628692030906677,0,0,0.03628692030906677,145.1802062988281,240.4157257080078)"></image><image width="760" height="760" xlink:href="https://lct-designs.s3.us-west-1.amazonaws.com/assets/libs/tremors-soccer-2-1653875294330.png" class="asset" transform="matrix(0.03628692775964736,0,0,0.03628692775964737,198.00648498535156,240.41574096679688)"></image><image width="760" height="760" xlink:href="https://lct-designs.s3.us-west-1.amazonaws.com/assets/libs/tremors-soccer-2-1653875294330.png" class="asset" transform="matrix(0.036286935210227966,0,0,0.036286935210227966,247.62078857421875,240.4157257080078)"></image><image width="760" height="187" xlink:href="https://lct-designs.s3.us-west-1.amazonaws.com/assets/libs/angel-1632996655954.png" class="asset" transform="matrix(0.3319585919380188,0,0,0.3319585919380188,61.885231018066406,96.63671112060548)"></image><image width="760" height="606" xlink:href="https://lct-designs.s3.us-west-1.amazonaws.com/assets/libs/angel-1632996637185.png" class="asset" transform="matrix(0.2614337205886841,0,0,0.2614337205886841,290.47052001953125,126.35106658935545)"></image><g class="mask" style="pointer-events: none;"><g><path fill="#BCBEC0" d="M-3642.4-2101.7v4589.1h7813.4v-4589.1H-3642.4z M500.5,67.2v233.3v66.7H0.5v-66.7V67.2V0.5h500V67.2z" transform="matrix(1,0,0,1,0,0)"></path><g transform="matrix(1,0,0,1,0,0)">
	<rect x="0.5" y="300.5" opacity="0.95" fill="#F1F2F2" width="500" height="66.7"></rect>
	<rect x="0.5" y="0.5" opacity="0.95" fill="#F1F2F2" width="500" height="66.7"></rect>
</g></g></g></svg>