<svg xmlns="http://www.w3.org/2000/svg" version="1.1" xmlns:xlink="http://www.w3.org/1999/xlink" xmlns:svgjs="http://svgjs.dev/svgjs" width="100%" height="100%" viewBox="1 1 499 365.70001220703125" preserveAspectRatio="none" data-info="{&quot;_id&quot;:4,&quot;name&quot;:&quot;POLE POCKET SOCCER BANNERS&quot;,&quot;information&quot;:&quot;- Size: 3’x5’\n- Material: heavy duty vinyl banner\n- Digitally printed on vinyl&quot;,&quot;price&quot;:&quot;95.00&quot;,&quot;sale_price&quot;:&quot;89.99&quot;,&quot;type&quot;:&quot;pole-pocket&quot;,&quot;cover&quot;:{&quot;key&quot;:&quot;assets/models/pole-1628062864266-1631924568908.png&quot;,&quot;url&quot;:&quot;https://lct-designs.s3.us-west-1.amazonaws.com/assets/models/pole-1628062864266-1631924568908.png&quot;},&quot;back&quot;:{&quot;key&quot;:&quot;assets/models/pole-1631924700152.svg&quot;,&quot;url&quot;:&quot;https://lct-designs.s3.us-west-1.amazonaws.com/assets/models/pole-1631924700152.svg&quot;},&quot;mask&quot;:{&quot;key&quot;:&quot;assets/models/pole-mask-1631925211715.svg&quot;,&quot;url&quot;:&quot;https://lct-designs.s3.us-west-1.amazonaws.com/assets/models/pole-mask-1631925211715.svg&quot;},&quot;pos&quot;:&quot;2&quot;,&quot;accessories&quot;:&quot;2,3&quot;}" style="background-color: white;"><g class="model" style="pointer-events: none;"><polygon fill="#FFFFFF" points="0.5,0.5 0.5,67.2 0.5,300.5 0.5,367.2 500.5,367.2 500.5,300.5 500.5,67.2 500.5,0.5 "></polygon></g><image width="760" height="556" xlink:href="https://lct-designs.s3.us-west-1.amazonaws.com/assets/libs/dinosaurs-2-1633428001470.png" class="asset background locked" transform="matrix(0.6595323960558116,0,0,0.6595323960558116,0,0)"></image><text fill="#b6202a" font-family="Impact" font-size="50" x="166.04423511167727" y="202.53708149662467" stroke-opacity="1" stroke-width="1" stroke="#ffffff" transform="matrix(0.22689037024974826,0,0,0.22689037024974823,-21.440551757812507,37.52919006347658)" svgjs:data="{&quot;leading&quot;:&quot;1.3&quot;}"><tspan dy="0" x="166.04423511167727" svgjs:data="{&quot;newLined&quot;:true}">Coach: coach's name </tspan><tspan dy="66.3" x="166.04423511167727" svgjs:data="{&quot;newLined&quot;:true}"></tspan><tspan dy="66.3" x="166.04423511167727" svgjs:data="{&quot;newLined&quot;:true}"></tspan></text><text fill="#b6202a" font-family="Impact" font-size="50" x="166.04423511167727" y="202.53708149662467" stroke-opacity="1" stroke-width="1" stroke="#ffffff" transform="matrix(0.22689037024974826,0,0,0.22689037024974823,307.02679443359375,37.52918243408203)" svgjs:data="{&quot;leading&quot;:&quot;1.3&quot;}"><tspan dy="0" x="166.04423511167727" svgjs:data="{&quot;newLined&quot;:true}">Team mom: team mom's name</tspan><tspan dy="63.7" x="166.04423511167727" svgjs:data="{&quot;newLined&quot;:true}"></tspan></text><image width="760" height="438" xlink:href="https://lct-designs.s3.us-west-1.amazonaws.com/assets/libs/dinosaurs-2-1633428132441.png" class="asset" transform="matrix(0.32449293136596685,0,0,0.3244929313659668,125.25168609619143,102.53538507223128)"></image><text fill="#b6202a" font-family="Impact" font-size="45" x="166.04423511167727" y="202.53708149662467" stroke-opacity="1" stroke-width="1" stroke="#ffffff" transform="matrix(0.30795577168464666,0,0,0.3079557716846466,75.87699127197266,230.23616021871567)" svgjs:data="{&quot;leading&quot;:&quot;1.3&quot;}"><tspan dy="0" x="166.04423511167727" svgjs:data="{&quot;newLined&quot;:true}">PLAYER</tspan></text><image width="760" height="572" xlink:href="https://lct-designs.s3.us-west-1.amazonaws.com/assets/libs/dinosaurs-2-1633428161425.png" class="asset" transform="matrix(0.05042577534914017,0,0,0.05042577534914017,127.18452453613284,98.59448236227037)"></image><text fill="#b6202a" font-family="Impact" font-size="45" x="166.04423511167727" y="202.53708149662467" stroke-opacity="1" stroke-width="1" stroke="#ffffff" transform="matrix(0.30795577168464666,0,0,0.3079557716846466,280.3309020996094,228.61120599508286)" svgjs:data="{&quot;leading&quot;:&quot;1.3&quot;}"><tspan dy="0" x="166.04423511167727" svgjs:data="{&quot;newLined&quot;:true}">PLAYER</tspan></text><image width="760" height="572" xlink:href="https://lct-designs.s3.us-west-1.amazonaws.com/assets/libs/dinosaurs-2-1633428161425.png" class="asset" transform="matrix(0.05042585730552673,0,0,0.05042585730552674,331.638427734375,247.54945367574697)"></image><text fill="#b6202a" font-family="Impact" font-size="45" x="166.04423511167727" y="202.53708149662467" stroke-opacity="1" stroke-width="1" stroke="#ffffff" transform="matrix(0.30795577168464666,0,0,0.3079557716846466,280.3309020996094,78.0312804579735)" svgjs:data="{&quot;leading&quot;:&quot;1.3&quot;}"><tspan dy="0" x="166.04423511167727" svgjs:data="{&quot;newLined&quot;:true}">PLAYER</tspan></text><image width="760" height="572" xlink:href="https://lct-designs.s3.us-west-1.amazonaws.com/assets/libs/dinosaurs-2-1633428161425.png" class="asset" transform="matrix(0.05042579025030137,0,0,0.05042579025030137,331.6384582519531,96.969520509243)"></image><text fill="#b6202a" font-family="Impact" font-size="45" x="166.04423511167727" y="202.53708149662467" stroke-opacity="1" stroke-width="1" stroke="#ffffff" transform="matrix(0.30795577168464666,0,0,0.3079557716846466,75.8769760131836,79.65624231100081)" svgjs:data="{&quot;leading&quot;:&quot;1.3&quot;}"><tspan dy="0" x="166.04423511167727" svgjs:data="{&quot;newLined&quot;:true}">PLAYER</tspan></text><image width="760" height="572" xlink:href="https://lct-designs.s3.us-west-1.amazonaws.com/assets/libs/dinosaurs-2-1633428161425.png" class="asset" transform="matrix(0.05042583122849465,0,0,0.050425831228494644,127.18450927734375,249.17440789937973)"></image><text fill="#b6202a" font-family="Impact" font-size="45" x="166.04423511167727" y="202.53708149662467" stroke-opacity="1" stroke-width="1" stroke="#ffffff" transform="matrix(0.30795577168464666,0,0,0.3079557716846466,17.649147033691406,109.98891443014146)" svgjs:data="{&quot;leading&quot;:&quot;1.3&quot;}"><tspan dy="0" x="166.04423511167727" svgjs:data="{&quot;newLined&quot;:true}">PLAYER</tspan></text><image width="760" height="572" xlink:href="https://lct-designs.s3.us-west-1.amazonaws.com/assets/libs/dinosaurs-2-1633428161425.png" class="asset" transform="matrix(0.050425752997398376,0,0,0.050425752997398376,68.95671081542969,128.92715448141098)"></image><text fill="#b6202a" font-family="Impact" font-size="45" x="166.04423511167727" y="202.53708149662467" stroke-opacity="1" stroke-width="1" stroke="#ffffff" transform="matrix(0.30795577168464666,0,0,0.3079557716846466,340.1837158203125,110.53055566549303)" svgjs:data="{&quot;leading&quot;:&quot;1.3&quot;}"><tspan dy="0" x="166.04423511167727" svgjs:data="{&quot;newLined&quot;:true}">PLAYER</tspan></text><image width="760" height="572" xlink:href="https://lct-designs.s3.us-west-1.amazonaws.com/assets/libs/dinosaurs-2-1633428161425.png" class="asset" transform="matrix(0.05042576044797898,0,0,0.05042576044797898,391.4913024902344,129.46879571676254)"></image><text fill="#b6202a" font-family="Impact" font-size="45" x="166.04423511167727" y="202.53708149662467" stroke-opacity="1" stroke-width="1" stroke="#ffffff" transform="matrix(0.30795577168464666,0,0,0.3079557716846466,340.1837158203125,203.1534423232079)" svgjs:data="{&quot;leading&quot;:&quot;1.3&quot;}"><tspan dy="0" x="166.04423511167727" svgjs:data="{&quot;newLined&quot;:true}">PLAYER</tspan></text><image width="760" height="572" xlink:href="https://lct-designs.s3.us-west-1.amazonaws.com/assets/libs/dinosaurs-2-1633428161425.png" class="asset" transform="matrix(0.050425797700881965,0,0,0.05042579770088196,391.49127197265625,222.09169000387192)"></image><text fill="#b6202a" font-family="Impact" font-size="45" x="166.04423511167727" y="202.53708149662467" stroke-opacity="1" stroke-width="1" stroke="#ffffff" transform="matrix(0.30795577168464666,0,0,0.3079557716846466,17.649147033691406,202.6118010878563)" svgjs:data="{&quot;leading&quot;:&quot;1.3&quot;}"><tspan dy="0" x="166.04423511167727" svgjs:data="{&quot;newLined&quot;:true}">PLAYER</tspan></text><image width="760" height="572" xlink:href="https://lct-designs.s3.us-west-1.amazonaws.com/assets/libs/dinosaurs-2-1633428161425.png" class="asset" transform="matrix(0.050425782799720764,0,0,0.050425782799720764,68.9566879272461,221.55004876852036)"></image><text fill="#b6202a" font-family="Impact" font-size="45" x="166.04423511167727" y="202.53708149662467" stroke-opacity="1" stroke-width="1" stroke="#ffffff" transform="matrix(0.30795577168464666,0,0,0.3079557716846466,-31.09974670410157,158.73779290914536)" svgjs:data="{&quot;leading&quot;:&quot;1.3&quot;}"><tspan dy="0" x="166.04423511167727" svgjs:data="{&quot;newLined&quot;:true}">PLAYER</tspan></text><image width="760" height="572" xlink:href="https://lct-designs.s3.us-west-1.amazonaws.com/assets/libs/dinosaurs-2-1633428161425.png" class="asset" transform="matrix(0.05042577534914017,0,0,0.05042577534914017,20.15325164794922,177.67604058980942)"></image><text fill="#b6202a" font-family="Impact" font-size="45" x="166.04423511167727" y="202.53708149662467" stroke-opacity="1" stroke-width="1" stroke="#ffffff" transform="matrix(0.30795577168464666,0,0,0.3079557716846466,389.4742736816406,157.1128386855126)" svgjs:data="{&quot;leading&quot;:&quot;1.3&quot;}"><tspan dy="0" x="166.04423511167727" svgjs:data="{&quot;newLined&quot;:true}">PLAYER</tspan></text><image width="760" height="572" xlink:href="https://lct-designs.s3.us-west-1.amazonaws.com/assets/libs/dinosaurs-2-1633428161425.png" class="asset" transform="matrix(0.050425797700881965,0,0,0.05042579770088196,440.7272644042969,176.0510863661766)"></image><g class="mask" style="pointer-events: none;"><g><path fill="#BCBEC0" d="M-3642.4-2101.7v4589.1h7813.4v-4589.1H-3642.4z M500.5,67.2v233.3v66.7H0.5v-66.7V67.2V0.5h500V67.2z" transform="matrix(1,0,0,1,0,0)"></path><g transform="matrix(1,0,0,1,0,0)">
	<rect x="0.5" y="300.5" opacity="0.95" fill="#F1F2F2" width="500" height="66.7"></rect>
	<rect x="0.5" y="0.5" opacity="0.95" fill="#F1F2F2" width="500" height="66.7"></rect>
</g></g></g></svg>