<svg xmlns="http://www.w3.org/2000/svg" version="1.1" xmlns:xlink="http://www.w3.org/1999/xlink" xmlns:svgjs="http://svgjs.dev/svgjs" width="100%" height="100%" viewBox="1 1 499 365.70001220703125" preserveAspectRatio="none" data-info="{&quot;_id&quot;:4,&quot;name&quot;:&quot;POLE POCKET SOCCER BANNERS&quot;,&quot;information&quot;:&quot;- Size: 3’x5’\n- Material: heavy duty vinyl banner\n- Digitally printed on vinyl&quot;,&quot;price&quot;:&quot;95.00&quot;,&quot;sale_price&quot;:&quot;89.99&quot;,&quot;type&quot;:&quot;pole-pocket&quot;,&quot;cover&quot;:{&quot;key&quot;:&quot;assets/models/pole-1628062864266-1631924568908.png&quot;,&quot;url&quot;:&quot;https://lct-designs.s3.us-west-1.amazonaws.com/assets/models/pole-1628062864266-1631924568908.png&quot;},&quot;back&quot;:{&quot;key&quot;:&quot;assets/models/pole-1631924700152.svg&quot;,&quot;url&quot;:&quot;https://lct-designs.s3.us-west-1.amazonaws.com/assets/models/pole-1631924700152.svg&quot;},&quot;mask&quot;:{&quot;key&quot;:&quot;assets/models/pole-mask-1631925211715.svg&quot;,&quot;url&quot;:&quot;https://lct-designs.s3.us-west-1.amazonaws.com/assets/models/pole-mask-1631925211715.svg&quot;},&quot;pos&quot;:&quot;2&quot;,&quot;accessories&quot;:&quot;2,3&quot;}" style="background-color: white;"><g class="model" style="pointer-events: none;"><polygon fill="#FFFFFF" points="0.5,0.5 0.5,67.2 0.5,300.5 0.5,367.2 500.5,367.2 500.5,300.5 500.5,67.2 500.5,0.5 "></polygon></g><image width="760" height="556" xlink:href="https://lct-designs.s3.us-west-1.amazonaws.com/assets/libs/celtics-1633150863011.png" class="asset background locked" transform="matrix(0.6595323960558116,0,0,0.6595323960558116,0,0)"></image><text fill="#00902f" font-family="Casual" font-size="70" x="196.88127233350318" y="200.48091056834267" stroke-opacity="1" stroke-width="0" stroke="#ffffff" transform="matrix(0.14186760783195496,0,0,0.13936662673950195,5.264979362487793,110.0990447998047)" svgjs:data="{&quot;leading&quot;:&quot;1.3&quot;}"><tspan dy="0" x="196.88127233350318" svgjs:data="{&quot;newLined&quot;:true}">PLAYER</tspan><tspan dy="91" x="196.88127233350318" svgjs:data="{&quot;newLined&quot;:true}"></tspan></text><image width="760" height="703" xlink:href="https://lct-designs.s3.us-west-1.amazonaws.com/assets/libs/celtics-1633150968744.png" class="asset" transform="matrix(0.058915328234434135,0,0,0.058915328234434135,33.08458709716798,83.77274322509767)"></image><image width="760" height="703" xlink:href="https://lct-designs.s3.us-west-1.amazonaws.com/assets/libs/celtics-1633150968744.png" class="asset" transform="matrix(0.05891536921262742,0,0,0.05891536921262741,33.0845832824707,167.05917358398438)"></image><image width="760" height="703" xlink:href="https://lct-designs.s3.us-west-1.amazonaws.com/assets/libs/celtics-1633150968744.png" class="asset" transform="matrix(0.058915380388498306,0,0,0.058915380388498306,165.91709899902344,167.05918884277344)"></image><image width="760" height="703" xlink:href="https://lct-designs.s3.us-west-1.amazonaws.com/assets/libs/celtics-1633150968744.png" class="asset" transform="matrix(0.05891539528965951,0,0,0.0589153952896595,301.7455444335938,167.05918884277344)"></image><text fill="#00902f" font-family="Casual" font-size="70" x="196.88127233350318" y="200.48091056834267" stroke-opacity="1" stroke-width="0" stroke="#ffffff" transform="matrix(0.14186760783195496,0,0,0.13936662673950195,5.264980316162109,193.385498046875)" svgjs:data="{&quot;leading&quot;:&quot;1.3&quot;}"><tspan dy="0" x="196.88127233350318" svgjs:data="{&quot;newLined&quot;:true}">PLAYER</tspan><tspan dy="91" x="196.88127233350318" svgjs:data="{&quot;newLined&quot;:true}"></tspan></text><text fill="#00902f" font-family="Casual" font-size="70" x="196.88127233350318" y="200.48091056834267" stroke-opacity="1" stroke-width="0" stroke="#ffffff" transform="matrix(0.14186760783195496,0,0,0.13936662673950195,138.09750366210938,193.385498046875)" svgjs:data="{&quot;leading&quot;:&quot;1.3&quot;}"><tspan dy="0" x="196.88127233350318" svgjs:data="{&quot;newLined&quot;:true}">PLAYER</tspan><tspan dy="91" x="196.88127233350318" svgjs:data="{&quot;newLined&quot;:true}"></tspan></text><text fill="#00902f" font-family="Casual" font-size="70" x="196.88127233350318" y="200.48091056834267" stroke-opacity="1" stroke-width="0" stroke="#ffffff" transform="matrix(0.14186760783195496,0,0,0.13936662673950195,273.92596435546875,193.385498046875)" svgjs:data="{&quot;leading&quot;:&quot;1.3&quot;}"><tspan dy="0" x="196.88127233350318" svgjs:data="{&quot;newLined&quot;:true}">PLAYER</tspan><tspan dy="91" x="196.88127233350318" svgjs:data="{&quot;newLined&quot;:true}"></tspan></text><text fill="#00902f" font-family="Casual" font-size="70" x="196.88127233350318" y="200.48091056834267" stroke-opacity="1" stroke-width="0" stroke="#ffffff" transform="matrix(0.14186760783195496,0,0,0.13936665654182434,72.7454643249512,149.62332153320312)" svgjs:data="{&quot;leading&quot;:&quot;1.3&quot;}"><tspan dy="0" x="196.88127233350318" svgjs:data="{&quot;newLined&quot;:true}">PLAYER</tspan><tspan dy="91" x="196.88127233350318" svgjs:data="{&quot;newLined&quot;:true}"></tspan></text><image width="760" height="703" xlink:href="https://lct-designs.s3.us-west-1.amazonaws.com/assets/libs/celtics-1633150968744.png" class="asset" transform="matrix(0.058915354311466224,0,0,0.058915354311466224,100.565055847168,123.29701232910158)"></image><text fill="#00902f" font-family="Casual" font-size="30" x="196.88127233350318" y="200.48091056834267" stroke-opacity="1" stroke-width="2" stroke="#ffffff" transform="matrix(0.341618150472641,0,0,0.341618150472641,274.12249767780304,223.6732635498047)" svgjs:data="{&quot;leading&quot;:&quot;1.3&quot;}"><tspan dy="0" x="196.88127233350318" svgjs:data="{&quot;newLined&quot;:true}">COACH: COACH'S NAME</tspan></text><text fill="#00902f" font-family="Casual" font-size="30" x="196.88127233350318" y="200.48091056834267" stroke-opacity="1" stroke-width="2" stroke="#ffffff" transform="matrix(0.341618150472641,0,0,0.341618150472641,-55.37706363201143,223.6732788085938)" svgjs:data="{&quot;leading&quot;:&quot;1.3&quot;}"><tspan dy="0" x="196.88127233350318" svgjs:data="{&quot;newLined&quot;:true}">TEAM MOM: TEAM MOM'S NAME</tspan><tspan dy="39" x="196.88127233350318" svgjs:data="{&quot;newLined&quot;:true}"></tspan></text><image width="653" height="760" xlink:href="https://lct-designs.s3.us-west-1.amazonaws.com/assets/libs/celtics-1633150941673.png" class="asset" transform="matrix(0.12921372056007388,0,0,0.12921372056007385,400.95397949218756,106.38674926757814)"></image><image width="760" height="233" xlink:href="https://lct-designs.s3.us-west-1.amazonaws.com/assets/libs/celtics-1633150955471.png" class="asset" transform="matrix(0.2730109393596649,0,0,0.2730109393596649,168.13107299804688,79.94114685058592)"></image><image width="760" height="703" xlink:href="https://lct-designs.s3.us-west-1.amazonaws.com/assets/libs/celtics-1633150968744.png" class="asset" transform="matrix(0.058915380388498306,0,0,0.058915380388498306,103.60206985473631,215.59300231933594)"></image><image width="760" height="703" xlink:href="https://lct-designs.s3.us-west-1.amazonaws.com/assets/libs/celtics-1633150968744.png" class="asset" transform="matrix(0.05891538783907891,0,0,0.0589153878390789,236.43458557128906,215.59301757812506)"></image><image width="760" height="703" xlink:href="https://lct-designs.s3.us-west-1.amazonaws.com/assets/libs/celtics-1633150968744.png" class="asset" transform="matrix(0.058915402740240104,0,0,0.0589154027402401,372.2630310058594,215.59301757812506)"></image><text fill="#00902f" font-family="Casual" font-size="70" x="196.88127233350318" y="200.48091056834267" stroke-opacity="1" stroke-width="2" stroke="#ffffff" transform="matrix(0.14186760783195496,0,0,0.13936662673950195,75.78246307373045,241.91932678222656)" svgjs:data="{&quot;leading&quot;:&quot;1.3&quot;}"><tspan dy="0" x="196.88127233350318" svgjs:data="{&quot;newLined&quot;:true}">PLAYER</tspan><tspan dy="91" x="196.88127233350318" svgjs:data="{&quot;newLined&quot;:true}"></tspan></text><text fill="#00902f" font-family="Casual" font-size="70" x="196.88127233350318" y="200.48091056834267" stroke-opacity="1" stroke-width="2" stroke="#ffffff" transform="matrix(0.14186760783195496,0,0,0.13936662673950195,208.614990234375,241.91932678222656)" svgjs:data="{&quot;leading&quot;:&quot;1.3&quot;}"><tspan dy="0" x="196.88127233350318" svgjs:data="{&quot;newLined&quot;:true}">PLAYER</tspan><tspan dy="91" x="196.88127233350318" svgjs:data="{&quot;newLined&quot;:true}"></tspan></text><text fill="#00902f" font-family="Casual" font-size="70" x="196.88127233350318" y="200.48091056834267" stroke-opacity="1" stroke-width="2" stroke="#ffffff" transform="matrix(0.14186760783195496,0,0,0.13936662673950195,344.4434509277344,241.91932678222656)" svgjs:data="{&quot;leading&quot;:&quot;1.3&quot;}"><tspan dy="0" x="196.88127233350318" svgjs:data="{&quot;newLined&quot;:true}">PLAYER</tspan><tspan dy="91" x="196.88127233350318" svgjs:data="{&quot;newLined&quot;:true}"></tspan></text><g class="mask" style="pointer-events: none;"><g><path fill="#BCBEC0" d="M-3642.4-2101.7v4589.1h7813.4v-4589.1H-3642.4z M500.5,67.2v233.3v66.7H0.5v-66.7V67.2V0.5h500V67.2z" transform="matrix(1,0,0,1,0,0)"></path><g transform="matrix(1,0,0,1,0,0)">
	<rect x="0.5" y="300.5" opacity="0.95" fill="#F1F2F2" width="500" height="66.7"></rect>
	<rect x="0.5" y="0.5" opacity="0.95" fill="#F1F2F2" width="500" height="66.7"></rect>
</g></g></g></svg>