<svg xmlns="http://www.w3.org/2000/svg" version="1.1" xmlns:xlink="http://www.w3.org/1999/xlink" xmlns:svgjs="http://svgjs.dev/svgjs" width="100%" height="100%" viewBox="1 1 499 365.70001220703125" preserveAspectRatio="none" data-info="{&quot;_id&quot;:4,&quot;name&quot;:&quot;POLE POCKET SOCCER BANNERS&quot;,&quot;information&quot;:&quot;- Size: 3’x5’\n- Material: heavy duty vinyl banner\n- Digitally printed on vinyl&quot;,&quot;price&quot;:&quot;95.00&quot;,&quot;sale_price&quot;:&quot;89.99&quot;,&quot;type&quot;:&quot;pole-pocket&quot;,&quot;cover&quot;:{&quot;key&quot;:&quot;assets/models/pole-1628062864266-1631924568908.png&quot;,&quot;url&quot;:&quot;https://lct-designs.s3.us-west-1.amazonaws.com/assets/models/pole-1628062864266-1631924568908.png&quot;},&quot;back&quot;:{&quot;key&quot;:&quot;assets/models/pole-1631924700152.svg&quot;,&quot;url&quot;:&quot;https://lct-designs.s3.us-west-1.amazonaws.com/assets/models/pole-1631924700152.svg&quot;},&quot;mask&quot;:{&quot;key&quot;:&quot;assets/models/pole-mask-1631925211715.svg&quot;,&quot;url&quot;:&quot;https://lct-designs.s3.us-west-1.amazonaws.com/assets/models/pole-mask-1631925211715.svg&quot;},&quot;pos&quot;:&quot;2&quot;,&quot;accessories&quot;:&quot;2,3&quot;}" style="background-color: white;"><g class="model" style="pointer-events: none;"><polygon fill="#FFFFFF" points="0.5,0.5 0.5,67.2 0.5,300.5 0.5,367.2 500.5,367.2 500.5,300.5 500.5,67.2 500.5,0.5 "></polygon></g><image width="760" height="556" xlink:href="https://lct-designs.s3.us-west-1.amazonaws.com/assets/libs/terror-1-1652435481772.png" class="asset background locked" transform="matrix(0.6595323960558116,0,0,0.6595323960558116,0,0)"></image><image width="760" height="354" xlink:href="https://lct-designs.s3.us-west-1.amazonaws.com/assets/libs/terror-3-1652435633993.png" class="asset locked" transform="matrix(0.4110105633735657,0,0,0.4110105633735657,86.55075836181638,96.5666732788086)"></image><g class="" transform="matrix(1,0,0,1,0,0)"></g><image width="760" height="484" xlink:href="https://lct-designs.s3.us-west-1.amazonaws.com/assets/libs/asset-1-1654565982416.png" class="asset" transform="matrix(-0.05543006584048271,0,0,0.0583827830851078,169.6333465576172,128.50286102294922)"></image><text fill="#ffffff" font-family="UTM Rockwell" font-size="45" stroke-opacity="1" stroke-width="2" stroke="#000000" x="196.88393072804308" y="200.41361831492046" transform="matrix(0.32523471117019653,0,0,0.32523471117019653,54.63339614868164,107.08180236816406)" svgjs:data="{&quot;leading&quot;:&quot;1.3&quot;}"><tspan dy="0" x="196.88393072804308" svgjs:data="{&quot;newLined&quot;:true}">Player</tspan></text><text fill="#ffffff" font-family="UTM Rockwell" font-size="45" stroke-opacity="1" stroke-width="2" stroke="#000000" x="196.88393072804308" y="200.41361831492046" transform="matrix(0.32523471117019653,0,0,0.32523471117019653,-54.77703094482422,48.18896484374999)" svgjs:data="{&quot;leading&quot;:&quot;1.3&quot;}"><tspan dy="0" x="196.88393072804308" svgjs:data="{&quot;newLined&quot;:true}">Player</tspan></text><image width="760" height="484" xlink:href="https://lct-designs.s3.us-west-1.amazonaws.com/assets/libs/asset-1-1654565982416.png" class="asset" transform="matrix(-0.05543006584048271,0,0,0.05838287249207497,57.70673751831055,70.99032592773438)"></image><text fill="#ffffff" font-family="UTM Rockwell" font-size="45" stroke-opacity="1" stroke-width="2" stroke="#000000" x="196.88393072804308" y="200.41361831492046" transform="matrix(0.32523471117019653,0,0,0.32523471117019653,-36.95532989501953,100.64039611816406)" svgjs:data="{&quot;leading&quot;:&quot;1.3&quot;}"><tspan dy="0" x="196.88393072804308" svgjs:data="{&quot;newLined&quot;:true}">Player</tspan></text><image width="760" height="484" xlink:href="https://lct-designs.s3.us-west-1.amazonaws.com/assets/libs/asset-1-1654565982416.png" class="asset" transform="matrix(-0.05543006584048271,0,0,0.05838284641504288,75.52843856811523,123.44174194335935)"></image><text fill="#ffffff" font-family="UTM Rockwell" font-size="45" stroke-opacity="1" stroke-width="2" stroke="#000000" x="196.88393072804308" y="200.41361831492046" transform="matrix(0.32523471117019653,0,0,0.32523471117019653,-53.64115142822266,153.09185791015625)" svgjs:data="{&quot;leading&quot;:&quot;1.3&quot;}"><tspan dy="0" x="196.88393072804308" svgjs:data="{&quot;newLined&quot;:true}">Player</tspan></text><image width="760" height="484" xlink:href="https://lct-designs.s3.us-west-1.amazonaws.com/assets/libs/asset-1-1654565982416.png" class="asset" transform="matrix(-0.05543006584048271,0,0,0.05838291719555855,58.84261703491211,175.89320373535156)"></image><text fill="#ffffff" font-family="UTM Rockwell" font-size="45" stroke-opacity="1" stroke-width="2" stroke="#000000" x="196.88393072804308" y="200.41361831492046" transform="matrix(0.32523471117019653,0,0,0.32523471117019653,20.312805175781264,48.18896484374999)" svgjs:data="{&quot;leading&quot;:&quot;1.3&quot;}"><tspan dy="0" x="196.88393072804308" svgjs:data="{&quot;newLined&quot;:true}">Player</tspan></text><image width="760" height="484" xlink:href="https://lct-designs.s3.us-west-1.amazonaws.com/assets/libs/asset-1-1654565982416.png" class="asset" transform="matrix(-0.05543006584048271,0,0,0.05838289111852646,132.79656982421875,70.99031066894531)"></image><image width="760" height="484" xlink:href="https://lct-designs.s3.us-west-1.amazonaws.com/assets/libs/asset-1-1654565982416.png" class="asset" transform="matrix(0.05838290601968765,0,0,0.05838290601968765,443.148681640625,132.1836700439453)"></image><image width="760" height="484" xlink:href="https://lct-designs.s3.us-west-1.amazonaws.com/assets/libs/asset-1-1654565982416.png" class="asset" transform="matrix(-0.05543006584048271,0,0,0.058382812887430184,89.91377258300781,228.34465026855466)"></image><text fill="#ffffff" font-family="UTM Rockwell" font-size="45" stroke-opacity="1" stroke-width="2" stroke="#000000" x="196.88393072804308" y="200.41361831492046" transform="matrix(0.32523471117019653,0,0,0.32523471117019653,-25.086177825927734,206.92359924316403)" svgjs:data="{&quot;leading&quot;:&quot;1.3&quot;}"><tspan dy="0" x="196.88393072804308" svgjs:data="{&quot;newLined&quot;:true}">Player</tspan></text><image width="760" height="484" xlink:href="https://lct-designs.s3.us-west-1.amazonaws.com/assets/libs/asset-1-1654565982416.png" class="asset" transform="matrix(0.05838289856910705,0,0,0.05838289856910706,439.9280090332031,184.17509460449216)"></image><text fill="#ffffff" font-family="UTM Rockwell" font-size="45" stroke-opacity="1" stroke-width="2" stroke="#000000" x="196.88393072804308" y="200.41361831492046" transform="matrix(0.32523471117019653,0,0,0.32523471117019653,369.0976867675782,158.61311340332028)" svgjs:data="{&quot;leading&quot;:&quot;1.3&quot;}"><tspan dy="0" x="196.88393072804308" svgjs:data="{&quot;newLined&quot;:true}">Player</tspan></text><text fill="#ffffff" font-family="UTM Rockwell" font-size="45" stroke-opacity="1" stroke-width="2" stroke="#000000" x="196.88393072804308" y="200.41361831492046" transform="matrix(0.32523471117019653,0,0,0.32523471117019653,371.85824584960943,110.30250549316403)" svgjs:data="{&quot;leading&quot;:&quot;1.3&quot;}"><tspan dy="0" x="196.88393072804308" svgjs:data="{&quot;newLined&quot;:true}">Player</tspan></text><text fill="#ffffff" font-family="UTM Rockwell" font-size="45" stroke-opacity="1" stroke-width="2" stroke="#000000" x="196.88393072804308" y="200.41361831492046" transform="matrix(0.32523471117019653,0,0,0.32523471117019653,283.18106079101557,105.70149230957031)" svgjs:data="{&quot;leading&quot;:&quot;1.3&quot;}"><tspan dy="0" x="196.88393072804308" svgjs:data="{&quot;newLined&quot;:true}">Player</tspan></text><image width="760" height="484" xlink:href="https://lct-designs.s3.us-west-1.amazonaws.com/assets/libs/asset-1-1654565982416.png" class="asset" transform="matrix(0.058382969349622726,0,0,0.058382969349622726,354.47149658203125,127.58267211914062)"></image><image width="760" height="484" xlink:href="https://lct-designs.s3.us-west-1.amazonaws.com/assets/libs/asset-1-1654565982416.png" class="asset" transform="matrix(0.05838294327259064,0,0,0.05838294327259064,304.4140930175781,75.13124084472653)"></image><text fill="#ffffff" font-family="UTM Rockwell" font-size="45" stroke-opacity="1" stroke-width="2" stroke="#000000" x="196.88393072804308" y="200.41361831492046" transform="matrix(0.32523471117019653,0,0,0.32523471117019653,233.1236572265625,53.25006103515624)" svgjs:data="{&quot;leading&quot;:&quot;1.3&quot;}"><tspan dy="0" x="196.88393072804308" svgjs:data="{&quot;newLined&quot;:true}">Player</tspan></text><image width="760" height="484" xlink:href="https://lct-designs.s3.us-west-1.amazonaws.com/assets/libs/asset-1-1654565982416.png" class="asset" transform="matrix(0.05838298797607422,0,0,0.05838298797607422,426.4628601074219,78.35194396972656)"></image><text fill="#ffffff" font-family="UTM Rockwell" font-size="45" stroke-opacity="1" stroke-width="2" stroke="#000000" x="196.88393072804308" y="200.41361831492046" transform="matrix(0.32523471117019653,0,0,0.32523471117019653,355.17242431640625,56.47076416015626)" svgjs:data="{&quot;leading&quot;:&quot;1.3&quot;}"><tspan dy="0" x="196.88393072804308" svgjs:data="{&quot;newLined&quot;:true}">Player</tspan></text><image width="760" height="484" xlink:href="https://lct-designs.s3.us-west-1.amazonaws.com/assets/libs/asset-1-1654565982416.png" class="asset" transform="matrix(0.05838299542665482,0,0,0.058382995426654816,405.8804931640625,228.80477917194364)"></image><text fill="#ffffff" font-family="UTM Rockwell" font-size="45" stroke-opacity="1" stroke-width="2" stroke="#000000" x="196.88393072804308" y="200.41361831492046" transform="matrix(0.32523471117019653,0,0,0.32523471117019653,334.5900573730469,207.3836976289749)" svgjs:data="{&quot;leading&quot;:&quot;1.3&quot;}"><tspan dy="0" x="196.88393072804308" svgjs:data="{&quot;newLined&quot;:true}">Player</tspan></text><g class="mask" style="pointer-events: none;"><g><path fill="#BCBEC0" d="M-3642.4-2101.7v4589.1h7813.4v-4589.1H-3642.4z M500.5,67.2v233.3v66.7H0.5v-66.7V67.2V0.5h500V67.2z" transform="matrix(1,0,0,1,0,0)"></path><g transform="matrix(1,0,0,1,0,0)">
	<rect x="0.5" y="300.5" opacity="0.95" fill="#F1F2F2" width="500" height="66.7"></rect>
	<rect x="0.5" y="0.5" opacity="0.95" fill="#F1F2F2" width="500" height="66.7"></rect>
</g></g></g><text fill="#ffffff" font-family="UTM Rockwell" font-size="45" stroke-opacity="1" stroke-width="2" stroke="#000000" x="3.5159650298008955" y="202.25401901072124" class="" transform="matrix(0.2870122492313385,0,0,0.2870122492313385,7.567951202392578,237.94755554199222)" svgjs:data="{&quot;leading&quot;:&quot;1.3&quot;}"><tspan dy="0" x="3.5159650298008955" svgjs:data="{&quot;newLined&quot;:true}">TEAM MOM: NAME</tspan></text><text fill="#ffffff" font-family="UTM Rockwell" font-size="45" stroke-opacity="1" stroke-width="2" stroke="#000000" x="-48.83123345652723" y="202.25401901072124" transform="matrix(0.262632817029953,0,0,0.262632817029953,349.30267333984375,242.18823242187497)" svgjs:data="{&quot;leading&quot;:&quot;1.3&quot;}"><tspan dy="0" x="-48.83123345652723" svgjs:data="{&quot;newLined&quot;:true}">COACH:COACH'S NAME</tspan></text></svg>