<svg xmlns="http://www.w3.org/2000/svg" version="1.1" xmlns:xlink="http://www.w3.org/1999/xlink" xmlns:svgjs="http://svgjs.dev/svgjs" width="100%" height="100%" viewBox="1 1 499 365.70001220703125" preserveAspectRatio="none" data-info="{&quot;_id&quot;:4,&quot;name&quot;:&quot;POLE POCKET SOCCER BANNERS&quot;,&quot;information&quot;:&quot;- Size: 3’x5’\n- Material: heavy duty vinyl banner\n- Digitally printed on vinyl&quot;,&quot;price&quot;:&quot;95.00&quot;,&quot;sale_price&quot;:&quot;89.99&quot;,&quot;type&quot;:&quot;pole-pocket&quot;,&quot;cover&quot;:{&quot;key&quot;:&quot;assets/models/pole-1628062864266-1631924568908.png&quot;,&quot;url&quot;:&quot;https://lct-designs.s3.us-west-1.amazonaws.com/assets/models/pole-1628062864266-1631924568908.png&quot;},&quot;back&quot;:{&quot;key&quot;:&quot;assets/models/pole-1631924700152.svg&quot;,&quot;url&quot;:&quot;https://lct-designs.s3.us-west-1.amazonaws.com/assets/models/pole-1631924700152.svg&quot;},&quot;mask&quot;:{&quot;key&quot;:&quot;assets/models/pole-mask-1631925211715.svg&quot;,&quot;url&quot;:&quot;https://lct-designs.s3.us-west-1.amazonaws.com/assets/models/pole-mask-1631925211715.svg&quot;},&quot;pos&quot;:&quot;2&quot;,&quot;accessories&quot;:&quot;2,3&quot;}" style="background-color: white;"><g class="model" style="pointer-events: none;"><polygon fill="#FFFFFF" points="0.5,0.5 0.5,67.2 0.5,300.5 0.5,367.2 500.5,367.2 500.5,300.5 500.5,67.2 500.5,0.5 "></polygon></g><image width="760" height="558" xlink:href="https://lct-designs.s3.us-west-1.amazonaws.com/assets/libs/butterflies-rain-1632996545810.png" class="asset background locked" transform="matrix(0.6571684806577621,0,0,0.6571684806577621,0,0)"></image><text fill="#ec008c" font-family="Foo" font-size="42" x="196.88127233350318" y="200.48091056834267" stroke-opacity="1" stroke-width="2" stroke="#ffd400" transform="matrix(0.29177808761596685,0,0,0.2917780876159668,306.8386840820313,39.720642089843736)" svgjs:data="{&quot;leading&quot;:&quot;1.3&quot;}"><tspan dy="0" x="196.88127233350318" svgjs:data="{&quot;newLined&quot;:true}">COACH: COACH'S NAME</tspan></text><text fill="#ec008c" font-family="Foo" font-size="42" x="196.88127233350318" y="200.48091056834267" stroke-opacity="1" stroke-width="2" stroke="#d8d231" transform="matrix(0.29177808761596685,0,0,0.2917780876159668,263.73495483398443,26.538602828979492)" svgjs:data="{&quot;leading&quot;:&quot;1.3&quot;}"><tspan dy="0" x="196.88127233350318" svgjs:data="{&quot;newLined&quot;:true}">TEAM MOM: TEAM MOM'S NAME</tspan><tspan dy="54.6" x="196.88127233350318" svgjs:data="{&quot;newLined&quot;:true}"></tspan></text><image width="760" height="603" xlink:href="https://lct-designs.s3.us-west-1.amazonaws.com/assets/libs/butterflies-rain-1632996637186.png" class="asset" transform="matrix(0.19716002047061923,0,0,0.1971600204706192,330.1501159667969,171.24136352539062)"></image><image width="760" height="217" xlink:href="https://lct-designs.s3.us-west-1.amazonaws.com/assets/libs/butterflies-1646815857853.png" class="asset" transform="matrix(0.4408204555511475,0,0,0.44082045555114746,52.46979904174805,67.81175231933595)"></image><image width="760" height="619" xlink:href="https://lct-designs.s3.us-west-1.amazonaws.com/assets/libs/butterflies-rain-5-1632996758193.png" class="asset" transform="matrix(0.04882847868169949,0,0,0.04882847868169948,39.66994220784227,173.44790002957598)"></image><text fill="#ec008c" font-family="Foo" font-size="60" x="196.88127233350318" y="200.48091056834267" stroke-opacity="1" stroke-width="3" stroke="#f2d41d" transform="matrix(0.2759035509409565,0,0,0.27103717024582785,-25.49187023101741,164.68623253611804)" svgjs:data="{&quot;leading&quot;:&quot;1.3&quot;}"><tspan dy="0" x="196.88127233350318" svgjs:data="{&quot;newLined&quot;:true}">PLAYER</tspan><tspan dy="78" x="196.88127233350318" svgjs:data="{&quot;newLined&quot;:true}"></tspan></text><image width="760" height="750" xlink:href="https://lct-designs.s3.us-west-1.amazonaws.com/assets/libs/butterflies-rain-4-1632996758192.png" class="asset" transform="matrix(0.040634623108180674,0,0,0.040634623108180674,42.78359757646854,239.13585113796495)"></image><text fill="#ec008c" font-family="Foo" font-size="60" x="196.88127233350318" y="200.48091056834267" stroke-opacity="1" stroke-width="3" stroke="#f2d41d" transform="matrix(0.2759035509409565,0,0,0.27103717024582785,-25.49187023101741,230.11699287219653)" svgjs:data="{&quot;leading&quot;:&quot;1.3&quot;}"><tspan dy="0" x="196.88127233350318" svgjs:data="{&quot;newLined&quot;:true}">PLAYER</tspan><tspan dy="78" x="196.88127233350318" svgjs:data="{&quot;newLined&quot;:true}"></tspan></text><image width="760" height="699" xlink:href="https://lct-designs.s3.us-west-1.amazonaws.com/assets/libs/butterflies-rain-3-1632996758192.png" class="asset" transform="matrix(0.04290915093714087,0,0,0.04290915093714087,117.72761280955548,175.10190174393392)"></image><text fill="#ec008c" font-family="Foo" font-size="60" x="196.88127233350318" y="200.48091056834267" stroke-opacity="1" stroke-width="3" stroke="#f2d41d" transform="matrix(0.2759035509409565,0,0,0.27103717024582785,50.31646227003944,166.22455411001192)" svgjs:data="{&quot;leading&quot;:&quot;1.3&quot;}"><tspan dy="0" x="196.88127233350318" svgjs:data="{&quot;newLined&quot;:true}">PLAYER</tspan><tspan dy="78" x="196.88127233350318" svgjs:data="{&quot;newLined&quot;:true}"></tspan></text><image width="760" height="760" xlink:href="https://lct-designs.s3.us-west-1.amazonaws.com/assets/libs/butterflies-rain-1-1632996758191.png" class="asset" transform="matrix(0.04059953417870932,0,0,0.04059953417870932,118.6052631262837,239.52166661594407)"></image><text fill="#ec008c" font-family="Foo" font-size="60" x="196.88127233350318" y="200.48091056834267" stroke-opacity="1" stroke-width="3" stroke="#f2d41d" transform="matrix(0.2759035509409565,0,0,0.27103717024582785,50.31644394534351,230.69268151951928)" svgjs:data="{&quot;leading&quot;:&quot;1.3&quot;}"><tspan dy="0" x="196.88127233350318" svgjs:data="{&quot;newLined&quot;:true}">PLAYER</tspan><tspan dy="78" x="196.88127233350318" svgjs:data="{&quot;newLined&quot;:true}"></tspan></text><image width="760" height="619" xlink:href="https://lct-designs.s3.us-west-1.amazonaws.com/assets/libs/butterflies-rain-5-1632996758193.png" class="asset" transform="matrix(0.04882847868169949,0,0,0.04882847868169948,185.70883364462225,174.5992186851945)"></image><text fill="#ec008c" font-family="Foo" font-size="60" x="196.88127233350318" y="200.48091056834267" stroke-opacity="1" stroke-width="3" stroke="#f2d41d" transform="matrix(0.2759035509409565,0,0,0.27103717024582785,120.54701387588419,165.83755119173657)" svgjs:data="{&quot;leading&quot;:&quot;1.3&quot;}"><tspan dy="0" x="196.88127233350318" svgjs:data="{&quot;newLined&quot;:true}">PLAYER</tspan><tspan dy="78" x="196.88127233350318" svgjs:data="{&quot;newLined&quot;:true}"></tspan></text><image width="760" height="750" xlink:href="https://lct-designs.s3.us-west-1.amazonaws.com/assets/libs/butterflies-rain-4-1632996758192.png" class="asset" transform="matrix(0.040634623108180674,0,0,0.040634623108180674,188.822478018431,240.28716979358342)"></image><text fill="#ec008c" font-family="Foo" font-size="60" x="196.88127233350318" y="200.48091056834267" stroke-opacity="1" stroke-width="3" stroke="#f2d41d" transform="matrix(0.2759035509409565,0,0,0.27103717024582785,120.54701387588419,231.26831152781511)" svgjs:data="{&quot;leading&quot;:&quot;1.3&quot;}"><tspan dy="0" x="196.88127233350318" svgjs:data="{&quot;newLined&quot;:true}">PLAYER</tspan><tspan dy="78" x="196.88127233350318" svgjs:data="{&quot;newLined&quot;:true}"></tspan></text><image width="760" height="699" xlink:href="https://lct-designs.s3.us-west-1.amazonaws.com/assets/libs/butterflies-rain-3-1632996758192.png" class="asset" transform="matrix(0.04290915093714087,0,0,0.04290915093714087,263.7665115762138,176.25322039955245)"></image><text fill="#ec008c" font-family="Foo" font-size="60" x="196.88127233350318" y="200.48091056834267" stroke-opacity="1" stroke-width="3" stroke="#f2d41d" transform="matrix(0.2759035509409565,0,0,0.27103717024582785,196.35535004188023,167.37587276563045)" svgjs:data="{&quot;leading&quot;:&quot;1.3&quot;}"><tspan dy="0" x="196.88127233350318" svgjs:data="{&quot;newLined&quot;:true}">PLAYER</tspan><tspan dy="78" x="196.88127233350318" svgjs:data="{&quot;newLined&quot;:true}"></tspan></text><image width="760" height="760" xlink:href="https://lct-designs.s3.us-west-1.amazonaws.com/assets/libs/butterflies-rain-1-1632996758191.png" class="asset" transform="matrix(0.04059953417870932,0,0,0.04059953417870932,264.6441618929421,240.67298527156254)"></image><text fill="#ec008c" font-family="Foo" font-size="60" x="196.88127233350318" y="200.48091056834267" stroke-opacity="1" stroke-width="3" stroke="#f2d41d" transform="matrix(0.2759035509409565,0,0,0.27103717024582785,196.3553207223668,231.84400017513786)" svgjs:data="{&quot;leading&quot;:&quot;1.3&quot;}"><tspan dy="0" x="196.88127233350318" svgjs:data="{&quot;newLined&quot;:true}">PLAYER</tspan><tspan dy="78" x="196.88127233350318" svgjs:data="{&quot;newLined&quot;:true}"></tspan></text><g class="mask" style="pointer-events: none;"><g><path fill="#BCBEC0" d="M-3642.4-2101.7v4589.1h7813.4v-4589.1H-3642.4z M500.5,67.2v233.3v66.7H0.5v-66.7V67.2V0.5h500V67.2z" transform="matrix(1,0,0,1,0,0)"></path><g transform="matrix(1,0,0,1,0,0)">
	<rect x="0.5" y="300.5" opacity="0.95" fill="#F1F2F2" width="500" height="66.7"></rect>
	<rect x="0.5" y="0.5" opacity="0.95" fill="#F1F2F2" width="500" height="66.7"></rect>
</g></g></g></svg>