<svg xmlns="http://www.w3.org/2000/svg" version="1.1" xmlns:xlink="http://www.w3.org/1999/xlink" xmlns:svgjs="http://svgjs.dev/svgjs" width="100%" height="100%" viewBox="1 1 499 365.70001220703125" preserveAspectRatio="none" data-info="{&quot;_id&quot;:4,&quot;name&quot;:&quot;POLE POCKET SOCCER BANNERS&quot;,&quot;information&quot;:&quot;- Size: 3’x5’\n- Material: heavy duty vinyl banner\n- Digitally printed on vinyl&quot;,&quot;price&quot;:&quot;95.00&quot;,&quot;sale_price&quot;:&quot;89.99&quot;,&quot;type&quot;:&quot;pole-pocket&quot;,&quot;cover&quot;:{&quot;key&quot;:&quot;assets/models/pole-1628062864266-1631924568908.png&quot;,&quot;url&quot;:&quot;https://lct-designs.s3.us-west-1.amazonaws.com/assets/models/pole-1628062864266-1631924568908.png&quot;},&quot;back&quot;:{&quot;key&quot;:&quot;assets/models/pole-1631924700152.svg&quot;,&quot;url&quot;:&quot;https://lct-designs.s3.us-west-1.amazonaws.com/assets/models/pole-1631924700152.svg&quot;},&quot;mask&quot;:{&quot;key&quot;:&quot;assets/models/pole-mask-1631925211715.svg&quot;,&quot;url&quot;:&quot;https://lct-designs.s3.us-west-1.amazonaws.com/assets/models/pole-mask-1631925211715.svg&quot;},&quot;pos&quot;:&quot;2&quot;,&quot;accessories&quot;:&quot;2,3&quot;}" style="background-color: white;"><g class="model" style="pointer-events: none;"><polygon fill="#FFFFFF" points="0.5,0.5 0.5,67.2 0.5,300.5 0.5,367.2 500.5,367.2 500.5,300.5 500.5,67.2 500.5,0.5 "></polygon></g><image width="760" height="556" xlink:href="https://lct-designs.s3.us-west-1.amazonaws.com/assets/libs/twister-4-1653386108034.png" class="asset background locked" transform="matrix(0.6595323960558116,0,0,0.6595323960558116,0,0)"></image><g class="g-selected"></g><image width="760" height="726" xlink:href="https://lct-designs.s3.us-west-1.amazonaws.com/assets/libs/twister-2-1653386230021.png" class="asset" transform="matrix(0.050403147935867317,0,0,0.05398542061448097,22.11787223815918,97.37234497070312)"></image><text fill="#000000" font-family="Foo" font-size="45" stroke-opacity="1" stroke-width="0" stroke="#000000" x="181.36434978679515" y="197.97292315006655" transform="matrix(0.40778100490570074,0,0,0.43676304817199707,-11.780927658081055,36.64873504638673)" svgjs:data="{&quot;leading&quot;:&quot;1.3&quot;}"><tspan dy="0" x="181.36434978679515" svgjs:data="{&quot;newLined&quot;:true}">Player</tspan></text><image width="760" height="726" xlink:href="https://lct-designs.s3.us-west-1.amazonaws.com/assets/libs/twister-2-1653386230021.png" class="asset" transform="matrix(0.050403151661157615,0,0,0.05398542061448097,139.34906005859375,97.37235260009768)"></image><text fill="#000000" font-family="Foo" font-size="45" stroke-opacity="1" stroke-width="0" stroke="#000000" x="181.36434978679515" y="197.97292315006655" transform="matrix(0.4077810645103455,0,0,0.43676307797431946,105.45024871826175,36.64873123168945)" svgjs:data="{&quot;leading&quot;:&quot;1.3&quot;}"><tspan dy="0" x="181.36434978679515" svgjs:data="{&quot;newLined&quot;:true}">Player</tspan></text><text fill="#000000" font-family="Foo" font-size="45" stroke-opacity="1" stroke-width="0" stroke="#000000" x="181.36434978679515" y="197.97292315006655" transform="matrix(0.40778118371963507,0,0,0.4367633163928986,222.35466003417974,36.64867401123047)" svgjs:data="{&quot;leading&quot;:&quot;1.3&quot;}"><tspan dy="0" x="181.36434978679515" svgjs:data="{&quot;newLined&quot;:true}">Player</tspan></text><image width="760" height="726" xlink:href="https://lct-designs.s3.us-west-1.amazonaws.com/assets/libs/twister-2-1653386230021.png" class="asset" transform="matrix(0.05040318146348,0,0,0.05398543924093247,256.2534484863282,97.37234497070312)"></image><image width="760" height="726" xlink:href="https://lct-designs.s3.us-west-1.amazonaws.com/assets/libs/twister-2-1653386230021.png" class="asset" transform="matrix(0.050403151661157615,0,0,0.05398542433977128,20.514728546142578,194.0387878417969)"></image><text fill="#000000" font-family="Foo" font-size="45" stroke-opacity="1" stroke-width="0" stroke="#000000" x="181.36434978679515" y="197.97292315006655" transform="matrix(0.4077810943126679,0,0,0.4367631375789643,-13.384073257446289,135.68186187744143)" svgjs:data="{&quot;leading&quot;:&quot;1.3&quot;}"><tspan dy="0" x="181.36434978679515" svgjs:data="{&quot;newLined&quot;:true}">Player</tspan></text><image width="760" height="726" xlink:href="https://lct-designs.s3.us-west-1.amazonaws.com/assets/libs/twister-2-1653386230021.png" class="asset" transform="matrix(0.05040315538644791,0,0,0.05398543551564217,250.51889801025396,197.57965087890622)"></image><text fill="#000000" font-family="Foo" font-size="45" stroke-opacity="1" stroke-width="0" stroke="#000000" x="181.36434978679515" y="197.97292315006655" transform="matrix(0.4077811539173127,0,0,0.43676319718360906,216.62009239196783,139.22271728515628)" svgjs:data="{&quot;leading&quot;:&quot;1.3&quot;}"><tspan dy="0" x="181.36434978679515" svgjs:data="{&quot;newLined&quot;:true}">Player</tspan></text><text fill="#000000" font-family="Foo" font-size="45" stroke-opacity="1" stroke-width="0" stroke="#000000" x="181.36434978679515" y="197.97292315006655" transform="matrix(0.4077810943126679,0,0,0.4367631375789643,146.8760986328125,89.09466552734375)" svgjs:data="{&quot;leading&quot;:&quot;1.3&quot;}"><tspan dy="0" x="181.36434978679515" svgjs:data="{&quot;newLined&quot;:true}">Player</tspan></text><image width="760" height="726" xlink:href="https://lct-designs.s3.us-west-1.amazonaws.com/assets/libs/twister-2-1653386230021.png" class="asset" transform="matrix(0.050403151661157615,0,0,0.05398542061448097,64.03927230834964,149.8182830810547)"></image><text fill="#000000" font-family="Foo" font-size="45" stroke-opacity="1" stroke-width="0" stroke="#000000" x="181.36434978679515" y="197.97292315006655" transform="matrix(0.4077810645103455,0,0,0.43676307797431946,30.140468597412138,89.09466552734375)" svgjs:data="{&quot;leading&quot;:&quot;1.3&quot;}"><tspan dy="0" x="181.36434978679515" svgjs:data="{&quot;newLined&quot;:true}">Player</tspan></text><image width="760" height="726" xlink:href="https://lct-designs.s3.us-west-1.amazonaws.com/assets/libs/twister-2-1653386230021.png" class="asset" transform="matrix(0.050403151661157615,0,0,0.05398542433977128,180.77491760253906,149.81829833984375)"></image><image width="760" height="726" xlink:href="https://lct-designs.s3.us-west-1.amazonaws.com/assets/libs/twister-2-1653386230021.png" class="asset" transform="matrix(0.05040315538644791,0,0,0.05398543551564217,137.74591064453125,201.1146392822266)"></image><text fill="#000000" font-family="Foo" font-size="45" stroke-opacity="1" stroke-width="0" stroke="#000000" x="181.36434978679515" y="197.97292315006655" transform="matrix(0.4077811539173127,0,0,0.43676319718360906,103.84710693359378,142.7577056884766)" svgjs:data="{&quot;leading&quot;:&quot;1.3&quot;}"><tspan dy="0" x="181.36434978679515" svgjs:data="{&quot;newLined&quot;:true}">Player</tspan></text><image width="760" height="387" xlink:href="https://lct-designs.s3.us-west-1.amazonaws.com/assets/libs/asset-1-1654668249781.png" class="asset locked" transform="matrix(0.4081525802612305,0,0,0.40815258026123047,177.11560058593756,123.6971664428711)"></image><text fill="#000000" font-family="Foo" font-size="45" stroke-opacity="1" stroke-width="0" stroke="#000000" x="90.15778392986155" y="197.97292315006655" transform="matrix(0.42251917719841003,0,0,0.4225191771984101,-25.73546981811522,207.52143859863284)" svgjs:data="{&quot;leading&quot;:&quot;1.3&quot;}"><tspan dy="0" x="90.15778392986155" svgjs:data="{&quot;newLined&quot;:true}">Team Mom: Name</tspan></text><text fill="#000000" font-family="Foo" font-size="45" stroke-opacity="1" stroke-width="0" stroke="#000000" x="90.15778392986155" y="197.97292315006655" transform="matrix(0.42251917719841003,0,0,0.4225191771984101,283.07550048828125,9.305201530456557)" svgjs:data="{&quot;leading&quot;:&quot;1.3&quot;}"><tspan dy="0" x="90.15778392986155" svgjs:data="{&quot;newLined&quot;:true}">Coach :coach's name</tspan></text><g class="mask" style="pointer-events: none;"><g><path fill="#BCBEC0" d="M-3642.4-2101.7v4589.1h7813.4v-4589.1H-3642.4z M500.5,67.2v233.3v66.7H0.5v-66.7V67.2V0.5h500V67.2z" transform="matrix(1,0,0,1,0,0)"></path><g transform="matrix(1,0,0,1,0,0)">
	<rect x="0.5" y="300.5" opacity="0.95" fill="#F1F2F2" width="500" height="66.7"></rect>
	<rect x="0.5" y="0.5" opacity="0.95" fill="#F1F2F2" width="500" height="66.7"></rect>
</g></g></g></svg>