<svg xmlns="http://www.w3.org/2000/svg" version="1.1" xmlns:xlink="http://www.w3.org/1999/xlink" xmlns:svgjs="http://svgjs.dev/svgjs" width="100%" height="100%" viewBox="1 1 499 365.70001220703125" preserveAspectRatio="none" data-info="{&quot;_id&quot;:4,&quot;name&quot;:&quot;POLE POCKET SOCCER BANNERS&quot;,&quot;information&quot;:&quot;- Size: 3’x5’\n- Material: heavy duty vinyl banner\n- Digitally printed on vinyl&quot;,&quot;price&quot;:&quot;95.00&quot;,&quot;sale_price&quot;:&quot;89.99&quot;,&quot;type&quot;:&quot;pole-pocket&quot;,&quot;cover&quot;:{&quot;key&quot;:&quot;assets/models/pole-1628062864266-1631924568908.png&quot;,&quot;url&quot;:&quot;https://lct-designs.s3.us-west-1.amazonaws.com/assets/models/pole-1628062864266-1631924568908.png&quot;},&quot;back&quot;:{&quot;key&quot;:&quot;assets/models/pole-1631924700152.svg&quot;,&quot;url&quot;:&quot;https://lct-designs.s3.us-west-1.amazonaws.com/assets/models/pole-1631924700152.svg&quot;},&quot;mask&quot;:{&quot;key&quot;:&quot;assets/models/pole-mask-1631925211715.svg&quot;,&quot;url&quot;:&quot;https://lct-designs.s3.us-west-1.amazonaws.com/assets/models/pole-mask-1631925211715.svg&quot;},&quot;pos&quot;:&quot;2&quot;,&quot;accessories&quot;:&quot;2,3&quot;}" style="background-color: white;"><g class="model" style="pointer-events: none;"><polygon fill="#FFFFFF" points="0.5,0.5 0.5,67.2 0.5,300.5 0.5,367.2 500.5,367.2 500.5,300.5 500.5,67.2 500.5,0.5 "></polygon></g><image width="760" height="556" xlink:href="https://lct-designs.s3.us-west-1.amazonaws.com/assets/libs/happy-trolls-2-1633515464327.png" class="asset background locked" transform="matrix(0.6595323960558116,0,0,0.6595323960558116,0,0)"></image><text fill="#f6931d" font-family="Chunky Funks" font-size="50" stroke-opacity="1" stroke-width="3" stroke="#000000" x="-98.72634249947717" y="199.47500657859518" transform="matrix(0.22077579796314242,0,0,0.22077579796314242,347.4863586425782,248.2898406386376)" svgjs:data="{&quot;leading&quot;:&quot;1.3&quot;}"><tspan dy="0" x="-98.72634249947717" svgjs:data="{&quot;newLined&quot;:true}">TEAM MOM: TEAM MOM'S NAME</tspan></text><text fill="#f6931d" font-family="Chunky Funks" font-size="50" stroke-opacity="1" stroke-width="3" stroke="#000000" x="-98.72634249947717" y="199.47500657859518" transform="matrix(0.22077578306198123,0,0,0.22077578306198123,31.312337875366214,248.28985589742666)" svgjs:data="{&quot;leading&quot;:&quot;1.3&quot;}"><tspan dy="0" x="-98.72634249947717" svgjs:data="{&quot;newLined&quot;:true}">COACH: COACH'S NAME</tspan></text><text fill="#f7941d" font-family="Chunky Funks" font-size="50" stroke-opacity="1" stroke-width="3" stroke="#000000" x="-98.72634249947717" y="199.47500657859518" transform="matrix(0.2574022447399216,0,0,0.2574022447399216,63.783487592882025,54.99217613296061)" svgjs:data="{&quot;leading&quot;:&quot;1.3&quot;}"><tspan dy="0" x="-98.72634249947717" svgjs:data="{&quot;newLined&quot;:true}">PLAYER</tspan></text><image width="557" height="760" xlink:href="https://lct-designs.s3.us-west-1.amazonaws.com/assets/libs/happy-trolls-4-1649403383751.png" class="asset" transform="matrix(0.07016756567459481,0,0,0.07016756567459481,12.711470354133784,77.01953517645599)"></image><text fill="#f7941d" font-family="Chunky Funks" font-size="50" stroke-opacity="1" stroke-width="3" stroke="#000000" x="-98.72634249947717" y="199.47500657859518" transform="matrix(0.25740224123001104,0,0,0.25740224123001104,72.71052551269533,126.34411621093754)" svgjs:data="{&quot;leading&quot;:&quot;1.3&quot;}"><tspan dy="0" x="-98.72634249947717" svgjs:data="{&quot;newLined&quot;:true}">PLAYER</tspan></text><image width="760" height="352" xlink:href="https://lct-designs.s3.us-west-1.amazonaws.com/assets/libs/happy-trolls-3-1649403314978.png" class="asset" transform="matrix(0.31903707981109625,0,0,0.31903707981109625,114.24287414550784,77.03759753704072)"></image><image width="643" height="760" xlink:href="https://lct-designs.s3.us-west-1.amazonaws.com/assets/libs/happy-trolls-2-1649403270019.png" class="asset" transform="matrix(0.11251998692750934,0,0,0.11251998692750932,333.7703247070313,121.01094043254854)"></image><image width="557" height="760" xlink:href="https://lct-designs.s3.us-west-1.amazonaws.com/assets/libs/happy-trolls-4-1649403383751.png" class="asset" transform="matrix(0.07016761600971223,0,0,0.07016761600971222,21.63850593566895,148.37147521972656)"></image><image width="557" height="760" xlink:href="https://lct-designs.s3.us-west-1.amazonaws.com/assets/libs/happy-trolls-4-1649403383751.png" class="asset" transform="matrix(0.07016780972480774,0,0,0.07016780972480775,24.127780914306644,219.18692016601562)"></image><image width="557" height="760" xlink:href="https://lct-designs.s3.us-west-1.amazonaws.com/assets/libs/happy-trolls-4-1649403383751.png" class="asset" transform="matrix(0.07016788423061372,0,0,0.07016788423061371,218.6771392822266,218.1139527559281)"></image><text fill="#f7941d" font-family="Chunky Funks" font-size="50" stroke-opacity="1" stroke-width="3" stroke="#000000" x="-98.72634249947717" y="199.47500657859518" transform="matrix(0.25740224123001104,0,0,0.25740224123001104,269.7491607666016,196.08659374713903)" svgjs:data="{&quot;leading&quot;:&quot;1.3&quot;}"><tspan dy="0" x="-98.72634249947717" svgjs:data="{&quot;newLined&quot;:true}">PLAYER</tspan></text><image width="557" height="760" xlink:href="https://lct-designs.s3.us-west-1.amazonaws.com/assets/libs/happy-trolls-4-1649403383751.png" class="asset" transform="matrix(0.07016799598932268,0,0,0.07016799598932268,406.2522583007813,217.57746887207037)"></image><text fill="#f7941d" font-family="Chunky Funks" font-size="50" stroke-opacity="1" stroke-width="3" stroke="#000000" x="-98.72634249947717" y="199.47500657859518" transform="matrix(0.25740224123001104,0,0,0.25740224123001104,457.3242797851563,195.5501098632813)" svgjs:data="{&quot;leading&quot;:&quot;1.3&quot;}"><tspan dy="0" x="-98.72634249947717" svgjs:data="{&quot;newLined&quot;:true}">PLAYER</tspan></text><image width="557" height="760" xlink:href="https://lct-designs.s3.us-west-1.amazonaws.com/assets/libs/happy-trolls-4-1649403383751.png" class="asset" transform="matrix(0.0701679363846779,0,0,0.07016793638467789,312.90463256835943,205.23841857910156)"></image><text fill="#f7941d" font-family="Chunky Funks" font-size="50" stroke-opacity="1" stroke-width="3" stroke="#000000" x="-98.72634249947717" y="199.47500657859518" transform="matrix(0.25740224123001104,0,0,0.25740224123001104,363.9766235351563,183.21105957031256)" svgjs:data="{&quot;leading&quot;:&quot;1.3&quot;}"><tspan dy="0" x="-98.72634249947717" svgjs:data="{&quot;newLined&quot;:true}">PLAYER</tspan></text><text fill="#f7941d" font-family="Chunky Funks" font-size="50" stroke-opacity="1" stroke-width="3" stroke="#000000" x="-98.72634249947717" y="199.47500657859518" transform="matrix(0.25740224123001104,0,0,0.25740224123001104,75.19979858398439,197.15956115722662)" svgjs:data="{&quot;leading&quot;:&quot;1.3&quot;}"><tspan dy="0" x="-98.72634249947717" svgjs:data="{&quot;newLined&quot;:true}">PLAYER</tspan></text><image width="557" height="760" xlink:href="https://lct-designs.s3.us-west-1.amazonaws.com/assets/libs/happy-trolls-4-1649403383751.png" class="asset" transform="matrix(0.07016786932945253,0,0,0.07016786932945251,123.1835861206055,199.33712768554688)"></image><text fill="#f7941d" font-family="Chunky Funks" font-size="50" stroke-opacity="1" stroke-width="3" stroke="#000000" x="-98.72634249947717" y="199.47500657859518" transform="matrix(0.25740224123001104,0,0,0.25740224123001104,174.25559997558597,177.30976867675787)" svgjs:data="{&quot;leading&quot;:&quot;1.3&quot;}"><tspan dy="0" x="-98.72634249947717" svgjs:data="{&quot;newLined&quot;:true}">PLAYER</tspan></text><image width="557" height="760" xlink:href="https://lct-designs.s3.us-west-1.amazonaws.com/assets/libs/happy-trolls-4-1649403383751.png" class="asset" transform="matrix(0.07016801834106447,0,0,0.07016801834106445,416.78872680664074,76.48303997516634)"></image><text fill="#f7941d" font-family="Chunky Funks" font-size="50" stroke-opacity="1" stroke-width="3" stroke="#000000" x="-98.72634249947717" y="199.47500657859518" transform="matrix(0.25740224123001104,0,0,0.25740224123001104,467.86074829101574,54.455680966377244)" svgjs:data="{&quot;leading&quot;:&quot;1.3&quot;}"><tspan dy="0" x="-98.72634249947717" svgjs:data="{&quot;newLined&quot;:true}">PLAYER</tspan></text><image width="557" height="760" xlink:href="https://lct-designs.s3.us-west-1.amazonaws.com/assets/libs/happy-trolls-4-1649403383751.png" class="asset" transform="matrix(0.07016804069280626,0,0,0.07016804069280626,417.3252258300782,149.98089599609375)"></image><text fill="#f7941d" font-family="Chunky Funks" font-size="50" stroke-opacity="1" stroke-width="3" stroke="#000000" x="-98.72634249947717" y="199.47500657859518" transform="matrix(0.25740224123001104,0,0,0.25740224123001104,468.3972473144532,127.9535369873047)" svgjs:data="{&quot;leading&quot;:&quot;1.3&quot;}"><tspan dy="0" x="-98.72634249947717" svgjs:data="{&quot;newLined&quot;:true}">PLAYER</tspan></text><g class="mask" style="pointer-events: none;"><g><path fill="#BCBEC0" d="M-3642.4-2101.7v4589.1h7813.4v-4589.1H-3642.4z M500.5,67.2v233.3v66.7H0.5v-66.7V67.2V0.5h500V67.2z" transform="matrix(1,0,0,1,0,0)"></path><g transform="matrix(1,0,0,1,0,0)">
	<rect x="0.5" y="300.5" opacity="0.95" fill="#F1F2F2" width="500" height="66.7"></rect>
	<rect x="0.5" y="0.5" opacity="0.95" fill="#F1F2F2" width="500" height="66.7"></rect>
</g></g></g></svg>