<svg xmlns="http://www.w3.org/2000/svg" version="1.1" xmlns:xlink="http://www.w3.org/1999/xlink" xmlns:svgjs="http://svgjs.dev/svgjs" width="100%" height="100%" viewBox="1 1 499 365.70001220703125" preserveAspectRatio="none" data-info="{&quot;_id&quot;:4,&quot;name&quot;:&quot;POLE POCKET SOCCER BANNERS&quot;,&quot;information&quot;:&quot;- Size: 3’x5’\n- Material: heavy duty vinyl banner\n- Digitally printed on vinyl&quot;,&quot;price&quot;:&quot;95.00&quot;,&quot;sale_price&quot;:&quot;89.99&quot;,&quot;type&quot;:&quot;pole-pocket&quot;,&quot;cover&quot;:{&quot;key&quot;:&quot;assets/models/pole-1628062864266-1631924568908.png&quot;,&quot;url&quot;:&quot;https://lct-designs.s3.us-west-1.amazonaws.com/assets/models/pole-1628062864266-1631924568908.png&quot;},&quot;back&quot;:{&quot;key&quot;:&quot;assets/models/pole-1631924700152.svg&quot;,&quot;url&quot;:&quot;https://lct-designs.s3.us-west-1.amazonaws.com/assets/models/pole-1631924700152.svg&quot;},&quot;mask&quot;:{&quot;key&quot;:&quot;assets/models/pole-mask-1631925211715.svg&quot;,&quot;url&quot;:&quot;https://lct-designs.s3.us-west-1.amazonaws.com/assets/models/pole-mask-1631925211715.svg&quot;},&quot;pos&quot;:&quot;2&quot;,&quot;accessories&quot;:&quot;2,3&quot;}" style="background-color: white;"><g class="model" style="pointer-events: none;"><polygon fill="#FFFFFF" points="0.5,0.5 0.5,67.2 0.5,300.5 0.5,367.2 500.5,367.2 500.5,300.5 500.5,67.2 500.5,0.5 "></polygon></g><image width="760" height="557" xlink:href="https://lct-designs.s3.us-west-1.amazonaws.com/assets/libs/asset-7-1654236502838.png" class="asset background locked" transform="matrix(0.6583483163501459,0,0,0.6583483163501459,0,0)"></image><image width="760" height="678" xlink:href="https://lct-designs.s3.us-west-1.amazonaws.com/assets/libs/asset-2-1653972797034.png" class="asset" transform="matrix(0.22632847726345062,0,0,0.218179926276207,321.3101501464844,145.94580078125006)"></image><image width="760" height="162" xlink:href="https://lct-designs.s3.us-west-1.amazonaws.com/assets/libs/watermelon-1-1653386200126.png" class="asset" transform="matrix(0.418514221906662,0,0,0.41851422190666193,18.033109664916992,207.26087951660153)"></image><image width="410" height="760" xlink:href="https://lct-designs.s3.us-west-1.amazonaws.com/assets/libs/watermelon-3-1653386230023.png" class="asset" transform="matrix(0.09513947969719894,0,0,0.08117115066863077,24.27016912795264,82.06665696214986)"></image><text fill="#ffffff" font-family="SVN-Coco FY" font-size="45" x="203.9138425199121" y="202.68354815096052" transform="matrix(0.5847703802512284,0,0,0.4989145729452957,-79.1647553835246,23.549080497262366)" svgjs:data="{&quot;leading&quot;:&quot;1.3&quot;}"><tspan dy="0" x="203.9138425199121" svgjs:data="{&quot;newLined&quot;:true}">Player</tspan></text><image width="410" height="760" xlink:href="https://lct-designs.s3.us-west-1.amazonaws.com/assets/libs/watermelon-3-1653386230023.png" class="asset" transform="matrix(0.09513947969719894,0,0,0.08117113643902485,120.26540212904362,80.05356250811019)"></image><text fill="#ffffff" font-family="SVN-Coco FY" font-size="45" x="203.9138425199121" y="202.68354815096052" transform="matrix(0.5847703802512284,0,0,0.4989145729452957,13.68445882188189,20.86495698706223)" svgjs:data="{&quot;leading&quot;:&quot;1.3&quot;}"><tspan dy="0" x="203.9138425199121" svgjs:data="{&quot;newLined&quot;:true}">Player</tspan></text><text fill="#ffffff" font-family="SVN-Coco FY" font-size="45" x="203.9138425199121" y="202.68354815096052" transform="matrix(0.584770143032074,0,0,0.4989145696163177,110.84258270263675,17.626903533935547)" svgjs:data="{&quot;leading&quot;:&quot;1.3&quot;}"><tspan dy="0" x="203.9138425199121" svgjs:data="{&quot;newLined&quot;:true}">Player</tspan></text><image width="410" height="760" xlink:href="https://lct-designs.s3.us-west-1.amazonaws.com/assets/libs/watermelon-3-1653386230023.png" class="asset" transform="matrix(0.09513951838016509,0,0,0.08117114007472992,215.10562133789065,76.81550598144531)"></image><image width="410" height="760" xlink:href="https://lct-designs.s3.us-west-1.amazonaws.com/assets/libs/watermelon-3-1653386230023.png" class="asset" transform="matrix(0.09513951838016509,0,0,0.0811711624264717,311.53680419921875,74.01429748535156)"></image><text fill="#ffffff" font-family="SVN-Coco FY" font-size="45" x="203.9138425199121" y="202.68354815096052" transform="matrix(0.584770143032074,0,0,0.4989145696163177,207.31541442871097,15.496720314025879)" svgjs:data="{&quot;leading&quot;:&quot;1.3&quot;}"><tspan dy="0" x="203.9138425199121" svgjs:data="{&quot;newLined&quot;:true}">Player</tspan></text><image width="410" height="760" xlink:href="https://lct-designs.s3.us-west-1.amazonaws.com/assets/libs/watermelon-3-1653386230023.png" class="asset" transform="matrix(0.09513951838016509,0,0,0.0811711624264717,409.6016540527344,79.43646240234375)"></image><text fill="#ffffff" font-family="SVN-Coco FY" font-size="45" x="203.9138425199121" y="202.68354815096052" transform="matrix(0.584770143032074,0,0,0.4989145696163177,306.166748046875,20.918884277343764)" svgjs:data="{&quot;leading&quot;:&quot;1.3&quot;}"><tspan dy="0" x="203.9138425199121" svgjs:data="{&quot;newLined&quot;:true}">Player</tspan></text><text fill="#ffffff" font-family="SVN-Coco FY" font-size="45" x="203.9138425199121" y="202.68354815096052" transform="matrix(0.584770143032074,0,0,0.4989145696163177,-48.65923309326172,89.63747787475586)" svgjs:data="{&quot;leading&quot;:&quot;1.3&quot;}"><tspan dy="0" x="203.9138425199121" svgjs:data="{&quot;newLined&quot;:true}">Player</tspan></text><image width="410" height="760" xlink:href="https://lct-designs.s3.us-west-1.amazonaws.com/assets/libs/watermelon-3-1653386230023.png" class="asset" transform="matrix(0.09513954073190689,0,0,0.08117114007472992,55.603805541992216,148.82608032226562)"></image><image width="410" height="760" xlink:href="https://lct-designs.s3.us-west-1.amazonaws.com/assets/libs/watermelon-3-1653386230023.png" class="asset" transform="matrix(0.09513954073190689,0,0,0.0811711624264717,152.03498840332034,146.0248718261719)"></image><image width="410" height="760" xlink:href="https://lct-designs.s3.us-west-1.amazonaws.com/assets/libs/watermelon-3-1653386230023.png" class="asset" transform="matrix(0.09513954073190689,0,0,0.0811711624264717,250.09983825683597,151.44703674316403)"></image><text fill="#ffffff" font-family="SVN-Coco FY" font-size="45" x="203.9138425199121" y="202.68354815096052" transform="matrix(0.584770143032074,0,0,0.4989145696163177,146.66493225097656,92.92945861816406)" svgjs:data="{&quot;leading&quot;:&quot;1.3&quot;}"><tspan dy="0" x="203.9138425199121" svgjs:data="{&quot;newLined&quot;:true}">Player</tspan></text><text fill="#ffffff" font-family="SVN-Coco FY" font-size="45" x="110.16721442424262" y="201.02176683992536" transform="matrix(0.4562183916568756,0,0,0.45621839165687555,31.65661048889163,199.1170959472656)" svgjs:data="{&quot;leading&quot;:&quot;1.3&quot;}"><tspan dy="0" x="110.16721442424262" svgjs:data="{&quot;newLined&quot;:true}">Coach:Coach's name</tspan></text><text fill="#ffffff" font-family="SVN-Coco FY" font-size="45" x="203.9138425199121" y="202.68354815096052" transform="matrix(0.584770143032074,0,0,0.4989145696163177,56.40404510498047,88.498046875)" svgjs:data="{&quot;leading&quot;:&quot;1.3&quot;}"><tspan dy="0" x="203.9138425199121" svgjs:data="{&quot;newLined&quot;:true}">Player</tspan></text><g class="mask" style="pointer-events: none;"><g><path fill="#BCBEC0" d="M-3642.4-2101.7v4589.1h7813.4v-4589.1H-3642.4z M500.5,67.2v233.3v66.7H0.5v-66.7V67.2V0.5h500V67.2z" transform="matrix(1,0,0,1,0,0)"></path><g transform="matrix(1,0,0,1,0,0)">
	<rect x="0.5" y="300.5" opacity="0.95" fill="#F1F2F2" width="500" height="66.7"></rect>
	<rect x="0.5" y="0.5" opacity="0.95" fill="#F1F2F2" width="500" height="66.7"></rect>
</g></g></g></svg>