<svg xmlns="http://www.w3.org/2000/svg" version="1.1" xmlns:xlink="http://www.w3.org/1999/xlink" xmlns:svgjs="http://svgjs.dev/svgjs" width="100%" height="100%" viewBox="1 1 499 365.70001220703125" preserveAspectRatio="none" data-info="{&quot;_id&quot;:4,&quot;name&quot;:&quot;POLE POCKET SOCCER BANNERS&quot;,&quot;information&quot;:&quot;- Size: 3’x5’\n- Material: heavy duty vinyl banner\n- Digitally printed on vinyl&quot;,&quot;price&quot;:&quot;95.00&quot;,&quot;sale_price&quot;:&quot;89.99&quot;,&quot;type&quot;:&quot;pole-pocket&quot;,&quot;cover&quot;:{&quot;key&quot;:&quot;assets/models/pole-1628062864266-1631924568908.png&quot;,&quot;url&quot;:&quot;https://lct-designs.s3.us-west-1.amazonaws.com/assets/models/pole-1628062864266-1631924568908.png&quot;},&quot;back&quot;:{&quot;key&quot;:&quot;assets/models/pole-1631924700152.svg&quot;,&quot;url&quot;:&quot;https://lct-designs.s3.us-west-1.amazonaws.com/assets/models/pole-1631924700152.svg&quot;},&quot;mask&quot;:{&quot;key&quot;:&quot;assets/models/pole-mask-1631925211715.svg&quot;,&quot;url&quot;:&quot;https://lct-designs.s3.us-west-1.amazonaws.com/assets/models/pole-mask-1631925211715.svg&quot;},&quot;pos&quot;:&quot;2&quot;,&quot;accessories&quot;:&quot;2,3&quot;}" style="background-color: white;"><g class="model" style="pointer-events: none;"><polygon fill="#FFFFFF" points="0.5,0.5 0.5,67.2 0.5,300.5 0.5,367.2 500.5,367.2 500.5,300.5 500.5,67.2 500.5,0.5 "></polygon></g><image width="760" height="556" xlink:href="https://lct-designs.s3.us-west-1.amazonaws.com/assets/libs/terminator-1-1652435481772.png" class="asset background locked" transform="matrix(0.6595323960558116,0,0,0.6595323960558116,0,0)"></image><g class="" transform="matrix(1,0,0,1,0,0)"></g><image width="760" height="712" xlink:href="https://lct-designs.s3.us-west-1.amazonaws.com/assets/libs/terminator-2-1652435633993.png" class="asset locked" transform="matrix(0.23173989355564117,0,0,0.23173989355564115,145.9615173339844,96.01906585693357)"></image><image width="537" height="760" xlink:href="https://lct-designs.s3.us-west-1.amazonaws.com/assets/libs/terminator-4-1652435571863.png" class="asset" transform="matrix(0.16850757598876953,0,0,0.16850757598876953,387.1619873046875,145.31262207031247)"></image><text fill="#ffffff" font-family="American Captain" font-size="45" stroke-opacity="1" stroke-width="2" stroke="#000000" x="196.88393072804308" y="200.41361831492046" transform="matrix(0.47423803806304937,0,0,0.4742380380630493,285.8076171875,43.98275756835938)" svgjs:data="{&quot;leading&quot;:&quot;1.3&quot;}"><tspan dy="0" x="196.88393072804308" svgjs:data="{&quot;newLined&quot;:true}">player</tspan></text><image width="445" height="760" xlink:href="https://lct-designs.s3.us-west-1.amazonaws.com/assets/libs/terminator-3-1652435651682.png" class="asset" transform="matrix(0.044403180480003364,0,0,0.04440318048000336,353.9083557128906,114.48588562011719)"></image><text fill="#ffffff" font-family="American Captain" font-size="45" stroke-opacity="1" stroke-width="2" stroke="#000000" x="196.88393072804308" y="200.41361831492046" transform="matrix(0.474237322807312,0,0,0.47423732280731207,-8.872322082519531,15.916645050048835)" svgjs:data="{&quot;leading&quot;:&quot;1.3&quot;}"><tspan dy="0" x="196.88393072804308" svgjs:data="{&quot;newLined&quot;:true}">player</tspan></text><image width="445" height="760" xlink:href="https://lct-designs.s3.us-west-1.amazonaws.com/assets/libs/terminator-3-1652435651682.png" class="asset" transform="matrix(0.044403180480003364,0,0,0.04440318048000336,59.228431701660185,86.4197769165039)"></image><text fill="#ffffff" font-family="American Captain" font-size="45" stroke-opacity="1" stroke-width="2" stroke="#000000" x="196.88393072804308" y="200.41361831492046" transform="matrix(0.47423720359802246,0,0,0.4742372035980225,-16.233924865722656,115.75842285156247)" svgjs:data="{&quot;leading&quot;:&quot;1.3&quot;}"><tspan dy="0" x="196.88393072804308" svgjs:data="{&quot;newLined&quot;:true}">player</tspan></text><image width="445" height="760" xlink:href="https://lct-designs.s3.us-west-1.amazonaws.com/assets/libs/terminator-3-1652435651682.png" class="asset" transform="matrix(0.044403180480003364,0,0,0.04440318048000336,51.8668212890625,184.42114257812497)"></image><image width="445" height="760" xlink:href="https://lct-designs.s3.us-west-1.amazonaws.com/assets/libs/terminator-3-1652435651682.png" class="asset" transform="matrix(0.044403180480003364,0,0,0.04440318048000336,22.758285522460938,134.7303009033203)"></image><text fill="#ffffff" font-family="American Captain" font-size="45" stroke-opacity="1" stroke-width="2" stroke="#000000" x="196.88393072804308" y="200.41361831492046" transform="matrix(0.47423717379570013,0,0,0.4742371737957001,-44.88238143920899,64.22718048095703)" svgjs:data="{&quot;leading&quot;:&quot;1.3&quot;}"><tspan dy="0" x="196.88393072804308" svgjs:data="{&quot;newLined&quot;:true}">player</tspan></text><image width="445" height="760" xlink:href="https://lct-designs.s3.us-west-1.amazonaws.com/assets/libs/terminator-3-1652435651682.png" class="asset" transform="matrix(0.044403180480003364,0,0,0.04440318048000336,103.49153137207031,229.97106933593753)"></image><text fill="#ffffff" font-family="American Captain" font-size="45" stroke-opacity="1" stroke-width="2" stroke="#000000" x="196.88393072804308" y="200.41361831492046" transform="matrix(0.47423714399337774,0,0,0.4742371439933777,37.9356880187988,159.4679412841797)" svgjs:data="{&quot;leading&quot;:&quot;1.3&quot;}"><tspan dy="0" x="196.88393072804308" svgjs:data="{&quot;newLined&quot;:true}">player</tspan></text><text fill="#ffffff" font-family="American Captain" font-size="45" stroke-opacity="1" stroke-width="2" stroke="#000000" x="196.88393072804308" y="200.41361831492046" transform="matrix(0.47423779964447027,0,0,0.4742377996444702,227.4970703125,9.935344696044915)" svgjs:data="{&quot;leading&quot;:&quot;1.3&quot;}"><tspan dy="0" x="196.88393072804308" svgjs:data="{&quot;newLined&quot;:true}">player</tspan></text><image width="445" height="760" xlink:href="https://lct-designs.s3.us-west-1.amazonaws.com/assets/libs/terminator-3-1652435651682.png" class="asset" transform="matrix(0.044403180480003364,0,0,0.04440318048000336,295.5978088378906,80.4384765625)"></image><text fill="#ffffff" font-family="American Captain" font-size="45" stroke-opacity="1" stroke-width="2" stroke="#000000" x="196.88393072804308" y="200.41361831492046" transform="matrix(0.47423788905143743,0,0,0.4742378890514374,259.9198303222656,117.59883117675781)" svgjs:data="{&quot;leading&quot;:&quot;1.3&quot;}"><tspan dy="0" x="196.88393072804308" svgjs:data="{&quot;newLined&quot;:true}">player</tspan></text><image width="445" height="760" xlink:href="https://lct-designs.s3.us-west-1.amazonaws.com/assets/libs/terminator-3-1652435651682.png" class="asset" transform="matrix(0.044403180480003364,0,0,0.04440318048000336,328.02056884765625,188.10195922851562)"></image><text fill="#ffffff" font-family="American Captain" font-size="45" stroke-opacity="1" stroke-width="2" stroke="#000000" x="196.88393072804308" y="200.41361831492046" transform="matrix(0.47423803806304937,0,0,0.4742380380630493,227.13046264648438,158.54776000976562)" svgjs:data="{&quot;leading&quot;:&quot;1.3&quot;}"><tspan dy="0" x="196.88393072804308" svgjs:data="{&quot;newLined&quot;:true}">player</tspan></text><image width="445" height="760" xlink:href="https://lct-designs.s3.us-west-1.amazonaws.com/assets/libs/terminator-3-1652435651682.png" class="asset" transform="matrix(0.044403180480003364,0,0,0.04440318048000336,295.231201171875,229.0508880615234)"></image><text fill="#ffffff" font-family="American Captain" font-size="45" stroke-opacity="1" stroke-width="2" stroke="#000000" x="129.74522070607043" y="200.41361831492046" transform="matrix(0.40526333451271057,0,0,0.40526333451271057,-40.161350250244155,212.02471923828128)" svgjs:data="{&quot;leading&quot;:&quot;1.3&quot;}"><tspan dy="0" x="129.74522070607043" svgjs:data="{&quot;newLined&quot;:true}">team mom: name</tspan></text><text fill="#ffffff" font-family="American Captain" font-size="45" stroke-opacity="1" stroke-width="2" stroke="#000000" x="129.74522070607043" y="200.41361831492046" transform="matrix(0.44101488590240484,-0.0014429555740207434,0.0014429555740207434,0.44101488590240484,301.5509948730469,206.18185424804685)" svgjs:data="{&quot;leading&quot;:&quot;1.3&quot;}"><tspan dy="0" x="129.74522070607043" svgjs:data="{&quot;newLined&quot;:true}">coach:coach's name</tspan></text><g class="mask" style="pointer-events: none;"><g><path fill="#BCBEC0" d="M-3642.4-2101.7v4589.1h7813.4v-4589.1H-3642.4z M500.5,67.2v233.3v66.7H0.5v-66.7V67.2V0.5h500V67.2z" transform="matrix(1,0,0,1,0,0)"></path><g transform="matrix(1,0,0,1,0,0)">
	<rect x="0.5" y="300.5" opacity="0.95" fill="#F1F2F2" width="500" height="66.7"></rect>
	<rect x="0.5" y="0.5" opacity="0.95" fill="#F1F2F2" width="500" height="66.7"></rect>
</g></g></g></svg>