<svg xmlns="http://www.w3.org/2000/svg" version="1.1" xmlns:xlink="http://www.w3.org/1999/xlink" xmlns:svgjs="http://svgjs.dev/svgjs" width="100%" height="100%" viewBox="1 1 499 365.70001220703125" preserveAspectRatio="none" data-info="{&quot;_id&quot;:4,&quot;name&quot;:&quot;POLE POCKET SOCCER BANNERS&quot;,&quot;information&quot;:&quot;- Size: 3’x5’\n- Material: heavy duty vinyl banner\n- Digitally printed on vinyl&quot;,&quot;price&quot;:&quot;95.00&quot;,&quot;sale_price&quot;:&quot;89.99&quot;,&quot;type&quot;:&quot;pole-pocket&quot;,&quot;cover&quot;:{&quot;key&quot;:&quot;assets/models/pole-1628062864266-1631924568908.png&quot;,&quot;url&quot;:&quot;https://lct-designs.s3.us-west-1.amazonaws.com/assets/models/pole-1628062864266-1631924568908.png&quot;},&quot;back&quot;:{&quot;key&quot;:&quot;assets/models/pole-1631924700152.svg&quot;,&quot;url&quot;:&quot;https://lct-designs.s3.us-west-1.amazonaws.com/assets/models/pole-1631924700152.svg&quot;},&quot;mask&quot;:{&quot;key&quot;:&quot;assets/models/pole-mask-1631925211715.svg&quot;,&quot;url&quot;:&quot;https://lct-designs.s3.us-west-1.amazonaws.com/assets/models/pole-mask-1631925211715.svg&quot;},&quot;pos&quot;:&quot;2&quot;,&quot;accessories&quot;:&quot;2,3&quot;}" style="background-color: white;"><g class="model" style="pointer-events: none;"><polygon fill="#FFFFFF" points="0.5,0.5 0.5,67.2 0.5,300.5 0.5,367.2 500.5,367.2 500.5,300.5 500.5,67.2 500.5,0.5 "></polygon></g><image width="760" height="556" xlink:href="https://lct-designs.s3.us-west-1.amazonaws.com/assets/libs/torpedoes-1633602138014.png" class="asset background locked" transform="matrix(0.6595323960558116,0,0,0.6595323960558116,0,0)"></image><image width="760" height="331" xlink:href="https://lct-designs.s3.us-west-1.amazonaws.com/assets/libs/torpedoes-1633602171723.png" class="asset" transform="matrix(0.06608269363641739,0,0,0.06410124152898788,57.11632537841797,95.7793197631836)"></image><text fill="#ffffff" font-family="Cookies" font-size="45" x="176.11830451040368" y="199.26336692637065" stroke-opacity="1" stroke-width="2" stroke="#000000" transform="matrix(0.4074295461177826,0,0,0.377523273229599,-19.83154296875,57.25285720825196)" svgjs:data="{&quot;leading&quot;:&quot;1.3&quot;}"><tspan dy="0" x="176.11830451040368" svgjs:data="{&quot;newLined&quot;:true}">player</tspan></text><image width="760" height="331" xlink:href="https://lct-designs.s3.us-west-1.amazonaws.com/assets/libs/torpedoes-1633602171723.png" class="asset" transform="matrix(0.06608271598815918,0,0,0.06410124152898788,22.273078918457045,144.90269470214844)"></image><text fill="#ffffff" font-family="Cookies" font-size="45" x="176.11830451040368" y="199.26336692637065" stroke-opacity="1" stroke-width="2" stroke="#000000" transform="matrix(0.4074295461177826,0,0,0.377523273229599,-54.67479324340821,106.37625122070312)" svgjs:data="{&quot;leading&quot;:&quot;1.3&quot;}"><tspan dy="0" x="176.11830451040368" svgjs:data="{&quot;newLined&quot;:true}">player</tspan></text><image width="760" height="331" xlink:href="https://lct-designs.s3.us-west-1.amazonaws.com/assets/libs/torpedoes-1633602171723.png" class="asset" transform="matrix(0.06608277559280396,0,0,0.06410129368305206,25.889917373657227,198.90347290039062)"></image><text fill="#ffffff" font-family="Cookies" font-size="45" x="176.11830451040368" y="199.26336692637065" stroke-opacity="1" stroke-width="2" stroke="#000000" transform="matrix(0.4074295461177826,0,0,0.377523273229599,-51.05794525146485,160.3770294189453)" svgjs:data="{&quot;leading&quot;:&quot;1.3&quot;}"><tspan dy="0" x="176.11830451040368" svgjs:data="{&quot;newLined&quot;:true}">player</tspan></text><image width="760" height="331" xlink:href="https://lct-designs.s3.us-west-1.amazonaws.com/assets/libs/torpedoes-1633602171723.png" class="asset" transform="matrix(0.06608277559280396,0,0,0.06410129368305206,48.772727966308594,251.35490417480472)"></image><text fill="#ffffff" font-family="Cookies" font-size="45" x="176.11830451040368" y="199.26336692637065" stroke-opacity="1" stroke-width="2" stroke="#000000" transform="matrix(0.4074295461177826,0,0,0.377523273229599,-28.17513656616211,212.82846069335935)" svgjs:data="{&quot;leading&quot;:&quot;1.3&quot;}"><tspan dy="0" x="176.11830451040368" svgjs:data="{&quot;newLined&quot;:true}">player</tspan></text><image width="760" height="389" xlink:href="https://lct-designs.s3.us-west-1.amazonaws.com/assets/libs/torpedoes-1633602161818.png" class="asset" transform="matrix(0.39794936776161194,0,0,0.3917832672595978,93.71683502197266,111.74787139892578)"></image><text fill="#ffffff" font-family="Cookies" font-size="45" x="176.11830451040368" y="199.26336692637065" stroke-opacity="1" stroke-width="2" stroke="#000000" transform="matrix(0.4074295461177826,0,0,0.377523273229599,337.20849609375,116.49845886230469)" svgjs:data="{&quot;leading&quot;:&quot;1.3&quot;}"><tspan dy="0" x="176.11830451040368" svgjs:data="{&quot;newLined&quot;:true}">player</tspan></text><image width="760" height="331" xlink:href="https://lct-designs.s3.us-west-1.amazonaws.com/assets/libs/torpedoes-1633602171723.png" class="asset" transform="matrix(-0.061654023826122284,0,0,0.06410124152898788,458.9996032714844,149.15097045898438)"></image><image width="760" height="331" xlink:href="https://lct-designs.s3.us-west-1.amazonaws.com/assets/libs/torpedoes-1633602171723.png" class="asset" transform="matrix(-0.061654023826122284,0,0,0.06410124152898788,426.4547119140626,99.00003051757812)"></image><text fill="#ffffff" font-family="Cookies" font-size="45" x="176.11830451040368" y="199.26336692637065" stroke-opacity="1" stroke-width="2" stroke="#000000" transform="matrix(0.4074295461177826,0,0,0.377523273229599,304.87713623046875,65.0745735168457)" svgjs:data="{&quot;leading&quot;:&quot;1.3&quot;}"><tspan dy="0" x="176.11830451040368" svgjs:data="{&quot;newLined&quot;:true}">player</tspan></text><text fill="#ffffff" font-family="Cookies" font-size="45" x="176.11830451040368" y="199.26336692637065" stroke-opacity="1" stroke-width="2" stroke="#000000" transform="matrix(0.4074295461177826,0,0,0.377523273229599,350.94757080078125,177.86085510253906)" svgjs:data="{&quot;leading&quot;:&quot;1.3&quot;}"><tspan dy="0" x="176.11830451040368" svgjs:data="{&quot;newLined&quot;:true}">player</tspan></text><image width="760" height="331" xlink:href="https://lct-designs.s3.us-west-1.amazonaws.com/assets/libs/torpedoes-1633602171723.png" class="asset" transform="matrix(-0.061654023826122284,0,0,0.06410124152898788,476.3612060546876,213.56503295898435)"></image><text fill="#ffffff" font-family="Cookies" font-size="45" x="176.11830451040368" y="199.26336692637065" stroke-opacity="1" stroke-width="2" stroke="#000000" transform="matrix(0.4074295461177826,0,0,0.377523273229599,302.0547180175781,216.5092468261719)" svgjs:data="{&quot;leading&quot;:&quot;1.3&quot;}"><tspan dy="0" x="176.11830451040368" svgjs:data="{&quot;newLined&quot;:true}">player</tspan></text><image width="760" height="331" xlink:href="https://lct-designs.s3.us-west-1.amazonaws.com/assets/libs/torpedoes-1633602171723.png" class="asset" transform="matrix(-0.061654023826122284,0,0,0.06410124152898788,427.590576171875,255.43415832519528)"></image><text fill="#ffffff" font-family="Cookies" font-size="45" stroke-opacity="1" stroke-width="2" stroke="#000000" x="69.49364020376305" y="199.26336692637065" transform="matrix(0.560468852519989,0,0,0.38217344880104065,-21.446723937988295,9.377771377563484)" svgjs:data="{&quot;leading&quot;:&quot;1.3&quot;}"><tspan dy="0" x="69.49364020376305" svgjs:data="{&quot;newLined&quot;:true}">TEAM MOM:NAME</tspan></text><text fill="#ffffff" font-family="Cookies" font-size="45" stroke-opacity="1" stroke-width="2" stroke="#000000" x="69.49364020376305" y="199.26336692637065" transform="matrix(0.4337734878063202,0,0,0.3598683178424835,264.21600341796875,14.389676094055183)" svgjs:data="{&quot;leading&quot;:&quot;1.3&quot;}"><tspan dy="0" x="69.49364020376305" svgjs:data="{&quot;newLined&quot;:true}">COACH:COACH'S  NAME</tspan></text><g class="mask" style="pointer-events: none;"><g><path fill="#BCBEC0" d="M-3642.4-2101.7v4589.1h7813.4v-4589.1H-3642.4z M500.5,67.2v233.3v66.7H0.5v-66.7V67.2V0.5h500V67.2z" transform="matrix(1,0,0,1,0,0)"></path><g transform="matrix(1,0,0,1,0,0)">
	<rect x="0.5" y="300.5" opacity="0.95" fill="#F1F2F2" width="500" height="66.7"></rect>
	<rect x="0.5" y="0.5" opacity="0.95" fill="#F1F2F2" width="500" height="66.7"></rect>
</g></g></g></svg>