<svg xmlns="http://www.w3.org/2000/svg" version="1.1" xmlns:xlink="http://www.w3.org/1999/xlink" xmlns:svgjs="http://svgjs.dev/svgjs" width="100%" height="100%" viewBox="1 1 499 365.70001220703125" preserveAspectRatio="none" data-info="{&quot;_id&quot;:4,&quot;name&quot;:&quot;POLE POCKET SOCCER BANNERS&quot;,&quot;information&quot;:&quot;- Size: 3’x5’\n- Material: heavy duty vinyl banner\n- Digitally printed on vinyl&quot;,&quot;price&quot;:&quot;95.00&quot;,&quot;sale_price&quot;:&quot;89.99&quot;,&quot;type&quot;:&quot;pole-pocket&quot;,&quot;cover&quot;:{&quot;key&quot;:&quot;assets/models/pole-1628062864266-1631924568908.png&quot;,&quot;url&quot;:&quot;https://lct-designs.s3.us-west-1.amazonaws.com/assets/models/pole-1628062864266-1631924568908.png&quot;},&quot;back&quot;:{&quot;key&quot;:&quot;assets/models/pole-1631924700152.svg&quot;,&quot;url&quot;:&quot;https://lct-designs.s3.us-west-1.amazonaws.com/assets/models/pole-1631924700152.svg&quot;},&quot;mask&quot;:{&quot;key&quot;:&quot;assets/models/pole-mask-1631925211715.svg&quot;,&quot;url&quot;:&quot;https://lct-designs.s3.us-west-1.amazonaws.com/assets/models/pole-mask-1631925211715.svg&quot;},&quot;pos&quot;:&quot;2&quot;,&quot;accessories&quot;:&quot;2,3&quot;}" style="background-color: white;"><g class="model" style="pointer-events: none;"><polygon fill="#FFFFFF" points="0.5,0.5 0.5,67.2 0.5,300.5 0.5,367.2 500.5,367.2 500.5,300.5 500.5,67.2 500.5,0.5 "></polygon></g><image width="760" height="556" xlink:href="https://lct-designs.s3.us-west-1.amazonaws.com/assets/libs/rams-2-1652158249307.png" class="asset background locked" transform="matrix(0.6595323960558116,0,0,0.6595323960558116,0,0)"></image><image width="760" height="686" xlink:href="https://lct-designs.s3.us-west-1.amazonaws.com/assets/libs/rams-1-1652158249305.png" class="asset" transform="matrix(0.24090152978897095,0,0,0.24090152978897095,158.9562225341797,100.49018859863281)"></image><image width="754" height="760" xlink:href="https://lct-designs.s3.us-west-1.amazonaws.com/assets/libs/rams-3-1652158249307.png" class="asset" transform="matrix(0.04288272187113762,0,0,0.04288272187113762,32.40656280517577,120.31624603271484)"></image><image width="754" height="760" xlink:href="https://lct-designs.s3.us-west-1.amazonaws.com/assets/libs/rams-3-1652158249307.png" class="asset" transform="matrix(0.04288272187113762,0,0,0.04288272187113762,20.566160202026367,77.98701477050778)"></image><text fill="#000000" font-family="Kids Zone" font-size="45" stroke-opacity="1" stroke-width="2" stroke="#ffffff" x="189.14849354347086" y="199.49341605967143" transform="matrix(0.5682528018951416,0,0,0.5682528018951416,-50.123031616210945,-9.190441131591797)" svgjs:data="{&quot;leading&quot;:&quot;1.3&quot;}"><tspan dy="0" x="189.14849354347086" svgjs:data="{&quot;newLined&quot;:true}">Player</tspan></text><text fill="#000000" font-family="Kids Zone" font-size="45" stroke-opacity="1" stroke-width="2" stroke="#ffffff" x="189.14849354347086" y="199.49341605967143" transform="matrix(0.5682528018951416,0,0,0.5682528018951416,-38.282630920410156,33.13879013061523)" svgjs:data="{&quot;leading&quot;:&quot;1.3&quot;}"><tspan dy="0" x="189.14849354347086" svgjs:data="{&quot;newLined&quot;:true}">Player</tspan></text><image width="754" height="760" xlink:href="https://lct-designs.s3.us-west-1.amazonaws.com/assets/libs/rams-3-1652158249307.png" class="asset" transform="matrix(0.04288272187113762,0,0,0.04288272187113762,21.702045440673828,163.1055755615234)"></image><text fill="#000000" font-family="Kids Zone" font-size="45" stroke-opacity="1" stroke-width="2" stroke="#ffffff" x="189.14849354347086" y="199.49341605967143" transform="matrix(0.5682528018951416,0,0,0.5682528018951416,-48.98714828491212,75.92811584472656)" svgjs:data="{&quot;leading&quot;:&quot;1.3&quot;}"><tspan dy="0" x="189.14849354347086" svgjs:data="{&quot;newLined&quot;:true}">Player</tspan></text><image width="754" height="760" xlink:href="https://lct-designs.s3.us-west-1.amazonaws.com/assets/libs/rams-3-1652158249307.png" class="asset" transform="matrix(0.04288272187113762,0,0,0.04288272187113762,34.462650299072266,210.95600891113278)"></image><text fill="#000000" font-family="Kids Zone" font-size="45" stroke-opacity="1" stroke-width="2" stroke="#ffffff" x="189.14849354347086" y="199.49341605967143" transform="matrix(0.5682528018951416,0,0,0.5682528018951416,-36.22654342651368,123.77854919433594)" svgjs:data="{&quot;leading&quot;:&quot;1.3&quot;}"><tspan dy="0" x="189.14849354347086" svgjs:data="{&quot;newLined&quot;:true}">Player</tspan></text><text fill="#000000" font-family="Kids Zone" font-size="45" stroke-opacity="1" stroke-width="2" stroke="#ffffff" x="189.14849354347086" y="199.49341605967143" transform="matrix(0.5682528018951416,0,0,0.5682528018951416,-23.55941390991211,161.96690368652344)" svgjs:data="{&quot;leading&quot;:&quot;1.3&quot;}"><tspan dy="0" x="189.14849354347086" svgjs:data="{&quot;newLined&quot;:true}">Player</tspan></text><image width="754" height="760" xlink:href="https://lct-designs.s3.us-west-1.amazonaws.com/assets/libs/rams-3-1652158249307.png" class="asset" transform="matrix(0.04288272187113762,0,0,0.04288272187113762,47.129779815673814,249.14436340332028)"></image><image width="754" height="760" xlink:href="https://lct-designs.s3.us-west-1.amazonaws.com/assets/libs/rams-3-1652158249307.png" class="asset" transform="matrix(0.04288272187113762,0,0,0.04288272187113762,353.55661004781723,82.58802795410156)"></image><image width="754" height="760" xlink:href="https://lct-designs.s3.us-west-1.amazonaws.com/assets/libs/rams-3-1652158249307.png" class="asset" transform="matrix(0.04288272187113762,0,0,0.04288272187113762,373.2187194824219,128.13795471191406)"></image><text fill="#000000" font-family="Kids Zone" font-size="45" stroke-opacity="1" stroke-width="2" stroke="#ffffff" x="189.14849354347086" y="199.49341605967143" transform="matrix(0.5682528018951416,0,0,0.5682528018951416,302.52954101562494,40.96049880981446)" svgjs:data="{&quot;leading&quot;:&quot;1.3&quot;}"><tspan dy="0" x="189.14849354347086" svgjs:data="{&quot;newLined&quot;:true}">Player</tspan></text><text fill="#000000" font-family="Kids Zone" font-size="45" stroke-opacity="1" stroke-width="2" stroke="#ffffff" x="189.14849354347086" y="199.49341605967143" transform="matrix(0.5682528018951416,0,0,0.5682528018951416,282.8674315810203,-4.589428067207336)" svgjs:data="{&quot;leading&quot;:&quot;1.3&quot;}"><tspan dy="0" x="189.14849354347086" svgjs:data="{&quot;newLined&quot;:true}">Player</tspan></text><text fill="#000000" font-family="Kids Zone" font-size="45" stroke-opacity="1" stroke-width="2" stroke="#ffffff" x="189.14849354347086" y="199.49341605967143" transform="matrix(0.5682528018951416,0,0,0.5682528018951416,275.8437501192093,156.44569396972656)" svgjs:data="{&quot;leading&quot;:&quot;1.3&quot;}"><tspan dy="0" x="189.14849354347086" svgjs:data="{&quot;newLined&quot;:true}">Player</tspan></text><image width="754" height="760" xlink:href="https://lct-designs.s3.us-west-1.amazonaws.com/assets/libs/rams-3-1652158249307.png" class="asset" transform="matrix(0.04288272187113762,0,0,0.04288272187113762,346.5329591035843,243.6231536865234)"></image><image width="754" height="760" xlink:href="https://lct-designs.s3.us-west-1.amazonaws.com/assets/libs/rams-3-1652158249307.png" class="asset" transform="matrix(0.04288272187113762,0,0,0.04288272187113762,381.3783264160156,168.16667175292966)"></image><text fill="#000000" font-family="Kids Zone" font-size="45" stroke-opacity="1" stroke-width="2" stroke="#ffffff" x="189.14849354347086" y="199.49341605967143" transform="matrix(0.5682528018951416,0,0,0.5682528018951416,310.6891174316406,80.98921966552732)" svgjs:data="{&quot;leading&quot;:&quot;1.3&quot;}"><tspan dy="0" x="189.14849354347086" svgjs:data="{&quot;newLined&quot;:true}">Player</tspan></text><image width="754" height="760" xlink:href="https://lct-designs.s3.us-west-1.amazonaws.com/assets/libs/rams-3-1652158249307.png" class="asset" transform="matrix(0.04288272187113762,0,0,0.04288272187113762,378.49554443359375,208.19538879394528)"></image><text fill="#000000" font-family="Kids Zone" font-size="45" stroke-opacity="1" stroke-width="2" stroke="#ffffff" x="189.14849354347086" y="199.49341605967143" transform="matrix(0.5682528018951416,0,0,0.5682528018951416,307.8063659667968,121.01792907714844)" svgjs:data="{&quot;leading&quot;:&quot;1.3&quot;}"><tspan dy="0" x="189.14849354347086" svgjs:data="{&quot;newLined&quot;:true}">Player</tspan></text><text fill="#000000" font-family="Kids Zone" font-size="45" stroke-opacity="1" stroke-width="2" stroke="#ffffff" x="74.65180088600016" y="199.49341605967143" transform="matrix(0.3270181715488434,0,0,0.3270181715488434,-18.689165115356452,230.71430969238278)" svgjs:data="{&quot;leading&quot;:&quot;1.3&quot;}"><tspan dy="0" x="74.65180088600016" svgjs:data="{&quot;newLined&quot;:true}">Coach:Coach's name</tspan></text><text fill="#000000" font-family="Kids Zone" font-size="45" stroke-opacity="1" stroke-width="2" stroke="#ffffff" x="74.65180088600016" y="199.49341605967143" transform="matrix(0.3270181715488434,0,0,0.3270181715488434,381.4759826660156,228.87391662597653)" svgjs:data="{&quot;leading&quot;:&quot;1.3&quot;}"><tspan dy="0" x="74.65180088600016" svgjs:data="{&quot;newLined&quot;:true}">Team mom:name</tspan></text><g class="mask" style="pointer-events: none;"><g><path fill="#BCBEC0" d="M-3642.4-2101.7v4589.1h7813.4v-4589.1H-3642.4z M500.5,67.2v233.3v66.7H0.5v-66.7V67.2V0.5h500V67.2z" transform="matrix(1,0,0,1,0,0)"></path><g transform="matrix(1,0,0,1,0,0)">
	<rect x="0.5" y="300.5" opacity="0.95" fill="#F1F2F2" width="500" height="66.7"></rect>
	<rect x="0.5" y="0.5" opacity="0.95" fill="#F1F2F2" width="500" height="66.7"></rect>
</g></g></g></svg>