<svg xmlns="http://www.w3.org/2000/svg" version="1.1" xmlns:xlink="http://www.w3.org/1999/xlink" xmlns:svgjs="http://svgjs.dev/svgjs" width="100%" height="100%" viewBox="1 1 499 365.70001220703125" preserveAspectRatio="none" data-info="{&quot;_id&quot;:4,&quot;name&quot;:&quot;POLE POCKET SOCCER BANNERS&quot;,&quot;information&quot;:&quot;- Size: 3’x5’\n- Material: heavy duty vinyl banner\n- Digitally printed on vinyl&quot;,&quot;price&quot;:&quot;95.00&quot;,&quot;sale_price&quot;:&quot;89.99&quot;,&quot;type&quot;:&quot;pole-pocket&quot;,&quot;cover&quot;:{&quot;key&quot;:&quot;assets/models/pole-1628062864266-1631924568908.png&quot;,&quot;url&quot;:&quot;https://lct-designs.s3.us-west-1.amazonaws.com/assets/models/pole-1628062864266-1631924568908.png&quot;},&quot;back&quot;:{&quot;key&quot;:&quot;assets/models/pole-1631924700152.svg&quot;,&quot;url&quot;:&quot;https://lct-designs.s3.us-west-1.amazonaws.com/assets/models/pole-1631924700152.svg&quot;},&quot;mask&quot;:{&quot;key&quot;:&quot;assets/models/pole-mask-1631925211715.svg&quot;,&quot;url&quot;:&quot;https://lct-designs.s3.us-west-1.amazonaws.com/assets/models/pole-mask-1631925211715.svg&quot;},&quot;pos&quot;:&quot;2&quot;,&quot;accessories&quot;:&quot;2,3&quot;}" style="background-color: white;"><g class="model" style="pointer-events: none;"><polygon fill="#FFFFFF" points="0.5,0.5 0.5,67.2 0.5,300.5 0.5,367.2 500.5,367.2 500.5,300.5 500.5,67.2 500.5,0.5 "></polygon></g><image width="760" height="556" xlink:href="https://lct-designs.s3.us-west-1.amazonaws.com/assets/libs/the-spidermen-4-1652435481773.png" class="asset background locked" transform="matrix(0.6595323960558116,0,0,0.6595323960558116,0,0)"></image><image width="760" height="98" xlink:href="https://lct-designs.s3.us-west-1.amazonaws.com/assets/libs/the-spidermen-1652498683838.png" class="asset" transform="matrix(0.5102461576461792,0,0,0.5102461576461792,58.02745819091794,248.35925292968753)"></image><image width="760" height="362" xlink:href="https://lct-designs.s3.us-west-1.amazonaws.com/assets/libs/the-spidermen-2-1652435571865.png" class="asset" transform="matrix(0.40088436007499695,0,0,0.4008843600749969,90.25740814208987,67.0282974243164)"></image><text fill="#ffffff" font-family="Raider Crusader Title" font-size="45" stroke-opacity="1" stroke-width="3" stroke="#293b96" x="156.4308683482736" y="199.0830194339195" transform="matrix(0.3169197738170623,0,0,0.3169197738170624,-37.166343688964815,45.47869110107423)" svgjs:data="{&quot;leading&quot;:&quot;1.3&quot;}"><tspan dy="0" x="156.4308683482736" svgjs:data="{&quot;newLined&quot;:true}">Player</tspan></text><image width="760" height="758" xlink:href="https://lct-designs.s3.us-west-1.amazonaws.com/assets/libs/alliance1-1632042447894.png" class="asset" transform="matrix(0.054848574101924896,0,0,0.05484857410192489,21.473590850830107,115.20198059082031)"></image><image width="760" height="758" xlink:href="https://lct-designs.s3.us-west-1.amazonaws.com/assets/libs/alliance1-1632042447894.png" class="asset" transform="matrix(0.054848574101924896,0,0,0.05484857410192489,79.6652908325195,164.50152587890625)"></image><text fill="#ffffff" font-family="Raider Crusader Title" font-size="45" stroke-opacity="1" stroke-width="3" stroke="#293b96" x="156.4308683482736" y="199.0830194339195" transform="matrix(0.3169197738170623,0,0,0.3169197738170624,21.025356292724638,94.77823638916016)" svgjs:data="{&quot;leading&quot;:&quot;1.3&quot;}"><tspan dy="0" x="156.4308683482736" svgjs:data="{&quot;newLined&quot;:true}">Player</tspan></text><image width="760" height="758" xlink:href="https://lct-designs.s3.us-west-1.amazonaws.com/assets/libs/alliance1-1632042447894.png" class="asset" transform="matrix(0.054848574101924896,0,0,0.05484857410192489,14.331146240234375,199.3989562988281)"></image><text fill="#ffffff" font-family="Raider Crusader Title" font-size="45" stroke-opacity="1" stroke-width="3" stroke="#293b96" x="156.4308683482736" y="199.0830194339195" transform="matrix(0.3169197738170623,0,0,0.3169197738170624,78.13850402832034,137.43064880371094)" svgjs:data="{&quot;leading&quot;:&quot;1.3&quot;}"><tspan dy="0" x="156.4308683482736" svgjs:data="{&quot;newLined&quot;:true}">Player</tspan></text><image width="760" height="758" xlink:href="https://lct-designs.s3.us-west-1.amazonaws.com/assets/libs/alliance1-1632042447894.png" class="asset" transform="matrix(0.054848574101924896,0,0,0.05484857410192489,136.77844238281253,207.15393066406247)"></image><text fill="#ffffff" font-family="Raider Crusader Title" font-size="45" stroke-opacity="1" stroke-width="3" stroke="#293b96" x="156.4308683482736" y="199.0830194339195" transform="matrix(0.3169197738170623,0,0,0.3169197738170624,-44.30878829956055,129.67566680908203)" svgjs:data="{&quot;leading&quot;:&quot;1.3&quot;}"><tspan dy="0" x="156.4308683482736" svgjs:data="{&quot;newLined&quot;:true}">Player</tspan></text><text fill="#ffffff" font-family="Raider Crusader Title" font-size="45" stroke-opacity="1" stroke-width="3" stroke="#293b96" x="156.4308683482736" y="199.0830194339195" transform="matrix(0.3169197738170623,0,0,0.3169197738170624,390.0583190917969,23.321578979492188)" svgjs:data="{&quot;leading&quot;:&quot;1.3&quot;}"><tspan dy="0" x="156.4308683482736" svgjs:data="{&quot;newLined&quot;:true}">Player</tspan></text><image width="760" height="758" xlink:href="https://lct-designs.s3.us-west-1.amazonaws.com/assets/libs/alliance1-1632042447894.png" class="asset" transform="matrix(0.054848574101924896,0,0,0.05484857410192489,448.6982116699219,93.04486083984375)"></image><text fill="#ffffff" font-family="Raider Crusader Title" font-size="45" stroke-opacity="1" stroke-width="3" stroke="#293b96" x="156.4308683482736" y="199.0830194339195" transform="matrix(0.3169197738170623,0,0,0.3169197738170624,386.1515197753906,129.1217346191406)" svgjs:data="{&quot;leading&quot;:&quot;1.3&quot;}"><tspan dy="0" x="156.4308683482736" svgjs:data="{&quot;newLined&quot;:true}">Player</tspan></text><image width="760" height="758" xlink:href="https://lct-designs.s3.us-west-1.amazonaws.com/assets/libs/alliance1-1632042447894.png" class="asset" transform="matrix(0.054848574101924896,0,0,0.05484857410192489,444.79144287109375,198.84501647949222)"></image><text fill="#ffffff" font-family="Raider Crusader Title" font-size="45" stroke-opacity="1" stroke-width="3" stroke="#293b96" x="156.4308683482736" y="199.0830194339195" transform="matrix(0.3169197738170623,0,0,0.3169197738170624,305.8906555175781,138.5384979248047)" svgjs:data="{&quot;leading&quot;:&quot;1.3&quot;}"><tspan dy="0" x="156.4308683482736" svgjs:data="{&quot;newLined&quot;:true}">Player</tspan></text><text fill="#ffffff" font-family="Raider Crusader Title" font-size="45" stroke-opacity="1" stroke-width="3" stroke="#293b96" x="156.4308683482736" y="199.0830194339195" transform="matrix(0.3169197738170623,0,0,0.3169197738170624,338.5724182128905,75.9447021484375)" svgjs:data="{&quot;leading&quot;:&quot;1.3&quot;}"><tspan dy="0" x="156.4308683482736" svgjs:data="{&quot;newLined&quot;:true}">Player</tspan></text><image width="760" height="758" xlink:href="https://lct-designs.s3.us-west-1.amazonaws.com/assets/libs/alliance1-1632042447894.png" class="asset" transform="matrix(0.054848574101924896,0,0,0.05484857410192489,397.21234130859375,142.8983459472656)"></image><image width="760" height="758" xlink:href="https://lct-designs.s3.us-west-1.amazonaws.com/assets/libs/alliance1-1632042447894.png" class="asset" transform="matrix(0.054848574101924896,0,0,0.05484857410192489,364.5306091308594,208.26177978515628)"></image><g class="mask" style="pointer-events: none;"><g><path fill="#BCBEC0" d="M-3642.4-2101.7v4589.1h7813.4v-4589.1H-3642.4z M500.5,67.2v233.3v66.7H0.5v-66.7V67.2V0.5h500V67.2z" transform="matrix(1,0,0,1,0,0)"></path><g transform="matrix(1,0,0,1,0,0)">
	<rect x="0.5" y="300.5" opacity="0.95" fill="#F1F2F2" width="500" height="66.7"></rect>
	<rect x="0.5" y="0.5" opacity="0.95" fill="#F1F2F2" width="500" height="66.7"></rect>
</g></g></g></svg>