<svg xmlns="http://www.w3.org/2000/svg" version="1.1" xmlns:xlink="http://www.w3.org/1999/xlink" xmlns:svgjs="http://svgjs.dev/svgjs" width="100%" height="100%" viewBox="1 1 499 365.70001220703125" preserveAspectRatio="none" data-info="{&quot;_id&quot;:4,&quot;name&quot;:&quot;POLE POCKET SOCCER BANNERS&quot;,&quot;information&quot;:&quot;- Size: 3’x5’\n- Material: heavy duty vinyl banner\n- Digitally printed on vinyl&quot;,&quot;price&quot;:&quot;95.00&quot;,&quot;sale_price&quot;:&quot;89.99&quot;,&quot;type&quot;:&quot;pole-pocket&quot;,&quot;cover&quot;:{&quot;key&quot;:&quot;assets/models/pole-1628062864266-1631924568908.png&quot;,&quot;url&quot;:&quot;https://lct-designs.s3.us-west-1.amazonaws.com/assets/models/pole-1628062864266-1631924568908.png&quot;},&quot;back&quot;:{&quot;key&quot;:&quot;assets/models/pole-1631924700152.svg&quot;,&quot;url&quot;:&quot;https://lct-designs.s3.us-west-1.amazonaws.com/assets/models/pole-1631924700152.svg&quot;},&quot;mask&quot;:{&quot;key&quot;:&quot;assets/models/pole-mask-1631925211715.svg&quot;,&quot;url&quot;:&quot;https://lct-designs.s3.us-west-1.amazonaws.com/assets/models/pole-mask-1631925211715.svg&quot;},&quot;pos&quot;:&quot;2&quot;,&quot;accessories&quot;:&quot;2,3&quot;}" style="background-color: white;"><g class="model" style="pointer-events: none;"><polygon fill="#FFFFFF" points="0.5,0.5 0.5,67.2 0.5,300.5 0.5,367.2 500.5,367.2 500.5,300.5 500.5,67.2 500.5,0.5 "></polygon></g><image width="760" height="553" xlink:href="https://lct-designs.s3.us-west-1.amazonaws.com/assets/libs/ladystrikers-1632741205261.png" class="asset background locked" transform="matrix(0.6631103294883024,0,0,0.6631103294883024,0,0)"></image><text fill="#c1272d" font-family="UTM Rockwell" font-size="50" stroke-opacity="1" stroke-width="1" stroke="#000000" x="-98.72634249947717" y="199.47500657859518" transform="matrix(0.19949717819690704,0,0,0.19949717819690704,27.038284301757812,43.96044158935548)" svgjs:data="{&quot;leading&quot;:&quot;1.3&quot;}"><tspan dy="0" x="-98.72634249947717" svgjs:data="{&quot;newLined&quot;:true}">COACH: COACH'S NAME</tspan></text><text fill="#c1272d" font-family="UTM Rockwell" font-size="50" stroke-opacity="1" stroke-width="1" stroke="#000000" x="-98.72634249947717" y="199.47500657859518" transform="matrix(0.19949692487716675,0,0,0.19949692487716678,325.7008056640625,43.96045303344728)" svgjs:data="{&quot;leading&quot;:&quot;1.3&quot;}"><tspan dy="0" x="-98.72634249947717" svgjs:data="{&quot;newLined&quot;:true}">TEAM MOM: TEAM MOM'S NAME</tspan></text><text fill="#c1272d" font-family="UTM Rockwell" font-size="50" stroke-opacity="1" stroke-width="1" stroke="#000000" x="-98.72634249947717" y="199.47500657859518" transform="matrix(0.27133139967918396,0,0,0.27133139967918396,57.61023712158203,88.57220458984376)" svgjs:data="{&quot;leading&quot;:&quot;1.3&quot;}"><tspan dy="0" x="-98.72634249947717" svgjs:data="{&quot;newLined&quot;:true}">PLAYER</tspan></text><text fill="#c1272d" font-family="UTM Rockwell" font-size="50" stroke-opacity="1" stroke-width="1" stroke="#000000" x="-98.72634249947717" y="199.47500657859518" transform="matrix(0.27133139967918396,0,0,0.27133139967918396,436.4273986816406,88.5722122192383)" svgjs:data="{&quot;leading&quot;:&quot;1.3&quot;}"><tspan dy="0" x="-98.72634249947717" svgjs:data="{&quot;newLined&quot;:true}">PLAYER</tspan></text><text fill="#c1272d" font-family="UTM Rockwell" font-size="50" stroke-opacity="1" stroke-width="1" stroke="#000000" x="-98.72634249947717" y="199.47500657859518" transform="matrix(0.27133139967918396,0,0,0.27133139967918396,153.7392578125,88.57220458984376)" svgjs:data="{&quot;leading&quot;:&quot;1.3&quot;}"><tspan dy="0" x="-98.72634249947717" svgjs:data="{&quot;newLined&quot;:true}">PLAYER</tspan></text><text fill="#c1272d" font-family="UTM Rockwell" font-size="50" stroke-opacity="1" stroke-width="1" stroke="#000000" x="-98.72634249947717" y="199.47500657859518" transform="matrix(0.27133139967918396,0,0,0.27133139967918396,346.53497314453125,88.5722122192383)" svgjs:data="{&quot;leading&quot;:&quot;1.3&quot;}"><tspan dy="0" x="-98.72634249947717" svgjs:data="{&quot;newLined&quot;:true}">PLAYER</tspan></text><text fill="#c1272d" font-family="UTM Rockwell" font-size="50" stroke-opacity="1" stroke-width="1" stroke="#000000" x="-98.72634249947717" y="199.47500657859518" transform="matrix(0.27133139967918396,0,0,0.27133139967918396,251.5886993408203,88.57220458984376)" svgjs:data="{&quot;leading&quot;:&quot;1.3&quot;}"><tspan dy="0" x="-98.72634249947717" svgjs:data="{&quot;newLined&quot;:true}">PLAYER</tspan></text><image width="760" height="485" xlink:href="https://lct-designs.s3.us-west-1.amazonaws.com/assets/libs/ladystrikers-1-1632540672600.png" class="asset" transform="matrix(0.05620097368955612,0,0,0.05620097368955613,40.873382568359375,101.97974395751955)"></image><image width="760" height="485" xlink:href="https://lct-designs.s3.us-west-1.amazonaws.com/assets/libs/ladystrikers-1-1632540672600.png" class="asset" transform="matrix(0.05620100349187851,0,0,0.05620100349187851,419.6905517578125,101.97973632812501)"></image><image width="760" height="485" xlink:href="https://lct-designs.s3.us-west-1.amazonaws.com/assets/libs/ladystrikers-1-1632540672600.png" class="asset" transform="matrix(0.05620094761252403,0,0,0.05620094761252404,137.00242614746094,101.97975921630861)"></image><image width="760" height="485" xlink:href="https://lct-designs.s3.us-west-1.amazonaws.com/assets/libs/ladystrikers-1-1632540672600.png" class="asset" transform="matrix(0.056200988590717316,0,0,0.056200988590717316,329.79815673828125,101.97975921630861)"></image><image width="760" height="485" xlink:href="https://lct-designs.s3.us-west-1.amazonaws.com/assets/libs/ladystrikers-1-1632540672600.png" class="asset" transform="matrix(0.05620095506310463,0,0,0.056200955063104636,234.85186767578125,101.97975921630861)"></image><text fill="#c1272d" font-family="UTM Rockwell" font-size="50" stroke-opacity="1" stroke-width="1" stroke="#000000" x="-98.72634249947717" y="199.47500657859518" transform="matrix(0.27133139967918396,0,0,0.27133139967918396,436.4273986816406,154.16361999511724)" svgjs:data="{&quot;leading&quot;:&quot;1.3&quot;}"><tspan dy="0" x="-98.72634249947717" svgjs:data="{&quot;newLined&quot;:true}">PLAYER</tspan></text><image width="760" height="485" xlink:href="https://lct-designs.s3.us-west-1.amazonaws.com/assets/libs/ladystrikers-1-1632540672600.png" class="asset" transform="matrix(0.056201010942459106,0,0,0.05620101094245911,419.6905517578125,167.5711517333985)"></image><text fill="#c1272d" font-family="UTM Rockwell" font-size="50" stroke-opacity="1" stroke-width="1" stroke="#000000" x="-98.72634249947717" y="199.47500657859518" transform="matrix(0.27133139967918396,0,0,0.27133139967918396,436.4273986816406,226.74424743652344)" svgjs:data="{&quot;leading&quot;:&quot;1.3&quot;}"><tspan dy="0" x="-98.72634249947717" svgjs:data="{&quot;newLined&quot;:true}">PLAYER</tspan></text><image width="760" height="485" xlink:href="https://lct-designs.s3.us-west-1.amazonaws.com/assets/libs/ladystrikers-1-1632540672600.png" class="asset" transform="matrix(0.0562010183930397,0,0,0.05620101839303971,419.6905517578125,240.15179443359375)"></image><text fill="#c1272d" font-family="UTM Rockwell" font-size="50" stroke-opacity="1" stroke-width="1" stroke="#000000" x="-98.72634249947717" y="199.47500657859518" transform="matrix(0.27133139967918396,0,0,0.27133139967918396,57.610229492187486,153.08834838867193)" svgjs:data="{&quot;leading&quot;:&quot;1.3&quot;}"><tspan dy="0" x="-98.72634249947717" svgjs:data="{&quot;newLined&quot;:true}">PLAYER</tspan></text><image width="760" height="485" xlink:href="https://lct-designs.s3.us-west-1.amazonaws.com/assets/libs/ladystrikers-1-1632540672600.png" class="asset" transform="matrix(0.05620095506310463,0,0,0.056200955063104636,40.873371124267564,166.49588012695318)"></image><text fill="#c1272d" font-family="UTM Rockwell" font-size="50" stroke-opacity="1" stroke-width="1" stroke="#000000" x="-98.72634249947717" y="199.47500657859518" transform="matrix(0.27133139967918396,0,0,0.27133139967918396,57.61023712158203,225.6689910888672)" svgjs:data="{&quot;leading&quot;:&quot;1.3&quot;}"><tspan dy="0" x="-98.72634249947717" svgjs:data="{&quot;newLined&quot;:true}">PLAYER</tspan></text><image width="760" height="485" xlink:href="https://lct-designs.s3.us-west-1.amazonaws.com/assets/libs/ladystrikers-1-1632540672600.png" class="asset" transform="matrix(0.056200962513685226,0,0,0.05620096251368523,40.873371124267564,239.07652282714844)"></image><image width="760" height="342" xlink:href="https://lct-designs.s3.us-west-1.amazonaws.com/assets/libs/ladystrikers-2-1632540651527.png" class="asset" transform="matrix(0.362660676240921,0,0,0.362660676240921,112.68712615966797,163.2310333251953)"></image><g class="mask" style="pointer-events: none;"><g><path fill="#BCBEC0" d="M-3642.4-2101.7v4589.1h7813.4v-4589.1H-3642.4z M500.5,67.2v233.3v66.7H0.5v-66.7V67.2V0.5h500V67.2z" transform="matrix(1,0,0,1,0,0)"></path><g transform="matrix(1,0,0,1,0,0)">
	<rect x="0.5" y="300.5" opacity="0.95" fill="#F1F2F2" width="500" height="66.7"></rect>
	<rect x="0.5" y="0.5" opacity="0.95" fill="#F1F2F2" width="500" height="66.7"></rect>
</g></g></g></svg>