<svg xmlns="http://www.w3.org/2000/svg" version="1.1" xmlns:xlink="http://www.w3.org/1999/xlink" xmlns:svgjs="http://svgjs.dev/svgjs" width="100%" height="100%" viewBox="1 1 499 365.70001220703125" preserveAspectRatio="none" data-info="{&quot;_id&quot;:4,&quot;name&quot;:&quot;POLE POCKET SOCCER BANNERS&quot;,&quot;information&quot;:&quot;- Size: 3’x5’\n- Material: heavy duty vinyl banner\n- Digitally printed on vinyl&quot;,&quot;price&quot;:&quot;95.00&quot;,&quot;sale_price&quot;:&quot;89.99&quot;,&quot;type&quot;:&quot;pole-pocket&quot;,&quot;cover&quot;:{&quot;key&quot;:&quot;assets/models/pole-1628062864266-1631924568908.png&quot;,&quot;url&quot;:&quot;https://lct-designs.s3.us-west-1.amazonaws.com/assets/models/pole-1628062864266-1631924568908.png&quot;},&quot;back&quot;:{&quot;key&quot;:&quot;assets/models/pole-1631924700152.svg&quot;,&quot;url&quot;:&quot;https://lct-designs.s3.us-west-1.amazonaws.com/assets/models/pole-1631924700152.svg&quot;},&quot;mask&quot;:{&quot;key&quot;:&quot;assets/models/pole-mask-1631925211715.svg&quot;,&quot;url&quot;:&quot;https://lct-designs.s3.us-west-1.amazonaws.com/assets/models/pole-mask-1631925211715.svg&quot;},&quot;pos&quot;:&quot;2&quot;,&quot;accessories&quot;:&quot;2,3&quot;}" style="background-color: white;"><g class="model" style="pointer-events: none;"><polygon fill="#FFFFFF" points="0.5,0.5 0.5,67.2 0.5,300.5 0.5,367.2 500.5,367.2 500.5,300.5 500.5,67.2 500.5,0.5 "></polygon></g><image width="760" height="556" xlink:href="https://lct-designs.s3.us-west-1.amazonaws.com/assets/libs/vipers-killer-1-1653386108035.png" class="asset background locked" transform="matrix(0.6595323960558116,0,0,0.6595323960558116,0,0)"></image><image width="760" height="266" xlink:href="https://lct-designs.s3.us-west-1.amazonaws.com/assets/libs/vipers-killer-4-1653386200124.png" class="asset" transform="matrix(0.4060839116573334,0,0,0.4060839116573333,78.68783569335938,74.6668930053711)"></image><text fill="#ffffff" font-family="Raider Crusader Halftone" font-size="45" x="165.22113629260954" y="202.40658396333845" transform="matrix(0.46574828028678894,0,0,0.47613424062728876,-2.362034797668457,168.75924682617185)" svgjs:data="{&quot;leading&quot;:&quot;1.3&quot;}"><tspan dy="0" x="165.22113629260954" svgjs:data="{&quot;newLined&quot;:true}">player</tspan></text><image width="760" height="540" xlink:href="https://lct-designs.s3.us-west-1.amazonaws.com/assets/libs/vipers-killer-3-1653386230022.png" class="asset" transform="matrix(0.05137490853667259,0,0,0.05252053961157798,40.30320358276364,245.15283203124997)"></image><text fill="#ffffff" font-family="Raider Crusader Halftone" font-size="45" x="165.22113629260954" y="202.40658396333845" transform="matrix(0.46574828028678894,0,0,0.47613403201103205,-22.671443939208984,126.3634033203125)" svgjs:data="{&quot;leading&quot;:&quot;1.3&quot;}"><tspan dy="0" x="165.22113629260954" svgjs:data="{&quot;newLined&quot;:true}">player</tspan></text><image width="760" height="540" xlink:href="https://lct-designs.s3.us-west-1.amazonaws.com/assets/libs/vipers-killer-3-1653386230022.png" class="asset" transform="matrix(0.051374923437833786,0,0,0.05252054333686828,19.993793487548828,202.75700378417966)"></image><text fill="#ffffff" font-family="Raider Crusader Halftone" font-size="45" x="165.22113629260954" y="202.40658396333845" transform="matrix(0.46574828028678894,0,0,0.47613403201103205,91.74668884277344,124.06890869140622)" svgjs:data="{&quot;leading&quot;:&quot;1.3&quot;}"><tspan dy="0" x="165.22113629260954" svgjs:data="{&quot;newLined&quot;:true}">player</tspan></text><image width="760" height="540" xlink:href="https://lct-designs.s3.us-west-1.amazonaws.com/assets/libs/vipers-killer-3-1653386230022.png" class="asset" transform="matrix(0.05137492716312408,0,0,0.05252054333686828,134.4119415283203,200.4624938964844)"></image><text fill="#ffffff" font-family="Raider Crusader Halftone" font-size="45" x="165.22113629260954" y="202.40658396333845" transform="matrix(0.46574828028678894,0,0,0.47613424062728876,112.05610656738281,166.46473693847656)" svgjs:data="{&quot;leading&quot;:&quot;1.3&quot;}"><tspan dy="0" x="165.22113629260954" svgjs:data="{&quot;newLined&quot;:true}">player</tspan></text><image width="760" height="540" xlink:href="https://lct-designs.s3.us-west-1.amazonaws.com/assets/libs/vipers-killer-3-1653386230022.png" class="asset" transform="matrix(0.05137491226196289,0,0,0.05252053961157798,154.72134399414057,242.85833740234372)"></image><text fill="#ffffff" font-family="Raider Crusader Halftone" font-size="45" x="165.22113629260954" y="202.40658396333845" transform="matrix(0.46574828028678894,0,0,0.4761341214179992,225.2068634033203,164.1952209472656)" svgjs:data="{&quot;leading&quot;:&quot;1.3&quot;}"><tspan dy="0" x="165.22113629260954" svgjs:data="{&quot;newLined&quot;:true}">player</tspan></text><image width="760" height="540" xlink:href="https://lct-designs.s3.us-west-1.amazonaws.com/assets/libs/vipers-killer-3-1653386230022.png" class="asset" transform="matrix(0.051374923437833786,0,0,0.05252054333686828,267.8721008300781,240.58882141113278)"></image><text fill="#ffffff" font-family="Raider Crusader Halftone" font-size="45" x="165.22113629260954" y="202.40658396333845" transform="matrix(0.46574831008911133,0,0,0.4761339724063873,204.89744567871088,121.79939270019531)" svgjs:data="{&quot;leading&quot;:&quot;1.3&quot;}"><tspan dy="0" x="165.22113629260954" svgjs:data="{&quot;newLined&quot;:true}">player</tspan></text><image width="760" height="540" xlink:href="https://lct-designs.s3.us-west-1.amazonaws.com/assets/libs/vipers-killer-3-1653386230022.png" class="asset" transform="matrix(0.051374934613704674,0,0,0.05252054333686828,247.56268310546875,198.19299316406247)"></image><text fill="#ffffff" font-family="Raider Crusader Halftone" font-size="45" x="165.22113629260954" y="202.40658396333845" transform="matrix(0.46574831008911133,0,0,0.4761339724063873,319.3155822753906,119.5048904418945)" svgjs:data="{&quot;leading&quot;:&quot;1.3&quot;}"><tspan dy="0" x="165.22113629260954" svgjs:data="{&quot;newLined&quot;:true}">player</tspan></text><image width="760" height="540" xlink:href="https://lct-designs.s3.us-west-1.amazonaws.com/assets/libs/vipers-killer-3-1653386230022.png" class="asset" transform="matrix(0.05137493833899497,0,0,0.05252054333686828,361.9808349609375,195.89848327636716)"></image><text fill="#ffffff" font-family="Raider Crusader Halftone" font-size="45" x="165.22113629260954" y="202.40658396333845" transform="matrix(0.46574828028678894,0,0,0.4761341214179992,339.625,161.90072631835935)" svgjs:data="{&quot;leading&quot;:&quot;1.3&quot;}"><tspan dy="0" x="165.22113629260954" svgjs:data="{&quot;newLined&quot;:true}">player</tspan></text><image width="760" height="540" xlink:href="https://lct-designs.s3.us-west-1.amazonaws.com/assets/libs/vipers-killer-3-1653386230022.png" class="asset" transform="matrix(0.05137492716312408,0,0,0.05252054333686828,382.2902526855469,238.29431152343747)"></image><text fill="#ffffff" font-family="Raider Crusader Halftone" font-size="45" x="52.59062024036345" y="199.0830194339195" transform="matrix(0.5046080946922302,0,0,0.3565504848957061,-6.628746986389189,217.73141479492185)" svgjs:data="{&quot;leading&quot;:&quot;1.3&quot;}"><tspan dy="0" x="52.59062024036345" svgjs:data="{&quot;newLined&quot;:true}">coach: coach's name</tspan></text><text fill="#ffffff" font-family="Raider Crusader Halftone" font-size="45" x="52.59062024036345" y="199.0830194339195" transform="matrix(0.5046080946922302,0,0,0.3565505146980285,303.0460815429687,218.28533935546872)" svgjs:data="{&quot;leading&quot;:&quot;1.3&quot;}"><tspan dy="0" x="52.59062024036345" svgjs:data="{&quot;newLined&quot;:true}">team mom: name</tspan></text><g class="mask" style="pointer-events: none;"><g><path fill="#BCBEC0" d="M-3642.4-2101.7v4589.1h7813.4v-4589.1H-3642.4z M500.5,67.2v233.3v66.7H0.5v-66.7V67.2V0.5h500V67.2z" transform="matrix(1,0,0,1,0,0)"></path><g transform="matrix(1,0,0,1,0,0)">
	<rect x="0.5" y="300.5" opacity="0.95" fill="#F1F2F2" width="500" height="66.7"></rect>
	<rect x="0.5" y="0.5" opacity="0.95" fill="#F1F2F2" width="500" height="66.7"></rect>
</g></g></g></svg>