<svg xmlns="http://www.w3.org/2000/svg" version="1.1" xmlns:xlink="http://www.w3.org/1999/xlink" xmlns:svgjs="http://svgjs.dev/svgjs" width="100%" height="100%" viewBox="1 1 499 365.70001220703125" preserveAspectRatio="none" data-info="{&quot;_id&quot;:4,&quot;name&quot;:&quot;POLE POCKET SOCCER BANNERS&quot;,&quot;information&quot;:&quot;- Size: 3’x5’\n- Material: heavy duty vinyl banner\n- Digitally printed on vinyl&quot;,&quot;price&quot;:&quot;95.00&quot;,&quot;sale_price&quot;:&quot;89.99&quot;,&quot;type&quot;:&quot;pole-pocket&quot;,&quot;cover&quot;:{&quot;key&quot;:&quot;assets/models/pole-1628062864266-1631924568908.png&quot;,&quot;url&quot;:&quot;https://lct-designs.s3.us-west-1.amazonaws.com/assets/models/pole-1628062864266-1631924568908.png&quot;},&quot;back&quot;:{&quot;key&quot;:&quot;assets/models/pole-1631924700152.svg&quot;,&quot;url&quot;:&quot;https://lct-designs.s3.us-west-1.amazonaws.com/assets/models/pole-1631924700152.svg&quot;},&quot;mask&quot;:{&quot;key&quot;:&quot;assets/models/pole-mask-1631925211715.svg&quot;,&quot;url&quot;:&quot;https://lct-designs.s3.us-west-1.amazonaws.com/assets/models/pole-mask-1631925211715.svg&quot;},&quot;pos&quot;:&quot;2&quot;,&quot;accessories&quot;:&quot;2,3&quot;}" style="background-color: white;"><g class="model" style="pointer-events: none;"><polygon fill="#FFFFFF" points="0.5,0.5 0.5,67.2 0.5,300.5 0.5,367.2 500.5,367.2 500.5,300.5 500.5,67.2 500.5,0.5 "></polygon></g><image width="760" height="556" xlink:href="https://lct-designs.s3.us-west-1.amazonaws.com/assets/libs/steel-magnolias-1-1652258101984.png" class="asset background locked" transform="matrix(0.6595323960558116,0,0,0.6595323960558116,0,0)"></image><image width="760" height="417" xlink:href="https://lct-designs.s3.us-west-1.amazonaws.com/assets/libs/steel-magnolias-2-1652258127389.png" class="asset locked" transform="matrix(0.338346153497696,0,0,0.3383461534976959,121.92675018310553,149.47377014160156)"></image><image width="760" height="154" xlink:href="https://lct-designs.s3.us-west-1.amazonaws.com/assets/libs/steel-magnolias-4-1652258158693.png" class="asset" transform="matrix(0.369680404663086,0,0,0.36968040466308594,110.01959228515628,90.46315002441409)"></image><image width="739" height="760" xlink:href="https://lct-designs.s3.us-west-1.amazonaws.com/assets/libs/steel-magnolias-3-1652258174609.png" class="asset" transform="matrix(0.044421654194593437,0,0,0.044421654194593437,41.66130447387698,176.98753356933597)"></image><text fill="#990000" font-family="Freshman" font-size="45" stroke-opacity="1" stroke-width="2" stroke="#ffffff" x="171.68080181316233" y="200.45062624454897" transform="matrix(0.4272716641426087,0,0,0.42727166414260864,6.247891426086454,115.09432983398438)" svgjs:data="{&quot;leading&quot;:&quot;1.3&quot;}"><tspan dy="0" x="171.68080181316233" svgjs:data="{&quot;newLined&quot;:true}">Player</tspan></text><image width="739" height="760" xlink:href="https://lct-designs.s3.us-west-1.amazonaws.com/assets/libs/steel-magnolias-3-1652258174609.png" class="asset" transform="matrix(0.044421654194593437,0,0,0.044421654194593437,25.883811950683622,136.32325744628906)"></image><text fill="#990000" font-family="Freshman" font-size="45" stroke-opacity="1" stroke-width="2" stroke="#ffffff" x="171.68080181316233" y="200.45062624454897" transform="matrix(0.4272716641426087,0,0,0.42727166414260864,-11.435366630554185,74.92559814453125)" svgjs:data="{&quot;leading&quot;:&quot;1.3&quot;}"><tspan dy="0" x="171.68080181316233" svgjs:data="{&quot;newLined&quot;:true}">Player</tspan></text><text fill="#990000" font-family="Freshman" font-size="45" stroke-opacity="1" stroke-width="2" stroke="#ffffff" x="171.68080181316233" y="200.45062624454897" transform="matrix(0.4272719621658326,0,0,0.4272719621658326,-5.676503181457505,198.15405273437503)" svgjs:data="{&quot;leading&quot;:&quot;1.3&quot;}"><tspan dy="0" x="171.68080181316233" svgjs:data="{&quot;newLined&quot;:true}">Player</tspan></text><image width="739" height="760" xlink:href="https://lct-designs.s3.us-west-1.amazonaws.com/assets/libs/steel-magnolias-3-1652258174609.png" class="asset" transform="matrix(0.044421654194593437,0,0,0.044421654194593437,25.772586822509794,260.0472412109375)"></image><text fill="#990000" font-family="Freshman" font-size="45" stroke-opacity="1" stroke-width="2" stroke="#ffffff" x="171.68080181316233" y="200.45062624454897" transform="matrix(0.4272717237472535,0,0,0.4272717237472534,6.699225425720243,157.51972961425784)" svgjs:data="{&quot;leading&quot;:&quot;1.3&quot;}"><tspan dy="0" x="171.68080181316233" svgjs:data="{&quot;newLined&quot;:true}">Player</tspan></text><image width="739" height="760" xlink:href="https://lct-designs.s3.us-west-1.amazonaws.com/assets/libs/steel-magnolias-3-1652258174609.png" class="asset" transform="matrix(0.044421654194593437,0,0,0.044421654194593437,42.1126403808594,219.41291809082034)"></image><image width="739" height="760" xlink:href="https://lct-designs.s3.us-west-1.amazonaws.com/assets/libs/steel-magnolias-3-1652258174609.png" class="asset" transform="matrix(0.044421654194593437,0,0,0.044421654194593437,385.1601142883301,178.9696960449219)"></image><text fill="#990000" font-family="Freshman" font-size="45" stroke-opacity="1" stroke-width="2" stroke="#ffffff" x="171.68080181316233" y="200.45062624454897" transform="matrix(0.4272717237472535,0,0,0.4272717237472534,349.7467002868653,117.07649230957034)" svgjs:data="{&quot;leading&quot;:&quot;1.3&quot;}"><tspan dy="0" x="171.68080181316233" svgjs:data="{&quot;newLined&quot;:true}">Player</tspan></text><image width="739" height="760" xlink:href="https://lct-designs.s3.us-west-1.amazonaws.com/assets/libs/steel-magnolias-3-1652258174609.png" class="asset" transform="matrix(0.044421654194593437,0,0,0.044421654194593437,369.3826217651368,138.30541992187503)"></image><text fill="#990000" font-family="Freshman" font-size="45" stroke-opacity="1" stroke-width="2" stroke="#ffffff" x="171.68080181316233" y="200.45062624454897" transform="matrix(0.4272717237472535,0,0,0.4272717237472534,332.063443183899,76.90776062011719)" svgjs:data="{&quot;leading&quot;:&quot;1.3&quot;}"><tspan dy="0" x="171.68080181316233" svgjs:data="{&quot;newLined&quot;:true}">Player</tspan></text><text fill="#990000" font-family="Freshman" font-size="45" stroke-opacity="1" stroke-width="2" stroke="#ffffff" x="171.68080181316233" y="200.45062624454897" transform="matrix(0.42727202177047735,0,0,0.42727202177047735,337.82230663299566,200.13621520996097)" svgjs:data="{&quot;leading&quot;:&quot;1.3&quot;}"><tspan dy="0" x="171.68080181316233" svgjs:data="{&quot;newLined&quot;:true}">Player</tspan></text><image width="739" height="760" xlink:href="https://lct-designs.s3.us-west-1.amazonaws.com/assets/libs/steel-magnolias-3-1652258174609.png" class="asset" transform="matrix(0.044421654194593437,0,0,0.044421654194593437,369.27139663696295,262.02940368652344)"></image><text fill="#990000" font-family="Freshman" font-size="45" stroke-opacity="1" stroke-width="2" stroke="#ffffff" x="171.68080181316233" y="200.45062624454897" transform="matrix(0.42727178335189825,0,0,0.4272717833518982,350.1980361938477,159.50189208984378)" svgjs:data="{&quot;leading&quot;:&quot;1.3&quot;}"><tspan dy="0" x="171.68080181316233" svgjs:data="{&quot;newLined&quot;:true}">Player</tspan></text><image width="739" height="760" xlink:href="https://lct-designs.s3.us-west-1.amazonaws.com/assets/libs/steel-magnolias-3-1652258174609.png" class="asset" transform="matrix(0.044421654194593437,0,0,0.044421654194593437,385.6114501953126,221.39508056640622)"></image><text fill="#990000" font-family="Freshman" font-size="45" stroke-opacity="1" stroke-width="2" stroke="#ffffff" x="17.8049816234479" y="199.459545006756" transform="matrix(0.3444015681743622,0,0,0.34440156817436224,1.4952061176300049,18.4354763031006)" svgjs:data="{&quot;leading&quot;:&quot;1.3&quot;}"><tspan dy="0" x="17.8049816234479" svgjs:data="{&quot;newLined&quot;:true}">Coach:Coach's name</tspan></text><text fill="#990000" font-family="Freshman" font-size="45" stroke-opacity="1" stroke-width="2" stroke="#ffffff" x="17.8049816234479" y="199.459545006756" transform="matrix(0.3444016575813294,0,0,0.3444016575813294,356.3914184570313,17.44439697265625)" svgjs:data="{&quot;leading&quot;:&quot;1.3&quot;}"><tspan dy="0" x="17.8049816234479" svgjs:data="{&quot;newLined&quot;:true}">Team mom: name</tspan></text><g class="mask" style="pointer-events: none;"><g><path fill="#BCBEC0" d="M-3642.4-2101.7v4589.1h7813.4v-4589.1H-3642.4z M500.5,67.2v233.3v66.7H0.5v-66.7V67.2V0.5h500V67.2z" transform="matrix(1,0,0,1,0,0)"></path><g transform="matrix(1,0,0,1,0,0)">
	<rect x="0.5" y="300.5" opacity="0.95" fill="#F1F2F2" width="500" height="66.7"></rect>
	<rect x="0.5" y="0.5" opacity="0.95" fill="#F1F2F2" width="500" height="66.7"></rect>
</g></g></g></svg>