<svg xmlns="http://www.w3.org/2000/svg" version="1.1" xmlns:xlink="http://www.w3.org/1999/xlink" xmlns:svgjs="http://svgjs.dev/svgjs" width="100%" height="100%" viewBox="1 1 499 365.70001220703125" preserveAspectRatio="none" data-info="{&quot;_id&quot;:4,&quot;name&quot;:&quot;POLE POCKET SOCCER BANNERS&quot;,&quot;information&quot;:&quot;- Size: 3’x5’\n- Material: heavy duty vinyl banner\n- Digitally printed on vinyl&quot;,&quot;price&quot;:&quot;95.00&quot;,&quot;sale_price&quot;:&quot;89.99&quot;,&quot;type&quot;:&quot;pole-pocket&quot;,&quot;cover&quot;:{&quot;key&quot;:&quot;assets/models/pole-1628062864266-1631924568908.png&quot;,&quot;url&quot;:&quot;https://lct-designs.s3.us-west-1.amazonaws.com/assets/models/pole-1628062864266-1631924568908.png&quot;},&quot;back&quot;:{&quot;key&quot;:&quot;assets/models/pole-1631924700152.svg&quot;,&quot;url&quot;:&quot;https://lct-designs.s3.us-west-1.amazonaws.com/assets/models/pole-1631924700152.svg&quot;},&quot;mask&quot;:{&quot;key&quot;:&quot;assets/models/pole-mask-1631925211715.svg&quot;,&quot;url&quot;:&quot;https://lct-designs.s3.us-west-1.amazonaws.com/assets/models/pole-mask-1631925211715.svg&quot;},&quot;pos&quot;:&quot;2&quot;,&quot;accessories&quot;:&quot;2,3&quot;}" style="background-color: white;"><g class="model" style="pointer-events: none;"><polygon fill="#FFFFFF" points="0.5,0.5 0.5,67.2 0.5,300.5 0.5,367.2 500.5,367.2 500.5,300.5 500.5,67.2 500.5,0.5 "></polygon></g><image width="760" height="557" xlink:href="https://lct-designs.s3.us-west-1.amazonaws.com/assets/libs/asset-7-1654139432015.png" class="asset background locked" transform="matrix(0.6583483163501459,0,0,0.6583483163501459,0,0)"></image><image width="760" height="173" xlink:href="https://lct-designs.s3.us-west-1.amazonaws.com/assets/libs/asset-4-1654139342084.png" class="asset" transform="matrix(0.5638095736503601,0,0,0.56380957365036,33.72200393676758,78.35467529296872)"></image><image width="760" height="760" xlink:href="https://lct-designs.s3.us-west-1.amazonaws.com/assets/libs/asset-3-1654138436486.png" class="asset" transform="matrix(0.04120350256562232,0,0,0.04120350256562232,27.17459487915039,200.6522064208984)"></image><text fill="#ffffff" font-family="Antilles Expanded" font-size="45" stroke-opacity="1" stroke-width="2" stroke="#8e0101" x="182.95358868518767" y="199.63694780916364" transform="matrix(0.5092831254005432,0,0,0.5092831254005432,-29.751522064208956,122.78060913085938)" svgjs:data="{&quot;leading&quot;:&quot;1.3&quot;}"><tspan dy="0" x="182.95358868518767" svgjs:data="{&quot;newLined&quot;:true}">player</tspan></text><image width="760" height="760" xlink:href="https://lct-designs.s3.us-west-1.amazonaws.com/assets/libs/asset-3-1654138436486.png" class="asset" transform="matrix(0.04120350256562232,0,0,0.04120350256562232,142.2193450927734,200.6521911621094)"></image><text fill="#ffffff" font-family="Antilles Expanded" font-size="45" stroke-opacity="1" stroke-width="2" stroke="#8e0101" x="182.95358868518767" y="199.63694780916364" transform="matrix(0.5092831254005432,0,0,0.5092831254005432,85.29322814941409,122.7806167602539)" svgjs:data="{&quot;leading&quot;:&quot;1.3&quot;}"><tspan dy="0" x="182.95358868518767" svgjs:data="{&quot;newLined&quot;:true}">player</tspan></text><image width="760" height="760" xlink:href="https://lct-designs.s3.us-west-1.amazonaws.com/assets/libs/asset-3-1654138436486.png" class="asset" transform="matrix(0.04120350256562232,0,0,0.04120350256562232,262.83538818359375,200.6522064208984)"></image><text fill="#ffffff" font-family="Antilles Expanded" font-size="45" stroke-opacity="1" stroke-width="2" stroke="#8e0101" x="182.95358868518767" y="199.63694780916364" transform="matrix(0.5092830657958984,0,0,0.5092830657958984,205.90925598144528,122.7806167602539)" svgjs:data="{&quot;leading&quot;:&quot;1.3&quot;}"><tspan dy="0" x="182.95358868518767" svgjs:data="{&quot;newLined&quot;:true}">player</tspan></text><image width="760" height="760" xlink:href="https://lct-designs.s3.us-west-1.amazonaws.com/assets/libs/asset-3-1654138436486.png" class="asset" transform="matrix(0.04120350256562232,0,0,0.04120350256562232,378.3890686035156,200.6522064208984)"></image><text fill="#ffffff" font-family="Antilles Expanded" font-size="45" stroke-opacity="1" stroke-width="2" stroke="#8e0101" x="182.95358868518767" y="199.63694780916364" transform="matrix(0.5092831254005432,0,0,0.5092831254005432,321.46295166015625,122.78060913085938)" svgjs:data="{&quot;leading&quot;:&quot;1.3&quot;}"><tspan dy="0" x="182.95358868518767" svgjs:data="{&quot;newLined&quot;:true}">player</tspan></text><image width="760" height="760" xlink:href="https://lct-designs.s3.us-west-1.amazonaws.com/assets/libs/asset-3-1654138436486.png" class="asset" transform="matrix(0.04120350256562232,0,0,0.04120350256562232,23.326419830322266,247.18212890624997)"></image><text fill="#ffffff" font-family="Antilles Expanded" font-size="45" stroke-opacity="1" stroke-width="2" stroke="#8e0101" x="182.95358868518767" y="199.63694780916364" transform="matrix(0.5092830061912537,0,0,0.5092830061912537,-33.59969711303708,169.31053161621094)" svgjs:data="{&quot;leading&quot;:&quot;1.3&quot;}"><tspan dy="0" x="182.95358868518767" svgjs:data="{&quot;newLined&quot;:true}">player</tspan></text><image width="760" height="760" xlink:href="https://lct-designs.s3.us-west-1.amazonaws.com/assets/libs/asset-3-1654138436486.png" class="asset" transform="matrix(0.04120350256562232,0,0,0.04120350256562232,138.37117004394534,247.18211364746097)"></image><text fill="#ffffff" font-family="Antilles Expanded" font-size="45" stroke-opacity="1" stroke-width="2" stroke="#8e0101" x="182.95358868518767" y="199.63694780916364" transform="matrix(0.5092830061912537,0,0,0.5092830061912537,81.44505310058597,169.31053161621094)" svgjs:data="{&quot;leading&quot;:&quot;1.3&quot;}"><tspan dy="0" x="182.95358868518767" svgjs:data="{&quot;newLined&quot;:true}">player</tspan></text><image width="760" height="760" xlink:href="https://lct-designs.s3.us-west-1.amazonaws.com/assets/libs/asset-3-1654138436486.png" class="asset" transform="matrix(0.04120350256562232,0,0,0.04120350256562232,258.9872131347656,247.18212890624997)"></image><text fill="#ffffff" font-family="Antilles Expanded" font-size="45" stroke-opacity="1" stroke-width="2" stroke="#8e0101" x="182.95358868518767" y="199.63694780916364" transform="matrix(0.5092830061912537,0,0,0.5092830061912537,202.06108093261722,169.31053161621094)" svgjs:data="{&quot;leading&quot;:&quot;1.3&quot;}"><tspan dy="0" x="182.95358868518767" svgjs:data="{&quot;newLined&quot;:true}">player</tspan></text><image width="760" height="760" xlink:href="https://lct-designs.s3.us-west-1.amazonaws.com/assets/libs/asset-3-1654138436486.png" class="asset" transform="matrix(0.04120350256562232,0,0,0.04120350256562232,374.5408935546875,247.18212890624997)"></image><text fill="#ffffff" font-family="Antilles Expanded" font-size="45" stroke-opacity="1" stroke-width="2" stroke="#8e0101" x="182.95358868518767" y="199.63694780916364" transform="matrix(0.5092830061912537,0,0,0.5092830061912537,317.6147766113281,169.31053161621094)" svgjs:data="{&quot;leading&quot;:&quot;1.3&quot;}"><tspan dy="0" x="182.95358868518767" svgjs:data="{&quot;newLined&quot;:true}">player</tspan></text><text fill="#ffffff" font-family="Antilles Expanded" font-size="45" stroke-opacity="1" stroke-width="2" stroke="#8e0101" x="182.95358868518767" y="199.63694780916364" transform="matrix(0.5092830061912537,0,0,0.5092830061912537,80.19697570800784,82.8978271484375)" svgjs:data="{&quot;leading&quot;:&quot;1.3&quot;}"><tspan dy="0" x="182.95358868518767" svgjs:data="{&quot;newLined&quot;:true}">coach:coach's name</tspan></text><g class="mask" style="pointer-events: none;"><g><path fill="#BCBEC0" d="M-3642.4-2101.7v4589.1h7813.4v-4589.1H-3642.4z M500.5,67.2v233.3v66.7H0.5v-66.7V67.2V0.5h500V67.2z" transform="matrix(1,0,0,1,0,0)"></path><g transform="matrix(1,0,0,1,0,0)">
	<rect x="0.5" y="300.5" opacity="0.95" fill="#F1F2F2" width="500" height="66.7"></rect>
	<rect x="0.5" y="0.5" opacity="0.95" fill="#F1F2F2" width="500" height="66.7"></rect>
</g></g></g></svg>