<svg xmlns="http://www.w3.org/2000/svg" version="1.1" xmlns:xlink="http://www.w3.org/1999/xlink" xmlns:svgjs="http://svgjs.dev/svgjs" width="100%" height="100%" viewBox="1 1 499 365.70001220703125" preserveAspectRatio="none" data-info="{&quot;_id&quot;:4,&quot;name&quot;:&quot;POLE POCKET SOCCER BANNERS&quot;,&quot;information&quot;:&quot;- Size: 3’x5’\n- Material: heavy duty vinyl banner\n- Digitally printed on vinyl&quot;,&quot;price&quot;:&quot;95.00&quot;,&quot;sale_price&quot;:&quot;89.99&quot;,&quot;type&quot;:&quot;pole-pocket&quot;,&quot;cover&quot;:{&quot;key&quot;:&quot;assets/models/pole-1628062864266-1631924568908.png&quot;,&quot;url&quot;:&quot;https://lct-designs.s3.us-west-1.amazonaws.com/assets/models/pole-1628062864266-1631924568908.png&quot;},&quot;back&quot;:{&quot;key&quot;:&quot;assets/models/pole-1631924700152.svg&quot;,&quot;url&quot;:&quot;https://lct-designs.s3.us-west-1.amazonaws.com/assets/models/pole-1631924700152.svg&quot;},&quot;mask&quot;:{&quot;key&quot;:&quot;assets/models/pole-mask-1631925211715.svg&quot;,&quot;url&quot;:&quot;https://lct-designs.s3.us-west-1.amazonaws.com/assets/models/pole-mask-1631925211715.svg&quot;},&quot;pos&quot;:&quot;2&quot;,&quot;accessories&quot;:&quot;2,3&quot;}" style="background-color: white;"><g class="model" style="pointer-events: none;"><polygon fill="#FFFFFF" points="0.5,0.5 0.5,67.2 0.5,300.5 0.5,367.2 500.5,367.2 500.5,300.5 500.5,67.2 500.5,0.5 "></polygon></g><image width="760" height="556" xlink:href="https://lct-designs.s3.us-west-1.amazonaws.com/assets/libs/pink-1633515464334.png" class="asset background locked" transform="matrix(0.6595323960558116,0,0,0.6595323960558116,0,0)"></image><image width="760" height="750" xlink:href="https://lct-designs.s3.us-west-1.amazonaws.com/assets/libs/pink-1633515603647.png" class="asset" transform="matrix(0.2115250825881958,0,0,0.21152508258819583,321.1035461425781,146.39639282226562)"></image><image width="760" height="239" xlink:href="https://lct-designs.s3.us-west-1.amazonaws.com/assets/libs/asset-1-1655083349046.png" class="asset" transform="matrix(0.39903533458709717,0,0,0.3990353345870972,68.53665924072266,80.90670776367188)"></image><image width="759" height="584" xlink:href="https://lct-designs.s3.us-west-1.amazonaws.com/assets/libs/pink-1633515635784.png" class="asset" transform="matrix(0.05920717798918851,0,0,0.059207177989188516,9.712409971214129,163.70890979393516)"></image><text fill="#ffffff" font-family="American Captain" font-size="45" stroke-opacity="1" stroke-width="2" stroke="#000000" x="196.88482887172975" y="200.20284254700283" transform="matrix(0.4483334081074517,0,0,0.44833340810745176,-35.096544735642055,98.48643976195126)" svgjs:data="{&quot;leading&quot;:&quot;1.3&quot;}"><tspan dy="0" x="196.88482887172975" svgjs:data="{&quot;newLined&quot;:true}">Player</tspan></text><image width="759" height="584" xlink:href="https://lct-designs.s3.us-west-1.amazonaws.com/assets/libs/pink-1633515635784.png" class="asset" transform="matrix(0.05920718237757683,0,0,0.059207182377576835,16.301742553710938,200.475082397461)"></image><text fill="#ffffff" font-family="American Captain" font-size="45" stroke-opacity="1" stroke-width="2" stroke="#000000" x="196.88482887172975" y="200.20284254700283" transform="matrix(0.4483333518152861,0,0,0.44833335181528616,-28.03921304774623,133.3806148121039)" svgjs:data="{&quot;leading&quot;:&quot;1.3&quot;}"><tspan dy="0" x="196.88482887172975" svgjs:data="{&quot;newLined&quot;:true}">Player</tspan></text><image width="759" height="584" xlink:href="https://lct-designs.s3.us-west-1.amazonaws.com/assets/libs/pink-1633515635784.png" class="asset" transform="matrix(0.05920717798918851,0,0,0.059207177989188516,103.10097399033657,168.1979731227475)"></image><text fill="#ffffff" font-family="American Captain" font-size="45" stroke-opacity="1" stroke-width="2" stroke="#000000" x="196.88482887172975" y="200.20284254700283" transform="matrix(0.44833329319953924,0,0,0.4483332931995392,58.76001739501953,101.1034927368164)" svgjs:data="{&quot;leading&quot;:&quot;1.3&quot;}"><tspan dy="0" x="196.88482887172975" svgjs:data="{&quot;newLined&quot;:true}">Player</tspan></text><image width="759" height="584" xlink:href="https://lct-designs.s3.us-west-1.amazonaws.com/assets/libs/pink-1633515635784.png" class="asset" transform="matrix(0.059207189828157425,0,0,0.059207189828157425,118.58248901367188,202.5966187119484)"></image><text fill="#ffffff" font-family="American Captain" font-size="45" stroke-opacity="1" stroke-width="2" stroke="#000000" x="196.88482887172975" y="200.20284254700283" transform="matrix(0.44833329319953924,0,0,0.4483332931995392,74.24153137207031,135.5021362900734)" svgjs:data="{&quot;leading&quot;:&quot;1.3&quot;}"><tspan dy="0" x="196.88482887172975" svgjs:data="{&quot;newLined&quot;:true}">Player</tspan></text><text fill="#ffffff" font-family="American Captain" font-size="45" stroke-opacity="1" stroke-width="2" stroke="#000000" x="196.88482887172975" y="200.20284254700283" transform="matrix(0.4483337740065281,0,0,0.4483337740065281,87.382738660428,166.53008219055846)" svgjs:data="{&quot;leading&quot;:&quot;1.3&quot;}"><tspan dy="0" x="196.88482887172975" svgjs:data="{&quot;newLined&quot;:true}">Player</tspan></text><text fill="#ffffff" font-family="American Captain" font-size="45" stroke-opacity="1" stroke-width="2" stroke="#000000" x="196.88482887172975" y="200.20284254700283" transform="matrix(0.4483335316181183,0,0,0.4483335316181183,-17.39625358581543,167.8514862060547)" svgjs:data="{&quot;leading&quot;:&quot;1.3&quot;}"><tspan dy="0" x="196.88482887172975" svgjs:data="{&quot;newLined&quot;:true}">Player</tspan></text><image width="759" height="584" xlink:href="https://lct-designs.s3.us-west-1.amazonaws.com/assets/libs/pink-1633515635784.png" class="asset" transform="matrix(0.059207186102867126,0,0,0.059207186102867126,26.94470977783203,234.94598388671875)"></image><image width="759" height="584" xlink:href="https://lct-designs.s3.us-west-1.amazonaws.com/assets/libs/pink-1633515635784.png" class="asset" transform="matrix(0.05920717798918851,0,0,0.059207177989188516,131.72370101803972,233.62456485190336)"></image><image width="759" height="584" xlink:href="https://lct-designs.s3.us-west-1.amazonaws.com/assets/libs/pink-1633515635784.png" class="asset" transform="matrix(0.05920718237757683,0,0,0.059207182377576835,201.2091827392578,164.64491271972656)"></image><text fill="#ffffff" font-family="American Captain" font-size="45" stroke-opacity="1" stroke-width="2" stroke="#000000" x="196.88482887172975" y="200.20284254700283" transform="matrix(0.4483335488378657,0,0,0.4483335488378657,156.8682170949869,97.55044425536656)" svgjs:data="{&quot;leading&quot;:&quot;1.3&quot;}"><tspan dy="0" x="196.88482887172975" svgjs:data="{&quot;newLined&quot;:true}">Player</tspan></text><text fill="#ffffff" font-family="American Captain" font-size="45" stroke-opacity="1" stroke-width="2" stroke="#000000" x="196.88482887172975" y="200.20284254700283" transform="matrix(0.44833382964134216,0,0,0.4483338296413422,188.14248657226557,167.46609497070312)" svgjs:data="{&quot;leading&quot;:&quot;1.3&quot;}"><tspan dy="0" x="196.88482887172975" svgjs:data="{&quot;newLined&quot;:true}">Player</tspan></text><image width="759" height="584" xlink:href="https://lct-designs.s3.us-west-1.amazonaws.com/assets/libs/pink-1633515635784.png" class="asset" transform="matrix(0.059207189828157425,0,0,0.059207189828157425,219.66394042968756,200.0346373915673)"></image><text fill="#ffffff" font-family="American Captain" font-size="45" stroke-opacity="1" stroke-width="2" stroke="#000000" x="196.88482887172975" y="200.20284254700283" transform="matrix(0.44833338260650635,0,0,0.44833338260650635,175.32298278808594,132.9401702284813)" svgjs:data="{&quot;leading&quot;:&quot;1.3&quot;}"><tspan dy="0" x="196.88482887172975" svgjs:data="{&quot;newLined&quot;:true}">Player</tspan></text><image width="759" height="584" xlink:href="https://lct-designs.s3.us-west-1.amazonaws.com/assets/libs/pink-1633515635784.png" class="asset" transform="matrix(0.059207189828157425,0,0,0.059207189828157425,232.48344421386713,234.56057739257812)"></image><image width="759" height="584" xlink:href="https://lct-designs.s3.us-west-1.amazonaws.com/assets/libs/pink-1633515635784.png" class="asset" transform="matrix(0.05920717798918851,0,0,0.059207177989188516,196.06109608542465,263.393202222709)"></image><text fill="#ffffff" font-family="American Captain" font-size="45" stroke-opacity="1" stroke-width="2" stroke="#000000" x="196.88482887172975" y="200.20284254700283" transform="matrix(0.4483335614204407,0,0,0.44833356142044073,151.25213623046875,198.17071533203125)" svgjs:data="{&quot;leading&quot;:&quot;1.3&quot;}"><tspan dy="0" x="196.88482887172975" svgjs:data="{&quot;newLined&quot;:true}">Player</tspan></text><image width="759" height="584" xlink:href="https://lct-designs.s3.us-west-1.amazonaws.com/assets/libs/pink-1633515635784.png" class="asset" transform="matrix(0.05920717798918851,0,0,0.059207177989188516,101.60911811704861,263.86120718139864)"></image><text fill="#ffffff" font-family="American Captain" font-size="45" stroke-opacity="1" stroke-width="2" stroke="#000000" x="196.88482887172975" y="200.20284254700283" transform="matrix(0.4483336332761141,0,0,0.4483336332761141,57.268170170231315,196.76671010925932)" svgjs:data="{&quot;leading&quot;:&quot;1.3&quot;}"><tspan dy="0" x="196.88482887172975" svgjs:data="{&quot;newLined&quot;:true}">Player</tspan></text><text fill="#ffffff" font-family="American Captain" font-size="45" stroke-opacity="1" stroke-width="2" stroke="#000000" x="101.58618003750124" y="200.20284254700283" transform="matrix(0.3623974025249481,0,0,0.306201308965683,-30.372167587280273,22.73773574829101)" svgjs:data="{&quot;leading&quot;:&quot;1.3&quot;}"><tspan dy="0" x="101.58618003750124" svgjs:data="{&quot;newLined&quot;:true}">Coach:coach's name</tspan></text><text fill="#ffffff" font-family="American Captain" font-size="45" stroke-opacity="1" stroke-width="2" stroke="#000000" x="101.58618003750124" y="200.20284254700283" transform="matrix(0.3623974025249481,0,0,0.3062013983726502,371.1048889160156,21.74665069580079)" svgjs:data="{&quot;leading&quot;:&quot;1.3&quot;}"><tspan dy="0" x="101.58618003750124" svgjs:data="{&quot;newLined&quot;:true}">Team mom:name</tspan></text><g class="mask" style="pointer-events: none;"><g><path fill="#BCBEC0" d="M-3642.4-2101.7v4589.1h7813.4v-4589.1H-3642.4z M500.5,67.2v233.3v66.7H0.5v-66.7V67.2V0.5h500V67.2z" transform="matrix(1,0,0,1,0,0)"></path><g transform="matrix(1,0,0,1,0,0)">
	<rect x="0.5" y="300.5" opacity="0.95" fill="#F1F2F2" width="500" height="66.7"></rect>
	<rect x="0.5" y="0.5" opacity="0.95" fill="#F1F2F2" width="500" height="66.7"></rect>
</g></g></g></svg>