<svg xmlns="http://www.w3.org/2000/svg" version="1.1" xmlns:xlink="http://www.w3.org/1999/xlink" xmlns:svgjs="http://svgjs.dev/svgjs" width="100%" height="100%" viewBox="1 1 499 365.70001220703125" preserveAspectRatio="none" data-info="{&quot;_id&quot;:4,&quot;name&quot;:&quot;POLE POCKET SOCCER BANNERS&quot;,&quot;information&quot;:&quot;- Size: 3’x5’\n- Material: heavy duty vinyl banner\n- Digitally printed on vinyl&quot;,&quot;price&quot;:&quot;95.00&quot;,&quot;sale_price&quot;:&quot;89.99&quot;,&quot;type&quot;:&quot;pole-pocket&quot;,&quot;cover&quot;:{&quot;key&quot;:&quot;assets/models/pole-1628062864266-1631924568908.png&quot;,&quot;url&quot;:&quot;https://lct-designs.s3.us-west-1.amazonaws.com/assets/models/pole-1628062864266-1631924568908.png&quot;},&quot;back&quot;:{&quot;key&quot;:&quot;assets/models/pole-1631924700152.svg&quot;,&quot;url&quot;:&quot;https://lct-designs.s3.us-west-1.amazonaws.com/assets/models/pole-1631924700152.svg&quot;},&quot;mask&quot;:{&quot;key&quot;:&quot;assets/models/pole-mask-1631925211715.svg&quot;,&quot;url&quot;:&quot;https://lct-designs.s3.us-west-1.amazonaws.com/assets/models/pole-mask-1631925211715.svg&quot;},&quot;pos&quot;:&quot;2&quot;,&quot;accessories&quot;:&quot;2,3&quot;}" style="background-color: white;"><g class="model" style="pointer-events: none;"><polygon fill="#FFFFFF" points="0.5,0.5 0.5,67.2 0.5,300.5 0.5,367.2 500.5,367.2 500.5,300.5 500.5,67.2 500.5,0.5 "></polygon></g><image width="760" height="556" xlink:href="https://lct-designs.s3.us-west-1.amazonaws.com/assets/libs/night-wolves-3--1655086551485.png" class="asset background locked" transform="matrix(0.6595323960558116,0,0,0.6595323960558116,0,0)"></image><text fill="#ffffff" font-family="UTM Rockwell" font-size="50" stroke-opacity="1" stroke-width="2" stroke="#000000" x="-98.72634249947717" y="199.47500657859518" transform="matrix(0.21311892569065094,0,0,0.21311892569065094,32.1444149017334,253.287841796875)" svgjs:data="{&quot;leading&quot;:&quot;1.3&quot;}"><tspan dy="0" x="-98.72634249947717" svgjs:data="{&quot;newLined&quot;:true}">COACH: COACH'S NAME</tspan></text><text fill="#ffffff" font-family="UTM Rockwell" font-size="50" stroke-opacity="1" stroke-width="2" stroke="#000000" x="-98.72634249947717" y="199.47500657859518" transform="matrix(0.21311892569065094,0,0,0.21311892569065094,307.6876525878906,253.28785705566412)" svgjs:data="{&quot;leading&quot;:&quot;1.3&quot;}"><tspan dy="0" x="-98.72634249947717" svgjs:data="{&quot;newLined&quot;:true}">TEAM MOM: TEAM MOM'S NAME</tspan></text><text fill="#ffffff" font-family="UTM Rockwell" font-size="50" stroke-opacity="1" stroke-width="2" stroke="#000000" x="-98.72634249947717" y="199.47500657859518" transform="matrix(0.24344332516193387,0,0,0.2434433251619339,52.513427734375,153.73292541503906)" svgjs:data="{&quot;leading&quot;:&quot;1.3&quot;}"><tspan dy="0" x="-98.72634249947717" svgjs:data="{&quot;newLined&quot;:true}">PLAYER</tspan></text><text fill="#ffffff" font-family="UTM Rockwell" font-size="50" stroke-opacity="1" stroke-width="2" stroke="#000000" x="-98.72634249947717" y="199.47500657859518" transform="matrix(0.24344332516193387,0,0,0.2434433251619339,147.45965576171875,153.73292541503906)" svgjs:data="{&quot;leading&quot;:&quot;1.3&quot;}"><tspan dy="0" x="-98.72634249947717" svgjs:data="{&quot;newLined&quot;:true}">PLAYER</tspan></text><text fill="#ffffff" font-family="UTM Rockwell" font-size="50" stroke-opacity="1" stroke-width="2" stroke="#000000" x="-98.72634249947717" y="199.47500657859518" transform="matrix(0.24344332516193387,0,0,0.2434433251619339,247.4596710205078,153.73292541503906)" svgjs:data="{&quot;leading&quot;:&quot;1.3&quot;}"><tspan dy="0" x="-98.72634249947717" svgjs:data="{&quot;newLined&quot;:true}">PLAYER</tspan></text><text fill="#ffffff" font-family="UTM Rockwell" font-size="50" stroke-opacity="1" stroke-width="2" stroke="#000000" x="-98.72634249947717" y="199.47500657859518" transform="matrix(0.24344332516193387,0,0,0.2434433251619339,342.4058837890625,153.73292541503906)" svgjs:data="{&quot;leading&quot;:&quot;1.3&quot;}"><tspan dy="0" x="-98.72634249947717" svgjs:data="{&quot;newLined&quot;:true}">PLAYER</tspan></text><image width="587" height="760" xlink:href="https://lct-designs.s3.us-west-1.amazonaws.com/assets/libs/night-wolves-1-1651136598892.png" class="asset" transform="matrix(0.05812305957078934,0,0,0.058123059570789344,134.64129638671875,148.40374755859375)"></image><image width="587" height="760" xlink:href="https://lct-designs.s3.us-west-1.amazonaws.com/assets/libs/night-wolves-1-1651136598892.png" class="asset" transform="matrix(0.05812305957078934,0,0,0.058123059570789344,234.6413116455078,148.4037628173828)"></image><image width="587" height="760" xlink:href="https://lct-designs.s3.us-west-1.amazonaws.com/assets/libs/night-wolves-1-1651136598892.png" class="asset" transform="matrix(0.05812308564782142,0,0,0.05812308564782143,329.5875244140625,148.40373229980474)"></image><text fill="#ffffff" font-family="UTM Rockwell" font-size="50" stroke-opacity="1" stroke-width="2" stroke="#000000" x="-98.72634249947717" y="199.47500657859518" transform="matrix(0.24344332516193387,0,0,0.2434433251619339,48.635192871093736,218.80413818359375)" svgjs:data="{&quot;leading&quot;:&quot;1.3&quot;}"><tspan dy="0" x="-98.72634249947717" svgjs:data="{&quot;newLined&quot;:true}">PLAYER</tspan></text><text fill="#ffffff" font-family="UTM Rockwell" font-size="50" stroke-opacity="1" stroke-width="2" stroke="#000000" x="-98.72634249947717" y="199.47500657859518" transform="matrix(0.24344332516193387,0,0,0.2434433251619339,148.63522338867185,218.80413818359375)" svgjs:data="{&quot;leading&quot;:&quot;1.3&quot;}"><tspan dy="0" x="-98.72634249947717" svgjs:data="{&quot;newLined&quot;:true}">PLAYER</tspan></text><text fill="#ffffff" font-family="UTM Rockwell" font-size="50" stroke-opacity="1" stroke-width="2" stroke="#000000" x="-98.72634249947717" y="199.47500657859518" transform="matrix(0.24344332516193387,0,0,0.2434433251619339,243.58142089843744,218.80413818359375)" svgjs:data="{&quot;leading&quot;:&quot;1.3&quot;}"><tspan dy="0" x="-98.72634249947717" svgjs:data="{&quot;newLined&quot;:true}">PLAYER</tspan></text><text fill="#ffffff" font-family="UTM Rockwell" font-size="50" stroke-opacity="1" stroke-width="2" stroke="#000000" x="-98.72634249947717" y="199.47500657859518" transform="matrix(0.24344332516193387,0,0,0.2434433251619339,341.21582031249994,218.80413818359375)" svgjs:data="{&quot;leading&quot;:&quot;1.3&quot;}"><tspan dy="0" x="-98.72634249947717" svgjs:data="{&quot;newLined&quot;:true}">PLAYER</tspan></text><image width="587" height="760" xlink:href="https://lct-designs.s3.us-west-1.amazonaws.com/assets/libs/night-wolves-1-1651136598892.png" class="asset" transform="matrix(0.05812308564782142,0,0,0.05812308564782142,35.81683349609375,213.47496032714844)"></image><image width="587" height="760" xlink:href="https://lct-designs.s3.us-west-1.amazonaws.com/assets/libs/night-wolves-1-1651136598892.png" class="asset" transform="matrix(0.05812308564782142,0,0,0.05812308564782142,135.8168487548828,213.47497558593744)"></image><image width="587" height="760" xlink:href="https://lct-designs.s3.us-west-1.amazonaws.com/assets/libs/night-wolves-1-1651136598892.png" class="asset" transform="matrix(0.05812310799956321,0,0,0.05812310799956321,230.7630615234375,213.47494506835938)"></image><image width="587" height="760" xlink:href="https://lct-designs.s3.us-west-1.amazonaws.com/assets/libs/night-wolves-1-1651136598892.png" class="asset" transform="matrix(0.058123122900724404,0,0,0.05812312290072441,328.39746093749994,213.4749298095703)"></image><image width="587" height="760" xlink:href="https://lct-designs.s3.us-west-1.amazonaws.com/assets/libs/night-wolves-1-1651136598892.png" class="asset" transform="matrix(0.05812302604317665,0,0,0.05812302604317665,39.695068359374986,148.40377807617193)"></image><image width="760" height="141" xlink:href="https://lct-designs.s3.us-west-1.amazonaws.com/assets/libs/night-wolves-3-1651136598893.png" class="asset" transform="matrix(0.528103768825531,0,0,0.528103768825531,49.81789779663086,70.84786987304688)"></image><image width="547" height="760" xlink:href="https://lct-designs.s3.us-west-1.amazonaws.com/assets/libs/night-wolves-4-1651136598893.png" class="asset" transform="matrix(0.1756751090288162,0,0,0.17567510902881622,388.0672302246093,145.78244018554688)"></image><g class="mask" style="pointer-events: none;"><g><path fill="#BCBEC0" d="M-3642.4-2101.7v4589.1h7813.4v-4589.1H-3642.4z M500.5,67.2v233.3v66.7H0.5v-66.7V67.2V0.5h500V67.2z" transform="matrix(1,0,0,1,0,0)"></path><g transform="matrix(1,0,0,1,0,0)">
	<rect x="0.5" y="300.5" opacity="0.95" fill="#F1F2F2" width="500" height="66.7"></rect>
	<rect x="0.5" y="0.5" opacity="0.95" fill="#F1F2F2" width="500" height="66.7"></rect>
</g></g></g></svg>