<svg xmlns="http://www.w3.org/2000/svg" version="1.1" xmlns:xlink="http://www.w3.org/1999/xlink" xmlns:svgjs="http://svgjs.dev/svgjs" width="100%" height="100%" viewBox="1 1 499 365.70001220703125" preserveAspectRatio="none" data-info="{&quot;_id&quot;:4,&quot;name&quot;:&quot;POLE POCKET SOCCER BANNERS&quot;,&quot;information&quot;:&quot;- Size: 3’x5’\n- Material: heavy duty vinyl banner\n- Digitally printed on vinyl&quot;,&quot;price&quot;:&quot;95.00&quot;,&quot;sale_price&quot;:&quot;89.99&quot;,&quot;type&quot;:&quot;pole-pocket&quot;,&quot;cover&quot;:{&quot;key&quot;:&quot;assets/models/pole-1628062864266-1631924568908.png&quot;,&quot;url&quot;:&quot;https://lct-designs.s3.us-west-1.amazonaws.com/assets/models/pole-1628062864266-1631924568908.png&quot;},&quot;back&quot;:{&quot;key&quot;:&quot;assets/models/pole-1631924700152.svg&quot;,&quot;url&quot;:&quot;https://lct-designs.s3.us-west-1.amazonaws.com/assets/models/pole-1631924700152.svg&quot;},&quot;mask&quot;:{&quot;key&quot;:&quot;assets/models/pole-mask-1631925211715.svg&quot;,&quot;url&quot;:&quot;https://lct-designs.s3.us-west-1.amazonaws.com/assets/models/pole-mask-1631925211715.svg&quot;},&quot;pos&quot;:&quot;2&quot;,&quot;accessories&quot;:&quot;2,3&quot;}" style="background-color: white;"><g class="model" style="pointer-events: none;"><polygon fill="#FFFFFF" points="0.5,0.5 0.5,67.2 0.5,300.5 0.5,367.2 500.5,367.2 500.5,300.5 500.5,67.2 500.5,0.5 "></polygon></g><image width="760" height="556" xlink:href="https://lct-designs.s3.us-west-1.amazonaws.com/assets/libs/orange-ninja-soccer-banner-1655093198258.png" class="asset background locked" transform="matrix(0.6595323960558116,0,0,0.6595323960558116,0,0)"></image><text fill="#e78c02" font-family="Chunky Funks" font-size="50" stroke-opacity="1" stroke-width="2" stroke="#ffffff" x="-98.72634249947717" y="199.47500657859518" transform="matrix(0.21311862766742706,0,0,0.21311862766742706,31.073219299316406,39.29721069335936)" svgjs:data="{&quot;leading&quot;:&quot;1.3&quot;}"><tspan dy="0" x="-98.72634249947717" svgjs:data="{&quot;newLined&quot;:true}">COACH: COACH'S NAME</tspan></text><text fill="#e18201" font-family="Chunky Funks" font-size="50" stroke-opacity="1" stroke-width="2" stroke="#ffffff" x="-98.72634249947717" y="199.47500657859518" transform="matrix(0.21311888098716736,0,0,0.2131188809871674,350.7486572265625,39.29713439941408)" svgjs:data="{&quot;leading&quot;:&quot;1.3&quot;}"><tspan dy="0" x="-98.72634249947717" svgjs:data="{&quot;newLined&quot;:true}">TEAM MOM: TEAM MOM'S NAME</tspan></text><text fill="#e18201" font-family="Chunky Funks" font-size="50" stroke-opacity="1" stroke-width="2" stroke="#ffffff" x="-98.72634249947717" y="199.47500657859518" transform="matrix(0.2847954332828522,0,0,0.2847954332828522,48.119521379470825,92.52297216653825)" svgjs:data="{&quot;leading&quot;:&quot;1.3&quot;}"><tspan dy="0" x="-98.72634249947717" svgjs:data="{&quot;newLined&quot;:true}">PLAYER</tspan></text><text fill="#e18201" font-family="Chunky Funks" font-size="50" stroke-opacity="1" stroke-width="2" stroke="#ffffff" x="-98.72634249947717" y="199.47500657859518" transform="matrix(0.2847956120967865,0,0,0.2847956120967865,147.58053588867188,92.52293395996095)" svgjs:data="{&quot;leading&quot;:&quot;1.3&quot;}"><tspan dy="0" x="-98.72634249947717" svgjs:data="{&quot;newLined&quot;:true}">PLAYER</tspan></text><text fill="#e18201" font-family="Chunky Funks" font-size="50" stroke-opacity="1" stroke-width="2" stroke="#ffffff" x="-98.72634249947717" y="199.47500657859518" transform="matrix(0.2847956120967865,0,0,0.2847956120967865,146.29019165039065,157.57669067382812)" svgjs:data="{&quot;leading&quot;:&quot;1.3&quot;}"><tspan dy="0" x="-98.72634249947717" svgjs:data="{&quot;newLined&quot;:true}">PLAYER</tspan></text><text fill="#e18201" font-family="Chunky Funks" font-size="50" stroke-opacity="1" stroke-width="2" stroke="#ffffff" x="-98.72634249947717" y="199.47500657859518" transform="matrix(0.2847956120967865,0,0,0.2847956120967865,248.390380859375,157.57669067382812)" svgjs:data="{&quot;leading&quot;:&quot;1.3&quot;}"><tspan dy="0" x="-98.72634249947717" svgjs:data="{&quot;newLined&quot;:true}">PLAYER</tspan></text><text fill="#e18201" font-family="Chunky Funks" font-size="50" stroke-opacity="1" stroke-width="2" stroke="#ffffff" x="-98.72634249947717" y="199.47500657859518" transform="matrix(0.2847956120967865,0,0,0.2847956120967865,351.07720947265625,157.57669067382812)" svgjs:data="{&quot;leading&quot;:&quot;1.3&quot;}"><tspan dy="0" x="-98.72634249947717" svgjs:data="{&quot;newLined&quot;:true}">PLAYER</tspan></text><text fill="#e18201" font-family="Chunky Funks" font-size="50" stroke-opacity="1" stroke-width="2" stroke="#ffffff" x="-98.72634249947717" y="199.47500657859518" transform="matrix(0.2847956120967865,0,0,0.2847956120967865,453.470703125,157.5767059326172)" svgjs:data="{&quot;leading&quot;:&quot;1.3&quot;}"><tspan dy="0" x="-98.72634249947717" svgjs:data="{&quot;newLined&quot;:true}">PLAYER</tspan></text><image width="760" height="760" xlink:href="https://lct-designs.s3.us-west-1.amazonaws.com/assets/libs/orange-ninja-3-1651202173048.png" class="asset" transform="matrix(0.043479718267917626,0,0,0.04347971826791764,435.99700927734375,166.5611572265625)"></image><image width="760" height="760" xlink:href="https://lct-designs.s3.us-west-1.amazonaws.com/assets/libs/orange-ninja-3-1651202173048.png" class="asset" transform="matrix(0.043479718267917626,0,0,0.04347971826791764,128.8164825439453,166.5611572265625)"></image><image width="760" height="760" xlink:href="https://lct-designs.s3.us-west-1.amazonaws.com/assets/libs/orange-ninja-3-1651202173048.png" class="asset" transform="matrix(0.043479718267917626,0,0,0.04347971826791764,230.9167022705078,166.5611572265625)"></image><image width="760" height="760" xlink:href="https://lct-designs.s3.us-west-1.amazonaws.com/assets/libs/orange-ninja-3-1651202173048.png" class="asset" transform="matrix(0.043479718267917626,0,0,0.04347971826791764,333.6035461425781,166.56117248535156)"></image><text fill="#e18201" font-family="Chunky Funks" font-size="50" stroke-opacity="1" stroke-width="2" stroke="#ffffff" x="-98.72634249947717" y="199.47500657859518" transform="matrix(0.2847956120967865,0,0,0.2847956120967865,249.6807403564453,92.52293395996095)" svgjs:data="{&quot;leading&quot;:&quot;1.3&quot;}"><tspan dy="0" x="-98.72634249947717" svgjs:data="{&quot;newLined&quot;:true}">PLAYER</tspan></text><text fill="#e18201" font-family="Chunky Funks" font-size="50" stroke-opacity="1" stroke-width="2" stroke="#ffffff" x="-98.72634249947717" y="199.47500657859518" transform="matrix(0.2847956120967865,0,0,0.2847956120967865,352.3675537109375,92.52293395996095)" svgjs:data="{&quot;leading&quot;:&quot;1.3&quot;}"><tspan dy="0" x="-98.72634249947717" svgjs:data="{&quot;newLined&quot;:true}">PLAYER</tspan></text><text fill="#e18201" font-family="Chunky Funks" font-size="50" stroke-opacity="1" stroke-width="2" stroke="#ffffff" x="-98.72634249947717" y="199.47500657859518" transform="matrix(0.2847956120967865,0,0,0.2847956120967865,454.7610473632813,92.52294158935548)" svgjs:data="{&quot;leading&quot;:&quot;1.3&quot;}"><tspan dy="0" x="-98.72634249947717" svgjs:data="{&quot;newLined&quot;:true}">PLAYER</tspan></text><image width="760" height="760" xlink:href="https://lct-designs.s3.us-west-1.amazonaws.com/assets/libs/orange-ninja-3-1651202173048.png" class="asset" transform="matrix(0.043479718267917626,0,0,0.04347971826791764,437.287353515625,101.50739288330077)"></image><image width="760" height="760" xlink:href="https://lct-designs.s3.us-west-1.amazonaws.com/assets/libs/orange-ninja-3-1651202173048.png" class="asset" transform="matrix(0.043479718267917626,0,0,0.04347971826791764,130.10682678222656,101.50740051269533)"></image><image width="760" height="760" xlink:href="https://lct-designs.s3.us-west-1.amazonaws.com/assets/libs/orange-ninja-3-1651202173048.png" class="asset" transform="matrix(0.043479718267917626,0,0,0.04347971826791764,232.20704650878906,101.50740051269533)"></image><image width="760" height="760" xlink:href="https://lct-designs.s3.us-west-1.amazonaws.com/assets/libs/orange-ninja-3-1651202173048.png" class="asset" transform="matrix(0.043479718267917626,0,0,0.04347971826791764,334.8938903808594,101.50740814208986)"></image><image width="760" height="760" xlink:href="https://lct-designs.s3.us-west-1.amazonaws.com/assets/libs/orange-ninja-3-1651202173048.png" class="asset" transform="matrix(0.04347970709204674,0,0,0.043479707092046745,30.645827531814568,101.50738531351091)"></image><image width="760" height="174" xlink:href="https://lct-designs.s3.us-west-1.amazonaws.com/assets/libs/orange-ninja-4-1651202177344.png" class="asset" transform="matrix(0.3880220353603363,0,0,0.38802203536033636,103.0496826171875,226.20372009277344)"></image><image width="521" height="760" xlink:href="https://lct-designs.s3.us-west-1.amazonaws.com/assets/libs/orange-ninja-2-1651202163978.png" class="asset" transform="matrix(0.1704861968755722,0,0,0.17048619687557223,8.734431266784668,161.30700683593756)"></image><g class="mask" style="pointer-events: none;"><g><path fill="#BCBEC0" d="M-3642.4-2101.7v4589.1h7813.4v-4589.1H-3642.4z M500.5,67.2v233.3v66.7H0.5v-66.7V67.2V0.5h500V67.2z" transform="matrix(1,0,0,1,0,0)"></path><g transform="matrix(1,0,0,1,0,0)">
	<rect x="0.5" y="300.5" opacity="0.95" fill="#F1F2F2" width="500" height="66.7"></rect>
	<rect x="0.5" y="0.5" opacity="0.95" fill="#F1F2F2" width="500" height="66.7"></rect>
</g></g></g></svg>