<svg xmlns="http://www.w3.org/2000/svg" version="1.1" xmlns:xlink="http://www.w3.org/1999/xlink" xmlns:svgjs="http://svgjs.dev/svgjs" width="100%" height="100%" viewBox="1 1 499 365.70001220703125" preserveAspectRatio="none" data-info="{&quot;_id&quot;:4,&quot;name&quot;:&quot;POLE POCKET SOCCER BANNERS&quot;,&quot;information&quot;:&quot;- Size: 3’x5’\n- Material: heavy duty vinyl banner\n- Digitally printed on vinyl&quot;,&quot;price&quot;:&quot;95.00&quot;,&quot;sale_price&quot;:&quot;89.99&quot;,&quot;type&quot;:&quot;pole-pocket&quot;,&quot;cover&quot;:{&quot;key&quot;:&quot;assets/models/pole-1628062864266-1631924568908.png&quot;,&quot;url&quot;:&quot;https://lct-designs.s3.us-west-1.amazonaws.com/assets/models/pole-1628062864266-1631924568908.png&quot;},&quot;back&quot;:{&quot;key&quot;:&quot;assets/models/pole-1631924700152.svg&quot;,&quot;url&quot;:&quot;https://lct-designs.s3.us-west-1.amazonaws.com/assets/models/pole-1631924700152.svg&quot;},&quot;mask&quot;:{&quot;key&quot;:&quot;assets/models/pole-mask-1631925211715.svg&quot;,&quot;url&quot;:&quot;https://lct-designs.s3.us-west-1.amazonaws.com/assets/models/pole-mask-1631925211715.svg&quot;},&quot;pos&quot;:&quot;2&quot;,&quot;accessories&quot;:&quot;2,3&quot;}" style="background-color: white;"><g class="model" style="pointer-events: none;"><polygon fill="#FFFFFF" points="0.5,0.5 0.5,67.2 0.5,300.5 0.5,367.2 500.5,367.2 500.5,300.5 500.5,67.2 500.5,0.5 "></polygon></g><image width="760" height="553" xlink:href="https://lct-designs.s3.us-west-1.amazonaws.com/assets/libs/nemesis-1633402757837.png" class="asset background locked" transform="matrix(0.6631103294883024,0,0,0.6631103294883024,0,0)"></image><text fill="#cc181f" font-family="Skater Girls Rock" font-size="50" stroke-opacity="1" stroke-width="1" stroke="#ffffff" x="-98.72634249947717" y="199.47500657859518" transform="matrix(0.24672721326351166,0,0,0.24672721326351166,38.17503356933594,32.74737548828125)" svgjs:data="{&quot;leading&quot;:&quot;1.3&quot;}"><tspan dy="0" x="-98.72634249947717" svgjs:data="{&quot;newLined&quot;:true}">COACH: COACH'S NAME</tspan></text><text fill="#cd181f" font-family="Skater Girls Rock" font-size="50" stroke-opacity="1" stroke-width="1" stroke="#ffffff" x="-98.72634249947717" y="199.47500657859518" transform="matrix(0.24672727286815643,0,0,0.24672727286815646,367.4583740234375,32.747344970703125)" svgjs:data="{&quot;leading&quot;:&quot;1.3&quot;}"><tspan dy="0" x="-98.72634249947717" svgjs:data="{&quot;newLined&quot;:true}">TEAM MOM: TEAM MOM'S NAME</tspan></text><text fill="#cc181f" font-family="Skater Girls Rock" font-size="50" stroke-opacity="1" stroke-width="1" stroke="#ffffff" x="-98.72634249947717" y="199.47500657859518" transform="matrix(0.3519860506057739,0,0,0.351986050605774,51.11777114868164,85.18110656738281)" svgjs:data="{&quot;leading&quot;:&quot;1.3&quot;}"><tspan dy="0" x="-98.72634249947717" svgjs:data="{&quot;newLined&quot;:true}">PLAYER</tspan></text><image width="760" height="489" xlink:href="https://lct-designs.s3.us-west-1.amazonaws.com/assets/libs/nemesis-1-1633342536152.png" class="asset" transform="matrix(0.08210439234972,0,0,0.08210439234972,11.42787837982177,97.95317077636719)"></image><text fill="#cc181f" font-family="Skater Girls Rock" font-size="50" stroke-opacity="1" stroke-width="1" stroke="#ffffff" x="-98.72634249947717" y="199.47500657859518" transform="matrix(0.3519860506057739,0,0,0.351986050605774,469.18231201171875,85.18109893798828)" svgjs:data="{&quot;leading&quot;:&quot;1.3&quot;}"><tspan dy="0" x="-98.72634249947717" svgjs:data="{&quot;newLined&quot;:true}">PLAYER</tspan></text><text fill="#cc181f" font-family="Skater Girls Rock" font-size="50" stroke-opacity="1" stroke-width="1" stroke="#ffffff" x="-98.72634249947717" y="199.47500657859518" transform="matrix(0.3519860506057739,0,0,0.351986050605774,469.18231201171875,205.88002014160153)" svgjs:data="{&quot;leading&quot;:&quot;1.3&quot;}"><tspan dy="0" x="-98.72634249947717" svgjs:data="{&quot;newLined&quot;:true}">PLAYER</tspan></text><text fill="#cc181f" font-family="Skater Girls Rock" font-size="50" stroke-opacity="1" stroke-width="1" stroke="#ffffff" x="-98.72634249947717" y="199.47500657859518" transform="matrix(0.3519860506057739,0,0,0.351986050605774,51.11776351928711,205.88002014160153)" svgjs:data="{&quot;leading&quot;:&quot;1.3&quot;}"><tspan dy="0" x="-98.72634249947717" svgjs:data="{&quot;newLined&quot;:true}">PLAYER</tspan></text><text fill="#cc181f" font-family="Skater Girls Rock" font-size="50" stroke-opacity="1" stroke-width="1" stroke="#ffffff" x="-98.72634249947717" y="199.47500657859518" transform="matrix(0.3519860506057739,0,0,0.351986050605774,186.92422485351562,205.88003540039065)" svgjs:data="{&quot;leading&quot;:&quot;1.3&quot;}"><tspan dy="0" x="-98.72634249947717" svgjs:data="{&quot;newLined&quot;:true}">PLAYER</tspan></text><image width="760" height="489" xlink:href="https://lct-designs.s3.us-west-1.amazonaws.com/assets/libs/nemesis-1-1633342536152.png" class="asset" transform="matrix(0.08210439234972,0,0,0.08210439234972,147.23434448242188,218.65209960937503)"></image><text fill="#cc181f" font-family="Skater Girls Rock" font-size="50" stroke-opacity="1" stroke-width="1" stroke="#ffffff" x="-98.72634249947717" y="199.47500657859518" transform="matrix(0.3519860506057739,0,0,0.351986050605774,328.8596496582031,205.88002014160153)" svgjs:data="{&quot;leading&quot;:&quot;1.3&quot;}"><tspan dy="0" x="-98.72634249947717" svgjs:data="{&quot;newLined&quot;:true}">PLAYER</tspan></text><image width="760" height="489" xlink:href="https://lct-designs.s3.us-west-1.amazonaws.com/assets/libs/nemesis-1-1633342536152.png" class="asset" transform="matrix(0.08210439234972,0,0,0.08210439234972,288.63214111328125,218.65209960937503)"></image><image width="760" height="489" xlink:href="https://lct-designs.s3.us-west-1.amazonaws.com/assets/libs/nemesis-1-1633342536152.png" class="asset" transform="matrix(0.08210439234972,0,0,0.08210439234972,428.9548034667969,218.65206909179685)"></image><image width="760" height="489" xlink:href="https://lct-designs.s3.us-west-1.amazonaws.com/assets/libs/nemesis-1-1633342536152.png" class="asset" transform="matrix(0.08210439234972,0,0,0.08210439234972,10.890247344970703,218.65206909179685)"></image><image width="760" height="489" xlink:href="https://lct-designs.s3.us-west-1.amazonaws.com/assets/libs/nemesis-1-1633342536152.png" class="asset" transform="matrix(0.08210439234972,0,0,0.08210439234972,429.492431640625,97.95316314697268)"></image><text fill="#cc181f" font-family="Skater Girls Rock" font-size="50" stroke-opacity="1" stroke-width="1" stroke="#ffffff" x="-98.72634249947717" y="199.47500657859518" transform="matrix(0.3519860506057739,0,0,0.351986050605774,416.22534179687506,143.7832489013672)" svgjs:data="{&quot;leading&quot;:&quot;1.3&quot;}"><tspan dy="0" x="-98.72634249947717" svgjs:data="{&quot;newLined&quot;:true}">PLAYER</tspan></text><image width="760" height="489" xlink:href="https://lct-designs.s3.us-west-1.amazonaws.com/assets/libs/nemesis-1-1633342536152.png" class="asset" transform="matrix(0.08210439234972,0,0,0.08210439234972,376.53546142578125,156.5553131103516)"></image><image width="760" height="298" xlink:href="https://lct-designs.s3.us-west-1.amazonaws.com/assets/libs/nemesis-2-1633342518597.png" class="asset" transform="matrix(0.3264198899269104,0,0,0.3264198899269104,126.45880889892578,102.4161148071289)"></image><text fill="#cc181f" font-family="Skater Girls Rock" font-size="50" stroke-opacity="1" stroke-width="1" stroke="#ffffff" x="-98.72634249947717" y="199.47500657859518" transform="matrix(0.3519860506057739,0,0,0.351986050605774,101.38658142089844,144.85852050781253)" svgjs:data="{&quot;leading&quot;:&quot;1.3&quot;}"><tspan dy="0" x="-98.72634249947717" svgjs:data="{&quot;newLined&quot;:true}">PLAYER</tspan></text><image width="760" height="489" xlink:href="https://lct-designs.s3.us-west-1.amazonaws.com/assets/libs/nemesis-1-1633342536152.png" class="asset" transform="matrix(0.08210439234972,0,0,0.08210439234972,61.69669723510741,157.6305847167969)"></image><g class="mask" style="pointer-events: none;"><g><path fill="#BCBEC0" d="M-3642.4-2101.7v4589.1h7813.4v-4589.1H-3642.4z M500.5,67.2v233.3v66.7H0.5v-66.7V67.2V0.5h500V67.2z" transform="matrix(1,0,0,1,0,0)"></path><g transform="matrix(1,0,0,1,0,0)">
	<rect x="0.5" y="300.5" opacity="0.95" fill="#F1F2F2" width="500" height="66.7"></rect>
	<rect x="0.5" y="0.5" opacity="0.95" fill="#F1F2F2" width="500" height="66.7"></rect>
</g></g></g></svg>