<svg xmlns="http://www.w3.org/2000/svg" version="1.1" xmlns:xlink="http://www.w3.org/1999/xlink" xmlns:svgjs="http://svgjs.dev/svgjs" width="100%" height="100%" viewBox="1 1 499 365.70001220703125" preserveAspectRatio="none" data-info="{&quot;_id&quot;:4,&quot;name&quot;:&quot;POLE POCKET SOCCER BANNERS&quot;,&quot;information&quot;:&quot;- Size: 3’x5’\n- Material: heavy duty vinyl banner\n- Digitally printed on vinyl&quot;,&quot;price&quot;:&quot;95.00&quot;,&quot;sale_price&quot;:&quot;89.99&quot;,&quot;type&quot;:&quot;pole-pocket&quot;,&quot;cover&quot;:{&quot;key&quot;:&quot;assets/models/pole-1628062864266-1631924568908.png&quot;,&quot;url&quot;:&quot;https://lct-designs.s3.us-west-1.amazonaws.com/assets/models/pole-1628062864266-1631924568908.png&quot;},&quot;back&quot;:{&quot;key&quot;:&quot;assets/models/pole-1631924700152.svg&quot;,&quot;url&quot;:&quot;https://lct-designs.s3.us-west-1.amazonaws.com/assets/models/pole-1631924700152.svg&quot;},&quot;mask&quot;:{&quot;key&quot;:&quot;assets/models/pole-mask-1631925211715.svg&quot;,&quot;url&quot;:&quot;https://lct-designs.s3.us-west-1.amazonaws.com/assets/models/pole-mask-1631925211715.svg&quot;},&quot;pos&quot;:&quot;2&quot;,&quot;accessories&quot;:&quot;2,3&quot;}" style="background-color: white;"><g class="model" style="pointer-events: none;"><polygon fill="#FFFFFF" points="0.5,0.5 0.5,67.2 0.5,300.5 0.5,367.2 500.5,367.2 500.5,300.5 500.5,67.2 500.5,0.5 "></polygon></g><image width="760" height="556" xlink:href="https://lct-designs.s3.us-west-1.amazonaws.com/assets/libs/poltergeist-5-1652079787941.png" class="asset background locked" transform="matrix(0.6595323960558116,0,0,0.6595323960558116,0,0)"></image><image width="760" height="111" xlink:href="https://lct-designs.s3.us-west-1.amazonaws.com/assets/libs/poltergeist-1-1652079787940.png" class="asset" transform="matrix(0.6180955171585084,0,0,0.6180955171585083,10.661673545837402,225.60140991210935)"></image><image width="592" height="760" xlink:href="https://lct-designs.s3.us-west-1.amazonaws.com/assets/libs/poltergeist-3-1652079787941.png" class="asset" transform="matrix(0.1504875719547272,0,0,0.15048757195472717,403.5257873535156,109.5640563964844)"></image><text fill="#ffffff" font-family="Raider Crusader Straight" font-size="45" x="106.33640701011515" y="198.96400438785952" stroke-opacity="1" stroke-width="2" stroke="#000000" transform="matrix(0.37179344892501837,0,0,0.3717934489250183,-33.7363395690918,13.66533374786377)" svgjs:data="{&quot;leading&quot;:&quot;1.3&quot;}"><tspan dy="0" x="106.33640701011515" svgjs:data="{&quot;newLined&quot;:true}">team mom:name</tspan></text><text fill="#ffffff" font-family="Raider Crusader Straight" font-size="45" x="106.33640701011515" y="198.96400438785952" stroke-opacity="1" stroke-width="2" stroke="#000000" transform="matrix(0.3717934191226959,0,0,0.3717934191226959,314.71789550781256,13.66533374786377)" svgjs:data="{&quot;leading&quot;:&quot;1.3&quot;}"><tspan dy="0" x="106.33640701011515" svgjs:data="{&quot;newLined&quot;:true}">Coach:coach's name</tspan></text><text fill="#ffffff" font-family="Raider Crusader Straight" font-size="45" stroke-opacity="1" stroke-width="2" stroke="#000000" x="183.47814208701945" y="198.96400438785952" transform="matrix(0.3472099900245667,0,0,0.34720999002456665,-25.65702813863753,157.65720367431643)" svgjs:data="{&quot;leading&quot;:&quot;1.3&quot;}"><tspan dy="0" x="183.47814208701945" svgjs:data="{&quot;newLined&quot;:true}">Player</tspan></text><text fill="#ffffff" font-family="Raider Crusader Straight" font-size="45" stroke-opacity="1" stroke-width="2" stroke="#000000" x="183.47814208701945" y="198.96400438785952" transform="matrix(0.3472101092338562,0,0,0.3472101092338562,83.36420440673831,155.21282958984378)" svgjs:data="{&quot;leading&quot;:&quot;1.3&quot;}"><tspan dy="0" x="183.47814208701945" svgjs:data="{&quot;newLined&quot;:true}">Player</tspan></text><image width="760" height="708" xlink:href="https://lct-designs.s3.us-west-1.amazonaws.com/assets/libs/poltergeist-2-1652079787941.png" class="asset" transform="matrix(0.048644199967384345,0,0,0.045694705098867416,91.1991882324219,144.95935058593753)"></image><text fill="#ffffff" font-family="Raider Crusader Straight" font-size="45" stroke-opacity="1" stroke-width="2" stroke="#000000" x="183.47814208701945" y="198.96400438785952" transform="matrix(0.330377072095871,0,0,0.3103449046611786,25.38799476623538,129.99530029296878)" svgjs:data="{&quot;leading&quot;:&quot;1.3&quot;}"><tspan dy="0" x="183.47814208701945" svgjs:data="{&quot;newLined&quot;:true}">Player</tspan></text><image width="760" height="708" xlink:href="https://lct-designs.s3.us-west-1.amazonaws.com/assets/libs/poltergeist-2-1652079787941.png" class="asset" transform="matrix(0.048644199967384345,0,0,0.045694705098867416,137.78631591796875,111.82259368896484)"></image><text fill="#ffffff" font-family="Raider Crusader Straight" font-size="45" stroke-opacity="1" stroke-width="2" stroke="#000000" x="183.47814208701945" y="198.96400438785952" transform="matrix(0.3303771317005158,0,0,0.31034496426582336,71.97512817382815,96.85855865478516)" svgjs:data="{&quot;leading&quot;:&quot;1.3&quot;}"><tspan dy="0" x="183.47814208701945" svgjs:data="{&quot;newLined&quot;:true}">Player</tspan></text><image width="760" height="708" xlink:href="https://lct-designs.s3.us-west-1.amazonaws.com/assets/libs/poltergeist-2-1652079787941.png" class="asset" transform="matrix(0.048644199967384345,0,0,0.045694705098867416,191.35105895996094,139.13310241699222)"></image><text fill="#ffffff" font-family="Raider Crusader Straight" font-size="45" stroke-opacity="1" stroke-width="2" stroke="#000000" x="183.47814208701945" y="198.96400438785952" transform="matrix(0.3303771615028382,0,0,0.31034502387046814,125.53984832763672,124.16906738281253)" svgjs:data="{&quot;leading&quot;:&quot;1.3&quot;}"><tspan dy="0" x="183.47814208701945" svgjs:data="{&quot;newLined&quot;:true}">Player</tspan></text><image width="760" height="708" xlink:href="https://lct-designs.s3.us-west-1.amazonaws.com/assets/libs/poltergeist-2-1652079787941.png" class="asset" transform="matrix(0.048644199967384345,0,0,0.045694705098867416,243.7528686523438,113.27915954589847)"></image><text fill="#ffffff" font-family="Raider Crusader Straight" font-size="45" stroke-opacity="1" stroke-width="2" stroke="#000000" x="183.47814208701945" y="198.96400438785952" transform="matrix(0.3303771913051606,0,0,0.3103450536727905,177.94166564941412,98.31510925292969)" svgjs:data="{&quot;leading&quot;:&quot;1.3&quot;}"><tspan dy="0" x="183.47814208701945" svgjs:data="{&quot;newLined&quot;:true}">Player</tspan></text><text fill="#ffffff" font-family="Raider Crusader Straight" font-size="45" stroke-opacity="1" stroke-width="2" stroke="#000000" x="183.47814208701945" y="198.96400438785952" transform="matrix(0.3303771913051606,0,0,0.3103450536727905,221.81527709960943,129.99530029296878)" svgjs:data="{&quot;leading&quot;:&quot;1.3&quot;}"><tspan dy="0" x="183.47814208701945" svgjs:data="{&quot;newLined&quot;:true}">Player</tspan></text><image width="760" height="708" xlink:href="https://lct-designs.s3.us-west-1.amazonaws.com/assets/libs/poltergeist-2-1652079787941.png" class="asset" transform="matrix(0.04864421486854554,0,0,0.04569471627473831,287.6264953613282,144.95935058593753)"></image><text fill="#ffffff" font-family="Raider Crusader Straight" font-size="45" stroke-opacity="1" stroke-width="2" stroke="#000000" x="183.47814208701945" y="198.96400438785952" transform="matrix(0.3303771913051606,0,0,0.3103450536727905,270.46630859375,95.44703674316409)" svgjs:data="{&quot;leading&quot;:&quot;1.3&quot;}"><tspan dy="0" x="183.47814208701945" svgjs:data="{&quot;newLined&quot;:true}">Player</tspan></text><image width="760" height="708" xlink:href="https://lct-designs.s3.us-west-1.amazonaws.com/assets/libs/poltergeist-2-1652079787941.png" class="asset" transform="matrix(0.048644226044416435,0,0,0.04569472000002861,336.2775268554688,110.41107940673828)"></image><image width="760" height="708" xlink:href="https://lct-designs.s3.us-west-1.amazonaws.com/assets/libs/poltergeist-2-1652079787941.png" class="asset" transform="matrix(0.04864421486854554,0,0,0.04569471627473831,146.83000183105474,177.81863403320315)"></image><image width="760" height="708" xlink:href="https://lct-designs.s3.us-west-1.amazonaws.com/assets/libs/poltergeist-2-1652079787941.png" class="asset" transform="matrix(0.048644226044416435,0,0,0.04569472000002861,240.0655975341797,173.51713562011722)"></image><text fill="#ffffff" font-family="Raider Crusader Straight" font-size="45" stroke-opacity="1" stroke-width="2" stroke="#000000" x="183.47814208701945" y="198.96400438785952" transform="matrix(0.3303771913051606,0,0,0.3103450536727905,174.25439453125,158.5531005859375)" svgjs:data="{&quot;leading&quot;:&quot;1.3&quot;}"><tspan dy="0" x="183.47814208701945" svgjs:data="{&quot;newLined&quot;:true}">Player</tspan></text><text fill="#ffffff" font-family="Raider Crusader Straight" font-size="45" stroke-opacity="1" stroke-width="2" stroke="#000000" x="183.47814208701945" y="198.96400438785952" transform="matrix(0.3303771913051606,0,0,0.3103450536727905,279.50997924804693,161.4430694580078)" svgjs:data="{&quot;leading&quot;:&quot;1.3&quot;}"><tspan dy="0" x="183.47814208701945" svgjs:data="{&quot;newLined&quot;:true}">Player</tspan></text><image width="760" height="708" xlink:href="https://lct-designs.s3.us-west-1.amazonaws.com/assets/libs/poltergeist-2-1652079787941.png" class="asset" transform="matrix(0.04864424094557763,0,0,0.04569473862648011,345.3211975097657,176.40711975097656)"></image><text fill="#ffffff" font-family="Raider Crusader Straight" font-size="45" stroke-opacity="1" stroke-width="2" stroke="#000000" x="183.47814208701945" y="198.96400438785952" transform="matrix(0.3303771913051606,0,0,0.3103450536727905,129.18112182617188,66.21388244628908)" svgjs:data="{&quot;leading&quot;:&quot;1.3&quot;}"><tspan dy="0" x="183.47814208701945" svgjs:data="{&quot;newLined&quot;:true}">Player</tspan></text><image width="760" height="708" xlink:href="https://lct-designs.s3.us-west-1.amazonaws.com/assets/libs/poltergeist-2-1652079787941.png" class="asset" transform="matrix(0.04864424094557763,0,0,0.04569473862648011,194.99232482910162,81.17793273925781)"></image><g class="mask" style="pointer-events: none;"><g><path fill="#BCBEC0" d="M-3642.4-2101.7v4589.1h7813.4v-4589.1H-3642.4z M500.5,67.2v233.3v66.7H0.5v-66.7V67.2V0.5h500V67.2z" transform="matrix(1,0,0,1,0,0)"></path><g transform="matrix(1,0,0,1,0,0)">
	<rect x="0.5" y="300.5" opacity="0.95" fill="#F1F2F2" width="500" height="66.7"></rect>
	<rect x="0.5" y="0.5" opacity="0.95" fill="#F1F2F2" width="500" height="66.7"></rect>
</g></g></g><image width="760" height="708" xlink:href="https://lct-designs.s3.us-west-1.amazonaws.com/assets/libs/poltergeist-2-1652079787941.png" class="asset" transform="matrix(0.04864419979135338,0,0,0.04569470365676676,33.69015843465513,114.0074416034513)"></image><text fill="#ffffff" font-family="Raider Crusader Straight" font-size="45" stroke-opacity="1" stroke-width="2" stroke="#000000" x="183.47814208701945" y="198.96400438785952" transform="matrix(0.3303770102979975,0,0,0.31034490536031006,-32.121043967536934,99.04339767404053)" svgjs:data="{&quot;leading&quot;:&quot;1.3&quot;}"><tspan dy="0" x="183.47814208701945" svgjs:data="{&quot;newLined&quot;:true}">Player</tspan></text><image width="760" height="708" xlink:href="https://lct-designs.s3.us-west-1.amazonaws.com/assets/libs/poltergeist-2-1652079787941.png" class="asset" transform="matrix(0.04864420688072469,0,0,0.045694710316280585,42.73383144163654,180.00348022933397)"></image></svg>