<svg xmlns="http://www.w3.org/2000/svg" version="1.1" xmlns:xlink="http://www.w3.org/1999/xlink" xmlns:svgjs="http://svgjs.dev/svgjs" width="100%" height="100%" viewBox="1 1 499 365.70001220703125" preserveAspectRatio="none" data-info="{&quot;_id&quot;:4,&quot;name&quot;:&quot;POLE POCKET SOCCER BANNERS&quot;,&quot;information&quot;:&quot;- Size: 3’x5’\n- Material: heavy duty vinyl banner\n- Digitally printed on vinyl&quot;,&quot;price&quot;:&quot;95.00&quot;,&quot;sale_price&quot;:&quot;89.99&quot;,&quot;type&quot;:&quot;pole-pocket&quot;,&quot;cover&quot;:{&quot;key&quot;:&quot;assets/models/pole-1628062864266-1631924568908.png&quot;,&quot;url&quot;:&quot;https://lct-designs.s3.us-west-1.amazonaws.com/assets/models/pole-1628062864266-1631924568908.png&quot;},&quot;back&quot;:{&quot;key&quot;:&quot;assets/models/pole-1631924700152.svg&quot;,&quot;url&quot;:&quot;https://lct-designs.s3.us-west-1.amazonaws.com/assets/models/pole-1631924700152.svg&quot;},&quot;mask&quot;:{&quot;key&quot;:&quot;assets/models/pole-mask-1631925211715.svg&quot;,&quot;url&quot;:&quot;https://lct-designs.s3.us-west-1.amazonaws.com/assets/models/pole-mask-1631925211715.svg&quot;},&quot;pos&quot;:&quot;2&quot;,&quot;accessories&quot;:&quot;2,3&quot;}" style="background-color: white;"><g class="model" style="pointer-events: none;"><polygon fill="#FFFFFF" points="0.5,0.5 0.5,67.2 0.5,300.5 0.5,367.2 500.5,367.2 500.5,300.5 500.5,67.2 500.5,0.5 "></polygon></g><image width="760" height="556" xlink:href="https://lct-designs.s3.us-west-1.amazonaws.com/assets/libs/smilers-1655181194889.png" class="asset background locked" transform="matrix(0.6595323960558116,0,0,0.6595323960558116,0,0)"></image><image width="760" height="258" xlink:href="https://lct-designs.s3.us-west-1.amazonaws.com/assets/libs/soccer-smilers-2-1633515620072.png" class="asset" transform="matrix(0.37231987714767456,0,0,0.3723198771476746,141.9967041015625,137.19920349121094)"></image><text fill="#f16523" font-family="American Captain" font-size="45" stroke-opacity="1" stroke-width="1" stroke="#000000" x="101.57844977101183" y="200.41361831492046" transform="matrix(0.4828556776046753,0,0,0.48285567760467535,-35.348453521728516,191.70068359375)" svgjs:data="{&quot;leading&quot;:&quot;1.3&quot;}"><tspan dy="0" x="101.57844977101183" svgjs:data="{&quot;newLined&quot;:true}">Coach:Coach's name</tspan></text><image width="744" height="760" xlink:href="https://lct-designs.s3.us-west-1.amazonaws.com/assets/libs/soccer-smilers-2-1633515635786.png" class="asset" transform="matrix(0.040015805512666695,0,0,0.040015805512666695,97.75606536865233,93.32126617431636)"></image><text fill="#ffffff" font-family="American Captain" font-size="45" stroke-opacity="1" stroke-width="2" stroke="#000000" x="196.88393072804308" y="200.41361831492046" transform="matrix(0.4083425402641296,0,0,0.40834254026412964,50.94593048095702,32.74853897094725)" svgjs:data="{&quot;leading&quot;:&quot;1.3&quot;}"><tspan dy="0" x="196.88393072804308" svgjs:data="{&quot;newLined&quot;:true}">Player</tspan></text><text fill="#ffffff" font-family="American Captain" font-size="45" stroke-opacity="1" stroke-width="2" stroke="#000000" x="196.88393072804308" y="200.41361831492046" transform="matrix(0.4083424806594848,0,0,0.4083424806594848,143.17820739746094,39.765651702880845)" svgjs:data="{&quot;leading&quot;:&quot;1.3&quot;}"><tspan dy="0" x="196.88393072804308" svgjs:data="{&quot;newLined&quot;:true}">Player</tspan></text><image width="744" height="760" xlink:href="https://lct-designs.s3.us-west-1.amazonaws.com/assets/libs/soccer-smilers-2-1633515635786.png" class="asset" transform="matrix(0.040015805512666695,0,0,0.040015805512666695,189.98834228515622,100.33837890624999)"></image><text fill="#ffffff" font-family="American Captain" font-size="45" stroke-opacity="1" stroke-width="2" stroke="#000000" x="196.88393072804308" y="200.41361831492046" transform="matrix(0.40834242105484003,0,0,0.40834242105484003,234.67184448242182,36.81107711791991)" svgjs:data="{&quot;leading&quot;:&quot;1.3&quot;}"><tspan dy="0" x="196.88393072804308" svgjs:data="{&quot;newLined&quot;:true}">Player</tspan></text><image width="744" height="760" xlink:href="https://lct-designs.s3.us-west-1.amazonaws.com/assets/libs/soccer-smilers-2-1633515635786.png" class="asset" transform="matrix(0.040015805512666695,0,0,0.040015805512666695,281.4819641113281,97.38380432128908)"></image><text fill="#ffffff" font-family="American Captain" font-size="45" stroke-opacity="1" stroke-width="2" stroke="#000000" x="196.88393072804308" y="200.41361831492046" transform="matrix(0.40834230184555054,0,0,0.40834230184555054,327.0298156738281,36.81107711791991)" svgjs:data="{&quot;leading&quot;:&quot;1.3&quot;}"><tspan dy="0" x="196.88393072804308" svgjs:data="{&quot;newLined&quot;:true}">Player</tspan></text><image width="744" height="760" xlink:href="https://lct-designs.s3.us-west-1.amazonaws.com/assets/libs/soccer-smilers-2-1633515635786.png" class="asset" transform="matrix(0.040015805512666695,0,0,0.040015805512666695,373.8399353027344,97.38380432128908)"></image><text fill="#ffffff" font-family="American Captain" font-size="45" stroke-opacity="1" stroke-width="2" stroke="#000000" x="196.88393072804308" y="200.41361831492046" transform="matrix(0.40834230184555054,0,0,0.40834230184555054,-36.571685791015625,20.70756912231444)" svgjs:data="{&quot;leading&quot;:&quot;1.3&quot;}"><tspan dy="0" x="196.88393072804308" svgjs:data="{&quot;newLined&quot;:true}">Player</tspan></text><text fill="#f16523" font-family="American Captain" font-size="45" stroke-opacity="1" stroke-width="1" stroke="#000000" x="101.57844977101183" y="200.41361831492046" transform="matrix(0.4828557074069977,0,0,0.4828557074069977,331.689453125,-7.522779464721673)" svgjs:data="{&quot;leading&quot;:&quot;1.3&quot;}"><tspan dy="0" x="101.57844977101183" svgjs:data="{&quot;newLined&quot;:true}">Team mom: name</tspan></text><image width="719" height="760" xlink:href="https://lct-designs.s3.us-west-1.amazonaws.com/assets/libs/soccer-smilers-2-1633515603648.png" class="asset" transform="matrix(0.19555887579917908,0,0,0.1939338594675064,11.295594215393066,124.14800262451172)"></image><image width="744" height="760" xlink:href="https://lct-designs.s3.us-west-1.amazonaws.com/assets/libs/soccer-smilers-2-1633515635786.png" class="asset" transform="matrix(0.04001580551266671,0,0,0.0400158055126667,10.23843383789064,81.28029632568357)"></image><text fill="#ffffff" font-family="American Captain" font-size="45" stroke-opacity="1" stroke-width="2" stroke="#000000" x="196.88393072804308" y="200.41361831492046" transform="matrix(0.40834248065948486,0,0,0.40834248065948486,159.619613647461,182.39677047729492)" svgjs:data="{&quot;leading&quot;:&quot;1.3&quot;}"><tspan dy="0" x="196.88393072804308" svgjs:data="{&quot;newLined&quot;:true}">Player</tspan></text><image width="744" height="760" xlink:href="https://lct-designs.s3.us-west-1.amazonaws.com/assets/libs/soccer-smilers-2-1633515635786.png" class="asset" transform="matrix(0.04001580551266671,0,0,0.0400158055126667,206.42974853515625,242.96949768066403)"></image><text fill="#ffffff" font-family="American Captain" font-size="45" stroke-opacity="1" stroke-width="2" stroke="#000000" x="196.88393072804308" y="200.41361831492046" transform="matrix(0.4083424210548401,0,0,0.4083424210548401,251.11325073242188,179.44219589233398)" svgjs:data="{&quot;leading&quot;:&quot;1.3&quot;}"><tspan dy="0" x="196.88393072804308" svgjs:data="{&quot;newLined&quot;:true}">Player</tspan></text><image width="744" height="760" xlink:href="https://lct-designs.s3.us-west-1.amazonaws.com/assets/libs/soccer-smilers-2-1633515635786.png" class="asset" transform="matrix(0.04001580551266671,0,0,0.0400158055126667,297.9233703613282,240.01492309570315)"></image><text fill="#ffffff" font-family="American Captain" font-size="45" stroke-opacity="1" stroke-width="2" stroke="#000000" x="196.88393072804308" y="200.41361831492046" transform="matrix(0.40834230184555054,0,0,0.40834230184555054,343.4712219238282,179.44219589233398)" svgjs:data="{&quot;leading&quot;:&quot;1.3&quot;}"><tspan dy="0" x="196.88393072804308" svgjs:data="{&quot;newLined&quot;:true}">Player</tspan></text><image width="744" height="760" xlink:href="https://lct-designs.s3.us-west-1.amazonaws.com/assets/libs/soccer-smilers-2-1633515635786.png" class="asset" transform="matrix(0.04001580551266671,0,0,0.0400158055126667,390.2813415527344,240.01492309570315)"></image><g class="mask" style="pointer-events: none;"><g><path fill="#BCBEC0" d="M-3642.4-2101.7v4589.1h7813.4v-4589.1H-3642.4z M500.5,67.2v233.3v66.7H0.5v-66.7V67.2V0.5h500V67.2z" transform="matrix(1,0,0,1,0,0)"></path><g transform="matrix(1,0,0,1,0,0)">
	<rect x="0.5" y="300.5" opacity="0.95" fill="#F1F2F2" width="500" height="66.7"></rect>
	<rect x="0.5" y="0.5" opacity="0.95" fill="#F1F2F2" width="500" height="66.7"></rect>
</g></g></g></svg>