<svg xmlns="http://www.w3.org/2000/svg" version="1.1" xmlns:xlink="http://www.w3.org/1999/xlink" xmlns:svgjs="http://svgjs.dev/svgjs" width="100%" height="100%" viewBox="1 1 499 365.70001220703125" preserveAspectRatio="none" data-info="{&quot;_id&quot;:4,&quot;name&quot;:&quot;POLE POCKET SOCCER BANNERS&quot;,&quot;information&quot;:&quot;- Size: 3’x5’\n- Material: heavy duty vinyl banner\n- Digitally printed on vinyl&quot;,&quot;price&quot;:&quot;95.00&quot;,&quot;sale_price&quot;:&quot;89.99&quot;,&quot;type&quot;:&quot;pole-pocket&quot;,&quot;cover&quot;:{&quot;key&quot;:&quot;assets/models/pole-1628062864266-1631924568908.png&quot;,&quot;url&quot;:&quot;https://lct-designs.s3.us-west-1.amazonaws.com/assets/models/pole-1628062864266-1631924568908.png&quot;},&quot;back&quot;:{&quot;key&quot;:&quot;assets/models/pole-1631924700152.svg&quot;,&quot;url&quot;:&quot;https://lct-designs.s3.us-west-1.amazonaws.com/assets/models/pole-1631924700152.svg&quot;},&quot;mask&quot;:{&quot;key&quot;:&quot;assets/models/pole-mask-1631925211715.svg&quot;,&quot;url&quot;:&quot;https://lct-designs.s3.us-west-1.amazonaws.com/assets/models/pole-mask-1631925211715.svg&quot;},&quot;pos&quot;:&quot;2&quot;,&quot;accessories&quot;:&quot;2,3&quot;}" style="background-color: white;"><g class="model" style="pointer-events: none;"><polygon fill="#FFFFFF" points="0.5,0.5 0.5,67.2 0.5,300.5 0.5,367.2 500.5,367.2 500.5,300.5 500.5,67.2 500.5,0.5 "></polygon></g><image width="760" height="554" xlink:href="https://lct-designs.s3.us-west-1.amazonaws.com/assets/libs/asset-1-1655086817053.png" class="asset background locked" transform="matrix(0.6619133794350744,0,0,0.6619133794350744,0,0)"></image><g class="g-selected"></g><image width="511" height="760" xlink:href="https://lct-designs.s3.us-west-1.amazonaws.com/assets/libs/pink-panthers-1-1652066750763.png" class="asset" transform="matrix(0.1980848461389542,0,0,0.19808484613895416,192.11708068847662,129.88121032714844)"></image><text fill="#000000" font-family="American Captain" font-size="45" stroke-opacity="1" stroke-width="2" stroke="#ff00b7" x="196.88483852580882" y="200.20285593510073" transform="matrix(0.4112512171268463,0,0,0.3526103496551514,-13.802774429321275,121.52195745706558)" svgjs:data="{&quot;leading&quot;:&quot;1.3&quot;}"><tspan dy="0" x="196.88483852580882" svgjs:data="{&quot;newLined&quot;:true}">Player</tspan></text><image width="754" height="760" xlink:href="https://lct-designs.s3.us-west-1.amazonaws.com/assets/libs/pink-panthers-4-1652066750762.png" class="asset" transform="matrix(0.03685063496232033,0,0,0.03685063496232033,31.56501770019534,171.08239752054217)"></image><text fill="#000000" font-family="American Captain" font-size="45" stroke-opacity="1" stroke-width="2" stroke="#ff00b7" x="196.88483852580882" y="200.20285593510073" transform="matrix(0.4112512171268463,0,0,0.35261040925979614,73.99710083007812,122.51303106546402)" svgjs:data="{&quot;leading&quot;:&quot;1.3&quot;}"><tspan dy="0" x="196.88483852580882" svgjs:data="{&quot;newLined&quot;:true}">Player</tspan></text><image width="754" height="760" xlink:href="https://lct-designs.s3.us-west-1.amazonaws.com/assets/libs/pink-panthers-4-1652066750762.png" class="asset" transform="matrix(0.03685063496232033,0,0,0.03685063496232033,119.36488342285159,172.0734711289406)"></image><image width="754" height="760" xlink:href="https://lct-designs.s3.us-west-1.amazonaws.com/assets/libs/pink-panthers-4-1652066750762.png" class="asset" transform="matrix(0.03685063496232033,0,0,0.03685063496232033,15.558111190795927,133.3500061631203)"></image><text fill="#000000" font-family="American Captain" font-size="45" stroke-opacity="1" stroke-width="2" stroke="#ff00b7" x="196.88483852580882" y="200.20285593510073" transform="matrix(0.4112512171268463,0,0,0.3526101708412171,-29.809680938720703,83.78955847024918)" svgjs:data="{&quot;leading&quot;:&quot;1.3&quot;}"><tspan dy="0" x="196.88483852580882" svgjs:data="{&quot;newLined&quot;:true}">Player</tspan></text><text fill="#000000" font-family="American Captain" font-size="45" stroke-opacity="1" stroke-width="2" stroke="#ff00b7" x="196.88483852580882" y="200.20285593510073" transform="matrix(0.4112512171268463,0,0,0.3526104688644409,-14.704659938812242,161.6607514023781)" svgjs:data="{&quot;leading&quot;:&quot;1.3&quot;}"><tspan dy="0" x="196.88483852580882" svgjs:data="{&quot;newLined&quot;:true}">Player</tspan></text><image width="754" height="760" xlink:href="https://lct-designs.s3.us-west-1.amazonaws.com/assets/libs/pink-panthers-4-1652066750762.png" class="asset" transform="matrix(0.03685063496232033,0,0,0.03685063496232033,30.663131713867188,211.22119146585467)"></image><text fill="#000000" font-family="American Captain" font-size="45" stroke-opacity="1" stroke-width="2" stroke="#ff00b7" x="196.88483852580882" y="200.20285593510073" transform="matrix(0.4112512171268463,0,0,0.3526105284690857,73.09521484375003,162.65182501077655)" svgjs:data="{&quot;leading&quot;:&quot;1.3&quot;}"><tspan dy="0" x="196.88483852580882" svgjs:data="{&quot;newLined&quot;:true}">Player</tspan></text><image width="754" height="760" xlink:href="https://lct-designs.s3.us-west-1.amazonaws.com/assets/libs/pink-panthers-4-1652066750762.png" class="asset" transform="matrix(0.03685063496232033,0,0,0.03685063496232033,118.46299743652347,212.2122650742531)"></image><image width="754" height="760" xlink:href="https://lct-designs.s3.us-west-1.amazonaws.com/assets/libs/pink-panthers-4-1652066750762.png" class="asset" transform="matrix(0.03685063496232033,0,0,0.03685063496232033,108.31339263916018,132.3589172959328)"></image><text fill="#000000" font-family="American Captain" font-size="45" stroke-opacity="1" stroke-width="2" stroke="#ff00b7" x="196.88483852580882" y="200.20285593510073" transform="matrix(0.4112512171268463,0,0,0.35261026024818426,62.945594787597685,82.79846960306168)" svgjs:data="{&quot;leading&quot;:&quot;1.3&quot;}"><tspan dy="0" x="196.88483852580882" svgjs:data="{&quot;newLined&quot;:true}">Player</tspan></text><text fill="#000000" font-family="American Captain" font-size="45" stroke-opacity="1" stroke-width="2" stroke="#ff00b7" x="196.88483852580882" y="200.20285593510073" transform="matrix(0.4112512171268463,0,0,0.3526105284690857,-26.508447647094712,198.33076483011249)" svgjs:data="{&quot;leading&quot;:&quot;1.3&quot;}"><tspan dy="0" x="196.88483852580882" svgjs:data="{&quot;newLined&quot;:true}">Player</tspan></text><image width="754" height="760" xlink:href="https://lct-designs.s3.us-west-1.amazonaws.com/assets/libs/pink-panthers-4-1652066750762.png" class="asset" transform="matrix(0.03685063496232033,0,0,0.03685063496232033,18.859344482421903,247.89120489358905)"></image><text fill="#000000" font-family="American Captain" font-size="45" stroke-opacity="1" stroke-width="2" stroke="#ff00b7" x="196.88483852580882" y="200.20285593510073" transform="matrix(0.4112512171268463,0,0,0.35261064767837524,61.291427612304716,199.32183843851092)" svgjs:data="{&quot;leading&quot;:&quot;1.3&quot;}"><tspan dy="0" x="196.88483852580882" svgjs:data="{&quot;newLined&quot;:true}">Player</tspan></text><image width="754" height="760" xlink:href="https://lct-designs.s3.us-west-1.amazonaws.com/assets/libs/pink-panthers-4-1652066750762.png" class="asset" transform="matrix(0.03685063496232033,0,0,0.03685063496232033,106.65921020507812,248.88226324319842)"></image><image width="760" height="96" xlink:href="https://lct-designs.s3.us-west-1.amazonaws.com/assets/libs/pink-panthers-3-1652066750762.png" class="asset" transform="matrix(0.4825504124164582,0,0,0.48255041241645813,67.12844085693362,78.421630859375)"></image><text fill="#000000" font-family="American Captain" font-size="45" stroke-opacity="1" stroke-width="2" stroke="#ff00b7" x="196.88483852580882" y="200.20285593510073" transform="matrix(0.4112512171268463,0,0,0.3526104688644409,267.2579345107079,122.5130615234375)" svgjs:data="{&quot;leading&quot;:&quot;1.3&quot;}"><tspan dy="0" x="196.88483852580882" svgjs:data="{&quot;newLined&quot;:true}">Player</tspan></text><image width="754" height="760" xlink:href="https://lct-designs.s3.us-west-1.amazonaws.com/assets/libs/pink-panthers-4-1652066750762.png" class="asset" transform="matrix(0.03685063496232033,0,0,0.03685063496232033,312.6257323622704,172.07350158691406)"></image><text fill="#000000" font-family="American Captain" font-size="45" stroke-opacity="1" stroke-width="2" stroke="#ff00b7" x="196.88483852580882" y="200.20285593510073" transform="matrix(0.4112512171268463,0,0,0.35261064767837524,266.35604852437973,162.65185546875)" svgjs:data="{&quot;leading&quot;:&quot;1.3&quot;}"><tspan dy="0" x="196.88483852580882" svgjs:data="{&quot;newLined&quot;:true}">Player</tspan></text><image width="754" height="760" xlink:href="https://lct-designs.s3.us-west-1.amazonaws.com/assets/libs/pink-panthers-4-1652066750762.png" class="asset" transform="matrix(0.03685063496232033,0,0,0.03685063496232033,311.7238463759423,212.2122955322266)"></image><text fill="#000000" font-family="American Captain" font-size="45" stroke-opacity="1" stroke-width="2" stroke="#ff00b7" x="196.88483852580882" y="200.20285593510073" transform="matrix(0.4112512171268463,0,0,0.35261070728302,254.55227655172348,199.3218688964844)" svgjs:data="{&quot;leading&quot;:&quot;1.3&quot;}"><tspan dy="0" x="196.88483852580882" svgjs:data="{&quot;newLined&quot;:true}">Player</tspan></text><image width="754" height="760" xlink:href="https://lct-designs.s3.us-west-1.amazonaws.com/assets/libs/pink-panthers-4-1652066750762.png" class="asset" transform="matrix(0.03685063496232033,0,0,0.03685063496232033,299.920074403286,248.88229370117185)"></image><text fill="#000000" font-family="American Captain" font-size="45" stroke-opacity="1" stroke-width="2" stroke="#ff00b7" x="196.88483852580882" y="200.20285593510073" transform="matrix(0.4112512171268463,0,0,0.3526105284690857,365.4642028212548,123.50413513183594)" svgjs:data="{&quot;leading&quot;:&quot;1.3&quot;}"><tspan dy="0" x="196.88483852580882" svgjs:data="{&quot;newLined&quot;:true}">Player</tspan></text><image width="754" height="760" xlink:href="https://lct-designs.s3.us-west-1.amazonaws.com/assets/libs/pink-panthers-4-1652066750762.png" class="asset" transform="matrix(0.03685063496232033,0,0,0.03685063496232033,410.8319701552391,173.06457519531253)"></image><text fill="#000000" font-family="American Captain" font-size="45" stroke-opacity="1" stroke-width="2" stroke="#ff00b7" x="196.88483852580882" y="200.20285593510073" transform="matrix(0.4112512171268463,0,0,0.35261070728302,364.56228631734854,163.64292907714844)" svgjs:data="{&quot;leading&quot;:&quot;1.3&quot;}"><tspan dy="0" x="196.88483852580882" svgjs:data="{&quot;newLined&quot;:true}">Player</tspan></text><image width="754" height="760" xlink:href="https://lct-designs.s3.us-west-1.amazonaws.com/assets/libs/pink-panthers-4-1652066750762.png" class="asset" transform="matrix(0.03685063496232033,0,0,0.03685063496232033,409.930084168911,213.20336914062503)"></image><image width="754" height="760" xlink:href="https://lct-designs.s3.us-west-1.amazonaws.com/assets/libs/pink-panthers-4-1652066750762.png" class="asset" transform="matrix(0.03685063496232033,0,0,0.03685063496232033,399.78048700094234,133.3500213623047)"></image><text fill="#000000" font-family="American Captain" font-size="45" stroke-opacity="1" stroke-width="2" stroke="#ff00b7" x="196.88483852580882" y="200.20285593510073" transform="matrix(0.4112512171268463,0,0,0.35261040925979614,354.4126891493798,83.7895736694336)" svgjs:data="{&quot;leading&quot;:&quot;1.3&quot;}"><tspan dy="0" x="196.88483852580882" svgjs:data="{&quot;newLined&quot;:true}">Player</tspan></text><text fill="#000000" font-family="American Captain" font-size="45" stroke-opacity="1" stroke-width="2" stroke="#ff00b7" x="196.88483852580882" y="200.20285593510073" transform="matrix(0.4112512171268463,0,0,0.35261076688766485,352.7585143446923,200.31294250488284)" svgjs:data="{&quot;leading&quot;:&quot;1.3&quot;}"><tspan dy="0" x="196.88483852580882" svgjs:data="{&quot;newLined&quot;:true}">Player</tspan></text><image width="754" height="760" xlink:href="https://lct-designs.s3.us-west-1.amazonaws.com/assets/libs/pink-panthers-4-1652066750762.png" class="asset" transform="matrix(0.03685063496232033,0,0,0.03685063496232033,398.12631219625484,249.87335205078128)"></image><image width="754" height="760" xlink:href="https://lct-designs.s3.us-west-1.amazonaws.com/assets/libs/pink-panthers-4-1652066750762.png" class="asset" transform="matrix(0.03685063496232033,0,0,0.03685063496232033,309.998443543911,134.3411102294922)"></image><text fill="#000000" font-family="American Captain" font-size="45" stroke-opacity="1" stroke-width="2" stroke="#ff00b7" x="196.88483852580882" y="200.20285593510073" transform="matrix(0.4112512171268463,0,0,0.35261026024818426,264.6306456923485,84.7806625366211)" svgjs:data="{&quot;leading&quot;:&quot;1.3&quot;}"><tspan dy="0" x="196.88483852580882" svgjs:data="{&quot;newLined&quot;:true}">Player</tspan></text><text fill="#000000" font-family="American Captain" font-size="45" stroke-opacity="1" stroke-width="2" stroke="#ff00b7" x="101.5861896915803" y="200.20285593510073" transform="matrix(0.33345761895179754,0,0,0.33345761895179754,-25.945672988891587,227.1062316894531)" svgjs:data="{&quot;leading&quot;:&quot;1.3&quot;}"><tspan dy="0" x="101.5861896915803" svgjs:data="{&quot;newLined&quot;:true}">Coach:coach's name</tspan></text><text fill="#000000" font-family="American Captain" font-size="45" stroke-opacity="1" stroke-width="2" stroke="#ff00b7" x="101.5861896915803" y="200.20285593510073" transform="matrix(0.33345761895179754,0,0,0.33345761895179754,380.486785888672,227.1062316894531)" svgjs:data="{&quot;leading&quot;:&quot;1.3&quot;}"><tspan dy="0" x="101.5861896915803" svgjs:data="{&quot;newLined&quot;:true}">Team mom: name</tspan></text><g class="mask" style="pointer-events: none;"><g><path fill="#BCBEC0" d="M-3642.4-2101.7v4589.1h7813.4v-4589.1H-3642.4z M500.5,67.2v233.3v66.7H0.5v-66.7V67.2V0.5h500V67.2z" transform="matrix(1,0,0,1,0,0)"></path><g transform="matrix(1,0,0,1,0,0)">
	<rect x="0.5" y="300.5" opacity="0.95" fill="#F1F2F2" width="500" height="66.7"></rect>
	<rect x="0.5" y="0.5" opacity="0.95" fill="#F1F2F2" width="500" height="66.7"></rect>
</g></g></g></svg>