<svg xmlns="http://www.w3.org/2000/svg" version="1.1" xmlns:xlink="http://www.w3.org/1999/xlink" xmlns:svgjs="http://svgjs.dev/svgjs" width="100%" height="100%" viewBox="1 1 499 365.70001220703125" preserveAspectRatio="none" data-info="{&quot;_id&quot;:4,&quot;name&quot;:&quot;POLE POCKET SOCCER BANNERS&quot;,&quot;information&quot;:&quot;- Size: 3’x5’\n- Material: heavy duty vinyl banner\n- Digitally printed on vinyl&quot;,&quot;price&quot;:&quot;95.00&quot;,&quot;sale_price&quot;:&quot;89.99&quot;,&quot;type&quot;:&quot;pole-pocket&quot;,&quot;cover&quot;:{&quot;key&quot;:&quot;assets/models/pole-1628062864266-1631924568908.png&quot;,&quot;url&quot;:&quot;https://lct-designs.s3.us-west-1.amazonaws.com/assets/models/pole-1628062864266-1631924568908.png&quot;},&quot;back&quot;:{&quot;key&quot;:&quot;assets/models/pole-1631924700152.svg&quot;,&quot;url&quot;:&quot;https://lct-designs.s3.us-west-1.amazonaws.com/assets/models/pole-1631924700152.svg&quot;},&quot;mask&quot;:{&quot;key&quot;:&quot;assets/models/pole-mask-1631925211715.svg&quot;,&quot;url&quot;:&quot;https://lct-designs.s3.us-west-1.amazonaws.com/assets/models/pole-mask-1631925211715.svg&quot;},&quot;pos&quot;:&quot;2&quot;,&quot;accessories&quot;:&quot;2,3&quot;}" style="background-color: white;"><g class="model" style="pointer-events: none;"><polygon fill="#FFFFFF" points="0.5,0.5 0.5,67.2 0.5,300.5 0.5,367.2 500.5,367.2 500.5,300.5 500.5,67.2 500.5,0.5 "></polygon></g><image width="760" height="556" xlink:href="https://lct-designs.s3.us-west-1.amazonaws.com/assets/libs/soccer-smilers-1-1652349212840.png" class="asset background locked" transform="matrix(0.6595323960558116,0,0,0.6595323960558116,0,0)"></image><text fill="#fff200" font-family="Chunky Funks" font-size="45" stroke-opacity="1" stroke-width="2" stroke="#000000" x="101.57844977101183" y="200.41361831492046" transform="matrix(0.2861717641353608,0,0,0.2861717641353608,315.6619567871095,234.82373046874997)" svgjs:data="{&quot;leading&quot;:&quot;1.3&quot;}"><tspan dy="0" x="101.57844977101183" svgjs:data="{&quot;newLined&quot;:true}">Coach:Coach's name</tspan></text><text fill="#fff200" font-family="Chunky Funks" font-size="45" stroke-opacity="1" stroke-width="2" stroke="#000000" x="101.57844977101183" y="200.41361831492046" transform="matrix(0.2861716747283936,0,0,0.2861716747283936,81.6210174560547,234.82376098632815)" svgjs:data="{&quot;leading&quot;:&quot;1.3&quot;}"><tspan dy="0" x="101.57844977101183" svgjs:data="{&quot;newLined&quot;:true}">Team mom: name</tspan></text><text fill="#fff200" font-family="Chunky Funks" font-size="45" stroke-opacity="1" stroke-width="2" stroke="#000000" x="196.88393072804308" y="200.41361831492046" transform="matrix(0.35761615633964544,0,0,0.3576161563396454,54.09159088134767,201.16743469238278)" svgjs:data="{&quot;leading&quot;:&quot;1.3&quot;}"><tspan dy="0" x="196.88393072804308" svgjs:data="{&quot;newLined&quot;:true}">Player</tspan></text><text fill="#fff200" font-family="Chunky Funks" font-size="45" stroke-opacity="1" stroke-width="2" stroke="#000000" x="196.88393072804308" y="200.41361831492046" transform="matrix(0.35761621594429016,0,0,0.35761621594429016,142.75540161132812,201.16741943359372)" svgjs:data="{&quot;leading&quot;:&quot;1.3&quot;}"><tspan dy="0" x="196.88393072804308" svgjs:data="{&quot;newLined&quot;:true}">Player</tspan></text><text fill="#fff200" font-family="Chunky Funks" font-size="45" stroke-opacity="1" stroke-width="2" stroke="#000000" x="196.88393072804308" y="200.41361831492046" transform="matrix(0.3576163947582245,0,0,0.3576163947582245,230.88040161132818,201.16740417480466)" svgjs:data="{&quot;leading&quot;:&quot;1.3&quot;}"><tspan dy="0" x="196.88393072804308" svgjs:data="{&quot;newLined&quot;:true}">Player</tspan></text><text fill="#fff200" font-family="Chunky Funks" font-size="45" stroke-opacity="1" stroke-width="2" stroke="#000000" x="196.88393072804308" y="200.41361831492046" transform="matrix(0.3576164543628693,0,0,0.35761645436286926,319.0054321289063,201.16741943359372)" svgjs:data="{&quot;leading&quot;:&quot;1.3&quot;}"><tspan dy="0" x="196.88393072804308" svgjs:data="{&quot;newLined&quot;:true}">Player</tspan></text><image width="663" height="760" xlink:href="https://lct-designs.s3.us-west-1.amazonaws.com/assets/libs/soccer-smilers-5-1652349390017.png" class="asset" transform="matrix(0.05796739831566811,0,0,0.0579673983156681,312.84020996093756,214.43833923339847)"></image><image width="663" height="760" xlink:href="https://lct-designs.s3.us-west-1.amazonaws.com/assets/libs/soccer-smilers-5-1652349390017.png" class="asset" transform="matrix(0.05796740576624871,0,0,0.057967405766248696,400.9652404785157,214.43833923339847)"></image><image width="663" height="760" xlink:href="https://lct-designs.s3.us-west-1.amazonaws.com/assets/libs/soccer-smilers-5-1652349390017.png" class="asset" transform="matrix(0.05796736478805543,0,0,0.05796736478805541,136.05142211914065,214.43836975097653)"></image><image width="663" height="760" xlink:href="https://lct-designs.s3.us-west-1.amazonaws.com/assets/libs/soccer-smilers-5-1652349390017.png" class="asset" transform="matrix(0.057967372238636024,0,0,0.05796737223863601,224.71522521972656,214.4383850097656)"></image><image width="760" height="304" xlink:href="https://lct-designs.s3.us-west-1.amazonaws.com/assets/libs/soccer-smilers-3-1652349289587.png" class="asset" transform="matrix(0.3979071974754334,0,0,0.39790719747543335,27.086952209472653,72.29398345947266)"></image><image width="557" height="760" xlink:href="https://lct-designs.s3.us-west-1.amazonaws.com/assets/libs/soccer-smilers-4-1652349274640.png" class="asset" transform="matrix(0.17612712085247043,0,0,0.1761271208524704,9.000078201293949,145.82943725585938)"></image><text fill="#fff200" font-family="Chunky Funks" font-size="45" stroke-opacity="1" stroke-width="2" stroke="#000000" x="196.88393072804308" y="200.41361831492046" transform="matrix(0.3576165139675141,0,0,0.35761651396751404,269.97521972656256,131.12429809570312)" svgjs:data="{&quot;leading&quot;:&quot;1.3&quot;}"><tspan dy="0" x="196.88393072804308" svgjs:data="{&quot;newLined&quot;:true}">Player</tspan></text><text fill="#fff200" font-family="Chunky Funks" font-size="45" stroke-opacity="1" stroke-width="2" stroke="#000000" x="196.88393072804308" y="200.41361831492046" transform="matrix(0.35761657357215887,0,0,0.3576165735721588,268.6605834960938,60.542396545410156)" svgjs:data="{&quot;leading&quot;:&quot;1.3&quot;}"><tspan dy="0" x="196.88393072804308" svgjs:data="{&quot;newLined&quot;:true}">Player</tspan></text><text fill="#fff200" font-family="Chunky Funks" font-size="45" stroke-opacity="1" stroke-width="2" stroke="#000000" x="196.88393072804308" y="200.41361831492046" transform="matrix(0.35761663317680364,0,0,0.3576166331768036,356.78561401367193,60.54241180419922)" svgjs:data="{&quot;leading&quot;:&quot;1.3&quot;}"><tspan dy="0" x="196.88393072804308" svgjs:data="{&quot;newLined&quot;:true}">Player</tspan></text><image width="663" height="760" xlink:href="https://lct-designs.s3.us-west-1.amazonaws.com/assets/libs/soccer-smilers-5-1652349390017.png" class="asset" transform="matrix(0.05796740576624871,0,0,0.057967405766248696,350.6203918457032,73.8133316040039)"></image><image width="663" height="760" xlink:href="https://lct-designs.s3.us-west-1.amazonaws.com/assets/libs/soccer-smilers-5-1652349390017.png" class="asset" transform="matrix(0.05796740576624871,0,0,0.057967405766248696,438.7454223632813,73.8133316040039)"></image><text fill="#fff200" font-family="Chunky Funks" font-size="45" stroke-opacity="1" stroke-width="2" stroke="#000000" x="196.88393072804308" y="200.41361831492046" transform="matrix(0.3576165139675141,0,0,0.35761651396751404,358.1002502441407,131.1243133544922)" svgjs:data="{&quot;leading&quot;:&quot;1.3&quot;}"><tspan dy="0" x="196.88393072804308" svgjs:data="{&quot;newLined&quot;:true}">Player</tspan></text><image width="663" height="760" xlink:href="https://lct-designs.s3.us-west-1.amazonaws.com/assets/libs/soccer-smilers-5-1652349390017.png" class="asset" transform="matrix(0.05796740576624871,0,0,0.057967405766248696,351.93502807617193,144.39523315429688)"></image><image width="663" height="760" xlink:href="https://lct-designs.s3.us-west-1.amazonaws.com/assets/libs/soccer-smilers-5-1652349390017.png" class="asset" transform="matrix(0.05796740576624871,0,0,0.057967405766248696,440.06005859375006,144.39523315429688)"></image><g class="mask" style="pointer-events: none;"><g><path fill="#BCBEC0" d="M-3642.4-2101.7v4589.1h7813.4v-4589.1H-3642.4z M500.5,67.2v233.3v66.7H0.5v-66.7V67.2V0.5h500V67.2z" transform="matrix(1,0,0,1,0,0)"></path><g transform="matrix(1,0,0,1,0,0)">
	<rect x="0.5" y="300.5" opacity="0.95" fill="#F1F2F2" width="500" height="66.7"></rect>
	<rect x="0.5" y="0.5" opacity="0.95" fill="#F1F2F2" width="500" height="66.7"></rect>
</g></g></g></svg>