<svg xmlns="http://www.w3.org/2000/svg" version="1.1" xmlns:xlink="http://www.w3.org/1999/xlink" xmlns:svgjs="http://svgjs.dev/svgjs" width="100%" height="100%" viewBox="1 1 499 365.70001220703125" preserveAspectRatio="none" data-info="{&quot;_id&quot;:4,&quot;name&quot;:&quot;POLE POCKET SOCCER BANNERS&quot;,&quot;information&quot;:&quot;- Size: 3’x5’\n- Material: heavy duty vinyl banner\n- Digitally printed on vinyl&quot;,&quot;price&quot;:&quot;95.00&quot;,&quot;sale_price&quot;:&quot;89.99&quot;,&quot;type&quot;:&quot;pole-pocket&quot;,&quot;cover&quot;:{&quot;key&quot;:&quot;assets/models/pole-1628062864266-1631924568908.png&quot;,&quot;url&quot;:&quot;https://lct-designs.s3.us-west-1.amazonaws.com/assets/models/pole-1628062864266-1631924568908.png&quot;},&quot;back&quot;:{&quot;key&quot;:&quot;assets/models/pole-1631924700152.svg&quot;,&quot;url&quot;:&quot;https://lct-designs.s3.us-west-1.amazonaws.com/assets/models/pole-1631924700152.svg&quot;},&quot;mask&quot;:{&quot;key&quot;:&quot;assets/models/pole-mask-1631925211715.svg&quot;,&quot;url&quot;:&quot;https://lct-designs.s3.us-west-1.amazonaws.com/assets/models/pole-mask-1631925211715.svg&quot;},&quot;pos&quot;:&quot;2&quot;,&quot;accessories&quot;:&quot;2,3&quot;}" style="background-color: white;"><g class="model" style="pointer-events: none;"><polygon fill="#FFFFFF" points="0.5,0.5 0.5,67.2 0.5,300.5 0.5,367.2 500.5,367.2 500.5,300.5 500.5,67.2 500.5,0.5 "></polygon></g><image width="760" height="553" xlink:href="https://lct-designs.s3.us-west-1.amazonaws.com/assets/libs/magics-1-1632741205264.png" class="asset background locked" transform="matrix(0.6631103294883024,0,0,0.6631103294883024,0,0)"></image><text fill="#ffffff" font-family="Chunky Funks" font-size="50" stroke-opacity="1" stroke-width="2" stroke="#000000" x="-98.72634249947717" y="199.47500657859518" transform="matrix(0.21729162335395813,0,0,0.21729162335395816,148.22671508789062,248.91517639160156)" svgjs:data="{&quot;leading&quot;:&quot;1.3&quot;}"><tspan dy="0" x="-98.72634249947717" svgjs:data="{&quot;newLined&quot;:true}">COACH: COACH'S NAME</tspan></text><text fill="#ffffff" font-family="Chunky Funks" font-size="50" stroke-opacity="1" stroke-width="2" stroke="#000000" x="-98.72634249947717" y="199.47500657859518" transform="matrix(0.21729162335395813,0,0,0.21729162335395816,347.63952636718756,248.9151611328125)" svgjs:data="{&quot;leading&quot;:&quot;1.3&quot;}"><tspan dy="0" x="-98.72634249947717" svgjs:data="{&quot;newLined&quot;:true}">TEAM MOM: TEAM MOM'S NAME</tspan></text><text fill="#ffffff" font-family="Chunky Funks" font-size="50" stroke-opacity="1" stroke-width="2" stroke="#000000" x="-98.72634249947717" y="199.47500657859518" transform="matrix(0.29414513707160955,0,0,0.2941451370716095,462.41989135742193,71.71667480468751)" svgjs:data="{&quot;leading&quot;:&quot;1.3&quot;}"><tspan dy="0" x="-98.72634249947717" svgjs:data="{&quot;newLined&quot;:true}">PLAYER</tspan></text><text fill="#ffffff" font-family="Chunky Funks" font-size="50" stroke-opacity="1" stroke-width="2" stroke="#000000" x="-98.72634249947717" y="199.47500657859518" transform="matrix(0.29414513707160955,0,0,0.2941451370716095,461.3289184570313,198.3867645263672)" svgjs:data="{&quot;leading&quot;:&quot;1.3&quot;}"><tspan dy="0" x="-98.72634249947717" svgjs:data="{&quot;newLined&quot;:true}">PLAYER</tspan></text><text fill="#ffffff" font-family="Chunky Funks" font-size="50" stroke-opacity="1" stroke-width="2" stroke="#000000" x="-98.72634249947717" y="199.47500657859518" transform="matrix(0.29414513707160955,0,0,0.2941451370716095,381.2816467285157,198.3867645263672)" svgjs:data="{&quot;leading&quot;:&quot;1.3&quot;}"><tspan dy="0" x="-98.72634249947717" svgjs:data="{&quot;newLined&quot;:true}">PLAYER</tspan></text><text fill="#ffffff" font-family="Chunky Funks" font-size="50" stroke-opacity="1" stroke-width="2" stroke="#000000" x="-98.72634249947717" y="199.47500657859518" transform="matrix(0.29414513707160955,0,0,0.2941451370716095,302.22579956054693,198.38671875)" svgjs:data="{&quot;leading&quot;:&quot;1.3&quot;}"><tspan dy="0" x="-98.72634249947717" svgjs:data="{&quot;newLined&quot;:true}">PLAYER</tspan></text><image width="760" height="662" xlink:href="https://lct-designs.s3.us-west-1.amazonaws.com/assets/libs/magics-3-1632741397487.png" class="asset" transform="matrix(0.053123753517866135,0,0,0.053123753517866135,360.1632385253907,207.0722198486328)"></image><image width="760" height="662" xlink:href="https://lct-designs.s3.us-west-1.amazonaws.com/assets/libs/magics-3-1632741397487.png" class="asset" transform="matrix(0.053123753517866135,0,0,0.053123753517866135,281.1073913574219,207.0722198486328)"></image><image width="760" height="662" xlink:href="https://lct-designs.s3.us-west-1.amazonaws.com/assets/libs/magics-3-1632741397487.png" class="asset" transform="matrix(0.053123742341995246,0,0,0.05312374234199524,440.2104797363282,207.0722198486328)"></image><text fill="#ffffff" font-family="Chunky Funks" font-size="50" stroke-opacity="1" stroke-width="2" stroke="#000000" x="-98.72634249947717" y="199.47500657859518" transform="matrix(0.29414514673401015,0,0,0.29414514673401015,382.37264977733145,71.71667795787106)" svgjs:data="{&quot;leading&quot;:&quot;1.3&quot;}"><tspan dy="0" x="-98.72634249947717" svgjs:data="{&quot;newLined&quot;:true}">PLAYER</tspan></text><text fill="#ffffff" font-family="Chunky Funks" font-size="50" stroke-opacity="1" stroke-width="2" stroke="#000000" x="-98.72634249947717" y="199.47500657859518" transform="matrix(0.29414514673401015,0,0,0.29414514673401015,303.31680545774725,71.71664293685897)" svgjs:data="{&quot;leading&quot;:&quot;1.3&quot;}"><tspan dy="0" x="-98.72634249947717" svgjs:data="{&quot;newLined&quot;:true}">PLAYER</tspan></text><image width="760" height="662" xlink:href="https://lct-designs.s3.us-west-1.amazonaws.com/assets/libs/magics-3-1632741397487.png" class="asset" transform="matrix(0.053123681028163006,0,0,0.053123681028163006,441.3014701847715,80.4021481095515)"></image><image width="760" height="662" xlink:href="https://lct-designs.s3.us-west-1.amazonaws.com/assets/libs/magics-3-1632741397487.png" class="asset" transform="matrix(0.053123681028163006,0,0,0.053123681028163006,361.254223038377,80.4021481095515)"></image><image width="760" height="662" xlink:href="https://lct-designs.s3.us-west-1.amazonaws.com/assets/libs/magics-3-1632741397487.png" class="asset" transform="matrix(0.053123681028163006,0,0,0.053123681028163006,282.19837871879287,80.4021481095515)"></image><text fill="#ffffff" font-family="Chunky Funks" font-size="50" stroke-opacity="1" stroke-width="2" stroke="#000000" x="-98.72634249947717" y="199.47500657859518" transform="matrix(0.29414513707160955,0,0,0.2941451370716095,426.4908752441407,134.67184448242188)" svgjs:data="{&quot;leading&quot;:&quot;1.3&quot;}"><tspan dy="0" x="-98.72634249947717" svgjs:data="{&quot;newLined&quot;:true}">PLAYER</tspan></text><text fill="#ffffff" font-family="Chunky Funks" font-size="50" stroke-opacity="1" stroke-width="2" stroke="#000000" x="-98.72634249947717" y="199.47500657859518" transform="matrix(0.29414513707160955,0,0,0.2941451370716095,346.443603515625,134.67184448242188)" svgjs:data="{&quot;leading&quot;:&quot;1.3&quot;}"><tspan dy="0" x="-98.72634249947717" svgjs:data="{&quot;newLined&quot;:true}">PLAYER</tspan></text><text fill="#ffffff" font-family="Chunky Funks" font-size="50" stroke-opacity="1" stroke-width="2" stroke="#000000" x="-98.72634249947717" y="199.47500657859518" transform="matrix(0.29414513707160955,0,0,0.2941451370716095,267.3877563476563,134.6717987060547)" svgjs:data="{&quot;leading&quot;:&quot;1.3&quot;}"><tspan dy="0" x="-98.72634249947717" svgjs:data="{&quot;newLined&quot;:true}">PLAYER</tspan></text><image width="760" height="662" xlink:href="https://lct-designs.s3.us-west-1.amazonaws.com/assets/libs/magics-3-1632741397487.png" class="asset" transform="matrix(0.05312368646264077,0,0,0.05312368646264077,405.37243652343756,143.3572998046875)"></image><image width="760" height="662" xlink:href="https://lct-designs.s3.us-west-1.amazonaws.com/assets/libs/magics-3-1632741397487.png" class="asset" transform="matrix(0.05312368646264077,0,0,0.05312368646264077,325.32519531250006,143.3572998046875)"></image><image width="760" height="662" xlink:href="https://lct-designs.s3.us-west-1.amazonaws.com/assets/libs/magics-3-1632741397487.png" class="asset" transform="matrix(0.05312368646264077,0,0,0.05312368646264077,246.26934814453125,143.3572998046875)"></image><image width="760" height="387" xlink:href="https://lct-designs.s3.us-west-1.amazonaws.com/assets/libs/magics-2-1632741368607.png" class="asset" transform="matrix(0.32830232381820684,0,0,0.3283023238182068,8.855304718017575,76.3560104370117)"></image><image width="552" height="760" xlink:href="https://lct-designs.s3.us-west-1.amazonaws.com/assets/libs/magics-4-1632741340021.png" class="asset" transform="matrix(0.12376388907432556,0,0,0.12376388907432556,43.597801208496094,193.2852172851563)"></image><text fill="#ffffff" font-family="Chunky Funks" font-size="50" stroke-opacity="1" stroke-width="2" stroke="#000000" x="-98.72634249947717" y="199.47500657859518" transform="matrix(0.29414513707160955,0,0,0.2941451370716095,221.19525146484378,196.76690673828125)" svgjs:data="{&quot;leading&quot;:&quot;1.3&quot;}"><tspan dy="0" x="-98.72634249947717" svgjs:data="{&quot;newLined&quot;:true}">PLAYER</tspan></text><image width="760" height="662" xlink:href="https://lct-designs.s3.us-west-1.amazonaws.com/assets/libs/magics-3-1632741397487.png" class="asset" transform="matrix(0.053123779594898224,0,0,0.053123779594898224,200.07684326171875,205.45236206054688)"></image><g class="mask" style="pointer-events: none;"><g><path fill="#BCBEC0" d="M-3642.4-2101.7v4589.1h7813.4v-4589.1H-3642.4z M500.5,67.2v233.3v66.7H0.5v-66.7V67.2V0.5h500V67.2z" transform="matrix(1,0,0,1,0,0)"></path><g transform="matrix(1,0,0,1,0,0)">
	<rect x="0.5" y="300.5" opacity="0.95" fill="#F1F2F2" width="500" height="66.7"></rect>
	<rect x="0.5" y="0.5" opacity="0.95" fill="#F1F2F2" width="500" height="66.7"></rect>
</g></g></g></svg>