<svg xmlns="http://www.w3.org/2000/svg" version="1.1" xmlns:xlink="http://www.w3.org/1999/xlink" xmlns:svgjs="http://svgjs.dev/svgjs" width="100%" height="100%" viewBox="1 1 499 365.70001220703125" preserveAspectRatio="none" data-info="{&quot;_id&quot;:4,&quot;name&quot;:&quot;POLE POCKET SOCCER BANNERS&quot;,&quot;information&quot;:&quot;- Size: 3’x5’\n- Material: heavy duty vinyl banner\n- Digitally printed on vinyl&quot;,&quot;price&quot;:&quot;95.00&quot;,&quot;sale_price&quot;:&quot;89.99&quot;,&quot;type&quot;:&quot;pole-pocket&quot;,&quot;cover&quot;:{&quot;key&quot;:&quot;assets/models/pole-1628062864266-1631924568908.png&quot;,&quot;url&quot;:&quot;https://lct-designs.s3.us-west-1.amazonaws.com/assets/models/pole-1628062864266-1631924568908.png&quot;},&quot;back&quot;:{&quot;key&quot;:&quot;assets/models/pole-1631924700152.svg&quot;,&quot;url&quot;:&quot;https://lct-designs.s3.us-west-1.amazonaws.com/assets/models/pole-1631924700152.svg&quot;},&quot;mask&quot;:{&quot;key&quot;:&quot;assets/models/pole-mask-1631925211715.svg&quot;,&quot;url&quot;:&quot;https://lct-designs.s3.us-west-1.amazonaws.com/assets/models/pole-mask-1631925211715.svg&quot;},&quot;pos&quot;:&quot;2&quot;,&quot;accessories&quot;:&quot;2,3&quot;}" style="background-color: white;"><g class="model" style="pointer-events: none;"><polygon fill="#FFFFFF" points="0.5,0.5 0.5,67.2 0.5,300.5 0.5,367.2 500.5,367.2 500.5,300.5 500.5,67.2 500.5,0.5 "></polygon></g><image width="760" height="553" xlink:href="https://lct-designs.s3.us-west-1.amazonaws.com/assets/libs/ninja-1632741205265.png" class="asset background locked" transform="matrix(0.6631103294883024,0,0,0.6631103294883024,0,0)"></image><text fill="#ffffff" font-family="Impact" font-size="50" stroke-opacity="1" stroke-width="0" stroke="#ffffff" x="-98.72634249947717" y="199.47500657859518" transform="matrix(0.2506256699562073,0,0,0.25062566995620733,31.033065795898438,244.5829467773438)" svgjs:data="{&quot;leading&quot;:&quot;1.3&quot;}"><tspan dy="0" x="-98.72634249947717" svgjs:data="{&quot;newLined&quot;:true}">COACH: COACH'S NAME</tspan></text><text fill="#ffffff" font-family="Impact" font-size="50" stroke-opacity="1" stroke-width="0" stroke="#ffffff" x="-98.72634249947717" y="199.47500657859518" transform="matrix(0.2506256699562073,0,0,0.25062566995620733,370.7083740234375,244.5829467773438)" svgjs:data="{&quot;leading&quot;:&quot;1.3&quot;}"><tspan dy="0" x="-98.72634249947717" svgjs:data="{&quot;newLined&quot;:true}">TEAM MOM: TEAM MOM'S NAME</tspan></text><image width="760" height="281" xlink:href="https://lct-designs.s3.us-west-1.amazonaws.com/assets/libs/ninja-1-1632741368609.png" class="asset" transform="matrix(0.3458598554134369,0,0,0.34585985541343695,119.07150268554688,73.46530914306639)"></image><g class="mask" style="pointer-events: none;"><g><path fill="#BCBEC0" d="M-3642.4-2101.7v4589.1h7813.4v-4589.1H-3642.4z M500.5,67.2v233.3v66.7H0.5v-66.7V67.2V0.5h500V67.2z" transform="matrix(1,0,0,1,0,0)"></path><g transform="matrix(1,0,0,1,0,0)">
	<rect x="0.5" y="300.5" opacity="0.95" fill="#F1F2F2" width="500" height="66.7"></rect>
	<rect x="0.5" y="0.5" opacity="0.95" fill="#F1F2F2" width="500" height="66.7"></rect>
</g></g></g><text fill="#ffffff" font-family="Impact" font-size="50" stroke-opacity="1" stroke-width="0" stroke="#ffffff" x="-98.72634249947717" y="199.47500657859518" transform="matrix(0.3408990656578048,0,0,0.3408990656578048,450.43098770386865,88.82305547200302)" svgjs:data="{&quot;leading&quot;:&quot;1.3&quot;}"><tspan dy="0" x="-98.72634249947717" svgjs:data="{&quot;newLined&quot;:true}">PLAYER</tspan></text><image width="760" height="487" xlink:href="https://lct-designs.s3.us-west-1.amazonaws.com/assets/libs/ninja-2-1632741397488.png" class="asset" transform="matrix(0.08136112865059442,0,0,0.08136112865059443,409.5663359821738,99.05064992318329)"></image><text fill="#ffffff" font-family="Impact" font-size="50" stroke-opacity="1" stroke-width="0" stroke="#ffffff" x="-98.72634249947717" y="199.47500657859518" transform="matrix(0.3408991821728158,0,0,0.34089918217281584,63.24519325517667,84.09370931237846)" svgjs:data="{&quot;leading&quot;:&quot;1.3&quot;}"><tspan dy="0" x="-98.72634249947717" svgjs:data="{&quot;newLined&quot;:true}">PLAYER</tspan></text><image width="760" height="487" xlink:href="https://lct-designs.s3.us-west-1.amazonaws.com/assets/libs/ninja-2-1632741397488.png" class="asset" transform="matrix(0.08136112865059442,0,0,0.08136112865059443,29.589438981017338,94.32130376355873)"></image><text fill="#ffffff" font-family="Impact" font-size="50" stroke-opacity="1" stroke-width="0" stroke="#ffffff" x="-98.72634249947717" y="199.47500657859518" transform="matrix(0.3408989782715466,0,0,0.3408989782715466,63.245182069735606,162.39071542677266)" svgjs:data="{&quot;leading&quot;:&quot;1.3&quot;}"><tspan dy="0" x="-98.72634249947717" svgjs:data="{&quot;newLined&quot;:true}">PLAYER</tspan></text><image width="760" height="487" xlink:href="https://lct-designs.s3.us-west-1.amazonaws.com/assets/libs/ninja-2-1632741397488.png" class="asset" transform="matrix(0.08136112865059442,0,0,0.08136112865059443,29.589440845257514,172.61830987795292)"></image><text fill="#ffffff" font-family="Impact" font-size="50" stroke-opacity="1" stroke-width="0" stroke="#ffffff" x="-98.72634249947717" y="199.47500657859518" transform="matrix(0.3408989782715466,0,0,0.3408989782715466,213.84867847468922,172.37488485278845)" svgjs:data="{&quot;leading&quot;:&quot;1.3&quot;}"><tspan dy="0" x="-98.72634249947717" svgjs:data="{&quot;newLined&quot;:true}">PLAYER</tspan></text><image width="760" height="487" xlink:href="https://lct-designs.s3.us-west-1.amazonaws.com/assets/libs/ninja-2-1632741397488.png" class="asset" transform="matrix(0.08136112865059442,0,0,0.08136112865059443,180.1929242005299,182.60247930396872)"></image><image width="760" height="487" xlink:href="https://lct-designs.s3.us-west-1.amazonaws.com/assets/libs/ninja-2-1632741397488.png" class="asset" transform="matrix(0.08136112865059442,0,0,0.08136112865059443,332.68814340971585,179.97507885621422)"></image><text fill="#ffffff" font-family="Impact" font-size="50" stroke-opacity="1" stroke-width="0" stroke="#ffffff" x="-98.72634249947717" y="199.47500657859518" transform="matrix(0.3408989782715466,0,0,0.3408989782715466,366.3439125977966,169.74748440503396)" svgjs:data="{&quot;leading&quot;:&quot;1.3&quot;}"><tspan dy="0" x="-98.72634249947717" svgjs:data="{&quot;newLined&quot;:true}">PLAYER</tspan></text><image width="760" height="487" xlink:href="https://lct-designs.s3.us-west-1.amazonaws.com/assets/libs/ninja-2-1632741397488.png" class="asset" transform="matrix(0.08136112865059442,0,0,0.08136112865059443,248.29555662367238,218.86081726066556)"></image><text fill="#ffffff" font-family="Impact" font-size="50" stroke-opacity="1" stroke-width="0" stroke="#ffffff" x="-98.72634249947717" y="199.47500657859518" transform="matrix(0.3408989782715466,0,0,0.3408989782715466,131.34781822135847,208.1077457027186)" svgjs:data="{&quot;leading&quot;:&quot;1.3&quot;}"><tspan dy="0" x="-98.72634249947717" svgjs:data="{&quot;newLined&quot;:true}">PLAYER</tspan></text><image width="760" height="487" xlink:href="https://lct-designs.s3.us-west-1.amazonaws.com/assets/libs/ninja-2-1632741397488.png" class="asset" transform="matrix(0.08136112865059442,0,0,0.08136112865059443,97.69206394719913,218.33534015389887)"></image><text fill="#ffffff" font-family="Impact" font-size="50" stroke-opacity="1" stroke-width="0" stroke="#ffffff" x="-98.72634249947717" y="199.47500657859518" transform="matrix(0.3408989782715466,0,0,0.3408989782715466,450.430928048183,202.8529298932881)" svgjs:data="{&quot;leading&quot;:&quot;1.3&quot;}"><tspan dy="0" x="-98.72634249947717" svgjs:data="{&quot;newLined&quot;:true}">PLAYER</tspan></text><image width="760" height="487" xlink:href="https://lct-designs.s3.us-west-1.amazonaws.com/assets/libs/ninja-2-1632741397488.png" class="asset" transform="matrix(0.08136112865059442,0,0,0.08136112865059443,409.5663359821738,213.08050943054695)"></image><text fill="#ffffff" font-family="Impact" font-size="50" stroke-opacity="1" stroke-width="0" stroke="#ffffff" x="-98.72634249947717" y="199.47500657859518" transform="matrix(0.3408989782715466,0,0,0.3408989782715466,281.9513108978318,208.6332228094853)" svgjs:data="{&quot;leading&quot;:&quot;1.3&quot;}"><tspan dy="0" x="-98.72634249947717" svgjs:data="{&quot;newLined&quot;:true}">PLAYER</tspan></text></svg>