<svg xmlns="http://www.w3.org/2000/svg" version="1.1" xmlns:xlink="http://www.w3.org/1999/xlink" xmlns:svgjs="http://svgjs.dev/svgjs" width="100%" height="100%" viewBox="1 1 499 365.70001220703125" preserveAspectRatio="none" data-info="{&quot;_id&quot;:4,&quot;name&quot;:&quot;POLE POCKET SOCCER BANNERS&quot;,&quot;information&quot;:&quot;- Size: 3’x5’\n- Material: heavy duty vinyl banner\n- Digitally printed on vinyl&quot;,&quot;price&quot;:&quot;95.00&quot;,&quot;sale_price&quot;:&quot;89.99&quot;,&quot;type&quot;:&quot;pole-pocket&quot;,&quot;cover&quot;:{&quot;key&quot;:&quot;assets/models/pole-1628062864266-1631924568908.png&quot;,&quot;url&quot;:&quot;https://lct-designs.s3.us-west-1.amazonaws.com/assets/models/pole-1628062864266-1631924568908.png&quot;},&quot;back&quot;:{&quot;key&quot;:&quot;assets/models/pole-1631924700152.svg&quot;,&quot;url&quot;:&quot;https://lct-designs.s3.us-west-1.amazonaws.com/assets/models/pole-1631924700152.svg&quot;},&quot;mask&quot;:{&quot;key&quot;:&quot;assets/models/pole-mask-1631925211715.svg&quot;,&quot;url&quot;:&quot;https://lct-designs.s3.us-west-1.amazonaws.com/assets/models/pole-mask-1631925211715.svg&quot;},&quot;pos&quot;:&quot;2&quot;,&quot;accessories&quot;:&quot;2,3&quot;}" style="background-color: white;"><g class="model" style="pointer-events: none;"><polygon fill="#FFFFFF" points="0.5,0.5 0.5,67.2 0.5,300.5 0.5,367.2 500.5,367.2 500.5,300.5 500.5,67.2 500.5,0.5 "></polygon></g><image width="760" height="556" xlink:href="https://lct-designs.s3.us-west-1.amazonaws.com/assets/libs/princess-purple-5-1652082167202.png" class="asset background locked" transform="matrix(0.6595323960558116,0,0,0.6595323960558116,0,0)"></image><image width="476" height="760" xlink:href="https://lct-designs.s3.us-west-1.amazonaws.com/assets/libs/princess-purple-2-1652081876890.png" class="asset" transform="matrix(0.16463367640972137,0,0,0.16463367640972137,211.31507873535156,161.70333862304688)"></image><image width="760" height="174" xlink:href="https://lct-designs.s3.us-west-1.amazonaws.com/assets/libs/princess-purple-3-1652081876890.png" class="asset" transform="matrix(0.4297912418842315,0,0,0.42979124188423157,87.17723083496094,77.84857940673827)"></image><image width="754" height="760" xlink:href="https://lct-designs.s3.us-west-1.amazonaws.com/assets/libs/princess-purple-1-1652081876891.png" class="asset" transform="matrix(0.050566073507070534,0,0,0.050566073507070534,157.27218627929688,168.7063446044922)"></image><image width="754" height="760" xlink:href="https://lct-designs.s3.us-west-1.amazonaws.com/assets/libs/princess-purple-1-1652081876891.png" class="asset" transform="matrix(0.05056610330939292,0,0,0.05056610330939293,443.48843383789057,169.78744506835932)"></image><text fill="#a100ff" font-family="BubbleGum" font-size="45" stroke-opacity="1" stroke-width="1" stroke="#ffffff" x="202.95289260581828" y="200.94616686344546" transform="matrix(0.3420197665691376,0,0,0.3420197665691375,367.41156005859375,154.97206115722656)" svgjs:data="{&quot;leading&quot;:&quot;1.3&quot;}"><tspan dy="0" x="202.95289260581828" svgjs:data="{&quot;newLined&quot;:true}">Player</tspan></text><image width="754" height="760" xlink:href="https://lct-designs.s3.us-west-1.amazonaws.com/assets/libs/princess-purple-1-1652081876891.png" class="asset" transform="matrix(0.0505661554634571,0,0,0.0505661554634571,310.7857055664062,172.49014282226562)"></image><text fill="#a100ff" font-family="BubbleGum" font-size="45" stroke-opacity="1" stroke-width="1" stroke="#ffffff" x="202.95289260581828" y="200.94616686344546" transform="matrix(0.3420197665691376,0,0,0.3420197665691375,234.70883178710938,157.67475891113276)" svgjs:data="{&quot;leading&quot;:&quot;1.3&quot;}"><tspan dy="0" x="202.95289260581828" svgjs:data="{&quot;newLined&quot;:true}">Player</tspan></text><image width="754" height="760" xlink:href="https://lct-designs.s3.us-west-1.amazonaws.com/assets/libs/princess-purple-1-1652081876891.png" class="asset" transform="matrix(0.050566118210554116,0,0,0.050566118210554116,377.812744140625,213.5712280273437)"></image><text fill="#a100ff" font-family="BubbleGum" font-size="45" stroke-opacity="1" stroke-width="1" stroke="#ffffff" x="202.95289260581828" y="200.94616686344546" transform="matrix(0.3420197665691376,0,0,0.3420197665691375,301.73590087890625,198.75584411621094)" svgjs:data="{&quot;leading&quot;:&quot;1.3&quot;}"><tspan dy="0" x="202.95289260581828" svgjs:data="{&quot;newLined&quot;:true}">Player</tspan></text><text fill="#a100ff" font-family="BubbleGum" font-size="45" stroke-opacity="1" stroke-width="1" stroke="#ffffff" x="202.95289260581828" y="200.94616686344546" transform="matrix(0.3420197665691376,0,0,0.3420197665691375,81.1953125,153.89096069335938)" svgjs:data="{&quot;leading&quot;:&quot;1.3&quot;}"><tspan dy="0" x="202.95289260581828" svgjs:data="{&quot;newLined&quot;:true}">Player</tspan></text><image width="754" height="760" xlink:href="https://lct-designs.s3.us-west-1.amazonaws.com/assets/libs/princess-purple-1-1652081876891.png" class="asset" transform="matrix(0.05056608468294144,0,0,0.05056608468294143,24.569465637207035,171.40904235839844)"></image><text fill="#a100ff" font-family="BubbleGum" font-size="45" stroke-opacity="1" stroke-width="1" stroke="#ffffff" x="202.95289260581828" y="200.94616686344546" transform="matrix(0.3420197665691376,0,0,0.3420197665691375,-51.507408142089844,156.59365844726557)" svgjs:data="{&quot;leading&quot;:&quot;1.3&quot;}"><tspan dy="0" x="202.95289260581828" svgjs:data="{&quot;newLined&quot;:true}">Player</tspan></text><image width="754" height="760" xlink:href="https://lct-designs.s3.us-west-1.amazonaws.com/assets/libs/princess-purple-1-1652081876891.png" class="asset" transform="matrix(0.05056605488061905,0,0,0.05056605488061905,91.59651184082031,212.4901275634765)"></image><text fill="#a100ff" font-family="BubbleGum" font-size="45" stroke-opacity="1" stroke-width="1" stroke="#ffffff" x="202.95289260581828" y="200.94616686344546" transform="matrix(0.3420197665691376,0,0,0.3420197665691375,15.519638061523434,197.67474365234375)" svgjs:data="{&quot;leading&quot;:&quot;1.3&quot;}"><tspan dy="0" x="202.95289260581828" svgjs:data="{&quot;newLined&quot;:true}">Player</tspan></text><text fill="#a100ff" font-family="BubbleGum" font-size="45" stroke-opacity="1" stroke-width="1" stroke="#ffffff" x="59.92206615642405" y="198.96400438785952" transform="matrix(0.25519186258316034,0,0,0.25519186258316034,-5.4191050529479945,244.70896911621088)" svgjs:data="{&quot;leading&quot;:&quot;1.3&quot;}"><tspan dy="0" x="59.92206615642405" svgjs:data="{&quot;newLined&quot;:true}">Coach:coach's name</tspan></text><text fill="#a100ff" font-family="BubbleGum" font-size="45" stroke-opacity="1" stroke-width="1" stroke="#ffffff" x="59.92206615642405" y="198.96400438785952" transform="matrix(0.2551919221878052,0,0,0.2551919221878052,315.61474609374994,244.708999633789)" svgjs:data="{&quot;leading&quot;:&quot;1.3&quot;}"><tspan dy="0" x="59.92206615642405" svgjs:data="{&quot;newLined&quot;:true}">Team mom:Team Mom's Name</tspan></text><image width="754" height="760" xlink:href="https://lct-designs.s3.us-west-1.amazonaws.com/assets/libs/princess-purple-1-1652081876891.png" class="asset" transform="matrix(0.050566092133522034,0,0,0.05056609213352203,25.92081832885742,101.67932128906251)"></image><image width="754" height="760" xlink:href="https://lct-designs.s3.us-west-1.amazonaws.com/assets/libs/princess-purple-1-1652081876891.png" class="asset" transform="matrix(0.05056610330939292,0,0,0.05056610330939293,444.02893066406244,101.13878631591795)"></image><text fill="#a100ff" font-family="BubbleGum" font-size="45" stroke-opacity="1" stroke-width="1" stroke="#ffffff" x="202.95289260581828" y="200.94616686344546" transform="matrix(0.3420197665691376,0,0,0.3420197665691375,367.95205688476557,86.32340240478511)" svgjs:data="{&quot;leading&quot;:&quot;1.3&quot;}"><tspan dy="0" x="202.95289260581828" svgjs:data="{&quot;newLined&quot;:true}">Player</tspan></text><text fill="#a100ff" font-family="BubbleGum" font-size="45" stroke-opacity="1" stroke-width="1" stroke="#ffffff" x="202.95289260581828" y="200.94616686344546" transform="matrix(0.3420197665691376,0,0,0.3420197665691375,-50.156055450439446,86.86393737792967)" svgjs:data="{&quot;leading&quot;:&quot;1.3&quot;}"><tspan dy="0" x="202.95289260581828" svgjs:data="{&quot;newLined&quot;:true}">Player</tspan></text><g class="mask" style="pointer-events: none;"><g><path fill="#BCBEC0" d="M-3642.4-2101.7v4589.1h7813.4v-4589.1H-3642.4z M500.5,67.2v233.3v66.7H0.5v-66.7V67.2V0.5h500V67.2z" transform="matrix(1,0,0,1,0,0)"></path><g transform="matrix(1,0,0,1,0,0)">
	<rect x="0.5" y="300.5" opacity="0.95" fill="#F1F2F2" width="500" height="66.7"></rect>
	<rect x="0.5" y="0.5" opacity="0.95" fill="#F1F2F2" width="500" height="66.7"></rect>
</g></g></g></svg>