<svg xmlns="http://www.w3.org/2000/svg" version="1.1" xmlns:xlink="http://www.w3.org/1999/xlink" xmlns:svgjs="http://svgjs.dev/svgjs" width="100%" height="100%" viewBox="1 1 499 365.70001220703125" preserveAspectRatio="none" data-info="{&quot;_id&quot;:4,&quot;name&quot;:&quot;POLE POCKET SOCCER BANNERS&quot;,&quot;information&quot;:&quot;- Size: 3’x5’\n- Material: heavy duty vinyl banner\n- Digitally printed on vinyl&quot;,&quot;price&quot;:&quot;95.00&quot;,&quot;sale_price&quot;:&quot;89.99&quot;,&quot;type&quot;:&quot;pole-pocket&quot;,&quot;cover&quot;:{&quot;key&quot;:&quot;assets/models/pole-1628062864266-1631924568908.png&quot;,&quot;url&quot;:&quot;https://lct-designs.s3.us-west-1.amazonaws.com/assets/models/pole-1628062864266-1631924568908.png&quot;},&quot;back&quot;:{&quot;key&quot;:&quot;assets/models/pole-1631924700152.svg&quot;,&quot;url&quot;:&quot;https://lct-designs.s3.us-west-1.amazonaws.com/assets/models/pole-1631924700152.svg&quot;},&quot;mask&quot;:{&quot;key&quot;:&quot;assets/models/pole-mask-1631925211715.svg&quot;,&quot;url&quot;:&quot;https://lct-designs.s3.us-west-1.amazonaws.com/assets/models/pole-mask-1631925211715.svg&quot;},&quot;pos&quot;:&quot;2&quot;,&quot;accessories&quot;:&quot;2,3&quot;}" style="background-color: white;"><g class="model" style="pointer-events: none;"><polygon fill="#FFFFFF" points="0.5,0.5 0.5,67.2 0.5,300.5 0.5,367.2 500.5,367.2 500.5,300.5 500.5,67.2 500.5,0.5 "></polygon></g><image width="760" height="556" xlink:href="https://lct-designs.s3.us-west-1.amazonaws.com/assets/libs/yellow-highlighters-1-1653638281819.png" class="asset background locked" transform="matrix(0.6595323960558116,0,0,0.6595323960558116,0,0)"></image><image width="760" height="590" xlink:href="https://lct-designs.s3.us-west-1.amazonaws.com/assets/libs/yellow-highlighters-4-1653638333463.png" class="asset" transform="matrix(0.29070201516151434,0,0,0.29070201516151434,17.01673889160159,77.00347900390625)"></image><image width="760" height="678" xlink:href="https://lct-designs.s3.us-west-1.amazonaws.com/assets/libs/yellow-highlighters-3-1653638312510.png" class="asset" transform="matrix(0.13157889246940616,0,0,0.13157889246940616,146.19575500488284,176.07881164550784)"></image><image width="760" height="750" xlink:href="https://lct-designs.s3.us-west-1.amazonaws.com/assets/libs/yellow-highlighters-2-1653638348563.png" class="asset" transform="matrix(0.03678631123376519,0,0,0.03835789167239766,273.0495511866902,80.69321377443342)"></image><text fill="#ffffff" font-family="American Captain" font-size="45" stroke-opacity="1" stroke-width="1" stroke="#000000" x="196.88588543811736" y="200.19087427705915" transform="matrix(0.5000107006799759,0,0,0.4138928455303343,209.43347577918212,17.560444083817174)" svgjs:data="{&quot;leading&quot;:&quot;1.3&quot;}"><tspan dy="0" x="196.88588543811736" svgjs:data="{&quot;newLined&quot;:true}">player </tspan></text><image width="760" height="750" xlink:href="https://lct-designs.s3.us-west-1.amazonaws.com/assets/libs/yellow-highlighters-2-1653638348563.png" class="asset" transform="matrix(0.03678631123376519,0,0,0.03835789167239766,378.7675528012405,81.681400389466)"></image><image width="760" height="750" xlink:href="https://lct-designs.s3.us-west-1.amazonaws.com/assets/libs/yellow-highlighters-2-1653638348563.png" class="asset" transform="matrix(0.03678631123376519,0,0,0.03835789167239766,295.69409148700646,113.7551421663629)"></image><text fill="#ffffff" font-family="American Captain" font-size="45" stroke-opacity="1" stroke-width="1" stroke="#000000" x="196.88588543811736" y="200.19087427705915" transform="matrix(0.5000107006799759,0,0,0.4138928743803553,232.0780160794984,50.62237432214806)" svgjs:data="{&quot;leading&quot;:&quot;1.3&quot;}"><tspan dy="0" x="196.88588543811736" svgjs:data="{&quot;newLined&quot;:true}">player </tspan></text><text fill="#ffffff" font-family="American Captain" font-size="45" stroke-opacity="1" stroke-width="1" stroke="#000000" x="196.88588543811736" y="200.19087427705915" transform="matrix(0.5000107006799759,0,0,0.4138928743803553,329.2136809361491,51.83620595293178)" svgjs:data="{&quot;leading&quot;:&quot;1.3&quot;}"><tspan dy="0" x="196.88588543811736" svgjs:data="{&quot;newLined&quot;:true}">player </tspan></text><image width="760" height="750" xlink:href="https://lct-designs.s3.us-west-1.amazonaws.com/assets/libs/yellow-highlighters-2-1653638348563.png" class="asset" transform="matrix(0.03678631123376519,0,0,0.03835789167239766,392.82978467568125,114.96898118275203)"></image><text fill="#ffffff" font-family="American Captain" font-size="45" stroke-opacity="1" stroke-width="1" stroke="#000000" x="196.88588543811736" y="200.19087427705915" transform="matrix(0.5000107288360596,0,0,0.4138930439949035,315.1514892578125,18.548627853393555)" svgjs:data="{&quot;leading&quot;:&quot;1.3&quot;}"><tspan dy="0" x="196.88588543811736" svgjs:data="{&quot;newLined&quot;:true}">player </tspan></text><image width="760" height="750" xlink:href="https://lct-designs.s3.us-west-1.amazonaws.com/assets/libs/yellow-highlighters-2-1653638348563.png" class="asset" transform="matrix(0.03678631123376519,0,0,0.03835789167239766,274.49618434019067,150.35997500434675)"></image><text fill="#ffffff" font-family="American Captain" font-size="45" stroke-opacity="1" stroke-width="1" stroke="#000000" x="196.88588543811736" y="200.19087427705915" transform="matrix(0.5000107006799759,0,0,0.4138928743803553,210.88009476667042,87.22720716013191)" svgjs:data="{&quot;leading&quot;:&quot;1.3&quot;}"><tspan dy="0" x="196.88588543811736" svgjs:data="{&quot;newLined&quot;:true}">player </tspan></text><image width="760" height="750" xlink:href="https://lct-designs.s3.us-west-1.amazonaws.com/assets/libs/yellow-highlighters-2-1653638348563.png" class="asset" transform="matrix(0.03678631123376519,0,0,0.03835789167239766,380.2141576227168,151.348154233774)"></image><image width="760" height="750" xlink:href="https://lct-designs.s3.us-west-1.amazonaws.com/assets/libs/yellow-highlighters-2-1653638348563.png" class="asset" transform="matrix(0.03678631123376519,0,0,0.03835789167239766,294.56948012008434,192.53779364081672)"></image><text fill="#ffffff" font-family="American Captain" font-size="45" stroke-opacity="1" stroke-width="1" stroke="#000000" x="196.88588543811736" y="200.19087427705915" transform="matrix(0.5000107006799759,0,0,0.41389304748048156,230.95340471257623,129.40501841099646)" svgjs:data="{&quot;leading&quot;:&quot;1.3&quot;}"><tspan dy="0" x="196.88588543811736" svgjs:data="{&quot;newLined&quot;:true}">player </tspan></text><image width="760" height="750" xlink:href="https://lct-designs.s3.us-west-1.amazonaws.com/assets/libs/yellow-highlighters-2-1653638348563.png" class="asset" transform="matrix(0.03678631123376519,0,0,0.03835789167239766,388.68854936857485,190.0408090870969)"></image><text fill="#ffffff" font-family="American Captain" font-size="45" stroke-opacity="1" stroke-width="1" stroke="#000000" x="196.88588543811736" y="200.19087427705915" transform="matrix(0.5000107006799759,0,0,0.4138928743803553,325.0724456290427,126.90803385727665)" svgjs:data="{&quot;leading&quot;:&quot;1.3&quot;}"><tspan dy="0" x="196.88588543811736" svgjs:data="{&quot;newLined&quot;:true}">player </tspan></text><text fill="#ffffff" font-family="American Captain" font-size="45" stroke-opacity="1" stroke-width="1" stroke="#000000" x="196.88588543811736" y="200.19087427705915" transform="matrix(0.5000107006799759,0,0,0.41389304748048156,316.5981105472328,88.21538638955917)" svgjs:data="{&quot;leading&quot;:&quot;1.3&quot;}"><tspan dy="0" x="196.88588543811736" svgjs:data="{&quot;newLined&quot;:true}">player </tspan></text><image width="760" height="750" xlink:href="https://lct-designs.s3.us-west-1.amazonaws.com/assets/libs/yellow-highlighters-2-1653638348563.png" class="asset" transform="matrix(0.03678631123376519,0,0,0.03835789167239766,276.0834293295866,236.50843844230073)"></image><text fill="#ffffff" font-family="American Captain" font-size="45" stroke-opacity="1" stroke-width="1" stroke="#000000" x="196.88588543811736" y="200.19087427705915" transform="matrix(0.5000107288360596,0,0,0.4138930439949035,212.46736145019526,173.3756561279297)" svgjs:data="{&quot;leading&quot;:&quot;1.3&quot;}"><tspan dy="0" x="196.88588543811736" svgjs:data="{&quot;newLined&quot;:true}">player </tspan></text><image width="760" height="750" xlink:href="https://lct-designs.s3.us-west-1.amazonaws.com/assets/libs/yellow-highlighters-2-1653638348563.png" class="asset" transform="matrix(0.03678631123376519,0,0,0.03835789167239766,370.2024985780772,234.01145388858092)"></image><text fill="#ffffff" font-family="American Captain" font-size="45" stroke-opacity="1" stroke-width="1" stroke="#000000" x="196.88588543811736" y="200.19087427705915" transform="matrix(0.5000107006799759,0,0,0.4138928743803553,306.58639483854495,170.8786786587607)" svgjs:data="{&quot;leading&quot;:&quot;1.3&quot;}"><tspan dy="0" x="196.88588543811736" svgjs:data="{&quot;newLined&quot;:true}">player </tspan></text><text fill="#ffffff" font-family="American Captain" font-size="45" stroke-opacity="1" stroke-width="1" stroke="#000000" x="196.88588543811736" y="200.19087427705915" transform="matrix(0.5000107288360597,0,0,0.41389304399490356,189.78564453125006,204.20623779296872)" svgjs:data="{&quot;leading&quot;:&quot;1.3&quot;}"><tspan dy="0" x="196.88588543811736" svgjs:data="{&quot;newLined&quot;:true}">coach:coach's name</tspan><tspan dy="58.5" x="196.88588543811736" svgjs:data="{&quot;newLined&quot;:true}"></tspan></text><text fill="#ffffff" font-family="American Captain" font-size="45" stroke-opacity="1" stroke-width="1" stroke="#000000" x="196.88588543811736" y="200.19087427705915" transform="matrix(0.5000107288360597,0,0,0.41389304399490356,-66.31964111328124,204.20623779296872)" svgjs:data="{&quot;leading&quot;:&quot;1.3&quot;}"><tspan dy="0" x="196.88588543811736" svgjs:data="{&quot;newLined&quot;:true}">Team mom: name</tspan></text><g class="mask" style="pointer-events: none;"><g><path fill="#BCBEC0" d="M-3642.4-2101.7v4589.1h7813.4v-4589.1H-3642.4z M500.5,67.2v233.3v66.7H0.5v-66.7V67.2V0.5h500V67.2z" transform="matrix(1,0,0,1,0,0)"></path><g transform="matrix(1,0,0,1,0,0)">
	<rect x="0.5" y="300.5" opacity="0.95" fill="#F1F2F2" width="500" height="66.7"></rect>
	<rect x="0.5" y="0.5" opacity="0.95" fill="#F1F2F2" width="500" height="66.7"></rect>
</g></g></g></svg>