<svg xmlns="http://www.w3.org/2000/svg" version="1.1" xmlns:xlink="http://www.w3.org/1999/xlink" xmlns:svgjs="http://svgjs.dev/svgjs" width="100%" height="100%" viewBox="1 1 499 365.70001220703125" preserveAspectRatio="none" data-info="{&quot;_id&quot;:4,&quot;name&quot;:&quot;POLE POCKET SOCCER BANNERS&quot;,&quot;information&quot;:&quot;- Size: 3’x5’\n- Material: heavy duty vinyl banner\n- Digitally printed on vinyl&quot;,&quot;price&quot;:&quot;95.00&quot;,&quot;sale_price&quot;:&quot;89.99&quot;,&quot;type&quot;:&quot;pole-pocket&quot;,&quot;cover&quot;:{&quot;key&quot;:&quot;assets/models/pole-1628062864266-1631924568908.png&quot;,&quot;url&quot;:&quot;https://lct-designs.s3.us-west-1.amazonaws.com/assets/models/pole-1628062864266-1631924568908.png&quot;},&quot;back&quot;:{&quot;key&quot;:&quot;assets/models/pole-1631924700152.svg&quot;,&quot;url&quot;:&quot;https://lct-designs.s3.us-west-1.amazonaws.com/assets/models/pole-1631924700152.svg&quot;},&quot;mask&quot;:{&quot;key&quot;:&quot;assets/models/pole-mask-1631925211715.svg&quot;,&quot;url&quot;:&quot;https://lct-designs.s3.us-west-1.amazonaws.com/assets/models/pole-mask-1631925211715.svg&quot;},&quot;pos&quot;:&quot;2&quot;,&quot;accessories&quot;:&quot;2,3&quot;}" style="background-color: white;"><g class="model" style="pointer-events: none;"><polygon fill="#FFFFFF" points="0.5,0.5 0.5,67.2 0.5,300.5 0.5,367.2 500.5,367.2 500.5,300.5 500.5,67.2 500.5,0.5 "></polygon></g><image width="760" height="556" xlink:href="https://lct-designs.s3.us-west-1.amazonaws.com/assets/libs/pumas-7-1652086204050.png" class="asset background locked" transform="matrix(0.6595323960558116,0,0,0.6595323960558116,0,0)"></image><image width="760" height="174" xlink:href="https://lct-designs.s3.us-west-1.amazonaws.com/assets/libs/pumas-5-1652085375128.png" class="asset" transform="matrix(0.3679439425468445,0,0,0.36794394254684454,110.67950439453128,89.39893341064456)"></image><image width="562" height="760" xlink:href="https://lct-designs.s3.us-west-1.amazonaws.com/assets/libs/pumas-3-1652085375127.png" class="asset" transform="matrix(0.18439245223999026,0,0,0.18439245223999023,189.51530456542974,151.18945312500003)"></image><image width="709" height="760" xlink:href="https://lct-designs.s3.us-west-1.amazonaws.com/assets/libs/pumas-6-1652085375128.png" class="asset" transform="matrix(0.04812059551477433,0,0,0.04812059551477432,20.500818252563477,154.16270446777347)"></image><text fill="#000000" font-family="DEATHE MAACH NCV" font-size="45" stroke-opacity="1" stroke-width="1" stroke="#ffffff" x="187.8876804752717" y="200.6983965539972" transform="matrix(0.6275249719619752,0,0,0.6275249719619752,-59.848056793212876,58.5706787109375)" svgjs:data="{&quot;leading&quot;:&quot;1.3&quot;}"><tspan dy="0" x="187.8876804752717" svgjs:data="{&quot;newLined&quot;:true}">Player</tspan></text><image width="709" height="760" xlink:href="https://lct-designs.s3.us-west-1.amazonaws.com/assets/libs/pumas-6-1652085375128.png" class="asset" transform="matrix(0.04812060296535492,0,0,0.048120602965354926,71.13514709472659,202.23014831542966)"></image><text fill="#000000" font-family="DEATHE MAACH NCV" font-size="45" stroke-opacity="1" stroke-width="1" stroke="#ffffff" x="187.8876804752717" y="200.6983965539972" transform="matrix(0.6275251507759095,0,0,0.6275251507759095,-9.213726043701158,106.63812255859375)" svgjs:data="{&quot;leading&quot;:&quot;1.3&quot;}"><tspan dy="0" x="187.8876804752717" svgjs:data="{&quot;newLined&quot;:true}">Player</tspan></text><image width="709" height="760" xlink:href="https://lct-designs.s3.us-west-1.amazonaws.com/assets/libs/pumas-6-1652085375128.png" class="asset" transform="matrix(0.04812061786651612,0,0,0.04812061786651612,22.661357879638672,243.8555603027344)"></image><text fill="#000000" font-family="DEATHE MAACH NCV" font-size="45" stroke-opacity="1" stroke-width="1" stroke="#ffffff" x="187.8876804752717" y="200.6983965539972" transform="matrix(0.6275253295898438,0,0,0.6275253295898439,-57.68751525878905,148.26353454589844)" svgjs:data="{&quot;leading&quot;:&quot;1.3&quot;}"><tspan dy="0" x="187.8876804752717" svgjs:data="{&quot;newLined&quot;:true}">Player</tspan></text><image width="709" height="760" xlink:href="https://lct-designs.s3.us-west-1.amazonaws.com/assets/libs/pumas-6-1652085375128.png" class="asset" transform="matrix(0.04812060296535492,0,0,0.048120602965354926,307.5079898834229,159.11810302734378)"></image><text fill="#000000" font-family="DEATHE MAACH NCV" font-size="45" stroke-opacity="1" stroke-width="1" stroke="#ffffff" x="187.8876804752717" y="200.6983965539972" transform="matrix(0.6275251507759095,0,0,0.6275251507759095,227.15911483764648,63.52607727050781)" svgjs:data="{&quot;leading&quot;:&quot;1.3&quot;}"><tspan dy="0" x="187.8876804752717" svgjs:data="{&quot;newLined&quot;:true}">Player</tspan></text><image width="709" height="760" xlink:href="https://lct-designs.s3.us-west-1.amazonaws.com/assets/libs/pumas-6-1652085375128.png" class="asset" transform="matrix(0.04812061786651612,0,0,0.04812061786651612,358.142318725586,207.18554687500003)"></image><text fill="#000000" font-family="DEATHE MAACH NCV" font-size="45" stroke-opacity="1" stroke-width="1" stroke="#ffffff" x="187.8876804752717" y="200.6983965539972" transform="matrix(0.6275253295898438,0,0,0.6275253295898439,277.7934453487397,111.59352111816406)" svgjs:data="{&quot;leading&quot;:&quot;1.3&quot;}"><tspan dy="0" x="187.8876804752717" svgjs:data="{&quot;newLined&quot;:true}">Player</tspan></text><image width="709" height="760" xlink:href="https://lct-designs.s3.us-west-1.amazonaws.com/assets/libs/pumas-6-1652085375128.png" class="asset" transform="matrix(0.04812062904238701,0,0,0.048120629042387016,309.6685295104981,248.81095886230472)"></image><text fill="#000000" font-family="DEATHE MAACH NCV" font-size="45" stroke-opacity="1" stroke-width="1" stroke="#ffffff" x="187.8876804752717" y="200.6983965539972" transform="matrix(0.6275254487991333,0,0,0.6275254487991333,229.31965637207037,153.21893310546878)" svgjs:data="{&quot;leading&quot;:&quot;1.3&quot;}"><tspan dy="0" x="187.8876804752717" svgjs:data="{&quot;newLined&quot;:true}">Player</tspan></text><text fill="#000000" font-family="DEATHE MAACH NCV" font-size="45" stroke-opacity="1" stroke-width="1" stroke="#ffffff" x="76.29813427165843" y="200.6983965539972" transform="matrix(0.37267297506332403,0,0,0.372672975063324,337.29553222656256,10.282615661621094)" svgjs:data="{&quot;leading&quot;:&quot;1.3&quot;}"><tspan dy="0" x="76.29813427165843" svgjs:data="{&quot;newLined&quot;:true}">coach:coach's name</tspan></text><text fill="#000000" font-family="DEATHE MAACH NCV" font-size="45" stroke-opacity="1" stroke-width="1" stroke="#ffffff" x="76.29813427165843" y="200.6983965539972" transform="matrix(0.37267297506332403,0,0,0.372672975063324,-22.377737045288086,11.769235610961914)" svgjs:data="{&quot;leading&quot;:&quot;1.3&quot;}"><tspan dy="0" x="76.29813427165843" svgjs:data="{&quot;newLined&quot;:true}">team mom: name</tspan></text><g class="mask" style="pointer-events: none;"><g><path fill="#BCBEC0" d="M-3642.4-2101.7v4589.1h7813.4v-4589.1H-3642.4z M500.5,67.2v233.3v66.7H0.5v-66.7V67.2V0.5h500V67.2z" transform="matrix(1,0,0,1,0,0)"></path><g transform="matrix(1,0,0,1,0,0)">
	<rect x="0.5" y="300.5" opacity="0.95" fill="#F1F2F2" width="500" height="66.7"></rect>
	<rect x="0.5" y="0.5" opacity="0.95" fill="#F1F2F2" width="500" height="66.7"></rect>
</g></g></g></svg>