<svg xmlns="http://www.w3.org/2000/svg" version="1.1" xmlns:xlink="http://www.w3.org/1999/xlink" xmlns:svgjs="http://svgjs.dev/svgjs" width="100%" height="100%" viewBox="1 1 499 365.70001220703125" preserveAspectRatio="none" data-info="{&quot;_id&quot;:4,&quot;name&quot;:&quot;POLE POCKET SOCCER BANNERS&quot;,&quot;information&quot;:&quot;- Size: 3’x5’\n- Material: heavy duty vinyl banner\n- Digitally printed on vinyl&quot;,&quot;price&quot;:&quot;95.00&quot;,&quot;sale_price&quot;:&quot;89.99&quot;,&quot;type&quot;:&quot;pole-pocket&quot;,&quot;cover&quot;:{&quot;key&quot;:&quot;assets/models/pole-1628062864266-1631924568908.png&quot;,&quot;url&quot;:&quot;https://lct-designs.s3.us-west-1.amazonaws.com/assets/models/pole-1628062864266-1631924568908.png&quot;},&quot;back&quot;:{&quot;key&quot;:&quot;assets/models/pole-1631924700152.svg&quot;,&quot;url&quot;:&quot;https://lct-designs.s3.us-west-1.amazonaws.com/assets/models/pole-1631924700152.svg&quot;},&quot;mask&quot;:{&quot;key&quot;:&quot;assets/models/pole-mask-1631925211715.svg&quot;,&quot;url&quot;:&quot;https://lct-designs.s3.us-west-1.amazonaws.com/assets/models/pole-mask-1631925211715.svg&quot;},&quot;pos&quot;:&quot;2&quot;,&quot;accessories&quot;:&quot;2,3&quot;}" style="background-color: white;"><g class="model" style="pointer-events: none;"><polygon fill="#FFFFFF" points="0.5,0.5 0.5,67.2 0.5,300.5 0.5,367.2 500.5,367.2 500.5,300.5 500.5,67.2 500.5,0.5 "></polygon></g><image width="760" height="556" xlink:href="https://lct-designs.s3.us-west-1.amazonaws.com/assets/libs/power-rangers-2-1633515464334.png" class="asset background locked" transform="matrix(0.6595323960558116,0,0,0.6595323960558116,0,0)"></image><image width="760" height="159" xlink:href="https://lct-designs.s3.us-west-1.amazonaws.com/assets/libs/power-rangers-2-1633515620070.png" class="asset" transform="matrix(0.4837334752082825,0,0,0.4837334752082825,69.15656280517578,80.223388671875)"></image><image width="663" height="760" xlink:href="https://lct-designs.s3.us-west-1.amazonaws.com/assets/libs/power-rangers-2-1633515603647.png" class="asset" transform="matrix(0.18700055778026584,0,0,0.18700055778026584,21.544925689697266,136.32325744628906)"></image><image width="496" height="760" xlink:href="https://lct-designs.s3.us-west-1.amazonaws.com/assets/libs/power-rangers-2-1633515635785.png" class="asset" transform="matrix(0.06371281296014787,0,0,0.06371281296014787,149.78378295898443,204.90167248249057)"></image><text fill="#ffffff" font-family="Raider Crusader Straight" font-size="45" stroke-opacity="1" stroke-width="2" stroke="#000000" x="183.47814208701945" y="198.96400438785952" transform="matrix(0.41466975212097174,0,0,0.4146697521209717,109.18451690673831,148.7354432344437)" svgjs:data="{&quot;leading&quot;:&quot;1.3&quot;}"><tspan dy="0" x="183.47814208701945" svgjs:data="{&quot;newLined&quot;:true}">Player</tspan></text><image width="496" height="760" xlink:href="https://lct-designs.s3.us-west-1.amazonaws.com/assets/libs/power-rangers-2-1633515635785.png" class="asset" transform="matrix(0.06371279805898668,0,0,0.06371279805898668,133.1265411376953,155.1538087129593)"></image><text fill="#ffffff" font-family="Raider Crusader Straight" font-size="45" stroke-opacity="1" stroke-width="2" stroke="#000000" x="183.47814208701945" y="198.96400438785952" transform="matrix(0.41466975212097174,0,0,0.4146697521209717,92.52728271484378,98.98756420612335)" svgjs:data="{&quot;leading&quot;:&quot;1.3&quot;}"><tspan dy="0" x="183.47814208701945" svgjs:data="{&quot;newLined&quot;:true}">Player</tspan></text><image width="496" height="760" xlink:href="https://lct-designs.s3.us-west-1.amazonaws.com/assets/libs/power-rangers-2-1633515635785.png" class="asset" transform="matrix(0.06371279060840608,0,0,0.06371279060840608,215.74246215820318,246.8731842041016)"></image><text fill="#ffffff" font-family="Raider Crusader Straight" font-size="45" stroke-opacity="1" stroke-width="2" stroke="#000000" x="183.47814208701945" y="198.96400438785952" transform="matrix(0.41466975212097174,0,0,0.4146697521209717,177.12537384033203,186.99038696289062)" svgjs:data="{&quot;leading&quot;:&quot;1.3&quot;}"><tspan dy="0" x="183.47814208701945" svgjs:data="{&quot;newLined&quot;:true}">Player</tspan></text><image width="496" height="760" xlink:href="https://lct-designs.s3.us-west-1.amazonaws.com/assets/libs/power-rangers-2-1633515635785.png" class="asset" transform="matrix(0.06371273100376129,0,0,0.06371273100376129,327.8238830566407,240.92668151855472)"></image><text fill="#ffffff" font-family="Raider Crusader Straight" font-size="45" stroke-opacity="1" stroke-width="2" stroke="#000000" x="183.47814208701945" y="198.96400438785952" transform="matrix(0.41466975212097174,0,0,0.4146697521209717,287.224594116211,186.99034118652344)" svgjs:data="{&quot;leading&quot;:&quot;1.3&quot;}"><tspan dy="0" x="183.47814208701945" svgjs:data="{&quot;newLined&quot;:true}">Player</tspan></text><text fill="#ffffff" font-family="Raider Crusader Straight" font-size="45" stroke-opacity="1" stroke-width="2" stroke="#000000" x="183.47814208701945" y="198.96400438785952" transform="matrix(0.41466975212097174,0,0,0.4146697521209717,218.2089233398438,150.8373565673828)" svgjs:data="{&quot;leading&quot;:&quot;1.3&quot;}"><tspan dy="0" x="183.47814208701945" svgjs:data="{&quot;newLined&quot;:true}">Player</tspan></text><image width="496" height="760" xlink:href="https://lct-designs.s3.us-west-1.amazonaws.com/assets/libs/power-rangers-2-1633515635785.png" class="asset" transform="matrix(0.0637127608060837,0,0,0.06371276080608368,258.8082275390625,207.00360107421878)"></image><text fill="#ffffff" font-family="Raider Crusader Straight" font-size="45" stroke-opacity="1" stroke-width="2" stroke="#000000" x="183.47814208701945" y="198.96400438785952" transform="matrix(0.41466975212097174,0,0,0.4146697521209717,193.26037597656256,105.64970397949222)" svgjs:data="{&quot;leading&quot;:&quot;1.3&quot;}"><tspan dy="0" x="183.47814208701945" svgjs:data="{&quot;newLined&quot;:true}">Player</tspan></text><image width="496" height="760" xlink:href="https://lct-designs.s3.us-west-1.amazonaws.com/assets/libs/power-rangers-2-1633515635785.png" class="asset" transform="matrix(0.06371278315782547,0,0,0.06371278315782547,233.85964965820312,161.81594848632812)"></image><image width="496" height="760" xlink:href="https://lct-designs.s3.us-west-1.amazonaws.com/assets/libs/power-rangers-2-1633515635785.png" class="asset" transform="matrix(0.06371276825666428,0,0,0.06371276825666428,346.4365539550782,158.34716796875)"></image><text fill="#ffffff" font-family="Raider Crusader Straight" font-size="45" stroke-opacity="1" stroke-width="2" stroke="#000000" x="183.47814208701945" y="198.96400438785952" transform="matrix(0.41466975212097174,0,0,0.4146697521209717,330.7858276367188,147.3685760498047)" svgjs:data="{&quot;leading&quot;:&quot;1.3&quot;}"><tspan dy="0" x="183.47814208701945" svgjs:data="{&quot;newLined&quot;:true}">Player</tspan></text><image width="496" height="760" xlink:href="https://lct-designs.s3.us-west-1.amazonaws.com/assets/libs/power-rangers-2-1633515635785.png" class="asset" transform="matrix(0.06371274590492249,0,0,0.06371274590492249,371.38513183593756,203.53482055664065)"></image><text fill="#ffffff" font-family="Raider Crusader Straight" font-size="45" stroke-opacity="1" stroke-width="2" stroke="#000000" x="183.47814208701945" y="198.96400438785952" transform="matrix(0.41466975212097174,0,0,0.4146697521209717,305.83728027343756,102.18092346191409)" svgjs:data="{&quot;leading&quot;:&quot;1.3&quot;}"><tspan dy="0" x="183.47814208701945" svgjs:data="{&quot;newLined&quot;:true}">Player</tspan></text><text fill="#ffffff" font-family="Raider Crusader Straight" font-size="45" stroke-opacity="1" stroke-width="2" stroke="#000000" x="59.92206615642405" y="198.96400438785952" transform="matrix(0.36178958415985113,0,0,0.3617895841598511,365.2521057128907,220.80555725097653)" svgjs:data="{&quot;leading&quot;:&quot;1.3&quot;}"><tspan dy="0" x="59.92206615642405" svgjs:data="{&quot;newLined&quot;:true}">team mom:name</tspan></text><text fill="#ffffff" font-family="Raider Crusader Straight" font-size="45" stroke-opacity="1" stroke-width="2" stroke="#000000" x="59.92206615642405" y="198.96400438785952" transform="matrix(0.3617896139621735,0,0,0.36178961396217346,-8.791891098022447,221.79663085937497)" svgjs:data="{&quot;leading&quot;:&quot;1.3&quot;}"><tspan dy="0" x="59.92206615642405" svgjs:data="{&quot;newLined&quot;:true}">Coach:coach's name</tspan></text><g class="mask" style="pointer-events: none;"><g><path fill="#BCBEC0" d="M-3642.4-2101.7v4589.1h7813.4v-4589.1H-3642.4z M500.5,67.2v233.3v66.7H0.5v-66.7V67.2V0.5h500V67.2z" transform="matrix(1,0,0,1,0,0)"></path><g transform="matrix(1,0,0,1,0,0)">
	<rect x="0.5" y="300.5" opacity="0.95" fill="#F1F2F2" width="500" height="66.7"></rect>
	<rect x="0.5" y="0.5" opacity="0.95" fill="#F1F2F2" width="500" height="66.7"></rect>
</g></g></g></svg>