<svg xmlns="http://www.w3.org/2000/svg" version="1.1" xmlns:xlink="http://www.w3.org/1999/xlink" xmlns:svgjs="http://svgjs.dev/svgjs" width="100%" height="100%" viewBox="1 1 499 365.70001220703125" preserveAspectRatio="none" data-info="{&quot;_id&quot;:4,&quot;name&quot;:&quot;POLE POCKET SOCCER BANNERS&quot;,&quot;information&quot;:&quot;- Size: 3’x5’\n- Material: heavy duty vinyl banner\n- Digitally printed on vinyl&quot;,&quot;price&quot;:&quot;95.00&quot;,&quot;sale_price&quot;:&quot;89.99&quot;,&quot;type&quot;:&quot;pole-pocket&quot;,&quot;cover&quot;:{&quot;key&quot;:&quot;assets/models/pole-1628062864266-1631924568908.png&quot;,&quot;url&quot;:&quot;https://lct-designs.s3.us-west-1.amazonaws.com/assets/models/pole-1628062864266-1631924568908.png&quot;},&quot;back&quot;:{&quot;key&quot;:&quot;assets/models/pole-1631924700152.svg&quot;,&quot;url&quot;:&quot;https://lct-designs.s3.us-west-1.amazonaws.com/assets/models/pole-1631924700152.svg&quot;},&quot;mask&quot;:{&quot;key&quot;:&quot;assets/models/pole-mask-1631925211715.svg&quot;,&quot;url&quot;:&quot;https://lct-designs.s3.us-west-1.amazonaws.com/assets/models/pole-mask-1631925211715.svg&quot;},&quot;pos&quot;:&quot;2&quot;,&quot;accessories&quot;:&quot;2,3&quot;}" style="background-color: white;"><g class="model" style="pointer-events: none;"><polygon fill="#FFFFFF" points="0.5,0.5 0.5,67.2 0.5,300.5 0.5,367.2 500.5,367.2 500.5,300.5 500.5,67.2 500.5,0.5 "></polygon></g><image width="760" height="553" xlink:href="https://lct-designs.s3.us-west-1.amazonaws.com/assets/libs/orangecrush-1632741205265.png" class="asset background locked" transform="matrix(0.6631103294883024,0,0,0.6631103294883024,0,0)"></image><text fill="#e18201" font-family="Chunky Funks" font-size="50" stroke-opacity="1" stroke-width="2" stroke="#ffffff" x="-98.72634249947717" y="199.47500657859518" transform="matrix(0.27398869395256037,0,0,0.2739886939525605,38.890647888183594,93.39742279052736)" svgjs:data="{&quot;leading&quot;:&quot;1.3&quot;}"><tspan dy="0" x="-98.72634249947717" svgjs:data="{&quot;newLined&quot;:true}">PLAYER</tspan></text><text fill="#e18201" font-family="Chunky Funks" font-size="50" stroke-opacity="1" stroke-width="2" stroke="#ffffff" x="-98.72634249947717" y="199.47500657859518" transform="matrix(0.2739884555339813,0,0,0.2739884555339813,40.28849029541014,162.21463012695312)" svgjs:data="{&quot;leading&quot;:&quot;1.3&quot;}"><tspan dy="0" x="-98.72634249947717" svgjs:data="{&quot;newLined&quot;:true}">PLAYER</tspan></text><text fill="#e18201" font-family="Chunky Funks" font-size="50" stroke-opacity="1" stroke-width="2" stroke="#ffffff" x="-98.72634249947717" y="199.47500657859518" transform="matrix(0.2739883363246918,0,0,0.2739883363246918,41.148719787597656,232.10711669921875)" svgjs:data="{&quot;leading&quot;:&quot;1.3&quot;}"><tspan dy="0" x="-98.72634249947717" svgjs:data="{&quot;newLined&quot;:true}">PLAYER</tspan></text><text fill="#e18201" font-family="Chunky Funks" font-size="50" stroke-opacity="1" stroke-width="2" stroke="#ffffff" x="-98.72634249947717" y="199.47500657859518" transform="matrix(0.27398821711540217,0,0,0.2739882171154022,140.9336700439453,232.10716247558588)" svgjs:data="{&quot;leading&quot;:&quot;1.3&quot;}"><tspan dy="0" x="-98.72634249947717" svgjs:data="{&quot;newLined&quot;:true}">PLAYER</tspan></text><text fill="#e18201" font-family="Chunky Funks" font-size="50" stroke-opacity="1" stroke-width="2" stroke="#ffffff" x="-98.72634249947717" y="199.47500657859518" transform="matrix(0.27398821711540217,0,0,0.2739882171154022,241.7938995361328,232.107177734375)" svgjs:data="{&quot;leading&quot;:&quot;1.3&quot;}"><tspan dy="0" x="-98.72634249947717" svgjs:data="{&quot;newLined&quot;:true}">PLAYER</tspan></text><image width="760" height="647" xlink:href="https://lct-designs.s3.us-west-1.amazonaws.com/assets/libs/orangecrush-3-1632741397488.png" class="asset" transform="matrix(0.051537055522203445,0,0,0.05153705552220345,20.64879417419433,237.82730102539062)"></image><image width="760" height="647" xlink:href="https://lct-designs.s3.us-west-1.amazonaws.com/assets/libs/orangecrush-3-1632741397488.png" class="asset" transform="matrix(0.051537055522203445,0,0,0.05153705552220345,120.43376159667969,237.82730102539062)"></image><image width="760" height="647" xlink:href="https://lct-designs.s3.us-west-1.amazonaws.com/assets/libs/orangecrush-3-1632741397488.png" class="asset" transform="matrix(0.051537055522203445,0,0,0.05153705552220345,221.2939758300781,237.82730102539062)"></image><text fill="#e18201" font-family="Chunky Funks" font-size="50" stroke-opacity="1" stroke-width="2" stroke="#ffffff" x="-98.72634249947717" y="199.47500657859518" transform="matrix(0.2739884555339813,0,0,0.2739884555339813,140.0734405517578,162.2146759033203)" svgjs:data="{&quot;leading&quot;:&quot;1.3&quot;}"><tspan dy="0" x="-98.72634249947717" svgjs:data="{&quot;newLined&quot;:true}">PLAYER</tspan></text><text fill="#e18201" font-family="Chunky Funks" font-size="50" stroke-opacity="1" stroke-width="2" stroke="#ffffff" x="-98.72634249947717" y="199.47500657859518" transform="matrix(0.2739884555339813,0,0,0.2739884555339813,240.9336700439453,162.21469116210938)" svgjs:data="{&quot;leading&quot;:&quot;1.3&quot;}"><tspan dy="0" x="-98.72634249947717" svgjs:data="{&quot;newLined&quot;:true}">PLAYER</tspan></text><image width="760" height="647" xlink:href="https://lct-designs.s3.us-west-1.amazonaws.com/assets/libs/orangecrush-3-1632741397488.png" class="asset" transform="matrix(0.051537055522203445,0,0,0.05153705552220345,19.788564682006836,167.934814453125)"></image><image width="760" height="647" xlink:href="https://lct-designs.s3.us-west-1.amazonaws.com/assets/libs/orangecrush-3-1632741397488.png" class="asset" transform="matrix(0.051537055522203445,0,0,0.05153705552220345,119.57353210449219,167.934814453125)"></image><image width="760" height="647" xlink:href="https://lct-designs.s3.us-west-1.amazonaws.com/assets/libs/orangecrush-3-1632741397488.png" class="asset" transform="matrix(0.051537055522203445,0,0,0.05153705552220345,220.43374633789062,167.934814453125)"></image><text fill="#e18201" font-family="Chunky Funks" font-size="50" stroke-opacity="1" stroke-width="2" stroke="#ffffff" x="-98.72634249947717" y="199.47500657859518" transform="matrix(0.27398863434791565,0,0,0.27398863434791565,138.67559814453125,93.39746093750001)" svgjs:data="{&quot;leading&quot;:&quot;1.3&quot;}"><tspan dy="0" x="-98.72634249947717" svgjs:data="{&quot;newLined&quot;:true}">PLAYER</tspan></text><text fill="#e18201" font-family="Chunky Funks" font-size="50" stroke-opacity="1" stroke-width="2" stroke="#ffffff" x="-98.72634249947717" y="199.47500657859518" transform="matrix(0.27398863434791565,0,0,0.27398863434791565,239.53582763671875,93.39746856689455)" svgjs:data="{&quot;leading&quot;:&quot;1.3&quot;}"><tspan dy="0" x="-98.72634249947717" svgjs:data="{&quot;newLined&quot;:true}">PLAYER</tspan></text><image width="760" height="647" xlink:href="https://lct-designs.s3.us-west-1.amazonaws.com/assets/libs/orangecrush-3-1632741397488.png" class="asset" transform="matrix(0.051537055522203445,0,0,0.05153705552220345,18.390722274780266,99.1175994873047)"></image><image width="760" height="647" xlink:href="https://lct-designs.s3.us-west-1.amazonaws.com/assets/libs/orangecrush-3-1632741397488.png" class="asset" transform="matrix(0.051537055522203445,0,0,0.05153705552220345,118.1756820678711,99.1175994873047)"></image><image width="760" height="647" xlink:href="https://lct-designs.s3.us-west-1.amazonaws.com/assets/libs/orangecrush-3-1632741397488.png" class="asset" transform="matrix(0.051537055522203445,0,0,0.05153705552220345,219.03590393066406,99.1175994873047)"></image><text fill="#e78c02" font-family="Chunky Funks" font-size="50" stroke-opacity="1" stroke-width="2" stroke="#ffffff" x="-98.72634249947717" y="199.47500657859518" transform="matrix(0.21311862766742706,0,0,0.21311862766742706,28.385047912597656,40.79554748535156)" svgjs:data="{&quot;leading&quot;:&quot;1.3&quot;}"><tspan dy="0" x="-98.72634249947717" svgjs:data="{&quot;newLined&quot;:true}">COACH: COACH'S NAME</tspan></text><text fill="#e18201" font-family="Chunky Funks" font-size="50" stroke-opacity="1" stroke-width="2" stroke="#ffffff" x="-98.72634249947717" y="199.47500657859518" transform="matrix(0.21311892569065094,0,0,0.21311892569065094,205.58738708496094,40.79547119140625)" svgjs:data="{&quot;leading&quot;:&quot;1.3&quot;}"><tspan dy="0" x="-98.72634249947717" svgjs:data="{&quot;newLined&quot;:true}">TEAM MOM: TEAM MOM'S NAME</tspan></text><image width="760" height="740" xlink:href="https://lct-designs.s3.us-west-1.amazonaws.com/assets/libs/orangecrush-2-1632741368609.png" class="asset" transform="matrix(0.27325099706649775,0,0,0.2732509970664978,279.0322265625,84.12817382812501)"></image><g class="mask" style="pointer-events: none;"><g><path fill="#BCBEC0" d="M-3642.4-2101.7v4589.1h7813.4v-4589.1H-3642.4z M500.5,67.2v233.3v66.7H0.5v-66.7V67.2V0.5h500V67.2z" transform="matrix(1,0,0,1,0,0)"></path><g transform="matrix(1,0,0,1,0,0)">
	<rect x="0.5" y="300.5" opacity="0.95" fill="#F1F2F2" width="500" height="66.7"></rect>
	<rect x="0.5" y="0.5" opacity="0.95" fill="#F1F2F2" width="500" height="66.7"></rect>
</g></g></g></svg>