<svg xmlns="http://www.w3.org/2000/svg" version="1.1" xmlns:xlink="http://www.w3.org/1999/xlink" xmlns:svgjs="http://svgjs.dev/svgjs" width="100%" height="100%" viewBox="1 1 499 365.70001220703125" preserveAspectRatio="none" data-info="{&quot;_id&quot;:4,&quot;name&quot;:&quot;POLE POCKET SOCCER BANNERS&quot;,&quot;information&quot;:&quot;- Size: 3’x5’\n- Material: heavy duty vinyl banner\n- Digitally printed on vinyl&quot;,&quot;price&quot;:&quot;95.00&quot;,&quot;sale_price&quot;:&quot;89.99&quot;,&quot;type&quot;:&quot;pole-pocket&quot;,&quot;cover&quot;:{&quot;key&quot;:&quot;assets/models/pole-1628062864266-1631924568908.png&quot;,&quot;url&quot;:&quot;https://lct-designs.s3.us-west-1.amazonaws.com/assets/models/pole-1628062864266-1631924568908.png&quot;},&quot;back&quot;:{&quot;key&quot;:&quot;assets/models/pole-1631924700152.svg&quot;,&quot;url&quot;:&quot;https://lct-designs.s3.us-west-1.amazonaws.com/assets/models/pole-1631924700152.svg&quot;},&quot;mask&quot;:{&quot;key&quot;:&quot;assets/models/pole-mask-1631925211715.svg&quot;,&quot;url&quot;:&quot;https://lct-designs.s3.us-west-1.amazonaws.com/assets/models/pole-mask-1631925211715.svg&quot;},&quot;pos&quot;:&quot;2&quot;,&quot;accessories&quot;:&quot;2,3&quot;}" style="background-color: white;"><g class="model" style="pointer-events: none;"><polygon fill="#FFFFFF" points="0.5,0.5 0.5,67.2 0.5,300.5 0.5,367.2 500.5,367.2 500.5,300.5 500.5,67.2 500.5,0.5 "></polygon></g><image width="760" height="556" xlink:href="https://lct-designs.s3.us-west-1.amazonaws.com/assets/libs/pinkalicious-5-1652068220253.png" class="asset background locked" transform="matrix(0.6595323960558116,0,0,0.6595323960558116,0,0)"></image><g class="g-selected"></g><image width="760" height="197" xlink:href="https://lct-designs.s3.us-west-1.amazonaws.com/assets/libs/pinkalicious-1-1652068220252.png" class="asset" transform="matrix(0.43067765235900873,0,0,0.43067765235900873,86.83751678466797,73.75906372070314)"></image><text fill="#eb008b" font-family="SVN-Coco FY" font-size="45" stroke-opacity="1" stroke-width="1" stroke="#000000" x="202.95289260581828" y="200.94616686344546" transform="matrix(0.5431442856788634,0,0,0.5431442856788634,-93.9202880859375,101.82157135009764)" svgjs:data="{&quot;leading&quot;:&quot;1.3&quot;}"><tspan dy="0" x="202.95289260581828" svgjs:data="{&quot;newLined&quot;:true}">Player</tspan></text><image width="760" height="367" xlink:href="https://lct-designs.s3.us-west-1.amazonaws.com/assets/libs/pinkalicious-4-1652068220253.png" class="asset" transform="matrix(0.07984588295221327,0,0,0.07984588295221327,11.891880035400394,165.15121459960938)"></image><image width="760" height="367" xlink:href="https://lct-designs.s3.us-west-1.amazonaws.com/assets/libs/pinkalicious-4-1652068220253.png" class="asset" transform="matrix(0.07984589040279387,0,0,0.07984589040279387,39.7297248840332,215.42149353027344)"></image><text fill="#eb008b" font-family="SVN-Coco FY" font-size="45" stroke-opacity="1" stroke-width="1" stroke="#000000" x="202.95289260581828" y="200.94616686344546" transform="matrix(0.5431442856788634,0,0,0.5431442856788634,-10.406768798828121,101.82157135009764)" svgjs:data="{&quot;leading&quot;:&quot;1.3&quot;}"><tspan dy="0" x="202.95289260581828" svgjs:data="{&quot;newLined&quot;:true}">Player</tspan></text><image width="760" height="367" xlink:href="https://lct-designs.s3.us-west-1.amazonaws.com/assets/libs/pinkalicious-4-1652068220253.png" class="asset" transform="matrix(0.07984589040279387,0,0,0.07984589040279387,95.4053955078125,165.15121459960938)"></image><text fill="#eb008b" font-family="SVN-Coco FY" font-size="45" stroke-opacity="1" stroke-width="1" stroke="#000000" x="202.95289260581828" y="200.94616686344546" transform="matrix(0.5431442856788634,0,0,0.5431442856788634,207.97161865234372,103.98372650146483)" svgjs:data="{&quot;leading&quot;:&quot;1.3&quot;}"><tspan dy="0" x="202.95289260581828" svgjs:data="{&quot;newLined&quot;:true}">Player</tspan></text><image width="760" height="367" xlink:href="https://lct-designs.s3.us-west-1.amazonaws.com/assets/libs/pinkalicious-4-1652068220253.png" class="asset" transform="matrix(0.07984592020511627,0,0,0.07984592020511627,313.7837829589843,167.31336975097656)"></image><image width="760" height="367" xlink:href="https://lct-designs.s3.us-west-1.amazonaws.com/assets/libs/pinkalicious-4-1652068220253.png" class="asset" transform="matrix(0.07984593510627747,0,0,0.07984593510627745,341.6216430664062,217.58364868164057)"></image><text fill="#eb008b" font-family="SVN-Coco FY" font-size="45" stroke-opacity="1" stroke-width="1" stroke="#000000" x="202.95289260581828" y="200.94616686344546" transform="matrix(0.5431442856788634,0,0,0.5431442856788634,291.48513793945307,103.98372650146483)" svgjs:data="{&quot;leading&quot;:&quot;1.3&quot;}"><tspan dy="0" x="202.95289260581828" svgjs:data="{&quot;newLined&quot;:true}">Player</tspan></text><image width="760" height="367" xlink:href="https://lct-designs.s3.us-west-1.amazonaws.com/assets/libs/pinkalicious-4-1652068220253.png" class="asset" transform="matrix(0.07984590530395508,0,0,0.07984590530395506,397.2973022460937,167.31336975097656)"></image><text fill="#eb008b" font-family="SVN-Coco FY" font-size="45" stroke-opacity="1" stroke-width="1" stroke="#000000" x="202.95289260581828" y="200.94616686344546" transform="matrix(0.5431442856788634,0,0,0.5431442856788634,235.80946350097656,154.25401306152338)" svgjs:data="{&quot;leading&quot;:&quot;1.3&quot;}"><tspan dy="0" x="202.95289260581828" svgjs:data="{&quot;newLined&quot;:true}">Player</tspan></text><text fill="#eb008b" font-family="SVN-Coco FY" font-size="45" stroke-opacity="1" stroke-width="1" stroke="#000000" x="202.95289260581828" y="200.94616686344546" transform="matrix(0.5431442856788634,0,0,0.5431442856788634,319.322998046875,154.25401306152338)" svgjs:data="{&quot;leading&quot;:&quot;1.3&quot;}"><tspan dy="0" x="202.95289260581828" svgjs:data="{&quot;newLined&quot;:true}">Player</tspan></text><image width="760" height="367" xlink:href="https://lct-designs.s3.us-west-1.amazonaws.com/assets/libs/pinkalicious-4-1652068220253.png" class="asset" transform="matrix(0.07984593510627747,0,0,0.07984593510627745,425.13513183593744,217.58364868164057)"></image><text fill="#eb008b" font-family="SVN-Coco FY" font-size="45" stroke-opacity="1" stroke-width="1" stroke="#000000" x="202.95289260581828" y="200.94616686344546" transform="matrix(0.5431442856788634,0,0,0.5431442856788634,-66.08244323730469,152.09185791015625)" svgjs:data="{&quot;leading&quot;:&quot;1.3&quot;}"><tspan dy="0" x="202.95289260581828" svgjs:data="{&quot;newLined&quot;:true}">Player</tspan></text><text fill="#eb008b" font-family="SVN-Coco FY" font-size="45" stroke-opacity="1" stroke-width="1" stroke="#000000" x="202.95289260581828" y="200.94616686344546" transform="matrix(0.5431442856788634,0,0,0.5431442856788634,17.431076049804684,152.09185791015625)" svgjs:data="{&quot;leading&quot;:&quot;1.3&quot;}"><tspan dy="0" x="202.95289260581828" svgjs:data="{&quot;newLined&quot;:true}">Player</tspan></text><image width="760" height="367" xlink:href="https://lct-designs.s3.us-west-1.amazonaws.com/assets/libs/pinkalicious-4-1652068220253.png" class="asset" transform="matrix(0.07984589040279387,0,0,0.07984589040279387,123.24324035644528,215.42149353027344)"></image><image width="760" height="699" xlink:href="https://lct-designs.s3.us-west-1.amazonaws.com/assets/libs/pinkalicious-3-1652068220253.png" class="asset" transform="matrix(0.16715045273303983,0,0,0.16715045273303983,186.97781829815355,161.14694213867188)"></image><text fill="#eb008b" font-family="SVN-Coco FY" font-size="45" stroke-opacity="1" stroke-width="1" stroke="#000000" x="132.5652164860139" y="200.20285593510073" transform="matrix(0.4664680361747741,0,0,0.4664680361747741,314.8157653808593,200.83053588867188)" svgjs:data="{&quot;leading&quot;:&quot;1.3&quot;}"><tspan dy="0" x="132.5652164860139" svgjs:data="{&quot;newLined&quot;:true}">Team mom:name</tspan></text><text fill="#eb008b" font-family="SVN-Coco FY" font-size="45" stroke-opacity="1" stroke-width="1" stroke="#000000" x="132.5652164860139" y="200.20285593510073" transform="matrix(0.4664680361747741,0,0,0.4664680361747741,-50.69335556030273,200.83055114746094)" svgjs:data="{&quot;leading&quot;:&quot;1.3&quot;}"><tspan dy="0" x="132.5652164860139" svgjs:data="{&quot;newLined&quot;:true}">Coach:Coach's name</tspan></text><g class="mask" style="pointer-events: none;"><g><path fill="#BCBEC0" d="M-3642.4-2101.7v4589.1h7813.4v-4589.1H-3642.4z M500.5,67.2v233.3v66.7H0.5v-66.7V67.2V0.5h500V67.2z" transform="matrix(1,0,0,1,0,0)"></path><g transform="matrix(1,0,0,1,0,0)">
	<rect x="0.5" y="300.5" opacity="0.95" fill="#F1F2F2" width="500" height="66.7"></rect>
	<rect x="0.5" y="0.5" opacity="0.95" fill="#F1F2F2" width="500" height="66.7"></rect>
</g></g></g></svg>