<svg xmlns="http://www.w3.org/2000/svg" version="1.1" xmlns:xlink="http://www.w3.org/1999/xlink" xmlns:svgjs="http://svgjs.dev/svgjs" width="100%" height="100%" viewBox="1 1 499 365.70001220703125" preserveAspectRatio="none" data-info="{&quot;_id&quot;:4,&quot;name&quot;:&quot;POLE POCKET SOCCER BANNERS&quot;,&quot;information&quot;:&quot;- Size: 3’x5’\n- Material: heavy duty vinyl banner\n- Digitally printed on vinyl&quot;,&quot;price&quot;:&quot;95.00&quot;,&quot;sale_price&quot;:&quot;89.99&quot;,&quot;type&quot;:&quot;pole-pocket&quot;,&quot;cover&quot;:{&quot;key&quot;:&quot;assets/models/pole-1628062864266-1631924568908.png&quot;,&quot;url&quot;:&quot;https://lct-designs.s3.us-west-1.amazonaws.com/assets/models/pole-1628062864266-1631924568908.png&quot;},&quot;back&quot;:{&quot;key&quot;:&quot;assets/models/pole-1631924700152.svg&quot;,&quot;url&quot;:&quot;https://lct-designs.s3.us-west-1.amazonaws.com/assets/models/pole-1631924700152.svg&quot;},&quot;mask&quot;:{&quot;key&quot;:&quot;assets/models/pole-mask-1631925211715.svg&quot;,&quot;url&quot;:&quot;https://lct-designs.s3.us-west-1.amazonaws.com/assets/models/pole-mask-1631925211715.svg&quot;},&quot;pos&quot;:&quot;2&quot;,&quot;accessories&quot;:&quot;2,3&quot;}" style="background-color: white;"><g class="model" style="pointer-events: none;"><polygon fill="#FFFFFF" points="0.5,0.5 0.5,67.2 0.5,300.5 0.5,367.2 500.5,367.2 500.5,300.5 500.5,67.2 500.5,0.5 "></polygon></g><image width="760" height="455" xlink:href="https://lct-designs.s3.us-west-1.amazonaws.com/assets/libs/outlaw-2-1651204013750.png" class="asset background locked" transform="matrix(0.805934092762706,0,0,0.805934092762706,0,0)"></image><text fill="#ffffff" font-family="Skater Girls Rock" font-size="50" stroke-opacity="1" stroke-width="2" stroke="#000000" x="-98.72634249947717" y="199.47500657859518" transform="matrix(0.25099608302116394,0,0,0.25099608302116394,401.45855712890625,243.65917968750006)" svgjs:data="{&quot;leading&quot;:&quot;1.3&quot;}"><tspan dy="0" x="-98.72634249947717" svgjs:data="{&quot;newLined&quot;:true}">COACH: COACH'S NAME</tspan></text><text fill="#ffffff" font-family="Skater Girls Rock" font-size="50" stroke-opacity="1" stroke-width="2" stroke="#000000" x="-98.72634249947717" y="199.47500657859518" transform="matrix(0.2509963810443878,0,0,0.2509963810443878,35.4947509765625,243.65910339355474)" svgjs:data="{&quot;leading&quot;:&quot;1.3&quot;}"><tspan dy="0" x="-98.72634249947717" svgjs:data="{&quot;newLined&quot;:true}">TEAM MOM: TEAM MOM'S NAME</tspan></text><text fill="#ffffff" font-family="Skater Girls Rock" font-size="50" stroke-opacity="1" stroke-width="2" stroke="#000000" x="-98.72634249947717" y="199.47500657859518" transform="matrix(0.36103546619415283,0,0,0.3610354661941529,72.47021484374999,53.85293197631836)" svgjs:data="{&quot;leading&quot;:&quot;1.3&quot;}"><tspan dy="0" x="-98.72634249947717" svgjs:data="{&quot;newLined&quot;:true}">PLAYER</tspan></text><image width="760" height="476" xlink:href="https://lct-designs.s3.us-west-1.amazonaws.com/assets/libs/soccer-1655095785854.png" class="asset" transform="matrix(0.071684330701828,0,0,0.071684330701828,36.566330909729004,75.68154144287108)"></image><text fill="#ffffff" font-family="Skater Girls Rock" font-size="50" stroke-opacity="1" stroke-width="2" stroke="#000000" x="-98.72634249947717" y="199.47500657859518" transform="matrix(0.36103561520576477,0,0,0.36103561520576477,145.79689025878906,53.32387924194336)" svgjs:data="{&quot;leading&quot;:&quot;1.3&quot;}"><tspan dy="0" x="-98.72634249947717" svgjs:data="{&quot;newLined&quot;:true}">PLAYER</tspan></text><image width="760" height="476" xlink:href="https://lct-designs.s3.us-west-1.amazonaws.com/assets/libs/soccer-1655095785854.png" class="asset" transform="matrix(0.0716843456029892,0,0,0.07168434560298921,109.89300537109375,75.15248870849611)"></image><text fill="#ffffff" font-family="Skater Girls Rock" font-size="50" stroke-opacity="1" stroke-width="2" stroke="#000000" x="-98.72634249947717" y="199.47500657859518" transform="matrix(0.36103570461273193,0,0,0.361035704612732,371.5104675292969,55.977729856967926)" svgjs:data="{&quot;leading&quot;:&quot;1.3&quot;}"><tspan dy="0" x="-98.72634249947717" svgjs:data="{&quot;newLined&quot;:true}">PLAYER</tspan></text><image width="760" height="476" xlink:href="https://lct-designs.s3.us-west-1.amazonaws.com/assets/libs/soccer-1655095785854.png" class="asset" transform="matrix(0.07168437540531158,0,0,0.0716843754053116,335.6065673828125,77.80633550882338)"></image><text fill="#ffffff" font-family="Skater Girls Rock" font-size="50" stroke-opacity="1" stroke-width="2" stroke="#000000" x="-98.72634249947717" y="199.47500657859518" transform="matrix(0.3610357642173767,0,0,0.36103576421737676,444.837158203125,55.448677122592926)" svgjs:data="{&quot;leading&quot;:&quot;1.3&quot;}"><tspan dy="0" x="-98.72634249947717" svgjs:data="{&quot;newLined&quot;:true}">PLAYER</tspan></text><image width="760" height="476" xlink:href="https://lct-designs.s3.us-west-1.amazonaws.com/assets/libs/soccer-1655095785854.png" class="asset" transform="matrix(0.07168437540531158,0,0,0.0716843754053116,408.9332580566406,77.27728277444841)"></image><image width="760" height="600" xlink:href="https://lct-designs.s3.us-west-1.amazonaws.com/assets/libs/outlaw-1-1651204024074.png" class="asset" transform="matrix(0.26777738332748413,0,0,0.26777738332748413,148.74325561523438,103.5154266357422)"></image><text fill="#ffffff" font-family="Skater Girls Rock" font-size="50" stroke-opacity="1" stroke-width="2" stroke="#000000" x="-98.72634249947717" y="199.47500657859518" transform="matrix(0.36103564500808716,0,0,0.36103564500808716,54.728302001953125,124.22548675537108)" svgjs:data="{&quot;leading&quot;:&quot;1.3&quot;}"><tspan dy="0" x="-98.72634249947717" svgjs:data="{&quot;newLined&quot;:true}">PLAYER</tspan></text><image width="760" height="476" xlink:href="https://lct-designs.s3.us-west-1.amazonaws.com/assets/libs/soccer-1655095785854.png" class="asset" transform="matrix(0.071684330701828,0,0,0.071684330701828,18.82438373565674,146.0540771484375)"></image><text fill="#ffffff" font-family="Skater Girls Rock" font-size="50" stroke-opacity="1" stroke-width="2" stroke="#000000" x="-98.72634249947717" y="199.47500657859518" transform="matrix(0.36103570461273193,0,0,0.361035704612732,128.0549774169922,123.69643402099611)" svgjs:data="{&quot;leading&quot;:&quot;1.3&quot;}"><tspan dy="0" x="-98.72634249947717" svgjs:data="{&quot;newLined&quot;:true}">PLAYER</tspan></text><image width="760" height="476" xlink:href="https://lct-designs.s3.us-west-1.amazonaws.com/assets/libs/soccer-1655095785854.png" class="asset" transform="matrix(0.071684330701828,0,0,0.071684330701828,92.15105438232422,145.52503967285156)"></image><text fill="#ffffff" font-family="Skater Girls Rock" font-size="50" stroke-opacity="1" stroke-width="2" stroke="#000000" x="-98.72634249947717" y="199.47500657859518" transform="matrix(0.36103561520576477,0,0,0.36103561520576477,48.81432342529297,195.63900756835938)" svgjs:data="{&quot;leading&quot;:&quot;1.3&quot;}"><tspan dy="0" x="-98.72634249947717" svgjs:data="{&quot;newLined&quot;:true}">PLAYER</tspan></text><image width="760" height="476" xlink:href="https://lct-designs.s3.us-west-1.amazonaws.com/assets/libs/soccer-1655095785854.png" class="asset" transform="matrix(0.07168431580066681,0,0,0.07168431580066681,12.910410881042473,217.4676055908203)"></image><text fill="#ffffff" font-family="Skater Girls Rock" font-size="50" stroke-opacity="1" stroke-width="2" stroke="#000000" x="-98.72634249947717" y="199.47500657859518" transform="matrix(0.36103564500808716,0,0,0.36103564500808716,122.14099884033203,195.1099700927735)" svgjs:data="{&quot;leading&quot;:&quot;1.3&quot;}"><tspan dy="0" x="-98.72634249947717" svgjs:data="{&quot;newLined&quot;:true}">PLAYER</tspan></text><image width="760" height="476" xlink:href="https://lct-designs.s3.us-west-1.amazonaws.com/assets/libs/soccer-1655095785854.png" class="asset" transform="matrix(0.07168431580066681,0,0,0.07168431580066681,86.2370834350586,216.93855285644537)"></image><text fill="#ffffff" font-family="Skater Girls Rock" font-size="50" stroke-opacity="1" stroke-width="2" stroke="#000000" x="-98.72634249947717" y="199.47500657859518" transform="matrix(0.3610359132289886,0,0,0.36103591322898865,391.94061279296875,126.35028076171874)" svgjs:data="{&quot;leading&quot;:&quot;1.3&quot;}"><tspan dy="0" x="-98.72634249947717" svgjs:data="{&quot;newLined&quot;:true}">PLAYER</tspan></text><image width="760" height="476" xlink:href="https://lct-designs.s3.us-west-1.amazonaws.com/assets/libs/soccer-1655095785854.png" class="asset" transform="matrix(0.071684330701828,0,0,0.071684330701828,356.03668212890625,148.17887878417974)"></image><text fill="#ffffff" font-family="Skater Girls Rock" font-size="50" stroke-opacity="1" stroke-width="2" stroke="#000000" x="-98.72634249947717" y="199.47500657859518" transform="matrix(0.3610359132289886,0,0,0.36103591322898865,465.2673034667969,125.82122802734376)" svgjs:data="{&quot;leading&quot;:&quot;1.3&quot;}"><tspan dy="0" x="-98.72634249947717" svgjs:data="{&quot;newLined&quot;:true}">PLAYER</tspan></text><image width="760" height="476" xlink:href="https://lct-designs.s3.us-west-1.amazonaws.com/assets/libs/soccer-1655095785854.png" class="asset" transform="matrix(0.071684330701828,0,0,0.071684330701828,429.36334228515625,147.6498260498047)"></image><text fill="#ffffff" font-family="Skater Girls Rock" font-size="50" stroke-opacity="1" stroke-width="2" stroke="#000000" x="-98.72634249947717" y="199.47500657859518" transform="matrix(0.3610357642173767,0,0,0.36103576421737676,399.4674987792969,196.6885528564453)" svgjs:data="{&quot;leading&quot;:&quot;1.3&quot;}"><tspan dy="0" x="-98.72634249947717" svgjs:data="{&quot;newLined&quot;:true}">PLAYER</tspan></text><image width="760" height="476" xlink:href="https://lct-designs.s3.us-west-1.amazonaws.com/assets/libs/soccer-1655095785854.png" class="asset" transform="matrix(0.071684330701828,0,0,0.071684330701828,363.56356811523443,218.51713562011724)"></image><text fill="#ffffff" font-family="Skater Girls Rock" font-size="50" stroke-opacity="1" stroke-width="2" stroke="#000000" x="-98.72634249947717" y="199.47500657859518" transform="matrix(0.3610359132289886,0,0,0.36103591322898865,472.794189453125,196.15950012207037)" svgjs:data="{&quot;leading&quot;:&quot;1.3&quot;}"><tspan dy="0" x="-98.72634249947717" svgjs:data="{&quot;newLined&quot;:true}">PLAYER</tspan></text><image width="760" height="476" xlink:href="https://lct-designs.s3.us-west-1.amazonaws.com/assets/libs/soccer-1655095785854.png" class="asset" transform="matrix(0.071684330701828,0,0,0.071684330701828,436.89025878906256,217.9880981445313)"></image><g class="mask" style="pointer-events: none;"><g><path fill="#BCBEC0" d="M-3642.4-2101.7v4589.1h7813.4v-4589.1H-3642.4z M500.5,67.2v233.3v66.7H0.5v-66.7V67.2V0.5h500V67.2z" transform="matrix(1,0,0,1,0,0)"></path><g transform="matrix(1,0,0,1,0,0)">
	<rect x="0.5" y="300.5" opacity="0.95" fill="#F1F2F2" width="500" height="66.7"></rect>
	<rect x="0.5" y="0.5" opacity="0.95" fill="#F1F2F2" width="500" height="66.7"></rect>
</g></g></g></svg>