<svg xmlns="http://www.w3.org/2000/svg" version="1.1" xmlns:xlink="http://www.w3.org/1999/xlink" xmlns:svgjs="http://svgjs.dev/svgjs" width="100%" height="100%" viewBox="1 1 499 365.70001220703125" preserveAspectRatio="none" data-info="{&quot;_id&quot;:4,&quot;name&quot;:&quot;POLE POCKET SOCCER BANNERS&quot;,&quot;information&quot;:&quot;- Size: 3’x5’\n- Material: heavy duty vinyl banner\n- Digitally printed on vinyl&quot;,&quot;price&quot;:&quot;95.00&quot;,&quot;sale_price&quot;:&quot;89.99&quot;,&quot;type&quot;:&quot;pole-pocket&quot;,&quot;cover&quot;:{&quot;key&quot;:&quot;assets/models/pole-1628062864266-1631924568908.png&quot;,&quot;url&quot;:&quot;https://lct-designs.s3.us-west-1.amazonaws.com/assets/models/pole-1628062864266-1631924568908.png&quot;},&quot;back&quot;:{&quot;key&quot;:&quot;assets/models/pole-1631924700152.svg&quot;,&quot;url&quot;:&quot;https://lct-designs.s3.us-west-1.amazonaws.com/assets/models/pole-1631924700152.svg&quot;},&quot;mask&quot;:{&quot;key&quot;:&quot;assets/models/pole-mask-1631925211715.svg&quot;,&quot;url&quot;:&quot;https://lct-designs.s3.us-west-1.amazonaws.com/assets/models/pole-mask-1631925211715.svg&quot;},&quot;pos&quot;:&quot;2&quot;,&quot;accessories&quot;:&quot;2,3&quot;}" style="background-color: white;"><g class="model" style="pointer-events: none;"><polygon fill="#FFFFFF" points="0.5,0.5 0.5,67.2 0.5,300.5 0.5,367.2 500.5,367.2 500.5,300.5 500.5,67.2 500.5,0.5 "></polygon></g><image width="760" height="558" xlink:href="https://lct-designs.s3.us-west-1.amazonaws.com/assets/libs/slimers-da-1-1652349212840.png" class="asset background locked" transform="matrix(0.6571684806577621,0,0,0.6571684806577621,0,0)"></image><text fill="#ffffff" font-family="Eras Bold ITC" font-size="45" stroke-opacity="1" stroke-width="2" stroke="#00845e" x="179.26711706837511" y="199.03331588572124" transform="matrix(0.3942233498888079,0,0,0.3942233498888079,-6.212424774168763,38.5982519732047)" svgjs:data="{&quot;leading&quot;:&quot;1.3&quot;}"><tspan dy="0" x="179.26711706837511" svgjs:data="{&quot;newLined&quot;:true}">Player</tspan></text><image width="760" height="708" xlink:href="https://lct-designs.s3.us-west-1.amazonaws.com/assets/libs/slimers-da-3-1652349390016.png" class="asset" transform="matrix(0.050425945667114995,0,0,0.050425945667115,23.572114199462245,93.26578940349921)"></image><text fill="#ffffff" font-family="Eras Bold ITC" font-size="45" stroke-opacity="1" stroke-width="2" stroke="#00845e" x="179.26711706837511" y="199.03331588572124" transform="matrix(0.3942233498888079,0,0,0.3942233498888079,116.6113657769956,38.5982519732047)" svgjs:data="{&quot;leading&quot;:&quot;1.3&quot;}"><tspan dy="0" x="179.26711706837511" svgjs:data="{&quot;newLined&quot;:true}">Player</tspan></text><image width="760" height="708" xlink:href="https://lct-designs.s3.us-west-1.amazonaws.com/assets/libs/slimers-da-3-1652349390016.png" class="asset" transform="matrix(0.050425952823743174,0,0,0.05042595282374319,146.3959029185298,93.26576741833745)"></image><text fill="#ffffff" font-family="Eras Bold ITC" font-size="45" stroke-opacity="1" stroke-width="2" stroke="#00845e" x="179.26711706837511" y="199.03331588572124" transform="matrix(0.3942233498888079,0,0,0.3942233498888079,236.33328634349886,38.5982519732047)" svgjs:data="{&quot;leading&quot;:&quot;1.3&quot;}"><tspan dy="0" x="179.26711706837511" svgjs:data="{&quot;newLined&quot;:true}">Player</tspan></text><image width="760" height="708" xlink:href="https://lct-designs.s3.us-west-1.amazonaws.com/assets/libs/slimers-da-3-1652349390016.png" class="asset" transform="matrix(0.050425952823743174,0,0,0.05042595282374319,266.11781615664586,93.26575276156291)"></image><text fill="#ffffff" font-family="Eras Bold ITC" font-size="45" stroke-opacity="1" stroke-width="2" stroke="#00845e" x="179.26711706837511" y="199.03331588572124" transform="matrix(0.3942233498888079,0,0,0.3942233498888079,351.40239185647806,38.5982519732047)" svgjs:data="{&quot;leading&quot;:&quot;1.3&quot;}"><tspan dy="0" x="179.26711706837511" svgjs:data="{&quot;newLined&quot;:true}">Player</tspan></text><image width="760" height="708" xlink:href="https://lct-designs.s3.us-west-1.amazonaws.com/assets/libs/slimers-da-3-1652349390016.png" class="asset" transform="matrix(0.050425952823743174,0,0,0.05042595282374319,381.186921669625,93.26575276156291)"></image><text fill="#ffffff" font-family="Eras Bold ITC" font-size="45" stroke-opacity="1" stroke-width="2" stroke="#00845e" x="179.26711706837511" y="199.03331588572124" transform="matrix(0.3942233498888079,0,0,0.3942233498888079,-6.429550231767507,81.50747266469992)" svgjs:data="{&quot;leading&quot;:&quot;1.3&quot;}"><tspan dy="0" x="179.26711706837511" svgjs:data="{&quot;newLined&quot;:true}">Player</tspan></text><image width="760" height="708" xlink:href="https://lct-designs.s3.us-west-1.amazonaws.com/assets/libs/slimers-da-3-1652349390016.png" class="asset" transform="matrix(0.050425952823743174,0,0,0.05042595282374319,23.35498874186351,136.175013759188)"></image><text fill="#ffffff" font-family="Eras Bold ITC" font-size="45" stroke-opacity="1" stroke-width="2" stroke="#00845e" x="179.26711706837511" y="199.03331588572124" transform="matrix(0.3942233498888079,0,0,0.3942233498888079,116.39424031939689,81.50747266469992)" svgjs:data="{&quot;leading&quot;:&quot;1.3&quot;}"><tspan dy="0" x="179.26711706837511" svgjs:data="{&quot;newLined&quot;:true}">Player</tspan></text><image width="760" height="708" xlink:href="https://lct-designs.s3.us-west-1.amazonaws.com/assets/libs/slimers-da-3-1652349390016.png" class="asset" transform="matrix(0.050425952823743174,0,0,0.05042595282374319,146.17877746093106,136.1749991024135)"></image><text fill="#ffffff" font-family="Eras Bold ITC" font-size="45" stroke-opacity="1" stroke-width="2" stroke="#00845e" x="179.26711706837511" y="199.03331588572124" transform="matrix(0.3942233498888079,0,0,0.3942233498888079,236.11616088590017,81.50747266469992)" svgjs:data="{&quot;leading&quot;:&quot;1.3&quot;}"><tspan dy="0" x="179.26711706837511" svgjs:data="{&quot;newLined&quot;:true}">Player</tspan></text><image width="760" height="708" xlink:href="https://lct-designs.s3.us-west-1.amazonaws.com/assets/libs/slimers-da-3-1652349390016.png" class="asset" transform="matrix(0.050425952823743174,0,0,0.05042595282374319,265.9006906990471,136.17498444563898)"></image><text fill="#ffffff" font-family="Eras Bold ITC" font-size="45" stroke-opacity="1" stroke-width="2" stroke="#00845e" x="179.26711706837511" y="199.03331588572124" transform="matrix(0.3942233498888079,0,0,0.3942233498888079,351.1852663988793,81.50747266469992)" svgjs:data="{&quot;leading&quot;:&quot;1.3&quot;}"><tspan dy="0" x="179.26711706837511" svgjs:data="{&quot;newLined&quot;:true}">Player</tspan></text><image width="760" height="708" xlink:href="https://lct-designs.s3.us-west-1.amazonaws.com/assets/libs/slimers-da-3-1652349390016.png" class="asset" transform="matrix(0.050425952823743174,0,0,0.05042595282374319,380.96979621202627,136.17498444563898)"></image><text fill="#ffffff" font-family="Eras Bold ITC" font-size="45" stroke-opacity="1" stroke-width="2" stroke="#00845e" x="56.30170111378527" y="199.03331588572124" transform="matrix(0.3172692656517028,0,0,0.3172692656517029,-7.024335861206051,22.073450088500977)" svgjs:data="{&quot;leading&quot;:&quot;1.3&quot;}"><tspan dy="0" x="56.30170111378527" svgjs:data="{&quot;newLined&quot;:true}">Team mom:name</tspan></text><text fill="#ffffff" font-family="Eras Bold ITC" font-size="45" stroke-opacity="1" stroke-width="2" stroke="#00845e" x="56.30170111378527" y="199.03331588572124" transform="matrix(0.3172692656517028,0,0,0.3172692656517029,322.5849304199219,22.07345581054689)" svgjs:data="{&quot;leading&quot;:&quot;1.3&quot;}"><tspan dy="0" x="56.30170111378527" svgjs:data="{&quot;newLined&quot;:true}">Coach:Coach's Name</tspan></text><image width="760" height="309" xlink:href="https://lct-designs.s3.us-west-1.amazonaws.com/assets/libs/slimers-da-4-1652349289584.png" class="asset" transform="matrix(0.38238859176635737,0,0,0.3823885917663574,39.750142097473145,171.09425354003906)"></image><image width="734" height="760" xlink:href="https://lct-designs.s3.us-west-1.amazonaws.com/assets/libs/slimers-da-2-1652349373755.png" class="asset" transform="matrix(0.14503417909145352,0,0,0.14503417909145355,354.78479862213135,179.026611328125)"></image><g class="mask" style="pointer-events: none;"><g><path fill="#BCBEC0" d="M-3642.4-2101.7v4589.1h7813.4v-4589.1H-3642.4z M500.5,67.2v233.3v66.7H0.5v-66.7V67.2V0.5h500V67.2z" transform="matrix(1,0,0,1,0,0)"></path><g transform="matrix(1,0,0,1,0,0)">
	<rect x="0.5" y="300.5" opacity="0.95" fill="#F1F2F2" width="500" height="66.7"></rect>
	<rect x="0.5" y="0.5" opacity="0.95" fill="#F1F2F2" width="500" height="66.7"></rect>
</g></g></g></svg>