<svg xmlns="http://www.w3.org/2000/svg" version="1.1" xmlns:xlink="http://www.w3.org/1999/xlink" xmlns:svgjs="http://svgjs.dev/svgjs" width="100%" height="100%" viewBox="1 1 499 365.70001220703125" preserveAspectRatio="none" data-info="{&quot;_id&quot;:4,&quot;name&quot;:&quot;POLE POCKET SOCCER BANNERS&quot;,&quot;information&quot;:&quot;- Size: 3’x5’\n- Material: heavy duty vinyl banner\n- Digitally printed on vinyl&quot;,&quot;price&quot;:&quot;95.00&quot;,&quot;sale_price&quot;:&quot;89.99&quot;,&quot;type&quot;:&quot;pole-pocket&quot;,&quot;cover&quot;:{&quot;key&quot;:&quot;assets/models/pole-1628062864266-1631924568908.png&quot;,&quot;url&quot;:&quot;https://lct-designs.s3.us-west-1.amazonaws.com/assets/models/pole-1628062864266-1631924568908.png&quot;},&quot;back&quot;:{&quot;key&quot;:&quot;assets/models/pole-1631924700152.svg&quot;,&quot;url&quot;:&quot;https://lct-designs.s3.us-west-1.amazonaws.com/assets/models/pole-1631924700152.svg&quot;},&quot;mask&quot;:{&quot;key&quot;:&quot;assets/models/pole-mask-1631925211715.svg&quot;,&quot;url&quot;:&quot;https://lct-designs.s3.us-west-1.amazonaws.com/assets/models/pole-mask-1631925211715.svg&quot;},&quot;pos&quot;:&quot;2&quot;,&quot;accessories&quot;:&quot;2,3&quot;}" style="background-color: white;"><g class="model" style="pointer-events: none;"><polygon fill="#FFFFFF" points="0.5,0.5 0.5,67.2 0.5,300.5 0.5,367.2 500.5,367.2 500.5,300.5 500.5,67.2 500.5,0.5 "></polygon></g><image width="760" height="556" xlink:href="https://lct-designs.s3.us-west-1.amazonaws.com/assets/libs/zephyr-soccer-banner-1653885676674.png" class="asset background locked" transform="matrix(0.6595323960558116,0,0,0.6595323960558116,0,0)"></image><image width="760" height="416" xlink:href="https://lct-designs.s3.us-west-1.amazonaws.com/assets/libs/zephyr-soccer-1653885871559.png" class="asset locked" transform="matrix(0.34478655457496643,0,0,0.39289030432701105,229.18205261230466,108.2159423828125)"></image><text fill="#ffffff" font-family="American Captain" font-size="45" stroke-opacity="1" stroke-width="1" stroke="#231f20" x="196.88588543811736" y="200.19087427705915" transform="matrix(0.4558157026767731,0,0,0.4172396063804627,-23.220720291137695,52.64573663473129)" svgjs:data="{&quot;leading&quot;:&quot;1.3&quot;}"><tspan dy="0" x="196.88588543811736" svgjs:data="{&quot;newLined&quot;:true}">player</tspan></text><text fill="#ffffff" font-family="American Captain" font-size="45" stroke-opacity="1" stroke-width="1" stroke="#231f20" x="196.88588543811736" y="200.19087427705915" transform="matrix(0.4558158218860627,0,0,0.4172396063804627,94.87702178955078,53.069816529750824)" svgjs:data="{&quot;leading&quot;:&quot;1.3&quot;}"><tspan dy="0" x="196.88588543811736" svgjs:data="{&quot;newLined&quot;:true}">player</tspan></text><image width="760" height="532" xlink:href="https://lct-designs.s3.us-west-1.amazonaws.com/assets/libs/ball-1655871620962.png" class="asset" transform="matrix(0.06358310580253602,0,0,0.06358310580253601,130.76557922363284,114.15770715475082)"></image><image width="760" height="532" xlink:href="https://lct-designs.s3.us-west-1.amazonaws.com/assets/libs/ball-1655871620962.png" class="asset" transform="matrix(0.06358310580253602,0,0,0.06358310580253601,11.429489135742188,114.15770715475082)"></image><text fill="#ffffff" font-family="American Captain" font-size="45" stroke-opacity="1" stroke-width="1" stroke="#231f20" x="196.88588543811736" y="200.19087427705915" transform="matrix(0.4558158218860627,0,0,0.4172396063804627,-25.609224319458022,99.72208398580551)" svgjs:data="{&quot;leading&quot;:&quot;1.3&quot;}"><tspan dy="0" x="196.88588543811736" svgjs:data="{&quot;newLined&quot;:true}">player</tspan></text><text fill="#ffffff" font-family="American Captain" font-size="45" stroke-opacity="1" stroke-width="1" stroke="#231f20" x="196.88588543811736" y="200.19087427705915" transform="matrix(0.455816000699997,0,0,0.4172396063804627,92.48851776123047,100.14616388082504)" svgjs:data="{&quot;leading&quot;:&quot;1.3&quot;}"><tspan dy="0" x="196.88588543811736" svgjs:data="{&quot;newLined&quot;:true}">player</tspan></text><image width="760" height="532" xlink:href="https://lct-designs.s3.us-west-1.amazonaws.com/assets/libs/ball-1655871620962.png" class="asset" transform="matrix(0.06358310580253602,0,0,0.06358310580253601,128.37707519531253,161.23405450582507)"></image><image width="760" height="532" xlink:href="https://lct-designs.s3.us-west-1.amazonaws.com/assets/libs/ball-1655871620962.png" class="asset" transform="matrix(0.06358310580253602,0,0,0.06358310580253601,9.040985107421875,161.23405450582507)"></image><text fill="#ffffff" font-family="American Captain" font-size="45" stroke-opacity="1" stroke-width="1" stroke="#231f20" x="196.88588543811736" y="200.19087427705915" transform="matrix(0.455816000699997,0,0,0.4172396063804627,-25.02449607849121,146.7984465956688)" svgjs:data="{&quot;leading&quot;:&quot;1.3&quot;}"><tspan dy="0" x="196.88588543811736" svgjs:data="{&quot;newLined&quot;:true}">player</tspan></text><text fill="#ffffff" font-family="American Captain" font-size="45" stroke-opacity="1" stroke-width="1" stroke="#231f20" x="196.88588543811736" y="200.19087427705915" transform="matrix(0.45581611990928655,0,0,0.4172396063804627,93.0732421875,147.2225188612938)" svgjs:data="{&quot;leading&quot;:&quot;1.3&quot;}"><tspan dy="0" x="196.88588543811736" svgjs:data="{&quot;newLined&quot;:true}">player</tspan></text><image width="760" height="532" xlink:href="https://lct-designs.s3.us-west-1.amazonaws.com/assets/libs/ball-1655871620962.png" class="asset" transform="matrix(0.06358310580253602,0,0,0.06358310580253601,128.96180725097653,208.31040948629382)"></image><image width="760" height="532" xlink:href="https://lct-designs.s3.us-west-1.amazonaws.com/assets/libs/ball-1655871620962.png" class="asset" transform="matrix(0.06358310580253602,0,0,0.06358310580253601,9.625713348388672,208.31040948629382)"></image><text fill="#ffffff" font-family="American Captain" font-size="45" stroke-opacity="1" stroke-width="1" stroke="#231f20" x="196.88588543811736" y="200.19087427705915" transform="matrix(0.4558160603046418,0,0,0.4172396063804627,-8.582468032836914,191.39710992574692)" svgjs:data="{&quot;leading&quot;:&quot;1.3&quot;}"><tspan dy="0" x="196.88588543811736" svgjs:data="{&quot;newLined&quot;:true}">player</tspan></text><text fill="#ffffff" font-family="American Captain" font-size="45" stroke-opacity="1" stroke-width="1" stroke="#231f20" x="196.88588543811736" y="200.19087427705915" transform="matrix(0.45581611990928655,0,0,0.4172396063804627,109.51527404785156,191.82118219137195)" svgjs:data="{&quot;leading&quot;:&quot;1.3&quot;}"><tspan dy="0" x="196.88588543811736" svgjs:data="{&quot;newLined&quot;:true}">player</tspan></text><image width="760" height="532" xlink:href="https://lct-designs.s3.us-west-1.amazonaws.com/assets/libs/ball-1655871620962.png" class="asset" transform="matrix(0.06358310580253602,0,0,0.06358310580253601,145.40383911132815,252.9090728163719)"></image><image width="760" height="532" xlink:href="https://lct-designs.s3.us-west-1.amazonaws.com/assets/libs/ball-1655871620962.png" class="asset" transform="matrix(0.06358310580253602,0,0,0.06358310580253601,26.06774139404297,252.9090728163719)"></image><text fill="#ffffff" font-family="American Captain" font-size="45" stroke-opacity="1" stroke-width="1" stroke="#231f20" x="47.97454169475043" y="200.19087427705915" transform="matrix(0.5528225898742677,0,0,0.5464760065078735,-13.087955474853501,-13.597325325012207)" svgjs:data="{&quot;leading&quot;:&quot;1.3&quot;}"><tspan dy="0" x="47.97454169475043" svgjs:data="{&quot;newLined&quot;:true}">coach:coach's name</tspan></text><text fill="#ffffff" font-family="American Captain" font-size="45" stroke-opacity="1" stroke-width="1" stroke="#231f20" x="47.97454169475043" y="200.19087427705915" transform="matrix(0.5528225898742677,0,0,0.5464760065078735,332.3930053710938,-13.597324371337898)" svgjs:data="{&quot;leading&quot;:&quot;1.3&quot;}"><tspan dy="0" x="47.97454169475043" svgjs:data="{&quot;newLined&quot;:true}">tEAM MOM:NAME</tspan></text><g class="mask" style="pointer-events: none;"><g><path fill="#BCBEC0" d="M-3642.4-2101.7v4589.1h7813.4v-4589.1H-3642.4z M500.5,67.2v233.3v66.7H0.5v-66.7V67.2V0.5h500V67.2z" transform="matrix(1,0,0,1,0,0)"></path><g transform="matrix(1,0,0,1,0,0)">
	<rect x="0.5" y="300.5" opacity="0.95" fill="#F1F2F2" width="500" height="66.7"></rect>
	<rect x="0.5" y="0.5" opacity="0.95" fill="#F1F2F2" width="500" height="66.7"></rect>
</g></g></g></svg>