<svg xmlns="http://www.w3.org/2000/svg" version="1.1" xmlns:xlink="http://www.w3.org/1999/xlink" xmlns:svgjs="http://svgjs.dev/svgjs" width="100%" height="100%" viewBox="1 1 499 365.70001220703125" preserveAspectRatio="none" data-info="{&quot;_id&quot;:4,&quot;name&quot;:&quot;POLE POCKET SOCCER BANNERS&quot;,&quot;information&quot;:&quot;- Size: 3’x5’\n- Material: heavy duty vinyl banner\n- Digitally printed on vinyl&quot;,&quot;price&quot;:&quot;95.00&quot;,&quot;sale_price&quot;:&quot;89.99&quot;,&quot;type&quot;:&quot;pole-pocket&quot;,&quot;cover&quot;:{&quot;key&quot;:&quot;assets/models/pole-1628062864266-1631924568908.png&quot;,&quot;url&quot;:&quot;https://lct-designs.s3.us-west-1.amazonaws.com/assets/models/pole-1628062864266-1631924568908.png&quot;},&quot;back&quot;:{&quot;key&quot;:&quot;assets/models/pole-1631924700152.svg&quot;,&quot;url&quot;:&quot;https://lct-designs.s3.us-west-1.amazonaws.com/assets/models/pole-1631924700152.svg&quot;},&quot;mask&quot;:{&quot;key&quot;:&quot;assets/models/pole-mask-1631925211715.svg&quot;,&quot;url&quot;:&quot;https://lct-designs.s3.us-west-1.amazonaws.com/assets/models/pole-mask-1631925211715.svg&quot;},&quot;pos&quot;:&quot;2&quot;,&quot;accessories&quot;:&quot;2,3&quot;}" style="background-color: white;"><g class="model" style="pointer-events: none;"><polygon fill="#FFFFFF" points="0.5,0.5 0.5,67.2 0.5,300.5 0.5,367.2 500.5,367.2 500.5,300.5 500.5,67.2 500.5,0.5 "></polygon></g><image width="760" height="553" xlink:href="https://lct-designs.s3.us-west-1.amazonaws.com/assets/libs/orcas-1632741205265.png" class="asset background locked" transform="matrix(0.6631103294883024,0,0,0.6631103294883024,0,0)"></image><text fill="#000000" font-family="Foo" font-size="50" stroke-opacity="1" stroke-width="0" stroke="#ffffff" x="-98.72634249947717" y="199.47500657859518" transform="matrix(0.2138923704624176,0,0,0.21389237046241763,31.149843215942383,39.24623107910156)" svgjs:data="{&quot;leading&quot;:&quot;1.3&quot;}"><tspan dy="0" x="-98.72634249947717" svgjs:data="{&quot;newLined&quot;:true}">COACH: COACH'S NAME</tspan></text><text fill="#000000" font-family="Foo" font-size="50" stroke-opacity="1" stroke-width="0" stroke="#ffffff" x="-98.72634249947717" y="199.47500657859518" transform="matrix(0.21389265358448029,0,0,0.2138926535844803,361.58392333984375,39.24616622924806)" svgjs:data="{&quot;leading&quot;:&quot;1.3&quot;}"><tspan dy="0" x="-98.72634249947717" svgjs:data="{&quot;newLined&quot;:true}">TEAM MOM: TEAM MOM'S NAME</tspan></text><image width="760" height="459" xlink:href="https://lct-designs.s3.us-west-1.amazonaws.com/assets/libs/orcas-2-1632741368609.png" class="asset" transform="matrix(0.31547170877456665,0,0,0.3154717087745667,130.61917114257812,84.33543395996095)"></image><g class="mask" style="pointer-events: none;"><g><path fill="#BCBEC0" d="M-3642.4-2101.7v4589.1h7813.4v-4589.1H-3642.4z M500.5,67.2v233.3v66.7H0.5v-66.7V67.2V0.5h500V67.2z" transform="matrix(1,0,0,1,0,0)"></path><g transform="matrix(1,0,0,1,0,0)">
	<rect x="0.5" y="300.5" opacity="0.95" fill="#F1F2F2" width="500" height="66.7"></rect>
	<rect x="0.5" y="0.5" opacity="0.95" fill="#F1F2F2" width="500" height="66.7"></rect>
</g></g></g><text fill="#000000" font-family="Foo" font-size="50" stroke-opacity="1" stroke-width="0" stroke="#ffffff" x="-98.72634249947717" y="199.47500657859518" transform="matrix(0.31459084153175354,0,0,0.31459084153175354,441.1484756469727,82.07180023193361)" svgjs:data="{&quot;leading&quot;:&quot;1.3&quot;}"><tspan dy="0" x="-98.72634249947717" svgjs:data="{&quot;newLined&quot;:true}">PLAYER</tspan></text><image width="759" height="584" xlink:href="https://lct-designs.s3.us-west-1.amazonaws.com/assets/libs/orcas-1-1632741397488.png" class="asset" transform="matrix(0.05238145589828491,0,0,0.05238145589828492,418.14310455322266,98.6417694091797)"></image><text fill="#000000" font-family="Foo" font-size="50" stroke-opacity="1" stroke-width="0" stroke="#ffffff" x="-98.72634249947717" y="199.47500657859518" transform="matrix(0.31459084153175354,0,0,0.31459084153175354,441.1484756469727,149.81373596191412)" svgjs:data="{&quot;leading&quot;:&quot;1.3&quot;}"><tspan dy="0" x="-98.72634249947717" svgjs:data="{&quot;newLined&quot;:true}">PLAYER</tspan></text><image width="759" height="584" xlink:href="https://lct-designs.s3.us-west-1.amazonaws.com/assets/libs/orcas-1-1632741397488.png" class="asset" transform="matrix(0.05238145589828491,0,0,0.05238145589828492,418.14310455322266,166.38369750976562)"></image><text fill="#000000" font-family="Foo" font-size="50" stroke-opacity="1" stroke-width="0" stroke="#ffffff" x="-98.72634249947717" y="199.47500657859518" transform="matrix(0.31459084153175354,0,0,0.31459084153175354,441.1484680175781,224.54489135742188)" svgjs:data="{&quot;leading&quot;:&quot;1.3&quot;}"><tspan dy="0" x="-98.72634249947717" svgjs:data="{&quot;newLined&quot;:true}">PLAYER</tspan></text><image width="759" height="584" xlink:href="https://lct-designs.s3.us-west-1.amazonaws.com/assets/libs/orcas-1-1632741397488.png" class="asset" transform="matrix(0.05238145589828491,0,0,0.05238145589828492,417.60546875,241.11486816406256)"></image><text fill="#000000" font-family="Foo" font-size="50" stroke-opacity="1" stroke-width="0" stroke="#ffffff" x="-98.72634249947717" y="199.47500657859518" transform="matrix(0.31459084153175354,0,0,0.31459084153175354,66.0947036743164,221.85673522949224)" svgjs:data="{&quot;leading&quot;:&quot;1.3&quot;}"><tspan dy="0" x="-98.72634249947717" svgjs:data="{&quot;newLined&quot;:true}">PLAYER</tspan></text><image width="759" height="584" xlink:href="https://lct-designs.s3.us-west-1.amazonaws.com/assets/libs/orcas-1-1632741397488.png" class="asset" transform="matrix(0.05238145589828491,0,0,0.05238145589828492,43.089328765869126,238.42669677734375)"></image><text fill="#000000" font-family="Foo" font-size="50" stroke-opacity="1" stroke-width="0" stroke="#ffffff" x="-98.72634249947717" y="199.47500657859518" transform="matrix(0.31459084153175354,0,0,0.31459084153175354,345.77215576171875,224.54492187500006)" svgjs:data="{&quot;leading&quot;:&quot;1.3&quot;}"><tspan dy="0" x="-98.72634249947717" svgjs:data="{&quot;newLined&quot;:true}">PLAYER</tspan></text><image width="759" height="584" xlink:href="https://lct-designs.s3.us-west-1.amazonaws.com/assets/libs/orcas-1-1632741397488.png" class="asset" transform="matrix(0.05238145589828491,0,0,0.05238145589828492,322.76678466796875,241.11489868164062)"></image><text fill="#000000" font-family="Foo" font-size="50" stroke-opacity="1" stroke-width="0" stroke="#ffffff" x="-98.72634249947717" y="199.47500657859518" transform="matrix(0.31459084153175354,0,0,0.31459084153175354,251.68609619140625,223.46963500976562)" svgjs:data="{&quot;leading&quot;:&quot;1.3&quot;}"><tspan dy="0" x="-98.72634249947717" svgjs:data="{&quot;newLined&quot;:true}">PLAYER</tspan></text><image width="759" height="584" xlink:href="https://lct-designs.s3.us-west-1.amazonaws.com/assets/libs/orcas-1-1632741397488.png" class="asset" transform="matrix(0.05238145589828491,0,0,0.05238145589828492,228.14309692382812,240.03961181640625)"></image><image width="759" height="584" xlink:href="https://lct-designs.s3.us-west-1.amazonaws.com/assets/libs/orcas-1-1632741397488.png" class="asset" transform="matrix(0.05238145589828491,0,0,0.05238145589828492,133.30441284179688,238.96435546875)"></image><text fill="#000000" font-family="Foo" font-size="50" stroke-opacity="1" stroke-width="0" stroke="#ffffff" x="-98.72634249947717" y="199.47500657859518" transform="matrix(0.31459084153175354,0,0,0.31459084153175354,156.30979919433594,222.39437866210938)" svgjs:data="{&quot;leading&quot;:&quot;1.3&quot;}"><tspan dy="0" x="-98.72634249947717" svgjs:data="{&quot;newLined&quot;:true}">PLAYER</tspan></text><text fill="#000000" font-family="Foo" font-size="50" stroke-opacity="1" stroke-width="0" stroke="#ffffff" x="-98.72634249947717" y="199.47500657859518" transform="matrix(0.31459084153175354,0,0,0.31459084153175354,66.09471130371094,79.38363647460939)" svgjs:data="{&quot;leading&quot;:&quot;1.3&quot;}"><tspan dy="0" x="-98.72634249947717" svgjs:data="{&quot;newLined&quot;:true}">PLAYER</tspan></text><image width="759" height="584" xlink:href="https://lct-designs.s3.us-west-1.amazonaws.com/assets/libs/orcas-1-1632741397488.png" class="asset" transform="matrix(0.05238145589828491,0,0,0.05238145589828492,43.089328765869126,95.95360565185548)"></image><text fill="#000000" font-family="Foo" font-size="50" stroke-opacity="1" stroke-width="0" stroke="#ffffff" x="-98.72634249947717" y="199.47500657859518" transform="matrix(0.31459084153175354,0,0,0.31459084153175354,66.09471130371094,147.1255645751953)" svgjs:data="{&quot;leading&quot;:&quot;1.3&quot;}"><tspan dy="0" x="-98.72634249947717" svgjs:data="{&quot;newLined&quot;:true}">PLAYER</tspan></text><image width="759" height="584" xlink:href="https://lct-designs.s3.us-west-1.amazonaws.com/assets/libs/orcas-1-1632741397488.png" class="asset" transform="matrix(0.05238145589828491,0,0,0.05238145589828492,43.089332580566406,163.69552612304693)"></image></svg>