<svg xmlns="http://www.w3.org/2000/svg" version="1.1" xmlns:xlink="http://www.w3.org/1999/xlink" xmlns:svgjs="http://svgjs.dev/svgjs" width="100%" height="100%" viewBox="1 1 499 365.70001220703125" preserveAspectRatio="none" data-info="{&quot;_id&quot;:4,&quot;name&quot;:&quot;POLE POCKET SOCCER BANNERS&quot;,&quot;information&quot;:&quot;- Size: 3’x5’\n- Material: heavy duty vinyl banner\n- Digitally printed on vinyl&quot;,&quot;price&quot;:&quot;95.00&quot;,&quot;sale_price&quot;:&quot;89.99&quot;,&quot;type&quot;:&quot;pole-pocket&quot;,&quot;cover&quot;:{&quot;key&quot;:&quot;assets/models/pole-1628062864266-1631924568908.png&quot;,&quot;url&quot;:&quot;https://lct-designs.s3.us-west-1.amazonaws.com/assets/models/pole-1628062864266-1631924568908.png&quot;},&quot;back&quot;:{&quot;key&quot;:&quot;assets/models/pole-1631924700152.svg&quot;,&quot;url&quot;:&quot;https://lct-designs.s3.us-west-1.amazonaws.com/assets/models/pole-1631924700152.svg&quot;},&quot;mask&quot;:{&quot;key&quot;:&quot;assets/models/pole-mask-1631925211715.svg&quot;,&quot;url&quot;:&quot;https://lct-designs.s3.us-west-1.amazonaws.com/assets/models/pole-mask-1631925211715.svg&quot;},&quot;pos&quot;:&quot;2&quot;,&quot;accessories&quot;:&quot;2,3&quot;}" style="background-color: white;"><g class="model" style="pointer-events: none;"><polygon fill="#FFFFFF" points="0.5,0.5 0.5,67.2 0.5,300.5 0.5,367.2 500.5,367.2 500.5,300.5 500.5,67.2 500.5,0.5 "></polygon></g><image width="760" height="556" xlink:href="https://lct-designs.s3.us-west-1.amazonaws.com/assets/libs/power-rangers--1633515464334.png" class="asset background locked" transform="matrix(0.6595323960558116,0,0,0.6595323960558116,0,0)"></image><image width="521" height="760" xlink:href="https://lct-designs.s3.us-west-1.amazonaws.com/assets/libs/power-rangers-1633515635785.png" class="asset" transform="matrix(0.04035875201225281,0,0,0.04035875201225281,10.569869995117188,174.4407196044922)"></image><text fill="#ffffff" font-family="Raider Crusader Straight" font-size="45" stroke-opacity="1" stroke-width="1" stroke="#000000" x="186.0448878450761" y="198.96400438785952" transform="matrix(0.3951436877250672,0,0,0.39514368772506714,-37.56898498535156,117.5096206665039)" svgjs:data="{&quot;leading&quot;:&quot;1.3&quot;}"><tspan dy="0" x="186.0448878450761" svgjs:data="{&quot;newLined&quot;:true}">player</tspan></text><image width="521" height="760" xlink:href="https://lct-designs.s3.us-west-1.amazonaws.com/assets/libs/power-rangers-1633515635785.png" class="asset" transform="matrix(0.04035875201225281,0,0,0.04035875201225281,66.91140747070312,204.27758789062503)"></image><text fill="#ffffff" font-family="Raider Crusader Straight" font-size="45" stroke-opacity="1" stroke-width="1" stroke="#000000" x="186.0448878450761" y="198.96400438785952" transform="matrix(0.3951436579227448,0,0,0.39514365792274475,18.772552490234375,147.34649658203128)" svgjs:data="{&quot;leading&quot;:&quot;1.3&quot;}"><tspan dy="0" x="186.0448878450761" svgjs:data="{&quot;newLined&quot;:true}">player</tspan></text><image width="521" height="760" xlink:href="https://lct-designs.s3.us-west-1.amazonaws.com/assets/libs/power-rangers-1633515635785.png" class="asset" transform="matrix(0.04035875201225281,0,0,0.04035875201225281,24.003578186035185,235.88194274902347)"></image><text fill="#ffffff" font-family="Raider Crusader Straight" font-size="45" stroke-opacity="1" stroke-width="1" stroke="#000000" x="186.0448878450761" y="198.96400438785952" transform="matrix(0.39514353871345526,0,0,0.39514353871345526,-23.678888320922837,178.49447631835938)" svgjs:data="{&quot;leading&quot;:&quot;1.3&quot;}"><tspan dy="0" x="186.0448878450761" svgjs:data="{&quot;newLined&quot;:true}">player</tspan></text><image width="521" height="760" xlink:href="https://lct-designs.s3.us-west-1.amazonaws.com/assets/libs/power-rangers-1633515635785.png" class="asset" transform="matrix(0.04035875201225281,0,0,0.04035875201225281,108.51655578613284,235.42558288574222)"></image><text fill="#ffffff" font-family="Raider Crusader Straight" font-size="45" stroke-opacity="1" stroke-width="1" stroke="#000000" x="186.0448878450761" y="198.96400438785952" transform="matrix(0.39514353871345526,0,0,0.39514353871345526,60.834091186523466,178.0381011962891)" svgjs:data="{&quot;leading&quot;:&quot;1.3&quot;}"><tspan dy="0" x="186.0448878450761" svgjs:data="{&quot;newLined&quot;:true}">player</tspan></text><image width="521" height="760" xlink:href="https://lct-designs.s3.us-west-1.amazonaws.com/assets/libs/power-rangers-1633515635785.png" class="asset" transform="matrix(0.04035875573754311,0,0,0.040358755737543106,94.4050216674805,173.98432922363284)"></image><text fill="#ffffff" font-family="Raider Crusader Straight" font-size="45" stroke-opacity="1" stroke-width="1" stroke="#000000" x="186.0448878450761" y="198.96400438785952" transform="matrix(0.3951436877250672,0,0,0.39514368772506714,46.26617050170901,117.05323791503906)" svgjs:data="{&quot;leading&quot;:&quot;1.3&quot;}"><tspan dy="0" x="186.0448878450761" svgjs:data="{&quot;newLined&quot;:true}">player</tspan></text><image width="760" height="674" xlink:href="https://lct-designs.s3.us-west-1.amazonaws.com/assets/libs/power-rangers-1633515603648.png" class="asset" transform="matrix(0.22201010584831238,0,0,0.22201010584831238,166.1350708007813,138.76394653320312)"></image><image width="760" height="250" xlink:href="https://lct-designs.s3.us-west-1.amazonaws.com/assets/libs/power-rangers-1633515620070.png" class="asset" transform="matrix(0.335733711719513,0,0,0.335733711719513,122.9195404052735,76.71424865722656)"></image><text fill="#ffffff" font-family="Raider Crusader Straight" font-size="45" stroke-opacity="1" stroke-width="1" stroke="#000000" x="106.33640701011515" y="198.96400438785952" transform="matrix(0.4337292611598969,0,0,0.43372926115989685,317.0000305175782,202.22875976562503)" svgjs:data="{&quot;leading&quot;:&quot;1.3&quot;}"><tspan dy="0" x="106.33640701011515" svgjs:data="{&quot;newLined&quot;:true}">team mom:name</tspan></text><text fill="#ffffff" font-family="Raider Crusader Straight" font-size="45" stroke-opacity="1" stroke-width="1" stroke="#000000" x="106.33640701011515" y="198.96400438785952" transform="matrix(0.4337292611598969,0,0,0.43372926115989685,-36.726768493652344,202.22875976562503)" svgjs:data="{&quot;leading&quot;:&quot;1.3&quot;}"><tspan dy="0" x="106.33640701011515" svgjs:data="{&quot;newLined&quot;:true}">coach:coach's name</tspan></text><image width="521" height="760" xlink:href="https://lct-designs.s3.us-west-1.amazonaws.com/assets/libs/power-rangers-1633515635785.png" class="asset" transform="matrix(0.04035875573754311,0,0,0.040358755737543106,316.90315246582037,177.4139556884766)"></image><text fill="#ffffff" font-family="Raider Crusader Straight" font-size="45" stroke-opacity="1" stroke-width="1" stroke="#000000" x="186.0448878450761" y="198.96400438785952" transform="matrix(0.3951436877250672,0,0,0.39514368772506714,268.7642974853516,120.48285675048828)" svgjs:data="{&quot;leading&quot;:&quot;1.3&quot;}"><tspan dy="0" x="186.0448878450761" svgjs:data="{&quot;newLined&quot;:true}">player</tspan></text><image width="521" height="760" xlink:href="https://lct-designs.s3.us-west-1.amazonaws.com/assets/libs/power-rangers-1633515635785.png" class="asset" transform="matrix(0.04035875573754311,0,0,0.040358755737543106,373.2446899414063,207.2508239746094)"></image><text fill="#ffffff" font-family="Raider Crusader Straight" font-size="45" stroke-opacity="1" stroke-width="1" stroke="#000000" x="186.0448878450761" y="198.96400438785952" transform="matrix(0.3951436579227448,0,0,0.39514365792274475,325.10583496093756,150.31973266601565)" svgjs:data="{&quot;leading&quot;:&quot;1.3&quot;}"><tspan dy="0" x="186.0448878450761" svgjs:data="{&quot;newLined&quot;:true}">player</tspan></text><image width="521" height="760" xlink:href="https://lct-designs.s3.us-west-1.amazonaws.com/assets/libs/power-rangers-1633515635785.png" class="asset" transform="matrix(0.04035875573754311,0,0,0.040358755737543106,330.33686065673834,238.85517883300784)"></image><text fill="#ffffff" font-family="Raider Crusader Straight" font-size="45" stroke-opacity="1" stroke-width="1" stroke="#000000" x="186.0448878450761" y="198.96400438785952" transform="matrix(0.39514353871345526,0,0,0.39514353871345526,282.65439414978033,181.46771240234375)" svgjs:data="{&quot;leading&quot;:&quot;1.3&quot;}"><tspan dy="0" x="186.0448878450761" svgjs:data="{&quot;newLined&quot;:true}">player</tspan></text><image width="521" height="760" xlink:href="https://lct-designs.s3.us-west-1.amazonaws.com/assets/libs/power-rangers-1633515635785.png" class="asset" transform="matrix(0.04035875573754311,0,0,0.040358755737543106,414.84983825683605,238.39881896972653)"></image><text fill="#ffffff" font-family="Raider Crusader Straight" font-size="45" stroke-opacity="1" stroke-width="1" stroke="#000000" x="186.0448878450761" y="198.96400438785952" transform="matrix(0.39514353871345526,0,0,0.39514353871345526,367.1673736572266,181.01133728027344)" svgjs:data="{&quot;leading&quot;:&quot;1.3&quot;}"><tspan dy="0" x="186.0448878450761" svgjs:data="{&quot;newLined&quot;:true}">player</tspan></text><image width="521" height="760" xlink:href="https://lct-designs.s3.us-west-1.amazonaws.com/assets/libs/power-rangers-1633515635785.png" class="asset" transform="matrix(0.04035875573754311,0,0,0.040358755737543106,400.7383041381837,176.9575653076172)"></image><text fill="#ffffff" font-family="Raider Crusader Straight" font-size="45" stroke-opacity="1" stroke-width="1" stroke="#000000" x="186.0448878450761" y="198.96400438785952" transform="matrix(0.3951436877250672,0,0,0.39514368772506714,352.59945297241217,120.02647399902344)" svgjs:data="{&quot;leading&quot;:&quot;1.3&quot;}"><tspan dy="0" x="186.0448878450761" svgjs:data="{&quot;newLined&quot;:true}">player</tspan></text><g class="mask" style="pointer-events: none;"><g><path fill="#BCBEC0" d="M-3642.4-2101.7v4589.1h7813.4v-4589.1H-3642.4z M500.5,67.2v233.3v66.7H0.5v-66.7V67.2V0.5h500V67.2z" transform="matrix(1,0,0,1,0,0)"></path><g transform="matrix(1,0,0,1,0,0)">
	<rect x="0.5" y="300.5" opacity="0.95" fill="#F1F2F2" width="500" height="66.7"></rect>
	<rect x="0.5" y="0.5" opacity="0.95" fill="#F1F2F2" width="500" height="66.7"></rect>
</g></g></g></svg>