<svg xmlns="http://www.w3.org/2000/svg" version="1.1" xmlns:xlink="http://www.w3.org/1999/xlink" xmlns:svgjs="http://svgjs.dev/svgjs" width="100%" height="100%" viewBox="1 1 499 365.70001220703125" preserveAspectRatio="none" data-info="{&quot;_id&quot;:4,&quot;name&quot;:&quot;POLE POCKET SOCCER BANNERS&quot;,&quot;information&quot;:&quot;- Size: 3’x5’\n- Material: heavy duty vinyl banner\n- Digitally printed on vinyl&quot;,&quot;price&quot;:&quot;95.00&quot;,&quot;sale_price&quot;:&quot;89.99&quot;,&quot;type&quot;:&quot;pole-pocket&quot;,&quot;cover&quot;:{&quot;key&quot;:&quot;assets/models/pole-1628062864266-1631924568908.png&quot;,&quot;url&quot;:&quot;https://lct-designs.s3.us-west-1.amazonaws.com/assets/models/pole-1628062864266-1631924568908.png&quot;},&quot;back&quot;:{&quot;key&quot;:&quot;assets/models/pole-1631924700152.svg&quot;,&quot;url&quot;:&quot;https://lct-designs.s3.us-west-1.amazonaws.com/assets/models/pole-1631924700152.svg&quot;},&quot;mask&quot;:{&quot;key&quot;:&quot;assets/models/pole-mask-1631925211715.svg&quot;,&quot;url&quot;:&quot;https://lct-designs.s3.us-west-1.amazonaws.com/assets/models/pole-mask-1631925211715.svg&quot;},&quot;pos&quot;:&quot;2&quot;,&quot;accessories&quot;:&quot;2,3&quot;}" style="background-color: white;"><g class="model" style="pointer-events: none;"><polygon fill="#FFFFFF" points="0.5,0.5 0.5,67.2 0.5,300.5 0.5,367.2 500.5,367.2 500.5,300.5 500.5,67.2 500.5,0.5 "></polygon></g><image width="760" height="557" xlink:href="https://lct-designs.s3.us-west-1.amazonaws.com/assets/libs/asset-1-1655094093229.png" class="asset background locked" transform="matrix(0.6583483163501459,0,0,0.6583483163501459,0,0)"></image><image width="760" height="540" xlink:href="https://lct-designs.s3.us-west-1.amazonaws.com/assets/libs/preadator-1652080299091.png" class="asset" transform="matrix(0.2334382086992264,0,0,0.2563794255256653,161.79235839843756,73.98815155029297)"></image><image width="760" height="202" xlink:href="https://lct-designs.s3.us-west-1.amazonaws.com/assets/libs/asset-2-1655094190641.png" class="asset" transform="matrix(0.36461871862411505,0,0,0.36461871862411505,114.9162826538086,223.08335876464847)"></image><text fill="#ffffff" font-family="Raider Crusader Straight" font-size="45" stroke-opacity="1" stroke-width="1" stroke="#000000" x="186.0448878450761" y="198.96400438785952" transform="matrix(0.4376469254493714,0,0,0.43764692544937134,15.22357177734375,77.01103210449219)" svgjs:data="{&quot;leading&quot;:&quot;1.3&quot;}"><tspan dy="0" x="186.0448878450761" svgjs:data="{&quot;newLined&quot;:true}">player</tspan></text><image width="760" height="485" xlink:href="https://lct-designs.s3.us-west-1.amazonaws.com/assets/libs/clash-2-1632126021812.png" class="asset" transform="matrix(-0.06405371427536012,0,0,0.06716620177030565,149.09159851074224,111.30332946777344)"></image><text fill="#ffffff" font-family="Raider Crusader Straight" font-size="45" stroke-opacity="1" stroke-width="1" stroke="#000000" x="186.0448878450761" y="198.96400438785952" transform="matrix(0.4376469254493714,0,0,0.43764692544937134,19.77262496948245,140.93576049804688)" svgjs:data="{&quot;leading&quot;:&quot;1.3&quot;}"><tspan dy="0" x="186.0448878450761" svgjs:data="{&quot;newLined&quot;:true}">player</tspan></text><image width="760" height="485" xlink:href="https://lct-designs.s3.us-west-1.amazonaws.com/assets/libs/clash-2-1632126021812.png" class="asset" transform="matrix(-0.0640537515282631,0,0,0.06716620177030565,153.64064788818365,175.22805786132815)"></image><image width="760" height="485" xlink:href="https://lct-designs.s3.us-west-1.amazonaws.com/assets/libs/clash-2-1632126021812.png" class="asset" transform="matrix(-0.06405370682477951,0,0,0.06716620177030565,70.2114677131176,109.32118225097659)"></image><text fill="#ffffff" font-family="Raider Crusader Straight" font-size="45" stroke-opacity="1" stroke-width="1" stroke="#000000" x="186.0448878450761" y="198.96400438785952" transform="matrix(0.4376469254493714,0,0,0.43764692544937134,-63.656559020280824,75.02888488769531)" svgjs:data="{&quot;leading&quot;:&quot;1.3&quot;}"><tspan dy="0" x="186.0448878450761" svgjs:data="{&quot;newLined&quot;:true}">player</tspan></text><image width="760" height="485" xlink:href="https://lct-designs.s3.us-west-1.amazonaws.com/assets/libs/clash-2-1632126021812.png" class="asset" transform="matrix(-0.06405371427536012,0,0,0.06716620177030565,75.751598328352,181.174560546875)"></image><text fill="#ffffff" font-family="Raider Crusader Straight" font-size="45" stroke-opacity="1" stroke-width="1" stroke="#000000" x="186.0448878450761" y="198.96400438785952" transform="matrix(0.4376469254493714,0,0,0.43764692544937134,-58.1164245903492,146.88226318359378)" svgjs:data="{&quot;leading&quot;:&quot;1.3&quot;}"><tspan dy="0" x="186.0448878450761" svgjs:data="{&quot;newLined&quot;:true}">player</tspan></text><text fill="#ffffff" font-family="Raider Crusader Straight" font-size="45" stroke-opacity="1" stroke-width="1" stroke="#000000" x="186.0448878450761" y="198.96400438785952" transform="matrix(0.4376469254493714,0,0,0.43764692544937134,256.05632019042974,56.69386291503906)" svgjs:data="{&quot;leading&quot;:&quot;1.3&quot;}"><tspan dy="0" x="186.0448878450761" svgjs:data="{&quot;newLined&quot;:true}">player</tspan></text><text fill="#ffffff" font-family="Raider Crusader Straight" font-size="45" stroke-opacity="1" stroke-width="1" stroke="#000000" x="186.0448878450761" y="198.96400438785952" transform="matrix(0.4376469254493714,0,0,0.43764692544937134,332.95429992675787,71.06454467773438)" svgjs:data="{&quot;leading&quot;:&quot;1.3&quot;}"><tspan dy="0" x="186.0448878450761" svgjs:data="{&quot;newLined&quot;:true}">player</tspan></text><image width="760" height="485" xlink:href="https://lct-designs.s3.us-west-1.amazonaws.com/assets/libs/clash-2-1632126021812.png" class="asset" transform="matrix(0.06665926426649095,0,0,0.06716620177030565,341.3792114257813,92.47278594970706)"></image><image width="760" height="485" xlink:href="https://lct-designs.s3.us-west-1.amazonaws.com/assets/libs/clash-2-1632126021812.png" class="asset" transform="matrix(0.06665927916765214,0,0,0.06716620177030565,415.9542541503906,105.85237884521484)"></image><image width="760" height="485" xlink:href="https://lct-designs.s3.us-west-1.amazonaws.com/assets/libs/clash-2-1632126021812.png" class="asset" transform="matrix(0.06665929406881334,0,0,0.06716620177030565,422.5772705078126,177.70574951171875)"></image><image width="760" height="485" xlink:href="https://lct-designs.s3.us-west-1.amazonaws.com/assets/libs/clash-2-1632126021812.png" class="asset" transform="matrix(0.0666592856562609,0,0,0.06716620177030565,342.55128762618193,164.3261642456055)"></image><text fill="#ffffff" font-family="Raider Crusader Straight" font-size="45" stroke-opacity="1" stroke-width="1" stroke="#000000" x="186.0448878450761" y="198.96400438785952" transform="matrix(0.4376469254493714,0,0,0.43764692544937134,261.5964546203614,128.5472412109375)" svgjs:data="{&quot;leading&quot;:&quot;1.3&quot;}"><tspan dy="0" x="186.0448878450761" svgjs:data="{&quot;newLined&quot;:true}">player</tspan></text><text fill="#ffffff" font-family="Raider Crusader Straight" font-size="45" stroke-opacity="1" stroke-width="1" stroke="#000000" x="186.0448878450761" y="198.96400438785952" transform="matrix(0.4376469254493714,0,0,0.43764692544937134,338.49443435668945,142.9179229736328)" svgjs:data="{&quot;leading&quot;:&quot;1.3&quot;}"><tspan dy="0" x="186.0448878450761" svgjs:data="{&quot;newLined&quot;:true}">player</tspan></text><text fill="#ffffff" font-family="Raider Crusader Straight" font-size="45" stroke-opacity="1" stroke-width="1" stroke="#000000" x="106.33640701011515" y="198.96400438785952" transform="matrix(0.336401641368866,0,0,0.336401641368866,361.0083618164063,17.199071884155288)" svgjs:data="{&quot;leading&quot;:&quot;1.3&quot;}"><tspan dy="0" x="106.33640701011515" svgjs:data="{&quot;newLined&quot;:true}">team mom:name</tspan></text><text fill="#ffffff" font-family="Raider Crusader Straight" font-size="45" stroke-opacity="1" stroke-width="1" stroke="#000000" x="106.33640701011515" y="198.96400438785952" transform="matrix(0.3364017009735108,0,0,0.3364017009735108,-28.892847061157212,17.69461441040039)" svgjs:data="{&quot;leading&quot;:&quot;1.3&quot;}"><tspan dy="0" x="106.33640701011515" svgjs:data="{&quot;newLined&quot;:true}">Coach:coach's name</tspan></text><g class="mask" style="pointer-events: none;"><g><path fill="#BCBEC0" d="M-3642.4-2101.7v4589.1h7813.4v-4589.1H-3642.4z M500.5,67.2v233.3v66.7H0.5v-66.7V67.2V0.5h500V67.2z" transform="matrix(1,0,0,1,0,0)"></path><g transform="matrix(1,0,0,1,0,0)">
	<rect x="0.5" y="300.5" opacity="0.95" fill="#F1F2F2" width="500" height="66.7"></rect>
	<rect x="0.5" y="0.5" opacity="0.95" fill="#F1F2F2" width="500" height="66.7"></rect>
</g></g></g></svg>