<svg xmlns="http://www.w3.org/2000/svg" version="1.1" xmlns:xlink="http://www.w3.org/1999/xlink" xmlns:svgjs="http://svgjs.dev/svgjs" width="100%" height="100%" viewBox="1 1 499 365.70001220703125" preserveAspectRatio="none" data-info="{&quot;_id&quot;:4,&quot;name&quot;:&quot;POLE POCKET SOCCER BANNERS&quot;,&quot;information&quot;:&quot;- Size: 3’x5’\n- Material: heavy duty vinyl banner\n- Digitally printed on vinyl&quot;,&quot;price&quot;:&quot;95.00&quot;,&quot;sale_price&quot;:&quot;89.99&quot;,&quot;type&quot;:&quot;pole-pocket&quot;,&quot;cover&quot;:{&quot;key&quot;:&quot;assets/models/pole-1628062864266-1631924568908.png&quot;,&quot;url&quot;:&quot;https://lct-designs.s3.us-west-1.amazonaws.com/assets/models/pole-1628062864266-1631924568908.png&quot;},&quot;back&quot;:{&quot;key&quot;:&quot;assets/models/pole-1631924700152.svg&quot;,&quot;url&quot;:&quot;https://lct-designs.s3.us-west-1.amazonaws.com/assets/models/pole-1631924700152.svg&quot;},&quot;mask&quot;:{&quot;key&quot;:&quot;assets/models/pole-mask-1631925211715.svg&quot;,&quot;url&quot;:&quot;https://lct-designs.s3.us-west-1.amazonaws.com/assets/models/pole-mask-1631925211715.svg&quot;},&quot;pos&quot;:&quot;2&quot;,&quot;accessories&quot;:&quot;2,3&quot;}" style="background-color: white;"><g class="model" style="pointer-events: none;"><polygon fill="#FFFFFF" points="0.5,0.5 0.5,67.2 0.5,300.5 0.5,367.2 500.5,367.2 500.5,300.5 500.5,67.2 500.5,0.5 "></polygon></g><image width="760" height="553" xlink:href="https://lct-designs.s3.us-west-1.amazonaws.com/assets/libs/little-hoppers-1632218871479.png" class="asset background locked" transform="matrix(0.6631103294883024,0,0,0.6631103294883024,0,0)"></image><text fill="#000000" font-family="Foo" font-size="50" stroke-opacity="1" stroke-width="2" stroke="#ffffff" x="-98.72634249947717" y="199.47500657859518" transform="matrix(0.20460957288742065,0,0,0.20460957288742065,404.66680908203125,230.65476989746094)" svgjs:data="{&quot;leading&quot;:&quot;1.3&quot;}"><tspan dy="0" x="-98.72634249947717" svgjs:data="{&quot;newLined&quot;:true}">COACH: COACH'S NAME</tspan></text><text fill="#000000" font-family="Foo" font-size="50" stroke-opacity="1" stroke-width="2" stroke="#ffffff" x="-98.72634249947717" y="199.47500657859518" transform="matrix(0.2046094387769699,0,0,0.2046094387769699,368.69244384765625,243.55801391601562)" svgjs:data="{&quot;leading&quot;:&quot;1.3&quot;}"><tspan dy="0" x="-98.72634249947717" svgjs:data="{&quot;newLined&quot;:true}">TEAM MOM: TEAM MOM'S NAME</tspan></text><text fill="#000000" font-family="Foo" font-size="50" stroke-opacity="1" stroke-width="1" stroke="#ffffff" x="-98.72634249947717" y="199.47500657859518" transform="matrix(0.28505340218544006,0,0,0.2850534021854401,44.187469482421875,81.37014770507817)" svgjs:data="{&quot;leading&quot;:&quot;1.3&quot;}"><tspan dy="0" x="-98.72634249947717" svgjs:data="{&quot;newLined&quot;:true}">PLAYER</tspan></text><text fill="#000000" font-family="Foo" font-size="50" stroke-opacity="1" stroke-width="1" stroke="#ffffff" x="-98.72634249947717" y="199.47500657859518" transform="matrix(0.28505340218544006,0,0,0.2850534021854401,126.23048400878906,81.37014007568361)" svgjs:data="{&quot;leading&quot;:&quot;1.3&quot;}"><tspan dy="0" x="-98.72634249947717" svgjs:data="{&quot;newLined&quot;:true}">PLAYER</tspan></text><text fill="#000000" font-family="Foo" font-size="50" stroke-opacity="1" stroke-width="1" stroke="#ffffff" x="-98.72634249947717" y="199.47500657859518" transform="matrix(0.28505340218544006,0,0,0.2850534021854401,210.96165466308597,81.37013244628908)" svgjs:data="{&quot;leading&quot;:&quot;1.3&quot;}"><tspan dy="0" x="-98.72634249947717" svgjs:data="{&quot;newLined&quot;:true}">PLAYER</tspan></text><text fill="#000000" font-family="Foo" font-size="50" stroke-opacity="1" stroke-width="1" stroke="#ffffff" x="-98.72634249947717" y="199.47500657859518" transform="matrix(0.28505340218544006,0,0,0.2850534021854401,296.7680969238281,81.37014007568361)" svgjs:data="{&quot;leading&quot;:&quot;1.3&quot;}"><tspan dy="0" x="-98.72634249947717" svgjs:data="{&quot;newLined&quot;:true}">PLAYER</tspan></text><text fill="#000000" font-family="Foo" font-size="50" stroke-opacity="1" stroke-width="1" stroke="#ffffff" x="-98.72634249947717" y="199.47500657859518" transform="matrix(0.28505340218544006,0,0,0.2850534021854401,385.04766845703125,81.37014770507817)" svgjs:data="{&quot;leading&quot;:&quot;1.3&quot;}"><tspan dy="0" x="-98.72634249947717" svgjs:data="{&quot;newLined&quot;:true}">PLAYER</tspan></text><image width="608" height="760" xlink:href="https://lct-designs.s3.us-west-1.amazonaws.com/assets/libs/little-hoppers-soccer-banner-1654843240370.png" class="asset" transform="matrix(0.06720514595508575,0,0,0.06720514595508577,21.010515213012695,73.67258453369139)"></image><image width="608" height="760" xlink:href="https://lct-designs.s3.us-west-1.amazonaws.com/assets/libs/little-hoppers-soccer-banner-1654843240370.png" class="asset" transform="matrix(0.06720514595508575,0,0,0.06720514595508577,103.05352783203125,73.67258453369139)"></image><image width="608" height="760" xlink:href="https://lct-designs.s3.us-west-1.amazonaws.com/assets/libs/little-hoppers-soccer-banner-1654843240370.png" class="asset" transform="matrix(0.06720514595508575,0,0,0.06720514595508577,187.78469848632812,73.67258453369139)"></image><image width="608" height="760" xlink:href="https://lct-designs.s3.us-west-1.amazonaws.com/assets/libs/little-hoppers-soccer-banner-1654843240370.png" class="asset" transform="matrix(0.06720514595508575,0,0,0.06720514595508577,273.5911560058593,73.67258453369139)"></image><image width="608" height="760" xlink:href="https://lct-designs.s3.us-west-1.amazonaws.com/assets/libs/little-hoppers-soccer-banner-1654843240370.png" class="asset" transform="matrix(0.06720514595508575,0,0,0.06720514595508577,361.8707275390625,73.67258453369139)"></image><text fill="#000000" font-family="Foo" font-size="50" stroke-opacity="1" stroke-width="1" stroke="#ffffff" x="-98.72634249947717" y="199.47500657859518" transform="matrix(0.28505340218544006,0,0,0.2850534021854401,458.48852539062506,119.5421829223633)" svgjs:data="{&quot;leading&quot;:&quot;1.3&quot;}"><tspan dy="0" x="-98.72634249947717" svgjs:data="{&quot;newLined&quot;:true}">PLAYER</tspan></text><image width="608" height="760" xlink:href="https://lct-designs.s3.us-west-1.amazonaws.com/assets/libs/little-hoppers-soccer-banner-1654843240370.png" class="asset" transform="matrix(0.06720514595508575,0,0,0.06720514595508577,435.31158447265625,111.84462738037111)"></image><text fill="#000000" font-family="Foo" font-size="50" stroke-opacity="1" stroke-width="1" stroke="#ffffff" x="-98.72634249947717" y="199.47500657859518" transform="matrix(0.28505340218544006,0,0,0.2850534021854401,341.6068115234375,158.78949737548834)" svgjs:data="{&quot;leading&quot;:&quot;1.3&quot;}"><tspan dy="0" x="-98.72634249947717" svgjs:data="{&quot;newLined&quot;:true}">PLAYER</tspan></text><image width="608" height="760" xlink:href="https://lct-designs.s3.us-west-1.amazonaws.com/assets/libs/little-hoppers-soccer-banner-1654843240370.png" class="asset" transform="matrix(0.06720514595508575,0,0,0.06720514595508577,318.42987060546875,151.09194183349615)"></image><text fill="#000000" font-family="Foo" font-size="50" stroke-opacity="1" stroke-width="1" stroke="#ffffff" x="-98.72634249947717" y="199.47500657859518" transform="matrix(0.28505340218544006,0,0,0.2850534021854401,405.90789794921875,188.359375)" svgjs:data="{&quot;leading&quot;:&quot;1.3&quot;}"><tspan dy="0" x="-98.72634249947717" svgjs:data="{&quot;newLined&quot;:true}">PLAYER</tspan></text><image width="608" height="760" xlink:href="https://lct-designs.s3.us-west-1.amazonaws.com/assets/libs/little-hoppers-soccer-banner-1654843240370.png" class="asset" transform="matrix(0.06720514595508575,0,0,0.06720514595508577,382.73095703125,180.66183471679688)"></image><image width="760" height="354" xlink:href="https://lct-designs.s3.us-west-1.amazonaws.com/assets/libs/little-hoppers-1655101536478.png" class="asset" transform="matrix(0.3927951157093048,0,0,0.3927951157093048,14.04234790802002,152.5336456298828)"></image><g class="mask" style="pointer-events: none;"><g><path fill="#BCBEC0" d="M-3642.4-2101.7v4589.1h7813.4v-4589.1H-3642.4z M500.5,67.2v233.3v66.7H0.5v-66.7V67.2V0.5h500V67.2z" transform="matrix(1,0,0,1,0,0)"></path><g transform="matrix(1,0,0,1,0,0)">
	<rect x="0.5" y="300.5" opacity="0.95" fill="#F1F2F2" width="500" height="66.7"></rect>
	<rect x="0.5" y="0.5" opacity="0.95" fill="#F1F2F2" width="500" height="66.7"></rect>
</g></g></g></svg>