<svg xmlns="http://www.w3.org/2000/svg" version="1.1" xmlns:xlink="http://www.w3.org/1999/xlink" xmlns:svgjs="http://svgjs.dev/svgjs" width="100%" height="100%" viewBox="1 1 499 365.70001220703125" preserveAspectRatio="none" data-info="{&quot;_id&quot;:4,&quot;name&quot;:&quot;POLE POCKET SOCCER BANNERS&quot;,&quot;information&quot;:&quot;- Size: 3’x5’\n- Material: heavy duty vinyl banner\n- Digitally printed on vinyl&quot;,&quot;price&quot;:&quot;95.00&quot;,&quot;sale_price&quot;:&quot;89.99&quot;,&quot;type&quot;:&quot;pole-pocket&quot;,&quot;cover&quot;:{&quot;key&quot;:&quot;assets/models/pole-1628062864266-1631924568908.png&quot;,&quot;url&quot;:&quot;https://lct-designs.s3.us-west-1.amazonaws.com/assets/models/pole-1628062864266-1631924568908.png&quot;},&quot;back&quot;:{&quot;key&quot;:&quot;assets/models/pole-1631924700152.svg&quot;,&quot;url&quot;:&quot;https://lct-designs.s3.us-west-1.amazonaws.com/assets/models/pole-1631924700152.svg&quot;},&quot;mask&quot;:{&quot;key&quot;:&quot;assets/models/pole-mask-1631925211715.svg&quot;,&quot;url&quot;:&quot;https://lct-designs.s3.us-west-1.amazonaws.com/assets/models/pole-mask-1631925211715.svg&quot;},&quot;pos&quot;:&quot;2&quot;,&quot;accessories&quot;:&quot;2,3&quot;}" style="background-color: white;"><g class="model" style="pointer-events: none;"><polygon fill="#FFFFFF" points="0.5,0.5 0.5,67.2 0.5,300.5 0.5,367.2 500.5,367.2 500.5,300.5 500.5,67.2 500.5,0.5 "></polygon></g><image width="760" height="554" xlink:href="https://lct-designs.s3.us-west-1.amazonaws.com/assets/libs/asset-1-1655089516269.png" class="asset background locked" transform="matrix(0.6619133794350744,0,0,0.6619133794350744,0,0)"></image><image width="600" height="760" xlink:href="https://lct-designs.s3.us-west-1.amazonaws.com/assets/libs/asset-3-1655089652057.png" class="asset" transform="matrix(0.2502462863922119,0,0,0.25024628639221197,170.469467163086,88.75516510009767)"></image><image width="739" height="760" xlink:href="https://lct-designs.s3.us-west-1.amazonaws.com/assets/libs/asset-2-1655089567347.png" class="asset" transform="matrix(0.05130428820848465,0,0,0.05130428820848465,133.9491729736328,221.06066894531256)"></image><text fill="#000000" font-family="American Captain" font-size="45" x="196.88482887172975" y="200.2028425470028" stroke-opacity="1" stroke-width="1" stroke="#ffffff" transform="matrix(0.44095131754875183,0,0,0.44095131754875183,42.44674301147461,191.5978240966797)" svgjs:data="{&quot;leading&quot;:&quot;1.3&quot;}"><tspan dy="0" x="196.88482887172975" svgjs:data="{&quot;newLined&quot;:true}">Player</tspan></text><image width="739" height="760" xlink:href="https://lct-designs.s3.us-west-1.amazonaws.com/assets/libs/asset-2-1655089567347.png" class="asset" transform="matrix(0.05130423977971077,0,0,0.05130423977971077,81.64984130859375,75.86728668212892)"></image><text fill="#000000" font-family="American Captain" font-size="45" x="196.88482887172975" y="200.2028425470028" stroke-opacity="1" stroke-width="1" stroke="#ffffff" transform="matrix(0.44095131754875183,0,0,0.44095131754875183,-9.85258817672731,46.404441833496094)" svgjs:data="{&quot;leading&quot;:&quot;1.3&quot;}"><tspan dy="0" x="196.88482887172975" svgjs:data="{&quot;newLined&quot;:true}">Player</tspan></text><image width="739" height="760" xlink:href="https://lct-designs.s3.us-west-1.amazonaws.com/assets/libs/asset-2-1655089567347.png" class="asset" transform="matrix(0.05130426213145256,0,0,0.05130426213145256,115.43579101562497,146.72958374023438)"></image><text fill="#000000" font-family="American Captain" font-size="45" x="196.88482887172975" y="200.2028425470028" stroke-opacity="1" stroke-width="1" stroke="#ffffff" transform="matrix(0.44095131754875183,0,0,0.44095131754875183,23.93336296081543,117.26673126220702)" svgjs:data="{&quot;leading&quot;:&quot;1.3&quot;}"><tspan dy="0" x="196.88482887172975" svgjs:data="{&quot;newLined&quot;:true}">Player</tspan></text><image width="739" height="760" xlink:href="https://lct-designs.s3.us-west-1.amazonaws.com/assets/libs/asset-2-1655089567347.png" class="asset" transform="matrix(0.05130426958203316,0,0,0.05130426958203316,62.00659942626953,220.0695954561234)"></image><text fill="#000000" font-family="American Captain" font-size="45" x="196.88482887172975" y="200.2028425470028" stroke-opacity="1" stroke-width="1" stroke="#ffffff" transform="matrix(0.44095131754875183,0,0,0.44095131754875183,-29.495830535888672,190.60675060749054)" svgjs:data="{&quot;leading&quot;:&quot;1.3&quot;}"><tspan dy="0" x="196.88482887172975" svgjs:data="{&quot;newLined&quot;:true}">Player</tspan></text><image width="739" height="760" xlink:href="https://lct-designs.s3.us-west-1.amazonaws.com/assets/libs/asset-2-1655089567347.png" class="asset" transform="matrix(0.05130428075790405,0,0,0.05130428075790406,44.16713333129883,146.72956854104996)"></image><text fill="#000000" font-family="American Captain" font-size="45" x="196.88482887172975" y="200.2028425470028" stroke-opacity="1" stroke-width="1" stroke="#ffffff" transform="matrix(0.44095131754875183,0,0,0.44095131754875183,-47.335292816162124,117.2667160630226)" svgjs:data="{&quot;leading&quot;:&quot;1.3&quot;}"><tspan dy="0" x="196.88482887172975" svgjs:data="{&quot;newLined&quot;:true}">Player</tspan></text><image width="739" height="760" xlink:href="https://lct-designs.s3.us-west-1.amazonaws.com/assets/libs/asset-2-1655089567347.png" class="asset" transform="matrix(0.051304254680871964,0,0,0.051304254680871964,374.10797119140625,84.78702545166014)"></image><text fill="#000000" font-family="American Captain" font-size="45" x="196.88482887172975" y="200.2028425470028" stroke-opacity="1" stroke-width="1" stroke="#ffffff" transform="matrix(0.44095131754875183,0,0,0.44095131754875183,282.60552978515625,55.324180603027344)" svgjs:data="{&quot;leading&quot;:&quot;1.3&quot;}"><tspan dy="0" x="196.88482887172975" svgjs:data="{&quot;newLined&quot;:true}">Player</tspan></text><image width="739" height="760" xlink:href="https://lct-designs.s3.us-west-1.amazonaws.com/assets/libs/asset-2-1655089567347.png" class="asset" transform="matrix(0.05130428075790405,0,0,0.05130428075790406,410.3716125488281,155.64932250976562)"></image><text fill="#000000" font-family="American Captain" font-size="45" x="196.88482887172975" y="200.2028425470028" stroke-opacity="1" stroke-width="1" stroke="#ffffff" transform="matrix(0.44095131754875183,0,0,0.44095131754875183,318.86920166015625,126.1864700317383)" svgjs:data="{&quot;leading&quot;:&quot;1.3&quot;}"><tspan dy="0" x="196.88482887172975" svgjs:data="{&quot;newLined&quot;:true}">Player</tspan></text><image width="739" height="760" xlink:href="https://lct-designs.s3.us-west-1.amazonaws.com/assets/libs/asset-2-1655089567347.png" class="asset" transform="matrix(0.05130428820848465,0,0,0.05130428820848465,369.8265075683594,225.5205688476562)"></image><text fill="#000000" font-family="American Captain" font-size="45" x="196.88482887172975" y="200.2028425470028" stroke-opacity="1" stroke-width="1" stroke="#ffffff" transform="matrix(0.44095131754875183,0,0,0.44095131754875183,278.3240661621094,196.0577239990235)" svgjs:data="{&quot;leading&quot;:&quot;1.3&quot;}"><tspan dy="0" x="196.88482887172975" svgjs:data="{&quot;newLined&quot;:true}">Player</tspan></text><image width="739" height="760" xlink:href="https://lct-designs.s3.us-west-1.amazonaws.com/assets/libs/asset-2-1655089567347.png" class="asset" transform="matrix(0.05130428448319435,0,0,0.05130428448319436,333.1564636230469,156.1448516845703)"></image><image width="739" height="760" xlink:href="https://lct-designs.s3.us-west-1.amazonaws.com/assets/libs/asset-2-1655089567347.png" class="asset" transform="matrix(0.05130429938435555,0,0,0.05130429938435555,447.7155456542969,212.14096069335938)"></image><text fill="#000000" font-family="American Captain" font-size="45" x="196.88482887172975" y="200.2028425470028" stroke-opacity="1" stroke-width="1" stroke="#ffffff" transform="matrix(0.44095131754875183,0,0,0.44095131754875183,356.213134765625,182.67811584472656)" svgjs:data="{&quot;leading&quot;:&quot;1.3&quot;}"><tspan dy="0" x="196.88482887172975" svgjs:data="{&quot;newLined&quot;:true}">Player</tspan></text><text fill="#000000" font-family="American Captain" font-size="45" x="196.88482887172975" y="200.2028425470028" stroke-opacity="1" stroke-width="1" stroke="#ffffff" transform="matrix(0.44095131754875183,0,0,0.44095131754875183,241.65404510498047,126.68199920654298)" svgjs:data="{&quot;leading&quot;:&quot;1.3&quot;}"><tspan dy="0" x="196.88482887172975" svgjs:data="{&quot;newLined&quot;:true}">Player</tspan></text><g class="mask" style="pointer-events: none;"><g><path fill="#BCBEC0" d="M-3642.4-2101.7v4589.1h7813.4v-4589.1H-3642.4z M500.5,67.2v233.3v66.7H0.5v-66.7V67.2V0.5h500V67.2z" transform="matrix(1,0,0,1,0,0)"></path><g transform="matrix(1,0,0,1,0,0)">
	<rect x="0.5" y="300.5" opacity="0.95" fill="#F1F2F2" width="500" height="66.7"></rect>
	<rect x="0.5" y="0.5" opacity="0.95" fill="#F1F2F2" width="500" height="66.7"></rect>
</g></g></g></svg>