<svg xmlns="http://www.w3.org/2000/svg" version="1.1" xmlns:xlink="http://www.w3.org/1999/xlink" xmlns:svgjs="http://svgjs.dev/svgjs" width="100%" height="100%" viewBox="1 1 499 365.70001220703125" preserveAspectRatio="none" data-info="{&quot;_id&quot;:4,&quot;name&quot;:&quot;POLE POCKET SOCCER BANNERS&quot;,&quot;information&quot;:&quot;- Size: 3’x5’\n- Material: heavy duty vinyl banner\n- Digitally printed on vinyl&quot;,&quot;price&quot;:&quot;95.00&quot;,&quot;sale_price&quot;:&quot;89.99&quot;,&quot;type&quot;:&quot;pole-pocket&quot;,&quot;cover&quot;:{&quot;key&quot;:&quot;assets/models/pole-1628062864266-1631924568908.png&quot;,&quot;url&quot;:&quot;https://lct-designs.s3.us-west-1.amazonaws.com/assets/models/pole-1628062864266-1631924568908.png&quot;},&quot;back&quot;:{&quot;key&quot;:&quot;assets/models/pole-1631924700152.svg&quot;,&quot;url&quot;:&quot;https://lct-designs.s3.us-west-1.amazonaws.com/assets/models/pole-1631924700152.svg&quot;},&quot;mask&quot;:{&quot;key&quot;:&quot;assets/models/pole-mask-1631925211715.svg&quot;,&quot;url&quot;:&quot;https://lct-designs.s3.us-west-1.amazonaws.com/assets/models/pole-mask-1631925211715.svg&quot;},&quot;pos&quot;:&quot;2&quot;,&quot;accessories&quot;:&quot;2,3&quot;}" style="background-color: white;"><g class="model" style="pointer-events: none;"><polygon fill="#FFFFFF" points="0.5,0.5 0.5,67.2 0.5,300.5 0.5,367.2 500.5,367.2 500.5,300.5 500.5,67.2 500.5,0.5 "></polygon></g><image width="760" height="558" xlink:href="https://lct-designs.s3.us-west-1.amazonaws.com/assets/libs/troopers-green-1653386108032.png" class="asset background locked" transform="matrix(0.6591246128082277,0,0,0.6571685671806335,0,0)"></image><image width="760" height="271" xlink:href="https://lct-designs.s3.us-west-1.amazonaws.com/assets/libs/troopers-green-2-1653386200121.png" class="asset" transform="matrix(0.37288123369216924,0,0,0.3728812336921692,82.9412078857422,74.24018096923828)"></image><text fill="#126333" font-family="Raider Crusader Shift Up" font-size="45" stroke-opacity="1" stroke-width="1" stroke="#ffffff" x="73.13761181072093" y="200.94616686344546" transform="matrix(0.2650145888328552,0,0,0.2650145888328552,345.22470092773443,239.64955139160153)" svgjs:data="{&quot;leading&quot;:&quot;1.3&quot;}"><tspan dy="0" x="73.13761181072093" svgjs:data="{&quot;newLined&quot;:true}">COACH:COACH'S NAME</tspan></text><text fill="#126333" font-family="Raider Crusader Shift Up" font-size="45" stroke-opacity="1" stroke-width="1" stroke="#ffffff" x="73.13761181072093" y="200.94616686344546" transform="matrix(0.2650145888328552,0,0,0.2650145888328552,-6.462703704833984,239.64953613281247)" svgjs:data="{&quot;leading&quot;:&quot;1.3&quot;}"><tspan dy="0" x="73.13761181072093" svgjs:data="{&quot;newLined&quot;:true}">TEAM MOM: NAME</tspan></text><text fill="#249f61" font-family="Raider Crusader Shift Up" font-size="45" stroke-opacity="1" stroke-width="1" stroke="#ffffff" x="164.536796991385" y="202.9283293390314" transform="matrix(0.4157042801380158,0,0,0.41570428013801575,99.34811401367189,135.34716796875)" svgjs:data="{&quot;leading&quot;:&quot;1.3&quot;}"><tspan dy="0" x="164.536796991385" svgjs:data="{&quot;newLined&quot;:true}">PLAYER</tspan></text><image width="760" height="662" xlink:href="https://lct-designs.s3.us-west-1.amazonaws.com/assets/libs/troopers-green-4-1653386230020.png" class="asset" transform="matrix(0.05123240128159523,0,0,0.05123240128159523,129.54087829589847,189.5610198974609)"></image><text fill="#249f61" font-family="Raider Crusader Shift Up" font-size="45" stroke-opacity="1" stroke-width="1" stroke="#ffffff" x="164.536796991385" y="202.9283293390314" transform="matrix(0.4157042801380158,0,0,0.41570428013801575,225.7274322509766,135.34716796875)" svgjs:data="{&quot;leading&quot;:&quot;1.3&quot;}"><tspan dy="0" x="164.536796991385" svgjs:data="{&quot;newLined&quot;:true}">PLAYER</tspan></text><image width="760" height="662" xlink:href="https://lct-designs.s3.us-west-1.amazonaws.com/assets/libs/troopers-green-4-1653386230020.png" class="asset" transform="matrix(0.05123240128159523,0,0,0.05123240128159523,255.92019653320318,189.5610198974609)"></image><text fill="#249f61" font-family="Raider Crusader Shift Up" font-size="45" stroke-opacity="1" stroke-width="1" stroke="#ffffff" x="164.536796991385" y="202.9283293390314" transform="matrix(0.4157042801380158,0,0,0.41570428013801575,347.79641723632824,135.34713745117188)" svgjs:data="{&quot;leading&quot;:&quot;1.3&quot;}"><tspan dy="0" x="164.536796991385" svgjs:data="{&quot;newLined&quot;:true}">PLAYER</tspan></text><image width="760" height="662" xlink:href="https://lct-designs.s3.us-west-1.amazonaws.com/assets/libs/troopers-green-4-1653386230020.png" class="asset" transform="matrix(0.05123240128159523,0,0,0.05123240128159523,377.9891662597657,189.5610198974609)"></image><text fill="#249f61" font-family="Raider Crusader Shift Up" font-size="45" stroke-opacity="1" stroke-width="1" stroke="#ffffff" x="164.536796991385" y="202.9283293390314" transform="matrix(0.4157042801380158,0,0,0.41570428013801575,347.55932617187506,179.52816772460938)" svgjs:data="{&quot;leading&quot;:&quot;1.3&quot;}"><tspan dy="0" x="164.536796991385" svgjs:data="{&quot;newLined&quot;:true}">PLAYER</tspan></text><image width="760" height="662" xlink:href="https://lct-designs.s3.us-west-1.amazonaws.com/assets/libs/troopers-green-4-1653386230020.png" class="asset" transform="matrix(0.05123240128159523,0,0,0.05123240128159523,377.75207519531256,233.7420501708984)"></image><text fill="#249f61" font-family="Raider Crusader Shift Up" font-size="45" stroke-opacity="1" stroke-width="1" stroke="#ffffff" x="164.536796991385" y="202.9283293390314" transform="matrix(0.4157042801380158,0,0,0.41570428013801575,99.11102294921875,179.5281982421875)" svgjs:data="{&quot;leading&quot;:&quot;1.3&quot;}"><tspan dy="0" x="164.536796991385" svgjs:data="{&quot;newLined&quot;:true}">PLAYER</tspan></text><image width="760" height="662" xlink:href="https://lct-designs.s3.us-west-1.amazonaws.com/assets/libs/troopers-green-4-1653386230020.png" class="asset" transform="matrix(0.05123240128159523,0,0,0.05123240128159523,129.3037872314453,233.7420501708984)"></image><text fill="#249f61" font-family="Raider Crusader Shift Up" font-size="45" stroke-opacity="1" stroke-width="1" stroke="#ffffff" x="164.536796991385" y="202.9283293390314" transform="matrix(0.4157042801380158,0,0,0.41570428013801575,225.49034118652344,179.5281982421875)" svgjs:data="{&quot;leading&quot;:&quot;1.3&quot;}"><tspan dy="0" x="164.536796991385" svgjs:data="{&quot;newLined&quot;:true}">PLAYER</tspan></text><image width="760" height="662" xlink:href="https://lct-designs.s3.us-west-1.amazonaws.com/assets/libs/troopers-green-4-1653386230020.png" class="asset" transform="matrix(0.05123240128159523,0,0,0.05123240128159523,255.68310546875006,233.7420501708984)"></image><image width="562" height="760" xlink:href="https://lct-designs.s3.us-west-1.amazonaws.com/assets/libs/troopers-green-3-1653386169006.png" class="asset" transform="matrix(0.17340578138828278,0,0,0.17340578138828275,18.182994842529293,130.65603637695312)"></image><text fill="#249f61" font-family="Raider Crusader Shift Up" font-size="45" stroke-opacity="1" stroke-width="1" stroke="#ffffff" x="164.536796991385" y="202.9283293390314" transform="matrix(0.4157042801380158,0,0,0.41570428013801575,348.63696289062506,48.06265258789064)" svgjs:data="{&quot;leading&quot;:&quot;1.3&quot;}"><tspan dy="0" x="164.536796991385" svgjs:data="{&quot;newLined&quot;:true}">PLAYER</tspan></text><image width="760" height="662" xlink:href="https://lct-designs.s3.us-west-1.amazonaws.com/assets/libs/troopers-green-4-1653386230020.png" class="asset" transform="matrix(0.05123240128159523,0,0,0.05123240128159523,378.8297119140626,102.27653503417969)"></image><text fill="#249f61" font-family="Raider Crusader Shift Up" font-size="45" stroke-opacity="1" stroke-width="1" stroke="#ffffff" x="164.536796991385" y="202.9283293390314" transform="matrix(0.4157042801380158,0,0,0.41570428013801575,348.399871826172,92.24368286132812)" svgjs:data="{&quot;leading&quot;:&quot;1.3&quot;}"><tspan dy="0" x="164.536796991385" svgjs:data="{&quot;newLined&quot;:true}">PLAYER</tspan></text><image width="760" height="662" xlink:href="https://lct-designs.s3.us-west-1.amazonaws.com/assets/libs/troopers-green-4-1653386230020.png" class="asset" transform="matrix(0.05123240128159523,0,0,0.05123240128159523,378.59262084960943,146.4575653076172)"></image><g class="mask" style="pointer-events: none;"><g><path fill="#BCBEC0" d="M-3642.4-2101.7v4589.1h7813.4v-4589.1H-3642.4z M500.5,67.2v233.3v66.7H0.5v-66.7V67.2V0.5h500V67.2z" transform="matrix(1,0,0,1,0,0)"></path><g transform="matrix(1,0,0,1,0,0)">
	<rect x="0.5" y="300.5" opacity="0.95" fill="#F1F2F2" width="500" height="66.7"></rect>
	<rect x="0.5" y="0.5" opacity="0.95" fill="#F1F2F2" width="500" height="66.7"></rect>
</g></g></g></svg>