<svg xmlns="http://www.w3.org/2000/svg" version="1.1" xmlns:xlink="http://www.w3.org/1999/xlink" xmlns:svgjs="http://svgjs.dev/svgjs" width="100%" height="100%" viewBox="1 1 499 365.70001220703125" preserveAspectRatio="none" data-info="{&quot;_id&quot;:4,&quot;name&quot;:&quot;POLE POCKET SOCCER BANNERS&quot;,&quot;information&quot;:&quot;- Size: 3’x5’\n- Material: heavy duty vinyl banner\n- Digitally printed on vinyl&quot;,&quot;price&quot;:&quot;95.00&quot;,&quot;sale_price&quot;:&quot;89.99&quot;,&quot;type&quot;:&quot;pole-pocket&quot;,&quot;cover&quot;:{&quot;key&quot;:&quot;assets/models/pole-1628062864266-1631924568908.png&quot;,&quot;url&quot;:&quot;https://lct-designs.s3.us-west-1.amazonaws.com/assets/models/pole-1628062864266-1631924568908.png&quot;},&quot;back&quot;:{&quot;key&quot;:&quot;assets/models/pole-1631924700152.svg&quot;,&quot;url&quot;:&quot;https://lct-designs.s3.us-west-1.amazonaws.com/assets/models/pole-1631924700152.svg&quot;},&quot;mask&quot;:{&quot;key&quot;:&quot;assets/models/pole-mask-1631925211715.svg&quot;,&quot;url&quot;:&quot;https://lct-designs.s3.us-west-1.amazonaws.com/assets/models/pole-mask-1631925211715.svg&quot;},&quot;pos&quot;:&quot;2&quot;,&quot;accessories&quot;:&quot;2,3&quot;}" style="background-color: white;"><g class="model" style="pointer-events: none;"><polygon fill="#FFFFFF" points="0.5,0.5 0.5,67.2 0.5,300.5 0.5,367.2 500.5,367.2 500.5,300.5 500.5,67.2 500.5,0.5 "></polygon></g><image width="760" height="455" xlink:href="https://lct-designs.s3.us-west-1.amazonaws.com/assets/libs/waves-1-1-1653386061005.png" class="asset background locked" transform="matrix(0.805934092762706,0,0,0.805934092762706,0,0)"></image><image width="760" height="618" xlink:href="https://lct-designs.s3.us-west-1.amazonaws.com/assets/libs/waves-soccer-banner-1-1653980341145.png" class="asset" transform="matrix(0.2702911198139191,0,0,0.26691430807113653,285.2003479003906,100.84432983398438)"></image><image width="542" height="760" xlink:href="https://lct-designs.s3.us-west-1.amazonaws.com/assets/libs/waves-3-1653386230023.png" class="asset" transform="matrix(0.07567049562931061,0,0,0.0756704956293106,13.49285411834714,68.71133422851562)"></image><image width="542" height="760" xlink:href="https://lct-designs.s3.us-west-1.amazonaws.com/assets/libs/waves-3-1653386230023.png" class="asset" transform="matrix(0.07567062228918077,0,0,0.07567062228918076,138.9995880126953,177.2811279296875)"></image><text fill="#ffffff" font-family="Foo" font-size="45" x="204.96429654041228" y="199.63694780916364" stroke-opacity="1" stroke-width="1" stroke="#000000" transform="matrix(0.5691830515861512,0,0,0.436462014913559,70.53984832763675,142.46891784667972)" svgjs:data="{&quot;leading&quot;:&quot;1.3&quot;}"><tspan dy="0" x="204.96429654041228" svgjs:data="{&quot;newLined&quot;:true}">PLAYER</tspan><tspan dy="58.5" x="204.96429654041228" svgjs:data="{&quot;newLined&quot;:true}"></tspan></text><image width="542" height="760" xlink:href="https://lct-designs.s3.us-west-1.amazonaws.com/assets/libs/waves-3-1653386230023.png" class="asset" transform="matrix(0.07567065209150316,0,0,0.07567065209150316,4.3017425537109375,175.2989654541016)"></image><text fill="#ffffff" font-family="Foo" font-size="45" x="204.96429654041228" y="199.63694780916364" stroke-opacity="1" stroke-width="1" stroke="#000000" transform="matrix(0.5691830515861512,0,0,0.436462014913559,-64.15799713134764,140.48675537109378)" svgjs:data="{&quot;leading&quot;:&quot;1.3&quot;}"><tspan dy="0" x="204.96429654041228" svgjs:data="{&quot;newLined&quot;:true}">PLAYER</tspan><tspan dy="58.5" x="204.96429654041228" svgjs:data="{&quot;newLined&quot;:true}"></tspan></text><image width="542" height="760" xlink:href="https://lct-designs.s3.us-west-1.amazonaws.com/assets/libs/waves-3-1653386230023.png" class="asset" transform="matrix(0.0756705179810524,0,0,0.07567051798105241,146.5785522460938,67.60347747802736)"></image><text fill="#ffffff" font-family="Foo" font-size="45" x="204.96429654041228" y="199.63694780916364" stroke-opacity="1" stroke-width="1" stroke="#000000" transform="matrix(0.5691830515861512,0,0,0.436462014913559,76.13345718383792,30.99175262451172)" svgjs:data="{&quot;leading&quot;:&quot;1.3&quot;}"><tspan dy="0" x="204.96429654041228" svgjs:data="{&quot;newLined&quot;:true}">PLAYER</tspan><tspan dy="58.5" x="204.96429654041228" svgjs:data="{&quot;newLined&quot;:true}"></tspan></text><text fill="#ffffff" font-family="Foo" font-size="45" x="204.96429654041228" y="199.63694780916364" stroke-opacity="1" stroke-width="1" stroke="#000000" transform="matrix(0.5691830515861512,0,0,0.436462014913559,79.37039184570315,91.92378234863281)" svgjs:data="{&quot;leading&quot;:&quot;1.3&quot;}"><tspan dy="0" x="204.96429654041228" svgjs:data="{&quot;newLined&quot;:true}">PLAYER</tspan><tspan dy="58.5" x="204.96429654041228" svgjs:data="{&quot;newLined&quot;:true}"></tspan></text><image width="542" height="760" xlink:href="https://lct-designs.s3.us-west-1.amazonaws.com/assets/libs/waves-3-1653386230023.png" class="asset" transform="matrix(0.07567060738801956,0,0,0.07567060738801956,149.81549072265625,128.53550720214844)"></image><text fill="#ffffff" font-family="Foo" font-size="45" x="204.96429654041228" y="199.63694780916364" stroke-opacity="1" stroke-width="1" stroke="#000000" transform="matrix(0.5691830515861512,0,0,0.436462014913559,-56.95223617553711,32.099609374999986)" svgjs:data="{&quot;leading&quot;:&quot;1.3&quot;}"><tspan dy="0" x="204.96429654041228" svgjs:data="{&quot;newLined&quot;:true}">PLAYER</tspan><tspan dy="58.5" x="204.96429654041228" svgjs:data="{&quot;newLined&quot;:true}"></tspan></text><text fill="#ffffff" font-family="Foo" font-size="45" x="204.96429654041228" y="199.63694780916364" stroke-opacity="1" stroke-width="1" stroke="#000000" transform="matrix(0.5691830515861512,0,0,0.436462014913559,-55.36115264892578,86.58741760253906)" svgjs:data="{&quot;leading&quot;:&quot;1.3&quot;}"><tspan dy="0" x="204.96429654041228" svgjs:data="{&quot;newLined&quot;:true}">PLAYER</tspan><tspan dy="58.5" x="204.96429654041228" svgjs:data="{&quot;newLined&quot;:true}"></tspan></text><image width="542" height="760" xlink:href="https://lct-designs.s3.us-west-1.amazonaws.com/assets/libs/waves-3-1653386230023.png" class="asset" transform="matrix(0.07567045092582703,0,0,0.07567045092582701,12.868225097656222,122.64521789550778)"></image><image width="542" height="760" xlink:href="https://lct-designs.s3.us-west-1.amazonaws.com/assets/libs/waves-3-1653386230023.png" class="asset" transform="matrix(0.07567065209150316,0,0,0.07567065209150316,141.07093811035162,226.83518981933597)"></image><text fill="#ffffff" font-family="Foo" font-size="45" x="204.96429654041228" y="199.63694780916364" stroke-opacity="1" stroke-width="1" stroke="#000000" transform="matrix(0.5691830515861512,0,0,0.436462014913559,72.61119842529297,192.02297973632815)" svgjs:data="{&quot;leading&quot;:&quot;1.3&quot;}"><tspan dy="0" x="204.96429654041228" svgjs:data="{&quot;newLined&quot;:true}">PLAYER</tspan><tspan dy="58.5" x="204.96429654041228" svgjs:data="{&quot;newLined&quot;:true}"></tspan></text><image width="542" height="760" xlink:href="https://lct-designs.s3.us-west-1.amazonaws.com/assets/libs/waves-3-1653386230023.png" class="asset" transform="matrix(0.07567068189382553,0,0,0.07567068189382554,6.373092651367216,224.85302734374997)"></image><text fill="#ffffff" font-family="Foo" font-size="45" x="204.96429654041228" y="199.63694780916364" stroke-opacity="1" stroke-width="1" stroke="#000000" transform="matrix(0.5691830515861512,0,0,0.436462014913559,-62.086647033691406,190.0408172607422)" svgjs:data="{&quot;leading&quot;:&quot;1.3&quot;}"><tspan dy="0" x="204.96429654041228" svgjs:data="{&quot;newLined&quot;:true}">PLAYER</tspan><tspan dy="58.5" x="204.96429654041228" svgjs:data="{&quot;newLined&quot;:true}"></tspan></text><g class="mask" style="pointer-events: none;"><g><path fill="#BCBEC0" d="M-3642.4-2101.7v4589.1h7813.4v-4589.1H-3642.4z M500.5,67.2v233.3v66.7H0.5v-66.7V67.2V0.5h500V67.2z" transform="matrix(1,0,0,1,0,0)"></path><g transform="matrix(1,0,0,1,0,0)">
	<rect x="0.5" y="300.5" opacity="0.95" fill="#F1F2F2" width="500" height="66.7"></rect>
	<rect x="0.5" y="0.5" opacity="0.95" fill="#F1F2F2" width="500" height="66.7"></rect>
</g></g></g><text fill="#ffffff" font-family="Foo" font-size="45" stroke-opacity="1" stroke-width="1" stroke="#000000" x="46.33630200305876" y="199.35998362154157" transform="matrix(0.3479380905628205,0,0,0.3479380905628205,311.7026977539063,19.96988677978517)" svgjs:data="{&quot;leading&quot;:&quot;1.3&quot;}"><tspan dy="0" x="46.33630200305876" svgjs:data="{&quot;newLined&quot;:true}">COACH:COACH'S NAME</tspan><tspan dy="58.5" x="46.33630200305876" svgjs:data="{&quot;newLined&quot;:true}"></tspan></text><text fill="#ffffff" font-family="Foo" font-size="45" stroke-opacity="1" stroke-width="1" stroke="#000000" x="46.33630200305876" y="199.35998362154157" transform="matrix(0.3762099146842957,0,0,0.3479380905628205,-1.172887802123995,19.990999221801758)" svgjs:data="{&quot;leading&quot;:&quot;1.3&quot;}"><tspan dy="0" x="46.33630200305876" svgjs:data="{&quot;newLined&quot;:true}">TEAM MOM:NAME</tspan></text></svg>