<svg xmlns="http://www.w3.org/2000/svg" version="1.1" xmlns:xlink="http://www.w3.org/1999/xlink" xmlns:svgjs="http://svgjs.dev/svgjs" width="100%" height="100%" viewBox="1 1 499 365.70001220703125" preserveAspectRatio="none" data-info="{&quot;_id&quot;:4,&quot;name&quot;:&quot;POLE POCKET SOCCER BANNERS&quot;,&quot;information&quot;:&quot;- Size: 3’x5’\n- Material: heavy duty vinyl banner\n- Digitally printed on vinyl&quot;,&quot;price&quot;:&quot;95.00&quot;,&quot;sale_price&quot;:&quot;89.99&quot;,&quot;type&quot;:&quot;pole-pocket&quot;,&quot;cover&quot;:{&quot;key&quot;:&quot;assets/models/pole-1628062864266-1631924568908.png&quot;,&quot;url&quot;:&quot;https://lct-designs.s3.us-west-1.amazonaws.com/assets/models/pole-1628062864266-1631924568908.png&quot;},&quot;back&quot;:{&quot;key&quot;:&quot;assets/models/pole-1631924700152.svg&quot;,&quot;url&quot;:&quot;https://lct-designs.s3.us-west-1.amazonaws.com/assets/models/pole-1631924700152.svg&quot;},&quot;mask&quot;:{&quot;key&quot;:&quot;assets/models/pole-mask-1631925211715.svg&quot;,&quot;url&quot;:&quot;https://lct-designs.s3.us-west-1.amazonaws.com/assets/models/pole-mask-1631925211715.svg&quot;},&quot;pos&quot;:&quot;2&quot;,&quot;accessories&quot;:&quot;2,3&quot;}" style="background-color: white;"><g class="model" style="pointer-events: none;"><polygon fill="#FFFFFF" points="0.5,0.5 0.5,67.2 0.5,300.5 0.5,367.2 500.5,367.2 500.5,300.5 500.5,67.2 500.5,0.5 "></polygon></g><image width="760" height="553" xlink:href="https://lct-designs.s3.us-west-1.amazonaws.com/assets/libs/nomads-1633402757838.png" class="asset background locked" transform="matrix(0.6631103294883024,0,0,0.6631103294883024,0,0)"></image><text fill="#f05a28" font-family="BubbleGum" font-size="50" stroke-opacity="1" stroke-width="2" stroke="#ffffff" x="-98.72634249947717" y="199.47500657859518" transform="matrix(0.23232628405094147,0,0,0.2323262840509415,30.87118148803711,247.3928680419922)" svgjs:data="{&quot;leading&quot;:&quot;1.3&quot;}"><tspan dy="0" x="-98.72634249947717" svgjs:data="{&quot;newLined&quot;:true}">COACH: COACH'S NAME</tspan></text><text fill="#f05a28" font-family="BubbleGum" font-size="50" stroke-opacity="1" stroke-width="2" stroke="#ffffff" x="-98.72634249947717" y="199.47500657859518" transform="matrix(0.23232628405094147,0,0,0.2323262840509415,352.7815856933594,247.39291381835938)" svgjs:data="{&quot;leading&quot;:&quot;1.3&quot;}"><tspan dy="0" x="-98.72634249947717" svgjs:data="{&quot;newLined&quot;:true}">TEAM MOM: TEAM MOM'S NAME</tspan></text><image width="760" height="329" xlink:href="https://lct-designs.s3.us-west-1.amazonaws.com/assets/libs/nomads-2-1633342518598.png" class="asset" transform="matrix(0.3391093313694,0,0,0.3391093313694,121.63676452636719,75.68375396728517)"></image><text fill="#f05a28" font-family="BubbleGum" font-size="50" stroke-opacity="1" stroke-width="2" stroke="#ffffff" x="-98.72634249947717" y="199.47500657859518" transform="matrix(0.3151705861091614,0,0,0.32168096303939825,90.68649291992186,138.2249298095703)" svgjs:data="{&quot;leading&quot;:&quot;1.3&quot;}"><tspan dy="0" x="-98.72634249947717" svgjs:data="{&quot;newLined&quot;:true}">PLAYER</tspan><tspan dy="65" x="-98.72634249947717" svgjs:data="{&quot;newLined&quot;:true}"></tspan></text><image width="760" height="564" xlink:href="https://lct-designs.s3.us-west-1.amazonaws.com/assets/libs/nomads-3-1633342536154.png" class="asset" transform="matrix(0.06669781357049942,0,0,0.06669781357049942,60.55815887451172,146.78236389160156)"></image><text fill="#f05a28" font-family="BubbleGum" font-size="50" stroke-opacity="1" stroke-width="2" stroke="#ffffff" x="-98.72634249947717" y="199.47500657859518" transform="matrix(0.3151705861091614,0,0,0.32168096303939825,414.6650085449219,138.76254272460938)" svgjs:data="{&quot;leading&quot;:&quot;1.3&quot;}"><tspan dy="0" x="-98.72634249947717" svgjs:data="{&quot;newLined&quot;:true}">PLAYER</tspan><tspan dy="65" x="-98.72634249947717" svgjs:data="{&quot;newLined&quot;:true}"></tspan></text><image width="760" height="564" xlink:href="https://lct-designs.s3.us-west-1.amazonaws.com/assets/libs/nomads-3-1633342536154.png" class="asset" transform="matrix(0.06669781357049942,0,0,0.06669781357049942,384.55615234375006,147.31997680664062)"></image><text fill="#f05a28" font-family="BubbleGum" font-size="50" stroke-opacity="1" stroke-width="2" stroke="#ffffff" x="-98.72634249947717" y="199.47500657859518" transform="matrix(0.3151705861091614,0,0,0.32168096303939825,45.57896423339844,71.55825805664064)" svgjs:data="{&quot;leading&quot;:&quot;1.3&quot;}"><tspan dy="0" x="-98.72634249947717" svgjs:data="{&quot;newLined&quot;:true}">PLAYER</tspan><tspan dy="65" x="-98.72634249947717" svgjs:data="{&quot;newLined&quot;:true}"></tspan></text><text fill="#f05a28" font-family="BubbleGum" font-size="50" stroke-opacity="1" stroke-width="2" stroke="#ffffff" x="-98.72634249947717" y="199.47500657859518" transform="matrix(0.3151705861091614,0,0,0.32168096303939825,45.57896041870117,203.8163299560547)" svgjs:data="{&quot;leading&quot;:&quot;1.3&quot;}"><tspan dy="0" x="-98.72634249947717" svgjs:data="{&quot;newLined&quot;:true}">PLAYER</tspan><tspan dy="65" x="-98.72634249947717" svgjs:data="{&quot;newLined&quot;:true}"></tspan></text><image width="760" height="564" xlink:href="https://lct-designs.s3.us-west-1.amazonaws.com/assets/libs/nomads-3-1633342536154.png" class="asset" transform="matrix(0.06669781357049942,0,0,0.06669781357049942,15.4700927734375,212.37376403808594)"></image><image width="760" height="564" xlink:href="https://lct-designs.s3.us-west-1.amazonaws.com/assets/libs/nomads-3-1633342536154.png" class="asset" transform="matrix(0.06669781357049942,0,0,0.06669781357049942,121.7066421508789,212.91140747070312)"></image><text fill="#f05a28" font-family="BubbleGum" font-size="50" stroke-opacity="1" stroke-width="2" stroke="#ffffff" x="-98.72634249947717" y="199.47500657859518" transform="matrix(0.3151705861091614,0,0,0.32168096303939825,151.81550598144534,204.35397338867193)" svgjs:data="{&quot;leading&quot;:&quot;1.3&quot;}"><tspan dy="0" x="-98.72634249947717" svgjs:data="{&quot;newLined&quot;:true}">PLAYER</tspan><tspan dy="65" x="-98.72634249947717" svgjs:data="{&quot;newLined&quot;:true}"></tspan></text><image width="760" height="564" xlink:href="https://lct-designs.s3.us-west-1.amazonaws.com/assets/libs/nomads-3-1633342536154.png" class="asset" transform="matrix(0.06669781357049942,0,0,0.06669781357049942,15.47008800506591,80.11569213867189)"></image><text fill="#f05a28" font-family="BubbleGum" font-size="50" stroke-opacity="1" stroke-width="2" stroke="#ffffff" x="-98.72634249947717" y="199.47500657859518" transform="matrix(0.3151705861091614,0,0,0.32168096303939825,464.7187194824219,203.8163222670555)" svgjs:data="{&quot;leading&quot;:&quot;1.3&quot;}"><tspan dy="0" x="-98.72634249947717" svgjs:data="{&quot;newLined&quot;:true}">PLAYER</tspan><tspan dy="65" x="-98.72634249947717" svgjs:data="{&quot;newLined&quot;:true}"></tspan></text><text fill="#f05a28" font-family="BubbleGum" font-size="50" stroke-opacity="1" stroke-width="2" stroke="#ffffff" x="-98.72634249947717" y="199.47500657859518" transform="matrix(0.3151705861091614,0,0,0.32168096303939825,464.71875,71.55825799703597)" svgjs:data="{&quot;leading&quot;:&quot;1.3&quot;}"><tspan dy="0" x="-98.72634249947717" svgjs:data="{&quot;newLined&quot;:true}">PLAYER</tspan><tspan dy="65" x="-98.72634249947717" svgjs:data="{&quot;newLined&quot;:true}"></tspan></text><image width="760" height="564" xlink:href="https://lct-designs.s3.us-west-1.amazonaws.com/assets/libs/nomads-3-1633342536154.png" class="asset" transform="matrix(0.06669781357049942,0,0,0.06669781357049942,434.60986328125006,80.11569207906722)"></image><image width="760" height="564" xlink:href="https://lct-designs.s3.us-west-1.amazonaws.com/assets/libs/nomads-3-1633342536154.png" class="asset" transform="matrix(0.06669781357049942,0,0,0.06669781357049942,434.60986328125006,212.37374877929688)"></image><image width="760" height="564" xlink:href="https://lct-designs.s3.us-west-1.amazonaws.com/assets/libs/nomads-3-1633342536154.png" class="asset" transform="matrix(0.06669781357049942,0,0,0.06669781357049942,321.2765197753906,212.91140747070312)"></image><image width="760" height="564" xlink:href="https://lct-designs.s3.us-west-1.amazonaws.com/assets/libs/nomads-3-1633342536154.png" class="asset" transform="matrix(0.06669781357049942,0,0,0.06669781357049942,225.2550201416016,211.83613586425787)"></image><text fill="#f05a28" font-family="BubbleGum" font-size="50" stroke-opacity="1" stroke-width="2" stroke="#ffffff" x="-98.72634249947717" y="199.47500657859518" transform="matrix(0.3151705861091614,0,0,0.32168096303939825,255.36389160156244,203.27870178222662)" svgjs:data="{&quot;leading&quot;:&quot;1.3&quot;}"><tspan dy="0" x="-98.72634249947717" svgjs:data="{&quot;newLined&quot;:true}">PLAYER</tspan><tspan dy="65" x="-98.72634249947717" svgjs:data="{&quot;newLined&quot;:true}"></tspan></text><text fill="#f05a28" font-family="BubbleGum" font-size="50" stroke-opacity="1" stroke-width="2" stroke="#ffffff" x="-98.72634249947717" y="199.47500657859518" transform="matrix(0.3151705861091614,0,0,0.32168096303939825,351.3853759765625,204.35397338867193)" svgjs:data="{&quot;leading&quot;:&quot;1.3&quot;}"><tspan dy="0" x="-98.72634249947717" svgjs:data="{&quot;newLined&quot;:true}">PLAYER</tspan><tspan dy="65" x="-98.72634249947717" svgjs:data="{&quot;newLined&quot;:true}"></tspan></text><g class="mask" style="pointer-events: none;"><g><path fill="#BCBEC0" d="M-3642.4-2101.7v4589.1h7813.4v-4589.1H-3642.4z M500.5,67.2v233.3v66.7H0.5v-66.7V67.2V0.5h500V67.2z" transform="matrix(1,0,0,1,0,0)"></path><g transform="matrix(1,0,0,1,0,0)">
	<rect x="0.5" y="300.5" opacity="0.95" fill="#F1F2F2" width="500" height="66.7"></rect>
	<rect x="0.5" y="0.5" opacity="0.95" fill="#F1F2F2" width="500" height="66.7"></rect>
</g></g></g></svg>