<svg xmlns="http://www.w3.org/2000/svg" version="1.1" xmlns:xlink="http://www.w3.org/1999/xlink" xmlns:svgjs="http://svgjs.dev/svgjs" width="100%" height="100%" viewBox="1 1 499 365.70001220703125" preserveAspectRatio="none" data-info="{&quot;_id&quot;:4,&quot;name&quot;:&quot;POLE POCKET SOCCER BANNERS&quot;,&quot;information&quot;:&quot;- Size: 3’x5’\n- Material: heavy duty vinyl banner\n- Digitally printed on vinyl&quot;,&quot;price&quot;:&quot;95.00&quot;,&quot;sale_price&quot;:&quot;89.99&quot;,&quot;type&quot;:&quot;pole-pocket&quot;,&quot;cover&quot;:{&quot;key&quot;:&quot;assets/models/pole-1628062864266-1631924568908.png&quot;,&quot;url&quot;:&quot;https://lct-designs.s3.us-west-1.amazonaws.com/assets/models/pole-1628062864266-1631924568908.png&quot;},&quot;back&quot;:{&quot;key&quot;:&quot;assets/models/pole-1631924700152.svg&quot;,&quot;url&quot;:&quot;https://lct-designs.s3.us-west-1.amazonaws.com/assets/models/pole-1631924700152.svg&quot;},&quot;mask&quot;:{&quot;key&quot;:&quot;assets/models/pole-mask-1631925211715.svg&quot;,&quot;url&quot;:&quot;https://lct-designs.s3.us-west-1.amazonaws.com/assets/models/pole-mask-1631925211715.svg&quot;},&quot;pos&quot;:&quot;2&quot;,&quot;accessories&quot;:&quot;2,3&quot;}" style="background-color: white;"><g class="model" style="pointer-events: none;"><polygon fill="#FFFFFF" points="0.5,0.5 0.5,67.2 0.5,300.5 0.5,367.2 500.5,367.2 500.5,300.5 500.5,67.2 500.5,0.5 "></polygon></g><image width="760" height="557" xlink:href="https://lct-designs.s3.us-west-1.amazonaws.com/assets/libs/asset-2-1655090950129.png" class="asset background locked" transform="matrix(0.6583483163501459,0,0,0.6583483163501459,0,0)"></image><image width="760" height="522" xlink:href="https://lct-designs.s3.us-west-1.amazonaws.com/assets/libs/pirates-2-2-1652072431416.png" class="asset locked" transform="matrix(0.22650820016860965,0,0,0.22650820016860965,12.73366641998291,114.81559753417969)"></image><image width="760" height="686" xlink:href="https://lct-designs.s3.us-west-1.amazonaws.com/assets/libs/pirates-2-1-1652072431416.png" class="asset" transform="matrix(0.04727292433381081,0,0,0.047272924333810806,208.88471984863287,127.41990661621097)"></image><text fill="#000000" font-family="SVN-Zero" font-size="45" stroke-opacity="1" stroke-width="-1" stroke="#000000" x="205.03028911784983" y="199.459545006756" transform="matrix(0.3656951189041138,0,0,0.3656951189041138,158.9394073486328,86.01042938232425)" svgjs:data="{&quot;leading&quot;:&quot;1.3&quot;}"><tspan dy="0" x="205.03028911784983" svgjs:data="{&quot;newLined&quot;:true}">Player</tspan></text><image width="760" height="686" xlink:href="https://lct-designs.s3.us-west-1.amazonaws.com/assets/libs/pirates-2-1-1652072431416.png" class="asset" transform="matrix(0.04727292805910111,0,0,0.047272928059101105,171.6837005615235,86.68218231201172)"></image><text fill="#000000" font-family="SVN-Zero" font-size="45" stroke-opacity="1" stroke-width="-1" stroke="#000000" x="205.03028911784983" y="199.459545006756" transform="matrix(0.3656951189041138,0,0,0.3656951189041138,121.73838043212896,45.27269744873048)" svgjs:data="{&quot;leading&quot;:&quot;1.3&quot;}"><tspan dy="0" x="205.03028911784983" svgjs:data="{&quot;newLined&quot;:true}">Player</tspan></text><image width="760" height="686" xlink:href="https://lct-designs.s3.us-west-1.amazonaws.com/assets/libs/pirates-2-1-1652072431416.png" class="asset" transform="matrix(0.04727292060852051,0,0,0.04727292060852051,204.527572631836,169.89134216308597)"></image><text fill="#000000" font-family="SVN-Zero" font-size="45" stroke-opacity="1" stroke-width="-1" stroke="#000000" x="205.03028911784983" y="199.459545006756" transform="matrix(0.3656951189041138,0,0,0.3656951189041138,154.58226013183594,128.48187255859375)" svgjs:data="{&quot;leading&quot;:&quot;1.3&quot;}"><tspan dy="0" x="205.03028911784983" svgjs:data="{&quot;newLined&quot;:true}">Player</tspan></text><image width="760" height="686" xlink:href="https://lct-designs.s3.us-west-1.amazonaws.com/assets/libs/pirates-2-1-1652072431416.png" class="asset" transform="matrix(0.04727292805910111,0,0,0.047272928059101105,275.40231323242193,213.36155700683597)"></image><text fill="#000000" font-family="SVN-Zero" font-size="45" stroke-opacity="1" stroke-width="-1" stroke="#000000" x="205.03028911784983" y="199.459545006756" transform="matrix(0.3656951189041138,0,0,0.3656951189041138,224.59469604492193,173.67662048339847)" svgjs:data="{&quot;leading&quot;:&quot;1.3&quot;}"><tspan dy="0" x="205.03028911784983" svgjs:data="{&quot;newLined&quot;:true}">Player</tspan></text><text fill="#ffffff" font-family="Antilles Condensed" font-size="45" stroke-opacity="1" stroke-width="2" stroke="#000000" x="25.43553966716624" y="200.94616686344546" transform="matrix(0.5905479788780212,0,0,0.35969579219818115,314.002410888672,13.164156913757324)" svgjs:data="{&quot;leading&quot;:&quot;1.3&quot;}"><tspan dy="0" x="25.43553966716624" svgjs:data="{&quot;newLined&quot;:true}">Coach:coach's name</tspan></text><image width="760" height="686" xlink:href="https://lct-designs.s3.us-west-1.amazonaws.com/assets/libs/pirates-2-1-1652072431416.png" class="asset" transform="matrix(0.047272939234972,0,0,0.047272939234972,174.10319519042974,210.6343688964844)"></image><text fill="#000000" font-family="SVN-Zero" font-size="45" stroke-opacity="1" stroke-width="-1" stroke="#000000" x="205.03028911784983" y="199.459545006756" transform="matrix(0.3656951189041138,0,0,0.3656951189041138,124.15789794921875,169.22488403320315)" svgjs:data="{&quot;leading&quot;:&quot;1.3&quot;}"><tspan dy="0" x="205.03028911784983" svgjs:data="{&quot;newLined&quot;:true}">Player</tspan></text><text fill="#ffffff" font-family="Antilles Condensed" font-size="45" stroke-opacity="1" stroke-width="2" stroke="#000000" x="25.43553966716624" y="200.94616686344546" transform="matrix(0.5905479788780212,0,0,0.35969579219818115,-10.487473487854004,13.16416072845459)" svgjs:data="{&quot;leading&quot;:&quot;1.3&quot;}"><tspan dy="0" x="25.43553966716624" svgjs:data="{&quot;newLined&quot;:true}">team mom:name</tspan></text><image width="380" height="760" xlink:href="https://lct-designs.s3.us-west-1.amazonaws.com/assets/libs/pirates-2-3-1652072431416.png" class="asset" transform="matrix(0.2802388668060303,0,0,0.25676646828651434,378.61697387695324,98.1666259765625)"></image><image width="760" height="686" xlink:href="https://lct-designs.s3.us-west-1.amazonaws.com/assets/libs/pirates-2-1-1652072431416.png" class="asset" transform="matrix(0.04727292060852051,0,0,0.04727292060852051,299.2650299072266,171.37796020507812)"></image><text fill="#000000" font-family="SVN-Zero" font-size="45" stroke-opacity="1" stroke-width="-1" stroke="#000000" x="205.03028911784983" y="199.459545006756" transform="matrix(0.3656951189041138,0,0,0.3656951189041138,249.31971740722662,129.96849060058597)" svgjs:data="{&quot;leading&quot;:&quot;1.3&quot;}"><tspan dy="0" x="205.03028911784983" svgjs:data="{&quot;newLined&quot;:true}">Player</tspan></text><image width="760" height="686" xlink:href="https://lct-designs.s3.us-west-1.amazonaws.com/assets/libs/pirates-2-1-1652072431416.png" class="asset" transform="matrix(0.04727292433381081,0,0,0.047272924333810806,304.1176910400391,128.90652465820312)"></image><text fill="#000000" font-family="SVN-Zero" font-size="45" stroke-opacity="1" stroke-width="-1" stroke="#000000" x="205.03028911784983" y="199.459545006756" transform="matrix(0.3656951189041138,0,0,0.3656951189041138,254.17237854003912,87.4970474243164)" svgjs:data="{&quot;leading&quot;:&quot;1.3&quot;}"><tspan dy="0" x="205.03028911784983" svgjs:data="{&quot;newLined&quot;:true}">Player</tspan></text><image width="760" height="686" xlink:href="https://lct-designs.s3.us-west-1.amazonaws.com/assets/libs/pirates-2-1-1652072431416.png" class="asset" transform="matrix(0.04727292805910111,0,0,0.047272928059101105,266.42111206054693,85.69110107421875)"></image><text fill="#000000" font-family="SVN-Zero" font-size="45" stroke-opacity="1" stroke-width="-1" stroke="#000000" x="205.03028911784983" y="199.459545006756" transform="matrix(0.3656951189041138,0,0,0.3656951189041138,217.4669036865235,44.2816162109375)" svgjs:data="{&quot;leading&quot;:&quot;1.3&quot;}"><tspan dy="0" x="205.03028911784983" svgjs:data="{&quot;newLined&quot;:true}">Player</tspan></text><image width="760" height="686" xlink:href="https://lct-designs.s3.us-west-1.amazonaws.com/assets/libs/pirates-2-1-1652072431416.png" class="asset" transform="matrix(0.047272939234972,0,0,0.047272939234972,42.37859344482425,246.80883789062503)"></image><text fill="#000000" font-family="SVN-Zero" font-size="45" stroke-opacity="1" stroke-width="-1" stroke="#000000" x="205.03028911784983" y="199.459545006756" transform="matrix(0.3656951189041138,0,0,0.3656951189041138,-7.5667037963867045,205.39935302734378)" svgjs:data="{&quot;leading&quot;:&quot;1.3&quot;}"><tspan dy="0" x="205.03028911784983" svgjs:data="{&quot;newLined&quot;:true}">Player</tspan></text><image width="760" height="686" xlink:href="https://lct-designs.s3.us-west-1.amazonaws.com/assets/libs/pirates-2-1-1652072431416.png" class="asset" transform="matrix(0.04727292805910111,0,0,0.047272928059101105,156.56178283691412,253.99589538574222)"></image><text fill="#000000" font-family="SVN-Zero" font-size="45" stroke-opacity="1" stroke-width="-1" stroke="#000000" x="205.03028911784983" y="199.459545006756" transform="matrix(0.3656951189041138,0,0,0.3656951189041138,105.75416564941406,214.31095886230472)" svgjs:data="{&quot;leading&quot;:&quot;1.3&quot;}"><tspan dy="0" x="205.03028911784983" svgjs:data="{&quot;newLined&quot;:true}">Player</tspan></text><g class="mask" style="pointer-events: none;"><g><path fill="#BCBEC0" d="M-3642.4-2101.7v4589.1h7813.4v-4589.1H-3642.4z M500.5,67.2v233.3v66.7H0.5v-66.7V67.2V0.5h500V67.2z" transform="matrix(1,0,0,1,0,0)"></path><g transform="matrix(1,0,0,1,0,0)">
	<rect x="0.5" y="300.5" opacity="0.95" fill="#F1F2F2" width="500" height="66.7"></rect>
	<rect x="0.5" y="0.5" opacity="0.95" fill="#F1F2F2" width="500" height="66.7"></rect>
</g></g></g><text fill="#000000" font-family="SVN-Zero" font-size="45" stroke-opacity="1" stroke-width="-1" stroke="#000000" x="205.03028911784983" y="199.459545006756" transform="matrix(0.3656951189041138,0,0,0.3656951189041138,220.8087768554688,214.31098937988284)" svgjs:data="{&quot;leading&quot;:&quot;1.3&quot;}"><tspan dy="0" x="205.03028911784983" svgjs:data="{&quot;newLined&quot;:true}">Player</tspan></text><image width="760" height="686" xlink:href="https://lct-designs.s3.us-west-1.amazonaws.com/assets/libs/pirates-2-1-1652072431416.png" class="asset" transform="matrix(0.04727292805910111,0,0,0.047272928059101105,271.61639404296875,253.99591064453128)"></image></svg>