<svg xmlns="http://www.w3.org/2000/svg" version="1.1" xmlns:xlink="http://www.w3.org/1999/xlink" xmlns:svgjs="http://svgjs.dev/svgjs" width="100%" height="100%" viewBox="1 1 499 365.70001220703125" preserveAspectRatio="none" data-info="{&quot;_id&quot;:4,&quot;name&quot;:&quot;POLE POCKET SOCCER BANNERS&quot;,&quot;information&quot;:&quot;- Size: 3’x5’\n- Material: heavy duty vinyl banner\n- Digitally printed on vinyl&quot;,&quot;price&quot;:&quot;95.00&quot;,&quot;sale_price&quot;:&quot;89.99&quot;,&quot;type&quot;:&quot;pole-pocket&quot;,&quot;cover&quot;:{&quot;key&quot;:&quot;assets/models/pole-1628062864266-1631924568908.png&quot;,&quot;url&quot;:&quot;https://lct-designs.s3.us-west-1.amazonaws.com/assets/models/pole-1628062864266-1631924568908.png&quot;},&quot;back&quot;:{&quot;key&quot;:&quot;assets/models/pole-1631924700152.svg&quot;,&quot;url&quot;:&quot;https://lct-designs.s3.us-west-1.amazonaws.com/assets/models/pole-1631924700152.svg&quot;},&quot;mask&quot;:{&quot;key&quot;:&quot;assets/models/pole-mask-1631925211715.svg&quot;,&quot;url&quot;:&quot;https://lct-designs.s3.us-west-1.amazonaws.com/assets/models/pole-mask-1631925211715.svg&quot;},&quot;pos&quot;:&quot;2&quot;,&quot;accessories&quot;:&quot;2,3&quot;}" style="background-color: white;"><g class="model" style="pointer-events: none;"><polygon fill="#FFFFFF" points="0.5,0.5 0.5,67.2 0.5,300.5 0.5,367.2 500.5,367.2 500.5,300.5 500.5,67.2 500.5,0.5 "></polygon></g><image width="760" height="556" xlink:href="https://lct-designs.s3.us-west-1.amazonaws.com/assets/libs/zombies-toxic-soccer-1653891764396.png" class="asset background locked" transform="matrix(0.6595323960558116,0,0,0.6595323960558116,0,0)"></image><text fill="#ffffff" font-family="American Captain" font-size="45" stroke-opacity="1" stroke-width="2" stroke="#2d5c2d" x="196.88588543811736" y="200.19087427705915" transform="matrix(0.6469953656196594,0,0,0.6230542659759521,-68.15942764282227,104.89485168457031)" svgjs:data="{&quot;leading&quot;:&quot;1.3&quot;}"><tspan dy="0" x="196.88588543811736" svgjs:data="{&quot;newLined&quot;:true}">player</tspan></text><image width="760" height="572" xlink:href="https://lct-designs.s3.us-west-1.amazonaws.com/assets/libs/zombies-toxic-soccer-1653891935062.png" class="asset" transform="matrix(0.06401824206113815,0,0,0.06164933368563651,140.74424362182617,201.96899414062497)"></image><text fill="#ffffff" font-family="American Captain" font-size="45" stroke-opacity="1" stroke-width="2" stroke="#2d5c2d" x="196.88588543811736" y="200.19087427705915" transform="matrix(0.6469953656196594,0,0,0.6230542659759521,69.84138107299802,106.9548110961914)" svgjs:data="{&quot;leading&quot;:&quot;1.3&quot;}"><tspan dy="0" x="196.88588543811736" svgjs:data="{&quot;newLined&quot;:true}">player</tspan></text><image width="760" height="572" xlink:href="https://lct-designs.s3.us-west-1.amazonaws.com/assets/libs/zombies-toxic-soccer-1653891935062.png" class="asset" transform="matrix(0.06401824206113815,0,0,0.06164933368563651,312.4715995788574,198.7597503662109)"></image><text fill="#ffffff" font-family="American Captain" font-size="45" stroke-opacity="1" stroke-width="2" stroke="#2d5c2d" x="196.88588543811736" y="200.19087427705915" transform="matrix(0.6469953656196594,0,0,0.6230542659759521,240.88775253295898,102.16417694091794)" svgjs:data="{&quot;leading&quot;:&quot;1.3&quot;}"><tspan dy="0" x="196.88588543811736" svgjs:data="{&quot;newLined&quot;:true}">player</tspan></text><image width="760" height="572" xlink:href="https://lct-designs.s3.us-west-1.amazonaws.com/assets/libs/zombies-toxic-soccer-1653891935062.png" class="asset" transform="matrix(0.06401824206113815,0,0,0.06164933368563651,4.573793411254883,198.49198913574216)"></image><text fill="#ffffff" font-family="American Captain" font-size="45" stroke-opacity="1" stroke-width="2" stroke="#2d5c2d" x="196.88588543811736" y="200.19087427705915" transform="matrix(0.6469953656196594,0,0,0.6230542659759521,156.50356674194336,143.00398254394528)" svgjs:data="{&quot;leading&quot;:&quot;1.3&quot;}"><tspan dy="0" x="196.88588543811736" svgjs:data="{&quot;newLined&quot;:true}">player</tspan></text><image width="760" height="572" xlink:href="https://lct-designs.s3.us-west-1.amazonaws.com/assets/libs/zombies-toxic-soccer-1653891935062.png" class="asset" transform="matrix(0.06401824206113815,0,0,0.06164933368563651,61.59902572631836,237.82084655761716)"></image><text fill="#ffffff" font-family="American Captain" font-size="45" stroke-opacity="1" stroke-width="2" stroke="#2d5c2d" x="196.88588543811736" y="200.19087427705915" transform="matrix(0.6469953656196594,0,0,0.6230542659759521,-12.421422958374052,143.19869995117188)" svgjs:data="{&quot;leading&quot;:&quot;1.3&quot;}"><tspan dy="0" x="196.88588543811736" svgjs:data="{&quot;newLined&quot;:true}">player</tspan></text><image width="760" height="572" xlink:href="https://lct-designs.s3.us-west-1.amazonaws.com/assets/libs/zombies-toxic-soccer-1653891935062.png" class="asset" transform="matrix(0.06401824206113815,0,0,0.06164933368563651,230.52401351928705,237.6261291503906)"></image><image width="760" height="572" xlink:href="https://lct-designs.s3.us-west-1.amazonaws.com/assets/libs/zombies-toxic-soccer-1653891935062.png" class="asset" transform="matrix(0.06401824206113815,0,0,0.06164933368563651,369.3276786804199,237.11114501953122)"></image><text fill="#ffffff" font-family="American Captain" font-size="45" stroke-opacity="1" stroke-width="2" stroke="#2d5c2d" x="196.88588543811736" y="200.19087427705915" transform="matrix(0.6469953656196594,0,0,0.6230542659759521,295.3072319030761,142.4889984130859)" svgjs:data="{&quot;leading&quot;:&quot;1.3&quot;}"><tspan dy="0" x="196.88588543811736" svgjs:data="{&quot;newLined&quot;:true}">player</tspan></text><text fill="#ffffff" font-family="American Captain" font-size="45" stroke-opacity="1" stroke-width="2" stroke="#2d5c2d" x="151.30370922962126" y="200.19087427705915" transform="matrix(0.4124803841114044,0,0,0.41248038411140436,308.4419860839844,210.2180480957031)" svgjs:data="{&quot;leading&quot;:&quot;1.3&quot;}"><tspan dy="0" x="151.30370922962126" svgjs:data="{&quot;newLined&quot;:true}">coach:coach's name</tspan></text><text fill="#ffffff" font-family="American Captain" font-size="45" stroke-opacity="1" stroke-width="2" stroke="#2d5c2d" x="151.30370922962126" y="200.19087427705915" transform="matrix(0.4124803841114044,0,0,0.41248038411140436,-53.24339675903323,210.77197265624997)" svgjs:data="{&quot;leading&quot;:&quot;1.3&quot;}"><tspan dy="0" x="151.30370922962126" svgjs:data="{&quot;newLined&quot;:true}">Team mom: name</tspan></text><image width="760" height="359" xlink:href="https://lct-designs.s3.us-west-1.amazonaws.com/assets/libs/asset-5-1655869570055.png" class="asset" transform="matrix(0.31791910529136663,0,0,0.3179191052913666,129.68914794921878,75.98522186279297)"></image><g class="mask" style="pointer-events: none;"><g><path fill="#BCBEC0" d="M-3642.4-2101.7v4589.1h7813.4v-4589.1H-3642.4z M500.5,67.2v233.3v66.7H0.5v-66.7V67.2V0.5h500V67.2z" transform="matrix(1,0,0,1,0,0)"></path><g transform="matrix(1,0,0,1,0,0)">
	<rect x="0.5" y="300.5" opacity="0.95" fill="#F1F2F2" width="500" height="66.7"></rect>
	<rect x="0.5" y="0.5" opacity="0.95" fill="#F1F2F2" width="500" height="66.7"></rect>
</g></g></g></svg>