<svg xmlns="http://www.w3.org/2000/svg" version="1.1" xmlns:xlink="http://www.w3.org/1999/xlink" xmlns:svgjs="http://svgjs.dev/svgjs" width="100%" height="100%" viewBox="1 1 499 365.70001220703125" preserveAspectRatio="none" data-info="{&quot;_id&quot;:4,&quot;name&quot;:&quot;POLE POCKET SOCCER BANNERS&quot;,&quot;information&quot;:&quot;- Size: 3’x5’\n- Material: heavy duty vinyl banner\n- Digitally printed on vinyl&quot;,&quot;price&quot;:&quot;95.00&quot;,&quot;sale_price&quot;:&quot;89.99&quot;,&quot;type&quot;:&quot;pole-pocket&quot;,&quot;cover&quot;:{&quot;key&quot;:&quot;assets/models/pole-1628062864266-1631924568908.png&quot;,&quot;url&quot;:&quot;https://lct-designs.s3.us-west-1.amazonaws.com/assets/models/pole-1628062864266-1631924568908.png&quot;},&quot;back&quot;:{&quot;key&quot;:&quot;assets/models/pole-1631924700152.svg&quot;,&quot;url&quot;:&quot;https://lct-designs.s3.us-west-1.amazonaws.com/assets/models/pole-1631924700152.svg&quot;},&quot;mask&quot;:{&quot;key&quot;:&quot;assets/models/pole-mask-1631925211715.svg&quot;,&quot;url&quot;:&quot;https://lct-designs.s3.us-west-1.amazonaws.com/assets/models/pole-mask-1631925211715.svg&quot;},&quot;pos&quot;:&quot;2&quot;,&quot;accessories&quot;:&quot;2,3&quot;}" style="background-color: white;"><g class="model" style="pointer-events: none;"><polygon fill="#FFFFFF" points="0.5,0.5 0.5,67.2 0.5,300.5 0.5,367.2 500.5,367.2 500.5,300.5 500.5,67.2 500.5,0.5 "></polygon></g><image width="760" height="556" xlink:href="https://lct-designs.s3.us-west-1.amazonaws.com/assets/libs/poison-pink-5-1652078868329.png" class="asset background locked" transform="matrix(0.6595323960558116,0,0,0.6595323960558116,0,0)"></image><image width="760" height="149" xlink:href="https://lct-designs.s3.us-west-1.amazonaws.com/assets/libs/poison-pink-3-1652078503616.png" class="asset" transform="matrix(0.40427431464195257,0,0,0.4042743146419525,74.06328582763675,99.71182250976562)"></image><image width="476" height="760" xlink:href="https://lct-designs.s3.us-west-1.amazonaws.com/assets/libs/poison-pink-4-1652078503616.png" class="asset" transform="matrix(0.17461112141609195,0,0,0.17461112141609192,211.0499114990235,153.17161560058597)"></image><text fill="#ffffff" font-family="Raider Crusader Straight" font-size="45" stroke-opacity="1" stroke-width="0" stroke="#000000" x="165.2205662174592" y="202.4327887201349" transform="matrix(0.4195310473442078,0,0,0.41953104734420776,33.60886764526367,104.1962890625)" svgjs:data="{&quot;leading&quot;:&quot;1.3&quot;}"><tspan dy="0" x="165.2205662174592" svgjs:data="{&quot;newLined&quot;:true}">Player</tspan></text><image width="562" height="760" xlink:href="https://lct-designs.s3.us-west-1.amazonaws.com/assets/libs/poison-pink-2-1652078503616.png" class="asset" transform="matrix(0.07485340535640718,0,0,0.07485340535640717,60.565563201904325,141.77420043945312)"></image><text fill="#ffffff" font-family="Raider Crusader Straight" font-size="45" stroke-opacity="1" stroke-width="0" stroke="#000000" x="165.2205662174592" y="202.4327887201349" transform="matrix(0.4195310473442078,0,0,0.41953104734420776,-17.342618942260742,152.26370239257815)" svgjs:data="{&quot;leading&quot;:&quot;1.3&quot;}"><tspan dy="0" x="165.2205662174592" svgjs:data="{&quot;newLined&quot;:true}">Player</tspan></text><image width="562" height="760" xlink:href="https://lct-designs.s3.us-west-1.amazonaws.com/assets/libs/poison-pink-2-1652078503616.png" class="asset" transform="matrix(0.07485345005989075,0,0,0.07485345005989076,14.56948471069336,184.88621520996097)"></image><text fill="#ffffff" font-family="Raider Crusader Straight" font-size="45" stroke-opacity="1" stroke-width="0" stroke="#000000" x="165.2205662174592" y="202.4327887201349" transform="matrix(0.4195310473442078,0,0,0.41953104734420776,31.805072784423828,194.3846588134766)" svgjs:data="{&quot;leading&quot;:&quot;1.3&quot;}"><tspan dy="0" x="165.2205662174592" svgjs:data="{&quot;newLined&quot;:true}">Player</tspan></text><image width="562" height="760" xlink:href="https://lct-designs.s3.us-west-1.amazonaws.com/assets/libs/poison-pink-2-1652078503616.png" class="asset" transform="matrix(0.07485350966453554,0,0,0.07485350966453552,55.78852844238284,233.9447326660156)"></image><image width="562" height="760" xlink:href="https://lct-designs.s3.us-west-1.amazonaws.com/assets/libs/poison-pink-2-1652078503616.png" class="asset" transform="matrix(0.07485354691743852,0,0,0.07485354691743851,119.30690765380862,198.26582336425778)"></image><text fill="#ffffff" font-family="Raider Crusader Straight" font-size="45" stroke-opacity="1" stroke-width="0" stroke="#000000" x="165.2205662174592" y="202.4327887201349" transform="matrix(0.4195310473442078,0,0,0.41953104734420776,88.38588714599612,164.1566925048828)" svgjs:data="{&quot;leading&quot;:&quot;1.3&quot;}"><tspan dy="0" x="165.2205662174592" svgjs:data="{&quot;newLined&quot;:true}">Player</tspan></text><text fill="#ffffff" font-family="Raider Crusader Straight" font-size="45" stroke-opacity="1" stroke-width="0" stroke="#000000" x="165.2205662174592" y="202.4327887201349" transform="matrix(0.4195310473442078,0,0,0.41953104734420776,366.47335815429693,170.59872436523438)" svgjs:data="{&quot;leading&quot;:&quot;1.3&quot;}"><tspan dy="0" x="165.2205662174592" svgjs:data="{&quot;newLined&quot;:true}">Player</tspan></text><text fill="#ffffff" font-family="Raider Crusader Straight" font-size="45" stroke-opacity="1" stroke-width="0" stroke="#000000" x="165.2205662174592" y="202.4327887201349" transform="matrix(0.4195310473442078,0,0,0.41953104734420776,311.69633102417,110.63832092285156)" svgjs:data="{&quot;leading&quot;:&quot;1.3&quot;}"><tspan dy="0" x="165.2205662174592" svgjs:data="{&quot;newLined&quot;:true}">Player</tspan></text><image width="562" height="760" xlink:href="https://lct-designs.s3.us-west-1.amazonaws.com/assets/libs/poison-pink-2-1652078503616.png" class="asset" transform="matrix(-0.07460482418537141,0,0,0.07028931379318239,382.7561340332031,144.7474517822266)"></image><text fill="#ffffff" font-family="Raider Crusader Straight" font-size="45" stroke-opacity="1" stroke-width="0" stroke="#000000" x="165.2205662174592" y="202.4327887201349" transform="matrix(0.4195310473442078,0,0,0.41953104734420776,260.74484252929693,147.80384826660156)" svgjs:data="{&quot;leading&quot;:&quot;1.3&quot;}"><tspan dy="0" x="165.2205662174592" svgjs:data="{&quot;newLined&quot;:true}">Player</tspan></text><image width="562" height="760" xlink:href="https://lct-designs.s3.us-west-1.amazonaws.com/assets/libs/poison-pink-2-1652078503616.png" class="asset" transform="matrix(-0.0746048614382744,0,0,0.07028931379318239,331.3091125488281,185.38179016113284)"></image><text fill="#ffffff" font-family="Raider Crusader Straight" font-size="45" stroke-opacity="1" stroke-width="0" stroke="#000000" x="165.2205662174592" y="202.4327887201349" transform="matrix(0.4195310473442078,0,0,0.41953104734420776,309.89254760742193,200.82669067382815)" svgjs:data="{&quot;leading&quot;:&quot;1.3&quot;}"><tspan dy="0" x="165.2205662174592" svgjs:data="{&quot;newLined&quot;:true}">Player</tspan></text><image width="562" height="760" xlink:href="https://lct-designs.s3.us-west-1.amazonaws.com/assets/libs/poison-pink-2-1652078503616.png" class="asset" transform="matrix(-0.07460484653711319,0,0,0.07028931379318239,437.35476684570324,205.69894409179685)"></image><image width="562" height="760" xlink:href="https://lct-designs.s3.us-west-1.amazonaws.com/assets/libs/poison-pink-2-1652078503616.png" class="asset" transform="matrix(-0.0746048539876938,0,0,0.07028931379318239,382.4389648437501,237.4135437011719)"></image><g class="mask" style="pointer-events: none;"><g><path fill="#BCBEC0" d="M-3642.4-2101.7v4589.1h7813.4v-4589.1H-3642.4z M500.5,67.2v233.3v66.7H0.5v-66.7V67.2V0.5h500V67.2z" transform="matrix(1,0,0,1,0,0)"></path><g transform="matrix(1,0,0,1,0,0)">
	<rect x="0.5" y="300.5" opacity="0.95" fill="#F1F2F2" width="500" height="66.7"></rect>
	<rect x="0.5" y="0.5" opacity="0.95" fill="#F1F2F2" width="500" height="66.7"></rect>
</g></g></g><text fill="#ffffff" font-family="Raider Crusader Straight" font-size="45" x="89.01185256675578" y="198.96400438785952" transform="matrix(0.34524658322334295,0,0,0.34524658322334295,-26.946071624755845,15.57038784027101)" svgjs:data="{&quot;leading&quot;:&quot;1.3&quot;}"><tspan dy="0" x="89.01185256675578" svgjs:data="{&quot;newLined&quot;:true}">team mom: name</tspan></text><text fill="#ffffff" font-family="Raider Crusader Straight" font-size="45" x="89.01185256675578" y="198.96400438785952" transform="matrix(0.34524658322334295,0,0,0.34524658322334295,325.96801757812506,15.57038688659668)" svgjs:data="{&quot;leading&quot;:&quot;1.3&quot;}"><tspan dy="0" x="89.01185256675578" svgjs:data="{&quot;newLined&quot;:true}">Coach: Coach's name</tspan></text></svg>