<svg xmlns="http://www.w3.org/2000/svg" version="1.1" xmlns:xlink="http://www.w3.org/1999/xlink" xmlns:svgjs="http://svgjs.dev/svgjs" width="100%" height="100%" viewBox="1 1 499 299" preserveAspectRatio="none" data-info="{&quot;_id&quot;:1,&quot;name&quot;:&quot;HEM &amp; GROMMETS&quot;,&quot;price&quot;:&quot;95.00&quot;,&quot;sale_price&quot;:&quot;89.99&quot;,&quot;cover&quot;:{&quot;key&quot;:&quot;assets/models/hem-1628062436886-1630830942566.png&quot;,&quot;url&quot;:&quot;https://lct-designs.s3.us-west-1.amazonaws.com/assets/models/hem-1628062436886-1630830942566.png&quot;},&quot;back&quot;:{&quot;key&quot;:&quot;assets/models/hem-1630831057346.svg&quot;,&quot;url&quot;:&quot;https://lct-designs.s3.us-west-1.amazonaws.com/assets/models/hem-1630831057346.svg&quot;},&quot;mask&quot;:{&quot;key&quot;:&quot;assets/models/hem.mask-1630831063496.svg&quot;,&quot;url&quot;:&quot;https://lct-designs.s3.us-west-1.amazonaws.com/assets/models/hem.mask-1630831063496.svg&quot;},&quot;information&quot;:&quot;Size 3'x5'&quot;,&quot;type&quot;:&quot;hem-grommet&quot;,&quot;pos&quot;:&quot;1&quot;,&quot;accessories&quot;:&quot;2,3&quot;,&quot;width&quot;:&quot;60&quot;,&quot;height&quot;:&quot;36&quot;}" style="background-color: white;"><g class="model" style="pointer-events: none;"><rect x="0.5" y="0.5" fill="none" stroke="#000000" stroke-miterlimit="10" width="500" height="300"></rect></g><image width="760" height="455" xlink:href="https://lct-designs.s3.us-west-1.amazonaws.com/assets/libs/batman-1632133656703.png" class="asset background locked" transform="matrix(0.6593406593406593,0,0,0.6593406593406593,0,0)"></image><image width="760" height="381" xlink:href="https://lct-designs.s3.us-west-1.amazonaws.com/assets/libs/batman-1632317577868.png" class="asset" transform="matrix(0.4633295536041259,0,0,0.4633295536041259,69.3108139038086,22.331476211547848)"></image><text fill="#ffffff" font-family="Impact" font-size="16" x="151.5859399176843" y="156.74218075738105" transform="matrix(0.8889910578727722,0,0,0.8889910578727722,173.55404663085938,-118.71135604381561)" svgjs:data="{&quot;leading&quot;:&quot;1.3&quot;}"><tspan dy="0" x="151.5859399176843" svgjs:data="{&quot;newLined&quot;:true}">Team mom: Team mom's name</tspan></text><text fill="#ffffff" font-family="Impact" font-size="16" x="178.9140649176843" y="156.93749325738105" transform="matrix(0.8889910578727722,0,0,0.8889910578727722,-142.7751007080078,-118.8849858045578)" svgjs:data="{&quot;leading&quot;:&quot;1.3&quot;}"><tspan dy="0" x="178.9140649176843" svgjs:data="{&quot;newLined&quot;:true}">Coach: Coach's name</tspan></text><image width="760" height="760" xlink:href="https://lct-designs.s3.us-west-1.amazonaws.com/assets/libs/annihilators2-1631959777575.png" class="asset" transform="matrix(0.042775463312864304,0,0,0.042775463312864304,24.99958801269532,41.87146377563478)"></image><text fill="#ffffff" font-family="GMV DIN Pro Cond" font-size="16" x="233.1640649176843" y="156.93749325738105" transform="matrix(0.9999999999999999,0,0,1,-209.24574279785153,-71.39277648925781)" svgjs:data="{&quot;leading&quot;:&quot;1.3&quot;}"><tspan dy="0" x="233.1640649176843" svgjs:data="{&quot;newLined&quot;:true}">Player</tspan></text><text fill="#ffffff" font-family="GMV DIN Pro Cond" font-size="16" x="233.1640649176843" y="156.93749325738105" transform="matrix(0.9999999999999999,0,0,1,-209.24574279785153,5.851860046386722)" svgjs:data="{&quot;leading&quot;:&quot;1.3&quot;}"><tspan dy="0" x="233.1640649176843" svgjs:data="{&quot;newLined&quot;:true}">Player</tspan></text><image width="760" height="760" xlink:href="https://lct-designs.s3.us-west-1.amazonaws.com/assets/libs/annihilators2-1631959777575.png" class="asset" transform="matrix(0.042775463312864304,0,0,0.042775463312864304,24.99958419799804,119.11609649658203)"></image><text fill="#ffffff" font-family="GMV DIN Pro Cond" font-size="16" x="233.1640649176843" y="156.93749325738105" transform="matrix(0.9999999999999999,0,0,1,-208.85560607910156,89.72861480712889)" svgjs:data="{&quot;leading&quot;:&quot;1.3&quot;}"><tspan dy="0" x="233.1640649176843" svgjs:data="{&quot;newLined&quot;:true}">Player</tspan></text><image width="760" height="760" xlink:href="https://lct-designs.s3.us-west-1.amazonaws.com/assets/libs/annihilators2-1631959777575.png" class="asset" transform="matrix(0.042775463312864304,0,0,0.042775463312864304,25.389709472656257,201.4323425292969)"></image><image width="760" height="760" xlink:href="https://lct-designs.s3.us-west-1.amazonaws.com/assets/libs/annihilators2-1631959777575.png" class="asset" transform="matrix(0.042775463312864304,0,0,0.042775463312864304,445.4026947021484,39.920841217041016)"></image><text fill="#ffffff" font-family="GMV DIN Pro Cond" font-size="16" x="233.1640649176843" y="156.93749325738105" transform="matrix(0.9999999999999999,0,0,1,211.1573638916015,-73.34339904785156)" svgjs:data="{&quot;leading&quot;:&quot;1.3&quot;}"><tspan dy="0" x="233.1640649176843" svgjs:data="{&quot;newLined&quot;:true}">Player</tspan></text><text fill="#ffffff" font-family="GMV DIN Pro Cond" font-size="16" x="233.1640649176843" y="156.93749325738105" transform="matrix(0.9999999999999999,0,0,1,211.1573638916015,3.901237487792965)" svgjs:data="{&quot;leading&quot;:&quot;1.3&quot;}"><tspan dy="0" x="233.1640649176843" svgjs:data="{&quot;newLined&quot;:true}">Player</tspan></text><image width="760" height="760" xlink:href="https://lct-designs.s3.us-west-1.amazonaws.com/assets/libs/annihilators2-1631959777575.png" class="asset" transform="matrix(0.042775463312864304,0,0,0.042775463312864304,445.4026908874512,117.16547393798831)"></image><text fill="#ffffff" font-family="GMV DIN Pro Cond" font-size="16" x="233.1640649176843" y="156.93749325738105" transform="matrix(0.9999999999999999,0,0,1,211.1573638916015,86.21749114990234)" svgjs:data="{&quot;leading&quot;:&quot;1.3&quot;}"><tspan dy="0" x="233.1640649176843" svgjs:data="{&quot;newLined&quot;:true}">Player</tspan></text><image width="760" height="760" xlink:href="https://lct-designs.s3.us-west-1.amazonaws.com/assets/libs/annihilators2-1631959777575.png" class="asset" transform="matrix(0.042775463312864304,0,0,0.042775463312864304,445.4026908874512,199.48171997070312)"></image><text fill="#ffffff" font-family="GMV DIN Pro Cond" font-size="16" x="233.1640649176843" y="156.93749325738105" transform="matrix(0.9999999999999999,0,0,1,-131.7554779052734,98.1162796020508)" svgjs:data="{&quot;leading&quot;:&quot;1.3&quot;}"><tspan dy="0" x="233.1640649176843" svgjs:data="{&quot;newLined&quot;:true}">Player</tspan></text><text fill="#ffffff" font-family="GMV DIN Pro Cond" font-size="16" x="233.1640649176843" y="156.93749325738105" transform="matrix(0.9999999999999999,0,0,1,-37.88032531738281,97.72615814208984)" svgjs:data="{&quot;leading&quot;:&quot;1.3&quot;}"><tspan dy="0" x="233.1640649176843" svgjs:data="{&quot;newLined&quot;:true}">Player</tspan></text><image width="760" height="760" xlink:href="https://lct-designs.s3.us-west-1.amazonaws.com/assets/libs/annihilators2-1631959777575.png" class="asset" transform="matrix(0.042775463312864304,0,0,0.042775463312864304,196.36499023437497,209.42987060546875)"></image><text fill="#ffffff" font-family="GMV DIN Pro Cond" font-size="16" x="233.1640649176843" y="156.93749325738105" transform="matrix(0.9999999999999999,0,0,1,55.21461486816407,98.11627197265625)" svgjs:data="{&quot;leading&quot;:&quot;1.3&quot;}"><tspan dy="0" x="233.1640649176843" svgjs:data="{&quot;newLined&quot;:true}">Player</tspan></text><text fill="#ffffff" font-family="GMV DIN Pro Cond" font-size="16" x="233.1640649176843" y="156.93749325738105" transform="matrix(0.9999999999999999,0,0,1,135.82579040527344,98.11626434326172)" svgjs:data="{&quot;leading&quot;:&quot;1.3&quot;}"><tspan dy="0" x="233.1640649176843" svgjs:data="{&quot;newLined&quot;:true}">Player</tspan></text><image width="760" height="760" xlink:href="https://lct-designs.s3.us-west-1.amazonaws.com/assets/libs/annihilators2-1631959777575.png" class="asset" transform="matrix(0.042775463312864304,0,0,0.042775463312864304,102.48983764648435,209.8199920654297)"></image><image width="760" height="760" xlink:href="https://lct-designs.s3.us-west-1.amazonaws.com/assets/libs/annihilators2-1631959777575.png" class="asset" transform="matrix(0.042775463312864304,0,0,0.042775463312864304,289.4599304199218,209.82000732421875)"></image><image width="760" height="760" xlink:href="https://lct-designs.s3.us-west-1.amazonaws.com/assets/libs/annihilators2-1631959777575.png" class="asset" transform="matrix(0.042775463312864304,0,0,0.042775463312864304,370.07110595703125,209.82000732421875)"></image><g class="mask" style="pointer-events: none;"><path fill="#777777" enable-background="new    " d="M-1684.9-1014.6v2330.1h3870.8v-2330.1H-1684.9z M500.5,300.5H0.5V0.5h500
	V300.5z"></path></g></svg>