<svg xmlns="http://www.w3.org/2000/svg" version="1.1" xmlns:xlink="http://www.w3.org/1999/xlink" xmlns:svgjs="http://svgjs.dev/svgjs" width="100%" height="100%" viewBox="1 1 499 365.70001220703125" preserveAspectRatio="none" data-info="{&quot;_id&quot;:4,&quot;name&quot;:&quot;POLE POCKET SOCCER BANNERS&quot;,&quot;information&quot;:&quot;- Size: 3’x5’\n- Material: heavy duty vinyl banner\n- Digitally printed on vinyl&quot;,&quot;price&quot;:&quot;95.00&quot;,&quot;sale_price&quot;:&quot;89.99&quot;,&quot;type&quot;:&quot;pole-pocket&quot;,&quot;cover&quot;:{&quot;key&quot;:&quot;assets/models/pole-1628062864266-1631924568908.png&quot;,&quot;url&quot;:&quot;https://lct-designs.s3.us-west-1.amazonaws.com/assets/models/pole-1628062864266-1631924568908.png&quot;},&quot;back&quot;:{&quot;key&quot;:&quot;assets/models/pole-1631924700152.svg&quot;,&quot;url&quot;:&quot;https://lct-designs.s3.us-west-1.amazonaws.com/assets/models/pole-1631924700152.svg&quot;},&quot;mask&quot;:{&quot;key&quot;:&quot;assets/models/pole-mask-1631925211715.svg&quot;,&quot;url&quot;:&quot;https://lct-designs.s3.us-west-1.amazonaws.com/assets/models/pole-mask-1631925211715.svg&quot;},&quot;pos&quot;:&quot;2&quot;,&quot;accessories&quot;:&quot;2,3&quot;}" style="background-color: white;"><g class="model" style="pointer-events: none;"><polygon fill="#FFFFFF" points="0.5,0.5 0.5,67.2 0.5,300.5 0.5,367.2 500.5,367.2 500.5,300.5 500.5,67.2 500.5,0.5 "></polygon></g><image width="760" height="556" xlink:href="https://lct-designs.s3.us-west-1.amazonaws.com/assets/libs/seagulls-6-1655452965212.png" class="asset background locked" transform="matrix(0.6595323960558116,0,0,0.6595323960558116,0,0)"></image><text fill="#000000" font-family="Impact" font-size="45" x="196.88127233350318" y="200.48091056834267" stroke-opacity="1" stroke-width="1" stroke="#ffffff" transform="matrix(0.30149796605110174,0,0,0.3014979660511017,-50.29993522167206,25.016334533691406)" svgjs:data="{&quot;leading&quot;:&quot;1.3&quot;}"><tspan dy="0" x="196.88127233350318" svgjs:data="{&quot;newLined&quot;:true}">COACH: COACH'S NAME</tspan></text><text fill="#000000" font-family="Impact" font-size="45" x="196.88127233350318" y="200.48091056834267" stroke-opacity="1" stroke-width="1" stroke="#ffffff" transform="matrix(0.3115456998348236,0,0,0.3115456998348236,262.96094810962677,23.00196266174318)" svgjs:data="{&quot;leading&quot;:&quot;1.3&quot;}"><tspan dy="0" x="196.88127233350318" svgjs:data="{&quot;newLined&quot;:true}">TEAM MOM: TEAM MOM'S NAME</tspan></text><text fill="#ffffff" font-family="Impact" font-size="45" x="196.88127233350318" y="200.48091056834267" stroke-opacity="1" stroke-width="2" stroke="#2f66af" transform="matrix(0.36438390612602234,0,0,0.36438390612602234,51.384037017822266,78.13495635986332)" svgjs:data="{&quot;leading&quot;:&quot;1.3&quot;}"><tspan dy="0" x="196.88127233350318" svgjs:data="{&quot;newLined&quot;:true}">PLAYER</tspan></text><text fill="#ffffff" font-family="Impact" font-size="45" x="196.88127233350318" y="200.48091056834267" stroke-opacity="1" stroke-width="2" stroke="#2f66af" transform="matrix(0.36438390612602234,0,0,0.36438390612602234,49.90174865722658,214.5474395751953)" svgjs:data="{&quot;leading&quot;:&quot;1.3&quot;}"><tspan dy="0" x="196.88127233350318" svgjs:data="{&quot;newLined&quot;:true}">PLAYER</tspan></text><text fill="#ffffff" font-family="Impact" font-size="45" x="196.88127233350318" y="200.48091056834267" stroke-opacity="1" stroke-width="2" stroke="#2f66af" transform="matrix(0.36438390612602234,0,0,0.36438390612602234,150.33140563964844,214.5474395751953)" svgjs:data="{&quot;leading&quot;:&quot;1.3&quot;}"><tspan dy="0" x="196.88127233350318" svgjs:data="{&quot;newLined&quot;:true}">PLAYER</tspan></text><image width="760" height="760" xlink:href="https://lct-designs.s3.us-west-1.amazonaws.com/assets/libs/seagulls-3-1655452965214.png" class="asset" transform="matrix(0.04980089887976647,0,0,0.049800898879766464,225.9554901123047,232.97412109375)"></image><image width="760" height="760" xlink:href="https://lct-designs.s3.us-west-1.amazonaws.com/assets/libs/seagulls-3-1655452965214.png" class="asset" transform="matrix(0.04980089887976647,0,0,0.049800898879766464,125.52581787109375,232.97413635253906)"></image><text fill="#ffffff" font-family="Impact" font-size="45" x="196.88127233350318" y="200.48091056834267" stroke-opacity="1" stroke-width="2" stroke="#2f66af" transform="matrix(0.36438390612602234,0,0,0.36438390612602234,149.46136474609372,78.13495635986332)" svgjs:data="{&quot;leading&quot;:&quot;1.3&quot;}"><tspan dy="0" x="196.88127233350318" svgjs:data="{&quot;newLined&quot;:true}">PLAYER</tspan></text><text fill="#ffffff" font-family="Impact" font-size="45" x="196.88127233350318" y="200.48091056834267" stroke-opacity="1" stroke-width="2" stroke="#2f66af" transform="matrix(0.36438390612602234,0,0,0.36438390612602234,249.8910369873047,78.13495635986332)" svgjs:data="{&quot;leading&quot;:&quot;1.3&quot;}"><tspan dy="0" x="196.88127233350318" svgjs:data="{&quot;newLined&quot;:true}">PLAYER</tspan></text><text fill="#ffffff" font-family="Impact" font-size="45" x="196.88127233350318" y="200.48091056834267" stroke-opacity="1" stroke-width="2" stroke="#2f66af" transform="matrix(0.36438390612602234,0,0,0.36438390612602234,347.9683837890625,78.1349639892578)" svgjs:data="{&quot;leading&quot;:&quot;1.3&quot;}"><tspan dy="0" x="196.88127233350318" svgjs:data="{&quot;newLined&quot;:true}">PLAYER</tspan></text><image width="760" height="760" xlink:href="https://lct-designs.s3.us-west-1.amazonaws.com/assets/libs/seagulls-3-1655452965214.png" class="asset" transform="matrix(0.04980089887976647,0,0,0.049800898879766464,325.5151062011719,96.56163024902345)"></image><image width="760" height="760" xlink:href="https://lct-designs.s3.us-west-1.amazonaws.com/assets/libs/seagulls-3-1655452965214.png" class="asset" transform="matrix(0.04980089887976647,0,0,0.049800898879766464,423.5924377441406,96.56163787841798)"></image><image width="760" height="760" xlink:href="https://lct-designs.s3.us-west-1.amazonaws.com/assets/libs/seagulls-3-1655452965214.png" class="asset" transform="matrix(0.04980089887976647,0,0,0.049800898879766464,225.08543395996094,96.56165313720705)"></image><image width="760" height="760" xlink:href="https://lct-designs.s3.us-west-1.amazonaws.com/assets/libs/seagulls-3-1655452965214.png" class="asset" transform="matrix(0.04980089887976647,0,0,0.049800898879766464,127.00809478759768,96.56162261962889)"></image><image width="760" height="686" xlink:href="https://lct-designs.s3.us-west-1.amazonaws.com/assets/libs/seagulls-4-1655452965213.png" class="asset" transform="matrix(0.19499139487743378,0,0,0.19499139487743378,330.6458435058594,158.62660217285156)"></image><image width="496" height="760" xlink:href="https://lct-designs.s3.us-west-1.amazonaws.com/assets/libs/seagulls-2-1655452965214.png" class="asset" transform="matrix(0.2071899175643921,0,0,0.2071899175643921,16.599321365356445,128.51649475097656)"></image><text fill="#ffffff" font-family="Impact" font-size="45" x="196.88127233350318" y="200.48091056834267" stroke-opacity="1" stroke-width="2" stroke="#2f66af" transform="matrix(0.36438390612602234,0,0,0.36438390612602234,98.23687744140625,143.65591430664062)" svgjs:data="{&quot;leading&quot;:&quot;1.3&quot;}"><tspan dy="0" x="196.88127233350318" svgjs:data="{&quot;newLined&quot;:true}">PLAYER</tspan></text><text fill="#ffffff" font-family="Impact" font-size="45" x="196.88127233350318" y="200.48091056834267" stroke-opacity="1" stroke-width="2" stroke="#2f66af" transform="matrix(0.36438390612602234,0,0,0.36438390612602234,196.31423950195312,143.65592193603516)" svgjs:data="{&quot;leading&quot;:&quot;1.3&quot;}"><tspan dy="0" x="196.88127233350318" svgjs:data="{&quot;newLined&quot;:true}">PLAYER</tspan></text><image width="760" height="760" xlink:href="https://lct-designs.s3.us-west-1.amazonaws.com/assets/libs/seagulls-3-1655452965214.png" class="asset" transform="matrix(0.04980089887976647,0,0,0.049800898879766464,173.8609619140625,162.08258819580078)"></image><image width="760" height="760" xlink:href="https://lct-designs.s3.us-west-1.amazonaws.com/assets/libs/seagulls-3-1655452965214.png" class="asset" transform="matrix(0.04980089887976647,0,0,0.049800898879766464,271.93829345703125,162.0825958251953)"></image><g class="mask" style="pointer-events: none;"><g><path fill="#BCBEC0" d="M-3642.4-2101.7v4589.1h7813.4v-4589.1H-3642.4z M500.5,67.2v233.3v66.7H0.5v-66.7V67.2V0.5h500V67.2z" transform="matrix(1,0,0,1,0,0)"></path><g transform="matrix(1,0,0,1,0,0)">
	<rect x="0.5" y="300.5" opacity="0.95" fill="#F1F2F2" width="500" height="66.7"></rect>
	<rect x="0.5" y="0.5" opacity="0.95" fill="#F1F2F2" width="500" height="66.7"></rect>
</g></g></g></svg>