<svg xmlns="http://www.w3.org/2000/svg" version="1.1" xmlns:xlink="http://www.w3.org/1999/xlink" xmlns:svgjs="http://svgjs.dev/svgjs" width="100%" height="100%" viewBox="1 1 499 365.70001220703125" preserveAspectRatio="none" data-info="{&quot;_id&quot;:4,&quot;name&quot;:&quot;POLE POCKET SOCCER BANNERS&quot;,&quot;information&quot;:&quot;- Size: 3’x5’\n- Material: heavy duty vinyl banner\n- Digitally printed on vinyl&quot;,&quot;price&quot;:&quot;95.00&quot;,&quot;sale_price&quot;:&quot;89.99&quot;,&quot;type&quot;:&quot;pole-pocket&quot;,&quot;cover&quot;:{&quot;key&quot;:&quot;assets/models/pole-1628062864266-1631924568908.png&quot;,&quot;url&quot;:&quot;https://lct-designs.s3.us-west-1.amazonaws.com/assets/models/pole-1628062864266-1631924568908.png&quot;},&quot;back&quot;:{&quot;key&quot;:&quot;assets/models/pole-1631924700152.svg&quot;,&quot;url&quot;:&quot;https://lct-designs.s3.us-west-1.amazonaws.com/assets/models/pole-1631924700152.svg&quot;},&quot;mask&quot;:{&quot;key&quot;:&quot;assets/models/pole-mask-1631925211715.svg&quot;,&quot;url&quot;:&quot;https://lct-designs.s3.us-west-1.amazonaws.com/assets/models/pole-mask-1631925211715.svg&quot;},&quot;pos&quot;:&quot;2&quot;,&quot;accessories&quot;:&quot;2,3&quot;}" style="background-color: white;"><g class="model" style="pointer-events: none;"><polygon fill="#FFFFFF" points="0.5,0.5 0.5,67.2 0.5,300.5 0.5,367.2 500.5,367.2 500.5,300.5 500.5,67.2 500.5,0.5 "></polygon></g><image width="760" height="455" xlink:href="https://lct-designs.s3.us-west-1.amazonaws.com/assets/libs/strikers-4-1656581214545.png" class="asset background locked" transform="matrix(0.8059340715408324,0,0,0.8059340715408324,-58.63187789916992,-0.5428888797760152)"></image><text fill="#ffffff" font-family="Impact" font-size="12" x="-28.247602274464754" y="202.0367434271879" transform="matrix(0.9999999999999999,0,0,1,376.7643737792968,-117.80673217773436)" svgjs:data="{&quot;leading&quot;:&quot;1.3&quot;}"><tspan dy="0" x="-28.247602274464754" svgjs:data="{&quot;newLined&quot;:true}">Team mom: Team mom's name</tspan></text><text fill="#ffffff" font-family="Impact" font-size="12" x="197.28422755951962" y="188.46454217520426" transform="matrix(0.9999999999999999,0,0,1,-192.95851135253903,-103.69163513183594)" svgjs:data="{&quot;leading&quot;:&quot;1.3&quot;}"><tspan dy="0" x="197.28422755951962" svgjs:data="{&quot;newLined&quot;:true}">Coach: Coach 's name</tspan></text><image width="694" height="760" xlink:href="https://lct-designs.s3.us-west-1.amazonaws.com/assets/libs/strikers-2-1656581214545.png" class="asset" transform="matrix(0.24658399820327756,0,0,0.24658399820327756,-0.8797299861907959,96.43360900878906)"></image><image width="760" height="266" xlink:href="https://lct-designs.s3.us-west-1.amazonaws.com/assets/libs/strikers-3-1656581214545.png" class="asset" transform="matrix(0.3111742734909057,0,0,0.31117427349090576,208.6862030029297,76.27345275878903)"></image><image width="760" height="745" xlink:href="https://lct-designs.s3.us-west-1.amazonaws.com/assets/libs/strikers-1-1656581214545.png" class="asset" transform="matrix(0.04632117226719856,0,0,0.04632117226719856,191.72026062011716,173.42480468750003)"></image><text fill="#ffffff" font-family="Impact" font-size="12" x="234.89532966370663" y="188.46454217520423" transform="matrix(1.1850595474243164,0,0,1.1850595474243162,-87.67626953125,-0.09360966086387634)" svgjs:data="{&quot;leading&quot;:&quot;1.3&quot;}"><tspan dy="0" x="234.89532966370663" svgjs:data="{&quot;newLined&quot;:true}">Player</tspan></text><image width="760" height="745" xlink:href="https://lct-designs.s3.us-west-1.amazonaws.com/assets/libs/strikers-1-1656581214545.png" class="asset" transform="matrix(0.04632118344306945,0,0,0.04632118344306945,191.72023010253903,239.65715026855466)"></image><text fill="#ffffff" font-family="Impact" font-size="12" x="234.89532966370663" y="188.46454217520423" transform="matrix(1.1850595474243164,0,0,1.1850595474243162,-87.67626190185545,66.13873291015625)" svgjs:data="{&quot;leading&quot;:&quot;1.3&quot;}"><tspan dy="0" x="234.89532966370663" svgjs:data="{&quot;newLined&quot;:true}">Player</tspan></text><image width="760" height="745" xlink:href="https://lct-designs.s3.us-west-1.amazonaws.com/assets/libs/strikers-1-1656581214545.png" class="asset" transform="matrix(0.04632118344306945,0,0,0.04632118344306945,260.89508056640625,173.96769714355466)"></image><text fill="#ffffff" font-family="Impact" font-size="12" x="234.89532966370663" y="188.46454217520423" transform="matrix(1.1850595474243164,0,0,1.1850595474243162,-18.501420974731445,0.44928285479545593)" svgjs:data="{&quot;leading&quot;:&quot;1.3&quot;}"><tspan dy="0" x="234.89532966370663" svgjs:data="{&quot;newLined&quot;:true}">Player</tspan></text><image width="760" height="745" xlink:href="https://lct-designs.s3.us-west-1.amazonaws.com/assets/libs/strikers-1-1656581214545.png" class="asset" transform="matrix(0.046321190893650055,0,0,0.046321190893650055,260.89508056640625,240.20004272460935)"></image><text fill="#ffffff" font-family="Impact" font-size="12" x="234.89532966370663" y="188.46454217520423" transform="matrix(1.1850595474243164,0,0,1.1850595474243162,-18.501422882080078,66.68162536621094)" svgjs:data="{&quot;leading&quot;:&quot;1.3&quot;}"><tspan dy="0" x="234.89532966370663" svgjs:data="{&quot;newLined&quot;:true}">Player</tspan></text><image width="760" height="745" xlink:href="https://lct-designs.s3.us-west-1.amazonaws.com/assets/libs/strikers-1-1656581214545.png" class="asset" transform="matrix(0.046321190893650055,0,0,0.046321190893650055,330.0698852539062,173.96769714355466)"></image><text fill="#ffffff" font-family="Impact" font-size="12" x="234.89532966370663" y="188.46454217520423" transform="matrix(1.1850595474243164,0,0,1.1850595474243162,50.673400878906236,0.44928285479545593)" svgjs:data="{&quot;leading&quot;:&quot;1.3&quot;}"><tspan dy="0" x="234.89532966370663" svgjs:data="{&quot;newLined&quot;:true}">Player</tspan></text><image width="760" height="745" xlink:href="https://lct-designs.s3.us-west-1.amazonaws.com/assets/libs/strikers-1-1656581214545.png" class="asset" transform="matrix(0.04632119834423065,0,0,0.04632119834423065,330.06985473632807,240.20004272460935)"></image><text fill="#ffffff" font-family="Impact" font-size="12" x="234.89532966370663" y="188.46454217520423" transform="matrix(1.1850595474243164,0,0,1.1850595474243162,50.67338180541991,66.68162536621094)" svgjs:data="{&quot;leading&quot;:&quot;1.3&quot;}"><tspan dy="0" x="234.89532966370663" svgjs:data="{&quot;newLined&quot;:true}">Player</tspan></text><image width="760" height="745" xlink:href="https://lct-designs.s3.us-west-1.amazonaws.com/assets/libs/strikers-1-1656581214545.png" class="asset" transform="matrix(0.04632119834423065,0,0,0.04632119834423065,390.55850219726557,173.96769714355466)"></image><text fill="#ffffff" font-family="Impact" font-size="12" x="234.89532966370663" y="188.46454217520423" transform="matrix(1.1850595474243164,0,0,1.1850595474243162,111.16201019287107,0.44928285479545593)" svgjs:data="{&quot;leading&quot;:&quot;1.3&quot;}"><tspan dy="0" x="234.89532966370663" svgjs:data="{&quot;newLined&quot;:true}">Player</tspan></text><image width="760" height="745" xlink:href="https://lct-designs.s3.us-west-1.amazonaws.com/assets/libs/strikers-1-1656581214545.png" class="asset" transform="matrix(0.04632120952010154,0,0,0.04632120952010154,390.55847167968744,240.20004272460935)"></image><text fill="#ffffff" font-family="Impact" font-size="12" x="234.89532966370663" y="188.46454217520423" transform="matrix(1.1850595474243164,0,0,1.1850595474243162,111.16204071044919,66.68162536621094)" svgjs:data="{&quot;leading&quot;:&quot;1.3&quot;}"><tspan dy="0" x="234.89532966370663" svgjs:data="{&quot;newLined&quot;:true}">Player</tspan></text><image width="760" height="745" xlink:href="https://lct-designs.s3.us-west-1.amazonaws.com/assets/libs/strikers-1-1656581214545.png" class="asset" transform="matrix(0.04632120952010154,0,0,0.04632120952010154,449.9612426757812,173.96769714355466)"></image><text fill="#ffffff" font-family="Impact" font-size="12" x="234.89532966370663" y="188.46454217520423" transform="matrix(1.1850595474243164,0,0,1.1850595474243162,170.5648040771484,0.44928285479545593)" svgjs:data="{&quot;leading&quot;:&quot;1.3&quot;}"><tspan dy="0" x="234.89532966370663" svgjs:data="{&quot;newLined&quot;:true}">Player</tspan></text><image width="760" height="745" xlink:href="https://lct-designs.s3.us-west-1.amazonaws.com/assets/libs/strikers-1-1656581214545.png" class="asset" transform="matrix(0.04632122069597244,0,0,0.04632122069597244,449.9612731933593,240.20004272460935)"></image><text fill="#ffffff" font-family="Impact" font-size="12" x="234.89532966370663" y="188.46454217520423" transform="matrix(1.1850595474243164,0,0,1.1850595474243162,170.5648040771484,66.68162536621094)" svgjs:data="{&quot;leading&quot;:&quot;1.3&quot;}"><tspan dy="0" x="234.89532966370663" svgjs:data="{&quot;newLined&quot;:true}">Player</tspan></text><g class="mask" style="pointer-events: none;"><g><path fill="#BCBEC0" d="M-3642.4-2101.7v4589.1h7813.4v-4589.1H-3642.4z M500.5,67.2v233.3v66.7H0.5v-66.7V67.2V0.5h500V67.2z" transform="matrix(1,0,0,1,0,0)"></path><g transform="matrix(1,0,0,1,0,0)">
	<rect x="0.5" y="300.5" opacity="0.95" fill="#F1F2F2" width="500" height="66.7"></rect>
	<rect x="0.5" y="0.5" opacity="0.95" fill="#F1F2F2" width="500" height="66.7"></rect>
</g></g></g></svg>