<svg xmlns="http://www.w3.org/2000/svg" version="1.1" xmlns:xlink="http://www.w3.org/1999/xlink" xmlns:svgjs="http://svgjs.dev/svgjs" width="100%" height="100%" viewBox="1 1 499 365.70001220703125" preserveAspectRatio="none" data-info="{&quot;_id&quot;:4,&quot;name&quot;:&quot;POLE POCKET SOCCER BANNERS&quot;,&quot;information&quot;:&quot;- Size: 3’x5’\n- Material: heavy duty vinyl banner\n- Digitally printed on vinyl&quot;,&quot;price&quot;:&quot;95.00&quot;,&quot;sale_price&quot;:&quot;89.99&quot;,&quot;type&quot;:&quot;pole-pocket&quot;,&quot;cover&quot;:{&quot;key&quot;:&quot;assets/models/pole-1628062864266-1631924568908.png&quot;,&quot;url&quot;:&quot;https://lct-designs.s3.us-west-1.amazonaws.com/assets/models/pole-1628062864266-1631924568908.png&quot;},&quot;back&quot;:{&quot;key&quot;:&quot;assets/models/pole-1631924700152.svg&quot;,&quot;url&quot;:&quot;https://lct-designs.s3.us-west-1.amazonaws.com/assets/models/pole-1631924700152.svg&quot;},&quot;mask&quot;:{&quot;key&quot;:&quot;assets/models/pole-mask-1631925211715.svg&quot;,&quot;url&quot;:&quot;https://lct-designs.s3.us-west-1.amazonaws.com/assets/models/pole-mask-1631925211715.svg&quot;},&quot;pos&quot;:&quot;2&quot;,&quot;accessories&quot;:&quot;2,3&quot;}" style="background-color: white;"><g class="model" style="pointer-events: none;"><polygon fill="#FFFFFF" points="0.5,0.5 0.5,67.2 0.5,300.5 0.5,367.2 500.5,367.2 500.5,300.5 500.5,67.2 500.5,0.5 "></polygon></g><image width="760" height="455" xlink:href="https://lct-designs.s3.us-west-1.amazonaws.com/assets/libs/team-awesome-1-1656403070403.png" class="asset background locked" transform="matrix(0.8059340715408324,0,0,0.8059340715408324,-30.944629669189453,15.743753433227539)"></image><text fill="#ffffff" font-family="Impact" font-size="12" x="-28.247602274464754" y="202.0367434271879" transform="matrix(0.9999999999999999,0,0,1,376.7643737792968,-117.80673217773436)" svgjs:data="{&quot;leading&quot;:&quot;1.3&quot;}"><tspan dy="0" x="-28.247602274464754" svgjs:data="{&quot;newLined&quot;:true}">Team mom: Team mom's name</tspan></text><text fill="#ffffff" font-family="Impact" font-size="12" x="197.28422755951962" y="188.46454217520426" transform="matrix(0.9999999999999999,0,0,1,-192.95851135253903,-103.69163513183594)" svgjs:data="{&quot;leading&quot;:&quot;1.3&quot;}"><tspan dy="0" x="197.28422755951962" svgjs:data="{&quot;newLined&quot;:true}">Coach: Coach 's name</tspan></text><image width="760" height="483" xlink:href="https://lct-designs.s3.us-west-1.amazonaws.com/assets/libs/team-awesome-2-1656403070403.png" class="asset" transform="matrix(0.3136618435382843,0,0,0.3136618435382843,131.30690002441403,134.74415588378906)"></image><image width="760" height="182" xlink:href="https://lct-designs.s3.us-west-1.amazonaws.com/assets/libs/team-awesome-3-1656403070404.png" class="asset" transform="matrix(0.3254569768905639,0,0,0.3254569768905639,126.82470703124997,75.82802581787107)"></image><text fill="#d4ce11" font-family="Impact" font-size="12" x="234.89532966370663" y="188.46454217520423" transform="matrix(1.9252954721450806,0,0,1.9252954721450806,-426.1403503417969,-224.68043518066406)" svgjs:data="{&quot;leading&quot;:&quot;1.3&quot;}"><tspan dy="0" x="234.89532966370663" svgjs:data="{&quot;newLined&quot;:true}">Player</tspan></text><text fill="#d4ce11" font-family="Impact" font-size="12" x="234.89532966370663" y="188.46454217520423" transform="matrix(1.9252954721450806,0,0,1.9252954721450806,-425.9123229980469,-188.84982299804688)" svgjs:data="{&quot;leading&quot;:&quot;1.3&quot;}"><tspan dy="0" x="234.89532966370663" svgjs:data="{&quot;newLined&quot;:true}">Player</tspan></text><text fill="#d4ce11" font-family="Impact" font-size="12" x="234.89532966370663" y="188.46454217520423" transform="matrix(1.9252954721450806,0,0,1.9252954721450806,-427.3129577636719,-151.93345642089844)" svgjs:data="{&quot;leading&quot;:&quot;1.3&quot;}"><tspan dy="0" x="234.89532966370663" svgjs:data="{&quot;newLined&quot;:true}">Player</tspan></text><text fill="#d4ce11" font-family="Impact" font-size="12" x="234.89532966370663" y="188.46454217520423" transform="matrix(1.9252954721450806,0,0,1.9252954721450806,-427.0849304199219,-114.47415924072266)" svgjs:data="{&quot;leading&quot;:&quot;1.3&quot;}"><tspan dy="0" x="234.89532966370663" svgjs:data="{&quot;newLined&quot;:true}">Player</tspan></text><text fill="#d4ce11" font-family="Impact" font-size="12" x="234.89532966370663" y="188.46454217520423" transform="matrix(1.9252954721450806,0,0,1.9252954721450806,-426.3140258789062,-79.72932434082031)" svgjs:data="{&quot;leading&quot;:&quot;1.3&quot;}"><tspan dy="0" x="234.89532966370663" svgjs:data="{&quot;newLined&quot;:true}">Player</tspan></text><text fill="#d4ce11" font-family="Impact" font-size="12" x="234.89532966370663" y="188.46454217520423" transform="matrix(1.9252954721450806,0,0,1.9252954721450806,-38.290191650390625,-225.7661895751953)" svgjs:data="{&quot;leading&quot;:&quot;1.3&quot;}"><tspan dy="0" x="234.89532966370663" svgjs:data="{&quot;newLined&quot;:true}">Player</tspan></text><text fill="#d4ce11" font-family="Impact" font-size="12" x="234.89532966370663" y="188.46454217520423" transform="matrix(1.9252954721450806,0,0,1.9252954721450806,-38.062164306640625,-189.93557739257812)" svgjs:data="{&quot;leading&quot;:&quot;1.3&quot;}"><tspan dy="0" x="234.89532966370663" svgjs:data="{&quot;newLined&quot;:true}">Player</tspan></text><text fill="#d4ce11" font-family="Impact" font-size="12" x="234.89532966370663" y="188.46454217520423" transform="matrix(1.9252954721450806,0,0,1.9252954721450806,-39.46279907226562,-153.0192108154297)" svgjs:data="{&quot;leading&quot;:&quot;1.3&quot;}"><tspan dy="0" x="234.89532966370663" svgjs:data="{&quot;newLined&quot;:true}">Player</tspan></text><text fill="#d4ce11" font-family="Impact" font-size="12" x="234.89532966370663" y="188.46454217520423" transform="matrix(1.9252954721450806,0,0,1.9252954721450806,-39.23477172851562,-115.5599136352539)" svgjs:data="{&quot;leading&quot;:&quot;1.3&quot;}"><tspan dy="0" x="234.89532966370663" svgjs:data="{&quot;newLined&quot;:true}">Player</tspan></text><text fill="#d4ce11" font-family="Impact" font-size="12" x="234.89532966370663" y="188.46454217520423" transform="matrix(1.9252954721450806,0,0,1.9252954721450806,-38.4638671875,-80.81507873535156)" svgjs:data="{&quot;leading&quot;:&quot;1.3&quot;}"><tspan dy="0" x="234.89532966370663" svgjs:data="{&quot;newLined&quot;:true}">Player</tspan></text><g class="mask" style="pointer-events: none;"><g><path fill="#BCBEC0" d="M-3642.4-2101.7v4589.1h7813.4v-4589.1H-3642.4z M500.5,67.2v233.3v66.7H0.5v-66.7V67.2V0.5h500V67.2z" transform="matrix(1,0,0,1,0,0)"></path><g transform="matrix(1,0,0,1,0,0)">
	<rect x="0.5" y="300.5" opacity="0.95" fill="#F1F2F2" width="500" height="66.7"></rect>
	<rect x="0.5" y="0.5" opacity="0.95" fill="#F1F2F2" width="500" height="66.7"></rect>
</g></g></g></svg>