<svg xmlns="http://www.w3.org/2000/svg" version="1.1" xmlns:xlink="http://www.w3.org/1999/xlink" xmlns:svgjs="http://svgjs.dev/svgjs" width="100%" height="100%" viewBox="1 1 499 365.70001220703125" preserveAspectRatio="none" data-info="{&quot;_id&quot;:4,&quot;name&quot;:&quot;POLE POCKET SOCCER BANNERS&quot;,&quot;information&quot;:&quot;- Size: 3’x5’\n- Material: heavy duty vinyl banner\n- Digitally printed on vinyl&quot;,&quot;price&quot;:&quot;95.00&quot;,&quot;sale_price&quot;:&quot;89.99&quot;,&quot;type&quot;:&quot;pole-pocket&quot;,&quot;cover&quot;:{&quot;key&quot;:&quot;assets/models/pole-1628062864266-1631924568908.png&quot;,&quot;url&quot;:&quot;https://lct-designs.s3.us-west-1.amazonaws.com/assets/models/pole-1628062864266-1631924568908.png&quot;},&quot;back&quot;:{&quot;key&quot;:&quot;assets/models/pole-1631924700152.svg&quot;,&quot;url&quot;:&quot;https://lct-designs.s3.us-west-1.amazonaws.com/assets/models/pole-1631924700152.svg&quot;},&quot;mask&quot;:{&quot;key&quot;:&quot;assets/models/pole-mask-1631925211715.svg&quot;,&quot;url&quot;:&quot;https://lct-designs.s3.us-west-1.amazonaws.com/assets/models/pole-mask-1631925211715.svg&quot;},&quot;pos&quot;:&quot;2&quot;,&quot;accessories&quot;:&quot;2,3&quot;}" style="background-color: white;"><g class="model" style="pointer-events: none;"><polygon fill="#FFFFFF" points="0.5,0.5 0.5,67.2 0.5,300.5 0.5,367.2 500.5,367.2 500.5,300.5 500.5,67.2 500.5,0.5 "></polygon></g><image width="760" height="556" xlink:href="https://lct-designs.s3.us-west-1.amazonaws.com/assets/libs/robots-1-1652238619950.png" class="asset background locked" transform="matrix(0.6595323960558116,0,0,0.6595323960558116,0,0)"></image><image width="760" height="233" xlink:href="https://lct-designs.s3.us-west-1.amazonaws.com/assets/libs/robots-3-1652238656077.png" class="asset" transform="matrix(0.4396161139011383,0,0,0.43961611390113836,83.44366455078125,76.46108245849612)"></image><image width="760" height="293" xlink:href="https://lct-designs.s3.us-west-1.amazonaws.com/assets/libs/robots-5-1652238669209.png" class="asset" transform="matrix(0.10349000245332718,0,0,0.10349000245332718,381.3249816894531,239.0536193847656)"></image><text fill="#000000" font-family="American Captain" font-size="45" x="196.88393072804308" y="200.4136183149204" stroke-opacity="1" stroke-width="1" stroke="#ffffff" transform="matrix(0.4291882812976837,0,0,0.42918828129768377,296.82470703125,175.4584655761719)" svgjs:data="{&quot;leading&quot;:&quot;1.3&quot;}"><tspan dy="0" x="196.88393072804308" svgjs:data="{&quot;newLined&quot;:true}">Player</tspan></text><image width="760" height="293" xlink:href="https://lct-designs.s3.us-west-1.amazonaws.com/assets/libs/robots-5-1652238669209.png" class="asset" transform="matrix(0.10349000245332718,0,0,0.10349000245332718,260.1302795410156,239.0536193847656)"></image><text fill="#000000" font-family="American Captain" font-size="45" x="196.88393072804308" y="200.4136183149204" stroke-opacity="1" stroke-width="1" stroke="#ffffff" transform="matrix(0.4291882812976837,0,0,0.42918828129768377,175.63000488281247,175.4584655761719)" svgjs:data="{&quot;leading&quot;:&quot;1.3&quot;}"><tspan dy="0" x="196.88393072804308" svgjs:data="{&quot;newLined&quot;:true}">Player</tspan></text><image width="760" height="293" xlink:href="https://lct-designs.s3.us-west-1.amazonaws.com/assets/libs/robots-5-1652238669209.png" class="asset" transform="matrix(0.10349000245332718,0,0,0.10349000245332718,131.9456634521484,239.05363464355472)"></image><text fill="#000000" font-family="American Captain" font-size="45" x="196.88393072804308" y="200.4136183149204" stroke-opacity="1" stroke-width="1" stroke="#ffffff" transform="matrix(0.4291882812976837,0,0,0.42918828129768377,47.4453887939453,175.4584655761719)" svgjs:data="{&quot;leading&quot;:&quot;1.3&quot;}"><tspan dy="0" x="196.88393072804308" svgjs:data="{&quot;newLined&quot;:true}">Player</tspan></text><image width="760" height="293" xlink:href="https://lct-designs.s3.us-west-1.amazonaws.com/assets/libs/robots-5-1652238669209.png" class="asset" transform="matrix(0.10349000245332718,0,0,0.10349000245332718,381.3249816894531,169.23828125000003)"></image><text fill="#000000" font-family="American Captain" font-size="45" x="196.88393072804308" y="200.4136183149204" stroke-opacity="1" stroke-width="1" stroke="#ffffff" transform="matrix(0.4291882812976837,0,0,0.42918828129768377,296.82470703125,105.64311218261722)" svgjs:data="{&quot;leading&quot;:&quot;1.3&quot;}"><tspan dy="0" x="196.88393072804308" svgjs:data="{&quot;newLined&quot;:true}">Player</tspan></text><image width="760" height="293" xlink:href="https://lct-designs.s3.us-west-1.amazonaws.com/assets/libs/robots-5-1652238669209.png" class="asset" transform="matrix(0.10349000245332718,0,0,0.10349000245332718,260.1302795410156,169.23826599121097)"></image><text fill="#000000" font-family="American Captain" font-size="45" x="196.88393072804308" y="200.4136183149204" stroke-opacity="1" stroke-width="1" stroke="#ffffff" transform="matrix(0.4291882812976837,0,0,0.42918828129768377,175.63000488281247,105.64311218261722)" svgjs:data="{&quot;leading&quot;:&quot;1.3&quot;}"><tspan dy="0" x="196.88393072804308" svgjs:data="{&quot;newLined&quot;:true}">Player</tspan></text><image width="760" height="293" xlink:href="https://lct-designs.s3.us-west-1.amazonaws.com/assets/libs/robots-5-1652238669209.png" class="asset" transform="matrix(0.10349000245332718,0,0,0.10349000245332718,131.9456634521484,169.23828125000003)"></image><text fill="#000000" font-family="American Captain" font-size="45" x="196.88393072804308" y="200.4136183149204" stroke-opacity="1" stroke-width="1" stroke="#ffffff" transform="matrix(0.4291882812976837,0,0,0.42918828129768377,47.4453887939453,105.64312744140628)" svgjs:data="{&quot;leading&quot;:&quot;1.3&quot;}"><tspan dy="0" x="196.88393072804308" svgjs:data="{&quot;newLined&quot;:true}">Player</tspan></text><image width="760" height="293" xlink:href="https://lct-designs.s3.us-west-1.amazonaws.com/assets/libs/robots-5-1652238669209.png" class="asset" transform="matrix(0.10349000245332718,0,0,0.10349000245332718,306.37106323242193,206.33843994140628)"></image><text fill="#000000" font-family="American Captain" font-size="45" x="196.88393072804308" y="200.4136183149204" stroke-opacity="1" stroke-width="1" stroke="#ffffff" transform="matrix(0.4291882812976837,0,0,0.42918828129768377,221.87078857421872,142.7432556152344)" svgjs:data="{&quot;leading&quot;:&quot;1.3&quot;}"><tspan dy="0" x="196.88393072804308" svgjs:data="{&quot;newLined&quot;:true}">Player</tspan></text><image width="760" height="293" xlink:href="https://lct-designs.s3.us-west-1.amazonaws.com/assets/libs/robots-5-1652238669209.png" class="asset" transform="matrix(0.10349000245332718,0,0,0.10349000245332718,185.17636108398438,206.33842468261722)"></image><text fill="#000000" font-family="American Captain" font-size="45" x="196.88393072804308" y="200.4136183149204" stroke-opacity="1" stroke-width="1" stroke="#ffffff" transform="matrix(0.4291882812976837,0,0,0.42918828129768377,100.67608642578125,142.7432556152344)" svgjs:data="{&quot;leading&quot;:&quot;1.3&quot;}"><tspan dy="0" x="196.88393072804308" svgjs:data="{&quot;newLined&quot;:true}">Player</tspan></text><text fill="#000000" font-family="American Captain" font-size="45" stroke-opacity="1" stroke-width="0" stroke="#ffffff" x="101.57844977101183" y="200.41361831492046" transform="matrix(0.41388788819313044,0,0,0.41388788819313055,-29.26299285888672,209.84111022949222)" svgjs:data="{&quot;leading&quot;:&quot;1.3&quot;}"><tspan dy="0" x="101.57844977101183" svgjs:data="{&quot;newLined&quot;:true}">coach:coach's name</tspan></text><text fill="#000000" font-family="American Captain" font-size="45" stroke-opacity="1" stroke-width="0" stroke="#ffffff" x="101.57844977101183" y="200.41361831492046" transform="matrix(0.41388788819313044,0,0,0.41388788819313055,280.4842834472657,209.84112548828128)" svgjs:data="{&quot;leading&quot;:&quot;1.3&quot;}"><tspan dy="0" x="101.57844977101183" svgjs:data="{&quot;newLined&quot;:true}">Team mom:Team mom's name</tspan></text><image width="557" height="760" xlink:href="https://lct-designs.s3.us-west-1.amazonaws.com/assets/libs/robot-1652241327741.png" class="asset" transform="matrix(0.15068060159683228,0,0,0.15068060159683228,27.62161827087403,144.10369873046878)"></image><g class="mask" style="pointer-events: none;"><g><path fill="#BCBEC0" d="M-3642.4-2101.7v4589.1h7813.4v-4589.1H-3642.4z M500.5,67.2v233.3v66.7H0.5v-66.7V67.2V0.5h500V67.2z" transform="matrix(1,0,0,1,0,0)"></path><g transform="matrix(1,0,0,1,0,0)">
	<rect x="0.5" y="300.5" opacity="0.95" fill="#F1F2F2" width="500" height="66.7"></rect>
	<rect x="0.5" y="0.5" opacity="0.95" fill="#F1F2F2" width="500" height="66.7"></rect>
</g></g></g></svg>