<svg xmlns="http://www.w3.org/2000/svg" version="1.1" xmlns:xlink="http://www.w3.org/1999/xlink" xmlns:svgjs="http://svgjs.dev/svgjs" width="100%" height="100%" viewBox="1 1 499 365.70001220703125" preserveAspectRatio="none" data-info="{&quot;_id&quot;:4,&quot;name&quot;:&quot;POLE POCKET SOCCER BANNERS&quot;,&quot;information&quot;:&quot;- Size: 3’x5’\n- Material: heavy duty vinyl banner\n- Digitally printed on vinyl&quot;,&quot;price&quot;:&quot;95.00&quot;,&quot;sale_price&quot;:&quot;89.99&quot;,&quot;type&quot;:&quot;pole-pocket&quot;,&quot;cover&quot;:{&quot;key&quot;:&quot;assets/models/pole-1628062864266-1631924568908.png&quot;,&quot;url&quot;:&quot;https://lct-designs.s3.us-west-1.amazonaws.com/assets/models/pole-1628062864266-1631924568908.png&quot;},&quot;back&quot;:{&quot;key&quot;:&quot;assets/models/pole-1631924700152.svg&quot;,&quot;url&quot;:&quot;https://lct-designs.s3.us-west-1.amazonaws.com/assets/models/pole-1631924700152.svg&quot;},&quot;mask&quot;:{&quot;key&quot;:&quot;assets/models/pole-mask-1631925211715.svg&quot;,&quot;url&quot;:&quot;https://lct-designs.s3.us-west-1.amazonaws.com/assets/models/pole-mask-1631925211715.svg&quot;},&quot;pos&quot;:&quot;2&quot;,&quot;accessories&quot;:&quot;2,3&quot;}" style="background-color: white;"><g class="model" style="pointer-events: none;"><polygon fill="#FFFFFF" points="0.5,0.5 0.5,67.2 0.5,300.5 0.5,367.2 500.5,367.2 500.5,300.5 500.5,67.2 500.5,0.5 "></polygon></g><image width="760" height="455" xlink:href="https://lct-designs.s3.us-west-1.amazonaws.com/assets/libs/toxic-3-1656403070406.png" class="asset background locked" transform="matrix(0.805934092762706,0,0,0.805934092762706,0,0)"></image><text fill="#000000" font-family="Impact" font-size="45" x="196.88127233350318" y="200.48091056834267" transform="matrix(0.29177808761596685,0,0,0.2917780876159668,-44.53908920288087,233.25262451171875)" svgjs:data="{&quot;leading&quot;:&quot;1.3&quot;}"><tspan dy="0" x="196.88127233350318" svgjs:data="{&quot;newLined&quot;:true}">Coach: coach's name</tspan></text><text fill="#000000" font-family="Impact" font-size="45" x="196.88127233350318" y="200.48091056834267" transform="matrix(0.3015019893646241,0,0,0.301501989364624,267.18002319335943,232.9071655273437)" svgjs:data="{&quot;leading&quot;:&quot;1.3&quot;}"><tspan dy="0" x="196.88127233350318" svgjs:data="{&quot;newLined&quot;:true}">Team mom: Team mom's name</tspan></text><text fill="#ff0000" font-family="Impact" font-size="45" x="187.90034291970778" y="201.84038088576656" transform="matrix(0.3634201586246491,0,0,0.363420158624649,27.97061920166016,51.9313201904297)" svgjs:data="{&quot;leading&quot;:&quot;1.3&quot;}"><tspan dy="0" x="187.90034291970778" svgjs:data="{&quot;newLined&quot;:true}">Player</tspan><tspan dy="58.5" x="187.90034291970778" svgjs:data="{&quot;newLined&quot;:true}"></tspan></text><image width="760" height="712" xlink:href="https://lct-designs.s3.us-west-1.amazonaws.com/assets/libs/toxic-2-1656403070405.png" class="asset" transform="matrix(0.05169492587447167,0,0,0.05169492587447166,98.40737152099611,74.21105194091795)"></image><image width="760" height="712" xlink:href="https://lct-designs.s3.us-west-1.amazonaws.com/assets/libs/toxic-2-1656403070405.png" class="asset" transform="matrix(0.05169492587447167,0,0,0.05169492587447166,98.40737152099611,74.21105194091795)"></image><text fill="#ff0000" font-family="Impact" font-size="45" x="187.90034291970778" y="201.84038088576656" transform="matrix(0.3634201586246491,0,0,0.363420158624649,27.97061920166016,113.1447296142578)" svgjs:data="{&quot;leading&quot;:&quot;1.3&quot;}"><tspan dy="0" x="187.90034291970778" svgjs:data="{&quot;newLined&quot;:true}">Player</tspan><tspan dy="58.5" x="187.90034291970778" svgjs:data="{&quot;newLined&quot;:true}"></tspan></text><text fill="#ff0000" font-family="Impact" font-size="45" x="187.90034291970778" y="201.84038088576656" transform="matrix(0.3634201586246491,0,0,0.363420158624649,26.594673156738285,172.1913299560547)" svgjs:data="{&quot;leading&quot;:&quot;1.3&quot;}"><tspan dy="0" x="187.90034291970778" svgjs:data="{&quot;newLined&quot;:true}">Player</tspan><tspan dy="58.5" x="187.90034291970778" svgjs:data="{&quot;newLined&quot;:true}"></tspan></text><image width="760" height="712" xlink:href="https://lct-designs.s3.us-west-1.amazonaws.com/assets/libs/toxic-2-1656403070405.png" class="asset" transform="matrix(0.05169492587447167,0,0,0.05169492587447166,97.57312774658205,138.13304138183594)"></image><image width="760" height="712" xlink:href="https://lct-designs.s3.us-west-1.amazonaws.com/assets/libs/toxic-2-1656403070405.png" class="asset" transform="matrix(0.05169492587447167,0,0,0.05169492587447166,97.57312774658205,138.13304138183594)"></image><image width="760" height="712" xlink:href="https://lct-designs.s3.us-west-1.amazonaws.com/assets/libs/toxic-2-1656403070405.png" class="asset" transform="matrix(0.05169492587447167,0,0,0.05169492587447166,95.6554641723633,196.63792419433594)"></image><image width="760" height="712" xlink:href="https://lct-designs.s3.us-west-1.amazonaws.com/assets/libs/toxic-2-1656403070405.png" class="asset" transform="matrix(0.05169492587447167,0,0,0.05169492587447166,95.6554641723633,196.63792419433594)"></image><text fill="#ff0000" font-family="Impact" font-size="45" x="187.90034291970778" y="201.84038088576656" transform="matrix(0.3634201586246491,0,0,0.363420158624649,-47.07812500000001,52.47303771972655)" svgjs:data="{&quot;leading&quot;:&quot;1.3&quot;}"><tspan dy="0" x="187.90034291970778" svgjs:data="{&quot;newLined&quot;:true}">Player</tspan><tspan dy="58.5" x="187.90034291970778" svgjs:data="{&quot;newLined&quot;:true}"></tspan></text><image width="760" height="712" xlink:href="https://lct-designs.s3.us-west-1.amazonaws.com/assets/libs/toxic-2-1656403070405.png" class="asset" transform="matrix(0.05169492587447167,0,0,0.05169492587447166,24.485376358032223,74.21105194091795)"></image><text fill="#ff0000" font-family="Impact" font-size="45" x="187.90034291970778" y="201.84038088576656" transform="matrix(0.3634201586246491,0,0,0.363420158624649,-47.07812500000001,113.6864471435547)" svgjs:data="{&quot;leading&quot;:&quot;1.3&quot;}"><tspan dy="0" x="187.90034291970778" svgjs:data="{&quot;newLined&quot;:true}">Player</tspan><tspan dy="58.5" x="187.90034291970778" svgjs:data="{&quot;newLined&quot;:true}"></tspan></text><text fill="#ff0000" font-family="Impact" font-size="45" x="187.90034291970778" y="201.84038088576656" transform="matrix(0.3634201586246491,0,0,0.363420158624649,288.7832336425782,116.39501953124999)" svgjs:data="{&quot;leading&quot;:&quot;1.3&quot;}"><tspan dy="0" x="187.90034291970778" svgjs:data="{&quot;newLined&quot;:true}">Player</tspan><tspan dy="58.5" x="187.90034291970778" svgjs:data="{&quot;newLined&quot;:true}"></tspan></text><text fill="#ff0000" font-family="Impact" font-size="45" x="187.90034291970778" y="201.84038088576656" transform="matrix(0.3634201586246491,0,0,0.363420158624649,288.783203125,177.60842895507812)" svgjs:data="{&quot;leading&quot;:&quot;1.3&quot;}"><tspan dy="0" x="187.90034291970778" svgjs:data="{&quot;newLined&quot;:true}">Player</tspan><tspan dy="58.5" x="187.90034291970778" svgjs:data="{&quot;newLined&quot;:true}"></tspan></text><text fill="#ff0000" font-family="Impact" font-size="45" x="187.90034291970778" y="201.84038088576656" transform="matrix(0.3634201586246491,0,0,0.363420158624649,289.03244018554693,58.43186187744142)" svgjs:data="{&quot;leading&quot;:&quot;1.3&quot;}"><tspan dy="0" x="187.90034291970778" svgjs:data="{&quot;newLined&quot;:true}">Player</tspan><tspan dy="58.5" x="187.90034291970778" svgjs:data="{&quot;newLined&quot;:true}"></tspan></text><image width="760" height="712" xlink:href="https://lct-designs.s3.us-west-1.amazonaws.com/assets/libs/toxic-2-1656403070405.png" class="asset" transform="matrix(0.05169492587447167,0,0,0.05169492587447166,357.3456115722657,81.25330352783202)"></image><image width="704" height="760" xlink:href="https://lct-designs.s3.us-west-1.amazonaws.com/assets/libs/toxic-1-1656403070405.png" class="asset" transform="matrix(0.269143283367157,0,0,0.269143283367157,155.76020812988284,74.84513092041014)"></image><image width="760" height="712" xlink:href="https://lct-designs.s3.us-west-1.amazonaws.com/assets/libs/toxic-2-1656403070405.png" class="asset" transform="matrix(0.05169492587447167,0,0,0.05169492587447166,358.67822265625006,140.8415985107422)"></image><image width="760" height="712" xlink:href="https://lct-designs.s3.us-west-1.amazonaws.com/assets/libs/toxic-2-1656403070405.png" class="asset" transform="matrix(0.05169492587447167,0,0,0.05169492587447166,358.9273986816407,200.42990112304688)"></image><text fill="#ff0000" font-family="Impact" font-size="45" x="187.90034291970778" y="201.84038088576656" transform="matrix(0.3634201586246491,0,0,0.363420158624649,-48.45407104492188,172.73304748535156)" svgjs:data="{&quot;leading&quot;:&quot;1.3&quot;}"><tspan dy="0" x="187.90034291970778" svgjs:data="{&quot;newLined&quot;:true}">Player</tspan><tspan dy="58.5" x="187.90034291970778" svgjs:data="{&quot;newLined&quot;:true}"></tspan></text><image width="760" height="712" xlink:href="https://lct-designs.s3.us-west-1.amazonaws.com/assets/libs/toxic-2-1656403070405.png" class="asset" transform="matrix(0.05169492587447167,0,0,0.05169492587447166,23.651130676269535,138.13304138183594)"></image><image width="760" height="712" xlink:href="https://lct-designs.s3.us-west-1.amazonaws.com/assets/libs/toxic-2-1656403070405.png" class="asset" transform="matrix(0.05169492587447167,0,0,0.05169492587447166,21.733467102050785,196.63792419433594)"></image><text fill="#ff0000" font-family="Impact" font-size="45" x="187.90034291970778" y="201.84038088576656" transform="matrix(0.3634201586246491,0,0,0.363420158624649,367.58065795898443,115.85330963134767)" svgjs:data="{&quot;leading&quot;:&quot;1.3&quot;}"><tspan dy="0" x="187.90034291970778" svgjs:data="{&quot;newLined&quot;:true}">Player</tspan><tspan dy="58.5" x="187.90034291970778" svgjs:data="{&quot;newLined&quot;:true}"></tspan></text><text fill="#ff0000" font-family="Impact" font-size="45" x="187.90034291970778" y="201.84038088576656" transform="matrix(0.3634201586246491,0,0,0.363420158624649,367.5806274414063,177.06671905517578)" svgjs:data="{&quot;leading&quot;:&quot;1.3&quot;}"><tspan dy="0" x="187.90034291970778" svgjs:data="{&quot;newLined&quot;:true}">Player</tspan><tspan dy="58.5" x="187.90034291970778" svgjs:data="{&quot;newLined&quot;:true}"></tspan></text><text fill="#ff0000" font-family="Impact" font-size="45" x="187.90034291970778" y="201.84038088576656" transform="matrix(0.3634201586246491,0,0,0.363420158624649,367.8298645019532,57.89015197753905)" svgjs:data="{&quot;leading&quot;:&quot;1.3&quot;}"><tspan dy="0" x="187.90034291970778" svgjs:data="{&quot;newLined&quot;:true}">Player</tspan><tspan dy="58.5" x="187.90034291970778" svgjs:data="{&quot;newLined&quot;:true}"></tspan></text><image width="760" height="712" xlink:href="https://lct-designs.s3.us-west-1.amazonaws.com/assets/libs/toxic-2-1656403070405.png" class="asset" transform="matrix(0.05169492587447167,0,0,0.05169492587447166,436.14303588867193,80.7115936279297)"></image><image width="760" height="712" xlink:href="https://lct-designs.s3.us-west-1.amazonaws.com/assets/libs/toxic-2-1656403070405.png" class="asset" transform="matrix(0.05169492587447167,0,0,0.05169492587447166,437.4756469726563,140.29988861083984)"></image><image width="760" height="712" xlink:href="https://lct-designs.s3.us-west-1.amazonaws.com/assets/libs/toxic-2-1656403070405.png" class="asset" transform="matrix(0.05169492587447167,0,0,0.05169492587447166,437.72482299804693,199.88819122314453)"></image><g class="mask" style="pointer-events: none;"><g><path fill="#BCBEC0" d="M-3642.4-2101.7v4589.1h7813.4v-4589.1H-3642.4z M500.5,67.2v233.3v66.7H0.5v-66.7V67.2V0.5h500V67.2z" transform="matrix(1,0,0,1,0,0)"></path><g transform="matrix(1,0,0,1,0,0)">
	<rect x="0.5" y="300.5" opacity="0.95" fill="#F1F2F2" width="500" height="66.7"></rect>
	<rect x="0.5" y="0.5" opacity="0.95" fill="#F1F2F2" width="500" height="66.7"></rect>
</g></g></g></svg>