<svg xmlns="http://www.w3.org/2000/svg" version="1.1" xmlns:xlink="http://www.w3.org/1999/xlink" xmlns:svgjs="http://svgjs.dev/svgjs" width="100%" height="100%" viewBox="1 1 499 365.70001220703125" preserveAspectRatio="none" data-info="{&quot;_id&quot;:4,&quot;name&quot;:&quot;POLE POCKET SOCCER BANNERS&quot;,&quot;information&quot;:&quot;- Size: 3’x5’\n- Material: heavy duty vinyl banner\n- Digitally printed on vinyl&quot;,&quot;price&quot;:&quot;95.00&quot;,&quot;sale_price&quot;:&quot;89.99&quot;,&quot;type&quot;:&quot;pole-pocket&quot;,&quot;cover&quot;:{&quot;key&quot;:&quot;assets/models/pole-1628062864266-1631924568908.png&quot;,&quot;url&quot;:&quot;https://lct-designs.s3.us-west-1.amazonaws.com/assets/models/pole-1628062864266-1631924568908.png&quot;},&quot;back&quot;:{&quot;key&quot;:&quot;assets/models/pole-1631924700152.svg&quot;,&quot;url&quot;:&quot;https://lct-designs.s3.us-west-1.amazonaws.com/assets/models/pole-1631924700152.svg&quot;},&quot;mask&quot;:{&quot;key&quot;:&quot;assets/models/pole-mask-1631925211715.svg&quot;,&quot;url&quot;:&quot;https://lct-designs.s3.us-west-1.amazonaws.com/assets/models/pole-mask-1631925211715.svg&quot;},&quot;pos&quot;:&quot;2&quot;,&quot;accessories&quot;:&quot;2,3&quot;}" style="background-color: white;"><g class="model" style="pointer-events: none;"><polygon fill="#FFFFFF" points="0.5,0.5 0.5,67.2 0.5,300.5 0.5,367.2 500.5,367.2 500.5,300.5 500.5,67.2 500.5,0.5 "></polygon></g><image width="760" height="553" xlink:href="https://lct-designs.s3.us-west-1.amazonaws.com/assets/libs/impact-1632132503734.png" class="asset background locked" transform="matrix(0.6631103294883024,0,0,0.6631103294883024,0,0)"></image><text fill="#000000" font-family="Impact" font-size="50" stroke-opacity="1" stroke-width="1" stroke="#ffffff" x="-98.72634249947717" y="199.47500657859518" transform="matrix(0.21928222477436063,0,0,0.21928222477436068,41.306396484375,250.0034942626953)" svgjs:data="{&quot;leading&quot;:&quot;1.3&quot;}"><tspan dy="0" x="-98.72634249947717" svgjs:data="{&quot;newLined&quot;:true}">COACH: COACH'S NAME</tspan></text><text fill="#000000" font-family="Impact" font-size="50" stroke-opacity="1" stroke-width="1" stroke="#ffffff" x="-98.72634249947717" y="199.47500657859518" transform="matrix(0.21928222477436066,0,0,0.21928222477436066,371.2420349121094,250.0034942626953)" svgjs:data="{&quot;leading&quot;:&quot;1.3&quot;}"><tspan dy="0" x="-98.72634249947717" svgjs:data="{&quot;newLined&quot;:true}">TEAM MOM: TEAM MOM'S NAME</tspan></text><text fill="#000000" font-family="Impact" font-size="50" stroke-opacity="1" stroke-width="1" stroke="#ffffff" x="-98.72634249947717" y="199.47500657859518" transform="matrix(0.2679121494293213,0,0,0.2679121494293213,50.97831726074219,219.04220581054688)" svgjs:data="{&quot;leading&quot;:&quot;1.3&quot;}"><tspan dy="0" x="-98.72634249947717" svgjs:data="{&quot;newLined&quot;:true}">PLAYER</tspan></text><image width="760" height="721" xlink:href="https://lct-designs.s3.us-west-1.amazonaws.com/assets/libs/impact-1-1650275917793.png" class="asset" transform="matrix(0.06605214625597,0,0,0.06605214625597,18.06449890136718,209.34971618652344)"></image><text fill="#000000" font-family="Impact" font-size="50" stroke-opacity="1" stroke-width="1" stroke="#ffffff" x="-98.72634249947717" y="199.47500657859518" transform="matrix(0.2679120898246765,0,0,0.2679120898246765,50.978328704833984,152.75535583496094)" svgjs:data="{&quot;leading&quot;:&quot;1.3&quot;}"><tspan dy="0" x="-98.72634249947717" svgjs:data="{&quot;newLined&quot;:true}">PLAYER</tspan></text><image width="760" height="721" xlink:href="https://lct-designs.s3.us-west-1.amazonaws.com/assets/libs/impact-1-1650275917793.png" class="asset" transform="matrix(0.06605214625597,0,0,0.06605214625597,18.06448745727539,143.0628662109375)"></image><text fill="#000000" font-family="Impact" font-size="50" stroke-opacity="1" stroke-width="1" stroke="#ffffff" x="-98.72634249947717" y="199.47500657859518" transform="matrix(0.2679120898246765,0,0,0.2679120898246765,50.97832489013672,86.46850585937501)" svgjs:data="{&quot;leading&quot;:&quot;1.3&quot;}"><tspan dy="0" x="-98.72634249947717" svgjs:data="{&quot;newLined&quot;:true}">PLAYER</tspan></text><image width="760" height="721" xlink:href="https://lct-designs.s3.us-west-1.amazonaws.com/assets/libs/impact-1-1650275917793.png" class="asset" transform="matrix(0.06605220586061478,0,0,0.06605220586061478,18.064485549926758,76.77602386474611)"></image><text fill="#000000" font-family="Impact" font-size="50" stroke-opacity="1" stroke-width="1" stroke="#ffffff" x="-98.72634249947717" y="199.47500657859518" transform="matrix(0.2679120898246765,0,0,0.2679120898246765,168.2901611328125,85.3932418823242)" svgjs:data="{&quot;leading&quot;:&quot;1.3&quot;}"><tspan dy="0" x="-98.72634249947717" svgjs:data="{&quot;newLined&quot;:true}">PLAYER</tspan></text><image width="760" height="721" xlink:href="https://lct-designs.s3.us-west-1.amazonaws.com/assets/libs/impact-1-1650275917793.png" class="asset" transform="matrix(0.06605220586061478,0,0,0.06605220586061478,135.37632751464844,75.70075988769533)"></image><text fill="#000000" font-family="Impact" font-size="50" stroke-opacity="1" stroke-width="1" stroke="#ffffff" x="-98.72634249947717" y="199.47500657859518" transform="matrix(0.2679120898246765,0,0,0.2679120898246765,112.59123229980466,188.23922729492188)" svgjs:data="{&quot;leading&quot;:&quot;1.3&quot;}"><tspan dy="0" x="-98.72634249947717" svgjs:data="{&quot;newLined&quot;:true}">PLAYER</tspan></text><image width="760" height="721" xlink:href="https://lct-designs.s3.us-west-1.amazonaws.com/assets/libs/impact-1-1650275917793.png" class="asset" transform="matrix(0.06605213135480881,0,0,0.06605213135480881,79.6773910522461,178.54673767089844)"></image><text fill="#000000" font-family="Impact" font-size="50" stroke-opacity="1" stroke-width="1" stroke="#ffffff" x="-98.72634249947717" y="199.47500657859518" transform="matrix(0.2679120898246765,0,0,0.2679120898246765,112.59123229980466,121.95237731933595)" svgjs:data="{&quot;leading&quot;:&quot;1.3&quot;}"><tspan dy="0" x="-98.72634249947717" svgjs:data="{&quot;newLined&quot;:true}">PLAYER</tspan></text><image width="760" height="721" xlink:href="https://lct-designs.s3.us-west-1.amazonaws.com/assets/libs/impact-1-1650275917793.png" class="asset" transform="matrix(0.06605220586061478,0,0,0.06605220586061478,79.6773910522461,112.25989532470702)"></image><text fill="#000000" font-family="Impact" font-size="50" stroke-opacity="1" stroke-width="1" stroke="#ffffff" x="-98.72634249947717" y="199.47500657859518" transform="matrix(0.2679120898246765,0,0,0.2679120898246765,472.80628967285156,219.57984924316406)" svgjs:data="{&quot;leading&quot;:&quot;1.3&quot;}"><tspan dy="0" x="-98.72634249947717" svgjs:data="{&quot;newLined&quot;:true}">PLAYER</tspan></text><image width="760" height="721" xlink:href="https://lct-designs.s3.us-west-1.amazonaws.com/assets/libs/impact-1-1650275917793.png" class="asset" transform="matrix(0.06605213135480881,0,0,0.06605213135480881,439.8924713134765,209.88735961914068)"></image><text fill="#000000" font-family="Impact" font-size="50" stroke-opacity="1" stroke-width="1" stroke="#ffffff" x="-98.72634249947717" y="199.47500657859518" transform="matrix(0.2679120898246765,0,0,0.2679120898246765,472.80630111694336,153.29299926757812)" svgjs:data="{&quot;leading&quot;:&quot;1.3&quot;}"><tspan dy="0" x="-98.72634249947717" svgjs:data="{&quot;newLined&quot;:true}">PLAYER</tspan></text><image width="760" height="721" xlink:href="https://lct-designs.s3.us-west-1.amazonaws.com/assets/libs/impact-1-1650275917793.png" class="asset" transform="matrix(0.06605213135480881,0,0,0.06605213135480881,439.89245986938477,143.6005096435547)"></image><text fill="#000000" font-family="Impact" font-size="50" stroke-opacity="1" stroke-width="1" stroke="#ffffff" x="-98.72634249947717" y="199.47500657859518" transform="matrix(0.2679120898246765,0,0,0.2679120898246765,472.8062973022461,87.00614929199217)" svgjs:data="{&quot;leading&quot;:&quot;1.3&quot;}"><tspan dy="0" x="-98.72634249947717" svgjs:data="{&quot;newLined&quot;:true}">PLAYER</tspan></text><image width="760" height="721" xlink:href="https://lct-designs.s3.us-west-1.amazonaws.com/assets/libs/impact-1-1650275917793.png" class="asset" transform="matrix(0.06605220586061478,0,0,0.06605220586061478,439.89245796203613,77.31366729736327)"></image><text fill="#000000" font-family="Impact" font-size="50" stroke-opacity="1" stroke-width="1" stroke="#ffffff" x="-98.72634249947717" y="199.47500657859518" transform="matrix(0.2679120898246765,0,0,0.2679120898246765,417.75254821777344,189.8521270751953)" svgjs:data="{&quot;leading&quot;:&quot;1.3&quot;}"><tspan dy="0" x="-98.72634249947717" svgjs:data="{&quot;newLined&quot;:true}">PLAYER</tspan></text><image width="760" height="721" xlink:href="https://lct-designs.s3.us-west-1.amazonaws.com/assets/libs/impact-1-1650275917793.png" class="asset" transform="matrix(0.06605211645364761,0,0,0.06605211645364761,384.83870697021484,180.15963745117188)"></image><text fill="#000000" font-family="Impact" font-size="50" stroke-opacity="1" stroke-width="1" stroke="#ffffff" x="-98.72634249947717" y="199.47500657859518" transform="matrix(0.2679120898246765,0,0,0.2679120898246765,417.75254821777344,123.56527709960939)" svgjs:data="{&quot;leading&quot;:&quot;1.3&quot;}"><tspan dy="0" x="-98.72634249947717" svgjs:data="{&quot;newLined&quot;:true}">PLAYER</tspan></text><image width="760" height="721" xlink:href="https://lct-designs.s3.us-west-1.amazonaws.com/assets/libs/impact-1-1650275917793.png" class="asset" transform="matrix(0.06605220586061478,0,0,0.06605220586061478,384.83870697021484,113.87279510498045)"></image><text fill="#000000" font-family="Impact" font-size="50" stroke-opacity="1" stroke-width="1" stroke="#ffffff" x="-98.72634249947717" y="199.47500657859518" transform="matrix(0.2679120898246765,0,0,0.2679120898246765,366.35469818115234,84.31797027587892)" svgjs:data="{&quot;leading&quot;:&quot;1.3&quot;}"><tspan dy="0" x="-98.72634249947717" svgjs:data="{&quot;newLined&quot;:true}">PLAYER</tspan></text><image width="760" height="721" xlink:href="https://lct-designs.s3.us-west-1.amazonaws.com/assets/libs/impact-1-1650275917793.png" class="asset" transform="matrix(0.06605220586061478,0,0,0.06605220586061478,333.4408588409423,74.62548828125001)"></image><image width="760" height="504" xlink:href="https://lct-designs.s3.us-west-1.amazonaws.com/assets/libs/impact-soccer-banner-1655713317477.png" class="asset" transform="matrix(0.27264687418937683,0,0,0.27264687418937683,157.61380004882812,128.64199829101562)"></image><g class="mask" style="pointer-events: none;"><g><path fill="#BCBEC0" d="M-3642.4-2101.7v4589.1h7813.4v-4589.1H-3642.4z M500.5,67.2v233.3v66.7H0.5v-66.7V67.2V0.5h500V67.2z" transform="matrix(1,0,0,1,0,0)"></path><g transform="matrix(1,0,0,1,0,0)">
	<rect x="0.5" y="300.5" opacity="0.95" fill="#F1F2F2" width="500" height="66.7"></rect>
	<rect x="0.5" y="0.5" opacity="0.95" fill="#F1F2F2" width="500" height="66.7"></rect>
</g></g></g></svg>