<svg xmlns="http://www.w3.org/2000/svg" version="1.1" xmlns:xlink="http://www.w3.org/1999/xlink" xmlns:svgjs="http://svgjs.dev/svgjs" width="100%" height="100%" viewBox="1 1 499 365.70001220703125" preserveAspectRatio="none" data-info="{&quot;_id&quot;:4,&quot;name&quot;:&quot;POLE POCKET SOCCER BANNERS&quot;,&quot;information&quot;:&quot;- Size: 3’x5’\n- Material: heavy duty vinyl banner\n- Digitally printed on vinyl&quot;,&quot;price&quot;:&quot;95.00&quot;,&quot;sale_price&quot;:&quot;89.99&quot;,&quot;type&quot;:&quot;pole-pocket&quot;,&quot;cover&quot;:{&quot;key&quot;:&quot;assets/models/pole-1628062864266-1631924568908.png&quot;,&quot;url&quot;:&quot;https://lct-designs.s3.us-west-1.amazonaws.com/assets/models/pole-1628062864266-1631924568908.png&quot;},&quot;back&quot;:{&quot;key&quot;:&quot;assets/models/pole-1631924700152.svg&quot;,&quot;url&quot;:&quot;https://lct-designs.s3.us-west-1.amazonaws.com/assets/models/pole-1631924700152.svg&quot;},&quot;mask&quot;:{&quot;key&quot;:&quot;assets/models/pole-mask-1631925211715.svg&quot;,&quot;url&quot;:&quot;https://lct-designs.s3.us-west-1.amazonaws.com/assets/models/pole-mask-1631925211715.svg&quot;},&quot;pos&quot;:&quot;2&quot;,&quot;accessories&quot;:&quot;2,3&quot;}" style="background-color: white;"><g class="model" style="pointer-events: none;"><polygon fill="#FFFFFF" points="0.5,0.5 0.5,67.2 0.5,300.5 0.5,367.2 500.5,367.2 500.5,300.5 500.5,67.2 500.5,0.5 "></polygon></g><image width="760" height="556" xlink:href="https://lct-designs.s3.us-west-1.amazonaws.com/assets/libs/swarm-1-1652435481771.png" class="asset background locked" transform="matrix(0.6595323960558116,0,0,0.6595323960558116,0,0)"></image><image width="760" height="228" xlink:href="https://lct-designs.s3.us-west-1.amazonaws.com/assets/libs/swarm-2-1652495491350.png" class="asset" transform="matrix(0.41707518696784973,0,0,0.4170751869678498,92.54704284667969,144.3665924072266)"></image><text fill="#ffff00" font-family="DEATHE MAACH NCV" font-size="45" stroke-opacity="1" stroke-width="2" stroke="#000000" x="76.18586010173652" y="200.6983965539972" transform="matrix(0.3983655869960785,0,0,0.39836558699607844,-23.21267509460449,210.40878295898438)" svgjs:data="{&quot;leading&quot;:&quot;1.3&quot;}"><tspan dy="0" x="76.18586010173652" svgjs:data="{&quot;newLined&quot;:true}">Coach:Coach's name</tspan></text><text fill="#ffff00" font-family="DEATHE MAACH NCV" font-size="45" stroke-opacity="1" stroke-width="2" stroke="#000000" x="113.1268696232209" y="200.6983965539972" transform="matrix(0.41827768087387085,0,0,0.4182776808738708,244.39498901367188,206.6813354492187)" svgjs:data="{&quot;leading&quot;:&quot;1.3&quot;}"><tspan dy="0" x="113.1268696232209" svgjs:data="{&quot;newLined&quot;:true}">Team mom:Team mom's name</tspan></text><image width="760" height="391" xlink:href="https://lct-designs.s3.us-west-1.amazonaws.com/assets/libs/swarm-soccer-banner-1656295845625.png" class="asset" transform="matrix(0.08642658591270445,0,0,0.08642658591270448,430.61938476562506,161.6589508056641)"></image><text fill="#ffff00" font-family="DEATHE MAACH NCV" font-size="45" stroke-opacity="1" stroke-width="2" stroke="#000000" x="113.1268696232209" y="200.6983965539972" transform="matrix(0.43693771958351135,0,0,0.4369377195835114,380.1146545410157,126.37310791015625)" svgjs:data="{&quot;leading&quot;:&quot;1.3&quot;}"><tspan dy="0" x="113.1268696232209" svgjs:data="{&quot;newLined&quot;:true}">player</tspan></text><image width="760" height="391" xlink:href="https://lct-designs.s3.us-west-1.amazonaws.com/assets/libs/swarm-soccer-banner-1656295845625.png" class="asset" transform="matrix(0.08642658591270445,0,0,0.08642658591270448,15.849578857421875,161.12126922607425)"></image><text fill="#ffff00" font-family="DEATHE MAACH NCV" font-size="45" stroke-opacity="1" stroke-width="2" stroke="#000000" x="113.1268696232209" y="200.6983965539972" transform="matrix(0.4369376301765442,0,0,0.43693763017654424,-33.579742431640625,125.83542633056643)" svgjs:data="{&quot;leading&quot;:&quot;1.3&quot;}"><tspan dy="0" x="113.1268696232209" svgjs:data="{&quot;newLined&quot;:true}">player</tspan></text><image width="760" height="391" xlink:href="https://lct-designs.s3.us-west-1.amazonaws.com/assets/libs/swarm-soccer-banner-1656295845625.png" class="asset" transform="matrix(0.08642658591270445,0,0,0.08642658591270448,14.778731346130371,82.08182525634766)"></image><image width="760" height="391" xlink:href="https://lct-designs.s3.us-west-1.amazonaws.com/assets/libs/swarm-soccer-banner-1656295845625.png" class="asset" transform="matrix(0.08642658591270445,0,0,0.08642658591270448,114.57185363769534,82.08184814453128)"></image><image width="760" height="391" xlink:href="https://lct-designs.s3.us-west-1.amazonaws.com/assets/libs/swarm-soccer-banner-1656295845625.png" class="asset" transform="matrix(0.08642658591270445,0,0,0.08642658591270448,215.97801208496094,82.08184814453128)"></image><image width="760" height="391" xlink:href="https://lct-designs.s3.us-west-1.amazonaws.com/assets/libs/swarm-soccer-banner-1656295845625.png" class="asset" transform="matrix(0.08642658591270445,0,0,0.08642658591270448,321.3639221191406,82.08184814453128)"></image><image width="760" height="391" xlink:href="https://lct-designs.s3.us-west-1.amazonaws.com/assets/libs/swarm-soccer-banner-1656295845625.png" class="asset" transform="matrix(0.08642658591270445,0,0,0.08642658591270448,422.7700805664063,82.08183288574219)"></image><text fill="#ffff00" font-family="DEATHE MAACH NCV" font-size="45" stroke-opacity="1" stroke-width="2" stroke="#000000" x="113.1268696232209" y="200.6983965539972" transform="matrix(0.43693771958351135,0,0,0.4369377195835114,373.3407592773438,46.795993804931655)" svgjs:data="{&quot;leading&quot;:&quot;1.3&quot;}"><tspan dy="0" x="113.1268696232209" svgjs:data="{&quot;newLined&quot;:true}">player</tspan></text><text fill="#ffff00" font-family="DEATHE MAACH NCV" font-size="45" stroke-opacity="1" stroke-width="2" stroke="#000000" x="113.1268696232209" y="200.6983965539972" transform="matrix(0.4369373321533203,0,0,0.43693733215332037,-34.65058898925781,46.79605484008792)" svgjs:data="{&quot;leading&quot;:&quot;1.3&quot;}"><tspan dy="0" x="113.1268696232209" svgjs:data="{&quot;newLined&quot;:true}">player</tspan></text><text fill="#ffff00" font-family="DEATHE MAACH NCV" font-size="45" stroke-opacity="1" stroke-width="2" stroke="#000000" x="113.1268696232209" y="200.6983965539972" transform="matrix(0.4369376301765442,0,0,0.43693763017654424,65.14253234863281,46.795989990234375)" svgjs:data="{&quot;leading&quot;:&quot;1.3&quot;}"><tspan dy="0" x="113.1268696232209" svgjs:data="{&quot;newLined&quot;:true}">player</tspan></text><text fill="#ffff00" font-family="DEATHE MAACH NCV" font-size="45" stroke-opacity="1" stroke-width="2" stroke="#000000" x="113.1268696232209" y="200.6983965539972" transform="matrix(0.4369376301765442,0,0,0.43693763017654424,166.54867553710938,46.795989990234375)" svgjs:data="{&quot;leading&quot;:&quot;1.3&quot;}"><tspan dy="0" x="113.1268696232209" svgjs:data="{&quot;newLined&quot;:true}">player</tspan></text><text fill="#ffff00" font-family="DEATHE MAACH NCV" font-size="45" stroke-opacity="1" stroke-width="2" stroke="#000000" x="113.1268696232209" y="200.6983965539972" transform="matrix(0.4369376301765442,0,0,0.43693763017654424,271.9346008300781,46.795989990234375)" svgjs:data="{&quot;leading&quot;:&quot;1.3&quot;}"><tspan dy="0" x="113.1268696232209" svgjs:data="{&quot;newLined&quot;:true}">player</tspan></text><image width="760" height="391" xlink:href="https://lct-designs.s3.us-west-1.amazonaws.com/assets/libs/swarm-soccer-banner-1656295845625.png" class="asset" transform="matrix(0.08642658591270445,0,0,0.08642658591270448,202.53138732910153,235.85925292968753)"></image><text fill="#ffff00" font-family="DEATHE MAACH NCV" font-size="45" stroke-opacity="1" stroke-width="2" stroke="#000000" x="113.1268696232209" y="200.6983965539972" transform="matrix(0.43693771958351135,0,0,0.4369377195835114,153.10208129882815,200.57341003417972)" svgjs:data="{&quot;leading&quot;:&quot;1.3&quot;}"><tspan dy="0" x="113.1268696232209" svgjs:data="{&quot;newLined&quot;:true}">player</tspan></text><g class="mask" style="pointer-events: none;"><g><path fill="#BCBEC0" d="M-3642.4-2101.7v4589.1h7813.4v-4589.1H-3642.4z M500.5,67.2v233.3v66.7H0.5v-66.7V67.2V0.5h500V67.2z" transform="matrix(1,0,0,1,0,0)"></path><g transform="matrix(1,0,0,1,0,0)">
	<rect x="0.5" y="300.5" opacity="0.95" fill="#F1F2F2" width="500" height="66.7"></rect>
	<rect x="0.5" y="0.5" opacity="0.95" fill="#F1F2F2" width="500" height="66.7"></rect>
</g></g></g></svg>