<svg xmlns="http://www.w3.org/2000/svg" version="1.1" xmlns:xlink="http://www.w3.org/1999/xlink" xmlns:svgjs="http://svgjs.dev/svgjs" width="100%" height="100%" viewBox="1 1 499 365.70001220703125" preserveAspectRatio="none" data-info="{&quot;_id&quot;:4,&quot;name&quot;:&quot;POLE POCKET SOCCER BANNERS&quot;,&quot;information&quot;:&quot;- Size: 3’x5’\n- Material: heavy duty vinyl banner\n- Digitally printed on vinyl&quot;,&quot;price&quot;:&quot;95.00&quot;,&quot;sale_price&quot;:&quot;89.99&quot;,&quot;type&quot;:&quot;pole-pocket&quot;,&quot;cover&quot;:{&quot;key&quot;:&quot;assets/models/pole-1628062864266-1631924568908.png&quot;,&quot;url&quot;:&quot;https://lct-designs.s3.us-west-1.amazonaws.com/assets/models/pole-1628062864266-1631924568908.png&quot;},&quot;back&quot;:{&quot;key&quot;:&quot;assets/models/pole-1631924700152.svg&quot;,&quot;url&quot;:&quot;https://lct-designs.s3.us-west-1.amazonaws.com/assets/models/pole-1631924700152.svg&quot;},&quot;mask&quot;:{&quot;key&quot;:&quot;assets/models/pole-mask-1631925211715.svg&quot;,&quot;url&quot;:&quot;https://lct-designs.s3.us-west-1.amazonaws.com/assets/models/pole-mask-1631925211715.svg&quot;},&quot;pos&quot;:&quot;2&quot;,&quot;accessories&quot;:&quot;2,3&quot;}" style="background-color: white;"><g class="model" style="pointer-events: none;"><polygon fill="#FFFFFF" points="0.5,0.5 0.5,67.2 0.5,300.5 0.5,367.2 500.5,367.2 500.5,300.5 500.5,67.2 500.5,0.5 "></polygon></g><image width="760" height="556" xlink:href="https://lct-designs.s3.us-west-1.amazonaws.com/assets/libs/braves-2-1656924378016.png" class="asset background locked" transform="matrix(0.6595323960558116,0,0,0.6595323960558116,0,0)"></image><text fill="#ffffff" font-family="Impact" font-size="45" x="196.88127233350318" y="200.48091056834267" stroke-opacity="1" stroke-width="1" stroke="#000000" transform="matrix(0.2917780876159668,0,0,0.29177808761596685,-40.71877670288086,31.66824722290039)" svgjs:data="{&quot;leading&quot;:&quot;1.3&quot;}"><tspan dy="0" x="196.88127233350318" svgjs:data="{&quot;newLined&quot;:true}">Coach: coach's name</tspan></text><text fill="#ffffff" font-family="Impact" font-size="45" x="196.88127233350318" y="200.48091056834267" stroke-opacity="1" stroke-width="1" stroke="#000000" transform="matrix(0.301501989364624,0,0,0.3015019893646241,260.5372314453125,26.40831375122069)" svgjs:data="{&quot;leading&quot;:&quot;1.3&quot;}"><tspan dy="0" x="196.88127233350318" svgjs:data="{&quot;newLined&quot;:true}">Team mom: Team mom's name</tspan></text><image width="592" height="760" xlink:href="https://lct-designs.s3.us-west-1.amazonaws.com/assets/libs/braves-5-1656924378015.png" class="asset" transform="matrix(0.2594214379787445,0,0,0.2594214379787445,36.92598342895508,97.32380676269533)"></image><image width="760" height="144" xlink:href="https://lct-designs.s3.us-west-1.amazonaws.com/assets/libs/braves-1-1656924378016.png" class="asset" transform="matrix(0.3059360980987549,0,0,0.3059360980987549,233.84280395507812,94.72784423828124)"></image><image width="760" height="530" xlink:href="https://lct-designs.s3.us-west-1.amazonaws.com/assets/libs/braves-6-1656924378015.png" class="asset" transform="matrix(0.06257632374763489,0,0,0.0625763237476349,181.2381439208984,147.93572998046875)"></image><text fill="#ffffff" font-family="Impact" font-size="45" stroke-opacity="1" stroke-width="1" stroke="#000000" x="187.89764200621093" y="201.86310526871807" transform="matrix(0.44996428489685053,0,0,0.44996428489685064,92.2946014404297,109.60168457031251)" svgjs:data="{&quot;leading&quot;:&quot;1.3&quot;}"><tspan dy="0" x="187.89764200621093" svgjs:data="{&quot;newLined&quot;:true}">PLAYER</tspan></text><image width="760" height="530" xlink:href="https://lct-designs.s3.us-west-1.amazonaws.com/assets/libs/braves-6-1656924378015.png" class="asset" transform="matrix(0.0625763088464737,0,0,0.06257630884647371,181.23815917968747,217.80471801757818)"></image><text fill="#ffffff" font-family="Impact" font-size="45" stroke-opacity="1" stroke-width="1" stroke="#000000" x="187.89764200621093" y="201.86310526871807" transform="matrix(0.44996428489685053,0,0,0.44996428489685064,92.2946014404297,179.47067260742193)" svgjs:data="{&quot;leading&quot;:&quot;1.3&quot;}"><tspan dy="0" x="187.89764200621093" svgjs:data="{&quot;newLined&quot;:true}">PLAYER</tspan></text><image width="760" height="530" xlink:href="https://lct-designs.s3.us-west-1.amazonaws.com/assets/libs/braves-6-1656924378015.png" class="asset" transform="matrix(0.0625763088464737,0,0,0.06257630884647371,254.55691528320312,148.4815673828125)"></image><text fill="#ffffff" font-family="Impact" font-size="45" stroke-opacity="1" stroke-width="1" stroke="#000000" x="187.89764200621093" y="201.86310526871807" transform="matrix(0.44996428489685053,0,0,0.44996428489685064,165.61337280273438,110.14752197265626)" svgjs:data="{&quot;leading&quot;:&quot;1.3&quot;}"><tspan dy="0" x="187.89764200621093" svgjs:data="{&quot;newLined&quot;:true}">PLAYER</tspan></text><image width="760" height="530" xlink:href="https://lct-designs.s3.us-west-1.amazonaws.com/assets/libs/braves-6-1656924378015.png" class="asset" transform="matrix(0.0625762939453125,0,0,0.06257629394531251,254.5569305419922,218.35055541992188)"></image><text fill="#ffffff" font-family="Impact" font-size="45" stroke-opacity="1" stroke-width="1" stroke="#000000" x="187.89764200621093" y="201.86310526871807" transform="matrix(0.44996428489685053,0,0,0.44996428489685064,165.61337280273438,180.01651000976562)" svgjs:data="{&quot;leading&quot;:&quot;1.3&quot;}"><tspan dy="0" x="187.89764200621093" svgjs:data="{&quot;newLined&quot;:true}">PLAYER</tspan></text><image width="760" height="530" xlink:href="https://lct-designs.s3.us-west-1.amazonaws.com/assets/libs/braves-6-1656924378015.png" class="asset" transform="matrix(0.0625762939453125,0,0,0.06257629394531251,330.6049499511719,147.9357146024704)"></image><text fill="#ffffff" font-family="Impact" font-size="45" stroke-opacity="1" stroke-width="1" stroke="#000000" x="187.89764200621093" y="201.86310526871807" transform="matrix(0.44996428489685053,0,0,0.44996428489685064,241.66140747070312,109.60166919231413)" svgjs:data="{&quot;leading&quot;:&quot;1.3&quot;}"><tspan dy="0" x="187.89764200621093" svgjs:data="{&quot;newLined&quot;:true}">PLAYER</tspan></text><image width="760" height="530" xlink:href="https://lct-designs.s3.us-west-1.amazonaws.com/assets/libs/braves-6-1656924378015.png" class="asset" transform="matrix(0.0625762864947319,0,0,0.0625762864947319,330.6049499511719,217.80470263957983)"></image><text fill="#ffffff" font-family="Impact" font-size="45" stroke-opacity="1" stroke-width="1" stroke="#000000" x="187.89764200621093" y="201.86310526871807" transform="matrix(0.44996428489685053,0,0,0.44996428489685064,241.66140747070312,179.47065722942352)" svgjs:data="{&quot;leading&quot;:&quot;1.3&quot;}"><tspan dy="0" x="187.89764200621093" svgjs:data="{&quot;newLined&quot;:true}">PLAYER</tspan></text><image width="760" height="530" xlink:href="https://lct-designs.s3.us-west-1.amazonaws.com/assets/libs/braves-6-1656924378015.png" class="asset" transform="matrix(0.0625762864947319,0,0,0.0625762864947319,407.74468994140625,148.48156750202185)"></image><text fill="#ffffff" font-family="Impact" font-size="45" stroke-opacity="1" stroke-width="1" stroke="#000000" x="187.89764200621093" y="201.86310526871807" transform="matrix(0.44996428489685053,0,0,0.44996428489685064,318.8011474609375,110.14752209186555)" svgjs:data="{&quot;leading&quot;:&quot;1.3&quot;}"><tspan dy="0" x="187.89764200621093" svgjs:data="{&quot;newLined&quot;:true}">PLAYER</tspan></text><image width="760" height="530" xlink:href="https://lct-designs.s3.us-west-1.amazonaws.com/assets/libs/braves-6-1656924378015.png" class="asset" transform="matrix(0.0625762864947319,0,0,0.0625762864947319,407.74468994140625,218.35055553913122)"></image><text fill="#ffffff" font-family="Impact" font-size="45" stroke-opacity="1" stroke-width="1" stroke="#000000" x="187.89764200621093" y="201.86310526871807" transform="matrix(0.44996428489685053,0,0,0.44996428489685064,318.8011474609375,180.01651012897497)" svgjs:data="{&quot;leading&quot;:&quot;1.3&quot;}"><tspan dy="0" x="187.89764200621093" svgjs:data="{&quot;newLined&quot;:true}">PLAYER</tspan></text><g class="mask" style="pointer-events: none;"><g><path fill="#BCBEC0" d="M-3642.4-2101.7v4589.1h7813.4v-4589.1H-3642.4z M500.5,67.2v233.3v66.7H0.5v-66.7V67.2V0.5h500V67.2z" transform="matrix(1,0,0,1,0,0)"></path><g transform="matrix(1,0,0,1,0,0)">
	<rect x="0.5" y="300.5" opacity="0.95" fill="#F1F2F2" width="500" height="66.7"></rect>
	<rect x="0.5" y="0.5" opacity="0.95" fill="#F1F2F2" width="500" height="66.7"></rect>
</g></g></g></svg>