<svg xmlns="http://www.w3.org/2000/svg" version="1.1" xmlns:xlink="http://www.w3.org/1999/xlink" xmlns:svgjs="http://svgjs.dev/svgjs" width="100%" height="100%" viewBox="1 1 499 365.70001220703125" preserveAspectRatio="none" data-info="{&quot;_id&quot;:4,&quot;name&quot;:&quot;POLE POCKET SOCCER BANNERS&quot;,&quot;information&quot;:&quot;- Size: 3’x5’\n- Material: heavy duty vinyl banner\n- Digitally printed on vinyl&quot;,&quot;price&quot;:&quot;95.00&quot;,&quot;sale_price&quot;:&quot;89.99&quot;,&quot;type&quot;:&quot;pole-pocket&quot;,&quot;cover&quot;:{&quot;key&quot;:&quot;assets/models/pole-1628062864266-1631924568908.png&quot;,&quot;url&quot;:&quot;https://lct-designs.s3.us-west-1.amazonaws.com/assets/models/pole-1628062864266-1631924568908.png&quot;},&quot;back&quot;:{&quot;key&quot;:&quot;assets/models/pole-1631924700152.svg&quot;,&quot;url&quot;:&quot;https://lct-designs.s3.us-west-1.amazonaws.com/assets/models/pole-1631924700152.svg&quot;},&quot;mask&quot;:{&quot;key&quot;:&quot;assets/models/pole-mask-1631925211715.svg&quot;,&quot;url&quot;:&quot;https://lct-designs.s3.us-west-1.amazonaws.com/assets/models/pole-mask-1631925211715.svg&quot;},&quot;pos&quot;:&quot;2&quot;,&quot;accessories&quot;:&quot;2,3&quot;}" style="background-color: white;"><g class="model" style="pointer-events: none;"><polygon fill="#FFFFFF" points="0.5,0.5 0.5,67.2 0.5,300.5 0.5,367.2 500.5,367.2 500.5,300.5 500.5,67.2 500.5,0.5 "></polygon></g><image width="760" height="457" xlink:href="https://lct-designs.s3.us-west-1.amazonaws.com/assets/libs/dynamite-4-1656403070403.png" class="asset background locked" transform="matrix(0.8024069666862487,0,0,0.8024069666862488,-38.00218200683593,0)"></image><text fill="#ffffff" font-family="Impact" font-size="12" x="-28.247602274464754" y="202.0367434271879" transform="matrix(0.9999999999999999,0,0,1,33.11618423461914,93.91964721679688)" svgjs:data="{&quot;leading&quot;:&quot;1.3&quot;}"><tspan dy="0" x="-28.247602274464754" svgjs:data="{&quot;newLined&quot;:true}">Team mom: Team mom's name</tspan></text><text fill="#ffffff" font-family="Impact" font-size="12" x="197.28422755951962" y="188.46454217520426" transform="matrix(0.9999999999999999,0,0,1,-192.95851135253903,-103.69163513183594)" svgjs:data="{&quot;leading&quot;:&quot;1.3&quot;}"><tspan dy="0" x="197.28422755951962" svgjs:data="{&quot;newLined&quot;:true}">Coach: Coach 's name</tspan></text><image width="760" height="525" xlink:href="https://lct-designs.s3.us-west-1.amazonaws.com/assets/libs/dynamite-2-1656403070402.png" class="asset" transform="matrix(0.34349730610847473,0.0065502049401402465,-0.0065502049401402465,0.34349730610847473,138.76318359374997,63.81879806518555)"></image><image width="668" height="760" xlink:href="https://lct-designs.s3.us-west-1.amazonaws.com/assets/libs/dynamite-1-1656403070402.png" class="asset" transform="matrix(0.055791698396205895,0,0,0.0557916983962059,340.13885498046875,224.0123596191406)"></image><text fill="#f2cb07" font-family="Impact" font-size="12" x="234.89532966370663" y="188.46454217520426" stroke-opacity="1" stroke-width="-1" stroke="#000000" transform="matrix(1.4628291130065918,0,0,1.462829351425171,-6.4579162597656214,8.723091125488295)" svgjs:data="{&quot;leading&quot;:&quot;1.3&quot;}"><tspan dy="0" x="234.89532966370663" svgjs:data="{&quot;newLined&quot;:true}">Player</tspan></text><image width="668" height="760" xlink:href="https://lct-designs.s3.us-west-1.amazonaws.com/assets/libs/dynamite-1-1656403070402.png" class="asset" transform="matrix(0.055791698396205895,0,0,0.0557916983962059,161.38745117187497,224.55520629882807)"></image><text fill="#f2cb07" font-family="Impact" font-size="12" x="234.89532966370663" y="188.46454217520426" stroke-opacity="1" stroke-width="-1" stroke="#000000" transform="matrix(1.4628291130065918,0,0,1.462829351425171,-185.20932006835935,9.265945434570312)" svgjs:data="{&quot;leading&quot;:&quot;1.3&quot;}"><tspan dy="0" x="234.89532966370663" svgjs:data="{&quot;newLined&quot;:true}">Player</tspan></text><image width="668" height="760" xlink:href="https://lct-designs.s3.us-west-1.amazonaws.com/assets/libs/dynamite-1-1656403070402.png" class="asset" transform="matrix(0.055791698396205895,0,0,0.0557916983962059,130.30166625976562,83.94719696044925)"></image><text fill="#f2cb07" font-family="Impact" font-size="12" x="234.89532966370663" y="188.46454217520426" stroke-opacity="1" stroke-width="-1" stroke="#000000" transform="matrix(1.4628291130065918,0,0,1.462829351425171,-215.20933532714844,-134.05650329589844)" svgjs:data="{&quot;leading&quot;:&quot;1.3&quot;}"><tspan dy="0" x="234.89532966370663" svgjs:data="{&quot;newLined&quot;:true}">Player</tspan></text><image width="668" height="760" xlink:href="https://lct-designs.s3.us-west-1.amazonaws.com/assets/libs/dynamite-1-1656403070402.png" class="asset" transform="matrix(0.055791698396205895,0,0,0.0557916983962059,65.92599487304686,113.80604553222656)"></image><text fill="#f2cb07" font-family="Impact" font-size="12" x="234.89532966370663" y="188.46454217520426" stroke-opacity="1" stroke-width="-1" stroke="#000000" transform="matrix(1.4628291130065918,0,0,1.462829351425171,-280.6707687377929,-101.48321533203125)" svgjs:data="{&quot;leading&quot;:&quot;1.3&quot;}"><tspan dy="0" x="234.89532966370663" svgjs:data="{&quot;newLined&quot;:true}">Player</tspan></text><image width="668" height="760" xlink:href="https://lct-designs.s3.us-west-1.amazonaws.com/assets/libs/dynamite-1-1656403070402.png" class="asset" transform="matrix(0.055791698396205895,0,0,0.0557916983962059,69.41133880615233,192.5248260498047)"></image><text fill="#f2cb07" font-family="Impact" font-size="12" x="234.89532966370663" y="188.46454217520426" stroke-opacity="1" stroke-width="-1" stroke="#000000" transform="matrix(1.4628291130065918,0,0,1.462829351425171,-277.18542480468744,-22.764434814453125)" svgjs:data="{&quot;leading&quot;:&quot;1.3&quot;}"><tspan dy="0" x="234.89532966370663" svgjs:data="{&quot;newLined&quot;:true}">Player</tspan></text><image width="668" height="760" xlink:href="https://lct-designs.s3.us-west-1.amazonaws.com/assets/libs/dynamite-1-1656403070402.png" class="asset" transform="matrix(0.055791698396205895,0,0,0.0557916983962059,393.2006759643554,80.68987274169919)"></image><text fill="#f2cb07" font-family="Impact" font-size="12" x="234.89532966370663" y="188.46454217520426" stroke-opacity="1" stroke-width="-1" stroke="#000000" transform="matrix(1.4628291130065918,0,0,1.462829351425171,46.60391235351561,-134.5993881225586)" svgjs:data="{&quot;leading&quot;:&quot;1.3&quot;}"><tspan dy="0" x="234.89532966370663" svgjs:data="{&quot;newLined&quot;:true}">Player</tspan></text><image width="668" height="760" xlink:href="https://lct-designs.s3.us-west-1.amazonaws.com/assets/libs/dynamite-1-1656403070402.png" class="asset" transform="matrix(0.055791698396205895,0,0,0.0557916983962059,441.74575805664057,141.4933319091797)"></image><text fill="#f2cb07" font-family="Impact" font-size="12" x="234.89532966370663" y="188.46454217520426" stroke-opacity="1" stroke-width="-1" stroke="#000000" transform="matrix(1.4628291130065918,0,0,1.462829351425171,95.14898681640625,-73.79593658447266)" svgjs:data="{&quot;leading&quot;:&quot;1.3&quot;}"><tspan dy="0" x="234.89532966370663" svgjs:data="{&quot;newLined&quot;:true}">Player</tspan></text><image width="668" height="760" xlink:href="https://lct-designs.s3.us-west-1.amazonaws.com/assets/libs/dynamite-1-1656403070402.png" class="asset" transform="matrix(0.055791698396205895,0,0,0.0557916983962059,411.0291748046874,216.95480346679685)"></image><text fill="#f2cb07" font-family="Impact" font-size="12" x="234.89532966370663" y="188.46454217520426" stroke-opacity="1" stroke-width="-1" stroke="#000000" transform="matrix(1.4628291130065918,0,0,1.462829351425171,64.43240356445312,1.6655349731445312)" svgjs:data="{&quot;leading&quot;:&quot;1.3&quot;}"><tspan dy="0" x="234.89532966370663" svgjs:data="{&quot;newLined&quot;:true}">Player</tspan></text><image width="668" height="760" xlink:href="https://lct-designs.s3.us-west-1.amazonaws.com/assets/libs/dynamite-1-1656403070402.png" class="asset" transform="matrix(0.055791698396205895,0,0,0.0557916983962059,253.50473022460932,233.2414398193359)"></image><text fill="#f2cb07" font-family="Impact" font-size="12" x="234.89532966370663" y="188.46454217520426" stroke-opacity="1" stroke-width="-1" stroke="#000000" transform="matrix(1.4628291130065918,0,0,1.462829351425171,-93.092041015625,17.952171325683608)" svgjs:data="{&quot;leading&quot;:&quot;1.3&quot;}"><tspan dy="0" x="234.89532966370663" svgjs:data="{&quot;newLined&quot;:true}">Player</tspan></text><g class="mask" style="pointer-events: none;"><g><path fill="#BCBEC0" d="M-3642.4-2101.7v4589.1h7813.4v-4589.1H-3642.4z M500.5,67.2v233.3v66.7H0.5v-66.7V67.2V0.5h500V67.2z" transform="matrix(1,0,0,1,0,0)"></path><g transform="matrix(1,0,0,1,0,0)">
	<rect x="0.5" y="300.5" opacity="0.95" fill="#F1F2F2" width="500" height="66.7"></rect>
	<rect x="0.5" y="0.5" opacity="0.95" fill="#F1F2F2" width="500" height="66.7"></rect>
</g></g></g></svg>