<svg xmlns="http://www.w3.org/2000/svg" version="1.1" xmlns:xlink="http://www.w3.org/1999/xlink" xmlns:svgjs="http://svgjs.dev/svgjs" width="100%" height="100%" viewBox="1 1 499 365.70001220703125" preserveAspectRatio="none" data-info="{&quot;_id&quot;:4,&quot;name&quot;:&quot;POLE POCKET SOCCER BANNERS&quot;,&quot;information&quot;:&quot;- Size: 3’x5’\n- Material: heavy duty vinyl banner\n- Digitally printed on vinyl&quot;,&quot;price&quot;:&quot;95.00&quot;,&quot;sale_price&quot;:&quot;89.99&quot;,&quot;type&quot;:&quot;pole-pocket&quot;,&quot;cover&quot;:{&quot;key&quot;:&quot;assets/models/pole-1628062864266-1631924568908.png&quot;,&quot;url&quot;:&quot;https://lct-designs.s3.us-west-1.amazonaws.com/assets/models/pole-1628062864266-1631924568908.png&quot;},&quot;back&quot;:{&quot;key&quot;:&quot;assets/models/pole-1631924700152.svg&quot;,&quot;url&quot;:&quot;https://lct-designs.s3.us-west-1.amazonaws.com/assets/models/pole-1631924700152.svg&quot;},&quot;mask&quot;:{&quot;key&quot;:&quot;assets/models/pole-mask-1631925211715.svg&quot;,&quot;url&quot;:&quot;https://lct-designs.s3.us-west-1.amazonaws.com/assets/models/pole-mask-1631925211715.svg&quot;},&quot;pos&quot;:&quot;2&quot;,&quot;accessories&quot;:&quot;2,3&quot;}" style="background-color: white;"><g class="model" style="pointer-events: none;"><polygon fill="#FFFFFF" points="0.5,0.5 0.5,67.2 0.5,300.5 0.5,367.2 500.5,367.2 500.5,300.5 500.5,67.2 500.5,0.5 "></polygon></g><image width="759" height="454" xlink:href="https://lct-designs.s3.us-west-1.amazonaws.com/assets/libs/champion-1-1656666135413.png" class="asset background locked" transform="matrix(0.807709276676178,0,0,0.8077092766761779,-70.10871124267578,0)"></image><text fill="#000000" font-family="Impact" font-size="45" x="50.877864861049005" y="201.76359325371294" stroke-opacity="1" stroke-width="0" stroke="#000000" transform="matrix(0.221296027302742,0,0,0.22129602730274198,-6.451444149017334,37.381629943847656)" svgjs:data="{&quot;leading&quot;:&quot;1.3&quot;}"><tspan dy="0" x="50.877864861049005" svgjs:data="{&quot;newLined&quot;:true}">COACH: COACH'S NAME</tspan></text><text fill="#000000" font-family="Impact" font-size="45" x="50.877864861049005" y="201.76359325371294" stroke-opacity="1" stroke-width="0" stroke="#000000" transform="matrix(0.221296027302742,0,0,0.22129602730274198,366.5004577636719,35.20772171020508)" svgjs:data="{&quot;leading&quot;:&quot;1.3&quot;}"><tspan dy="0" x="50.877864861049005" svgjs:data="{&quot;newLined&quot;:true}">TEAM MOM: TEAM MOM'S NAME</tspan></text><image width="760" height="626" xlink:href="https://lct-designs.s3.us-west-1.amazonaws.com/assets/libs/champion-3-1656666135412.png" class="asset" transform="matrix(0.23662658035755157,0,0,0.23662658035755155,165.76086425781247,147.05709838867185)"></image><text fill="#000000" font-family="Impact" font-size="16" stroke-opacity="1" stroke-width="0" stroke="#000000" x="191.96452729598332" y="202.0565251875674" transform="matrix(1,0,0,0.9999999999999999,-182.66305541992188,79.89131927490232)" svgjs:data="{&quot;leading&quot;:&quot;1.3&quot;}"><tspan dy="0" x="191.96452729598332" svgjs:data="{&quot;newLined&quot;:true}">Player</tspan></text><image width="760" height="197" xlink:href="https://lct-designs.s3.us-west-1.amazonaws.com/assets/libs/champion-2-1656666135412.png" class="asset" transform="matrix(0.44054582715034485,0,0,0.4405458271503448,80.43478393554686,80.71556091308594)"></image><image width="760" height="754" xlink:href="https://lct-designs.s3.us-west-1.amazonaws.com/assets/libs/champion-1633150968744.png" class="asset" transform="matrix(0.03499388322234154,0,0,0.03499388322234153,16.907005310058594,112.54907989501953)"></image><text fill="#000000" font-family="Impact" font-size="16" stroke-opacity="1" stroke-width="0" stroke="#000000" x="191.96452729598332" y="202.0565251875674" transform="matrix(1,0,0,0.9999999999999999,-182.66302490234375,-49.99999999999999)" svgjs:data="{&quot;leading&quot;:&quot;1.3&quot;}"><tspan dy="0" x="191.96452729598332" svgjs:data="{&quot;newLined&quot;:true}">Player</tspan></text><image width="760" height="754" xlink:href="https://lct-designs.s3.us-west-1.amazonaws.com/assets/libs/champion-1633150968744.png" class="asset" transform="matrix(0.03499388322234154,0,0,0.03499388322234153,16.90700340270996,179.39691162109375)"></image><text fill="#000000" font-family="Impact" font-size="16" stroke-opacity="1" stroke-width="0" stroke="#000000" x="191.96452729598332" y="202.0565251875674" transform="matrix(1,0,0,0.9999999999999999,-182.66302490234375,16.847831726074205)" svgjs:data="{&quot;leading&quot;:&quot;1.3&quot;}"><tspan dy="0" x="191.96452729598332" svgjs:data="{&quot;newLined&quot;:true}">Player</tspan></text><image width="760" height="754" xlink:href="https://lct-designs.s3.us-west-1.amazonaws.com/assets/libs/champion-1633150968744.png" class="asset" transform="matrix(0.03499388322234154,0,0,0.03499388322234153,16.90700340270996,242.44039916992188)"></image><image width="760" height="754" xlink:href="https://lct-designs.s3.us-west-1.amazonaws.com/assets/libs/champion-1633150968744.png" class="asset" transform="matrix(0.03499388322234154,0,0,0.03499388322234153,72.01570320129395,153.30995178222656)"></image><text fill="#000000" font-family="Impact" font-size="16" stroke-opacity="1" stroke-width="0" stroke="#000000" x="191.96452729598332" y="202.0565251875674" transform="matrix(1,0,0,0.9999999999999999,-127.55432510375977,-9.239128112792969)" svgjs:data="{&quot;leading&quot;:&quot;1.3&quot;}"><tspan dy="0" x="191.96452729598332" svgjs:data="{&quot;newLined&quot;:true}">Player</tspan></text><image width="760" height="754" xlink:href="https://lct-designs.s3.us-west-1.amazonaws.com/assets/libs/champion-1633150968744.png" class="asset" transform="matrix(0.03499388322234154,0,0,0.03499388322234153,72.01570129394531,216.3534393310547)"></image><text fill="#000000" font-family="Impact" font-size="16" stroke-opacity="1" stroke-width="0" stroke="#000000" x="191.96452729598332" y="202.0565251875674" transform="matrix(1,0,0,0.9999999999999999,-127.55435180664062,53.80435943603513)" svgjs:data="{&quot;leading&quot;:&quot;1.3&quot;}"><tspan dy="0" x="191.96452729598332" svgjs:data="{&quot;newLined&quot;:true}">Player</tspan></text><image width="760" height="754" xlink:href="https://lct-designs.s3.us-west-1.amazonaws.com/assets/libs/champion-1633150968744.png" class="asset" transform="matrix(0.03499388322234154,0,0,0.03499388322234153,120.602653503418,187.549087524414)"></image><text fill="#000000" font-family="Impact" font-size="16" stroke-opacity="1" stroke-width="0" stroke="#000000" x="191.96452729598332" y="202.0565251875674" transform="matrix(1,0,0,0.9999999999999999,-78.96739959716797,25.00000762939453)" svgjs:data="{&quot;leading&quot;:&quot;1.3&quot;}"><tspan dy="0" x="191.96452729598332" svgjs:data="{&quot;newLined&quot;:true}">Player</tspan></text><image width="760" height="754" xlink:href="https://lct-designs.s3.us-west-1.amazonaws.com/assets/libs/champion-1633150968744.png" class="asset" transform="matrix(0.03499388322234154,0,0,0.03499388322234153,454.6243896484375,113.09256744384763)"></image><text fill="#000000" font-family="Impact" font-size="16" stroke-opacity="1" stroke-width="0" stroke="#000000" x="191.96452729598332" y="202.0565251875674" transform="matrix(1,0,0,0.9999999999999999,255.05435180664062,-49.45651245117187)" svgjs:data="{&quot;leading&quot;:&quot;1.3&quot;}"><tspan dy="0" x="191.96452729598332" svgjs:data="{&quot;newLined&quot;:true}">Player</tspan></text><image width="760" height="754" xlink:href="https://lct-designs.s3.us-west-1.amazonaws.com/assets/libs/champion-1633150968744.png" class="asset" transform="matrix(0.03499388322234154,0,0,0.03499388322234153,454.6243896484375,179.94039916992182)"></image><text fill="#000000" font-family="Impact" font-size="16" stroke-opacity="1" stroke-width="0" stroke="#000000" x="191.96452729598332" y="202.0565251875674" transform="matrix(1,0,0,0.9999999999999999,255.05435180664062,17.391319274902344)" svgjs:data="{&quot;leading&quot;:&quot;1.3&quot;}"><tspan dy="0" x="191.96452729598332" svgjs:data="{&quot;newLined&quot;:true}">Player</tspan></text><image width="760" height="754" xlink:href="https://lct-designs.s3.us-west-1.amazonaws.com/assets/libs/champion-1633150968744.png" class="asset" transform="matrix(0.03499388322234154,0,0,0.03499388322234153,454.6243896484375,242.98388671874994)"></image><text fill="#000000" font-family="Impact" font-size="16" stroke-opacity="1" stroke-width="0" stroke="#000000" x="191.96452729598332" y="202.0565251875674" transform="matrix(1,0,0,0.9999999999999999,255.0543212890625,80.43480682373044)" svgjs:data="{&quot;leading&quot;:&quot;1.3&quot;}"><tspan dy="0" x="191.96452729598332" svgjs:data="{&quot;newLined&quot;:true}">Player</tspan></text><image width="760" height="754" xlink:href="https://lct-designs.s3.us-west-1.amazonaws.com/assets/libs/champion-1633150968744.png" class="asset" transform="matrix(0.03499388322234154,0,0,0.03499388322234153,405.9287414550781,144.61430358886716)"></image><text fill="#000000" font-family="Impact" font-size="16" stroke-opacity="1" stroke-width="0" stroke="#000000" x="191.96452729598332" y="202.0565251875674" transform="matrix(1,0,0,0.9999999999999999,206.35870361328122,-17.934776306152344)" svgjs:data="{&quot;leading&quot;:&quot;1.3&quot;}"><tspan dy="0" x="191.96452729598332" svgjs:data="{&quot;newLined&quot;:true}">Player</tspan></text><image width="760" height="754" xlink:href="https://lct-designs.s3.us-west-1.amazonaws.com/assets/libs/champion-1633150968744.png" class="asset" transform="matrix(0.03499388322234154,0,0,0.03499388322234153,405.9287414550781,207.6577911376953)"></image><text fill="#000000" font-family="Impact" font-size="16" stroke-opacity="1" stroke-width="0" stroke="#000000" x="191.96452729598332" y="202.0565251875674" transform="matrix(1,0,0,0.9999999999999999,206.35867309570312,45.10871124267578)" svgjs:data="{&quot;leading&quot;:&quot;1.3&quot;}"><tspan dy="0" x="191.96452729598332" svgjs:data="{&quot;newLined&quot;:true}">Player</tspan></text><image width="760" height="754" xlink:href="https://lct-designs.s3.us-west-1.amazonaws.com/assets/libs/champion-1633150968744.png" class="asset" transform="matrix(0.03499388322234154,0,0,0.03499388322234153,357.23309326171875,179.3969268798828)"></image><text fill="#000000" font-family="Impact" font-size="16" stroke-opacity="1" stroke-width="0" stroke="#000000" x="191.96452729598332" y="202.0565251875674" transform="matrix(1,0,0,0.9999999999999999,157.66302490234372,16.84784698486328)" svgjs:data="{&quot;leading&quot;:&quot;1.3&quot;}"><tspan dy="0" x="191.96452729598332" svgjs:data="{&quot;newLined&quot;:true}">Player</tspan></text><g class="mask" style="pointer-events: none;"><g><path fill="#BCBEC0" d="M-3642.4-2101.7v4589.1h7813.4v-4589.1H-3642.4z M500.5,67.2v233.3v66.7H0.5v-66.7V67.2V0.5h500V67.2z" transform="matrix(1,0,0,1,0,0)"></path><g transform="matrix(1,0,0,1,0,0)">
	<rect x="0.5" y="300.5" opacity="0.95" fill="#F1F2F2" width="500" height="66.7"></rect>
	<rect x="0.5" y="0.5" opacity="0.95" fill="#F1F2F2" width="500" height="66.7"></rect>
</g></g></g></svg>