<svg xmlns="http://www.w3.org/2000/svg" version="1.1" xmlns:xlink="http://www.w3.org/1999/xlink" xmlns:svgjs="http://svgjs.dev/svgjs" width="100%" height="100%" viewBox="1 1 499 365.70001220703125" preserveAspectRatio="none" data-info="{&quot;_id&quot;:4,&quot;name&quot;:&quot;POLE POCKET SOCCER BANNERS&quot;,&quot;information&quot;:&quot;- Size: 3’x5’\n- Material: heavy duty vinyl banner\n- Digitally printed on vinyl&quot;,&quot;price&quot;:&quot;95.00&quot;,&quot;sale_price&quot;:&quot;89.99&quot;,&quot;type&quot;:&quot;pole-pocket&quot;,&quot;cover&quot;:{&quot;key&quot;:&quot;assets/models/pole-1628062864266-1631924568908.png&quot;,&quot;url&quot;:&quot;https://lct-designs.s3.us-west-1.amazonaws.com/assets/models/pole-1628062864266-1631924568908.png&quot;},&quot;back&quot;:{&quot;key&quot;:&quot;assets/models/pole-1631924700152.svg&quot;,&quot;url&quot;:&quot;https://lct-designs.s3.us-west-1.amazonaws.com/assets/models/pole-1631924700152.svg&quot;},&quot;mask&quot;:{&quot;key&quot;:&quot;assets/models/pole-mask-1631925211715.svg&quot;,&quot;url&quot;:&quot;https://lct-designs.s3.us-west-1.amazonaws.com/assets/models/pole-mask-1631925211715.svg&quot;},&quot;pos&quot;:&quot;2&quot;,&quot;accessories&quot;:&quot;2,3&quot;}" style="background-color: white;"><g class="model" style="pointer-events: none;"><polygon fill="#FFFFFF" points="0.5,0.5 0.5,67.2 0.5,300.5 0.5,367.2 500.5,367.2 500.5,300.5 500.5,67.2 500.5,0.5 "></polygon></g><image width="760" height="556" xlink:href="https://lct-designs.s3.us-west-1.amazonaws.com/assets/libs/happy-trolls-1633515464328.png" class="asset background locked" transform="matrix(0.6595323960558116,0,0,0.6595323960558116,0,0)"></image><text fill="#000000" font-family="Impact" font-size="45" x="196.88127233350318" y="200.48091056834267" stroke-opacity="1" stroke-width="1" stroke="#ffffff" transform="matrix(0.32310768961906433,0,0,0.32310768961906433,-49.1407470703125,26.13854217529297)" svgjs:data="{&quot;leading&quot;:&quot;1.3&quot;}"><tspan dy="0" x="196.88127233350318" svgjs:data="{&quot;newLined&quot;:true}">Coach: choach's name</tspan></text><text fill="#000000" font-family="Impact" font-size="45" x="196.88127233350318" y="200.48091056834267" stroke-opacity="1" stroke-width="1" stroke="#ffffff" transform="matrix(0.33387577533721924,0,0,0.33387577533721924,233.9077911376953,23.97971916198736)" svgjs:data="{&quot;leading&quot;:&quot;1.3&quot;}"><tspan dy="0" x="196.88127233350318" svgjs:data="{&quot;newLined&quot;:true}">Team mom: Team mom's name</tspan></text><text fill="#000000" font-family="Impact" font-size="45" x="196.88127233350318" y="200.48091056834267" transform="matrix(0.35216090958376967,0,0,0.35216090958376967,-51.67524401943774,155.12627173053806)" svgjs:data="{&quot;leading&quot;:&quot;1.3&quot;}"><tspan dy="0" x="196.88127233350318" svgjs:data="{&quot;newLined&quot;:true}">player</tspan></text><text fill="#000000" font-family="Impact" font-size="45" x="196.88127233350318" y="200.48091056834267" transform="matrix(0.35216090958376967,0,0,0.35216090958376967,39.93319451075969,155.12628765958289)" svgjs:data="{&quot;leading&quot;:&quot;1.3&quot;}"><tspan dy="0" x="196.88127233350318" svgjs:data="{&quot;newLined&quot;:true}">player</tspan></text><text fill="#000000" font-family="Impact" font-size="45" x="196.88127233350318" y="200.48091056834267" transform="matrix(0.35216090958376967,0,0,0.35216090958376967,129.8506136072874,155.12625580149327)" svgjs:data="{&quot;leading&quot;:&quot;1.3&quot;}"><tspan dy="0" x="196.88127233350318" svgjs:data="{&quot;newLined&quot;:true}">player</tspan></text><text fill="#000000" font-family="Impact" font-size="45" x="196.88127233350318" y="200.48091056834267" transform="matrix(0.35216090958376967,0,0,0.35216090958376967,223.15007953567695,155.12627173053806)" svgjs:data="{&quot;leading&quot;:&quot;1.3&quot;}"><tspan dy="0" x="196.88127233350318" svgjs:data="{&quot;newLined&quot;:true}">player</tspan></text><image width="760" height="760" xlink:href="https://lct-designs.s3.us-west-1.amazonaws.com/assets/libs/happy-trolls-2-1655697923127.png" class="asset" transform="matrix(0.049841876243725824,0,0,0.049841876243725824,19.694729797516633,171.6869509657736)"></image><image width="760" height="760" xlink:href="https://lct-designs.s3.us-west-1.amazonaws.com/assets/libs/happy-trolls-2-1655697923127.png" class="asset" transform="matrix(0.049841876243725824,0,0,0.049841876243725824,111.30316832771408,171.68696689481837)"></image><image width="760" height="760" xlink:href="https://lct-designs.s3.us-west-1.amazonaws.com/assets/libs/happy-trolls-2-1655697923127.png" class="asset" transform="matrix(0.049841876243725824,0,0,0.049841876243725824,201.2205953887642,171.68693503672878)"></image><image width="760" height="760" xlink:href="https://lct-designs.s3.us-west-1.amazonaws.com/assets/libs/happy-trolls-2-1655697923127.png" class="asset" transform="matrix(0.049841876243725824,0,0,0.049841876243725824,294.5200692816761,171.6869509657736)"></image><text fill="#000000" font-family="Impact" font-size="45" x="196.88127233350318" y="200.48091056834267" transform="matrix(0.35216090958376967,0,0,0.35216090958376967,-5.160776521601296,213.1847728748344)" svgjs:data="{&quot;leading&quot;:&quot;1.3&quot;}"><tspan dy="0" x="196.88127233350318" svgjs:data="{&quot;newLined&quot;:true}">player</tspan></text><text fill="#000000" font-family="Impact" font-size="45" x="196.88127233350318" y="200.48091056834267" transform="matrix(0.35216090958376967,0,0,0.35216090958376967,86.44766200859613,213.18478880387917)" svgjs:data="{&quot;leading&quot;:&quot;1.3&quot;}"><tspan dy="0" x="196.88127233350318" svgjs:data="{&quot;newLined&quot;:true}">player</tspan></text><text fill="#000000" font-family="Impact" font-size="45" x="196.88127233350318" y="200.48091056834267" transform="matrix(0.35216090958376967,0,0,0.35216090958376967,176.36508906964627,213.18475694578953)" svgjs:data="{&quot;leading&quot;:&quot;1.3&quot;}"><tspan dy="0" x="196.88127233350318" svgjs:data="{&quot;newLined&quot;:true}">player</tspan></text><text fill="#000000" font-family="Impact" font-size="45" x="196.88127233350318" y="200.48091056834267" transform="matrix(0.35216090958376967,0,0,0.35216090958376967,269.6645470335134,213.1847728748344)" svgjs:data="{&quot;leading&quot;:&quot;1.3&quot;}"><tspan dy="0" x="196.88127233350318" svgjs:data="{&quot;newLined&quot;:true}">player</tspan></text><image width="760" height="760" xlink:href="https://lct-designs.s3.us-west-1.amazonaws.com/assets/libs/happy-trolls-2-1655697923127.png" class="asset" transform="matrix(0.049841876243725824,0,0,0.049841876243725824,66.20919729535309,229.74545211006992)"></image><image width="760" height="760" xlink:href="https://lct-designs.s3.us-west-1.amazonaws.com/assets/libs/happy-trolls-2-1655697923127.png" class="asset" transform="matrix(0.049841876243725824,0,0,0.049841876243725824,157.8176278610281,229.74546803911468)"></image><image width="760" height="760" xlink:href="https://lct-designs.s3.us-west-1.amazonaws.com/assets/libs/happy-trolls-2-1655697923127.png" class="asset" transform="matrix(0.049841876243725824,0,0,0.049841876243725824,247.73506288660064,229.74543618102504)"></image><image width="760" height="760" xlink:href="https://lct-designs.s3.us-west-1.amazonaws.com/assets/libs/happy-trolls-2-1655697923127.png" class="asset" transform="matrix(0.049841876243725824,0,0,0.049841876243725824,341.0345367795126,229.74545211006992)"></image><image width="760" height="162" xlink:href="https://lct-designs.s3.us-west-1.amazonaws.com/assets/libs/happy-trolls-123-1655712042918.png" class="asset" transform="matrix(0.3663221597671509,0,0,0.3663221597671509,115.48775482177734,101.91266632080078)"></image><image width="643" height="760" xlink:href="https://lct-designs.s3.us-west-1.amazonaws.com/assets/libs/happy-trolls-2-1649403270019.png" class="asset" transform="matrix(0.13852889835834503,0,0,0.13852889835834503,396.71484375000006,177.06172180175784)"></image><g class="mask" style="pointer-events: none;"><g><path fill="#BCBEC0" d="M-3642.4-2101.7v4589.1h7813.4v-4589.1H-3642.4z M500.5,67.2v233.3v66.7H0.5v-66.7V67.2V0.5h500V67.2z" transform="matrix(1,0,0,1,0,0)"></path><g transform="matrix(1,0,0,1,0,0)">
	<rect x="0.5" y="300.5" opacity="0.95" fill="#F1F2F2" width="500" height="66.7"></rect>
	<rect x="0.5" y="0.5" opacity="0.95" fill="#F1F2F2" width="500" height="66.7"></rect>
</g></g></g></svg>