<svg xmlns="http://www.w3.org/2000/svg" version="1.1" xmlns:xlink="http://www.w3.org/1999/xlink" xmlns:svgjs="http://svgjs.dev/svgjs" width="100%" height="100%" viewBox="1 1 499 365.70001220703125" preserveAspectRatio="none" data-info="{&quot;_id&quot;:4,&quot;name&quot;:&quot;POLE POCKET SOCCER BANNERS&quot;,&quot;information&quot;:&quot;- Size: 3’x5’\n- Material: heavy duty vinyl banner\n- Digitally printed on vinyl&quot;,&quot;price&quot;:&quot;95.00&quot;,&quot;sale_price&quot;:&quot;89.99&quot;,&quot;type&quot;:&quot;pole-pocket&quot;,&quot;cover&quot;:{&quot;key&quot;:&quot;assets/models/pole-1628062864266-1631924568908.png&quot;,&quot;url&quot;:&quot;https://lct-designs.s3.us-west-1.amazonaws.com/assets/models/pole-1628062864266-1631924568908.png&quot;},&quot;back&quot;:{&quot;key&quot;:&quot;assets/models/pole-1631924700152.svg&quot;,&quot;url&quot;:&quot;https://lct-designs.s3.us-west-1.amazonaws.com/assets/models/pole-1631924700152.svg&quot;},&quot;mask&quot;:{&quot;key&quot;:&quot;assets/models/pole-mask-1631925211715.svg&quot;,&quot;url&quot;:&quot;https://lct-designs.s3.us-west-1.amazonaws.com/assets/models/pole-mask-1631925211715.svg&quot;},&quot;pos&quot;:&quot;2&quot;,&quot;accessories&quot;:&quot;2,3&quot;}" style="background-color: white;"><g class="model" style="pointer-events: none;"><polygon fill="#FFFFFF" points="0.5,0.5 0.5,67.2 0.5,300.5 0.5,367.2 500.5,367.2 500.5,300.5 500.5,67.2 500.5,0.5 "></polygon></g><image width="760" height="556" xlink:href="https://lct-designs.s3.us-west-1.amazonaws.com/assets/libs/golden-girls-3-1657513301655.png" class="asset background locked" transform="matrix(0.6595323960558116,0,0,0.6595323960558116,0,0)"></image><text fill="#ffffff" font-family="Impact" font-size="20" x="50.877864861049005" y="201.76359325371294" stroke-opacity="1" stroke-width="-0.5" stroke="#000000" transform="matrix(0.490454912185669,0,0,0.49045491218566895,379.3074340820312,-2.8686259388923645)" svgjs:data="{&quot;leading&quot;:&quot;1.3&quot;}"><tspan dy="0" x="50.877864861049005" svgjs:data="{&quot;newLined&quot;:true}">COACH: COACH'S NAME</tspan></text><text fill="#ffffff" font-family="Impact" font-size="20" x="50.877864861049005" y="201.76359325371294" stroke-opacity="1" stroke-width="-0.5" stroke="#000000" transform="matrix(0.4978054165840149,0,0,0.49780541658401495,347.02584838867193,-18.053533554077156)" svgjs:data="{&quot;leading&quot;:&quot;1.3&quot;}"><tspan dy="0" x="50.877864861049005" svgjs:data="{&quot;newLined&quot;:true}">TEAM MOM: TEAM MOM'S NAME</tspan></text><image width="760" height="750" xlink:href="https://lct-designs.s3.us-west-1.amazonaws.com/assets/libs/golden-girls-6-1657513301654.png" class="asset" transform="matrix(0.21316909790039062,0,0,0.21316909790039062,309.6081848144531,118.82456970214844)"></image><image width="760" height="441" xlink:href="https://lct-designs.s3.us-west-1.amazonaws.com/assets/libs/golden-girls-7-1657513301654.png" class="asset" transform="matrix(0.24216762185096743,0,0,0.24216762185096743,64.27037048339844,70.59857940673828)"></image><image width="760" height="760" xlink:href="https://lct-designs.s3.us-west-1.amazonaws.com/assets/libs/golden-girls-1-1657513301655.png" class="asset" transform="matrix(0.049851652234792716,0,0,0.04985165223479271,13.468815803527832,177.5196533203125)"></image><text fill="#ffc300" font-family="Impact" font-size="16" stroke-opacity="1" stroke-width="-0.5" stroke="#000000" x="229.59788183888293" y="190.29140971964458" transform="matrix(1,0,0,1,-218.08758544921875,37.728225708007805)" svgjs:data="{&quot;leading&quot;:&quot;1.3&quot;}"><tspan dy="0" x="229.59788183888293" svgjs:data="{&quot;newLined&quot;:true}">Player</tspan></text><image width="760" height="760" xlink:href="https://lct-designs.s3.us-west-1.amazonaws.com/assets/libs/golden-girls-1-1657513301655.png" class="asset" transform="matrix(0.049851652234792716,0,0,0.04985165223479271,75.46015930175781,177.05955505371094)"></image><text fill="#ffc300" font-family="Impact" font-size="16" stroke-opacity="1" stroke-width="-0.5" stroke="#000000" x="229.59788183888293" y="190.29140971964458" transform="matrix(1,0,0,1,-156.0962371826172,37.26812744140624)" svgjs:data="{&quot;leading&quot;:&quot;1.3&quot;}"><tspan dy="0" x="229.59788183888293" svgjs:data="{&quot;newLined&quot;:true}">Player</tspan></text><image width="760" height="760" xlink:href="https://lct-designs.s3.us-west-1.amazonaws.com/assets/libs/golden-girls-1-1657513301655.png" class="asset" transform="matrix(0.049851652234792716,0,0,0.04985165223479271,136.5312957763672,176.59945678710938)"></image><text fill="#ffc300" font-family="Impact" font-size="16" stroke-opacity="1" stroke-width="-0.5" stroke="#000000" x="229.59788183888293" y="190.29140971964458" transform="matrix(1,0,0,1,-95.02510070800783,36.808029174804695)" svgjs:data="{&quot;leading&quot;:&quot;1.3&quot;}"><tspan dy="0" x="229.59788183888293" svgjs:data="{&quot;newLined&quot;:true}">Player</tspan></text><image width="760" height="760" xlink:href="https://lct-designs.s3.us-west-1.amazonaws.com/assets/libs/golden-girls-1-1657513301655.png" class="asset" transform="matrix(0.049851652234792716,0,0,0.04985165223479271,197.60243225097656,176.59945678710938)"></image><text fill="#ffc300" font-family="Impact" font-size="16" stroke-opacity="1" stroke-width="-0.5" stroke="#000000" x="229.59788183888293" y="190.29140971964458" transform="matrix(1,0,0,1,-33.95396423339844,36.808029174804695)" svgjs:data="{&quot;leading&quot;:&quot;1.3&quot;}"><tspan dy="0" x="229.59788183888293" svgjs:data="{&quot;newLined&quot;:true}">Player</tspan></text><image width="760" height="760" xlink:href="https://lct-designs.s3.us-west-1.amazonaws.com/assets/libs/golden-girls-1-1657513301655.png" class="asset" transform="matrix(0.049851652234792716,0,0,0.04985165223479271,259.1336669921875,176.59945678710938)"></image><text fill="#ffc300" font-family="Impact" font-size="16" stroke-opacity="1" stroke-width="-0.5" stroke="#000000" x="229.59788183888293" y="190.29140971964458" transform="matrix(1,0,0,1,27.5772705078125,36.808029174804695)" svgjs:data="{&quot;leading&quot;:&quot;1.3&quot;}"><tspan dy="0" x="229.59788183888293" svgjs:data="{&quot;newLined&quot;:true}">Player</tspan></text><image width="760" height="760" xlink:href="https://lct-designs.s3.us-west-1.amazonaws.com/assets/libs/golden-girls-1-1657513301655.png" class="asset" transform="matrix(0.049851652234792716,0,0,0.04985165223479271,13.806707382202163,239.63319396972653)"></image><text fill="#ffc300" font-family="Impact" font-size="16" stroke-opacity="1" stroke-width="-0.5" stroke="#000000" x="229.59788183888293" y="190.29140971964458" transform="matrix(1,0,0,1,-217.74969482421875,99.84176635742185)" svgjs:data="{&quot;leading&quot;:&quot;1.3&quot;}"><tspan dy="0" x="229.59788183888293" svgjs:data="{&quot;newLined&quot;:true}">Player</tspan></text><image width="760" height="760" xlink:href="https://lct-designs.s3.us-west-1.amazonaws.com/assets/libs/golden-girls-1-1657513301655.png" class="asset" transform="matrix(0.049851652234792716,0,0,0.04985165223479271,75.79804992675778,239.17309570312497)"></image><text fill="#ffc300" font-family="Impact" font-size="16" stroke-opacity="1" stroke-width="-0.5" stroke="#000000" x="229.59788183888293" y="190.29140971964458" transform="matrix(1,0,0,1,-155.7583465576172,99.38166809082031)" svgjs:data="{&quot;leading&quot;:&quot;1.3&quot;}"><tspan dy="0" x="229.59788183888293" svgjs:data="{&quot;newLined&quot;:true}">Player</tspan></text><image width="760" height="760" xlink:href="https://lct-designs.s3.us-west-1.amazonaws.com/assets/libs/golden-girls-1-1657513301655.png" class="asset" transform="matrix(0.049851652234792716,0,0,0.04985165223479271,136.8691864013672,238.71299743652347)"></image><text fill="#ffc300" font-family="Impact" font-size="16" stroke-opacity="1" stroke-width="-0.5" stroke="#000000" x="229.59788183888293" y="190.29140971964458" transform="matrix(1,0,0,1,-94.68721008300783,98.92156982421875)" svgjs:data="{&quot;leading&quot;:&quot;1.3&quot;}"><tspan dy="0" x="229.59788183888293" svgjs:data="{&quot;newLined&quot;:true}">Player</tspan></text><image width="760" height="760" xlink:href="https://lct-designs.s3.us-west-1.amazonaws.com/assets/libs/golden-girls-1-1657513301655.png" class="asset" transform="matrix(0.049851652234792716,0,0,0.04985165223479271,197.94032287597656,238.71299743652347)"></image><text fill="#ffc300" font-family="Impact" font-size="16" stroke-opacity="1" stroke-width="-0.5" stroke="#000000" x="229.59788183888293" y="190.29140971964458" transform="matrix(1,0,0,1,-33.61607360839845,98.92156982421875)" svgjs:data="{&quot;leading&quot;:&quot;1.3&quot;}"><tspan dy="0" x="229.59788183888293" svgjs:data="{&quot;newLined&quot;:true}">Player</tspan></text><image width="760" height="760" xlink:href="https://lct-designs.s3.us-west-1.amazonaws.com/assets/libs/golden-girls-1-1657513301655.png" class="asset" transform="matrix(0.049851652234792716,0,0,0.04985165223479271,259.4715576171875,238.71299743652347)"></image><text fill="#ffc300" font-family="Impact" font-size="16" stroke-opacity="1" stroke-width="-0.5" stroke="#000000" x="229.59788183888293" y="190.29140971964458" transform="matrix(1,0,0,1,27.9151611328125,98.92156982421875)" svgjs:data="{&quot;leading&quot;:&quot;1.3&quot;}"><tspan dy="0" x="229.59788183888293" svgjs:data="{&quot;newLined&quot;:true}">Player</tspan></text><g class="mask" style="pointer-events: none;"><g><path fill="#BCBEC0" d="M-3642.4-2101.7v4589.1h7813.4v-4589.1H-3642.4z M500.5,67.2v233.3v66.7H0.5v-66.7V67.2V0.5h500V67.2z" transform="matrix(1,0,0,1,0,0)"></path><g transform="matrix(1,0,0,1,0,0)">
	<rect x="0.5" y="300.5" opacity="0.95" fill="#F1F2F2" width="500" height="66.7"></rect>
	<rect x="0.5" y="0.5" opacity="0.95" fill="#F1F2F2" width="500" height="66.7"></rect>
</g></g></g></svg>