<svg xmlns="http://www.w3.org/2000/svg" version="1.1" xmlns:xlink="http://www.w3.org/1999/xlink" xmlns:svgjs="http://svgjs.dev/svgjs" width="100%" height="100%" viewBox="1 1 499 365.70001220703125" preserveAspectRatio="none" data-info="{&quot;_id&quot;:4,&quot;name&quot;:&quot;POLE POCKET SOCCER BANNERS&quot;,&quot;information&quot;:&quot;- Size: 3’x5’\n- Material: heavy duty vinyl banner\n- Digitally printed on vinyl&quot;,&quot;price&quot;:&quot;95.00&quot;,&quot;sale_price&quot;:&quot;89.99&quot;,&quot;type&quot;:&quot;pole-pocket&quot;,&quot;cover&quot;:{&quot;key&quot;:&quot;assets/models/pole-1628062864266-1631924568908.png&quot;,&quot;url&quot;:&quot;https://lct-designs.s3.us-west-1.amazonaws.com/assets/models/pole-1628062864266-1631924568908.png&quot;},&quot;back&quot;:{&quot;key&quot;:&quot;assets/models/pole-1631924700152.svg&quot;,&quot;url&quot;:&quot;https://lct-designs.s3.us-west-1.amazonaws.com/assets/models/pole-1631924700152.svg&quot;},&quot;mask&quot;:{&quot;key&quot;:&quot;assets/models/pole-mask-1631925211715.svg&quot;,&quot;url&quot;:&quot;https://lct-designs.s3.us-west-1.amazonaws.com/assets/models/pole-mask-1631925211715.svg&quot;},&quot;pos&quot;:&quot;2&quot;,&quot;accessories&quot;:&quot;2,3&quot;}" style="background-color: white;"><g class="model" style="pointer-events: none;"><polygon fill="#FFFFFF" points="0.5,0.5 0.5,67.2 0.5,300.5 0.5,367.2 500.5,367.2 500.5,300.5 500.5,67.2 500.5,0.5 "></polygon></g><image width="760" height="556" xlink:href="https://lct-designs.s3.us-west-1.amazonaws.com/assets/libs/avalanche-1633602138008.png" class="asset background locked" transform="matrix(0.6595323960558116,0,0,0.6595323960558116,0,0)"></image><text fill="#ffffff" font-family="Impact" font-size="20" x="50.877864861049005" y="201.76359325371294" stroke-opacity="1" stroke-width="-0.5" stroke="#000000" transform="matrix(0.490454912185669,0,0,0.49045491218566895,-18.21929931640625,-18.512060165405273)" svgjs:data="{&quot;leading&quot;:&quot;1.3&quot;}"><tspan dy="0" x="50.877864861049005" svgjs:data="{&quot;newLined&quot;:true}">COACH: COACH'S NAME</tspan></text><text fill="#ffffff" font-family="Impact" font-size="20" x="50.877864861049005" y="201.76359325371294" stroke-opacity="1" stroke-width="-0.5" stroke="#000000" transform="matrix(0.4978054165840149,0,0,0.49780541658401495,346.10565185546875,-17.59343910217286)" svgjs:data="{&quot;leading&quot;:&quot;1.3&quot;}"><tspan dy="0" x="50.877864861049005" svgjs:data="{&quot;newLined&quot;:true}">TEAM MOM: TEAM MOM'S NAME</tspan></text><image width="760" height="349" xlink:href="https://lct-designs.s3.us-west-1.amazonaws.com/assets/libs/avalanche-1633602161813.png" class="asset" transform="matrix(0.3359157145023346,0,0,0.3359157145023346,108.12713623046875,121.74103546142578)"></image><image width="760" height="758" xlink:href="https://lct-designs.s3.us-west-1.amazonaws.com/assets/libs/alliance1-1632042447894.png" class="asset" transform="matrix(0.06056175008416176,0,0,0.060561750084161765,17.220682144165025,91.6124496459961)"></image><text fill="#ffffff" font-family="Impact" font-size="20" stroke-opacity="1" stroke-width="-0.5" stroke="#000000" x="224.43115286549425" y="191.90176128214458" transform="matrix(1,0,0,1,-210.26585388183594,-36.347930908203125)" svgjs:data="{&quot;leading&quot;:&quot;1.3&quot;}"><tspan dy="0" x="224.43115286549425" svgjs:data="{&quot;newLined&quot;:true}">Player</tspan></text><image width="760" height="758" xlink:href="https://lct-designs.s3.us-west-1.amazonaws.com/assets/libs/alliance1-1632042447894.png" class="asset" transform="matrix(0.06056175008416176,0,0,0.060561750084161765,91.17463684082031,91.6124496459961)"></image><text fill="#ffffff" font-family="Impact" font-size="20" stroke-opacity="1" stroke-width="-0.5" stroke="#000000" x="224.43115286549425" y="191.90176128214458" transform="matrix(1,0,0,1,-136.31190490722656,-36.347930908203125)" svgjs:data="{&quot;leading&quot;:&quot;1.3&quot;}"><tspan dy="0" x="224.43115286549425" svgjs:data="{&quot;newLined&quot;:true}">Player</tspan></text><image width="760" height="758" xlink:href="https://lct-designs.s3.us-west-1.amazonaws.com/assets/libs/alliance1-1632042447894.png" class="asset" transform="matrix(0.06056175008416176,0,0,0.060561750084161765,50.68580627441406,162.0078125)"></image><text fill="#ffffff" font-family="Impact" font-size="20" stroke-opacity="1" stroke-width="-0.5" stroke="#000000" x="224.43115286549425" y="191.90176128214458" transform="matrix(1,0,0,1,-176.8007354736328,34.04743957519532)" svgjs:data="{&quot;leading&quot;:&quot;1.3&quot;}"><tspan dy="0" x="224.43115286549425" svgjs:data="{&quot;newLined&quot;:true}">Player</tspan></text><image width="760" height="758" xlink:href="https://lct-designs.s3.us-west-1.amazonaws.com/assets/libs/alliance1-1632042447894.png" class="asset" transform="matrix(0.06056175008416176,0,0,0.060561750084161765,16.638376235961914,234.24357604980466)"></image><text fill="#ffffff" font-family="Impact" font-size="20" stroke-opacity="1" stroke-width="-0.5" stroke="#000000" x="224.43115286549425" y="191.90176128214458" transform="matrix(1,0,0,1,-210.84815979003906,106.28318786621094)" svgjs:data="{&quot;leading&quot;:&quot;1.3&quot;}"><tspan dy="0" x="224.43115286549425" svgjs:data="{&quot;newLined&quot;:true}">Player</tspan></text><image width="760" height="758" xlink:href="https://lct-designs.s3.us-west-1.amazonaws.com/assets/libs/alliance1-1632042447894.png" class="asset" transform="matrix(0.06056175008416176,0,0,0.060561750084161765,90.59233093261719,234.24357604980466)"></image><text fill="#ffffff" font-family="Impact" font-size="20" stroke-opacity="1" stroke-width="-0.5" stroke="#000000" x="224.43115286549425" y="191.90176128214458" transform="matrix(1,0,0,1,-136.89421081542972,106.28318786621094)" svgjs:data="{&quot;leading&quot;:&quot;1.3&quot;}"><tspan dy="0" x="224.43115286549425" svgjs:data="{&quot;newLined&quot;:true}">Player</tspan></text><image width="760" height="758" xlink:href="https://lct-designs.s3.us-west-1.amazonaws.com/assets/libs/alliance1-1632042447894.png" class="asset" transform="matrix(0.06056175008416176,0,0,0.060561750084161765,361.25360107421875,89.31193536520001)"></image><text fill="#ffffff" font-family="Impact" font-size="20" stroke-opacity="1" stroke-width="-0.5" stroke="#000000" x="224.43115286549425" y="191.90176128214458" transform="matrix(1,0,0,1,136.5276336669922,-39.10855108499527)" svgjs:data="{&quot;leading&quot;:&quot;1.3&quot;}"><tspan dy="0" x="224.43115286549425" svgjs:data="{&quot;newLined&quot;:true}">Player</tspan></text><image width="760" height="758" xlink:href="https://lct-designs.s3.us-west-1.amazonaws.com/assets/libs/alliance1-1632042447894.png" class="asset" transform="matrix(0.06056175008416176,0,0,0.060561750084161765,437.9681091308594,88.85182946920395)"></image><text fill="#ffffff" font-family="Impact" font-size="20" stroke-opacity="1" stroke-width="-0.5" stroke="#000000" x="224.43115286549425" y="191.90176128214458" transform="matrix(1,0,0,1,210.48158264160156,-39.10855108499527)" svgjs:data="{&quot;leading&quot;:&quot;1.3&quot;}"><tspan dy="0" x="224.43115286549425" svgjs:data="{&quot;newLined&quot;:true}">Player</tspan></text><image width="760" height="758" xlink:href="https://lct-designs.s3.us-west-1.amazonaws.com/assets/libs/alliance1-1632042447894.png" class="asset" transform="matrix(0.06056175008416176,0,0,0.060561750084161765,397.4792785644531,159.24719232320786)"></image><text fill="#ffffff" font-family="Impact" font-size="20" stroke-opacity="1" stroke-width="-0.5" stroke="#000000" x="224.43115286549425" y="191.90176128214458" transform="matrix(1,0,0,1,169.9927520751953,31.286819398403175)" svgjs:data="{&quot;leading&quot;:&quot;1.3&quot;}"><tspan dy="0" x="224.43115286549425" svgjs:data="{&quot;newLined&quot;:true}">Player</tspan></text><image width="760" height="758" xlink:href="https://lct-designs.s3.us-west-1.amazonaws.com/assets/libs/alliance1-1632042447894.png" class="asset" transform="matrix(0.06056175008416176,0,0,0.060561750084161765,363.4318542480469,231.48295587301251)"></image><text fill="#ffffff" font-family="Impact" font-size="20" stroke-opacity="1" stroke-width="-0.5" stroke="#000000" x="224.43115286549425" y="191.90176128214458" transform="matrix(1,0,0,1,135.94532775878906,103.52256768941879)" svgjs:data="{&quot;leading&quot;:&quot;1.3&quot;}"><tspan dy="0" x="224.43115286549425" svgjs:data="{&quot;newLined&quot;:true}">Player</tspan></text><image width="760" height="758" xlink:href="https://lct-designs.s3.us-west-1.amazonaws.com/assets/libs/alliance1-1632042447894.png" class="asset" transform="matrix(0.06056175008416176,0,0,0.060561750084161765,437.38580322265625,231.48295587301251)"></image><text fill="#ffffff" font-family="Impact" font-size="20" stroke-opacity="1" stroke-width="-0.5" stroke="#000000" x="224.43115286549425" y="191.90176128214458" transform="matrix(1,0,0,1,209.89927673339844,103.52256768941879)" svgjs:data="{&quot;leading&quot;:&quot;1.3&quot;}"><tspan dy="0" x="224.43115286549425" svgjs:data="{&quot;newLined&quot;:true}">Player</tspan></text><g class="mask" style="pointer-events: none;"><g><path fill="#BCBEC0" d="M-3642.4-2101.7v4589.1h7813.4v-4589.1H-3642.4z M500.5,67.2v233.3v66.7H0.5v-66.7V67.2V0.5h500V67.2z" transform="matrix(1,0,0,1,0,0)"></path><g transform="matrix(1,0,0,1,0,0)">
	<rect x="0.5" y="300.5" opacity="0.95" fill="#F1F2F2" width="500" height="66.7"></rect>
	<rect x="0.5" y="0.5" opacity="0.95" fill="#F1F2F2" width="500" height="66.7"></rect>
</g></g></g></svg>