<svg xmlns="http://www.w3.org/2000/svg" version="1.1" xmlns:xlink="http://www.w3.org/1999/xlink" xmlns:svgjs="http://svgjs.dev/svgjs" width="100%" height="100%" viewBox="1 1 499 365.70001220703125" preserveAspectRatio="none" data-info="{&quot;_id&quot;:4,&quot;name&quot;:&quot;POLE POCKET SOCCER BANNERS&quot;,&quot;information&quot;:&quot;- Size: 3’x5’\n- Material: heavy duty vinyl banner\n- Digitally printed on vinyl&quot;,&quot;price&quot;:&quot;95.00&quot;,&quot;sale_price&quot;:&quot;89.99&quot;,&quot;type&quot;:&quot;pole-pocket&quot;,&quot;cover&quot;:{&quot;key&quot;:&quot;assets/models/pole-1628062864266-1631924568908.png&quot;,&quot;url&quot;:&quot;https://lct-designs.s3.us-west-1.amazonaws.com/assets/models/pole-1628062864266-1631924568908.png&quot;},&quot;back&quot;:{&quot;key&quot;:&quot;assets/models/pole-1631924700152.svg&quot;,&quot;url&quot;:&quot;https://lct-designs.s3.us-west-1.amazonaws.com/assets/models/pole-1631924700152.svg&quot;},&quot;mask&quot;:{&quot;key&quot;:&quot;assets/models/pole-mask-1631925211715.svg&quot;,&quot;url&quot;:&quot;https://lct-designs.s3.us-west-1.amazonaws.com/assets/models/pole-mask-1631925211715.svg&quot;},&quot;pos&quot;:&quot;2&quot;,&quot;accessories&quot;:&quot;2,3&quot;}" style="background-color: white;"><g class="model" style="pointer-events: none;"><polygon fill="#FFFFFF" points="0.5,0.5 0.5,67.2 0.5,300.5 0.5,367.2 500.5,367.2 500.5,300.5 500.5,67.2 500.5,0.5 "></polygon></g><image width="760" height="558" xlink:href="https://lct-designs.s3.us-west-1.amazonaws.com/assets/libs/impact-3-1657520713293.png" class="asset background locked" transform="matrix(0.6571684806577621,0,0,0.6571684806577621,0,0)"></image><text fill="#ffffff" font-family="Impact" font-size="20" x="50.877864861049005" y="201.76359325371294" stroke-opacity="1" stroke-width="-0.5" stroke="#000000" transform="matrix(0.490454912185669,0,0,0.49045491218566895,379.3074340820312,-2.8686259388923645)" svgjs:data="{&quot;leading&quot;:&quot;1.3&quot;}"><tspan dy="0" x="50.877864861049005" svgjs:data="{&quot;newLined&quot;:true}">COACH: COACH'S NAME</tspan></text><text fill="#ffffff" font-family="Impact" font-size="20" x="50.877864861049005" y="201.76359325371294" stroke-opacity="1" stroke-width="-0.5" stroke="#000000" transform="matrix(0.4978054165840149,0,0,0.49780541658401495,347.02584838867193,-18.053533554077156)" svgjs:data="{&quot;leading&quot;:&quot;1.3&quot;}"><tspan dy="0" x="50.877864861049005" svgjs:data="{&quot;newLined&quot;:true}">TEAM MOM: TEAM MOM'S NAME</tspan></text><image width="760" height="587" xlink:href="https://lct-designs.s3.us-west-1.amazonaws.com/assets/libs/impact-6-1657520713292.png" class="asset" transform="matrix(0.1394169181585312,0,0,0.1394169181585312,386.8251037597656,219.26785278320315)"></image><image width="760" height="760" xlink:href="https://lct-designs.s3.us-west-1.amazonaws.com/assets/libs/blue-panthers-1632823609243.png" class="asset" transform="matrix(0.057721741497516625,0,0,0.05772174149751663,199.48956298828125,173.37875366210938)"></image><text fill="#ffffff" font-family="Impact" font-size="19" stroke-opacity="1" stroke-width="-0.5" stroke="#000000" x="224.43115286549425" y="191.90176128214458" transform="matrix(1,0,0,1,-27.728271484375,41.40904235839843)" svgjs:data="{&quot;leading&quot;:&quot;1.3&quot;}"><tspan dy="0" x="224.43115286549425" svgjs:data="{&quot;newLined&quot;:true}">Player</tspan></text><image width="760" height="760" xlink:href="https://lct-designs.s3.us-west-1.amazonaws.com/assets/libs/blue-panthers-1632823609243.png" class="asset" transform="matrix(0.05772174894809723,0,0,0.057721748948097236,277.1242980957031,173.83885192871094)"></image><text fill="#ffffff" font-family="Impact" font-size="19" stroke-opacity="1" stroke-width="-0.5" stroke="#000000" x="224.43115286549425" y="191.90176128214458" transform="matrix(1,0,0,1,49.906463623046875,41.86914062499999)" svgjs:data="{&quot;leading&quot;:&quot;1.3&quot;}"><tspan dy="0" x="224.43115286549425" svgjs:data="{&quot;newLined&quot;:true}">Player</tspan></text><image width="760" height="760" xlink:href="https://lct-designs.s3.us-west-1.amazonaws.com/assets/libs/blue-panthers-1632823609243.png" class="asset" transform="matrix(0.057721756398677826,0,0,0.057721756398677826,354.2989501953125,173.83885192871094)"></image><text fill="#ffffff" font-family="Impact" font-size="19" stroke-opacity="1" stroke-width="-0.5" stroke="#000000" x="224.43115286549425" y="191.90176128214458" transform="matrix(1,0,0,1,127.08111572265622,41.86914062499999)" svgjs:data="{&quot;leading&quot;:&quot;1.3&quot;}"><tspan dy="0" x="224.43115286549425" svgjs:data="{&quot;newLined&quot;:true}">Player</tspan></text><image width="759" height="584" xlink:href="https://lct-designs.s3.us-west-1.amazonaws.com/assets/libs/impact-7-1657520713291.png" class="asset" transform="matrix(0.20738396048545837,0,0,0.20738396048545837,23.32141876220703,161.9020538330078)"></image><image width="760" height="253" xlink:href="https://lct-designs.s3.us-west-1.amazonaws.com/assets/libs/impact-1-1657520713293.png" class="asset" transform="matrix(0.30234587192535406,-0.0054673501290380955,0.0054673501290380955,0.302345871925354,17.507453918457017,82.03334045410156)"></image><image width="760" height="760" xlink:href="https://lct-designs.s3.us-west-1.amazonaws.com/assets/libs/blue-panthers-1632823609243.png" class="asset" transform="matrix(0.05772172659635543,0,0,0.05772172659635544,271.387451171875,105.28388977050781)"></image><text fill="#ffffff" font-family="Impact" font-size="19" stroke-opacity="1" stroke-width="-0.5" stroke="#000000" x="224.43115286549425" y="191.90176128214458" transform="matrix(1,0,0,1,44.16961669921875,-26.68582153320313)" svgjs:data="{&quot;leading&quot;:&quot;1.3&quot;}"><tspan dy="0" x="224.43115286549425" svgjs:data="{&quot;newLined&quot;:true}">Player</tspan></text><image width="760" height="760" xlink:href="https://lct-designs.s3.us-west-1.amazonaws.com/assets/libs/blue-panthers-1632823609243.png" class="asset" transform="matrix(0.057721734046936035,0,0,0.05772173404693604,349.0221862792969,105.74398803710935)"></image><text fill="#ffffff" font-family="Impact" font-size="19" stroke-opacity="1" stroke-width="-0.5" stroke="#000000" x="224.43115286549425" y="191.90176128214458" transform="matrix(1,0,0,1,121.80435180664062,-26.225723266601566)" svgjs:data="{&quot;leading&quot;:&quot;1.3&quot;}"><tspan dy="0" x="224.43115286549425" svgjs:data="{&quot;newLined&quot;:true}">Player</tspan></text><image width="760" height="760" xlink:href="https://lct-designs.s3.us-west-1.amazonaws.com/assets/libs/blue-panthers-1632823609243.png" class="asset" transform="matrix(0.057721741497516625,0,0,0.05772174149751663,426.19683837890625,105.74398803710935)"></image><text fill="#ffffff" font-family="Impact" font-size="19" stroke-opacity="1" stroke-width="-0.5" stroke="#000000" x="224.43115286549425" y="191.90176128214458" transform="matrix(1,0,0,1,198.97900390625,-26.225723266601566)" svgjs:data="{&quot;leading&quot;:&quot;1.3&quot;}"><tspan dy="0" x="224.43115286549425" svgjs:data="{&quot;newLined&quot;:true}">Player</tspan></text><image width="760" height="760" xlink:href="https://lct-designs.s3.us-west-1.amazonaws.com/assets/libs/blue-panthers-1632823609243.png" class="asset" transform="matrix(0.057721741497516625,0,0,0.05772174149751663,160.25881958007812,238.25291442871097)"></image><text fill="#ffffff" font-family="Impact" font-size="19" stroke-opacity="1" stroke-width="-0.5" stroke="#000000" x="224.43115286549425" y="191.90176128214458" transform="matrix(1,0,0,1,-66.95901489257812,106.283203125)" svgjs:data="{&quot;leading&quot;:&quot;1.3&quot;}"><tspan dy="0" x="224.43115286549425" svgjs:data="{&quot;newLined&quot;:true}">Player</tspan></text><image width="760" height="760" xlink:href="https://lct-designs.s3.us-west-1.amazonaws.com/assets/libs/blue-panthers-1632823609243.png" class="asset" transform="matrix(0.05772174894809723,0,0,0.057721748948097236,237.8935546875,238.71301269531253)"></image><text fill="#ffffff" font-family="Impact" font-size="19" stroke-opacity="1" stroke-width="-0.5" stroke="#000000" x="224.43115286549425" y="191.90176128214458" transform="matrix(1,0,0,1,10.67572021484375,106.74330139160156)" svgjs:data="{&quot;leading&quot;:&quot;1.3&quot;}"><tspan dy="0" x="224.43115286549425" svgjs:data="{&quot;newLined&quot;:true}">Player</tspan></text><image width="760" height="760" xlink:href="https://lct-designs.s3.us-west-1.amazonaws.com/assets/libs/blue-panthers-1632823609243.png" class="asset" transform="matrix(0.057721756398677826,0,0,0.057721756398677826,315.0682067871094,238.71301269531253)"></image><text fill="#ffffff" font-family="Impact" font-size="19" stroke-opacity="1" stroke-width="-0.5" stroke="#000000" x="224.43115286549425" y="191.90176128214458" transform="matrix(1,0,0,1,87.85037231445312,106.74330139160156)" svgjs:data="{&quot;leading&quot;:&quot;1.3&quot;}"><tspan dy="0" x="224.43115286549425" svgjs:data="{&quot;newLined&quot;:true}">Player</tspan></text><g class="mask" style="pointer-events: none;"><g><path fill="#BCBEC0" d="M-3642.4-2101.7v4589.1h7813.4v-4589.1H-3642.4z M500.5,67.2v233.3v66.7H0.5v-66.7V67.2V0.5h500V67.2z" transform="matrix(1,0,0,1,0,0)"></path><g transform="matrix(1,0,0,1,0,0)">
	<rect x="0.5" y="300.5" opacity="0.95" fill="#F1F2F2" width="500" height="66.7"></rect>
	<rect x="0.5" y="0.5" opacity="0.95" fill="#F1F2F2" width="500" height="66.7"></rect>
</g></g></g></svg>