<svg xmlns="http://www.w3.org/2000/svg" version="1.1" xmlns:xlink="http://www.w3.org/1999/xlink" xmlns:svgjs="http://svgjs.dev/svgjs" width="100%" height="100%" viewBox="1 1 499 365.70001220703125" preserveAspectRatio="none" data-info="{&quot;_id&quot;:4,&quot;name&quot;:&quot;POLE POCKET SOCCER BANNERS&quot;,&quot;information&quot;:&quot;- Size: 3’x5’\n- Material: heavy duty vinyl banner\n- Digitally printed on vinyl&quot;,&quot;price&quot;:&quot;95.00&quot;,&quot;sale_price&quot;:&quot;89.99&quot;,&quot;type&quot;:&quot;pole-pocket&quot;,&quot;cover&quot;:{&quot;key&quot;:&quot;assets/models/pole-1628062864266-1631924568908.png&quot;,&quot;url&quot;:&quot;https://lct-designs.s3.us-west-1.amazonaws.com/assets/models/pole-1628062864266-1631924568908.png&quot;},&quot;back&quot;:{&quot;key&quot;:&quot;assets/models/pole-1631924700152.svg&quot;,&quot;url&quot;:&quot;https://lct-designs.s3.us-west-1.amazonaws.com/assets/models/pole-1631924700152.svg&quot;},&quot;mask&quot;:{&quot;key&quot;:&quot;assets/models/pole-mask-1631925211715.svg&quot;,&quot;url&quot;:&quot;https://lct-designs.s3.us-west-1.amazonaws.com/assets/models/pole-mask-1631925211715.svg&quot;},&quot;pos&quot;:&quot;2&quot;,&quot;accessories&quot;:&quot;2,3&quot;}" style="background-color: white;"><g class="model" style="pointer-events: none;"><polygon fill="#FFFFFF" points="0.5,0.5 0.5,67.2 0.5,300.5 0.5,367.2 500.5,367.2 500.5,300.5 500.5,67.2 500.5,0.5 "></polygon></g><image width="760" height="556" xlink:href="https://lct-designs.s3.us-west-1.amazonaws.com/assets/libs/donkey-kong-3-1657612996209.png" class="asset background locked" transform="matrix(0.6595323960558116,0,0,0.6595323960558116,0,0)"></image><text fill="#ffffff" font-family="Impact" font-size="40" x="54.87449865828927" y="201.7453084835824" stroke-opacity="1" stroke-width="2" stroke="#000000" transform="matrix(0.3042240142822266,0,0,0.30422401428222656,-0.46371448040008545,29.752893447875977)" svgjs:data="{&quot;leading&quot;:&quot;1.3&quot;}"><tspan dy="0" x="54.87449865828927" svgjs:data="{&quot;newLined&quot;:true}">Coach: Coach's name</tspan></text><text fill="#ffffff" font-family="Impact" font-size="40" x="54.87449865828927" y="201.7453084835824" stroke-opacity="1" stroke-width="2" stroke="#000000" transform="matrix(0.3042240142822266,0,0,0.30422401428222656,320.3016967773438,30.3883056640625)" svgjs:data="{&quot;leading&quot;:&quot;1.3&quot;}"><tspan dy="0" x="54.87449865828927" svgjs:data="{&quot;newLined&quot;:true}">Team mom: Team mom's name</tspan></text><text fill="#ffffff" font-family="Impact" font-size="22" stroke-opacity="1" stroke-width="1" stroke="#000000" x="198.53501731777467" y="199.70730192810635" transform="matrix(0.6373952031135559,0,0,0.637395203113556,-98.06939697265625,36.1844482421875)" svgjs:data="{&quot;leading&quot;:&quot;1.3&quot;}"><tspan dy="0" x="198.53501731777467" svgjs:data="{&quot;newLined&quot;:true}">Player</tspan></text><image width="760" height="760" xlink:href="https://lct-designs.s3.us-west-1.amazonaws.com/assets/libs/donkey-kong-5-1657612996208.png" class="asset" transform="matrix(0.049424625933170326,0,0,0.04942462593317032,28.115886688232422,113.52839660644531)"></image><text fill="#ffffff" font-family="Impact" font-size="22" stroke-opacity="1" stroke-width="1" stroke="#000000" x="198.53501731777467" y="199.70730192810635" transform="matrix(0.6373952031135559,0,0,0.637395203113556,-98.06940460205078,96.14486694335938)" svgjs:data="{&quot;leading&quot;:&quot;1.3&quot;}"><tspan dy="0" x="198.53501731777467" svgjs:data="{&quot;newLined&quot;:true}">Player</tspan></text><image width="760" height="760" xlink:href="https://lct-designs.s3.us-west-1.amazonaws.com/assets/libs/donkey-kong-5-1657612996208.png" class="asset" transform="matrix(0.049424625933170326,0,0,0.04942462593317032,28.11587905883792,173.48881530761722)"></image><text fill="#ffffff" font-family="Impact" font-size="22" stroke-opacity="1" stroke-width="1" stroke="#000000" x="198.53501731777467" y="199.70730192810635" transform="matrix(0.6373952031135559,0,0,0.637395203113556,-98.06940460205078,158.08744812011722)" svgjs:data="{&quot;leading&quot;:&quot;1.3&quot;}"><tspan dy="0" x="198.53501731777467" svgjs:data="{&quot;newLined&quot;:true}">Player</tspan></text><image width="760" height="760" xlink:href="https://lct-designs.s3.us-west-1.amazonaws.com/assets/libs/donkey-kong-5-1657612996208.png" class="asset" transform="matrix(0.049424625933170326,0,0,0.04942462593317032,28.115882873535185,235.43139648437503)"></image><image width="668" height="760" xlink:href="https://lct-designs.s3.us-west-1.amazonaws.com/assets/libs/donkey-kong-1657612996207.png" class="asset" transform="matrix(0.22351354360580444,0,0,0.22351354360580447,171.55250549316412,134.34107971191406)"></image><image width="760" height="116" xlink:href="https://lct-designs.s3.us-west-1.amazonaws.com/assets/libs/donkey-kong-4-1657612996208.png" class="asset" transform="matrix(0.3280694782733918,0,0,0.3280694782733917,120.21796417236331,96.92746734619143)"></image><text fill="#ffffff" font-family="Impact" font-size="22" stroke-opacity="1" stroke-width="1" stroke="#000000" x="198.53501731777467" y="199.70730192810635" transform="matrix(0.6373952031135559,0,0,0.637395203113556,-10.269538879394517,68.39459228515626)" svgjs:data="{&quot;leading&quot;:&quot;1.3&quot;}"><tspan dy="0" x="198.53501731777467" svgjs:data="{&quot;newLined&quot;:true}">Player</tspan></text><image width="760" height="760" xlink:href="https://lct-designs.s3.us-west-1.amazonaws.com/assets/libs/donkey-kong-5-1657612996208.png" class="asset" transform="matrix(0.049424625933170326,0,0,0.04942462593317032,115.91574096679693,145.7385406494141)"></image><text fill="#ffffff" font-family="Impact" font-size="22" stroke-opacity="1" stroke-width="1" stroke="#000000" x="198.53501731777467" y="199.70730192810635" transform="matrix(0.6373952031135559,0,0,0.637395203113556,-10.269538879394517,130.33717346191406)" svgjs:data="{&quot;leading&quot;:&quot;1.3&quot;}"><tspan dy="0" x="198.53501731777467" svgjs:data="{&quot;newLined&quot;:true}">Player</tspan></text><image width="760" height="760" xlink:href="https://lct-designs.s3.us-west-1.amazonaws.com/assets/libs/donkey-kong-5-1657612996208.png" class="asset" transform="matrix(0.049424625933170326,0,0,0.04942462593317032,115.9157485961914,207.68112182617185)"></image><text fill="#ffffff" font-family="Impact" font-size="22" stroke-opacity="1" stroke-width="1" stroke="#000000" x="198.53501731777467" y="199.70730192810635" transform="matrix(0.6373952031135559,0,0,0.637395203113556,212.31737524271017,67.89906316995622)" svgjs:data="{&quot;leading&quot;:&quot;1.3&quot;}"><tspan dy="0" x="198.53501731777467" svgjs:data="{&quot;newLined&quot;:true}">Player</tspan></text><image width="760" height="760" xlink:href="https://lct-designs.s3.us-west-1.amazonaws.com/assets/libs/donkey-kong-5-1657612996208.png" class="asset" transform="matrix(0.049424625933170326,0,0,0.04942462593317032,338.50265502929693,145.24301153421405)"></image><text fill="#ffffff" font-family="Impact" font-size="22" stroke-opacity="1" stroke-width="1" stroke="#000000" x="198.53501731777467" y="199.70730192810635" transform="matrix(0.6373952031135559,0,0,0.637395203113556,212.31737524271017,129.84164434671402)" svgjs:data="{&quot;leading&quot;:&quot;1.3&quot;}"><tspan dy="0" x="198.53501731777467" svgjs:data="{&quot;newLined&quot;:true}">Player</tspan></text><image width="760" height="760" xlink:href="https://lct-designs.s3.us-west-1.amazonaws.com/assets/libs/donkey-kong-5-1657612996208.png" class="asset" transform="matrix(0.049424625933170326,0,0,0.04942462593317032,338.5026626586914,207.1855927109718)"></image><text fill="#ffffff" font-family="Impact" font-size="22" stroke-opacity="1" stroke-width="1" stroke="#000000" x="198.53501731777467" y="199.70730192810635" transform="matrix(0.6373952031135559,0,0,0.637395203113556,300.9299621582032,35.68891912698746)" svgjs:data="{&quot;leading&quot;:&quot;1.3&quot;}"><tspan dy="0" x="198.53501731777467" svgjs:data="{&quot;newLined&quot;:true}">Player</tspan></text><image width="760" height="760" xlink:href="https://lct-designs.s3.us-west-1.amazonaws.com/assets/libs/donkey-kong-5-1657612996208.png" class="asset" transform="matrix(0.049424625933170326,0,0,0.04942462593317032,427.1152458190919,113.03286749124527)"></image><text fill="#ffffff" font-family="Impact" font-size="22" stroke-opacity="1" stroke-width="1" stroke="#000000" x="198.53501731777467" y="199.70730192810635" transform="matrix(0.6373952031135559,0,0,0.637395203113556,300.9299545288086,95.64933782815933)" svgjs:data="{&quot;leading&quot;:&quot;1.3&quot;}"><tspan dy="0" x="198.53501731777467" svgjs:data="{&quot;newLined&quot;:true}">Player</tspan></text><image width="760" height="760" xlink:href="https://lct-designs.s3.us-west-1.amazonaws.com/assets/libs/donkey-kong-5-1657612996208.png" class="asset" transform="matrix(0.049424625933170326,0,0,0.04942462593317032,427.11523818969727,172.99328619241714)"></image><text fill="#ffffff" font-family="Impact" font-size="22" stroke-opacity="1" stroke-width="1" stroke="#000000" x="198.53501731777467" y="199.70730192810635" transform="matrix(0.6373952031135559,0,0,0.637395203113556,300.9299545288086,157.59191900491717)" svgjs:data="{&quot;leading&quot;:&quot;1.3&quot;}"><tspan dy="0" x="198.53501731777467" svgjs:data="{&quot;newLined&quot;:true}">Player</tspan></text><image width="760" height="760" xlink:href="https://lct-designs.s3.us-west-1.amazonaws.com/assets/libs/donkey-kong-5-1657612996208.png" class="asset" transform="matrix(0.049424625933170326,0,0,0.04942462593317032,427.11524200439464,234.93586736917499)"></image><g class="mask" style="pointer-events: none;"><g><path fill="#BCBEC0" d="M-3642.4-2101.7v4589.1h7813.4v-4589.1H-3642.4z M500.5,67.2v233.3v66.7H0.5v-66.7V67.2V0.5h500V67.2z" transform="matrix(1,0,0,1,0,0)"></path><g transform="matrix(1,0,0,1,0,0)">
	<rect x="0.5" y="300.5" opacity="0.95" fill="#F1F2F2" width="500" height="66.7"></rect>
	<rect x="0.5" y="0.5" opacity="0.95" fill="#F1F2F2" width="500" height="66.7"></rect>
</g></g></g></svg>