<svg xmlns="http://www.w3.org/2000/svg" version="1.1" xmlns:xlink="http://www.w3.org/1999/xlink" xmlns:svgjs="http://svgjs.dev/svgjs" width="100%" height="100%" viewBox="1 1 499 365.70001220703125" preserveAspectRatio="none" data-info="{&quot;_id&quot;:4,&quot;name&quot;:&quot;POLE POCKET SOCCER BANNERS&quot;,&quot;information&quot;:&quot;- Size: 3’x5’\n- Material: heavy duty vinyl banner\n- Digitally printed on vinyl&quot;,&quot;price&quot;:&quot;95.00&quot;,&quot;sale_price&quot;:&quot;89.99&quot;,&quot;type&quot;:&quot;pole-pocket&quot;,&quot;cover&quot;:{&quot;key&quot;:&quot;assets/models/pole-1628062864266-1631924568908.png&quot;,&quot;url&quot;:&quot;https://lct-designs.s3.us-west-1.amazonaws.com/assets/models/pole-1628062864266-1631924568908.png&quot;},&quot;back&quot;:{&quot;key&quot;:&quot;assets/models/pole-1631924700152.svg&quot;,&quot;url&quot;:&quot;https://lct-designs.s3.us-west-1.amazonaws.com/assets/models/pole-1631924700152.svg&quot;},&quot;mask&quot;:{&quot;key&quot;:&quot;assets/models/pole-mask-1631925211715.svg&quot;,&quot;url&quot;:&quot;https://lct-designs.s3.us-west-1.amazonaws.com/assets/models/pole-mask-1631925211715.svg&quot;},&quot;pos&quot;:&quot;2&quot;,&quot;accessories&quot;:&quot;2,3&quot;}" style="background-color: white;"><g class="model" style="pointer-events: none;"><polygon fill="#FFFFFF" points="0.5,0.5 0.5,67.2 0.5,300.5 0.5,367.2 500.5,367.2 500.5,300.5 500.5,67.2 500.5,0.5 "></polygon></g><image width="760" height="556" xlink:href="https://lct-designs.s3.us-west-1.amazonaws.com/assets/libs/kickin_s-kids-2-1657945410023.png" class="asset background locked" transform="matrix(0.6595323960558116,0,0,0.6595323960558116,0,0)"></image><text fill="#c72026" font-family="Impact" font-size="45" x="50.877864861049005" y="201.76359325371294" stroke-opacity="1" stroke-width="1" stroke="#000000" transform="matrix(0.22129602730274203,0,0,0.22129602730274203,384.59851889289195,60.09300359287259)" svgjs:data="{&quot;leading&quot;:&quot;1.3&quot;}"><tspan dy="0" x="50.877864861049005" svgjs:data="{&quot;newLined&quot;:true}">COACH: COACH'S NAME</tspan></text><text fill="#c72026" font-family="Impact" font-size="45" x="50.877864861049005" y="201.76359325371294" stroke-opacity="1" stroke-width="-1" stroke="#000000" transform="matrix(0.22129602730274203,0,0,0.22129602730274203,353.9282606745452,43.72448823133011)" svgjs:data="{&quot;leading&quot;:&quot;1.3&quot;}"><tspan dy="0" x="50.877864861049005" svgjs:data="{&quot;newLined&quot;:true}">TEAM MOM: TEAM MOM'S NAME</tspan></text><text fill="#c72026" font-family="Impact" font-size="45" stroke-opacity="1" stroke-width="-1" stroke="#000000" x="191.96452729598332" y="202.05652900502182" transform="matrix(0.34665411710739136,0,0,0.34665411710739136,-32.42033836407842,74.31325688496167)" svgjs:data="{&quot;leading&quot;:&quot;1.3&quot;}"><tspan dy="0" x="191.96452729598332" svgjs:data="{&quot;newLined&quot;:true}">Player</tspan></text><image width="760" height="553" xlink:href="https://lct-designs.s3.us-west-1.amazonaws.com/assets/libs/kickin_s-kids-2-1633342536148.png" class="asset" transform="matrix(0.06557576358318329,0,0,0.06557576358318329,29.596882493694736,95.05671130406496)"></image><text fill="#c72026" font-family="Impact" font-size="45" stroke-opacity="1" stroke-width="-1" stroke="#000000" x="191.96452729598332" y="202.05652900502182" transform="matrix(0.34665411710739136,0,0,0.34665411710739136,-32.42033836407842,145.2862961088029)" svgjs:data="{&quot;leading&quot;:&quot;1.3&quot;}"><tspan dy="0" x="191.96452729598332" svgjs:data="{&quot;newLined&quot;:true}">Player</tspan></text><image width="760" height="553" xlink:href="https://lct-designs.s3.us-west-1.amazonaws.com/assets/libs/kickin_s-kids-2-1633342536148.png" class="asset" transform="matrix(0.06557576358318329,0,0,0.06557576358318329,29.596874864300062,166.02975052790617)"></image><text fill="#c72026" font-family="Impact" font-size="45" stroke-opacity="1" stroke-width="-1" stroke="#000000" x="191.96452729598332" y="202.05652900502182" transform="matrix(0.34665411710739136,0,0,0.34665411710739136,-32.42034217877577,209.3648191953194)" svgjs:data="{&quot;leading&quot;:&quot;1.3&quot;}"><tspan dy="0" x="191.96452729598332" svgjs:data="{&quot;newLined&quot;:true}">Player</tspan></text><image width="760" height="553" xlink:href="https://lct-designs.s3.us-west-1.amazonaws.com/assets/libs/kickin_s-kids-2-1633342536148.png" class="asset" transform="matrix(0.06557576358318329,0,0,0.06557576358318329,29.596882493694736,230.10827361442267)"></image><text fill="#c72026" font-family="Impact" font-size="45" stroke-opacity="1" stroke-width="-1" stroke="#000000" x="191.96452729598332" y="202.05652900502182" transform="matrix(0.34665411710739136,0,0,0.34665411710739136,66.80206440400143,74.31325688496167)" svgjs:data="{&quot;leading&quot;:&quot;1.3&quot;}"><tspan dy="0" x="191.96452729598332" svgjs:data="{&quot;newLined&quot;:true}">Player</tspan></text><image width="760" height="553" xlink:href="https://lct-designs.s3.us-west-1.amazonaws.com/assets/libs/kickin_s-kids-2-1633342536148.png" class="asset" transform="matrix(0.06557576358318329,0,0,0.06557576358318329,128.8192776323799,95.05671130406496)"></image><text fill="#c72026" font-family="Impact" font-size="45" stroke-opacity="1" stroke-width="-1" stroke="#000000" x="191.96452729598332" y="202.05652900502182" transform="matrix(0.34665411710739136,0,0,0.34665411710739136,66.80206440400143,145.2862961088029)" svgjs:data="{&quot;leading&quot;:&quot;1.3&quot;}"><tspan dy="0" x="191.96452729598332" svgjs:data="{&quot;newLined&quot;:true}">Player</tspan></text><image width="760" height="553" xlink:href="https://lct-designs.s3.us-west-1.amazonaws.com/assets/libs/kickin_s-kids-2-1633342536148.png" class="asset" transform="matrix(0.06557576358318329,0,0,0.06557576358318329,128.8192776323799,166.02975052790617)"></image><text fill="#c72026" font-family="Impact" font-size="45" stroke-opacity="1" stroke-width="-1" stroke="#000000" x="191.96452729598332" y="202.05652900502182" transform="matrix(0.34665411710739136,0,0,0.34665411710739136,66.80205677460675,209.3648191953194)" svgjs:data="{&quot;leading&quot;:&quot;1.3&quot;}"><tspan dy="0" x="191.96452729598332" svgjs:data="{&quot;newLined&quot;:true}">Player</tspan></text><image width="760" height="553" xlink:href="https://lct-designs.s3.us-west-1.amazonaws.com/assets/libs/kickin_s-kids-2-1633342536148.png" class="asset" transform="matrix(0.06557576358318329,0,0,0.06557576358318329,128.8192776323799,230.10827361442267)"></image><text fill="#c72026" font-family="Impact" font-size="45" stroke-opacity="1" stroke-width="-1" stroke="#000000" x="191.96452729598332" y="202.05652900502182" transform="matrix(0.34665411710739136,0,0,0.34665411710739136,162.3744388659673,74.71882024804887)" svgjs:data="{&quot;leading&quot;:&quot;1.3&quot;}"><tspan dy="0" x="191.96452729598332" svgjs:data="{&quot;newLined&quot;:true}">Player</tspan></text><image width="760" height="553" xlink:href="https://lct-designs.s3.us-west-1.amazonaws.com/assets/libs/kickin_s-kids-2-1633342536148.png" class="asset" transform="matrix(0.06557576358318329,0,0,0.06557576358318329,224.39165209434577,95.46227466715213)"></image><text fill="#c72026" font-family="Impact" font-size="45" stroke-opacity="1" stroke-width="-1" stroke="#000000" x="191.96452729598332" y="202.05652900502182" transform="matrix(0.34665411710739136,0,0,0.34665411710739136,162.3744388659673,145.6918594718901)" svgjs:data="{&quot;leading&quot;:&quot;1.3&quot;}"><tspan dy="0" x="191.96452729598332" svgjs:data="{&quot;newLined&quot;:true}">Player</tspan></text><image width="760" height="553" xlink:href="https://lct-designs.s3.us-west-1.amazonaws.com/assets/libs/kickin_s-kids-2-1633342536148.png" class="asset" transform="matrix(0.06557576358318329,0,0,0.06557576358318329,224.39165209434577,166.4353138909933)"></image><text fill="#c72026" font-family="Impact" font-size="45" stroke-opacity="1" stroke-width="-1" stroke="#000000" x="191.96452729598332" y="202.05652900502182" transform="matrix(0.34665411710739136,0,0,0.34665411710739136,162.3744388659673,209.7703825584066)" svgjs:data="{&quot;leading&quot;:&quot;1.3&quot;}"><tspan dy="0" x="191.96452729598332" svgjs:data="{&quot;newLined&quot;:true}">Player</tspan></text><image width="760" height="553" xlink:href="https://lct-designs.s3.us-west-1.amazonaws.com/assets/libs/kickin_s-kids-2-1633342536148.png" class="asset" transform="matrix(0.06557576358318329,0,0,0.06557576358318329,224.39165209434577,230.51383697750987)"></image><image width="760" height="374" xlink:href="https://lct-designs.s3.us-west-1.amazonaws.com/assets/libs/kickin_s-kids-5-1657945410023.png" class="asset" transform="matrix(0.26603931188583374,0,0,0.26603931188583374,281.5259153901395,175.77829352014925)"></image><text fill="#c72026" font-family="Impact" font-size="45" stroke-opacity="1" stroke-width="-1" stroke="#000000" x="191.96452729598332" y="202.05652900502182" transform="matrix(0.34665411710739136,0,0,0.34665411710739136,244.96904504895792,73.09658968388419)" svgjs:data="{&quot;leading&quot;:&quot;1.3&quot;}"><tspan dy="0" x="191.96452729598332" svgjs:data="{&quot;newLined&quot;:true}">Player</tspan></text><image width="760" height="553" xlink:href="https://lct-designs.s3.us-west-1.amazonaws.com/assets/libs/kickin_s-kids-2-1633342536148.png" class="asset" transform="matrix(0.06557576358318329,0,0,0.06557576358318329,306.9862735361258,93.84004410298742)"></image><g class="mask" style="pointer-events: none;"><g><path fill="#BCBEC0" d="M-3642.4-2101.7v4589.1h7813.4v-4589.1H-3642.4z M500.5,67.2v233.3v66.7H0.5v-66.7V67.2V0.5h500V67.2z" transform="matrix(1,0,0,1,0,0)"></path><g transform="matrix(1,0,0,1,0,0)">
	<rect x="0.5" y="300.5" opacity="0.95" fill="#F1F2F2" width="500" height="66.7"></rect>
	<rect x="0.5" y="0.5" opacity="0.95" fill="#F1F2F2" width="500" height="66.7"></rect>
</g></g></g></svg>