<svg xmlns="http://www.w3.org/2000/svg" version="1.1" xmlns:xlink="http://www.w3.org/1999/xlink" xmlns:svgjs="http://svgjs.dev/svgjs" width="100%" height="100%" viewBox="1 1 499 365.70001220703125" preserveAspectRatio="none" data-info="{&quot;_id&quot;:4,&quot;name&quot;:&quot;POLE POCKET SOCCER BANNERS&quot;,&quot;information&quot;:&quot;- Size: 3’x5’\n- Material: heavy duty vinyl banner\n- Digitally printed on vinyl&quot;,&quot;price&quot;:&quot;95.00&quot;,&quot;sale_price&quot;:&quot;89.99&quot;,&quot;type&quot;:&quot;pole-pocket&quot;,&quot;cover&quot;:{&quot;key&quot;:&quot;assets/models/pole-1628062864266-1631924568908.png&quot;,&quot;url&quot;:&quot;https://lct-designs.s3.us-west-1.amazonaws.com/assets/models/pole-1628062864266-1631924568908.png&quot;},&quot;back&quot;:{&quot;key&quot;:&quot;assets/models/pole-1631924700152.svg&quot;,&quot;url&quot;:&quot;https://lct-designs.s3.us-west-1.amazonaws.com/assets/models/pole-1631924700152.svg&quot;},&quot;mask&quot;:{&quot;key&quot;:&quot;assets/models/pole-mask-1631925211715.svg&quot;,&quot;url&quot;:&quot;https://lct-designs.s3.us-west-1.amazonaws.com/assets/models/pole-mask-1631925211715.svg&quot;},&quot;pos&quot;:&quot;2&quot;,&quot;accessories&quot;:&quot;2,3&quot;}" style="background-color: white;"><g class="model" style="pointer-events: none;"><polygon fill="#FFFFFF" points="0.5,0.5 0.5,67.2 0.5,300.5 0.5,367.2 500.5,367.2 500.5,300.5 500.5,67.2 500.5,0.5 "></polygon></g><image width="760" height="558" xlink:href="https://lct-designs.s3.us-west-1.amazonaws.com/assets/libs/orange-crushers-5-1657596922570.png" class="asset background locked" transform="matrix(0.6571684806577621,0,0,0.6571684806577621,0,0)"></image><text fill="#ffffff" font-family="Impact" font-size="40" x="54.87449865828927" y="201.7453084835824" stroke-opacity="1" stroke-width="2" stroke="#000000" transform="matrix(0.3042240142822266,0,0,0.30422401428222656,366.23630523681646,46.60127639770509)" svgjs:data="{&quot;leading&quot;:&quot;1.3&quot;}"><tspan dy="0" x="54.87449865828927" svgjs:data="{&quot;newLined&quot;:true}">Coach: Coach's name</tspan></text><text fill="#ffffff" font-family="Impact" font-size="40" x="54.87449865828927" y="201.7453084835824" stroke-opacity="1" stroke-width="2" stroke="#000000" transform="matrix(0.3042240142822266,0,0,0.30422401428222656,321.2927889823914,31.87493133544922)" svgjs:data="{&quot;leading&quot;:&quot;1.3&quot;}"><tspan dy="0" x="54.87449865828927" svgjs:data="{&quot;newLined&quot;:true}">Team mom: Team mom's name</tspan></text><text fill="#ffffff" font-family="Impact" font-size="22" stroke-opacity="1" stroke-width="1" stroke="#000000" x="198.53501731777467" y="199.70730192810635" transform="matrix(0.6373952031135559,0,0,0.637395203113556,127.47312927246094,50.05961233377458)" svgjs:data="{&quot;leading&quot;:&quot;1.3&quot;}"><tspan dy="0" x="198.53501731777467" svgjs:data="{&quot;newLined&quot;:true}">Player</tspan></text><image width="760" height="760" xlink:href="https://lct-designs.s3.us-west-1.amazonaws.com/assets/libs/crushers-goal-1-1632218526570.png" class="asset" transform="matrix(0.04610487818717957,0,0,0.046104878187179565,254.91993713378912,129.88117986917499)"></image><text fill="#ffffff" font-family="Impact" font-size="22" stroke-opacity="1" stroke-width="1" stroke="#000000" x="198.53501731777467" y="199.70730192810635" transform="matrix(0.6373952031135559,0,0,0.637395203113556,127.47314453125,104.56906896829608)" svgjs:data="{&quot;leading&quot;:&quot;1.3&quot;}"><tspan dy="0" x="198.53501731777467" svgjs:data="{&quot;newLined&quot;:true}">Player</tspan></text><image width="760" height="760" xlink:href="https://lct-designs.s3.us-west-1.amazonaws.com/assets/libs/crushers-goal-1-1632218526570.png" class="asset" transform="matrix(0.046104900538921356,0,0,0.04610490053892136,254.91995239257818,184.39064031839374)"></image><text fill="#ffffff" font-family="Impact" font-size="22" stroke-opacity="1" stroke-width="1" stroke="#000000" x="198.53501731777467" y="199.70730192810635" transform="matrix(0.6373952031135559,0,0,0.637395203113556,127.47314453125,158.58296209573749)" svgjs:data="{&quot;leading&quot;:&quot;1.3&quot;}"><tspan dy="0" x="198.53501731777467" svgjs:data="{&quot;newLined&quot;:true}">Player</tspan></text><image width="760" height="760" xlink:href="https://lct-designs.s3.us-west-1.amazonaws.com/assets/libs/crushers-goal-1-1632218526570.png" class="asset" transform="matrix(0.04610491544008256,0,0,0.04610491544008256,254.9199676513672,238.40454107522962)"></image><text fill="#ffffff" font-family="Impact" font-size="22" stroke-opacity="1" stroke-width="1" stroke="#000000" x="198.53501731777467" y="199.70730192810635" transform="matrix(0.6373952031135559,0,0,0.637395203113556,205.36219787597656,50.05961233377458)" svgjs:data="{&quot;leading&quot;:&quot;1.3&quot;}"><tspan dy="0" x="198.53501731777467" svgjs:data="{&quot;newLined&quot;:true}">Player</tspan></text><image width="760" height="760" xlink:href="https://lct-designs.s3.us-west-1.amazonaws.com/assets/libs/crushers-goal-1-1632218526570.png" class="asset" transform="matrix(0.04610488936305047,0,0,0.04610488936305046,332.8090209960938,129.88117986917499)"></image><text fill="#ffffff" font-family="Impact" font-size="22" stroke-opacity="1" stroke-width="1" stroke="#000000" x="198.53501731777467" y="199.70730192810635" transform="matrix(0.6373952031135559,0,0,0.637395203113556,205.36221313476568,104.56906896829608)" svgjs:data="{&quot;leading&quot;:&quot;1.3&quot;}"><tspan dy="0" x="198.53501731777467" svgjs:data="{&quot;newLined&quot;:true}">Player</tspan></text><image width="760" height="760" xlink:href="https://lct-designs.s3.us-west-1.amazonaws.com/assets/libs/crushers-goal-1-1632218526570.png" class="asset" transform="matrix(0.04610491544008256,0,0,0.04610491544008256,332.8090209960938,184.39064031839374)"></image><text fill="#ffffff" font-family="Impact" font-size="22" stroke-opacity="1" stroke-width="1" stroke="#000000" x="198.53501731777467" y="199.70730192810635" transform="matrix(0.6373952031135559,0,0,0.637395203113556,205.36221313476568,158.58296209573749)" svgjs:data="{&quot;leading&quot;:&quot;1.3&quot;}"><tspan dy="0" x="198.53501731777467" svgjs:data="{&quot;newLined&quot;:true}">Player</tspan></text><image width="760" height="760" xlink:href="https://lct-designs.s3.us-west-1.amazonaws.com/assets/libs/crushers-goal-1-1632218526570.png" class="asset" transform="matrix(0.04610493034124375,0,0,0.046104930341243744,332.8090209960938,238.40454107522962)"></image><text fill="#ffffff" font-family="Impact" font-size="22" stroke-opacity="1" stroke-width="1" stroke="#000000" x="198.53501731777467" y="199.70730192810635" transform="matrix(0.6373952031135559,0,0,0.637395203113556,282.75573730468756,50.05961233377458)" svgjs:data="{&quot;leading&quot;:&quot;1.3&quot;}"><tspan dy="0" x="198.53501731777467" svgjs:data="{&quot;newLined&quot;:true}">Player</tspan></text><image width="760" height="760" xlink:href="https://lct-designs.s3.us-west-1.amazonaws.com/assets/libs/crushers-goal-1-1632218526570.png" class="asset" transform="matrix(0.046104900538921356,0,0,0.04610490053892136,410.2025451660156,129.88117986917499)"></image><text fill="#ffffff" font-family="Impact" font-size="22" stroke-opacity="1" stroke-width="1" stroke="#000000" x="198.53501731777467" y="199.70730192810635" transform="matrix(0.6373952031135559,0,0,0.637395203113556,282.75573730468756,104.56906896829608)" svgjs:data="{&quot;leading&quot;:&quot;1.3&quot;}"><tspan dy="0" x="198.53501731777467" svgjs:data="{&quot;newLined&quot;:true}">Player</tspan></text><image width="760" height="760" xlink:href="https://lct-designs.s3.us-west-1.amazonaws.com/assets/libs/crushers-goal-1-1632218526570.png" class="asset" transform="matrix(0.04610493034124375,0,0,0.046104930341243744,410.2025451660156,184.39064031839374)"></image><text fill="#ffffff" font-family="Impact" font-size="22" stroke-opacity="1" stroke-width="1" stroke="#000000" x="198.53501731777467" y="199.70730192810635" transform="matrix(0.6373952031135559,0,0,0.637395203113556,282.75573730468756,158.58296209573749)" svgjs:data="{&quot;leading&quot;:&quot;1.3&quot;}"><tspan dy="0" x="198.53501731777467" svgjs:data="{&quot;newLined&quot;:true}">Player</tspan></text><image width="760" height="760" xlink:href="https://lct-designs.s3.us-west-1.amazonaws.com/assets/libs/crushers-goal-1-1632218526570.png" class="asset" transform="matrix(0.04610494524240494,0,0,0.04610494524240494,410.2025451660156,238.40454107522962)"></image><image width="760" height="103" xlink:href="https://lct-designs.s3.us-west-1.amazonaws.com/assets/libs/orange-crushers-3-1657596922570.png" class="asset" transform="matrix(0.4250259697437287,0,0,0.4250259697437287,13.67671489715579,84.40312194824219)"></image><image width="760" height="686" xlink:href="https://lct-designs.s3.us-west-1.amazonaws.com/assets/libs/orange-crushers-2-1657596922570.png" class="asset" transform="matrix(0.23343060910701754,0,0,0.23343060910701754,60.971256256103544,130.28977966308594)"></image><g class="mask" style="pointer-events: none;"><g><path fill="#BCBEC0" d="M-3642.4-2101.7v4589.1h7813.4v-4589.1H-3642.4z M500.5,67.2v233.3v66.7H0.5v-66.7V67.2V0.5h500V67.2z" transform="matrix(1,0,0,1,0,0)"></path><g transform="matrix(1,0,0,1,0,0)">
	<rect x="0.5" y="300.5" opacity="0.95" fill="#F1F2F2" width="500" height="66.7"></rect>
	<rect x="0.5" y="0.5" opacity="0.95" fill="#F1F2F2" width="500" height="66.7"></rect>
</g></g></g></svg>