<svg xmlns="http://www.w3.org/2000/svg" version="1.1" xmlns:xlink="http://www.w3.org/1999/xlink" xmlns:svgjs="http://svgjs.dev/svgjs" width="100%" height="100%" viewBox="1 1 499 365.70001220703125" preserveAspectRatio="none" data-info="{&quot;_id&quot;:4,&quot;name&quot;:&quot;POLE POCKET SOCCER BANNERS&quot;,&quot;information&quot;:&quot;- Size: 3’x5’\n- Material: heavy duty vinyl banner\n- Digitally printed on vinyl&quot;,&quot;price&quot;:&quot;95.00&quot;,&quot;sale_price&quot;:&quot;89.99&quot;,&quot;type&quot;:&quot;pole-pocket&quot;,&quot;cover&quot;:{&quot;key&quot;:&quot;assets/models/pole-1628062864266-1631924568908.png&quot;,&quot;url&quot;:&quot;https://lct-designs.s3.us-west-1.amazonaws.com/assets/models/pole-1628062864266-1631924568908.png&quot;},&quot;back&quot;:{&quot;key&quot;:&quot;assets/models/pole-1631924700152.svg&quot;,&quot;url&quot;:&quot;https://lct-designs.s3.us-west-1.amazonaws.com/assets/models/pole-1631924700152.svg&quot;},&quot;mask&quot;:{&quot;key&quot;:&quot;assets/models/pole-mask-1631925211715.svg&quot;,&quot;url&quot;:&quot;https://lct-designs.s3.us-west-1.amazonaws.com/assets/models/pole-mask-1631925211715.svg&quot;},&quot;pos&quot;:&quot;2&quot;,&quot;accessories&quot;:&quot;2,3&quot;}" style="background-color: white;"><g class="model" style="pointer-events: none;"><polygon fill="#FFFFFF" points="0.5,0.5 0.5,67.2 0.5,300.5 0.5,367.2 500.5,367.2 500.5,300.5 500.5,67.2 500.5,0.5 "></polygon></g><image width="760" height="556" xlink:href="https://lct-designs.s3.us-west-1.amazonaws.com/assets/libs/elepmants-2-1655799964506.png" class="asset background locked" transform="matrix(0.6595323960558116,0,0,0.6595323960558116,0,0)"></image><text fill="#000000" font-family="Impact" font-size="45" x="54.87449865828927" y="201.7453084835824" transform="matrix(0.26226958632469183,0,0,0.2622695863246918,373.7025756835938,46.250473022460945)" svgjs:data="{&quot;leading&quot;:&quot;1.3&quot;}"><tspan dy="0" x="54.87449865828927" svgjs:data="{&quot;newLined&quot;:true}">Coach: Coach's name</tspan></text><text fill="#000000" font-family="Impact" font-size="45" x="54.87449865828927" y="201.7453084835824" transform="matrix(0.26226958632469183,0,0,0.2622695863246918,330.10079956054693,31.98735046386718)" svgjs:data="{&quot;leading&quot;:&quot;1.3&quot;}"><tspan dy="0" x="54.87449865828927" svgjs:data="{&quot;newLined&quot;:true}">Team mom: Team mom's name</tspan></text><image width="760" height="195" xlink:href="https://lct-designs.s3.us-west-1.amazonaws.com/assets/libs/elepmants-5-1655802496116.png" class="asset" transform="matrix(0.3958282470703125,0,0,0.3958282470703125,40.34514236450195,78.96107482910156)"></image><image width="592" height="760" xlink:href="https://lct-designs.s3.us-west-1.amazonaws.com/assets/libs/elepmants-3-1655799964506.png" class="asset" transform="matrix(0.23267865180969238,0,0,0.23267865180969238,349.96398925781256,113.56568145751953)"></image><image width="749" height="760" xlink:href="https://lct-designs.s3.us-west-1.amazonaws.com/assets/libs/elepmants-4-1655799964506.png" class="asset" transform="matrix(0.05408940464258194,0,0,0.05408940464258194,12.242887496948242,159.57574462890625)"></image><text fill="#000000" font-family="Impact" font-size="20" stroke-opacity="1" stroke-width="-0.5" stroke="#ffffff" x="201.05295554036593" y="199.03331779306987" transform="matrix(1,0,0,1,-194.62246704101562,19.78431701660157)" svgjs:data="{&quot;leading&quot;:&quot;1.3&quot;}"><tspan dy="0" x="201.05295554036593" svgjs:data="{&quot;newLined&quot;:true}">Player</tspan></text><image width="749" height="760" xlink:href="https://lct-designs.s3.us-west-1.amazonaws.com/assets/libs/elepmants-4-1655799964506.png" class="asset" transform="matrix(0.05408941209316254,0,0,0.05408941209316254,99.99986267089844,159.57574462890625)"></image><text fill="#000000" font-family="Impact" font-size="20" stroke-opacity="1" stroke-width="-0.5" stroke="#ffffff" x="201.05295554036593" y="199.03331779306987" transform="matrix(1,0,0,1,-106.86549377441406,19.78431701660157)" svgjs:data="{&quot;leading&quot;:&quot;1.3&quot;}"><tspan dy="0" x="201.05295554036593" svgjs:data="{&quot;newLined&quot;:true}">Player</tspan></text><image width="749" height="760" xlink:href="https://lct-designs.s3.us-west-1.amazonaws.com/assets/libs/elepmants-4-1655799964506.png" class="asset" transform="matrix(0.05408941209316254,0,0,0.05408941209316254,176.3765106201172,161.4161376953125)"></image><text fill="#000000" font-family="Impact" font-size="20" stroke-opacity="1" stroke-width="-0.5" stroke="#ffffff" x="201.05295554036593" y="199.03331779306987" transform="matrix(1,0,0,1,-30.488845825195312,21.62471008300782)" svgjs:data="{&quot;leading&quot;:&quot;1.3&quot;}"><tspan dy="0" x="201.05295554036593" svgjs:data="{&quot;newLined&quot;:true}">Player</tspan></text><image width="749" height="760" xlink:href="https://lct-designs.s3.us-west-1.amazonaws.com/assets/libs/elepmants-4-1655799964506.png" class="asset" transform="matrix(0.05408942326903343,0,0,0.05408942326903343,264.13348388671875,161.4161376953125)"></image><text fill="#000000" font-family="Impact" font-size="20" stroke-opacity="1" stroke-width="-0.5" stroke="#ffffff" x="201.05295554036593" y="199.03331779306987" transform="matrix(1,0,0,1,57.26812744140625,21.62471008300782)" svgjs:data="{&quot;leading&quot;:&quot;1.3&quot;}"><tspan dy="0" x="201.05295554036593" svgjs:data="{&quot;newLined&quot;:true}">Player</tspan></text><image width="749" height="760" xlink:href="https://lct-designs.s3.us-west-1.amazonaws.com/assets/libs/elepmants-4-1655799964506.png" class="asset" transform="matrix(0.05408941209316254,0,0,0.05408941209316254,49.38880729675293,226.29029846191403)"></image><text fill="#000000" font-family="Impact" font-size="20" stroke-opacity="1" stroke-width="-0.5" stroke="#ffffff" x="201.05295554036593" y="199.03331779306987" transform="matrix(1,0,0,1,-157.47654724121094,86.4988708496094)" svgjs:data="{&quot;leading&quot;:&quot;1.3&quot;}"><tspan dy="0" x="201.05295554036593" svgjs:data="{&quot;newLined&quot;:true}">Player</tspan></text><image width="749" height="760" xlink:href="https://lct-designs.s3.us-west-1.amazonaws.com/assets/libs/elepmants-4-1655799964506.png" class="asset" transform="matrix(0.05408942326903343,0,0,0.05408942326903343,137.14578247070315,226.29029846191403)"></image><text fill="#000000" font-family="Impact" font-size="20" stroke-opacity="1" stroke-width="-0.5" stroke="#ffffff" x="201.05295554036593" y="199.03331779306987" transform="matrix(1,0,0,1,-69.71957397460938,86.4988708496094)" svgjs:data="{&quot;leading&quot;:&quot;1.3&quot;}"><tspan dy="0" x="201.05295554036593" svgjs:data="{&quot;newLined&quot;:true}">Player</tspan></text><image width="749" height="760" xlink:href="https://lct-designs.s3.us-west-1.amazonaws.com/assets/libs/elepmants-4-1655799964506.png" class="asset" transform="matrix(0.05408942326903343,0,0,0.05408942326903343,213.52243041992193,228.13069152832028)"></image><text fill="#000000" font-family="Impact" font-size="20" stroke-opacity="1" stroke-width="-0.5" stroke="#ffffff" x="201.05295554036593" y="199.03331779306987" transform="matrix(1,0,0,1,6.657073974609389,88.33926391601562)" svgjs:data="{&quot;leading&quot;:&quot;1.3&quot;}"><tspan dy="0" x="201.05295554036593" svgjs:data="{&quot;newLined&quot;:true}">Player</tspan></text><image width="749" height="760" xlink:href="https://lct-designs.s3.us-west-1.amazonaws.com/assets/libs/elepmants-4-1655799964506.png" class="asset" transform="matrix(0.05408943071961403,0,0,0.054089430719614036,301.2794036865235,228.13069152832028)"></image><text fill="#000000" font-family="Impact" font-size="20" stroke-opacity="1" stroke-width="-0.5" stroke="#ffffff" x="201.05295554036593" y="199.03331779306987" transform="matrix(1,0,0,1,94.41404724121097,88.33926391601562)" svgjs:data="{&quot;leading&quot;:&quot;1.3&quot;}"><tspan dy="0" x="201.05295554036593" svgjs:data="{&quot;newLined&quot;:true}">Player</tspan></text><g class="mask" style="pointer-events: none;"><g><path fill="#BCBEC0" d="M-3642.4-2101.7v4589.1h7813.4v-4589.1H-3642.4z M500.5,67.2v233.3v66.7H0.5v-66.7V67.2V0.5h500V67.2z" transform="matrix(1,0,0,1,0,0)"></path><g transform="matrix(1,0,0,1,0,0)">
	<rect x="0.5" y="300.5" opacity="0.95" fill="#F1F2F2" width="500" height="66.7"></rect>
	<rect x="0.5" y="0.5" opacity="0.95" fill="#F1F2F2" width="500" height="66.7"></rect>
</g></g></g></svg>