<svg xmlns="http://www.w3.org/2000/svg" version="1.1" xmlns:xlink="http://www.w3.org/1999/xlink" xmlns:svgjs="http://svgjs.dev/svgjs" width="100%" height="100%" viewBox="1 1 499 365.70001220703125" preserveAspectRatio="none" data-info="{&quot;_id&quot;:4,&quot;name&quot;:&quot;POLE POCKET SOCCER BANNERS&quot;,&quot;information&quot;:&quot;- Size: 3’x5’\n- Material: heavy duty vinyl banner\n- Digitally printed on vinyl&quot;,&quot;price&quot;:&quot;95.00&quot;,&quot;sale_price&quot;:&quot;89.99&quot;,&quot;type&quot;:&quot;pole-pocket&quot;,&quot;cover&quot;:{&quot;key&quot;:&quot;assets/models/pole-1628062864266-1631924568908.png&quot;,&quot;url&quot;:&quot;https://lct-designs.s3.us-west-1.amazonaws.com/assets/models/pole-1628062864266-1631924568908.png&quot;},&quot;back&quot;:{&quot;key&quot;:&quot;assets/models/pole-1631924700152.svg&quot;,&quot;url&quot;:&quot;https://lct-designs.s3.us-west-1.amazonaws.com/assets/models/pole-1631924700152.svg&quot;},&quot;mask&quot;:{&quot;key&quot;:&quot;assets/models/pole-mask-1631925211715.svg&quot;,&quot;url&quot;:&quot;https://lct-designs.s3.us-west-1.amazonaws.com/assets/models/pole-mask-1631925211715.svg&quot;},&quot;pos&quot;:&quot;2&quot;,&quot;accessories&quot;:&quot;2,3&quot;}" style="background-color: white;"><g class="model" style="pointer-events: none;"><polygon fill="#FFFFFF" points="0.5,0.5 0.5,67.2 0.5,300.5 0.5,367.2 500.5,367.2 500.5,300.5 500.5,67.2 500.5,0.5 "></polygon></g><image width="760" height="556" xlink:href="https://lct-designs.s3.us-west-1.amazonaws.com/assets/libs/bandits-6-1657094623794.png" class="asset background locked" transform="matrix(0.6595323960558116,0,0,0.6595323960558116,0,0)"></image><text fill="#ffffff" font-family="Impact" font-size="45" x="50.877864861049005" y="201.76359325371294" stroke-opacity="1" stroke-width="1" stroke="#000000" transform="matrix(0.221296027302742,0,0,0.221296027302742,-4.912406921386719,52.834197998046875)" svgjs:data="{&quot;leading&quot;:&quot;1.3&quot;}"><tspan dy="0" x="50.877864861049005" svgjs:data="{&quot;newLined&quot;:true}">COACH: COACH'S NAME</tspan></text><text fill="#ffffff" font-family="Impact" font-size="45" x="50.877864861049005" y="201.76359325371294" stroke-opacity="1" stroke-width="-1" stroke="#000000" transform="matrix(0.221296027302742,0,0,0.221296027302742,-4.360527038574215,37.967132568359375)" svgjs:data="{&quot;leading&quot;:&quot;1.3&quot;}"><tspan dy="0" x="50.877864861049005" svgjs:data="{&quot;newLined&quot;:true}">TEAM MOM: TEAM MOM'S NAME</tspan></text><image width="760" height="651" xlink:href="https://lct-designs.s3.us-west-1.amazonaws.com/assets/libs/bandits-2-1657094623795.png" class="asset" transform="matrix(0.2553463280200958,0,0,0.2553463280200958,13.465779304504395,114.03099822998045)"></image><image width="760" height="172" xlink:href="https://lct-designs.s3.us-west-1.amazonaws.com/assets/libs/bandits-4-1657094623795.png" class="asset" transform="matrix(0.4299599528312683,0,0,0.4299599528312683,154.1942596435547,72.69645690917969)"></image><image width="760" height="712" xlink:href="https://lct-designs.s3.us-west-1.amazonaws.com/assets/libs/bandits-3-1657094623795.png" class="asset" transform="matrix(0.06492066383361816,0,0,0.06492066383361816,214.9337921142578,149.75294494628906)"></image><text fill="#a27b52" font-family="Impact" font-size="17" stroke-opacity="1" stroke-width="0.3" stroke="#ffffff" x="187.89653115755198" y="201.78598376242223" transform="matrix(1,0,0,1,28.058366775512702,11.037521362304702)" svgjs:data="{&quot;leading&quot;:&quot;1.3&quot;}"><tspan dy="0" x="187.89653115755198" svgjs:data="{&quot;newLined&quot;:true}">PLAYER</tspan></text><image width="760" height="712" xlink:href="https://lct-designs.s3.us-west-1.amazonaws.com/assets/libs/bandits-3-1657094623795.png" class="asset" transform="matrix(0.06492066383361816,0,0,0.06492066383361816,214.9337921142578,231.98251342773438)"></image><text fill="#a27b52" font-family="Impact" font-size="17" stroke-opacity="1" stroke-width="0.3" stroke="#ffffff" x="187.89653115755198" y="201.78598376242223" transform="matrix(1,0,0,1,28.058349609375007,89.95582580566406)" svgjs:data="{&quot;leading&quot;:&quot;1.3&quot;}"><tspan dy="0" x="187.89653115755198" svgjs:data="{&quot;newLined&quot;:true}">PLAYER</tspan></text><image width="760" height="712" xlink:href="https://lct-designs.s3.us-west-1.amazonaws.com/assets/libs/bandits-3-1657094623795.png" class="asset" transform="matrix(0.06492066383361816,0,0,0.06492066383361816,295.8498840332031,152.51235961914062)"></image><text fill="#a27b52" font-family="Impact" font-size="17" stroke-opacity="1" stroke-width="0.3" stroke="#ffffff" x="187.89653115755198" y="201.78598376242223" transform="matrix(1,0,0,1,108.97444152832031,10.485671997070312)" svgjs:data="{&quot;leading&quot;:&quot;1.3&quot;}"><tspan dy="0" x="187.89653115755198" svgjs:data="{&quot;newLined&quot;:true}">PLAYER</tspan></text><image width="760" height="712" xlink:href="https://lct-designs.s3.us-west-1.amazonaws.com/assets/libs/bandits-3-1657094623795.png" class="asset" transform="matrix(0.06492066383361816,0,0,0.06492066383361816,295.849853515625,231.43066406249994)"></image><text fill="#a27b52" font-family="Impact" font-size="17" stroke-opacity="1" stroke-width="0.3" stroke="#ffffff" x="187.89653115755198" y="201.78598376242223" transform="matrix(1,0,0,1,108.97442626953125,89.40397644042969)" svgjs:data="{&quot;leading&quot;:&quot;1.3&quot;}"><tspan dy="0" x="187.89653115755198" svgjs:data="{&quot;newLined&quot;:true}">PLAYER</tspan></text><image width="760" height="712" xlink:href="https://lct-designs.s3.us-west-1.amazonaws.com/assets/libs/bandits-3-1657094623795.png" class="asset" transform="matrix(0.06492066383361816,0,0,0.06492066383361816,369.8675537109375,152.51235961914062)"></image><text fill="#a27b52" font-family="Impact" font-size="17" stroke-opacity="1" stroke-width="0.3" stroke="#ffffff" x="187.89653115755198" y="201.78598376242223" transform="matrix(1,0,0,1,182.9921112060547,10.485671997070312)" svgjs:data="{&quot;leading&quot;:&quot;1.3&quot;}"><tspan dy="0" x="187.89653115755198" svgjs:data="{&quot;newLined&quot;:true}">PLAYER</tspan></text><image width="760" height="712" xlink:href="https://lct-designs.s3.us-west-1.amazonaws.com/assets/libs/bandits-3-1657094623795.png" class="asset" transform="matrix(0.06492066383361816,0,0,0.06492066383361816,369.8675231933594,231.43066406249994)"></image><text fill="#a27b52" font-family="Impact" font-size="17" stroke-opacity="1" stroke-width="0.3" stroke="#ffffff" x="187.89653115755198" y="201.78598376242223" transform="matrix(1,0,0,1,182.99209594726562,89.40397644042969)" svgjs:data="{&quot;leading&quot;:&quot;1.3&quot;}"><tspan dy="0" x="187.89653115755198" svgjs:data="{&quot;newLined&quot;:true}">PLAYER</tspan></text><image width="760" height="712" xlink:href="https://lct-designs.s3.us-west-1.amazonaws.com/assets/libs/bandits-3-1657094623795.png" class="asset" transform="matrix(0.06492066383361816,0,0,0.06492066383361816,443.8852233886719,151.96047985553744)"></image><text fill="#a27b52" font-family="Impact" font-size="17" stroke-opacity="1" stroke-width="0.3" stroke="#ffffff" x="187.89653115755198" y="201.78598376242223" transform="matrix(1,0,0,1,257.00978088378906,9.933792233467116)" svgjs:data="{&quot;leading&quot;:&quot;1.3&quot;}"><tspan dy="0" x="187.89653115755198" svgjs:data="{&quot;newLined&quot;:true}">PLAYER</tspan></text><image width="760" height="712" xlink:href="https://lct-designs.s3.us-west-1.amazonaws.com/assets/libs/bandits-3-1657094623795.png" class="asset" transform="matrix(0.06492066383361816,0,0,0.06492066383361816,443.8851928710938,230.8787842988968)"></image><text fill="#a27b52" font-family="Impact" font-size="17" stroke-opacity="1" stroke-width="0.3" stroke="#ffffff" x="187.89653115755198" y="201.78598376242223" transform="matrix(1,0,0,1,257.00976562500006,88.85209667682648)" svgjs:data="{&quot;leading&quot;:&quot;1.3&quot;}"><tspan dy="0" x="187.89653115755198" svgjs:data="{&quot;newLined&quot;:true}">PLAYER</tspan></text><g class="mask" style="pointer-events: none;"><g><path fill="#BCBEC0" d="M-3642.4-2101.7v4589.1h7813.4v-4589.1H-3642.4z M500.5,67.2v233.3v66.7H0.5v-66.7V67.2V0.5h500V67.2z" transform="matrix(1,0,0,1,0,0)"></path><g transform="matrix(1,0,0,1,0,0)">
	<rect x="0.5" y="300.5" opacity="0.95" fill="#F1F2F2" width="500" height="66.7"></rect>
	<rect x="0.5" y="0.5" opacity="0.95" fill="#F1F2F2" width="500" height="66.7"></rect>
</g></g></g></svg>