<svg xmlns="http://www.w3.org/2000/svg" version="1.1" xmlns:xlink="http://www.w3.org/1999/xlink" xmlns:svgjs="http://svgjs.dev/svgjs" width="100%" height="100%" viewBox="1 1 499 365.70001220703125" preserveAspectRatio="none" data-info="{&quot;_id&quot;:4,&quot;name&quot;:&quot;POLE POCKET SOCCER BANNERS&quot;,&quot;information&quot;:&quot;- Size: 3’x5’\n- Material: heavy duty vinyl banner\n- Digitally printed on vinyl&quot;,&quot;price&quot;:&quot;95.00&quot;,&quot;sale_price&quot;:&quot;89.99&quot;,&quot;type&quot;:&quot;pole-pocket&quot;,&quot;cover&quot;:{&quot;key&quot;:&quot;assets/models/pole-1628062864266-1631924568908.png&quot;,&quot;url&quot;:&quot;https://lct-designs.s3.us-west-1.amazonaws.com/assets/models/pole-1628062864266-1631924568908.png&quot;},&quot;back&quot;:{&quot;key&quot;:&quot;assets/models/pole-1631924700152.svg&quot;,&quot;url&quot;:&quot;https://lct-designs.s3.us-west-1.amazonaws.com/assets/models/pole-1631924700152.svg&quot;},&quot;mask&quot;:{&quot;key&quot;:&quot;assets/models/pole-mask-1631925211715.svg&quot;,&quot;url&quot;:&quot;https://lct-designs.s3.us-west-1.amazonaws.com/assets/models/pole-mask-1631925211715.svg&quot;},&quot;pos&quot;:&quot;2&quot;,&quot;accessories&quot;:&quot;2,3&quot;}" style="background-color: white;"><g class="model" style="pointer-events: none;"><polygon fill="#FFFFFF" points="0.5,0.5 0.5,67.2 0.5,300.5 0.5,367.2 500.5,367.2 500.5,300.5 500.5,67.2 500.5,0.5 "></polygon></g><image width="760" height="556" xlink:href="https://lct-designs.s3.us-west-1.amazonaws.com/assets/libs/ninja-turtles-1-1656063717212.png" class="asset background locked" transform="matrix(0.6595323960558116,0,0,0.6595323960558116,0,0)"></image><text fill="#000000" font-family="Impact" font-size="45" x="50.877864861049005" y="201.76359325371294" stroke-opacity="1" stroke-width="1" stroke="#ffffff" transform="matrix(0.221296027302742,0,0,0.221296027302742,390.0049133300781,63.607349395751946)" svgjs:data="{&quot;leading&quot;:&quot;1.3&quot;}"><tspan dy="0" x="50.877864861049005" svgjs:data="{&quot;newLined&quot;:true}">COACH: COACH'S NAME</tspan></text><text fill="#000000" font-family="Impact" font-size="45" x="50.877864861049005" y="201.76359325371294" stroke-opacity="1" stroke-width="-1" stroke="#ffffff" transform="matrix(0.221296027302742,0,0,0.221296027302742,359.3283996582031,46.250129699707024)" svgjs:data="{&quot;leading&quot;:&quot;1.3&quot;}"><tspan dy="0" x="50.877864861049005" svgjs:data="{&quot;newLined&quot;:true}">TEAM MOM: TEAM MOM'S NAME</tspan></text><text fill="#ffe600" font-family="Impact" font-size="16" stroke-opacity="1" stroke-width="-0.3" stroke="#000000" x="192.063660189713" y="201.79391883677104" transform="matrix(0.8724281787872314,0,0,0.8724281787872314,-32.40469456925075,7.9285833814317925)" svgjs:data="{&quot;leading&quot;:&quot;1.3&quot;}"><tspan dy="0" x="192.063660189713" svgjs:data="{&quot;newLined&quot;:true}">Player</tspan></text><image width="760" height="712" xlink:href="https://lct-designs.s3.us-west-1.amazonaws.com/assets/libs/ninja-turtles-1-1633342536152.png" class="asset" transform="matrix(0.04376000165939331,0,0,0.04376000165939331,136.81802775913548,141.74585383373048)"></image><text fill="#ffe600" font-family="Impact" font-size="16" stroke-opacity="1" stroke-width="-0.3" stroke="#000000" x="192.063660189713" y="201.79391883677104" transform="matrix(0.8724281787872314,0,0,0.8724281787872314,50.92567595617993,7.9285833814317925)" svgjs:data="{&quot;leading&quot;:&quot;1.3&quot;}"><tspan dy="0" x="192.063660189713" svgjs:data="{&quot;newLined&quot;:true}">Player</tspan></text><image width="760" height="712" xlink:href="https://lct-designs.s3.us-west-1.amazonaws.com/assets/libs/ninja-turtles-1-1633342536152.png" class="asset" transform="matrix(0.04376000165939331,0,0,0.04376000165939331,220.14839828456616,141.74585383373048)"></image><text fill="#ffe600" font-family="Impact" font-size="16" stroke-opacity="1" stroke-width="-0.3" stroke="#000000" x="192.063660189713" y="201.79391883677104" transform="matrix(0.8724281787872314,0,0,0.8724281787872314,132.29184354221343,9.892830189848837)" svgjs:data="{&quot;leading&quot;:&quot;1.3&quot;}"><tspan dy="0" x="192.063660189713" svgjs:data="{&quot;newLined&quot;:true}">Player</tspan></text><image width="760" height="712" xlink:href="https://lct-designs.s3.us-west-1.amazonaws.com/assets/libs/ninja-turtles-1-1633342536152.png" class="asset" transform="matrix(0.04376000165939331,0,0,0.04376000165939331,301.51456587059965,143.71010254949624)"></image><text fill="#ffe600" font-family="Impact" font-size="16" stroke-opacity="1" stroke-width="-0.3" stroke="#000000" x="192.063660189713" y="201.79391883677104" transform="matrix(0.8724281787872314,0,0,0.8724281787872314,208.09277963914792,9.892799672269803)" svgjs:data="{&quot;leading&quot;:&quot;1.3&quot;}"><tspan dy="0" x="192.063660189713" svgjs:data="{&quot;newLined&quot;:true}">Player</tspan></text><image width="760" height="712" xlink:href="https://lct-designs.s3.us-west-1.amazonaws.com/assets/libs/ninja-turtles-1-1633342536152.png" class="asset" transform="matrix(0.04376000165939331,0,0,0.04376000165939331,377.3155019675342,143.71007203191718)"></image><text fill="#ffe600" font-family="Impact" font-size="16" stroke-opacity="1" stroke-width="-0.3" stroke="#000000" x="192.063660189713" y="201.79391883677104" transform="matrix(0.8724281787872314,0,0,0.8724281787872314,277.6737143300088,9.56543760196677)" svgjs:data="{&quot;leading&quot;:&quot;1.3&quot;}"><tspan dy="0" x="192.063660189713" svgjs:data="{&quot;newLined&quot;:true}">Player</tspan></text><image width="760" height="712" xlink:href="https://lct-designs.s3.us-west-1.amazonaws.com/assets/libs/ninja-turtles-1-1633342536152.png" class="asset" transform="matrix(0.04376000165939331,0,0,0.04376000165939331,446.89643665839503,143.38270996161418)"></image><image width="760" height="515" xlink:href="https://lct-designs.s3.us-west-1.amazonaws.com/assets/libs/ninja-turtles-3-1656063717214.png" class="asset" transform="matrix(0.20150162279605868,0,0,0.20150162279605865,17.001431018156723,161.25385002058283)"></image><image width="760" height="98" xlink:href="https://lct-designs.s3.us-west-1.amazonaws.com/assets/libs/ninja-turtles-1656064223173.png" class="asset" transform="matrix(0.37541359663009644,-0.00011885649291798472,0.00011885649291798476,0.3754135966300964,97.24548629657872,101.63994901299313)"></image><image width="760" height="556" xlink:href="https://lct-designs.s3.us-west-1.amazonaws.com/assets/libs/ninja-turtles-4-1656063717214.png" class="asset" transform="matrix(0.15277528762817383,0,0,0.15277528762817383,366.561839537675,196.20418370378545)"></image><image width="744" height="760" xlink:href="https://lct-designs.s3.us-west-1.amazonaws.com/assets/libs/ninja-turtles-2-1656063717213.png" class="asset" transform="matrix(0.08591984212398529,0,0,0.08591984212398529,31.731768600099315,86.20853680993716)"></image><text fill="#ffe600" font-family="Impact" font-size="16" stroke-opacity="1" stroke-width="-0.3" stroke="#000000" x="192.063660189713" y="201.79391883677104" transform="matrix(0.8724281787872314,0,0,0.8724281787872314,-59.873033400566335,109.41377012174627)" svgjs:data="{&quot;leading&quot;:&quot;1.3&quot;}"><tspan dy="0" x="192.063660189713" svgjs:data="{&quot;newLined&quot;:true}">Player</tspan></text><image width="760" height="712" xlink:href="https://lct-designs.s3.us-west-1.amazonaws.com/assets/libs/ninja-turtles-1-1633342536152.png" class="asset" transform="matrix(0.04376000165939331,0,0,0.04376000165939331,109.3496889278199,243.23104057404495)"></image><text fill="#ffe600" font-family="Impact" font-size="16" stroke-opacity="1" stroke-width="-0.3" stroke="#000000" x="192.063660189713" y="201.79391883677104" transform="matrix(0.8724281787872314,0,0,0.8724281787872314,21.49313418546717,111.37801693016331)" svgjs:data="{&quot;leading&quot;:&quot;1.3&quot;}"><tspan dy="0" x="192.063660189713" svgjs:data="{&quot;newLined&quot;:true}">Player</tspan></text><image width="760" height="712" xlink:href="https://lct-designs.s3.us-west-1.amazonaws.com/assets/libs/ninja-turtles-1-1633342536152.png" class="asset" transform="matrix(0.04376000165939331,0,0,0.04376000165939331,190.7158565138534,245.1952892898107)"></image><text fill="#ffe600" font-family="Impact" font-size="16" stroke-opacity="1" stroke-width="-0.3" stroke="#000000" x="192.063660189713" y="201.79391883677104" transform="matrix(0.8724281787872314,0,0,0.8724281787872314,97.29407028240166,111.37798641258425)" svgjs:data="{&quot;leading&quot;:&quot;1.3&quot;}"><tspan dy="0" x="192.063660189713" svgjs:data="{&quot;newLined&quot;:true}">Player</tspan></text><image width="760" height="712" xlink:href="https://lct-designs.s3.us-west-1.amazonaws.com/assets/libs/ninja-turtles-1-1633342536152.png" class="asset" transform="matrix(0.04376000165939331,0,0,0.04376000165939331,266.5167926107879,245.19525877223165)"></image><text fill="#ffe600" font-family="Impact" font-size="16" stroke-opacity="1" stroke-width="-0.3" stroke="#000000" x="192.063660189713" y="201.79391883677104" transform="matrix(0.8724281787872314,0,0,0.8724281787872314,166.87500497326255,111.05062434228122)" svgjs:data="{&quot;leading&quot;:&quot;1.3&quot;}"><tspan dy="0" x="192.063660189713" svgjs:data="{&quot;newLined&quot;:true}">Player</tspan></text><image width="760" height="712" xlink:href="https://lct-designs.s3.us-west-1.amazonaws.com/assets/libs/ninja-turtles-1-1633342536152.png" class="asset" transform="matrix(0.04376000165939331,0,0,0.04376000165939331,336.0977273016487,244.8678967019287)"></image><text fill="#ffe600" font-family="Impact" font-size="16" stroke-opacity="1" stroke-width="-0.3" stroke="#000000" x="192.063660189713" y="201.79391883677104" transform="matrix(0.8724281787872314,0,0,0.8724281787872314,57.861543472455196,61.94486421182341)" svgjs:data="{&quot;leading&quot;:&quot;1.3&quot;}"><tspan dy="0" x="192.063660189713" svgjs:data="{&quot;newLined&quot;:true}">Player</tspan></text><image width="760" height="712" xlink:href="https://lct-designs.s3.us-west-1.amazonaws.com/assets/libs/ninja-turtles-1-1633342536152.png" class="asset" transform="matrix(0.04376000165939331,0,0,0.04376000165939331,227.08426580084142,195.76213657147082)"></image><text fill="#ffe600" font-family="Impact" font-size="16" stroke-opacity="1" stroke-width="-0.3" stroke="#000000" x="192.063660189713" y="201.79391883677104" transform="matrix(0.8724281787872314,0,0,0.8724281787872314,127.44247816331611,61.61750214152038)" svgjs:data="{&quot;leading&quot;:&quot;1.3&quot;}"><tspan dy="0" x="192.063660189713" svgjs:data="{&quot;newLined&quot;:true}">Player</tspan></text><image width="760" height="712" xlink:href="https://lct-designs.s3.us-west-1.amazonaws.com/assets/libs/ninja-turtles-1-1633342536152.png" class="asset" transform="matrix(0.04376000165939331,0,0,0.04376000165939331,296.6652004917023,195.4347745011678)"></image><g class="mask" style="pointer-events: none;"><g><path fill="#BCBEC0" d="M-3642.4-2101.7v4589.1h7813.4v-4589.1H-3642.4z M500.5,67.2v233.3v66.7H0.5v-66.7V67.2V0.5h500V67.2z" transform="matrix(1,0,0,1,0,0)"></path><g transform="matrix(1,0,0,1,0,0)">
	<rect x="0.5" y="300.5" opacity="0.95" fill="#F1F2F2" width="500" height="66.7"></rect>
	<rect x="0.5" y="0.5" opacity="0.95" fill="#F1F2F2" width="500" height="66.7"></rect>
</g></g></g></svg>