<svg xmlns="http://www.w3.org/2000/svg" version="1.1" xmlns:xlink="http://www.w3.org/1999/xlink" xmlns:svgjs="http://svgjs.dev/svgjs" width="100%" height="100%" viewBox="1 1 499 365.70001220703125" preserveAspectRatio="none" data-info="{&quot;_id&quot;:4,&quot;name&quot;:&quot;POLE POCKET SOCCER BANNERS&quot;,&quot;information&quot;:&quot;- Size: 3’x5’\n- Material: heavy duty vinyl banner\n- Digitally printed on vinyl&quot;,&quot;price&quot;:&quot;95.00&quot;,&quot;sale_price&quot;:&quot;89.99&quot;,&quot;type&quot;:&quot;pole-pocket&quot;,&quot;cover&quot;:{&quot;key&quot;:&quot;assets/models/pole-1628062864266-1631924568908.png&quot;,&quot;url&quot;:&quot;https://lct-designs.s3.us-west-1.amazonaws.com/assets/models/pole-1628062864266-1631924568908.png&quot;},&quot;back&quot;:{&quot;key&quot;:&quot;assets/models/pole-1631924700152.svg&quot;,&quot;url&quot;:&quot;https://lct-designs.s3.us-west-1.amazonaws.com/assets/models/pole-1631924700152.svg&quot;},&quot;mask&quot;:{&quot;key&quot;:&quot;assets/models/pole-mask-1631925211715.svg&quot;,&quot;url&quot;:&quot;https://lct-designs.s3.us-west-1.amazonaws.com/assets/models/pole-mask-1631925211715.svg&quot;},&quot;pos&quot;:&quot;2&quot;,&quot;accessories&quot;:&quot;2,3&quot;}" style="background-color: white;"><g class="model" style="pointer-events: none;"><polygon fill="#FFFFFF" points="0.5,0.5 0.5,67.2 0.5,300.5 0.5,367.2 500.5,367.2 500.5,300.5 500.5,67.2 500.5,0.5 "></polygon></g><image width="760" height="556" xlink:href="https://lct-designs.s3.us-west-1.amazonaws.com/assets/libs/ponies-purple-5-1655194340062.png" class="asset background locked" transform="matrix(0.6595323960558116,0,0,0.6595323960558116,0,0)"></image><text fill="#000000" font-family="Impact" font-size="45" x="50.877864861049005" y="201.76359325371294" stroke-opacity="1" stroke-width="1" stroke="#ffffff" transform="matrix(0.221296027302742,0,0,0.221296027302742,385.40390014648443,62.22705459594726)" svgjs:data="{&quot;leading&quot;:&quot;1.3&quot;}"><tspan dy="0" x="50.877864861049005" svgjs:data="{&quot;newLined&quot;:true}">COACH: COACH'S NAME</tspan></text><text fill="#000000" font-family="Impact" font-size="45" x="50.877864861049005" y="201.76359325371294" stroke-opacity="1" stroke-width="-1" stroke="#ffffff" transform="matrix(0.221296027302742,0,0,0.221296027302742,354.7273864746094,46.71023559570313)" svgjs:data="{&quot;leading&quot;:&quot;1.3&quot;}"><tspan dy="0" x="50.877864861049005" svgjs:data="{&quot;newLined&quot;:true}">TEAM MOM: TEAM MOM'S NAME</tspan></text><image width="760" height="655" xlink:href="https://lct-designs.s3.us-west-1.amazonaws.com/assets/libs/ponies-purple-2-1655194340064.png" class="asset" transform="matrix(0.06906244158744812,0,0,0.06906244158744812,40.054012298583984,127.37509155273438)"></image><text fill="#cb9ae2" font-family="Impact" font-size="18" stroke-opacity="1" stroke-width="-0.3" stroke="#000000" x="192.063660189713" y="201.79391883677104" transform="matrix(0.8724281787872316,0,0,0.8724281787872314,-121.8364486694336,6.811370849609375)" svgjs:data="{&quot;leading&quot;:&quot;1.3&quot;}"><tspan dy="0" x="192.063660189713" svgjs:data="{&quot;newLined&quot;:true}">Player</tspan></text><image width="760" height="655" xlink:href="https://lct-designs.s3.us-west-1.amazonaws.com/assets/libs/ponies-purple-2-1655194340064.png" class="asset" transform="matrix(0.06906244158744812,0,0,0.06906244158744812,40.05398941040039,227.6769866943359)"></image><text fill="#cb9ae2" font-family="Impact" font-size="18" stroke-opacity="1" stroke-width="-0.3" stroke="#000000" x="192.063660189713" y="201.79391883677104" transform="matrix(0.8724281787872316,0,0,0.8724281787872314,-121.83644104003906,107.11326599121094)" svgjs:data="{&quot;leading&quot;:&quot;1.3&quot;}"><tspan dy="0" x="192.063660189713" svgjs:data="{&quot;newLined&quot;:true}">Player</tspan></text><text fill="#cb9ae2" font-family="Impact" font-size="18" stroke-opacity="1" stroke-width="-0.3" stroke="#000000" x="192.063660189713" y="201.79391883677104" transform="matrix(0.8724281787872316,0,0,0.8724281787872314,-10.614349365234375,6.811370849609375)" svgjs:data="{&quot;leading&quot;:&quot;1.3&quot;}"><tspan dy="0" x="192.063660189713" svgjs:data="{&quot;newLined&quot;:true}">Player</tspan></text><image width="760" height="655" xlink:href="https://lct-designs.s3.us-west-1.amazonaws.com/assets/libs/ponies-purple-2-1655194340064.png" class="asset" transform="matrix(0.06906244158744812,0,0,0.06906244158744812,151.27610778808594,127.37509155273438)"></image><text fill="#cb9ae2" font-family="Impact" font-size="18" stroke-opacity="1" stroke-width="-0.3" stroke="#000000" x="192.063660189713" y="201.79391883677104" transform="matrix(0.8724281787872316,0,0,0.8724281787872314,-10.614336013793945,107.11326599121094)" svgjs:data="{&quot;leading&quot;:&quot;1.3&quot;}"><tspan dy="0" x="192.063660189713" svgjs:data="{&quot;newLined&quot;:true}">Player</tspan></text><image width="760" height="655" xlink:href="https://lct-designs.s3.us-west-1.amazonaws.com/assets/libs/ponies-purple-2-1655194340064.png" class="asset" transform="matrix(0.06906244158744812,0,0,0.06906244158744812,151.2760467529297,227.6769866943359)"></image><image width="760" height="655" xlink:href="https://lct-designs.s3.us-west-1.amazonaws.com/assets/libs/ponies-purple-2-1655194340064.png" class="asset" transform="matrix(0.06906244158744812,0,0,0.06906244158744812,263.87847900390625,228.13706970214847)"></image><text fill="#cb9ae2" font-family="Impact" font-size="18" stroke-opacity="1" stroke-width="-0.3" stroke="#000000" x="192.063660189713" y="201.79391883677104" transform="matrix(0.8724281787872316,0,0,0.8724281787872314,104.45748901367188,107.57334899902344)" svgjs:data="{&quot;leading&quot;:&quot;1.3&quot;}"><tspan dy="0" x="192.063660189713" svgjs:data="{&quot;newLined&quot;:true}">Player</tspan></text><text fill="#cb9ae2" font-family="Impact" font-size="18" stroke-opacity="1" stroke-width="-0.3" stroke="#000000" x="192.063660189713" y="201.79391883677104" transform="matrix(0.8724281787872316,0,0,0.8724281787872314,101.988037109375,7.271453857421882)" svgjs:data="{&quot;leading&quot;:&quot;1.3&quot;}"><tspan dy="0" x="192.063660189713" svgjs:data="{&quot;newLined&quot;:true}">Player</tspan></text><image width="760" height="655" xlink:href="https://lct-designs.s3.us-west-1.amazonaws.com/assets/libs/ponies-purple-2-1655194340064.png" class="asset" transform="matrix(0.06906244158744812,0,0,0.06906244158744812,263.87847900390625,127.83517456054688)"></image><image width="562" height="760" xlink:href="https://lct-designs.s3.us-west-1.amazonaws.com/assets/libs/ponies-purple-3-1655194340064.png" class="asset" transform="matrix(0.22480857372283936,0,0,0.22480857372283936,357.5533142089844,111.72530364990234)"></image><image width="760" height="98" xlink:href="https://lct-designs.s3.us-west-1.amazonaws.com/assets/libs/ponies-purple-1-1655194340064.png" class="asset" transform="matrix(0.4226332902908325,0,0,0.4226332902908325,30.222957611083984,82.1219482421875)"></image><text fill="#cb9ae2" font-family="Impact" font-size="18" stroke-opacity="1" stroke-width="-0.3" stroke="#000000" x="192.063660189713" y="201.79391883677104" transform="matrix(0.8724281787872316,0,0,0.8724281787872314,-71.46978950500488,55.58203125000001)" svgjs:data="{&quot;leading&quot;:&quot;1.3&quot;}"><tspan dy="0" x="192.063660189713" svgjs:data="{&quot;newLined&quot;:true}">Player</tspan></text><image width="760" height="655" xlink:href="https://lct-designs.s3.us-west-1.amazonaws.com/assets/libs/ponies-purple-2-1655194340064.png" class="asset" transform="matrix(0.06906244158744812,0,0,0.06906244158744812,90.42059326171875,176.145751953125)"></image><image width="760" height="655" xlink:href="https://lct-designs.s3.us-west-1.amazonaws.com/assets/libs/ponies-purple-2-1655194340064.png" class="asset" transform="matrix(0.06906244158744812,0,0,0.06906244158744812,203.0230255126953,176.6058349609375)"></image><text fill="#cb9ae2" font-family="Impact" font-size="18" stroke-opacity="1" stroke-width="-0.3" stroke="#000000" x="192.063660189713" y="201.79391883677104" transform="matrix(0.8724281787872316,0,0,0.8724281787872314,43.60203552246094,56.04211425781249)" svgjs:data="{&quot;leading&quot;:&quot;1.3&quot;}"><tspan dy="0" x="192.063660189713" svgjs:data="{&quot;newLined&quot;:true}">Player</tspan></text><g class="mask" style="pointer-events: none;"><g><path fill="#BCBEC0" d="M-3642.4-2101.7v4589.1h7813.4v-4589.1H-3642.4z M500.5,67.2v233.3v66.7H0.5v-66.7V67.2V0.5h500V67.2z" transform="matrix(1,0,0,1,0,0)"></path><g transform="matrix(1,0,0,1,0,0)">
	<rect x="0.5" y="300.5" opacity="0.95" fill="#F1F2F2" width="500" height="66.7"></rect>
	<rect x="0.5" y="0.5" opacity="0.95" fill="#F1F2F2" width="500" height="66.7"></rect>
</g></g></g></svg>