<svg xmlns="http://www.w3.org/2000/svg" version="1.1" xmlns:xlink="http://www.w3.org/1999/xlink" xmlns:svgjs="http://svgjs.dev/svgjs" width="100%" height="100%" viewBox="1 1 499 365.70001220703125" preserveAspectRatio="none" data-info="{&quot;_id&quot;:4,&quot;name&quot;:&quot;POLE POCKET SOCCER BANNERS&quot;,&quot;information&quot;:&quot;- Size: 3’x5’\n- Material: heavy duty vinyl banner\n- Digitally printed on vinyl&quot;,&quot;price&quot;:&quot;95.00&quot;,&quot;sale_price&quot;:&quot;89.99&quot;,&quot;type&quot;:&quot;pole-pocket&quot;,&quot;cover&quot;:{&quot;key&quot;:&quot;assets/models/pole-1628062864266-1631924568908.png&quot;,&quot;url&quot;:&quot;https://lct-designs.s3.us-west-1.amazonaws.com/assets/models/pole-1628062864266-1631924568908.png&quot;},&quot;back&quot;:{&quot;key&quot;:&quot;assets/models/pole-1631924700152.svg&quot;,&quot;url&quot;:&quot;https://lct-designs.s3.us-west-1.amazonaws.com/assets/models/pole-1631924700152.svg&quot;},&quot;mask&quot;:{&quot;key&quot;:&quot;assets/models/pole-mask-1631925211715.svg&quot;,&quot;url&quot;:&quot;https://lct-designs.s3.us-west-1.amazonaws.com/assets/models/pole-mask-1631925211715.svg&quot;},&quot;pos&quot;:&quot;2&quot;,&quot;accessories&quot;:&quot;2,3&quot;}" style="background-color: white;"><g class="model" style="pointer-events: none;"><polygon fill="#FFFFFF" points="0.5,0.5 0.5,67.2 0.5,300.5 0.5,367.2 500.5,367.2 500.5,300.5 500.5,67.2 500.5,0.5 "></polygon></g><image width="760" height="455" xlink:href="https://lct-designs.s3.us-west-1.amazonaws.com/assets/libs/the-kraken-1-1655113606216.png" class="asset background locked" transform="matrix(0.805934092762706,0,0,0.805934092762706,0,0)"></image><text fill="#ffffff" font-family="Impact" font-size="45" x="50.877864861049005" y="201.76359325371294" stroke-opacity="1" stroke-width="1" stroke="#000000" transform="matrix(0.22129602730274203,0,0,0.22129602730274203,384.0993428569224,63.74305478717062)" svgjs:data="{&quot;leading&quot;:&quot;1.3&quot;}"><tspan dy="0" x="50.877864861049005" svgjs:data="{&quot;newLined&quot;:true}">COACH: COACH'S NAME</tspan></text><text fill="#ffffff" font-family="Impact" font-size="45" x="50.877864861049005" y="201.76359325371294" stroke-opacity="1" stroke-width="-1" stroke="#000000" transform="matrix(0.228671208024025,0,0,0.228671208024025,352.1358106853863,42.56683058350515)" svgjs:data="{&quot;leading&quot;:&quot;1.3&quot;}"><tspan dy="0" x="50.877864861049005" svgjs:data="{&quot;newLined&quot;:true}">TEAM MOM: TEAM MOM'S NAME</tspan></text><text fill="#ffffff" font-family="Impact" font-size="20" stroke-opacity="1" stroke-width="-1" stroke="#000000" x="191.96452729598332" y="202.05652900502182" transform="matrix(0.8077030777931213,0,0,0.8077030777931214,-22.476059436290683,-23.647148633472582)" svgjs:data="{&quot;leading&quot;:&quot;1.3&quot;}"><tspan dy="0" x="191.96452729598332" svgjs:data="{&quot;newLined&quot;:true}">Player</tspan></text><image width="760" height="758" xlink:href="https://lct-designs.s3.us-west-1.amazonaws.com/assets/libs/alliance1-1632042447894.png" class="asset" transform="matrix(0.048648856580257416,0,0,0.04864885658025742,135.09895611019022,87.65328402314243)"></image><text fill="#ffffff" font-family="Impact" font-size="20" stroke-opacity="1" stroke-width="-1" stroke="#000000" x="191.96452729598332" y="202.05652900502182" transform="matrix(0.8077030777931213,0,0,0.8077030777931214,74.71855321923464,-25.674950190119176)" svgjs:data="{&quot;leading&quot;:&quot;1.3&quot;}"><tspan dy="0" x="191.96452729598332" svgjs:data="{&quot;newLined&quot;:true}">Player</tspan></text><image width="760" height="758" xlink:href="https://lct-designs.s3.us-west-1.amazonaws.com/assets/libs/alliance1-1632042447894.png" class="asset" transform="matrix(0.048648856580257416,0,0,0.04864885658025742,232.29356876571552,85.62548246649585)"></image><text fill="#ffffff" font-family="Impact" font-size="20" stroke-opacity="1" stroke-width="-1" stroke="#000000" x="191.96452729598332" y="202.05652900502182" transform="matrix(0.8077030777931213,0,0,0.8077030777931214,160.96315343566766,-25.269394456426678)" svgjs:data="{&quot;leading&quot;:&quot;1.3&quot;}"><tspan dy="0" x="191.96452729598332" svgjs:data="{&quot;newLined&quot;:true}">Player</tspan></text><image width="760" height="758" xlink:href="https://lct-designs.s3.us-west-1.amazonaws.com/assets/libs/alliance1-1632042447894.png" class="asset" transform="matrix(0.048648856580257416,0,0,0.04864885658025742,318.538184240938,86.03103820018835)"></image><text fill="#ffffff" font-family="Impact" font-size="20" stroke-opacity="1" stroke-width="-1" stroke="#000000" x="191.96452729598332" y="202.05652900502182" transform="matrix(0.8077030777931213,0,0,0.8077030777931214,-112.64850092248898,-24.052719625954477)" svgjs:data="{&quot;leading&quot;:&quot;1.3&quot;}"><tspan dy="0" x="191.96452729598332" svgjs:data="{&quot;newLined&quot;:true}">Player</tspan></text><image width="760" height="758" xlink:href="https://lct-designs.s3.us-west-1.amazonaws.com/assets/libs/alliance1-1632042447894.png" class="asset" transform="matrix(0.048648856580257416,0,0,0.04864885658025742,44.92652225338658,87.24772066005524)"></image><image width="760" height="600" xlink:href="https://lct-designs.s3.us-west-1.amazonaws.com/assets/libs/the-kraken--2-1655113606216.png" class="asset" transform="matrix(0.23431915044784546,0,0,0.23431915044784546,24.50216535996678,150.7708772186886)"></image><text fill="#ffffff" font-family="Impact" font-size="20" stroke-opacity="1" stroke-width="-1" stroke="#000000" x="191.96452729598332" y="202.05652900502182" transform="matrix(0.8077030777931213,0,0,0.8077030777931214,81.2074754460911,53.81485099400089)" svgjs:data="{&quot;leading&quot;:&quot;1.3&quot;}"><tspan dy="0" x="191.96452729598332" svgjs:data="{&quot;newLined&quot;:true}">Player</tspan></text><image width="760" height="758" xlink:href="https://lct-designs.s3.us-west-1.amazonaws.com/assets/libs/alliance1-1632042447894.png" class="asset" transform="matrix(0.048648856580257416,0,0,0.04864885658025742,238.78249099257198,165.11528365061594)"></image><text fill="#ffffff" font-family="Impact" font-size="20" stroke-opacity="1" stroke-width="-1" stroke="#000000" x="191.96452729598332" y="202.05652900502182" transform="matrix(0.8077030777931213,0,0,0.8077030777931214,178.40208810161636,51.7870494373543)" svgjs:data="{&quot;leading&quot;:&quot;1.3&quot;}"><tspan dy="0" x="191.96452729598332" svgjs:data="{&quot;newLined&quot;:true}">Player</tspan></text><image width="760" height="758" xlink:href="https://lct-designs.s3.us-west-1.amazonaws.com/assets/libs/alliance1-1632042447894.png" class="asset" transform="matrix(0.048648856580257416,0,0,0.04864885658025742,335.97711890688674,163.08748209396936)"></image><text fill="#ffffff" font-family="Impact" font-size="20" stroke-opacity="1" stroke-width="-1" stroke="#000000" x="191.96452729598332" y="202.05652900502182" transform="matrix(0.8077030777931213,0,0,0.8077030777931214,264.6467035768389,52.19260517104681)" svgjs:data="{&quot;leading&quot;:&quot;1.3&quot;}"><tspan dy="0" x="191.96452729598332" svgjs:data="{&quot;newLined&quot;:true}">Player</tspan></text><image width="760" height="758" xlink:href="https://lct-designs.s3.us-west-1.amazonaws.com/assets/libs/alliance1-1632042447894.png" class="asset" transform="matrix(0.048648856580257416,0,0,0.04864885658025742,422.22171912331976,163.49304545705655)"></image><text fill="#ffffff" font-family="Impact" font-size="20" stroke-opacity="1" stroke-width="-1" stroke="#000000" x="191.96452729598332" y="202.05652900502182" transform="matrix(0.8077030777931213,0,0,0.8077030777931214,81.06855945732441,123.16565202428275)" svgjs:data="{&quot;leading&quot;:&quot;1.3&quot;}"><tspan dy="0" x="191.96452729598332" svgjs:data="{&quot;newLined&quot;:true}">Player</tspan></text><image width="760" height="758" xlink:href="https://lct-designs.s3.us-west-1.amazonaws.com/assets/libs/alliance1-1632042447894.png" class="asset" transform="matrix(0.048648856580257416,0,0,0.04864885658025742,238.64357500380532,234.46608468089778)"></image><text fill="#ffffff" font-family="Impact" font-size="20" stroke-opacity="1" stroke-width="-1" stroke="#000000" x="191.96452729598332" y="202.05652900502182" transform="matrix(0.8077030777931213,0,0,0.8077030777931214,178.2631721128497,121.13785046763611)" svgjs:data="{&quot;leading&quot;:&quot;1.3&quot;}"><tspan dy="0" x="191.96452729598332" svgjs:data="{&quot;newLined&quot;:true}">Player</tspan></text><image width="760" height="758" xlink:href="https://lct-designs.s3.us-west-1.amazonaws.com/assets/libs/alliance1-1632042447894.png" class="asset" transform="matrix(0.048648856580257416,0,0,0.04864885658025742,335.83820291812,232.4382831242512)"></image><text fill="#ffffff" font-family="Impact" font-size="20" stroke-opacity="1" stroke-width="-1" stroke="#000000" x="191.96452729598332" y="202.05652900502182" transform="matrix(0.8077030777931213,0,0,0.8077030777931214,264.5077875880722,121.54340620132864)" svgjs:data="{&quot;leading&quot;:&quot;1.3&quot;}"><tspan dy="0" x="191.96452729598332" svgjs:data="{&quot;newLined&quot;:true}">Player</tspan></text><image width="760" height="758" xlink:href="https://lct-designs.s3.us-west-1.amazonaws.com/assets/libs/alliance1-1632042447894.png" class="asset" transform="matrix(0.048648856580257416,0,0,0.04864885658025742,422.08280313455293,232.8438464873384)"></image><g class="mask" style="pointer-events: none;"><g><path fill="#BCBEC0" d="M-3642.4-2101.7v4589.1h7813.4v-4589.1H-3642.4z M500.5,67.2v233.3v66.7H0.5v-66.7V67.2V0.5h500V67.2z" transform="matrix(1,0,0,1,0,0)"></path><g transform="matrix(1,0,0,1,0,0)">
	<rect x="0.5" y="300.5" opacity="0.95" fill="#F1F2F2" width="500" height="66.7"></rect>
	<rect x="0.5" y="0.5" opacity="0.95" fill="#F1F2F2" width="500" height="66.7"></rect>
</g></g></g></svg>