<svg xmlns="http://www.w3.org/2000/svg" version="1.1" xmlns:xlink="http://www.w3.org/1999/xlink" xmlns:svgjs="http://svgjs.dev/svgjs" width="100%" height="100%" viewBox="1 1 499 365.70001220703125" preserveAspectRatio="none" data-info="{&quot;_id&quot;:4,&quot;name&quot;:&quot;POLE POCKET SOCCER BANNERS&quot;,&quot;information&quot;:&quot;- Size: 3’x5’\n- Material: heavy duty vinyl banner\n- Digitally printed on vinyl&quot;,&quot;price&quot;:&quot;95.00&quot;,&quot;sale_price&quot;:&quot;89.99&quot;,&quot;type&quot;:&quot;pole-pocket&quot;,&quot;cover&quot;:{&quot;key&quot;:&quot;assets/models/pole-1628062864266-1631924568908.png&quot;,&quot;url&quot;:&quot;https://lct-designs.s3.us-west-1.amazonaws.com/assets/models/pole-1628062864266-1631924568908.png&quot;},&quot;back&quot;:{&quot;key&quot;:&quot;assets/models/pole-1631924700152.svg&quot;,&quot;url&quot;:&quot;https://lct-designs.s3.us-west-1.amazonaws.com/assets/models/pole-1631924700152.svg&quot;},&quot;mask&quot;:{&quot;key&quot;:&quot;assets/models/pole-mask-1631925211715.svg&quot;,&quot;url&quot;:&quot;https://lct-designs.s3.us-west-1.amazonaws.com/assets/models/pole-mask-1631925211715.svg&quot;},&quot;pos&quot;:&quot;2&quot;,&quot;accessories&quot;:&quot;2,3&quot;}" style="background-color: white;"><g class="model" style="pointer-events: none;"><polygon fill="#FFFFFF" points="0.5,0.5 0.5,67.2 0.5,300.5 0.5,367.2 500.5,367.2 500.5,300.5 500.5,67.2 500.5,0.5 "></polygon></g><image width="760" height="556" xlink:href="https://lct-designs.s3.us-west-1.amazonaws.com/assets/libs/panthers-5-1657269761765.png" class="asset background locked" transform="matrix(0.6595323960558116,0,0,0.6595323960558116,0,0)"></image><text fill="#ffffff" font-family="Impact" font-size="32" x="50.877864861049005" y="201.76359325371294" stroke-opacity="1" stroke-width="1" stroke="#000000" transform="matrix(0.3637528717517853,0,0,0.3637528717517853,-5.417527675628676,11.719092369079583)" svgjs:data="{&quot;leading&quot;:&quot;1.3&quot;}"><tspan dy="0" x="50.877864861049005" svgjs:data="{&quot;newLined&quot;:true}">COACH: COACH'S NAME</tspan></text><text fill="#ffffff" font-family="Impact" font-size="32" stroke-opacity="1" stroke-width="1" stroke="#000000" x="59.2271308028171" y="196.50276588266948" transform="matrix(0.3766029179096222,0,0,0.3766029179096222,320.2770080566406,11.302480697631829)" svgjs:data="{&quot;leading&quot;:&quot;1.3&quot;}"><tspan dy="0" x="59.2271308028171" svgjs:data="{&quot;newLined&quot;:true}">TEAM MOM: TEAM MOM'S NAME</tspan></text><image width="744" height="760" xlink:href="https://lct-designs.s3.us-west-1.amazonaws.com/assets/libs/panthers-2-1657269761766.png" class="asset" transform="matrix(0.2290463149547577,0,0,0.2290463149547577,163.45318603515625,100.22277069091794)"></image><image width="760" height="478" xlink:href="https://lct-designs.s3.us-west-1.amazonaws.com/assets/libs/panthers-3-1657269761766.png" class="asset" transform="matrix(0.0690143033862114,0,0,0.0690143033862114,341.7506408691406,96.2304916381836)"></image><text fill="#ffffff" font-family="Impact" font-size="18" stroke-opacity="1" stroke-width="0.5" stroke="#000000" x="215.7228856535802" y="193.97221301859477" transform="matrix(1,0,0,1,127.21363067626953,-48.7706527709961)" svgjs:data="{&quot;leading&quot;:&quot;1.3&quot;}"><tspan dy="0" x="215.7228856535802" svgjs:data="{&quot;newLined&quot;:true}">PLAYER</tspan></text><image width="760" height="478" xlink:href="https://lct-designs.s3.us-west-1.amazonaws.com/assets/libs/panthers-3-1657269761766.png" class="asset" transform="matrix(0.0690143033862114,0,0,0.0690143033862114,404.66217041015625,146.84153747558594)"></image><text fill="#ffffff" font-family="Impact" font-size="18" stroke-opacity="1" stroke-width="0.5" stroke="#000000" x="215.7228856535802" y="193.97221301859477" transform="matrix(1,0,0,1,190.12515258789062,1.84039306640625)" svgjs:data="{&quot;leading&quot;:&quot;1.3&quot;}"><tspan dy="0" x="215.7228856535802" svgjs:data="{&quot;newLined&quot;:true}">PLAYER</tspan></text><image width="760" height="478" xlink:href="https://lct-designs.s3.us-west-1.amazonaws.com/assets/libs/panthers-3-1657269761766.png" class="asset" transform="matrix(0.0690143033862114,0,0,0.0690143033862114,405.7980651855469,243.92272949218747)"></image><text fill="#ffffff" font-family="Impact" font-size="18" stroke-opacity="1" stroke-width="0.5" stroke="#000000" x="215.7228856535802" y="193.97221301859477" transform="matrix(1,0,0,1,191.26104736328125,98.92158508300778)" svgjs:data="{&quot;leading&quot;:&quot;1.3&quot;}"><tspan dy="0" x="215.7228856535802" svgjs:data="{&quot;newLined&quot;:true}">PLAYER</tspan></text><image width="760" height="478" xlink:href="https://lct-designs.s3.us-west-1.amazonaws.com/assets/libs/panthers-3-1657269761766.png" class="asset" transform="matrix(0.0690143033862114,0,0,0.0690143033862114,342.88653564453125,195.61218261718753)"></image><text fill="#ffffff" font-family="Impact" font-size="18" stroke-opacity="1" stroke-width="0.5" stroke="#000000" x="215.7228856535802" y="193.97221301859477" transform="matrix(1,0,0,1,128.34951782226562,50.61103820800782)" svgjs:data="{&quot;leading&quot;:&quot;1.3&quot;}"><tspan dy="0" x="215.7228856535802" svgjs:data="{&quot;newLined&quot;:true}">PLAYER</tspan></text><image width="760" height="478" xlink:href="https://lct-designs.s3.us-west-1.amazonaws.com/assets/libs/panthers-3-1657269761766.png" class="asset" transform="matrix(-0.07083017379045486,0,0,0.0690143033862114,154.64439392089844,193.77177429199216)"></image><text fill="#ffffff" font-family="Impact" font-size="18" stroke-opacity="1" stroke-width="0.5" stroke="#000000" x="215.7228856535802" y="193.97221301859477" transform="matrix(1,0,0,1,-113.03350067138672,-47.850448608398445)" svgjs:data="{&quot;leading&quot;:&quot;1.3&quot;}"><tspan dy="0" x="215.7228856535802" svgjs:data="{&quot;newLined&quot;:true}">PLAYER</tspan></text><text fill="#ffffff" font-family="Impact" font-size="18" stroke-opacity="1" stroke-width="0.5" stroke="#000000" x="215.7228856535802" y="193.97221301859477" transform="matrix(1,0,0,1,-113.03350830078126,49.23074340820312)" svgjs:data="{&quot;leading&quot;:&quot;1.3&quot;}"><tspan dy="0" x="215.7228856535802" svgjs:data="{&quot;newLined&quot;:true}">PLAYER</tspan></text><image width="760" height="478" xlink:href="https://lct-designs.s3.us-west-1.amazonaws.com/assets/libs/panthers-3-1657269761766.png" class="asset" transform="matrix(-0.07083017379045486,0,0,0.0690143033862114,154.64439392089844,97.61079406738281)"></image><image width="760" height="478" xlink:href="https://lct-designs.s3.us-west-1.amazonaws.com/assets/libs/panthers-3-1657269761766.png" class="asset" transform="matrix(-0.07083017379045486,0,0,0.0690143033862114,80.4460220336914,242.54241943359378)"></image><text fill="#ffffff" font-family="Impact" font-size="18" stroke-opacity="1" stroke-width="0.5" stroke="#000000" x="215.7228856535802" y="193.97221301859477" transform="matrix(1,0,0,1,-187.23187255859375,0.920196533203125)" svgjs:data="{&quot;leading&quot;:&quot;1.3&quot;}"><tspan dy="0" x="215.7228856535802" svgjs:data="{&quot;newLined&quot;:true}">PLAYER</tspan></text><text fill="#ffffff" font-family="Impact" font-size="18" stroke-opacity="1" stroke-width="0.5" stroke="#000000" x="215.7228856535802" y="193.97221301859477" transform="matrix(1,0,0,1,-187.23188018798828,98.00138854980469)" svgjs:data="{&quot;leading&quot;:&quot;1.3&quot;}"><tspan dy="0" x="215.7228856535802" svgjs:data="{&quot;newLined&quot;:true}">PLAYER</tspan></text><image width="760" height="478" xlink:href="https://lct-designs.s3.us-west-1.amazonaws.com/assets/libs/panthers-3-1657269761766.png" class="asset" transform="matrix(-0.07083017379045486,0,0,0.0690143033862114,80.4460220336914,146.38143920898438)"></image><g class="mask" style="pointer-events: none;"><g><path fill="#BCBEC0" d="M-3642.4-2101.7v4589.1h7813.4v-4589.1H-3642.4z M500.5,67.2v233.3v66.7H0.5v-66.7V67.2V0.5h500V67.2z" transform="matrix(1,0,0,1,0,0)"></path><g transform="matrix(1,0,0,1,0,0)">
	<rect x="0.5" y="300.5" opacity="0.95" fill="#F1F2F2" width="500" height="66.7"></rect>
	<rect x="0.5" y="0.5" opacity="0.95" fill="#F1F2F2" width="500" height="66.7"></rect>
</g></g></g></svg>