<svg xmlns="http://www.w3.org/2000/svg" version="1.1" xmlns:xlink="http://www.w3.org/1999/xlink" xmlns:svgjs="http://svgjs.dev/svgjs" width="100%" height="100%" viewBox="1 1 499 365.70001220703125" preserveAspectRatio="none" data-info="{&quot;_id&quot;:4,&quot;name&quot;:&quot;POLE POCKET SOCCER BANNERS&quot;,&quot;information&quot;:&quot;- Size: 3’x5’\n- Material: heavy duty vinyl banner\n- Digitally printed on vinyl&quot;,&quot;price&quot;:&quot;95.00&quot;,&quot;sale_price&quot;:&quot;89.99&quot;,&quot;type&quot;:&quot;pole-pocket&quot;,&quot;cover&quot;:{&quot;key&quot;:&quot;assets/models/pole-1628062864266-1631924568908.png&quot;,&quot;url&quot;:&quot;https://lct-designs.s3.us-west-1.amazonaws.com/assets/models/pole-1628062864266-1631924568908.png&quot;},&quot;back&quot;:{&quot;key&quot;:&quot;assets/models/pole-1631924700152.svg&quot;,&quot;url&quot;:&quot;https://lct-designs.s3.us-west-1.amazonaws.com/assets/models/pole-1631924700152.svg&quot;},&quot;mask&quot;:{&quot;key&quot;:&quot;assets/models/pole-mask-1631925211715.svg&quot;,&quot;url&quot;:&quot;https://lct-designs.s3.us-west-1.amazonaws.com/assets/models/pole-mask-1631925211715.svg&quot;},&quot;pos&quot;:&quot;2&quot;,&quot;accessories&quot;:&quot;2,3&quot;}" style="background-color: white;"><g class="model" style="pointer-events: none;"><polygon fill="#FFFFFF" points="0.5,0.5 0.5,67.2 0.5,300.5 0.5,367.2 500.5,367.2 500.5,300.5 500.5,67.2 500.5,0.5 "></polygon></g><image width="760" height="556" xlink:href="https://lct-designs.s3.us-west-1.amazonaws.com/assets/libs/blue-tsunami-4-1653386108031.png" class="asset background locked" transform="matrix(0.6595323960558116,0,0,0.6595323960558116,0,0)"></image><text fill="#000000" font-family="Impact" font-size="45" x="50.877864861049005" y="201.76359325371294" stroke-opacity="1" stroke-width="1" stroke="#ffffff" transform="matrix(0.221296027302742,0,0,0.221296027302742,384.42182542150664,40.947915343878094)" svgjs:data="{&quot;leading&quot;:&quot;1.3&quot;}"><tspan dy="0" x="50.877864861049005" svgjs:data="{&quot;newLined&quot;:true}">COACH: COACH'S NAME</tspan></text><text fill="#000000" font-family="Impact" font-size="45" x="50.877864861049005" y="201.76359325371294" stroke-opacity="1" stroke-width="-1" stroke="#ffffff" transform="matrix(0.221296027302742,0,0,0.221296027302742,11.64600025552511,41.144967351703826)" svgjs:data="{&quot;leading&quot;:&quot;1.3&quot;}"><tspan dy="0" x="50.877864861049005" svgjs:data="{&quot;newLined&quot;:true}">TEAM MOM: TEAM MOM'S NAME</tspan></text><text fill="#ffffff" font-family="Impact" font-size="15" stroke-opacity="1" stroke-width="-0.3" stroke="#000000" x="192.063660189713" y="201.79391883677104" transform="matrix(0.9632567763328552,0,0,0.9632567763328552,-156.5150803481065,-54.22282952734315)" svgjs:data="{&quot;leading&quot;:&quot;1.3&quot;}"><tspan dy="0" x="192.063660189713" svgjs:data="{&quot;newLined&quot;:true}">Player</tspan></text><image width="760" height="513" xlink:href="https://lct-designs.s3.us-west-1.amazonaws.com/assets/libs/blue-tsunami-2-1653386230019.png" class="asset" transform="matrix(0.06074553728103638,0,0,0.06074553728103638,24.203491932257748,96.23843670601944)"></image><text fill="#ffffff" font-family="Impact" font-size="15" stroke-opacity="1" stroke-width="-0.3" stroke="#000000" x="192.063660189713" y="201.79391883677104" transform="matrix(0.9632570147514343,0,0,0.9632570147514343,-156.66348733495124,15.179943537114347)" svgjs:data="{&quot;leading&quot;:&quot;1.3&quot;}"><tspan dy="0" x="192.063660189713" svgjs:data="{&quot;newLined&quot;:true}">Player</tspan></text><image width="760" height="513" xlink:href="https://lct-designs.s3.us-west-1.amazonaws.com/assets/libs/blue-tsunami-2-1653386230019.png" class="asset" transform="matrix(0.06074553728103638,0,0,0.06074553728103638,24.05509257480776,165.64120977047696)"></image><text fill="#ffffff" font-family="Impact" font-size="15" stroke-opacity="1" stroke-width="-0.3" stroke="#000000" x="192.063660189713" y="201.79391883677104" transform="matrix(0.9632570147514343,0,0,0.9632570147514343,-155.8297928520974,86.54696913203497)" svgjs:data="{&quot;leading&quot;:&quot;1.3&quot;}"><tspan dy="0" x="192.063660189713" svgjs:data="{&quot;newLined&quot;:true}">Player</tspan></text><image width="760" height="513" xlink:href="https://lct-designs.s3.us-west-1.amazonaws.com/assets/libs/blue-tsunami-2-1653386230019.png" class="asset" transform="matrix(0.06074553728103638,0,0,0.06074553728103638,24.88879468705636,237.00823155070015)"></image><image width="760" height="359" xlink:href="https://lct-designs.s3.us-west-1.amazonaws.com/assets/libs/blue-tsunami-3-1653386200119.png" class="asset" transform="matrix(0.4461752474308014,0,0,0.44617524743080134,81.04767087244,119.46487782790881)"></image><text fill="#ffffff" font-family="Impact" font-size="15" stroke-opacity="1" stroke-width="-0.3" stroke="#000000" x="192.063660189713" y="201.79391883677104" transform="matrix(0.9632570147514343,0,0,0.9632570147514343,-43.87001931279951,-55.53233884371332)" svgjs:data="{&quot;leading&quot;:&quot;1.3&quot;}"><tspan dy="0" x="192.063660189713" svgjs:data="{&quot;newLined&quot;:true}">Player</tspan></text><image width="760" height="513" xlink:href="https://lct-designs.s3.us-west-1.amazonaws.com/assets/libs/blue-tsunami-2-1653386230019.png" class="asset" transform="matrix(0.06074553728103638,0,0,0.06074553728103638,136.8485605969595,94.92892738964927)"></image><image width="760" height="513" xlink:href="https://lct-designs.s3.us-west-1.amazonaws.com/assets/libs/blue-tsunami-2-1653386230019.png" class="asset" transform="matrix(0.06074553728103638,0,0,0.06074553728103638,87.26764176093457,144.36204959041015)"></image><text fill="#ffffff" font-family="Impact" font-size="15" stroke-opacity="1" stroke-width="-0.3" stroke="#000000" x="192.063660189713" y="201.79391883677104" transform="matrix(0.9632570147514343,0,0,0.9632570147514343,-93.45095340761395,-6.099210920906387)" svgjs:data="{&quot;leading&quot;:&quot;1.3&quot;}"><tspan dy="0" x="192.063660189713" svgjs:data="{&quot;newLined&quot;:true}">Player</tspan></text><text fill="#ffffff" font-family="Impact" font-size="15" stroke-opacity="1" stroke-width="-0.3" stroke="#000000" x="192.063660189713" y="201.79391883677104" transform="matrix(0.9632570147514343,0,0,0.9632570147514343,153.05699613860224,-50.94913253036532)" svgjs:data="{&quot;leading&quot;:&quot;1.3&quot;}"><tspan dy="0" x="192.063660189713" svgjs:data="{&quot;newLined&quot;:true}">Player</tspan></text><image width="760" height="513" xlink:href="https://lct-designs.s3.us-west-1.amazonaws.com/assets/libs/blue-tsunami-2-1653386230019.png" class="asset" transform="matrix(0.06074553728103638,0,0,0.06074553728103638,333.77558367775595,99.51213370299728)"></image><image width="760" height="513" xlink:href="https://lct-designs.s3.us-west-1.amazonaws.com/assets/libs/blue-tsunami-2-1653386230019.png" class="asset" transform="matrix(0.06074553728103638,0,0,0.06074553728103638,380.1134146485747,144.6894269195027)"></image><text fill="#ffffff" font-family="Impact" font-size="15" stroke-opacity="1" stroke-width="-0.3" stroke="#000000" x="192.063660189713" y="201.79391883677104" transform="matrix(0.9632570147514343,0,0,0.9632570147514343,199.39478133305238,-2.498139694277633)" svgjs:data="{&quot;leading&quot;:&quot;1.3&quot;}"><tspan dy="0" x="192.063660189713" svgjs:data="{&quot;newLined&quot;:true}">Player</tspan></text><text fill="#ffffff" font-family="Impact" font-size="15" stroke-opacity="1" stroke-width="-0.3" stroke="#000000" x="192.063660189713" y="201.79391883677104" transform="matrix(0.9632568955421449,0,0,0.9632568955421448,256.474617018539,-48.65750648550704)" svgjs:data="{&quot;leading&quot;:&quot;1.3&quot;}"><tspan dy="0" x="192.063660189713" svgjs:data="{&quot;newLined&quot;:true}">Player</tspan></text><image width="760" height="513" xlink:href="https://lct-designs.s3.us-west-1.amazonaws.com/assets/libs/blue-tsunami-2-1653386230019.png" class="asset" transform="matrix(0.06074553728103638,0,0,0.06074553728103638,437.19318929890323,101.80375974785558)"></image><text fill="#ffffff" font-family="Impact" font-size="15" stroke-opacity="1" stroke-width="-0.3" stroke="#000000" x="192.063660189713" y="201.79391883677104" transform="matrix(0.9632570147514343,0,0,0.9632570147514343,256.32621003169425,20.745266578950456)" svgjs:data="{&quot;leading&quot;:&quot;1.3&quot;}"><tspan dy="0" x="192.063660189713" svgjs:data="{&quot;newLined&quot;:true}">Player</tspan></text><image width="760" height="513" xlink:href="https://lct-designs.s3.us-west-1.amazonaws.com/assets/libs/blue-tsunami-2-1653386230019.png" class="asset" transform="matrix(0.06074553728103638,0,0,0.06074553728103638,437.04478994145325,171.20653281231307)"></image><text fill="#ffffff" font-family="Impact" font-size="15" stroke-opacity="1" stroke-width="-0.3" stroke="#000000" x="192.063660189713" y="201.79391883677104" transform="matrix(0.9632570147514343,0,0,0.9632570147514343,257.15990451454815,92.11229217387107)" svgjs:data="{&quot;leading&quot;:&quot;1.3&quot;}"><tspan dy="0" x="192.063660189713" svgjs:data="{&quot;newLined&quot;:true}">Player</tspan></text><image width="760" height="513" xlink:href="https://lct-designs.s3.us-west-1.amazonaws.com/assets/libs/blue-tsunami-2-1653386230019.png" class="asset" transform="matrix(0.06074553728103638,0,0,0.06074553728103638,437.87849205370185,242.5735545925363)"></image><g class="mask" style="pointer-events: none;"><g><path fill="#BCBEC0" d="M-3642.4-2101.7v4589.1h7813.4v-4589.1H-3642.4z M500.5,67.2v233.3v66.7H0.5v-66.7V67.2V0.5h500V67.2z" transform="matrix(1,0,0,1,0,0)"></path><g transform="matrix(1,0,0,1,0,0)">
	<rect x="0.5" y="300.5" opacity="0.95" fill="#F1F2F2" width="500" height="66.7"></rect>
	<rect x="0.5" y="0.5" opacity="0.95" fill="#F1F2F2" width="500" height="66.7"></rect>
</g></g></g></svg>