<svg xmlns="http://www.w3.org/2000/svg" version="1.1" xmlns:xlink="http://www.w3.org/1999/xlink" xmlns:svgjs="http://svgjs.dev/svgjs" width="100%" height="100%" viewBox="1 1 499 365.70001220703125" preserveAspectRatio="none" data-info="{&quot;_id&quot;:4,&quot;name&quot;:&quot;POLE POCKET SOCCER BANNERS&quot;,&quot;information&quot;:&quot;- Size: 3’x5’\n- Material: heavy duty vinyl banner\n- Digitally printed on vinyl&quot;,&quot;price&quot;:&quot;95.00&quot;,&quot;sale_price&quot;:&quot;89.99&quot;,&quot;type&quot;:&quot;pole-pocket&quot;,&quot;cover&quot;:{&quot;key&quot;:&quot;assets/models/pole-1628062864266-1631924568908.png&quot;,&quot;url&quot;:&quot;https://lct-designs.s3.us-west-1.amazonaws.com/assets/models/pole-1628062864266-1631924568908.png&quot;},&quot;back&quot;:{&quot;key&quot;:&quot;assets/models/pole-1631924700152.svg&quot;,&quot;url&quot;:&quot;https://lct-designs.s3.us-west-1.amazonaws.com/assets/models/pole-1631924700152.svg&quot;},&quot;mask&quot;:{&quot;key&quot;:&quot;assets/models/pole-mask-1631925211715.svg&quot;,&quot;url&quot;:&quot;https://lct-designs.s3.us-west-1.amazonaws.com/assets/models/pole-mask-1631925211715.svg&quot;},&quot;pos&quot;:&quot;2&quot;,&quot;accessories&quot;:&quot;2,3&quot;}" style="background-color: white;"><g class="model" style="pointer-events: none;"><polygon fill="#FFFFFF" points="0.5,0.5 0.5,67.2 0.5,300.5 0.5,367.2 500.5,367.2 500.5,300.5 500.5,67.2 500.5,0.5 "></polygon></g><image width="760" height="556" xlink:href="https://lct-designs.s3.us-west-1.amazonaws.com/assets/libs/beautiful-beasts-2-1632134437881.png" class="asset background locked" transform="matrix(0.6595323960558116,0,0,0.6595323960558116,0,0)"></image><text fill="#ffffff" font-family="Impact" font-size="20" x="50.877864861049005" y="201.76359325371294" stroke-opacity="1" stroke-width="-0.5" stroke="#000000" transform="matrix(0.490454912185669,0,0,0.49045491218566895,-18.21929931640625,-18.512060165405273)" svgjs:data="{&quot;leading&quot;:&quot;1.3&quot;}"><tspan dy="0" x="50.877864861049005" svgjs:data="{&quot;newLined&quot;:true}">COACH: COACH'S NAME</tspan></text><text fill="#ffffff" font-family="Impact" font-size="20" x="50.877864861049005" y="201.76359325371294" stroke-opacity="1" stroke-width="-0.5" stroke="#000000" transform="matrix(0.4978054165840149,0,0,0.49780541658401495,347.02584838867193,-20.81414222717285)" svgjs:data="{&quot;leading&quot;:&quot;1.3&quot;}"><tspan dy="0" x="50.877864861049005" svgjs:data="{&quot;newLined&quot;:true}">TEAM MOM: TEAM MOM'S NAME</tspan></text><image width="760" height="70" xlink:href="https://lct-designs.s3.us-west-1.amazonaws.com/assets/libs/beautiful-beasts-2-1632317577872.png" class="asset" transform="matrix(0.499606728553772,0,0,0.499606728553772,60.82786560058594,85.34435272216797)"></image><image width="760" height="500" xlink:href="https://lct-designs.s3.us-west-1.amazonaws.com/assets/libs/beautiful-beasts-2-1632218130309.png" class="asset" transform="matrix(0.2815685272216797,0,0,0.2815685272216797,4.457307815551758,137.1123504638672)"></image><image width="760" height="596" xlink:href="https://lct-designs.s3.us-west-1.amazonaws.com/assets/libs/beautiful-beasts-2-1632218035660.png" class="asset" transform="matrix(0.0811619684100151,0,0,0.0811619684100151,136.96625518798828,124.35516357421875)"></image><text fill="#ffffff" font-family="Impact" font-size="20" stroke-opacity="1" stroke-width="-0.5" stroke="#000000" x="224.43115286549425" y="191.90176128214458" transform="matrix(0.9349933266639711,0,0,0.934993326663971,-66.40803527832031,7.223543167114258)" svgjs:data="{&quot;leading&quot;:&quot;1.3&quot;}"><tspan dy="0" x="224.43115286549425" svgjs:data="{&quot;newLined&quot;:true}">Player</tspan></text><image width="760" height="596" xlink:href="https://lct-designs.s3.us-west-1.amazonaws.com/assets/libs/beautiful-beasts-2-1632218035660.png" class="asset" transform="matrix(0.08116201311349869,0,0,0.0811620131134987,228.86410522460938,122.05467224121094)"></image><text fill="#ffffff" font-family="Impact" font-size="20" stroke-opacity="1" stroke-width="-0.5" stroke="#000000" x="224.43115286549425" y="191.90176128214458" transform="matrix(0.9349933266639711,0,0,0.934993326663971,25.489822387695312,4.923051834106445)" svgjs:data="{&quot;leading&quot;:&quot;1.3&quot;}"><tspan dy="0" x="224.43115286549425" svgjs:data="{&quot;newLined&quot;:true}">Player</tspan></text><image width="760" height="596" xlink:href="https://lct-designs.s3.us-west-1.amazonaws.com/assets/libs/beautiful-beasts-2-1632218035660.png" class="asset" transform="matrix(0.08116201311349869,0,0,0.0811620131134987,316.1610107421875,122.5147705078125)"></image><text fill="#ffffff" font-family="Impact" font-size="20" stroke-opacity="1" stroke-width="-0.5" stroke="#000000" x="224.43115286549425" y="191.90176128214458" transform="matrix(0.9349933266639711,0,0,0.934993326663971,112.78669738769531,5.383150100708001)" svgjs:data="{&quot;leading&quot;:&quot;1.3&quot;}"><tspan dy="0" x="224.43115286549425" svgjs:data="{&quot;newLined&quot;:true}">Player</tspan></text><image width="760" height="596" xlink:href="https://lct-designs.s3.us-west-1.amazonaws.com/assets/libs/beautiful-beasts-2-1632218035660.png" class="asset" transform="matrix(0.08116201311349869,0,0,0.0811620131134987,403.9179992675782,123.43496704101562)"></image><text fill="#ffffff" font-family="Impact" font-size="20" stroke-opacity="1" stroke-width="-0.5" stroke="#000000" x="224.43115286549425" y="191.90176128214458" transform="matrix(0.9349933266639711,0,0,0.934993326663971,200.54368591308594,6.303346633911126)" svgjs:data="{&quot;leading&quot;:&quot;1.3&quot;}"><tspan dy="0" x="224.43115286549425" svgjs:data="{&quot;newLined&quot;:true}">Player</tspan></text><image width="760" height="596" xlink:href="https://lct-designs.s3.us-west-1.amazonaws.com/assets/libs/beautiful-beasts-2-1632218035660.png" class="asset" transform="matrix(0.0811619833111763,0,0,0.0811619833111763,163.52989196777344,238.9201812744141)"></image><text fill="#ffffff" font-family="Impact" font-size="20" stroke-opacity="1" stroke-width="-0.5" stroke="#000000" x="224.43115286549425" y="191.90176128214458" transform="matrix(0.9349933266639711,0,0,0.934993326663971,-39.844390869140625,121.78855895996091)" svgjs:data="{&quot;leading&quot;:&quot;1.3&quot;}"><tspan dy="0" x="224.43115286549425" svgjs:data="{&quot;newLined&quot;:true}">Player</tspan></text><image width="760" height="596" xlink:href="https://lct-designs.s3.us-west-1.amazonaws.com/assets/libs/beautiful-beasts-2-1632218035660.png" class="asset" transform="matrix(0.08116201311349869,0,0,0.0811620131134987,255.42774963378906,236.61968994140628)"></image><text fill="#ffffff" font-family="Impact" font-size="20" stroke-opacity="1" stroke-width="-0.5" stroke="#000000" x="224.43115286549425" y="191.90176128214458" transform="matrix(0.9349933266639711,0,0,0.934993326663971,52.053466796875,119.48806762695312)" svgjs:data="{&quot;leading&quot;:&quot;1.3&quot;}"><tspan dy="0" x="224.43115286549425" svgjs:data="{&quot;newLined&quot;:true}">Player</tspan></text><image width="760" height="596" xlink:href="https://lct-designs.s3.us-west-1.amazonaws.com/assets/libs/beautiful-beasts-2-1632218035660.png" class="asset" transform="matrix(0.08116201311349869,0,0,0.0811620131134987,342.7246551513672,237.07978820800784)"></image><text fill="#ffffff" font-family="Impact" font-size="20" stroke-opacity="1" stroke-width="-0.5" stroke="#000000" x="224.43115286549425" y="191.90176128214458" transform="matrix(0.9349933266639711,0,0,0.934993326663971,139.350341796875,119.94816589355466)" svgjs:data="{&quot;leading&quot;:&quot;1.3&quot;}"><tspan dy="0" x="224.43115286549425" svgjs:data="{&quot;newLined&quot;:true}">Player</tspan></text><image width="760" height="596" xlink:href="https://lct-designs.s3.us-west-1.amazonaws.com/assets/libs/beautiful-beasts-2-1632218035660.png" class="asset" transform="matrix(0.08116201311349869,0,0,0.0811620131134987,430.4816436767579,237.9999847412109)"></image><text fill="#ffffff" font-family="Impact" font-size="20" stroke-opacity="1" stroke-width="-0.5" stroke="#000000" x="224.43115286549425" y="191.90176128214458" transform="matrix(0.9349933266639711,0,0,0.934993326663971,227.10733032226562,120.86836242675781)" svgjs:data="{&quot;leading&quot;:&quot;1.3&quot;}"><tspan dy="0" x="224.43115286549425" svgjs:data="{&quot;newLined&quot;:true}">Player</tspan></text><image width="760" height="596" xlink:href="https://lct-designs.s3.us-west-1.amazonaws.com/assets/libs/beautiful-beasts-2-1632218035660.png" class="asset" transform="matrix(0.08116201311349869,0,0,0.0811620131134987,266.80804443359375,176.34652709960938)"></image><text fill="#ffffff" font-family="Impact" font-size="20" stroke-opacity="1" stroke-width="-0.5" stroke="#000000" x="224.43115286549425" y="191.90176128214458" transform="matrix(0.9349933266639711,0,0,0.934993326663971,63.43373107910156,59.21490859985351)" svgjs:data="{&quot;leading&quot;:&quot;1.3&quot;}"><tspan dy="0" x="224.43115286549425" svgjs:data="{&quot;newLined&quot;:true}">Player</tspan></text><image width="760" height="596" xlink:href="https://lct-designs.s3.us-west-1.amazonaws.com/assets/libs/beautiful-beasts-2-1632218035660.png" class="asset" transform="matrix(0.08116201311349869,0,0,0.0811620131134987,354.5650329589844,177.2667236328125)"></image><text fill="#ffffff" font-family="Impact" font-size="20" stroke-opacity="1" stroke-width="-0.5" stroke="#000000" x="224.43115286549425" y="191.90176128214458" transform="matrix(0.9349933266639711,0,0,0.934993326663971,151.1907196044922,60.13510131835937)" svgjs:data="{&quot;leading&quot;:&quot;1.3&quot;}"><tspan dy="0" x="224.43115286549425" svgjs:data="{&quot;newLined&quot;:true}">Player</tspan></text><g class="mask" style="pointer-events: none;"><g><path fill="#BCBEC0" d="M-3642.4-2101.7v4589.1h7813.4v-4589.1H-3642.4z M500.5,67.2v233.3v66.7H0.5v-66.7V67.2V0.5h500V67.2z" transform="matrix(1,0,0,1,0,0)"></path><g transform="matrix(1,0,0,1,0,0)">
	<rect x="0.5" y="300.5" opacity="0.95" fill="#F1F2F2" width="500" height="66.7"></rect>
	<rect x="0.5" y="0.5" opacity="0.95" fill="#F1F2F2" width="500" height="66.7"></rect>
</g></g></g></svg>