<svg xmlns="http://www.w3.org/2000/svg" version="1.1" xmlns:xlink="http://www.w3.org/1999/xlink" xmlns:svgjs="http://svgjs.dev/svgjs" width="100%" height="100%" viewBox="1 1 499 365.70001220703125" preserveAspectRatio="none" data-info="{&quot;_id&quot;:4,&quot;name&quot;:&quot;POLE POCKET SOCCER BANNERS&quot;,&quot;information&quot;:&quot;- Size: 3’x5’\n- Material: heavy duty vinyl banner\n- Digitally printed on vinyl&quot;,&quot;price&quot;:&quot;95.00&quot;,&quot;sale_price&quot;:&quot;89.99&quot;,&quot;type&quot;:&quot;pole-pocket&quot;,&quot;cover&quot;:{&quot;key&quot;:&quot;assets/models/pole-1628062864266-1631924568908.png&quot;,&quot;url&quot;:&quot;https://lct-designs.s3.us-west-1.amazonaws.com/assets/models/pole-1628062864266-1631924568908.png&quot;},&quot;back&quot;:{&quot;key&quot;:&quot;assets/models/pole-1631924700152.svg&quot;,&quot;url&quot;:&quot;https://lct-designs.s3.us-west-1.amazonaws.com/assets/models/pole-1631924700152.svg&quot;},&quot;mask&quot;:{&quot;key&quot;:&quot;assets/models/pole-mask-1631925211715.svg&quot;,&quot;url&quot;:&quot;https://lct-designs.s3.us-west-1.amazonaws.com/assets/models/pole-mask-1631925211715.svg&quot;},&quot;pos&quot;:&quot;2&quot;,&quot;accessories&quot;:&quot;2,3&quot;}" style="background-color: white;"><g class="model" style="pointer-events: none;"><polygon fill="#FFFFFF" points="0.5,0.5 0.5,67.2 0.5,300.5 0.5,367.2 500.5,367.2 500.5,300.5 500.5,67.2 500.5,0.5 "></polygon></g><image width="760" height="556" xlink:href="https://lct-designs.s3.us-west-1.amazonaws.com/assets/libs/warriors-1-1653386108036.png" class="asset background locked" transform="matrix(0.6595323960558116,0,0,0.6595323960558116,0,0)"></image><text fill="#ffffff" font-family="Impact" font-size="50" x="50.877864861049005" y="201.76359325371294" stroke-opacity="1" stroke-width="1" stroke="#000000" transform="matrix(0.221296027302742,0,0,0.221296027302742,190.067464770897,238.55948586939215)" svgjs:data="{&quot;leading&quot;:&quot;1.3&quot;}"><tspan dy="0" x="50.877864861049005" svgjs:data="{&quot;newLined&quot;:true}">COACH: COACH'S NAME</tspan></text><text fill="#ffffff" font-family="Impact" font-size="50" x="50.877864861049005" y="201.76359325371294" stroke-opacity="1" stroke-width="-1" stroke="#000000" transform="matrix(0.22867120802402496,0,0,0.22867120802402494,170.73080953153385,55.33432553214799)" svgjs:data="{&quot;leading&quot;:&quot;1.3&quot;}"><tspan dy="0" x="50.877864861049005" svgjs:data="{&quot;newLined&quot;:true}">TEAM MOM: TEAM MOM'S NAME</tspan></text><image width="760" height="572" xlink:href="https://lct-designs.s3.us-west-1.amazonaws.com/assets/libs/warrior-2-soccer-banner-2-1653903661811.png" class="asset" transform="matrix(0.2683626711368561,0,0,0.2683626711368561,148.5171858226413,111.34440944625155)"></image><text fill="#ffffff" font-family="Impact" font-size="20" stroke-opacity="1" stroke-width="-1" stroke="#000000" x="191.96452729598332" y="202.05652900502182" transform="matrix(0.8077030777931214,0,0,0.8077030777931213,-123.75032030791988,-22.172737782381095)" svgjs:data="{&quot;leading&quot;:&quot;1.3&quot;}"><tspan dy="0" x="191.96452729598332" svgjs:data="{&quot;newLined&quot;:true}">Player</tspan></text><image width="633" height="760" xlink:href="https://lct-designs.s3.us-west-1.amazonaws.com/assets/libs/warrior-2-soccer-banner-1-1653903623781.png" class="asset" transform="matrix(0.06265950947999954,0,0,0.06265950947999954,32.60603811162821,81.62529234961539)"></image><text fill="#ffffff" font-family="Impact" font-size="20" stroke-opacity="1" stroke-width="-1" stroke="#000000" x="191.96452729598332" y="202.05652900502182" transform="matrix(0.8077030777931214,0,0,0.8077030777931213,-57.44306735524731,26.278260060496898)" svgjs:data="{&quot;leading&quot;:&quot;1.3&quot;}"><tspan dy="0" x="191.96452729598332" svgjs:data="{&quot;newLined&quot;:true}">Player</tspan></text><image width="633" height="760" xlink:href="https://lct-designs.s3.us-west-1.amazonaws.com/assets/libs/warrior-2-soccer-banner-1-1653903623781.png" class="asset" transform="matrix(0.06265950947999954,0,0,0.06265950947999954,98.91329106430081,130.07629782188812)"></image><text fill="#ffffff" font-family="Impact" font-size="20" stroke-opacity="1" stroke-width="-1" stroke="#000000" x="191.96452729598332" y="202.05652900502182" transform="matrix(0.8077030777931214,0,0,0.8077030777931213,-123.06501755312127,74.07451087458458)" svgjs:data="{&quot;leading&quot;:&quot;1.3&quot;}"><tspan dy="0" x="191.96452729598332" svgjs:data="{&quot;newLined&quot;:true}">Player</tspan></text><image width="633" height="760" xlink:href="https://lct-designs.s3.us-west-1.amazonaws.com/assets/libs/warrior-2-soccer-banner-1-1653903623781.png" class="asset" transform="matrix(0.06265950947999954,0,0,0.06265950947999954,33.29134086642682,177.87254863597582)"></image><text fill="#ffffff" font-family="Impact" font-size="20" stroke-opacity="1" stroke-width="-1" stroke="#000000" x="191.96452729598332" y="202.05652900502182" transform="matrix(0.8077030777931214,0,0,0.8077030777931213,-58.394605469542846,122.52550108806778)" svgjs:data="{&quot;leading&quot;:&quot;1.3&quot;}"><tspan dy="0" x="191.96452729598332" svgjs:data="{&quot;newLined&quot;:true}">Player</tspan></text><image width="633" height="760" xlink:href="https://lct-designs.s3.us-west-1.amazonaws.com/assets/libs/warrior-2-soccer-banner-1-1653903623781.png" class="asset" transform="matrix(0.06265950947999954,0,0,0.06265950947999954,97.96175295000523,226.32353884945908)"></image><text fill="#ffffff" font-family="Impact" font-size="20" stroke-opacity="1" stroke-width="-1" stroke="#000000" x="191.96452729598332" y="202.05652900502182" transform="matrix(0.8077030777931214,0,0,0.8077030777931213,283.67412649613976,-22.172753070972934)" svgjs:data="{&quot;leading&quot;:&quot;1.3&quot;}"><tspan dy="0" x="191.96452729598332" svgjs:data="{&quot;newLined&quot;:true}">Player</tspan></text><image width="633" height="760" xlink:href="https://lct-designs.s3.us-west-1.amazonaws.com/assets/libs/warrior-2-soccer-banner-1-1653903623781.png" class="asset" transform="matrix(0.06265950947999954,0,0,0.06265950947999954,440.0305001744773,81.62527706102355)"></image><text fill="#ffffff" font-family="Impact" font-size="20" stroke-opacity="1" stroke-width="-1" stroke="#000000" x="191.96452729598332" y="202.05652900502182" transform="matrix(0.8077030777931214,0,0,0.8077030777931213,284.3594292509383,74.07449558599274)" svgjs:data="{&quot;leading&quot;:&quot;1.3&quot;}"><tspan dy="0" x="191.96452729598332" svgjs:data="{&quot;newLined&quot;:true}">Player</tspan></text><image width="633" height="760" xlink:href="https://lct-designs.s3.us-west-1.amazonaws.com/assets/libs/warrior-2-soccer-banner-1-1653903623781.png" class="asset" transform="matrix(0.06265950947999954,0,0,0.06265950947999954,440.7158029292759,177.87253334738398)"></image><text fill="#ffffff" font-family="Impact" font-size="20" stroke-opacity="1" stroke-width="-1" stroke="#000000" x="191.96452729598332" y="202.05652900502182" transform="matrix(0.8077030777931214,0,0,0.8077030777931213,219.36163983826737,26.278275319286415)" svgjs:data="{&quot;leading&quot;:&quot;1.3&quot;}"><tspan dy="0" x="191.96452729598332" svgjs:data="{&quot;newLined&quot;:true}">Player</tspan></text><image width="633" height="760" xlink:href="https://lct-designs.s3.us-west-1.amazonaws.com/assets/libs/warrior-2-soccer-banner-1-1653903623781.png" class="asset" transform="matrix(0.06265950947999954,0,0,0.06265950947999954,375.71799825781545,130.07631308067766)"></image><text fill="#ffffff" font-family="Impact" font-size="20" stroke-opacity="1" stroke-width="-1" stroke="#000000" x="191.96452729598332" y="202.05652900502182" transform="matrix(0.8077030777931214,0,0,0.8077030777931213,218.41010172397182,122.5255163468573)" svgjs:data="{&quot;leading&quot;:&quot;1.3&quot;}"><tspan dy="0" x="191.96452729598332" svgjs:data="{&quot;newLined&quot;:true}">Player</tspan></text><image width="633" height="760" xlink:href="https://lct-designs.s3.us-west-1.amazonaws.com/assets/libs/warrior-2-soccer-banner-1-1653903623781.png" class="asset" transform="matrix(0.06265950947999954,0,0,0.06265950947999954,374.76646014351985,226.32355410824854)"></image><g class="mask" style="pointer-events: none;"><g><path fill="#BCBEC0" d="M-3642.4-2101.7v4589.1h7813.4v-4589.1H-3642.4z M500.5,67.2v233.3v66.7H0.5v-66.7V67.2V0.5h500V67.2z" transform="matrix(1,0,0,1,0,0)"></path><g transform="matrix(1,0,0,1,0,0)">
	<rect x="0.5" y="300.5" opacity="0.95" fill="#F1F2F2" width="500" height="66.7"></rect>
	<rect x="0.5" y="0.5" opacity="0.95" fill="#F1F2F2" width="500" height="66.7"></rect>
</g></g></g></svg>