<svg xmlns="http://www.w3.org/2000/svg" version="1.1" xmlns:xlink="http://www.w3.org/1999/xlink" xmlns:svgjs="http://svgjs.dev/svgjs" width="100%" height="100%" viewBox="1 1 499 365.70001220703125" preserveAspectRatio="none" data-info="{&quot;_id&quot;:4,&quot;name&quot;:&quot;POLE POCKET SOCCER BANNERS&quot;,&quot;information&quot;:&quot;- Size: 3’x5’\n- Material: heavy duty vinyl banner\n- Digitally printed on vinyl&quot;,&quot;price&quot;:&quot;95.00&quot;,&quot;sale_price&quot;:&quot;89.99&quot;,&quot;type&quot;:&quot;pole-pocket&quot;,&quot;cover&quot;:{&quot;key&quot;:&quot;assets/models/pole-1628062864266-1631924568908.png&quot;,&quot;url&quot;:&quot;https://lct-designs.s3.us-west-1.amazonaws.com/assets/models/pole-1628062864266-1631924568908.png&quot;},&quot;back&quot;:{&quot;key&quot;:&quot;assets/models/pole-1631924700152.svg&quot;,&quot;url&quot;:&quot;https://lct-designs.s3.us-west-1.amazonaws.com/assets/models/pole-1631924700152.svg&quot;},&quot;mask&quot;:{&quot;key&quot;:&quot;assets/models/pole-mask-1631925211715.svg&quot;,&quot;url&quot;:&quot;https://lct-designs.s3.us-west-1.amazonaws.com/assets/models/pole-mask-1631925211715.svg&quot;},&quot;pos&quot;:&quot;2&quot;,&quot;accessories&quot;:&quot;2,3&quot;}" style="background-color: white;"><g class="model" style="pointer-events: none;"><polygon fill="#FFFFFF" points="0.5,0.5 0.5,67.2 0.5,300.5 0.5,367.2 500.5,367.2 500.5,300.5 500.5,67.2 500.5,0.5 "></polygon></g><image width="760" height="556" xlink:href="https://lct-designs.s3.us-west-1.amazonaws.com/assets/libs/armed-force-3-1656581214549.png" class="asset background locked" transform="matrix(0.6595323960558116,0,0,0.6595323960558116,0,0)"></image><image width="760" height="441" xlink:href="https://lct-designs.s3.us-west-1.amazonaws.com/assets/libs/armed-force-4-1656581214549.png" class="asset locked" transform="matrix(0.5027880072593689,0,0,0.5027880072593689,16.870119094848633,71.65091705322267)"></image><text fill="#ffffff" font-family="Impact" font-size="40" x="98.76859534095519" y="200.29758274106018" stroke-opacity="1" stroke-width="1" stroke="#000000" transform="matrix(0.30318188667297363,0,0,0.3031818866729737,-22.731212615966797,41.34104156494142)" svgjs:data="{&quot;leading&quot;:&quot;1.3&quot;}"><tspan dy="0" x="98.76859534095519" svgjs:data="{&quot;newLined&quot;:true}">Team mom: Team mom's name</tspan><tspan dy="52" x="98.76859534095519" svgjs:data="{&quot;newLined&quot;:true}"></tspan><tspan dy="52" x="98.76859534095519" svgjs:data="{&quot;newLined&quot;:true}"></tspan></text><text fill="#ffffff" font-family="Impact" font-size="40" x="98.76859534095519" y="200.29758274106018" stroke-opacity="1" stroke-width="1" stroke="#000000" transform="matrix(0.30318188667297363,0,0,0.3031818866729737,-23.286151885986328,24.692882537841797)" svgjs:data="{&quot;leading&quot;:&quot;1.3&quot;}"><tspan dy="0" x="98.76859534095519" svgjs:data="{&quot;newLined&quot;:true}">Coach: Coach's name</tspan><tspan dy="52" x="98.76859534095519" svgjs:data="{&quot;newLined&quot;:true}"></tspan></text><image width="760" height="86" xlink:href="https://lct-designs.s3.us-west-1.amazonaws.com/assets/libs/armed-force-5-1656582295310.png" class="asset" transform="matrix(0.4477283358573914,0,0,0.4477283358573914,156.8211212158203,80.02285003662111)"></image><image width="744" height="760" xlink:href="https://lct-designs.s3.us-west-1.amazonaws.com/assets/libs/arm-forces2-1631959777576.png" class="asset" transform="matrix(0.056378686885895764,0,0,0.056378686885895764,193.41344438764466,130.5353865541001)"></image><text fill="#fff700" font-family="Impact" font-size="19" stroke-opacity="1" stroke-width="1" stroke="#000000" x="194.85435950372326" y="199.9432435622577" transform="matrix(0.9280108213424683,0,0,0.9280108213424684,9.03296184539795,4.210182544962663)" svgjs:data="{&quot;leading&quot;:&quot;1.3&quot;}"><tspan dy="0" x="194.85435950372326" svgjs:data="{&quot;newLined&quot;:true}">PLAYER</tspan></text><image width="744" height="760" xlink:href="https://lct-designs.s3.us-west-1.amazonaws.com/assets/libs/arm-forces2-1631959777576.png" class="asset" transform="matrix(0.0563787007143346,0,0,0.056378700714334595,293.84667069452917,131.56538000995351)"></image><text fill="#fff700" font-family="Impact" font-size="19" stroke-opacity="1" stroke-width="1" stroke="#000000" x="194.85435950372326" y="199.9432435622577" transform="matrix(0.9280108213424683,0,0,0.9280108213424684,109.46620231260385,5.240176000816064)" svgjs:data="{&quot;leading&quot;:&quot;1.3&quot;}"><tspan dy="0" x="194.85435950372326" svgjs:data="{&quot;newLined&quot;:true}">PLAYER</tspan></text><image width="744" height="760" xlink:href="https://lct-designs.s3.us-west-1.amazonaws.com/assets/libs/arm-forces2-1631959777576.png" class="asset" transform="matrix(0.056378707628554015,0,0,0.05637870762855402,392.73490681763366,130.02043230713753)"></image><text fill="#fff700" font-family="Impact" font-size="19" stroke-opacity="1" stroke-width="1" stroke="#000000" x="194.85435950372326" y="199.9432435622577" transform="matrix(0.9280108213424683,0,0,0.9280108213424684,208.35443843570832,3.695228298000089)" svgjs:data="{&quot;leading&quot;:&quot;1.3&quot;}"><tspan dy="0" x="194.85435950372326" svgjs:data="{&quot;newLined&quot;:true}">PLAYER</tspan></text><image width="744" height="760" xlink:href="https://lct-designs.s3.us-west-1.amazonaws.com/assets/libs/arm-forces2-1631959777576.png" class="asset" transform="matrix(0.05589275062084199,0,0,0.05589275062084199,243.89341735839844,181.03039550781256)"></image><text fill="#fff700" font-family="Impact" font-size="19" stroke-opacity="1" stroke-width="1" stroke="#000000" x="194.85435950372326" y="199.9432435622577" transform="matrix(0.9200122356414796,0,0,0.9200122356414796,61.10216522216797,55.79402160644533)" svgjs:data="{&quot;leading&quot;:&quot;1.3&quot;}"><tspan dy="0" x="194.85435950372326" svgjs:data="{&quot;newLined&quot;:true}">PLAYER</tspan></text><image width="744" height="760" xlink:href="https://lct-designs.s3.us-west-1.amazonaws.com/assets/libs/arm-forces2-1631959777576.png" class="asset" transform="matrix(0.055892761796712875,0,0,0.05589276179671288,343.46098327636724,182.051498413086)"></image><text fill="#fff700" font-family="Impact" font-size="19" stroke-opacity="1" stroke-width="1" stroke="#000000" x="194.85435950372326" y="199.9432435622577" transform="matrix(0.9200122356414796,0,0,0.9200122356414796,160.66973876953128,56.81513977050783)" svgjs:data="{&quot;leading&quot;:&quot;1.3&quot;}"><tspan dy="0" x="194.85435950372326" svgjs:data="{&quot;newLined&quot;:true}">PLAYER</tspan></text><image width="744" height="760" xlink:href="https://lct-designs.s3.us-west-1.amazonaws.com/assets/libs/arm-forces2-1631959777576.png" class="asset" transform="matrix(0.055892780423164375,0,0,0.05589278042316437,441.4968719482422,180.51986694335938)"></image><text fill="#fff700" font-family="Impact" font-size="19" stroke-opacity="1" stroke-width="1" stroke="#000000" x="194.85435950372326" y="199.9432435622577" transform="matrix(0.9200122356414796,0,0,0.9200122356414796,258.70562744140625,55.283508300781236)" svgjs:data="{&quot;leading&quot;:&quot;1.3&quot;}"><tspan dy="0" x="194.85435950372326" svgjs:data="{&quot;newLined&quot;:true}">PLAYER</tspan></text><image width="744" height="760" xlink:href="https://lct-designs.s3.us-west-1.amazonaws.com/assets/libs/arm-forces2-1631959777576.png" class="asset" transform="matrix(0.05589275062084199,0,0,0.05589275062084199,193.96003723144528,234.30455017089844)"></image><text fill="#fff700" font-family="Impact" font-size="19" stroke-opacity="1" stroke-width="1" stroke="#000000" x="194.85435950372326" y="199.9432435622577" transform="matrix(0.920012354850769,0,0,0.920012354850769,11.168785095214844,109.06817626953129)" svgjs:data="{&quot;leading&quot;:&quot;1.3&quot;}"><tspan dy="0" x="194.85435950372326" svgjs:data="{&quot;newLined&quot;:true}">PLAYER</tspan></text><image width="744" height="760" xlink:href="https://lct-designs.s3.us-west-1.amazonaws.com/assets/libs/arm-forces2-1631959777576.png" class="asset" transform="matrix(0.055892761796712875,0,0,0.05589276179671288,293.5276031494141,235.3256378173828)"></image><text fill="#fff700" font-family="Impact" font-size="19" stroke-opacity="1" stroke-width="1" stroke="#000000" x="194.85435950372326" y="199.9432435622577" transform="matrix(0.920012354850769,0,0,0.920012354850769,110.73635864257812,110.08929443359376)" svgjs:data="{&quot;leading&quot;:&quot;1.3&quot;}"><tspan dy="0" x="194.85435950372326" svgjs:data="{&quot;newLined&quot;:true}">PLAYER</tspan></text><image width="744" height="760" xlink:href="https://lct-designs.s3.us-west-1.amazonaws.com/assets/libs/arm-forces2-1631959777576.png" class="asset" transform="matrix(0.055892780423164375,0,0,0.05589278042316437,391.5634918212891,233.79402160644537)"></image><text fill="#fff700" font-family="Impact" font-size="19" stroke-opacity="1" stroke-width="1" stroke="#000000" x="194.85435950372326" y="199.9432435622577" transform="matrix(0.920012354850769,0,0,0.920012354850769,208.77224731445315,108.5576629638672)" svgjs:data="{&quot;leading&quot;:&quot;1.3&quot;}"><tspan dy="0" x="194.85435950372326" svgjs:data="{&quot;newLined&quot;:true}">PLAYER</tspan></text><g class="mask" style="pointer-events: none;"><g><path fill="#BCBEC0" d="M-3642.4-2101.7v4589.1h7813.4v-4589.1H-3642.4z M500.5,67.2v233.3v66.7H0.5v-66.7V67.2V0.5h500V67.2z" transform="matrix(1,0,0,1,0,0)"></path><g transform="matrix(1,0,0,1,0,0)">
	<rect x="0.5" y="300.5" opacity="0.95" fill="#F1F2F2" width="500" height="66.7"></rect>
	<rect x="0.5" y="0.5" opacity="0.95" fill="#F1F2F2" width="500" height="66.7"></rect>
</g></g></g></svg>