<svg xmlns="http://www.w3.org/2000/svg" version="1.1" xmlns:xlink="http://www.w3.org/1999/xlink" xmlns:svgjs="http://svgjs.dev/svgjs" width="100%" height="100%" viewBox="1 1 499 299" preserveAspectRatio="none" data-info="{&quot;_id&quot;:1,&quot;name&quot;:&quot;HEM &amp; GROMMETS&quot;,&quot;price&quot;:&quot;95.00&quot;,&quot;sale_price&quot;:&quot;89.99&quot;,&quot;cover&quot;:{&quot;key&quot;:&quot;assets/models/hem-1628062436886-1630830942566.png&quot;,&quot;url&quot;:&quot;https://lct-designs.s3.us-west-1.amazonaws.com/assets/models/hem-1628062436886-1630830942566.png&quot;},&quot;back&quot;:{&quot;key&quot;:&quot;assets/models/hem-1630831057346.svg&quot;,&quot;url&quot;:&quot;https://lct-designs.s3.us-west-1.amazonaws.com/assets/models/hem-1630831057346.svg&quot;},&quot;mask&quot;:{&quot;key&quot;:&quot;assets/models/hem.mask-1630831063496.svg&quot;,&quot;url&quot;:&quot;https://lct-designs.s3.us-west-1.amazonaws.com/assets/models/hem.mask-1630831063496.svg&quot;},&quot;information&quot;:&quot;Size 3'x5'&quot;,&quot;type&quot;:&quot;hem-grommet&quot;,&quot;pos&quot;:&quot;1&quot;,&quot;accessories&quot;:&quot;2,3&quot;,&quot;width&quot;:&quot;60&quot;,&quot;height&quot;:&quot;36&quot;}" style="background-color: white;"><g class="model" style="pointer-events: none;"><rect x="0.5" y="0.5" fill="none" stroke="#000000" stroke-miterlimit="10" width="500" height="300"></rect></g><image width="760" height="455" xlink:href="https://lct-designs.s3.us-west-1.amazonaws.com/assets/libs/soccer-girls-2-1657262013172.png" class="asset background locked" transform="matrix(0.6593406593406593,0,0,0.6593406593406593,0,0)"></image><text fill="#faf485" font-family="Impact" font-size="14" stroke-opacity="1" stroke-width="0.5" stroke="#025c89" x="167.64845027836904" y="156.88280986644864" transform="matrix(0.8312618136405946,0,0,0.8312618136405945,-123.01851654052734,-111.15232849121094)" svgjs:data="{&quot;leading&quot;:&quot;1.3&quot;}"><tspan dy="0" x="167.64845027836904" svgjs:data="{&quot;newLined&quot;:true}">Coach: Coach 's name</tspan></text><text fill="#faf485" font-family="Impact" font-size="14" x="145.93749321435945" y="156.15624665827357" stroke-opacity="1" stroke-width="0.5" stroke="#025c89" transform="matrix(0.8312618136405946,0,0,0.8312618136405945,220.60292053222656,-111.0687255859375)" svgjs:data="{&quot;leading&quot;:&quot;1.3&quot;}"><tspan dy="0" x="145.93749321435945" svgjs:data="{&quot;newLined&quot;:true}">Team mom: Team mom's name</tspan></text><defs transform="matrix(1,0,0,1,-56.05540847778322,0)"><path d="M100.5,50.5c-1.1,65.7-98.9,65.7-100,0C1.6-15.2,99.4-15.2,100.5,50.5z" id="SvgjsPath1001"></path><path d="M150.5,75.5c-1.7,98.6-148.3,98.6-150,0C2.2-23.1,148.8-23.1,150.5,75.5z" id="SvgjsPath1135"></path><path d="M100.5,50.5c-1.1,65.7-98.9,65.7-100,0C1.6-15.2,99.4-15.2,100.5,50.5z" id="SvgjsPath1142"></path><path d="M50.5,25.5c-0.6,32.9-49.4,32.9-50,0C1.1-7.4,49.9-7.4,50.5,25.5z" id="SvgjsPath1151"></path><path d="M20.5,10.5c0.2,13-20.2,13-20,0C0.3-2.5,20.7-2.5,20.5,10.5z" id="SvgjsPath1162"></path></defs><image width="760" height="760" xlink:href="https://lct-designs.s3.us-west-1.amazonaws.com/assets/libs/soccer-girls-1-1657262013172.png" class="asset" transform="matrix(0.04738277941942215,0,0,0.04738277941942215,13.799744606018066,93.97744750976562)"></image><text fill="#000000" font-family="Impact" font-size="14" stroke-opacity="1" stroke-width="0.5" stroke="#ffffff" x="232.1917296712465" y="156.146182162832" transform="matrix(1,0,0,1,-218.6947784423828,-13.550811767578121)" svgjs:data="{&quot;leading&quot;:&quot;1.3&quot;}"><tspan dy="0" x="232.1917296712465" svgjs:data="{&quot;newLined&quot;:true}">Player</tspan></text><defs transform="matrix(1,0,0,1,-55.842109680175795,76.41154479980472)"><path d="M100.5,50.5c-1.1,65.7-98.9,65.7-100,0C1.6-15.2,99.4-15.2,100.5,50.5z" id="SvgjsPath1299"></path><path d="M150.5,75.5c-1.7,98.6-148.3,98.6-150,0C2.2-23.1,148.8-23.1,150.5,75.5z" id="SvgjsPath1298"></path><path d="M100.5,50.5c-1.1,65.7-98.9,65.7-100,0C1.6-15.2,99.4-15.2,100.5,50.5z" id="SvgjsPath1297"></path><path d="M50.5,25.5c-0.6,32.9-49.4,32.9-50,0C1.1-7.4,49.9-7.4,50.5,25.5z" id="SvgjsPath1296"></path><path d="M20.5,10.5c0.2,13-20.2,13-20,0C0.3-2.5,20.7-2.5,20.5,10.5z" id="SvgjsPath1295"></path></defs><image width="760" height="760" xlink:href="https://lct-designs.s3.us-west-1.amazonaws.com/assets/libs/soccer-girls-1-1657262013172.png" class="asset" transform="matrix(0.047382794320583344,0,0,0.047382794320583344,13.799736976623535,170.38899230957034)"></image><text fill="#000000" font-family="Impact" font-size="14" stroke-opacity="1" stroke-width="0.5" stroke="#ffffff" x="232.1917296712465" y="156.146182162832" transform="matrix(1,0,0,1,-218.6947784423828,62.86073303222657)" svgjs:data="{&quot;leading&quot;:&quot;1.3&quot;}"><tspan dy="0" x="232.1917296712465" svgjs:data="{&quot;newLined&quot;:true}">Player</tspan></text><image width="760" height="760" xlink:href="https://lct-designs.s3.us-west-1.amazonaws.com/assets/libs/soccer-girls-1-1657262013172.png" class="asset" transform="matrix(0.04738280177116394,0,0,0.04738280177116394,13.79973888397216,245.29489135742188)"></image><text fill="#000000" font-family="Impact" font-size="14" stroke-opacity="1" stroke-width="0.5" stroke="#ffffff" x="232.1917296712465" y="156.146182162832" transform="matrix(1,0,0,1,-218.6947937011719,137.76663208007812)" svgjs:data="{&quot;leading&quot;:&quot;1.3&quot;}"><tspan dy="0" x="232.1917296712465" svgjs:data="{&quot;newLined&quot;:true}">Player</tspan></text><defs transform="matrix(1,0,0,1,-54.1231575012207,151.31744384765628)"><path d="M100.5,50.5c-1.1,65.7-98.9,65.7-100,0C1.6-15.2,99.4-15.2,100.5,50.5z" id="SvgjsPath1370"></path><path d="M150.5,75.5c-1.7,98.6-148.3,98.6-150,0C2.2-23.1,148.8-23.1,150.5,75.5z" id="SvgjsPath1369"></path><path d="M100.5,50.5c-1.1,65.7-98.9,65.7-100,0C1.6-15.2,99.4-15.2,100.5,50.5z" id="SvgjsPath1368"></path><path d="M50.5,25.5c-0.6,32.9-49.4,32.9-50,0C1.1-7.4,49.9-7.4,50.5,25.5z" id="SvgjsPath1367"></path><path d="M20.5,10.5c0.2,13-20.2,13-20,0C0.3-2.5,20.7-2.5,20.5,10.5z" id="SvgjsPath1366"></path></defs><defs transform="matrix(1,0,0,1,417.2339782714844,1.064971923828132)"><path d="M100.5,50.5c-1.1,65.7-98.9,65.7-100,0C1.6-15.2,99.4-15.2,100.5,50.5z" id="SvgjsPath1038"></path></defs><image width="760" height="500" xlink:href="https://lct-designs.s3.us-west-1.amazonaws.com/assets/libs/soccer-girls-7-1657262013170.png" class="asset" transform="matrix(0.3054776191711426,0,0,0.3054776191711426,133.5438232421875,122.37501525878906)"></image><image width="760" height="106" xlink:href="https://lct-designs.s3.us-west-1.amazonaws.com/assets/libs/soccer-girls-6-1657262013171.png" class="asset" transform="matrix(0.5860708951950073,0,0,0.5860708951950073,17.152196884155273,30.10284233093261)"></image><image width="760" height="760" xlink:href="https://lct-designs.s3.us-west-1.amazonaws.com/assets/libs/soccer-girls-1-1657262013172.png" class="asset" transform="matrix(0.047382794320583344,0,0,0.047382794320583344,79.13223266601565,132.74783325195315)"></image><text fill="#000000" font-family="Impact" font-size="14" stroke-opacity="1" stroke-width="0.5" stroke="#ffffff" x="232.1917296712465" y="156.146182162832" transform="matrix(1,0,0,1,-153.36228179931643,25.219573974609382)" svgjs:data="{&quot;leading&quot;:&quot;1.3&quot;}"><tspan dy="0" x="232.1917296712465" svgjs:data="{&quot;newLined&quot;:true}">Player</tspan></text><image width="760" height="760" xlink:href="https://lct-designs.s3.us-west-1.amazonaws.com/assets/libs/soccer-girls-1-1657262013172.png" class="asset" transform="matrix(0.04738280177116394,0,0,0.04738280177116394,79.13223457336426,207.65373229980466)"></image><text fill="#000000" font-family="Impact" font-size="14" stroke-opacity="1" stroke-width="0.5" stroke="#ffffff" x="232.1917296712465" y="156.146182162832" transform="matrix(1,0,0,1,-153.36229705810547,100.12547302246094)" svgjs:data="{&quot;leading&quot;:&quot;1.3&quot;}"><tspan dy="0" x="232.1917296712465" svgjs:data="{&quot;newLined&quot;:true}">Player</tspan></text><image width="760" height="760" xlink:href="https://lct-designs.s3.us-west-1.amazonaws.com/assets/libs/soccer-girls-1-1657262013172.png" class="asset" transform="matrix(0.047382809221744544,0,0,0.04738280922174454,388.0030212402344,132.37142944335938)"></image><text fill="#000000" font-family="Impact" font-size="14" stroke-opacity="1" stroke-width="0.5" stroke="#ffffff" x="232.1917296712465" y="156.146182162832" transform="matrix(1,0,0,1,155.50851440429688,24.843170166015632)" svgjs:data="{&quot;leading&quot;:&quot;1.3&quot;}"><tspan dy="0" x="232.1917296712465" svgjs:data="{&quot;newLined&quot;:true}">Player</tspan></text><image width="760" height="760" xlink:href="https://lct-designs.s3.us-west-1.amazonaws.com/assets/libs/soccer-girls-1-1657262013172.png" class="asset" transform="matrix(0.04738282039761543,0,0,0.04738282039761543,388.0030212402344,207.27732849121094)"></image><text fill="#000000" font-family="Impact" font-size="14" stroke-opacity="1" stroke-width="0.5" stroke="#ffffff" x="232.1917296712465" y="156.146182162832" transform="matrix(1,0,0,1,155.50848388671875,99.74906921386719)" svgjs:data="{&quot;leading&quot;:&quot;1.3&quot;}"><tspan dy="0" x="232.1917296712465" svgjs:data="{&quot;newLined&quot;:true}">Player</tspan></text><defs transform="matrix(1,0,0,1,375.1491203308106,-0.3764343857765198)"><path d="M100.5,50.5c-1.1,65.7-98.9,65.7-100,0C1.6-15.2,99.4-15.2,100.5,50.5z" id="SvgjsPath1855"></path><path d="M150.5,75.5c-1.7,98.6-148.3,98.6-150,0C2.2-23.1,148.8-23.1,150.5,75.5z" id="SvgjsPath1854"></path><path d="M100.5,50.5c-1.1,65.7-98.9,65.7-100,0C1.6-15.2,99.4-15.2,100.5,50.5z" id="SvgjsPath1853"></path><path d="M50.5,25.5c-0.6,32.9-49.4,32.9-50,0C1.1-7.4,49.9-7.4,50.5,25.5z" id="SvgjsPath1852"></path><path d="M20.5,10.5c0.2,13-20.2,13-20,0C0.3-2.5,20.7-2.5,20.5,10.5z" id="SvgjsPath1851"></path></defs><image width="760" height="760" xlink:href="https://lct-designs.s3.us-west-1.amazonaws.com/assets/libs/soccer-girls-1-1657262013172.png" class="asset" transform="matrix(0.04738278687000275,0,0,0.04738278687000275,445.00427246093756,93.6010131239891)"></image><text fill="#000000" font-family="Impact" font-size="14" stroke-opacity="1" stroke-width="0.5" stroke="#ffffff" x="232.1917296712465" y="156.146182162832" transform="matrix(1,0,0,1,212.509750366211,-13.927246153354641)" svgjs:data="{&quot;leading&quot;:&quot;1.3&quot;}"><tspan dy="0" x="232.1917296712465" svgjs:data="{&quot;newLined&quot;:true}">Player</tspan></text><defs transform="matrix(1,0,0,1,375.36241912841797,76.03511041402817)"><path d="M100.5,50.5c-1.1,65.7-98.9,65.7-100,0C1.6-15.2,99.4-15.2,100.5,50.5z" id="SvgjsPath1860"></path><path d="M150.5,75.5c-1.7,98.6-148.3,98.6-150,0C2.2-23.1,148.8-23.1,150.5,75.5z" id="SvgjsPath1859"></path><path d="M100.5,50.5c-1.1,65.7-98.9,65.7-100,0C1.6-15.2,99.4-15.2,100.5,50.5z" id="SvgjsPath1858"></path><path d="M50.5,25.5c-0.6,32.9-49.4,32.9-50,0C1.1-7.4,49.9-7.4,50.5,25.5z" id="SvgjsPath1857"></path><path d="M20.5,10.5c0.2,13-20.2,13-20,0C0.3-2.5,20.7-2.5,20.5,10.5z" id="SvgjsPath1856"></path></defs><image width="760" height="760" xlink:href="https://lct-designs.s3.us-west-1.amazonaws.com/assets/libs/soccer-girls-1-1657262013172.png" class="asset" transform="matrix(0.04738280177116394,0,0,0.04738280177116394,445.00426483154297,170.0125579237938)"></image><text fill="#000000" font-family="Impact" font-size="14" stroke-opacity="1" stroke-width="0.5" stroke="#ffffff" x="232.1917296712465" y="156.146182162832" transform="matrix(1,0,0,1,212.509750366211,62.484298646450036)" svgjs:data="{&quot;leading&quot;:&quot;1.3&quot;}"><tspan dy="0" x="232.1917296712465" svgjs:data="{&quot;newLined&quot;:true}">Player</tspan></text><image width="760" height="760" xlink:href="https://lct-designs.s3.us-west-1.amazonaws.com/assets/libs/soccer-girls-1-1657262013172.png" class="asset" transform="matrix(0.047382809221744544,0,0,0.04738280922174454,445.00426673889166,244.91845697164536)"></image><text fill="#000000" font-family="Impact" font-size="14" stroke-opacity="1" stroke-width="0.5" stroke="#ffffff" x="232.1917296712465" y="156.146182162832" transform="matrix(1,0,0,1,212.5097351074219,137.3901976943016)" svgjs:data="{&quot;leading&quot;:&quot;1.3&quot;}"><tspan dy="0" x="232.1917296712465" svgjs:data="{&quot;newLined&quot;:true}">Player</tspan></text><defs transform="matrix(1,0,0,1,377.0813713073731,150.94100946187973)"><path d="M100.5,50.5c-1.1,65.7-98.9,65.7-100,0C1.6-15.2,99.4-15.2,100.5,50.5z" id="SvgjsPath1865"></path><path d="M150.5,75.5c-1.7,98.6-148.3,98.6-150,0C2.2-23.1,148.8-23.1,150.5,75.5z" id="SvgjsPath1864"></path><path d="M100.5,50.5c-1.1,65.7-98.9,65.7-100,0C1.6-15.2,99.4-15.2,100.5,50.5z" id="SvgjsPath1863"></path><path d="M50.5,25.5c-0.6,32.9-49.4,32.9-50,0C1.1-7.4,49.9-7.4,50.5,25.5z" id="SvgjsPath1862"></path><path d="M20.5,10.5c0.2,13-20.2,13-20,0C0.3-2.5,20.7-2.5,20.5,10.5z" id="SvgjsPath1861"></path></defs><defs transform="matrix(1,0,0,1,848.4385070800781,0.6885375380516052)"><path d="M100.5,50.5c-1.1,65.7-98.9,65.7-100,0C1.6-15.2,99.4-15.2,100.5,50.5z" id="SvgjsPath1866"></path></defs><g class="mask" style="pointer-events: none;"><path fill="#777777" enable-background="new    " d="M-1684.9-1014.6v2330.1h3870.8v-2330.1H-1684.9z M500.5,300.5H0.5V0.5h500
	V300.5z"></path></g></svg>