<svg xmlns="http://www.w3.org/2000/svg" version="1.1" xmlns:xlink="http://www.w3.org/1999/xlink" xmlns:svgjs="http://svgjs.dev/svgjs" width="100%" height="100%" viewBox="1 1 499 365.70001220703125" preserveAspectRatio="none" data-info="{&quot;_id&quot;:4,&quot;name&quot;:&quot;POLE POCKET SOCCER BANNERS&quot;,&quot;information&quot;:&quot;- Size: 3’x5’\n- Material: heavy duty vinyl banner\n- Digitally printed on vinyl&quot;,&quot;price&quot;:&quot;95.00&quot;,&quot;sale_price&quot;:&quot;89.99&quot;,&quot;type&quot;:&quot;pole-pocket&quot;,&quot;cover&quot;:{&quot;key&quot;:&quot;assets/models/pole-1628062864266-1631924568908.png&quot;,&quot;url&quot;:&quot;https://lct-designs.s3.us-west-1.amazonaws.com/assets/models/pole-1628062864266-1631924568908.png&quot;},&quot;back&quot;:{&quot;key&quot;:&quot;assets/models/pole-1631924700152.svg&quot;,&quot;url&quot;:&quot;https://lct-designs.s3.us-west-1.amazonaws.com/assets/models/pole-1631924700152.svg&quot;},&quot;mask&quot;:{&quot;key&quot;:&quot;assets/models/pole-mask-1631925211715.svg&quot;,&quot;url&quot;:&quot;https://lct-designs.s3.us-west-1.amazonaws.com/assets/models/pole-mask-1631925211715.svg&quot;},&quot;pos&quot;:&quot;2&quot;,&quot;accessories&quot;:&quot;2,3&quot;}" style="background-color: white;"><g class="model" style="pointer-events: none;"><polygon fill="#FFFFFF" points="0.5,0.5 0.5,67.2 0.5,300.5 0.5,367.2 500.5,367.2 500.5,300.5 500.5,67.2 500.5,0.5 "></polygon></g><image width="760" height="558" xlink:href="https://lct-designs.s3.us-west-1.amazonaws.com/assets/libs/fusion-3-1657341205044.png" class="asset background locked" transform="matrix(0.6571684806577621,0,0,0.6571684806577621,0,0)"></image><text fill="#ffffff" font-family="Impact" font-size="20" x="50.877864861049005" y="201.76359325371294" stroke-opacity="1" stroke-width="-0.5" stroke="#000000" transform="matrix(0.4904548823833466,0,0,0.4904548823833466,-21.52596092224121,-14.371143341064453)" svgjs:data="{&quot;leading&quot;:&quot;1.3&quot;}"><tspan dy="0" x="50.877864861049005" svgjs:data="{&quot;newLined&quot;:true}">COACH: COACH'S NAME</tspan></text><text fill="#ffffff" font-family="Impact" font-size="20" x="50.877864861049005" y="201.76359325371294" stroke-opacity="1" stroke-width="-0.5" stroke="#000000" transform="matrix(0.4978053569793702,0,0,0.4978053569793701,344.725341796875,-15.753034591674805)" svgjs:data="{&quot;leading&quot;:&quot;1.3&quot;}"><tspan dy="0" x="50.877864861049005" svgjs:data="{&quot;newLined&quot;:true}">TEAM MOM: TEAM MOM'S NAME</tspan></text><image width="760" height="629" xlink:href="https://lct-designs.s3.us-west-1.amazonaws.com/assets/libs/fusion-6-1657341205044.png" class="asset" transform="matrix(0.21057748794555664,0,0,0.21057748794555667,60.58957290649414,165.4335479736328)"></image><image width="592" height="760" xlink:href="https://lct-designs.s3.us-west-1.amazonaws.com/assets/libs/fusion-1-1657341205045.png" class="asset" transform="matrix(0.05772174894809723,0,0,0.057721748948097236,25.90909194946289,92.40107727050781)"></image><text fill="#ffffff" font-family="Impact" font-size="17" stroke-opacity="1" stroke-width="-0.5" stroke="#000000" x="228.24997763356066" y="190.52145980661967" transform="matrix(1,0,0,1,-207.5052947998047,-40.94892883300781)" svgjs:data="{&quot;leading&quot;:&quot;1.3&quot;}"><tspan dy="0" x="228.24997763356066" svgjs:data="{&quot;newLined&quot;:true}">Player</tspan></text><image width="592" height="760" xlink:href="https://lct-designs.s3.us-west-1.amazonaws.com/assets/libs/fusion-1-1657341205045.png" class="asset" transform="matrix(0.05772176384925843,0,0,0.05772176384925843,105.84435272216797,93.32127380371094)"></image><text fill="#ffffff" font-family="Impact" font-size="17" stroke-opacity="1" stroke-width="-0.5" stroke="#000000" x="228.24997763356066" y="190.52145980661967" transform="matrix(1,0,0,1,-127.57002258300781,-40.02873229980469)" svgjs:data="{&quot;leading&quot;:&quot;1.3&quot;}"><tspan dy="0" x="228.24997763356066" svgjs:data="{&quot;newLined&quot;:true}">Player</tspan></text><image width="592" height="760" xlink:href="https://lct-designs.s3.us-west-1.amazonaws.com/assets/libs/fusion-1-1657341205045.png" class="asset" transform="matrix(0.05772176384925843,0,0,0.05772176384925843,186.23971557617188,92.40107727050781)"></image><text fill="#ffffff" font-family="Impact" font-size="17" stroke-opacity="1" stroke-width="-0.5" stroke="#000000" x="228.24997763356066" y="190.52145980661967" transform="matrix(1,0,0,1,-47.174667358398445,-40.94892883300781)" svgjs:data="{&quot;leading&quot;:&quot;1.3&quot;}"><tspan dy="0" x="228.24997763356066" svgjs:data="{&quot;newLined&quot;:true}">Player</tspan></text><image width="760" height="190" xlink:href="https://lct-designs.s3.us-west-1.amazonaws.com/assets/libs/fusion-7-1657341205043.png" class="asset" transform="matrix(0.3035021722316742,0,0,0.30350217223167425,250.6110382080078,90.79253387451169)"></image><image width="592" height="760" xlink:href="https://lct-designs.s3.us-west-1.amazonaws.com/assets/libs/fusion-1-1657341205045.png" class="asset" transform="matrix(0.057721756398677826,0,0,0.057721756398677826,275.1612892150879,154.9747314453125)"></image><text fill="#ffffff" font-family="Impact" font-size="17" stroke-opacity="1" stroke-width="-0.5" stroke="#000000" x="228.24997763356066" y="190.52145980661967" transform="matrix(1,0,0,1,41.74690246582031,21.624725341796882)" svgjs:data="{&quot;leading&quot;:&quot;1.3&quot;}"><tspan dy="0" x="228.24997763356066" svgjs:data="{&quot;newLined&quot;:true}">Player</tspan></text><image width="592" height="760" xlink:href="https://lct-designs.s3.us-west-1.amazonaws.com/assets/libs/fusion-1-1657341205045.png" class="asset" transform="matrix(0.05772177129983902,0,0,0.05772177129983902,355.09654998779297,155.89492797851562)"></image><text fill="#ffffff" font-family="Impact" font-size="17" stroke-opacity="1" stroke-width="-0.5" stroke="#000000" x="228.24997763356066" y="190.52145980661967" transform="matrix(1,0,0,1,121.68217468261719,22.544921875000007)" svgjs:data="{&quot;leading&quot;:&quot;1.3&quot;}"><tspan dy="0" x="228.24997763356066" svgjs:data="{&quot;newLined&quot;:true}">Player</tspan></text><image width="592" height="760" xlink:href="https://lct-designs.s3.us-west-1.amazonaws.com/assets/libs/fusion-1-1657341205045.png" class="asset" transform="matrix(0.05772177129983902,0,0,0.05772177129983902,435.4919128417969,154.9747314453125)"></image><text fill="#ffffff" font-family="Impact" font-size="17" stroke-opacity="1" stroke-width="-0.5" stroke="#000000" x="228.24997763356066" y="190.52145980661967" transform="matrix(1,0,0,1,202.07752990722656,21.624725341796882)" svgjs:data="{&quot;leading&quot;:&quot;1.3&quot;}"><tspan dy="0" x="228.24997763356066" svgjs:data="{&quot;newLined&quot;:true}">Player</tspan></text><image width="592" height="760" xlink:href="https://lct-designs.s3.us-west-1.amazonaws.com/assets/libs/fusion-1-1657341205045.png" class="asset" transform="matrix(0.05772176384925843,0,0,0.05772176384925843,228.10882568359375,224.90998840332034)"></image><text fill="#ffffff" font-family="Impact" font-size="17" stroke-opacity="1" stroke-width="-0.5" stroke="#000000" x="228.24997763356066" y="190.52145980661967" transform="matrix(1,0,0,1,-5.3055572509765625,91.55998229980469)" svgjs:data="{&quot;leading&quot;:&quot;1.3&quot;}"><tspan dy="0" x="228.24997763356066" svgjs:data="{&quot;newLined&quot;:true}">Player</tspan></text><image width="592" height="760" xlink:href="https://lct-designs.s3.us-west-1.amazonaws.com/assets/libs/fusion-1-1657341205045.png" class="asset" transform="matrix(0.057721778750419624,0,0,0.05772177875041962,308.0440979003906,225.83018493652347)"></image><text fill="#ffffff" font-family="Impact" font-size="17" stroke-opacity="1" stroke-width="-0.5" stroke="#000000" x="228.24997763356066" y="190.52145980661967" transform="matrix(1,0,0,1,74.62971496582031,92.48017883300778)" svgjs:data="{&quot;leading&quot;:&quot;1.3&quot;}"><tspan dy="0" x="228.24997763356066" svgjs:data="{&quot;newLined&quot;:true}">Player</tspan></text><image width="592" height="760" xlink:href="https://lct-designs.s3.us-west-1.amazonaws.com/assets/libs/fusion-1-1657341205045.png" class="asset" transform="matrix(0.057721778750419624,0,0,0.05772177875041962,388.439453125,224.90998840332034)"></image><text fill="#ffffff" font-family="Impact" font-size="17" stroke-opacity="1" stroke-width="-0.5" stroke="#000000" x="228.24997763356066" y="190.52145980661967" transform="matrix(1,0,0,1,155.0250701904297,91.55998229980469)" svgjs:data="{&quot;leading&quot;:&quot;1.3&quot;}"><tspan dy="0" x="228.24997763356066" svgjs:data="{&quot;newLined&quot;:true}">Player</tspan></text><g class="mask" style="pointer-events: none;"><g><path fill="#BCBEC0" d="M-3642.4-2101.7v4589.1h7813.4v-4589.1H-3642.4z M500.5,67.2v233.3v66.7H0.5v-66.7V67.2V0.5h500V67.2z" transform="matrix(1,0,0,1,0,0)"></path><g transform="matrix(1,0,0,1,0,0)">
	<rect x="0.5" y="300.5" opacity="0.95" fill="#F1F2F2" width="500" height="66.7"></rect>
	<rect x="0.5" y="0.5" opacity="0.95" fill="#F1F2F2" width="500" height="66.7"></rect>
</g></g></g></svg>