<svg xmlns="http://www.w3.org/2000/svg" version="1.1" xmlns:xlink="http://www.w3.org/1999/xlink" xmlns:svgjs="http://svgjs.dev/svgjs" width="100%" height="100%" viewBox="1 1 499 365.70001220703125" preserveAspectRatio="none" data-info="{&quot;_id&quot;:4,&quot;name&quot;:&quot;POLE POCKET SOCCER BANNERS&quot;,&quot;information&quot;:&quot;- Size: 3’x5’\n- Material: heavy duty vinyl banner\n- Digitally printed on vinyl&quot;,&quot;price&quot;:&quot;95.00&quot;,&quot;sale_price&quot;:&quot;89.99&quot;,&quot;type&quot;:&quot;pole-pocket&quot;,&quot;cover&quot;:{&quot;key&quot;:&quot;assets/models/pole-1628062864266-1631924568908.png&quot;,&quot;url&quot;:&quot;https://lct-designs.s3.us-west-1.amazonaws.com/assets/models/pole-1628062864266-1631924568908.png&quot;},&quot;back&quot;:{&quot;key&quot;:&quot;assets/models/pole-1631924700152.svg&quot;,&quot;url&quot;:&quot;https://lct-designs.s3.us-west-1.amazonaws.com/assets/models/pole-1631924700152.svg&quot;},&quot;mask&quot;:{&quot;key&quot;:&quot;assets/models/pole-mask-1631925211715.svg&quot;,&quot;url&quot;:&quot;https://lct-designs.s3.us-west-1.amazonaws.com/assets/models/pole-mask-1631925211715.svg&quot;},&quot;pos&quot;:&quot;2&quot;,&quot;accessories&quot;:&quot;2,3&quot;}" style="background-color: white;"><g class="model" style="pointer-events: none;"><polygon fill="#FFFFFF" points="0.5,0.5 0.5,67.2 0.5,300.5 0.5,367.2 500.5,367.2 500.5,300.5 500.5,67.2 500.5,0.5 "></polygon></g><image width="760" height="556" xlink:href="https://lct-designs.s3.us-west-1.amazonaws.com/assets/libs/asset-212-1657261979074.png" class="asset background locked" transform="matrix(0.6595323960558116,0,0,0.6595323960558116,0,0)"></image><text fill="#faf485" font-family="Impact" font-size="45" x="50.877864861049005" y="201.76359325371294" stroke-opacity="1" stroke-width="1" stroke="#025c89" transform="matrix(0.22129602730274198,0,0,0.22129602730274203,-6.45144414901733,37.381629943847656)" svgjs:data="{&quot;leading&quot;:&quot;1.3&quot;}"><tspan dy="0" x="50.877864861049005" svgjs:data="{&quot;newLined&quot;:true}">COACH: COACH'S NAME</tspan></text><text fill="#faf485" font-family="Impact" font-size="45" x="50.877864861049005" y="201.76359325371294" stroke-opacity="1" stroke-width="-1" stroke="#025c89" transform="matrix(0.22129602730274198,0,0,0.22129602730274203,366.5004577636719,35.20772171020508)" svgjs:data="{&quot;leading&quot;:&quot;1.3&quot;}"><tspan dy="0" x="50.877864861049005" svgjs:data="{&quot;newLined&quot;:true}">TEAM MOM: TEAM MOM'S NAME</tspan></text><image width="760" height="164" xlink:href="https://lct-designs.s3.us-west-1.amazonaws.com/assets/libs/asset-216-1657261979073.png" class="asset" transform="matrix(0.4205299019813537,0,0,0.4205299019813538,107.88072204589841,71.3890609741211)"></image><image width="759" height="581" xlink:href="https://lct-designs.s3.us-west-1.amazonaws.com/assets/libs/asset-215-1657261979074.png" class="asset" transform="matrix(0.23073162138462064,0,0,0.23073162138462067,172.70790100097653,162.64785766601565)"></image><image width="592" height="760" xlink:href="https://lct-designs.s3.us-west-1.amazonaws.com/assets/libs/asset-217-1657261979072.png" class="asset" transform="matrix(-0.004286586306989192,-0.06671908497810364,0.06671908497810364,-0.004286586306989193,23.57997131347656,160.50498962402344)"></image><text fill="#000000" font-family="Impact" font-size="20" stroke-opacity="1" stroke-width="1" stroke="#ffffff" x="187.31262428161713" y="86.6332744371058" transform="matrix(-0.36995261907577515,-0.7063716053962709,0.7063716053962708,-0.3699526190757752,31.13443756103516,215.74855041503906)" svgjs:data="{&quot;leading&quot;:&quot;1.3&quot;}"><textPath xlink:href="#SvgjsPath1001" svgjs:data="{&quot;leading&quot;:&quot;1.3&quot;}"><tspan dy="0" x="0" svgjs:data="{&quot;newLined&quot;:true}">PLAYER</tspan></textPath></text><defs transform="matrix(0.9999999999999999,0,0,1,0,0)"><path d="M100.5,50.5c-1.1,65.7-98.9,65.7-100,0C1.6-15.2,99.4-15.2,100.5,50.5z" id="SvgjsPath1001"></path></defs><image width="592" height="760" xlink:href="https://lct-designs.s3.us-west-1.amazonaws.com/assets/libs/asset-217-1657261979072.png" class="asset" transform="matrix(-0.004286587703973055,-0.06671908497810364,0.06671908497810364,-0.004286587703973055,25.59275054931641,231.85749816894537)"></image><text fill="#000000" font-family="Impact" font-size="20" stroke-opacity="1" stroke-width="1" stroke="#ffffff" x="187.31262428161713" y="86.6332744371058" transform="matrix(-0.36995261907577515,-0.7063714861869813,0.7063714861869812,-0.3699526190757752,33.147216796875,287.10107421875)" svgjs:data="{&quot;leading&quot;:&quot;1.3&quot;}"><textPath xlink:href="#SvgjsPath1001" svgjs:data="{&quot;leading&quot;:&quot;1.3&quot;}"><tspan dy="0" x="0" svgjs:data="{&quot;newLined&quot;:true}">PLAYER</tspan></textPath></text><image width="592" height="760" xlink:href="https://lct-designs.s3.us-west-1.amazonaws.com/assets/libs/asset-217-1657261979072.png" class="asset" transform="matrix(-0.004286589100956916,-0.06671908497810364,0.06671908497810364,-0.004286589100956917,28.138011932373043,301.080078125)"></image><text fill="#000000" font-family="Impact" font-size="20" stroke-opacity="1" stroke-width="1" stroke="#ffffff" x="187.31262428161713" y="86.6332744371058" transform="matrix(-0.36995261907577515,-0.7063713669776918,0.7063713669776917,-0.3699526190757752,35.69247817993164,356.3236694335938)" svgjs:data="{&quot;leading&quot;:&quot;1.3&quot;}"><textPath xlink:href="#SvgjsPath1001" svgjs:data="{&quot;leading&quot;:&quot;1.3&quot;}"><tspan dy="0" x="0" svgjs:data="{&quot;newLined&quot;:true}">PLAYER</tspan></textPath></text><image width="592" height="760" xlink:href="https://lct-designs.s3.us-west-1.amazonaws.com/assets/libs/asset-217-1657261979072.png" class="asset" transform="matrix(-0.004286590032279491,-0.06671908497810364,0.06671908497810364,-0.004286590032279491,95.64599609374999,206.8308868408203)"></image><text fill="#000000" font-family="Impact" font-size="20" stroke-opacity="1" stroke-width="1" stroke="#ffffff" x="187.31262428161713" y="86.6332744371058" transform="matrix(-0.36995261907577515,-0.7063712477684021,0.7063712477684021,-0.3699526190757752,103.2004699707031,262.074462890625)" svgjs:data="{&quot;leading&quot;:&quot;1.3&quot;}"><textPath xlink:href="#SvgjsPath1001" svgjs:data="{&quot;leading&quot;:&quot;1.3&quot;}"><tspan dy="0" x="0" svgjs:data="{&quot;newLined&quot;:true}">PLAYER</tspan></textPath></text><image width="592" height="760" xlink:href="https://lct-designs.s3.us-west-1.amazonaws.com/assets/libs/asset-217-1657261979072.png" class="asset" transform="matrix(-0.004286590963602066,-0.06671908497810364,0.06671908497810364,-0.004286590963602066,96.59381103515624,273.39105224609375)"></image><text fill="#000000" font-family="Impact" font-size="20" stroke-opacity="1" stroke-width="1" stroke="#ffffff" x="187.31262428161713" y="86.6332744371058" transform="matrix(-0.36995261907577515,-0.7063711285591125,0.7063711285591124,-0.3699526190757752,104.14828491210935,328.63464355468756)" svgjs:data="{&quot;leading&quot;:&quot;1.3&quot;}"><textPath xlink:href="#SvgjsPath1001" svgjs:data="{&quot;leading&quot;:&quot;1.3&quot;}"><tspan dy="0" x="0" svgjs:data="{&quot;newLined&quot;:true}">PLAYER</tspan></textPath></text><image width="592" height="760" xlink:href="https://lct-designs.s3.us-west-1.amazonaws.com/assets/libs/asset-217-1657261979072.png" class="asset" transform="matrix(-0.004286587703973055,-0.06671908497810364,0.06671908497810364,-0.004286587703973055,438.7982635498047,160.50498962402344)"></image><text fill="#000000" font-family="Impact" font-size="20" stroke-opacity="1" stroke-width="1" stroke="#ffffff" x="187.31262428161713" y="86.6332744371058" transform="matrix(-0.36995261907577515,-0.7063714861869813,0.7063714861869812,-0.3699526190757752,446.3527297973633,215.74855041503906)" svgjs:data="{&quot;leading&quot;:&quot;1.3&quot;}"><textPath xlink:href="#SvgjsPath1001" svgjs:data="{&quot;leading&quot;:&quot;1.3&quot;}"><tspan dy="0" x="0" svgjs:data="{&quot;newLined&quot;:true}">PLAYER</tspan></textPath></text><defs transform="matrix(0.9999999999999999,0,0,1,415.2182922363281,0)"><path d="M100.5,50.5c-1.1,65.7-98.9,65.7-100,0C1.6-15.2,99.4-15.2,100.5,50.5z" id="SvgjsPath1050"></path></defs><image width="592" height="760" xlink:href="https://lct-designs.s3.us-west-1.amazonaws.com/assets/libs/asset-217-1657261979072.png" class="asset" transform="matrix(-0.004286589100956916,-0.06671908497810364,0.06671908497810364,-0.004286589100956917,440.81104278564453,231.85749816894537)"></image><text fill="#000000" font-family="Impact" font-size="20" stroke-opacity="1" stroke-width="1" stroke="#ffffff" x="187.31262428161713" y="86.6332744371058" transform="matrix(-0.36995261907577515,-0.7063713669776918,0.7063713669776917,-0.3699526190757752,448.3655090332031,287.10107421875)" svgjs:data="{&quot;leading&quot;:&quot;1.3&quot;}"><textPath xlink:href="#SvgjsPath1001" svgjs:data="{&quot;leading&quot;:&quot;1.3&quot;}"><tspan dy="0" x="0" svgjs:data="{&quot;newLined&quot;:true}">PLAYER</tspan></textPath></text><image width="592" height="760" xlink:href="https://lct-designs.s3.us-west-1.amazonaws.com/assets/libs/asset-217-1657261979072.png" class="asset" transform="matrix(-0.004286590032279491,-0.06671908497810364,0.06671908497810364,-0.004286590032279491,443.3563041687012,301.080078125)"></image><text fill="#000000" font-family="Impact" font-size="20" stroke-opacity="1" stroke-width="1" stroke="#ffffff" x="187.31262428161713" y="86.6332744371058" transform="matrix(-0.36995261907577515,-0.7063712477684021,0.7063712477684021,-0.3699526190757752,450.91077041625977,356.3236694335938)" svgjs:data="{&quot;leading&quot;:&quot;1.3&quot;}"><textPath xlink:href="#SvgjsPath1001" svgjs:data="{&quot;leading&quot;:&quot;1.3&quot;}"><tspan dy="0" x="0" svgjs:data="{&quot;newLined&quot;:true}">PLAYER</tspan></textPath></text><image width="592" height="760" xlink:href="https://lct-designs.s3.us-west-1.amazonaws.com/assets/libs/asset-217-1657261979072.png" class="asset" transform="matrix(-0.004286590963602066,-0.06671908497810364,0.06671908497810364,-0.004286590963602066,368.6917724609375,206.8308868408203)"></image><text fill="#000000" font-family="Impact" font-size="20" stroke-opacity="1" stroke-width="1" stroke="#ffffff" x="187.31262428161713" y="86.6332744371058" transform="matrix(-0.36995261907577515,-0.7063711285591125,0.7063711285591124,-0.3699526190757752,376.2462463378906,262.074462890625)" svgjs:data="{&quot;leading&quot;:&quot;1.3&quot;}"><textPath xlink:href="#SvgjsPath1001" svgjs:data="{&quot;leading&quot;:&quot;1.3&quot;}"><tspan dy="0" x="0" svgjs:data="{&quot;newLined&quot;:true}">PLAYER</tspan></textPath></text><image width="592" height="760" xlink:href="https://lct-designs.s3.us-west-1.amazonaws.com/assets/libs/asset-217-1657261979072.png" class="asset" transform="matrix(-0.004286591894924641,-0.06671908497810364,0.06671908497810364,-0.004286591894924641,369.63958740234375,273.39105224609375)"></image><text fill="#000000" font-family="Impact" font-size="20" stroke-opacity="1" stroke-width="1" stroke="#ffffff" x="187.31262428161713" y="86.6332744371058" transform="matrix(-0.36995261907577515,-0.706371009349823,0.7063710093498229,-0.3699526190757752,377.1940612792969,328.63464355468756)" svgjs:data="{&quot;leading&quot;:&quot;1.3&quot;}"><textPath xlink:href="#SvgjsPath1001" svgjs:data="{&quot;leading&quot;:&quot;1.3&quot;}"><tspan dy="0" x="0" svgjs:data="{&quot;newLined&quot;:true}">PLAYER</tspan></textPath></text><g class="mask" style="pointer-events: none;"><g><path fill="#BCBEC0" d="M-3642.4-2101.7v4589.1h7813.4v-4589.1H-3642.4z M500.5,67.2v233.3v66.7H0.5v-66.7V67.2V0.5h500V67.2z" transform="matrix(1,0,0,1,0,0)"></path><g transform="matrix(1,0,0,1,0,0)">
	<rect x="0.5" y="300.5" opacity="0.95" fill="#F1F2F2" width="500" height="66.7"></rect>
	<rect x="0.5" y="0.5" opacity="0.95" fill="#F1F2F2" width="500" height="66.7"></rect>
</g></g></g></svg>