<svg xmlns="http://www.w3.org/2000/svg" version="1.1" xmlns:xlink="http://www.w3.org/1999/xlink" xmlns:svgjs="http://svgjs.dev/svgjs" width="100%" height="100%" viewBox="1 1 499 365.70001220703125" preserveAspectRatio="none" data-info="{&quot;_id&quot;:4,&quot;name&quot;:&quot;POLE POCKET SOCCER BANNERS&quot;,&quot;information&quot;:&quot;- Size: 3’x5’\n- Material: heavy duty vinyl banner\n- Digitally printed on vinyl&quot;,&quot;price&quot;:&quot;95.00&quot;,&quot;sale_price&quot;:&quot;89.99&quot;,&quot;type&quot;:&quot;pole-pocket&quot;,&quot;cover&quot;:{&quot;key&quot;:&quot;assets/models/pole-1628062864266-1631924568908.png&quot;,&quot;url&quot;:&quot;https://lct-designs.s3.us-west-1.amazonaws.com/assets/models/pole-1628062864266-1631924568908.png&quot;},&quot;back&quot;:{&quot;key&quot;:&quot;assets/models/pole-1631924700152.svg&quot;,&quot;url&quot;:&quot;https://lct-designs.s3.us-west-1.amazonaws.com/assets/models/pole-1631924700152.svg&quot;},&quot;mask&quot;:{&quot;key&quot;:&quot;assets/models/pole-mask-1631925211715.svg&quot;,&quot;url&quot;:&quot;https://lct-designs.s3.us-west-1.amazonaws.com/assets/models/pole-mask-1631925211715.svg&quot;},&quot;pos&quot;:&quot;2&quot;,&quot;accessories&quot;:&quot;2,3&quot;}" style="background-color: white;"><g class="model" style="pointer-events: none;"><polygon fill="#FFFFFF" points="0.5,0.5 0.5,67.2 0.5,300.5 0.5,367.2 500.5,367.2 500.5,300.5 500.5,67.2 500.5,0.5 "></polygon></g><image width="760" height="556" xlink:href="https://lct-designs.s3.us-west-1.amazonaws.com/assets/libs/t-rex-7-1657266673242.png" class="asset background locked" transform="matrix(0.6595323960558116,0,0,0.6595323960558116,0,0)"></image><text fill="#000000" font-family="Impact" font-size="45" x="50.877864861049005" y="201.76359325371294" stroke-opacity="1" stroke-width="1" stroke="#ffffff" transform="matrix(0.221296027302742,0,0,0.221296027302742,2.290464878082261,38.76193237304687)" svgjs:data="{&quot;leading&quot;:&quot;1.3&quot;}"><tspan dy="0" x="50.877864861049005" svgjs:data="{&quot;newLined&quot;:true}">COACH: COACH'S NAME</tspan></text><text fill="#000000" font-family="Impact" font-size="45" x="50.877864861049005" y="201.76359325371294" stroke-opacity="1" stroke-width="-1" stroke="#ffffff" transform="matrix(0.221296027302742,0,0,0.221296027302742,358.6787414550781,39.34862518310546)" svgjs:data="{&quot;leading&quot;:&quot;1.3&quot;}"><tspan dy="0" x="50.877864861049005" svgjs:data="{&quot;newLined&quot;:true}">TEAM MOM: TEAM MOM'S NAME</tspan></text><text fill="#000000" font-family="Impact" font-size="20" stroke-opacity="1" stroke-width="1" stroke="#ffffff" x="187.31262428161713" y="86.6332744371058" transform="matrix(-0.36995261907577515,-0.7063712477684021,0.7063712477684021,-0.3699526190757752,450.91077041625977,356.3236694335938)" svgjs:data="{&quot;leading&quot;:&quot;1.3&quot;}"><textPath xlink:href="#SvgjsPath1001" svgjs:data="{&quot;leading&quot;:&quot;1.3&quot;}"><tspan dy="0" x="0" svgjs:data="{&quot;newLined&quot;:true}">PLAYER</tspan></textPath></text><image width="760" height="703" xlink:href="https://lct-designs.s3.us-west-1.amazonaws.com/assets/libs/t-rex-5-1657266673243.png" class="asset" transform="matrix(0.24535734951496127,-0.0006180202472023666,0.0006180202472023666,0.24535734951496124,16.65097999572754,88.16090393066406)"></image><image width="760" height="177" xlink:href="https://lct-designs.s3.us-west-1.amazonaws.com/assets/libs/t-rex-6-1657266673243.png" class="asset" transform="matrix(0.3109300136566162,0,0,0.3109300136566162,219.32421875,89.3472900390625)"></image><image width="760" height="758" xlink:href="https://lct-designs.s3.us-west-1.amazonaws.com/assets/libs/alliance1-1632042447894.png" class="asset" transform="matrix(0.05024300143122673,0,0,0.05024300143122673,217.7735595703125,162.9280242919922)"></image><text fill="#000000" font-family="Impact" font-size="19" stroke-opacity="1" stroke-width="-0.3" stroke="#ffffff" x="225.7790551634679" y="191.44166110819438" transform="matrix(1,0,0,1,-13.634078979492188,23.925231933593743)" svgjs:data="{&quot;leading&quot;:&quot;1.3&quot;}"><tspan dy="0" x="225.7790551634679" svgjs:data="{&quot;newLined&quot;:true}">Player</tspan></text><image width="760" height="758" xlink:href="https://lct-designs.s3.us-west-1.amazonaws.com/assets/libs/alliance1-1632042447894.png" class="asset" transform="matrix(0.05024300143122673,0,0,0.05024300143122673,283.44569396972656,162.46794128417966)"></image><text fill="#000000" font-family="Impact" font-size="19" stroke-opacity="1" stroke-width="-0.3" stroke="#ffffff" x="225.7790551634679" y="191.44166110819438" transform="matrix(1,0,0,1,52.03804016113281,23.465148925781257)" svgjs:data="{&quot;leading&quot;:&quot;1.3&quot;}"><tspan dy="0" x="225.7790551634679" svgjs:data="{&quot;newLined&quot;:true}">Player</tspan></text><image width="760" height="758" xlink:href="https://lct-designs.s3.us-west-1.amazonaws.com/assets/libs/alliance1-1632042447894.png" class="asset" transform="matrix(0.05024300143122673,0,0,0.05024300143122673,350.95823669433594,162.46795654296875)"></image><text fill="#000000" font-family="Impact" font-size="19" stroke-opacity="1" stroke-width="-0.3" stroke="#ffffff" x="225.7790551634679" y="191.44166110819438" transform="matrix(1,0,0,1,119.55058288574219,23.46516418457032)" svgjs:data="{&quot;leading&quot;:&quot;1.3&quot;}"><tspan dy="0" x="225.7790551634679" svgjs:data="{&quot;newLined&quot;:true}">Player</tspan></text><image width="760" height="758" xlink:href="https://lct-designs.s3.us-west-1.amazonaws.com/assets/libs/alliance1-1632042447894.png" class="asset" transform="matrix(0.05024300143122673,0,0,0.05024300143122673,419.39100646972656,162.46794128417966)"></image><text fill="#000000" font-family="Impact" font-size="19" stroke-opacity="1" stroke-width="-0.3" stroke="#ffffff" x="225.7790551634679" y="191.44166110819438" transform="matrix(1,0,0,1,187.9833526611328,23.465148925781257)" svgjs:data="{&quot;leading&quot;:&quot;1.3&quot;}"><tspan dy="0" x="225.7790551634679" svgjs:data="{&quot;newLined&quot;:true}">Player</tspan></text><image width="760" height="758" xlink:href="https://lct-designs.s3.us-west-1.amazonaws.com/assets/libs/alliance1-1632042447894.png" class="asset" transform="matrix(0.05024300143122673,0,0,0.05024300143122673,239.85838317871094,244.36579895019528)"></image><text fill="#000000" font-family="Impact" font-size="19" stroke-opacity="1" stroke-width="-0.3" stroke="#ffffff" x="225.7790551634679" y="191.44166110819438" transform="matrix(1,0,0,1,8.450729370117173,105.36300659179688)" svgjs:data="{&quot;leading&quot;:&quot;1.3&quot;}"><tspan dy="0" x="225.7790551634679" svgjs:data="{&quot;newLined&quot;:true}">Player</tspan></text><image width="760" height="758" xlink:href="https://lct-designs.s3.us-west-1.amazonaws.com/assets/libs/alliance1-1632042447894.png" class="asset" transform="matrix(0.05024300143122673,0,0,0.05024300143122673,305.530517578125,243.90571594238284)"></image><text fill="#000000" font-family="Impact" font-size="19" stroke-opacity="1" stroke-width="-0.3" stroke="#ffffff" x="225.7790551634679" y="191.44166110819438" transform="matrix(1,0,0,1,74.12284851074219,104.90292358398435)" svgjs:data="{&quot;leading&quot;:&quot;1.3&quot;}"><tspan dy="0" x="225.7790551634679" svgjs:data="{&quot;newLined&quot;:true}">Player</tspan></text><image width="760" height="758" xlink:href="https://lct-designs.s3.us-west-1.amazonaws.com/assets/libs/alliance1-1632042447894.png" class="asset" transform="matrix(0.05024300143122673,0,0,0.05024300143122673,373.04306030273443,243.9057312011719)"></image><text fill="#000000" font-family="Impact" font-size="19" stroke-opacity="1" stroke-width="-0.3" stroke="#ffffff" x="225.7790551634679" y="191.44166110819438" transform="matrix(1,0,0,1,141.6353912353516,104.90293884277344)" svgjs:data="{&quot;leading&quot;:&quot;1.3&quot;}"><tspan dy="0" x="225.7790551634679" svgjs:data="{&quot;newLined&quot;:true}">Player</tspan></text><image width="760" height="758" xlink:href="https://lct-designs.s3.us-west-1.amazonaws.com/assets/libs/alliance1-1632042447894.png" class="asset" transform="matrix(0.05024300143122673,0,0,0.05024300143122673,441.475830078125,243.90571594238284)"></image><text fill="#000000" font-family="Impact" font-size="19" stroke-opacity="1" stroke-width="-0.3" stroke="#ffffff" x="225.7790551634679" y="191.44166110819438" transform="matrix(1,0,0,1,210.0681610107422,104.90292358398435)" svgjs:data="{&quot;leading&quot;:&quot;1.3&quot;}"><tspan dy="0" x="225.7790551634679" svgjs:data="{&quot;newLined&quot;:true}">Player</tspan></text><image width="760" height="758" xlink:href="https://lct-designs.s3.us-west-1.amazonaws.com/assets/libs/alliance1-1632042447894.png" class="asset" transform="matrix(0.05024300143122673,0,0,0.05024300143122673,178.75851440429688,242.5254211425781)"></image><text fill="#000000" font-family="Impact" font-size="19" stroke-opacity="1" stroke-width="-0.3" stroke="#ffffff" x="225.7790551634679" y="191.44166110819438" transform="matrix(1,0,0,1,-52.649154663085945,103.52262878417969)" svgjs:data="{&quot;leading&quot;:&quot;1.3&quot;}"><tspan dy="0" x="225.7790551634679" svgjs:data="{&quot;newLined&quot;:true}">Player</tspan></text><g class="mask" style="pointer-events: none;"><g><path fill="#BCBEC0" d="M-3642.4-2101.7v4589.1h7813.4v-4589.1H-3642.4z M500.5,67.2v233.3v66.7H0.5v-66.7V67.2V0.5h500V67.2z" transform="matrix(1,0,0,1,0,0)"></path><g transform="matrix(1,0,0,1,0,0)">
	<rect x="0.5" y="300.5" opacity="0.95" fill="#F1F2F2" width="500" height="66.7"></rect>
	<rect x="0.5" y="0.5" opacity="0.95" fill="#F1F2F2" width="500" height="66.7"></rect>
</g></g></g></svg>