<svg xmlns="http://www.w3.org/2000/svg" version="1.1" xmlns:xlink="http://www.w3.org/1999/xlink" xmlns:svgjs="http://svgjs.dev/svgjs" width="100%" height="100%" viewBox="1 1 499 365.70001220703125" preserveAspectRatio="none" data-info="{&quot;_id&quot;:4,&quot;name&quot;:&quot;POLE POCKET SOCCER BANNERS&quot;,&quot;information&quot;:&quot;- Size: 3’x5’\n- Material: heavy duty vinyl banner\n- Digitally printed on vinyl&quot;,&quot;price&quot;:&quot;95.00&quot;,&quot;sale_price&quot;:&quot;89.99&quot;,&quot;type&quot;:&quot;pole-pocket&quot;,&quot;cover&quot;:{&quot;key&quot;:&quot;assets/models/pole-1628062864266-1631924568908.png&quot;,&quot;url&quot;:&quot;https://lct-designs.s3.us-west-1.amazonaws.com/assets/models/pole-1628062864266-1631924568908.png&quot;},&quot;back&quot;:{&quot;key&quot;:&quot;assets/models/pole-1631924700152.svg&quot;,&quot;url&quot;:&quot;https://lct-designs.s3.us-west-1.amazonaws.com/assets/models/pole-1631924700152.svg&quot;},&quot;mask&quot;:{&quot;key&quot;:&quot;assets/models/pole-mask-1631925211715.svg&quot;,&quot;url&quot;:&quot;https://lct-designs.s3.us-west-1.amazonaws.com/assets/models/pole-mask-1631925211715.svg&quot;},&quot;pos&quot;:&quot;2&quot;,&quot;accessories&quot;:&quot;2,3&quot;}" style="background-color: white;"><g class="model" style="pointer-events: none;"><polygon fill="#FFFFFF" points="0.5,0.5 0.5,67.2 0.5,300.5 0.5,367.2 500.5,367.2 500.5,300.5 500.5,67.2 500.5,0.5 "></polygon></g><image width="760" height="556" xlink:href="https://lct-designs.s3.us-west-1.amazonaws.com/assets/libs/hello-kitty-6-1656494571147.png" class="asset background locked" transform="matrix(0.6595323960558116,0,0,0.6595323960558116,0,0)"></image><text fill="#ffffff" font-family="Impact" font-size="40" x="54.87449865828927" y="201.7453084835824" stroke-opacity="1" stroke-width="2" stroke="#000000" transform="matrix(0.2622695863246918,0,0,0.2622695863246918,385.3128356933594,29.686861038208015)" svgjs:data="{&quot;leading&quot;:&quot;1.3&quot;}"><tspan dy="0" x="54.87449865828927" svgjs:data="{&quot;newLined&quot;:true}">Coach: Coach's name</tspan></text><text fill="#ffffff" font-family="Impact" font-size="40" x="54.87449865828927" y="201.7453084835824" stroke-opacity="1" stroke-width="2" stroke="#000000" transform="matrix(0.2622695863246918,0,0,0.2622695863246918,-3.932096481323242,239.9527282714844)" svgjs:data="{&quot;leading&quot;:&quot;1.3&quot;}"><tspan dy="0" x="54.87449865828927" svgjs:data="{&quot;newLined&quot;:true}">Team mom: Team mom's name</tspan></text><image width="760" height="447" xlink:href="https://lct-designs.s3.us-west-1.amazonaws.com/assets/libs/hello-kitty-4-1656494571147.png" class="asset" transform="matrix(0.18407249450683594,0,0,0.18407249450683594,19.640630722045884,76.6452407836914)"></image><image width="760" height="721" xlink:href="https://lct-designs.s3.us-west-1.amazonaws.com/assets/libs/hello-kitty-3-1656494571148.png" class="asset" transform="matrix(0.20241175591945648,0,0,0.20241175591945648,347.23028564453125,145.57789611816403)"></image><image width="760" height="532" xlink:href="https://lct-designs.s3.us-west-1.amazonaws.com/assets/libs/hello-kitty-1-1656494571149.png" class="asset" transform="matrix(0.05893294513225556,0,0,0.058932945132255554,76.73247528076172,163.53332519531247)"></image><text fill="#ffffff" font-family="Impact" font-size="21" stroke-opacity="1" stroke-width="1" stroke="#000000" x="223.0780930968175" y="192.13181136911967" transform="matrix(1,0,0,1,-151.37301635742188,19.78431701660157)" svgjs:data="{&quot;leading&quot;:&quot;1.3&quot;}"><tspan dy="0" x="223.0780930968175" svgjs:data="{&quot;newLined&quot;:true}">Player</tspan></text><image width="760" height="532" xlink:href="https://lct-designs.s3.us-west-1.amazonaws.com/assets/libs/hello-kitty-1-1656494571149.png" class="asset" transform="matrix(0.058932960033416755,0,0,0.05893296003341675,165.40965270996094,163.99342346191406)"></image><text fill="#ffffff" font-family="Impact" font-size="21" stroke-opacity="1" stroke-width="1" stroke="#000000" x="223.0780930968175" y="192.13181136911967" transform="matrix(1,0,0,1,-62.69584655761719,20.244415283203118)" svgjs:data="{&quot;leading&quot;:&quot;1.3&quot;}"><tspan dy="0" x="223.0780930968175" svgjs:data="{&quot;newLined&quot;:true}">Player</tspan></text><image width="760" height="532" xlink:href="https://lct-designs.s3.us-west-1.amazonaws.com/assets/libs/hello-kitty-1-1656494571149.png" class="asset" transform="matrix(0.05893298983573913,0,0,0.05893298983573914,258.22772216796875,163.07322692871094)"></image><text fill="#ffffff" font-family="Impact" font-size="21" stroke-opacity="1" stroke-width="1" stroke="#000000" x="223.0780930968175" y="192.13181136911967" transform="matrix(1,0,0,1,30.12221908569336,19.324218749999993)" svgjs:data="{&quot;leading&quot;:&quot;1.3&quot;}"><tspan dy="0" x="223.0780930968175" svgjs:data="{&quot;newLined&quot;:true}">Player</tspan></text><image width="760" height="532" xlink:href="https://lct-designs.s3.us-west-1.amazonaws.com/assets/libs/hello-kitty-1-1656494571149.png" class="asset" transform="matrix(0.05893294513225556,0,0,0.058932945132255554,75.69007873535156,225.1867828369141)"></image><text fill="#ffffff" font-family="Impact" font-size="21" stroke-opacity="1" stroke-width="1" stroke="#000000" x="223.0780930968175" y="192.13181136911967" transform="matrix(1,0,0,1,-152.41542053222656,81.43777465820312)" svgjs:data="{&quot;leading&quot;:&quot;1.3&quot;}"><tspan dy="0" x="223.0780930968175" svgjs:data="{&quot;newLined&quot;:true}">Player</tspan></text><image width="760" height="532" xlink:href="https://lct-designs.s3.us-west-1.amazonaws.com/assets/libs/hello-kitty-1-1656494571149.png" class="asset" transform="matrix(0.058932960033416755,0,0,0.05893296003341675,164.36724853515625,225.6468811035156)"></image><text fill="#ffffff" font-family="Impact" font-size="21" stroke-opacity="1" stroke-width="1" stroke="#000000" x="223.0780930968175" y="192.13181136911967" transform="matrix(1,0,0,1,-63.73825073242188,81.89787292480466)" svgjs:data="{&quot;leading&quot;:&quot;1.3&quot;}"><tspan dy="0" x="223.0780930968175" svgjs:data="{&quot;newLined&quot;:true}">Player</tspan></text><image width="760" height="532" xlink:href="https://lct-designs.s3.us-west-1.amazonaws.com/assets/libs/hello-kitty-1-1656494571149.png" class="asset" transform="matrix(0.05893298983573913,0,0,0.05893298983573914,257.18531799316406,224.72668457031253)"></image><text fill="#ffffff" font-family="Impact" font-size="21" stroke-opacity="1" stroke-width="1" stroke="#000000" x="223.0780930968175" y="192.13181136911967" transform="matrix(1,0,0,1,29.079818725585938,80.97767639160156)" svgjs:data="{&quot;leading&quot;:&quot;1.3&quot;}"><tspan dy="0" x="223.0780930968175" svgjs:data="{&quot;newLined&quot;:true}">Player</tspan></text><image width="760" height="532" xlink:href="https://lct-designs.s3.us-west-1.amazonaws.com/assets/libs/hello-kitty-1-1656494571149.png" class="asset" transform="matrix(0.05893297493457795,0,0,0.058932974934577935,188.29248052835464,91.75765991210938)"></image><text fill="#ffffff" font-family="Impact" font-size="21" stroke-opacity="1" stroke-width="1" stroke="#000000" x="223.0780930968175" y="192.13181136911967" transform="matrix(1,0,0,1,-39.813018739223494,-51.99134826660156)" svgjs:data="{&quot;leading&quot;:&quot;1.3&quot;}"><tspan dy="0" x="223.0780930968175" svgjs:data="{&quot;newLined&quot;:true}">Player</tspan></text><image width="760" height="532" xlink:href="https://lct-designs.s3.us-west-1.amazonaws.com/assets/libs/hello-kitty-1-1656494571149.png" class="asset" transform="matrix(0.05893298983573913,0,0,0.05893298983573914,276.9696503281593,92.21775817871091)"></image><text fill="#ffffff" font-family="Impact" font-size="21" stroke-opacity="1" stroke-width="1" stroke="#000000" x="223.0780930968175" y="192.13181136911967" transform="matrix(1,0,0,1,48.86415106058121,-51.53125)" svgjs:data="{&quot;leading&quot;:&quot;1.3&quot;}"><tspan dy="0" x="223.0780930968175" svgjs:data="{&quot;newLined&quot;:true}">Player</tspan></text><image width="760" height="532" xlink:href="https://lct-designs.s3.us-west-1.amazonaws.com/assets/libs/hello-kitty-1-1656494571149.png" class="asset" transform="matrix(0.058933008462190635,0,0,0.05893300846219063,369.7877045273781,91.29756164550781)"></image><text fill="#ffffff" font-family="Impact" font-size="21" stroke-opacity="1" stroke-width="1" stroke="#000000" x="223.0780930968175" y="192.13181136911967" transform="matrix(1,0,0,1,141.68222051858902,-52.45144653320313)" svgjs:data="{&quot;leading&quot;:&quot;1.3&quot;}"><tspan dy="0" x="223.0780930968175" svgjs:data="{&quot;newLined&quot;:true}">Player</tspan></text><g class="mask" style="pointer-events: none;"><g><path fill="#BCBEC0" d="M-3642.4-2101.7v4589.1h7813.4v-4589.1H-3642.4z M500.5,67.2v233.3v66.7H0.5v-66.7V67.2V0.5h500V67.2z" transform="matrix(1,0,0,1,0,0)"></path><g transform="matrix(1,0,0,1,0,0)">
	<rect x="0.5" y="300.5" opacity="0.95" fill="#F1F2F2" width="500" height="66.7"></rect>
	<rect x="0.5" y="0.5" opacity="0.95" fill="#F1F2F2" width="500" height="66.7"></rect>
</g></g></g></svg>