<svg xmlns="http://www.w3.org/2000/svg" version="1.1" xmlns:xlink="http://www.w3.org/1999/xlink" xmlns:svgjs="http://svgjs.dev/svgjs" width="100%" height="100%" viewBox="1 1 499 365.70001220703125" preserveAspectRatio="none" data-info="{&quot;_id&quot;:4,&quot;name&quot;:&quot;POLE POCKET SOCCER BANNERS&quot;,&quot;information&quot;:&quot;- Size: 3’x5’\n- Material: heavy duty vinyl banner\n- Digitally printed on vinyl&quot;,&quot;price&quot;:&quot;95.00&quot;,&quot;sale_price&quot;:&quot;89.99&quot;,&quot;type&quot;:&quot;pole-pocket&quot;,&quot;cover&quot;:{&quot;key&quot;:&quot;assets/models/pole-1628062864266-1631924568908.png&quot;,&quot;url&quot;:&quot;https://lct-designs.s3.us-west-1.amazonaws.com/assets/models/pole-1628062864266-1631924568908.png&quot;},&quot;back&quot;:{&quot;key&quot;:&quot;assets/models/pole-1631924700152.svg&quot;,&quot;url&quot;:&quot;https://lct-designs.s3.us-west-1.amazonaws.com/assets/models/pole-1631924700152.svg&quot;},&quot;mask&quot;:{&quot;key&quot;:&quot;assets/models/pole-mask-1631925211715.svg&quot;,&quot;url&quot;:&quot;https://lct-designs.s3.us-west-1.amazonaws.com/assets/models/pole-mask-1631925211715.svg&quot;},&quot;pos&quot;:&quot;2&quot;,&quot;accessories&quot;:&quot;2,3&quot;}" style="background-color: white;"><g class="model" style="pointer-events: none;"><polygon fill="#FFFFFF" points="0.5,0.5 0.5,67.2 0.5,300.5 0.5,367.2 500.5,367.2 500.5,300.5 500.5,67.2 500.5,0.5 "></polygon></g><image width="760" height="556" xlink:href="https://lct-designs.s3.us-west-1.amazonaws.com/assets/libs/blue-hawks-1632546140855.png" class="asset background locked" transform="matrix(0.6595323960558116,0,0,0.6595323960558116,0,0)"></image><text fill="#ffffff" font-family="Impact" font-size="20" x="50.877864861049005" y="201.76359325371294" stroke-opacity="1" stroke-width="-0.5" stroke="#000000" transform="matrix(0.490454912185669,0,0,0.49045491218566895,-18.21929931640625,-18.512060165405273)" svgjs:data="{&quot;leading&quot;:&quot;1.3&quot;}"><tspan dy="0" x="50.877864861049005" svgjs:data="{&quot;newLined&quot;:true}">COACH: COACH'S NAME</tspan></text><text fill="#ffffff" font-family="Impact" font-size="20" x="50.877864861049005" y="201.76359325371294" stroke-opacity="1" stroke-width="-0.5" stroke="#000000" transform="matrix(0.4978054165840149,0,0,0.49780541658401495,347.02584838867193,-20.81414222717285)" svgjs:data="{&quot;leading&quot;:&quot;1.3&quot;}"><tspan dy="0" x="50.877864861049005" svgjs:data="{&quot;newLined&quot;:true}">TEAM MOM: TEAM MOM'S NAME</tspan></text><image width="760" height="354" xlink:href="https://lct-designs.s3.us-west-1.amazonaws.com/assets/libs/blue-hawks-1632546321153.png" class="asset" transform="matrix(0.31743347644805914,0,0,0.3174334764480591,127.22249603271484,84.14396667480469)"></image><image width="760" height="489" xlink:href="https://lct-designs.s3.us-west-1.amazonaws.com/assets/libs/nemesis-1-1633342536152.png" class="asset" transform="matrix(0.07794877141714096,0,0,0.07794877141714096,11.466712951660156,97.34721374511716)"></image><text fill="#ffffff" font-family="Impact" font-size="17" stroke-opacity="1" stroke-width="-0.5" stroke="#000000" x="228.24997763356066" y="190.52145980661967" transform="matrix(1,0,0,1,-209.4127960205078,-40.948944091796875)" svgjs:data="{&quot;leading&quot;:&quot;1.3&quot;}"><tspan dy="0" x="228.24997763356066" svgjs:data="{&quot;newLined&quot;:true}">Player</tspan></text><image width="760" height="489" xlink:href="https://lct-designs.s3.us-west-1.amazonaws.com/assets/libs/nemesis-1-1633342536152.png" class="asset" transform="matrix(0.07794880867004395,0,0,0.07794880867004395,11.466674804687486,217.8935241699219)"></image><text fill="#ffffff" font-family="Impact" font-size="17" stroke-opacity="1" stroke-width="-0.5" stroke="#000000" x="228.24997763356066" y="190.52145980661967" transform="matrix(1,0,0,1,-209.4127960205078,79.59735870361328)" svgjs:data="{&quot;leading&quot;:&quot;1.3&quot;}"><tspan dy="0" x="228.24997763356066" svgjs:data="{&quot;newLined&quot;:true}">Player</tspan></text><image width="760" height="489" xlink:href="https://lct-designs.s3.us-west-1.amazonaws.com/assets/libs/nemesis-1-1633342536152.png" class="asset" transform="matrix(0.07794877141714096,0,0,0.07794877141714096,60.467395782470675,155.7799606323242)"></image><text fill="#ffffff" font-family="Impact" font-size="17" stroke-opacity="1" stroke-width="-0.5" stroke="#000000" x="228.24997763356066" y="190.52145980661967" transform="matrix(1,0,0,1,-160.41210556030276,17.48380279541015)" svgjs:data="{&quot;leading&quot;:&quot;1.3&quot;}"><tspan dy="0" x="228.24997763356066" svgjs:data="{&quot;newLined&quot;:true}">Player</tspan></text><image width="760" height="489" xlink:href="https://lct-designs.s3.us-west-1.amazonaws.com/assets/libs/nemesis-1-1633342536152.png" class="asset" transform="matrix(0.07794880867004395,0,0,0.07794880867004395,104.39262008666992,229.85614013671872)"></image><text fill="#ffffff" font-family="Impact" font-size="17" stroke-opacity="1" stroke-width="-0.5" stroke="#000000" x="228.24997763356066" y="190.52145980661967" transform="matrix(1,0,0,1,-116.48687744140626,91.55997467041016)" svgjs:data="{&quot;leading&quot;:&quot;1.3&quot;}"><tspan dy="0" x="228.24997763356066" svgjs:data="{&quot;newLined&quot;:true}">Player</tspan></text><image width="760" height="489" xlink:href="https://lct-designs.s3.us-west-1.amazonaws.com/assets/libs/nemesis-1-1633342536152.png" class="asset" transform="matrix(0.07794882357120514,0,0,0.07794882357120515,188.9288787841797,231.23645019531253)"></image><text fill="#ffffff" font-family="Impact" font-size="17" stroke-opacity="1" stroke-width="-0.5" stroke="#000000" x="228.24997763356066" y="190.52145980661967" transform="matrix(1,0,0,1,-31.950622558593764,92.9402847290039)" svgjs:data="{&quot;leading&quot;:&quot;1.3&quot;}"><tspan dy="0" x="228.24997763356066" svgjs:data="{&quot;newLined&quot;:true}">Player</tspan></text><image width="760" height="489" xlink:href="https://lct-designs.s3.us-west-1.amazonaws.com/assets/libs/nemesis-1-1633342536152.png" class="asset" transform="matrix(0.07794883847236633,0,0,0.07794883847236635,286.34796142578125,231.23645019531253)"></image><text fill="#ffffff" font-family="Impact" font-size="17" stroke-opacity="1" stroke-width="-0.5" stroke="#000000" x="228.24997763356066" y="190.52145980661967" transform="matrix(1,0,0,1,65.46846008300781,92.9402847290039)" svgjs:data="{&quot;leading&quot;:&quot;1.3&quot;}"><tspan dy="0" x="228.24997763356066" svgjs:data="{&quot;newLined&quot;:true}">Player</tspan></text><image width="760" height="489" xlink:href="https://lct-designs.s3.us-west-1.amazonaws.com/assets/libs/nemesis-1-1633342536152.png" class="asset" transform="matrix(0.07794885337352753,0,0,0.07794885337352753,371.80441284179693,155.7799835205078)"></image><text fill="#ffffff" font-family="Impact" font-size="17" stroke-opacity="1" stroke-width="-0.5" stroke="#000000" x="228.24997763356066" y="190.52145980661967" transform="matrix(1,0,0,1,150.92491149902347,17.48381805419921)" svgjs:data="{&quot;leading&quot;:&quot;1.3&quot;}"><tspan dy="0" x="228.24997763356066" svgjs:data="{&quot;newLined&quot;:true}">Player</tspan></text><image width="760" height="489" xlink:href="https://lct-designs.s3.us-west-1.amazonaws.com/assets/libs/nemesis-1-1633342536152.png" class="asset" transform="matrix(0.07794878631830215,0,0,0.07794878631830215,430.49597930908203,95.50680541992188)"></image><text fill="#ffffff" font-family="Impact" font-size="17" stroke-opacity="1" stroke-width="-0.5" stroke="#000000" x="228.24997763356066" y="190.52145980661967" transform="matrix(1,0,0,1,209.61647033691406,-42.789352416992195)" svgjs:data="{&quot;leading&quot;:&quot;1.3&quot;}"><tspan dy="0" x="228.24997763356066" svgjs:data="{&quot;newLined&quot;:true}">Player</tspan></text><image width="760" height="489" xlink:href="https://lct-designs.s3.us-west-1.amazonaws.com/assets/libs/nemesis-1-1633342536152.png" class="asset" transform="matrix(0.07794882357120514,0,0,0.07794882357120515,430.4959411621094,216.05311584472653)"></image><text fill="#ffffff" font-family="Impact" font-size="17" stroke-opacity="1" stroke-width="-0.5" stroke="#000000" x="228.24997763356066" y="190.52145980661967" transform="matrix(1,0,0,1,209.61647033691406,77.75695037841797)" svgjs:data="{&quot;leading&quot;:&quot;1.3&quot;}"><tspan dy="0" x="228.24997763356066" svgjs:data="{&quot;newLined&quot;:true}">Player</tspan></text><g class="mask" style="pointer-events: none;"><g><path fill="#BCBEC0" d="M-3642.4-2101.7v4589.1h7813.4v-4589.1H-3642.4z M500.5,67.2v233.3v66.7H0.5v-66.7V67.2V0.5h500V67.2z" transform="matrix(1,0,0,1,0,0)"></path><g transform="matrix(1,0,0,1,0,0)">
	<rect x="0.5" y="300.5" opacity="0.95" fill="#F1F2F2" width="500" height="66.7"></rect>
	<rect x="0.5" y="0.5" opacity="0.95" fill="#F1F2F2" width="500" height="66.7"></rect>
</g></g></g></svg>