<svg xmlns="http://www.w3.org/2000/svg" version="1.1" xmlns:xlink="http://www.w3.org/1999/xlink" xmlns:svgjs="http://svgjs.dev/svgjs" width="100%" height="100%" viewBox="1 1 499 365.70001220703125" preserveAspectRatio="none" data-info="{&quot;_id&quot;:4,&quot;name&quot;:&quot;POLE POCKET SOCCER BANNERS&quot;,&quot;information&quot;:&quot;- Size: 3’x5’\n- Material: heavy duty vinyl banner\n- Digitally printed on vinyl&quot;,&quot;price&quot;:&quot;95.00&quot;,&quot;sale_price&quot;:&quot;89.99&quot;,&quot;type&quot;:&quot;pole-pocket&quot;,&quot;cover&quot;:{&quot;key&quot;:&quot;assets/models/pole-1628062864266-1631924568908.png&quot;,&quot;url&quot;:&quot;https://lct-designs.s3.us-west-1.amazonaws.com/assets/models/pole-1628062864266-1631924568908.png&quot;},&quot;back&quot;:{&quot;key&quot;:&quot;assets/models/pole-1631924700152.svg&quot;,&quot;url&quot;:&quot;https://lct-designs.s3.us-west-1.amazonaws.com/assets/models/pole-1631924700152.svg&quot;},&quot;mask&quot;:{&quot;key&quot;:&quot;assets/models/pole-mask-1631925211715.svg&quot;,&quot;url&quot;:&quot;https://lct-designs.s3.us-west-1.amazonaws.com/assets/models/pole-mask-1631925211715.svg&quot;},&quot;pos&quot;:&quot;2&quot;,&quot;accessories&quot;:&quot;2,3&quot;}" style="background-color: white;"><g class="model" style="pointer-events: none;"><polygon fill="#FFFFFF" points="0.5,0.5 0.5,67.2 0.5,300.5 0.5,367.2 500.5,367.2 500.5,300.5 500.5,67.2 500.5,0.5 "></polygon></g><image width="760" height="556" xlink:href="https://lct-designs.s3.us-west-1.amazonaws.com/assets/libs/rebels-6-1658216520595.png" class="asset background locked" transform="matrix(0.6595323960558116,0,0,0.6595323960558116,0,0)"></image><text fill="#000000" font-family="Impact" font-size="45" x="50.877864861049005" y="201.76359325371294" stroke-opacity="1" stroke-width="1" stroke="#ffffff" transform="matrix(0.22129602730274203,0,0,0.22129602730274203,5.698375345831465,46.05029012998552)" svgjs:data="{&quot;leading&quot;:&quot;1.3&quot;}"><tspan dy="0" x="50.877864861049005" svgjs:data="{&quot;newLined&quot;:true}">COACH: COACH'S NAME</tspan></text><text fill="#000000" font-family="Impact" font-size="45" x="50.877864861049005" y="201.76359325371294" stroke-opacity="1" stroke-width="1" stroke="#ffffff" transform="matrix(0.22129602730274203,0,0,0.22129602730274203,357.5479201750839,45.87383367482992)" svgjs:data="{&quot;leading&quot;:&quot;1.3&quot;}"><tspan dy="0" x="50.877864861049005" svgjs:data="{&quot;newLined&quot;:true}">TEAM MOM: TEAM MOM'S NAME</tspan></text><g class="g-selected"></g><text fill="#ffffff" font-family="Impact" font-size="18" stroke-opacity="1" stroke-width="0.5" stroke="#000000" x="192.06425396743586" y="201.77202054665298" transform="matrix(1,0,0,1.0000000000000002,-168.3260686307707,-27.464552507708873)" svgjs:data="{&quot;leading&quot;:&quot;1.3&quot;}"><tspan dy="0" x="192.06425396743586" svgjs:data="{&quot;newLined&quot;:true}">Player</tspan></text><image width="592" height="760" xlink:href="https://lct-designs.s3.us-west-1.amazonaws.com/assets/libs/rebels-4-1658216520594.png" class="asset" transform="matrix(-0.00041434468585066503,0.05987698584794999,-0.05987698584794999,-0.00041434468585066503,70.15747218995554,121.53579969481979)"></image><text fill="#ffffff" font-family="Impact" font-size="18" stroke-opacity="1" stroke-width="0.5" stroke="#000000" x="192.06425396743586" y="201.77202054665298" transform="matrix(1,0,0,1.0000000000000002,-168.32605337198132,78.90600753161115)" svgjs:data="{&quot;leading&quot;:&quot;1.3&quot;}"><tspan dy="0" x="192.06425396743586" svgjs:data="{&quot;newLined&quot;:true}">Player</tspan></text><image width="592" height="760" xlink:href="https://lct-designs.s3.us-west-1.amazonaws.com/assets/libs/rebels-4-1658216520594.png" class="asset" transform="matrix(-0.00041434468585066503,0.05987698584794999,-0.05987698584794999,-0.00041434468585066503,70.15757900148125,227.9063616414885)"></image><text fill="#ffffff" font-family="Impact" font-size="18" stroke-opacity="1" stroke-width="0.5" stroke="#000000" x="192.06425396743586" y="201.77202054665298" transform="matrix(1,0,0,1.0000000000000002,-71.13868101201959,-27.0286088949544)" svgjs:data="{&quot;leading&quot;:&quot;1.3&quot;}"><tspan dy="0" x="192.06425396743586" svgjs:data="{&quot;newLined&quot;:true}">Player</tspan></text><image width="592" height="760" xlink:href="https://lct-designs.s3.us-west-1.amazonaws.com/assets/libs/rebels-4-1658216520594.png" class="asset" transform="matrix(-0.00041434468585066503,0.05987698584794999,-0.05987698584794999,-0.00041434468585066503,167.3448674381013,121.97174330757426)"></image><text fill="#ffffff" font-family="Impact" font-size="18" stroke-opacity="1" stroke-width="0.5" stroke="#000000" x="192.06425396743586" y="201.77202054665298" transform="matrix(1,0,0,1.0000000000000002,-71.13868101201959,79.34195114436562)" svgjs:data="{&quot;leading&quot;:&quot;1.3&quot;}"><tspan dy="0" x="192.06425396743586" svgjs:data="{&quot;newLined&quot;:true}">Player</tspan></text><image width="592" height="760" xlink:href="https://lct-designs.s3.us-west-1.amazonaws.com/assets/libs/rebels-4-1658216520594.png" class="asset" transform="matrix(-0.00041434468585066503,0.05987698584794999,-0.05987698584794999,-0.00041434468585066503,167.34489795568015,227.9063616414885)"></image><text fill="#ffffff" font-family="Impact" font-size="18" stroke-opacity="1" stroke-width="0.5" stroke="#000000" x="192.06425396743586" y="201.77202054665298" transform="matrix(1,0,0,1.0000000000000002,-122.83700821848971,29.644241961251147)" svgjs:data="{&quot;leading&quot;:&quot;1.3&quot;}"><tspan dy="0" x="192.06425396743586" svgjs:data="{&quot;newLined&quot;:true}">Player</tspan></text><image width="592" height="760" xlink:href="https://lct-designs.s3.us-west-1.amazonaws.com/assets/libs/rebels-4-1658216520594.png" class="asset" transform="matrix(-0.00041434468585066503,0.05987698584794999,-0.05987698584794999,-0.00041434468585066503,115.64658600799933,178.64459607112846)"></image><image width="456" height="760" xlink:href="https://lct-designs.s3.us-west-1.amazonaws.com/assets/libs/rebels-3-1658216520594.png" class="asset" transform="matrix(0.20270590484142306,0,0,0.20270590484142306,201.86398743235213,134.65783976783393)"></image><text fill="#ffffff" font-family="Impact" font-size="18" stroke-opacity="1" stroke-width="0.5" stroke="#000000" x="192.06425396743586" y="201.77202054665298" transform="matrix(1,0,0,1.0000000000000002,148.57350473559683,-30.952116668534046)" svgjs:data="{&quot;leading&quot;:&quot;1.3&quot;}"><tspan dy="0" x="192.06425396743586" svgjs:data="{&quot;newLined&quot;:true}">Player</tspan></text><image width="592" height="760" xlink:href="https://lct-designs.s3.us-west-1.amazonaws.com/assets/libs/rebels-4-1658216520594.png" class="asset" transform="matrix(-0.00041434468585066503,0.05987698584794999,-0.05987698584794999,-0.00041434468585066503,387.05704555632303,118.04823553399461)"></image><text fill="#ffffff" font-family="Impact" font-size="18" stroke-opacity="1" stroke-width="0.5" stroke="#000000" x="192.06425396743586" y="201.77202054665298" transform="matrix(1,0,0,1.0000000000000002,148.57351999438623,75.41844337078601)" svgjs:data="{&quot;leading&quot;:&quot;1.3&quot;}"><tspan dy="0" x="192.06425396743586" svgjs:data="{&quot;newLined&quot;:true}">Player</tspan></text><image width="592" height="760" xlink:href="https://lct-designs.s3.us-west-1.amazonaws.com/assets/libs/rebels-4-1658216520594.png" class="asset" transform="matrix(-0.00041434468585066503,0.05987698584794999,-0.05987698584794999,-0.00041434468585066503,387.05715236784874,224.41879748066333)"></image><text fill="#ffffff" font-family="Impact" font-size="18" stroke-opacity="1" stroke-width="0.5" stroke="#000000" x="192.06425396743586" y="201.77202054665298" transform="matrix(1,0,0,1.0000000000000002,245.76089235434796,-30.516173055779575)" svgjs:data="{&quot;leading&quot;:&quot;1.3&quot;}"><tspan dy="0" x="192.06425396743586" svgjs:data="{&quot;newLined&quot;:true}">Player</tspan></text><image width="592" height="760" xlink:href="https://lct-designs.s3.us-west-1.amazonaws.com/assets/libs/rebels-4-1658216520594.png" class="asset" transform="matrix(-0.00041434468585066503,0.05987698584794999,-0.05987698584794999,-0.00041434468585066503,484.2444408044688,118.48417914674909)"></image><text fill="#ffffff" font-family="Impact" font-size="18" stroke-opacity="1" stroke-width="0.5" stroke="#000000" x="192.06425396743586" y="201.77202054665298" transform="matrix(1,0,0,1.0000000000000002,245.76089235434796,75.85438698354045)" svgjs:data="{&quot;leading&quot;:&quot;1.3&quot;}"><tspan dy="0" x="192.06425396743586" svgjs:data="{&quot;newLined&quot;:true}">Player</tspan></text><image width="592" height="760" xlink:href="https://lct-designs.s3.us-west-1.amazonaws.com/assets/libs/rebels-4-1658216520594.png" class="asset" transform="matrix(-0.00041434468585066503,0.05987698584794999,-0.05987698584794999,-0.00041434468585066503,484.2444713220476,224.41879748066333)"></image><text fill="#ffffff" font-family="Impact" font-size="18" stroke-opacity="1" stroke-width="0.5" stroke="#000000" x="192.06425396743586" y="201.77202054665298" transform="matrix(1,0,0,1.0000000000000002,194.06256514787788,26.156677800425975)" svgjs:data="{&quot;leading&quot;:&quot;1.3&quot;}"><tspan dy="0" x="192.06425396743586" svgjs:data="{&quot;newLined&quot;:true}">Player</tspan></text><image width="592" height="760" xlink:href="https://lct-designs.s3.us-west-1.amazonaws.com/assets/libs/rebels-4-1658216520594.png" class="asset" transform="matrix(-0.00041434468585066503,0.05987698584794999,-0.05987698584794999,-0.00041434468585066503,432.546159374367,175.15703191030332)"></image><image width="760" height="283" xlink:href="https://lct-designs.s3.us-west-1.amazonaws.com/assets/libs/rebels-2-1658216520593.png" class="asset" transform="matrix(0.22554253041744232,0,0,0.22554253041744235,158.64494659942915,78.41449903730799)"></image><g class="mask" style="pointer-events: none;"><g><path fill="#BCBEC0" d="M-3642.4-2101.7v4589.1h7813.4v-4589.1H-3642.4z M500.5,67.2v233.3v66.7H0.5v-66.7V67.2V0.5h500V67.2z" transform="matrix(1,0,0,1,0,0)"></path><g transform="matrix(1,0,0,1,0,0)">
	<rect x="0.5" y="300.5" opacity="0.95" fill="#F1F2F2" width="500" height="66.7"></rect>
	<rect x="0.5" y="0.5" opacity="0.95" fill="#F1F2F2" width="500" height="66.7"></rect>
</g></g></g></svg>