<svg xmlns="http://www.w3.org/2000/svg" version="1.1" xmlns:xlink="http://www.w3.org/1999/xlink" xmlns:svgjs="http://svgjs.dev/svgjs" width="100%" height="100%" viewBox="1 1 499 365.70001220703125" preserveAspectRatio="none" data-info="{&quot;_id&quot;:4,&quot;name&quot;:&quot;POLE POCKET SOCCER BANNERS&quot;,&quot;information&quot;:&quot;- Size: 3’x5’\n- Material: heavy duty vinyl banner\n- Digitally printed on vinyl&quot;,&quot;price&quot;:&quot;95.00&quot;,&quot;sale_price&quot;:&quot;89.99&quot;,&quot;type&quot;:&quot;pole-pocket&quot;,&quot;cover&quot;:{&quot;key&quot;:&quot;assets/models/pole-1628062864266-1631924568908.png&quot;,&quot;url&quot;:&quot;https://lct-designs.s3.us-west-1.amazonaws.com/assets/models/pole-1628062864266-1631924568908.png&quot;},&quot;back&quot;:{&quot;key&quot;:&quot;assets/models/pole-1631924700152.svg&quot;,&quot;url&quot;:&quot;https://lct-designs.s3.us-west-1.amazonaws.com/assets/models/pole-1631924700152.svg&quot;},&quot;mask&quot;:{&quot;key&quot;:&quot;assets/models/pole-mask-1631925211715.svg&quot;,&quot;url&quot;:&quot;https://lct-designs.s3.us-west-1.amazonaws.com/assets/models/pole-mask-1631925211715.svg&quot;},&quot;pos&quot;:&quot;2&quot;,&quot;accessories&quot;:&quot;2,3&quot;}" style="background-color: white;"><g class="model" style="pointer-events: none;"><polygon fill="#FFFFFF" points="0.5,0.5 0.5,67.2 0.5,300.5 0.5,367.2 500.5,367.2 500.5,300.5 500.5,67.2 500.5,0.5 "></polygon></g><image width="760" height="556" xlink:href="https://lct-designs.s3.us-west-1.amazonaws.com/assets/libs/tornadoes-3-1658300589956.png" class="asset background locked" transform="matrix(0.6595323960558116,0,0,0.6595323960558116,0,0)"></image><text fill="#000000" font-family="Impact" font-size="20" stroke-opacity="1" stroke-width="1" stroke="#ffffff" x="187.31262428161713" y="86.6332744371058" transform="matrix(-0.36995261907577515,-0.7063712477684021,0.7063712477684021,-0.3699526190757752,450.91077041625977,356.3236694335938)" svgjs:data="{&quot;leading&quot;:&quot;1.3&quot;}"><textPath xlink:href="#SvgjsPath1001" svgjs:data="{&quot;leading&quot;:&quot;1.3&quot;}"><tspan dy="0" x="0" svgjs:data="{&quot;newLined&quot;:true}">PLAYER</tspan></textPath></text><g class="" transform="matrix(1,0,0,0.9999999999999999,1.9105033874511719,1.6375732421875142)"><text fill="#0e3f54" font-family="Freshman" font-size="45" x="50.877864861049005" y="201.76359325371294" stroke-opacity="1" stroke-width="1" stroke="#ffffff" transform="matrix(0.22129602730274198,0,0,0.22129602730274198,-2.2299797534942627,34.940975189208984)" svgjs:data="{&quot;leading&quot;:&quot;1.3&quot;}"><tspan dy="0" x="50.877864861049005" svgjs:data="{&quot;newLined&quot;:true}">Coach: Coach's name</tspan></text><text fill="#0e3f54" font-family="Freshman" font-size="44" x="50.877864861049005" y="201.76359325371294" stroke-opacity="1" stroke-width="-1" stroke="#ffffff" transform="matrix(0.22129602730274198,0,0,0.22129602730274198,334.5076599121094,35.48683166503906)" svgjs:data="{&quot;leading&quot;:&quot;1.3&quot;}"><tspan dy="0" x="50.877864861049005" svgjs:data="{&quot;newLined&quot;:true}">Team mom: Team mom's name</tspan></text></g><image width="511" height="760" xlink:href="https://lct-designs.s3.us-west-1.amazonaws.com/assets/libs/tornadoes-1-1658300589955.png" class="asset" transform="matrix(0.20699164271354675,0,0,0.20699164271354673,197.61259460449216,138.26269531249997)"></image><image width="760" height="139" xlink:href="https://lct-designs.s3.us-west-1.amazonaws.com/assets/libs/tornadoes-6-1658300589956.png" class="asset" transform="matrix(0.38681513071060175,0,0,0.38681513071060175,104.05420684814453,78.68125152587888)"></image><g class="mask" style="pointer-events: none;"><g><path fill="#BCBEC0" d="M-3642.4-2101.7v4589.1h7813.4v-4589.1H-3642.4z M500.5,67.2v233.3v66.7H0.5v-66.7V67.2V0.5h500V67.2z" transform="matrix(1,0,0,1,0,0)"></path><g transform="matrix(1,0,0,1,0,0)">
	<rect x="0.5" y="300.5" opacity="0.95" fill="#F1F2F2" width="500" height="66.7"></rect>
	<rect x="0.5" y="0.5" opacity="0.95" fill="#F1F2F2" width="500" height="66.7"></rect>
</g></g></g><g class="" transform="matrix(1,0,0,0.9999999999999999,4.067852973937988,0)"><g class="" transform="matrix(1,0,0,0.9999999999999999,0.5458679199218714,9.006546020507812)"><g class="" transform="matrix(0.7992629408836365,0,0,0.7992629408836364,31.810379028320312,66.3443374633789)"><text fill="#ffffff" font-family="Freshman" font-size="19" stroke-opacity="1" stroke-width="-0.3" stroke="#0e3f54" x="225.7790551634679" y="191.44166110819438" transform="matrix(0.7715483307838439,0,0,0.7715483307838439,217.40596008300778,109.77091217041013)" svgjs:data="{&quot;leading&quot;:&quot;1.3&quot;}"><tspan dy="0" x="225.7790551634679" svgjs:data="{&quot;newLined&quot;:true}">Player</tspan></text><image width="592" height="760" xlink:href="https://lct-designs.s3.us-west-1.amazonaws.com/assets/libs/fusion-1-1657341205045.png" class="asset" transform="matrix(0.0712488666176796,0,0,0.07124886661767958,398.8255920410156,186.29760742187497)"></image></g><g class="" transform="matrix(0.7992629408836365,0,0,0.7992629408836364,122.24710845947266,-2.4329464435577393)"><text fill="#ffffff" font-family="Freshman" font-size="19" stroke-opacity="1" stroke-width="-0.3" stroke="#0e3f54" x="225.7790551634679" y="191.44166110819438" transform="matrix(0.7715483307838439,0,0,0.7715483307838439,217.40596008300778,109.77091217041013)" svgjs:data="{&quot;leading&quot;:&quot;1.3&quot;}"><tspan dy="0" x="225.7790551634679" svgjs:data="{&quot;newLined&quot;:true}">Player</tspan></text><image width="592" height="760" xlink:href="https://lct-designs.s3.us-west-1.amazonaws.com/assets/libs/fusion-1-1657341205045.png" class="asset" transform="matrix(0.0712488666176796,0,0,0.07124886661767958,398.8255920410156,186.29760742187497)"></image></g><g class="" transform="matrix(0.7992629408836365,0,0,0.7992629408836364,4.88900089263916,-2.4329590797424316)"><text fill="#ffffff" font-family="Freshman" font-size="19" stroke-opacity="1" stroke-width="-0.3" stroke="#0e3f54" x="225.7790551634679" y="191.44166110819438" transform="matrix(0.7715483307838439,0,0,0.7715483307838439,217.40596008300778,109.77091217041013)" svgjs:data="{&quot;leading&quot;:&quot;1.3&quot;}"><tspan dy="0" x="225.7790551634679" svgjs:data="{&quot;newLined&quot;:true}">Player</tspan></text><image width="592" height="760" xlink:href="https://lct-designs.s3.us-west-1.amazonaws.com/assets/libs/fusion-1-1657341205045.png" class="asset" transform="matrix(0.0712488666176796,0,0,0.07124886661767958,398.8255920410156,186.29760742187497)"></image></g><g class="" transform="matrix(0.7992629408836365,0,0,0.7992629408836364,64.93266296386717,-2.4329447746276855)"><text fill="#ffffff" font-family="Freshman" font-size="19" stroke-opacity="1" stroke-width="-0.3" stroke="#0e3f54" x="225.7790551634679" y="191.44166110819438" transform="matrix(0.7715483307838439,0,0,0.7715483307838439,217.40596008300778,109.77091217041013)" svgjs:data="{&quot;leading&quot;:&quot;1.3&quot;}"><tspan dy="0" x="225.7790551634679" svgjs:data="{&quot;newLined&quot;:true}">Player</tspan></text><image width="592" height="760" xlink:href="https://lct-designs.s3.us-west-1.amazonaws.com/assets/libs/fusion-1-1657341205045.png" class="asset" transform="matrix(0.0712488666176796,0,0,0.07124886661767958,398.8255920410156,186.29760742187497)"></image></g><g class="" transform="matrix(0.7992629408836365,0,0,0.7992629408836364,89.1248321533203,66.3443374633789)"><text fill="#ffffff" font-family="Freshman" font-size="19" stroke-opacity="1" stroke-width="-0.3" stroke="#0e3f54" x="225.7790551634679" y="191.44166110819438" transform="matrix(0.7715483307838439,0,0,0.7715483307838439,217.40596008300778,109.77091217041013)" svgjs:data="{&quot;leading&quot;:&quot;1.3&quot;}"><tspan dy="0" x="225.7790551634679" svgjs:data="{&quot;newLined&quot;:true}">Player</tspan></text><image width="592" height="760" xlink:href="https://lct-designs.s3.us-west-1.amazonaws.com/assets/libs/fusion-1-1657341205045.png" class="asset" transform="matrix(0.0712488666176796,0,0,0.07124886661767958,398.8255920410156,186.29760742187497)"></image></g></g><g class="" transform="matrix(1,0,0,0.9999999999999999,-304.956298828125,9.006546020507812)"><g class="" transform="matrix(0.7992629408836365,0,0,0.7992629408836364,31.810379028320312,66.3443374633789)"><text fill="#ffffff" font-family="Freshman" font-size="19" stroke-opacity="1" stroke-width="-0.3" stroke="#0e3f54" x="225.7790551634679" y="191.44166110819438" transform="matrix(0.7715483307838439,0,0,0.7715483307838439,217.40596008300778,109.77091217041013)" svgjs:data="{&quot;leading&quot;:&quot;1.3&quot;}"><tspan dy="0" x="225.7790551634679" svgjs:data="{&quot;newLined&quot;:true}">Player</tspan></text><image width="592" height="760" xlink:href="https://lct-designs.s3.us-west-1.amazonaws.com/assets/libs/fusion-1-1657341205045.png" class="asset" transform="matrix(0.0712488666176796,0,0,0.07124886661767958,398.8255920410156,186.29760742187497)"></image></g><g class="" transform="matrix(0.7992629408836365,0,0,0.7992629408836364,122.24710845947266,-2.4329464435577393)"><text fill="#ffffff" font-family="Freshman" font-size="19" stroke-opacity="1" stroke-width="-0.3" stroke="#0e3f54" x="225.7790551634679" y="191.44166110819438" transform="matrix(0.7715483307838439,0,0,0.7715483307838439,217.40596008300778,109.77091217041013)" svgjs:data="{&quot;leading&quot;:&quot;1.3&quot;}"><tspan dy="0" x="225.7790551634679" svgjs:data="{&quot;newLined&quot;:true}">Player</tspan></text><image width="592" height="760" xlink:href="https://lct-designs.s3.us-west-1.amazonaws.com/assets/libs/fusion-1-1657341205045.png" class="asset" transform="matrix(0.0712488666176796,0,0,0.07124886661767958,398.8255920410156,186.29760742187497)"></image></g><g class="" transform="matrix(0.7992629408836365,0,0,0.7992629408836364,4.88900089263916,-2.4329590797424316)"><text fill="#ffffff" font-family="Freshman" font-size="19" stroke-opacity="1" stroke-width="-0.3" stroke="#0e3f54" x="225.7790551634679" y="191.44166110819438" transform="matrix(0.7715483307838439,0,0,0.7715483307838439,217.40596008300778,109.77091217041013)" svgjs:data="{&quot;leading&quot;:&quot;1.3&quot;}"><tspan dy="0" x="225.7790551634679" svgjs:data="{&quot;newLined&quot;:true}">Player</tspan></text><image width="592" height="760" xlink:href="https://lct-designs.s3.us-west-1.amazonaws.com/assets/libs/fusion-1-1657341205045.png" class="asset" transform="matrix(0.0712488666176796,0,0,0.07124886661767958,398.8255920410156,186.29760742187497)"></image></g><g class="" transform="matrix(0.7992629408836365,0,0,0.7992629408836364,64.93266296386717,-2.4329447746276855)"><text fill="#ffffff" font-family="Freshman" font-size="19" stroke-opacity="1" stroke-width="-0.3" stroke="#0e3f54" x="225.7790551634679" y="191.44166110819438" transform="matrix(0.7715483307838439,0,0,0.7715483307838439,217.40596008300778,109.77091217041013)" svgjs:data="{&quot;leading&quot;:&quot;1.3&quot;}"><tspan dy="0" x="225.7790551634679" svgjs:data="{&quot;newLined&quot;:true}">Player</tspan></text><image width="592" height="760" xlink:href="https://lct-designs.s3.us-west-1.amazonaws.com/assets/libs/fusion-1-1657341205045.png" class="asset" transform="matrix(0.0712488666176796,0,0,0.07124886661767958,398.8255920410156,186.29760742187497)"></image></g><g class="" transform="matrix(0.7992629408836365,0,0,0.7992629408836364,89.1248321533203,66.3443374633789)"><text fill="#ffffff" font-family="Freshman" font-size="19" stroke-opacity="1" stroke-width="-0.3" stroke="#0e3f54" x="225.7790551634679" y="191.44166110819438" transform="matrix(0.7715483307838439,0,0,0.7715483307838439,217.40596008300778,109.77091217041013)" svgjs:data="{&quot;leading&quot;:&quot;1.3&quot;}"><tspan dy="0" x="225.7790551634679" svgjs:data="{&quot;newLined&quot;:true}">Player</tspan></text><image width="592" height="760" xlink:href="https://lct-designs.s3.us-west-1.amazonaws.com/assets/libs/fusion-1-1657341205045.png" class="asset" transform="matrix(0.0712488666176796,0,0,0.07124886661767958,398.8255920410156,186.29760742187497)"></image></g></g></g></svg>