<svg xmlns="http://www.w3.org/2000/svg" version="1.1" xmlns:xlink="http://www.w3.org/1999/xlink" xmlns:svgjs="http://svgjs.dev/svgjs" width="100%" height="100%" viewBox="1 1 499 365.70001220703125" preserveAspectRatio="none" data-info="{&quot;_id&quot;:4,&quot;name&quot;:&quot;POLE POCKET SOCCER BANNERS&quot;,&quot;information&quot;:&quot;- Size: 3’x5’\n- Material: heavy duty vinyl banner\n- Digitally printed on vinyl&quot;,&quot;price&quot;:&quot;95.00&quot;,&quot;sale_price&quot;:&quot;89.99&quot;,&quot;type&quot;:&quot;pole-pocket&quot;,&quot;cover&quot;:{&quot;key&quot;:&quot;assets/models/pole-1628062864266-1631924568908.png&quot;,&quot;url&quot;:&quot;https://lct-designs.s3.us-west-1.amazonaws.com/assets/models/pole-1628062864266-1631924568908.png&quot;},&quot;back&quot;:{&quot;key&quot;:&quot;assets/models/pole-1631924700152.svg&quot;,&quot;url&quot;:&quot;https://lct-designs.s3.us-west-1.amazonaws.com/assets/models/pole-1631924700152.svg&quot;},&quot;mask&quot;:{&quot;key&quot;:&quot;assets/models/pole-mask-1631925211715.svg&quot;,&quot;url&quot;:&quot;https://lct-designs.s3.us-west-1.amazonaws.com/assets/models/pole-mask-1631925211715.svg&quot;},&quot;pos&quot;:&quot;2&quot;,&quot;accessories&quot;:&quot;2,3&quot;}" style="background-color: white;"><g class="model" style="pointer-events: none;"><polygon fill="#FFFFFF" points="0.5,0.5 0.5,67.2 0.5,300.5 0.5,367.2 500.5,367.2 500.5,300.5 500.5,67.2 500.5,0.5 "></polygon></g><image width="760" height="556" xlink:href="https://lct-designs.s3.us-west-1.amazonaws.com/assets/libs/polar-bears-5-1658221650485.png" class="asset background locked" transform="matrix(0.6595323960558116,0,0,0.6595323960558116,0,0)"></image><text fill="#ffffff" font-family="Impact" font-size="45" x="50.877864861049005" y="201.76359325371294" stroke-opacity="1" stroke-width="0" stroke="#000000" transform="matrix(0.221296027302742,0,0,0.221296027302742,195.0115203857422,43.75782394409178)" svgjs:data="{&quot;leading&quot;:&quot;1.3&quot;}"><tspan dy="0" x="50.877864861049005" svgjs:data="{&quot;newLined&quot;:true}">COACH: COACH'S NAME</tspan></text><text fill="#0d6ab5" font-family="Impact" font-size="45" x="50.877864861049005" y="201.76359325371294" stroke-opacity="1" stroke-width="0" stroke="#000000" transform="matrix(0.221296027302742,0,0,0.221296027302742,179.93743896484375,242.43408203125)" svgjs:data="{&quot;leading&quot;:&quot;1.3&quot;}"><tspan dy="0" x="50.877864861049005" svgjs:data="{&quot;newLined&quot;:true}">TEAM MOM: TEAM MOM'S NAME</tspan></text><image width="714" height="760" xlink:href="https://lct-designs.s3.us-west-1.amazonaws.com/assets/libs/polar-bears-2-1658221650485.png" class="asset" transform="matrix(0.21407705545425415,0,0,0.21407705545425415,174.0734405517578,102.49966430664064)"></image><image width="760" height="703" xlink:href="https://lct-designs.s3.us-west-1.amazonaws.com/assets/libs/polar-bears-3-1658221650485.png" class="asset" transform="matrix(0.06046645804985129,0,0,0.06046645804985129,34.08074155722352,86.62182688721443)"></image><image width="760" height="703" xlink:href="https://lct-designs.s3.us-west-1.amazonaws.com/assets/libs/polar-bears-3-1658221650485.png" class="asset" transform="matrix(0.060466434433014804,0,0,0.060466434433014804,34.08076977147084,232.07837977723835)"></image><text fill="#0d6ab5" font-family="Impact" font-size="45" stroke-opacity="1" stroke-width="-1" stroke="#ffffff" x="191.96452729598332" y="202.05652900502182" transform="matrix(0.26643535612515024,0,0,0.26643535612515024,-15.852998608955204,228.35400239611045)" svgjs:data="{&quot;leading&quot;:&quot;1.3&quot;}"><tspan dy="0" x="191.96452729598332" svgjs:data="{&quot;newLined&quot;:true}">Player</tspan></text><text fill="#0d6ab5" font-family="Impact" font-size="45" stroke-opacity="1" stroke-width="-1" stroke="#ffffff" x="191.96452729598332" y="202.05652900502182" transform="matrix(0.26643535612515024,0,0,0.26643535612515024,-15.852998608955204,153.37763890808492)" svgjs:data="{&quot;leading&quot;:&quot;1.3&quot;}"><tspan dy="0" x="191.96452729598332" svgjs:data="{&quot;newLined&quot;:true}">Player</tspan></text><text fill="#0d6ab5" font-family="Impact" font-size="45" stroke-opacity="1" stroke-width="-1" stroke="#ffffff" x="191.96452729598332" y="202.05652900502182" transform="matrix(0.26643535612515024,0,0,0.26643535612515024,-15.852998608955204,82.8974333836595)" svgjs:data="{&quot;leading&quot;:&quot;1.3&quot;}"><tspan dy="0" x="191.96452729598332" svgjs:data="{&quot;newLined&quot;:true}">Player</tspan></text><image width="760" height="703" xlink:href="https://lct-designs.s3.us-west-1.amazonaws.com/assets/libs/polar-bears-3-1658221650485.png" class="asset" transform="matrix(0.0604664895389666,0,0,0.060466489538966606,34.08071334297619,157.10201628921277)"></image><image width="760" height="703" xlink:href="https://lct-designs.s3.us-west-1.amazonaws.com/assets/libs/polar-bears-3-1658221650485.png" class="asset" transform="matrix(0.060466434433014804,0,0,0.060466434433014804,107.3951488373259,202.4188213602174)"></image><image width="760" height="703" xlink:href="https://lct-designs.s3.us-west-1.amazonaws.com/assets/libs/polar-bears-3-1658221650485.png" class="asset" transform="matrix(0.0604664895389666,0,0,0.060466489538966606,107.39510047004478,113.95660387578575)"></image><text fill="#0d6ab5" font-family="Impact" font-size="45" stroke-opacity="1" stroke-width="-1" stroke="#ffffff" x="191.96452729598332" y="202.05652900502182" transform="matrix(0.26643535612515024,0,0,0.26643535612515024,57.46138851811338,198.69442785666251)" svgjs:data="{&quot;leading&quot;:&quot;1.3&quot;}"><tspan dy="0" x="191.96452729598332" svgjs:data="{&quot;newLined&quot;:true}">Player</tspan></text><text fill="#0d6ab5" font-family="Impact" font-size="45" stroke-opacity="1" stroke-width="-1" stroke="#ffffff" x="191.96452729598332" y="202.05652900502182" transform="matrix(0.26643535612515024,0,0,0.26643535612515024,57.46140464054042,110.23221843344434)" svgjs:data="{&quot;leading&quot;:&quot;1.3&quot;}"><tspan dy="0" x="191.96452729598332" svgjs:data="{&quot;newLined&quot;:true}">Player</tspan></text><image width="760" height="703" xlink:href="https://lct-designs.s3.us-west-1.amazonaws.com/assets/libs/polar-bears-3-1658221650485.png" class="asset" transform="matrix(-0.059577831700611476,-0.0005483239767793692,-0.0005579489576690646,0.060623628557674,468.0692628039024,229.8160589410183)"></image><image width="760" height="703" xlink:href="https://lct-designs.s3.us-west-1.amazonaws.com/assets/libs/polar-bears-3-1658221650485.png" class="asset" transform="matrix(-0.05957792641357428,-0.0005483248484691727,-0.0005579493571935579,0.060623671967781956,469.4115160531432,83.98131689746923)"></image><image width="760" height="703" xlink:href="https://lct-designs.s3.us-west-1.amazonaws.com/assets/libs/polar-bears-3-1658221650485.png" class="asset" transform="matrix(-0.059577954038188434,-0.0005483251027120321,-0.0005579496477568259,0.06062370353876956,468.76126278487766,154.64475699816467)"></image><text fill="#0d6ab5" font-family="Impact" font-size="45" stroke-opacity="1" stroke-width="-1" stroke="#ffffff" x="191.96452729598332" y="202.05652900502182" transform="matrix(0.2671280930170177,0.002458510726080637,-0.0024585107260806367,0.2671280930170177,312.2352131426367,198.14172217775103)" svgjs:data="{&quot;leading&quot;:&quot;1.3&quot;}"><tspan dy="0" x="191.96452729598332" svgjs:data="{&quot;newLined&quot;:true}">Player</tspan></text><image width="760" height="703" xlink:href="https://lct-designs.s3.us-west-1.amazonaws.com/assets/libs/polar-bears-3-1658221650485.png" class="asset" transform="matrix(-0.059577851432478734,-0.0005483241583814115,-0.0005579491755915155,0.060623652235914705,395.82701496765185,201.10075306013425)"></image><text fill="#0d6ab5" font-family="Impact" font-size="45" stroke-opacity="1" stroke-width="-1" stroke="#ffffff" x="191.96452729598332" y="202.05652900502182" transform="matrix(0.2671280930170177,0.002458510726080637,-0.0024585107260806367,0.2671280930170177,385.8907878400262,80.04118011237436)" svgjs:data="{&quot;leading&quot;:&quot;1.3&quot;}"><tspan dy="0" x="191.96452729598332" svgjs:data="{&quot;newLined&quot;:true}">Player</tspan></text><text fill="#0d6ab5" font-family="Impact" font-size="45" stroke-opacity="1" stroke-width="-1" stroke="#ffffff" x="191.96452729598332" y="202.05652900502182" transform="matrix(0.2671280930170177,0.002458510726080637,-0.0024585107260806367,0.2671280930170177,385.22768486148834,152.09025935845852)" svgjs:data="{&quot;leading&quot;:&quot;1.3&quot;}"><tspan dy="0" x="191.96452729598332" svgjs:data="{&quot;newLined&quot;:true}">Player</tspan></text><text fill="#0d6ab5" font-family="Impact" font-size="45" stroke-opacity="1" stroke-width="-1" stroke="#ffffff" x="191.96452729598332" y="202.05652900502182" transform="matrix(0.2671280930170177,0.002458510726080637,-0.0024585107260806367,0.2671280930170177,384.5542209082088,225.26510445749108)" svgjs:data="{&quot;leading&quot;:&quot;1.3&quot;}"><tspan dy="0" x="191.96452729598332" svgjs:data="{&quot;newLined&quot;:true}">Player</tspan></text><image width="760" height="703" xlink:href="https://lct-designs.s3.us-west-1.amazonaws.com/assets/libs/polar-bears-3-1658221650485.png" class="asset" transform="matrix(-0.059577961930935334,-0.0005483251753528491,-0.0005579496477568259,0.06062370353876956,396.643357590922,112.40853275651803)"></image><text fill="#0d6ab5" font-family="Impact" font-size="45" stroke-opacity="1" stroke-width="-1" stroke="#ffffff" x="191.96452729598332" y="202.05652900502182" transform="matrix(0.2671280930170177,0.002458510726080637,-0.0024585107260806367,0.2671280930170177,313.0330088672,111.45767876116405)" svgjs:data="{&quot;leading&quot;:&quot;1.3&quot;}"><tspan dy="0" x="191.96452729598332" svgjs:data="{&quot;newLined&quot;:true}">Player</tspan></text><g class="mask" style="pointer-events: none;"><g><path fill="#BCBEC0" d="M-3642.4-2101.7v4589.1h7813.4v-4589.1H-3642.4z M500.5,67.2v233.3v66.7H0.5v-66.7V67.2V0.5h500V67.2z" transform="matrix(1,0,0,1,0,0)"></path><g transform="matrix(1,0,0,1,0,0)">
	<rect x="0.5" y="300.5" opacity="0.95" fill="#F1F2F2" width="500" height="66.7"></rect>
	<rect x="0.5" y="0.5" opacity="0.95" fill="#F1F2F2" width="500" height="66.7"></rect>
</g></g></g></svg>