<svg xmlns="http://www.w3.org/2000/svg" version="1.1" xmlns:xlink="http://www.w3.org/1999/xlink" xmlns:svgjs="http://svgjs.dev/svgjs" width="100%" height="100%" viewBox="1 1 499 365.70001220703125" preserveAspectRatio="none" data-info="{&quot;_id&quot;:4,&quot;name&quot;:&quot;POLE POCKET SOCCER BANNERS&quot;,&quot;information&quot;:&quot;- Size: 3’x5’\n- Material: heavy duty vinyl banner\n- Digitally printed on vinyl&quot;,&quot;price&quot;:&quot;95.00&quot;,&quot;sale_price&quot;:&quot;89.99&quot;,&quot;type&quot;:&quot;pole-pocket&quot;,&quot;cover&quot;:{&quot;key&quot;:&quot;assets/models/pole-1628062864266-1631924568908.png&quot;,&quot;url&quot;:&quot;https://lct-designs.s3.us-west-1.amazonaws.com/assets/models/pole-1628062864266-1631924568908.png&quot;},&quot;back&quot;:{&quot;key&quot;:&quot;assets/models/pole-1631924700152.svg&quot;,&quot;url&quot;:&quot;https://lct-designs.s3.us-west-1.amazonaws.com/assets/models/pole-1631924700152.svg&quot;},&quot;mask&quot;:{&quot;key&quot;:&quot;assets/models/pole-mask-1631925211715.svg&quot;,&quot;url&quot;:&quot;https://lct-designs.s3.us-west-1.amazonaws.com/assets/models/pole-mask-1631925211715.svg&quot;},&quot;pos&quot;:&quot;2&quot;,&quot;accessories&quot;:&quot;2,3&quot;}" style="background-color: white;"><g class="model" style="pointer-events: none;"><polygon fill="#FFFFFF" points="0.5,0.5 0.5,67.2 0.5,300.5 0.5,367.2 500.5,367.2 500.5,300.5 500.5,67.2 500.5,0.5 "></polygon></g><image width="760" height="556" xlink:href="https://lct-designs.s3.us-west-1.amazonaws.com/assets/libs/shooters-sharp-4-1658137379778.png" class="asset background locked" transform="matrix(0.6595323960558116,0,0,0.6595323960558116,0,0)"></image><text fill="#000000" font-family="Impact" font-size="45" x="50.877864861049005" y="201.76359325371294" stroke-opacity="1" stroke-width="1" stroke="#ffff00" transform="matrix(0.22129602730274198,0,0,0.22129602730274198,3.0692504102759983,240.04576619563096)" svgjs:data="{&quot;leading&quot;:&quot;1.3&quot;}"><tspan dy="0" x="50.877864861049005" svgjs:data="{&quot;newLined&quot;:true}">COACH: COACH'S NAME</tspan></text><text fill="#000000" font-family="Impact" font-size="45" x="50.877864861049005" y="201.76359325371294" stroke-opacity="1" stroke-width="1" stroke="#ffff00" transform="matrix(0.22129602730274198,0,0,0.22129602730274198,358.41974636543523,240.30524190913775)" svgjs:data="{&quot;leading&quot;:&quot;1.3&quot;}"><tspan dy="0" x="50.877864861049005" svgjs:data="{&quot;newLined&quot;:true}">TEAM MOM: TEAM MOM'S NAME</tspan></text><text fill="#ffffff" font-family="Impact" font-size="45" stroke-opacity="1" stroke-width="1" stroke="#000000" x="191.96452729598332" y="202.05652900502182" transform="matrix(0.34665411710739136,0,0,0.3466541171073913,-46.63936713831929,115.3354211454479)" svgjs:data="{&quot;leading&quot;:&quot;1.3&quot;}"><tspan dy="0" x="191.96452729598332" svgjs:data="{&quot;newLined&quot;:true}">Player</tspan></text><image width="592" height="760" xlink:href="https://lct-designs.s3.us-west-1.amazonaws.com/assets/libs/shooters-sharp-1-1658137379778.png" class="asset" transform="matrix(-0.00874012056738138,-0.05171307921409606,0.05171307921409606,-0.008740120567381382,23.21108295040304,176.4653968061952)"></image><text fill="#ffffff" font-family="Impact" font-size="45" stroke-opacity="1" stroke-width="1" stroke="#000000" x="191.96452729598332" y="202.05652900502182" transform="matrix(0.34665411710739136,0,0,0.3466541171073913,-46.639340435437845,196.42116199962075)" svgjs:data="{&quot;leading&quot;:&quot;1.3&quot;}"><tspan dy="0" x="191.96452729598332" svgjs:data="{&quot;newLined&quot;:true}">Player</tspan></text><image width="592" height="760" xlink:href="https://lct-designs.s3.us-west-1.amazonaws.com/assets/libs/shooters-sharp-1-1658137379778.png" class="asset" transform="matrix(-0.00874012056738138,-0.05171307921409606,0.05171307921409606,-0.008740120567381382,23.21121837215884,257.5511834367362)"></image><text fill="#ffffff" font-family="Impact" font-size="45" stroke-opacity="1" stroke-width="1" stroke="#000000" x="191.96452729598332" y="202.05652900502182" transform="matrix(0.34665411710739136,0,0,0.3466541171073913,44.44488619581611,115.3354211454479)" svgjs:data="{&quot;leading&quot;:&quot;1.3&quot;}"><tspan dy="0" x="191.96452729598332" svgjs:data="{&quot;newLined&quot;:true}">Player</tspan></text><image width="592" height="760" xlink:href="https://lct-designs.s3.us-west-1.amazonaws.com/assets/libs/shooters-sharp-1-1658137379778.png" class="asset" transform="matrix(-0.00874012056738138,-0.05171307921409606,0.05171307921409606,-0.008740120567381382,114.29533628453842,176.4653968061952)"></image><text fill="#ffffff" font-family="Impact" font-size="45" stroke-opacity="1" stroke-width="1" stroke="#000000" x="191.96452729598332" y="202.05652900502182" transform="matrix(0.34665411710739136,0,0,0.3466541171073913,44.44491289869754,196.42116199962075)" svgjs:data="{&quot;leading&quot;:&quot;1.3&quot;}"><tspan dy="0" x="191.96452729598332" svgjs:data="{&quot;newLined&quot;:true}">Player</tspan></text><image width="592" height="760" xlink:href="https://lct-designs.s3.us-west-1.amazonaws.com/assets/libs/shooters-sharp-1-1658137379778.png" class="asset" transform="matrix(-0.00874012056738138,-0.05171307921409606,0.05171307921409606,-0.008740120567381382,114.29547361364291,257.5511834367362)"></image><text fill="#ffffff" font-family="Impact" font-size="45" stroke-opacity="1" stroke-width="1" stroke="#000000" x="191.96452729598332" y="202.05652900502182" transform="matrix(0.34665411710739136,0,0,0.3466541171073913,-1.76441577835962,157.18613004019244)" svgjs:data="{&quot;leading&quot;:&quot;1.3&quot;}"><tspan dy="0" x="191.96452729598332" svgjs:data="{&quot;newLined&quot;:true}">Player</tspan></text><image width="592" height="760" xlink:href="https://lct-designs.s3.us-west-1.amazonaws.com/assets/libs/shooters-sharp-1-1658137379778.png" class="asset" transform="matrix(-0.00874012056738138,-0.05171307921409606,0.05171307921409606,-0.008740120567381382,68.08603812506004,218.31610570093977)"></image><image width="760" height="103" xlink:href="https://lct-designs.s3.us-west-1.amazonaws.com/assets/libs/shooters-sharp-2-1658137379778.png" class="asset" transform="matrix(0.41935926675796503,0,0,0.4193592667579651,98.86265010542638,84.15338313109879)"></image><image width="678" height="760" xlink:href="https://lct-designs.s3.us-west-1.amazonaws.com/assets/libs/shooters-sharp-7-1658137379779.png" class="asset" transform="matrix(0.1969698220491409,0,0,0.19696982204914093,185.03560267629808,132.914065316816)"></image><text fill="#ffffff" font-family="Impact" font-size="45" stroke-opacity="1" stroke-width="1" stroke="#000000" x="191.96452729598332" y="202.05652900502182" transform="matrix(0.34665411710739136,0,0,0.3466541171073913,277.6710950569804,115.3354211454479)" svgjs:data="{&quot;leading&quot;:&quot;1.3&quot;}"><tspan dy="0" x="191.96452729598332" svgjs:data="{&quot;newLined&quot;:true}">Player</tspan></text><image width="592" height="760" xlink:href="https://lct-designs.s3.us-west-1.amazonaws.com/assets/libs/shooters-sharp-1-1658137379778.png" class="asset" transform="matrix(-0.00874012056738138,-0.05171307921409606,0.05171307921409606,-0.008740120567381382,347.5215451457027,176.4653968061952)"></image><text fill="#ffffff" font-family="Impact" font-size="45" stroke-opacity="1" stroke-width="1" stroke="#000000" x="191.96452729598332" y="202.05652900502182" transform="matrix(0.34665411710739136,0,0,0.3466541171073913,277.6711217598619,196.42116199962075)" svgjs:data="{&quot;leading&quot;:&quot;1.3&quot;}"><tspan dy="0" x="191.96452729598332" svgjs:data="{&quot;newLined&quot;:true}">Player</tspan></text><image width="592" height="760" xlink:href="https://lct-designs.s3.us-west-1.amazonaws.com/assets/libs/shooters-sharp-1-1658137379778.png" class="asset" transform="matrix(-0.00874012056738138,-0.05171307921409606,0.05171307921409606,-0.008740120567381382,347.5216824748072,257.5511834367362)"></image><text fill="#ffffff" font-family="Impact" font-size="45" stroke-opacity="1" stroke-width="1" stroke="#000000" x="191.96452729598332" y="202.05652900502182" transform="matrix(0.34665411710739136,0,0,0.3466541171073913,368.7553483911158,115.3354211454479)" svgjs:data="{&quot;leading&quot;:&quot;1.3&quot;}"><tspan dy="0" x="191.96452729598332" svgjs:data="{&quot;newLined&quot;:true}">Player</tspan></text><image width="592" height="760" xlink:href="https://lct-designs.s3.us-west-1.amazonaws.com/assets/libs/shooters-sharp-1-1658137379778.png" class="asset" transform="matrix(-0.00874012056738138,-0.05171307921409606,0.05171307921409606,-0.008740120567381382,438.60579847983814,176.4653968061952)"></image><text fill="#ffffff" font-family="Impact" font-size="45" stroke-opacity="1" stroke-width="1" stroke="#000000" x="191.96452729598332" y="202.05652900502182" transform="matrix(0.34665411710739136,0,0,0.3466541171073913,368.7553750939972,196.42116199962075)" svgjs:data="{&quot;leading&quot;:&quot;1.3&quot;}"><tspan dy="0" x="191.96452729598332" svgjs:data="{&quot;newLined&quot;:true}">Player</tspan></text><image width="592" height="760" xlink:href="https://lct-designs.s3.us-west-1.amazonaws.com/assets/libs/shooters-sharp-1-1658137379778.png" class="asset" transform="matrix(-0.00874012056738138,-0.05171307921409606,0.05171307921409606,-0.008740120567381382,438.60593580894255,257.5511834367362)"></image><text fill="#ffffff" font-family="Impact" font-size="45" stroke-opacity="1" stroke-width="1" stroke="#000000" x="191.96452729598332" y="202.05652900502182" transform="matrix(0.34665411710739136,0,0,0.3466541171073913,322.54604641694004,157.18613004019244)" svgjs:data="{&quot;leading&quot;:&quot;1.3&quot;}"><tspan dy="0" x="191.96452729598332" svgjs:data="{&quot;newLined&quot;:true}">Player</tspan></text><image width="592" height="760" xlink:href="https://lct-designs.s3.us-west-1.amazonaws.com/assets/libs/shooters-sharp-1-1658137379778.png" class="asset" transform="matrix(-0.00874012056738138,-0.05171307921409606,0.05171307921409606,-0.008740120567381382,392.39650032035973,218.31610570093977)"></image><g class="mask" style="pointer-events: none;"><g><path fill="#BCBEC0" d="M-3642.4-2101.7v4589.1h7813.4v-4589.1H-3642.4z M500.5,67.2v233.3v66.7H0.5v-66.7V67.2V0.5h500V67.2z" transform="matrix(1,0,0,1,0,0)"></path><g transform="matrix(1,0,0,1,0,0)">
	<rect x="0.5" y="300.5" opacity="0.95" fill="#F1F2F2" width="500" height="66.7"></rect>
	<rect x="0.5" y="0.5" opacity="0.95" fill="#F1F2F2" width="500" height="66.7"></rect>
</g></g></g></svg>