<svg xmlns="http://www.w3.org/2000/svg" version="1.1" xmlns:xlink="http://www.w3.org/1999/xlink" xmlns:svgjs="http://svgjs.dev/svgjs" width="100%" height="100%" viewBox="1 1 499 299" preserveAspectRatio="none" data-info="{&quot;_id&quot;:1,&quot;name&quot;:&quot;HEM &amp; GROMMETS&quot;,&quot;price&quot;:&quot;95.00&quot;,&quot;sale_price&quot;:&quot;89.99&quot;,&quot;cover&quot;:{&quot;key&quot;:&quot;assets/models/hem-1628062436886-1630830942566.png&quot;,&quot;url&quot;:&quot;https://lct-designs.s3.us-west-1.amazonaws.com/assets/models/hem-1628062436886-1630830942566.png&quot;},&quot;back&quot;:{&quot;key&quot;:&quot;assets/models/hem-1630831057346.svg&quot;,&quot;url&quot;:&quot;https://lct-designs.s3.us-west-1.amazonaws.com/assets/models/hem-1630831057346.svg&quot;},&quot;mask&quot;:{&quot;key&quot;:&quot;assets/models/hem.mask-1630831063496.svg&quot;,&quot;url&quot;:&quot;https://lct-designs.s3.us-west-1.amazonaws.com/assets/models/hem.mask-1630831063496.svg&quot;},&quot;information&quot;:&quot;Size 3'x5'&quot;,&quot;type&quot;:&quot;hem-grommet&quot;,&quot;pos&quot;:&quot;1&quot;,&quot;accessories&quot;:&quot;2,3&quot;,&quot;width&quot;:&quot;60&quot;,&quot;height&quot;:&quot;36&quot;}" style="background-color: white;"><g class="model" style="pointer-events: none;"><rect x="0.5" y="0.5" fill="none" stroke="#000000" stroke-miterlimit="10" width="500" height="300"></rect></g><image width="760" height="455" xlink:href="https://lct-designs.s3.us-west-1.amazonaws.com/assets/libs/dinosauros-1658474696836.png" class="asset background locked" transform="matrix(0.6593406593406593,0,0,0.6593406593406593,0,0)"></image><image width="760" height="695" xlink:href="https://lct-designs.s3.us-west-1.amazonaws.com/assets/libs/dinosauros-4-1658474696836.png" class="asset" transform="matrix(0.27733790874481196,0,0,0.277337908744812,146.11320495605466,15.008499145507812)"></image><g class="" transform="matrix(0.9999999999999999,0,0,0.9999999999999999,68.70611572265624,-119.85958099365233)"><text fill="#ffffff" font-family="Raider Crusader Semi-Straight" font-size="16" x="196.88280571435945" y="167.07812165827357" stroke-opacity="1" stroke-width="0.5" stroke="#ec1e24" transform="matrix(0.9999999999999999,0,0,0.9999999999999999,-172.0193939208984,44.091087341308594)" svgjs:data="{&quot;leading&quot;:&quot;1.3&quot;}"><tspan dy="0" x="196.88280571435945" svgjs:data="{&quot;newLined&quot;:true}">Player</tspan></text><image width="754" height="760" xlink:href="https://lct-designs.s3.us-west-1.amazonaws.com/assets/libs/dinosauros-5-1658474696836.png" class="asset" transform="matrix(0.06691209226846694,0,0,0.06691209226846695,23.363611221313473,143.63090515136716)"></image></g><g class="" transform="matrix(0.9999999999999999,0,0,0.9999999999999999,-3.0090293884277344,-24.573707580566406)"><image width="754" height="760" xlink:href="https://lct-designs.s3.us-west-1.amazonaws.com/assets/libs/dinosauros-5-1658474696836.png" class="asset" transform="matrix(0.06691208481788635,0,0,0.06691208481788634,17.315464019775387,90.9729309082031)"></image><text fill="#ffffff" font-family="Raider Crusader Semi-Straight" font-size="16" x="196.88280571435945" y="167.07812165827357" stroke-opacity="1" stroke-width="0.5" stroke="#ec1e24" transform="matrix(0.9999999999999999,0,0,0.9999999999999999,-178.06755065917966,-8.566886901855469)" svgjs:data="{&quot;leading&quot;:&quot;1.3&quot;}"><tspan dy="0" x="196.88280571435945" svgjs:data="{&quot;newLined&quot;:true}">Player</tspan></text></g><g class="" transform="matrix(0.9999999999999999,0,0,0.9999999999999999,-8.024063110351562,-3.510528564453125)"><image width="754" height="760" xlink:href="https://lct-designs.s3.us-west-1.amazonaws.com/assets/libs/dinosauros-5-1658474696836.png" class="asset" transform="matrix(0.06691208481788635,0,0,0.06691208481788634,88.49901580810545,128.5857696533203)"></image><text fill="#ffffff" font-family="Raider Crusader Semi-Straight" font-size="16" x="196.88280571435945" y="167.07812165827357" stroke-opacity="1" stroke-width="0.5" stroke="#ec1e24" transform="matrix(0.9999999999999999,0,0,0.9999999999999999,-106.88400268554686,29.04595947265625)" svgjs:data="{&quot;leading&quot;:&quot;1.3&quot;}"><tspan dy="0" x="196.88280571435945" svgjs:data="{&quot;newLined&quot;:true}">Player</tspan></text></g><g class="" transform="matrix(0.9999999999999999,0,0,0.9999999999999999,-8.024066925048828,-17.051177978515625)"><image width="754" height="760" xlink:href="https://lct-designs.s3.us-west-1.amazonaws.com/assets/libs/dinosauros-5-1658474696836.png" class="asset" transform="matrix(0.06691208481788635,0,0,0.06691208481788634,22.270328521728512,190.2708435058594)"></image><text fill="#ffffff" font-family="Raider Crusader Semi-Straight" font-size="16" x="196.88280571435945" y="167.07812165827357" stroke-opacity="1" stroke-width="0.5" stroke="#ec1e24" transform="matrix(0.9999999999999999,0,0,0.9999999999999999,-174.61720275878903,90.22952270507815)" svgjs:data="{&quot;leading&quot;:&quot;1.3&quot;}"><tspan dy="0" x="196.88280571435945" svgjs:data="{&quot;newLined&quot;:true}">Player</tspan></text></g><g class="" transform="matrix(0.9999999999999999,0,0,0.9999999999999999,-18.054161071777344,3.5105133056640625)"><image width="754" height="760" xlink:href="https://lct-designs.s3.us-west-1.amazonaws.com/assets/libs/dinosauros-5-1658474696836.png" class="asset" transform="matrix(0.06691208481788635,0,0,0.06691208481788634,113.51406097412107,206.82048034667966)"></image><text fill="#ffffff" font-family="Raider Crusader Semi-Straight" font-size="16" x="196.88280571435945" y="167.07812165827357" stroke-opacity="1" stroke-width="0.5" stroke="#ec1e24" transform="matrix(0.9999999999999999,0,0,0.9999999999999999,-82.37046051025389,107.2806701660156)" svgjs:data="{&quot;leading&quot;:&quot;1.3&quot;}"><tspan dy="0" x="196.88280571435945" svgjs:data="{&quot;newLined&quot;:true}">Player</tspan></text></g><text fill="#ec1e24" font-family="Raider Crusader Semi-Straight" font-size="14" stroke-opacity="1" stroke-width="0.5" stroke="#000000" x="167.64845027836904" y="156.88280986644864" transform="matrix(0.9321391582489013,0,0,0.9321391582489014,35.51420974731445,84.62709045410156)" svgjs:data="{&quot;leading&quot;:&quot;1.3&quot;}"><tspan dy="0" x="167.64845027836904" svgjs:data="{&quot;newLined&quot;:true}">Coach: Coach 's name</tspan></text><text fill="#ec1e24" font-family="Raider Crusader Semi-Straight" font-size="14" x="145.93749321435945" y="156.15624665827357" stroke-opacity="1" stroke-width="0.5" stroke="#000000" transform="matrix(0.9321390986442565,0,0,0.9321390986442565,36.49092864990233,107.09488677978516)" svgjs:data="{&quot;leading&quot;:&quot;1.3&quot;}"><tspan dy="0" x="145.93749321435945" svgjs:data="{&quot;newLined&quot;:true}">Team mom: Team mom's name</tspan></text><g class="" transform="matrix(0.9999999999999999,0,0,0.9999999999999999,270.28082275390625,-108.32495880126953)"><image width="754" height="760" xlink:href="https://lct-designs.s3.us-west-1.amazonaws.com/assets/libs/dinosauros-5-1658474696836.png" class="asset" transform="matrix(0.06691208481788635,0,0,0.06691208481788634,88.49901580810545,128.5857696533203)"></image><text fill="#ffffff" font-family="Raider Crusader Semi-Straight" font-size="16" x="196.88280571435945" y="167.07812165827357" stroke-opacity="1" stroke-width="0.5" stroke="#ec1e24" transform="matrix(0.9999999999999999,0,0,0.9999999999999999,-106.88400268554686,29.04595947265625)" svgjs:data="{&quot;leading&quot;:&quot;1.3&quot;}"><tspan dy="0" x="196.88280571435945" svgjs:data="{&quot;newLined&quot;:true}">Player</tspan></text></g><g class="" transform="matrix(0.9999999999999999,0,0,0.9999999999999999,348.4854736328125,-62.68805694580077)"><image width="754" height="760" xlink:href="https://lct-designs.s3.us-west-1.amazonaws.com/assets/libs/dinosauros-5-1658474696836.png" class="asset" transform="matrix(0.06691208481788635,0,0,0.06691208481788634,88.49901580810545,128.5857696533203)"></image><text fill="#ffffff" font-family="Raider Crusader Semi-Straight" font-size="16" x="196.88280571435945" y="167.07812165827357" stroke-opacity="1" stroke-width="0.5" stroke="#ec1e24" transform="matrix(0.9999999999999999,0,0,0.9999999999999999,-106.88400268554686,29.04595947265625)" svgjs:data="{&quot;leading&quot;:&quot;1.3&quot;}"><tspan dy="0" x="196.88280571435945" svgjs:data="{&quot;newLined&quot;:true}">Player</tspan></text></g><g class="" transform="matrix(0.9999999999999999,0,0,0.9999999999999999,348.45535278320307,54.664024353027344)"><image width="754" height="760" xlink:href="https://lct-designs.s3.us-west-1.amazonaws.com/assets/libs/dinosauros-5-1658474696836.png" class="asset" transform="matrix(0.06691208481788635,0,0,0.06691208481788634,88.49901580810545,128.5857696533203)"></image><text fill="#ffffff" font-family="Raider Crusader Semi-Straight" font-size="16" x="196.88280571435945" y="167.07812165827357" stroke-opacity="1" stroke-width="0.5" stroke="#ec1e24" transform="matrix(0.9999999999999999,0,0,0.9999999999999999,-106.88400268554686,29.04595947265625)" svgjs:data="{&quot;leading&quot;:&quot;1.3&quot;}"><tspan dy="0" x="196.88280571435945" svgjs:data="{&quot;newLined&quot;:true}">Player</tspan></text></g><g class="" transform="matrix(0.9999999999999999,0,0,0.9999999999999999,281.2236328125,-7.522499084472656)"><image width="754" height="760" xlink:href="https://lct-designs.s3.us-west-1.amazonaws.com/assets/libs/dinosauros-5-1658474696836.png" class="asset" transform="matrix(0.06691208481788635,0,0,0.06691208481788634,88.49901580810545,128.5857696533203)"></image><text fill="#ffffff" font-family="Raider Crusader Semi-Straight" font-size="16" x="196.88280571435945" y="167.07812165827357" stroke-opacity="1" stroke-width="0.5" stroke="#ec1e24" transform="matrix(0.9999999999999999,0,0,0.9999999999999999,-106.88400268554686,29.04595947265625)" svgjs:data="{&quot;leading&quot;:&quot;1.3&quot;}"><tspan dy="0" x="196.88280571435945" svgjs:data="{&quot;newLined&quot;:true}">Player</tspan></text></g><g class="mask" style="pointer-events: none;"><path fill="#777777" enable-background="new    " d="M-1684.9-1014.6v2330.1h3870.8v-2330.1H-1684.9z M500.5,300.5H0.5V0.5h500
	V300.5z"></path></g><g class="" transform="matrix(0.9999999999999999,0,0,0.9999999999999999,17.05111694335937,-1.5045166015625)"><image width="754" height="760" xlink:href="https://lct-designs.s3.us-west-1.amazonaws.com/assets/libs/dinosauros-5-1658474696836.png" class="asset" transform="matrix(0.06691208481788635,0,0,0.06691208481788634,340.10382080078125,211.33403015136716)"></image><text fill="#ffffff" font-family="Raider Crusader Semi-Straight" font-size="16" x="196.88280571435945" y="167.07812165827357" stroke-opacity="1" stroke-width="0.5" stroke="#ec1e24" transform="matrix(0.9999999999999999,0,0,0.9999999999999999,142.71478271484372,112.29572296142578)" svgjs:data="{&quot;leading&quot;:&quot;1.3&quot;}"><tspan dy="0" x="196.88280571435945" svgjs:data="{&quot;newLined&quot;:true}">Player</tspan></text></g></svg>