<svg xmlns="http://www.w3.org/2000/svg" version="1.1" xmlns:xlink="http://www.w3.org/1999/xlink" xmlns:svgjs="http://svgjs.dev/svgjs" width="100%" height="100%" viewBox="1 1 499 365.70001220703125" preserveAspectRatio="none" data-info="{&quot;_id&quot;:4,&quot;name&quot;:&quot;POLE POCKET SOCCER BANNERS&quot;,&quot;information&quot;:&quot;- Size: 3’x5’\n- Material: heavy duty vinyl banner\n- Digitally printed on vinyl&quot;,&quot;price&quot;:&quot;95.00&quot;,&quot;sale_price&quot;:&quot;89.99&quot;,&quot;type&quot;:&quot;pole-pocket&quot;,&quot;cover&quot;:{&quot;key&quot;:&quot;assets/models/pole-1628062864266-1631924568908.png&quot;,&quot;url&quot;:&quot;https://lct-designs.s3.us-west-1.amazonaws.com/assets/models/pole-1628062864266-1631924568908.png&quot;},&quot;back&quot;:{&quot;key&quot;:&quot;assets/models/pole-1631924700152.svg&quot;,&quot;url&quot;:&quot;https://lct-designs.s3.us-west-1.amazonaws.com/assets/models/pole-1631924700152.svg&quot;},&quot;mask&quot;:{&quot;key&quot;:&quot;assets/models/pole-mask-1631925211715.svg&quot;,&quot;url&quot;:&quot;https://lct-designs.s3.us-west-1.amazonaws.com/assets/models/pole-mask-1631925211715.svg&quot;},&quot;pos&quot;:&quot;2&quot;,&quot;accessories&quot;:&quot;2,3&quot;}" style="background-color: white;"><g class="model" style="pointer-events: none;"><polygon fill="#FFFFFF" points="0.5,0.5 0.5,67.2 0.5,300.5 0.5,367.2 500.5,367.2 500.5,300.5 500.5,67.2 500.5,0.5 "></polygon></g><image width="760" height="561" xlink:href="https://lct-designs.s3.us-west-1.amazonaws.com/assets/libs/xtreme-pink-3-1658202099514.png" class="asset background locked" transform="matrix(0.6536542107077206,0,0,0.6536542107077206,0,0)"></image><text fill="#000000" font-family="Impact" font-size="45" x="50.877864861049005" y="201.76359325371294" stroke-opacity="1" stroke-width="1" stroke="#ffffff" transform="matrix(0.22129602730274198,0,0,0.22129602730274198,1.339006213908874,62.61619700572102)" svgjs:data="{&quot;leading&quot;:&quot;1.3&quot;}"><tspan dy="0" x="50.877864861049005" svgjs:data="{&quot;newLined&quot;:true}">COACH: COACH'S NAME</tspan></text><text fill="#000000" font-family="Impact" font-size="45" x="50.877864861049005" y="201.76359325371294" stroke-opacity="1" stroke-width="1" stroke="#ffffff" transform="matrix(0.22129602730274198,0,0,0.22129602730274198,1.8234036355210037,74.6461960399668)" svgjs:data="{&quot;leading&quot;:&quot;1.3&quot;}"><tspan dy="0" x="50.877864861049005" svgjs:data="{&quot;newLined&quot;:true}">TEAM MOM: TEAM MOM'S NAME</tspan></text><text fill="#ffffff" font-family="Impact" font-size="18" stroke-opacity="1" stroke-width="0.5" stroke="#000000" x="192.06425396743586" y="201.77202054665298" transform="matrix(1,0,0,0.9999999999999999,-17.246902831329805,0.43594361275447824)" svgjs:data="{&quot;leading&quot;:&quot;1.3&quot;}"><tspan dy="0" x="192.06425396743586" svgjs:data="{&quot;newLined&quot;:true}">Player</tspan></text><image width="760" height="405" xlink:href="https://lct-designs.s3.us-west-1.amazonaws.com/assets/libs/xtreme-pink-1-1658202099513.png" class="asset" transform="matrix(0.07130167633295059,0,0,0.07130167633295059,171.26616268722,156.70527981027533)"></image><text fill="#ffffff" font-family="Impact" font-size="18" stroke-opacity="1" stroke-width="0.5" stroke="#000000" x="192.06425396743586" y="201.77202054665298" transform="matrix(1,0,0,0.9999999999999999,-9.862519473235196,69.31523279222333)" svgjs:data="{&quot;leading&quot;:&quot;1.3&quot;}"><tspan dy="0" x="192.06425396743586" svgjs:data="{&quot;newLined&quot;:true}">Player</tspan></text><image width="760" height="405" xlink:href="https://lct-designs.s3.us-west-1.amazonaws.com/assets/libs/xtreme-pink-1-1658202099513.png" class="asset" transform="matrix(0.07130169123411179,0,0,0.07130169123411177,178.6505469989889,225.58456898974416)"></image><image width="760" height="83" xlink:href="https://lct-designs.s3.us-west-1.amazonaws.com/assets/libs/xtreme-pink-6-1658202099515.png" class="asset" transform="matrix(0.3431649506092071,-0.0007218492100946604,0.0014686622889712453,0.698198139667511,189.89102575283073,90.5826358918641)"></image><text fill="#ffffff" font-family="Impact" font-size="18" stroke-opacity="1" stroke-width="0.5" stroke="#000000" x="192.06425396743586" y="201.77202054665298" transform="matrix(1,0,0,0.9999999999999999,67.47649526546243,2.1797333225617592)" svgjs:data="{&quot;leading&quot;:&quot;1.3&quot;}"><tspan dy="0" x="192.06425396743586" svgjs:data="{&quot;newLined&quot;:true}">Player</tspan></text><image width="760" height="405" xlink:href="https://lct-designs.s3.us-west-1.amazonaws.com/assets/libs/xtreme-pink-1-1658202099513.png" class="asset" transform="matrix(0.07130171358585358,0,0,0.07130171358585356,255.9895073782494,158.4490695200826)"></image><text fill="#ffffff" font-family="Impact" font-size="18" stroke-opacity="1" stroke-width="0.5" stroke="#000000" x="192.06425396743586" y="201.77202054665298" transform="matrix(1,0,0,0.9999999999999999,67.47649526546243,67.57147359999482)" svgjs:data="{&quot;leading&quot;:&quot;1.3&quot;}"><tspan dy="0" x="192.06425396743586" svgjs:data="{&quot;newLined&quot;:true}">Player</tspan></text><image width="760" height="405" xlink:href="https://lct-designs.s3.us-west-1.amazonaws.com/assets/libs/xtreme-pink-1-1658202099513.png" class="asset" transform="matrix(0.07130171358585358,0,0,0.07130171358585356,255.9895073782494,223.84080979751567)"></image><g class="g-selected"></g><image width="486" height="760" xlink:href="https://lct-designs.s3.us-west-1.amazonaws.com/assets/libs/xtreme-pink-7-1658202099516.png" class="asset" transform="matrix(0.21016274392604825,0,0,0.21016274392604828,32.75313256058439,128.11867031772738)"></image><text fill="#ffffff" font-family="Impact" font-size="18" stroke-opacity="1" stroke-width="0.5" stroke="#000000" x="192.06425396743586" y="201.77202054665298" transform="matrix(1,0,0,0.9999999999999999,151.35452591269842,1.3078308382634205)" svgjs:data="{&quot;leading&quot;:&quot;1.3&quot;}"><tspan dy="0" x="192.06425396743586" svgjs:data="{&quot;newLined&quot;:true}">Player</tspan></text><image width="760" height="405" xlink:href="https://lct-designs.s3.us-west-1.amazonaws.com/assets/libs/xtreme-pink-1-1658202099513.png" class="asset" transform="matrix(0.07130171358585358,0,0,0.07130171358585356,339.8675609136695,157.57716703578427)"></image><text fill="#ffffff" font-family="Impact" font-size="18" stroke-opacity="1" stroke-width="0.5" stroke="#000000" x="192.06425396743586" y="201.77202054665298" transform="matrix(1,0,0,0.9999999999999999,151.35454117148782,68.44334556671438)" svgjs:data="{&quot;leading&quot;:&quot;1.3&quot;}"><tspan dy="0" x="192.06425396743586" svgjs:data="{&quot;newLined&quot;:true}">Player</tspan></text><image width="760" height="405" xlink:href="https://lct-designs.s3.us-west-1.amazonaws.com/assets/libs/xtreme-pink-1-1658202099513.png" class="asset" transform="matrix(0.07130171358585358,0,0,0.07130171358585356,339.8675609136695,224.7126817642352)"></image><text fill="#ffffff" font-family="Impact" font-size="18" stroke-opacity="1" stroke-width="0.5" stroke="#000000" x="192.06425396743586" y="201.77202054665298" transform="matrix(1,0,0,0.9999999999999999,232.8481494659452,0.8718872255089494)" svgjs:data="{&quot;leading&quot;:&quot;1.3&quot;}"><tspan dy="0" x="192.06425396743586" svgjs:data="{&quot;newLined&quot;:true}">Player</tspan></text><image width="760" height="405" xlink:href="https://lct-designs.s3.us-west-1.amazonaws.com/assets/libs/xtreme-pink-1-1658202099513.png" class="asset" transform="matrix(0.07130171358585358,0,0,0.07130171358585356,421.36118446691614,157.14122342302977)"></image><text fill="#ffffff" font-family="Impact" font-size="18" stroke-opacity="1" stroke-width="0.5" stroke="#000000" x="192.06425396743586" y="201.77202054665298" transform="matrix(1,0,0,0.9999999999999999,232.84816472473454,68.00740195395994)" svgjs:data="{&quot;leading&quot;:&quot;1.3&quot;}"><tspan dy="0" x="192.06425396743586" svgjs:data="{&quot;newLined&quot;:true}">Player</tspan></text><image width="760" height="405" xlink:href="https://lct-designs.s3.us-west-1.amazonaws.com/assets/libs/xtreme-pink-1-1658202099513.png" class="asset" transform="matrix(0.07130171358585358,0,0,0.07130171358585356,421.36118446691614,224.2767381514807)"></image><g class="mask" style="pointer-events: none;"><g><path fill="#BCBEC0" d="M-3642.4-2101.7v4589.1h7813.4v-4589.1H-3642.4z M500.5,67.2v233.3v66.7H0.5v-66.7V67.2V0.5h500V67.2z" transform="matrix(1,0,0,1,0,0)"></path><g transform="matrix(1,0,0,1,0,0)">
	<rect x="0.5" y="300.5" opacity="0.95" fill="#F1F2F2" width="500" height="66.7"></rect>
	<rect x="0.5" y="0.5" opacity="0.95" fill="#F1F2F2" width="500" height="66.7"></rect>
</g></g></g></svg>