<svg xmlns="http://www.w3.org/2000/svg" version="1.1" xmlns:xlink="http://www.w3.org/1999/xlink" xmlns:svgjs="http://svgjs.dev/svgjs" width="100%" height="100%" viewBox="1 1 499 365.70001220703125" preserveAspectRatio="none" data-info="{&quot;_id&quot;:4,&quot;name&quot;:&quot;POLE POCKET SOCCER BANNERS&quot;,&quot;information&quot;:&quot;- Size: 3’x5’\n- Material: heavy duty vinyl banner\n- Digitally printed on vinyl&quot;,&quot;price&quot;:&quot;95.00&quot;,&quot;sale_price&quot;:&quot;89.99&quot;,&quot;type&quot;:&quot;pole-pocket&quot;,&quot;cover&quot;:{&quot;key&quot;:&quot;assets/models/pole-1628062864266-1631924568908.png&quot;,&quot;url&quot;:&quot;https://lct-designs.s3.us-west-1.amazonaws.com/assets/models/pole-1628062864266-1631924568908.png&quot;},&quot;back&quot;:{&quot;key&quot;:&quot;assets/models/pole-1631924700152.svg&quot;,&quot;url&quot;:&quot;https://lct-designs.s3.us-west-1.amazonaws.com/assets/models/pole-1631924700152.svg&quot;},&quot;mask&quot;:{&quot;key&quot;:&quot;assets/models/pole-mask-1631925211715.svg&quot;,&quot;url&quot;:&quot;https://lct-designs.s3.us-west-1.amazonaws.com/assets/models/pole-mask-1631925211715.svg&quot;},&quot;pos&quot;:&quot;2&quot;,&quot;accessories&quot;:&quot;2,3&quot;}" style="background-color: white;"><g class="model" style="pointer-events: none;"><polygon fill="#FFFFFF" points="0.5,0.5 0.5,67.2 0.5,300.5 0.5,367.2 500.5,367.2 500.5,300.5 500.5,67.2 500.5,0.5 "></polygon></g><image width="760" height="556" xlink:href="https://lct-designs.s3.us-west-1.amazonaws.com/assets/libs/bears-2-1658390999035.png" class="asset background locked" transform="matrix(0.6595323960558116,0,0,0.6595323960558116,0,0)"></image><image width="760" height="483" xlink:href="https://lct-designs.s3.us-west-1.amazonaws.com/assets/libs/bears-5-1658389165464.png" class="asset" transform="matrix(0.3110452890396118,0,0,0.31104528903961176,14.548565864562988,84.32784271240236)"></image><g class="" transform="matrix(0.9999999999999999,0,0,0.9999999999999999,51.48507690429687,-9.981792449951172)"><text fill="#e52629" font-family="Cheeseburger" font-size="45" stroke-opacity="1" stroke-width="-1" stroke="#ffffff" x="191.96452729598332" y="202.05652900502182" transform="matrix(-0.3679389059543609,-0.03147672116756439,0.031476721167564385,-0.3679389059543609,455.50784301757807,180.84603881835932)" svgjs:data="{&quot;leading&quot;:&quot;1.3&quot;}"><textPath xlink:href="#SvgjsPath1003" svgjs:data="{&quot;leading&quot;:&quot;1.3&quot;}"><tspan dy="0" x="0" svgjs:data="{&quot;newLined&quot;:true}">Player</tspan></textPath></text><image width="760" height="726" xlink:href="https://lct-designs.s3.us-west-1.amazonaws.com/assets/libs/bears-1-1658389165462.png" class="asset" transform="matrix(0.06519805639982222,0,0,0.06519805639982222,368.1510620117187,91.9821319580078)"></image></g><g class="" transform="matrix(0.9999999999999999,0,0,0.9999999999999999,-28.351150512695305,-11.295184135437005)"><text fill="#e52629" font-family="Cheeseburger" font-size="45" stroke-opacity="1" stroke-width="-1" stroke="#ffffff" x="191.96452729598332" y="202.05652900502182" transform="matrix(-0.3679389059543609,-0.03147672116756439,0.031476721167564385,-0.3679389059543609,387.7184143066406,182.42211914062494)" svgjs:data="{&quot;leading&quot;:&quot;1.3&quot;}"><textPath xlink:href="#SvgjsPath1003" svgjs:data="{&quot;leading&quot;:&quot;1.3&quot;}"><tspan dy="0" x="0" svgjs:data="{&quot;newLined&quot;:true}">Player</tspan></textPath></text><image width="760" height="726" xlink:href="https://lct-designs.s3.us-west-1.amazonaws.com/assets/libs/bears-1-1658389165462.png" class="asset" transform="matrix(0.06519804894924162,0,0,0.06519804894924162,299.3109436035156,93.03285217285155)"></image></g><g class="" transform="matrix(0.9999999999999999,0,0,0.9999999999999999,-100.83239746093749,-11.29519271850586)"><text fill="#e52629" font-family="Cheeseburger" font-size="45" stroke-opacity="1" stroke-width="-1" stroke="#ffffff" x="191.96452729598332" y="202.05652900502182" transform="matrix(-0.3679389059543609,-0.03147672116756439,0.031476721167564385,-0.3679389059543609,387.7184143066406,182.42211914062494)" svgjs:data="{&quot;leading&quot;:&quot;1.3&quot;}"><textPath xlink:href="#SvgjsPath1003" svgjs:data="{&quot;leading&quot;:&quot;1.3&quot;}"><tspan dy="0" x="0" svgjs:data="{&quot;newLined&quot;:true}">Player</tspan></textPath></text><image width="760" height="726" xlink:href="https://lct-designs.s3.us-west-1.amazonaws.com/assets/libs/bears-1-1658389165462.png" class="asset" transform="matrix(0.06519804894924162,0,0,0.06519804894924162,299.3109436035156,93.03285217285155)"></image></g><g class="" transform="matrix(0.9999999999999999,0,0,0.9999999999999999,46.23150634765624,-11.295188903808587)"><text fill="#e52629" font-family="Cheeseburger" font-size="45" stroke-opacity="1" stroke-width="-1" stroke="#ffffff" x="191.96452729598332" y="202.05652900502182" transform="matrix(-0.3679389059543609,-0.03147672116756439,0.031476721167564385,-0.3679389059543609,387.7184143066406,182.42211914062494)" svgjs:data="{&quot;leading&quot;:&quot;1.3&quot;}"><textPath xlink:href="#SvgjsPath1003" svgjs:data="{&quot;leading&quot;:&quot;1.3&quot;}"><tspan dy="0" x="0" svgjs:data="{&quot;newLined&quot;:true}">Player</tspan></textPath></text><image width="760" height="726" xlink:href="https://lct-designs.s3.us-west-1.amazonaws.com/assets/libs/bears-1-1658389165462.png" class="asset" transform="matrix(0.06519804894924162,0,0,0.06519804894924162,299.3109436035156,93.03285217285155)"></image></g><g class="" transform="matrix(0.9999999999999999,0,0,0.9999999999999999,0,0)"></g><text fill="#000000" font-family="Impact" font-size="45" x="50.877864861049005" y="201.76359325371294" stroke-opacity="1" stroke-width="1" stroke="#ffffff" transform="matrix(0.25609037280082697,0,0,0.25609037280082697,10.638773918151855,215.2808227539062)" svgjs:data="{&quot;leading&quot;:&quot;1.3&quot;}"><tspan dy="0" x="50.877864861049005" svgjs:data="{&quot;newLined&quot;:true}">COACH: COACH'S NAME</tspan></text><text fill="#000000" font-family="Impact" font-size="45" x="50.877864861049005" y="201.76359325371294" stroke-opacity="1" stroke-width="-1" stroke="#ffffff" transform="matrix(0.25609037280082697,0,0,0.25609037280082697,11.246736526489258,232.21983337402338)" svgjs:data="{&quot;leading&quot;:&quot;1.3&quot;}"><tspan dy="0" x="50.877864861049005" svgjs:data="{&quot;newLined&quot;:true}">TEAM MOM: TEAM MOM'S NAME</tspan></text><defs><path d="M150.5,75.5c-1.7,98.6-148.3,98.6-150,0C2.2-23.1,148.8-23.1,150.5,75.5z" id="SvgjsPath1003"></path></defs><g class="" transform="matrix(0.9999999999999999,0,0,0.9999999999999999,21.032470703124993,139.74526977539062)"><text fill="#e52629" font-family="Cheeseburger" font-size="45" stroke-opacity="1" stroke-width="-1" stroke="#ffffff" x="191.96452729598332" y="202.05652900502182" transform="matrix(-0.3679389059543609,-0.03147672116756439,0.031476721167564385,-0.3679389059543609,455.50784301757807,180.84603881835932)" svgjs:data="{&quot;leading&quot;:&quot;1.3&quot;}"><textPath xlink:href="#SvgjsPath1003" svgjs:data="{&quot;leading&quot;:&quot;1.3&quot;}"><tspan dy="0" x="0" svgjs:data="{&quot;newLined&quot;:true}">Player</tspan></textPath></text><image width="760" height="726" xlink:href="https://lct-designs.s3.us-west-1.amazonaws.com/assets/libs/bears-1-1658389165462.png" class="asset" transform="matrix(0.06519805639982222,0,0,0.06519805639982222,368.1510620117187,91.9821319580078)"></image></g><g class="" transform="matrix(0.9999999999999999,0,0,0.9999999999999999,15.778900146484375,138.43186950683588)"><text fill="#e52629" font-family="Cheeseburger" font-size="45" stroke-opacity="1" stroke-width="-1" stroke="#ffffff" x="191.96452729598332" y="202.05652900502182" transform="matrix(-0.3679389059543609,-0.03147672116756439,0.031476721167564385,-0.3679389059543609,387.7184143066406,182.42211914062494)" svgjs:data="{&quot;leading&quot;:&quot;1.3&quot;}"><textPath xlink:href="#SvgjsPath1003" svgjs:data="{&quot;leading&quot;:&quot;1.3&quot;}"><tspan dy="0" x="0" svgjs:data="{&quot;newLined&quot;:true}">Player</tspan></textPath></text><image width="760" height="726" xlink:href="https://lct-designs.s3.us-west-1.amazonaws.com/assets/libs/bears-1-1658389165462.png" class="asset" transform="matrix(0.06519804894924162,0,0,0.06519804894924162,299.3109436035156,93.03285217285155)"></image></g><g class="" transform="matrix(0.9999999999999999,0,0,0.9999999999999999,-58.80375671386717,138.43188476562494)"><text fill="#e52629" font-family="Cheeseburger" font-size="45" stroke-opacity="1" stroke-width="-1" stroke="#ffffff" x="191.96452729598332" y="202.05652900502182" transform="matrix(-0.3679389059543609,-0.03147672116756439,0.031476721167564385,-0.3679389059543609,387.7184143066406,182.42211914062494)" svgjs:data="{&quot;leading&quot;:&quot;1.3&quot;}"><textPath xlink:href="#SvgjsPath1003" svgjs:data="{&quot;leading&quot;:&quot;1.3&quot;}"><tspan dy="0" x="0" svgjs:data="{&quot;newLined&quot;:true}">Player</tspan></textPath></text><image width="760" height="726" xlink:href="https://lct-designs.s3.us-west-1.amazonaws.com/assets/libs/bears-1-1658389165462.png" class="asset" transform="matrix(0.06519804894924162,0,0,0.06519804894924162,299.3109436035156,93.03285217285155)"></image></g><g class="" transform="matrix(0.9999999999999999,0,0,0.9999999999999999,-131.28500366210935,138.43186950683588)"><text fill="#e52629" font-family="Cheeseburger" font-size="45" stroke-opacity="1" stroke-width="-1" stroke="#ffffff" x="191.96452729598332" y="202.05652900502182" transform="matrix(-0.3679389059543609,-0.03147672116756439,0.031476721167564385,-0.3679389059543609,387.7184143066406,182.42211914062494)" svgjs:data="{&quot;leading&quot;:&quot;1.3&quot;}"><textPath xlink:href="#SvgjsPath1003" svgjs:data="{&quot;leading&quot;:&quot;1.3&quot;}"><tspan dy="0" x="0" svgjs:data="{&quot;newLined&quot;:true}">Player</tspan></textPath></text><image width="760" height="726" xlink:href="https://lct-designs.s3.us-west-1.amazonaws.com/assets/libs/bears-1-1658389165462.png" class="asset" transform="matrix(0.06519804894924162,0,0,0.06519804894924162,299.3109436035156,93.03285217285155)"></image></g><g class="" transform="matrix(0.9999999999999999,0,0,0.9999999999999999,-34.637222290039055,65.40709686279295)"><text fill="#e52629" font-family="Cheeseburger" font-size="45" stroke-opacity="1" stroke-width="-1" stroke="#ffffff" x="191.96452729598332" y="202.05652900502182" transform="matrix(-0.3679389059543609,-0.03147672116756439,0.031476721167564385,-0.3679389059543609,387.7184143066406,182.42211914062494)" svgjs:data="{&quot;leading&quot;:&quot;1.3&quot;}"><textPath xlink:href="#SvgjsPath1003" svgjs:data="{&quot;leading&quot;:&quot;1.3&quot;}"><tspan dy="0" x="0" svgjs:data="{&quot;newLined&quot;:true}">Player</tspan></textPath></text><image width="760" height="726" xlink:href="https://lct-designs.s3.us-west-1.amazonaws.com/assets/libs/bears-1-1658389165462.png" class="asset" transform="matrix(0.06519804894924162,0,0,0.06519804894924162,299.3109436035156,93.03285217285155)"></image></g><g class="" transform="matrix(0.9999999999999999,0,0,0.9999999999999999,39.94543457031249,65.40708923339842)"><text fill="#e52629" font-family="Cheeseburger" font-size="45" stroke-opacity="1" stroke-width="-1" stroke="#ffffff" x="191.96452729598332" y="202.05652900502182" transform="matrix(-0.3679389059543609,-0.03147672116756439,0.031476721167564385,-0.3679389059543609,387.7184143066406,182.42211914062494)" svgjs:data="{&quot;leading&quot;:&quot;1.3&quot;}"><textPath xlink:href="#SvgjsPath1003" svgjs:data="{&quot;leading&quot;:&quot;1.3&quot;}"><tspan dy="0" x="0" svgjs:data="{&quot;newLined&quot;:true}">Player</tspan></textPath></text><image width="760" height="726" xlink:href="https://lct-designs.s3.us-west-1.amazonaws.com/assets/libs/bears-1-1658389165462.png" class="asset" transform="matrix(0.06519804894924162,0,0,0.06519804894924162,299.3109436035156,93.03285217285155)"></image></g><g class="" transform="matrix(0.9999999999999999,0,0,0.9999999999999999,45.19900512695313,66.72048187255858)"><text fill="#e52629" font-family="Cheeseburger" font-size="45" stroke-opacity="1" stroke-width="-1" stroke="#ffffff" x="191.96452729598332" y="202.05652900502182" transform="matrix(-0.3679389059543609,-0.03147672116756439,0.031476721167564385,-0.3679389059543609,455.50784301757807,180.84603881835932)" svgjs:data="{&quot;leading&quot;:&quot;1.3&quot;}"><textPath xlink:href="#SvgjsPath1003" svgjs:data="{&quot;leading&quot;:&quot;1.3&quot;}"><tspan dy="0" x="0" svgjs:data="{&quot;newLined&quot;:true}">Player</tspan></textPath></text><image width="760" height="726" xlink:href="https://lct-designs.s3.us-west-1.amazonaws.com/assets/libs/bears-1-1658389165462.png" class="asset" transform="matrix(0.06519805639982222,0,0,0.06519805639982222,368.1510620117187,91.9821319580078)"></image></g><g class="mask" style="pointer-events: none;"><g><path fill="#BCBEC0" d="M-3642.4-2101.7v4589.1h7813.4v-4589.1H-3642.4z M500.5,67.2v233.3v66.7H0.5v-66.7V67.2V0.5h500V67.2z" transform="matrix(1,0,0,1,0,0)"></path><g transform="matrix(1,0,0,1,0,0)">
	<rect x="0.5" y="300.5" opacity="0.95" fill="#F1F2F2" width="500" height="66.7"></rect>
	<rect x="0.5" y="0.5" opacity="0.95" fill="#F1F2F2" width="500" height="66.7"></rect>
</g></g></g></svg>