<svg xmlns="http://www.w3.org/2000/svg" version="1.1" xmlns:xlink="http://www.w3.org/1999/xlink" xmlns:svgjs="http://svgjs.dev/svgjs" width="100%" height="100%" viewBox="1 1 499 365.70001220703125" preserveAspectRatio="none" data-info="{&quot;_id&quot;:4,&quot;name&quot;:&quot;POLE POCKET SOCCER BANNERS&quot;,&quot;information&quot;:&quot;- Size: 3’x5’\n- Material: heavy duty vinyl banner\n- Digitally printed on vinyl&quot;,&quot;price&quot;:&quot;95.00&quot;,&quot;sale_price&quot;:&quot;89.99&quot;,&quot;type&quot;:&quot;pole-pocket&quot;,&quot;cover&quot;:{&quot;key&quot;:&quot;assets/models/pole-1628062864266-1631924568908.png&quot;,&quot;url&quot;:&quot;https://lct-designs.s3.us-west-1.amazonaws.com/assets/models/pole-1628062864266-1631924568908.png&quot;},&quot;back&quot;:{&quot;key&quot;:&quot;assets/models/pole-1631924700152.svg&quot;,&quot;url&quot;:&quot;https://lct-designs.s3.us-west-1.amazonaws.com/assets/models/pole-1631924700152.svg&quot;},&quot;mask&quot;:{&quot;key&quot;:&quot;assets/models/pole-mask-1631925211715.svg&quot;,&quot;url&quot;:&quot;https://lct-designs.s3.us-west-1.amazonaws.com/assets/models/pole-mask-1631925211715.svg&quot;},&quot;pos&quot;:&quot;2&quot;,&quot;accessories&quot;:&quot;2,3&quot;}" style="background-color: white;"><g class="model" style="pointer-events: none;"><polygon fill="#FFFFFF" points="0.5,0.5 0.5,67.2 0.5,300.5 0.5,367.2 500.5,367.2 500.5,300.5 500.5,67.2 500.5,0.5 "></polygon></g><image width="760" height="556" xlink:href="https://lct-designs.s3.us-west-1.amazonaws.com/assets/libs/team-awesome-1-1658471739676.png" class="asset background locked" transform="matrix(0.6595323960558116,0,0,0.6595323960558116,0,0)"></image><image width="760" height="119" xlink:href="https://lct-designs.s3.us-west-1.amazonaws.com/assets/libs/team-awesome-4-1658471541448.png" class="asset" transform="matrix(0.37733641266822815,0,0,0.3773364126682281,107.11023712158203,88.37943267822267)"></image><image width="653" height="760" xlink:href="https://lct-designs.s3.us-west-1.amazonaws.com/assets/libs/team-awesome-6-1658471541448.png" class="asset" transform="matrix(0.2064715176820755,0,0,0.20647151768207547,183.08602905273438,134.35742187499997)"></image><text fill="#ffce00" font-family="Kimberley Bl" font-size="45" x="50.877864861049005" y="201.76359325371294" stroke-opacity="1" stroke-width="1" stroke="#000000" transform="matrix(0.22129602730274198,0,0,0.221296027302742,1.3678221702575684,40.322505712509155)" svgjs:data="{&quot;leading&quot;:&quot;1.3&quot;}"><tspan dy="0" x="50.877864861049005" svgjs:data="{&quot;newLined&quot;:true}">COACH: COACH'S NAME</tspan></text><text fill="#ffce00" font-family="Kimberley Bl" font-size="45" x="50.877864861049005" y="201.76359325371294" stroke-opacity="1" stroke-width="1" stroke="#000000" transform="matrix(0.22129602730274198,0,0,0.221296027302742,331.72662353515625,40.32251334190369)" svgjs:data="{&quot;leading&quot;:&quot;1.3&quot;}"><tspan dy="0" x="50.877864861049005" svgjs:data="{&quot;newLined&quot;:true}">MOM TEAM: MOM TEAM'S NAME</tspan></text><g class="" transform="matrix(1,0,0,1,418.8010559082031,-0.318879693746581)"><g class="" transform="matrix(0.930133044719696,0,0,0.930133044719696,4.929667472839359,19.7449378967285)"><image width="760" height="760" xlink:href="https://lct-designs.s3.us-west-1.amazonaws.com/assets/libs/team-awesome-5-1658471541448.png" class="asset" transform="matrix(0.04740765318274498,0,0,0.04740765318274497,21.68048095703125,173.14300537109375)"></image><text fill="#ffffff" font-family="Kimberley Bl" font-size="45" stroke-opacity="1" stroke-width="1" stroke="#000000" x="191.96452729598332" y="202.05652900502182" transform="matrix(0.3473398387432098,0,0,0.3473398387432098,-50.636177062988274,154.88438415527344)" svgjs:data="{&quot;leading&quot;:&quot;1.3&quot;}"><tspan dy="0" x="191.96452729598332" svgjs:data="{&quot;newLined&quot;:true}">Player</tspan></text></g><g class="" transform="matrix(0.930133044719696,0,0,0.930133044719696,10.24860858917236,-9.771559715270996)"><text fill="#ffffff" font-family="Kimberley Bl" font-size="45" stroke-opacity="1" stroke-width="1" stroke="#000000" x="191.96452729598332" y="202.05652900502182" transform="matrix(0.3473398387432098,0,0,0.3473398387432098,-56.60650634765625,122.64701843261719)" svgjs:data="{&quot;leading&quot;:&quot;1.3&quot;}"><tspan dy="0" x="191.96452729598332" svgjs:data="{&quot;newLined&quot;:true}">Player</tspan></text><image width="760" height="760" xlink:href="https://lct-designs.s3.us-west-1.amazonaws.com/assets/libs/team-awesome-5-1658471541448.png" class="asset" transform="matrix(0.04740765318274498,0,0,0.04740765318274497,15.961999893188477,140.9056396484375)"></image></g><g class="" transform="matrix(1,0,0,1,0,0)"><image width="760" height="760" xlink:href="https://lct-designs.s3.us-west-1.amazonaws.com/assets/libs/team-awesome-5-1658471541448.png" class="asset" transform="matrix(0.04409540072083473,0,0,0.04409540072083473,25.09537887573242,239.82388305664062)"></image><text fill="#ffffff" font-family="Kimberley Bl" font-size="45" stroke-opacity="1" stroke-width="1" stroke="#000000" x="191.96452729598332" y="202.05652900502182" transform="matrix(0.3230720758438111,0,0,0.32307207584381104,-42.40294647216797,222.84095764160156)" svgjs:data="{&quot;leading&quot;:&quot;1.3&quot;}"><tspan dy="0" x="191.96452729598332" svgjs:data="{&quot;newLined&quot;:true}">Player</tspan></text></g></g><g class="" transform="matrix(1,0,0,1,309.74493408203125,3.6901867389678813)"><g class="" transform="matrix(0.930132567882538,0,0,0.9301325678825377,59.313941955566406,45.25238800048827)"><image width="760" height="760" xlink:href="https://lct-designs.s3.us-west-1.amazonaws.com/assets/libs/team-awesome-5-1658471541448.png" class="asset" transform="matrix(0.04740765318274498,0,0,0.04740765318274497,21.68048095703125,173.14300537109375)"></image><text fill="#ffffff" font-family="Kimberley Bl" font-size="45" stroke-opacity="1" stroke-width="1" stroke="#000000" x="191.96452729598332" y="202.05652900502182" transform="matrix(0.3473398387432098,0,0,0.3473398387432098,-50.636177062988274,154.88438415527344)" svgjs:data="{&quot;leading&quot;:&quot;1.3&quot;}"><tspan dy="0" x="191.96452729598332" svgjs:data="{&quot;newLined&quot;:true}">Player</tspan></text></g><g class="" transform="matrix(0.9301326274871826,0,0,0.9301326274871825,64.6328811645508,15.735892295837388)"><text fill="#ffffff" font-family="Kimberley Bl" font-size="45" stroke-opacity="1" stroke-width="1" stroke="#000000" x="191.96452729598332" y="202.05652900502182" transform="matrix(0.3473398387432098,0,0,0.3473398387432098,-56.60650634765625,122.64701843261719)" svgjs:data="{&quot;leading&quot;:&quot;1.3&quot;}"><tspan dy="0" x="191.96452729598332" svgjs:data="{&quot;newLined&quot;:true}">Player</tspan></text><image width="760" height="760" xlink:href="https://lct-designs.s3.us-west-1.amazonaws.com/assets/libs/team-awesome-5-1658471541448.png" class="asset" transform="matrix(0.04740765318274498,0,0,0.04740765318274497,15.961999893188477,140.9056396484375)"></image></g></g><g class="" transform="matrix(1,0,0,1,-1.275482177734375,3.690184116363511)"><g class="" transform="matrix(0.930132567882538,0,0,0.9301325678825377,59.313941955566406,45.25238800048827)"><image width="760" height="760" xlink:href="https://lct-designs.s3.us-west-1.amazonaws.com/assets/libs/team-awesome-5-1658471541448.png" class="asset" transform="matrix(0.04740765318274498,0,0,0.04740765318274497,21.68048095703125,173.14300537109375)"></image><text fill="#ffffff" font-family="Kimberley Bl" font-size="45" stroke-opacity="1" stroke-width="1" stroke="#000000" x="191.96452729598332" y="202.05652900502182" transform="matrix(0.3473398387432098,0,0,0.3473398387432098,-50.636177062988274,154.88438415527344)" svgjs:data="{&quot;leading&quot;:&quot;1.3&quot;}"><tspan dy="0" x="191.96452729598332" svgjs:data="{&quot;newLined&quot;:true}">Player</tspan></text></g><g class="" transform="matrix(0.9301326274871826,0,0,0.9301326274871825,64.6328811645508,15.735892295837388)"><text fill="#ffffff" font-family="Kimberley Bl" font-size="45" stroke-opacity="1" stroke-width="1" stroke="#000000" x="191.96452729598332" y="202.05652900502182" transform="matrix(0.3473398387432098,0,0,0.3473398387432098,-56.60650634765625,122.64701843261719)" svgjs:data="{&quot;leading&quot;:&quot;1.3&quot;}"><tspan dy="0" x="191.96452729598332" svgjs:data="{&quot;newLined&quot;:true}">Player</tspan></text><image width="760" height="760" xlink:href="https://lct-designs.s3.us-west-1.amazonaws.com/assets/libs/team-awesome-5-1658471541448.png" class="asset" transform="matrix(0.04740765318274498,0,0,0.04740765318274497,15.961999893188477,140.9056396484375)"></image></g></g><g class="" transform="matrix(0.9301332235336305,0,0,0.9301332235336304,117.14847564697266,49.17675399780275)"><text fill="#ffffff" font-family="Kimberley Bl" font-size="45" stroke-opacity="1" stroke-width="1" stroke="#000000" x="191.96452729598332" y="202.05652900502182" transform="matrix(0.3473398387432098,0,0,0.3473398387432098,-56.60650634765625,122.64701843261719)" svgjs:data="{&quot;leading&quot;:&quot;1.3&quot;}"><tspan dy="0" x="191.96452729598332" svgjs:data="{&quot;newLined&quot;:true}">Player</tspan></text><image width="760" height="760" xlink:href="https://lct-designs.s3.us-west-1.amazonaws.com/assets/libs/team-awesome-5-1658471541448.png" class="asset" transform="matrix(0.04740765318274498,0,0,0.04740765318274497,15.961999893188477,140.9056396484375)"></image></g><g class="" transform="matrix(1,0,0,1,-1.275482177734375,-0.31887683272363176)"><g class="" transform="matrix(0.930133044719696,0,0,0.930133044719696,4.929667472839359,19.7449378967285)"><image width="760" height="760" xlink:href="https://lct-designs.s3.us-west-1.amazonaws.com/assets/libs/team-awesome-5-1658471541448.png" class="asset" transform="matrix(0.04740765318274498,0,0,0.04740765318274497,21.68048095703125,173.14300537109375)"></image><text fill="#ffffff" font-family="Kimberley Bl" font-size="45" stroke-opacity="1" stroke-width="1" stroke="#000000" x="191.96452729598332" y="202.05652900502182" transform="matrix(0.3473398387432098,0,0,0.3473398387432098,-50.636177062988274,154.88438415527344)" svgjs:data="{&quot;leading&quot;:&quot;1.3&quot;}"><tspan dy="0" x="191.96452729598332" svgjs:data="{&quot;newLined&quot;:true}">Player</tspan></text></g><g class="" transform="matrix(0.930133044719696,0,0,0.930133044719696,10.24860858917236,-9.771559715270996)"><text fill="#ffffff" font-family="Kimberley Bl" font-size="45" stroke-opacity="1" stroke-width="1" stroke="#000000" x="191.96452729598332" y="202.05652900502182" transform="matrix(0.3473398387432098,0,0,0.3473398387432098,-56.60650634765625,122.64701843261719)" svgjs:data="{&quot;leading&quot;:&quot;1.3&quot;}"><tspan dy="0" x="191.96452729598332" svgjs:data="{&quot;newLined&quot;:true}">Player</tspan></text><image width="760" height="760" xlink:href="https://lct-designs.s3.us-west-1.amazonaws.com/assets/libs/team-awesome-5-1658471541448.png" class="asset" transform="matrix(0.04740765318274498,0,0,0.04740765318274497,15.961999893188477,140.9056396484375)"></image></g><g class="" transform="matrix(1,0,0,1,0,0)"><image width="760" height="760" xlink:href="https://lct-designs.s3.us-west-1.amazonaws.com/assets/libs/team-awesome-5-1658471541448.png" class="asset" transform="matrix(0.04409540072083473,0,0,0.04409540072083473,25.09537887573242,239.82388305664062)"></image><text fill="#ffffff" font-family="Kimberley Bl" font-size="45" stroke-opacity="1" stroke-width="1" stroke="#000000" x="191.96452729598332" y="202.05652900502182" transform="matrix(0.3230720758438111,0,0,0.32307207584381104,-42.40294647216797,222.84095764160156)" svgjs:data="{&quot;leading&quot;:&quot;1.3&quot;}"><tspan dy="0" x="191.96452729598332" svgjs:data="{&quot;newLined&quot;:true}">Player</tspan></text></g></g><g class="" transform="matrix(0.930133044719696,0,0,0.930133044719696,317.1994934082031,49.17678070068358)"><text fill="#ffffff" font-family="Kimberley Bl" font-size="45" stroke-opacity="1" stroke-width="1" stroke="#000000" x="191.96452729598332" y="202.05652900502182" transform="matrix(0.3473398387432098,0,0,0.3473398387432098,-56.60650634765625,122.64701843261719)" svgjs:data="{&quot;leading&quot;:&quot;1.3&quot;}"><tspan dy="0" x="191.96452729598332" svgjs:data="{&quot;newLined&quot;:true}">Player</tspan></text><image width="760" height="760" xlink:href="https://lct-designs.s3.us-west-1.amazonaws.com/assets/libs/team-awesome-5-1658471541448.png" class="asset" transform="matrix(0.04740765318274498,0,0,0.04740765318274497,15.961999893188477,140.9056396484375)"></image></g><g class="mask" style="pointer-events: none;"><g><path fill="#BCBEC0" d="M-3642.4-2101.7v4589.1h7813.4v-4589.1H-3642.4z M500.5,67.2v233.3v66.7H0.5v-66.7V67.2V0.5h500V67.2z" transform="matrix(1,0,0,1,0,0)"></path><g transform="matrix(1,0,0,1,0,0)">
	<rect x="0.5" y="300.5" opacity="0.95" fill="#F1F2F2" width="500" height="66.7"></rect>
	<rect x="0.5" y="0.5" opacity="0.95" fill="#F1F2F2" width="500" height="66.7"></rect>
</g></g></g></svg>