<svg xmlns="http://www.w3.org/2000/svg" version="1.1" xmlns:xlink="http://www.w3.org/1999/xlink" xmlns:svgjs="http://svgjs.dev/svgjs" width="100%" height="100%" viewBox="1 1 499 365.70001220703125" preserveAspectRatio="none" data-info="{&quot;_id&quot;:4,&quot;name&quot;:&quot;POLE POCKET SOCCER BANNERS&quot;,&quot;information&quot;:&quot;- Size: 3’x5’\n- Material: heavy duty vinyl banner\n- Digitally printed on vinyl&quot;,&quot;price&quot;:&quot;95.00&quot;,&quot;sale_price&quot;:&quot;89.99&quot;,&quot;type&quot;:&quot;pole-pocket&quot;,&quot;cover&quot;:{&quot;key&quot;:&quot;assets/models/pole-1628062864266-1631924568908.png&quot;,&quot;url&quot;:&quot;https://lct-designs.s3.us-west-1.amazonaws.com/assets/models/pole-1628062864266-1631924568908.png&quot;},&quot;back&quot;:{&quot;key&quot;:&quot;assets/models/pole-1631924700152.svg&quot;,&quot;url&quot;:&quot;https://lct-designs.s3.us-west-1.amazonaws.com/assets/models/pole-1631924700152.svg&quot;},&quot;mask&quot;:{&quot;key&quot;:&quot;assets/models/pole-mask-1631925211715.svg&quot;,&quot;url&quot;:&quot;https://lct-designs.s3.us-west-1.amazonaws.com/assets/models/pole-mask-1631925211715.svg&quot;},&quot;pos&quot;:&quot;2&quot;,&quot;accessories&quot;:&quot;2,3&quot;}" style="background-color: white;"><g class="model" style="pointer-events: none;"><polygon fill="#FFFFFF" points="0.5,0.5 0.5,67.2 0.5,300.5 0.5,367.2 500.5,367.2 500.5,300.5 500.5,67.2 500.5,0.5 "></polygon></g><image width="760" height="556" xlink:href="https://lct-designs.s3.us-west-1.amazonaws.com/assets/libs/tigers-2-1658730567344.png" class="asset background locked" transform="matrix(0.6595323960558116,0,0,0.6595323960558116,0,0)"></image><text fill="#ffffff" font-family="Impact" font-size="45" x="50.877864861049005" y="201.76359325371294" stroke-opacity="1" stroke-width="1" stroke="#000000" transform="matrix(0.221296027302742,0,0,0.221296027302742,0.4500603675842285,43.36293792724609)" svgjs:data="{&quot;leading&quot;:&quot;1.3&quot;}"><tspan dy="0" x="50.877864861049005" svgjs:data="{&quot;newLined&quot;:true}">COACH: COACH'S NAME</tspan></text><text fill="#ffffff" font-family="Impact" font-size="45" x="50.877864861049005" y="201.76359325371294" stroke-opacity="1" stroke-width="-1" stroke="#000000" transform="matrix(0.221296027302742,0,0,0.221296027302742,268.2284851074219,43.94963455200196)" svgjs:data="{&quot;leading&quot;:&quot;1.3&quot;}"><tspan dy="0" x="50.877864861049005" svgjs:data="{&quot;newLined&quot;:true}">TEAM MOM: TEAM MOM'S NAME</tspan></text><text fill="#f7931e" font-family="Impact" font-size="42" stroke-opacity="1" stroke-width="-1" stroke="#000000" x="191.96452729598332" y="202.05652900502182" transform="matrix(0.3772353231906891,0,0,0.3772353231906891,46.8171501159668,125.7842025756836)" svgjs:data="{&quot;leading&quot;:&quot;1.3&quot;}"><tspan dy="0" x="191.96452729598332" svgjs:data="{&quot;newLined&quot;:true}">Player</tspan></text><image width="760" height="735" xlink:href="https://lct-designs.s3.us-west-1.amazonaws.com/assets/libs/654-tigers-3-1652435651679.png" class="asset" transform="matrix(0.05258698761463165,0,0,0.05258698761463166,119.99101257324216,149.7585906982422)"></image><text fill="#f7931e" font-family="Impact" font-size="42" stroke-opacity="1" stroke-width="-1" stroke="#000000" x="191.96452729598332" y="202.05652900502182" transform="matrix(0.3772353231906891,0,0,0.3772353231906891,116.14701843261719,125.7842025756836)" svgjs:data="{&quot;leading&quot;:&quot;1.3&quot;}"><tspan dy="0" x="191.96452729598332" svgjs:data="{&quot;newLined&quot;:true}">Player</tspan></text><image width="760" height="735" xlink:href="https://lct-designs.s3.us-west-1.amazonaws.com/assets/libs/654-tigers-3-1652435651679.png" class="asset" transform="matrix(0.05258698761463165,0,0,0.05258698761463166,189.3208770751953,149.7585906982422)"></image><text fill="#f7931e" font-family="Impact" font-size="42" stroke-opacity="1" stroke-width="-1" stroke="#000000" x="191.96452729598332" y="202.05652900502182" transform="matrix(0.3772353231906891,0,0,0.3772353231906891,-34.42755699157715,125.28352355957031)" svgjs:data="{&quot;leading&quot;:&quot;1.3&quot;}"><tspan dy="0" x="191.96452729598332" svgjs:data="{&quot;newLined&quot;:true}">Player</tspan></text><image width="760" height="735" xlink:href="https://lct-designs.s3.us-west-1.amazonaws.com/assets/libs/654-tigers-3-1652435651679.png" class="asset" transform="matrix(0.05258698761463165,0,0,0.05258698761463166,38.746292114257784,149.25790405273438)"></image><text fill="#f7931e" font-family="Impact" font-size="42" stroke-opacity="1" stroke-width="-1" stroke="#000000" x="191.96452729598332" y="202.05652900502182" transform="matrix(0.3772353231906891,0,0,0.3772353231906891,197.39170837402344,126.28489685058594)" svgjs:data="{&quot;leading&quot;:&quot;1.3&quot;}"><tspan dy="0" x="191.96452729598332" svgjs:data="{&quot;newLined&quot;:true}">Player</tspan></text><image width="760" height="735" xlink:href="https://lct-designs.s3.us-west-1.amazonaws.com/assets/libs/654-tigers-3-1652435651679.png" class="asset" transform="matrix(0.05258700251579285,0,0,0.05258700251579285,270.5655517578125,150.25926208496094)"></image><text fill="#f7931e" font-family="Impact" font-size="42" stroke-opacity="1" stroke-width="-1" stroke="#000000" x="191.96452729598332" y="202.05652900502182" transform="matrix(0.3772353231906891,0,0,0.3772353231906891,272.8628845214844,125.28352355957031)" svgjs:data="{&quot;leading&quot;:&quot;1.3&quot;}"><tspan dy="0" x="191.96452729598332" svgjs:data="{&quot;newLined&quot;:true}">Player</tspan></text><image width="760" height="735" xlink:href="https://lct-designs.s3.us-west-1.amazonaws.com/assets/libs/654-tigers-3-1652435651679.png" class="asset" transform="matrix(0.05258701369166374,0,0,0.05258701369166374,346.0367126464844,149.25790405273438)"></image><image width="760" height="164" xlink:href="https://lct-designs.s3.us-west-1.amazonaws.com/assets/libs/tigers-5-1658730567344.png" class="asset" transform="matrix(0.2802608907222748,0,0,0.2802608907222748,102.18357849121094,94.34346008300781)"></image><text fill="#f7931e" font-family="Impact" font-size="42" stroke-opacity="1" stroke-width="-1" stroke="#000000" x="191.96452729598332" y="202.05652900502182" transform="matrix(0.38030391931533813,0,0,0.38030391931533813,46.916500091552734,207.49113464355472)" svgjs:data="{&quot;leading&quot;:&quot;1.3&quot;}"><tspan dy="0" x="191.96452729598332" svgjs:data="{&quot;newLined&quot;:true}">Player</tspan></text><image width="760" height="735" xlink:href="https://lct-designs.s3.us-west-1.amazonaws.com/assets/libs/654-tigers-3-1652435651679.png" class="asset" transform="matrix(0.05301474407315254,0,0,0.05301474407315254,120.68558883666995,231.66053771972653)"></image><text fill="#f7931e" font-family="Impact" font-size="42" stroke-opacity="1" stroke-width="-1" stroke="#000000" x="191.96452729598332" y="202.05652900502182" transform="matrix(0.38030391931533813,0,0,0.38030391931533813,-34.98908996582033,206.98637390136722)" svgjs:data="{&quot;leading&quot;:&quot;1.3&quot;}"><tspan dy="0" x="191.96452729598332" svgjs:data="{&quot;newLined&quot;:true}">Player</tspan></text><image width="760" height="735" xlink:href="https://lct-designs.s3.us-west-1.amazonaws.com/assets/libs/654-tigers-3-1652435651679.png" class="asset" transform="matrix(0.05301474407315254,0,0,0.05301474407315254,38.779991149902344,231.15576171875003)"></image><text fill="#f7931e" font-family="Impact" font-size="42" stroke-opacity="1" stroke-width="-1" stroke="#000000" x="191.96452729598332" y="202.05652900502182" transform="matrix(0.38030391931533813,0,0,0.38030391931533813,198.7159080505371,207.99588012695315)" svgjs:data="{&quot;leading&quot;:&quot;1.3&quot;}"><tspan dy="0" x="191.96452729598332" svgjs:data="{&quot;newLined&quot;:true}">Player</tspan></text><image width="760" height="735" xlink:href="https://lct-designs.s3.us-west-1.amazonaws.com/assets/libs/654-tigers-3-1652435651679.png" class="asset" transform="matrix(0.05301475897431374,0,0,0.053014758974313736,272.48498153686523,232.16528320312503)"></image><text fill="#f7931e" font-family="Impact" font-size="42" stroke-opacity="1" stroke-width="-1" stroke="#000000" x="191.96452729598332" y="202.05652900502182" transform="matrix(0.38030391931533813,0,0,0.38030391931533813,116.81032943725586,207.49113464355472)" svgjs:data="{&quot;leading&quot;:&quot;1.3&quot;}"><tspan dy="0" x="191.96452729598332" svgjs:data="{&quot;newLined&quot;:true}">Player</tspan></text><image width="760" height="735" xlink:href="https://lct-designs.s3.us-west-1.amazonaws.com/assets/libs/654-tigers-3-1652435651679.png" class="asset" transform="matrix(0.05301474407315254,0,0,0.05301474407315254,190.57941818237305,231.66053771972653)"></image><text fill="#f7931e" font-family="Impact" font-size="42" stroke-opacity="1" stroke-width="-1" stroke="#000000" x="191.96452729598332" y="202.05652900502182" transform="matrix(0.38030391931533813,0,0,0.38030391931533813,274.8009910583496,206.98637390136722)" svgjs:data="{&quot;leading&quot;:&quot;1.3&quot;}"><tspan dy="0" x="191.96452729598332" svgjs:data="{&quot;newLined&quot;:true}">Player</tspan></text><image width="760" height="735" xlink:href="https://lct-designs.s3.us-west-1.amazonaws.com/assets/libs/654-tigers-3-1652435651679.png" class="asset" transform="matrix(0.05301477387547494,0,0,0.05301477387547493,348.57006454467773,231.15576171875003)"></image><g class="mask" style="pointer-events: none;"><g><path fill="#BCBEC0" d="M-3642.4-2101.7v4589.1h7813.4v-4589.1H-3642.4z M500.5,67.2v233.3v66.7H0.5v-66.7V67.2V0.5h500V67.2z" transform="matrix(1,0,0,1,0,0)"></path><g transform="matrix(1,0,0,1,0,0)">
	<rect x="0.5" y="300.5" opacity="0.95" fill="#F1F2F2" width="500" height="66.7"></rect>
	<rect x="0.5" y="0.5" opacity="0.95" fill="#F1F2F2" width="500" height="66.7"></rect>
</g></g></g></svg>