<svg xmlns="http://www.w3.org/2000/svg" version="1.1" xmlns:xlink="http://www.w3.org/1999/xlink" xmlns:svgjs="http://svgjs.dev/svgjs" width="100%" height="100%" viewBox="1 1 499 365.70001220703125" preserveAspectRatio="none" data-info="{&quot;_id&quot;:4,&quot;name&quot;:&quot;POLE POCKET SOCCER BANNERS&quot;,&quot;information&quot;:&quot;- Size: 3’x5’\n- Material: heavy duty vinyl banner\n- Digitally printed on vinyl&quot;,&quot;price&quot;:&quot;95.00&quot;,&quot;sale_price&quot;:&quot;89.99&quot;,&quot;type&quot;:&quot;pole-pocket&quot;,&quot;cover&quot;:{&quot;key&quot;:&quot;assets/models/pole-1628062864266-1631924568908.png&quot;,&quot;url&quot;:&quot;https://lct-designs.s3.us-west-1.amazonaws.com/assets/models/pole-1628062864266-1631924568908.png&quot;},&quot;back&quot;:{&quot;key&quot;:&quot;assets/models/pole-1631924700152.svg&quot;,&quot;url&quot;:&quot;https://lct-designs.s3.us-west-1.amazonaws.com/assets/models/pole-1631924700152.svg&quot;},&quot;mask&quot;:{&quot;key&quot;:&quot;assets/models/pole-mask-1631925211715.svg&quot;,&quot;url&quot;:&quot;https://lct-designs.s3.us-west-1.amazonaws.com/assets/models/pole-mask-1631925211715.svg&quot;},&quot;pos&quot;:&quot;2&quot;,&quot;accessories&quot;:&quot;2,3&quot;}" style="background-color: white;"><g class="model" style="pointer-events: none;"><polygon fill="#FFFFFF" points="0.5,0.5 0.5,67.2 0.5,300.5 0.5,367.2 500.5,367.2 500.5,300.5 500.5,67.2 500.5,0.5 "></polygon></g><image width="760" height="556" xlink:href="https://lct-designs.s3.us-west-1.amazonaws.com/assets/libs/knights-3-1658386298750.png" class="asset background locked" transform="matrix(0.6595323960558116,0,0,0.6595323960558116,0,0)"></image><text fill="#ffffff" font-family="Freshman" font-size="50" stroke-opacity="1" stroke-width="2" stroke="#000000" x="-98.72634249947717" y="199.47500657859518" transform="matrix(0.18760928043448286,0,0,0.18760928043448286,39.988344249652975,52.1873395172488)" svgjs:data="{&quot;leading&quot;:&quot;1.3&quot;}"><tspan dy="0" x="-98.72634249947717" svgjs:data="{&quot;newLined&quot;:true}">COACH: COACH'S NAME</tspan></text><text fill="#ffffff" font-family="Freshman" font-size="50" stroke-opacity="1" stroke-width="2" stroke="#000000" x="-98.72634249947717" y="199.47500657859518" transform="matrix(0.18760928043448286,0,0,0.18760928043448286,173.89308477587105,51.355342889297376)" svgjs:data="{&quot;leading&quot;:&quot;1.3&quot;}"><tspan dy="0" x="-98.72634249947717" svgjs:data="{&quot;newLined&quot;:true}">TEAM MOM: TEAM MOM'S NAME</tspan></text><image width="638" height="760" xlink:href="https://lct-designs.s3.us-west-1.amazonaws.com/assets/libs/knights-1-1658386298749.png" class="asset" transform="matrix(0.27605077624320984,0,0,0.27605077624320984,301.8582153320312,81.05075836181638)"></image><g class="" transform="matrix(0.8384578824043273,0,0,0.8384578824043273,167.3205871582031,27.29723739624024)"><text fill="#ffffff" font-family="Freshman" font-size="50" stroke-opacity="1" stroke-width="2" stroke="#154b7f" x="-98.72634249947717" y="199.47500657859518" transform="matrix(0.23135261237621302,0,0,0.23135261237621302,83.396858215332,132.23985290527338)" svgjs:data="{&quot;leading&quot;:&quot;1.3&quot;}"><tspan dy="0" x="-98.72634249947717" svgjs:data="{&quot;newLined&quot;:true}">PLAYER</tspan></text><image width="684" height="760" xlink:href="https://lct-designs.s3.us-west-1.amazonaws.com/assets/libs/knights-1658386298751.png" class="asset" transform="matrix(0.08319133520126341,0,0,0.08319133520126343,34.78393554687499,120.74140930175777)"></image></g><g class="" transform="matrix(0.8384578824043273,0,0,0.8384578824043273,193.301040649414,106.46945190429688)"><text fill="#ffffff" font-family="Freshman" font-size="50" stroke-opacity="1" stroke-width="2" stroke="#154b7f" x="-98.72634249947717" y="199.47500657859518" transform="matrix(0.23135261237621302,0,0,0.23135261237621302,83.396858215332,132.23985290527338)" svgjs:data="{&quot;leading&quot;:&quot;1.3&quot;}"><tspan dy="0" x="-98.72634249947717" svgjs:data="{&quot;newLined&quot;:true}">PLAYER</tspan></text><image width="684" height="760" xlink:href="https://lct-designs.s3.us-west-1.amazonaws.com/assets/libs/knights-1658386298751.png" class="asset" transform="matrix(0.08319133520126341,0,0,0.08319133520126343,34.78393554687499,120.74140930175777)"></image></g><g class="" transform="matrix(0.8384578824043273,0,0,0.8384578824043273,-7.514918327331536,7.102027416229255)"><text fill="#ffffff" font-family="Freshman" font-size="50" stroke-opacity="1" stroke-width="2" stroke="#154b7f" x="-98.72634249947717" y="199.47500657859518" transform="matrix(0.23135261237621302,0,0,0.23135261237621302,83.396858215332,132.23985290527338)" svgjs:data="{&quot;leading&quot;:&quot;1.3&quot;}"><tspan dy="0" x="-98.72634249947717" svgjs:data="{&quot;newLined&quot;:true}">PLAYER</tspan></text><image width="684" height="760" xlink:href="https://lct-designs.s3.us-west-1.amazonaws.com/assets/libs/knights-1658386298751.png" class="asset" transform="matrix(0.08319133520126341,0,0,0.08319133520126343,34.78393554687499,120.74140930175777)"></image></g><g class="" transform="matrix(0.8384578824043273,0,0,0.8384578824043273,79.75746154785156,7.102018833160393)"><text fill="#ffffff" font-family="Freshman" font-size="50" stroke-opacity="1" stroke-width="2" stroke="#154b7f" x="-98.72634249947717" y="199.47500657859518" transform="matrix(0.23135261237621302,0,0,0.23135261237621302,83.396858215332,132.23985290527338)" svgjs:data="{&quot;leading&quot;:&quot;1.3&quot;}"><tspan dy="0" x="-98.72634249947717" svgjs:data="{&quot;newLined&quot;:true}">PLAYER</tspan></text><image width="684" height="760" xlink:href="https://lct-designs.s3.us-west-1.amazonaws.com/assets/libs/knights-1658386298751.png" class="asset" transform="matrix(0.08319133520126341,0,0,0.08319133520126343,34.78393554687499,120.74140930175777)"></image></g><g class="" transform="matrix(0.8384578824043273,0,0,0.8384578824043273,37.85016632080079,136.31668090820307)"><text fill="#ffffff" font-family="Freshman" font-size="50" stroke-opacity="1" stroke-width="2" stroke="#154b7f" x="-98.72634249947717" y="199.47500657859518" transform="matrix(0.23135261237621302,0,0,0.23135261237621302,83.396858215332,132.23985290527338)" svgjs:data="{&quot;leading&quot;:&quot;1.3&quot;}"><tspan dy="0" x="-98.72634249947717" svgjs:data="{&quot;newLined&quot;:true}">PLAYER</tspan></text><image width="684" height="760" xlink:href="https://lct-designs.s3.us-west-1.amazonaws.com/assets/libs/knights-1658386298751.png" class="asset" transform="matrix(0.08319133520126341,0,0,0.08319133520126343,34.78393554687499,120.74140930175777)"></image></g><g class="" transform="matrix(0.8384578824043273,0,0,0.8384578824043273,100.45546722412107,71.31511688232422)"><text fill="#ffffff" font-family="Freshman" font-size="50" stroke-opacity="1" stroke-width="2" stroke="#154b7f" x="-98.72634249947717" y="199.47500657859518" transform="matrix(0.23135261237621302,0,0,0.23135261237621302,83.396858215332,132.23985290527338)" svgjs:data="{&quot;leading&quot;:&quot;1.3&quot;}"><tspan dy="0" x="-98.72634249947717" svgjs:data="{&quot;newLined&quot;:true}">PLAYER</tspan></text><image width="684" height="760" xlink:href="https://lct-designs.s3.us-west-1.amazonaws.com/assets/libs/knights-1658386298751.png" class="asset" transform="matrix(0.08319133520126341,0,0,0.08319133520126343,34.78393554687499,120.74140930175777)"></image></g><g class="" transform="matrix(0.8384578824043273,0,0,0.8384578824043273,15.443618774414062,71.31510162353516)"><text fill="#ffffff" font-family="Freshman" font-size="50" stroke-opacity="1" stroke-width="2" stroke="#154b7f" x="-98.72634249947717" y="199.47500657859518" transform="matrix(0.23135261237621302,0,0,0.23135261237621302,83.396858215332,132.23985290527338)" svgjs:data="{&quot;leading&quot;:&quot;1.3&quot;}"><tspan dy="0" x="-98.72634249947717" svgjs:data="{&quot;newLined&quot;:true}">PLAYER</tspan></text><image width="684" height="760" xlink:href="https://lct-designs.s3.us-west-1.amazonaws.com/assets/libs/knights-1658386298751.png" class="asset" transform="matrix(0.08319133520126341,0,0,0.08319133520126343,34.78393554687499,120.74140930175777)"></image></g><g class="" transform="matrix(0.8384578824043273,0,0,0.8384578824043273,125.38443756103513,136.3166961669922)"><text fill="#ffffff" font-family="Freshman" font-size="50" stroke-opacity="1" stroke-width="2" stroke="#154b7f" x="-98.72634249947717" y="199.47500657859518" transform="matrix(0.23135261237621302,0,0,0.23135261237621302,83.396858215332,132.23985290527338)" svgjs:data="{&quot;leading&quot;:&quot;1.3&quot;}"><tspan dy="0" x="-98.72634249947717" svgjs:data="{&quot;newLined&quot;:true}">PLAYER</tspan></text><image width="684" height="760" xlink:href="https://lct-designs.s3.us-west-1.amazonaws.com/assets/libs/knights-1658386298751.png" class="asset" transform="matrix(0.08319133520126341,0,0,0.08319133520126343,34.78393554687499,120.74140930175777)"></image></g><g class="mask" style="pointer-events: none;"><g><path fill="#BCBEC0" d="M-3642.4-2101.7v4589.1h7813.4v-4589.1H-3642.4z M500.5,67.2v233.3v66.7H0.5v-66.7V67.2V0.5h500V67.2z" transform="matrix(1,0,0,1,0,0)"></path><g transform="matrix(1,0,0,1,0,0)">
	<rect x="0.5" y="300.5" opacity="0.95" fill="#F1F2F2" width="500" height="66.7"></rect>
	<rect x="0.5" y="0.5" opacity="0.95" fill="#F1F2F2" width="500" height="66.7"></rect>
</g></g></g></svg>