<svg xmlns="http://www.w3.org/2000/svg" version="1.1" xmlns:xlink="http://www.w3.org/1999/xlink" xmlns:svgjs="http://svgjs.dev/svgjs" width="100%" height="100%" viewBox="1 1 499 365.70001220703125" preserveAspectRatio="none" data-info="{&quot;_id&quot;:4,&quot;name&quot;:&quot;POLE POCKET SOCCER BANNERS&quot;,&quot;information&quot;:&quot;- Size: 3’x5’\n- Material: heavy duty vinyl banner\n- Digitally printed on vinyl&quot;,&quot;price&quot;:&quot;95.00&quot;,&quot;sale_price&quot;:&quot;89.99&quot;,&quot;type&quot;:&quot;pole-pocket&quot;,&quot;cover&quot;:{&quot;key&quot;:&quot;assets/models/pole-1628062864266-1631924568908.png&quot;,&quot;url&quot;:&quot;https://lct-designs.s3.us-west-1.amazonaws.com/assets/models/pole-1628062864266-1631924568908.png&quot;},&quot;back&quot;:{&quot;key&quot;:&quot;assets/models/pole-1631924700152.svg&quot;,&quot;url&quot;:&quot;https://lct-designs.s3.us-west-1.amazonaws.com/assets/models/pole-1631924700152.svg&quot;},&quot;mask&quot;:{&quot;key&quot;:&quot;assets/models/pole-mask-1631925211715.svg&quot;,&quot;url&quot;:&quot;https://lct-designs.s3.us-west-1.amazonaws.com/assets/models/pole-mask-1631925211715.svg&quot;},&quot;pos&quot;:&quot;2&quot;,&quot;accessories&quot;:&quot;2,3&quot;}" style="background-color: white;"><g class="model" style="pointer-events: none;"><polygon fill="#FFFFFF" points="0.5,0.5 0.5,67.2 0.5,300.5 0.5,367.2 500.5,367.2 500.5,300.5 500.5,67.2 500.5,0.5 "></polygon></g><image width="760" height="556" xlink:href="https://lct-designs.s3.us-west-1.amazonaws.com/assets/libs/dinosauros-1-1658474696834.png" class="asset background locked" transform="matrix(0.6595323960558116,0,0,0.6595323960558116,0,0)"></image><text fill="#ec1e24" font-family="Raider Crusader Semi-Straight" font-size="45" x="50.877864861049005" y="201.76359325371294" stroke-opacity="1" stroke-width="1" stroke="#ffffff" transform="matrix(0.22129602730274203,0,0,0.22129602730274198,185.6676787734032,243.39852905273438)" svgjs:data="{&quot;leading&quot;:&quot;1.3&quot;}"><tspan dy="0" x="50.877864861049005" svgjs:data="{&quot;newLined&quot;:true}">COACH: COACH'S NAME</tspan></text><text fill="#ec1e24" font-family="Raider Crusader Semi-Straight" font-size="45" x="50.877864861049005" y="201.76359325371294" stroke-opacity="1" stroke-width="1" stroke="#ffffff" transform="matrix(0.22129602730274203,0,0,0.22129602730274198,167.82963556051257,226.61708068847656)" svgjs:data="{&quot;leading&quot;:&quot;1.3&quot;}"><tspan dy="0" x="50.877864861049005" svgjs:data="{&quot;newLined&quot;:true}">TEAM MOM: TEAM MOM'S NAME</tspan></text><image width="760" height="695" xlink:href="https://lct-designs.s3.us-west-1.amazonaws.com/assets/libs/dinosauros-4-1658474696836.png" class="asset" transform="matrix(0.2555113136768341,0,0,0.25551131367683405,153.40440368652347,70.12931060791016)"></image><g class="" transform="matrix(0.9403328895568848,0,0,0.9403328895568847,74.14656829833983,-33.80554962158203)"><text fill="#ffffff" font-family="Raider Crusader Semi-Straight" font-size="45" stroke-opacity="1" stroke-width="1" stroke="#ec1e24" x="191.96452729598332" y="202.05652900502182" transform="matrix(0.34665405750274664,0,0,0.3466540575027465,-29.27461051940918,110.17991638183591)" svgjs:data="{&quot;leading&quot;:&quot;1.3&quot;}"><tspan dy="0" x="191.96452729598332" svgjs:data="{&quot;newLined&quot;:true}">Player</tspan></text><image width="754" height="760" xlink:href="https://lct-designs.s3.us-west-1.amazonaws.com/assets/libs/dinosauros-5-1658474696836.png" class="asset" transform="matrix(0.06265126913785934,0,0,0.06265126913785934,37.193058013916016,117.23132324218747)"></image></g><g class="" transform="matrix(0.9403328895568848,0,0,0.9403328895568847,310.23773193359375,-35.316726684570305)"><text fill="#ffffff" font-family="Raider Crusader Semi-Straight" font-size="45" stroke-opacity="1" stroke-width="1" stroke="#ec1e24" x="191.96452729598332" y="202.05652900502182" transform="matrix(0.34665405750274664,0,0,0.3466540575027465,-29.27461051940918,110.17991638183591)" svgjs:data="{&quot;leading&quot;:&quot;1.3&quot;}"><tspan dy="0" x="191.96452729598332" svgjs:data="{&quot;newLined&quot;:true}">Player</tspan></text><image width="754" height="760" xlink:href="https://lct-designs.s3.us-west-1.amazonaws.com/assets/libs/dinosauros-5-1658474696836.png" class="asset" transform="matrix(0.06265126913785934,0,0,0.06265126913785934,37.193058013916016,117.23132324218747)"></image></g><g class="" transform="matrix(0.9403328895568848,0,0,0.9403328895568847,-18.610029220581055,-25.242551803588867)"><text fill="#ffffff" font-family="Raider Crusader Semi-Straight" font-size="45" stroke-opacity="1" stroke-width="1" stroke="#ec1e24" x="191.96452729598332" y="202.05652900502182" transform="matrix(0.34665405750274664,0,0,0.3466540575027465,-29.27461051940918,110.17991638183591)" svgjs:data="{&quot;leading&quot;:&quot;1.3&quot;}"><tspan dy="0" x="191.96452729598332" svgjs:data="{&quot;newLined&quot;:true}">Player</tspan></text><image width="754" height="760" xlink:href="https://lct-designs.s3.us-west-1.amazonaws.com/assets/libs/dinosauros-5-1658474696836.png" class="asset" transform="matrix(0.06265126913785934,0,0,0.06265126913785934,37.193058013916016,117.23132324218747)"></image></g><g class="" transform="matrix(0.9403328895568848,0,0,0.9403328895568847,-17.173080444335938,84.06227111816403)"><text fill="#ffffff" font-family="Raider Crusader Semi-Straight" font-size="45" stroke-opacity="1" stroke-width="1" stroke="#ec1e24" x="191.96452729598332" y="202.05652900502182" transform="matrix(0.34665405750274664,0,0,0.3466540575027465,-29.27461051940918,110.17991638183591)" svgjs:data="{&quot;leading&quot;:&quot;1.3&quot;}"><tspan dy="0" x="191.96452729598332" svgjs:data="{&quot;newLined&quot;:true}">Player</tspan></text><image width="754" height="760" xlink:href="https://lct-designs.s3.us-west-1.amazonaws.com/assets/libs/dinosauros-5-1658474696836.png" class="asset" transform="matrix(0.06265126913785934,0,0,0.06265126913785934,37.193058013916016,117.23132324218747)"></image></g><g class="" transform="matrix(0.9403328895568848,0,0,0.9403328895568847,44.205226898193345,40.74332427978515)"><text fill="#ffffff" font-family="Raider Crusader Semi-Straight" font-size="45" stroke-opacity="1" stroke-width="1" stroke="#ec1e24" x="191.96452729598332" y="202.05652900502182" transform="matrix(0.34665405750274664,0,0,0.3466540575027465,-29.27461051940918,110.17991638183591)" svgjs:data="{&quot;leading&quot;:&quot;1.3&quot;}"><tspan dy="0" x="191.96452729598332" svgjs:data="{&quot;newLined&quot;:true}">Player</tspan></text><image width="754" height="760" xlink:href="https://lct-designs.s3.us-west-1.amazonaws.com/assets/libs/dinosauros-5-1658474696836.png" class="asset" transform="matrix(0.06265126913785934,0,0,0.06265126913785934,37.193058013916016,117.23132324218747)"></image></g><g class="" transform="matrix(0.9403328895568848,0,0,0.9403328895568847,61.257148742675795,118.31449890136716)"><text fill="#ffffff" font-family="Raider Crusader Semi-Straight" font-size="45" stroke-opacity="1" stroke-width="1" stroke="#ec1e24" x="191.96452729598332" y="202.05652900502182" transform="matrix(0.34665405750274664,0,0,0.3466540575027465,-29.27461051940918,110.17991638183591)" svgjs:data="{&quot;leading&quot;:&quot;1.3&quot;}"><tspan dy="0" x="191.96452729598332" svgjs:data="{&quot;newLined&quot;:true}">Player</tspan></text><image width="754" height="760" xlink:href="https://lct-designs.s3.us-west-1.amazonaws.com/assets/libs/dinosauros-5-1658474696836.png" class="asset" transform="matrix(0.06265126913785934,0,0,0.06265126913785934,37.193058013916016,117.23132324218747)"></image></g><g class="" transform="matrix(0.9403328895568848,0,0,0.9403328895568847,401.8385009765625,-25.24254608154297)"><text fill="#ffffff" font-family="Raider Crusader Semi-Straight" font-size="45" stroke-opacity="1" stroke-width="1" stroke="#ec1e24" x="191.96452729598332" y="202.05652900502182" transform="matrix(0.34665405750274664,0,0,0.3466540575027465,-29.27461051940918,110.17991638183591)" svgjs:data="{&quot;leading&quot;:&quot;1.3&quot;}"><tspan dy="0" x="191.96452729598332" svgjs:data="{&quot;newLined&quot;:true}">Player</tspan></text><image width="754" height="760" xlink:href="https://lct-designs.s3.us-west-1.amazonaws.com/assets/libs/dinosauros-5-1658474696836.png" class="asset" transform="matrix(0.06265126913785934,0,0,0.06265126913785934,37.193058013916016,117.23132324218747)"></image></g><g class="" transform="matrix(0.9403328895568848,0,0,0.9403328895568847,336.28216552734375,38.728473663330085)"><text fill="#ffffff" font-family="Raider Crusader Semi-Straight" font-size="45" stroke-opacity="1" stroke-width="1" stroke="#ec1e24" x="191.96452729598332" y="202.05652900502182" transform="matrix(0.34665405750274664,0,0,0.3466540575027465,-29.27461051940918,110.17991638183591)" svgjs:data="{&quot;leading&quot;:&quot;1.3&quot;}"><tspan dy="0" x="191.96452729598332" svgjs:data="{&quot;newLined&quot;:true}">Player</tspan></text><image width="754" height="760" xlink:href="https://lct-designs.s3.us-west-1.amazonaws.com/assets/libs/dinosauros-5-1658474696836.png" class="asset" transform="matrix(0.06265126913785934,0,0,0.06265126913785934,37.193058013916016,117.23132324218747)"></image></g><g class="" transform="matrix(0.9403328895568848,0,0,0.9403328895568847,400.1790466308594,90.6105041503906)"><text fill="#ffffff" font-family="Raider Crusader Semi-Straight" font-size="45" stroke-opacity="1" stroke-width="1" stroke="#ec1e24" x="191.96452729598332" y="202.05652900502182" transform="matrix(0.34665405750274664,0,0,0.3466540575027465,-29.27461051940918,110.17991638183591)" svgjs:data="{&quot;leading&quot;:&quot;1.3&quot;}"><tspan dy="0" x="191.96452729598332" svgjs:data="{&quot;newLined&quot;:true}">Player</tspan></text><image width="754" height="760" xlink:href="https://lct-designs.s3.us-west-1.amazonaws.com/assets/libs/dinosauros-5-1658474696836.png" class="asset" transform="matrix(0.06265126913785934,0,0,0.06265126913785934,37.193058013916016,117.23132324218747)"></image></g><g class="" transform="matrix(0.9403328895568848,0,0,0.9403328895568847,322.5337219238281,114.78852844238281)"><text fill="#ffffff" font-family="Raider Crusader Semi-Straight" font-size="45" stroke-opacity="1" stroke-width="1" stroke="#ec1e24" x="191.96452729598332" y="202.05652900502182" transform="matrix(0.34665405750274664,0,0,0.3466540575027465,-29.27461051940918,110.17991638183591)" svgjs:data="{&quot;leading&quot;:&quot;1.3&quot;}"><tspan dy="0" x="191.96452729598332" svgjs:data="{&quot;newLined&quot;:true}">Player</tspan></text><image width="754" height="760" xlink:href="https://lct-designs.s3.us-west-1.amazonaws.com/assets/libs/dinosauros-5-1658474696836.png" class="asset" transform="matrix(0.06265126913785934,0,0,0.06265126913785934,37.193058013916016,117.23132324218747)"></image></g><g class="mask" style="pointer-events: none;"><g><path fill="#BCBEC0" d="M-3642.4-2101.7v4589.1h7813.4v-4589.1H-3642.4z M500.5,67.2v233.3v66.7H0.5v-66.7V67.2V0.5h500V67.2z" transform="matrix(1,0,0,1,0,0)"></path><g transform="matrix(1,0,0,1,0,0)">
	<rect x="0.5" y="300.5" opacity="0.95" fill="#F1F2F2" width="500" height="66.7"></rect>
	<rect x="0.5" y="0.5" opacity="0.95" fill="#F1F2F2" width="500" height="66.7"></rect>
</g></g></g></svg>