<svg xmlns="http://www.w3.org/2000/svg" version="1.1" xmlns:xlink="http://www.w3.org/1999/xlink" xmlns:svgjs="http://svgjs.dev/svgjs" width="100%" height="100%" viewBox="1 1 499 365.70001220703125" preserveAspectRatio="none" data-info="{&quot;_id&quot;:4,&quot;name&quot;:&quot;POLE POCKET SOCCER BANNERS&quot;,&quot;information&quot;:&quot;- Size: 3’x5’\n- Material: heavy duty vinyl banner\n- Digitally printed on vinyl&quot;,&quot;price&quot;:&quot;95.00&quot;,&quot;sale_price&quot;:&quot;89.99&quot;,&quot;type&quot;:&quot;pole-pocket&quot;,&quot;cover&quot;:{&quot;key&quot;:&quot;assets/models/pole-1628062864266-1631924568908.png&quot;,&quot;url&quot;:&quot;https://lct-designs.s3.us-west-1.amazonaws.com/assets/models/pole-1628062864266-1631924568908.png&quot;},&quot;back&quot;:{&quot;key&quot;:&quot;assets/models/pole-1631924700152.svg&quot;,&quot;url&quot;:&quot;https://lct-designs.s3.us-west-1.amazonaws.com/assets/models/pole-1631924700152.svg&quot;},&quot;mask&quot;:{&quot;key&quot;:&quot;assets/models/pole-mask-1631925211715.svg&quot;,&quot;url&quot;:&quot;https://lct-designs.s3.us-west-1.amazonaws.com/assets/models/pole-mask-1631925211715.svg&quot;},&quot;pos&quot;:&quot;2&quot;,&quot;accessories&quot;:&quot;2,3&quot;}" style="background-color: white;"><g class="model" style="pointer-events: none;"><polygon fill="#FFFFFF" points="0.5,0.5 0.5,67.2 0.5,300.5 0.5,367.2 500.5,367.2 500.5,300.5 500.5,67.2 500.5,0.5 "></polygon></g><image width="760" height="561" xlink:href="https://lct-designs.s3.us-west-1.amazonaws.com/assets/libs/vikings-3-1657947358129.png" class="asset background locked" transform="matrix(0.6536542107077206,0,0,0.6536542107077206,0,0)"></image><text fill="#ffffff" font-family="Impact" font-size="45" x="50.877864861049005" y="201.76359325371294" stroke-opacity="1" stroke-width="2" stroke="#000000" transform="matrix(0.22129602730274198,0,0,0.22129602730274198,6.12080825425906,43.870591139699876)" svgjs:data="{&quot;leading&quot;:&quot;1.3&quot;}"><tspan dy="0" x="50.877864861049005" svgjs:data="{&quot;newLined&quot;:true}">COACH: COACH'S NAME</tspan></text><text fill="#ffffff" font-family="Impact" font-size="45" x="50.877864861049005" y="201.76359325371294" stroke-opacity="1" stroke-width="2" stroke="#000000" transform="matrix(0.22129602730274198,0,0,0.22129602730274198,359.7275466861198,46.745720900338846)" svgjs:data="{&quot;leading&quot;:&quot;1.3&quot;}"><tspan dy="0" x="50.877864861049005" svgjs:data="{&quot;newLined&quot;:true}">TEAM MOM: TEAM MOM'S NAME</tspan></text><image width="760" height="489" xlink:href="https://lct-designs.s3.us-west-1.amazonaws.com/assets/libs/vikings-4-1657947358129.png" class="asset" transform="matrix(0.05693748593330383,0,0,0.05693748593330383,33.22702478254155,108.18959274693773)"></image><image width="760" height="489" xlink:href="https://lct-designs.s3.us-west-1.amazonaws.com/assets/libs/vikings-4-1657947358129.png" class="asset" transform="matrix(0.05693748593330383,0,0,0.05693748593330383,33.227017153146846,175.51260747936234)"></image><image width="760" height="489" xlink:href="https://lct-designs.s3.us-west-1.amazonaws.com/assets/libs/vikings-4-1657947358129.png" class="asset" transform="matrix(0.05693748593330383,0,0,0.05693748593330383,33.22702096784417,244.05229704225917)"></image><text fill="#fbf5b1" font-family="Impact" font-size="45" stroke-opacity="1" stroke-width="2" stroke="#000000" x="191.96452729598332" y="202.05652900502182" transform="matrix(0.34665411710739136,0,0,0.3466541171073913,-32.05112143730838,80.4598253135643)" svgjs:data="{&quot;leading&quot;:&quot;1.3&quot;}"><tspan dy="0" x="191.96452729598332" svgjs:data="{&quot;newLined&quot;:true}">Player</tspan></text><text fill="#fbf5b1" font-family="Impact" font-size="45" stroke-opacity="1" stroke-width="2" stroke="#000000" x="191.96452729598332" y="202.05652900502182" transform="matrix(0.34665411710739136,0,0,0.3466541171073913,-32.051148140189795,148.90317088027868)" svgjs:data="{&quot;leading&quot;:&quot;1.3&quot;}"><tspan dy="0" x="191.96452729598332" svgjs:data="{&quot;newLined&quot;:true}">Player</tspan></text><text fill="#fbf5b1" font-family="Impact" font-size="45" stroke-opacity="1" stroke-width="2" stroke="#000000" x="191.96452729598332" y="202.05652900502182" transform="matrix(0.34665411710739136,0,0,0.3466541171073913,-32.05112525200573,216.91057283423856)" svgjs:data="{&quot;leading&quot;:&quot;1.3&quot;}"><tspan dy="0" x="191.96452729598332" svgjs:data="{&quot;newLined&quot;:true}">Player</tspan></text><image width="760" height="304" xlink:href="https://lct-designs.s3.us-west-1.amazonaws.com/assets/libs/vikings-5-1657947358129.png" class="asset" transform="matrix(0.30100151896476746,0,0,0.30100151896476746,133.4887723602456,81.02127246901757)"></image><image width="760" height="489" xlink:href="https://lct-designs.s3.us-west-1.amazonaws.com/assets/libs/vikings-4-1657947358129.png" class="asset" transform="matrix(0.05693748593330383,0,0,0.05693748593330383,89.93869972099077,144.6900360253657)"></image><image width="760" height="489" xlink:href="https://lct-designs.s3.us-west-1.amazonaws.com/assets/libs/vikings-4-1657947358129.png" class="asset" transform="matrix(0.05693748593330383,0,0,0.05693748593330383,89.93867683280669,213.2297255882625)"></image><text fill="#fbf5b1" font-family="Impact" font-size="45" stroke-opacity="1" stroke-width="2" stroke="#000000" x="191.96452729598332" y="202.05652900502182" transform="matrix(0.34665411710739136,0,0,0.3466541171073913,24.66055731583819,118.38701880533449)" svgjs:data="{&quot;leading&quot;:&quot;1.3&quot;}"><tspan dy="0" x="191.96452729598332" svgjs:data="{&quot;newLined&quot;:true}">Player</tspan></text><text fill="#fbf5b1" font-family="Impact" font-size="45" stroke-opacity="1" stroke-width="2" stroke="#000000" x="191.96452729598332" y="202.05652900502182" transform="matrix(0.34665411710739136,0,0,0.3466541171073913,24.66055922318685,187.7022744857419)" svgjs:data="{&quot;leading&quot;:&quot;1.3&quot;}"><tspan dy="0" x="191.96452729598332" svgjs:data="{&quot;newLined&quot;:true}">Player</tspan></text><image width="694" height="760" xlink:href="https://lct-designs.s3.us-west-1.amazonaws.com/assets/libs/vikings-6-1657947358129.png" class="asset" transform="matrix(0.17480258643627167,0,0,0.17480258643627167,201.09766051181464,158.08919097241676)"></image><image width="760" height="489" xlink:href="https://lct-designs.s3.us-west-1.amazonaws.com/assets/libs/vikings-4-1657947358129.png" class="asset" transform="matrix(0.05693748593330383,0,0,0.05693748593330383,367.6059343042565,144.6900360253657)"></image><image width="760" height="489" xlink:href="https://lct-designs.s3.us-west-1.amazonaws.com/assets/libs/vikings-4-1657947358129.png" class="asset" transform="matrix(0.05693748593330383,0,0,0.05693748593330383,367.60578171636257,213.2297255882625)"></image><text fill="#fbf5b1" font-family="Impact" font-size="45" stroke-opacity="1" stroke-width="2" stroke="#000000" x="191.96452729598332" y="202.05652900502182" transform="matrix(0.34665411710739136,0,0,0.3466541171073913,302.32770416106496,186.83035674265417)" svgjs:data="{&quot;leading&quot;:&quot;1.3&quot;}"><tspan dy="0" x="191.96452729598332" svgjs:data="{&quot;newLined&quot;:true}">Player</tspan></text><text fill="#fbf5b1" font-family="Impact" font-size="45" stroke-opacity="1" stroke-width="2" stroke="#000000" x="191.96452729598332" y="202.05652900502182" transform="matrix(0.34665411710739136,0,0,0.3466541171073913,302.32767364348615,118.82296241808896)" svgjs:data="{&quot;leading&quot;:&quot;1.3&quot;}"><tspan dy="0" x="191.96452729598332" svgjs:data="{&quot;newLined&quot;:true}">Player</tspan></text><text fill="#fbf5b1" font-family="Impact" font-size="45" stroke-opacity="1" stroke-width="2" stroke="#000000" x="191.96452729598332" y="202.05652900502182" transform="matrix(0.34665411710739136,0,0,0.3466541171073913,352.88339981255785,82.63954337733665)" svgjs:data="{&quot;leading&quot;:&quot;1.3&quot;}"><tspan dy="0" x="191.96452729598332" svgjs:data="{&quot;newLined&quot;:true}">Player</tspan></text><image width="760" height="489" xlink:href="https://lct-designs.s3.us-west-1.amazonaws.com/assets/libs/vikings-4-1657947358129.png" class="asset" transform="matrix(0.05693748593330383,0,0,0.05693748593330383,418.1615078854343,109.00071184371743)"></image><image width="760" height="489" xlink:href="https://lct-designs.s3.us-west-1.amazonaws.com/assets/libs/vikings-4-1657947358129.png" class="asset" transform="matrix(0.05693748593330383,0,0,0.05693748593330383,418.1615078854343,176.32373420553674)"></image><image width="760" height="489" xlink:href="https://lct-designs.s3.us-west-1.amazonaws.com/assets/libs/vikings-4-1657947358129.png" class="asset" transform="matrix(0.05693748593330383,0,0,0.05693748593330383,418.1614773678556,244.8634237684335)"></image><text fill="#fbf5b1" font-family="Impact" font-size="45" stroke-opacity="1" stroke-width="2" stroke="#000000" x="191.96452729598332" y="202.05652900502182" transform="matrix(0.34665411710739136,0,0,0.3466541171073913,352.88336929497916,148.90315562148928)" svgjs:data="{&quot;leading&quot;:&quot;1.3&quot;}"><tspan dy="0" x="191.96452729598332" svgjs:data="{&quot;newLined&quot;:true}">Player</tspan></text><text fill="#fbf5b1" font-family="Impact" font-size="45" stroke-opacity="1" stroke-width="2" stroke="#000000" x="191.96452729598332" y="202.05652900502182" transform="matrix(0.34665411710739136,0,0,0.3466541171073913,352.88336929497916,218.6543320264671)" svgjs:data="{&quot;leading&quot;:&quot;1.3&quot;}"><tspan dy="0" x="191.96452729598332" svgjs:data="{&quot;newLined&quot;:true}">Player</tspan></text><g class="mask" style="pointer-events: none;"><g><path fill="#BCBEC0" d="M-3642.4-2101.7v4589.1h7813.4v-4589.1H-3642.4z M500.5,67.2v233.3v66.7H0.5v-66.7V67.2V0.5h500V67.2z" transform="matrix(1,0,0,1,0,0)"></path><g transform="matrix(1,0,0,1,0,0)">
	<rect x="0.5" y="300.5" opacity="0.95" fill="#F1F2F2" width="500" height="66.7"></rect>
	<rect x="0.5" y="0.5" opacity="0.95" fill="#F1F2F2" width="500" height="66.7"></rect>
</g></g></g></svg>