<svg xmlns="http://www.w3.org/2000/svg" version="1.1" xmlns:xlink="http://www.w3.org/1999/xlink" xmlns:svgjs="http://svgjs.dev/svgjs" width="100%" height="100%" viewBox="1 1 499 365.70001220703125" preserveAspectRatio="none" data-info="{&quot;_id&quot;:4,&quot;name&quot;:&quot;POLE POCKET SOCCER BANNERS&quot;,&quot;information&quot;:&quot;- Size: 3’x5’\n- Material: heavy duty vinyl banner\n- Digitally printed on vinyl&quot;,&quot;price&quot;:&quot;95.00&quot;,&quot;sale_price&quot;:&quot;89.99&quot;,&quot;type&quot;:&quot;pole-pocket&quot;,&quot;cover&quot;:{&quot;key&quot;:&quot;assets/models/pole-1628062864266-1631924568908.png&quot;,&quot;url&quot;:&quot;https://lct-designs.s3.us-west-1.amazonaws.com/assets/models/pole-1628062864266-1631924568908.png&quot;},&quot;back&quot;:{&quot;key&quot;:&quot;assets/models/pole-1631924700152.svg&quot;,&quot;url&quot;:&quot;https://lct-designs.s3.us-west-1.amazonaws.com/assets/models/pole-1631924700152.svg&quot;},&quot;mask&quot;:{&quot;key&quot;:&quot;assets/models/pole-mask-1631925211715.svg&quot;,&quot;url&quot;:&quot;https://lct-designs.s3.us-west-1.amazonaws.com/assets/models/pole-mask-1631925211715.svg&quot;},&quot;pos&quot;:&quot;2&quot;,&quot;accessories&quot;:&quot;2,3&quot;}" style="background-color: white;"><g class="model" style="pointer-events: none;"><polygon fill="#FFFFFF" points="0.5,0.5 0.5,67.2 0.5,300.5 0.5,367.2 500.5,367.2 500.5,300.5 500.5,67.2 500.5,0.5 "></polygon></g><image width="760" height="556" xlink:href="https://lct-designs.s3.us-west-1.amazonaws.com/assets/libs/dinosaurs-6-1658218949829.png" class="asset background locked" transform="matrix(0.6595323960558116,0,0,0.6595323960558116,0,0)"></image><text fill="#000000" font-family="Impact" font-size="40" x="50.877864861049005" y="201.76359325371294" stroke-opacity="1" stroke-width="1" stroke="#ffffff" transform="matrix(0.22129602730274198,0,0,0.22129602730274198,393.2462546718644,247.0208945172813)" svgjs:data="{&quot;leading&quot;:&quot;1.3&quot;}"><tspan dy="0" x="50.877864861049005" svgjs:data="{&quot;newLined&quot;:true}">COACH: COACH'S NAME</tspan></text><text fill="#000000" font-family="Impact" font-size="40" x="50.877864861049005" y="201.76359325371294" stroke-opacity="1" stroke-width="1" stroke="#ffffff" transform="matrix(0.22129602730274198,0,0,0.22129602730274198,365.9800797776127,47.18167214248802)" svgjs:data="{&quot;leading&quot;:&quot;1.3&quot;}"><tspan dy="0" x="50.877864861049005" svgjs:data="{&quot;newLined&quot;:true}">TEAM MOM: TEAM MOM'S NAME</tspan></text><g class="g-selected"></g><image width="760" height="344" xlink:href="https://lct-designs.s3.us-west-1.amazonaws.com/assets/libs/dinosaurs-3-1658218949829.png" class="asset" transform="matrix(0.3001223802566528,0,0,0.30012238025665283,251.81543502416423,172.05304319706022)"></image><image width="760" height="459" xlink:href="https://lct-designs.s3.us-west-1.amazonaws.com/assets/libs/dinosaurs-2-1658218949828.png" class="asset" transform="matrix(0.20755887031555176,0,0,0.20755887031555176,324.6779548788691,94.30008134418219)"></image><text fill="#ffffff" font-family="Impact" font-size="15" stroke-opacity="1" stroke-width="0.5" stroke="#000000" x="192.06425396743586" y="201.77202054665298" transform="matrix(1,0,0,0.9999999999999999,-166.51543779405858,-57.54473998906315)" svgjs:data="{&quot;leading&quot;:&quot;1.3&quot;}"><tspan dy="0" x="192.06425396743586" svgjs:data="{&quot;newLined&quot;:true}">Player</tspan></text><image width="699" height="760" xlink:href="https://lct-designs.s3.us-west-1.amazonaws.com/assets/libs/dinosaurs-4-1658218949829.png" class="asset" transform="matrix(0.05815763026475906,0,0,0.05815763026475905,24.700073765650245,87.57579226124622)"></image><text fill="#ffffff" font-family="Impact" font-size="15" stroke-opacity="1" stroke-width="0.5" stroke="#000000" x="192.06425396743586" y="201.77202054665298" transform="matrix(1,0,0,0.9999999999999999,-104.20302039682625,-57.54473998906316)" svgjs:data="{&quot;leading&quot;:&quot;1.3&quot;}"><tspan dy="0" x="192.06425396743586" svgjs:data="{&quot;newLined&quot;:true}">Player</tspan></text><image width="699" height="760" xlink:href="https://lct-designs.s3.us-west-1.amazonaws.com/assets/libs/dinosaurs-4-1658218949829.png" class="asset" transform="matrix(0.05815764516592025,0,0,0.05815764516592025,87.01249879227728,87.57579226124622)"></image><text fill="#ffffff" font-family="Impact" font-size="15" stroke-opacity="1" stroke-width="0.5" stroke="#000000" x="192.06425396743586" y="201.77202054665298" transform="matrix(1,0,0,0.9999999999999999,-43.634339303638356,-57.10879637630868)" svgjs:data="{&quot;leading&quot;:&quot;1.3&quot;}"><tspan dy="0" x="192.06425396743586" svgjs:data="{&quot;newLined&quot;:true}">Player</tspan></text><image width="699" height="760" xlink:href="https://lct-designs.s3.us-west-1.amazonaws.com/assets/libs/dinosaurs-4-1658218949829.png" class="asset" transform="matrix(0.05815767496824264,0,0,0.05815767496824263,147.58117988546513,88.01173587400075)"></image><text fill="#ffffff" font-family="Impact" font-size="15" stroke-opacity="1" stroke-width="0.5" stroke="#000000" x="192.06425396743586" y="201.77202054665298" transform="matrix(1,0,0,0.9999999999999999,15.1905978561104,-57.10879637630868)" svgjs:data="{&quot;leading&quot;:&quot;1.3&quot;}"><tspan dy="0" x="192.06425396743586" svgjs:data="{&quot;newLined&quot;:true}">Player</tspan></text><image width="699" height="760" xlink:href="https://lct-designs.s3.us-west-1.amazonaws.com/assets/libs/dinosaurs-4-1658218949829.png" class="asset" transform="matrix(0.05815770104527473,0,0,0.05815770104527473,206.40611704521393,88.01173587400075)"></image><text fill="#ffffff" font-family="Impact" font-size="15" stroke-opacity="1" stroke-width="0.5" stroke="#000000" x="192.06425396743586" y="201.77202054665298" transform="matrix(1,0,0,0.9999999999999999,70.09207301864768,-57.54473998906316)" svgjs:data="{&quot;leading&quot;:&quot;1.3&quot;}"><tspan dy="0" x="192.06425396743586" svgjs:data="{&quot;newLined&quot;:true}">Player</tspan></text><image width="699" height="760" xlink:href="https://lct-designs.s3.us-west-1.amazonaws.com/assets/libs/dinosaurs-4-1658218949829.png" class="asset" transform="matrix(0.05815770104527473,0,0,0.05815770104527473,261.3075922077512,87.57579226124622)"></image><text fill="#ffffff" font-family="Impact" font-size="15" stroke-opacity="1" stroke-width="0.5" stroke="#000000" x="192.06425396743586" y="201.77202054665298" transform="matrix(1,0,0,0.9999999999999999,19.54993480152413,7.411026158036677)" svgjs:data="{&quot;leading&quot;:&quot;1.3&quot;}"><tspan dy="0" x="192.06425396743586" svgjs:data="{&quot;newLined&quot;:true}">Player</tspan></text><image width="699" height="760" xlink:href="https://lct-designs.s3.us-west-1.amazonaws.com/assets/libs/dinosaurs-4-1658218949829.png" class="asset" transform="matrix(0.05815771594643593,0,0,0.05815771594643592,210.76545399062763,152.53155840834606)"></image><text fill="#ffffff" font-family="Impact" font-size="15" stroke-opacity="1" stroke-width="0.5" stroke="#000000" x="192.06425396743586" y="201.77202054665298" transform="matrix(1,0,0,0.9999999999999999,78.37487196127287,7.411026158036677)" svgjs:data="{&quot;leading&quot;:&quot;1.3&quot;}"><tspan dy="0" x="192.06425396743586" svgjs:data="{&quot;newLined&quot;:true}">Player</tspan></text><image width="699" height="760" xlink:href="https://lct-designs.s3.us-west-1.amazonaws.com/assets/libs/dinosaurs-4-1658218949829.png" class="asset" transform="matrix(0.05815774574875831,0,0,0.05815774574875831,269.5903987797711,152.53155840834606)"></image><text fill="#ffffff" font-family="Impact" font-size="15" stroke-opacity="1" stroke-width="0.5" stroke="#000000" x="192.06425396743586" y="201.77202054665298" transform="matrix(1,0,0,0.9999999999999999,16.009346347583005,86.75296216282217)" svgjs:data="{&quot;leading&quot;:&quot;1.3&quot;}"><tspan dy="0" x="192.06425396743586" svgjs:data="{&quot;newLined&quot;:true}">Player</tspan></text><image width="699" height="760" xlink:href="https://lct-designs.s3.us-west-1.amazonaws.com/assets/libs/dinosaurs-4-1658218949829.png" class="asset" transform="matrix(0.05815774574875831,0,0,0.05815774574875831,207.22487316608124,231.8734944131316)"></image><text fill="#ffffff" font-family="Impact" font-size="15" stroke-opacity="1" stroke-width="0.5" stroke="#000000" x="192.06425396743586" y="201.77202054665298" transform="matrix(1,0,0,0.9999999999999999,84.42487514124696,87.18890565636738)" svgjs:data="{&quot;leading&quot;:&quot;1.3&quot;}"><tspan dy="0" x="192.06425396743586" svgjs:data="{&quot;newLined&quot;:true}">Player</tspan></text><image width="699" height="760" xlink:href="https://lct-designs.s3.us-west-1.amazonaws.com/assets/libs/dinosaurs-4-1658218949829.png" class="asset" transform="matrix(0.05815776064991951,0,0,0.0581577606499195,275.6404019597452,232.30943790667675)"></image><g class="mask" style="pointer-events: none;"><g><path fill="#BCBEC0" d="M-3642.4-2101.7v4589.1h7813.4v-4589.1H-3642.4z M500.5,67.2v233.3v66.7H0.5v-66.7V67.2V0.5h500V67.2z" transform="matrix(1,0,0,1,0,0)"></path><g transform="matrix(1,0,0,1,0,0)">
	<rect x="0.5" y="300.5" opacity="0.95" fill="#F1F2F2" width="500" height="66.7"></rect>
	<rect x="0.5" y="0.5" opacity="0.95" fill="#F1F2F2" width="500" height="66.7"></rect>
</g></g></g></svg>