<svg xmlns="http://www.w3.org/2000/svg" version="1.1" xmlns:xlink="http://www.w3.org/1999/xlink" xmlns:svgjs="http://svgjs.dev/svgjs" width="100%" height="100%" viewBox="1 1 499 299" preserveAspectRatio="none" data-info="{&quot;_id&quot;:1,&quot;name&quot;:&quot;HEM &amp; GROMMETS&quot;,&quot;price&quot;:&quot;95.00&quot;,&quot;sale_price&quot;:&quot;89.99&quot;,&quot;cover&quot;:{&quot;key&quot;:&quot;assets/models/hem-1628062436886-1630830942566.png&quot;,&quot;url&quot;:&quot;https://lct-designs.s3.us-west-1.amazonaws.com/assets/models/hem-1628062436886-1630830942566.png&quot;},&quot;back&quot;:{&quot;key&quot;:&quot;assets/models/hem-1630831057346.svg&quot;,&quot;url&quot;:&quot;https://lct-designs.s3.us-west-1.amazonaws.com/assets/models/hem-1630831057346.svg&quot;},&quot;mask&quot;:{&quot;key&quot;:&quot;assets/models/hem.mask-1630831063496.svg&quot;,&quot;url&quot;:&quot;https://lct-designs.s3.us-west-1.amazonaws.com/assets/models/hem.mask-1630831063496.svg&quot;},&quot;information&quot;:&quot;Size 3'x5'&quot;,&quot;type&quot;:&quot;hem-grommet&quot;,&quot;pos&quot;:&quot;1&quot;,&quot;accessories&quot;:&quot;2,3&quot;,&quot;width&quot;:&quot;60&quot;,&quot;height&quot;:&quot;36&quot;}" style="background-color: white;"><g class="model" style="pointer-events: none;"><rect x="0.5" y="0.5" fill="none" stroke="#000000" stroke-miterlimit="10" width="500" height="300"></rect></g><image width="760" height="455" xlink:href="https://lct-designs.s3.us-west-1.amazonaws.com/assets/libs/sparklers-5-1658393694005.png" class="asset background locked" transform="matrix(0.6593406593406593,0,0,0.6593406593406593,0,0)"></image><text fill="#000000" font-family="Impact" font-size="14" stroke-opacity="1" stroke-width="0.5" stroke="#ffe63d" x="167.64845027836904" y="156.88280986644864" transform="matrix(0.8312618136405945,0,0,0.8312618136405945,-114.15355682373047,-108.43299871683121)" svgjs:data="{&quot;leading&quot;:&quot;1.3&quot;}"><tspan dy="0" x="167.64845027836904" svgjs:data="{&quot;newLined&quot;:true}">Coach: Coach 's name</tspan></text><text fill="#000000" font-family="Impact" font-size="14" x="145.93749321435945" y="156.15624665827357" stroke-opacity="1" stroke-width="0.5" stroke="#ffe63d" transform="matrix(0.8312618136405945,0,0,0.8312618136405945,217.0462951660156,-108.34938055276871)" svgjs:data="{&quot;leading&quot;:&quot;1.3&quot;}"><tspan dy="0" x="145.93749321435945" svgjs:data="{&quot;newLined&quot;:true}">Team mom: Team mom's name</tspan></text><image width="760" height="426" xlink:href="https://lct-designs.s3.us-west-1.amazonaws.com/assets/libs/sparklers-3-1658393694005.png" class="asset" transform="matrix(0.17051087319850922,0,0,0.1705108731985092,190.09524536132812,158.0712279677391)"></image><image width="547" height="760" xlink:href="https://lct-designs.s3.us-west-1.amazonaws.com/assets/libs/sparklers-1658393694006.png" class="asset" transform="matrix(0.2798439860343933,0,0,0.2798439860343933,332.4165344238281,79.9999846816063)"></image><image width="760" height="172" xlink:href="https://lct-designs.s3.us-west-1.amazonaws.com/assets/libs/sparklers-2-1658393694005.png" class="asset" transform="matrix(0.4208418428897857,0,0,0.42084184288978577,20.796039581298825,211.36714166402817)"></image><g class="" transform="matrix(0.9343472123146056,0,0,0.9343472123146057,214.8412170410156,-104.21237188577652)"><text fill="#ffe63d" font-family="Impact" font-size="16" x="196.88280571435945" y="167.07812165827357" stroke-opacity="1" stroke-width="1" stroke="#000000" transform="matrix(1.1249361038208008,0,0,1.1249361038208008,-207.18206787109375,-6.5868682861328125)" svgjs:data="{&quot;leading&quot;:&quot;1.3&quot;}"><tspan dy="0" x="196.88280571435945" svgjs:data="{&quot;newLined&quot;:true}">Player</tspan></text><image width="760" height="726" xlink:href="https://lct-designs.s3.us-west-1.amazonaws.com/assets/libs/sparklers-4-1658393694005.png" class="asset" transform="matrix(0.0818585529923439,0,0,0.0818585529923439,35.60975646972656,154.91976928710938)"></image></g><g class="" transform="matrix(0.9343472123146056,0,0,0.9343472123146057,4.8412705063819885,-104.21237188577652)"><text fill="#ffe63d" font-family="Impact" font-size="16" x="196.88280571435945" y="167.07812165827357" stroke-opacity="1" stroke-width="1" stroke="#000000" transform="matrix(1.1249361038208008,0,0,1.1249361038208008,-207.18206787109375,-6.5868682861328125)" svgjs:data="{&quot;leading&quot;:&quot;1.3&quot;}"><tspan dy="0" x="196.88280571435945" svgjs:data="{&quot;newLined&quot;:true}">Player</tspan></text><image width="760" height="726" xlink:href="https://lct-designs.s3.us-west-1.amazonaws.com/assets/libs/sparklers-4-1658393694005.png" class="asset" transform="matrix(0.0818585529923439,0,0,0.0818585529923439,35.60975646972656,154.91976928710938)"></image></g><g class="" transform="matrix(0.9343472123146056,0,0,0.9343472123146057,108.01199340820312,-104.21237188577652)"><text fill="#ffe63d" font-family="Impact" font-size="16" x="196.88280571435945" y="167.07812165827357" stroke-opacity="1" stroke-width="1" stroke="#000000" transform="matrix(1.1249361038208008,0,0,1.1249361038208008,-207.18206787109375,-6.5868682861328125)" svgjs:data="{&quot;leading&quot;:&quot;1.3&quot;}"><tspan dy="0" x="196.88280571435945" svgjs:data="{&quot;newLined&quot;:true}">Player</tspan></text><image width="760" height="726" xlink:href="https://lct-designs.s3.us-west-1.amazonaws.com/assets/libs/sparklers-4-1658393694005.png" class="asset" transform="matrix(0.0818585529923439,0,0,0.0818585529923439,35.60975646972656,154.91976928710938)"></image></g><g class="" transform="matrix(0.9343472123146056,0,0,0.9343472123146057,317.03631591796875,-104.21237188577652)"><text fill="#ffe63d" font-family="Impact" font-size="16" x="196.88280571435945" y="167.07812165827357" stroke-opacity="1" stroke-width="1" stroke="#000000" transform="matrix(1.1249361038208008,0,0,1.1249361038208008,-207.18206787109375,-6.5868682861328125)" svgjs:data="{&quot;leading&quot;:&quot;1.3&quot;}"><tspan dy="0" x="196.88280571435945" svgjs:data="{&quot;newLined&quot;:true}">Player</tspan></text><image width="760" height="726" xlink:href="https://lct-designs.s3.us-west-1.amazonaws.com/assets/libs/sparklers-4-1658393694005.png" class="asset" transform="matrix(0.0818585529923439,0,0,0.0818585529923439,35.60975646972656,154.91976928710938)"></image></g><g class="" transform="matrix(0.9343472123146056,0,0,0.9343472123146057,243.13389587402344,-47.38311392068862)"><text fill="#ffe63d" font-family="Impact" font-size="16" x="196.88280571435945" y="167.07812165827357" stroke-opacity="1" stroke-width="1" stroke="#000000" transform="matrix(1.1249361038208008,0,0,1.1249361038208008,-207.18206787109375,-6.5868682861328125)" svgjs:data="{&quot;leading&quot;:&quot;1.3&quot;}"><tspan dy="0" x="196.88280571435945" svgjs:data="{&quot;newLined&quot;:true}">Player</tspan></text><image width="760" height="726" xlink:href="https://lct-designs.s3.us-west-1.amazonaws.com/assets/libs/sparklers-4-1658393694005.png" class="asset" transform="matrix(0.0818585529923439,0,0,0.0818585529923439,35.60975646972656,154.91976928710938)"></image></g><g class="" transform="matrix(0.9343472123146056,0,0,0.9343472123146057,24.109523773193356,-47.383110105991356)"><text fill="#ffe63d" font-family="Impact" font-size="16" x="196.88280571435945" y="167.07812165827357" stroke-opacity="1" stroke-width="1" stroke="#000000" transform="matrix(1.1249361038208008,0,0,1.1249361038208008,-207.18206787109375,-6.5868682861328125)" svgjs:data="{&quot;leading&quot;:&quot;1.3&quot;}"><tspan dy="0" x="196.88280571435945" svgjs:data="{&quot;newLined&quot;:true}">Player</tspan></text><image width="760" height="726" xlink:href="https://lct-designs.s3.us-west-1.amazonaws.com/assets/libs/sparklers-4-1658393694005.png" class="asset" transform="matrix(0.0818585529923439,0,0,0.0818585529923439,35.60975646972656,154.91976928710938)"></image></g><g class="" transform="matrix(0.9343472123146056,0,0,0.9343472123146057,132.15829467773435,-47.383110105991356)"><text fill="#ffe63d" font-family="Impact" font-size="16" x="196.88280571435945" y="167.07812165827357" stroke-opacity="1" stroke-width="1" stroke="#000000" transform="matrix(1.1249361038208008,0,0,1.1249361038208008,-207.18206787109375,-6.5868682861328125)" svgjs:data="{&quot;leading&quot;:&quot;1.3&quot;}"><tspan dy="0" x="196.88280571435945" svgjs:data="{&quot;newLined&quot;:true}">Player</tspan></text><image width="760" height="726" xlink:href="https://lct-designs.s3.us-west-1.amazonaws.com/assets/libs/sparklers-4-1658393694005.png" class="asset" transform="matrix(0.0818585529923439,0,0,0.0818585529923439,35.60975646972656,154.91976928710938)"></image></g><g class="" transform="matrix(0.9343472123146056,0,0,0.9343472123146057,219.96318054199216,8.22662729024887)"><text fill="#ffe63d" font-family="Impact" font-size="16" x="196.88280571435945" y="167.07812165827357" stroke-opacity="1" stroke-width="1" stroke="#000000" transform="matrix(1.1249361038208008,0,0,1.1249361038208008,-207.18206787109375,-6.5868682861328125)" svgjs:data="{&quot;leading&quot;:&quot;1.3&quot;}"><tspan dy="0" x="196.88280571435945" svgjs:data="{&quot;newLined&quot;:true}">Player</tspan></text><image width="760" height="726" xlink:href="https://lct-designs.s3.us-west-1.amazonaws.com/assets/libs/sparklers-4-1658393694005.png" class="asset" transform="matrix(0.0818585529923439,0,0,0.0818585529923439,35.60975646972656,154.91976928710938)"></image></g><g class="" transform="matrix(0.9343472123146056,0,0,0.9343472123146057,108.98757934570312,8.226631104946136)"><text fill="#ffe63d" font-family="Impact" font-size="16" x="196.88280571435945" y="167.07812165827357" stroke-opacity="1" stroke-width="1" stroke="#000000" transform="matrix(1.1249361038208008,0,0,1.1249361038208008,-207.18206787109375,-6.5868682861328125)" svgjs:data="{&quot;leading&quot;:&quot;1.3&quot;}"><tspan dy="0" x="196.88280571435945" svgjs:data="{&quot;newLined&quot;:true}">Player</tspan></text><image width="760" height="726" xlink:href="https://lct-designs.s3.us-west-1.amazonaws.com/assets/libs/sparklers-4-1658393694005.png" class="asset" transform="matrix(0.0818585529923439,0,0,0.0818585529923439,35.60975646972656,154.91976928710938)"></image></g><g class="" transform="matrix(0.9343472123146056,0,0,0.9343472123146057,0.9388084411621094,8.226631104946136)"><text fill="#ffe63d" font-family="Impact" font-size="16" x="196.88280571435945" y="167.07812165827357" stroke-opacity="1" stroke-width="1" stroke="#000000" transform="matrix(1.1249361038208008,0,0,1.1249361038208008,-207.18206787109375,-6.5868682861328125)" svgjs:data="{&quot;leading&quot;:&quot;1.3&quot;}"><tspan dy="0" x="196.88280571435945" svgjs:data="{&quot;newLined&quot;:true}">Player</tspan></text><image width="760" height="726" xlink:href="https://lct-designs.s3.us-west-1.amazonaws.com/assets/libs/sparklers-4-1658393694005.png" class="asset" transform="matrix(0.0818585529923439,0,0,0.0818585529923439,35.60975646972656,154.91976928710938)"></image></g><g class="mask" style="pointer-events: none;"><path fill="#777777" enable-background="new    " d="M-1684.9-1014.6v2330.1h3870.8v-2330.1H-1684.9z M500.5,300.5H0.5V0.5h500
	V300.5z"></path></g></svg>