<svg xmlns="http://www.w3.org/2000/svg" version="1.1" xmlns:xlink="http://www.w3.org/1999/xlink" xmlns:svgjs="http://svgjs.dev/svgjs" width="100%" height="100%" viewBox="1 1 499 365.70001220703125" preserveAspectRatio="none" data-info="{&quot;_id&quot;:4,&quot;name&quot;:&quot;POLE POCKET SOCCER BANNERS&quot;,&quot;information&quot;:&quot;- Size: 3’x5’\n- Material: heavy duty vinyl banner\n- Digitally printed on vinyl&quot;,&quot;price&quot;:&quot;95.00&quot;,&quot;sale_price&quot;:&quot;89.99&quot;,&quot;type&quot;:&quot;pole-pocket&quot;,&quot;cover&quot;:{&quot;key&quot;:&quot;assets/models/pole-1628062864266-1631924568908.png&quot;,&quot;url&quot;:&quot;https://lct-designs.s3.us-west-1.amazonaws.com/assets/models/pole-1628062864266-1631924568908.png&quot;},&quot;back&quot;:{&quot;key&quot;:&quot;assets/models/pole-1631924700152.svg&quot;,&quot;url&quot;:&quot;https://lct-designs.s3.us-west-1.amazonaws.com/assets/models/pole-1631924700152.svg&quot;},&quot;mask&quot;:{&quot;key&quot;:&quot;assets/models/pole-mask-1631925211715.svg&quot;,&quot;url&quot;:&quot;https://lct-designs.s3.us-west-1.amazonaws.com/assets/models/pole-mask-1631925211715.svg&quot;},&quot;pos&quot;:&quot;2&quot;,&quot;accessories&quot;:&quot;2,3&quot;}" style="background-color: white;"><g class="model" style="pointer-events: none;"><polygon fill="#FFFFFF" points="0.5,0.5 0.5,67.2 0.5,300.5 0.5,367.2 500.5,367.2 500.5,300.5 500.5,67.2 500.5,0.5 "></polygon></g><image width="760" height="556" xlink:href="https://lct-designs.s3.us-west-1.amazonaws.com/assets/libs/phoenix-3-1659347082366.png" class="asset background locked" transform="matrix(0.6595323960558116,0,0,0.6595323960558116,0,0)"></image><text fill="#ffffff" font-family="Impact" font-size="30" x="98.76859534095519" y="200.29758274106018" stroke-opacity="1" stroke-width="1" stroke="#000000" transform="matrix(0.30318188667297363,0,0,0.3031818866729736,349.3568494448518,230.21059142664953)" svgjs:data="{&quot;leading&quot;:&quot;1.3&quot;}"><tspan dy="0" x="98.76859534095519" svgjs:data="{&quot;newLined&quot;:true}">Team mom: Team mom's name</tspan><tspan dy="39" x="98.76859534095519" svgjs:data="{&quot;newLined&quot;:true}"></tspan><tspan dy="39" x="98.76859534095519" svgjs:data="{&quot;newLined&quot;:true}"></tspan></text><text fill="#ffffff" font-family="Impact" font-size="30" x="98.76859534095519" y="200.29758274106018" stroke-opacity="1" stroke-width="1" stroke="#000000" transform="matrix(0.30318188667297363,0,0,0.3031818866729736,-13.289983077366756,230.71750366883774)" svgjs:data="{&quot;leading&quot;:&quot;1.3&quot;}"><tspan dy="0" x="98.76859534095519" svgjs:data="{&quot;newLined&quot;:true}">Coach: Coach's name</tspan><tspan dy="39" x="98.76859534095519" svgjs:data="{&quot;newLined&quot;:true}"></tspan></text><image width="760" height="225" xlink:href="https://lct-designs.s3.us-west-1.amazonaws.com/assets/libs/phoenix-1-1659347082364.png" class="asset" transform="matrix(0.3330734074115753,0,0,0.33307340741157526,20.394020512772016,85.71785154804323)"></image><image width="760" height="200" xlink:href="https://lct-designs.s3.us-west-1.amazonaws.com/assets/libs/dragons-1-1659323464109.png" class="asset" transform="matrix(0.12472249567508696,0,0,0.12472249567508698,20.13622708079501,181.9626198230871)"></image><text fill="#ffffff" font-family="Impact" font-size="19" stroke-opacity="1" stroke-width="1" stroke="#000000" x="194.85435950372326" y="199.9432435622577" transform="matrix(0.8641250729560851,0,0,0.8831912279129028,-123.68801379072406,25.347765506061208)" svgjs:data="{&quot;leading&quot;:&quot;1.3&quot;}"><tspan dy="0" x="194.85435950372326" svgjs:data="{&quot;newLined&quot;:true}">PLAYER</tspan></text><image width="760" height="200" xlink:href="https://lct-designs.s3.us-west-1.amazonaws.com/assets/libs/dragons-1-1659323464109.png" class="asset" transform="matrix(0.12472248822450638,0,0,0.12472248822450636,20.13622326609763,219.36075293987557)"></image><text fill="#ffffff" font-family="Impact" font-size="19" stroke-opacity="1" stroke-width="1" stroke="#000000" x="194.85435950372326" y="199.9432435622577" transform="matrix(0.8641250729560851,0,0,0.8831912279129028,-123.68801379072406,62.74590053019833)" svgjs:data="{&quot;leading&quot;:&quot;1.3&quot;}"><tspan dy="0" x="194.85435950372326" svgjs:data="{&quot;newLined&quot;:true}">PLAYER</tspan></text><image width="760" height="200" xlink:href="https://lct-designs.s3.us-west-1.amazonaws.com/assets/libs/dragons-1-1659323464109.png" class="asset" transform="matrix(0.12472248822450638,0,0,0.12472248822450636,20.136238524887034,253.95406116812046)"></image><text fill="#ffffff" font-family="Impact" font-size="19" stroke-opacity="1" stroke-width="1" stroke="#000000" x="194.85435950372326" y="199.9432435622577" transform="matrix(0.8641250729560851,0,0,0.8831912279129028,-123.68801379072406,97.33919731435115)" svgjs:data="{&quot;leading&quot;:&quot;1.3&quot;}"><tspan dy="0" x="194.85435950372326" svgjs:data="{&quot;newLined&quot;:true}">PLAYER</tspan></text><image width="760" height="200" xlink:href="https://lct-designs.s3.us-west-1.amazonaws.com/assets/libs/dragons-1-1659323464109.png" class="asset" transform="matrix(0.12472249567508696,0,0,0.12472249567508698,146.53137517571685,181.52667621033265)"></image><text fill="#ffffff" font-family="Impact" font-size="19" stroke-opacity="1" stroke-width="1" stroke="#000000" x="194.85435950372326" y="199.9432435622577" transform="matrix(0.8641255497932433,0,0,0.8831912279129028,2.7071304895004857,24.911821893306737)" svgjs:data="{&quot;leading&quot;:&quot;1.3&quot;}"><tspan dy="0" x="194.85435950372326" svgjs:data="{&quot;newLined&quot;:true}">PLAYER</tspan></text><image width="760" height="200" xlink:href="https://lct-designs.s3.us-west-1.amazonaws.com/assets/libs/dragons-1-1659323464109.png" class="asset" transform="matrix(0.12472248822450638,0,0,0.12472248822450636,146.53137517571685,218.92480932712107)"></image><text fill="#ffffff" font-family="Impact" font-size="19" stroke-opacity="1" stroke-width="1" stroke="#000000" x="194.85435950372326" y="199.9432435622577" transform="matrix(0.8641255497932433,0,0,0.8831912279129028,2.7071304895004857,62.30995691744384)" svgjs:data="{&quot;leading&quot;:&quot;1.3&quot;}"><tspan dy="0" x="194.85435950372326" svgjs:data="{&quot;newLined&quot;:true}">PLAYER</tspan></text><image width="760" height="200" xlink:href="https://lct-designs.s3.us-west-1.amazonaws.com/assets/libs/dragons-1-1659323464109.png" class="asset" transform="matrix(0.12472248822450638,0,0,0.12472248822450636,146.5313904345063,253.51811755536602)"></image><text fill="#ffffff" font-family="Impact" font-size="19" stroke-opacity="1" stroke-width="1" stroke="#000000" x="194.85435950372326" y="199.9432435622577" transform="matrix(0.8641255497932433,0,0,0.8831912279129028,2.7071304895004857,96.90325370159671)" svgjs:data="{&quot;leading&quot;:&quot;1.3&quot;}"><tspan dy="0" x="194.85435950372326" svgjs:data="{&quot;newLined&quot;:true}">PLAYER</tspan></text><image width="760" height="200" xlink:href="https://lct-designs.s3.us-west-1.amazonaws.com/assets/libs/dragons-1-1659323464109.png" class="asset" transform="matrix(0.12472249567508696,0,0,0.12472249567508698,274.6702633893805,181.0907325975782)"></image><text fill="#ffffff" font-family="Impact" font-size="19" stroke-opacity="1" stroke-width="1" stroke="#000000" x="194.85435950372326" y="199.9432435622577" transform="matrix(0.864125669002533,0,0,0.8831912279129028,130.84602633255884,24.47587828055225)" svgjs:data="{&quot;leading&quot;:&quot;1.3&quot;}"><tspan dy="0" x="194.85435950372326" svgjs:data="{&quot;newLined&quot;:true}">PLAYER</tspan></text><image width="760" height="200" xlink:href="https://lct-designs.s3.us-west-1.amazonaws.com/assets/libs/dragons-1-1659323464109.png" class="asset" transform="matrix(0.12472248822450638,0,0,0.12472248822450636,274.6702633893805,218.48886571436663)"></image><text fill="#ffffff" font-family="Impact" font-size="19" stroke-opacity="1" stroke-width="1" stroke="#000000" x="194.85435950372326" y="199.9432435622577" transform="matrix(0.864125669002533,0,0,0.8831912279129028,130.84602633255884,61.87401330468937)" svgjs:data="{&quot;leading&quot;:&quot;1.3&quot;}"><tspan dy="0" x="194.85435950372326" svgjs:data="{&quot;newLined&quot;:true}">PLAYER</tspan></text><image width="760" height="200" xlink:href="https://lct-designs.s3.us-west-1.amazonaws.com/assets/libs/dragons-1-1659323464109.png" class="asset" transform="matrix(0.12472248822450638,0,0,0.12472248822450636,274.6702939069594,253.08217394261152)"></image><text fill="#ffffff" font-family="Impact" font-size="19" stroke-opacity="1" stroke-width="1" stroke="#000000" x="194.85435950372326" y="199.9432435622577" transform="matrix(0.864125669002533,0,0,0.8831912279129028,130.84602633255884,96.46731008884221)" svgjs:data="{&quot;leading&quot;:&quot;1.3&quot;}"><tspan dy="0" x="194.85435950372326" svgjs:data="{&quot;newLined&quot;:true}">PLAYER</tspan></text><image width="760" height="200" xlink:href="https://lct-designs.s3.us-west-1.amazonaws.com/assets/libs/dragons-1-1659323464109.png" class="asset" transform="matrix(0.12472249567508696,0,0,0.12472249567508698,393.6544883230941,181.0907326571828)"></image><text fill="#ffffff" font-family="Impact" font-size="19" stroke-opacity="1" stroke-width="1" stroke="#000000" x="194.85435950372326" y="199.9432435622577" transform="matrix(0.8641257882118224,0,0,0.8831912279129028,249.83025126627246,24.47587834015691)" svgjs:data="{&quot;leading&quot;:&quot;1.3&quot;}"><tspan dy="0" x="194.85435950372326" svgjs:data="{&quot;newLined&quot;:true}">PLAYER</tspan></text><image width="760" height="200" xlink:href="https://lct-designs.s3.us-west-1.amazonaws.com/assets/libs/dragons-1-1659323464109.png" class="asset" transform="matrix(0.12472248822450638,0,0,0.12472248822450636,393.6544883230941,218.48886577397127)"></image><text fill="#ffffff" font-family="Impact" font-size="19" stroke-opacity="1" stroke-width="1" stroke="#000000" x="194.85435950372326" y="199.9432435622577" transform="matrix(0.8641257882118224,0,0,0.8831912279129028,249.83025126627246,61.874013364294)" svgjs:data="{&quot;leading&quot;:&quot;1.3&quot;}"><tspan dy="0" x="194.85435950372326" svgjs:data="{&quot;newLined&quot;:true}">PLAYER</tspan></text><image width="760" height="200" xlink:href="https://lct-designs.s3.us-west-1.amazonaws.com/assets/libs/dragons-1-1659323464109.png" class="asset" transform="matrix(0.12472248822450638,0,0,0.12472248822450636,393.6545188406729,253.08217400221616)"></image><text fill="#ffffff" font-family="Impact" font-size="19" stroke-opacity="1" stroke-width="1" stroke="#000000" x="194.85435950372326" y="199.9432435622577" transform="matrix(0.8641257882118224,0,0,0.8831912279129028,249.83025126627246,96.46731014844686)" svgjs:data="{&quot;leading&quot;:&quot;1.3&quot;}"><tspan dy="0" x="194.85435950372326" svgjs:data="{&quot;newLined&quot;:true}">PLAYER</tspan></text><g class="mask" style="pointer-events: none;"><g><path fill="#BCBEC0" d="M-3642.4-2101.7v4589.1h7813.4v-4589.1H-3642.4z M500.5,67.2v233.3v66.7H0.5v-66.7V67.2V0.5h500V67.2z" transform="matrix(1,0,0,1,0,0)"></path><g transform="matrix(1,0,0,1,0,0)">
	<rect x="0.5" y="300.5" opacity="0.95" fill="#F1F2F2" width="500" height="66.7"></rect>
	<rect x="0.5" y="0.5" opacity="0.95" fill="#F1F2F2" width="500" height="66.7"></rect>
</g></g></g></svg>