<svg xmlns="http://www.w3.org/2000/svg" version="1.1" xmlns:xlink="http://www.w3.org/1999/xlink" xmlns:svgjs="http://svgjs.dev/svgjs" width="100%" height="100%" viewBox="1 1 499 365.70001220703125" preserveAspectRatio="none" data-info="{&quot;_id&quot;:4,&quot;name&quot;:&quot;POLE POCKET SOCCER BANNERS&quot;,&quot;information&quot;:&quot;- Size: 3’x5’\n- Material: heavy duty vinyl banner\n- Digitally printed on vinyl&quot;,&quot;price&quot;:&quot;95.00&quot;,&quot;sale_price&quot;:&quot;89.99&quot;,&quot;type&quot;:&quot;pole-pocket&quot;,&quot;cover&quot;:{&quot;key&quot;:&quot;assets/models/pole-1628062864266-1631924568908.png&quot;,&quot;url&quot;:&quot;https://lct-designs.s3.us-west-1.amazonaws.com/assets/models/pole-1628062864266-1631924568908.png&quot;},&quot;back&quot;:{&quot;key&quot;:&quot;assets/models/pole-1631924700152.svg&quot;,&quot;url&quot;:&quot;https://lct-designs.s3.us-west-1.amazonaws.com/assets/models/pole-1631924700152.svg&quot;},&quot;mask&quot;:{&quot;key&quot;:&quot;assets/models/pole-mask-1631925211715.svg&quot;,&quot;url&quot;:&quot;https://lct-designs.s3.us-west-1.amazonaws.com/assets/models/pole-mask-1631925211715.svg&quot;},&quot;pos&quot;:&quot;2&quot;,&quot;accessories&quot;:&quot;2,3&quot;}" style="background-color: white;"><g class="model" style="pointer-events: none;"><polygon fill="#FFFFFF" points="0.5,0.5 0.5,67.2 0.5,300.5 0.5,367.2 500.5,367.2 500.5,300.5 500.5,67.2 500.5,0.5 "></polygon></g><image width="760" height="556" xlink:href="https://lct-designs.s3.us-west-1.amazonaws.com/assets/libs/cowboys-5-1659077446672.png" class="asset background locked" transform="matrix(0.6595323960558116,0,0,0.6595323960558116,0,0)"></image><text fill="#000000" font-family="Impact" font-size="45" x="50.877864861049005" y="201.76359325371294" stroke-opacity="1" stroke-width="1" stroke="#ffffff" transform="matrix(0.22129602730274203,0,0,0.22129602730274203,383.7861409459879,44.17405794300619)" svgjs:data="{&quot;leading&quot;:&quot;1.3&quot;}"><tspan dy="0" x="50.877864861049005" svgjs:data="{&quot;newLined&quot;:true}">COACH: COACH'S NAME</tspan></text><text fill="#000000" font-family="Impact" font-size="45" x="50.877864861049005" y="201.76359325371294" stroke-opacity="1" stroke-width="-1" stroke="#ffffff" transform="matrix(0.22129602730274203,0,0,0.22129602730274203,0.7535803477728251,44.205529196114554)" svgjs:data="{&quot;leading&quot;:&quot;1.3&quot;}"><tspan dy="0" x="50.877864861049005" svgjs:data="{&quot;newLined&quot;:true}">TEAM MOM: TEAM MOM'S NAME</tspan></text><text fill="#ffffff" font-family="Impact" font-size="15" stroke-opacity="1" stroke-width="0.5" stroke="#000000" x="192.063660189713" y="201.79391883677104" transform="matrix(0.9875075221061708,0,0,0.9875075221061707,-167.1621892115736,-62.93029537053194)" svgjs:data="{&quot;leading&quot;:&quot;1.3&quot;}"><tspan dy="0" x="192.063660189713" svgjs:data="{&quot;newLined&quot;:true}">Player</tspan></text><image width="759" height="454" xlink:href="https://lct-designs.s3.us-west-1.amazonaws.com/assets/libs/cowboys-1659077446672.png" class="asset" transform="matrix(0.05224999040365219,0,0,0.0522499904036522,21.960800636308434,101.1249792549339)"></image><text fill="#ffffff" font-family="Impact" font-size="15" stroke-opacity="1" stroke-width="0.5" stroke="#000000" x="192.063660189713" y="201.79391883677104" transform="matrix(0.9875075221061708,0,0,0.9875075221061707,-89.83983039516498,-63.33586636301382)" svgjs:data="{&quot;leading&quot;:&quot;1.3&quot;}"><tspan dy="0" x="192.063660189713" svgjs:data="{&quot;newLined&quot;:true}">Player</tspan></text><image width="759" height="454" xlink:href="https://lct-designs.s3.us-west-1.amazonaws.com/assets/libs/cowboys-1659077446672.png" class="asset" transform="matrix(0.05224999785423279,0,0,0.05224999785423279,99.28315945271707,100.719408262452)"></image><text fill="#ffffff" font-family="Impact" font-size="15" stroke-opacity="1" stroke-width="0.5" stroke="#000000" x="192.063660189713" y="201.79391883677104" transform="matrix(0.9875075221061708,0,0,0.9875075221061707,-6.295211925405098,-63.33585873361913)" svgjs:data="{&quot;leading&quot;:&quot;1.3&quot;}"><tspan dy="0" x="192.063660189713" svgjs:data="{&quot;newLined&quot;:true}">Player</tspan></text><image width="759" height="454" xlink:href="https://lct-designs.s3.us-west-1.amazonaws.com/assets/libs/cowboys-1659077446672.png" class="asset" transform="matrix(0.05224999785423279,0,0,0.05224999785423279,182.8277779224769,100.71941589184671)"></image><text fill="#ffffff" font-family="Impact" font-size="15" stroke-opacity="1" stroke-width="0.5" stroke="#000000" x="192.063660189713" y="201.79391883677104" transform="matrix(0.9875075221061708,0,0,0.9875075221061707,71.02714689100354,-63.74142972610102)" svgjs:data="{&quot;leading&quot;:&quot;1.3&quot;}"><tspan dy="0" x="192.063660189713" svgjs:data="{&quot;newLined&quot;:true}">Player</tspan></text><image width="759" height="454" xlink:href="https://lct-designs.s3.us-west-1.amazonaws.com/assets/libs/cowboys-1659077446672.png" class="asset" transform="matrix(0.052250005304813385,0,0,0.052250005304813385,260.150151997675,100.31384489936481)"></image><image width="760" height="238" xlink:href="https://lct-designs.s3.us-west-1.amazonaws.com/assets/libs/cowboys-2-1659077446671.png" class="asset" transform="matrix(0.3087911307811737,0,0,0.30879113078117376,68.19423820059528,191.62021280119575)"></image><image width="653" height="760" xlink:href="https://lct-designs.s3.us-west-1.amazonaws.com/assets/libs/cowboys-1-1659077446670.png" class="asset" transform="matrix(0.21589170396327972,0,0,0.21589170396327975,346.649451926537,105.36638101718422)"></image><text fill="#ffffff" font-family="Impact" font-size="15" stroke-opacity="1" stroke-width="0.5" stroke="#000000" x="192.063660189713" y="201.79391883677104" transform="matrix(0.9875075221061708,0,0,0.9875075221061707,98.46602076352467,84.28806483561321)" svgjs:data="{&quot;leading&quot;:&quot;1.3&quot;}"><tspan dy="0" x="192.063660189713" svgjs:data="{&quot;newLined&quot;:true}">Player</tspan></text><image width="759" height="454" xlink:href="https://lct-designs.s3.us-west-1.amazonaws.com/assets/libs/cowboys-1659077446672.png" class="asset" transform="matrix(0.05225007236003876,0,0,0.05225007236003876,287.5890258701961,248.34334327577642)"></image><text fill="#ffffff" font-family="Impact" font-size="15" stroke-opacity="1" stroke-width="0.5" stroke="#000000" x="192.063660189713" y="201.79391883677104" transform="matrix(0.9875075221061708,0,0,0.9875075221061707,175.7883795799333,83.88249384313131)" svgjs:data="{&quot;leading&quot;:&quot;1.3&quot;}"><tspan dy="0" x="192.063660189713" svgjs:data="{&quot;newLined&quot;:true}">Player</tspan></text><image width="759" height="454" xlink:href="https://lct-designs.s3.us-west-1.amazonaws.com/assets/libs/cowboys-1659077446672.png" class="asset" transform="matrix(0.05225008353590966,0,0,0.05225008353590966,364.9113846866047,247.93776465389988)"></image><text fill="#ffffff" font-family="Impact" font-size="15" stroke-opacity="1" stroke-width="0.5" stroke="#000000" x="192.063660189713" y="201.79391883677104" transform="matrix(0.9875075221061708,0,0,0.9875075221061707,-132.4232663562193,-19.535351213568575)" svgjs:data="{&quot;leading&quot;:&quot;1.3&quot;}"><tspan dy="0" x="192.063660189713" svgjs:data="{&quot;newLined&quot;:true}">Player</tspan></text><image width="759" height="454" xlink:href="https://lct-designs.s3.us-west-1.amazonaws.com/assets/libs/cowboys-1659077446672.png" class="asset" transform="matrix(0.05224999785423279,0,0,0.05224999785423279,56.69972349166274,144.51992341189725)"></image><text fill="#ffffff" font-family="Impact" font-size="15" stroke-opacity="1" stroke-width="0.5" stroke="#000000" x="192.063660189713" y="201.79391883677104" transform="matrix(0.9875075221061708,0,0,0.9875075221061707,-55.10090753981066,-19.940922206050466)" svgjs:data="{&quot;leading&quot;:&quot;1.3&quot;}"><tspan dy="0" x="192.063660189713" svgjs:data="{&quot;newLined&quot;:true}">Player</tspan></text><image width="759" height="454" xlink:href="https://lct-designs.s3.us-west-1.amazonaws.com/assets/libs/cowboys-1659077446672.png" class="asset" transform="matrix(0.05225001275539398,0,0,0.05225001275539399,134.0220823080714,144.1143524194154)"></image><text fill="#ffffff" font-family="Impact" font-size="15" stroke-opacity="1" stroke-width="0.5" stroke="#000000" x="192.063660189713" y="201.79391883677104" transform="matrix(0.9875075221061708,0,0,0.9875075221061707,28.443710929949233,-19.940914576655768)" svgjs:data="{&quot;leading&quot;:&quot;1.3&quot;}"><tspan dy="0" x="192.063660189713" svgjs:data="{&quot;newLined&quot;:true}">Player</tspan></text><image width="759" height="454" xlink:href="https://lct-designs.s3.us-west-1.amazonaws.com/assets/libs/cowboys-1659077446672.png" class="asset" transform="matrix(0.05225003138184548,0,0,0.05225003138184548,217.56670077783122,144.11436767820476)"></image><text fill="#ffffff" font-family="Impact" font-size="15" stroke-opacity="1" stroke-width="0.5" stroke="#000000" x="192.063660189713" y="201.79391883677104" transform="matrix(0.9875075221061708,0,0,0.9875075221061707,105.76606974635784,-20.34648556913766)" svgjs:data="{&quot;leading&quot;:&quot;1.3&quot;}"><tspan dy="0" x="192.063660189713" svgjs:data="{&quot;newLined&quot;:true}">Player</tspan></text><image width="759" height="454" xlink:href="https://lct-designs.s3.us-west-1.amazonaws.com/assets/libs/cowboys-1659077446672.png" class="asset" transform="matrix(0.052250038832426064,0,0,0.05225003883242608,294.8890748530293,143.70878905632821)"></image><g class="mask" style="pointer-events: none;"><g><path fill="#BCBEC0" d="M-3642.4-2101.7v4589.1h7813.4v-4589.1H-3642.4z M500.5,67.2v233.3v66.7H0.5v-66.7V67.2V0.5h500V67.2z" transform="matrix(1,0,0,1,0,0)"></path><g transform="matrix(1,0,0,1,0,0)">
	<rect x="0.5" y="300.5" opacity="0.95" fill="#F1F2F2" width="500" height="66.7"></rect>
	<rect x="0.5" y="0.5" opacity="0.95" fill="#F1F2F2" width="500" height="66.7"></rect>
</g></g></g></svg>