<svg xmlns="http://www.w3.org/2000/svg" version="1.1" xmlns:xlink="http://www.w3.org/1999/xlink" xmlns:svgjs="http://svgjs.dev/svgjs" width="100%" height="100%" viewBox="1 1 499 365.70001220703125" preserveAspectRatio="none" data-info="{&quot;_id&quot;:4,&quot;name&quot;:&quot;POLE POCKET SOCCER BANNERS&quot;,&quot;information&quot;:&quot;- Size: 3’x5’\n- Material: heavy duty vinyl banner\n- Digitally printed on vinyl&quot;,&quot;price&quot;:&quot;95.00&quot;,&quot;sale_price&quot;:&quot;89.99&quot;,&quot;type&quot;:&quot;pole-pocket&quot;,&quot;cover&quot;:{&quot;key&quot;:&quot;assets/models/pole-1628062864266-1631924568908.png&quot;,&quot;url&quot;:&quot;https://lct-designs.s3.us-west-1.amazonaws.com/assets/models/pole-1628062864266-1631924568908.png&quot;},&quot;back&quot;:{&quot;key&quot;:&quot;assets/models/pole-1631924700152.svg&quot;,&quot;url&quot;:&quot;https://lct-designs.s3.us-west-1.amazonaws.com/assets/models/pole-1631924700152.svg&quot;},&quot;mask&quot;:{&quot;key&quot;:&quot;assets/models/pole-mask-1631925211715.svg&quot;,&quot;url&quot;:&quot;https://lct-designs.s3.us-west-1.amazonaws.com/assets/models/pole-mask-1631925211715.svg&quot;},&quot;pos&quot;:&quot;2&quot;,&quot;accessories&quot;:&quot;2,3&quot;}" style="background-color: white;"><g class="model" style="pointer-events: none;"><polygon fill="#FFFFFF" points="0.5,0.5 0.5,67.2 0.5,300.5 0.5,367.2 500.5,367.2 500.5,300.5 500.5,67.2 500.5,0.5 "></polygon></g><image width="760" height="556" xlink:href="https://lct-designs.s3.us-west-1.amazonaws.com/assets/libs/darkness-4-1659153438226.png" class="asset background locked" transform="matrix(0.6595323960558116,0,0,0.6595323960558116,0,0)"></image><text fill="#ffffff" font-family="Impact" font-size="45" x="50.877864861049005" y="201.76359325371294" stroke-opacity="1" stroke-width="1" stroke="#000000" transform="matrix(0.22129602730274198,0,0,0.22129602730274198,394.36740948078113,246.07732149923748)" svgjs:data="{&quot;leading&quot;:&quot;1.3&quot;}"><tspan dy="0" x="50.877864861049005" svgjs:data="{&quot;newLined&quot;:true}">COACH: COACH'S NAME</tspan></text><text fill="#ffffff" font-family="Impact" font-size="45" x="50.877864861049005" y="201.76359325371294" stroke-opacity="1" stroke-width="-1" stroke="#000000" transform="matrix(0.22129602730274198,0,0,0.22129602730274198,3.178900786058648,245.35617585407164)" svgjs:data="{&quot;leading&quot;:&quot;1.3&quot;}"><tspan dy="0" x="50.877864861049005" svgjs:data="{&quot;newLined&quot;:true}">TEAM MOM: TEAM MOM'S NAME</tspan></text><image width="760" height="250" xlink:href="https://lct-designs.s3.us-west-1.amazonaws.com/assets/libs/darkness-1-1659153438225.png" class="asset" transform="matrix(0.3268745243549347,0,0,0.32687452435493475,46.55022147602966,84.07312189892909)"></image><image width="760" height="357" xlink:href="https://lct-designs.s3.us-west-1.amazonaws.com/assets/libs/darkness-3-1659153438225.png" class="asset" transform="matrix(0.09495267271995543,0,0,0.09495267271995543,40.88300219393835,183.4041939503177)"></image><image width="760" height="357" xlink:href="https://lct-designs.s3.us-west-1.amazonaws.com/assets/libs/darkness-3-1659153438225.png" class="asset" transform="matrix(0.09495267271995543,0,0,0.09495267271995543,44.34394739667985,232.23001590792325)"></image><image width="760" height="357" xlink:href="https://lct-designs.s3.us-west-1.amazonaws.com/assets/libs/darkness-3-1659153438225.png" class="asset" transform="matrix(0.09495267271995543,0,0,0.09495267271995543,126.30008583704785,184.27608117582673)"></image><image width="760" height="357" xlink:href="https://lct-designs.s3.us-west-1.amazonaws.com/assets/libs/darkness-3-1659153438225.png" class="asset" transform="matrix(0.09495267271995543,0,0,0.09495267271995543,129.76103103978943,233.1019031334322)"></image><text fill="#ffffff" font-family="Impact" font-size="17" stroke-opacity="1" stroke-width="0.5" stroke="#000000" x="212.70288388076594" y="195.2329080136282" transform="matrix(0.7216396331787109,0,0,0.7216396331787108,-16.531689040537685,71.42913206797971)" svgjs:data="{&quot;leading&quot;:&quot;1.3&quot;}"><tspan dy="0" x="212.70288388076594" svgjs:data="{&quot;newLined&quot;:true}">PLAYER</tspan></text><text fill="#ffffff" font-family="Impact" font-size="17" stroke-opacity="1" stroke-width="0.5" stroke="#000000" x="212.70288388076594" y="195.2329080136282" transform="matrix(0.7216396331787109,0,0,0.7216396331787108,-13.070743837796158,120.25495402558525)" svgjs:data="{&quot;leading&quot;:&quot;1.3&quot;}"><tspan dy="0" x="212.70288388076594" svgjs:data="{&quot;newLined&quot;:true}">PLAYER</tspan></text><image width="760" height="357" xlink:href="https://lct-designs.s3.us-west-1.amazonaws.com/assets/libs/darkness-3-1659153438225.png" class="asset" transform="matrix(0.09495267271995543,0,0,0.09495267271995543,214.76873852981396,184.27608117582673)"></image><image width="760" height="357" xlink:href="https://lct-designs.s3.us-west-1.amazonaws.com/assets/libs/darkness-3-1659153438225.png" class="asset" transform="matrix(0.09495267271995543,0,0,0.09495267271995543,218.22967610316078,233.1019031334322)"></image><text fill="#ffffff" font-family="Impact" font-size="17" stroke-opacity="1" stroke-width="0.5" stroke="#000000" x="212.70288388076594" y="195.2329080136282" transform="matrix(0.7216394543647766,0,0,0.7216394543647765,71.93695602283373,71.42913206797971)" svgjs:data="{&quot;leading&quot;:&quot;1.3&quot;}"><tspan dy="0" x="212.70288388076594" svgjs:data="{&quot;newLined&quot;:true}">PLAYER</tspan></text><text fill="#ffffff" font-family="Impact" font-size="17" stroke-opacity="1" stroke-width="0.5" stroke="#000000" x="212.70288388076594" y="195.2329080136282" transform="matrix(0.7216394543647766,0,0,0.7216394543647765,75.39790122557523,120.25495402558525)" svgjs:data="{&quot;leading&quot;:&quot;1.3&quot;}"><tspan dy="0" x="212.70288388076594" svgjs:data="{&quot;newLined&quot;:true}">PLAYER</tspan></text><image width="760" height="357" xlink:href="https://lct-designs.s3.us-west-1.amazonaws.com/assets/libs/darkness-3-1659153438225.png" class="asset" transform="matrix(0.09495267271995543,0,0,0.09495267271995543,303.6733424647292,184.71202478858118)"></image><image width="760" height="357" xlink:href="https://lct-designs.s3.us-west-1.amazonaws.com/assets/libs/darkness-3-1659153438225.png" class="asset" transform="matrix(0.09495267271995543,0,0,0.09495267271995543,307.1342800380761,233.5378467461867)"></image><text fill="#ffffff" font-family="Impact" font-size="17" stroke-opacity="1" stroke-width="0.5" stroke="#000000" x="212.70288388076594" y="195.2329080136282" transform="matrix(0.7216393351554871,0,0,0.7216393351554871,160.84153706956488,71.86507568073421)" svgjs:data="{&quot;leading&quot;:&quot;1.3&quot;}"><tspan dy="0" x="212.70288388076594" svgjs:data="{&quot;newLined&quot;:true}">PLAYER</tspan></text><text fill="#ffffff" font-family="Impact" font-size="17" stroke-opacity="1" stroke-width="0.5" stroke="#000000" x="212.70288388076594" y="195.2329080136282" transform="matrix(0.7216393351554871,0,0,0.7216393351554871,164.3024746429117,120.69089763833969)" svgjs:data="{&quot;leading&quot;:&quot;1.3&quot;}"><tspan dy="0" x="212.70288388076594" svgjs:data="{&quot;newLined&quot;:true}">PLAYER</tspan></text><image width="760" height="357" xlink:href="https://lct-designs.s3.us-west-1.amazonaws.com/assets/libs/darkness-3-1659153438225.png" class="asset" transform="matrix(0.09495267271995543,0,0,0.09495267271995543,394.75760342825936,185.5839120140901)"></image><image width="760" height="357" xlink:href="https://lct-designs.s3.us-west-1.amazonaws.com/assets/libs/darkness-3-1659153438225.png" class="asset" transform="matrix(0.09495267271995543,0,0,0.09495267271995543,398.2185410016061,234.40973397169563)"></image><text fill="#ffffff" font-family="Impact" font-size="17" stroke-opacity="1" stroke-width="0.5" stroke="#000000" x="212.70288388076594" y="195.2329080136282" transform="matrix(0.7216391563415527,0,0,0.7216391563415527,251.92579803309502,72.73696290624312)" svgjs:data="{&quot;leading&quot;:&quot;1.3&quot;}"><tspan dy="0" x="212.70288388076594" svgjs:data="{&quot;newLined&quot;:true}">PLAYER</tspan></text><text fill="#ffffff" font-family="Impact" font-size="17" stroke-opacity="1" stroke-width="0.5" stroke="#000000" x="212.70288388076594" y="195.2329080136282" transform="matrix(0.7216391563415527,0,0,0.7216391563415527,255.3867356064418,121.56278486384866)" svgjs:data="{&quot;leading&quot;:&quot;1.3&quot;}"><tspan dy="0" x="212.70288388076594" svgjs:data="{&quot;newLined&quot;:true}">PLAYER</tspan></text><text fill="#ffffff" font-family="Impact" font-size="17" stroke-opacity="1" stroke-width="0.5" stroke="#000000" x="212.70288388076594" y="195.2329080136282" transform="matrix(0.7216399312019348,0,0,0.7216399312019347,-102.82063892832078,70.1213012297163)" svgjs:data="{&quot;leading&quot;:&quot;1.3&quot;}"><tspan dy="0" x="212.70288388076594" svgjs:data="{&quot;newLined&quot;:true}">PLAYER</tspan></text><text fill="#ffffff" font-family="Impact" font-size="17" stroke-opacity="1" stroke-width="0.5" stroke="#000000" x="212.70288388076594" y="195.2329080136282" transform="matrix(0.7216399312019348,0,0,0.7216399312019347,-99.35969372557926,118.94712318732181)" svgjs:data="{&quot;leading&quot;:&quot;1.3&quot;}"><tspan dy="0" x="212.70288388076594" svgjs:data="{&quot;newLined&quot;:true}">PLAYER</tspan></text><g class="mask" style="pointer-events: none;"><g><path fill="#BCBEC0" d="M-3642.4-2101.7v4589.1h7813.4v-4589.1H-3642.4z M500.5,67.2v233.3v66.7H0.5v-66.7V67.2V0.5h500V67.2z" transform="matrix(1,0,0,1,0,0)"></path><g transform="matrix(1,0,0,1,0,0)">
	<rect x="0.5" y="300.5" opacity="0.95" fill="#F1F2F2" width="500" height="66.7"></rect>
	<rect x="0.5" y="0.5" opacity="0.95" fill="#F1F2F2" width="500" height="66.7"></rect>
</g></g></g></svg>