<svg xmlns="http://www.w3.org/2000/svg" version="1.1" xmlns:xlink="http://www.w3.org/1999/xlink" xmlns:svgjs="http://svgjs.dev/svgjs" width="100%" height="100%" viewBox="1 1 499 365.70001220703125" preserveAspectRatio="none" data-info="{&quot;_id&quot;:4,&quot;name&quot;:&quot;POLE POCKET SOCCER BANNERS&quot;,&quot;information&quot;:&quot;- Size: 3’x5’\n- Material: heavy duty vinyl banner\n- Digitally printed on vinyl&quot;,&quot;price&quot;:&quot;95.00&quot;,&quot;sale_price&quot;:&quot;89.99&quot;,&quot;type&quot;:&quot;pole-pocket&quot;,&quot;cover&quot;:{&quot;key&quot;:&quot;assets/models/pole-1628062864266-1631924568908.png&quot;,&quot;url&quot;:&quot;https://lct-designs.s3.us-west-1.amazonaws.com/assets/models/pole-1628062864266-1631924568908.png&quot;},&quot;back&quot;:{&quot;key&quot;:&quot;assets/models/pole-1631924700152.svg&quot;,&quot;url&quot;:&quot;https://lct-designs.s3.us-west-1.amazonaws.com/assets/models/pole-1631924700152.svg&quot;},&quot;mask&quot;:{&quot;key&quot;:&quot;assets/models/pole-mask-1631925211715.svg&quot;,&quot;url&quot;:&quot;https://lct-designs.s3.us-west-1.amazonaws.com/assets/models/pole-mask-1631925211715.svg&quot;},&quot;pos&quot;:&quot;2&quot;,&quot;accessories&quot;:&quot;2,3&quot;}" style="background-color: white;"><g class="model" style="pointer-events: none;"><polygon fill="#FFFFFF" points="0.5,0.5 0.5,67.2 0.5,300.5 0.5,367.2 500.5,367.2 500.5,300.5 500.5,67.2 500.5,0.5 "></polygon></g><image width="760" height="556" xlink:href="https://lct-designs.s3.us-west-1.amazonaws.com/assets/libs/rascals-little-3-1655282347593.png" class="asset background locked" transform="matrix(0.6860125660896301,0,0,0.6860125660896301,-20.704492568969727,-14.723217010498047)"></image><text fill="#ffffff" font-family="Impact" font-size="40" x="54.87449865828927" y="201.7453084835824" stroke-opacity="1" stroke-width="2" stroke="#000000" transform="matrix(0.2622695863246918,0,0,0.2622695863246918,378.87145996093756,210.9664459228516)" svgjs:data="{&quot;leading&quot;:&quot;1.3&quot;}"><tspan dy="0" x="54.87449865828927" svgjs:data="{&quot;newLined&quot;:true}">Coach: Coach's name</tspan></text><text fill="#ffffff" font-family="Impact" font-size="40" x="54.87449865828927" y="201.7453084835824" stroke-opacity="1" stroke-width="2" stroke="#000000" transform="matrix(0.2622695863246918,0,0,0.2622695863246918,342.5235290527344,232.13102722167966)" svgjs:data="{&quot;leading&quot;:&quot;1.3&quot;}"><tspan dy="0" x="54.87449865828927" svgjs:data="{&quot;newLined&quot;:true}">Team mom: Team mom's name</tspan></text><text fill="#ffffff" font-family="Impact" font-size="17" stroke-opacity="0.5" stroke-width="1" stroke="#000000" x="216.56344656666613" y="194.20226215189555" transform="matrix(0.783625602722168,0,0,0.783625602722168,50.81474304199219,4.749591827392578)" svgjs:data="{&quot;leading&quot;:&quot;1.3&quot;}"><tspan dy="0" x="216.56344656666613" svgjs:data="{&quot;newLined&quot;:true}">Player</tspan></text><image width="374" height="760" xlink:href="https://lct-designs.s3.us-west-1.amazonaws.com/assets/libs/rascals-little-1655282705524.png" class="asset" transform="matrix(0.07132407277822495,0,0,0.07132407277822496,224.62567138671875,159.36204528808594)"></image><image width="435" height="760" xlink:href="https://lct-designs.s3.us-west-1.amazonaws.com/assets/libs/rascals-little-13-1655282347591.png" class="asset" transform="matrix(0.07022459805011749,0,0,0.07022459805011749,187.51222229003912,223.69071960449222)"></image><text fill="#ffffff" font-family="Impact" font-size="17" stroke-opacity="0.5" stroke-width="1" stroke="#000000" x="216.56344656666613" y="194.20226215189555" transform="matrix(0.7450695633888245,0,0,0.7450695633888245,24.72399139404297,76.87584686279297)" svgjs:data="{&quot;leading&quot;:&quot;1.3&quot;}"><tspan dy="0" x="216.56344656666613" svgjs:data="{&quot;newLined&quot;:true}">Player</tspan></text><image width="552" height="760" xlink:href="https://lct-designs.s3.us-west-1.amazonaws.com/assets/libs/rascals-little-11-1655282347591.png" class="asset" transform="matrix(0.05390693992376328,0,0,0.053906939923763275,355.3738708496094,122.90828704833984)"></image><text fill="#ffffff" font-family="Impact" font-size="17" stroke-opacity="1" stroke-width="0.5" stroke="#000000" x="216.56344656666613" y="194.20226215189555" transform="matrix(0.7925941348075867,0,0,0.7925941348075867,181.33467102050787,-34.56769943237305)" svgjs:data="{&quot;leading&quot;:&quot;1.3&quot;}"><tspan dy="0" x="216.56344656666613" svgjs:data="{&quot;newLined&quot;:true}">Player</tspan></text><image width="577" height="760" xlink:href="https://lct-designs.s3.us-west-1.amazonaws.com/assets/libs/rascals-little-10-1655282347591.png" class="asset" transform="matrix(0.06690698862075806,0,0,0.06690698862075806,297.8411560058594,121.31034851074219)"></image><text fill="#ffffff" font-family="Impact" font-size="17" stroke-opacity="0.5" stroke-width="1" stroke="#000000" x="216.56344656666613" y="194.20226215189555" transform="matrix(0.7656513452529907,0,0,0.7656513452529908,134.29595184326175,-31.1648006439209)" svgjs:data="{&quot;leading&quot;:&quot;1.3&quot;}"><tspan dy="0" x="216.56344656666613" svgjs:data="{&quot;newLined&quot;:true}">Player</tspan></text><image width="506" height="760" xlink:href="https://lct-designs.s3.us-west-1.amazonaws.com/assets/libs/rascals-little-7-1655282347592.png" class="asset" transform="matrix(0.055877517908811576,0,0,0.055877517908811576,265.36058044433594,146.25628662109375)"></image><text fill="#ffffff" font-family="Impact" font-size="17" stroke-opacity="0.5" stroke-width="1" stroke="#000000" x="216.56344656666613" y="194.20226215189555" transform="matrix(0.760633409023285,0,0,0.7606334090232849,97.84796142578125,-4.519733428955078)" svgjs:data="{&quot;leading&quot;:&quot;1.3&quot;}"><tspan dy="0" x="216.56344656666613" svgjs:data="{&quot;newLined&quot;:true}">Player</tspan></text><image width="435" height="760" xlink:href="https://lct-designs.s3.us-west-1.amazonaws.com/assets/libs/rascals-little-12-1655282347591.png" class="asset" transform="matrix(0.06242140755057335,0,0,0.06242140755057334,328.22320556640625,202.47615051269528)"></image><text fill="#ffffff" font-family="Impact" font-size="17" stroke-opacity="0.5" stroke-width="1" stroke="#000000" x="216.56344656666613" y="194.20226215189555" transform="matrix(0.7850191593170166,0,0,0.7850191593170166,154.32667541503906,48.67233276367188)" svgjs:data="{&quot;leading&quot;:&quot;1.3&quot;}"><tspan dy="0" x="216.56344656666613" svgjs:data="{&quot;newLined&quot;:true}">Player</tspan></text><image width="562" height="760" xlink:href="https://lct-designs.s3.us-west-1.amazonaws.com/assets/libs/rascals-little-8-1655282347592.png" class="asset" transform="matrix(0.05892607569694519,0,0,0.05892607569694519,271.8202819824219,232.73812866210935)"></image><text fill="#ffffff" font-family="Impact" font-size="17" stroke-opacity="0.5" stroke-width="1" stroke="#000000" x="216.56344656666613" y="194.20226215189555" transform="matrix(0.8438567519187928,0,0,0.8438567519187927,87.6308898925781,65.85382461547854)" svgjs:data="{&quot;leading&quot;:&quot;1.3&quot;}"><tspan dy="0" x="216.56344656666613" svgjs:data="{&quot;newLined&quot;:true}">Player</tspan></text><image width="445" height="760" xlink:href="https://lct-designs.s3.us-west-1.amazonaws.com/assets/libs/rascals-little-14-1655282347589.png" class="asset" transform="matrix(0.06200223520345017,0,0,0.06200223520345017,409.89629169706313,98.81068743890683)"></image><text fill="#ffffff" font-family="Impact" font-size="17" stroke-opacity="1" stroke-width="0.5" stroke="#000000" x="216.56344656666613" y="194.20226215189555" transform="matrix(0.7628431916236877,0,0,0.7628431916236877,237.10189819335938,-53.67917251586914)" svgjs:data="{&quot;leading&quot;:&quot;1.3&quot;}"><tspan dy="0" x="216.56344656666613" svgjs:data="{&quot;newLined&quot;:true}">Player</tspan></text><image width="537" height="760" xlink:href="https://lct-designs.s3.us-west-1.amazonaws.com/assets/libs/rascals-little-9-1655282347592.png" class="asset" transform="matrix(0.06534931063652039,0,0,0.06534931063652039,446.70840454101574,176.325439453125)"></image><text fill="#ffffff" font-family="Impact" font-size="17" stroke-opacity="1" stroke-width="0.5" stroke="#000000" x="216.56344656666613" y="194.20226215189555" transform="matrix(0.8034902215003967,0,0,0.8034902215003967,272.3704528808594,17.79364776611329)" svgjs:data="{&quot;leading&quot;:&quot;1.3&quot;}"><tspan dy="0" x="216.56344656666613" svgjs:data="{&quot;newLined&quot;:true}">Player</tspan></text><image width="440" height="760" xlink:href="https://lct-designs.s3.us-west-1.amazonaws.com/assets/libs/rascals-little-4-1655282347593.png" class="asset" transform="matrix(0.07863282412290573,0,0,0.07863282412290573,131.77786254882815,174.0511932373047)"></image><text fill="#ffffff" font-family="Impact" font-size="17" stroke-opacity="0.5" stroke-width="1" stroke="#000000" x="216.56344656666613" y="194.20226215189555" transform="matrix(0.8470240831375122,0,0,0.8470240831375122,-49.06256103515625,3.1790313720703125)" svgjs:data="{&quot;leading&quot;:&quot;1.3&quot;}"><tspan dy="0" x="216.56344656666613" svgjs:data="{&quot;newLined&quot;:true}">Player</tspan></text><image width="410" height="760" xlink:href="https://lct-designs.s3.us-west-1.amazonaws.com/assets/libs/rascals-little-5-1655282347593.png" class="asset" transform="matrix(0.06672075390815735,0,0,0.06672075390815735,398.8373718261718,178.04383850097656)"></image><text fill="#ffffff" font-family="Impact" font-size="17" stroke-opacity="1" stroke-width="0.5" stroke="#000000" x="216.56344656666613" y="194.20226215189555" transform="matrix(0.846246063709259,0,0,0.846246063709259,210.420150756836,7.917733669281013)" svgjs:data="{&quot;leading&quot;:&quot;1.3&quot;}"><tspan dy="0" x="216.56344656666613" svgjs:data="{&quot;newLined&quot;:true}">Player</tspan></text><text fill="#ffffff" font-family="Impact" font-size="17" stroke-opacity="0.5" stroke-width="1" stroke="#000000" x="216.56344656666613" y="194.20226215189555" transform="matrix(0.7556737065315247,0,0,0.7556737065315247,-84.45820617675781,58.47269439697266)" svgjs:data="{&quot;leading&quot;:&quot;1.3&quot;}"><tspan dy="0" x="216.56344656666613" svgjs:data="{&quot;newLined&quot;:true}">Player</tspan></text><image width="760" height="245" xlink:href="https://lct-designs.s3.us-west-1.amazonaws.com/assets/libs/rascals-little-1-1655282347593.png" class="asset" transform="matrix(0.26115232706069946,0,0,0.26115232706069946,18.65579986572267,81.19280242919922)"></image><g class="mask" style="pointer-events: none;"><g><path fill="#BCBEC0" d="M-3642.4-2101.7v4589.1h7813.4v-4589.1H-3642.4z M500.5,67.2v233.3v66.7H0.5v-66.7V67.2V0.5h500V67.2z" transform="matrix(1,0,0,1,0,0)"></path><g transform="matrix(1,0,0,1,0,0)">
	<rect x="0.5" y="300.5" opacity="0.95" fill="#F1F2F2" width="500" height="66.7"></rect>
	<rect x="0.5" y="0.5" opacity="0.95" fill="#F1F2F2" width="500" height="66.7"></rect>
</g></g></g></svg>