<svg xmlns="http://www.w3.org/2000/svg" version="1.1" xmlns:xlink="http://www.w3.org/1999/xlink" xmlns:svgjs="http://svgjs.dev/svgjs" width="100%" height="100%" viewBox="1 1 499 365.70001220703125" preserveAspectRatio="none" data-info="{&quot;_id&quot;:4,&quot;name&quot;:&quot;POLE POCKET SOCCER BANNERS&quot;,&quot;information&quot;:&quot;- Size: 3’x5’\n- Material: heavy duty vinyl banner\n- Digitally printed on vinyl&quot;,&quot;price&quot;:&quot;95.00&quot;,&quot;sale_price&quot;:&quot;89.99&quot;,&quot;type&quot;:&quot;pole-pocket&quot;,&quot;cover&quot;:{&quot;key&quot;:&quot;assets/models/pole-1628062864266-1631924568908.png&quot;,&quot;url&quot;:&quot;https://lct-designs.s3.us-west-1.amazonaws.com/assets/models/pole-1628062864266-1631924568908.png&quot;},&quot;back&quot;:{&quot;key&quot;:&quot;assets/models/pole-1631924700152.svg&quot;,&quot;url&quot;:&quot;https://lct-designs.s3.us-west-1.amazonaws.com/assets/models/pole-1631924700152.svg&quot;},&quot;mask&quot;:{&quot;key&quot;:&quot;assets/models/pole-mask-1631925211715.svg&quot;,&quot;url&quot;:&quot;https://lct-designs.s3.us-west-1.amazonaws.com/assets/models/pole-mask-1631925211715.svg&quot;},&quot;pos&quot;:&quot;2&quot;,&quot;accessories&quot;:&quot;2,3&quot;}" style="background-color: white;"><g class="model" style="pointer-events: none;"><polygon fill="#FFFFFF" points="0.5,0.5 0.5,67.2 0.5,300.5 0.5,367.2 500.5,367.2 500.5,300.5 500.5,67.2 500.5,0.5 "></polygon></g><image width="760" height="455" xlink:href="https://lct-designs.s3.us-west-1.amazonaws.com/assets/libs/lil-crickets-2-1659922199702.png" class="asset background locked" transform="matrix(0.805934092762706,0,0,0.805934092762706,0,0)"></image><text fill="#ffffff" font-family="Impact" font-size="45" x="50.877864861049005" y="201.76359325371294" stroke-opacity="1" stroke-width="1" stroke="#000000" transform="matrix(0.221296027302742,0,0,0.221296027302742,384.75427246093756,63.14724731445313)" svgjs:data="{&quot;leading&quot;:&quot;1.3&quot;}"><tspan dy="0" x="50.877864861049005" svgjs:data="{&quot;newLined&quot;:true}">COACH: COACH'S NAME</tspan></text><text fill="#ffffff" font-family="Impact" font-size="45" x="50.877864861049005" y="201.76359325371294" stroke-opacity="1" stroke-width="-1" stroke="#000000" transform="matrix(0.221296027302742,0,0,0.221296027302742,354.0777587890625,49.47082519531251)" svgjs:data="{&quot;leading&quot;:&quot;1.3&quot;}"><tspan dy="0" x="50.877864861049005" svgjs:data="{&quot;newLined&quot;:true}">TEAM MOM: TEAM MOM'S NAME</tspan></text><text fill="#ffffff" font-family="Impact" font-size="45" stroke-opacity="1" stroke-width="-1" stroke="#000000" x="191.96452729598332" y="202.05652900502182" transform="matrix(0.34665411710739136,0,0,0.34665411710739136,175.98004150390625,99.08058166503906)" svgjs:data="{&quot;leading&quot;:&quot;1.3&quot;}"><tspan dy="0" x="191.96452729598332" svgjs:data="{&quot;newLined&quot;:true}">Player</tspan></text><image width="760" height="760" xlink:href="https://lct-designs.s3.us-west-1.amazonaws.com/assets/libs/lil-crickets-1-1659922199702.png" class="asset" transform="matrix(0.0534839853644371,0,0,0.0534839853644371,242.65538024902344,113.10559082031253)"></image><text fill="#ffffff" font-family="Impact" font-size="45" stroke-opacity="1" stroke-width="-1" stroke="#000000" x="191.96452729598332" y="202.05652900502182" transform="matrix(0.34665411710739136,0,0,0.34665411710739136,290.8829345703125,98.62048339843747)" svgjs:data="{&quot;leading&quot;:&quot;1.3&quot;}"><tspan dy="0" x="191.96452729598332" svgjs:data="{&quot;newLined&quot;:true}">Player</tspan></text><image width="760" height="760" xlink:href="https://lct-designs.s3.us-west-1.amazonaws.com/assets/libs/lil-crickets-1-1659922199702.png" class="asset" transform="matrix(0.0534839853644371,0,0,0.0534839853644371,357.55825805664057,112.64549255371094)"></image><image width="760" height="347" xlink:href="https://lct-designs.s3.us-west-1.amazonaws.com/assets/libs/lil-crickets-6-1659922199703.png" class="asset" transform="matrix(0.23101906478404996,-0.0010404728818684816,0.0010404728818684816,0.23101906478405,33.26399612426758,88.68109130859375)"></image><image width="324" height="760" xlink:href="https://lct-designs.s3.us-west-1.amazonaws.com/assets/libs/lil-crickets-7-1659922199704.png" class="asset" transform="matrix(0.20543619990348816,0,0,0.20543619990348816,413.63931274414074,122.7677001953125)"></image><text fill="#ffffff" font-family="Impact" font-size="45" stroke-opacity="1" stroke-width="-1" stroke="#000000" x="191.96452729598332" y="202.05652900502182" transform="matrix(0.34665411710739136,0,0,0.34665411710739136,234.16839599609375,137.26890563964844)" svgjs:data="{&quot;leading&quot;:&quot;1.3&quot;}"><tspan dy="0" x="191.96452729598332" svgjs:data="{&quot;newLined&quot;:true}">Player</tspan></text><image width="760" height="760" xlink:href="https://lct-designs.s3.us-west-1.amazonaws.com/assets/libs/lil-crickets-1-1659922199702.png" class="asset" transform="matrix(0.0534839853644371,0,0,0.0534839853644371,300.8437194824219,151.29391479492188)"></image><text fill="#ffffff" font-family="Impact" font-size="45" stroke-opacity="1" stroke-width="-1" stroke="#000000" x="191.96452729598332" y="202.05652900502182" transform="matrix(0.34665411710739136,0,0,0.34665411710739136,180.45883178710938,180.97846990823743)" svgjs:data="{&quot;leading&quot;:&quot;1.3&quot;}"><tspan dy="0" x="191.96452729598332" svgjs:data="{&quot;newLined&quot;:true}">Player</tspan></text><image width="760" height="760" xlink:href="https://lct-designs.s3.us-west-1.amazonaws.com/assets/libs/lil-crickets-1-1659922199702.png" class="asset" transform="matrix(0.0534839853644371,0,0,0.0534839853644371,247.13417053222656,195.00347906351087)"></image><text fill="#ffffff" font-family="Impact" font-size="45" stroke-opacity="1" stroke-width="-1" stroke="#000000" x="191.96452729598332" y="202.05652900502182" transform="matrix(0.34665411710739136,0,0,0.34665411710739136,105.21806335449222,180.05827337503433)" svgjs:data="{&quot;leading&quot;:&quot;1.3&quot;}"><tspan dy="0" x="191.96452729598332" svgjs:data="{&quot;newLined&quot;:true}">Player</tspan></text><image width="760" height="760" xlink:href="https://lct-designs.s3.us-west-1.amazonaws.com/assets/libs/lil-crickets-1-1659922199702.png" class="asset" transform="matrix(0.0534839853644371,0,0,0.0534839853644371,171.8933868408203,194.0832825303078)"></image><image width="760" height="760" xlink:href="https://lct-designs.s3.us-west-1.amazonaws.com/assets/libs/lil-crickets-1-1659922199702.png" class="asset" transform="matrix(0.0534839853644371,0,0,0.0534839853644371,299.3411865234375,225.37007141113284)"></image><text fill="#ffffff" font-family="Impact" font-size="45" stroke-opacity="1" stroke-width="-1" stroke="#000000" x="191.96452729598332" y="202.05652900502182" transform="matrix(0.34665411710739136,0,0,0.34665411710739136,291.680908203125,180.05825805664062)" svgjs:data="{&quot;leading&quot;:&quot;1.3&quot;}"><tspan dy="0" x="191.96452729598332" svgjs:data="{&quot;newLined&quot;:true}">Player</tspan></text><image width="760" height="760" xlink:href="https://lct-designs.s3.us-west-1.amazonaws.com/assets/libs/lil-crickets-1-1659922199702.png" class="asset" transform="matrix(0.0534839853644371,0,0,0.0534839853644371,358.3562316894531,194.08326721191406)"></image><text fill="#ffffff" font-family="Impact" font-size="45" stroke-opacity="1" stroke-width="-1" stroke="#000000" x="191.96452729598332" y="202.05652900502182" transform="matrix(0.34665411710739136,0,0,0.34665411710739136,233.1259765625,211.34506225585935)" svgjs:data="{&quot;leading&quot;:&quot;1.3&quot;}"><tspan dy="0" x="191.96452729598332" svgjs:data="{&quot;newLined&quot;:true}">Player</tspan></text><text fill="#ffffff" font-family="Impact" font-size="45" stroke-opacity="1" stroke-width="-1" stroke="#000000" x="191.96452729598332" y="202.05652900502182" transform="matrix(0.34665411710739136,0,0,0.34665411710739136,-14.285873413085952,180.05825805664062)" svgjs:data="{&quot;leading&quot;:&quot;1.3&quot;}"><tspan dy="0" x="191.96452729598332" svgjs:data="{&quot;newLined&quot;:true}">Player</tspan></text><image width="760" height="760" xlink:href="https://lct-designs.s3.us-west-1.amazonaws.com/assets/libs/lil-crickets-1-1659922199702.png" class="asset" transform="matrix(0.0534839853644371,0,0,0.0534839853644371,52.38946533203122,194.08326721191406)"></image><image width="760" height="760" xlink:href="https://lct-designs.s3.us-west-1.amazonaws.com/assets/libs/lil-crickets-1-1659922199702.png" class="asset" transform="matrix(0.0534839853644371,0,0,0.0534839853644371,108.73741149902344,224.90997314453128)"></image><text fill="#ffffff" font-family="Impact" font-size="45" stroke-opacity="1" stroke-width="-1" stroke="#000000" x="191.96452729598332" y="202.05652900502182" transform="matrix(0.34665411710739136,0,0,0.34665411710739136,42.52220153808594,210.88496398925784)" svgjs:data="{&quot;leading&quot;:&quot;1.3&quot;}"><tspan dy="0" x="191.96452729598332" svgjs:data="{&quot;newLined&quot;:true}">Player</tspan></text><g class="mask" style="pointer-events: none;"><g><path fill="#BCBEC0" d="M-3642.4-2101.7v4589.1h7813.4v-4589.1H-3642.4z M500.5,67.2v233.3v66.7H0.5v-66.7V67.2V0.5h500V67.2z" transform="matrix(1,0,0,1,0,0)"></path><g transform="matrix(1,0,0,1,0,0)">
	<rect x="0.5" y="300.5" opacity="0.95" fill="#F1F2F2" width="500" height="66.7"></rect>
	<rect x="0.5" y="0.5" opacity="0.95" fill="#F1F2F2" width="500" height="66.7"></rect>
</g></g></g></svg>