<svg xmlns="http://www.w3.org/2000/svg" version="1.1" xmlns:xlink="http://www.w3.org/1999/xlink" xmlns:svgjs="http://svgjs.dev/svgjs" width="100%" height="100%" viewBox="1 1 499 365.70001220703125" preserveAspectRatio="none" data-info="{&quot;_id&quot;:4,&quot;name&quot;:&quot;POLE POCKET SOCCER BANNERS&quot;,&quot;information&quot;:&quot;- Size: 3’x5’\n- Material: heavy duty vinyl banner\n- Digitally printed on vinyl&quot;,&quot;price&quot;:&quot;95.00&quot;,&quot;sale_price&quot;:&quot;89.99&quot;,&quot;type&quot;:&quot;pole-pocket&quot;,&quot;cover&quot;:{&quot;key&quot;:&quot;assets/models/pole-1628062864266-1631924568908.png&quot;,&quot;url&quot;:&quot;https://lct-designs.s3.us-west-1.amazonaws.com/assets/models/pole-1628062864266-1631924568908.png&quot;},&quot;back&quot;:{&quot;key&quot;:&quot;assets/models/pole-1631924700152.svg&quot;,&quot;url&quot;:&quot;https://lct-designs.s3.us-west-1.amazonaws.com/assets/models/pole-1631924700152.svg&quot;},&quot;mask&quot;:{&quot;key&quot;:&quot;assets/models/pole-mask-1631925211715.svg&quot;,&quot;url&quot;:&quot;https://lct-designs.s3.us-west-1.amazonaws.com/assets/models/pole-mask-1631925211715.svg&quot;},&quot;pos&quot;:&quot;2&quot;,&quot;accessories&quot;:&quot;2,3&quot;}" style="background-color: white;"><g class="model" style="pointer-events: none;"><polygon fill="#FFFFFF" points="0.5,0.5 0.5,67.2 0.5,300.5 0.5,367.2 500.5,367.2 500.5,300.5 500.5,67.2 500.5,0.5 "></polygon></g><image width="760" height="556" xlink:href="https://lct-designs.s3.us-west-1.amazonaws.com/assets/libs/dragons-3-1659323464111.png" class="asset background locked" transform="matrix(0.6595323960558116,0,0,0.6595323960558116,0,0)"></image><text fill="#000000" font-family="Impact" font-size="30" x="98.76859534095519" y="200.29758274106018" stroke-opacity="1" stroke-width="0" stroke="#ffffff" transform="matrix(0.3031818866729736,0,0,0.30318188667297363,349.3568494448517,230.21059142664956)" svgjs:data="{&quot;leading&quot;:&quot;1.3&quot;}"><tspan dy="0" x="98.76859534095519" svgjs:data="{&quot;newLined&quot;:true}">Team mom: Team mom's name</tspan><tspan dy="39" x="98.76859534095519" svgjs:data="{&quot;newLined&quot;:true}"></tspan><tspan dy="39" x="98.76859534095519" svgjs:data="{&quot;newLined&quot;:true}"></tspan></text><text fill="#000000" font-family="Impact" font-size="30" x="98.76859534095519" y="200.29758274106018" stroke-opacity="1" stroke-width="1" stroke="#000000" transform="matrix(0.3031818866729736,0,0,0.30318188667297363,-13.289983077366756,230.7175036688377)" svgjs:data="{&quot;leading&quot;:&quot;1.3&quot;}"><tspan dy="0" x="98.76859534095519" svgjs:data="{&quot;newLined&quot;:true}">Coach: Coach's name</tspan><tspan dy="39" x="98.76859534095519" svgjs:data="{&quot;newLined&quot;:true}"></tspan></text><image width="760" height="217" xlink:href="https://lct-designs.s3.us-west-1.amazonaws.com/assets/libs/dragons-6-1659323464111.png" class="asset" transform="matrix(0.36331707239151,0,0,0.36331707239151007,26.421875559952483,83.09491142897937)"></image><image width="760" height="200" xlink:href="https://lct-designs.s3.us-west-1.amazonaws.com/assets/libs/dragons-1-1659323464109.png" class="asset" transform="matrix(0.09734557299284495,0,0,0.09949337586116334,44.04428118978336,176.82629144268498)"></image><image width="760" height="200" xlink:href="https://lct-designs.s3.us-west-1.amazonaws.com/assets/libs/dragons-1-1659323464109.png" class="asset" transform="matrix(0.09734558733021803,0,0,0.09949339051487183,44.044251826842725,217.50648005144268)"></image><image width="760" height="200" xlink:href="https://lct-designs.s3.us-west-1.amazonaws.com/assets/libs/dragons-1-1659323464109.png" class="asset" transform="matrix(0.09734559449890455,0,0,0.09949339784172605,44.044244486107544,259.7819975370537)"></image><text fill="#fff700" font-family="Impact" font-size="19" stroke-opacity="1" stroke-width="1" stroke="#000000" x="194.85435950372326" y="199.9432435622577" transform="matrix(0.680649352088956,0,0,0.6956669906501175,-69.57837782050143,53.55539928945373)" svgjs:data="{&quot;leading&quot;:&quot;1.3&quot;}"><tspan dy="0" x="194.85435950372326" svgjs:data="{&quot;newLined&quot;:true}">PLAYER</tspan></text><text fill="#fff700" font-family="Impact" font-size="19" stroke-opacity="1" stroke-width="1" stroke="#000000" x="194.85435950372326" y="199.9432435622577" transform="matrix(0.680649352088956,0,0,0.6956669906501175,-69.57839250197176,94.23559164956102)" svgjs:data="{&quot;leading&quot;:&quot;1.3&quot;}"><tspan dy="0" x="194.85435950372326" svgjs:data="{&quot;newLined&quot;:true}">PLAYER</tspan></text><text fill="#fff700" font-family="Impact" font-size="19" stroke-opacity="1" stroke-width="1" stroke="#000000" x="194.85435950372326" y="199.9432435622577" transform="matrix(0.680649352088956,0,0,0.6956669906501175,-69.57837782050143,136.51109412977416)" svgjs:data="{&quot;leading&quot;:&quot;1.3&quot;}"><tspan dy="0" x="194.85435950372326" svgjs:data="{&quot;newLined&quot;:true}">PLAYER</tspan></text><image width="760" height="200" xlink:href="https://lct-designs.s3.us-west-1.amazonaws.com/assets/libs/dragons-1-1659323464109.png" class="asset" transform="matrix(0.09734557299284495,0,0,0.09949337586116334,159.02316304412668,176.82629144268498)"></image><text fill="#fff700" font-family="Impact" font-size="19" stroke-opacity="1" stroke-width="1" stroke="#000000" x="194.85435950372326" y="199.9432435622577" transform="matrix(0.680649352088956,0,0,0.6956669906501175,45.4005407375177,53.55539928945373)" svgjs:data="{&quot;leading&quot;:&quot;1.3&quot;}"><tspan dy="0" x="194.85435950372326" svgjs:data="{&quot;newLined&quot;:true}">PLAYER</tspan></text><image width="760" height="200" xlink:href="https://lct-designs.s3.us-west-1.amazonaws.com/assets/libs/dragons-1-1659323464109.png" class="asset" transform="matrix(0.09734558733021803,0,0,0.09949339051487183,159.02319240706734,217.50648005144268)"></image><text fill="#fff700" font-family="Impact" font-size="19" stroke-opacity="1" stroke-width="1" stroke="#000000" x="194.85435950372326" y="199.9432435622577" transform="matrix(0.680649352088956,0,0,0.6956669906501175,45.40053339678255,94.23559164956102)" svgjs:data="{&quot;leading&quot;:&quot;1.3&quot;}"><tspan dy="0" x="194.85435950372326" svgjs:data="{&quot;newLined&quot;:true}">PLAYER</tspan></text><image width="760" height="200" xlink:href="https://lct-designs.s3.us-west-1.amazonaws.com/assets/libs/dragons-1-1659323464109.png" class="asset" transform="matrix(0.09734559449890455,0,0,0.09949339784172605,159.02314836265631,259.7819975370537)"></image><text fill="#fff700" font-family="Impact" font-size="19" stroke-opacity="1" stroke-width="1" stroke="#000000" x="194.85435950372326" y="199.9432435622577" transform="matrix(0.680649352088956,0,0,0.6956669906501175,45.4005407375177,136.51109412977416)" svgjs:data="{&quot;leading&quot;:&quot;1.3&quot;}"><tspan dy="0" x="194.85435950372326" svgjs:data="{&quot;newLined&quot;:true}">PLAYER</tspan></text><image width="760" height="200" xlink:href="https://lct-designs.s3.us-west-1.amazonaws.com/assets/libs/dragons-1-1659323464109.png" class="asset" transform="matrix(0.09734558733021803,0,0,0.09949339051487183,275.5629127574764,176.42746297482114)"></image><text fill="#fff700" font-family="Impact" font-size="19" stroke-opacity="1" stroke-width="1" stroke="#000000" x="194.85435950372326" y="199.9432435622577" transform="matrix(0.680649352088956,0,0,0.6956669906501175,161.94028311013224,53.156570821589895)" svgjs:data="{&quot;leading&quot;:&quot;1.3&quot;}"><tspan dy="0" x="194.85435950372326" svgjs:data="{&quot;newLined&quot;:true}">PLAYER</tspan></text><image width="760" height="200" xlink:href="https://lct-designs.s3.us-west-1.amazonaws.com/assets/libs/dragons-1-1659323464109.png" class="asset" transform="matrix(0.09734559449890455,0,0,0.09949339784172605,275.562942120417,217.10765158357896)"></image><text fill="#fff700" font-family="Impact" font-size="19" stroke-opacity="1" stroke-width="1" stroke="#000000" x="194.85435950372326" y="199.9432435622577" transform="matrix(0.680649352088956,0,0,0.6956669906501175,161.94026842866194,93.83676318169718)" svgjs:data="{&quot;leading&quot;:&quot;1.3&quot;}"><tspan dy="0" x="194.85435950372326" svgjs:data="{&quot;newLined&quot;:true}">PLAYER</tspan></text><image width="760" height="200" xlink:href="https://lct-designs.s3.us-west-1.amazonaws.com/assets/libs/dragons-1-1659323464109.png" class="asset" transform="matrix(0.09734559449890455,0,0,0.09949339784172605,275.5628833945358,259.3831840745877)"></image><text fill="#fff700" font-family="Impact" font-size="19" stroke-opacity="1" stroke-width="1" stroke="#000000" x="194.85435950372326" y="199.9432435622577" transform="matrix(0.680649352088956,0,0,0.6956669906501175,161.94028311013224,136.11226566191033)" svgjs:data="{&quot;leading&quot;:&quot;1.3&quot;}"><tspan dy="0" x="194.85435950372326" svgjs:data="{&quot;newLined&quot;:true}">PLAYER</tspan></text><image width="760" height="200" xlink:href="https://lct-designs.s3.us-west-1.amazonaws.com/assets/libs/dragons-1-1659323464109.png" class="asset" transform="matrix(0.09734559449890455,0,0,0.09949339784172605,391.3222248709553,176.42746297482114)"></image><text fill="#fff700" font-family="Impact" font-size="19" stroke-opacity="1" stroke-width="1" stroke="#000000" x="194.85435950372326" y="199.9432435622577" transform="matrix(0.680649352088956,0,0,0.6956669906501175,277.69959522361125,53.156570821589895)" svgjs:data="{&quot;leading&quot;:&quot;1.3&quot;}"><tspan dy="0" x="194.85435950372326" svgjs:data="{&quot;newLined&quot;:true}">PLAYER</tspan></text><image width="760" height="200" xlink:href="https://lct-designs.s3.us-west-1.amazonaws.com/assets/libs/dragons-1-1659323464109.png" class="asset" transform="matrix(0.09734559449890455,0,0,0.09949339784172605,391.32225423389593,217.10765158357896)"></image><text fill="#fff700" font-family="Impact" font-size="19" stroke-opacity="1" stroke-width="1" stroke="#000000" x="194.85435950372326" y="199.9432435622577" transform="matrix(0.680649352088956,0,0,0.6956669906501175,277.69959522361125,93.83676318169718)" svgjs:data="{&quot;leading&quot;:&quot;1.3&quot;}"><tspan dy="0" x="194.85435950372326" svgjs:data="{&quot;newLined&quot;:true}">PLAYER</tspan></text><image width="760" height="200" xlink:href="https://lct-designs.s3.us-west-1.amazonaws.com/assets/libs/dragons-1-1659323464109.png" class="asset" transform="matrix(0.09734559449890455,0,0,0.09949339784172605,391.3221955080146,259.3831840745877)"></image><text fill="#fff700" font-family="Impact" font-size="19" stroke-opacity="1" stroke-width="1" stroke="#000000" x="194.85435950372326" y="199.9432435622577" transform="matrix(0.680649352088956,0,0,0.6956669906501175,277.69959522361125,136.11226566191033)" svgjs:data="{&quot;leading&quot;:&quot;1.3&quot;}"><tspan dy="0" x="194.85435950372326" svgjs:data="{&quot;newLined&quot;:true}">PLAYER</tspan></text><g class="mask" style="pointer-events: none;"><g><path fill="#BCBEC0" d="M-3642.4-2101.7v4589.1h7813.4v-4589.1H-3642.4z M500.5,67.2v233.3v66.7H0.5v-66.7V67.2V0.5h500V67.2z" transform="matrix(1,0,0,1,0,0)"></path><g transform="matrix(1,0,0,1,0,0)">
	<rect x="0.5" y="300.5" opacity="0.95" fill="#F1F2F2" width="500" height="66.7"></rect>
	<rect x="0.5" y="0.5" opacity="0.95" fill="#F1F2F2" width="500" height="66.7"></rect>
</g></g></g></svg>