<svg xmlns="http://www.w3.org/2000/svg" version="1.1" xmlns:xlink="http://www.w3.org/1999/xlink" xmlns:svgjs="http://svgjs.dev/svgjs" width="100%" height="100%" viewBox="1 1 499 365.70001220703125" preserveAspectRatio="none" data-info="{&quot;_id&quot;:4,&quot;name&quot;:&quot;POLE POCKET SOCCER BANNERS&quot;,&quot;information&quot;:&quot;- Size: 3’x5’\n- Material: heavy duty vinyl banner\n- Digitally printed on vinyl&quot;,&quot;price&quot;:&quot;95.00&quot;,&quot;sale_price&quot;:&quot;89.99&quot;,&quot;type&quot;:&quot;pole-pocket&quot;,&quot;cover&quot;:{&quot;key&quot;:&quot;assets/models/pole-1628062864266-1631924568908.png&quot;,&quot;url&quot;:&quot;https://lct-designs.s3.us-west-1.amazonaws.com/assets/models/pole-1628062864266-1631924568908.png&quot;},&quot;back&quot;:{&quot;key&quot;:&quot;assets/models/pole-1631924700152.svg&quot;,&quot;url&quot;:&quot;https://lct-designs.s3.us-west-1.amazonaws.com/assets/models/pole-1631924700152.svg&quot;},&quot;mask&quot;:{&quot;key&quot;:&quot;assets/models/pole-mask-1631925211715.svg&quot;,&quot;url&quot;:&quot;https://lct-designs.s3.us-west-1.amazonaws.com/assets/models/pole-mask-1631925211715.svg&quot;},&quot;pos&quot;:&quot;2&quot;,&quot;accessories&quot;:&quot;2,3&quot;}" style="background-color: white;"><g class="model" style="pointer-events: none;"><polygon fill="#FFFFFF" points="0.5,0.5 0.5,67.2 0.5,300.5 0.5,367.2 500.5,367.2 500.5,300.5 500.5,67.2 500.5,0.5 "></polygon></g><image width="760" height="556" xlink:href="https://lct-designs.s3.us-west-1.amazonaws.com/assets/libs/airforces-5-1659433086404.png" class="asset background locked" transform="matrix(0.6595323960558116,0,0,0.6595323960558116,0,0)"></image><text fill="#ffffff" font-family="Impact" font-size="40" x="196.88127233350318" y="200.48091056834267" stroke-opacity="1" stroke-width="1" stroke="#000000" transform="matrix(0.2917780876159668,0,0,0.29177808761596685,330.806584519246,31.66096734495411)" svgjs:data="{&quot;leading&quot;:&quot;1.3&quot;}"><tspan dy="0" x="196.88127233350318" svgjs:data="{&quot;newLined&quot;:true}">Coach: Coach's name</tspan></text><text fill="#ffffff" font-family="Impact" font-size="40" x="196.88127233350318" y="200.48091056834267" stroke-opacity="1" stroke-width="1" stroke="#000000" transform="matrix(0.3015019893646241,0,0,0.301501989364624,-38.793438535830944,29.786610093513282)" svgjs:data="{&quot;leading&quot;:&quot;1.3&quot;}"><tspan dy="0" x="196.88127233350318" svgjs:data="{&quot;newLined&quot;:true}">Team mom: Team mom's name</tspan></text><text fill="#ffffff" font-family="Impact" font-size="30" x="187.90034291970778" y="201.84038088576656" stroke-opacity="1" stroke-width="0.5" stroke="#000000" transform="matrix(0.47968298196792597,0,0,0.479682981967926,-68.9357004901126,61.97154328184637)" svgjs:data="{&quot;leading&quot;:&quot;1.3&quot;}"><tspan dy="0" x="187.90034291970778" svgjs:data="{&quot;newLined&quot;:true}">Player</tspan><tspan dy="39" x="187.90034291970778" svgjs:data="{&quot;newLined&quot;:true}"></tspan></text><image width="754" height="760" xlink:href="https://lct-designs.s3.us-west-1.amazonaws.com/assets/libs/airforces-1659433086405.png" class="asset" transform="matrix(0.045700881630182266,0,0,0.045700881630182266,22.721269946117246,112.88614059815018)"></image><text fill="#ffffff" font-family="Impact" font-size="30" x="187.90034291970778" y="201.84038088576656" stroke-opacity="1" stroke-width="0.5" stroke="#000000" transform="matrix(0.4796830415725708,0,0,0.4796830415725708,7.748092766822765,61.97154328184637)" svgjs:data="{&quot;leading&quot;:&quot;1.3&quot;}"><tspan dy="0" x="187.90034291970778" svgjs:data="{&quot;newLined&quot;:true}">Player</tspan><tspan dy="39" x="187.90034291970778" svgjs:data="{&quot;newLined&quot;:true}"></tspan></text><image width="754" height="760" xlink:href="https://lct-designs.s3.us-west-1.amazonaws.com/assets/libs/airforces-1659433086405.png" class="asset" transform="matrix(0.045700881630182266,0,0,0.045700881630182266,99.40506892509859,112.88614059815018)"></image><text fill="#ffffff" font-family="Impact" font-size="30" x="187.90034291970778" y="201.84038088576656" stroke-opacity="1" stroke-width="0.5" stroke="#000000" transform="matrix(0.4796831011772156,0,0,0.4796831011772155,86.90165077003311,62.67720125134587)" svgjs:data="{&quot;leading&quot;:&quot;1.3&quot;}"><tspan dy="0" x="187.90034291970778" svgjs:data="{&quot;newLined&quot;:true}">Player</tspan><tspan dy="39" x="187.90034291970778" svgjs:data="{&quot;newLined&quot;:true}"></tspan></text><image width="754" height="760" xlink:href="https://lct-designs.s3.us-west-1.amazonaws.com/assets/libs/airforces-1659433086405.png" class="asset" transform="matrix(0.045700881630182266,0,0,0.045700881630182266,178.55862692830897,113.59179856764965)"></image><text fill="#ffffff" font-family="Impact" font-size="30" x="187.90034291970778" y="201.84038088576656" stroke-opacity="1" stroke-width="0.5" stroke="#000000" transform="matrix(0.4796831607818603,0,0,0.4796831607818603,168.52499640770247,62.324387525385426)" svgjs:data="{&quot;leading&quot;:&quot;1.3&quot;}"><tspan dy="0" x="187.90034291970778" svgjs:data="{&quot;newLined&quot;:true}">Player</tspan><tspan dy="39" x="187.90034291970778" svgjs:data="{&quot;newLined&quot;:true}"></tspan></text><image width="754" height="760" xlink:href="https://lct-designs.s3.us-west-1.amazonaws.com/assets/libs/airforces-1659433086405.png" class="asset" transform="matrix(0.045700881630182266,0,0,0.045700881630182266,260.18198019537294,113.23898484168922)"></image><image width="760" height="157" xlink:href="https://lct-designs.s3.us-west-1.amazonaws.com/assets/libs/airforces-2-1659433086404.png" class="asset" transform="matrix(0.25292518734931946,0,0,0.25292518734931946,302.31906578420194,230.17877540258723)"></image><image width="760" height="495" xlink:href="https://lct-designs.s3.us-west-1.amazonaws.com/assets/libs/airforces-1-1659433086402.png" class="asset" transform="matrix(0.23136597871780396,0,0,0.23136597871780396,312.35159767197956,108.4451691574628)"></image><text fill="#ffffff" font-family="Impact" font-size="30" x="187.90034291970778" y="201.84038088576656" stroke-opacity="1" stroke-width="0.5" stroke="#000000" transform="matrix(0.4796831607818603,0,0,0.4796831607818603,-68.81478984377964,174.8756892513586)" svgjs:data="{&quot;leading&quot;:&quot;1.3&quot;}"><tspan dy="0" x="187.90034291970778" svgjs:data="{&quot;newLined&quot;:true}">Player</tspan><tspan dy="39" x="187.90034291970778" svgjs:data="{&quot;newLined&quot;:true}"></tspan></text><image width="754" height="760" xlink:href="https://lct-designs.s3.us-west-1.amazonaws.com/assets/libs/airforces-1659433086405.png" class="asset" transform="matrix(0.045700881630182266,0,0,0.045700881630182266,22.842182499798867,225.7902865676624)"></image><text fill="#ffffff" font-family="Impact" font-size="30" x="187.90034291970778" y="201.84038088576656" stroke-opacity="1" stroke-width="0.5" stroke="#000000" transform="matrix(0.4796832203865051,0,0,0.4796832203865051,7.869003413155724,174.8756892513586)" svgjs:data="{&quot;leading&quot;:&quot;1.3&quot;}"><tspan dy="0" x="187.90034291970778" svgjs:data="{&quot;newLined&quot;:true}">Player</tspan><tspan dy="39" x="187.90034291970778" svgjs:data="{&quot;newLined&quot;:true}"></tspan></text><image width="754" height="760" xlink:href="https://lct-designs.s3.us-west-1.amazonaws.com/assets/libs/airforces-1659433086405.png" class="asset" transform="matrix(0.045700881630182266,0,0,0.045700881630182266,99.52597957143155,225.7902865676624)"></image><text fill="#ffffff" font-family="Impact" font-size="30" x="187.90034291970778" y="201.84038088576656" stroke-opacity="1" stroke-width="0.5" stroke="#000000" transform="matrix(0.4796832203865051,0,0,0.4796832203865051,87.0225614163661,175.58134722085808)" svgjs:data="{&quot;leading&quot;:&quot;1.3&quot;}"><tspan dy="0" x="187.90034291970778" svgjs:data="{&quot;newLined&quot;:true}">Player</tspan><tspan dy="39" x="187.90034291970778" svgjs:data="{&quot;newLined&quot;:true}"></tspan></text><image width="754" height="760" xlink:href="https://lct-designs.s3.us-west-1.amazonaws.com/assets/libs/airforces-1659433086405.png" class="asset" transform="matrix(0.045700881630182266,0,0,0.045700881630182266,178.67953757464193,226.49594453716185)"></image><text fill="#ffffff" font-family="Impact" font-size="30" x="187.90034291970778" y="201.84038088576656" stroke-opacity="1" stroke-width="0.5" stroke="#000000" transform="matrix(0.4796832203865051,0,0,0.4796832203865051,168.64590705403543,175.22853349489765)" svgjs:data="{&quot;leading&quot;:&quot;1.3&quot;}"><tspan dy="0" x="187.90034291970778" svgjs:data="{&quot;newLined&quot;:true}">Player</tspan><tspan dy="39" x="187.90034291970778" svgjs:data="{&quot;newLined&quot;:true}"></tspan></text><image width="754" height="760" xlink:href="https://lct-designs.s3.us-west-1.amazonaws.com/assets/libs/airforces-1659433086405.png" class="asset" transform="matrix(0.045700881630182266,0,0,0.045700881630182266,260.30289084170585,226.14313081120144)"></image><text fill="#ffffff" font-family="Impact" font-size="30" x="187.90034291970778" y="201.84038088576656" stroke-opacity="1" stroke-width="0.5" stroke="#000000" transform="matrix(0.4796832203865051,0,0,0.4796832203865051,-29.177551704310645,118.77644525135224)" svgjs:data="{&quot;leading&quot;:&quot;1.3&quot;}"><tspan dy="0" x="187.90034291970778" svgjs:data="{&quot;newLined&quot;:true}">Player</tspan><tspan dy="39" x="187.90034291970778" svgjs:data="{&quot;newLined&quot;:true}"></tspan></text><image width="754" height="760" xlink:href="https://lct-designs.s3.us-west-1.amazonaws.com/assets/libs/airforces-1659433086405.png" class="asset" transform="matrix(0.045700881630182266,0,0,0.045700881630182266,62.47942063926786,169.691042567656)"></image><text fill="#ffffff" font-family="Impact" font-size="30" x="187.90034291970778" y="201.84038088576656" stroke-opacity="1" stroke-width="0.5" stroke="#000000" transform="matrix(0.47968330979347223,0,0,0.4796833097934723,47.506241552624715,118.77644525135224)" svgjs:data="{&quot;leading&quot;:&quot;1.3&quot;}"><tspan dy="0" x="187.90034291970778" svgjs:data="{&quot;newLined&quot;:true}">Player</tspan><tspan dy="39" x="187.90034291970778" svgjs:data="{&quot;newLined&quot;:true}"></tspan></text><image width="754" height="760" xlink:href="https://lct-designs.s3.us-west-1.amazonaws.com/assets/libs/airforces-1659433086405.png" class="asset" transform="matrix(0.045700881630182266,0,0,0.045700881630182266,139.16321771090054,169.691042567656)"></image><text fill="#ffffff" font-family="Impact" font-size="30" x="187.90034291970778" y="201.84038088576656" stroke-opacity="1" stroke-width="0.5" stroke="#000000" transform="matrix(0.47968330979347223,0,0,0.4796833097934723,126.6597995558351,119.48210322085171)" svgjs:data="{&quot;leading&quot;:&quot;1.3&quot;}"><tspan dy="0" x="187.90034291970778" svgjs:data="{&quot;newLined&quot;:true}">Player</tspan><tspan dy="39" x="187.90034291970778" svgjs:data="{&quot;newLined&quot;:true}"></tspan></text><image width="754" height="760" xlink:href="https://lct-designs.s3.us-west-1.amazonaws.com/assets/libs/airforces-1659433086405.png" class="asset" transform="matrix(0.045700881630182266,0,0,0.045700881630182266,218.31677571411092,170.39670053715554)"></image><g class="mask" style="pointer-events: none;"><g><path fill="#BCBEC0" d="M-3642.4-2101.7v4589.1h7813.4v-4589.1H-3642.4z M500.5,67.2v233.3v66.7H0.5v-66.7V67.2V0.5h500V67.2z" transform="matrix(1,0,0,1,0,0)"></path><g transform="matrix(1,0,0,1,0,0)">
	<rect x="0.5" y="300.5" opacity="0.95" fill="#F1F2F2" width="500" height="66.7"></rect>
	<rect x="0.5" y="0.5" opacity="0.95" fill="#F1F2F2" width="500" height="66.7"></rect>
</g></g></g></svg>