<svg xmlns="http://www.w3.org/2000/svg" version="1.1" xmlns:xlink="http://www.w3.org/1999/xlink" xmlns:svgjs="http://svgjs.dev/svgjs" width="100%" height="100%" viewBox="1 1 499 365.70001220703125" preserveAspectRatio="none" data-info="{&quot;_id&quot;:4,&quot;name&quot;:&quot;POLE POCKET SOCCER BANNERS&quot;,&quot;information&quot;:&quot;- Size: 3’x5’\n- Material: heavy duty vinyl banner\n- Digitally printed on vinyl&quot;,&quot;price&quot;:&quot;95.00&quot;,&quot;sale_price&quot;:&quot;89.99&quot;,&quot;type&quot;:&quot;pole-pocket&quot;,&quot;cover&quot;:{&quot;key&quot;:&quot;assets/models/pole-1628062864266-1631924568908.png&quot;,&quot;url&quot;:&quot;https://lct-designs.s3.us-west-1.amazonaws.com/assets/models/pole-1628062864266-1631924568908.png&quot;},&quot;back&quot;:{&quot;key&quot;:&quot;assets/models/pole-1631924700152.svg&quot;,&quot;url&quot;:&quot;https://lct-designs.s3.us-west-1.amazonaws.com/assets/models/pole-1631924700152.svg&quot;},&quot;mask&quot;:{&quot;key&quot;:&quot;assets/models/pole-mask-1631925211715.svg&quot;,&quot;url&quot;:&quot;https://lct-designs.s3.us-west-1.amazonaws.com/assets/models/pole-mask-1631925211715.svg&quot;},&quot;pos&quot;:&quot;2&quot;,&quot;accessories&quot;:&quot;2,3&quot;}" style="background-color: white;"><g class="model" style="pointer-events: none;"><polygon fill="#FFFFFF" points="0.5,0.5 0.5,67.2 0.5,300.5 0.5,367.2 500.5,367.2 500.5,300.5 500.5,67.2 500.5,0.5 "></polygon></g><image width="760" height="556" xlink:href="https://lct-designs.s3.us-west-1.amazonaws.com/assets/libs/tsunami-5-1659689128953.png" class="asset background locked" transform="matrix(0.6595323960558116,0,0,0.6595323960558116,0,0)"></image><text fill="#ffffff" font-family="Impact" font-size="45" x="50.877864861049005" y="201.76359325371294" stroke-opacity="1" stroke-width="1" stroke="#000000" transform="matrix(0.221296027302742,0,0,0.221296027302742,384.29418945312494,51.18463516235352)" svgjs:data="{&quot;leading&quot;:&quot;1.3&quot;}"><tspan dy="0" x="50.877864861049005" svgjs:data="{&quot;newLined&quot;:true}">COACH: COACH'S NAME</tspan></text><text fill="#ffffff" font-family="Impact" font-size="45" x="50.877864861049005" y="201.76359325371294" stroke-opacity="1" stroke-width="-1" stroke="#000000" transform="matrix(0.221296027302742,0,0,0.221296027302742,21.88528060913086,50.3910255432129)" svgjs:data="{&quot;leading&quot;:&quot;1.3&quot;}"><tspan dy="0" x="50.877864861049005" svgjs:data="{&quot;newLined&quot;:true}">TEAM MOM: TEAM MOM'S NAME</tspan></text><text fill="#ffffff" font-family="Impact" font-size="45" stroke-opacity="1" stroke-width="-1" stroke="#000000" x="191.96452729598332" y="202.05652900502182" transform="matrix(0.34665411710739136,0,0,0.34665411710739136,-38.661380767822266,98.16036987304685)" svgjs:data="{&quot;leading&quot;:&quot;1.3&quot;}"><tspan dy="0" x="191.96452729598332" svgjs:data="{&quot;newLined&quot;:true}">Player</tspan></text><image width="760" height="760" xlink:href="https://lct-designs.s3.us-west-1.amazonaws.com/assets/libs/tsunami-3-1659689128952.png" class="asset" transform="matrix(0.052878592163324356,0,0,0.052878592163324356,28.244022369384766,114.48590087890625)"></image><text fill="#ffffff" font-family="Impact" font-size="45" stroke-opacity="1" stroke-width="-1" stroke="#000000" x="191.96452729598332" y="202.05652900502182" transform="matrix(0.34665411710739136,0,0,0.34665411710739136,-38.661376953125,220.54708862304685)" svgjs:data="{&quot;leading&quot;:&quot;1.3&quot;}"><tspan dy="0" x="191.96452729598332" svgjs:data="{&quot;newLined&quot;:true}">Player</tspan></text><image width="760" height="760" xlink:href="https://lct-designs.s3.us-west-1.amazonaws.com/assets/libs/tsunami-3-1659689128952.png" class="asset" transform="matrix(0.052878592163324356,0,0,0.052878592163324356,28.244007110595703,236.87261962890622)"></image><text fill="#ffffff" font-family="Impact" font-size="45" stroke-opacity="1" stroke-width="-1" stroke="#000000" x="191.96452729598332" y="202.05652900502182" transform="matrix(0.34665411710739136,0,0,0.34665411710739136,48.17538070678711,97.70027160644531)" svgjs:data="{&quot;leading&quot;:&quot;1.3&quot;}"><tspan dy="0" x="191.96452729598332" svgjs:data="{&quot;newLined&quot;:true}">Player</tspan></text><image width="760" height="760" xlink:href="https://lct-designs.s3.us-west-1.amazonaws.com/assets/libs/tsunami-3-1659689128952.png" class="asset" transform="matrix(0.052878592163324356,0,0,0.052878592163324356,115.08077239990234,114.02580261230469)"></image><text fill="#ffffff" font-family="Impact" font-size="45" stroke-opacity="1" stroke-width="-1" stroke="#000000" x="191.96452729598332" y="202.05652900502182" transform="matrix(0.34665411710739136,0,0,0.34665411710739136,48.1753959655762,221.0071716308594)" svgjs:data="{&quot;leading&quot;:&quot;1.3&quot;}"><tspan dy="0" x="191.96452729598332" svgjs:data="{&quot;newLined&quot;:true}">Player</tspan></text><image width="760" height="760" xlink:href="https://lct-designs.s3.us-west-1.amazonaws.com/assets/libs/tsunami-3-1659689128952.png" class="asset" transform="matrix(0.052878592163324356,0,0,0.052878592163324356,115.0807876586914,237.33270263671872)"></image><text fill="#ffffff" font-family="Impact" font-size="45" stroke-opacity="1" stroke-width="-1" stroke="#000000" x="191.96452729598332" y="202.05652900502182" transform="matrix(0.34665411710739136,0,0,0.34665411710739136,0.3860550820827484,160.73402404785156)" svgjs:data="{&quot;leading&quot;:&quot;1.3&quot;}"><tspan dy="0" x="191.96452729598332" svgjs:data="{&quot;newLined&quot;:true}">Player</tspan></text><image width="760" height="760" xlink:href="https://lct-designs.s3.us-west-1.amazonaws.com/assets/libs/tsunami-3-1659689128952.png" class="asset" transform="matrix(0.052878592163324356,0,0,0.052878592163324356,67.29135894775393,177.05955505371094)"></image><image width="724" height="760" xlink:href="https://lct-designs.s3.us-west-1.amazonaws.com/assets/libs/tsunami-2-1659689128952.png" class="asset" transform="matrix(0.24297021329402924,0,0,0.24297021329402924,167.84442138671875,95.62178039550781)"></image><text fill="#ffffff" font-family="Impact" font-size="45" stroke-opacity="1" stroke-width="-1" stroke="#000000" x="191.96452729598332" y="202.05652900502182" transform="matrix(0.34665411710739136,0,0,0.34665411710739136,286.0472984313965,98.62046813964844)" svgjs:data="{&quot;leading&quot;:&quot;1.3&quot;}"><tspan dy="0" x="191.96452729598332" svgjs:data="{&quot;newLined&quot;:true}">Player</tspan></text><image width="760" height="760" xlink:href="https://lct-designs.s3.us-west-1.amazonaws.com/assets/libs/tsunami-3-1659689128952.png" class="asset" transform="matrix(0.052878592163324356,0,0,0.052878592163324356,352.9527015686036,114.94599914550778)"></image><text fill="#ffffff" font-family="Impact" font-size="45" stroke-opacity="1" stroke-width="-1" stroke="#000000" x="191.96452729598332" y="202.05652900502182" transform="matrix(0.34665411710739136,0,0,0.34665411710739136,286.04730224609375,221.0071868896484)" svgjs:data="{&quot;leading&quot;:&quot;1.3&quot;}"><tspan dy="0" x="191.96452729598332" svgjs:data="{&quot;newLined&quot;:true}">Player</tspan></text><image width="760" height="760" xlink:href="https://lct-designs.s3.us-west-1.amazonaws.com/assets/libs/tsunami-3-1659689128952.png" class="asset" transform="matrix(0.052878592163324356,0,0,0.052878592163324356,352.95268630981445,237.33271789550778)"></image><text fill="#ffffff" font-family="Impact" font-size="45" stroke-opacity="1" stroke-width="-1" stroke="#000000" x="191.96452729598332" y="202.05652900502182" transform="matrix(0.34665411710739136,0,0,0.34665411710739136,372.88405990600586,98.16036987304685)" svgjs:data="{&quot;leading&quot;:&quot;1.3&quot;}"><tspan dy="0" x="191.96452729598332" svgjs:data="{&quot;newLined&quot;:true}">Player</tspan></text><image width="760" height="760" xlink:href="https://lct-designs.s3.us-west-1.amazonaws.com/assets/libs/tsunami-3-1659689128952.png" class="asset" transform="matrix(0.052878592163324356,0,0,0.052878592163324356,439.7894515991212,114.48590087890625)"></image><text fill="#ffffff" font-family="Impact" font-size="45" stroke-opacity="1" stroke-width="-1" stroke="#000000" x="191.96452729598332" y="202.05652900502182" transform="matrix(0.34665411710739136,0,0,0.34665411710739136,372.88407516479487,221.46726989746097)" svgjs:data="{&quot;leading&quot;:&quot;1.3&quot;}"><tspan dy="0" x="191.96452729598332" svgjs:data="{&quot;newLined&quot;:true}">Player</tspan></text><image width="760" height="760" xlink:href="https://lct-designs.s3.us-west-1.amazonaws.com/assets/libs/tsunami-3-1659689128952.png" class="asset" transform="matrix(0.052878592163324356,0,0,0.052878592163324356,439.78946685791016,237.79280090332034)"></image><text fill="#ffffff" font-family="Impact" font-size="45" stroke-opacity="1" stroke-width="-1" stroke="#000000" x="191.96452729598332" y="202.05652900502182" transform="matrix(0.34665411710739136,0,0,0.34665411710739136,325.0947341918946,161.19412231445312)" svgjs:data="{&quot;leading&quot;:&quot;1.3&quot;}"><tspan dy="0" x="191.96452729598332" svgjs:data="{&quot;newLined&quot;:true}">Player</tspan></text><image width="760" height="760" xlink:href="https://lct-designs.s3.us-west-1.amazonaws.com/assets/libs/tsunami-3-1659689128952.png" class="asset" transform="matrix(0.052878592163324356,0,0,0.052878592163324356,392.0000381469727,177.5196533203125)"></image><g class="mask" style="pointer-events: none;"><g><path fill="#BCBEC0" d="M-3642.4-2101.7v4589.1h7813.4v-4589.1H-3642.4z M500.5,67.2v233.3v66.7H0.5v-66.7V67.2V0.5h500V67.2z" transform="matrix(1,0,0,1,0,0)"></path><g transform="matrix(1,0,0,1,0,0)">
	<rect x="0.5" y="300.5" opacity="0.95" fill="#F1F2F2" width="500" height="66.7"></rect>
	<rect x="0.5" y="0.5" opacity="0.95" fill="#F1F2F2" width="500" height="66.7"></rect>
</g></g></g></svg>