<svg xmlns="http://www.w3.org/2000/svg" version="1.1" xmlns:xlink="http://www.w3.org/1999/xlink" xmlns:svgjs="http://svgjs.dev/svgjs" width="100%" height="100%" viewBox="1 1 499 365.70001220703125" preserveAspectRatio="none" data-info="{&quot;_id&quot;:4,&quot;name&quot;:&quot;POLE POCKET SOCCER BANNERS&quot;,&quot;information&quot;:&quot;- Size: 3’x5’\n- Material: heavy duty vinyl banner\n- Digitally printed on vinyl&quot;,&quot;price&quot;:&quot;95.00&quot;,&quot;sale_price&quot;:&quot;89.99&quot;,&quot;type&quot;:&quot;pole-pocket&quot;,&quot;cover&quot;:{&quot;key&quot;:&quot;assets/models/pole-1628062864266-1631924568908.png&quot;,&quot;url&quot;:&quot;https://lct-designs.s3.us-west-1.amazonaws.com/assets/models/pole-1628062864266-1631924568908.png&quot;},&quot;back&quot;:{&quot;key&quot;:&quot;assets/models/pole-1631924700152.svg&quot;,&quot;url&quot;:&quot;https://lct-designs.s3.us-west-1.amazonaws.com/assets/models/pole-1631924700152.svg&quot;},&quot;mask&quot;:{&quot;key&quot;:&quot;assets/models/pole-mask-1631925211715.svg&quot;,&quot;url&quot;:&quot;https://lct-designs.s3.us-west-1.amazonaws.com/assets/models/pole-mask-1631925211715.svg&quot;},&quot;pos&quot;:&quot;2&quot;,&quot;accessories&quot;:&quot;2,3&quot;}" style="background-color: white;"><g class="model" style="pointer-events: none;"><polygon fill="#FFFFFF" points="0.5,0.5 0.5,67.2 0.5,300.5 0.5,367.2 500.5,367.2 500.5,300.5 500.5,67.2 500.5,0.5 "></polygon></g><image width="760" height="556" xlink:href="https://lct-designs.s3.us-west-1.amazonaws.com/assets/libs/monsters-truck-6-1658997640363.png" class="asset background locked" transform="matrix(0.6595323960558116,0,0,0.6595323960558116,0,0)"></image><text fill="#ffffff" font-family="Impact" font-size="45" x="50.877864861049005" y="201.76359325371294" stroke-opacity="1" stroke-width="1" stroke="#000000" transform="matrix(0.221296027302742,0,0,0.221296027302742,384.98547363281256,57.28457260131835)" svgjs:data="{&quot;leading&quot;:&quot;1.3&quot;}"><tspan dy="0" x="50.877864861049005" svgjs:data="{&quot;newLined&quot;:true}">COACH: COACH'S NAME</tspan></text><text fill="#ffffff" font-family="Impact" font-size="45" x="50.877864861049005" y="201.76359325371294" stroke-opacity="1" stroke-width="1" stroke="#000000" transform="matrix(0.221296027302742,0,0,0.221296027302742,354.3090515136719,43.087715148925774)" svgjs:data="{&quot;leading&quot;:&quot;1.3&quot;}"><tspan dy="0" x="50.877864861049005" svgjs:data="{&quot;newLined&quot;:true}">TEAM MOM: TEAM MOM'S NAME</tspan></text><g class="" transform="matrix(0.9999999999999999,0,0,1,0,0)"></g><text fill="#000000" font-family="Impact" font-size="20" x="192.063660189713" y="201.79391883677104" stroke-opacity="1" stroke-width="0.5" stroke="#ffffff" transform="matrix(0.7736769914627075,0,0,0.7736769914627075,118.97154247760773,3.820617675781243)" svgjs:data="{&quot;leading&quot;:&quot;1.3&quot;}"><tspan dy="0" x="192.063660189713" svgjs:data="{&quot;newLined&quot;:true}">Player</tspan></text><image width="754" height="760" xlink:href="https://lct-designs.s3.us-west-1.amazonaws.com/assets/libs/blue-dinosaurs-1-1659751886275.png" class="asset" transform="matrix(0.05045708268880844,0,0,0.05045708268880844,268.859314084053,108.04447937011716)"></image><text fill="#000000" font-family="Impact" font-size="20" x="192.063660189713" y="201.79391883677104" stroke-opacity="1" stroke-width="0.5" stroke="#ffffff" transform="matrix(0.7736769914627075,0,0,0.7736769914627075,118.97154247760773,66.39427185058594)" svgjs:data="{&quot;leading&quot;:&quot;1.3&quot;}"><tspan dy="0" x="192.063660189713" svgjs:data="{&quot;newLined&quot;:true}">Player</tspan></text><image width="754" height="760" xlink:href="https://lct-designs.s3.us-west-1.amazonaws.com/assets/libs/blue-dinosaurs-1-1659751886275.png" class="asset" transform="matrix(0.050457097589969635,0,0,0.05045709758996964,268.859314084053,170.61813354492188)"></image><text fill="#000000" font-family="Impact" font-size="20" x="192.063660189713" y="201.79391883677104" stroke-opacity="1" stroke-width="0.5" stroke="#ffffff" transform="matrix(0.7736769914627075,0,0,0.7736769914627075,118.97154247760773,129.8881378173828)" svgjs:data="{&quot;leading&quot;:&quot;1.3&quot;}"><tspan dy="0" x="192.063660189713" svgjs:data="{&quot;newLined&quot;:true}">Player</tspan></text><image width="754" height="760" xlink:href="https://lct-designs.s3.us-west-1.amazonaws.com/assets/libs/blue-dinosaurs-1-1659751886275.png" class="asset" transform="matrix(0.050457097589969635,0,0,0.05045709758996964,268.859314084053,234.11199951171872)"></image><image width="760" height="690" xlink:href="https://lct-designs.s3.us-west-1.amazonaws.com/assets/libs/blue-dinosaurs-3-1659751886277.png" class="asset" transform="matrix(0.1969255805015564,0,0,0.19692558050155642,61.04966735839844,154.97897338867188)"></image><image width="760" height="293" xlink:href="https://lct-designs.s3.us-west-1.amazonaws.com/assets/libs/blue-dinosaurs-2-1659751886277.png" class="asset" transform="matrix(0.27761271595954895,0,0,0.27761271595954895,30.68300437927246,80.33540344238281)"></image><text fill="#000000" font-family="Impact" font-size="20" x="192.063660189713" y="201.79391883677104" stroke-opacity="1" stroke-width="0.5" stroke="#ffffff" transform="matrix(0.7736769914627075,0,0,0.7736769914627075,182.3431854248047,3.820617675781243)" svgjs:data="{&quot;leading&quot;:&quot;1.3&quot;}"><tspan dy="0" x="192.063660189713" svgjs:data="{&quot;newLined&quot;:true}">Player</tspan></text><image width="754" height="760" xlink:href="https://lct-designs.s3.us-west-1.amazonaws.com/assets/libs/blue-dinosaurs-1-1659751886275.png" class="asset" transform="matrix(0.05045709013938904,0,0,0.05045709013938904,332.23095703125,108.04447937011716)"></image><text fill="#000000" font-family="Impact" font-size="20" x="192.063660189713" y="201.79391883677104" stroke-opacity="1" stroke-width="0.5" stroke="#ffffff" transform="matrix(0.7736769914627075,0,0,0.7736769914627075,182.3431854248047,66.39427185058594)" svgjs:data="{&quot;leading&quot;:&quot;1.3&quot;}"><tspan dy="0" x="192.063660189713" svgjs:data="{&quot;newLined&quot;:true}">Player</tspan></text><image width="754" height="760" xlink:href="https://lct-designs.s3.us-west-1.amazonaws.com/assets/libs/blue-dinosaurs-1-1659751886275.png" class="asset" transform="matrix(0.05045710504055023,0,0,0.05045710504055024,332.23095703125,170.61813354492188)"></image><text fill="#000000" font-family="Impact" font-size="20" x="192.063660189713" y="201.79391883677104" stroke-opacity="1" stroke-width="0.5" stroke="#ffffff" transform="matrix(0.7736769914627075,0,0,0.7736769914627075,182.3431854248047,129.8881378173828)" svgjs:data="{&quot;leading&quot;:&quot;1.3&quot;}"><tspan dy="0" x="192.063660189713" svgjs:data="{&quot;newLined&quot;:true}">Player</tspan></text><image width="754" height="760" xlink:href="https://lct-designs.s3.us-west-1.amazonaws.com/assets/libs/blue-dinosaurs-1-1659751886275.png" class="asset" transform="matrix(0.05045710504055023,0,0,0.05045710504055024,332.23095703125,234.11199951171872)"></image><text fill="#000000" font-family="Impact" font-size="20" x="192.063660189713" y="201.79391883677104" stroke-opacity="1" stroke-width="0.5" stroke="#ffffff" transform="matrix(0.7736769914627075,0,0,0.7736769914627075,242.0340118408203,4.2807159423828125)" svgjs:data="{&quot;leading&quot;:&quot;1.3&quot;}"><tspan dy="0" x="192.063660189713" svgjs:data="{&quot;newLined&quot;:true}">Player</tspan></text><image width="754" height="760" xlink:href="https://lct-designs.s3.us-west-1.amazonaws.com/assets/libs/blue-dinosaurs-1-1659751886275.png" class="asset" transform="matrix(0.050457097589969635,0,0,0.05045709758996964,391.9217834472657,108.50457763671875)"></image><text fill="#000000" font-family="Impact" font-size="20" x="192.063660189713" y="201.79391883677104" stroke-opacity="1" stroke-width="0.5" stroke="#ffffff" transform="matrix(0.7736769914627075,0,0,0.7736769914627075,242.0340118408203,66.8543701171875)" svgjs:data="{&quot;leading&quot;:&quot;1.3&quot;}"><tspan dy="0" x="192.063660189713" svgjs:data="{&quot;newLined&quot;:true}">Player</tspan></text><image width="754" height="760" xlink:href="https://lct-designs.s3.us-west-1.amazonaws.com/assets/libs/blue-dinosaurs-1-1659751886275.png" class="asset" transform="matrix(0.05045711249113083,0,0,0.05045711249113083,391.9217834472657,171.07823181152344)"></image><text fill="#000000" font-family="Impact" font-size="20" x="192.063660189713" y="201.79391883677104" stroke-opacity="1" stroke-width="0.5" stroke="#ffffff" transform="matrix(0.7736769914627075,0,0,0.7736769914627075,242.0340118408203,130.34823608398438)" svgjs:data="{&quot;leading&quot;:&quot;1.3&quot;}"><tspan dy="0" x="192.063660189713" svgjs:data="{&quot;newLined&quot;:true}">Player</tspan></text><image width="754" height="760" xlink:href="https://lct-designs.s3.us-west-1.amazonaws.com/assets/libs/blue-dinosaurs-1-1659751886275.png" class="asset" transform="matrix(0.05045711249113083,0,0,0.05045711249113083,391.9217834472657,234.57209777832028)"></image><text fill="#000000" font-family="Impact" font-size="20" x="192.063660189713" y="201.79391883677104" stroke-opacity="1" stroke-width="0.5" stroke="#ffffff" transform="matrix(0.7736769914627075,0,0,0.7736769914627075,300.80467224121094,3.360519289970398)" svgjs:data="{&quot;leading&quot;:&quot;1.3&quot;}"><tspan dy="0" x="192.063660189713" svgjs:data="{&quot;newLined&quot;:true}">Player</tspan></text><image width="754" height="760" xlink:href="https://lct-designs.s3.us-west-1.amazonaws.com/assets/libs/blue-dinosaurs-1-1659751886275.png" class="asset" transform="matrix(0.05045710504055023,0,0,0.05045710504055024,450.69244384765625,107.58438098430634)"></image><text fill="#000000" font-family="Impact" font-size="20" x="192.063660189713" y="201.79391883677104" stroke-opacity="1" stroke-width="0.5" stroke="#ffffff" transform="matrix(0.7736769914627075,0,0,0.7736769914627075,300.80467224121094,65.93417346477509)" svgjs:data="{&quot;leading&quot;:&quot;1.3&quot;}"><tspan dy="0" x="192.063660189713" svgjs:data="{&quot;newLined&quot;:true}">Player</tspan></text><image width="754" height="760" xlink:href="https://lct-designs.s3.us-west-1.amazonaws.com/assets/libs/blue-dinosaurs-1-1659751886275.png" class="asset" transform="matrix(0.050457123667001724,0,0,0.050457123667001724,450.69244384765625,170.15803515911102)"></image><text fill="#000000" font-family="Impact" font-size="20" x="192.063660189713" y="201.79391883677104" stroke-opacity="1" stroke-width="0.5" stroke="#ffffff" transform="matrix(0.7736769914627075,0,0,0.7736769914627075,300.80467224121094,129.42803943157196)" svgjs:data="{&quot;leading&quot;:&quot;1.3&quot;}"><tspan dy="0" x="192.063660189713" svgjs:data="{&quot;newLined&quot;:true}">Player</tspan></text><image width="754" height="760" xlink:href="https://lct-designs.s3.us-west-1.amazonaws.com/assets/libs/blue-dinosaurs-1-1659751886275.png" class="asset" transform="matrix(0.050457123667001724,0,0,0.050457123667001724,450.69244384765625,233.65190112590793)"></image><g class="mask" style="pointer-events: none;"><g><path fill="#BCBEC0" d="M-3642.4-2101.7v4589.1h7813.4v-4589.1H-3642.4z M500.5,67.2v233.3v66.7H0.5v-66.7V67.2V0.5h500V67.2z" transform="matrix(1,0,0,1,0,0)"></path><g transform="matrix(1,0,0,1,0,0)">
	<rect x="0.5" y="300.5" opacity="0.95" fill="#F1F2F2" width="500" height="66.7"></rect>
	<rect x="0.5" y="0.5" opacity="0.95" fill="#F1F2F2" width="500" height="66.7"></rect>
</g></g></g></svg>