<svg xmlns="http://www.w3.org/2000/svg" version="1.1" xmlns:xlink="http://www.w3.org/1999/xlink" xmlns:svgjs="http://svgjs.dev/svgjs" width="100%" height="100%" viewBox="1 1 499 365.70001220703125" preserveAspectRatio="none" data-info="{&quot;_id&quot;:4,&quot;name&quot;:&quot;POLE POCKET SOCCER BANNERS&quot;,&quot;information&quot;:&quot;- Size: 3’x5’\n- Material: heavy duty vinyl banner\n- Digitally printed on vinyl&quot;,&quot;price&quot;:&quot;95.00&quot;,&quot;sale_price&quot;:&quot;89.99&quot;,&quot;type&quot;:&quot;pole-pocket&quot;,&quot;cover&quot;:{&quot;key&quot;:&quot;assets/models/pole-1628062864266-1631924568908.png&quot;,&quot;url&quot;:&quot;https://lct-designs.s3.us-west-1.amazonaws.com/assets/models/pole-1628062864266-1631924568908.png&quot;},&quot;back&quot;:{&quot;key&quot;:&quot;assets/models/pole-1631924700152.svg&quot;,&quot;url&quot;:&quot;https://lct-designs.s3.us-west-1.amazonaws.com/assets/models/pole-1631924700152.svg&quot;},&quot;mask&quot;:{&quot;key&quot;:&quot;assets/models/pole-mask-1631925211715.svg&quot;,&quot;url&quot;:&quot;https://lct-designs.s3.us-west-1.amazonaws.com/assets/models/pole-mask-1631925211715.svg&quot;},&quot;pos&quot;:&quot;2&quot;,&quot;accessories&quot;:&quot;2,3&quot;}" style="background-color: white;"><g class="model" style="pointer-events: none;"><polygon fill="#FFFFFF" points="0.5,0.5 0.5,67.2 0.5,300.5 0.5,367.2 500.5,367.2 500.5,300.5 500.5,67.2 500.5,0.5 "></polygon></g><image width="760" height="556" xlink:href="https://lct-designs.s3.us-west-1.amazonaws.com/assets/libs/beautiful-beasts-3-1659585898344.png" class="asset background locked" transform="matrix(0.6595323960558116,0,0,0.6595323960558116,0,0)"></image><text fill="#ffffff" font-family="Impact" font-size="20" x="50.877864861049005" y="201.76359325371294" stroke-opacity="1" stroke-width="-0.5" stroke="#000000" transform="matrix(0.490454912185669,0,0,0.49045491218566895,364.86584472656256,-2.9221246242523193)" svgjs:data="{&quot;leading&quot;:&quot;1.3&quot;}"><tspan dy="0" x="50.877864861049005" svgjs:data="{&quot;newLined&quot;:true}">COACH: COACH'S NAME</tspan></text><text fill="#ffffff" font-family="Impact" font-size="20" x="50.877864861049005" y="201.76359325371294" stroke-opacity="1" stroke-width="-0.5" stroke="#000000" transform="matrix(0.49780541658401495,0,0,0.4978054165840149,333.0089416503907,11.091944694519043)" svgjs:data="{&quot;leading&quot;:&quot;1.3&quot;}"><tspan dy="0" x="50.877864861049005" svgjs:data="{&quot;newLined&quot;:true}">TEAM MOM: TEAM MOM'S NAME</tspan></text><text fill="#ffffff" font-family="Impact" font-size="17" stroke-opacity="1" stroke-width="-0.5" stroke="#000000" x="228.24997763356066" y="190.52145980661967" transform="matrix(0.9299711585044862,0,0,0.9299711585044862,-13.237285614013658,25.0458145737648)" svgjs:data="{&quot;leading&quot;:&quot;1.3&quot;}"><tspan dy="0" x="228.24997763356066" svgjs:data="{&quot;newLined&quot;:true}">Player</tspan></text><image width="760" height="735" xlink:href="https://lct-designs.s3.us-west-1.amazonaws.com/assets/libs/beautiful-beasts-7-1659585898342.png" class="asset" transform="matrix(0.06281100213527681,0,0,0.0628110021352768,195.8324584960938,141.93232733011249)"></image><image width="760" height="735" xlink:href="https://lct-designs.s3.us-west-1.amazonaws.com/assets/libs/beautiful-beasts-7-1659585898342.png" class="asset" transform="matrix(0.06281100213527681,0,0,0.0628110021352768,195.83248901367193,220.22773748636243)"></image><text fill="#ffffff" font-family="Impact" font-size="17" stroke-opacity="1" stroke-width="-0.5" stroke="#000000" x="228.24997763356066" y="190.52145980661967" transform="matrix(0.9299711585044862,0,0,0.9299711585044862,-13.237270355224595,103.3412247300148)" svgjs:data="{&quot;leading&quot;:&quot;1.3&quot;}"><tspan dy="0" x="228.24997763356066" svgjs:data="{&quot;newLined&quot;:true}">Player</tspan></text><text fill="#ffffff" font-family="Impact" font-size="17" stroke-opacity="1" stroke-width="-0.5" stroke="#000000" x="228.24997763356066" y="190.52145980661967" transform="matrix(0.9299711585044862,0,0,0.9299711585044862,57.71419143676761,25.0458145737648)" svgjs:data="{&quot;leading&quot;:&quot;1.3&quot;}"><tspan dy="0" x="228.24997763356066" svgjs:data="{&quot;newLined&quot;:true}">Player</tspan></text><image width="760" height="735" xlink:href="https://lct-designs.s3.us-west-1.amazonaws.com/assets/libs/beautiful-beasts-7-1659585898342.png" class="asset" transform="matrix(0.06281100213527681,0,0,0.0628110021352768,266.783935546875,141.93232733011249)"></image><image width="760" height="735" xlink:href="https://lct-designs.s3.us-west-1.amazonaws.com/assets/libs/beautiful-beasts-7-1659585898342.png" class="asset" transform="matrix(0.06281100213527681,0,0,0.0628110021352768,266.7839660644532,220.22773748636243)"></image><text fill="#ffffff" font-family="Impact" font-size="17" stroke-opacity="1" stroke-width="-0.5" stroke="#000000" x="228.24997763356066" y="190.52145980661967" transform="matrix(0.9299711585044862,0,0,0.9299711585044862,57.71420669555664,103.3412247300148)" svgjs:data="{&quot;leading&quot;:&quot;1.3&quot;}"><tspan dy="0" x="228.24997763356066" svgjs:data="{&quot;newLined&quot;:true}">Player</tspan></text><text fill="#ffffff" font-family="Impact" font-size="17" stroke-opacity="1" stroke-width="-0.5" stroke="#000000" x="228.24997763356066" y="190.52145980661967" transform="matrix(0.9299711585044862,0,0,0.9299711585044862,131.63893127441406,25.54134374856949)" svgjs:data="{&quot;leading&quot;:&quot;1.3&quot;}"><tspan dy="0" x="228.24997763356066" svgjs:data="{&quot;newLined&quot;:true}">Player</tspan></text><image width="760" height="735" xlink:href="https://lct-designs.s3.us-west-1.amazonaws.com/assets/libs/beautiful-beasts-7-1659585898342.png" class="asset" transform="matrix(0.06281100213527681,0,0,0.0628110021352768,340.7086791992188,142.42785650491717)"></image><image width="760" height="735" xlink:href="https://lct-designs.s3.us-west-1.amazonaws.com/assets/libs/beautiful-beasts-7-1659585898342.png" class="asset" transform="matrix(0.06281100213527681,0,0,0.0628110021352768,340.7087097167969,220.72326666116712)"></image><text fill="#ffffff" font-family="Impact" font-size="17" stroke-opacity="1" stroke-width="-0.5" stroke="#000000" x="228.24997763356066" y="190.52145980661967" transform="matrix(0.9299711585044862,0,0,0.9299711585044862,131.63894653320312,103.83675390481949)" svgjs:data="{&quot;leading&quot;:&quot;1.3&quot;}"><tspan dy="0" x="228.24997763356066" svgjs:data="{&quot;newLined&quot;:true}">Player</tspan></text><text fill="#ffffff" font-family="Impact" font-size="17" stroke-opacity="1" stroke-width="-0.5" stroke="#000000" x="228.24997763356066" y="190.52145980661967" transform="matrix(0.9299711585044862,0,0,0.9299711585044862,203.4922943115235,24.55027014017105)" svgjs:data="{&quot;leading&quot;:&quot;1.3&quot;}"><tspan dy="0" x="228.24997763356066" svgjs:data="{&quot;newLined&quot;:true}">Player</tspan></text><image width="760" height="735" xlink:href="https://lct-designs.s3.us-west-1.amazonaws.com/assets/libs/beautiful-beasts-7-1659585898342.png" class="asset" transform="matrix(0.06281100213527681,0,0,0.0628110021352768,412.56204223632824,141.43678289651874)"></image><image width="760" height="735" xlink:href="https://lct-designs.s3.us-west-1.amazonaws.com/assets/libs/beautiful-beasts-7-1659585898342.png" class="asset" transform="matrix(0.06281100213527681,0,0,0.0628110021352768,412.56207275390625,219.73219305276868)"></image><text fill="#ffffff" font-family="Impact" font-size="17" stroke-opacity="1" stroke-width="-0.5" stroke="#000000" x="228.24997763356066" y="190.52145980661967" transform="matrix(0.9299711585044862,0,0,0.9299711585044862,203.49230957031256,102.84568029642105)" svgjs:data="{&quot;leading&quot;:&quot;1.3&quot;}"><tspan dy="0" x="228.24997763356066" svgjs:data="{&quot;newLined&quot;:true}">Player</tspan></text><image width="760" height="760" xlink:href="https://lct-designs.s3.us-west-1.amazonaws.com/assets/libs/beautiful-beasts-6-1659585898344.png" class="asset" transform="matrix(0.18765255808830264,0,0,0.1876525580883026,28.54294204711917,142.26972961425784)"></image><image width="760" height="129" xlink:href="https://lct-designs.s3.us-west-1.amazonaws.com/assets/libs/beautiful-beasts-1-1659585898343.png" class="asset" transform="matrix(0.4273438453674317,0,0,0.42734384536743164,24.083078384399414,84.6747741699219)"></image><g class="mask" style="pointer-events: none;"><g><path fill="#BCBEC0" d="M-3642.4-2101.7v4589.1h7813.4v-4589.1H-3642.4z M500.5,67.2v233.3v66.7H0.5v-66.7V67.2V0.5h500V67.2z" transform="matrix(1,0,0,1,0,0)"></path><g transform="matrix(1,0,0,1,0,0)">
	<rect x="0.5" y="300.5" opacity="0.95" fill="#F1F2F2" width="500" height="66.7"></rect>
	<rect x="0.5" y="0.5" opacity="0.95" fill="#F1F2F2" width="500" height="66.7"></rect>
</g></g></g></svg>