<svg xmlns="http://www.w3.org/2000/svg" version="1.1" xmlns:xlink="http://www.w3.org/1999/xlink" xmlns:svgjs="http://svgjs.dev/svgjs" width="100%" height="100%" viewBox="1 1 499 365.70001220703125" preserveAspectRatio="none" data-info="{&quot;_id&quot;:4,&quot;name&quot;:&quot;POLE POCKET SOCCER BANNERS&quot;,&quot;information&quot;:&quot;- Size: 3’x5’\n- Material: heavy duty vinyl banner\n- Digitally printed on vinyl&quot;,&quot;price&quot;:&quot;95.00&quot;,&quot;sale_price&quot;:&quot;89.99&quot;,&quot;type&quot;:&quot;pole-pocket&quot;,&quot;cover&quot;:{&quot;key&quot;:&quot;assets/models/pole-1628062864266-1631924568908.png&quot;,&quot;url&quot;:&quot;https://lct-designs.s3.us-west-1.amazonaws.com/assets/models/pole-1628062864266-1631924568908.png&quot;},&quot;back&quot;:{&quot;key&quot;:&quot;assets/models/pole-1631924700152.svg&quot;,&quot;url&quot;:&quot;https://lct-designs.s3.us-west-1.amazonaws.com/assets/models/pole-1631924700152.svg&quot;},&quot;mask&quot;:{&quot;key&quot;:&quot;assets/models/pole-mask-1631925211715.svg&quot;,&quot;url&quot;:&quot;https://lct-designs.s3.us-west-1.amazonaws.com/assets/models/pole-mask-1631925211715.svg&quot;},&quot;pos&quot;:&quot;2&quot;,&quot;accessories&quot;:&quot;2,3&quot;}" style="background-color: white;"><g class="model" style="pointer-events: none;"><polygon fill="#FFFFFF" points="0.5,0.5 0.5,67.2 0.5,300.5 0.5,367.2 500.5,367.2 500.5,300.5 500.5,67.2 500.5,0.5 "></polygon></g><image width="760" height="556" xlink:href="https://lct-designs.s3.us-west-1.amazonaws.com/assets/libs/chiefs-5-1660026694334.png" class="asset background locked" transform="matrix(0.6595323960558116,0,0,0.6595323960558116,0,0)"></image><text fill="#ffffff" font-family="Impact" font-size="23" x="50.877864861049005" y="201.76359325371294" stroke-opacity="1" stroke-width="-0.5" stroke="#000000" transform="matrix(0.490454912185669,0,0,0.49045491218566895,366.9440002441407,17.607696533203125)" svgjs:data="{&quot;leading&quot;:&quot;1.3&quot;}"><tspan dy="0" x="50.877864861049005" svgjs:data="{&quot;newLined&quot;:true}">COACH: COACH'S NAME</tspan></text><text fill="#ffffff" font-family="Impact" font-size="23" x="50.877864861049005" y="201.76359325371294" stroke-opacity="1" stroke-width="-0.5" stroke="#000000" transform="matrix(0.49780541658401495,0,0,0.4978054165840149,329.38098144531256,-1.2063868045806885)" svgjs:data="{&quot;leading&quot;:&quot;1.3&quot;}"><tspan dy="0" x="50.877864861049005" svgjs:data="{&quot;newLined&quot;:true}">TEAM MOM: TEAM MOM'S NAME</tspan></text><text fill="#ffffff" font-family="Impact" font-size="17" stroke-opacity="1" stroke-width="0.5" stroke="#000000" x="233.46933776760378" y="188.80540974289514" transform="matrix(1.0000000000000002,0,0,1,-209.01336669921875,-42.6164779663086)" svgjs:data="{&quot;leading&quot;:&quot;1.3&quot;}"><tspan dy="0" x="233.46933776760378" svgjs:data="{&quot;newLined&quot;:true}">Player</tspan></text><image width="760" height="450" xlink:href="https://lct-designs.s3.us-west-1.amazonaws.com/assets/libs/chiefs-1660026694335.png" class="asset" transform="matrix(0.07321657240390779,0,0,0.07321657240390778,18.885055541992216,97.25312805175781)"></image><image width="760" height="286" xlink:href="https://lct-designs.s3.us-west-1.amazonaws.com/assets/libs/chiefs-2-1660026694334.png" class="asset" transform="matrix(0.29617589712142944,0,0,0.29617589712142944,28.542940139770536,207.15071105957028)"></image><image width="760" height="690" xlink:href="https://lct-designs.s3.us-west-1.amazonaws.com/assets/libs/chiefs-1-1660026694333.png" class="asset" transform="matrix(0.18845160305500033,-0.032223161309957504,0.032223161309957504,0.1884516030550003,340.35836791992193,167.00115966796875)"></image><text fill="#ffffff" font-family="Impact" font-size="17" stroke-opacity="1" stroke-width="0.5" stroke="#000000" x="233.46933776760378" y="188.80540974289514" transform="matrix(1.0000000000000002,0,0,1,85.51615905761719,-22.299285888671882)" svgjs:data="{&quot;leading&quot;:&quot;1.3&quot;}"><tspan dy="0" x="233.46933776760378" svgjs:data="{&quot;newLined&quot;:true}">Player</tspan></text><image width="760" height="450" xlink:href="https://lct-designs.s3.us-west-1.amazonaws.com/assets/libs/chiefs-1660026694335.png" class="asset" transform="matrix(0.07321657240390779,0,0,0.07321657240390778,313.4145812988282,118.56138610839847)"></image><text fill="#ffffff" font-family="Impact" font-size="17" stroke-opacity="1" stroke-width="0.5" stroke="#000000" x="233.46933776760378" y="188.80540974289514" transform="matrix(1.0000000000000002,0,0,1,20.639877319335966,-58.47375488281251)" svgjs:data="{&quot;leading&quot;:&quot;1.3&quot;}"><tspan dy="0" x="233.46933776760378" svgjs:data="{&quot;newLined&quot;:true}">Player</tspan></text><image width="760" height="450" xlink:href="https://lct-designs.s3.us-west-1.amazonaws.com/assets/libs/chiefs-1660026694335.png" class="asset" transform="matrix(0.07321657240390779,0,0,0.07321657240390778,248.53829956054693,81.39583587646484)"></image><text fill="#ffffff" font-family="Impact" font-size="17" stroke-opacity="1" stroke-width="0.5" stroke="#000000" x="233.46933776760378" y="188.80540974289514" transform="matrix(1.0000000000000002,0,0,1,-189.10255813598633,20.812713623046875)" svgjs:data="{&quot;leading&quot;:&quot;1.3&quot;}"><tspan dy="0" x="233.46933776760378" svgjs:data="{&quot;newLined&quot;:true}">Player</tspan></text><image width="760" height="450" xlink:href="https://lct-designs.s3.us-west-1.amazonaws.com/assets/libs/chiefs-1660026694335.png" class="asset" transform="matrix(0.07321657240390779,0,0,0.07321657240390778,38.79586410522464,160.6823196411133)"></image><text fill="#ffffff" font-family="Impact" font-size="17" stroke-opacity="1" stroke-width="0.5" stroke="#000000" x="233.46933776760378" y="188.80540974289514" transform="matrix(1.0000000000000002,0,0,1,55.41688537597659,83.25084686279297)" svgjs:data="{&quot;leading&quot;:&quot;1.3&quot;}"><tspan dy="0" x="233.46933776760378" svgjs:data="{&quot;newLined&quot;:true}">Player</tspan></text><image width="760" height="450" xlink:href="https://lct-designs.s3.us-west-1.amazonaws.com/assets/libs/chiefs-1660026694335.png" class="asset" transform="matrix(0.07321657240390779,0,0,0.07321657240390778,284.80194091796875,225.59814453124997)"></image><text fill="#ffffff" font-family="Impact" font-size="17" stroke-opacity="1" stroke-width="0.5" stroke="#000000" x="233.46933776760378" y="188.80540974289514" transform="matrix(1.0000000000000002,0,0,1,-109.6376953125,14.86624145507811)" svgjs:data="{&quot;leading&quot;:&quot;1.3&quot;}"><tspan dy="0" x="233.46933776760378" svgjs:data="{&quot;newLined&quot;:true}">Player</tspan></text><image width="760" height="450" xlink:href="https://lct-designs.s3.us-west-1.amazonaws.com/assets/libs/chiefs-1660026694335.png" class="asset" transform="matrix(0.07321657240390779,0,0,0.07321657240390778,118.26072692871097,154.73583984375003)"></image><text fill="#ffffff" font-family="Impact" font-size="17" stroke-opacity="1" stroke-width="0.5" stroke="#000000" x="233.46933776760378" y="188.80540974289514" transform="matrix(1.0000000000000002,0,0,1,-133.82999420166016,-49.058502197265625)" svgjs:data="{&quot;leading&quot;:&quot;1.3&quot;}"><tspan dy="0" x="233.46933776760378" svgjs:data="{&quot;newLined&quot;:true}">Player</tspan></text><image width="760" height="450" xlink:href="https://lct-designs.s3.us-west-1.amazonaws.com/assets/libs/chiefs-1660026694335.png" class="asset" transform="matrix(0.07321657240390779,0,0,0.07321657240390778,94.06842803955081,90.81109619140625)"></image><text fill="#ffffff" font-family="Impact" font-size="17" stroke-opacity="1" stroke-width="0.5" stroke="#000000" x="233.46933776760378" y="188.80540974289514" transform="matrix(1.0000000000000002,0,0,1,-58.9141845703125,-45.094161987304695)" svgjs:data="{&quot;leading&quot;:&quot;1.3&quot;}"><tspan dy="0" x="233.46933776760378" svgjs:data="{&quot;newLined&quot;:true}">Player</tspan></text><image width="760" height="450" xlink:href="https://lct-designs.s3.us-west-1.amazonaws.com/assets/libs/chiefs-1660026694335.png" class="asset" transform="matrix(0.07321657240390779,0,0,0.07321657240390778,168.9842376708985,94.77543640136719)"></image><text fill="#ffffff" font-family="Impact" font-size="17" stroke-opacity="1" stroke-width="0.5" stroke="#000000" x="233.46933776760378" y="188.80540974289514" transform="matrix(1.0000000000000002,0,0,1,-27.605941772460923,16.352867126464844)" svgjs:data="{&quot;leading&quot;:&quot;1.3&quot;}"><tspan dy="0" x="233.46933776760378" svgjs:data="{&quot;newLined&quot;:true}">Player</tspan></text><image width="760" height="450" xlink:href="https://lct-designs.s3.us-west-1.amazonaws.com/assets/libs/chiefs-1660026694335.png" class="asset" transform="matrix(0.07321657240390779,0,0,0.07321657240390778,200.29248046875,156.2224578857422)"></image><text fill="#ffffff" font-family="Impact" font-size="17" stroke-opacity="1" stroke-width="0.5" stroke="#000000" x="233.46933776760378" y="188.80540974289514" transform="matrix(1.0000000000000002,0,0,1,42.354476928710966,24.777076721191406)" svgjs:data="{&quot;leading&quot;:&quot;1.3&quot;}"><tspan dy="0" x="233.46933776760378" svgjs:data="{&quot;newLined&quot;:true}">Player</tspan></text><image width="760" height="450" xlink:href="https://lct-designs.s3.us-west-1.amazonaws.com/assets/libs/chiefs-1660026694335.png" class="asset" transform="matrix(0.07321657240390779,0,0,0.07321657240390778,270.25289916992193,164.64666748046878)"></image><g class="mask" style="pointer-events: none;"><g><path fill="#BCBEC0" d="M-3642.4-2101.7v4589.1h7813.4v-4589.1H-3642.4z M500.5,67.2v233.3v66.7H0.5v-66.7V67.2V0.5h500V67.2z" transform="matrix(1,0,0,1,0,0)"></path><g transform="matrix(1,0,0,1,0,0)">
	<rect x="0.5" y="300.5" opacity="0.95" fill="#F1F2F2" width="500" height="66.7"></rect>
	<rect x="0.5" y="0.5" opacity="0.95" fill="#F1F2F2" width="500" height="66.7"></rect>
</g></g></g></svg>