<svg xmlns="http://www.w3.org/2000/svg" version="1.1" xmlns:xlink="http://www.w3.org/1999/xlink" xmlns:svgjs="http://svgjs.dev/svgjs" width="100%" height="100%" viewBox="1 1 499 365.70001220703125" preserveAspectRatio="none" data-info="{&quot;_id&quot;:4,&quot;name&quot;:&quot;POLE POCKET SOCCER BANNERS&quot;,&quot;information&quot;:&quot;- Size: 3’x5’\n- Material: heavy duty vinyl banner\n- Digitally printed on vinyl&quot;,&quot;price&quot;:&quot;95.00&quot;,&quot;sale_price&quot;:&quot;89.99&quot;,&quot;type&quot;:&quot;pole-pocket&quot;,&quot;cover&quot;:{&quot;key&quot;:&quot;assets/models/pole-1628062864266-1631924568908.png&quot;,&quot;url&quot;:&quot;https://lct-designs.s3.us-west-1.amazonaws.com/assets/models/pole-1628062864266-1631924568908.png&quot;},&quot;back&quot;:{&quot;key&quot;:&quot;assets/models/pole-1631924700152.svg&quot;,&quot;url&quot;:&quot;https://lct-designs.s3.us-west-1.amazonaws.com/assets/models/pole-1631924700152.svg&quot;},&quot;mask&quot;:{&quot;key&quot;:&quot;assets/models/pole-mask-1631925211715.svg&quot;,&quot;url&quot;:&quot;https://lct-designs.s3.us-west-1.amazonaws.com/assets/models/pole-mask-1631925211715.svg&quot;},&quot;pos&quot;:&quot;2&quot;,&quot;accessories&quot;:&quot;2,3&quot;}" style="background-color: white;"><g class="model" style="pointer-events: none;"><polygon fill="#FFFFFF" points="0.5,0.5 0.5,67.2 0.5,300.5 0.5,367.2 500.5,367.2 500.5,300.5 500.5,67.2 500.5,0.5 "></polygon></g><image width="760" height="455" xlink:href="https://lct-designs.s3.us-west-1.amazonaws.com/assets/libs/bees-muscle-2-1660026447696.png" class="asset background locked" transform="matrix(0.805934092762706,0,0,0.805934092762706,0,0)"></image><text fill="#000000" font-family="Impact" font-size="25" x="50.877864861049005" y="201.76359325371294" stroke-opacity="1" stroke-width="-0.5" stroke="#ffffff" transform="matrix(0.490454912185669,0,0,0.49045491218566895,170.95492482185364,184.3922271728516)" svgjs:data="{&quot;leading&quot;:&quot;1.3&quot;}"><tspan dy="0" x="50.877864861049005" svgjs:data="{&quot;newLined&quot;:true}">COACH: COACH'S NAME</tspan></text><text fill="#000000" font-family="Impact" font-size="25" x="50.877864861049005" y="201.76359325371294" stroke-opacity="1" stroke-width="-0.5" stroke="#ffffff" transform="matrix(0.4978054165840149,0,0,0.49780541658401495,150.86689686775205,2.6509757041931152)" svgjs:data="{&quot;leading&quot;:&quot;1.3&quot;}"><tspan dy="0" x="50.877864861049005" svgjs:data="{&quot;newLined&quot;:true}">TEAM MOM: TEAM MOM'S NAME</tspan></text><image width="684" height="760" xlink:href="https://lct-designs.s3.us-west-1.amazonaws.com/assets/libs/bees-muscle-1-1660026447695.png" class="asset" transform="matrix(0.21027936041355136,0,0,0.21027936041355133,178.57948231697083,108.04447174072263)"></image><text fill="#ffffff" font-family="Impact" font-size="15" stroke-opacity="1" stroke-width="0.5" stroke="#000000" x="228.24997763356066" y="190.52145980661967" transform="matrix(1.0591813325881958,0,0,1.0591813325881958,-219.6525421142578,-60.69726181030273)" svgjs:data="{&quot;leading&quot;:&quot;1.3&quot;}"><tspan dy="0" x="228.24997763356066" svgjs:data="{&quot;newLined&quot;:true}">Player</tspan></text><image width="760" height="760" xlink:href="https://lct-designs.s3.us-west-1.amazonaws.com/assets/libs/bees-muscle-1660026447697.png" class="asset" transform="matrix(0.05280194804072381,0,0,0.0528019480407238,22.81929588317871,86.87982940673828)"></image><text fill="#ffffff" font-family="Impact" font-size="15" stroke-opacity="1" stroke-width="0.5" stroke="#000000" x="228.24997763356066" y="190.52145980661967" transform="matrix(1.0591813325881958,0,0,1.0591813325881958,-219.6525421142578,11.998600006103509)" svgjs:data="{&quot;leading&quot;:&quot;1.3&quot;}"><tspan dy="0" x="228.24997763356066" svgjs:data="{&quot;newLined&quot;:true}">Player</tspan></text><image width="760" height="760" xlink:href="https://lct-designs.s3.us-west-1.amazonaws.com/assets/libs/bees-muscle-1660026447697.png" class="asset" transform="matrix(0.0528019517660141,0,0,0.0528019517660141,22.81932640075685,159.57568359375)"></image><text fill="#ffffff" font-family="Impact" font-size="15" stroke-opacity="1" stroke-width="0.5" stroke="#000000" x="228.24997763356066" y="190.52145980661967" transform="matrix(1.0591813325881958,0,0,1.0591813325881958,-219.6525421142578,82.39397430419922)" svgjs:data="{&quot;leading&quot;:&quot;1.3&quot;}"><tspan dy="0" x="228.24997763356066" svgjs:data="{&quot;newLined&quot;:true}">Player</tspan></text><image width="760" height="760" xlink:href="https://lct-designs.s3.us-west-1.amazonaws.com/assets/libs/bees-muscle-1660026447697.png" class="asset" transform="matrix(0.0528019517660141,0,0,0.0528019517660141,22.819301605224624,229.9710540771484)"></image><text fill="#ffffff" font-family="Impact" font-size="15" stroke-opacity="1" stroke-width="0.5" stroke="#000000" x="228.24997763356066" y="190.52145980661967" transform="matrix(1.0591813325881958,0,0,1.0591813325881958,-142.93798828125,-22.969036102294922)" svgjs:data="{&quot;leading&quot;:&quot;1.3&quot;}"><tspan dy="0" x="228.24997763356066" svgjs:data="{&quot;newLined&quot;:true}">Player</tspan></text><image width="760" height="760" xlink:href="https://lct-designs.s3.us-west-1.amazonaws.com/assets/libs/bees-muscle-1660026447697.png" class="asset" transform="matrix(0.0528019517660141,0,0,0.0528019517660141,99.53388214111328,124.60804748535156)"></image><text fill="#ffffff" font-family="Impact" font-size="15" stroke-opacity="1" stroke-width="0.5" stroke="#000000" x="228.24997763356066" y="190.52145980661967" transform="matrix(1.0591813325881958,0,0,1.0591813325881958,-142.93798828125,47.42633819580079)" svgjs:data="{&quot;leading&quot;:&quot;1.3&quot;}"><tspan dy="0" x="228.24997763356066" svgjs:data="{&quot;newLined&quot;:true}">Player</tspan></text><image width="760" height="760" xlink:href="https://lct-designs.s3.us-west-1.amazonaws.com/assets/libs/bees-muscle-1660026447697.png" class="asset" transform="matrix(0.0528019517660141,0,0,0.0528019517660141,99.53385543823242,195.00341796875003)"></image><text fill="#ffffff" font-family="Impact" font-size="15" stroke-opacity="1" stroke-width="0.5" stroke="#000000" x="228.24997763356066" y="190.52145980661967" transform="matrix(1.0591813325881958,0,0,1.0591813325881958,108.61468505859375,-22.508937835693352)" svgjs:data="{&quot;leading&quot;:&quot;1.3&quot;}"><tspan dy="0" x="228.24997763356066" svgjs:data="{&quot;newLined&quot;:true}">Player</tspan></text><image width="760" height="760" xlink:href="https://lct-designs.s3.us-west-1.amazonaws.com/assets/libs/bees-muscle-1660026447697.png" class="asset" transform="matrix(0.0528019517660141,0,0,0.0528019517660141,351.0865478515625,125.06814575195312)"></image><text fill="#ffffff" font-family="Impact" font-size="15" stroke-opacity="1" stroke-width="0.5" stroke="#000000" x="228.24997763356066" y="190.52145980661967" transform="matrix(1.0591813325881958,0,0,1.0591813325881958,108.61468505859375,47.88643646240234)" svgjs:data="{&quot;leading&quot;:&quot;1.3&quot;}"><tspan dy="0" x="228.24997763356066" svgjs:data="{&quot;newLined&quot;:true}">Player</tspan></text><image width="760" height="760" xlink:href="https://lct-designs.s3.us-west-1.amazonaws.com/assets/libs/bees-muscle-1660026447697.png" class="asset" transform="matrix(0.0528019517660141,0,0,0.0528019517660141,351.0865478515625,195.46351623535156)"></image><text fill="#ffffff" font-family="Impact" font-size="15" stroke-opacity="1" stroke-width="0.5" stroke="#000000" x="228.24997763356066" y="190.52145980661967" transform="matrix(1.0591813325881958,0,0,1.0591813325881958,187.4141082763672,-60.69726181030273)" svgjs:data="{&quot;leading&quot;:&quot;1.3&quot;}"><tspan dy="0" x="228.24997763356066" svgjs:data="{&quot;newLined&quot;:true}">Player</tspan></text><image width="760" height="760" xlink:href="https://lct-designs.s3.us-west-1.amazonaws.com/assets/libs/bees-muscle-1660026447697.png" class="asset" transform="matrix(0.0528019517660141,0,0,0.0528019517660141,429.8859558105469,86.87982940673828)"></image><text fill="#ffffff" font-family="Impact" font-size="15" stroke-opacity="1" stroke-width="0.5" stroke="#000000" x="228.24997763356066" y="190.52145980661967" transform="matrix(1.0591813325881958,0,0,1.0591813325881958,187.4141082763672,11.998600006103509)" svgjs:data="{&quot;leading&quot;:&quot;1.3&quot;}"><tspan dy="0" x="228.24997763356066" svgjs:data="{&quot;newLined&quot;:true}">Player</tspan></text><image width="760" height="760" xlink:href="https://lct-designs.s3.us-west-1.amazonaws.com/assets/libs/bees-muscle-1660026447697.png" class="asset" transform="matrix(0.0528019517660141,0,0,0.0528019517660141,429.885986328125,159.57569122314453)"></image><text fill="#ffffff" font-family="Impact" font-size="15" stroke-opacity="1" stroke-width="0.5" stroke="#000000" x="228.24997763356066" y="190.52145980661967" transform="matrix(1.0591813325881958,0,0,1.0591813325881958,187.4141082763672,82.39397430419922)" svgjs:data="{&quot;leading&quot;:&quot;1.3&quot;}"><tspan dy="0" x="228.24997763356066" svgjs:data="{&quot;newLined&quot;:true}">Player</tspan></text><image width="760" height="760" xlink:href="https://lct-designs.s3.us-west-1.amazonaws.com/assets/libs/bees-muscle-1660026447697.png" class="asset" transform="matrix(0.0528019517660141,0,0,0.0528019517660141,429.8859558105469,229.97104644775393)"></image><g class="mask" style="pointer-events: none;"><g><path fill="#BCBEC0" d="M-3642.4-2101.7v4589.1h7813.4v-4589.1H-3642.4z M500.5,67.2v233.3v66.7H0.5v-66.7V67.2V0.5h500V67.2z" transform="matrix(1,0,0,1,0,0)"></path><g transform="matrix(1,0,0,1,0,0)">
	<rect x="0.5" y="300.5" opacity="0.95" fill="#F1F2F2" width="500" height="66.7"></rect>
	<rect x="0.5" y="0.5" opacity="0.95" fill="#F1F2F2" width="500" height="66.7"></rect>
</g></g></g></svg>