<svg xmlns="http://www.w3.org/2000/svg" version="1.1" xmlns:xlink="http://www.w3.org/1999/xlink" xmlns:svgjs="http://svgjs.dev/svgjs" width="100%" height="100%" viewBox="1 1 499 365.70001220703125" preserveAspectRatio="none" data-info="{&quot;_id&quot;:4,&quot;name&quot;:&quot;POLE POCKET SOCCER BANNERS&quot;,&quot;information&quot;:&quot;- Size: 3’x5’\n- Material: heavy duty vinyl banner\n- Digitally printed on vinyl&quot;,&quot;price&quot;:&quot;95.00&quot;,&quot;sale_price&quot;:&quot;89.99&quot;,&quot;type&quot;:&quot;pole-pocket&quot;,&quot;cover&quot;:{&quot;key&quot;:&quot;assets/models/pole-1628062864266-1631924568908.png&quot;,&quot;url&quot;:&quot;https://lct-designs.s3.us-west-1.amazonaws.com/assets/models/pole-1628062864266-1631924568908.png&quot;},&quot;back&quot;:{&quot;key&quot;:&quot;assets/models/pole-1631924700152.svg&quot;,&quot;url&quot;:&quot;https://lct-designs.s3.us-west-1.amazonaws.com/assets/models/pole-1631924700152.svg&quot;},&quot;mask&quot;:{&quot;key&quot;:&quot;assets/models/pole-mask-1631925211715.svg&quot;,&quot;url&quot;:&quot;https://lct-designs.s3.us-west-1.amazonaws.com/assets/models/pole-mask-1631925211715.svg&quot;},&quot;pos&quot;:&quot;2&quot;,&quot;accessories&quot;:&quot;2,3&quot;}" style="background-color: white;"><g class="model" style="pointer-events: none;"><polygon fill="#FFFFFF" points="0.5,0.5 0.5,67.2 0.5,300.5 0.5,367.2 500.5,367.2 500.5,300.5 500.5,67.2 500.5,0.5 "></polygon></g><image width="760" height="556" xlink:href="https://lct-designs.s3.us-west-1.amazonaws.com/assets/libs/chameleons-4-1660026594549.png" class="asset background locked" transform="matrix(0.6595323960558116,0,0,0.6595323960558116,0,0)"></image><text fill="#ffffff" font-family="Impact" font-size="27" x="50.877864861049005" y="201.76359325371294" stroke-opacity="1" stroke-width="-0.5" stroke="#000000" transform="matrix(0.490454912185669,0,0,0.49045491218566895,166.58265686035156,184.1093444824219)" svgjs:data="{&quot;leading&quot;:&quot;1.3&quot;}"><tspan dy="0" x="50.877864861049005" svgjs:data="{&quot;newLined&quot;:true}">COACH: COACH'S NAME</tspan></text><text fill="#ffffff" font-family="Impact" font-size="27" x="50.877864861049005" y="201.76359325371294" stroke-opacity="1" stroke-width="-0.5" stroke="#000000" transform="matrix(0.49780541658401495,0,0,0.4978054165840149,144.91505432128906,-0.215310737490654)" svgjs:data="{&quot;leading&quot;:&quot;1.3&quot;}"><tspan dy="0" x="50.877864861049005" svgjs:data="{&quot;newLined&quot;:true}">TEAM MOM: TEAM MOM'S NAME</tspan></text><image width="739" height="760" xlink:href="https://lct-designs.s3.us-west-1.amazonaws.com/assets/libs/chameleons-1-1660026594547.png" class="asset" transform="matrix(0.1987368613481522,0,0,0.19873686134815216,177.06175231933594,113.52838134765625)"></image><text fill="#ffffff" font-family="Impact" font-size="17" stroke-opacity="1" stroke-width="0.5" stroke="#000000" x="233.46933776760378" y="188.80540974289514" transform="matrix(0.866164803504944,-0.49975842237472534,0.4997584223747254,0.8661648035049438,-249.1099548339844,113.48992156982425)" svgjs:data="{&quot;leading&quot;:&quot;1.3&quot;}"><tspan dy="0" x="233.46933776760378" svgjs:data="{&quot;newLined&quot;:true}">Player</tspan></text><text fill="#ffffff" font-family="Impact" font-size="17" stroke-opacity="1" stroke-width="0.5" stroke="#000000" x="233.46933776760378" y="188.80540974289514" transform="matrix(0.866164803504944,-0.49975842237472534,0.4997584223747254,0.8661648035049438,-169.73426818847656,156.6019439697266)" svgjs:data="{&quot;leading&quot;:&quot;1.3&quot;}"><tspan dy="0" x="233.46933776760378" svgjs:data="{&quot;newLined&quot;:true}">Player</tspan></text><image width="602" height="760" xlink:href="https://lct-designs.s3.us-west-1.amazonaws.com/assets/libs/chameleons-1660026594550.png" class="asset" transform="matrix(0.07615749537944794,0,0,0.07615749537944794,99.15040588378909,123.93472290039062)"></image><text fill="#ffffff" font-family="Impact" font-size="17" stroke-opacity="1" stroke-width="0.5" stroke="#000000" x="233.46933776760378" y="188.80540974289514" transform="matrix(0.866164803504944,-0.49975842237472534,0.4997584223747254,0.8661648035049438,-163.60940551757815,247.78143310546878)" svgjs:data="{&quot;leading&quot;:&quot;1.3&quot;}"><tspan dy="0" x="233.46933776760378" svgjs:data="{&quot;newLined&quot;:true}">Player</tspan></text><image width="602" height="760" xlink:href="https://lct-designs.s3.us-west-1.amazonaws.com/assets/libs/chameleons-1660026594550.png" class="asset" transform="matrix(0.07615754008293153,0,0,0.07615754008293152,105.27526855468753,215.11419677734378)"></image><text fill="#ffffff" font-family="Impact" font-size="17" stroke-opacity="1" stroke-width="0.5" stroke="#000000" x="233.46933776760378" y="188.80540974289514" transform="matrix(0.866164803504944,-0.49975842237472534,0.4997584223747254,0.8661648035049438,-243.9761657714844,220.0311431884766)" svgjs:data="{&quot;leading&quot;:&quot;1.3&quot;}"><tspan dy="0" x="233.46933776760378" svgjs:data="{&quot;newLined&quot;:true}">Player</tspan></text><image width="602" height="760" xlink:href="https://lct-designs.s3.us-west-1.amazonaws.com/assets/libs/chameleons-1660026594550.png" class="asset" transform="matrix(0.07615749537944794,0,0,0.07615749537944794,24.90850830078125,187.36392211914065)"></image><image width="602" height="760" xlink:href="https://lct-designs.s3.us-west-1.amazonaws.com/assets/libs/chameleons-1660026594550.png" class="asset" transform="matrix(0.07615740597248077,0,0,0.07615740597248079,20.270273208618192,83.79593658447266)"></image><text fill="#ffffff" font-family="Impact" font-size="17" stroke-opacity="1" stroke-width="0.5" stroke="#000000" x="233.46933776760378" y="188.80540974289514" transform="matrix(0.866164803504944,-0.49975842237472534,0.4997584223747254,0.8661648035049438,58.303573608398466,158.08856201171878)" svgjs:data="{&quot;leading&quot;:&quot;1.3&quot;}"><tspan dy="0" x="233.46933776760378" svgjs:data="{&quot;newLined&quot;:true}">Player</tspan></text><image width="602" height="760" xlink:href="https://lct-designs.s3.us-west-1.amazonaws.com/assets/libs/chameleons-1660026594550.png" class="asset" transform="matrix(0.07615751773118974,0,0,0.07615751773118973,327.1882476806641,125.42134094238281)"></image><text fill="#ffffff" font-family="Impact" font-size="17" stroke-opacity="1" stroke-width="0.5" stroke="#000000" x="233.46933776760378" y="188.80540974289514" transform="matrix(0.866164803504944,-0.49975842237472534,0.4997584223747254,0.8661648035049438,64.4284362792969,249.2680511474609)" svgjs:data="{&quot;leading&quot;:&quot;1.3&quot;}"><tspan dy="0" x="233.46933776760378" svgjs:data="{&quot;newLined&quot;:true}">Player</tspan></text><image width="602" height="760" xlink:href="https://lct-designs.s3.us-west-1.amazonaws.com/assets/libs/chameleons-1660026594550.png" class="asset" transform="matrix(0.07615755498409273,0,0,0.07615755498409271,333.31311035156256,216.60081481933597)"></image><text fill="#ffffff" font-family="Impact" font-size="17" stroke-opacity="1" stroke-width="0.5" stroke="#000000" x="233.46933776760378" y="188.80540974289514" transform="matrix(0.866164803504944,-0.49975842237472534,0.4997584223747254,0.8661648035049438,143.62571716308594,117.4542236328125)" svgjs:data="{&quot;leading&quot;:&quot;1.3&quot;}"><tspan dy="0" x="233.46933776760378" svgjs:data="{&quot;newLined&quot;:true}">Player</tspan></text><image width="602" height="760" xlink:href="https://lct-designs.s3.us-west-1.amazonaws.com/assets/libs/chameleons-1660026594550.png" class="asset" transform="matrix(0.07615754008293153,0,0,0.07615754008293152,412.5103759765625,84.78700256347656)"></image><text fill="#ffffff" font-family="Impact" font-size="17" stroke-opacity="1" stroke-width="0.5" stroke="#000000" x="233.46933776760378" y="188.80540974289514" transform="matrix(0.866164803504944,-0.49975842237472534,0.4997584223747254,0.8661648035049438,149.75057983398438,208.63371276855472)" svgjs:data="{&quot;leading&quot;:&quot;1.3&quot;}"><tspan dy="0" x="233.46933776760378" svgjs:data="{&quot;newLined&quot;:true}">Player</tspan></text><image width="602" height="760" xlink:href="https://lct-designs.s3.us-west-1.amazonaws.com/assets/libs/chameleons-1660026594550.png" class="asset" transform="matrix(0.07615757733583452,0,0,0.07615757733583452,418.6352539062501,175.9664764404297)"></image><g class="mask" style="pointer-events: none;"><g><path fill="#BCBEC0" d="M-3642.4-2101.7v4589.1h7813.4v-4589.1H-3642.4z M500.5,67.2v233.3v66.7H0.5v-66.7V67.2V0.5h500V67.2z" transform="matrix(1,0,0,1,0,0)"></path><g transform="matrix(1,0,0,1,0,0)">
	<rect x="0.5" y="300.5" opacity="0.95" fill="#F1F2F2" width="500" height="66.7"></rect>
	<rect x="0.5" y="0.5" opacity="0.95" fill="#F1F2F2" width="500" height="66.7"></rect>
</g></g></g></svg>