<svg xmlns="http://www.w3.org/2000/svg" version="1.1" xmlns:xlink="http://www.w3.org/1999/xlink" xmlns:svgjs="http://svgjs.dev/svgjs" width="100%" height="100%" viewBox="1 1 499 365.70001220703125" preserveAspectRatio="none" data-info="{&quot;_id&quot;:4,&quot;name&quot;:&quot;POLE POCKET SOCCER BANNERS&quot;,&quot;information&quot;:&quot;- Size: 3’x5’\n- Material: heavy duty vinyl banner\n- Digitally printed on vinyl&quot;,&quot;price&quot;:&quot;95.00&quot;,&quot;sale_price&quot;:&quot;89.99&quot;,&quot;type&quot;:&quot;pole-pocket&quot;,&quot;cover&quot;:{&quot;key&quot;:&quot;assets/models/pole-1628062864266-1631924568908.png&quot;,&quot;url&quot;:&quot;https://lct-designs.s3.us-west-1.amazonaws.com/assets/models/pole-1628062864266-1631924568908.png&quot;},&quot;back&quot;:{&quot;key&quot;:&quot;assets/models/pole-1631924700152.svg&quot;,&quot;url&quot;:&quot;https://lct-designs.s3.us-west-1.amazonaws.com/assets/models/pole-1631924700152.svg&quot;},&quot;mask&quot;:{&quot;key&quot;:&quot;assets/models/pole-mask-1631925211715.svg&quot;,&quot;url&quot;:&quot;https://lct-designs.s3.us-west-1.amazonaws.com/assets/models/pole-mask-1631925211715.svg&quot;},&quot;pos&quot;:&quot;2&quot;,&quot;accessories&quot;:&quot;2,3&quot;}" style="background-color: white;"><g class="model" style="pointer-events: none;"><polygon fill="#FFFFFF" points="0.5,0.5 0.5,67.2 0.5,300.5 0.5,367.2 500.5,367.2 500.5,300.5 500.5,67.2 500.5,0.5 "></polygon></g><image width="760" height="556" xlink:href="https://lct-designs.s3.us-west-1.amazonaws.com/assets/libs/minions-6-1660031084138.png" class="asset background locked" transform="matrix(0.6595323960558116,0,0,0.6595323960558116,0,0)"></image><text fill="#ffffff" font-family="Impact" font-size="20" x="50.877864861049005" y="201.76359325371294" stroke-opacity="1" stroke-width="0.5" stroke="#000000" transform="matrix(0.490454912185669,0,0,0.49045491218566895,373.78619384765625,10.014163970947273)" svgjs:data="{&quot;leading&quot;:&quot;1.3&quot;}"><tspan dy="0" x="50.877864861049005" svgjs:data="{&quot;newLined&quot;:true}">COACH: COACH'S NAME</tspan></text><text fill="#ffffff" font-family="Impact" font-size="20" x="50.877864861049005" y="201.76359325371294" stroke-opacity="1" stroke-width="0.5" stroke="#000000" transform="matrix(0.4978054165840149,0,0,0.49780541658401495,341.504638671875,-3.3303298950195312)" svgjs:data="{&quot;leading&quot;:&quot;1.3&quot;}"><tspan dy="0" x="50.877864861049005" svgjs:data="{&quot;newLined&quot;:true}">TEAM MOM: TEAM MOM'S NAME</tspan></text><text fill="#000000" font-family="Impact" font-size="14" stroke-opacity="1" stroke-width="0.5" stroke="#ffffff" x="232.29885153492785" y="189.60125945871928" transform="matrix(0.8694695830345154,-0.49398633837699896,0.4939863383769989,0.8694695830345155,53.658782958984375,110.01655578613281)" svgjs:data="{&quot;leading&quot;:&quot;1.3&quot;}"><tspan dy="0" x="232.29885153492785" svgjs:data="{&quot;newLined&quot;:true}">Player</tspan></text><image width="760" height="497" xlink:href="https://lct-designs.s3.us-west-1.amazonaws.com/assets/libs/minions-3-1660031084138.png" class="asset" transform="matrix(0.04918840155005455,0,0,0.04918840155005455,334.3493347167969,119.36581420898438)"></image><image width="760" height="197" xlink:href="https://lct-designs.s3.us-west-1.amazonaws.com/assets/libs/minions-1660031084138.png" class="asset" transform="matrix(0.34410184621810913,0,0,0.34410184621810913,52.307762145996094,86.19109344482422)"></image><image width="481" height="760" xlink:href="https://lct-designs.s3.us-west-1.amazonaws.com/assets/libs/minions-2-1660031084137.png" class="asset" transform="matrix(0.11644427478313445,0,0,0.11644427478313447,405.9885864257813,203.28527832031247)"></image><image width="760" height="699" xlink:href="https://lct-designs.s3.us-west-1.amazonaws.com/assets/libs/minions-1-1660031084136.png" class="asset" transform="matrix(0.17897060513496402,0,0,0.178970605134964,29.30274200439453,168.1898956298828)"></image><text fill="#000000" font-family="Impact" font-size="14" stroke-opacity="1" stroke-width="0.5" stroke="#ffffff" x="232.29885153492785" y="189.60125945871928" transform="matrix(0.8694695830345154,-0.4939862787723541,0.4939862787723542,0.8694695830345155,132.21377563476562,126.58016967773438)" svgjs:data="{&quot;leading&quot;:&quot;1.3&quot;}"><tspan dy="0" x="232.29885153492785" svgjs:data="{&quot;newLined&quot;:true}">Player</tspan></text><image width="760" height="497" xlink:href="https://lct-designs.s3.us-west-1.amazonaws.com/assets/libs/minions-3-1660031084138.png" class="asset" transform="matrix(0.04918840155005455,0,0,0.04918840155005455,412.90432739257824,135.92942810058594)"></image><text fill="#000000" font-family="Impact" font-size="14" stroke-opacity="1" stroke-width="0.5" stroke="#ffffff" x="232.29885153492785" y="189.60125945871928" transform="matrix(0.8694695830345154,-0.4939862787723541,0.4939862787723542,0.8694695830345155,-153.17068481445312,150.96546936035156)" svgjs:data="{&quot;leading&quot;:&quot;1.3&quot;}"><tspan dy="0" x="232.29885153492785" svgjs:data="{&quot;newLined&quot;:true}">Player</tspan></text><image width="760" height="497" xlink:href="https://lct-designs.s3.us-west-1.amazonaws.com/assets/libs/minions-3-1660031084138.png" class="asset" transform="matrix(0.04918840155005455,0,0,0.04918840155005455,127.5198669433594,160.31472778320312)"></image><text fill="#000000" font-family="Impact" font-size="14" stroke-opacity="1" stroke-width="0.5" stroke="#ffffff" x="232.29885153492785" y="189.60125945871928" transform="matrix(0.8694695830345154,-0.4939862191677094,0.49398621916770935,0.8694695830345155,-112.34396362304689,192.83460998535156)" svgjs:data="{&quot;leading&quot;:&quot;1.3&quot;}"><tspan dy="0" x="232.29885153492785" svgjs:data="{&quot;newLined&quot;:true}">Player</tspan></text><image width="760" height="497" xlink:href="https://lct-designs.s3.us-west-1.amazonaws.com/assets/libs/minions-3-1660031084138.png" class="asset" transform="matrix(0.04918840155005455,0,0,0.04918840155005455,168.34658813476562,202.1838684082031)"></image><text fill="#000000" font-family="Impact" font-size="14" stroke-opacity="1" stroke-width="0.5" stroke="#ffffff" x="232.29885153492785" y="189.60125945871928" transform="matrix(0.8694695830345154,-0.4939861595630646,0.49398615956306463,0.8694695830345155,-60.474822998046875,230.5628509521484)" svgjs:data="{&quot;leading&quot;:&quot;1.3&quot;}"><tspan dy="0" x="232.29885153492785" svgjs:data="{&quot;newLined&quot;:true}">Player</tspan></text><image width="760" height="497" xlink:href="https://lct-designs.s3.us-west-1.amazonaws.com/assets/libs/minions-3-1660031084138.png" class="asset" transform="matrix(0.04918840155005455,0,0,0.04918840155005455,220.21572875976562,239.91210937499997)"></image><text fill="#000000" font-family="Impact" font-size="14" stroke-opacity="1" stroke-width="0.5" stroke="#ffffff" x="232.29885153492785" y="189.60125945871928" transform="matrix(0.8694695830345154,-0.49398609995841986,0.4939860999584198,0.8694695830345155,-70.25914001464844,149.1250762939453)" svgjs:data="{&quot;leading&quot;:&quot;1.3&quot;}"><tspan dy="0" x="232.29885153492785" svgjs:data="{&quot;newLined&quot;:true}">Player</tspan></text><image width="760" height="497" xlink:href="https://lct-designs.s3.us-west-1.amazonaws.com/assets/libs/minions-3-1660031084138.png" class="asset" transform="matrix(0.04918840155005455,0,0,0.04918840155005455,210.43141174316406,158.47433471679688)"></image><text fill="#000000" font-family="Impact" font-size="14" stroke-opacity="1" stroke-width="0.5" stroke="#ffffff" x="232.29885153492785" y="189.60125945871928" transform="matrix(0.8694695830345154,-0.493986040353775,0.4939860403537751,0.8694695830345155,-15.1693115234375,179.95179748535156)" svgjs:data="{&quot;leading&quot;:&quot;1.3&quot;}"><tspan dy="0" x="232.29885153492785" svgjs:data="{&quot;newLined&quot;:true}">Player</tspan></text><image width="760" height="497" xlink:href="https://lct-designs.s3.us-west-1.amazonaws.com/assets/libs/minions-3-1660031084138.png" class="asset" transform="matrix(0.04918840155005455,0,0,0.04918840155005455,265.521240234375,189.3010559082031)"></image><text fill="#000000" font-family="Impact" font-size="14" stroke-opacity="1" stroke-width="0.5" stroke="#ffffff" x="232.29885153492785" y="189.60125945871928" transform="matrix(0.8694695830345154,-0.4939859807491302,0.49398598074913025,0.8694695830345155,30.718536376953125,224.58154296875003)" svgjs:data="{&quot;leading&quot;:&quot;1.3&quot;}"><tspan dy="0" x="232.29885153492785" svgjs:data="{&quot;newLined&quot;:true}">Player</tspan></text><image width="760" height="497" xlink:href="https://lct-designs.s3.us-west-1.amazonaws.com/assets/libs/minions-3-1660031084138.png" class="asset" transform="matrix(0.04918840155005455,0,0,0.04918840155005455,311.4090881347656,233.93080139160153)"></image><text fill="#000000" font-family="Impact" font-size="14" stroke-opacity="1" stroke-width="0.5" stroke="#ffffff" x="232.29885153492785" y="189.60125945871928" transform="matrix(0.8694695830345154,-0.4939859807491302,0.49398598074913025,0.8694695830345155,54.98162841796875,157.40689086914062)" svgjs:data="{&quot;leading&quot;:&quot;1.3&quot;}"><tspan dy="0" x="232.29885153492785" svgjs:data="{&quot;newLined&quot;:true}">Player</tspan></text><image width="760" height="497" xlink:href="https://lct-designs.s3.us-west-1.amazonaws.com/assets/libs/minions-3-1660031084138.png" class="asset" transform="matrix(0.04918840155005455,0,0,0.04918840155005455,335.67218017578125,166.7561492919922)"></image><g class="mask" style="pointer-events: none;"><g><path fill="#BCBEC0" d="M-3642.4-2101.7v4589.1h7813.4v-4589.1H-3642.4z M500.5,67.2v233.3v66.7H0.5v-66.7V67.2V0.5h500V67.2z" transform="matrix(1,0,0,1,0,0)"></path><g transform="matrix(1,0,0,1,0,0)">
	<rect x="0.5" y="300.5" opacity="0.95" fill="#F1F2F2" width="500" height="66.7"></rect>
	<rect x="0.5" y="0.5" opacity="0.95" fill="#F1F2F2" width="500" height="66.7"></rect>
</g></g></g></svg>