<svg xmlns="http://www.w3.org/2000/svg" version="1.1" xmlns:xlink="http://www.w3.org/1999/xlink" xmlns:svgjs="http://svgjs.dev/svgjs" width="100%" height="100%" viewBox="1 1 499 365.70001220703125" preserveAspectRatio="none" data-info="{&quot;_id&quot;:4,&quot;name&quot;:&quot;POLE POCKET SOCCER BANNERS&quot;,&quot;information&quot;:&quot;- Size: 3’x5’\n- Material: heavy duty vinyl banner\n- Digitally printed on vinyl&quot;,&quot;price&quot;:&quot;95.00&quot;,&quot;sale_price&quot;:&quot;89.99&quot;,&quot;type&quot;:&quot;pole-pocket&quot;,&quot;cover&quot;:{&quot;key&quot;:&quot;assets/models/pole-1628062864266-1631924568908.png&quot;,&quot;url&quot;:&quot;https://lct-designs.s3.us-west-1.amazonaws.com/assets/models/pole-1628062864266-1631924568908.png&quot;},&quot;back&quot;:{&quot;key&quot;:&quot;assets/models/pole-1631924700152.svg&quot;,&quot;url&quot;:&quot;https://lct-designs.s3.us-west-1.amazonaws.com/assets/models/pole-1631924700152.svg&quot;},&quot;mask&quot;:{&quot;key&quot;:&quot;assets/models/pole-mask-1631925211715.svg&quot;,&quot;url&quot;:&quot;https://lct-designs.s3.us-west-1.amazonaws.com/assets/models/pole-mask-1631925211715.svg&quot;},&quot;pos&quot;:&quot;2&quot;,&quot;accessories&quot;:&quot;2,3&quot;}" style="background-color: white;"><g class="model" style="pointer-events: none;"><polygon fill="#FFFFFF" points="0.5,0.5 0.5,67.2 0.5,300.5 0.5,367.2 500.5,367.2 500.5,300.5 500.5,67.2 500.5,0.5 "></polygon></g><image width="760" height="556" xlink:href="https://lct-designs.s3.us-west-1.amazonaws.com/assets/libs/clowns-5-1660026821081.png" class="asset background locked" transform="matrix(0.6595323960558116,0,0,0.6595323960558116,0,0)"></image><text fill="#ffffff" font-family="Impact" font-size="23" x="50.877864861049005" y="201.76359325371294" stroke-opacity="1" stroke-width="-0.5" stroke="#000000" transform="matrix(0.490454912185669,0,0,0.49045491218566895,350.59118652343756,16.616607666015625)" svgjs:data="{&quot;leading&quot;:&quot;1.3&quot;}"><tspan dy="0" x="50.877864861049005" svgjs:data="{&quot;newLined&quot;:true}">COACH: COACH'S NAME</tspan></text><text fill="#ffffff" font-family="Impact" font-size="23" x="50.877864861049005" y="201.76359325371294" stroke-opacity="1" stroke-width="-0.5" stroke="#000000" transform="matrix(0.49780541658401495,0,0,0.4978054165840149,313.523681640625,0.7757730484008718)" svgjs:data="{&quot;leading&quot;:&quot;1.3&quot;}"><tspan dy="0" x="50.877864861049005" svgjs:data="{&quot;newLined&quot;:true}">TEAM MOM: TEAM MOM'S NAME</tspan></text><text fill="#ffffff" font-family="Impact" font-size="15" stroke-opacity="1" stroke-width="0.5" stroke="#000000" x="233.46933776760378" y="188.80540974289514" transform="matrix(1.0000000000000002,0,0,1,-207.89093780517578,22.299331724643707)" svgjs:data="{&quot;leading&quot;:&quot;1.3&quot;}"><tspan dy="0" x="233.46933776760378" svgjs:data="{&quot;newLined&quot;:true}">Player</tspan></text><image width="760" height="590" xlink:href="https://lct-designs.s3.us-west-1.amazonaws.com/assets/libs/clowns-2-1660026821081.png" class="asset" transform="matrix(0.06690780073404312,0,0,0.06690780073404312,19.667823791503906,158.90489202737808)"></image><text fill="#ffffff" font-family="Impact" font-size="15" stroke-opacity="1" stroke-width="0.5" stroke="#000000" x="233.46933776760378" y="188.80540974289514" transform="matrix(1.0000000000000002,0,0,1,-207.89093780517578,95.14379888772964)" svgjs:data="{&quot;leading&quot;:&quot;1.3&quot;}"><tspan dy="0" x="233.46933776760378" svgjs:data="{&quot;newLined&quot;:true}">Player</tspan></text><image width="760" height="590" xlink:href="https://lct-designs.s3.us-west-1.amazonaws.com/assets/libs/clowns-2-1660026821081.png" class="asset" transform="matrix(0.06690780073404312,0,0,0.06690780073404312,19.667800903320312,231.749359190464)"></image><image width="760" height="255" xlink:href="https://lct-designs.s3.us-west-1.amazonaws.com/assets/libs/clowns-1660026821082.png" class="asset" transform="matrix(0.26760435104370117,0,0,0.26760435104370117,84.53902435302734,86.29611206054688)"></image><image width="613" height="760" xlink:href="https://lct-designs.s3.us-west-1.amazonaws.com/assets/libs/clowns-1-1660026821080.png" class="asset" transform="matrix(0.2143853008747101,0,0,0.2143853008747101,361.0905151367188,128.89013671875)"></image><text fill="#ffffff" font-family="Impact" font-size="15" stroke-opacity="1" stroke-width="0.5" stroke="#000000" x="233.46933776760378" y="188.80540974289514" transform="matrix(1.0000000000000002,0,0,1,-137.93052673339844,23.290420472621918)" svgjs:data="{&quot;leading&quot;:&quot;1.3&quot;}"><tspan dy="0" x="233.46933776760378" svgjs:data="{&quot;newLined&quot;:true}">Player</tspan></text><image width="760" height="590" xlink:href="https://lct-designs.s3.us-west-1.amazonaws.com/assets/libs/clowns-2-1660026821081.png" class="asset" transform="matrix(0.06690780073404312,0,0,0.06690780073404312,89.62823486328128,159.89598077535632)"></image><text fill="#ffffff" font-family="Impact" font-size="15" stroke-opacity="1" stroke-width="0.5" stroke="#000000" x="233.46933776760378" y="188.80540974289514" transform="matrix(1.0000000000000002,0,0,1,-137.93052673339844,96.13488763570786)" svgjs:data="{&quot;leading&quot;:&quot;1.3&quot;}"><tspan dy="0" x="233.46933776760378" svgjs:data="{&quot;newLined&quot;:true}">Player</tspan></text><image width="760" height="590" xlink:href="https://lct-designs.s3.us-west-1.amazonaws.com/assets/libs/clowns-2-1660026821081.png" class="asset" transform="matrix(0.06690780073404312,0,0,0.06690780073404312,89.62821197509768,232.7404479384422)"></image><text fill="#ffffff" font-family="Impact" font-size="15" stroke-opacity="1" stroke-width="0.5" stroke="#000000" x="233.46933776760378" y="188.80540974289514" transform="matrix(1.0000000000000002,0,0,1,-63.51024627685547,22.299347043037415)" svgjs:data="{&quot;leading&quot;:&quot;1.3&quot;}"><tspan dy="0" x="233.46933776760378" svgjs:data="{&quot;newLined&quot;:true}">Player</tspan></text><image width="760" height="590" xlink:href="https://lct-designs.s3.us-west-1.amazonaws.com/assets/libs/clowns-2-1660026821081.png" class="asset" transform="matrix(0.06690780073404312,0,0,0.06690780073404312,164.04851531982428,158.9049073457718)"></image><text fill="#ffffff" font-family="Impact" font-size="15" stroke-opacity="1" stroke-width="0.5" stroke="#000000" x="233.46933776760378" y="188.80540974289514" transform="matrix(1.0000000000000002,0,0,1,-63.51024627685547,95.14381420612335)" svgjs:data="{&quot;leading&quot;:&quot;1.3&quot;}"><tspan dy="0" x="233.46933776760378" svgjs:data="{&quot;newLined&quot;:true}">Player</tspan></text><image width="760" height="590" xlink:href="https://lct-designs.s3.us-west-1.amazonaws.com/assets/libs/clowns-2-1660026821081.png" class="asset" transform="matrix(0.06690780073404312,0,0,0.06690780073404312,164.04849243164068,231.74937450885776)"></image><text fill="#ffffff" font-family="Impact" font-size="15" stroke-opacity="1" stroke-width="0.5" stroke="#000000" x="233.46933776760378" y="188.80540974289514" transform="matrix(1.0000000000000002,0,0,1,10.910026550292997,21.3082581758499)" svgjs:data="{&quot;leading&quot;:&quot;1.3&quot;}"><tspan dy="0" x="233.46933776760378" svgjs:data="{&quot;newLined&quot;:true}">Player</tspan></text><image width="760" height="590" xlink:href="https://lct-designs.s3.us-west-1.amazonaws.com/assets/libs/clowns-2-1660026821081.png" class="asset" transform="matrix(0.06690780073404312,0,0,0.06690780073404312,238.4687957763672,157.91381847858432)"></image><text fill="#ffffff" font-family="Impact" font-size="15" stroke-opacity="1" stroke-width="0.5" stroke="#000000" x="233.46933776760378" y="188.80540974289514" transform="matrix(1.0000000000000002,0,0,1,10.910026550292997,94.15272533893585)" svgjs:data="{&quot;leading&quot;:&quot;1.3&quot;}"><tspan dy="0" x="233.46933776760378" svgjs:data="{&quot;newLined&quot;:true}">Player</tspan></text><image width="760" height="590" xlink:href="https://lct-designs.s3.us-west-1.amazonaws.com/assets/libs/clowns-2-1660026821081.png" class="asset" transform="matrix(0.06690780073404312,0,0,0.06690780073404312,238.46876525878912,230.7582856416702)"></image><text fill="#ffffff" font-family="Impact" font-size="15" stroke-opacity="1" stroke-width="0.5" stroke="#000000" x="233.46933776760378" y="188.80540974289514" transform="matrix(1.0000000000000002,0,0,1,83.34810638427737,21.30825805664061)" svgjs:data="{&quot;leading&quot;:&quot;1.3&quot;}"><tspan dy="0" x="233.46933776760378" svgjs:data="{&quot;newLined&quot;:true}">Player</tspan></text><image width="760" height="590" xlink:href="https://lct-designs.s3.us-west-1.amazonaws.com/assets/libs/clowns-2-1660026821081.png" class="asset" transform="matrix(0.06690780073404312,0,0,0.06690780073404312,310.9068603515625,157.91381835937503)"></image><text fill="#ffffff" font-family="Impact" font-size="15" stroke-opacity="1" stroke-width="0.5" stroke="#000000" x="233.46933776760378" y="188.80540974289514" transform="matrix(1.0000000000000002,0,0,1,83.34810638427737,94.15272521972656)" svgjs:data="{&quot;leading&quot;:&quot;1.3&quot;}"><tspan dy="0" x="233.46933776760378" svgjs:data="{&quot;newLined&quot;:true}">Player</tspan></text><image width="760" height="590" xlink:href="https://lct-designs.s3.us-west-1.amazonaws.com/assets/libs/clowns-2-1660026821081.png" class="asset" transform="matrix(0.06690780073404312,0,0,0.06690780073404312,310.9068603515625,230.75828552246097)"></image><g class="mask" style="pointer-events: none;"><g><path fill="#BCBEC0" d="M-3642.4-2101.7v4589.1h7813.4v-4589.1H-3642.4z M500.5,67.2v233.3v66.7H0.5v-66.7V67.2V0.5h500V67.2z" transform="matrix(1,0,0,1,0,0)"></path><g transform="matrix(1,0,0,1,0,0)">
	<rect x="0.5" y="300.5" opacity="0.95" fill="#F1F2F2" width="500" height="66.7"></rect>
	<rect x="0.5" y="0.5" opacity="0.95" fill="#F1F2F2" width="500" height="66.7"></rect>
</g></g></g></svg>