<svg xmlns="http://www.w3.org/2000/svg" version="1.1" xmlns:xlink="http://www.w3.org/1999/xlink" xmlns:svgjs="http://svgjs.dev/svgjs" width="100%" height="100%" viewBox="1 1 499 365.70001220703125" preserveAspectRatio="none" data-info="{&quot;_id&quot;:4,&quot;name&quot;:&quot;POLE POCKET SOCCER BANNERS&quot;,&quot;information&quot;:&quot;- Size: 3’x5’\n- Material: heavy duty vinyl banner\n- Digitally printed on vinyl&quot;,&quot;price&quot;:&quot;95.00&quot;,&quot;sale_price&quot;:&quot;89.99&quot;,&quot;type&quot;:&quot;pole-pocket&quot;,&quot;cover&quot;:{&quot;key&quot;:&quot;assets/models/pole-1628062864266-1631924568908.png&quot;,&quot;url&quot;:&quot;https://lct-designs.s3.us-west-1.amazonaws.com/assets/models/pole-1628062864266-1631924568908.png&quot;},&quot;back&quot;:{&quot;key&quot;:&quot;assets/models/pole-1631924700152.svg&quot;,&quot;url&quot;:&quot;https://lct-designs.s3.us-west-1.amazonaws.com/assets/models/pole-1631924700152.svg&quot;},&quot;mask&quot;:{&quot;key&quot;:&quot;assets/models/pole-mask-1631925211715.svg&quot;,&quot;url&quot;:&quot;https://lct-designs.s3.us-west-1.amazonaws.com/assets/models/pole-mask-1631925211715.svg&quot;},&quot;pos&quot;:&quot;2&quot;,&quot;accessories&quot;:&quot;2,3&quot;}" style="background-color: white;"><g class="model" style="pointer-events: none;"><polygon fill="#FFFFFF" points="0.5,0.5 0.5,67.2 0.5,300.5 0.5,367.2 500.5,367.2 500.5,300.5 500.5,67.2 500.5,0.5 "></polygon></g><image width="760" height="556" xlink:href="https://lct-designs.s3.us-west-1.amazonaws.com/assets/libs/octopuses-5-1660031385341.png" class="asset background locked" transform="matrix(0.6595323960558116,0,0,0.6595323960558116,0,0)"></image><text fill="#000000" font-family="Impact" font-size="20" x="50.877864861049005" y="201.76359325371294" stroke-opacity="1" stroke-width="0.5" stroke="#ffffff" transform="matrix(0.490454912185669,0,0,0.49045491218566895,2.92791748046875,-2.408543109893799)" svgjs:data="{&quot;leading&quot;:&quot;1.3&quot;}"><tspan dy="0" x="50.877864861049005" svgjs:data="{&quot;newLined&quot;:true}">COACH: COACH'S NAME</tspan></text><text fill="#000000" font-family="Impact" font-size="20" x="50.877864861049005" y="201.76359325371294" stroke-opacity="1" stroke-width="0.5" stroke="#ffffff" transform="matrix(0.4978054165840149,0,0,0.49780541658401495,3.0140380859375,8.632270812988288)" svgjs:data="{&quot;leading&quot;:&quot;1.3&quot;}"><tspan dy="0" x="50.877864861049005" svgjs:data="{&quot;newLined&quot;:true}">TEAM MOM: TEAM MOM'S NAME</tspan></text><text fill="#ffd7e7" font-family="Impact" font-size="15" stroke-opacity="1" stroke-width="0.5" stroke="#ed70a8" x="230.94578985890246" y="189.83130954569438" transform="matrix(1,0,0,1,-201.05105590820312,-18.8641357421875)" svgjs:data="{&quot;leading&quot;:&quot;1.3&quot;}"><tspan dy="0" x="230.94578985890246" svgjs:data="{&quot;newLined&quot;:true}">Player</tspan></text><image width="760" height="678" xlink:href="https://lct-designs.s3.us-west-1.amazonaws.com/assets/libs/octopuses-1660031385341.png" class="asset" transform="matrix(0.04946785047650337,0,0,0.04946785047650338,30.651153564453125,125.40182495117188)"></image><image width="760" height="139" xlink:href="https://lct-designs.s3.us-west-1.amazonaws.com/assets/libs/octopuses-2-1660031385340.png" class="asset" transform="matrix(0.34009864926338196,0,0,0.34009864926338196,216.59811401367188,88.16648864746091)"></image><image width="760" height="699" xlink:href="https://lct-designs.s3.us-west-1.amazonaws.com/assets/libs/octopuses-1-1660031385339.png" class="asset" transform="matrix(0.20464101433753967,0,0,0.20464101433753967,320.6905212402344,146.56517028808594)"></image><text fill="#ffd7e7" font-family="Impact" font-size="15" stroke-opacity="1" stroke-width="0.5" stroke="#ed70a8" x="230.94578985890246" y="189.83130954569438" transform="matrix(1,0,0,1,-166.20563507080078,37.72821044921876)" svgjs:data="{&quot;leading&quot;:&quot;1.3&quot;}"><tspan dy="0" x="230.94578985890246" svgjs:data="{&quot;newLined&quot;:true}">Player</tspan></text><image width="760" height="678" xlink:href="https://lct-designs.s3.us-west-1.amazonaws.com/assets/libs/octopuses-1660031385341.png" class="asset" transform="matrix(0.04946785047650337,0,0,0.04946785047650338,65.49657440185547,181.99417114257812)"></image><text fill="#ffd7e7" font-family="Impact" font-size="15" stroke-opacity="1" stroke-width="0.5" stroke="#ed70a8" x="230.94578985890246" y="189.83130954569438" transform="matrix(1,0,0,1,-116.63699340820312,95.24076843261719)" svgjs:data="{&quot;leading&quot;:&quot;1.3&quot;}"><tspan dy="0" x="230.94578985890246" svgjs:data="{&quot;newLined&quot;:true}">Player</tspan></text><image width="760" height="678" xlink:href="https://lct-designs.s3.us-west-1.amazonaws.com/assets/libs/octopuses-1660031385341.png" class="asset" transform="matrix(0.04946785047650337,0,0,0.04946785047650338,115.0652084350586,239.50672912597653)"></image><text fill="#ffd7e7" font-family="Impact" font-size="15" stroke-opacity="1" stroke-width="0.5" stroke="#ed70a8" x="230.94578985890246" y="189.83130954569438" transform="matrix(1,0,0,1,-119.05970001220705,-18.404037475585938)" svgjs:data="{&quot;leading&quot;:&quot;1.3&quot;}"><tspan dy="0" x="230.94578985890246" svgjs:data="{&quot;newLined&quot;:true}">Player</tspan></text><image width="760" height="678" xlink:href="https://lct-designs.s3.us-west-1.amazonaws.com/assets/libs/octopuses-1660031385341.png" class="asset" transform="matrix(0.04946785047650337,0,0,0.04946785047650338,112.64250183105469,125.86192321777344)"></image><text fill="#ffd7e7" font-family="Impact" font-size="15" stroke-opacity="1" stroke-width="0.5" stroke="#ed70a8" x="230.94578985890246" y="189.83130954569438" transform="matrix(1,0,0,1,-84.67438507080078,38.648422241210945)" svgjs:data="{&quot;leading&quot;:&quot;1.3&quot;}"><tspan dy="0" x="230.94578985890246" svgjs:data="{&quot;newLined&quot;:true}">Player</tspan></text><image width="760" height="678" xlink:href="https://lct-designs.s3.us-west-1.amazonaws.com/assets/libs/octopuses-1660031385341.png" class="asset" transform="matrix(0.04946785047650337,0,0,0.04946785047650338,147.02781677246094,182.91438293457034)"></image><text fill="#ffd7e7" font-family="Impact" font-size="15" stroke-opacity="1" stroke-width="0.5" stroke="#ed70a8" x="230.94578985890246" y="189.83130954569438" transform="matrix(1,0,0,1,-44.767875671386726,93.86047369241714)" svgjs:data="{&quot;leading&quot;:&quot;1.3&quot;}"><tspan dy="0" x="230.94578985890246" svgjs:data="{&quot;newLined&quot;:true}">Player</tspan></text><image width="760" height="678" xlink:href="https://lct-designs.s3.us-west-1.amazonaws.com/assets/libs/octopuses-1660031385341.png" class="asset" transform="matrix(0.04946785047650337,0,0,0.04946785047650338,186.934326171875,238.12643438577655)"></image><text fill="#ffd7e7" font-family="Impact" font-size="15" stroke-opacity="1" stroke-width="0.5" stroke="#ed70a8" x="230.94578985890246" y="189.83130954569438" transform="matrix(1,0,0,1,3.8805465698242045,46.01004028320313)" svgjs:data="{&quot;leading&quot;:&quot;1.3&quot;}"><tspan dy="0" x="230.94578985890246" svgjs:data="{&quot;newLined&quot;:true}">Player</tspan></text><image width="760" height="678" xlink:href="https://lct-designs.s3.us-west-1.amazonaws.com/assets/libs/octopuses-1660031385341.png" class="asset" transform="matrix(0.04946785047650337,0,0,0.04946785047650338,235.58274841308588,190.27600097656247)"></image><text fill="#ffd7e7" font-family="Impact" font-size="15" stroke-opacity="1" stroke-width="0.5" stroke="#ed70a8" x="230.94578985890246" y="189.83130954569438" transform="matrix(1,0,0,1,-29.368888854980483,-6.9014892578125)" svgjs:data="{&quot;leading&quot;:&quot;1.3&quot;}"><tspan dy="0" x="230.94578985890246" svgjs:data="{&quot;newLined&quot;:true}">Player</tspan></text><image width="760" height="678" xlink:href="https://lct-designs.s3.us-west-1.amazonaws.com/assets/libs/octopuses-1660031385341.png" class="asset" transform="matrix(0.04946785047650337,0,0,0.04946785047650338,202.33331298828125,137.36447143554688)"></image><text fill="#ffd7e7" font-family="Impact" font-size="15" stroke-opacity="1" stroke-width="0.5" stroke="#ed70a8" x="230.94578985890246" y="189.83130954569438" transform="matrix(1,0,0,1,65.28960418701172,-6.44140625)" svgjs:data="{&quot;leading&quot;:&quot;1.3&quot;}"><tspan dy="0" x="230.94578985890246" svgjs:data="{&quot;newLined&quot;:true}">Player</tspan></text><image width="760" height="678" xlink:href="https://lct-designs.s3.us-west-1.amazonaws.com/assets/libs/octopuses-1660031385341.png" class="asset" transform="matrix(0.04946785047650337,0,0,0.04946785047650338,296.99180603027344,137.82455444335938)"></image><text fill="#ffd7e7" font-family="Impact" font-size="15" stroke-opacity="1" stroke-width="0.5" stroke="#ed70a8" x="230.94578985890246" y="189.83130954569438" transform="matrix(1,0,0,1,40.688575744628906,98.92156982421875)" svgjs:data="{&quot;leading&quot;:&quot;1.3&quot;}"><tspan dy="0" x="230.94578985890246" svgjs:data="{&quot;newLined&quot;:true}">Player</tspan></text><image width="760" height="678" xlink:href="https://lct-designs.s3.us-west-1.amazonaws.com/assets/libs/octopuses-1660031385341.png" class="asset" transform="matrix(0.04946785047650337,0,0,0.04946785047650338,272.39077758789057,243.18753051757815)"></image><g class="mask" style="pointer-events: none;"><g><path fill="#BCBEC0" d="M-3642.4-2101.7v4589.1h7813.4v-4589.1H-3642.4z M500.5,67.2v233.3v66.7H0.5v-66.7V67.2V0.5h500V67.2z" transform="matrix(1,0,0,1,0,0)"></path><g transform="matrix(1,0,0,1,0,0)">
	<rect x="0.5" y="300.5" opacity="0.95" fill="#F1F2F2" width="500" height="66.7"></rect>
	<rect x="0.5" y="0.5" opacity="0.95" fill="#F1F2F2" width="500" height="66.7"></rect>
</g></g></g></svg>