<svg xmlns="http://www.w3.org/2000/svg" version="1.1" xmlns:xlink="http://www.w3.org/1999/xlink" xmlns:svgjs="http://svgjs.dev/svgjs" width="100%" height="100%" viewBox="1 1 499 365.70001220703125" preserveAspectRatio="none" data-info="{&quot;_id&quot;:4,&quot;name&quot;:&quot;POLE POCKET SOCCER BANNERS&quot;,&quot;information&quot;:&quot;- Size: 3’x5’\n- Material: heavy duty vinyl banner\n- Digitally printed on vinyl&quot;,&quot;price&quot;:&quot;95.00&quot;,&quot;sale_price&quot;:&quot;89.99&quot;,&quot;type&quot;:&quot;pole-pocket&quot;,&quot;cover&quot;:{&quot;key&quot;:&quot;assets/models/pole-1628062864266-1631924568908.png&quot;,&quot;url&quot;:&quot;https://lct-designs.s3.us-west-1.amazonaws.com/assets/models/pole-1628062864266-1631924568908.png&quot;},&quot;back&quot;:{&quot;key&quot;:&quot;assets/models/pole-1631924700152.svg&quot;,&quot;url&quot;:&quot;https://lct-designs.s3.us-west-1.amazonaws.com/assets/models/pole-1631924700152.svg&quot;},&quot;mask&quot;:{&quot;key&quot;:&quot;assets/models/pole-mask-1631925211715.svg&quot;,&quot;url&quot;:&quot;https://lct-designs.s3.us-west-1.amazonaws.com/assets/models/pole-mask-1631925211715.svg&quot;},&quot;pos&quot;:&quot;2&quot;,&quot;accessories&quot;:&quot;2,3&quot;}" style="background-color: white;"><g class="model" style="pointer-events: none;"><polygon fill="#FFFFFF" points="0.5,0.5 0.5,67.2 0.5,300.5 0.5,367.2 500.5,367.2 500.5,300.5 500.5,67.2 500.5,0.5 "></polygon></g><image width="760" height="556" xlink:href="https://lct-designs.s3.us-west-1.amazonaws.com/assets/libs/astros-1633083033329.png" class="asset background locked" transform="matrix(0.6595323960558116,0,0,0.6595323960558116,0,0)"></image><text fill="#000000" font-family="Impact" font-size="45" x="192.06642438162737" y="201.88927563680983" stroke-opacity="1" stroke-width="0" stroke="#000000" transform="matrix(0.27804794907569885,0,0,0.2780479490756988,252.96263122558594,130.31427001953122)" svgjs:data="{&quot;leading&quot;:&quot;1.3&quot;}"><tspan dy="0" x="192.06642438162737" svgjs:data="{&quot;newLined&quot;:true}">Coach: Coach's name</tspan></text><text fill="#000000" font-family="Impact" font-size="45" x="192.06642438162737" y="201.88927563680983" stroke-opacity="1" stroke-width="0" stroke="#000000" transform="matrix(0.27804797887802124,0,0,0.27804797887802124,230.2683868408203,145.14926147460938)" svgjs:data="{&quot;leading&quot;:&quot;1.3&quot;}"><tspan dy="0" x="192.06642438162737" svgjs:data="{&quot;newLined&quot;:true}">Team mom: team mom's name</tspan></text><text fill="#efff14" font-family="Impact" font-size="45" stroke-opacity="1" stroke-width="3" stroke="#050505" x="164.68127054565383" y="198.9363701339798" transform="matrix(0.3496883809566498,0,0,0.3496883809566497,-39.539222717285156,61.12899398803708)" svgjs:data="{&quot;leading&quot;:&quot;1.3&quot;}"><tspan dy="0" x="164.68127054565383" svgjs:data="{&quot;newLined&quot;:true}">PLAYER</tspan></text><image width="760" height="760" xlink:href="https://lct-designs.s3.us-west-1.amazonaws.com/assets/libs/fielders-softball-yellow-backgrounds-picture-1675227194260.png" class="asset" transform="matrix(0.04779709875583649,0,0,0.04779709875583649,21.212621688842773,75.92877197265625)"></image><text fill="#efff14" font-family="Impact" font-size="45" stroke-opacity="1" stroke-width="3" stroke="#050505" x="164.68127054565383" y="198.9363701339798" transform="matrix(0.3496883809566498,0,0,0.3496883809566497,41.38276672363281,59.35593795776367)" svgjs:data="{&quot;leading&quot;:&quot;1.3&quot;}"><tspan dy="0" x="164.68127054565383" svgjs:data="{&quot;newLined&quot;:true}">PLAYER</tspan></text><image width="760" height="760" xlink:href="https://lct-designs.s3.us-west-1.amazonaws.com/assets/libs/fielders-softball-yellow-backgrounds-picture-1675227194260.png" class="asset" transform="matrix(0.04779709875583649,0,0,0.04779709875583649,102.13461303710938,74.15571594238281)"></image><text fill="#efff14" font-family="Impact" font-size="45" stroke-opacity="1" stroke-width="3" stroke="#050505" x="164.68127054565383" y="198.9363701339798" transform="matrix(0.3496883809566498,0,0,0.3496883809566497,125.8508529663086,58.76491928100586)" svgjs:data="{&quot;leading&quot;:&quot;1.3&quot;}"><tspan dy="0" x="164.68127054565383" svgjs:data="{&quot;newLined&quot;:true}">PLAYER</tspan></text><image width="760" height="760" xlink:href="https://lct-designs.s3.us-west-1.amazonaws.com/assets/libs/fielders-softball-yellow-backgrounds-picture-1675227194260.png" class="asset" transform="matrix(0.04779709875583649,0,0,0.04779709875583649,186.60269165039062,73.56469726562497)"></image><image width="760" height="291" xlink:href="https://lct-designs.s3.us-west-1.amazonaws.com/assets/libs/alligators-2-soflball-banner-green-softball-banners-picture-1675227442686.png" class="asset" transform="matrix(0.330231487751007,0,0,0.33023148775100714,239.63877868652344,74.12069702148439)"></image><text fill="#efff14" font-family="Impact" font-size="45" stroke-opacity="1" stroke-width="3" stroke="#050505" x="164.68127054565383" y="198.9363701339798" transform="matrix(0.3496883809566498,0,0,0.34968838095664984,-38.99547576904297,138.55215454101562)" svgjs:data="{&quot;leading&quot;:&quot;1.3&quot;}"><tspan dy="0" x="164.68127054565383" svgjs:data="{&quot;newLined&quot;:true}">PLAYER</tspan></text><image width="760" height="760" xlink:href="https://lct-designs.s3.us-west-1.amazonaws.com/assets/libs/fielders-softball-yellow-backgrounds-picture-1675227194260.png" class="asset" transform="matrix(0.04779709875583649,0,0,0.04779709875583649,21.756368637084954,153.35194396972656)"></image><text fill="#efff14" font-family="Impact" font-size="45" stroke-opacity="1" stroke-width="3" stroke="#050505" x="164.68127054565383" y="198.9363701339798" transform="matrix(0.3496883809566498,0,0,0.34968838095664984,41.926513671875,136.7790985107422)" svgjs:data="{&quot;leading&quot;:&quot;1.3&quot;}"><tspan dy="0" x="164.68127054565383" svgjs:data="{&quot;newLined&quot;:true}">PLAYER</tspan></text><image width="760" height="760" xlink:href="https://lct-designs.s3.us-west-1.amazonaws.com/assets/libs/fielders-softball-yellow-backgrounds-picture-1675227194260.png" class="asset" transform="matrix(0.04779709875583649,0,0,0.04779709875583649,102.67835998535156,151.57887268066406)"></image><text fill="#efff14" font-family="Impact" font-size="45" stroke-opacity="1" stroke-width="3" stroke="#050505" x="164.68127054565383" y="198.9363701339798" transform="matrix(0.3496883809566498,0,0,0.34968838095664984,126.39460754394531,136.18807983398438)" svgjs:data="{&quot;leading&quot;:&quot;1.3&quot;}"><tspan dy="0" x="164.68127054565383" svgjs:data="{&quot;newLined&quot;:true}">PLAYER</tspan></text><image width="760" height="760" xlink:href="https://lct-designs.s3.us-west-1.amazonaws.com/assets/libs/fielders-softball-yellow-backgrounds-picture-1675227194260.png" class="asset" transform="matrix(0.04779709875583649,0,0,0.04779709875583649,187.1464385986328,150.9878692626953)"></image><text fill="#efff14" font-family="Impact" font-size="45" stroke-opacity="1" stroke-width="3" stroke="#050505" x="164.68127054565383" y="198.9363701339798" transform="matrix(0.3496883809566498,0,0,0.3496883809566497,-38.451759338378906,214.20225524902344)" svgjs:data="{&quot;leading&quot;:&quot;1.3&quot;}"><tspan dy="0" x="164.68127054565383" svgjs:data="{&quot;newLined&quot;:true}">PLAYER</tspan></text><image width="760" height="760" xlink:href="https://lct-designs.s3.us-west-1.amazonaws.com/assets/libs/fielders-softball-yellow-backgrounds-picture-1675227194260.png" class="asset" transform="matrix(0.04779709875583649,0,0,0.04779709875583649,22.300085067749016,229.00204467773438)"></image><text fill="#efff14" font-family="Impact" font-size="45" stroke-opacity="1" stroke-width="3" stroke="#050505" x="164.68127054565383" y="198.9363701339798" transform="matrix(0.3496883809566498,0,0,0.3496883809566497,42.47023010253906,212.42919921875)" svgjs:data="{&quot;leading&quot;:&quot;1.3&quot;}"><tspan dy="0" x="164.68127054565383" svgjs:data="{&quot;newLined&quot;:true}">PLAYER</tspan></text><image width="760" height="760" xlink:href="https://lct-designs.s3.us-west-1.amazonaws.com/assets/libs/fielders-softball-yellow-backgrounds-picture-1675227194260.png" class="asset" transform="matrix(0.04779709875583649,0,0,0.04779709875583649,103.22207641601562,227.22897338867188)"></image><text fill="#efff14" font-family="Impact" font-size="45" stroke-opacity="1" stroke-width="3" stroke="#050505" x="164.68127054565383" y="198.9363701339798" transform="matrix(0.3496883809566498,0,0,0.3496883809566497,126.93832397460938,211.8381805419922)" svgjs:data="{&quot;leading&quot;:&quot;1.3&quot;}"><tspan dy="0" x="164.68127054565383" svgjs:data="{&quot;newLined&quot;:true}">PLAYER</tspan></text><image width="760" height="760" xlink:href="https://lct-designs.s3.us-west-1.amazonaws.com/assets/libs/fielders-softball-yellow-backgrounds-picture-1675227194260.png" class="asset" transform="matrix(0.04779709875583649,0,0,0.04779709875583649,187.6901550292969,226.63796997070312)"></image><text fill="#efff14" font-family="Impact" font-size="45" stroke-opacity="1" stroke-width="3" stroke="#050505" x="164.68127054565383" y="198.9363701339798" transform="matrix(0.3496883809566498,0,0,0.3496883809566497,216.22908782958984,210.65615844726562)" svgjs:data="{&quot;leading&quot;:&quot;1.3&quot;}"><tspan dy="0" x="164.68127054565383" svgjs:data="{&quot;newLined&quot;:true}">PLAYER</tspan></text><image width="760" height="760" xlink:href="https://lct-designs.s3.us-west-1.amazonaws.com/assets/libs/fielders-softball-yellow-backgrounds-picture-1675227194260.png" class="asset" transform="matrix(0.04779709875583649,0,0,0.04779709875583649,276.98093414306635,225.4559478759765)"></image><text fill="#efff14" font-family="Impact" font-size="45" stroke-opacity="1" stroke-width="3" stroke="#050505" x="164.68127054565383" y="198.9363701339798" transform="matrix(0.3496883809566498,0,0,0.3496883809566497,297.1510772705078,208.8831024169922)" svgjs:data="{&quot;leading&quot;:&quot;1.3&quot;}"><tspan dy="0" x="164.68127054565383" svgjs:data="{&quot;newLined&quot;:true}">PLAYER</tspan></text><image width="760" height="760" xlink:href="https://lct-designs.s3.us-west-1.amazonaws.com/assets/libs/fielders-softball-yellow-backgrounds-picture-1675227194260.png" class="asset" transform="matrix(0.04779709875583649,0,0,0.04779709875583649,357.9029235839844,223.68287658691406)"></image><text fill="#efff14" font-family="Impact" font-size="45" stroke-opacity="1" stroke-width="3" stroke="#050505" x="164.68127054565383" y="198.9363701339798" transform="matrix(0.3496883809566498,0,0,0.3496883809566497,381.6191711425781,208.29208374023438)" svgjs:data="{&quot;leading&quot;:&quot;1.3&quot;}"><tspan dy="0" x="164.68127054565383" svgjs:data="{&quot;newLined&quot;:true}">PLAYER</tspan></text><image width="760" height="760" xlink:href="https://lct-designs.s3.us-west-1.amazonaws.com/assets/libs/fielders-softball-yellow-backgrounds-picture-1675227194260.png" class="asset" transform="matrix(0.04779709875583649,0,0,0.04779709875583649,442.3710021972656,223.0918731689453)"></image><g class="mask" style="pointer-events: none;"><g><path fill="#BCBEC0" d="M-3642.4-2101.7v4589.1h7813.4v-4589.1H-3642.4z M500.5,67.2v233.3v66.7H0.5v-66.7V67.2V0.5h500V67.2z" transform="matrix(1,0,0,1,0,0)"></path><g transform="matrix(1,0,0,1,0,0)">
	<rect x="0.5" y="300.5" opacity="0.95" fill="#F1F2F2" width="500" height="66.7"></rect>
	<rect x="0.5" y="0.5" opacity="0.95" fill="#F1F2F2" width="500" height="66.7"></rect>
</g></g></g></svg>