<svg xmlns="http://www.w3.org/2000/svg" version="1.1" xmlns:xlink="http://www.w3.org/1999/xlink" xmlns:svgjs="http://svgjs.dev/svgjs" width="100%" height="100%" viewBox="1 1 499 365.70001220703125" preserveAspectRatio="none" data-info="{&quot;_id&quot;:4,&quot;name&quot;:&quot;POLE POCKET SOCCER BANNERS&quot;,&quot;information&quot;:&quot;- Size: 3’x5’\n- Material: heavy duty vinyl banner\n- Digitally printed on vinyl&quot;,&quot;price&quot;:&quot;95.00&quot;,&quot;sale_price&quot;:&quot;89.99&quot;,&quot;type&quot;:&quot;pole-pocket&quot;,&quot;cover&quot;:{&quot;key&quot;:&quot;assets/models/pole-1628062864266-1631924568908.png&quot;,&quot;url&quot;:&quot;https://lct-designs.s3.us-west-1.amazonaws.com/assets/models/pole-1628062864266-1631924568908.png&quot;},&quot;back&quot;:{&quot;key&quot;:&quot;assets/models/pole-1631924700152.svg&quot;,&quot;url&quot;:&quot;https://lct-designs.s3.us-west-1.amazonaws.com/assets/models/pole-1631924700152.svg&quot;},&quot;mask&quot;:{&quot;key&quot;:&quot;assets/models/pole-mask-1631925211715.svg&quot;,&quot;url&quot;:&quot;https://lct-designs.s3.us-west-1.amazonaws.com/assets/models/pole-mask-1631925211715.svg&quot;},&quot;pos&quot;:&quot;2&quot;,&quot;accessories&quot;:&quot;2,3&quot;}" style="background-color: white;"><g class="model" style="pointer-events: none;"><polygon fill="#FFFFFF" points="0.5,0.5 0.5,67.2 0.5,300.5 0.5,367.2 500.5,367.2 500.5,300.5 500.5,67.2 500.5,0.5 "></polygon></g><image width="760" height="455" xlink:href="https://lct-designs.s3.us-west-1.amazonaws.com/assets/libs/iguanas-green-3-1632132486159.png" class="asset background locked" transform="matrix(0.805934092762706,0,0,0.805934092762706,0,0)"></image><text fill="#000000" font-family="Impact" font-size="45" x="192.06642438162737" y="201.88927563680983" stroke-opacity="1" stroke-width="0" stroke="#000000" transform="matrix(0.27804791927337646,0,0,0.27804791927337646,-36.98625183105469,33.66463851928711)" svgjs:data="{&quot;leading&quot;:&quot;1.3&quot;}"><tspan dy="0" x="192.06642438162737" svgjs:data="{&quot;newLined&quot;:true}">Coach: Coach's name</tspan></text><text fill="#000000" font-family="Impact" font-size="45" x="192.06642438162737" y="201.88927563680983" stroke-opacity="1" stroke-width="0" stroke="#000000" transform="matrix(0.27804794907569885,0,0,0.27804794907569885,277.45614624023443,33.14939498901366)" svgjs:data="{&quot;leading&quot;:&quot;1.3&quot;}"><tspan dy="0" x="192.06642438162737" svgjs:data="{&quot;newLined&quot;:true}">Team mom: team mom's name</tspan></text><image width="760" height="255" xlink:href="https://lct-designs.s3.us-west-1.amazonaws.com/assets/libs/alligators-3-soflball-banner-green-softball-banner-picture-1675221863139.png" class="asset" transform="matrix(0.39911067485809326,0,0,0.39911067485809326,105.62451934814453,130.1879425048828)"></image><text fill="#ff7b47" font-family="Impact" font-size="45" stroke-opacity="1" stroke-width="3" stroke="#050505" x="164.68127054565383" y="198.9363701339798" transform="matrix(0.41325658559799194,0,0,0.4132565855979919,-19.581195831298828,201.04859924316406)" svgjs:data="{&quot;leading&quot;:&quot;1.3&quot;}"><tspan dy="0" x="164.68127054565383" svgjs:data="{&quot;newLined&quot;:true}">PLAYER</tspan></text><image width="699" height="760" xlink:href="https://lct-designs.s3.us-west-1.amazonaws.com/assets/libs/bear2-soflball-banner-1639966281995.png" class="asset" transform="matrix(0.055277615785598755,0,0,0.055277615785598755,12.059680938720703,246.7604217529297)"></image><text fill="#ff7b47" font-family="Impact" font-size="45" stroke-opacity="1" stroke-width="3" stroke="#050505" x="164.68127054565383" y="198.9363701339798" transform="matrix(0.41325658559799194,0,0,0.4132565855979919,103.30297088623047,196.3204803466797)" svgjs:data="{&quot;leading&quot;:&quot;1.3&quot;}"><tspan dy="0" x="164.68127054565383" svgjs:data="{&quot;newLined&quot;:true}">PLAYER</tspan></text><image width="699" height="760" xlink:href="https://lct-designs.s3.us-west-1.amazonaws.com/assets/libs/bear2-soflball-banner-1639966281995.png" class="asset" transform="matrix(0.055277615785598755,0,0,0.055277615785598755,134.94384765625,242.0323028564453)"></image><text fill="#ff7b47" font-family="Impact" font-size="45" stroke-opacity="1" stroke-width="3" stroke="#050505" x="164.68127054565383" y="198.9363701339798" transform="matrix(0.41325658559799194,0,0,0.4132565855979919,235.09966659545898,198.09352111816406)" svgjs:data="{&quot;leading&quot;:&quot;1.3&quot;}"><tspan dy="0" x="164.68127054565383" svgjs:data="{&quot;newLined&quot;:true}">PLAYER</tspan></text><image width="699" height="760" xlink:href="https://lct-designs.s3.us-west-1.amazonaws.com/assets/libs/bear2-soflball-banner-1639966281995.png" class="asset" transform="matrix(0.055277615785598755,0,0,0.055277615785598755,266.7405433654785,243.8053436279297)"></image><text fill="#ff7b47" font-family="Impact" font-size="45" stroke-opacity="1" stroke-width="3" stroke="#050505" x="164.68127054565383" y="198.9363701339798" transform="matrix(0.41325658559799194,0,0,0.4132565855979919,357.98382568359375,193.36540222167963)" svgjs:data="{&quot;leading&quot;:&quot;1.3&quot;}"><tspan dy="0" x="164.68127054565383" svgjs:data="{&quot;newLined&quot;:true}">PLAYER</tspan></text><image width="699" height="760" xlink:href="https://lct-designs.s3.us-west-1.amazonaws.com/assets/libs/bear2-soflball-banner-1639966281995.png" class="asset" transform="matrix(0.055277615785598755,0,0,0.055277615785598755,389.62469482421875,239.07722473144526)"></image><text fill="#ff7b47" font-family="Impact" font-size="45" stroke-opacity="1" stroke-width="3" stroke="#050505" x="164.68127054565383" y="198.9363701339798" transform="matrix(0.41325658559799194,0,0,0.4132565855979919,364.39044189453125,89.34649658203125)" svgjs:data="{&quot;leading&quot;:&quot;1.3&quot;}"><tspan dy="0" x="164.68127054565383" svgjs:data="{&quot;newLined&quot;:true}">PLAYER</tspan></text><text fill="#ff7b47" font-family="Impact" font-size="45" stroke-opacity="1" stroke-width="3" stroke="#050505" x="164.68127054565383" y="198.9363701339798" transform="matrix(0.41325658559799194,0,0,0.4132565855979919,272.8301696777344,48.56636047363281)" svgjs:data="{&quot;leading&quot;:&quot;1.3&quot;}"><tspan dy="0" x="164.68127054565383" svgjs:data="{&quot;newLined&quot;:true}">PLAYER</tspan></text><image width="699" height="760" xlink:href="https://lct-designs.s3.us-west-1.amazonaws.com/assets/libs/bear2-soflball-banner-1639966281995.png" class="asset" transform="matrix(0.055277615785598755,0,0,0.055277615785598755,304.4710388183594,94.27818298339844)"></image><image width="699" height="760" xlink:href="https://lct-designs.s3.us-west-1.amazonaws.com/assets/libs/bear2-soflball-banner-1639966281995.png" class="asset" transform="matrix(0.055277615785598755,0,0,0.055277615785598755,396.03131103515625,135.05831909179688)"></image><image width="699" height="760" xlink:href="https://lct-designs.s3.us-west-1.amazonaws.com/assets/libs/bear2-soflball-banner-1639966281995.png" class="asset" transform="matrix(0.055277615785598755,0,0,0.055277615785598755,133.61996459960938,97.23326873779294)"></image><text fill="#ff7b47" font-family="Impact" font-size="45" stroke-opacity="1" stroke-width="3" stroke="#050505" x="164.68127054565383" y="198.9363701339798" transform="matrix(0.41325658559799194,0,0,0.4132565855979919,101.97909545898438,51.521446228027344)" svgjs:data="{&quot;leading&quot;:&quot;1.3&quot;}"><tspan dy="0" x="164.68127054565383" svgjs:data="{&quot;newLined&quot;:true}">PLAYER</tspan></text><text fill="#ff7b47" font-family="Impact" font-size="45" stroke-opacity="1" stroke-width="3" stroke="#050505" x="164.68127054565383" y="198.9363701339798" transform="matrix(0.41325658559799194,0,0,0.4132565855979919,-17.264408111572266,87.57344055175781)" svgjs:data="{&quot;leading&quot;:&quot;1.3&quot;}"><tspan dy="0" x="164.68127054565383" svgjs:data="{&quot;newLined&quot;:true}">PLAYER</tspan></text><image width="699" height="760" xlink:href="https://lct-designs.s3.us-west-1.amazonaws.com/assets/libs/bear2-soflball-banner-1639966281995.png" class="asset" transform="matrix(0.055277615785598755,0,0,0.055277615785598755,14.376468658447266,133.28526306152344)"></image><g class="mask" style="pointer-events: none;"><g><path fill="#BCBEC0" d="M-3642.4-2101.7v4589.1h7813.4v-4589.1H-3642.4z M500.5,67.2v233.3v66.7H0.5v-66.7V67.2V0.5h500V67.2z" transform="matrix(1,0,0,1,0,0)"></path><g transform="matrix(1,0,0,1,0,0)">
	<rect x="0.5" y="300.5" opacity="0.95" fill="#F1F2F2" width="500" height="66.7"></rect>
	<rect x="0.5" y="0.5" opacity="0.95" fill="#F1F2F2" width="500" height="66.7"></rect>
</g></g></g></svg>