<svg xmlns="http://www.w3.org/2000/svg" version="1.1" xmlns:xlink="http://www.w3.org/1999/xlink" xmlns:svgjs="http://svgjs.dev/svgjs" width="100%" height="100%" viewBox="1 1 499 365.70001220703125" preserveAspectRatio="none" data-info="{&quot;_id&quot;:4,&quot;name&quot;:&quot;POLE POCKET SOCCER BANNERS&quot;,&quot;information&quot;:&quot;- Size: 3’x5’\n- Material: heavy duty vinyl banner\n- Digitally printed on vinyl&quot;,&quot;price&quot;:&quot;95.00&quot;,&quot;sale_price&quot;:&quot;89.99&quot;,&quot;type&quot;:&quot;pole-pocket&quot;,&quot;cover&quot;:{&quot;key&quot;:&quot;assets/models/pole-1628062864266-1631924568908.png&quot;,&quot;url&quot;:&quot;https://lct-designs.s3.us-west-1.amazonaws.com/assets/models/pole-1628062864266-1631924568908.png&quot;},&quot;back&quot;:{&quot;key&quot;:&quot;assets/models/pole-1631924700152.svg&quot;,&quot;url&quot;:&quot;https://lct-designs.s3.us-west-1.amazonaws.com/assets/models/pole-1631924700152.svg&quot;},&quot;mask&quot;:{&quot;key&quot;:&quot;assets/models/pole-mask-1631925211715.svg&quot;,&quot;url&quot;:&quot;https://lct-designs.s3.us-west-1.amazonaws.com/assets/models/pole-mask-1631925211715.svg&quot;},&quot;pos&quot;:&quot;2&quot;,&quot;accessories&quot;:&quot;2,3&quot;}" style="background-color: white;"><g class="model" style="pointer-events: none;"><polygon fill="#FFFFFF" points="0.5,0.5 0.5,67.2 0.5,300.5 0.5,367.2 500.5,367.2 500.5,300.5 500.5,67.2 500.5,0.5 "></polygon></g><image width="760" height="557" xlink:href="https://lct-designs.s3.us-west-1.amazonaws.com/assets/libs/asset-7-1653967517721.png" class="asset background locked" transform="matrix(0.6583483163501459,0,0,0.6583483163501459,0,0)"></image><text fill="#ffffff" font-family="Impact" font-size="45" x="192.06642438162737" y="201.88927563680983" stroke-opacity="1" stroke-width="0" stroke="#000000" class="" transform="matrix(0.2456101030111313,0,0,0.24561214447021482,154.70905848934655,32.507281799105414)" svgjs:data="{&quot;leading&quot;:&quot;1.3&quot;}"><tspan dy="0" x="192.06642438162737" svgjs:data="{&quot;newLined&quot;:true}">Coach: Coach's name</tspan></text><text fill="#ffffff" font-family="Impact" font-size="45" x="192.06642438162737" y="201.88927563680983" stroke-opacity="1" stroke-width="0" stroke="#000000" transform="matrix(0.24561013281345367,0,0,0.24561217427253726,132.5863171018013,46.11389476659009)" svgjs:data="{&quot;leading&quot;:&quot;1.3&quot;}"><tspan dy="0" x="192.06642438162737" svgjs:data="{&quot;newLined&quot;:true}">Team mom: team mom's name</tspan></text><text fill="#ffffff" font-family="Impact" font-size="45" stroke-opacity="1" stroke-width="2" stroke="#007a41" x="164.68127054565383" y="198.9363701339798" transform="matrix(0.37284702593290214,0,0,0.37284702593290214,-46.40778031947298,63.729563777270556)" svgjs:data="{&quot;leading&quot;:&quot;1.3&quot;}"><tspan dy="0" x="164.68127054565383" svgjs:data="{&quot;newLined&quot;:true}">PLAYER</tspan></text><image width="760" height="750" xlink:href="https://lct-designs.s3.us-west-1.amazonaws.com/assets/libs/cherries-red-1-1656734643742.png" class="asset" transform="matrix(0.05203084298566684,0,0,0.05203084298566684,14.890201067611486,80.13958530831269)"></image><text fill="#ffffff" font-family="Impact" font-size="45" stroke-opacity="1" stroke-width="2" stroke="#007a41" x="164.68127054565383" y="198.9363701339798" transform="matrix(0.37284702593290214,0,0,0.37284702593290214,30.756007159599108,62.42006885928515)" svgjs:data="{&quot;leading&quot;:&quot;1.3&quot;}"><tspan dy="0" x="164.68127054565383" svgjs:data="{&quot;newLined&quot;:true}">PLAYER</tspan></text><image width="760" height="750" xlink:href="https://lct-designs.s3.us-west-1.amazonaws.com/assets/libs/cherries-red-1-1656734643742.png" class="asset" transform="matrix(0.05203084298566684,0,0,0.05203084298566684,92.05398644183293,78.83009039032734)"></image><text fill="#ffffff" font-family="Impact" font-size="45" stroke-opacity="1" stroke-width="2" stroke="#007a41" x="164.68127054565383" y="198.9363701339798" transform="matrix(0.37284702593290214,0,0,0.37284702593290214,-43.88386237573019,137.06105186058565)" svgjs:data="{&quot;leading&quot;:&quot;1.3&quot;}"><tspan dy="0" x="164.68127054565383" svgjs:data="{&quot;newLined&quot;:true}">PLAYER</tspan></text><image width="760" height="750" xlink:href="https://lct-designs.s3.us-west-1.amazonaws.com/assets/libs/cherries-red-1-1656734643742.png" class="asset" transform="matrix(0.05203084298566684,0,0,0.05203084298566684,17.414119011354273,153.4710733916278)"></image><text fill="#ffffff" font-family="Impact" font-size="45" stroke-opacity="1" stroke-width="2" stroke="#007a41" x="164.68127054565383" y="198.9363701339798" transform="matrix(0.37284702593290214,0,0,0.37284702593290214,33.27992299849126,135.75154852319784)" svgjs:data="{&quot;leading&quot;:&quot;1.3&quot;}"><tspan dy="0" x="164.68127054565383" svgjs:data="{&quot;newLined&quot;:true}">PLAYER</tspan></text><image width="760" height="750" xlink:href="https://lct-designs.s3.us-west-1.amazonaws.com/assets/libs/cherries-red-1-1656734643742.png" class="asset" transform="matrix(0.05203084298566684,0,0,0.05203084298566684,94.57790438557566,152.16157005424003)"></image><text fill="#ffffff" font-family="Impact" font-size="45" stroke-opacity="1" stroke-width="2" stroke="#007a41" x="164.68127054565383" y="198.9363701339798" transform="matrix(0.37284702593290214,0,0,0.37284702593290214,-42.01467926187644,209.73778827520692)" svgjs:data="{&quot;leading&quot;:&quot;1.3&quot;}"><tspan dy="0" x="164.68127054565383" svgjs:data="{&quot;newLined&quot;:true}">PLAYER</tspan></text><image width="760" height="750" xlink:href="https://lct-designs.s3.us-west-1.amazonaws.com/assets/libs/cherries-red-1-1656734643742.png" class="asset" transform="matrix(0.05203084298566684,0,0,0.05203084298566684,19.283302125207967,226.14780980624903)"></image><text fill="#ffffff" font-family="Impact" font-size="45" stroke-opacity="1" stroke-width="2" stroke="#007a41" x="164.68127054565383" y="198.9363701339798" transform="matrix(0.37284702593290214,0,0,0.37284702593290214,35.14910611234501,208.42828493781906)" svgjs:data="{&quot;leading&quot;:&quot;1.3&quot;}"><tspan dy="0" x="164.68127054565383" svgjs:data="{&quot;newLined&quot;:true}">PLAYER</tspan></text><image width="760" height="750" xlink:href="https://lct-designs.s3.us-west-1.amazonaws.com/assets/libs/cherries-red-1-1656734643742.png" class="asset" transform="matrix(0.05203084298566684,0,0,0.05203084298566684,96.44708749942941,224.83830646886122)"></image><image width="760" height="750" xlink:href="https://lct-designs.s3.us-west-1.amazonaws.com/assets/libs/cherry-bombs-2-1706513389014.png" class="asset" transform="matrix(0.24391071498394015,0,0,0.24391071498394015,157.28234641696034,109.68221128434611)"></image><text fill="#ffffff" font-family="Impact" font-size="45" stroke-opacity="1" stroke-width="2" stroke="#007a41" x="164.68127054565383" y="198.9363701339798" transform="matrix(0.3728470802307129,0,0,0.37284708023071284,294.0607220229347,65.50948622917764)" svgjs:data="{&quot;leading&quot;:&quot;1.3&quot;}"><tspan dy="0" x="164.68127054565383" svgjs:data="{&quot;newLined&quot;:true}">PLAYER</tspan></text><image width="760" height="750" xlink:href="https://lct-designs.s3.us-west-1.amazonaws.com/assets/libs/cherries-red-1-1656734643742.png" class="asset" transform="matrix(0.05203085392713546,0,0,0.05203085392713547,355.3587024215531,81.91950873358286)"></image><text fill="#ffffff" font-family="Impact" font-size="45" stroke-opacity="1" stroke-width="2" stroke="#007a41" x="164.68127054565383" y="198.9363701339798" transform="matrix(0.3728470802307129,0,0,0.37284708023071284,371.2245087776195,64.19999222907157)" svgjs:data="{&quot;leading&quot;:&quot;1.3&quot;}"><tspan dy="0" x="164.68127054565383" svgjs:data="{&quot;newLined&quot;:true}">PLAYER</tspan></text><image width="760" height="750" xlink:href="https://lct-designs.s3.us-west-1.amazonaws.com/assets/libs/cherries-red-1-1656734643742.png" class="asset" transform="matrix(0.05203085392713546,0,0,0.05203085392713547,432.52248536154076,80.61001473347679)"></image><text fill="#ffffff" font-family="Impact" font-size="45" stroke-opacity="1" stroke-width="2" stroke="#007a41" x="164.68127054565383" y="198.9363701339798" transform="matrix(0.3728470802307129,0,0,0.37284708023071284,296.58464013923236,138.84097094434742)" svgjs:data="{&quot;leading&quot;:&quot;1.3&quot;}"><tspan dy="0" x="164.68127054565383" svgjs:data="{&quot;newLined&quot;:true}">PLAYER</tspan></text><image width="760" height="750" xlink:href="https://lct-designs.s3.us-west-1.amazonaws.com/assets/libs/cherries-red-1-1656734643742.png" class="asset" transform="matrix(0.05203085392713546,0,0,0.05203085392713547,357.88262053785064,155.25098963405543)"></image><text fill="#ffffff" font-family="Impact" font-size="45" stroke-opacity="1" stroke-width="2" stroke="#007a41" x="164.68127054565383" y="198.9363701339798" transform="matrix(0.3728470802307129,0,0,0.37284708023071284,373.74842307922,137.53146168545254)" svgjs:data="{&quot;leading&quot;:&quot;1.3&quot;}"><tspan dy="0" x="164.68127054565383" svgjs:data="{&quot;newLined&quot;:true}">PLAYER</tspan></text><image width="760" height="750" xlink:href="https://lct-designs.s3.us-west-1.amazonaws.com/assets/libs/cherries-red-1-1656734643742.png" class="asset" transform="matrix(0.05203085392713546,0,0,0.05203085392713547,435.04640347783817,153.9414956339494)"></image><text fill="#ffffff" font-family="Impact" font-size="45" stroke-opacity="1" stroke-width="2" stroke="#007a41" x="164.68127054565383" y="198.9363701339798" transform="matrix(0.3728470802307129,0,0,0.37284708023071284,298.45382269956855,211.51771247416144)" svgjs:data="{&quot;leading&quot;:&quot;1.3&quot;}"><tspan dy="0" x="164.68127054565383" svgjs:data="{&quot;newLined&quot;:true}">PLAYER</tspan></text><image width="760" height="750" xlink:href="https://lct-designs.s3.us-west-1.amazonaws.com/assets/libs/cherries-red-1-1656734643742.png" class="asset" transform="matrix(0.05203085392713546,0,0,0.05203085392713547,359.7518030981868,227.92773116386934)"></image><text fill="#ffffff" font-family="Impact" font-size="45" stroke-opacity="1" stroke-width="2" stroke="#007a41" x="164.68127054565383" y="198.9363701339798" transform="matrix(0.3728470802307129,0,0,0.37284708023071284,375.6176056395561,210.2082032152665)" svgjs:data="{&quot;leading&quot;:&quot;1.3&quot;}"><tspan dy="0" x="164.68127054565383" svgjs:data="{&quot;newLined&quot;:true}">PLAYER</tspan></text><image width="760" height="750" xlink:href="https://lct-designs.s3.us-west-1.amazonaws.com/assets/libs/cherries-red-1-1656734643742.png" class="asset" transform="matrix(0.05203085392713546,0,0,0.05203085392713547,436.9155898528716,226.61822190497452)"></image><g class="mask" style="pointer-events: none;"><g><path fill="#BCBEC0" d="M-3642.4-2101.7v4589.1h7813.4v-4589.1H-3642.4z M500.5,67.2v233.3v66.7H0.5v-66.7V67.2V0.5h500V67.2z" transform="matrix(1,0,0,1,0,0)"></path><g transform="matrix(1,0,0,1,0,0)">
	<rect x="0.5" y="300.5" opacity="0.95" fill="#F1F2F2" width="500" height="66.7"></rect>
	<rect x="0.5" y="0.5" opacity="0.95" fill="#F1F2F2" width="500" height="66.7"></rect>
</g></g></g></svg>