<svg xmlns="http://www.w3.org/2000/svg" version="1.1" xmlns:xlink="http://www.w3.org/1999/xlink" xmlns:svgjs="http://svgjs.dev/svgjs" width="100%" height="100%" viewBox="1 1 499 365.70001220703125" preserveAspectRatio="none" data-info="{&quot;_id&quot;:4,&quot;name&quot;:&quot;POLE POCKET SOCCER BANNERS&quot;,&quot;information&quot;:&quot;- Size: 3’x5’\n- Material: heavy duty vinyl banner\n- Digitally printed on vinyl&quot;,&quot;price&quot;:&quot;95.00&quot;,&quot;sale_price&quot;:&quot;89.99&quot;,&quot;type&quot;:&quot;pole-pocket&quot;,&quot;cover&quot;:{&quot;key&quot;:&quot;assets/models/pole-1628062864266-1631924568908.png&quot;,&quot;url&quot;:&quot;https://lct-designs.s3.us-west-1.amazonaws.com/assets/models/pole-1628062864266-1631924568908.png&quot;},&quot;back&quot;:{&quot;key&quot;:&quot;assets/models/pole-1631924700152.svg&quot;,&quot;url&quot;:&quot;https://lct-designs.s3.us-west-1.amazonaws.com/assets/models/pole-1631924700152.svg&quot;},&quot;mask&quot;:{&quot;key&quot;:&quot;assets/models/pole-mask-1631925211715.svg&quot;,&quot;url&quot;:&quot;https://lct-designs.s3.us-west-1.amazonaws.com/assets/models/pole-mask-1631925211715.svg&quot;},&quot;pos&quot;:&quot;2&quot;,&quot;accessories&quot;:&quot;2,3&quot;}" style="background-color: white;"><g class="model" style="pointer-events: none;"><polygon fill="#FFFFFF" points="0.5,0.5 0.5,67.2 0.5,300.5 0.5,367.2 500.5,367.2 500.5,300.5 500.5,67.2 500.5,0.5 "></polygon></g><image width="760" height="556" xlink:href="https://lct-designs.s3.us-west-1.amazonaws.com/assets/libs/bandit--01-1706256749988.png" class="asset background locked" transform="matrix(0.6595323960558116,0,0,0.6595323960558116,0,0)"></image><text fill="#ab0b0c" font-family="Impact" font-size="45" x="192.06642438162737" y="201.88927563680983" stroke-opacity="1" stroke-width="0" stroke="#000000" class="" transform="matrix(0.278048038482666,0,0,0.278048038482666,-45.16528638151693,26.1421123636338)" svgjs:data="{&quot;leading&quot;:&quot;1.3&quot;}"><tspan dy="0" x="192.06642438162737" svgjs:data="{&quot;newLined&quot;:true}">Coach: Coach's name</tspan></text><text fill="#ab0b0c" font-family="Impact" font-size="45" x="192.06642438162737" y="201.88927563680983" stroke-opacity="1" stroke-width="0" stroke="#000000" transform="matrix(0.2780480980873108,0,0,0.2780480980873108,286.48482872756716,27.721730795359036)" svgjs:data="{&quot;leading&quot;:&quot;1.3&quot;}"><tspan dy="0" x="192.06642438162737" svgjs:data="{&quot;newLined&quot;:true}">Team mom: team mom's name</tspan></text><text fill="#ffffff" font-family="Impact" font-size="45" stroke-opacity="1" stroke-width="2" stroke="#050505" x="164.68127054565383" y="198.9363701339798" transform="matrix(0.3775225579738617,0,0,0.37752255797386164,-53.769530492474885,69.85193535623199)" svgjs:data="{&quot;leading&quot;:&quot;1.3&quot;}"><tspan dy="0" x="164.68127054565383" svgjs:data="{&quot;newLined&quot;:true}">PLAYER</tspan></text><image width="760" height="760" xlink:href="https://lct-designs.s3.us-west-1.amazonaws.com/assets/libs/bandit-1-01-1706256975601.png" class="asset" transform="matrix(0.04758499190211296,0,0,0.047584991902112954,15.030554559667308,90.07518641409274)"></image><text fill="#ffffff" font-family="Impact" font-size="45" stroke-opacity="1" stroke-width="2" stroke="#050505" x="164.68127054565383" y="198.9363701339798" transform="matrix(0.3775225579738617,0,0,0.37752255797386164,-52.784941883299254,140.1735209744021)" svgjs:data="{&quot;leading&quot;:&quot;1.3&quot;}"><tspan dy="0" x="164.68127054565383" svgjs:data="{&quot;newLined&quot;:true}">PLAYER</tspan></text><image width="760" height="760" xlink:href="https://lct-designs.s3.us-west-1.amazonaws.com/assets/libs/bandit-1-01-1706256975601.png" class="asset" transform="matrix(0.04758501425385475,0,0,0.04758501425385475,16.01514030782002,160.39677203226285)"></image><text fill="#ffffff" font-family="Impact" font-size="45" stroke-opacity="1" stroke-width="2" stroke="#050505" x="164.68127054565383" y="198.9363701339798" transform="matrix(0.3775225579738617,0,0,0.37752255797386164,-52.401381708038926,212.29824530007903)" svgjs:data="{&quot;leading&quot;:&quot;1.3&quot;}"><tspan dy="0" x="164.68127054565383" svgjs:data="{&quot;newLined&quot;:true}">PLAYER</tspan></text><image width="760" height="760" xlink:href="https://lct-designs.s3.us-west-1.amazonaws.com/assets/libs/bandit-1-01-1706256975601.png" class="asset" transform="matrix(0.04758501425385475,0,0,0.04758501425385475,16.398698575731714,232.52149635793984)"></image><image width="760" height="293" xlink:href="https://lct-designs.s3.us-west-1.amazonaws.com/assets/libs/bandit-5-1706256013424.png" class="asset" transform="matrix(0.3120897114276886,0,0,0.31208971142768854,121.26535626275998,88.34271115773879)"></image><image width="760" height="690" xlink:href="https://lct-designs.s3.us-west-1.amazonaws.com/assets/libs/bandit-4-01-1706256884818.png" class="asset" transform="matrix(0.2082321345806122,0,0,0.20823213458061215,168.7465338775189,154.784375871098)"></image><text fill="#ffffff" font-family="Impact" font-size="45" stroke-opacity="1" stroke-width="2" stroke="#050505" x="164.68127054565383" y="198.9363701339798" transform="matrix(0.3775225579738617,0,0,0.37752255797386164,31.742476969792364,126.95065128764392)" svgjs:data="{&quot;leading&quot;:&quot;1.3&quot;}"><tspan dy="0" x="164.68127054565383" svgjs:data="{&quot;newLined&quot;:true}">PLAYER</tspan></text><image width="760" height="760" xlink:href="https://lct-designs.s3.us-west-1.amazonaws.com/assets/libs/bandit-1-01-1706256975601.png" class="asset" transform="matrix(0.04758502170443535,0,0,0.04758502170443535,100.54255534621444,147.17390234550467)"></image><text fill="#ffffff" font-family="Impact" font-size="45" stroke-opacity="1" stroke-width="2" stroke="#050505" x="164.68127054565383" y="198.9363701339798" transform="matrix(0.3775225579738617,0,0,0.37752255797386164,32.12603714505272,199.07537561332083)" svgjs:data="{&quot;leading&quot;:&quot;1.3&quot;}"><tspan dy="0" x="164.68127054565383" svgjs:data="{&quot;newLined&quot;:true}">PLAYER</tspan></text><image width="760" height="760" xlink:href="https://lct-designs.s3.us-west-1.amazonaws.com/assets/libs/bandit-1-01-1706256975601.png" class="asset" transform="matrix(0.04758502170443535,0,0,0.04758502170443535,100.92611552147474,219.29862667118158)"></image><text fill="#ffffff" font-family="Impact" font-size="45" stroke-opacity="1" stroke-width="2" stroke="#050505" x="164.68127054565383" y="198.9363701339798" transform="matrix(0.3775225579738617,0,0,0.37752255797386164,379.35393752661446,74.66025438028748)" svgjs:data="{&quot;leading&quot;:&quot;1.3&quot;}"><tspan dy="0" x="164.68127054565383" svgjs:data="{&quot;newLined&quot;:true}">PLAYER</tspan></text><image width="760" height="760" xlink:href="https://lct-designs.s3.us-west-1.amazonaws.com/assets/libs/bandit-1-01-1706256975601.png" class="asset" transform="matrix(0.04758499935269356,0,0,0.04758499935269356,448.15402162508246,94.88350543814826)"></image><text fill="#ffffff" font-family="Impact" font-size="45" stroke-opacity="1" stroke-width="2" stroke="#050505" x="164.68127054565383" y="198.9363701339798" transform="matrix(0.3775225579738617,0,0,0.37752255797386164,380.3385261357902,144.98183999845756)" svgjs:data="{&quot;leading&quot;:&quot;1.3&quot;}"><tspan dy="0" x="164.68127054565383" svgjs:data="{&quot;newLined&quot;:true}">PLAYER</tspan></text><image width="760" height="760" xlink:href="https://lct-designs.s3.us-west-1.amazonaws.com/assets/libs/bandit-1-01-1706256975601.png" class="asset" transform="matrix(0.04758502170443535,0,0,0.04758502170443535,449.13860832690943,165.20509105631834)"></image><text fill="#ffffff" font-family="Impact" font-size="45" stroke-opacity="1" stroke-width="2" stroke="#050505" x="164.68127054565383" y="198.9363701339798" transform="matrix(0.3775225579738617,0,0,0.37752255797386164,380.7220863110505,217.10656432413458)" svgjs:data="{&quot;leading&quot;:&quot;1.3&quot;}"><tspan dy="0" x="164.68127054565383" svgjs:data="{&quot;newLined&quot;:true}">PLAYER</tspan></text><image width="760" height="760" xlink:href="https://lct-designs.s3.us-west-1.amazonaws.com/assets/libs/bandit-1-01-1706256975601.png" class="asset" transform="matrix(0.04758502170443535,0,0,0.04758502170443535,449.5221665948211,237.32981538199533)"></image><text fill="#ffffff" font-family="Impact" font-size="45" stroke-opacity="1" stroke-width="2" stroke="#050505" x="164.68127054565383" y="198.9363701339798" transform="matrix(0.3775225579738617,0,0,0.37752255797386164,291.769969644319,120.33921644426485)" svgjs:data="{&quot;leading&quot;:&quot;1.3&quot;}"><tspan dy="0" x="164.68127054565383" svgjs:data="{&quot;newLined&quot;:true}">PLAYER</tspan></text><image width="760" height="760" xlink:href="https://lct-designs.s3.us-west-1.amazonaws.com/assets/libs/bandit-1-01-1706256975601.png" class="asset" transform="matrix(0.04758502170443535,0,0,0.04758502170443535,360.5700480207412,140.5624675021256)"></image><text fill="#ffffff" font-family="Impact" font-size="45" stroke-opacity="1" stroke-width="2" stroke="#050505" x="164.68127054565383" y="198.9363701339798" transform="matrix(0.3775225579738617,0,0,0.37752255797386164,292.15352981957943,192.46394076994176)" svgjs:data="{&quot;leading&quot;:&quot;1.3&quot;}"><tspan dy="0" x="164.68127054565383" svgjs:data="{&quot;newLined&quot;:true}">PLAYER</tspan></text><image width="760" height="760" xlink:href="https://lct-designs.s3.us-west-1.amazonaws.com/assets/libs/bandit-1-01-1706256975601.png" class="asset" transform="matrix(0.04758502170443535,0,0,0.04758502170443535,360.9536081960015,212.6871918278025)"></image><g class="mask" style="pointer-events: none;"><g><path fill="#BCBEC0" d="M-3642.4-2101.7v4589.1h7813.4v-4589.1H-3642.4z M500.5,67.2v233.3v66.7H0.5v-66.7V67.2V0.5h500V67.2z" transform="matrix(1,0,0,1,0,0)"></path><g transform="matrix(1,0,0,1,0,0)">
	<rect x="0.5" y="300.5" opacity="0.95" fill="#F1F2F2" width="500" height="66.7"></rect>
	<rect x="0.5" y="0.5" opacity="0.95" fill="#F1F2F2" width="500" height="66.7"></rect>
</g></g></g></svg>