<svg xmlns="http://www.w3.org/2000/svg" version="1.1" xmlns:xlink="http://www.w3.org/1999/xlink" xmlns:svgjs="http://svgjs.dev/svgjs" width="100%" height="100%" viewBox="1 1 499 365.70001220703125" preserveAspectRatio="none" data-info="{&quot;_id&quot;:4,&quot;name&quot;:&quot;POLE POCKET SOCCER BANNERS&quot;,&quot;information&quot;:&quot;- Size: 3’x5’\n- Material: heavy duty vinyl banner\n- Digitally printed on vinyl&quot;,&quot;price&quot;:&quot;95.00&quot;,&quot;sale_price&quot;:&quot;89.99&quot;,&quot;type&quot;:&quot;pole-pocket&quot;,&quot;cover&quot;:{&quot;key&quot;:&quot;assets/models/pole-1628062864266-1631924568908.png&quot;,&quot;url&quot;:&quot;https://lct-designs.s3.us-west-1.amazonaws.com/assets/models/pole-1628062864266-1631924568908.png&quot;},&quot;back&quot;:{&quot;key&quot;:&quot;assets/models/pole-1631924700152.svg&quot;,&quot;url&quot;:&quot;https://lct-designs.s3.us-west-1.amazonaws.com/assets/models/pole-1631924700152.svg&quot;},&quot;mask&quot;:{&quot;key&quot;:&quot;assets/models/pole-mask-1631925211715.svg&quot;,&quot;url&quot;:&quot;https://lct-designs.s3.us-west-1.amazonaws.com/assets/models/pole-mask-1631925211715.svg&quot;},&quot;pos&quot;:&quot;2&quot;,&quot;accessories&quot;:&quot;2,3&quot;}" style="background-color: white;"><g class="model" style="pointer-events: none;"><polygon fill="#FFFFFF" points="0.5,0.5 0.5,67.2 0.5,300.5 0.5,367.2 500.5,367.2 500.5,300.5 500.5,67.2 500.5,0.5 "></polygon></g><image width="760" height="556" xlink:href="https://lct-designs.s3.us-west-1.amazonaws.com/assets/libs/angel1-1640078513136.png" class="asset background locked" transform="matrix(0.6595323960558116,0,0,0.6595323960558116,0,0)"></image><image width="729" height="760" xlink:href="https://lct-designs.s3.us-west-1.amazonaws.com/assets/libs/alligators-b-soflball-banner-1639966233827.png" class="asset" transform="matrix(0.21343912184238434,0,0,0.21408547461032867,160.99747183911407,112.75414612156578)"></image><image width="608" height="760" xlink:href="https://lct-designs.s3.us-west-1.amazonaws.com/assets/libs/alligators-b-soflball-banner-1639966281994.png" class="asset" transform="matrix(0.05750545859336853,0,0,0.05750545859336853,21.32182470923138,91.78512083843702)"></image><text fill="#000000" font-family="Antilles Laser" font-size="18" x="195.90489509778803" y="199.37501381106128" transform="matrix(1,0,0,1,-179.04244002826314,-46.68296190151455)" svgjs:data="{&quot;leading&quot;:&quot;1.3&quot;}"><tspan dy="0" x="195.90489509778803" svgjs:data="{&quot;newLined&quot;:true}">PLAYER</tspan></text><image width="608" height="760" xlink:href="https://lct-designs.s3.us-west-1.amazonaws.com/assets/libs/alligators-b-soflball-banner-1639966281994.png" class="asset" transform="matrix(0.05750545859336853,0,0,0.05750545859336853,21.321810404116206,159.95179462289184)"></image><text fill="#000000" font-family="Antilles Laser" font-size="18" x="195.90489509778803" y="199.37501381106128" transform="matrix(1,0,0,1,-179.04244002826314,21.483711882940263)" svgjs:data="{&quot;leading&quot;:&quot;1.3&quot;}"><tspan dy="0" x="195.90489509778803" svgjs:data="{&quot;newLined&quot;:true}">PLAYER</tspan></text><image width="608" height="760" xlink:href="https://lct-designs.s3.us-west-1.amazonaws.com/assets/libs/alligators-b-soflball-banner-1639966281994.png" class="asset" transform="matrix(0.05750545859336853,0,0,0.05750545859336853,21.321839968020896,227.7741995982585)"></image><text fill="#000000" font-family="Antilles Laser" font-size="18" x="195.90489509778803" y="199.37501381106128" transform="matrix(1,0,0,1,-179.04244002826314,89.30611685830695)" svgjs:data="{&quot;leading&quot;:&quot;1.3&quot;}"><tspan dy="0" x="195.90489509778803" svgjs:data="{&quot;newLined&quot;:true}">PLAYER</tspan></text><image width="608" height="760" xlink:href="https://lct-designs.s3.us-west-1.amazonaws.com/assets/libs/alligators-b-soflball-banner-1639966281994.png" class="asset" transform="matrix(0.05750545859336853,0,0,0.05750545859336853,82.96293124446058,91.4408443999541)"></image><text fill="#000000" font-family="Antilles Laser" font-size="18" x="195.90489509778803" y="199.37501381106128" transform="matrix(1,0,0,1,-117.40134016875434,-47.02723833999744)" svgjs:data="{&quot;leading&quot;:&quot;1.3&quot;}"><tspan dy="0" x="195.90489509778803" svgjs:data="{&quot;newLined&quot;:true}">PLAYER</tspan></text><image width="608" height="760" xlink:href="https://lct-designs.s3.us-west-1.amazonaws.com/assets/libs/alligators-b-soflball-banner-1639966281994.png" class="asset" transform="matrix(0.05750545859336853,0,0,0.05750545859336853,82.96291598567112,159.60752581380368)"></image><text fill="#000000" font-family="Antilles Laser" font-size="18" x="195.90489509778803" y="199.37501381106128" transform="matrix(1,0,0,1,-117.40134016875434,21.139435444457384)" svgjs:data="{&quot;leading&quot;:&quot;1.3&quot;}"><tspan dy="0" x="195.90489509778803" svgjs:data="{&quot;newLined&quot;:true}">PLAYER</tspan></text><image width="608" height="760" xlink:href="https://lct-designs.s3.us-west-1.amazonaws.com/assets/libs/alligators-b-soflball-banner-1639966281994.png" class="asset" transform="matrix(0.05750545859336853,0,0,0.05750545859336853,82.96294650325015,227.42993078917036)"></image><text fill="#000000" font-family="Antilles Laser" font-size="18" x="195.90489509778803" y="199.37501381106128" transform="matrix(1,0,0,1,-117.40134016875434,88.96184041982406)" svgjs:data="{&quot;leading&quot;:&quot;1.3&quot;}"><tspan dy="0" x="195.90489509778803" svgjs:data="{&quot;newLined&quot;:true}">PLAYER</tspan></text><image width="608" height="760" xlink:href="https://lct-designs.s3.us-west-1.amazonaws.com/assets/libs/alligators-b-soflball-banner-1639966281994.png" class="asset" transform="matrix(0.05750545859336853,0,0,0.05750545859336853,380.0714110157311,90.75229152298832)"></image><text fill="#000000" font-family="Antilles Laser" font-size="18" x="195.90489509778803" y="199.37501381106128" transform="matrix(1,0,0,1,179.70714341721353,-47.715791216963225)" svgjs:data="{&quot;leading&quot;:&quot;1.3&quot;}"><tspan dy="0" x="195.90489509778803" svgjs:data="{&quot;newLined&quot;:true}">PLAYER</tspan></text><image width="608" height="760" xlink:href="https://lct-designs.s3.us-west-1.amazonaws.com/assets/libs/alligators-b-soflball-banner-1639966281994.png" class="asset" transform="matrix(0.05750545859336853,0,0,0.05750545859336853,380.07139575694157,158.91897293683792)"></image><text fill="#000000" font-family="Antilles Laser" font-size="18" x="195.90489509778803" y="199.37501381106128" transform="matrix(1,0,0,1,179.70714341721353,20.450882567491583)" svgjs:data="{&quot;leading&quot;:&quot;1.3&quot;}"><tspan dy="0" x="195.90489509778803" svgjs:data="{&quot;newLined&quot;:true}">PLAYER</tspan></text><image width="608" height="760" xlink:href="https://lct-designs.s3.us-west-1.amazonaws.com/assets/libs/alligators-b-soflball-banner-1639966281994.png" class="asset" transform="matrix(0.05750545859336853,0,0,0.05750545859336853,380.0714262745206,226.74137791220457)"></image><text fill="#000000" font-family="Antilles Laser" font-size="18" x="195.90489509778803" y="199.37501381106128" transform="matrix(1,0,0,1,179.70714341721353,88.27328754285827)" svgjs:data="{&quot;leading&quot;:&quot;1.3&quot;}"><tspan dy="0" x="195.90489509778803" svgjs:data="{&quot;newLined&quot;:true}">PLAYER</tspan></text><image width="608" height="760" xlink:href="https://lct-designs.s3.us-west-1.amazonaws.com/assets/libs/alligators-b-soflball-banner-1639966281994.png" class="asset" transform="matrix(0.05750545859336853,0,0,0.05750545859336853,441.7125146899373,90.40801508450545)"></image><text fill="#000000" font-family="Antilles Laser" font-size="18" x="195.90489509778803" y="199.37501381106128" transform="matrix(1,0,0,1,241.34824327672234,-48.06006765544612)" svgjs:data="{&quot;leading&quot;:&quot;1.3&quot;}"><tspan dy="0" x="195.90489509778803" svgjs:data="{&quot;newLined&quot;:true}">PLAYER</tspan></text><image width="608" height="760" xlink:href="https://lct-designs.s3.us-west-1.amazonaws.com/assets/libs/alligators-b-soflball-banner-1639966281994.png" class="asset" transform="matrix(0.05750545859336853,0,0,0.05750545859336853,441.71249943114776,158.57470412774975)"></image><text fill="#000000" font-family="Antilles Laser" font-size="18" x="195.90489509778803" y="199.37501381106128" transform="matrix(1,0,0,1,241.34824327672234,20.10660612900869)" svgjs:data="{&quot;leading&quot;:&quot;1.3&quot;}"><tspan dy="0" x="195.90489509778803" svgjs:data="{&quot;newLined&quot;:true}">PLAYER</tspan></text><image width="608" height="760" xlink:href="https://lct-designs.s3.us-west-1.amazonaws.com/assets/libs/alligators-b-soflball-banner-1639966281994.png" class="asset" transform="matrix(0.05750545859336853,0,0,0.05750545859336853,441.7125299487268,226.39710910311643)"></image><text fill="#000000" font-family="Antilles Laser" font-size="18" x="195.90489509778803" y="199.37501381106128" transform="matrix(1,0,0,1,241.34824327672234,87.92901110437538)" svgjs:data="{&quot;leading&quot;:&quot;1.3&quot;}"><tspan dy="0" x="195.90489509778803" svgjs:data="{&quot;newLined&quot;:true}">PLAYER</tspan></text><text fill="#000000" font-family="Antilles Laser" font-size="18" x="181.09200514031738" y="190.27647684680014" transform="matrix(1,0,0,1,-175.57974766432469,-107.24204573756583)" svgjs:data="{&quot;leading&quot;:&quot;1.3&quot;}"><tspan dy="0" x="181.09200514031738" svgjs:data="{&quot;newLined&quot;:true}">COACH: COACH'S NAME</tspan></text><text fill="#000000" font-family="Antilles Laser" font-size="18" x="150.4762367077002" y="190.27647684680014" transform="matrix(1,0,0,1,141.15234795666768,-107.24203047877631)" svgjs:data="{&quot;leading&quot;:&quot;1.3&quot;}"><tspan dy="0" x="150.4762367077002" svgjs:data="{&quot;newLined&quot;:true}">TEAM MOM: TEAM MOM'S NAME</tspan></text><g class="mask" style="pointer-events: none;"><g><path fill="#BCBEC0" d="M-3642.4-2101.7v4589.1h7813.4v-4589.1H-3642.4z M500.5,67.2v233.3v66.7H0.5v-66.7V67.2V0.5h500V67.2z" transform="matrix(1,0,0,1,0,0)"></path><g transform="matrix(1,0,0,1,0,0)">
	<rect x="0.5" y="300.5" opacity="0.95" fill="#F1F2F2" width="500" height="66.7"></rect>
	<rect x="0.5" y="0.5" opacity="0.95" fill="#F1F2F2" width="500" height="66.7"></rect>
</g></g></g></svg>