<svg xmlns="http://www.w3.org/2000/svg" version="1.1" xmlns:xlink="http://www.w3.org/1999/xlink" xmlns:svgjs="http://svgjs.dev/svgjs" width="100%" height="100%" viewBox="1 1 499 365.70001220703125" preserveAspectRatio="none" data-info="{&quot;_id&quot;:4,&quot;name&quot;:&quot;POLE POCKET SOCCER BANNERS&quot;,&quot;information&quot;:&quot;- Size: 3’x5’\n- Material: heavy duty vinyl banner\n- Digitally printed on vinyl&quot;,&quot;price&quot;:&quot;95.00&quot;,&quot;sale_price&quot;:&quot;89.99&quot;,&quot;type&quot;:&quot;pole-pocket&quot;,&quot;cover&quot;:{&quot;key&quot;:&quot;assets/models/pole-1628062864266-1631924568908.png&quot;,&quot;url&quot;:&quot;https://lct-designs.s3.us-west-1.amazonaws.com/assets/models/pole-1628062864266-1631924568908.png&quot;},&quot;back&quot;:{&quot;key&quot;:&quot;assets/models/pole-1631924700152.svg&quot;,&quot;url&quot;:&quot;https://lct-designs.s3.us-west-1.amazonaws.com/assets/models/pole-1631924700152.svg&quot;},&quot;mask&quot;:{&quot;key&quot;:&quot;assets/models/pole-mask-1631925211715.svg&quot;,&quot;url&quot;:&quot;https://lct-designs.s3.us-west-1.amazonaws.com/assets/models/pole-mask-1631925211715.svg&quot;},&quot;pos&quot;:&quot;2&quot;,&quot;accessories&quot;:&quot;2,3&quot;}" style="background-color: white;"><g class="model" style="pointer-events: none;"><polygon fill="#FFFFFF" points="0.5,0.5 0.5,67.2 0.5,300.5 0.5,367.2 500.5,367.2 500.5,300.5 500.5,67.2 500.5,0.5 "></polygon></g><image width="760" height="556" xlink:href="https://lct-designs.s3.us-west-1.amazonaws.com/assets/libs/angel2-1640078513136.png" class="asset background locked" transform="matrix(0.6595323960558116,0,0,0.6595323960558116,0,0)"></image><text fill="#00047a" font-family="Antilles" font-size="18" x="181.09200514031738" y="190.27647684680014" transform="matrix(0.9999999999999999,0,0,1,-3.12735519192681,-94.65418525499649)" svgjs:data="{&quot;leading&quot;:&quot;1.3&quot;}"><tspan dy="0" x="181.09200514031738" svgjs:data="{&quot;newLined&quot;:true}">COACH: COACH'S NAME</tspan></text><image width="760" height="708" xlink:href="https://lct-designs.s3.us-west-1.amazonaws.com/assets/libs/angel2-soflball-banner-1639966070671.png" class="asset" transform="matrix(0.18356856703758237,0,0,0.1835685670375824,166.61516304657334,147.25587902235608)"></image><image width="760" height="291" xlink:href="https://lct-designs.s3.us-west-1.amazonaws.com/assets/libs/angel2-soflball-banner-1639966281994.png" class="asset" transform="matrix(0.07354357838630676,0,0,0.07354357838630676,354.2907210079047,138.00420790923252)"></image><text fill="#00047a" font-family="Antilles" font-size="18" x="150.4762367077002" y="190.27647684680014" transform="matrix(0.9999999999999999,0,0,1,-6.3299452760799255,106.12224895126357)" svgjs:data="{&quot;leading&quot;:&quot;1.3&quot;}"><tspan dy="0" x="150.4762367077002" svgjs:data="{&quot;newLined&quot;:true}">TEAM MOM: TEAM MOM'S NAME</tspan></text><image width="760" height="319" xlink:href="https://lct-designs.s3.us-west-1.amazonaws.com/assets/libs/angel2-soflball-banner-1639966233827.png" class="asset" transform="matrix(0.25646668672561646,0,0,0.25646668672561646,149.1485487564964,76.7057136507544)"></image><text fill="#00047a" font-family="Antilles" font-size="18" x="228.50083854871576" y="190.1439134699609" transform="matrix(0.9999999999999999,0,0,1,132.36661161084794,-52.239633209694375)" svgjs:data="{&quot;leading&quot;:&quot;1.3&quot;}"><tspan dy="0" x="228.50083854871576" svgjs:data="{&quot;newLined&quot;:true}">PLAYER</tspan></text><image width="760" height="291" xlink:href="https://lct-designs.s3.us-west-1.amazonaws.com/assets/libs/angel2-soflball-banner-1639966281994.png" class="asset" transform="matrix(0.07354355603456497,0,0,0.07354355603456497,431.6352705846803,139.89236867107044)"></image><text fill="#00047a" font-family="Antilles" font-size="18" x="228.50083854871576" y="190.1439134699609" transform="matrix(0.9999999999999999,0,0,1,209.71117263171573,-50.351457189066906)" svgjs:data="{&quot;leading&quot;:&quot;1.3&quot;}"><tspan dy="0" x="228.50083854871576" svgjs:data="{&quot;newLined&quot;:true}">PLAYER</tspan></text><image width="760" height="291" xlink:href="https://lct-designs.s3.us-west-1.amazonaws.com/assets/libs/angel2-soflball-banner-1639966281994.png" class="asset" transform="matrix(0.07354366034269333,0,0,0.07354366034269333,343.450754864536,199.68469833388005)"></image><text fill="#00047a" font-family="Antilles" font-size="18" x="228.50083854871576" y="190.1439134699609" transform="matrix(0.9999999999999999,0,0,1,121.52663020868977,9.44087247374273)" svgjs:data="{&quot;leading&quot;:&quot;1.3&quot;}"><tspan dy="0" x="228.50083854871576" svgjs:data="{&quot;newLined&quot;:true}">PLAYER</tspan></text><image width="760" height="291" xlink:href="https://lct-designs.s3.us-west-1.amazonaws.com/assets/libs/angel2-soflball-banner-1639966281994.png" class="asset" transform="matrix(0.07354363054037093,0,0,0.07354363054037094,426.4597905415229,200.9434874338949)"></image><text fill="#00047a" font-family="Antilles" font-size="18" x="228.50083854871576" y="190.1439134699609" transform="matrix(0.9999999999999999,0,0,1,204.53566588567674,10.699661573757538)" svgjs:data="{&quot;leading&quot;:&quot;1.3&quot;}"><tspan dy="0" x="228.50083854871576" svgjs:data="{&quot;newLined&quot;:true}">PLAYER</tspan></text><image width="760" height="291" xlink:href="https://lct-designs.s3.us-west-1.amazonaws.com/assets/libs/angel2-soflball-banner-1639966281994.png" class="asset" transform="matrix(0.07354375720024107,0,0,0.07354375720024109,323.72907458928415,255.07128140542724)"></image><text fill="#00047a" font-family="Antilles" font-size="18" x="228.50083854871576" y="190.1439134699609" transform="matrix(0.9999999999999999,0,0,1,101.80494993343791,64.8274555452899)" svgjs:data="{&quot;leading&quot;:&quot;1.3&quot;}"><tspan dy="0" x="228.50083854871576" svgjs:data="{&quot;newLined&quot;:true}">PLAYER</tspan></text><image width="760" height="291" xlink:href="https://lct-designs.s3.us-west-1.amazonaws.com/assets/libs/angel2-soflball-banner-1639966281994.png" class="asset" transform="matrix(0.07354374229907988,0,0,0.0735437422990799,421.843426878554,261.365242164291)"></image><text fill="#00047a" font-family="Antilles" font-size="18" x="228.50083854871576" y="190.1439134699609" transform="matrix(0.9999999999999999,0,0,1,199.91930222270773,71.12140104536408)" svgjs:data="{&quot;leading&quot;:&quot;1.3&quot;}"><tspan dy="0" x="228.50083854871576" svgjs:data="{&quot;newLined&quot;:true}">PLAYER</tspan></text><image width="760" height="291" xlink:href="https://lct-designs.s3.us-west-1.amazonaws.com/assets/libs/angel2-soflball-banner-1639966281994.png" class="asset" transform="matrix(0.07354375720024107,0,0,0.07354375720024109,13.999817311758303,112.19905424711263)"></image><text fill="#00047a" font-family="Antilles" font-size="18" x="228.50083854871576" y="190.1439134699609" transform="matrix(0.9999999999999999,0,0,1,-207.924307344088,-78.04477161302475)" svgjs:data="{&quot;leading&quot;:&quot;1.3&quot;}"><tspan dy="0" x="228.50083854871576" svgjs:data="{&quot;newLined&quot;:true}">PLAYER</tspan></text><image width="760" height="291" xlink:href="https://lct-designs.s3.us-west-1.amazonaws.com/assets/libs/angel2-soflball-banner-1639966281994.png" class="asset" transform="matrix(0.07354377955198287,0,0,0.07354377955198288,81.90354400585714,136.7453882916386)"></image><text fill="#00047a" font-family="Antilles" font-size="18" x="228.50083854871576" y="190.1439134699609" transform="matrix(0.9999999999999999,0,0,1,-140.02058064998914,-53.49843756849876)" svgjs:data="{&quot;leading&quot;:&quot;1.3&quot;}"><tspan dy="0" x="228.50083854871576" svgjs:data="{&quot;newLined&quot;:true}">PLAYER</tspan></text><image width="760" height="291" xlink:href="https://lct-designs.s3.us-west-1.amazonaws.com/assets/libs/angel2-soflball-banner-1639966281994.png" class="asset" transform="matrix(0.07354381680488586,0,0,0.07354381680488586,18.26511437490922,182.6910912600483)"></image><text fill="#00047a" font-family="Antilles" font-size="18" x="228.50083854871576" y="190.1439134699609" transform="matrix(0.9999999999999999,0,0,1,-203.6590179103318,-7.552742229483783)" svgjs:data="{&quot;leading&quot;:&quot;1.3&quot;}"><tspan dy="0" x="228.50083854871576" svgjs:data="{&quot;newLined&quot;:true}">PLAYER</tspan></text><image width="760" height="291" xlink:href="https://lct-designs.s3.us-west-1.amazonaws.com/assets/libs/angel2-soflball-banner-1639966281994.png" class="asset" transform="matrix(0.07354383915662766,0,0,0.07354383915662766,110.08558219926292,203.46106563392456)"></image><text fill="#00047a" font-family="Antilles" font-size="18" x="228.50083854871576" y="190.1439134699609" transform="matrix(0.9999999999999999,0,0,1,-111.83855008597811,13.217232025183165)" svgjs:data="{&quot;leading&quot;:&quot;1.3&quot;}"><tspan dy="0" x="228.50083854871576" svgjs:data="{&quot;newLined&quot;:true}">PLAYER</tspan></text><image width="760" height="291" xlink:href="https://lct-designs.s3.us-west-1.amazonaws.com/assets/libs/angel2-soflball-banner-1639966281994.png" class="asset" transform="matrix(0.07354385405778885,0,0,0.07354385405778885,23.159783099883274,243.11281547286538)"></image><text fill="#00047a" font-family="Antilles" font-size="18" x="228.50083854871576" y="190.1439134699609" transform="matrix(0.9999999999999999,0,0,1,-198.76436444414728,52.86898198333327)" svgjs:data="{&quot;leading&quot;:&quot;1.3&quot;}"><tspan dy="0" x="228.50083854871576" svgjs:data="{&quot;newLined&quot;:true}">PLAYER</tspan></text><image width="760" height="291" xlink:href="https://lct-designs.s3.us-west-1.amazonaws.com/assets/libs/angel2-soflball-banner-1639966281994.png" class="asset" transform="matrix(0.07354385405778885,0,0,0.07354385405778885,94.2104443970454,263.2533952967342)"></image><text fill="#00047a" font-family="Antilles" font-size="18" x="228.50083854871576" y="190.1439134699609" transform="matrix(0.9999999999999999,0,0,1,-127.71370314698515,73.00956180720206)" svgjs:data="{&quot;leading&quot;:&quot;1.3&quot;}"><tspan dy="0" x="228.50083854871576" svgjs:data="{&quot;newLined&quot;:true}">PLAYER</tspan></text><g class="mask" style="pointer-events: none;"><g><path fill="#BCBEC0" d="M-3642.4-2101.7v4589.1h7813.4v-4589.1H-3642.4z M500.5,67.2v233.3v66.7H0.5v-66.7V67.2V0.5h500V67.2z" transform="matrix(1,0,0,1,0,0)"></path><g transform="matrix(1,0,0,1,0,0)">
	<rect x="0.5" y="300.5" opacity="0.95" fill="#F1F2F2" width="500" height="66.7"></rect>
	<rect x="0.5" y="0.5" opacity="0.95" fill="#F1F2F2" width="500" height="66.7"></rect>
</g></g></g></svg>