<svg xmlns="http://www.w3.org/2000/svg" version="1.1" xmlns:xlink="http://www.w3.org/1999/xlink" xmlns:svgjs="http://svgjs.dev/svgjs" width="100%" height="100%" viewBox="1 1 499 365.70001220703125" preserveAspectRatio="none" data-info="{&quot;_id&quot;:4,&quot;name&quot;:&quot;POLE POCKET SOCCER BANNERS&quot;,&quot;information&quot;:&quot;- Size: 3’x5’\n- Material: heavy duty vinyl banner\n- Digitally printed on vinyl&quot;,&quot;price&quot;:&quot;95.00&quot;,&quot;sale_price&quot;:&quot;89.99&quot;,&quot;type&quot;:&quot;pole-pocket&quot;,&quot;cover&quot;:{&quot;key&quot;:&quot;assets/models/pole-1628062864266-1631924568908.png&quot;,&quot;url&quot;:&quot;https://lct-designs.s3.us-west-1.amazonaws.com/assets/models/pole-1628062864266-1631924568908.png&quot;},&quot;back&quot;:{&quot;key&quot;:&quot;assets/models/pole-1631924700152.svg&quot;,&quot;url&quot;:&quot;https://lct-designs.s3.us-west-1.amazonaws.com/assets/models/pole-1631924700152.svg&quot;},&quot;mask&quot;:{&quot;key&quot;:&quot;assets/models/pole-mask-1631925211715.svg&quot;,&quot;url&quot;:&quot;https://lct-designs.s3.us-west-1.amazonaws.com/assets/models/pole-mask-1631925211715.svg&quot;},&quot;pos&quot;:&quot;2&quot;,&quot;accessories&quot;:&quot;2,3&quot;}" style="background-color: white;"><g class="model" style="pointer-events: none;"><polygon fill="#FFFFFF" points="0.5,0.5 0.5,67.2 0.5,300.5 0.5,367.2 500.5,367.2 500.5,300.5 500.5,67.2 500.5,0.5 "></polygon></g><image width="760" height="556" xlink:href="https://lct-designs.s3.us-west-1.amazonaws.com/assets/libs/aquasox1-1640078513137.png" class="asset background locked" transform="matrix(0.6595323960558116,0,0,0.6595323960558116,0,0)"></image><text fill="#000000" font-family="Antilles Condensed" font-size="18" x="181.09200514031738" y="190.27647684680014" transform="matrix(0.9999999999999999,0,0,1,-173.74722807846138,-107.21267256774513)" svgjs:data="{&quot;leading&quot;:&quot;1.3&quot;}"><tspan dy="0" x="181.09200514031738" svgjs:data="{&quot;newLined&quot;:true}">COACH: COACH'S NAME</tspan></text><text fill="#000000" font-family="Antilles Condensed" font-size="18" x="150.4762367077002" y="190.27647684680014" transform="matrix(0.9999999999999999,0,0,1,-147.06969127266666,106.12224895126363)" svgjs:data="{&quot;leading&quot;:&quot;1.3&quot;}"><tspan dy="0" x="150.4762367077002" svgjs:data="{&quot;newLined&quot;:true}">TEAM MOM: TEAM MOM'S NAME</tspan></text><image width="673" height="760" xlink:href="https://lct-designs.s3.us-west-1.amazonaws.com/assets/libs/bird2-soflball-banner-1639966070671.png" class="asset" transform="matrix(-0.24799990653991696,0,0,0.2580736577510834,167.34256480165004,101.36864010598171)"></image><image width="760" height="217" xlink:href="https://lct-designs.s3.us-west-1.amazonaws.com/assets/libs/aquasox1-soflball-banner-1639966233828.png" class="asset" transform="matrix(0.3251456618309021,0,0,0.32514566183090204,189.47495071515277,72.85573032068393)"></image><g class="mask" style="pointer-events: none;"><g><path fill="#BCBEC0" d="M-3642.4-2101.7v4589.1h7813.4v-4589.1H-3642.4z M500.5,67.2v233.3v66.7H0.5v-66.7V67.2V0.5h500V67.2z" transform="matrix(1,0,0,1,0,0)"></path><g transform="matrix(1,0,0,1,0,0)">
	<rect x="0.5" y="300.5" opacity="0.95" fill="#F1F2F2" width="500" height="66.7"></rect>
	<rect x="0.5" y="0.5" opacity="0.95" fill="#F1F2F2" width="500" height="66.7"></rect>
</g></g></g><text fill="#000000" font-family="Antilles Condensed" font-size="15" x="228.50083854871576" y="190.1439134699609" transform="matrix(0.9999999999999999,0,0,1,-73.35093907567669,7.3730995468228855)" svgjs:data="{&quot;leading&quot;:&quot;1.3&quot;}"><tspan dy="0" x="228.50083854871576" svgjs:data="{&quot;newLined&quot;:true}">PLAYER</tspan></text><image width="749" height="760" xlink:href="https://lct-designs.s3.us-west-1.amazonaws.com/assets/libs/aquasox1-soflball-banner-1639966281995.png" class="asset" transform="matrix(0.039841704070568085,0,0,0.039841704070568085,155.1784103863956,214.91077300640248)"></image><text fill="#000000" font-family="Antilles Condensed" font-size="15" x="228.50083854871576" y="190.1439134699609" transform="matrix(0.9999999999999999,0,0,1,-18.664368232022753,7.3730995468228855)" svgjs:data="{&quot;leading&quot;:&quot;1.3&quot;}"><tspan dy="0" x="228.50083854871576" svgjs:data="{&quot;newLined&quot;:true}">PLAYER</tspan></text><image width="749" height="760" xlink:href="https://lct-designs.s3.us-west-1.amazonaws.com/assets/libs/aquasox1-soflball-banner-1639966281995.png" class="asset" transform="matrix(0.03984169661998749,0,0,0.03984169661998748,209.86496597126003,154.48875887658463)"></image><image width="749" height="760" xlink:href="https://lct-designs.s3.us-west-1.amazonaws.com/assets/libs/aquasox1-soflball-banner-1639966281995.png" class="asset" transform="matrix(0.03984168916940689,0,0,0.03984168916940689,209.86498123004955,214.91077300640248)"></image><text fill="#000000" font-family="Antilles Condensed" font-size="15" x="228.50083854871576" y="190.1439134699609" transform="matrix(0.9999999999999999,0,0,1,-18.664345343838477,67.79511463031506)" svgjs:data="{&quot;leading&quot;:&quot;1.3&quot;}"><tspan dy="0" x="228.50083854871576" svgjs:data="{&quot;newLined&quot;:true}">PLAYER</tspan></text><text fill="#000000" font-family="Antilles Condensed" font-size="15" x="228.50083854871576" y="190.1439134699609" transform="matrix(0.9999999999999999,0,0,1,37.2809592867183,7.3730995468228855)" svgjs:data="{&quot;leading&quot;:&quot;1.3&quot;}"><tspan dy="0" x="228.50083854871576" svgjs:data="{&quot;newLined&quot;:true}">PLAYER</tspan></text><image width="749" height="760" xlink:href="https://lct-designs.s3.us-west-1.amazonaws.com/assets/libs/aquasox1-soflball-banner-1639966281995.png" class="asset" transform="matrix(0.03984168916940689,0,0,0.03984168916940689,265.8102953973498,154.48875887658463)"></image><image width="749" height="760" xlink:href="https://lct-designs.s3.us-west-1.amazonaws.com/assets/libs/aquasox1-soflball-banner-1639966281995.png" class="asset" transform="matrix(0.0398416742682457,0,0,0.039841674268245704,265.81031065613934,214.91077300640248)"></image><text fill="#000000" font-family="Antilles Condensed" font-size="15" x="228.50083854871576" y="190.1439134699609" transform="matrix(0.9999999999999999,0,0,1,37.280982174902576,67.79511463031506)" svgjs:data="{&quot;leading&quot;:&quot;1.3&quot;}"><tspan dy="0" x="228.50083854871576" svgjs:data="{&quot;newLined&quot;:true}">PLAYER</tspan></text><text fill="#000000" font-family="Antilles Condensed" font-size="15" x="228.50083854871576" y="190.1439134699609" transform="matrix(0.9999999999999999,0,0,1,90.84918483642285,8.002494096830304)" svgjs:data="{&quot;leading&quot;:&quot;1.3&quot;}"><tspan dy="0" x="228.50083854871576" svgjs:data="{&quot;newLined&quot;:true}">PLAYER</tspan></text><image width="749" height="760" xlink:href="https://lct-designs.s3.us-west-1.amazonaws.com/assets/libs/aquasox1-soflball-banner-1639966281995.png" class="asset" transform="matrix(0.03984169661998749,0,0,0.03984169661998748,319.37854955728466,155.118153426592)"></image><image width="749" height="760" xlink:href="https://lct-designs.s3.us-west-1.amazonaws.com/assets/libs/aquasox1-soflball-banner-1639966281995.png" class="asset" transform="matrix(0.03984168916940689,0,0,0.03984168916940689,319.37854955728466,215.5401675564099)"></image><text fill="#000000" font-family="Antilles Condensed" font-size="15" x="228.50083854871576" y="190.1439134699609" transform="matrix(0.9999999999999999,0,0,1,90.84920772460713,68.42450918032247)" svgjs:data="{&quot;leading&quot;:&quot;1.3&quot;}"><tspan dy="0" x="228.50083854871576" svgjs:data="{&quot;newLined&quot;:true}">PLAYER</tspan></text><text fill="#000000" font-family="Antilles Condensed" font-size="15" x="228.50083854871576" y="190.1439134699609" transform="matrix(0.9999999999999999,0,0,1,145.53575568007682,8.002494096830304)" svgjs:data="{&quot;leading&quot;:&quot;1.3&quot;}"><tspan dy="0" x="228.50083854871576" svgjs:data="{&quot;newLined&quot;:true}">PLAYER</tspan></text><image width="749" height="760" xlink:href="https://lct-designs.s3.us-west-1.amazonaws.com/assets/libs/aquasox1-soflball-banner-1639966281995.png" class="asset" transform="matrix(0.03984168916940689,0,0,0.03984168916940689,374.0651051421491,155.118153426592)"></image><image width="749" height="760" xlink:href="https://lct-designs.s3.us-west-1.amazonaws.com/assets/libs/aquasox1-soflball-banner-1639966281995.png" class="asset" transform="matrix(0.0398416742682457,0,0,0.039841674268245704,374.0651356597281,215.5401675564099)"></image><text fill="#000000" font-family="Antilles Condensed" font-size="15" x="228.50083854871576" y="190.1439134699609" transform="matrix(0.9999999999999999,0,0,1,145.53577856826107,68.42450918032247)" svgjs:data="{&quot;leading&quot;:&quot;1.3&quot;}"><tspan dy="0" x="228.50083854871576" svgjs:data="{&quot;newLined&quot;:true}">PLAYER</tspan></text><text fill="#000000" font-family="Antilles Condensed" font-size="15" x="228.50083854871576" y="190.1439134699609" transform="matrix(0.9999999999999999,0,0,1,201.48108510616657,8.002494096830304)" svgjs:data="{&quot;leading&quot;:&quot;1.3&quot;}"><tspan dy="0" x="228.50083854871576" svgjs:data="{&quot;newLined&quot;:true}">PLAYER</tspan></text><image width="749" height="760" xlink:href="https://lct-designs.s3.us-west-1.amazonaws.com/assets/libs/aquasox1-soflball-banner-1639966281995.png" class="asset" transform="matrix(0.0398416742682457,0,0,0.039841674268245704,430.01044982702837,155.118153426592)"></image><image width="749" height="760" xlink:href="https://lct-designs.s3.us-west-1.amazonaws.com/assets/libs/aquasox1-soflball-banner-1639966281995.png" class="asset" transform="matrix(0.0398416668176651,0,0,0.0398416668176651,430.0104803446074,215.5401675564099)"></image><text fill="#000000" font-family="Antilles Condensed" font-size="15" x="228.50083854871576" y="190.1439134699609" transform="matrix(0.9999999999999999,0,0,1,201.4811156237456,68.42450918032247)" svgjs:data="{&quot;leading&quot;:&quot;1.3&quot;}"><tspan dy="0" x="228.50083854871576" svgjs:data="{&quot;newLined&quot;:true}">PLAYER</tspan></text><text fill="#000000" font-family="Antilles Condensed" font-size="15" x="228.50083854871576" y="190.1439134699609" transform="matrix(0.9999999999999999,0,0,1,-73.35091618749243,67.79511463031506)" svgjs:data="{&quot;leading&quot;:&quot;1.3&quot;}"><tspan dy="0" x="228.50083854871576" svgjs:data="{&quot;newLined&quot;:true}">PLAYER</tspan></text><image width="749" height="760" xlink:href="https://lct-designs.s3.us-west-1.amazonaws.com/assets/libs/aquasox1-soflball-banner-1639966281995.png" class="asset" transform="matrix(0.039841733872890465,0,0,0.03984173387289047,156.4371689688314,154.48875887658463)"></image></svg>