<svg xmlns="http://www.w3.org/2000/svg" version="1.1" xmlns:xlink="http://www.w3.org/1999/xlink" xmlns:svgjs="http://svgjs.dev/svgjs" width="100%" height="100%" viewBox="1 1 499 299" preserveAspectRatio="none" data-info="{&quot;_id&quot;:1,&quot;name&quot;:&quot;HEM &amp; GROMMETS&quot;,&quot;price&quot;:&quot;95.00&quot;,&quot;sale_price&quot;:&quot;89.99&quot;,&quot;cover&quot;:{&quot;key&quot;:&quot;assets/models/hem-1628062436886-1630830942566.png&quot;,&quot;url&quot;:&quot;https://lct-designs.s3.us-west-1.amazonaws.com/assets/models/hem-1628062436886-1630830942566.png&quot;},&quot;back&quot;:{&quot;key&quot;:&quot;assets/models/hem-1630831057346.svg&quot;,&quot;url&quot;:&quot;https://lct-designs.s3.us-west-1.amazonaws.com/assets/models/hem-1630831057346.svg&quot;},&quot;mask&quot;:{&quot;key&quot;:&quot;assets/models/hem.mask-1630831063496.svg&quot;,&quot;url&quot;:&quot;https://lct-designs.s3.us-west-1.amazonaws.com/assets/models/hem.mask-1630831063496.svg&quot;},&quot;information&quot;:&quot;Size 3'x5'&quot;,&quot;type&quot;:&quot;hem-grommet&quot;,&quot;pos&quot;:&quot;1&quot;,&quot;accessories&quot;:&quot;2,3&quot;,&quot;width&quot;:&quot;60&quot;,&quot;height&quot;:&quot;36&quot;}" style="background-color: white;"><g class="model" style="pointer-events: none;"><rect x="0.5" y="0.5" fill="none" stroke="#000000" stroke-miterlimit="10" width="500" height="300"></rect></g><image width="760" height="455" xlink:href="https://lct-designs.s3.us-west-1.amazonaws.com/assets/libs/polar-bears-4-1658221650485.png" class="asset background locked" transform="matrix(0.6593406593406593,0,0,0.6593406593406593,0,0)"></image><text fill="#f3f1f1" font-family="Berlin Sans FB" font-size="10" x="188.33270220293844" y="153.77954406206763" transform="matrix(1.3174619674682617,0,0,1.3174619674682617,-49.93816375732419,-176.53140258789062)" svgjs:data="{&quot;leading&quot;:&quot;1.3&quot;}"><tspan dy="0" x="188.33270220293844" svgjs:data="{&quot;newLined&quot;:true}">COACH JACQUELINE</tspan></text><text fill="#f2eded" font-family="Berlin Sans FB" font-size="10" x="167.35035525097692" y="153.77954406206763" transform="matrix(1.3174619674682617,0,0,1.3174619674682617,164.5995178222656,-177.8384246826172)" svgjs:data="{&quot;leading&quot;:&quot;1.3&quot;}"><tspan dy="0" x="167.35035525097692" svgjs:data="{&quot;newLined&quot;:true}">COACH HEATHER</tspan></text><g class="" transform="matrix(0.9999999999999999,0,0,0.9999999999999999,0,0)"><text fill="#0d0d0d" font-family="Matias" font-size="11" x="222.0258155299648" y="155.04090899889624" stroke-opacity="1" stroke-width="0" stroke="#000000" transform="matrix(1.333100080490112,0,0,1.333100080490112,-113.98910522460936,-97.25115966796875)" svgjs:data="{&quot;leading&quot;:&quot;1.3&quot;}"><tspan dy="0" x="222.0258155299648" svgjs:data="{&quot;newLined&quot;:true}">EMMALIA</tspan></text><image width="760" height="726" xlink:href="https://lct-designs.s3.us-west-1.amazonaws.com/assets/libs/astros-baseball-banner-1645065401729.png" class="asset" transform="matrix(0.06385515630245207,0,0,0.06385515630245209,183.26356506347656,50.27445220947264)"></image></g><text fill="#2b51c5" font-family="Berlin Sans FB" font-size="45" x="109.31649032443823" y="166.03191505689227" transform="matrix(0.9999999999999999,0,0,0.9999999999999999,-96.17019653320312,-105.53195190429688)" svgjs:data="{&quot;leading&quot;:&quot;1.3&quot;}"><tspan dy="0" x="109.31649032443823" svgjs:data="{&quot;newLined&quot;:true}">ARCTIC </tspan><tspan dy="58.5" x="109.31649032443823" svgjs:data="{&quot;newLined&quot;:true}">FOXES</tspan></text><g class="" transform="matrix(0.9999999999999999,0,0,0.9999999999999999,0.000015258790874383976,0)"><image width="760" height="726" xlink:href="https://lct-designs.s3.us-west-1.amazonaws.com/assets/libs/astros-baseball-banner-1645065401729.png" class="asset" transform="matrix(0.06385515630245207,0,0,0.06385515630245209,141.3486633300781,137.0829620361328)"></image><text fill="#050505" font-family="Matias" font-size="11" x="222.0258155299648" y="155.04090899889624" stroke-opacity="1" stroke-width="0" stroke="#000000" transform="matrix(1.333100080490112,0,0,1.333100080490112,-147.39337158203125,-10.868220329284668)" svgjs:data="{&quot;leading&quot;:&quot;1.3&quot;}"><tspan dy="0" x="222.0258155299648" svgjs:data="{&quot;newLined&quot;:true}">MARY</tspan></text></g><g class="" transform="matrix(0.9999999999999999,0,0,0.9999999999999999,-1.276580810546875,-2.978729248046882)"><image width="760" height="726" xlink:href="https://lct-designs.s3.us-west-1.amazonaws.com/assets/libs/astros-baseball-banner-1645065401729.png" class="asset" transform="matrix(0.06385515630245207,0,0,0.06385515630245209,370.4738159179687,51.793556213378906)"></image><text fill="#0a0a0a" font-family="Matias" font-size="11" x="222.0258155299648" y="155.04090899889624" stroke-opacity="1" stroke-width="0" stroke="#000000" transform="matrix(1.333100080490112,0,0,1.333100080490112,85.15982818603513,-95.97457122802734)" svgjs:data="{&quot;leading&quot;:&quot;1.3&quot;}"><tspan dy="0" x="222.0258155299648" svgjs:data="{&quot;newLined&quot;:true}">LUCY</tspan></text></g><g class="" transform="matrix(0.9999999999999999,0,0,0.9999999999999999,-5.957427978515611,4.6808319091796875)"><image width="760" height="726" xlink:href="https://lct-designs.s3.us-west-1.amazonaws.com/assets/libs/astros-baseball-banner-1645065401729.png" class="asset" transform="matrix(0.06385515630245207,0,0,0.06385515630245209,241.30525207519526,132.9673309326172)"></image><text fill="#0a0a0a" font-family="Matias" font-size="11" x="222.0258155299648" y="155.04090899889624" stroke-opacity="1" stroke-width="0" stroke="#000000" transform="matrix(1.333100080490112,0,0,1.333100080490112,-57.39337158203125,-14.697965621948242)" svgjs:data="{&quot;leading&quot;:&quot;1.3&quot;}"><tspan dy="0" x="222.0258155299648" svgjs:data="{&quot;newLined&quot;:true}">MELANNA</tspan></text></g><g class="" transform="matrix(0.9999999999999999,0,0,0.9999999999999999,0,0)"><image width="760" height="726" xlink:href="https://lct-designs.s3.us-west-1.amazonaws.com/assets/libs/astros-baseball-banner-1645065401729.png" class="asset" transform="matrix(0.06385515630245207,0,0,0.06385515630245209,278.0942077636718,49.07867431640625)"></image><text fill="#0d0d0d" font-family="Matias" font-size="11" x="222.0258155299648" y="155.04090899889624" stroke-opacity="1" stroke-width="0" stroke="#000000" transform="matrix(1.333100080490112,0,0,1.333100080490112,-14.627304077148445,-98.10224151611327)" svgjs:data="{&quot;leading&quot;:&quot;1.3&quot;}"><tspan dy="0" x="222.0258155299648" svgjs:data="{&quot;newLined&quot;:true}">KRISHA</tspan></text></g><g class="" transform="matrix(0.9999999999999999,0,0,0.9999999999999999,102.55319213867188,-2.1276397705078125)"><image width="760" height="726" xlink:href="https://lct-designs.s3.us-west-1.amazonaws.com/assets/libs/astros-baseball-banner-1645065401729.png" class="asset" transform="matrix(0.06385515630245207,0,0,0.06385515630245209,82.62763977050781,222.10794067382807)"></image><text fill="#050505" font-family="Matias" font-size="11" x="222.0258155299648" y="155.04090899889624" stroke-opacity="1" stroke-width="0" stroke="#000000" transform="matrix(1.333100080490112,0,0,1.333100080490112,-204.41465759277344,74.23818206787108)" svgjs:data="{&quot;leading&quot;:&quot;1.3&quot;}"><tspan dy="0" x="222.0258155299648" svgjs:data="{&quot;newLined&quot;:true}">RUBY</tspan></text></g><g class="" transform="matrix(0.9999999999999999,0,0,0.9999999999999999,0.4255371093749929,6.8085174560546875)"><image width="760" height="726" xlink:href="https://lct-designs.s3.us-west-1.amazonaws.com/assets/libs/astros-baseball-banner-1645065401729.png" class="asset" transform="matrix(0.06385515630245207,0,0,0.06385515630245209,377.2847290039062,215.11639404296875)"></image><text fill="#050505" font-family="Matias" font-size="11" x="222.0258155299648" y="155.04090899889624" stroke-opacity="1" stroke-width="0" stroke="#000000" transform="matrix(1.333100080490112,0,0,1.333100080490112,85.159912109375,66.15298461914061)" svgjs:data="{&quot;leading&quot;:&quot;1.3&quot;}"><tspan dy="0" x="222.0258155299648" svgjs:data="{&quot;newLined&quot;:true}">SHELBY</tspan></text></g><g class="" transform="matrix(0.9999999999999999,0,0,0.9999999999999999,-4.255310058593736,4.25531005859375)"><image width="760" height="726" xlink:href="https://lct-designs.s3.us-west-1.amazonaws.com/assets/libs/astros-baseball-banner-1645065401729.png" class="asset" transform="matrix(0.06385515630245207,0,0,0.06385515630245209,333.8583984375,134.24391174316406)"></image><text fill="#080808" font-family="Matias" font-size="11" x="222.0258155299648" y="155.04090899889624" stroke-opacity="1" stroke-width="0" stroke="#000000" transform="matrix(1.333100080490112,0,0,1.333100080490112,44.521572113037095,-13.84694766998291)" svgjs:data="{&quot;leading&quot;:&quot;1.3&quot;}"><tspan dy="0" x="222.0258155299648" svgjs:data="{&quot;newLined&quot;:true}">OLIVIA</tspan></text></g><g class="" transform="matrix(0.9999999999999999,0,0,0.9999999999999999,13.617023468017578,-3.8297882080078125)"><image width="760" height="726" xlink:href="https://lct-designs.s3.us-west-1.amazonaws.com/assets/libs/astros-baseball-banner-1645065401729.png" class="asset" transform="matrix(0.06385515630245207,0,0,0.06385515630245209,34.071136474609375,140.6269073486328)"></image><text fill="#0d0d0d" font-family="Matias" font-size="11" x="222.0258155299648" y="155.04090899889624" stroke-opacity="1" stroke-width="0" stroke="#000000" transform="matrix(1.333100080490112,0,0,1.333100080490112,-268.4571838378906,-7.463947772979736)" svgjs:data="{&quot;leading&quot;:&quot;1.3&quot;}"><tspan dy="0" x="222.0258155299648" svgjs:data="{&quot;newLined&quot;:true}">MACKENZIE</tspan></text></g><g class="" transform="matrix(0.9999999999999999,0,0,0.9999999999999999,-90.21276855468747,-4.255340576171882)"><image width="760" height="726" xlink:href="https://lct-designs.s3.us-west-1.amazonaws.com/assets/libs/astros-baseball-banner-1645065401729.png" class="asset" transform="matrix(0.06385515630245207,0,0,0.06385515630245209,184.2667694091797,223.46536254882807)"></image><text fill="#0a0a0a" font-family="Matias" font-size="11" x="222.0258155299648" y="155.04090899889624" stroke-opacity="1" stroke-width="0" stroke="#000000" transform="matrix(1.333100080490112,0,0,1.333100080490112,-104.6273422241211,75.94029235839842)" svgjs:data="{&quot;leading&quot;:&quot;1.3&quot;}"><tspan dy="0" x="222.0258155299648" svgjs:data="{&quot;newLined&quot;:true}">REYVA</tspan></text></g><g class="" transform="matrix(0.9999999999999999,0,0,0.9999999999999999,0,0)"></g><g class="" transform="matrix(0.9999999999999999,0,0,0.9999999999999999,-0.8510741591453552,0.425537109375)"><image width="760" height="726" xlink:href="https://lct-designs.s3.us-west-1.amazonaws.com/assets/libs/astros-baseball-banner-1645065401729.png" class="asset" transform="matrix(0.06385515630245207,0,0,0.06385515630245209,283.4548645019531,218.94618225097656)"></image><text fill="#050505" font-family="Matias" font-size="11" x="222.0258155299648" y="155.04090899889624" stroke-opacity="1" stroke-width="0" stroke="#000000" transform="matrix(1.333100080490112,0,0,1.333100080490112,-9.095525741577156,70.83390808105467)" svgjs:data="{&quot;leading&quot;:&quot;1.3&quot;}"><tspan dy="0" x="222.0258155299648" svgjs:data="{&quot;newLined&quot;:true}">SALOME</tspan></text></g><image width="501" height="760" xlink:href="https://lct-designs.s3.us-west-1.amazonaws.com/assets/libs/foxes-kickin-soccer-banner-1-1649238994202.png" class="asset" transform="matrix(0.14346994459629056,0,0,0.13997754454612732,420.44375610351557,110.63827514648436)"></image><g class="mask" style="pointer-events: none;"><path fill="#777777" enable-background="new    " d="M-1684.9-1014.6v2330.1h3870.8v-2330.1H-1684.9z M500.5,300.5H0.5V0.5h500
	V300.5z"></path></g></svg>