<svg xmlns="http://www.w3.org/2000/svg" version="1.1" xmlns:xlink="http://www.w3.org/1999/xlink" xmlns:svgjs="http://svgjs.dev/svgjs" width="100%" height="100%" viewBox="1 1 499 365.70001220703125" preserveAspectRatio="none" data-info="{&quot;_id&quot;:4,&quot;name&quot;:&quot;POLE POCKET SOCCER BANNERS&quot;,&quot;information&quot;:&quot;- Size: 3’x5’\n- Material: heavy duty vinyl banner\n- Digitally printed on vinyl&quot;,&quot;price&quot;:&quot;95.00&quot;,&quot;sale_price&quot;:&quot;89.99&quot;,&quot;type&quot;:&quot;pole-pocket&quot;,&quot;cover&quot;:{&quot;key&quot;:&quot;assets/models/pole-1628062864266-1631924568908.png&quot;,&quot;url&quot;:&quot;https://lct-designs.s3.us-west-1.amazonaws.com/assets/models/pole-1628062864266-1631924568908.png&quot;},&quot;back&quot;:{&quot;key&quot;:&quot;assets/models/pole-1631924700152.svg&quot;,&quot;url&quot;:&quot;https://lct-designs.s3.us-west-1.amazonaws.com/assets/models/pole-1631924700152.svg&quot;},&quot;mask&quot;:{&quot;key&quot;:&quot;assets/models/pole-mask-1631925211715.svg&quot;,&quot;url&quot;:&quot;https://lct-designs.s3.us-west-1.amazonaws.com/assets/models/pole-mask-1631925211715.svg&quot;},&quot;pos&quot;:&quot;2&quot;,&quot;accessories&quot;:&quot;2,3&quot;}" style="background-color: white;"><g class="model" style="pointer-events: none;"><polygon fill="#FFFFFF" points="0.5,0.5 0.5,67.2 0.5,300.5 0.5,367.2 500.5,367.2 500.5,300.5 500.5,67.2 500.5,0.5 "></polygon></g><image width="760" height="556" xlink:href="https://lct-designs.s3.us-west-1.amazonaws.com/assets/libs/philadelphia-phillies-2-1720581049238.png" class="asset background locked" transform="matrix(0.6595323960558116,0,0,0.6595323960558116,0,0)"></image><text fill="#ffffff" font-family="Cooper" font-size="45" stroke-opacity="1" stroke-width="0" stroke="#ffffff" x="187.88715269305678" y="200.64758809656152" transform="matrix(0.3249327540397644,0,0,0.32493275403976446,283.8853759765625,21.591480255126953)" svgjs:data="{&quot;leading&quot;:&quot;1.3&quot;}"><tspan dy="0" x="187.88715269305678" svgjs:data="{&quot;newLined&quot;:true}">Coach: Coach name</tspan></text><text fill="#ffffff" font-family="Cooper" font-size="45" stroke-opacity="1" stroke-width="0" stroke="#ffffff" x="187.88715269305678" y="200.64758809656152" transform="matrix(0.3249327540397644,0,0,0.32493275403976446,-46.0522346496582,22.160871505737305)" svgjs:data="{&quot;leading&quot;:&quot;1.3&quot;}"><tspan dy="0" x="187.88715269305678" svgjs:data="{&quot;newLined&quot;:true}">Team mom: Name</tspan></text><text fill="#ffffff" font-family="Cooper" font-size="45" stroke-opacity="1" stroke-width="0" stroke="#ffffff" x="187.88715269305678" y="200.64758809656152" transform="matrix(0.24171063303947452,0,0,0.24171063303947452,-30.24740600585938,57.45140075683594)" svgjs:data="{&quot;leading&quot;:&quot;1.3&quot;}"><tspan dy="0" x="187.88715269305678" svgjs:data="{&quot;newLined&quot;:true}">PLAYER</tspan></text><image width="760" height="532" xlink:href="https://lct-designs.s3.us-west-1.amazonaws.com/assets/libs/phillies-5-softball-banner-1640683677760.png" class="asset" transform="matrix(0.049165911972522736,0,0,0.04916591197252274,22.913543701171882,110.19955444335938)"></image><text fill="#ffffff" font-family="Cooper" font-size="45" stroke-opacity="1" stroke-width="0" stroke="#ffffff" x="187.88715269305678" y="200.64758809656152" transform="matrix(0.24171063303947452,0,0,0.24171063303947452,-34.4119987487793,142.86289978027344)" svgjs:data="{&quot;leading&quot;:&quot;1.3&quot;}"><tspan dy="0" x="187.88715269305678" svgjs:data="{&quot;newLined&quot;:true}">PLAYER</tspan></text><image width="760" height="532" xlink:href="https://lct-designs.s3.us-west-1.amazonaws.com/assets/libs/phillies-5-softball-banner-1640683677760.png" class="asset" transform="matrix(0.04916594922542573,0,0,0.04916594922542573,18.748950958251946,195.6110534667969)"></image><text fill="#ffffff" font-family="Cooper" font-size="45" stroke-opacity="1" stroke-width="0" stroke="#ffffff" x="187.88715269305678" y="200.64758809656152" transform="matrix(0.24171063303947452,0,0,0.24171063303947452,-31.244915008544925,214.60855102539065)" svgjs:data="{&quot;leading&quot;:&quot;1.3&quot;}"><tspan dy="0" x="187.88715269305678" svgjs:data="{&quot;newLined&quot;:true}">PLAYER</tspan></text><image width="760" height="532" xlink:href="https://lct-designs.s3.us-west-1.amazonaws.com/assets/libs/phillies-5-softball-banner-1640683677760.png" class="asset" transform="matrix(0.04916595667600632,0,0,0.04916595667600632,21.91603469848632,267.35670471191406)"></image><text fill="#ffffff" font-family="Cooper" font-size="45" stroke-opacity="1" stroke-width="0" stroke="#ffffff" x="187.88715269305678" y="200.64758809656152" transform="matrix(0.2417106330394745,0,0,0.2417106330394745,300.2222858094194,65.42314055778668)" svgjs:data="{&quot;leading&quot;:&quot;1.3&quot;}"><tspan dy="0" x="187.88715269305678" svgjs:data="{&quot;newLined&quot;:true}">PLAYER</tspan></text><image width="760" height="532" xlink:href="https://lct-designs.s3.us-west-1.amazonaws.com/assets/libs/phillies-5-softball-banner-1640683677760.png" class="asset" transform="matrix(0.04916598647832871,0,0,0.049165986478328705,353.3832347674995,118.1712782423857)"></image><text fill="#ffffff" font-family="Cooper" font-size="45" stroke-opacity="1" stroke-width="0" stroke="#ffffff" x="187.88715269305678" y="200.64758809656152" transform="matrix(0.2417106330394745,0,0,0.2417106330394745,303.38940002261245,129.76644714641145)" svgjs:data="{&quot;leading&quot;:&quot;1.3&quot;}"><tspan dy="0" x="187.88715269305678" svgjs:data="{&quot;newLined&quot;:true}">PLAYER</tspan></text><image width="760" height="532" xlink:href="https://lct-designs.s3.us-west-1.amazonaws.com/assets/libs/phillies-5-softball-banner-1640683677760.png" class="asset" transform="matrix(0.0491660013794899,0,0,0.0491660013794899,356.55034898069243,182.5145848310105)"></image><text fill="#ffffff" font-family="Cooper" font-size="45" stroke-opacity="1" stroke-width="0" stroke="#ffffff" x="187.88715269305678" y="200.64758809656152" transform="matrix(0.2417106330394745,0,0,0.2417106330394745,290.6130024975329,194.67919647603713)" svgjs:data="{&quot;leading&quot;:&quot;1.3&quot;}"><tspan dy="0" x="187.88715269305678" svgjs:data="{&quot;newLined&quot;:true}">PLAYER</tspan></text><image width="760" height="532" xlink:href="https://lct-designs.s3.us-west-1.amazonaws.com/assets/libs/phillies-5-softball-banner-1640683677760.png" class="asset" transform="matrix(0.0491660013794899,0,0,0.0491660013794899,343.773951455613,247.42733416063612)"></image><text fill="#ffffff" font-family="Cooper" font-size="45" stroke-opacity="1" stroke-width="0" stroke="#ffffff" x="187.88715269305678" y="200.64758809656152" transform="matrix(0.24171063303947452,0,0,0.24171063303947452,394.4949340820313,65.42314147949219)" svgjs:data="{&quot;leading&quot;:&quot;1.3&quot;}"><tspan dy="0" x="187.88715269305678" svgjs:data="{&quot;newLined&quot;:true}">PLAYER</tspan></text><image width="760" height="532" xlink:href="https://lct-designs.s3.us-west-1.amazonaws.com/assets/libs/phillies-5-softball-banner-1640683677760.png" class="asset" transform="matrix(0.049165986478328705,0,0,0.04916598647832871,447.6558837890625,118.17127990722656)"></image><text fill="#ffffff" font-family="Cooper" font-size="45" stroke-opacity="1" stroke-width="0" stroke="#ffffff" x="187.88715269305678" y="200.64758809656152" transform="matrix(0.24171063303947452,0,0,0.24171063303947452,397.6620483398438,129.76644897460938)" svgjs:data="{&quot;leading&quot;:&quot;1.3&quot;}"><tspan dy="0" x="187.88715269305678" svgjs:data="{&quot;newLined&quot;:true}">PLAYER</tspan></text><image width="760" height="532" xlink:href="https://lct-designs.s3.us-west-1.amazonaws.com/assets/libs/phillies-5-softball-banner-1640683677760.png" class="asset" transform="matrix(0.049166001379489906,0,0,0.049166001379489906,450.822998046875,182.51458740234378)"></image><text fill="#ffffff" font-family="Cooper" font-size="45" stroke-opacity="1" stroke-width="0" stroke="#ffffff" x="187.88715269305678" y="200.64758809656152" transform="matrix(0.24171063303947452,0,0,0.24171063303947452,384.8856506347656,194.67919921875003)" svgjs:data="{&quot;leading&quot;:&quot;1.3&quot;}"><tspan dy="0" x="187.88715269305678" svgjs:data="{&quot;newLined&quot;:true}">PLAYER</tspan></text><image width="760" height="532" xlink:href="https://lct-designs.s3.us-west-1.amazonaws.com/assets/libs/phillies-5-softball-banner-1640683677760.png" class="asset" transform="matrix(0.049166001379489906,0,0,0.049166001379489906,438.04660034179693,247.4273376464844)"></image><image width="562" height="760" xlink:href="https://lct-designs.s3.us-west-1.amazonaws.com/assets/libs/philadelphia-phillies-5-1720581049238.png" class="asset" transform="matrix(0.22793240845203402,0,0,0.227932408452034,181.9594395751597,98.95428327386402)"></image><text fill="#ffffff" font-family="Cooper" font-size="45" stroke-opacity="1" stroke-width="0" stroke="#ffffff" x="187.88715269305678" y="200.64758809656152" transform="matrix(0.2417106330394745,0,0,0.2417106330394745,62.242079811587075,67.08744717496431)" svgjs:data="{&quot;leading&quot;:&quot;1.3&quot;}"><tspan dy="0" x="187.88715269305678" svgjs:data="{&quot;newLined&quot;:true}">PLAYER</tspan></text><image width="760" height="532" xlink:href="https://lct-designs.s3.us-west-1.amazonaws.com/assets/libs/phillies-5-softball-banner-1640683677760.png" class="asset" transform="matrix(0.04916599392890931,0,0,0.0491659939289093,115.40302876966706,119.8355848595633)"></image><text fill="#ffffff" font-family="Cooper" font-size="45" stroke-opacity="1" stroke-width="0" stroke="#ffffff" x="187.88715269305678" y="200.64758809656152" transform="matrix(0.2417106330394745,0,0,0.2417106330394745,65.4091940247801,131.43075376358905)" svgjs:data="{&quot;leading&quot;:&quot;1.3&quot;}"><tspan dy="0" x="187.88715269305678" svgjs:data="{&quot;newLined&quot;:true}">PLAYER</tspan></text><image width="760" height="532" xlink:href="https://lct-designs.s3.us-west-1.amazonaws.com/assets/libs/phillies-5-softball-banner-1640683677760.png" class="asset" transform="matrix(0.049166008830070496,0,0,0.049166008830070496,118.57014298286009,184.1788914481881)"></image><text fill="#ffffff" font-family="Cooper" font-size="45" stroke-opacity="1" stroke-width="0" stroke="#ffffff" x="187.88715269305678" y="200.64758809656152" transform="matrix(0.2417106330394745,0,0,0.2417106330394745,52.63279649970053,196.3435030932148)" svgjs:data="{&quot;leading&quot;:&quot;1.3&quot;}"><tspan dy="0" x="187.88715269305678" svgjs:data="{&quot;newLined&quot;:true}">PLAYER</tspan></text><image width="760" height="532" xlink:href="https://lct-designs.s3.us-west-1.amazonaws.com/assets/libs/phillies-5-softball-banner-1640683677760.png" class="asset" transform="matrix(0.049166008830070496,0,0,0.049166008830070496,105.79374545778057,249.09164077781378)"></image><g class="mask" style="pointer-events: none;"><g><path fill="#BCBEC0" d="M-3642.4-2101.7v4589.1h7813.4v-4589.1H-3642.4z M500.5,67.2v233.3v66.7H0.5v-66.7V67.2V0.5h500V67.2z" transform="matrix(1,0,0,1,0,0)"></path><g transform="matrix(1,0,0,1,0,0)">
	<rect x="0.5" y="300.5" opacity="0.95" fill="#F1F2F2" width="500" height="66.7"></rect>
	<rect x="0.5" y="0.5" opacity="0.95" fill="#F1F2F2" width="500" height="66.7"></rect>
</g></g></g></svg>