<?xml version="1.0" encoding="utf-8"?>
<!-- Generator: Adobe Illustrator 16.0.0, SVG Export Plug-In . SVG Version: 6.00 Build 0)  -->
<!DOCTYPE svg PUBLIC "-//W3C//DTD SVG 1.1//EN" "http://www.w3.org/Graphics/SVG/1.1/DTD/svg11.dtd">
<svg version="1.1" id="Layer_1" xmlns="http://www.w3.org/2000/svg" xmlns:xlink="http://www.w3.org/1999/xlink" x="0px" y="0px"
	 width="1224px" height="1224px" viewBox="0 0 1224 1224" enable-background="new 0 0 1224 1224" xml:space="preserve">
<metadata><?xpacket begin="﻿" id="W5M0MpCehiHzreSzNTczkc9d"?>
<x:xmpmeta xmlns:x="adobe:ns:meta/" x:xmptk="Adobe XMP Core 5.3-c011 66.145661, 2012/02/06-14:56:27        ">
   <rdf:RDF xmlns:rdf="http://www.w3.org/1999/02/22-rdf-syntax-ns#">
      <rdf:Description rdf:about=""
            xmlns:dc="http://purl.org/dc/elements/1.1/">
         <dc:format>image/svg+xml</dc:format>
         <dc:title>
            <rdf:Alt>
               <rdf:li xml:lang="x-default">Print</rdf:li>
            </rdf:Alt>
         </dc:title>
      </rdf:Description>
      <rdf:Description rdf:about=""
            xmlns:xmp="http://ns.adobe.com/xap/1.0/"
            xmlns:xmpGImg="http://ns.adobe.com/xap/1.0/g/img/">
         <xmp:MetadataDate>2021-07-17T21:08:57+07:00</xmp:MetadataDate>
         <xmp:ModifyDate>2021-07-17T21:08:57+07:00</xmp:ModifyDate>
         <xmp:CreateDate>2021-07-17T21:08:55+07:00</xmp:CreateDate>
         <xmp:CreatorTool>Adobe Illustrator CS6 (Windows)</xmp:CreatorTool>
         <xmp:Thumbnails>
            <rdf:Alt>
               <rdf:li rdf:parseType="Resource">
                  <xmpGImg:width>256</xmpGImg:width>
                  <xmpGImg:height>100</xmpGImg:height>
                  <xmpGImg:format>JPEG</xmpGImg:format>
                  <xmpGImg:image>/9j/4AAQSkZJRgABAgEASABIAAD/7QAsUGhvdG9zaG9wIDMuMAA4QklNA+0AAAAAABAASAAAAAEA&#xA;AQBIAAAAAQAB/+4ADkFkb2JlAGTAAAAAAf/bAIQABgQEBAUEBgUFBgkGBQYJCwgGBggLDAoKCwoK&#xA;DBAMDAwMDAwQDA4PEA8ODBMTFBQTExwbGxscHx8fHx8fHx8fHwEHBwcNDA0YEBAYGhURFRofHx8f&#xA;Hx8fHx8fHx8fHx8fHx8fHx8fHx8fHx8fHx8fHx8fHx8fHx8fHx8fHx8fHx8f/8AAEQgAZAEAAwER&#xA;AAIRAQMRAf/EAaIAAAAHAQEBAQEAAAAAAAAAAAQFAwIGAQAHCAkKCwEAAgIDAQEBAQEAAAAAAAAA&#xA;AQACAwQFBgcICQoLEAACAQMDAgQCBgcDBAIGAnMBAgMRBAAFIRIxQVEGE2EicYEUMpGhBxWxQiPB&#xA;UtHhMxZi8CRygvElQzRTkqKyY3PCNUQnk6OzNhdUZHTD0uIIJoMJChgZhJRFRqS0VtNVKBry4/PE&#xA;1OT0ZXWFlaW1xdXl9WZ2hpamtsbW5vY3R1dnd4eXp7fH1+f3OEhYaHiImKi4yNjo+Ck5SVlpeYmZ&#xA;qbnJ2en5KjpKWmp6ipqqusra6voRAAICAQIDBQUEBQYECAMDbQEAAhEDBCESMUEFURNhIgZxgZEy&#xA;obHwFMHR4SNCFVJicvEzJDRDghaSUyWiY7LCB3PSNeJEgxdUkwgJChgZJjZFGidkdFU38qOzwygp&#xA;0+PzhJSktMTU5PRldYWVpbXF1eX1RlZmdoaWprbG1ub2R1dnd4eXp7fH1+f3OEhYaHiImKi4yNjo&#xA;+DlJWWl5iZmpucnZ6fkqOkpaanqKmqq6ytrq+v/aAAwDAQACEQMRAD8APvyw/KfyBrfkHTNZ1i0d&#xA;7659f1pBPKgPp3Eka0VWA+yg6ZqpTp2O55Mgb8lPyzduNvpUznxNxP8AqDZV4x6MxDvKA1r8mvy8&#xA;0vTbi+msDyhTmlubuVWc+A+JsjPJOMSW/TYo5ckYfzjzY1B5X/K5rVZJNAufrHrRRtEL2ThwlUsH&#xA;DUqSOP2afTlEdYa5dR9rtMnYlSoT24ZHl/NIBHPz5onV/J/5Y2NykMfl2aQFQ7yPfTLxUtwrxFe/&#xA;vlubVcBA5uLoOyzqIGXFw70BV2avvQz+T/IQu2tB5dIuEkdHjN5cGiIvLnXkOo7YPzZuq3v8FsHZ&#xA;N4/E4/QYg8upNcPP7VJPKvkP9HtfN5dHpKQoVb6csSSRv8VV6dxkRrTw8Vfa2nsUeMMXHvv/AA/t&#xA;3TXR/Iv5Z3ySGXy9NG0TmNyl7M61H8prvl+HPxg9Kdfr9EcBAviEhfKj8QnEP5U/k/MaG0uLdj/v&#xA;yaYj71Y5M8XQuEJeSDn8geWPK35h+Rp9Di4re30qySCV5QwjQEfaLU+1k9NxcXqY5SDHZ9B5tHAd&#xA;irsVdirsVdirsVdirDPzO/MOfyLpdtqh0l9TspZfRnkjmERiciqcgUeoah38fnkJz4WcIcTCYf8A&#xA;nInV54Umg8ianLDKoeOVGdlZWFQysIKEEZV+YHc2+B5r/wDoYLXf+pA1X/kp/wBUMH5gdy+B5u/6&#xA;GC13/qQNV/5Kf9UMfzA7l8DzaP8AzkJrY6+QdUHzMn/VDH8yF/L+a3/oYjV/+pD1P/gn/wCqGD81&#xA;FP5Yu/6GI1f/AKkPU/8Agn/6oY/mor+WLv8AoYjV/wDqQ9T/AOCf/qhj+biv5Ytj/nIbWT08hamf&#xA;kX/6oY/mor+WK7/oYLXf+pA1X/kp/wBUMP5gdyPA83f9DBa7/wBSBqv/ACU/6oY/mB3L4Hm7/oYL&#xA;Xf8AqQNV/wCSn/VDH8wO5fA83f8AQwWu/wDUgar/AMlP+qGP5gdy+B5rbT/nIq/udbs9EHk27h1K&#xA;+dEt7eef0mPNuIYhoQeOxq3sckM99EHBQu0J+UWo6baflto/rFp7j/SaW6bU/wBKl+0c10sYMrLm&#xA;cZGwZFc6/qc44REWkPZItj9LdcOwYVaU31ql1YXULcmnmQiJy23I/wA2xOV5QZRIcrRZRiyxmeUS&#xA;rt5RtZ9CsLXSfq0epRTQT3ckzSASPHGQ1CVLkFm2FKZjS03pAjV7O0x9rDx5zycRgRIRqtgSPhyV&#xA;NY8i+ZtXubq6uLm0t5JrZIBFFzZG4Or0JZKqOS1qN8GTTzmSSRybNL2rp8EYxjGRAkTvXdXQ7piv&#xA;k28k1ma/u2gdZtOFqQCxb6wAoL7qPh+E71r7ZYMJ4rP82nDn2hDwRjHFtk4v83fz5pEPy118aLJY&#xA;l7IS8lZXRpKvRiTzYxjpWgyr8tLg4dnOPa+H8wMv7yqOxrbbpv8ANvT9CvNMlu45+KJJM0kES1oq&#xA;E7ClAB9GX4sZjfvdbrtXHMIEXxRiASepRbRNTcVGXW4FMcvlC/mL5Gp0N/Lt/sBl+A+pqyD0l7/m&#xA;ycF2KuxV2KuxV2KuxV2Kpd5i0HT/ADBod7o2opzs76IxSgdRXdWWv7SMAy+4wEWKSDRt45+UvmG9&#xA;8u3+p/lz5gYm/wBGkZtNk7S27HlRa9qMJF/yW/yc1mYcPNz4ji5PS/0hdzGkEW3j1/szG8QnkGzw&#xA;wOZWyJd8eVzcLCv+UwUfhtjwSPMrxRHJLr6+0i3tZm+vBplRinAFviCkjoGGA4drZ4slzArq83Xz&#xA;trqWTEXommktxJX0owYZBccOIoKHlGK/EO+a7xJVz6fpewPZmAzrhoCVcz6hwX9/d3J75o83Tpaa&#xA;emlSPb3LxvJdSOkbcuEYbYNyG5r2zI1HpArmQ6nszTY8kpnILjGQA+JpQufNmpNqCW9vO6w35tpL&#xA;eQxxFoo+J+sAbENU9K5GQPEAP4qr9Lbj02HwpTkP7rjEtzuf4VFfNl+dK1e5/SxF9BJws7P0I9oz&#xA;NGBJz4U+yWWhyu/TI3uP1uR+Sx+JijwemY3lZ58MjXP3FknkXVtV1M36yXi3UVu0Yt7jiImfkpLj&#xA;gtPs7dstwCUro8nW9rYMWLhqPCZXY5+5lf1q6iNJlqPH+0bZf4s48w6jgieSJiuY5R8J37qeuXwy&#xA;CXJqlAhD6xq9jo+l3WqX0np2lnG0sz96KOgHcnoB45Yxed/kjoV75h1zUvzP1yMi4v3eDRIW3EUC&#xA;/AzrX2HpqfZv5szcEK3ac0ujGvyuoPI2mUG59f8A6iJMwZ83KDL0iJ3bYeHfIWmmKfmj+YMHkPy0&#xA;uoxwRXWqXkvoaZaz8/TZlo00jhGjcpGhHRh8TL2rmRp8PGbPJpzZOHlzQvl78ztY1Dyvo+qXWmae&#xA;l3qEEk86Ri5CLS5liQLW4Y7xxq3Xqcw9dn8KfDEDl1v9b0PY/ZMNTh45ykDxEbV+opd+YP8AzkN5&#xA;p8padpI07T9Olur57hpUuVunVYYfTWMrS4U/E7OOv7OZWgHiw4pDr0t1vbOmhpsohAk+mzdfoAR/&#xA;kH8+fO+veW5tY1PTtMi53ZtrFIIrlQVhjDTs3O4eu8sYWng3XtDX5I4QOEbnvbuxOzvzZkZkiMe6&#xA;uZ+BZE/53Tabp95qmt2UA0+xiMkrW5dJGY/DFEgdpAXkkIUfedgTmPo80s0+GhXl+C5vavZOHS4u&#xA;MSlfQGt/sDLvJvnPyv8AmD5bj1jSWMluzGOaGQBZ7eZQC0bgE0IDA1BIIzLy4jAvOwnalqWmTWb1&#xA;+3CfsyfwOUluBYfqoH/KxfIp7/X5f+ILl+n+pry/SXvWbNwHYq7FXYq7FXYq7FXYq7FXkH59eVr2&#xA;GOw/MDQ0A1jy8ym7AFfUtOVfiA6hCx5f5DN4Zj58di2/BOjSpofm/U/NGnW15YTLDDcoD6cZCFSN&#xA;mUknlVTtscwTs5NJonliaRud1c8nPWlWJ+k0wWqJbyxpxhkSrEupUFjWhIpWgpgluKZQlwyB7ksX&#xA;8vLMeXG0pZALpqcr8RmppL6gqnPw+H7WY35ceHw/a7U9rSOpGYjYfw3/AEa7vjyQN5+Wt9OEaa+F&#xA;0YomjRPSMNKjY1VzWngcidMZfUb2bMfbAxg+HDhuQJ3v7wgh5aurS6sXndg9jG0fEpTmCCoNamlK&#xA;++SjgoxN/S1ZO0ROGSIj/eEHny+zdAny1cC2ubb63SC4cycfSFVbkprXlXotMh+XNGN7Hycj+Voc&#xA;cMnh+uAr6ulEd3mi9P0j6ncXEwmLGfhQAcePAEdamta5dix8BJ73B1ms8aEI1XBfXvT+z8wapaUW&#xA;RvrUHdJNzT2br+vL7BdfSf2l1a38JuLNisif3kJ+0pzGyYa3i2wydC80/MK+v/PPm3TPy40tysAd&#xA;brzBcJ0SNKMAf9VTWndiozK0oMxu1Zag9003TrPTdPttPsohDaWkaw28S9FRBxUfcM2oFOATb5//&#xA;ACqVR5E0xu59f/qIkzUT5uzDLa5BXkv5/wD5e2+saTfebv0lOkujWkK2+nOqNAI/UVJeJFGDO8rP&#xA;U1/l6UpsNNmG0QHEzYz9Voby2VPlDy6Up6f6Oh406VBYP/w4auaPtT++Pwe99nK/KD3n70j8y+UI&#xA;fOn5l+WPL1zcyWls2izTPJEod/3VzeSHirGlW4ha+Gbbs88OnB9/3vK9vXLWyH9X/ch6Nf8AkOw8&#xA;qeVNJs7GWZoLTlb0uECvK0skk7SgrQGhfidthxzW9p+oifwp3nszmoSxV/Sv5Cnkf5u3uoX99o/k&#xA;jSY3uLuYx3t3bx7s9zcKRaxntRLduYP/ABYa9M2PZmHgxcR5y3+Dp/aHVnNqOAfTDb49f1fB7l/z&#xA;jn5Fj8o6Jq8X1lry6u5bf65cI3+i+rEslY7cEAngJBzkP2qigAG4yaoZb4eQPPvcbN2fLTiPGfXI&#xA;Xw9w6X793rM4iaF1moYip516UyloebeYIY4fPn5fIoIaTUJ5DXqFKIEB96Zdp/qRl+kvbs2bgOxV&#xA;2KuxV2KuxV2KuxV2KrJ4YZ4ZIJkEkMqlJI2FVZWFCCD2IxV822umTfl/+Yd35RuGI0XVW+s6JMxq&#xA;BzJASp77cD7geOa7PjoufjnxB6Na393bABJWKj9lviG3gD0zGtspM/8AF1hZ2c93qdLa2tYnnubk&#xA;bqscSl3Yjrso7VycBxGmE9hbxDyH/wA5C+dvNGueYZTHb2+j2sJk0239IGSMyXMaxLJJX4z6POvi&#xA;d8u1tYsXEBu5HY+nGo1AhP6aJZBrv5y+a9M8t6xqtbctYWpeIGIH97LIlvEaV3pJMpPyzB0OeWXJ&#xA;wkCqd12z2Zg02DjjfFYA3/HRhH5b/n5+ZXmrXZ7fVGsX0yxtJrq6VbZQxO0MIU1PWeVK/wCTXNlq&#xA;hDHjMqef7Nwyz544+hO/u6s8tvPWrSTUkhs/TAZ5XkV0REQF3kco6kKiKWPtmkxarJOQiACS9fqe&#xA;xtLixmcjICI7/wBizyH+a/lfz1d6ja6bDLZ3dkWkS2nIJmtQ4RZ0I6faXnGd1qN23I3GbT8IsPF4&#xA;8vEaZa8ZXcbjMVuSjXfNg8pWEusrRpEUxxQMaCSRx8KH2rufYZOO7Ehkf5EeSbrSdBm8yawC/mDz&#xA;G31q4kkHxpC55xqfAvy5t8wP2c2OGHCHEzTsvUMuaXzl+VNzC/kqygRwZrZpkuI6/EjGZ3AYdvhY&#xA;HNNk5u0DL+WQSknnvQ73XvIfmPS7EBr2ayJt4iaGR0ljcRr/AJT8eK++ZOlIE92rNEkUHln5e3f1&#xA;v8vdEb9qy+tafNXr6kVw1xQ/KO6QZgdsQrID3h6z2Wy3glH+bL7x/alXnvyr5j1/zr5ZtvLkwt9Q&#xA;n0qdEnMxgo1tc3Msv7wfZ/dSrmy7NmPAF9L+90HtDjI1kv6QH3V+h6r5j8uapFqil5FuLe4nFtaz&#xA;pIJdq0jVtyQSvj75pdXikchPSUtnq+ytbh8ARj9UIC9q6bsK0HTYodV1jzbMvLUfMFzP+jg1a2+k&#xA;rIY4lH2SGnjQCvX0gN6OwzP7S1PBEYo/H3dzp/Z/QeLM6jJ3nh9/U/Dp5+57H5L8229xAYFgS0W2&#xA;VRLaRf3YQnj6sdat9ogOGJO4NT2p0+cTFAVXRq7Y7PninxmRmJdTzvu/Uyy6mWdxCvxRLRpqftV3&#xA;WMf63U+2XulDCvN1xbH8y/IFksqvfJeTTzQqauqMigMR1C/AaV8MyNP9TDJ9Jez5snBdirsVdirs&#xA;VdirsVdirsVdirz787PILebPKbS2Kn9O6QTd6Y6bOxABkiFP5wvw/wCUFyvLDiDZinwlg3kTzSnm&#xA;LQIbpiBew/ub2MbUlUfap4OPiH3ds1UhRdgEw8yeX9N8x6Fc6JqbTrZXbRmf6tIInZY25hGJST4S&#xA;4Vj7qMniy8BumvJDieF+Q9DtdA82ee9CtZGlh06eOKFpKeoYop3QFqUFRyUEgZLtXfCD5h2fs1tq&#xA;v80/oRf5mymL8u9UK9Zp7SBqGnwl2l+n4oRtmH2OPXI+Tt/aqX7qA/pfoenaJ+Un5Z+V/KN/d6Rq&#xA;Uj3F5DGxuJbqCXnNbRs4iVUVfttKOSj/ACcy+0DxQIltXLzp0fYUpwzgwHFex25A/c8s/NHWJdN8&#xA;m/U7be+1+f6lEF3f6vDwkn4gbguzxIPFS4zH7HwWTM9Ng7b2p1dCOEdfUf0fp+TKvyA/Ko6FqEuo&#xA;3kRuNfFpKLheVIbMTpxWEU+3OSfiqaLQgCo5ZmZdXxSMI7gcz+h0n8m+FgGXIalI+mPl1J+H3vW4&#xA;bWaUygDj6Ks8nLagXt88xmq2AaFo/wDysf8AMtLNh6nlfy0RLen9iabltH7h2Xj/AKqt45lafHZa&#xA;c06D6SAAFB0zYOC7FXkP5mflrqVjqM3nXyXF/uQ+3rOjr9i8QbtIij/dvc0+11HxVDYufDe4cnDm&#xA;rYpR5e8x6drunLe2T7fZmhbZ43HVHHjmukKcwFZ5z1DUIbOL6qscdhdoIpmRTzWWOhZSxJ2egcfS&#xA;O2YusnIDb6S9F2DgwzNn+8h9x6/oYxZ6fpk1nrF1DIINRuZI764tCKJLMoKTzw02DyoVeZT1Kch1&#xA;IAy6nxsVS+uP2hzdPoDpNSZQ/ucm39U9Ph0HvYx5v1fVdC0iw806SFa+8u3bmSN1DI1pqUYt5+de&#xA;weKJR4F8yuyJgiUD73We1OAgwyj+r+kfpei33mGV/N1vbXPCHTbHVFZkiXjVYpuPJt9yqVp8zmFk&#xA;zk5QDtGM/wBLtNN2fCGlMofXPF98f1sWupY5Z2aGMRQKAlvCOkcMYCRRj2RFCj5ZiZshnMyPV22l&#xA;04w444xyiKZX+Xml3M8t7dU4wNELdZG+zzMiSMa+Cqm/zHjmXooHeXTk6T2izxEIw/iu/hum3mTz&#xA;9Boqx6Rods2o+YrsiLSbFRy5M9QZpAOij/OgqRsYR4i8jLbmyr8svyzPl31td12Yal5v1Icr6+b4&#xA;hEG/3TD4KOhI6/KgzZ4sXCHCyZOL3M/y1qdirsVdirsVdirsVdirsVdirsVfO3n7ST+Xf5lJrFuv&#xA;Dyx5nYi5VRRIbmtX6bDdua+xYDpmDqMfVzME7FMtDVFQag9DmE5LxvU9Em0L88PMIDGbTvNVtePY&#xA;XHRRPbPHeTxN2DxiBgO/FlP7WZerrJglX8P6G/sniwavGZbcf3SG32oTz9atdfl/r6KKtBFBcqvc&#xA;+ndRK33RyMfozWdkSrKR3h6L2ox3pwe6X6Cy/wAuflbN5d8mR6aNRiuLmyNzeTqsborFgGbiST0j&#xA;jA+jL+0oeIbB+kF1ns/rY4PRIf3khv8AYEnuNGVvMtprtyoI0WyjtdJjO4+u3Ba7luaHblDBcRKv&#xA;+UVYfZyJz+DpogfVJyho/wA32hOUv7vHX3cvnZegfl55zntrqDRLsIbKduNvIqqjJK3TkVA58ztv&#xA;v79sxdJqDYgeXRy+2+zIyic0fqjz8x+ivkq/mr5sn0by6bexBOu+YZBDZwpvIqGihgo3J3FP8ojN&#xA;jCNl5Fn/AOVPkSHyZ5QttNYA6jP/AKRqco35TuBVa/yoKKPlXvm0xw4Q4GSfEWYZNg7FXYq8g/Mz&#xA;8s9QsdQl86+S4v8Achu+s6Mg+C8QbtJGo/3b3IH2uo+KobFz4L3Dk4c1bFJNF1zRfM2iuVDSW01B&#xA;cQBgk0MqGo3IcKw3FabgnxzWTgCDGXJ2mm1M8MxOHMfjdv8Awt5Z/kvf+kiL/qhlH5XH/S+Y/U7T&#xA;+X9R3Q+R/wCKWXXk7ynd6fe6fcQ3j21/byW06/WIujj4WH+jn4o3Cuv+UBl2nhDFLijfz/Y4mt7T&#xA;y6nGccxCvIG/90ipPK+gXlyzrDfPNJ8ThZ4iSe7f7z9+pyGTBjnIy338/wBjbg7az4sYgOCoitwe&#xA;n+cjIfImhwtbv9VnuPW+IxTz/CoXry9OOIjr45EaXGOhPvP6qZT7e1EhXpj7h+slrz95qg0aystA&#xA;0CAXOuX9I9N0m2UEcW6O9KcUrv8A5X3kZcIXsOTpsmUyJlI2e8sl/K38rY/LEcms6zIL/wA2X4re&#xA;3p+IRBv90w+AHQkdflmzxYhEOBly8XuehZa1OxV2KuxV2KuxV2KuxV2KuxV2KuxVjv5geTrPzf5U&#xA;vdEuKK8q87SY/wC6rhN43+/Y+xORnGxTKEqNvE/y71vV7jStQ8qXkz2XmLSmNvUtxesTFY+R8K1j&#xA;bt0bNTlhLcA0T97uNHlhHIJTAlDr7v2JZa3ccepRvq0L3SRXKXMisaSrPEx/eKzVo+7K1dmUlTsc&#xA;1Wn1UsUje4PMPa6/s6GoxgR9Mo/QR0/YpT2mm3F1d6d61dMv0msmuGFCsF0jReoyn9pFfl8xg0+Q&#xA;Y8wkPpv7GWu08s+llCQ9Zj/shv8AegfK2vea38kWGnatf3L3Fo11p2oRSyszerbXTgpJU1qqlFof&#xA;AZn9rTkJgA+kj9LpfZjDjljMjEGcZc+vIJprGpLfPa8FCpbWsFv0oWaOMKzHxNdq+AGazNl468gA&#xA;9DpdMMXF3zmZfPl9ibeR9IeXUk1i5Ho6VpbfWJrl/hQvF8aICdq8gC3gOuXaPETIS6D73B7a1sce&#xA;Ewv1zFV5Hmfx1TH8rNMn8/fmDe+ftRQnRtIc22hwt0MqjZ+J/kVuZ/ymH8udBp8fV8/zzoU95zMc&#xA;V2KuxV2KuxV4/wDmb+WWoWOoS+dPJcX+5Dd9Z0ZBRLtBu0kaj/dvcgfa6j4qhsXPgvcOThzVsUj0&#xA;DzDYa5p63lm232ZoW2eNx1RxmtlGnOBtELq2nes0TziNk58yyvQemKtWinKTmj3udHs7OQCI7Guo&#xA;68uqbaVNaXIE2nXQM9sx+tuwKogJIB+ILWvE5KExLkWjUaXJirjFXy5Ibz552jsbS20jSo31HzJq&#xA;oC6dYw9Ty29SQdQnt3+VSL4QMnDJpk35X/levllJNZ1qUaj5tv1reXrfEIlIH7mEnoopQkdflQZt&#xA;MWIRDhZMnF7noOWtTsVdirsVdirsVdirsVdirsVdirsVdirsVeE/np5cuPLvmCx/MbSYyYyy2uvQ&#xA;p+0rURJD2+JfgJPRgnfMXUY73crBPojYLnTtShjv0gtbhbpRKs7W8LM4cV5MSlST3rvmslEE7gX7&#xA;g7SGrzRAAnIAeZVPQsf+WK0/6RoP+aMHBHuHyDL89n/nz/0xbEFmS4FlaEyytO4+rQfFLIFDufg3&#xA;ZuAqe+TnLirio15BpxZp474JSjfOiUTFoyNdi3bT7RHA5MWtbeir4n4KZHgj3D5BtOuzfz5/6YsV&#xA;/MzXrzV59P8Ay/8AL1WvtVdYnYbBLepLkgD4Q1CTTogbxzIxRMi4U5dS9w8q+W9P8teXrHQ7AUtr&#xA;KIRhqULt1eRv8p3JY/PNpGNCnXSlZtNcKHYq7FXYq7FXYq8f/Mv8sr6x1KTzr5Ng5Xw+PWtFSoS8&#xA;jG7PGB0l7mnXqPiqGxc+C9w5OHNWxSrSbbyr5p0RNUspbgokjvdWq8PWjldEVonHHanpg1+ZzT5N&#xA;MCd3faftbLjFAR5AdehJ7/P7kDqOt6d5bs49K0K3fVvMWtUittMYhyrKz8JH4Km3x+1adgCcs0+n&#xA;A5NOu7QnnozocPd8PPyeg/lb+VsfleOTWNYkF/5svxW8vD8QiDf7ph8AOhI6/LNzixCIdHly8Xue&#xA;hZa1OxV2KuxV2KuxV2KuxV2KuxV2KuxV2KuxV2KoPWdIsNY0q70rUI/Vsr2JoZ4/FXFNj2I6g9jg&#xA;ItINPnDymL/yr5k1HyFqzEyWbtLpczbCWFvj+H2ZTzp2PIds1efHRdjjnYZugZ3CIOTMaKB3JzHb&#xA;E30oLFcNY3NrykJ5c6Aldh38PpwhiXeddTGk6JdalKVS0gTlctWjtTZEFf5mNB7nJVaAkn/OP/lO&#xA;6uTe/mDrKf7kNXLR6ap/3XbA0Zlr05FQq/5I982Wnx0LcTPOzT2jMhx3Yq7FXYq7FXYq7FXYq8m/&#xA;MP8ALTXbPVJfN/5f8YdYlBGqaTsIbsH/AHYqkhfUB3PSvXrXljZsHFycjFmrYpv+Vv5WR+V45NY1&#xA;iQX/AJsvxW8vTusQb/dMPgB3Pf5bZZixCIYZcpk9Cy1qdirsVdirsVdirsVdirsVdirsVdirsVdi&#xA;rsVdirsVeS/85AeSrm+0i3836OvHW/L3712UVaS1B5OD4+mfj/1eWUZ4WLb8M6NMP0Mv5ntotW0+&#xA;19cSxwmWIlCqypKDMjK7IDsgHUVGaDNhPFsHq9Br4QxCMpVvLv7ttwD1JRw8t+Y7a8S+lteAjuDc&#xA;SSiSNqCR4yRs3LajVoMqjhmJWR1cvN2jpziMRL+Hh5HoJeXur59Es197/wDMfz/ZeTLNmi0m1K3W&#xA;uOjHiEj6iviOXEf5TCvTNxgx8ReSyy4Q+irW1t7S1htbaNYra3RYoYlFFREAVVA8ABTNm69VxV2K&#xA;uxV2KuxV2KuxV2KuxV2KuxV2KuxV2KuxV2KuxV2KuxV2KuxV2KuxV2KuxV2KuxVp0R0ZHUMjAhlI&#xA;qCD1BGKvm+e0uvyy/MebQlZl8s65ILvSuRPBZK09Mn/JP7s+3AnNbqcdOfhnxBNfPXnR9J0i7v8A&#xA;nwklpHbW/I0aQii1HelOR+WYsRZbzsGZ/kX5Cl8teVjqGoqTr2uEXd8z/bRDUxRGvcBizf5RI7Zt&#xA;8UOEOuyzsvSctanYq7FXYq7FXYq7FXYq7FXYq7FXYq7FXYq7FXYq7FXYq7FXYq7FXYq7FXYq7FXY&#xA;q7FXYq7FWDfnD5BXzj5Qmt7dB+mLGt1pcnRvVUfFFXwlX4fnQ9sryQ4g2Y58JeL/AJU6Nqn5i+b7&#xA;O61uL/cR5ZRGuo2B4zXVfhVgR1Zl5OPBad8xcGLdyc2Sg+ocznCdirsVdirsVdirsVdirsVdirsV&#xA;dirsVdirsVdirsVdirsVdirsVdirsVdirsVdirsVdirsVdirsVSXyx/hemp/4f8ARp9fn/Sno/8A&#xA;Ldt63P8AyunTIxroylfVOskxdirsVdirsVdir//Z</xmpGImg:image>
               </rdf:li>
            </rdf:Alt>
         </xmp:Thumbnails>
      </rdf:Description>
      <rdf:Description rdf:about=""
            xmlns:xmpMM="http://ns.adobe.com/xap/1.0/mm/"
            xmlns:stRef="http://ns.adobe.com/xap/1.0/sType/ResourceRef#"
            xmlns:stEvt="http://ns.adobe.com/xap/1.0/sType/ResourceEvent#">
         <xmpMM:InstanceID>xmp.iid:1680638DEFE6EB11857DE3537210660E</xmpMM:InstanceID>
         <xmpMM:DocumentID>xmp.did:1680638DEFE6EB11857DE3537210660E</xmpMM:DocumentID>
         <xmpMM:OriginalDocumentID>uuid:5D20892493BFDB11914A8590D31508C8</xmpMM:OriginalDocumentID>
         <xmpMM:RenditionClass>proof:pdf</xmpMM:RenditionClass>
         <xmpMM:DerivedFrom rdf:parseType="Resource">
            <stRef:instanceID>xmp.iid:1280638DEFE6EB11857DE3537210660E</stRef:instanceID>
            <stRef:documentID>xmp.did:1280638DEFE6EB11857DE3537210660E</stRef:documentID>
            <stRef:originalDocumentID>uuid:5D20892493BFDB11914A8590D31508C8</stRef:originalDocumentID>
            <stRef:renditionClass>proof:pdf</stRef:renditionClass>
         </xmpMM:DerivedFrom>
         <xmpMM:History>
            <rdf:Seq>
               <rdf:li rdf:parseType="Resource">
                  <stEvt:action>saved</stEvt:action>
                  <stEvt:instanceID>xmp.iid:7B52FC036DE0EB11B461AD1D81970902</stEvt:instanceID>
                  <stEvt:when>2021-07-10T09:29:50+07:00</stEvt:when>
                  <stEvt:softwareAgent>Adobe Illustrator CS6 (Windows)</stEvt:softwareAgent>
                  <stEvt:changed>/</stEvt:changed>
               </rdf:li>
               <rdf:li rdf:parseType="Resource">
                  <stEvt:action>saved</stEvt:action>
                  <stEvt:instanceID>xmp.iid:1680638DEFE6EB11857DE3537210660E</stEvt:instanceID>
                  <stEvt:when>2021-07-17T21:08:57+07:00</stEvt:when>
                  <stEvt:softwareAgent>Adobe Illustrator CS6 (Windows)</stEvt:softwareAgent>
                  <stEvt:changed>/</stEvt:changed>
               </rdf:li>
            </rdf:Seq>
         </xmpMM:History>
      </rdf:Description>
      <rdf:Description rdf:about=""
            xmlns:illustrator="http://ns.adobe.com/illustrator/1.0/">
         <illustrator:StartupProfile>Print</illustrator:StartupProfile>
      </rdf:Description>
      <rdf:Description rdf:about=""
            xmlns:xmpTPg="http://ns.adobe.com/xap/1.0/t/pg/"
            xmlns:stDim="http://ns.adobe.com/xap/1.0/sType/Dimensions#"
            xmlns:stFnt="http://ns.adobe.com/xap/1.0/sType/Font#"
            xmlns:xmpG="http://ns.adobe.com/xap/1.0/g/">
         <xmpTPg:HasVisibleOverprint>False</xmpTPg:HasVisibleOverprint>
         <xmpTPg:HasVisibleTransparency>True</xmpTPg:HasVisibleTransparency>
         <xmpTPg:NPages>1</xmpTPg:NPages>
         <xmpTPg:MaxPageSize rdf:parseType="Resource">
            <stDim:w>23.500000</stDim:w>
            <stDim:h>20.300001</stDim:h>
            <stDim:unit>Inches</stDim:unit>
         </xmpTPg:MaxPageSize>
         <xmpTPg:Fonts>
            <rdf:Bag>
               <rdf:li rdf:parseType="Resource">
                  <stFnt:fontName>MachineStd</stFnt:fontName>
                  <stFnt:fontFamily>ITC Machine Std</stFnt:fontFamily>
                  <stFnt:fontFace>Medium</stFnt:fontFace>
                  <stFnt:fontType>Open Type</stFnt:fontType>
                  <stFnt:versionString>OTF 1.020;PS 001.002;Core 1.0.31;makeotf.lib1.4.1585</stFnt:versionString>
                  <stFnt:composite>False</stFnt:composite>
                  <stFnt:fontFileName/>
               </rdf:li>
            </rdf:Bag>
         </xmpTPg:Fonts>
         <xmpTPg:PlateNames>
            <rdf:Seq>
               <rdf:li>Cyan</rdf:li>
               <rdf:li>Magenta</rdf:li>
               <rdf:li>Yellow</rdf:li>
               <rdf:li>Black</rdf:li>
            </rdf:Seq>
         </xmpTPg:PlateNames>
         <xmpTPg:SwatchGroups>
            <rdf:Seq>
               <rdf:li rdf:parseType="Resource">
                  <xmpG:groupName>Default Swatch Group</xmpG:groupName>
                  <xmpG:groupType>0</xmpG:groupType>
               </rdf:li>
            </rdf:Seq>
         </xmpTPg:SwatchGroups>
      </rdf:Description>
      <rdf:Description rdf:about=""
            xmlns:pdf="http://ns.adobe.com/pdf/1.3/">
         <pdf:Producer>Adobe PDF library 10.01</pdf:Producer>
      </rdf:Description>
   </rdf:RDF>
</x:xmpmeta>
                                                                                                    
                                                                                                    
                                                                                                    
                                                                                                    
                                                                                                    
                                                                                                    
                                                                                                    
                                                                                                    
                                                                                                    
                                                                                                    
                                                                                                    
                                                                                                    
                                                                                                    
                                                                                                    
                                                                                                    
                                                                                                    
                                                                                                    
                                                                                                    
                                                                                                    
                                                                                                    
                           
<?xpacket end="w"?>
	</metadata>
<g>
	<defs>
		<polygon id="SVGID_1_" points="1225.001,-3.647 1.001,-3.569 1.01,608.703 613.007,1220.724 1225.01,608.703 		"/>
	</defs>
	<clipPath id="SVGID_2_">
		<use xlink:href="#SVGID_1_"  overflow="visible"/>
	</clipPath>
	<g clip-path="url(#SVGID_2_)">
		<linearGradient id="SVGID_3_" gradientUnits="userSpaceOnUse" x1="618.5" y1="1771.0732" x2="618.4999" y2="-168.9973">
			<stop  offset="0.2848" style="stop-color:#E4C296"/>
			<stop  offset="0.6843" style="stop-color:#F6DFBA"/>
			<stop  offset="0.9394" style="stop-color:#FFEDCC"/>
		</linearGradient>
		<rect x="24.5" y="4.5" fill="url(#SVGID_3_)" width="1188" height="1192"/>
		<g opacity="0.3">
			
				<radialGradient id="SVGID_4_" cx="2149.5225" cy="-1030.5146" r="1089.8669" gradientTransform="matrix(-0.2756 0.9986 -1.0213 -0.2032 -139.4469 -1545.3833)" gradientUnits="userSpaceOnUse">
				<stop  offset="0.4485" style="stop-color:#BA6A41"/>
				<stop  offset="0.5385" style="stop-color:#C6753C"/>
				<stop  offset="0.84" style="stop-color:#EB972C"/>
				<stop  offset="1" style="stop-color:#F9A426"/>
			</radialGradient>
			<path fill="url(#SVGID_4_)" d="M387.296,4.5C260.144,34.912,137.595,80.262,24.5,138.915V1196.5h976.446
				c89.44-88.448,158.938-177.778,211.554-256.688V39.979c-29.711-13.3-62.503-25.158-98.16-35.479H387.296z"/>
			<path fill="#FFEDCC" d="M1212.5,100.247c-40.605-20.8-89.199-38.521-145.032-52.719C920.383,10.104,741.071,2.226,562.582,25.331
				C372.195,49.93,187.416,109.213,24.5,197.577V1196.5h901.171c135.158-125.066,227.634-255.344,286.829-355.81V100.247z"/>
			<path fill="#3B2314" d="M1212.5,142.856c-41.376-23.954-94.03-44.26-156.754-60.217
				C913.182,46.419,738.979,38.825,565.254,61.284C373.177,86.113,187.068,147.1,24.5,238.229V1196.5h847.825
				c176.411-155.162,283.381-322.654,340.175-430.374V142.856z"/>
			
				<radialGradient id="SVGID_5_" cx="1988.6982" cy="-965.1279" r="1079.6122" gradientTransform="matrix(-0.2756 0.9986 -1.0213 -0.2032 -139.4469 -1545.3833)" gradientUnits="userSpaceOnUse">
				<stop  offset="0.0485" style="stop-color:#5D381A"/>
				<stop  offset="0.3239" style="stop-color:#623B19"/>
				<stop  offset="0.903" style="stop-color:#693E18"/>
			</radialGradient>
			<path fill="url(#SVGID_5_)" d="M1212.5,192.605c-40.372-28.401-98.215-52.741-169.748-70.938c-0.017,0.018,0,0-0.017,0.018
				c-137.492-34.971-306.003-42.248-474.507-20.453C374.139,126.318,186.477,189.391,24.5,283.798V1196.5h786.704
				c200.5-165.662,315.9-351.867,372.021-461.749c10.504-20.577,20.259-41.023,29.274-61.259V192.605z"/>
			<path fill="#845730" d="M1212.5,318.522c-1.842-3.902-3.831-7.642-5.977-11.203c-25.688-42.635-91.84-79.348-186.205-103.367
				c-0.01,0.02,0,0-0.01,0.02c-115.997-29.498-258.139-35.646-400.287-17.244c-167.99,21.723-330.227,77.121-469.281,160.252
				c-45.725,27.338-87.727,56.462-126.24,86.537V1196.5h682.995c243.11-156.011,373.946-362.979,431.331-475.323
				c33.866-66.345,58.642-131.123,73.674-190.207V318.522z"/>
			<path fill="#FFEDCC" d="M621.883,117.292c-98.178,9.018-202.156,28.703-307.309,62.143
				c403.898,128.525,610.256,297.891,707.799,444.91c57.151-75.572,96.162-142.443,119.523-194.746
				C1018.369,278.86,825.307,170.794,621.883,117.292z"/>
			<path fill="#FFEDCC" d="M1212.5,534.782c-8.679-16.25-18.108-32.137-28.27-47.634c-31.046,60.572-75.061,127.803-128.04,195.451
				c28.851,57.783,41.165,110.307,43.161,153.113c26.215-41.35,47.029-78.76,62.932-109.926
				c19.315-37.818,36.078-75.384,50.217-112.009V534.782z"/>
			
				<radialGradient id="SVGID_6_" cx="2355.9893" cy="-1282.4512" r="990.6568" gradientTransform="matrix(-0.2756 0.9986 -1.0213 -0.2032 -139.4469 -1545.3833)" gradientUnits="userSpaceOnUse">
				<stop  offset="0.1758" style="stop-color:#FFEDCC"/>
				<stop  offset="0.4589" style="stop-color:#FDEAC9"/>
				<stop  offset="0.672" style="stop-color:#F6E1BF"/>
				<stop  offset="0.8615" style="stop-color:#EAD2AF"/>
				<stop  offset="0.9333" style="stop-color:#E4CAA7"/>
			</radialGradient>
			<path fill="url(#SVGID_6_)" d="M314.574,179.435c44.463,14.15,86.412,28.807,126.209,43.887
				c58.455-16.395,118.462-28.725,179.238-36.594c58.195-7.529,116.377-10.885,172.784-10.262
				c-55.214-24.004-112.628-43.846-170.923-59.174C523.705,126.31,419.727,145.995,314.574,179.435z"/>
			
				<radialGradient id="SVGID_7_" cx="2355.9893" cy="-1282.4512" r="990.6567" gradientTransform="matrix(-0.2756 0.9986 -1.0213 -0.2032 -139.4469 -1545.3833)" gradientUnits="userSpaceOnUse">
				<stop  offset="0.1758" style="stop-color:#FFEDCC"/>
				<stop  offset="0.4589" style="stop-color:#FDEAC9"/>
				<stop  offset="0.672" style="stop-color:#F6E1BF"/>
				<stop  offset="0.8615" style="stop-color:#EAD2AF"/>
				<stop  offset="0.9333" style="stop-color:#E4CAA7"/>
			</radialGradient>
			<path fill="url(#SVGID_7_)" d="M1212.5,534.966c-0.23-0.431-0.454-0.866-0.686-1.297
				c-15.101,58.359-39.641,122.158-72.988,187.508c-11.475,22.441-25.91,48.707-43.543,77.553
				c2.188,12.963,3.533,25.338,4.068,36.982c26.215-41.35,47.029-78.76,62.932-109.926c19.315-37.818,36.078-75.384,50.217-112.009
				V534.966z"/>
			<path fill="#FFEDCC" d="M298.285,1196.5l-0.074-27.085c-0.023-11.139-9.477-19.533-21.035-18.803
				c-11.564,0.727-20.944,10.354-20.928,21.459l0.11,24.429H298.285z"/>
			<path fill="#FFEDCC" d="M337.543,1151.438l46.517,29.576c-10.37,5.282-20.721,10.44-31.049,15.485h133.776l-37.989-24.124
				c23.331-12.73,46.713-26.023,70.085-40.047c2.733-1.602,5.363-3.24,8.066-4.881l0.141,48.744
				c0.051,11.121,9.447,19.512,21.044,18.785c11.577-0.734,20.915-10.324,20.896-21.447l-0.123-36.738l30.902,19.664
				c9.383,5.963,22.463,3.162,29.288-6.252c6.771-9.453,4.669-21.885-4.696-27.846l-44.303-28.172
				c25.93-16.813,50.836-33.822,74.715-50.961l0.14,46.598c0.03,11.109,9.456,19.531,21.046,18.811
				c11.584-0.758,20.941-10.344,20.912-21.463l-0.125-36.697l30.875,19.672c9.381,5.963,22.488,3.131,29.284-6.266
				c6.808-9.445,4.704-21.926-4.679-27.871l-47.168-29.961c24.633-18.822,48.061-37.629,70.302-56.273l0.155,41.574
				c0.029,11.119,9.432,19.531,20.99,18.807c11.566-0.754,20.943-10.34,20.932-21.494l-0.127-36.658l30.914,19.637
				c9.375,5.975,22.439,3.174,29.25-6.313c6.807-9.389,4.662-21.855-4.68-27.836l-48.074-30.473
				c23.881-21.461,46.169-42.4,66.832-62.689l0.098,41.254c0.069,11.129,9.447,19.555,21.053,18.824
				c11.584-0.734,20.934-10.303,20.893-21.441l-0.115-36.703l30.895,19.662c9.383,5.941,22.498,3.16,29.275-6.283
				c6.799-9.404,4.704-21.938-4.67-27.854l-52.333-33.264c20.618-21.592,39.156-42.143,55.593-61.041
				c109.377-125.818,190.936-257,218.154-350.902c1.814-6.242-1.901-12.32-8.27-13.674c-6.361-1.348-12.977,2.557-14.814,8.781
				c-26.426,91.168-113.797,236.049-254.063,386.854l-0.101-38.16c-0.015-11.137-9.479-19.508-21.048-18.791
				c-11.564,0.66-20.941,10.299-20.896,21.467l0.129,36.625l-30.902-19.586c-9.371-5.988-22.491-3.123-29.275,6.283
				c-6.805,9.439-4.695,21.861,4.659,27.871l51.003,32.416c-22.145,22.164-45.377,44.346-69.724,66.443l-0.142-46.947
				c-0.055-11.133-9.465-19.582-21.025-18.85c-11.613,0.729-20.934,10.416-20.879,21.471l0.088,36.693l-30.885-19.68
				c-9.391-5.932-22.516-3.143-29.309,6.273c-6.762,9.445-4.691,21.947,4.708,27.873l52.017,33.064
				c-24.113,20.549-49.16,40.881-75.156,60.92l-0.172-49.32c0.008-11.131-9.407-19.543-20.951-18.814
				c-11.625,0.73-20.967,10.336-20.956,21.465l0.147,36.703l-30.932-19.646c-9.356-5.963-22.446-3.15-29.239,6.266
				c-6.806,9.438-4.7,21.932,4.671,27.891l49.383,31.369c-25.797,18.611-52.371,36.865-79.771,54.705l-0.194-53.555
				c-0.015-11.139-9.438-19.576-20.993-18.834c-11.594,0.74-20.953,10.326-20.897,21.475l0.112,36.678l-30.939-19.633
				c-9.363-5.98-22.479-3.141-29.25,6.291c-6.785,9.438-4.674,21.852,4.711,27.811l48.283,30.705
				c-4.123,2.494-8.201,4.988-12.349,7.486c-24.13,14.377-48.203,28.064-72.194,41.16l-0.224-56.5
				c-0.003-11.139-9.431-19.537-20.987-18.801c-11.543,0.703-20.93,10.322-20.905,21.439l0.097,36.664l-30.893-19.623
				c-9.375-5.955-22.454-3.131-29.223,6.289C326.062,1133.011,328.186,1145.483,337.543,1151.438z"/>
			<path fill="#FFEDCC" d="M237.14,1196.5l-11.657-7.409c-9.332-5.932-22.467-3.139-29.271,6.326
				c-0.255,0.354-0.474,0.721-0.704,1.083H237.14z"/>
		</g>
		<path fill="#4C311C" d="M1036.514,1196.5l-0.014-14.638c-0.188-7.945-38.498-14.367-85.651-14.35
			c-47.161,0.02-85.308,6.469-85.29,14.414l0.018,14.573H1036.514z"/>
	</g>
</g>
<text transform="matrix(1.251 0 0 1 336.0234 198.8281)" fill="#F44E24" font-family="'MachineStd'" font-size="194.7872">PLAYER</text>
<text transform="matrix(1 0 0 1 515.96 1043.3428)" fill="#F44E24" font-family="'MachineStd'" font-size="103.0135">YEAR </text>
<g>
	<path fill="#4C311C" d="M1198.695,30.721v564.592l-584.834,584.38L29.024,595.313V30.721H1198.695 M1227.725-2.767H0v613.379
		L613.861,1224l613.863-613.388V-2.767L1227.725-2.767z"/>
</g>
<g>
	<g>
		<path fill="#FFFFFF" d="M487.814,767.42c-33.893-23.986-65.827-53.631-97.629-90.635l-0.044-0.051
			c-20.196-23.758-36.873-46.58-50.985-69.77l-1.774-2.914l-0.017-3.412c-0.153-30.457-0.129-61.403-0.105-91.334
			c0.017-21.953,0.034-44.652-0.019-66.97v-0.126l0.001-0.126c0.021-1.157-0.584-2.479-1.62-3.534
			c-1.043-1.062-2.367-1.696-3.54-1.696l-0.251-0.001c-5.891-0.083-12.248-0.122-20.005-0.122c-4.928,0-9.856,0.014-14.784,0.03
			c-4.867,0.015-9.899,0.03-14.857,0.03h-18.696l7.417-17.163c1.701-3.934,3.697-7.383,5.628-10.717
			c0.563-0.97,1.124-1.94,1.673-2.917c8.602-15.234,17.352-30.688,25.813-45.632c12.951-22.874,26.342-46.526,39.447-69.82
			l3.516-6.25l7.171-0.014c9.04-0.018,18.849-0.025,30.87-0.025c6.985,0,13.969,0.003,20.953,0.006
			c6.98,0.001,13.96,0.004,20.939,0.004h14.824l-2.749,14.567c-23.966,126.952-11.876,262.138,34.041,380.649l0.025,0.068
			c8.12,21.328,18.237,43.617,32.808,72.271L487.814,767.42z"/>
		<path fill="#FFFFFF" d="M621.133,805.662c-9.324,0-17.082-0.012-24.417-0.037l-8.123-0.027l-3.157-7.484
			c-42.863-101.617-65.67-201.317-67.791-296.345c-2.002-68.995,6.22-139.083,24.439-208.33l2.407-9.15l9.461-0.011
			c16.6-0.019,34.188-0.029,57.029-0.029c10.511,0,21.023,0.001,31.537,0.005c10.512,0.001,21.023,0.003,31.535,0.003
			c11.521,0,23.035-0.001,34.557-0.009l17.76-0.01l-6.252,16.623c-16.184,43.032-29.596,85.731-39.867,126.911l-2.408,9.662
			l-9.951-0.355c-7.35-0.262-15.186-0.378-25.41-0.378c-4.611,0-9.318,0.024-13.869,0.046c-4.58,0.022-9.316,0.046-13.99,0.046
			c-3.852,0-7.291-0.016-10.51-0.05l-0.479-0.005l-0.477-0.042c-0.015-0.001-0.03-0.001-0.046-0.001
			c-0.578,0-1.256,0.612-1.331,0.903l0.001,0.098l0.004,0.067c-0.093,15.251-0.076,30.783-0.06,45.804
			c0.005,3.532,0.008,7.066,0.011,10.6c16.64-0.008,33.365-0.008,49.644-0.008h14.391l-2.254,14.212
			c-4.889,30.824-7.787,54.369-9.395,76.345l-0.834,11.389h-51.551c-0.002,3.853-0.005,7.703-0.01,11.555
			c-0.014,14.577-0.029,29.651,0.041,44.454l0.002,0.322l-0.013,0.277c0.052,0.254,0.384,0.668,0.637,0.809l0.106-0.004l0.214,0.004
			c2.892,0.021,5.947,0.031,9.619,0.031c2.97,0,5.941-0.006,8.912-0.012c2.992-0.008,5.982-0.016,8.975-0.016
			c3.209,0,6.025,0.008,8.615,0.023l12.016,0.08l0.191,12.014c0.693,43.338,4.729,85.568,11.994,125.514l2.631,14.473l-22.783,0.021
			C635.631,805.656,628.381,805.662,621.133,805.662z"/>
		<path fill="#FFFFFF" d="M729.336,759.023c-5.496-34.553-6.867-72.332-4.189-115.498l0.008-0.102
			c4.193-59.501,16.869-119.29,37.676-177.706c20.158-56.594,47.646-111.116,81.701-162.05l5.357-8.014l9.061,3.297
			c23.094,8.406,54.9,25.019,75.318,56.436c13.641,20.513,20.615,46.532,19.643,73.279l-0.205,5.646l-4.42,3.52
			c-53.281,42.42-99.381,96.265-133.314,155.714c-29.346,51.333-50.359,107.188-62.465,166.022L729.336,759.023z"/>
		<path fill="#040204" d="M354.178,296.565c24.241-0.046,48.497-0.015,72.739-0.015c-24.35,128.992-12.813,264.845,34.657,387.37
			c9.579,25.158,21.147,49.492,33.338,73.469c-35.529-25.145-67.079-55.65-95.409-88.613c-18.253-21.473-35.202-44.129-49.85-68.198
			c-0.264-52.758,0-105.516-0.124-158.272c0.171-9.376-8.132-17.79-17.524-17.742c-16.59-0.233-33.212-0.063-49.818-0.063
			c1.881-4.354,4.416-8.364,6.733-12.486C310.657,373.517,332.503,335.096,354.178,296.565z"/>
		<path fill="#040204" d="M553.967,296.565c51.544-0.061,103.088,0,154.648-0.03c-15.781,41.966-29.434,84.742-40.287,128.263
			c-21.35-0.762-42.729-0.125-64.092-0.342c-7.572-0.67-14.817,5.519-14.74,13.232c-0.14,22.918-0.031,45.837-0.047,68.771
			c20.649-0.015,41.297-0.015,61.93-0.015c-4.072,25.671-7.617,51.45-9.514,77.371c-17.477,0-34.955,0-52.417,0
			c0.016,22.782-0.077,45.577,0.031,68.353c-0.343,7.154,5.908,13.871,13.14,13.637c12.035,0.094,24.085-0.045,36.136,0.031
			c0.682,42.746,4.539,85.457,12.189,127.516c-18.068,0.016-36.121,0.049-54.188-0.014c-38.966-92.377-64.59-191.282-66.829-291.884
			C527.923,432.479,536.412,363.286,553.967,296.565z"/>
		<path fill="#040204" d="M737.412,644.287c8.396-119.137,51.141-234.789,117.334-333.79c27.379,9.967,53.176,26.868,69.252,51.637
			c12.893,19.359,18.475,42.961,17.633,66.083c-54.996,43.786-101.486,98.192-136.332,159.237
			c-30.117,52.682-51.605,110.227-63.828,169.637C735.547,719.854,735.08,681.869,737.412,644.287z"/>
	</g>
	<g>
		<path fill="#FFFFFF" d="M344.99,799.555c-21.971-37.953-47.83-82.801-73.048-127.668l-10.26-18.252l20.938-0.055
			c3.588-0.012,7.181-0.016,10.771-0.016c3.807,0,7.614,0.006,11.42,0.01c3.799,0.002,7.598,0.008,11.397,0.008
			c6.169,0,11.22-0.012,15.896-0.035l0.142,0.002c2.338,0,4.866-2.482,4.984-4.852c0.115-8.041,0.093-16.27,0.072-24.227
			c-0.021-7.869-0.042-16.008,0.065-24.059l0.576-42.719l22.208,36.496c13.426,22.063,29.353,43.849,48.69,66.601
			c17.191,19.998,34.382,37.727,51.89,53.479c-3.924-8.975-7.419-17.518-10.626-25.939c-23.936-61.789-39.088-127.26-45.031-194.587
			c-5.897-66.783-2.61-133.895,9.769-199.47l1.891-10.017l10.193,0.008c11.671,0.008,23.348,0.011,35.018,0.011
			c9.561,0,19.121-0.001,28.681-0.003c9.561-0.003,19.124-0.005,28.685-0.005c11.558,0,23.108,0.003,34.667,0.011l15.927,0.011
			l-4.053,15.403c-17.624,66.986-25.578,134.748-23.64,201.404l0.003,0.085c2.046,91.93,24.207,188.619,65.865,287.382l7.195,17.057
			l-18.511,0.006c-9.396,0.004-18.807,0.006-28.203,0.006c-19.178,0-38.352-0.008-57.527-0.012
			c-19.168-0.006-38.336-0.014-57.507-0.014c-38.508,0-69.609,0.027-97.876,0.082l-7.101,0.014L344.99,799.555z"/>
		<path fill="#FFFFFF" d="M638.855,795.551c-7.504-41.262-11.672-84.84-12.387-129.518l-0.193-12.154l12.15-0.326
			c1.475-0.041,3.027-0.059,4.752-0.059c2.529,0,5.074,0.043,7.535,0.082c2.389,0.041,4.857,0.08,7.234,0.08
			c10.752,0,19.414-0.844,26.75-4.969l0.102-0.057l0.104-0.057c8.344-4.484,11.26-15.039,11.223-22.717l-0.002-0.332l0.018-0.328
			c0.383-7.785-1.936-18.556-9.727-23.297l-0.113-0.068l-0.111-0.072c-7.461-4.764-16.582-5.721-28.881-5.721
			c-1.977,0-4.014,0.021-5.982,0.044c-2.008,0.022-4.086,0.046-6.143,0.046c-1.27,0-2.422-0.008-3.52-0.026l-13.004-0.213
			l0.949-12.97c1.662-22.688,4.633-46.868,9.635-78.4l1.68-10.602l10.732,0.243c2.221,0.05,4.598,0.096,6.939,0.096
			c10.131,0,20.547-0.761,28.098-6.292l0.111-0.082l0.111-0.078c5.816-4.062,9.264-12.315,9.227-22.081l-0.002-0.182l0.006-0.184
			c0.234-9.048-2.748-17.012-7.977-21.306c-6.174-5.022-14.658-6.576-20.691-6.994l-14.619-1.015l3.547-14.217
			c10.496-42.094,24.193-85.703,40.709-129.615l2.998-7.974l8.52,0.011c12.111,0.018,24.621,0.025,38.248,0.025
			c8.939,0,17.877-0.003,26.814-0.01h0.143l0.143,0.003c31.24,0.707,59.813,5.642,84.922,14.669l14.799,5.319l-8.74,13.073
			C797.553,418.144,757.689,531.477,749.674,645.1c-0.848,13.646-1.273,26.713-1.277,39.273
			c12.078-35.848,27.537-70.309,46.234-103.018c17.742-31.083,38.584-60.686,61.941-87.981
			c23.418-27.365,49.461-52.521,77.404-74.769l20.471-16.298l-0.531,26.16c-0.416,20.529-5.041,50.042-24.691,74.111
			c-9.934,12.46-23.008,22.84-39.672,31.45c7.961,3.226,15.6,7.154,22.846,11.757c13.711,8.707,25.396,19.445,34.736,31.916
			c8.719,11.374,15.314,24.159,19.604,38.003c4.334,13.99,6.082,28.326,5.195,42.605c-2.291,37.771-20.555,74.557-50.107,100.908
			c-24.432,22.033-56.563,36.848-92.93,42.842c-18.877,3.309-37.85,3.586-54.152,3.586c-3.039,0-6.078-0.012-9.117-0.023
			c-3.002-0.012-6.004-0.023-9.004-0.023c-1.529,0-3.053,0.002-4.58,0.01h-0.057c-8.42,0.006-16.842,0.006-25.264,0.006h-25.504
			c-15.939,0-33.057,0.002-50.256,0.025l-10.27,0.014L638.855,795.551z"/>
		<path fill="#F44E24" d="M426.917,296.55c42.354,0.03,84.695-0.016,127.05,0.015c-17.555,66.721-26.044,135.914-24.038,204.889
			c2.238,100.603,27.863,199.507,66.829,291.884c-80.373,0.029-160.761-0.094-241.132,0.063
			c-24.537-42.389-48.979-84.85-72.972-127.535c16.498-0.045,33.011,0.049,49.508-0.029c9.05,0.063,17.073-7.818,17.353-16.824
			c0.233-16.139-0.078-32.295,0.14-48.434c14.648,24.069,31.596,46.725,49.85,68.198c28.331,32.963,59.88,63.469,95.409,88.613
			c-12.191-23.977-23.759-48.311-33.338-73.469C414.104,561.396,402.567,425.542,426.917,296.55z"/>
		<path fill="#F44E24" d="M708.615,296.535c21.691,0.03,43.398,0.03,65.088,0.016c27.49,0.62,55.09,4.618,81.043,13.947
			c-66.193,99-108.938,214.653-117.334,333.79c-2.332,37.582-1.865,75.566,4.059,112.805
			c12.223-59.41,33.711-116.955,63.828-169.637c34.846-61.045,81.336-115.451,136.332-159.237
			c-0.48,23.681-6.748,48.03-21.969,66.643c-13.512,16.979-32.855,28.144-52.836,35.903c-4.182,0.87-5.068,7.696-0.498,8.676
			c27.863,6.748,53.754,22.608,71.012,45.682c15.721,20.48,23.93,46.631,22.328,72.428c-2.145,35.373-19.717,69.053-46.041,92.516
			c-24.053,21.707-55.043,34.658-86.793,39.883c-24.707,4.336-49.881,3.25-74.852,3.375c-33.68,0.016-67.357-0.016-101.037,0.029
			c-7.65-42.059-11.508-84.77-12.189-127.516c17.352-0.465,36.119,2.473,51.963-6.438c12.004-6.451,17.758-20.461,17.693-33.6
			c0.639-12.982-4.01-27.336-15.609-34.396c-15.145-9.67-33.865-7.308-50.938-7.587c1.896-25.92,5.441-51.7,9.514-77.371
			c14.463,0.326,30.369,0.373,42.576-8.567c10.26-7.168,14.521-20.122,14.475-32.203c0.295-11.428-3.375-23.665-12.471-31.129
			c-7.76-6.328-17.789-9.064-27.631-9.748C679.182,381.276,692.834,338.5,708.615,296.535z"/>
	</g>
</g>
</svg>
