<?xml version="1.0" encoding="utf-8"?>
<!-- Generator: Adobe Illustrator 25.2.1, SVG Export Plug-In . SVG Version: 6.00 Build 0)  -->
<svg version="1.1" id="Layer_1" xmlns="http://www.w3.org/2000/svg" xmlns:xlink="http://www.w3.org/1999/xlink" x="0px" y="0px"
	 viewBox="0 0 4320 2592" style="enable-background:new 0 0 4320 2592;" xml:space="preserve">
<style type="text/css">
	.st0{display:none;}
	.st1{fill:none;}
	.st2{display:none;fill:#62930C;}
	.st3{fill-rule:evenodd;clip-rule:evenodd;fill:#020201;}
	.st4{fill-rule:evenodd;clip-rule:evenodd;fill:#FFFFFF;}
	.st5{fill-rule:evenodd;clip-rule:evenodd;fill:#D2D0D1;}
	.st6{fill:#FCFEFC;}
	.st7{fill:#050405;}
	.st8{fill:#BC9E5C;}
	.st9{fill:#C4031E;}
	.st10{fill-rule:evenodd;clip-rule:evenodd;fill:#DE7740;}
	.st11{fill-rule:evenodd;clip-rule:evenodd;fill:#954911;}
	.st12{fill-rule:evenodd;clip-rule:evenodd;fill:#231F20;}
	.st13{fill-rule:evenodd;clip-rule:evenodd;fill:url(#SVGID_1_);}
	.st14{fill-rule:evenodd;clip-rule:evenodd;fill:#FBC698;}
	.st15{fill-rule:evenodd;clip-rule:evenodd;fill:url(#SVGID_2_);}
	.st16{fill-rule:evenodd;clip-rule:evenodd;fill:url(#SVGID_3_);}
	.st17{fill-rule:evenodd;clip-rule:evenodd;fill:url(#SVGID_4_);}
	.st18{fill-rule:evenodd;clip-rule:evenodd;fill:url(#SVGID_5_);}
	.st19{fill-rule:evenodd;clip-rule:evenodd;fill:url(#SVGID_6_);}
	.st20{fill-rule:evenodd;clip-rule:evenodd;fill:url(#SVGID_7_);}
	.st21{fill-rule:evenodd;clip-rule:evenodd;fill:url(#SVGID_8_);}
	.st22{fill-rule:evenodd;clip-rule:evenodd;fill:url(#SVGID_9_);}
	.st23{fill:#FFFFFF;}
	.st24{font-family:'Impact';}
	.st25{font-size:110px;}
	.st26{font-size:105.3339px;}
	.st27{font-size:70.3486px;}
	.st28{fill-rule:evenodd;clip-rule:evenodd;fill:url(#SVGID_10_);}
	.st29{fill-rule:evenodd;clip-rule:evenodd;fill:url(#SVGID_11_);}
	.st30{fill-rule:evenodd;clip-rule:evenodd;fill:url(#SVGID_12_);}
	.st31{fill-rule:evenodd;clip-rule:evenodd;fill:url(#SVGID_13_);}
	.st32{fill-rule:evenodd;clip-rule:evenodd;fill:url(#SVGID_14_);}
	.st33{fill-rule:evenodd;clip-rule:evenodd;fill:url(#SVGID_15_);}
	.st34{fill-rule:evenodd;clip-rule:evenodd;fill:url(#SVGID_16_);}
	.st35{fill-rule:evenodd;clip-rule:evenodd;fill:url(#SVGID_17_);}
	.st36{fill-rule:evenodd;clip-rule:evenodd;fill:url(#SVGID_18_);}
	.st37{fill:#020201;}
	.st38{fill:#D2D0D1;}
</style>
<g>
	<rect x="6.8" y="4.7" class="st3" width="4320" height="2588"/>
	<g>
		<polygon class="st4" points="6.8,889.9 1861.8,889.9 1390.6,1707.5 6.8,1707.5 		"/>
		<path class="st5" d="M6.8,1238.9h1653.9l-8,13.9H6.8V1238.9L6.8,1238.9z M1635.4,1282.7l-18.8,32.6H6.8v-32.6H1635.4
			L1635.4,1282.7z M1599.1,1345.7l-9.2,15.9H6.8v-15.9H1599.1L1599.1,1345.7z M1571.6,1393.5l-18.8,32.6H6.8v-32.6H1571.6z"/>
	</g>
	<g>
		<path class="st4" d="M257.7,815.8c67.5-36.4,56.2-14.6,87.5-2.1c31.3,12.6,84.6-8.1,92-11.4c7.5-3.2,7.5-3.2,7.5-3.2
			s-85.2,21.4-70.1-19.8c15.2-41.3,45-7.2,82.7-7.1c37.7,0.1,75-15.1,75-15.1s-74,18.1-109.5-13.8c-24.1-21.7-56.8-16.2-80.2-4.9
			c-24,11.6-35.6,29.4-63.6,35.4c-26.1,5.6-57.2,3.8-70.6-16.2c-22.3-33.2,20.1-80.2,72.4-98.9c52.4-18.6,67-37.4,152.4-5.6
			c85.4,31.7,132.6,125.8,195.9,146.9c63.3,21.2,119.8-12.6,119.8-12.6s-83,34.9-140.2-35.8C551.7,680.9,490.7,605.8,401,588.5
			c-129.8-25-257.9,86.1-394.2,99.3v57.4C93.2,753.3,160.5,868.2,257.7,815.8L257.7,815.8z M6.8,316.6c16-1.9,34.2-5.2,57.8-10.1
			c39.3-8.1,83.1-13.3,112.2-5.2c64.4,17.9,118.5,39.1,156.1,38.3c37.6-0.9,63-50.6,117-79.4c54-28.9,151.8,9.7,151.8,9.7
			s-26.5-5.5-81-0.2c-54.5,5.4-67.9,41.5-40.8,80.7c27.1,39.2,80.2,8.3,165-35.6c84.8-43.9,156.3,0.4,156.3,0.4s-63-43.5-197.7,47.6
			c-134.7,91.1-200.4,55.8-247.7,40.6c-47.4-15.2-158.8-78.1-244.7-43.3C25.2,394.8,14.8,438,29.8,480.6
			c15,42.6,162.4,21.8,193.2,10.8c30.8-11,152.5-49.6,201.8-32.3c49.3,17.2,86.9,15.3,131.9,6.1c45-9.2,152.5-49.6,233.6-39.2
			c81.2,10.4,145.4,127.8,200,211.4c54.6,83.6,138,25.1,138,25.1s0.9-1-36.2,27.4c-37.1,28.5-103.6-1.7-137.5-49.9
			c-33.9-48.3-88.5-141.1-159.3-153.8c-70.9-12.7-179.4,19.5-183.9,79c-4.5,59.4,86.9,64.4,151.7,53.7
			c64.7-10.7,106.8,25.9,106.8,25.9s-49.6-27.5-147.2-0.7C625,671,575,625,530.7,576.9c-44.4-48.2-144.1-127.8-315.5-15.1
			c-73,48-140.6,75.1-208.4,80.8V316.6z"/>
		<path class="st4" d="M257.7,2336.5c67.5-36.4,56.2-14.6,87.5-2.1c31.3,12.6,84.6-8.1,92-11.4c7.5-3.2,7.5-3.2,7.5-3.2
			s-85.2,21.4-70.1-19.8c15.2-41.3,45-7.2,82.7-7.1c37.7,0.1,75-15.1,75-15.1s-74,18.1-109.5-13.8c-24.1-21.7-56.8-16.2-80.2-4.9
			c-24,11.6-35.6,29.4-63.6,35.4c-26.1,5.6-57.2,3.8-70.6-16.2c-22.3-33.2,20.1-80.2,72.4-98.9c52.4-18.6,67-37.4,152.4-5.6
			c85.4,31.7,132.6,125.8,195.9,146.9c63.3,21.2,119.8-12.6,119.8-12.6s-83,34.9-140.2-35.8c-57.2-70.7-118.2-145.9-207.9-163.2
			c-129.8-25-257.9,86.1-394.2,99.3v57.4C93.2,2273.9,160.5,2388.8,257.7,2336.5L257.7,2336.5z M6.8,1837.2
			c16-1.9,34.2-5.2,57.8-10.1c39.3-8.1,83.1-13.3,112.2-5.2c64.4,17.9,118.5,39.1,156.1,38.3c37.6-0.9,63-50.6,117-79.5
			c54-28.9,151.8,9.7,151.8,9.7s-26.5-5.5-81-0.1c-54.5,5.4-67.9,41.5-40.8,80.7c27.1,39.2,80.2,8.3,165-35.6
			c84.8-43.9,156.3,0.4,156.3,0.4s-63-43.5-197.7,47.6c-134.7,91.1-200.4,55.8-247.7,40.6c-47.4-15.2-158.8-78.1-244.7-43.3
			c-85.9,34.7-96.4,77.9-81.4,120.5c15,42.6,162.4,21.8,193.2,10.8c30.8-11,152.5-49.6,201.8-32.3c49.3,17.2,86.9,15.3,131.9,6.1
			c45-9.2,152.5-49.6,233.6-39.2c81.2,10.4,145.4,127.8,200,211.4c54.6,83.6,138,25.1,138,25.1s0.9-1-36.2,27.4
			c-37.1,28.5-103.6-1.7-137.5-49.9c-33.9-48.3-88.5-141.1-159.3-153.8c-70.9-12.7-179.4,19.5-183.9,79
			c-4.5,59.4,86.9,64.4,151.7,53.7c64.7-10.7,106.8,25.9,106.8,25.9s-49.6-27.5-147.2-0.7c-97.6,26.9-147.6-19.1-192-67.3
			c-44.4-48.2-144.1-127.8-315.5-15.1c-73,48-140.6,75.1-208.4,80.8V1837.2z"/>
	</g>
</g>
<g>
	<g>
		<path class="st6" d="M1235.1,929.6c68.1-33.4,143.6-49.4,219.1-53.4c83.3-4.7,167.1,4.4,248.2,23.5c9.3-7,17.9-15.9,28.3-20.8
			c43.6-0.6,87.2-0.1,130.8-0.3c0,46.2,0,92.4,0,138.5c-30.4,0.1-60.8,0.1-91.2,0c-69-44.8-148.1-73.4-229.7-83.2
			c-31.4-3-63.2-5.4-94.7-1.8c-28.4,1.4-58.8,7.5-79.6,28.3c-9.9,9.5-18,25.2-10.2,38.4c9.6,15.9,28.4,22.4,45.3,27.3
			c22,4.6,44.6,4.5,67,6.1c54.1-0.4,108.3,0.4,162.2,4.8c29.9,3.2,59.4,9.2,88.8,15.6c49.5,8.8,96.7,35,127.4,75.3
			c24,31,37.6,71.9,29.8,111.1c-6,33.6-26.4,63.2-51.9,85.1c-22.1,19.3-47.9,33.6-74.7,45.3c-48.8,20.5-100.6,33.4-153,39.6
			c-114.5,12.5-231.5-3.6-339.8-42.1c-6.1,19.8-12.5,40.3-26,56.5c-6.8,8.2-16.4,15.6-27.6,15.3c-17.4,0.2-34.8,0-52.3,0.1
			c0.1-70.7-0.3-141.5,0.2-212.2c19.3,0.3,38.6-0.3,57.8,0.3c7.1,3.3,11.6,10.4,17.4,15.5c59,56.3,137.3,88.6,216.7,102.8
			c48.7,8.7,98.5,11.9,147.8,8.2c41.7-2.7,84.3-15.2,116.4-42.8c18.6-18.6,31.1-46.2,24.1-72.7c-7.6-18.1-24.1-30.8-42.3-37.2
			c-30.4-11.4-63.5-10.6-95.4-12.9c-69-3-138,0.7-207-2.1c-53.6-3.5-107-12.1-158.1-28.7c-31.3-10.7-62.1-29.5-78.1-59.5
			c-11.5-20.9-12.3-46-6.8-68.7C1157.6,983.9,1194.6,950.5,1235.1,929.6z"/>
		<path class="st6" d="M1918.6,1224.7c49,0.1,97.9,0.1,146.9,0c48.4,0,96.9,0.1,145.3,0c6.3,0,12.5,0.1,18.8,0.1
			c0,64.7,0,129.4,0,194c-17.2,0.1-34.4-0.1-51.6,0.1c-1.4-34-6.1-70.2-27.5-98.1c-16.3-22.1-44-33.3-70.9-33.3
			c-59.2-0.1-118.4,0-177.7,0C1914.8,1269.2,1917.2,1246.3,1918.6,1224.7z"/>
		<path class="st6" d="M1420.3,1226c72.7-0.1,145.5,0.4,218.2-0.1c19.1,0.2,39.9,2.7,55.2,15.2c11.4,9.2,13.3,26.4,6.2,38.8
			c-8.9,16.1-25.2,26.4-41.3,34.1c-39.3,17.6-84.3,20.1-126.4,12.3c-3.8-20.7-19.2-41.6-41.7-43.1c-23.3-2-46.8-0.3-70.2-1
			C1420.3,1263.6,1420.3,1244.8,1420.3,1226z"/>
		<path class="st6" d="M1914.5,1418.7c22.2-16.8,35.9-42.8,41.7-69.7c15.7,0,31.5,0,47.3,0c0.3,87.1,0,174.1,0.1,261.2
			c-16.4,0.1-32.9,0.1-49.4-0.1c-11.3-33.3-30.8-64.8-59.2-86.2c-15.3-10.8-33.6-18.6-52.6-18.3c-51.5,0.1-103,0-154.5,0.1
			c-0.1,32.8-0.1,65.7,0,98.5c1.3,21.4,16.9,38.8,33.6,50.8c30.4,20.6,67.6,27.3,103.4,31.2c0.1,14.2,0.1,28.3,0,42.5
			c-153.6,0-307.2,0.1-460.8,0c0-14.2,0-28.3,0-42.5c39.6-3,79.5-9,116.5-24.3c21.9-9.2,43.5-23.5,52.9-46.3
			c1.1-6.6,2.5-13.3,2.5-20c-0.1-47.6,0-95.3-0.1-142.9c43.9,0.6,88-3.9,130.9-13.7c50.9,6.9,102.1,16.1,153.7,11.8
			C1853.5,1447.7,1887.7,1439.5,1914.5,1418.7z"/>
	</g>
	<g>
		<g>
			<path class="st7" d="M1547.7,688.3h81c145.4,4.2,290.6,25.9,430,67.7c103.8,31.3,204.8,73.5,296.9,131.1
				c75.5,47.5,145.8,105.9,197.3,179.3c32.3,45.7,56.6,97.4,68.3,152.2c14.1,64.8,9.2,133.3-12.8,195.8
				c-28.9,83.5-85.4,154.8-151.2,212.7c-82.9,72.3-180.5,126.1-282,167.5c-116.5,47.1-239.3,78.1-363.7,95.2
				c-147,20.3-296.7,20.4-443.8,0.5c-159.7-21.7-317.1-65.3-462.1-136.3c-87.7-43.8-171.2-98.2-239.7-168.8
				c-54.5-56.5-98.8-124.7-118.8-201.1c-6.4-23.4-9.7-47.5-11.5-71.7v-36.7c3.8-75.3,32.8-147.9,76.8-208.7
				c40.2-56.1,91.5-103.5,147.3-143.8c83.9-60.4,177.8-105.8,274.9-140.8C1199.1,723.3,1373.3,693.3,1547.7,688.3z M1483.7,751.9
				c-60.4,4.7-120.5,12.6-179.9,24.6c-130.1,26.6-257.9,70.7-371.6,140.3c-61.5,37.9-118.9,83.6-165.3,139.2
				c-34.3,41.2-62.2,88.1-78.3,139.4c-15.6,48.7-19.5,101-11.7,151.4c12.6,81.1,56,154.5,111.6,213.7
				c69.2,73.2,155.6,128.2,246.7,170.1c154.1,70.2,322.8,104.9,491.5,112.3c23.3-0.2,46.5,2.9,69.8,0.9
				c126.6-0.3,253.2-17.6,375.1-51.8c102.1-29,201.4-70.4,290.5-128.6c73.5-48.3,140.9-108.8,186.7-184.6
				c32.1-53,52.3-114.1,53.3-176.3c1.1-48.9-9.6-97.6-29.1-142.3c-22-50.7-55.1-96-93.4-135.6c-62.1-63.4-137.2-112.9-216.6-151.9
				c-107.2-52.1-222.7-86-340.1-105.4C1710.9,749,1596.8,744.2,1483.7,751.9z"/>
		</g>
		<g>
			<path class="st7" d="M1251.3,903.9c75.4-32.3,157.8-44.8,239.4-46c66.6,0,133.4,7,198.4,21.8c17.3,5.9,24.8-19,41.5-17.6
				c49.2,0.1,98.4,0,147.6,0.1c0,6.5,0,13,0.1,19.5c6.3,0,12.7,0,19.1,0c0,57.2-0.1,114.3,0,171.4c-36,0-72,0.1-107.9,0
				c-7.1,0.2-12.5-5.2-18.4-8.5c-82.6-51.6-180.1-78.6-277.4-78c-22.2,0.8-44.8,1.6-66.4,7.5c-15.1,5.6-32.5,13.9-37.6,30.5
				c23.1,9.8,48.7,8.6,73.2,10.8c58.7,0.4,117.6-0.4,176,6c30.2,2.8,59.7,10,89.3,15.8c45,8.9,87.4,31.7,118.9,65.2
				c9.9,10.6,21.1,20.1,30,31.6c17.4,21.4,29.7,46.9,35.2,73.9c111.5,0.1,222.9-0.1,334.4,0.1c-0.2,6-0.3,11.9-0.5,17.9
				c6.5,1.4,13.2,2,19.9,1.9c0,75.8-0.1,151.5,0.1,227.3c-29-0.2-58,0.6-87.1-0.7c0.2-6.2,0.4-12.5,0.6-18.7c-6.6,0-13.2,0-19.8,0
				c3.3-30.8,0-63.1-13.7-91.2c-6.3-16.1-25.9-19.2-41-20.7c-73.5-0.1-147.1-0.2-220.6,0.1c-42.4,55.5-109.7,84.8-175.4,102.6
				c18.8,5.5,38.6,5.5,58,7.5c36.9,1.7,75.3,1.2,110.1-13c22-8.7,41.5-24.7,52.2-46c7.2-13.2,10.1-28.1,13.1-42.7
				c25.8-0.1,51.6,0.2,77.4-0.1c0.2,6.4,0.3,12.8,0.4,19.2c6.3,0.1,12.6,0.2,19,0.2c0.4,97.9-0.1,195.8,0.3,293.7
				c-25.7,1.9-51.5,1-77.2,0.7c-3.5-6-5.2-12.9-7.6-19.4c-4.1,0.1-8.2,0.1-12.3,0.2c-7.6-23.8-17.8-47.2-34.1-66.4
				c-11.8-10.9-27.6-17.8-43.7-18.8c-46.9-0.2-93.8,0.2-140.6-0.1c-0.3,27-0.7,54.1,0.1,81.1c6.9,16.1,23.1,26.2,38.2,33.9
				c25.3,9.4,52.5,12.1,79.3,14.1c0.4,5.4-0.2,11.1,1.7,16.3c5.6,2.5,11.7,3.8,17.6,5.4c0.2,24.1,0.1,48.3,0.1,72.5
				c-164.8-0.1-329.7,0-494.5-0.1c-0.1-6.3-0.1-12.6-0.2-18.9c-6.4-0.1-12.8-0.2-19.3-0.4c0.2-25.1,0.1-50.2,0.1-75.4
				c38.1-1,76.3-6.1,112.5-18.2c17.6-6.2,35.6-13.9,48.7-27.7c7.2-7.6,11.2-18,11-28.5c0-48.8-0.1-97.6,0-146.4
				c-73.5-2.7-146.9-14.7-217-37c-5.2-1.6-10.4-2.8-15.6-4c-7.4,20.4-17,41.2-34.2,55.2c-7.6,6.1-16.9,10.9-27,10.7
				c-23.8,0.3-47.7-0.1-71.5,0.1c-0.1-6.4-0.1-12.8-0.2-19.1c-6.4,0-12.8,0-19.2,0c0-81.4,0-162.9,0-244.3
				c26.6-0.1,53.2-0.1,79.8-0.1c7.4-0.9,11,7.1,16,11.2c61.3,63,147.1,96.1,232.7,109c16.8,2.7,33.8,4.7,50.8,4.4
				c-6.1-10.1-16.8-16.8-28.8-16.9c-20.8-0.4-41.6,0.1-62.5-0.1c-0.1-6.4-0.2-12.8-0.3-19.3c-6.2,0-12.3,0-18.5-0.1
				c-0.6-26.1,0.3-52.2-0.6-78.4c-51.3-1.9-102-11.4-151.2-25.7c-32.2-9.5-63-26.3-85.1-51.9c-20-17.6-37-40.4-41.4-67.3
				c-7.7-39.5,8.4-80.1,34.5-109.5C1184.6,938.2,1216.9,917.8,1251.3,903.9z M1235.1,929.6c-40.6,20.9-77.5,54.4-91.2,99.1
				c-5.5,22.8-4.7,47.9,6.8,68.7c16,30,46.8,48.8,78.1,59.5c51.1,16.6,104.6,25.2,158.1,28.7c69,2.8,138-0.9,207,2.1
				c31.9,2.2,64.9,1.5,95.4,12.9c18.2,6.4,34.7,19.1,42.3,37.2c7,26.5-5.4,54.1-24.1,72.7c-32.1,27.7-74.7,40.1-116.4,42.8
				c-49.4,3.7-99.2,0.4-147.8-8.2c-79.5-14.2-157.7-46.5-216.7-102.8c-5.8-5.1-10.2-12.1-17.4-15.5c-19.3-0.6-38.6,0.1-57.8-0.3
				c-0.5,70.7-0.1,141.5-0.2,212.2c17.4-0.1,34.8,0.1,52.3-0.1c11.2,0.3,20.8-7.1,27.6-15.3c13.5-16.2,19.9-36.7,26-56.5
				c108.4,38.5,225.3,54.6,339.8,42.1c52.5-6.3,104.3-19.1,153-39.6c26.8-11.7,52.7-26,74.7-45.3c25.6-21.9,46-51.5,51.9-85.1
				c7.8-39.1-5.8-80.1-29.8-111.1c-30.7-40.3-77.9-66.5-127.4-75.3c-29.4-6.3-58.9-12.4-88.8-15.6c-54-4.4-108.1-5.1-162.2-4.8
				c-22.3-1.7-45-1.6-67-6.1c-16.9-4.9-35.7-11.4-45.3-27.3c-7.7-13.2,0.3-28.9,10.2-38.4c20.8-20.9,51.2-26.9,79.6-28.3
				c31.5-3.5,63.3-1.2,94.7,1.8c81.6,9.8,160.8,38.4,229.7,83.2c30.4,0.1,60.8,0.1,91.2,0c0-46.2,0-92.3,0-138.5
				c-43.6,0.2-87.2-0.3-130.8,0.3c-10.4,5-19,13.8-28.3,20.8c-81.1-19-164.9-28.1-248.2-23.5
				C1378.8,880.1,1303.2,896.1,1235.1,929.6z M1918.6,1224.7c-1.4,21.6-3.9,44.6-16.6,62.9c59.2,0,118.4-0.1,177.7,0
				c27-0.1,54.6,11.2,70.9,33.3c21.4,27.8,26.1,64,27.5,98.1c17.2-0.3,34.4,0,51.6-0.1c0.1-64.7,0-129.4,0-194
				c-6.3-0.1-12.6-0.1-18.8-0.1c-48.5,0.1-96.9,0.1-145.3,0C2016.6,1224.7,1967.6,1224.8,1918.6,1224.7z M1420.3,1226
				c0,18.8,0,37.5,0,56.3c23.4,0.7,46.9-1.1,70.2,1c22.5,1.5,37.9,22.3,41.7,43.1c42,7.8,87,5.3,126.4-12.3
				c16.2-7.7,32.4-18,41.3-34.1c7.1-12.4,5.2-29.6-6.2-38.8c-15.3-12.5-36.1-15-55.2-15.2C1565.7,1226.4,1493,1225.9,1420.3,1226z
				 M1914.5,1418.7c-26.8,20.8-60.9,29-94.1,32c-51.6,4.4-102.8-4.9-153.7-11.8c-42.9,9.8-86.9,14.3-130.9,13.7
				c0,47.6,0,95.3,0.1,142.9c0.1,6.8-1.4,13.4-2.5,20c-9.4,22.8-31,37.1-52.9,46.3c-36.9,15.2-76.9,21.2-116.5,24.3
				c0.1,14.2,0,28.3,0,42.5c153.6,0.1,307.2,0.1,460.8,0c0.1-14.2,0.1-28.3,0-42.5c-35.8-4-73-10.6-103.4-31.2
				c-16.7-12-32.3-29.4-33.6-50.8c-0.1-32.8-0.1-65.7,0-98.5c51.5-0.1,103,0.1,154.5-0.1c19-0.3,37.3,7.5,52.6,18.3
				c28.5,21.3,47.9,52.9,59.2,86.2c16.4,0.2,32.9,0.1,49.4,0.1c-0.1-87.1,0.1-174.1-0.1-261.2c-15.8,0-31.5,0-47.3,0
				C1950.4,1375.9,1936.7,1401.9,1914.5,1418.7z"/>
		</g>
	</g>
	<g>
		<g>
			<path class="st8" d="M1483.7,751.9c113.2-7.8,227.2-2.9,339.2,15.5c117.4,19.4,232.9,53.3,340.1,105.4
				c79.4,39,154.5,88.5,216.6,151.9c38.2,39.7,71.3,84.9,93.4,135.6c19.5,44.7,30.2,93.5,29.1,142.3c-1,62.2-21.2,123.3-53.3,176.3
				c-45.8,75.8-113.2,136.3-186.7,184.6c-89.1,58.2-188.4,99.6-290.5,128.6c-121.9,34.2-248.5,51.5-375.1,51.8
				c-23.3,2-46.5-1.2-69.8-0.9c-168.7-7.4-337.4-42.1-491.5-112.3c-91.1-41.9-177.5-96.9-246.7-170.1
				c-55.6-59.2-99-132.6-111.6-213.7c-7.8-50.5-3.9-102.8,11.7-151.4c16.1-51.3,44-98.2,78.3-139.4
				c46.5-55.6,103.8-101.3,165.3-139.2c113.6-69.6,241.4-113.7,371.6-140.3C1363.2,764.5,1423.3,756.7,1483.7,751.9z M1528.4,768.6
				c-69.9,3.5-139.7,11.6-208.2,26.1c-122.9,25.9-243.2,70.2-348.1,140c-58.7,39.4-112.6,87.2-153.9,144.9
				c-44.1,61.4-72.6,135.6-72.4,211.8c-1,67.7,20.6,134.5,56,191.8c42.4,69.2,103,125.5,169.6,170.9c83.5,56.5,177.3,96.7,274,124.2
				c129.3,36.5,264.6,50.8,398.8,45.3c133.3-5.5,266.3-30.7,390.6-79.7c91.1-36.2,178.1-85.3,250.7-151.8
				c62.5-57.4,114.2-129.5,135.9-212.4c19-70.6,13.6-147.2-14-214.8c-30.6-75.6-84.8-139.5-147.6-190.5
				c-76.2-62-164.9-107-257.3-139.5C1850.9,781.7,1688.6,762.1,1528.4,768.6z"/>
		</g>
	</g>
	<g>
		<g>
			<path class="st9" d="M1528.4,768.6c160.2-6.5,322.5,13.1,474.2,66.2c92.4,32.5,181.1,77.6,257.3,139.5
				c62.7,51,117,115,147.6,190.5c27.6,67.6,33,144.2,14,214.8c-21.7,82.9-73.4,155.1-135.9,212.4
				c-72.6,66.5-159.5,115.6-250.7,151.8c-124.3,49-257.3,74.2-390.6,79.7c-134.2,5.6-269.5-8.8-398.8-45.3
				c-96.8-27.6-190.5-67.8-274-124.2c-66.6-45.5-127.2-101.8-169.6-170.9c-35.3-57.3-57-124.1-56-191.8
				c-0.3-76.2,28.3-150.5,72.4-211.8c41.3-57.7,95.2-105.5,153.9-144.9c105-69.8,225.3-114,348.1-140
				C1388.7,780.3,1458.5,772.1,1528.4,768.6z M1251.3,903.9c-34.4,13.9-66.6,34.3-91.2,62.5c-26,29.4-42.2,70-34.5,109.5
				c4.4,26.9,21.3,49.7,41.4,67.3c22.2,25.7,52.9,42.5,85.1,51.9c49.2,14.3,100,23.8,151.2,25.7c0.9,26.1,0,52.3,0.6,78.4
				c6.1,0,12.3,0,18.5,0.1c0.1,6.4,0.3,12.8,0.3,19.3c20.8,0.3,41.6-0.3,62.5,0.1c11.9,0.1,22.7,6.9,28.8,16.9
				c-17,0.4-34-1.6-50.8-4.4c-85.6-12.9-171.4-45.9-232.7-109c-5-4.1-8.6-12.1-16-11.2c-26.6,0-53.2,0-79.8,0.1
				c-0.1,81.4,0,162.8,0,244.3c6.4,0,12.8,0,19.2,0c0,6.4,0.1,12.7,0.2,19.1c23.8-0.1,47.7,0.2,71.5-0.1c10,0.2,19.3-4.6,27-10.7
				c17.2-14,26.8-34.9,34.2-55.2c5.2,1.2,10.5,2.4,15.6,4c70.2,22.3,143.5,34.2,217,37c-0.1,48.8,0,97.6,0,146.4
				c0.2,10.5-3.8,20.9-11,28.5c-13.1,13.8-31,21.6-48.7,27.7c-36.2,12-74.5,17.2-112.5,18.2c-0.1,25.1,0.1,50.2-0.1,75.4
				c6.4,0.2,12.8,0.3,19.3,0.4c0.1,6.3,0.1,12.6,0.2,18.9c164.8,0.1,329.7,0,494.5,0.1c0-24.2,0.1-48.3-0.1-72.5
				c-5.9-1.6-12-2.9-17.6-5.4c-2-5.2-1.3-10.9-1.7-16.3c-26.7-2-54-4.7-79.3-14.1c-15.1-7.7-31.3-17.8-38.2-33.9
				c-0.8-27-0.4-54.1-0.1-81.1c46.9,0.3,93.8-0.1,140.6,0.1c16.1,1,31.9,8,43.7,18.8c16.2,19.2,26.5,42.7,34.1,66.4
				c4.1-0.1,8.2-0.1,12.3-0.2c2.3,6.5,4,13.3,7.6,19.4c25.7,0.4,51.5,1.3,77.2-0.7c-0.4-97.9,0.2-195.8-0.3-293.7
				c-6.3-0.1-12.7-0.2-19-0.2c-0.2-6.4-0.3-12.8-0.4-19.2c-25.8,0.3-51.6,0-77.4,0.1c-2.9,14.6-5.8,29.5-13.1,42.7
				c-10.7,21.3-30.2,37.3-52.2,46c-34.8,14.2-73.1,14.7-110.1,13c-19.4-2-39.2-1.9-58-7.5c65.7-17.8,133-47.1,175.4-102.6
				c73.5-0.2,147.1-0.1,220.6-0.1c15.1,1.5,34.7,4.6,41,20.7c13.7,28.1,17,60.4,13.7,91.2c6.6,0,13.2,0,19.8,0
				c-0.2,6.2-0.4,12.5-0.6,18.7c29,1.3,58,0.5,87.1,0.7c-0.1-75.8,0-151.6-0.1-227.3c-6.7,0.1-13.3-0.5-19.9-1.9
				c0.2-6,0.4-11.9,0.5-17.9c-111.5-0.3-222.9,0-334.4-0.1c-5.4-27.1-17.8-52.5-35.2-73.9c-9-11.5-20.1-21-30-31.6
				c-31.5-33.6-73.8-56.3-118.9-65.2c-29.7-5.8-59.2-13-89.3-15.8c-58.4-6.4-117.3-5.6-176-6c-24.5-2.2-50.1-1-73.2-10.8
				c5.1-16.6,22.5-24.9,37.6-30.5c21.6-5.8,44.2-6.7,66.4-7.5c97.3-0.7,194.8,26.4,277.4,78c5.8,3.2,11.2,8.7,18.4,8.5
				c36,0.1,71.9,0,107.9,0c-0.1-57.1,0-114.2,0-171.4c-6.4,0-12.8,0-19.1,0c0-6.5-0.1-13-0.1-19.5c-49.2-0.1-98.4,0-147.6-0.1
				c-16.6-1.4-24.2,23.5-41.5,17.6c-65-14.8-131.8-21.8-198.4-21.8C1409.1,859.1,1326.6,871.6,1251.3,903.9z"/>
		</g>
	</g>
</g>
<g>
	<path class="st10" d="M2868.4,209.6l32.3,34.5l35.6,95.7c-2.5-2.3-12.4-9.8-28.3-7.7c-1.4-34.7-24.2-66.3-43.8-81.4
		c3.5-6.1,6.4-12.8,8.3-20C2872.5,224.3,2871,217,2868.4,209.6z"/>
	<path class="st11" d="M2806.3,367.6c2.3,4.7,5.2,9.2,8.5,13.3c7.8,9.8,19.1,19.3,34.6,27.8c17.2-9.8,29.3-20.7,37.4-31.9
		c3.3-4.6,7.3-11.8,9.4-17.2c2.5-6.4,3.8-12.9,4.3-19.3c0.8-10.9-0.9-21.5-4.3-31.5c-2.2-6.5-5.2-13-8.6-18.8
		c-6.6-11.4-14.9-21-22.9-27.7c-1.7-1.4-3.4-2.8-5.3-4.1c-5.7,8.8-12.7,16.8-20.2,23.9c-5.9,5.6-12.2,11-18.2,16.4
		c-6.7,14.5-11.1,30.1-13.2,46C2806.8,352.1,2806.3,360,2806.3,367.6z"/>
	<path class="st10" d="M2828.6,296.9c20.9-3.9,39.8-2.4,58.3,4.7c5.9,11.8,9.5,24.9,8.5,38c-0.5,6.9-2.2,13.8-5.3,20.7
		c-11.7-5.2-25.7-8.2-40.8-8.2c-6.5,0-13.7,0.6-20.8,2C2821.9,326.7,2827.4,301.8,2828.6,296.9L2828.6,296.9z M2828.3,378.4
		c-2.2-3.4-4.1-6.9-5.8-10.4c2.1-0.6,4.3-1,6.5-1.5c3.7,7.4,8.6,14.7,15.1,21.4c-5.2-7.1-9.1-14.6-11.9-22
		c5.5-0.9,11.3-1.3,17.2-1.3c12.7,0,24.6,2.2,35.1,5.9c-7.2,10.6-18.4,20.9-34.6,30.2c-13.9-7.6-26.9-19.3-35.7-30.1
		c2.2-0.8,4.5-1.5,6.8-2.2C2823,371.8,2825.5,375.1,2828.3,378.4L2828.3,378.4z M2859.7,339.2c-4.6-0.5-8.7-0.4-11.6-0.2
		c-0.1,2.4-0.1,4.9-0.2,7.5c3.9-0.1,7.8,0,11.6,0.4C2859.5,344.3,2859.6,341.7,2859.7,339.2L2859.7,339.2z M2859.9,326.2
		c-4.6-0.5-8.7-0.4-11.6-0.2c0,2.5-0.1,5.1-0.1,7.8c3-0.2,7.1-0.2,11.6,0.2C2859.9,331.3,2859.9,328.7,2859.9,326.2L2859.9,326.2z
		 M2860,313.2c-4.6-0.5-8.7-0.4-11.6-0.2c0,2.4,0,5,0,7.8c3-0.2,7.1-0.2,11.6,0.2C2860,318.3,2860,315.6,2860,313.2L2860,313.2z
		 M2860,301.1c-3.8-0.4-7.7-0.6-11.6-0.4c0,1.9,0,4.3,0.1,7.2c3-0.2,7.1-0.2,11.6,0.2C2860,305.3,2860,302.9,2860,301.1L2860,301.1z
		 M2812.2,349.4c0.9,2.7,1.9,5.4,3.1,8.2c-1.1,0.4-2.1,0.8-3.2,1.2C2812,355.6,2812,352.4,2812.2,349.4L2812.2,349.4z M2819.7,306.9
		c-1.9,5.6-4.4,14.5-6,25.8c0.5,7.6,1.8,15.8,4.4,24c2-0.6,4.1-1.2,6.1-1.7C2819.1,339.6,2817.8,323,2819.7,306.9L2819.7,306.9z
		 M2859,266.4c6.1,4.9,12.9,12,18.9,20.4c-11.1-4.2-23.2-5.3-34.4-3.7C2850.9,276.8,2856.2,270.3,2859,266.4z"/>
	<path class="st12" d="M2637.2,467.5c58.1,46.3,143.7,21.6,170.4-43.3c-44.8,62.7-119.1,53.3-116.7,53.5c68.9-7.2,96.8-48.7,107-71
		c-25,32.7-61.1,43.2-61.1,43.2c33.2-20.2,52.5-45.8,62.6-66.7c-2.2-25.2-0.5-58.9,15.7-92.4l8.4-3.6l4-20.1l-22.3-9.9l-17.3-0.3
		l21.2-12.2l-2.8-2.3l-36.8,9.9l-27.4,32.5l-14.4,34.5l-12.4,8.6c4.7,2.2,19,10.3,31.3,28.7l22.7-22.8l18.9-28.4l-13.6,32
		L2657,463.7L2637.2,467.5L2637.2,467.5z M2831.2,277l3.8-13.5l-26-11.5l11.2-6.4l-12.5-10l-41.7,11.2l-29.3,34.8l-14.1,33.7
		l-67.3,38.5c-2.9-1.6-11.3-6-16.8-8.1c-17.4-6.5-53.2-14.8-88,9.8c0.5,1.7,1.4,4.7,3,8.5c-4.8-1.3-9.7-4-13.7-7.3
		c-41.9-34.1-37.5-87.4-37.5-87.4c3.7-8.3,26.1-39.9,69.1-56.5l5.5,17.3c26.9,40.8,73.8,36.8,116.3,66.9
		c27.3-30.8,32.8-68.5,31.8-97.5c5-15.8,7.4-34.9,8.4-46.1c15.1-6.6,44.1-14.3,87.3-5.9c14.7,9.2,42.8,51.9,43.1,80
		C2858.2,249.3,2842.9,266.5,2831.2,277z"/>
	<linearGradient id="SVGID_1_" gradientUnits="userSpaceOnUse" x1="2584.6521" y1="274.3436" x2="2613.1924" y2="380.8572">
		<stop  offset="0" style="stop-color:#FFF100"/>
		<stop  offset="0.5" style="stop-color:#FFC315"/>
		<stop  offset="1" style="stop-color:#F48120"/>
	</linearGradient>
	<path class="st13" d="M2668.7,346.2c-39.1-36.5-90.2-35.8-134.3-21.7c55.6-29.9,112-13.1,142.5,17l8.6-4.9
		c-23.6-29.4-96.8-62-171.9-12.9c6.3,12.8,14.9,23.9,26,32.9c42.4-37.4,95.1-21.8,120.8-5.6L2668.7,346.2z"/>
	<path class="st10" d="M2596.7,194.3c1.5,7.1,7.8,32.4,24,53.8c8.3-0.7,16.2-3,23-5.6c10.9,5.2,37.3,23.4,46.7,32.1
		c14.1-18.9,21.8-44.2,20.4-73.5c-4.9,12.1-11.4,23.4-19.1,30.1c-10,8.8-27.1,9.5-34.3-2.5c-3.9-6.6-3-15.6-2.6-22.2
		c0.8-12.8-3.8-9.4-15.4-8.6C2621.5,199,2606.1,196.5,2596.7,194.3z"/>
	<path class="st10" d="M2564.2,360.1c0.9,4.7,12,42.9,12,42.9l44.5,56.5l26.7-3l94.5-95.3l-0.7-1.1c-6.9-10.4-17.4-21-28.8-26.5
		l-3.2-1.5l-62.7,43.6c-0.4-5.4-0.8-10.7-1.1-16.1C2615.5,342.8,2589,345.1,2564.2,360.1z"/>
	<path class="st14" d="M2564.2,360.1c0.9,4.7,12,42.9,12,42.9l44.5,56.5l26.4-2.9c-32.4-33.7-47-89.7-47-89.7l22.6,33.4l-8.4-51.7
		C2596.6,346.1,2580.1,350.5,2564.2,360.1z"/>
	<linearGradient id="SVGID_2_" gradientUnits="userSpaceOnUse" x1="2627.1948" y1="73.5908" x2="2669.459" y2="231.323">
		<stop  offset="0" style="stop-color:#FFF100"/>
		<stop  offset="0.5" style="stop-color:#FFC315"/>
		<stop  offset="1" style="stop-color:#F48120"/>
	</linearGradient>
	<path class="st15" d="M2666,190.4c-1-11-6.4-15.4-19.5-14.5c-44.2,3.2-71.9-9.1-71.9-9.1c0-19.5,3.2-42,14.2-58.7
		c26.8-40.5,86.4-43,116.6-7.8c27.9,32.5,17.6,87.8-11.1,118.7c-10.7,11.5-19.6,12.1-26,7.3C2660.2,220.3,2666.9,199.9,2666,190.4z"
		/>
	<path class="st12" d="M2586.9,191.6c0,0.1,22.9,8.2,52.4,6.2c11.7-0.8,16.3-4.2,15.4,8.6c-0.4,6.6-1.3,15.6,2.6,22.2
		c7.2,12.1,24.3,11.4,34.3,2.5c7.8-6.9,14.4-18.4,19.3-30.8c4-10.2,6.5-20.4,8-28.9c-4.2,17.8-12.9,34.7-24.7,47.5
		c-10.7,11.5-19.6,12.1-26,7.3c-8-6.1-1.4-26.5-2.2-35.9c-1-11-6.4-15.4-19.5-14.5c-13.7,1-25.8,0.5-36-0.7c-0.1-3.8,0-7.7,0.3-11.6
		c3.4-48.4,33-84.2,66.2-80c0.6,0.1,1.2,0.2,1.8,0.3c-9.3-3.5-22.8-3.9-32.1-0.4c-25,9.7-44.6,39.9-47.4,77.8
		c-0.3,4.1-0.4,8.2-0.3,12.2c-3.7-0.7-6.9-1.4-9.8-2.1c-0.1-3.9,0-7.9,0.3-12c3-40.6,25.2-72.4,52.7-79.6
		c-10.5,1.3-18.2,3.9-26.5,10.6c-17.5,14-30.1,39.2-32.3,69C2582.7,171,2584,179.9,2586.9,191.6z"/>
	<path class="st12" d="M2687.7,205.7c-6.4,10.6-20.4,22.4-46.3,28.3c-24,5.5-45.5,3.7-52.3-3.7c-2-2.2-3.7-7.2-5-11.1
		c6.9,7,27.8,10.1,52.3,6.9C2660.8,222.9,2675.1,215.2,2687.7,205.7L2687.7,205.7z M2580.8,187.4c-3.4,2.1-6.6,5.3-5.5,9.5
		c1.2,4.4,2.6,9.7,4.7,12.2c7.1,8.7,30.8,12.2,57.9,7.8c29.2-4.8,46.2-17.3,53.3-28.2c-13.9,10.5-30.9,17.2-58.3,19.1
		c-21.8,1.5-40.7-1.3-51.3-6.6c0.3-0.6,0.7-1.4,1.5-2.4C2582.1,194.9,2581.4,191.2,2580.8,187.4z"/>
	<path class="st14" d="M2900.7,244.2l25.1,89.7c4.6,1.6,7.9,3.9,9.7,5.3c0.3,0.2,0.6,0.5,0.9,0.7L2900.7,244.2L2900.7,244.2z"/>
	<linearGradient id="SVGID_3_" gradientUnits="userSpaceOnUse" x1="2813.8528" y1="158.3472" x2="2837.9199" y2="248.1672">
		<stop  offset="0" style="stop-color:#FFF100"/>
		<stop  offset="0.5" style="stop-color:#FFC315"/>
		<stop  offset="1" style="stop-color:#F48120"/>
	</linearGradient>
	<path class="st16" d="M2790.5,144c6.3,9.8,29.8,55.3,26.8,66.8c-2.9,11.3-6.3,18.9-10.3,25.1l0.7-0.2l12.4,10
		c4.9-7.1,14.2-23.1,13.3-28.1c-4.3-22.8-13-42.3-22.7-63.6c13.5,19.2,32.9,58.8,30.7,67.3c-2.2,8.5-15.8,32.1-20.2,36.4l13.7,6.1
		c7.2-7.1,17.7-21,22-36.7c2.9-10.4-5.4-28.4-15.4-45.2c-8.4-14.1-18-27.3-23.3-34.6C2809.1,145.4,2799.8,144.3,2790.5,144z"/>
	<path class="st12" d="M2849.4,408.7l25.2,2.2l24.1-9.8l22-18l16.7-18l-0.4-24.6c0,0-10.4-10.8-28.9-8.3c0.1,3,0.1,6.1-0.1,9.2
		l-26.8,0.5l-1.4,11.5l16.3,6.7c-2.3,5.6-5.8,12-9.2,16.8C2878.7,388.1,2866.6,398.9,2849.4,408.7z"/>
</g>
<g>
	<path class="st10" d="M3471.9,209.6l32.3,34.5l35.6,95.7c-2.5-2.3-12.4-9.8-28.3-7.7c-1.4-34.7-24.2-66.3-43.8-81.4
		c3.5-6.1,6.4-12.8,8.3-20C3476,224.3,3474.4,217,3471.9,209.6z"/>
	<path class="st11" d="M3409.7,367.6c2.3,4.7,5.2,9.2,8.5,13.3c7.8,9.8,19.1,19.3,34.6,27.8c17.2-9.8,29.3-20.7,37.4-31.9
		c3.3-4.6,7.3-11.8,9.4-17.2c2.5-6.4,3.8-12.9,4.3-19.3c0.8-10.9-0.9-21.5-4.3-31.5c-2.2-6.5-5.2-13-8.6-18.8
		c-6.6-11.4-14.9-21-22.9-27.7c-1.7-1.4-3.4-2.8-5.3-4.1c-5.7,8.8-12.7,16.8-20.2,23.9c-5.9,5.6-12.2,11-18.2,16.4
		c-6.7,14.5-11.1,30.1-13.2,46C3410.3,352.1,3409.7,360,3409.7,367.6z"/>
	<path class="st10" d="M3432.1,296.9c20.9-3.9,39.8-2.4,58.3,4.7c5.9,11.8,9.5,24.9,8.5,38c-0.5,6.9-2.2,13.8-5.3,20.7
		c-11.7-5.2-25.7-8.2-40.8-8.2c-6.5,0-13.7,0.6-20.8,2C3425.3,326.7,3430.8,301.8,3432.1,296.9L3432.1,296.9z M3431.8,378.4
		c-2.2-3.4-4.1-6.9-5.8-10.4c2.1-0.6,4.3-1,6.5-1.5c3.7,7.4,8.6,14.7,15.1,21.4c-5.2-7.1-9.1-14.6-11.9-22
		c5.5-0.9,11.3-1.3,17.2-1.3c12.7,0,24.6,2.2,35.1,5.9c-7.2,10.6-18.4,20.9-34.6,30.2c-13.9-7.6-26.9-19.3-35.7-30.1
		c2.2-0.8,4.5-1.5,6.8-2.2C3426.5,371.8,3429,375.1,3431.8,378.4L3431.8,378.4z M3463.2,339.2c-4.6-0.5-8.7-0.4-11.6-0.2
		c-0.1,2.4-0.1,4.9-0.2,7.5c3.9-0.1,7.8,0,11.6,0.4C3463,344.3,3463.1,341.7,3463.2,339.2L3463.2,339.2z M3463.4,326.2
		c-4.6-0.5-8.7-0.4-11.6-0.2c0,2.5-0.1,5.1-0.1,7.8c3-0.2,7.1-0.2,11.6,0.2C3463.3,331.3,3463.4,328.7,3463.4,326.2L3463.4,326.2z
		 M3463.5,313.2c-4.6-0.5-8.7-0.4-11.6-0.2c0,2.4,0,5,0,7.8c3-0.2,7.1-0.2,11.6,0.2C3463.5,318.3,3463.5,315.6,3463.5,313.2
		L3463.5,313.2z M3463.4,301.1c-3.8-0.4-7.7-0.6-11.6-0.4c0,1.9,0,4.3,0.1,7.2c3-0.2,7.1-0.2,11.6,0.2
		C3463.5,305.3,3463.5,302.9,3463.4,301.1L3463.4,301.1z M3415.6,349.4c0.9,2.7,1.9,5.4,3.1,8.2c-1.1,0.4-2.1,0.8-3.2,1.2
		C3415.5,355.6,3415.5,352.4,3415.6,349.4L3415.6,349.4z M3423.2,306.9c-1.9,5.6-4.4,14.5-6,25.8c0.5,7.6,1.8,15.8,4.4,24
		c2-0.6,4.1-1.2,6.1-1.7C3422.5,339.6,3421.2,323,3423.2,306.9L3423.2,306.9z M3462.5,266.4c6.1,4.9,12.9,12,18.9,20.4
		c-11.1-4.2-23.2-5.3-34.4-3.7C3454.4,276.8,3459.6,270.3,3462.5,266.4z"/>
	<path class="st12" d="M3240.7,467.5c58.1,46.3,143.7,21.6,170.4-43.3c-44.8,62.7-119.1,53.3-116.7,53.5c68.9-7.2,96.8-48.7,107-71
		c-25,32.7-61.1,43.2-61.1,43.2c33.2-20.2,52.5-45.8,62.6-66.7c-2.2-25.2-0.5-58.9,15.7-92.4l8.4-3.6l4-20.1l-22.3-9.9l-17.3-0.3
		l21.2-12.2l-2.8-2.3l-36.8,9.9l-27.4,32.5l-14.4,34.5l-12.4,8.6c4.7,2.2,19,10.3,31.3,28.7l22.7-22.8l18.9-28.4l-13.6,32
		l-117.5,126.3L3240.7,467.5L3240.7,467.5z M3434.6,277l3.8-13.5l-26-11.5l11.2-6.4l-12.5-10l-41.7,11.2l-29.3,34.8l-14.1,33.7
		l-67.3,38.5c-2.9-1.6-11.3-6-16.8-8.1c-17.4-6.5-53.2-14.8-88,9.8c0.5,1.7,1.4,4.7,3,8.5c-4.8-1.3-9.7-4-13.7-7.3
		c-41.9-34.1-37.5-87.4-37.5-87.4c3.7-8.3,26.1-39.9,69.1-56.5l5.5,17.3c26.9,40.8,73.8,36.8,116.3,66.9
		c27.3-30.8,32.8-68.5,31.8-97.5c5-15.8,7.4-34.9,8.4-46.1c15.1-6.6,44.1-14.3,87.3-5.9c14.7,9.2,42.8,51.9,43.1,80
		C3461.6,249.3,3446.4,266.5,3434.6,277z"/>
	<linearGradient id="SVGID_4_" gradientUnits="userSpaceOnUse" x1="3188.1248" y1="274.3436" x2="3216.6648" y2="380.8572">
		<stop  offset="0" style="stop-color:#FFF100"/>
		<stop  offset="0.5" style="stop-color:#FFC315"/>
		<stop  offset="1" style="stop-color:#F48120"/>
	</linearGradient>
	<path class="st17" d="M3272.2,346.2c-39.1-36.5-90.2-35.8-134.3-21.7c55.6-29.9,112-13.1,142.5,17l8.6-4.9
		c-23.6-29.4-96.8-62-171.9-12.9c6.3,12.8,14.9,23.9,26,32.9c42.4-37.4,95.1-21.8,120.8-5.6L3272.2,346.2z"/>
	<path class="st10" d="M3200.1,194.3c1.5,7.1,7.8,32.4,24,53.8c8.3-0.7,16.2-3,23-5.6c10.9,5.2,37.3,23.4,46.7,32.1
		c14.1-18.9,21.8-44.2,20.4-73.5c-4.9,12.1-11.4,23.4-19.1,30.1c-10,8.8-27.1,9.5-34.3-2.5c-3.9-6.6-3-15.6-2.6-22.2
		c0.8-12.8-3.8-9.4-15.4-8.6C3225,199,3209.5,196.5,3200.1,194.3z"/>
	<path class="st10" d="M3167.7,360.1c0.9,4.7,12,42.9,12,42.9l44.5,56.5l26.7-3l94.5-95.3l-0.7-1.1c-6.9-10.4-17.4-21-28.8-26.5
		l-3.2-1.5l-62.7,43.6c-0.4-5.4-0.8-10.7-1.1-16.1C3218.9,342.8,3192.5,345.1,3167.7,360.1z"/>
	<path class="st14" d="M3167.7,360.1c0.9,4.7,12,42.9,12,42.9l44.5,56.5l26.4-2.9c-32.4-33.7-47-89.7-47-89.7l22.6,33.4l-8.4-51.7
		C3200.1,346.1,3183.6,350.5,3167.7,360.1z"/>
	<linearGradient id="SVGID_5_" gradientUnits="userSpaceOnUse" x1="3230.6675" y1="73.5908" x2="3272.9316" y2="231.323">
		<stop  offset="0" style="stop-color:#FFF100"/>
		<stop  offset="0.5" style="stop-color:#FFC315"/>
		<stop  offset="1" style="stop-color:#F48120"/>
	</linearGradient>
	<path class="st18" d="M3269.5,190.4c-1-11-6.4-15.4-19.5-14.5c-44.2,3.2-71.9-9.1-71.9-9.1c0-19.5,3.2-42,14.2-58.7
		c26.8-40.5,86.4-43,116.6-7.8c27.9,32.5,17.6,87.8-11.1,118.7c-10.7,11.5-19.6,12.1-26,7.3C3263.7,220.3,3270.4,199.9,3269.5,190.4
		z"/>
	<path class="st12" d="M3190.4,191.6c0,0.1,22.9,8.2,52.4,6.2c11.7-0.8,16.3-4.2,15.4,8.6c-0.4,6.6-1.3,15.6,2.6,22.2
		c7.2,12.1,24.3,11.4,34.3,2.5c7.8-6.9,14.4-18.4,19.3-30.8c4-10.2,6.5-20.4,8-28.9c-4.2,17.8-12.9,34.7-24.7,47.5
		c-10.7,11.5-19.6,12.1-26,7.3c-8-6.1-1.4-26.5-2.2-35.9c-1-11-6.4-15.4-19.5-14.5c-13.7,1-25.8,0.5-36-0.7c-0.1-3.8,0-7.7,0.3-11.6
		c3.4-48.4,33-84.2,66.2-80c0.6,0.1,1.2,0.2,1.8,0.3c-9.3-3.5-22.8-3.9-32.1-0.4c-25,9.7-44.6,39.9-47.4,77.8
		c-0.3,4.1-0.4,8.2-0.3,12.2c-3.7-0.7-6.9-1.4-9.8-2.1c-0.1-3.9,0-7.9,0.3-12c3-40.6,25.2-72.4,52.7-79.6
		c-10.5,1.3-18.2,3.9-26.5,10.6c-17.5,14-30.1,39.2-32.3,69C3186.2,171,3187.5,179.9,3190.4,191.6z"/>
	<path class="st12" d="M3291.1,205.7c-6.4,10.6-20.4,22.4-46.3,28.3c-24,5.5-45.5,3.7-52.3-3.7c-2-2.2-3.7-7.2-5-11.1
		c6.9,7,27.8,10.1,52.3,6.9C3264.3,222.9,3278.6,215.2,3291.1,205.7L3291.1,205.7z M3184.3,187.4c-3.4,2.1-6.6,5.3-5.5,9.5
		c1.2,4.4,2.6,9.7,4.7,12.2c7.1,8.7,30.8,12.2,57.9,7.8c29.2-4.8,46.2-17.3,53.3-28.2c-13.9,10.5-30.9,17.2-58.3,19.1
		c-21.8,1.5-40.7-1.3-51.3-6.6c0.3-0.6,0.7-1.4,1.5-2.4C3185.6,194.9,3184.9,191.2,3184.3,187.4z"/>
	<path class="st14" d="M3504.2,244.2l25.1,89.7c4.6,1.6,7.9,3.9,9.7,5.3c0.3,0.2,0.6,0.5,0.9,0.7L3504.2,244.2L3504.2,244.2z"/>
	<linearGradient id="SVGID_6_" gradientUnits="userSpaceOnUse" x1="3417.3254" y1="158.3472" x2="3441.3926" y2="248.1673">
		<stop  offset="0" style="stop-color:#FFF100"/>
		<stop  offset="0.5" style="stop-color:#FFC315"/>
		<stop  offset="1" style="stop-color:#F48120"/>
	</linearGradient>
	<path class="st19" d="M3393.9,144c6.3,9.8,29.8,55.3,26.8,66.8c-2.9,11.3-6.3,18.9-10.3,25.1l0.7-0.2l12.4,10
		c4.9-7.1,14.2-23.1,13.3-28.1c-4.3-22.8-13-42.3-22.7-63.6c13.5,19.2,32.9,58.8,30.7,67.3c-2.2,8.5-15.8,32.1-20.2,36.4l13.7,6.1
		c7.2-7.1,17.7-21,22-36.7c2.9-10.4-5.4-28.4-15.4-45.2c-8.4-14.1-18-27.3-23.3-34.6C3412.5,145.4,3403.2,144.3,3393.9,144z"/>
	<path class="st12" d="M3452.8,408.7l25.2,2.2l24.1-9.8l22-18l16.7-18l-0.4-24.6c0,0-10.4-10.8-28.9-8.3c0.1,3,0.1,6.1-0.1,9.2
		l-26.8,0.5l-1.4,11.5l16.3,6.7c-2.3,5.6-5.8,12-9.2,16.8C3482.2,388.1,3470,398.9,3452.8,408.7z"/>
</g>
<g>
	<path class="st10" d="M4075.4,209.6l32.3,34.5l35.6,95.7c-2.5-2.3-12.4-9.8-28.3-7.7c-1.4-34.7-24.2-66.3-43.8-81.4
		c3.5-6.1,6.4-12.8,8.3-20C4079.4,224.3,4077.9,217,4075.4,209.6z"/>
	<path class="st11" d="M4013.2,367.6c2.3,4.7,5.2,9.2,8.5,13.3c7.8,9.8,19.1,19.3,34.6,27.8c17.2-9.8,29.3-20.7,37.4-31.9
		c3.3-4.6,7.3-11.8,9.4-17.2c2.5-6.4,3.8-12.9,4.3-19.3c0.8-10.9-0.9-21.5-4.3-31.5c-2.2-6.5-5.2-13-8.6-18.8
		c-6.6-11.4-14.9-21-22.9-27.7c-1.7-1.4-3.4-2.8-5.3-4.1c-5.7,8.8-12.7,16.8-20.2,23.9c-5.9,5.6-12.2,11-18.2,16.4
		c-6.7,14.5-11.1,30.1-13.2,46C4013.8,352.1,4013.2,360,4013.2,367.6z"/>
	<path class="st10" d="M4035.5,296.9c20.9-3.9,39.8-2.4,58.3,4.7c5.9,11.8,9.5,24.9,8.5,38c-0.5,6.9-2.2,13.8-5.3,20.7
		c-11.7-5.2-25.7-8.2-40.8-8.2c-6.5,0-13.7,0.6-20.8,2C4028.8,326.7,4034.3,301.8,4035.5,296.9L4035.5,296.9z M4035.2,378.4
		c-2.2-3.4-4.1-6.9-5.8-10.4c2.1-0.6,4.3-1,6.5-1.5c3.7,7.4,8.6,14.7,15.1,21.4c-5.2-7.1-9.1-14.6-11.9-22
		c5.5-0.9,11.3-1.3,17.2-1.3c12.7,0,24.6,2.2,35.1,5.9c-7.2,10.6-18.4,20.9-34.6,30.2c-13.9-7.6-26.9-19.3-35.7-30.1
		c2.2-0.8,4.5-1.5,6.8-2.2C4030,371.8,4032.4,375.1,4035.2,378.4L4035.2,378.4z M4066.6,339.2c-4.6-0.5-8.7-0.4-11.6-0.2
		c-0.1,2.4-0.1,4.9-0.2,7.5c3.9-0.1,7.8,0,11.6,0.4C4066.5,344.3,4066.6,341.7,4066.6,339.2L4066.6,339.2z M4066.9,326.2
		c-4.6-0.5-8.7-0.4-11.6-0.2c0,2.5-0.1,5.1-0.1,7.8c3-0.2,7.1-0.2,11.6,0.2C4066.8,331.3,4066.9,328.7,4066.9,326.2L4066.9,326.2z
		 M4067,313.2c-4.6-0.5-8.7-0.4-11.6-0.2c0,2.4,0,5,0,7.8c3-0.2,7.1-0.2,11.6,0.2C4067,318.3,4067,315.6,4067,313.2L4067,313.2z
		 M4066.9,301.1c-3.8-0.4-7.7-0.6-11.6-0.4c0,1.9,0,4.3,0.1,7.2c3-0.2,7.1-0.2,11.6,0.2C4066.9,305.3,4066.9,302.9,4066.9,301.1
		L4066.9,301.1z M4019.1,349.4c0.9,2.7,1.9,5.4,3.1,8.2c-1.1,0.4-2.1,0.8-3.2,1.2C4018.9,355.6,4019,352.4,4019.1,349.4
		L4019.1,349.4z M4026.6,306.9c-1.9,5.6-4.4,14.5-6,25.8c0.5,7.6,1.8,15.8,4.4,24c2-0.6,4.1-1.2,6.1-1.7
		C4026,339.6,4024.7,323,4026.6,306.9L4026.6,306.9z M4066,266.4c6.1,4.9,12.9,12,18.9,20.4c-11.1-4.2-23.2-5.3-34.4-3.7
		C4057.9,276.8,4063.1,270.3,4066,266.4z"/>
	<path class="st12" d="M3844.1,467.5c58.1,46.3,143.7,21.6,170.4-43.3c-44.8,62.7-119.1,53.3-116.7,53.5c68.9-7.2,96.8-48.7,107-71
		c-25,32.7-61.1,43.2-61.1,43.2c33.2-20.2,52.5-45.8,62.6-66.7c-2.2-25.2-0.5-58.9,15.7-92.4l8.4-3.6l4-20.1l-22.3-9.9l-17.3-0.3
		l21.2-12.2l-2.8-2.3l-36.8,9.9l-27.4,32.5l-14.4,34.5l-12.4,8.6c4.7,2.2,19,10.3,31.3,28.7l22.7-22.8l18.9-28.4l-13.6,32
		l-117.5,126.3L3844.1,467.5L3844.1,467.5z M4038.1,277l3.8-13.5l-26-11.5l11.2-6.4l-12.5-10l-41.7,11.2l-29.3,34.8l-14.1,33.7
		l-67.3,38.5c-2.9-1.6-11.3-6-16.8-8.1c-17.4-6.5-53.2-14.8-88,9.8c0.5,1.7,1.4,4.7,3,8.5c-4.8-1.3-9.7-4-13.7-7.3
		c-41.9-34.1-37.5-87.4-37.5-87.4c3.7-8.3,26.1-39.9,69.1-56.5l5.5,17.3c26.9,40.8,73.8,36.8,116.3,66.9
		c27.3-30.8,32.8-68.5,31.8-97.5c5-15.8,7.4-34.9,8.4-46.1c15.1-6.6,44.1-14.3,87.3-5.9c14.7,9.2,42.8,51.9,43.1,80
		C4065.1,249.3,4049.9,266.5,4038.1,277z"/>
	<linearGradient id="SVGID_7_" gradientUnits="userSpaceOnUse" x1="3791.5974" y1="274.3436" x2="3820.1377" y2="380.8572">
		<stop  offset="0" style="stop-color:#FFF100"/>
		<stop  offset="0.5" style="stop-color:#FFC315"/>
		<stop  offset="1" style="stop-color:#F48120"/>
	</linearGradient>
	<path class="st20" d="M3875.7,346.2c-39.1-36.5-90.2-35.8-134.3-21.7c55.6-29.9,112-13.1,142.5,17l8.6-4.9
		c-23.6-29.4-96.8-62-171.9-12.9c6.3,12.8,14.9,23.9,26,32.9c42.4-37.4,95.1-21.8,120.8-5.6L3875.7,346.2z"/>
	<path class="st10" d="M3803.6,194.3c1.5,7.1,7.8,32.4,24,53.8c8.3-0.7,16.2-3,23-5.6c10.9,5.2,37.3,23.4,46.7,32.1
		c14.1-18.9,21.8-44.2,20.4-73.5c-4.9,12.1-11.4,23.4-19.1,30.1c-10,8.8-27.1,9.5-34.3-2.5c-3.9-6.6-3-15.6-2.6-22.2
		c0.8-12.8-3.8-9.4-15.4-8.6C3828.4,199,3813,196.5,3803.6,194.3z"/>
	<path class="st10" d="M3771.2,360.1c0.9,4.7,12,42.9,12,42.9l44.5,56.5l26.7-3l94.5-95.3l-0.7-1.1c-6.9-10.4-17.4-21-28.8-26.5
		l-3.2-1.5l-62.7,43.6c-0.4-5.4-0.8-10.7-1.1-16.1C3822.4,342.8,3796,345.1,3771.2,360.1z"/>
	<path class="st14" d="M3771.2,360.1c0.9,4.7,12,42.9,12,42.9l44.5,56.5l26.4-2.9c-32.4-33.7-47-89.7-47-89.7l22.6,33.4l-8.4-51.7
		C3803.6,346.1,3787,350.5,3771.2,360.1z"/>
	<linearGradient id="SVGID_8_" gradientUnits="userSpaceOnUse" x1="3834.1401" y1="73.5908" x2="3876.4043" y2="231.323">
		<stop  offset="0" style="stop-color:#FFF100"/>
		<stop  offset="0.5" style="stop-color:#FFC315"/>
		<stop  offset="1" style="stop-color:#F48120"/>
	</linearGradient>
	<path class="st21" d="M3873,190.4c-1-11-6.4-15.4-19.5-14.5c-44.2,3.2-71.9-9.1-71.9-9.1c0-19.5,3.2-42,14.2-58.7
		c26.8-40.5,86.4-43,116.6-7.8c27.9,32.5,17.6,87.8-11.1,118.7c-10.7,11.5-19.6,12.1-26,7.3C3867.2,220.3,3873.8,199.9,3873,190.4z"
		/>
	<path class="st12" d="M3793.8,191.6c0,0.1,22.9,8.2,52.4,6.2c11.7-0.8,16.3-4.2,15.4,8.6c-0.4,6.6-1.3,15.6,2.6,22.2
		c7.2,12.1,24.3,11.4,34.3,2.5c7.8-6.9,14.4-18.4,19.3-30.8c4-10.2,6.5-20.4,8-28.9c-4.2,17.8-12.9,34.7-24.7,47.5
		c-10.7,11.5-19.6,12.1-26,7.3c-8-6.1-1.4-26.5-2.2-35.9c-1-11-6.4-15.4-19.5-14.5c-13.7,1-25.8,0.5-36-0.7c-0.1-3.8,0-7.7,0.3-11.6
		c3.4-48.4,33-84.2,66.2-80c0.6,0.1,1.2,0.2,1.8,0.3c-9.3-3.5-22.8-3.9-32.1-0.4c-25,9.7-44.6,39.9-47.4,77.8
		c-0.3,4.1-0.4,8.2-0.3,12.2c-3.7-0.7-6.9-1.4-9.8-2.1c-0.1-3.9,0-7.9,0.3-12c3-40.6,25.2-72.4,52.7-79.6
		c-10.5,1.3-18.2,3.9-26.5,10.6c-17.5,14-30.1,39.2-32.3,69C3789.6,171,3791,179.9,3793.8,191.6z"/>
	<path class="st12" d="M3894.6,205.7c-6.4,10.6-20.4,22.4-46.3,28.3c-24,5.5-45.5,3.7-52.3-3.7c-2-2.2-3.7-7.2-5-11.1
		c6.9,7,27.8,10.1,52.3,6.9C3867.7,222.9,3882,215.2,3894.6,205.7L3894.6,205.7z M3787.8,187.4c-3.4,2.1-6.6,5.3-5.5,9.5
		c1.2,4.4,2.6,9.7,4.7,12.2c7.1,8.7,30.8,12.2,57.9,7.8c29.2-4.8,46.2-17.3,53.3-28.2c-13.9,10.5-30.9,17.2-58.3,19.1
		c-21.8,1.5-40.7-1.3-51.3-6.6c0.3-0.6,0.7-1.4,1.5-2.4C3789.1,194.9,3788.4,191.2,3787.8,187.4z"/>
	<path class="st14" d="M4107.6,244.2l25.1,89.7c4.6,1.6,7.9,3.9,9.7,5.3c0.3,0.2,0.6,0.5,0.9,0.7L4107.6,244.2L4107.6,244.2z"/>
	<linearGradient id="SVGID_9_" gradientUnits="userSpaceOnUse" x1="4020.7981" y1="158.3472" x2="4044.8652" y2="248.1673">
		<stop  offset="0" style="stop-color:#FFF100"/>
		<stop  offset="0.5" style="stop-color:#FFC315"/>
		<stop  offset="1" style="stop-color:#F48120"/>
	</linearGradient>
	<path class="st22" d="M3997.4,144c6.3,9.8,29.8,55.3,26.8,66.8c-2.9,11.3-6.3,18.9-10.3,25.1l0.7-0.2l12.4,10
		c4.9-7.1,14.2-23.1,13.3-28.1c-4.3-22.8-13-42.3-22.7-63.6c13.5,19.2,32.9,58.8,30.7,67.3c-2.2,8.5-15.8,32.1-20.2,36.4l13.7,6.1
		c7.2-7.1,17.7-21,22-36.7c2.9-10.4-5.4-28.4-15.4-45.2c-8.4-14.1-18-27.3-23.3-34.6C4016,145.4,4006.7,144.3,3997.4,144z"/>
	<path class="st12" d="M4056.3,408.7l25.2,2.2l24.1-9.8l22-18l16.7-18l-0.4-24.6c0,0-10.4-10.8-28.9-8.3c0.1,3,0.1,6.1-0.1,9.2
		l-26.8,0.5l-1.4,11.5l16.3,6.7c-2.3,5.6-5.8,12-9.2,16.8C4085.6,388.1,4073.5,398.9,4056.3,408.7z"/>
</g>
<text transform="matrix(1 0 0 1 2574.5859 613.6791)" class="st23 st24 st25">PLAYER</text>
<g>
	<text transform="matrix(1 0 0 1 1494.2712 313.2513)" class="st23 st24 st26">COACH</text>
	<text transform="matrix(1 0 0 1 1525.1345 399.6937)" class="st23 st24 st27">COACH 1</text>
	<text transform="matrix(1 0 0 1 1517.3962 482.1996)" class="st23 st24 st27">COACH 2</text>
	<text transform="matrix(1 0 0 1 1519.4011 564.7064)" class="st23 st24 st27">COACH 3</text>
	<text transform="matrix(1 0 0 1 1516.6931 647.2122)" class="st23 st24 st27">COACH 4</text>
</g>
<text transform="matrix(1 0 0 1 1389.4216 2097.2427)" class="st23 st24 st26">CHEERLEADERS</text>
<g>
	<text transform="matrix(1 0 0 1 1152.1614 2193.3179)" class="st23 st24 st27">CHEERLEADER 1</text>
	<text transform="matrix(1 0 0 1 1152.1614 2275.8237)" class="st23 st24 st27">CHEERLEADER 2</text>
	<text transform="matrix(1 0 0 1 1152.1614 2358.3306)" class="st23 st24 st27">CHEERLEADER 3</text>
	<text transform="matrix(1 0 0 1 1152.1614 2440.8364)" class="st23 st24 st27">CHEERLEADER 4</text>
	<text transform="matrix(1 0 0 1 1868.9114 2193.3179)" class="st23 st24 st27">CHEERLEADER 5</text>
	<text transform="matrix(1 0 0 1 1868.9114 2275.8237)" class="st23 st24 st27">CHEERLEADER 6</text>
	<text transform="matrix(1 0 0 1 1868.9114 2358.3306)" class="st23 st24 st27">CHEERLEADER 7</text>
	<text transform="matrix(1 0 0 1 1868.9114 2440.8364)" class="st23 st24 st27">CHEERLEADER 8</text>
</g>
<text transform="matrix(1 0 0 1 2574.5859 755.5521)" class="st23 st24 st25">PLAYER</text>
<text transform="matrix(1 0 0 1 2574.5859 897.4251)" class="st23 st24 st25">PLAYER</text>
<text transform="matrix(1 0 0 1 2574.5859 1039.2981)" class="st23 st24 st25">PLAYER</text>
<text transform="matrix(1 0 0 1 2574.5859 1181.1711)" class="st23 st24 st25">PLAYER</text>
<text transform="matrix(1 0 0 1 2574.5859 1323.0442)" class="st23 st24 st25">PLAYER</text>
<text transform="matrix(1 0 0 1 2574.5859 1464.9172)" class="st23 st24 st25">PLAYER</text>
<text transform="matrix(1 0 0 1 2574.5859 1606.7903)" class="st23 st24 st25">PLAYER</text>
<text transform="matrix(1 0 0 1 2574.5859 1748.6636)" class="st23 st24 st25">PLAYER</text>
<text transform="matrix(1 0 0 1 2574.5859 1890.5366)" class="st23 st24 st25">PLAYER</text>
<text transform="matrix(1 0 0 1 2574.5859 2032.4097)" class="st23 st24 st25">PLAYER</text>
<text transform="matrix(1 0 0 1 2574.5859 2174.2827)" class="st23 st24 st25">PLAYER</text>
<text transform="matrix(1 0 0 1 2574.5859 2316.1558)" class="st23 st24 st25">PLAYER</text>
<text transform="matrix(1 0 0 1 2574.5859 2458.0288)" class="st23 st24 st25">PLAYER</text>
<text transform="matrix(1 0 0 1 3200.123 613.6791)" class="st23 st24 st25">PLAYER</text>
<text transform="matrix(1 0 0 1 3200.123 755.5521)" class="st23 st24 st25">PLAYER</text>
<text transform="matrix(1 0 0 1 3200.123 897.4251)" class="st23 st24 st25">PLAYER</text>
<text transform="matrix(1 0 0 1 3200.123 1039.2981)" class="st23 st24 st25">PLAYER</text>
<text transform="matrix(1 0 0 1 3200.123 1181.1711)" class="st23 st24 st25">PLAYER</text>
<text transform="matrix(1 0 0 1 3200.123 1323.0442)" class="st23 st24 st25">PLAYER</text>
<text transform="matrix(1 0 0 1 3200.123 1464.9172)" class="st23 st24 st25">PLAYER</text>
<text transform="matrix(1 0 0 1 3200.123 1606.7903)" class="st23 st24 st25">PLAYER</text>
<text transform="matrix(1 0 0 1 3200.123 1748.6636)" class="st23 st24 st25">PLAYER</text>
<text transform="matrix(1 0 0 1 3200.123 1890.5366)" class="st23 st24 st25">PLAYER</text>
<text transform="matrix(1 0 0 1 3200.123 2032.4097)" class="st23 st24 st25">PLAYER</text>
<text transform="matrix(1 0 0 1 3200.123 2174.2827)" class="st23 st24 st25">PLAYER</text>
<text transform="matrix(1 0 0 1 3200.123 2316.1558)" class="st23 st24 st25">PLAYER</text>
<text transform="matrix(1 0 0 1 3200.123 2458.0288)" class="st23 st24 st25">PLAYER</text>
<text transform="matrix(1 0 0 1 3825.6602 613.6791)" class="st23 st24 st25">PLAYER</text>
<text transform="matrix(1 0 0 1 3825.6602 755.5521)" class="st23 st24 st25">PLAYER</text>
<text transform="matrix(1 0 0 1 3825.6602 897.4251)" class="st23 st24 st25">PLAYER</text>
<text transform="matrix(1 0 0 1 3825.6602 1039.2981)" class="st23 st24 st25">PLAYER</text>
<text transform="matrix(1 0 0 1 3825.6602 1181.1711)" class="st23 st24 st25">PLAYER</text>
<text transform="matrix(1 0 0 1 3825.6602 1323.0442)" class="st23 st24 st25">PLAYER</text>
<text transform="matrix(1 0 0 1 3825.6602 1464.9172)" class="st23 st24 st25">PLAYER</text>
<text transform="matrix(1 0 0 1 3825.6602 1606.7903)" class="st23 st24 st25">PLAYER</text>
<text transform="matrix(1 0 0 1 3825.6602 1748.6636)" class="st23 st24 st25">PLAYER</text>
<text transform="matrix(1 0 0 1 3825.6602 1890.5366)" class="st23 st24 st25">PLAYER</text>
<text transform="matrix(1 0 0 1 3825.6602 2032.4097)" class="st23 st24 st25">PLAYER</text>
<text transform="matrix(1 0 0 1 3825.6602 2174.2827)" class="st23 st24 st25">PLAYER</text>
<text transform="matrix(1 0 0 1 3825.6602 2316.1558)" class="st23 st24 st25">PLAYER</text>
<text transform="matrix(1 0 0 1 3825.6602 2458.0288)" class="st23 st24 st25">PLAYER</text>
</svg>
