<?xml version="1.0" encoding="utf-8"?>
<!-- Generator: Adobe Illustrator 25.2.1, SVG Export Plug-In . SVG Version: 6.00 Build 0)  -->
<svg version="1.1" id="Layer_1" xmlns="http://www.w3.org/2000/svg" xmlns:xlink="http://www.w3.org/1999/xlink" x="0px" y="0px"
	 viewBox="0 0 4320 3168" style="enable-background:new 0 0 4320 3168;" xml:space="preserve">
<style type="text/css">
	.st0{display:none;}
	.st1{fill:none;}
	.st2{display:none;fill:#62930C;}
	.st3{fill:#BBBDBF;}
	.st4{opacity:0.5;}
	.st5{fill:#FFFFFF;}
	.st6{fill:#C9233F;}
	.st7{fill-rule:evenodd;clip-rule:evenodd;fill:#8F0424;}
	.st8{fill-rule:evenodd;clip-rule:evenodd;fill:#630017;}
	.st9{fill-rule:evenodd;clip-rule:evenodd;fill:#38000D;}
	.st10{fill:#210504;}
	.st11{fill-rule:evenodd;clip-rule:evenodd;fill:#FFFFFF;}
	.st12{font-family:'Impact';}
	.st13{font-size:156.3729px;}
</style>
<g>
	<g>
		<g>
			<rect x="2.6" y="5.1" class="st3" width="4320" height="3168"/>
			<g class="st4">
				<polygon class="st5" points="2636.5,5.1 2622.2,5.1 2.6,1926.1 2.6,1936.7 				"/>
				<polygon class="st5" points="2840.2,5.1 2825.8,5.1 2.6,2075.5 2.6,2086 				"/>
				<polygon class="st5" points="2738.2,5.1 2723.8,5.1 2.6,2000.7 2.6,2011.2 				"/>
				<polygon class="st5" points="3043.8,5.1 3029.5,5.1 2.6,2224.8 2.6,2235.3 				"/>
				<polygon class="st5" points="3145.5,5.1 3131.1,5.1 2.6,2299.4 2.6,2309.9 				"/>
				<polygon class="st5" points="2127.3,5.1 2112.9,5.1 2.6,1552.6 2.6,1563.2 				"/>
				<polygon class="st5" points="2229.2,5.1 2214.9,5.1 2.6,1627.5 2.6,1638 				"/>
				<polygon class="st5" points="2330.9,5.1 2316.5,5.1 2.6,1702 2.6,1712.5 				"/>
				<polygon class="st5" points="2432.9,5.1 2418.5,5.1 2.6,1776.8 2.6,1787.3 				"/>
				<polygon class="st5" points="2534.5,5.1 2520.2,5.1 2.6,1851.3 2.6,1861.9 				"/>
				<polygon class="st5" points="2941.9,5.1 2927.5,5.1 2.6,2150 2.6,2160.6 				"/>
				<polygon class="st5" points="4062.1,5.1 4047.7,5.1 2.6,2971.5 2.6,2982.1 				"/>
				<polygon class="st5" points="3960.1,5.1 3945.7,5.1 2.6,2896.7 2.6,2907.3 				"/>
				<polygon class="st5" points="4163.7,5.1 4149.4,5.1 2.6,3046.1 2.6,3056.6 				"/>
				<polygon class="st5" points="3756.4,5.1 3742.1,5.1 2.6,2747.4 2.6,2757.9 				"/>
				<polygon class="st5" points="3451.1,5.1 3436.8,5.1 2.6,2523.5 2.6,2534 				"/>
				<polygon class="st5" points="3349.1,5.1 3334.8,5.1 2.6,2448.7 2.6,2459.2 				"/>
				<polygon class="st5" points="3247.5,5.1 3233.1,5.1 2.6,2374.2 2.6,2384.7 				"/>
				<polygon class="st5" points="3552.8,5.1 3538.4,5.1 2.6,2598.1 2.6,2608.6 				"/>
				<polygon class="st5" points="3654.8,5.1 3640.4,5.1 2.6,2672.8 2.6,2683.4 				"/>
				<polygon class="st5" points="600.1,5.1 585.7,5.1 2.6,432.7 2.6,443.3 				"/>
				<polygon class="st5" points="4265.7,5.1 4251.4,5.1 2.6,3120.9 2.6,3131.4 				"/>
				<polygon class="st5" points="498.1,5.1 483.7,5.1 2.6,357.9 2.6,368.5 				"/>
				<polygon class="st5" points="701.7,5.1 687.3,5.1 2.6,507.3 2.6,517.8 				"/>
				<polygon class="st5" points="905.4,5.1 891,5.1 2.6,656.6 2.6,667.1 				"/>
				<polygon class="st5" points="803.7,5.1 789.4,5.1 2.6,582.1 2.6,592.6 				"/>
				<polygon class="st5" points="294.4,5.1 280.1,5.1 2.6,208.6 2.6,219.1 				"/>
				<polygon class="st5" points="90.8,5.1 76.4,5.1 2.6,59.2 2.6,69.8 				"/>
				<polygon class="st5" points="192.8,5.1 178.4,5.1 2.6,134 2.6,144.6 				"/>
				<polygon class="st5" points="2025.6,5.1 2011.2,5.1 2.6,1478.1 2.6,1488.6 				"/>
				<polygon class="st5" points="1007.4,5.1 993,5.1 2.6,731.4 2.6,741.9 				"/>
				<polygon class="st5" points="396.4,5.1 382.1,5.1 2.6,283.4 2.6,293.9 				"/>
				<polygon class="st5" points="1109,5.1 1094.7,5.1 2.6,805.9 2.6,816.5 				"/>
				<polygon class="st5" points="1720,5.1 1705.6,5.1 2.6,1254 2.6,1264.5 				"/>
				<polygon class="st5" points="1618.3,5.1 1604,5.1 2.6,1179.4 2.6,1189.9 				"/>
				<polygon class="st5" points="1923.6,5.1 1909.2,5.1 2.6,1403.3 2.6,1413.8 				"/>
				<polygon class="st5" points="1822,5.1 1807.6,5.1 2.6,1328.8 2.6,1339.3 				"/>
				<polygon class="st5" points="1211,5.1 1196.6,5.1 2.6,880.7 2.6,891.3 				"/>
				<polygon class="st5" points="1516.3,5.1 1501.9,5.1 2.6,1104.6 2.6,1115.2 				"/>
				<polygon class="st5" points="1312.7,5.1 1298.3,5.1 2.6,955.3 2.6,965.8 				"/>
				<polygon class="st5" points="1414.6,5.1 1400.3,5.1 2.6,1030.1 2.6,1040.6 				"/>
				<polygon class="st5" points="3858.4,5.1 3844.1,5.1 2.6,2822.2 2.6,2832.7 				"/>
				<polygon class="st5" points="4322.6,2054.2 4322.6,2043.7 2782.5,3173.1 2796.8,3173.1 				"/>
				<polygon class="st5" points="4322.6,2128.8 4322.6,2118.2 2884.1,3173.1 2898.5,3173.1 				"/>
				<polygon class="st5" points="4322.6,2203.5 4322.6,2193 2986.1,3173.1 3000.5,3173.1 				"/>
				<polygon class="st5" points="4322.6,1979.4 4322.6,1968.9 2680.4,3173.1 2694.8,3173.1 				"/>
				<polygon class="st5" points="4322.6,2278.1 4322.6,2267.6 3087.7,3173.1 3102.1,3173.1 				"/>
				<polygon class="st5" points="4322.6,2352.9 4322.6,2342.3 3189.7,3173.1 3204.1,3173.1 				"/>
				<polygon class="st5" points="4322.6,1904.9 4322.6,1894.3 2578.8,3173.1 2593.2,3173.1 				"/>
				<polygon class="st5" points="4322.6,1680.7 4322.6,1670.2 2273.2,3173.1 2287.5,3173.1 				"/>
				<polygon class="st5" points="4322.6,1755.5 4322.6,1745 2375.2,3173.1 2389.5,3173.1 				"/>
				<polygon class="st5" points="4322.6,1830.1 4322.6,1819.5 2476.8,3173.1 2491.1,3173.1 				"/>
				<polygon class="st5" points="4322.6,1606.2 4322.6,1595.6 2171.5,3173.1 2185.9,3173.1 				"/>
				<polygon class="st5" points="4322.6,2811.3 4322.6,2800.7 3814.8,3173.1 3829.2,3173.1 				"/>
				<polygon class="st5" points="4322.6,2913.5 4322.6,2902.9 3954.2,3173.1 3968.5,3173.1 				"/>
				<polygon class="st5" points="4322.6,2994.6 4322.6,2984.1 4064.9,3173.1 4079.2,3173.1 				"/>
				<polygon class="st5" points="4322.6,3092.4 4322.6,3081.9 4198.2,3173.1 4212.6,3173.1 				"/>
				<polygon class="st5" points="4322.6,2427.4 4322.6,2416.9 3291.4,3173.1 3305.8,3173.1 				"/>
				<polygon class="st5" points="4322.6,2502.2 4322.6,2491.7 3393.4,3173.1 3407.7,3173.1 				"/>
				<polygon class="st5" points="4322.6,2576.8 4322.6,2566.2 3495.1,3173.1 3509.4,3173.1 				"/>
				<polygon class="st5" points="4322.6,2651.6 4322.6,2641 3597,3173.1 3611.4,3173.1 				"/>
				<polygon class="st5" points="4322.6,2726.1 4322.6,2715.6 3698.7,3173.1 3713.1,3173.1 				"/>
				<polygon class="st5" points="4322.6,560.8 4322.6,550.2 745.9,3173.1 760.3,3173.1 				"/>
				<polygon class="st5" points="4322.6,112.7 4322.6,102.2 135,3173.1 149.4,3173.1 				"/>
				<polygon class="st5" points="4322.6,784.7 4322.6,774.1 1051.3,3173.1 1065.6,3173.1 				"/>
				<polygon class="st5" points="4322.6,635.3 4322.6,624.8 847.6,3173.1 862,3173.1 				"/>
				<polygon class="st5" points="4322.6,710.1 4322.6,699.6 949.6,3173.1 964,3173.1 				"/>
				<polygon class="st5" points="4322.6,411.4 4322.6,400.9 542.3,3173.1 556.7,3173.1 				"/>
				<polygon class="st5" points="4322.6,486 4322.6,475.4 644,3173.1 658.3,3173.1 				"/>
				<polygon class="st5" points="4322.6,336.6 4322.6,326.1 440.3,3173.1 454.7,3173.1 				"/>
				<polygon class="st5" points="33,3173.1 47.4,3173.1 4322.6,38 4322.6,27.4 				"/>
				<polygon class="st5" points="4322.6,187.3 4322.6,176.8 236.7,3173.1 251,3173.1 				"/>
				<polygon class="st5" points="4322.6,262.1 4322.6,251.6 338.7,3173.1 353,3173.1 				"/>
				<polygon class="st5" points="4322.6,934 4322.6,923.5 1254.9,3173.1 1269.3,3173.1 				"/>
				<polygon class="st5" points="4322.6,1307.5 4322.6,1296.9 1764.2,3173.1 1778.6,3173.1 				"/>
				<polygon class="st5" points="4322.6,1232.7 4322.6,1222.2 1662.2,3173.1 1676.6,3173.1 				"/>
				<polygon class="st5" points="4322.6,859.5 4322.6,848.9 1153.3,3173.1 1167.6,3173.1 				"/>
				<polygon class="st5" points="4322.6,1456.8 4322.6,1446.3 1967.8,3173.1 1982.2,3173.1 				"/>
				<polygon class="st5" points="4322.6,1382 4322.6,1371.5 1865.9,3173.1 1880.2,3173.1 				"/>
				<polygon class="st5" points="4322.6,1158.1 4322.6,1147.6 1560.6,3173.1 1574.9,3173.1 				"/>
				<polygon class="st5" points="4322.6,1008.8 4322.6,998.3 1356.9,3173.1 1371.3,3173.1 				"/>
				<polygon class="st5" points="4322.6,1531.4 4322.6,1520.8 2069.5,3173.1 2083.9,3173.1 				"/>
				<polygon class="st5" points="4322.6,1083.3 4322.6,1072.8 1458.6,3173.1 1472.9,3173.1 				"/>
			</g>
		</g>
		<rect x="2.6" y="5.1" width="4320" height="257"/>
		<rect x="2.6" y="2916.1" width="4320" height="257"/>
	</g>
	<g>
		<g id="XMLID_2_">
			<path d="M2306.7,2337.1c-0.4-2.4-0.6-4.5-0.4-6.1c-0.2,0-0.4,0-0.6,0c-0.1,1.5,0.2,3.6,0.8,6.2
				C2306.5,2337.1,2306.6,2337.1,2306.7,2337.1z M2307.5,2341.1c0.6,2.1,1.3,4.3,2.2,6.7c-0.8-2.3-1.5-4.6-2-6.7
				C2307.6,2341.1,2307.5,2341.1,2307.5,2341.1z M2330.8,2308.9c-9.7,6.6-19.2,13.6-23.2,18.1c0.3,0,0.5,0,0.8,0
				c4-3.8,13.2-9.1,21.6-13.5C2330.3,2311.9,2330.6,2310.4,2330.8,2308.9z M2329.3,2318.2c-4,2.1-7.8,4.3-11.1,6.3
				c2.9-1.4,6.9-3.5,11-5.8C2329.3,2318.6,2329.3,2318.4,2329.3,2318.2z M2309.9,2336.9c4.3-0.4,10.5-1.3,14.9-3.7
				c1-0.6,2-1.1,2.9-1.7c0.1-2.2,0.4-5,0.9-8.1c-6,3.2-11.4,5.8-12.6,6.3c-2,0.7-4.2,1-6.2,1.2c-0.1,0.1-0.1,0.2-0.2,0.3
				C2309.1,2332,2309.3,2334.1,2309.9,2336.9z M2348.7,2405.9c-5.1-2.3-25.9-22.1-33.4-36.7c-4.7-9.2-16.1-34.9-11.7-42.5
				c3-5.2,16.3-14.9,28.2-22.9c0.7-4.8,1.2-8.5,0.9-9.7c-5.2,1.1-10,1.9-12.7,2c-0.9,0-1.8,0.1-2.7,0.1c-6.8,0-13.3-0.9-13.6-0.9
				l0.3-4c0.1,0,8.4,1.1,15.9,0.8c2.1-0.1,5.5-0.6,9.3-1.4c-5.2-3.4-14.4-7.2-15.3-7.2c-0.4,0-1.2,0-2.2-0.1
				c-3.5-0.2-6.2-0.8-6.3-0.8l0.2-1.2c-0.8,2.2-1.5,7.4-1.9,13.9c-0.3,4.3-0.4,9.3-0.4,14.3h-3.3c0-8.8,0.4-29.6,4.4-32.6
				c0.7-0.5,1.8-1.1,3.1-1.7c0.7-5.2,0.6-11.7,1.6-14.7c1.2-3.5,4.1-6.5,4.1-6.5s-9.8-61.7,63.6-78.1c73.4-16.4,92.6,65.8,92.6,65.8
				s36.8-3,60.6,10.9c23.9,14,76.6,48.5,98.5,72.8c21.9,24.3,25.9,29.1,39.8,42.5c13.9,13.3,35.3,24.9,44.3,34
				c9,9.1,17.4,19.4,30.3,34c12.9,14.6,16.9,26.7,27.3,38.2c10.4,11.5,53.4,53.1,34.3,114.6c-24.9,80.1-80.5,84.9-125.3,94.6
				c-44.8,9.7-91,15.8-91,15.8s6.4,15.8,11.9,24.9c5.5,9.1,25.4,41.9,38.8,66.7c13.4,24.9,60.7,103.7,60.7,103.7s3-8.5,5-7.9
				c2,0.6,4.5,5.4,4.5,5.4s2-6.7,4.5-3c2.5,3.6,5,13.3,7.9,20c3,6.7,5,10.9,7,18.8c2,7.9-0.5,8.5,2.5,13.3c3,4.9,6,17,2.5,20.6
				c-3.5,3.6-17.4,11.5-28.8,11.5c-11.4,0-51.7-4.3-66.6-3c-14.9,1.2-68.1,5.5-78.1,1.2c-9.9-4.2-2-21.2-2-21.2s-28.9-1.8-35.8-2.4
				c-7-0.6-8-26.1,4.5-26.1c12.4,0,26.4-7.9,31.8-11.5c5.5-3.6,7.9-8.5,13.4-12.1c5.5-3.6,9.4-5.4,13.9-9.1
				c4.5-3.6,13.4-4.9,13.4-11.5c0-6.7-3-4.9-3-17c0-12.1,8.4-8.5,8.4-8.5s-39.3-46.1-58.2-64.9c-18.9-18.8-36.3-37.6-42.3-44.3
				c-6-6.7-11.9-12.7-16.9-15.2c-5-2.4-12.9-10.3-17.9-18.2c-5-7.9-7.5-13.3-9.5-26.7c-2-13.3,0-21.8,0-21.8s-6-14.6-7-17.6
				c-1-3-2.5-9.1-2.5-9.1s-4.5,10.9-7,16.4c-2.5,5.5-6.5,16.4-8,21.2c-1.5,4.9-2,24.9-15.9,57.6c-13.9,32.7-59.7,134-64.7,152.2
				c-5,18.2-7.5,48.8-7.5,54.2c0,5.5,4,28.5-0.5,29.7c-4.5,1.2-11.9-1.8-13.4-6.7c-1.5-4.9-8.5-20-8.5-20s-3.5,4.9-3.5,7.9
				c0,3-3,18.8-4.5,19.4c-1.5,0.6-11.4,0.6-11.9-1.2c-0.5-1.8-1.5-10.9-1-13.4c0.5-2.4,1-6.7,1-6.7s-5.5,8.5-13.9,14.6
				c-8.4,6.1-13.9,7.3-18.9,7.9c-5,0.6-9.5-6.1-9.5-6.1s-7,1.2-10.4,1.2c-3.5,0-6-4.2-2-8.5c4-4.2,7.5-3,14.4-9.7
				c7-6.7,5.5-4.2,11.9-10.3c6.5-6.1,6-12.4,9.9-15.4c4-3,9-6.7,11.9-12.7c3-6.1,11.4-15.2,11.9-24.3c0.5-9.1,2-20.6,4.5-24.3
				c2.5-3.6,7-7.9,7-7.9s22.4-67.3,25.4-91c3-23.7,9-58.2,18.9-84.9c9.9-26.7,19.4-47.3,22.9-60.7c3.5-13.3,5-23.7,5-23.7
				s-20.3-7.6-32.2-9.6c-11.8-2-24.5-5-28.5-6c-4.1-1-7.7-14.4-0.8-13.9c6.6,0.5,20.3,1.9,21.5,2c-1.5-0.5-26.6-8.9-32.1-11.4
				c-9.8-4.5,0.4-13.9,0.4-13.9s-7.1-4.5-5.7-11.4c2-10.4,28.1-4.5,28.1-4.5s-12.6-6.5-17.5-7c-4.9-0.5-7.7-12.9,2-13.4
				c9.8-0.5,18.3,3.5,30.6,5.5c12.2,2,29.3,5.5,29.3,5.5s-7.3-18.9-8.6-45.7c-1.2-26.8,2.4-52.2,4.5-60.2c2-8,4.5-18.9,4.5-18.9
				l-6.9,2.5c0,0-2,8.5-11.4,8c-3.1-0.2-6.1-1.5-8.8-3.6c-3.4,7-7.6,13-11.8,13C2349.9,2406.3,2349.3,2406.2,2348.7,2405.9z
				 M2325.2,2375.9c3.4-3.3,13.2-12.6,20.5-19.3c1.9-1.8,4-3.9,6.2-6c-0.2-0.2-0.4-0.3-0.6-0.5c-2.4-1.5-5.7,0-5.7-2.5
				c0-2.5,2-7.4-1.2-7.4c-3.3,0-14.2,0.5-16.3-4.5c-0.7,0.4-1.3,0.7-1.9,1.1c-4.5,2.5-10.7,3.6-15.2,4
				C2314.3,2352.3,2322,2370.2,2325.2,2375.9z M2343,2370.9c1.3-0.7,2.6-1.3,3.8-1.9c1.6-0.8,4-2,6.8-3.5c0.2-2.5,0.3-4.9,0.1-6.9
				c-0.1-1.8-0.2-3.2-0.3-4.3c-2,2-3.9,3.9-5.7,5.6c-6.1,5.5-13.8,12.9-18.2,17.1C2333.3,2375.7,2339.2,2372.8,2343,2370.9z
				 M2327.8,2381.2c8.5,10.2,18.7,19.6,21.9,21c2.4,1,6.1-3.2,9.9-11.2c-4.1-4-6.8-9.4-6.8-13.5c0-2.6,0.2-5.1,0.3-7.4
				c-2.1,1.1-3.9,2-5.2,2.7c-1.2,0.6-2.5,1.2-3.8,1.9C2336.4,2378.5,2331.2,2380.9,2327.8,2381.2z"/>
		</g>
		<g id="XMLID_1_">
			<g>
				<path d="M2046,2471.5c-4-6.7-9.3-15.2-14.8-23.8c-0.8,4.6-1.9,8.6-3.2,10.4l12.1,20.2C2042.4,2475.7,2044.8,2472.9,2046,2471.5z
					 M2053,2484.9c-0.4-1.5-2.3-5.1-5.1-10c-1.3,1.6-3.6,4.3-6,6.8l5.1,8.5C2050,2487.9,2052.3,2485.9,2053,2484.9z M2054.8,2424.8
					c0-0.7,0.1-1.5,0.3-2.3c-3.6-3.1-6.3-5.7-6.3-5.7s-15.5,8.4-15.5,11.9c0,0.4,0,1.1-0.1,2L2054.8,2424.8z M2069.6,2432.8
					c-2.7-0.7-7.4-4.2-11.6-7.8c0,0.4,0,0.7,0,0.9c0.6,3,8.1,12.8,13.6,19.4c1.2-3.7,2.2-7.4,2.4-9.5c0-0.6-0.4-1.8-1.1-3.4
					C2071.9,2432.9,2070.8,2433.1,2069.6,2432.8z M2022.7,2504.6c-1.9-3.1-6.2-10.2-10.1-18.3c-2-4.1-3.9-9.8-5.6-15.5
					c-3.9,0.1-8.7-2.2-12.5-1.4c-2,0.4-4.1,0.2-6,0c-0.1,4.2-0.2,8.2-0.3,11.3c-0.4,11.7-0.2,25.7-0.2,25.8c0,0.2-0.1,0.5-0.1,0.7
					c0.7,2.3,1.3,3.9,1.8,4.6C1992.2,2513.5,2011.6,2509,2022.7,2504.6z M2021.5,2495.8c2.1,3.7,3.8,6.4,4.5,7.5
					c5.7-2.6,12.7-7.1,18.3-11l-4.8-8.1c-1.1,1.1-2.3,2.1-3.2,2.8C2032.4,2489.8,2024.5,2494.1,2021.5,2495.8z M2037.5,2481
					l-12.5-21c-3.5,0.4-7.5-2.7-8.8-0.4c-1.5,2.7-2.6,8.3-5.9,10.4c1.6,5.3,3.4,10.6,5.2,14.3c1.4,2.8,2.8,5.6,4.2,8.1
					c2.4-1.3,11.1-5.9,14.9-8.7C2035.4,2483,2036.4,2482.1,2037.5,2481z M1982.1,2471.2c0.3,5.9,0.8,11.5,1.3,14.7
					c0.4,2.6,0.9,5.1,1.3,7.5c0-4.1,0.1-8.6,0.2-12.8c0.1-3.1,0.2-7,0.3-11.2c-1,0.1-1.9,0.4-2.5,1.1
					C1982.6,2470.8,1982.4,2471,1982.1,2471.2z M1828.7,2570l-13.5,1.5c0,0,2.4,7.5,6.1,12.9c3.7,5.5,9,12.4,9,12.4
					s-0.4-8.5-0.8-13.4C1829.1,2578.4,1828.7,2570,1828.7,2570z M1295.5,2876.2c-15.9-17.9-43.6-48.2-35.9-60.2
					c7.7-11.9,41.6-33.3,49.7-37.8c8.1-4.5,10.6,8,10.6,8s47.3-28.3,59.9-33.8c12.6-5.5,31-14.9,36.3-18.4
					c5.3-3.5,29.3-17.9,55-21.9c25.7-4,59.1,1.5,59.9-5.5c0.8-7,1.2-20.9-2-29.8c-3.3-8.9-10.2-23.9-15.9-55.2
					c-5.7-31.3-11-58.7-16.3-83c-5.3-24.4-24.9-84.5-12.2-137.2c12.6-52.7,53-76.6,83.6-79.5c30.6-3,39.1-5.5,41.2-7
					c2-1.5,1.6-4.5,10.6-8c9-3.5,52.2-11.4,61.6-12.4c9.4-1,20,1.5,22.8-0.5c2.9-2,4.1-5,11.8-8c7.7-3,21.2-6.5,24.1-6.5
					c2.9,0,4.1,1.5,6.9,0c2.8-1.5,3.3-5,8.1-6.5c4.9-1.5,14.3-5,18.3-4c4.1,1,4.9,5.5,7.7,5c2.8-0.5,48.5-8,59.1-14.9
					c10.6-7,41.6-25.9,51-17.9c9.4,8,20.8,29.8,32.2,36.3c11.4,6.5,23.6,16.4,23.6,16.4s13.9-16.4,16.3-20.9
					c2.4-4.5,1.2-6.5,7.3-9.4c6.1-3,91.9-22.8,113.7,49.2c20.8,68.6-4.9,99.9-4.9,99.9s2.9,4,2,8c-0.5,2.5-2.9,7.1-6,9.8
					c1,2.5,1.6,4.5,1.5,5.7c-0.6,6.1-6.3,20.8-6.5,21.5c-0.3,0.7-0.9,1.2-1.5,1.2c-0.2,0-0.5-0.1-0.7-0.2c-0.8-0.5-1.2-1.7-0.8-2.6
					c0.6-1.5,1.5-4,2.5-6.8c0,0-0.1-0.1-0.1-0.1c-2.2-2.5-12-14.2-14.7-20.5l-22.6,6.2c-0.2,2.3-0.5,4.9-0.9,7.6
					c25.6,39.2,24.5,42.4,24.2,43.5c-1.5,4.7-21.6,17.9-31,21.8c-4.4,1.8-23.4,8.2-32.8,8.2c-2.4,0-4.2-0.4-4.9-1.4
					c-3.2-4.2-6.3-22.4-7.2-27.9c-0.5-3-0.9-7.6-1.2-12.6c-3.1,2.6-7.2,5.3-10.9,5c-5.7-0.5-9.4-2-9.4-2s-11.8,31.3-12.2,34.8
					c-0.4,3.5,0,24.4-6.9,38.8c-6.9,14.4-12.6,19.9-18.8,21.9c-6.1,2-9.4-3.5-11.8,2c-2.4,5.5-4.1,23.9-1.6,41.3
					c2.4,17.4,4.5,28.8,4.5,43.7c0,14.9,1.2,28.8,3.7,37.3c2.4,8.5,11.8,25.4,11.4,54.7c-0.4,29.3,1.2,72.6,4.5,91.5
					c3.3,18.9,10.6,47.2,17.5,57.2c6.9,9.9,11.8,23.9,19.6,32.8c7.7,8.9,27.3,25.4,33.4,25.4c6.1,0,6.5,8.4,1.2,8.4s-28.9,1-36.7-2
					c-7.7-3-24.5-12.4-27.3-9.9c-2.9,2.5-7.3,8.9-12.2,9.9c-4.9,1-22.4,1.5-20.4-3c2-4.5,11-8,8.2-20.9
					c-2.9-12.9-6.1-35.3-10.6-49.2c-4.5-13.9-7.7-18.9-14.3-36.3c-6.5-17.4-22.8-63.6-26.9-94c-4.1-30.3-6.9-60.2-6.9-60.2
					s-23.6-18.9-39.1-37.3c-15.5-18.4-23.6-26.8-24.1-29.3c-0.4-2.5-0.4-8-0.4-8s-24.9-32.3-37.1-50.2
					c-12.2-17.9-18.7-29.3-18.7-29.3s-15.1,1.5-24.5-1.5c-9.4-3-12.2-3-20.4-3c-8.2,0-17.9-1.5-17.9-1.5s5.7,25.9,7.3,44.7
					c1.6,18.9,2,30.3,4.9,35.3c2.9,5,17.5,15.9,12.6,48.2c-4.9,32.3-31.8,105.9-43.2,99.4c-11.4-6.5-26.9-13.4-26.9-13.4
					s-14.7,11.9-15.5,14.4c-0.8,2.5-13.9,24.4-25.3,31.3c-11.4,7-29.3,8.4-35.9,12.4c-6.5,4-26.1,24.4-32.6,28.3
					c-6.5,4-14.7,10.4-14.7,10.4s5.7,7,2.4,14.4c-3.3,7.5-12.2,14.9-11.4,17.9c0.8,3,11.8,15.9,18.3,28.8
					c6.5,12.9,15.5,24.4,26.1,29.3c10.6,5,14.3,4,19.2,13.4c4.9,9.5,4.1,16.4-4.5,16.9c-8.6,0.5-79.1,0.5-88-5
					c-9-5.5-24-13.4-32.6-17.4c-8.6-4-19.6-8-22-8c-2.4,0-60.3,7-70.1-3.5C1332.2,2928.9,1311.4,2894.1,1295.5,2876.2z"/>
			</g>
		</g>
	</g>
</g>
<g>
	<g>
		<g>
			<path d="M1605.2,533.5c9-3.8,18.9-2.3,28.4-2.6c32.2,2.1,63.5,10.8,95.4,15c11.6-0.3,23.6,4,35.1,0.3c16.5,0,32.3-6.2,48.7-7
				c35.5-5.6,72.8,1.1,104.3,18.6c8.7,4.3,16.3,10.6,25.6,13.6c9.2,3.6,19.4,3.2,29,1.3c12.2-0.5,24.3-2.5,36.6-2.3
				c7.6-2.5,15.8-0.9,23.7-1c4.2,2.1,9,1,13.5,1.6c18.3,2.8,36.8,7.8,52.3,18.3c21.9,13.7,43.7,28.6,68.7,36
				c8.9,2.4,18,4.1,27.1,5.2c15,0,30,0,45,0.1c26.7-1.4,53,9.3,73.3,26.3c15.6,11.3,33.7,18.6,51.8,24.9c11.5,3.1,23.1,6.2,35,7
				c14.3-0.1,28.6-0.4,42.9,0c7.4,0.2,14.6,2.3,22.1,1.9c24,4.4,45.2,17.2,65,31c8.5,7.1,17.4,13.8,27.5,18.6
				c34.4,16.9,74.6,18.5,107.7,38.4c19.2,9.9,37.6,23,49,41.8c9,12.7,21.1,23.2,34.7,31c18,10.1,39.4,10,58.3,17.8
				c15.7,5.4,29.8,15.9,38.9,29.9c5.3,9.8,13.4,17.7,20.3,26.3c8.5,10.1,19.1,18.2,30.5,24.6c13.1,6.6,24.1,16.2,35.3,25.4
				c6.4,4.7,13.2,8.8,20.1,12.7c25.1,19.5,52.5,37,72.3,62.3c6.1,6.8,14.3,12.2,17.1,21.3c3.4,11.9-3.2,23.2-9.1,33
				c-6,8.8-11.9,17.7-18.1,26.3c-8.1,12-18.9,21.8-29.1,31.9c-7.9,6.7-16,13.3-25.3,18c-25.2,13.1-54.7,15.2-79.2,29.8
				c-10.3,5.6-18.6,14.2-26.1,23.2c-10,12.9-16.5,28.2-27.5,40.4c-15.6,19.9-38.1,33.7-62,41.4c-35.6,12.5-75,20.1-103.8,46.3
				c-20.2,21.9-48.8,32.5-75.3,44.5c-11.9,5.2-24.6,7.7-37.2,10.7c-13.6,3.1-27.5,6.7-39.8,13.5c-15.9,8-27.1,22.3-40.5,33.7
				c-15,10.5-32.2,19.9-51.1,19.6c-4.6,0-9,1.6-13.5,1.6c-13.2,0.2-25.8,4.6-38.2,8.6c-21.5,8.7-41.1,22-63.8,27.6
				c-34.2,8.5-69.8,9.3-103.9,18c-22.9,5.4-43.1,17.8-64.4,27.3c-19.8,11.5-40.5,24.2-64,25.1c-8.9,2-18,1.3-27.1,1.1
				c-11.4-2.9-23.5-0.9-35.2-1.4c-25.9,1.5-51.2,9-74.4,20.4c-11.5,4.7-22.5,10.4-34.4,14c-16,4.6-32.3,9.2-49.1,8.9
				c-9.2,1.9-18.3-0.9-27.6-0.1c-22.9-2.6-45.6-6.9-68.6-9c-15.5-3.5-31,1.3-46.6,0.7c-6.5,0.5-12.9,2.2-19.4,1.5
				c-36.9,1-72.5,20.3-109.7,11.5c-18.2-4.2-36.3-16-41-35.1c-0.5-8.5-0.5-17.1,0.1-25.6c3.5-15.3,8.8-30.1,12.4-45.4
				c2.4-10.7,6.4-21,9.3-31.6c3.9-12.3,8-24.5,11.7-36.8c0.6-1.8,1.2-3.6,1.8-5.4c3.5-18,10.3-37.2,2.7-55
				c-4.6-8.6-13.5-16.5-23.9-15.5c-8.6,0.5-17.6-1.3-25.9,1.9c-11.6,4.1-22.6,9.5-34.5,12.7c-1.6,0-4.7,0-6.2,0
				c-11.6-2.6-23-6.6-34.8-8c-11.9,0.3-24.3-1.8-35.6,3.1c-17.2,5.9-32.1,16.8-49.3,22.6c-17,3.6-35.9-1.7-48.4-13.9
				c-6.2-5.6-8.8-14.1-8.8-22.3c0.9-9.2,3.5-18.1,5.5-27.1c0.6-2.6,1-5.2,1.5-7.7c1.3-10.6,4.1-21.4,1.5-32
				c-0.3-24.9-7.1-49-13-73.1c-2-9-4.4-17.9-6.9-26.7c-2.8-11.1-4-22.6-6.8-33.7c0.3-9.4-2.9-18.4-2-27.8c-1.1-10.8-2.6-21.7-1-32.5
				c1.7-9.9,0.7-20,1.2-30c1.8-4.5,1.7-9.4,1.7-14.2c1.8-3.3,1.6-7.2,1.9-10.8c2.4-9.9,3.1-20.3,6.5-30c8.4-26,15.8-52.8,30.1-76.4
				c15.7-18.7,19.1-44.1,19.6-67.7c1.1-17.5-7.5-33.4-11.3-50.1c-1-7.5-3.3-14.9-2.1-22.5c2.7-14.1,3.2-29.2,11.4-41.5
				c2.1-3.6,5.7-5.9,9.2-7.9c7.5-4.3,15.6-8.3,24.5-7.2c10,3.7,17.6,11.4,26.7,16.5c17.2,6.4,34.9-2.6,50.3-10
				c16.3-7.9,33.2-18.8,52.2-16c16.4,4,26.7,18.6,38.6,29.4c3.5,4.1,8.5,6.4,13.5,8.2c10.9,2.8,22.6,1.8,32.7-3.3
				c11.9-6.9,17.4-21.2,17.1-34.4c1.4-25.9-11.9-49.1-18.1-73.5c-5.6-17.9-10.1-36.2-16.7-53.8c-3.7-11.7-3.8-24-3.9-36.2
				c-0.3-0.7-0.9-2-1.2-2.7c2.1-4.9,1.1-10.3,2.1-15.3c2.4-9.6,6.1-19,12.3-26.8C1588.9,542,1596.9,537.1,1605.2,533.5z M1623,601.2
				c-0.5,15.7,0.4,31.5,5.4,46.5c7.9,27.6,17,54.8,24.1,82.6c4.4,23.1-0.7,46.9-9.2,68.4c-3.4,9.6-11.9,15.9-20.6,20.5
				c-16.9,10.9-37.6,16.1-57.6,13.1c-20.1-4.2-37.9-16.8-58.6-18.5c-14.6-0.7-26.8,9-41,10.5c-14.5,3-28.8-7-43.2-1.9
				c-8.3,2.9-17.4,5.9-23.1,13.1c-9.4,12.2-14.1,27.8-13.1,43.2c-0.1,8.7,3.7,16.8,5,25.3c2,12.8,3.9,25.8,1.4,38.7
				c-1.8,13.6-8.7,25.7-13.8,38.2c-6,14.1-16.7,25.5-22.7,39.5c-11.8,25.4-20,52.6-22.3,80.6c0,23.4,0.8,46.8,2.9,70.2
				c1.6,19.6,8.6,38.1,14.3,56.7c10.3,37.6,5.4,76.9,4.8,115.3c1.5,6,3,13,8.6,16.7c3.4,2.5,7.8,2,11.7,1.7
				c20-3,38.3-12.9,58.4-15.5c16-1.4,31.5,3.9,46.5,8.6c8.6,2.8,17.6,0.4,25.8-2.4c23.9-6.9,49.3-13.6,74-7.1
				c16.6,2.6,30.6,15.3,35.7,31.3c8.2,24.7,2.3,50.9-2.8,75.6c-4.5,24.4-10.2,48.6-15.1,72.9c-1.3,15.7-7.2,32.5,0.3,47.5
				c4.1,8.5,10.9,17.9,21.3,18.5c28.6,1.5,57.4-0.4,85.6-5.7c31.5-5.5,63.5-10.1,95.5-6.9c25.3,2.7,50.7,2.9,76.1,1.7
				c12.3-1.2,24.8-2.3,36.4-6.9c19.9-7.6,38.5-19.2,59.6-23.3c21.8-4.4,43.7-8.3,66-8.9c26-1.7,53.1-2.2,77.3-13.1
				c18.7-7.6,34.3-21,52.5-29.7c21-10.1,44.1-16.1,67.5-15.9c22.4,0,44.9-3.8,65.8-11.9c13.6-5.9,26.9-12.6,40.1-19.3
				c31.7-15.4,69.4-11.3,100.1-29.3c17.5-9.6,32.5-22.9,49-34.1c17.7-10.8,36.6-20,56.7-25.2c32.1-7.9,66.2-12.5,94.5-30.9
				c17.8-11,30.5-28.7,49.1-38.6c7.2-3.8,14.3-7.9,21.4-12.1c16.8-9.9,35.5-15.9,54-21.7c9.7-3.9,17.9-10.6,25.8-17.3
				c18.6-15.8,35-34,52-51.5c9.6-10.7,20.7-20.1,33.3-27.3c26-14.3,56.5-16.8,82.5-31c10.4-5.9,22.2-10.7,29.8-20.3
				c6.8-9.1,3.3-21.4-2.4-30.1c-11.8-17-30.5-27-46.4-39.7c-16.1-12.8-34.2-22.9-50.2-35.8c-21.2-16.5-34-42.3-58.6-54.5
				c-14.4-6.7-29.7-11.4-44.4-17.6c-10.5-2.9-21.5-4.6-31.5-9.3c-10.8-4.9-18.6-14.2-26.8-22.5c-9.5-12.7-18.1-26.3-28.8-38.1
				c-9.7-12.1-24-19-36.5-27.7c-14.7-7.7-31.7-8.6-47.9-8.3c-16.7-0.5-33.3-3.1-49.6-7c-17.3-4.8-30.4-17.8-44.6-28.1
				c-18.4-13.5-35.5-29.2-56-39.3c-12-6.2-25.8-4.9-38.7-6.5c-32.9-1.2-66.6-9.2-93.5-29c-16.2-12.2-35.2-20.6-55.2-24
				c-19.3-3.4-39-2.1-58.6-2.8c-25.7-2.5-50.7-10.4-73.6-22.3c-11.5-5.9-22-13.3-33.2-19.7c-10.5-6-22.5-8.5-33.6-13.1
				c-9.1-3.6-17.6-9-27.5-10.5c-6.5-0.9-13.1-1.8-19.7-1.5c-24.9,1.9-48.9,10.9-74.1,9.5c-11.3-0.4-22.4-3.4-32.8-7.7
				c-12.8-5.2-23.3-14.7-35.6-20.8c-21.5-8.6-44.7-13.8-67.9-12.5c-26.7,2.2-53.6,3.2-80.3-0.1c-32.6-3.2-64.8-10.6-97.6-10.2
				C1634.3,581.8,1624,590.5,1623,601.2z"/>
		</g>
		<g>
			<path d="M1711.9,775.7c73.6-0.3,147.1,0,220.7-0.1c0,18.8,0,37.6,0,56.4c-11.3,11.5-22.9,22.8-34.3,34.4
				c0.1,30.7-0.1,61.4,0.1,92.1c70.3-39.8,140.3-80.3,210.7-120.2c0.2-12.6,0.1-25.3,0.1-37.9c7.9-8.1,16.3-15.8,23.7-24.4
				c75.2-0.1,150.4,0,225.6,0c0.2,18.7-0.2,37.3-0.4,56c-9.1,8.6-18.3,17.2-27.2,26.1c-18.7,0.1-37.4-0.2-56,0.4
				c-31.4,17.8-62.1,37-93.3,55.3c5,5.8,10.8,10.9,16,16.5c38-12.4,77.2-21.8,117.1-24.5c72.5-5.5,144.9,12.8,210.8,42.2
				c12.1-8.1,24.6-15.4,36.9-23.1c20.4-0.4,40.8,1.2,61.2,1.1c-0.1,21.3,0,42.5-0.3,63.8c0.3,20.8,0.3,41.6,0,62.5
				c0,2.6,0,5.2,0,7.8c0.4,9.2,0,18.4,0.3,27.6c-8.2,9.4-17.7,17.5-26.5,26.4c-1.7,1.9-4,3.5-6.7,3c-17.9,0-35.8-0.1-53.6,0
				c-19.6-31.4-44.1-60.5-75.7-80.4c-45.4-29.2-101.8-35.6-154.4-28.4c-10.3,1.2-20.3,3.7-30.6,4.8c0.9,3.7,4.2,6.1,6.6,8.9
				c23,24.5,45.5,49.5,68.7,73.7c5.6-0.1,11.1-0.1,16.7-0.2c0,22.5,0,45.1,0,67.6c-9.3,9-18.7,18-28.2,26.7
				c-23.3,1.1-46.7,0.1-70,0.5c-50.3,0-100.7,0.1-151,0c-0.7-21-0.7-42-0.8-63c5.4-5.4,10.4-11.1,15.8-16.5
				c-3.2-3.6-6.4-7.1-10-10.1c-15.2,12.8-27.7,30.6-28.6,51.1c-1.6,22.6,10.1,43.7,24.4,60.4c11.8,12.6,24.2,25,39.4,33.3
				c27.7,15.5,59.1,23.5,90.5,27.1c41.1,5,82.8,2.9,123.6-3.6c42.3-7.7,84.8-19.8,121.4-43c20.2-13,38.8-30.7,46.2-54.1
				c28.9,0.1,57.7,0,86.5,0.1c-0.5,30.5-12.6,59.7-30.7,83.9c-21.3,28.7-49,52.1-78.6,71.7c-33.2,19-68.6,34.1-105.4,44.5
				c-50,14.7-102.6,17.1-154.4,16.7c-32.8,0-65.7-2.2-97.7-9.5c-38.6-9-77.3-19.7-112.3-38.8c-30.4-15.4-56.5-38.9-75.9-66.8
				c-18.8-29-29.1-63.8-27.9-98.5c1-47.7,20-95.3,53.7-129.3c12.5-12.4,26.4-23.3,40.9-33.1c-3.5-3.8-7.1-7.4-10.9-10.9
				c-42.5,24.8-85.3,49-128,73.5c0,6.2,0,12.3,0,18.5c11.6,0,23.1-0.1,34.7,0c-0.1,24.8-0.1,49.5,0,74.2c-7.4,7-14.9,13.9-22.3,20.9
				c-1.9,2-5.1,1-7.5,1.3c-75.7-0.1-151.3-0.1-227,0c-0.1-20.6,0.1-41.2-0.1-61.8c9.2-11.8,18.9-23.1,28.4-34.7
				c3.8,0,7.6,0,11.4-0.1c-0.1-79.4-0.1-158.8,0-238.2c-12.1-0.3-24.3-0.1-36.4-0.1c-0.1-15,0-30,0-44.9
				C1691.5,799.1,1701,786.5,1711.9,775.7z M1717.2,789.1c0.2,12.3-1.7,25.1,1.1,37.2c11.1-0.4,22.2-0.2,33.4-0.2
				c0,95.8,0.1,191.6,0,287.4c-11.6,0.2-23.2-0.4-34.8,0.3c0.3,13.8,0,27.6,0.2,41.4c67.6,0.4,135.2,0,202.7,0.2c0.1-14,0-28,0.1-42
				c-11.1,0.1-22.2,0.1-33.2,0c0-16,0-32,0-48c52.1-29.9,104.2-59.9,156.5-89.5c43,45.8,86.1,91.6,129.1,137.4
				c-9.5,0.1-19,0.1-28.5-0.1c0.3,14.3-0.4,28.6,0.4,42.9c69.8-0.3,139.6,0,209.4-0.1c0.5-14.1-0.1-28.3,0.1-42.4
				c-2.4-0.1-4.8-0.3-7.1-0.4c-12.1-14.1-25.3-27.2-37.7-41.1c-50.5-54.2-100.6-108.7-151.2-162.9c46.8-27.5,93.4-55.4,140.3-82.6
				c15.5-0.8,31.1-0.5,46.6-0.5c0.2-12.4-0.1-24.8,0.2-37.2c-69.6,0.5-139.2,0.2-208.8,0.3c0,12.1,0,24.2,0,36.3
				c7.7,0,15.3,0,23-0.1c-16.9,11-35,20.2-52.4,30.5c-73.7,41.8-147.1,84.3-221.1,125.7c0.2-51.8,0-103.5,0.1-155.2
				c11.3,0.1,22.5-0.3,33.8-0.1c1-12.3,0.2-24.7,0.5-37C1852.3,789.1,1784.8,789.2,1717.2,789.1z M2207.5,941.9
				c18.2,19.7,36.2,39.6,54.3,59.4c69.3-16.5,144.5-14.3,210.3,14.5c33.4,15,63.9,37.9,84.3,68.6c18-0.1,36-0.8,54.1-0.4
				c-0.4-48.6,0.8-97.1,0.2-145.7c-16,0.3-32-0.4-47.9,0.3c-11.2,6.2-21.4,14.1-32.4,20.7c-2.1,1.6-4.7,0.2-6.9-0.5
				c-44-18.9-90.7-32.3-138.5-37.2C2325.4,914.8,2264.3,922.3,2207.5,941.9z M1996.2,1079.1c-13.4,20.8-22,44.7-26.1,69
				c-5.3,31-3.2,64.4,11.5,92.7c18.3,31.5,45.8,57.2,77.3,75.1c14.2,8.3,29.7,13.9,45,19.6c87.3,30.4,182,36.7,273.3,23.9
				c44.4-7,87.9-21.3,127-43.6c20.8-10.8,38.5-26.3,55.4-42.3c12.6-14.2,26-27.9,35.9-44.2c8-13.5,13.6-28.4,16-43.9
				c-18.7,0.1-37.4-0.2-56.1,0.2c-9.3,15.5-20.7,29.8-34.4,41.6c-22.6,20-50.6,32.4-79,41.9c-45.5,14.1-93,23.3-140.8,23.2
				c-32.7,1.1-65.5-3.4-97-12.1c-33.1-9.9-65.2-26.1-88.8-51.8c-18.6-19.7-35.3-44.5-34.5-72.7c-0.5-25.7,14.2-48.9,32.8-65.5
				c-20.3-21.7-40.5-43.6-60.7-65.4C2030.9,1039,2010.8,1057,1996.2,1079.1z"/>
		</g>
	</g>
	<g>
		<path class="st6" d="M1715.7,789.1c67.5,0.1,135.1,0,202.6,0.1c-0.3,12.3,0.5,24.7-0.5,37c-11.3-0.1-22.6,0.3-33.8,0.1
			c-0.1,51.7,0.1,103.5-0.1,155.2c74-41.4,147.3-83.9,221.1-125.7c17.4-10.3,35.4-19.5,52.4-30.5c-7.7,0.1-15.4,0.1-23,0.1
			c0.1-12.1,0-24.2,0-36.3c69.6-0.1,139.2,0.2,208.8-0.3c-0.2,12.4,0,24.8-0.2,37.2c-15.5,0-31.1-0.3-46.6,0.5
			c-46.9,27.2-93.6,55-140.3,82.6c50.5,54.2,100.7,108.7,151.2,162.9c12.4,13.9,25.6,27,37.7,41.1c2.4,0.1,4.7,0.3,7.1,0.4
			c-0.2,14.2,0.4,28.3-0.1,42.4c-69.8,0.1-139.6-0.1-209.4,0.1c-0.7-14.3-0.1-28.6-0.4-42.9c9.5,0.2,19,0.2,28.5,0.1
			c-43-45.9-86.1-91.6-129.1-137.4c-52.3,29.6-104.4,59.6-156.5,89.5c0,16,0,32,0,48c11.1,0,22.2,0,33.2,0c0,14,0.1,28-0.1,42
			c-67.6-0.1-135.2,0.2-202.7-0.2c-0.1-13.8,0.1-27.6-0.2-41.4c11.6-0.7,23.2-0.1,34.8-0.3c0.1-95.8,0-191.6,0-287.4
			c-11.1,0-22.3-0.2-33.4,0.2C1714,814.2,1716,801.4,1715.7,789.1z"/>
		<path class="st6" d="M2206,941.9c56.8-19.6,117.9-27.1,177.6-20.3c47.8,4.9,94.4,18.3,138.5,37.2c2.1,0.7,4.7,2.1,6.9,0.5
			c11-6.6,21.2-14.5,32.4-20.7c15.9-0.8,31.9,0,47.9-0.3c0.6,48.6-0.5,97.1-0.2,145.7c-18-0.4-36.1,0.3-54.1,0.4
			c-20.4-30.7-50.9-53.7-84.3-68.6c-65.8-28.8-141-31-210.3-14.5C2242.2,981.5,2224.3,961.5,2206,941.9z"/>
		<path class="st6" d="M1994.7,1079.1c14.6-22.1,34.7-40,56.7-54.5c20.2,21.8,40.4,43.7,60.7,65.4c-18.6,16.6-33.3,39.8-32.8,65.5
			c-0.7,28.2,16,53,34.5,72.7c23.6,25.8,55.8,41.9,88.8,51.8c31.5,8.7,64.3,13.2,97,12.1c47.8,0.1,95.3-9.1,140.8-23.2
			c28.3-9.5,56.4-21.9,79-41.9c13.7-11.9,25.1-26.1,34.4-41.6c18.7-0.4,37.4,0,56.1-0.2c-2.4,15.5-8,30.4-16,43.9
			c-9.9,16.3-23.4,30-35.9,44.2c-16.8,16-34.6,31.6-55.4,42.3c-39.1,22.4-82.6,36.7-127,43.6c-91.2,12.7-186,6.5-273.3-23.9
			c-15.3-5.8-30.8-11.4-45-19.6c-31.5-17.9-59-43.6-77.3-75.1c-14.6-28.3-16.8-61.6-11.5-92.7
			C1972.7,1123.7,1981.3,1099.9,1994.7,1079.1z"/>
	</g>
</g>
<g>
	<path class="st7" d="M112.1,827.7c-9-18.6-24.8-58.3-24.4-107.5c0.4-49.2,22.6-96.7,50.3-126.2c27.7-29.5,83.4-66.6,162.7-61.2
		c79.3,5.4,127.6,52.1,150.6,93.7c23,41.6,33.3,78.3,0,71.9c-33.3-6.3-63-5.5-77.7,3.4c-14.7,8.9-35.5,26.6-32.3,62.2
		c3.2,35.7,18.6,61,16.8,93.3c-1.8,32.3-34.1,58.1-62.6,58.3c-28.5,0.2-58.3-4.2-81.9-20.8c-23.6-16.6-44-17.4-52.3-13.1
		c-8.3,4.4-17,3.2-24.6-9.5C129.3,859.6,117.3,838.7,112.1,827.7L112.1,827.7z M231.2,781c11.8,0,21.4,10.8,21.4,24.2
		c0,13.3-9.6,24.2-21.4,24.2c-11.8,0-21.4-10.8-21.4-24.2C209.8,791.8,219.4,781,231.2,781L231.2,781z"/>
	<path class="st8" d="M112.1,827.7c-9-18.6-24.8-58.3-24.4-107.5c0.4-49.2,22.6-96.7,50.3-126.2c8.1-8.6,18.5-17.8,31.2-26.4
		c-99.3,97.1-32.6,237.3,15.2,313.4c-10.3-2.4-18.4-1.6-23,0.8c-8.3,4.4-17,3.2-24.6-9.5C129.3,859.6,117.3,838.7,112.1,827.7
		L112.1,827.7z"/>
	<path class="st9" d="M454.1,698.9c-7.6,5.7-20.6,16.2-24.7,28.9c-5.5,16.8-0.8,52.1,4.6,73.7c5.4,21.6-1.4,54.7-20.3,68.6
		c-18.9,13.9-39.7,18-64.4,14.2c5.2-8,8.5-17.2,9-26.9c1.8-32.3-13.7-57.7-16.8-93.3c-3.2-35.7,17.6-53.3,32.3-62.2
		c14.7-8.9,44.4-9.7,77.7-3.4C452.3,698.7,453.2,698.8,454.1,698.9L454.1,698.9z"/>
	<path class="st10" d="M476,659.8c4-0.1,7.3,3.1,7.3,7.1c0.1,4-3.1,7.3-7.1,7.3c-27.5,0.6-60.1,4.4-87.1,13.1
		c-13.8,4.4-27.1,7.2-38.1,14.5c12.5,28.9,24.5,58.9,39,91.2c20,0.4,47-0.6,61.6-2.5c4.5-0.6,12.3-2.2,21.6-4.2l-0.9-2.1
		c-22.6-5.3-32.1-16.5-45.4-28.8c-0.8-4.7-0.5-10.9,0.3-17c1.6,0.1,3.1,0.7,4.3,1.8c10.9,9.6,19.3,19.9,33,26.1
		c-12-28-20.8-49.8-23.5-56.2c2.2-2.9,6.9-7.1,11.5-10c3,7.4,16.2,39.8,29.9,71.4c4.2,0.6,8.8,1,13.9,1.1
		c20.6,0.4,35.8,0.4,45.7,0.3c6.1-0.4,15.1-1.7,18.8,1.2c10.4,8,26.1,71.6,27.3,79.6c2.4,15.2,2.5,26.8-6.7,40
		c-4.1,6.2-15.6,9.1-24.5,11.3c-26.6,6.7-72.2,12.5-96.4,5.9c-28.9-7.9-41.1-25.1-54.6-51.5c-41.2-1.1-100.9-14.7-123.7-20
		c-4.3-1-7.7-1.8-9.9-2.2c-11.3-2.4-15.6-8.3-15.2-17.1c0.3-6.3,3.9-13.6,9.2-22.1c10.4-16.9,17.9-31.7,31-52.1
		c4.7-7.5,10-15.6,15.9-24.3c26.2-38.4,41.3-38.3,71.3-48C413.6,664.3,446.6,660.5,476,659.8L476,659.8z M339.6,711.7
		c-9.3,9.7-19.6,25.8-27.1,37.6c15.8,18.5,32.5,39.4,50.4,42c3.2,0.5,7,0.8,11.2,1.1C361,763.1,350.6,737.7,339.6,711.7L339.6,711.7
		z M573.2,879.3c5-12.3-0.5-31.4-4.9-47.1c-7.8,2.6-15.7,5.1-23.8,7.4c2.1,9.3,4,19.7,5.4,31.4C557.2,873.8,567.3,876.7,573.2,879.3
		L573.2,879.3z M551.5,886.9c0.1,1.5,0.2,3,0.3,4.6l7.5-2L551.5,886.9L551.5,886.9z M537.5,894.5c-0.3-4.6-0.6-9.1-1-13.4
		c-8.7-3.9-17.2-9-23.4-16c-2.6-2.9-5.9-8.3-9.8-15.4c-26.8,5.4-54.8,9-80.9,9.7c10.6,19.3,21.3,32,42.1,37.6
		C482,901.8,513.1,899,537.5,894.5L537.5,894.5z M534.5,863.9c-1.1-7.4-2.4-14.1-3.8-20.4c-4.2,1.1-8.5,2.1-12.7,3.1
		C523,855.3,526.2,859,534.5,863.9L534.5,863.9z M396.7,807.5c5.9,12.7,13,26.7,18.3,37.6c25.7-0.1,54.2-3.4,81.4-8.7
		c-5.4-10.8-11.2-23.4-17.1-36.6c-10.7,2.3-19.9,4.2-25.6,5C440.3,806.6,416.4,807.6,396.7,807.5L396.7,807.5z M493.6,796.6
		c6.1,13.6,12.1,26.4,17.3,36.7c5.4-1.2,10.8-2.5,16.2-3.9c-4.4-15.3-9.2-27.2-13.3-37.2C507.2,793.6,500.3,795.1,493.6,796.6
		L493.6,796.6z M398.8,844.7c-7.4-15.1-11.3-22.7-18.1-37.5c-7.7-0.3-14.5-0.8-19.9-1.6c-22-3.2-39.1-23.2-56.4-43.5
		c-10.1,16.5-17.2,29.8-25.7,43.5c-4.1,6.6-6.8,11.9-7,15.3c0,0.9,1,1.6,3.7,2.2c2.6,0.5,5.9,1.3,10.2,2.3
		C305.3,829.9,360.5,842.4,398.8,844.7L398.8,844.7z M553.3,787.1c-3.1,0.1-8.2,0.2-15.5,0.2c-2.9,0.6-6.2,1.2-9.7,1.9
		c4,9.8,8.7,21.6,12.9,36.4c7.9-2.3,15.7-4.7,23.3-7.3C561.5,809,556.1,792.4,553.3,787.1L553.3,787.1z"/>
	<path class="st11" d="M192.5,559.7c14.9-7.2,44.1-21,85.9-21.1c41.8-0.1,70.9,8.1,91.1,22.3c20.2,14.2,12.6,15.8-3,6
		c-15.6-9.7-57.9-21.3-92.5-19.5c-34.7,1.9-60.1,8.7-76.2,19.2C181.7,577.2,180.4,566.7,192.5,559.7L192.5,559.7z"/>
	<path class="st11" d="M452.7,794.2c9.5-1.1,33.5-6,40.4-7.4c6.9-1.4,18.8-0.1,2.9,3.4c-15.9,3.6-31.5,5.7-41.1,7.2
		C445.3,798.8,440.4,796.2,452.7,794.2L452.7,794.2z"/>
</g>
<g>
	<path class="st7" d="M723,827.7c-9-18.6-24.8-58.3-24.4-107.5c0.4-49.2,22.6-96.7,50.3-126.2c27.7-29.5,83.4-66.6,162.7-61.2
		c79.3,5.4,127.6,52.1,150.6,93.7c23,41.6,33.3,78.3,0,71.9c-33.3-6.3-63-5.5-77.7,3.4c-14.7,8.9-35.5,26.6-32.3,62.2
		c3.2,35.7,18.6,61,16.8,93.3c-1.8,32.3-34.1,58.1-62.6,58.3c-28.5,0.2-58.3-4.2-81.9-20.8c-23.6-16.6-44-17.4-52.3-13.1
		c-8.3,4.4-17,3.2-24.6-9.5C740.2,859.6,728.3,838.7,723,827.7L723,827.7z M842.1,781c11.8,0,21.4,10.8,21.4,24.2
		c0,13.3-9.6,24.2-21.4,24.2c-11.8,0-21.4-10.8-21.4-24.2C820.7,791.8,830.3,781,842.1,781L842.1,781z"/>
	<path class="st8" d="M723,827.7c-9-18.6-24.8-58.3-24.4-107.5c0.4-49.2,22.6-96.7,50.3-126.2c8.1-8.6,18.5-17.8,31.2-26.4
		c-99.3,97.1-32.6,237.3,15.2,313.4c-10.3-2.4-18.4-1.6-23,0.8c-8.3,4.4-17,3.2-24.6-9.5C740.2,859.6,728.3,838.7,723,827.7
		L723,827.7z"/>
	<path class="st9" d="M1065,698.9c-7.6,5.7-20.6,16.2-24.7,28.9c-5.5,16.8-0.8,52.1,4.6,73.7c5.4,21.6-1.4,54.7-20.3,68.6
		c-18.9,13.9-39.7,18-64.4,14.2c5.2-8,8.5-17.2,9-26.9c1.8-32.3-13.7-57.7-16.8-93.3c-3.2-35.7,17.6-53.3,32.3-62.2
		c14.7-8.9,44.4-9.7,77.7-3.4C1063.2,698.7,1064.1,698.8,1065,698.9L1065,698.9z"/>
	<path class="st10" d="M1086.9,659.8c4-0.1,7.3,3.1,7.3,7.1c0.1,4-3.1,7.3-7.1,7.3c-27.5,0.6-60.1,4.4-87.1,13.1
		c-13.8,4.4-27.1,7.2-38.1,14.5c12.5,28.9,24.5,58.9,39,91.2c20,0.4,47-0.6,61.6-2.5c4.5-0.6,12.3-2.2,21.6-4.2l-0.9-2.1
		c-22.6-5.3-32.1-16.5-45.4-28.8c-0.8-4.7-0.5-10.9,0.3-17c1.6,0.1,3.1,0.7,4.3,1.8c10.9,9.6,19.3,19.9,33,26.1
		c-12-28-20.8-49.8-23.5-56.2c2.2-2.9,6.9-7.1,11.5-10c3,7.4,16.2,39.8,29.9,71.4c4.2,0.6,8.8,1,13.9,1.1
		c20.6,0.4,35.8,0.4,45.7,0.3c6.1-0.4,15.1-1.7,18.8,1.2c10.4,8,26.1,71.6,27.3,79.6c2.4,15.2,2.5,26.8-6.7,40
		c-4.1,6.2-15.6,9.1-24.5,11.3c-26.6,6.7-72.2,12.5-96.4,5.9c-28.9-7.9-41.1-25.1-54.6-51.5c-41.2-1.1-100.9-14.7-123.7-20
		c-4.3-1-7.7-1.8-9.9-2.2c-11.3-2.4-15.6-8.3-15.2-17.1c0.3-6.3,3.9-13.6,9.2-22.1c10.4-16.9,17.9-31.7,31-52.1
		c4.7-7.5,10-15.6,15.9-24.3c26.2-38.4,41.3-38.3,71.3-48C1024.6,664.3,1057.5,660.5,1086.9,659.8L1086.9,659.8z M950.5,711.7
		c-9.3,9.7-19.6,25.8-27.1,37.6c15.8,18.5,32.5,39.4,50.4,42c3.2,0.5,7,0.8,11.2,1.1C971.9,763.1,961.5,737.7,950.5,711.7
		L950.5,711.7z M1184.2,879.3c5-12.3-0.5-31.4-4.9-47.1c-7.8,2.6-15.7,5.1-23.8,7.4c2.1,9.3,4,19.7,5.4,31.4
		C1168.1,873.8,1178.2,876.7,1184.2,879.3L1184.2,879.3z M1162.4,886.9c0.1,1.5,0.2,3,0.3,4.6l7.5-2L1162.4,886.9L1162.4,886.9z
		 M1148.5,894.5c-0.3-4.6-0.6-9.1-1-13.4c-8.7-3.9-17.2-9-23.4-16c-2.6-2.9-5.9-8.3-9.8-15.4c-26.8,5.4-54.8,9-80.9,9.7
		c10.6,19.3,21.3,32,42.1,37.6C1092.9,901.8,1124,899,1148.5,894.5L1148.5,894.5z M1145.4,863.9c-1.1-7.4-2.4-14.1-3.8-20.4
		c-4.2,1.1-8.5,2.1-12.7,3.1C1133.9,855.3,1137.1,859,1145.4,863.9L1145.4,863.9z M1007.6,807.5c5.9,12.7,13,26.7,18.3,37.6
		c25.7-0.1,54.2-3.4,81.4-8.7c-5.4-10.8-11.2-23.4-17.1-36.6c-10.7,2.3-19.9,4.2-25.6,5C1051.2,806.6,1027.3,807.6,1007.6,807.5
		L1007.6,807.5z M1104.6,796.6c6.1,13.6,12.1,26.4,17.3,36.7c5.4-1.2,10.8-2.5,16.2-3.9c-4.4-15.3-9.2-27.2-13.3-37.2
		C1118.1,793.6,1111.2,795.1,1104.6,796.6L1104.6,796.6z M1009.7,844.7c-7.4-15.1-11.3-22.7-18.1-37.5c-7.7-0.3-14.5-0.8-19.9-1.6
		c-22-3.2-39.1-23.2-56.4-43.5c-10.1,16.5-17.2,29.8-25.7,43.5c-4.1,6.6-6.8,11.9-7,15.3c0,0.9,1,1.6,3.7,2.2
		c2.6,0.5,5.9,1.3,10.2,2.3C916.2,829.9,971.5,842.4,1009.7,844.7L1009.7,844.7z M1164.3,787.1c-3.1,0.1-8.2,0.2-15.5,0.2
		c-2.9,0.6-6.2,1.2-9.7,1.9c4,9.8,8.7,21.6,12.9,36.4c7.9-2.3,15.7-4.7,23.3-7.3C1172.5,809,1167,792.4,1164.3,787.1L1164.3,787.1z"
		/>
	<path class="st11" d="M803.5,559.7c14.9-7.2,44.1-21,85.9-21.1c41.8-0.1,70.9,8.1,91.1,22.3c20.2,14.2,12.6,15.8-3,6
		c-15.6-9.7-57.9-21.3-92.5-19.5c-34.7,1.9-60.1,8.7-76.2,19.2C792.6,577.2,791.3,566.7,803.5,559.7L803.5,559.7z"/>
	<path class="st11" d="M1063.7,794.2c9.5-1.1,33.5-6,40.4-7.4c6.9-1.4,18.8-0.1,2.9,3.4c-15.9,3.6-31.5,5.7-41.1,7.2
		C1056.2,798.8,1051.4,796.2,1063.7,794.2L1063.7,794.2z"/>
</g>
<g>
	<path class="st7" d="M4227.8,827.7c-5.3,10.9-17.2,31.9-24.8,44.6c-7.5,12.7-16.2,13.9-24.6,9.5c-8.3-4.4-28.7-3.6-52.3,13.1
		c-23.6,16.6-53.3,21-81.9,20.8c-28.5-0.2-60.8-26-62.6-58.3c-1.8-32.3,13.7-57.7,16.8-93.3c3.2-35.7-17.6-53.3-32.3-62.2
		c-14.7-8.9-44.4-9.7-77.7-3.4c-33.3,6.3-23-30.3,0-71.9c23-41.6,71.3-88.4,150.6-93.7c79.3-5.4,135,31.7,162.7,61.2
		c27.7,29.5,49.9,77,50.3,126.2C4252.5,769.5,4236.7,809.1,4227.8,827.7L4227.8,827.7z M4108.6,781c11.8,0,21.4,10.8,21.4,24.2
		c0,13.3-9.6,24.2-21.4,24.2c-11.8,0-21.4-10.8-21.4-24.2C4087.2,791.8,4096.8,781,4108.6,781L4108.6,781z"/>
	<path class="st8" d="M4227.8,827.7c9-18.6,24.8-58.3,24.4-107.5c-0.4-49.2-22.6-96.7-50.3-126.2c-8.1-8.6-18.5-17.8-31.2-26.4
		c99.3,97.1,32.6,237.3-15.2,313.4c10.3-2.4,18.4-1.6,23,0.8c8.3,4.4,17,3.2,24.6-9.5C4210.5,859.6,4222.5,838.7,4227.8,827.7
		L4227.8,827.7z"/>
	<path class="st9" d="M3885.7,698.9c7.6,5.7,20.6,16.2,24.7,28.9c5.5,16.8,0.8,52.1-4.6,73.7c-5.4,21.6,1.4,54.7,20.3,68.6
		c18.9,13.9,39.7,18,64.4,14.2c-5.2-8-8.5-17.2-9-26.9c-1.8-32.3,13.7-57.7,16.8-93.3c3.2-35.7-17.6-53.3-32.3-62.2
		c-14.7-8.9-44.4-9.7-77.7-3.4C3887.5,698.7,3886.6,698.8,3885.7,698.9L3885.7,698.9z"/>
	<path class="st10" d="M3863.8,659.8c29.4,0.6,62.4,4.5,91.2,13.8c30,9.7,45.1,9.5,71.3,48c5.9,8.7,11.2,16.8,15.9,24.3
		c13.1,20.3,20.6,35.2,31,52.1c5.2,8.5,8.8,15.9,9.2,22.1c0.4,8.8-3.8,14.7-15.2,17.1c-2.1,0.4-5.6,1.2-9.9,2.2
		c-22.8,5.2-82.5,18.8-123.7,20c-13.5,26.4-25.8,43.7-54.6,51.5c-24.2,6.6-69.8,0.8-96.4-5.9c-8.9-2.2-20.4-5.2-24.5-11.3
		c-9.2-13.2-9.1-24.8-6.7-40c1.3-8,16.9-71.6,27.3-79.6c3.7-2.9,12.7-1.5,18.8-1.2c9.9,0.1,25.1,0.1,45.7-0.3
		c5.1-0.1,9.7-0.5,13.9-1.1c13.7-31.6,26.9-64,29.9-71.4c4.6,2.9,9.2,7.1,11.5,10c-2.6,6.5-11.5,28.2-23.5,56.2
		c13.7-6.2,22.1-16.5,33-26.1c1.3-1.1,2.8-1.7,4.3-1.8c0.8,6.1,1.1,12.3,0.3,17c-13.3,12.3-22.7,23.4-45.4,28.8l-0.9,2.1
		c9.3,2,17.1,3.6,21.6,4.2c14.6,2,41.6,2.9,61.6,2.5c14.5-32.3,26.6-62.2,39-91.2c-11-7.3-24.3-10.1-38.1-14.5
		c-27.1-8.7-59.7-12.6-87.1-13.1c-4-0.1-7.1-3.4-7.1-7.3C3856.6,662.9,3859.9,659.7,3863.8,659.8L3863.8,659.8z M4000.3,711.7
		c-11.1,26-21.4,51.4-34.5,80.7c4.2-0.3,8-0.6,11.2-1.1c17.9-2.6,34.6-23.5,50.4-42C4019.9,737.5,4009.5,721.4,4000.3,711.7
		L4000.3,711.7z M3766.6,879.3c6-2.6,16-5.6,23.3-8.3c1.4-11.6,3.2-22,5.4-31.4c-8-2.3-16-4.8-23.8-7.4
		C3767.1,847.9,3761.6,867,3766.6,879.3L3766.6,879.3z M3788.3,886.9l-7.8,2.6l7.5,2C3788.1,889.9,3788.2,888.4,3788.3,886.9
		L3788.3,886.9z M3802.3,894.5c24.5,4.5,55.6,7.3,73.1,2.5c20.8-5.7,31.5-18.3,42.1-37.6c-26.1-0.6-54.1-4.2-80.9-9.7
		c-3.9,7.1-7.2,12.4-9.8,15.4c-6.2,7-14.7,12.1-23.4,16C3802.9,885.4,3802.5,889.8,3802.3,894.5L3802.3,894.5z M3805.3,863.9
		c8.3-4.9,11.4-8.5,16.5-17.3c-4.2-1-8.5-2-12.7-3.1C3807.7,849.7,3806.4,856.5,3805.3,863.9L3805.3,863.9z M3943.1,807.5
		c-19.7,0.1-43.6-0.9-56.9-2.7c-5.7-0.8-14.9-2.7-25.6-5c-5.9,13.2-11.8,25.9-17.1,36.6c27.1,5.3,55.6,8.6,81.4,8.7
		C3930.1,834.2,3937.1,820.2,3943.1,807.5L3943.1,807.5z M3846.2,796.6c-6.7-1.5-13.6-3-20.2-4.4c-4.1,10.1-9,21.9-13.3,37.2
		c5.4,1.4,10.8,2.7,16.2,3.9C3834.1,823,3840.1,810.2,3846.2,796.6L3846.2,796.6z M3941,844.7c38.3-2.2,93.5-14.8,113.2-19.3
		c4.2-1,7.6-1.7,10.2-2.3c2.7-0.6,3.8-1.3,3.7-2.2c-0.2-3.4-2.9-8.7-7-15.3c-8.5-13.7-15.5-27-25.7-43.5
		c-17.3,20.3-34.4,40.3-56.4,43.5c-5.3,0.8-12.2,1.3-19.9,1.6C3952.3,822,3948.4,829.5,3941,844.7L3941,844.7z M3786.5,787.1
		c-2.8,5.3-8.2,21.9-11,31.3c7.6,2.6,15.4,5,23.3,7.3c4.2-14.8,8.9-26.6,12.9-36.4c-3.5-0.7-6.8-1.4-9.7-1.9
		C3794.7,787.2,3789.6,787.2,3786.5,787.1L3786.5,787.1z"/>
	<path class="st11" d="M4147.3,559.7c-14.9-7.2-44.1-21-85.9-21.1c-41.8-0.1-70.9,8.1-91.1,22.3c-20.2,14.2-12.6,15.8,3,6
		c15.6-9.7,57.9-21.3,92.5-19.5c34.7,1.9,60.1,8.7,76.2,19.2C4158.1,577.2,4159.4,566.7,4147.3,559.7L4147.3,559.7z"/>
	<path class="st11" d="M3887.1,794.2c-9.5-1.1-33.5-6-40.4-7.4c-6.9-1.4-18.8-0.1-2.9,3.4c15.9,3.6,31.5,5.7,41.1,7.2
		C3894.5,798.8,3899.4,796.2,3887.1,794.2L3887.1,794.2z"/>
</g>
<g>
	<path class="st7" d="M3616.8,827.7c-5.3,10.9-17.2,31.9-24.8,44.6c-7.5,12.7-16.2,13.9-24.6,9.5c-8.3-4.4-28.7-3.6-52.3,13.1
		c-23.6,16.6-53.3,21-81.9,20.8c-28.5-0.2-60.8-26-62.6-58.3c-1.8-32.3,13.7-57.7,16.8-93.3c3.2-35.7-17.6-53.3-32.3-62.2
		c-14.7-8.9-44.4-9.7-77.7-3.4c-33.3,6.3-23-30.3,0-71.9c23-41.6,71.3-88.4,150.6-93.7c79.3-5.4,135,31.7,162.7,61.2
		c27.7,29.5,49.9,77,50.3,126.2C3641.6,769.5,3625.8,809.1,3616.8,827.7L3616.8,827.7z M3497.7,781c11.8,0,21.4,10.8,21.4,24.2
		c0,13.3-9.6,24.2-21.4,24.2c-11.8,0-21.4-10.8-21.4-24.2C3476.3,791.8,3485.9,781,3497.7,781L3497.7,781z"/>
	<path class="st8" d="M3616.8,827.7c9-18.6,24.8-58.3,24.4-107.5c-0.4-49.2-22.6-96.7-50.3-126.2c-8.1-8.6-18.5-17.8-31.2-26.4
		c99.3,97.1,32.6,237.3-15.2,313.4c10.3-2.4,18.4-1.6,23,0.8c8.3,4.4,17,3.2,24.6-9.5C3599.6,859.6,3611.5,838.7,3616.8,827.7
		L3616.8,827.7z"/>
	<path class="st9" d="M3274.8,698.9c7.6,5.7,20.6,16.2,24.7,28.9c5.5,16.8,0.8,52.1-4.6,73.7c-5.4,21.6,1.4,54.7,20.3,68.6
		c18.9,13.9,39.7,18,64.4,14.2c-5.2-8-8.5-17.2-9-26.9c-1.8-32.3,13.7-57.7,16.8-93.3c3.2-35.7-17.6-53.3-32.3-62.2
		c-14.7-8.9-44.4-9.7-77.7-3.4C3276.6,698.7,3275.7,698.8,3274.8,698.9L3274.8,698.9z"/>
	<path class="st10" d="M3252.9,659.8c29.4,0.6,62.4,4.5,91.2,13.8c30,9.7,45.1,9.5,71.3,48c5.9,8.7,11.2,16.8,15.9,24.3
		c13.1,20.3,20.6,35.2,31,52.1c5.2,8.5,8.8,15.9,9.2,22.1c0.4,8.8-3.8,14.7-15.2,17.1c-2.1,0.4-5.6,1.2-9.9,2.2
		c-22.8,5.2-82.5,18.8-123.7,20c-13.5,26.4-25.8,43.7-54.6,51.5c-24.2,6.6-69.8,0.8-96.4-5.9c-8.9-2.2-20.4-5.2-24.5-11.3
		c-9.2-13.2-9.1-24.8-6.7-40c1.3-8,16.9-71.6,27.3-79.6c3.7-2.9,12.7-1.5,18.8-1.2c9.9,0.1,25.1,0.1,45.7-0.3
		c5.1-0.1,9.7-0.5,13.9-1.1c13.7-31.6,26.9-64,29.9-71.4c4.6,2.9,9.2,7.1,11.5,10c-2.6,6.5-11.5,28.2-23.5,56.2
		c13.7-6.2,22.1-16.5,33-26.1c1.3-1.1,2.8-1.7,4.3-1.8c0.8,6.1,1.1,12.3,0.3,17c-13.3,12.3-22.7,23.4-45.4,28.8l-0.9,2.1
		c9.3,2,17.1,3.6,21.6,4.2c14.6,2,41.6,2.9,61.6,2.5c14.5-32.3,26.6-62.2,39-91.2c-11-7.3-24.3-10.1-38.1-14.5
		c-27.1-8.7-59.7-12.6-87.1-13.1c-4-0.1-7.1-3.4-7.1-7.3C3245.6,662.9,3248.9,659.7,3252.9,659.8L3252.9,659.8z M3389.3,711.7
		c-11.1,26-21.4,51.4-34.5,80.7c4.2-0.3,8-0.6,11.2-1.1c17.9-2.6,34.6-23.5,50.4-42C3409,737.5,3398.6,721.4,3389.3,711.7
		L3389.3,711.7z M3155.6,879.3c6-2.6,16-5.6,23.3-8.3c1.4-11.6,3.2-22,5.4-31.4c-8-2.3-16-4.8-23.8-7.4
		C3156.2,847.9,3150.6,867,3155.6,879.3L3155.6,879.3z M3177.4,886.9l-7.8,2.6l7.5,2C3177.2,889.9,3177.3,888.4,3177.4,886.9
		L3177.4,886.9z M3191.3,894.5c24.5,4.5,55.6,7.3,73.1,2.5c20.8-5.7,31.5-18.3,42.1-37.6c-26.1-0.6-54.1-4.2-80.9-9.7
		c-3.9,7.1-7.2,12.4-9.8,15.4c-6.2,7-14.7,12.1-23.4,16C3191.9,885.4,3191.6,889.8,3191.3,894.5L3191.3,894.5z M3194.4,863.9
		c8.3-4.9,11.4-8.5,16.5-17.3c-4.2-1-8.5-2-12.7-3.1C3196.8,849.7,3195.5,856.5,3194.4,863.9L3194.4,863.9z M3332.2,807.5
		c-19.7,0.1-43.6-0.9-56.9-2.7c-5.7-0.8-14.9-2.7-25.6-5c-5.9,13.2-11.8,25.9-17.1,36.6c27.1,5.3,55.6,8.6,81.4,8.7
		C3319.2,834.2,3326.2,820.2,3332.2,807.5L3332.2,807.5z M3235.2,796.6c-6.7-1.5-13.6-3-20.2-4.4c-4.1,10.1-9,21.9-13.3,37.2
		c5.4,1.4,10.8,2.7,16.2,3.9C3223.2,823,3229.2,810.2,3235.2,796.6L3235.2,796.6z M3330.1,844.7c38.3-2.2,93.5-14.8,113.2-19.3
		c4.2-1,7.6-1.7,10.2-2.3c2.7-0.6,3.8-1.3,3.7-2.2c-0.2-3.4-2.9-8.7-7-15.3c-8.5-13.7-15.5-27-25.7-43.5
		c-17.3,20.3-34.4,40.3-56.4,43.5c-5.3,0.8-12.2,1.3-19.9,1.6C3341.4,822,3337.5,829.5,3330.1,844.7L3330.1,844.7z M3175.6,787.1
		c-2.8,5.3-8.2,21.9-11,31.3c7.6,2.6,15.4,5,23.3,7.3c4.2-14.8,8.9-26.6,12.9-36.4c-3.5-0.7-6.8-1.4-9.7-1.9
		C3183.8,787.2,3178.7,787.2,3175.6,787.1L3175.6,787.1z"/>
	<path class="st11" d="M3536.3,559.7c-14.9-7.2-44.1-21-85.9-21.1c-41.8-0.1-70.9,8.1-91.1,22.3c-20.2,14.2-12.6,15.8,3,6
		c15.6-9.7,57.9-21.3,92.5-19.5c34.7,1.9,60.1,8.7,76.2,19.2C3547.2,577.2,3548.5,566.7,3536.3,559.7L3536.3,559.7z"/>
	<path class="st11" d="M3276.1,794.2c-9.5-1.1-33.5-6-40.4-7.4c-6.9-1.4-18.8-0.1-2.9,3.4c15.9,3.6,31.5,5.7,41.1,7.2
		C3283.6,798.8,3288.5,796.2,3276.1,794.2L3276.1,794.2z"/>
</g>
<text transform="matrix(1 0 0 1 88.0247 1083.8026)" class="st12 st13">PLAYER</text>
<text transform="matrix(1 0 0 1 88.0247 1267.6324)" class="st12 st13">PLAYER</text>
<text transform="matrix(1 0 0 1 88.0247 1451.4623)" class="st12 st13">PLAYER</text>
<text transform="matrix(1 0 0 1 88.0247 1635.2919)" class="st12 st13">PLAYER</text>
<text transform="matrix(1 0 0 1 88.0247 1819.1217)" class="st12 st13">PLAYER</text>
<text transform="matrix(1 0 0 1 88.0247 2002.9513)" class="st12 st13">PLAYER</text>
<text transform="matrix(1 0 0 1 88.0247 2186.7812)" class="st12 st13">PLAYER</text>
<text transform="matrix(1 0 0 1 88.0247 2370.6108)" class="st12 st13">PLAYER</text>
<text transform="matrix(1 0 0 1 88.0247 2554.4409)" class="st12 st13">PLAYER</text>
<text transform="matrix(1 0 0 1 700.7906 1083.8026)" class="st12 st13">PLAYER</text>
<text transform="matrix(1 0 0 1 700.7906 1267.6324)" class="st12 st13">PLAYER</text>
<text transform="matrix(1 0 0 1 700.7906 1451.4623)" class="st12 st13">PLAYER</text>
<text transform="matrix(1 0 0 1 700.7906 1635.2919)" class="st12 st13">PLAYER</text>
<text transform="matrix(1 0 0 1 700.7906 1819.1217)" class="st12 st13">PLAYER</text>
<text transform="matrix(1 0 0 1 700.7906 2002.9513)" class="st12 st13">PLAYER</text>
<text transform="matrix(1 0 0 1 700.7906 2186.7812)" class="st12 st13">PLAYER</text>
<text transform="matrix(1 0 0 1 700.7906 2370.6108)" class="st12 st13">PLAYER</text>
<text transform="matrix(1 0 0 1 700.7906 2554.4409)" class="st12 st13">PLAYER</text>
<text transform="matrix(1 0 0 1 3176.3647 1083.8026)" class="st12 st13">PLAYER</text>
<text transform="matrix(1 0 0 1 3176.3647 1267.6324)" class="st12 st13">PLAYER</text>
<text transform="matrix(1 0 0 1 3176.3647 1451.4623)" class="st12 st13">PLAYER</text>
<text transform="matrix(1 0 0 1 3176.3647 1635.2919)" class="st12 st13">PLAYER</text>
<text transform="matrix(1 0 0 1 3176.3647 1819.1217)" class="st12 st13">PLAYER</text>
<text transform="matrix(1 0 0 1 3176.3647 2002.9513)" class="st12 st13">PLAYER</text>
<text transform="matrix(1 0 0 1 3176.3647 2186.7812)" class="st12 st13">PLAYER</text>
<text transform="matrix(1 0 0 1 3176.3647 2370.6108)" class="st12 st13">PLAYER</text>
<text transform="matrix(1 0 0 1 3176.3647 2554.4409)" class="st12 st13">PLAYER</text>
<text transform="matrix(1 0 0 1 3789.1306 1083.8026)" class="st12 st13">PLAYER</text>
<text transform="matrix(1 0 0 1 3789.1306 1267.6324)" class="st12 st13">PLAYER</text>
<text transform="matrix(1 0 0 1 3789.1306 1451.4623)" class="st12 st13">PLAYER</text>
<text transform="matrix(1 0 0 1 3789.1306 1635.2919)" class="st12 st13">PLAYER</text>
<text transform="matrix(1 0 0 1 3789.1306 1819.1217)" class="st12 st13">PLAYER</text>
<text transform="matrix(1 0 0 1 3789.1306 2002.9513)" class="st12 st13">PLAYER</text>
<text transform="matrix(1 0 0 1 3789.1306 2186.7812)" class="st12 st13">PLAYER</text>
<text transform="matrix(1 0 0 1 3789.1306 2370.6108)" class="st12 st13">PLAYER</text>
<text transform="matrix(1 0 0 1 3789.1306 2554.4409)" class="st12 st13">PLAYER</text>
</svg>
