<?xml version="1.0" encoding="utf-8"?>
<!-- Generator: Adobe Illustrator 16.0.0, SVG Export Plug-In . SVG Version: 6.00 Build 0)  -->
<!DOCTYPE svg PUBLIC "-//W3C//DTD SVG 1.1//EN" "http://www.w3.org/Graphics/SVG/1.1/DTD/svg11.dtd">
<svg version="1.1" id="Layer_1" xmlns="http://www.w3.org/2000/svg" xmlns:xlink="http://www.w3.org/1999/xlink" x="0px" y="0px"
	 width="1686.24px" height="1465.229px" viewBox="0 0 1686.24 1465.229" enable-background="new 0 0 1686.24 1465.229"
	 xml:space="preserve">
<metadata><?xpacket begin="﻿" id="W5M0MpCehiHzreSzNTczkc9d"?>
<x:xmpmeta xmlns:x="adobe:ns:meta/" x:xmptk="Adobe XMP Core 5.3-c011 66.145661, 2012/02/06-14:56:27        ">
   <rdf:RDF xmlns:rdf="http://www.w3.org/1999/02/22-rdf-syntax-ns#">
      <rdf:Description rdf:about=""
            xmlns:dc="http://purl.org/dc/elements/1.1/">
         <dc:format>image/svg+xml</dc:format>
         <dc:title>
            <rdf:Alt>
               <rdf:li xml:lang="x-default">Print</rdf:li>
            </rdf:Alt>
         </dc:title>
      </rdf:Description>
      <rdf:Description rdf:about=""
            xmlns:xmp="http://ns.adobe.com/xap/1.0/"
            xmlns:xmpGImg="http://ns.adobe.com/xap/1.0/g/img/">
         <xmp:MetadataDate>2021-07-11T14:51:44+07:00</xmp:MetadataDate>
         <xmp:ModifyDate>2021-07-11T14:51:44+07:00</xmp:ModifyDate>
         <xmp:CreateDate>2021-07-11T14:51:43+07:00</xmp:CreateDate>
         <xmp:CreatorTool>Adobe Illustrator CS6 (Windows)</xmp:CreatorTool>
         <xmp:Thumbnails>
            <rdf:Alt>
               <rdf:li rdf:parseType="Resource">
                  <xmpGImg:width>256</xmpGImg:width>
                  <xmpGImg:height>224</xmpGImg:height>
                  <xmpGImg:format>JPEG</xmpGImg:format>
                  <xmpGImg:image>/9j/4AAQSkZJRgABAgEASABIAAD/7QAsUGhvdG9zaG9wIDMuMAA4QklNA+0AAAAAABAASAAAAAEA&#xA;AQBIAAAAAQAB/+4ADkFkb2JlAGTAAAAAAf/bAIQABgQEBAUEBgUFBgkGBQYJCwgGBggLDAoKCwoK&#xA;DBAMDAwMDAwQDA4PEA8ODBMTFBQTExwbGxscHx8fHx8fHx8fHwEHBwcNDA0YEBAYGhURFRofHx8f&#xA;Hx8fHx8fHx8fHx8fHx8fHx8fHx8fHx8fHx8fHx8fHx8fHx8fHx8fHx8fHx8f/8AAEQgA4AEAAwER&#xA;AAIRAQMRAf/EAaIAAAAHAQEBAQEAAAAAAAAAAAQFAwIGAQAHCAkKCwEAAgIDAQEBAQEAAAAAAAAA&#xA;AQACAwQFBgcICQoLEAACAQMDAgQCBgcDBAIGAnMBAgMRBAAFIRIxQVEGE2EicYEUMpGhBxWxQiPB&#xA;UtHhMxZi8CRygvElQzRTkqKyY3PCNUQnk6OzNhdUZHTD0uIIJoMJChgZhJRFRqS0VtNVKBry4/PE&#xA;1OT0ZXWFlaW1xdXl9WZ2hpamtsbW5vY3R1dnd4eXp7fH1+f3OEhYaHiImKi4yNjo+Ck5SVlpeYmZ&#xA;qbnJ2en5KjpKWmp6ipqqusra6voRAAICAQIDBQUEBQYECAMDbQEAAhEDBCESMUEFURNhIgZxgZEy&#xA;obHwFMHR4SNCFVJicvEzJDRDghaSUyWiY7LCB3PSNeJEgxdUkwgJChgZJjZFGidkdFU38qOzwygp&#xA;0+PzhJSktMTU5PRldYWVpbXF1eX1RlZmdoaWprbG1ub2R1dnd4eXp7fH1+f3OEhYaHiImKi4yNjo&#xA;+DlJWWl5iZmpucnZ6fkqOkpaanqKmqq6ytrq+v/aAAwDAQACEQMRAD8AJfzz/L4+UfN8ktpHw0bV&#xA;i1zYcRRUav72H/YM1R/kkZ1Gg1Piw3+oc2icaLD9E8p+Y9cjlk0iwkvUgIWYxUPEsKitT3pmRkzw&#xA;h9RpABKZf8qu/MD/AKsdz9y/1yv87h/nBeEu/wCVXfmB/wBWO5+5f64/ncP84Lwl3/KrvzA/6sdz&#xA;9y/1x/O4f5wXhLv+VXfmB/1Y7n7l/rj+dw/zgvCXf8qu/MD/AKsdz9y/1x/O4f5wXhLv+VXfmB/1&#xA;Y7n7l/rj+dw/zgvCXf8AKrvzA/6sdz9y/wBcfzuH+cF4S7/lV35gf9WO5+5f64/ncP8AOC8Jd/yq&#xA;78wP+rHc/cv9cfzuH+cF4S7/AJVd+YH/AFY7n7l/rj+dw/zgvCXf8qu/MD/qx3P3L/XH87h/nBeE&#xA;u/5Vd+YH/VjufuX+uP53D/OC8Jd/yq78wP8Aqx3P3L/XH87h/nBeEu/5Vd+YH/VjufuX+uP53D/O&#xA;C8JWTflp57ghkmm0W4jiiUvI7BQFVRUkmvYYRrMRNCQXhLGcyUOxV2KuxV2KuxV2KuxV2KuxV2Ku&#xA;xV2KuxV6P+Rn5fHzd5vjlu4+ejaSVub/AJCqu1f3UP8As2Wp/wAkHMHX6nwobfUeTKEbL6V/NLyL&#xA;D5z8oXWlUUX8f+kabK23C4QHiCf5XBKN7GvbNBpNR4UxLp1bZCw+Vfy5813Pk3zeDeK0Vq7m01WB&#xA;gQUAahYr/NE2/wB4750OswDNj258w1RNF9To6OiujBkYAqwNQQehBzlW9vFXYq7FXYq7FXYqgNfk&#xA;ki0LUZYmKSJazMjqSGVhGxBBHQjFXyh+XPl788vP+l3WpaP51ureC0n+ryLeanqCOX4K9VEayilG&#xA;8cVZf+VvnT8yvLH5rp+XnnHUH1VLkMnqSytctG5hNxHJHM/7wq42Kv0r0FMVTj8p/MfmG+/Pjzvp&#xA;l7ql3dabafXfqtlNPLJBFwvY0X04mYovFTQUHTFXu+KvLP8AnI3zvd+V/wAv2j066ktNW1WdLa1n&#xA;hcxyxop9SWRGUgj4V4VH82KsL/5x985+brTzxq3krzjf3V3fywJcWgvZ5Lh0kjQSNGjSFiOcMgen&#xA;+TiqS/njceevI3nGWePWr+68p+Y45UW0uLiaeKIPQXEISRmVeNQyUH2Tx7HLtPkEMgkeQKCLDynX&#xA;9SmLQWNi59echi6Eg0P2aEePXN3r9TKxjxn1S7mqA6lD68byzgsIY7mX1DzEknNqs3w9TX32ynX8&#xA;eOMIiRve9z5JhRt36E8yf8t//JaX+mP5LU/z/wDZSXij3Iy6S+s/L0omnLXKb+srsTu4/aND0zIy&#xA;xyY9MeI+rvvzQKMkts9P8wXdslxHfEJJWgaWQHYkdgfDMLDp9RkiJCex/pFkSB0ROi32oxam+nXk&#xA;hloDRieRBAr9rqQRl+iz5I5TimbRICrDIs3LW7FXYq7FXYq7FXYqqW9vPc3EVvAjSzzOscUSirM7&#xA;GiqB4knATQsq+2Pyt8iw+TPKFrpVFN/J/pGpSrvzuHA5AH+VAAi+wr3zk9XqPFmZdOjfEUGXZjMn&#xA;zJ/zkt+Xv6N1ePzbYRUs9TYR6iqjZLoDZ/YSqP8AggfHN/2XqeKPAeY5e5qnHqnX5E+dv0tojaDe&#xA;SVv9KUfVyer2vRf+RZ+H5ccxO09NwS4xyl97KEnqOatm7FXYq7FXYq7FUu8x/wDKPap/zCT/APJp&#xA;sVfIf5Q/l/8Amr5l0W9uvJ3mT9C2MNz6VxB9dvLXnL6atz426Op+EgVO+KvZvyl/IK/8seZW82ea&#xA;NVXVdeAf0BEZJEV5VKPK80oWSRijECqilT12oqx78mv/AForz/8A9H//AFHx4q+iMVfKX5+eddIv&#xA;Pzk0uz1QSz6B5ZaEXkNuqu7u7LPOqh2RfiASM1PbFUk8+/m55c1H80dF89+WLa8tp7L0v0jDdpEh&#xA;l9JiDx9OWX7cLGNq07Yqzb/nJDW7LzDcadYW0olsoLIXsUq9Od0A6N/yLVT9ObjR6UTwSJ6/oa5S&#xA;3eI+UrVHeW7c8pI6Rx17Cn9Nsl2TiBJmeY2RkPRf5wBLWQBoSZKH/gMl2vzh8f0LjW/oTzJ/y3/8&#xA;lpf6YPyWp/n/AOykvFHuRuqRTxeXJI539SZVUO9SanmO53zJ1UZR0xEjZofeiP1JHFaa1Hpa3kFw&#xA;4tgCfTjkcFQCQTx2HXwzVxxZxi44yPD3AlnYuk08rWtqwe89Uy3R+Fw2xSu/ia18czuy8UDc7uX3&#xA;MZnoyDNw1uxV2KuxV2KuxV2Kvb/+cafy9/SWryebb+KtnpjGPTlYbPdEbv7iJT/wRHhmo7U1PDHg&#xA;HM8/c2Qj1fTeaBtdiqWeZvL2n+Y9AvtE1BeVrfRGNyOqt1R1/wApGAYe4yzFkMJCQ5hBFvjCNtd/&#xA;Lvz2ySrxvtJnKTR1IWaI9f8AYyxmo+YOdTIRz4vKTRyL6o0rVLPVdNttSsn9S1u41libvRhWh8CO&#xA;hHjnK5IGEjE8w5AKKyCuxV2KuxV2KoXVrSS80q8tIiBJcQSxIWqFDOhUVoDtvirz/wDIr8tNd8ge&#xA;XtQ03WJ7W4nu7v6xG1m8joE9JEoxkjiNar4Yq9KxV8469/zj/wDmy/nfXfMXlzzBaaSuq3dxMjw3&#xA;l5bT+jNKZAkhhh+VRyIriqZeVPyl/PvTPMum6hqvnIX+m2txHLd2TapqMgljU1ZCkkXA8um+Ksg/&#xA;KD8ofMflfzZr3mnzRdWd5qmqgiF7N5ZAvrymW4LerHFSrBONK98VZT+bvkGTzz5IutDt3iiv/Uju&#xA;LCacsI0mjb9oqrsA0bOuw74q+Ult7+K2azvJ0uZoF+rJPGWZGjiX046FlU0CKANumdVpcMo4eE82&#xA;iR3QWg6XcafBLHMyMXbkOBJFKU7gZHQaWWGJEq3Kzlanr+kXWoG3MDohi515kj7XGlKA+GQ1+knm&#xA;4eEja/0JhKkD+hPMn/Lf/wAlpf6Zi/ktT/P/ANlJPFHuR36L1B9Fls55hJcuaiRmZhTkD1Ir2zK/&#xA;K5DgMJG5HzKOIXaM0uze10+K2lKsyAhuO6mrE9wPHMnS4TjxiJ6MZGyl9rol3Zao1xaun1RzRomL&#xA;A8TuQKAjbtmHi0U8WXigRwHoyMrCd5tGDsVdirsVdirsVTPy15f1DzFrtlounpzu72URp4KOrO3+&#xA;SigsfYZXlyCETI8goFvuTyz5e0/y5oFjomnrxtbGIRoT1Zuru3+U7Esfc5yOXIZyMjzLkAUmeVpd&#xA;irsVeHf85L/l7+kNKi832EdbvTlEWpKo3e2J+GTbvEx3/wAk/wCTm37L1PDLgPI8ve15I9WG/kB5&#xA;29KeTyreyfu5i0+msez0rJF/sh8Q+nxy7tXTWPEHxRjl0e55om12KuxV2KuxV2KuxVA6lrmj6YvK&#xA;/u47faoRm+Mj2QVY/QMryZoQ+o0yjAy5BheufnZ5U0tSRVwOjzOluh+Rarf8LmKdcD9ETJu/LkfU&#xA;QGDan/zlHpcTFLb6vX2Saan+yHprj4moPKIHvXhxjqkU3/OVcokPCOQr/kW8dP8Ah5a48Oo74ovF&#xA;5qUn/OU8s0UkLxzKsqMhf0IgV5ClQRL18MlEagG7j9q3i82Bxa15IuKBNRltWPQXETH8UFPxzbx7&#xA;b1Ufqxxl7jX321+DjPIkI+PSDcxmXTrqC/jHUwSKSPmK5m4faHCTWQSxnzG32fqYHSS/hIKClhlh&#xA;cpKjRuOqsCD+ObrFlhkHFAiQ8nHlEg0VmWIdirsVdirsVdirsVdirsVdir6Z/wCcaPy9/R+lS+b7&#xA;+Ol3qKmLTVYbpbA/FJv3lYbf5I/ys0Hamp4pcA5Dn723HHq9xzUNjsVdirsVU7m2guraW2uI1lt5&#xA;0aOaJhVWRxxZSPAg4QSDYV8WfmF5S1H8v/PUltbO8ccMi3mj3XcxcuUZr3ZCOLe4zqtNmGfHv7i0&#xA;EUX0V5I81W3mjy3a6tDRZJBwuoR/uudNnX+I9iM5vU4DimYluibCe5Ql2KuxV2KpXrvmXSNDg9W+&#xA;m4uwrHAvxSP/AKq/xO2U5s8cY9RZwxmXJ4h5+/5yHaCV7LTmMcpPBbW1PKcn/Ll/Y+S7/PMSMs2f&#xA;6fTH7W8iEOe5eW/pH8xvNt76FoJbd7ivG2tEee6eo6njVyd99x8s2un7BocWTbzl+r9bTPVE7BOr&#xA;H8irjkZvMN/a2EjUMv164aa5qOv7i1Esin2kpmRPPocGxPGfJgMeSXRkdn+XP5ZWTqZ72+vpRTex&#xA;tLe0X3AkleZz8zHmLP2gwx/u8YbRo5HmU1/QHkBI+C+XtTuCKcZZ7+h9/hjtkGUn2lzdIAMhoh3q&#xA;N1on5cSx/V5NE1G0O3NotQVj2P2JbZhjH2myX6ohToR0LEvNP5a6FFp02raO4vbCBlF5DPCsF1AJ&#xA;G4o7cGdJIyxC81YGpFVFRXddn6/T6z0mAE3Gy4ZY/cwN/LVqkgmsppbOdd0dGOx8evL/AIbMvN2T&#xA;ikNtvtDWMhCYQeZNfsEEOswLrGnL1mG06Dx5bE/T/wAFmky9lZtOePEeH3cviPwHIjqBLaW6cW1j&#xA;Z6pCl3o04uLZzxdG2kiY9nGZmm7fABjnHDMDpyl7vNEtLe8NwgpYpIpGjkUq6GjKexGdDjyRnESi&#xA;biXFIINFZk0OxV2KuxV2KuxV2Kst/LDyNP5z83WulAMtkp9fUZl/Yt0I5b9i2yr7nMbV6gYoGXXo&#xA;mIsvtm2toLW2itreNYreBFjhiUUVUQcVUDwAGcmSSbLkKmBXYq7FXYq7FXm/56/l7/i3yg89nFz1&#xA;rSeVxZcRVpEp+9hH+uoqv+UB45n9n6nw50fpkwnGw8C/JTzt+gfMY027k46XqpWJyx+GOfpFJ7A1&#xA;4t869s23aWm8SHEPqiwhKi+lc5pudirsVYL57/Myy0OKe3spEa6iUm4uX/uoAOtezMPDoO/hmBqN&#xA;ZwnhhvJyMWG95cnzH5k89695rvZo9Pmkjs3bjcajJX1ZPZa7gU7D8Myuz+yJZZcUtz3nkP1ljl1F&#xA;Co7BDaBH5X0a8U6hCbiJd5YhOkEshPQNKyScV8Qq7+x3zq8eLFiFRlES7y4ZJL0JvzbkisjZaHod&#xA;hpuluPhgjaduW1A0jpJF6595Q2Uz7Lx5jxTnKfx2+xlHKY8hSCtPP/nW9u4LHTEtkuLh1it4LWwt&#xA;BIzueKqr+k0hO/8ANko9k6TGL4BspzzPV6fB5o1byiBbvq9xrXmJQBeyNO66dbOu3pQwxGMTMnRm&#xA;f4a/s5yvaHasATDDGIHfTm4dMSLkUq/M38yvOCeVbHSJ9UnGqa3S+uHtiLaSGzDFYIkaARsDMwLt&#xA;vXiF7E5s+xNIc2M5Mu4PLo0amQjKopF5Pj83zeSJNM143d/ex3xuNKW7VnurXTlRg5nkcc40lcqy&#xA;o5+EKW2DCuk7RiJnggOKVuRp7G52CVeZNfsrLSLvRrKdbq8v+Ed/LCQ8EcMUiy+krjaR2ljRiyfC&#xA;AuxbkeO+7B7InhPi5Nj0H62jVagT2HJgU08MYo8yRMenIgfrIzpJzA5kBwwEquNfezlVZxFcwsdp&#xA;bdhUexQlv15gZNecZ9VSHfH9X7WYharb3L2s41rQZOM0f+9NsKhZV6srp4/7Y3zC1+gxanGZQ59f&#xA;x3/e2YspgU90LUk80rPJIwgntrjizvQE28zH0QaUBdSOHvtmo0naB0MTEjiiRYH9Lr8DzcmWPxTf&#xA;I/oUCCCQeo2OdsDYt17WFXYq7FXYq7FXYq+wvyK/L3/CXlBJ7yLhrWrcbi95CjRpT91Cf9RTVv8A&#xA;KJ8M5jtDU+JOh9MW6EaD0jMBm7FXYq7FXYq7FXYq+R/z+/L0+V/NjanZR8dH1lmnh4j4Yp61mi26&#xA;bnmvsaD7OdL2dqfEhR+qLTONF6f+UXnb/E3llEuX5arp3GC8qficU/dy/wCzA39wc1Gv03hT2+k8&#xA;myErDOcwWTzz8xPP62STaXpsoWZVP127B2iA6op/m8T2+fTWazV16Ic3KwYf4i+a/Mlp5t823Po2&#xA;du1po0RrG9wTF6rVp6jLTnT+UcchgliwCybn5MsgnkO3JZbflPeNCsV5q5EK7iCJGZQT4cmA/wCF&#xA;yyXa21AGvegaTvKvN+UFgYmEOoSrLT4S6Ky19wOJ/HKh2mesWR0nmwzSor3SvMT6dMSCrvFOi7gl&#xA;QeLfLvXwzo+zM58SJjyk4OSNWD0e7/ljYjR9D1DzjIKXrs2maCT1WZ1Bubhe49KJuKsO7e2Xe0Wu&#xA;8PHwR5yZaXFxSs8gjtA06G/1SOO6cxWMSvcX8/8AJbQKZJmqe/BTT3zidLgOXIIDqXZ5J8MSUotf&#xA;z21qHzDZW9xYS2+lXlwtnFPZajei5gjkYJH/AHzTRNwXfjwANOq51Gq7LlhA9RryJdbHPfQfJkXm&#xA;HUri9uZNE8xOdW0+xnliXf03UqxQyxOnE8qCq8+S16qc0ml7UzaaexsW5s9PGY7nkvnLSrXQda1T&#xA;SLy4Dx6ddTWpmBMfqei7JWimvxca8c9EllhLGJT2BHe6ijbA79vLTVFuJlfs6bqT7iQ1zR5zpT9P&#xA;Ff4720cSdeXLLy4vk3VNSltRqWvRXEUUFk7sAlu6kvNwQhmoRStds0uWR4wLoORADhurKF0HWud2&#xA;1rMaK+9vyJJU/wC++R3PtXOj7M1hJ4Jm+4/ocbJHqEA95No2vvJb7xwzpN6NSFbieaqadhXNXr8A&#xA;GSUfxu2Y5kUU4Tz/AGhZmn0aNixqSk8qH368xkRq9UAAMmw/ox/Uz9HWP2lPbXWfKGoxRrDdmwvX&#xA;pyhn5FASN19TiB171yzD2zqccv3kROHlsUnDjkNjRRV5o9/ap6joHh6+rGeS0PfN3o+19PqDUTUu&#xA;47FoyaecNzyQObNpdirsVeo/kB+Xp8z+bF1K9j5aNorLPNyHwyz1rDFv1FRzb2FD9rNd2jqfDhQ+&#xA;qTOEbL65zmm52KuxV2KuxV2KuxV2KsZ/MbyVaecfKd5o03FZ2Hq2M7D+6uEB9Nvkfst/kk5kabOc&#xA;UxJEhYfJHknzHqHkbzmHu0eJYZGs9Wtj14BuL7fzIw5D5Z0epwjNjoe8NMTRfQ3mrzFdLZR2mgI1&#xA;5qN9GHheAcxHC/SYsNhy/ZJ+ecVq8so+iI9f3ObigDueTEdK/KbVbg+rqt0tqGNWjT97Ia9amoUf&#xA;OpzAx9myO8jTkS1QHJlunflv5Vs6FrdruQft3DFv+FXin4Zmw0OKPS/e48tRIsgt9N062ULbWsMK&#xA;joI41X9QGZMccRyAajInm8l/Nw6TZ6ukkSpAYrb1LwoAqihZgzU/a49famafXwHiARG7nacnhJL5&#xA;l0mSXVvM13qhDUZ3dBtWspKolP8AVrnVdj6f1DugHX5pX8X0N5mgXS4tL8sx0CaFaJDcAbg3k376&#xA;6b/kY/H/AGOcz2xqvGzk9A7DSw4Ye92mWdpeeVdZsk1OLTtR1Ew23OaK5kAtFb1ZQDbxTbu6Rj5A&#xA;5b2LqcWDIZ5Pgx1UJSFBiA0nyl5U1O31G61E63q2nuJ9PsYYXito7hf7ueZpuEjmP7SJwUV3JI+H&#xA;Oly5MuuA8IcMP50vxv8AjdwhAQPqSW5826rJP6sLCEhuYNA7E1rVi4IP3ZPS+zmnx7zucvPYfIfp&#xA;tM9ZM8tgv0/yd518zztfWWkXupvcSM8l8IXdGkckuWmI41J61bNzPLihsSBTjAEsu0v8kPzHt7iL&#xA;655bs7gSFeMF9exoCD0+G3uopP45jT12IjaR+A/WEiJZH/yo3UWVl1P8r9LvA4oZLDVZ7aVaU6Nc&#xA;XE4/DMDJkwz/AI/nEfoAZgFUt/8AnFHyHrXNGsNe8p6iFLKkk9re2levwyRiUtSo+06nNdkxiO8Z&#xA;CXz/AEswWL67/wA4Y+abO9W6sNWi8xWKkNc2rOdOvZF/kikkW8hDf5TmntlcpGRslL2TyP8AkF+X&#xA;0HlYadrGiDUFLExjV7a0GpW+55QteWaoZVB+ywc+xpQAWqTeZP8AnED8s78tPoE975cvQKwtbytc&#xA;Qq3iUnLSH/YyrgIB5q8j88flD+b/AJEt5Lm6ij84+WYSWkuYAxuIo135yJvKm1SWBdV7kZVDF4cu&#xA;LEeCXl+rkWzxSRUtww2y/R2sWjXejSFzHvPZSUE0f0D7Q9xm50fbdSEM44SeUh9J9/cwnpwRcPl1&#xA;Q+dE4qvY2V1fXsFlaRma6uZFigiXqzueKqPmTglIAWeSvt38ufJVp5O8p2ejQ8WnUerfTqP724cD&#xA;1G+Q+yv+SBnJanOcszJyIigybMdLsVdirsVdirsVdirsVdir5w/5ya/L0295F5zsIv3FyVt9WVRs&#xA;soFIpjT+cDgfcDu2b3srU2PDPwaskeqr+QnnX6/pknlu8krd2A9SyZju9uTQp/zzJ/4EjwyjtTTc&#xA;MuMcjz96YS6PWs1LY7FUFrOrWuk6bPf3JpHCtQvdmOyqPcnK8uQQiZFlCJkaD5V/M7UfM3mCea0s&#xA;LeSe4vm9S+nHwRqh+zEHYgduldgPfNTppx4jkyFzMsTXDEJH5c8lea9MSJ4rq0s5oZRPFKEa4cSK&#xA;QQSr/uzTiNiCM2ce3fDgYQHNpGjJ3KYedfMH5uafZyaq3m+7lBcfWGtf9CcFz9v9wVr8X07/ADzH&#xA;0+rjklVUVy4TEXbFdO/MHzLOXn1rzZqlxI+3oTXd3KrAbfHVmDfI5vdJ4MfVkPwcWV9FGXzfpxcs&#xA;wmkZiSzUBJJ7mrd82h7VxDofx8Wvwyi9N86WUEwkgmNvNtwkeNSykGoKtRuBHiCMnHtHDPYmvevA&#xA;U7vvMOtarSS/1K5v+Q+F555Jqg+7s3jmbCEAPSBXkwKCyxXpf5Red/L2jWWvaDqzvpba/ayWlv5l&#xA;twWns2ljZK0WjhQxDgodmAr4rre0dLPKAY9OjOEqQ3lP8i/zmm81S2EXnK6sNKmga707zNp9zc3F&#xA;pecWUAK8MicHoxNJGB2PHkN852QINHm3M/tfyl/5yl0k10r8ybe6p/1cGmn/AOT8F3gVFpf/APOY&#xA;+i/C+naH5mXu4aKI9e1JbDf/AGOKqg/5yE/MvRPh83/lbqcEUe89/p5eaEAdSB6bR9if77FU/wDL&#xA;f/OUv5O63IsMupy6NcseIh1SFoaH/KlQywr/ALJxgViP5z/kto2tadL+ZH5ZyQDWbcNdXMOnsslt&#xA;qEa7ylBEShloCSF+30pyNcjkxiYopjIg2Hhk09rqulW2uWiiMT/BdQj9iYdf8/l45suwtZISOnmb&#xA;4d4ny7vh+OSdRAECY683tv8AzjL+XpuLyXznfxfuLYtb6SrDZpSKSzCv8gPAe5Pdcze1dTQ8MfFo&#xA;xx6vo/NE2uxV2KuxV2KuxV2KuxV2KuxVA67oun65o95pGoR+rZ3sTQzL3ow2ZfBlO6nscnjyGEhI&#xA;cwgh8WX9nrv5defHhY0vtIuKo+4SaI7g/wCrLG3451QMc+LykGjkX1FoOtWWt6PaarZNytruMSJ4&#xA;qejI3+UrVU++ctlxmEjE8w3g2j8rSxvzL5TuPMN1El1emDS4N1t4R8buerMzbCnQbHMTPpjlO5qI&#xA;bseXgGw3VdO8ieVbAAx2CTOOslx+9J96PVR9AyUNHjj0+aJZpHqmGp3WmaTpVxczokdpEh5xhQA1&#xA;dglOh5E0yzJKMIknkwiDI0+dNT8rjzOBZm3nniEnqG1tuVD14huILUHzzQYMk4yJgN3ZZIgjcpvp&#xA;H5CycV4aHa26/svdFXP08vVf7xmZ4epnzNfZ9zRxYopprX5Ow6Vod9qd4li8dnA80kMcIbkEUkqC&#xA;yr16Zfh7PzTkI8e58yxOeA/heLa/5Z8s6ppt3d6XD9Rv7SJpzGo4o6oKkcQSo9iKZlZtLqdJKIyV&#xA;KEjVjvYXDIDw7EMa8t6lbW2nSC5nVFWQ8EJq1KAmi9aVzo+ztTGGM8cq3cKYssgilWWJZFqFYVWo&#xA;oafI5uISEhYa0FBq8NxqbWcFHSONmeQdCwIFB9+YuPVieXgjuAObIx2tmXlH89PzE8q3VhYeXYX1&#xA;PQ9Omle9sBE0iTevw5xeooYx8OHJGXozGoYbZou1c+PxeY5N2OBI5PQLr/nLP8zGcG18iJElPiEr&#xA;XEhJ9iqx/qzW/mMf84fMNnhy7iioP+cv/NsNPr/5eTsKCrw3EqAHufitpPuriM+P+cPmvhy7imFt&#xA;/wA5o6CopqflLU7VqdInjl+LuPjEGWgg8mNFJfNf/OS/5UeZoimofl3PrcjKVZryK3EiilBwlUSy&#xA;L81IxsDminl9v5t17SPMMer/AJXeXdU8ngsDc2Ml5JeWU4Wuzx3EMdev7TtTtTKZanGP4gzGKR6I&#xA;78svKmueZLi/0YWY06XVdS5Q23FljgUkSSsgap9OOMbb7gYNNqIjVwmN6Er+RbTEjEQX25oWi6fo&#xA;ej2ekafH6VnZRLDCveijdm8WY7se5zKyZDORkeZcYBHZBLsVdirsVdirsVdirsVdirsVdirxn/nJ&#xA;H8vf0xoKeaLGOuo6OhF2qjeSzJqSf+MJPL5Fs2vZep4ZcB5S+9rnHq85/IPzt9T1CTyxeyf6Neky&#xA;2DMdknA+JN+0ijb3HvmV2pprHiDmOfuRjl0e+ZoG12KuxVA6pomnaqIVv4zPFC3NISxCFugLAEcq&#xA;e+V5MUZ/UyjMx5Im2tbW1iENtCkES9I41CKPoFMnGIAobIJJ5quFDEfzbn9D8utbfbeJI9/+LJUT&#xA;t/rZmaAXmixnyfMVslg+mXdvJctDcXqGDkiFisbEchvQVYbdcye2NPqM04iEf3cPVueZ+/ZnglCI&#xA;NncsU8weX9H0DXUhDyS20Fss8nqlSXlZ2VVAAUU2BzVdlZhkvJk5R+3uZ6iHCaCZW+h3l9brea5c&#xA;PZWcw5W+nW9PWkU9Gcn7I+f3DMs6vUayZji+kcz/AAj9ZYjHGAuX7UVP5L8uWt81xHfyR2ckaj6l&#xA;AeUrbAsGlJNASNxmJpMOsncYx4eYMjsOfzPwbJjEN7+D6d8hflj5X0zyzZJLYI000SSvG1aRl1Dc&#xA;BvuRXdjuTvmOdFASPF6z3oOY9NgnmqeQ/LV9p1xaR2UVrJKhWO5hXhJG1PhdSKHY/flmPBiiQeGJ&#xA;+DE5Zd75ZuNR1qzupraW4cS28jRyAmvxISp6jxGdN/JOkmL8OO/wafzGQdWh5i1gD/ej/hE/5pys&#xA;9gaP+Z/spfrZfmsnf9y1vMGrsKG4P0Ko/UMlHsLRjlD7Sf0oOqyd6Hkv76Q1e4kY9qsczMehwQFR&#xA;hEfANZyyPMl9Q/8AOO3ki60/y8PMuql3vtSU/UUk3MVqaENvvWWlf9Wnic53XYcMcp8OIietN0ck&#xA;jGiXsOYquxV2KuxV2KuxV2KuxV2KuxV2KuxVbJHHLG0Uqh43BV0YAqykUIIPUHEFXxh+ankq78h+&#xA;eJIbQvFZSOL3RrhSaqnKoUN/NE44+PQ986rSZxmx78+RaJCi99/L7zfB5q8s22pAqLtR6V9EP2J0&#xA;HxbeDfaHsc57V6c4pmPTo2xNhkmYzJ2KuxV2KuxVgX54Ten+XOoJyp6slulPGkyvT/ha5n9mD98P&#xA;j9zCfJ8xgkGo6jOmItpTXVtAh1jWtL16UB9PggY3iGlOUJLotD1qzGvyzzgwnhnLTj6zKo/Hr8nb&#xA;ECdT6UgLy7lu7l55D8TnYeA7AfLO/wBJpY4MYxx5D8W6zJMyNlE+X7H6/rlhaGIzJPcRJJGDSqNI&#xA;A1WOyih6npluWXDEnyYB9e2tta8BFGLhFjqqh5JuisV2YtuDTbfpnISJ8vschFuyRRtI5oiLViam&#xA;gUVrkeaXyT5n0PXH8w6lcDS71Iri6nlh9W2ljYo8hZSVK7bHOtw5Y8AFjYDq45G6S3On39qoa5tp&#xA;YFY0VpEZAT4DkBlwmDyKEPklZr+UfkKTzn5wt7GRD+i7Wlzqkg2HoofsV8ZG+EfSe2Yms1HhY769&#xA;GURZfaccccUaxRKEjQBURQAqqBQAAdAM5QlvXYq7FXYq7FXYq7FXYq7FXYq7FXYq7FXYqwH86fy/&#xA;HnLyfLFbRhtY07lc6YRTkzAfHDXwlUU/1gvhmbodT4WTf6TzYyjYfOH5QedG8s+Zxb3blNM1EiC7&#xA;DbCN60jlNenEmjexObrtDTeLCx9QaoGi+nc5hvdirsVdirsVecfn7Lw8glaV9S7hWvhQM3/GubLs&#xA;ofvfgwycnzZnSNKKg1C5htZrVW/czDdT2NRuPmNsws2gx5MscpHrh+N/vbI5SImPQozypoEnmDzH&#xA;YaPG3A3koR5AKlUALSMB7IpOX58vhwMu5gBZfV+h+V9E0LTRp+l2y20XDg8igeq5pTm70qze5zlM&#xA;ueU5XI23gUmFq8r26GZeMoqsg6DkpoSNz8JpUe2Vy57JVHCcat9lfi+7fAreKoTV9JsNX06406/i&#xA;E1pcoUkQ+B7g9mHUHtk8eQwkJDmFIfHWoWa22pXNnDILlYJnhjmTcSBHKhlp2alRnYwlcQTs4z7C&#xA;/Jb8vx5N8nxRXMYXWNR43Opk05KxHwQ18IlNP9Yt45zGu1Pi5NvpHJvjGgz7MJk7FXYq7FXYq7FX&#xA;Yq7FXYq7FXYq7FXYq7FXYq+Uf+cify+Hl/zMNesYuOla0zO4X7Md39qRfYSfbH+y8M6PszU8cOE8&#xA;4/c0zjTPPyY87f4h8tixupOWqaUFhmJNWkhpSKTfqaDi3uK981naOm8Odj6ZM4SsPQs17N2KuxV2&#xA;KvM/+cgmUeRYgTQtfQhR4n05D+oZs+yv734MMnJ8450bS7FWWflXJqkPnzSp9MtPrtxG78oa8QIn&#xA;jaORi3ReKOTU98xNcInFISNBlHm+rEkVxUdjQg9QfA5yhDeuxVR9OWSQGWipG1UVWJ5EdC2w+7JW&#xA;qtkVed/nT52/QHl36haS8dU1QNHHxajxw9JJNunXiu43+RzY9nabxJ2fpiwnKgwX/nHb8vh5g8zH&#xA;Xr6LlpWisroG+zJd/ajX3Ef2z/sfHNl2nqeCHCOcvuYQjb6uznG52KuxV2KuxV2KuxV2KuxV2Kux&#xA;V2KuxV2KuxV2KpD568o2Xm3yvfaHd0X6wlbeYipinXeOQfJuviKjvl2nzHHMSCCLD498taxq3kHz&#xA;vzuo2jmspWtdTte7R8qSL79OSnxAzps+KOfFQ67hoBovqu0u7a8tYbu2kEtvOiyQyr0ZHFVI+Yzl&#xA;JRINHm5CrgV2KuxV5d/zkQCfJNmQKgalET7fuJxm07J/vT/V/SGGTk+ds6Jpdir6J/ITytbWHlk6&#xA;8xWS81YsFYb+nDC7IEr4s6lm+jwzne1M5lPg6RbsY2Tnzp+ZVnoXmDSNAtuEt9fXVut8x3EFvJIq&#xA;kmn7bKdh4b+GU6bRmcJTPIA15lJlTOMwWTsVUru7trO1mu7mQRW8CNJNK3RUQVYn5DDGJJoc1fKX&#xA;mLVNU89+eHktInln1GdbbTrYmpWOvCNfBdvibtWpzrMOOODFR6c3HJsvsTyL5RsvKXlex0O0o31d&#xA;K3EwFDLO28kh+bdPAUHbOY1GY5JmRbwKCfZSl2KuxV2KuxV2KuxV2KuxV2KuxV2KuxV2KuxV2Kux&#xA;V89f85N/l7/c+dbCP+S21gL9CwzH/k23+x983fZWp/yZ+DVkj1QP5A+dvXtZPK17J++tw02nFju0&#xA;RNZIxX+QnkPYnwyPaumo+IOvNOOXR7HmmbHYq7FXmn/OQP8Aygkf/MdD/wAQkzZ9lf3vwYZOT5wz&#xA;o2l2KvfPyI886bJoieWLuRYL20aRrMMQBNFIzSsF/wApWZqjw+nNB2pppcXiDkebbCXRBfmn+UWu&#xA;6j5lGseWreORLzj9ZhV0hZJ1ryl+LgvFgAag15VyzQ6+EYcMzyRKG+z1TypPqzaHZw61GYtYgiVL&#xA;1SQ3JlqvqB1JVufHlse++arOI8ZMfp6NgTfKUvHPz+87ehax+VrKT99cBZtRKndYgaxxmn85HI+w&#xA;Hjm57K01nxD05NeSXRHf84yfl7/fedb+P+e20cN9KzTD/k2v+y9sl2rqf8mPijHHq+hc0ja7FXYq&#xA;7FXYq7FXYq7FXYq7FXYq7FXYq7FXYq7FXYq7FULqumWWq6bdabfRiazvInhnjPdHFD8j4HJQmYkE&#xA;cwr4r8xaPrP5defZLZHIutMnE1lORtLCd42NOodNmHzGdXjnHPi8i452L6b8s+YLLzBoVnq9mf3N&#xA;0gYp1KONnQ+6sCM5fNiOOZiejeDaZ5Ul2KvOvz7jVvIEjEVKXUDKfA1K/qObHss/vvgWGTk+as6V&#xA;pdiq5HdHV0Yq6kMrKaEEbggjEhX0x+XP5s6R5ltUtL+SOw1qMKjQyOAs9ABziLBdyf2Oo985nWaC&#xA;WM2N4/c3RnafwatoNl5wl0RG9LU9RgF3w+KjlCwYipKhuO9B4E5jnHOWPi/hGzK90d5m8wWXl/Qr&#xA;zV7w/ubVCwToXc7Ig92YgZDDiOSYiOqk0+ZPLuj6z+Yvn2O2dybrU5zNezgbRQjeRhXoETZR8hnU&#xA;ZJxwYvINA3L7U0rTLLStNtdNsYxDZ2cSQwRjsiCg+Z8TnKTmZEk8y5CKyKuxV2KuxV2KuxV2KuxV&#xA;2KuxV2KuxV2KuxV2KuxV2KuxV2KvJP8AnIn8vv8AEHlga7ZRctV0RWdgo+KS06yr7mP7Y/2Xjmz7&#xA;M1PBPhPKX3sJxt5L+RHnb9Gay3l68kpY6m3K2LHZLqlAP+egHH5gZndqabijxjnH7mEJdH0LnPNz&#xA;sVYL+dsXP8ttTatPTa3anjW4jX/jbM7s0/vh8fuYz5Pl/OoaHYq7FXYqmnlvzDf6BrtprNoVa5tG&#xA;PASDkpVkMbKRUbFGI65VmxDJAxPIpBpnf52efW1vU49Es3U6bYESO8bFhLMyDdqgU9MMVpvvXMHs&#xA;3S8EeI/UWU5W9g/5x2/L7/D/AJYOu3sXHVdbVXUMPijtOsS+xk+2f9j4Zr+09Txz4Ryj97OEaet5&#xA;rGbsVdirsVdirsVdirsVdirsVdirsVdirsVdirsVdirsVdirsVcQCCCKg7EHFXxt+cvkOXyT50f6&#xA;mpi0q+Ju9KkWo4DlV4gexic7f5PE51Oh1Hi49+Y2LRIUXt35aeco/NXliC8dh+kLf9xqCDb96o+2&#xA;B4OPi/Dtmh1mn8KddOjbE2GV5iMmK/mnAZ/y91xBXa39Tb/itlf/AI1zK0JrNH3sZcnyfnWNDsVd&#xA;irsVdir0D8mPIL+c/OUa3aF9I08i61Rm3DivwRH3lYUP+TyzC12o8LHt9R5Moiy+ygAAABQDYAZy&#xA;ze7FXYq7FXYq7FXYq7FXYq7FXYq7FXYq7FXYq7FXYq7FXYq7FXYq7FWF/m35Cj85+T7iwjUfpO2r&#xA;c6ZIdqTID8BP8si1U/Qe2Zej1HhTvp1YyFh8v/lb5wl8o+bAt5yisLpvqupRtUcKNRZCD3ibr7Vz&#xA;fa7T+Lj25jcNUTRfUgIIBBqD0Ocs3pT5vtvrXlTWbalTNY3KKNupiYDr75dp5VkifMIPJ8d52Dju&#xA;xV2KuxVfFFJLKkUSl5JGCoiipZiaAADucBNK+0/yk8hR+TPJ9vYSKP0nc0udTkG9ZnA+AH+WNaKP&#xA;pPfOV1mo8Wd9OjfEUGaZiMnYq7FXYq7FXYq7FXYq7FXYq7FXYq7FXYq7FXYq7FXYq7FXYq7FXYq7&#xA;FXy5/wA5Jfl9+h9fTzRYRcdO1duN2FG0d4BUn/nso5f6wbOh7L1PFHgPOP3NM49WUfkf52/TXl/9&#xA;D3cnLUtJVUUnrJbdI29yn2D9HjmD2lpuCfEOUvvZwlbJ9Q8++TYLbVfrl/6aaVOljqUTRTCVZrig&#xA;iRYuHqSepy+AxqwbsdjmtBpm+RZrmCO9mtAXeSCZ4HIikKh0biQWC8evvnWw1MJcr+R++nHMVq3l&#xA;s1y9srgzxgM6b7A/7eWDNEyMb9QRSnDqllM0Yjdv3tfSZkdVangzAA5XDVQlVHny2KTEorMhD2f/&#xA;AJxt/L79Ma+/mi/i5adpDcbQMNpLwioP/PFTy/1iuartTU8MeAc5fczhHq+o855udirsVdirsVdi&#xA;rsVdirsVdirsVdirsVdirsVdirsVdirsVdirsVdirsVdiqT+bvLFh5n8uX2h3w/cXkZUSAVMcg+K&#xA;ORfdHAOW4cpxzEh0QRb410y71r8vvPR+sRlLzS52gvYAdpI+jgHurr8Sn5HOoyQjnxeRaBsXtmoe&#xA;VLbzB+Y/lXzlY2q3Ojizlmu7oOqoZkUGwd4uQLvH6snE8Tx9ts5ScDEkHmHIfOXm7SrvTPPPmGG4&#xA;s50c6pdzRcZV4elLKXiYr6orVGB3Gb3s+JEATGRs9Dt8uL9DVNjsGnajFLDeEK0zys08QADBZNj8&#xA;fKh40FBTJ49PliRP+KzY8j530QSOTdjpt9Cth6wMkcVecBKD02NaOCKchv0qccGmyREOLcDptt5+&#xA;akjdlOhaJqGuaxZ6Rp8fqXl7KsMK9qt1Zj2VRuT2GbHJkEImR5BgA+4/KPliw8seXLHQ7EfuLOMK&#xA;ZCKGSQ/FJI3u7knORzZTkmZHq5AFJxlSXYq7FXYq7FXYq7FXYq7FXYq7FXYq7FXYq7FXYq7FXYq7&#xA;FXYq7FXYq7FXYq7FXg3/ADkz+Xv1mzi85WEX7+1CwaqqjdoSaRSmn8hPEnwI7DNz2VqaPhnrya8k&#xA;erHPyA87bSeVL1/5p9LJ/wCCliH/ABMf7LJdq6b/ACg+KMcujFPz3sPqv5gzzUoL63guPuUw/wDM&#xA;rMrsud4QO4n9aJ83nmbFg7FX0j/zjN+Xv1azl85X8X7+6DQaUrDdYQaSyiv85HEHwB7HNF2rqbPh&#xA;jpzbccer3nNM2OxV2KuxV2KuxV2KuxV2KuxV2KuxV2KuxV2KuxV2KuxV2KuxV2KuxV2KuxV2KuxV&#xA;RvbK1vrOeyu4lmtbmNop4W+yyOOLKfmDhjIg2Oavirzr5b1X8vfPklrC7o1nKt1pd0f24S1Ym9+n&#xA;FvcEZ1eDJHPis9di45FFkX5w6paeZNE8s+abQAC5jmtbuMbmOaMq3pn5EvT2375i9nwOOU8Z6bsp&#xA;m93l2bRgyf8ALjyVdecfNtno0XJbdj6t9Ov+6rdCPUb5n7K/5RGY+qzjFAyTEWX27ZWVrY2cFlaR&#xA;LDa20axQQr9lUQcVUfIDOSlIk2ebkK2BXYq7FXYq7FXYq7FXYq7FXYq7FXYq7FXYq7FXYq7FXYq7&#xA;FXYq7FXYq7FXYq7FXYq7FXl/5/fl7/ijym2o2UfLWdFDTwBRVpYKVmi26mg5L7ig+1mw7O1Phzo/&#xA;TJhONh8qwatMui3OkSEtbSzR3US/yzxgoT8mjcg/IeGdEcY4hLryabS/LFfXX5A/l7/hfymuo3sf&#xA;HWdaCzzhhRooKVhi36Gh5N7mh+znM9o6nxJ0Ppi3QjQeoZr2bsVdirsVdirsVdirsVdirsVdirsV&#xA;dirsVdirsVdirsVdirsVdirsVdirsVdirsVdirsVdir4+/Pb8vf8J+bnuLOLho2rFrizoPhjetZY&#xA;R/qk1X/JI8M6fs/U+JCj9UWicaLvyJ/L3/Fnm5Li8i56NpJW4vKj4ZHrWKE/6xFW/wAkHxx7Q1Ph&#xA;wofVJYRsvsHOYb3Yq7FXYq7FXYq7FXYq7FXYq7FXYq7FXYq7FXYq7FXYq7FXYq7FXYq7FXYq7FXY&#xA;q7FXYq7FXYqxP8z/ACNb+c/KN3pLBReqPX02Zv2LhAeO/YPujexzJ0moOKYl06sZCw78sPI1v5M8&#xA;o2mkqFN6w9fUpl/buHA5b9wmyL7DHV6g5ZmXTosRQZZmMydirsVdirsVdirsVdirsVdirsVdirsV&#xA;dirsVf/Z</xmpGImg:image>
               </rdf:li>
            </rdf:Alt>
         </xmp:Thumbnails>
      </rdf:Description>
      <rdf:Description rdf:about=""
            xmlns:xmpMM="http://ns.adobe.com/xap/1.0/mm/"
            xmlns:stRef="http://ns.adobe.com/xap/1.0/sType/ResourceRef#"
            xmlns:stEvt="http://ns.adobe.com/xap/1.0/sType/ResourceEvent#">
         <xmpMM:InstanceID>xmp.iid:F73CF7B316E2EB11BA13A902601A0979</xmpMM:InstanceID>
         <xmpMM:DocumentID>xmp.did:F73CF7B316E2EB11BA13A902601A0979</xmpMM:DocumentID>
         <xmpMM:OriginalDocumentID>uuid:5D20892493BFDB11914A8590D31508C8</xmpMM:OriginalDocumentID>
         <xmpMM:RenditionClass>proof:pdf</xmpMM:RenditionClass>
         <xmpMM:DerivedFrom rdf:parseType="Resource">
            <stRef:instanceID>xmp.iid:7C52FC036DE0EB11B461AD1D81970902</stRef:instanceID>
            <stRef:documentID>xmp.did:7C52FC036DE0EB11B461AD1D81970902</stRef:documentID>
            <stRef:originalDocumentID>uuid:5D20892493BFDB11914A8590D31508C8</stRef:originalDocumentID>
            <stRef:renditionClass>proof:pdf</stRef:renditionClass>
         </xmpMM:DerivedFrom>
         <xmpMM:History>
            <rdf:Seq>
               <rdf:li rdf:parseType="Resource">
                  <stEvt:action>saved</stEvt:action>
                  <stEvt:instanceID>xmp.iid:7C52FC036DE0EB11B461AD1D81970902</stEvt:instanceID>
                  <stEvt:when>2021-07-10T10:09:26+07:00</stEvt:when>
                  <stEvt:softwareAgent>Adobe Illustrator CS6 (Windows)</stEvt:softwareAgent>
                  <stEvt:changed>/</stEvt:changed>
               </rdf:li>
               <rdf:li rdf:parseType="Resource">
                  <stEvt:action>saved</stEvt:action>
                  <stEvt:instanceID>xmp.iid:F73CF7B316E2EB11BA13A902601A0979</stEvt:instanceID>
                  <stEvt:when>2021-07-11T14:51:44+07:00</stEvt:when>
                  <stEvt:softwareAgent>Adobe Illustrator CS6 (Windows)</stEvt:softwareAgent>
                  <stEvt:changed>/</stEvt:changed>
               </rdf:li>
            </rdf:Seq>
         </xmpMM:History>
      </rdf:Description>
      <rdf:Description rdf:about=""
            xmlns:illustrator="http://ns.adobe.com/illustrator/1.0/">
         <illustrator:StartupProfile>Print</illustrator:StartupProfile>
      </rdf:Description>
      <rdf:Description rdf:about=""
            xmlns:xmpTPg="http://ns.adobe.com/xap/1.0/t/pg/"
            xmlns:stDim="http://ns.adobe.com/xap/1.0/sType/Dimensions#"
            xmlns:stFnt="http://ns.adobe.com/xap/1.0/sType/Font#"
            xmlns:xmpG="http://ns.adobe.com/xap/1.0/g/">
         <xmpTPg:HasVisibleOverprint>False</xmpTPg:HasVisibleOverprint>
         <xmpTPg:HasVisibleTransparency>True</xmpTPg:HasVisibleTransparency>
         <xmpTPg:NPages>1</xmpTPg:NPages>
         <xmpTPg:MaxPageSize rdf:parseType="Resource">
            <stDim:w>1686.240234</stDim:w>
            <stDim:h>1465.228516</stDim:h>
            <stDim:unit>Pixels</stDim:unit>
         </xmpTPg:MaxPageSize>
         <xmpTPg:Fonts>
            <rdf:Bag>
               <rdf:li rdf:parseType="Resource">
                  <stFnt:fontName>Arial-BoldMT</stFnt:fontName>
                  <stFnt:fontFamily>Arial</stFnt:fontFamily>
                  <stFnt:fontFace>Bold</stFnt:fontFace>
                  <stFnt:fontType>Open Type</stFnt:fontType>
                  <stFnt:versionString>Version 7.00</stFnt:versionString>
                  <stFnt:composite>False</stFnt:composite>
                  <stFnt:fontFileName>arialbd.ttf</stFnt:fontFileName>
               </rdf:li>
            </rdf:Bag>
         </xmpTPg:Fonts>
         <xmpTPg:PlateNames>
            <rdf:Seq>
               <rdf:li>Cyan</rdf:li>
               <rdf:li>Magenta</rdf:li>
               <rdf:li>Yellow</rdf:li>
               <rdf:li>Black</rdf:li>
            </rdf:Seq>
         </xmpTPg:PlateNames>
         <xmpTPg:SwatchGroups>
            <rdf:Seq>
               <rdf:li rdf:parseType="Resource">
                  <xmpG:groupName>Default Swatch Group</xmpG:groupName>
                  <xmpG:groupType>0</xmpG:groupType>
               </rdf:li>
            </rdf:Seq>
         </xmpTPg:SwatchGroups>
      </rdf:Description>
      <rdf:Description rdf:about=""
            xmlns:pdf="http://ns.adobe.com/pdf/1.3/">
         <pdf:Producer>Adobe PDF library 10.01</pdf:Producer>
      </rdf:Description>
   </rdf:RDF>
</x:xmpmeta>
                                                                                                    
                                                                                                    
                                                                                                    
                                                                                                    
                                                                                                    
                                                                                                    
                                                                                                    
                                                                                                    
                                                                                                    
                                                                                                    
                                                                                                    
                                                                                                    
                                                                                                    
                                                                                                    
                                                                                                    
                                                                                                    
                                                                                                    
                                                                                                    
                                                                                                    
                                                                                                    
                           
<?xpacket end="w"?>
	</metadata>
<g>
	<g>
		<defs>
			<polygon id="SVGID_1_" points="35.983,31.162 1659.287,31.162 847.637,1436.986 			"/>
		</defs>
		<clipPath id="SVGID_2_">
			<use xlink:href="#SVGID_1_"  overflow="visible"/>
		</clipPath>
		<g clip-path="url(#SVGID_2_)">
			<g>
				<rect x="0.15" y="28.237" fill-rule="evenodd" clip-rule="evenodd" fill="#DBDBDB" width="1696.484" height="1445.09"/>
				<path fill-rule="evenodd" clip-rule="evenodd" fill="#2C2D8B" d="M1696.635,1473.327V22.456H906.554
					C824.512,246.653,776.31,520.102,776.31,815.278c0,238.352,31.436,462.526,86.732,658.049H1696.635z M1442.614,1083.116h78.738
					V978.811h-78.493v-35.516h78.493V833.033h-78.616v-35.511h78.616V687.948h-78.616v-35.515h78.616V536.362h-78.373v-35.514
					h78.373V395.837h-78.616v-35.515h181.976v35.515h-78.136v105.012h78.376v35.514h-78.376v116.071h78.136v35.515h-78.136v109.574
					h78.136v35.511h-78.136v110.262h78.256v35.516h-78.256v104.306h78.009v35.51h-78.009v116.095h78.376v35.51h-181.973v-35.51
					h78.373v-116.095h-78.738V1083.116z"/>
			</g>
			<g>
				<g opacity="0.5">
					
						<linearGradient id="SVGID_3_" gradientUnits="userSpaceOnUse" x1="214.2734" y1="1199.4082" x2="221.6709" y2="1603.7938" gradientTransform="matrix(-1 0 0 1 1547.9932 0)">
						<stop  offset="0" style="stop-color:#2B3990"/>
						<stop  offset="1" style="stop-color:#FFFFFF"/>
					</linearGradient>
					<path fill-rule="evenodd" clip-rule="evenodd" fill="url(#SVGID_3_)" d="M1257.099,1473.327h24.205
						c2.199-2.965,4.195-6.048,7.192-8.306c6.369-4.795,13.939-5.843,22.391-9.967c6.721,0.537,15.085-3.423,22.394-4.8
						c2.277,0.619,2.719,4.124,8.182,3.325c2.685-0.396,3.039-2.492,6.029-3.692c14.394-5.766,45.573-2.099,45.646-19.566
						c0.479-0.939,3.33,0.146,3.878-0.74c0.308-1.826,0.591-3.677,0.429-5.907c-1.064-1.547-4.354-1.188-4.307-3.689
						c0.135-1.852,3.398-1.027,3.878-2.585c0.158-2.475-1.23-3.623-1.722-5.538c-1.835,0.216-2.85-0.265-4.31-0.37
						c-3.341-17.255,15.103-23.856,7.753-37.657c1.06-0.813,1.889-1.825,3.443-2.215c-0.448-1.464-1.256-2.614-1.287-4.432
						c-1.313-0.72-4.482,0.151-5.171-1.105c-1.26-1.738,0.593-2.238,1.722-2.953c-3.051-9.252-20.155-6.068-31.867-7.015
						c-6.636,3.925-3.786,12.305-6.46,18.459c-0.96,2.211-3.641,3.399-5.168,5.539c-1.614,2.263-1.796,5.148-3.015,7.753
						c-3.918,8.386-13.606,14.902-20.238,20.303c-6.808,0.236-15.328,2.088-21.964,3.693c2.996,2.108,5.76,4.414,9.477,5.907
						c-9.36,5.273-20.435,4.992-30.147,9.229C1280.871,1445.125,1267.203,1457.698,1257.099,1473.327z M1342.325,1419.244
						c8.186,3.608,3.882,20.356,0.858,26.216c-0.125-7.998,5.146-20.817-3.015-24.37c-3.801-1.654-9.076-0.376-13.351-2.584
						C1333.263,1419.653,1337.238,1417.004,1342.325,1419.244z"/>
					
						<linearGradient id="SVGID_4_" gradientUnits="userSpaceOnUse" x1="375.4648" y1="1196.3486" x2="382.8629" y2="1600.7704" gradientTransform="matrix(-1 0 0 1 1547.9932 0)">
						<stop  offset="0" style="stop-color:#2B3990"/>
						<stop  offset="1" style="stop-color:#FFFFFF"/>
					</linearGradient>
					<path fill-rule="evenodd" clip-rule="evenodd" fill="url(#SVGID_4_)" d="M1150.847,1473.327h33.23
						c-5.783-5.636-12.222-12.265-18.315-13.473c-6.605-1.307-7.86,3.495-12.059,5.54c0.347,0.689,0.722,1.353,0.862,2.217
						C1153.375,1469.559,1152.124,1471.454,1150.847,1473.327z"/>
					
						<linearGradient id="SVGID_5_" gradientUnits="userSpaceOnUse" x1="346.3433" y1="1196.8809" x2="353.7413" y2="1601.3026" gradientTransform="matrix(-1 0 0 1 1547.9932 0)">
						<stop  offset="0" style="stop-color:#2B3990"/>
						<stop  offset="1" style="stop-color:#FFFFFF"/>
					</linearGradient>
					<path fill-rule="evenodd" clip-rule="evenodd" fill="url(#SVGID_5_)" d="M1209.854,1473.327
						c4.428-9.506,9.494-18.469,11.892-29.715c-16.94,5.165-29.817,13.818-49.522,16.612c4.527,4.658,9.901,8.592,14.603,13.103
						H1209.854z"/>
					
						<linearGradient id="SVGID_6_" gradientUnits="userSpaceOnUse" x1="325.4785" y1="1197.1699" x2="332.8789" y2="1601.719" gradientTransform="matrix(-1 0 0 1 1547.9932 0)">
						<stop  offset="0" style="stop-color:#2B3990"/>
						<stop  offset="1" style="stop-color:#FFFFFF"/>
					</linearGradient>
					<path fill-rule="evenodd" clip-rule="evenodd" fill="url(#SVGID_6_)" d="M1213.049,1473.327h8.83
						c-2.668-1.011-5.291-2.061-7.886-3.135C1214.124,1471.619,1213.668,1472.543,1213.049,1473.327z"/>
					
						<linearGradient id="SVGID_7_" gradientUnits="userSpaceOnUse" x1="291.0474" y1="1197.7998" x2="298.4478" y2="1602.3489" gradientTransform="matrix(-1 0 0 1 1547.9932 0)">
						<stop  offset="0" style="stop-color:#2B3990"/>
						<stop  offset="1" style="stop-color:#FFFFFF"/>
					</linearGradient>
					<path fill-rule="evenodd" clip-rule="evenodd" fill="url(#SVGID_7_)" d="M1216.579,1467.611
						c2.274,2.767,5.954,4.331,9.843,5.716h27.176c8.547-13.025,20.255-24.818,26.715-36.358c4.574-8.18,6.317-17.241,8.184-26.954
						c-0.341-2.225-1.995-2.934-0.862-5.537c-1.434-0.718-2.252-1.4-4.307-0.738v-4.431c-2.735-1.072-4.384-1.229-6.46,0.368
						c1.073-3.283-0.869-3.559-2.586-5.167c-2.632,0.448-2.618,3.166-5.597,3.323c-1.659-0.55-0.054-3.894-2.154-4.063
						c-3.35-1.09-4.832,4.466-8.609,1.844c-1.166-1.241,0.876-4.493,0-5.534c-4.757-2.42-5.126,2.521-9.477,2.582
						c-1.717-0.394,0.664-3.13-0.433-4.061c-0.656,0.483-1.617-0.642-2.582-0.736c-0.347-0.037-9.453,5.457-10.764,7.015
						c-3.994,4.736-0.62,14.169-1.293,21.78C1231.928,1432.97,1219.993,1451.739,1216.579,1467.611z"/>
				</g>
				<g>
					<path fill-rule="evenodd" clip-rule="evenodd" fill="#DBDBDB" d="M1378.925,898.26c13.703,2.203,12.207,6.094,22.139,12.272
						c-13.019,46.483-65.646,74.806-110.415,42.689c8.436-20.626,20.36-37.575,40.91-45.424c6.696,9.428-2.365,21.289,0,30.434
						c1.301,5.035,8.646,5.332,10.767,10.444c4.94,0.519,8.419-0.503,9.9-3.632c7.271,13.272,22.303-0.682,22.398-11.809
						c0.587,5.106,2,9.475,8.179,7.72c4.502-1.275,5.798-12.171,3.878-19.983C1384.768,913.204,1379.909,903.59,1378.925,898.26z"/>
					<path fill-rule="evenodd" clip-rule="evenodd" fill="#DBDBDB" d="M1288.062,1268.903c9.713,5.213,20.787,4.866,30.147,11.354
						c-3.717,1.835-6.48,4.676-9.477,7.267c6.636,1.976,15.156,4.252,21.964,4.546c6.632,6.643,16.32,14.659,20.238,24.979
						c1.219,3.206,1.4,6.754,3.015,9.539c1.527,2.634,4.208,4.093,5.168,6.814c2.674,7.57-0.176,17.881,6.46,22.712
						c11.712-1.165,28.816,2.752,31.867-8.631c-1.129-0.88-2.981-1.496-1.722-3.633c0.688-1.548,3.857-0.477,5.171-1.363
						c0.031-2.235,0.839-3.652,1.287-5.451c-1.555-0.479-2.384-1.722-3.443-2.726c7.35-16.979-11.094-25.1-7.753-46.328
						c1.46-0.13,2.475-0.725,4.31-0.458c0.491-2.354,1.88-3.77,1.722-6.813c-0.479-1.917-3.743-0.901-3.878-3.18
						c-0.047-3.079,3.242-2.635,4.307-4.543c0.162-2.742-0.121-5.018-0.429-7.266c-0.548-1.093-3.398,0.249-3.878-0.907
						c-0.073-21.491-31.253-16.979-45.646-24.077c-2.99-1.475-3.345-4.057-6.029-4.541c-5.463-0.984-5.904,3.329-8.182,4.088
						c-7.309-1.69-15.673-6.564-22.394-5.905c-8.451-5.069-16.021-6.361-22.391-12.261c-4.643-4.302-6.872-11.045-11.198-15.9
						c-6.928-7.768-17.313-10.33-28.421-14.079C1257.876,1222.014,1278.591,1239.527,1288.062,1268.903z M1343.184,1246.19
						c3.023,7.207,7.327,27.813-0.858,32.251c-5.087,2.758-9.063-0.502-15.507,0.909c4.274-2.715,9.55-1.144,13.351-3.181
						C1348.329,1271.8,1343.059,1256.03,1343.184,1246.19z"/>
					<path fill-rule="evenodd" clip-rule="evenodd" fill="#DBDBDB" d="M1094.279,701.127c2.536-2.839,5.171-7.147,7.747-10.446
						c4.77-6.111,10.29-9.502,8.184-16.354c3.055-1.472,5.774-3.297,8.183-5.451c-0.76-4.652-1.13-9.71-2.586-13.625
						c3.499-32.132-6.825-60.092-28.42-69.042c-10.522-4.36-28.985-7.156-41.773-2.725c-22.437,7.777-35.699,29.926-36.604,60.865
						c22.829,3.575,50.682,3.251,74.501,0.909c3.1,2.332,5.715,5.178,7.322,9.084c-2.681-1.881-5.325-5.497-8.614-5.903
						c-11.434-1.417-27.139,2.559-42.634,1.816c-12.694-0.607-24.441-1.095-34.88-1.364c-1.605,2.12-0.336,5.097-0.43,8.177
						c-0.598,1.036-3.167-0.007-2.587,2.271c2.04,2.635,5.329,5.827,4.309,10.901c-0.402,1.996-4.349,4.367-4.736,6.359
						c-0.736,3.743,0.41,9.608,0.858,13.172c1.32,10.474,9.544,20.708,10.77,30.434c0.898,1.32,2.96,1.415,3.871,2.726
						c-0.983,8.546,2.856,15.284,9.478,17.259c-8.17-0.924-13.022-5.343-13.349-14.535c-8.025-8.142-10.105-26.311-15.073-38.609
						c-14.36,1.966-25.295,7.541-35.744,13.625c-1.023,0.286,0.066,2.796-0.861,3.18c-15.167,9.225-23.774,35.639-18.516,59.05
						c4.176,3.164,9.048,5.595,9.906,12.264c13.37,6.937,19.067,21.975,33.155,28.161c-16.837-2.982-21.858-18.428-34.448-25.891
						c-12.996,11.123-22.852,25.561-29.717,43.152c-5.084,3.567-7.782,9.656-8.611,17.713c-0.634,1.728,1.924,0.091,1.291,1.816
						c-3.683,33.092,19.651,50.029,35.739,62.229c-0.523-11.911,4.879-19.991,13.783-20.441
						c-8.135,2.927-11.879,10.487-11.192,22.712c4.964,7.629,3.786,21.744,16.36,21.348c10.531,15.39,25.772,25.811,48.662,28.162
						c2.319-3.816,8.734-0.982,10.336-5.904c-0.448-9.37-13.177-8.204-15.502-14.082c5.429,2.682,19.782,6.333,20.237-1.361
						c0.226-3.818-3.322-5.789-7.32-6.36c9.225-4.802,1.121-15.852-8.18-15.442c-0.822-2.768-1.979-5.183-3.017-7.724
						c3.802-4.813,17.424,4.676,17.658-5.447c0.058-2.53-5.151-7.877-9.905-8.632c-1.354-0.214-2.557,0.858-3.877,0.454
						c-1.362-0.418-3.315-2.795-5.165-3.181c-9.468-1.967-17.539,1.806-23.257,4.542c-4.114-6.881-11.558-7.29-16.364-13.626
						c-4.147-5.464-4.235-14.57-7.752-20.892c-3.213-5.782-8.994-6.133-13.35-10.903c3.231,1.739,7.747,2.125,12.92,1.817
						c9.896-14.091,21.253-26.637,32.297-39.518c6.34,14.623,0.711,39.162,12.92,47.694c3.814,10.055,7.782,19.952,11.628,29.979
						c9.77,1.703,18.812,13.604,7.751,20.892c1.671,7.849,1.802,14.778,4.306,22.713c2.164,6.861,10.732,14.005,12.487,21.8
						c1.265,5.602-0.477,11.444,1.725,15.444c3.061,5.576,13.178,6.365,13.779,14.083c-1.022,1.798-1.917,3.731-3.015,5.45
						c6.052,6.072,3.655,23.147,5.169,32.704c1.73,10.949,6.527,18.103,10.336,29.979c4.582,14.294,3.246,30.056,8.181,46.33
						c10.03,2.546,0.853,17.213,10.338,19.534c2.063,6.672,0.475,11.631,3.442,17.259c0.714,0.761,2.527,0.361,3.876,0.452
						c1.61,4.358,2.709,9.257,5.599,12.266c23.017-0.054,24.58-27.505,15.933-45.877c3.831,9.585,9.054,17.708,8.184,32.25
						c-3.857,8.802-11.412,13.705-20.24,17.261c13.646,24.972,31.949,45.028,44.786,70.855c-0.141,1.064-0.516,1.878-0.862,2.726
						c4.198,2.516,5.453,8.425,12.059,6.814c9.646-2.351,20.157-21.417,27.563-25.891c-5.452,10.147-14.251,16.768-21.101,25.438
						c19.705,3.438,32.582,14.081,49.522,20.439c-2.506-14.468-7.932-25.855-12.491-38.154c-1.459-0.579-2.732-1.358-3.873-2.271
						c-12.452-26.65-40.45-40.623-51.679-66.315c-4.355-9.969-5.784-22.273-12.487-30.435c-3.927-4.78-11.089-7.286-15.074-12.262
						c-3.412-10.026-12.686-13.872-16.362-23.621c-9.744-3.109-8.728-12.088-8.614-21.801c0.087-7.352-2.87-15.029-2.153-23.166
						c1.399-15.819,11.313-26.032,15.937-37.7c-5.106,16.06-18.883,34.055-10.766,55.415c10.607-19.162,49.554-18.102,59.427-0.453
						c-15.312-18.805-66.404-13.005-58.999,18.169c14.617,11.832,20.992,32.364,38.329,41.332
						c8.314,12.291,10.371,28.028,17.655,39.973c13.183,21.62,35.98,35.017,46.938,58.59c1.333-0.043,2.391,0.209,3.015,0.912
						c0.107,4.125,3.788,4.482,3.445,9.083c7.744-3.942,15.702-7.66,24.546-10.444c-6.097,5.831-17.156,6.433-21.96,13.623
						c3.414,19.528,15.349,42.617,16.794,62.684c0.673,9.366-2.701,20.97,1.293,26.799c1.311,1.917,10.417,8.676,10.764,8.63
						c0.965-0.118,1.926-1.503,2.582-0.908c1.097-1.146-1.284-4.51,0.433-4.993c4.351,0.074,4.72,6.153,9.477,3.177
						c0.876-1.281-1.166-5.282,0-6.812c3.777-3.222,5.26,3.61,8.609,2.271c2.101-0.208,0.495-4.32,2.154-4.995
						c2.979,0.188,2.965,3.533,5.597,4.088c1.717-1.981,3.659-2.32,2.586-6.361c2.076,1.966,3.725,1.776,6.46,0.452
						c0-1.814,0-3.632,0-5.449c2.055,0.817,2.873-0.024,4.307-0.908c-1.133-3.2,0.521-4.074,0.862-6.813
						c-1.866-11.951-3.609-23.096-8.184-33.159c-8.04-17.675-24.218-35.819-32.301-56.777c-1.746-4.535-3.303-6.958-5.167-10.445
						c-19.792-37.069-26.111-83.412-55.552-109.467c-2.337-6.771-7.817-10.224-9.905-17.262c3.565-5.416,8.453-8.104,11.198-14.08
						c1.301-2.836,1.081-6.566,2.585-9.541c5.298-10.475,20.275-14.36,25.408-24.979c2.491-6.863,4.891-12.927,5.167-21.35
						c0.674-20.786-8.196-31.759-13.35-46.331c-4.438-12.539-4.654-25.921-13.351-31.795c-1.489,0.548-0.979,3.208-2.586,3.634
						c-14.254,1.77-22.09,12.731-30.144,19.531c7.685-9.609,15.709-18.861,28.854-22.711c-1.885-8.729-1.104-14.332-2.154-21.348
						c-1.635-10.917-11.558-16.489-12.922-26.799c-0.424-3.224,0.754-6.264-0.856-9.54c3.22-5.205,2.054-9.21,2.149-15.442
						c0.118-7.494,3.873-15.526,2.585-21.348c-0.832-3.755-3.593-6.28-3.443-9.54c0.443-9.807,10.371-14.993,13.778-22.712
						c7.732,0.549,12.296,5.646,17.226,8.632c17.837,10.797,39.02,15.463,62.442,20.895c-0.286,2.273,0.399,3.515,0.431,5.45
						c5.072-0.657,7.137,1.858,9.475,4.086c1.371-0.067,1.896-1.029,3.446-0.907c1.14,0.915,2.415,1.691,3.873,2.271
						c9.765,18.924,31.343,25.387,40.481,44.968c-0.38,4.188,0.691,6.84,1.722,9.537c-1.963,8.529-9.089,11.61-7.319,24.075
						c4.837-0.589,8.59-4.445,12.92-4.09c2.411,10.5,3.758,23.609,0,33.615c1.875,3.278,4.964,1.923,7.321,1.362
						c-1.403,3.777,0.033,6.438,2.582,6.813c6.761,0.99,12.232-14.26,15.934-18.168c1.684,7.557-4.945,12.184-4.308,18.623
						c11.82,4.679,13.563-12.49,16.367-21.803c4.86,1.99,4.723,9.247,7.318,13.625c8.025-4.896,0.925-17.483-0.429-21.804
						c-3.534-11.284-7.706-23.104-10.337-34.518c-6.442-2.182-5.2-11.397-7.751-16.354c-1.878-3.645-5.316-2.882-9.477-6.359
						c-5.796-4.85-8.743-19.337-12.489-27.708c-8.206-18.35-21.72-31.444-36.601-41.787c0.332-1.711-0.527-2.171-0.431-3.635
						c-5.312-2.317-9.441-8.145-15.505-8.175c-15.537-16.29-37.249-26.062-62.011-32.25c-2.87,2.727-6.077,5.098-9.042,7.722
						c-10.235-0.5-12.456,12.188-18.087,17.716c-3.062,3.003-7.138,4.451-7.32,9.991c-0.406-3.758,0.888-5.722,1.291-8.63
						c9.911-4.838,8.915-21.18,22.824-21.802c4.616-3.909,8.423-8.678,13.778-11.81c-9.459-21.037-14.768-49.646-41.341-51.781
						c-22.563-1.813-52.421,2.084-72.779-4.088c-11.535,10.085-18.847,27.055-34.019,31.795
						C1084.798,711.15,1090.243,705.635,1094.279,701.127z M1011.595,652.526c0.024,1.693-0.437,2.873-0.863,4.088
						c-1.317-0.329-1.266,0.784-2.58,0.454C1007.718,653.892,1008.264,651.741,1011.595,652.526z M1062.839,662.519
						c-12.298,1.983-28.441,2.726-43.924,2.726c-3.889,0-9.474,1.867-10.335-1.818
						C1025.235,662.438,1046.089,663.58,1062.839,662.519z M1006.858,676.145c1.735-0.615,3.113,2.654,5.598,2.726
						c0.646-1.161-0.604-4.192-1.291-5.451c1.881-2.406,4.745-3.771,6.028-6.813c1.209,3.72-0.47,10.488,1.29,13.627
						c18.974,0.932,34.725-1.528,48.233-6.359c-8.171,4.094-29.296,9.849-43.928,9.539
						C1016.998,683.29,1003.993,681.961,1006.858,676.145z M1006.424,686.592c1.152,0,2.301,0,3.449,0
						c0.224,1.574,1.15,2.418,1.292,4.089c-1.735,0.311-2.463-0.436-3.878-0.456C1007.22,688.782,1006.311,688.228,1006.424,686.592
						z M1067.575,706.125c0.403-5.784,1.561-10.772,1.722-16.808c0.963,4.589,0.2,13.414,0.435,17.261
						c-8.415,6.42-20.773,8.675-32.299,11.81C1046.173,714.737,1058.613,711.056,1067.575,706.125z M1076.19,771.531
						c15.761-15.906,39.34-36.924,46.08-63.137c1.472-5.747,0.147-10.782-0.863-16.352c7.388,16.326-3.835,36.432-12.057,48.601
						c-9.581,14.182-23.146,26.858-33.594,36.793c-11.071-8.003-22.096-16.062-30.574-26.798
						C1054.287,757.086,1063.812,767.023,1076.19,771.531z M1011.595,695.223c1.501,7.652,4.114,14.13,6.027,21.35
						c-6.616-2.56-7.296-13.806-9.042-19.987C1008.545,695.038,1010.175,695.241,1011.595,695.223z M1029.681,699.31
						c1.002,5.302,0.144,12.565,0.431,18.625c-1.724,0-3.445,0-5.167,0c1.056-0.857,1.949-1.881,3.443-2.272
						C1028.685,710.07,1028.965,704.461,1029.681,699.31z M1070.161,716.572c-0.195,12.813-13.223,16.03-24.119,19.076
						C1055.612,730.901,1067.318,728.412,1070.161,716.572z M1170.067,952.311c-2.54-2.466-8.578-1.243-12.487-2.27
						c5.004-1.571,13.606-1.291,17.658,0.905c-8.38,6.193-14.362,19.948-24.12,25.44c-9.118,5.134-24.613,2.511-30.575,9.084
						c6.765-8.797,18.991-6.215,27.995-11.356C1157.355,969.078,1162.085,957.778,1170.067,952.311z M1130.02,960.487
						c-7.158,5.577-19.125,16.697-29.715,22.713c-12.679,7.198-24.249,6.404-34.451-4.544c8.271-1.03,15.388,2.33,22.393,1.817
						C1105.229,979.231,1117.871,968.107,1130.02,960.487z"/>
				</g>
			</g>
		</g>
	</g>
	<path fill="#2C2D8B" d="M1534.541,195.295L847.639,1385.046L71.966,41.548h1551.343 M1623.309,41.548l-88.768,153.747 M1695.271,0
		H0l847.639,1468.148L1695.271,0L1695.271,0z"/>
</g>
<g>
	<g>
		<g>
			<path fill="#FFFFFF" d="M692.352,292.646c39.768-8.837,80.601-14.344,121.399-12.112c14.31,1.042,28.655,3.045,42.379,7.315
				c9.331,3.022,18.762,7.177,25.449,14.594c5.128,5.61,7.487,13.497,6.56,21.007c-1.076,9.192-4.9,18.304-11.94,24.509
				c-15.935,14.619-36.243,23.49-56.848,29.306c6.42,1.512,12.936,3.126,18.669,6.514c9.17,5.094,16.794,13.771,18.763,24.292
				c1.969,8.952-1.249,18.075-5.793,25.723c-6.135,0.686-11.446,4.28-17.548,4.842c2.094-0.79,4.189-1.58,6.319-2.312
				c5.139-7.569,8.735-16.773,7.005-26.056c-1.247-8.416-6.332-16.245-13.989-20.148c-12.214-6.457-26.158-8.643-39.747-10.05
				c-16.69-1.661-33.496-1.444-50.233-0.769c6.938-16.828,14.631-33.38,24.04-48.983c-28.596,1.053-56.446,15.728-73.333,38.864
				c-11.847,16.165-20.628,34.297-28.606,52.613c-8.118,19.105-15.283,38.636-21.316,58.509c26.146-2.599,52.351-4.773,78.61-5.505
				c11.493-0.688,23.069-0.288,34.48-2.028c-4.785,2.816-9.295,6.055-14.058,8.917c-0.582,0.516-1.18,1.021-1.784,1.513
				c0.045-0.378,0.125-1.134,0.172-1.513c-8.976-0.159-17.917,0.62-26.856,1.18c-28.127,1.02-56.106,4.27-84.026,7.681l-1.729,0.15
				c7.212-26.285,15.902-52.201,26.57-77.295c11.104-25.997,25.14-51.572,46.466-70.631c9.158-7.659,20.206-12.558,31.263-16.805
				c-59.414,2.645-118.392,11.528-176.786,22.529c16.977-13.154,36.416-22.688,56.163-30.921
				C638.02,306.92,665.016,298.896,692.352,292.646z M763.498,292.473c-51.319,5.472-102.708,15.032-150.628,34.711
				c-6.022,2.62-12.227,4.909-17.825,8.378c41.27-10.119,83.639-15.008,125.937-18.282c26.65-1.808,53.392-3.182,80.111-2.094
				c7.188,0.388,14.538,1.899,20.605,5.952c7.706,5.391,10.955,16.564,6.868,25.129c-6.045,13.243-18.567,22.275-31.916,27.244
				c21.567-3.64,43.432-9.033,61.896-21.28c7.842-5.278,15.992-11.598,19.141-20.893c2.13-5.655,2.852-12.375-0.285-17.802
				c-3.847-6.468-10.338-10.922-17.217-13.668c-12.191-4.888-25.404-6.17-38.397-7.075
				C802.419,290.733,782.89,290.825,763.498,292.473z M778.769,332.197c-7.921,12.237-14.31,25.414-20.021,38.807
				c10.783-0.057,21.808,0.652,32.271-2.599c6.903-2.426,13.784-5.622,18.888-11.012c5.609-5.872,9.364-14.311,7.819-22.507
				c-0.997-5.219-5.461-9.077-10.326-10.726c-6.914-2.268-14.277-0.881-21.408-1.294
				C783.371,325.81,780.989,328.945,778.769,332.197z"/>
		</g>
		<g>
			<path fill="#FFFFFF" d="M739.847,385.587c10.486-0.057,20.972-0.079,31.458-0.022c8.173,0.08,16.942,1.855,23,7.738
				c6.17,5.667,8.081,14.722,6.616,22.748c-2.53,14.754-9.972,29.454-22.907,37.661c-9.054,5.999-19.827,9.067-30.589,9.903
				c-13.245,0.468-26.478,1.11-39.733,1.419C716.39,437.8,726.807,411.059,739.847,385.587z M747.975,393.532
				c-1.487,3.241-3.091,6.434-4.636,9.651c-7.854,16.576-14.482,33.701-20.469,51.021c11.7-0.366,23.8,1.419,35.179-2.037
				c7.751-2.016,15.076-5.885,20.822-11.506c6.422-6.25,10.373-14.618,12.673-23.181c1.578-5.918,1.626-12.982-2.554-17.881
				c-4.086-4.591-10.543-6.159-16.483-6.148C764.332,393.487,756.148,393.385,747.975,393.532z"/>
		</g>
		<path fill="#FFFFFF" d="M977.706,404.716c-1.168-8.299,5.494-15.866,13.301-17.685c5.76-1.786,12.057-0.699,17.264,2.188
			c-4.567-0.185-9.365-0.447-13.564,1.671c-6.161,2.724-11.162,9.18-10.306,16.174c0.151,4.831,3.904,8.197,6.94,11.494
			C984.779,416.896,978.357,411.859,977.706,404.716z"/>
		<path fill="#FFFFFF" d="M1114.71,426.64c19.288,1.351,38.396,4.795,57.284,8.883c33.885,7.761,67.587,18.901,96.8,38.133
			c19.439,11.562,37.994,25.802,50.485,44.953c7.624,11.918,12.934,26.044,11.437,40.389c-4.398-7.807-11.597-13.44-19.176-17.916
			c-17.973-10.383-37.961-16.554-57.8-22.243c-47.095-12.731-95.346-20.526-143.575-27.462c-27.027-3.574-54.021-7.624-81.209-9.697
			c-9.548,0.035-19.76-1.464-28.699,2.611c-5.116,2.276-3.011,8.792,0.16,11.812c11.14,12.397,26.134,20.583,41.21,27.247
			c-3.191-3.401-6.649-7.121-7.21-11.974c0.159-3.698,3.56-6.985,7.303-6.813c16.805-0.367,33.555,1.34,50.278,2.759
			c49.225,4.97,98.289,12.308,146.459,23.686c22.164,5.324,44.178,11.539,65.345,20.056c1.43,0.572,2.736,1.408,4.019,2.29
			c-24.316,5.346-49.19,7.67-74.044,8.471c-13.335,0.09-26.709,0.493-39.997-0.71c-24.441-1.512-48.734-4.899-73.184-6.205
			c-21.374-1.487-42.839-0.619-64.107,1.74c-6.836-5.757-13.829-11.299-20.835-16.815c-3.502,7.508-6.973,15.075-11.77,21.875
			c2.816-10.761,0.127-22.071-4.853-31.756c-2.782-2.678-6.582-3.96-9.822-5.986c-11.276-6.628-22.756-13.451-31.732-23.115
			c-2.919-3.353-6.354-7.793-4.604-12.488c2.452-5.174,8.645-6.444,13.566-8.071c-9.431-1.741-19.013-2.402-28.573-2.976
			c-49.739-2.874-99.706,3.572-147.719,16.576c19.165-11.253,40.501-18.282,61.957-23.707c28.424-6.96,57.695-10.006,86.92-10.326
			c27.738-0.344,55.373,2.702,82.812,6.468c-15.854-9.238-33.965-13.6-51.833-17.034c-26.054-4.534-52.534-6.744-78.977-6.537
			c30.988-8.323,63.578-7.292,95.288-4.693c41.671,4.179,82.229,15.455,121.999,28.184c-11.403-8.001-22.725-16.141-33.876-24.497
			c14.402,1.052,28.778,2.53,43.182,3.65C1130.141,438.946,1122.242,433.016,1114.71,426.64z"/>
	</g>
	<g>
		<g>
			<path fill="#8A6B29" d="M762.193,229.718c57.661-3.275,116.171,2.449,171.382,19.827c43.937,13.783,85.97,35.35,120.015,66.67
				c-0.879-6.8-1.922-13.578-2.482-20.399c7.738,8.207,14.984,16.874,22.504,25.275c9.789,11.058,17.002,24.154,22.303,37.88
				c5.506-5.403,9.031-12.65,14.285-18.373c1.854,15.019,4.935,30.037,3.802,45.24c28.675-2.61,57.385,1.259,85.684,5.609
				c-1.727,1.945-3.501,3.845-5.207,5.826c23.126,5.277,45.104,14.276,67.059,23.022c-6.021,2.622-12.499,4.041-18.486,6.765
				c21.188,8.38,41.761,18.591,60.465,31.676c17.069,11.928,32.821,26.214,44.282,43.729c14.389,21.373,20.605,48.8,13.667,73.939
				c-1.844,7.625-5.805,14.447-9.582,21.236c-16.953-11.093-38.36-15.511-58.109-10.303c-48.604,10.269-98.883,9.719-148.097,4.648
				c-28.71-2.234-57.558-1.98-86.304-0.848c-8.964,0.964-18.189,0.379-26.971,2.221c-20.835,18.787-47.277,29.421-73.448,38.465
				c-1.11-6.868-1.911-13.783-2.941-20.663c-0.287-0.16-0.847-0.47-1.133-0.63c-20.124,7.406-36.85,22.506-47.933,40.708
				c-11.502,18.11-16.449,39.231-21.324,59.847c-7.786-8.059-16.451-15.5-22.291-25.185c-12.889-20.503-18.35-45.229-17.078-69.292
				c-12.261,1.785-24.465,3.973-36.748,5.519c4.75-7.351,9.353-14.792,13.956-22.233c3.947-7.221,7.096-16.003,4.338-24.165
				c-2.507-6.767-9.548-10.211-15.914-12.49c-17.319-5.574-35.864-4.773-53.744-3.101c-33.256,3.468-65.928,11.287-97.81,21.201
				c-17.344,5.324-34.137,12.271-51.411,17.813c7.005-10.406,14.435-20.515,21.463-30.91c4.82-7.966,9.136-16.713,9.64-26.168
				c0.297-5.197-3.181-10.177-8.14-11.711c-7.096-2.21-14.675-1.602-21.979-1.121c-21.314,2.106-42.218,7.154-62.768,13.038
				c-18.682,5.312-36.747,12.547-55.256,18.373c15.615-23.191,31.938-45.95,45.792-70.277c7.21-12.901,14.959-26.135,16.94-41.04
				c0.791-6.479,0.435-14.217-4.83-18.854c-5.176-4.408-12.147-5.724-18.718-6.434c-13.839-1.26-27.646,1.328-41.233,3.688
				c-38.922,7.565-76.848,19.597-113.881,33.632c-13.645,5.424-27.291,10.841-40.925,16.312c2.014-3.604,4.808-6.684,7.315-9.935
				c14.23-18.077,28.092-36.459,43.535-53.519c26.101-29.317,55.131-56.047,86.693-79.388
				C556.192,272.704,658.111,235.384,762.193,229.718z M531.992,319.719c-43.135,26.948-81.564,61.427-112.874,101.517
				c0.012,0.309,0.047,0.927,0.057,1.225c2.977-1.683,6.055-3.181,9.249-4.43c39.827-15.901,82.561-24.43,125.432-25.289
				c10.086,0.333,21.019,1.408,29.248,7.854c7.741,5.975,10.692,16.37,9.938,25.803c-1.282,15.386-7.452,29.822-14.058,43.592
				c-9.056,19.151-20.513,37.045-32.717,54.309c29.032-8.998,58.406-17.985,88.821-20.732c10.842-0.711,22.461-1.272,32.443,3.743
				c5.289,2.553,8.849,8.209,8.54,14.126c-0.389,9.902-5.735,18.591-10.439,27.005c28.297-7.305,57.077-13.222,86.302-14.929
				c17.287-0.777,34.847-0.572,51.722,3.666c11.572,2.917,23.078,7.909,31.343,16.781c6.112,6.146,9.41,14.871,9.009,23.512
				c-0.402,10.669-5.142,20.469-10.154,29.662c9.615-2.221,19.335-4.053,28.939-6.354c2.61-0.651,5.277-1.03,7.969-1.201
				c-6.422,24.909-4.752,52.69,7.967,75.405c0.651,2.153,2.529,0.171,2.277-1.122c5.873-22.93,19.839-43.672,38.853-57.765
				c14.263-10.475,30.945-17.869,48.424-20.822c1.328,5.541,2.668,11.081,3.995,16.633c20.651-7.144,41.201-17.251,55.866-33.896
				c21.817-3.444,43.922-5.095,66.018-4.923c44.748-0.125,89.097,7.991,133.879,7.063c25.699-0.422,51.411-2.723,76.655-7.612
				c7.233-0.754,14.64-3.686,21.863-1.328c5.393,1.328,10.019,4.488,14.858,7.052c6.617-14.011,6.379-30.404,1.774-44.989
				c-5.976-18.911-18.327-35.087-32.328-48.825c-15.386-14.481-32.271-27.657-51.284-37.043
				c-18.889-9.695-39.094-16.496-59.381-22.62c6.997-3.161,14.849-3.391,22.393-3.78c-4.086-2.78-9.02-3.662-13.622-5.195
				c-12.042-3.813-24.372-6.627-36.838-8.609c-1.569-0.446-3.527-0.182-4.785-1.328c1.773-2.209,3.914-4.085,5.896-6.123
				c-23.516-3.573-47.394-5.931-71.159-3.802c1.876-10.223,2.542-20.72,1.042-31.034c-3.709,6.833-7.304,14.126-13.818,18.751
				c-2.335-19.587-8.39-40.215-23.732-53.643c0.815,9.202,2.064,18.361,2.933,27.554c-14.126-21.464-33.829-38.682-54.948-53.049
				c-42.621-28.619-92.164-45.893-142.741-53.597c-33.61-5.369-67.805-6.789-101.77-4.911
				C685.644,250.679,602.933,275.257,531.992,319.719z"/>
		</g>
		<path fill="#8A6B29" d="M763.498,292.473c19.393-1.648,38.922-1.74,58.29,0.32c12.993,0.905,26.206,2.188,38.397,7.075
			c6.879,2.746,13.37,7.2,17.217,13.668c3.137,5.426,2.415,12.147,0.285,17.802c-3.148,9.295-11.299,15.614-19.141,20.893
			c-18.464,12.248-40.329,17.64-61.896,21.28c13.349-4.969,25.871-14.001,31.916-27.244c4.087-8.564,0.837-19.738-6.868-25.129
			c-6.067-4.053-13.417-5.563-20.605-5.952c-26.72-1.088-53.461,0.286-80.111,2.094c-42.298,3.273-84.667,8.163-125.937,18.282
			c5.599-3.469,11.803-5.758,17.825-8.378C660.79,307.505,712.179,297.945,763.498,292.473z"/>
		<g>
			<path fill="#8A6B29" d="M693.506,369.184c16.887-23.136,44.737-37.811,73.333-38.864c-9.409,15.603-17.103,32.155-24.04,48.983
				c16.737-0.675,33.542-0.893,50.233,0.769c13.589,1.407,27.533,3.593,39.747,10.05c7.657,3.903,12.742,11.732,13.989,20.148
				c1.729,9.282-1.866,18.487-7.005,26.056c-2.13,0.731-4.226,1.522-6.319,2.312c-26.937,7.978-52.716,19.655-76.769,34.136
				c-11.412,1.74-22.987,1.34-34.48,2.028c-26.259,0.732-52.464,2.907-78.61,5.505c6.033-19.873,13.198-39.403,21.316-58.509
				C672.878,403.481,681.659,385.349,693.506,369.184z M739.847,385.587c-13.04,25.471-23.457,52.213-32.156,79.448
				c13.256-0.309,26.488-0.951,39.733-1.419c10.762-0.836,21.535-3.904,30.589-9.903c12.936-8.207,20.377-22.907,22.907-37.661
				c1.465-8.026-0.446-17.081-6.616-22.748c-6.057-5.883-14.826-7.658-23-7.738C760.818,385.508,750.333,385.53,739.847,385.587z"/>
		</g>
		<g>
			<path fill="#8A6B29" d="M987.16,381.353c7.682-2.038,16.323-1.134,22.954,3.458c4.99,3.469,9.134,8.895,9.513,15.145
				c0.754,5.907-1.706,11.791-5.508,16.199c-9.912,10.13-28.08,10.337-38.006,0.137c-5.162-5.21-7.405-13.325-5.013-20.343
				C973.538,388.759,979.982,383.436,987.16,381.353z M977.706,404.716c0.651,7.144,7.073,12.181,13.635,13.842
				c-3.036-3.297-6.789-6.663-6.94-11.494c-0.856-6.994,4.145-13.45,10.306-16.174c4.199-2.119,8.997-1.856,13.564-1.671
				c-5.207-2.886-11.504-3.973-17.264-2.188C983.2,388.85,976.538,396.417,977.706,404.716z M1000.508,393.544
				c-6.901,1.387-11.343,8.895-9.708,15.625c1.376,7.074,9.584,11.265,16.313,9.365c7.018-1.225,12.09-9.044,10.109-15.912
				C1015.344,395.64,1007.343,391.45,1000.508,393.544z"/>
		</g>
	</g>
	<g>
		<g>
			<path d="M531.992,319.719c70.941-44.462,153.651-69.04,237.057-73.7c33.965-1.877,68.159-0.458,101.77,4.911
				c50.577,7.704,100.12,24.978,142.741,53.597c21.119,14.367,40.822,31.584,54.948,53.049c-0.868-9.192-2.117-18.352-2.933-27.554
				c15.343,13.428,21.397,34.056,23.732,53.643c6.515-4.625,10.109-11.917,13.818-18.751c1.5,10.314,0.834,20.811-1.042,31.034
				c23.766-2.129,47.644,0.229,71.159,3.802c-1.982,2.038-4.123,3.914-5.896,6.123c1.258,1.146,3.216,0.882,4.785,1.328
				c12.466,1.982,24.796,4.796,36.838,8.609c4.603,1.534,9.536,2.416,13.622,5.195c-7.544,0.389-15.396,0.619-22.393,3.78
				c20.287,6.124,40.492,12.925,59.381,22.62c19.014,9.387,35.898,22.562,51.284,37.043c14.001,13.737,26.353,29.914,32.328,48.825
				c4.604,14.585,4.843,30.978-1.774,44.989c-4.84-2.563-9.466-5.724-14.858-7.052c-7.224-2.358-14.63,0.573-21.863,1.328
				c-25.244,4.889-50.956,7.19-76.655,7.612c-44.782,0.928-89.131-7.188-133.879-7.063c-22.096-0.172-44.2,1.479-66.018,4.923
				c-14.665,16.645-35.215,26.752-55.866,33.896c-1.327-5.552-2.667-11.092-3.995-16.633c-17.479,2.954-34.161,10.348-48.424,20.822
				c-19.014,14.093-32.979,34.835-38.853,57.765c0.252,1.293-1.626,3.275-2.277,1.122c-12.719-22.714-14.389-50.496-7.967-75.405
				c-2.691,0.171-5.358,0.55-7.969,1.201c-9.604,2.301-19.324,4.133-28.939,6.354c5.013-9.193,9.752-18.993,10.154-29.662
				c0.4-8.642-2.897-17.366-9.009-23.512c-8.265-8.872-19.771-13.864-31.343-16.781c-16.875-4.237-34.436-4.443-51.722-3.666
				c-29.225,1.707-58.005,7.624-86.302,14.929c4.704-8.414,10.05-17.103,10.439-27.005c0.31-5.917-3.25-11.573-8.54-14.126
				c-9.982-5.015-21.601-4.455-32.443-3.743c-30.415,2.747-59.789,11.734-88.821,20.732c12.204-17.264,23.661-35.158,32.717-54.309
				c6.606-13.77,12.776-28.206,14.058-43.592c0.754-9.433-2.198-19.828-9.938-25.803c-8.229-6.445-19.161-7.521-29.248-7.854
				c-42.871,0.858-85.605,9.388-125.432,25.289c-3.194,1.249-6.272,2.747-9.249,4.43c-0.01-0.298-0.045-0.917-0.057-1.225
				C450.428,381.146,488.857,346.667,531.992,319.719z M644.19,288.616c-54.375,17.251-106.118,44.474-148.692,82.732
				c-2.243,1.979-4.361,4.086-6.342,6.319c21.635-5.609,43.455-11.071,65.812-12.753c15.752-1.294,32.133-1.432,47.199,3.96
				c10.566,3.664,19.116,12.455,22.539,23.101c4.775,14.195,2.804,29.569-0.664,43.822c-5.093,19.644-13.542,38.281-23.569,55.876
				c-0.709,1.317-1.307,2.7-1.878,4.086c10.488-1.786,20.972-3.962,31.607-4.568l-0.08-0.642c27.92-3.411,55.899-6.661,84.026-7.681
				c8.939-0.56,17.88-1.339,26.856-1.18c-0.047,0.379-0.127,1.135-0.172,1.513c-2.679,1.705-5.392,3.364-7.842,5.391
				c-10.59,8.449-21.168,17.331-28.939,28.55c20.388-3.148,40.833-6.284,61.485-7.11c23.09-1.096,46.684-0.937,69.097,5.395
				c13.288,3.835,26.994,11.023,33.278,23.994c5.759,11.79,3.354,25.446-0.379,37.466c16.944-3.892,33.429-9.638,50.428-13.245
				c-4.979,8.221-11.311,15.491-17.721,22.622c-12.467,14.115-20.697,32.122-21.809,51.034c2.703-3.869,4.249-8.414,7.076-12.193
				c11.481-16.334,29.008-27.313,47.163-34.914c18.534-7.832,35.602-20.48,46.158-37.845c1.739-2.576,2.403-5.967,4.818-8.014
				c7.969,14.768,8.081,32.934,1.934,48.377c16.062-4.887,28.621-17.227,38.236-30.541l0.067-0.458
				c4.797-6.8,8.268-14.367,11.77-21.875c7.006,5.517,13.999,11.058,20.835,16.815c21.269-2.359,42.733-3.228,64.107-1.74
				c24.449,1.305,48.742,4.693,73.184,6.205c13.288,1.203,26.662,0.8,39.997,0.71c24.854-0.801,49.728-3.125,74.044-8.471
				c-1.282-0.882-2.589-1.718-4.019-2.29c-21.167-8.517-43.181-14.732-65.345-20.056c-48.17-11.378-97.234-18.715-146.459-23.686
				c-16.724-1.419-33.474-3.126-50.278-2.759c-3.743-0.172-7.144,3.115-7.303,6.813c0.561,4.853,4.019,8.573,7.21,11.974
				c-15.076-6.664-30.07-14.85-41.21-27.247c-3.171-3.02-5.276-9.536-0.16-11.812c8.939-4.075,19.151-2.577,28.699-2.611
				c27.188,2.073,54.182,6.123,81.209,9.697c48.229,6.936,96.48,14.731,143.575,27.462c19.839,5.688,39.827,11.859,57.8,22.243
				c7.579,4.476,14.777,10.109,19.176,17.916c1.497-14.344-3.813-28.47-11.437-40.389c-12.491-19.151-31.046-33.391-50.485-44.953
				c-29.213-19.231-62.915-30.372-96.8-38.133c-18.889-4.088-37.996-7.532-57.284-8.883c7.532,6.376,15.431,12.306,22.907,18.762
				c-14.403-1.121-28.779-2.599-43.182-3.65c11.151,8.356,22.473,16.496,33.876,24.497c-39.77-12.729-80.328-24.005-121.999-28.184
				c-32.603-9.617-66.854-14.791-100.876-12.411c-12.764,0.333-25.346,2.656-38.007,4.077c6.812-6.88,15.066-12.216,23.813-16.29
				c19.803-9,41.864-11.701,63.43-11.403c-8.745-6.056-18.637-10.349-28.825-13.304c-18.155-5.654-37.375-5.723-56.198-4.921
				c35.262-17.675,76.004-22.163,114.903-18.167c-11.176-14.596-28.941-22.094-46.066-27.2c-4.945-1.786-10.36-1.911-15.179-3.984
				c33.231-0.904,67.861,5.288,96.021,23.811c7.763,5.45,15.604,11.265,21.179,19.049c-11.996-3.664-24.2-8.197-36.964-7.337
				c6.157,2.541,12.501,4.888,17.663,9.26c9.628,7.074,15.98,17.39,21.511,27.75c6.26,9.753,13.829,21.087,26.169,23.066
				c4.774-26.603-4.843-53.986-21.441-74.73c-12.053-15.179-27.405-27.451-43.914-37.479c-20.696-12.489-43.17-21.795-66.155-29.168
				C842.773,258.532,738.829,258.579,644.19,288.616z M987.16,381.353c-7.178,2.083-13.622,7.407-16.06,14.596
				c-2.393,7.018-0.149,15.133,5.013,20.343c9.926,10.2,28.094,9.993,38.006-0.137c3.802-4.408,6.262-10.292,5.508-16.199
				c-0.379-6.25-4.522-11.676-9.513-15.145C1003.483,380.219,994.842,379.315,987.16,381.353z"/>
		</g>
		<path d="M778.769,332.197c2.221-3.252,4.603-6.387,7.223-9.331c7.131,0.414,14.495-0.973,21.408,1.294
			c4.865,1.649,9.329,5.507,10.326,10.726c1.545,8.196-2.21,16.635-7.819,22.507c-5.104,5.391-11.985,8.586-18.888,11.012
			c4.568-8.082,9.546-17.389,6.914-26.938C795.115,333.799,785.912,332.369,778.769,332.197z"/>
		<path d="M747.975,393.532c8.173-0.147,16.357-0.045,24.532-0.08c5.94-0.011,12.397,1.557,16.483,6.148
			c4.181,4.899,4.132,11.963,2.554,17.881c-2.3,8.563-6.251,16.93-12.673,23.181c-5.746,5.621-13.071,9.49-20.822,11.506
			c7.909-8.288,13.818-18.911,14.812-30.474c0.641-6.033-1.956-12.615-7.429-15.625c-6.754-3.56-14.686-3.399-22.093-2.885
			C744.884,399.966,746.487,396.773,747.975,393.532z"/>
		<path d="M1000.508,393.544c6.835-2.095,14.836,2.096,16.715,9.079c1.98,6.868-3.092,14.687-10.109,15.912
			c-6.729,1.9-14.938-2.291-16.313-9.365C989.165,402.439,993.606,394.931,1000.508,393.544z"/>
	</g>
	<g>
		<path fill="#2C2D8B" d="M644.19,288.616c94.639-30.037,198.583-30.084,293.185,0.068c22.985,7.373,45.459,16.679,66.155,29.168
			c16.509,10.029,31.861,22.301,43.914,37.479c16.599,20.744,26.216,48.127,21.441,74.73c-12.34-1.979-19.909-13.313-26.169-23.066
			c-5.53-10.36-11.883-20.676-21.511-27.75c-5.162-4.372-11.506-6.719-17.663-9.26c12.764-0.859,24.968,3.674,36.964,7.337
			c-5.574-7.784-13.416-13.6-21.179-19.049c-28.16-18.522-62.79-24.714-96.021-23.811c4.818,2.073,10.233,2.198,15.179,3.984
			c17.125,5.106,34.891,12.604,46.066,27.2c-38.899-3.996-79.642,0.492-114.903,18.167c18.823-0.802,38.043-0.733,56.198,4.921
			c10.188,2.955,20.08,7.248,28.825,13.304c-21.565-0.298-43.627,2.403-63.43,11.403c-8.746,4.074-17.001,9.41-23.813,16.29
			c12.661-1.421,25.243-3.744,38.007-4.077c34.021-2.38,68.273,2.794,100.876,12.411c-31.71-2.599-64.3-3.629-95.288,4.693
			c26.442-0.207,52.923,2.002,78.977,6.537c17.868,3.435,35.979,7.796,51.833,17.034c-27.438-3.766-55.073-6.812-82.812-6.468
			c-29.225,0.32-58.496,3.366-86.92,10.326c-21.455,5.425-42.792,12.454-61.957,23.707c48.013-13.003,97.98-19.449,147.719-16.576
			c9.561,0.573,19.143,1.234,28.573,2.976c-4.922,1.627-11.114,2.896-13.566,8.071c-1.749,4.695,1.686,9.136,4.604,12.488
			c8.977,9.664,20.456,16.486,31.732,23.115c3.24,2.026,7.04,3.308,9.822,5.986c4.979,9.686,7.669,20.995,4.853,31.756l-0.067,0.458
			c-9.615,13.314-22.175,25.654-38.236,30.541c6.147-15.443,6.035-33.609-1.934-48.377c-2.415,2.047-3.079,5.438-4.818,8.014
			c-10.557,17.365-27.624,30.014-46.158,37.845c-18.155,7.6-35.682,18.579-47.163,34.914c-2.827,3.779-4.373,8.324-7.076,12.193
			c1.111-18.912,9.342-36.918,21.809-51.034c6.41-7.131,12.741-14.401,17.721-22.622c-16.999,3.607-33.483,9.354-50.428,13.245
			c3.732-12.02,6.138-25.676,0.379-37.466c-6.284-12.971-19.99-20.159-33.278-23.994c-22.414-6.331-46.007-6.491-69.097-5.395
			c-20.652,0.826-41.097,3.962-61.485,7.11c7.771-11.219,18.35-20.102,28.939-28.55c2.45-2.027,5.163-3.686,7.842-5.391
			c0.604-0.492,1.202-0.997,1.784-1.513c4.763-2.862,9.273-6.101,14.058-8.917c24.052-14.481,49.832-26.158,76.769-34.136
			c6.102-0.562,11.414-4.156,17.548-4.842c4.544-7.648,7.762-16.771,5.793-25.723c-1.969-10.521-9.593-19.198-18.763-24.292
			c-5.734-3.388-12.25-5.002-18.669-6.514c20.605-5.816,40.913-14.687,56.848-29.306c7.04-6.206,10.864-15.317,11.94-24.509
			c0.928-7.51-1.432-15.397-6.56-21.007c-6.688-7.417-16.118-11.572-25.449-14.594c-13.725-4.271-28.069-6.274-42.379-7.315
			c-40.798-2.232-81.631,3.275-121.399,12.112c-27.336,6.25-54.332,14.274-80.283,24.931c-19.747,8.232-39.186,17.767-56.163,30.921
			c58.394-11,117.372-19.884,176.786-22.529c-11.057,4.248-22.104,9.146-31.263,16.805c-21.326,19.06-35.362,44.635-46.466,70.631
			c-10.668,25.094-19.357,51.01-26.57,77.295l1.729-0.15l0.08,0.642c-10.635,0.605-21.119,2.782-31.607,4.568
			c0.572-1.387,1.169-2.77,1.878-4.086c10.027-17.595,18.477-36.232,23.569-55.876c3.468-14.253,5.438-29.626,0.664-43.822
			c-3.423-10.646-11.973-19.438-22.539-23.101c-15.066-5.393-31.447-5.254-47.199-3.96c-22.356,1.682-44.176,7.144-65.812,12.753
			c1.981-2.232,4.099-4.339,6.342-6.319C538.072,333.09,589.815,305.867,644.19,288.616z"/>
		<path fill="#2C2D8B" d="M778.769,332.197c7.143,0.172,16.347,1.602,19.163,9.271c2.632,9.549-2.346,18.855-6.914,26.938
			c-10.463,3.251-21.488,2.542-32.271,2.599C764.458,357.61,770.847,344.434,778.769,332.197z"/>
		<path fill="#2C2D8B" d="M743.339,403.183c7.407-0.514,15.339-0.675,22.093,2.885c5.473,3.01,8.07,9.593,7.429,15.625
			c-0.994,11.563-6.903,22.186-14.812,30.474c-11.379,3.456-23.479,1.67-35.179,2.037
			C728.857,436.884,735.485,419.759,743.339,403.183z"/>
	</g>
</g>
<text transform="matrix(1 0 0 1 512.4707 192.1729)" font-family="'Arial-BoldMT'" font-size="177.0009">PLAYER</text>
<text transform="matrix(1 0 0 1 747.9126 1207.8643)" font-family="'Arial-BoldMT'" font-size="72">YEAR </text>
</svg>
