<?xml version="1.0" encoding="utf-8"?>
<!-- Generator: Adobe Illustrator 25.2.1, SVG Export Plug-In . SVG Version: 6.00 Build 0)  -->
<svg version="1.1" id="Layer_1" xmlns="http://www.w3.org/2000/svg" xmlns:xlink="http://www.w3.org/1999/xlink" x="0px" y="0px"
	 viewBox="0 0 4320 2592" style="enable-background:new 0 0 4320 2592;" xml:space="preserve">
<style type="text/css">
	.st0{display:none;}
	.st1{fill:none;}
	.st2{display:none;fill:#62930C;}
	.st3{fill:#8E6B43;}
	.st4{opacity:0.5;}
	.st5{fill:#452F27;}
	.st6{fill:#F2F2F2;}
	.st7{opacity:0.8;}
	.st8{fill:#FFFFFF;}
	.st9{fill:#003B78;}
	.st10{fill:#4FA0CA;}
	.st11{font-family:'Impact';}
	.st12{font-size:147.0441px;}
	.st13{font-size:147.0144px;}
	.st14{font-size:100.0491px;}
	.st15{font-size:141.9242px;}
	.st16{font-size:96.585px;}
	.st17{clip-path:url(#SVGID_2_);}
	.st18{clip-path:url(#SVGID_4_);}
</style>
<g>
	<g>
		<rect x="1.4" y="2.3" class="st3" width="4326.7" height="2592"/>
	</g>
	<g class="st4">
		<g>
			<g>
				<g>
					<path class="st5" d="M2012.2,2595.4C3499.7,2037.1,3616.5,230.2,3616.5,230.2S894.1-892.8-4.7,1986.3v609H2012.2z"/>
				</g>
			</g>
			<g>
				<g>
					<path class="st5" d="M2565.3,28.4c547.8,23.6,979,185.2,1039.8,209c-6.4,76.3-67.1,693.8-401.9,1291.5
						c-222.3,396.9-600.1,839.9-1228.6,1066.4h67.8c127.1-49.4,247.8-109.3,361.6-179.7c332.7-205.7,608.1-500.7,818.6-876.7
						c358-639.5,404.5-1301.3,404.9-1308l0.5-7.7l-7.2-3c-4.6-1.9-461.8-188-1054.5-213.6c-271.4-11.8-531,11.6-771.6,69.4
						c-291.6,70-558.1,191.4-792.3,361C550.3,764,213,1271.8-4.7,1950.7v71.9C511.1,321.5,1654.2-11,2565.3,28.4z"/>
				</g>
			</g>
		</g>
		<g>
			<g>
				<g>
					<path class="st6" d="M2156.7,27.2c0,0,732,702.8,999.5,1603.1c0,0-119,192.4-175.3,251.9c0,0-120.6-514.7-1127.5-1808.5
						C1853.4,73.7,2001.7,37.6,2156.7,27.2z"/>
				</g>
			</g>
		</g>
		<g>
			<g>
				<g>
					<path class="st6" d="M1580.3,2595.4c-160-181.7-515.5-652-1029.9-1707.2c0,0-97.7,117-175,251.5c0,0,264.7,828.6,852.1,1455.7
						H1580.3z"/>
				</g>
			</g>
		</g>
		<g>
			<g>
				<g>
					<polygon class="st6" points="1273.8,1722.8 1245.1,1676.7 2276.5,1033.7 2305.2,1079.7 					"/>
				</g>
			</g>
		</g>
		<g>
			<g>
				<g>
					<polygon class="st6" points="2265.9,1219.6 2129.8,1001.3 2175.9,972.5 2312.1,1190.9 					"/>
				</g>
			</g>
		</g>
		<g>
			<g>
				<g>
					<polygon class="st6" points="2154.9,1288.8 2018.8,1070.5 2064.9,1041.8 2201,1260.1 					"/>
				</g>
			</g>
		</g>
		<g>
			<g>
				<g>
					<polygon class="st6" points="2043.8,1358 1907.7,1139.7 1953.9,1111 2090,1329.3 					"/>
				</g>
			</g>
		</g>
		<g>
			<g>
				<g>
					<polygon class="st6" points="1932.8,1427.3 1796.7,1208.9 1842.9,1180.2 1979,1398.5 					"/>
				</g>
			</g>
		</g>
		<g>
			<g>
				<g>
					<polygon class="st6" points="1821.9,1496.5 1685.7,1278.1 1731.8,1249.4 1868,1467.7 					"/>
				</g>
			</g>
		</g>
		<g>
			<g>
				<g>
					<polygon class="st6" points="1710.8,1565.7 1574.7,1347.4 1620.8,1318.6 1756.9,1537 					"/>
				</g>
			</g>
		</g>
		<g>
			<g>
				<g>
					<polygon class="st6" points="1599.8,1634.9 1463.7,1416.6 1509.8,1387.8 1646,1606.1 					"/>
				</g>
			</g>
		</g>
		<g>
			<g>
				<g>
					<polygon class="st6" points="1488.8,1704.1 1352.6,1485.8 1398.8,1457 1534.9,1675.4 					"/>
				</g>
			</g>
		</g>
		<g>
			<g>
				<g>
					<polygon class="st6" points="1377.7,1773.3 1241.6,1555 1287.8,1526.2 1423.9,1744.6 					"/>
				</g>
			</g>
		</g>
	</g>
	<g id="XMLID_29_" class="st7">
		<path d="M3254.3,373.2c-2.6-6.6-4.4-13.7-4.8-21.1c-2.9,6.4-5.8,13-8.3,19.6C3245.5,372.2,3249.9,372.6,3254.3,373.2z
			 M3249.4,497.5c8,1.2,16.7,2.2,26,2.9c3.5-11.7,6.9-20.2,9.6-23.6c7.5-9.4,29-13.2,29-13.2s-1-2-2.7-5.2c-2.2-1.2-4.2-2.7-5.9-4.4
			c-5.7-5.9-13.7-20.9-22.4-40.1c-6.9-7-18-18.8-25.6-33.9c-6.3-0.6-12.5-1.3-18.5-2c-4.5,13-7.4,25.3-7.2,35.2
			C3232.7,447.9,3246.4,488.9,3249.4,497.5z M3251.6,318.8c2-18.9,4.5-31.2,4.5-31.2s-8.2-1.8-18.3-5.7c3.8,10.4,8.4,23,13.7,36.9
			H3251.6z M3183.4,235.3c-2.9,2.2-4.2,5-4.2,8.5c0,11.8,9.6,19.3,34.2,25.1c-8.4-6.3-15.1-14.3-16.3-24.4
			c-0.3-2.9-0.3-7.8,0.4-14.2C3191.4,231.2,3186.6,232.8,3183.4,235.3z M3179.4,230.1c4.4-3.4,11-5.4,18.8-6.4
			c9.2-66.5,69.1-245.7,285.4-206.8c281,50.6,128.4,348.4,128.4,348.4s208.8,111.5,261.2,267.8c52.4,156.4,15,268.8,2.8,333.4
			c-12.2,64.6-33.7,128.3-18.7,154.5c15,26.2,24.3,73,21.5,97.4c-2.8,24.4-16.9,27.2-5.6,44.9c11.3,17.8,17.8,18.7,17.8,39.4
			c0,20.6-9.4,30-4.7,39.3c4.7,9.4,30.9,91.7-15.9,175.1c-46.9,83.3-104,137.6-130.2,182.6c-26.2,44.9-45.8,84.2-45.8,84.2
			s35.5-11.2,68.4-11.2c32.7,0,83.3-7.5,130.1-19.7c46.9-12.2,96.5-34.7,96.5-34.7s-4.7-17.8,10.3-29c15-11.2,16-8.4,28.1-24.3
			c12.1-15.9,37.4-54.4,65.5-57.1c28.1-2.8,30,7.5,34.6,9.4c4.7,1.9,11.2-1.9,15.9,1.9c4.7,3.7,3.8,14,6.6,19.7
			c2.8,5.6,10.3,14,14,17.8c3.7,3.8,14.1,6.6,16.9,13.1c2.8,6.6-3.8,15-3.8,17.8c0,2.8,2.8,9.4,2.8,20.6c0,11.3,1,21.6,9.4,30
			c8.5,8.4,36.5,29,43.1,38.3c6.6,9.4,19.7,20.6,19.7,20.6s6.6-6.6,13.1,1.9c6.5,8.4-1.8,14,1.9,20.6c3.8,6.6,8.5,14.1,8.5,14.1
			s14-2.8,16.8,3.7c2.9,6.6-8.4,12.2-6.5,18.8c1.9,6.6,6.5,15.9,6.5,15.9s20.6,7.5,21.5,15.9c1,8.5-12.2,6.6-10.3,13.1
			c1.9,6.6,2.8,18.7,2.8,18.7s7.5,4.7,7.5,11.3c0,6.5-10.3,9.3-10.3,15c0,5.6,0.9,38.4-21.5,42.1c-22.5,3.8-35.5,3.8-53.4-18.8
			c-17.8-22.5-37.4-47.7-68.3-56.2c-30.9-8.4-88-3.7-94.6-9.3c-6.5-5.7-0.9-11.3-4.6-13.1c-3.8-1.9-30.9-7.5-39.4-9.4
			c-8.4-1.8-23.4-9.4-49.6-1.8c-26.2,7.5-97.4,53.4-134.8,74.9c-37.5,21.5-113.3,75.9-183.6,87.1c-70.3,11.3-103,21.5-130.2,24.4
			c-27.1,2.8-70.2,5.7-95.5-0.9c-25.3-6.6-39.4-26.2-39.4-26.2s-21.5-7.5-43-19.7c-21.6-12.2-31.9-25.3-28.1-58.1
			c3.8-32.7,24.4-142.3,41.2-208.9c16.4-64.7,25.7-101.9,26.2-103.8c-1.4,0.8-24,13.4-44.9,24.3c-21.5,11.2-47.7,37.4-74.9,53.4
			c-27.2,15.9-65.6,31.8-66.5,48.7c-0.9,16.9,31.8,165.8,9.4,239.7c-22.5,74-39.3,97.4-44.9,146.1c-5.7,48.7-4.7,147-5.7,168.5
			c-0.9,21.5,2.9,46.8,2.9,46.8s12.2,22.5,18.7,44.1c6.6,21.5,24.3,87.1,16,99.2c-8.5,12.2-23.4,18.8-29,20.6
			c-5.6,1.8-15-6.6-20.6-6.6c-5.6,0-18.7,3.8-18.7,3.8s-1.9,15-10.3,15c-8.4,0-30.9-3.8-42.1-2.8c-11.2,0.9-35.5-1.9-47.7,3.7
			c-12.2,5.6-49.7,19.7-92.7,22.5c-43.1,2.8-167.6,6.6-190.2,6.6c-22.5,0-43-38.4,13.2-60.9c56.2-22.5,103-41.2,135.8-73
			c32.8-31.8,64.6-70.2,74-98.3c9.4-28.1,28.1-28.1,28.1-28.1s14-70.3,9.4-126.4c-4.7-56.2-31.8-145.1-30.9-234.1
			c0.9-88.9,7.5-139.5,1.8-162c-5.6-22.5-6.5-32.8-3.7-63.7c2.8-30.9,6.5-54.3,6.5-54.3s-11.2-8.4-2.8-29.9
			c8.4-21.5,53.4-63.7,70.2-104.9c16.9-41.2,25.3-77.7,29-92.7c3.8-15,10.3-29,10.3-29s-5.6,3.7-15.9-8.5
			c-10.3-12.2-7.5-21.5-14.1-23.4c-6.6-1.9-37.4-7.5-23.4-33.7c14-26.2,65.5-51.5,65.5-51.5s-25.2,0-41.2,0.9
			c-15.9,0.9-17.8-19.7,3.8-29.9c21.6-10.3,42.1-16.9,90.8-21.6c48.7-4.7,68.4,4.7,82.4-8.5c14.1-13.1,59-41.1,101.2-62.7
			c42.1-21.6,71.1-30,74.8-46.9c3.8-16.8,1-125.5,1-125.5s-34.7,95.5-177,104.9c-142.3,9.4-173.2-18.8-189.2-15
			c-15.9,3.7-73.1,11.2-89.9-29c-16.9-40.3,1.9-67.4,3.8-94.6c1.9-27.2,12.2-104,19.7-119.9c7.5-16,16.9-27.1,25.3-38.4
			c8.5-11.2,85.2-91.7,159.2-72.1c74,19.7,107.7,65.5,107.7,65.5s35.6-65.5,25.3-91.7c-10.3-26.2-43-90.9-36.5-138.6
			c3.8-27.9,9.9-56.7,15.8-77.8c-41.2-3.1-70.2-13-80.5-22c-3.4-2.9-5.1-5.9-5.3-9c-0.1-2.7-0.3-6.1-0.4-10
			c-0.6-16.4-1.5-41.2-4-59.9c-1-7.4-3.2-14.1-5.5-20.8c-4.8-14.4-9.4-28,0.3-43.4c10.5-17,37.8-22.3,66.1-22.7
			c-5.9-15.4-10.9-29.4-14.8-40c-36.4-6-57-14.9-57-35C3172.6,238.2,3174.9,233.6,3179.4,230.1z M3183.8,344.9
			c-3.9,6.3-5,12.3-4.6,18.4c7.6,1.2,29.6,4.5,55.3,7.6c4.5-12.1,10-24.4,15.6-35.5c0-0.5,0.1-0.9,0.1-1.4c-1.1-2.9-2.2-5.9-3.3-8.7
			C3219.5,325.3,3193.2,329.7,3183.8,344.9z M3180.4,370c0.9,4.2,2.3,8.4,3.8,12.8c2.3,6.9,4.7,14.1,5.7,21.9
			c2.6,19.1,3.5,44.1,4.1,60.6c0.1,3.9,0.2,7.3,0.4,10c0,0.5,0.4,2,3.1,4.4c6.7,5.9,22.3,12.2,44.6,16.4
			c-4.6-13.5-16-50.3-16.8-82.9c-0.3-10.3,2.6-22.9,7-36.1C3209.1,374.3,3189.2,371.4,3180.4,370z"/>
	</g>
</g>
<g>
	<path class="st8" d="M2769.6,928.6c15-4.5,31.1,10.1,28,25.4c-1.7,13.4-16.9,22.7-29.6,17.9c-12.2-3.8-19-19-13.3-30.6
		C2757.3,935.1,2763,930.3,2769.6,928.6z"/>
	<path class="st8" d="M3709.9,929c15-4.5,31,10,27.9,25.3c-1.7,13.4-16.9,22.7-29.5,17.8c-12.2-3.8-19-19-13.3-30.5
		C3697.7,935.5,3703.3,930.7,3709.9,929z"/>
	<path class="st8" d="M2505.8,1541.2c14.9-4.5,30.9,10,27.9,25.3c-1.7,13.3-16.9,22.6-29.5,17.8c-12.2-3.8-18.9-18.9-13.3-30.4
		C2493.6,1547.6,2499.3,1542.9,2505.8,1541.2z"/>
	<path class="st8" d="M3974,1540.9c15.1-4.6,31.2,10.1,28.1,25.5c-1.7,13.4-17,22.8-29.7,18c-12.3-3.8-19.1-19.1-13.4-30.7
		C3961.7,1547.4,3967.4,1542.6,3974,1540.9z"/>
	<path class="st8" d="M2637.4,2061.2c12.4-5,27.7,3.4,30.3,16.4c3.4,12.9-6.8,26.9-20,27.9c-12.6,1.7-24.9-9-25.3-21.6
		C2621.8,2074.1,2628.2,2064.5,2637.4,2061.2z"/>
	<path class="st8" d="M3236.6,2346.7c12.4-5,27.7,3.4,30.3,16.4c3.4,12.9-6.8,26.9-20,27.9c-12.6,1.7-24.9-9-25.3-21.6
		C3221,2359.6,3227.4,2350,3236.6,2346.7z"/>
	<path class="st8" d="M3838.1,2061.7c12.4-5,27.7,3.4,30.3,16.4c3.4,12.9-6.8,26.9-20,27.9c-12.6,1.7-24.9-9-25.3-21.6
		C3822.4,2074.5,3828.8,2064.9,3838.1,2061.7z"/>
	<g>
		<g>
			<path class="st9" d="M2599.4,673c32.8-3.1,65.8-0.4,98.6,0c23.4,0.5,46.9,1.5,70.2,3.9c25.5,3.7,51.9,6,75.6,16.9
				c33.2,14.3,60.5,41.8,73.2,75.8c13.8,35.3,13.1,74.5,6.9,111.4c-7.2,37.2-18,74.1-36.1,107.5c-18.9,38.5-43.3,73.9-67.3,109.3
				c-19.4,30-38.2,60.4-53.7,92.6c-42.3,89.8-83,181.1-106.9,277.8c-18.9,75.6-28.3,154.5-18.3,232.2c5.4,42,17,83.3,34.4,121.9
				c33.2,76.9,78.1,149.3,136.4,209.6c56.5,59.1,125.9,105.9,201.9,136c55.1,22,113.6,35.4,172.6,41.3c28.3,2.3,56.7,4.6,85,2.1
				c133-8.6,263-60,365.6-145.3c94.5-77.8,163.5-185,198.7-302c21.6-75.1,21-155,8.2-231.6c-19.8-120.6-69-233.6-121-343.3
				c-15.2-31.4-33.6-61-52.4-90.2c-24.1-35.8-48.9-71.4-68-110.3c-18.3-33.7-29-70.9-36.3-108.4c-5.9-36.1-6.7-74.3,6.4-109
				c11.3-31.6,35.3-58.2,65.1-73.4c19.5-10.5,41.3-15.3,63-18.1c41.4-6.7,83.4-6.5,125.1-7.7c21.6-0.4,43.3-1.6,64.9,0.8
				c11.5,1.4,23.5,5.9,30.3,15.9c7.1,10.2,9.6,22.7,11.7,34.8c4.3,27.2,9.8,54.2,12,81.6c1.2,17.7,4.7,35.8,0,53.3
				c-2.4,9.4-10.4,16.4-19.6,19c-11.6,4.6-24,0.7-35.4-2.1c-10.6-2.5-20.7-8.8-31.9-6.6c-13,1.7-23.8,12.6-25.5,25.6
				c-2.4,16.9,5.8,32.9,15.3,46.2c24.7,33.5,48.6,67.6,72.7,101.5c52.1,75.6,96.2,157,129.1,242.8c16.2,40.9,29.4,82.8,41.2,125.2
				c8.6,34.4,18.5,68.8,22.7,104.1c12.8,89.6,14.5,181.1,0.5,270.6c-12.1,80.3-37.6,158.4-73.9,231c-16.2,31.4-32.2,63-51.8,92.5
				c-37.8,59.2-80.8,115.4-130.2,165.4c-55.6,57.1-120,105-188.2,145.9c-15.5,10-31,20.1-47.4,28.6
				c-60.4,31.2-126.3,49.9-192.8,62.9c-49.4,9.5-99.5,15.5-149.7,18.5c-24.8,0.9-49.6,2.4-74.4,0.3c-84.6-5.7-168.8-20.7-249.5-47
				c-18-6.6-36.4-12.5-53.8-20.5c-41.7-16.9-80-40.7-117.6-65.1c-64.2-41-123.3-90.2-174.6-146.5c-27.6-30-53-62.1-76.7-95.3
				c-23-33.1-45.6-66.6-64-102.5c-32.6-59.1-59.4-121.6-76.5-187c-31-115.4-33.3-237.2-16.1-355c4.1-33.1,13.2-65.2,21.3-97.5
				c22.8-84.3,53.7-166.6,94.3-244c21.8-42.3,46.8-82.8,73.2-122.3c25.3-35.6,50.3-71.3,76.1-106.5c9.5-13.3,17.9-29.3,15.6-46.2
				c-1.5-13.1-12.6-24.2-25.6-25.9c-10.4-2.1-20,3.4-29.7,6c-13.8,3.8-29.2,7.9-42.6,0.6c-13.2-5.4-17-20.9-16.8-33.8
				c0.7-42.3,8.6-84.1,15.7-125.7c2.4-11.3,5.7-23.1,14-31.5C2579.9,677.3,2589.8,674.3,2599.4,673z M2768.8,929.3
				c-15.4,4-21.3,25.5-10,36.8c10.7,12.8,33.7,7.6,38-8.5C2802.8,941.2,2785.1,923.4,2768.8,929.3z M3710,929
				c-6.5,1.7-12.2,6.4-14.9,12.6c-5.6,11.5,1.1,26.6,13.3,30.4c12.6,4.8,27.8-4.5,29.5-17.8C3740.9,939,3725,924.5,3710,929z
				 M2503.5,1541.8c-9,3.2-15.2,12.7-14.6,22.2c0.4,12.3,12.3,22.7,24.6,21.2c13.1-0.8,23.3-14.8,19.8-27.5
				C2530.6,1545,2515.6,1536.9,2503.5,1541.8z M3971.9,1541.8c-9.1,3.2-15.3,12.6-14.7,22.2c0.4,12.4,12.4,22.9,24.8,21.2
				c12.9-1,22.9-14.7,19.6-27.4C3999,1545.1,3984,1536.9,3971.9,1541.8z M2637.2,2062.2c-15.9,5.3-19.6,28.6-6.1,38.5
				c12.1,10.6,33.3,3.1,36.1-12.7C2671.7,2071.5,2653,2055.3,2637.2,2062.2z M3837.9,2062.2c-6.3,2.3-11.5,7.7-13.5,14.1
				c-4.6,12.5,4.5,27.3,17.6,29.2c14.1,2.9,28.2-10.4,26.2-24.6C3867,2066.8,3851,2056.7,3837.9,2062.2z M3236.5,2347.2
				c-9.1,3.2-15.3,12.7-14.7,22.3c0.4,12.3,12.4,22.7,24.7,21.2c13-1,23.1-14.8,19.7-27.5
				C3263.7,2350.4,3248.7,2342.3,3236.5,2347.2z"/>
		</g>
	</g>
</g>
<g id="XMLID_5_">
	<g>
		<g>
			<g>
				<path class="st5" d="M280.3,256.1v13.6c-9.8-0.7-20.3-1.2-31.5-1.2c-8.3,0-16.4,0.3-24.4,0.8v-13.6c7.9-0.4,15.9-0.7,24.1-0.7
					C259.8,254.9,270.4,255.4,280.3,256.1z"/>
			</g>
		</g>
		<g>
			<g>
				<path class="st6" d="M159.3,258.8c27.5-6.8,57.5-10.2,89.3-10.2c47.6,0,85.7,7.9,96.4,10.3c15.9-53.2,9.5-73.1,4.3-80.2
					c-4.2-5.7-73.5-22-102.4-22c-49.4,0-88,17.8-90.9,21.6C144.5,193.5,153.8,239,159.3,258.8z M218.1,269.7v-13.6
					c-20.2,1.5-39.5,4.5-57.6,9c1,4.6,1.9,8.7,2.8,12.2c0.2,0.4,0.5,0.9,0.7,1.3C181.1,274.2,199.2,271.3,218.1,269.7z M344.4,265.3
					c-6.3-1.5-27.9-6.2-57.7-8.7v13.6c26.8,2.5,46.8,6.8,54.1,8.5C342.2,274,343.4,269.5,344.4,265.3z M354.4,174.8
					c15,15.9,1.7,72.6-4.9,97c-3.1,8.5-6.7,17.4-10.8,26.6c0,0-0.4,0.4-1.5,1.1c1-5.1,1.8-10,2.4-14.5c-6.8-1.6-26.4-5.9-52.9-8.4
					v27c-2-0.2-4.2-0.4-6.4-0.7v-26.9c-9.8-0.7-20.3-1.2-31.5-1.2c-8.3,0-16.4,0.3-24.4,0.8v27.3c-2.2,0.3-4.3,0.5-6.4,0.7v-27.5
					c-18.5,1.5-36.2,4.5-52.9,8.8c0.6,5,1.3,9.9,2.1,14.4c-0.8-0.5-1.1-0.9-1.1-0.9c-4.7-10.7-8.7-20.8-12.1-30.4
					c-6.9-26.6-17.7-77.9-3.2-93.6c4.5-4.9,49.1-24.1,96-24.1C276.3,150.2,348,168.1,354.4,174.8z M280.3,256.1
					c-9.9-0.7-20.5-1.1-31.8-1.1c-8.2,0-16.2,0.3-24.1,0.7v13.6c8-0.5,16.1-0.8,24.4-0.8c11.1,0,21.7,0.5,31.5,1.2V256.1z"/>
			</g>
		</g>
		<g>
			<g>
				<path class="st5" d="M286.7,256.6c29.8,2.5,51.4,7.2,57.7,8.7c-1,4.2-2.2,8.7-3.6,13.5c-7.3-1.7-27.3-6-54.1-8.5V256.6z"/>
			</g>
		</g>
		<g>
			<g>
				<path class="st5" d="M286.7,276.6c26.6,2.4,46.1,6.7,52.9,8.4c-0.6,4.6-1.4,9.4-2.4,14.5c-3.9,2.4-16.6,7.5-50.5,4.1V276.6z"/>
			</g>
		</g>
		<g>
			<g>
				<path class="st5" d="M252.4,298.4c-10.5,2-19.8,3.5-27.9,4.5v-27.3c8-0.5,16.1-0.8,24.4-0.8c11.1,0,21.7,0.5,31.5,1.2v26.9
					C272.2,301.9,262.9,300.5,252.4,298.4z"/>
			</g>
		</g>
		<g>
			<g>
				<path class="st10" d="M349.4,271.8c6.6-24.4,19.9-81.1,4.9-97c-6.3-6.7-78.1-24.6-107.6-24.6c-46.9,0-91.5,19.3-96,24.1
					c-14.5,15.8-3.7,67,3.2,93.6C88.2,82,252.4,82,252.4,82S418.8,82,349.4,271.8z"/>
			</g>
		</g>
		<g>
			<g>
				<path class="st5" d="M218.1,276.1v27.5c-35.3,3.6-47.5-2.1-50.9-4.3c-0.8-4.5-1.5-9.4-2.1-14.4
					C181.8,280.6,199.5,277.7,218.1,276.1z"/>
			</g>
		</g>
		<g>
			<g>
				<path class="st5" d="M248.6,248.5c-31.8,0-61.8,3.5-89.3,10.2c-5.5-19.8-14.8-65.2-3.3-80.5c2.8-3.8,41.5-21.6,90.9-21.6
					c28.9,0,98.2,16.3,102.4,22c5.3,7.1,11.6,27-4.3,80.2C334.3,256.4,296.2,248.5,248.6,248.5z"/>
			</g>
		</g>
		<g>
			<g>
				<path class="st6" d="M248.8,316.6c-28.2,0-54.7,3.6-78.8,10.8l-3.2,0.9l-0.8-3.2c-0.3-1.3-5.1-20.2-7.4-40.8c0,0-2-6.5-4.6-16.3
					c3.4,9.6,7.4,19.8,12.1,30.4c0,0,0.3,0.3,1.1,0.9c1.6,9.2,3.2,16.9,4.2,21c14.8-4.2,30.4-7,46.7-8.6v-8.1c2-0.2,4.2-0.4,6.4-0.7
					v8.3c8-0.6,16.1-1,24.4-1c11.2,0,21.8,0.6,31.5,1.5v-8.8c2.2,0.3,4.3,0.5,6.4,0.7v8.7c22.4,2.5,39,6.3,45.7,8.1
					c1.9-7.4,3.5-14.4,4.8-20.8c1.1-0.6,1.5-1.1,1.5-1.1c4.1-9.3,7.7-18.1,10.8-26.6c-1.5,5.6-2.7,9.5-3.1,10.9
					c-1.5,12.3-4.3,26.4-8.6,42.5l-0.8,3.2l-3.2-0.9C333.4,327.3,296.8,316.6,248.8,316.6z"/>
			</g>
		</g>
		<g>
			<g>
				<path class="st5" d="M218.1,256.1v13.6c-18.9,1.5-37,4.5-54.1,8.9c-0.2-0.4-0.5-0.9-0.7-1.3c-0.9-3.5-1.8-7.6-2.8-12.2
					C178.6,260.6,197.9,257.6,218.1,256.1z"/>
			</g>
		</g>
	</g>
</g>
<g id="XMLID_6_">
	<g>
		<g>
			<g>
				<path class="st5" d="M280.3,563.3v13.6c-9.8-0.7-20.3-1.2-31.5-1.2c-8.3,0-16.4,0.3-24.4,0.8v-13.6c7.9-0.4,15.9-0.7,24.1-0.7
					C259.8,562.2,270.4,562.6,280.3,563.3z"/>
			</g>
		</g>
		<g>
			<g>
				<path class="st6" d="M159.3,566c27.5-6.8,57.5-10.2,89.3-10.2c47.6,0,85.7,7.9,96.4,10.3c15.9-53.2,9.5-73.1,4.3-80.2
					c-4.2-5.7-73.5-22-102.4-22c-49.4,0-88,17.8-90.9,21.6C144.5,500.8,153.8,546.3,159.3,566z M218.1,577v-13.6
					c-20.2,1.5-39.5,4.5-57.6,9c1,4.6,1.9,8.7,2.8,12.2c0.2,0.4,0.5,0.9,0.7,1.3C181.1,581.5,199.2,578.5,218.1,577z M344.4,572.5
					c-6.3-1.5-27.9-6.2-57.7-8.7v13.6c26.8,2.5,46.8,6.8,54.1,8.5C342.2,581.2,343.4,576.7,344.4,572.5z M354.4,482.1
					c15,15.9,1.7,72.6-4.9,97c-3.1,8.5-6.7,17.4-10.8,26.6c0,0-0.4,0.4-1.5,1.1c1-5.1,1.8-10,2.4-14.5c-6.8-1.6-26.4-5.9-52.9-8.4
					v27c-2-0.2-4.2-0.4-6.4-0.7v-26.9c-9.8-0.7-20.3-1.2-31.5-1.2c-8.3,0-16.4,0.3-24.4,0.8v27.3c-2.2,0.3-4.3,0.5-6.4,0.7v-27.5
					c-18.5,1.5-36.2,4.5-52.9,8.8c0.6,5,1.3,9.9,2.1,14.4c-0.8-0.5-1.1-0.9-1.1-0.9c-4.7-10.7-8.7-20.8-12.1-30.4
					c-6.9-26.6-17.7-77.9-3.2-93.6c4.5-4.9,49.1-24.1,96-24.1C276.3,457.5,348,475.3,354.4,482.1z M280.3,563.3
					c-9.9-0.7-20.5-1.1-31.8-1.1c-8.2,0-16.2,0.3-24.1,0.7v13.6c8-0.5,16.1-0.8,24.4-0.8c11.1,0,21.7,0.5,31.5,1.2V563.3z"/>
			</g>
		</g>
		<g>
			<g>
				<path class="st5" d="M286.7,563.8c29.8,2.5,51.4,7.2,57.7,8.7c-1,4.2-2.2,8.7-3.6,13.5c-7.3-1.7-27.3-6-54.1-8.5V563.8z"/>
			</g>
		</g>
		<g>
			<g>
				<path class="st5" d="M286.7,583.9c26.6,2.4,46.1,6.7,52.9,8.4c-0.6,4.6-1.4,9.4-2.4,14.5c-3.9,2.4-16.6,7.5-50.5,4.1V583.9z"/>
			</g>
		</g>
		<g>
			<g>
				<path class="st5" d="M252.4,605.7c-10.5,2-19.8,3.5-27.9,4.5v-27.3c8-0.5,16.1-0.8,24.4-0.8c11.1,0,21.7,0.5,31.5,1.2v26.9
					C272.2,609.2,262.9,607.8,252.4,605.7z"/>
			</g>
		</g>
		<g>
			<g>
				<path class="st10" d="M349.4,579.1c6.6-24.4,19.9-81.1,4.9-97c-6.3-6.7-78.1-24.6-107.6-24.6c-46.9,0-91.5,19.3-96,24.1
					c-14.5,15.8-3.7,67,3.2,93.6c-65.8-186.1,98.4-186.1,98.4-186.1S418.8,389.2,349.4,579.1z"/>
			</g>
		</g>
		<g>
			<g>
				<path class="st5" d="M218.1,583.4v27.5c-35.3,3.6-47.5-2.1-50.9-4.3c-0.8-4.5-1.5-9.4-2.1-14.4
					C181.8,587.9,199.5,584.9,218.1,583.4z"/>
			</g>
		</g>
		<g>
			<g>
				<path class="st5" d="M248.6,555.8c-31.8,0-61.8,3.5-89.3,10.2c-5.5-19.8-14.8-65.2-3.3-80.5c2.8-3.8,41.5-21.6,90.9-21.6
					c28.9,0,98.2,16.3,102.4,22c5.3,7.1,11.6,27-4.3,80.2C334.3,563.7,296.2,555.8,248.6,555.8z"/>
			</g>
		</g>
		<g>
			<g>
				<path class="st6" d="M248.8,623.9c-28.2,0-54.7,3.6-78.8,10.8l-3.2,0.9l-0.8-3.2c-0.3-1.3-5.1-20.2-7.4-40.8c0,0-2-6.5-4.6-16.3
					c3.4,9.6,7.4,19.8,12.1,30.4c0,0,0.3,0.3,1.1,0.9c1.6,9.2,3.2,16.9,4.2,21c14.8-4.2,30.4-7,46.7-8.6v-8.1c2-0.2,4.2-0.4,6.4-0.7
					v8.3c8-0.6,16.1-1,24.4-1c11.2,0,21.8,0.6,31.5,1.5v-8.8c2.2,0.3,4.3,0.5,6.4,0.7v8.7c22.4,2.5,39,6.3,45.7,8.1
					c1.9-7.4,3.5-14.4,4.8-20.8c1.1-0.6,1.5-1.1,1.5-1.1c4.1-9.3,7.7-18.1,10.8-26.6c-1.5,5.6-2.7,9.5-3.1,10.9
					c-1.5,12.3-4.3,26.4-8.6,42.5l-0.8,3.2l-3.2-0.9C333.4,634.5,296.8,623.9,248.8,623.9z"/>
			</g>
		</g>
		<g>
			<g>
				<path class="st5" d="M218.1,563.4V577c-18.9,1.5-37,4.5-54.1,8.9c-0.2-0.4-0.5-0.9-0.7-1.3c-0.9-3.5-1.8-7.6-2.8-12.2
					C178.6,567.8,197.9,564.9,218.1,563.4z"/>
			</g>
		</g>
	</g>
</g>
<g id="XMLID_7_">
	<g>
		<g>
			<g>
				<path class="st5" d="M280.3,870.6v13.6c-9.8-0.7-20.3-1.2-31.5-1.2c-8.3,0-16.4,0.3-24.4,0.8v-13.6c7.9-0.4,15.9-0.7,24.1-0.7
					C259.8,869.4,270.4,869.9,280.3,870.6z"/>
			</g>
		</g>
		<g>
			<g>
				<path class="st6" d="M159.3,873.3c27.5-6.8,57.5-10.2,89.3-10.2c47.6,0,85.7,7.9,96.4,10.3c15.9-53.2,9.5-73.1,4.3-80.2
					c-4.2-5.7-73.5-22-102.4-22c-49.4,0-88,17.8-90.9,21.6C144.5,808.1,153.8,853.5,159.3,873.3z M218.1,884.2v-13.6
					c-20.2,1.5-39.5,4.5-57.6,9c1,4.6,1.9,8.7,2.8,12.2c0.2,0.4,0.5,0.9,0.7,1.3C181.1,888.7,199.2,885.8,218.1,884.2z M344.4,879.8
					c-6.3-1.5-27.9-6.2-57.7-8.7v13.6c26.8,2.5,46.8,6.8,54.1,8.5C342.2,888.5,343.4,884,344.4,879.8z M354.4,789.3
					c15,15.9,1.7,72.6-4.9,97c-3.1,8.5-6.7,17.4-10.8,26.6c0,0-0.4,0.4-1.5,1.1c1-5.1,1.8-10,2.4-14.5c-6.8-1.6-26.4-5.9-52.9-8.4
					v27c-2-0.2-4.2-0.4-6.4-0.7v-26.9c-9.8-0.7-20.3-1.2-31.5-1.2c-8.3,0-16.4,0.3-24.4,0.8v27.3c-2.2,0.3-4.3,0.5-6.4,0.7v-27.5
					c-18.5,1.5-36.2,4.5-52.9,8.8c0.6,5,1.3,9.9,2.1,14.4c-0.8-0.5-1.1-0.9-1.1-0.9c-4.7-10.7-8.7-20.8-12.1-30.4
					c-6.9-26.6-17.7-77.9-3.2-93.6c4.5-4.9,49.1-24.1,96-24.1C276.3,764.8,348,782.6,354.4,789.3z M280.3,870.6
					c-9.9-0.7-20.5-1.1-31.8-1.1c-8.2,0-16.2,0.3-24.1,0.7v13.6c8-0.5,16.1-0.8,24.4-0.8c11.1,0,21.7,0.5,31.5,1.2V870.6z"/>
			</g>
		</g>
		<g>
			<g>
				<path class="st5" d="M286.7,871.1c29.8,2.5,51.4,7.2,57.7,8.7c-1,4.2-2.2,8.7-3.6,13.5c-7.3-1.7-27.3-6-54.1-8.5V871.1z"/>
			</g>
		</g>
		<g>
			<g>
				<path class="st5" d="M286.7,891.1c26.6,2.4,46.1,6.7,52.9,8.4c-0.6,4.6-1.4,9.4-2.4,14.5c-3.9,2.4-16.6,7.5-50.5,4.1V891.1z"/>
			</g>
		</g>
		<g>
			<g>
				<path class="st5" d="M252.4,913c-10.5,2-19.8,3.5-27.9,4.5v-27.3c8-0.5,16.1-0.8,24.4-0.8c11.1,0,21.7,0.5,31.5,1.2v26.9
					C272.2,916.5,262.9,915,252.4,913z"/>
			</g>
		</g>
		<g>
			<g>
				<path class="st10" d="M349.4,886.3c6.6-24.4,19.9-81.1,4.9-97c-6.3-6.7-78.1-24.6-107.6-24.6c-46.9,0-91.5,19.3-96,24.1
					c-14.5,15.8-3.7,67,3.2,93.6c-65.8-186.1,98.4-186.1,98.4-186.1S418.8,696.5,349.4,886.3z"/>
			</g>
		</g>
		<g>
			<g>
				<path class="st5" d="M218.1,890.7v27.5c-35.3,3.6-47.5-2.1-50.9-4.3c-0.8-4.5-1.5-9.4-2.1-14.4
					C181.8,895.1,199.5,892.2,218.1,890.7z"/>
			</g>
		</g>
		<g>
			<g>
				<path class="st5" d="M248.6,863.1c-31.8,0-61.8,3.5-89.3,10.2c-5.5-19.8-14.8-65.2-3.3-80.5c2.8-3.8,41.5-21.6,90.9-21.6
					c28.9,0,98.2,16.3,102.4,22c5.3,7.1,11.6,27-4.3,80.2C334.3,870.9,296.2,863.1,248.6,863.1z"/>
			</g>
		</g>
		<g>
			<g>
				<path class="st6" d="M248.8,931.1c-28.2,0-54.7,3.6-78.8,10.8l-3.2,0.9l-0.8-3.2c-0.3-1.3-5.1-20.2-7.4-40.8c0,0-2-6.5-4.6-16.3
					c3.4,9.6,7.4,19.8,12.1,30.4c0,0,0.3,0.3,1.1,0.9c1.6,9.2,3.2,16.9,4.2,21c14.8-4.2,30.4-7,46.7-8.6v-8.1c2-0.2,4.2-0.4,6.4-0.7
					v8.3c8-0.6,16.1-1,24.4-1c11.2,0,21.8,0.6,31.5,1.5v-8.8c2.2,0.3,4.3,0.5,6.4,0.7v8.7c22.4,2.5,39,6.3,45.7,8.1
					c1.9-7.4,3.5-14.4,4.8-20.8c1.1-0.6,1.5-1.1,1.5-1.1c4.1-9.3,7.7-18.1,10.8-26.6c-1.5,5.6-2.7,9.5-3.1,10.9
					c-1.5,12.3-4.3,26.4-8.6,42.5l-0.8,3.2l-3.2-0.9C333.4,941.8,296.8,931.1,248.8,931.1z"/>
			</g>
		</g>
		<g>
			<g>
				<path class="st5" d="M218.1,870.6v13.6c-18.9,1.5-37,4.5-54.1,8.9c-0.2-0.4-0.5-0.9-0.7-1.3c-0.9-3.5-1.8-7.6-2.8-12.2
					C178.6,875.1,197.9,872.1,218.1,870.6z"/>
			</g>
		</g>
	</g>
</g>
<g id="XMLID_8_">
	<g>
		<g>
			<g>
				<path class="st5" d="M280.3,1177.9v13.6c-9.8-0.7-20.3-1.2-31.5-1.2c-8.3,0-16.4,0.3-24.4,0.8v-13.6c7.9-0.4,15.9-0.7,24.1-0.7
					C259.8,1176.7,270.4,1177.2,280.3,1177.9z"/>
			</g>
		</g>
		<g>
			<g>
				<path class="st6" d="M159.3,1180.5c27.5-6.8,57.5-10.2,89.3-10.2c47.6,0,85.7,7.9,96.4,10.3c15.9-53.2,9.5-73.1,4.3-80.2
					c-4.2-5.7-73.5-22-102.4-22c-49.4,0-88,17.8-90.9,21.6C144.5,1115.3,153.8,1160.8,159.3,1180.5z M218.1,1191.5v-13.6
					c-20.2,1.5-39.5,4.5-57.6,9c1,4.6,1.9,8.7,2.8,12.2c0.2,0.4,0.5,0.9,0.7,1.3C181.1,1196,199.2,1193,218.1,1191.5z M344.4,1187
					c-6.3-1.5-27.9-6.2-57.7-8.7v13.6c26.8,2.5,46.8,6.8,54.1,8.5C342.2,1195.7,343.4,1191.3,344.4,1187z M354.4,1096.6
					c15,15.9,1.7,72.6-4.9,97c-3.1,8.5-6.7,17.4-10.8,26.6c0,0-0.4,0.4-1.5,1.1c1-5.1,1.8-10,2.4-14.5c-6.8-1.6-26.4-5.9-52.9-8.4
					v27c-2-0.2-4.2-0.4-6.4-0.7v-26.9c-9.8-0.7-20.3-1.2-31.5-1.2c-8.3,0-16.4,0.3-24.4,0.8v27.3c-2.2,0.3-4.3,0.5-6.4,0.7v-27.5
					c-18.5,1.5-36.2,4.5-52.9,8.8c0.6,5,1.3,9.9,2.1,14.4c-0.8-0.5-1.1-0.9-1.1-0.9c-4.7-10.7-8.7-20.8-12.1-30.4
					c-6.9-26.6-17.7-77.9-3.2-93.6c4.5-4.9,49.1-24.1,96-24.1C276.3,1072,348,1089.9,354.4,1096.6z M280.3,1177.9
					c-9.9-0.7-20.5-1.2-31.8-1.2c-8.2,0-16.2,0.3-24.1,0.7v13.6c8-0.5,16.1-0.8,24.4-0.8c11.1,0,21.7,0.5,31.5,1.2V1177.9z"/>
			</g>
		</g>
		<g>
			<g>
				<path class="st5" d="M286.7,1178.4c29.8,2.5,51.4,7.2,57.7,8.7c-1,4.2-2.2,8.7-3.6,13.5c-7.3-1.7-27.3-6-54.1-8.5V1178.4z"/>
			</g>
		</g>
		<g>
			<g>
				<path class="st5" d="M286.7,1198.4c26.6,2.4,46.1,6.7,52.9,8.4c-0.6,4.6-1.4,9.4-2.4,14.5c-3.9,2.4-16.6,7.5-50.5,4.1V1198.4z"
					/>
			</g>
		</g>
		<g>
			<g>
				<path class="st5" d="M252.4,1220.2c-10.5,2-19.8,3.5-27.9,4.5v-27.3c8-0.5,16.1-0.8,24.4-0.8c11.1,0,21.7,0.5,31.5,1.2v26.9
					C272.2,1223.7,262.9,1222.3,252.4,1220.2z"/>
			</g>
		</g>
		<g>
			<g>
				<path class="st10" d="M349.4,1193.6c6.6-24.4,19.9-81.1,4.9-97c-6.3-6.7-78.1-24.6-107.6-24.6c-46.9,0-91.5,19.3-96,24.1
					c-14.5,15.8-3.7,67,3.2,93.6c-65.8-186.1,98.4-186.1,98.4-186.1S418.8,1003.7,349.4,1193.6z"/>
			</g>
		</g>
		<g>
			<g>
				<path class="st5" d="M218.1,1197.9v27.5c-35.3,3.6-47.5-2.1-50.9-4.3c-0.8-4.5-1.5-9.4-2.1-14.4
					C181.8,1202.4,199.5,1199.5,218.1,1197.9z"/>
			</g>
		</g>
		<g>
			<g>
				<path class="st5" d="M248.6,1170.3c-31.8,0-61.8,3.5-89.3,10.2c-5.5-19.8-14.8-65.2-3.3-80.5c2.8-3.8,41.5-21.6,90.9-21.6
					c28.9,0,98.2,16.3,102.4,22c5.3,7.1,11.6,27-4.3,80.2C334.3,1178.2,296.2,1170.3,248.6,1170.3z"/>
			</g>
		</g>
		<g>
			<g>
				<path class="st6" d="M248.8,1238.4c-28.2,0-54.7,3.6-78.8,10.8l-3.2,0.9l-0.8-3.2c-0.3-1.3-5.1-20.2-7.4-40.8
					c0,0-2-6.5-4.6-16.3c3.4,9.6,7.4,19.8,12.1,30.4c0,0,0.3,0.3,1.1,0.9c1.6,9.2,3.2,16.9,4.2,21c14.8-4.2,30.4-7,46.7-8.6v-8.1
					c2-0.2,4.2-0.4,6.4-0.7v8.3c8-0.6,16.1-1,24.4-1c11.2,0,21.8,0.6,31.5,1.5v-8.8c2.2,0.3,4.3,0.5,6.4,0.7v8.7
					c22.4,2.5,39,6.3,45.7,8.1c1.9-7.4,3.5-14.4,4.8-20.8c1.1-0.6,1.5-1.1,1.5-1.1c4.1-9.3,7.7-18.1,10.8-26.6
					c-1.5,5.6-2.7,9.5-3.1,10.9c-1.5,12.3-4.3,26.4-8.6,42.5l-0.8,3.2l-3.2-0.9C333.4,1249,296.8,1238.4,248.8,1238.4z"/>
			</g>
		</g>
		<g>
			<g>
				<path class="st5" d="M218.1,1177.9v13.6c-18.9,1.5-37,4.5-54.1,8.9c-0.2-0.4-0.5-0.9-0.7-1.3c-0.9-3.5-1.8-7.6-2.8-12.2
					C178.6,1182.4,197.9,1179.4,218.1,1177.9z"/>
			</g>
		</g>
	</g>
</g>
<g id="XMLID_9_">
	<g>
		<g>
			<g>
				<path class="st5" d="M280.3,1485.1v13.6c-9.8-0.7-20.3-1.2-31.5-1.2c-8.3,0-16.4,0.3-24.4,0.8v-13.6c7.9-0.4,15.9-0.7,24.1-0.7
					C259.8,1484,270.4,1484.4,280.3,1485.1z"/>
			</g>
		</g>
		<g>
			<g>
				<path class="st6" d="M159.3,1487.8c27.5-6.8,57.5-10.2,89.3-10.2c47.6,0,85.7,7.9,96.4,10.3c15.9-53.2,9.5-73.1,4.3-80.2
					c-4.2-5.7-73.5-22-102.4-22c-49.4,0-88,17.8-90.9,21.6C144.5,1422.6,153.8,1468,159.3,1487.8z M218.1,1498.8v-13.6
					c-20.2,1.5-39.5,4.5-57.6,9c1,4.6,1.9,8.7,2.8,12.2c0.2,0.4,0.5,0.9,0.7,1.3C181.1,1503.2,199.2,1500.3,218.1,1498.8z
					 M344.4,1494.3c-6.3-1.5-27.9-6.2-57.7-8.7v13.6c26.8,2.5,46.8,6.8,54.1,8.5C342.2,1503,343.4,1498.5,344.4,1494.3z
					 M354.4,1403.8c15,15.9,1.7,72.6-4.9,97c-3.1,8.5-6.7,17.4-10.8,26.6c0,0-0.4,0.4-1.5,1.1c1-5.1,1.8-10,2.4-14.5
					c-6.8-1.6-26.4-5.9-52.9-8.4v27c-2-0.2-4.2-0.4-6.4-0.7v-26.9c-9.8-0.7-20.3-1.2-31.5-1.2c-8.3,0-16.4,0.3-24.4,0.8v27.3
					c-2.2,0.3-4.3,0.5-6.4,0.7v-27.5c-18.5,1.5-36.2,4.5-52.9,8.8c0.6,5,1.3,9.9,2.1,14.4c-0.8-0.5-1.1-0.9-1.1-0.9
					c-4.7-10.7-8.7-20.8-12.1-30.4c-6.9-26.6-17.7-77.9-3.2-93.6c4.5-4.9,49.1-24.1,96-24.1C276.3,1379.3,348,1397.1,354.4,1403.8z
					 M280.3,1485.1c-9.9-0.7-20.5-1.1-31.8-1.1c-8.2,0-16.2,0.3-24.1,0.7v13.6c8-0.5,16.1-0.8,24.4-0.8c11.1,0,21.7,0.5,31.5,1.2
					V1485.1z"/>
			</g>
		</g>
		<g>
			<g>
				<path class="st5" d="M286.7,1485.6c29.8,2.5,51.4,7.2,57.7,8.7c-1,4.2-2.2,8.7-3.6,13.5c-7.3-1.7-27.3-6-54.1-8.5V1485.6z"/>
			</g>
		</g>
		<g>
			<g>
				<path class="st5" d="M286.7,1505.7c26.6,2.4,46.1,6.7,52.9,8.4c-0.6,4.6-1.4,9.4-2.4,14.5c-3.9,2.4-16.6,7.5-50.5,4.1V1505.7z"
					/>
			</g>
		</g>
		<g>
			<g>
				<path class="st5" d="M252.4,1527.5c-10.5,2-19.8,3.5-27.9,4.5v-27.3c8-0.5,16.1-0.8,24.4-0.8c11.1,0,21.7,0.5,31.5,1.2v26.9
					C272.2,1531,262.9,1529.5,252.4,1527.5z"/>
			</g>
		</g>
		<g>
			<g>
				<path class="st10" d="M349.4,1500.9c6.6-24.4,19.9-81.1,4.9-97c-6.3-6.7-78.1-24.6-107.6-24.6c-46.9,0-91.5,19.3-96,24.1
					c-14.5,15.8-3.7,67,3.2,93.6C88.2,1311,252.4,1311,252.4,1311S418.8,1311,349.4,1500.9z"/>
			</g>
		</g>
		<g>
			<g>
				<path class="st5" d="M218.1,1505.2v27.5c-35.3,3.6-47.5-2.1-50.9-4.3c-0.8-4.5-1.5-9.4-2.1-14.4
					C181.8,1509.7,199.5,1506.7,218.1,1505.2z"/>
			</g>
		</g>
		<g>
			<g>
				<path class="st5" d="M248.6,1477.6c-31.8,0-61.8,3.4-89.3,10.2c-5.5-19.8-14.8-65.2-3.3-80.5c2.8-3.8,41.5-21.6,90.9-21.6
					c28.9,0,98.2,16.3,102.4,22c5.3,7.1,11.6,27-4.3,80.2C334.3,1485.4,296.2,1477.6,248.6,1477.6z"/>
			</g>
		</g>
		<g>
			<g>
				<path class="st6" d="M248.8,1545.7c-28.2,0-54.7,3.6-78.8,10.8l-3.2,0.9l-0.8-3.2c-0.3-1.3-5.1-20.2-7.4-40.8
					c0,0-2-6.5-4.6-16.3c3.4,9.6,7.4,19.8,12.1,30.4c0,0,0.3,0.3,1.1,0.9c1.6,9.2,3.2,16.9,4.2,21c14.8-4.2,30.4-7,46.7-8.6v-8.1
					c2-0.2,4.2-0.4,6.4-0.7v8.3c8-0.6,16.1-1,24.4-1c11.2,0,21.8,0.6,31.5,1.5v-8.8c2.2,0.3,4.3,0.5,6.4,0.7v8.7
					c22.4,2.5,39,6.3,45.7,8.1c1.9-7.4,3.5-14.4,4.8-20.8c1.1-0.6,1.5-1.1,1.5-1.1c4.1-9.3,7.7-18.1,10.8-26.6
					c-1.5,5.6-2.7,9.5-3.1,10.9c-1.5,12.3-4.3,26.4-8.6,42.5l-0.8,3.2l-3.2-0.9C333.4,1556.3,296.8,1545.7,248.8,1545.7z"/>
			</g>
		</g>
		<g>
			<g>
				<path class="st5" d="M218.1,1485.1v13.6c-18.9,1.5-37,4.5-54.1,8.9c-0.2-0.4-0.5-0.9-0.7-1.3c-0.9-3.5-1.8-7.6-2.8-12.2
					C178.6,1489.6,197.9,1486.7,218.1,1485.1z"/>
			</g>
		</g>
	</g>
</g>
<g id="XMLID_10_">
	<g>
		<g>
			<g>
				<path class="st5" d="M280.3,1792.4v13.6c-9.8-0.7-20.3-1.2-31.5-1.2c-8.3,0-16.4,0.3-24.4,0.8v-13.6c7.9-0.4,15.9-0.7,24.1-0.7
					C259.8,1791.2,270.4,1791.7,280.3,1792.4z"/>
			</g>
		</g>
		<g>
			<g>
				<path class="st6" d="M159.3,1795.1c27.5-6.8,57.5-10.2,89.3-10.2c47.6,0,85.7,7.9,96.4,10.3c15.9-53.2,9.5-73.1,4.3-80.2
					c-4.2-5.7-73.5-22-102.4-22c-49.4,0-88,17.8-90.9,21.6C144.5,1729.8,153.8,1775.3,159.3,1795.1z M218.1,1806v-13.6
					c-20.2,1.5-39.5,4.5-57.6,9c1,4.6,1.9,8.7,2.8,12.2c0.2,0.4,0.5,0.9,0.7,1.3C181.1,1810.5,199.2,1807.6,218.1,1806z
					 M344.4,1801.6c-6.3-1.5-27.9-6.2-57.7-8.7v13.6c26.8,2.5,46.8,6.8,54.1,8.5C342.2,1810.3,343.4,1805.8,344.4,1801.6z
					 M354.4,1711.1c15,15.9,1.7,72.6-4.9,97c-3.1,8.5-6.7,17.4-10.8,26.6c0,0-0.4,0.4-1.5,1.1c1-5.1,1.8-10,2.4-14.5
					c-6.8-1.6-26.4-5.9-52.9-8.4v27c-2-0.2-4.2-0.4-6.4-0.7v-26.9c-9.8-0.7-20.3-1.2-31.5-1.2c-8.3,0-16.4,0.3-24.4,0.8v27.3
					c-2.2,0.3-4.3,0.5-6.4,0.7v-27.5c-18.5,1.5-36.2,4.5-52.9,8.8c0.6,5,1.3,9.9,2.1,14.4c-0.8-0.5-1.1-0.9-1.1-0.9
					c-4.7-10.7-8.7-20.8-12.1-30.4c-6.9-26.6-17.7-77.9-3.2-93.6c4.5-4.9,49.1-24.1,96-24.1C276.3,1686.6,348,1704.4,354.4,1711.1z
					 M280.3,1792.4c-9.9-0.7-20.5-1.1-31.8-1.1c-8.2,0-16.2,0.3-24.1,0.7v13.6c8-0.5,16.1-0.8,24.4-0.8c11.1,0,21.7,0.5,31.5,1.2
					V1792.4z"/>
			</g>
		</g>
		<g>
			<g>
				<path class="st5" d="M286.7,1792.9c29.8,2.5,51.4,7.2,57.7,8.7c-1,4.2-2.2,8.7-3.6,13.5c-7.3-1.7-27.3-6-54.1-8.5V1792.9z"/>
			</g>
		</g>
		<g>
			<g>
				<path class="st5" d="M286.7,1812.9c26.6,2.4,46.1,6.7,52.9,8.4c-0.6,4.6-1.4,9.4-2.4,14.5c-3.9,2.4-16.6,7.5-50.5,4.1V1812.9z"
					/>
			</g>
		</g>
		<g>
			<g>
				<path class="st5" d="M252.4,1834.8c-10.5,2-19.8,3.5-27.9,4.5V1812c8-0.5,16.1-0.8,24.4-0.8c11.1,0,21.7,0.5,31.5,1.2v26.9
					C272.2,1838.3,262.9,1836.8,252.4,1834.8z"/>
			</g>
		</g>
		<g>
			<g>
				<path class="st10" d="M349.4,1808.1c6.6-24.4,19.9-81.1,4.9-97c-6.3-6.7-78.1-24.6-107.6-24.6c-46.9,0-91.5,19.3-96,24.1
					c-14.5,15.8-3.7,67,3.2,93.6c-65.8-186.1,98.4-186.1,98.4-186.1S418.8,1618.3,349.4,1808.1z"/>
			</g>
		</g>
		<g>
			<g>
				<path class="st5" d="M218.1,1812.4v27.5c-35.3,3.6-47.5-2.1-50.9-4.3c-0.8-4.5-1.5-9.4-2.1-14.4
					C181.8,1816.9,199.5,1814,218.1,1812.4z"/>
			</g>
		</g>
		<g>
			<g>
				<path class="st5" d="M248.6,1784.8c-31.8,0-61.8,3.4-89.3,10.2c-5.5-19.8-14.8-65.2-3.3-80.5c2.8-3.8,41.5-21.6,90.9-21.6
					c28.9,0,98.2,16.3,102.4,22c5.3,7.1,11.6,27-4.3,80.2C334.3,1792.7,296.2,1784.8,248.6,1784.8z"/>
			</g>
		</g>
		<g>
			<g>
				<path class="st6" d="M248.8,1852.9c-28.2,0-54.7,3.6-78.8,10.8l-3.2,0.9l-0.8-3.2c-0.3-1.3-5.1-20.2-7.4-40.8
					c0,0-2-6.5-4.6-16.3c3.4,9.6,7.4,19.8,12.1,30.4c0,0,0.3,0.3,1.1,0.9c1.6,9.2,3.2,16.9,4.2,21c14.8-4.2,30.4-7,46.7-8.6v-8.1
					c2-0.2,4.2-0.4,6.4-0.7v8.3c8-0.6,16.1-1,24.4-1c11.2,0,21.8,0.6,31.5,1.5v-8.8c2.2,0.3,4.3,0.5,6.4,0.7v8.7
					c22.4,2.5,39,6.3,45.7,8.1c1.9-7.4,3.5-14.4,4.8-20.8c1.1-0.6,1.5-1.1,1.5-1.1c4.1-9.3,7.7-18.1,10.8-26.6
					c-1.5,5.6-2.7,9.5-3.1,10.9c-1.5,12.3-4.3,26.4-8.6,42.5l-0.8,3.2l-3.2-0.9C333.4,1863.6,296.8,1852.9,248.8,1852.9z"/>
			</g>
		</g>
		<g>
			<g>
				<path class="st5" d="M218.1,1792.4v13.6c-18.9,1.5-37,4.5-54.1,8.9c-0.2-0.4-0.5-0.9-0.7-1.3c-0.9-3.5-1.8-7.6-2.8-12.2
					C178.6,1796.9,197.9,1793.9,218.1,1792.4z"/>
			</g>
		</g>
	</g>
</g>
<g id="XMLID_11_">
	<g>
		<g>
			<g>
				<path class="st5" d="M280.3,2099.6v13.6c-9.8-0.7-20.3-1.2-31.5-1.2c-8.3,0-16.4,0.3-24.4,0.8v-13.6c7.9-0.4,15.9-0.7,24.1-0.7
					C259.8,2098.5,270.4,2098.9,280.3,2099.6z"/>
			</g>
		</g>
		<g>
			<g>
				<path class="st6" d="M159.3,2102.3c27.5-6.8,57.5-10.2,89.3-10.2c47.6,0,85.7,7.9,96.4,10.3c15.9-53.2,9.5-73.1,4.3-80.2
					c-4.2-5.7-73.5-22-102.4-22c-49.4,0-88,17.8-90.9,21.6C144.5,2037.1,153.8,2082.6,159.3,2102.3z M218.1,2113.3v-13.6
					c-20.2,1.5-39.5,4.5-57.6,9c1,4.6,1.9,8.7,2.8,12.2c0.2,0.4,0.5,0.9,0.7,1.3C181.1,2117.8,199.2,2114.8,218.1,2113.3z
					 M344.4,2108.8c-6.3-1.5-27.9-6.2-57.7-8.7v13.6c26.8,2.5,46.8,6.8,54.1,8.5C342.2,2117.5,343.4,2113.1,344.4,2108.8z
					 M354.4,2018.4c15,15.9,1.7,72.6-4.9,97c-3.1,8.5-6.7,17.4-10.8,26.6c0,0-0.4,0.4-1.5,1.1c1-5.1,1.8-10,2.4-14.5
					c-6.8-1.6-26.4-5.9-52.9-8.4v27c-2-0.2-4.2-0.4-6.4-0.7v-26.9c-9.8-0.7-20.3-1.2-31.5-1.2c-8.3,0-16.4,0.3-24.4,0.8v27.3
					c-2.2,0.3-4.3,0.5-6.4,0.7v-27.5c-18.5,1.5-36.2,4.5-52.9,8.8c0.6,5,1.3,9.9,2.1,14.4c-0.8-0.5-1.1-0.9-1.1-0.9
					c-4.7-10.7-8.7-20.8-12.1-30.4c-6.9-26.6-17.7-77.9-3.2-93.6c4.5-4.9,49.1-24.1,96-24.1C276.3,1993.8,348,2011.7,354.4,2018.4z
					 M280.3,2099.6c-9.9-0.7-20.5-1.1-31.8-1.1c-8.2,0-16.2,0.3-24.1,0.7v13.6c8-0.5,16.1-0.8,24.4-0.8c11.1,0,21.7,0.5,31.5,1.2
					V2099.6z"/>
			</g>
		</g>
		<g>
			<g>
				<path class="st5" d="M286.7,2100.1c29.8,2.5,51.4,7.2,57.7,8.7c-1,4.2-2.2,8.7-3.6,13.5c-7.3-1.7-27.3-6-54.1-8.5V2100.1z"/>
			</g>
		</g>
		<g>
			<g>
				<path class="st5" d="M286.7,2120.2c26.6,2.4,46.1,6.7,52.9,8.4c-0.6,4.6-1.4,9.4-2.4,14.5c-3.9,2.4-16.6,7.5-50.5,4.1V2120.2z"
					/>
			</g>
		</g>
		<g>
			<g>
				<path class="st5" d="M252.4,2142c-10.5,2-19.8,3.5-27.9,4.5v-27.3c8-0.5,16.1-0.8,24.4-0.8c11.1,0,21.7,0.5,31.5,1.2v26.9
					C272.2,2145.5,262.9,2144.1,252.4,2142z"/>
			</g>
		</g>
		<g>
			<g>
				<path class="st10" d="M349.4,2115.4c6.6-24.4,19.9-81.1,4.9-97c-6.3-6.7-78.1-24.6-107.6-24.6c-46.9,0-91.5,19.3-96,24.1
					c-14.5,15.8-3.7,67,3.2,93.6c-65.8-186.1,98.4-186.1,98.4-186.1S418.8,1925.5,349.4,2115.4z"/>
			</g>
		</g>
		<g>
			<g>
				<path class="st5" d="M218.1,2119.7v27.5c-35.3,3.6-47.5-2.1-50.9-4.3c-0.8-4.5-1.5-9.4-2.1-14.4
					C181.8,2124.2,199.5,2121.2,218.1,2119.7z"/>
			</g>
		</g>
		<g>
			<g>
				<path class="st5" d="M248.6,2092.1c-31.8,0-61.8,3.4-89.3,10.2c-5.5-19.8-14.8-65.2-3.3-80.5c2.8-3.8,41.5-21.6,90.9-21.6
					c28.9,0,98.2,16.3,102.4,22c5.3,7.1,11.6,27-4.3,80.2C334.3,2100,296.2,2092.1,248.6,2092.1z"/>
			</g>
		</g>
		<g>
			<g>
				<path class="st6" d="M248.8,2160.2c-28.2,0-54.7,3.6-78.8,10.8l-3.2,0.9l-0.8-3.2c-0.3-1.3-5.1-20.2-7.4-40.8
					c0,0-2-6.5-4.6-16.3c3.4,9.6,7.4,19.8,12.1,30.4c0,0,0.3,0.3,1.1,0.9c1.6,9.2,3.2,16.9,4.2,21c14.8-4.2,30.4-7,46.7-8.6v-8.1
					c2-0.2,4.2-0.4,6.4-0.7v8.3c8-0.6,16.1-1,24.4-1c11.2,0,21.8,0.6,31.5,1.5v-8.8c2.2,0.3,4.3,0.5,6.4,0.7v8.7
					c22.4,2.5,39,6.3,45.7,8.1c1.9-7.4,3.5-14.4,4.8-20.8c1.1-0.6,1.5-1.1,1.5-1.1c4.1-9.3,7.7-18.1,10.8-26.6
					c-1.5,5.6-2.7,9.5-3.1,10.9c-1.5,12.3-4.3,26.4-8.6,42.5l-0.8,3.2l-3.2-0.9C333.4,2170.8,296.8,2160.2,248.8,2160.2z"/>
			</g>
		</g>
		<g>
			<g>
				<path class="st5" d="M218.1,2099.7v13.6c-18.9,1.5-37,4.5-54.1,8.9c-0.2-0.4-0.5-0.9-0.7-1.3c-0.9-3.5-1.8-7.6-2.8-12.2
					C178.6,2104.2,197.9,2101.2,218.1,2099.7z"/>
			</g>
		</g>
	</g>
</g>
<g id="XMLID_12_">
	<g>
		<g>
			<g>
				<path class="st5" d="M280.3,2406.9v13.6c-9.8-0.7-20.3-1.2-31.5-1.2c-8.3,0-16.4,0.3-24.4,0.8v-13.6c7.9-0.4,15.9-0.7,24.1-0.7
					C259.8,2405.8,270.4,2406.2,280.3,2406.9z"/>
			</g>
		</g>
		<g>
			<g>
				<path class="st6" d="M159.3,2409.6c27.5-6.8,57.5-10.2,89.3-10.2c47.6,0,85.7,7.9,96.4,10.3c15.9-53.2,9.5-73.1,4.3-80.2
					c-4.2-5.7-73.5-22-102.4-22c-49.4,0-88,17.8-90.9,21.6C144.5,2344.4,153.8,2389.8,159.3,2409.6z M218.1,2420.6v-13.6
					c-20.2,1.5-39.5,4.5-57.6,9c1,4.6,1.9,8.7,2.8,12.2c0.2,0.4,0.5,0.9,0.7,1.3C181.1,2425,199.2,2422.1,218.1,2420.6z
					 M344.4,2416.1c-6.3-1.5-27.9-6.2-57.7-8.7v13.6c26.8,2.5,46.8,6.8,54.1,8.5C342.2,2424.8,343.4,2420.3,344.4,2416.1z
					 M354.4,2325.6c15,15.9,1.7,72.6-4.9,97c-3.1,8.5-6.7,17.4-10.8,26.6c0,0-0.4,0.4-1.5,1.1c1-5.1,1.8-10,2.4-14.5
					c-6.8-1.6-26.4-5.9-52.9-8.4v27c-2-0.2-4.2-0.4-6.4-0.7v-26.9c-9.8-0.7-20.3-1.2-31.5-1.2c-8.3,0-16.4,0.3-24.4,0.8v27.3
					c-2.2,0.3-4.3,0.5-6.4,0.7V2427c-18.5,1.5-36.2,4.5-52.9,8.8c0.6,5,1.3,9.9,2.1,14.4c-0.8-0.5-1.1-0.9-1.1-0.9
					c-4.7-10.7-8.7-20.8-12.1-30.4c-6.9-26.6-17.7-77.9-3.2-93.6c4.5-4.9,49.1-24.1,96-24.1C276.3,2301.1,348,2318.9,354.4,2325.6z
					 M280.3,2406.9c-9.9-0.7-20.5-1.1-31.8-1.1c-8.2,0-16.2,0.3-24.1,0.7v13.6c8-0.5,16.1-0.8,24.4-0.8c11.1,0,21.7,0.5,31.5,1.2
					V2406.9z"/>
			</g>
		</g>
		<g>
			<g>
				<path class="st5" d="M286.7,2407.4c29.8,2.5,51.4,7.2,57.7,8.7c-1,4.2-2.2,8.7-3.6,13.5c-7.3-1.7-27.3-6-54.1-8.5V2407.4z"/>
			</g>
		</g>
		<g>
			<g>
				<path class="st5" d="M286.7,2427.5c26.6,2.4,46.1,6.7,52.9,8.4c-0.6,4.6-1.4,9.4-2.4,14.5c-3.9,2.4-16.6,7.5-50.5,4.1V2427.5z"
					/>
			</g>
		</g>
		<g>
			<g>
				<path class="st5" d="M252.4,2449.3c-10.5,2-19.8,3.5-27.9,4.5v-27.3c8-0.5,16.1-0.8,24.4-0.8c11.1,0,21.7,0.5,31.5,1.2v26.9
					C272.2,2452.8,262.9,2451.3,252.4,2449.3z"/>
			</g>
		</g>
		<g>
			<g>
				<path class="st10" d="M349.4,2422.6c6.6-24.4,19.9-81.1,4.9-97c-6.3-6.7-78.1-24.6-107.6-24.6c-46.9,0-91.5,19.3-96,24.1
					c-14.5,15.8-3.7,67,3.2,93.6c-65.8-186.1,98.4-186.1,98.4-186.1S418.8,2232.8,349.4,2422.6z"/>
			</g>
		</g>
		<g>
			<g>
				<path class="st5" d="M218.1,2427v27.5c-35.3,3.6-47.5-2.1-50.9-4.3c-0.8-4.5-1.5-9.4-2.1-14.4
					C181.8,2431.4,199.5,2428.5,218.1,2427z"/>
			</g>
		</g>
		<g>
			<g>
				<path class="st5" d="M248.6,2399.4c-31.8,0-61.8,3.4-89.3,10.2c-5.5-19.8-14.8-65.2-3.3-80.5c2.8-3.8,41.5-21.6,90.9-21.6
					c28.9,0,98.2,16.3,102.4,22c5.3,7.1,11.6,27-4.3,80.2C334.3,2407.2,296.2,2399.4,248.6,2399.4z"/>
			</g>
		</g>
		<g>
			<g>
				<path class="st6" d="M248.8,2467.4c-28.2,0-54.7,3.6-78.8,10.8l-3.2,0.9l-0.8-3.2c-0.3-1.3-5.1-20.2-7.4-40.8
					c0,0-2-6.5-4.6-16.3c3.4,9.6,7.4,19.8,12.1,30.4c0,0,0.3,0.3,1.1,0.9c1.6,9.2,3.2,16.9,4.2,21c14.8-4.2,30.4-7,46.7-8.6v-8.1
					c2-0.2,4.2-0.4,6.4-0.7v8.3c8-0.6,16.1-1,24.4-1c11.2,0,21.8,0.6,31.5,1.5v-8.8c2.2,0.3,4.3,0.5,6.4,0.7v8.7
					c22.4,2.5,39,6.3,45.7,8.1c1.9-7.4,3.5-14.4,4.8-20.8c1.1-0.6,1.5-1.1,1.5-1.1c4.1-9.3,7.7-18.1,10.8-26.6
					c-1.5,5.6-2.7,9.5-3.1,10.9c-1.5,12.3-4.3,26.4-8.6,42.5l-0.8,3.2l-3.2-0.9C333.4,2478.1,296.8,2467.4,248.8,2467.4z"/>
			</g>
		</g>
		<g>
			<g>
				<path class="st5" d="M218.1,2406.9v13.6c-18.9,1.5-37,4.5-54.1,8.9c-0.2-0.4-0.5-0.9-0.7-1.3c-0.9-3.5-1.8-7.6-2.8-12.2
					C178.6,2411.4,197.9,2408.4,218.1,2406.9z"/>
			</g>
		</g>
	</g>
</g>
<g id="XMLID_20_">
	<g>
		<g>
			<g>
				<path class="st5" d="M1007.6,256.1v13.6c-9.8-0.7-20.3-1.2-31.5-1.2c-8.3,0-16.4,0.3-24.4,0.8v-13.6c7.9-0.4,15.9-0.7,24.1-0.7
					C987.1,254.9,997.7,255.4,1007.6,256.1z"/>
			</g>
		</g>
		<g>
			<g>
				<path class="st6" d="M886.5,258.8c27.5-6.8,57.5-10.2,89.3-10.2c47.6,0,85.7,7.9,96.4,10.3c15.9-53.2,9.5-73.1,4.3-80.2
					c-4.2-5.7-73.5-22-102.4-22c-49.4,0-88,17.8-90.9,21.6C871.8,193.5,881.1,239,886.5,258.8z M945.4,269.7v-13.6
					c-20.2,1.5-39.5,4.5-57.6,9c1,4.6,1.9,8.7,2.8,12.2c0.2,0.4,0.5,0.9,0.7,1.3C908.3,274.2,926.4,271.3,945.4,269.7z
					 M1071.7,265.3c-6.3-1.5-27.9-6.2-57.7-8.7v13.6c26.8,2.5,46.8,6.8,54.1,8.5C1069.5,274,1070.7,269.5,1071.7,265.3z
					 M1081.6,174.8c15,15.9,1.7,72.6-4.9,97c-3.1,8.5-6.7,17.4-10.8,26.6c0,0-0.4,0.4-1.5,1.1c1-5.1,1.8-10,2.4-14.5
					c-6.8-1.6-26.4-5.9-52.9-8.4v27c-2-0.2-4.2-0.4-6.4-0.7v-26.9c-9.8-0.7-20.3-1.2-31.5-1.2c-8.3,0-16.4,0.3-24.4,0.8v27.3
					c-2.2,0.3-4.3,0.5-6.4,0.7v-27.5c-18.5,1.5-36.2,4.5-52.9,8.8c0.6,5,1.3,9.9,2.1,14.4c-0.8-0.5-1.1-0.9-1.1-0.9
					c-4.7-10.7-8.7-20.8-12.1-30.4c-6.9-26.6-17.7-77.9-3.2-93.6c4.5-4.9,49.1-24.1,96-24.1C1003.6,150.2,1075.3,168.1,1081.6,174.8
					z M1007.6,256.1c-9.9-0.7-20.5-1.1-31.8-1.1c-8.2,0-16.2,0.3-24.1,0.7v13.6c8-0.5,16.1-0.8,24.4-0.8c11.1,0,21.7,0.5,31.5,1.2
					V256.1z"/>
			</g>
		</g>
		<g>
			<g>
				<path class="st5" d="M1014,256.6c29.8,2.5,51.4,7.2,57.7,8.7c-1,4.2-2.2,8.7-3.6,13.5c-7.3-1.7-27.3-6-54.1-8.5V256.6z"/>
			</g>
		</g>
		<g>
			<g>
				<path class="st5" d="M1014,276.6c26.6,2.4,46.1,6.7,52.9,8.4c-0.6,4.6-1.4,9.4-2.4,14.5c-3.9,2.4-16.6,7.5-50.5,4.1V276.6z"/>
			</g>
		</g>
		<g>
			<g>
				<path class="st5" d="M979.7,298.4c-10.5,2-19.8,3.5-27.9,4.5v-27.3c8-0.5,16.1-0.8,24.4-0.8c11.1,0,21.7,0.5,31.5,1.2v26.9
					C999.5,301.9,990.2,300.5,979.7,298.4z"/>
			</g>
		</g>
		<g>
			<g>
				<path class="st10" d="M1076.7,271.8c6.6-24.4,19.9-81.1,4.9-97c-6.3-6.7-78.1-24.6-107.6-24.6c-46.9,0-91.5,19.3-96,24.1
					c-14.5,15.8-3.7,67,3.2,93.6C815.5,82,979.7,82,979.7,82S1146.1,82,1076.7,271.8z"/>
			</g>
		</g>
		<g>
			<g>
				<path class="st5" d="M945.4,276.1v27.5c-35.3,3.6-47.5-2.1-50.9-4.3c-0.8-4.5-1.5-9.4-2.1-14.4
					C909.1,280.6,926.8,277.7,945.4,276.1z"/>
			</g>
		</g>
		<g>
			<g>
				<path class="st5" d="M975.8,248.5c-31.8,0-61.8,3.5-89.3,10.2c-5.5-19.8-14.8-65.2-3.3-80.5c2.8-3.8,41.5-21.6,90.9-21.6
					c28.9,0,98.2,16.3,102.4,22c5.3,7.1,11.6,27-4.3,80.2C1061.6,256.4,1023.5,248.5,975.8,248.5z"/>
			</g>
		</g>
		<g>
			<g>
				<path class="st6" d="M976.1,316.6c-28.2,0-54.7,3.6-78.8,10.8l-3.2,0.9l-0.8-3.2c-0.3-1.3-5.1-20.2-7.4-40.8c0,0-2-6.5-4.6-16.3
					c3.4,9.6,7.4,19.8,12.1,30.4c0,0,0.3,0.3,1.1,0.9c1.6,9.2,3.2,16.9,4.2,21c14.8-4.2,30.4-7,46.7-8.6v-8.1c2-0.2,4.2-0.4,6.4-0.7
					v8.3c8-0.6,16.1-1,24.4-1c11.2,0,21.8,0.6,31.5,1.5v-8.8c2.2,0.3,4.3,0.5,6.4,0.7v8.7c22.4,2.5,39,6.3,45.7,8.1
					c1.9-7.4,3.5-14.4,4.8-20.8c1.1-0.6,1.5-1.1,1.5-1.1c4.1-9.3,7.7-18.1,10.8-26.6c-1.5,5.6-2.7,9.5-3.1,10.9
					c-1.5,12.3-4.3,26.4-8.6,42.5l-0.8,3.2l-3.2-0.9C1060.7,327.3,1024.1,316.6,976.1,316.6z"/>
			</g>
		</g>
		<g>
			<g>
				<path class="st5" d="M945.4,256.1v13.6c-18.9,1.5-37,4.5-54.1,8.9c-0.2-0.4-0.5-0.9-0.7-1.3c-0.9-3.5-1.8-7.6-2.8-12.2
					C905.9,260.6,925.2,257.6,945.4,256.1z"/>
			</g>
		</g>
	</g>
</g>
<g id="XMLID_19_">
	<g>
		<g>
			<g>
				<path class="st5" d="M1007.6,563.3v13.6c-9.8-0.7-20.3-1.2-31.5-1.2c-8.3,0-16.4,0.3-24.4,0.8v-13.6c7.9-0.4,15.9-0.7,24.1-0.7
					C987.1,562.2,997.7,562.6,1007.6,563.3z"/>
			</g>
		</g>
		<g>
			<g>
				<path class="st6" d="M886.5,566c27.5-6.8,57.5-10.2,89.3-10.2c47.6,0,85.7,7.9,96.4,10.3c15.9-53.2,9.5-73.1,4.3-80.2
					c-4.2-5.7-73.5-22-102.4-22c-49.4,0-88,17.8-90.9,21.6C871.8,500.8,881.1,546.3,886.5,566z M945.4,577v-13.6
					c-20.2,1.5-39.5,4.5-57.6,9c1,4.6,1.9,8.7,2.8,12.2c0.2,0.4,0.5,0.9,0.7,1.3C908.3,581.5,926.4,578.5,945.4,577z M1071.7,572.5
					c-6.3-1.5-27.9-6.2-57.7-8.7v13.6c26.8,2.5,46.8,6.8,54.1,8.5C1069.5,581.2,1070.7,576.7,1071.7,572.5z M1081.6,482.1
					c15,15.9,1.7,72.6-4.9,97c-3.1,8.5-6.7,17.4-10.8,26.6c0,0-0.4,0.4-1.5,1.1c1-5.1,1.8-10,2.4-14.5c-6.8-1.6-26.4-5.9-52.9-8.4
					v27c-2-0.2-4.2-0.4-6.4-0.7v-26.9c-9.8-0.7-20.3-1.2-31.5-1.2c-8.3,0-16.4,0.3-24.4,0.8v27.3c-2.2,0.3-4.3,0.5-6.4,0.7v-27.5
					c-18.5,1.5-36.2,4.5-52.9,8.8c0.6,5,1.3,9.9,2.1,14.4c-0.8-0.5-1.1-0.9-1.1-0.9c-4.7-10.7-8.7-20.8-12.1-30.4
					c-6.9-26.6-17.7-77.9-3.2-93.6c4.5-4.9,49.1-24.1,96-24.1C1003.6,457.5,1075.3,475.3,1081.6,482.1z M1007.6,563.3
					c-9.9-0.7-20.5-1.1-31.8-1.1c-8.2,0-16.2,0.3-24.1,0.7v13.6c8-0.5,16.1-0.8,24.4-0.8c11.1,0,21.7,0.5,31.5,1.2V563.3z"/>
			</g>
		</g>
		<g>
			<g>
				<path class="st5" d="M1014,563.8c29.8,2.5,51.4,7.2,57.7,8.7c-1,4.2-2.2,8.7-3.6,13.5c-7.3-1.7-27.3-6-54.1-8.5V563.8z"/>
			</g>
		</g>
		<g>
			<g>
				<path class="st5" d="M1014,583.9c26.6,2.4,46.1,6.7,52.9,8.4c-0.6,4.6-1.4,9.4-2.4,14.5c-3.9,2.4-16.6,7.5-50.5,4.1V583.9z"/>
			</g>
		</g>
		<g>
			<g>
				<path class="st5" d="M979.7,605.7c-10.5,2-19.8,3.5-27.9,4.5v-27.3c8-0.5,16.1-0.8,24.4-0.8c11.1,0,21.7,0.5,31.5,1.2v26.9
					C999.5,609.2,990.2,607.8,979.7,605.7z"/>
			</g>
		</g>
		<g>
			<g>
				<path class="st10" d="M1076.7,579.1c6.6-24.4,19.9-81.1,4.9-97c-6.3-6.7-78.1-24.6-107.6-24.6c-46.9,0-91.5,19.3-96,24.1
					c-14.5,15.8-3.7,67,3.2,93.6c-65.8-186.1,98.4-186.1,98.4-186.1S1146.1,389.2,1076.7,579.1z"/>
			</g>
		</g>
		<g>
			<g>
				<path class="st5" d="M945.4,583.4v27.5c-35.3,3.6-47.5-2.1-50.9-4.3c-0.8-4.5-1.5-9.4-2.1-14.4
					C909.1,587.9,926.8,584.9,945.4,583.4z"/>
			</g>
		</g>
		<g>
			<g>
				<path class="st5" d="M975.8,555.8c-31.8,0-61.8,3.5-89.3,10.2c-5.5-19.8-14.8-65.2-3.3-80.5c2.8-3.8,41.5-21.6,90.9-21.6
					c28.9,0,98.2,16.3,102.4,22c5.3,7.1,11.6,27-4.3,80.2C1061.6,563.7,1023.5,555.8,975.8,555.8z"/>
			</g>
		</g>
		<g>
			<g>
				<path class="st6" d="M976.1,623.9c-28.2,0-54.7,3.6-78.8,10.8l-3.2,0.9l-0.8-3.2c-0.3-1.3-5.1-20.2-7.4-40.8c0,0-2-6.5-4.6-16.3
					c3.4,9.6,7.4,19.8,12.1,30.4c0,0,0.3,0.3,1.1,0.9c1.6,9.2,3.2,16.9,4.2,21c14.8-4.2,30.4-7,46.7-8.6v-8.1c2-0.2,4.2-0.4,6.4-0.7
					v8.3c8-0.6,16.1-1,24.4-1c11.2,0,21.8,0.6,31.5,1.5v-8.8c2.2,0.3,4.3,0.5,6.4,0.7v8.7c22.4,2.5,39,6.3,45.7,8.1
					c1.9-7.4,3.5-14.4,4.8-20.8c1.1-0.6,1.5-1.1,1.5-1.1c4.1-9.3,7.7-18.1,10.8-26.6c-1.5,5.6-2.7,9.5-3.1,10.9
					c-1.5,12.3-4.3,26.4-8.6,42.5l-0.8,3.2l-3.2-0.9C1060.7,634.5,1024.1,623.9,976.1,623.9z"/>
			</g>
		</g>
		<g>
			<g>
				<path class="st5" d="M945.4,563.4V577c-18.9,1.5-37,4.5-54.1,8.9c-0.2-0.4-0.5-0.9-0.7-1.3c-0.9-3.5-1.8-7.6-2.8-12.2
					C905.9,567.8,925.2,564.9,945.4,563.4z"/>
			</g>
		</g>
	</g>
</g>
<g id="XMLID_18_">
	<g>
		<g>
			<g>
				<path class="st5" d="M1007.6,870.6v13.6c-9.8-0.7-20.3-1.2-31.5-1.2c-8.3,0-16.4,0.3-24.4,0.8v-13.6c7.9-0.4,15.9-0.7,24.1-0.7
					C987.1,869.4,997.7,869.9,1007.6,870.6z"/>
			</g>
		</g>
		<g>
			<g>
				<path class="st6" d="M886.5,873.3c27.5-6.8,57.5-10.2,89.3-10.2c47.6,0,85.7,7.9,96.4,10.3c15.9-53.2,9.5-73.1,4.3-80.2
					c-4.2-5.7-73.5-22-102.4-22c-49.4,0-88,17.8-90.9,21.6C871.8,808.1,881.1,853.5,886.5,873.3z M945.4,884.2v-13.6
					c-20.2,1.5-39.5,4.5-57.6,9c1,4.6,1.9,8.7,2.8,12.2c0.2,0.4,0.5,0.9,0.7,1.3C908.3,888.7,926.4,885.8,945.4,884.2z
					 M1071.7,879.8c-6.3-1.5-27.9-6.2-57.7-8.7v13.6c26.8,2.5,46.8,6.8,54.1,8.5C1069.5,888.5,1070.7,884,1071.7,879.8z
					 M1081.6,789.3c15,15.9,1.7,72.6-4.9,97c-3.1,8.5-6.7,17.4-10.8,26.6c0,0-0.4,0.4-1.5,1.1c1-5.1,1.8-10,2.4-14.5
					c-6.8-1.6-26.4-5.9-52.9-8.4v27c-2-0.2-4.2-0.4-6.4-0.7v-26.9c-9.8-0.7-20.3-1.2-31.5-1.2c-8.3,0-16.4,0.3-24.4,0.8v27.3
					c-2.2,0.3-4.3,0.5-6.4,0.7v-27.5c-18.5,1.5-36.2,4.5-52.9,8.8c0.6,5,1.3,9.9,2.1,14.4c-0.8-0.5-1.1-0.9-1.1-0.9
					c-4.7-10.7-8.7-20.8-12.1-30.4c-6.9-26.6-17.7-77.9-3.2-93.6c4.5-4.9,49.1-24.1,96-24.1C1003.6,764.8,1075.3,782.6,1081.6,789.3
					z M1007.6,870.6c-9.9-0.7-20.5-1.1-31.8-1.1c-8.2,0-16.2,0.3-24.1,0.7v13.6c8-0.5,16.1-0.8,24.4-0.8c11.1,0,21.7,0.5,31.5,1.2
					V870.6z"/>
			</g>
		</g>
		<g>
			<g>
				<path class="st5" d="M1014,871.1c29.8,2.5,51.4,7.2,57.7,8.7c-1,4.2-2.2,8.7-3.6,13.5c-7.3-1.7-27.3-6-54.1-8.5V871.1z"/>
			</g>
		</g>
		<g>
			<g>
				<path class="st5" d="M1014,891.1c26.6,2.4,46.1,6.7,52.9,8.4c-0.6,4.6-1.4,9.4-2.4,14.5c-3.9,2.4-16.6,7.5-50.5,4.1V891.1z"/>
			</g>
		</g>
		<g>
			<g>
				<path class="st5" d="M979.7,913c-10.5,2-19.8,3.5-27.9,4.5v-27.3c8-0.5,16.1-0.8,24.4-0.8c11.1,0,21.7,0.5,31.5,1.2v26.9
					C999.5,916.5,990.2,915,979.7,913z"/>
			</g>
		</g>
		<g>
			<g>
				<path class="st10" d="M1076.7,886.3c6.6-24.4,19.9-81.1,4.9-97c-6.3-6.7-78.1-24.6-107.6-24.6c-46.9,0-91.5,19.3-96,24.1
					c-14.5,15.8-3.7,67,3.2,93.6c-65.8-186.1,98.4-186.1,98.4-186.1S1146.1,696.5,1076.7,886.3z"/>
			</g>
		</g>
		<g>
			<g>
				<path class="st5" d="M945.4,890.7v27.5c-35.3,3.6-47.5-2.1-50.9-4.3c-0.8-4.5-1.5-9.4-2.1-14.4
					C909.1,895.1,926.8,892.2,945.4,890.7z"/>
			</g>
		</g>
		<g>
			<g>
				<path class="st5" d="M975.8,863.1c-31.8,0-61.8,3.5-89.3,10.2c-5.5-19.8-14.8-65.2-3.3-80.5c2.8-3.8,41.5-21.6,90.9-21.6
					c28.9,0,98.2,16.3,102.4,22c5.3,7.1,11.6,27-4.3,80.2C1061.6,870.9,1023.5,863.1,975.8,863.1z"/>
			</g>
		</g>
		<g>
			<g>
				<path class="st6" d="M976.1,931.1c-28.2,0-54.7,3.6-78.8,10.8l-3.2,0.9l-0.8-3.2c-0.3-1.3-5.1-20.2-7.4-40.8c0,0-2-6.5-4.6-16.3
					c3.4,9.6,7.4,19.8,12.1,30.4c0,0,0.3,0.3,1.1,0.9c1.6,9.2,3.2,16.9,4.2,21c14.8-4.2,30.4-7,46.7-8.6v-8.1c2-0.2,4.2-0.4,6.4-0.7
					v8.3c8-0.6,16.1-1,24.4-1c11.2,0,21.8,0.6,31.5,1.5v-8.8c2.2,0.3,4.3,0.5,6.4,0.7v8.7c22.4,2.5,39,6.3,45.7,8.1
					c1.9-7.4,3.5-14.4,4.8-20.8c1.1-0.6,1.5-1.1,1.5-1.1c4.1-9.3,7.7-18.1,10.8-26.6c-1.5,5.6-2.7,9.5-3.1,10.9
					c-1.5,12.3-4.3,26.4-8.6,42.5l-0.8,3.2l-3.2-0.9C1060.7,941.8,1024.1,931.1,976.1,931.1z"/>
			</g>
		</g>
		<g>
			<g>
				<path class="st5" d="M945.4,870.6v13.6c-18.9,1.5-37,4.5-54.1,8.9c-0.2-0.4-0.5-0.9-0.7-1.3c-0.9-3.5-1.8-7.6-2.8-12.2
					C905.9,875.1,925.2,872.1,945.4,870.6z"/>
			</g>
		</g>
	</g>
</g>
<g id="XMLID_17_">
	<g>
		<g>
			<g>
				<path class="st5" d="M1007.6,1177.9v13.6c-9.8-0.7-20.3-1.2-31.5-1.2c-8.3,0-16.4,0.3-24.4,0.8v-13.6c7.9-0.4,15.9-0.7,24.1-0.7
					C987.1,1176.7,997.7,1177.2,1007.6,1177.9z"/>
			</g>
		</g>
		<g>
			<g>
				<path class="st6" d="M886.5,1180.5c27.5-6.8,57.5-10.2,89.3-10.2c47.6,0,85.7,7.9,96.4,10.3c15.9-53.2,9.5-73.1,4.3-80.2
					c-4.2-5.7-73.5-22-102.4-22c-49.4,0-88,17.8-90.9,21.6C871.8,1115.3,881.1,1160.8,886.5,1180.5z M945.4,1191.5v-13.6
					c-20.2,1.5-39.5,4.5-57.6,9c1,4.6,1.9,8.7,2.8,12.2c0.2,0.4,0.5,0.9,0.7,1.3C908.3,1196,926.4,1193,945.4,1191.5z M1071.7,1187
					c-6.3-1.5-27.9-6.2-57.7-8.7v13.6c26.8,2.5,46.8,6.8,54.1,8.5C1069.5,1195.7,1070.7,1191.3,1071.7,1187z M1081.6,1096.6
					c15,15.9,1.7,72.6-4.9,97c-3.1,8.5-6.7,17.4-10.8,26.6c0,0-0.4,0.4-1.5,1.1c1-5.1,1.8-10,2.4-14.5c-6.8-1.6-26.4-5.9-52.9-8.4
					v27c-2-0.2-4.2-0.4-6.4-0.7v-26.9c-9.8-0.7-20.3-1.2-31.5-1.2c-8.3,0-16.4,0.3-24.4,0.8v27.3c-2.2,0.3-4.3,0.5-6.4,0.7v-27.5
					c-18.5,1.5-36.2,4.5-52.9,8.8c0.6,5,1.3,9.9,2.1,14.4c-0.8-0.5-1.1-0.9-1.1-0.9c-4.7-10.7-8.7-20.8-12.1-30.4
					c-6.9-26.6-17.7-77.9-3.2-93.6c4.5-4.9,49.1-24.1,96-24.1C1003.6,1072,1075.3,1089.9,1081.6,1096.6z M1007.6,1177.9
					c-9.9-0.7-20.5-1.2-31.8-1.2c-8.2,0-16.2,0.3-24.1,0.7v13.6c8-0.5,16.1-0.8,24.4-0.8c11.1,0,21.7,0.5,31.5,1.2V1177.9z"/>
			</g>
		</g>
		<g>
			<g>
				<path class="st5" d="M1014,1178.4c29.8,2.5,51.4,7.2,57.7,8.7c-1,4.2-2.2,8.7-3.6,13.5c-7.3-1.7-27.3-6-54.1-8.5V1178.4z"/>
			</g>
		</g>
		<g>
			<g>
				<path class="st5" d="M1014,1198.4c26.6,2.4,46.1,6.7,52.9,8.4c-0.6,4.6-1.4,9.4-2.4,14.5c-3.9,2.4-16.6,7.5-50.5,4.1V1198.4z"/>
			</g>
		</g>
		<g>
			<g>
				<path class="st5" d="M979.7,1220.2c-10.5,2-19.8,3.5-27.9,4.5v-27.3c8-0.5,16.1-0.8,24.4-0.8c11.1,0,21.7,0.5,31.5,1.2v26.9
					C999.5,1223.7,990.2,1222.3,979.7,1220.2z"/>
			</g>
		</g>
		<g>
			<g>
				<path class="st10" d="M1076.7,1193.6c6.6-24.4,19.9-81.1,4.9-97c-6.3-6.7-78.1-24.6-107.6-24.6c-46.9,0-91.5,19.3-96,24.1
					c-14.5,15.8-3.7,67,3.2,93.6c-65.8-186.1,98.4-186.1,98.4-186.1S1146.1,1003.7,1076.7,1193.6z"/>
			</g>
		</g>
		<g>
			<g>
				<path class="st5" d="M945.4,1197.9v27.5c-35.3,3.6-47.5-2.1-50.9-4.3c-0.8-4.5-1.5-9.4-2.1-14.4
					C909.1,1202.4,926.8,1199.5,945.4,1197.9z"/>
			</g>
		</g>
		<g>
			<g>
				<path class="st5" d="M975.8,1170.3c-31.8,0-61.8,3.5-89.3,10.2c-5.5-19.8-14.8-65.2-3.3-80.5c2.8-3.8,41.5-21.6,90.9-21.6
					c28.9,0,98.2,16.3,102.4,22c5.3,7.1,11.6,27-4.3,80.2C1061.6,1178.2,1023.5,1170.3,975.8,1170.3z"/>
			</g>
		</g>
		<g>
			<g>
				<path class="st6" d="M976.1,1238.4c-28.2,0-54.7,3.6-78.8,10.8l-3.2,0.9l-0.8-3.2c-0.3-1.3-5.1-20.2-7.4-40.8
					c0,0-2-6.5-4.6-16.3c3.4,9.6,7.4,19.8,12.1,30.4c0,0,0.3,0.3,1.1,0.9c1.6,9.2,3.2,16.9,4.2,21c14.8-4.2,30.4-7,46.7-8.6v-8.1
					c2-0.2,4.2-0.4,6.4-0.7v8.3c8-0.6,16.1-1,24.4-1c11.2,0,21.8,0.6,31.5,1.5v-8.8c2.2,0.3,4.3,0.5,6.4,0.7v8.7
					c22.4,2.5,39,6.3,45.7,8.1c1.9-7.4,3.5-14.4,4.8-20.8c1.1-0.6,1.5-1.1,1.5-1.1c4.1-9.3,7.7-18.1,10.8-26.6
					c-1.5,5.6-2.7,9.5-3.1,10.9c-1.5,12.3-4.3,26.4-8.6,42.5l-0.8,3.2l-3.2-0.9C1060.7,1249,1024.1,1238.4,976.1,1238.4z"/>
			</g>
		</g>
		<g>
			<g>
				<path class="st5" d="M945.4,1177.9v13.6c-18.9,1.5-37,4.5-54.1,8.9c-0.2-0.4-0.5-0.9-0.7-1.3c-0.9-3.5-1.8-7.6-2.8-12.2
					C905.9,1182.4,925.2,1179.4,945.4,1177.9z"/>
			</g>
		</g>
	</g>
</g>
<g id="XMLID_16_">
	<g>
		<g>
			<g>
				<path class="st5" d="M1007.6,1485.1v13.6c-9.8-0.7-20.3-1.2-31.5-1.2c-8.3,0-16.4,0.3-24.4,0.8v-13.6c7.9-0.4,15.9-0.7,24.1-0.7
					C987.1,1484,997.7,1484.4,1007.6,1485.1z"/>
			</g>
		</g>
		<g>
			<g>
				<path class="st6" d="M886.5,1487.8c27.5-6.8,57.5-10.2,89.3-10.2c47.6,0,85.7,7.9,96.4,10.3c15.9-53.2,9.5-73.1,4.3-80.2
					c-4.2-5.7-73.5-22-102.4-22c-49.4,0-88,17.8-90.9,21.6C871.8,1422.6,881.1,1468,886.5,1487.8z M945.4,1498.8v-13.6
					c-20.2,1.5-39.5,4.5-57.6,9c1,4.6,1.9,8.7,2.8,12.2c0.2,0.4,0.5,0.9,0.7,1.3C908.3,1503.2,926.4,1500.3,945.4,1498.8z
					 M1071.7,1494.3c-6.3-1.5-27.9-6.2-57.7-8.7v13.6c26.8,2.5,46.8,6.8,54.1,8.5C1069.5,1503,1070.7,1498.5,1071.7,1494.3z
					 M1081.6,1403.8c15,15.9,1.7,72.6-4.9,97c-3.1,8.5-6.7,17.4-10.8,26.6c0,0-0.4,0.4-1.5,1.1c1-5.1,1.8-10,2.4-14.5
					c-6.8-1.6-26.4-5.9-52.9-8.4v27c-2-0.2-4.2-0.4-6.4-0.7v-26.9c-9.8-0.7-20.3-1.2-31.5-1.2c-8.3,0-16.4,0.3-24.4,0.8v27.3
					c-2.2,0.3-4.3,0.5-6.4,0.7v-27.5c-18.5,1.5-36.2,4.5-52.9,8.8c0.6,5,1.3,9.9,2.1,14.4c-0.8-0.5-1.1-0.9-1.1-0.9
					c-4.7-10.7-8.7-20.8-12.1-30.4c-6.9-26.6-17.7-77.9-3.2-93.6c4.5-4.9,49.1-24.1,96-24.1
					C1003.6,1379.3,1075.3,1397.1,1081.6,1403.8z M1007.6,1485.1c-9.9-0.7-20.5-1.1-31.8-1.1c-8.2,0-16.2,0.3-24.1,0.7v13.6
					c8-0.5,16.1-0.8,24.4-0.8c11.1,0,21.7,0.5,31.5,1.2V1485.1z"/>
			</g>
		</g>
		<g>
			<g>
				<path class="st5" d="M1014,1485.6c29.8,2.5,51.4,7.2,57.7,8.7c-1,4.2-2.2,8.7-3.6,13.5c-7.3-1.7-27.3-6-54.1-8.5V1485.6z"/>
			</g>
		</g>
		<g>
			<g>
				<path class="st5" d="M1014,1505.7c26.6,2.4,46.1,6.7,52.9,8.4c-0.6,4.6-1.4,9.4-2.4,14.5c-3.9,2.4-16.6,7.5-50.5,4.1V1505.7z"/>
			</g>
		</g>
		<g>
			<g>
				<path class="st5" d="M979.7,1527.5c-10.5,2-19.8,3.5-27.9,4.5v-27.3c8-0.5,16.1-0.8,24.4-0.8c11.1,0,21.7,0.5,31.5,1.2v26.9
					C999.5,1531,990.2,1529.5,979.7,1527.5z"/>
			</g>
		</g>
		<g>
			<g>
				<path class="st10" d="M1076.7,1500.9c6.6-24.4,19.9-81.1,4.9-97c-6.3-6.7-78.1-24.6-107.6-24.6c-46.9,0-91.5,19.3-96,24.1
					c-14.5,15.8-3.7,67,3.2,93.6C815.5,1311,979.7,1311,979.7,1311S1146.1,1311,1076.7,1500.9z"/>
			</g>
		</g>
		<g>
			<g>
				<path class="st5" d="M945.4,1505.2v27.5c-35.3,3.6-47.5-2.1-50.9-4.3c-0.8-4.5-1.5-9.4-2.1-14.4
					C909.1,1509.7,926.8,1506.7,945.4,1505.2z"/>
			</g>
		</g>
		<g>
			<g>
				<path class="st5" d="M975.8,1477.6c-31.8,0-61.8,3.4-89.3,10.2c-5.5-19.8-14.8-65.2-3.3-80.5c2.8-3.8,41.5-21.6,90.9-21.6
					c28.9,0,98.2,16.3,102.4,22c5.3,7.1,11.6,27-4.3,80.2C1061.6,1485.4,1023.5,1477.6,975.8,1477.6z"/>
			</g>
		</g>
		<g>
			<g>
				<path class="st6" d="M976.1,1545.7c-28.2,0-54.7,3.6-78.8,10.8l-3.2,0.9l-0.8-3.2c-0.3-1.3-5.1-20.2-7.4-40.8
					c0,0-2-6.5-4.6-16.3c3.4,9.6,7.4,19.8,12.1,30.4c0,0,0.3,0.3,1.1,0.9c1.6,9.2,3.2,16.9,4.2,21c14.8-4.2,30.4-7,46.7-8.6v-8.1
					c2-0.2,4.2-0.4,6.4-0.7v8.3c8-0.6,16.1-1,24.4-1c11.2,0,21.8,0.6,31.5,1.5v-8.8c2.2,0.3,4.3,0.5,6.4,0.7v8.7
					c22.4,2.5,39,6.3,45.7,8.1c1.9-7.4,3.5-14.4,4.8-20.8c1.1-0.6,1.5-1.1,1.5-1.1c4.1-9.3,7.7-18.1,10.8-26.6
					c-1.5,5.6-2.7,9.5-3.1,10.9c-1.5,12.3-4.3,26.4-8.6,42.5l-0.8,3.2l-3.2-0.9C1060.7,1556.3,1024.1,1545.7,976.1,1545.7z"/>
			</g>
		</g>
		<g>
			<g>
				<path class="st5" d="M945.4,1485.1v13.6c-18.9,1.5-37,4.5-54.1,8.9c-0.2-0.4-0.5-0.9-0.7-1.3c-0.9-3.5-1.8-7.6-2.8-12.2
					C905.9,1489.6,925.2,1486.7,945.4,1485.1z"/>
			</g>
		</g>
	</g>
</g>
<g id="XMLID_15_">
	<g>
		<g>
			<g>
				<path class="st5" d="M1007.6,1792.4v13.6c-9.8-0.7-20.3-1.2-31.5-1.2c-8.3,0-16.4,0.3-24.4,0.8v-13.6c7.9-0.4,15.9-0.7,24.1-0.7
					C987.1,1791.2,997.7,1791.7,1007.6,1792.4z"/>
			</g>
		</g>
		<g>
			<g>
				<path class="st6" d="M886.5,1795.1c27.5-6.8,57.5-10.2,89.3-10.2c47.6,0,85.7,7.9,96.4,10.3c15.9-53.2,9.5-73.1,4.3-80.2
					c-4.2-5.7-73.5-22-102.4-22c-49.4,0-88,17.8-90.9,21.6C871.8,1729.8,881.1,1775.3,886.5,1795.1z M945.4,1806v-13.6
					c-20.2,1.5-39.5,4.5-57.6,9c1,4.6,1.9,8.7,2.8,12.2c0.2,0.4,0.5,0.9,0.7,1.3C908.3,1810.5,926.4,1807.6,945.4,1806z
					 M1071.7,1801.6c-6.3-1.5-27.9-6.2-57.7-8.7v13.6c26.8,2.5,46.8,6.8,54.1,8.5C1069.5,1810.3,1070.7,1805.8,1071.7,1801.6z
					 M1081.6,1711.1c15,15.9,1.7,72.6-4.9,97c-3.1,8.5-6.7,17.4-10.8,26.6c0,0-0.4,0.4-1.5,1.1c1-5.1,1.8-10,2.4-14.5
					c-6.8-1.6-26.4-5.9-52.9-8.4v27c-2-0.2-4.2-0.4-6.4-0.7v-26.9c-9.8-0.7-20.3-1.2-31.5-1.2c-8.3,0-16.4,0.3-24.4,0.8v27.3
					c-2.2,0.3-4.3,0.5-6.4,0.7v-27.5c-18.5,1.5-36.2,4.5-52.9,8.8c0.6,5,1.3,9.9,2.1,14.4c-0.8-0.5-1.1-0.9-1.1-0.9
					c-4.7-10.7-8.7-20.8-12.1-30.4c-6.9-26.6-17.7-77.9-3.2-93.6c4.5-4.9,49.1-24.1,96-24.1
					C1003.6,1686.6,1075.3,1704.4,1081.6,1711.1z M1007.6,1792.4c-9.9-0.7-20.5-1.1-31.8-1.1c-8.2,0-16.2,0.3-24.1,0.7v13.6
					c8-0.5,16.1-0.8,24.4-0.8c11.1,0,21.7,0.5,31.5,1.2V1792.4z"/>
			</g>
		</g>
		<g>
			<g>
				<path class="st5" d="M1014,1792.9c29.8,2.5,51.4,7.2,57.7,8.7c-1,4.2-2.2,8.7-3.6,13.5c-7.3-1.7-27.3-6-54.1-8.5V1792.9z"/>
			</g>
		</g>
		<g>
			<g>
				<path class="st5" d="M1014,1812.9c26.6,2.4,46.1,6.7,52.9,8.4c-0.6,4.6-1.4,9.4-2.4,14.5c-3.9,2.4-16.6,7.5-50.5,4.1V1812.9z"/>
			</g>
		</g>
		<g>
			<g>
				<path class="st5" d="M979.7,1834.8c-10.5,2-19.8,3.5-27.9,4.5V1812c8-0.5,16.1-0.8,24.4-0.8c11.1,0,21.7,0.5,31.5,1.2v26.9
					C999.5,1838.3,990.2,1836.8,979.7,1834.8z"/>
			</g>
		</g>
		<g>
			<g>
				<path class="st10" d="M1076.7,1808.1c6.6-24.4,19.9-81.1,4.9-97c-6.3-6.7-78.1-24.6-107.6-24.6c-46.9,0-91.5,19.3-96,24.1
					c-14.5,15.8-3.7,67,3.2,93.6c-65.8-186.1,98.4-186.1,98.4-186.1S1146.1,1618.3,1076.7,1808.1z"/>
			</g>
		</g>
		<g>
			<g>
				<path class="st5" d="M945.4,1812.4v27.5c-35.3,3.6-47.5-2.1-50.9-4.3c-0.8-4.5-1.5-9.4-2.1-14.4
					C909.1,1816.9,926.8,1814,945.4,1812.4z"/>
			</g>
		</g>
		<g>
			<g>
				<path class="st5" d="M975.8,1784.8c-31.8,0-61.8,3.4-89.3,10.2c-5.5-19.8-14.8-65.2-3.3-80.5c2.8-3.8,41.5-21.6,90.9-21.6
					c28.9,0,98.2,16.3,102.4,22c5.3,7.1,11.6,27-4.3,80.2C1061.6,1792.7,1023.5,1784.8,975.8,1784.8z"/>
			</g>
		</g>
		<g>
			<g>
				<path class="st6" d="M976.1,1852.9c-28.2,0-54.7,3.6-78.8,10.8l-3.2,0.9l-0.8-3.2c-0.3-1.3-5.1-20.2-7.4-40.8
					c0,0-2-6.5-4.6-16.3c3.4,9.6,7.4,19.8,12.1,30.4c0,0,0.3,0.3,1.1,0.9c1.6,9.2,3.2,16.9,4.2,21c14.8-4.2,30.4-7,46.7-8.6v-8.1
					c2-0.2,4.2-0.4,6.4-0.7v8.3c8-0.6,16.1-1,24.4-1c11.2,0,21.8,0.6,31.5,1.5v-8.8c2.2,0.3,4.3,0.5,6.4,0.7v8.7
					c22.4,2.5,39,6.3,45.7,8.1c1.9-7.4,3.5-14.4,4.8-20.8c1.1-0.6,1.5-1.1,1.5-1.1c4.1-9.3,7.7-18.1,10.8-26.6
					c-1.5,5.6-2.7,9.5-3.1,10.9c-1.5,12.3-4.3,26.4-8.6,42.5l-0.8,3.2l-3.2-0.9C1060.7,1863.6,1024.1,1852.9,976.1,1852.9z"/>
			</g>
		</g>
		<g>
			<g>
				<path class="st5" d="M945.4,1792.4v13.6c-18.9,1.5-37,4.5-54.1,8.9c-0.2-0.4-0.5-0.9-0.7-1.3c-0.9-3.5-1.8-7.6-2.8-12.2
					C905.9,1796.9,925.2,1793.9,945.4,1792.4z"/>
			</g>
		</g>
	</g>
</g>
<g id="XMLID_14_">
	<g>
		<g>
			<g>
				<path class="st5" d="M1007.6,2099.6v13.6c-9.8-0.7-20.3-1.2-31.5-1.2c-8.3,0-16.4,0.3-24.4,0.8v-13.6c7.9-0.4,15.9-0.7,24.1-0.7
					C987.1,2098.5,997.7,2098.9,1007.6,2099.6z"/>
			</g>
		</g>
		<g>
			<g>
				<path class="st6" d="M886.5,2102.3c27.5-6.8,57.5-10.2,89.3-10.2c47.6,0,85.7,7.9,96.4,10.3c15.9-53.2,9.5-73.1,4.3-80.2
					c-4.2-5.7-73.5-22-102.4-22c-49.4,0-88,17.8-90.9,21.6C871.8,2037.1,881.1,2082.6,886.5,2102.3z M945.4,2113.3v-13.6
					c-20.2,1.5-39.5,4.5-57.6,9c1,4.6,1.9,8.7,2.8,12.2c0.2,0.4,0.5,0.9,0.7,1.3C908.3,2117.8,926.4,2114.8,945.4,2113.3z
					 M1071.7,2108.8c-6.3-1.5-27.9-6.2-57.7-8.7v13.6c26.8,2.5,46.8,6.8,54.1,8.5C1069.5,2117.5,1070.7,2113.1,1071.7,2108.8z
					 M1081.6,2018.4c15,15.9,1.7,72.6-4.9,97c-3.1,8.5-6.7,17.4-10.8,26.6c0,0-0.4,0.4-1.5,1.1c1-5.1,1.8-10,2.4-14.5
					c-6.8-1.6-26.4-5.9-52.9-8.4v27c-2-0.2-4.2-0.4-6.4-0.7v-26.9c-9.8-0.7-20.3-1.2-31.5-1.2c-8.3,0-16.4,0.3-24.4,0.8v27.3
					c-2.2,0.3-4.3,0.5-6.4,0.7v-27.5c-18.5,1.5-36.2,4.5-52.9,8.8c0.6,5,1.3,9.9,2.1,14.4c-0.8-0.5-1.1-0.9-1.1-0.9
					c-4.7-10.7-8.7-20.8-12.1-30.4c-6.9-26.6-17.7-77.9-3.2-93.6c4.5-4.9,49.1-24.1,96-24.1
					C1003.6,1993.8,1075.3,2011.7,1081.6,2018.4z M1007.6,2099.6c-9.9-0.7-20.5-1.1-31.8-1.1c-8.2,0-16.2,0.3-24.1,0.7v13.6
					c8-0.5,16.1-0.8,24.4-0.8c11.1,0,21.7,0.5,31.5,1.2V2099.6z"/>
			</g>
		</g>
		<g>
			<g>
				<path class="st5" d="M1014,2100.1c29.8,2.5,51.4,7.2,57.7,8.7c-1,4.2-2.2,8.7-3.6,13.5c-7.3-1.7-27.3-6-54.1-8.5V2100.1z"/>
			</g>
		</g>
		<g>
			<g>
				<path class="st5" d="M1014,2120.2c26.6,2.4,46.1,6.7,52.9,8.4c-0.6,4.6-1.4,9.4-2.4,14.5c-3.9,2.4-16.6,7.5-50.5,4.1V2120.2z"/>
			</g>
		</g>
		<g>
			<g>
				<path class="st5" d="M979.7,2142c-10.5,2-19.8,3.5-27.9,4.5v-27.3c8-0.5,16.1-0.8,24.4-0.8c11.1,0,21.7,0.5,31.5,1.2v26.9
					C999.5,2145.5,990.2,2144.1,979.7,2142z"/>
			</g>
		</g>
		<g>
			<g>
				<path class="st10" d="M1076.7,2115.4c6.6-24.4,19.9-81.1,4.9-97c-6.3-6.7-78.1-24.6-107.6-24.6c-46.9,0-91.5,19.3-96,24.1
					c-14.5,15.8-3.7,67,3.2,93.6c-65.8-186.1,98.4-186.1,98.4-186.1S1146.1,1925.5,1076.7,2115.4z"/>
			</g>
		</g>
		<g>
			<g>
				<path class="st5" d="M945.4,2119.7v27.5c-35.3,3.6-47.5-2.1-50.9-4.3c-0.8-4.5-1.5-9.4-2.1-14.4
					C909.1,2124.2,926.8,2121.2,945.4,2119.7z"/>
			</g>
		</g>
		<g>
			<g>
				<path class="st5" d="M975.8,2092.1c-31.8,0-61.8,3.4-89.3,10.2c-5.5-19.8-14.8-65.2-3.3-80.5c2.8-3.8,41.5-21.6,90.9-21.6
					c28.9,0,98.2,16.3,102.4,22c5.3,7.1,11.6,27-4.3,80.2C1061.6,2100,1023.5,2092.1,975.8,2092.1z"/>
			</g>
		</g>
		<g>
			<g>
				<path class="st6" d="M976.1,2160.2c-28.2,0-54.7,3.6-78.8,10.8l-3.2,0.9l-0.8-3.2c-0.3-1.3-5.1-20.2-7.4-40.8
					c0,0-2-6.5-4.6-16.3c3.4,9.6,7.4,19.8,12.1,30.4c0,0,0.3,0.3,1.1,0.9c1.6,9.2,3.2,16.9,4.2,21c14.8-4.2,30.4-7,46.7-8.6v-8.1
					c2-0.2,4.2-0.4,6.4-0.7v8.3c8-0.6,16.1-1,24.4-1c11.2,0,21.8,0.6,31.5,1.5v-8.8c2.2,0.3,4.3,0.5,6.4,0.7v8.7
					c22.4,2.5,39,6.3,45.7,8.1c1.9-7.4,3.5-14.4,4.8-20.8c1.1-0.6,1.5-1.1,1.5-1.1c4.1-9.3,7.7-18.1,10.8-26.6
					c-1.5,5.6-2.7,9.5-3.1,10.9c-1.5,12.3-4.3,26.4-8.6,42.5l-0.8,3.2l-3.2-0.9C1060.7,2170.8,1024.1,2160.2,976.1,2160.2z"/>
			</g>
		</g>
		<g>
			<g>
				<path class="st5" d="M945.4,2099.7v13.6c-18.9,1.5-37,4.5-54.1,8.9c-0.2-0.4-0.5-0.9-0.7-1.3c-0.9-3.5-1.8-7.6-2.8-12.2
					C905.9,2104.2,925.2,2101.2,945.4,2099.7z"/>
			</g>
		</g>
	</g>
</g>
<g id="XMLID_13_">
	<g>
		<g>
			<g>
				<path class="st5" d="M1007.6,2406.9v13.6c-9.8-0.7-20.3-1.2-31.5-1.2c-8.3,0-16.4,0.3-24.4,0.8v-13.6c7.9-0.4,15.9-0.7,24.1-0.7
					C987.1,2405.8,997.7,2406.2,1007.6,2406.9z"/>
			</g>
		</g>
		<g>
			<g>
				<path class="st6" d="M886.5,2409.6c27.5-6.8,57.5-10.2,89.3-10.2c47.6,0,85.7,7.9,96.4,10.3c15.9-53.2,9.5-73.1,4.3-80.2
					c-4.2-5.7-73.5-22-102.4-22c-49.4,0-88,17.8-90.9,21.6C871.8,2344.4,881.1,2389.8,886.5,2409.6z M945.4,2420.6v-13.6
					c-20.2,1.5-39.5,4.5-57.6,9c1,4.6,1.9,8.7,2.8,12.2c0.2,0.4,0.5,0.9,0.7,1.3C908.3,2425,926.4,2422.1,945.4,2420.6z
					 M1071.7,2416.1c-6.3-1.5-27.9-6.2-57.7-8.7v13.6c26.8,2.5,46.8,6.8,54.1,8.5C1069.5,2424.8,1070.7,2420.3,1071.7,2416.1z
					 M1081.6,2325.6c15,15.9,1.7,72.6-4.9,97c-3.1,8.5-6.7,17.4-10.8,26.6c0,0-0.4,0.4-1.5,1.1c1-5.1,1.8-10,2.4-14.5
					c-6.8-1.6-26.4-5.9-52.9-8.4v27c-2-0.2-4.2-0.4-6.4-0.7v-26.9c-9.8-0.7-20.3-1.2-31.5-1.2c-8.3,0-16.4,0.3-24.4,0.8v27.3
					c-2.2,0.3-4.3,0.5-6.4,0.7V2427c-18.5,1.5-36.2,4.5-52.9,8.8c0.6,5,1.3,9.9,2.1,14.4c-0.8-0.5-1.1-0.9-1.1-0.9
					c-4.7-10.7-8.7-20.8-12.1-30.4c-6.9-26.6-17.7-77.9-3.2-93.6c4.5-4.9,49.1-24.1,96-24.1
					C1003.6,2301.1,1075.3,2318.9,1081.6,2325.6z M1007.6,2406.9c-9.9-0.7-20.5-1.1-31.8-1.1c-8.2,0-16.2,0.3-24.1,0.7v13.6
					c8-0.5,16.1-0.8,24.4-0.8c11.1,0,21.7,0.5,31.5,1.2V2406.9z"/>
			</g>
		</g>
		<g>
			<g>
				<path class="st5" d="M1014,2407.4c29.8,2.5,51.4,7.2,57.7,8.7c-1,4.2-2.2,8.7-3.6,13.5c-7.3-1.7-27.3-6-54.1-8.5V2407.4z"/>
			</g>
		</g>
		<g>
			<g>
				<path class="st5" d="M1014,2427.5c26.6,2.4,46.1,6.7,52.9,8.4c-0.6,4.6-1.4,9.4-2.4,14.5c-3.9,2.4-16.6,7.5-50.5,4.1V2427.5z"/>
			</g>
		</g>
		<g>
			<g>
				<path class="st5" d="M979.7,2449.3c-10.5,2-19.8,3.5-27.9,4.5v-27.3c8-0.5,16.1-0.8,24.4-0.8c11.1,0,21.7,0.5,31.5,1.2v26.9
					C999.5,2452.8,990.2,2451.3,979.7,2449.3z"/>
			</g>
		</g>
		<g>
			<g>
				<path class="st10" d="M1076.7,2422.6c6.6-24.4,19.9-81.1,4.9-97c-6.3-6.7-78.1-24.6-107.6-24.6c-46.9,0-91.5,19.3-96,24.1
					c-14.5,15.8-3.7,67,3.2,93.6c-65.8-186.1,98.4-186.1,98.4-186.1S1146.1,2232.8,1076.7,2422.6z"/>
			</g>
		</g>
		<g>
			<g>
				<path class="st5" d="M945.4,2427v27.5c-35.3,3.6-47.5-2.1-50.9-4.3c-0.8-4.5-1.5-9.4-2.1-14.4
					C909.1,2431.4,926.8,2428.5,945.4,2427z"/>
			</g>
		</g>
		<g>
			<g>
				<path class="st5" d="M975.8,2399.4c-31.8,0-61.8,3.4-89.3,10.2c-5.5-19.8-14.8-65.2-3.3-80.5c2.8-3.8,41.5-21.6,90.9-21.6
					c28.9,0,98.2,16.3,102.4,22c5.3,7.1,11.6,27-4.3,80.2C1061.6,2407.2,1023.5,2399.4,975.8,2399.4z"/>
			</g>
		</g>
		<g>
			<g>
				<path class="st6" d="M976.1,2467.4c-28.2,0-54.7,3.6-78.8,10.8l-3.2,0.9l-0.8-3.2c-0.3-1.3-5.1-20.2-7.4-40.8
					c0,0-2-6.5-4.6-16.3c3.4,9.6,7.4,19.8,12.1,30.4c0,0,0.3,0.3,1.1,0.9c1.6,9.2,3.2,16.9,4.2,21c14.8-4.2,30.4-7,46.7-8.6v-8.1
					c2-0.2,4.2-0.4,6.4-0.7v8.3c8-0.6,16.1-1,24.4-1c11.2,0,21.8,0.6,31.5,1.5v-8.8c2.2,0.3,4.3,0.5,6.4,0.7v8.7
					c22.4,2.5,39,6.3,45.7,8.1c1.9-7.4,3.5-14.4,4.8-20.8c1.1-0.6,1.5-1.1,1.5-1.1c4.1-9.3,7.7-18.1,10.8-26.6
					c-1.5,5.6-2.7,9.5-3.1,10.9c-1.5,12.3-4.3,26.4-8.6,42.5l-0.8,3.2l-3.2-0.9C1060.7,2478.1,1024.1,2467.4,976.1,2467.4z"/>
			</g>
		</g>
		<g>
			<g>
				<path class="st5" d="M945.4,2406.9v13.6c-18.9,1.5-37,4.5-54.1,8.9c-0.2-0.4-0.5-0.9-0.7-1.3c-0.9-3.5-1.8-7.6-2.8-12.2
					C905.9,2411.4,925.2,2408.4,945.4,2406.9z"/>
			</g>
		</g>
	</g>
</g>
<g id="XMLID_28_">
	<g>
		<g>
			<g>
				<path class="st5" d="M1734.9,256.1v13.6c-9.8-0.7-20.3-1.2-31.5-1.2c-8.3,0-16.4,0.3-24.4,0.8v-13.6c7.9-0.4,15.9-0.7,24.1-0.7
					C1714.4,254.9,1725,255.4,1734.9,256.1z"/>
			</g>
		</g>
		<g>
			<g>
				<path class="st6" d="M1613.8,258.8c27.5-6.8,57.5-10.2,89.3-10.2c47.6,0,85.7,7.9,96.4,10.3c15.9-53.2,9.5-73.1,4.3-80.2
					c-4.2-5.7-73.5-22-102.4-22c-49.4,0-88,17.8-90.9,21.6C1599,193.5,1608.3,239,1613.8,258.8z M1672.6,269.7v-13.6
					c-20.2,1.5-39.5,4.5-57.6,9c1,4.6,1.9,8.7,2.8,12.2c0.2,0.4,0.5,0.9,0.7,1.3C1635.6,274.2,1653.7,271.3,1672.6,269.7z
					 M1799,265.3c-6.3-1.5-27.9-6.2-57.7-8.7v13.6c26.8,2.5,46.8,6.8,54.1,8.5C1796.8,274,1798,269.5,1799,265.3z M1808.9,174.8
					c15,15.9,1.7,72.6-4.9,97c-3.1,8.5-6.7,17.4-10.8,26.6c0,0-0.4,0.4-1.5,1.1c1-5.1,1.8-10,2.4-14.5c-6.8-1.6-26.4-5.9-52.9-8.4
					v27c-2-0.2-4.2-0.4-6.4-0.7v-26.9c-9.8-0.7-20.3-1.2-31.5-1.2c-8.3,0-16.4,0.3-24.4,0.8v27.3c-2.2,0.3-4.3,0.5-6.4,0.7v-27.5
					c-18.5,1.5-36.2,4.5-52.9,8.8c0.6,5,1.3,9.9,2.1,14.4c-0.8-0.5-1.1-0.9-1.1-0.9c-4.7-10.7-8.7-20.8-12.1-30.4
					c-6.9-26.6-17.7-77.9-3.2-93.6c4.5-4.9,49.1-24.1,96-24.1C1730.8,150.2,1802.6,168.1,1808.9,174.8z M1734.9,256.1
					c-9.9-0.7-20.5-1.1-31.8-1.1c-8.2,0-16.2,0.3-24.1,0.7v13.6c8-0.5,16.1-0.8,24.4-0.8c11.1,0,21.7,0.5,31.5,1.2V256.1z"/>
			</g>
		</g>
		<g>
			<g>
				<path class="st5" d="M1741.3,256.6c29.8,2.5,51.4,7.2,57.7,8.7c-1,4.2-2.2,8.7-3.6,13.5c-7.3-1.7-27.3-6-54.1-8.5V256.6z"/>
			</g>
		</g>
		<g>
			<g>
				<path class="st5" d="M1741.3,276.6c26.6,2.4,46.1,6.7,52.9,8.4c-0.6,4.6-1.4,9.4-2.4,14.5c-3.9,2.4-16.6,7.5-50.5,4.1V276.6z"/>
			</g>
		</g>
		<g>
			<g>
				<path class="st5" d="M1707,298.4c-10.5,2-19.8,3.5-27.9,4.5v-27.3c8-0.5,16.1-0.8,24.4-0.8c11.1,0,21.7,0.5,31.5,1.2v26.9
					C1726.7,301.9,1717.5,300.5,1707,298.4z"/>
			</g>
		</g>
		<g>
			<g>
				<path class="st10" d="M1804,271.8c6.6-24.4,19.9-81.1,4.9-97c-6.3-6.7-78.1-24.6-107.6-24.6c-46.9,0-91.5,19.3-96,24.1
					c-14.5,15.8-3.7,67,3.2,93.6C1542.7,82,1707,82,1707,82S1873.4,82,1804,271.8z"/>
			</g>
		</g>
		<g>
			<g>
				<path class="st5" d="M1672.6,276.1v27.5c-35.3,3.6-47.5-2.1-50.9-4.3c-0.8-4.5-1.5-9.4-2.1-14.4
					C1636.4,280.6,1654.1,277.7,1672.6,276.1z"/>
			</g>
		</g>
		<g>
			<g>
				<path class="st5" d="M1703.1,248.5c-31.8,0-61.8,3.5-89.3,10.2c-5.5-19.8-14.8-65.2-3.3-80.5c2.8-3.8,41.5-21.6,90.9-21.6
					c28.9,0,98.2,16.3,102.4,22c5.3,7.1,11.6,27-4.3,80.2C1788.8,256.4,1750.7,248.5,1703.1,248.5z"/>
			</g>
		</g>
		<g>
			<g>
				<path class="st6" d="M1703.4,316.6c-28.2,0-54.7,3.6-78.8,10.8l-3.2,0.9l-0.8-3.2c-0.3-1.3-5.1-20.2-7.4-40.8
					c0,0-2-6.5-4.6-16.3c3.4,9.6,7.4,19.8,12.1,30.4c0,0,0.3,0.3,1.1,0.9c1.6,9.2,3.2,16.9,4.2,21c14.8-4.2,30.4-7,46.7-8.6v-8.1
					c2-0.2,4.2-0.4,6.4-0.7v8.3c8-0.6,16.1-1,24.4-1c11.2,0,21.8,0.6,31.5,1.5v-8.8c2.2,0.3,4.3,0.5,6.4,0.7v8.7
					c22.4,2.5,39,6.3,45.7,8.1c1.9-7.4,3.5-14.4,4.8-20.8c1.1-0.6,1.5-1.1,1.5-1.1c4.1-9.3,7.7-18.1,10.8-26.6
					c-1.5,5.6-2.7,9.5-3.1,10.9c-1.5,12.3-4.3,26.4-8.6,42.5l-0.8,3.2l-3.2-0.9C1788,327.3,1751.4,316.6,1703.4,316.6z"/>
			</g>
		</g>
		<g>
			<g>
				<path class="st5" d="M1672.6,256.1v13.6c-18.9,1.5-37,4.5-54.1,8.9c-0.2-0.4-0.5-0.9-0.7-1.3c-0.9-3.5-1.8-7.6-2.8-12.2
					C1633.2,260.6,1652.4,257.6,1672.6,256.1z"/>
			</g>
		</g>
	</g>
</g>
<g id="XMLID_27_">
	<g>
		<g>
			<g>
				<path class="st5" d="M1734.9,563.3v13.6c-9.8-0.7-20.3-1.2-31.5-1.2c-8.3,0-16.4,0.3-24.4,0.8v-13.6c7.9-0.4,15.9-0.7,24.1-0.7
					C1714.4,562.2,1725,562.6,1734.9,563.3z"/>
			</g>
		</g>
		<g>
			<g>
				<path class="st6" d="M1613.8,566c27.5-6.8,57.5-10.2,89.3-10.2c47.6,0,85.7,7.9,96.4,10.3c15.9-53.2,9.5-73.1,4.3-80.2
					c-4.2-5.7-73.5-22-102.4-22c-49.4,0-88,17.8-90.9,21.6C1599,500.8,1608.3,546.3,1613.8,566z M1672.6,577v-13.6
					c-20.2,1.5-39.5,4.5-57.6,9c1,4.6,1.9,8.7,2.8,12.2c0.2,0.4,0.5,0.9,0.7,1.3C1635.6,581.5,1653.7,578.5,1672.6,577z M1799,572.5
					c-6.3-1.5-27.9-6.2-57.7-8.7v13.6c26.8,2.5,46.8,6.8,54.1,8.5C1796.8,581.2,1798,576.7,1799,572.5z M1808.9,482.1
					c15,15.9,1.7,72.6-4.9,97c-3.1,8.5-6.7,17.4-10.8,26.6c0,0-0.4,0.4-1.5,1.1c1-5.1,1.8-10,2.4-14.5c-6.8-1.6-26.4-5.9-52.9-8.4
					v27c-2-0.2-4.2-0.4-6.4-0.7v-26.9c-9.8-0.7-20.3-1.2-31.5-1.2c-8.3,0-16.4,0.3-24.4,0.8v27.3c-2.2,0.3-4.3,0.5-6.4,0.7v-27.5
					c-18.5,1.5-36.2,4.5-52.9,8.8c0.6,5,1.3,9.9,2.1,14.4c-0.8-0.5-1.1-0.9-1.1-0.9c-4.7-10.7-8.7-20.8-12.1-30.4
					c-6.9-26.6-17.7-77.9-3.2-93.6c4.5-4.9,49.1-24.1,96-24.1C1730.8,457.5,1802.6,475.3,1808.9,482.1z M1734.9,563.3
					c-9.9-0.7-20.5-1.1-31.8-1.1c-8.2,0-16.2,0.3-24.1,0.7v13.6c8-0.5,16.1-0.8,24.4-0.8c11.1,0,21.7,0.5,31.5,1.2V563.3z"/>
			</g>
		</g>
		<g>
			<g>
				<path class="st5" d="M1741.3,563.8c29.8,2.5,51.4,7.2,57.7,8.7c-1,4.2-2.2,8.7-3.6,13.5c-7.3-1.7-27.3-6-54.1-8.5V563.8z"/>
			</g>
		</g>
		<g>
			<g>
				<path class="st5" d="M1741.3,583.9c26.6,2.4,46.1,6.7,52.9,8.4c-0.6,4.6-1.4,9.4-2.4,14.5c-3.9,2.4-16.6,7.5-50.5,4.1V583.9z"/>
			</g>
		</g>
		<g>
			<g>
				<path class="st5" d="M1707,605.7c-10.5,2-19.8,3.5-27.9,4.5v-27.3c8-0.5,16.1-0.8,24.4-0.8c11.1,0,21.7,0.5,31.5,1.2v26.9
					C1726.7,609.2,1717.5,607.8,1707,605.7z"/>
			</g>
		</g>
		<g>
			<g>
				<path class="st10" d="M1804,579.1c6.6-24.4,19.9-81.1,4.9-97c-6.3-6.7-78.1-24.6-107.6-24.6c-46.9,0-91.5,19.3-96,24.1
					c-14.5,15.8-3.7,67,3.2,93.6c-65.8-186.1,98.4-186.1,98.4-186.1S1873.4,389.2,1804,579.1z"/>
			</g>
		</g>
		<g>
			<g>
				<path class="st5" d="M1672.6,583.4v27.5c-35.3,3.6-47.5-2.1-50.9-4.3c-0.8-4.5-1.5-9.4-2.1-14.4
					C1636.4,587.9,1654.1,584.9,1672.6,583.4z"/>
			</g>
		</g>
		<g>
			<g>
				<path class="st5" d="M1703.1,555.8c-31.8,0-61.8,3.5-89.3,10.2c-5.5-19.8-14.8-65.2-3.3-80.5c2.8-3.8,41.5-21.6,90.9-21.6
					c28.9,0,98.2,16.3,102.4,22c5.3,7.1,11.6,27-4.3,80.2C1788.8,563.7,1750.7,555.8,1703.1,555.8z"/>
			</g>
		</g>
		<g>
			<g>
				<path class="st6" d="M1703.4,623.9c-28.2,0-54.7,3.6-78.8,10.8l-3.2,0.9l-0.8-3.2c-0.3-1.3-5.1-20.2-7.4-40.8
					c0,0-2-6.5-4.6-16.3c3.4,9.6,7.4,19.8,12.1,30.4c0,0,0.3,0.3,1.1,0.9c1.6,9.2,3.2,16.9,4.2,21c14.8-4.2,30.4-7,46.7-8.6v-8.1
					c2-0.2,4.2-0.4,6.4-0.7v8.3c8-0.6,16.1-1,24.4-1c11.2,0,21.8,0.6,31.5,1.5v-8.8c2.2,0.3,4.3,0.5,6.4,0.7v8.7
					c22.4,2.5,39,6.3,45.7,8.1c1.9-7.4,3.5-14.4,4.8-20.8c1.1-0.6,1.5-1.1,1.5-1.1c4.1-9.3,7.7-18.1,10.8-26.6
					c-1.5,5.6-2.7,9.5-3.1,10.9c-1.5,12.3-4.3,26.4-8.6,42.5l-0.8,3.2l-3.2-0.9C1788,634.5,1751.4,623.9,1703.4,623.9z"/>
			</g>
		</g>
		<g>
			<g>
				<path class="st5" d="M1672.6,563.4V577c-18.9,1.5-37,4.5-54.1,8.9c-0.2-0.4-0.5-0.9-0.7-1.3c-0.9-3.5-1.8-7.6-2.8-12.2
					C1633.2,567.8,1652.4,564.9,1672.6,563.4z"/>
			</g>
		</g>
	</g>
</g>
<g id="XMLID_26_">
	<g>
		<g>
			<g>
				<path class="st5" d="M1734.9,870.6v13.6c-9.8-0.7-20.3-1.2-31.5-1.2c-8.3,0-16.4,0.3-24.4,0.8v-13.6c7.9-0.4,15.9-0.7,24.1-0.7
					C1714.4,869.4,1725,869.9,1734.9,870.6z"/>
			</g>
		</g>
		<g>
			<g>
				<path class="st6" d="M1613.8,873.3c27.5-6.8,57.5-10.2,89.3-10.2c47.6,0,85.7,7.9,96.4,10.3c15.9-53.2,9.5-73.1,4.3-80.2
					c-4.2-5.7-73.5-22-102.4-22c-49.4,0-88,17.8-90.9,21.6C1599,808.1,1608.3,853.5,1613.8,873.3z M1672.6,884.2v-13.6
					c-20.2,1.5-39.5,4.5-57.6,9c1,4.6,1.9,8.7,2.8,12.2c0.2,0.4,0.5,0.9,0.7,1.3C1635.6,888.7,1653.7,885.8,1672.6,884.2z
					 M1799,879.8c-6.3-1.5-27.9-6.2-57.7-8.7v13.6c26.8,2.5,46.8,6.8,54.1,8.5C1796.8,888.5,1798,884,1799,879.8z M1808.9,789.3
					c15,15.9,1.7,72.6-4.9,97c-3.1,8.5-6.7,17.4-10.8,26.6c0,0-0.4,0.4-1.5,1.1c1-5.1,1.8-10,2.4-14.5c-6.8-1.6-26.4-5.9-52.9-8.4
					v27c-2-0.2-4.2-0.4-6.4-0.7v-26.9c-9.8-0.7-20.3-1.2-31.5-1.2c-8.3,0-16.4,0.3-24.4,0.8v27.3c-2.2,0.3-4.3,0.5-6.4,0.7v-27.5
					c-18.5,1.5-36.2,4.5-52.9,8.8c0.6,5,1.3,9.9,2.1,14.4c-0.8-0.5-1.1-0.9-1.1-0.9c-4.7-10.7-8.7-20.8-12.1-30.4
					c-6.9-26.6-17.7-77.9-3.2-93.6c4.5-4.9,49.1-24.1,96-24.1C1730.8,764.8,1802.6,782.6,1808.9,789.3z M1734.9,870.6
					c-9.9-0.7-20.5-1.1-31.8-1.1c-8.2,0-16.2,0.3-24.1,0.7v13.6c8-0.5,16.1-0.8,24.4-0.8c11.1,0,21.7,0.5,31.5,1.2V870.6z"/>
			</g>
		</g>
		<g>
			<g>
				<path class="st5" d="M1741.3,871.1c29.8,2.5,51.4,7.2,57.7,8.7c-1,4.2-2.2,8.7-3.6,13.5c-7.3-1.7-27.3-6-54.1-8.5V871.1z"/>
			</g>
		</g>
		<g>
			<g>
				<path class="st5" d="M1741.3,891.1c26.6,2.4,46.1,6.7,52.9,8.4c-0.6,4.6-1.4,9.4-2.4,14.5c-3.9,2.4-16.6,7.5-50.5,4.1V891.1z"/>
			</g>
		</g>
		<g>
			<g>
				<path class="st5" d="M1707,913c-10.5,2-19.8,3.5-27.9,4.5v-27.3c8-0.5,16.1-0.8,24.4-0.8c11.1,0,21.7,0.5,31.5,1.2v26.9
					C1726.7,916.5,1717.5,915,1707,913z"/>
			</g>
		</g>
		<g>
			<g>
				<path class="st10" d="M1804,886.3c6.6-24.4,19.9-81.1,4.9-97c-6.3-6.7-78.1-24.6-107.6-24.6c-46.9,0-91.5,19.3-96,24.1
					c-14.5,15.8-3.7,67,3.2,93.6c-65.8-186.1,98.4-186.1,98.4-186.1S1873.4,696.5,1804,886.3z"/>
			</g>
		</g>
		<g>
			<g>
				<path class="st5" d="M1672.6,890.7v27.5c-35.3,3.6-47.5-2.1-50.9-4.3c-0.8-4.5-1.5-9.4-2.1-14.4
					C1636.4,895.1,1654.1,892.2,1672.6,890.7z"/>
			</g>
		</g>
		<g>
			<g>
				<path class="st5" d="M1703.1,863.1c-31.8,0-61.8,3.5-89.3,10.2c-5.5-19.8-14.8-65.2-3.3-80.5c2.8-3.8,41.5-21.6,90.9-21.6
					c28.9,0,98.2,16.3,102.4,22c5.3,7.1,11.6,27-4.3,80.2C1788.8,870.9,1750.7,863.1,1703.1,863.1z"/>
			</g>
		</g>
		<g>
			<g>
				<path class="st6" d="M1703.4,931.1c-28.2,0-54.7,3.6-78.8,10.8l-3.2,0.9l-0.8-3.2c-0.3-1.3-5.1-20.2-7.4-40.8
					c0,0-2-6.5-4.6-16.3c3.4,9.6,7.4,19.8,12.1,30.4c0,0,0.3,0.3,1.1,0.9c1.6,9.2,3.2,16.9,4.2,21c14.8-4.2,30.4-7,46.7-8.6v-8.1
					c2-0.2,4.2-0.4,6.4-0.7v8.3c8-0.6,16.1-1,24.4-1c11.2,0,21.8,0.6,31.5,1.5v-8.8c2.2,0.3,4.3,0.5,6.4,0.7v8.7
					c22.4,2.5,39,6.3,45.7,8.1c1.9-7.4,3.5-14.4,4.8-20.8c1.1-0.6,1.5-1.1,1.5-1.1c4.1-9.3,7.7-18.1,10.8-26.6
					c-1.5,5.6-2.7,9.5-3.1,10.9c-1.5,12.3-4.3,26.4-8.6,42.5l-0.8,3.2l-3.2-0.9C1788,941.8,1751.4,931.1,1703.4,931.1z"/>
			</g>
		</g>
		<g>
			<g>
				<path class="st5" d="M1672.6,870.6v13.6c-18.9,1.5-37,4.5-54.1,8.9c-0.2-0.4-0.5-0.9-0.7-1.3c-0.9-3.5-1.8-7.6-2.8-12.2
					C1633.2,875.1,1652.4,872.1,1672.6,870.6z"/>
			</g>
		</g>
	</g>
</g>
<g id="XMLID_25_">
	<g>
		<g>
			<g>
				<path class="st5" d="M1734.9,1177.9v13.6c-9.8-0.7-20.3-1.2-31.5-1.2c-8.3,0-16.4,0.3-24.4,0.8v-13.6c7.9-0.4,15.9-0.7,24.1-0.7
					C1714.4,1176.7,1725,1177.2,1734.9,1177.9z"/>
			</g>
		</g>
		<g>
			<g>
				<path class="st6" d="M1613.8,1180.5c27.5-6.8,57.5-10.2,89.3-10.2c47.6,0,85.7,7.9,96.4,10.3c15.9-53.2,9.5-73.1,4.3-80.2
					c-4.2-5.7-73.5-22-102.4-22c-49.4,0-88,17.8-90.9,21.6C1599,1115.3,1608.3,1160.8,1613.8,1180.5z M1672.6,1191.5v-13.6
					c-20.2,1.5-39.5,4.5-57.6,9c1,4.6,1.9,8.7,2.8,12.2c0.2,0.4,0.5,0.9,0.7,1.3C1635.6,1196,1653.7,1193,1672.6,1191.5z M1799,1187
					c-6.3-1.5-27.9-6.2-57.7-8.7v13.6c26.8,2.5,46.8,6.8,54.1,8.5C1796.8,1195.7,1798,1191.3,1799,1187z M1808.9,1096.6
					c15,15.9,1.7,72.6-4.9,97c-3.1,8.5-6.7,17.4-10.8,26.6c0,0-0.4,0.4-1.5,1.1c1-5.1,1.8-10,2.4-14.5c-6.8-1.6-26.4-5.9-52.9-8.4
					v27c-2-0.2-4.2-0.4-6.4-0.7v-26.9c-9.8-0.7-20.3-1.2-31.5-1.2c-8.3,0-16.4,0.3-24.4,0.8v27.3c-2.2,0.3-4.3,0.5-6.4,0.7v-27.5
					c-18.5,1.5-36.2,4.5-52.9,8.8c0.6,5,1.3,9.9,2.1,14.4c-0.8-0.5-1.1-0.9-1.1-0.9c-4.7-10.7-8.7-20.8-12.1-30.4
					c-6.9-26.6-17.7-77.9-3.2-93.6c4.5-4.9,49.1-24.1,96-24.1C1730.8,1072,1802.6,1089.9,1808.9,1096.6z M1734.9,1177.9
					c-9.9-0.7-20.5-1.2-31.8-1.2c-8.2,0-16.2,0.3-24.1,0.7v13.6c8-0.5,16.1-0.8,24.4-0.8c11.1,0,21.7,0.5,31.5,1.2V1177.9z"/>
			</g>
		</g>
		<g>
			<g>
				<path class="st5" d="M1741.3,1178.4c29.8,2.5,51.4,7.2,57.7,8.7c-1,4.2-2.2,8.7-3.6,13.5c-7.3-1.7-27.3-6-54.1-8.5V1178.4z"/>
			</g>
		</g>
		<g>
			<g>
				<path class="st5" d="M1741.3,1198.4c26.6,2.4,46.1,6.7,52.9,8.4c-0.6,4.6-1.4,9.4-2.4,14.5c-3.9,2.4-16.6,7.5-50.5,4.1V1198.4z"
					/>
			</g>
		</g>
		<g>
			<g>
				<path class="st5" d="M1707,1220.2c-10.5,2-19.8,3.5-27.9,4.5v-27.3c8-0.5,16.1-0.8,24.4-0.8c11.1,0,21.7,0.5,31.5,1.2v26.9
					C1726.7,1223.7,1717.5,1222.3,1707,1220.2z"/>
			</g>
		</g>
		<g>
			<g>
				<path class="st10" d="M1804,1193.6c6.6-24.4,19.9-81.1,4.9-97c-6.3-6.7-78.1-24.6-107.6-24.6c-46.9,0-91.5,19.3-96,24.1
					c-14.5,15.8-3.7,67,3.2,93.6c-65.8-186.1,98.4-186.1,98.4-186.1S1873.4,1003.7,1804,1193.6z"/>
			</g>
		</g>
		<g>
			<g>
				<path class="st5" d="M1672.6,1197.9v27.5c-35.3,3.6-47.5-2.1-50.9-4.3c-0.8-4.5-1.5-9.4-2.1-14.4
					C1636.4,1202.4,1654.1,1199.5,1672.6,1197.9z"/>
			</g>
		</g>
		<g>
			<g>
				<path class="st5" d="M1703.1,1170.3c-31.8,0-61.8,3.5-89.3,10.2c-5.5-19.8-14.8-65.2-3.3-80.5c2.8-3.8,41.5-21.6,90.9-21.6
					c28.9,0,98.2,16.3,102.4,22c5.3,7.1,11.6,27-4.3,80.2C1788.8,1178.2,1750.7,1170.3,1703.1,1170.3z"/>
			</g>
		</g>
		<g>
			<g>
				<path class="st6" d="M1703.4,1238.4c-28.2,0-54.7,3.6-78.8,10.8l-3.2,0.9l-0.8-3.2c-0.3-1.3-5.1-20.2-7.4-40.8
					c0,0-2-6.5-4.6-16.3c3.4,9.6,7.4,19.8,12.1,30.4c0,0,0.3,0.3,1.1,0.9c1.6,9.2,3.2,16.9,4.2,21c14.8-4.2,30.4-7,46.7-8.6v-8.1
					c2-0.2,4.2-0.4,6.4-0.7v8.3c8-0.6,16.1-1,24.4-1c11.2,0,21.8,0.6,31.5,1.5v-8.8c2.2,0.3,4.3,0.5,6.4,0.7v8.7
					c22.4,2.5,39,6.3,45.7,8.1c1.9-7.4,3.5-14.4,4.8-20.8c1.1-0.6,1.5-1.1,1.5-1.1c4.1-9.3,7.7-18.1,10.8-26.6
					c-1.5,5.6-2.7,9.5-3.1,10.9c-1.5,12.3-4.3,26.4-8.6,42.5l-0.8,3.2l-3.2-0.9C1788,1249,1751.4,1238.4,1703.4,1238.4z"/>
			</g>
		</g>
		<g>
			<g>
				<path class="st5" d="M1672.6,1177.9v13.6c-18.9,1.5-37,4.5-54.1,8.9c-0.2-0.4-0.5-0.9-0.7-1.3c-0.9-3.5-1.8-7.6-2.8-12.2
					C1633.2,1182.4,1652.4,1179.4,1672.6,1177.9z"/>
			</g>
		</g>
	</g>
</g>
<g id="XMLID_24_">
	<g>
		<g>
			<g>
				<path class="st5" d="M1734.9,1485.1v13.6c-9.8-0.7-20.3-1.2-31.5-1.2c-8.3,0-16.4,0.3-24.4,0.8v-13.6c7.9-0.4,15.9-0.7,24.1-0.7
					C1714.4,1484,1725,1484.4,1734.9,1485.1z"/>
			</g>
		</g>
		<g>
			<g>
				<path class="st6" d="M1613.8,1487.8c27.5-6.8,57.5-10.2,89.3-10.2c47.6,0,85.7,7.9,96.4,10.3c15.9-53.2,9.5-73.1,4.3-80.2
					c-4.2-5.7-73.5-22-102.4-22c-49.4,0-88,17.8-90.9,21.6C1599,1422.6,1608.3,1468,1613.8,1487.8z M1672.6,1498.8v-13.6
					c-20.2,1.5-39.5,4.5-57.6,9c1,4.6,1.9,8.7,2.8,12.2c0.2,0.4,0.5,0.9,0.7,1.3C1635.6,1503.2,1653.7,1500.3,1672.6,1498.8z
					 M1799,1494.3c-6.3-1.5-27.9-6.2-57.7-8.7v13.6c26.8,2.5,46.8,6.8,54.1,8.5C1796.8,1503,1798,1498.5,1799,1494.3z
					 M1808.9,1403.8c15,15.9,1.7,72.6-4.9,97c-3.1,8.5-6.7,17.4-10.8,26.6c0,0-0.4,0.4-1.5,1.1c1-5.1,1.8-10,2.4-14.5
					c-6.8-1.6-26.4-5.9-52.9-8.4v27c-2-0.2-4.2-0.4-6.4-0.7v-26.9c-9.8-0.7-20.3-1.2-31.5-1.2c-8.3,0-16.4,0.3-24.4,0.8v27.3
					c-2.2,0.3-4.3,0.5-6.4,0.7v-27.5c-18.5,1.5-36.2,4.5-52.9,8.8c0.6,5,1.3,9.9,2.1,14.4c-0.8-0.5-1.1-0.9-1.1-0.9
					c-4.7-10.7-8.7-20.8-12.1-30.4c-6.9-26.6-17.7-77.9-3.2-93.6c4.5-4.9,49.1-24.1,96-24.1
					C1730.8,1379.3,1802.6,1397.1,1808.9,1403.8z M1734.9,1485.1c-9.9-0.7-20.5-1.1-31.8-1.1c-8.2,0-16.2,0.3-24.1,0.7v13.6
					c8-0.5,16.1-0.8,24.4-0.8c11.1,0,21.7,0.5,31.5,1.2V1485.1z"/>
			</g>
		</g>
		<g>
			<g>
				<path class="st5" d="M1741.3,1485.6c29.8,2.5,51.4,7.2,57.7,8.7c-1,4.2-2.2,8.7-3.6,13.5c-7.3-1.7-27.3-6-54.1-8.5V1485.6z"/>
			</g>
		</g>
		<g>
			<g>
				<path class="st5" d="M1741.3,1505.7c26.6,2.4,46.1,6.7,52.9,8.4c-0.6,4.6-1.4,9.4-2.4,14.5c-3.9,2.4-16.6,7.5-50.5,4.1V1505.7z"
					/>
			</g>
		</g>
		<g>
			<g>
				<path class="st5" d="M1707,1527.5c-10.5,2-19.8,3.5-27.9,4.5v-27.3c8-0.5,16.1-0.8,24.4-0.8c11.1,0,21.7,0.5,31.5,1.2v26.9
					C1726.7,1531,1717.5,1529.5,1707,1527.5z"/>
			</g>
		</g>
		<g>
			<g>
				<path class="st10" d="M1804,1500.9c6.6-24.4,19.9-81.1,4.9-97c-6.3-6.7-78.1-24.6-107.6-24.6c-46.9,0-91.5,19.3-96,24.1
					c-14.5,15.8-3.7,67,3.2,93.6C1542.7,1311,1707,1311,1707,1311S1873.4,1311,1804,1500.9z"/>
			</g>
		</g>
		<g>
			<g>
				<path class="st5" d="M1672.6,1505.2v27.5c-35.3,3.6-47.5-2.1-50.9-4.3c-0.8-4.5-1.5-9.4-2.1-14.4
					C1636.4,1509.7,1654.1,1506.7,1672.6,1505.2z"/>
			</g>
		</g>
		<g>
			<g>
				<path class="st5" d="M1703.1,1477.6c-31.8,0-61.8,3.4-89.3,10.2c-5.5-19.8-14.8-65.2-3.3-80.5c2.8-3.8,41.5-21.6,90.9-21.6
					c28.9,0,98.2,16.3,102.4,22c5.3,7.1,11.6,27-4.3,80.2C1788.8,1485.4,1750.7,1477.6,1703.1,1477.6z"/>
			</g>
		</g>
		<g>
			<g>
				<path class="st6" d="M1703.4,1545.7c-28.2,0-54.7,3.6-78.8,10.8l-3.2,0.9l-0.8-3.2c-0.3-1.3-5.1-20.2-7.4-40.8
					c0,0-2-6.5-4.6-16.3c3.4,9.6,7.4,19.8,12.1,30.4c0,0,0.3,0.3,1.1,0.9c1.6,9.2,3.2,16.9,4.2,21c14.8-4.2,30.4-7,46.7-8.6v-8.1
					c2-0.2,4.2-0.4,6.4-0.7v8.3c8-0.6,16.1-1,24.4-1c11.2,0,21.8,0.6,31.5,1.5v-8.8c2.2,0.3,4.3,0.5,6.4,0.7v8.7
					c22.4,2.5,39,6.3,45.7,8.1c1.9-7.4,3.5-14.4,4.8-20.8c1.1-0.6,1.5-1.1,1.5-1.1c4.1-9.3,7.7-18.1,10.8-26.6
					c-1.5,5.6-2.7,9.5-3.1,10.9c-1.5,12.3-4.3,26.4-8.6,42.5l-0.8,3.2l-3.2-0.9C1788,1556.3,1751.4,1545.7,1703.4,1545.7z"/>
			</g>
		</g>
		<g>
			<g>
				<path class="st5" d="M1672.6,1485.1v13.6c-18.9,1.5-37,4.5-54.1,8.9c-0.2-0.4-0.5-0.9-0.7-1.3c-0.9-3.5-1.8-7.6-2.8-12.2
					C1633.2,1489.6,1652.4,1486.7,1672.6,1485.1z"/>
			</g>
		</g>
	</g>
</g>
<g id="XMLID_23_">
	<g>
		<g>
			<g>
				<path class="st5" d="M1734.9,1792.4v13.6c-9.8-0.7-20.3-1.2-31.5-1.2c-8.3,0-16.4,0.3-24.4,0.8v-13.6c7.9-0.4,15.9-0.7,24.1-0.7
					C1714.4,1791.2,1725,1791.7,1734.9,1792.4z"/>
			</g>
		</g>
		<g>
			<g>
				<path class="st6" d="M1613.8,1795.1c27.5-6.8,57.5-10.2,89.3-10.2c47.6,0,85.7,7.9,96.4,10.3c15.9-53.2,9.5-73.1,4.3-80.2
					c-4.2-5.7-73.5-22-102.4-22c-49.4,0-88,17.8-90.9,21.6C1599,1729.8,1608.3,1775.3,1613.8,1795.1z M1672.6,1806v-13.6
					c-20.2,1.5-39.5,4.5-57.6,9c1,4.6,1.9,8.7,2.8,12.2c0.2,0.4,0.5,0.9,0.7,1.3C1635.6,1810.5,1653.7,1807.6,1672.6,1806z
					 M1799,1801.6c-6.3-1.5-27.9-6.2-57.7-8.7v13.6c26.8,2.5,46.8,6.8,54.1,8.5C1796.8,1810.3,1798,1805.8,1799,1801.6z
					 M1808.9,1711.1c15,15.9,1.7,72.6-4.9,97c-3.1,8.5-6.7,17.4-10.8,26.6c0,0-0.4,0.4-1.5,1.1c1-5.1,1.8-10,2.4-14.5
					c-6.8-1.6-26.4-5.9-52.9-8.4v27c-2-0.2-4.2-0.4-6.4-0.7v-26.9c-9.8-0.7-20.3-1.2-31.5-1.2c-8.3,0-16.4,0.3-24.4,0.8v27.3
					c-2.2,0.3-4.3,0.5-6.4,0.7v-27.5c-18.5,1.5-36.2,4.5-52.9,8.8c0.6,5,1.3,9.9,2.1,14.4c-0.8-0.5-1.1-0.9-1.1-0.9
					c-4.7-10.7-8.7-20.8-12.1-30.4c-6.9-26.6-17.7-77.9-3.2-93.6c4.5-4.9,49.1-24.1,96-24.1
					C1730.8,1686.6,1802.6,1704.4,1808.9,1711.1z M1734.9,1792.4c-9.9-0.7-20.5-1.1-31.8-1.1c-8.2,0-16.2,0.3-24.1,0.7v13.6
					c8-0.5,16.1-0.8,24.4-0.8c11.1,0,21.7,0.5,31.5,1.2V1792.4z"/>
			</g>
		</g>
		<g>
			<g>
				<path class="st5" d="M1741.3,1792.9c29.8,2.5,51.4,7.2,57.7,8.7c-1,4.2-2.2,8.7-3.6,13.5c-7.3-1.7-27.3-6-54.1-8.5V1792.9z"/>
			</g>
		</g>
		<g>
			<g>
				<path class="st5" d="M1741.3,1812.9c26.6,2.4,46.1,6.7,52.9,8.4c-0.6,4.6-1.4,9.4-2.4,14.5c-3.9,2.4-16.6,7.5-50.5,4.1V1812.9z"
					/>
			</g>
		</g>
		<g>
			<g>
				<path class="st5" d="M1707,1834.8c-10.5,2-19.8,3.5-27.9,4.5V1812c8-0.5,16.1-0.8,24.4-0.8c11.1,0,21.7,0.5,31.5,1.2v26.9
					C1726.7,1838.3,1717.5,1836.8,1707,1834.8z"/>
			</g>
		</g>
		<g>
			<g>
				<path class="st10" d="M1804,1808.1c6.6-24.4,19.9-81.1,4.9-97c-6.3-6.7-78.1-24.6-107.6-24.6c-46.9,0-91.5,19.3-96,24.1
					c-14.5,15.8-3.7,67,3.2,93.6c-65.8-186.1,98.4-186.1,98.4-186.1S1873.4,1618.3,1804,1808.1z"/>
			</g>
		</g>
		<g>
			<g>
				<path class="st5" d="M1672.6,1812.4v27.5c-35.3,3.6-47.5-2.1-50.9-4.3c-0.8-4.5-1.5-9.4-2.1-14.4
					C1636.4,1816.9,1654.1,1814,1672.6,1812.4z"/>
			</g>
		</g>
		<g>
			<g>
				<path class="st5" d="M1703.1,1784.8c-31.8,0-61.8,3.4-89.3,10.2c-5.5-19.8-14.8-65.2-3.3-80.5c2.8-3.8,41.5-21.6,90.9-21.6
					c28.9,0,98.2,16.3,102.4,22c5.3,7.1,11.6,27-4.3,80.2C1788.8,1792.7,1750.7,1784.8,1703.1,1784.8z"/>
			</g>
		</g>
		<g>
			<g>
				<path class="st6" d="M1703.4,1852.9c-28.2,0-54.7,3.6-78.8,10.8l-3.2,0.9l-0.8-3.2c-0.3-1.3-5.1-20.2-7.4-40.8
					c0,0-2-6.5-4.6-16.3c3.4,9.6,7.4,19.8,12.1,30.4c0,0,0.3,0.3,1.1,0.9c1.6,9.2,3.2,16.9,4.2,21c14.8-4.2,30.4-7,46.7-8.6v-8.1
					c2-0.2,4.2-0.4,6.4-0.7v8.3c8-0.6,16.1-1,24.4-1c11.2,0,21.8,0.6,31.5,1.5v-8.8c2.2,0.3,4.3,0.5,6.4,0.7v8.7
					c22.4,2.5,39,6.3,45.7,8.1c1.9-7.4,3.5-14.4,4.8-20.8c1.1-0.6,1.5-1.1,1.5-1.1c4.1-9.3,7.7-18.1,10.8-26.6
					c-1.5,5.6-2.7,9.5-3.1,10.9c-1.5,12.3-4.3,26.4-8.6,42.5l-0.8,3.2l-3.2-0.9C1788,1863.6,1751.4,1852.9,1703.4,1852.9z"/>
			</g>
		</g>
		<g>
			<g>
				<path class="st5" d="M1672.6,1792.4v13.6c-18.9,1.5-37,4.5-54.1,8.9c-0.2-0.4-0.5-0.9-0.7-1.3c-0.9-3.5-1.8-7.6-2.8-12.2
					C1633.2,1796.9,1652.4,1793.9,1672.6,1792.4z"/>
			</g>
		</g>
	</g>
</g>
<g id="XMLID_22_">
	<g>
		<g>
			<g>
				<path class="st5" d="M1734.9,2099.6v13.6c-9.8-0.7-20.3-1.2-31.5-1.2c-8.3,0-16.4,0.3-24.4,0.8v-13.6c7.9-0.4,15.9-0.7,24.1-0.7
					C1714.4,2098.5,1725,2098.9,1734.9,2099.6z"/>
			</g>
		</g>
		<g>
			<g>
				<path class="st6" d="M1613.8,2102.3c27.5-6.8,57.5-10.2,89.3-10.2c47.6,0,85.7,7.9,96.4,10.3c15.9-53.2,9.5-73.1,4.3-80.2
					c-4.2-5.7-73.5-22-102.4-22c-49.4,0-88,17.8-90.9,21.6C1599,2037.1,1608.3,2082.6,1613.8,2102.3z M1672.6,2113.3v-13.6
					c-20.2,1.5-39.5,4.5-57.6,9c1,4.6,1.9,8.7,2.8,12.2c0.2,0.4,0.5,0.9,0.7,1.3C1635.6,2117.8,1653.7,2114.8,1672.6,2113.3z
					 M1799,2108.8c-6.3-1.5-27.9-6.2-57.7-8.7v13.6c26.8,2.5,46.8,6.8,54.1,8.5C1796.8,2117.5,1798,2113.1,1799,2108.8z
					 M1808.9,2018.4c15,15.9,1.7,72.6-4.9,97c-3.1,8.5-6.7,17.4-10.8,26.6c0,0-0.4,0.4-1.5,1.1c1-5.1,1.8-10,2.4-14.5
					c-6.8-1.6-26.4-5.9-52.9-8.4v27c-2-0.2-4.2-0.4-6.4-0.7v-26.9c-9.8-0.7-20.3-1.2-31.5-1.2c-8.3,0-16.4,0.3-24.4,0.8v27.3
					c-2.2,0.3-4.3,0.5-6.4,0.7v-27.5c-18.5,1.5-36.2,4.5-52.9,8.8c0.6,5,1.3,9.9,2.1,14.4c-0.8-0.5-1.1-0.9-1.1-0.9
					c-4.7-10.7-8.7-20.8-12.1-30.4c-6.9-26.6-17.7-77.9-3.2-93.6c4.5-4.9,49.1-24.1,96-24.1
					C1730.8,1993.8,1802.6,2011.7,1808.9,2018.4z M1734.9,2099.6c-9.9-0.7-20.5-1.1-31.8-1.1c-8.2,0-16.2,0.3-24.1,0.7v13.6
					c8-0.5,16.1-0.8,24.4-0.8c11.1,0,21.7,0.5,31.5,1.2V2099.6z"/>
			</g>
		</g>
		<g>
			<g>
				<path class="st5" d="M1741.3,2100.1c29.8,2.5,51.4,7.2,57.7,8.7c-1,4.2-2.2,8.7-3.6,13.5c-7.3-1.7-27.3-6-54.1-8.5V2100.1z"/>
			</g>
		</g>
		<g>
			<g>
				<path class="st5" d="M1741.3,2120.2c26.6,2.4,46.1,6.7,52.9,8.4c-0.6,4.6-1.4,9.4-2.4,14.5c-3.9,2.4-16.6,7.5-50.5,4.1V2120.2z"
					/>
			</g>
		</g>
		<g>
			<g>
				<path class="st5" d="M1707,2142c-10.5,2-19.8,3.5-27.9,4.5v-27.3c8-0.5,16.1-0.8,24.4-0.8c11.1,0,21.7,0.5,31.5,1.2v26.9
					C1726.7,2145.5,1717.5,2144.1,1707,2142z"/>
			</g>
		</g>
		<g>
			<g>
				<path class="st10" d="M1804,2115.4c6.6-24.4,19.9-81.1,4.9-97c-6.3-6.7-78.1-24.6-107.6-24.6c-46.9,0-91.5,19.3-96,24.1
					c-14.5,15.8-3.7,67,3.2,93.6c-65.8-186.1,98.4-186.1,98.4-186.1S1873.4,1925.5,1804,2115.4z"/>
			</g>
		</g>
		<g>
			<g>
				<path class="st5" d="M1672.6,2119.7v27.5c-35.3,3.6-47.5-2.1-50.9-4.3c-0.8-4.5-1.5-9.4-2.1-14.4
					C1636.4,2124.2,1654.1,2121.2,1672.6,2119.7z"/>
			</g>
		</g>
		<g>
			<g>
				<path class="st5" d="M1703.1,2092.1c-31.8,0-61.8,3.4-89.3,10.2c-5.5-19.8-14.8-65.2-3.3-80.5c2.8-3.8,41.5-21.6,90.9-21.6
					c28.9,0,98.2,16.3,102.4,22c5.3,7.1,11.6,27-4.3,80.2C1788.8,2100,1750.7,2092.1,1703.1,2092.1z"/>
			</g>
		</g>
		<g>
			<g>
				<path class="st6" d="M1703.4,2160.2c-28.2,0-54.7,3.6-78.8,10.8l-3.2,0.9l-0.8-3.2c-0.3-1.3-5.1-20.2-7.4-40.8
					c0,0-2-6.5-4.6-16.3c3.4,9.6,7.4,19.8,12.1,30.4c0,0,0.3,0.3,1.1,0.9c1.6,9.2,3.2,16.9,4.2,21c14.8-4.2,30.4-7,46.7-8.6v-8.1
					c2-0.2,4.2-0.4,6.4-0.7v8.3c8-0.6,16.1-1,24.4-1c11.2,0,21.8,0.6,31.5,1.5v-8.8c2.2,0.3,4.3,0.5,6.4,0.7v8.7
					c22.4,2.5,39,6.3,45.7,8.1c1.9-7.4,3.5-14.4,4.8-20.8c1.1-0.6,1.5-1.1,1.5-1.1c4.1-9.3,7.7-18.1,10.8-26.6
					c-1.5,5.6-2.7,9.5-3.1,10.9c-1.5,12.3-4.3,26.4-8.6,42.5l-0.8,3.2l-3.2-0.9C1788,2170.8,1751.4,2160.2,1703.4,2160.2z"/>
			</g>
		</g>
		<g>
			<g>
				<path class="st5" d="M1672.6,2099.7v13.6c-18.9,1.5-37,4.5-54.1,8.9c-0.2-0.4-0.5-0.9-0.7-1.3c-0.9-3.5-1.8-7.6-2.8-12.2
					C1633.2,2104.2,1652.4,2101.2,1672.6,2099.7z"/>
			</g>
		</g>
	</g>
</g>
<g id="XMLID_21_">
	<g>
		<g>
			<g>
				<path class="st5" d="M1734.9,2406.9v13.6c-9.8-0.7-20.3-1.2-31.5-1.2c-8.3,0-16.4,0.3-24.4,0.8v-13.6c7.9-0.4,15.9-0.7,24.1-0.7
					C1714.4,2405.8,1725,2406.2,1734.9,2406.9z"/>
			</g>
		</g>
		<g>
			<g>
				<path class="st6" d="M1613.8,2409.6c27.5-6.8,57.5-10.2,89.3-10.2c47.6,0,85.7,7.9,96.4,10.3c15.9-53.2,9.5-73.1,4.3-80.2
					c-4.2-5.7-73.5-22-102.4-22c-49.4,0-88,17.8-90.9,21.6C1599,2344.4,1608.3,2389.8,1613.8,2409.6z M1672.6,2420.6v-13.6
					c-20.2,1.5-39.5,4.5-57.6,9c1,4.6,1.9,8.7,2.8,12.2c0.2,0.4,0.5,0.9,0.7,1.3C1635.6,2425,1653.7,2422.1,1672.6,2420.6z
					 M1799,2416.1c-6.3-1.5-27.9-6.2-57.7-8.7v13.6c26.8,2.5,46.8,6.8,54.1,8.5C1796.8,2424.8,1798,2420.3,1799,2416.1z
					 M1808.9,2325.6c15,15.9,1.7,72.6-4.9,97c-3.1,8.5-6.7,17.4-10.8,26.6c0,0-0.4,0.4-1.5,1.1c1-5.1,1.8-10,2.4-14.5
					c-6.8-1.6-26.4-5.9-52.9-8.4v27c-2-0.2-4.2-0.4-6.4-0.7v-26.9c-9.8-0.7-20.3-1.2-31.5-1.2c-8.3,0-16.4,0.3-24.4,0.8v27.3
					c-2.2,0.3-4.3,0.5-6.4,0.7V2427c-18.5,1.5-36.2,4.5-52.9,8.8c0.6,5,1.3,9.9,2.1,14.4c-0.8-0.5-1.1-0.9-1.1-0.9
					c-4.7-10.7-8.7-20.8-12.1-30.4c-6.9-26.6-17.7-77.9-3.2-93.6c4.5-4.9,49.1-24.1,96-24.1
					C1730.8,2301.1,1802.6,2318.9,1808.9,2325.6z M1734.9,2406.9c-9.9-0.7-20.5-1.1-31.8-1.1c-8.2,0-16.2,0.3-24.1,0.7v13.6
					c8-0.5,16.1-0.8,24.4-0.8c11.1,0,21.7,0.5,31.5,1.2V2406.9z"/>
			</g>
		</g>
		<g>
			<g>
				<path class="st5" d="M1741.3,2407.4c29.8,2.5,51.4,7.2,57.7,8.7c-1,4.2-2.2,8.7-3.6,13.5c-7.3-1.7-27.3-6-54.1-8.5V2407.4z"/>
			</g>
		</g>
		<g>
			<g>
				<path class="st5" d="M1741.3,2427.5c26.6,2.4,46.1,6.7,52.9,8.4c-0.6,4.6-1.4,9.4-2.4,14.5c-3.9,2.4-16.6,7.5-50.5,4.1V2427.5z"
					/>
			</g>
		</g>
		<g>
			<g>
				<path class="st5" d="M1707,2449.3c-10.5,2-19.8,3.5-27.9,4.5v-27.3c8-0.5,16.1-0.8,24.4-0.8c11.1,0,21.7,0.5,31.5,1.2v26.9
					C1726.7,2452.8,1717.5,2451.3,1707,2449.3z"/>
			</g>
		</g>
		<g>
			<g>
				<path class="st10" d="M1804,2422.6c6.6-24.4,19.9-81.1,4.9-97c-6.3-6.7-78.1-24.6-107.6-24.6c-46.9,0-91.5,19.3-96,24.1
					c-14.5,15.8-3.7,67,3.2,93.6c-65.8-186.1,98.4-186.1,98.4-186.1S1873.4,2232.8,1804,2422.6z"/>
			</g>
		</g>
		<g>
			<g>
				<path class="st5" d="M1672.6,2427v27.5c-35.3,3.6-47.5-2.1-50.9-4.3c-0.8-4.5-1.5-9.4-2.1-14.4
					C1636.4,2431.4,1654.1,2428.5,1672.6,2427z"/>
			</g>
		</g>
		<g>
			<g>
				<path class="st5" d="M1703.1,2399.4c-31.8,0-61.8,3.4-89.3,10.2c-5.5-19.8-14.8-65.2-3.3-80.5c2.8-3.8,41.5-21.6,90.9-21.6
					c28.9,0,98.2,16.3,102.4,22c5.3,7.1,11.6,27-4.3,80.2C1788.8,2407.2,1750.7,2399.4,1703.1,2399.4z"/>
			</g>
		</g>
		<g>
			<g>
				<path class="st6" d="M1703.4,2467.4c-28.2,0-54.7,3.6-78.8,10.8l-3.2,0.9l-0.8-3.2c-0.3-1.3-5.1-20.2-7.4-40.8
					c0,0-2-6.5-4.6-16.3c3.4,9.6,7.4,19.8,12.1,30.4c0,0,0.3,0.3,1.1,0.9c1.6,9.2,3.2,16.9,4.2,21c14.8-4.2,30.4-7,46.7-8.6v-8.1
					c2-0.2,4.2-0.4,6.4-0.7v8.3c8-0.6,16.1-1,24.4-1c11.2,0,21.8,0.6,31.5,1.5v-8.8c2.2,0.3,4.3,0.5,6.4,0.7v8.7
					c22.4,2.5,39,6.3,45.7,8.1c1.9-7.4,3.5-14.4,4.8-20.8c1.1-0.6,1.5-1.1,1.5-1.1c4.1-9.3,7.7-18.1,10.8-26.6
					c-1.5,5.6-2.7,9.5-3.1,10.9c-1.5,12.3-4.3,26.4-8.6,42.5l-0.8,3.2l-3.2-0.9C1788,2478.1,1751.4,2467.4,1703.4,2467.4z"/>
			</g>
		</g>
		<g>
			<g>
				<path class="st5" d="M1672.6,2406.9v13.6c-18.9,1.5-37,4.5-54.1,8.9c-0.2-0.4-0.5-0.9-0.7-1.3c-0.9-3.5-1.8-7.6-2.8-12.2
					C1633.2,2411.4,1652.4,2408.4,1672.6,2406.9z"/>
			</g>
		</g>
	</g>
</g>
<text transform="matrix(1 0 0 1 393.1589 278.7072)" class="st6 st11 st12">PLAYER</text>
<text transform="matrix(1 0 0 1 393.1589 583.8833)" class="st6 st11 st12">PLAYER</text>
<text transform="matrix(1 0 0 1 393.1589 889.0596)" class="st6 st11 st12">PLAYER</text>
<text transform="matrix(1 0 0 1 393.1589 1194.2358)" class="st6 st11 st12">PLAYER</text>
<text transform="matrix(1 0 0 1 393.1589 1513.0464)" class="st6 st11 st12">PLAYER</text>
<text transform="matrix(1 0 0 1 393.1589 1818.2227)" class="st6 st11 st12">PLAYER</text>
<text transform="matrix(1 0 0 1 393.1589 2123.3989)" class="st6 st11 st12">PLAYER</text>
<text transform="matrix(1 0 0 1 393.1589 2428.5757)" class="st6 st11 st12">PLAYER</text>
<text transform="matrix(1 0 0 1 1133.1589 278.7072)" class="st6 st11 st12">PLAYER</text>
<text transform="matrix(1 0 0 1 1133.1589 583.8833)" class="st6 st11 st12">PLAYER</text>
<text transform="matrix(1 0 0 1 1133.1589 889.0596)" class="st6 st11 st12">PLAYER</text>
<text transform="matrix(1 0 0 1 1133.1589 1194.2358)" class="st6 st11 st12">PLAYER</text>
<text transform="matrix(1 0 0 1 1133.1589 1513.0464)" class="st6 st11 st12">PLAYER</text>
<text transform="matrix(1 0 0 1 1133.1589 1818.2227)" class="st6 st11 st12">PLAYER</text>
<text transform="matrix(1 0 0 1 1133.1589 2123.3989)" class="st6 st11 st12">PLAYER</text>
<text transform="matrix(1 0 0 1 1133.1589 2428.5757)" class="st6 st11 st12">PLAYER</text>
<text transform="matrix(1 0 0 1 1873.1591 278.7072)" class="st6 st11 st12">PLAYER</text>
<text transform="matrix(1 0 0 1 1873.1591 583.8833)" class="st6 st11 st12">PLAYER</text>
<text transform="matrix(1 0 0 1 1873.1591 889.0596)" class="st6 st11 st12">PLAYER</text>
<text transform="matrix(1 0 0 1 1873.1591 1194.2358)" class="st6 st11 st12">PLAYER</text>
<text transform="matrix(1 0 0 1 1873.1591 1513.0464)" class="st6 st11 st12">PLAYER</text>
<text transform="matrix(1 0 0 1 2582.1777 180.5173)" class="st6 st11 st13">COACH</text>
<text transform="matrix(1 0 0 1 2631.2324 289.3063)" class="st6 st11 st14">COACH</text>
<text transform="matrix(1 0 0 1 2631.2324 393.0041)" class="st6 st11 st14">COACH</text>
<text transform="matrix(1 0 0 1 2631.2324 496.7004)" class="st6 st11 st14">COACH</text>
<text transform="matrix(1 0 0 1 3296.4922 185.9357)" class="st6 st11 st15">CHEERLEADERS</text>
<text transform="matrix(1 0 0 1 3131.4492 290.9601)" class="st6 st11 st16">CHEERLEADER1</text>
<text transform="matrix(1 0 0 1 3131.4492 391.0666)" class="st6 st11 st16">CHEERLEADER2</text>
<text transform="matrix(1 0 0 1 3131.4492 491.1725)" class="st6 st11 st16">CHEERLEADER3</text>
<text transform="matrix(1 0 0 1 3692.9307 290.9601)" class="st6 st11 st16">CHEERLEADER4</text>
<text transform="matrix(1 0 0 1 3692.9307 391.0666)" class="st6 st11 st16">CHEERLEADER5</text>
<text transform="matrix(1 0 0 1 3692.9307 491.1725)" class="st6 st11 st16">CHEERLEADER6</text>
<text transform="matrix(1 0 0 1 1873.1591 1818.2227)" class="st6 st11 st12">PLAYER</text>
<text transform="matrix(1 0 0 1 1873.1591 2123.3989)" class="st6 st11 st12">PLAYER</text>
<text transform="matrix(1 0 0 1 1873.1591 2428.5757)" class="st6 st11 st12">PLAYER</text>
</svg>
