<?xml version="1.0" encoding="utf-8"?>
<!-- Generator: Adobe Illustrator 23.0.0, SVG Export Plug-In . SVG Version: 6.00 Build 0)  -->
<svg version="1.1" id="Layer_1" xmlns="http://www.w3.org/2000/svg" xmlns:xlink="http://www.w3.org/1999/xlink" x="0px" y="0px"
	 viewBox="0 0 1687.68 1466.64" style="enable-background:new 0 0 1687.68 1466.64;" xml:space="preserve">
<style type="text/css">
	.st0{fill:url(#SVGID_1_);}
	.st1{fill:#00AEA5;}
	.st2{fill:url(#SVGID_2_);}
	.st3{fill:#939598;}
	.st4{clip-path:url(#XMLID_7998_);fill:#EAE6D4;}
	.st5{clip-path:url(#XMLID_7998_);}
	.st6{fill:#004C5B;}
	.st7{clip-path:url(#XMLID_7998_);fill:#F2A700;}
	.st8{clip-path:url(#XMLID_7998_);fill:#FCC454;}
	.st9{clip-path:url(#XMLID_7998_);fill:#000D59;}
	.st10{clip-path:url(#XMLID_7998_);fill:#005BBF;}
	.st11{fill:#EAE6D4;}
	.st12{fill:#000D59;}
	.st13{fill:#FF8D3D;}
	.st14{opacity:0.7;fill:#FFAE7A;}
	.st15{clip-path:url(#XMLID_8008_);}
	.st16{clip-path:url(#SVGID_4_);}
	.st17{clip-path:url(#XMLID_8011_);fill:#EAE6D4;}
	.st18{clip-path:url(#XMLID_8011_);}
	.st19{clip-path:url(#XMLID_8011_);fill:#F2A700;}
	.st20{clip-path:url(#XMLID_8011_);fill:#FCC454;}
	.st21{clip-path:url(#XMLID_8011_);fill:#000D59;}
	.st22{clip-path:url(#XMLID_8011_);fill:#005BBF;}
	.st23{clip-path:url(#XMLID_8012_);}
	.st24{clip-path:url(#XMLID_8013_);}
	.st25{clip-path:url(#XMLID_8014_);fill:#EAE6D4;}
	.st26{clip-path:url(#XMLID_8014_);}
	.st27{clip-path:url(#XMLID_8014_);fill:#F2A700;}
	.st28{clip-path:url(#XMLID_8014_);fill:#FCC454;}
	.st29{clip-path:url(#XMLID_8014_);fill:#000D59;}
	.st30{clip-path:url(#XMLID_8014_);fill:#005BBF;}
	.st31{clip-path:url(#XMLID_8016_);}
	.st32{fill:#BEC0C2;}
	.st33{fill:#FFFFFF;}
	.st34{fill:#00265D;}
	.st35{fill:#FFC422;}
	.st36{fill:none;}
	.st37{opacity:0.39;}
	.st38{fill-rule:evenodd;clip-rule:evenodd;fill:#FFC422;}
	.st39{fill-rule:evenodd;clip-rule:evenodd;fill:#FE9017;}
	.st40{fill-rule:evenodd;clip-rule:evenodd;fill:#725B5B;}
	.st41{fill-rule:evenodd;clip-rule:evenodd;fill:#FFFFFF;}
	.st42{fill-rule:evenodd;clip-rule:evenodd;fill:#003B71;}
	.st43{fill-rule:evenodd;clip-rule:evenodd;fill:#FF6600;}
	.st44{fill:#00265D;stroke:#FFF200;stroke-width:5.7129;stroke-miterlimit:10;}
	.st45{font-family:'DKStickyToffee-Regular';}
	.st46{font-size:162.3471px;}
	.st47{clip-path:url(#XMLID_8018_);fill:#EAE6D4;}
	.st48{clip-path:url(#XMLID_8018_);}
	.st49{clip-path:url(#XMLID_8018_);fill:#F2A700;}
	.st50{clip-path:url(#XMLID_8018_);fill:#FCC454;}
	.st51{clip-path:url(#XMLID_8018_);fill:#000D59;}
	.st52{clip-path:url(#XMLID_8018_);fill:#005BBF;}
	.st53{clip-path:url(#XMLID_8021_);}
</style>
<g id="XMLID_4261_">
	<defs>
		<polygon id="SVGID_3_" points="1689.84,0.71 843.84,1465.93 -2.16,0.71 		"/>
	</defs>
	<clipPath id="SVGID_1_">
		<use xlink:href="#SVGID_3_"  style="overflow:visible;"/>
	</clipPath>
	<g id="XMLID_4262_" style="clip-path:url(#SVGID_1_);">
		<g id="XMLID_4289_">
			<defs>
				<rect id="XMLID_4290_" x="-2.16" y="-54.54" width="2168" height="1578.1"/>
			</defs>
			<clipPath id="XMLID_7998_">
				<use xlink:href="#XMLID_4290_"  style="overflow:visible;"/>
			</clipPath>
			<rect id="XMLID_4467_" x="-2.16" y="-54.54" class="st4" width="2168" height="1067.02"/>
			<g id="XMLID_4454_" class="st5">
				<g id="XMLID_4464_">
					<path class="st6" d="M-24.28,728.28c92.66-52.62,185.8-104.37,279.09-155.81l34.98-19.3l35.03-19.22l70.07-38.41l140.34-76.44
						l140.6-75.97l70.41-37.79l35.21-18.89l35.26-18.79c94-50.15,188.17-100,282.81-148.97
						c-92.66,52.63-185.79,104.38-279.09,155.83l-34.98,19.31l-35.03,19.21l-70.07,38.41L540,427.88l-140.61,75.95l-70.4,37.79
						l-35.21,18.88l-35.26,18.79C164.52,629.45,70.35,679.3-24.28,728.28z"/>
				</g>
				<g id="XMLID_4461_">
					<path class="st6" d="M-24.28,834.85c111.96-39.33,224.23-77.72,336.6-115.78l42.14-14.29l42.17-14.19l84.35-28.36l168.83-56.31
						l169-55.8l84.57-27.69l42.29-13.83l42.32-13.73c112.84-36.67,225.79-73,339.06-108.39c-111.95,39.34-224.22,77.73-336.6,115.79
						l-42.14,14.29l-42.17,14.19l-84.35,28.36l-168.83,56.29l-169,55.78l-84.57,27.69l-42.29,13.83l-42.32,13.74
						C201.93,763.11,88.98,799.45-24.28,834.85z"/>
				</g>
				<g id="XMLID_4458_">
					<path class="st6" d="M-24.28,765.64c110.65-55.42,221.72-109.95,332.95-164.17l41.7-20.35l41.75-20.26l83.51-40.48l167.2-80.58
						l167.43-80.1l83.81-39.85l41.91-19.92l41.96-19.82c111.86-52.9,223.87-105.47,336.32-157.15
						c-110.64,55.43-221.71,109.97-332.94,164.19l-41.7,20.35l-41.75,20.25l-83.5,40.49l-167.2,80.57l-167.43,80.09l-83.81,39.85
						l-41.91,19.91l-41.95,19.82C200.17,661.36,88.16,713.94-24.28,765.64z"/>
				</g>
				<g id="XMLID_4455_">
					<path class="st6" d="M-23.06,800.14c120.6-51.95,241.58-102.99,362.68-153.7l90.86-37.97l90.91-37.85l181.98-75.31
						l182.18-74.81l91.18-37.2l45.59-18.59l45.63-18.49c121.67-49.36,243.47-98.39,365.65-146.5
						c-120.6,51.96-241.57,103-362.68,153.72l-45.41,19.03l-45.45,18.94l-90.91,37.85l-181.98,75.3l-182.19,74.8l-91.17,37.2
						l-91.23,37.08C220.92,702.98,99.12,752.01-23.06,800.14z"/>
				</g>
			</g>
			<polygon id="XMLID_4451_" class="st7" points="-24.28,666.6 1167.45,2.11 -24.28,2.11 			"/>
			<polygon id="XMLID_4448_" class="st8" points="-24.28,585.87 834.23,-83.02 -24.28,2.11 			"/>
			<polygon id="XMLID_4445_" class="st9" points="-48.07,868.16 2206.93,225.76 2187.42,1050.52 -24.28,1050.52 			"/>
			<polygon id="XMLID_4442_" class="st10" points="-48.07,881.08 2206.93,400.13 2187.42,1050.52 -24.28,1050.52 			"/>
			<polygon id="XMLID_4439_" class="st9" points="2187.42,1210.12 2206.93,640.47 -48.07,1053.6 -24.28,1210.12 			"/>
			<polygon id="XMLID_4436_" class="st10" points="2187.42,994.97 2206.93,783.76 -48.07,1032.2 -24.28,1156.43 			"/>
			<polygon id="XMLID_4433_" class="st7" points="2187.42,1310.9 2206.93,1035.1 -48.07,1202.81 -45.17,1310.9 			"/>
			<g id="XMLID_4420_" class="st5">
				<g id="XMLID_4430_">
					<path class="st6" d="M16.04,875.28c104.64-20.13,209.45-39.29,314.32-58.1l39.32-7.07l39.34-6.97l78.68-13.91l157.44-27.41
						l157.53-26.88l78.8-13.22l39.4-6.6l39.42-6.5c105.12-17.37,210.29-34.39,315.64-50.43c-104.64,20.14-209.45,39.3-314.31,58.12
						l-39.32,7.07l-39.34,6.97l-78.68,13.92l-157.44,27.39l-157.54,26.86l-78.8,13.22l-39.4,6.59l-39.42,6.5
						C226.56,842.21,121.39,859.23,16.04,875.28z"/>
				</g>
				<g id="XMLID_4427_">
					<path class="st6" d="M-18.13,976.23c118.66-1.35,237.31-1.72,355.95-1.74l44.49-0.02l44.49,0.08l88.98,0.18l177.97,0.8
						l177.96,1.33l88.98,0.89l44.49,0.45l44.49,0.56c118.64,1.45,237.28,3.25,355.91,6.05c-118.66,1.37-237.31,1.74-355.95,1.76
						l-44.49,0.02l-44.49-0.08l-88.98-0.18l-177.97-0.81l-177.96-1.35l-88.98-0.89l-44.49-0.46l-44.49-0.56
						C219.14,980.81,100.5,979.01-18.13,976.23z"/>
				</g>
				<g id="XMLID_4424_">
					<path class="st6" d="M4.06,910.67c122.58-17.02,245.27-33.06,368.01-48.75l46.02-5.9l46.04-5.8l92.08-11.57l184.21-22.72
						l184.27-22.19l92.16-10.87l46.08-5.43l46.1-5.32c122.92-14.24,245.87-28.12,368.95-41.02
						c-122.57,17.03-245.27,33.08-368.01,48.77l-46.02,5.9l-46.04,5.8l-92.08,11.58l-184.21,22.71l-184.27,22.17l-92.16,10.88
						l-46.08,5.42l-46.1,5.32C250.1,883.86,127.14,897.76,4.06,910.67z"/>
				</g>
				<g id="XMLID_4421_">
					<path class="st6" d="M-5.84,943.74c130.89-10.54,261.84-20.1,392.82-29.31l98.24-6.84l98.24-6.71l196.52-12.99l196.55-12.45
						l98.29-6l49.15-2.99l49.15-2.89c131.07-7.74,262.16-15.13,393.32-21.53c-130.89,10.55-261.84,20.11-392.82,29.32l-49.11,3.47
						l-49.12,3.36l-98.24,6.71l-196.52,12.98l-196.55,12.44l-98.29,6.01l-98.3,5.87C256.41,929.93,125.32,937.33-5.84,943.74z"/>
				</g>
			</g>
			<polygon id="XMLID_4417_" class="st9" points="2187.42,1523.56 2206.93,1170.29 -48.07,1260.5 -45.17,1523.56 			"/>
			<g id="XMLID_4291_" class="st5">
				<g id="XMLID_4381_">
					<circle id="XMLID_4414_" class="st11" cx="884.1" cy="752.17" r="387.27"/>
					<circle id="XMLID_4411_" class="st12" cx="884.1" cy="752.17" r="364.68"/>
					
						<ellipse id="XMLID_4385_" transform="matrix(0.7071 -0.7071 0.7071 0.7071 -265.0662 832.292)" class="st13" cx="872.13" cy="736.11" rx="339.78" ry="339.78"/>
					<circle id="XMLID_4382_" class="st14" cx="831.14" cy="695.12" r="229.75"/>
				</g>
				<g id="XMLID_4302_">
					<defs>
						
							<ellipse id="XMLID_4315_" transform="matrix(0.7071 -0.7071 0.7071 0.7071 -265.0662 832.292)" cx="872.13" cy="736.11" rx="339.78" ry="339.78"/>
					</defs>
					<clipPath id="XMLID_8008_">
						<use xlink:href="#XMLID_4315_"  style="overflow:visible;"/>
					</clipPath>
					<g id="XMLID_4347_" class="st15">
						<g>
							<path class="st6" d="M504.34,820.37c61.03,17.81,124.58,26.09,188.14,24.76c63.55-1.33,126.91-12.13,187.27-32.07
								c58.78-19.41,115.05-47.43,164.98-84.12c46.49-34.17,87.86-75.85,119.9-123.94c31.46-47.21,53.49-100.78,60.95-157.19
								c0.92-6.99,1.6-14,2.09-21.03c0.11-1.64-2.17-5.23-2.79-6.39c-1.82-3.38-3.88-6.69-6.04-9.85c-1.64-2.4-3.31-5.21-5.5-7.13
								c-0.56-0.49-1.86-2.14-1.97-0.54c-3.91,56.85-23.02,111.56-52.3,160.24c-29.61,49.22-69.11,92.25-113.98,127.95
								c-47.56,37.84-101.56,67.33-158.43,88.6c-59.27,22.16-121.9,35.32-185.06,39.12c-63.14,3.8-126.89-1.71-188.3-16.96
								c-7.92-1.97-15.8-4.1-23.64-6.38c-2.38-0.69,3.3,9.24,3.76,10.02c1.95,3.32,4.05,6.57,6.35,9.66
								C500.8,816.55,502.62,819.87,504.34,820.37L504.34,820.37z"/>
						</g>
					</g>
					<g id="XMLID_4331_" class="st15">
						<g>
							<path class="st6" d="M1015.92,1115.74c18.98-58.37,27.2-119.77,24.19-181.08c-2.98-60.77-16.48-121.19-40.26-177.21
								c-23.19-54.63-56.35-104.53-97.36-147.4c-39.43-41.21-85.91-75.63-136.66-101.63c-51.21-26.24-106.62-44.28-163.69-51.94
								c-7.51-1.01-15.03-1.89-22.57-2.59c-6.66-0.62-15.18,3.73-19.28,8.84c-3.99,4.96-1.65,8.75,4.27,9.31
								c55.23,5.15,109.83,20.32,160.05,43.84c50.96,23.86,98.02,56.06,138.58,95.08c41.27,39.7,75.2,86.54,99.99,138.17
								c25.89,53.92,42.02,112.54,47.5,172.09c5.48,59.67,0.6,120.35-15.18,178.19c-1.88,6.89-3.94,13.72-6.15,20.51
								C985.18,1132.65,1013.05,1124.55,1015.92,1115.74L1015.92,1115.74z"/>
						</g>
					</g>
					<g id="XMLID_4323_" class="st15">
						<g>
							<path class="st6" d="M470.15,627.97c49.39-23.85,107.49-10.4,156.63,7.02c52.99,18.78,105.91,43.09,163.37,41.41
								c48.33-1.41,97.31-18.05,134.02-50.12c33.49-29.26,52.95-70.98,49.89-115.75c-3.82-55.85-37.05-105.87-82.91-136.74
								c-4.26-2.87-11.56-3.64-12.09,3.07c-0.56,6.97,5.52,14.06,10.87,17.66c5.62,3.78,7.61,5.24,12.53,9.39
								c1.87,1.57,3.7,3.19,5.49,4.84c1.07,0.99,2.13,1.98,3.17,3c0.39,0.38,4.41,4.5,2.3,2.27c3.59,3.81,7.02,7.78,10.24,11.91
								c0.87,1.12,1.72,2.25,2.57,3.38c1.81,2.42,0.51,0.7,0.14,0.18c1.87,2.68,3.67,5.41,5.37,8.19c1.33,2.17,2.61,4.37,3.84,6.6
								c0.55,1.01,1.09,2.03,1.63,3.05c2.1,3.97-1.05-2.43,0.81,1.64c2.27,4.98,4.44,9.96,6.27,15.12c2.81,7.96,5.2,18.13,6.4,28.12
								c4.86,40.55-12.35,80.44-42.59,108.23c-33.71,30.97-79.08,47.86-124.47,50.58c-54.28,3.25-104.82-19.2-154.68-37.31
								c-53.8-19.55-119.32-37.13-173.96-10.75c-5.94,2.87-3.9,9.82-1.07,14.53C456.21,621.26,464.45,630.73,470.15,627.97
								L470.15,627.97z"/>
						</g>
					</g>
					<g id="XMLID_4316_" class="st15">
						<g>
							<path class="st6" d="M778.83,1162.1c37.13-13.98,65.36-43.31,87.44-75.37c23.33-33.89,40.34-71.35,59.21-107.76
								c18.19-35.11,38.95-70.57,68.08-97.81c13.7-12.81,27.75-22.28,45.08-29.13c0.2-0.08,2.31-0.84,0.65-0.26
								c1.28-0.44,2.57-0.85,3.87-1.23c1.95-0.58,3.92-1.11,5.91-1.59c2-0.48,4.01-0.91,6.03-1.28c0.14-0.03,4.6-0.69,1.8-0.32
								c1.58-0.21,3.17-0.39,4.76-0.53c5.37-0.47,10.05-0.51,13.32-0.3c2.34,0.15,4.68,0.37,7.01,0.66c1.3,0.16,2.59,0.34,3.88,0.54
								c0,0,4.73,0.88,2.24,0.37c22.77,4.66,43.37,15.33,63.15,28.97c21.92,15.11,41.87,32.9,61.07,51.28
								c4.94,4.73,15.22,5.09,21.1,2.22c6.34-3.1,5.92-8.5,1.35-12.87c-34.65-33.18-72.65-65.25-118.59-81.23
								c-23.04-8.01-47.7-10.45-71.79-6.55c-19.66,3.18-37.97,11.35-54.44,22.39c-34.25,22.96-59.02,58.7-79.23,93.96
								c-20.99,36.61-37.53,75.58-59.33,111.76c-22.45,37.27-50.95,73.44-92.32,89.01c-6.18,2.33-6.06,9.19-1.35,12.87
								C763.63,1164.49,772.13,1164.62,778.83,1162.1L778.83,1162.1z"/>
						</g>
					</g>
				</g>
			</g>
		</g>
		<polygon id="XMLID_4277_" class="st11" points="908.66,967.06 927.91,1006.07 970.96,1012.33 939.81,1042.69 947.16,1085.56 
			908.66,1065.32 870.16,1085.56 877.51,1042.69 846.36,1012.33 889.41,1006.07 		"/>
		<polygon id="XMLID_4271_" class="st11" points="725.25,1077.34 752.45,1094.51 782.02,1081.83 774.09,1113.01 795.28,1137.21 
			763.18,1139.31 746.71,1166.93 734.8,1137.06 703.44,1129.93 728.17,1109.37 		"/>
		<polygon id="XMLID_4270_" class="st11" points="132.08,1051.24 147.76,1061.13 164.8,1053.83 160.23,1071.8 172.44,1085.74 
			153.94,1086.95 144.45,1102.87 137.59,1085.65 119.51,1081.55 133.76,1069.7 		"/>
		<polygon id="XMLID_4269_" class="st11" points="204.81,1104.97 227.65,1119.38 252.46,1108.75 245.81,1134.91 263.6,1155.23 
			236.65,1156.99 222.83,1180.18 212.83,1155.1 186.5,1149.12 207.26,1131.86 		"/>
		<polygon id="XMLID_4267_" class="st11" points="246.34,360.05 240.38,326.23 209.15,311.97 239.47,295.85 243.38,261.74 
			268.08,285.59 301.73,278.78 286.67,309.63 303.56,339.53 269.56,334.75 		"/>
		<polygon id="XMLID_4263_" class="st11" points="159.51,458.6 124.16,434.03 83.88,449.21 96.33,408.01 69.44,374.39 112.48,373.5 
			136.14,337.54 150.29,378.19 191.8,389.58 157.51,415.6 		"/>
	</g>
</g>
<g id="XMLID_4551_">
	<defs>
		<polygon id="XMLID_2779_" points="-1721.15,112.32 -497.16,112.32 -497.16,724.3 -1109.17,1336.32 -1721.16,724.32 		"/>
	</defs>
	<clipPath id="XMLID_8011_">
		<use xlink:href="#XMLID_2779_"  style="overflow:visible;"/>
	</clipPath>
	<g id="XMLID_2777_" class="st18">
		<g id="XMLID_4470_">
			<defs>
				<rect id="XMLID_4476_" x="-2051.16" y="-64.73" width="2168" height="1578.1"/>
			</defs>
			<clipPath id="XMLID_8012_">
				<use xlink:href="#XMLID_4476_"  style="overflow:visible;"/>
			</clipPath>
			
				<rect id="XMLID_4548_" x="-2051.16" y="-64.73" style="clip-path:url(#XMLID_8012_);fill:#EAE6D4;" width="2168" height="1067.02"/>
			<polygon id="XMLID_4526_" style="clip-path:url(#XMLID_8012_);fill:#000D59;" points="-2097.07,857.97 157.93,215.57 
				138.42,1040.33 -2073.28,1040.33 			"/>
			<polygon id="XMLID_4523_" style="clip-path:url(#XMLID_8012_);fill:#005BBF;" points="-2097.07,870.89 157.93,389.95 
				138.42,1040.33 -2073.28,1040.33 			"/>
			<polygon id="XMLID_4520_" style="clip-path:url(#XMLID_8012_);fill:#000D59;" points="138.42,1199.94 157.93,630.28 
				-2097.07,1043.41 -2073.28,1199.94 			"/>
			<polygon id="XMLID_4517_" style="clip-path:url(#XMLID_8012_);fill:#005BBF;" points="138.42,984.79 157.93,773.57 
				-2097.07,1022.01 -2073.28,1146.25 			"/>
			<polygon id="XMLID_4514_" style="clip-path:url(#XMLID_8012_);fill:#F2A700;" points="138.42,1300.71 157.93,1024.91 
				-2097.07,1192.62 -2094.17,1300.71 			"/>
			<polygon id="XMLID_4498_" style="clip-path:url(#XMLID_8012_);fill:#000D59;" points="138.42,1513.37 157.93,1160.1 
				-2097.07,1250.31 -2094.17,1513.37 			"/>
		</g>
	</g>
</g>
<g id="XMLID_7856_">
	<g id="XMLID_7953_">
		<g id="XMLID_8005_">
			<g id="XMLID_8006_">
				<g id="XMLID_8007_">
					<path class="st32" d="M449.62,738.36c-1.98,0-3.59-1.61-3.59-3.59v-3.48c0-0.42,0.07-0.83,0.22-1.23
						c2.3-6.34,3.62-12.88,5.01-19.81c0.78-3.87,1.58-7.88,2.57-11.81c14.69-66.99,29.68-135.09,44.17-200.95
						c15.61-70.94,31.76-144.3,47.57-216.46c5.22-23.91,10.58-48.21,15.77-71.72c8.57-38.86,17.44-79.04,25.91-118.6
						c0.35-1.65,1.82-2.84,3.51-2.84h318.33c0.18,0,0.35,0.01,0.53,0.04c3.76,0.56,7.67,0.86,11.45,1.16
						c6.09,0.48,12.38,0.97,18.59,2.5c81.34,12.5,153.89,68.91,184.86,143.76c21.33,49.92,26.1,106.44,13.43,159.11
						c-7.52,30.47-21.38,59.66-40.08,84.43c-18.05,22.99-34.64,39.73-52.24,52.75c-43.84,32.98-102.87,51.16-166.21,51.16
						c-2.04,0-4.07-0.02-6.1-0.06c-11.37-0.02-22.81-0.03-34.24-0.03c-8.15,0-49.04,0.02-49.13,0.02c-9.93,0-19.86-0.01-29.8-0.02
						c-0.87,0-1.73-0.02-2.6-0.03c-0.94-0.01-1.89-0.03-2.84-0.03c-1.32,0-2.95,0.03-4.61,0.19c-0.65,1.68-1.05,3.55-1.47,5.51
						c-0.22,1.03-0.45,2.06-0.7,3.08c-7.99,33.6-16.24,67.78-24.21,100.83l-3.11,12.87c-0.39,1.68-0.78,3.4-1.17,5.13
						c-1.91,8.38-3.89,17.05-6.29,25.51c-0.44,1.54-1.85,2.61-3.45,2.61H449.62z M475.06,714.44c3.91,0.06,8.04,0.08,12.5,0.08
						c8.3,0,16.75-0.1,24.92-0.19c8.2-0.09,16.67-0.19,25.02-0.19c3.33,0,6.67,0.02,10,0.05c7.77-0.01,15.58-0.02,23.39-0.02
						c11.33,0,22.65,0.01,33.98,0.02c11.32,0.01,22.65,0.02,33.97,0.02c21.48,0,39.06-0.03,55.01-0.1
						c6.18-26.24,12.57-52.82,18.76-78.57c5.82-24.21,11.83-49.25,17.65-73.89c0.38-1.6,1.8-2.74,3.45-2.76
						c13.15-0.15,27.07-0.21,45.12-0.21c8.45,0,16.9,0.01,25.35,0.03c8.45,0.01,16.89,0.03,25.34,0.03c6.21,0,12.42-0.01,18.63-0.03
						c2.24-0.02,4.5-0.03,6.76-0.03c2.86,0,5.73,0.01,8.59,0.02c2.86,0.01,5.71,0.02,8.57,0.02c11.9,0,24.63-0.2,37.13-1.62
						c41.82-3.96,80.47-16.98,111.83-37.67c21.89-14.24,42.45-34.48,61.12-60.19c37.24-52.76,48.31-125.84,28.85-190.68
						c-10.94-37.5-31.74-71.05-60.16-97.05c-33.23-31.4-77.08-51.77-123.54-57.39c-11.65-1.65-23.23-1.99-37.05-1.99
						c-2.48,0-4.97,0.01-7.45,0.02c-2.49,0.01-4.98,0.02-7.47,0.02c-1.14,0-2.29,0-3.43-0.01c-7.23,0-14.48,0-21.72,0
						c-39.68,0-80.02-0.05-119.03-0.09c-39.01-0.05-79.35-0.09-119.04-0.09h-4.63c-8.78,39.35-17.54,79.17-26.05,118.42
						c-0.02,0.12-0.06,0.23-0.09,0.34c-1.3,4.01-2.65,8.74-2.89,13.47c-0.01,0.2-0.04,0.41-0.08,0.61l-1,4.44
						c-6.81,30.16-13.86,61.35-20.08,92.13c-0.15,0.73-0.51,1.38-1.02,1.87c-0.36,1.87-0.76,3.72-1.16,5.52
						c-0.6,2.72-1.16,5.3-1.58,7.93c-0.01,0.06-0.02,0.12-0.04,0.19c-3.3,15.5-6.78,31.23-10.14,46.45
						c-3.73,16.91-7.6,34.39-11.23,51.61c-0.13,0.63-0.43,1.2-0.84,1.65c-0.36,2.17-0.81,4.31-1.24,6.39
						c-0.38,1.82-0.77,3.7-1.09,5.54c-0.01,0.05-0.02,0.1-0.03,0.15c-8.83,40.69-17.94,82.02-26.75,121.99
						C493.25,631.24,484.02,673.13,475.06,714.44z"/>
					<path class="st33" d="M909.08,91.47c9.93,1.47,20.07,1.19,29.86,3.64c79.49,12.15,151.41,67.09,182.25,141.61
						c20.98,49.1,25.75,104.98,13.26,156.9c-7.4,29.97-20.85,58.47-39.45,83.11c-15.1,19.23-31.79,37.44-51.51,52.02
						c-46.78,35.19-106.07,50.46-164.08,50.46c-2.01,0-4.03-0.02-6.04-0.06c-11.42-0.03-22.84-0.03-34.25-0.03
						c-16.29,0-32.59,0.02-48.88,0.02c-10.03,0-20.06-0.01-30.09-0.02c-1.81-0.01-3.63-0.06-5.44-0.06c-2.36,0-4.72,0.09-7.05,0.49
						c-1.83,3.4-2.28,7.3-3.22,10.99c-9.02,37.94-18.18,75.83-27.33,113.74c-2.35,10.2-4.57,20.43-7.43,30.5H449.62v-3.48
						c3.76-10.35,5.02-21.38,7.71-32.03c30.52-139.16,61.25-278.29,91.76-417.46c13.84-63.45,28.08-126.83,41.67-190.33H909.08
						 M528.62,454.24l-0.59-0.01c-0.64,4.61-1.8,9.13-2.6,13.72c-18.1,83.38-36.74,166.63-54.81,250.01
						c5.65,0.12,11.29,0.16,16.94,0.16c16.64,0,33.29-0.38,49.94-0.38c3.32,0,6.64,0.02,9.96,0.05c7.81-0.01,15.62-0.02,23.43-0.02
						c22.64,0,45.28,0.03,67.92,0.03c19.29,0,38.59-0.02,57.88-0.12c12.18-51.77,24.84-103.45,37.06-155.2
						c15.02-0.17,30.04-0.21,45.07-0.21c16.88,0,33.77,0.06,50.66,0.06c6.23,0,12.46-0.01,18.69-0.03c2.24-0.02,4.49-0.03,6.74-0.03
						c5.72,0,11.45,0.05,17.17,0.05c12.54,0,25.07-0.22,37.54-1.64c40.01-3.79,79.7-16.01,113.4-38.23
						c24.52-15.94,44.93-37.51,62.05-61.07c39.17-55.49,48.78-129.19,29.38-193.82c-10.98-37.62-32.24-72.19-61.17-98.66
						c-34.15-32.28-78.94-52.67-125.53-58.3c-12.44-1.77-24.96-2.02-37.49-2.02c-4.97,0-9.93,0.04-14.9,0.04
						c-1.14,0-2.29,0-3.43-0.01c-7.23,0-14.47,0-21.7,0c-79.33,0-158.66-0.19-238-0.19c-2.54,0-5.07,0-7.61,0
						c-9.02,40.39-17.91,80.8-26.68,121.25c-1.51,4.67-2.81,9.45-3.06,14.39c-7.26,32.14-14.57,64.34-21.1,96.65h-0.69
						c-0.88,5.19-2.28,10.26-3.1,15.47C543.02,388.89,535.53,421.5,528.62,454.24 M909.08,84.29H590.75c-3.38,0-6.31,2.36-7.02,5.67
						c-8.45,39.5-17.31,79.62-25.87,118.42c-5.2,23.56-10.57,47.92-15.8,71.89c-15.78,71.99-31.88,145.18-47.46,215.96
						c-14.53,66-29.55,134.25-44.27,201.39c-1,4-1.81,8.03-2.6,11.92c-1.37,6.79-2.65,13.21-4.87,19.29
						c-0.29,0.79-0.43,1.62-0.43,2.45v3.48c0,3.96,3.21,7.18,7.18,7.18h260.08c3.21,0,6.03-2.13,6.9-5.22
						c2.42-8.55,4.41-17.27,6.34-25.7c0.39-1.71,0.78-3.41,1.17-5.12l3.28-13.6c7.91-32.78,16.09-66.69,24.03-100.07
						c0.27-1.08,0.5-2.13,0.72-3.15c0.21-0.98,0.42-1.94,0.65-2.84c0.59-0.02,1.23-0.03,1.92-0.03c0.93,0,1.85,0.01,2.78,0.03
						c0.88,0.01,1.76,0.03,2.64,0.03c10.05,0.02,20.08,0.02,30.11,0.02c8.15,0,16.3,0,24.44-0.01c8.15,0,16.29-0.01,24.44-0.01
						c13.22,0,24.09,0.01,34.18,0.03c2.03,0.04,4.08,0.06,6.11,0.06c30.78,0,60.48-4.15,88.27-12.32
						c29.97-8.82,56.92-22.13,80.1-39.56c17.85-13.21,34.64-30.16,52.85-53.34c0.03-0.04,0.06-0.07,0.08-0.11
						c18.99-25.15,33.06-54.79,40.69-85.72c12.86-53.44,8.02-110.75-13.61-161.4c-31.43-75.92-104.98-133.15-187.46-145.87
						c-6.44-1.57-12.83-2.07-19.01-2.56c-3.89-0.31-7.57-0.59-11.21-1.13C909.78,84.32,909.43,84.29,909.08,84.29L909.08,84.29z
						 M610.38,115.59l1.86,0c39.67,0,80,0.05,119,0.09c39,0.05,79.33,0.09,119,0.09c7.23,0,14.47,0,21.7-0.01
						c1.12,0.01,2.27,0.01,3.43,0.01c2.49,0,4.98-0.01,7.47-0.02c2.47-0.01,4.95-0.02,7.42-0.02c13.67,0,25.11,0.33,36.48,1.95
						c0.05,0.01,0.1,0.01,0.15,0.02c45.7,5.53,88.83,25.56,121.46,56.39c0.03,0.03,0.06,0.05,0.08,0.08
						c27.93,25.55,48.37,58.53,59.13,95.38c0,0.02,0.01,0.04,0.02,0.05c19.15,63.79,8.29,135.66-28.34,187.58
						c-18.4,25.33-38.63,45.26-60.13,59.23c-30.92,20.38-69,33.21-110.17,37.11c-0.04,0-0.09,0.01-0.13,0.01
						c-12.32,1.4-24.94,1.6-36.73,1.6c-2.85,0-5.71-0.01-8.56-0.02c-2.87-0.01-5.74-0.02-8.61-0.02c-2.27,0-4.53,0.01-6.8,0.03
						c-6.18,0.02-12.4,0.03-18.62,0.03c-8.44,0-16.88-0.01-25.32-0.03c-8.45-0.01-16.89-0.03-25.34-0.03
						c-18.06,0-31.98,0.06-45.15,0.21c-3.3,0.04-6.15,2.32-6.9,5.53c-5.82,24.65-11.84,49.7-17.66,73.92
						c-5.97,24.83-12.12,50.45-18.1,75.78c-15.2,0.06-31.97,0.09-52.19,0.09c-11.32,0-22.64-0.01-33.96-0.02
						c-11.32-0.01-22.64-0.02-33.97-0.02c-7.8,0-15.6,0-23.4,0.01c-3.18-0.03-6.45-0.05-9.99-0.05c-8.37,0-16.85,0.1-25.05,0.19
						c-8.16,0.09-16.6,0.19-24.88,0.19c-2.81,0-5.49-0.01-8.07-0.03c8.66-39.89,17.56-80.26,26.18-119.38
						c8.81-39.99,17.93-81.35,26.76-122.06c0.02-0.1,0.04-0.19,0.06-0.29c0.31-1.78,0.68-3.55,1.07-5.43
						c0.38-1.85,0.78-3.74,1.12-5.67c0.45-0.71,0.77-1.5,0.96-2.35c3.63-17.21,7.49-34.68,11.23-51.59
						c3.36-15.22,6.84-30.95,10.14-46.46c0.03-0.12,0.05-0.25,0.07-0.37c0.4-2.53,0.95-5.05,1.54-7.72c0.34-1.53,0.68-3.1,1-4.69
						c0.58-0.8,0.99-1.74,1.2-2.75c6.2-30.66,13.22-61.75,20.02-91.82l1.05-4.67c0.09-0.4,0.15-0.81,0.17-1.21
						c0.22-4.32,1.5-8.77,2.72-12.55c0.07-0.23,0.14-0.46,0.19-0.69C593.29,192.77,601.83,153.91,610.38,115.59L610.38,115.59z"/>
				</g>
			</g>
		</g>
		<g id="XMLID_7971_">
			<g id="XMLID_7996_">
				<g id="XMLID_7997_">
					<path class="st34" d="M487.55,721.7c-6.2,0-11.76-0.05-17.01-0.16c-1.07-0.02-2.08-0.52-2.74-1.36
						c-0.66-0.84-0.92-1.94-0.69-2.98c9.25-42.7,18.81-86.08,28.06-128.03c8.81-39.97,17.92-81.3,26.75-121.98
						c0.36-1.65,1.82-2.83,3.5-2.83l11.52,0c30.52,0,61.55,0.06,91.56,0.12c30.01,0.06,61.03,0.12,91.55,0.12
						c12.42,0,24.83-0.01,37.25-0.04c0.21,0,0.47-0.01,0.74-0.01c10.69,0,20.47,3.3,27.54,9.31c14.52,11.93,32.55,21.69,55.08,29.77
						c1.03,0.35,2.12,0.73,3.22,1.12c6.77,2.37,13.78,4.81,20.68,4.81c1.36,0,2.71-0.1,4-0.29c0.04-0.01,0.09-0.01,0.13-0.02
						c22.03-2.41,44-13.99,67.17-35.37c23.81-22.77,41.88-50.63,52.24-80.54c0.13-0.49,0.29-1.02,0.47-1.58
						c0.28-0.9,0.82-2.65,0.8-3.48c-1.07-0.12-2.17-0.18-3.27-0.18c-6.99,0-14.62,2.34-24,7.38c-9.2,5.06-18.11,11.14-26.72,17.03
						c-6.69,4.57-13.6,9.3-20.7,13.58c-13.68,7.88-29.64,14.29-50.27,20.21c-27.19,7.54-54.3,11.49-80.61,11.73
						c-24.22-0.09-49.76-0.13-82.86-0.13c-15.76,0-31.52,0.01-47.28,0.02c-15.76,0.01-31.51,0.02-47.27,0.02
						c-30.51,0-55.22-0.04-77.76-0.11c-1.08,0-2.1-0.49-2.78-1.33c-0.68-0.84-0.94-1.94-0.72-3c3.64-17.25,7.51-34.75,11.25-51.68
						c3.36-15.2,6.83-30.92,10.13-46.39c0.35-1.65,1.81-2.84,3.5-2.84c6.33-0.01,12.66-0.01,18.99-0.01
						c18.08,0,36.16,0.04,54.23,0.07c18.08,0.04,36.15,0.07,54.23,0.07l4.22,0c1.25-0.06,2.48-0.09,3.65-0.09
						c10.96,0,19.5,2.44,26.12,7.47c9.13,6.34,12.62,17.04,14.81,26.71l0.85,2.63c4.16,12.92,8.47,26.28,18.83,34.61
						c11.24,9.22,27.02,13.69,48.26,13.69c1.19,0,2.38-0.01,3.56-0.04c23.43-1,48.19-6.09,75.63-15.57
						c26.52-10.97,50.96-26.92,69.32-39.62c11.47-9.66,27.63-14.58,48.04-14.64l0.49-0.01c0.8-0.01,2.38-0.04,3.01-0.29
						c1.44-7.86,2.25-15.58,2.42-23.02l-0.21,0c-0.47,0-1.01-0.01-1.57-0.08c-14.47,0.01-28.94,0.01-43.41,0.01
						c-58.96,0-118.9-0.05-176.87-0.1c-57.97-0.05-117.92-0.1-176.87-0.1c-14.64,0-29.28,0-43.93,0.01c-1.08,0-2.1-0.48-2.78-1.32
						s-0.95-1.93-0.74-2.98c6.24-30.86,13.3-62.09,20.12-92.3l1-4.43c0.37-1.63,1.82-2.79,3.49-2.8c17.96-0.03,35.93-0.04,53.9-0.04
						c15.68,0,31.36,0.01,47.04,0.01l25.61,0.01c0.15,0,0.39-0.01,0.63-0.01c9.24,0,17.99,4,23.41,10.69
						c5.34,6.26,6.84,15.72,3.77,24.02c-4.96,14.23-7.77,26.21-8.83,37.62c-0.31,2.61,0.5,4.96,2.38,7.07
						c2.64,2.97,7.16,4.96,11.24,4.96c0.22,0,0.45-0.01,0.67-0.02c0.06,0,0.13-0.01,0.19-0.01c16.8-0.04,33.62-0.05,50.42-0.05
						c33.06,0,66.67,0.06,99.17,0.12c32.5,0.06,66.11,0.12,99.16,0.12l8.55,0c2.93-0.1,4.14-0.4,4.62-0.67c0,0,0,0,0,0
						c-0.02-0.15-0.04-0.29-0.04-0.44l-0.04-2.02c-0.11-5.78-0.23-11.76-1.82-17.13c-0.49-0.16-1.63-0.21-2.34-0.23
						c-0.66-0.02-1.34-0.05-2.01-0.13l-0.16,0c-13.02,0-26.02-3.4-37.61-9.82c-9.05-5-17.63-10.9-25.93-16.61
						c-8.12-5.58-16.51-11.36-25.21-16.17c-25.21-13.62-54.55-22.57-87.17-26.58c-10.83-1.39-21.56-1.58-31.53-1.58
						c-2.99,0-5.97,0.02-8.96,0.04c-3,0.02-6,0.04-9,0.04c-7.04,0-12.45-0.11-17.52-0.36c-17.58-0.03-35.17-0.03-52.75-0.03
						l-63.92,0.01c-17.62,0-35.22-0.01-52.84-0.03c-1.08,0-2.11-0.49-2.79-1.34c-0.68-0.84-0.94-1.95-0.71-3.01
						c8.71-40.2,17.69-81,26.69-121.27c0.37-1.64,1.82-2.81,3.5-2.81l7.47,0c39.69,0,80.04,0.05,119.06,0.09
						c39.01,0.05,79.35,0.09,119.03,0.09c7.25,0,14.5,0,21.74,0c1.15,0.01,2.28,0.01,3.42,0.01c2.48,0,4.96-0.01,7.44-0.02
						c2.49-0.01,4.98-0.02,7.47-0.02c14.13,0,25.99,0.35,37.99,2.05c47.89,5.79,93.2,26.84,127.49,59.25
						c29.34,26.84,50.84,61.53,62.15,100.27c9.78,32.6,12.34,67.83,7.38,101.86c-5.08,34.82-17.96,67.68-37.27,95.04
						c-19.22,26.45-40.41,47.3-63.03,62.01c-32.32,21.31-72.1,34.73-115.02,38.8c-12.79,1.46-25.77,1.66-37.88,1.66
						c-2.87,0-5.73-0.01-8.6-0.02c-2.85-0.01-5.71-0.02-8.56-0.02c-2.24,0-4.48,0.01-6.72,0.03c-6.23,0.02-12.45,0.03-18.66,0.03
						c-8.45,0-16.91-0.01-25.36-0.03c-8.45-0.01-16.89-0.03-25.34-0.03c-16.75,0-29.92,0.06-42.23,0.18
						c-5.62,23.77-11.41,47.86-17.01,71.18c-6.4,26.63-13.02,54.18-19.4,81.29c-0.38,1.61-1.82,2.76-3.47,2.77
						c-16.72,0.08-35.11,0.12-57.88,0.12c-11.32,0-22.65-0.01-33.97-0.02c-11.32-0.01-22.64-0.02-33.96-0.02
						c-7.81,0-15.62,0-23.43,0.02c-3.35-0.04-6.66-0.05-9.97-0.05c-8.31,0-16.76,0.1-24.94,0.19
						C504.37,721.6,495.9,721.7,487.55,721.7z M922.18,510.45c-0.4,0.3-0.82,0.58-1.24,0.85c0.15-0.02,0.31-0.04,0.46-0.06
						c0.7-0.09,1.42-0.19,2.14-0.24c44.45-7.41,85.33-31.61,112.19-66.4c0.04-0.05,0.08-0.1,0.12-0.15
						c3.59-4.17,2.38-10.89,1.32-16.82l-0.02-0.12c-2.57-13.8-12.9-24.05-21.16-30.24c-0.29-0.18-0.6-0.38-0.9-0.57
						c-1.83-1.16-3.9-2.48-5.44-2.48c-0.02,0-0.05,0-0.07,0c-0.37,0.55-0.67,1.44-0.97,2.31c-0.09,0.27-0.18,0.54-0.28,0.8
						c-6.36,22.46-18.52,44.68-38.24,69.9C954.43,486.68,938.77,500.8,922.18,510.45z M1052.19,406.19
						c0.88,1.43,1.48,2.91,2.07,4.33c0.4,0.96,0.77,1.87,1.19,2.66c0.05-0.08,0.09-0.16,0.12-0.23c0.04-0.1,0.08-0.19,0.12-0.28
						c10.88-22.63,16.63-45.11,17.09-66.82c0-0.22,0.03-0.44,0.08-0.66c0.02-0.11,0.02-0.17,0.02-0.18
						c-0.08-0.13-0.69-0.54-1.57-0.54c-0.1,0-0.19,0.01-0.29,0.02c-0.13,0.02-0.27,0.02-0.4,0.02c-2.12,0.01-4.24,0.02-6.36,0.02
						c-4.24,0-8.47-0.02-12.71-0.04c-4.23-0.02-8.45-0.04-12.68-0.04c-7.72,0-14.05,0.07-19.8,0.21c-1.15,1.13-1.33,3.18-1.41,6.81
						c-0.04,2.01-0.09,4.08-0.56,6.07c-0.03,1.98-0.42,4.03-0.8,6.02c-1.1,5.75-1.09,7.88,1.14,9.12
						C1032.93,381.58,1044.94,393.16,1052.19,406.19z M1020.08,324.9c7.24,0.06,14.9,0.09,24.08,0.09c7.31,0,14.61-0.02,21.91-0.04
						c0,0,5.72-0.01,5.73-0.01c0.16,0,0.33,0.01,0.49,0.03c0.15-0.01,0.46-0.33,0.46-0.5c-0.03-0.15-0.05-0.3-0.06-0.46
						c-1.29-20.24-4.2-43.58-15.93-63.28c-0.2-0.27-0.39-0.57-0.59-0.88c-0.03-0.04-0.06-0.09-0.09-0.13
						c-0.21,0.33-0.43,0.71-0.59,1c-0.22,0.38-0.43,0.76-0.66,1.11c-7.86,15.92-20.98,28.72-36.96,36.07
						c-0.1,0.04-0.19,0.08-0.29,0.12c-1.15,0.41-1.62,1.69-1.48,2.73c0.02,0.12,0.03,0.24,0.03,0.36c0.13,4.84,0.67,9.81,1.18,14.61
						c0.27,2.52,0.55,5.14,0.77,7.72c0.01,0.11,0.01,0.21,0.01,0.32c0,0.16,0.03,0.39,0.29,0.66c0.3,0.3,0.76,0.49,1.21,0.49
						c0.05,0,0.09,0,0.14-0.01c0.11-0.01,0.21-0.01,0.32-0.01C1020.06,324.9,1020.07,324.9,1020.08,324.9z M783.43,212.09
						c29.99,1.78,61,3.62,89.79,14.53c20.52,7.2,40.27,16.95,58.63,28.95c5.07,3.2,10.04,6.72,14.85,10.12
						c5.7,4.03,11.59,8.2,17.64,11.81c6.26,3.79,13.27,5.87,19.78,5.87c1.65,0,3.29-0.13,4.87-0.39c0.27-0.87-0.07-2.47-0.54-4.39
						c-0.13-0.52-0.25-1.03-0.35-1.51c-7.73-24.43-21.41-47.9-40.67-69.77c-18.2-20.16-38-34.97-58.81-43.97
						c-0.04-0.02-0.07-0.03-0.11-0.05c-4.11-1.95-8.99-2.93-14.51-2.93c-3.43,0-7.07,0.36-11.11,1.11
						c-34.49,6.92-67.44,24.41-92.71,49.25c-0.03,0.03-0.06,0.06-0.09,0.08c-0.23,0.21-0.44,0.44-0.63,0.69
						c1.52,0.27,3.13,0.3,4.7,0.3c0.47,0,2.37-0.01,2.85-0.01c1.29,0,2.82,0.02,4.38,0.19L783.43,212.09z M927.4,161.27
						c14.76,10.68,28.96,24.36,43.29,41.69c18.82,23.26,31.77,47.33,38.52,71.57c0.02,0.05,0.03,0.11,0.04,0.17
						c0.3,1.34,0.92,2.32,1.26,2.62c0.07-0.03,0.15-0.06,0.21-0.08c10.31-3.21,17.46-12.68,22.53-20.58
						c2.41-3.84,9.82-17.33,3.2-28.64c-5.83-9.28-13.78-18.27-24.3-27.5C988.2,180.39,958.44,166.65,927.4,161.27z"/>
					<path class="st33" d="M612.24,108.42c79.34,0,158.67,0.19,237.99,0.19c7.24,0,14.46,0,21.7,0c1.14,0.01,2.29,0.01,3.43,0.01
						c4.96,0,9.93-0.04,14.9-0.04c12.53,0,25.05,0.25,37.49,2.02c46.58,5.64,91.38,26.03,125.53,58.3
						c28.94,26.47,50.19,61.04,61.17,98.66c19.4,64.62,9.79,138.32-29.38,193.82c-17.12,23.56-37.54,45.13-62.05,61.07
						c-33.7,22.22-73.39,34.44-113.4,38.23c-12.47,1.42-25,1.64-37.54,1.64c-5.72,0-11.45-0.05-17.17-0.05
						c-2.25,0-4.49,0.01-6.74,0.03c-6.23,0.02-12.46,0.03-18.69,0.03c-16.89,0-33.77-0.06-50.66-0.06
						c-15.03,0-30.05,0.04-45.07,0.21c-12.22,51.76-24.88,103.43-37.06,155.2c-19.29,0.09-38.59,0.12-57.88,0.12
						c-22.64,0-45.28-0.03-67.92-0.03c-7.81,0-15.62,0-23.43,0.02c-3.32-0.04-6.64-0.05-9.96-0.05c-16.65,0-33.29,0.38-49.94,0.38
						c-5.65,0-11.29-0.04-16.94-0.16c18.07-83.38,36.71-166.63,54.81-250.01c3.83,0,7.67,0,11.5,0c61.04,0,122.07,0.25,183.11,0.25
						c12.43,0,24.85-0.01,37.27-0.04c0.24,0,0.48-0.01,0.73-0.01c9.02,0,18.26,2.54,25.21,8.45c16.57,13.62,36.1,23.2,56.19,30.42
						c8.12,2.77,16.45,6.14,25.11,6.14c1.5,0,3.01-0.1,4.52-0.32c26.67-2.92,49.94-18.52,69.21-36.3
						c23.77-22.74,42.49-51,53.24-82.13c0.77-2.99,3.12-7.86-0.78-9.54c-1.56-0.23-3.11-0.33-4.66-0.33c-9.01,0-17.85,3.59-25.7,7.8
						c-16.57,9.1-31.41,20.95-47.58,30.7c-15.44,8.89-32.33,14.94-49.41,19.83c-25.91,7.19-52.74,11.34-79.66,11.59
						c-27.58-0.1-55.17-0.13-82.74-0.13c-31.55,0-63.1,0.04-94.65,0.04c-25.92,0-51.82-0.02-77.73-0.11
						c6.91-32.74,14.4-65.35,21.37-98.06c6.3-0.01,12.6-0.01,18.9-0.01c36.18,0,72.35,0.14,108.54,0.14c1.44,0,2.87,0,4.31,0
						c1.18-0.06,2.38-0.09,3.57-0.09c8.47,0,17.14,1.54,24.01,6.78c8.2,5.65,11.37,15.51,13.45,24.75
						c4.56,14.01,8.91,29.45,20.89,39.09c14.05,11.53,32.76,14.49,50.51,14.49c1.22,0,2.43-0.01,3.64-0.04
						c26.24-1.12,52.07-7.24,76.82-15.8c24.99-10.32,48.07-24.78,70.23-40.12c12.63-10.71,29.76-13.86,45.87-13.9
						c2.52-0.06,6.43,0.13,7.01-3.15c1.52-8.27,2.42-16.71,2.52-25.12c0.24-2.12-1.53-2.23-3.22-2.23c-0.2,0-0.41,0-0.6,0
						c-0.48,0-0.93-0.01-1.31-0.08c-14.57,0.01-29.15,0.01-43.72,0.01c-117.94,0-235.9-0.2-353.85-0.2c-14.6,0-29.18,0-43.78,0.01
						c6.53-32.31,13.85-64.51,21.1-96.65c17.97-0.03,35.94-0.04,53.9-0.04c24.21,0,48.43,0.02,72.65,0.03
						c0.21,0,0.42-0.01,0.63-0.01c7.78,0,15.68,3.26,20.63,9.36c4.8,5.62,5.72,13.69,3.19,20.52c-4.35,12.47-7.82,25.35-9.03,38.54
						c-1.1,9.29,8.69,15.95,17.19,15.95c0.29,0,0.58-0.01,0.87-0.02c16.79-0.04,33.59-0.05,50.38-0.05
						c66.1,0,132.21,0.24,198.31,0.24c2.89,0,5.77,0,8.66,0c3.1-0.1,8.77-0.34,8.11-4.78c-0.15-6.82-0.08-13.85-2.11-20.42
						c-1.09-2.99-4.98-2.24-7.47-2.6c-0.13,0-0.26,0-0.39,0c-12.51,0-24.94-3.31-35.87-9.37c-17.76-9.8-33.4-22.96-51.14-32.78
						c-27.33-14.77-57.74-23.23-88.47-27c-10.62-1.36-21.29-1.61-31.97-1.61c-5.99,0-11.98,0.08-17.96,0.08
						c-5.81,0-11.63-0.07-17.43-0.36c-17.58-0.03-35.16-0.03-52.74-0.03c-21.38,0-42.76,0.01-64.13,0.01
						c-17.58,0-35.15-0.01-52.73-0.03c8.77-40.44,17.66-80.86,26.68-121.25C607.16,108.42,609.71,108.42,612.24,108.42
						 M1010.42,280.94c0.43,0,0.88-0.09,1.36-0.27c10.92-3.4,18.53-12.8,24.49-22.07c5.93-9.44,9.24-22.25,3.24-32.44
						c-6.73-10.73-15.51-20.01-25.01-28.33c-27.42-23.06-61.9-37.75-97.5-41.65c-0.34,2.66,2.38,3.62,4,4.99
						c17.83,12.1,33.23,27.52,46.92,44.08c16.81,20.78,30.63,44.39,37.83,70.25C1006.28,277.81,1007.84,280.94,1010.42,280.94
						 M774.16,215.38c0.95,0,1.91-0.01,2.86-0.01c1.38,0,2.74,0.03,4.08,0.18c30.58,1.82,61.91,3.45,90.86,14.43
						c20.38,7.15,39.87,16.78,57.94,28.6c11.1,7.01,21.34,15.27,32.61,22.01c6.46,3.91,14.04,6.38,21.62,6.38
						c2.29,0,4.57-0.22,6.82-0.7c3.03-2.49,1.29-6.89,0.63-10.1c-8.33-26.43-23.2-50.5-41.45-71.23
						c-16.84-18.66-36.89-34.86-60.08-44.89c-5.03-2.38-10.52-3.28-16.04-3.28c-3.95,0-7.93,0.46-11.76,1.17
						c-35.49,7.12-68.76,24.85-94.58,50.22c-1.57,1.44-2.52,3.36-3.4,5.26C767.31,215.18,770.71,215.38,774.16,215.38
						 M1019.58,328.51c0.15,0,0.31-0.01,0.47-0.02c8.04,0.07,16.08,0.09,24.11,0.09c9.22,0,18.43-0.03,27.65-0.05
						c0.16,0.02,0.32,0.03,0.48,0.03c2.37,0,4.46-2.39,3.98-4.77c-1.43-22.38-4.82-45.49-16.52-65.03
						c-0.91-1.22-1.78-3.26-3.46-3.26c-0.2,0-0.42,0.03-0.65,0.1c-2.08,0.59-2.88,2.84-3.94,4.48
						c-7.4,15.08-20.05,27.55-35.33,34.57c-2.7,0.97-4.2,3.78-3.83,6.57c0.21,7.54,1.31,15.03,1.96,22.54
						C1014.48,326.53,1016.96,328.51,1019.58,328.51 M1055.08,418.37c1.41-1.23,3.15-2.29,3.85-4.14
						c10.24-21.3,16.94-44.58,17.44-68.3c0.67-3.19-2.29-5.05-5.07-5.05c-0.24,0-0.48,0.01-0.71,0.04
						c-2.11,0.01-4.22,0.02-6.33,0.02c-8.47,0-16.94-0.08-25.41-0.08c-7,0-14,0.05-21,0.24c-5.41,3.17-2.92,10.84-4.35,15.98
						c0.11,6.07-4.69,14.89,2.18,18.73c13.51,7.76,25.77,18.45,33.41,32.19C1051.19,411.4,1051.77,415.82,1055.08,418.37
						 M918.63,515.09c1.79,0,3.66-0.4,5.34-0.52c44.78-7.43,86.8-31.76,114.61-67.77c4.74-5.5,3.29-13.38,2.11-19.91
						c-2.52-13.51-11.93-24.56-22.67-32.57c-2.46-1.52-5.39-3.67-8.37-3.67c-0.6,0-1.21,0.09-1.81,0.29
						c-1.72,1.24-2.24,3.43-2.92,5.31c-7.17,25.41-21.51,48.15-37.65,68.79c-13.3,16.5-28.64,31.75-47.09,42.43
						c-2.17,1.71-6.08,3.08-5.62,6.43C915.76,514.82,917.17,515.09,918.63,515.09 M612.24,101.24l-7.61,0c-3.36,0-6.27,2.33-7,5.61
						c-8.97,40.18-17.95,80.99-26.69,121.29c-0.46,2.12,0.06,4.33,1.42,6.02c1.36,1.69,3.41,2.67,5.58,2.68
						c4.46,0.01,9.05,0.01,13.83,0.02c-5.81,0.01-11.41,0.01-16.9,0.02c-3.35,0.01-6.25,2.33-6.99,5.59l-1.05,4.66
						c-6.81,30.15-13.85,61.32-20.08,92.15c-0.43,2.11,0.12,4.3,1.48,5.97c1.36,1.67,3.4,2.63,5.55,2.63c0,0,0,0,0,0
						c14.6-0.01,29.18-0.01,43.78-0.01c58.97,0,118.94,0.05,176.93,0.1c57.99,0.05,117.95,0.1,176.92,0.1
						c13.84,0,27.68,0,41.52-0.01c-0.27,5.3-0.86,10.73-1.77,16.21l-0.49,0.01c-21.18,0.06-38.06,5.23-50.17,15.37
						c-18.17,12.57-42.31,28.31-68.42,39.12c-27.03,9.33-51.41,14.35-74.51,15.34c-1.15,0.02-2.3,0.04-3.41,0.04
						c-20.38,0-35.41-4.21-45.96-12.86c-0.02-0.02-0.04-0.03-0.05-0.04c-9.52-7.66-13.66-20.5-17.66-32.91
						c-0.27-0.83-0.54-1.66-0.8-2.49c-2.34-10.28-6.13-21.65-16.16-28.65c-7.25-5.49-16.49-8.16-28.23-8.16
						c-1.21,0-2.46,0.03-3.74,0.09l-4.14,0c-18.09,0-36.48-0.04-54.26-0.07c-17.79-0.03-36.18-0.07-54.28-0.07
						c-6.3,0-12.61,0-18.91,0.01c-3.38,0.01-6.3,2.37-7.01,5.68c-3.29,15.46-6.76,31.17-10.12,46.36
						c-3.74,16.93-7.61,34.44-11.25,51.72c-0.45,2.11,0.08,4.31,1.44,5.99c0.71,0.88,1.6,1.56,2.61,2.02c-0.07,0-0.14,0-0.22,0
						c-3.38,0-6.29,2.36-7.01,5.65c-8.83,40.69-17.94,82.04-26.76,122.03c-9.24,41.93-18.8,85.3-28.05,127.99
						c-0.45,2.1,0.05,4.28,1.38,5.97s3.34,2.68,5.48,2.73c5.27,0.11,10.86,0.16,17.09,0.16c8.36,0,16.84-0.1,25.04-0.19
						c8.16-0.09,16.61-0.19,24.89-0.19c3.51,0,6.75,0.02,9.88,0.05c0.03,0,0.06,0,0.09,0c7.81-0.01,15.61-0.02,23.42-0.02
						c11.3,0,22.6,0.01,33.91,0.02c11.34,0.01,22.68,0.02,34.02,0.02c22.78,0,41.19-0.04,57.92-0.12c3.32-0.02,6.19-2.3,6.95-5.53
						c6.37-27.09,12.99-54.61,19.38-81.23c5.39-22.45,10.96-45.6,16.38-68.5c11.5-0.1,23.91-0.15,39.38-0.15
						c8.44,0,16.88,0.01,25.32,0.03c8.45,0.01,16.89,0.03,25.34,0.03c6.23,0,12.48-0.01,18.71-0.03c2.26-0.02,4.49-0.03,6.71-0.03
						c2.85,0,5.7,0.01,8.56,0.02c2.87,0.01,5.75,0.02,8.62,0.02c12.19,0,25.27-0.2,38.28-1.68c43.47-4.13,83.79-17.75,116.61-39.38
						c22.95-14.92,44.46-36.07,63.91-62.85c0.02-0.03,0.04-0.05,0.06-0.08c19.63-27.81,32.74-61.21,37.89-96.59
						c5.03-34.53,2.44-70.29-7.49-103.4c-11.49-39.34-33.33-74.57-63.17-101.89c-34.82-32.89-80.8-54.26-129.48-60.16
						c-12.18-1.73-24.17-2.08-38.42-2.08c-2.49,0-4.99,0.01-7.48,0.02c-2.47,0.01-4.94,0.02-7.42,0.02c-1.13,0-2.27,0-3.4-0.01
						c-7.27,0-14.5,0-21.73,0c-39.66,0-79.98-0.05-118.98-0.09C692.25,101.29,651.91,101.24,612.24,101.24L612.24,101.24z
						 M863.6,164.98c3.75-0.69,7.25-1.04,10.4-1.04c4.98,0,9.34,0.87,12.97,2.59c0.07,0.03,0.15,0.07,0.22,0.1
						c20.33,8.79,39.7,23.28,57.57,43.08c18.87,21.43,32.28,44.41,39.86,68.29c0.11,0.49,0.23,0.97,0.34,1.44
						c0.03,0.1,0.05,0.21,0.08,0.33c-0.31,0.01-0.62,0.02-0.93,0.02c-5.86,0-12.22-1.9-17.9-5.34c-5.96-3.56-11.54-7.51-17.44-11.68
						c-4.84-3.42-9.84-6.96-15.01-10.23c-18.56-12.13-38.53-21.99-59.36-29.3c-29.28-11.08-60.53-12.94-90.76-14.73l-1.96-0.12
						c-1.27-0.13-2.49-0.18-3.6-0.2C802.06,186.55,832.15,171.3,863.6,164.98L863.6,164.98z M1012.43,272.74
						c-6.94-24.43-20.04-48.65-38.93-72c-0.02-0.02-0.03-0.04-0.05-0.06c-10.5-12.69-20.94-23.47-31.58-32.56
						c24.87,6.62,48.38,18.7,67.96,35.15c10.21,8.96,17.92,17.66,23.54,26.61c4.4,7.59,1.27,17.81-3.16,24.87
						C1025.97,261.36,1020.2,269.14,1012.43,272.74L1012.43,272.74z M701.36,236.87l-5.83,0c2.02,0,4,0,5.94,0
						C701.43,236.87,701.39,236.87,701.36,236.87L701.36,236.87z M728.21,248.81c-5.98-7.34-15.49-11.78-25.54-11.95
						c17.1,0,31.46,0.01,44.69,0.03c5.1,0.25,10.55,0.36,17.61,0.36c3.01,0,6.02-0.02,9.03-0.04c2.98-0.02,5.96-0.04,8.94-0.04
						c9.86,0,20.44,0.19,31.06,1.55c32.19,3.96,61.1,12.76,85.93,26.18c8.54,4.72,16.85,10.44,24.88,15.97
						c8.37,5.76,17.03,11.71,26.24,16.8c12.1,6.71,25.69,10.26,39.3,10.26c0.6,0.06,1.17,0.09,1.7,0.11
						c0.87,4.12,0.99,8.6,1.08,13.29c-0.4,0.02-0.76,0.04-1,0.04l-8.54,0c-33.04,0-66.65-0.06-99.14-0.12
						c-32.5-0.06-66.11-0.12-99.17-0.12c-18.09,0-34.58,0.02-50.4,0.05c-0.13,0-0.25,0-0.38,0.01c-0.16,0.01-0.31,0.01-0.47,0.01
						c-3.07,0-6.59-1.55-8.56-3.76c-1.76-1.98-1.57-3.63-1.5-4.18c0.01-0.06,0.01-0.12,0.02-0.18c1.02-11.1,3.77-22.79,8.64-36.77
						C736.16,266.74,734.47,256.21,728.21,248.81L728.21,248.81z M1019.71,301c15.34-7.14,28.14-19.1,36.43-33.97
						c8.81,17.13,11.52,36.75,12.77,54.32l-2.88,0.01c-7.29,0.02-14.58,0.04-21.87,0.04c-8.6,0-15.85-0.03-22.68-0.08
						c-0.19-2.01-0.4-4.02-0.61-5.97c-0.53-4.96-1.03-9.64-1.16-14.33C1019.71,301.01,1019.71,301.01,1019.71,301L1019.71,301z
						 M1021.41,348.19c5.12-0.11,10.76-0.16,17.44-0.16c4.22,0,8.45,0.02,12.67,0.04c4.25,0.02,8.49,0.04,12.74,0.04
						c1.62,0,3.24,0,4.86-0.01c-0.72,18.4-5.31,37.37-13.68,56.53c-0.05-0.08-0.09-0.16-0.14-0.24
						c-7.58-13.58-20.03-25.61-36.03-34.8c-0.03-0.01-0.05-0.03-0.08-0.04c0,0,0,0,0,0c-0.19-1.04,0.32-3.69,0.63-5.32
						c0.39-2.02,0.79-4.11,0.86-6.25c0.48-2.23,0.52-4.45,0.57-6.43C1021.26,350.58,1021.29,349.2,1021.41,348.19L1021.41,348.19z
						 M963.81,398.63c8.25-4.42,14.97-6.64,21.02-6.91c-0.06,0.19-0.11,0.38-0.16,0.57c-10.17,29.31-27.9,56.62-51.29,79
						c-22.57,20.82-43.86,32.08-65.08,34.4c-0.09,0.01-0.17,0.02-0.26,0.03c-1.12,0.16-2.29,0.25-3.48,0.25
						c-6.29,0-12.7-2.24-19.49-4.61c-1.09-0.38-2.17-0.76-3.25-1.13c-22.09-7.94-39.74-17.47-53.96-29.15
						c-5.89-4.98-13.45-8.25-21.82-9.52c6.03,0.02,11.9,0.04,17.69,0.06c0.01,0,0.02,0,0.03,0c0.02,0,0.04,0,0.06,0
						c26.63-0.25,54.05-4.24,81.51-11.85c0.02-0.01,0.04-0.01,0.06-0.02c20.93-6,37.14-12.52,51.01-20.51
						c0.04-0.02,0.08-0.05,0.12-0.07c7.19-4.33,14.14-9.09,20.88-13.69C945.92,409.65,954.74,403.62,963.81,398.63L963.81,398.63z
						 M937.86,504.31c11.93-9,23.48-20.49,35-34.77c0.02-0.03,0.04-0.06,0.07-0.08c19.88-25.43,32.2-47.9,38.73-70.66
						c0.54,0.32,1.09,0.67,1.52,0.94c0.27,0.17,0.54,0.34,0.8,0.51c7.73,5.81,17.32,15.34,19.67,27.96l0.01,0.08
						c0.92,5.14,1.97,10.96-0.5,13.84c-0.08,0.1-0.17,0.2-0.25,0.3C1009.62,472.57,975.57,494.6,937.86,504.31L937.86,504.31z"/>
				</g>
			</g>
			<g id="XMLID_7991_">
				<g id="XMLID_7992_">
					<path class="st34" d="M755.88,737.66c-3,0-5.79-0.11-8.5-0.33c-1.02-0.08-1.96-0.6-2.57-1.42c-0.62-0.82-0.85-1.86-0.65-2.87
						c2.88-14.22,6.34-28.54,9.7-42.38c2.11-8.72,4.3-17.74,6.31-26.62c1.76-7.17,3.46-14.42,5.1-21.43
						c2.43-10.39,4.95-21.13,7.68-31.65c0.41-1.58,1.84-2.69,3.47-2.69c0.01,0,0.03,0,0.04,0c5.38,0.06,11.26,0.09,18.52,0.09
						c3.86,0,7.71-0.01,11.57-0.01c3.86-0.01,7.73-0.01,11.59-0.01c2.54,0,5.09,0,7.63,0.01c0.2-0.01,0.4-0.01,0.6-0.01
						c5.36,0,9.77,2.12,12.11,5.82c2.76,4.26,1.7,9.24,0.93,12.88c-0.01,0.03-0.02,0.1-0.03,0.13c-1.99,8.2-3.97,16.55-5.88,24.63
						c-2.05,8.67-4.17,17.63-6.32,26.43c-1.95,7.85-8.92,13.6-16.59,13.69c-3.42,0.04-6.84,0.05-10.27,0.05
						c-2.64,0-5.28-0.01-7.92-0.01c-2.63-0.01-5.27-0.01-7.9-0.01c-1.27,0-2.55,0-3.82,0.01c-3.64,14.96-6.93,28.62-10.05,42.46
						c-0.35,1.54-1.67,2.68-3.25,2.79C763.1,737.51,759.34,737.66,755.88,737.66z M802.65,667.65c1.28-5.45,2.58-10.9,3.88-16.35
						c1.45-6.09,2.94-12.34,4.39-18.56c-2.78,0.01-5.56,0.01-8.34,0.01c-2.61,0-5.23,0-7.84-0.01c-1.49,5.93-2.9,11.95-4.27,17.8
						c-1.32,5.61-2.67,11.38-4.1,17.11c1.53,0.01,3.06,0.01,4.6,0.01l7.48,0C799.84,667.65,801.25,667.65,802.65,667.65z"/>
					<path class="st33" d="M776.42,611.87c6.19,0.07,12.38,0.09,18.57,0.09c7.71,0,15.41-0.03,23.12-0.03c2.57,0,5.15,0,7.72,0.01
						c0.18-0.01,0.37-0.01,0.55-0.01c3.41,0,7.16,1.12,9.07,4.15c1.99,3.06,1.16,6.89,0.45,10.25
						c-4.13,17.01-8.06,34.05-12.19,51.06c-1.47,5.93-6.91,10.88-13.15,10.95c-3.41,0.04-6.83,0.05-10.25,0.05
						c-5.28,0-10.56-0.03-15.84-0.03c-2.2,0-4.41,0-6.61,0.02c-3.66,15.06-7.31,30.12-10.73,45.24c-3.74,0.27-7.5,0.44-11.25,0.44
						c-2.74,0-5.47-0.09-8.21-0.32c4.67-23.1,10.78-45.91,15.98-68.92C768,647.2,771.86,629.44,776.42,611.87 M802.55,629.16
						c-3.53,0-7.06-0.01-10.59-0.03c-3.59,13.97-6.57,28.1-10.19,42.07c3.07,0.03,6.13,0.04,9.2,0.04c2.49,0,4.98,0,7.47,0
						c2.35,0,4.7,0,7.06,0.02c3.27-14.04,6.7-28.07,9.94-42.12C811.14,629.15,806.84,629.16,802.55,629.16 M776.42,604.7
						c-3.26,0-6.12,2.21-6.94,5.37c-2.74,10.55-5.26,21.31-7.7,31.71c-1.64,7.01-3.34,14.25-5.08,21.34
						c-0.01,0.04-0.02,0.09-0.03,0.13c-2,8.86-4.19,17.87-6.3,26.58c-3.36,13.87-6.83,28.21-9.72,42.5c-0.41,2.01,0.07,4.1,1.3,5.73
						s3.11,2.67,5.15,2.84c2.81,0.23,5.69,0.34,8.79,0.34c3.54,0,7.39-0.15,11.76-0.46c3.16-0.23,5.79-2.49,6.49-5.58
						c2.93-12.99,6-25.79,9.37-39.66c0.32,0,0.64,0,0.96,0c2.63,0,5.27,0.01,7.9,0.01c2.65,0.01,5.29,0.01,7.94,0.01
						c3.98,0,7.26-0.02,10.33-0.05c9.28-0.1,17.7-7,20.03-16.4c2.15-8.84,4.27-17.79,6.32-26.45c1.91-8.08,3.89-16.44,5.88-24.64
						c0.02-0.07,0.03-0.13,0.05-0.2c0.86-4.04,2.14-10.08-1.42-15.61c-3.01-4.74-8.52-7.46-15.11-7.46c-0.22,0-0.44,0-0.65,0.01
						c-2.54-0.01-5.08-0.01-7.62-0.01c-3.86,0-7.72,0.01-11.58,0.01c-3.85,0.01-7.7,0.01-11.54,0.01c-7.25,0-13.12-0.03-18.49-0.09
						C776.47,604.7,776.44,604.7,776.42,604.7L776.42,604.7z M790.94,664.06c1.04-4.27,2.04-8.53,3.01-12.7
						c1.16-4.94,2.35-10.01,3.59-15.03c1.67,0,3.33,0.01,5,0.01c1.28,0,2.56,0,3.84,0c-1.12,4.74-2.24,9.47-3.35,14.11
						c-1.06,4.47-2.15,9.05-3.23,13.62c-0.46,0-0.92,0-1.37,0l-3.74,0l-3.73,0C790.96,664.06,790.95,664.06,790.94,664.06
						L790.94,664.06z"/>
				</g>
			</g>
			<g id="XMLID_7983_">
				<g id="XMLID_7984_">
					<g id="XMLID_7989_">
						<path class="st33" d="M858.47,690.46c2.37,0.03,4.73,0.03,7.1,0.03c1.9,0,3.8,0,5.7,0c2.85,0,5.69,0.01,8.54,0.05
							c-2.59,8.81-3.79,18.11-6.82,26.73c-2.03,0.07-4.06,0.09-6.1,0.09c-2.72,0-5.44-0.04-8.16-0.04c-2.12,0-4.23,0.02-6.35,0.1
							C853.82,708.31,856.47,699.45,858.47,690.46 M858.47,683.28c-3.36,0-6.27,2.33-7,5.62c-0.68,3.05-1.46,6.17-2.21,9.2
							c-1.46,5.88-2.97,11.96-3.96,18.2c-0.34,2.12,0.29,4.28,1.72,5.88c1.36,1.54,3.32,2.42,5.37,2.42c0.09,0,0.18,0,0.26,0
							c1.76-0.06,3.69-0.09,6.08-0.09c1.34,0,2.69,0.01,4.03,0.02c1.38,0.01,2.75,0.02,4.13,0.02c2.46,0,4.48-0.03,6.35-0.09
							c2.95-0.1,5.54-2,6.52-4.79c1.88-5.33,3.08-10.77,4.24-16.04c0.85-3.86,1.66-7.5,2.7-11.05c0.63-2.15,0.22-4.47-1.11-6.28
							c-1.33-1.8-3.42-2.88-5.67-2.92c-3.06-0.05-6.09-0.05-8.65-0.05l-2.86,0l-2.84,0c-2.06,0-4.51,0-7.02-0.03
							C858.52,683.28,858.49,683.28,858.47,683.28L858.47,683.28z"/>
					</g>
					<g id="XMLID_7985_">
						<path class="st34" d="M878.93,737.83c-2.91,0-5.47-0.29-7.85-0.88c-0.08-0.02-0.15-0.04-0.22-0.06
							c-1.52-0.48-3.21-0.72-5.18-0.72c-2.1,0-4.26,0.25-6.55,0.52c-2.4,0.28-4.88,0.57-7.43,0.57c-0.83,0-1.64-0.03-2.41-0.1
							c-2-0.18-4-0.18-6.11-0.19c-2.5,0-5.09,0-7.71-0.32c-0.34-0.04-0.68-0.13-1-0.27c-5.98-2.59-7.89-9.6-6.32-14.94
							c1.07-4.46,2.13-8.92,3.18-13.38c1.8-7.58,3.65-15.41,5.54-23.11c1.45-5.87,5.41-10.67,10.36-13.08
							c-0.74-0.01-1.48-0.03-2.23-0.06c-1.08-0.04-2.08-0.56-2.74-1.42s-0.88-1.97-0.63-3.02c0.67-2.74,1.3-5.49,1.94-8.24
							c1.14-4.95,2.33-10.07,3.7-15.09c1.71-6.88,8.24-11.93,15.51-11.93c0.26,0,0.52,0.01,0.78,0.02c1.64,0.01,3.27,0.01,4.91,0.01
							c3.1,0,6.21-0.01,9.31-0.02c3.11-0.01,6.22-0.02,9.33-0.02c6.14,0,11.11,0.04,15.64,0.13c3.38,0.07,6.34,1.66,8.32,4.47
							c2.2,3.13,2.83,7.35,1.65,11.06c-3.33,14.34-6.8,28.91-10.15,42.99c-3.4,14.27-6.91,29.02-10.28,43.54
							c-0.35,1.49-1.6,2.6-3.13,2.76l-1.2,0.13C885.04,737.52,882.01,737.83,878.93,737.83
							C878.93,737.83,878.93,737.83,878.93,737.83z M858.73,713.73c1.37,0,2.73,0.01,4.1,0.02c1.35,0.01,2.7,0.02,4.05,0.02
							c1.28,0,2.43-0.01,3.49-0.03c1.24-3.99,2.16-8.12,3.11-12.45c0.52-2.37,1.06-4.79,1.66-7.21c-1.36-0.01-2.66-0.01-3.86-0.01
							l-5.73,0c-1.41,0-2.82,0-4.23-0.01c-0.53,2.23-1.08,4.45-1.62,6.62c-1.06,4.28-2.15,8.67-3.02,13.05
							C857.33,713.73,858.01,713.73,858.73,713.73z M867.39,670c4.2,0,8.47,0.05,12.59,0.09l0.79,0.01
							c0.11-0.41,0.21-0.81,0.32-1.22c1.14-4.34,2.31-8.78,3.15-13.23c-2.02,0.04-4.04,0.07-6.03,0.07c-2.38,0-4.76-0.03-7.12-0.1
							c-0.56,1.97-1.03,3.99-1.51,6.09c-0.59,2.56-1.2,5.22-2.02,7.83C867.52,669.7,867.46,669.85,867.39,670z"/>
						<path class="st33" d="M887.12,635.72c5.19,0,10.38,0.03,15.56,0.13c5.47,0.11,8.18,6.2,6.57,10.98
							c-6.71,28.91-13.75,57.77-20.46,86.69c-3.26,0.33-6.57,0.73-9.87,0.73c-2.35,0-4.69-0.2-6.99-0.77
							c-2.07-0.66-4.17-0.89-6.27-0.89c-4.63,0-9.32,1.1-13.98,1.1c-0.7,0-1.41-0.03-2.11-0.08c-4.56-0.42-9.16,0.06-13.69-0.49
							c-3.97-1.72-5.48-6.78-4.28-10.71c2.92-12.19,5.76-24.4,8.74-36.57c1.57-6.35,7.02-11.92,13.82-12.04
							c4.38-0.15,8.76-0.2,13.14-0.2c5.41,0,10.82,0.08,16.23,0.13c1.85-7.2,3.94-14.39,4.95-21.79c-3.42,0.13-6.85,0.2-10.27,0.2
							c-3.24,0-6.48-0.06-9.73-0.18c-1.86,5.4-2.66,11.09-4.35,16.53c-2.71-0.12-5.42-0.14-8.13-0.14c-1.36,0-2.71,0-4.07,0
							c-2.28,0-4.55-0.01-6.83-0.09c1.89-7.75,3.51-15.55,5.61-23.23c1.34-5.4,6.55-9.29,12.05-9.29c0.23,0,0.45,0.01,0.68,0.02
							c1.67,0.01,3.33,0.01,5,0.01C874.68,635.76,880.9,635.72,887.12,635.72 M852.38,717.42c2.12-0.08,4.23-0.1,6.35-0.1
							c2.72,0,5.44,0.04,8.15,0.04c2.03,0,4.07-0.02,6.1-0.09c3.03-8.61,4.24-17.91,6.82-26.73c-2.85-0.04-5.69-0.05-8.54-0.05
							c-1.9,0-3.8,0-5.69,0c-2.37,0-4.74-0.01-7.11-0.03C856.47,699.45,853.82,708.31,852.38,717.42 M887.12,628.54
							c-3.12,0-6.24,0.01-9.35,0.02c-3.1,0.01-6.21,0.02-9.31,0.02c-1.6,0-3.2,0-4.8-0.01c-0.29-0.01-0.59-0.02-0.88-0.02
							c-8.86,0-16.83,6.15-18.99,14.65c-1.38,5.06-2.57,10.2-3.71,15.16c-0.62,2.69-1.26,5.48-1.93,8.19
							c-0.51,2.1-0.05,4.32,1.26,6.04c0.08,0.11,0.16,0.21,0.25,0.31c-2.96,2.96-5.18,6.81-6.27,11.21
							c-1.89,7.73-3.75,15.58-5.55,23.17c-1.05,4.42-2.1,8.84-3.15,13.26c-2.25,7.76,1.39,16.14,8.36,19.16
							c0.64,0.28,1.31,0.46,1.99,0.54c2.84,0.34,5.54,0.34,8.14,0.34c2.03,0,3.95,0,5.75,0.17c0.02,0,0.04,0,0.07,0.01
							c0.86,0.07,1.77,0.11,2.7,0.11c2.75,0,5.34-0.3,7.84-0.6c2.18-0.26,4.24-0.5,6.13-0.5c1.62,0,2.92,0.17,4.09,0.55
							c0.15,0.05,0.3,0.09,0.45,0.13c2.67,0.66,5.52,0.99,8.72,0.99c3.26,0,6.39-0.33,9.41-0.64l1.19-0.12
							c3.05-0.31,5.56-2.53,6.26-5.52c3.37-14.52,6.88-29.29,10.28-43.56c3.34-14.04,6.79-28.55,10.11-42.84
							c1.45-4.72,0.63-10.07-2.18-14.07c-2.61-3.72-6.69-5.9-11.17-5.99C898.27,628.58,893.28,628.54,887.12,628.54L887.12,628.54z
							 M872.15,666.43c0.33-1.32,0.63-2.63,0.93-3.91c0.26-1.11,0.51-2.19,0.77-3.25c1.45,0.02,2.91,0.04,4.37,0.04
							c0.53,0,1.06,0,1.59,0c-0.55,2.36-1.16,4.75-1.8,7.19C876.08,666.46,874.12,666.44,872.15,666.43L872.15,666.43z
							 M865.57,697.67l2.85,0l2.19,0c-0.22,0.96-0.43,1.91-0.63,2.86c-0.74,3.34-1.45,6.56-2.3,9.66c-0.26,0-0.52,0-0.79,0
							c-1.34,0-2.69-0.01-4.03-0.02c-0.58,0-1.16-0.01-1.74-0.01c0.64-2.82,1.34-5.67,2.07-8.59c0.32-1.28,0.64-2.58,0.96-3.89
							C864.65,697.67,865.13,697.67,865.57,697.67L865.57,697.67z"/>
					</g>
				</g>
			</g>
			<g id="XMLID_7981_">
				<path class="st34" d="M925.65,737.77c-3.31,0-7.65-0.25-11.87-2.24c-0.08-0.04-0.16-0.08-0.24-0.12
					c-2.74-1.54-6.94-5.63-4.34-15.66c3.11-12.95,6.25-26.19,9.28-39c2.74-11.58,5.49-23.16,8.26-34.74
					c1.25-6.74,6.78-13.63,15-13.8c5.95-0.06,11.99-0.08,18.51-0.08c6.44,0,13.25,0.03,20.83,0.08c0.15-0.01,0.3-0.01,0.45-0.01
					c3.16,0,6.2,1.41,8.33,3.86c2.01,2.32,2.93,5.33,2.51,8.27c-0.68,4.8-1.86,9.5-3,14.04c-0.84,3.37-1.72,6.85-2.35,10.26
					c-0.3,1.62-1.67,2.83-3.31,2.92c-3.15,0.19-6.22,0.21-8.81,0.21c-1.05,0-2.1,0-3.15-0.01c-1.04,0-2.08-0.01-3.12-0.01
					c-1.34,0-2.68,0.01-4.02,0.03c-0.02,0-0.05,0-0.07,0c-1.04,0-2.03-0.45-2.72-1.24c-0.7-0.81-1-1.89-0.82-2.94
					c0.46-2.71,1.12-5.34,1.75-7.89c0.35-1.39,0.68-2.73,0.99-4.07c-1.94,0.04-3.84,0.05-5.68,0.05c-2.35,0-4.67-0.03-6.94-0.09
					c-4.33,18.04-9.13,38.06-13.72,57.81c0.45,0,0.9,0.01,1.35,0.01c1.74,0.02,3.48,0.03,5.23,0.03c2.31,0,4.27-0.03,6.07-0.09
					c0.67-3.16,1.43-6.29,2.17-9.34c0.9-3.72,1.83-7.57,2.57-11.36c0.32-1.64,1.74-2.85,3.41-2.9c3.16-0.1,6.41-0.14,9.94-0.14
					c2.94,0,6.04,0.03,9.48,0.1c1.11,0.02,2.14,0.55,2.8,1.44c0.66,0.88,0.88,2.03,0.59,3.09c-1.44,5.31-2.72,10.78-3.95,16.08
					c-1.09,4.71-2.23,9.57-3.48,14.35c-1.59,6.38-6.74,11.29-12.83,12.21c-2.84,0.52-5.95,0.76-9.76,0.76
					c-1.92,0-3.85-0.06-5.72-0.11c-1.81-0.05-3.69-0.11-5.51-0.11c-1.17,0-2.22,0.02-3.22,0.07c-0.06,0-0.25,0-0.29,0
					c-0.43-0.01-0.87-0.02-1.3-0.02c-1.45,0-2.91,0.06-4.46,0.13C928.91,737.7,927.28,737.77,925.65,737.77z"/>
				<path class="st33" d="M960.26,635.72c6.96,0,13.93,0.03,20.89,0.08c0.13-0.01,0.25-0.01,0.38-0.01c4.15,0,7.9,3.75,7.29,8.04
					c-1.16,8.17-3.82,16.04-5.33,24.15c-2.87,0.17-5.73,0.21-8.6,0.21c-2.08,0-4.17-0.02-6.25-0.02c-1.37,0-2.74,0.01-4.11,0.04
					c0.92-5.48,2.75-10.75,3.55-16.25c-3.34,0.11-6.69,0.17-10.04,0.17c-3.25,0-6.49-0.06-9.74-0.18
					c-5.2,21.66-10.4,43.34-15.43,65.06c0.2,0,0.39,0,0.59,0c3.5,0,7,0.06,10.5,0.06c3.01,0,6.02-0.05,9.02-0.21
					c1.51-7.87,3.76-15.59,5.3-23.47c3.28-0.1,6.56-0.14,9.84-0.14c3.14,0,6.27,0.04,9.41,0.1c-2.74,10.08-4.78,20.35-7.44,30.46
					c-1.17,4.71-5.02,8.87-9.94,9.58c-3.04,0.56-6.1,0.71-9.18,0.71c-3.73,0-7.49-0.23-11.23-0.23c-1.13,0-2.26,0.02-3.39,0.07
					c-0.47-0.02-0.94-0.02-1.42-0.02c-3.06,0-6.2,0.27-9.3,0.27c-3.56,0-7.07-0.36-10.35-1.9c-4.14-2.34-3.65-7.71-2.63-11.64
					c5.92-24.61,11.68-49.27,17.58-73.9c1.01-5.64,5.55-10.82,11.57-10.95C947.96,635.74,954.11,635.72,960.26,635.72
					 M960.26,628.54L960.26,628.54c-6.54,0-12.6,0.03-18.52,0.08c-0.03,0-0.05,0-0.08,0c-8.92,0.19-16.65,7.17-18.44,16.64
					c-2.78,11.59-5.57,23.37-8.27,34.76c-3.02,12.75-6.14,25.93-9.25,38.88c-3.29,12.76,3.14,17.97,6.07,19.62
					c0.15,0.09,0.31,0.17,0.47,0.24c4.87,2.29,9.72,2.58,13.4,2.58c1.71,0,3.38-0.07,4.99-0.14c1.51-0.07,2.94-0.13,4.31-0.13
					c0.4,0,0.79,0.01,1.19,0.02c0.08,0,0.15,0,0.23,0c0.11,0,0.23,0,0.34-0.01c0.94-0.04,1.93-0.07,3.04-0.07
					c1.76,0,3.53,0.05,5.4,0.11c1.89,0.06,3.85,0.12,5.83,0.12c4.01,0,7.31-0.26,10.35-0.81c7.46-1.15,13.76-7.1,15.72-14.88
					c1.26-4.81,2.4-9.69,3.5-14.41c1.23-5.27,2.49-10.71,3.92-15.95c0.58-2.13,0.14-4.41-1.18-6.18c-1.33-1.77-3.39-2.83-5.6-2.87
					c-3.46-0.07-6.59-0.1-9.55-0.1c-3.57,0-6.86,0.05-10.05,0.14c-3.35,0.1-6.18,2.51-6.82,5.8c-0.72,3.71-1.61,7.35-2.54,11.21
					c-0.53,2.18-1.07,4.4-1.58,6.65c-0.98,0.01-2.03,0.02-3.16,0.02c-0.69,0-1.38,0-2.07-0.01c4-17.13,8.05-34.07,12.02-50.61
					c1.36,0.02,2.73,0.03,4.12,0.03c0.37,0,0.74,0,1.11,0c-0.62,2.48-1.25,5.03-1.7,7.72c-0.35,2.11,0.25,4.26,1.64,5.88
					c1.36,1.58,3.35,2.49,5.43,2.49c0.05,0,0.1,0,0.14,0c1.17-0.02,2.43-0.03,3.97-0.03c1.03,0,2.06,0,3.09,0.01
					c1.05,0,2.11,0.01,3.16,0.01c2.64,0,5.78-0.03,9.03-0.22c3.29-0.2,6.02-2.61,6.63-5.85c0.62-3.31,1.44-6.58,2.31-10.05
					c1.16-4.63,2.36-9.42,3.07-14.41c0.56-3.97-0.66-8.02-3.35-11.13c-2.81-3.24-6.83-5.1-11.04-5.1c-0.17,0-0.34,0-0.51,0.01
					C973.48,628.57,966.69,628.54,960.26,628.54L960.26,628.54z"/>
			</g>
			<g id="XMLID_7976_">
				<g id="XMLID_7977_">
					<path class="st34" d="M1021.55,737.64c-2.83,0-5.67-0.02-8.5-0.05c-2.81-0.02-5.63-0.05-8.44-0.05c-1.3,0-2.61,0.01-3.91,0.02
						c-0.01,0-0.17,0-0.24-0.01l-0.25-0.01c-4.07-0.23-10.21-0.57-13.17-5.86c-2.4-4.05-1.44-8.28-0.66-11.68
						c0.09-0.4,0.18-0.79,0.26-1.18c3.1-12.82,6.16-25.78,9.12-38.31c2.67-11.28,5.42-22.95,8.19-34.41
						c1.44-7.96,8.1-13.95,15.54-13.95c0.27,0,0.54,0.01,0.8,0.02l2.62,0c3.34,0,6.68-0.01,10.02-0.02
						c3.35-0.01,6.7-0.02,10.06-0.02c6.43,0,11.64,0.05,16.4,0.14c3.11,0.05,6.04,1.54,8.01,4.09c2.11,2.74,2.89,6.35,2.09,9.68
						c-1.57,7.87-3.49,15.76-5.35,23.4c-1.12,4.58-2.27,9.31-3.33,13.96c-0.56,3.93-3.35,6.42-5.84,8.09
						c0.89,0.15,1.69,0.62,2.25,1.34c0.67,0.87,0.91,1.99,0.65,3.05c-0.93,3.77-1.82,7.62-2.69,11.34
						c-1.38,5.95-2.82,12.1-4.42,18.13c-1.79,6.74-7.98,11.67-15.06,11.98C1031.61,737.54,1027.11,737.64,1021.55,737.64z
						 M1014.55,713.44c1.69,0.02,3.42,0.03,5.21,0.03c2.35,0,4.77-0.02,7.35-0.06c1.32-5.89,2.82-12.12,4.66-19.36
						c0.06-0.23,0.14-0.45,0.24-0.66c-1.1-0.01-2.2-0.01-3.3-0.01c-3.67,0-6.69,0.06-9.45,0.19
						C1017.72,700.32,1016.12,707.02,1014.55,713.44z M1031.61,670.18c1.89,0,3.77,0,5.66,0.02c0.22-0.88,0.44-1.75,0.66-2.63
						c0.99-3.9,2-7.89,2.78-11.88c-1.05,0-2.11-0.01-3.16-0.03c-1.14-0.01-2.27-0.03-3.41-0.03c-1.8,0-3.84,0.03-5.95,0.19
						c-0.58,2.68-1.22,5.34-1.85,7.93c-0.51,2.12-1.03,4.28-1.51,6.44C1025.23,670.19,1029.74,670.18,1031.61,670.18z"/>
					<path class="st33" d="M1043,635.72c5.44,0,10.88,0.03,16.31,0.14c4.73,0.07,7.76,5.01,6.67,9.41
						c-2.5,12.59-5.87,24.99-8.71,37.49c-0.42,3.41-3.58,5.37-6.28,6.96c-2.95,0.12-5.9,0.16-8.85,0.16
						c-4.48,0-8.96-0.08-13.44-0.08c-4.12,0-8.24,0.07-12.35,0.35c-2.01,8.95-4.17,17.87-6.35,26.8c3.26,0.08,6.51,0.12,9.76,0.12
						c3.41,0,6.82-0.04,10.24-0.1c1.61-7.37,3.38-14.7,5.24-22.01c3.18,0.05,6.37,0.05,9.56,0.05c0.54,0,1.08,0,1.62,0
						c2.65,0,5.31,0,7.96,0.03c-2.41,9.79-4.5,19.66-7.09,29.41c-1.4,5.29-6.31,9.08-11.75,9.31c-4.66,0.24-9.33,0.3-13.99,0.3
						c-5.64,0-11.29-0.09-16.93-0.09c-1.32,0-2.63,0.01-3.95,0.02c-3.73-0.21-8.48-0.39-10.52-4.08c-1.93-3.22-0.71-6.96,0-10.32
						c5.86-24.24,11.48-48.51,17.31-72.74c1.01-5.82,5.93-11.1,12.03-11.1c0.23,0,0.46,0.01,0.69,0.02c0.91,0,1.83,0,2.74,0
						C1029.61,635.76,1036.31,635.72,1043,635.72 M1045,652.03c-1.32,0.05-2.63,0.07-3.95,0.07c-2.3,0-4.6-0.05-6.9-0.05
						c-2.98,0-5.96,0.09-8.93,0.49c-1.43,7.13-3.41,14.12-4.81,21.26c3.74,0,7.49-0.02,11.23-0.02c2.81,0,5.62,0.01,8.43,0.05
						C1041.82,666.58,1043.89,659.4,1045,652.03 M1043,628.54c-3.36,0-6.71,0.01-10.07,0.02c-3.34,0.01-6.67,0.02-10.01,0.02
						c-0.84,0-1.68,0-2.53,0c-0.3-0.02-0.61-0.02-0.91-0.02c-9.12,0-17.27,7.2-19.06,16.8c-2.75,11.43-5.5,23.05-8.16,34.29
						c-2.96,12.54-6.03,25.5-9.11,38.24c-0.02,0.06-0.03,0.13-0.04,0.19c-0.08,0.37-0.16,0.75-0.25,1.13
						c-0.82,3.59-2.05,9,1.05,14.27c3.94,6.97,11.83,7.41,16.08,7.65l0.25,0.01c0.13,0.01,0.27,0.01,0.4,0.01c0.02,0,0.05,0,0.07,0
						c1.29-0.01,2.59-0.02,3.88-0.02c2.79,0,5.64,0.02,8.4,0.05c2.79,0.02,5.68,0.05,8.53,0.05c5.62,0,10.18-0.1,14.36-0.31
						c8.59-0.38,16.14-6.4,18.32-14.65c1.61-6.08,3.05-12.26,4.44-18.24c0.86-3.71,1.76-7.55,2.68-11.29
						c0.44-1.8,0.17-3.69-0.74-5.28c1.76-1.85,3.24-4.25,3.73-7.4c1.04-4.59,2.18-9.25,3.29-13.77c1.87-7.65,3.79-15.56,5.37-23.48
						c1.02-4.36-0.01-9.06-2.76-12.63c-2.64-3.43-6.58-5.43-10.82-5.49C1054.68,628.59,1049.45,628.54,1043,628.54L1043,628.54z
						 M1031.11,659.26c1.06-0.03,2.09-0.04,3.04-0.04c0.71,0,1.43,0.01,2.14,0.01c-0.56,2.42-1.17,4.86-1.81,7.36
						c-0.9,0-1.84,0-2.84,0c-0.76,0-1.52,0-2.28,0c0.16-0.66,0.32-1.33,0.48-2C1030.26,662.84,1030.69,661.06,1031.11,659.26
						L1031.11,659.26z M1022.14,697.06c1.6-0.05,3.31-0.07,5.2-0.08c-1.16,4.62-2.17,8.85-3.1,12.88c-1.53,0.01-3.02,0.02-4.47,0.02
						c-0.22,0-0.44,0-0.66,0C1020.12,705.68,1021.14,701.38,1022.14,697.06L1022.14,697.06z"/>
				</g>
			</g>
			<g id="XMLID_7974_">
				<path class="st34" d="M1075,737.64c-2.81,0-5.88-0.09-9.68-0.29c-1.06-0.06-2.03-0.57-2.67-1.42c-0.64-0.84-0.87-1.92-0.64-2.96
					c4.86-21.57,10.09-43.42,15.15-64.56c2.67-11.16,5.34-22.32,7.97-33.48c0.38-1.63,1.84-2.77,3.49-2.77
					c0.12,0,0.25,0.01,0.37,0.02c0.75,0.08,1.58,0.12,2.52,0.12c1.39,0,2.8-0.08,4.3-0.17c1.54-0.09,3.13-0.18,4.72-0.18
					c2.72,0,6.21,0.23,9.65,1.86c3.04-0.29,6.14-0.71,9.15-1.13c5.01-0.69,10.2-1.39,15.43-1.55c0.13-0.01,0.31-0.01,0.49-0.01
					c3.71,0,7.32,1.68,9.66,4.5c2.09,2.52,2.92,5.65,2.32,8.81c-1.12,6.93-2.77,13.91-4.37,20.67l-0.75,3.2
					c-0.3,1.29-1.3,2.31-2.59,2.65c-2.41,0.63-5.11,0.92-8.49,0.92c-1.66,0-3.33-0.07-4.95-0.13c-1.61-0.06-3.13-0.13-4.64-0.13
					c-0.71,0-1.41,0.01-2.1,0.05c-0.06,0-0.12,0-0.18,0c-1.03,0-2.02-0.45-2.7-1.23c-0.72-0.83-1.03-1.94-0.82-3.02
					c0.31-1.65,0.68-3.29,1.04-4.87c0.42-1.85,0.82-3.63,1.13-5.4c-0.94,0.03-1.92,0.04-2.98,0.04c-1.97,0-3.95-0.05-5.87-0.1
					c-0.78-0.02-1.55-0.04-2.33-0.05c-3.98,15.77-7.75,31.83-11.41,47.39c-2.31,9.84-4.7,20.01-7.12,30
					c-0.36,1.48-1.61,2.57-3.12,2.73C1081.9,737.49,1078.63,737.64,1075,737.64z"/>
				<path class="st33" d="M1135.25,634.73c4.78,0,9.4,3.99,8.45,9.06c-1.29,7.97-3.24,15.84-5.09,23.7
					c-2.42,0.63-4.98,0.81-7.58,0.81c-3.17,0-6.42-0.26-9.58-0.26c-0.77,0-1.53,0.02-2.28,0.05c0.92-4.92,2.41-9.76,2.71-14.78
					c-2.35,0.23-4.7,0.3-7.06,0.3c-3.66,0-7.32-0.17-10.97-0.19c-6.78,26.63-12.77,53.46-19.23,80.18c-3.2,0.33-6.42,0.46-9.63,0.46
					c-3.17,0-6.33-0.12-9.49-0.29c7.38-32.74,15.41-65.34,23.1-98.01c0.95,0.1,1.91,0.14,2.89,0.14c2.98,0,6.04-0.35,9.03-0.35
					c3.13,0,6.18,0.38,8.93,1.94c8.49-0.73,16.89-2.5,25.41-2.76C1134.99,634.73,1135.12,634.73,1135.25,634.73 M1135.25,627.56
					c-0.22,0-0.43,0-0.65,0.01c-5.41,0.16-10.67,0.88-15.76,1.58c-2.78,0.38-5.44,0.74-8.08,1.02c-3.82-1.58-7.57-1.79-10.23-1.79
					c-1.7,0-3.34,0.09-4.93,0.18c-1.45,0.08-2.82,0.16-4.1,0.16c-0.81,0-1.52-0.03-2.15-0.1c-0.25-0.03-0.5-0.04-0.74-0.04
					c-3.29,0-6.21,2.26-6.98,5.53c-2.63,11.18-5.35,22.55-7.98,33.54c-5.05,21.12-10.27,42.96-15.14,64.53
					c-0.47,2.06,0,4.23,1.28,5.91c1.28,1.69,3.23,2.72,5.34,2.83c3.86,0.2,7,0.3,9.87,0.3c3.75,0,7.14-0.16,10.36-0.49
					c3.02-0.31,5.52-2.5,6.24-5.45c2.42-10,4.81-20.18,7.12-30.03c3.44-14.63,6.98-29.71,10.7-44.55c1.31,0.03,2.64,0.06,3.98,0.08
					c-0.07,0.33-0.15,0.66-0.22,0.99c-0.36,1.61-0.74,3.28-1.06,5c-0.4,2.16,0.2,4.39,1.65,6.04c1.37,1.56,3.34,2.46,5.4,2.46
					c0.12,0,0.24,0,0.36-0.01c0.59-0.03,1.22-0.04,1.92-0.04c1.43,0,2.92,0.06,4.49,0.12c1.65,0.07,3.36,0.14,5.09,0.14
					c3.69,0,6.68-0.33,9.39-1.04c2.57-0.67,4.56-2.71,5.17-5.3c0.25-1.06,0.5-2.12,0.75-3.17c1.61-6.8,3.27-13.83,4.43-20.95
					c0.76-4.19-0.34-8.33-3.1-11.66C1144.66,629.72,1140.02,627.56,1135.25,627.56L1135.25,627.56z"/>
			</g>
			<g id="XMLID_7972_">
				<path class="st34" d="M1148.71,737.37c-0.56-0.02-1.12-0.03-1.7-0.03c-3.07-0.03-6.88-0.07-10.15-2.39
					c-0.03-0.02-0.07-0.05-0.1-0.08c-3.55-2.71-4.73-7.25-3.51-13.48c0.83-3.8,1.73-7.54,2.6-11.17c1.18-4.92,2.41-10.01,3.41-15.03
					c0.31-1.54,1.59-2.7,3.15-2.86c3.96-0.4,7.79-0.46,11-0.46c1.39,0,2.79,0.01,4.18,0.02c1.37,0.01,2.75,0.02,4.12,0.02
					c0,0,0.49,0,0.49,0c-0.29-0.19-0.58-0.38-0.86-0.58c-4.5-3.01-9.15-6.11-13.52-9.54c-0.07-0.05-0.14-0.11-0.2-0.17
					c-4.4-4.01-3.13-9.7-2.29-13.46c0.11-0.48,0.21-0.95,0.3-1.4c0.01-0.07,0.03-0.14,0.05-0.2c0.81-3.09,1.54-6.28,2.25-9.37
					c1.07-4.66,2.18-9.48,3.6-14.19c1.86-6.3,8.01-10.89,14.62-10.89c0.31,0,0.62,0.01,0.93,0.03c1.94,0.01,3.88,0.01,5.81,0.01
					c2.75,0,5.51-0.01,8.26-0.02c2.76-0.01,5.53-0.02,8.29-0.02c6.08,0,10.77,0.04,15.18,0.13c0.1,0,0.19,0,0.29,0
					c4.51,0,8.42,3.03,10.21,7.91c0.15,0.4,0.22,0.81,0.22,1.24v4.8c0,0.35-0.05,0.7-0.15,1.03c-0.82,2.71-1.39,5.53-2,8.52
					c-0.96,4.72-1.96,9.6-4,14.14c-0.55,1.22-1.73,2.04-3.07,2.11c-1.93,0.11-4,0.16-6.5,0.16c-1.61,0-3.22-0.02-4.83-0.04
					c-1.58-0.02-3.16-0.04-4.73-0.04c-0.94,0-1.88,0.01-2.82,0.03c-0.02,0-0.05,0-0.07,0c-1.1,0-2.13-0.5-2.81-1.36
					c-0.7-0.88-0.94-2.03-0.66-3.12c1.05-4.06,2-8.06,2.84-11.94c-1.07,0-2.14,0-3.2-0.01c-2.72,0-5.51-0.01-8.31-0.04
					c-0.27,1.07-0.54,2.13-0.81,3.2c-0.54,2.15-1.09,4.35-1.68,6.55c4.54,3.39,9.38,6.53,14.08,9.57c4.19,2.71,8.52,5.52,12.67,8.52
					c0.04,0.03,0.07,0.05,0.1,0.08c6.34,4.94,4.04,13.61,3.18,16.88c-0.99,3.62-1.84,7.35-2.65,10.96
					c-1.11,4.9-2.25,9.97-3.79,14.92c-1.78,6.32-8.03,10.97-14.84,10.97c-0.11,0-0.21,0-0.32,0c-2.91,0.05-6.06,0.07-9.92,0.07
					c-2.24,0-4.48-0.01-6.72-0.02c-2.23-0.01-4.46-0.01-6.69-0.01c-2.92,0-5.84,0.01-8.77,0.05c-0.02,0-0.04,0-0.05,0
					C1148.8,737.37,1148.76,737.37,1148.71,737.37z M1164.46,713.47c1.26,0.01,2.51,0.02,3.77,0.02c1.72,0,3.19-0.02,4.53-0.07
					c1.1-3.54,2.02-7.41,2.84-11.94c-3.2-2.59-6.63-5.01-10.06-7.34c0.27,0.65,0.34,1.38,0.19,2.08c-0.65,3.17-1.42,6.35-2.16,9.41
					c-0.62,2.56-1.25,5.19-1.82,7.81C1162.66,713.45,1163.56,713.46,1164.46,713.47z"/>
				<path class="st33" d="M1166.19,635.7c0.27,0,0.53,0.01,0.8,0.03c1.99,0.01,3.97,0.02,5.96,0.02c5.51,0,11.02-0.03,16.53-0.03
					c5.07,0,10.14,0.03,15.21,0.13c0.09,0,0.17-0.01,0.26-0.01c3.32,0,5.75,2.59,6.84,5.56v4.8c-2.2,7.3-2.74,15.34-5.83,22.22
					c-2.1,0.12-4.2,0.15-6.3,0.15c-3.19,0-6.38-0.08-9.57-0.08c-0.96,0-1.92,0.01-2.89,0.03c1.4-5.43,2.67-10.89,3.78-16.39
					c-6.24-0.07-12.46,0.01-18.68-0.13c-1.3,4.92-2.45,9.87-3.82,14.77c9.16,7.15,19.34,12.81,28.74,19.61
					c4.06,3.16,3.06,8.8,1.92,13.13c-2.34,8.52-3.78,17.29-6.41,25.73c-1.41,5.01-6.27,8.45-11.41,8.45c-0.1,0-0.2,0-0.31,0
					c-3.31,0.06-6.63,0.07-9.94,0.07c-4.47,0-8.94-0.03-13.4-0.03c-2.94,0-5.88,0.01-8.82,0.05c-3.33-0.13-7.05,0.27-9.9-1.76
					c-3.03-2.32-2.83-6.59-2.17-9.94c1.92-8.74,4.25-17.4,6.01-26.18c3.54-0.36,7.09-0.44,10.64-0.44c2.77,0,5.54,0.05,8.3,0.05
					c0.16,0,0.33,0,0.49,0c-1.48,7.22-3.54,14.31-4.84,21.56c1.08-0.03,2.17-0.03,3.25-0.03c2.53,0,5.07,0.05,7.6,0.05
					c2.39,0,4.78-0.04,7.17-0.21c1.89-5.45,3.13-11.15,4.08-16.82c-9.2-7.8-19.94-13.64-29.42-21.08c-3.29-2.99-1.62-7.8-0.88-11.5
					c2.04-7.79,3.5-15.73,5.82-23.44C1156.44,639.18,1161.14,635.7,1166.19,635.7 M1162.22,695.5L1162.22,695.5 M1166.19,628.53
					L1166.19,628.53c-8.3,0-15.73,5.54-18.07,13.48c-1.44,4.79-2.56,9.67-3.65,14.39c-0.7,3.06-1.43,6.23-2.23,9.26
					c-0.04,0.13-0.07,0.27-0.09,0.41c-0.09,0.43-0.19,0.87-0.29,1.32c-0.9,4.01-2.57,11.48,3.37,16.89c0.13,0.12,0.26,0.23,0.4,0.34
					c1.62,1.27,3.27,2.49,4.93,3.68c-2.58,0.04-5.53,0.15-8.5,0.46c-3.13,0.32-5.69,2.64-6.31,5.73c-0.99,4.95-2.21,10-3.38,14.89
					c-0.88,3.64-1.78,7.41-2.6,11.16c-0.01,0.05-0.02,0.1-0.03,0.16c-1.87,9.57,1.6,14.54,4.85,17.02c0.07,0.05,0.13,0.1,0.2,0.15
					c4.18,2.97,8.81,3.02,12.19,3.05c0.54,0.01,1.07,0.01,1.6,0.03c0.09,0,0.18,0.01,0.27,0.01c0.03,0,0.07,0,0.1,0
					c2.57-0.04,5.35-0.05,8.72-0.05c2.22,0,4.45,0.01,6.67,0.01c2.24,0.01,4.49,0.01,6.73,0.01c3.85,0,7.01-0.02,9.92-0.07
					c0.11,0,0.21,0,0.32,0c8.48,0,15.98-5.58,18.29-13.58c1.57-5.06,2.73-10.17,3.85-15.12c0.84-3.73,1.64-7.26,2.6-10.77
					c0.01-0.02,0.01-0.04,0.02-0.06c0.93-3.52,3.76-14.23-4.44-20.63c-0.07-0.05-0.14-0.1-0.21-0.15c-2.32-1.68-4.69-3.29-7.06-4.86
					c0.14,0,0.28,0,0.42,0.01c1.63,0.02,3.25,0.04,4.88,0.04c2.57,0,4.7-0.05,6.7-0.16c2.68-0.15,5.05-1.78,6.15-4.22
					c2.2-4.9,3.24-9.98,4.24-14.89c0.59-2.9,1.15-5.65,1.92-8.2c0.2-0.67,0.3-1.37,0.3-2.07v-4.8c0-0.84-0.15-1.68-0.44-2.47
					c-2.29-6.23-7.62-10.26-13.58-10.26c-0.1,0-0.2,0-0.3,0c-4.41-0.09-9.1-0.13-15.17-0.13c-2.76,0-5.53,0.01-8.29,0.02
					c-2.75,0.01-5.5,0.02-8.24,0.02c-1.9,0-3.81,0-5.71-0.01C1166.89,628.54,1166.54,628.53,1166.19,628.53L1166.19,628.53z
					 M1176.67,663.93c0.36-1.42,0.72-2.82,1.07-4.21c0.04-0.16,0.08-0.31,0.12-0.47c1.42,0.01,2.84,0.01,4.24,0.01
					c-0.55,2.38-1.14,4.79-1.77,7.22C1179.09,665.64,1177.87,664.79,1176.67,663.93L1176.67,663.93z M1166.24,709.9
					c0.27-1.13,0.54-2.26,0.82-3.42c0.47-1.94,0.95-3.92,1.4-5.92c1.09,0.79,2.16,1.58,3.21,2.39c-0.5,2.51-1.03,4.8-1.62,6.95
					c-0.57,0.01-1.18,0.01-1.82,0.01C1167.57,709.91,1166.91,709.9,1166.24,709.9L1166.24,709.9z"/>
			</g>
		</g>
		<g id="XMLID_7954_">
			<g id="XMLID_7969_">
				<path class="st35" d="M984.12,290.55c-7.8,0-16.14-2.45-23.48-6.9c-6.26-3.74-12.27-7.99-18.08-12.1
					c-4.74-3.35-9.63-6.82-14.59-9.94c-17.92-11.72-37.15-21.21-57.21-28.25c-27.85-10.56-58.3-12.36-87.75-14.11l-2.13-0.13
					c-0.06,0-0.13-0.01-0.19-0.02c-1.24-0.14-2.55-0.16-3.67-0.16c-0.47,0-2.37,0.01-2.86,0.01c-3.62,0-7.81-0.19-11.69-2.44
					c-1.6-0.93-2.23-2.93-1.45-4.61c1.02-2.19,2.18-4.49,4.18-6.35c26.25-25.78,60.47-43.94,96.35-51.14
					c4.53-0.84,8.59-1.24,12.46-1.24c6.56,0,12.45,1.21,17.52,3.6c21.75,9.41,42.36,24.81,61.26,45.76
					c19.99,22.7,34.18,47.1,42.21,72.55c0.04,0.12,0.07,0.24,0.09,0.36c0.09,0.46,0.21,0.94,0.33,1.44c0.79,3.22,2.1,8.62-2.2,12.15
					c-0.45,0.37-0.97,0.62-1.53,0.74C989.24,290.29,986.7,290.55,984.12,290.55z"/>
				<path class="st33" d="M874,156.77c5.52,0,11.01,0.9,16.04,3.28c23.19,10.03,43.24,26.24,60.08,44.89
					c18.25,20.73,33.12,44.79,41.45,71.23c0.66,3.2,2.41,7.61-0.63,10.1c-2.25,0.48-4.54,0.7-6.82,0.7
					c-7.58,0-15.16-2.47-21.62-6.38c-11.27-6.74-21.51-15.01-32.61-22.01c-18.07-11.82-37.56-21.45-57.94-28.6
					C843,219,811.67,217.36,781.09,215.54c-1.33-0.15-2.7-0.18-4.08-0.18c-0.95,0-1.91,0.01-2.86,0.01c-3.44,0-6.85-0.19-9.89-1.96
					c0.88-1.9,1.83-3.82,3.4-5.26c25.82-25.37,59.09-43.1,94.58-50.22C866.08,157.23,870.05,156.77,874,156.77 M874,149.6L874,149.6
					c-4.09,0-8.37,0.42-13.06,1.28c-0.04,0.01-0.07,0.01-0.11,0.02c-36.54,7.33-71.38,25.82-98.12,52.06
					c-2.46,2.3-3.85,5.04-4.95,7.43c-1.56,3.36-0.3,7.36,2.91,9.22c4.43,2.58,9.11,2.93,13.5,2.93c0.49,0,0.99,0,1.49-0.01
					c0.46,0,0.92-0.01,1.37-0.01c1.02,0,2.21,0.02,3.27,0.14c0.13,0.01,0.25,0.02,0.38,0.03l2.14,0.13
					c29.18,1.73,59.35,3.52,86.6,13.85c0.06,0.02,0.11,0.04,0.17,0.06c19.79,6.94,38.76,16.3,56.39,27.83
					c0.03,0.02,0.07,0.04,0.1,0.06c4.87,3.08,9.73,6.51,14.43,9.84c5.87,4.15,11.93,8.44,18.33,12.26c7.98,4.83,16.74,7.4,25.3,7.4
					c2.83,0,5.62-0.29,8.31-0.86c1.13-0.24,2.18-0.74,3.07-1.47c6.05-4.96,4.27-12.26,3.41-15.77c-0.11-0.46-0.22-0.9-0.31-1.32
					c-0.05-0.24-0.11-0.48-0.19-0.72c-8.18-25.93-22.61-50.76-42.91-73.81c-0.02-0.02-0.04-0.04-0.06-0.07
					c-19.24-21.32-40.25-37-62.45-46.62C887.46,150.91,881.07,149.6,874,149.6L874,149.6z"/>
			</g>
			<g id="XMLID_7967_">
				<path class="st35" d="M1010.42,284.53c-4.6,0-7.26-4.37-8.14-8.15c-6.49-23.26-18.99-46.44-37.14-68.88
					c-15.28-18.48-30.38-32.67-46.14-43.37c-0.1-0.07-0.2-0.15-0.3-0.23c-0.24-0.2-0.59-0.44-0.96-0.69
					c-1.68-1.14-4.81-3.27-4.28-7.49c0.23-1.81,1.77-3.14,3.56-3.14c0.13,0,0.26,0.01,0.39,0.02c36.27,3.97,71.58,19.06,99.42,42.47
					c11.13,9.75,19.53,19.28,25.74,29.17c0.02,0.03,0.04,0.06,0.05,0.09c5.88,10,4.65,23.52-3.3,36.17
					c-5.74,8.93-13.89,19.63-26.35,23.55C1012.12,284.37,1011.27,284.53,1010.42,284.53z"/>
				<path class="st33" d="M917.01,156.18c35.61,3.9,70.08,18.59,97.5,41.65c9.5,8.32,18.28,17.61,25.01,28.33
					c6,10.19,2.69,23.01-3.24,32.44c-5.96,9.27-13.57,18.67-24.49,22.07c-0.48,0.19-0.93,0.27-1.36,0.27
					c-2.58,0-4.14-3.13-4.67-5.45c-7.2-25.86-21.02-49.46-37.83-70.25c-13.69-16.56-29.09-31.98-46.92-44.08
					C919.38,159.8,916.67,158.83,917.01,156.18 M917,149c-3.57,0-6.65,2.66-7.11,6.28c-0.81,6.4,4.01,9.67,5.82,10.91
					c0.24,0.16,0.56,0.38,0.67,0.47c0.19,0.16,0.39,0.31,0.6,0.45c15.47,10.5,30.32,24.46,45.39,42.69
					c17.81,22.03,30.07,44.73,36.43,67.48c1.57,6.59,6.11,10.84,11.62,10.84c1.24,0,2.48-0.22,3.69-0.66
					c13.52-4.29,22.16-15.59,28.19-24.98c0.01-0.02,0.03-0.04,0.04-0.06c8.68-13.81,9.93-28.73,3.35-39.9
					c-0.03-0.06-0.07-0.12-0.1-0.17c-6.39-10.19-15.01-19.98-26.36-29.92c-0.04-0.03-0.07-0.06-0.11-0.1
					c-28.38-23.86-64.37-39.24-101.34-43.29C917.52,149.01,917.26,149,917,149L917,149z"/>
			</g>
			<g id="XMLID_7965_">
				<path class="st35" d="M983.62,332.16c-33.05,0-66.66-0.06-99.17-0.12c-32.5-0.06-66.1-0.12-99.15-0.12
					c-16.77,0-33.54,0.02-50.31,0.05c-0.32,0.02-0.64,0.02-0.96,0.02c-6.2,0-12.56-2.82-16.6-7.37c-3.25-3.66-4.69-8.01-4.15-12.59
					c1.1-11.93,4.03-24.44,9.21-39.3c2.21-5.97,1.21-12.62-2.53-17.01c-4.13-5.1-10.8-8.1-17.9-8.1c-0.18,0-0.37,0-0.55,0.01
					l-25.66-0.01c-15.7-0.01-31.4-0.01-47.09-0.01c-17.96,0-35.91,0.01-53.87,0.04c0,0,0,0-0.01,0c-0.98,0-1.92-0.4-2.6-1.11
					c-0.68-0.71-1.03-1.67-0.98-2.66c0.28-5.56,1.79-10.86,3.23-15.31c0.48-1.48,1.86-2.48,3.41-2.48c0,0,0,0,0,0
					c17.61,0.03,35.22,0.03,52.83,0.03l63.92-0.01c17.62,0,35.23,0.01,52.85,0.03c0.06,0,0.11,0,0.17,0
					c4.97,0.24,10.29,0.35,17.25,0.35c2.99,0,5.97-0.02,8.96-0.04c3-0.02,6-0.04,9-0.04c10.22,0,21.21,0.2,32.43,1.64
					c33.49,4.12,63.69,13.34,89.72,27.41c9.04,5,17.57,10.87,25.83,16.55c8.16,5.61,16.59,11.41,25.34,16.24
					c10.53,5.84,22.33,8.92,34.14,8.92c0,0,0.38,0,0.39,0c0.17,0,0.35,0.01,0.52,0.04c0.39,0.06,0.94,0.08,1.53,0.1
					c2.49,0.09,7.13,0.26,8.79,4.82c0.02,0.06,0.04,0.11,0.06,0.17c1.98,6.41,2.11,13.02,2.23,19.4l0.04,1.81
					c0.3,2.55-0.63,4.29-1.49,5.31c-2.59,3.09-7.47,3.25-10.1,3.33C992.32,332.16,983.62,332.16,983.62,332.16z"/>
				<path class="st33" d="M577.94,229.67c17.57,0.03,35.16,0.03,52.73,0.03c21.37,0,42.75-0.01,64.12-0.01
					c17.58,0,35.16,0.01,52.74,0.03c5.8,0.29,11.62,0.36,17.43,0.36c5.99,0,11.98-0.08,17.96-0.08c10.68,0,21.35,0.24,31.97,1.61
					c30.73,3.78,61.14,12.24,88.47,27c17.75,9.82,33.38,22.98,51.14,32.78c10.93,6.06,23.36,9.37,35.87,9.37c0.13,0,0.26,0,0.39,0
					c2.49,0.36,6.38-0.39,7.47,2.6c2.03,6.57,1.96,13.59,2.11,20.42c0.66,4.45-5.01,4.68-8.11,4.78c-2.88,0-5.77,0-8.66,0
					c-66.1,0-132.21-0.24-198.31-0.24c-16.8,0-33.58,0.02-50.38,0.05c-0.29,0.02-0.58,0.02-0.87,0.02c-8.5,0-18.28-6.66-17.19-15.95
					c1.22-13.19,4.69-26.07,9.03-38.54c2.53-6.82,1.61-14.89-3.19-20.52c-4.94-6.1-12.84-9.36-20.63-9.36c-0.21,0-0.42,0-0.63,0.01
					c-24.23-0.01-48.45-0.03-72.67-0.03c-17.96,0-35.92,0.01-53.88,0.04C575.13,239.12,576.43,234.34,577.94,229.67 M577.94,222.49
					c-3.11,0-5.87,2.01-6.83,4.97c-1.51,4.67-3.1,10.25-3.4,16.23c-0.1,1.97,0.61,3.89,1.97,5.31c1.35,1.42,3.23,2.23,5.2,2.23
					c0,0,0.01,0,0.01,0c16.16-0.03,33.28-0.04,53.87-0.04c15.8,0,31.59,0.01,47.39,0.01l25.27,0.01c0.06,0,0.11,0,0.17,0
					c0.16,0,0.31-0.01,0.47-0.01c5.93,0,11.7,2.57,15.05,6.7c0.04,0.05,0.08,0.09,0.12,0.14c2.91,3.41,3.66,8.66,1.92,13.36
					c-0.02,0.04-0.03,0.09-0.05,0.13c-5.27,15.11-8.25,27.87-9.4,40.16c-0.62,5.51,1.17,10.94,5.04,15.29
					c4.7,5.29,12.09,8.58,19.29,8.58c0.35,0,0.7-0.01,1.05-0.02c15.75-0.04,32.17-0.05,50.19-0.05c33.04,0,66.64,0.06,99.13,0.12
					c32.51,0.06,66.12,0.12,99.19,0.12l8.66,0c0.07,0,0.15,0,0.22,0c3.19-0.1,9.12-0.29,12.74-4.62c1.8-2.15,2.61-4.92,2.31-7.85
					c-0.01-0.54-0.02-1.09-0.03-1.63c-0.13-6.64-0.26-13.5-2.39-20.4c-0.04-0.11-0.07-0.23-0.12-0.34
					c-2.49-6.83-9.42-7.09-12.03-7.18c-0.4-0.01-0.95-0.03-1.14-0.06c-0.34-0.05-0.69-0.08-1.04-0.08c-0.01,0-0.03,0-0.04,0l-0.35,0
					c-11.19,0-22.4-2.93-32.39-8.47c-8.61-4.75-16.97-10.5-25.05-16.06c-8.33-5.73-16.94-11.65-26.1-16.72
					c-0.02-0.01-0.04-0.02-0.06-0.03c-26.43-14.28-57.05-23.64-91-27.81c-11.38-1.46-22.51-1.66-32.85-1.66
					c-3.01,0-6.02,0.02-9.03,0.04c-2.98,0.02-5.96,0.04-8.94,0.04c-6.9,0-12.17-0.11-17.08-0.35c-0.11-0.01-0.23-0.01-0.34-0.01
					c-15.32-0.02-32.08-0.03-52.75-0.03c-10.69,0-21.38,0-32.06,0.01c-10.69,0-21.37,0.01-32.06,0.01
					c-20.66,0-37.42-0.01-52.72-0.03C577.95,222.49,577.95,222.49,577.94,222.49L577.94,222.49z"/>
			</g>
			<g id="XMLID_7963_">
				<path class="st35" d="M1044.17,332.17c-9.15,0-16.78-0.03-24-0.09c-0.2,0.01-0.39,0.02-0.59,0.02c-2.36,0-4.65-0.95-6.29-2.6
					c-1.5-1.51-2.34-3.48-2.38-5.57c-0.21-2.47-0.48-5-0.74-7.44c-0.52-4.89-1.06-9.95-1.21-15.01c-0.48-4.41,2.02-8.63,6.04-10.15
					c14.28-6.6,26.48-18.56,33.48-32.83c0.06-0.13,0.13-0.25,0.21-0.37c0.19-0.3,0.37-0.62,0.56-0.94c0.94-1.66,2.37-4.17,5.42-5.03
					c0.54-0.15,1.09-0.23,1.63-0.23c3.28,0,4.98,2.63,5.9,4.04c0.15,0.23,0.29,0.46,0.44,0.66c0.07,0.1,0.14,0.2,0.2,0.3
					c12.55,20.98,15.65,45.35,17.01,66.45c0.33,2.08-0.28,4.22-1.68,5.93c-1.49,1.81-3.63,2.85-5.88,2.85
					c-0.22,0-0.45-0.01-0.67-0.03l-5.51,0.01C1058.79,332.15,1051.48,332.17,1044.17,332.17z"/>
				<path class="st33" d="M1056.29,255.5c1.68,0,2.55,2.03,3.46,3.26c11.69,19.54,15.09,42.65,16.52,65.03
					c0.47,2.39-1.61,4.77-3.98,4.77c-0.16,0-0.32-0.01-0.48-0.03c-9.21,0.02-18.43,0.05-27.65,0.05c-8.04,0-16.07-0.02-24.11-0.09
					c-0.16,0.01-0.31,0.02-0.47,0.02c-2.62,0-5.1-1.97-5.09-4.75c-0.64-7.51-1.75-15.01-1.96-22.54c-0.36-2.8,1.13-5.61,3.83-6.57
					c15.27-7.02,27.93-19.49,35.33-34.57c1.06-1.64,1.86-3.89,3.94-4.48C1055.87,255.53,1056.09,255.5,1056.29,255.5
					 M1056.29,248.32c-0.87,0-1.75,0.12-2.6,0.37c-4.46,1.26-6.48,4.8-7.56,6.71c-0.17,0.3-0.33,0.59-0.45,0.76
					c-0.16,0.24-0.3,0.49-0.42,0.75c-6.63,13.51-18.16,24.84-31.66,31.11c-5.41,2.12-8.8,7.78-8.22,13.7
					c0.16,5.15,0.7,10.24,1.22,15.15c0.25,2.39,0.52,4.86,0.73,7.26c0.09,2.97,1.29,5.76,3.42,7.9c2.31,2.32,5.54,3.66,8.84,3.66
					c0.23,0,0.45-0.01,0.68-0.02c7.19,0.06,14.79,0.09,23.9,0.09c7.31,0,14.61-0.02,21.91-0.04l5.39-0.01
					c0.27,0.02,0.55,0.03,0.82,0.03c3.32,0,6.47-1.52,8.65-4.16c2.02-2.45,2.9-5.55,2.48-8.59c-1.39-21.49-4.58-46.32-17.5-67.91
					c-0.12-0.21-0.26-0.41-0.4-0.6c-0.1-0.14-0.2-0.3-0.31-0.46C1064.19,252.45,1061.52,248.32,1056.29,248.32L1056.29,248.32z"/>
			</g>
			<g id="XMLID_7961_">
				<path class="st35" d="M794.17,444.91c-22.97,0-40.23-5-52.78-15.3c-12.01-9.65-16.86-24.7-21.13-37.98l-0.9-2.77
					c-0.03-0.11-0.06-0.21-0.09-0.32c-1.98-8.81-4.81-17.64-11.99-22.59c-0.05-0.03-0.1-0.07-0.14-0.1
					c-5.32-4.07-12.46-6.05-21.83-6.05c-1.09,0-2.24,0.03-3.4,0.08c-0.06,0-0.11,0-0.17,0l-4.32,0c-18.08,0-36.17-0.04-54.25-0.07
					c-18.07-0.04-36.14-0.07-54.21-0.07c-6.33,0-12.65,0-18.97,0.01c0,0,0,0-0.01,0c-1.05,0-2.04-0.46-2.73-1.26
					c-0.68-0.8-0.98-1.86-0.82-2.89c0.45-2.84,1.06-5.64,1.66-8.34c0.52-2.35,1.05-4.79,1.45-7.16c0.29-1.73,1.79-2.99,3.54-2.99
					h0.69c14.64-0.01,29.31-0.01,43.96-0.01c58.96,0,118.91,0.05,176.88,0.1c57.97,0.05,117.91,0.1,176.86,0.1
					c14.55,0,29.1,0,43.65-0.01c0.21,0,0.42,0.02,0.63,0.06c0.06,0.01,0.23,0.02,0.68,0.02l0.6,0c1.34,0,3.84,0,5.54,1.9
					c0.68,0.76,1.44,2.09,1.28,4.12c-0.11,8.28-0.97,16.89-2.58,25.57c-1.04,5.94-7.28,6.03-9.94,6.07l-0.51,0.01
					c-18.82,0.05-33.48,4.44-43.63,13.05c-0.09,0.08-0.18,0.15-0.28,0.21c-18.69,12.94-43.64,29.23-70.91,40.49
					c-0.06,0.03-0.13,0.05-0.2,0.07c-28.14,9.73-53.6,14.96-77.84,16C796.66,444.9,795.42,444.91,794.17,444.91z"/>
				<path class="st33" d="M597.52,340.7c117.97,0,235.94,0.2,353.9,0.2c14.57,0,29.13,0,43.7-0.01c0.37,0.07,0.83,0.08,1.31,0.08
					c0.2,0,0.4,0,0.6,0c1.69,0,3.46,0.11,3.22,2.23c-0.1,8.4-0.99,16.85-2.52,25.12c-0.57,3.27-4.49,3.09-7.01,3.15
					c-16.11,0.04-33.24,3.19-45.87,13.9c-22.17,15.34-45.24,29.8-70.23,40.12c-24.75,8.56-50.58,14.68-76.82,15.8
					c-1.21,0.03-2.42,0.04-3.64,0.04c-17.75,0-36.45-2.96-50.51-14.49c-11.99-9.64-16.33-25.07-20.89-39.09
					c-2.08-9.24-5.26-19.1-13.45-24.75c-6.86-5.24-15.54-6.78-24.01-6.78c-1.2,0-2.39,0.03-3.57,0.09c-1.42,0-2.85,0-4.28,0
					c-36.2,0-72.38-0.14-108.56-0.14c-6.3,0-12.61,0-18.91,0.01c0.83-5.2,2.22-10.28,3.1-15.47h0.69
					C568.35,340.7,582.95,340.7,597.52,340.7 M597.59,333.52v7.18l-0.03-7.18c-14.62,0-29.22,0-43.79,0.01h-0.68
					c-3.5,0-6.49,2.52-7.07,5.97c-0.39,2.29-0.89,4.57-1.42,6.99c-0.6,2.76-1.23,5.61-1.7,8.55c-0.33,2.08,0.27,4.19,1.63,5.79
					c1.36,1.59,3.36,2.51,5.45,2.51c0,0,0.01,0,0.01,0c6.3-0.01,12.6-0.01,18.9-0.01c18.08,0,36.47,0.04,54.26,0.07
					c17.8,0.03,36.2,0.07,54.3,0.07l4.28,0c0.11,0,0.22,0,0.33-0.01c1.11-0.05,2.2-0.08,3.24-0.08c8.55,0,14.97,1.74,19.65,5.31
					c0.09,0.07,0.19,0.14,0.28,0.21c6.16,4.25,8.7,12.33,10.53,20.42c0.05,0.22,0.11,0.43,0.18,0.64c0.3,0.92,0.6,1.84,0.89,2.76
					c4.43,13.75,9.45,29.33,22.3,39.67c13.22,10.83,31.22,16.09,55.03,16.09c1.24,0,2.51-0.01,3.79-0.04c0.05,0,0.1,0,0.15,0
					c24.59-1.05,50.38-6.34,78.86-16.19c0.13-0.05,0.26-0.1,0.39-0.15c27.58-11.39,52.74-27.82,71.58-40.85
					c0.19-0.13,0.38-0.28,0.56-0.43c9.49-8.05,23.36-12.15,41.25-12.2c0.05,0,0.09,0,0.14,0l0.49-0.01
					c1.61-0.02,3.81-0.06,6.06-0.78c3.97-1.28,6.65-4.28,7.36-8.25c1.63-8.84,2.51-17.61,2.63-26.05c0.17-2.53-0.59-4.88-2.19-6.66
					c-2.77-3.09-6.58-3.09-8.21-3.09l-0.34,0l-0.27,0c-0.04,0-0.08,0-0.12,0c-0.05,0-0.1,0-0.15,0c-0.34-0.05-0.69-0.07-1.03-0.07
					c0,0,0,0,0,0c-14.57,0.01-29.12,0.01-43.7,0.01c-58.96,0-118.92-0.05-176.91-0.1C716.53,333.57,656.57,333.52,597.59,333.52
					L597.59,333.52z"/>
			</g>
			<g id="XMLID_7959_">
				<path class="st35" d="M1055.08,421.95c-0.77,0-1.54-0.25-2.19-0.74c-2.9-2.22-4.15-5.27-5.26-7.95c-0.51-1.24-1-2.41-1.59-3.38
					c-0.03-0.05-0.06-0.09-0.08-0.14c-6.62-11.92-17.71-22.58-32.06-30.82c-7.1-3.96-5.63-11.64-4.66-16.72
					c0.36-1.89,0.7-3.67,0.68-5.06c-0.01-0.35,0.04-0.69,0.13-1.02c0.35-1.27,0.39-2.99,0.43-4.81c0.09-4.29,0.22-10.17,5.56-13.31
					c0.52-0.31,1.11-0.48,1.72-0.49c6.11-0.17,12.82-0.24,21.1-0.24c4.24,0,8.47,0.02,12.71,0.04c4.23,0.02,8.45,0.04,12.68,0.04
					c2.05,0,4.1,0,6.14-0.02c0.3-0.03,0.6-0.04,0.91-0.04c2.85,0,5.51,1.19,7.13,3.19c1.33,1.63,1.86,3.69,1.51,5.81
					c-0.53,22.62-6.49,45.95-17.73,69.37c-0.91,2.27-2.6,3.64-3.97,4.74c-0.28,0.22-0.55,0.44-0.81,0.67
					C1056.76,421.66,1055.92,421.95,1055.08,421.95z"/>
				<path class="st33" d="M1038.85,340.86c8.47,0,16.94,0.08,25.41,0.08c2.11,0,4.22,0,6.33-0.02c0.23-0.03,0.47-0.04,0.71-0.04
					c2.78,0,5.74,1.85,5.07,5.05c-0.5,23.72-7.2,47-17.44,68.3c-0.7,1.85-2.43,2.91-3.85,4.14c-3.31-2.55-3.89-6.96-5.99-10.36
					c-7.64-13.75-19.9-24.43-33.41-32.19c-6.87-3.83-2.07-12.66-2.18-18.73c1.43-5.15-1.06-12.81,4.35-15.98
					C1024.85,340.91,1031.85,340.86,1038.85,340.86 M1038.85,333.68L1038.85,333.68c-8.31,0-15.05,0.08-21.19,0.24
					c-1.21,0.03-2.39,0.37-3.44,0.98c-7.08,4.15-7.24,11.77-7.33,16.32c-0.03,1.52-0.07,3.09-0.3,3.93
					c-0.19,0.67-0.27,1.36-0.26,2.05c0.02,1.02-0.3,2.69-0.61,4.31c-1.02,5.34-2.92,15.27,6.43,20.52
					c13.77,7.92,24.38,18.1,30.68,29.44c0.05,0.1,0.11,0.19,0.17,0.28c0.44,0.72,0.87,1.76,1.33,2.86c1.15,2.79,2.73,6.61,6.39,9.42
					c1.29,0.99,2.83,1.48,4.37,1.48c1.69,0,3.37-0.59,4.71-1.77c0.23-0.2,0.47-0.39,0.71-0.59c1.49-1.21,3.72-3.01,4.99-6.07
					c11.39-23.77,17.46-47.49,18.03-70.51c0.43-3.06-0.38-6.01-2.31-8.39c-2.29-2.83-6-4.51-9.92-4.51c-0.36,0-0.72,0.01-1.07,0.04
					c-1.99,0.01-3.98,0.01-5.96,0.01c-4.22,0-8.45-0.02-12.67-0.04C1047.34,333.7,1043.1,333.68,1038.85,333.68L1038.85,333.68z"/>
			</g>
			<g id="XMLID_7957_">
				<path class="st35" d="M864.56,516.74c-8.12,0-15.7-2.65-23.04-5.22c-1.08-0.38-2.15-0.75-3.22-1.12
					c-23.37-8.39-42.1-18.54-57.31-31.04c-5.81-4.94-13.94-7.64-22.94-7.64c-0.23,0-0.45,0-0.67,0.01
					c-12.47,0.02-24.89,0.04-37.31,0.04c-30.52,0-61.55-0.06-91.56-0.12c-30-0.06-61.03-0.12-91.54-0.12c0,0-11.52,0-11.52,0
					c-1.06,0-2.06-0.47-2.75-1.28c-0.68-0.81-0.97-1.88-0.79-2.92c0.34-1.95,0.74-3.89,1.13-5.77c0.56-2.7,1.09-5.24,1.45-7.83
					c0.25-1.78,1.77-3.09,3.55-3.09c0.03,0,0.67,0.02,0.67,0.02c22.45,0.08,47.15,0.11,77.65,0.11c15.76,0,31.52-0.01,47.28-0.02
					c15.76-0.01,31.53-0.02,47.29-0.02c33.1,0,58.65,0.04,82.83,0.13c25.64-0.24,52.13-4.1,78.69-11.46
					c20.03-5.74,35.48-11.94,48.58-19.48c6.86-4.14,13.69-8.81,20.3-13.32c8.75-5.98,17.8-12.17,27.34-17.41
					c10.5-5.63,19.2-8.25,27.42-8.25c1.75,0,3.5,0.13,5.18,0.37c0.31,0.04,0.61,0.13,0.9,0.25c6.25,2.69,4.15,9.45,3.25,12.34
					c-0.15,0.49-0.3,0.96-0.41,1.39c-0.02,0.09-0.05,0.19-0.08,0.28c-10.72,31.03-29.45,59.92-54.15,83.55
					c-24.36,22.49-47.65,34.67-71.24,37.27C867.92,516.63,866.25,516.74,864.56,516.74z"/>
				<path class="st33" d="M986.09,384.52c1.55,0,3.11,0.11,4.66,0.33c3.9,1.68,1.55,6.54,0.78,9.54
					c-10.75,31.13-29.47,59.39-53.24,82.13c-19.27,17.79-42.54,33.38-69.21,36.3c-1.52,0.22-3.03,0.32-4.52,0.32
					c-8.66,0-16.99-3.38-25.11-6.14c-20.1-7.22-39.62-16.8-56.19-30.42c-6.96-5.91-16.2-8.45-25.21-8.45c-0.24,0-0.48,0-0.73,0.01
					c-12.43,0.02-24.85,0.04-37.28,0.04c-61.03,0-122.06-0.25-183.1-0.25c-3.84,0-7.67,0-11.5,0c0.8-4.59,1.96-9.1,2.6-13.72
					l0.59,0.01c25.91,0.09,51.83,0.11,77.74,0.11c31.55,0,63.1-0.04,94.65-0.04c27.58,0,55.15,0.03,82.74,0.13
					c26.92-0.25,53.74-4.41,79.66-11.59c17.08-4.89,33.97-10.94,49.41-19.83c16.17-9.75,31-21.59,47.58-30.7
					C968.24,388.11,977.08,384.52,986.09,384.52 M986.09,377.35v7.18V377.35L986.09,377.35c-8.84,0-18.09,2.75-29.09,8.65
					c-0.02,0.01-0.04,0.02-0.06,0.03c-9.69,5.32-18.82,11.56-27.64,17.59c-6.54,4.47-13.31,9.1-20.13,13.21
					c-12.82,7.38-27.98,13.45-47.71,19.11c-26.23,7.27-52.38,11.08-77.73,11.32c-24.16-0.09-49.68-0.13-82.71-0.13
					c-15.78,0-31.55,0.01-47.33,0.02c-15.77,0.01-31.55,0.02-47.32,0.02c-30.46,0-55.13-0.04-77.65-0.11l-0.51-0.01
					c-0.06,0-0.12,0-0.17,0c-3.57,0-6.61,2.63-7.1,6.18c-0.34,2.47-0.86,4.96-1.41,7.59c-0.4,1.91-0.81,3.88-1.15,5.89
					c-0.36,2.09,0.22,4.23,1.58,5.85c1.36,1.62,3.37,2.56,5.49,2.56c0,0,0,0,0,0c3.83,0,7.67,0,11.5,0
					c30.51,0,61.53,0.06,91.53,0.12c30.01,0.06,61.04,0.12,91.56,0.12c13.28,0,25.48-0.01,37.3-0.04c0.03,0,0.06,0,0.09,0
					c0.21,0,0.41,0,0.62,0c8.14,0,15.45,2.4,20.57,6.75c0.03,0.03,0.06,0.05,0.09,0.07c15.53,12.77,34.61,23.11,58.32,31.63
					c0.04,0.01,0.07,0.03,0.11,0.04c1.06,0.36,2.13,0.73,3.2,1.11c7.62,2.66,15.5,5.42,24.22,5.42c1.84,0,3.67-0.13,5.43-0.38
					c24.35-2.7,48.29-15.18,73.17-38.15c0.03-0.03,0.06-0.06,0.09-0.09c25.12-24.02,44.16-53.41,55.06-84.98
					c0.06-0.18,0.12-0.37,0.17-0.56c0.08-0.31,0.22-0.75,0.36-1.21c0.55-1.76,1.29-4.17,1.27-6.74c-0.04-4.49-2.48-8.22-6.53-9.96
					c-0.57-0.25-1.18-0.42-1.8-0.51C989.93,377.49,988.01,377.35,986.09,377.35L986.09,377.35z"/>
			</g>
			<g id="XMLID_7955_">
				<path class="st35" d="M918.63,518.67c-2.51,0-4.55-0.63-6.25-1.93c-0.75-0.58-1.25-1.42-1.38-2.36
					c-0.67-4.86,3.22-7.32,5.54-8.79c0.54-0.34,1.06-0.67,1.42-0.95c0.13-0.1,0.27-0.2,0.42-0.29c15.88-9.2,30.96-22.8,46.09-41.58
					c19.13-24.47,30.9-45.94,36.99-67.52c0.02-0.08,0.05-0.17,0.08-0.25c0.09-0.26,0.19-0.53,0.28-0.8c0.65-1.89,1.53-4.47,3.91-6.2
					c0.3-0.21,0.63-0.38,0.97-0.5c0.94-0.31,1.93-0.47,2.95-0.47c3.62,0,6.76,2,9.29,3.6c0.33,0.21,0.65,0.41,0.96,0.61
					c0.09,0.06,0.18,0.11,0.26,0.18c9.31,6.95,21.04,18.62,24.05,34.79l0.03,0.14c1.21,6.73,2.87,15.95-2.88,22.7
					c-27.99,36.21-70.55,61.38-116.8,69.04c-0.11,0.02-0.23,0.03-0.34,0.04c-0.61,0.04-1.24,0.13-1.88,0.21
					C921.21,518.51,919.93,518.67,918.63,518.67z"/>
				<path class="st33" d="M1009.65,390.64c2.97,0,5.9,2.15,8.37,3.67c10.74,8.01,20.15,19.06,22.67,32.57
					c1.17,6.53,2.63,14.42-2.11,19.91c-27.8,36.01-69.83,60.34-114.61,67.77c-1.68,0.12-3.55,0.52-5.34,0.52
					c-1.46,0-2.87-0.27-4.07-1.19c-0.46-3.36,3.45-4.73,5.62-6.43c18.45-10.68,33.79-25.93,47.09-42.43
					c16.14-20.64,30.47-43.38,37.65-68.79c0.69-1.89,1.2-4.07,2.92-5.31C1008.44,390.73,1009.05,390.64,1009.65,390.64
					 M1009.65,383.46C1009.65,383.46,1009.65,383.46,1009.65,383.46c-1.4,0-2.77,0.22-4.08,0.65c-0.7,0.23-1.35,0.57-1.94,1
					c-3.31,2.39-4.45,5.73-5.21,7.95c-0.08,0.25-0.17,0.49-0.26,0.74c-0.06,0.16-0.11,0.33-0.16,0.5
					c-5.96,21.1-17.51,42.16-36.36,66.28c-14.84,18.41-29.58,31.72-45.06,40.68c-0.29,0.17-0.57,0.36-0.84,0.57
					c-0.21,0.17-0.69,0.47-1.12,0.74c-2.44,1.54-8.16,5.16-7.17,12.31c0.26,1.88,1.25,3.57,2.75,4.72c2.31,1.77,5.15,2.66,8.43,2.66
					c1.54,0,2.94-0.18,4.17-0.35c0.62-0.08,1.2-0.16,1.66-0.19c0.23-0.02,0.46-0.04,0.68-0.08c47.1-7.81,90.47-33.44,119.01-70.33
					c6.78-8.03,4.88-18.59,3.62-25.59l-0.02-0.12c-3.23-17.35-15.62-29.72-25.44-37.05c-0.17-0.13-0.34-0.24-0.52-0.35
					c-0.3-0.19-0.61-0.38-0.93-0.58C1018.1,385.87,1014.32,383.46,1009.65,383.46L1009.65,383.46z"/>
			</g>
		</g>
	</g>
	<g id="XMLID_7890_">
		<g id="XMLID_7948_">
			<g id="XMLID_7949_">
				<path id="XMLID_7950_" class="st32" d="M590.75,91.47h318.32c9.93,1.47,20.07,1.19,29.86,3.64
					c79.49,12.15,151.41,67.09,182.25,141.61c20.98,49.1,25.75,104.98,13.26,156.9c-7.4,29.97-20.85,58.47-39.45,83.11
					c-15.1,19.23-31.79,37.44-51.51,52.02c-48.4,36.42-110.2,51.49-170.11,50.4c-37.75-0.08-75.48,0.03-113.22-0.04
					c-4.15-0.01-8.36-0.28-12.49,0.43c-1.83,3.4-2.28,7.3-3.22,10.99c-9.02,37.94-18.18,75.83-27.33,113.74
					c-2.35,10.19-4.57,20.43-7.43,30.5H449.62v-3.48c3.76-10.35,5.02-21.38,7.71-32.03c30.52-139.16,61.25-278.29,91.75-417.46
					C562.92,218.35,577.16,154.97,590.75,91.47z M604.63,108.42c-9.02,40.39-17.91,80.8-26.68,121.25
					c-1.51,4.67-2.81,9.45-3.06,14.39c-7.26,32.14-14.57,64.34-21.1,96.65h-0.69c-0.88,5.19-2.28,10.26-3.1,15.47
					c-6.96,32.71-14.46,65.32-21.37,98.06l-0.59-0.01c-0.64,4.62-1.8,9.13-2.6,13.72c-18.1,83.38-36.74,166.63-54.81,250.01
					c25.61,0.53,51.21-0.45,76.83-0.17c49.74-0.07,99.49,0.14,149.23-0.1c12.18-51.77,24.84-103.45,37.06-155.2
					c38.12-0.42,76.27-0.06,114.41-0.18c20.49-0.18,41.05,0.7,61.45-1.62c40.01-3.79,79.7-16.01,113.4-38.23
					c24.52-15.94,44.93-37.51,62.05-61.07c39.17-55.49,48.78-129.19,29.38-193.82c-10.98-37.62-32.24-72.19-61.17-98.66
					c-34.15-32.28-78.94-52.67-125.53-58.3c-18.5-2.63-37.2-1.9-55.81-1.99C782.84,108.64,693.74,108.4,604.63,108.42z"/>
			</g>
		</g>
		<g id="XMLID_7921_">
			<g id="XMLID_7939_">
				<path id="XMLID_7941_" class="st34" d="M604.63,108.42c89.11-0.01,178.21,0.22,267.31,0.18c18.61,0.08,37.31-0.64,55.81,1.99
					c46.58,5.64,91.38,26.03,125.53,58.3c28.93,26.47,50.19,61.04,61.17,98.66c19.4,64.62,9.79,138.32-29.38,193.82
					c-17.12,23.56-37.54,45.13-62.05,61.07c-33.7,22.22-73.39,34.44-113.4,38.23c-20.4,2.32-40.96,1.44-61.45,1.62
					c-38.14,0.13-76.29-0.24-114.41,0.18c-12.22,51.76-24.88,103.43-37.06,155.2c-49.74,0.24-99.49,0.03-149.23,0.1
					c-25.62-0.28-51.23,0.7-76.83,0.17c18.07-83.38,36.71-166.63,54.81-250.01c77.29-0.04,154.59,0.36,231.88,0.21
					c9.24-0.14,18.8,2.38,25.94,8.45c16.57,13.62,36.1,23.2,56.19,30.42c9.52,3.24,19.34,7.33,29.63,5.82
					c26.67-2.92,49.94-18.52,69.21-36.3c23.77-22.74,42.49-51,53.24-82.13c0.77-2.99,3.12-7.86-0.78-9.54
					c-10.6-1.55-21.16,2.53-30.36,7.47c-16.57,9.1-31.41,20.95-47.58,30.7c-15.44,8.89-32.33,14.94-49.41,19.83
					c-25.91,7.19-52.74,11.34-79.66,11.59c-85.04-0.32-170.08,0.08-255.13-0.21c6.91-32.74,14.4-65.35,21.37-98.06
					c43.91-0.07,87.83,0.14,131.75,0.13c9.55-0.45,19.75,0.71,27.58,6.7c8.2,5.65,11.37,15.51,13.45,24.75
					c4.56,14.01,8.91,29.45,20.89,39.09c15.02,12.32,35.35,14.85,54.15,14.45c26.24-1.12,52.07-7.24,76.82-15.8
					c24.99-10.32,48.07-24.78,70.23-40.12c12.63-10.71,29.76-13.86,45.87-13.9c2.52-0.06,6.43,0.13,7.01-3.15
					c1.52-8.27,2.42-16.71,2.52-25.12c0.34-2.99-3.33-1.99-5.13-2.31c-147.11,0.07-294.23-0.25-441.35-0.18
					c6.53-32.31,13.85-64.51,21.1-96.65c42.18-0.07,84.36-0.03,126.55-0.01c7.99-0.18,16.18,3.09,21.26,9.36
					c4.8,5.62,5.72,13.69,3.19,20.52c-4.35,12.47-7.82,25.35-9.03,38.54c-1.13,9.61,9.37,16.4,18.05,15.93
					c85.78-0.2,171.57,0.21,257.35,0.18c3.1-0.1,8.77-0.34,8.11-4.78c-0.15-6.82-0.08-13.85-2.11-20.42
					c-1.09-2.99-4.98-2.24-7.47-2.6c-12.64,0.07-25.21-3.24-36.26-9.37c-17.76-9.8-33.4-22.96-51.14-32.78
					c-27.33-14.77-57.74-23.23-88.47-27c-22.36-2.87-44.92-0.78-67.37-1.89c-56.54-0.08-113.07,0.03-169.59-0.06
					C586.71,189.22,595.61,148.81,604.63,108.42z M767.66,208.16c-1.57,1.44-2.52,3.36-3.4,5.26c5.1,2.96,11.23,1.5,16.82,2.13
					c30.59,1.82,61.91,3.45,90.86,14.43c20.38,7.15,39.87,16.78,57.94,28.6c11.1,7.01,21.34,15.27,32.61,22.01
					c8.4,5.09,18.71,7.73,28.45,5.68c3.03-2.49,1.29-6.89,0.63-10.1c-8.34-26.43-23.2-50.5-41.45-71.23
					c-16.84-18.66-36.89-34.86-60.08-44.89c-8.63-4.08-18.61-3.8-27.8-2.11C826.75,165.06,793.48,182.79,767.66,208.16z
					 M917.01,156.18c-0.34,2.66,2.38,3.62,4,4.99c17.83,12.1,33.23,27.52,46.92,44.08c16.81,20.78,30.63,44.39,37.83,70.25
					c0.62,2.7,2.63,6.5,6.03,5.17c10.92-3.4,18.53-12.8,24.49-22.07c5.93-9.44,9.24-22.25,3.24-32.44
					c-6.73-10.73-15.51-20.01-25.01-28.33C987.09,174.76,952.61,160.08,917.01,156.18z M1055.64,255.6
					c-2.08,0.59-2.88,2.84-3.94,4.48c-7.4,15.08-20.05,27.55-35.33,34.57c-2.7,0.96-4.2,3.78-3.83,6.57
					c0.21,7.54,1.31,15.03,1.96,22.54c-0.01,2.94,2.77,4.98,5.55,4.73c17.26,0.15,34.51,0.08,51.76,0.04
					c2.56,0.35,4.96-2.2,4.46-4.74c-1.43-22.38-4.82-45.49-16.52-65.03C1058.73,257.39,1057.77,254.99,1055.64,255.6z
					 M1017.85,341.1c-5.41,3.17-2.92,10.84-4.35,15.98c0.11,6.07-4.68,14.89,2.18,18.73c13.51,7.76,25.77,18.45,33.41,32.19
					c2.1,3.4,2.67,7.82,5.99,10.36c1.41-1.23,3.15-2.29,3.85-4.14c10.24-21.3,16.94-44.58,17.44-68.3c0.73-3.47-2.82-5.36-5.78-5.01
					C1053.01,341.01,1035.42,340.62,1017.85,341.1z M1007.84,390.93c-1.72,1.24-2.24,3.43-2.92,5.31
					c-7.17,25.41-21.51,48.15-37.65,68.79c-13.3,16.5-28.64,31.75-47.09,42.43c-2.17,1.71-6.08,3.08-5.62,6.43
					c2.67,2.04,6.35,0.88,9.41,0.67c44.78-7.43,86.8-31.76,114.61-67.77c4.74-5.5,3.29-13.38,2.11-19.91
					c-2.52-13.51-11.93-24.56-22.67-32.57C1015.06,392.48,1011.42,389.74,1007.84,390.93z"/>
			</g>
			<g id="XMLID_7935_">
				<path id="XMLID_7936_" class="st34" d="M776.42,611.87c16.46,0.18,32.93,0.01,49.41,0.07c3.55-0.13,7.61,0.95,9.62,4.14
					c1.99,3.06,1.16,6.89,0.45,10.25c-4.13,17.01-8.06,34.05-12.19,51.06c-1.47,5.93-6.91,10.88-13.15,10.95
					c-10.89,0.13-21.8-0.03-32.7,0.04c-3.66,15.06-7.31,30.12-10.73,45.24c-6.48,0.46-12.98,0.66-19.45,0.13
					c4.67-23.1,10.78-45.91,15.98-68.92C768,647.2,771.86,629.44,776.42,611.87z M781.76,671.2c7.9,0.08,15.82,0,23.73,0.06
					c3.27-14.04,6.7-28.07,9.94-42.12c-7.83,0.03-15.66,0.04-23.48,0C788.36,643.1,785.38,657.23,781.76,671.2z"/>
			</g>
			<g id="XMLID_7929_">
				<g id="XMLID_7930_">
					<path id="XMLID_7934_" class="st36" d="M858.47,690.46c-2,8.99-4.64,17.86-6.08,26.96c6.87-0.25,13.73,0.08,20.6-0.15
						c3.03-8.61,4.24-17.91,6.82-26.73C872.69,690.43,865.57,690.54,858.47,690.46z"/>
					<path id="XMLID_7931_" class="st34" d="M902.69,635.84c-13.08-0.25-26.15-0.04-39.23-0.1c-5.75-0.34-11.33,3.65-12.73,9.27
						c-2.1,7.68-3.72,15.48-5.61,23.23c6.34,0.21,12.68-0.06,19.02,0.22c1.69-5.44,2.49-11.13,4.35-16.53
						c6.67,0.25,13.34,0.24,20-0.01c-1.01,7.4-3.1,14.59-4.95,21.79c-9.79-0.1-19.58-0.27-29.37,0.07
						c-6.8,0.13-12.25,5.69-13.82,12.04c-2.98,12.17-5.82,24.38-8.74,36.57c-1.2,3.93,0.31,8.99,4.28,10.71
						c4.53,0.55,9.13,0.07,13.69,0.49c7.45,0.62,15.05-2.46,22.36-0.13c5.51,1.37,11.27,0.62,16.85,0.04
						c6.71-28.92,13.75-57.79,20.46-86.69C910.87,642.04,908.15,635.96,902.69,635.84z M872.98,717.26
						c-6.87,0.24-13.73-0.1-20.6,0.15c1.44-9.1,4.08-17.97,6.08-26.96c7.1,0.08,14.22-0.03,21.34,0.08
						C877.22,699.35,876.02,708.65,872.98,717.26z"/>
				</g>
			</g>
			<path id="XMLID_7928_" class="st34" d="M930.25,646.75c1.01-5.64,5.55-10.82,11.57-10.95c13.1-0.13,26.22-0.1,39.34,0
				c4.29-0.24,8.29,3.61,7.66,8.03c-1.16,8.17-3.82,16.04-5.33,24.15c-6.32,0.38-12.64,0.1-18.96,0.22
				c0.92-5.48,2.76-10.75,3.55-16.25c-6.59,0.21-13.19,0.24-19.77-0.01c-5.2,21.66-10.4,43.34-15.43,65.06
				c6.7-0.01,13.41,0.22,20.11-0.15c1.51-7.87,3.76-15.59,5.3-23.47c6.42-0.2,12.84-0.17,19.24-0.04
				c-2.74,10.08-4.78,20.35-7.44,30.46c-1.17,4.71-5.02,8.87-9.94,9.58c-7.85,1.44-15.86,0.18-23.79,0.56
				c-6.99-0.22-14.49,1.44-21.06-1.65c-4.14-2.34-3.65-7.71-2.63-11.64C918.59,696.04,924.35,671.38,930.25,646.75z"/>
			<g id="XMLID_7924_">
				<path id="XMLID_7925_" class="st34" d="M1007.46,646.84c1.05-6.04,6.31-11.5,12.73-11.08c13.03,0.03,26.1-0.17,39.13,0.1
					c4.73,0.07,7.76,5.01,6.67,9.41c-2.5,12.59-5.87,24.99-8.71,37.49c-0.42,3.41-3.58,5.37-6.28,6.96
					c-11.54,0.48-23.12-0.35-34.64,0.42c-2.01,8.95-4.17,17.87-6.35,26.8c6.67,0.17,13.33,0.14,20,0.01
					c1.61-7.37,3.38-14.7,5.24-22.01c6.38,0.1,12.75,0.01,19.13,0.08c-2.41,9.79-4.5,19.66-7.09,29.41
					c-1.4,5.29-6.31,9.08-11.75,9.31c-11.61,0.59-23.26,0.11-34.88,0.22c-3.73-0.21-8.47-0.39-10.52-4.08
					c-1.93-3.22-0.71-6.96,0-10.32C996.01,695.34,1001.63,671.06,1007.46,646.84z M1025.22,652.53c-1.43,7.13-3.41,14.12-4.81,21.26
					c6.54,0,13.1-0.06,19.66,0.03c1.75-7.23,3.82-14.42,4.92-21.79C1038.4,652.29,1031.78,651.65,1025.22,652.53z"/>
			</g>
			<path id="XMLID_7923_" class="st34" d="M1088.62,635.76c6.89,0.71,14.61-1.8,20.84,1.73c8.49-0.73,16.89-2.5,25.41-2.76
				c4.91-0.22,9.82,3.85,8.84,9.05c-1.29,7.97-3.24,15.84-5.09,23.7c-6.1,1.59-13.02,0.28-19.44,0.6c0.92-4.92,2.41-9.76,2.71-14.78
				c-6,0.59-12.03,0.14-18.03,0.11c-6.78,26.63-12.77,53.46-19.23,80.18c-6.36,0.66-12.75,0.5-19.12,0.17
				C1072.9,701.03,1080.92,668.43,1088.62,635.76z"/>
			<path id="XMLID_7922_" class="st34" d="M1155,644.04c1.51-5.12,6.64-8.7,11.99-8.31c12.56,0.07,25.14-0.14,37.7,0.11
				c3.45-0.14,5.99,2.5,7.1,5.55v4.8c-2.2,7.3-2.74,15.34-5.83,22.22c-6.25,0.35-12.5-0.03-18.75,0.1
				c1.4-5.43,2.67-10.89,3.78-16.39c-6.24-0.07-12.46,0.01-18.68-0.13c-1.3,4.92-2.45,9.87-3.82,14.77
				c9.16,7.15,19.34,12.81,28.74,19.61c4.06,3.16,3.06,8.8,1.92,13.13c-2.34,8.52-3.78,17.29-6.41,25.73
				c-1.44,5.1-6.46,8.59-11.72,8.45c-10.73,0.18-21.45-0.06-32.17,0.1c-3.33-0.13-7.05,0.27-9.9-1.76
				c-3.03-2.32-2.82-6.59-2.17-9.94c1.92-8.74,4.25-17.4,6.01-26.18c6.46-0.66,12.95-0.38,19.43-0.39
				c-1.48,7.22-3.54,14.31-4.84,21.56c6-0.14,12.03,0.22,18.03-0.2c1.89-5.45,3.13-11.15,4.08-16.82
				c-9.2-7.8-19.94-13.64-29.42-21.08c-3.29-2.99-1.62-7.8-0.88-11.5C1151.23,659.69,1152.68,651.75,1155,644.04z"/>
		</g>
		<g id="XMLID_7893_">
			<path id="XMLID_7918_" class="st35" d="M767.66,208.16c25.82-25.37,59.09-43.1,94.58-50.22c9.19-1.69,19.17-1.97,27.8,2.11
				c23.19,10.03,43.24,26.24,60.08,44.89c18.25,20.73,33.12,44.79,41.45,71.23c0.66,3.2,2.41,7.61-0.63,10.1
				c-9.73,2.06-20.04-0.59-28.45-5.68c-11.27-6.74-21.51-15.01-32.61-22.01c-18.07-11.82-37.56-21.45-57.94-28.6
				C843,219,811.67,217.36,781.09,215.54c-5.59-0.63-11.72,0.84-16.82-2.13C765.15,211.51,766.1,209.6,767.66,208.16z"/>
			<path id="XMLID_7916_" class="st35" d="M917.01,156.18c35.61,3.9,70.08,18.59,97.5,41.65c9.5,8.32,18.28,17.61,25.01,28.33
				c6,10.19,2.69,23.01-3.24,32.44c-5.96,9.27-13.57,18.67-24.49,22.07c-3.4,1.33-5.41-2.48-6.03-5.17
				c-7.2-25.86-21.02-49.46-37.83-70.25c-13.69-16.56-29.09-31.98-46.92-44.08C919.38,159.8,916.67,158.83,917.01,156.18z"/>
			<path id="XMLID_7914_" class="st35" d="M574.88,244.06c0.25-4.94,1.55-9.72,3.06-14.39c56.53,0.08,113.05-0.03,169.59,0.06
				c22.45,1.1,45-0.98,67.37,1.89c30.72,3.78,61.14,12.24,88.47,27c17.75,9.82,33.38,22.98,51.14,32.78
				c11.05,6.13,23.62,9.44,36.26,9.37c2.49,0.36,6.38-0.39,7.47,2.6c2.03,6.57,1.96,13.59,2.11,20.42c0.66,4.45-5.01,4.68-8.11,4.78
				c-85.78,0.03-171.57-0.38-257.35-0.18c-8.68,0.48-19.19-6.32-18.05-15.93c1.22-13.19,4.68-26.07,9.03-38.54
				c2.53-6.82,1.61-14.89-3.19-20.52c-5.08-6.27-13.27-9.54-21.26-9.36C659.24,244.03,617.06,243.99,574.88,244.06z"/>
			<path id="XMLID_7913_" class="st35" d="M1055.64,255.6c2.13-0.6,3.09,1.79,4.11,3.16c11.69,19.54,15.09,42.65,16.52,65.03
				c0.5,2.55-1.9,5.09-4.46,4.74c-17.24,0.04-34.5,0.11-51.76-0.04c-2.78,0.25-5.57-1.79-5.55-4.73
				c-0.64-7.51-1.75-15.01-1.96-22.54c-0.36-2.8,1.13-5.61,3.83-6.57c15.27-7.02,27.93-19.49,35.33-34.57
				C1052.76,258.43,1053.56,256.18,1055.64,255.6z"/>
			<path id="XMLID_7912_" class="st35" d="M553.09,340.71h0.69c147.12-0.07,294.24,0.25,441.35,0.18c1.8,0.32,5.47-0.69,5.13,2.31
				c-0.1,8.4-0.99,16.85-2.52,25.12c-0.57,3.27-4.49,3.09-7.01,3.15c-16.11,0.04-33.24,3.19-45.87,13.9
				c-22.17,15.34-45.24,29.8-70.23,40.12c-24.75,8.56-50.58,14.68-76.82,15.8c-18.8,0.41-39.13-2.13-54.15-14.45
				c-11.99-9.64-16.33-25.07-20.89-39.09c-2.08-9.24-5.26-19.1-13.45-24.75c-7.83-5.99-18.03-7.15-27.58-6.7
				c-43.93,0.01-87.84-0.2-131.75-0.13C550.81,350.97,552.21,345.9,553.09,340.71z"/>
			<path id="XMLID_7911_" class="st35" d="M1017.85,341.1c17.57-0.48,35.16-0.08,52.74-0.18c2.95-0.35,6.5,1.54,5.78,5.01
				c-0.5,23.72-7.2,47-17.44,68.3c-0.7,1.85-2.43,2.91-3.85,4.14c-3.31-2.55-3.89-6.96-5.99-10.36
				c-7.64-13.75-19.9-24.43-33.41-32.19c-6.87-3.83-2.07-12.66-2.18-18.73C1014.93,351.94,1012.44,344.27,1017.85,341.1z"/>
			<path id="XMLID_7908_" class="st35" d="M960.39,392.33c9.2-4.94,19.76-9.02,30.36-7.47c3.9,1.68,1.55,6.54,0.78,9.54
				c-10.75,31.13-29.47,59.39-53.24,82.13c-19.27,17.79-42.54,33.38-69.21,36.3c-10.29,1.51-20.11-2.57-29.63-5.82
				c-20.1-7.22-39.62-16.8-56.19-30.42c-7.15-6.07-16.7-8.59-25.94-8.45c-77.29,0.15-154.59-0.25-231.88-0.21
				c0.8-4.59,1.96-9.1,2.6-13.72l0.59,0.01c85.04,0.29,170.08-0.11,255.13,0.21c26.92-0.25,53.74-4.41,79.66-11.59
				c17.08-4.89,33.97-10.94,49.41-19.83C928.98,413.27,943.82,401.43,960.39,392.33z"/>
			<path id="XMLID_7898_" class="st35" d="M1007.84,390.93c3.58-1.19,7.22,1.55,10.18,3.38c10.74,8.01,20.15,19.06,22.67,32.57
				c1.17,6.53,2.63,14.42-2.11,19.91c-27.8,36.01-69.83,60.34-114.61,67.77c-3.06,0.21-6.74,1.37-9.41-0.67
				c-0.46-3.36,3.45-4.73,5.62-6.43c18.45-10.68,33.79-25.93,47.09-42.43c16.14-20.64,30.47-43.38,37.65-68.79
				C1005.6,394.35,1006.12,392.17,1007.84,390.93z"/>
		</g>
	</g>
</g>
<text id="XMLID_7990_" transform="matrix(1 0 0 1 638.9307 959.9857)" class="st44 st45 st46">Player</text>
</svg>
