<?xml version="1.0" encoding="utf-8"?>
<!-- Generator: Adobe Illustrator 25.2.1, SVG Export Plug-In . SVG Version: 6.00 Build 0)  -->
<svg version="1.1" id="Layer_1" xmlns="http://www.w3.org/2000/svg" xmlns:xlink="http://www.w3.org/1999/xlink" x="0px" y="0px"
	 viewBox="0 0 1224 1224" style="enable-background:new 0 0 1224 1224;" xml:space="preserve">
<style type="text/css">
	.st0{display:none;}
	.st1{fill:none;}
	.st2{display:none;fill:#62930C;}
	.st3{fill:#529428;}
	.st4{opacity:0.3;}
	.st5{opacity:0.2;}
	.st6{opacity:0.15;}
	.st7{fill:#FFFFCC;}
	.st8{fill:#FFFFFF;}
	.st9{fill:#F2C800;}
	.st10{fill:#57201A;}
	.st11{fill-rule:evenodd;clip-rule:evenodd;fill:#6F3A10;}
	.st12{fill-rule:evenodd;clip-rule:evenodd;fill:#FFFFFF;}
	.st13{fill:#6F3A10;}
	.st14{fill-rule:evenodd;clip-rule:evenodd;fill:#9E7454;}
	.st15{fill:#0E5100;}
	.st16{font-family:'Impact';}
	.st17{font-size:196.453px;}
	.st18{font-size:106.1868px;}
</style>
<path class="st0" d="M1193.8,32.8v564l-582.3,583.7L29.1,596.8v-564H1193.8 M1222.7-0.6H0.2v612.7l611.3,612.7l611.3-612.7V-0.6
	L1222.7-0.6z"/>
<polygon class="st1" points="-0.8,-0.3 -0.8,616.1 610.1,1223.7 1225.4,611.7 1225.4,-0.3 "/>
<g>
	<g>
		<polygon class="st3" points="16.5,608.3 613.4,1205.4 1210.3,608.3 1210.3,21 16.5,21 		"/>
		<g class="st5">
			<path class="st1" d="M1062.6,250.8l17,4.6h0.2l-1.1-7.8l-16.5,0c-4.5,0-9.1-0.1-13.9-0.3l0,0.2
				C1053.2,248.7,1057.7,249.6,1062.6,250.8z"/>
			<path class="st1" d="M190.1,247.4c0.4-3-7.4-5-24.7-4.9c-17.1-0.1-25.5,1.8-26.1,5c-0.5,3.1,7.7,4.8,24.8,4.9
				C180.7,252.3,189.7,250.7,190.1,247.4z"/>
			<path class="st1" d="M207.9,127.7c0.4-2.7-7.2-4.6-23.8-4.6c-16.4-0.1-24.5,1.7-25,4.6c-0.5,2.9,7.4,4.5,23.8,4.5
				C198.8,132.2,207.4,130.6,207.9,127.7z"/>
			<path class="st1" d="M122.6,515.8c-18.6-0.1-27.9,2.2-28.5,5.9c-0.6,3.7,8.3,5.8,26.9,5.8c18.1,0,27.9-1.9,28.5-5.8
				C150,518.1,141.5,515.7,122.6,515.8z"/>
			<path class="st1" d="M170.7,378.9c0.5-3.2-7.7-5.4-25.8-5.4c-17.8-0.1-26.7,2-27.2,5.4c-0.6,3.4,8,5.3,25.8,5.3
				C160.7,384.2,170.1,382.4,170.7,378.9z"/>
			<path class="st1" d="M1101,522.4l18.6,5.5h0.2l-1.4-9.2l-18,0c-4.9,0-9.9-0.1-15.2-0.3l0,0.3C1090.8,519.9,1095.7,521,1101,522.4
				z"/>
			<polygon class="st7" points="613.4,1205.4 654.9,1163.9 571.9,1163.9 			"/>
			<path class="st7" d="M519.3,1111.2l47.2,47.2l93.8,0l47.1-47.1C644.9,1111.3,581.8,1111.3,519.3,1111.2z"/>
			<path class="st7" d="M885,914.4l0.6,8.8l-8.5,0l-0.6-8.8l-523.6-0.3l-0.7,8.8l-8.5,0l0.7-8.8l-22.3,0l32.9,33l40.3,0l-0.3,4.9
				l-35.1,0l14.3,14.3l19.9,0l-0.3,4.9l-14.7,0l34,34c131.4,0.1,268.8,0.1,400.2,0.2l33.9-33.9l-12.3,0l-0.3-4.9l17.5,0l14.3-14.3
				l-32.5,0l-0.3-4.9l37.6,0l32.9-32.9L885,914.4z M396.4,932.9l-50.8,0l0.4-4.8l50.7,0L396.4,932.9z M833,933.2l-0.3-4.8l50.7,0
				l0.3,4.8L833,933.2z"/>
			<path class="st7" d="M873.5,744.5l-8.1,0l-0.5-8l-498.3-0.3l-0.6,8l-8.1,0l0.6-8L144.2,736l82.3,82.3l125.6,0.1l0.7-8.3l8.2,0
				l-0.6,8.3l510,0.3l-0.5-8.3l8.2,0l0.6,8.3l121.3,0.1l82.1-82.2l-209-0.1L873.5,744.5z M404.6,805.3l-49,0l0.4-4.5l49,0
				L404.6,805.3z M405.8,787.7l-48.8,0l0.4-4.4l48.7,0L405.8,787.7z M406.9,770.4l-48.6,0l0.3-4.4l48.5,0L406.9,770.4z M408,753.2
				l-48.3,0l0.3-4.4l48.3,0L408,753.2z M823.2,749.1l48.3,0l0.3,4.3l-48.3,0L823.2,749.1z M824.1,766.3l48.5,0l0.3,4.4l-48.6,0
				L824.1,766.3z M875.2,805.6l-49,0l-0.2-4.5l49,0L875.2,805.6z M874,788l-48.8,0l-0.2-4.4l48.7,0L874,788z"/>
			<path class="st7" d="M862.5,582.3l-7.7,0l-0.5-7.3l-475.3-0.4l-0.6,7.3l-7.7,0l0.6-7.3l-354.9-0.3v33.9l40.9,40.9l308.1,0.2
				l0.6-7.6l7.8,0l-0.6,7.6l485.9,0.3l-0.5-7.6l7.8,0l0.5,7.6l301.5,0.2l41.7-41.7v-33L862,575L862.5,582.3z M148.8,627.2
				c-1.4,9.4-11.6,14.6-23.2,14.6c-9,0-15.6-2.7-18.4-8.1l-0.2,0c-2.6,5.3-11,9.5-22,9.5c-15,0-24.7-6.9-22.8-18
				c1-5.6,4.6-10.4,8.1-12.9l14.4,2.1c-2.1,1.8-6.2,6-6.8,10.1c-0.9,5.3,3.6,8,10,8c8.3,0,12.7-4.3,13.4-8.8l0.7-4.2l14.1,0l-0.6,4
				c-0.4,3.4,1.4,7.8,8.5,7.8c5.1,0,9.1-2.2,9.8-6.5c0.5-3.6-1.9-7.3-3.7-9.1l14.5-2.1C147.2,616.3,149.6,621.5,148.8,627.2z
				 M1124.4,610.3c25.9,0,44.5,5.4,46.2,16.6c1.8,11.3-17,16.3-40.9,16.4c-24.4,0-44.5-5.4-46-16.8
				C1082.2,614.8,1101.5,610.2,1124.4,610.3z M415.5,637.5l-46.7,0l0.3-4.1l46.7,0L415.5,637.5z M416.6,621.5l-46.5,0l0.3-4l46.5,0
				L416.6,621.5z M417.6,605.8l-46.3,0l0.3-4l46.2,0L417.6,605.8z M418.6,590.1l-46.1,0l0.3-4l46,0L418.6,590.1z M814.5,586.5l46,0
				l0.3,4l-46.1,0L814.5,586.5z M815.3,602.1l46.2,0l0.3,4l-46.3,0L815.3,602.1z M863.9,637.8l-46.7,0l-0.2-4.1l46.7,0L863.9,637.8z
				 M862.9,621.9l-46.5,0l-0.2-4l46.5,0L862.9,621.9z"/>
			<path class="st7" d="M1128.2,632.8c19.3,0.1,28.1-2.3,27.5-6.3c-0.6-4-10.5-6.1-29.6-6.1c-18.6,0-28.1,2.1-27.5,6.1
				C1099.1,630.3,1108.7,632.9,1128.2,632.8z"/>
			<path class="st7" d="M139.9,475.5c4.8,0,9.8,0.1,14.9,0.3l0-0.2c-5-1.3-9.5-2.3-14.4-3.7l-16.7-5.3h-0.3l-1.4,8.9L139.9,475.5z"
				/>
			<path class="st7" d="M1106.2,481.3c18.4,0.1,26.9-2.1,26.3-5.8c-0.6-3.6-10-5.6-28.2-5.6c-17.8,0-26.9,1.9-26.3,5.6
				C1078.5,479,1087.6,481.4,1106.2,481.3z"/>
			<path class="st7" d="M852.5,434.4l-7.3,0l-0.4-6.6l-454.3-0.4l-0.5,6.6l-7.3,0l0.5-6.6l-366.6-0.3v68.2l361.2,0.3l0.5-6.9l7.5,0
				l-0.5,6.9l464,0.4l-0.5-6.9l7.5,0l0.5,6.9l353.6,0.3V428l-358.3-0.3L852.5,434.4z M167.9,484.4l-47.2,0l-0.8,4.8l-14.2,0l0.8-4.8
				l-19.2,0l1.5-8.9l19.2,0l2.9-17.6l12.2,0l46.5,15L167.9,484.4z M1102.8,460.7c24.7,0,42.5,5,44.1,15.1
				c1.6,10.3-16.4,14.9-39.2,14.9c-23.3,0-42.5-5-43.8-15.3C1062.4,464.8,1080.9,460.7,1102.8,460.7z M425.4,484.7l-44.6,0l0.3-3.7
				l44.6,0L425.4,484.7z M426.4,470.2l-44.4,0l0.3-3.7l44.4,0L426.4,470.2z M427.3,455.8l-44.2,0l0.3-3.6l44.2,0L427.3,455.8z
				 M428.2,441.5l-44,0l0.3-3.6l44,0L428.2,441.5z M806.6,438.2l44,0l0.2,3.6l-44,0L806.6,438.2z M807.3,452.5l44.2,0l0.2,3.6
				l-44.2,0L807.3,452.5z M853.7,485.1l-44.6,0l-0.2-3.7l44.6,0L853.7,485.1z M808.3,470.5l-0.2-3.7l44.4,0l0.2,3.7L808.3,470.5z"/>
			<path class="st7" d="M1086,341.4c17.6,0.1,25.7-2,25.2-5.3c-0.5-3.3-9.5-5.1-27-5.1c-17,0-25.7,1.7-25.3,5.1
				C1059.4,339.3,1068.1,341.4,1086,341.4z"/>
			<path class="st7" d="M843.3,299l-7,0l-0.4-6.1l-435.1-0.4l-0.5,6.1l-7,0l0.5-6.1l-377.3-0.3v62.5l372.4,0.3l0.5-6.3l7.2,0
				l-0.5,6.3l444,0.4l-0.4-6.3h7.1l0.4,6.3l363.1,0.3v-62.5l-367.4-0.3L843.3,299z M187.7,347.4l-14.8,0l2.1-14.2l-11.7-0.8
				c0.1,0.8,0,1.5-0.1,2.4c-0.5,3.5-2.7,7-7.1,9.6c-4.4,2.8-11,4.5-20.1,4.4c-14.4,0-26.1-5.9-24.4-15.8c0.8-4.4,3.5-8.1,6.1-10.1
				l13.2,1.5c-1.9,1.6-4.6,4.9-5.1,8.2c-0.6,3.5,2.4,7.3,10.5,7.3c8,0,13.3-3,14.4-10.3c0.3-2,0.3-3.4,0.1-4.9l39.9,2.4L187.7,347.4
				z M1082.8,322.5c23.7,0,40.6,4.5,42.1,13.8c1.5,9.5-15.8,13.6-37.6,13.7c-22.3,0-40.6-4.6-41.9-14
				C1044.1,326.3,1061.8,322.5,1082.8,322.5z M434.5,345.1l-42.7,0l0.3-3.4l42.7,0L434.5,345.1z M435.3,331.8l-42.5,0l0.3-3.4
				l42.5,0L435.3,331.8z M436.2,318.6l-42.4,0l0.3-3.3l42.3,0L436.2,318.6z M437,305.5l-42.2,0l0.3-3.3l42.1,0L437,305.5z
				 M799.4,302.5l42.1,0l0.2,3.3l-42.2,0L799.4,302.5z M800.1,315.6l42.3,0l0.2,3.3l-42.4,0L800.1,315.6z M844.4,345.5l-42.7,0
				l-0.2-3.4l42.7,0L844.4,345.5z M800.9,332.1l-0.2-3.4l42.5,0l0.2,3.4L800.9,332.1z"/>
			<path class="st7" d="M180.4,211.1c4.4,0,9,0.1,13.7,0.3l0-0.2c-4.6-1.1-8.8-2-13.3-3.1l-15.4-4.5h-0.2l-1.2,7.5L180.4,211.1z"/>
			<path class="st7" d="M1067.5,213.7c16.9,0.1,24.7-1.8,24.2-4.8c-0.5-3-9.1-4.7-25.8-4.7c-16.3,0-24.7,1.6-24.2,4.7
				C1042,211.7,1050.3,213.7,1067.5,213.7z"/>
			<path class="st7" d="M834.9,174.7l-6.7,0l-0.4-5.6l-417.5-0.4l-0.4,5.6l-6.8,0l0.4-5.6l-387.1-0.4v57.5l382.6,0.3l0.5-5.8l6.9,0
				l-0.4,5.8l425.7,0.4l-0.4-5.8l6.8,0l0.4,5.8l371.9,0.3v-57.5l-375.8-0.3L834.9,174.7z M175.4,179.4l13.8,12.4l-31.6,0
				L175.4,179.4z M206.2,218.6l-43.4,0l-0.6,4.1l-13,0l0.7-4.1l-17.6,0l1.3-7.5l17.6,0l2.4-14.8l11.2,0l42.9,12.7L206.2,218.6z
				 M1062.2,178.5l17.6,12.3l-31.5,0L1062.2,178.5z M1064.5,196.3c22.7,0,38.9,4.2,40.3,12.7c1.4,8.7-15.2,12.5-36.1,12.6
				c-21.4,0-38.9-4.2-40.1-12.9C1027.4,199.7,1044.4,196.3,1064.5,196.3z M442.8,217l-41,0l0.2-3.1l40.9,0L442.8,217z M443.6,204.8
				l-40.8,0l0.2-3.1l40.8,0L443.6,204.8z M444.4,192.7l-40.6,0l0.2-3.1l40.6,0L444.4,192.7z M445.2,180.6l-40.5,0l0.2-3l40.4,0
				L445.2,180.6z M792.7,177.9l40.4,0l0.2,3.1l-40.5,0L792.7,177.9z M793.4,189.9l40.6,0l0.2,3.1l-40.6,0L793.4,189.9z M835.8,217.4
				l-40.9,0l-0.2-3.1l40.9,0L835.8,217.4z M794.2,205.1L794,202l40.7,0l0.2,3.1L794.2,205.1z"/>
			<path class="st7" d="M1050.4,96c16.2,0.1,23.7-1.6,23.3-4.5c-0.4-2.8-8.7-4.3-24.8-4.4c-15.7,0-23.7,1.5-23.3,4.4
				C1026,94.2,1033.9,96,1050.4,96z"/>
			<path class="st7" d="M827.2,60l-6.5,0l-0.3-5.2l-401.2-0.4l-0.4,5.2l-6.5,0l0.4-5.2L16.5,54v53.1l392,0.4l0.4-5.4l6.6,0l-0.4,5.4
				l408.8,0.4l-0.4-5.4l6.6,0l0.4,5.4l379.9,0.4V55.2l-383.5-0.4L827.2,60z M192.8,68.1l13.4,11.4l-30.4,0L192.8,68.1z M225.7,92.1
				c-1,6.6-9.5,10.3-19.2,10.3c-7.6,0-13.2-1.9-15.6-5.7h-0.2c-2.1,3.7-9.1,6.8-18.4,6.7c-12.6,0-21-4.9-19.6-12.8
				c0.7-4,3.6-7.4,6.5-9.2l12.2,1.5c-1.7,1.3-5.1,4.2-5.5,7.2c-0.6,3.8,3.2,5.7,8.6,5.7c7,0,10.6-3,11.1-6.2l0.5-2.9l11.9,0
				l-0.4,2.8c-0.3,2.4,1.3,5.5,7.3,5.5c4.3,0,7.6-1.5,8.1-4.6c0.4-2.5-1.7-5.2-3.3-6.5l12.2-1.5C224.2,84.4,226.3,88.1,225.7,92.1z
				 M1045.6,63.5l16.8,11.4l-30.3,0L1045.6,63.5z M1047.6,80c21.8,0,37.4,3.9,38.6,11.8c1.3,8-14.7,11.6-34.8,11.6
				c-20.5,0-37.4-3.9-38.4-11.9C1012,83.2,1028.3,80,1047.6,80z M450.4,99.1l-39.3,0l0.2-2.9l39.3,0L450.4,99.1z M451.2,87.8
				l-39.2,0l0.2-2.9l39.1,0L451.2,87.8z M451.9,76.6l-39,0l0.2-2.8l39,0L451.9,76.6z M452.6,65.5l-38.9,0l0.2-2.8l38.8,0L452.6,65.5
				z M786.6,63l38.8,0l0.2,2.8l-38.9,0L786.6,63z M787.2,74.1l39,0l0.2,2.8l-39,0L787.2,74.1z M787.8,85.3l39.1,0l0.2,2.9l-39.2,0
				L787.8,85.3z M827.9,99.4l-39.3,0l-0.2-2.9l39.3,0L827.9,99.4z"/>
			<path class="st8" d="M712.7,1106.1c-66,0-132.7-0.1-198.7-0.1l5.3,5.3c62.5,0,125.6,0.1,188.1,0.1L712.7,1106.1z"/>
			<path class="st8" d="M418.2,1010.1c128.2,0.1,262,0.1,390.2,0.2l5-5c-131.4-0.1-268.8-0.1-400.2-0.2L418.2,1010.1z"/>
			<polygon class="st8" points="352.9,914.1 876.6,914.4 876.3,909.7 353.3,909.4 			"/>
			<polygon class="st8" points="885,914.4 904.2,914.4 909,909.7 884.7,909.7 			"/>
			<polygon class="st8" points="344.9,909.3 317.4,909.3 322.2,914.1 344.5,914.1 			"/>
			<polygon class="st8" points="835,971.4 847.3,971.4 852.2,966.5 834.7,966.5 			"/>
			<polygon class="st8" points="834,952.2 866.5,952.2 871.3,947.3 833.7,947.3 			"/>
			<polygon class="st8" points="832.7,928.4 833,933.2 883.7,933.2 883.4,928.4 			"/>
			<polygon class="st8" points="876.6,914.4 877.1,923.2 885.6,923.2 885,914.4 884.7,909.7 884.1,900.9 875.7,900.9 876.3,909.7 
							"/>
			<polygon class="st8" points="394.2,966.2 374.3,966.2 379.2,971.1 393.9,971.1 			"/>
			<polygon class="st8" points="395.4,947.1 355.1,947.1 360,951.9 395.1,951.9 			"/>
			<polygon class="st8" points="345.6,932.9 396.4,932.9 396.7,928.1 345.9,928.1 			"/>
			<polygon class="st8" points="344.5,914.1 343.8,922.9 352.3,922.9 352.9,914.1 353.3,909.4 354,900.6 345.6,900.6 344.9,909.3 
							"/>
			<polygon class="st8" points="870.3,818.7 360.3,818.4 360,822.9 870.6,823.3 			"/>
			<polygon class="st8" points="878.8,823.3 995.3,823.3 999.8,818.8 878.5,818.7 			"/>
			<polygon class="st8" points="352.1,818.4 226.5,818.3 231,822.8 351.7,822.9 			"/>
			<polygon class="st8" points="881.2,895.8 880.9,891.1 830.7,891.1 831,895.8 			"/>
			<polygon class="st8" points="880,877.4 879.7,872.7 829.7,872.7 830,877.4 			"/>
			<polygon class="st8" points="878.8,859.2 878.5,854.6 828.8,854.5 829,859.1 			"/>
			<polygon class="st8" points="827.8,836.5 828,841.1 877.6,841.1 877.3,836.6 			"/>
			<polygon class="st8" points="878.5,818.7 878,810.4 869.8,810.4 870.3,818.7 870.6,823.3 871.2,831.6 879.4,831.7 878.8,823.3 
							"/>
			<polygon class="st8" points="348.5,895.5 398.8,895.5 399.1,890.8 348.9,890.8 			"/>
			<polygon class="st8" points="400.3,872.5 350.3,872.4 349.9,877.1 400,877.1 			"/>
			<polygon class="st8" points="401.5,854.3 351.7,854.2 351.4,858.9 401.2,858.9 			"/>
			<polygon class="st8" points="402.6,836.3 353.2,836.2 352.8,840.8 402.3,840.8 			"/>
			<polygon class="st8" points="360.3,818.4 360.9,810.1 352.7,810.1 352.1,818.4 351.7,822.9 351.1,831.3 359.3,831.3 360,822.9 
							"/>
			<polygon class="st8" points="872.7,732.2 873,736.5 1082,736.6 1086.3,732.3 			"/>
			<polygon class="st8" points="366.6,736.2 864.9,736.5 864.6,732.2 367,731.9 			"/>
			<polygon class="st8" points="358.9,731.8 139.9,731.7 144.2,736 358.6,736.2 			"/>
			<polygon class="st8" points="826.2,805.5 875.2,805.6 874.9,801.1 825.9,801.1 			"/>
			<polygon class="st8" points="825.2,788 874,788 873.7,783.6 825,783.6 			"/>
			<polygon class="st8" points="872.5,766.3 824.1,766.3 824.3,770.7 872.9,770.7 			"/>
			<polygon class="st8" points="871.4,749.2 823.2,749.1 823.4,753.5 871.7,753.5 			"/>
			<polygon class="st8" points="864.9,736.5 865.4,744.5 873.5,744.5 873,736.5 872.7,732.2 872.1,724.3 864.1,724.3 864.6,732.2 
							"/>
			<polygon class="st8" points="355.6,805.2 404.6,805.3 404.9,800.8 355.9,800.8 			"/>
			<polygon class="st8" points="357,787.7 405.8,787.7 406.1,783.3 357.3,783.3 			"/>
			<polygon class="st8" points="358.3,770.4 406.9,770.4 407.2,766 358.7,766 			"/>
			<polygon class="st8" points="359.7,753.2 408,753.2 408.3,748.9 360,748.8 			"/>
			<polygon class="st8" points="358.6,736.2 358,744.1 366,744.1 366.6,736.2 367,731.9 367.6,723.9 359.6,723.9 358.9,731.8 			"/>
			<polygon class="st8" points="365.5,649.4 57.3,649.2 61.5,653.3 365.2,653.5 			"/>
			<polygon class="st8" points="859.3,649.7 373.3,649.4 373,653.5 859.5,653.8 			"/>
			<polygon class="st8" points="867.4,653.8 1164.5,654 1168.6,649.9 867.1,649.7 			"/>
			<polygon class="st8" points="869.4,719.6 869.1,715.4 821.3,715.3 821.6,719.6 			"/>
			<polygon class="st8" points="820.5,698.7 820.7,702.9 868.3,703 868,698.7 			"/>
			<polygon class="st8" points="819.6,682.2 819.8,686.4 867.2,686.4 866.9,682.2 			"/>
			<polygon class="st8" points="818.7,665.9 818.9,670 866.1,670.1 865.8,665.9 			"/>
			<polygon class="st8" points="867.1,649.7 866.6,642.2 858.8,642.2 859.3,649.7 859.5,653.8 860,661.5 867.9,661.5 867.4,653.8 
							"/>
			<polygon class="st8" points="362.3,719.3 410.2,719.3 410.5,715.1 362.7,715 			"/>
			<polygon class="st8" points="363.7,702.6 411.3,702.6 411.6,698.4 364,698.4 			"/>
			<polygon class="st8" points="365,686.1 412.4,686.1 412.6,681.9 365.3,681.9 			"/>
			<polygon class="st8" points="413.7,665.6 366.6,665.6 366.2,669.7 413.4,669.7 			"/>
			<polygon class="st8" points="373.3,649.4 373.9,641.8 366.1,641.8 365.5,649.4 365.2,653.5 364.6,661.1 372.4,661.1 373,653.5 
							"/>
			<polygon class="st8" points="861.8,571.1 862,575 1210.3,575.3 1210.3,571.3 			"/>
			<polygon class="st8" points="371.7,570.7 16.5,570.4 16.5,574.4 371.4,574.6 			"/>
			<polygon class="st8" points="379.1,574.6 854.4,575 854.1,571.1 379.4,570.7 			"/>
			<polygon class="st8" points="817.2,637.7 863.9,637.8 863.7,633.7 817,633.7 			"/>
			<polygon class="st8" points="816.4,621.8 862.9,621.9 862.6,617.8 816.1,617.8 			"/>
			<polygon class="st8" points="861.5,602.1 815.3,602.1 815.5,606.1 861.8,606.1 			"/>
			<polygon class="st8" points="860.5,586.5 814.5,586.5 814.7,590.4 860.8,590.5 			"/>
			<polygon class="st8" points="854.4,575 854.8,582.3 862.5,582.3 862,575 861.8,571.1 861.3,563.9 853.6,563.9 854.1,571.1 			"/>
			<polygon class="st8" points="368.8,637.4 415.5,637.5 415.8,633.4 369.1,633.4 			"/>
			<polygon class="st8" points="370,621.5 416.6,621.5 416.8,617.5 370.4,617.5 			"/>
			<polygon class="st8" points="371.3,605.7 417.6,605.8 417.8,601.8 371.6,601.7 			"/>
			<polygon class="st8" points="372.5,590.1 418.6,590.1 418.8,586.2 372.8,586.2 			"/>
			<polygon class="st8" points="371.4,574.6 370.8,581.9 378.5,581.9 379.1,574.6 379.4,570.7 379.9,563.5 372.3,563.5 371.7,570.7 
							"/>
			<polygon class="st8" points="856.9,499.7 1210.3,500 1210.3,496.2 856.7,496 			"/>
			<polygon class="st8" points="377.7,495.6 16.5,495.3 16.5,499.1 377.4,499.3 			"/>
			<polygon class="st8" points="849.2,496 385.2,495.6 384.9,499.3 849.4,499.7 			"/>
			<polygon class="st8" points="858.7,559.7 858.4,555.8 812.8,555.7 813,559.6 			"/>
			<polygon class="st8" points="812,540.6 812.2,544.4 857.7,544.5 857.4,540.6 			"/>
			<polygon class="st8" points="811.2,525.6 811.4,529.4 856.7,529.4 856.4,525.6 			"/>
			<polygon class="st8" points="810.4,510.7 810.6,514.5 855.7,514.5 855.4,510.7 			"/>
			<polygon class="st8" points="856.7,496 856.2,489.1 848.7,489.1 849.2,496 849.4,499.7 849.9,506.6 857.4,506.6 856.9,499.7 			
				"/>
			<polygon class="st8" points="374.9,559.3 420.6,559.3 420.8,555.4 375.2,555.4 			"/>
			<polygon class="st8" points="376.1,544.1 421.6,544.1 421.8,540.3 376.4,540.3 			"/>
			<polygon class="st8" points="377.3,529 422.6,529.1 422.8,525.3 377.6,525.2 			"/>
			<polygon class="st8" points="423.8,510.4 378.8,510.3 378.5,514.1 423.5,514.2 			"/>
			<polygon class="st8" points="385.2,495.6 385.7,488.7 378.2,488.7 377.7,495.6 377.4,499.3 376.8,506.3 384.3,506.3 384.9,499.3 
							"/>
			<polygon class="st8" points="851.8,424.2 852.1,427.7 1210.3,428 1210.3,424.4 			"/>
			<polygon class="st8" points="383.4,423.8 16.5,423.5 16.5,427.1 383.1,427.4 			"/>
			<polygon class="st8" points="390.4,427.4 844.7,427.7 844.5,424.2 390.7,423.8 			"/>
			<polygon class="st8" points="809.1,485 853.7,485.1 853.5,481.3 808.9,481.3 			"/>
			<polygon class="st8" points="808.1,466.8 808.3,470.5 852.7,470.5 852.5,466.9 			"/>
			<polygon class="st8" points="851.5,452.5 807.3,452.5 807.5,456.1 851.8,456.1 			"/>
			<polygon class="st8" points="850.6,438.3 806.6,438.2 806.8,441.8 850.8,441.9 			"/>
			<polygon class="st8" points="844.7,427.7 845.2,434.4 852.5,434.4 852.1,427.7 851.8,424.2 851.4,417.6 844.1,417.6 844.5,424.2 
							"/>
			<polygon class="st8" points="380.8,484.7 425.4,484.7 425.7,481 381.1,481 			"/>
			<polygon class="st8" points="381.9,470.2 426.4,470.2 426.6,466.5 382.2,466.5 			"/>
			<polygon class="st8" points="383.1,455.8 427.3,455.8 427.5,452.2 383.4,452.1 			"/>
			<polygon class="st8" points="384.2,441.5 428.2,441.5 428.5,437.9 384.5,437.9 			"/>
			<polygon class="st8" points="383.1,427.4 382.6,434 389.9,434 390.4,427.4 390.7,423.8 391.2,417.2 383.9,417.2 383.4,423.8 			
				"/>
			<polygon class="st8" points="840,355.4 396,355.1 395.7,358.5 840.2,358.9 			"/>
			<polygon class="st8" points="388.8,355.1 16.5,354.8 16.5,358.2 388.5,358.5 			"/>
			<polygon class="st8" points="847.4,358.9 1210.3,359.2 1210.3,355.8 847.2,355.5 			"/>
			<polygon class="st8" points="848.9,413.7 848.7,410.2 805.1,410.1 805.3,413.7 			"/>
			<polygon class="st8" points="804.3,396.3 804.5,399.8 848,399.8 847.8,396.3 			"/>
			<polygon class="st8" points="803.6,382.5 803.8,386 847.1,386.1 846.8,382.6 			"/>
			<polygon class="st8" points="802.9,368.9 803.1,372.4 846.1,372.4 845.9,369 			"/>
			<polygon class="st8" points="847.2,355.5 846.7,349.1 839.6,349.1 840,355.4 840.2,358.9 840.6,365.2 847.8,365.2 847.4,358.9 
							"/>
			<polygon class="st8" points="386.4,413.3 430.1,413.4 430.3,409.8 386.7,409.8 			"/>
			<polygon class="st8" points="387.5,399.5 431,399.5 431.2,396 387.8,395.9 			"/>
			<polygon class="st8" points="388.6,385.7 431.8,385.7 432.1,382.2 388.8,382.2 			"/>
			<polygon class="st8" points="433,368.6 389.9,368.6 389.7,372 432.7,372.1 			"/>
			<polygon class="st8" points="396,355.1 396.5,348.8 389.3,348.8 388.8,355.1 388.5,358.5 388,364.8 395.2,364.9 395.7,358.5 			
				"/>
			<polygon class="st8" points="842.7,289.6 842.9,292.9 1210.3,293.3 1210.3,290 			"/>
			<polygon class="st8" points="394,289.3 16.5,288.9 16.5,292.2 393.8,292.5 			"/>
			<polygon class="st8" points="400.8,292.5 835.9,292.9 835.7,289.6 401,289.3 			"/>
			<polygon class="st8" points="801.6,345.4 844.4,345.5 844.1,342.1 801.5,342 			"/>
			<polygon class="st8" points="800.8,328.8 800.9,332.1 843.5,332.2 843.2,328.8 			"/>
			<polygon class="st8" points="842.3,315.6 800.1,315.6 800.2,318.9 842.6,319 			"/>
			<polygon class="st8" points="841.5,302.6 799.4,302.5 799.5,305.9 841.7,305.9 			"/>
			<polygon class="st8" points="835.9,292.9 836.3,299 843.3,299 842.9,292.9 842.7,289.6 842.3,283.6 835.3,283.6 835.7,289.6 			
				"/>
			<polygon class="st8" points="391.8,345.1 434.5,345.1 434.7,341.7 392,341.7 			"/>
			<polygon class="st8" points="392.8,331.8 435.3,331.8 435.6,328.4 393.1,328.4 			"/>
			<polygon class="st8" points="393.8,318.6 436.2,318.6 436.4,315.3 394.1,315.3 			"/>
			<polygon class="st8" points="394.9,305.5 437,305.5 437.3,302.2 395.1,302.2 			"/>
			<polygon class="st8" points="393.8,292.5 393.3,298.6 400.3,298.6 400.8,292.5 401,289.3 401.5,283.2 394.5,283.2 394,289.3 			
				"/>
			<polygon class="st8" points="831.6,226.6 405.9,226.2 405.7,229.3 831.8,229.7 			"/>
			<polygon class="st8" points="399,226.2 16.5,225.8 16.5,229 398.8,229.3 			"/>
			<polygon class="st8" points="838.6,229.7 1210.3,230 1210.3,226.9 838.4,226.6 			"/>
			<polygon class="st8" points="840,280.1 839.7,276.8 798,276.8 798.2,280 			"/>
			<polygon class="st8" points="797.3,264.1 797.5,267.3 839.1,267.3 838.9,264.1 			"/>
			<polygon class="st8" points="796.6,251.4 796.8,254.6 838.3,254.7 838.1,251.5 			"/>
			<polygon class="st8" points="796,238.9 796.1,242.1 837.4,242.2 837.2,239 			"/>
			<polygon class="st8" points="838.4,226.6 838,220.8 831.2,220.8 831.6,226.6 831.8,229.7 832.2,235.5 839,235.6 838.6,229.7 			
				"/>
			<polygon class="st8" points="396.9,279.7 438.7,279.7 438.9,276.5 397.2,276.4 			"/>
			<polygon class="st8" points="397.9,266.9 439.6,267 439.8,263.7 398.2,263.7 			"/>
			<polygon class="st8" points="398.9,254.3 440.4,254.3 440.6,251.1 399.2,251.1 			"/>
			<polygon class="st8" points="441.4,238.6 400.1,238.6 399.9,241.8 441.2,241.8 			"/>
			<polygon class="st8" points="405.9,226.2 406.4,220.4 399.5,220.4 399,226.2 398.8,229.3 398.3,235.2 405.2,235.2 405.7,229.3 
							"/>
			<polygon class="st8" points="834.3,166 834.5,169.1 1210.3,169.4 1210.3,166.4 			"/>
			<polygon class="st8" points="410.3,168.7 827.8,169.1 827.6,166 410.6,165.6 			"/>
			<polygon class="st8" points="403.8,165.6 16.5,165.3 16.5,168.3 403.6,168.7 			"/>
			<polygon class="st8" points="794.8,217.3 835.8,217.4 835.6,214.3 794.7,214.2 			"/>
			<polygon class="st8" points="794,202 794.2,205.1 834.9,205.2 834.7,202.1 			"/>
			<polygon class="st8" points="833.9,189.9 793.4,189.9 793.5,193 834.1,193 			"/>
			<polygon class="st8" points="833.1,177.9 792.7,177.9 792.9,180.9 833.3,181 			"/>
			<polygon class="st8" points="827.8,169.1 828.2,174.7 834.9,174.7 834.5,169.1 834.3,166 834,160.5 827.2,160.5 827.6,166 			"/>
			<polygon class="st8" points="401.8,217 442.8,217 443,213.9 402.1,213.9 			"/>
			<polygon class="st8" points="402.8,204.8 443.6,204.8 443.8,201.7 403,201.7 			"/>
			<polygon class="st8" points="403.7,192.6 444.4,192.7 444.6,189.6 404,189.6 			"/>
			<polygon class="st8" points="404.7,180.6 445.2,180.6 445.3,177.6 404.9,177.5 			"/>
			<polygon class="st8" points="403.6,168.7 403.2,174.3 409.9,174.3 410.3,168.7 410.6,165.6 411,160.1 404.3,160.1 403.8,165.6 
							"/>
			<polygon class="st8" points="830.6,110.8 1210.3,111.2 1210.3,108.3 830.4,107.9 			"/>
			<polygon class="st8" points="823.8,107.9 415,107.5 414.8,110.4 824,110.8 			"/>
			<polygon class="st8" points="408.5,107.5 16.5,107.1 16.5,110 408.2,110.4 			"/>
			<polygon class="st8" points="831.7,157.2 831.5,154.2 791.4,154.2 791.6,157.2 			"/>
			<polygon class="st8" points="790.8,142.5 791,145.4 830.9,145.5 830.7,142.5 			"/>
			<polygon class="st8" points="790.2,130.8 790.4,133.8 830.2,133.8 830,130.9 			"/>
			<polygon class="st8" points="789.6,119.3 789.7,122.2 829.4,122.3 829.2,119.3 			"/>
			<polygon class="st8" points="830.4,107.9 830,102.6 823.5,102.5 823.8,107.9 824,110.8 824.4,116.2 831,116.2 830.6,110.8 			"/>
			<polygon class="st8" points="406.6,156.8 446.7,156.9 446.9,153.9 406.8,153.8 			"/>
			<polygon class="st8" points="407.5,145.1 447.5,145.1 447.6,142.1 407.7,142.1 			"/>
			<polygon class="st8" points="408.4,133.4 448.2,133.5 448.4,130.5 408.6,130.5 			"/>
			<polygon class="st8" points="449.2,119 409.5,118.9 409.3,121.9 449,121.9 			"/>
			<polygon class="st8" points="415,107.5 415.5,102.2 408.9,102.1 408.5,107.5 408.2,110.4 407.8,115.8 414.4,115.8 414.8,110.4 
							"/>
			<polygon class="st8" points="826.6,52 826.8,54.8 1210.3,55.2 1210.3,52.4 			"/>
			<polygon class="st8" points="412.9,51.6 16.5,51.2 16.5,54 412.7,54.4 			"/>
			<polygon class="st8" points="419.1,54.4 820.3,54.8 820.2,52 419.3,51.6 			"/>
			<polygon class="st8" points="788.5,99.4 827.9,99.4 827.7,96.6 788.4,96.5 			"/>
			<polygon class="st8" points="826.9,85.3 787.8,85.3 787.9,88.1 827.1,88.2 			"/>
			<polygon class="st8" points="826.2,74.1 787.2,74.1 787.3,76.9 826.4,77 			"/>
			<polygon class="st8" points="825.4,63 786.6,63 786.7,65.8 825.6,65.9 			"/>
			<polygon class="st8" points="820.3,54.8 820.7,60 827.2,60 826.8,54.8 826.6,52 826.3,46.9 819.8,46.9 820.2,52 			"/>
			<polygon class="st8" points="411.1,99 450.4,99.1 450.6,96.2 411.3,96.2 			"/>
			<polygon class="st8" points="412,87.8 451.2,87.8 451.4,84.9 412.2,84.9 			"/>
			<polygon class="st8" points="412.9,76.6 451.9,76.6 452.1,73.8 413.1,73.7 			"/>
			<polygon class="st8" points="413.7,65.5 452.6,65.5 452.8,62.7 414,62.6 			"/>
			<polygon class="st8" points="412.7,54.4 412.2,59.6 418.7,59.6 419.1,54.4 419.3,51.6 419.7,46.5 413.3,46.5 412.9,51.6 			"/>
			<polygon class="st8" points="824.1,43.9 824,41.1 785.4,41.1 785.6,43.9 			"/>
			<polygon class="st8" points="784.9,30.3 785,33 823.4,33 823.2,30.3 			"/>
			<polygon class="st8" points="784.4,22.2 822.7,22.3 822.6,21 784.4,21 			"/>
			<polygon class="st8" points="454.2,40.8 415.7,40.7 415.5,43.5 454,43.5 			"/>
			<polygon class="st8" points="454.9,29.9 416.5,29.9 416.3,32.6 454.8,32.7 			"/>
			<polygon class="st8" points="455.5,21 417.2,21 417.2,21.9 455.4,21.9 			"/>
			<path class="st8" d="M1130.7,670.1h-0.3c-4.4-5.5-11.9-8.2-20.9-8.2c-11.6,0-20.5,5.3-19.2,14.9c0.8,5.8,4.6,11.3,8.3,14
				l14.2-2.1c-2.4-1.9-5.9-5.8-6.4-9.5c-0.6-4.4,2.9-6.6,8-6.6c7.2,0,10.3,4.5,11,8l0.6,4.1l8,0l5.6-5.6c0-3.4,2.3-6.5,7.4-7.4
				l10.5-10.5c-2.4-0.4-5-0.6-7.6-0.6C1138.9,660.4,1131.8,664.7,1130.7,670.1z"/>
			<path class="st8" d="M1129.7,643.2c23.9-0.1,42.7-5,40.9-16.4c-1.7-11.1-20.3-16.5-46.2-16.6c-22.9,0-42.2,4.5-40.7,16.2
				C1085.2,637.7,1105.3,643.2,1129.7,643.2z M1126.2,620.4c19.1,0,29,2.2,29.6,6.1c0.6,4-8.2,6.4-27.5,6.3
				c-19.5,0.1-29.1-2.5-29.6-6.3C1098.1,622.5,1107.6,620.4,1126.2,620.4z"/>
			<polygon class="st8" points="1118.7,695.2 1121.3,697.3 1123.4,695.2 			"/>
			<path class="st8" d="M1071.2,521.3l51.9,15.6l12.5,0l-2.8-18.2l19.4,0l-1.4-9l-19.3,0l-0.7-4.9l-14.2,0l0.7,4.9l-47.6,0
				L1071.2,521.3z M1100.5,518.6l18,0l1.4,9.2h-0.2l-18.6-5.5c-5.3-1.4-10.2-2.5-15.7-3.8l0-0.3
				C1090.6,518.5,1095.6,518.6,1100.5,518.6z"/>
			<path class="st8" d="M1107.6,490.7c22.8,0,40.8-4.6,39.2-14.9c-1.6-10.2-19.3-15.1-44.1-15.1c-21.9,0-40.4,4.1-39,14.7
				C1065.1,485.8,1084.3,490.7,1107.6,490.7z M1104.4,470c18.2,0,27.7,2,28.2,5.6c0.5,3.6-7.9,5.8-26.3,5.8
				c-18.7,0-27.8-2.3-28.2-5.7C1077.5,471.8,1086.6,469.9,1104.4,470z"/>
			<polygon class="st8" points="1117.2,558 1132.6,542.5 1097.3,542.5 			"/>
			<path class="st8" d="M1065.8,367.4l-14.9,0l2.7,20.7l41.3,2.5c-0.7-1.6-1.2-3-1.5-5.1c-1.1-7.5,3.4-10.6,11.4-10.6
				c8.2,0,12.4,3.9,13,7.5c0.5,3.4-1.1,6.8-2.6,8.5l14,1.6c2-2.1,3.5-5.9,2.8-10.5c-1.6-10.1-15.3-16.1-29.7-16.1
				c-9.1,0-15.3,1.7-18.8,4.5c-3.6,2.6-4.7,6.3-4.2,9.8c0.1,0.9,0.2,1.6,0.6,2.4l-12.1-0.8L1065.8,367.4z"/>
			<path class="st8" d="M1087.2,350c21.8,0,39.1-4.2,37.6-13.7c-1.5-9.3-18.4-13.8-42.1-13.8c-20.9,0-38.7,3.8-37.4,13.5
				C1046.6,345.5,1064.9,350,1087.2,350z M1084.2,331c17.5,0,26.5,1.8,27,5.1c0.5,3.3-7.6,5.3-25.2,5.3c-17.9,0-26.6-2.1-27-5.3
				C1058.5,332.7,1067.2,331,1084.2,331z"/>
			<path class="st8" d="M1035.2,249.8l47.4,13.2l11.4,0l-2.3-15.3l17.8,0l-1.2-7.6l-17.7,0l-0.6-4.1l-13,0l0.6,4.1l-43.6,0
				L1035.2,249.8z M1062.2,247.6l16.5,0l1.1,7.8h-0.2l-17-4.6c-4.9-1.2-9.4-2.1-14.3-3.2l0-0.2
				C1053.1,247.5,1057.7,247.6,1062.2,247.6z"/>
			<path class="st8" d="M1068.6,221.6c20.9,0,37.5-3.9,36.1-12.6c-1.3-8.6-17.6-12.7-40.3-12.7c-20.1,0-37.1,3.5-35.9,12.4
				C1029.7,217.4,1047.2,221.6,1068.6,221.6z M1065.8,204.1c16.7,0,25.4,1.7,25.8,4.7c0.5,3.1-7.3,4.9-24.2,4.8
				c-17.1,0-25.5-1.9-25.9-4.8C1041.2,205.7,1049.5,204.1,1065.8,204.1z"/>
			<polygon class="st8" points="1062.2,178.5 1048.3,190.8 1079.8,190.8 			"/>
			<path class="st8" d="M1088.5,138.4c2.4-1.9,4.3-5.4,3.6-9.5c-1.3-8-11.3-13-23.9-13c-9.3,0-15.4,3-16.4,6.8h-0.2
				c-3.6-3.9-9.8-5.8-17.4-5.8c-9.8,0-17.3,3.7-16.4,10.5c0.5,4.1,3.7,7.9,6.7,9.9l12-1.5c-2-1.3-4.9-4.1-5.2-6.7
				c-0.4-3.1,2.6-4.7,6.8-4.7c6.1,0,8.6,3.2,9.1,5.7l0.4,2.9l12,0l-0.4-3c-0.5-3.3,2.3-6.4,9.3-6.4c5.4,0,9.9,2,10.5,5.8
				c0.5,3-1.9,6.1-3.3,7.4L1088.5,138.4z"/>
			<path class="st8" d="M1051.5,103.3c20.1,0,36.1-3.6,34.8-11.6c-1.2-7.9-16.8-11.7-38.6-11.8c-19.3,0-35.7,3.2-34.6,11.5
				C1014.1,99.5,1030.9,103.3,1051.5,103.3z M1048.9,87.2c16.1,0,24.4,1.5,24.8,4.4c0.4,2.8-7,4.5-23.3,4.5
				c-16.5,0-24.4-1.8-24.8-4.5C1025.2,88.6,1033.3,87.2,1048.9,87.2z"/>
			<polygon class="st8" points="1045.6,63.5 1032.1,74.9 1062.4,74.9 			"/>
			<path class="st8" d="M1011.6,26.4l11.3-1.9c-1.8-0.9-3.7-2.1-5-3.5H1005C1006.6,23.2,1009,25,1011.6,26.4z"/>
			<path class="st8" d="M1056.4,23l8.7,3.8l9.8,0l-0.9-5.8h-22.1C1053.3,21.7,1054.8,22.3,1056.4,23z"/>
			<path class="st8" d="M199.5,27.6c14.9,0,28.6-1.9,34.3-6.6h-66.9C171.1,25.4,183.1,27.6,199.5,27.6z"/>
			<path class="st8" d="M221.7,82.6L209.6,84c1.5,1.3,3.6,3.9,3.3,6.5c-0.5,3.1-3.8,4.6-8.1,4.6c-6,0-7.6-3.1-7.3-5.5l0.4-2.8
				l-11.9,0l-0.5,2.9c-0.5,3.2-4.2,6.2-11.1,6.2c-5.4,0-9.2-1.9-8.6-5.7c0.5-2.9,3.8-5.9,5.5-7.2l-12.2-1.5
				c-2.9,1.8-5.9,5.2-6.5,9.2c-1.3,7.9,7,12.7,19.6,12.8c9.3,0,16.2-3,18.4-6.7h0.2c2.5,3.8,8.1,5.7,15.6,5.7
				c9.7,0,18.2-3.7,19.2-10.3C226.3,88.1,224.2,84.4,221.7,82.6z"/>
			<path class="st8" d="M220.6,127.8c1.2-8.2-14.6-12.1-35.3-12.1c-20.2,0-37.4,3.6-38.8,11.8c-1.4,8.1,13.2,12.1,35.5,12.2
				C201.7,139.6,219.3,136.3,220.6,127.8z M159.1,127.7c0.5-2.9,8.6-4.6,25-4.6c16.6,0,24.2,1.8,23.8,4.6c-0.4,3-9.1,4.5-25,4.5
				C166.5,132.1,158.6,130.5,159.1,127.7z"/>
			<polygon class="st8" points="192.8,68.1 175.8,79.5 206.2,79.5 			"/>
			<path class="st8" d="M153.5,196.3l-2.4,14.8l-17.6,0l-1.3,7.5l17.6,0l-0.7,4.1l13,0l0.6-4.1l43.4,0l1.4-9.7l-42.9-12.7
				L153.5,196.3z M165.5,203.6l15.4,4.5c4.5,1.1,8.7,2,13.3,3.1l0,0.2c-4.7-0.2-9.3-0.3-13.7-0.3l-16.4,0l1.2-7.5H165.5z"/>
			<path class="st8" d="M203.3,247.5c1.3-8.9-15.2-13.1-36.7-13.1c-21.1,0-39,3.9-40.5,12.8c-1.5,8.8,13.7,13.2,36.9,13.2
				C183.6,260.4,202,256.8,203.3,247.5z M139.3,247.4c0.5-3.1,9-5,26.1-5c17.3,0,25.2,2,24.7,4.9c-0.5,3.2-9.5,4.9-26.1,4.9
				C147.1,252.3,138.8,250.6,139.3,247.4z"/>
			<polygon class="st8" points="175.4,179.4 157.7,191.8 189.2,191.8 			"/>
			<path class="st8" d="M150.7,329.7c-1.1,7.3-6.5,10.3-14.4,10.3c-8.2,0-11.1-3.8-10.5-7.3c0.5-3.3,3.2-6.6,5.1-8.2l-13.2-1.5
				c-2.6,2-5.3,5.7-6.1,10.1c-1.7,9.9,10,15.7,24.4,15.8c9,0,15.7-1.7,20.1-4.4c4.3-2.6,6.5-6.1,7.1-9.6c0.1-0.9,0.2-1.6,0.1-2.4
				l11.7,0.8l-2.1,14.2l14.8,0l2.9-20.1l-39.9-2.4C151,326.3,151,327.7,150.7,329.7z"/>
			<path class="st8" d="M184.4,379c1.4-9.7-15.7-14.3-38.2-14.3c-22,0-40.7,4.3-42.4,13.9c-1.6,9.6,14.2,14.4,38.4,14.4
				C163.7,393.1,183,389.1,184.4,379z M117.6,378.9c0.6-3.4,9.4-5.5,27.2-5.4c18.1,0,26.3,2.1,25.8,5.4c-0.5,3.5-9.9,5.3-27.2,5.3
				C125.7,384.2,117.1,382.3,117.6,378.9z"/>
			<path class="st8" d="M110.9,457.9l-2.9,17.6l-19.2,0l-1.5,8.9l19.2,0l-0.8,4.8l14.2,0l0.8-4.8l47.2,0l1.7-11.4l-46.5-15
				L110.9,457.9z M123.8,466.6l16.7,5.3c4.9,1.4,9.4,2.4,14.4,3.7l0,0.2c-5.2-0.2-10.1-0.3-14.9-0.3l-17.8,0l1.4-8.9H123.8z"/>
			<path class="st8" d="M163.9,521.8c1.5-10.6-16.4-15.6-39.8-15.6c-23,0-42.6,4.7-44.4,15.2c-1.8,10.5,14.7,15.7,40.1,15.7
				C142.2,537.1,162.3,532.8,163.9,521.8z M149.5,521.7c-0.6,3.9-10.4,5.8-28.5,5.8c-18.6,0-27.5-2-26.9-5.8c0.6-3.7,9.9-6,28.5-5.9
				C141.5,515.7,150,518.1,149.5,521.7z"/>
			<polygon class="st8" points="115.9,559.6 136,544 100.6,544 			"/>
			<path class="st8" d="M144.4,613.7l-14.5,2.1c1.8,1.8,4.2,5.6,3.7,9.1c-0.6,4.3-4.7,6.5-9.8,6.5c-7.1,0-8.9-4.4-8.5-7.8l0.6-4
				l-14.1,0l-0.7,4.2c-0.7,4.5-5.2,8.8-13.4,8.8c-6.4,0-10.9-2.7-10-8c0.7-4.2,4.7-8.3,6.8-10.1l-14.4-2.1
				c-3.5,2.5-7.2,7.3-8.1,12.9c-1.9,11.1,7.9,18,22.8,18c11,0,19.4-4.3,22-9.5l0.2,0c2.8,5.4,9.4,8.1,18.4,8.1
				c11.6,0,21.8-5.2,23.2-14.6C149.6,621.5,147.2,616.3,144.4,613.7z"/>
			<path class="st8" d="M99.8,661c-10.3,0-19.9,1-27.7,2.9l8.5,8.5c4.6-0.6,10.4-0.9,17.6-0.9c19.8-0.1,28.7,2.6,28.2,6.4
				c-0.6,4.2-11,6.4-29.9,6.4c-1.4,0-2.7,0-3.9,0l10.5,10.5c20.2-1,36.9-5.9,38.5-16.7C143.1,666.6,124.4,661,99.8,661z"/>
			<polygon class="st8" points="110.7,702.5 111.3,703.1 112,702.5 			"/>
			<polygon class="st8" points="571.9,1163.9 654.9,1163.9 660.3,1158.5 566.5,1158.4 			"/>
		</g>
	</g>
	<polygon class="st1" points="16.5,608.3 16.5,21 1210.3,21 1210.3,608.3 613.4,1205.4 	"/>
	<path class="st15" d="M1195.9,35v562.9l-582.5,582.7L30.9,597.9V35H1195.9 M1224.8,1.6H2v611.6l611.4,611.6l611.4-611.6V1.6
		L1224.8,1.6z"/>
</g>
<g>
	<path class="st8" d="M671.6,289.3c-76.3,0-143.7,38.5-183.9,97l-5.6,3.5c-1.4,0.9-2.7,1.8-4.1,2.7c-0.1-0.8-8-43.1-8-43.1
		L454.5,388c-1.7,4.2-3,8.3-4.3,12.3c-0.3,0.9-0.6,1.7-0.8,2.6l-2.8-1.9l-6,12c-1.6,3.1-2.9,6.2-4.2,9.3l-9.9,0.1l0.7,12.5
		c0.2,3.6,0.2,7.3,0.1,11.3c0,1.8,0,3.6,0,5.5l0,5.1c-2.9,5.5-5.8,11.1-8.7,16.5c-10.3,19.5-20.9,39.6-30.6,59.9
		c-17.6,36.6-30.6,69.9-39.6,101.9l-0.1,0.4l-0.1,0.4c-0.3,1.4-0.6,2.7-0.9,3.9c-5.6,20.7-9.5,42.6-11.7,65.3l0,0.3l0,0.3
		c-1.5,33.6,0,66.5,4.3,97.7l0,0.2l0,0.2c0.4,1.9,0.7,3.9,1.1,5.8c1.8,9.3,3.4,18,3.1,26.5c-0.4,2.3-1.3,4.9-2.3,7.6
		c-0.7,2-1.5,4.1-2.1,6.3l-10.3,35l29.1-22.1c3.9-2.9,7.4-6.4,10.5-10.4l4.5,10.5l10.6-27.8l0.5-1.4c1.3-3.5,2.5-6.7,4.2-8.7
		l0.2-0.2c2-2.5,3.3-5.1,4.2-7.7l3-4c2.3-3,4-6.1,5.3-9.3l3.6,0.8c0.6,0.1,1.2,0.2,1.8,0.3c0.1,0.3,0.1,0.6,0.2,0.9
		c2.3,15.5,8.6,30.9,18.9,45.7c1.3,2.1,2.7,3.9,3.9,5.6c1.4,1.9,2.8,3.6,3.3,5l0.1,0.2c0.2,0.5,0.4,0.9,0.5,1.4
		c0.6,1.7,1.5,3.8,2.8,6.1l14.7,24.1l4.2-16.2c0.7,1.1,1.4,2.3,2.1,3.5c2.8,4.7,6.2,10.5,12.3,14.9l19.8,14.2l-0.8-24.4
		c-0.2-4.6,1.1-9.6,3.6-14.3c0.1-0.3,0.3-0.5,0.4-0.8l8.7,8.6l4.1-24.5c1.4-8.6,3-18.1,2.2-27.8l13.8,2.9l-9.8-21.5
		c-2.4-5.4-3.8-9.5-4.4-13.3c0-0.8-0.1-1.7-0.1-2.5c-0.2-4-0.4-7.8,0.3-10.9l1.4-7.1l-2.7-2.2l-0.1-1.3c-0.4-3.8-0.9-7.5-1.4-11.1
		c0-0.3-0.1-0.6-0.1-0.9l8.9,1l-9.5-19.6c-2.1-4.4-3.6-8.8-4.3-12.9l0-0.2c-3.1-16-4.8-33.6-5-52.1c0.2-4.8-0.1-9.4-0.3-13.8
		c-0.1-2.2-0.3-4.4-0.3-6.5l1-6.3c40.8,52.8,104.7,86.8,176.5,86.8c123,0,223.1-100.1,223.1-223.1
		C894.6,389.3,794.6,289.3,671.6,289.3z M671.6,723.4c-72.5,0-136.4-36.5-174.4-92.2c0.1-2.5,0.2-5.1,0.1-7.6c0-1,0-2,0-3
		c0-1.8,0-3.6,0-5.4l-0.1-5.1l-1.9-1.8c-0.1-1.8-0.1-3.7-0.2-5.5c-0.1-4.1-0.3-8.3-0.5-12.5c0-1,0.1-1.9,0.1-2.9
		c0.2-3.6,0.4-7.6-0.2-11.9c-0.2-1-0.2-2.3-0.3-3.7c-0.2-3.5-0.4-7.7-2.1-12.2l0.1-2.5c0.3-10.3,0.2-21.4-3.8-32.3
		c-3.2-9.3-9-18-17.7-26.6c0.2-5.9,0.9-11.7,1.8-17.5l1.4,1.1l5.2-16c1-2.9,1.9-6.1,2.6-9.5h0c0.7-1.2,1.2-2.3,1.5-3.1l0.3-0.6
		c0,0,0.5-1.2,0.5-1.4l0.9,0l3.7-11.5c0.2-0.5,0.4-1.5,0.7-2.3l1-2.7l-0.3,0l4.1-14.5l-1.6,0.1c2.2-4.8,4.3-9.7,6.5-14.4l15.6-34.5
		c38.6-43,94.7-70,157-70c116.6,0,211,94.5,211,211S788.2,723.4,671.6,723.4z"/>
	<g>
		<g>
			<path class="st8" d="M639.1,333.4c31.1-5.3,63.6-3,93.4,7.6c5.3,2.1,10.7,4.2,15.9,6.5c43.8,20.3,78.8,58.7,94.7,104.3
				c4,11.9,7.4,24.1,8.7,36.7c1.8,11.5,1.2,23.1,1.2,34.6c-2.2,45.5-23,89.5-56,120.8c-32.4,31.2-77,49.4-122,50.2
				c-16.7,0.4-33.3-1.8-49.4-5.8c-31.1-8.2-60.1-24.6-82.7-47.6c-23.6-23.2-40.5-53.1-48.1-85.3c-11.1-43.7-4.4-91.4,17.3-130.7
				c7.8-14.2,17.8-27.1,28.7-39C567.5,358.9,602,340.2,639.1,333.4z M663.5,359.2c-6.8,1.6-13.8,2.4-20.3,4.9
				c-11.3,4-20.5,11.8-30,18.9c-8.8,8.1-19.1,14.5-28.9,21.2c-14.3,10.8-26.8,23.9-37.8,37.9c-13,19.1-21.8,40.8-27.2,63.2
				c-0.7,7-3.1,14.3-1.1,21.3c4.1-8.6,8.7-17.3,15.7-24.1c-0.2,2.7-0.8,5.4-1.4,8.1c0.2-0.1,0.7-0.2,0.9-0.3
				c3.1-6.6,8.7-11.5,13.2-17.1c3.2-4,6.2-8.2,10-11.7c-1.1,2.6-2,5.3-2.9,7.9c-0.2,2.7-0.5,5.4-0.6,8.1c1.6-1.6,3.2-3.4,4.8-5.1
				c-3.5,9.6-7,19.3-9.6,29.2c-3,12.5-5.8,25.1-5.1,38c1.8-3.2,2.6-7.4,5.9-9.3c-3.7,14.3-6.6,28.8-6.9,43.6c-0.2,9.1,0.4,18.5,4,27
				c1.2-3.1,2.3-6.3,4.2-9.1c4-5.4,6.9-11.6,9.4-17.8c0.6,2.8,1.2,5.6,1.6,8.4c5.2-6.2,7.2-14,10.4-21.2c0.7-0.3,2-1,2.7-1.3
				c3.8-4.5,7-9.7,9.9-14.8c1.6-2.6,2.3-5.7,4.5-7.8c0.4,3,0.3,6,0.3,9.1c5.1-6,8.7-13.3,8.9-21.3c9.6,11.3,9.2,27.3,7.3,41.1
				c-1.9,9.1-5.4,17.9-10.8,25.4c-5.8,9.1-14.3,15.9-21.6,23.6c1.8,0.4,3.6,0.5,5.5,0.3c18.2-4,37.4-6.1,55.8-2
				c20.2,4.5,38.7,14.5,56.8,24.3c13.8,5.2,28.1,10,43,10.4c-2-19-0.2-38.2,4.3-56.6c1.8-6-0.1-12.5,2.2-18.4
				c12.3,1.8,24.1-2.3,35.9-4.9c2.2,0.5,4.4,0.7,6.7,0.8c5.2,0.6,9.4-3.4,12.9-6.7c3.7-5.6,1.6-12.4,0-18.3c-1.9-6.2,3-11.1,6-15.9
				c1.7-2.5-0.6-4.9-2.1-6.7c2-0.5,4-1,6.1-1.4c0.2-1.3,0.5-2.7,0.8-4c-0.4-2.6-0.7-5.3-1-7.9c-1-2.4-2.2-4.8-3.6-7.1
				c5.7,1.5,12.6,1.1,16.7-3.5c2.6-2.4,2.6-6.1,3.4-9.4c-1.6-10.3-7.2-19.2-10.4-29c-2.3-7.2-5.5-14.5-11.9-18.9
				c-2.6-1.7-6.5-3.9-5.4-7.7c2-3.3,4.6-7,3.1-11.1c-0.7-6.3-5.7-10.5-9.3-15.2c-6.3-9.6-9.9-21.4-19.5-28.4
				c-5.4-5-11.2-10.3-14-17.3c-6.6-9.3-16.8-15.5-27.3-19.4c-7.9-2.9-16.6-2.2-24.6-4.5C689.8,356,676.2,355.6,663.5,359.2z"/>
		</g>
		<path class="st8" d="M682.8,379.4c1.8-2.6,5.3-2.1,8-3c3.3-1.3,5.9,1.8,8.9,2.4c6.1,0.7,11.2,4.8,15,9.4c2.2,2.8,5.6,4.1,8.5,6
			c-2,0.2-3.9,0.5-5.9,0.7c-2.3-0.4-4.1-2.3-6.2-3.3c-2.5,0.9-4.9-0.2-7.1-1.1c-2.8-0.4-5.6-0.6-8.3-1.3c-0.5,0.4-1.4,1.1-1.8,1.5
			c-3.9-2.6-8.4-3.3-13-2.5c-0.6-1.1-1.1-2.2-1.6-3.4c7.3-0.4,14.7-0.7,21.9,0.9c-2.2-3.5-6.8-3.4-10.4-3.5
			C687.8,382.2,685.3,380.7,682.8,379.4z"/>
		<path class="st8" d="M716.1,378.4c1.6-1.1,3.7-0.4,5.3,0.3c4,1.8,7.8,4.2,11.5,6.5c2.6,1.6,3.2,4.8,4.6,7.3
			c-1.1,0.4-2.2,0.7-3.2,1.1c-1.5-6.3-8.7-6.9-13.3-9.7C719.4,382,716.4,380.8,716.1,378.4z"/>
		<path class="st8" d="M657.3,387.5c4.2,0.3,8.6,1.2,12.5-0.7c2.6,0.7,6.9-1.7,7.7,2.1c1.3,0.4,2.5,0.8,3.8,1.2
			c-1.9,1.9-4.6,1.5-7,0.9c-3.6-0.9-7.3,0.6-11-0.1C661,390.4,659.2,388.8,657.3,387.5z"/>
		<path class="st8" d="M605.7,393.7c4.4-3.2,9.6-5.3,15-5.7c1.9-0.3,3.1,1.2,4.2,2.4c-0.2,0.8-0.6,2.5-0.8,3.3
			c-4.8,5.3-11.3,9.5-14,16.5c-2,3.3-3.1,7.1-5.1,10.4c-3.2,3.3-6.1,6.9-8.2,10.9c-0.5-0.4-1.6-1.2-2.1-1.6c-0.7,2.7-1.3,5.5-2.6,8
			c-4.5,7.5-9.3,15-16.2,20.5c-0.1-0.9-0.2-2.8-0.3-3.7c-3.6,6.2-7.5,12.3-13.1,16.8c-0.7-1.3-1.4-2.5-2-3.8
			c-2.9,4.7-6.9,8.8-11.9,11.3c-0.4-0.6-1.2-1.8-1.6-2.4c-1.1,1.1-2.1,2.3-3.2,3.4c-0.9-0.1-1.9-0.2-2.8-0.2
			c1.5-4.1,3.9-7.7,6.3-11.2c10.8-16.6,23.4-32,37-46.4c9.9-10.5,20.9-19.7,31.4-29.5c-1.7,0.7-3.4,1.6-4.8,2.8
			c-30.3,24.5-55.5,54.9-76,88c-1,0.1-2,0.2-3,0.3c-0.2-0.5-0.6-1.5-0.8-2c3.5-12.8,8.5-25.5,16.5-36.3c6.9-9.3,15.4-17.2,23.2-25.7
			C580.9,409.3,593.6,401.8,605.7,393.7z"/>
		<path class="st8" d="M466.1,401.9c0.5,6.6,1.6,13.1,2.5,19.7c-2.8-0.7-4.8-3.5-6.9-5.3C462.9,411.4,464.3,406.6,466.1,401.9z"/>
		<path class="st8" d="M613.3,409.3c1.7-2.6,3.6-5.7,6.9-6.5c-1.9,10.9,0.8,21.7,2.8,32.4c0.9,6.6,3.4,13.2,2.4,20
			c-0.9,4.6-1.1,9.3-2,13.9c-3-4.2-4.8-9.3-6.1-14.3c-1.2,8.4,0.5,16.9,1.7,25.2c-3.7,3.5-5.9,8.2-6,13.4c-0.8,1.9,0,6.2-3,6
			c-2-4.1-2.9-8.6-3.9-13c-0.6-3.1-1.2-6.1-1.9-9.2c-3.1,14.1,0.7,28.5,2.8,42.5c-2.9,2.9-4.1,6.9-5.8,10.6
			c-3.4,3.2-5.7,7.3-7.6,11.5c-0.9-4.5-1.6-9.1-3.3-13.5c-1.3,3.7-1.3,7.6-1.6,11.4c-2.3,6-3.3,13.2-8.3,17.7
			c-0.6-0.1-1.9-0.3-2.5-0.4c-1.7,1.4-3,4.2-5.7,3.3c0.9-3.1,2.4-6.1,2.8-9.3c-1.6,1.9-2.9,4.2-4.4,6.2c-2.1,2.7-5.4,4-8.4,5.5
			c-1.2-4.5-0.5-9.2,0.4-13.7c-1.3,0.6-2.6,1.1-3.8,1.7c0.7-7.7,2.3-15.4,5.7-22.3c-0.7-3.6,0.7-6.9,2.3-10
			c-5.9,4.4-7.7,13.7-15.7,15.3c0.6-2,1.3-3.9,2.1-5.8c-0.5-0.6-1.5-1.8-2-2.4c3.1-13.3,10.4-25.1,16.7-37c2.4-4.6,5.9-8.4,9.4-12.2
			c-6.4,1.9-10.3,8-16,11c1.4-7.9,6.3-15,12.1-20.4c8.9-8.8,15.6-19.6,24.4-28.4c-0.4,4.6-2,9.1-3,13.6c-7,27.1-14.9,53.9-21.7,81.1
			c-0.4,2.2-1.9,4.1-2,6.3c1.2,0.4,1.6-1.7,2.4-2.3c-0.8-1.9,0.5-3.7,1-5.5c8.6-26.9,15.7-54.3,23.8-81.4
			C602.4,436.2,605.9,421.9,613.3,409.3z"/>
		<path class="st8" d="M472.1,410.2c2.5-1.9,4.8-3.8,7.2-5.8c-2,3.9-4,7.7-5.9,11.6C473,414,472.5,412.1,472.1,410.2z"/>
		<path class="st8" d="M454.7,417c3.2,2.4,6.1,5.1,9.1,7.8c-3.9,0-7.9,0-11.9,0C452.8,422.1,453.7,419.6,454.7,417z"/>
		<path class="st8" d="M472,441.9c0.8-1,1.3-2.2,1.8-3.4c-0.8,2-1.6,4-2.4,6c-0.3,0.7-0.7,1.5-1,2.2c-2.4-1.6-4.9-3.1-7.4-4.6
			C466,442.1,469,442.2,472,441.9z"/>
		<g>
			<path class="st8" d="M449.8,442.1c1.6,0,3.3,0,4.9,0.1c-11.3,16-19.2,34.3-24.5,53.1c-3.3,5.4-6.7,10.7-9.1,16.6
				c-1.1-2.4-1.4-5-1.6-7.6c-3.9,6.2-2.2,13.7-3.3,20.5c-1.9,6.8-5.9,12.7-8.8,19.1c3.4-0.8,5.8-3.7,9-4.8c0,4.3-0.8,8.5-1.4,12.8
				c-1.3,8.1-2.2,16.5-5.8,24c-1.3-3.6-2.7-7.6-6.1-9.9c2.5,13.6,4.5,27.4,3.1,41.3c1.5-0.4,4.4-1.2,5.9-1.7c-1.7,2.5-4.5,3.9-6.7,6
				c-2.2,6.4-2.2,13.3-4.2,19.8c-3.9-8.3-5.1-17.5-8.2-26.1c0,9.8,2,19.4,3.8,29c0.9,3.7,2.1,7.3,2.7,11c-0.3,6.5-1.8,12.8-2.4,19.3
				c-2.1-5-5.1-9.6-8.9-13.4c3.4,11.4,7.9,22.6,8.6,34.6c3.2-1.9,6.2-4.1,9.4-6c-1.2,4.3-3.7,8.3-7.3,11.1
				c1.5,8.1,2.2,16.2,2.9,24.4c-3.2,4-0.8,9.8-4.1,13.9c-1-1.6-2-3.2-3.1-4.9c-1.2,0.9-2.4,1.8-3.6,2.7c-1-4.1-2.4-8.1-4.9-11.6
				c-0.2-1.1-0.6-3.4-0.7-4.5c-0.7,1.5-1.6,2.9-2.1,4.5c-0.3,4.8,4.1,8.5,3.5,13.3c0,1.4-1.5,2.2-2.7,2.2c-2.4-3.5-3.3-7.7-5-11.6
				c-1.3,2.8-1.5,5.9-0.4,8.8c1.8,4.8,1.7,10.1,0.5,15c-0.8,0.1-2.4,0.2-3.2,0.2c-1.1-3.3-2.2-6.6-3.8-9.7c-3,4.5-3.7,9.9-2.9,15.2
				c-1.3,0.4-2.6,0.8-4,1.2c-1-2.5-2.5-5-2.4-7.8c0-4.2,1.5-8.2,2-12.4c-2.6-3.1-3.4-7.1-4.1-11c0.4-1.7,0.8-3.4,1.2-5.1
				c-1.7,1-3.4,1.9-5.1,2.9c0.4-3.3,0.8-6.5,1.4-9.8c-0.5,0.5-1.4,1.5-1.8,1.9c-0.8-2.7-1.6-5.3-2.5-8c0.6-16.4,3.2-32.7,6.6-48.7
				c3.1-15.4,7.3-30.6,12.3-45.5c6.9-21.3,15.6-41.9,25-62.2c2.6-5.7,5.7-11.1,7.8-17c6-14.4,13.6-28.1,20.5-42.1
				C433.8,470.8,441.4,456.2,449.8,442.1z M366.1,674.4c-1.5,1.2-1.2,3.2-1.5,4.9c-0.9,1.7-1.9,3.3-2.4,5.1c0.4,1.7,1.7,3,2.7,4.5
				c0.8,0,2.5-0.1,3.3-0.1c1.1-1.2,2.3-2.4,3.3-3.7c-0.1-2-1-3.9-1.5-5.8C369.5,677.2,369.2,673.4,366.1,674.4z M380.1,687.3
				c0.2,1.9,0.5,3.9,1,5.8c-0.3,2.3-0.6,4.6-0.8,7c2,0.1,3.9,0.2,5.9,0.3C388.4,695.2,385.4,689,380.1,687.3z M358.7,702.2
				c2.3,1.8,4.5,0.4,6.4-1.2c-0.2-3.2-0.7-6.3-1.6-9.4C358.9,692.9,359,698.4,358.7,702.2z M370.4,697.6c-0.9,1.4-2.4,2.7-2.6,4.5
				c0.8,2.6,2,5,2.9,7.6c0.6,0.4,1.9,1.1,2.5,1.4c0.9-0.5,1.7-0.9,2.6-1.3c0.3-0.6,1-1.8,1.3-2.4c-1.2-3.2-2.5-6.3-3.6-9.5
				C372.7,697.7,371.1,697.6,370.4,697.6z M389.2,706.2c-1.8,3.2,0.9,6.3,1.2,9.5c1.9,1.6,4,1,6,0c-0.4-1.8-0.7-3.7-1.5-5.4
				C393.5,708.3,391.2,707.4,389.2,706.2z M369.9,730.6c0.9-0.2,2.8-0.5,3.7-0.6c1.1-2.4,2.9-5.9-0.5-7.3c-0.7-2.6-1.4-5.2-2-7.8
				C366.3,718.4,364.7,726.6,369.9,730.6z"/>
		</g>
		<g>
			<path class="st8" d="M457.8,445c1.3,0.8,2.5,1.5,3.8,2.3c-0.4,1.9-0.8,3.8-1.3,5.7c-1.4,9.2-3.4,18.4-3.8,27.8
				c-0.2,5.1-1.2,10.3,0.1,15.4c12.4,9.5,19.2,24.9,18.9,40.5c-5.4-4.1-11.5-7.3-16.1-12.5c4.6,9.5,11.1,17.9,16.1,27.2
				c0.9,1.6,1.1,3.4,1,5.2c-0.3,11,2,22,1,33c-1.9-1.4-3.7-2.9-5.6-4.4c2.6,6.8,5.4,13.4,8.9,19.8c-0.2,5.4,0.4,10.8-0.6,16.2
				c-4.1-3-8.6-6-11.5-10.3c-5.4-6.4-11.9-12.7-20.4-14.4c7.8,7.9,15,16.5,20.8,25.9c2.5,5.8,6.4,10.8,10,16
				c-0.7,9.7-0.4,19.4-0.3,29.1c-5.8-3.7-9.9-9.4-13.1-15.3c-1.2,9.4,5.8,17.2,11.9,23.5c2,1.5,1.7,4.3,2,6.5
				c0.6,14.4,2.5,28.7,4,43c-5.9-4.1-10.4-9.8-14.4-15.6c0.6,8.5,6.1,15.5,11.2,21.9c2.1,2.6,4.7,5.2,5.3,8.7
				c-0.3-0.5-0.8-1.6-1-2.1c-3.5,0.3-6.2-1.3-8-4.2c0.2,1.6,0.3,3.2,0.5,4.8c2.5,2.4,4.6,5.2,5.8,8.5c-1.2,0.6-2.5,1.2-3.7,1.7
				c-2.3-6.3-6.7-11.4-11.7-15.6c2.3,7.6,6.8,14.4,8.9,22.1c-1.2,0-3.5,0.1-4.6,0.2c1.3,4.2,4.8,8.1,3.3,12.7
				c-8-4.4-12-12.9-15.8-20.8c-4.6,7.3-6.9,15.6-9,23.9c-7.6-21.7-11.4-44.4-14.6-67c-3.1-25.4-5-51-4.6-76.5
				c0.1-8.2-0.3-16.4,0.7-24.6c0.4-17.1,2-34.2,4.4-51.1c1.5-15,4.7-29.7,7.4-44.5c3.6-17.1,7.3-34.2,11.4-51.1
				C455.8,452.5,456.8,448.8,457.8,445z M446.5,700.2c1.7,4,2.8,8.4,5.2,12.1c1.6-0.3,3.1-0.8,4.7-1.3c0.2-3.5-1.1-6.7-2.7-9.6
				c-1.1-0.5-2.2-1.1-3.3-1.7C449.4,699.8,447.4,700,446.5,700.2z M444.5,711.2c-1.3,2.4-3,4.6-4.4,6.9c0.8,2.6,2.5,6.3,5.9,5.4
				c3.9,0.1,5.4-5.2,3.8-8.2C449.3,713.2,447,709.6,444.5,711.2z M459.9,719.4c-0.1,2.4,1.1,4.4,2.6,6.2c1.3-1.1,2.5-2.3,3.6-3.6
				C464.3,720.5,462.3,719.3,459.9,719.4z M445.7,734.3c1.2,3.5,1.6,7.3,3.2,10.6c1.7,2.1,3.5-0.6,5-1.5c0-1.8-0.1-3.7-0.1-5.5
				C451.7,735.5,449.2,733,445.7,734.3z M459.6,734.4c-1.4,1.2-2,3-2.9,4.5c1.6,4.1,5.9,5.3,9.6,6.8c1.5-2.4-0.1-4.5-1.8-6.2
				C463.8,737.4,462.6,733.8,459.6,734.4z"/>
		</g>
		<path class="st8" d="M465.8,450c1.1,0.9,2.3,1.7,3.4,2.6c-2.9,8-4.1,16.4-5.8,24.7c-0.9,5.8-2.1,11.6-2.2,17.6
			c-0.3-0.3-0.9-0.8-1.2-1.1C460,479,462.7,464.4,465.8,450z"/>
		<path class="st8" d="M442.6,472.7c2.6-6.8,5.4-13.7,9.9-19.6c-2.5,11.9-6,23.7-8.7,35.6c-2.2,0.8-4.4,1.6-6.5,2.6
			C438.2,484.9,440.6,478.8,442.6,472.7z"/>
		<g>
			<path class="st8" d="M434.4,499.3c2.2-2.8,5.8-3.7,9-5.1c-2.4,10-4.6,20-6.5,30c-0.9,7.4-2.4,14.7-3.2,22.1
				c-5.9,44.7-6.8,90-3.1,134.9c0.2,6.9,1.3,13.6,2.3,20.4c0.8,7.3,2.1,14.5,3.3,21.7c0.4,2.2,0.7,4.5,1.2,6.7
				c1.9,10,4.3,19.9,7.3,29.6l-0.1,0c-1.8,1-3.7,2.1-5.5,3.1c-1.6-4.5-3.8-8.8-5.9-13c-0.8,0.2-2.3,0.5-3.1,0.6
				c-3.9-3.8-3.9-9.4-4-14.4c-5.8,6.8-7,15.8-9.5,24c-0.8-0.1-2.3-0.3-3-0.3c-0.2-1.3-0.4-2.6-0.6-3.9c-1.9-9.1-2.8-18.5-3.2-27.8
				c-0.5-7,5.4-12,6.7-18.6c-3.5,2-6.1,5.2-8.5,8.4c-2.1-6.7-2.3-13.9-2.4-20.9c-0.6-5.8,3.1-10.8,4.7-16.2
				c2.7-8.5,7.1-16.3,11.1-24.2c-6.5,4.3-11.1,10.9-16.9,16.1c0.4-15.9,3.1-31.6,4.8-47.4c0.9-4.7,0.4-9.9,3.4-13.9
				c4.5-6.4,10-12.1,14.7-18.4c-5.6,1.9-10.4,5.4-15.6,8.1c2.4-15.2,4.7-30.4,7.7-45.5c1.1-6.8,2.7-13.7,5-20.2
				c2.9-7,9.4-11.7,12.2-18.8c-6.2,3.5-10.4,9.5-15.9,13.9C423.5,519.3,426.6,507.8,434.4,499.3z M421.4,714.3
				c-0.2,1.9,0,3.9,0.2,5.8c1.7,0.1,3.4,0.2,5.1,0.3c-0.5-2.1-1.2-4.2-1.9-6.3C423.6,714.1,422.5,714.1,421.4,714.3z M428.7,721
				c-3.6,3-1.2,8.7,2,11.1c2.2,0.8,2.5-2.3,3.7-3.5C433.5,725.7,432.6,721.1,428.7,721z M432.6,737.7c-0.1,3.8-1.1,8,1.1,11.5
				c1,2.4,4.7,0.7,4.7-1.5c0.3-3.9-0.5-7.7-2.1-11.2C435,736.9,433.8,737.3,432.6,737.7z"/>
		</g>
		<path class="st8" d="M649.9,574.4c6.6-6.6,15.7-11.6,25.2-11.7c3.5-0.4,4.7,3,4.9,5.9c-4,1.6-8.5,2.2-11.6,5.5
			c4.6-1.2,9.3-2.6,14-2.5c4.3,0.8,4.5,6.2,2.9,9.4c-1.6,2.7-5.1,2.7-7.9,3c-5.3,1.2-11,2.3-15.2,6.1c-2.7,2.2-4.6,5.3-7.2,7.6
			c-2.6-2.1-4.1-5.2-6-8c2.2-4.4,6.6-6.7,10.5-9.4c-4.9,0.1-8.7,3.7-12,6.9c-1-2-2-3.9-2.7-6.1C645.6,578.3,648,576.5,649.9,574.4z"
			/>
		<path class="st8" d="M669.4,593c5.9,5.8,5.6,15.8,12.6,20.7c4.1,1.8,5.3-4.4,8.8-5.3c-0.3,1.4-0.7,2.9-1.2,4.3
			c-0.4,0.6-1.2,1.8-1.6,2.4c0,1.6,0.1,3.3,0.3,4.9c2.5,5.3,5.6,10.4,10.3,14.1c3.7,0,2.2-5.7,5.9-6.7c0.5,5.1-0.6,10.1-2.2,14.9
			c4.4,2.4,6.9,7,10.7,10c0.7,0,2.1-0.2,2.8-0.2c0,1.5,0,2.9,0,4.4c1.7,1.1,3.7,2,4.4,4.2c-3.1-0.4-6.3-0.8-9.4-0.4
			c-0.1-4-1.1-8.3-4.4-10.9c-6-5.6-15.1-4.6-21.6-9.1c-0.2-0.8-0.6-2.3-0.8-3.1c3.7,0.6,7.2,1.8,10.7,3.2c1-0.9,1.9-1.8,2.9-2.7
			c-2.1-2.7-4.8-4.8-6.7-7.6c-1.8-2.3-3.1-5.1-5.4-6.9c-4.4-2.7-10.1-1.9-14.6-4.4c-0.2-0.6-0.6-1.8-0.7-2.3
			c3.6,0.3,7.2,1.1,10.8,0.4c-4.7-4.5-7.2-10.5-10.5-16C668.9,598.4,669.3,595.6,669.4,593z"/>
	</g>
	<path class="st9" d="M620,307.8c40.7-10.5,84.5-8.1,124,6.2c30.7,11.2,58.8,29.6,81.2,53.4c25.4,26.7,43.7,60.2,51.9,96.1
		c4.7,18.3,6,37.3,5.3,56.2c0.3,8.1-0.7,16.2-1.9,24.1c-8.6,60.5-45.5,116.2-97.6,148c-9.3,6.2-19.4,10.9-29.7,15.2
		c-22.5,9.8-46.9,14.7-71.3,16.3c-9.6-0.3-19.3,0.6-28.9-0.8c-9.2-0.9-18.4-2.2-27.4-4.2c-58.3-12.7-110.4-51.6-138.7-104.1
		c0-2.8,0-5.6-0.1-8.4c-0.4-0.4-1.3-1.2-1.8-1.6c-0.4-7.8-0.5-15.6-1-23.3c0.1-4.4,0.7-8.9,0-13.3c-0.7-4.7-0.1-9.6-2-14.1
		c-1.2-2.8-2.9-5.4-4.5-8c1.3,0.5,2.7,1.1,4,1.7c0.2-9.4,0.2-19-3.1-27.9c-3.3-9.6-9.9-17.6-17.3-24.5c0-5.9,1.3-11.7,2.2-17.6
		c1.6-8.3,2.9-16.7,5.8-24.7c0.9-2.7,1.7-5.3,2.2-8.1c0.8-2,1.6-4,2.4-6c0.2-0.4,0.5-1.2,0.6-1.6c-9.5-0.2-18.9,0-28.4-0.1
		c0-2.4,0-4.8,0-7.2c10.5,0,21,0,31.5,0c0.2-0.7,0.7-2.2,0.9-2.9c9.3-20.1,21-39.1,36.1-55.4c3.8-4,7-8.6,11.6-12
		C552.4,334.6,584.9,316.1,620,307.8z M639.1,333.4c-37.1,6.7-71.6,25.5-98.2,52.2c-10.9,11.9-20.9,24.8-28.7,39
		C490.6,464,484,511.7,495,555.4c7.6,32.2,24.5,62.1,48.1,85.3c22.6,22.9,51.6,39.3,82.7,47.6c16.1,4,32.7,6.2,49.4,5.8
		c45-0.8,89.5-19,122-50.2c33-31.2,53.8-75.3,56-120.8c0-11.6,0.6-23.2-1.2-34.6c-1.3-12.6-4.7-24.7-8.7-36.7
		c-15.9-45.6-50.9-84-94.7-104.3c-5.3-2.2-10.6-4.3-15.9-6.5C702.8,330.4,670.3,328.1,639.1,333.4z"/>
	<path class="st9" d="M366.1,674.4c3.1-1,3.4,2.9,3.8,5c0.5,1.9,1.4,3.8,1.5,5.8c-1,1.3-2.2,2.5-3.3,3.7c-0.8,0-2.5,0.1-3.3,0.1
		c-1-1.4-2.3-2.7-2.7-4.5c0.5-1.8,1.5-3.5,2.4-5.1C364.9,677.6,364.6,675.6,366.1,674.4z"/>
	<path class="st9" d="M380.1,687.3c5.3,1.7,8.3,7.9,6.1,13.1c-2-0.1-4-0.2-5.9-0.3c0.3-2.3,0.6-4.6,0.8-7
		C380.6,691.1,380.3,689.2,380.1,687.3z"/>
	<path class="st9" d="M358.7,702.2c0.3-3.8,0.2-9.3,4.8-10.6c0.8,3.1,1.3,6.2,1.6,9.4C363.2,702.7,361.1,704,358.7,702.2z"/>
	<path class="st9" d="M370.4,697.6c0.8,0,2.3,0.1,3.1,0.1c1.1,3.2,2.4,6.4,3.6,9.5c-0.3,0.6-1,1.8-1.3,2.4c-0.9,0.4-1.7,0.9-2.6,1.3
		c-0.6-0.3-1.9-1-2.5-1.4c-0.9-2.5-2.1-5-2.9-7.6C368,700.3,369.5,699.1,370.4,697.6z"/>
	<path class="st9" d="M446.5,700.2c1-0.1,2.9-0.4,3.9-0.5c1.1,0.6,2.2,1.1,3.3,1.7c1.6,3,2.9,6.2,2.7,9.6c-1.6,0.5-3.1,1-4.7,1.3
		C449.3,708.5,448.2,704.2,446.5,700.2z"/>
	<path class="st9" d="M353.9,700.8c0.8,2.7,1.7,5.3,2.5,8c0.5-0.5,1.4-1.5,1.8-1.9c-0.5,3.2-1,6.5-1.4,9.8c1.7-1,3.4-1.9,5.1-2.9
		c-0.4,1.7-0.8,3.4-1.2,5.1c0.7,3.9,1.5,7.9,4.1,11c-0.5,4.1-2,8.2-2,12.4c-0.1,2.8,1.5,5.3,2.4,7.8c1.3-0.4,2.7-0.8,4-1.2
		c-0.8-5.3-0.1-10.7,2.9-15.2c1.6,3.1,2.7,6.4,3.8,9.7c0.8-0.1,2.4-0.2,3.2-0.2c1.3-4.9,1.3-10.2-0.5-15c-1.1-2.9-0.9-6,0.4-8.8
		c1.7,3.8,2.5,8.1,5,11.6c1.2,0,2.7-0.8,2.7-2.2c0.7-4.8-3.8-8.5-3.5-13.3c0.5-1.6,1.3-3,2.1-4.5c0.2,1.1,0.6,3.4,0.7,4.5
		c2.5,3.5,3.9,7.5,4.9,11.6c1.2-0.9,2.4-1.8,3.6-2.7c1,1.6,2,3.2,3.1,4.9c3.3-4.1,0.9-9.9,4.1-13.9c-0.3,9.9,1.5,20.3-1.8,29.8
		c-1.8-1.3-3-3.5-5.1-4.2c-2.1,1.3-3.3,3.5-3.9,5.9c-2.6,10.6-2.3,21.5-2.6,32.3c-4.9-3-5.9-9-9.6-13c-0.4,3-0.7,6-1.3,9
		c-1.6,10.9,4.3,22.7-1.8,32.8c-1.4-2.7-2.8-5.4-4.1-8.1c-2.1,7.4-4.2,15.1-8.2,21.7c-1.3-3.4-0.8-7-1.3-10.5
		c-1.9-15-5.8-29.7-7-44.8C352.6,744.6,351.5,722.5,353.9,700.8z"/>
	<path class="st9" d="M389.2,706.2c2,1.2,4.3,2.2,5.8,4.1c0.8,1.7,1,3.6,1.5,5.4c-2,1-4.1,1.5-6,0
		C390.1,712.4,387.4,709.3,389.2,706.2z"/>
	<path class="st9" d="M444.5,711.2c2.4-1.6,4.8,2,5.3,4.1c1.5,3,0.1,8.3-3.8,8.2c-3.3,0.9-5.1-2.8-5.9-5.4
		C441.5,715.8,443.2,713.6,444.5,711.2z"/>
	<path class="st9" d="M421.4,714.3c1.1-0.1,2.2-0.2,3.4-0.2c0.8,2,1.4,4.1,1.9,6.3c-1.7-0.1-3.4-0.2-5.1-0.3
		C421.4,718.1,421.2,716.2,421.4,714.3z"/>
	<path class="st9" d="M369.9,730.6c-5.2-3.9-3.6-12.2,1.2-15.7c0.6,2.6,1.2,5.2,2,7.8c3.4,1.5,1.6,4.9,0.5,7.3
		C372.7,730.1,370.8,730.4,369.9,730.6z"/>
	<path class="st9" d="M459.9,719.4c2.4,0,4.4,1.1,6.2,2.6c-1.1,1.3-2.3,2.5-3.6,3.6C461,723.8,459.9,721.8,459.9,719.4z"/>
	<path class="st9" d="M428.7,721c3.9,0.1,4.8,4.7,5.7,7.7c-1.2,1.2-1.5,4.2-3.7,3.5C427.5,729.7,425.1,724,428.7,721z"/>
	<path class="st9" d="M445.7,734.3c3.5-1.2,6,1.2,8.1,3.6c0,1.8,0,3.6,0.1,5.5c-1.6,0.9-3.3,3.5-5,1.5
		C447.3,741.5,446.9,737.8,445.7,734.3z"/>
	<path class="st9" d="M459.6,734.4c3-0.6,4.1,2.9,4.9,5.1c1.7,1.7,3.3,3.8,1.8,6.2c-3.7-1.5-8-2.7-9.6-6.8
		C457.7,737.4,458.3,735.6,459.6,734.4z"/>
	<path class="st9" d="M467.6,733.1c5.1,4.3,9.4,9.3,11.7,15.6c1.2-0.6,2.5-1.2,3.7-1.7c-1.2-3.3-3.2-6.1-5.8-8.5
		c-0.2-1.6-0.3-3.2-0.5-4.8c1.8,2.9,4.6,4.6,8,4.2c0.3,0.5,0.8,1.6,1,2.1c2.4,5.2,4.2,10.7,4.8,16.4c-0.5,3.3-2.3,6.3-3.4,9.4
		c1.3,1.6,2.7,3.2,3.6,5.1c0.4,4.6,0.1,9.3,0.1,14c-3-1.1-5.4-3.1-7.6-5.2c-0.2,6.9-1,14.1,1.7,20.6c1.7,5.6,5.2,10.6,6.1,16.5
		c0.9,4.5,0.9,9.2-0.2,13.6c-3.4-4.6-6.3-9.9-11.2-13.2c1.4,10,3.1,20.3,0.6,30.3c-1.3,5-3,10-5.8,14.5
		c-6.1-11.5-18.2-18.1-24.3-29.5c-2.1-3.7-3.1-7.9-4.1-11.9c-1.1,4.1-1.1,8.5-1.4,12.7c-9-8.1-14.3-19.5-16.8-31.1
		c-1.8-7.3-2.5-14.9-3.5-22.3c-0.8-6.2-3.5-11.8-4.7-17.9c-1.3,1.1-2.7,2.3-4,3.4c0-1.9,0.3-3.8,0.8-5.7c2.5-8.2,3.7-17.3,9.5-24
		c0.2,5,0.2,10.6,4,14.4c0.8-0.2,2.3-0.5,3.1-0.6c2.1,4.3,4.3,8.6,5.9,13c1.8-1,3.7-2,5.5-3.1c2,6,3.9,12,6,18
		c0.3,1.4,1.1,2.6,2.1,3.4c0.2-1.3,0.1-2.6-0.2-3.8l-0.5-0.6c-0.7-1.7-1.5-3.5-1.5-5.4c2.1-8.3,4.3-16.6,9-23.9
		c3.8,7.9,7.8,16.4,15.8,20.8c1.5-4.6-2.1-8.5-3.3-12.7c1.1,0,3.4-0.1,4.6-0.2C474.4,747.6,469.9,740.8,467.6,733.1z"/>
	<path class="st9" d="M432.6,737.7c1.2-0.4,2.4-0.8,3.7-1.2c1.6,3.5,2.5,7.3,2.1,11.2c0,2.2-3.7,3.8-4.7,1.5
		C431.5,745.7,432.5,741.5,432.6,737.7z"/>
	<g>
		<path d="M663.5,359.2c12.8-3.6,26.3-3.2,39.5-2.1c8,2.3,16.7,1.5,24.6,4.5c10.5,3.9,20.7,10.2,27.3,19.4c2.8,7,8.5,12.3,14,17.3
			c9.6,7.1,13.2,18.9,19.5,28.4c3.6,4.7,8.7,8.9,9.3,15.2c1.4,4.1-1.1,7.8-3.1,11.1c-1.1,3.8,2.8,6,5.4,7.7
			c6.4,4.4,9.6,11.8,11.9,18.9c3.2,9.7,8.8,18.7,10.4,29c-0.7,3.2-0.8,6.9-3.4,9.4c-4.2,4.6-11.1,5-16.7,3.5
			c1.4,2.3,2.5,4.7,3.6,7.1c0.2,2.6,0.5,5.3,1,7.9c-0.3,1.3-0.5,2.6-0.8,4c-2,0.5-4.1,0.9-6.1,1.4c1.6,1.8,3.9,4.2,2.1,6.7
			c-3,4.8-8,9.7-6,15.9c1.6,5.9,3.8,12.7,0,18.3c-3.5,3.3-7.7,7.3-12.9,6.7c-2.2-0.1-4.5-0.3-6.7-0.8c-11.8,2.6-23.6,6.7-35.9,4.9
			c-2.3,5.9-0.4,12.4-2.2,18.4c-4.5,18.5-6.3,37.7-4.3,56.6c-14.9-0.4-29.2-5.2-43-10.4c-18.1-9.8-36.5-19.8-56.8-24.3
			c-18.4-4.1-37.6-2-55.8,2c-1.8,0.2-3.7,0.1-5.5-0.3c7.3-7.8,15.8-14.6,21.6-23.6c5.4-7.6,8.9-16.4,10.8-25.4
			c1.9-13.8,2.3-29.8-7.3-41.1c-0.1,8-3.8,15.3-8.9,21.3c0-3,0.1-6.1-0.3-9.1c-2.2,2.1-2.9,5.3-4.5,7.8c-3,5.2-6.1,10.3-9.9,14.8
			c-0.7,0.3-2,1-2.7,1.3c-3.3,7.2-5.3,15-10.4,21.2c-0.4-2.8-1-5.6-1.6-8.4c-2.4,6.3-5.4,12.4-9.4,17.8c-1.9,2.8-3,6-4.2,9.1
			c-3.6-8.5-4.2-17.9-4-27c0.4-14.8,3.3-29.3,6.9-43.6c-3.3,2-4.2,6.2-5.9,9.3c-0.7-12.9,2.1-25.6,5.1-38c2.6-9.9,6.1-19.6,9.6-29.2
			c-1.6,1.7-3.1,3.4-4.8,5.1c0.1-2.7,0.4-5.4,0.6-8.1c1-2.6,1.9-5.3,2.9-7.9c-3.8,3.5-6.8,7.6-10,11.7c-4.5,5.6-10.1,10.5-13.2,17.1
			c-0.2,0.1-0.7,0.2-0.9,0.3c0.6-2.7,1.2-5.4,1.4-8.1c-7,6.7-11.5,15.4-15.7,24.1c-1.9-7,0.4-14.3,1.1-21.3
			c5.4-22.4,14.1-44.2,27.2-63.2c11.1-14.1,23.5-27.2,37.8-37.9c9.8-6.8,20.1-13.1,28.9-21.2c9.4-7.1,18.7-15,30-18.9
			C649.7,361.6,656.7,360.8,663.5,359.2z M682.8,379.4c2.5,1.3,5,2.8,8,2.7c3.6,0.1,8.2,0,10.4,3.5c-7.2-1.6-14.6-1.3-21.9-0.9
			c0.5,1.1,1.1,2.3,1.6,3.4c4.6-0.8,9.1-0.1,13,2.5c0.5-0.4,1.4-1.1,1.8-1.5c2.7,0.7,5.5,0.9,8.3,1.3c2.2,0.9,4.7,2,7.1,1.1
			c2.1,1,3.9,2.8,6.2,3.3c1.7,5.5,2.3,11.2,2.8,16.8c2.4,13.9-1.3,27.8-4.8,41.2c-2,7.3-1,14.9-1.2,22.3c0.5,8-0.9,16-1.7,23.9
			c-1.3,9.9-4.7,19.4-7.9,28.9c-3.4,9.4-8.8,17.9-14.1,26.3c6.4,8.5,16.7,12.6,26.8,14.6c7.1,2.6,14.8,1.4,22,3.5
			c7,1.6,12.9,6.1,19.8,8.1c4.1,1.7,8.6,1.4,13,1.5c5.2,0.2,10.2,2.8,15.5,2c3.8-1,6.5-4.2,7.5-7.9c-0.9-4.6-1.9-9.2-3.6-13.5
			c-1.7-4.3,2.4-7.8,4.5-11.2c1.8-2,3-6.6-0.7-7.2c-6.1-1.3-13.6-3-19,1c0.1-0.7,0.2-2.2,0.2-3c0.8-0.9,1.7-1.7,2.5-2.5
			c8.3,0.9,15.9-3.6,24.2-2.3c0.8-6.6-2.3-13.2-7.4-17.3c-3.7-3.1-9-0.6-13.1-2.4c-1.9-0.8-3.7-1.9-5.5-2.9c-3.1,3.4-5.3,8-9.9,9.7
			c4.2-7.6,9.4-14.7,12.6-22.8c0.5-2.1,2.8-2.1,4.6-2.5c-2.3,3-5,6.3-4.7,10.3c0.7,2.7,3.2,4.6,5.7,5.6c4.2,1.1,5.6-5.6,9.8-4.4
			c4,1.3,6.5,4.8,9.3,7.7c5.6,1.1,12.2-1.3,13.6-7.4c2.4-6.6-3.1-12.2-5.2-18.1c-2-6-4.3-11.9-6.7-17.8c-2.5-7.1-8.1-13-15.2-15.8
			c-1.9,3-2.9,6.5-5.2,9.3c-0.5-0.6-1.6-1.8-2.1-2.4c-0.7,0-2.2-0.1-2.9-0.1c-0.1,2-0.2,4.1-0.3,6.1c-3.3-1.7-6.2-4.2-9.7-5.5
			c0,0.9-0.1,2.8-0.1,3.7c1.8,1.3,3.7,2.6,5.6,3.8c0,0.8,0.1,2.4,0.1,3.3c-5.5,0.8-7.3-5-10.9-7.7c-0.1-1.2-0.2-2.4-0.3-3.6
			c-0.7,0-2.2-0.1-2.9-0.2c-0.4-1.3-0.7-2.6-1.1-4c1.2-0.8,2.5-1.7,3.7-2.5c0.3,0.6,0.8,1.7,1.1,2.3c2.3-2.3,4.4-5,7.3-6.6
			c-0.1-2.1-1.3-3.8-2.6-5.3c3.5-1.1,6.7-3,10.2-3.9c4.1,0,8,1.1,12.1,1.4c0.6-2.5,1.9-5.1,0.9-7.6c-1.5-4.7-5.4-8.1-9.2-10.9
			c-1.7-1.1-2.2-3.1-2.8-4.9c-1.8-5.8-5.1-11-8.4-16c-5-6.5-10.8-13.5-19.4-15c-5.5-0.6-11.1,0.1-16.6-0.8c-1.4-2.5-2-5.7-4.6-7.3
			c-3.8-2.3-7.5-4.7-11.5-6.5c-1.6-0.6-3.7-1.4-5.3-0.3c0.3,2.4,3.3,3.6,4.8,5.4c4.6,2.8,11.8,3.4,13.3,9.7
			c-0.6,0.2-1.7,0.5-2.3,0.7c-0.5-0.3-1.5-0.8-2.1-1c-2.2,0.4-4.5,0.7-6.8,0.9c-2.9-1.8-6.3-3.2-8.5-6c-3.8-4.6-8.9-8.7-15-9.4
			c-3-0.6-5.6-3.7-8.9-2.4C688.1,377.3,684.6,376.8,682.8,379.4z M657.3,387.5c1.9,1.3,3.8,2.8,6.1,3.3c3.6,0.8,7.3-0.8,11,0.1
			c2.4,0.5,5.1,1,7-0.9c-1.2-0.4-2.5-0.8-3.8-1.2c-0.8-3.8-5.1-1.4-7.7-2.1C665.8,388.7,661.5,387.9,657.3,387.5z M605.7,393.7
			c-12,8.1-24.7,15.6-34.7,26.3c-7.8,8.5-16.2,16.5-23.2,25.7c-8,10.8-13,23.4-16.5,36.3c0.2,0.5,0.6,1.5,0.8,2c1-0.1,2-0.2,3-0.3
			c20.5-33.1,45.7-63.5,76-88c1.4-1.2,3.1-2.1,4.8-2.8c-10.5,9.8-21.6,19-31.4,29.5c-13.6,14.4-26.2,29.7-37,46.4
			c-2.5,3.5-4.9,7.1-6.3,11.2c0.9,0.1,1.9,0.2,2.8,0.2c1-1.2,2.1-2.3,3.2-3.4c0.4,0.6,1.2,1.8,1.6,2.4c5-2.4,9-6.5,11.9-11.3
			c0.7,1.3,1.3,2.5,2,3.8c5.6-4.5,9.5-10.7,13.1-16.8c0.1,0.9,0.2,2.8,0.3,3.7c6.9-5.5,11.7-13,16.2-20.5c1.2-2.5,1.8-5.3,2.6-8
			c0.5,0.4,1.6,1.2,2.1,1.6c2.1-4.1,5-7.7,8.2-10.9c1.9-3.3,3-7.1,5.1-10.4c2.7-7,9.1-11.1,14-16.5c0.2-0.8,0.6-2.5,0.8-3.3
			c-1.2-1.2-2.3-2.7-4.2-2.4C615.2,388.4,610,390.5,605.7,393.7z M613.3,409.3c-7.4,12.6-10.9,27-15,40.8
			c-8.1,27.1-15.2,54.5-23.8,81.4c-0.5,1.8-1.8,3.6-1,5.5c-0.8,0.6-1.2,2.7-2.4,2.3c0.1-2.2,1.7-4.1,2-6.3
			c6.8-27.1,14.7-54,21.7-81.1c1-4.5,2.6-8.9,3-13.6c-8.8,8.8-15.5,19.5-24.4,28.4c-5.8,5.4-10.7,12.5-12.1,20.4
			c5.8-3.1,9.6-9.1,16-11c-3.4,3.8-7,7.6-9.4,12.2c-6.3,12-13.6,23.7-16.7,37c0.5,0.6,1.5,1.8,2,2.4c-0.8,1.9-1.5,3.8-2.1,5.8
			c8-1.5,9.8-10.9,15.7-15.3c-1.7,3.1-3,6.4-2.3,10c-3.4,7-5,14.6-5.7,22.3c1.3-0.6,2.6-1.1,3.8-1.7c-0.8,4.5-1.6,9.2-0.4,13.7
			c3-1.4,6.3-2.8,8.4-5.5c1.5-2,2.8-4.3,4.4-6.2c-0.4,3.2-1.9,6.2-2.8,9.3c2.6,0.9,4-1.8,5.7-3.3c0.6,0.1,1.9,0.3,2.5,0.4
			c5-4.5,6-11.7,8.3-17.7c0.3-3.8,0.3-7.7,1.6-11.4c1.7,4.3,2.4,9,3.3,13.5c1.9-4.2,4.1-8.3,7.6-11.5c1.6-3.7,2.8-7.7,5.8-10.6
			c-2.1-14-5.9-28.4-2.8-42.5c0.7,3.1,1.4,6.1,1.9,9.2c1,4.4,2,8.9,3.9,13c3,0.2,2.1-4.1,3-6c0.1-5.2,2.2-9.9,6-13.4
			c-1.2-8.3-2.9-16.8-1.7-25.2c1.3,5,3,10,6.1,14.3c1-4.6,1.1-9.3,2-13.9c1-6.8-1.5-13.3-2.4-20c-1.9-10.7-4.7-21.5-2.8-32.4
			C616.9,403.6,615,406.6,613.3,409.3z M771.5,464.1c4.1,0.4,8.3,0,11.9-2.3c-0.3-2.8-0.8-5.6-1.6-8.3
			C777,455.2,772.9,459.2,771.5,464.1z M608.5,559.2c2.4,14.5,1.2,30-5,43.5c-5.5,11-13.4,20.7-22.4,29c10.9-1.7,21.8-3.4,32.9-3
			c19.1-0.2,37.5,6.2,54.4,14.4c6.4,3.1,12.6,6.7,19.3,9.3c-3.4-4-6.6-8.1-8.9-12.9c-2.4-5.1-6.7-8.9-10.7-12.8
			c-3.8-3.6-3.2-9.5-6.7-13.3c-2.2-2.3-4.3-4.8-5.6-7.8c-1.5-3.8-5.4-5.6-8.2-8.3c-0.2-3.3-1.5-6.3-3.9-8.6
			c-3.1-2.9-3.2-7.3-4.2-11.2c-4.4-1.4-8.8-2.8-12.9-5C619.8,569.4,615,563.2,608.5,559.2z M649.9,574.4c-1.9,2-4.3,3.9-5,6.7
			c0.7,2.1,1.7,4,2.7,6.1c3.4-3.2,7.1-6.8,12-6.9c-3.8,2.7-8.3,5.1-10.5,9.4c1.9,2.7,3.4,5.8,6,8c2.6-2.3,4.5-5.4,7.2-7.6
			c4.1-3.8,9.9-4.9,15.2-6.1c2.8-0.3,6.3-0.3,7.9-3c1.5-3.2,1.3-8.6-2.9-9.4c-4.8-0.1-9.4,1.3-14,2.5c3-3.3,7.6-3.9,11.6-5.5
			c-0.2-2.8-1.4-6.2-4.9-5.9C665.6,562.8,656.5,567.8,649.9,574.4z M689.9,576.3c-0.3,3.7-1.3,7.4-1.2,11.1c0.6,3.5,1.5,7,3.1,10.2
			c2.3,3.6,6.3,5.9,7.8,10c2.1,5.5,4.3,11,7,16.3c2.1,4.4,6.8,6.9,8.7,11.5c1.9,3.7,2.3,7.9,2.2,12c4.2,3.4,8.4,6.7,12.1,10.6
			c-0.4-10.4,0.9-20.9-0.2-31.3c-1.8-7.6-6.5-14.1-10.1-20.9c-3.1-5.9-4-12.7-4.1-19.3C707.2,581.9,698.2,580,689.9,576.3z
			 M669.4,593c-0.1,2.6-0.5,5.5,0.9,7.8c3.3,5.5,5.8,11.5,10.5,16c-3.6,0.7-7.2-0.1-10.8-0.4c0.2,0.6,0.6,1.8,0.7,2.3
			c4.4,2.5,10.1,1.8,14.6,4.4c2.3,1.8,3.6,4.6,5.4,6.9c1.9,2.8,4.6,4.9,6.7,7.6c-0.9,0.9-1.9,1.8-2.9,2.7c-3.5-1.4-7-2.6-10.7-3.2
			c0.2,0.8,0.6,2.3,0.8,3.1c6.5,4.5,15.6,3.6,21.6,9.1c3.3,2.6,4.3,6.9,4.4,10.9c3.2-0.4,6.3,0,9.4,0.4c-0.7-2.2-2.7-3.1-4.4-4.2
			c0-1.5,0-3,0-4.4c-0.7,0.1-2.1,0.2-2.8,0.2c-3.8-3-6.2-7.7-10.7-10c1.6-4.8,2.7-9.8,2.2-14.9c-3.6,0.9-2.1,6.6-5.9,6.7
			c-4.7-3.6-7.8-8.8-10.3-14.1c-0.1-1.6-0.2-3.3-0.3-4.9c0.4-0.6,1.2-1.8,1.6-2.4c0.5-1.4,0.9-2.8,1.2-4.3c-3.5,0.9-4.7,7.1-8.8,5.3
			C675,608.8,675.2,598.7,669.4,593z"/>
	</g>
	<g>
		<path d="M460.4,402.9c2.4-6.6,4.2-13.4,6.9-20c1.4,7.3,2.6,14.6,4.2,21.9c6-5,11.9-10.1,18.5-14.3c-5.1,11.2-10.2,22.4-14.9,33.8
			c1.1-0.1,3.2-0.3,4.3-0.3c-0.2,0.7-0.6,2-0.8,2.7c-0.2,0.7-0.7,2.2-0.9,2.9c-10.5,0-21,0-31.5,0c0,2.4,0,4.8,0,7.2
			c9.5,0,18.9-0.1,28.4,0.1c-0.2,0.4-0.5,1.2-0.6,1.6c-0.5,1.2-1,2.4-1.8,3.4c-3,0.3-6,0.2-9,0.2c2.5,1.4,5,2.9,7.4,4.6
			c0.3-0.7,0.6-1.5,1-2.2c-0.5,2.7-1.4,5.4-2.2,8.1c-1.1-0.9-2.3-1.7-3.4-2.6c-3.1,14.4-5.8,29-5.7,43.7c0.3,0.3,0.9,0.8,1.2,1.1
			c7.4,6.8,14,14.9,17.3,24.5c3.3,8.9,3.4,18.5,3.1,27.9c-1.3-0.6-2.7-1.1-4-1.7c1.6,2.6,3.3,5.2,4.5,8c1.9,4.4,1.4,9.4,2,14.1
			c0.7,4.4,0.1,8.9,0,13.3c0.5,7.8,0.6,15.5,1,23.3c0.4,0.4,1.3,1.2,1.8,1.6c0,2.8,0,5.6,0.1,8.4c0.1,5.9-0.3,11.8-1.2,17.6
			c-2-1.6-4.1-3.2-6.3-4.4c0.2,4.4,5.5,6.8,4.4,11.4c-0.5,8.9,1,17.8,0.6,26.7c0.3,18.3,1.8,36.5,5.3,54.5c1,5.6,2.9,11,5.3,16.1
			c-2.3-0.3-4.5-0.6-6.8-1.1c1.7,2.4,5.1,4,5.2,7.3c0.7,6.8,1.9,13.5,2.6,20.3c-1.1,1.2-2.1,2.4-3.2,3.6c1.6,1.1,3.2,2.2,4.7,3.4
			c-1.1,5.5-0.6,11.3-0.4,16.9c0.9,6,3,11.7,5.5,17.2c-1.7-0.3-3.3-0.7-4.9-1c-2.6-3.4-4.8-7.1-7.8-10.2c-0.2,0.3-0.6,0.7-0.8,1
			c1.3,5.7,5.5,10.3,6.8,16c3.5,11.6,1.2,23.7-0.8,35.4c-3-3-5.1-6.7-7.6-10.1c-0.7,7.2-0.3,14.9-4,21.4c-3.4,6.3-5.4,13.3-5.1,20.5
			c-7.4-5.3-9.5-14.8-15.9-20.8c-4.4-4.3-8.7-8.6-12.5-13.5c0.1,3.9-0.7,7.8-1.7,11.6c-1.1-1.8-1.7-3.9-2.5-5.9
			c-1.9-4.8-5.7-8.4-8.3-12.7c-8.5-12.3-15-26.2-17.1-41c-1-5.9-1.9-11.9-3-17.8c-2.1,2.7-4.3,7.6-8.3,6.7
			c2.2-8.1,0.9-16.4-0.7-24.5c-0.6-2.3-1.5-4.4-2.6-6.5c-0.9,4.8-1.5,10.1-5.3,13.6c-0.2-5.4,0.5-11.1-2.5-15.9
			c-1,1.6-1.4,3.5-1.9,5.3c-1.7,13.7,0.7,29.2-8.1,41c-0.9-2.9-2-5.8-3.7-8.3c-0.3,6.6,1.1,14.2-3.3,19.8c-3.2,3.9-4.9,8.8-6.7,13.5
			c-0.9-2-1.8-3.9-2.9-5.8c-3.8,10.7-9.5,21.2-18.7,28.2c1.6-5.4,4.1-10.5,4.9-16.2c0.6-12-2.2-23.9-4.3-35.6
			c-4.4-31.6-5.6-63.6-4.2-95.5c2.1-21.4,5.8-42.6,11.4-63.3c0.4-1.5,0.7-3,1.1-4.5c9.7-34.5,23.4-67.7,38.9-99.9
			c14-29.4,29.7-57.8,44.7-86.7c-1.4,0-2.8,0-4.2,0c0-5.8,0.2-11.5-0.2-17.3c1.7,0,3.4,0,5.1-0.1c2.5-5.2,4.5-10.6,7.1-15.8
			c1.5,1,3,2.1,4.5,3.2C458.5,409.1,459.6,406.1,460.4,402.9z M466.1,401.9c-1.8,4.7-3.2,9.5-4.4,14.3c2.1,1.9,4.1,4.7,6.9,5.3
			C467.6,415.1,466.6,408.5,466.1,401.9z M472.1,410.2c0.4,1.9,0.9,3.8,1.3,5.8c1.8-3.9,3.9-7.7,5.9-11.6
			C477,406.4,474.6,408.3,472.1,410.2z M454.7,417c-1,2.6-1.9,5.1-2.8,7.7c4,0,7.9,0,11.9,0C460.8,422.1,457.8,419.4,454.7,417z
			 M449.8,442.1c-8.5,14.1-16.1,28.7-23.8,43.2c-6.9,14-14.5,27.7-20.5,42.1c-2.1,5.9-5.2,11.3-7.8,17c-9.3,20.3-18.1,40.9-25,62.2
			c-5,14.9-9.2,30.1-12.3,45.5c-3.4,16.1-6,32.3-6.6,48.7c-2.4,21.7-1.4,43.8,1.3,65.4c1.2,15.1,5.1,29.8,7,44.8
			c0.5,3.5,0,7.1,1.3,10.5c4-6.7,6.1-14.3,8.2-21.7c1.4,2.7,2.7,5.4,4.1,8.1c6.1-10.1,0.3-21.9,1.8-32.8c0.6-3,0.8-6,1.3-9
			c3.7,4,4.7,9.9,9.6,13c0.2-10.8,0-21.7,2.6-32.3c0.5-2.4,1.8-4.5,3.9-5.9c2.2,0.7,3.3,2.9,5.1,4.2c3.4-9.6,1.5-19.9,1.8-29.8
			c-0.7-8.2-1.4-16.3-2.9-24.4c3.5-2.8,6-6.8,7.3-11.1c-3.2,1.9-6.2,4.1-9.4,6c-0.7-12-5.2-23.2-8.6-34.6c3.8,3.8,6.8,8.4,8.9,13.4
			c0.7-6.5,2.1-12.8,2.4-19.3c-0.6-3.7-1.8-7.3-2.7-11c-1.8-9.6-3.8-19.2-3.8-29c3.1,8.6,4.3,17.8,8.2,26.1c2-6.5,2.1-13.4,4.2-19.8
			c2.1-2.1,4.9-3.5,6.7-6c-1.5,0.4-4.4,1.3-5.9,1.7c1.4-13.9-0.6-27.7-3.1-41.3c3.4,2.3,4.7,6.2,6.1,9.9c3.5-7.5,4.5-15.9,5.8-24
			c0.5-4.2,1.4-8.5,1.4-12.8c-3.3,1.2-5.6,4-9,4.8c2.9-6.4,7-12.3,8.8-19.1c1.1-6.8-0.6-14.3,3.3-20.5c0.2,2.6,0.5,5.2,1.6,7.6
			c2.4-5.9,5.8-11.2,9.1-16.6c5.3-18.8,13.2-37.1,24.5-53.1C453.1,442.1,451.5,442.1,449.8,442.1z M457.8,445c-1,3.7-2,7.5-2.7,11.3
			c-4.1,17-7.8,34-11.4,51.1c-2.7,14.8-5.9,29.5-7.4,44.5c-2.4,16.9-4,34-4.4,51.1c-1,8.2-0.6,16.4-0.7,24.6
			c-0.3,25.6,1.5,51.2,4.6,76.5c3.2,22.6,7.1,45.4,14.6,67c0,1.9,0.7,3.7,1.5,5.4c-0.4,0.3-1.1,0.8-1.4,1c-2-6-3.9-12-6-18l0.1,0
			c-3.1-9.7-5.4-19.6-7.3-29.6c-0.5-2.2-0.8-4.5-1.2-6.7c-1.2-7.2-2.5-14.4-3.3-21.7c-0.6-15.5-3.2-30.7-3.4-46.2
			c0.1-7-0.9-14-0.3-21c0.8-10.4-0.7-20.8-0.1-31.3c0.5-13.1,2.2-26,3.1-39.1c0.3-6,1.9-11.8,1.6-17.8c0.8-7.4,2.3-14.7,3.2-22.1
			c1.9-10.1,4.1-20.1,6.5-30c-3.1,1.4-6.8,2.3-9,5.1c-7.8,8.6-10.9,20-13.7,31c5.5-4.3,9.7-10.4,15.9-13.9
			c-2.7,7.1-9.3,11.8-12.2,18.8c-2.2,6.6-3.9,13.4-5,20.2c-3,15.1-5.2,30.3-7.7,45.5c5.2-2.8,10-6.2,15.6-8.1
			c-4.8,6.2-10.2,11.9-14.7,18.4c-3,4-2.5,9.3-3.4,13.9c-1.7,15.8-4.4,31.5-4.8,47.4c5.8-5.2,10.4-11.7,16.9-16.1
			c-4,7.9-8.4,15.7-11.1,24.2c-1.6,5.4-5.3,10.3-4.7,16.2c0.1,7,0.3,14.1,2.4,20.9c2.4-3.2,5-6.3,8.5-8.4
			c-1.3,6.6-7.2,11.7-6.7,18.6c0.3,9.3,1.3,18.6,3.2,27.8c0.2,1.3,0.4,2.6,0.6,3.9c0.8,0.1,2.3,0.3,3,0.3c-0.5,1.8-0.8,3.7-0.8,5.7
			c1.4-1.1,2.7-2.3,4-3.4c1.1,6.1,3.8,11.7,4.7,17.9c1,7.5,1.7,15,3.5,22.3c2.5,11.7,7.8,23.1,16.8,31.1c0.3-4.3,0.4-8.6,1.4-12.7
			c1,4.1,2,8.3,4.1,11.9c6.1,11.4,18.2,18,24.3,29.5c2.8-4.4,4.4-9.4,5.8-14.5c2.5-10,0.8-20.3-0.6-30.3c4.9,3.3,7.8,8.5,11.2,13.2
			c1.1-4.5,1.1-9.1,0.2-13.6c-0.9-5.9-4.3-10.9-6.1-16.5c-2.7-6.6-1.8-13.7-1.7-20.6c2.3,2.1,4.7,4.1,7.6,5.2c0-4.6,0.3-9.3-0.1-14
			c-0.9-1.9-2.3-3.5-3.6-5.1c1.2-3.1,2.9-6.1,3.4-9.4c-0.6-5.7-2.4-11.2-4.8-16.4c-0.7-3.5-3.2-6-5.3-8.7
			c-5.1-6.4-10.6-13.4-11.2-21.9c4,5.8,8.5,11.5,14.4,15.6c-1.5-14.3-3.5-28.6-4-43c-0.3-2.2,0-5-2-6.5c-6.2-6.3-13.1-14-11.9-23.5
			c3.2,5.9,7.3,11.6,13.1,15.3c-0.1-9.7-0.4-19.4,0.3-29.1c-3.7-5.1-7.5-10.1-10-16c-5.8-9.5-13-18.1-20.8-25.9
			c8.6,1.7,15,8,20.4,14.4c2.9,4.3,7.3,7.3,11.5,10.3c1.1-5.3,0.4-10.8,0.6-16.2c-3.5-6.4-6.3-13-8.9-19.8c1.8,1.5,3.7,3,5.6,4.4
			c1-11-1.4-22-1-33c0.1-1.8,0-3.6-1-5.2c-5-9.3-11.4-17.7-16.1-27.2c4.5,5.2,10.6,8.4,16.1,12.5c0.3-15.5-6.5-31-18.9-40.5
			c-1.2-5.1-0.2-10.3-0.1-15.4c0.5-9.4,2.4-18.5,3.8-27.8c0.5-1.9,0.9-3.8,1.3-5.7C460.3,446.5,459.1,445.8,457.8,445z M442.6,472.7
			c-2,6.1-4.4,12.1-5.3,18.5c2.1-0.9,4.3-1.8,6.5-2.6c2.6-11.9,6.2-23.6,8.7-35.6C448,459,445.2,465.9,442.6,472.7z"/>
	</g>
	<path d="M790.4,496.8c3.8-3.6,8.1,0.2,11.6,2.3c0,0.8-0.1,2.5-0.1,3.3C798.5,499.8,794.6,497.8,790.4,496.8z"/>
	<path d="M762.7,502.6c2.8-2.1,5.5-4.3,8.3-6.5c-0.1,0.7-0.2,2.1-0.3,2.8c-3.6,3.3-6.5,7.2-10.1,10.5c-3.5,3.3-4.5,8.1-6.9,12.1
		c-3,3-6.3,5.8-8.7,9.4c-3.8-3.7-8.7-6.1-11.8-10.4c-0.1-1.9-0.3-3.8-0.4-5.7c-0.9-1.4-1.7-2.7-2.5-4.1c5,0.6,10.2,2.3,15.1,0.4
		C751.7,509.3,756,503.5,762.7,502.6z"/>
	<path d="M766.4,533c0.9,0,2.7,0.1,3.7,0.1c-1.9,3.9-1.4,9.6-5.8,11.7C763.8,540.8,764.1,536.5,766.4,533z"/>
	<g>
		<g>
			<path class="st10" d="M737.5,392.4c5.5,0.9,11.1,0.1,16.6,0.8c8.5,1.5,14.4,8.5,19.4,15c3.2,5.1,6.6,10.2,8.4,16
				c0.6,1.8,1.1,3.8,2.8,4.9c3.8,2.9,7.7,6.2,9.2,10.9c1.1,2.5-0.3,5.2-0.9,7.6c-4.1-0.2-8-1.4-12.1-1.4c-3.5,0.9-6.7,2.9-10.2,3.9
				c1.4,1.5,2.6,3.2,2.6,5.3c-2.9,1.6-5,4.3-7.3,6.6c-0.3-0.6-0.8-1.7-1.1-2.3c-1.2,0.9-2.5,1.7-3.7,2.5c0.4,1.3,0.7,2.6,1.1,4
				c0.7,0,2.2,0.1,2.9,0.2c0.1,1.2,0.2,2.4,0.3,3.6c3.6,2.7,5.5,8.5,10.9,7.7c0-0.8-0.1-2.4-0.1-3.3c-1.9-1.3-3.7-2.5-5.6-3.8
				c0-0.9,0.1-2.8,0.1-3.7c3.5,1.3,6.4,3.7,9.7,5.5c0.1-2,0.2-4.1,0.3-6.1c0.7,0,2.2,0.1,2.9,0.1c0.5,0.6,1.6,1.8,2.1,2.4
				c2.3-2.8,3.3-6.3,5.2-9.3c7,2.8,12.6,8.7,15.2,15.8c2.4,5.9,4.7,11.8,6.7,17.8c2,5.9,7.5,11.4,5.2,18.1c-1.4,6-8,8.4-13.6,7.4
				c-2.8-2.9-5.4-6.5-9.3-7.7c-4.2-1.2-5.6,5.5-9.8,4.4c-2.5-1-5-2.9-5.7-5.6c-0.3-4,2.4-7.3,4.7-10.3c-1.7,0.4-4.1,0.4-4.6,2.5
				c-3.1,8.2-8.4,15.2-12.6,22.8c4.6-1.7,6.8-6.3,9.9-9.7c1.8,1,3.6,2.1,5.5,2.9c4.2,1.8,9.4-0.7,13.1,2.4
				c5.1,4.1,8.2,10.7,7.4,17.3c-8.3-1.3-15.9,3.2-24.2,2.3c-0.8,0.8-1.7,1.7-2.5,2.5c-0.1,0.7-0.2,2.2-0.2,3c5.4-4,12.9-2.3,19-1
				c3.7,0.6,2.5,5.2,0.7,7.2c-2.1,3.3-6.2,6.9-4.5,11.2c1.7,4.4,2.7,8.9,3.6,13.5c-1,3.7-3.7,7-7.5,7.9c-5.3,0.8-10.3-1.8-15.5-2
				c-4.4-0.2-8.9,0.2-13-1.5c-6.9-2-12.7-6.5-19.8-8.1c-7.2-2.1-14.9-1-22-3.5c-10.1-2-20.4-6.1-26.8-14.6
				c5.3-8.4,10.6-16.9,14.1-26.3c3.2-9.5,6.5-18.9,7.9-28.9c0.8-8,2.2-15.9,1.7-23.9c0.2-7.4-0.8-15,1.2-22.3
				c3.5-13.4,7.2-27.3,4.8-41.2c-0.5-5.7-1.1-11.4-2.8-16.8c2-0.2,3.9-0.5,5.9-0.7c2.3-0.2,4.5-0.5,6.8-0.9c0.5,0.3,1.6,0.8,2.1,1
				c0.6-0.2,1.7-0.5,2.3-0.7C735.4,393.1,736.4,392.8,737.5,392.4z M790.4,496.8c4.2,1,8.1,2.9,11.5,5.6c0-0.8,0.1-2.5,0.1-3.3
				C798.6,497,794.2,493.2,790.4,496.8z M762.7,502.6c-6.6,0.9-10.9,6.7-17.2,8.5c-4.9,1.9-10.1,0.2-15.1-0.4
				c0.8,1.4,1.7,2.7,2.5,4.1c0.1,1.9,0.3,3.8,0.4,5.7c3.1,4.3,8,6.7,11.8,10.4c2.4-3.6,5.7-6.4,8.7-9.4c2.4-3.9,3.4-8.8,6.9-12.1
				c3.5-3.3,6.5-7.3,10.1-10.5c0.1-0.7,0.2-2.1,0.3-2.8C768.2,498.3,765.5,500.5,762.7,502.6z M766.4,533c-2.4,3.5-2.6,7.7-2.2,11.8
				c4.4-2.1,4-7.8,5.8-11.7C769.2,533.1,767.3,533.1,766.4,533z"/>
		</g>
		<path class="st10" d="M771.5,464.1c1.4-4.9,5.6-8.9,10.3-10.5c0.8,2.7,1.2,5.5,1.6,8.3C779.8,464.1,775.6,464.5,771.5,464.1z"/>
		<path class="st10" d="M430.6,681.1c-3.7-44.9-2.8-90.2,3.1-134.9c0.3,6-1.3,11.8-1.6,17.8c-0.9,13-2.5,26-3.1,39.1
			c-0.6,10.4,0.8,20.8,0.1,31.3c-0.7,7,0.4,14,0.3,21c0.3,15.5,2.8,30.8,3.4,46.2C431.8,694.8,430.7,688,430.6,681.1z"/>
		<path class="st10" d="M608.5,559.2c6.4,4,11.3,10.1,18.1,13.6c4.1,2.2,8.6,3.5,12.9,5c1,3.8,1.1,8.3,4.2,11.2
			c2.4,2.2,3.7,5.3,3.9,8.6c2.8,2.6,6.7,4.5,8.2,8.3c1.3,3,3.4,5.4,5.6,7.8c3.5,3.7,2.9,9.7,6.7,13.3c3.9,3.9,8.3,7.7,10.7,12.8
			c2.2,4.8,5.5,8.9,8.9,12.9c-6.7-2.6-12.9-6.2-19.3-9.3c-17-8.3-35.4-14.7-54.4-14.4c-11-0.3-22,1.3-32.9,3c9-8.3,16.9-18,22.4-29
			C609.8,589.3,611,573.7,608.5,559.2z"/>
		<path class="st10" d="M689.9,576.3c8.3,3.7,17.3,5.7,25.2,10.2c0.1,6.6,1.1,13.4,4.1,19.3c3.7,6.8,8.3,13.3,10.1,20.9
			c1.2,10.4-0.1,20.9,0.2,31.3c-3.7-3.8-7.9-7.2-12.1-10.6c0-4.1-0.3-8.3-2.2-12c-1.8-4.6-6.6-7.1-8.7-11.5
			c-2.6-5.3-4.9-10.8-7-16.3c-1.5-4.1-5.5-6.4-7.8-10c-1.6-3.2-2.5-6.7-3.1-10.2C688.6,583.7,689.7,580,689.9,576.3z"/>
		<path class="st10" d="M451.9,776.6l0.5,0.6c0.3,1.3,0.4,2.5,0.2,3.8c-1.1-0.9-1.9-2.1-2.1-3.4
			C450.9,777.4,451.6,776.9,451.9,776.6z"/>
	</g>
</g>
<text transform="matrix(1 0 0 1 359.5511 230.2825)" class="st8 st16 st17">PLAYER</text>
<text transform="matrix(1 0 0 1 511.5593 1006.2988)" class="st8 st16 st18">YEAR</text>
</svg>
