<?xml version="1.0" encoding="utf-8"?>
<!-- Generator: Adobe Illustrator 25.2.1, SVG Export Plug-In . SVG Version: 6.00 Build 0)  -->
<svg version="1.1" id="Layer_1" xmlns="http://www.w3.org/2000/svg" xmlns:xlink="http://www.w3.org/1999/xlink" x="0px" y="0px"
	 viewBox="0 0 1224 1224" style="enable-background:new 0 0 1224 1224;" xml:space="preserve">
<style type="text/css">
	.st0{display:none;}
	.st1{fill:none;}
	.st2{display:none;fill:#62930C;}
	.st3{fill-rule:evenodd;clip-rule:evenodd;fill:#020201;}
	.st4{fill-rule:evenodd;clip-rule:evenodd;fill:#FFFFFF;}
	.st5{fill-rule:evenodd;clip-rule:evenodd;fill:#D2D0D1;}
	.st6{fill:#FCFEFC;}
	.st7{fill:#050405;}
	.st8{fill:#BC9E5C;}
	.st9{fill:#C4031E;}
	.st10{fill-rule:evenodd;clip-rule:evenodd;fill:#DE7740;}
	.st11{fill-rule:evenodd;clip-rule:evenodd;fill:#954911;}
	.st12{fill-rule:evenodd;clip-rule:evenodd;fill:#231F20;}
	.st13{fill-rule:evenodd;clip-rule:evenodd;fill:url(#SVGID_1_);}
	.st14{fill-rule:evenodd;clip-rule:evenodd;fill:#FBC698;}
	.st15{fill-rule:evenodd;clip-rule:evenodd;fill:url(#SVGID_2_);}
	.st16{fill-rule:evenodd;clip-rule:evenodd;fill:url(#SVGID_3_);}
	.st17{fill-rule:evenodd;clip-rule:evenodd;fill:url(#SVGID_4_);}
	.st18{fill-rule:evenodd;clip-rule:evenodd;fill:url(#SVGID_5_);}
	.st19{fill-rule:evenodd;clip-rule:evenodd;fill:url(#SVGID_6_);}
	.st20{fill-rule:evenodd;clip-rule:evenodd;fill:url(#SVGID_7_);}
	.st21{fill-rule:evenodd;clip-rule:evenodd;fill:url(#SVGID_8_);}
	.st22{fill-rule:evenodd;clip-rule:evenodd;fill:url(#SVGID_9_);}
	.st23{fill-rule:evenodd;clip-rule:evenodd;fill:url(#SVGID_10_);}
	.st24{fill-rule:evenodd;clip-rule:evenodd;fill:url(#SVGID_11_);}
	.st25{fill-rule:evenodd;clip-rule:evenodd;fill:url(#SVGID_12_);}
	.st26{fill-rule:evenodd;clip-rule:evenodd;fill:url(#SVGID_13_);}
	.st27{fill-rule:evenodd;clip-rule:evenodd;fill:url(#SVGID_14_);}
	.st28{fill-rule:evenodd;clip-rule:evenodd;fill:url(#SVGID_15_);}
	.st29{fill-rule:evenodd;clip-rule:evenodd;fill:url(#SVGID_16_);}
	.st30{fill-rule:evenodd;clip-rule:evenodd;fill:url(#SVGID_17_);}
	.st31{fill-rule:evenodd;clip-rule:evenodd;fill:url(#SVGID_18_);}
	.st32{fill:#020201;}
	.st33{fill:#FFFFFF;}
	.st34{fill:#D2D0D1;}
	.st35{fill:#FFFFFF;stroke:#000000;stroke-width:3;stroke-miterlimit:10;}
	.st36{font-family:'Impact';}
	.st37{font-size:221.6187px;}
	.st38{font-size:129.517px;}
</style>
<path class="st0" d="M1193.8,32.8v564l-582.3,583.7L29.1,596.8v-564H1193.8 M1222.7-0.6H0.2v612.7l611.3,612.7l611.3-612.7V-0.6
	L1222.7-0.6z"/>
<polygon class="st1" points="-0.8,-0.3 -0.8,616.1 610.1,1223.7 1225.4,611.7 1225.4,-0.3 "/>
<g>
	<g>
		<path class="st32" d="M255.8,848.7c11.7-7.7,24.7-17.4,42.5-24.5c34.5-13.6,97,4.6,97,4.6s-16.9-2.6-51.7-0.1
			c-34.8,2.5-43.4,19.5-26,38c17.3,18.5,51.2,3.9,105.4-16.8c47.2-18,87.9-4.5,97.6-0.7c1.5,0.5,2.2,0.9,2.2,0.9s-0.8-0.3-2.2-0.9
			c-9.4-3.5-49.6-13.8-124.1,23.3c-36.9,18.4-65.7,25.9-88.9,27.8l23.7,23.7c11.5-0.2,23-1.4,35.3-3.2
			c28.8-4.4,97.4-23.4,149.3-18.5c51.9,4.9,92.9,60.2,127.8,99.6c33,37.2,82.5,14.6,87.7,12.1c0.5-0.3,0.5-0.2,0.5-0.2
			s-0.2,0.1-0.5,0.2c-1.2,0.7-5.8,3.2-22.6,12.7c-23.7,13.4-66.2-0.8-87.8-23.5c-21.7-22.8-56.5-66.5-101.8-72.4
			c-45.3-6-114.6,9.2-117.5,37.2c-2.9,28,55.5,30.4,96.9,25.3c41.4-5,68.2,12.2,68.2,12.2s-31.7-13-94-0.3
			c-23.4,4.7-42.5,4.7-58.7,1.5l67.9,67.8c4.9-0.9,7.7-1.8,7.7-1.8s-2.5,1.1-7,2.6l130.7,130.7l416.3-416.2H196.8L255.8,848.7z"/>
		<path class="st32" d="M1211,20.3H15.2v114.3c10.2-0.9,21.8-2.5,37-4.8c25.1-3.8,53.1-6.3,71.7-2.5c41.1,8.4,75.7,18.4,99.7,18
			c24-0.4,40.3-23.8,74.8-37.4c34.5-13.6,97,4.6,97,4.6s-16.9-2.6-51.7-0.1c-34.8,2.5-43.4,19.5-26,38
			c17.3,18.5,51.2,3.9,105.4-16.8c47.2-18,87.9-4.5,97.6-0.7c1.5,0.5,2.2,0.9,2.2,0.9s-0.8-0.3-2.2-0.9
			c-9.4-3.5-49.6-13.8-124.1,23.3c-86,42.9-128,26.3-158.3,19.1C208,168.3,136.8,138.7,81.9,155c-54.9,16.4-61.6,36.7-52,56.8
			c9.6,20.1,103.7,10.3,123.4,5.1c19.7-5.2,97.4-23.4,128.9-15.2c31.5,8.1,55.5,7.2,84.3,2.9c28.8-4.4,97.4-23.4,149.3-18.5
			c51.9,4.9,92.9,60.2,127.8,99.6c33,37.2,82.4,14.6,87.7,12.1c0.5-0.3,0.5-0.2,0.5-0.2s-0.2,0.1-0.5,0.2
			c-1.2,0.7-5.8,3.2-22.6,12.7c-23.7,13.4-66.2-0.8-87.8-23.5c-21.7-22.8-56.5-66.5-101.8-72.4c-45.3-6-114.6,9.2-117.5,37.2
			c-2.9,28,55.5,30.3,96.9,25.3c41.4-5,68.2,12.2,68.2,12.2s-31.7-13-94-0.3c-62.4,12.7-94.3-9-122.6-31.7
			c-28.3-22.7-92.1-60.2-201.5-7.1c-46.6,22.6-89.8,35.4-133.1,38.1v21.3c87.1-6.2,168.9-58.5,251.8-46.8
			c57.4,8.2,96.3,43.6,132.8,76.9c36.5,33.3,89.5,16.9,89.5,16.9s-36.1,15.9-76.5,5.9c-40.4-10-70.6-54.3-125.2-69.2
			c-54.5-15-63.9-6.1-97.4,2.6c-33.4,8.8-60.5,30.9-46.3,46.6c8.6,9.4,28.5,10.3,45.1,7.6c17.9-2.8,25.3-11.2,40.6-16.7
			c14.9-5.3,35.8-7.9,51.2,2.3c22.7,15,69.9,6.5,69.9,6.5s-23.9,7.2-47.9,7.1c-24.1-0.1-43.1-16.1-52.8,3.3
			c-9.7,19.4,44.8,9.3,44.8,9.3s0,0-4.8,1.5c-4.8,1.5-38.8,11.3-58.8,5.4c-20-5.9-12.8-16.2-55.9,1
			c-62.1,24.7-105.1-29.4-160.3-33.3v68.2H1211V20.3z"/>
		<polygon class="st33" points="196.8,789.7 1029.4,789.7 1161.9,657.1 64.3,657.1 		"/>
		<rect x="15.2" y="575.5" class="st33" width="1195.7" height="14.1"/>
		<rect x="15.2" y="404.6" class="st33" width="1195.7" height="164.4"/>
		<polygon class="st33" points="26.4,619.3 1199.8,619.3 1211,608.1 1211,605 15.2,605 15.2,608.1 		"/>
		<polygon class="st33" points="48.9,641.8 1177.3,641.8 1192.3,626.8 33.9,626.8 		"/>
		<polygon class="st34" points="64.3,657.1 1161.9,657.1 1177.3,641.8 48.9,641.8 		"/>
		<polygon class="st34" points="33.9,626.8 1192.3,626.8 1199.8,619.3 26.4,619.3 		"/>
		<rect x="15.2" y="589.6" class="st34" width="1195.7" height="15.4"/>
		<rect x="15.2" y="569" class="st34" width="1195.7" height="6.5"/>
		<path class="st33" d="M175.5,369.7c43.1-17.1,35.9-6.9,55.9-1c20,5.9,54-3.8,58.8-5.4c4.8-1.5,4.8-1.5,4.8-1.5
			s-54.5,10.1-44.8-9.3c9.7-19.4,28.8-3.4,52.8-3.3c24.1,0.1,47.9-7.1,47.9-7.1s-47.3,8.5-69.9-6.5c-15.4-10.2-36.3-7.6-51.2-2.3
			c-15.3,5.5-22.7,13.8-40.6,16.7c-16.7,2.6-36.5,1.8-45.1-7.6c-14.3-15.7,12.8-37.8,46.3-46.6c33.4-8.8,42.8-17.6,97.4-2.6
			c54.5,15,84.7,59.2,125.2,69.2c40.4,10,76.5-5.9,76.5-5.9s-53,16.4-89.5-16.9c-36.5-33.3-75.5-68.7-132.8-76.9
			c-82.9-11.8-164.7,40.6-251.8,46.8v27C70.4,340.2,113.4,394.4,175.5,369.7z"/>
		<path class="st33" d="M520.6,133c1.4,0.6,2.2,0.9,2.2,0.9S522,133.5,520.6,133z"/>
		<path class="st33" d="M731.2,297.7c0.3-0.1,0.5-0.2,0.5-0.2S731.7,297.4,731.2,297.7z"/>
		<path class="st33" d="M349.9,257.1c28.3,22.7,60.3,44.3,122.6,31.7c62.4-12.7,94,0.3,94,0.3s-26.8-17.3-68.2-12.2
			c-41.4,5.1-99.8,2.7-96.9-25.3c2.9-28,72.2-43.2,117.5-37.2c45.3,6,80.1,49.7,101.8,72.4c21.7,22.7,64.1,36.9,87.8,23.5
			c16.8-9.5,21.4-12,22.6-12.7c-5.2,2.5-54.7,25.2-87.7-12.1c-34.9-39.4-75.9-94.7-127.8-99.6c-51.8-4.9-120.5,14.1-149.3,18.5
			c-28.7,4.3-52.8,5.2-84.3-2.9c-31.5-8.1-109.2,10.1-128.9,15.2c-19.7,5.2-113.9,15-123.4-5.1c-9.6-20.1-2.9-40.4,52-56.8
			c54.9-16.4,126.1,13.2,156.3,20.4c30.3,7.2,72.2,23.8,158.3-19.1c74.5-37.2,114.7-26.8,124.1-23.3c-9.7-3.8-50.4-17.3-97.6,0.7
			c-54.2,20.7-88.1,35.2-105.4,16.8c-17.3-18.5-8.8-35.5,26-38c34.8-2.5,51.7,0.1,51.7,0.1s-62.4-18.2-97-4.6
			c-34.5,13.6-50.7,37-74.8,37.4c-24,0.4-58.6-9.6-99.7-18c-18.6-3.8-46.6-1.4-71.7,2.5c-15.1,2.3-26.7,3.9-37,4.8v153.5
			c43.3-2.7,86.5-15.5,133.1-38.1C257.8,196.9,321.5,234.5,349.9,257.1z"/>
		<path class="st33" d="M520.6,849.3c1.4,0.6,2.2,0.9,2.2,0.9S522,849.8,520.6,849.3z"/>
		<path class="st33" d="M520.6,849.3c-9.7-3.8-50.4-17.3-97.6,0.7c-54.2,20.7-88.1,35.2-105.4,16.8c-17.3-18.5-8.8-35.5,26-38
			c34.8-2.5,51.7,0.1,51.7,0.1s-62.4-18.2-97-4.6c-17.9,7-30.8,16.7-42.5,24.5l51.7,51.7c23.2-1.9,52-9.4,88.9-27.8
			C471,835.4,511.1,845.8,520.6,849.3z"/>
		<path class="st33" d="M731.2,1014c0.3-0.1,0.5-0.2,0.5-0.2S731.7,1013.7,731.2,1014z"/>
		<path class="st33" d="M472.5,1005.1c62.4-12.7,94,0.3,94,0.3s-26.8-17.3-68.2-12.2c-41.4,5.1-99.8,2.7-96.9-25.3
			c2.9-28,72.2-43.2,117.5-37.2c45.3,6,80.1,49.7,101.8,72.4c21.7,22.7,64.1,36.9,87.8,23.5c16.8-9.5,21.4-12,22.6-12.7
			c-5.2,2.5-54.7,25.2-87.7-12.1c-34.9-39.4-75.9-94.7-127.8-99.6c-51.8-4.9-120.5,14.1-149.3,18.5c-12.3,1.9-23.8,3.1-35.3,3.2
			l82.6,82.6C430.1,1009.8,449.1,1009.8,472.5,1005.1z"/>
		<path class="st33" d="M481.7,1074.5l0.7,0.7c4.5-1.5,7-2.6,7-2.6S486.5,1073.5,481.7,1074.5z"/>
	</g>
	<polygon class="st1" points="15.2,608.1 15.2,20.3 1211,20.3 1211,608.1 613.1,1205.9 	"/>
	<path class="st32" d="M1196.5,34.3v563.5l-583.4,583.3L29.7,597.8V34.3H1196.5 M1225.4,0.8H0.8v612.2l612.3,612.2l612.3-612.2V0.8
		L1225.4,0.8z"/>
</g>
<g>
	<g>
		<path class="st6" d="M480.4,473.1c24.7-12.1,52.1-17.9,79.4-19.4c30.2-1.7,60.6,1.6,90,8.5c3.4-2.6,6.5-5.8,10.3-7.6
			c15.8-0.2,31.6,0,47.4-0.1c0,16.7,0,33.5,0,50.2c-11,0-22,0-33.1,0c-25-16.2-53.7-26.6-83.3-30.2c-11.4-1.1-22.9-2-34.3-0.7
			c-10.3,0.5-21.3,2.7-28.9,10.3c-3.6,3.4-6.5,9.1-3.7,13.9c3.5,5.8,10.3,8.1,16.4,9.9c8,1.7,16.2,1.6,24.3,2.2
			c19.6-0.1,39.3,0.1,58.8,1.7c10.9,1.2,21.6,3.4,32.2,5.6c18,3.2,35.1,12.7,46.2,27.3c8.7,11.2,13.6,26.1,10.8,40.3
			c-2.2,12.2-9.6,22.9-18.8,30.8c-8,7-17.4,12.2-27.1,16.4c-17.7,7.4-36.5,12.1-55.5,14.4c-41.5,4.5-83.9-1.3-123.2-15.3
			c-2.2,7.2-4.5,14.6-9.4,20.5c-2.5,3-5.9,5.6-10,5.6c-6.3,0.1-12.6,0-19,0c0-25.6-0.1-51.3,0.1-76.9c7,0.1,14-0.1,21,0.1
			c2.6,1.2,4.2,3.8,6.3,5.6c21.4,20.4,49.8,32.1,78.6,37.3c17.6,3.1,35.7,4.3,53.6,3c15.1-1,30.6-5.5,42.2-15.5
			c6.8-6.7,11.3-16.8,8.7-26.4c-2.8-6.6-8.7-11.2-15.3-13.5c-11-4.1-23-3.9-34.6-4.7c-25-1.1-50,0.3-75.1-0.7
			c-19.4-1.3-38.8-4.4-57.3-10.4c-11.4-3.9-22.5-10.7-28.3-21.6c-4.2-7.6-4.5-16.7-2.5-24.9C452.3,492.8,465.7,480.6,480.4,473.1z"
			/>
		<path class="st6" d="M728.3,580.1c17.8,0,35.5,0,53.3,0c17.6,0,35.1,0,52.7,0c2.3,0,4.5,0,6.8,0c0,23.5,0,46.9,0,70.4
			c-6.2,0-12.5-0.1-18.7,0c-0.5-12.3-2.2-25.5-10-35.6c-5.9-8-15.9-12.1-25.7-12.1c-21.5,0-42.9,0-64.4,0
			C726.9,596.2,727.8,587.9,728.3,580.1z"/>
		<path class="st6" d="M547.6,580.6c26.4-0.1,52.7,0.2,79.1,0c6.9,0.1,14.5,1,20,5.5c4.1,3.3,4.8,9.6,2.2,14.1
			c-3.2,5.8-9.1,9.6-15,12.4c-14.3,6.4-30.6,7.3-45.8,4.5c-1.4-7.5-7-15.1-15.1-15.6c-8.5-0.7-17-0.1-25.4-0.4
			C547.6,594.2,547.6,587.4,547.6,580.6z"/>
		<path class="st6" d="M726.8,650.4c8.1-6.1,13-15.5,15.1-25.3c5.7,0,11.4,0,17.1,0c0.1,31.6,0,63.1,0,94.7c-6,0-11.9,0.1-17.9,0
			c-4.1-12.1-11.2-23.5-21.5-31.2c-5.5-3.9-12.2-6.8-19.1-6.6c-18.7,0.1-37.3,0-56,0c-0.1,11.9,0,23.8,0,35.7
			c0.5,7.8,6.1,14.1,12.2,18.4c11,7.5,24.5,9.9,37.5,11.3c0,5.1,0,10.3,0,15.4c-55.7,0-111.4,0-167.1,0c0-5.1,0-10.3,0-15.4
			c14.4-1.1,28.8-3.3,42.2-8.8c7.9-3.3,15.8-8.5,19.2-16.8c0.4-2.4,0.9-4.8,0.9-7.3c0-17.3,0-34.5,0-51.8c15.9,0.2,31.9-1.4,47.4-5
			c18.5,2.5,37,5.9,55.7,4.3C704.7,660.9,717,658,726.8,650.4z"/>
	</g>
	<g>
		<g>
			<path class="st7" d="M593.8,385.6h29.4c52.7,1.5,105.4,9.4,155.9,24.6c37.6,11.4,74.3,26.7,107.6,47.5
				c27.4,17.2,52.9,38.4,71.5,65c11.7,16.6,20.5,35.3,24.8,55.2c5.1,23.5,3.3,48.3-4.6,71c-10.5,30.3-31,56.1-54.8,77.1
				c-30.1,26.2-65.4,45.7-102.3,60.7c-42.2,17.1-86.8,28.3-131.9,34.5c-53.3,7.4-107.6,7.4-160.9,0.2c-57.9-7.9-115-23.7-167.5-49.4
				c-31.8-15.9-62.1-35.6-86.9-61.2c-19.8-20.5-35.8-45.2-43.1-72.9c-2.3-8.5-3.5-17.2-4.2-26v-13.3c1.4-27.3,11.9-53.6,27.8-75.7
				c14.6-20.3,33.2-37.5,53.4-52.2c30.4-21.9,64.5-38.3,99.7-51.1C467.4,398.3,530.6,387.4,593.8,385.6z M570.6,408.7
				c-21.9,1.7-43.7,4.6-65.2,8.9c-47.2,9.6-93.5,25.6-134.7,50.9c-22.3,13.7-43.1,30.3-59.9,50.5c-12.4,14.9-22.6,32-28.4,50.5
				c-5.7,17.6-7.1,36.6-4.2,54.9c4.6,29.4,20.3,56,40.5,77.5c25.1,26.6,56.4,46.5,89.5,61.7c55.9,25.4,117.1,38,178.2,40.7
				c8.4-0.1,16.9,1.1,25.3,0.3c45.9-0.1,91.8-6.4,136-18.8c37-10.5,73-25.5,105.3-46.6c26.6-17.5,51.1-39.4,67.7-66.9
				c11.6-19.2,19-41.4,19.3-63.9c0.4-17.7-3.5-35.4-10.6-51.6c-8-18.4-20-34.8-33.9-49.2c-22.5-23-49.7-40.9-78.5-55.1
				c-38.9-18.9-80.7-31.2-123.3-38.2C653,407.6,611.6,405.8,570.6,408.7z"/>
		</g>
		<g>
			<path class="st7" d="M486.3,463.7c27.3-11.7,57.2-16.2,86.8-16.7c24.2,0,48.4,2.5,71.9,7.9c6.3,2.1,9-6.9,15-6.4
				c17.8,0,35.7,0,53.5,0c0,2.3,0,4.7,0,7.1c2.3,0,4.6,0,6.9,0c0,20.7,0,41.4,0,62.1c-13,0-26.1,0-39.1,0c-2.6,0.1-4.5-1.9-6.7-3.1
				c-29.9-18.7-65.3-28.5-100.6-28.3c-8.1,0.3-16.2,0.6-24.1,2.7c-5.5,2-11.8,5-13.6,11.1c8.4,3.6,17.6,3.1,26.5,3.9
				c21.3,0.1,42.6-0.1,63.8,2.2c10.9,1,21.6,3.6,32.4,5.7c16.3,3.2,31.7,11.5,43.1,23.6c3.6,3.9,7.6,7.3,10.9,11.5
				c6.3,7.8,10.8,17,12.8,26.8c40.4,0.1,80.8-0.1,121.2,0c-0.1,2.2-0.1,4.3-0.2,6.5c2.4,0.5,4.8,0.7,7.2,0.7c0,27.5,0,54.9,0,82.4
				c-10.5-0.1-21,0.2-31.6-0.2c0.1-2.3,0.1-4.5,0.2-6.8c-2.4,0-4.8,0-7.2,0c1.2-11.2,0-22.9-5-33.1c-2.3-5.8-9.4-7-14.9-7.5
				c-26.7,0-53.3-0.1-80,0c-15.4,20.1-39.8,30.7-63.6,37.2c6.8,2,14,2,21,2.7c13.4,0.6,27.3,0.4,39.9-4.7c8-3.2,15.1-8.9,18.9-16.7
				c2.6-4.8,3.7-10.2,4.7-15.5c9.4,0,18.7,0.1,28.1-0.1c0.1,2.3,0.1,4.6,0.2,7c2.3,0,4.6,0.1,6.9,0.1c0.2,35.5-0.1,71,0.1,106.5
				c-9.3,0.7-18.7,0.4-28,0.2c-1.3-2.2-1.9-4.7-2.7-7c-1.5,0-3,0.1-4.5,0.1c-2.8-8.6-6.5-17.1-12.4-24.1c-4.3-3.9-10-6.5-15.8-6.8
				c-17-0.1-34,0.1-51-0.1c-0.1,9.8-0.3,19.6,0,29.4c2.5,5.8,8.4,9.5,13.9,12.3c9.2,3.4,19,4.4,28.7,5.1c0.2,2-0.1,4,0.6,5.9
				c2,0.9,4.2,1.4,6.4,2c0.1,8.8,0,17.5,0,26.3c-59.8,0-119.5,0-179.3,0c0-2.3-0.1-4.6-0.1-6.9c-2.3,0-4.7-0.1-7-0.1
				c0.1-9.1,0-18.2,0.1-27.3c13.8-0.4,27.7-2.2,40.8-6.6c6.4-2.2,12.9-5,17.6-10.1c2.6-2.8,4.1-6.5,4-10.3c0-17.7,0-35.4,0-53.1
				c-26.7-1-53.2-5.3-78.7-13.4c-1.9-0.6-3.8-1-5.7-1.5c-2.7,7.4-6.2,14.9-12.4,20c-2.8,2.2-6.1,4-9.8,3.9c-8.6,0.1-17.3,0-25.9,0
				c0-2.3-0.1-4.6-0.1-6.9c-2.3,0-4.6,0-7,0c0-29.5,0-59,0-88.6c9.6,0,19.3,0,28.9,0c2.7-0.3,4,2.6,5.8,4.1
				c22.2,22.9,53.3,34.8,84.4,39.5c6.1,1,12.2,1.7,18.4,1.6c-2.2-3.7-6.1-6.1-10.4-6.1c-7.6-0.2-15.1,0-22.6-0.1
				c0-2.3-0.1-4.7-0.1-7c-2.2,0-4.5,0-6.7,0c-0.2-9.5,0.1-18.9-0.2-28.4c-18.6-0.7-37-4.1-54.8-9.3c-11.7-3.4-22.8-9.5-30.9-18.8
				c-7.3-6.4-13.4-14.6-15-24.4c-2.8-14.3,3.1-29,12.5-39.7C462.1,476.2,473.8,468.8,486.3,463.7z M480.4,473.1
				c-14.7,7.6-28.1,19.7-33.1,35.9c-2,8.3-1.7,17.4,2.5,24.9c5.8,10.9,17,17.7,28.3,21.6c18.5,6,37.9,9.1,57.3,10.4
				c25,1,50-0.3,75.1,0.7c11.6,0.8,23.5,0.5,34.6,4.7c6.6,2.3,12.6,6.9,15.3,13.5c2.6,9.6-2,19.6-8.7,26.4
				c-11.6,10-27.1,14.5-42.2,15.5c-17.9,1.3-36,0.2-53.6-3c-28.8-5.2-57.2-16.9-78.6-37.3c-2.1-1.9-3.7-4.4-6.3-5.6
				c-7-0.2-14,0-21-0.1c-0.2,25.7-0.1,51.3-0.1,76.9c6.3,0,12.6,0.1,19,0c4.1,0.1,7.5-2.6,10-5.6c4.9-5.9,7.2-13.3,9.4-20.5
				c39.3,14,81.7,19.8,123.2,15.3c19-2.3,37.8-6.9,55.5-14.4c9.7-4.2,19.1-9.4,27.1-16.4c9.3-7.9,16.7-18.7,18.8-30.8
				c2.8-14.2-2.1-29-10.8-40.3c-11.1-14.6-28.2-24.1-46.2-27.3c-10.7-2.3-21.4-4.5-32.2-5.6c-19.6-1.6-39.2-1.9-58.8-1.7
				c-8.1-0.6-16.3-0.6-24.3-2.2c-6.1-1.8-12.9-4.1-16.4-9.9c-2.8-4.8,0.1-10.5,3.7-13.9c7.5-7.6,18.6-9.8,28.9-10.3
				c11.4-1.3,22.9-0.4,34.3,0.7c29.6,3.5,58.3,13.9,83.3,30.2c11,0,22,0,33.1,0c0-16.7,0-33.5,0-50.2c-15.8,0.1-31.6-0.1-47.4,0.1
				c-3.8,1.8-6.9,5-10.3,7.6c-29.4-6.9-59.8-10.2-90-8.5C532.5,455.1,505.1,460.9,480.4,473.1z M728.3,580.1
				c-0.5,7.8-1.4,16.2-6,22.8c21.5,0,42.9,0,64.4,0c9.8,0,19.8,4.1,25.7,12.1c7.8,10.1,9.5,23.2,10,35.6c6.2-0.1,12.5,0,18.7,0
				c0-23.5,0-46.9,0-70.4c-2.3,0-4.6,0-6.8,0c-17.6,0-35.1,0-52.7,0C763.8,580.1,746,580.1,728.3,580.1z M547.6,580.6
				c0,6.8,0,13.6,0,20.4c8.5,0.3,17-0.4,25.4,0.4c8.1,0.5,13.7,8.1,15.1,15.6c15.2,2.8,31.6,1.9,45.8-4.5c5.9-2.8,11.8-6.5,15-12.4
				c2.6-4.5,1.9-10.7-2.2-14.1c-5.6-4.5-13.1-5.4-20-5.5C600.3,580.7,573.9,580.5,547.6,580.6z M726.8,650.4
				c-9.7,7.5-22.1,10.5-34.1,11.6c-18.7,1.6-37.3-1.8-55.7-4.3c-15.5,3.6-31.5,5.2-47.4,5c0,17.3,0,34.5,0,51.8
				c0,2.4-0.5,4.9-0.9,7.3c-3.4,8.3-11.2,13.5-19.2,16.8c-13.4,5.5-27.9,7.7-42.2,8.8c0,5.1,0,10.3,0,15.4c55.7,0,111.4,0,167.1,0
				c0-5.1,0-10.3,0-15.4c-13-1.4-26.5-3.8-37.5-11.3c-6-4.4-11.7-10.6-12.2-18.4c0-11.9,0-23.8,0-35.7c18.7,0,37.3,0,56,0
				c6.9-0.1,13.5,2.7,19.1,6.6c10.3,7.7,17.4,19.2,21.5,31.2c6,0.1,11.9,0.1,17.9,0c-0.1-31.6,0.1-63.1,0-94.7c-5.7,0-11.4,0-17.1,0
				C739.8,634.9,734.8,644.3,726.8,650.4z"/>
		</g>
	</g>
	<g>
		<g>
			<path class="st8" d="M570.6,408.7c41-2.8,82.4-1.1,123,5.6c42.6,7,84.4,19.3,123.3,38.2c28.8,14.1,56,32.1,78.5,55.1
				c13.9,14.4,25.9,30.8,33.9,49.2c7.1,16.2,11,33.9,10.6,51.6c-0.4,22.6-7.7,44.7-19.3,63.9c-16.6,27.5-41,49.4-67.7,66.9
				c-32.3,21.1-68.3,36.1-105.3,46.6c-44.2,12.4-90.1,18.7-136,18.8c-8.4,0.7-16.9-0.4-25.3-0.3C525,801.6,463.8,789,408,763.5
				c-33-15.2-64.4-35.1-89.5-61.7c-20.2-21.5-35.9-48.1-40.5-77.5c-2.8-18.3-1.4-37.3,4.2-54.9c5.8-18.6,16-35.6,28.4-50.5
				c16.9-20.2,37.6-36.7,59.9-50.5c41.2-25.2,87.5-41.2,134.7-50.9C526.9,413.2,548.7,410.4,570.6,408.7z M586.8,414.7
				c-25.3,1.3-50.6,4.2-75.5,9.5c-44.6,9.4-88.2,25.4-126.2,50.8c-21.3,14.3-40.8,31.6-55.8,52.5c-16,22.3-26.3,49.2-26.2,76.8
				c-0.4,24.5,7.5,48.8,20.3,69.5c15.4,25.1,37.3,45.5,61.5,62c30.3,20.5,64.3,35.1,99.4,45c46.9,13.2,96,18.4,144.6,16.4
				c48.3-2,96.6-11.1,141.6-28.9c33-13.1,64.6-30.9,90.9-55c22.7-20.8,41.4-47,49.3-77c6.9-25.6,4.9-53.4-5.1-77.9
				c-11.1-27.4-30.8-50.6-53.5-69.1c-27.6-22.5-59.8-38.8-93.3-50.6C703.7,419.5,644.9,412.3,586.8,414.7z"/>
		</g>
	</g>
	<g>
		<g>
			<path class="st9" d="M586.8,414.7c58.1-2.4,116.9,4.7,171.9,24c33.5,11.8,65.7,28.1,93.3,50.6c22.7,18.5,42.4,41.7,53.5,69.1
				c10,24.5,12,52.3,5.1,77.9c-7.9,30.1-26.6,56.2-49.3,77c-26.3,24.1-57.8,41.9-90.9,55c-45.1,17.8-93.3,26.9-141.6,28.9
				c-48.6,2-97.7-3.2-144.6-16.4c-35.1-10-69.1-24.6-99.4-45c-24.2-16.5-46.1-36.9-61.5-62c-12.8-20.8-20.7-45-20.3-69.5
				c-0.1-27.6,10.2-54.6,26.2-76.8c15-20.9,34.5-38.2,55.8-52.5c38.1-25.3,81.7-41.4,126.2-50.8C536.1,418.9,561.4,416,586.8,414.7z
				 M486.3,463.7c-12.5,5.1-24.2,12.5-33.1,22.6c-9.4,10.7-15.3,25.4-12.5,39.7c1.6,9.7,7.7,18,15,24.4c8,9.3,19.2,15.4,30.9,18.8
				c17.8,5.2,36.2,8.6,54.8,9.3c0.3,9.5,0,19,0.2,28.4c2.2,0,4.5,0,6.7,0c0.1,2.3,0.1,4.6,0.1,7c7.6,0.1,15.1-0.1,22.6,0.1
				c4.3,0,8.2,2.5,10.4,6.1c-6.2,0.1-12.3-0.6-18.4-1.6c-31-4.7-62.1-16.7-84.4-39.5c-1.8-1.5-3.1-4.4-5.8-4.1c-9.6,0-19.3,0-28.9,0
				c0,29.5,0,59,0,88.6c2.3,0,4.6,0,7,0c0,2.3,0,4.6,0.1,6.9c8.6-0.1,17.3,0.1,25.9,0c3.6,0.1,7-1.7,9.8-3.9
				c6.2-5.1,9.7-12.6,12.4-20c1.9,0.4,3.8,0.9,5.7,1.5c25.4,8.1,52,12.4,78.7,13.4c0,17.7,0,35.4,0,53.1c0.1,3.8-1.4,7.6-4,10.3
				c-4.7,5-11.2,7.8-17.6,10.1c-13.1,4.4-27,6.2-40.8,6.6c0,9.1,0,18.2-0.1,27.3c2.3,0.1,4.6,0.1,7,0.1c0,2.3,0.1,4.6,0.1,6.9
				c59.8,0,119.5,0,179.3,0c0-8.8,0-17.5,0-26.3c-2.2-0.6-4.4-1.1-6.4-2c-0.7-1.9-0.5-4-0.6-5.9c-9.7-0.7-19.6-1.7-28.7-5.1
				c-5.5-2.8-11.3-6.5-13.9-12.3c-0.3-9.8-0.2-19.6,0-29.4c17,0.1,34,0,51,0.1c5.8,0.4,11.6,2.9,15.8,6.8c5.9,7,9.6,15.5,12.4,24.1
				c1.5,0,3-0.1,4.5-0.1c0.8,2.4,1.5,4.8,2.7,7c9.3,0.1,18.7,0.5,28-0.2c-0.1-35.5,0.1-71-0.1-106.5c-2.3,0-4.6-0.1-6.9-0.1
				c-0.1-2.3-0.1-4.6-0.2-7c-9.4,0.1-18.7,0-28.1,0.1c-1.1,5.3-2.1,10.7-4.7,15.5c-3.9,7.7-11,13.5-18.9,16.7
				c-12.6,5.1-26.5,5.3-39.9,4.7c-7-0.7-14.2-0.7-21-2.7c23.8-6.5,48.2-17.1,63.6-37.2c26.7-0.1,53.3,0,80,0
				c5.5,0.5,12.6,1.7,14.9,7.5c5,10.2,6.2,21.9,5,33.1c2.4,0,4.8,0,7.2,0c-0.1,2.3-0.1,4.5-0.2,6.8c10.5,0.5,21,0.2,31.6,0.2
				c0-27.5,0-55,0-82.4c-2.4,0-4.8-0.2-7.2-0.7c0.1-2.2,0.1-4.3,0.2-6.5c-40.4-0.1-80.8,0-121.2,0c-2-9.8-6.4-19.1-12.8-26.8
				c-3.3-4.2-7.3-7.6-10.9-11.5c-11.4-12.2-26.8-20.4-43.1-23.6c-10.8-2.1-21.5-4.7-32.4-5.7c-21.2-2.3-42.5-2-63.8-2.2
				c-8.9-0.8-18.2-0.4-26.5-3.9c1.9-6,8.2-9,13.6-11.1c7.8-2.1,16-2.4,24.1-2.7c35.3-0.3,70.6,9.6,100.6,28.3
				c2.1,1.2,4.1,3.2,6.7,3.1c13,0,26.1,0,39.1,0c0-20.7,0-41.4,0-62.1c-2.3,0-4.6,0-6.9,0c0-2.4,0-4.7,0-7.1c-17.8,0-35.7,0-53.5,0
				c-6-0.5-8.8,8.5-15,6.4c-23.6-5.4-47.8-7.9-71.9-7.9C543.5,447.5,513.6,452,486.3,463.7z"/>
		</g>
	</g>
</g>
<text transform="matrix(1 0 0 1 293.6185 295.4918)" class="st35 st36 st37">PLAYER</text>
<text transform="matrix(1 0 0 1 483.1392 973.3183)" class="st35 st36 st38">YEAR</text>
</svg>
