<?xml version="1.0" encoding="utf-8"?>
<!-- Generator: Adobe Illustrator 25.2.1, SVG Export Plug-In . SVG Version: 6.00 Build 0)  -->
<svg version="1.1" id="Layer_1" xmlns="http://www.w3.org/2000/svg" xmlns:xlink="http://www.w3.org/1999/xlink" x="0px" y="0px"
	 viewBox="0 0 4320 2592" style="enable-background:new 0 0 4320 2592;" xml:space="preserve">
<style type="text/css">
	.st0{fill:#4C1412;}
	.st1{fill:#8C241F;}
	.st2{clip-path:url(#SVGID_4_);}
	.st3{clip-path:url(#SVGID_5_);fill:url(#SVGID_6_);}
	.st4{fill:url(#SVGID_7_);}
	.st5{opacity:0.2;}
	.st6{fill:#FFFFFF;}
	.st7{fill:#020000;}
	.st8{fill:#651C15;}
	.st9{fill:#330C0C;}
	.st10{fill:#181500;}
	.st11{fill:#FFF8F3;}
	.st12{fill:#B1BABF;}
	.st13{fill:#D60A0B;}
	.st14{fill:#FF7900;}
	.st15{font-family:'Impact';}
	.st16{font-size:120px;}
	.st17{font-size:143.7894px;}
	.st18{font-size:84.7134px;}
</style>
<g>
	<g>
		<polygon class="st0" points="3763.5,4.5 3763.5,4.5 3049,4.5 2438.1,4.5 2438.1,4.5 1813.3,4.5 1813.3,4.5 1071.2,4.5 429.2,4.5 
			1.9,4.5 1.9,191.7 1.9,500.6 1.9,951.3 1.9,1373.1 1.9,1798.7 1.9,2339.7 1.9,2600.6 429.2,2600.6 1119.2,2600.6 1951.4,2600.6 
			2624.4,2600.6 3159.5,2600.6 3763.5,2600.6 4319.7,2600.6 4319.7,951.3 4319.7,4.5 		"/>
		<g>
			<g>
				<polygon class="st1" points="2555.4,996.7 1813.3,4.5 2438.1,4.5 				"/>
			</g>
			<g>
				<polygon class="st1" points="2555.4,996.7 3049,4.5 3763.5,4.5 				"/>
			</g>
			<g>
				<polygon class="st1" points="2555.4,996.7 4307.6,490.1 4319.7,4.5 				"/>
			</g>
			<g>
				<polygon class="st1" points="2555.4,996.7 4307.6,1323.4 4319.7,951.3 				"/>
			</g>
			<g>
				<polygon class="st1" points="2555.4,996.7 4307.6,2339.7 4307.6,1843.9 				"/>
			</g>
			<g>
				<polygon class="st1" points="2555.4,996.7 3159.5,2600.6 3763.5,2600.6 				"/>
			</g>
			<g>
				<polygon class="st1" points="2555.4,996.7 1951.4,2600.6 2624.4,2600.6 				"/>
			</g>
			<g>
				<polygon class="st1" points="2555.4,996.7 429.2,2600.6 1119.2,2600.6 				"/>
			</g>
			<g>
				<polygon class="st1" points="2555.4,996.7 1.9,1798.6 1.9,2339.7 				"/>
			</g>
			<g>
				<polygon class="st1" points="2555.4,996.7 1.9,951.3 1.9,1373.1 				"/>
			</g>
			<g>
				<polygon class="st1" points="2555.4,996.7 1.9,500.6 1.9,191.7 				"/>
			</g>
			<g>
				<polygon class="st1" points="2555.4,996.7 429.2,4.5 1071.2,4.5 				"/>
			</g>
		</g>
		<g>
			<g>
				<defs>
					<polygon id="SVGID_1_" points="1,1 2,1 1,2 					"/>
				</defs>
				<defs>
					<polygon id="SVGID_3_" points="-1,-1 -2,-1 -1,-2 					"/>
				</defs>
				<clipPath id="SVGID_4_">
					<use xlink:href="#SVGID_1_"  style="overflow:visible;"/>
				</clipPath>
				<clipPath id="SVGID_5_" class="st2">
					<use xlink:href="#SVGID_3_"  style="overflow:visible;"/>
				</clipPath>
				
					<linearGradient id="SVGID_6_" gradientUnits="userSpaceOnUse" x1="1.9" y1="1289.8615" x2="4319.6006" y2="1289.8615" gradientTransform="matrix(1 0 0 -1 0 2592)">
					<stop  offset="0" style="stop-color:#999999"/>
					<stop  offset="1" style="stop-color:#999999"/>
				</linearGradient>
				<path class="st3" d="M1.9,23.6C3.4-9.7,50.3,6.9,65.8,25.2c18.9,22.3,11.1,34.9,39.9,55.7c-0.4-14.3-1.5-29.1,1.9-42.7
					c6.1,5.1,20.3,9.6,26.6,14.8c19.4-51.4,60.7-26.7,118.5-45.5c-11.7,14.6-9.8,32.2-2.8,47.1c17.4-17.9,33.9-6.3,40.4,9.9
					c6.8-3,25.2-4.4,33.9-9.7c4,6.6,19,14.7,22.3,22.9c5.3-7.6,17.6-11,23.2-16.7c6.4,5.8,19.8,11.4,23.6,20.5
					c-0.6-13.8-0.4-27.7-1.4-41.5c5.3,4.8,23,9.5,29.8,14.6c11.3-7.6,27.4-16.8,40.1-23c27.1,21.5,67.2-4.7,91.7-14.7
					c18.8,10.8,44.7,9.2,61.8-1.9c20.4,21,53.2,15,54,46.2c11.1-1.7,27.7,1.9,37.9,0.5c0.9,48,28.4,18.6,58.4,27.3
					c29.2,8.5,36.6,20.4,54.3,40.8c13.1-4.8,32.3-9.4,42.2-19.4c-0.3,4.8,2.8,11,2,16.4c17.2-5.2,32.8-13.6,46.2-23
					c2.3,5,8.4,10.8,10,16.3c26.2-7,48.7-23.4,53-40.5c78.5-4.5,142.1-24.3,224.4-26.1c-1.5,17.8,24.2,30,51.3,34.9
					c-1-5.3,1.3-11.4,0.4-16.6c8.3-3.2,22.1-9.1,32.3-12.4c3.9,2.8,12.4,6.5,17,8.9c4.8-8.2,16.4-13.9,18.8-23.2
					c2,7.3,10.2,13.1,12.9,20c2.9-3.8,13.1-9.2,17.1-14.1c10.9,9.2,27,8.8,38.1,13.2c0.4-2.2,0.9-4.4,1.7-6.6
					c11.3,14.9,26.1,31.8,56.7,19.7c10.8,12.1,16.2,25.6,23.7,39.1c27.2-15.4,58.4-5.5,63.5,18.3c11.2-11.7,19.7-24.2,28.6-36.5
					c7.5,5.9,22.3,9.5,29.5,16.5c8.8-9.5,17.3-23.2,21.7-34.6c17.4,1.9,30.3,11.1,36.4,23.4c1.1-7.5,12.4-16.5,14.5-23.8
					c2.9,3.3,15,8.9,18.6,13.7c13.5-16,16.9-35.5,38.5-47.5c14.7,9,24.7,20.6,29.3,32.9c2.9-2.8,8.9-7.1,12.4-11.7
					c27.4,17.5,48.3,48.7,86.8,66.6c6-15,1.8-30,9.1-44.9c4.6,8.3,19.4,16.2,25.2,23.2c4.1-5.9,9.6-11.4,16.4-16.3
					c18.6,15.3,43.5,17.9,63.4,3.7c8.7,6.1,31.1,10.5,40.2,15.9c28-20.2,54.7,6.7,76.9,21.2c20.2-15.6,19.9-40.5,47.9-53.6
					c7.7,1.4,12.6,4.4,14.4,9c25.2-8.4,35.2-25.3,60.6-34.9c8.9,7.2,14.4,15.2,16.3,24c25.4-8.4,40.2-25.4,60.7-33.9
					c5.1,7.6,10.2,15.3,15.1,23c28.2-16.5,41.4-10.1,76-8c12.5,4.7,25,9.3,37.4,14c14,0.7,27.4-0.4,40.2-3.4
					c17.2,4.3,33.6,8.2,43.4,22.4c15.6-6.9,30.4-14.5,44.3-22.7c22.7,47.9,137.4,60.1,178.3,18.6c25.3,14.8,54.5,5.3,82.7-3.1
					c0.8,3.8,1.7,7.5,2.7,11.2c56.5-1.4,178-1.4,227.6-19.3c-2.6,11.6,6.3,8.1,10.4,16.7c24.1-5.3,44.9-14,67.8-19.5
					c-0.9,4.5,0.5,8.6,4.4,12.3c30-3,48.8-18.8,75.5-23.5c-4.4,10.8-1.2,20.5,9.5,29.1c21.7-5.8,39.9-14.9,53.6-26.8
					c1.9,5.4,18.2,15.8,20.8,20.5c8.2-7.4,25.6-13.7,32.9-21.7c1.8,8.9,13.5,19.7,14.7,29c32.5-5.3,58.8-20,90.9-27.9
					c0.9,7.4,7.8,12.2,10.1,18.4c28.6-5.5,50.1-17.4,72.3-29.2c3.5,7.5,21.1,15.6,24.8,20.7c24.6-12.1,38.6-21,68.8-18.7
					c6.3,8.9,8.9,18.1,7.7,27.7c43.1-24.9,83-41.5,98.8,5.2c26.1-7.8,43.3-18.9,66.4-30.4c34,29,61.5,61.9,100.7,90.4
					c13.1-10.4,24.7-22.3,33.5-34.5c7-2.1,10.9-0.5,12,4.9c5.8-8.8,19.4-18,22.6-29c9.5,2.4,17.9,5.9,25.1,10.5
					c14.2-7,23.5-17.5,26.9-29.4c5.2,3.8,20,7.5,25.7,11.9c6.1-6.2,14-11.3,23.7-15.6c7.9,1.7,12.6,5.1,14.2,10.2
					c6.9-1.9,10.6-5.4,10.9-10.5c3.2,1.5,18.5,5.3,24.6,6.3c3.6-6.3,9.6-11.6,18.1-15.8c11.9,4.1,21.9,9.4,30.2,16
					c3.3-3.4,22.2-10.4,26.1-14.6c8.6,3.2,17.3,6.4,26,9.4c1.5-5.5,2.7-11,3.7-16.5c5.3,3.6,20.9,7.4,28.1,14.1
					c5.4-5.2,21.4-10.2,26.3-14.8c12.3,9.4,28.3,19.6,25.9,34.3c4.6-2.9,23.6-8,27.1-10.1c2.6,6.9,10.4,16.8,11.3,23.3
					c2.7,21.9-21.5,35.6-45.5,43.9c7.2,1.6,14.3,3.4,21.8,4.9c-0.3,1.9-5.2,8.6-4.2,9.7c2.1,1.8,4.9,2.9,8.4,3.4
					c1.7,10.8-0.6,12.8,10.5,23.1c-6.8,1.4-15.5,4.6-25.1,4.9c12.2,5.2,0.8,7.8,27,9.6c-12.5,1.6-22,4.7-33.2,6.9
					c-0.7-0.3,14.4,7.1,14.5,7.1c-16.6,1.3-20,6.6-32.5,10c-4-1.3,15.5,8.6,13,7.2c4.4-0.3,4.4-0.5,0.1-0.6
					c-12.1,10-25.7,17.6-46.2,21.6c5.9,23.3,21.1,42.3,72.3,41.2c0,0-2.9,8.9-3.3,9.8c-4-0.4,16.9,5.4,14.9,3.3
					c-34.6-1.2-41.8,10.8-20.2,24.1c-22.3,3.4-54.5,2.2-71.5,13.7c14.8,5.3,37.7,9.7,56.2,13.8c-11.3-0.6-21,3.4-31.7,4
					c6.9,16.2-1.5,31.6-29.3,36.9c22.3,13.6,47.7,28.5,86,24.6c-10.6,8.5-12.2,13.1-33.4,17.4c2.5,4.6,0.7,9.1,5,14.2
					c-10.2,1.1-26.3,8.5-35,9.2c6.8,1.6,14.7,5.8,23.8,7.6c-11.4,8.5-32.8,15.5-47.4,23.3c21.2,12.1,15.2,31.2,47,34.9
					c-22,26.6,20.1,31.6,43.1,47.5c-4.7,1.4-13.3,5.4-19.5,7.4c4.6,7.1,2.4,10.8,13.3,16.3c-3.6,2.1-6.5,4.5-8.9,7.1
					c-0.7-0.4,13.4,8.7,12.7,7.8c-20.7,0.5-46.5,4.1-63.4,13.5c6.1,3.4,7.2,10,17.2,13.8c-6.1,2.5-13.4,8.4-20.8,10.5
					c9.7,2.3,13,5.8,26.6,6.7c-18.7,1.4-38.2,4.7-55,9.2c14.8,7.3,29.3,13.1,48.8,14.6c0.3,21.7,65,43.6,21.7,63.9
					c9.2,1.5,25.2,9.1,35.6,10.1c-12,1.4-22.8,6.9-34.3,8.6c47,8.5,21.2,35.6,6.1,53.3c7.3,2.1,14.2,6.4,20.9,8.3
					c-20.4,3.5-37.1,11.8-42.4,22.4c8.8,0.6,17.1,2.1,24.8,4.7c-16.9,17.1,1.3,63.6-53,62.1c8.6,1.3,19.8,5.5,31.4,6.5
					c-20,5.2-41.7,9.7-57.1,16.8c23.4,5.5,48.3,7.4,71,13.6c-4.6,3.1-7.9,7.8-11.4,10.3c10.3,2.6,22.2,11.9,29.5,13.8
					c-13.5,1.2-22.8,7.3-33.2,9.2c52.6,17.9,28.1,35.8,16.7,62.4c10.8,1.8,13.7,4.3,26.2,3.8c-22.6-0.7-44.2-1-65.1,3.1
					c8.5,2,19.6,8.8,30.2,11.3c-5.1,1.5-16.8,10.6-24.8,12.9c5.6,3.9,12.6,10.8,19,13.8c4.7,10.2-0.6,19,11,27.5
					c-8.3,2-11.7,5.7-22.2,7.1c5.4,11.8,21.8,20.7,43.2,24.7c-56.7,9.3-0.8,24.8,16.5,40.1c-11.7,2.7-15.8,9.3-30.5,10.9
					c14.3,21.9-0.5,38.3,5,64.6c3.5,16.8,8,29.5,29.3,37.8c-1.1,16.4-17.3,28.8-45.8,31.6c1,2.4,3.4,4.2,7.2,5.4
					c-10.6,1.6-20.8,6.1-31.1,8.2c26.6,10.5,60.8,16.4,90.7,22.6c-24.1-0.4-50.3,1.8-72.7,8.2c5.5,8.9-1.5,14.7,11.7,23.5
					c-7.7,1.6-21,9.1-30.4,9.9c9.6,4.2,10.2,10.2,27.8,13.9c-0.2,0.5-14,3.7-15.1,4.2c0.9,0.5,13.7,7.9,14.8,9.7
					c-4.8,1.2-14.6-0.1-20.1,0.4c0.1,1.9,1.1,11.2-1,12.5c-32.2,3.4-61,6.9-62.7,28.3c14.6,2.3,34.1,8.7,49.4,10.2
					c-2.9-0.5-5.8-0.3-8.6,0.4c2.7,2.4,14.1,9.9,15.8,12.4c-4.1,3-9.6,3.7-11.9,7.6c8,1.9,22.6,9.5,30.8,10.4
					c-5.6,1.8-14.7,5.5-19.3,6.8c4.4,1.6,12.4,5.4,17.9,7.5c-25.4,14.5-24.6,35.3-65.3,40.4c16.9,5.8,36.8,9.7,56.6,11.2
					c-27.5,6.9-61.1,7.6-83.5,16.2c21.4,5.9,41.5,11.5,57.6,20.7c-4.1,3.3-7.5,7.1-12.2,10.5c8.5,0.9,21.3,7.4,34.9,7.2
					c-2.3,3.2-2.6,9.1-6.3,13.3c7.3,0.8,19,7.5,29.6,8.1c-1.4,20.2-29,40.9-52.7,53.8c6.8,0.1,20.3,3.7,30,3.7
					c-3.9,3.4-7.3,8.9-11.8,12.6c10.9,2.2,29.1,10.5,44.4,10.9c-7.1,1.7-17.6,8-26.3,10c18.6,24.4-47.6,28.7-18.2,45.7
					c-6.9,5.5-6.9,14.4-11.5,19.9c18.9,7.3,41,11.9,63.7,13.7c-35.5,9.5-65.4,4.4-74.6,28.7c-5.2,13.5-9.5,21.6,23.5,23.4
					c-33.5,22.5-76.6,42.8-98,72c18.9,13.8,45.3,22.1,73.8,22.7c-4.4,8.5,2.4,14.9-6.4,24.1c5,0.7,20.2,4,25.7,4.1
					c-10.1,1-23.9,6.7-36.5,7.7c4.4,1.9,17.3,14.4,25,17.2c-6.2,3.2-9.6,7.9-17.4,11.3c13.5,3.3,30.8,10.6,48.5,11.7
					c-9.6,2.5-18.5,10.1-27.7,13c8.8,3.1,18.2,14.5,30.2,18c-12.6,7.7-31.2,14.1-48.6,17c28.4,8.4,12.9,15.8,18.7,24.2
					c13.7,20.1,15.2,30.1,53.9,47.8c-17.8,0.2-32.3,8.5-46.5,11.4c2.9,5.3,2.1,11.7,4.6,16.4c-96,15.8-23.6,32.5-7.9,56.6
					c18.2,28-30.1,42.8-54.4,63.3c8.5,1,26.2,10,33.8,11.1c-4.5,3.1-6.7,6.8-6.7,10.9c17.5,5.5,37.6,8.9,57.9,9.8
					c-7.5,1.7-18.6,8.2-28.4,10.3c6.1,2.5,12.5,10.4,23.7,13.5c-9.9,4.1-16.2,12.9-29.5,16.8c11.4,2.9,22,11.2,32.7,13.9
					c-11.2,1.6-17.7,6.6-26.2,8.7c9.5,4.7,14.2,14.1,25.7,18.8c-7.5,2.2-15.2,8-22.7,10c8.4,2.1,20.2,11.2,29.6,13.6
					c-4.3,3.5-9.3,6.7-15,9.5c25.1,9.3,38.9,22.2,10.8,35.2c13,4.1,28.6,14.8,44.1,18c2,21.2-28.9,30.4-40.1,47.2
					c4.7,3.8,9.6,7.5,14.7,11.1c-5.9-3-27.6-7.1-37.6-12.8c-13.7,6.1-30.5,3.2-40.4,5.6c-0.5-1.6,0-8.4-0.1-10.1
					c-12.5,1.2-26-3.7-37.4-3.3c-0.7-8.4-5.5-19.7-1.4-28.1c1.4,4.6,0.4,10.4,0.5,15.1c0.3-5.3-1.9-10.3-6.6-14.9
					c-37.9,6.9-49.2,31.9-96.6,37.1c-10.1,1.1-43.9-0.4-55.5-0.4c-31.5,0-68.7-4.2-92.9,8.4c-25.4-13.4-76.6,0-82.1-26.3
					c0.9,3.6-1.5,7.9,0.7,11.5c-4.2-12.4-17.1-15.2-30.1-23c-5,4.7-7.3,7.3-10.7,12.6c-22.9,1.8-41.3,7.8-61.7,14.4
					c-26-13.8-50.7,20.2-83.1-2.8c-20.2,9-39.1,15.3-61.5,13.9c0.6-4.9,0-9.7-1.8-14.5c-27.5-0.7-62.9-5.2-80.2,7.7
					c-29.8-14.9-104.5,2.9-145.3,1.2c-15.3,13.4-35.5,18.2-56.1,6.5c-38.4,24.4-85.1-16.3-118.5-25c1,4.3,0.7,8.6-0.9,12.9
					c-28.4-4.7-47.8-18.9-72.1-24.5c-6,5.4-13,10.4-20.8,14.9c-54.1-35.3-69.2,18.8-118.5,1.1c-16,10.8-40.3,14.3-63.9,12
					c-4.5-4.5-13.7-8.5-22.8-10.7c-14.9,8.9-32.8,10-50.6,1.8c-20.4,3.8-26.8,4.2-45.6,2.5c-13.5,6.8-13.2,3.6-29.4,6
					c-0.8-3,0.1-6.4-1.6-9.3c-22.8-0.7-45.2,1.8-67.6,2.4c1.9-5.8-0.1-11.6,3-16.5c-9.3,8.8-23.6,14.3-36.9,20.1
					c1.1-6-3.5-13.9-2.3-20c-13.7,6.4-32.8,15.3-49.5,20.1c-0.9-3.3-1.3-6.5-2-9.8c-6.3,5.3-27.2,10.8-33.6,15.1
					c-15.3-18.5-66.3-45.9-63.7-6.1c-12.1-3.3-23.1-0.6-35.2-8c-18,10.4-35.1-0.1-45.1-14c1.1,5.2-1.2,10.8-0.3,15.7
					c-8.6-2.7-22.2-1.7-32.4-6.1c-17,22.7-52.8-0.4-82.1-3.7c17.5,14.4,8.5,26.4,0.8,40.6c-20-16.9-70.5-16.7-102.6-22.4
					c-2.6,2.4-2.7,4.9-0.5,7.6c-10.5-9.4-27.3-15.1-39.9-21.3c-0.6,3-1.2,6-1.8,8.9c-14.7-4.7-28.5-6.1-37.8-16.7
					c-14.7,23.2-61.5,21.8-81.3,0.7c0.9,4.8-2.3,11.1-1.5,16c-24.5,2.4-45.4-7.8-61.3-16.7c-1.6,4.5-6.3,8.9-7.9,13.4
					c-7.6-3.1-31.4-4.8-39.9-9.3c-2.5,10.3-16,14.9-22.1,22.3c-19.4-10.9-46.3-11.5-72.8-9.8c-0.1-4.4-3.8-11.1-2.7-16
					c-5.1,6.5-17.7,12.4-23.3,19.9c-15.5-10.8-33.5-24.6-56.7-31.7c-8,9.2-24.3,14-37.1,20.2c-3.9-2.7-8.9-5.4-13.1-8.4
					c0.3,6.7-7.6,14.1-7.8,20c-7.3-5.2-27.3-9.4-34-13.5c-1.9,3.1-4,6.3-5.9,9.7c-12.1-4.9-29.2-5.9-40.3-16.1
					c-0.8,10.1-11.3,13.1-15.7,20.9c-24.2-7.7-41.7-19.8-66.4-24.3c-23,25.2-68.5-12.4-96.2-19.8c-8.9,22.5-42.4,15.6-62.2-0.1
					c3.7,26.5-84.7,6.1-114.7,26.9c-8.2-7.9-21.6-11-24.5-21.3c-1.5,3.1-4.1,6-4.5,10.6c-13.6-8.2-29.9-15.3-47.1-20.4
					c0.1,5.3-6.4,13.3-5.2,19.7c-5.5-2.5-19.1-4.3-25.3-7.2c-2.8,11.4-9.9,23.6-19.4,32.7c-36.8-16-101.7-5.4-147.9-14.4
					c-0.3,3.6-3.3,8.5-3.4,12.5c-15.2-7.8-33.1-6.3-48.8-9.5c0.8,4.7-3.1,11.4-2.7,16.3c-25.2,1-46.8-8.8-67.2-16.7
					c-6.1,29.2-63,22.6-81.2,1.2c1.6,2.8,1.1,5.6-1.5,8.3c-25.3,0-39.4-12.4-43.8-26.7c-7.9,7.9-22.2,9.6-29.6,14.2
					c-8.9-12.3-15.6-25.6-34.8-33.2c-7.9,15-13.2,8.5-27.1,15c-0.8-5.1-4.9-10.8-6.7-16c4.4,17.9-16.8,32.1-42.7,20
					c-28.9,37.1-160.9,41.8-219.6,37.5c1.5-1.7,2.9-3.5,4.2-5.3c-13.7-2-29.4-7.6-40.8-10.5c4.8-0.4,9.6-0.9,14.4-1.5
					c-0.3-8.6-11.1-1,1.4-11.3c-49.4-12.8-72.4,3.9-109.2,8c-35.1,3.9-79.7,0.3-113.8-2.6c0.6,4.4-0.2,9.3,0.7,13.6
					c-54.3-3.4-98.5-42.3-80.8-72.4c6.1-10.5,38.1-17.7,41.3-34.1c4-20.5-31.3-33.8-8-51.6c-6.6-1.8-12.8-4.1-18.6-6.7
					c15-14.2,31.1-50.9,28.8-61.8c7.2-1.8,14.1-4,20.6-6.6c-6.7-3.7-12-12.6-20.5-16.3c9.5-5.9,19.9-11.1,31.3-15.6
					c-18.7-8.8-17.7-28.8-27.2-35.5c-18.3-13-45.4-19.2-65.4-31.9c44.5-10.8,22.6-37,62.4-47.8c-12.2-4.9-37.8-14.9-42.9-24.7
					c56.3-16.7,90.9-204.1,4.4-206.4c-8.4-22.4,27.9-26.4,39.8-40.4c16.8-19.7-13.5-28.6,40.5-41.5c-21.4-9.3-38.6-28-62.6-35.2
					c-1.9-5.6-3-9.3-5.3-13.4c4.4-4.5,3.2-10.6,11.6-16.7c-4.8-1.6-15.7-9.6-21.3-11.1c10.6-0.6,21-5.5,30.9-6.6
					c-14.7-18.8-14.2-38,11.7-53.6c-13.2-1.4-30.7-8.8-39.1-10.2c14.3-1.7,19.2-7.5,27.7-10.3c-6.8-2.3-12.5-5.5-17.6-7.5
					c23.1-8,31.7-18,6.7-27.7c34.5-6.4,61.4-66.8,27.8-82.1c4.1-2.8,8.5-8,11.9-10.5c-8.1-1-18.7-6.5-27.5-7.6
					c13.2-11.8,11.3-16.6-5.9-24c1.2-5.1,5.4-8.2,5.3-14.9c79.1-7.7,22.9-54.5-33.5-56.5c13.9,0.3,24.3-2.4,36.7-3.2
					c-14.4-1-29.8-8.1-43-10.1c2.3-13.6,6-18.5-1.3-31.1c12.8-2.7,27.6-11.9,38.6-14.3c-12.9-1.5-30.4-7.9-37.3-9.2
					c16.6-0.2,34.7-6,50.3-6.7c-11.2-1.9-22.5-8.8-33.5-11c8.9-2.6,15.1-8.9,28.2-11.1c-7.2-2.6-17.1-11.3-29.8-13.9
					c2.5-10.8,6.9-9.3,5.4-23.4c24-5,52-5.5,77.5-9.2c-23.7-3.1-47.6-5.1-69.8-11.1c6.8-3.4,13-10.9,23.3-14.7
					c-17.7-2.3-38.7-5.8-57-9.5c8.4-0.4,23-5.4,32.2-6.6c8.9-26.9,12.1-54.3,19.6-79.3c-29.3-20.7-49-66.3,3.8-78.1
					c-11.9-1.2-23.3-5.9-33.5-7.4c9.6-2.6,27.1-13.5,39-16c-13.5-8.2-25.9-18.1-34.7-28.1c25.1-6.6,30.2-16.2,11.7-28.1
					c8.2-3.2,14.2-10,24.6-12.8c-17.9-10.9-44.3-14.7-69.5-19c11.5-11,30.5-17.6,52.7-20.4c-7.4-2.1-17.9-10.6-25.5-12.9
					c10.4-2.6,22.2-11.7,35.6-13.8c-33.9-8.2-46.2-26.7-8-38.1c-3.4-3.1-7.1-2.9-8.9-6.3c12.6-2.3,25.6-11.5,40.4-13.6
					c-3.1-18.7,5.1-49.2-4.9-66.7c-5.7-9.9-30.1-14.8-37.2-26.9c14.1-8.2,32.4-15.4,50.5-20c-25.4-11.2-62.4-35.3-8.9-42.1
					c-26.8-10.2-47.6-26.7-39.7-47.3c25.3-0.9,44.2-11.7,62.6-20.6c-24-5-49.6-7.5-75-6.7c30.4-2.3,60.4-6.9,90.2-11.2
					c-14.3-16.1-50-37-54.1-57.1c9.7-1.9,21-8.7,27.8-10.1c-68.1-2.3,7.3-30.8-35.5-48.8c50.7-31.2-33.3-48.2,36.4-78.9
					C89.3,483,99,484.8,99.6,463c0.3-10.2,18.1-16.4,17.8-27.4c-0.3-12-20.3-11.9-24-20.5c-10.6-24.6,16-72.5-5.1-88.6
					c17-7.2,14-55.4,15.7-72.9c3.9-41.3-47.8-53.5-43.7-89.1c3.5-30.8-4.8-47.5-15.3-73.9c-5.3-13.3-1.7-25.8-9.8-38.8
					C28,40.1,2.8,41.8,1.9,23.6L1.9,23.6z"/>
			</g>
		</g>
		
			<linearGradient id="SVGID_7_" gradientUnits="userSpaceOnUse" x1="1.9" y1="1289.8615" x2="4319.6006" y2="1289.8615" gradientTransform="matrix(1 0 0 -1 0 2592)">
			<stop  offset="0" style="stop-color:#999999"/>
			<stop  offset="1" style="stop-color:#000000"/>
		</linearGradient>
		<path class="st4" d="M1.9,23.6C3.4-9.7,50.3,6.9,65.8,25.2c18.9,22.3,11.1,34.9,39.9,55.7c-0.4-14.3-1.5-29.1,1.9-42.7
			c6.1,5.1,20.3,9.6,26.6,14.8c19.4-51.4,60.7-26.7,118.5-45.5c-11.7,14.6-9.8,32.2-2.8,47.1c17.4-17.9,33.9-6.3,40.4,9.9
			c6.8-3,25.2-4.4,33.9-9.7c4,6.6,19,14.7,22.3,22.9c5.3-7.6,17.6-11,23.2-16.7c6.4,5.8,19.8,11.4,23.6,20.5
			c-0.6-13.8-0.4-27.7-1.4-41.5c5.3,4.8,23,9.5,29.8,14.6c11.3-7.6,27.4-16.8,40.1-23c27.1,21.5,67.2-4.7,91.7-14.7
			c18.8,10.8,44.7,9.2,61.8-1.9c20.4,21,53.2,15,54,46.2c11.1-1.7,27.7,1.9,37.9,0.5c0.9,48,28.4,18.6,58.4,27.3
			c29.2,8.5,36.6,20.4,54.3,40.8c13.1-4.8,32.3-9.4,42.2-19.4c-0.3,4.8,2.8,11,2,16.4c17.2-5.2,32.8-13.6,46.2-23
			c2.3,5,8.4,10.8,10,16.3c26.2-7,48.7-23.4,53-40.5c78.5-4.5,142.1-24.3,224.4-26.1c-1.5,17.8,24.2,30,51.3,34.9
			c-1-5.3,1.3-11.4,0.4-16.6c8.3-3.2,22.1-9.1,32.3-12.4c3.9,2.8,12.4,6.5,17,8.9c4.8-8.2,16.4-13.9,18.8-23.2
			c2,7.3,10.2,13.1,12.9,20c2.9-3.8,13.1-9.2,17.1-14.1c10.9,9.2,27,8.8,38.1,13.2c0.4-2.2,0.9-4.4,1.7-6.6
			c11.3,14.9,26.1,31.8,56.7,19.7c10.8,12.1,16.2,25.6,23.7,39.1c27.2-15.4,58.4-5.5,63.5,18.3c11.2-11.7,19.7-24.2,28.6-36.5
			c7.5,5.9,22.3,9.5,29.5,16.5c8.8-9.5,17.3-23.2,21.7-34.6c17.4,1.9,30.3,11.1,36.4,23.4c1.1-7.5,12.4-16.5,14.5-23.8
			c2.9,3.3,15,8.9,18.6,13.7c13.5-16,16.9-35.5,38.5-47.5c14.7,9,24.7,20.6,29.3,32.9c2.9-2.8,8.9-7.1,12.4-11.7
			c27.4,17.5,48.3,48.7,86.8,66.6c6-15,1.8-30,9.1-44.9c4.6,8.3,19.4,16.2,25.2,23.2c4.1-5.9,9.6-11.4,16.4-16.3
			c18.6,15.3,43.5,17.9,63.4,3.7c8.7,6.1,31.1,10.5,40.2,15.9c28-20.2,54.7,6.7,76.9,21.2c20.2-15.6,19.9-40.5,47.9-53.6
			c7.7,1.4,12.6,4.4,14.4,9c25.2-8.4,35.2-25.3,60.6-34.9c8.9,7.2,14.4,15.2,16.3,24c25.4-8.4,40.2-25.4,60.7-33.9
			c5.1,7.6,10.2,15.3,15.1,23c28.2-16.5,41.4-10.1,76-8c12.5,4.7,25,9.3,37.4,14c14,0.7,27.4-0.4,40.2-3.4
			c17.2,4.3,33.6,8.2,43.4,22.4c15.6-6.9,30.4-14.5,44.3-22.7c22.7,47.9,137.4,60.1,178.3,18.6c25.3,14.8,54.5,5.3,82.7-3.1
			c0.8,3.8,1.7,7.5,2.7,11.2c56.5-1.4,178-1.4,227.6-19.3c-2.6,11.6,6.3,8.1,10.4,16.7c24.1-5.3,44.9-14,67.8-19.5
			c-0.9,4.5,0.5,8.6,4.4,12.3c30-3,48.8-18.8,75.5-23.5c-4.4,10.8-1.2,20.5,9.5,29.1c21.7-5.8,39.9-14.9,53.6-26.8
			c1.9,5.4,18.2,15.8,20.8,20.5c8.2-7.4,25.6-13.7,32.9-21.7c1.8,8.9,13.5,19.7,14.7,29c32.5-5.3,58.8-20,90.9-27.9
			c0.9,7.4,7.8,12.2,10.1,18.4c28.6-5.5,50.1-17.4,72.3-29.2c3.5,7.5,21.1,15.6,24.8,20.7c24.6-12.1,38.6-21,68.8-18.7
			c6.3,8.9,8.9,18.1,7.7,27.7c43.1-24.9,83-41.5,98.8,5.2c26.1-7.8,43.3-18.9,66.4-30.4c34,29,61.5,61.9,100.7,90.4
			c13.1-10.4,24.7-22.3,33.5-34.5c7-2.1,10.9-0.5,12,4.9c5.8-8.8,19.4-18,22.6-29c9.5,2.4,17.9,5.9,25.1,10.5
			c14.2-7,23.5-17.5,26.9-29.4c5.2,3.8,20,7.5,25.7,11.9c6.1-6.2,14-11.3,23.7-15.6c7.9,1.7,12.6,5.1,14.2,10.2
			c6.9-1.9,10.6-5.4,10.9-10.5c3.2,1.5,18.5,5.3,24.6,6.3c3.6-6.3,9.6-11.6,18.1-15.8c11.9,4.1,21.9,9.4,30.2,16
			c3.3-3.4,22.2-10.4,26.1-14.6c8.6,3.2,17.3,6.4,26,9.4c1.5-5.5,2.7-11,3.7-16.5c5.3,3.6,20.9,7.4,28.1,14.1
			c5.4-5.2,21.4-10.2,26.3-14.8c12.3,9.4,28.3,19.6,25.9,34.3c4.6-2.9,23.6-8,27.1-10.1c2.6,6.9,10.4,16.8,11.3,23.3
			c2.7,21.9-21.5,35.6-45.5,43.9c7.2,1.6,14.3,3.4,21.8,4.9c-0.3,1.9-5.2,8.6-4.2,9.7c2.1,1.8,4.9,2.9,8.4,3.4
			c1.7,10.8-0.6,12.8,10.5,23.1c-6.8,1.4-15.5,4.6-25.1,4.9c12.2,5.2,0.8,7.8,27,9.6c-12.5,1.6-22,4.7-33.2,6.9
			c-0.7-0.3,14.4,7.1,14.5,7.1c-16.6,1.3-20,6.6-32.5,10c-4-1.3,15.5,8.6,13,7.2c4.4-0.3,4.4-0.5,0.1-0.6
			c-12.1,10-25.7,17.6-46.2,21.6c5.9,23.3,21.1,42.3,72.3,41.2c0,0-2.9,8.9-3.3,9.8c-4-0.4,16.9,5.4,14.9,3.3
			c-34.6-1.2-41.8,10.8-20.2,24.1c-22.3,3.4-54.5,2.2-71.5,13.7c14.8,5.3,37.7,9.7,56.2,13.8c-11.3-0.6-21,3.4-31.7,4
			c6.9,16.2-1.5,31.6-29.3,36.9c22.3,13.6,47.7,28.5,86,24.6c-10.6,8.5-12.2,13.1-33.4,17.4c2.5,4.6,0.7,9.1,5,14.2
			c-10.2,1.1-26.3,8.5-35,9.2c6.8,1.6,14.7,5.8,23.8,7.6c-11.4,8.5-32.8,15.5-47.4,23.3c21.2,12.1,15.2,31.2,47,34.9
			c-22,26.6,20.1,31.6,43.1,47.5c-4.7,1.4-13.3,5.4-19.5,7.4c4.6,7.1,2.4,10.8,13.3,16.3c-3.6,2.1-6.5,4.5-8.9,7.1
			c-0.7-0.4,13.4,8.7,12.7,7.8c-20.7,0.5-46.5,4.1-63.4,13.5c6.1,3.4,7.2,10,17.2,13.8c-6.1,2.5-13.4,8.4-20.8,10.5
			c9.7,2.3,13,5.8,26.6,6.7c-18.7,1.4-38.2,4.7-55,9.2c14.8,7.3,29.3,13.1,48.8,14.6c0.3,21.7,65,43.6,21.7,63.9
			c9.2,1.5,25.2,9.1,35.6,10.1c-12,1.4-22.8,6.9-34.3,8.6c47,8.5,21.2,35.6,6.1,53.3c7.3,2.1,14.2,6.4,20.9,8.3
			c-20.4,3.5-37.1,11.8-42.4,22.4c8.8,0.6,17.1,2.1,24.8,4.7c-16.9,17.1,1.3,63.6-53,62.1c8.6,1.3,19.8,5.5,31.4,6.5
			c-20,5.2-41.7,9.7-57.1,16.8c23.4,5.5,48.3,7.4,71,13.6c-4.6,3.1-7.9,7.8-11.4,10.3c10.3,2.6,22.2,11.9,29.5,13.8
			c-13.5,1.2-22.8,7.3-33.2,9.2c52.6,17.9,28.1,35.8,16.7,62.4c10.8,1.8,13.7,4.3,26.2,3.8c-22.6-0.7-44.2-1-65.1,3.1
			c8.5,2,19.6,8.8,30.2,11.3c-5.1,1.5-16.8,10.6-24.8,12.9c5.6,3.9,12.6,10.8,19,13.8c4.7,10.2-0.6,19,11,27.5
			c-8.3,2-11.7,5.7-22.2,7.1c5.4,11.8,21.8,20.7,43.2,24.7c-56.7,9.3-0.8,24.8,16.5,40.1c-11.7,2.7-15.8,9.3-30.5,10.9
			c14.3,21.9-0.5,38.3,5,64.6c3.5,16.8,8,29.5,29.3,37.8c-1.1,16.4-17.3,28.8-45.8,31.6c1,2.4,3.4,4.2,7.2,5.4
			c-10.6,1.6-20.8,6.1-31.1,8.2c26.6,10.5,60.8,16.4,90.7,22.6c-24.1-0.4-50.3,1.8-72.7,8.2c5.5,8.9-1.5,14.7,11.7,23.5
			c-7.7,1.6-21,9.1-30.4,9.9c9.6,4.2,10.2,10.2,27.8,13.9c-0.2,0.5-14,3.7-15.1,4.2c0.9,0.5,13.7,7.9,14.8,9.7
			c-4.8,1.2-14.6-0.1-20.1,0.4c0.1,1.9,1.1,11.2-1,12.5c-32.2,3.4-61,6.9-62.7,28.3c14.6,2.3,34.1,8.7,49.4,10.2
			c-2.9-0.5-5.8-0.3-8.6,0.4c2.7,2.4,14.1,9.9,15.8,12.4c-4.1,3-9.6,3.7-11.9,7.6c8,1.9,22.6,9.5,30.8,10.4
			c-5.6,1.8-14.7,5.5-19.3,6.8c4.4,1.6,12.4,5.4,17.9,7.5c-25.4,14.5-24.6,35.3-65.3,40.4c16.9,5.8,36.8,9.7,56.6,11.2
			c-27.5,6.9-61.1,7.6-83.5,16.2c21.4,5.9,41.5,11.5,57.6,20.7c-4.1,3.3-7.5,7.1-12.2,10.5c8.5,0.9,21.3,7.4,34.9,7.2
			c-2.3,3.2-2.6,9.1-6.3,13.3c7.3,0.8,19,7.5,29.6,8.1c-1.4,20.2-29,40.9-52.7,53.8c6.8,0.1,20.3,3.7,30,3.7
			c-3.9,3.4-7.3,8.9-11.8,12.6c10.9,2.2,29.1,10.5,44.4,10.9c-7.1,1.7-17.6,8-26.3,10c18.6,24.4-47.6,28.7-18.2,45.7
			c-6.9,5.5-6.9,14.4-11.5,19.9c18.9,7.3,41,11.9,63.7,13.7c-35.5,9.5-65.4,4.4-74.6,28.7c-5.2,13.5-9.5,21.6,23.5,23.4
			c-33.5,22.5-76.6,42.8-98,72c18.9,13.8,45.3,22.1,73.8,22.7c-4.4,8.5,2.4,14.9-6.4,24.1c5,0.7,20.2,4,25.7,4.1
			c-10.1,1-23.9,6.7-36.5,7.7c4.4,1.9,17.3,14.4,25,17.2c-6.2,3.2-9.6,7.9-17.4,11.3c13.5,3.3,30.8,10.6,48.5,11.7
			c-9.6,2.5-18.5,10.1-27.7,13c8.8,3.1,18.2,14.5,30.2,18c-12.6,7.7-31.2,14.1-48.6,17c28.4,8.4,12.9,15.8,18.7,24.2
			c13.7,20.1,15.2,30.1,53.9,47.8c-17.8,0.2-32.3,8.5-46.5,11.4c2.9,5.3,2.1,11.7,4.6,16.4c-96,15.8-23.6,32.5-7.9,56.6
			c18.2,28-30.1,42.8-54.4,63.3c8.5,1,26.2,10,33.8,11.1c-4.5,3.1-6.7,6.8-6.7,10.9c17.5,5.5,37.6,8.9,57.9,9.8
			c-7.5,1.7-18.6,8.2-28.4,10.3c6.1,2.5,12.5,10.4,23.7,13.5c-9.9,4.1-16.2,12.9-29.5,16.8c11.4,2.9,22,11.2,32.7,13.9
			c-11.2,1.6-17.7,6.6-26.2,8.7c9.5,4.7,14.2,14.1,25.7,18.8c-7.5,2.2-15.2,8-22.7,10c8.4,2.1,20.2,11.2,29.6,13.6
			c-4.3,3.5-9.3,6.7-15,9.5c25.1,9.3,38.9,22.2,10.8,35.2c13,4.1,28.6,14.8,44.1,18c2,21.2-28.9,30.4-40.1,47.2
			c4.7,3.8,9.6,7.5,14.7,11.1c-5.9-3-27.6-7.1-37.6-12.8c-13.7,6.1-30.5,3.2-40.4,5.6c-0.5-1.6,0-8.4-0.1-10.1
			c-12.5,1.2-26-3.7-37.4-3.3c-0.7-8.4-5.5-19.7-1.4-28.1c1.4,4.6,0.4,10.4,0.5,15.1c0.3-5.3-1.9-10.3-6.6-14.9
			c-37.9,6.9-49.2,31.9-96.6,37.1c-10.1,1.1-43.9-0.4-55.5-0.4c-31.5,0-68.7-4.2-92.9,8.4c-25.4-13.4-76.6,0-82.1-26.3
			c0.9,3.6-1.5,7.9,0.7,11.5c-4.2-12.4-17.1-15.2-30.1-23c-5,4.7-7.3,7.3-10.7,12.6c-22.9,1.8-41.3,7.8-61.7,14.4
			c-26-13.8-50.7,20.2-83.1-2.8c-20.2,9-39.1,15.3-61.5,13.9c0.6-4.9,0-9.7-1.8-14.5c-27.5-0.7-62.9-5.2-80.2,7.7
			c-29.8-14.9-104.5,2.9-145.3,1.2c-15.3,13.4-35.5,18.2-56.1,6.5c-38.4,24.4-85.1-16.3-118.5-25c1,4.3,0.7,8.6-0.9,12.9
			c-28.4-4.7-47.8-18.9-72.1-24.5c-6,5.4-13,10.4-20.8,14.9c-54.1-35.3-69.2,18.8-118.5,1.1c-16,10.8-40.3,14.3-63.9,12
			c-4.5-4.5-13.7-8.5-22.8-10.7c-14.9,8.9-32.8,10-50.6,1.8c-20.4,3.8-26.8,4.2-45.6,2.5c-13.5,6.8-13.2,3.6-29.4,6
			c-0.8-3,0.1-6.4-1.6-9.3c-22.8-0.7-45.2,1.8-67.6,2.4c1.9-5.8-0.1-11.6,3-16.5c-9.3,8.8-23.6,14.3-36.9,20.1
			c1.1-6-3.5-13.9-2.3-20c-13.7,6.4-32.8,15.3-49.5,20.1c-0.9-3.3-1.3-6.5-2-9.8c-6.3,5.3-27.2,10.8-33.6,15.1
			c-15.3-18.5-66.3-45.9-63.7-6.1c-12.1-3.3-23.1-0.6-35.2-8c-18,10.4-35.1-0.1-45.1-14c1.1,5.2-1.2,10.8-0.3,15.7
			c-8.6-2.7-22.2-1.7-32.4-6.1c-17,22.7-52.8-0.4-82.1-3.7c17.5,14.4,8.5,26.4,0.8,40.6c-20-16.9-70.5-16.7-102.6-22.4
			c-2.6,2.4-2.7,4.9-0.5,7.6c-10.5-9.4-27.3-15.1-39.9-21.3c-0.6,3-1.2,6-1.8,8.9c-14.7-4.7-28.5-6.1-37.8-16.7
			c-14.7,23.2-61.5,21.8-81.3,0.7c0.9,4.8-2.3,11.1-1.5,16c-24.5,2.4-45.4-7.8-61.3-16.7c-1.6,4.5-6.3,8.9-7.9,13.4
			c-7.6-3.1-31.4-4.8-39.9-9.3c-2.5,10.3-16,14.9-22.1,22.3c-19.4-10.9-46.3-11.5-72.8-9.8c-0.1-4.4-3.8-11.1-2.7-16
			c-5.1,6.5-17.7,12.4-23.3,19.9c-15.5-10.8-33.5-24.6-56.7-31.7c-8,9.2-24.3,14-37.1,20.2c-3.9-2.7-8.9-5.4-13.1-8.4
			c0.3,6.7-7.6,14.1-7.8,20c-7.3-5.2-27.3-9.4-34-13.5c-1.9,3.1-4,6.3-5.9,9.7c-12.1-4.9-29.2-5.9-40.3-16.1
			c-0.8,10.1-11.3,13.1-15.7,20.9c-24.2-7.7-41.7-19.8-66.4-24.3c-23,25.2-68.5-12.4-96.2-19.8c-8.9,22.5-42.4,15.6-62.2-0.1
			c3.7,26.5-84.7,6.1-114.7,26.9c-8.2-7.9-21.6-11-24.5-21.3c-1.5,3.1-4.1,6-4.5,10.6c-13.6-8.2-29.9-15.3-47.1-20.4
			c0.1,5.3-6.4,13.3-5.2,19.7c-5.5-2.5-19.1-4.3-25.3-7.2c-2.8,11.4-9.9,23.6-19.4,32.7c-36.8-16-101.7-5.4-147.9-14.4
			c-0.3,3.6-3.3,8.5-3.4,12.5c-15.2-7.8-33.1-6.3-48.8-9.5c0.8,4.7-3.1,11.4-2.7,16.3c-25.2,1-46.8-8.8-67.2-16.7
			c-6.1,29.2-63,22.6-81.2,1.2c1.6,2.8,1.1,5.6-1.5,8.3c-25.3,0-39.4-12.4-43.8-26.7c-7.9,7.9-22.2,9.6-29.6,14.2
			c-8.9-12.3-15.6-25.6-34.8-33.2c-7.9,15-13.2,8.5-27.1,15c-0.8-5.1-4.9-10.8-6.7-16c4.4,17.9-16.8,32.1-42.7,20
			c-28.9,37.1-160.9,41.8-219.6,37.5c1.5-1.7,2.9-3.5,4.2-5.3c-13.7-2-29.4-7.6-40.8-10.5c4.8-0.4,9.6-0.9,14.4-1.5
			c-0.3-8.6-11.1-1,1.4-11.3c-49.4-12.8-72.4,3.9-109.2,8c-35.1,3.9-79.7,0.3-113.8-2.6c0.6,4.4-0.2,9.3,0.7,13.6
			c-54.3-3.4-98.5-42.3-80.8-72.4c6.1-10.5,38.1-17.7,41.3-34.1c4-20.5-31.3-33.8-8-51.6c-6.6-1.8-12.8-4.1-18.6-6.7
			c15-14.2,31.1-50.9,28.8-61.8c7.2-1.8,14.1-4,20.6-6.6c-6.7-3.7-12-12.6-20.5-16.3c9.5-5.9,19.9-11.1,31.3-15.6
			c-18.7-8.8-17.7-28.8-27.2-35.5c-18.3-13-45.4-19.2-65.4-31.9c44.5-10.8,22.6-37,62.4-47.8c-12.2-4.9-37.8-14.9-42.9-24.7
			c56.3-16.7,90.9-204.1,4.4-206.4c-8.4-22.4,27.9-26.4,39.8-40.4c16.8-19.7-13.5-28.6,40.5-41.5c-21.4-9.3-38.6-28-62.6-35.2
			c-1.9-5.6-3-9.3-5.3-13.4c4.4-4.5,3.2-10.6,11.6-16.7c-4.8-1.6-15.7-9.6-21.3-11.1c10.6-0.6,21-5.5,30.9-6.6
			c-14.7-18.8-14.2-38,11.7-53.6c-13.2-1.4-30.7-8.8-39.1-10.2c14.3-1.7,19.2-7.5,27.7-10.3c-6.8-2.3-12.5-5.5-17.6-7.5
			c23.1-8,31.7-18,6.7-27.7c34.5-6.4,61.4-66.8,27.8-82.1c4.1-2.8,8.5-8,11.9-10.5c-8.1-1-18.7-6.5-27.5-7.6
			c13.2-11.8,11.3-16.6-5.9-24c1.2-5.1,5.4-8.2,5.3-14.9c79.1-7.7,22.9-54.5-33.5-56.5c13.9,0.3,24.3-2.4,36.7-3.2
			c-14.4-1-29.8-8.1-43-10.1c2.3-13.6,6-18.5-1.3-31.1c12.8-2.7,27.6-11.9,38.6-14.3c-12.9-1.5-30.4-7.9-37.3-9.2
			c16.6-0.2,34.7-6,50.3-6.7c-11.2-1.9-22.5-8.8-33.5-11c8.9-2.6,15.1-8.9,28.2-11.1c-7.2-2.6-17.1-11.3-29.8-13.9
			c2.5-10.8,6.9-9.3,5.4-23.4c24-5,52-5.5,77.5-9.2c-23.7-3.1-47.6-5.1-69.8-11.1c6.8-3.4,13-10.9,23.3-14.7
			c-17.7-2.3-38.7-5.8-57-9.5c8.4-0.4,23-5.4,32.2-6.6c8.9-26.9,12.1-54.3,19.6-79.3c-29.3-20.7-49-66.3,3.8-78.1
			c-11.9-1.2-23.3-5.9-33.5-7.4c9.6-2.6,27.1-13.5,39-16c-13.5-8.2-25.9-18.1-34.7-28.1c25.1-6.6,30.2-16.2,11.7-28.1
			c8.2-3.2,14.2-10,24.6-12.8c-17.9-10.9-44.3-14.7-69.5-19c11.5-11,30.5-17.6,52.7-20.4c-7.4-2.1-17.9-10.6-25.5-12.9
			c10.4-2.6,22.2-11.7,35.6-13.8c-33.9-8.2-46.2-26.7-8-38.1c-3.4-3.1-7.1-2.9-8.9-6.3c12.6-2.3,25.6-11.5,40.4-13.6
			c-3.1-18.7,5.1-49.2-4.9-66.7c-5.7-9.9-30.1-14.8-37.2-26.9c14.1-8.2,32.4-15.4,50.5-20c-25.4-11.2-62.4-35.3-8.9-42.1
			c-26.8-10.2-47.6-26.7-39.7-47.3c25.3-0.9,44.2-11.7,62.6-20.6c-24-5-49.6-7.5-75-6.7c30.4-2.3,60.4-6.9,90.2-11.2
			c-14.3-16.1-50-37-54.1-57.1c9.7-1.9,21-8.7,27.8-10.1c-68.1-2.3,7.3-30.8-35.5-48.8c50.7-31.2-33.3-48.2,36.4-78.9
			C89.3,483,99,484.8,99.6,463c0.3-10.2,18.1-16.4,17.8-27.4c-0.3-12-20.3-11.9-24-20.5c-10.6-24.6,16-72.5-5.1-88.6
			c17-7.2,14-55.4,15.7-72.9c3.9-41.3-47.8-53.5-43.7-89.1c3.5-30.8-4.8-47.5-15.3-73.9c-5.3-13.3-1.7-25.8-9.8-38.8
			C28,40.1,2.8,41.8,1.9,23.6L1.9,23.6z"/>
	</g>
	<g class="st5">
		<path class="st6" d="M3633.3,523.1l-2.2-4.8c-81-147.2-267-261.9-510.5-314.8c-65.8-14.3-135-23.8-205.7-28.2
			c-255.8-15.9-520.5,33.6-765.4,143.3S1691,592.9,1531.8,794.7c-44,55.8-83.2,113.8-116.6,172.5
			c-123.5,217.2-162.9,432.9-108,591.8l2.1,4.9c55.5,110.3,173.3,202.4,333.6,264c54.6,21,114.2,38.5,177.9,52
			c74.3,15.7,152.6,25.4,232.7,28.8c249,10.5,504.2-39.3,738-144s441.2-262.1,599.8-455.2c51-62.1,96.2-127.1,134.2-193.1
			C3653.8,893.8,3693.1,677.5,3633.3,523.1z"/>
		<path class="st7" d="M3602.2,527.8l-2.2-4.6c-78.5-142.7-258.9-253.9-494.9-305.2c-63.8-13.9-130.9-23-199.4-27.3
			c-248-15.4-504.7,32.6-742.1,139c-237.5,106.4-444.6,266-598.9,461.6c-42.7,54.1-80.7,110.4-113.1,167.2
			c-119.8,210.6-158,419.7-104.7,573.8l2,4.7c53.8,106.9,168.1,196.2,323.5,256c53,20.4,110.7,37.3,172.5,50.4
			c72.1,15.2,148,24.6,225.6,27.9c241.4,10.2,488.8-38.1,715.5-139.6s427.8-254.1,581.6-441.3c49.5-60.2,93.2-123.2,130.1-187.2
			C3622,887.3,3660.1,677.6,3602.2,527.8z"/>
		<g>
			<path class="st8" d="M2906.2,235.1c-222.4-13.9-475.4,24.2-724.3,135.7s-446.2,275.1-584.6,450.5
				c46.5,344.8,259.2,762.2,477.7,1018.4c216.9,9.2,460.7-29.8,698.5-136.3s429.6-262.6,567.8-430.8
				C3297.5,938.1,3130.5,500.2,2906.2,235.1z"/>
			<path class="st8" d="M1487.4,983.8c-113.8,200.1-151.2,399.6-101.8,542.4c66.4,131.9,241.2,238,470,286.4
				C1687.3,1583.4,1544.9,1262.7,1487.4,983.8z"/>
			<path class="st8" d="M3569.7,548c-72.8-132.3-245.5-237.7-469.8-286.4c168.1,229.4,310.4,550.1,367.8,828.9
				C3584.8,887.3,3623,685.8,3569.7,548z"/>
			<path class="st6" d="M1597.2,821.3c-42.2,53.4-78.8,108-109.8,162.5c57.5,278.9,199.9,599.6,368.1,828.8
				c68.8,14.6,142.4,23.9,219.4,27.1C1856.5,1583.5,1643.7,1166.1,1597.2,821.3z"/>
			<path class="st6" d="M3100,261.6c-61.1-13.3-126-22.3-193.8-26.5c224.3,265.2,391.3,703.1,435,1037.5
				c49.1-59.7,91.4-121,126.5-182.1C3410.4,811.7,3268.1,491,3100,261.6z"/>
			<path class="st9" d="M3143.7,1147.1L3143.7,1147.1c9.2-48.6,7.2-92.9-6.7-128.8c-29.9-54.4-92.4-100.2-174.9-129.5
				c-5.5,0.3-11,0.7-16.6,1.1c5.5-0.5,11-1,16.6-1.3c-22-7.8-45.4-14.5-70-19.8c-31.9-6.9-65.7-11.6-101-13.8
				c-116-7.2-247.9,12.6-377.7,70.8c-129.8,58.1-232.7,143.4-304.8,234.9c-22,27.9-41.1,56.3-57.3,84.7
				c-36.4,64-57.8,127.8-62.9,184.8c2.5-3.9,5.1-7.7,7.8-11.5c-2.6,3.9-5.2,7.8-7.8,11.7c-3.3,35.9-0.1,69.2,9.8,98
				c22.4,44.4,68.3,83.2,130.1,111.9c6.7-8.8,12.1-15.8,16.2-21.1c0.2-0.3,0.5-0.7,0.7-1c0.5-0.6,0.9-1.2,1.4-1.8
				c0.4-0.5,0.8-1,1.2-1.5c0.3-0.4,0.5-0.7,0.8-1.1c-0.3,0.3-0.5,0.7-0.8,1.1c-0.4,0.5-0.8,1-1.2,1.5c-0.4,0.6-0.9,1.2-1.4,1.8
				c-0.2,0.3-0.5,0.6-0.7,1c-4,5.3-9.4,12.3-16.2,21.1c33.9,15.8,72.6,28.5,114.9,37.4c35.9,7.6,74.2,12.5,114.4,14.2
				c2.6,0.1,5.1,0.2,7.7,0.3c111.1,3.6,235.3-17.1,356.5-71.3c124-55.5,224-136.9,296-224.6c10.4-12.6,20.1-25.3,29.3-38.1
				c13.5-18.8,25.8-37.8,36.7-56.8C3114.3,1248.2,3134.6,1195.5,3143.7,1147.1z"/>
			<path class="st10" d="M3491,576.4c0,0-1282.5-340.4-2028.4,944.9C1462.5,1521.3,2078.1,358.5,3491,576.4z"/>
			<g>
				<path class="st11" d="M2945.2,614.2c-401.7,2.6-782.9,178.4-1046.6,482.8c-24.9-21.8-49.8-43.5-74.7-65.3
					c282.4-325.9,690.5-514.2,1120.6-517C2944.8,547.9,2945,581.1,2945.2,614.2z"/>
				<path class="st11" d="M2371.3,873.2c-14,7.2-27.8,14.6-41.5,22.2c0.1-0.1-65.8-106.9-87.1-144.5
					c-20.3-35.8-76.8-150.3-76.7-150.4c17.3-9.7,34.7-19,52.3-28.1c0.2-0.1,64.2,105.2,82.1,141.7
					C2319.8,753.3,2371.1,873.2,2371.3,873.2z"/>
				<path class="st11" d="M2503.9,815.5c-14.7,5.5-29.2,11.3-43.7,17.4c0.1-0.1-53.4-113.7-70.3-153.5
					c-16.1-37.9-59.5-158.1-59.3-158.1c18.2-7.7,36.6-15,55.1-22c0.2-0.1,52,111.8,65.7,150.1
					C2466.2,690.5,2503.7,815.5,2503.9,815.5z"/>
				<g>
					<path class="st11" d="M2638.6,766.6c-15.3,3.9-30.5,8.1-45.7,12.5c0.1,0-39.2-114.5-51.2-154.4c-11.4-38-39.9-157.8-39.7-157.8
						c18.9-5.6,38-10.8,57.2-15.7c0.2-0.1,38.2,112.5,47.2,150.6C2616.2,642.9,2638.4,766.6,2638.6,766.6z"/>
					<path class="st11" d="M2776.9,732.1c-15.8,2.2-31.6,4.7-47.3,7.5c0.1,0-25.7-113.6-33-153c-6.9-37.5-21.2-155.1-21.1-155.1
						c19.5-3.4,39-6.5,58.7-9.3c0.2,0,25,111.6,29.7,149C2768.9,611.4,2776.7,732.1,2776.9,732.1z"/>
					<path class="st11" d="M2922.1,705.7c-16.3,0.4-32.6,1.1-48.8,2.1c0.1,0-12.3-105-14.8-141.3c-2.4-34.5-2.8-142-2.7-142
						c19.7-1.2,39.5-2.1,59.4-2.6c0.2,0,12.1,103.2,12.5,137.3C2928.2,596.1,2921.9,705.7,2922.1,705.7z"/>
				</g>
				<g>
					<path class="st11" d="M2022.8,699.7c16.1-11.5,32.4-22.7,49-33.5c0.1-0.1,71.3,97.7,93.7,132.8
						c21.3,33.4,83.6,139.4,83.7,139.3c-13.2,8.7-26.2,17.6-39.1,26.8c0.2-0.1-75.1-91.7-98.1-123.4
						C2087.3,807.7,2022.6,699.9,2022.8,699.7z"/>
					<path class="st11" d="M1888.5,816.2c14.8-13.2,29.8-26.2,45.1-38.8c0.1-0.1,78.6,85.7,103.8,116.8
						c23.9,29.6,94.4,124.6,94.5,124.5c-12.3,10.2-24.4,20.6-36.3,31.2c0.1-0.1-81.8-79.4-107.1-107.3
						C1961.2,912.8,1888.3,816.4,1888.5,816.2z"/>
					<path class="st11" d="M1771,954.3c13.2-14.8,26.7-29.4,40.5-43.7c0.1-0.1,80,68.8,105.8,94.2c24.6,24.3,97.3,103.1,97.4,103
						c-11.3,11.7-22.4,23.7-33.3,35.9c0.1-0.1-82.4-62.5-108-85C1845.8,1034.5,1770.8,954.4,1771,954.3z"/>
				</g>
			</g>
		</g>
	</g>
</g>
<g>
	<path class="st6" d="M604.6,161.7l-0.4-0.9c-15.6-28.4-51.5-50.5-98.4-60.7c-12.7-2.8-26-4.6-39.6-5.4
		c-49.3-3.1-100.3,6.5-147.5,27.6s-88.4,52.9-119,91.7c-8.5,10.7-16,21.9-22.5,33.2c-23.8,41.8-31.4,83.4-20.8,114l0.4,0.9
		c10.7,21.2,33.4,39,64.3,50.9c10.5,4.1,22,7.4,34.3,10c14.3,3,29.4,4.9,44.8,5.5c48,2,97.2-7.6,142.2-27.7
		c45-20.2,85-50.5,115.6-87.7c9.8-12,18.5-24.5,25.9-37.2C608.6,233.2,616.1,191.5,604.6,161.7z"/>
	<path class="st7" d="M598.6,162.6l-0.4-0.9c-15.1-27.5-49.9-48.9-95.4-58.8c-12.3-2.7-25.2-4.4-38.4-5.3c-47.8-3-97.2,6.3-143,26.8
		s-85.7,51.3-115.4,89c-8.2,10.4-15.5,21.3-21.8,32.2c-23.1,40.6-30.4,80.9-20.2,110.6l0.4,0.9c10.4,20.6,32.4,37.8,62.3,49.3
		c10.2,3.9,21.3,7.2,33.2,9.7c13.9,2.9,28.5,4.7,43.5,5.4c46.5,2,94.2-7.3,137.9-26.9s82.4-49,112.1-85c9.5-11.6,18-23.7,25.1-36.1
		C602.4,231.9,609.8,191.5,598.6,162.6z"/>
	<g>
		<path class="st8" d="M464.5,106.2c-42.9-2.7-91.6,4.7-139.6,26.2s-86,53-112.7,86.8c9,66.4,49.9,146.9,92,196.2
			c41.8,1.8,88.8-5.7,134.6-26.3c45.8-20.5,82.8-50.6,109.4-83C539.9,241.7,507.7,157.3,464.5,106.2z"/>
		<path class="st8" d="M191.1,250.5c-21.9,38.6-29.1,77-19.6,104.5c12.8,25.4,46.5,45.9,90.6,55.2
			C229.6,366,202.2,304.2,191.1,250.5z"/>
		<path class="st8" d="M592.4,166.5c-14-25.5-47.3-45.8-90.5-55.2c32.4,44.2,59.8,106,70.9,159.7
			C595.3,231.9,602.6,193.1,592.4,166.5z"/>
		<path class="st6" d="M212.3,219.2c-8.1,10.3-15.2,20.8-21.2,31.3c11.1,53.8,38.5,115.5,70.9,159.7c13.2,2.8,27.4,4.6,42.3,5.2
			C262.2,366.1,221.2,285.6,212.3,219.2z"/>
		<path class="st6" d="M501.8,111.3c-11.8-2.6-24.3-4.3-37.3-5.1c43.2,51.1,75.4,135.5,83.8,199.9c9.5-11.5,17.6-23.3,24.4-35.1
			C561.7,217.3,534.2,155.5,501.8,111.3z"/>
		<path class="st10" d="M577.2,172c0,0-247.1-65.6-390.9,182.1C186.3,354.1,304.9,130,577.2,172z"/>
		<g>
			<path class="st11" d="M472,179.3c-77.4,0.5-150.9,34.4-201.7,93c-4.8-4.2-9.6-8.4-14.4-12.6c54.4-62.8,133.1-99.1,215.9-99.6
				C472,166.5,472,172.9,472,179.3z"/>
			<path class="st11" d="M361.4,229.2c-2.7,1.4-5.4,2.8-8,4.3c0,0-12.7-20.6-16.8-27.9c-3.9-6.9-14.8-29-14.8-29
				c3.3-1.9,6.7-3.7,10.1-5.4c0,0,12.4,20.3,15.8,27.3C351.5,206.1,361.4,229.2,361.4,229.2z"/>
			<path class="st11" d="M387,218.1c-2.8,1.1-5.6,2.2-8.4,3.4c0,0-10.3-21.9-13.6-29.6c-3.1-7.3-11.5-30.5-11.4-30.5
				c3.5-1.5,7.1-2.9,10.6-4.2c0,0,10,21.5,12.7,28.9C379.7,194,387,218.1,387,218.1z"/>
			<g>
				<path class="st11" d="M412.9,208.6c-2.9,0.8-5.9,1.6-8.8,2.4c0,0-7.6-22.1-9.9-29.8c-2.2-7.3-7.7-30.4-7.7-30.4
					c3.6-1.1,7.3-2.1,11-3c0,0,7.4,21.7,9.1,29C408.6,184.8,412.9,208.7,412.9,208.6z"/>
				<path class="st11" d="M439.6,202c-3.1,0.4-6.1,0.9-9.1,1.4c0,0-5-21.9-6.4-29.5c-1.3-7.2-4.1-29.9-4.1-29.9
					c3.8-0.7,7.5-1.3,11.3-1.8c0,0,4.8,21.5,5.7,28.7C438.1,178.7,439.6,202,439.6,202z"/>
				<path class="st11" d="M467.6,196.9c-3.1,0.1-6.3,0.2-9.4,0.4c0,0-2.4-20.2-2.9-27.2c-0.5-6.7-0.5-27.4-0.5-27.4
					c3.8-0.2,7.6-0.4,11.4-0.5c0,0,2.3,19.9,2.4,26.5C468.7,175.8,467.5,196.9,467.6,196.9z"/>
			</g>
			<g>
				<path class="st11" d="M294.3,195.8c3.1-2.2,6.3-4.4,9.4-6.5c0,0,13.7,18.8,18.1,25.6c4.1,6.4,16.1,26.9,16.1,26.9
					c-2.5,1.7-5.1,3.4-7.5,5.2c0,0-14.5-17.7-18.9-23.8C306.7,216.6,294.2,195.8,294.3,195.8z"/>
				<path class="st11" d="M268.4,218.2c2.9-2.5,5.7-5,8.7-7.5c0,0,15.2,16.5,20,22.5c4.6,5.7,18.2,24,18.2,24c-2.4,2-4.7,4-7,6
					c0,0-15.8-15.3-20.6-20.7C282.4,236.8,268.4,218.2,268.4,218.2z"/>
				<path class="st11" d="M245.8,244.8c2.6-2.9,5.2-5.7,7.8-8.4c0,0,15.4,13.3,20.4,18.2c4.7,4.7,18.7,19.9,18.8,19.8
					c-2.2,2.3-4.3,4.6-6.4,6.9c0,0-15.9-12-20.8-16.4C260.2,260.3,245.7,244.8,245.8,244.8z"/>
			</g>
		</g>
	</g>
</g>
<g>
	<path class="st6" d="M1273.4,161.7l-0.4-0.9c-15.6-28.4-51.5-50.5-98.4-60.7c-12.7-2.8-26-4.6-39.6-5.4
		c-49.3-3.1-100.3,6.5-147.5,27.6c-47.2,21.1-88.4,52.9-119,91.7c-8.5,10.7-16,21.9-22.5,33.2c-23.8,41.8-31.4,83.4-20.8,114
		l0.4,0.9c10.7,21.2,33.4,39,64.3,50.9c10.5,4.1,22,7.4,34.3,10c14.3,3,29.4,4.9,44.8,5.5c48,2,97.2-7.6,142.2-27.7
		c45-20.2,85-50.5,115.6-87.7c9.8-12,18.5-24.5,25.9-37.2C1277.4,233.2,1284.9,191.5,1273.4,161.7z"/>
	<path class="st7" d="M1267.4,162.6l-0.4-0.9c-15.1-27.5-49.9-48.9-95.4-58.8c-12.3-2.7-25.2-4.4-38.4-5.3
		c-47.8-3-97.2,6.3-143,26.8c-45.8,20.5-85.7,51.3-115.4,89c-8.2,10.4-15.5,21.3-21.8,32.2c-23.1,40.6-30.4,80.9-20.2,110.6l0.4,0.9
		c10.4,20.6,32.4,37.8,62.3,49.3c10.2,3.9,21.3,7.2,33.2,9.7c13.9,2.9,28.5,4.7,43.5,5.4c46.5,2,94.2-7.3,137.9-26.9
		c43.7-19.6,82.4-49,112.1-85c9.5-11.6,18-23.7,25.1-36.1C1271.2,231.9,1278.6,191.5,1267.4,162.6z"/>
	<g>
		<path class="st8" d="M1133.3,106.2c-42.9-2.7-91.6,4.7-139.6,26.2s-86,53-112.7,86.8c9,66.4,49.9,146.9,92,196.2
			c41.8,1.8,88.8-5.7,134.6-26.3c45.8-20.5,82.8-50.6,109.4-83C1208.7,241.7,1176.5,157.3,1133.3,106.2z"/>
		<path class="st8" d="M859.9,250.5c-21.9,38.6-29.1,77-19.6,104.5c12.8,25.4,46.5,45.9,90.6,55.2C898.4,366,871,304.2,859.9,250.5z
			"/>
		<path class="st8" d="M1261.2,166.5c-14-25.5-47.3-45.8-90.5-55.2c32.4,44.2,59.8,106,70.9,159.7
			C1264.1,231.9,1271.4,193.1,1261.2,166.5z"/>
		<path class="st6" d="M881.1,219.2c-8.1,10.3-15.2,20.8-21.2,31.3c11.1,53.8,38.5,115.5,70.9,159.7c13.2,2.8,27.4,4.6,42.3,5.2
			C931,366.1,890,285.6,881.1,219.2z"/>
		<path class="st6" d="M1170.6,111.3c-11.8-2.6-24.3-4.3-37.3-5.1c43.2,51.1,75.4,135.5,83.8,199.9c9.5-11.5,17.6-23.3,24.4-35.1
			C1230.5,217.3,1203,155.5,1170.6,111.3z"/>
		<path class="st10" d="M1246,172c0,0-247.1-65.6-390.9,182.1C855.1,354.1,973.7,130,1246,172z"/>
		<g>
			<path class="st11" d="M1140.8,179.3c-77.4,0.5-150.9,34.4-201.7,93c-4.8-4.2-9.6-8.4-14.4-12.6c54.4-62.8,133.1-99.1,215.9-99.6
				C1140.7,166.5,1140.8,172.9,1140.8,179.3z"/>
			<path class="st11" d="M1030.2,229.2c-2.7,1.4-5.4,2.8-8,4.3c0,0-12.7-20.6-16.8-27.9c-3.9-6.9-14.8-29-14.8-29
				c3.3-1.9,6.7-3.7,10.1-5.4c0,0,12.4,20.3,15.8,27.3C1020.3,206.1,1030.2,229.2,1030.2,229.2z"/>
			<path class="st11" d="M1055.8,218.1c-2.8,1.1-5.6,2.2-8.4,3.4c0,0-10.3-21.9-13.6-29.6c-3.1-7.3-11.5-30.5-11.4-30.5
				c3.5-1.5,7.1-2.9,10.6-4.2c0,0,10,21.5,12.7,28.9C1048.5,194,1055.7,218.1,1055.8,218.1z"/>
			<g>
				<path class="st11" d="M1081.7,208.6c-2.9,0.8-5.9,1.6-8.8,2.4c0,0-7.6-22.1-9.9-29.8c-2.2-7.3-7.7-30.4-7.7-30.4
					c3.6-1.1,7.3-2.1,11-3c0,0,7.4,21.7,9.1,29C1077.4,184.8,1081.7,208.7,1081.7,208.6z"/>
				<path class="st11" d="M1108.4,202c-3.1,0.4-6.1,0.9-9.1,1.4c0,0-5-21.9-6.4-29.5c-1.3-7.2-4.1-29.9-4.1-29.9
					c3.8-0.7,7.5-1.3,11.3-1.8c0,0,4.8,21.5,5.7,28.7C1106.8,178.7,1108.3,202,1108.4,202z"/>
				<path class="st11" d="M1136.4,196.9c-3.1,0.1-6.3,0.2-9.4,0.4c0,0-2.4-20.2-2.9-27.2c-0.5-6.7-0.5-27.4-0.5-27.4
					c3.8-0.2,7.6-0.4,11.4-0.5c0,0,2.3,19.9,2.4,26.5C1137.5,175.8,1136.3,196.9,1136.4,196.9z"/>
			</g>
			<g>
				<path class="st11" d="M963.1,195.8c3.1-2.2,6.3-4.4,9.4-6.5c0,0,13.7,18.8,18.1,25.6c4.1,6.4,16.1,26.9,16.1,26.9
					c-2.5,1.7-5.1,3.4-7.5,5.2c0,0-14.5-17.7-18.9-23.8C975.5,216.6,963,195.8,963.1,195.8z"/>
				<path class="st11" d="M937.2,218.2c2.9-2.5,5.7-5,8.7-7.5c0,0,15.2,16.5,20,22.5c4.6,5.7,18.2,24,18.2,24c-2.4,2-4.7,4-7,6
					c0,0-15.8-15.3-20.6-20.7C951.2,236.8,937.2,218.2,937.2,218.2z"/>
				<path class="st11" d="M914.6,244.8c2.6-2.9,5.2-5.7,7.8-8.4c0,0,15.4,13.3,20.4,18.2c4.7,4.7,18.7,19.9,18.8,19.8
					c-2.2,2.3-4.3,4.6-6.4,6.9c0,0-15.9-12-20.8-16.4C929,260.3,914.5,244.8,914.6,244.8z"/>
			</g>
		</g>
	</g>
</g>
<g>
	<path class="st6" d="M1942.2,161.7l-0.4-0.9c-15.6-28.4-51.5-50.5-98.4-60.7c-12.7-2.8-26-4.6-39.6-5.4
		c-49.3-3.1-100.3,6.5-147.5,27.6s-88.4,52.9-119,91.7c-8.5,10.7-16,21.9-22.5,33.2c-23.8,41.8-31.4,83.4-20.8,114l0.4,0.9
		c10.7,21.2,33.4,39,64.3,50.9c10.5,4.1,22,7.4,34.3,10c14.3,3,29.4,4.9,44.8,5.5c48,2,97.2-7.6,142.2-27.7
		c45-20.2,85-50.5,115.6-87.7c9.8-12,18.5-24.5,25.9-37.2C1946.1,233.2,1953.7,191.5,1942.2,161.7z"/>
	<path class="st7" d="M1936.2,162.6l-0.4-0.9c-15.1-27.5-49.9-48.9-95.4-58.8c-12.3-2.7-25.2-4.4-38.4-5.3
		c-47.8-3-97.2,6.3-143,26.8s-85.7,51.3-115.4,89c-8.2,10.4-15.5,21.3-21.8,32.2c-23.1,40.6-30.4,80.9-20.2,110.6l0.4,0.9
		c10.4,20.6,32.4,37.8,62.3,49.3c10.2,3.9,21.3,7.2,33.2,9.7c13.9,2.9,28.5,4.7,43.5,5.4c46.5,2,94.2-7.3,137.9-26.9
		c43.7-19.6,82.4-49,112.1-85c9.5-11.6,18-23.7,25.1-36.1C1940,231.9,1947.4,191.5,1936.2,162.6z"/>
	<g>
		<path class="st8" d="M1802.1,106.2c-42.9-2.7-91.6,4.7-139.6,26.2s-86,53-112.7,86.8c9,66.4,49.9,146.9,92,196.2
			c41.8,1.8,88.8-5.7,134.6-26.3c45.8-20.5,82.8-50.6,109.4-83C1877.5,241.7,1845.3,157.3,1802.1,106.2z"/>
		<path class="st8" d="M1528.7,250.5c-21.9,38.6-29.1,77-19.6,104.5c12.8,25.4,46.5,45.9,90.6,55.2
			C1567.2,366,1539.8,304.2,1528.7,250.5z"/>
		<path class="st8" d="M1929.9,166.5c-14-25.5-47.3-45.8-90.5-55.2c32.4,44.2,59.8,106,70.9,159.7
			C1932.8,231.9,1940.2,193.1,1929.9,166.5z"/>
		<path class="st6" d="M1549.9,219.2c-8.1,10.3-15.2,20.8-21.2,31.3c11.1,53.8,38.5,115.5,70.9,159.7c13.2,2.8,27.4,4.6,42.3,5.2
			C1599.8,366.1,1558.8,285.6,1549.9,219.2z"/>
		<path class="st6" d="M1839.4,111.3c-11.8-2.6-24.3-4.3-37.3-5.1c43.2,51.1,75.4,135.5,83.8,199.9c9.5-11.5,17.6-23.3,24.4-35.1
			C1899.2,217.3,1871.8,155.5,1839.4,111.3z"/>
		<path class="st10" d="M1914.8,172c0,0-247.1-65.6-390.9,182.1C1523.9,354.1,1642.5,130,1914.8,172z"/>
		<g>
			<path class="st11" d="M1809.6,179.3c-77.4,0.5-150.9,34.4-201.7,93c-4.8-4.2-9.6-8.4-14.4-12.6c54.4-62.8,133.1-99.1,215.9-99.6
				C1809.5,166.5,1809.6,172.9,1809.6,179.3z"/>
			<path class="st11" d="M1699,229.2c-2.7,1.4-5.4,2.8-8,4.3c0,0-12.7-20.6-16.8-27.9c-3.9-6.9-14.8-29-14.8-29
				c3.3-1.9,6.7-3.7,10.1-5.4c0,0,12.4,20.3,15.8,27.3C1689.1,206.1,1699,229.2,1699,229.2z"/>
			<path class="st11" d="M1724.6,218.1c-2.8,1.1-5.6,2.2-8.4,3.4c0,0-10.3-21.9-13.6-29.6c-3.1-7.3-11.5-30.5-11.4-30.5
				c3.5-1.5,7.1-2.9,10.6-4.2c0,0,10,21.5,12.7,28.9C1717.3,194,1724.5,218.1,1724.6,218.1z"/>
			<g>
				<path class="st11" d="M1750.5,208.6c-2.9,0.8-5.9,1.6-8.8,2.4c0,0-7.6-22.1-9.9-29.8c-2.2-7.3-7.7-30.4-7.7-30.4
					c3.6-1.1,7.3-2.1,11-3c0,0,7.4,21.7,9.1,29C1746.2,184.8,1750.5,208.7,1750.5,208.6z"/>
				<path class="st11" d="M1777.2,202c-3.1,0.4-6.1,0.9-9.1,1.4c0,0-5-21.9-6.4-29.5c-1.3-7.2-4.1-29.9-4.1-29.9
					c3.8-0.7,7.5-1.3,11.3-1.8c0,0,4.8,21.5,5.7,28.7C1775.6,178.7,1777.1,202,1777.2,202z"/>
				<path class="st11" d="M1805.2,196.9c-3.1,0.1-6.3,0.2-9.4,0.4c0,0-2.4-20.2-2.9-27.2c-0.5-6.7-0.5-27.4-0.5-27.4
					c3.8-0.2,7.6-0.4,11.4-0.5c0,0,2.3,19.9,2.4,26.5C1806.3,175.8,1805.1,196.9,1805.2,196.9z"/>
			</g>
			<g>
				<path class="st11" d="M1631.9,195.8c3.1-2.2,6.3-4.4,9.4-6.5c0,0,13.7,18.8,18.1,25.6c4.1,6.4,16.1,26.9,16.1,26.9
					c-2.5,1.7-5.1,3.4-7.5,5.2c0,0-14.5-17.7-18.9-23.8C1644.3,216.6,1631.8,195.8,1631.9,195.8z"/>
				<path class="st11" d="M1606,218.2c2.9-2.5,5.7-5,8.7-7.5c0,0,15.2,16.5,20,22.5c4.6,5.7,18.2,24,18.2,24c-2.4,2-4.7,4-7,6
					c0,0-15.8-15.3-20.6-20.7C1620,236.8,1606,218.2,1606,218.2z"/>
				<path class="st11" d="M1583.3,244.8c2.6-2.9,5.2-5.7,7.8-8.4c0,0,15.4,13.3,20.4,18.2c4.7,4.7,18.7,19.9,18.8,19.8
					c-2.2,2.3-4.3,4.6-6.4,6.9c0,0-15.9-12-20.8-16.4C1597.8,260.3,1583.3,244.8,1583.3,244.8z"/>
			</g>
		</g>
	</g>
</g>
<g>
	<g>
		<g>
			<path class="st6" d="M3250.3,984.1c41.5-4.8,83,5.1,122.2,18.2c30.6,11.6,61.1,26.1,85.4,48.6c6.8,11.6,15.9,21.7,21.7,33.9
				c13.9,28.6,13.3,63.4,0.7,92.4c-6.2,14.8-17.4,26.6-27,39.3l-3.5,2c-1.6-6.3-3.2-12.5-5.2-18.7c0.9,20.9,8.6,42,23,57.3
				c-10.1,24.8-21.6,52.4-10.4,79c-4.5,6.3-8.6,12.9-14.1,18.3c-11,5.7-21.7,13.4-34.3,14.5c-21.1-2.4-41.2-11.7-62.7-10.5
				c-10.7-0.1-21.3,4-28.4,12.1c-3.8,3.8-7.6,7.6-11,11.8c-2.4,5.1-4.3,10.5-6.2,15.9c-1.9,1.1-3.8,2.3-5.6,3.4
				c-1.7,8.8-4.3,17.5-7.2,26c-7.1-0.6-15.8-2.7-19.6-9.4c0.3-8.7,3.7-16.9,5.5-25.4c1.9-4.1-4.1-9.9-7.1-4.6
				c-3.6,9.6-5.8,19.7-10.4,28.9c-7.7-2.2-16.6-3.7-21.6-10.6c3.9-9.6,6.8-19.6,10.8-29.1c-3.8-1.5-7.5-3.1-11.3-4.6
				c-1.4,10.5-5.2,20.5-7.1,30.9c-5.4,1.5-11,0.6-16.3-0.9c-3-1.3-9.7-1-8.4-6.2c0.6-11.6,7.1-22.2,6-34c-10.9,6-11,19.9-15.8,30.2
				c-7,0.6-14-0.8-20.8-2c-1.4-10.7,5.1-20.1,9.5-29.2l-3-3.6c0.9-5.1,2.1-10.2,3.1-15.2c0.8-4.1,1-8.2,0.8-12.4
				c0-12.2-5.9-23.8-15.1-31.7c-14.9-12.9-34.2-18.6-51.7-27c-13.8-5.7-16.3-22-25.1-32.5c-0.3-8.9-0.1-17.9,0.1-26.8
				c9.7-7.3,19.1-15.8,24.5-26.9c6.3-13.5,10-28,13.9-42.3c21.1-2.6,38-16.6,53.4-30.3c-6.7,3.9-13.5,7.5-20.7,10.4
				c0.3-15.8-1.2-31.8,0.8-47.5c5.4-28.9,22.3-55.9,46.8-72.2C3221.3,994.3,3236.4,990.4,3250.3,984.1z M3191.9,1131.8
				c14.7,11.1,30.7,20.5,43.7,33.8c16.9,17.9,33.8,37.4,56.6,47.6c21.9,7,45.4,1.8,67.6-1.4c20.6-4.5,41.7-3.2,62.6-1.9
				c-3.5-3.6-7.5-6.9-12.6-8c-33.4-9-68,0-102-2.6c-11-0.9-20.6-7.1-29.1-13.8c-21.3-17.5-41.3-37.4-66.1-49.9
				C3206.3,1131.9,3198.9,1132.2,3191.9,1131.8z M3150.2,1156.5l-0.1,2.3c-1.3,0.9-4,2.7-5.3,3.7c-11.1,21.1-21.1,45-16.6,69.4
				c1.2,7.8,6.4,13.9,11.9,19.1c0.2-2.4,0.4-7.3,0.6-9.8c1.9-1.3,5.5-3.9,7.4-5.3c12.6,14.6,31.2,23.2,49.5,28
				c1.9,0.7,5.7,2.2,7.5,2.9c-2.7,4.4-5.6,8.6-8.3,13c10.6,0.5,22.5,2.2,31.7-4.5c14.6-10.7,23.8-29,41.9-34.6
				c10.2-3.7,21.8,2.1,26.7,11.3c8.8,16.1,5,35.4,11.3,52.3c3.9,9.5,13,15.3,21.9,19.7c0.6-5.3,1.1-10.7,1.7-16
				c17.5,10.1,38.2,13.3,58.2,13.4l3.6-1.7c6.5,4.3,1.9,11.3,0,16.8c7.7-1.6,15.8-3.7,21.3-9.8c19.3-19,24.4-46.9,28.5-72.5
				c-18.7-4.3-38.9-4.6-57.1,2.4c-14.6,2.2-29.9,4.7-44.4,1c-10-2.5-17.3-10.4-24-17.7l0.8-2.3c-21.7,1.3-44.4-5-60-20.6l-1.1,2.7
				c-12.3,2.1-26,3.5-36.9-4C3194.7,1199.2,3179,1169.7,3150.2,1156.5z M3263.2,1268l-0.7,1.5c-10.1-1.2-12.1,10.5-16.7,16.8
				c-6,11.7-21.8,15.2-24.7,28.7c-4.9,9.5,0.8,20.3,9.6,24.9c0.3-4,0.6-8,0.9-11.9c8.1,9,19.6,2.9,24.8-5.6
				c1.2,4.8,1.9,9.8,3.8,14.5c3.3,4.7,9.4,4.9,14.4,6.5c1.6-0.8,4.9-2.4,6.6-3.2c2-4.4,4.1-8.8,6.3-13.2c0-1.8-0.1-5.3-0.1-7.1
				c-6.9-13.6-1.6-29.5-2.6-44.1C3280.4,1267.4,3271.1,1267.4,3263.2,1268z"/>
		</g>
		<path class="st6" d="M2785.4,1078.5c0-2.9,0.8-5.7,1.4-8.6c3.6,10.6,6.1,21.5,8.7,32.4c28.6,111.9,86.4,215,161.2,302.3
			c35.1,41.9,75.4,78.9,116.6,114.6c-9.3,1.7-18.5,3.9-27.7,5.8c-37.6-35-75-70.4-109.7-108.3c-35-39.4-66.5-82.2-91.8-128.5
			c-26.4-49-46.8-102-54.3-157.4C2786.9,1113.4,2787.4,1095.9,2785.4,1078.5z"/>
		<path class="st6" d="M3093.8,1345c7.1-0.5,14.2-0.8,21.4-0.3c3.9,4.9,9.1,10,9.1,16.8c1,18.9,3.6,37.9,11.1,55.4
			c4.4-5.9,7.9-14.7,16.5-14.3c1.9,10.8,0.8,21.7-3,32c2.9,2.6,5.9,5.2,8.8,7.8c1.5-9.2,5-17.9,8.4-26.5c7,0.5,12.7,4.6,18.4,8.3
			c-2.5,9.1-6.1,17.9-10.9,26c4.7,2.5,9.4,4.9,14,7.5c-1.2-12.1,3-23.7,5.6-35.4l1.8,4.2l1.6-2.7c4.8,3.2,12.7,3.6,14.9,9.7
			c-2,10-4.5,20-7.5,29.7c3.8,1.5,7.6,3.1,11.3,4.9c3.3-10.2,5.6-21.1,11-30.4c5.9-1.1,11.9,1.8,17.8,2.5c1.7,11.6-6.6,21.3-9.9,32
			c4.7,0.9,9.5,1.7,14.2,2.2c0.6-9.4,5-17.8,8.9-26.2c6.1,0.8,13.2-0.5,18.3,3.8c0.1,8.8-6.6,16.3-9.9,24.2c2.9,0,8.6,0.1,11.4,0.2
			c3.3-8.8,7.2-17.4,12.4-25.2c5.8,5.2,8.3,12.5,8,20.2c17-8.6,29.7-23,42-37c4.6-5.7,12.4-6.1,18.8-8.5
			c5.6,5.1,10.5,10.9,14.5,17.4c-4.3,4.5-7.9,10.3-14,12.4c-29.1,13.1-57.4,28.2-84,46c-7.5,5.3-16.1,9-24.9,11.4
			c-26-26.4-66-39.1-102.4-33.6c-5.2-7.1-9.9-14.7-12.7-23.1c-7.8-21.8-16.2-43.4-27-63.9C3100.1,1377.6,3093.7,1361.8,3093.8,1345z
			"/>
		<path class="st6" d="M3654.5,1494c46-24.3,88.4-54.8,128.2-88.2c-3,7.9-5.6,16.4-10.9,23.1c-13.1,11.2-22.9,25.6-36,36.8
			c-38.3,34.6-83.2,62.3-131.5,80.6c-95.2,38.6-197.3,58.6-299.5,65.8c-5.9-7.5-12.4-14.7-18.9-21.8
			C3413.6,1584.6,3541.6,1555.3,3654.5,1494z"/>
		<path class="st6" d="M2819.9,1560c8.8-2.3,17.9-2.7,26.9-2c-10.8,3.5-20.7,9.3-27.4,18.7c-12.3,5.2-24.3-4.1-31.2-13.7
			C2798.8,1563,2809.7,1563.7,2819.9,1560z"/>
		<path class="st6" d="M2846.7,1558.4c8.3,1.4,16.2-2.9,24.5-2.2c18.1,1.2,36.3,2.5,54.2,5.6c-8.5,3.4-15.5,9.4-21.1,16.5
			c-25.1-1.5-50.1-0.3-75.2-0.6c5.1-6.6,11.1-12.6,18.7-16.3L2846.7,1558.4z"/>
		<path class="st6" d="M3098.5,1577.1c5.8-0.6,11.5,0.5,17.3,1c-2.8,4-5.6,8.1-8.5,12.1c5.2,1.3,10.4,2.6,15.7,3.9
			c2.7-4.3,5.3-8.7,8.1-13c4.7,1.4,9.4,2.7,14.1,4.1c-1.7,4.4-3.8,8.7-5.5,13.1c4.7,1.1,9.4,2.3,14.3,2.9c3-3.3,3.8-8.1,5.7-12
			c4.4,1.2,8.8,2.4,13.2,3.7c-0.7,4.9-1.5,9.8-2.5,14.7c5,2.1,10.1,3.8,15.5,4.9c0.4-4.5,0.8-8.9,1.2-13.3c4.5,1.8,9.1,3.7,13.6,5.5
			c-0.1,5.1-0.2,10.3-0.2,15.4c4.6,2,9.3,4.1,13.9,6.2c0.3-4.8,0.7-9.6,1-14.4c4.3,2.4,8.7,4.6,12.8,7.4c2.6,4.9,1.7,10.8,2.4,16.2
			c1.8,0.8,5.5,2.2,7.3,3c0,0.9,0.1,2.6,0.1,3.4c0.1,4.4,0.1,8.8,0.2,13.3c1,0.6,3,1.7,4,2.2c-4.7-0.6-9.4-1.2-14.1-1.9
			c-1.9,6.9-3.8,13.6-6.2,20.3c-5-2.9-10-5.7-15.1-8.5c1.6-6.7,3.4-13.3,5.6-19.7c-5.1-3.3-10.7-6-16.3-8.1
			c-1.5,6.2-2.9,12.5-4.2,18.8c-6-1.2-11.8-3.3-17.4-5.7c1.8-6.6,3.6-13.1,5.5-19.6c-5.2-2-10.4-4-15.6-5.9
			c-2.1,6-4.2,12.1-6.1,18.2c-5.6-1.4-11.1-3-16.5-4.5c1.5-6.6,3.5-13.1,5.6-19.6c-5.4-1-11-4.5-16.4-3c-2.7,5.6-4.7,11.5-7,17.3
			c-5.6-1.4-11.1-2.9-16.7-4.3c1.5-6.5,5.9-12.7,5.1-19.5c-4.7-2.1-9.9-2.4-14.9-3.4c-2.7,6.6-5.5,13.2-8.4,19.8
			c-5.7-1-11.3-2-16.9-2.9c1.7-5.2,3.6-10.3,5.9-15.3c5.1-5.9-4.5-7.3-8-7.5l2.3-3.4c2.5-3.8,5.1-7.5,7.5-11.4
			c3.7-0.1,7.4-0.3,11.2-0.4C3093.3,1583.5,3095.7,1580.1,3098.5,1577.1z"/>
		<path class="st6" d="M3378.3,1714.9c16.1,8.2,31.3,18,46.2,28.2c5.6,3.6,9.7,8.9,13.5,14.3c1.7-0.3,5.2-0.7,6.9-1l-0.7,2.9
			c15.7,10.5,25.5,28.1,43.1,36.1c-10.2,10.3-24.1,3.9-35-1.5c1.3-10-1.4-19.7-4.6-29.1c-3.2-0.2-6.4-0.3-9.6-0.5
			c8.9,2.9,5.4,14,7.2,21.1c-15.2-11.9-29.8-24.8-45.9-35.5c-6-4.5-14-8.1-15.1-16.5C3382.8,1727.1,3380.8,1720.9,3378.3,1714.9z"/>
		<path class="st6" d="M3638.4,1935.6c20.9-4.5,41.5-10.2,61.8-17c-34.7,52.6-71.4,103.9-107,155.9c-29,41.2-57.1,83.1-86.8,123.7
			c-10.9-5.8-18.6-16.2-29-22.8c0.8-1.7,2.3-5,3-6.6C3534.1,2091.8,3586.1,2013.6,3638.4,1935.6z"/>
		<path class="st6" d="M3399.3,2255.6c5-7.9,9.2-16.5,16-23.1c-0.2,12.2,1.4,24.3,4.6,36c-25,29.7-40.7,65.7-59.4,99.5
			c-2.1-14.3-2.8-29.2,0.5-43.4C3372.6,2301,3385.4,2277.9,3399.3,2255.6z"/>
		<path class="st6" d="M3353.5,2340c-2.5,19-5.3,38.2-0.1,57.1c-8,14.7-11,32.3-23.4,44.2c-5,4.5-12.5,11.3-18.4,4.3
			c12.1-12.4,16.4-29.7,21.5-45.7C3338.8,2379.6,3345.5,2359.5,3353.5,2340z"/>
	</g>
	<g>
		<g>
			<path class="st12" d="M4131.7,616.9c26.8,32.7,43.3,72.8,56.8,112.5c27.6,83.3,33.7,172.2,29.8,259.4
				c-7.1,128-38.7,253.5-82.1,373.7c-42.7,118.4-98.1,231.8-161.4,340.4c-111.3,191.8-239.4,372.8-361.9,557.3
				c25.9,26.7,37,65.3,34.2,102.1c-2.6,48.9-28,95.2-65.5,126c-37.2,29.2-85.4,41.9-132.1,40.7c-9.2-0.1-18.6-1.9-27.8-0.5
				c-8.1,4.7-16.7,9.8-21.6,18.1c-14.1,23.2-39.8,39-66.8,40.7c-28.4,1.9-58-8.9-76.6-30.9c-19.1-21.4-24.1-52.7-17.1-80
				c4.1-17.3-7.5-33.5-7.6-50.7c8.5-10.5,22.2-16.6,28.6-28.7c15.6-64.4,42.2-126.7,81.4-180.3c-7.3-4.8-15-9.3-21.4-15.2
				c-22.3-21-27.9-56.9-14.8-84.4c9.1-21.2,29.7-35.8,52-40c31.6-5.8,64.9,5.2,88.8,26.2c27.8-38.9,54.9-78.4,81-118.6
				c-76.8,8.7-154.5,13.6-231.6,6.2c-126-9.4-246.8-53.7-357.9-112.4c-51.8-26.3-101.2-57.3-153.9-81.9
				c-67-30-139.2-47.2-212.1-54.4c-80-7.5-161.7-0.5-238.6,23.2c-99.4,33-184.5,100.6-250.9,180.7c-24.2,30.6-44.3,64.3-68.7,94.7
				c2.4-71.3,7-143.3,26.9-212.2c22.4-82.3,60.3-160.6,114-226.9c43.4-53.4,98.2-98.6,161.8-125.1c15.7-8.3,30.8-19.4,40.6-34.5
				c13.5-25.1,12.6-59.6-8.1-80.6c-29.9-33.1-77.6-41.9-120-36.3c10.9-14.1,28.5-20.1,44-27.3c-16.2-13.9-33.4-26.8-46.8-43.6
				c-9.8-12.3-20.1-26-20.7-42.5c55.9,7,113-2.2,165.6-22c-13.7-22.3-36.1-36.8-54.1-55.1c24.4,0.3,48.7-2,73.1-2.1
				c34.6-0.6,68.9-9.4,100.4-23.6c9.5-5,23.9-12.6,20.4-25.6c-2.4-8.8-13.3-8.7-20.6-8.3c-34,3.7-64.9,19.3-96.8,30.6
				c-1.8-21.9,2.6-43.7,7.9-64.8c-25.7-1.9-50.1-10.8-74.1-19.6c11.6-4.9,23.9-7.8,35.6-12.5c38.6-15.1,71-41.7,104.9-64.9
				c98.8-70.1,212.1-119.2,330.6-143.6c67.2-13.7,136.1-20.7,204.6-15.7c116,6.2,229.5,35.1,339.2,72.2
				c75.9,25.5,149.1,58.4,225.5,82.4c75.6,24.2,154.1,41.9,233.7,43c67.4,1.4,135-9,199.2-29.7c29.8-9.6,58.8-22,86.1-37.4
				c6.6-2.8,6.7-10.8,8.7-16.7c15.6-65.8,32.4-132,34.8-199.9C4132.1,671.3,4131.5,644.1,4131.7,616.9z M4149.6,729.4
				c-2.6,68.5-13.6,137-36.3,201.7c-65.3,38.8-137.9,67-213.7,74.7c-46.1,5.6-92.7,8.9-138.9,3.8c-66.7-5.9-131.1-25.8-194.7-46.1
				c-80.4-24.8-158.5-56.5-238.4-82.8c-110-37-223.7-66.6-340-72.3c-89.3-4.1-179.5,7.2-264.5,35.4
				c-113.3,37.2-215.1,102.7-308.3,176.3c16.2-4.3,32-9.8,48-14.9c-13.7,20.3-31.2,38.2-41.5,60.7c45.7-29.7,100.1-47.4,154.9-44.9
				c-15.3,6.4-30.4,14.2-41.4,27c13.5,0.3,28.7-4.1,40.9,3.7c8.4,6.2,4.3,18.1-0.1,25.5c-17.9,30.3-51.2,46.8-83.6,57
				c-39.1,12.6-79.6,22-120.8,24.5c24.5,10.8,49.4,21.8,69.3,40.1c-11.5,3.3-23.5,5-35,8.6c-18.9,4.7-36.5,13.5-55.5,18.1
				c-26.9,6.5-54.6,9.9-82.2,10.2c14.1,11.9,28.2,24,43.1,34.9c18.5,13.9,39.7,24.3,56,41.1c23.8,22.2,38.6,54.7,36.8,87.6
				c-2,30.4-14.7,60-34.6,83c-5.6,7.6-15.6,8.1-23.7,11.4c-55.9,20.2-105.5,55.9-146.4,98.8c-77.3,82.1-121.5,190.2-143.6,299.7
				c-3.2,19-8.3,37.9-9.2,57.2c56.3-72.6,126.3-135.4,207.4-178.8c91.4-49.1,197.7-61.8,300-56.7c82.1,5.8,163.9,24,239.4,57.5
				c47.8,22.2,92.8,49.8,139.5,74.2c112.3,60.6,234.2,108.8,362.4,118.2c96.3,9.6,193.4,0.4,288.6-15.3
				c-43.7,64.7-87.1,129.7-131.9,193.7c-8.8-7-16.2-15.6-25.6-21.9c-18.4-13.3-41.8-21.2-64.5-17.6c-26.4,4.8-43.5,35.7-34.5,60.9
				c5.3,15.7,19.2,27.2,35,31.1c7.5,1.9,19,8.3,13.6,17.7c-27.5,44.2-55,89-72,138.6c-6.9,19.1-11.1,39.2-18.8,58.1
				c-4.1,11.6-16.8,16.3-23.5,25.9c0.2,12,5.7,23,7.6,34.7c-6.5,16.1-9.1,34.5-2.4,51.1c8.4,23.4,32.1,40.4,57.1,39.8
				c26.4,2.2,51.1-16.2,60.2-40.6c10.5-4.7,20.2-11.2,27.3-20.4c21.4,1.5,42.9,4.8,64.3,1.6c39-3.8,78.4-18.9,104.9-48.8
				c30.8-32.7,46.4-80.1,37.9-124.6c-4.4-26.1-19.8-49.2-39.5-66.3c102.8-149.5,203-301,296.9-456.4
				c33.5-54.9,64.4-111.3,97.6-166.4c66-111.4,122.1-229.3,160.2-353.4c36.2-117.4,56.5-239.9,57.7-362.8
				c1.5-69.4-10.1-140-40.3-202.8C4150.5,722.9,4149.8,726.1,4149.6,729.4z"/>
		</g>
		<path class="st12" d="M3137,1056.9c20.8-42.6,66.1-71.7,113.3-72.8c-13.9,6.3-28.9,10.2-41.6,18.9c-24.6,16.4-41.4,43.3-46.8,72.2
			c-2,15.8-0.5,31.7-0.8,47.5c-12.6,3.4-25,7.8-37.8,10.2C3123.7,1107.2,3124.1,1080,3137,1056.9z"/>
		<path class="st12" d="M3457.8,1050.8c41.5,29.8,62.5,86.1,50.8,136.2c-4,24.3-19.3,44.1-32.7,64c-9.6-9.6-16.9-21.1-24.7-32.1
			l2-2.6c9.6-12.6,20.8-24.4,27-39.3c12.6-29,13.2-63.7-0.7-92.4C3473.7,1072.5,3464.6,1062.4,3457.8,1050.8z"/>
		<path class="st12" d="M2780.2,1099.3c1-7.1,2.6-14.1,5.2-20.8c2.1,17.4,1.5,34.9,4.3,52.2c7.5,55.4,27.9,108.4,54.3,157.4
			c4.5,13.4,11.4,25.8,17.9,38.3c41.3,75.1,96.1,142.5,159.6,199.8c1.1,1.3,3.2,4,4.3,5.3c-8.5,2.9-16.5,7.3-25.2,9.3
			c-68.8-57.5-129.3-126.6-171.3-206.4C2791.6,1262.8,2769.3,1180.6,2780.2,1099.3z"/>
		<path class="st12" d="M3191.9,1131.8c7,0.4,14.4,0.1,20.6,3.8c24.9,12.5,44.8,32.4,66.1,49.9c8.5,6.7,18.1,12.8,29.1,13.8
			c33.9,2.5,68.5-6.4,102,2.6c5.1,1.1,9.1,4.4,12.6,8c-20.8-1.3-42-2.5-62.6,1.9c-22.2,3.2-45.6,8.4-67.6,1.4
			c-22.8-10.3-39.7-29.8-56.6-47.6C3222.7,1152.3,3206.7,1142.8,3191.9,1131.8z"/>
		<path class="st12" d="M3144.8,1162.5c1.3-0.9,4-2.7,5.3-3.7c0.6,12.3-6,23.2-8,35.1c-3.4,14.1-1.6,29.5,6,42
			c-1.9,1.3-5.5,3.9-7.4,5.3c-0.1,2.4-0.4,7.3-0.6,9.8c-5.5-5.2-10.8-11.3-11.9-19.1C3123.7,1207.5,3133.7,1183.6,3144.8,1162.5z"/>
		<path class="st12" d="M3259,1217c15.7,15.7,38.4,21.9,60,20.6l-0.8,2.3c-5.2,12.6-2.4,26.5-0.3,39.5c1.8,10.7,5.8,21.3,14.1,28.6
			c-0.6,5.3-1.1,10.6-1.7,16c-8.9-4.3-18-10.1-21.9-19.7c-6.4-16.8-2.5-36.2-11.3-52.3c-5-9.2-16.6-15.1-26.7-11.3
			c-18.1,5.7-27.3,23.9-41.9,34.6c-9.1,6.8-21.1,5.1-31.7,4.5c2.7-4.4,5.6-8.6,8.3-13c-1.9-0.7-5.7-2.2-7.5-2.9
			c7.8,0.9,16.3,1.5,23.1-3.2c15.7-9.9,29.8-23.8,37.1-41.1L3259,1217z"/>
		<path class="st12" d="M3089.9,1238.7c8.7,10.5,11.3,26.9,25.1,32.5c17.5,8.4,36.7,14.1,51.7,27c9.2,7.9,15.1,19.5,15.1,31.7
			c-14.6-27.7-46.8-36.2-72.4-50C3094.4,1272.5,3088.4,1254.5,3089.9,1238.7z"/>
		<path class="st12" d="M3386.7,1256.6c18.1-7,38.3-6.7,57.1-2.4c-4.1,25.7-9.2,53.5-28.5,72.5c-5.5,6.1-13.6,8.2-21.3,9.8
			c1.9-5.5,6.5-12.5,0-16.8c27.9-9.7,35.3-40.5,45.4-64.8C3421.8,1251.5,3404.1,1253.6,3386.7,1256.6z"/>
		<path class="st12" d="M3245.7,1286.3c4.7-6.3,6.6-18,16.7-16.8c-5.4,12.2-12.9,23.6-23.7,31.5c-8.2,5.8-14.1,18-7.3,27
			c-0.3,4-0.6,8-0.9,11.9c-8.7-4.6-14.5-15.5-9.6-24.9C3224,1301.4,3239.7,1297.9,3245.7,1286.3z"/>
		<path class="st12" d="M3103.1,1292.5c5.2,2.3,10.4,4.7,15.6,7.2c-0.8,15.1-4,30-3.5,45.1c-7.1-0.5-14.3-0.2-21.4,0.3
			c-0.1,16.8,6.3,32.6,14,47.2c10.8,20.5,19.2,42.1,27,63.9c2.8,8.4,7.5,16,12.7,23.1c36.4-5.5,76.4,7.2,102.4,33.6
			c8.8-2.4,17.4-6.1,24.9-11.4c26.5-17.8,54.8-33,84-46c-1.5,3.1-3.6,5.5-6.5,7.3c-19.9,13.6-40.5,26.4-59.7,41
			c-15.9,12.2-32.8,25.2-53.2,28.1c-19,3.5-38-1.7-55.8-8.1c-15.8-5.6-30.2-14.9-41.5-27.4c-11.3-13-16.5-29.9-21-46.3
			c-7.6-28.5-19.1-55.8-27.3-84.1C3088.9,1341.1,3098.9,1316.7,3103.1,1292.5z"/>
		<path class="st12" d="M3166.7,1326.6c5.5,4.5,10.4,9.7,14.2,15.8c-1.1,5.1-2.3,10.1-3.1,15.2c-2.4-0.4-7.1-1.2-9.4-1.5
			c-3.2,11.7-6.3,23.9-14.6,33.2c-6-10.6-6.6-24.3-0.4-35.1C3158.2,1345.2,3163.4,1336.4,3166.7,1326.6z"/>
		<path class="st12" d="M3408.6,1368.8c12.6-1.2,23.4-8.8,34.3-14.5c-8.5,14.6-25.4,27.6-43.1,23.9c-27.1-5.3-54.6-13.7-82.4-7.8
			c7.2-8.1,17.8-12.2,28.4-12.1C3367.4,1357.1,3387.5,1366.4,3408.6,1368.8z"/>
		<path class="st12" d="M3300.3,1398c1.9-5.4,3.8-10.7,6.2-15.9c6.6-0.3,13.3-0.9,19.9-1.5c-6.1,16.3-2.3,36.7-15.7,49.7
			c-3.1,3.8-7.6,5.7-12.1,7.3c0.4-8.5,2-16.8,4.6-24.8c1.9-0.8,5.7-2.3,7.6-3.1c-0.6-1.2-1.8-3.5-2.4-4.6c-4.6-1.3-9.2-2.5-13.8-3.7
			C3296.5,1400.3,3298.4,1399.1,3300.3,1398z"/>
		<path class="st12" d="M3380.6,1388.4c5.9,0.8,11.7,1.9,17.5,3.2c-8,17.3-15.2,35.1-25.3,51.4c-4-6.5-8.9-12.3-14.5-17.4
			C3365.9,1413.3,3374,1401.3,3380.6,1388.4z"/>
		<path class="st12" d="M3735.8,1465.7c13.1-11.2,22.9-25.6,36-36.8c-2.7,10.9-10,19.6-15.9,29c-30,41.9-68.9,77.3-112.4,104.6
			c-93.9,57.9-203.9,84-313.1,90c-4.3-8.3-9-16.4-13.4-24.5c95.7-8,190.8-31.4,276.9-74.5c4-1.6,7.2-4.5,10.4-7.3
			C3652.6,1527.9,3697.5,1500.3,3735.8,1465.7z"/>
		<path class="st12" d="M2953.9,1544.6c5.3-9.3,1.4-20.3,4.9-29.9c9.5,17.4-1,36.9-9.1,52.6c-9.6,23.9-11.7,50.4-23,73.7
			c-5.1,11.1-16,18.6-27.6,21.4c-19.3,3.3-39.3-1-56.4-10.3c-20.7-12.2-34.6-33.8-40.6-56.8c-8.1-6.8-12.9-16.1-15.6-26.2
			c-5.4,11.7,2.7,21.8,6.2,32.4c-8.8-3-12.2-11.9-15.7-19.7c-0.6,1.8-1.9,5.4-2.5,7.1c-6.2,3.1-15.7,3.5-18.9-4.1
			c-5-7.5,2.6-18.9,11.4-17c5.1-0.7,7.4,4.5,10.4,7.7c2.1-5.9,4.8-11.6,8.3-16.9c11.3,2.7,22.9,1.9,34.3,1.4
			c-10.2,3.6-21.1,2.9-31.7,3c6.9,9.6,18.9,18.9,31.2,13.7c-0.6,4.7-0.8,9.4-0.9,14.1c-3.4,0.8-6.9,1.5-10.2,2.3
			c5.2,31,30.7,58.9,62.7,61.7c13.9,2.8,27.5-4.5,34.8-16.3c5.5-0.2,11.5,0.5,16.3-2.8c-4.1-3-11.6-3.2-12.4-9.3
			c-2.2-8.6,0.7-17.3,2.6-25.6c3.6-11.8,4.7-26,15.4-34C2936.9,1560.3,2949.2,1556.2,2953.9,1544.6z"/>
		<path class="st12" d="M2828.4,1577.6h0.7c25.1,0.3,50.1-0.9,75.2,0.6c-3,7.3-5.4,14.8-7.6,22.5c-22.6-5.7-45.9-6.8-68.9-9.7
			C2827.9,1586.5,2828.1,1582.1,2828.4,1577.6z"/>
		<path class="st12" d="M3357.5,1689.8c3-12.2,7.9-26.7,20.3-32.1c-2.5,9.5-11.8,15.6-12.7,25.8c-4.6,16.8,12.5,30.6,7.8,47.5
			c-4.7,14-9.9,28.2-17.7,40.7c-4.4,8-13.7,4.9-20.8,3.9c3.6,4.6,7.7,8.7,12.8,11.7c-0.4,10.7,1.7,22.3,10.8,29.1
			c27.1,23.3,70.3,17.2,95.1-6.8c-2.4-2.2-4.9-4.4-7.3-6.5c2.1-3.1,4.3-6.2,6.5-9.2c10.9,5.4,24.7,11.8,35,1.5
			c0.6-0.2,1.7-0.7,2.3-0.9c0.9,6.8-0.3,13.5-1.6,20.2c1.4-0.8,4.2-2.4,5.7-3.2c12,0.1,16.9,17.9,5.7,22.8
			c-9.5,5.6-18.9-5.4-16.8-14.8c-5.5,4.8-17.9,13.3-22.1,3.4c11.5-0.9,21.1-8.6,24.2-19.8c-8.3,6.6-17.7,12.1-28.6,12.3
			c-16.5,12.3-36,21.7-56.9,21.6c-18.2,0.1-35.9-7-50.6-17.5c-14-9.9-23.3-27.4-19.4-44.7C3335.9,1745.6,3354.1,1720,3357.5,1689.8z
			"/>
		<path class="st12" d="M3384.3,1733.4c1.1,8.3,9.1,12,15.1,16.5c16.1,10.8,30.7,23.6,45.9,35.5c-2,4.3-4.4,8.3-8.3,11.1
			c-19-12.5-38.7-23.9-59.4-33.3C3380.6,1753.5,3383.8,1743.7,3384.3,1733.4z"/>
		<path class="st12" d="M3735.1,1907.6c13.7-5.6,27.6-11.2,41.7-15.9c-36.6,58.7-75.6,115.9-113.3,173.9
			c-37.7,56.9-75.4,113.7-113.5,170.3c-7.6-5.6-14.7-11.7-21.5-18.2c69-101.7,137-204.1,204-307.2
			C3733.2,1909.8,3734.5,1908.3,3735.1,1907.6z"/>
		<path class="st12" d="M3368.5,2145c17.3-1.7,32.1,10.1,44.9,20.3c15.4,12,22.9,31.2,38.1,43.4c28.8,24.9,58.3,48.8,87.4,73.3
			c18.8,18.1,38.6,39.9,39.6,67.5c1.6,25.3-9,50.1-24.7,69.5c-23.3,29-62,41.2-98.1,40.7c-26.9,0.7-54.5-3.1-78.6-16.1
			c-14.9,12.9-36.4,15.8-55.3,12.5c13.4,15.9,35.7,18.8,54.2,11.2c3.3,10.3-7.7,14.1-15.7,15.7c-8,1.1-16.1-0.4-23.7-2.6
			c10.8,7.8,12.6,26.8,1.2,34.9c-10.2,8.2-27.3,3.6-31.8-8.8c-7.5-15.1,8.7-32.3,24.4-28.8c-9.2-5.7-17.6-13.7-21.4-24.2
			c-2.5-3.1,0.8-5.9,2.6-8c5.9,7,13.4,0.2,18.4-4.3c12.4-11.9,15.5-29.6,23.4-44.2c5.6,11.9,13.6,26.8,29.2,24.9
			c-0.4,2.1-1.1,6.4-1.4,8.5c26.8,14,57.8,18.6,87.8,15.8c36.2-3.8,70-30.8,78.3-67.1c3.6-22.3-9.5-43.1-24.5-58.3
			c5.3-9.5,7.6-20.2,5.3-31c-3.1,9.9-12.5,14.7-22,16.6c-22.7-6.3-38.7-24.7-56.8-38.7c-10.1-7.4-19.2-16.7-23.5-28.7
			c-5.8-12.8-2.3-27.2-6-40.5c-3.3-14.9-13-28-25.4-36.5c-8.1-5.7-18.1-7.2-27.1-11C3367.5,2149.6,3368.2,2146.6,3368.5,2145z"/>
		<path class="st12" d="M3360.6,2368c18.7-33.8,34.4-69.7,59.4-99.5c8.5,15.2,21.5,26.9,35,37.6c-20.8,30.5-41.4,61.2-59.5,93.4
			C3375.8,2404,3364.4,2384.1,3360.6,2368z"/>
		<path class="st12" d="M3441,2404.8c12.6-21,24.6-42.5,40.2-61.4c15,3.9,29.2,23,18.7,37.9
			C3488.9,2402.8,3462.5,2406.5,3441,2404.8z"/>
	</g>
	<g>
		<g>
			<path d="M4149.6,729.4c0.2-3.3,0.9-6.5,1.4-9.8c30.2,62.8,41.8,133.4,40.3,202.8c-1.3,122.9-21.5,245.4-57.7,362.8
				c-38.1,124.1-94.2,242-160.2,353.4c-33.2,55.1-64.1,111.5-97.6,166.4c-93.9,155.4-194.1,306.8-296.9,456.4
				c19.8,17.1,35.1,40.2,39.5,66.3c8.5,44.6-7.1,91.9-37.9,124.6c-26.5,29.9-66,45-104.9,48.8c-21.4,3.1-42.9-0.2-64.3-1.6
				c-7.1,9.2-16.8,15.7-27.3,20.4c-9.1,24.3-33.8,42.8-60.2,40.6c-25,0.6-48.7-16.4-57.1-39.8c-6.8-16.6-4.2-35,2.4-51.1
				c-1.9-11.7-7.4-22.7-7.6-34.7c6.8-9.6,19.4-14.3,23.5-25.9c7.6-18.9,11.9-38.9,18.8-58.1c17-49.5,44.5-94.4,72-138.6
				c5.3-9.4-6.1-15.8-13.6-17.7c-15.8-4-29.7-15.5-35-31.1c-9-25.2,8-56.1,34.5-60.9c22.7-3.6,46.1,4.3,64.5,17.6
				c9.4,6.3,16.8,14.8,25.6,21.9c44.8-64,88.2-129,131.9-193.7c-95.2,15.8-192.3,24.9-288.6,15.3c-128.2-9.4-250.1-57.6-362.4-118.2
				c-46.7-24.4-91.7-52-139.5-74.2c-75.5-33.5-157.3-51.6-239.4-57.5c-102.3-5.1-208.6,7.6-300,56.7
				c-81.1,43.4-151.2,106.1-207.4,178.8c0.9-19.3,5.9-38.2,9.2-57.2c22.1-109.5,66.3-217.7,143.6-299.7
				c40.9-42.9,90.5-78.6,146.4-98.8c8.1-3.2,18.1-3.8,23.7-11.4c19.9-23,32.6-52.5,34.6-83c1.9-32.9-13-65.4-36.8-87.6
				c-16.3-16.8-37.5-27.3-56-41.1c-15-10.9-29-22.9-43.1-34.9c27.7-0.3,55.3-3.7,82.2-10.2c19-4.5,36.6-13.4,55.5-18.1
				c11.5-3.6,23.4-5.2,35-8.6c-20-18.3-44.9-29.3-69.3-40.1c41.1-2.5,81.6-11.9,120.8-24.5c32.4-10.2,65.6-26.6,83.6-57
				c4.4-7.5,8.5-19.4,0.1-25.5c-12.2-7.8-27.4-3.4-40.9-3.7c11-12.8,26.1-20.6,41.4-27c-54.8-2.4-109.2,15.2-154.9,44.9
				c10.3-22.5,27.8-40.4,41.5-60.7c-16,5.1-31.8,10.6-48,14.9c93.2-73.5,194.9-139.1,308.3-176.3c85-28.2,175.2-39.5,264.5-35.4
				c116.3,5.7,230,35.3,340,72.3c79.9,26.3,157.9,58,238.4,82.8c63.5,20.3,127.9,40.1,194.7,46.1c46.2,5.1,92.9,1.8,138.9-3.8
				c75.9-7.7,148.4-35.9,213.7-74.7C4136,866.4,4147,797.9,4149.6,729.4z M2808.2,862.5c-101.4,20.2-200.2,61.9-279.3,129.6
				c-5,4.1-9.6,8.7-13,14.2c28.8-9,59.8-16.4,89.8-9.5c15.8,3.6,30.5,15.4,33.5,32.1c4.1,21.9-4.3,43.9-14.3,63
				c-6.9,14.4-19.2,24.9-31.2,34.9c-26.3,21.6-57.8,37.2-91.3,43.7c-10.2,2-20.7,2.1-30.7,4.6c23.4,7,47.3,13.6,68.6,25.9
				c2.6,1.5,4.6,3.9,6.7,6c-26.4,3.5-52.7,8.1-78.3,15.6c-36.5,12-73.2,24-111,31c42,22.5,80.5,59.5,89.7,108.2
				c9.1,42.4-8.6,84.5-29.5,120.5c39.9-4.2,81.3-1.4,118.7,14c-15.3,0.9-30.6-0.4-45.9,0.1c-78.3,1.8-156.7,26.5-219.5,74
				c-74,55.2-121.9,139-148.1,226.5c12.4-8.4,23.9-18,36.4-26.2c85-57,185.6-88.8,287.3-95.7c102.9-3.3,207.7,1.6,306.8,32.1
				c55.3,16.7,107.1,43.1,156.3,73.2c57.4,35.4,117.8,66.4,181.1,89.8c60.5,22.7,123.6,37.3,187.1,47.7
				c130.2,18.6,263.5,4.2,389.8-30.6c52.3-14.4,103.7-32.5,153.3-54.7c10.9-4.5,14.7-17.1,21.4-25.9
				c101.3-159,193.4-325.5,255.2-504.4c42.2-121.6,66.4-249.7,68.2-378.5c-33.8,33-74.2,58.6-117.6,76.8
				c-66,27.9-137.4,42.1-208.9,44.4c-78.4-0.5-155.9-15.3-231.3-36c-79.5-21.5-157.1-49.4-235.1-75.7
				c-99-33.9-199.6-65.7-303.9-77.8C2982.5,844.6,2894.1,845.7,2808.2,862.5z M3735.1,1907.6c-0.7,0.8-2,2.2-2.6,3
				c-67,103.1-135,205.5-204,307.2c6.8,6.4,13.9,12.6,21.5,18.2c38.1-56.6,75.8-113.4,113.5-170.3c37.7-58,76.7-115.2,113.3-173.9
				C3762.7,1896.4,3748.9,1902,3735.1,1907.6z M3638.4,1935.6c-52.3,78-104.2,156.2-158.1,233.2c-0.7,1.6-2.2,5-3,6.6
				c10.4,6.6,18.1,17,29,22.8c29.7-40.6,57.8-82.5,86.8-123.7c35.7-51.9,72.4-103.3,107-155.9
				C3679.9,1925.4,3659.3,1931.1,3638.4,1935.6z M3368.5,2145c-0.3,1.5-0.9,4.5-1.3,6.1c9,3.8,19,5.3,27.1,11
				c12.5,8.5,22.2,21.6,25.4,36.5c3.7,13.3,0.2,27.7,6,40.5c4.4,12,13.5,21.3,23.5,28.7c18,14,34,32.5,56.8,38.7
				c9.5-1.9,18.8-6.7,22-16.6c2.3,10.8,0,21.5-5.3,31c15,15.2,28.1,36,24.5,58.3c-8.3,36.2-42,63.3-78.3,67.1
				c-29.9,2.8-61-1.7-87.8-15.8c0.4-2.1,1-6.4,1.4-8.5c-15.6,1.9-23.6-13-29.2-24.9c-5.2-18.8-2.5-38.1,0.1-57.1
				c-8,19.5-14.7,39.5-20.4,59.8c-5.1,16-9.4,33.3-21.5,45.7c-1.8,2.1-5,4.9-2.6,8c3.8,10.5,12.2,18.4,21.4,24.2
				c-15.7-3.4-31.9,13.8-24.4,28.8c4.5,12.4,21.6,17,31.8,8.8c11.5-8.1,9.7-27.1-1.2-34.9c7.7,2.2,15.7,3.7,23.7,2.6
				c8-1.6,18.9-5.4,15.7-15.7c-18.5,7.6-40.8,4.7-54.2-11.2c18.9,3.3,40.4,0.4,55.3-12.5c24,13,51.6,16.8,78.6,16.1
				c36.1,0.5,74.8-11.6,98.1-40.7c15.7-19.4,26.3-44.2,24.7-69.5c-1-27.6-20.8-49.5-39.6-67.5c-29.1-24.4-58.6-48.4-87.4-73.3
				c-15.2-12.2-22.6-31.4-38.1-43.4C3400.6,2155.2,3385.8,2143.3,3368.5,2145z M3399.3,2255.6c-13.9,22.3-26.7,45.4-38.2,69
				c-3.4,14.1-2.7,29-0.5,43.4c3.8,16.1,15.2,36,34.8,31.5c18.1-32.2,38.7-63,59.5-93.4c-13.5-10.7-26.5-22.4-35-37.6
				c-3.2-11.8-4.8-23.8-4.6-36C3408.5,2239.1,3404.3,2247.7,3399.3,2255.6z M3441,2404.8c21.6,1.7,48-2,58.9-23.5
				c10.5-14.9-3.7-34-18.7-37.9C3465.6,2362.3,3453.5,2383.8,3441,2404.8z"/>
		</g>
		<g>
			<path d="M3214.9,958.5c43.8-11.9,90-4.9,133.3,5.7c45.1,12.1,88.7,31.5,126.2,59.7c49.6,36.9,76,102.8,66.2,163.9
				c-6.9,42-35.5,75.1-55.5,111.1c-7.1,12.6-1.8,27.1,1.9,39.9c-11,22.2-26.8,42.6-46.7,57.4c-6.3,5.3-16.6,6.4-19.4,15
				c-8,18.5-16.7,36.9-28.5,53.3c-9.9,14.4-25.4,23.2-39.3,33.1c-21.5,14.1-43,28.3-63.2,44.3c-11.2,9.3-25.2,13.3-38.3,18.9
				c43.3,0.3,86.4-5,129.3-10c70.3-10.6,141.2-24.8,205.9-55.5c91.9-43,174.9-103.6,249.7-171.8c-15.1,51.4-30.2,103.7-58.2,149.8
				c-28.6,46.4-72.5,80.2-116.7,110.5c-78,49.5-168.6,74.4-258.6,90.7c-4.6,4.5-8.5,9.7-12.7,14.7c25.5,13.3,48.7,30.6,71.3,48.4
				c16.7,12.2,27.5,34.8,50.8,35.3c2.2,7.7,1.6,16.9,7.6,23c5.7,7,12,14.3,13.3,23.7c4.9,23.8-19.5,47.7-43.1,42.8
				c-8-0.9-14.9-5.6-21.8-9.3c-9,0.1-18.8-2.8-27.1,1.8c-27.9,13.5-62.3,14.7-90-0.2c-20.7-11.2-39.4-28.5-46.9-51.3
				c-3.7-10.3-3.5-21.4-3.3-32.2c-56.6,29.8-124.2,39.9-186.5,24c-71-18.8-128.6-74.2-159.6-139.9c-1.2-5.5-5.2-0.8-6.2,1.7
				c-10.4,17.5-29.2,28.6-48.9,32c-31.1,6-65.3-2.1-88.3-24.5c-10.9-9.7-18.1-22.6-25.4-35c-8.1-6.8-17.1-13.2-28-14
				c-14.1-2-27.3-12.4-30-26.9c-1.9-11.9-2.3-26.3,7.3-35.2c7.9-9,20-11,30.9-14c6.3-3.1,10.8-8.8,16.3-13
				c13.3,10.8,30.6,7.3,45.9,4.3c33.8-2.8,68-1.7,101.5,3.4c-0.9-6.6,0.6-14-2.1-20.1c-59.3-64.3-113.5-135.4-146.8-217.1
				c-15.2-41.3-27.4-84.2-31.1-128.2c-5.3-68.2,19.7-133.5,43.4-196.1c12.2,64.1,29,127.3,51.8,188.4
				c23.2,61.8,52.2,122.1,92.7,174.4c52.7,67.4,113.6,128.4,180.9,181.1c-8.6-12.1-17.2-24.5-20.7-39.2c-7.3-29.1-18.2-57-27.8-85.3
				c-13-33.4-5.7-70.2,3.1-103.7c-15.2-28.1-15.5-61.4-11.4-92.3c10.8-8,24.4-15.9,26.2-30.6c5.3-39.6,2.9-81.5,20.3-118.5
				C3128.7,1003.4,3170,972.8,3214.9,958.5z M3137,1056.9c-12.9,23.1-13.3,50.3-13.7,76.1c12.8-2.5,25.2-6.8,37.8-10.2
				c7.2-2.8,14-6.4,20.7-10.4c-15.3,13.6-32.3,27.7-53.4,30.3c-3.9,14.3-7.5,28.9-13.9,42.3c-5.4,11.2-14.7,19.6-24.5,26.9
				c-0.2,8.9-0.3,17.9-0.1,26.8c-1.4,15.8,4.5,33.7,19.4,41.2c25.6,13.8,57.8,22.4,72.4,50c0.3,4.2,0,8.3-0.8,12.4
				c-3.8-6.1-8.8-11.2-14.2-15.8c-3.3,9.7-8.5,18.6-13.3,27.6c-6.1,10.7-5.6,24.4,0.4,35.1c8.3-9.3,11.4-21.5,14.6-33.2
				c2.3,0.4,7,1.1,9.4,1.5l3,3.6c-4.5,9.1-10.9,18.5-9.5,29.2c6.9,1.2,13.8,2.6,20.8,2c4.8-10.2,4.9-24.2,15.8-30.2
				c1.1,11.8-5.5,22.4-6,34c-1.3,5.1,5.4,4.9,8.4,6.2c5.3,1.5,10.9,2.3,16.3,0.9c2-10.4,5.7-20.4,7.1-30.9c3.8,1.5,7.5,3.1,11.3,4.6
				c-4.1,9.5-6.9,19.5-10.8,29.1c5,6.9,13.9,8.4,21.6,10.6c4.6-9.2,6.8-19.3,10.4-28.9c3-5.2,9,0.5,7.1,4.6
				c-1.8,8.5-5.2,16.6-5.5,25.4c3.8,6.7,12.5,8.8,19.6,9.4c2.9-8.5,5.5-17.1,7.2-26c4.6,1.2,9.2,2.4,13.8,3.7
				c0.6,1.1,1.8,3.4,2.4,4.6c-1.9,0.8-5.7,2.3-7.6,3.1c-2.6,8-4.3,16.4-4.6,24.8c4.4-1.6,9-3.5,12.1-7.3c13.3-13,9.5-33.4,15.7-49.7
				c-6.6,0.6-13.3,1.2-19.9,1.5c3.4-4.2,7.1-8,11-11.8c27.8-5.9,55.3,2.5,82.4,7.8c17.7,3.7,34.6-9.3,43.1-23.9
				c5.5-5.4,9.7-12,14.1-18.3c-11.2-26.6,0.3-54.2,10.4-79c-14.4-15.3-22.1-36.4-23-57.3c2,6.2,3.6,12.4,5.2,18.7l3.5-2l-2,2.6
				c7.8,11,15.1,22.5,24.7,32.1c13.4-19.9,28.7-39.7,32.7-64c11.7-50-9.3-106.4-50.8-136.2c-24.2-22.5-54.8-37-85.4-48.6
				c-39.2-13-80.7-23-122.2-18.2C3203.1,985.2,3157.8,1014.3,3137,1056.9z M2785.4,1078.5c-2.6,6.7-4.2,13.7-5.2,20.8
				c-10.9,81.3,11.4,163.5,49.1,235.2c42,79.8,102.5,148.9,171.3,206.4c8.7-2.1,16.7-6.4,25.2-9.3c-1.1-1.3-3.2-4-4.3-5.3
				c-63.5-57.2-118.3-124.7-159.6-199.8c-6.5-12.5-13.4-24.9-17.9-38.3c25.4,46.3,56.8,89.1,91.8,128.5
				c34.7,37.9,72.1,73.3,109.7,108.3c9.2-2,18.4-4.1,27.7-5.8c-41.2-35.7-81.5-72.7-116.6-114.6c-74.8-87.2-132.6-190.3-161.2-302.3
				c-2.6-10.9-5.1-21.8-8.7-32.4C2786.2,1072.8,2785.4,1075.6,2785.4,1078.5z M3103.1,1292.5c-4.2,24.2-14.1,48.7-9.1,73.5
				c8.2,28.3,19.6,55.6,27.3,84.1c4.5,16.3,9.7,33.2,21,46.3c11.2,12.5,25.7,21.8,41.5,27.4c17.8,6.3,36.8,11.6,55.8,8.1
				c20.4-2.9,37.3-15.9,53.2-28.1c19.2-14.7,39.8-27.4,59.7-41c2.9-1.8,5-4.2,6.5-7.3c6.1-2.2,9.7-8,14-12.4
				c10.1-16.3,17.3-34.1,25.3-51.4c-5.8-1.3-11.6-2.5-17.5-3.2c-6.6,12.9-14.7,24.9-22.3,37.2c-6.4,2.4-14.2,2.8-18.8,8.5
				c-12.4,14-25.1,28.5-42,37c0.3-7.7-2.2-15-8-20.2c-5.2,7.8-9.2,16.4-12.4,25.2c-2.9-0.1-8.6-0.2-11.4-0.2
				c3.3-7.9,10.1-15.4,9.9-24.2c-5.2-4.3-12.2-3-18.3-3.8c-3.9,8.4-8.3,16.8-8.9,26.2c-4.8-0.6-9.6-1.3-14.2-2.2
				c3.3-10.6,11.6-20.3,9.9-32c-5.9-0.7-11.9-3.6-17.8-2.5c-5.4,9.3-7.6,20.2-11,30.4c-3.7-1.7-7.5-3.4-11.3-4.9
				c3.1-9.7,5.5-19.7,7.5-29.7c-2.2-6.1-10.1-6.4-14.9-9.7l-1.6,2.7l-1.8-4.2c-2.5,11.7-6.8,23.3-5.6,35.4c-4.6-2.7-9.4-5-14-7.5
				c4.8-8.1,8.5-16.9,10.9-26c-5.7-3.7-11.4-7.8-18.4-8.3c-3.4,8.6-6.9,17.3-8.4,26.5c-2.9-2.6-5.9-5.2-8.8-7.8
				c3.8-10.2,4.9-21.2,3-32c-8.6-0.3-12.1,8.5-16.5,14.3c-7.6-17.5-10.2-36.5-11.1-55.4c-0.1-6.8-5.2-11.9-9.1-16.8
				c-0.6-15.1,2.6-30,3.5-45.1C3113.5,1297.1,3108.3,1294.7,3103.1,1292.5z M3654.5,1494c-113,61.2-240.9,90.5-368.6,96.2
				c6.5,7.1,12.9,14.2,18.9,21.8c102.2-7.2,204.3-27.2,299.5-65.8c-3.2,2.7-6.4,5.6-10.4,7.3c-86.2,43.1-181.3,66.5-276.9,74.5
				c4.5,8.1,9.1,16.2,13.4,24.5c109.1-6,219.2-32.1,313.1-90c43.5-27.3,82.4-62.7,112.4-104.6c5.9-9.3,13.2-18.1,15.9-29
				c5.3-6.7,7.9-15.2,10.9-23.1C3742.9,1439.2,3700.5,1469.7,3654.5,1494z M2953.9,1544.6c-4.7,11.5-17,15.6-26.3,22.3
				c-10.7,8-11.8,22.1-15.4,34c-1.9,8.3-4.9,17-2.6,25.6c0.8,6.1,8.3,6.3,12.4,9.3c-4.8,3.3-10.8,2.6-16.3,2.8
				c-7.3,11.8-20.9,19.1-34.8,16.3c-32-2.8-57.6-30.7-62.7-61.7c3.4-0.8,6.8-1.5,10.2-2.3c0.1-4.7,0.4-9.4,0.9-14.1
				c6.7-9.5,16.6-15.2,27.4-18.7c-9-0.7-18.1-0.3-26.9,2c-11.5,0.5-23,1.3-34.3-1.4c-3.4,5.3-6.2,10.9-8.3,16.9
				c-3-3.2-5.2-8.3-10.4-7.7c-8.9-1.9-16.4,9.5-11.4,17c3.1,7.6,12.6,7.2,18.9,4.1c0.6-1.8,1.9-5.3,2.5-7.1
				c3.4,7.8,6.9,16.7,15.7,19.7c-3.5-10.6-11.6-20.8-6.2-32.4c2.7,10.1,7.5,19.4,15.6,26.2c5.9,23.1,19.8,44.6,40.6,56.8
				c17.1,9.3,37.1,13.5,56.4,10.3c11.6-2.8,22.6-10.3,27.6-21.4c11.3-23.3,13.5-49.8,23-73.7c8.1-15.7,18.6-35.2,9.1-52.6
				C2955.3,1524.4,2959.2,1535.4,2953.9,1544.6z M3026.4,1558.7c-19.7,7.9-39.1,17.9-54.2,33.2v1.4c-8.9,8.3-4.3,21.7-1.8,31.8
				c14.3,42.7,43,79.6,77.6,107.9c39.1,31.8,90.4,47.2,140.5,43.5c38.2-2.9,76.5-13.4,108.9-34.2c11.3-7.5,23.4-17,25.2-31.6
				c-3-27-16.2-51.5-31.4-73.5c-31.1-44.3-77.2-79.6-130.5-91.5C3116,1536.1,3068.8,1542.1,3026.4,1558.7z M2846.7,1558.4l1.1,2.9
				c-7.6,3.7-13.6,9.7-18.7,16.3h-0.7c-0.3,4.4-0.5,8.9-0.6,13.3c23,2.9,46.3,4.1,68.9,9.7c2.2-7.6,4.6-15.1,7.6-22.5
				c5.7-7.1,12.7-13.1,21.1-16.5c-17.9-3.1-36.1-4.4-54.2-5.6C2862.8,1555.5,2855,1559.8,2846.7,1558.4z M3357.5,1689.8
				c-3.4,30.2-21.6,55.8-28.3,85.1c-3.9,17.3,5.4,34.9,19.4,44.7c14.7,10.5,32.4,17.6,50.6,17.5c20.9,0.1,40.4-9.3,56.9-21.6
				c10.9-0.3,20.3-5.7,28.6-12.3c-3.1,11.2-12.7,18.8-24.2,19.8c4.2,9.9,16.6,1.4,22.1-3.4c-2.1,9.4,7.4,20.4,16.8,14.8
				c11.2-4.9,6.3-22.8-5.7-22.8c-1.4,0.8-4.2,2.4-5.7,3.2c1.3-6.7,2.4-13.5,1.6-20.2c-0.6,0.2-1.7,0.7-2.3,0.9
				c-17.5-8-27.4-25.7-43.1-36.1l0.7-2.9c-1.7,0.3-5.2,0.7-6.9,1c-3.8-5.4-7.9-10.7-13.5-14.3c-14.9-10.2-30.1-19.9-46.2-28.2
				c2.5,6,4.5,12.2,6,18.5c-0.5,10.3-3.7,20.1-6.7,29.8c20.7,9.4,40.4,20.8,59.4,33.3c3.9-2.8,6.3-6.9,8.3-11.1
				c-1.8-7,1.7-18.1-7.2-21.1c3.2,0.2,6.4,0.3,9.6,0.5c3.3,9.3,5.9,19,4.6,29.1c-2.2,3-4.4,6.1-6.5,9.2c2.4,2.1,4.9,4.3,7.3,6.5
				c-24.8,24-68,30.1-95.1,6.8c-9.1-6.8-11.2-18.4-10.8-29.1c-5.1-3-9.2-7.1-12.8-11.7c7,1.1,16.4,4.1,20.8-3.9
				c7.8-12.5,13.1-26.7,17.7-40.7c4.7-16.9-12.4-30.7-7.8-47.5c0.9-10.2,10.2-16.3,12.7-25.8
				C3365.3,1663.1,3360.5,1677.7,3357.5,1689.8z"/>
		</g>
		<path d="M3150.2,1156.5c28.8,13.2,44.5,42.7,70.8,59.1c10.9,7.5,24.6,6.1,36.9,4c-7.4,17.3-21.4,31.2-37.1,41.1
			c-6.8,4.7-15.3,4.1-23.1,3.2c-18.3-4.9-36.9-13.5-49.5-28c-7.6-12.5-9.4-27.9-6-42c2-11.9,8.6-22.8,8-35.1L3150.2,1156.5z"/>
		<path d="M3318,1279.4c-2.2-13-5-26.9,0.3-39.5c6.8,7.3,14,15.2,24,17.7c14.6,3.7,29.8,1.2,44.4-1c17.4-3,35.1-5.1,52.7-1.6
			c-10.1,24.3-17.5,55-45.4,64.8l-3.6,1.7c-20-0.1-40.7-3.3-58.2-13.4C3323.8,1300.7,3319.8,1290.1,3318,1279.4z"/>
		<path d="M3263.2,1268c8-0.6,17.2-0.6,21.3,7.8c1,14.6-4.2,30.5,2.6,44.1c0,1.8,0.1,5.3,0.1,7.1c-2.2,4.4-4.2,8.7-6.3,13.2
			c-1.7,0.8-5,2.4-6.6,3.2c-5-1.6-11-1.8-14.4-6.5c-1.9-4.7-2.6-9.7-3.8-14.5c-5.1,8.5-16.7,14.6-24.8,5.6c-6.9-9-1-21.1,7.3-27
			c10.8-8,18.4-19.3,23.7-31.5L3263.2,1268z"/>
		<path d="M2984,1590.1c11.4-3.5,23.3-3.3,35-4.4c20.2-2.8,40.4,1.7,60.7,1.5c-2.4,3.9-5,7.6-7.5,11.4
			C3043.1,1593.6,3013.6,1590.7,2984,1590.1z"/>
		<path d="M3237.8,1641.8c27,15.2,52.5,33.9,72.8,57.4c-22.3-14.9-44.6-30-68.7-41.9c-1-0.5-3-1.6-4-2.2
			C3237.9,1650.6,3237.9,1646.2,3237.8,1641.8z"/>
	</g>
	<g>
		<g>
			<path class="st13" d="M2808.2,862.5c85.8-16.8,174.3-17.9,260.9-7.2c104.3,12.1,204.9,43.9,303.9,77.8
				c78,26.3,155.6,54.2,235.1,75.7c75.4,20.7,153,35.5,231.3,36c71.5-2.4,142.9-16.5,208.9-44.4c43.4-18.3,83.8-43.9,117.6-76.8
				c-1.7,128.9-26,256.9-68.2,378.5c-61.8,178.8-153.9,345.4-255.2,504.4c-6.7,8.9-10.5,21.4-21.4,25.9
				c-49.6,22.3-100.9,40.3-153.3,54.7c-126.3,34.9-259.6,49.2-389.8,30.6c-63.6-10.4-126.7-25-187.1-47.7
				c-63.3-23.4-123.7-54.4-181.1-89.8c-49.2-30.1-101-56.5-156.3-73.2c-99.1-30.4-203.9-35.3-306.8-32.1
				c-101.7,6.9-202.3,38.7-287.3,95.7c-12.5,8.2-24,17.8-36.4,26.2c26.2-87.5,74.1-171.3,148.1-226.5c62.8-47.5,141.2-72.3,219.5-74
				c15.3-0.5,30.6,0.9,45.9-0.1c-37.3-15.4-78.8-18.2-118.7-14c20.9-36,38.5-78,29.5-120.5c-9.1-48.7-47.6-85.7-89.7-108.2
				c37.9-7,74.5-19,111-31c25.6-7.5,51.9-12.1,78.3-15.6c-2.2-2.1-4.1-4.5-6.7-6c-21.3-12.3-45.2-18.9-68.6-25.9
				c10.1-2.5,20.6-2.6,30.7-4.6c33.5-6.5,65-22,91.3-43.7c12-10,24.3-20.6,31.2-34.9c9.9-19.2,18.4-41.1,14.3-63
				c-3.1-16.6-17.7-28.5-33.5-32.1c-30-6.9-61,0.5-89.8,9.5c3.4-5.5,8-10.2,13-14.2C2608,924.4,2706.9,882.7,2808.2,862.5z
				 M3214.9,958.5c-44.9,14.3-86.2,44.9-106.4,88.4c-17.4,36.9-15.1,78.9-20.3,118.5c-1.8,14.7-15.4,22.7-26.2,30.6
				c-4.1,30.9-3.8,64.2,11.4,92.3c-8.8,33.4-16.1,70.3-3.1,103.7c9.6,28.3,20.5,56.2,27.8,85.3c3.5,14.7,12.1,27.1,20.7,39.2
				c-67.3-52.7-128.2-113.7-180.9-181.1c-40.5-52.4-69.5-112.6-92.7-174.4c-22.8-61.1-39.6-124.3-51.8-188.4
				c-23.7,62.6-48.7,127.9-43.4,196.1c3.7,44,15.9,86.9,31.1,128.2c33.3,81.7,87.6,152.8,146.8,217.1c2.7,6.2,1.2,13.5,2.1,20.1
				c-33.5-5.1-67.7-6.2-101.5-3.4c-15.3,3-32.6,6.5-45.9-4.3c-5.5,4.2-10.1,9.9-16.3,13c-10.9,3-23.1,5-30.9,14
				c-9.6,8.9-9.2,23.3-7.3,35.2c2.7,14.5,15.9,24.9,30,26.9c10.8,0.8,19.9,7.3,28,14c7.4,12.4,14.5,25.3,25.4,35
				c23,22.4,57.2,30.5,88.3,24.5c19.7-3.4,38.5-14.6,48.9-32c1-2.6,5-7.2,6.2-1.7c31,65.7,88.6,121.1,159.6,139.9
				c62.3,15.9,129.8,5.8,186.5-24c-0.1,10.8-0.4,21.9,3.3,32.2c7.6,22.9,26.3,40.2,46.9,51.3c27.6,14.9,62.1,13.7,90,0.2
				c8.3-4.6,18.1-1.7,27.1-1.8c6.9,3.8,13.7,8.5,21.8,9.3c23.5,4.9,47.9-19,43.1-42.8c-1.3-9.3-7.6-16.7-13.3-23.7
				c-6-6.1-5.3-15.3-7.6-23c-23.3-0.5-34.1-23.1-50.8-35.3c-22.5-17.8-45.7-35.1-71.3-48.4c4.2-4.9,8.1-10.1,12.7-14.7
				c90-16.3,180.6-41.2,258.6-90.7c44.2-30.3,88.1-64.2,116.7-110.5c28-46.1,43.2-98.4,58.2-149.8
				c-74.9,68.3-157.8,128.8-249.7,171.8c-64.7,30.7-135.5,44.8-205.9,55.5c-42.9,5.1-86,10.4-129.3,10c13-5.7,27.1-9.7,38.3-18.9
				c20.1-16,41.7-30.2,63.2-44.3c13.9-9.9,29.4-18.7,39.3-33.1c11.8-16.4,20.5-34.8,28.5-53.3c2.9-8.6,13.1-9.7,19.4-15
				c19.9-14.9,35.7-35.2,46.7-57.4c-3.6-12.8-9-27.2-1.9-39.9c20.1-36.1,48.6-69.1,55.5-111.1c9.7-61.1-16.6-127-66.2-163.9
				c-37.4-28.2-81-47.7-126.2-59.7C3304.9,953.6,3258.6,946.6,3214.9,958.5z"/>
		</g>
		<path class="st13" d="M2970.4,1625.2c-2.6-10.2-7.2-23.5,1.8-31.8c0,10.2,0.4,20.8,6,29.7c28.1,51.9,74.2,94.6,129.1,116.3
			c53.3,20.7,113.5,20.1,167.5,2.1c18.1-6.2,37.6-13.3,47.8-30.8c-1.8,14.6-13.9,24-25.2,31.6c-32.5,20.8-70.8,31.3-108.9,34.2
			c-50.1,3.7-101.4-11.7-140.5-43.5C3013.4,1704.9,2984.8,1667.9,2970.4,1625.2z"/>
	</g>
	<g>
		<g>
			<path class="st14" d="M3026.4,1558.7c42.4-16.6,89.7-22.7,134.4-12.9c53.3,11.8,99.4,47.1,130.5,91.5
				c15.2,22,28.3,46.5,31.4,73.5c-10.2,17.5-29.7,24.6-47.8,30.8c-53.9,17.9-114.2,18.5-167.5-2.1c-55-21.7-101-64.4-129.1-116.3
				c-5.6-8.9-6-19.6-6-29.7v-1.4C2987.2,1576.6,3006.6,1566.6,3026.4,1558.7z M3098.5,1577.1c-2.8,3-5.2,6.4-7.6,9.8
				c-3.7,0.1-7.5,0.2-11.2,0.4c-20.3,0.2-40.5-4.4-60.7-1.5c-11.7,1.1-23.6,0.9-35,4.4c29.6,0.6,59,3.5,88.2,8.6l-2.3,3.4
				c3.5,0.2,13,1.7,8,7.5c-2.2,5-4.2,10.1-5.9,15.3c5.6,0.9,11.3,1.9,16.9,2.9c2.9-6.6,5.7-13.2,8.4-19.8c4.9,1,10.2,1.3,14.9,3.4
				c0.8,6.8-3.6,13-5.1,19.5c5.5,1.4,11.1,2.8,16.7,4.3c2.2-5.8,4.3-11.7,7-17.3c5.4-1.5,11,2,16.4,3c-2.1,6.4-4.1,12.9-5.6,19.6
				c5.5,1.5,11,3.1,16.5,4.5c1.9-6.1,4-12.1,6.1-18.2c5.2,1.9,10.4,3.9,15.6,5.9c-1.9,6.5-3.7,13-5.5,19.6
				c5.6,2.4,11.4,4.5,17.4,5.7c1.3-6.3,2.7-12.6,4.2-18.8c5.7,2.1,11.2,4.8,16.3,8.1c-2.1,6.5-4,13.1-5.6,19.7
				c5.1,2.8,10.1,5.6,15.1,8.5c2.4-6.7,4.3-13.5,6.2-20.3c4.7,0.7,9.3,1.3,14.1,1.9c24.1,11.9,46.4,27,68.7,41.9
				c-20.3-23.6-45.9-42.2-72.8-57.4c0-0.9,0-2.6-0.1-3.4c-1.8-0.8-5.5-2.2-7.3-3c-0.7-5.4,0.1-11.3-2.4-16.2
				c-4.1-2.8-8.5-5.1-12.8-7.4c-0.4,4.8-0.7,9.6-1,14.4c-4.6-2.1-9.3-4.2-13.9-6.2c0-5.2,0.2-10.3,0.2-15.4
				c-4.5-1.8-9.1-3.7-13.6-5.5c-0.4,4.4-0.8,8.8-1.2,13.3c-5.3-1-10.5-2.8-15.5-4.9c1-4.9,1.8-9.8,2.5-14.7
				c-4.4-1.2-8.8-2.5-13.2-3.7c-1.9,3.9-2.6,8.7-5.7,12c-4.8-0.6-9.6-1.8-14.3-2.9c1.7-4.4,3.8-8.7,5.5-13.1
				c-4.7-1.4-9.4-2.7-14.1-4.1c-2.8,4.3-5.4,8.7-8.1,13c-5.2-1.3-10.5-2.6-15.7-3.9c2.8-4,5.7-8,8.5-12.1
				C3110,1577.6,3104.3,1576.5,3098.5,1577.1z"/>
		</g>
	</g>
</g>
<text transform="matrix(0.9956 0 0 1 214.7202 564.9248)" class="st6 st15 st16">PLAYER</text>
<text transform="matrix(0.9956 0 0 1 214.7202 719.667)" class="st6 st15 st16">PLAYER</text>
<text transform="matrix(0.9956 0 0 1 214.7202 874.4102)" class="st6 st15 st16">PLAYER</text>
<text transform="matrix(0.9956 0 0 1 214.7202 1029.1523)" class="st6 st15 st16">PLAYER</text>
<text transform="matrix(0.9956 0 0 1 214.7202 1183.8955)" class="st6 st15 st16">PLAYER</text>
<text transform="matrix(0.9956 0 0 1 214.7202 1338.6377)" class="st6 st15 st16">PLAYER</text>
<text transform="matrix(0.9956 0 0 1 214.7202 1493.3809)" class="st6 st15 st16">PLAYER</text>
<text transform="matrix(0.9956 0 0 1 214.7202 1648.123)" class="st6 st15 st16">PLAYER</text>
<text transform="matrix(0.9956 0 0 1 214.7202 1802.8662)" class="st6 st15 st16">PLAYER</text>
<text transform="matrix(0.9956 0 0 1 214.7202 1957.6084)" class="st6 st15 st16">PLAYER</text>
<text transform="matrix(0.9956 0 0 1 214.7202 2112.3516)" class="st6 st15 st16">PLAYER</text>
<text transform="matrix(0.9956 0 0 1 214.7202 2267.0938)" class="st6 st15 st16">PLAYER</text>
<text transform="matrix(0.9956 0 0 1 214.7202 2421.8369)" class="st6 st15 st16">PLAYER</text>
<text transform="matrix(0.9956 0 0 1 883.5098 564.9248)" class="st6 st15 st16">PLAYER</text>
<text transform="matrix(0.9956 0 0 1 883.5098 719.667)" class="st6 st15 st16">PLAYER</text>
<text transform="matrix(0.9956 0 0 1 883.5098 874.4102)" class="st6 st15 st16">PLAYER</text>
<text transform="matrix(0.9956 0 0 1 883.5098 1029.1523)" class="st6 st15 st16">PLAYER</text>
<text transform="matrix(0.9956 0 0 1 883.5098 1183.8955)" class="st6 st15 st16">PLAYER</text>
<text transform="matrix(0.9956 0 0 1 883.5098 1338.6377)" class="st6 st15 st16">PLAYER</text>
<text transform="matrix(0.9956 0 0 1 883.5098 1493.3809)" class="st6 st15 st16">PLAYER</text>
<text transform="matrix(0.9956 0 0 1 883.5098 1648.123)" class="st6 st15 st16">PLAYER</text>
<text transform="matrix(0.9956 0 0 1 883.5098 1802.8662)" class="st6 st15 st16">PLAYER</text>
<text transform="matrix(0.9956 0 0 1 883.5098 1957.6084)" class="st6 st15 st16">PLAYER</text>
<text transform="matrix(0.9956 0 0 1 883.5098 2112.3516)" class="st6 st15 st16">PLAYER</text>
<text transform="matrix(0.9956 0 0 1 883.5098 2267.0938)" class="st6 st15 st16">PLAYER</text>
<text transform="matrix(0.9956 0 0 1 883.5098 2421.8369)" class="st6 st15 st16">PLAYER</text>
<text transform="matrix(0.9956 0 0 1 1552.2988 564.9248)" class="st6 st15 st16">PLAYER</text>
<text transform="matrix(0.9956 0 0 1 2255.9785 1995.3145)" class="st6 st15 st17">COACH</text>
<text transform="matrix(0.9956 0 0 1 2319.8418 2096.208)" class="st6 st15 st18">COACH 1</text>
<text transform="matrix(0.9956 0 0 1 2319.8418 2197.8281)" class="st6 st15 st18">COACH 2</text>
<text transform="matrix(0.9956 0 0 1 2319.8418 2299.4482)" class="st6 st15 st18">COACH 3</text>
<text transform="matrix(0.9956 0 0 1 2319.8418 2401.0674)" class="st6 st15 st18">COACH 4</text>
<text transform="matrix(0.9956 0 0 1 2734.8115 299.4604)" class="st6 st15 st17">CHEERLEADERS</text>
<text transform="matrix(0.9956 0 0 1 2519.2324 400.354)" class="st6 st15 st18">CHEERLEADER 1</text>
<text transform="matrix(0.9956 0 0 1 2519.2324 501.9736)" class="st6 st15 st18">CHEERLEADER 2</text>
<text transform="matrix(0.9956 0 0 1 2519.2324 603.5938)" class="st6 st15 st18">CHEERLEADER 3</text>
<text transform="matrix(0.9956 0 0 1 2519.2324 705.2129)" class="st6 st15 st18">CHEERLEADER 4</text>
<text transform="matrix(0.9956 0 0 1 3367.7422 400.354)" class="st6 st15 st18">CHEERLEADER 5</text>
<text transform="matrix(0.9956 0 0 1 3367.7422 501.9736)" class="st6 st15 st18">CHEERLEADER 6</text>
<text transform="matrix(0.9956 0 0 1 3367.7422 603.5938)" class="st6 st15 st18">CHEERLEADER 7</text>
<text transform="matrix(0.9956 0 0 1 3367.7422 705.2129)" class="st6 st15 st18">CHEERLEADER 8</text>
<text transform="matrix(0.9956 0 0 1 1552.2988 719.667)" class="st6 st15 st16">PLAYER</text>
<text transform="matrix(0.9956 0 0 1 1552.2988 874.4102)" class="st6 st15 st16">PLAYER</text>
<text transform="matrix(0.9956 0 0 1 1552.2988 1029.1523)" class="st6 st15 st16">PLAYER</text>
<text transform="matrix(0.9956 0 0 1 1552.2988 1183.8955)" class="st6 st15 st16">PLAYER</text>
<text transform="matrix(0.9956 0 0 1 1552.2988 1338.6377)" class="st6 st15 st16">PLAYER</text>
<text transform="matrix(0.9956 0 0 1 1552.2988 1493.3809)" class="st6 st15 st16">PLAYER</text>
<text transform="matrix(0.9956 0 0 1 1552.2988 1648.123)" class="st6 st15 st16">PLAYER</text>
<text transform="matrix(0.9956 0 0 1 1552.2988 1802.8662)" class="st6 st15 st16">PLAYER</text>
<text transform="matrix(0.9956 0 0 1 1552.2988 1957.6084)" class="st6 st15 st16">PLAYER</text>
<text transform="matrix(0.9956 0 0 1 1552.2988 2112.3516)" class="st6 st15 st16">PLAYER</text>
<text transform="matrix(0.9956 0 0 1 1552.2988 2267.0938)" class="st6 st15 st16">PLAYER</text>
<text transform="matrix(0.9956 0 0 1 1552.2988 2421.8369)" class="st6 st15 st16">PLAYER</text>
</svg>
