<svg xmlns="http://www.w3.org/2000/svg" width="1500" height="900" viewBox="0 0 1500 900" data-template-id="football-hem-grommet-2-player-stadium-gold-2026" data-sport="football" data-shape="rectangle" data-player-count="2">
  <title>Football Hem &amp; Grommet 2 Player Stadium Gold 2026</title>
  <defs><clipPath id="banner_shape"><rect width="1500" height="900"/></clipPath><radialGradient id="bg_gradient" cx="50%" cy="38%" r="76%"><stop offset="0" stop-color="#fde68a"/><stop offset=".38" stop-color="#f59e0b"/><stop offset="1" stop-color="#111827"/></radialGradient></defs>
  <g id="template_root" clip-path="url(#banner_shape)">
    <rect id="bg_stadium" width="1500" height="900" fill="url(#bg_gradient)"/>
    <g id="bg_lighting"><path d="M0 0 L480 630 L0 900 Z" fill="#fff" opacity=".12"/><path d="M1500 0 L1020.0000000000001 630 L1500 900 Z" fill="#fff" opacity=".12"/></g>
    <g id="field_court_overlay" opacity=".58"><path d="M0 612 H1500" stroke="#fff" stroke-width="5"/><path d="M750 270 V900" stroke="#fff" stroke-width="4"/><text x="750" y="738" text-anchor="middle" font-family="Arial Black, Impact, sans-serif" font-size="126.00000000000001" fill="#fff" opacity=".26">50</text></g>
    <g id="sport_icon" opacity=".92"><ellipse cx="750" cy="252.00000000000003" rx="116.82" ry="63.36" fill="#ca8a04" stroke="#fff" stroke-width="7.92"/><path d="M668.82 252.00000000000003 C716.34 224.28000000000003 783.66 224.28000000000003 831.18 252.00000000000003" fill="none" stroke="#111827" stroke-width="7.92"/><path d="M668.82 252.00000000000003 C716.34 279.72 783.66 279.72 831.18 252.00000000000003" fill="none" stroke="#111827" stroke-width="7.92"/><path d="M726.24 252.00000000000003 H773.76" stroke="#fff" stroke-width="8.91" stroke-linecap="round"/><path d="M742.08 234.18000000000004 V269.82000000000005 M757.92 234.18000000000004 V269.82000000000005" stroke="#fff" stroke-width="4.455" stroke-linecap="round"/></g>
    <g id="logo_team">
  <title>BULLDOGS Football Logo Placeholder</title>
  <defs><filter id="logo_shadow"><feDropShadow dx="0" dy="14" stdDeviation="8" flood-color="#000" flood-opacity=".45"/></filter></defs>
  <g id="logo_team" filter="url(#logo_shadow)"><path id="logo_shield" d="M450 34 L738 138 L690 392 L450 486 L210 392 L162 138 Z" fill="#111827" stroke="#fff" stroke-width="18"/><path id="logo_inner" d="M450 74 L694 160 L654 362 L450 442 L246 362 L206 160 Z" fill="#f59e0b" stroke="#fde68a" stroke-width="10"/><ellipse cx="450" cy="190" rx="87.32" ry="47.36" fill="#ca8a04" stroke="#fff" stroke-width="5.92"/><path d="M389.32 190 C424.84 169.28 475.16 169.28 510.68 190" fill="none" stroke="#111827" stroke-width="5.92"/><path d="M389.32 190 C424.84 210.72 475.16 210.72 510.68 190" fill="none" stroke="#111827" stroke-width="5.92"/><path d="M432.24 190 H467.76" stroke="#fff" stroke-width="6.66" stroke-linecap="round"/><path d="M444.08 176.68 V203.32 M455.92 176.68 V203.32" stroke="#fff" stroke-width="3.33" stroke-linecap="round"/><text id="title_team_name" x="450" y="344" text-anchor="middle" font-family="Arial Black, Impact, sans-serif" font-size="82" fill="#fff" stroke="#111827" stroke-width="8" paint-order="stroke">BULLDOGS</text><text id="title_mascot" x="450" y="405" text-anchor="middle" font-family="Arial Black, Impact, sans-serif" font-size="42" fill="#fde68a">CLUB</text></g>
</g>
    <text id="title_team_name" x="750" y="468" text-anchor="middle" font-family="Arial Black, Impact, sans-serif" font-size="112" fill="#fff" stroke="#111827" stroke-width="10" paint-order="stroke">BULLDOGS</text>
    <text id="subtitle_sport_year" x="750" y="549" text-anchor="middle" font-family="Arial Black, Impact, sans-serif" font-size="54" fill="#fde68a">FOOTBALL 2026</text>
    <g id="player_01" data-layer-role="player" data-player-index="1">
      <clipPath id="player_01_photo_mask"><circle cx="240" cy="450" r="57.275999999999996"/></clipPath>
      <rect id="player_01_photo_placeholder" x="182.724" y="392.724" width="114.55199999999999" height="114.55199999999999" rx="57.275999999999996" fill="#d1d5db" clip-path="url(#player_01_photo_mask)"/>
      <circle id="player_01_frame" cx="240" cy="450" r="66.6" fill="none" stroke="#fff" stroke-width="9.989999999999998"/>
      <circle id="player_01_frame_color" cx="240" cy="450" r="61.272" fill="none" stroke="#f59e0b" stroke-width="5.327999999999999"/>
      <path id="player_01_nameplate" d="M165.40800000000002 526.6 H314.592 L299.94 584.6 H180.06 Z" fill="#111827" stroke="#fff" stroke-width="5"/>
      <text id="player_01_name" x="240" y="567.6" text-anchor="middle" font-family="Arial Black, Impact, sans-serif" font-size="25.308" fill="#fff">PLAYER</text>
      <text id="player_01_number" x="291.948" y="511.272" text-anchor="middle" font-family="Arial Black, Impact, sans-serif" font-size="22.644" fill="#f59e0b" stroke="#fff" stroke-width="3">#1</text>
    </g>
<g id="player_02" data-layer-role="player" data-player-index="2">
      <clipPath id="player_02_photo_mask"><circle cx="1260" cy="450" r="57.275999999999996"/></clipPath>
      <rect id="player_02_photo_placeholder" x="1202.724" y="392.724" width="114.55199999999999" height="114.55199999999999" rx="57.275999999999996" fill="#d1d5db" clip-path="url(#player_02_photo_mask)"/>
      <circle id="player_02_frame" cx="1260" cy="450" r="66.6" fill="none" stroke="#fff" stroke-width="9.989999999999998"/>
      <circle id="player_02_frame_color" cx="1260" cy="450" r="61.272" fill="none" stroke="#f59e0b" stroke-width="5.327999999999999"/>
      <path id="player_02_nameplate" d="M1185.408 526.6 H1334.592 L1319.94 584.6 H1200.06 Z" fill="#111827" stroke="#fff" stroke-width="5"/>
      <text id="player_02_name" x="1260" y="567.6" text-anchor="middle" font-family="Arial Black, Impact, sans-serif" font-size="25.308" fill="#fff">PLAYER</text>
      <text id="player_02_number" x="1311.948" y="511.272" text-anchor="middle" font-family="Arial Black, Impact, sans-serif" font-size="22.644" fill="#f59e0b" stroke="#fff" stroke-width="3">#2</text>
    </g>
    <text id="footer_text" x="750" y="846" text-anchor="middle" font-family="Arial Black, Impact, sans-serif" font-size="38" fill="#fff">ONE SCHOOL. ONE TEAM.</text>
  </g>
</svg>